<svg xmlns="http://www.w3.org/2000/svg" width="27.875" height="22.939" viewBox="0 0 27.875 22.939"><path d="M23.63,15.5a1.742,1.742,0,0,0-1.742,1.742v1.742a2.9,2.9,0,0,1-2.9,2.9H17.242a1.742,1.742,0,0,0,0,3.484h1.742a6.4,6.4,0,0,0,6.388-6.388V17.242A1.742,1.742,0,0,0,23.63,15.5Z" transform="translate(2.503 -2.434)" fill="#562095"/><path d="M8.13,0H6.388A6.4,6.4,0,0,0,0,6.388V8.13a1.742,1.742,0,0,0,3.484,0V6.388a2.9,2.9,0,0,1,2.9-2.9H8.13A1.742,1.742,0,0,0,8.13,0Z" transform="translate(0)" fill="#562095"/><path d="M8.13,21.888H6.388a2.9,2.9,0,0,1-2.9-2.9V17.242a1.742,1.742,0,1,0-3.484,0v1.742a6.4,6.4,0,0,0,6.388,6.388H8.13a1.742,1.742,0,0,0,0-3.484Z" transform="translate(0 -2.433)" fill="#562095"/><path d="M18.984,0H17.242a1.742,1.742,0,1,0,0,3.484h1.742a2.9,2.9,0,0,1,2.9,2.9V8.13a1.742,1.742,0,0,0,3.484,0V6.388A6.4,6.4,0,0,0,18.984,0Z" transform="translate(2.503)" fill="#562095"/></svg>