<svg xmlns="http://www.w3.org/2000/svg" width="23.787" height="23.957" viewBox="0 0 23.787 23.957">
  <g id="flip-horizontal_1_" data-name="flip-horizontal (1)" transform="translate(-0.106 -0.043)">
    <path id="Path_602" data-name="Path 602" d="M10.207.068H10.2a1,1,0,0,0-1.13.56L.375,19.759A3,3,0,0,0,3.106,24H10a1,1,0,0,0,1-1V1.046a1.01,1.01,0,0,0-.793-.978ZM9,22H3.106a1,1,0,0,1-.911-1.414L9,5.616Z" fill="#7f4db9"/>
    <path id="Path_603" data-name="Path 603" d="M23.625,19.759,14.93.628A1.022,1.022,0,0,0,13.778.071,1,1,0,0,0,13,1.046V23a1,1,0,0,0,1,1h6.894a3,3,0,0,0,2.731-4.241Z" fill="#7f4db9"/>
  </g>
</svg>
