<svg xmlns="http://www.w3.org/2000/svg" width="19.997" height="20" viewBox="0 0 19.997 20"><g transform="translate(-0.042)"><path d="M126.188,36.682,110.763,52.1a2.472,2.472,0,0,0,1.07.25h2.642a.827.827,0,0,1,.589.244l1.432,1.431a4.14,4.14,0,0,0,2.934,1.223,4.188,4.188,0,0,0,1.338-.221,4.109,4.109,0,0,0,2.787-3.322l2.814-13.367A2.464,2.464,0,0,0,126.188,36.682Z" transform="translate(-106.399 -35.25)" fill="#69eacc"/><path d="M16.974.064,3.639,2.873A4.164,4.164,0,0,0,1.261,9.942l1.431,1.431a.833.833,0,0,1,.244.59V14.6a2.472,2.472,0,0,0,.25,1.07L18.608.25A2.441,2.441,0,0,0,16.974.064Z" transform="translate(0 0)" fill="#69eacc"/></g></svg>