<svg xmlns="http://www.w3.org/2000/svg" width="23.307" height="23.412" viewBox="0 0 23.307 23.412">
  <g id="rotate-right_1_" data-name="rotate-right (1)" transform="translate(-1.152)">
    <path id="Path_604" data-name="Path 604" d="M22.992,11.694a1.479,1.479,0,0,0-1.454,1.289,8.8,8.8,0,1,1-2.994-7.965l-1.1,1.1a.976.976,0,0,0,.693,1.667h4.478a.976.976,0,0,0,.976-.976V2.334a.976.976,0,0,0-1.667-.69l-1.3,1.3A11.706,11.706,0,1,0,24.44,13.407a1.478,1.478,0,0,0-1.448-1.713Z" transform="translate(0 0)" fill="#7f4eb9"/>
  </g>
</svg>
