<svg xmlns="http://www.w3.org/2000/svg" width="26.94" height="26.806" viewBox="0 0 26.94 26.806">
  <path id="settings_24dp_E8EAED_FILL0_wght400_GRAD0_opsz24" d="M87.784-853.194l-.536-4.289a5.087,5.087,0,0,1-.821-.4q-.385-.235-.754-.5l-3.987,1.675L78-863.079l3.451-2.614a3.2,3.2,0,0,1-.034-.452v-.9a3.2,3.2,0,0,1,.034-.452L78-870.115l3.686-6.366,3.987,1.675a9.134,9.134,0,0,1,.771-.5,6.749,6.749,0,0,1,.8-.4L87.784-880h7.372l.536,4.289a5.087,5.087,0,0,1,.821.4q.385.235.754.5l3.987-1.675,3.686,6.366-3.451,2.614a3.2,3.2,0,0,1,.034.452v.9a1.644,1.644,0,0,1-.067.452l3.451,2.614-3.686,6.366-3.954-1.675a9.133,9.133,0,0,1-.771.5,6.749,6.749,0,0,1-.8.4l-.536,4.289Zm2.346-2.681h2.647l.469-3.552a7.511,7.511,0,0,0,1.927-.787A8.011,8.011,0,0,0,96.8-861.47l3.317,1.374,1.307-2.278-2.882-2.178a4.729,4.729,0,0,0,.235-.989,8.238,8.238,0,0,0,.067-1.055,8.241,8.241,0,0,0-.067-1.056,4.73,4.73,0,0,0-.235-.988l2.882-2.178-1.307-2.279L96.8-871.69a7.445,7.445,0,0,0-1.625-1.29,7.515,7.515,0,0,0-1.927-.787l-.436-3.552H90.163l-.469,3.552a7.515,7.515,0,0,0-1.927.787,8.015,8.015,0,0,0-1.625,1.256L82.825-873.1l-1.307,2.279,2.882,2.144a5.457,5.457,0,0,0-.235,1.005A8.123,8.123,0,0,0,84.1-866.6a7.854,7.854,0,0,0,.067,1.039,5.454,5.454,0,0,0,.235,1.005l-2.882,2.178,1.307,2.278,3.317-1.407a7.445,7.445,0,0,0,1.625,1.29,7.511,7.511,0,0,0,1.927.787Zm1.407-6.031a4.52,4.52,0,0,0,3.317-1.374,4.52,4.52,0,0,0,1.374-3.317,4.52,4.52,0,0,0-1.374-3.317,4.52,4.52,0,0,0-3.317-1.374,4.5,4.5,0,0,0-3.334,1.374,4.548,4.548,0,0,0-1.357,3.317A4.548,4.548,0,0,0,88.2-863.28,4.5,4.5,0,0,0,91.537-861.906ZM91.47-866.6Z" transform="translate(-78 880)" fill="#52b4bc"/>
</svg>
