<svg width="169" height="322" viewBox="0 0 169 322" fill="none" xmlns="http://www.w3.org/2000/svg">
<path fill-rule="evenodd" clip-rule="evenodd" d="M76 195H92C101.94 195 110 203.05 110 213V322H58V213C58 203.05 66.05 195 76 195Z" fill="#B9724D"/>
<path fill-rule="evenodd" clip-rule="evenodd" d="M81 200H87C96.94 200 105 208.05 105 218V322H63V218C63 208.05 71.05 200 81 200Z" fill="#B1643C"/>
<g opacity="0.364081">
<path d="M77 225C80.3137 225 83 222.314 83 219C83 215.686 80.3137 213 77 213C73.6863 213 71 215.686 71 219C71 222.314 73.6863 225 77 225Z" fill="#FFE7D9"/>
</g>
<path fill-rule="evenodd" clip-rule="evenodd" d="M69 257.5C69 250.04 75.04 244 82.5 244C89.95 244 96 250.04 96 257.5V322H69V257.5Z" fill="#9A4F28"/>
<g opacity="0.211132">
<path d="M95 236C98.3137 236 101 233.538 101 230.5C101 227.462 98.3137 225 95 225C91.6863 225 89 227.462 89 230.5C89 233.538 91.6863 236 95 236Z" fill="#FFE7D9"/>
</g>
<g opacity="0.211132">
<path d="M84 283C87.3137 283 90 280.538 90 277.5C90 274.462 87.3137 272 84 272C80.6863 272 78 274.462 78 277.5C78 280.538 80.6863 283 84 283Z" fill="#FFE7D9"/>
</g>
<g opacity="0.211132">
<path d="M78 319C81.3137 319 84 316.538 84 313.5C84 310.462 81.3137 308 78 308C74.6863 308 72 310.462 72 313.5C72 316.538 74.6863 319 78 319Z" fill="#FFE7D9"/>
</g>
<path fill-rule="evenodd" clip-rule="evenodd" d="M94.07 7.84L168.12 254.12C170.05 260.53 165.25 267 158.55 267H10.44C3.74 267 -1.06 260.53 0.870001 254.12L74.92 7.84C77.77 -1.65 91.22 -1.65 94.07 7.84Z" fill="#35E097"/>
<path fill-rule="evenodd" clip-rule="evenodd" d="M92.21 25.28L153.24 248.89C154.63 253.98 150.79 259 145.52 259H23.47C18.2 259 14.36 253.98 15.75 248.89L76.78 25.28C78.92 17.42 90.07 17.42 92.21 25.28Z" fill="#34C33A"/>
<g opacity="0.364081">
<path d="M43 250C49.6274 250 55 244.627 55 238C55 231.373 49.6274 226 43 226C36.3726 226 31 231.373 31 238C31 244.627 36.3726 250 43 250Z" fill="#FFE7D9"/>
</g>
<g opacity="0.364081">
<path d="M100 200C106.075 200 111 195.075 111 189C111 182.925 106.075 178 100 178C93.9249 178 89 182.925 89 189C89 195.075 93.9249 200 100 200Z" fill="#FFE7D9"/>
</g>
<g opacity="0.364081">
<path d="M77 171C83.6274 171 89 165.627 89 159C89 152.373 83.6274 147 77 147C70.3726 147 65 152.373 65 159C65 165.627 70.3726 171 77 171Z" fill="#FFE7D9"/>
</g>
<g opacity="0.364081">
<path d="M69.5 226C76.4036 226 82 220.404 82 213.5C82 206.596 76.4036 201 69.5 201C62.5964 201 57 206.596 57 213.5C57 220.404 62.5964 226 69.5 226Z" fill="#FFE7D9"/>
</g>
<g opacity="0.364081">
<path d="M117 252C123.075 252 128 247.075 128 241C128 234.925 123.075 230 117 230C110.925 230 106 234.925 106 241C106 247.075 110.925 252 117 252Z" fill="#FFE7D9"/>
</g>
<g opacity="0.364081">
<path d="M99 135C105.627 135 111 129.627 111 123C111 116.373 105.627 111 99 111C92.3726 111 87 116.373 87 123C87 129.627 92.3726 135 99 135Z" fill="#FFE7D9"/>
</g>
<g opacity="0.364081">
<path d="M87 99C93.6274 99 99 93.6274 99 87C99 80.3726 93.6274 75 87 75C80.3726 75 75 80.3726 75 87C75 93.6274 80.3726 99 87 99Z" fill="#FFE7D9"/>
</g>
</svg>
