<svg xmlns="http://www.w3.org/2000/svg" width="19.999" height="23.627" viewBox="0 0 19.999 23.627">
  <path id="volume-down" d="M14.644.418A1,1,0,0,0,13.823.2,12.135,12.135,0,0,0,6.269,5H5a5.007,5.007,0,0,0-5,5V14a5.006,5.006,0,0,0,5,5H6.269A12.116,12.116,0,0,0,13.823,23.8,1,1,0,0,0,15,22.814V1.187a1,1,0,0,0-.36-.769ZM13,21.535a10.138,10.138,0,0,1-5.113-3.7l-.3-.415A1,1,0,0,0,6.781,17H5a3,3,0,0,1-3-3V10A3,3,0,0,1,5,7H6.781a1,1,0,0,0,.811-.415l.3-.415A10.154,10.154,0,0,1,13,2.465V21.533Zm5.019-4.763a1,1,0,1,1-1.414-1.414,4.756,4.756,0,0,0,0-6.718,1,1,0,0,1,1.414-1.414,6.757,6.757,0,0,1,0,9.546Z" transform="translate(0.002 -0.188)" fill="#4b76b9"/>
</svg>
