<svg xmlns="http://www.w3.org/2000/svg" width="23.996" height="23.633" viewBox="0 0 23.996 23.633">
  <g id="volume" transform="translate(0 -0.184)">
    <path id="Path_605" data-name="Path 605" d="M20.807,4.29A1,1,0,1,0,19.392,5.7a8.913,8.913,0,0,1,0,12.59,1,1,0,1,0,1.415,1.415,10.916,10.916,0,0,0,0-15.42Z" fill="#4c77b9"/>
    <path id="Path_606" data-name="Path 606" d="M18.1,7.291a1,1,0,0,0-1.42,1.415,4.662,4.662,0,0,1,0,6.588,1,1,0,0,0,1.42,1.415,6.666,6.666,0,0,0,0-9.418Z" fill="#4c77b9"/>
    <path id="Path_607" data-name="Path 607" d="M13.82.2A12.054,12.054,0,0,0,6.266,5H5a5.008,5.008,0,0,0-5,5v4a5.008,5.008,0,0,0,5,5H6.266a12.059,12.059,0,0,0,7.554,4.8.917.917,0,0,0,.181.017,1,1,0,0,0,1-1V1.186A1,1,0,0,0,13.82.2ZM13,21.535a10.083,10.083,0,0,1-5.371-4.08A1,1,0,0,0,6.792,17H5a3,3,0,0,1-3-3V10A3,3,0,0,1,5,7H6.8a1,1,0,0,0,.837-.453A10.079,10.079,0,0,1,13,2.465Z" fill="#4c77b9"/>
  </g>
</svg>
