<svg xmlns="http://www.w3.org/2000/svg" xmlns:xlink="http://www.w3.org/1999/xlink" width="41.52" height="41.08" viewBox="0 0 41.52 41.08">
  <defs>
    <clipPath id="clip-path">
      <path d="M9.82,30.92c1.28,1.33,2.91,1.84,3.63,1.15s.26-2.34-1-3.67-2.91-1.84-3.63-1.15S8.53,29.59,9.82,30.92Z" fill="none"/>
    </clipPath>
  </defs>
  <g style="isolation: isolate">
    <g id="Layer_2" data-name="Layer 2">
      <g id="Layer_2-2" data-name="Layer 2">
        <g id="cat_toy_1" data-name="cat_toy 1">
          <g>
            <ellipse cx="3.95" cy="37.25" rx="2.84" ry="4.7" transform="translate(-25.99 14.75) rotate(-47.02)" fill="#ec7670"/>
            <line x1="3.59" y1="37.64" x2="9.43" y2="32.07" fill="none" stroke="#ec7670" stroke-linecap="round" stroke-linejoin="round" stroke-width="1.44"/>
            <ellipse cx="3.42" cy="37.82" rx="1.85" ry="4.35" transform="translate(-26.58 14.54) rotate(-47.02)" fill="#c2331d"/>
          </g>
          <g>
            <path d="M10.65,30.34c1.84,1.9,2.58,3.93,4.47,2.09l23.79-21.7c1.89-1.84,1.28-5.54-.55-7.44h0C36.52,1.4,32.84.66,30.94,2.5L8.48,25.57c-1.9,1.83-.29,3,1.55,4.85Z" fill="#e8a4d2"/>
            <path d="M9.28,31.44c1.82,1.87,4.11,2.59,5.12,1.61s.37-3.29-1.45-5.17-4.1-2.6-5.12-1.61S7.47,29.56,9.28,31.44Z" fill="#e8a4d2"/>
            <path d="M27,21.6,15.12,32.43a3.27,3.27,0,0,1-.59.47.93.93,0,0,1-.13.15c-1,1-3.3.26-5.12-1.61s-2.46-4.19-1.45-5.17L8,26.14a3.4,3.4,0,0,1,.49-.57L19.4,14.35A10.66,10.66,0,0,1,28.75,20Z" fill="#e8a4d2" opacity="0.27" style="mix-blend-mode: screen"/>
            <g>
              <path d="M13.18,34a6.49,6.49,0,0,1-4.24-2.2A7.55,7.55,0,0,1,7,28.64a2.64,2.64,0,0,1,.46-2.72,2.19,2.19,0,0,1,1.55-.57,6.51,6.51,0,0,1,4.25,2.2,7.59,7.59,0,0,1,1.9,3.12,2.67,2.67,0,0,1-.46,2.73,2.22,2.22,0,0,1-1.56.57Z" fill="#ac538c"/>
              <path d="M9.06,25.83A6,6,0,0,1,13,27.88c1.82,1.88,2.47,4.19,1.45,5.17a1.68,1.68,0,0,1-1.22.44,6.08,6.08,0,0,1-3.9-2.05c-1.81-1.88-2.46-4.19-1.45-5.17a1.7,1.7,0,0,1,1.23-.44m0-1a2.61,2.61,0,0,0-1.89.71,3.09,3.09,0,0,0-.6,3.19,8.24,8.24,0,0,0,2,3.33,6.92,6.92,0,0,0,4.59,2.35,2.62,2.62,0,0,0,1.89-.71,3.08,3.08,0,0,0,.59-3.2,8,8,0,0,0-2-3.32,6.88,6.88,0,0,0-4.58-2.35Z" fill="#84205c"/>
            </g>
            <g clip-path="url(#clip-path)">
              <path d="M9.82,30.92c1.28,1.33,2.91,1.84,3.63,1.15s.26-2.34-1-3.67-2.91-1.84-3.63-1.15S8.53,29.59,9.82,30.92Z" fill="#84205c"/>
              <circle cx="11.9" cy="28.95" r="2.44" fill="#a7bfee"/>
            </g>
          </g>
          <path d="M33.86,1.44a6.54,6.54,0,0,1,4.5,1.85c1.83,1.9,2.44,5.6.55,7.44L28.75,20,27,21.6,15.12,32.43l-.16.15-.1.08a.1.1,0,0,1,0,0l-.13.1h0l-.13.09h0a.93.93,0,0,1-.13.15,1.68,1.68,0,0,1-1.22.44,6.08,6.08,0,0,1-3.9-2.05c-1.81-1.88-2.46-4.19-1.45-5.17L8,26.14l.21-.28a3.69,3.69,0,0,1,.28-.29L19.4,14.35h0L30.94,2.5a4.1,4.1,0,0,1,2.92-1.06m0-1.44h0a5.52,5.52,0,0,0-3.92,1.46L18.37,13.35,7.45,24.56c-.11.11-.24.24-.35.37l-.16.2-.11.1a3.61,3.61,0,0,0-.72,3.67,8.67,8.67,0,0,0,2.14,3.54,7.36,7.36,0,0,0,4.93,2.49,3.09,3.09,0,0,0,2.22-.84l.11-.11a1.73,1.73,0,0,0,.2-.15l.06,0,.14-.12.21-.19L28,22.67l1.76-1.61,10.16-9.27c2.59-2.5,1.87-7.07-.49-9.5A8,8,0,0,0,33.86,0Z" fill="#ac538c"/>
          <g>
            <path d="M17.53,25.05A2.23,2.23,0,0,1,16,24.3a2.58,2.58,0,0,1-.64-1.06A1.27,1.27,0,0,1,15.65,22l.17-.19,5.78-5.93a1.78,1.78,0,0,1,1.27-.49,2.39,2.39,0,0,1,1.67.69A2.18,2.18,0,0,1,24.67,19l-6.15,5.62-.19.15A1.11,1.11,0,0,1,17.53,25.05Z" fill="#a7bfee"/>
            <path d="M22.86,16.06a1.67,1.67,0,0,1,1.17.48,1.46,1.46,0,0,1,.14,1.91l-2.62,2.4-.46.41L18,24.05l0,0,0,0h0l0,0h0l0,0h0l0,0a.44.44,0,0,1-.32.12,1.61,1.61,0,0,1-1-.53c-.46-.49-.63-1.08-.37-1.34l0,0s0-.05.06-.07l.07-.08,2.81-2.89,3-3.06a1.07,1.07,0,0,1,.75-.27m0-1.44h0a2.49,2.49,0,0,0-1.75.68l-3,3.08-2.81,2.9a1.06,1.06,0,0,0-.14.15h0c-.84.83-.69,2.27.36,3.36a3,3,0,0,0,2,1,1.85,1.85,0,0,0,1.3-.51h0l.09-.07.09-.09,3-2.77.46-.41,2.62-2.39a2.9,2.9,0,0,0-.08-4,3.12,3.12,0,0,0-2.2-.91Z" fill="#5576b4"/>
          </g>
        </g>
      </g>
    </g>
  </g>
</svg>
