<svg xmlns="http://www.w3.org/2000/svg" width="41.87" height="41.19" viewBox="0 0 41.87 41.19">
  <g style="isolation: isolate">
    <g id="Layer_2" data-name="Layer 2">
      <g id="Layer_2-2" data-name="Layer 2">
        <g id="cat_food_2" data-name="cat_food 2">
          <g>
            <ellipse cx="20.94" cy="34.47" rx="18.15" ry="5.37" fill="#baa2ee"/>
            <ellipse cx="20.94" cy="33.9" rx="19.8" ry="5.46" fill="#f3ebfc"/>
            <ellipse cx="20.94" cy="33.37" rx="19.8" ry="5.46" fill="#dcb8fe"/>
            <ellipse cx="22.59" cy="33.94" rx="14.68" ry="3.78" fill="#baa2ee"/>
            <path d="M20.94,28c10.76,0,19.49,2.4,19.49,5.37a2.28,2.28,0,0,1,0,.26,2.11,2.11,0,0,1,0,.26c0,1.3-1.67,2.49-4.46,3.42-3.18,1.46-8.72,2.43-15,2.43s-11.86-1-15-2.43c-2.79-.93-4.46-2.12-4.46-3.42a2.11,2.11,0,0,1,0-.26,2.28,2.28,0,0,1,0-.26c0-3,8.73-5.37,19.5-5.37m0-1.44C10.85,26.57,0,28.7,0,33.38a2.35,2.35,0,0,0,0,.26,2.26,2.26,0,0,0,0,.26c0,2,1.81,3.56,5.37,4.76,3.5,1.58,9.31,2.53,15.57,2.53S33,40.24,36.5,38.66c3.56-1.2,5.37-2.8,5.37-4.76a2.26,2.26,0,0,0,0-.26,2.35,2.35,0,0,0,0-.26c0-4.68-10.85-6.81-20.93-6.81Z" fill="#7850b3"/>
          </g>
          <g>
            <g>
              <path d="M38.1,3.43h0a2.11,2.11,0,0,0-.71,0v0a1.62,1.62,0,0,1-.29.19,1.65,1.65,0,0,0-.31.2,3.52,3.52,0,0,0-.64.69,3.52,3.52,0,0,1,.64-.69,1.65,1.65,0,0,1,.31-.2,1.62,1.62,0,0,0,.29-.19v0a2.72,2.72,0,0,0-.69.09,2.55,2.55,0,0,0-.78-1.25,3.34,3.34,0,0,0-2.28-.8,5.21,5.21,0,0,0-.57.08h0l-.11,0-.1,0-.11,0-.1,0-.1,0-.1.05-.1,0-.1.05-.09.06-.09.05L32,2l-.09.06-.08.07-.08.07-.08.07-.07.07a2.18,2.18,0,0,0-.64,2.12,6.43,6.43,0,0,1,.28,1.15c.09,1.25-.8,2.29-1.72,3.21.36.15.71.31,1,.48a14.13,14.13,0,0,1,1.55.93c.34.23.66.49,1,.74A11.25,11.25,0,0,1,34,10a5.73,5.73,0,0,1,2.92-1.5l.87-.12.14,0,.14,0,.13,0,.13,0,.14-.05.12-.06.13-.06L38.79,8l.12-.07L39,7.84l.11-.08.11-.09.1-.08.1-.1.09-.09.09-.1.09-.11a.76.76,0,0,0,.08-.11A1,1,0,0,1,39.88,7L40,6.85,40,6.73l.06-.12s0-.08,0-.13l0-.12,0-.13,0-.12c0-.05,0-.09,0-.13s0-.09,0-.13V5.72a.57.57,0,0,0,0-.13.62.62,0,0,0,0-.13.5.5,0,0,0,0-.12,2.32,2.32,0,0,0-1.13-1.57A2.77,2.77,0,0,0,38.1,3.43ZM33.87,1.89a2.21,2.21,0,0,1,.34.18,2.21,2.21,0,0,0-.34-.18l-.2-.08Zm-.79-.35h0a.58.58,0,0,0,.15.11A.58.58,0,0,1,33.08,1.54ZM34.35,8.2a3.32,3.32,0,0,0-.37.23,1.09,1.09,0,0,0-.17.13A1.09,1.09,0,0,1,34,8.43a3.32,3.32,0,0,1,.37-.23,6.88,6.88,0,0,1,1.26-.53A6.88,6.88,0,0,0,34.35,8.2Zm4.31-3.66a.13.13,0,0,1,0,.06.13.13,0,0,0,0-.06.43.43,0,0,0,0-.11A.43.43,0,0,1,38.66,4.54ZM38.45,4l-.06-.12a.43.43,0,0,1,0-.07.43.43,0,0,0,0,.07Zm-.16-.28,0,0a.76.76,0,0,1-.08-.11.76.76,0,0,0,.08.11Z" fill="#fef4cf"/>
              <path d="M38.25,3.62a.41.41,0,0,1,.07.11.61.61,0,0,1,.07.1l.06.12.06.11.05.12s0,.08,0,.12l0,.12a.53.53,0,0,1,0,.12.51.51,0,0,1,0,.13s0,.08,0,.12V5a.53.53,0,0,1,0,.13s0,.08,0,.13a.5.5,0,0,0,0,.12l0,.13a2.73,2.73,0,0,1-1.77,1.78c-.41.14-.84.22-1.25.34A6.57,6.57,0,0,0,34,8.43a4.62,4.62,0,0,0-.55.41,5.44,5.44,0,0,0-.49.47,4.91,4.91,0,0,1-.85.91,14.13,14.13,0,0,0-1.55-.93c-.33-.17-.68-.33-1-.48.92-.92,1.81-2,1.72-3.21a6.43,6.43,0,0,0-.28-1.15,2.18,2.18,0,0,1,.64-2.12l.07-.07.08-.07.08-.07.08-.07L32,2l.09-.06.09-.05.09-.06.1-.05.1,0,.1-.05.1,0,.1,0,.11,0,.1,0,.11,0v0c.14.17.57.25.79.35a3.16,3.16,0,0,1,1.75,2.26,5.15,5.15,0,0,1,0,1.11A6,6,0,0,1,36.8,3.81c.18-.15.45-.24.6-.39v0a2.11,2.11,0,0,1,.71,0Z" fill="#fef4cf"/>
            </g>
            <path d="M33.64,1.44a3.34,3.34,0,0,1,2.28.8,2.55,2.55,0,0,1,.78,1.25,3.84,3.84,0,0,1,.68-.09h0v0a1.62,1.62,0,0,1-.29.19,1.65,1.65,0,0,0-.31.2,3.52,3.52,0,0,0-.64.69,3.52,3.52,0,0,1,.64-.69,1.65,1.65,0,0,1,.31-.2,1.62,1.62,0,0,0,.29-.19h0v0l.29,0a1.51,1.51,0,0,1,.42.05,2.77,2.77,0,0,1,1,.34,2.32,2.32,0,0,1,1.13,1.57.5.5,0,0,1,0,.12.62.62,0,0,1,0,.13.57.57,0,0,1,0,.13v.13s0,.08,0,.13,0,.08,0,.13l0,.12,0,.13,0,.12s0,.09,0,.13L40,6.73,40,6.85,39.88,7a1,1,0,0,0-.08.11.76.76,0,0,1-.08.11l-.09.11-.09.1-.09.09-.1.1-.1.08-.11.09L39,7.84l-.12.07L38.79,8l-.12.07-.13.06-.12.06-.14.05-.13,0-.13,0-.14,0-.14,0-.87.12A5.73,5.73,0,0,0,34,10a11.25,11.25,0,0,0-.87,1c-.33-.25-.65-.51-1-.74a14.13,14.13,0,0,0-1.55-.93c-.33-.17-.68-.33-1-.48.92-.92,1.81-2,1.72-3.21a6.43,6.43,0,0,0-.28-1.15,2.18,2.18,0,0,1,.64-2.12l.07-.07.08-.07.08-.07.08-.07L32,2l.09-.06.09-.05.09-.06.1-.05.1,0,.1-.05.1,0,.1,0,.11,0,.1,0,.11,0a5.21,5.21,0,0,1,.57-.08m-.56.09h0l0,0,.12.08-.12-.08,0,0h0m.79.36a2.21,2.21,0,0,1,.34.18,2.21,2.21,0,0,0-.34-.18l-.2-.08.2.08m4.34,1.68,0,.05,0,0,0,0,0-.05,0-.06,0,.06m.18.26.06.12-.06-.12a.43.43,0,0,1,0-.07.43.43,0,0,0,0,.07m.27.71a.13.13,0,0,1,0,.06.13.13,0,0,0,0-.06.43.43,0,0,0,0-.11.43.43,0,0,1,0,.11M34.33,8.21c-.12.07-.24.14-.35.22a1.09,1.09,0,0,0-.17.13A1.09,1.09,0,0,1,34,8.43c.11-.08.23-.15.35-.22h0a6.88,6.88,0,0,1,1.26-.53,6.88,6.88,0,0,0-1.26.53h0M33.64,0H33.5a5.29,5.29,0,0,0-.73.1l-.16,0-.16,0-.15,0-.15,0L32,.35l-.15.07-.14.06-.15.08-.13.08-.14.08-.13.09L31,.91,30.9,1l-.12.1-.12.11-.11.11a3.63,3.63,0,0,0-1,3.51c0,.13.07.26.11.39a2,2,0,0,1,.12.48c0,.64-.6,1.39-1.3,2.1a1.42,1.42,0,0,0-.39,1.3A1.44,1.44,0,0,0,29,10.15a9.23,9.23,0,0,1,.9.42l.05,0a12.11,12.11,0,0,1,1.32.79c.27.19.49.36.72.54l.24.19a1.46,1.46,0,0,0,2-.22l.07-.08c.24-.28.46-.54.69-.76A4.22,4.22,0,0,1,37.1,9.93l.29,0A6,6,0,0,0,38,9.79l.19,0,.19-.05.2-.06.18-.07L39,9.5l.18-.08.18-.09.18-.09.17-.11.16-.1L40,8.91l.16-.12.15-.13.14-.14.15-.14.13-.15s.08-.1.12-.15L41,7.91l.12-.18.1-.18a1.14,1.14,0,0,0,.1-.19l.09-.19c0-.06,0-.13.08-.19l.06-.2.06-.2a2.07,2.07,0,0,0,0-.22,1.18,1.18,0,0,0,0-.2c0-.08,0-.15,0-.22V5.73a1.47,1.47,0,0,0,0-.21,1.49,1.49,0,0,0,0-.21.76.76,0,0,0,0-.21,3.75,3.75,0,0,0-1.82-2.57A4.33,4.33,0,0,0,38.38,2a3.86,3.86,0,0,0-.7-.07h-.12a4.41,4.41,0,0,0-.67-.77A4.8,4.8,0,0,0,33.64,0Z" fill="#b25c22"/>
            <g>
              <path d="M31.05,10.58a5.07,5.07,0,0,1,2,1.94c.42,1.06-.67,1.63-1.3,2.37A4.9,4.9,0,0,0,31,16.3a9.63,9.63,0,0,0-.54,3.39c0,.45,0,.9,0,1.35a4.36,4.36,0,0,1,0,.51c0,.17,0,.34,0,.51l-.06.51c0,.17-.05.34-.08.5l-.09.51c0,.17-.07.34-.11.5l-.12.51c-.05.16-.09.33-.14.5s-.1.33-.16.49-.11.33-.16.5l-.19.49c-.06.16-.13.32-.2.48l-.21.49c-.07.16-.15.32-.23.48l-.24.47L28.1,29A14.9,14.9,0,0,1,20,35.59a12.89,12.89,0,0,1-6.71.39,11.8,11.8,0,0,1-1.72-.5,12.7,12.7,0,0,1-1.35-.62A7.21,7.21,0,0,1,9,34.05a17.37,17.37,0,0,0,10.53-5.13,23.56,23.56,0,0,0,5.56-9,22.5,22.5,0,0,1,1.73-4.39,10.89,10.89,0,0,1,1.66-2,8.22,8.22,0,0,0,1.11-1.18,1.68,1.68,0,0,0,.29-1,2.16,2.16,0,0,0-1-1.62,2.72,2.72,0,0,0-.5-.29c-.15-.07-.47-.11-.58-.21V9.19a7.27,7.27,0,0,1,2.3.83A6.75,6.75,0,0,1,31.05,10.58Z" fill="#c9784b"/>
              <path d="M27.82,9.25V9.19a4.61,4.61,0,0,0-.53,0l-.38.07c-.89.27-1.07,1-1.54,1.63l-.33.38c-.12.12-.24.24-.37.35a4.23,4.23,0,0,1-.41.33c-.14.1-.28.2-.43.29a14.6,14.6,0,0,1-4.31,1.39,21.06,21.06,0,0,0-9.8,5.23c-2.51,2.42-4.21,5.61-4.08,8.82A8.54,8.54,0,0,0,9,34.05a17.37,17.37,0,0,0,10.53-5.13,23.56,23.56,0,0,0,5.56-9,22.5,22.5,0,0,1,1.73-4.39,10.89,10.89,0,0,1,1.66-2,8.22,8.22,0,0,0,1.11-1.18,1.68,1.68,0,0,0,.29-1,2.16,2.16,0,0,0-1-1.62,2.72,2.72,0,0,0-.5-.29C28.25,9.39,27.93,9.35,27.82,9.25Z" fill="#dd8c54"/>
            </g>
            <path d="M27.82,9.19h0a4.61,4.61,0,0,0-.53,0l-.38.07c-.89.27-1.07,1-1.54,1.63l-.33.38c-.12.12-.24.24-.37.35a4.23,4.23,0,0,1-.41.33c-.14.1-.28.2-.43.29a14.6,14.6,0,0,1-4.31,1.39,21.06,21.06,0,0,0-9.8,5.23c-2.51,2.42-4.21,5.61-4.08,8.82A8.54,8.54,0,0,0,9,34.05a7.21,7.21,0,0,0,1.2.81,12.7,12.7,0,0,0,1.35.62,11.8,11.8,0,0,0,1.72.5A12.89,12.89,0,0,0,20,35.59,14.9,14.9,0,0,0,28.1,29l.26-.47L28.6,28c.08-.16.16-.32.23-.48l.21-.49c.07-.16.14-.32.2-.48l.19-.49c.05-.17.11-.33.16-.5s.11-.33.16-.49.09-.34.14-.5l.12-.51c0-.16.07-.33.11-.5l.09-.51c0-.16.05-.33.08-.5l.06-.51c0-.17,0-.34,0-.51a4.36,4.36,0,0,0,0-.51c0-.45,0-.9,0-1.35A9.63,9.63,0,0,1,31,16.3a4.9,4.9,0,0,1,.82-1.41c.63-.74,1.72-1.31,1.3-2.37a5.07,5.07,0,0,0-2-1.94,6.75,6.75,0,0,0-.93-.56A7.27,7.27,0,0,0,27.82,9.19Zm1.53,3.47a2.34,2.34,0,0,0,.24-.31h0A2.34,2.34,0,0,1,29.35,12.66Zm-1.77,1.83c.28-.33.59-.66.9-1a3.83,3.83,0,0,1,.29-.28,3.83,3.83,0,0,0-.29.28C28.17,13.83,27.86,14.16,27.58,14.49Zm-.76,1c-.1.17-.2.34-.29.52.09-.18.19-.35.29-.52a6.18,6.18,0,0,1,.36-.53A6.18,6.18,0,0,0,26.82,15.54Zm1.12-6.22.32.09.14.05a2.72,2.72,0,0,1,.5.29,2.72,2.72,0,0,0-.5-.29l-.14-.05Z" fill="#eda38e" opacity="0.19" style="mix-blend-mode: overlay"/>
            <path d="M27.43,9.17l.39,0v.06a.35.35,0,0,0,.12.07l.28.08-.28-.08a.35.35,0,0,1-.12-.07V9.19a7.27,7.27,0,0,1,2.3.83,6.75,6.75,0,0,1,.93.56,5.07,5.07,0,0,1,2,1.94c.42,1.06-.67,1.63-1.3,2.37A4.9,4.9,0,0,0,31,16.3a9.63,9.63,0,0,0-.54,3.39c0,.45,0,.9,0,1.35a4.36,4.36,0,0,1,0,.51c0,.17,0,.34,0,.51l-.06.51c0,.17-.05.34-.08.5l-.09.51c0,.17-.07.34-.11.5l-.12.51c-.05.16-.09.33-.14.5s-.1.33-.16.49-.11.33-.16.5l-.19.49c-.06.16-.13.32-.2.48l-.21.49c-.07.16-.15.32-.23.48l-.24.47L28.1,29A14.9,14.9,0,0,1,20,35.59a13.16,13.16,0,0,1-4.09.66A12.88,12.88,0,0,1,13.27,36a11.8,11.8,0,0,1-1.72-.5,12.7,12.7,0,0,1-1.35-.62A7.74,7.74,0,0,1,9,34.05a17.37,17.37,0,0,0,10.54-5.13,21,21,0,0,0,1.67-1.87,21,21,0,0,1-1.67,1.87A17.37,17.37,0,0,1,9,34.05a8.56,8.56,0,0,1-3.35-6.39c-.13-3.21,1.57-6.4,4.08-8.82a21.06,21.06,0,0,1,9.8-5.23,14.6,14.6,0,0,0,4.31-1.39c.15-.09.29-.19.43-.29a4.23,4.23,0,0,0,.41-.33c.13-.11.25-.23.37-.35l.33-.38c.47-.6.65-1.36,1.54-1.63l.38-.07h.14m1,.29a2.72,2.72,0,0,1,.5.29,2.52,2.52,0,0,1,.39.33h0a2,2,0,0,1,.49.81h0a2,2,0,0,0-.49-.81h0a2.52,2.52,0,0,0-.39-.33,2.72,2.72,0,0,0-.5-.29l-.11,0,.11,0m.8,3.36c-.13.15-.29.29-.43.43a3.83,3.83,0,0,0-.29.28c-.31.3-.62.63-.9,1a9.29,9.29,0,0,0-.76,1,18.13,18.13,0,0,0-1.54,3.84,18.13,18.13,0,0,1,1.54-3.84,9.29,9.29,0,0,1,.76-1c.28-.33.59-.66.9-1a3.83,3.83,0,0,1,.29-.28c.14-.14.3-.28.43-.43a2.86,2.86,0,0,0,.39-.47,1.61,1.61,0,0,0,.22-.48,1.61,1.61,0,0,1-.22.48,2.86,2.86,0,0,1-.39.47M27.43,7.73h-.26A3.19,3.19,0,0,0,24.49,9.6c-.09.14-.18.28-.26.38a3,3,0,0,1-.24.28,3.31,3.31,0,0,1-.27.26l-.31.25-.33.22a9.92,9.92,0,0,1-3,1l-.88.2A22.54,22.54,0,0,0,8.72,17.8c-3,2.9-4.66,6.51-4.52,9.92a10,10,0,0,0,3.91,7.46,8.83,8.83,0,0,0,1.41,1l.22.11a12.08,12.08,0,0,0,1.3.57,11.45,11.45,0,0,0,1.93.56,13.67,13.67,0,0,0,2.92.31A14.55,14.55,0,0,0,20.42,37a16.38,16.38,0,0,0,8.93-7.29c.1-.17.19-.34.28-.51s.18-.33.26-.51.17-.34.25-.51.15-.35.23-.52l.21-.53c.07-.17.14-.35.2-.53s.13-.35.18-.53.12-.36.17-.54l.15-.54c0-.18.09-.36.13-.54l.12-.55c0-.18.07-.37.1-.55s.06-.36.08-.55.05-.37.07-.55,0-.37,0-.55l0-.56c0-.29,0-.58,0-.87s0-.35,0-.52a8.38,8.38,0,0,1,.45-2.89,3.36,3.36,0,0,1,.56-1c.1-.12.25-.25.4-.4A3,3,0,0,0,34.43,12a6.36,6.36,0,0,0-2.58-2.62A8.38,8.38,0,0,0,31,8.85l-.17-.09-.07,0-.07,0A8.31,8.31,0,0,0,28,7.76h-.16l-.42,0Z" fill="#b25c22"/>
          </g>
        </g>
      </g>
    </g>
  </g>
</svg>
