<svg xmlns="http://www.w3.org/2000/svg" width="41.54" height="40.31" viewBox="0 0 41.54 40.31">
  <g id="Layer_2" data-name="Layer 2">
    <g id="Layer_2-2" data-name="Layer 2">
      <g id="cat_food_4" data-name="cat_food 4">
        <g>
          <g>
            <path d="M37.66,34.08c-3.47,1.79-9.7,3-16.83,3.1-11,.12-20-2.57-20.11-6L.8,34.12s2.55,6.24,21.81,5.38c8.26-.36,12.78-1.6,15.26-2.79l-.21-2.63Z" fill="#924f28"/>
            <path d="M40.82,34.16l-.24-3.69h0a2.4,2.4,0,0,1,0,.28c0,1.21-1,2.35-2.93,3.32h0l.21,2.63C40.57,35.41,40.82,34.16,40.82,34.16Z" fill="#af7553"/>
          </g>
          <path d="M40.58,30.47h0a2.4,2.4,0,0,1,0,.28c0,1.21-1,2.35-2.93,3.32-3.47,1.79-9.7,3-16.83,3.1-11,.12-20-2.57-20.11-6L.8,34.12s2.55,6.24,21.81,5.38c8.26-.36,12.78-1.6,15.26-2.79,2.7-1.3,3-2.55,3-2.55Z" fill="none" stroke="#6a3417" stroke-linecap="round" stroke-linejoin="round" stroke-width="1.44"/>
          <g>
            <path d="M40.56,30.48c-.57-3.3-9.38-5.83-20.08-5.72A51,51,0,0,0,7.26,26.48L19,30s-.31,1,1.09,1.57S22,30.41,22,30.41l14.37-.68a2.4,2.4,0,0,0-.66,1.2c-.16.79.11,1.91,1.91,3.15,1.89-1,3-2.11,2.93-3.32A2.4,2.4,0,0,0,40.56,30.48Z" fill="#ddab88"/>
            <path d="M35.75,30.93a2.4,2.4,0,0,1,.66-1.2L22,30.41s-.55,1.72-1.95,1.18S19,30,19,30L7.26,26.48C3.2,27.66.67,29.34.72,31.18c.1,3.43,9.1,6.12,20.11,6,7.13-.07,13.36-1.31,16.83-3.1C35.86,32.84,35.59,31.72,35.75,30.93Z" fill="#af7553"/>
          </g>
          <path d="M40.56,30.48c-.57-3.3-9.38-5.83-20.08-5.72A51,51,0,0,0,7.26,26.48C3.2,27.66.67,29.34.72,31.18c.1,3.43,9.1,6.12,20.11,6,7.13-.07,13.36-1.31,16.83-3.1,1.89-1,3-2.11,2.93-3.32A2.4,2.4,0,0,0,40.56,30.48Z" fill="none" stroke="#6a3417" stroke-miterlimit="10" stroke-width="1.44"/>
        </g>
        <g>
          <g>
            <g>
              <path d="M20.75,33.9c-8.89,0-18.35-2-18.37-5.84L2.24,6.67a.69.69,0,0,1,.21-.51A.68.68,0,0,1,3,5.94H4.53C7.68,4.12,13.85,3,20.73,3h.17C27.7,3,33.82,4.07,37,5.85h1.58a.73.73,0,0,1,.72.71L39.4,28a2.79,2.79,0,0,1-.91,2c-2.34,2.36-9.4,4-17.56,4Z" fill="#6ab3b9"/>
              <path d="M20.9,3.69c7,0,13,1.17,15.87,2.88h1.77L38.68,28c0,2.86-7.93,5.19-17.76,5.22h-.17C11,33.18,3.12,30.9,3.1,28.06L3,6.66H4.72c2.87-1.74,9-2.95,16-3h.17m0-1.44h-.18c-6.87,0-13.08,1.15-16.39,3H3a1.46,1.46,0,0,0-1,.43,1.4,1.4,0,0,0-.41,1l.14,21.4c0,4.5,9.92,6.55,19.09,6.55h.18C29.4,34.6,36.5,33,39,30.42A3.48,3.48,0,0,0,40.12,28L40,6.56a1.44,1.44,0,0,0-1.44-1.43H37.15C33.85,3.35,27.7,2.25,20.9,2.25Z" fill="#28575c"/>
            </g>
            <g>
              <path d="M20.61,12.51c-8.89,0-18.35-2-18.37-5.84a2.74,2.74,0,0,1,.9-2c2.34-2.37,9.4-4,17.57-4h.18c8.88,0,18.34,2.05,18.37,5.84a2.75,2.75,0,0,1-.91,2c-2.34,2.36-9.4,4-17.57,4Z" fill="#cecece"/>
              <path d="M20.88,1.44c9.75,0,17.64,2.28,17.66,5.13s-7.93,5.19-17.76,5.22h-.17C10.86,11.79,3,9.51,3,6.66s7.93-5.19,17.75-5.22h.17m0-1.44h-.17C12.23,0,5.13,1.67,2.63,4.2A3.41,3.41,0,0,0,1.52,6.67c0,4.51,9.92,6.56,19.09,6.56h.17c8.48,0,15.58-1.67,18.08-4.2A3.47,3.47,0,0,0,40,6.56C40,2.05,30.06,0,20.88,0Z" fill="#28575c"/>
            </g>
          </g>
          <path d="M14.62,3.4A4.81,4.81,0,0,1,16,3.57c2.49.76,2.88,3.68-.43,4a30.32,30.32,0,0,1-3.16.15c-3,0-6.12-.33-6.42-.89,0,0-1.11-1.2.22-1.62,1.12-.35,5.55-1.85,8.4-1.85M12.18,7a18.43,18.43,0,0,0,4.31-.39c.56-.3.5-2.79-1.65-2.79l-.44,0s-3.77.45-4.09.81S10.23,6.77,11,7A7.68,7.68,0,0,0,12.18,7m2.44-4.58c-2.76,0-6.82,1.3-8.35,1.79l-.34.1a1.76,1.76,0,0,0-1.27,1.2,2.31,2.31,0,0,0,.63,2h0c.73.8,3.12,1.2,7.13,1.2a31.11,31.11,0,0,0,3.26-.15c2.23-.25,3.14-1.51,3.24-2.61a3.36,3.36,0,0,0-2.63-3.31,5.76,5.76,0,0,0-1.67-.21ZM11.14,5.37c.66-.16,2.14-.4,3.38-.55l.32,0a.86.86,0,0,1,.8.35,1.24,1.24,0,0,1,.19.68,29.5,29.5,0,0,1-3.65.22c-.48,0-.75,0-.88,0a1.78,1.78,0,0,1-.16-.66Z" fill="#575757"/>
          <path d="M16,3.57c-2.49-.76-8.46,1.26-9.79,1.68S6,6.87,6,6.87c.42.78,6.27,1.1,9.58.74S18.5,4.33,16,3.57Zm.48,3.06A21,21,0,0,1,11,7c-.74-.18-1-1.92-.66-2.27s4.09-.81,4.09-.81C17,3.51,17.09,6.31,16.49,6.63Z" fill="#8d8d8d"/>
          <path d="M34.94,25.08c-.76.34-3.15-.74-4.45-1.79-1.57,1.38-5,3.54-11,3.79a21.15,21.15,0,0,1-3.56-.15A13.9,13.9,0,0,1,9,24.12a1.74,1.74,0,0,1-.68-1.19,1.79,1.79,0,0,1,1.17-1.72,24.32,24.32,0,0,1,7.24-2A21.32,21.32,0,0,1,19,19a28.4,28.4,0,0,1,11,2.41c.77-1,2.67-3.49,3.38-3.42.91.09-.5,3.65-.5,3.65s.62.58,1.21,1.26C34.87,23.78,35.56,24.8,34.94,25.08Z" fill="#5576b4"/>
          <path d="M34.94,25.08c-.76.34-3.15-.74-4.45-1.79-1.57,1.38-5,3.54-11,3.79a21.15,21.15,0,0,1-3.56-.15A13.9,13.9,0,0,1,9,24.12a1.74,1.74,0,0,1-.68-1.19H34.13C34.87,23.78,35.56,24.8,34.94,25.08Z" fill="#cecece"/>
        </g>
      </g>
    </g>
  </g>
</svg>
