<svg xmlns="http://www.w3.org/2000/svg" xmlns:xlink="http://www.w3.org/1999/xlink" width="41.39" height="41.34" viewBox="0 0 41.39 41.34">
  <defs>
    <clipPath id="clip-path">
      <path d="M13.14,12.92h0a8.3,8.3,0,0,1,8.3,8.3v5.66a0,0,0,0,1,0,0H4.84a0,0,0,0,1,0,0V21.22A8.3,8.3,0,0,1,13.14,12.92Z" fill="none"/>
    </clipPath>
    <clipPath id="clip-path-2">
      <path d="M29.08,5.52V25.31c0,.24.6.44,1.34.44s1.34-.2,1.34-.44V5.52Z" fill="none"/>
    </clipPath>
  </defs>
  <g style="isolation: isolate">
    <g id="Layer_2" data-name="Layer 2">
      <g id="Layer_2-2" data-name="Layer 2">
        <g id="cat_toy_4" data-name="cat_toy 4">
          <rect x="36.8" y="6.27" width="1.46" height="11.98" fill="#2d5b1d"/>
          <rect x="12.08" y="6.51" width="2.65" height="8.96" fill="#96b85c" stroke="#2d5b1d" stroke-miterlimit="10" stroke-width="1.44"/>
          <g>
            <g>
              <g>
                <g>
                  <path d="M2.49,40.62A1.77,1.77,0,0,1,.72,38.85V37a1.17,1.17,0,0,1,.22-.68l1-1.39A2.26,2.26,0,0,1,3.75,34H35.2a2.24,2.24,0,0,1,1.83.94l1,1.39a1.16,1.16,0,0,1,.21.68v1.85a1.76,1.76,0,0,1-1.76,1.77Z" fill="#f5f79a"/>
                  <path d="M35.2,34.71a1.54,1.54,0,0,1,1.25.64l1,1.39a.41.41,0,0,1,.09.26v1.67a.14.14,0,0,1,0,.06.5.5,0,0,1,0,.12,1,1,0,0,1-1.05,1h-34a1,1,0,0,1-1.05-1s0-.08,0-.12,0,0,0-.06V37a.47.47,0,0,1,.08-.26l1-1.39a1.54,1.54,0,0,1,1.24-.64H35.2m0-1.44H3.75a2.94,2.94,0,0,0-2.41,1.25l-1,1.38A1.92,1.92,0,0,0,0,37v1.87H0a2.49,2.49,0,0,0,2.49,2.47h34A2.5,2.5,0,0,0,39,38.85s0-.06,0-.09,0-.06,0-.09V37a1.88,1.88,0,0,0-.36-1.1l-1-1.38a3,3,0,0,0-2.42-1.25Z" fill="#696521"/>
                </g>
                <path d="M37.43,36.74l-1-1.39a1.54,1.54,0,0,0-1.25-.64H3.75a1.54,1.54,0,0,0-1.24.64l-1,1.39a.47.47,0,0,0-.08.26v1.67a.46.46,0,0,0,.46.46H37.06a.46.46,0,0,0,.46-.46V37A.41.41,0,0,0,37.43,36.74Z" fill="#f5f79a"/>
                <path d="M35.51,36.84H3.45a2,2,0,0,0-2,2,1,1,0,0,0,1.05,1h34a1,1,0,0,0,1.05-1A2,2,0,0,0,35.51,36.84Z" fill="#c3bf4f"/>
                <path d="M35.51,39.9H3.45a2,2,0,0,1-2-2,1,1,0,0,1,1.05-1h34a1,1,0,0,1,1.05,1A2,2,0,0,1,35.51,39.9Z" fill="#c3bf4f"/>
              </g>
              <g>
                <g>
                  <rect x="7.19" y="27.77" width="2.68" height="7.53" fill="#96b85c" stroke="#2d5b1d" stroke-miterlimit="10" stroke-width="1.44"/>
                  <path d="M10.53,35.78h-4A.47.47,0,0,1,7,35.31h3.07a.46.46,0,0,1,.46.47Z" fill="#6d9e7a" stroke="#2d5b1d" stroke-miterlimit="10" stroke-width="1.44"/>
                </g>
                <g>
                  <rect x="29.08" y="27.77" width="2.68" height="7.53" fill="#96b85c" stroke="#2d5b1d" stroke-miterlimit="10" stroke-width="1.44"/>
                  <path d="M32.42,35.78h-4a.47.47,0,0,1,.47-.47H32a.47.47,0,0,1,.46.47Z" fill="#6d9e7a" stroke="#2d5b1d" stroke-miterlimit="10" stroke-width="1.44"/>
                </g>
              </g>
              <g>
                <g>
                  <path d="M4,30.36a2,2,0,0,1-.42-.05,2.09,2.09,0,0,1-1.05-.57,1.16,1.16,0,0,1-.62-1V27a1.11,1.11,0,0,1,.22-.68l1-1.39A2.24,2.24,0,0,1,5,24H34a2.26,2.26,0,0,1,1.83.94l1,1.39A1.13,1.13,0,0,1,37,27v1.67a1.17,1.17,0,0,1-.63,1,2.08,2.08,0,0,1-1.47.61Z" fill="#f5f79a"/>
                  <path d="M34,24.75a1.51,1.51,0,0,1,1.24.64l1,1.38a.44.44,0,0,1,.09.27v1.67a.44.44,0,0,1-.33.43,1.37,1.37,0,0,1-1.05.5H4a1.24,1.24,0,0,1-.27,0A1.3,1.3,0,0,1,3,29.14a.44.44,0,0,1-.33-.43V27a.5.5,0,0,1,.08-.27l1-1.38A1.5,1.5,0,0,1,5,24.75H34m0-1.44H5a3,3,0,0,0-2.42,1.24l-1,1.39A1.87,1.87,0,0,0,1.23,27v1.67a1.88,1.88,0,0,0,.91,1.62A2.78,2.78,0,0,0,3.48,31a2.6,2.6,0,0,0,.56.06H34.91a2.82,2.82,0,0,0,1.91-.75,1.88,1.88,0,0,0,.91-1.62V27a1.87,1.87,0,0,0-.35-1.1l-1-1.39A3,3,0,0,0,34,23.31Z" fill="#696521"/>
                </g>
                <path d="M36.2,26.77l-1-1.38A1.51,1.51,0,0,0,34,24.75H5a1.5,1.5,0,0,0-1.24.64l-1,1.38a.5.5,0,0,0-.08.27v1.67a.46.46,0,0,0,.45.46H35.83a.47.47,0,0,0,.46-.46V27A.44.44,0,0,0,36.2,26.77Z" fill="#f5f79a"/>
                <path d="M35.16,29.64H4a1.41,1.41,0,0,1-1.28-1h0a2.33,2.33,0,0,1-.07-.25s0,0,0-.05a1.66,1.66,0,0,1,0-.32,1.55,1.55,0,0,1,1.11-1.57,1.27,1.27,0,0,1,.28,0h31.1A1.65,1.65,0,0,1,36.18,29,1.18,1.18,0,0,1,35.16,29.64Z" fill="#c3bf4f"/>
              </g>
            </g>
            <g clip-path="url(#clip-path)">
              <g>
                <g>
                  <path d="M5.43,27.6a1.31,1.31,0,0,1-1.31-1.31V21.22a9,9,0,1,1,18,0V27.6Z" fill="#dfe590"/>
                  <path d="M13.14,12.92a8.29,8.29,0,0,1,8.29,8.3v5.66h-16a.58.58,0,0,1-.59-.59V21.22a8.29,8.29,0,0,1,8.3-8.3h0m0-1.44A9.75,9.75,0,0,0,3.4,21.22v5.07a2,2,0,0,0,2,2H22.87v-7.1a9.74,9.74,0,0,0-9.73-9.74Z" fill="#696521"/>
                </g>
                <path d="M15.48,25.11a3.09,3.09,0,0,0,2.91-4.17c-1.16-3-3.08-5-5.25-5s-4.1,2-5.26,5a3.1,3.1,0,0,0,2.92,4.17Z" fill="#c3bf4f" stroke="#696521" stroke-miterlimit="10" stroke-width="0.96"/>
                <path d="M9.12,22.74c1.16-3,3.08-5,5.25-5a4.54,4.54,0,0,1,3.35,1.72c-1.17-2.17-2.79-3.53-4.58-3.53-2.18,0-4.1,2-5.26,5A3.07,3.07,0,0,0,9,24.55,3,3,0,0,1,9.12,22.74Z" fill="#828046" style="mix-blend-mode: multiply"/>
                <path d="M15.48,25.11a3.09,3.09,0,0,0,2.91-4.17c-1.16-3-3.08-5-5.25-5s-4.1,2-5.26,5a3.1,3.1,0,0,0,2.92,4.17Z" fill="none" stroke="#696521" stroke-miterlimit="10" stroke-width="0.96"/>
              </g>
            </g>
            <path d="M13.14,12.92a8.29,8.29,0,0,1,8.29,8.3v4.92a.74.74,0,0,1-.74.74H5.58a.74.74,0,0,1-.74-.74V21.22a8.29,8.29,0,0,1,8.3-8.3h0m0-1.44A9.75,9.75,0,0,0,3.4,21.22v4.92a2.19,2.19,0,0,0,2.18,2.18H20.69a2.18,2.18,0,0,0,2.18-2.18V21.22a9.74,9.74,0,0,0-9.73-9.74Z" fill="#696521"/>
            <g>
              <g clip-path="url(#clip-path-2)">
                <rect x="29.08" y="5.67" width="2.68" height="21.9" fill="#96b85c" stroke="#2d5b1d" stroke-miterlimit="10" stroke-width="1.44"/>
              </g>
              <path d="M29.08,5.52V25.31c0,.24.6.44,1.34.44s1.34-.2,1.34-.44V5.52Z" fill="none" stroke="#2d5b1d" stroke-miterlimit="10" stroke-width="1.44"/>
            </g>
            <g>
              <path d="M22.56,8A2.4,2.4,0,0,1,20.2,5.86l0-.09V5.56a.76.76,0,0,1,0-.15V4a1.2,1.2,0,0,1,.22-.68l1-1.38A2.22,2.22,0,0,1,23.22,1H37.63a2.22,2.22,0,0,1,1.83,1l1,1.38a1.22,1.22,0,0,1,.22.68V5.71a1,1,0,0,1-.06.33A2.39,2.39,0,0,1,38.76,7.9a2.61,2.61,0,0,1-.48,0Z" fill="#f5f79a"/>
              <path d="M37.63,1.74a1.54,1.54,0,0,1,1.25.64l1,1.39A.43.43,0,0,1,40,4V5.71a.8.8,0,0,1,0,.15,1.66,1.66,0,0,1-1.31,1.33,1.75,1.75,0,0,1-.33,0H22.56a1.66,1.66,0,0,1-1.64-1.46.14.14,0,0,1,0-.06V4A.43.43,0,0,1,21,3.77l1-1.39a1.54,1.54,0,0,1,1.25-.64H37.63m0-1.44H23.22A3,3,0,0,0,20.8,1.55l-1,1.38A2,2,0,0,0,19.46,4V5.9l0,.15a3.12,3.12,0,0,0,3.06,2.62H38.28a3.18,3.18,0,0,0,.62-.07,3.08,3.08,0,0,0,2.41-2.39,1.74,1.74,0,0,0,.08-.5V4A1.92,1.92,0,0,0,41,2.93l-1-1.38A3,3,0,0,0,37.63.3Z" fill="#696521"/>
            </g>
            <g>
              <path d="M37.63,1.74H23.22A1.54,1.54,0,0,0,22,2.38L21,3.77A.43.43,0,0,0,20.9,4V5.71a.46.46,0,0,0,.46.45H39.49A.46.46,0,0,0,40,5.71V4a.43.43,0,0,0-.09-.26l-1-1.39A1.54,1.54,0,0,0,37.63,1.74Z" fill="#f5f79a"/>
              <path d="M39.94,5.46s0-.06,0-.1A1.78,1.78,0,0,0,38.28,3.5H22.56A1.77,1.77,0,0,0,20.9,5.36v.2a1.66,1.66,0,0,0,1.66,1.67H38.28A1.67,1.67,0,0,0,40,5.56S39.94,5.49,39.94,5.46Z" fill="#c3bf4f"/>
            </g>
          </g>
          <g>
            <g>
              <path d="M39.31,18.64A1.74,1.74,0,1,1,37.57,17,1.71,1.71,0,0,1,39.31,18.64Z" fill="#dfe590"/>
              <path d="M38.78,17.44a2.66,2.66,0,0,1,0,.28,1.7,1.7,0,0,1-1.74,1.67,1.77,1.77,0,0,1-1.21-.47,1.74,1.74,0,0,0,3.45-.28A1.65,1.65,0,0,0,38.78,17.44Z" fill="#dfe590" style="mix-blend-mode: multiply"/>
            </g>
            <path d="M39.3,18.46v0a.77.77,0,0,0,0-.15h0A1.73,1.73,0,0,0,37.57,17a1.71,1.71,0,0,0-1.74,1.68A1.66,1.66,0,0,0,36.56,20h0l.11.06,0,0,.09.05.06,0,.08,0,.07,0,.08,0,.09,0h.07l.1,0h.23a1.71,1.71,0,0,0,1.74-1.67C39.31,18.58,39.3,18.52,39.3,18.46Z" fill="none" stroke="#696521" stroke-miterlimit="10" stroke-width="1.44"/>
          </g>
          <g>
            <g>
              <path d="M13.41,8.06a40.08,40.08,0,0,1-4.86-.25c-1.28-.16-3.42-.42-3.42-2.26a1.7,1.7,0,0,1,1.58-1.7C7.65,2,10.29.72,13.41.72A10,10,0,0,1,17,1.37l.09,0,.54.24L18,1.8l.16.1.29.18.18.12.24.18.18.14.2.19.18.18a1.54,1.54,0,0,1,.17.19,1.56,1.56,0,0,1,.16.2,1.33,1.33,0,0,1,.14.19,1.59,1.59,0,0,1,.13.22l.09.16a1.7,1.7,0,0,1,1.58,1.7c0,1.84-2.14,2.1-3.42,2.26A40.08,40.08,0,0,1,13.41,8.06Z" fill="#dfe590"/>
              <path d="M13.41,1.44a9.37,9.37,0,0,1,3.37.6l.09,0,.34.15.14.06a2.69,2.69,0,0,1,.29.16l.16.08.24.16a.91.91,0,0,1,.16.11l.21.15.16.13.18.16.15.15.14.16.13.17.12.16a1.18,1.18,0,0,1,.11.19l.09.15.09.21.06.15v.06A1,1,0,0,1,21,5.55c0,1.2-1.61,1.4-2.79,1.55a40.79,40.79,0,0,1-4.77.24A40.67,40.67,0,0,1,8.64,7.1C7.46,7,5.85,6.75,5.85,5.55a1,1,0,0,1,1.32-.92c.54-1.81,3.12-3.19,6.24-3.19m0-1.44c-3.21,0-6,1.27-7.16,3.19A2.43,2.43,0,0,0,4.41,5.55c0,2.47,2.73,2.81,4.05,3a43.92,43.92,0,0,0,4.95.25,43.92,43.92,0,0,0,4.95-.25c1.31-.17,4.05-.51,4.05-3A2.43,2.43,0,0,0,20.57,3.2l-.08-.13-.15-.21a2.73,2.73,0,0,0-.2-.25l-.2-.22-.2-.2L19.51,2l-.21-.17L19,1.61l-.21-.14-.31-.19-.16-.09L18,1,17.85.93,17.4.73l-.09,0a10.93,10.93,0,0,0-3.9-.7Z" fill="#696521"/>
            </g>
            <path d="M13.41,1.44c-3.51,0-6.35,1.74-6.35,3.89a1.49,1.49,0,0,0,0,.21H19.74a1.49,1.49,0,0,0,0-.21C19.76,3.18,16.92,1.44,13.41,1.44Z" fill="#dfe590"/>
            <path d="M13.41,7.34A40.67,40.67,0,0,1,8.64,7.1C7.46,7,5.85,6.75,5.85,5.55a1,1,0,0,1,1.73-.64,25,25,0,0,0,5.83.47,25.09,25.09,0,0,0,5.83-.47A1,1,0,0,1,21,5.55c0,1.2-1.61,1.4-2.79,1.55A40.79,40.79,0,0,1,13.41,7.34ZM19,5.55Zm-11.2,0Zm11.2,0Zm-11.2,0Z" fill="#c3bf4f"/>
          </g>
        </g>
      </g>
    </g>
  </g>
</svg>
