<svg xmlns="http://www.w3.org/2000/svg" width="40.82" height="41.05" viewBox="0 0 40.82 41.05">
  <g id="Layer_2" data-name="Layer 2">
    <g id="Layer_2-2" data-name="Layer 2">
      <g id="cat_toy_2" data-name="cat_toy 2">
        <g>
          <path d="M30.74,40.32a10.68,10.68,0,0,1-8-3.93,19.29,19.29,0,0,0-7.38-5.14l-.95-.33a.73.73,0,0,1-.47-.54.73.73,0,0,1,.22-.67l1.71-1.57a.75.75,0,0,1,.49-.19.8.8,0,0,1,.26.05,23.25,23.25,0,0,1,8.7,6,7.4,7.4,0,0,0,5.45,2.81c3.49,0,6.29-3,6.31-3a1.73,1.73,0,0,1,1.28-.56,1.75,1.75,0,0,1,1.18.45,1.66,1.66,0,0,1,.57,1.16,1.71,1.71,0,0,1-.45,1.28l-.09.1a13.88,13.88,0,0,1-7.19,3.92,9.85,9.85,0,0,1-1.45.13Z" fill="#dfe590"/>
          <path d="M16.34,28.67a22.71,22.71,0,0,1,8.43,5.86,8.12,8.12,0,0,0,6,3h0c3.81,0,6.81-3.21,6.83-3.25a1,1,0,0,1,.74-.31,1,1,0,0,1,.69.26,1,1,0,0,1,.08,1.43,13.58,13.58,0,0,1-6.87,3.79,8.56,8.56,0,0,1-1.34.12h-.17a10,10,0,0,1-7.48-3.69,19.77,19.77,0,0,0-7.66-5.33l-1-.34,1.71-1.57m0-1.44a1.43,1.43,0,0,0-1,.38l-1.71,1.56a1.44,1.44,0,0,0,.49,2.42l1,.35a18.15,18.15,0,0,1,7.07,4.94A11.42,11.42,0,0,0,30.73,41h.17a10,10,0,0,0,1.57-.14,14.72,14.72,0,0,0,7.59-4.12l0,0,.08-.08a2.47,2.47,0,0,0,.64-1.81A2.37,2.37,0,0,0,40,33.19a2.46,2.46,0,0,0-1.64-.62,2.43,2.43,0,0,0-1.8.78h0c-.12.13-2.71,2.77-5.76,2.77a6.73,6.73,0,0,1-4.94-2.57,24,24,0,0,0-9-6.23,1.55,1.55,0,0,0-.52-.1Z" fill="#c3bf4f"/>
        </g>
        <g>
          <g>
            <path d="M15.59,31.49a15.29,15.29,0,0,1-4.95-1,8.32,8.32,0,0,1-.78-.3A15.48,15.48,0,0,1,5,26.78l-.09-.11-.56-.77A15,15,0,0,1,1,18.6a14.81,14.81,0,0,1,.09-5.81s.17-.79.17-.81A16.36,16.36,0,0,1,3.33,7.46l.54-.7A15.15,15.15,0,0,1,8.6,2.69l.08,0,.76-.42a.56.56,0,0,1,.15-.1A15.23,15.23,0,0,1,13.53.93,15.42,15.42,0,0,1,16.06.72a15.22,15.22,0,0,1,4.2.59l.09,0,.12,0,.19.05c.2.06.36.13.52.19l.14.06A15.76,15.76,0,0,1,26.63,5l.09.11c.1.1.39.41.51.52A14.77,14.77,0,0,1,30.11,10s.19.44.19.46l0,.11a1.3,1.3,0,0,1,.08.17,15.68,15.68,0,0,1,.79,2.92,15.28,15.28,0,0,1-.15,5.8c-.06.31-.14.61-.23.92a.29.29,0,0,1,0,.09A15.42,15.42,0,0,1,28,25.77c-.18.22-.37.44-.57.65a15.18,15.18,0,0,1-3.68,3l-.71.39a15.12,15.12,0,0,1-4.51,1.48,15.81,15.81,0,0,1-2.14.21h-.81Z" fill="#dfe590"/>
            <path d="M16.06,1.44a14,14,0,0,1,4,.57l.13,0,.13,0,.17.06a4.81,4.81,0,0,1,.53.2h0a0,0,0,0,1,0,0,15,15,0,0,1,5.12,3.21l0,0,.55.57,0,0a14,14,0,0,1,2.69,4h0l.15.35.06.14v0c0,.06.05.13.08.19a14.45,14.45,0,0,1,.62,8.3c-.07.32-.15.64-.24.95h0a14.79,14.79,0,0,1-2.67,5.11l-.53.61a15.06,15.06,0,0,1-3.53,2.87l-.68.37a14.52,14.52,0,0,1-4.29,1.41,14.23,14.23,0,0,1-2,.2h-.78a14.62,14.62,0,0,1-4.72-.93c-.26-.09-.5-.19-.75-.3a14.54,14.54,0,0,1-4.66-3.26l0,0-.56-.77a14.31,14.31,0,0,1-3.22-7A14.26,14.26,0,0,1,1.75,13l.15-.7v-.07a15.25,15.25,0,0,1,2-4.32v0l.5-.64A14.47,14.47,0,0,1,9,3.32l0,0,.89-.49h0a14.37,14.37,0,0,1,3.75-1.16,15.39,15.39,0,0,1,2.42-.2m0-1.44A16.23,16.23,0,0,0,9.28,1.49,1.38,1.38,0,0,0,9,1.63L8.35,2l-.1,0h0a16,16,0,0,0-5,4.26L2.8,7l0,0,0,.06a17.08,17.08,0,0,0-2.2,4.72.29.29,0,0,0,0,.09l0,.06-.15.73a15.64,15.64,0,0,0-.09,6.05,15.82,15.82,0,0,0,3.51,7.66l.53.73a1.58,1.58,0,0,0,.12.15l0,0h0a16.1,16.1,0,0,0,5.12,3.58c.29.13.57.24.85.34a16.19,16.19,0,0,0,5.15,1h.87A15.87,15.87,0,0,0,18.66,32a16.09,16.09,0,0,0,4.71-1.55l.75-.41A16.25,16.25,0,0,0,28,26.89c.19-.2.39-.43.57-.66a16.15,16.15,0,0,0,2.94-5.61.5.5,0,0,0,0-.13c.09-.33.17-.64.23-.95a15.76,15.76,0,0,0,.15-6,15.92,15.92,0,0,0-.83-3.05.52.52,0,0,0-.06-.13.78.78,0,0,0-.05-.14L30.92,10a.14.14,0,0,0,0-.06.93.93,0,0,0,0-.1l-.06-.15a.14.14,0,0,1,0-.06,15.47,15.47,0,0,0-3-4.45c-.1-.11-.06-.1-.15-.15l-.36-.37-.18-.2A16.58,16.58,0,0,0,21.61,1l-.07,0-.07,0C21.29.9,21.1.82,20.91.76L20.67.69l-.06,0-.07,0-.08,0A16,16,0,0,0,16.06,0Z" fill="#c3bf4f"/>
          </g>
          <g>
            <path d="M27.44,25.33c-.17.21-.35.42-.53.62a.37.37,0,0,1-.14-.19C23.11,16.66,14.42,9.81,4.08,7.9l-.16,0h0l.5-.65a32.64,32.64,0,0,1,14.05,6.37A29.13,29.13,0,0,1,27.44,25.33Z" fill="#928e31"/>
            <path d="M23.38,28.81l-.68.37s0,0,0-.06a27.77,27.77,0,0,0-4.21-6.4,26.2,26.2,0,0,0-2.1,8.05h-.77a.22.22,0,0,1,0-.08,26.58,26.58,0,0,1,2.3-8.61,30.1,30.1,0,0,0-4.44-3.91A26.45,26.45,0,0,0,10.9,29.66a.34.34,0,0,1,0,.18l-.74-.29A27.31,27.31,0,0,1,12.8,17.72a31.56,31.56,0,0,0-5-2.76,26.34,26.34,0,0,0-2.26,11,.68.68,0,0,1-.11.34l0,0-.56-.77A27.11,27.11,0,0,1,7.16,14.64,32.75,32.75,0,0,0,1.74,13l.15-.7h0a28.54,28.54,0,0,1,5.91,1.86s0,0,0,0v0h0a32.31,32.31,0,0,1,5.7,3.17h0a30.65,30.65,0,0,1,5.09,4.46h0s0,0,0,0a28.42,28.42,0,0,1,4.72,7Z" fill="#928e31"/>
            <path d="M28.09,11.84c-.6.35-1.2.74-1.75,1.14a28.93,28.93,0,0,1,4,6.27h0c-.07.32-.15.61-.24.94h0a.53.53,0,0,1-.29-.23,28,28,0,0,0-4.35-6.8A29.36,29.36,0,0,0,20.91,8.9h0a30.56,30.56,0,0,0-5.75-3.43,32.53,32.53,0,0,0-5.89-2L9,3.31a0,0,0,0,1,0,0l.89-.5h0a34.7,34.7,0,0,1,5.36,1.87c.57-.41,1.16-.79,1.76-1.15a24.57,24.57,0,0,1,3-1.51h0l.13,0,.13,0a.85.85,0,0,1,.17.06h0a4.81,4.81,0,0,1,.53.2.37.37,0,0,1-.23.21,23.93,23.93,0,0,0-3.38,1.64c-.46.26-.9.55-1.34.85a32.06,32.06,0,0,1,5.07,3.06c.4-.27.8-.52,1.21-.76a22.64,22.64,0,0,1,3.8-1.78l0,0h0s.4.41.55.55a.3.3,0,0,1-.11.06A23.86,23.86,0,0,0,22.75,8c-.31.18-.64.38-.95.59a30.56,30.56,0,0,1,4,3.77c.59-.43,1.21-.83,1.87-1.22s1.16-.64,1.73-.93h0c.06.12.1.23.16.36s0,.1.06.15h0l0,.07a.4.4,0,0,1,0,.13h0A16.64,16.64,0,0,0,28.09,11.84Z" fill="#928e31"/>
          </g>
        </g>
      </g>
    </g>
  </g>
</svg>
