<svg xmlns="http://www.w3.org/2000/svg" width="41.14" height="41.2" viewBox="0 0 41.14 41.2">
  <g style="isolation: isolate">
    <g id="Layer_2" data-name="Layer 2">
      <g id="Layer_2-2" data-name="Layer 2">
        <g id="cat_clean_1" data-name="cat_clean 1">
          <g>
            <g>
              <circle cx="15.5" cy="12.86" r="4.14" fill="#fcd2d8" stroke="#d98885" stroke-miterlimit="10" stroke-width="1.44"/>
              <path d="M15.91,10.35a1.94,1.94,0,0,1,1.94,1.94" fill="none" stroke="#fff" stroke-linecap="round" stroke-linejoin="round" stroke-width="1.44"/>
            </g>
            <g>
              <g>
                <path d="M4.88,40.48a4.16,4.16,0,0,1,0-8.32H6.35a5.46,5.46,0,0,1,0-.8,6.86,6.86,0,0,1,13.72,0,7.31,7.31,0,0,1-.05.8h3.12a4.16,4.16,0,0,1,0,8.32Z" fill="#fcd2d8"/>
                <path d="M13.16,25.22a6.14,6.14,0,0,1,6.14,6.14,5.87,5.87,0,0,1-.2,1.52h4a3.44,3.44,0,1,1,0,6.88H4.88a3.44,3.44,0,0,1,0-6.88H7.21A6.33,6.33,0,0,1,7,31.36a6.14,6.14,0,0,1,6.14-6.14m0-1.44a7.59,7.59,0,0,0-7.58,7.58v.08h-.7a4.88,4.88,0,1,0,0,9.76H23.09a4.88,4.88,0,0,0,0-9.76H20.74v-.08a7.59,7.59,0,0,0-7.58-7.58Z" fill="#d98885"/>
              </g>
              <path d="M13.85,27a3.31,3.31,0,0,1,3.3,3.31" fill="none" stroke="#fff" stroke-linecap="round" stroke-linejoin="round" stroke-width="1.44"/>
            </g>
          </g>
          <g>
            <path d="M39.69,22v-.1c0-.07,0-.15,0-.22s0-.08,0-.11l0-.23a.28.28,0,0,0,0-.09c0-.11,0-.21,0-.32v0a2.56,2.56,0,0,0-.05-.27l0-.09a1.74,1.74,0,0,0,0-.22l0-.1c0-.07,0-.15-.07-.23a.64.64,0,0,1,0-.07c0-.09-.07-.19-.11-.29a.14.14,0,0,0,0-.06l-.09-.23a.36.36,0,0,1,0-.09L39,19l-.05-.08-.12-.24,0,0-.15-.26a.43.43,0,0,0,0-.07l-.12-.2L38.4,18l-.13-.18-.05-.07c-.12-.17-.25-.33-.38-.48l-.06-.06-.15-.17L37.57,17l-.17-.16,0-.06-.23-.21,0,0-.2-.17-.07-.06-.17-.13-.08-.06-.2-.14,0,0-.26-.17-.06,0-.21-.12-.09,0-.19-.1-.08,0,0,0H28.76a7.62,7.62,0,0,0-4.32,6.88v5H39.7v-5C39.7,22.17,39.7,22.06,39.69,22Z" fill="#a7bfee"/>
            <path d="M33.32,4.07c-.33.06-.67.09-1,.12l-1.22.13V8.6h2.21V4.07Z" fill="#c5d9f9"/>
            <path d="M29.42,17a1.16,1.16,0,0,0-1.19-.1,2.65,2.65,0,0,0-1,.79,9.14,9.14,0,0,0-2.1,6.92c.07.58.35,1.47,1.09,1.44s.82-.78,1-1.32a51.9,51.9,0,0,1,2.22-5.61A3.17,3.17,0,0,0,29.79,18,1.23,1.23,0,0,0,29.42,17Z" fill="#c8c3f4" opacity="0.35" style="mix-blend-mode: screen"/>
            <path d="M35.2,35.92H24.44v2a.28.28,0,0,0,0,.09v0l0,.19a.31.31,0,0,0,0,.08h0a2.35,2.35,0,0,0,.17.44l0,0,.07.1,0,0,.07.09,0,0h0s0,0,.05.05l.06.06,0,.05.06.06.06.05.07,0,.06,0,.13.08.08,0,.07,0,.06,0,.36.11H37.74a2,2,0,0,0,2-1.95V35.92Z" fill="#a7bfee"/>
            <g>
              <rect x="23.96" y="23.08" width="16.22" height="13.31" rx="0.48" fill="#e8a4d2"/>
              <path d="M39.7,23.56V35.92H24.44V23.56H39.7m0-1H24.44a1,1,0,0,0-1,1V35.92a1,1,0,0,0,1,1H39.7a1,1,0,0,0,1-1V23.56a1,1,0,0,0-1-1Z" fill="#5576b4"/>
            </g>
            <path d="M35.37,10.31h-6.6a1,1,0,0,0-1.05,1v3a1,1,0,0,0,1,1.05h6.61a1,1,0,0,0,1.05-1.05v-3A1.06,1.06,0,0,0,35.37,10.31Z" fill="#5576b4"/>
            <path d="M29.42,14.65a.31.31,0,0,0,.31-.31v-3a.31.31,0,0,0-.31-.31.32.32,0,0,0-.32.31v3A.32.32,0,0,0,29.42,14.65Z" fill="#335394"/>
            <path d="M30.72,11.3v3a.31.31,0,0,0,.62,0v-3a.31.31,0,0,0-.62,0Z" fill="#335394"/>
            <path d="M32.3,11.3v3a.31.31,0,0,0,.62,0v-3a.31.31,0,0,0-.62,0Z" fill="#335394"/>
            <path d="M34.08,11.3v3a.31.31,0,1,0,.62,0v-3a.31.31,0,0,0-.62,0Z" fill="#335394"/>
            <path d="M34.27,8H30.16a.67.67,0,0,0-.66.66v1.62h5.43V8.69A.67.67,0,0,0,34.27,8Z" fill="#98d9e4"/>
            <g>
              <path d="M23.23,6.82a.51.51,0,0,1-.34-.13.5.5,0,0,1-.14-.35V4.55a.47.47,0,0,1,.39-.47,38.23,38.23,0,0,0,4.43-1.37l1-.45A11.83,11.83,0,0,1,32.65,1l.48,0a4,4,0,0,1,3.32,1.36l.12.19a2.29,2.29,0,0,1,.13.27.94.94,0,0,0,0,.09,1,1,0,0,1,.06.22s0,.11,0,.12a1.79,1.79,0,0,1,0,.23v.13a2.45,2.45,0,0,1,0,.27,2.3,2.3,0,0,1-.07.36v0c0,.09-.07.19-.11.28s-.13.25-.19.34a3,3,0,0,1-.26.3,3.21,3.21,0,0,1-1.78.8c-.32.06-.65.09-1,.13l-1.73.18c-2.29.23-5.32.5-8.46.57Z" fill="#e8a4d2"/>
              <path d="M33.13,1.44A3.56,3.56,0,0,1,36.06,2.6l0,0,0,.07a2.56,2.56,0,0,1,.11.24l0,.07,0,.17s0,.06,0,.09a1.11,1.11,0,0,1,0,.17s0,.06,0,.08v0a1.23,1.23,0,0,1,0,.2v0c0,.08,0,.16-.05.25h0a.92.92,0,0,1-.09.23l0,0a1.59,1.59,0,0,1-.13.22l0,0-.17.21a2.75,2.75,0,0,1-1.52.66c-.39.07-.81.11-1.2.15l-1.48.15c-2.8.28-5.59.51-8.42.57V4.55a36.43,36.43,0,0,0,4.53-1.4,15.23,15.23,0,0,1,4.93-1.69l.44,0m0-1-.52,0a12.19,12.19,0,0,0-4.24,1.32c-.33.15-.65.31-1,.45a39.31,39.31,0,0,1-4.34,1.34,1,1,0,0,0-.78.94V6.34a1,1,0,0,0,1,1h0c3.16-.07,6.2-.34,8.5-.58l1.48-.15.23,0c.34,0,.68-.07,1-.13a3.68,3.68,0,0,0,2-.94,2.61,2.61,0,0,0,.27-.31l0-.06a2.9,2.9,0,0,0,.2-.33l0-.06a3.44,3.44,0,0,0,.14-.37h0A2.34,2.34,0,0,0,37.3,4V3.89c0-.11,0-.21,0-.32V3.49a.19.19,0,0,1,0-.08l0-.28,0-.14a2.68,2.68,0,0,0-.07-.27l0-.12A2.06,2.06,0,0,0,37,2.26a.6.6,0,0,0-.09-.15.35.35,0,0,0,0-.08A4.49,4.49,0,0,0,33.13.48Z" fill="#5576b4"/>
            </g>
            <path d="M36.36,28.13a1.46,1.46,0,0,0-1-.57,2.49,2.49,0,0,0-2.46,1,2.44,2.44,0,0,0,.38-2.05,1.51,1.51,0,0,0-1.67-1,1.57,1.57,0,0,0-1.06,1.25,3.55,3.55,0,0,0,.15,1.8,3.29,3.29,0,0,0-1.52-.93,1.44,1.44,0,0,0-1.08,0,1.13,1.13,0,0,0-.46,1.33,1.81,1.81,0,0,0,1,1.05,4.3,4.3,0,0,0,1.41.31,2.86,2.86,0,0,0-1.5,1.8,1.51,1.51,0,0,0,0,1,1.28,1.28,0,0,0,1.21.66,2.06,2.06,0,0,0,1.29-.61A6.66,6.66,0,0,0,32,32.08a2.58,2.58,0,0,0,2,1.83,1.53,1.53,0,0,0,1.27-.23,1.32,1.32,0,0,0,.41-1.25A2.15,2.15,0,0,0,35,31.28a6.37,6.37,0,0,0-1.14-.87,5.82,5.82,0,0,0,1.38-.2,2,2,0,0,0,1.12-.77A1.24,1.24,0,0,0,36.36,28.13ZM32.94,30.5a1,1,0,0,1-1,.53,1.15,1.15,0,0,1-.72-.44,1.07,1.07,0,0,1-.2-.91c.2-.7,1.29-.79,1.76-.33A1,1,0,0,1,32.94,30.5Z" fill="#f6fffa"/>
            <path d="M33.13,1.44A3.56,3.56,0,0,1,36.06,2.6l0,0,0,.07a2.56,2.56,0,0,1,.11.24l0,.07a1,1,0,0,1,0,.17.29.29,0,0,1,0,.09,1.11,1.11,0,0,1,0,.17s0,.06,0,.08v0a1.23,1.23,0,0,1,0,.2v0a2,2,0,0,1-.05.24h0a.92.92,0,0,1-.09.23.05.05,0,0,1,0,0,1.59,1.59,0,0,1-.13.22l0,0-.17.21a2.75,2.75,0,0,1-1.52.66c-.33.06-.67.09-1,.13V8h1a.67.67,0,0,1,.66.66v1.62h.44a1.06,1.06,0,0,1,1.05,1v3a1,1,0,0,1-1.05,1.05h0l0,0,.08,0,.19.1.09,0,.21.12.06,0,.26.17,0,0,.2.14.08.06.17.13.07.06.2.17,0,0,.23.21,0,.06.17.16.06.07.15.17.06.06c.13.15.26.31.38.48l.05.07.13.18.06.08.12.2a.43.43,0,0,1,0,.07l.15.26,0,0,.12.24L39,19l.09.2a.36.36,0,0,0,0,.09l.09.23a.14.14,0,0,1,0,.06c0,.1.08.2.11.29a.64.64,0,0,0,0,.07c0,.08.05.16.07.23l0,.1a1.74,1.74,0,0,1,0,.22l0,.09a2.56,2.56,0,0,1,.05.27v0c0,.11,0,.21,0,.32a.28.28,0,0,1,0,.09l0,.23s0,.07,0,.11,0,.15,0,.22V22c0,.11,0,.22,0,.33V37.81a2,2,0,0,1-2,1.95H26l-.36-.11-.06,0-.07,0-.08,0-.13-.08-.06,0-.07,0-.06-.05-.06-.06,0-.05L25,39.13s0,0-.05-.05h0l0,0-.07-.09,0,0-.07-.1,0,0a2.35,2.35,0,0,1-.17-.44h0a.31.31,0,0,1,0-.08l0-.19v0a.19.19,0,0,1,0-.08V22.28a7.62,7.62,0,0,1,4.32-6.88,1,1,0,0,1-1-1.05v-3a1,1,0,0,1,1.05-1h.73V8.69A.67.67,0,0,1,30.16,8h.95V5.82c-2.62.26-5.23.46-7.88.52V4.55a36.43,36.43,0,0,0,4.53-1.4,15.23,15.23,0,0,1,4.93-1.69l.44,0m0-1.44h0l-.55,0a12.63,12.63,0,0,0-4.41,1.37c-.32.15-.65.3-1,.43A34,34,0,0,1,23,3.13a1.45,1.45,0,0,0-1.18,1.42V6.34a1.43,1.43,0,0,0,1.44,1.44h0c1.6,0,3.26-.12,5.17-.27a2.07,2.07,0,0,0-.37,1.18V9a2.5,2.5,0,0,0-1.78,2.39v3a2.54,2.54,0,0,0,.14.83A9.16,9.16,0,0,0,23,22.28V38.12s0,.08,0,.1,0,.2.05.3,0,.09,0,.15a3.43,3.43,0,0,0,.3.76l0,0,.11.19a.7.7,0,0,1,.06.09l.11.14.07.09,0,0,.05,0,.12.12.11.11.08.07.11.1.13.09.1.07.22.13.12.07.11,0,.05,0,.06,0a3.68,3.68,0,0,0,.65.2l.14,0,.15,0H37.74a3.4,3.4,0,0,0,3.4-3.39V22.28c0-.13,0-.26,0-.39V21.8c0-.12,0-.21,0-.3l0-.13,0-.27V21L41,20.62v-.06c0-.1,0-.2-.07-.31l0-.1c0-.1,0-.18-.07-.27l0-.12a2.76,2.76,0,0,0-.08-.27l0-.08c0-.12-.09-.23-.13-.35l0-.06-.12-.28,0-.1-.12-.25,0-.1a2.44,2.44,0,0,0-.14-.28l-.2-.36,0-.07-.16-.25-.06-.09a1.77,1.77,0,0,0-.16-.22l-.06-.09c-.14-.19-.29-.38-.45-.56l0-.06-.2-.22L38.6,16l-.19-.19-.07-.07-.26-.24,0,0-.24-.2-.07-.06h0a2.31,2.31,0,0,0,.15-.83v-3a2.49,2.49,0,0,0-1.49-2.28V8.69a2.11,2.11,0,0,0-1.25-1.92,3.67,3.67,0,0,0,1.75-.95,2.89,2.89,0,0,0,.31-.37l0-.07A2.55,2.55,0,0,0,37.47,5a.21.21,0,0,0,0-.07,2.26,2.26,0,0,0,.17-.43h0a2,2,0,0,0,.1-.45s0-.07,0-.08a2.43,2.43,0,0,0,0-.38.45.45,0,0,0,0-.11V3.38c0-.11,0-.22,0-.33s0-.12,0-.17a1.81,1.81,0,0,0-.09-.31s0-.1,0-.14-.12-.27-.18-.4l-.12-.18-.06-.1A4.9,4.9,0,0,0,33.13,0Z" fill="#335394"/>
          </g>
        </g>
      </g>
    </g>
  </g>
</svg>
