<svg xmlns="http://www.w3.org/2000/svg" width="41.08" height="41.21" viewBox="0 0 41.08 41.21">
  <g id="Layer_2" data-name="Layer 2">
    <g id="Layer_2-2" data-name="Layer 2">
      <g id="cat_toy_3" data-name="cat_toy 3">
        <g>
          <path d="M11.12,36.47a4,4,0,1,1-5-3.89V24.16h2v8.42A4,4,0,0,1,11.12,36.47Z" fill="#ffeb81" stroke="#e57225" stroke-linecap="round" stroke-linejoin="round" stroke-width="1.44"/>
          <path d="M38,36.47a4,4,0,1,1-5-3.89V24.16h2v8.42A4,4,0,0,1,38,36.47Z" fill="#ffeb81" stroke="#e57225" stroke-linecap="round" stroke-linejoin="round" stroke-width="1.44"/>
        </g>
        <g>
          <path d="M37.37,25.93c-5.68-.51-11.35-.77-16.92-.77s-11.1.26-16.52.76H3.66a3,3,0,0,1-2-.76C.68,24.39.71,23,.73,22v-.4a4.9,4.9,0,0,1,3.1-4.54,2.51,2.51,0,0,1,0-.27,21.4,21.4,0,0,1,1.6-5.65c-1-2.55-.17-7.65,0-8.68A2.15,2.15,0,0,1,7.6.72a2.12,2.12,0,0,1,1,.24,27.51,27.51,0,0,1,5.68,3.73,16,16,0,0,1,6-1.18,17,17,0,0,1,6.41,1.27A27,27,0,0,1,32.5,1a2.12,2.12,0,0,1,1-.24,2.15,2.15,0,0,1,2.11,1.75c.18,1,1,5.93.07,8.53a22.49,22.49,0,0,1,1.71,6.13c2.11.88,3.25,3.16,2.94,5.95a2.81,2.81,0,0,1-.84,2,2.91,2.91,0,0,1-2,.88Z" fill="#ffaa5a"/>
          <path d="M33.48,1.44a1.42,1.42,0,0,1,1.4,1.16c.52,2.78.82,6.64,0,8.42a21.6,21.6,0,0,1,1.83,6.53l0,.11c2.27.7,3.12,3,2.86,5.34a2.22,2.22,0,0,1-2.17,2.21h0q-8.45-.77-16.93-.77c-5.54,0-11.08.25-16.59.76h-.2a2.18,2.18,0,0,1-1.49-.58c-.88-.68-.72-2.05-.72-3a4.15,4.15,0,0,1,3.05-4,5.62,5.62,0,0,1,.08-.69A21.15,21.15,0,0,1,6.31,11l-.08,0c-.86-1.75-.55-5.66,0-8.47A1.42,1.42,0,0,1,7.6,1.44a1.39,1.39,0,0,1,.65.16,26.6,26.6,0,0,1,5.88,3.93,15.23,15.23,0,0,1,6.17-1.3,16.27,16.27,0,0,1,6.54,1.39,26.41,26.41,0,0,1,6-4,1.39,1.39,0,0,1,.65-.16m0-1.44a2.93,2.93,0,0,0-1.3.31A28.24,28.24,0,0,0,26.57,4,17.58,17.58,0,0,0,20.3,2.79a16.62,16.62,0,0,0-5.9,1.07A29.06,29.06,0,0,0,8.9.31,2.93,2.93,0,0,0,7.6,0,2.86,2.86,0,0,0,4.78,2.34c-.27,1.43-1,6.07-.08,8.8a22.84,22.84,0,0,0-1.54,5.44,5.63,5.63,0,0,0-3.15,5V22c0,1.08,0,2.71,1.23,3.75a3.66,3.66,0,0,0,2.42.91H4c5.41-.5,10.94-.76,16.46-.76s11.2.26,16.8.77h.17A3.67,3.67,0,0,0,41,23.08c.3-2.93-.85-5.35-3-6.44A23.08,23.08,0,0,0,36.43,11c.84-2.74.13-7.22-.13-8.62A2.86,2.86,0,0,0,33.48,0Z" fill="#e57225"/>
        </g>
        <path d="M12.84,7a1.91,1.91,0,0,0,.85.43,12.56,12.56,0,0,0-5.08,2.69A.4.4,0,0,1,8,10l-.1-.14a.31.31,0,0,1-.06-.13,17,17,0,0,1,.08-5.52A.4.4,0,0,1,8.5,4,24.07,24.07,0,0,1,12.84,7Z" fill="#e57225"/>
        <path d="M33.09,10.19a2.25,2.25,0,0,0-.14.44,11.66,11.66,0,0,0-5.46-3.16,1.86,1.86,0,0,0,.65-.38A23.64,23.64,0,0,1,32.57,4a.39.39,0,0,1,.59.29C33.53,6.86,33.51,9.29,33.09,10.19Z" fill="#e57225"/>
        <g>
          <g>
            <path d="M20.45,17.45,20,17.4Z" fill="#fff"/>
            <path d="M20.62,13.91a.87.87,0,0,0,.29-.15c.15-.19.17-.51.36-.62s.27,0,.41-.05a.61.61,0,0,0,.34-.2c.23-.27.36-.72.1-1a2.64,2.64,0,0,0-3.16,0c-.25.22-.14.65.08.92a.54.54,0,0,0,.36.23c.13,0,.28,0,.4.05s.22.43.36.62a.82.82,0,0,0,.25.14Z" fill="#fff"/>
            <path d="M18.38,15.63a3.63,3.63,0,0,1-1.14-.18A1.74,1.74,0,0,1,16,14.25,1.74,1.74,0,0,1,16.25,13a.34.34,0,0,1,.47-.13.37.37,0,0,1,.13.48,1.11,1.11,0,0,0-.2.74c.09.43.64.64.81.69a2.82,2.82,0,0,0,1.26.13l.07,0a2.46,2.46,0,0,0,1.46-.77.38.38,0,0,1,.29-.15h0a.35.35,0,0,1,.28.15,2.52,2.52,0,0,0,1.46.77l.08,0a2.82,2.82,0,0,0,1.26-.13c.17,0,.72-.26.8-.69a1,1,0,0,0-.19-.74.36.36,0,0,1,.13-.48.34.34,0,0,1,.47.13,1.74,1.74,0,0,1,.27,1.24,1.74,1.74,0,0,1-1.26,1.2,3.59,3.59,0,0,1-1.66.15l-.08,0a3.53,3.53,0,0,1-1.56-.74,3.61,3.61,0,0,1-1.57.74l-.07,0A4.53,4.53,0,0,1,18.38,15.63Z" fill="#fff"/>
          </g>
          <g>
            <path d="M26.56,9.79a1.64,1.64,0,0,0-1.19-1,1.49,1.49,0,0,0-.42,0,1.36,1.36,0,0,0-.43.11c-.71.3-1.38,1.15-.84,1.83a1.82,1.82,0,0,0,1,.56,2.08,2.08,0,0,0,1.16,0l.19-.08A1.06,1.06,0,0,0,26.56,9.79Z" fill="#fff"/>
            <path d="M17.48,9.66a1.88,1.88,0,0,0-.92-.84,1.44,1.44,0,0,0-.43-.11,1.49,1.49,0,0,0-.42,0,1.64,1.64,0,0,0-1.19,1,1.06,1.06,0,0,0,.53,1.32l.19.08.14,0a2.16,2.16,0,0,0,1,0,1.85,1.85,0,0,0,1-.56A.88.88,0,0,0,17.48,9.66Z" fill="#fff"/>
          </g>
        </g>
        <path d="M8.09,19.84a137.52,137.52,0,0,1,25.51,0" fill="none" stroke="#e57225" stroke-linecap="round" stroke-linejoin="round" stroke-width="1.44"/>
        <g>
          <g>
            <line x1="29.64" y1="13.08" x2="33.06" y2="12.84" fill="none" stroke="#fff" stroke-linecap="round" stroke-linejoin="round" stroke-width="0.72"/>
            <line x1="29.7" y1="14.45" x2="33" y2="15.4" fill="none" stroke="#fff" stroke-linecap="round" stroke-linejoin="round" stroke-width="0.72"/>
          </g>
          <g>
            <line x1="11.44" y1="13.08" x2="8.02" y2="12.84" fill="none" stroke="#fff" stroke-linecap="round" stroke-linejoin="round" stroke-width="0.72"/>
            <line x1="11.38" y1="14.45" x2="8.08" y2="15.4" fill="none" stroke="#fff" stroke-linecap="round" stroke-linejoin="round" stroke-width="0.72"/>
          </g>
        </g>
      </g>
    </g>
  </g>
</svg>
