<svg xmlns="http://www.w3.org/2000/svg" width="41.92" height="41.44" viewBox="0 0 41.92 41.44">
  <g id="Layer_2" data-name="Layer 2">
    <g id="Layer_2-2" data-name="Layer 2">
      <g id="cat_clean_4" data-name="cat_clean 4">
        <g>
          <g>
            <path d="M16.84,22.3c-.51,0-1,0-1.51-.06s-.64-.07-.95-.12-.72-.12-1.08-.2a16.06,16.06,0,0,1-2-.59c-.6-.22-1-.39-1.5-.61l-.42-.18a11.75,11.75,0,0,0-3.9-1.16H5.09l-.44,0H4.59A.71.71,0,0,1,4,19,.74.74,0,0,1,4,18.21l.1-.11a2.23,2.23,0,0,1,1.26-.7,2.35,2.35,0,0,1,.91-1.68,2.32,2.32,0,0,1,1.38-.45l.31,0a2.54,2.54,0,0,1,.41-.78,2.68,2.68,0,0,1,2-1.08h.11a3.33,3.33,0,0,1,2.68,1.46,3.07,3.07,0,0,1,1-.16,2.84,2.84,0,0,1,1.2.26,3,3,0,0,1,1.47,1.47,3.08,3.08,0,0,1,.8-.1,3.62,3.62,0,0,1,2.48,1A2.26,2.26,0,0,1,21.33,17a2.41,2.41,0,0,1,.6.08,3,3,0,0,1,1.31.78,1.89,1.89,0,0,1,.72-.33,2.28,2.28,0,0,1,.45,0,2.79,2.79,0,0,1,1.19.28,3.53,3.53,0,0,1,.85.55.71.71,0,0,1-.13,1.18l-.89.48a20.38,20.38,0,0,1-3.9,1.69c-.59.17-1.22.32-1.86.44l-.54.09-.23-.7.09.72-.45,0c-.37,0-.74.06-1.1.07Z" fill="#e3f2f7"/>
            <path d="M10.53,14.14a2.62,2.62,0,0,1,2.31,1.69,2.29,2.29,0,0,1,1.27-.39,2.35,2.35,0,0,1,.91.19,2.32,2.32,0,0,1,1.3,1.77,2.52,2.52,0,0,1,1.26-.33A2.8,2.8,0,0,1,20,18.44a1.49,1.49,0,0,1,1.72-.71A2.83,2.83,0,0,1,23.28,19a1.05,1.05,0,0,1,.83-.79,1.53,1.53,0,0,1,.3,0,2.13,2.13,0,0,1,.89.22,2.56,2.56,0,0,1,.68.44l-.89.47a19.49,19.49,0,0,1-3.76,1.64c-.59.17-1.19.31-1.79.42l-.18,0-.35.06H18.9l-.43.05c-.36,0-.71.06-1.06.07h-.57c-.48,0-1,0-1.45-.06s-.61-.06-.89-.11-.7-.12-1-.19a16,16,0,0,1-1.94-.57c-.73-.26-1.15-.46-1.87-.77a12.58,12.58,0,0,0-4.14-1.22H5.09l-.5,0a.27.27,0,0,1,.07-.08,1.57,1.57,0,0,1,1.17-.51,1.47,1.47,0,0,1,.36,0,1.64,1.64,0,0,1,.54-1.82,1.61,1.61,0,0,1,1.9,0,1.93,1.93,0,0,1,1.78-2.16h.12m0-1.44h-.2a3.47,3.47,0,0,0-2.51,1.37,3,3,0,0,0-.3.48,3,3,0,0,0-1.65.58,3.06,3.06,0,0,0-1.11,1.69,3,3,0,0,0-1.17.79l-.12.15a1.46,1.46,0,0,0-.14,1.58,1.44,1.44,0,0,0,1.26.76H4.7l.39,0h.32a11.45,11.45,0,0,1,3.67,1.1l.4.17c.49.22.92.41,1.55.64a19.06,19.06,0,0,0,2.12.61c.37.08.75.16,1.12.21s.54.08,1,.12,1.05.07,1.57.07h.62c.38,0,.77,0,1.15-.07l.46-.06h.12l.14,0,.27-.05.14,0h.06a19.61,19.61,0,0,0,1.94-.46,20.87,20.87,0,0,0,4-1.75l.69-.37.2-.1a1.45,1.45,0,0,0,.26-2.37,4.7,4.7,0,0,0-1-.65,3.64,3.64,0,0,0-1.5-.35,3.05,3.05,0,0,0-.6.06,2.81,2.81,0,0,0-.49.16,3.31,3.31,0,0,0-1.2-.6,3,3,0,0,0-.79-.11,3.07,3.07,0,0,0-1.18.24,4.39,4.39,0,0,0-2.57-.84l-.41,0a3.74,3.74,0,0,0-1.56-1.33,3.64,3.64,0,0,0-1.5-.32,4,4,0,0,0-.69.07,4,4,0,0,0-2.89-1.37Z" fill="#98d9e4"/>
          </g>
          <path d="M21.33,20.93c-.59.17-1.19.31-1.79.42a6.22,6.22,0,0,1-.93-.69,2.07,2.07,0,0,1-3-.65,2.2,2.2,0,0,1-1.94.49,2.17,2.17,0,0,1-1.49-1.32,2.05,2.05,0,0,1-2.44-.09,1.39,1.39,0,0,1,.3-2.2,2.38,2.38,0,0,1-.09-2.08,1.71,1.71,0,0,1,.55-.67,2.62,2.62,0,0,1,2.35,1.69,2.29,2.29,0,0,1,2.18-.2,2.32,2.32,0,0,1,1.3,1.77,2.8,2.8,0,0,1,3.7,1,1.46,1.46,0,0,1,1.72-.71A2.83,2.83,0,0,1,23.28,19a1.05,1.05,0,0,1,.83-.79,1.83,1.83,0,0,1,1.19.19,2.56,2.56,0,0,1,.68.44l-.89.47A19.49,19.49,0,0,1,21.33,20.93Z" fill="#e3f2f7"/>
        </g>
        <g>
          <g>
            <g>
              <path d="M31.35,40.72a1.76,1.76,0,0,1-1.3-.8,9.94,9.94,0,0,1-1.27-2.15,8.15,8.15,0,0,1-.37-1.12.7.7,0,0,1,.08-.55.72.72,0,0,1,.46-.32,14.34,14.34,0,0,0,1.78-.51,7.94,7.94,0,0,0,.89-.38.72.72,0,0,1,.32-.08.76.76,0,0,1,.38.11.72.72,0,0,1,.34.61c0,.67,0,1.34,0,2l0,.27c0,.35-.05.71-.08,1.07v.2c0,.11,0,.23,0,.35a1.53,1.53,0,0,1-.28.86,1.1,1.1,0,0,1-.87.44Z" fill="#baa2ee"/>
              <path d="M31.94,35.53h0m0,0c0,.65,0,1.31-.05,2,0,.09,0,.17,0,.26,0,.35,0,.7-.08,1.06,0,.14,0,.36,0,.57a.83.83,0,0,1-.12.45.4.4,0,0,1-.31.17c-.28,0-.58-.31-.73-.51a9.93,9.93,0,0,1-1.18-2,7.44,7.44,0,0,1-.33-1A15.94,15.94,0,0,0,31,36a7.67,7.67,0,0,0,1-.42m0-1.44h0a1.31,1.31,0,0,0-.65.17,7.26,7.26,0,0,1-.78.33,12.94,12.94,0,0,1-1.69.48,1.49,1.49,0,0,0-.92.65,1.47,1.47,0,0,0-.17,1.1,8.45,8.45,0,0,0,.41,1.23,10.58,10.58,0,0,0,1.36,2.31,2.46,2.46,0,0,0,1.87,1.08,1.83,1.83,0,0,0,1.44-.72,2.18,2.18,0,0,0,.43-1.25c0-.13,0-.27,0-.4v-.14c0-.36.06-.73.08-1.1l0-.26c0-.64.05-1.29.05-2,0,0,0-.06,0-.09A1.45,1.45,0,0,0,32,34.09h0Zm0,2.88h0Z" fill="#7850b3"/>
            </g>
            <g>
              <path d="M11.74,40.72a1.1,1.1,0,0,1-.87-.44,1.56,1.56,0,0,1-.28-.86c0-.12,0-.24,0-.35v-.2c0-.36-.06-.72-.08-1.08l0-.26c0-.7-.05-1.41-.05-2.11a.71.71,0,0,1,.3-.59.72.72,0,0,1,.42-.13.67.67,0,0,1,.24,0,20.4,20.4,0,0,0,2.8.77.72.72,0,0,1,.56.85,7.63,7.63,0,0,1-.44,1.41A10.25,10.25,0,0,1,13,39.93a1.78,1.78,0,0,1-1.3.79Z" fill="#baa2ee"/>
              <path d="M11.15,35.42a23.75,23.75,0,0,0,2.89.8,6.63,6.63,0,0,1-.39,1.27,9.93,9.93,0,0,1-1.18,2c-.15.2-.45.51-.73.51a.4.4,0,0,1-.31-.17.83.83,0,0,1-.12-.45c0-.21,0-.43,0-.57,0-.36-.06-.71-.08-1.06,0-.09,0-.17,0-.26,0-.69,0-1.38,0-2.07m0-1.44a1.43,1.43,0,0,0-1.44,1.44c0,.71,0,1.44,0,2.15l0,.27c0,.36.05.73.08,1.09v.14c0,.13,0,.27,0,.4a2.3,2.3,0,0,0,.44,1.26,1.82,1.82,0,0,0,1.43.71,2.46,2.46,0,0,0,1.87-1.08A10.58,10.58,0,0,0,15,38.05a7.88,7.88,0,0,0,.48-1.55,1.43,1.43,0,0,0-1.12-1.69,20.82,20.82,0,0,1-2.7-.75,1.34,1.34,0,0,0-.48-.08Z" fill="#7850b3"/>
            </g>
          </g>
          <path d="M31.87,37.75c0,.35,0,.7-.08,1.06,0,.14,0,.36,0,.57a.83.83,0,0,1-.12.45c-.34.43-.83-.07-1-.34a9.93,9.93,0,0,1-1.18-2l.3.08A6.91,6.91,0,0,0,31.87,37.75Z" fill="#e2d7ff"/>
          <path d="M13.35,37.57l.3-.08a9.93,9.93,0,0,1-1.18,2c-.21.27-.7.77-1,.34a.83.83,0,0,1-.12-.45c0-.21,0-.43,0-.57,0-.36-.06-.71-.08-1.06A6.91,6.91,0,0,0,13.35,37.57Z" fill="#e2d7ff"/>
        </g>
        <g>
          <path d="M26.3,6a8.4,8.4,0,0,1,1.75,1,8.26,8.26,0,0,1,1.73,1.62,4.31,4.31,0,0,1,.49.78,2,2,0,0,1,.17.66v0a.74.74,0,0,1-.14.46.71.71,0,0,1-.36.27,1.37,1.37,0,0,1-.51.08A4.07,4.07,0,0,1,28,10.57a8.94,8.94,0,0,1-1.75-1A8.19,8.19,0,0,1,24.48,8,3.82,3.82,0,0,1,24,7.19a1.77,1.77,0,0,1-.18-.7A.81.81,0,0,1,24,6a.88.88,0,0,1,.36-.27l.29-.07h.22A4,4,0,0,1,26.3,6Z" fill="#e2d7ff"/>
          <path d="M35.54,9.93c.05-1,.1-2,.13-3a10.59,10.59,0,0,0,0-1.26l0-.33a.56.56,0,0,1,0-.07s0,0,0-.08a4.34,4.34,0,0,0-.16-.62,1.58,1.58,0,0,0-.19-.43l-.15-.24c0,.05-.09-.1-.12-.13a1.7,1.7,0,0,0-.19-.19l-.09-.08a3.31,3.31,0,0,0-.47-.29l-.1,0h0l-.23-.08A3.16,3.16,0,0,0,33.39,3h-.14l-.27,0h-.24l-.22,0a4.54,4.54,0,0,0-.53.12l-.28.1-.18.08A5.36,5.36,0,0,0,31,3.6l-.13.09,0,0,0,0-.22.19-.48.48a3.61,3.61,0,0,0-.32.42,7.45,7.45,0,0,0-.43.71Q28.7,5.13,28,4.78A6.36,6.36,0,0,1,31.5,1.67a4.43,4.43,0,0,1,4.6,1.09c1.35,1.54,1.09,3.7,1,5.59l-.29,6.52q-.14,3.14-.28,6.27a7.51,7.51,0,0,0-1.47-.43C35.23,17.12,35.39,13.52,35.54,9.93Z" fill="#7850b3"/>
          <path d="M29.38,6.17a.24.24,0,0,0,.13,0,3.81,3.81,0,0,1,.65,1.1,6.06,6.06,0,0,1,.36,1.79,2.29,2.29,0,0,1-.08,1,2,2,0,0,0-.17-.66,4.31,4.31,0,0,0-.49-.78A8.26,8.26,0,0,0,28.05,7,8.4,8.4,0,0,0,26.3,6a4,4,0,0,0-1.48-.35H24.6a4.64,4.64,0,0,1,.95-.34,5.66,5.66,0,0,1,1.19-.19,4.25,4.25,0,0,1,1.07.07h0A13.81,13.81,0,0,1,29.38,6.17Z" fill="#7850b3"/>
          <path d="M29.63,5.74a.26.26,0,0,1-.12.47.24.24,0,0,1-.13,0,13.81,13.81,0,0,0-1.56-1l-.11,0c-.28-.15,0-.58.25-.43l.08,0q.66.34,1.29.75Z" fill="#baa2ee"/>
          <path d="M26.23,6.21a9.08,9.08,0,0,1,1.71,1A6.6,6.6,0,0,1,30.08,9.5a1.42,1.42,0,0,1,.16.61.58.58,0,0,1-.1.35.64.64,0,0,1-.27.2,1.42,1.42,0,0,1-.44.06,3.83,3.83,0,0,1-1.4-.33,8.78,8.78,0,0,1-1.71-1,6.73,6.73,0,0,1-2.15-2.32A1.62,1.62,0,0,1,24,6.49a.65.65,0,0,1,.1-.35A.66.66,0,0,1,24.38,6a1.16,1.16,0,0,1,.44-.07A3.92,3.92,0,0,1,26.23,6.21Z" fill="#baa2ee"/>
          <path d="M32.94,1.44A4.2,4.2,0,0,1,36.1,2.76c1.35,1.54,1.09,3.7,1,5.59-.1,2.17-.2,4.35-.29,6.52s-.18,4.18-.28,6.27a7.51,7.51,0,0,0-1.47-.43c.16-3.59.32-7.19.47-10.78.05-1,.1-2,.13-3a10.59,10.59,0,0,0,0-1.26l0-.33a.56.56,0,0,1,0-.07V5.19a4.34,4.34,0,0,0-.16-.62,1.58,1.58,0,0,0-.19-.43l-.15-.24h0A1.14,1.14,0,0,0,35,3.77a1.7,1.7,0,0,0-.19-.19l-.09-.08a3.31,3.31,0,0,0-.47-.29l-.1,0h0l-.23-.08A3.16,3.16,0,0,0,33.39,3h-.14l-.27,0h-.24l-.22,0h0a4.54,4.54,0,0,0-.53.12l-.28.1h0l-.18.08A5.36,5.36,0,0,0,31,3.6l-.13.09,0,0,0,0-.22.19c-.17.16-.33.32-.47.48a2.87,2.87,0,0,0-.33.42,7.45,7.45,0,0,0-.43.71l.3.21a.26.26,0,0,1-.12.47h0a3.81,3.81,0,0,1,.65,1.1,6.06,6.06,0,0,1,.36,1.79,2.29,2.29,0,0,1-.08,1v0a.74.74,0,0,1-.14.46.71.71,0,0,1-.36.27,1.37,1.37,0,0,1-.51.08A4.07,4.07,0,0,1,28,10.57a8.94,8.94,0,0,1-1.75-1A8.19,8.19,0,0,1,24.48,8,3.82,3.82,0,0,1,24,7.19a1.77,1.77,0,0,1-.18-.7A.81.81,0,0,1,24,6a.88.88,0,0,1,.36-.27l.29-.07a4.64,4.64,0,0,1,.95-.34,5.66,5.66,0,0,1,1.19-.19H27a4.26,4.26,0,0,1,.8.08h0l-.11,0c-.24-.13-.09-.46.14-.46l.11,0,.08,0A6.36,6.36,0,0,1,31.5,1.67a4.62,4.62,0,0,1,1.44-.23m0-1.44A5.84,5.84,0,0,0,31,.31,7.61,7.61,0,0,0,27.18,3.4a2,2,0,0,0-.49.32h0A7.8,7.8,0,0,0,25.19,4a7.32,7.32,0,0,0-1,.36l-.36.1A2.2,2.2,0,0,0,22.37,6.5a3.2,3.2,0,0,0,.31,1.29,5.7,5.7,0,0,0,.66,1.06,9.83,9.83,0,0,0,2,1.91,10,10,0,0,0,2,1.15,5.46,5.46,0,0,0,2,.45,3.09,3.09,0,0,0,1-.17,2.26,2.26,0,0,0,1-.78,2.21,2.21,0,0,0,.39-1.1A3.92,3.92,0,0,0,32,9a7.51,7.51,0,0,0-.46-2.21,5.42,5.42,0,0,0-.32-.69,1.67,1.67,0,0,0-.08-.67l.07-.08A4,4,0,0,1,31.52,5l.17-.14.08-.06a4.23,4.23,0,0,1,.4-.24h0l.06,0,.14,0,.27-.07h.5l.31.07.1,0,.24.14,0,0,.07.07,0,0,0,0,.05.07a.93.93,0,0,1,0,.1l0,.07a3.52,3.52,0,0,1,.1.41V5.5a2.28,2.28,0,0,1,0,.26,10.55,10.55,0,0,1,0,1.12l-.09,2,0,1-.48,10.78a1.44,1.44,0,0,0,1.18,1.48,6,6,0,0,1,1.2.35,1.46,1.46,0,0,0,.53.1,1.48,1.48,0,0,0,.79-.23A1.45,1.45,0,0,0,38,21.2l.28-6.27.28-6.52,0-.53c.1-1.89.22-4.23-1.38-6.07A5.61,5.61,0,0,0,32.94,0Z" fill="#2d0861"/>
        </g>
        <g>
          <path d="M23.49,37.72c-1.67,0-3.32-.09-4.87-.19a33.07,33.07,0,0,1-4.72-.61,23.26,23.26,0,0,1-3-.82,17.52,17.52,0,0,1-3.56-1.72C4.48,32.56,4.06,29.88,3.62,27l-.13-.77a16.34,16.34,0,0,0-1-3.61.71.71,0,0,1,.29-.88l.19-.12.24-.13.12-.05a6.91,6.91,0,0,1,1-.27h.12l.18,0h.77a4.38,4.38,0,0,1,.51,0l.13,0,.32.05A12.83,12.83,0,0,1,8.53,22l1,.43,1.2.51a16.51,16.51,0,0,0,6.08,1.16c.53,0,1.06,0,1.58-.07a16.76,16.76,0,0,0,3.89-.84,25.5,25.5,0,0,0,3.78-1.75l.47-.26c.47-.25.93-.5,1.41-.74.33-.17.66-.34,1-.5l.65-.29.17-.07a13.22,13.22,0,0,1,2.09-.67,5.05,5.05,0,0,1,.56-.12l.29-.05a9.05,9.05,0,0,1,1.11-.08h0l.54,0h.11l.12,0h0a7.51,7.51,0,0,1,.82.19,8.09,8.09,0,0,1,.83.28l-.14.73.29-.66.19.09c.14.07.27.13.4.21a8.63,8.63,0,0,1,.82.51l.14.1.43.36a6,6,0,0,1,.66.68l0,.07.09.12.24.37a1.15,1.15,0,0,1,.15.44,13,13,0,0,1-.36,2.9,27.55,27.55,0,0,1-.95,3.38A19.36,19.36,0,0,1,36.64,32a11,11,0,0,1-4.37,4.2,10.2,10.2,0,0,1-1.05.46,17.41,17.41,0,0,1-2,.55,27.08,27.08,0,0,1-5.77.54Z" fill="#baa2ee"/>
          <path d="M33.9,19.37a3.1,3.1,0,0,1,.43,0h.16c.26.05.51.1.75.17a6.81,6.81,0,0,1,.76.26l.13.06.17.08.36.19a8.65,8.65,0,0,1,.76.47l.17.12.33.28a5.58,5.58,0,0,1,.58.61l0,0h0s.06.09.08.11l.21.33,0,.08a12.65,12.65,0,0,1-.34,2.73,28.22,28.22,0,0,1-.93,3.3A17.86,17.86,0,0,1,36,31.59a10.17,10.17,0,0,1-4.08,3.94A7.67,7.67,0,0,1,31,36a15.94,15.94,0,0,1-1.86.53,26.81,26.81,0,0,1-5.63.52c-1.64,0-3.28-.09-4.81-.19A34.69,34.69,0,0,1,14,36.22a23.75,23.75,0,0,1-2.89-.8,16.72,16.72,0,0,1-3.41-1.64C4.9,32,4.7,29.2,4.2,26.15a17.07,17.07,0,0,0-1.07-3.77l.16-.09.24-.12h0a4.31,4.31,0,0,1,.87-.24h0l.22,0h.7c.16,0,.31,0,.47,0h0L6,22l.23,0a11.53,11.53,0,0,1,2.06.67h0l.14.06.07,0,.2.09.54.24c.41.18.81.35,1.22.51a17.07,17.07,0,0,0,6.35,1.22,15.25,15.25,0,0,0,1.66-.08,16.94,16.94,0,0,0,4-.87,26.86,26.86,0,0,0,3.89-1.8c.62-.33,1.24-.67,1.87-1,.32-.17.65-.33,1-.49l.41-.18.21-.09.16-.07h0a14.27,14.27,0,0,1,2-.64l.53-.11.27,0h0a7.91,7.91,0,0,1,1-.07h.08m0-1.44h-.09a8.62,8.62,0,0,0-1.14.08h-.05l-.34.06-.6.13a14.5,14.5,0,0,0-2.19.7h0l-.15.06-.25.11-.44.2c-.35.16-.69.33-1,.51l-1.46.77-.43.23A24.61,24.61,0,0,1,22,22.5a16,16,0,0,1-3.71.8c-.5.05-1,.07-1.52.07A15.67,15.67,0,0,1,11,22.26l-1.18-.5-.14-.06-.4-.18-.11,0-.1-.05L9,21.4l-.05,0-.11,0a13,13,0,0,0-2.35-.76l-.28,0-.16,0H6l-.59,0H4.55l-.16,0h0l-.15,0a6.9,6.9,0,0,0-1.12.3l-.24.11-.05,0-.19.1-.22.13a1.43,1.43,0,0,0-.57,1.77,15.66,15.66,0,0,1,1,3.46l.12.76C3.36,30,3.82,33,7,35a17.92,17.92,0,0,0,3.71,1.78,22.66,22.66,0,0,0,3.08.86,36.23,36.23,0,0,0,4.83.62c1.56.1,3.22.19,4.9.19a27.37,27.37,0,0,0,5.94-.56,15.18,15.18,0,0,0,2-.58,9.11,9.11,0,0,0,1.13-.48,11.73,11.73,0,0,0,4.66-4.48A19.38,19.38,0,0,0,39,28.71a28.7,28.7,0,0,0,1-3.48,13.58,13.58,0,0,0,.38-3.07,1.41,1.41,0,0,0-.26-.8c-.08-.14-.17-.27-.26-.41l-.08-.1a1.37,1.37,0,0,1,.23,1.1,1.44,1.44,0,0,0-.3-1.19l0,0a7.23,7.23,0,0,0-.72-.75q-.2-.18-.39-.33l-.06-.05-.19-.14c-.28-.2-.59-.38-.89-.56l-.43-.22-.2-.09-.08,0,0,0-.06,0c-.3-.12-.6-.22-.9-.31S35,18,34.75,18h-.14l-.16,0-.55,0Z" fill="#7850b3"/>
        </g>
        <g>
          <path d="M26.38,34.13a20.52,20.52,0,0,1-13.51-4.19A13.45,13.45,0,0,1,9.3,25.78a11.13,11.13,0,0,1-1-3.12h0l.14.06.07,0,.2.09.54.24c.41.18.81.35,1.22.51a17,17,0,0,0,8,1.14,16.91,16.91,0,0,0,4.05-.87,26.86,26.86,0,0,0,3.89-1.8c.62-.33,1.24-.67,1.87-1,.32-.17.65-.33,1-.49l.41-.18.21-.09.16-.07a14.27,14.27,0,0,1,2-.64l.53-.11.27,0h0a7.91,7.91,0,0,1,1-.07,4.35,4.35,0,0,1,.51,0h.16c.26.05.51.1.75.17a6.81,6.81,0,0,1,.76.26l.13.06.17.08.36.19a8.65,8.65,0,0,1,.76.47l.17.12.33.28a5.58,5.58,0,0,1,.58.61l0,0s.06.09.08.11l.21.33,0,.08a12.65,12.65,0,0,1-.34,2.73,28.22,28.22,0,0,1-.93,3.3A17.86,17.86,0,0,1,36,31.59,24.35,24.35,0,0,1,26.38,34.13Z" fill="#e2d7ff"/>
          <path d="M3.53,22.17h0a4.23,4.23,0,0,1,.88-.24l.21,0h.16a4.86,4.86,0,0,1,.54,0c.16,0,.31,0,.47,0h0L6,22l.23,0a11.53,11.53,0,0,1,2.06.67,11.13,11.13,0,0,0,1,3.12,13.45,13.45,0,0,0,3.57,4.16,20.52,20.52,0,0,0,13.51,4.19A24.35,24.35,0,0,0,36,31.59a10.17,10.17,0,0,1-4.08,3.94A7.67,7.67,0,0,1,31,36a15.94,15.94,0,0,1-1.86.53,38.54,38.54,0,0,1-10.44.33A34.69,34.69,0,0,1,14,36.22a23.75,23.75,0,0,1-2.89-.8,16.72,16.72,0,0,1-3.41-1.64C4.9,32,4.7,29.2,4.2,26.15a17.07,17.07,0,0,0-1.07-3.77l.16-.09Z" fill="#baa2ee"/>
        </g>
        <g>
          <path d="M16.81,25.53a18,18,0,0,1-6.62-1.27c-.41-.16-.83-.34-1.24-.52l-.74-.33.15-.71-.28.66.18-.7L8,23.32a10.7,10.7,0,0,0-1.93-.62l-.2,0,0-.74-.07.72-.43,0H4.54a5.44,5.44,0,0,0-.74.2L3.51,23l-.23.16a1.81,1.81,0,0,1-1,.31A1.47,1.47,0,0,1,1.17,23a1.77,1.77,0,0,1-.44-1.3,1.39,1.39,0,0,1,.53-1,6,6,0,0,1,3.27-1.27l.57,0,.46,0a13,13,0,0,1,4.38,1.27l.42.18c.47.21.84.37,1.4.57a14.69,14.69,0,0,0,1.86.54c.33.08.66.14,1,.19s.45.07.84.1.93.06,1.4.06h.54c.33,0,.67,0,1-.06l.53-.07.32-.05.16,0a14.44,14.44,0,0,0,1.72-.4,19.14,19.14,0,0,0,3.63-1.58l.89-.48c2.21-1.18,4.72-2.52,7.59-2.74l.56,0A8.4,8.4,0,0,1,35.2,17a8.67,8.67,0,0,1,1.61.47c.3.12.6.25.89.4a8.22,8.22,0,0,1,3.29,3,1.65,1.65,0,0,1,.15,1.27,1.56,1.56,0,0,1-.76,1,1.68,1.68,0,0,1-.79.2,1.62,1.62,0,0,1-1.3-.65s-.08-.12-.09-.15L38,22.2,38,22.13h0a4.8,4.8,0,0,0-.53-.56l-.3-.26L37,21.22a7.31,7.31,0,0,0-.7-.43c-.11-.07-.22-.12-.33-.18l-.15-.07.17-.71-.27.67c-.23-.09-.45-.17-.68-.24s-.45-.11-.68-.15l-.1,0H33.9a6.85,6.85,0,0,0-1,.06l-.27.05-.49.1a13.15,13.15,0,0,0-1.88.61L30,21l-.48.22-1,.47c-.46.24-.92.48-1.37.73l-.48.26a28.57,28.57,0,0,1-4,1.84,17.94,17.94,0,0,1-4.22.91A16.25,16.25,0,0,1,16.81,25.53Z" fill="#e8a4d2"/>
          <path d="M33.79,17.58a6.85,6.85,0,0,1,1.28.12,8.27,8.27,0,0,1,1.47.43c.28.11.56.24.83.37a7.47,7.47,0,0,1,3,2.71.91.91,0,0,1-.32,1.22,1,1,0,0,1-.46.12.91.91,0,0,1-.72-.36l0-.08-.21-.33s-.09-.11-.08-.11h0l0,0a5.58,5.58,0,0,0-.58-.61l-.33-.28-.17-.12a8.65,8.65,0,0,0-.76-.47L36.3,20l-.17-.08L36,19.83a6.81,6.81,0,0,0-.76-.26c-.24-.07-.49-.12-.75-.17h-.16a3.1,3.1,0,0,0-.43,0h-.08a7.91,7.91,0,0,0-1,.07h0l-.27,0L32,19.6a14.27,14.27,0,0,0-2,.64h0l-.16.07-.21.09-.41.18c-.33.16-.66.32-1,.49-.63.32-1.25.66-1.87,1a26.86,26.86,0,0,1-3.89,1.8,16.94,16.94,0,0,1-4,.87,15.25,15.25,0,0,1-1.66.08,17.07,17.07,0,0,1-6.35-1.22c-.41-.16-.81-.33-1.22-.51l-.54-.24-.2-.09-.07,0-.14-.06h0A11.53,11.53,0,0,0,6.2,22L6,22l-.14,0h0c-.16,0-.31,0-.47,0h-.7l-.22,0h0a4.31,4.31,0,0,0-.87.24h0l-.24.12-.16.09,0,0-.19.13.06,0a1.19,1.19,0,0,1-.69.25.75.75,0,0,1-.58-.25.91.91,0,0,1,0-1.27,5.4,5.4,0,0,1,2.89-1.11l.5,0h.42a12.58,12.58,0,0,1,4.14,1.22c.72.31,1.14.51,1.87.77a16,16,0,0,0,1.94.57c.34.07.69.14,1,.19s.48.07.89.11,1,.06,1.45.06h.57c.35,0,.7,0,1.06-.07l.43-.05H19l.35-.06.18,0c.6-.11,1.2-.25,1.79-.42a18.89,18.89,0,0,0,3.76-1.64l.89-.47c2.3-1.24,4.65-2.46,7.3-2.66l.51,0M30,20.24h0m3.75-4.1a6.08,6.08,0,0,0-.61,0c-3,.22-5.61,1.6-7.88,2.82l-.2.1-.68.37A18.18,18.18,0,0,1,20.91,21a16,16,0,0,1-1.62.38l-.09,0h-.08l-.23,0-.1,0h-.05l-.41.05c-.32,0-.65,0-1,.06h-.52c-.44,0-.89,0-1.32-.06s-.55-.05-.8-.09-.63-.11-.94-.18A14.45,14.45,0,0,1,12,20.74c-.54-.2-.89-.35-1.37-.56L10.22,20a13.71,13.71,0,0,0-4.61-1.33l-.52,0-.62,0A6.82,6.82,0,0,0,.81,20.09,2.12,2.12,0,0,0,0,21.61a2.46,2.46,0,0,0,.63,1.85,2.19,2.19,0,0,0,1.64.72,2.55,2.55,0,0,0,1.37-.41l.21-.14,0,0h0l.1-.06,0,0,.08,0a2.8,2.8,0,0,1,.51-.14h.66l.35,0,.08,0,.19,0a9.75,9.75,0,0,1,1.8.59l.16.06,0,0,.11,0,.1.05.36.15.18.08,1.25.53a18.56,18.56,0,0,0,6.89,1.32c.6,0,1.2,0,1.8-.08a18.91,18.91,0,0,0,4.38-1,29,29,0,0,0,4.09-1.89l.44-.24,1.4-.74.94-.46.38-.18.2-.08.08,0,.09,0A11.52,11.52,0,0,1,32.34,21l.46-.1.23,0a7.19,7.19,0,0,1,.81-.05h.45a5.72,5.72,0,0,1,.56.12l.59.21.06,0,.16.08a2.11,2.11,0,0,1,.3.16,6.65,6.65,0,0,1,.63.39l.12.08.24.21a4.62,4.62,0,0,1,.44.45l0,0,.16.25.13.2a2.33,2.33,0,0,0,1.88.95,2.49,2.49,0,0,0,1.13-.28,2.27,2.27,0,0,0,1.11-1.4,2.33,2.33,0,0,0-.22-1.83A8.88,8.88,0,0,0,38,17.22c-.31-.15-.63-.3-1-.43a8.86,8.86,0,0,0-1.75-.5,8,8,0,0,0-1.54-.15Z" fill="#ac538c"/>
        </g>
        <g>
          <g>
            <path d="M21,34.92c-2.34-.08-4-1-4.52-2.62a2.69,2.69,0,0,1-.06-1.06,3.64,3.64,0,0,1,.4-1.09,4.33,4.33,0,0,1,.88-3.58.67.67,0,0,1,.5-.21h.08a2.48,2.48,0,0,1,1.58,1.09l.18.21a6.89,6.89,0,0,1,2,0l.18-.21a2.53,2.53,0,0,1,1.59-1.09h.07a.71.71,0,0,1,.51.21,4.33,4.33,0,0,1,.87,3.58,3.38,3.38,0,0,1,.39,1.06,2.53,2.53,0,0,1-.06,1.13c-.74,2.22-3.4,2.55-4.5,2.58H21Z" fill="#ffaa5a"/>
            <path d="M18.18,27.08c.68.07,1.1.94,1.61,1.35A5.77,5.77,0,0,1,21,28.31h0a5.77,5.77,0,0,1,1.21.12c.51-.41.93-1.28,1.61-1.35a3.85,3.85,0,0,1,.64,3.21,3.12,3.12,0,0,1,.42,1,2.08,2.08,0,0,1,0,.74c-.53,1.58-2.38,2.08-3.86,2.13h0c-1.48-.05-3.33-.55-3.86-2.13a2.34,2.34,0,0,1,0-.74,3.34,3.34,0,0,1,.42-1,3.89,3.89,0,0,1,.64-3.21m0-1.44a1.47,1.47,0,0,0-1,.41,4.91,4.91,0,0,0-1.11,4,4.35,4.35,0,0,0-.36,1.07,3.42,3.42,0,0,0,.08,1.46c.64,1.88,2.53,3,5.17,3.09h.1c2.61-.08,4.54-1.24,5.17-3.09a3.24,3.24,0,0,0,.09-1.41v-.05A3.65,3.65,0,0,0,25.94,30a4.88,4.88,0,0,0-1.11-4,1.46,1.46,0,0,0-1-.41h-.15a3.07,3.07,0,0,0-2,1.25q-.32,0-.66,0c-.25,0-.48,0-.7,0a3.07,3.07,0,0,0-2-1.25Z" fill="#ff8d3d"/>
          </g>
          <g>
            <path d="M21,33.65l-.14,0Z" fill="#51321d"/>
            <path d="M21,32.53a.21.21,0,0,0,.09-.05c.05-.06.05-.16.11-.19s.09,0,.13,0a.14.14,0,0,0,.11-.06c.07-.08.11-.23,0-.3a.84.84,0,0,0-1,0,.23.23,0,0,0,0,.29.15.15,0,0,0,.11.07c.05,0,.09,0,.13,0s.07.13.11.19a.19.19,0,0,0,.08.05Z" fill="#51321d"/>
            <path d="M20.32,33.1A1.19,1.19,0,0,1,20,33a.57.57,0,0,1-.41-.4.55.55,0,0,1,.09-.41.13.13,0,0,1,.18,0,.12.12,0,0,1,.05.18.35.35,0,0,0-.06.22c0,.12.19.18.24.2a.81.81,0,0,0,.38,0h0a.85.85,0,0,0,.44-.23.13.13,0,0,1,.22,0,.85.85,0,0,0,.44.23h0a1,1,0,0,0,.38,0c.05,0,.21-.08.24-.2a.35.35,0,0,0-.06-.22.13.13,0,0,1,.05-.18.14.14,0,0,1,.19,0,.58.58,0,0,1,.08.41.54.54,0,0,1-.41.4,1.07,1.07,0,0,1-.53.05h0a1.11,1.11,0,0,1-.49-.22,1.07,1.07,0,0,1-.49.22s0,0,0,0Z" fill="#51321d"/>
          </g>
          <g>
            <path d="M22.9,31.24a.54.54,0,0,0-.38-.34h-.13l-.13,0c-.23.09-.44.36-.27.57a.57.57,0,0,0,.32.18.73.73,0,0,0,.36,0l.06,0A.33.33,0,0,0,22.9,31.24Z" fill="#51321d"/>
            <path d="M20,31.19a.61.61,0,0,0-.29-.26l-.14,0h-.13a.51.51,0,0,0-.37.34.32.32,0,0,0,.16.41l.06,0h.05a.7.7,0,0,0,.32,0A.55.55,0,0,0,20,31.5.27.27,0,0,0,20,31.19Z" fill="#51321d"/>
          </g>
          <g>
            <g>
              <path d="M23.58,31.3a1.61,1.61,0,0,1,.78-.54" fill="none" stroke="#ff8d3d" stroke-linecap="round" stroke-linejoin="round" stroke-width="0.25"/>
              <path d="M23.62,31.72a1.5,1.5,0,0,1,.89,0" fill="none" stroke="#ff8d3d" stroke-linecap="round" stroke-linejoin="round" stroke-width="0.25"/>
              <path d="M23.57,32.12a1.79,1.79,0,0,1,.77.38" fill="none" stroke="#ff8d3d" stroke-linecap="round" stroke-linejoin="round" stroke-width="0.25"/>
            </g>
            <g>
              <path d="M18.42,31.3a1.56,1.56,0,0,0-.78-.54" fill="none" stroke="#ff8d3d" stroke-linecap="round" stroke-linejoin="round" stroke-width="0.25"/>
              <path d="M18.38,31.72a1.5,1.5,0,0,0-.89,0" fill="none" stroke="#ff8d3d" stroke-linecap="round" stroke-linejoin="round" stroke-width="0.25"/>
              <path d="M18.44,32.12a1.69,1.69,0,0,0-.77.38" fill="none" stroke="#ff8d3d" stroke-linecap="round" stroke-linejoin="round" stroke-width="0.25"/>
            </g>
          </g>
        </g>
      </g>
    </g>
  </g>
</svg>
