<svg xmlns="http://www.w3.org/2000/svg" width="40.97" height="41.41" viewBox="0 0 40.97 41.41">
  <g style="isolation: isolate">
    <g id="Layer_2" data-name="Layer 2">
      <g id="Layer_2-2" data-name="Layer 2">
        <g id="cat_clean_2" data-name="cat_clean 2">
          <line x1="4.53" y1="27.33" x2="4.53" y2="3.75" fill="#eef5ff"/>
          <path d="M40.76,3.13a1.32,1.32,0,0,1-1.27.62h0a1.31,1.31,0,0,1-.56-.2,1.34,1.34,0,0,1-.43-1.84,1.36,1.36,0,0,1,1-.63h0a1.38,1.38,0,0,1,.88.2A1.33,1.33,0,0,1,40.76,3.13Z" fill="#776457"/>
          <path d="M40.76,3.13a1.32,1.32,0,0,1-1.27.62A1.34,1.34,0,0,0,40,1.28a1.4,1.4,0,0,0-.56-.2,1.38,1.38,0,0,1,.88.2A1.33,1.33,0,0,1,40.76,3.13Z" fill="#776457" opacity="0.2" style="mix-blend-mode: multiply"/>
          <g>
            <path d="M6.06,29.58a2.25,2.25,0,0,1-2.25-2.25V3.75c0-.21,0-2,1.19-2.73A2.39,2.39,0,0,1,6.3.72c.29,0,.64,0,1.11.06h.11c2.8.16,4.36.78,4.76,1.89,1.42,4,2.07,12.26,2.37,18.53.06,1.12.1,2.17.13,3.11l.08,3a2.25,2.25,0,0,1-2.25,2.29Z" fill="#a7bfee"/>
            <path d="M6.3,1.45c.27,0,.61,0,1,.05s3.79.12,4.26,1.42c1.39,3.9,2,12.17,2.32,18.33.06,1.11.1,2.16.13,3.09,0,.32,0,.62,0,.91s0,.49,0,.72c0,.5,0,1,0,1.33a1.54,1.54,0,0,1-1.53,1.56H6.06a1.52,1.52,0,0,1-1.53-1.53V3.75s0-1.6.84-2.11a1.72,1.72,0,0,1,.93-.19M6.3,0A3.11,3.11,0,0,0,4.64.4c-1.48.88-1.55,2.94-1.55,3.35V27.33a3,3,0,0,0,3,3h6.55a3,3,0,0,0,2.12-.88,3,3,0,0,0,.85-2.14v-.39l0-1c0-.26,0-.49,0-.74l0-.89c0-.95-.07-2-.13-3.12C14.94,12,14.12,5.68,13,2.44,12.28.56,9.55.19,7.56.07h-.1C7,0,6.63,0,6.3,0Z" fill="#5576b4"/>
          </g>
          <path d="M14.14,27.3a1.54,1.54,0,0,1-1.53,1.56H6.06a1.52,1.52,0,0,1-1.53-1.53V3.75s0-1.6.84-2.11c.39-.23.85-.23,2-.14.35,0,3.79.12,4.26,1.42,1.39,3.9,2,12.17,2.32,18.33.06,1.11.1,2.16.13,3.09,0,.32,0,.62,0,.91s0,.49,0,.72C14.12,26.47,14.13,26.92,14.14,27.3Z" fill="#a7bfee" opacity="0.58" style="mix-blend-mode: multiply"/>
          <path d="M39.63,2.42a.63.63,0,0,1-.64.63H2.34a.63.63,0,0,1-.63-.63.47.47,0,0,1,.05-.24.62.62,0,0,1,.58-.4H39a.62.62,0,0,1,.59.4A.47.47,0,0,1,39.63,2.42Z" fill="#9b836d"/>
          <path d="M39.63,2.42a.63.63,0,0,1-.64.63H2.34a.63.63,0,0,1-.63-.63.47.47,0,0,1,.05-.24.62.62,0,0,0,.58.39H39a.63.63,0,0,0,.59-.39A.47.47,0,0,1,39.63,2.42Z" fill="#9b836d" opacity="0.2" style="mix-blend-mode: multiply"/>
          <rect x="4.53" y="21.25" width="27.36" height="3.1" fill="#a7bfee" opacity="0.72" style="mix-blend-mode: multiply"/>
          <rect x="4.53" y="25.25" width="23.85" height="0.72" fill="#a7bfee" opacity="0.72" style="mix-blend-mode: multiply"/>
          <g>
            <path d="M9.63,40.69A2.34,2.34,0,0,1,7.3,38.38s0-1.78,0-2L7.2,30.53C7.05,17.77,7,9.5,7,5.24v-.4c0-.76,0-2.18-.38-2.59a.3.3,0,0,0-.24-.09V.72H34.65l.14,0A3.16,3.16,0,0,1,37.17,4V38.35a2.34,2.34,0,0,1-2.34,2.34Z" fill="#a7bfee"/>
            <path d="M6.36,1.44H34.65A2.44,2.44,0,0,1,36.45,4V38.35A1.63,1.63,0,0,1,34.83,40H9.63A1.61,1.61,0,0,1,8,38.37c0-.33,0-.7,0-1.12v-.2c0-.23,0-.47,0-.72,0-.66,0-1.39,0-2.18,0-1.1,0-2.33,0-3.63-.1-8.27-.23-19.79-.23-25.28,0-1.23.21-3.8-1.33-3.8M6.36,0V2.88a.41.41,0,0,1-.29-.15,6.37,6.37,0,0,1,.19,2.1c0,.15,0,.29,0,.41,0,4.21.08,12.49.23,25.29,0,.95,0,1.84,0,2.69v1.31c0,.65,0,1.25,0,1.81v.06c0,.23,0,.44,0,.65v.2l0,1.14a3.06,3.06,0,0,0,3.05,3h25.2a3.06,3.06,0,0,0,3.06-3.06V4a3.89,3.89,0,0,0-3-4,1.33,1.33,0,0,0-.28,0H6.36Z" fill="#5576b4"/>
          </g>
          <path d="M36.45,32.61V35.7H8c0-.87,0-1.91,0-3.09Z" fill="#5576b4"/>
          <path d="M36.45,36.33H8c0,.25,0,.49,0,.72H36.45Z" fill="#5576b4"/>
          <path d="M2.68,2.42A1.33,1.33,0,0,1,1.34,3.75a1.15,1.15,0,0,1-.33,0A1.33,1.33,0,0,1,0,2.42a1.35,1.35,0,0,1,1-1.3,1.15,1.15,0,0,1,.33,0A1.34,1.34,0,0,1,2.68,2.42Z" fill="#776457"/>
          <path d="M2.68,2.42A1.33,1.33,0,0,1,1.34,3.75a1.15,1.15,0,0,1-.33,0A1.34,1.34,0,0,0,1,1.12a1.15,1.15,0,0,1,.33,0A1.34,1.34,0,0,1,2.68,2.42Z" fill="#776457" opacity="0.2" style="mix-blend-mode: multiply"/>
          <path d="M19.31,15.19S20,7.63,22.47,9.42s2,6.13,2,6.13,3.55-1,5.32,0-1.11,4.35-3.89,4.19c0,0,2.3,2.65,1.33,5.18s-5.34-2.46-5.34-2.46-2.42,4.25-4.18,3.44-.34-5.52-.34-5.52S13,18.73,13.48,17C14.36,13.69,19.31,15.19,19.31,15.19Z" fill="#ffeb81" stroke="#ffaa5a" stroke-miterlimit="10" stroke-width="0.96"/>
        </g>
      </g>
    </g>
  </g>
</svg>
