<svg xmlns="http://www.w3.org/2000/svg" xmlns:xlink="http://www.w3.org/1999/xlink" width="41.37" height="41.5" viewBox="0 0 41.37 41.5">
  <defs>
    <clipPath id="clip-path">
      <path d="M36.29,14.49a.19.19,0,0,0,0-.08s0,0,0-.06v0a.28.28,0,0,0,0-.09,0,0,0,0,0,0,0l0-.09v0a.08.08,0,0,1,0,0l0,0a.21.21,0,0,0,0-.06l0,0v0l-.1-.11L32,9.86a4.67,4.67,0,0,0-2.46-.64l-.46,0H12.43l-.47,0a4.7,4.7,0,0,0-2.46.64l-4,3.93-.1.12h0l0,0a.75.75,0,0,0-.07.12l0,0,0,.09s0,0,0,0a.28.28,0,0,0,0,.09.07.07,0,0,0,0,0,.13.13,0,0,0,0,.06.11.11,0,0,0,0,.08s0,0,0,0c.22.39,1,.67,2.33.67H34c1.27,0,2.1-.28,2.32-.67Z" fill="none"/>
    </clipPath>
  </defs>
  <g style="isolation: isolate">
    <g id="Layer_2" data-name="Layer 2">
      <g id="Layer_2-2" data-name="Layer 2">
        <g id="cat_clean_3" data-name="cat_clean 3">
          <g>
            <path d="M40.57,34.93c.57-.68-5.23-6-5.49-6.55-.49-.53-2.15-.93-3.74-.93l-.14-.73H26.62l-.44.73H15.39l-.31-.31H9.85s-.12.32-.27.33a5.73,5.73,0,0,0-3.29.92L1.11,34a2,2,0,0,0-.27.39,34.55,34.55,0,0,0,0,3.94c-.49,2,1.06,2.52,3,2.47H37.56a8.77,8.77,0,0,0,1-.06c2.17-.28,2.12-1.07,2-2.42Q40.64,36.63,40.57,34.93Z" fill="#af7553" stroke="#6a3417" stroke-miterlimit="10" stroke-width="1.44"/>
            <path d="M38.52,35.92h.07c1.78-.22,2.51-1,1.67-1.94l-5.18-5.59c-.49-.53-2.15-.93-3.74-.93l-.14-.73H26.62l-.44.73H15.39l-.31-.31H9.85s-.12.32-.27.33a5.73,5.73,0,0,0-3.29.92L1.11,34a2,2,0,0,0-.27.39c-.25.58.14,1.08,1,1.36A6.48,6.48,0,0,0,3.82,36H38.15Z" fill="#ddab88" stroke="#6a3417" stroke-miterlimit="10" stroke-width="1.44"/>
          </g>
          <g>
            <path d="M7.5,32c-2.48,0-5-8.12-5.37-10.92a.19.19,0,0,0,0-.07A1.71,1.71,0,0,1,.9,19.65c0-.25-.07-.78-.07-1.27a2.12,2.12,0,0,1,.27-1.3,1,1,0,0,1,.1-.17l.17-.22a10.18,10.18,0,0,1,1-3.06.52.52,0,0,1,.11-.1L6,11.13l.17-1a.65.65,0,0,1-.23-.37C5.34,7.32,7.24,2.79,7.63,1.91a2,2,0,0,1,3.11-.72,25.4,25.4,0,0,1,5.55,6.38.74.74,0,0,1,.1.52h8.73a.74.74,0,0,1,.1-.52,25.6,25.6,0,0,1,5.55-6.38A2,2,0,0,1,32.05.72a2,2,0,0,1,1.83,1.19c.39.88,2.29,5.41,1.73,7.82a.68.68,0,0,1-.29.42l.22,1,3.55,2.48a.31.31,0,0,1,.11.09,10.33,10.33,0,0,1,.95,3l.15.19a.86.86,0,0,1,.13.23.15.15,0,0,1,0,.06,1.12,1.12,0,0,1,.05.13,1.17,1.17,0,0,1,.06.2.59.59,0,0,1,0,.14,1.11,1.11,0,0,1,0,.19.32.32,0,0,1,0,.08,9.85,9.85,0,0,1,0,1.85,1.79,1.79,0,0,1-1.22,1.29l0,.14C39,23.93,36.46,32,34,32Z" fill="#335394"/>
            <path d="M32.05,1.44a1.26,1.26,0,0,1,1.17.76c1,2.33,2.08,5.67,1.69,7.36l-.48-.08.46,2,.13.14,3.66,2.56a13.33,13.33,0,0,1,.76,2.62.9.9,0,0,1,0,.16l.16.16.15.19h0a.54.54,0,0,1,.06.11l0,0,0,.07,0,.11a.17.17,0,0,1,0,.07s0,.06,0,.1,0,.05,0,.07h0a9.58,9.58,0,0,1,0,1.73c-.07.38-.48.69-1.15.88a2.53,2.53,0,0,1-.09.5c-.51,3.47-3,10.3-4.64,10.3H7.5c-1.6,0-4.16-6.86-4.66-10.31a3.54,3.54,0,0,1-.08-.49c-.7-.21-1.11-.54-1.15-.94,0-.13-.06-.69-.06-1.2a1.66,1.66,0,0,1,.14-.88l0,0a.79.79,0,0,1,.08-.16l.15-.19L2.1,17a.53.53,0,0,1,0-.12,12.74,12.74,0,0,1,.8-2.73l3.64-2.5.11-.13L7,9.5l-.36.06c-.39-1.69.67-5,1.69-7.36a1.27,1.27,0,0,1,1.17-.76,1.32,1.32,0,0,1,.82.3A24.81,24.81,0,0,1,15.68,8l-.5.09a5,5,0,0,1,.57.76h9.74l.83-.76L25.83,8a24.81,24.81,0,0,1,5.4-6.22,1.32,1.32,0,0,1,.82-.3m0-1.44a2.73,2.73,0,0,0-1.74.64,26,26,0,0,0-5.7,6.55l-.1.18H17a1.62,1.62,0,0,0-.1-.18A26,26,0,0,0,11.2.64,2.71,2.71,0,0,0,7,1.62C6.41,2.91,4.61,7.33,5.2,9.89a1.35,1.35,0,0,0,.16.41l-.06.4L2.05,12.94a1.3,1.3,0,0,0-.22.19A8.91,8.91,0,0,0,.7,16.37l-.09.13a1.51,1.51,0,0,0-.12.2,2.84,2.84,0,0,0-.38,1.68c0,.54.05,1.11.07,1.3a2.35,2.35,0,0,0,1.29,1.86c.43,2.18,2.76,11.22,6,11.22H34c3.3,0,5.59-9,6-11.21a2.38,2.38,0,0,0,1.29-1.65,11.09,11.09,0,0,0,0-2v-.05a2.64,2.64,0,0,0,0-.28,2,2,0,0,0,0-.24c0-.08-.05-.17-.08-.26a1,1,0,0,0-.08-.2l0-.1a1.61,1.61,0,0,0-.19-.31l-.07-.1a8.51,8.51,0,0,0-1.09-3.18,1.9,1.9,0,0,0-.21-.19l-3.33-2.31-.07-.33a1.52,1.52,0,0,0,.2-.47c.6-2.56-1.2-7-1.77-8.27A2.72,2.72,0,0,0,32.05,0Z" fill="#5576b4"/>
          </g>
          <path d="M34,31.32H7.5c-2,0-5.41-10.46-4.63-12L9.45,20a3.44,3.44,0,0,1,2.94-1.38H29.13A3.42,3.42,0,0,1,32.06,20l6.58-.78C39.41,20.83,36,31.32,34,31.32Z" fill="#5576b4"/>
          <path d="M32.06,20.45a4.48,4.48,0,0,0-2.93-.83H12.39a4.52,4.52,0,0,0-2.94.83L2.87,20c-.31.38,0,1.6.73,2.94a6.91,6.91,0,0,0,.95.06H37A8.7,8.7,0,0,0,37.9,23c.68-1.35,1.05-2.59.74-3Z" fill="#7e8390" opacity="0.3" style="mix-blend-mode: multiply"/>
          <g>
            <path d="M4.55,21.22c-2,0-3.33-.6-3.41-1.6,0-.24-.07-.76-.07-1.24,0-.66.08-1,.27-1.21l5.3-4h0l.08-.08.15-.1a1,1,0,0,1,.2-.12l.19-.1.19-.08.29-.1.3-.09.34-.08.26-.06L9,12.28l.14.46v-.48a9.35,9.35,0,0,1,1.42-.1H31c1.48,0,3.31.35,3.95,1L40,17c.57.59.35,2.76.35,2.78-.13.74-1,1.24-2.3,1.42l-.35,0-.43,0H4.55Z" fill="#a7bfee"/>
            <path d="M31,12.64c1.53,0,3.13.38,3.6.88l5.14,3.81a6.08,6.08,0,0,1,.16,2.31c-.09.5-.77.89-1.89,1h-.09l-.12,0H4.55c-1.8,0-2.88-.49-2.94-1.16,0-.13-.06-.69-.06-1.2h0a1.66,1.66,0,0,1,.14-.88l5.24-4h0A.24.24,0,0,1,7,13.44l0,0,.08-.06,0,0a.41.41,0,0,1,.11-.07h0l.15-.07.06,0,.11,0,.07,0,.12,0,.11,0,.14,0,.1,0,.1,0,.12,0,.09,0,.25-.06h.07l.14,0,.09,0,.15,0h.09a10.26,10.26,0,0,1,1.26-.08H31m0-1H10.52a11,11,0,0,0-1.39.09H9l-.16,0-.09,0-.16,0H8.56l-.3.06-.1,0L8,12l-.11,0-.12,0-.16.05-.13,0-.14,0-.09,0-.14.06-.07,0-.2.1,0,0-.16.09,0,0-.15.11,0,0-.11.1L1.11,16.73,1,16.84a2.16,2.16,0,0,0-.4,1.54c0,.52.05,1.08.07,1.26.11,1.3,1.56,2.06,3.89,2.06H37.34v-1l.06,1h.31l.17,0h.22c2.14-.28,2.63-1.26,2.73-1.81,0,0,.29-2.4-.4-3.14a.74.74,0,0,0-.13-.12l-5.09-3.77c-.92-.88-3.07-1.11-4.22-1.11Z" fill="#5576b4"/>
          </g>
          <g>
            <path d="M4.55,19.51c-2.06,0-3.37-.62-3.42-1.63a1.35,1.35,0,0,1,.27-.83,2,2,0,0,1,.19-.24l5-5.32c.64-.68,2.47-1,3.95-1H31a7.68,7.68,0,0,1,3.63.78,1.72,1.72,0,0,1,.32.26l5,5.32a1.92,1.92,0,0,1,.19.23,1.43,1.43,0,0,1,.14.25.42.42,0,0,1,0,.1.85.85,0,0,1,.06.17.43.43,0,0,0,0,.11c0,.06,0,.11,0,.17a.68.68,0,0,1,0,.14.78.78,0,0,1,0,.14l0,.11-.07.15-.08.13-.08.1-.11.11-.09.08-.12.09-.11.07L39.5,19l-.28.12-.31.11-.33.09-.37.07-.39,0c-.33,0-.58,0-.85,0Z" fill="#e6deff"/>
            <path d="M31,10.93a7.37,7.37,0,0,1,3.37.7,1.11,1.11,0,0,1,.23.19l5,5.31.15.19,0,.05a.75.75,0,0,1,.07.12l0,.07,0,.11a.17.17,0,0,1,0,.07s0,.06,0,.1,0,.05,0,.07a.29.29,0,0,1,0,.09.19.19,0,0,1,0,.07s0,.05,0,.08l-.05.07a.18.18,0,0,1,0,.07l-.07.07-.07.07-.09.06-.09.06-.11.06-.1.05-.14.06-.1,0-.17,0-.11,0-.19.05-.12,0-.21,0L38,19l-.26,0h-.08q-.34,0-.72,0H4.55c-1.82,0-2.9-.5-2.94-1.18a.93.93,0,0,1,.18-.53l.15-.19,5-5.31c.46-.5,2.06-.89,3.59-.89H31m0-1H10.52c-1.18,0-3.42.25-4.3,1.19l-5,5.32L1,16.77A2,2,0,0,0,.65,17.9C.72,19.21,2.17,20,4.55,20H37l.8,0h.09l.29,0,.13,0,.26,0,.14,0,.23-.06.14,0,.2-.07.14-.05.19-.08.14-.07.17-.09.13-.09a.58.58,0,0,0,.15-.11l.13-.11.13-.14a.76.76,0,0,0,.11-.14l.11-.16a1.42,1.42,0,0,0,.08-.18c0-.07.05-.13.07-.19a1.18,1.18,0,0,0,0-.2,1.68,1.68,0,0,0,0-.2,1.49,1.49,0,0,0,0-.21,1.11,1.11,0,0,0,0-.19,1.72,1.72,0,0,0-.07-.21l-.06-.15a1,1,0,0,0-.13-.22.41.41,0,0,0-.06-.11,1.89,1.89,0,0,0-.23-.28l-5-5.32a2.39,2.39,0,0,0-.41-.34A8.38,8.38,0,0,0,31,10Z" fill="#5576b4"/>
          </g>
          <g>
            <path d="M36.65,16.49a.48.48,0,0,1-.46-.35.47.47,0,0,1,.32-.58c.47-.15.64-.33.66-.41s0-.19-.16-.32L32.55,10a5.28,5.28,0,0,0-2.87-.64H11.34a7.8,7.8,0,0,0-2,.27l-.14,0A.48.48,0,0,1,9,8.72a8.53,8.53,0,0,1,2.58-.39H29.93c1.33,0,3,.33,3.57.95L38,14.1a1.29,1.29,0,0,1,.38,1.27c-.12.37-.48.86-1.58,1.11Z" fill="#e6deff"/>
            <path d="M29.93,8.81a5.46,5.46,0,0,1,3.22.8l4.46,4.82c.63.69.22,1.32-1,1.58,1-.29,1.3-.87.71-1.51L32.9,9.69a5.38,5.38,0,0,0-3.22-.8H11.34a8.16,8.16,0,0,0-2.18.29,7.69,7.69,0,0,1,2.42-.37H29.93m0-1H11.58a8.64,8.64,0,0,0-2.73.42,1,1,0,0,0,.31,1.87,1.26,1.26,0,0,0,.27,0,7.23,7.23,0,0,1,1.91-.25H29.68a5.36,5.36,0,0,1,2.53.5L36.54,15l-.17.06A1,1,0,0,0,36.65,17a.86.86,0,0,0,.22,0c1.32-.3,1.77-.95,1.92-1.44a1.69,1.69,0,0,0-.48-1.73L33.85,9C33,8.08,31,7.85,29.93,7.85Z" fill="#5576b4"/>
          </g>
          <path d="M38.68,14.19,34.25,11.1a6,6,0,0,0-3.5-.84h-20a6,6,0,0,0-3.5.84l-4.39,3a12.74,12.74,0,0,0-.8,2.73C2.09,17.5,3.15,18,4.94,18H36.58c1.82,0,2.88-.51,2.86-1.18A13.33,13.33,0,0,0,38.68,14.19Z" fill="#a7bfee"/>
          <g>
            <path d="M6.23,16.63a6,6,0,0,1-1.81-.24,1.84,1.84,0,0,1-1.2-.89,1.12,1.12,0,0,1,0-.93,1.87,1.87,0,0,1,.32-.47l2.62-2.83.37-2.18a.46.46,0,0,1,.12-.24c.59-.64,7.1-1.58,8.08-1.58.38,0,.81.36,1.27,1.06H25.3l.82-.75a.5.5,0,0,1,.32-.13h0c7.63.55,8,1,8.18,1.14a.39.39,0,0,1,.11.22l.56,2.44L38,14.1a1.26,1.26,0,0,1,.36,1.32c-.22.6-1,1-2.1,1.15a3.58,3.58,0,0,1-.4,0c-.24,0-.39,0-.54,0Z" fill="#e6deff"/>
            <path d="M14.74,7.75c.36,0,1,1.06,1,1.06h9.74l1-.88s7.45.54,7.87,1l.58,2.56,2.72,2.94c.71.78.09,1.48-1.45,1.67h0l-.32,0H6.23a5.91,5.91,0,0,1-1.67-.21c-.77-.25-1.11-.68-.89-1.17a1.36,1.36,0,0,1,.23-.34l2.72-2.94L7,9.17c.38-.41,6.43-1.41,7.73-1.42h0m0-1h0c-.71,0-7.62.85-8.43,1.73A.94.94,0,0,0,6.07,9l-.35,2L3.2,13.78a2.37,2.37,0,0,0-.4.59,1.6,1.6,0,0,0,0,1.32,2.27,2.27,0,0,0,1.49,1.16,6.7,6.7,0,0,0,2,.26h29.6l.38,0h.06c1.7-.21,2.3-.91,2.5-1.46a1.75,1.75,0,0,0-.46-1.81L35.77,11l-.53-2.31A1,1,0,0,0,35,8.28c-.27-.3-.68-.74-8.5-1.3h-.07a.92.92,0,0,0-.64.26l-.69.62H16.27C15.5,6.79,15,6.79,14.74,6.79Z" fill="#5576b4"/>
          </g>
          <path d="M36.29,14.49a.19.19,0,0,0,0-.08s0,0,0-.06v0a.28.28,0,0,0,0-.09,0,0,0,0,0,0,0l0-.09v0a.08.08,0,0,1,0,0l0,0a.21.21,0,0,0,0-.06l0,0v0l-.1-.11L32,9.86a4.67,4.67,0,0,0-2.46-.64l-.46,0H12.43l-.47,0a4.7,4.7,0,0,0-2.46.64l-4,3.93-.1.12h0l0,0a.75.75,0,0,0-.07.12l0,0,0,.09s0,0,0,0a.28.28,0,0,0,0,.09.07.07,0,0,0,0,0,.13.13,0,0,0,0,.06.11.11,0,0,0,0,.08s0,0,0,0c.22.39,1,.67,2.33.67H34c1.27,0,2.1-.28,2.32-.67Z" fill="#5576b4"/>
          <g clip-path="url(#clip-path)">
            <g>
              <path d="M7.57,15.92a8.94,8.94,0,0,1-1-.06.71.71,0,0,1-.56-.41.7.7,0,0,1,.05-.7,2.62,2.62,0,0,1,2-1.29l.12-.14a4.15,4.15,0,0,1,1.44-1.18,4.3,4.3,0,0,1,2-.56,8.2,8.2,0,0,1,.91.07,2.07,2.07,0,0,0,.35,0,9.38,9.38,0,0,0,2.2-.41l.47-.13a3.87,3.87,0,0,1,.95-.12,7.84,7.84,0,0,1,1.25.14,12.35,12.35,0,0,0,1.39.19c.42,0,.75.05,1,.05a4.92,4.92,0,0,0,1.63-.3l.17,0a7.92,7.92,0,0,1,2.26-.33,7.2,7.2,0,0,1,2.18.33l.18.06a5,5,0,0,0,1.68.37,6.65,6.65,0,0,0,1.16-.12,10.12,10.12,0,0,1,1.41-.17,2.47,2.47,0,0,1,1.46.52,2.92,2.92,0,0,1,1.07,1,4.17,4.17,0,0,0,.74.9,2.6,2.6,0,0,0,.87.5,3.46,3.46,0,0,1,.61.3.72.72,0,0,1,.35.73.74.74,0,0,1-.56.59,7.16,7.16,0,0,1-1.46.14Z" fill="#ffd387"/>
              <path d="M24.26,11.44a6.4,6.4,0,0,1,2,.3,6.3,6.3,0,0,0,2.08.46,7.85,7.85,0,0,0,1.28-.13,9.61,9.61,0,0,1,1.29-.16,1.92,1.92,0,0,1,1.16.46c.84.52.58.83,1.61,1.81a6.43,6.43,0,0,0,1.61.89,5.93,5.93,0,0,1-1.3.13H7.57a5.61,5.61,0,0,1-.86-.06,1.9,1.9,0,0,1,1.47-1h.09c.37,0,.63-.88,1.69-1.4a3.59,3.59,0,0,1,1.7-.48,6.8,6.8,0,0,1,.82.07,3.15,3.15,0,0,0,.44,0,12.18,12.18,0,0,0,2.85-.56,3.13,3.13,0,0,1,.77-.1c.71,0,1.37.23,2.58.33.45,0,.79,0,1.08,0a5.86,5.86,0,0,0,2-.38,7.17,7.17,0,0,1,2.06-.3m0-1.44h0a8.68,8.68,0,0,0-2.47.36l-.17.05a4.09,4.09,0,0,1-1.42.27c-.24,0-.54,0-1,0s-.93-.12-1.33-.19a7.56,7.56,0,0,0-1.37-.15,4.86,4.86,0,0,0-1.13.14l-.48.13a8.64,8.64,0,0,1-2,.39l-.25,0a8.1,8.1,0,0,0-1-.08,5,5,0,0,0-2.33.63,4.87,4.87,0,0,0-1.61,1.29A3.48,3.48,0,0,0,5.5,14.36a1.44,1.44,0,0,0,1,2.21,7.57,7.57,0,0,0,1,.07H34a7.35,7.35,0,0,0,1.62-.16,1.45,1.45,0,0,0,1.11-1.18A1.44,1.44,0,0,0,36,13.84a4.54,4.54,0,0,0-.71-.34,2,2,0,0,1-.64-.36,3.41,3.41,0,0,1-.63-.76,3.46,3.46,0,0,0-1.22-1.24l-.08-.05a3.18,3.18,0,0,0-1.84-.62,9.51,9.51,0,0,0-1.52.18,6.5,6.5,0,0,1-1.05.11,4.46,4.46,0,0,1-1.46-.34l-.17-.05A7.78,7.78,0,0,0,24.26,10Z" fill="#ce894a"/>
            </g>
          </g>
          <g>
            <g>
              <path d="M20.69,29.46a1.66,1.66,0,0,1-.32,0A1.66,1.66,0,0,0,20.69,29.46Z" fill="#fff"/>
              <path d="M20.81,26.94a.46.46,0,0,0,.21-.11c.1-.13.12-.36.26-.44s.19,0,.28,0a.39.39,0,0,0,.24-.15c.17-.19.26-.51.08-.67a1.87,1.87,0,0,0-2.25,0c-.18.15-.1.46.05.65a.45.45,0,0,0,.26.17c.1,0,.2,0,.29,0s.15.31.25.44a.55.55,0,0,0,.18.11Z" fill="#fff"/>
              <path d="M19.21,28.17A2.5,2.5,0,0,1,18.4,28a1.1,1.1,0,0,1-.71-1.74.25.25,0,1,1,.43.25.8.8,0,0,0-.14.53c.06.3.46.45.57.49a2,2,0,0,0,.9.09h.06a1.86,1.86,0,0,0,1-.55.23.23,0,0,1,.2-.11h0a.23.23,0,0,1,.2.11,1.86,1.86,0,0,0,1.05.55h.05a2,2,0,0,0,.9-.09c.12,0,.51-.19.57-.49a.74.74,0,0,0-.14-.53.27.27,0,0,1,.09-.34.25.25,0,0,1,.34.09,1.19,1.19,0,0,1,.19.88,1.23,1.23,0,0,1-.9.86,2.48,2.48,0,0,1-1.18.1h-.05a2.58,2.58,0,0,1-1.12-.52,2.47,2.47,0,0,1-1.12.52h-.05A2.22,2.22,0,0,1,19.21,28.17Z" fill="#fff"/>
            </g>
            <g>
              <path d="M25,24a1.14,1.14,0,0,0-.84-.75,1.08,1.08,0,0,0-.31,0,.87.87,0,0,0-.3.07c-.51.22-1,.82-.6,1.31a1.35,1.35,0,0,0,.72.4,1.52,1.52,0,0,0,.82,0l.14-.05A.75.75,0,0,0,25,24Z" fill="#fff"/>
              <path d="M18.57,23.91a1.38,1.38,0,0,0-.66-.6.82.82,0,0,0-.3-.07,1,1,0,0,0-.3,0,1.14,1.14,0,0,0-.85.75.76.76,0,0,0,.38.94L17,25a.38.38,0,0,0,.1,0,1.64,1.64,0,0,0,.73,0,1.33,1.33,0,0,0,.71-.4A.64.64,0,0,0,18.57,23.91Z" fill="#fff"/>
            </g>
          </g>
          <g>
            <path d="M15.68,8a24.81,24.81,0,0,0-5.4-6.22,1.27,1.27,0,0,0-2,.46c-1,2.33-2.08,5.67-1.69,7.36" fill="#e6deff" stroke="#5576b4" stroke-linecap="round" stroke-linejoin="round" stroke-width="0.96"/>
            <path d="M25.83,8a24.81,24.81,0,0,1,5.4-6.22,1.27,1.27,0,0,1,2,.46c1,2.33,2.08,5.67,1.69,7.36" fill="#e6deff" stroke="#5576b4" stroke-linecap="round" stroke-linejoin="round" stroke-width="0.96"/>
          </g>
        </g>
      </g>
    </g>
  </g>
</svg>
