<svg xmlns="http://www.w3.org/2000/svg" width="460.74" height="65.02" viewBox="0 0 460.74 65.02">
  <g id="Layer_2" data-name="Layer 2">
    <g id="Layer_1-2" data-name="Layer 1">
      <g id="na_wave">
        <path d="M295,43.76c-1.2-2.92-4.29-2.63-7-1.6l-1.9-.37s0,0,0,0a10.67,10.67,0,0,0-2.24-1.37c-.24-.24-.47-.45-.58-.58a19.2,19.2,0,0,0-2.51-2.51c-1.57-1.23-3.43-.91-5.24-.44a11.38,11.38,0,0,0-3.87,2c-2.47-.51-5-1-7.43-1.55-4.09-.89-10-2.27-13.81.5-.66.48-1.35,1.07-2,1.6-2.25-1.58-6-.89-7.67.87-.51-.17-1-.32-1.51-.5-6.72-5.28-19.94-6.27-23.1,2.18-2.4-3-6.64-2.69-10.18-.8,1-6.5-7.9-10-14.75-7.34,3.75-8.38-8.66-9.75-15.92-8.86-1.06-1.55-3.52-2.16-6.16-2-4.16-2.85-11.78-2.72-16.42-1.89A36.37,36.37,0,0,0,137,27.82c-2.45-4.85-8.88-6.86-15.26-6.94a11.72,11.72,0,0,0-.44-2.9c-1.8-6.13-8.41-8.08-14-8.42C95.14,8.81,80.4,18,75.75,29.26a15.7,15.7,0,0,0-1,3.54,10.24,10.24,0,0,0-4.8-1c-3,.19-5.38,2.39-7,4.77a8.56,8.56,0,0,0-1.08,6.84,3.54,3.54,0,0,0,.24,1,4.14,4.14,0,0,0,.39.65,6.49,6.49,0,0,0,1.13,1.61c4.06,4,9.65.53,12.77-2.89a10.14,10.14,0,0,0,1-1.19,15.61,15.61,0,0,0,9.37,5.08,24.13,24.13,0,0,0,14.45-2.38A20.16,20.16,0,0,0,108,52.5c6.67,4.21,16.26,2.19,23.21-.18a38.35,38.35,0,0,0,8.25-3.94,9,9,0,0,0,.86.78,8,8,0,0,0,8.1.58,8.12,8.12,0,0,0,1.47-.89c2.9,1.21,6.37,1.23,10.76-.09a43.76,43.76,0,0,0,5.53-2.13A7.74,7.74,0,0,0,174,52.42a23.61,23.61,0,0,0,12.52-4.56l.53-.41a24.48,24.48,0,0,0,8.15,2.73,19.16,19.16,0,0,0,15-4.6c6.37,7.82,18.77,7.94,25.17,1a18.21,18.21,0,0,0,13.27,1.5c1.41-.34,2.8-.76,4.2-1.18,2,4.14,10.45,1.94,14.7-.47,3.66,1.73,7.85,4.24,11.06.28.85-1.06,3.87.75,5,1.17a12.17,12.17,0,0,0,5.24.36C290.51,48.07,296.1,46.49,295,43.76Z" fill="#fff"/>
        <path d="M227.31,46.88c.86-2.11,3.09-1.91,5-1.16.46-.09.91-.19,1.37-.27h0a6.75,6.75,0,0,1,1.62-1c.18-.17.33-.32.42-.42a14.74,14.74,0,0,1,1.81-1.81c1.13-.88,2.48-.66,3.78-.31a8,8,0,0,1,2.79,1.46q2.7-.54,5.36-1.12c3-.64,7.26-1.63,10,.36.48.35,1,.79,1.49,1.16a4.7,4.7,0,0,1,5.54.63L267.6,44c4.84-3.81,14.38-4.53,16.66,1.57,1.73-2.14,4.8-1.94,7.36-.58-.72-4.69,5.69-7.2,10.64-5.29-2.71-6,6.25-7,11.49-6.4.76-1.11,2.53-1.56,4.44-1.42,3-2.06,8.5-2,11.85-1.37a26.5,26.5,0,0,1,11.28,4.83c1.75-3.51,6.4-5,11-5a8.32,8.32,0,0,1,.31-2.09c1.3-4.43,6.08-5.84,10.13-6.09,8.77-.53,19.4,6.11,22.76,14.22a11.28,11.28,0,0,1,.73,2.58,7.61,7.61,0,0,1,3.47-.73c2.18.14,3.88,1.74,5.06,3.45a6.24,6.24,0,0,1,.79,4.95,2.61,2.61,0,0,1-.19.7,2.64,2.64,0,0,1-.27.46,4.93,4.93,0,0,1-.81,1.16c-2.95,2.93-7,.38-9.23-2.07a7.5,7.5,0,0,1-.69-.88,11.25,11.25,0,0,1-6.76,3.67A17.44,17.44,0,0,1,367.2,48a14.62,14.62,0,0,1-4.91,5.2c-4.81,3-11.74,1.57-16.75-.12a28.13,28.13,0,0,1-6-2.85c-.21.2-.41.38-.62.56a5.73,5.73,0,0,1-5.84.42,6.43,6.43,0,0,1-1.07-.64c-2.1.87-4.6.87-7.76-.06a34.71,34.71,0,0,1-4-1.54,5.57,5.57,0,0,1-5.68,4.17,17,17,0,0,1-9-3.29l-.38-.3a17.69,17.69,0,0,1-5.88,2,13.81,13.81,0,0,1-10.86-3.33c-4.59,5.65-13.55,5.74-18.17.71A13.1,13.1,0,0,1,260.71,50c-1-.25-2-.54-3-.85-1.47,3-7.55,1.39-10.6-.33-2.65,1.24-5.68,3.05-8,.2-.63-.78-2.81.54-3.64.84a8.47,8.47,0,0,1-3.78.26C230.54,50,226.5,48.84,227.31,46.88Z" fill="#fff"/>
        <path d="M323.32,49.77c-1.63-4-5.85-3.59-9.51-2.18l-2.6-.51a0,0,0,0,0,0,0,13.49,13.49,0,0,0-3.06-1.88c-.33-.32-.64-.61-.79-.79A25.78,25.78,0,0,0,303.9,41c-2.14-1.66-4.67-1.24-7.13-.59a15.43,15.43,0,0,0-5.28,2.77c-3.38-.7-6.77-1.38-10.13-2.12-5.59-1.21-13.71-3.08-18.84.68-.89.67-1.83,1.48-2.8,2.2-3.06-2.17-8.16-1.22-10.45,1.16-.69-.2-1.37-.42-2.06-.65-9.15-7.2-27.18-8.56-31.48,3-3.27-4-9.07-3.68-13.89-1.11,1.36-8.85-10.77-13.57-20.11-10C186.86,24.85,169.92,23,160,24.2c-1.44-2.12-4.8-2.95-8.39-2.7-5.68-3.89-16.07-3.71-22.39-2.57A49.61,49.61,0,0,0,108,28c-3.34-6.61-12.1-9.37-20.8-9.47a15.61,15.61,0,0,0-.61-3.93c-2.45-8.38-11.46-11-19.13-11.5-16.56-1-36.66,11.53-43,26.87a21.25,21.25,0,0,0-1.38,4.83,14.13,14.13,0,0,0-6.54-1.34c-4.14.26-7.34,3.27-9.57,6.5a11.73,11.73,0,0,0-1.48,9.35,4.16,4.16,0,0,0,.34,1.3,5.18,5.18,0,0,0,.52.9,8.53,8.53,0,0,0,1.54,2.18c5.54,5.54,13.17.73,17.43-3.93a14.73,14.73,0,0,0,1.29-1.63A21.32,21.32,0,0,0,39.36,55.1c6.44,1.14,13.45-.21,19.69-3.24a28,28,0,0,0,9.28,9.84c9.1,5.73,22.19,3,31.66-.25a51.78,51.78,0,0,0,11.23-5.38,10.65,10.65,0,0,0,1.19,1c3.17,2.48,7.52,2.37,11,.8a11.7,11.7,0,0,0,2-1.21c3.94,1.64,8.67,1.66,14.65-.12a58.19,58.19,0,0,0,7.55-2.91,10.51,10.51,0,0,0,10.73,7.88,31.9,31.9,0,0,0,17.07-6.21l.73-.54a33.7,33.7,0,0,0,11.12,3.71,26.15,26.15,0,0,0,20.5-6.27c8.68,10.66,25.58,10.82,34.31,1.34a24.85,24.85,0,0,0,18.09,2c1.93-.47,3.83-1,5.73-1.59,2.79,5.64,14.26,2.63,20-.65,5,2.36,10.73,5.79,15.1.37,1.17-1.45,5.28,1,6.86,1.6a16.41,16.41,0,0,0,7.14.5C317.22,55.65,324.84,53.5,323.32,49.77Z" fill="#d7f0fc"/>
        <path d="M231.06,54c1.17-2.88,4.21-2.6,6.86-1.58l1.87-.38h0A10.09,10.09,0,0,1,242,50.69c.23-.23.45-.44.56-.57a19.87,19.87,0,0,1,2.47-2.47c1.55-1.2,3.38-.89,5.15-.44a11.47,11.47,0,0,1,3.82,2c2.44-.51,4.88-1,7.32-1.52,4-.88,9.87-2.24,13.58.48.65.48,1.32,1.07,2,1.58,2.21-1.56,5.89-.88,7.55.86l1.49-.49c6.6-5.2,19.6-6.17,22.71,2.14,2.37-2.91,6.55-2.66,10-.79-1-6.4,7.78-9.8,14.52-7.22-3.71-8.24,8.51-9.59,15.66-8.71,1-1.53,3.46-2.14,6-2,4.1-2.8,11.6-2.67,16.16-1.85a35.67,35.67,0,0,1,15.37,6.58c2.4-4.77,8.73-6.77,15-6.84a11.71,11.71,0,0,1,.43-2.84c1.78-6,8.28-7.95,13.82-8.3,11.94-.72,26.46,8.34,31,19.39a14.74,14.74,0,0,1,1,3.49,10.19,10.19,0,0,1,4.73-1c3,.19,5.3,2.36,6.91,4.69a8.46,8.46,0,0,1,1.06,6.75,3.32,3.32,0,0,1-.23.94,6.56,6.56,0,0,1-.38.65,7,7,0,0,1-1.12,1.58c-4,4-9.5.51-12.57-2.84a11.06,11.06,0,0,1-.94-1.18,15.33,15.33,0,0,1-9.22,5,23.64,23.64,0,0,1-14.23-2.33,19.8,19.8,0,0,1-6.68,7.1c-6.57,4.14-16,2.14-22.85-.18a37.55,37.55,0,0,1-8.11-3.88,7.67,7.67,0,0,1-.86.76,7.84,7.84,0,0,1-8,.58,8.49,8.49,0,0,1-1.46-.87c-2.84,1.18-6.26,1.18-10.57-.1a44,44,0,0,1-5.45-2.1,7.61,7.61,0,0,1-7.75,5.7,23.19,23.19,0,0,1-12.32-4.48l-.52-.41a24.47,24.47,0,0,1-8,2.69,18.87,18.87,0,0,1-14.81-4.53c-6.26,7.71-18.46,7.81-24.76,1a18,18,0,0,1-13,1.47c-1.4-.34-2.77-.74-4.14-1.15-2,4.06-10.3,1.89-14.45-.47-3.62,1.7-7.74,4.18-10.9.27-.85-1-3.82.73-5,1.16a11.83,11.83,0,0,1-5.16.35C235.46,58.25,230,56.71,231.06,54Z" fill="#d7f0fc"/>
        <g>
          <path d="M17.13,27.61A3.64,3.64,0,1,1,13.5,24,3.63,3.63,0,0,1,17.13,27.61Z" fill="#d7f0fc"/>
          <path d="M21.35,22.84a2.11,2.11,0,1,1-2.11-2.11A2.11,2.11,0,0,1,21.35,22.84Z" fill="#d7f0fc"/>
          <path d="M15.84,11.51a5,5,0,1,1-5-5A5,5,0,0,1,15.84,11.51Z" fill="#d7f0fc"/>
          <path d="M2.57,31.08a1.27,1.27,0,0,1-1.29,1.28,1.28,1.28,0,1,1,0-2.56A1.28,1.28,0,0,1,2.57,31.08Z" fill="#d7f0fc"/>
          <path d="M33.14,8.66a3.47,3.47,0,1,1-3.46-3.47A3.48,3.48,0,0,1,33.14,8.66Z" fill="#d7f0fc"/>
        </g>
        <g>
          <path d="M78.25,22.41a3.64,3.64,0,1,1-3.63-3.63A3.65,3.65,0,0,1,78.25,22.41Z" fill="#fff"/>
          <path d="M82.46,17.64a2.11,2.11,0,1,1-2.1-2.1A2.1,2.1,0,0,1,82.46,17.64Z" fill="#fff"/>
          <path d="M77,6.32a5,5,0,1,1-5-5A5,5,0,0,1,77,6.32Z" fill="#fff"/>
          <path d="M63.69,25.9a1.29,1.29,0,1,1-2.57,0,1.29,1.29,0,1,1,2.57,0Z" fill="#fff"/>
          <path d="M94.25,3.48A3.47,3.47,0,1,1,90.79,0,3.46,3.46,0,0,1,94.25,3.48Z" fill="#fff"/>
        </g>
        <g>
          <circle cx="170.89" cy="42.6" r="2.46" fill="#fff"/>
          <path d="M176.18,39.38A1.42,1.42,0,1,1,174.77,38,1.41,1.41,0,0,1,176.18,39.38Z" fill="#fff"/>
          <path d="M172.48,31.73a3.39,3.39,0,1,1-3.39-3.39A3.39,3.39,0,0,1,172.48,31.73Z" fill="#fff"/>
          <path d="M163.51,45a.87.87,0,0,1-1.74,0,.87.87,0,0,1,1.74,0Z" fill="#fff"/>
          <path d="M184.15,29.81a2.34,2.34,0,1,1-2.34-2.34A2.33,2.33,0,0,1,184.15,29.81Z" fill="#fff"/>
        </g>
        <g>
          <path d="M102.36,45.34a2.46,2.46,0,1,1-2.46-2.46A2.45,2.45,0,0,1,102.36,45.34Z" fill="#fff"/>
          <path d="M105.2,42.12a1.42,1.42,0,1,1-1.42-1.42A1.41,1.41,0,0,1,105.2,42.12Z" fill="#fff"/>
          <path d="M101.48,34.46a3.39,3.39,0,1,1-3.38-3.38A3.38,3.38,0,0,1,101.48,34.46Z" fill="#fff"/>
          <path d="M92.53,47.69a.87.87,0,1,1-1.74,0,.87.87,0,0,1,1.74,0Z" fill="#fff"/>
          <path d="M113.16,32.55a2.34,2.34,0,1,1-2.34-2.34A2.34,2.34,0,0,1,113.16,32.55Z" fill="#fff"/>
        </g>
        <g>
          <path d="M148.35,23.55a3.64,3.64,0,1,1-3.63-3.64A3.63,3.63,0,0,1,148.35,23.55Z" fill="#fff"/>
          <path d="M152.56,18.78a2.11,2.11,0,1,1-2.11-2.1A2.1,2.1,0,0,1,152.56,18.78Z" fill="#fff"/>
          <path d="M147.06,7.45a5,5,0,1,1-5-5A5,5,0,0,1,147.06,7.45Z" fill="#fff"/>
          <path d="M133.78,27a1.28,1.28,0,1,1-2.56,0,1.28,1.28,0,0,1,2.56,0Z" fill="#fff"/>
          <path d="M164.36,4.61a3.47,3.47,0,1,1-3.47-3.47A3.47,3.47,0,0,1,164.36,4.61Z" fill="#fff"/>
        </g>
        <g>
          <g>
            <path d="M429.74,27.61A3.64,3.64,0,1,0,433.38,24,3.63,3.63,0,0,0,429.74,27.61Z" fill="#d7f0fc"/>
            <path d="M425.53,22.84a2.11,2.11,0,1,0,2.1-2.11A2.11,2.11,0,0,0,425.53,22.84Z" fill="#d7f0fc"/>
            <path d="M431,11.51a5,5,0,1,0,5-5A5,5,0,0,0,431,11.51Z" fill="#d7f0fc"/>
            <path d="M444.3,31.08a1.29,1.29,0,1,0,1.29-1.28A1.28,1.28,0,0,0,444.3,31.08Z" fill="#d7f0fc"/>
            <path d="M413.74,8.66a3.47,3.47,0,1,0,3.48-3.47A3.47,3.47,0,0,0,413.74,8.66Z" fill="#d7f0fc"/>
          </g>
          <g>
            <path d="M373.64,36a3.64,3.64,0,1,0,3.63-3.64A3.63,3.63,0,0,0,373.64,36Z" fill="#fff"/>
            <path d="M369.43,31.24a2.11,2.11,0,1,0,2.11-2.11A2.1,2.1,0,0,0,369.43,31.24Z" fill="#fff"/>
            <path d="M374.93,19.91a5,5,0,1,0,5-5A5,5,0,0,0,374.93,19.91Z" fill="#fff"/>
            <path d="M388.21,39.49a1.29,1.29,0,0,0,2.57,0,1.29,1.29,0,1,0-2.57,0Z" fill="#fff"/>
            <path d="M357.64,17.06a3.47,3.47,0,1,0,3.47-3.47A3.47,3.47,0,0,0,357.64,17.06Z" fill="#fff"/>
          </g>
          <g>
            <path d="M344.52,45.34A2.46,2.46,0,1,0,347,42.88,2.45,2.45,0,0,0,344.52,45.34Z" fill="#fff"/>
            <path d="M341.67,42.12a1.43,1.43,0,1,0,1.42-1.42A1.41,1.41,0,0,0,341.67,42.12Z" fill="#fff"/>
            <path d="M345.39,34.46a3.39,3.39,0,1,0,3.39-3.38A3.39,3.39,0,0,0,345.39,34.46Z" fill="#fff"/>
            <path d="M354.35,47.69a.87.87,0,1,0,.87-.87A.87.87,0,0,0,354.35,47.69Z" fill="#fff"/>
            <path d="M333.72,32.55a2.34,2.34,0,1,0,2.34-2.34A2.34,2.34,0,0,0,333.72,32.55Z" fill="#fff"/>
          </g>
          <g>
            <path d="M282.47,43.75a3,3,0,1,0,3-3A3,3,0,0,0,282.47,43.75Z" fill="#fff"/>
            <path d="M279,39.86a1.72,1.72,0,1,0,1.72-1.72A1.71,1.71,0,0,0,279,39.86Z" fill="#fff"/>
            <path d="M283.53,30.61a4.1,4.1,0,1,0,4.1-4.1A4.09,4.09,0,0,0,283.53,30.61Z" fill="#fff"/>
            <path d="M294.36,46.59a1.05,1.05,0,1,0,2.1,0,1.05,1.05,0,0,0-2.1,0Z" fill="#fff"/>
            <path d="M269.42,28.29a2.83,2.83,0,1,0,2.83-2.82A2.82,2.82,0,0,0,269.42,28.29Z" fill="#fff"/>
          </g>
        </g>
      </g>
    </g>
  </g>
</svg>
