<svg xmlns="http://www.w3.org/2000/svg" width="39.78" height="69.7" viewBox="0 0 39.78 69.7">
  <g id="Layer_2" data-name="Layer 2">
    <g id="Layer_1-2" data-name="Layer 1">
      <g id="fu_shampoo">
        <path d="M21.35,3a9.63,9.63,0,0,1,4.1.84,6,6,0,0,1,2.83,2.54,4,4,0,0,1,.08,3.71,4.71,4.71,0,0,1-4.24,2.1l-.54,0a10.49,10.49,0,0,1-1.6-.28v3.26a6.29,6.29,0,0,1,4.35,4.1h.21a8.69,8.69,0,0,1,8.62,8.27L35.37,32l1,20.47.42,8.8A5.19,5.19,0,0,1,31.6,66.7H8.18A5.19,5.19,0,0,1,3,61.18l.54-8.41L4.87,32.05l.3-4.74a8.68,8.68,0,0,1,8.34-8.12h0a6,6,0,0,1,2.75-3.44,6.3,6.3,0,0,1,1.31-.56V10.72a16.25,16.25,0,0,0-3.12-.3,16.06,16.06,0,0,0-6.81,1.5,1.36,1.36,0,0,1-.51.15H7a1,1,0,0,1-.48-.45c-.33-.5-.66-1-1-1.51a.7.7,0,0,1,.15-.94A33,33,0,0,1,16.34,3.8a18.21,18.21,0,0,1,5-.8m0-3h0a20.92,20.92,0,0,0-5.84.92A35.59,35.59,0,0,0,3.86,6.77a3.69,3.69,0,0,0-.82,5l1,1.48A3.85,3.85,0,0,0,6.2,15a3.67,3.67,0,0,0,.94.12,4,4,0,0,0,1.79-.44,13,13,0,0,1,5.41-1.21,9,9,0,0,0-2.87,3,11.64,11.64,0,0,0-9.29,10.7l-.31,4.74L.55,52.58,0,61A8.19,8.19,0,0,0,8.18,69.7H31.6a8.21,8.21,0,0,0,5.92-2.54,8.09,8.09,0,0,0,2.25-6l-.42-8.79-1-20.48-.21-4.48a11.68,11.68,0,0,0-9.89-11A9.46,9.46,0,0,0,27,14.74a7,7,0,0,0,4-3.2A7,7,0,0,0,30.93,5a8.93,8.93,0,0,0-4.21-3.86A12.71,12.71,0,0,0,21.35,0Z" fill="#924f28"/>
        <g>
          <g>
            <rect x="17.58" y="9.4" width="4.39" height="6.36" fill="#a16306"/>
            <g>
              <path d="M26.74,20.73A6.63,6.63,0,0,0,22,15.14a7.66,7.66,0,0,0-5.7.61,5.75,5.75,0,0,0-3,4.78A103.34,103.34,0,0,1,26.74,20.73Z" fill="#e39b2f"/>
              <path d="M5.52,10.1a.7.7,0,0,1,.15-.94A33,33,0,0,1,16.34,3.8c3-.86,6.3-1.27,9.11,0a6,6,0,0,1,2.83,2.54,4,4,0,0,1,.08,3.71c-.88,1.62-2.95,2.23-4.78,2.08a34.57,34.57,0,0,1-5.35-1.33A16.21,16.21,0,0,0,7.65,11.92a1,1,0,0,1-.65.14,1,1,0,0,1-.48-.45C6.19,11.11,5.86,10.6,5.52,10.1Z" fill="#e39b2f"/>
            </g>
          </g>
          <path d="M8.18,66.7H31.6a5.19,5.19,0,0,0,5.18-5.43l-.42-8.8L35.37,32l-.21-4.48a8.69,8.69,0,0,0-8.62-8.27h-.19l-12.47-.06h-.37a8.68,8.68,0,0,0-8.34,8.12l-.3,4.74L3.55,52.77,3,61.18A5.19,5.19,0,0,0,8.18,66.7Z" fill="#ffc163"/>
          <path d="M3.55,52.77q16.4.31,32.81-.3L35.37,32c-10.11.41-20.33.6-30.5,0Z" fill="#a7bfee"/>
        </g>
        <g>
          <path d="M11.76,47.76s-.45-3.67,2-4.55,4.61-1.68,5.29-2.31,3.33-.67,4,.41.55,2.71,1.46,5,1.22,3.81-1.11,4.71-4.24-2.71-6.2-2.78S13.16,49.67,11.76,47.76Z" fill="#f1f2f2"/>
          <path d="M26.89,45.38a1.92,1.92,0,0,1-1.74-2.27,1.1,1.1,0,0,1,.44-.75c.86-.58,2.81-2.27,4.14-.86C30.8,42.64,29,45.53,26.89,45.38Z" fill="#f1f2f2"/>
          <path d="M19.8,38.38a1.94,1.94,0,0,1-2.91-.53,1.09,1.09,0,0,1-.14-.81c.26-1,.6-3.56,2.53-3.39C20.81,33.79,21.41,37,19.8,38.38Z" fill="#f1f2f2"/>
          <path d="M15.35,40.27a1.87,1.87,0,0,1-2.74.76,1,1,0,0,1-.45-.64c-.2-1-1-3.34.77-4C14.31,35.88,16.19,38.44,15.35,40.27Z" fill="#f1f2f2"/>
          <path d="M24.38,39.92a1.92,1.92,0,0,1-1.9-1.14c-.66-1.31,2-4.7,3.73-3.12S25.41,39.81,24.38,39.92Z" fill="#f1f2f2"/>
        </g>
      </g>
    </g>
  </g>
</svg>
