<svg xmlns="http://www.w3.org/2000/svg" width="203.77" height="112.36" viewBox="0 0 203.77 112.36">
  <g id="Layer_2" data-name="Layer 2">
    <g id="Layer_1-2" data-name="Layer 1">
      <g id="to_kids_pool" data-name="to_kids pool">
        <g>
          <path d="M44.78,43.44h0C20.06,39.24,4,32.38,4,24.64a6.11,6.11,0,0,1,.73-2.83A15.85,15.85,0,0,0,1.5,31.4c0,14.88,19.14,23.07,47.85,27C42.28,55,44.78,43.44,44.78,43.44Z" fill="#baa2ee"/>
          <path d="M202.27,31.4a16.7,16.7,0,0,0-3.85-10.75,7.16,7.16,0,0,1,1.4,4c0,7.66-15.78,14.46-40.09,18.67a.5.5,0,0,1,.05.13s2.5,11.54-4.57,14.93l.13.08C183.53,54.68,202.27,46.66,202.27,31.4Z" fill="#baa2ee"/>
          <path d="M159.78,43.44a.5.5,0,0,0-.05-.13c-16.21,2.81-36.21,4.46-57.85,4.46a348.48,348.48,0,0,1-57.1-4.34h0S42.28,55,49.35,58.37c15.28,2.08,33.27,2.94,52.53,2.94,19.65,0,38-.79,53.46-2.86l-.13-.08C162.28,55,159.78,43.44,159.78,43.44Z" fill="#dfe590"/>
        </g>
        <g>
          <path d="M44.35,69c.89-8.65,5-10.65,5-10.65h0c-20.15-2.74-35.59-7.6-43-15.4A16.34,16.34,0,0,0,1.5,54.54c0,14.58,18.41,22.75,46.19,26.74h0S43.39,78.29,44.35,69Z" fill="#dfe590"/>
          <path d="M160.21,69c-.79-7.73-4.16-10.14-4.86-10.57-15.48,2.07-33.82,2.86-53.47,2.86-19.26,0-37.26-.87-52.54-2.94h0s-4.11,2-5,10.65c-1,9.27,3.34,12.25,3.34,12.25h0c15.63,2.24,34.23,3.16,54.19,3.16,20.35,0,39.27-.84,55.08-3.08l-.09-.09S161.17,78.29,160.21,69Z" fill="#baa2ee"/>
          <path d="M202.27,54.54A16.82,16.82,0,0,0,197.72,43c-7.18,8-22.4,12.81-42.37,15.48.7.43,4.07,2.84,4.86,10.57,1,9.27-3.34,12.25-3.34,12.25l.09.09C184.25,77.5,202.27,69.5,202.27,54.54Z" fill="#dfe590"/>
        </g>
        <g>
          <path d="M42.56,94.75c0-9.19,5.13-13.48,5.13-13.48h0C29.78,78.7,15.76,74.39,8.07,67.75,3.83,71.41,1.5,75.78,1.5,81c0,14.68,18.65,22.86,46.74,26.82C48.22,107.76,42.56,103.93,42.56,94.75Z" fill="#baa2ee"/>
          <path d="M202.27,81c0-5.2-2.2-9.56-6.19-13.19-7.48,6.81-21.33,11.09-39.11,13.6.67.61,5,4.91,5,13.39,0,9.2-5.69,13-5.69,13v.09C184,104,202.27,96,202.27,81Z" fill="#baa2ee"/>
          <path d="M162,94.75c0-8.48-4.37-12.78-5-13.39-15.82,2.24-34.74,3.08-55.09,3.08-20,0-38.56-.92-54.19-3.17h0s-5.13,4.29-5.13,13.48,5.66,13,5.68,13c15.51,2.19,33.91,3.09,53.64,3.09,20.07,0,38.76-.82,54.44-3v-.09S162,104,162,94.75Z" fill="#dfe590"/>
        </g>
        <g>
          <path d="M193.47,21.89a11.5,11.5,0,0,0-8.15,2.75c0,4.9-11.91,9.28-30.58,12.17l-.49.19s3.42.68,5.48,6.31c24.31-4.21,40.09-11,40.09-18.67C199.82,24.64,198.59,22.11,193.47,21.89Z" fill="#f2bdff"/>
          <path d="M18.45,24.64a3.24,3.24,0,0,1,.31-1.35h0s-1.86-2.82-7.12-2.9-7.4,2.46-7.4,2.46h0A5.83,5.83,0,0,0,4,24.64c0,7.74,16.11,14.6,40.83,18.79,2-5.75,5.53-6.43,5.53-6.43h0C30.91,34.12,18.45,29.65,18.45,24.64Z" fill="#f2bdff"/>
          <path d="M154.25,37l.49-.19a358.85,358.85,0,0,1-52.86,3.55A362,362,0,0,1,50.31,37h0s-3.48.68-5.53,6.43a348.48,348.48,0,0,0,57.1,4.34c21.64,0,41.64-1.65,57.85-4.46C157.67,37.68,154.25,37,154.25,37Z" fill="#fdffb3"/>
          <path d="M46.5,5.55C22.76,9.41,6.57,15.67,4.24,22.85h0s2.14-2.55,7.4-2.46,7.12,2.9,7.12,2.9c2.11-4.7,15.23-8.82,34.47-11.43h0A8.54,8.54,0,0,0,46.5,5.55Z" fill="#fdffb3"/>
          <path d="M164.72,6.89c-17-3.36-38.92-5.39-62.84-5.39A354.5,354.5,0,0,0,46.5,5.55a8.54,8.54,0,0,1,6.73,6.31h0a373,373,0,0,1,48.65-2.95,362.35,362.35,0,0,1,51.61,3.37h0A11.26,11.26,0,0,1,164.72,6.89Z" fill="#f2bdff"/>
          <path d="M164.72,6.89a11.26,11.26,0,0,0-11.23,5.39h0c19.38,2.88,31.83,7.34,31.83,12.36a11.5,11.5,0,0,1,8.15-2.75c5.12.22,6.35,2.75,6.35,2.75C199.82,17.51,186.17,11.14,164.72,6.89Z" fill="#fdffb3"/>
        </g>
        <g>
          <path d="M53.23,12l.13-.18C32.23,14.7,18.45,19.36,18.45,24.64c0,2.62,3.4,5.08,9.4,7.25,4.76-2.92,13.67-5.47,25.31-7.36C56.2,18.64,53.23,12,53.23,12Z" fill="#dfe590"/>
          <path d="M153.49,12.28a362.35,362.35,0,0,0-51.61-3.37,371.45,371.45,0,0,0-48.52,2.94l-.13.18s3,6.61-.07,12.5a315,315,0,0,1,48.72-3.45c19,0,36.37,1.37,49.88,3.65C149.9,18.49,153.49,12.28,153.49,12.28Z" fill="#baa2ee"/>
          <path d="M153.49,12.28s-3.59,6.21-1.73,12.45c11.08,1.86,19.55,4.34,24.16,7.16,6-2.17,9.4-4.63,9.4-7.25C185.32,19.62,172.87,15.16,153.49,12.28Z" fill="#dfe590"/>
        </g>
        <g>
          <path d="M75.35,72.55c-.72-.3-1-.94-.42-3.48-2.47-1.45-2.33-2.11-2.24-2.56s.47-1.16,3.15-1.37c.6-2.58,1.2-2.85,1.77-2.9h.06c.51,0,1.14.09,2.18,2.58.35,0,.77,0,1.17,0,.87,0,1.76.06,2.12.77.28.55.35,1.19-1.73,3,1,2.5.72,3.06.25,3.44a1.15,1.15,0,0,1-.76.26,6.32,6.32,0,0,1-2.55-1.08c-1.79,1.5-2.3,1.5-2.56,1.5h-.2Z" fill="#ffeb81"/>
          <path d="M77.71,63.23c.48,0,1.49,2.64,1.49,2.64s1-.1,1.82-.1c.6,0,1.14,0,1.23.22.21.41-2.06,2.23-2.06,2.23s1.21,2.66.84,3a.17.17,0,0,1-.13,0,10.15,10.15,0,0,1-2.64-1.32s-2,1.74-2.47,1.74h-.06c-.39-.16.34-3.05.34-3.05s-2.5-1.37-2.4-1.85,3-.63,3-.63.57-2.81,1-2.85h0m0-2h-.18c-1.33.11-2,1.16-2.49,3-1.87.23-3.06.76-3.33,2.11s.56,2.24,2.08,3.23c-.32,1.65-.35,3.3,1.19,3.92a2,2,0,0,0,.81.16c.41,0,1,0,2.65-1.28a4.77,4.77,0,0,0,2.46.86,2.24,2.24,0,0,0,1.4-.48c1-.86,1-2.12.3-3.93,1.29-1.18,2.12-2.38,1.43-3.72s-2.19-1.31-3-1.31h-.53c-.86-1.85-1.66-2.55-2.78-2.55Z" fill="#ffaa5a"/>
        </g>
        <g>
          <path d="M15.65,67.84c-.31,0-.94,0-2.73-2.11a9.89,9.89,0,0,1-2.75.79,1.27,1.27,0,0,1-.85-.29c-.62-.53-.66-1.28.82-3.74-2.11-2.37-1.76-3-1.52-3.4a1.49,1.49,0,0,1,1.4-.65,11.94,11.94,0,0,1,2.35.36c1.5-2.49,2.14-2.49,2.53-2.49H15l.15,0c.46.11,1.15.28,1.39,3.46,3,.75,3.14,1.37,3.21,1.84.1.63-.05,1.31-2.86,2.44.28,3.26-.36,3.51-.84,3.69l-.17.06Z" fill="#ffeb81"/>
          <path d="M14.9,57.31h0c.53.13.68,3.3.68,3.3s3.09.68,3.17,1.18-2.94,1.64-2.94,1.64.36,3.22-.13,3.4h-.06c-.57,0-2.42-2.32-2.42-2.32a14.47,14.47,0,0,1-3.06,1,.34.34,0,0,1-.2,0c-.35-.3,1.41-3.1,1.41-3.1s-2.16-2.3-1.89-2.78c.06-.11.26-.15.53-.15a15.14,15.14,0,0,1,2.84.52s1.49-2.65,2-2.65m0-2h0c-.91,0-1.74.42-3,2.36A10.94,10.94,0,0,0,10,57.44,2.4,2.4,0,0,0,7.75,58.6c-.62,1.08-.32,2.2,1.16,4-1,1.82-1.5,3.32-.23,4.39a2.19,2.19,0,0,0,1.49.53,8.11,8.11,0,0,0,2.46-.61c1.75,1.93,2.5,1.93,3,1.93a2.22,2.22,0,0,0,.77-.13c1.33-.51,1.65-1.86,1.54-4,2-.88,3-1.8,2.8-3.25-.18-1.16-1.05-1.85-3.26-2.47-.23-2.06-.74-3.32-2.1-3.64l-.23-.06Z" fill="#ffaa5a"/>
        </g>
        <g>
          <path d="M130.45,57.36c-.29,0-.86,0-2.52-1.73a8,8,0,0,1-2.52.84,1.19,1.19,0,0,1-.74-.24c-.62-.46-.73-1.16.47-3.47-2-2-1.72-2.62-1.52-3a1.61,1.61,0,0,1,1.55-.73,11.38,11.38,0,0,1,1.85.2c1.25-2.38,1.85-2.38,2.26-2.38h.08l.11,0c.57.1,1.15.43,1.52,3,2.77.52,2.9,1.11,3,1.54.13.61,0,1.25-2.43,2.44.39,2.69-.07,3.15-.63,3.39l-.19.09Z" fill="#ffeb81"/>
          <path d="M129.28,47.82h0c.48.09.79,2.93.79,2.93s2.82.44,2.92.89-2.57,1.64-2.57,1.64.51,2.88.08,3.07h-.07c-.52,0-2.29-2-2.29-2a12.47,12.47,0,0,1-2.75,1.07.26.26,0,0,1-.14,0c-.33-.25,1.11-2.87,1.11-2.87s-2.08-2-1.86-2.4c.06-.12.32-.17.65-.17a15,15,0,0,1,2.4.32s1.22-2.5,1.71-2.5m0-2h0c-1,0-1.84.62-2.79,2.28a12.29,12.29,0,0,0-1.31-.1,2.47,2.47,0,0,0-2.44,1.27c-.58,1.19,0,2.33,1.19,3.67-.73,1.52-1.17,3.11.16,4.1a2.19,2.19,0,0,0,1.33.43,5.64,5.64,0,0,0,2.3-.65c1.6,1.54,2.27,1.54,2.74,1.54a2.09,2.09,0,0,0,.89-.19c1.24-.55,1.5-1.8,1.29-3.72,1.55-.81,2.65-1.76,2.33-3.23-.24-1.1-1.06-1.71-3.09-2.17-.33-1.85-.91-3-2.22-3.2l-.18,0Z" fill="#ffaa5a"/>
        </g>
        <g>
          <path d="M85.23,19.3c-.72-.3-1-1-.37-3.48-2.44-1.49-2.3-2.14-2.2-2.59s.5-1.16,3.17-1.33c.64-2.57,1.22-2.83,1.82-2.87h0c.5,0,1.14.07,2.16,2.61l1,0c1,0,1.94.06,2.31.79.27.56.32,1.21-1.78,2.95,1,2.52.68,3.07.2,3.44a1.14,1.14,0,0,1-.75.25,5.88,5.88,0,0,1-2.55-1.11c-1.8,1.45-2.33,1.45-2.57,1.46h-.2Z" fill="#ffeb81"/>
          <path d="M87.72,10c.49,0,1.46,2.66,1.46,2.66s.84-.07,1.64-.08,1.32.06,1.41.25c.2.41-2.1,2.2-2.1,2.2s1.18,2.67.8,3a.23.23,0,0,1-.13,0,10.29,10.29,0,0,1-2.63-1.36s-2,1.71-2.49,1.71l-.05,0c-.39-.16.38-3,.38-3s-2.48-1.41-2.38-1.89,3-.59,3-.59.61-2.8,1.09-2.83h0m0-2h-.13c-1.33.09-2,1.13-2.55,2.93-1.86.2-3.06.72-3.36,2s.53,2.26,2,3.27c-.35,1.65-.4,3.29,1.12,3.94a2,2,0,0,0,.84.18c.41,0,1,0,2.64-1.25a4.71,4.71,0,0,0,2.48.9,2.22,2.22,0,0,0,1.37-.46c1.07-.84,1-2.11.37-3.92,1.3-1.15,2.15-2.34,1.49-3.69s-2.26-1.36-3.21-1.36h-.31C89.66,8.73,88.87,8,87.72,8Z" fill="#ffaa5a"/>
        </g>
        <g>
          <path d="M166,25.46c-.19,0-.68,0-2-1-1.4.94-1.84.94-2,.94h-.25l-.28-.13c-.71-.39-.78-1.12-.2-2.89-1.51-1.13-1.71-1.75-1.52-2.35.28-.89,1.38-1,2.57-1h.08c.63-1.78,1.14-2.15,1.77-2.15s1.16.4,1.73,2.21c2,.08,2.39.49,2.58,1,.28.73-.12,1.36-1.56,2.37.55,1.87.35,2.46-.21,2.83l-.25.16Z" fill="#ffeb81"/>
          <path d="M164.1,17.9h0c.38,0,1,2.2,1,2.2s2.27,0,2.41.34-1.81,1.6-1.81,1.6.74,2.19.43,2.4l-.09,0c-.46,0-2-1.26-2-1.26a8.9,8.9,0,0,1-2.08,1.18l-.06,0c-.29-.15.52-2.38.52-2.38s-1.88-1.28-1.75-1.66.94-.28,1.61-.28c.44,0,.8,0,.8,0s.66-2.16,1-2.16m0-2c-1.26,0-2,.94-2.47,2.15-1.07.05-2.47.29-2.9,1.68-.39,1.19.3,2.15,1.3,3-.36,1.32-.43,2.69.88,3.4a2.18,2.18,0,0,0,1,.26,3.54,3.54,0,0,0,2-.73,3.4,3.4,0,0,0,2.07.81,2.12,2.12,0,0,0,1.18-.35c1.09-.71,1.12-1.92.81-3.25,1-.8,1.85-1.82,1.34-3.14-.41-1-1.34-1.43-2.78-1.56-.46-1.25-1.14-2.24-2.42-2.26h0Z" fill="#ffaa5a"/>
        </g>
        <g>
          <path d="M26.33,27.88c-.73-.33-.85-1.06-.37-2.86-1.57-1-1.81-1.62-1.66-2.24s.67-1.05,2.59-1.15c.52-1.82,1-2.22,1.65-2.24h0c.56,0,1.1.17,1.84,2.11h.29c1.07,0,2,.06,2.34.81s0,1.36-1.42,2.45c.67,1.84.5,2.44,0,2.84a1.16,1.16,0,0,1-.69.22c-.18,0-.66,0-2-.89C27.45,28,27,28,26.8,28h-.22Z" fill="#ffeb81"/>
          <path d="M28.59,20.39c.38,0,1.1,2.14,1.1,2.14s.46,0,1,0,1.35,0,1.44.22c.15.33-1.71,1.71-1.71,1.71s.87,2.14.57,2.36a.12.12,0,0,1-.09,0,8,8,0,0,1-2.07-1.13,8.52,8.52,0,0,1-2,1.3h-.05c-.3-.14.37-2.41.37-2.41S25.18,23.4,25.27,23s2.39-.41,2.39-.41.54-2.21.92-2.22h0m0-2H28.5c-1.27.05-1.93,1-2.37,2.3-1.32.14-2.48.57-2.8,1.84s.44,2.14,1.49,2.92c-.29,1.34-.27,2.72,1.1,3.34a2,2,0,0,0,.88.2c.35,0,.85,0,2.09-.86a3.64,3.64,0,0,0,2,.69,2.18,2.18,0,0,0,1.3-.43c1-.77,1-2,.59-3.29,1-.85,1.74-1.93,1.16-3.21a2.92,2.92,0,0,0-2.87-1.39c-.53-1.19-1.24-2.11-2.47-2.11Z" fill="#ffaa5a"/>
        </g>
        <g>
          <path d="M33.75,50.37c-.21,0-.8,0-2.57-1.31-1.82,1.26-2.36,1.26-2.57,1.26h-.25l-.29-.13c-.69-.35-.91-1-.11-3.5-2.32-1.67-2.13-2.31-2-2.75.27-.91,1.33-1.08,3.2-1.08h0c.83-2.5,1.46-2.73,2-2.73s1.21.24,2,2.77c2.38.05,3,.39,3.21,1s.25,1.21-2,2.79c.82,2.59.44,3.12-.06,3.45A1.17,1.17,0,0,1,33.75,50.37Z" fill="#ffeb81"/>
          <path d="M31.25,41.13h0c.48,0,1.26,2.76,1.26,2.76h.11c.52,0,2.76,0,2.91.4s-2.25,2-2.25,2,1,2.75.58,3a.2.2,0,0,1-.11,0c-.59,0-2.55-1.56-2.55-1.56a11.13,11.13,0,0,1-2.59,1.51h-.08c-.37-.2.62-3,.62-3s-2.37-1.59-2.23-2.07c.1-.31,1.38-.37,2.25-.37.45,0,.78,0,.78,0s.82-2.75,1.3-2.75m0-2c-1.32,0-2.09,1-2.74,2.74-1.38,0-3,.25-3.5,1.79-.38,1.24.35,2.28,1.78,3.4-.48,1.63-.65,3.27.83,4a2.16,2.16,0,0,0,1,.23c.34,0,.92,0,2.55-1,1.6,1.1,2.25,1.1,2.59,1.1A2.2,2.2,0,0,0,35,51c1.14-.76,1.18-2,.67-3.89,1.4-1.06,2.33-2.18,1.75-3.59C36.94,42.4,35.86,42,34,41.92c-.64-1.77-1.38-2.77-2.71-2.79h0Z" fill="#ffaa5a"/>
        </g>
        <g>
          <path d="M147,80.09c-.26,0-.84,0-2.54-1.6a7.3,7.3,0,0,1-2.55,1,1.21,1.21,0,0,1-.68-.2c-.64-.44-.78-1.13.3-3.49-2.12-1.92-1.85-2.54-1.67-3,.35-.81,1.37-.81,1.81-.81a15.28,15.28,0,0,1,1.55.11c1.16-2.49,1.77-2.49,2.19-2.49h.15c.59.07,1.16.37,1.66,3,2.8.37,3,1,3.07,1.38.16.6.1,1.25-2.3,2.56.52,2.66.08,3.14-.46,3.42l-.21.11Z" fill="#ffeb81"/>
          <path d="M145.45,70.62h0c.48.06.93,2.89.93,2.89s2.85.3,3,.74S146.89,76,146.89,76s.65,2.84.23,3.06H147c-.54,0-2.38-1.84-2.38-1.84A11.82,11.82,0,0,1,142,78.46a.21.21,0,0,1-.12,0c-.34-.23,1-2.91,1-2.91s-2.17-1.85-2-2.31c.06-.16.43-.21.89-.21a17.11,17.11,0,0,1,2.16.2s1.1-2.58,1.58-2.58m0-2h0c-1.08,0-1.88.66-2.78,2.43-.32,0-.65,0-1,0A2.74,2.74,0,0,0,139,72.42c-.52,1.2.09,2.31,1.38,3.59-.66,1.55-1,3.15.35,4.08a2.23,2.23,0,0,0,1.24.37,5.1,5.1,0,0,0,2.39-.77c1.61,1.4,2.28,1.4,2.7,1.4a2.22,2.22,0,0,0,1-.23c1.22-.62,1.41-1.88,1.11-3.79,1.5-.88,2.56-1.89,2.16-3.35-.3-1.08-1.16-1.65-3.2-2-.43-1.84-1.06-2.92-2.39-3.08l-.12,0Z" fill="#ffaa5a"/>
        </g>
        <g>
          <path d="M175.78,52.11c-.79-.33-.92-1.14-.45-3.21-2.05-1.23-2.13-1.86-2-2.4s.45-1.11,2.88-1.31c.57-2.34,1.13-2.59,1.7-2.63h0c.62,0,1.19.2,2.08,2.35.3,0,.64,0,1,0,.84,0,1.69,0,2,.74s.17,1.31-1.55,2.78c.94,2.29.62,2.81.16,3.18a1.17,1.17,0,0,1-.74.25,5.41,5.41,0,0,1-2.32-1c-1.61,1.33-2.1,1.33-2.34,1.33H176Z" fill="#ffeb81"/>
          <path d="M178,43.55c.44,0,1.35,2.41,1.35,2.41s.87-.08,1.63-.08c.56,0,1.07,0,1.15.2.19.37-1.88,2-1.88,2s1.1,2.42.76,2.69a.16.16,0,0,1-.12,0,9.31,9.31,0,0,1-2.41-1.22s-1.79,1.58-2.25,1.58h-.05c-.35-.14.32-2.78.32-2.78s-2.28-1.25-2.18-1.69,2.72-.56,2.72-.56.52-2.56,1-2.6h0m0-2h-.15c-1.29.1-1.94,1-2.42,2.7-1.52.19-2.78.67-3.07,2s.47,2.15,1.86,3.07c-.29,1.53-.28,3.05,1.19,3.66a2.1,2.1,0,0,0,.82.16c.39,0,.95,0,2.43-1.13a4.28,4.28,0,0,0,2.23.77,2.16,2.16,0,0,0,1.37-.48c1.1-.87.94-2.19.4-3.67,1.17-1.08,1.91-2.21,1.26-3.5s-2.2-1.3-2.94-1.3h-.33c-.69-1.49-1.45-2.33-2.65-2.33Z" fill="#ffaa5a"/>
        </g>
        <g>
          <path d="M181.57,89.91c-.78-.33-.91-1.14-.45-3.2-2.05-1.23-2.12-1.87-2-2.41s.44-1.1,2.88-1.3c.56-2.35,1.12-2.59,1.69-2.64h.05c.49,0,1.09.08,2,2.35.3,0,.64,0,1,0,.85,0,1.7.06,2.05.75s.16,1.31-1.56,2.77c.94,2.29.62,2.81.17,3.18a1.2,1.2,0,0,1-.75.25,5.51,5.51,0,0,1-2.32-1C182.73,90,182.25,90,182,90h-.19Z" fill="#ffeb81"/>
          <path d="M183.78,81.36c.44,0,1.35,2.4,1.35,2.4s.86-.08,1.62-.08c.56,0,1.08,0,1.16.2.18.38-1.89,2-1.89,2s1.1,2.42.76,2.69a.19.19,0,0,1-.12,0,9.24,9.24,0,0,1-2.4-1.21S182.46,89,182,89H182c-.35-.15.32-2.78.32-2.78S180,85,180.09,84.51s2.72-.56,2.72-.56.52-2.56,1-2.59h0m0-2h-.17c-1.27.09-1.93,1-2.41,2.7-1.51.19-2.78.66-3.07,2-.26,1.22.47,2.15,1.86,3.07-.29,1.52-.28,3,1.18,3.65A2.24,2.24,0,0,0,182,91c.4,0,1,0,2.43-1.13a4.32,4.32,0,0,0,2.23.76,2.2,2.2,0,0,0,1.38-.47c1.09-.88.93-2.2.39-3.67,1.17-1.09,1.91-2.21,1.27-3.5s-2.21-1.31-2.95-1.31h-.32c-.7-1.49-1.46-2.32-2.65-2.32Z" fill="#ffaa5a"/>
        </g>
        <g>
          <path d="M131,103.85c-.83-.15-1.13-.92-1.1-3-2.26-.78-2.46-1.38-2.46-1.93s.2-1.17,2.55-1.88c.06-2.4.55-2.76,1.1-2.93l.14,0h.18c.35,0,.9,0,2.22,1.91a9,9,0,0,1,2-.37,1.32,1.32,0,0,1,1.09.45c.45.57.43,1.25-.95,3,1.4,2,1.19,2.62.83,3.07a1.28,1.28,0,0,1-1,.43,7.89,7.89,0,0,1-2.12-.5c-1.44,1.82-1.9,1.82-2.25,1.82h-.1Z" fill="#ffeb81"/>
          <path d="M131.37,95c.46,0,1.79,2.08,1.79,2.08a12.44,12.44,0,0,1,2.44-.54.41.41,0,0,1,.31.08c.26.33-1.42,2.37-1.42,2.37s1.57,2.14,1.3,2.47a.33.33,0,0,1-.25.07,11.27,11.27,0,0,1-2.46-.69s-1.51,2-1.91,2h0c-.38-.07-.26-2.78-.26-2.78s-2.49-.75-2.49-1.21,2.54-1.12,2.54-1.12,0-2.6.4-2.73h0m0-2h-.28l-.32.09c-1.23.37-1.67,1.44-1.79,3.15-1.45.5-2.59,1.23-2.58,2.63s.91,2,2.46,2.62c0,1.55.35,3,1.92,3.33l.18,0h.21c.75,0,1.42-.28,2.59-1.66a6.67,6.67,0,0,0,1.78.34,2.23,2.23,0,0,0,1.8-.8c.89-1.08.46-2.34-.37-3.67.92-1.31,1.41-2.57.5-3.7a2.32,2.32,0,0,0-1.87-.82,7.52,7.52,0,0,0-1.6.23c-1.1-1.44-1.83-1.77-2.63-1.77Z" fill="#ffaa5a"/>
        </g>
        <g>
          <path d="M52.42,104.33c-.76-.37-.84-1.19-.25-3.23-2-1.34-2-2-1.88-2.51.21-.77,1-1.08,3-1.13.69-2.31,1.26-2.53,1.83-2.55h0c.59,0,1.17.21,2,2.47h0c1.68,0,2.59.14,2.92.89s.09,1.31-1.71,2.68c.81,2.33.46,2.84,0,3.18a1.25,1.25,0,0,1-.69.21c-.19,0-.74,0-2.33-1.1-1.64,1.2-2.12,1.2-2.34,1.2h-.24Z" fill="#ffeb81"/>
          <path d="M55.11,95.91c.44,0,1.22,2.48,1.22,2.48h.76c.78,0,1.9,0,2,.29s-2,1.91-2,1.91,1,2.48.61,2.73a.18.18,0,0,1-.11,0A9,9,0,0,1,55.25,102a9.94,9.94,0,0,1-2.32,1.45h-.07c-.34-.17.48-2.76.48-2.76s-2.2-1.38-2.08-1.82,2.12-.4,2.63-.4H54s.66-2.52,1.1-2.54h0m0-2h0c-1.3,0-2,1-2.57,2.58-1.55.1-2.82.49-3.18,1.84s.35,2.18,1.68,3.18c-.38,1.51-.45,3,1,3.72a2.12,2.12,0,0,0,.94.21c.37,0,.9,0,2.36-1a4,4,0,0,0,2.31.89,2.16,2.16,0,0,0,1.27-.4c1.14-.81,1.06-2.14.6-3.64,1.24-1,2-2.1,1.46-3.43S59,96.41,57.74,96.38c-.63-1.58-1.37-2.47-2.63-2.47Z" fill="#ffaa5a"/>
        </g>
        <g>
          <path d="M18.16,98c-.84-.11-1.18-.86-1.26-3-2.31-.65-2.54-1.24-2.57-1.8s.14-1.17,2.45-2c-.07-2.41.41-2.79.94-3l.17-.06h.22c.31,0,.86,0,2.25,1.79a7.87,7.87,0,0,1,2.11-.49,1.29,1.29,0,0,1,1,.4c.48.54.49,1.22-.79,3.08,1.51,2,1.33,2.55,1,3a1.3,1.3,0,0,1-1.12.5,8.69,8.69,0,0,1-2-.4c-1.38,1.94-1.86,1.94-2.22,1.94h-.14Z" fill="#ffeb81"/>
          <path d="M18.11,89.21c.46,0,1.89,2,1.89,2a11.66,11.66,0,0,1,2.47-.67.3.3,0,0,1,.24.07C23,90.89,21.42,93,21.42,93s1.69,2,1.43,2.4c0,.06-.15.09-.31.09a11.92,11.92,0,0,1-2.43-.57s-1.41,2.11-1.81,2.11h0c-.38,0-.41-2.76-.41-2.76s-2.53-.62-2.55-1.07S17.81,92,17.81,92s-.16-2.61.25-2.76h.05m0-2h-.34l-.37.12c-1.21.44-1.6,1.53-1.63,3.24-1.41.57-2.52,1.36-2.43,2.77.06,1.24,1,1.94,2.59,2.47.11,1.56.52,3,2.09,3.22l.14,0h.14c.8,0,1.48-.3,2.62-1.79a7.81,7.81,0,0,0,1.62.25,2.3,2.3,0,0,0,1.93-.92c.83-1.12.33-2.35-.57-3.63.85-1.36,1.27-2.63.31-3.71a2.26,2.26,0,0,0-1.74-.74,7,7,0,0,0-1.76.33c-1.13-1.34-1.84-1.63-2.6-1.63Z" fill="#ffaa5a"/>
        </g>
        <path d="M137.82,21.18c-10,.79-28.25-3.75-40.95-1.74s-23.21-1.54-35.2,1.74c-10,2.74-15.38,2.27-23,3.55-4.47.75-13.54,2.27-16.43,4.63,10.62,6.37,42.24,11,79.6,11,34.68,0,64.42-4,77-9.66a20.23,20.23,0,0,0-3.36-.79C164.06,27.33,157.37,19.63,137.82,21.18Z" fill="#98d9e4"/>
        <g>
          <path d="M35.55,28.56l2.12,0,2.43.13,3.15.22c1.16.08,2.41.19,3.73.24.66,0,1.34.07,2,.09l2.13,0c.72,0,1.45,0,2.2,0l1.12,0,.56,0,.56-.05,2.27-.23,2.29-.33,4.56-.66c1.51-.21,3-.38,4.44-.52s2.85-.22,4.17-.22,2.59,0,3.75.1,2.22.2,3.15.35,1.73.31,2.4.43,1.17.28,1.52.36l.54.14-.54-.12-1.54-.31c-.67-.1-1.47-.26-2.4-.36s-2-.2-3.14-.27-2.41-.08-3.73,0-2.71.15-4.15.27-2.92.32-4.42.54L60.2,29c-.77.11-1.53.22-2.3.31l-2.29.22-.57.06-.57,0-1.12,0c-.75,0-1.49.06-2.21,0L49,29.59c-.69,0-1.37-.09-2-.13-1.32-.07-2.57-.2-3.73-.3l-3.14-.29-2.43-.21Z" fill="#fff" stroke="#fff" stroke-linecap="round" stroke-miterlimit="10"/>
          <path d="M110.91,27l.52,0c.34,0,.84,0,1.48,0s1.41,0,2.3,0,1.89.07,3,.13c2.18.11,4.73.23,7.46.31.68,0,1.37,0,2.07,0s1.41,0,2.13,0c1.43,0,2.88-.09,4.33-.2l2.16-.22c.72-.1,1.43-.19,2.14-.31,1.42-.21,2.81-.45,4.17-.59s2.69-.26,3.94-.33h1.83a6.26,6.26,0,0,1,.87.05l.84.07.8.07.76.14c.49.09,1,.16,1.39.26.86.24,1.62.41,2.22.61l1.9.64-1.92-.57c-.61-.18-1.37-.32-2.23-.53-.43-.09-.9-.15-1.39-.22l-.76-.12c-.25,0-.52,0-.79-.06l-.83-.05a5,5,0,0,0-.87,0l-1.81,0c-1.24.11-2.56.19-3.91.38s-2.74.4-4.15.63l-2.15.32c-.72.09-1.45.16-2.18.23-1.46.1-2.92.17-4.36.17q-1.08,0-2.13,0l-2.08,0c-1.37,0-2.69-.12-3.94-.2l-3.52-.23c-2.18-.15-4-.28-5.27-.32l-.85,0h-1.15Z" fill="#fff" stroke="#fff" stroke-linecap="round" stroke-miterlimit="10"/>
          <path d="M74.81,35.06l.63.06c.41,0,1,.12,1.77.17s1.68.11,2.75.08,2.26,0,3.57-.12l2-.16,2.18-.22,4.69-.54c.82-.08,1.65-.18,2.49-.25L96.2,34l1.29-.09c.86-.07,1.73-.09,2.61-.12s1.75,0,2.62,0a36.09,36.09,0,0,1,5.22.57l1.27.25,1.24.26,1.23.26,1.22.2c.4.07.8.15,1.2.2l1.18.16c.78.12,1.55.18,2.3.25s1.47.11,2.18.16,1.38,0,2,0c1.31,0,2.5,0,3.57-.12s2-.2,2.74-.3,1.34-.23,1.74-.33a5.64,5.64,0,0,0,.61-.15,18,18,0,0,1-2.34.55c-.76.13-1.67.28-2.74.37s-2.27.18-3.58.2c-.66,0-1.35,0-2,0s-1.45,0-2.2-.12-1.52-.11-2.31-.22l-1.19-.15c-.4,0-.8-.12-1.21-.19l-1.22-.2-1.24-.26-1.25-.25-1.26-.24a38.22,38.22,0,0,0-5.16-.54c-.87,0-1.74,0-2.61,0s-1.73,0-2.59.11l-1.28.08L95,34.43c-.83.07-1.66.16-2.48.24-1.63.18-3.2.34-4.7.48l-2.19.19-2,.13c-1.32.05-2.53.08-3.59.05s-2-.11-2.76-.15-1.36-.18-1.77-.23Z" fill="#fff" stroke="#fff" stroke-linecap="round" stroke-miterlimit="10"/>
        </g>
        <path d="M196.08,67.76c-7.48,6.81-21.33,11.09-39.11,13.6-15.82,2.24-34.74,3.08-55.09,3.08-20,0-38.56-.92-54.19-3.17C29.78,78.7,15.76,74.39,8.07,67.75,3.83,71.41,1.5,75.78,1.5,81c0,14.68,18.65,22.86,46.74,26.82,15.51,2.19,33.91,3.09,53.64,3.09,20.07,0,38.76-.82,54.44-3C184,104,202.27,96,202.27,81,202.27,75.75,200.07,71.39,196.08,67.76Z" fill="none" stroke="#7850b3" stroke-miterlimit="10" stroke-width="3"/>
        <path d="M197.72,43c-7.18,8-22.4,12.81-42.37,15.48-15.48,2.07-33.82,2.86-53.47,2.86-19.26,0-37.26-.87-52.54-2.94-20.15-2.74-35.59-7.6-43-15.4A16.34,16.34,0,0,0,1.5,54.54c0,14.58,18.41,22.75,46.19,26.74,15.63,2.24,34.23,3.16,54.19,3.16,20.35,0,39.27-.84,55.08-3.08,27.29-3.86,45.31-11.86,45.31-26.82A16.82,16.82,0,0,0,197.72,43Z" fill="none" stroke="#7850b3" stroke-miterlimit="10" stroke-width="3"/>
        <path d="M198.42,20.65a10.32,10.32,0,0,1,.73,1.27c-3-6-15.74-11.33-34.43-15-17-3.36-38.92-5.39-62.84-5.39A354.5,354.5,0,0,0,46.5,5.55C23.77,9.24,8,15.14,4.62,21.94l.06-.13A15.85,15.85,0,0,0,1.5,31.4c0,14.88,19.14,23.07,47.85,27,15.28,2.08,33.27,2.94,52.53,2.94,19.65,0,38-.79,53.46-2.86,28.19-3.77,46.93-11.79,46.93-27.05A16.7,16.7,0,0,0,198.42,20.65Z" fill="none" stroke="#7850b3" stroke-miterlimit="10" stroke-width="3"/>
        <path d="M154.74,36.81a358.85,358.85,0,0,1-52.86,3.55A362,362,0,0,1,50.31,37c-19.4-2.88-31.86-7.35-31.86-12.36a3.24,3.24,0,0,1,.31-1.35c2.11-4.7,15.23-8.82,34.47-11.43a373,373,0,0,1,48.65-2.95,362.35,362.35,0,0,1,51.61,3.37c19.38,2.88,31.83,7.34,31.83,12.36S173.41,33.92,154.74,36.81Z" fill="none" stroke="#7850b3" stroke-miterlimit="10" stroke-width="3"/>
      </g>
    </g>
  </g>
</svg>
