<svg xmlns="http://www.w3.org/2000/svg" xmlns:xlink="http://www.w3.org/1999/xlink" viewBox="0 0 598.2 204.7"><defs><clipPath id="clip-path" transform="translate(24.9)"><path d="M531.5,162.4v22.7H472.1c-45.7-59.7-132.2-69.3-202-67.2-69.8-2.1-156.3,7.5-202,67.2H8.8V162.4l13.4-44.9c146.5-90.4,349.4-90.4,495.8.1Z" style="fill:none"/></clipPath></defs><g id="Layer_2" data-name="Layer 2"><g id="Layer_1-2" data-name="Layer 1"><g id="na_bridge"><path d="M509.2,102.3a1.1,1.1,0,0,1-.8-.2l-11.9-6.5a1.6,1.6,0,0,1-.8-1.3V70.2a1.6,1.6,0,0,1,.8-1.3l.7-.2.7.2c4,2.1,7.9,4.2,12,6.7a1.3,1.3,0,0,1,.8,1.3v23.9a1.3,1.3,0,0,1-.8,1.3A1,1,0,0,1,509.2,102.3Z" transform="translate(24.9)" style="fill:#f5c98a"/><path d="M497.2,70.2l12,6.7v23.9c-4-2.2-7.9-4.4-12-6.5V70.2m0-3a2.8,2.8,0,0,0-1.5.4,3.1,3.1,0,0,0-1.5,2.6V94.3a3.1,3.1,0,0,0,1.6,2.6l11.9,6.5a2.6,2.6,0,0,0,1.5.4,2.8,2.8,0,0,0,1.5-.4,3,3,0,0,0,1.5-2.6V76.9a3,3,0,0,0-1.5-2.6c-4.1-2.4-8.2-4.7-12-6.7a2.8,2.8,0,0,0-1.5-.4Z" transform="translate(24.9)" style="fill:#8d8d8d"/><path d="M470.3,82.7h-.6c-4.2-1.9-8.1-3.5-11.9-5a1.6,1.6,0,0,1-.9-1.4V51.9a1.6,1.6,0,0,1,.6-1.3l.9-.2h.6l11.9,5.1a1.5,1.5,0,0,1,.9,1.4V81.2a1.5,1.5,0,0,1-.7,1.3A1.1,1.1,0,0,1,470.3,82.7Z" transform="translate(24.9)" style="fill:#f5c98a"/><path d="M458.4,51.9c4,1.6,8,3.3,11.9,5.1V81.2l-11.9-5V51.9m0-3a2.6,2.6,0,0,0-1.7.5,3,3,0,0,0-1.3,2.5V76.2a3,3,0,0,0,1.9,2.8c3.7,1.5,7.6,3.1,11.8,5a2.5,2.5,0,0,0,1.2.2,3.3,3.3,0,0,0,1.7-.4,3.2,3.2,0,0,0,1.3-2.6V57a2.8,2.8,0,0,0-1.8-2.7c-3.8-1.8-7.8-3.5-12-5.2a2,2,0,0,0-1.1-.2Z" transform="translate(24.9)" style="fill:#8d8d8d"/><path d="M431.5,67.7h-.7l-11.7-3.8a1.5,1.5,0,0,1-1.1-1.4V37.9a1.7,1.7,0,0,1,.6-1.2,1.6,1.6,0,0,1,.9-.3h.5c4.2,1.3,8.1,2.5,12,3.9a1.4,1.4,0,0,1,1,1.4V66.2a1.4,1.4,0,0,1-.6,1.2A1.6,1.6,0,0,1,431.5,67.7Z" transform="translate(24.9)" style="fill:#f5c98a"/><path d="M419.5,37.9c4.1,1.2,8,2.5,12,3.9V66.2h-.3l-11.7-3.7V37.9m0-3a2.7,2.7,0,0,0-1.7.6,2.8,2.8,0,0,0-1.3,2.4V62.4a3.1,3.1,0,0,0,2.2,2.9L430.3,69h1.2a3,3,0,0,0,3-3V41.8a3.1,3.1,0,0,0-2.1-2.9l-12-3.9Z" transform="translate(24.9)" style="fill:#8d8d8d"/><path d="M392.6,56.6h-.3l-11.9-2.7a1.6,1.6,0,0,1-1.2-1.5V27.6a1.4,1.4,0,0,1,.5-1.1,1.3,1.3,0,0,1,1-.4h.3c3.9.8,8,1.8,12,2.8a1.3,1.3,0,0,1,1.1,1.4V55.1a1.6,1.6,0,0,1-.5,1.1A1.8,1.8,0,0,1,392.6,56.6Z" transform="translate(24.9)" style="fill:#f5c98a"/><path d="M380.7,27.6l11.9,2.8V55.1l-11.9-2.8V27.6m0-3a3.2,3.2,0,0,0-1.9.7,3,3,0,0,0-1.1,2.3V52.3a3,3,0,0,0,2.4,2.9L391.9,58h.7a3.4,3.4,0,0,0,1.9-.7,3,3,0,0,0,1.1-2.3V30.4a2.9,2.9,0,0,0-2.3-2.9l-12-2.8Z" transform="translate(24.9)" style="fill:#8d8d8d"/><path d="M353.8,48.8h-.3c-3.7-.6-7.7-1.2-11.9-1.7a1.6,1.6,0,0,1-1.3-1.5V20.7a1.4,1.4,0,0,1,.6-1.2,1.4,1.4,0,0,1,.9-.3h.2q6,.8,12,1.8a1.5,1.5,0,0,1,1.3,1.5V47.3a1.4,1.4,0,0,1-.6,1.1A1.5,1.5,0,0,1,353.8,48.8Z" transform="translate(24.9)" style="fill:#f5c98a"/><path d="M341.8,20.7q6,.8,12,1.8V47.3q-6-1-12-1.8V20.7m0-3a2.6,2.6,0,0,0-1.9.7,3,3,0,0,0-1.1,2.3V45.5a3.1,3.1,0,0,0,2.6,3c4.2.5,8.2,1.1,11.9,1.7h.5a2.7,2.7,0,0,0,1.9-.8,2.8,2.8,0,0,0,1.1-2.2V22.5a3.1,3.1,0,0,0-2.5-3l-12.1-1.8Z" transform="translate(24.9)" style="fill:#8d8d8d"/><path d="M314.9,44h-.2c-3.5-.3-7.3-.6-11.8-.8a1.5,1.5,0,0,1-1.4-1.5V16.8a1.6,1.6,0,0,1,.5-1.1,1.2,1.2,0,0,1,1-.4h.1c4.3.3,8.3.5,12,.9a1.4,1.4,0,0,1,1.3,1.5V42.5A1.4,1.4,0,0,1,314.9,44Z" transform="translate(24.9)" style="fill:#f5c98a"/><path d="M303,16.8c4,.2,8,.5,11.9.9V42.5h-.2L303,41.7V16.8m0-3a3.2,3.2,0,0,0-2.1.8,3.1,3.1,0,0,0-.9,2.2V41.7a3,3,0,0,0,2.8,3c4.6.2,8.3.5,11.7.8h.4a2.9,2.9,0,0,0,3-3V17.7a3,3,0,0,0-2.7-3l-12-.9Z" transform="translate(24.9)" style="fill:#8d8d8d"/><path d="M276.1,42.2h-12a1.8,1.8,0,0,1-1-.4,1.6,1.6,0,0,1-.5-1.1V15.8a1.5,1.5,0,0,1,1.5-1.5h12a1.5,1.5,0,0,1,1.5,1.5V40.7a1.6,1.6,0,0,1-.5,1.1,1.5,1.5,0,0,1-1,.4Z" transform="translate(24.9)" style="fill:#f5c98a"/><path d="M270.1,15.8h6V40.7h-12V15.8h6m0-3h-6a3.1,3.1,0,0,0-3,3V40.7a3.1,3.1,0,0,0,.9,2.1,2.9,2.9,0,0,0,2.1.9h12a2.9,2.9,0,0,0,2.1-.9,2.7,2.7,0,0,0,.9-2.1V15.8a3,3,0,0,0-3-3Z" transform="translate(24.9)" style="fill:#8d8d8d"/><path d="M225.3,44a1.3,1.3,0,0,1-1-.4,1.4,1.4,0,0,1-.5-1.1V17.7a1.5,1.5,0,0,1,1.4-1.5c3.6-.4,7.6-.6,11.9-.9h.1a1.4,1.4,0,0,1,1.5,1.5V41.7a1.4,1.4,0,0,1-1.3,1.4H237l-11.6.8Z" transform="translate(24.9)" style="fill:#f5c98a"/><path d="M237.2,16.8V41.7h-.3l-11.6.8V17.7c3.9-.4,7.9-.7,11.9-.9m0-3H237l-12,.9a3,3,0,0,0-2.7,3V42.5a2.6,2.6,0,0,0,1,2.2,2.8,2.8,0,0,0,2,.8h.2l11.6-.8h.5a2.9,2.9,0,0,0,2.6-2.9V16.8a3.1,3.1,0,0,0-.9-2.2,3.2,3.2,0,0,0-2.1-.8Z" transform="translate(24.9)" style="fill:#8d8d8d"/><path d="M186.4,48.8a1.5,1.5,0,0,1-.9-.4,1.4,1.4,0,0,1-.6-1.1V22.5a1.5,1.5,0,0,1,1.3-1.5l12-1.8h.2a1.9,1.9,0,0,1,1,.3,1.7,1.7,0,0,1,.5,1.2V45.5a1.6,1.6,0,0,1-1.3,1.5c-4.2.5-8.2,1.1-11.9,1.7Z" transform="translate(24.9)" style="fill:#f5c98a"/><path d="M198.4,20.7V45.5q-6,.8-12,1.8V22.5q6-1,12-1.8m0-3H198l-12,1.8a3.1,3.1,0,0,0-2.6,3V47.3a2.8,2.8,0,0,0,1.1,2.2,2.7,2.7,0,0,0,1.9.8h.5c3.8-.6,7.7-1.2,11.9-1.7a3,3,0,0,0,2.6-3V20.7a3,3,0,0,0-1.1-2.3,2.6,2.6,0,0,0-1.9-.7Z" transform="translate(24.9)" style="fill:#8d8d8d"/><path d="M147.6,56.6a1.3,1.3,0,0,1-.9-.4,1.4,1.4,0,0,1-.6-1.1V30.4a1.4,1.4,0,0,1,1.1-1.4l12-2.8h.3a1.3,1.3,0,0,1,1,.4,1.4,1.4,0,0,1,.5,1.1V52.3a1.6,1.6,0,0,1-1.2,1.5l-11.9,2.7Z" transform="translate(24.9)" style="fill:#f5c98a"/><path d="M159.5,27.6V52.3l-11.9,2.8V30.4l11.9-2.8m0-3h-.6l-12,2.8a2.9,2.9,0,0,0-2.3,2.9V55.1a3,3,0,0,0,1.1,2.3,3.4,3.4,0,0,0,1.9.7h.7l11.9-2.8a3,3,0,0,0,2.3-2.9V27.6a3,3,0,0,0-1.1-2.3,3.2,3.2,0,0,0-1.9-.7Z" transform="translate(24.9)" style="fill:#8d8d8d"/><path d="M108.7,67.7a1.1,1.1,0,0,1-.8-.3,1.4,1.4,0,0,1-.7-1.2V41.8a1.6,1.6,0,0,1,1.1-1.5l11.9-3.9h.5a1.6,1.6,0,0,1,.9.3,1.4,1.4,0,0,1,.6,1.2V62.4a1.5,1.5,0,0,1-1.1,1.4l-11.9,3.8Z" transform="translate(24.9)" style="fill:#f5c98a"/><path d="M120.7,37.9V62.4l-12,3.8V41.8q6-2.1,12-3.9m0-3h-.9l-12,3.9a3.1,3.1,0,0,0-2.1,2.9V66.2a3.1,3.1,0,0,0,1.3,2.5,3.4,3.4,0,0,0,1.7.5h1l11.9-3.8a3.1,3.1,0,0,0,2.1-2.9V37.9a3,3,0,0,0-1.2-2.4,3.2,3.2,0,0,0-1.8-.6Z" transform="translate(24.9)" style="fill:#8d8d8d"/><path d="M69.9,82.7a1.1,1.1,0,0,1-.8-.2,1.5,1.5,0,0,1-.7-1.3V57a1.4,1.4,0,0,1,.9-1.4q6-2.7,12-5.1l.5-.2a1.6,1.6,0,0,1,.9.3,1.4,1.4,0,0,1,.6,1.2V76.2a1.4,1.4,0,0,1-.9,1.4c-3.8,1.5-7.7,3.1-11.9,5Z" transform="translate(24.9)" style="fill:#f5c98a"/><path d="M81.8,51.8V76.2l-11.9,5V57l11.9-5.2m0-3a2.3,2.3,0,0,0-1.1.3c-4,1.6-8,3.4-12,5.1A3.1,3.1,0,0,0,66.9,57V81.2a3,3,0,0,0,1.4,2.6,2.7,2.7,0,0,0,1.6.4,2.5,2.5,0,0,0,1.2-.2c4.2-1.9,8.1-3.5,11.9-5a3.1,3.1,0,0,0,1.8-2.8V51.8a2.8,2.8,0,0,0-1.3-2.4,2.7,2.7,0,0,0-1.7-.6Z" transform="translate(24.9)" style="fill:#8d8d8d"/><path d="M31,102.3a1,1,0,0,1-.7-.2,1.3,1.3,0,0,1-.8-1.3v-24a1.6,1.6,0,0,1,.8-1.3c4.1-2.3,8.1-4.6,12-6.6a.8.8,0,0,1,.7-.2l.7.2a1.6,1.6,0,0,1,.8,1.3V94.3a1.6,1.6,0,0,1-.8,1.3c-4.1,2.1-8.1,4.3-11.9,6.5A1.1,1.1,0,0,1,31,102.3Z" transform="translate(24.9)" style="fill:#f5c98a"/><path d="M43,70.2V94.3c-4.1,2.1-8,4.3-12,6.5v-24c4-2.2,7.9-4.5,12-6.6m0-3a3.2,3.2,0,0,0-1.4.3L29.5,74.2A3.2,3.2,0,0,0,28,76.8v24a3,3,0,0,0,1.5,2.6,2.8,2.8,0,0,0,1.5.4,2.4,2.4,0,0,0,1.5-.4l11.9-6.5A2.9,2.9,0,0,0,46,94.3V70.2a3.1,3.1,0,0,0-1.5-2.6,2.8,2.8,0,0,0-1.5-.4Z" transform="translate(24.9)" style="fill:#8d8d8d"/><path d="M14.9,84.6l-.7-.2a1.6,1.6,0,0,1-.8-1.4l.5-12.7a1.4,1.4,0,0,1,.2-.7l.6-1.1a1.2,1.2,0,0,1,.5-.5C46.7,49,82,33.7,120.3,22.5a554,554,0,0,1,151.1-21c86.8,0,170.3,20.6,241.5,59.5h.1a63,63,0,0,0,7.6,4.3c5.9,2.9,5.9,3.8,5.7,14.4v.8a2.7,2.7,0,0,1-2.7,2.7h0a2.6,2.6,0,0,1-1.5-.4c-8.3-5.2-16.9-10.1-25.5-14.7A431,431,0,0,0,434,41.2C385.4,24.5,333.2,15.6,279,14.7h-8.7c-94.8,0-182.9,24.1-254.6,69.7Z" transform="translate(24.9)" style="fill:#e6e7e8"/><path d="M271.4,3c83.7,0,167.4,19.2,240.8,59.3,13,8.4,12.9,2.8,12.5,18.1a1.2,1.2,0,0,1-1.2,1.3.8.8,0,0,1-.7-.2c-8.3-5.2-16.8-10.1-25.6-14.7a429.8,429.8,0,0,0-62.7-27.1c-49.9-17-102.7-25.6-155.4-26.5h-8.8C181,13.2,90.6,35,14.9,83.1l.5-12.8.6-1C48.6,49.6,84.1,34.6,120.7,23.9A554.3,554.3,0,0,1,271.4,3m0-3A553.6,553.6,0,0,0,119.9,21.1C81.5,32.3,46,47.6,14.4,66.7a3.6,3.6,0,0,0-1,1.1l-.2.3-.4.7a2.3,2.3,0,0,0-.4,1.4L11.9,83a3.1,3.1,0,0,0,1.5,2.7,2.8,2.8,0,0,0,1.5.4,3,3,0,0,0,1.6-.5C88,40.2,175.8,16.2,270.3,16.2H279c54.1.9,106,9.8,154.5,26.4a428.2,428.2,0,0,1,62.3,26.8c8.6,4.6,17.1,9.5,25.4,14.7a4.6,4.6,0,0,0,2.3.6,4.2,4.2,0,0,0,4.2-4.2v-.8c.2-10.7.3-12.4-6.5-15.7a76.3,76.3,0,0,1-7.5-4.2h-.2C442.2,20.6,358.5,0,271.4,0Z" transform="translate(24.9)" style="fill:#8d8d8d"/><path d="M20.6,72.2C139.7-.8,300.4-10.2,432.3,32.1a429,429,0,0,1,86.5,39c4.4,7.4-16.5-7.3-18.5-7.5a427.1,427.1,0,0,0-39.4-18.3C349.1.4,220.9-2.4,106.6,35.2A443.9,443.9,0,0,0,39.9,63.6C36.2,64.6,20.2,76.8,20.6,72.2Z" transform="translate(24.9)" style="fill:#fff"/><path d="M457.7,145.9a1.6,1.6,0,0,1-1.4-.8C417.8,71.9,325.9,64,288.2,64c-6,0-12,.2-18,.5H270c-6-.3-12-.5-18-.5-37.7,0-129.6,7.9-168.1,81.1a1.6,1.6,0,0,1-1.3.8H15.5a1.4,1.4,0,0,1-1.5-1.5V113.9a1.4,1.4,0,0,1,.7-1.3A456.8,456.8,0,0,1,137,59.2a506.5,506.5,0,0,1,266.2,0,456.8,456.8,0,0,1,122.3,53.4,1.5,1.5,0,0,1,.7,1.3v30.5a1.4,1.4,0,0,1-1.5,1.5Z" transform="translate(24.9)" style="fill:#e6e7e8"/><path d="M270.1,42.9c89.7,0,179.4,23.7,254.6,71v30.5h-67c-32-60.8-104-81.9-169.5-81.9-6.1,0-12.1.2-18.1.5s-12-.5-18.1-.5c-65.5,0-137.5,21.1-169.4,81.9H15.5V113.9c75.2-47.3,164.9-71,254.6-71m0-3v0A505.5,505.5,0,0,0,136.6,57.7,459.8,459.8,0,0,0,13.9,111.3a3,3,0,0,0-1.4,2.6v30.5a2.9,2.9,0,0,0,3,3H82.6a2.9,2.9,0,0,0,2.6-1.6C123.3,73.3,214.5,65.5,252,65.5c5.9,0,12,.2,17.9.5h.4c5.9-.3,12-.5,17.9-.5,37.5,0,128.7,7.8,166.8,80.3a2.9,2.9,0,0,0,2.7,1.6h67a2.9,2.9,0,0,0,3-3V113.9a3,3,0,0,0-1.4-2.6A459.8,459.8,0,0,0,403.6,57.7,505.5,505.5,0,0,0,270.1,39.9Z" transform="translate(24.9)" style="fill:#8d8d8d"/><path d="M461.3,140.5C424.2,74.2,341.1,55.1,270.1,59.1c-70.9-4-154.2,15.1-191.2,81.4H20.7V115.6c147.1-91.7,351.7-91.7,498.8.1v24.8Z" transform="translate(24.9)" style="fill:#fff"/><g style="clip-path:url(#clip-path)"><path d="M93.7,169.3c31.8.4,419.2-.5,438.2,0,3.1-36.7.8-96.4,2.1-135.5C369.1,51.7,180.5,41,16.2,49.4,4.4,210.3-3.3,162.4,93.7,169.3Z" transform="translate(24.9)" style="fill:#d8a960"/><path d="M375.4,187.3c-.4,0-.6-.5-.6-1.2v-.7L340.6,48.7a2.4,2.4,0,0,1,.1-1.2c.1-.4.3-.6.5-.6l52.1-.6a.7.7,0,0,1,.5.4l58.3,137.6a2.4,2.4,0,0,1,.2.8v.6a2.9,2.9,0,0,1-.2.9c-.2.2-.3.4-.5.3l-76.2.4Zm-33.2-138L376,184.5v.4l74.5-.4L393,48.8Z" transform="translate(24.9)" style="fill:#a8662f;stroke:#a8662f;stroke-miterlimit:10;stroke-width:2px"/><path d="M101.3,187.6h0c-19.8-.2-36.3-.3-49-.6h0l-13.2-.2c-.2,0-.4-.2-.5-.6a1.9,1.9,0,0,1,.1-1.3L92.1,48.8c.1-.3.3-.5.5-.5H139l.4.2,1.3,2a1.9,1.9,0,0,1,.1,1.5l-38.9,135C101.8,187.3,101.5,187.6,101.3,187.6Zm-49-3c12.7.2,29.1.4,48.7.5L139.5,51.7l-.8-1H92.9L40.4,184.4Z" transform="translate(24.9)" style="fill:#a8662f;stroke:#a8662f;stroke-miterlimit:10;stroke-width:2px"/><path d="M125.6,187.7H101.3c-.2,0-.4-.3-.5-.6a2.4,2.4,0,0,1,0-1.2L139.5,51.7l-.9-1.3a2,2,0,0,1-.2-1.4c.1-.5.3-.8.6-.8l62.1-.3h0c.2,0,.4.2.5.6a2,2,0,0,1,.1,1.1L172.1,187c-.1.5-.4.8-.7.8Zm-23.2-2.6,68.7.2L200.2,50.4l-59.4.3a2.4,2.4,0,0,1,0,1.2Z" transform="translate(24.9)" style="fill:#a8662f;stroke:#a8662f;stroke-miterlimit:10;stroke-width:2px"/><path d="M39.1,186.8h0l-62.4-.6c-.3,0-.5-.3-.6-.7a1.8,1.8,0,0,1,.2-1.3L35.1,50.7a2.3,2.3,0,0,1-.3-1.3c.1-.5.4-.9.7-.9L83,48.2h9.6a.6.6,0,0,1,.5.6,2.9,2.9,0,0,1,0,1.3L39.7,186.3C39.5,186.6,39.3,186.8,39.1,186.8Zm-61-3.1c19.2.1,39.7.3,60.8.7L91.3,50.7H82.9c-12.1,0-27.7,0-46.3.2,0,.1,0,.1-.1.2Z" transform="translate(24.9)" style="fill:#a8662f;stroke:#a8662f;stroke-miterlimit:10;stroke-width:2px"/><path d="M171.4,187.8c-.2,0-.3-.2-.5-.6a2,2,0,0,1,0-1.1L200.5,48.7c.1-.5.4-.8.6-.8l47.6-.3h0c.2,0,.3.2.4.4a1.6,1.6,0,0,1,.2,1l-9.6,137.6c0,.6-.3,1.1-.6,1.1Zm67.7-1.3ZM201.5,50.4,172.4,185.3h66.2l9.3-135.2Z" transform="translate(24.9)" style="fill:#a8662f;stroke:#a8662f;stroke-miterlimit:10;stroke-width:2px"/><path d="M303.3,187.6c-.3,0-.6-.5-.6-1.2h0L291.5,48.8a2.5,2.5,0,0,1,.2-1c.1-.3.3-.5.5-.5l49-.4h0q.4,0,.6.6l34.2,137c0,.2.1.3,0,.5v1.1a1.1,1.1,0,0,1-.2.8c-.1.3-.3.4-.4.4l-72.1.3ZM292.9,49.8l11,135.3,70.8-.2L340.8,49.3Z" transform="translate(24.9)" style="fill:#a8662f;stroke:#a8662f;stroke-miterlimit:10;stroke-width:2px"/><path d="M518.5,171.1c-.2,0-.5-.4-.5-1v-.6l-63.8-119a2.4,2.4,0,0,1-.1-1.2c0-.4.2-.7.4-.7l45.2-2.9c.1-.1.2,0,.3.2l72.1,120.3a2.7,2.7,0,0,1,.1,1.3c0,.4-.2.7-.4.7H571l-52.5,2.9ZM455.8,50.7l63,117.5a1.5,1.5,0,0,1,.1.7l51.5-2.8L499.6,47.9Z" transform="translate(24.9)" style="fill:#a8662f;stroke:#a8662f;stroke-miterlimit:10;stroke-width:2px"/><path d="M451.6,186.9c-.3,0-.6-.5-.6-1.1v-.2L392.8,48.3a1.8,1.8,0,0,1-.1-1.3c.1-.4.4-.7.6-.7l58.8-.7a.5.5,0,0,1,.4.3l.2.4,75.6,137a1.1,1.1,0,0,1,.2.8v1.2a1.9,1.9,0,0,1-.2.8c-.1.3-.3.4-.4.4l-76.3.4Zm-57-138.2,57.5,135.6v.2l74.7-.4L451.8,48Z" transform="translate(24.9)" style="fill:#a8662f;stroke:#a8662f;stroke-miterlimit:10;stroke-width:2px"/><path d="M239.1,160.8c-.2,0-.3-.1-.5-.3a1.9,1.9,0,0,1-.1-.8L248,48.5c.1-.5.4-.9.7-.9l43.5-.3h0c.3,0,.5.3.6.8L304,159.4v.2a1.4,1.4,0,0,1-.2.7.7.7,0,0,1-.5.4ZM249.2,49.6l-9.4,109.2h62.8l-11-109.4Z" transform="translate(24.9)" style="fill:#a8662f;stroke:#a8662f;stroke-miterlimit:10;stroke-width:2px"/></g><path d="M531.5,162.4v22.7H472.1c-45.7-59.7-132.2-69.3-202-67.2-69.8-2.1-156.3,7.5-202,67.2H8.8V162.4l13.4-44.9c146.5-90.4,349.4-90.4,495.8.1Z" transform="translate(24.9)" style="fill:none;stroke:#a8662f;stroke-linecap:round;stroke-linejoin:round;stroke-width:3px"/><path d="M537.2,169.6v32.1H466.8c-36.6-69.8-123.5-89.7-196.7-85.4C196.9,112,110,131.9,73.4,201.7H3V169.6C160.9,70.4,379.3,70.4,537.2,169.6Z" transform="translate(24.9)" style="fill:#e6e7e8"/><path d="M470.6,197.6c-38.8-69.6-126-89.6-200.5-85.4-74.3-4.3-161.7,15.8-200.5,85.4H8.5V171.5c154.3-96.2,368.9-96.2,523.2,0v26.1Z" transform="translate(24.9)" style="fill:#fff"/><path d="M270.1,95.2c94.1,0,188.2,24.8,267.1,74.4v32.1H466.8c-33.5-63.8-109-85.9-177.7-85.9-6.4,0-12.8.1-19,.5s-12.6-.5-19-.5c-68.6,0-144.2,22.1-177.7,85.9H3V169.6C82,120,176,95.2,270.1,95.2m0-3a529.2,529.2,0,0,0-140,18.7A479.4,479.4,0,0,0,1.4,167.1,2.9,2.9,0,0,0,0,169.6v32.1a2.9,2.9,0,0,0,3,3H73.4a2.9,2.9,0,0,0,2.6-1.6c40-76.1,135.8-84.3,175.1-84.3,6.3,0,12.6.1,18.8.5h.4c6.2-.4,12.6-.5,18.8-.5,39.3,0,135.1,8.2,175.1,84.3a2.9,2.9,0,0,0,2.6,1.6h70.4a2.9,2.9,0,0,0,3-3V169.6a2.9,2.9,0,0,0-1.4-2.5,476.6,476.6,0,0,0-128.7-56.2,529.2,529.2,0,0,0-140-18.7Z" transform="translate(24.9)" style="fill:#95a4bc"/></g></g></g></svg>