<svg xmlns="http://www.w3.org/2000/svg" xmlns:xlink="http://www.w3.org/1999/xlink" width="73.47" height="41.04" viewBox="0 0 73.47 41.04">
  <defs>
    <clipPath id="clip-path">
      <ellipse cx="36.65" cy="9.8" rx="26.53" ry="5.48" fill="none"/>
    </clipPath>
  </defs>
  <g id="Layer_2" data-name="Layer 2">
    <g id="Layer_1-2" data-name="Layer 1">
      <g id="fo_water_bowl" data-name="fo_water bowl">
        <g>
          <g>
            <path d="M65.47,10.55A6.35,6.35,0,0,0,62,6.35C58.59,4.78,51.47,2.94,36.74,3c-15-.06-22.07,1.83-25.4,3.42A6.29,6.29,0,0,0,8,10.55L3.08,30a2.86,2.86,0,0,0,2,3.32c8.47,3.23,18.88,5,31.68,4.73,16.15-.4,19.77-.61,31.67-4.73a2.83,2.83,0,0,0,2-3.32Z" fill="#9be3bb"/>
            <g clip-path="url(#clip-path)">
              <ellipse cx="36.65" cy="9.8" rx="26.53" ry="5.48" fill="#72b75b"/>
              <ellipse cx="36.65" cy="12.8" rx="26.53" ry="5.48" fill="#98d9e4" stroke="#5576b4" stroke-miterlimit="10" stroke-width="2"/>
            </g>
          </g>
          <g>
            <path d="M45.87,31.51s.45-3.67-2-4.54-4.62-1.68-5.29-2.31-3.33-.67-4,.41-.54,2.71-1.46,5-1.21,3.81,1.11,4.71,4.25-2.71,6.21-2.78S44.47,33.43,45.87,31.51Z" fill="#f1f2f2"/>
            <path d="M30.74,29.14a1.93,1.93,0,0,0,1.74-2.28,1.14,1.14,0,0,0-.44-.74c-.86-.58-2.82-2.27-4.15-.86C26.82,26.4,28.6,29.29,30.74,29.14Z" fill="#f1f2f2"/>
            <path d="M37.83,22.14a1.94,1.94,0,0,0,2.91-.53,1.09,1.09,0,0,0,.14-.81c-.26-1-.6-3.56-2.53-3.39C36.82,17.55,36.22,20.8,37.83,22.14Z" fill="#f1f2f2"/>
            <path d="M42.27,24a1.87,1.87,0,0,0,2.74.76,1,1,0,0,0,.46-.64c.2-1,1-3.34-.77-4C43.32,19.63,41.44,22.2,42.27,24Z" fill="#f1f2f2"/>
            <path d="M33.25,23.67a1.9,1.9,0,0,0,1.9-1.13c.65-1.32-2-4.7-3.73-3.12S32.22,23.57,33.25,23.67Z" fill="#f1f2f2"/>
          </g>
        </g>
        <path d="M36,3h1.51C51.72,3,58.65,4.8,62,6.35a6.35,6.35,0,0,1,3.48,4.2L70.39,30a2.83,2.83,0,0,1-2,3.32C56.51,37.39,52.89,37.6,36.74,38c-1,0-1.91,0-2.85,0-11.5,0-21-1.79-28.83-4.77a2.86,2.86,0,0,1-2-3.32L8,10.55a6.29,6.29,0,0,1,3.34-4.13C14.62,4.86,21.54,3,36,3m1.51-3H36c-12,0-20.77,1.25-25.93,3.71a9.24,9.24,0,0,0-5,6.1L.17,29.21A5.84,5.84,0,0,0,4,36.07c8.65,3.3,18.71,5,29.9,5,1,0,1.94,0,2.92,0,16.38-.4,20.28-.64,32.58-4.9a5.83,5.83,0,0,0,3.91-6.89L68.38,9.81a9.28,9.28,0,0,0-5.13-6.18C58.06,1.22,49.4,0,37.49,0Z" fill="#4a8c32"/>
      </g>
    </g>
  </g>
</svg>
