<svg xmlns="http://www.w3.org/2000/svg" width="65.27" height="108.95" viewBox="0 0 65.27 108.95">
  <g id="Layer_2" data-name="Layer 2">
    <g id="Layer_1-2" data-name="Layer 1">
      <g id="na_duck">
        <g>
          <path d="M49,104.18a2.47,2.47,0,0,1-1.73-.89,12.83,12.83,0,0,0-4.32-3.46,9.93,9.93,0,0,1-1.54-.89,2.43,2.43,0,0,1-.82-2.72,3.37,3.37,0,0,0,.08-.81,16,16,0,0,0-1.84-7L38.08,87l5.36-.2.2.79c.36,1.41.63,2.57.85,3.52.17.76.32,1.39.45,1.88.37,1.38.37,1.38,1.23,1.72a15.76,15.76,0,0,0,2.35.6,18.39,18.39,0,0,1,6.09,2.09c1.08.68,1,1.48.9,1.79a1.75,1.75,0,0,1-1.63,1.12,1.48,1.48,0,0,1,.07,1.22,1.54,1.54,0,0,1-1.57.89,4.13,4.13,0,0,1-1.28-.23l-.74-.26a2,2,0,0,1-.21,1.66A1.44,1.44,0,0,1,49,104.18Z" fill="#ffaa5a"/>
          <path d="M42.67,87.81c.65,2.57,1,4.31,1.31,5.42.49,1.86.7,1.94,1.83,2.39,1.82.73,5.53.89,8.27,2.61.94.59.37,1.07-.52,1.07a1.84,1.84,0,0,1-.4,0c-1.27-.19-1.81-.29-1.81-.29s.51.44,1,.91c1.1,1.09.77,1.51,0,1.51a3,3,0,0,1-1-.18,11.71,11.71,0,0,0-2.17-.66.31.31,0,0,0-.21.06c-.16.13,0,.61.24,1.16.34,1,.11,1.4-.32,1.4a1.52,1.52,0,0,1-1-.57c-3.44-3.69-4.32-3.27-6-4.48-1-.68-.26-1.67-.32-2.77a17,17,0,0,0-2-7.44l3-.11m1.54-2-1.61,0-3,.11L36.49,86l1.41,2.78a15.09,15.09,0,0,1,1.73,6.64,3,3,0,0,1-.07.59,3.44,3.44,0,0,0,1.23,3.71,11.66,11.66,0,0,0,1.68,1,12.18,12.18,0,0,1,4,3.24A3.42,3.42,0,0,0,49,105.18a2.41,2.41,0,0,0,2-1,2.45,2.45,0,0,0,.39-.86,4.68,4.68,0,0,0,1,.12,2.57,2.57,0,0,0,2.5-1.51,2.27,2.27,0,0,0,.18-.88,2.43,2.43,0,0,0,1.41-1.56,2.52,2.52,0,0,0-1.32-2.91,19.33,19.33,0,0,0-6.42-2.23,14.47,14.47,0,0,1-2.18-.55l-.37-.14c0-.14-.14-.4-.27-.91s-.27-1.08-.45-1.85c-.22-.94-.49-2.12-.85-3.54l-.4-1.56Z" fill="#ff8d3d"/>
        </g>
        <g>
          <path d="M28.07,108c-.83,0-1.54-.73-1.86-1.89l0-.11c-.62-2.26-1-3.5-1.72-4.24a2.72,2.72,0,0,1-.57-2.84c.05-.24.11-.49.14-.75a36.19,36.19,0,0,0-1-9.69l-.37-1.51,5.24,1,0,.79a51.6,51.6,0,0,0,.66,7.82c.22,1,.33,1.06.66,1.16l.21.06,1,.3a15.08,15.08,0,0,1,7.25,3.84,1.62,1.62,0,0,1,.52,1.82,1.52,1.52,0,0,1-1.53.87,3.4,3.4,0,0,1-1.21-.25c-.29-.12-.72-.29-1.06-.39l.08.54a2.63,2.63,0,0,1-.35,2.21,1.4,1.4,0,0,1-1.07.48,3,3,0,0,1-1.88-.91l-.1-.08c-.41-.35-.9-.76-1.24-1-.05.18-.11.45-.18.85C29.42,107.76,28.47,108,28.07,108Z" fill="#ffaa5a"/>
          <path d="M24,88.2l2.93.58a52.39,52.39,0,0,0,.68,8c.39,1.77.86,1.74,1.54,2,1.87.61,5.19,1.14,7.84,3.88.62.65.31,1-.29,1a2.31,2.31,0,0,1-.84-.18A5.84,5.84,0,0,0,34,102.9a.84.84,0,0,0-.45.12c-.33.19-.16.87-.05,1.64.17,1.15,0,1.55-.43,1.55a2.46,2.46,0,0,1-1.24-.68c-1-.84-1.75-1.48-2.23-1.48h-.07c-.48.06-.67.85-.84,1.85-.13.73-.39,1-.66,1s-.71-.47-.89-1.15c-.69-2.5-1.05-3.86-2-4.81s-.23-1.68-.14-2.79a37.25,37.25,0,0,0-1-10m-2.67-2.57.72,3A35.31,35.31,0,0,1,23,98a4,4,0,0,1-.11.61,3.64,3.64,0,0,0,.84,3.78c.54.53.84,1.55,1.46,3.8l0,.11c.44,1.61,1.52,2.62,2.82,2.62a2.57,2.57,0,0,0,2.44-2l.08.07a4.1,4.1,0,0,0,2.52,1.14,2.34,2.34,0,0,0,1.82-.83,3,3,0,0,0,.67-1.93,4.06,4.06,0,0,0,1.12.17,2.55,2.55,0,0,0,2.45-1.48,2.59,2.59,0,0,0-.72-2.9,15.93,15.93,0,0,0-7.7-4.12l-1-.28-.09,0c0-.1-.07-.25-.12-.46A53.2,53.2,0,0,1,29,88.71l-.06-1.58-1.55-.31-2.93-.58-3.06-.61Z" fill="#ff8d3d"/>
        </g>
        <path d="M46.06,85.25a5.38,5.38,0,0,1-1,3.72c-1.06,1.13-5.54,2.14-6.82,1.47-.92-.48-1.41-1.91-1.85-2.83Z" fill="#4f3332"/>
        <g>
          <path d="M27.27,92.05c-1.58,0-4.95-.34-6.4-1.6a4.33,4.33,0,0,1-1.22-2c-.49-.22-.93-.44-1.34-.66A24.3,24.3,0,0,1,6.63,73.43C3.41,70.35,2,67.67,2.44,65.66a2.84,2.84,0,0,1,.45-1c-1.41-2.81-1.75-4.88-1-6.16a2.51,2.51,0,0,1,.74-.78c-.61-1.8-1-4-.13-5.46A2.53,2.53,0,0,1,4.69,51c1.25,0,2.72.77,4.64,2.44a13.77,13.77,0,0,0,9.42,3.34,25,25,0,0,0,3.44-.26C30,55.41,37.4,53.3,39.4,45.69l.25-.94,12.15-2,.52.88c7,11.73,9.18,22,6.41,30.5a22.77,22.77,0,0,1-13,13.84,37.07,37.07,0,0,1-14.24,2.88h-.25a4.37,4.37,0,0,1-1.38.88A7.52,7.52,0,0,1,27.27,92.05Z" fill="#5f493f"/>
          <path d="M51,44.36c14.81,24.77,4.29,37.85-5.9,42.19a35.32,35.32,0,0,1-13.65,2.76H30.6a3.11,3.11,0,0,1-1.28,1,6.27,6.27,0,0,1-2.05.26c-2,0-4.53-.46-5.41-1.23a3.43,3.43,0,0,1-.93-2,18.34,18.34,0,0,1-1.9-.9A22.91,22.91,0,0,1,8,72.61c-4.69-4.36-4.78-7.08-3.14-7.55-2.24-4-2.26-6.22-.84-6.22A2.26,2.26,0,0,1,4.8,59c-1.29-2.48-2.1-6.49-.11-6.49.77,0,1.94.59,3.66,2.07a15.16,15.16,0,0,0,10.4,3.71A24.72,24.72,0,0,0,22.41,58c7.15-1.06,16.12-3.14,18.44-12L51,44.36m1.52-3.3-2,.34L40.35,43.11l-1.91.33L38,45.31c-1.78,6.77-8.73,8.69-16,9.76a21.92,21.92,0,0,1-3.22.25,12.15,12.15,0,0,1-8.44-3c-2.24-1.94-4-2.8-5.62-2.8a4,4,0,0,0-3.48,2c-1,1.7-.79,4-.29,5.78a4.07,4.07,0,0,0-.33.48c-.95,1.63-.75,3.89.62,6.86a4.41,4.41,0,0,0-.23.7c-.61,2.53.85,5.53,4.33,8.93A25.8,25.8,0,0,0,17.6,89.08c.27.15.55.29.85.43a5.44,5.44,0,0,0,1.43,2.07c2.19,1.91,6.86,2,7.39,2a8.78,8.78,0,0,0,3.12-.46,5.45,5.45,0,0,0,1.39-.78,38.65,38.65,0,0,0,14.54-3A24.46,24.46,0,0,0,60.16,74.56c2.91-8.94.7-19.62-6.55-31.74l-1-1.76Z" fill="#3f312a"/>
        </g>
        <g>
          <path d="M16.56,73.68c7.39,1.48,15,1.57,21.13-3.05,2.15-1.61,3-.93.63,1-6.31,5.18-14.23,5-21.94,3.5C15.44,75,15.61,73.49,16.56,73.68Z" fill="#4f3332"/>
          <path d="M10.9,66.23c-.71-4.5,10.56-11.65,21.64-12.12l8.11,12.77c-2.87,4.88-16.58,12.35-26.34,7.62a5.32,5.32,0,0,1-3-3C8.16,70.24,8.93,67.78,10.9,66.23Z" fill="#936861"/>
          <path d="M21.86,62.9a34.56,34.56,0,0,0-11,3.3,3.26,3.26,0,0,1,.3-1.82,36.25,36.25,0,0,1,10.26-2.93C22.41,61.32,22.82,62.77,21.86,62.9Z" fill="#a87f7b"/>
          <path d="M26.51,69.47a.75.75,0,0,1,.4,1.45,66.09,66.09,0,0,1-14.74,2,4.34,4.34,0,0,1-.86-1.46A67.38,67.38,0,0,0,26.51,69.47Z" fill="#a87f7b"/>
          <path d="M24.56,55.26A46.15,46.15,0,0,1,37.31,53l4.08,13.76C40.1,68.92,34.64,74.28,28,74.31c-4.35,0-6.54-1.56-5.55-3.19-8.34-.89-8.17-6.56-4-9C16.49,60.72,17.88,57.36,24.56,55.26Z" fill="#5f493f"/>
        </g>
        <path d="M37.31,53a46.15,46.15,0,0,0-12.75,2.28A18.25,18.25,0,0,0,20.5,57c-5.87,2.6-10,6.41-9.6,9.2-2,1.55-2.74,4,.41,5.26a5.32,5.32,0,0,0,3,3C19.51,77,25.82,76.08,31,73.91a18.63,18.63,0,0,0,10.36-7.17" fill="none" stroke="#3f312a" stroke-linecap="round" stroke-linejoin="round" stroke-width="3"/>
        <g>
          <path d="M46.39,53.43c-1.63,0-3-1.25-3.83-3.3a2.66,2.66,0,0,1-1,.2h0a2.43,2.43,0,0,1-1.77-.78c-.8-.87-1.11-2.31-1-4.4A68.91,68.91,0,0,0,37.76,30c-.92-6.3-1.87-12.81-.44-19.63A10.61,10.61,0,0,1,47.72,1.5c5.08,0,10.48,3.74,11.11,12.09.43,5.72-2.64,9.33-8.64,10.17-.18,0-.63.09-.9.15,0,.29,0,.76-.06,1-.23,8,1.53,12.37,3.56,17.45.21.54.43,1.08.65,1.63.62,1.58.62,2.84,0,3.75a2.48,2.48,0,0,1-2.09,1,3.59,3.59,0,0,1-1.18-.21,6.69,6.69,0,0,1-1.51,3.81A3.1,3.1,0,0,1,46.39,53.43Z" fill="#3b7e82"/>
          <path d="M47.72,3c4.5,0,9.07,3.42,9.62,10.71.33,4.48-1.69,7.77-7.36,8.57-2.08.29-2.18.45-2.25,2.6-.26,9.13,2,13.8,4.31,19.67.75,1.91.23,2.75-.69,2.75a3.76,3.76,0,0,1-2.6-1.59c.24,4.29-1,6.22-2.36,6.22s-2.71-1.77-3-5c-.3,1.06-1.08,1.85-1.78,1.85s-1.43-.95-1.23-3.57c.89-12.09-4-22.8-1.54-34.59A9.13,9.13,0,0,1,47.72,3m0-3C41.88,0,37.11,4,35.85,10.06c-1.48,7.08-.51,13.73.43,20.15.73,5,1.43,9.8,1.06,14.83-.19,2.53.25,4.34,1.36,5.53a3.87,3.87,0,0,0,2.86,1.26h.15a5.55,5.55,0,0,0,4.68,3.1,4.61,4.61,0,0,0,3.36-1.5,7.07,7.07,0,0,0,1.63-3.13,3.93,3.93,0,0,0,3.3-1.71c.91-1.34,1-3.07.15-5.14-.21-.55-.43-1.1-.65-1.63-2-5.09-3.64-9.11-3.45-16.62,6.59-1,10.08-5.3,9.6-11.72C59.63,4.22,53.3,0,47.72,0Z" fill="#28575c"/>
        </g>
        <path d="M44.68,15.44c-.43,2.06-4.19.94-3.45-1.23S45.13,13.3,44.68,15.44Z" fill="#64adab"/>
        <path d="M54.53,13.84c-1,1.19-1.65,2.58-3,3.35-2.72,1.57-1.93,3-.69,4,1.94,1.56,6.54,3.2,11.32,2.84,2.33-.17,2.5-1.22,1.5-2A18.88,18.88,0,0,1,58,14.24C57,12.19,56.11,12,54.53,13.84Z" fill="#ffaa5a" stroke="#ff8d3d" stroke-miterlimit="10" stroke-width="2"/>
        <path d="M50,18.54a3.44,3.44,0,0,1,.87-.9c2.58,3.56,10.82,6.3,13.14,4.64a.76.76,0,0,1-.12,1.25C61.5,25,52.65,22.42,50,18.54Z" fill="#ea7500"/>
        <g>
          <path d="M48.12,15a3.72,3.72,0,1,1,2.63-1.09A3.73,3.73,0,0,1,48.12,15Z" fill="#72b75b"/>
          <path d="M48.12,7.88a3.43,3.43,0,0,1,2.43,5.84h0a3.43,3.43,0,1,1-2.42-5.85m0-.6a4,4,0,1,0,4,4A4,4,0,0,0,48.12,7.28Z" fill="#fff"/>
          <circle cx="48.12" cy="11.3" r="2.2" fill="#424242"/>
          <circle cx="46.9" cy="10.65" r="0.52" fill="#fcfcfc"/>
        </g>
      </g>
    </g>
  </g>
</svg>
