<svg xmlns="http://www.w3.org/2000/svg" width="354.67" height="316.07" viewBox="0 0 354.67 316.07">
  <g id="Layer_2" data-name="Layer 2">
    <g id="Layer_1-2" data-name="Layer 1">
      <g id="na_horse">
        <path d="M353.49,241c-20.79-42.6-10.18-83.71-23.38-102.38,1-.47,1.26-1.9-.87-5-5.33-7.84-28.87-21.1-50.1-5.79l10.92,10c10.61-1.7,16.86,7.39,17.8,18.15,1.76,20-5.49,65.84,10.29,91,9,14.36,16.19,11.73,15.64,2.62,10.84,19.54,20.33,12.59,16.28-1C355,249.74,355.68,245.52,353.49,241Z" fill="#371b0c"/>
        <g>
          <path d="M131.52,196.42,91,158.28c-6,39.17,13.12,70.36,8.46,120.67a60.85,60.85,0,0,1-4.27,17.13c3.82,7.21,23.33,8.26,29.15.35C128,269.81,126.41,214.61,131.52,196.42Z" fill="#ffe8cc" stroke="#ddab88" stroke-miterlimit="10" stroke-width="3"/>
          <path d="M95.21,296.08c-1.47,3.77-3.24,7.67-4.09,10.06-2.08,5.84,28.38,6.05,30.66.75a39.93,39.93,0,0,0,2.58-10.46C116.31,300.55,99.64,299.45,95.21,296.08Z" fill="#6a3417" stroke="#371b0c" stroke-miterlimit="10" stroke-width="3"/>
        </g>
        <g>
          <path d="M273.77,209.81c10.56-34.59,12.7-52.48,8.1-65.65l-61.74,31.63c-4,38,21.26,61.77,25.19,74.72,2.66,8.79,1,19.43-1.83,28.89,1.4,9.26,21.25,10.75,28-2.42a265.82,265.82,0,0,0,3.41-27.7C275.75,237.14,267.5,230.35,273.77,209.81Z" fill="#a8662f" stroke="#75411a" stroke-miterlimit="10" stroke-width="3"/>
          <path d="M237.77,295c4.73,5.28,23,5.3,29.76-.3,1.39-4.85,2.77-10.92,4-17.71,1.3-8.07-7.68-13.17-13.25,4.39.6-4.32-2.42-9-6.33-3.88-.67-7.93-6.52-4.3-8.44,1.91A148,148,0,0,1,237.77,295Z" fill="#f9cd9d" stroke="#af7553" stroke-miterlimit="10" stroke-width="3"/>
          <path d="M234.31,303c-2.17,5.84,28.1,5,30.47-.35a63.44,63.44,0,0,0,2.75-7.92c-9.49,3.77-23.45,3.23-29.76.3C236.39,298.25,234.79,301.68,234.31,303Z" fill="#6a3417" stroke="#371b0c" stroke-miterlimit="10" stroke-width="3"/>
        </g>
        <path d="M71.26,99.53c11.72,33.76.08,92.64,27.59,114.05,34.08,26.52,129.18,13.69,154.61-2.8l50.13-55.24c-5.85-29.65-39.09-47.33-77.12-42.28-35.69,4.74-51.45,3.39-72.27-6.74-30.23-14.7-46-67.62-46-67.62Z" fill="#ce894a" stroke="#a8662f" stroke-miterlimit="10" stroke-width="3"/>
        <path d="M117.2,204.55c-2-6-3.6-5-2.2.38,1.65,6.36,3.65,12.67,5.83,18.92,1.07.3,2.16.58,3.27.85C121.72,218,119.46,211.29,117.2,204.55Z" fill="#b55709"/>
        <path d="M246.77,196.54c-2-6-3.61-5-2.21.39a68.13,68.13,0,0,0,6.37,15.36c.85-.47,1.65-.95,2.39-1.42A83,83,0,0,1,246.77,196.54Z" fill="#b55709"/>
        <path d="M157.53,215.65c-.79-6.29-2.55-5.62-2.24-.06.25,4.37.66,8.75,1.17,13.12l2.78.07Q158.36,222.23,157.53,215.65Z" fill="#b55709"/>
        <path d="M93.37,99.73c-6.21,4.53-12.65,6.34-20,7.4.23,1,.46,2,.66,3C81.59,109,88.37,107,94.43,102,98.21,98.91,97,97.06,93.37,99.73Z" fill="#b55709"/>
        <g>
          <path d="M109.26,162.15c-.25,32.62,17.06,59.72,24.35,96.92,5.75,10.67,22,7.25,25.7-6.46-2.73-21.31-5.42-42.32-4.05-52.32" fill="#ce894a" stroke="#a8662f" stroke-linecap="round" stroke-linejoin="round" stroke-width="3"/>
          <path d="M159.31,252.61c-1.47-7.88-5.89-5.05-5.32,3.23-3.82-11.81-13.66-11.74-13.33,3.94-4.47-9.1-7.93-4.93-7-.71a166.37,166.37,0,0,1,3,23.75,61.06,61.06,0,0,1-2,17.85c4.86,7.2,24.65,7,29.33-.95C163.81,287.73,161.54,270.07,159.31,252.61Z" fill="#ffe8cc" stroke="#ddab88" stroke-miterlimit="10" stroke-width="3"/>
          <path d="M134.57,300.67c-.92,3.77-1.92,6.95-2.42,9.34-1.24,5.85,29.24,6.05,30.76.75a42.13,42.13,0,0,0,1-11C156.45,303.84,140.78,303.55,134.57,300.67Z" fill="#75411a" stroke="#6a3417" stroke-miterlimit="10" stroke-width="3"/>
        </g>
        <g>
          <path d="M243,175.57c2.09,38,25.45,50.24,37.21,74.73,6.62,13.8,2.41,36.29-.61,49.05,5.38,5.21,25,5.08,29.78-2.39.87-13,.34-33.69-1.23-50.65-1.12-12.14-8.34-19.11-6-36.71,4.55-34.72,4.26-52.49-2.46-65.65" fill="#ce894a" stroke="#a8662f" stroke-linecap="round" stroke-linejoin="round" stroke-width="3"/>
          <path d="M279.58,299.35c-1,4.27-1.89,7.45-2.19,8.86-1.24,5.85,29.07,4.17,30.59-1.13A53.87,53.87,0,0,0,309.36,297C302.28,301.72,287.67,302.1,279.58,299.35Z" fill="#75411a" stroke="#6a3417" stroke-miterlimit="10" stroke-width="3"/>
        </g>
        <g>
          <path d="M56.88,1.59C58.61.37,75.09,11.84,68.59,29.46l-13.5.89C48.1,20.08,52.91,4.36,56.88,1.59Z" fill="#ce894a" stroke="#a8662f" stroke-miterlimit="10" stroke-width="3"/>
          <path d="M55.79,26.16C35,41,35.68,51.27,22,63c-5.62,4.8-11.1,7.78-15.61,13.62-6.26,8.13,20.46,41,30.53,38.68,8.68-2,16.44-5.82,21-6.56,14.12-2.33,39.45,3,51.22-34.83C116.45,33.34,98.09,18,55.79,26.16Z" fill="#ce894a" stroke="#a8662f" stroke-miterlimit="10" stroke-width="3"/>
          <path d="M69.69,37.57l-15.4-1.86a174.38,174.38,0,0,1-21.62,25c-4,3.75-8.33,4.92-13.5,6.57-4.69,1.49-6,2.47-7.21,3.51a37.66,37.66,0,0,0-5.59,5.74c-6.26,8.13-6.77,22.7.14,30.59,9,10.23,20.25,10.41,30.3,8.12a19,19,0,0,0,13.7-11.63A23,23,0,0,0,49.89,86c-3.25-7.41-9.15-12.29-7.24-19.72C44.88,57.65,62.86,43.09,69.69,37.57Z" fill="#ffe8cc" stroke="#ddab88" stroke-miterlimit="10" stroke-width="3"/>
          <path d="M32,86.92c2.78.61,5.29,9.68.24,9.24C25.89,95.62,29.43,86.37,32,86.92Z" fill="#edb072"/>
          <path d="M11.57,80.07c2.26,1.39.32,10.45-3.46,8.12C3.47,85.32,9.3,78.69,11.57,80.07Z" fill="#edb072"/>
          <path d="M76.34,74.2c1.29,7,13.06,4.33,11.39-2.84S75,66.93,76.34,74.2Z" fill="#fdb9ac"/>
          <path d="M38.12,32.81c-2.39,3.58-2.94,6.4.12,6.07C34.32,43.64,35,49,42.14,44.14A65.76,65.76,0,0,0,54.22,33.57C38.55,51.05,45.69,56.18,63,40.29c-2.32,4.83-2.08,12.06,9.17.41C64.52,56.3,73.64,55.41,79.69,50c6.6-6,11.82-11.06,16.57-19.62l1.36-5.86c-3-7.45-21.45-15-36.37-3.95C53.07,19.84,46,21,38.12,32.81Z" fill="#371b0c"/>
          <path d="M131.11,58.12C128.75,43,123.34,37,112.77,31.91l-3.68,9.66c-1.85,6.24-2.33,15.21-.51,24.5,1.65,8.41,5.83,9.65,6.85,5.13,2.29,25,16,38.88,14.21,25.19,1.48,2.06,3.67,2.62,4.8-.92,3.66,13,13.07,21.94,17.32,21a44.63,44.63,0,0,0,.89,9.27c1.22,5.31,5.43,5.16,7.5-2.18C167.16,98.61,154.91,71.16,131.11,58.12Z" fill="#371b0c"/>
          <path d="M109.09,41.57c10.66-8.94,10.38-27.15,6.36-31.85C113.7,7.66,87.66,17.19,92,40.43" fill="#ce894a" stroke="#a8662f" stroke-linecap="round" stroke-linejoin="round" stroke-width="3"/>
          <path d="M112,19.38c-.6-.86-7.75,2.93-10.6,10.78,1.13,5.39,7.08,5.76,9.29,2C113.33,27.7,113.34,21.29,112,19.38Z" fill="#b55709"/>
          <g>
            <ellipse cx="68.21" cy="64.88" rx="8.01" ry="9.19" fill="#f4f0ed"/>
            <g>
              <circle cx="68.75" cy="64.88" r="5.37" fill="#3a3a3a"/>
              <ellipse cx="71.14" cy="62.5" rx="0.94" ry="1.18" fill="#fff"/>
            </g>
          </g>
          <path d="M71.86,45A7.06,7.06,0,0,1,77,46.84c2.15,2.06,1.21,5.51-1.79,3.75A24.57,24.57,0,0,0,71,48.77C68,47.61,68.34,45.11,71.86,45Z" fill="#b55709"/>
        </g>
        <g>
          <path d="M278.39,138.83a12.47,12.47,0,0,0,3.53,6.92c1.55,1.54,3.29.51,3.25-1.59a15,15,0,0,0-2.42-8.2C281.08,133.68,277.5,133.7,278.39,138.83Z" fill="#ddab88"/>
          <path d="M108.38,202.41a11.15,11.15,0,0,0-4.17-5.53c-1.6-1.12-3,.05-2.62,1.89a13.42,13.42,0,0,0,3.4,6.84C106.8,207.35,110,206.78,108.38,202.41Z" fill="#ddab88"/>
          <path d="M90.68,149.09c-1.17-1.52-2.76-.92-3,.89-.57,3.76.4,8.05,3.25,7.28C92.6,156.8,93,152.14,90.68,149.09Z" fill="#ddab88"/>
          <path d="M280.26,156.76c1.4,1.3,2.87.45,2.84-1.38-.05-3.8-1.73-7.87-4.41-6.64C277.09,149.48,277.45,154.14,280.26,156.76Z" fill="#ddab88"/>
          <path d="M96.6,191.74a1.51,1.51,0,0,0-2.67,1.14c-.06,3.22,1.38,6.11,3.69,5.15C99.12,197.4,98.71,193.64,96.6,191.74Z" fill="#ddab88"/>
          <path d="M273.14,148.88c1.47-.45.55-5.76-1.8-4.68C269.7,145,271.5,149.39,273.14,148.88Z" fill="#ddab88"/>
          <path d="M94.12,177.39c-1.48.4-.74,5.73,1.64,4.73C97.43,181.42,95.78,176.93,94.12,177.39Z" fill="#ddab88"/>
          <path d="M292.52,163.87c1.47-.45.56-5.76-1.79-4.67C289.09,160,290.88,164.38,292.52,163.87Z" fill="#ddab88"/>
          <path d="M292.48,186c2-.41,1.54-7.69-1.79-6.56C288.38,180.26,290.19,186.49,292.48,186Z" fill="#ddab88"/>
          <path d="M289.24,197.38c1.53-.1,1.53-4.65-.64-4.3C286.83,193.37,287.53,197.48,289.24,197.38Z" fill="#ddab88"/>
          <path d="M191.58,124.11c.52-2.29,8.7-1.51,7.32,2.2C198,128.89,191,126.67,191.58,124.11Z" fill="#ddab88"/>
          <path d="M179.61,126.38c.47-3,11.07-2.7,9.62,2.18C188.22,132,179.09,129.72,179.61,126.38Z" fill="#ddab88"/>
          <path d="M167.6,122.92c0-1.53,4.59-1.72,4.32.46C171.71,125.16,167.57,124.63,167.6,122.92Z" fill="#ddab88"/>
        </g>
      </g>
    </g>
  </g>
</svg>
