<svg xmlns="http://www.w3.org/2000/svg" xmlns:xlink="http://www.w3.org/1999/xlink" width="493.47" height="203.16" viewBox="0 0 493.47 203.16">
  <defs>
    <clipPath id="clip-path">
      <polygon points="466.71 173.18 466.71 2.61 57.29 2.61 57.29 173.18 466.71 173.18" fill="none"/>
    </clipPath>
    <clipPath id="clip-path-2">
      <path d="M331.76,38.36s45.92,21.77,47.75,22.33h0c10.14,3.1,23.48,2.42,32.22-2,10.32-5.27,10.32-13.82,0-19.09a26.55,26.55,0,0,0-2.7-1.2,31,31,0,0,0,4.23-1.76c10.31-5.27,10.31-13.82,0-19.09s-27-5.27-37.36,0C375.31,17.82,331.76,38.36,331.76,38.36Z" fill="none"/>
    </clipPath>
    <clipPath id="clip-path-3">
      <polygon points="114.5 143.04 114.5 76.3 57.21 76.3 57.21 143.04 114.5 143.04" fill="none"/>
    </clipPath>
    <clipPath id="clip-path-4" transform="translate(30.52)">
      <path d="M269.26,185.71H193.69c-92.83,0-168.36-38.59-168.36-86s75.53-86,168.36-86h75.57c92.83,0,168.36,38.59,168.36,86S362.09,185.71,269.26,185.71Z" fill="none"/>
    </clipPath>
    <symbol id="New_Symbol_3" data-name="New Symbol 3" viewBox="0 0 471.69 175.62">
      <g clip-path="url(#clip-path)">
        <polygon points="471.69 175.62 471.69 25.05 357 25.05 357 175.62 471.69 175.62" fill="#fce780"/>
        <polygon points="132.91 0.17 132.91 64.31 57.29 64.31 57.29 0.17 132.91 0.17" fill="#fb9d00"/>
        <path d="M471.69,70.72V.17H357V32c0,21.38,33.93,38.72,75.79,38.72Z" fill="#ffb7b6"/>
        <g>
          <rect x="79.97" y="2.61" width="1.92" height="28.15" fill="#dd8000"/>
          <path d="M80.93,27.14c1.44,0,2.61-.59,2.61-1.33V16.87c0-.73-1.17-1.33-2.61-1.33s-2.6.6-2.6,1.33v8.94C78.33,26.55,79.49,27.14,80.93,27.14Z" fill="#dd8000"/>
        </g>
        <g>
          <rect x="107.36" y="3.03" width="1.92" height="36.5" fill="#dd8000"/>
          <path d="M108.32,35.91c1.44,0,2.6-.6,2.6-1.33V25.64c0-.73-1.16-1.33-2.6-1.33s-2.61.6-2.61,1.33v8.94C105.71,35.31,106.88,35.91,108.32,35.91Z" fill="#dd8000"/>
        </g>
        <path d="M63.84,96.26H60.28c-.53,0-1-.22-1-.49s.43-.49,1-.49h3.56c3.69,0,6.7-1.53,6.7-3.41V13.8c0-1.89-3-3.42-6.7-3.42H60.28c-.53,0-1-.22-1-.49s.43-.49,1-.49h3.56c4.75,0,8.61,2,8.61,4.4V91.87C72.45,94.29,68.59,96.26,63.84,96.26Z" fill="#40805f"/>
        <g>
          <path d="M172.17,123.79h72.6c7,0,12.81-3,12.81-6.55v-1.19c0-3.61-5.76-6.55-12.81-6.55h-72.6c-7,0-12.81,2.94-12.81,6.55v1.19C159.36,120.84,165.12,123.79,172.17,123.79Z" fill="#fce780"/>
          <path d="M242.26,117.13H11c-.53,0-1-.22-1-.49s.43-.49,1-.49H242.26c.52,0,1,.22,1,.49S242.78,117.13,242.26,117.13Z" fill="#40805f"/>
          <path d="M241.66,121.57a1.24,1.24,0,0,1-.33,0l-23-4.43c-.36-.07-.61-.25-.62-.45s.23-.38.6-.46l23-4.85a1.41,1.41,0,0,1,1.25.27c.2.25,0,.53-.52.64l-20.72,4.37,20.69,4c.5.09.75.38.56.63A1.15,1.15,0,0,1,241.66,121.57Z" fill="#40805f"/>
          <path d="M220,121.57a1.32,1.32,0,0,1-.34,0l-23-4.43c-.37-.07-.61-.25-.62-.45s.23-.38.59-.46l23-4.85a1.41,1.41,0,0,1,1.25.27c.2.25,0,.53-.52.64l-20.73,4.37,20.7,4c.5.09.75.38.56.63A1.17,1.17,0,0,1,220,121.57Z" fill="#40805f"/>
          <path d="M198.24,121.57a1.32,1.32,0,0,1-.34,0l-23-4.43c-.37-.07-.62-.25-.62-.45s.23-.38.59-.46l23-4.85a1.41,1.41,0,0,1,1.25.27c.21.25,0,.53-.52.64l-20.72,4.37,20.7,4c.49.09.74.38.55.63A1.13,1.13,0,0,1,198.24,121.57Z" fill="#40805f"/>
        </g>
        <g>
          <g>
            <rect x="307.45" y="150.14" width="159.25" height="0.98" fill="#40805f"/>
            <g>
              <path d="M294.6,131.46V169.8c13.24,0,24.87-3.5,31.55-8.79-8.67-1.37-15-5.5-15-10.38s6.3-9,15-10.37C319.47,135,307.84,131.46,294.6,131.46Z" fill="#40805f"/>
              <path d="M311.18,150.63c0,4.88,6.3,9,15,10.38a18.94,18.94,0,0,0,3.84-4c-5.77-.63-10.09-3.24-10.09-6.38s4.32-5.74,10.09-6.37a18.7,18.7,0,0,0-3.84-4C317.48,141.63,311.18,145.75,311.18,150.63Z" fill="#fb9d00"/>
              <path d="M330,144.26c-5.77.63-10.09,3.24-10.09,6.37s4.32,5.75,10.09,6.38a10.61,10.61,0,0,0,0-12.75Z" fill="#fce780"/>
            </g>
            <g>
              <ellipse cx="285.97" cy="150.62" rx="5.83" ry="2.98" fill="#ff7e7a"/>
              <ellipse cx="285.97" cy="165.25" rx="5.83" ry="2.98" fill="#ff7e7a"/>
              <ellipse cx="285.97" cy="136.02" rx="5.83" ry="2.98" fill="#ff7e7a"/>
            </g>
          </g>
          <g>
            <path d="M361.6,150.64s-10.39,3.76-12.52,6-1.45,4.59,1.54,5.34a10.62,10.62,0,0,0,9.26-2.6C362,157.14,361.6,150.64,361.6,150.64Z" fill="#fb9d00"/>
            <path d="M361.6,150.63s-10.39-3.77-12.52-6-1.45-4.59,1.54-5.35a10.63,10.63,0,0,1,9.26,2.61C362,144.12,361.6,150.63,361.6,150.63Z" fill="#fb9d00"/>
          </g>
          <g>
            <path d="M385.62,150.64s-10.39,3.76-12.52,6-1.45,4.59,1.54,5.34a10.62,10.62,0,0,0,9.26-2.6C386,157.14,385.62,150.64,385.62,150.64Z" fill="#fb9d00"/>
            <path d="M385.62,150.63s-10.39-3.77-12.52-6-1.45-4.59,1.54-5.35a10.63,10.63,0,0,1,9.26,2.61C386,144.12,385.62,150.63,385.62,150.63Z" fill="#fb9d00"/>
          </g>
          <g>
            <path d="M409.64,150.64s-10.39,3.76-12.52,6-1.45,4.59,1.54,5.34a10.63,10.63,0,0,0,9.26-2.6C410.05,157.14,409.64,150.64,409.64,150.64Z" fill="#fb9d00"/>
            <path d="M409.64,150.63s-10.39-3.77-12.52-6-1.45-4.59,1.54-5.35a10.63,10.63,0,0,1,9.26,2.61C410.05,144.12,409.64,150.63,409.64,150.63Z" fill="#fb9d00"/>
          </g>
        </g>
        <g>
          <path d="M372.48,127.5c0,3.19,5.07,5.78,11.31,5.78V130.1h.68c1.18,0,2.13-.49,2.13-1.09v-1h64.07V127H386.6V126c0-.6-1-1.09-2.13-1.09h-.68v-3.18C377.55,121.72,372.48,124.31,372.48,127.5Z" fill="#2b6e4a"/>
          <path d="M426.22,161.64c0,3.88,6.17,7,13.78,7V164.8h.82c1.43,0,2.59-.59,2.59-1.33v-1.28h23.51v-1.11H443.41V159.8c0-.73-1.16-1.33-2.59-1.33H440V154.6C432.39,154.6,426.22,157.75,426.22,161.64Z" fill="#2b6e4a"/>
        </g>
        <g>
          <g>
            <polygon points="416.52 137.11 416.12 136.41 465.88 128.99 466.28 129.7 416.52 137.11" fill="#40805f"/>
            <path d="M416.2,138.93c2.34,0,4.24-1,4.24-2.17s-1.9-2.17-4.24-2.17-4.24,1-4.24,2.17S413.86,138.93,416.2,138.93Z" fill="#40805f"/>
          </g>
          <g>
            <polygon points="465.87 118.29 416.11 110.55 416.53 109.84 466.29 117.59 465.87 118.29" fill="#40805f"/>
            <path d="M416.2,108c2.34,0,4.24,1,4.24,2.16s-1.9,2.17-4.24,2.17-4.24-1-4.24-2.17S413.86,108,416.2,108Z" fill="#40805f"/>
          </g>
          <g>
            <path d="M426.87,123.63c0-3.09,4.9-5.59,10.94-5.59h29.11v11.18H437.81C431.77,129.22,426.87,126.72,426.87,123.63Z" fill="#fff"/>
            <path d="M439.7,123.63c0-1.37,2.17-2.48,4.85-2.48h22.37v5H444.55C441.87,126.11,439.7,125,439.7,123.63Z" fill="#ff7e7a"/>
          </g>
          <g>
            <path d="M439.46,145.13c-3.31-2.58-1.91-6,3.14-7.74l24.32-8.17V133l-15.35,5.15c-2.23.75-2.86,2.28-1.38,3.43s4.47,1.46,6.71.71l10-3.37v3.73l-12.31,4.13C449.57,148.42,442.78,147.71,439.46,145.13Z" fill="#fff"/>
            <path d="M456.9,142.24c-2.24.75-5.24.43-6.71-.71s-.85-2.68,1.38-3.43L466.92,133v5.92Z" fill="#ff7e7a"/>
          </g>
          <g>
            <path d="M439.46,102.14c-3.31,2.58-1.91,6,3.14,7.74L466.92,118v-3.72l-15.35-5.15c-2.23-.76-2.86-2.29-1.38-3.43s4.47-1.47,6.71-.71l10,3.36v-3.73l-12.31-4.13C449.57,98.84,442.78,99.56,439.46,102.14Z" fill="#fff"/>
            <path d="M456.9,105c-2.24-.76-5.24-.44-6.71.71s-.85,2.67,1.38,3.43l15.35,5.15v-5.93Z" fill="#ff7e7a"/>
          </g>
          <path d="M464.9,123.92h-29c-.4,0-.72-.16-.72-.37s.32-.36.72-.36h29c.4,0,.72.16.72.36S465.3,123.92,464.9,123.92Z" fill="#40805f"/>
          <path d="M447.56,143a1,1,0,0,1-.57-.15c-.24-.16-.17-.39.14-.51l17.34-6.6a1.21,1.21,0,0,1,1,.08c.24.16.17.39-.15.51L448,142.94A1.21,1.21,0,0,1,447.56,143Z" fill="#40805f"/>
          <path d="M464.9,110.75a1.27,1.27,0,0,1-.39-.06l-18.61-6.16c-.34-.11-.43-.33-.22-.51a1.21,1.21,0,0,1,1-.1l18.61,6.15c.34.11.43.34.22.51A1,1,0,0,1,464.9,110.75Z" fill="#40805f"/>
        </g>
        <g>
          <polygon points="293.73 13.98 306.58 2.61 280.89 2.61 293.73 13.98" fill="#40805f"/>
          <polygon points="267.99 13.98 280.84 2.61 255.15 2.61 267.99 13.98" fill="#40805f"/>
          <polygon points="242.25 13.98 255.09 2.61 229.4 2.61 242.25 13.98" fill="#40805f"/>
          <polygon points="216.51 13.98 229.35 2.61 203.66 2.61 216.51 13.98" fill="#40805f"/>
        </g>
        <path d="M322.62,32.05c0,1.65,2.62,3,5.85,3h0c3.23,0,5.85-1.34,5.85-3v-2.5c0-1.62,2.57-2.93,5.74-2.93h0c3.17,0,5.74,1.31,5.74,2.93V67.9c0,1.65,2.62,3,5.85,3h0c3.23,0,5.85-1.34,5.85-3V0H322.62Z" fill="#fb9d00"/>
        <path d="M148.78,47.09c0,4.21,6.67,7.62,14.91,7.62h0c8.23,0,14.91-3.41,14.91-7.62V.17H148.78Z" fill="#fce780"/>
        <path d="M134.88,84.37l.09,35.49a3.59,3.59,0,0,1-1.87,1.84,10.94,10.94,0,0,1-4.8,1c-3.51,0-6.46-1.35-6.82-3.09l0-16.67c0-1.92-3-3.47-6.79-3.47s-6.79,1.55-6.79,3.47l0,15.31a3,3,0,0,0,0,.31v26.07a1.9,1.9,0,0,0,.1.57l0,9.94h13.59l-.07-21.42c.45-1.69,3.29-3,6.72-3,3.63,0,6.58,1.45,6.77,3.28l0,7c0,1.92,3,3.47,6.79,3.47a10.76,10.76,0,0,0,4.8-1c1.23-.62,2-1.49,2-2.45l-.14-56.67c0-1.91-3-3.47-6.79-3.47S134.88,82.46,134.88,84.37Z" fill="#ffb7b6"/>
        <g>
          <path d="M77.48,2.61c0,2.18-3.46,3.94-7.71,3.94s-7.71-1.76-7.71-3.94Z" fill="#40805f"/>
          <path d="M92.9,2.61c0,2.18-3.46,3.94-7.71,3.94s-7.71-1.76-7.71-3.94Z" fill="#40805f"/>
          <path d="M108.32,2.61c0,2.18-3.46,3.94-7.71,3.94S92.9,4.79,92.9,2.61Z" fill="#40805f"/>
          <path d="M123.74,2.61c0,2.18-3.45,3.94-7.71,3.94s-7.71-1.76-7.71-3.94Z" fill="#40805f"/>
          <path d="M139.16,2.61c0,2.18-3.45,3.94-7.71,3.94s-7.71-1.76-7.71-3.94Z" fill="#40805f"/>
        </g>
        <g>
          <path d="M455.13,68.05c0,3.28,5.18,5.94,11.58,5.94V62.1C460.31,62.1,455.13,64.76,455.13,68.05Z" fill="#fb9d00"/>
          <path d="M455.13,79.94c0,3.29,5.18,6,11.58,6V74C460.31,74,455.13,76.66,455.13,79.94Z" fill="#fb9d00"/>
          <path d="M455.13,91.84c0,3.28,5.18,6,11.58,6V85.89C460.31,85.89,455.13,88.55,455.13,91.84Z" fill="#fb9d00"/>
          <path d="M455.13,8.56c0,3.28,5.18,5.95,11.58,5.95V2.61C460.31,2.61,455.13,5.27,455.13,8.56Z" fill="#fb9d00"/>
          <path d="M455.13,20.46c0,3.28,5.18,5.94,11.58,5.94V14.51C460.31,14.51,455.13,17.17,455.13,20.46Z" fill="#fb9d00"/>
          <path d="M455.13,32.35c0,3.29,5.18,5.95,11.58,5.95V26.4C460.31,26.4,455.13,29.07,455.13,32.35Z" fill="#fb9d00"/>
          <path d="M455.13,44.25h0c0,3.27,5.13,5.92,11.48,6-6.35,0-11.48,2.68-11.48,5.94h0c0,3.28,5.18,6,11.58,6h0V50.2h0V38.3h0C460.31,38.3,455.13,41,455.13,44.25Z" fill="#fb9d00"/>
        </g>
        <g>
          <g>
            <path d="M438.24,11.53c-3.21,0-5.81-1.33-5.81-3s2.6-3,5.81-3,5.81,1.33,5.81,3S441.45,11.53,438.24,11.53Z" fill="#fff"/>
            <path d="M411.27,11.53c-3.21,0-5.81-1.33-5.81-3s2.6-3,5.81-3,5.81,1.33,5.81,3S414.48,11.53,411.27,11.53Z" fill="#fff"/>
            <path d="M384.29,11.53c-3.21,0-5.81-1.33-5.81-3s2.6-3,5.81-3,5.81,1.33,5.81,3S387.5,11.53,384.29,11.53Z" fill="#fff"/>
          </g>
          <g>
            <path d="M328.43,46.47c0,1.64-2.6,3-5.81,3s-5.81-1.33-5.81-3,2.6-3,5.81-3S328.43,44.83,328.43,46.47Z" fill="#40805f"/>
            <path d="M328.43,60.25c0,1.64-2.6,3-5.81,3s-5.81-1.33-5.81-3,2.6-3,5.81-3S328.43,58.61,328.43,60.25Z" fill="#40805f"/>
            <path d="M328.43,74c0,1.64-2.6,3-5.81,3s-5.81-1.33-5.81-3,2.6-3,5.81-3S328.43,72.39,328.43,74Z" fill="#40805f"/>
          </g>
        </g>
        <g>
          <g>
            <path d="M415.35,69.78h0c8.41,0,15.23,3.49,15.23,7.78h0c-8.41,0-15.23-3.48-15.23-7.78Z" fill="#40805f"/>
            <path d="M415.35,69.78h0c8.41,0,15.23-3.48,15.23-7.78h0c-8.41,0-15.23,3.48-15.23,7.78Z" fill="#40805f"/>
          </g>
          <g>
            <path d="M431.81,69.78h0c8.41,0,15.23,3.49,15.23,7.78h0c-8.41,0-15.23-3.48-15.23-7.78Z" fill="#40805f"/>
            <path d="M431.81,69.78h0C440.22,69.78,447,66.3,447,62h0c-8.41,0-15.23,3.48-15.23,7.78Z" fill="#40805f"/>
          </g>
        </g>
        <g>
          <g>
            <path d="M197,165.77h0c0-4.3,6.82-7.78,15.23-7.78h0c0,4.29-6.82,7.78-15.23,7.78Z" fill="#40805f"/>
            <path d="M197,165.77h0c0-4.3-6.82-7.78-15.24-7.78h0c0,4.29,6.82,7.78,15.24,7.78Z" fill="#40805f"/>
          </g>
          <g>
            <path d="M197,154.52h0c0-4.29,6.82-7.78,15.23-7.78h0c0,4.3-6.82,7.78-15.23,7.78Z" fill="#40805f"/>
            <path d="M197,154.52h0c0-4.29-6.82-7.78-15.24-7.78h0c0,4.3,6.82,7.78,15.24,7.78Z" fill="#40805f"/>
          </g>
          <g>
            <path d="M197,143.28h0c0-4.3,6.82-7.78,15.23-7.78h0c0,4.3-6.82,7.78-15.23,7.78Z" fill="#40805f"/>
            <path d="M197,143.28h0c0-4.3-6.82-7.78-15.24-7.78h0c0,4.3,6.82,7.78,15.24,7.78Z" fill="#40805f"/>
          </g>
        </g>
        <polygon points="259.29 163.29 262.05 160.36 267.8 158.95 262.05 157.54 259.29 154.6 256.53 157.54 250.78 158.95 256.53 160.36 259.29 163.29" fill="#fb9d00"/>
        <polygon points="426.22 97.36 428.98 94.42 434.73 93.01 428.98 91.6 426.22 88.66 423.46 91.6 417.71 93.01 423.46 94.42 426.22 97.36" fill="#ff7e7a"/>
        <polygon points="377.17 67.65 379.79 70.44 385.25 71.78 379.79 73.12 377.17 75.91 374.55 73.12 369.09 71.78 374.55 70.44 377.17 67.65" fill="#fff"/>
        <polygon points="90.7 43.06 93.33 45.85 98.78 47.19 93.33 48.53 90.7 51.32 88.08 48.53 82.62 47.19 88.08 45.85 90.7 43.06" fill="#fff"/>
        <polygon points="200.42 8.18 203.04 10.97 208.5 12.31 203.04 13.65 200.42 16.44 197.8 13.65 192.34 12.31 197.8 10.97 200.42 8.18" fill="#40805f"/>
        <polygon points="166.93 126.01 169.55 128.8 175.01 130.14 169.55 131.48 166.93 134.27 164.3 131.48 158.84 130.14 164.3 128.8 166.93 126.01" fill="#fb9d00"/>
        <g>
          <rect x="404.03" y="37.87" width="61.73" height="0.98" fill="#40805f"/>
          <path d="M331.76,38.36s45.92,21.77,47.75,22.33h0c10.14,3.1,23.48,2.42,32.22-2,10.32-5.27,10.32-13.82,0-19.09a26.55,26.55,0,0,0-2.7-1.2,31,31,0,0,0,4.23-1.76c10.31-5.27,10.31-13.82,0-19.09s-27-5.27-37.36,0C375.31,17.82,331.76,38.36,331.76,38.36Z" fill="#ff7e7a"/>
          <g clip-path="url(#clip-path-2)">
            <g>
              <polygon points="362.84 56.62 361.68 55.84 406.88 38.35 362.65 21.23 363.81 20.45 410.05 38.35 362.84 56.62" fill="#40805f"/>
              <polygon points="376.42 61.6 375.26 60.82 433.32 38.36 374.31 16.01 375.45 15.22 436.51 38.35 376.42 61.6" fill="#40805f"/>
              <polygon points="351.71 49.68 350.56 48.9 377.81 38.35 350.55 27.8 351.71 27.02 380.98 38.35 351.71 49.68" fill="#40805f"/>
              <rect x="331.76" y="37.87" width="75.89" height="0.98" fill="#40805f"/>
            </g>
          </g>
          <path d="M386,38.08c0-.82-1.29-1.48-2.89-1.48H347.55c-1.6,0-2.89.66-2.89,1.48s1.29,1.48,2.89,1.48h35.54C384.69,39.56,386,38.9,386,38.08Z" fill="#fff"/>
        </g>
        <g>
          <path d="M244.26,36H149c-9.27,0-16.8-3.85-16.8-8.58V2.61h1.92v24.8c0,4.19,6.67,7.6,14.88,7.6h95.31Z" fill="#40805f"/>
          <g>
            <rect x="253.16" y="34.16" width="50.69" height="0.98" fill="#40805f"/>
            <rect x="268.87" y="29.37" width="25.42" height="0.98" fill="#40805f"/>
            <rect x="268.87" y="38.86" width="25.42" height="0.98" fill="#40805f"/>
            <g>
              <path d="M296.2,31.5c1.77,0,3.2-.74,3.2-1.64s-1.43-1.64-3.2-1.64S293,29,293,29.86,294.43,31.5,296.2,31.5Z" fill="#fb9d00"/>
              <path d="M296.2,41c1.77,0,3.2-.74,3.2-1.64s-1.43-1.64-3.2-1.64-3.21.73-3.21,1.64S294.43,41,296.2,41Z" fill="#fb9d00"/>
              <path d="M303.85,36.29c1.77,0,3.21-.73,3.21-1.64S305.62,33,303.85,33s-3.21.74-3.21,1.64S302.08,36.29,303.85,36.29Z" fill="#fb9d00"/>
            </g>
          </g>
          <path d="M213.28,34.65c0,4.43,7,8,15.69,8h49V40.51l-9.1-1.12,9.1-1.12v-2.5l-18.66-1.12L278,33.53V31l-9.1-1.12,9.1-1.12v-2.1H229C220.3,26.64,213.28,30.23,213.28,34.65Z" fill="#ffb7b6"/>
        </g>
        <g clip-path="url(#clip-path-3)">
          <g>
            <ellipse cx="57.22" cy="108.96" rx="57.22" ry="29.24" fill="#fb9d00"/>
            <g>
              <g>
                <path d="M95.21,113.72c5.15,0,9.32-2.13,9.32-4.76s-4.17-4.76-9.32-4.76-38,4.76-38,4.76S90.07,113.72,95.21,113.72Z" fill="#fff"/>
                <path d="M19.26,104.2c-5.14,0-9.31,2.13-9.31,4.76s4.17,4.76,9.31,4.76,38-4.76,38-4.76S24.4,104.2,19.26,104.2Z" fill="#fff"/>
              </g>
              <g>
                <path d="M47.91,128.36c0,2.62,4.17,4.76,9.31,4.76s9.32-2.14,9.32-4.76S57.22,109,57.22,109,47.91,125.73,47.91,128.36Z" fill="#fff"/>
                <path d="M66.54,89.55c0-2.63-4.17-4.76-9.32-4.76s-9.31,2.13-9.31,4.76S57.22,109,57.22,109,66.54,92.18,66.54,89.55Z" fill="#fff"/>
              </g>
              <g>
                <path d="M77.49,126.06a16.32,16.32,0,0,0,13.17,0c3.64-1.86,3.64-4.88,0-6.73S57.21,109,57.21,109,73.85,124.2,77.49,126.06Z" fill="#fff"/>
                <path d="M37,91.89a16.24,16.24,0,0,0-13.17,0c-3.63,1.86-3.63,4.87,0,6.73S57.23,109,57.23,109,40.59,93.75,37,91.89Z" fill="#fff"/>
              </g>
              <g>
                <path d="M23.79,119.31c-3.64,1.86-3.64,4.87,0,6.73A16.24,16.24,0,0,0,37,126C40.6,124.18,57.24,109,57.24,109S27.43,117.45,23.79,119.31Z" fill="#fff"/>
                <path d="M90.67,98.6c3.64-1.86,3.64-4.87,0-6.73a16.24,16.24,0,0,0-13.17,0C73.86,93.73,57.22,109,57.22,109S87,100.46,90.67,98.6Z" fill="#fff"/>
              </g>
            </g>
          </g>
        </g>
        <g>
          <path d="M317.69,94.52a12.83,12.83,0,0,0-.62,1.37c-3.24,8.68,5.08,17.1,19.43,21.15a67,67,0,0,0,11.55,2.13c21.13,2,41.53-5,45.56-15.83s-9.85-21.22-31-23.28C342.4,78.1,322.87,84.5,317.69,94.52Z" fill="#ffb7b6"/>
          <g>
            <path d="M348.44,118.6h-.18c-.52,0-.86-.31-.76-.57l13.64-36.6c.1-.26.6-.44,1.12-.39s.86.31.77.58L349.38,118.2C349.3,118.44,348.89,118.6,348.44,118.6Z" fill="#fff"/>
            <path d="M376.06,115.67a1.4,1.4,0,0,1-.8-.21l-41-30.8c-.29-.23-.18-.53.26-.69a1.63,1.63,0,0,1,1.33.13l41,30.81c.3.22.18.53-.25.68A1.64,1.64,0,0,1,376.06,115.67Z" fill="#fff"/>
            <path d="M362.69,118.53c-.44,0-.84-.16-.93-.39L347,81.65c-.1-.26.23-.52.75-.58s1,.12,1.13.39l14.73,36.48c.11.26-.22.52-.74.58Z" fill="#fff"/>
            <path d="M386,110.44a1.77,1.77,0,0,1-.52-.08L324.6,89.88c-.45-.15-.57-.45-.28-.68a1.62,1.62,0,0,1,1.33-.14l60.91,20.48c.44.15.56.45.27.68A1.38,1.38,0,0,1,386,110.44Z" fill="#fff"/>
            <path d="M391.15,103.59H391l-71.63-7c-.52,0-.86-.3-.76-.57s.6-.44,1.12-.39l71.63,7c.52,0,.86.31.76.57S391.6,103.59,391.15,103.59Z" fill="#fff"/>
            <path d="M319.54,103.85c-.44,0-.84-.16-.93-.39s.22-.52.74-.58l71.41-7.52c.52-.06,1,.11,1.13.38s-.22.52-.74.58l-71.41,7.52Z" fill="#fff"/>
            <path d="M335.21,115.65a1.89,1.89,0,0,1-.53-.08c-.44-.15-.56-.45-.27-.68l40.08-31.12a1.6,1.6,0,0,1,1.32-.14c.45.15.57.45.28.68L336,115.43A1.38,1.38,0,0,1,335.21,115.65Z" fill="#fff"/>
            <path d="M325.19,110.58a1.42,1.42,0,0,1-.79-.21c-.3-.23-.19-.53.25-.69l60.29-20.94a1.58,1.58,0,0,1,1.33.13c.3.22.19.53-.25.68l-60.29,20.94A1.61,1.61,0,0,1,325.19,110.58Z" fill="#fff"/>
          </g>
          <path d="M358.1,92.2c8,.78,13.29,4.74,11.76,8.84s-9.27,6.79-17.29,6-13.3-4.74-11.77-8.84S350.08,91.42,358.1,92.2Z" fill="#ff7e7a"/>
        </g>
        <g>
          <ellipse cx="133.09" cy="55.08" rx="31.04" ry="15.86" fill="#ff7e7a"/>
          <g>
            <g>
              <path d="M115.38,51.46c3.92,0,17.71,3.62,17.71,3.62s-13.79,3.63-17.71,3.63-7.1-1.62-7.1-3.63S111.46,51.46,115.38,51.46Z" fill="#fff"/>
              <path d="M129.43,45.52c2.13,1.68,3.66,9.56,3.66,9.56s-13.45-3.94-15.58-5.62-1.19-3.93,2.1-5S127.29,43.84,129.43,45.52Z" fill="#fff"/>
              <path d="M129.43,64.65c2.13-1.68,3.66-9.57,3.66-9.57S119.64,59,117.51,60.71s-1.19,3.92,2.1,5S127.29,66.33,129.43,64.65Z" fill="#fff"/>
            </g>
            <g>
              <path d="M150.8,58.71c-3.92,0-17.71-3.63-17.71-3.63s13.79-3.62,17.71-3.62,7.1,1.62,7.1,3.62S154.72,58.71,150.8,58.71Z" fill="#fff"/>
              <path d="M136.76,64.65c-2.13-1.68-3.67-9.57-3.67-9.57s13.46,3.94,15.59,5.63,1.19,3.92-2.1,5S138.89,66.33,136.76,64.65Z" fill="#fff"/>
              <path d="M136.76,45.52c-2.13,1.68-3.67,9.56-3.67,9.56s13.46-3.94,15.59-5.62,1.19-3.93-2.1-5S138.89,43.84,136.76,45.52Z" fill="#fff"/>
            </g>
          </g>
        </g>
      </g>
    </symbol>
  </defs>
  <g id="Layer_2" data-name="Layer 2">
    <g id="Layer_1-2" data-name="Layer 1">
      <g id="fu_rug_2" data-name="fu_rug 2">
        <path d="M269.26,3.9H193.69C86.93,3.9.06,48.59.06,103.53s86.87,99.63,193.63,99.63h75.57c106.77,0,193.63-44.7,193.63-99.63S376,3.9,269.26,3.9Z" transform="translate(30.52)" fill="#a8662f"/>
        <g>
          <path d="M269.26,13.74H193.69c-92.76,0-168.23,38.56-168.23,86s75.47,86,168.23,86h75.57c92.76,0,168.23-38.56,168.23-86S362,13.74,269.26,13.74Z" transform="translate(30.52)" fill="#fffbee"/>
          <path d="M269.26,197.89H193.69c-106,0-192.19-44-192.19-98.2S87.72,1.5,193.69,1.5h75.57c106,0,192.19,44.05,192.19,98.19S375.23,197.89,269.26,197.89Z" transform="translate(30.52)" fill="#fffbef" stroke="#d8a960" stroke-miterlimit="10" stroke-width="3"/>
        </g>
        <path d="M269.26,185.71H193.69c-92.83,0-168.36-38.59-168.36-86s75.53-86,168.36-86h75.57c92.83,0,168.36,38.59,168.36,86S362.09,185.71,269.26,185.71ZM193.69,15.14C102.44,15.14,28.2,53.07,28.2,99.69s74.24,84.55,165.49,84.55h75.57c91.25,0,165.49-37.93,165.49-84.55S360.51,15.14,269.26,15.14Z" transform="translate(30.52)" fill="#ddab88"/>
        <g clip-path="url(#clip-path-4)">
          <use width="471.69" height="175.62" transform="translate(0 11.8)" xlink:href="#New_Symbol_3"/>
        </g>
        <path d="M269.26,185.71H193.69c-92.83,0-168.36-38.59-168.36-86s75.53-86,168.36-86h75.57c92.83,0,168.36,38.59,168.36,86S362.09,185.71,269.26,185.71ZM193.69,15.14C102.44,15.14,28.2,53.07,28.2,99.69s74.24,84.55,165.49,84.55h75.57c91.25,0,165.49-37.93,165.49-84.55S360.51,15.14,269.26,15.14Z" transform="translate(30.52)" fill="#ddab88"/>
      </g>
    </g>
  </g>
</svg>
