<svg xmlns="http://www.w3.org/2000/svg" width="187.48" height="26.73" viewBox="0 0 187.48 26.73">
  <g id="Layer_2" data-name="Layer 2">
    <g id="Layer_1-2" data-name="Layer 1">
      <g id="fu_cart_back" data-name="fu_cart back">
        <rect x="8.13" y="6.49" width="171.35" height="20.25" fill="#7850b3"/>
        <path d="M181.64,7.48a10,10,0,0,0-9.16-6H15a10,10,0,0,0-9.16,6L1.65,17H9.29l3-6.73A3,3,0,0,1,15,8.5H172.48a3,3,0,0,1,2.75,1.79l3,6.74h7.64Z" fill="#ffeb81"/>
        <path d="M176.61,9.69A4.5,4.5,0,0,0,172.48,7H15a4.51,4.51,0,0,0-4.13,2.7L7.65,17h3.27l2.69-6.12A1.53,1.53,0,0,1,15,10H172.48a1.5,1.5,0,0,1,1.38.9L176.55,17h3.28Zm0,0A4.5,4.5,0,0,0,172.48,7H15a4.51,4.51,0,0,0-4.13,2.7L7.65,17h3.27l2.69-6.12A1.53,1.53,0,0,1,15,10H172.48a1.5,1.5,0,0,1,1.38.9L176.55,17h3.28ZM183,6.87A11.53,11.53,0,0,0,172.48,0H15A11.52,11.52,0,0,0,4.46,6.88L0,17H3.28l3.93-9A8.51,8.51,0,0,1,15,3H172.48a8.51,8.51,0,0,1,7.79,5.08l3.93,9h3.28ZM172.48,7H15a4.51,4.51,0,0,0-4.13,2.7L7.65,17h3.27l2.69-6.12A1.53,1.53,0,0,1,15,10H172.48a1.5,1.5,0,0,1,1.38.9L176.55,17h3.28l-3.22-7.34A4.5,4.5,0,0,0,172.48,7Z" fill="#ff8d3d"/>
      </g>
    </g>
  </g>
</svg>
