<svg xmlns="http://www.w3.org/2000/svg" xmlns:xlink="http://www.w3.org/1999/xlink" width="59.96" height="114.23" viewBox="0 0 59.96 114.23">
  <defs>
    <clipPath id="clip-path">
      <path d="M56.49,55.1c-.6-2.22-1.56-3.78-2.9-4.41a13,13,0,0,0-2.34-.87c-4.78-1.22-5.91,2.35-6.16,3.7,0-.44.14-1.17.22-2.06.13-1.35.24-3.1.24-4.88,0-2.68-.25-5.44-1.13-7.15a3.77,3.77,0,0,0-.83-1.13,2.11,2.11,0,0,0-2.15-.61c-1.78.66-2.59,4.29-2.61,4.41,0-.58,1.39-33.56-7.89-39.64a5.72,5.72,0,0,0-4-.91h0a5,5,0,0,0-.54.08c-4.09.81-6.38,5.11-7.58,10.83-3,14.24.91,37.27.91,37.27a8.69,8.69,0,0,0-7.61-1.9C7.45,48.77,13.91,64.6,14.05,65,13.71,64.72-.2,54.68,1.67,69.74a69.62,69.62,0,0,0,4,15.73,62.77,62.77,0,0,0,5.05,10.61c4.24,8.73,13.87,25.57,29.59,10.8a46.19,46.19,0,0,0,9.63-14C56.18,79.56,58.64,63.06,56.49,55.1Z" fill="none"/>
    </clipPath>
    <clipPath id="clip-path-2">
      <path d="M58.35,80.5A3.78,3.78,0,0,0,57,77.69,8.35,8.35,0,0,0,55.64,77c-2.73-1.07-3.65,1-3.9,1.73.07-.25.17-.67.28-1.2a28.71,28.71,0,0,0,.5-2.86,10,10,0,0,0-.15-4.29,2,2,0,0,0-.41-.73,1.24,1.24,0,0,0-1.22-.51c-1.1.26-1.84,2.34-1.86,2.41.06-.34,3.25-19.69-1.78-24a3.45,3.45,0,0,0-2.27-.82h-.32c-2.48.18-4.14,2.55-5.26,5.84-2.78,8.18-2.16,22-2.16,22A5.18,5.18,0,0,0,32.74,73c-2.84.22-.18,10-.12,10.25-.19-.17-7.67-7.1-7.65,1.91a41.47,41.47,0,0,0,1.19,9.56,37,37,0,0,0,2.21,6.62c1.86,5.46,6.33,16.09,16.66,8.52a27.65,27.65,0,0,0,6.69-7.56C56.4,94.9,59,85.35,58.35,80.5Z" fill="none"/>
    </clipPath>
  </defs>
  <g id="Layer_2" data-name="Layer 2">
    <g id="Layer_1-2" data-name="Layer 1">
      <g id="na_bushes_1" data-name="na_bushes 1">
        <g>
          <path d="M56.49,55.1c-.6-2.22-1.56-3.78-2.9-4.41a13,13,0,0,0-2.34-.87c-4.78-1.22-5.91,2.35-6.16,3.7,0-.44.14-1.17.22-2.06.13-1.35.24-3.1.24-4.88,0-2.68-.25-5.44-1.13-7.15a3.77,3.77,0,0,0-.83-1.13,2.11,2.11,0,0,0-2.15-.61c-1.78.66-2.59,4.29-2.61,4.41,0-.58,1.39-33.56-7.89-39.64a5.72,5.72,0,0,0-4-.91h0a5,5,0,0,0-.54.08c-4.09.81-6.38,5.11-7.58,10.83-3,14.24.91,37.27.91,37.27a8.69,8.69,0,0,0-7.61-1.9C7.45,48.77,13.91,64.6,14.05,65,13.71,64.72-.2,54.68,1.67,69.74a69.62,69.62,0,0,0,4,15.73,62.77,62.77,0,0,0,5.05,10.61c4.24,8.73,13.87,25.57,29.59,10.8a46.19,46.19,0,0,0,9.63-14C56.18,79.56,58.64,63.06,56.49,55.1Z" fill="#3b7e82" stroke="#28575c" stroke-miterlimit="10" stroke-width="3"/>
          <g clip-path="url(#clip-path)">
            <path d="M53.07,47A4.59,4.59,0,0,0,51,43.85a9.74,9.74,0,0,0-1.67-.62c-3.41-.87-4.22,1.68-4.4,2.64,0-.32.1-.83.16-1.47.09-1,.17-2.21.17-3.48a12.23,12.23,0,0,0-.8-5.1,2.62,2.62,0,0,0-.6-.8,1.49,1.49,0,0,0-1.53-.44c-1.27.47-1.84,3.06-1.86,3.15,0-.42,1-23.93-5.63-28.27A4.07,4.07,0,0,0,32,8.81h0l-.38,0c-2.92.59-4.56,3.65-5.41,7.73-2.11,10.15.65,26.58.65,26.58a6.2,6.2,0,0,0-5.43-1.36c-3.36.67,1.25,12,1.35,12.22-.24-.17-10.17-7.33-8.83,3.4a49.32,49.32,0,0,0,2.82,11.22,44.75,44.75,0,0,0,3.6,7.57c3,6.22,9.89,18.24,21.1,7.71a33.1,33.1,0,0,0,6.86-10C52.84,64.44,54.6,52.67,53.07,47Z" fill="#98d9e4"/>
          </g>
          <path d="M56.49,55.1c-.6-2.22-1.56-3.78-2.9-4.41a13,13,0,0,0-2.34-.87c-4.78-1.22-5.91,2.35-6.16,3.7,0-.44.14-1.17.22-2.06.13-1.35.24-3.1.24-4.88,0-2.68-.25-5.44-1.13-7.15a3.77,3.77,0,0,0-.83-1.13,2.11,2.11,0,0,0-2.15-.61c-1.78.66-2.59,4.29-2.61,4.41,0-.58,1.39-33.56-7.89-39.64a5.72,5.72,0,0,0-4-.91h0a5,5,0,0,0-.54.08c-4.09.81-6.38,5.11-7.58,10.83-3,14.24.91,37.27.91,37.27a8.69,8.69,0,0,0-7.61-1.9C7.45,48.77,13.91,64.6,14.05,65,13.71,64.72-.2,54.68,1.67,69.74a69.62,69.62,0,0,0,4,15.73,62.77,62.77,0,0,0,5.05,10.61c4.24,8.73,13.87,25.57,29.59,10.8a46.19,46.19,0,0,0,9.63-14C56.18,79.56,58.64,63.06,56.49,55.1Z" fill="none" stroke="#28575c" stroke-miterlimit="10" stroke-width="3"/>
        </g>
        <g>
          <path d="M58.35,80.5A3.78,3.78,0,0,0,57,77.69,8.35,8.35,0,0,0,55.64,77c-2.73-1.07-3.65,1-3.9,1.73.07-.25.17-.67.28-1.2a28.71,28.71,0,0,0,.5-2.86,10,10,0,0,0-.15-4.29,2,2,0,0,0-.41-.73,1.24,1.24,0,0,0-1.22-.51c-1.1.26-1.84,2.34-1.86,2.41.06-.34,3.25-19.69-1.78-24a3.45,3.45,0,0,0-2.27-.82h-.32c-2.48.18-4.14,2.55-5.26,5.84-2.78,8.18-2.16,22-2.16,22A5.18,5.18,0,0,0,32.74,73c-2.84.22-.18,10-.12,10.25-.19-.17-7.67-7.1-7.65,1.91a41.47,41.47,0,0,0,1.19,9.56,37,37,0,0,0,2.21,6.62c1.86,5.46,6.33,16.09,16.66,8.52a27.65,27.65,0,0,0,6.69-7.56C56.4,94.9,59,85.35,58.35,80.5Z" fill="#3b7e82" stroke="#28575c" stroke-miterlimit="10" stroke-width="3"/>
          <g clip-path="url(#clip-path-2)">
            <path d="M55.55,74.3a2.94,2.94,0,0,0-1.08-2.19,6,6,0,0,0-1-.53,2.07,2.07,0,0,0-3,1.35c.05-.2.13-.53.22-.93.13-.62.28-1.41.39-2.23a7.94,7.94,0,0,0-.12-3.35,1.52,1.52,0,0,0-.32-.56,1,1,0,0,0-1-.4c-.86.2-1.43,1.82-1.45,1.87,0-.26,2.53-15.33-1.39-18.65A2.65,2.65,0,0,0,45,48h-.25c-1.92.15-3.22,2-4.09,4.55C38.51,59,39,69.76,39,69.76a4,4,0,0,0-3.39-1.3c-2.22.17-.14,7.8-.1,8-.14-.13-6-5.53-5.95,1.49a31.9,31.9,0,0,0,.92,7.45,28.82,28.82,0,0,0,1.72,5.16c1.46,4.24,4.93,12.53,13,6.63a21.3,21.3,0,0,0,5.21-5.89C54,85.52,56.09,78.08,55.55,74.3Z" fill="#98d9e4"/>
          </g>
          <path d="M58.35,80.5A3.78,3.78,0,0,0,57,77.69,8.35,8.35,0,0,0,55.64,77c-2.73-1.07-3.65,1-3.9,1.73.07-.25.17-.67.28-1.2a28.71,28.71,0,0,0,.5-2.86,10,10,0,0,0-.15-4.29,2,2,0,0,0-.41-.73,1.24,1.24,0,0,0-1.22-.51c-1.1.26-1.84,2.34-1.86,2.41.06-.34,3.25-19.69-1.78-24a3.45,3.45,0,0,0-2.27-.82h-.32c-2.48.18-4.14,2.55-5.26,5.84-2.78,8.18-2.16,22-2.16,22A5.18,5.18,0,0,0,32.74,73c-2.84.22-.18,10-.12,10.25-.19-.17-7.67-7.1-7.65,1.91a41.47,41.47,0,0,0,1.19,9.56,37,37,0,0,0,2.21,6.62c1.86,5.46,6.33,16.09,16.66,8.52a27.65,27.65,0,0,0,6.69-7.56C56.4,94.9,59,85.35,58.35,80.5Z" fill="none" stroke="#28575c" stroke-miterlimit="10" stroke-width="3"/>
        </g>
      </g>
    </g>
  </g>
</svg>
