<svg xmlns="http://www.w3.org/2000/svg" viewBox="0 0 18.3 49.6"><g id="Layer_2" data-name="Layer 2"><g id="Layer_1-2" data-name="Layer 1"><g id="fu_book_1" data-name="fu_book 1"><rect x="0.5" y="0.5" width="17.3" height="48.6" rx="1.3" style="fill:#17e5bb"/><path d="M16.5.5H1.8A1.3,1.3,0,0,0,.5,1.8V5.6H17.8V1.8A1.3,1.3,0,0,0,16.5.5Z" style="fill:#00a6e7"/><path d="M.5,43.9v3.9a1.3,1.3,0,0,0,1.3,1.3H16.5a1.3,1.3,0,0,0,1.3-1.3V43.9Z" style="fill:#00a6e7"/><rect x="4.3" y="10.3" width="9.7" height="29.08" rx="2.8" style="fill:#00a6e7"/><path d="M16.5.5H1.8A1.3,1.3,0,0,0,.5,1.8v46a1.3,1.3,0,0,0,1.3,1.3H16.5a1.3,1.3,0,0,0,1.3-1.3V1.8A1.3,1.3,0,0,0,16.5.5Z" style="fill:none;stroke:#457cd1;stroke-miterlimit:10"/></g></g></g></svg>