<svg xmlns="http://www.w3.org/2000/svg" xmlns:xlink="http://www.w3.org/1999/xlink" width="193.54" height="122.01" viewBox="0 0 193.54 122.01">
  <defs>
    <symbol id="New_Symbol_2" data-name="New Symbol 2" viewBox="0 0 169.64 91.27">
      <path d="M31,55.93c-1-1.1-7,1.87-7,1.87s-4.15-5.37-5.53-4.74-.4,7.27-.4,7.27-6.24,2.25-6.21,3.79,6.79,2.63,6.79,2.63-.14,6.9,1.69,7.08,4.59-5.65,4.59-5.65,6.48,1.88,7.26.59-3.95-6.12-3.95-6.12S32,57,31,55.93Z" fill="#ffeb81"/>
      <path d="M46.48,30.37c-.13-.83-3.87-1.34-3.87-1.34s-.26-3.81-1.1-4S39,28.36,39,28.36s-3.63-.91-4.1-.18,2.36,3.36,2.36,3.36-2.23,3.18-1.44,3.84,3.92-1.2,3.92-1.2,2.45,2.91,3.22,2.55.07-4.1.07-4.1S46.61,31.2,46.48,30.37Z" fill="#fff0f0"/>
      <path d="M93.4,68.84c-.5-.67-4.05.65-4.05.65s-2-3.25-2.82-3-.64,4-.64,4-3.63.9-3.7,1.77,3.66,1.85,3.66,1.85-.48,3.86.54,4.07,2.89-2.9,2.89-2.9,3.53,1.42,4,.74-1.87-3.65-1.87-3.65S93.9,69.51,93.4,68.84Z" fill="#fff0f0"/>
      <path d="M126.84,21.07s.12-3.82-.71-4-2.77,3-2.77,3-3.52-1.25-4.06-.57,2,3.57,2,3.57-2.53,2.95-1.8,3.69,4-.82,4-.82,2.15,3.14,3,2.85.47-4.07.47-4.07,3.66-1.09,3.62-1.92S126.84,21.07,126.84,21.07Z" fill="#fff0f0"/>
      <path d="M159.47,48s.69,3.74,1.54,3.8,2.08-3.53,2.08-3.53,3.79.49,4.09-.29-2.72-3.07-2.72-3.07,1.65-3.44,1-4-3.75,1.64-3.75,1.64S159,40,158.21,40.35s.39,4.08.39,4.08-3.5,1.67-3.13,2.64S159.47,48,159.47,48Z" fill="#fff0f0"/>
      <path d="M151.29,74.7s1.73-3.41,1.08-4-3.8,1.55-3.8,1.55-2.65-2.63-3.43-2.24.31,4.08.31,4.08-3.55,1.6-3.2,2.57,4,1,4,1,.61,3.75,1.46,3.83S149.84,78,149.84,78s3.78.59,4.1-.19S151.29,74.7,151.29,74.7Z" fill="#fff0f0"/>
      <path d="M99.74,10.54s-.82-3.65-1.68-3.74-2,3.61-2,3.61-3.84-.56-4.07.44,2.83,3,2.83,3-1.51,3.49-.84,4,3.7-1.77,3.7-1.77,2.87,2.52,3.56,2-.55-4.06-.55-4.06,3.29-1.94,3-2.76S99.74,10.54,99.74,10.54Z" fill="#fff0f0"/>
      <path d="M6.46,66.82c.34-.77-2.53-3.22-2.53-3.22s1.84-3.34,1.21-3.91c-.32-.29-1.27.06-2.14.48q.54,3.6,1.08,7C5.12,67.22,6.28,67.23,6.46,66.82Z" fill="#fff0f0"/>
      <path d="M63,59s-.18-3.73-1-4-2.54,3.22-2.54,3.22-3.69-1.22-4.09-.27,2.27,3.41,2.27,3.41-2.08,3.18-1.51,3.81S60.07,64,60.07,64s2.4,3,3.15,2.62.17-4.1.17-4.1,3.57-1.34,3.46-2.19S63,59,63,59Z" fill="#fff0f0"/>
      <path d="M119.5,53.84s.19-6.78-1.28-7.17-4.91,5.38-4.91,5.38-6.26-2.2-7.21-1,3.6,6.33,3.6,6.33-4.47,5.25-3.17,6.55,7.13-1.47,7.13-1.47,3.83,5.56,5.25,5,.81-7.24.81-7.24,6.51-2,6.42-3.44S119.5,53.84,119.5,53.84Z" fill="#ffeb81"/>
      <path d="M160.72,24.11s5.89,3.38,6.91,2.3-2.38-6.89-2.38-6.89,5.05-4.52,4.32-5.86-7.28.14-7.28.14-2.7-6.06-4.24-5.92-2.12,7-2.12,7S149,15.21,149,17s6,4.17,6,4.17-1.4,6.61-.05,7.29S160.72,24.11,160.72,24.11Z" fill="#ffeb81"/>
      <path d="M109.18,2.36c.77,1.67,7.2,1.08,7.2,1.08S118.06,10,119.57,10s3.26-6.52,3.26-6.52,6.77.42,7.21-1c.17-.58-.65-1.53-1.7-2.46H110.52C109.57.85,108.89,1.72,109.18,2.36Z" fill="#ffeb81"/>
      <path d="M72.39,83c-1.2-.93-6.63,3-6.63,3s-4.89-4.49-6.24-3.75.82,7.23.82,7.23a31.43,31.43,0,0,0-2.82,1.63c4.77.06,9.7.09,14.71.12-.83-.68-1.48-1.16-1.48-1.16S73.59,84,72.39,83Z" fill="#ffeb81"/>
      <path d="M72.16,28.79S75,22.63,73.8,21.7s-6.63,3-6.63,3S62.28,20.23,60.93,21s.82,7.23.82,7.23S55.57,31.28,56.26,33s7.13,1.46,7.13,1.46,1.34,6.61,2.85,6.7,3.59-6.34,3.59-6.34,6.75.77,7.25-.64S72.16,28.79,72.16,28.79Z" fill="#ffeb81"/>
      <path d="M6.89,28.54c1.4.57,5.41-4.87,5.41-4.87s6.16,2.87,7.08,1.69-3-6.65-3-6.65,4.65-5,3.8-6.21-7.24.76-7.24.76S9.75,7.46,8.24,7.73s-1.51,7.12-1.51,7.12-6.84,1-6.73,2.8,6.31,3.64,6.31,3.64S5.48,28,6.89,28.54Z" fill="#ffeb81"/>
      <path d="M167,67.86s-5.62-3.53-6.82-2.56,2.12,7,2.12,7-5.52,4.14-4.54,5.7,7.28.13,7.28.13.14.35.37.87c.29-1.28.62-2.67,1-4.16.43-2.36.86-4.93,1.3-7.66Z" fill="#ffeb81"/>
      <path d="M24.47,30.62a1.83,1.83,0,1,0-1.83-1.83A1.83,1.83,0,0,0,24.47,30.62Z" fill="#ffeb81"/>
      <circle cx="8.32" cy="49.92" r="1.83" fill="#ffeb81"/>
      <path d="M95.3,34.93a1.84,1.84,0,1,0,1.84,1.83A1.83,1.83,0,0,0,95.3,34.93Z" fill="#ffeb81"/>
      <path d="M135.56,67a1.83,1.83,0,1,0,1.83,1.83A1.83,1.83,0,0,0,135.56,67Z" fill="#ffeb81"/>
      <circle cx="75.7" cy="10.64" r="1.83" transform="translate(-0.62 6.3) rotate(-4.74)" fill="#ffeb81"/>
      <path d="M114.22,81.41a1.84,1.84,0,1,0,1.83,1.83A1.83,1.83,0,0,0,114.22,81.41Z" fill="#ffeb81"/>
      <circle cx="141.03" cy="14.31" r="1.83" transform="translate(104.32 151.23) rotate(-80.78)" fill="#ffeb81"/>
      <path d="M152.66,38.6a1.84,1.84,0,1,0-1.84,1.83A1.84,1.84,0,0,0,152.66,38.6Z" fill="#ffeb81"/>
      <circle cx="52.96" cy="12.48" r="1.83" fill="#ffeb81"/>
      <circle cx="126.14" cy="41.14" r="1.83" fill="#ffeb81"/>
      <circle cx="78.95" cy="57.1" r="1.83" fill="#ffeb81"/>
      <circle cx="46.49" cy="68.91" r="1.83" fill="#ffeb81"/>
    </symbol>
  </defs>
  <g style="isolation: isolate">
    <g id="Layer_2" data-name="Layer 2">
      <g id="Layer_1-2" data-name="Layer 1">
        <g id="fu_cart_front" data-name="fu_cart front">
          <g>
            <path d="M188.86,0h-7.64L182,1.7H11.57L12.32,0H4.68L1.5,7.23V8.7H192V7.23Z" fill="#ffeb81"/>
            <path d="M182.86,0h-3.28l.09.2H13.86L14,0H10.68L9.27,3.2h175Zm0,0h-3.28l.09.2H13.86L14,0H10.68L9.27,3.2h175Zm7.65,0h-3.28l3.16,7.2H3.14L6.31,0H3L0,6.91V10.2H193.54V6.91Zm-7.65,0h-3.28l.09.2H13.86L14,0H10.68L9.27,3.2h175Z" fill="#ff8d3d"/>
          </g>
          <g>
            <path d="M187.44,13.63s-4.59,40.77-8.85,67.16c-.44,2.72-1.36,5-1.79,7.41-.37,1.49-.21,3.13-.5,4.41-1.23,5.43-1.82,8.92-2.65,9.51s-6.52,1.55-15.09,1.9C121,105.57,25.66,105.15,20,102.77a.67.67,0,0,1-.19-.1h0c-.49-.42-1.1-2.38-1.8-5.45-.6-2.6-1.1-6-2-10.19-.34-2-.69-4.07-1-6.28a23.46,23.46,0,0,0-1.08-7C11.29,56.43,8.57,35.44,7.06,23.4c-.15-1.06-.28-2-.4-3-.55-4.2-.81-6.8-.81-6.8Z" fill="#baa2ee" stroke="#7850b3" stroke-miterlimit="10" stroke-width="3"/>
            <use width="169.64" height="91.27" transform="translate(10.93 13.63)" xlink:href="#New_Symbol_2"/>
            <path d="M187.44,13.63s-4.59,40.77-8.85,67.16c-.44,2.72-2,10.54-2.29,11.82-1.23,5.43-1.82,8.92-2.65,9.51s-6.52,1.55-15.09,1.9C121,105.57,25.66,105.15,20,102.77a.67.67,0,0,1-.19-.1h0c-.49-.42-1.1-2.38-1.8-5.45-.6-2.6-1.1-6-2-10.19-.34-2-7.48-51.59-9-63.63-.15-1.06-.28-2-.4-3-.55-4.2-.81-6.8-.81-6.8Z" fill="none" stroke="#7850b3" stroke-miterlimit="10" stroke-width="3"/>
            <path d="M190.3,18.16c-1,.93-185.78,0-187,0S.56,10.08,2.19,9.31s188.41-.85,189.27,0S191.3,17.23,190.3,18.16Z" fill="#ffaa5a" stroke="#ff8d3d" stroke-miterlimit="10" stroke-width="3"/>
            <g>
              <circle cx="43.24" cy="104.35" r="16.15" fill="#ffaa5a" stroke="#ff8d3d" stroke-miterlimit="10" stroke-width="3"/>
              <circle cx="43.24" cy="104.35" r="8.82" transform="translate(-44.1 32.72) rotate(-28.14)" fill="#a7bfee" stroke="#5576b4" stroke-miterlimit="10" stroke-width="3"/>
              <path d="M29.78,103c.83-2,1.11-4.27,4.77-7.87,2.87-2.83,7.18-3.06,9.19-4C45.23,90.4,38.07,89.05,33,94,27.65,99.22,29,104.84,29.78,103Z" fill="#ffaa5a" stroke="#ff8d3d" stroke-miterlimit="10" stroke-width="3" opacity="0.4" style="mix-blend-mode: screen"/>
              <path d="M40.14,97.9c.29.36-.22,1.26-1.15,2s-1.92,1-2.21.68.23-1.26,1.15-2S39.85,97.53,40.14,97.9Z" fill="#a7bfee" stroke="#5576b4" stroke-miterlimit="10" stroke-width="3" opacity="0.4" style="mix-blend-mode: screen"/>
            </g>
            <g>
              <circle cx="151.26" cy="104.35" r="16.15" transform="matrix(0.16, -0.99, 0.99, 0.16, 24.03, 236.95)" fill="#ffaa5a" stroke="#ff8d3d" stroke-miterlimit="10" stroke-width="3"/>
              <circle cx="151.26" cy="104.35" r="8.82" transform="translate(13.36 225.81) rotate(-75.97)" fill="#a7bfee" stroke="#5576b4" stroke-miterlimit="10" stroke-width="3"/>
              <path d="M137.8,103c.83-2,1.11-4.27,4.77-7.87,2.87-2.83,7.18-3.06,9.19-4,1.49-.72-5.67-2.07-10.77,2.91C135.67,99.22,137.05,104.84,137.8,103Z" fill="#ffaa5a" stroke="#ff8d3d" stroke-miterlimit="10" stroke-width="3" opacity="0.4" style="mix-blend-mode: screen"/>
              <path d="M148.16,97.9c.29.36-.22,1.26-1.15,2s-1.91,1-2.21.68.23-1.26,1.15-2S147.87,97.53,148.16,97.9Z" fill="#a7bfee" stroke="#5576b4" stroke-miterlimit="10" stroke-width="3" opacity="0.4" style="mix-blend-mode: screen"/>
            </g>
          </g>
        </g>
      </g>
    </g>
  </g>
</svg>
