<svg xmlns="http://www.w3.org/2000/svg" width="349.06" height="112.15" viewBox="0 0 349.06 112.15">
  <g id="Layer_2" data-name="Layer 2">
    <g id="Layer_1-2" data-name="Layer 1">
      <g id="fu_hanging_deco_1" data-name="fu_hanging deco 1">
        <circle cx="5.11" cy="6.45" r="5.11" fill="#606060"/>
        <path d="M333.55,5.11a5.11,5.11,0,1,0-5.11,5.1A5.11,5.11,0,0,0,333.55,5.11Z" fill="#606060"/>
        <path d="M5.11,5.11s162,96.2,323.33,0" fill="none" stroke="#606060" stroke-miterlimit="10" stroke-width="5"/>
        <g>
          <line x1="47.45" y1="64.16" x2="47.45" y2="23.87" fill="none" stroke="#606060" stroke-miterlimit="10" stroke-width="4"/>
          <path d="M70.19,63.81A13.15,13.15,0,0,0,57,50.66c-3.32,0-7.19,4.25-9.59,6.81-2.4-2.56-5.67-6.81-9.59-6.81a13.15,13.15,0,0,0-9.28,22.47h0L47.45,88.2,66.34,73.13h0A13.1,13.1,0,0,0,70.19,63.81Z" fill="#fc3d6b"/>
          <path d="M32.16,69.31a7.84,7.84,0,0,1-2.23-5.5,7.93,7.93,0,0,1,7.93-7.92c1.1,0,3.65,2.83,4.74,4,.36.4.7.78,1,1.13l3.82,4.07,4-4.31c1-1.13,4.23-4.52,5.66-4.92a7.92,7.92,0,0,1,5.59,13.42L47.45,81.51Z" fill="#f7f7f7"/>
          <line x1="95.29" y1="79.09" x2="95.29" y2="38.8" fill="none" stroke="#606060" stroke-miterlimit="10" stroke-width="4"/>
          <path d="M118,78.74a13.15,13.15,0,0,0-13.15-13.15c-3.32,0-7.19,4.25-9.59,6.81-2.4-2.56-5.67-6.81-9.59-6.81a13.15,13.15,0,0,0-9.28,22.47h0l18.89,15.07,18.89-15.07h0A13.12,13.12,0,0,0,118,78.74Z" fill="#fff5f9"/>
          <path d="M80,84.24a7.84,7.84,0,0,1-2.22-5.5,7.93,7.93,0,0,1,7.92-7.92c1.1,0,3.65,2.82,4.75,4,.35.4.69.77,1,1.12l3.82,4.08,4-4.32c1-1.12,4.23-4.52,5.66-4.91a7.92,7.92,0,0,1,5.59,13.42L95.29,96.44Z" fill="#ffaec5"/>
          <line x1="143.83" y1="86.66" x2="143.83" y2="46.37" fill="none" stroke="#606060" stroke-miterlimit="10" stroke-width="4"/>
          <path d="M166.57,86.31a13.15,13.15,0,0,0-13.15-13.15c-3.32,0-7.19,4.25-9.59,6.81-2.4-2.56-5.66-6.81-9.59-6.81A13.15,13.15,0,0,0,125,95.63h0l18.89,15.08,18.89-15.08h0A13.1,13.1,0,0,0,166.57,86.31Z" fill="#fc3d6b"/>
          <path d="M128.54,91.81a7.92,7.92,0,0,1,5.7-13.42c1.1,0,3.66,2.83,4.75,4,.35.39.69.77,1,1.12l3.82,4.07,4-4.31c1-1.13,4.23-4.52,5.66-4.92a7.92,7.92,0,0,1,5.59,13.42L143.83,104Z" fill="#f7f7f7"/>
          <line x1="191.67" y1="88.1" x2="191.67" y2="47.81" fill="none" stroke="#606060" stroke-miterlimit="10" stroke-width="4"/>
          <path d="M214.41,87.75A13.15,13.15,0,0,0,201.26,74.6c-3.32,0-7.19,4.25-9.59,6.81-2.4-2.56-5.66-6.81-9.59-6.81a13.15,13.15,0,0,0-9.28,22.47h0l18.89,15.08,18.89-15.08h0A13.1,13.1,0,0,0,214.41,87.75Z" fill="#fff5f9"/>
          <path d="M176.38,93.25a7.92,7.92,0,0,1,5.7-13.42c1.1,0,3.66,2.83,4.75,4l1,1.12,3.82,4.07,4-4.31c1.06-1.13,4.23-4.52,5.67-4.92a7.93,7.93,0,0,1,7.8,7.92,7.83,7.83,0,0,1-2.22,5.5l-15.29,12.2Z" fill="#ffaec5"/>
          <line x1="240.21" y1="81.19" x2="240.21" y2="40.9" fill="none" stroke="#606060" stroke-miterlimit="10" stroke-width="4"/>
          <path d="M263,80.84A13.16,13.16,0,0,0,249.8,67.69c-3.32,0-7.19,4.25-9.59,6.81-2.4-2.56-5.66-6.81-9.59-6.81a13.15,13.15,0,0,0-9.28,22.47h0l18.89,15.08L259.1,90.16h0A13.07,13.07,0,0,0,263,80.84Z" fill="#fc3d6b"/>
          <path d="M224.92,86.34a7.92,7.92,0,0,1,5.7-13.42c1.1,0,3.66,2.83,4.75,4l1,1.12,3.82,4.07,4-4.31c1.06-1.13,4.23-4.52,5.67-4.92a7.94,7.94,0,0,1,7.81,7.92,7.84,7.84,0,0,1-2.23,5.5l-15.29,12.2Z" fill="#f7f7f7"/>
          <line x1="288.05" y1="65.54" x2="288.05" y2="25.24" fill="none" stroke="#606060" stroke-miterlimit="10" stroke-width="4"/>
          <path d="M310.8,65.19A13.16,13.16,0,0,0,297.64,52c-3.32,0-7.19,4.25-9.59,6.81-2.4-2.56-5.66-6.81-9.59-6.81a13.15,13.15,0,0,0-9.28,22.47h0l18.89,15.08L307,74.5h0A13.09,13.09,0,0,0,310.8,65.19Z" fill="#fff5f9"/>
          <path d="M272.76,70.69a7.92,7.92,0,0,1,5.7-13.42c1.11,0,3.66,2.82,4.75,4l1,1.12,3.81,4.08,4.05-4.32c1-1.12,4.22-4.52,5.66-4.91a7.91,7.91,0,0,1,5.58,13.42l-15.29,12.2Z" fill="#ffaec5"/>
        </g>
        <line x1="328.44" y1="45.39" x2="328.44" y2="5.1" fill="none" stroke="#606060" stroke-miterlimit="10" stroke-width="4"/>
        <path d="M347.56,34.73a11,11,0,0,0-11.06-11c-2.79,0-6,3.57-8.06,5.72-2-2.15-4.76-5.72-8.06-5.72a11.05,11.05,0,0,0-7.8,18.88h0l15.88,12.67,15.88-12.67h0A11,11,0,0,0,347.56,34.73Z" fill="#ff739b" stroke="#b7416c" stroke-miterlimit="10" stroke-width="3"/>
      </g>
    </g>
  </g>
</svg>
