<svg xmlns="http://www.w3.org/2000/svg" width="98.03" height="71.32" viewBox="0 0 98.03 71.32"><g style="isolation:isolate"><g id="Layer_2" data-name="Layer 2"><g id="Layer_1-2" data-name="Layer 1"><g id="fu_straw1"><path d="M94.79,44.81a9,9,0,0,1-2.92-3.89,3.73,3.73,0,0,0,1.41.91c.23.08.54-.35.61-.51.73-1.82-.32-4.56-1.63-7.07a2.28,2.28,0,0,0,1.19.47c.28,0,.56-.34.61-.58.51-2.46-1.31-5.29-2.41-7.35a5.74,5.74,0,0,0-1-1.39c1.14,1.07,2.14,2.27,3.24,3.37,0,0,.12,0,.15,0l.38-.19a.59.59,0,0,0,.33-.45c0-2.59-1.45-5.47-3.41-7.78,1.85-.34,2-1.78.94-3.27A2.8,2.8,0,0,0,95,16.64c.16-.16.38-.44.31-.68a5.92,5.92,0,0,0-2.55-3.12c1.72,0,3.24-.33,2.94-1.63-.53-2.37-3.19-3.36-5.32-3.74l.14-.06c.19-.08.75-.66.47-.88-1.5-1.2-3.59-1.07-5.52-.73.1-.15.2-.32.28-.45s.21-.4.06-.49c-1.58-.9-4.07-.53-6.38.2a2.42,2.42,0,0,0,.18-.36c0-.12.12-.36-.06-.39-2.78-.51-5.17.18-7.84.77.25-.2.5-.42.81-.69.16-.12.5-.61.19-.73-2.23-.86-4.58.12-6.62,1.28A6.46,6.46,0,0,0,67.72,3.5c.09-.13.32-.44.15-.59-1.39-1.22-4.69.62-6.23,1.18A18.74,18.74,0,0,0,57.89,5.9a17.57,17.57,0,0,1,3.3-3.26c.14-.11.52-.48.38-.69s-.16-.24-.24-.36a.16.16,0,0,0-.18-.09C58,2.17,55,3.6,53.32,6.31a7.58,7.58,0,0,0-2.06-2.42c-.27-.18-.7.43-.68.65a14.71,14.71,0,0,0,.51,2.11c.19.86-1.52-2.49-2.24-3.26-.2-.22-.63.4-.65.54-.41,2.78-2.11,3.35-.62.4a.29.29,0,0,0,0-.31l-.21-.25c0-.06-.16,0-.21,0A41.86,41.86,0,0,1,43,5a7.19,7.19,0,0,0-1.47.66,4.6,4.6,0,0,0,1.29-1.37c0-.09.19-.39,0-.43-2.35-.38-5.06.68-7.45,1.7a7.27,7.27,0,0,0,.76-.4,1.83,1.83,0,0,0,.6-.77c0-.08.19-.38,0-.4-3.15-.44-6.34,1-8.84,2.84-3,2.14.78-.61.94-2.47a.1.1,0,0,0-.09-.12c-2-.2-4.49,1.91-5.58,4.17-2.72-1-5.72-1.52-8.46-.23-.16.07-.69.6-.43.79a4.28,4.28,0,0,0,.86.47c-2.67-.06-5.6.48-6.12,2.11,0,0,0,.18,0,.21a6.71,6.71,0,0,0,3.35.73A11.86,11.86,0,0,0,7.6,14.42a.75.75,0,0,0-.36.65l.06.26a.12.12,0,0,0,.09.08c2.5,0-.17-.11-1.06.44a15.42,15.42,0,0,0-3.9,3c-.11.12-.31.47-.08.55.82.34,1.64.63,2.48.9C7.82,21.35,8,22,9,24.68a16.74,16.74,0,0,0,3.53,5.21,12.41,12.41,0,0,0,4,4.62A4.52,4.52,0,0,0,17,36.67c.08.17.28.06.4,0a3,3,0,0,0,.88-.92l.54.36c0,.2,0,.39-.05.59a100.45,100.45,0,0,0,.32,12.14c.14,2.54.16,6.22,1.27,8.59.14.3.56-.21.65-.33,1-1.45.52-.85,1.33-3A7.42,7.42,0,0,0,22,57.14a.15.15,0,0,0,.11.14l.46.18c.12,0,.28-.1.35-.17a9.13,9.13,0,0,0,2.26-2.91c1.42-2.6-.78,2.29-.94,2.76,0,.09-.1.24,0,.32,1,.83,5.42-.24,6.62-.43,1.63-.26,3.24-.53,4.83-.89a6.11,6.11,0,0,0-1.52,2.71c0,.07,0,.19.08.21a3.68,3.68,0,0,0,1.9-.65c1-.41,2-1,3-1.39a9.23,9.23,0,0,0,1.11-.6c.38-.16.76-.3,1.14-.43a2.88,2.88,0,0,0-.64,1.84c0,.07,0,.12.08.13a7,7,0,0,0,1.84-.31,10.52,10.52,0,0,0,2.75-.88l.41-.18A7,7,0,0,0,45.19,58c0,.15.06.23.19.16,1.43-.74,2.93-1.31,4.36-2l-.27.56c-.19.4-.44,1.33.29,1a5.55,5.55,0,0,0,1.54-1.4,5.77,5.77,0,0,1,.63-.58c1.4,1.34,4.47,1.56,6,1.56.23,0,.67-.42.54-.67s-.36-.69-.55-1l2.66,1.15c.41.18.82.34,1.24.49s.63.33,1,.48c6.27,3.14,13.2,3.85,18,9.46a.2.2,0,0,0,.13,0c1.11-.28,1.83-1.49,2.55-2.27,2-2.1,4.47-2.58,6.59-4.13.13-.1.42-.39.32-.59a2.92,2.92,0,0,0-.46-.63l.4.23c.25.14.57-.36.53-.57a2.11,2.11,0,0,0-.5-1l.41.33c1.39,1.12.24.78,1.14,1.12.2.07.46-.35.46-.51a5.64,5.64,0,0,0-.89-3.31,1.91,1.91,0,0,0,1.79.43.85.85,0,0,0,.5-.8,11.22,11.22,0,0,0-2.32-3.91h.07c.38.13.76.24,1.13.39.58.21,1.83,1.16,2.56.93a.63.63,0,0,0,.42-.52c0-1.5-1.5-3.38-2.3-4.59-.2-.31-.42-.61-.65-.9l.19,0c.78.23,3,.51,3.55-.4S95.35,45.18,94.79,44.81ZM16.37,33.33l.26.15s0,0,0,0Zm2.33,1.58.09-.24.18.08a2.58,2.58,0,0,0,0,.29Z" fill="#ffaa5a" stroke="#ff8d3d" stroke-linecap="round" stroke-linejoin="round" stroke-width="3"/><path d="M82.78,55.56a9,9,0,0,1-2.93-3.89,3.86,3.86,0,0,0,1.41.91c.24.08.54-.35.61-.51.73-1.82-.32-4.57-1.63-7.07a2.39,2.39,0,0,0,1.19.48c.28,0,.56-.35.61-.6.51-2.45-1.31-5.29-2.41-7.35a5.34,5.34,0,0,0-1-1.37c1.14,1.06,2.14,2.25,3.24,3.35a.12.12,0,0,0,.15,0l.39-.2a.56.56,0,0,0,.32-.44c0-2.59-1.45-5.48-3.41-7.79,1.86-.33,2-1.78,1-3.27A2.78,2.78,0,0,0,83,27.39c.16-.16.38-.44.3-.68a5.89,5.89,0,0,0-2.56-3.12c1.74,0,3.25-.33,3-1.64-.54-2.36-3.19-3.36-5.33-3.73l.15-.06c.18-.09.75-.66.47-.88-1.51-1.2-3.6-1.08-5.53-.73.11-.16.2-.32.28-.46s.21-.39.06-.47c-1.57-.9-4.07-.54-6.37.18a2.85,2.85,0,0,0,.17-.35c0-.12.13-.35-.06-.39-2.78-.51-5.17.18-7.84.77.25-.2.51-.42.82-.69.14-.13.5-.61.18-.73-2.23-.86-4.58.12-6.62,1.27a6.24,6.24,0,0,0,1.61-1.43c.09-.13.32-.44.15-.59-1.4-1.22-4.69.61-6.23,1.18a18,18,0,0,0-3.75,1.81,17.62,17.62,0,0,1,3.31-3.26c.13-.11.51-.48.37-.69l-.24-.36a.15.15,0,0,0-.18-.08c-3.13.66-6.19,2.1-7.82,4.8a7.74,7.74,0,0,0-2.07-2.42c-.27-.19-.69.43-.68.65a13.53,13.53,0,0,0,.52,2.11c.18.86-1.53-2.49-2.25-3.27-.2-.21-.63.4-.65.55-.4,2.77-2.11,3.35-.62.4a.29.29,0,0,0,0-.31c-.07-.09-.14-.17-.2-.26s-.17,0-.22,0c-1.28.53-2.81.82-4.14,1.22a7.15,7.15,0,0,0-1.47.65A4.68,4.68,0,0,0,30.82,15c.05-.09.19-.39,0-.43-2.35-.39-5.06.67-7.45,1.7a7.27,7.27,0,0,0,.76-.4,1.86,1.86,0,0,0,.6-.78c.06-.08.19-.37,0-.4-3.14-.44-6.34,1-8.84,2.85-3,2.13.78-.61.94-2.47a.1.1,0,0,0-.08-.12c-2-.2-4.5,1.91-5.58,4.17-2.72-1-5.73-1.52-8.47-.24-.16.08-.69.61-.42.8,1.1.79,2.41.84,3.72,1.18s-.76,1-1.48,1.59c-1.07.91-3.27,2.58-3,4.16,0,.08.12.08.18.07A10,10,0,0,0,5.56,25,7.27,7.27,0,0,0,3.2,28.43c0,.14,0,.21.19.15A10,10,0,0,0,6.22,26.8,8,8,0,0,0,4.56,30c-.34,1.5,1.06.73,1.67.31.36-.24,1.53-1.34,1.55-1.36a19.1,19.1,0,0,0-2,5.73,34.65,34.65,0,0,0-.87,6.73c-.08,1.71-.76,4.44.11,6,.09.17.28.06.4,0A4.35,4.35,0,0,0,7,44.84a.32.32,0,0,0,0-.09c-.1.88-.17,1.77-.23,2.68A96.52,96.52,0,0,0,7.1,59.57c.13,2.54.15,6.22,1.26,8.58.14.3.57-.21.65-.32,1-1.46.51-.85,1.34-3a7.33,7.33,0,0,0-.41,3.07c0,.09,0,.13.1.15l.47.18c.11,0,.27-.11.34-.17a9.3,9.3,0,0,0,2.27-2.91c1.41-2.6-.79,2.28-1,2.76,0,.1-.09.24,0,.32,1,.83,5.42-.24,6.63-.43,1.62-.27,3.23-.53,4.82-.89a6.16,6.16,0,0,0-1.52,2.71c0,.07,0,.19.08.21a3.75,3.75,0,0,0,1.9-.65c1-.41,2-1,3-1.4a6.74,6.74,0,0,0,1.12-.6c.37-.15.75-.28,1.13-.42a2.9,2.9,0,0,0-.64,1.84.12.12,0,0,0,.09.13,6.58,6.58,0,0,0,1.83-.32,9.86,9.86,0,0,0,2.76-.87l.41-.19a6.53,6.53,0,0,0-.62,1.45c0,.15.06.23.19.16,1.42-.74,2.92-1.31,4.35-2-.09.18-.18.36-.27.56-.19.4-.44,1.32.29,1a5.26,5.26,0,0,0,1.54-1.4,5.9,5.9,0,0,1,.64-.57c1.39,1.34,4.46,1.56,6,1.56.23,0,.67-.43.55-.67-.2-.39-.4-.76-.61-1.12l.81.3a7,7,0,0,0,5.21.27.93.93,0,0,0,.44-.53,23.89,23.89,0,0,0,3.9,1.47,35.24,35.24,0,0,0,3.79.63,3.64,3.64,0,0,0,1.7.13c.14,0,.48-.33.37-.53a4.14,4.14,0,0,0-.64-.78c1.31.53,3.07,1.47,4.48,1.35.16,0,.5-.38.39-.56a4.41,4.41,0,0,0-1.52-1.19c.09,0,.18.07.27.09,1.42.45,3,1.32,4.53,1.39.19,0,.49-.31.41-.5a4,4,0,0,0-1.2-1.22l-.27-.24c1.45.77,3.24,1.86,4.81,2,.3,0,.72-.47.61-.76a4.57,4.57,0,0,0-.75-1.31c1.49.81,2.91,1.2,3.92.28a.72.72,0,0,0,.28-.62,3.84,3.84,0,0,0-.2-.6l1.43.83c.73.43,1.7,1.34,2.59,1a.88.88,0,0,0,.49-.81,11.41,11.41,0,0,0-2.31-3.91h.07c.37.13.75.24,1.12.38.57.22,1.83,1.16,2.56.93a.64.64,0,0,0,.43-.51c0-1.5-1.51-3.38-2.3-4.59q-.32-.47-.66-.9l.19.06c.78.21,3,.5,3.56-.41S83.33,55.93,82.78,55.56Z" fill="#fcd667" stroke="#ff8d3d" stroke-linecap="round" stroke-linejoin="round" stroke-width="3"/><g opacity="0.6" style="mix-blend-mode:multiply"><path d="M22.29,38.88A5.24,5.24,0,0,0,25.35,40c0-.13,0-.25-.11-.3a12,12,0,0,1-4.33-3.83A3.67,3.67,0,0,0,22.29,38.88Z" fill="#cb833b" opacity="0.6" style="mix-blend-mode:multiply"/><path d="M17.64,45.86a5.48,5.48,0,0,0,3.61,3.71,5.66,5.66,0,0,0,.72.07c.33-.17.59-.81.3-1a9,9,0,0,1-4.52-4.93A4.13,4.13,0,0,0,17.64,45.86Z" fill="#cb833b" opacity="0.6" style="mix-blend-mode:multiply"/><path d="M40.5,56.08A4.8,4.8,0,0,1,40.88,58,.11.11,0,0,0,41,58a1.12,1.12,0,0,0,.66-.1c.44-1-.21-2.4-.53-3.32a8.76,8.76,0,0,0-1.43-2.71,7.91,7.91,0,0,0-1.36-.24A5.73,5.73,0,0,1,39.75,54C40,54.72,40.29,55.37,40.5,56.08Z" fill="#cb833b" opacity="0.6" style="mix-blend-mode:multiply"/><path d="M28.3,26.81a5.78,5.78,0,0,1-1.8-3.4c-.07-.2-.12-.39-.18-.58a.62.62,0,0,0-.25.37c-.13,2.55,2.65,7.19,6.13,6.89A11.06,11.06,0,0,1,28.3,26.81Z" fill="#cb833b" opacity="0.6" style="mix-blend-mode:multiply"/><path d="M48,35.77a11.21,11.21,0,0,1-4-4.88A9.12,9.12,0,0,0,44,32.25a10.52,10.52,0,0,0,1,2A9.07,9.07,0,0,0,48,35.77Z" fill="#cb833b" opacity="0.6" style="mix-blend-mode:multiply"/><path d="M61.8,43.85A11.76,11.76,0,0,0,68.32,43c.13-.26.2-.54-.07-.51-2.34.34-4.23.66-6.5.08a9.88,9.88,0,0,1-4.62-2.66A6.32,6.32,0,0,0,61.8,43.85Z" fill="#cb833b" opacity="0.6" style="mix-blend-mode:multiply"/><path d="M58.22,48.89l-1.32-.31c.33.48.74.91,1.05,1.37.54.79,1.59,2.1,1.5,3.06-.05.48.4.2.52-.09.4-.93-.07-1.56-.53-2.36A10.51,10.51,0,0,0,58.22,48.89Z" fill="#cb833b" opacity="0.6" style="mix-blend-mode:multiply"/><path d="M67.07,32.3a3,3,0,0,0,.4-1,3.74,3.74,0,0,1-2.94,1.16,2.82,2.82,0,0,1-2.08-1.11,4.38,4.38,0,0,0,.2.94A3.44,3.44,0,0,0,67.07,32.3Z" fill="#cb833b" opacity="0.6" style="mix-blend-mode:multiply"/></g></g></g></g></g></svg>