<svg xmlns="http://www.w3.org/2000/svg" viewBox="0 0 46 48.1"><g id="Layer_2" data-name="Layer 2"><g id="Layer_1-2" data-name="Layer 1"><g id="fu_brush"><path d="M16.6,1h.1c.3,0,.4.3.4.5l2.4,3.8a6,6,0,0,1,1.9.6l.4.2-.9-1.4c-.2-.1-.4-.3-.3-.5a.5.5,0,0,1,.5-.5h.1a.6.6,0,0,1,.5.6L23.4,7,26,8.4l-.6-.9a.5.5,0,0,1-.3-.6c0-.2.3-.4.5-.4h.1a.5.5,0,0,1,.5.5l1.3,2.2,2.7,1.4-.3-.4c-.2-.1-.4-.3-.3-.5a.5.5,0,0,1,.5-.5h.1c.3.1.5.3.5.5l1.1,1.8,2.4,1.3c-.1-.1-.2-.3-.1-.4s.2-.4.5-.4h.1a.5.5,0,0,1,.5.5l.7,1.2,6.8,3.7a3.3,3.3,0,0,1,1.8,2.1h0v.2a2.8,2.8,0,0,1,.1.9l.2,1.6h0a2.9,2.9,0,0,1-.9,2.7l-8.6,9.8a5.9,5.9,0,0,1-6.8.9L20.2,31,7.7,45.8a3.8,3.8,0,0,1-2.6,1.3l-.8-.2L1.8,45.8a1.2,1.2,0,0,1-.7-1.2h0V42.8H1a2.2,2.2,0,0,1,.7-1.9L13.2,27.2,7.3,24a3.5,3.5,0,0,1-1.9-2.6h0l-.3-2.5h0A3.5,3.5,0,0,1,6,16.6l3-3.4-.7-1a.6.6,0,0,1-.3-.6c0-.2.3-.4.6-.4h0a.5.5,0,0,1,.5.5l.5.8,2.2-2.4L11,8.8a.7.7,0,0,1-.4-.5.6.6,0,0,1,.6-.5h.1a.5.5,0,0,1,.4.6l.7,1,2.2-2.5-.9-1.5a.5.5,0,0,1-.4-.6.7.7,0,0,1,.6-.4H14c.2,0,.4.3.4.5l.9,1.4a5.7,5.7,0,0,1,3.1-1L16.4,2a.7.7,0,0,1-.4-.6.7.7,0,0,1,.6-.4m0-1h0a1.4,1.4,0,0,0-1.5,1.3,1.3,1.3,0,0,0,.6,1.4l1.1,1.8-1.2.4-.2-.3a1.6,1.6,0,0,0-1.3-1.2h-.2a1.6,1.6,0,0,0-1.6,1.3A1.5,1.5,0,0,0,13,6.1l.4.7-.8.9a1.6,1.6,0,0,0-1.2-.9h-.2A1.5,1.5,0,0,0,9.7,8.1a1.5,1.5,0,0,0,.6,1.5l.2.4-.7.8a1.7,1.7,0,0,0-1-.6H8.6a1.5,1.5,0,0,0-1,2.7l.2.2L5.3,15.9a3.9,3.9,0,0,0-1.2,2.8V19l.3,2.5v.2a4.4,4.4,0,0,0,2.5,3.2l4.8,2.6L.9,40.3A3.3,3.3,0,0,0,0,42.9v1.7h0a2.2,2.2,0,0,0,1.3,2.1l2.5,1.1a2.4,2.4,0,0,0,1.2.3,5.4,5.4,0,0,0,3.4-1.6l12-14.2,7.7,4.1a6.6,6.6,0,0,0,3.2.8,6.9,6.9,0,0,0,4.8-1.9l8.6-9.8a4.4,4.4,0,0,0,1.1-3.6l-.2-1.5a1.8,1.8,0,0,0-.2-1h0a.6.6,0,0,0-.1-.4,5.1,5.1,0,0,0-2.2-2.4L36.6,13l-.5-.9A1.4,1.4,0,0,0,34.8,11h-.2a1.7,1.7,0,0,0-1,.3l-1.1-.6-.9-1.3a1.5,1.5,0,0,0-1.3-1.2h-.2a1.4,1.4,0,0,0-1.2.6l-.6-.3L27.1,6.7a1.5,1.5,0,0,0-1.2-1.2h-.3a1.3,1.3,0,0,0-1.3.8h-.2L22.6,3.9a1.5,1.5,0,0,0-1.3-1.2h-.2a1.5,1.5,0,0,0-1.4,1L18.1,1.2A1.5,1.5,0,0,0,16.8,0Z" style="fill:#7f1c81"/><path d="M44.9,22.1h0l-.4-2.7a5.4,5.4,0,0,1-.8.8,1.8,1.8,0,0,0-.7-.5L21.7,8.2a6,6,0,0,0-6.8.9L7,18.1l-1.9.8.3,2.5h0A3.5,3.5,0,0,0,7.3,24l7.3,4L2.3,42.5v-.4L1,42.8v1.8h0a1.2,1.2,0,0,0,.7,1.2l2.5,1.1a3.4,3.4,0,0,0,3.4-1.1L20.2,31l8.4,4.5a5.9,5.9,0,0,0,6.8-.9L44,24.8A2.9,2.9,0,0,0,44.9,22.1Z" style="fill:#ac53b0"/><path d="M28.4,33.2,7.1,21.8C4.9,20.6,4.5,18.3,6,16.6l8.6-9.8a6.2,6.2,0,0,1,6.8-.9L42.7,17.4c2.2,1.2,2.6,3.5,1.1,5.1l-8.6,9.8A5.9,5.9,0,0,1,28.4,33.2Z" style="fill:#e2a4ef"/><path d="M4.2,44.7,1.7,43.6c-.9-.5-.9-1.7,0-2.7l13.5-16c1-1.1,2.5-1.6,3.4-1.1l2.6,1.1c.9.4.9,1.6-.1,2.6L7.6,43.6A3.4,3.4,0,0,1,4.2,44.7Z" style="fill:#e2a4ef"/><path d="M28.2,30.8l-18.1-10c-1.8-1-2.3-2.9-1-4.2L16,8.8c1.2-1.4,3.8-1.6,5.6-.6l18.1,10c1.8,1,2.3,2.9,1,4.2l-6.8,7.8A4.9,4.9,0,0,1,28.2,30.8Z" style="fill:#fff69f"/><path d="M6.5,42.7a1.9,1.9,0,0,1-2.4.1c-.9-.5-1.2-1.3-.8-1.8a2.2,2.2,0,0,1,2.5-.3C6.6,41.2,6.9,42.2,6.5,42.7Z" style="fill:#ac53b0"/><path d="M39.2,20.3c-.1,0-.2,0-.3-.2l-4.6-7.3c-.1-.2-.1-.5.1-.6a.6.6,0,0,1,.7.1l4.6,7.4a.5.5,0,0,1-.2.6Z" style="fill:#3f3d39"/><path d="M35.2,12.6a.8.8,0,0,1-.7.4.4.4,0,0,1-.4-.6.4.4,0,0,1,.6-.4A.6.6,0,0,1,35.2,12.6Z" style="fill:#827c6c"/><path d="M36.5,23.7c-.1,0-.3,0-.3-.2l-4.6-7.3a.4.4,0,0,1,.1-.6c.2-.1.5-.1.6.1L37,23.1a.5.5,0,0,1-.2.6C36.7,23.7,36.6,23.8,36.5,23.7Z" style="fill:#3f3d39"/><path d="M32.4,16c0,.2-.3.4-.6.4a.6.6,0,0,1-.5-.6.6.6,0,0,1,.7-.4A.4.4,0,0,1,32.4,16Z" style="fill:#827c6c"/><path d="M33.8,27.2l-.3-.2-4.6-7.4c-.1-.2-.1-.5.1-.6a.6.6,0,0,1,.7.2l4.6,7.3a.5.5,0,0,1-.2.6Z" style="fill:#3f3d39"/><path d="M29.8,19.4a.6.6,0,0,1-.7.4.5.5,0,1,1,.2-1A.6.6,0,0,1,29.8,19.4Z" style="fill:#827c6c"/><path d="M31.2,30.5c-.2,0-.3-.1-.3-.2l-4.7-7.4a.4.4,0,0,1,.2-.5.4.4,0,0,1,.6.1l4.6,7.4a.4.4,0,0,1-.1.6Z" style="fill:#3f3d39"/><path d="M27.1,22.7a.6.6,0,0,1-.6.5.6.6,0,0,1-.5-.6.7.7,0,0,1,.7-.5C27,22.2,27.2,22.4,27.1,22.7Z" style="fill:#827c6c"/><path d="M30.2,14.9l-.3-.2L25.3,7.3a.4.4,0,0,1,.8-.4l4.6,7.4a.4.4,0,0,1-.2.5Z" style="fill:#3f3d39"/><path d="M26.2,7.1a.5.5,0,0,1-.7.4.4.4,0,0,1-.4-.6c0-.2.3-.4.6-.4A.6.6,0,0,1,26.2,7.1Z" style="fill:#827c6c"/><path d="M27.5,18.3l-.3-.2-4.6-7.4a.4.4,0,0,1,.2-.6c.2-.1.4,0,.6.2L28,17.7a.4.4,0,0,1-.2.5Z" style="fill:#3f3d39"/><path d="M23.5,10.5a.6.6,0,0,1-.7.4.4.4,0,0,1-.4-.6c0-.2.3-.4.6-.4A.6.6,0,0,1,23.5,10.5Z" style="fill:#827c6c"/><path d="M24.8,21.7l-.3-.2-4.6-7.4a.4.4,0,0,1,.2-.5.4.4,0,0,1,.6.1l4.6,7.4c.1.2,0,.4-.2.6Z" style="fill:#3f3d39"/><path d="M20.8,13.9a.6.6,0,0,1-.6.5c-.4-.1-.6-.3-.5-.6a.6.6,0,0,1,.6-.5A.6.6,0,0,1,20.8,13.9Z" style="fill:#827c6c"/><path d="M22.2,25.1c-.1-.1-.3-.1-.3-.2l-4.6-7.4a.4.4,0,0,1,.1-.6.5.5,0,0,1,.6.2l4.7,7.3a.5.5,0,0,1-.2.6Z" style="fill:#3f3d39"/><path d="M18.1,17.3a.4.4,0,0,1-.6.4.6.6,0,0,1-.5-.6.6.6,0,0,1,.7-.4A.4.4,0,0,1,18.1,17.3Z" style="fill:#827c6c"/><path d="M21.2,9.4c-.1,0-.3-.1-.3-.2L16.3,1.8c-.2-.2-.1-.4.1-.6a.5.5,0,0,1,.6.2l4.7,7.4a.4.4,0,0,1-.2.5Z" style="fill:#3f3d39"/><path d="M17.1,1.6a.4.4,0,0,1-.6.4.6.6,0,0,1-.5-.6.8.8,0,0,1,.7-.4A.4.4,0,0,1,17.1,1.6Z" style="fill:#827c6c"/><path d="M18.5,12.8l-.3-.2L13.6,5.2c-.2-.2-.1-.4.1-.6a.5.5,0,0,1,.6.2l4.6,7.4c.2.2.1.4-.1.5Z" style="fill:#3f3d39"/><path d="M14.4,5a.4.4,0,0,1-.6.4.6.6,0,0,1-.5-.6.8.8,0,0,1,.7-.4A.4.4,0,0,1,14.4,5Z" style="fill:#827c6c"/><path d="M15.8,16.2l-.3-.2L10.9,8.6c-.2-.2-.1-.4.1-.5a.4.4,0,0,1,.6.1l4.7,7.4a.5.5,0,0,1-.2.6Z" style="fill:#3f3d39"/><path d="M11.7,8.4a.6.6,0,0,1-.6.5.6.6,0,0,1-.5-.6.8.8,0,0,1,.7-.5C11.6,7.9,11.8,8.1,11.7,8.4Z" style="fill:#827c6c"/><path d="M13.2,19.6a.5.5,0,0,1-.4-.2L8.2,12a.4.4,0,0,1,.8-.4l4.6,7.3c.1.2.1.5-.1.6Z" style="fill:#3f3d39"/><path d="M9.1,11.8a.4.4,0,0,1-.6.4.6.6,0,0,1-.5-.6c.1-.3.3-.5.6-.4A.5.5,0,0,1,9.1,11.8Z" style="fill:#827c6c"/><path d="M34.7,17.6l-.3-.2L29.8,10c-.1-.2-.1-.4.2-.6s.4,0,.6.2L35.2,17c.1.2,0,.4-.2.6Z" style="fill:#3f3d39"/><path d="M30.7,9.8a.8.8,0,0,1-.7.5c-.3-.1-.5-.4-.4-.6a.6.6,0,0,1,.6-.5A.6.6,0,0,1,30.7,9.8Z" style="fill:#827c6c"/><path d="M32,21l-.3-.2-4.6-7.4a.5.5,0,0,1,.1-.6.6.6,0,0,1,.7.2l4.6,7.4c.1.2,0,.4-.2.6Z" style="fill:#3f3d39"/><path d="M28,13.2a.6.6,0,0,1-.7.4c-.3,0-.5-.3-.4-.5a.6.6,0,0,1,.6-.5A.6.6,0,0,1,28,13.2Z" style="fill:#827c6c"/><path d="M29.3,24.4l-.3-.2-4.6-7.3a.4.4,0,0,1,.2-.6.5.5,0,0,1,.6.1l4.6,7.4a.5.5,0,0,1-.2.6C29.5,24.4,29.4,24.5,29.3,24.4Z" style="fill:#3f3d39"/><path d="M25.3,16.6a.8.8,0,0,1-.7.5c-.3-.1-.5-.3-.4-.6a.6.6,0,0,1,.6-.5A.7.7,0,0,1,25.3,16.6Z" style="fill:#827c6c"/><path d="M26.7,27.8l-.3-.2-4.6-7.4a.4.4,0,0,1,.1-.6.5.5,0,0,1,.6.2l4.6,7.3c.2.3.1.5-.1.6Z" style="fill:#3f3d39"/><path d="M22.6,20a.4.4,0,0,1-.6.4.6.6,0,0,1-.5-.6.6.6,0,0,1,.7-.4A.4.4,0,0,1,22.6,20Z" style="fill:#827c6c"/><path d="M25.7,12.1l-.3-.2L20.8,4.5c-.1-.2-.1-.4.2-.5s.4-.1.6.1l4.6,7.4c.1.2,0,.4-.2.6Z" style="fill:#3f3d39"/><path d="M21.7,4.3a.8.8,0,0,1-.7.5c-.3-.1-.5-.3-.4-.6a.6.6,0,0,1,.6-.5A.6.6,0,0,1,21.7,4.3Z" style="fill:#827c6c"/><path d="M23,15.5l-.3-.2L18.1,7.9a.5.5,0,0,1,.1-.6.6.6,0,0,1,.7.2l4.6,7.4c.1.2,0,.4-.2.6Z" style="fill:#3f3d39"/><path d="M19,7.7a.8.8,0,0,1-.7.5c-.3-.1-.5-.4-.4-.6a.6.6,0,0,1,.6-.5A.6.6,0,0,1,19,7.7Z" style="fill:#827c6c"/><path d="M20.3,18.9c-.1,0-.2,0-.3-.2l-4.6-7.3a.4.4,0,0,1,.2-.6.5.5,0,0,1,.6.1l4.6,7.4a.5.5,0,0,1-.2.6C20.5,18.9,20.4,19,20.3,18.9Z" style="fill:#3f3d39"/><path d="M16.3,11.1a.8.8,0,0,1-.7.5c-.3-.1-.5-.3-.4-.6a.4.4,0,0,1,.6-.4A.5.5,0,0,1,16.3,11.1Z" style="fill:#827c6c"/><path d="M17.7,22.3c-.2,0-.3-.1-.3-.2l-4.6-7.4a.4.4,0,0,1,.1-.6.5.5,0,0,1,.6.2l4.6,7.4c.2.2.1.4-.1.5Z" style="fill:#3f3d39"/><path d="M13.6,14.5a.4.4,0,0,1-.6.4.6.6,0,0,1-.5-.6.8.8,0,0,1,.7-.4A.4.4,0,0,1,13.6,14.5Z" style="fill:#827c6c"/></g></g></g></svg>