<svg xmlns="http://www.w3.org/2000/svg" viewBox="0 0 36.5 37.7"><g id="Layer_2" data-name="Layer 2"><g id="Layer_1-2" data-name="Layer 1"><g id="to_ball_3" data-name="to_ball 3"><path d="M33.5,18.8a11.5,11.5,0,0,1-.1,1.9h0a15.9,15.9,0,0,1-.6,3h0a15.2,15.2,0,0,1-2.5,5.1h-.1a13.7,13.7,0,0,1-2.6,2.8l-1.1.8a17.1,17.1,0,0,1-2.3,1.3,14,14,0,0,1-6.1,1.4,14.7,14.7,0,0,1-6.7-1.6,14.1,14.1,0,0,1-5.3-4.4,7.1,7.1,0,0,1-1-1.4,4.3,4.3,0,0,0-.4-.7,17.8,17.8,0,0,1-1.4-3.6,18.8,18.8,0,0,1-.5-3.3V17.9h0c0-.2.1-.3.1-.5a18,18,0,0,1,.6-3.2h0a18.9,18.9,0,0,1,1.6-3.6h0A24.3,24.3,0,0,1,7.5,7.4h0A13.7,13.7,0,0,1,9.8,5.5a11.2,11.2,0,0,1,2.8-1.6l2.5-.8a16.6,16.6,0,0,1,3.2-.3h1.6a15.6,15.6,0,0,1,5.8,1.6h.1a13.4,13.4,0,0,1,5.5,5.1l.9,1.8A21,21,0,0,1,33.5,18.8Z" style="fill:#96b85c"/><path d="M19.9,21.8a2.5,2.5,0,0,1,3.6-.5,2.6,2.6,0,1,1-3.1,4.1A2.5,2.5,0,0,1,19.9,21.8Z" style="fill:#a7bfee;stroke:#5576b4;stroke-miterlimit:10"/><path d="M12.1,23.4A3.1,3.1,0,0,1,9.6,20a3.2,3.2,0,0,1,3-3.1c1.7.2,2.6,1.8,2.5,3.6A3,3,0,0,1,12.1,23.4Z" style="fill:#a7bfee;stroke:#5576b4;stroke-miterlimit:10"/><path d="M9.1,12.8c-1.3-.5-1.4-2.2-.6-3.6s2.4-2.3,3.6-1.7,1.3,2.2.5,3.7S10.6,13.5,9.1,12.8Z" style="fill:#a7bfee;stroke:#5576b4;stroke-miterlimit:10"/><path d="M26.6,15.6c-.4-1.5.2-2.9,1.4-3.2s2.4.6,2.8,2.2.1,3.1-1.4,3.5S27,17.2,26.6,15.6Z" style="fill:#a7bfee;stroke:#5576b4;stroke-miterlimit:10"/><path d="M16.2,2.9a4.3,4.3,0,0,0-3.5-.1,3.3,3.3,0,0,0-2.5,2.4c0,.9,1.3.3,1.9.1S16.9,3.6,16.2,2.9Z" style="fill:#a7bfee;stroke:#5576b4;stroke-miterlimit:10"/><path d="M20.2,2.5a2,2,0,0,0,.7,2.8c1.3,1,4.4,1.9,5.1.2s.5-1.2.1-1.7S21.6.4,20.2,2.5Z" style="fill:#a7bfee;stroke:#5576b4;stroke-miterlimit:10"/><path d="M16.9,12A2.7,2.7,0,0,0,20,14.7c2.1-.4,2.1-2.7,2.1-3.3s-.4-2.8-2.2-2.5S17.4,10.1,16.9,12Z" style="fill:#a7bfee;stroke:#5576b4;stroke-miterlimit:10"/><path d="M12.6,28.5c-.9,1.1.3,3.9,2.8,3.8s3.2-1.8,2.9-2.9S14.7,26,12.6,28.5Z" style="fill:#a7bfee;stroke:#5576b4;stroke-miterlimit:10"/><path d="M28.7,6.4A4.7,4.7,0,0,0,32,10.9a2.3,2.3,0,0,0,.3-1.6C31.9,7.7,30.2,5.9,28.7,6.4Z" style="fill:#a7bfee;stroke:#5576b4;stroke-miterlimit:10"/><path d="M33.4,16.6S31.9,18.7,33,23c0,0,1.4-.2,1.9-2.2S34.9,16.7,33.4,16.6Z" style="fill:#a7bfee;stroke:#5576b4;stroke-miterlimit:10"/><path d="M28.2,31.2c.5.4,2.8-.5,3.7-2.3a4.3,4.3,0,0,0,0-3.8,3.3,3.3,0,0,0-2.3,1.3C28.2,27.9,27.3,30.4,28.2,31.2Z" style="fill:#a7bfee;stroke:#5576b4;stroke-miterlimit:10"/><path d="M5.1,27H4.7c-1.1-.1-2.5-1.4-3.1-3.3a3.7,3.7,0,0,1,1.2-3.6H3c1.5-.2,2.4,2.1,2.7,3.5S6.1,26.6,5.1,27Z" style="fill:#a7bfee;stroke:#5576b4;stroke-miterlimit:10"/><path d="M4.6,13.9c-.8,1.8-1.4,3.4-1.7,3.5h0a3,3,0,0,1-.7-2.6c.2-1.5,1-3.8,2.9-4.2h0C6,10.5,5.2,12.3,4.6,13.9Z" style="fill:#a7bfee;stroke:#5576b4;stroke-miterlimit:10"/><path d="M11.4,33.6s-.7.6-2.9-.6a4.9,4.9,0,0,1-2.4-3.8h0A7,7,0,0,1,11.4,33.6Z" style="fill:#a7bfee;stroke:#5576b4;stroke-miterlimit:10"/><path d="M24.2,33.8A3.5,3.5,0,0,1,21.5,36a3,3,0,0,1-3.4-.8s0-1.6,2.1-2A5,5,0,0,1,24.2,33.8Z" style="fill:#a7bfee;stroke:#5576b4;stroke-miterlimit:10"/><path d="M22.1,1h0a5.7,5.7,0,0,1,4.4,2.5A2,2,0,0,1,26.7,5a7.8,7.8,0,0,1,1.5,1h1a2.8,2.8,0,0,1,1.3.3,5.6,5.6,0,0,1,2.3,3.1,2.6,2.6,0,0,1-.4,1.9l-.2.4a16.4,16.4,0,0,1,1.2,4.6h.1a2.3,2.3,0,0,1,1.4.8,5.5,5.5,0,0,1,.5,4,3.1,3.1,0,0,1-2.3,2.6h-.2v.2h0c-.1.4-.3.8-.4,1.2a4.8,4.8,0,0,1-.1,4.2A5.1,5.1,0,0,1,29,31.7h-.4l-.7-.2h-.1l-.2.2-1.1.8-1.8,1.1h.1v.3a3.9,3.9,0,0,1-3,2.6l-1.3.2a3.5,3.5,0,0,1-2.7-1.2h-.1v-.2h0a14.9,14.9,0,0,1-5.7-1.2h-.2a1.3,1.3,0,0,1-.9.3,6.1,6.1,0,0,1-2.5-.8,5.3,5.3,0,0,1-2.7-4.2v-.6h.2l-.6-.9a.4.4,0,0,1-.1-.3H4.7c-1.4-.1-3-1.7-3.6-3.6a4.1,4.1,0,0,1,1.5-4.2c0-.1.1-.1.2-.1V17.9H2.7l-.2-.2a3.8,3.8,0,0,1-.8-3c.2-1.2.9-4.1,3.3-4.5h.4A18.6,18.6,0,0,1,7.5,7.4h0A21.1,21.1,0,0,1,9.8,5.5a.4.4,0,0,1-.1-.3c0-1,1.3-2.4,2.8-2.9L14.4,2a4.7,4.7,0,0,1,2.1.5h0c.1,0,.2.1.2.3h2.8l.3-.6A2.6,2.6,0,0,1,22.1,1m0-1A3.4,3.4,0,0,0,19,1.7c-.1,0-.1,0-.1.1H17.1A4.9,4.9,0,0,0,14.4,1a7.6,7.6,0,0,0-2.1.3A5.3,5.3,0,0,0,8.7,5,15.4,15.4,0,0,0,6.8,6.7,16.4,16.4,0,0,0,4.9,9.2H4.8C1.8,9.7.9,13.1.7,14.6a4.7,4.7,0,0,0,1.1,3.8h0v.7A4.9,4.9,0,0,0,.2,24.2c.6,2.3,2.5,4.1,4.2,4.3a.3.3,0,0,0,.1.2h0v.5a6.5,6.5,0,0,0,3.2,5.1,7.1,7.1,0,0,0,3,.9A2.5,2.5,0,0,0,12,35a16.6,16.6,0,0,0,4.9,1.1,4.6,4.6,0,0,0,3.5,1.6l1.5-.2a5.3,5.3,0,0,0,3.8-3.3l1.4-.9.8-.6h1.3a6.5,6.5,0,0,0,4-3.1,5.6,5.6,0,0,0,.3-4.7c0-.2.1-.3.1-.5a4,4,0,0,0,2.7-3.3c.4-2,.2-3.8-.6-4.8a3.3,3.3,0,0,0-1.4-1,18.1,18.1,0,0,0-1-3.7A3.7,3.7,0,0,0,33.7,9,5.7,5.7,0,0,0,31,5.3a3.1,3.1,0,0,0-1.8-.5h-.8l-.6-.5A2.6,2.6,0,0,0,27.4,3a6.7,6.7,0,0,0-5.3-3Z" style="fill:#6c9433"/></g></g></g></svg>