<svg xmlns="http://www.w3.org/2000/svg" width="171.29" height="36.75" viewBox="0 0 171.29 36.75">
  <g style="isolation: isolate">
    <g id="Layer_2" data-name="Layer 2">
      <g id="Layer_1-2" data-name="Layer 1">
        <g id="fu_book_shelf" data-name="fu_book shelf">
          <g>
            <g>
              <path d="M131.13,16.63V35.25h13.79s-1.26-12.82,7.21-18.62Z" fill="#e79175"/>
              <path d="M152.13,16.63h-4.56c-8.47,5.8-7.21,18.62-7.21,18.62h4.56S143.66,22.43,152.13,16.63Z" fill="#ffad8e"/>
            </g>
            <path d="M152.13,16.63h-21V35.25h13.79S143.66,22.43,152.13,16.63Z" fill="#af7553" style="mix-blend-mode: color"/>
            <path d="M152.13,16.63h-21V35.25h13.79S143.66,22.43,152.13,16.63Z" fill="#af7553" opacity="0.6" style="mix-blend-mode: multiply"/>
            <path d="M152.13,16.63h-21V35.25h13.79S143.66,22.43,152.13,16.63Z" fill="none" stroke="#924f28" stroke-miterlimit="10" stroke-width="3"/>
          </g>
          <g>
            <g>
              <path d="M40.16,16.63V35.25H26.37s1.26-12.82-7.21-18.62Z" fill="#e79175"/>
              <path d="M19.16,16.63h4.56c8.47,5.8,7.21,18.62,7.21,18.62H26.37S27.63,22.43,19.16,16.63Z" fill="#ffad8e"/>
            </g>
            <path d="M23.72,16.63H19.16c8.47,5.8,7.21,18.62,7.21,18.62H40.16V16.63Z" fill="#af7553" style="mix-blend-mode: color"/>
            <path d="M23.72,16.63H19.16c8.47,5.8,7.21,18.62,7.21,18.62H40.16V16.63Z" fill="#af7553" opacity="0.6" style="mix-blend-mode: multiply"/>
            <path d="M23.72,16.63H19.16c8.47,5.8,7.21,18.62,7.21,18.62H40.16V16.63Z" fill="none" stroke="#924f28" stroke-miterlimit="10" stroke-width="3"/>
          </g>
          <g>
            <rect x="1.5" y="1.5" width="168.29" height="15.13" rx="2.21" fill="#ffc8ad"/>
            <path d="M3.71,16.63H167.58a2.19,2.19,0,0,0,1.14-.32C144.35,14.46,23.84,5.22,2.23,2.08A2.2,2.2,0,0,0,1.5,3.71V14.42A2.21,2.21,0,0,0,3.71,16.63Z" fill="#ffc8ad" opacity="0.5" style="mix-blend-mode: multiply"/>
          </g>
          <path d="M167.58,1.5H3.71a2.18,2.18,0,0,0-1.48.58h0a2.29,2.29,0,0,0-.52.7s0,0,0,0a1.55,1.55,0,0,0-.13.36.24.24,0,0,1,0,.08,2.31,2.31,0,0,0-.05.46V14.42a2.21,2.21,0,0,0,2.21,2.21H167.58a2,2,0,0,0,.56-.08l.09,0a2.2,2.2,0,0,0,1.56-2.1V3.71A2.21,2.21,0,0,0,167.58,1.5Z" fill="#af7553" style="mix-blend-mode: color"/>
          <path d="M167.58,1.5H3.71a2.18,2.18,0,0,0-1.48.58h0a2.29,2.29,0,0,0-.52.7s0,0,0,0a1.55,1.55,0,0,0-.13.36.24.24,0,0,1,0,.08,2.31,2.31,0,0,0-.05.46V14.42a2.21,2.21,0,0,0,2.21,2.21H167.58a2,2,0,0,0,.56-.08l.09,0a2.2,2.2,0,0,0,1.56-2.1V3.71A2.21,2.21,0,0,0,167.58,1.5Z" fill="#af7553" opacity="0.6" style="mix-blend-mode: multiply"/>
          <path d="M167.58,1.5H3.71a2.18,2.18,0,0,0-1.48.58h0a2.29,2.29,0,0,0-.52.7s0,0,0,0a1.55,1.55,0,0,0-.13.36.24.24,0,0,1,0,.08,2.31,2.31,0,0,0-.05.46V14.42a2.21,2.21,0,0,0,2.21,2.21H167.58a2,2,0,0,0,.56-.08l.09,0a2.2,2.2,0,0,0,1.56-2.1V3.71A2.21,2.21,0,0,0,167.58,1.5Z" fill="none" stroke="#924f28" stroke-miterlimit="10" stroke-width="3"/>
        </g>
      </g>
    </g>
  </g>
</svg>
