<svg xmlns="http://www.w3.org/2000/svg" width="68.65" height="58.61" viewBox="0 0 68.65 58.61">
  <g id="Layer_2" data-name="Layer 2">
    <g id="Layer_1-2" data-name="Layer 1">
      <g id="na_frog_1" data-name="na_frog 1">
        <g>
          <path d="M52.12,50.12a54.5,54.5,0,0,1-5.58,1.2,76.28,76.28,0,0,1-22.69,0c-2.16-.3-4.4-.68-6.74-1.17A10.23,10.23,0,0,1,9,38.94a72.33,72.33,0,0,1,1.3-7.61,57.17,57.17,0,0,1,2.37-7.95c.25-.68.53-1.34.82-2A22.25,22.25,0,0,1,34.09,7.91l.8,0a22.18,22.18,0,0,1,16.74,8.55c.2.25.38.5.56.75A20.61,20.61,0,0,1,53.34,19c.28.48.54,1,.78,1.46a57.53,57.53,0,0,1,2.53,6.06,64.55,64.55,0,0,1,2.94,12.26A10.28,10.28,0,0,1,52.12,50.12Z" fill="#72b75b"/>
          <circle cx="23.23" cy="11.4" r="8.4" fill="#72b75b"/>
          <circle cx="44.95" cy="11.4" r="8.4" fill="#72b75b"/>
          <path d="M47,20.24a1.82,1.82,0,0,0-1.5.33l-.41.3.5-.1a2.64,2.64,0,0,1,1.16,0c-.47,1-2.61,3.3-12.43,3.5-9.81-.2-12-2.52-12.43-3.5a2.69,2.69,0,0,1,1.17,0l.5.1-.41-.3a1.82,1.82,0,0,0-1.5-.33,1.83,1.83,0,0,0-1.1,1.29l.21.09a1.57,1.57,0,0,1,.86-.77c1,4.06,10.2,4.29,12.29,4.29h.41c.49,0,11.58.19,12.7-4.29a1.61,1.61,0,0,1,.87.77l.21-.09A1.88,1.88,0,0,0,47,20.24Z" fill="#2e5b1d"/>
          <g>
            <path d="M33.21,18.28a.7.7,0,1,1-.69-.83A.77.77,0,0,1,33.21,18.28Z" fill="#2e5b1d"/>
            <path d="M35.44,18.28a.7.7,0,1,0,.69-.83A.77.77,0,0,0,35.44,18.28Z" fill="#2e5b1d"/>
          </g>
          <g>
            <g>
              <path d="M51.35,11.4A6.41,6.41,0,1,1,40.34,7c.15-.16.32-.31.49-.46a6.38,6.38,0,0,1,7.38-.6,6,6,0,0,1,.87.62A6.38,6.38,0,0,1,51.35,11.4Z" fill="#f0e9df"/>
              <path d="M50.63,10.4a5.69,5.69,0,0,1-11.37,0,5.6,5.6,0,0,1,1.57-3.91,6.38,6.38,0,0,1,7.38-.6,6,6,0,0,1,.87.62A5.66,5.66,0,0,1,50.63,10.4Z" fill="#fffcf7"/>
            </g>
            <g>
              <path d="M40.17,11.57a4.38,4.38,0,1,0,.09-.9A4.4,4.4,0,0,0,40.17,11.57Z" fill="#572e4b"/>
              <path d="M40.26,10.67a4.38,4.38,0,0,0,8.63,0,4.41,4.41,0,0,0-8.63,0Z" fill="#613354"/>
            </g>
            <g>
              <path d="M40.93,11.37a3.46,3.46,0,0,0,3.45,3.45,3.46,3.46,0,1,0-3.45-3.45Z" fill="#381d31"/>
              <path d="M40.93,11.37a3.41,3.41,0,0,0,.36,1.53,4.45,4.45,0,0,0,3.29,1.4A4.55,4.55,0,0,0,47,13.62a3.45,3.45,0,1,0-6.06-2.25Z" fill="#45243c"/>
            </g>
            <path d="M40.93,9.26a1.14,1.14,0,1,0,1.14-1.14A1.14,1.14,0,0,0,40.93,9.26Z" fill="#fffcf7"/>
          </g>
          <path d="M56.65,26.52A4.17,4.17,0,1,1,53.34,19c.28.48.54,1,.78,1.46A57.53,57.53,0,0,1,56.65,26.52Z" fill="#9be3bb"/>
          <path d="M15.31,27.24a4.17,4.17,0,0,1-4.17,4.17,4.28,4.28,0,0,1-.81-.08,57.17,57.17,0,0,1,2.37-7.95A4.16,4.16,0,0,1,15.31,27.24Z" fill="#9be3bb"/>
          <path d="M55.68,30.06a1.33,1.33,0,1,1-1.33-1.33A1.33,1.33,0,0,1,55.68,30.06Z" fill="#9be3bb"/>
          <circle cx="13.89" cy="33.84" r="1.33" fill="#9be3bb"/>
          <circle cx="27.63" cy="29.4" r="2.72" transform="translate(-5.83 51.94) rotate(-80.74)" fill="#9be3bb"/>
          <path d="M23.82,29.25a1,1,0,0,1-2.09,0,1,1,0,1,1,2.09,0Z" fill="#9be3bb"/>
          <g>
            <path d="M49,42.06a28.72,28.72,0,0,1-2.47,9.26,76.28,76.28,0,0,1-22.69,0,28,28,0,0,1-1.41-3.76A23.53,23.53,0,0,1,21.57,37,12.32,12.32,0,0,1,32.42,27,24.14,24.14,0,0,1,38,27,12.3,12.3,0,0,1,48.81,37,20,20,0,0,1,49,42.06Z" fill="#f7cc54"/>
            <path d="M47.82,37.09a9.21,9.21,0,0,1-3.67,9,18.91,18.91,0,0,1-9.33,3.35,20.78,20.78,0,0,1-4.18,0A9.38,9.38,0,0,1,22.31,40a17.77,17.77,0,0,1,.25-3,11.42,11.42,0,0,1,10.06-9.23,22.09,22.09,0,0,1,5.14,0A11.42,11.42,0,0,1,47.81,37Z" fill="#ffe560"/>
          </g>
          <g>
            <g>
              <path d="M51.28,41a10.8,10.8,0,0,1,6-5.19,6.4,6.4,0,0,1,8.27,5.23s0,.09,0,.14A6.25,6.25,0,0,1,64.21,46,17.07,17.07,0,0,1,59,50a12.35,12.35,0,0,1,5.11.39.19.19,0,0,1,.06.33.66.66,0,0,0-.15.89.22.22,0,0,1-.15.34,1.5,1.5,0,0,0-1.12.75.53.53,0,0,1-.69.2c-.93-.48-3.22-1.33-7.24-.94h-.13a1.61,1.61,0,0,1-1.21-2.62,19.9,19.9,0,0,0,3.41-5.73A5.28,5.28,0,0,1,55.48,45a2.94,2.94,0,0,1-3.43-.1l0,0A3,3,0,0,1,51.28,41Z" fill="#72b75b"/>
              <path d="M53.16,49.89a31.83,31.83,0,0,0,4.36-7.34,70.32,70.32,0,0,1-6.12,7.69Z" fill="#2e5b1d"/>
              <path d="M59,50s-.82,0-2.48.13c0,0,1.75-.38,3.57-.74A5,5,0,0,1,59,50Z" fill="#2e5b1d"/>
            </g>
            <g>
              <path d="M17.37,41a10.8,10.8,0,0,0-6-5.19,6.39,6.39,0,0,0-8.27,5.23.68.68,0,0,0,0,.14A6.25,6.25,0,0,0,4.44,46,16.94,16.94,0,0,0,9.69,50a12.35,12.35,0,0,0-5.11.39.19.19,0,0,0-.06.33.66.66,0,0,1,.14.89.22.22,0,0,0,.15.34,1.5,1.5,0,0,1,1.12.75.54.54,0,0,0,.7.2c.93-.48,3.21-1.33,7.24-.94H14a1.61,1.61,0,0,0,1.21-2.62,19.9,19.9,0,0,1-3.41-5.73A5.08,5.08,0,0,0,13.17,45a2.94,2.94,0,0,0,3.43-.1l0,0A3,3,0,0,0,17.37,41Z" fill="#72b75b"/>
              <path d="M15.48,49.89a32,32,0,0,1-4.35-7.34,69,69,0,0,0,6.12,7.69Z" fill="#2e5b1d"/>
              <path d="M9.69,50s.82,0,2.48.13c0,0-1.75-.38-3.57-.74A5,5,0,0,0,9.69,50Z" fill="#2e5b1d"/>
            </g>
          </g>
          <g>
            <g>
              <path d="M52.25,37.81a17.32,17.32,0,0,1-.15,2.52A21.84,21.84,0,0,1,50,47a23.85,23.85,0,0,1-3.64,5.5,6.71,6.71,0,0,1,.53,1.23.5.5,0,0,1-.46.66,2.47,2.47,0,0,0-2.16,1,.35.35,0,0,1-.56.05,2.5,2.5,0,0,0-2.11-.81.41.41,0,0,1-.37-.62c.31-.55.55-1.06.55-1.06C49,38.88,45.47,30.33,45.47,30.33a6.13,6.13,0,0,1,3.79,1.33A7.8,7.8,0,0,1,52.25,37.81Z" fill="#72b75b"/>
              <path d="M52.1,40.33A21.84,21.84,0,0,1,50,47a3.51,3.51,0,0,1,1.31-6.76A3.74,3.74,0,0,1,52.1,40.33Z" fill="#9be3bb"/>
              <path d="M48,47.86a1.22,1.22,0,1,1-1.22-1.22A1.22,1.22,0,0,1,48,47.86Z" fill="#9be3bb"/>
            </g>
            <path d="M47.32,51.4S53,44.73,52.1,36.32c0,0,2.36,6.25-3.14,14.87A7,7,0,0,1,47.32,51.4Z" fill="#2e5b1d"/>
            <g>
              <path d="M28.75,54.68a2.48,2.48,0,0,0-2.1.81.36.36,0,0,1-.57-.05,2.45,2.45,0,0,0-2.16-1,.51.51,0,0,1-.46-.66A6.71,6.71,0,0,1,24,52.51s-5.93-6.29-5.85-14.7a7.81,7.81,0,0,1,3-6.15,6.08,6.08,0,0,1,3.78-1.33s-1.82,4.46-.14,12.24a40.42,40.42,0,0,0,1.78,5.91,48.88,48.88,0,0,0,2,4.52s.23.51.55,1.06A.41.41,0,0,1,28.75,54.68Z" fill="#72b75b"/>
              <path d="M26.56,48.48a3.18,3.18,0,0,1-.62.06,3.1,3.1,0,0,1-1.16-6A40.42,40.42,0,0,0,26.56,48.48Z" fill="#9be3bb"/>
              <path d="M23.24,41.65a.9.9,0,1,1-.9-.9A.9.9,0,0,1,23.24,41.65Z" fill="#9be3bb"/>
            </g>
            <path d="M22.91,51.17s-5.28-6.44-4.77-13.36c0,0-2,6.06,3.45,13.16A7.69,7.69,0,0,0,22.91,51.17Z" fill="#2e5b1d"/>
          </g>
          <g>
            <g>
              <path d="M16.83,11.4A6.41,6.41,0,1,0,27.84,7c-.15-.16-.32-.31-.49-.46A6.38,6.38,0,0,0,20,5.89a6,6,0,0,0-.87.62A6.38,6.38,0,0,0,16.83,11.4Z" fill="#f0e9df"/>
              <path d="M17.55,10.4a5.69,5.69,0,1,0,9.8-3.91A6.38,6.38,0,0,0,20,5.89a6,6,0,0,0-.87.62A5.66,5.66,0,0,0,17.55,10.4Z" fill="#fffcf7"/>
            </g>
            <g>
              <path d="M28,11.57a4.38,4.38,0,1,1-.09-.9A4.41,4.41,0,0,1,28,11.57Z" fill="#572e4b"/>
              <path d="M27.92,10.67A4.22,4.22,0,0,1,23.6,14.3a4.21,4.21,0,0,1-4.31-3.63,4.41,4.41,0,0,1,8.63,0Z" fill="#613354"/>
            </g>
            <g>
              <path d="M27.25,11.37a3.46,3.46,0,0,1-3.45,3.45,3.45,3.45,0,0,1-2.61-1.2,3.38,3.38,0,0,1-.84-2.25,3.45,3.45,0,1,1,6.9,0Z" fill="#381d31"/>
              <path d="M27.25,11.37a3.41,3.41,0,0,1-.36,1.53,4.48,4.48,0,0,1-3.29,1.4,4.55,4.55,0,0,1-2.41-.68,3.38,3.38,0,0,1-.84-2.25,3.45,3.45,0,1,1,6.9,0Z" fill="#45243c"/>
            </g>
            <path d="M27.25,9.26a1.14,1.14,0,1,1-1.14-1.14A1.14,1.14,0,0,1,27.25,9.26Z" fill="#fffcf7"/>
          </g>
          <path d="M16.48,16.4A7.12,7.12,0,0,0,19.66,19a5.43,5.43,0,0,1-3.76-1.82A5.28,5.28,0,0,1,16.48,16.4Z" fill="#2e5b1d"/>
          <path d="M52.19,17.23a5.41,5.41,0,0,1-3.63,1.69,7.39,7.39,0,0,0,3.07-2.44C51.83,16.73,52,17,52.19,17.23Z" fill="#2e5b1d"/>
        </g>
        <path d="M45,3a8.39,8.39,0,0,1,6.67,13.48h0c.2.25.38.5.56.75A20.61,20.61,0,0,1,53.34,19c.28.48.54,1,.78,1.46a57.53,57.53,0,0,1,2.53,6.06,62.59,62.59,0,0,1,2.4,9h.19a6.37,6.37,0,0,1,6.34,5.52s0,.09,0,.14A6.25,6.25,0,0,1,64.21,46,16.23,16.23,0,0,1,60,49.43h0A5,5,0,0,1,59,50a12.42,12.42,0,0,1,1.72-.11,10.79,10.79,0,0,1,3.39.5.19.19,0,0,1,.06.33.66.66,0,0,0-.15.89.22.22,0,0,1-.15.34,1.5,1.5,0,0,0-1.12.75.52.52,0,0,1-.45.26.53.53,0,0,1-.24-.06,11.47,11.47,0,0,0-5.27-1c-.6,0-1.26,0-2,.1h-.13a1.6,1.6,0,0,1-1.47-2.12h0l-.85.17-.19.06c-.9.25-1.89.48-2.94.7l-.22.37a7,7,0,0,1-1.64.21l.21-.26h0a17.34,17.34,0,0,1-1.11,1.36,6.71,6.71,0,0,1,.53,1.23.5.5,0,0,1-.46.66,2.47,2.47,0,0,0-2.16,1,.34.34,0,0,1-.3.17.32.32,0,0,1-.26-.12,2.43,2.43,0,0,0-1.93-.81h-.2a.41.41,0,0,1-.35-.62c.31-.55.55-1.06.55-1.06.2-.4.36-.77.54-1.15-2,.19-4.28.3-6.68.3S30.73,52,28,51.79c.19.4.37.79.58,1.21,0,0,.23.51.55,1.06a.41.41,0,0,1-.35.62h-.21a2.42,2.42,0,0,0-1.92.81.35.35,0,0,1-.26.12.37.37,0,0,1-.31-.17,2.45,2.45,0,0,0-2.16-1,.51.51,0,0,1-.46-.66A6.71,6.71,0,0,1,24,52.51s-.45-.49-1.09-1.34h0A8.1,8.1,0,0,1,21.59,51h0c-1.44-.23-2.9-.49-4.42-.8l.08.07-1.77-.35h0A1.6,1.6,0,0,1,14,52h-.13c-.71-.07-1.37-.1-2-.1a11.41,11.41,0,0,0-5.26,1,.53.53,0,0,1-.24.06.54.54,0,0,1-.46-.26A1.5,1.5,0,0,0,4.81,52a.22.22,0,0,1-.15-.34.66.66,0,0,0-.14-.89.19.19,0,0,1,.06-.33A10.79,10.79,0,0,1,8,49.93,12.42,12.42,0,0,1,9.69,50a5,5,0,0,1-1.09-.61h0A16.23,16.23,0,0,1,4.44,46,6.25,6.25,0,0,1,3.05,41.2a.68.68,0,0,1,0-.14A6.36,6.36,0,0,1,9.4,35.54h.11c.22-1.35.49-2.76.82-4.21a57.17,57.17,0,0,1,2.37-7.95c.25-.68.53-1.34.82-2a22.36,22.36,0,0,1,2.38-4.19h0a5.28,5.28,0,0,1,.58-.78h0A8.4,8.4,0,1,1,31,8.11a21.7,21.7,0,0,1,2.92-.2h.21l.8,0a22.46,22.46,0,0,1,2.32.21A8.39,8.39,0,0,1,45,3m0-3a11.37,11.37,0,0,0-9.41,5l-.56,0-.86,0h-.24c-.41,0-.83,0-1.25,0a11.4,11.4,0,0,0-20.8,6.45,11.26,11.26,0,0,0,1.08,4.83,26.93,26.93,0,0,0-2.15,3.94c-.3.72-.6,1.43-.87,2.14A62.58,62.58,0,0,0,7.4,30.67c-.16.72-.31,1.45-.46,2.19A9.31,9.31,0,0,0,.1,40.65l0,.19a9.3,9.3,0,0,0,2.07,7.07l.32.37A3.18,3.18,0,0,0,1.51,50a3.26,3.26,0,0,0,.12,1.7A3.34,3.34,0,0,0,2,53.18,3.23,3.23,0,0,0,3.74,54.8,3.53,3.53,0,0,0,6.39,56,3.64,3.64,0,0,0,8,55.61a8.51,8.51,0,0,1,3.89-.71,16.53,16.53,0,0,1,1.69.09H14a4.52,4.52,0,0,0,3.49-1.7c.92.18,1.87.35,2.91.52a3.48,3.48,0,0,0,3.36,3.57,3.35,3.35,0,0,0,4.9.29h.08A3.43,3.43,0,0,0,31.72,56a3.48,3.48,0,0,0,.37-.92c1.21.06,2.41.08,3.59.08.88,0,1.76,0,2.63,0a3.71,3.71,0,0,0,.36.88,3.43,3.43,0,0,0,2.95,1.69h.08a3.35,3.35,0,0,0,4.9-.29h0A3.48,3.48,0,0,0,50,54a2.92,2.92,0,0,0,.88-.49l.4-.09A4.5,4.5,0,0,0,54.6,55h.08a3.06,3.06,0,0,0,.39,0c.58,0,1.15-.08,1.68-.08a8.53,8.53,0,0,1,3.9.71,3.61,3.61,0,0,0,1.61.39,3.55,3.55,0,0,0,2.65-1.2,3.23,3.23,0,0,0,1.79-1.62A3.34,3.34,0,0,0,67,51.67a3.26,3.26,0,0,0,.11-1.7,3.16,3.16,0,0,0-.94-1.69l.32-.37a9.31,9.31,0,0,0,2.07-7.08l0-.18a9.3,9.3,0,0,0-7-7.83,65.52,65.52,0,0,0-2.07-7.29,61.11,61.11,0,0,0-2.66-6.39c-.27-.55-.57-1.11-.89-1.65-.23-.39-.46-.78-.71-1.15A11.41,11.41,0,0,0,45,0Z" fill="#2e5b1d"/>
      </g>
    </g>
  </g>
</svg>
