<svg xmlns="http://www.w3.org/2000/svg" width="83.36" height="62.96" viewBox="0 0 83.36 62.96">
  <g id="Layer_2" data-name="Layer 2">
    <g id="Layer_1-2" data-name="Layer 1">
      <g id="to_horse">
        <g>
          <polygon points="58.49 48.26 78.1 58.66 79.66 54.09 60.22 44.91 58.49 48.26" fill="#e84e2c"/>
          <g>
            <path d="M25.27,13.5s4.34-4.85,15.43-2.39,21.68,5.51,21.92,7.57-4.84,1.7-4.84,1.7,9.13,2.05,8.82,3.8-6.33.84-6.33.84,6.53,2.29,7.35,5.34-4.51,2.27-4.51,2.27L24.19,16.36Z" fill="#d89060"/>
            <path d="M19.78,14.88S9.07,20.67,4.79,26s.48,3.29.48,3.29S2.48,33,3.16,33.84,8,31.61,8,31.61s-1.72,3.1-.78,4,3.15-.31,3.4-.74,12.85-16.6,12.85-16.6Z" fill="#d89060"/>
            <path d="M19.92,20.5s-9.21,12.86-12.29,20S6.75,53.17,9.5,55.45s6.81,2.31,8.28,1.6L19,56.67s1.88-.56,5.52-3.86,4.43-5.4,5-5.85.86-.42.86-.42L50.82,58.07a3.14,3.14,0,0,0,4.25-1.15L66.1,38A3.13,3.13,0,0,0,65,33.73C58.31,29.8,41.23,19.81,36.76,17.88a29.18,29.18,0,0,0-11-2.29S27.82,3.08,24,3c-4.81-.1-.81,15-.81,15S19.44,4.08,15.73,5.44s1.79,9,5.5,13.61A9.73,9.73,0,0,0,19.92,20.5Z" fill="#fcd54d"/>
            <path d="M23.47,28.8a1.46,1.46,0,1,0-.24,2.05A1.46,1.46,0,0,0,23.47,28.8Z" fill="#51495e" stroke="#51495e" stroke-miterlimit="10"/>
            <path d="M10.36,48.83c0-.4,0-3.12,1.11-3.88s1.6.92.66,3S10.37,49.76,10.36,48.83Z" fill="#ff960b"/>
            <path d="M17.78,57.05a11.74,11.74,0,0,0,2-5.59,16.8,16.8,0,0,0-.84-5.33c0-.29.37-1,1.16.28s1.1,4,.74,6.2A10.1,10.1,0,0,1,19,56.67Z" fill="#ff960b"/>
            <path d="M13.15,30.6a59.32,59.32,0,0,1,8.07,6.58c4.06,4,7.67,10.61,7.67,10.61l1.5-1.25A43.4,43.4,0,0,0,22.75,36a55.36,55.36,0,0,0-8.35-7.32Z" fill="#e84e2c"/>
            <circle cx="49.66" cy="51.15" r="3.23" transform="translate(-19.19 69.65) rotate(-60.89)" fill="#ffeb81"/>
            <circle cx="45.8" cy="40.34" r="3.23" fill="#ffeb81"/>
            <circle cx="59.1" cy="37.14" r="3.23" fill="#ffeb81"/>
            <circle cx="46.21" cy="29.6" r="3.23" transform="translate(-6.76 43.95) rotate(-47.8)" fill="#ffeb81"/>
            <circle cx="33.13" cy="40.01" r="3.23" transform="translate(-18.77 37.68) rotate(-47.8)" fill="#ffeb81"/>
            <path d="M37.39,23.71a3.23,3.23,0,1,0-.52,4.54A3.25,3.25,0,0,0,37.39,23.71Z" fill="#ffeb81"/>
          </g>
        </g>
        <path d="M23.93,3H24c2.66.06,2.48,6.11,2.11,9.8a14.56,14.56,0,0,1,8.68-2.39,27.36,27.36,0,0,1,5.93.7c11.09,2.46,21.68,5.51,21.92,7.57.18,1.53-2.55,1.73-4,1.73-.51,0-.85,0-.85,0s9.13,2.05,8.82,3.8c-.16.85-1.68,1.07-3.2,1.07A24.57,24.57,0,0,1,60.27,25s6.53,2.29,7.35,5.34c.55,2-1.62,2.36-3.14,2.36a10.66,10.66,0,0,1-1.37-.09h0L65,33.73A3.13,3.13,0,0,1,66.1,38L61.67,45.6l18,8.49L78.1,58.66,59.73,48.92l-4.66,8a3.14,3.14,0,0,1-2.71,1.55,3.19,3.19,0,0,1-1.54-.4L30.39,46.54l-1.5,1.25a25.26,25.26,0,0,1-4.36,5C20.89,56.11,19,56.67,19,56.67l-.08,0-.24.08-.26.08-.65.2a5.74,5.74,0,0,1-2.34.41,9.57,9.57,0,0,1-5.94-2c-2.75-2.28-4.95-7.72-1.87-14.91a57.14,57.14,0,0,1,3-5.73h0a3.86,3.86,0,0,1-2.48,1,1.33,1.33,0,0,1-.92-.3c-.94-.85.78-4,.78-4S4.78,34,3.55,34a.44.44,0,0,1-.39-.15C2.48,33,5.27,29.3,5.27,29.3a5,5,0,0,1-1.57.38c-.86,0-1.33-.65,1.09-3.67,3.39-4.24,10.84-8.76,13.77-10.45-3.06-4.25-5.71-9.07-2.83-10.12a1.54,1.54,0,0,1,.52-.09C19.78,5.35,23.17,18,23.17,18s-4-15,.76-15m0-3h0A4.74,4.74,0,0,0,20.1,1.89a5.94,5.94,0,0,0-.84,1.58,4.9,4.9,0,0,0-3-1.12,4.56,4.56,0,0,0-1.55.27,4.68,4.68,0,0,0-3,3.08c-.68,2.2.12,5,2.57,8.92-3.94,2.44-9,6-11.85,9.52C.74,26.26-.69,28.53.35,30.69a4.25,4.25,0,0,0,.27.46c-.83,1.91-.75,3.37.19,4.56A3.49,3.49,0,0,0,3.55,37a4.18,4.18,0,0,0,.89-.1,3.85,3.85,0,0,0,.74.9l.3.24c-.23.47-.43.91-.61,1.33-3.53,8.23-1.18,15.17,2.71,18.4a12.51,12.51,0,0,0,7.86,2.7,9.11,9.11,0,0,0,3.39-.59l.38-.12.11,0,.26-.08.1,0,.14,0,.08,0c.56-.17,2.8-1,6.64-4.51a28.12,28.12,0,0,0,4.31-4.79l18.5,10.44a6.1,6.1,0,0,0,3,.79,6.16,6.16,0,0,0,5.3-3l3.21-5.51,15.82,8.39L79.8,63l1.14-3.33,1.56-4.57.86-2.54-2.42-1.14-15-7.1,2.78-4.76a6.14,6.14,0,0,0,.46-5.19,4.29,4.29,0,0,0,.66-.69,4.6,4.6,0,0,0,.71-4.07,7.19,7.19,0,0,0-1.84-3,3.75,3.75,0,0,0,.87-1.84c.47-2.66-1.79-4.16-4-5.09a3.93,3.93,0,0,0,0-1.28c-.29-2.47-2.63-4.08-8.94-6.14-4.84-1.58-11-3-15.31-4a30.55,30.55,0,0,0-6.58-.77,21,21,0,0,0-5.48.69c-.12-4-1.08-5.62-1.89-6.53A4.63,4.63,0,0,0,24,0h-.11Z" fill="#e84e2c"/>
      </g>
    </g>
  </g>
</svg>
