<svg xmlns="http://www.w3.org/2000/svg" viewBox="0 0 62.5 100.1"><g style="isolation:isolate"><g id="Layer_2" data-name="Layer 2"><g id="Layer_1-2" data-name="Layer 1"><g id="to_robot"><path d="M27.3,73.6v.2c0,.1,0,.2.1.2s.7.3.8.5h0c-.1.3-.6.3-.8.5v.2a.4.4,0,0,0,.1.3c.2.2.8.2.8.5s-.6.4-.8.6-.1.1-.1.2,0,.2.1.2l.3.2c.3.1.5.2.5.4h0c0,.3-.6.4-.8.6v.2c0,.1,0,.2.1.2s.8.3.8.6-.6.4-.8.6-.1.1-.1.2,0,.1.1.2.7.3.8.5h0c-.1.2-.7.3-.9.5v.2c0,.1,0,.2.1.2s.8.3.8.6-.5.4-.8.6-.1.1-.1.2v.2l.3.2c.3.1.5.2.5.4h0c0,.3-.6.4-.8.6s-.1.1-.1.2a.3.3,0,0,0,.1.2c.2.2.8.2.8.6s-.5.3-.8.5v.2c0,.1,0,.2.1.2s.7.3.8.6h0c-.1.3-.5.4-.8.5a.4.4,0,0,0-.1.3h0c.2.3.9.3.9.6s-.6.4-.8.6a.3.3,0,0,0-.1.2c0,.1,0,.2.1.2l.3.2c.3.1.5.2.5.4h0c0,.3-.6.4-.8.6V91c0,.1,0,.2.1.2s.8.3.8.6-.6.4-.8.6-.1.1-.1.2,0,.1.1.2.7.3.8.5h-.6l-.3.2h0c.1,0,.1,0,.1.1h.2l.4.2a.1.1,0,0,0,.1.1h.1c0,.3-.5.4-.8.6s-.1.1-.1.2.9.4.9.8H14.3c0-.4.9-.4.9-.8s0-.2-.1-.2-.8-.3-.8-.6.7-.4.9-.7h0c0-.4-.8-.4-.9-.7h0c.1-.3.9-.3.9-.7s-.9-.4-.9-.8.9-.4.9-.8-.2-.3-.4-.4-.5-.2-.5-.4h0c0-.4.9-.4.9-.8s-.9-.4-.9-.7.9-.4.9-.8-.8-.4-.9-.8h0c.1-.4.9-.4.9-.8s-.9-.3-.9-.7.9-.4.9-.8-.2-.3-.4-.4-.5-.2-.5-.4h0c0-.4.9-.4.9-.8s-.9-.4-.9-.8.9-.4.9-.8-.8-.4-.9-.7h0c.1-.3.9-.3.9-.7s-.9-.4-.9-.8.9-.4.9-.8-.2-.3-.4-.4-.5-.2-.5-.4h0c0-.4.9-.4.9-.8s-.9-.4-.9-.8.9-.4.9-.8-.8-.4-.9-.7h0c.1-.3.9-.3.9-.7s-.9-.4-.9-.8.9-.4.9-.8,0-.1-.1-.2h-.2c-.2-.1-.6-.2-.6-.4H28.1c0,.3-.9.3-.9.7s.9.4.9.8S27.5,73.4,27.3,73.6Z" style="fill:#ffaa5a;stroke:#ff8d3d;stroke-miterlimit:10;stroke-width:3px"/><path d="M47.5,73.6a.3.3,0,0,1-.1.2.3.3,0,0,0,.1.2c.3.2.8.3.8.5h0c0,.3-.5.3-.8.5a.3.3,0,0,1-.1.2c0,.1.1.2.1.3s.9.2.9.5-.6.4-.9.6-.1.1-.1.2v.2l.4.2c.2.1.5.2.5.4h0c-.1.3-.6.4-.9.6s-.1.1-.1.2a.2.2,0,0,0,.2.2c.2.2.8.3.8.6s-.6.4-.9.6v.2c0,.1.1.1.2.2s.7.3.7.5h0c0,.2-.6.3-.8.5v.2a.2.2,0,0,0,.2.2c.2.2.8.3.8.6s-.6.4-.8.6a.2.2,0,0,0-.2.2c0,.1.1.1.1.2l.4.2c.2.1.5.2.5.4h0c0,.3-.6.4-.9.6V85c.3.2.9.2.9.6s-.6.3-.8.5l-.2.2a.3.3,0,0,0,.1.2c.2.2.8.3.8.6h0c0,.3-.5.4-.7.5s-.2.2-.2.3h.1c.2.3.9.3.9.6s-.6.4-.9.6v.4l.4.2c.2.1.5.2.5.4h0c-.1.3-.6.4-.9.6s-.1.1-.1.2v.2c.3.2.9.3.9.6s-.6.4-.8.6l-.2.2c0,.1.1.1.1.2s.8.3.8.5h-.5c-.2,0-.3.1-.3.2h-.1c0,.1,0,.1.1.1h0a.1.1,0,0,1,.1.1h.2l.3.2a.1.1,0,0,1,.1.1h.2c0,.3-.6.4-.8.6a.2.2,0,0,0-.2.2c0,.4,1,.4,1,.8H34.6c0-.4.9-.4.9-.8a.3.3,0,0,0-.1-.2c-.3-.2-.8-.3-.8-.6s.7-.4.8-.7.1,0,.1-.1-.8-.4-.9-.7h0c.1-.3.9-.3.9-.7s-.9-.4-.9-.8.9-.4.9-.8-.2-.3-.5-.4-.4-.2-.4-.4h0c0-.4.9-.4.9-.8s-.9-.4-.9-.7.9-.4.9-.8-.8-.4-.9-.8h0c.1-.4.9-.4.9-.8s-.9-.3-.9-.7.9-.4.9-.8-.2-.3-.5-.4-.4-.2-.4-.4h0c0-.4.9-.4.9-.8s-.9-.4-.9-.8.9-.4.9-.8-.8-.4-.9-.7h0c.1-.3.9-.3.9-.7s-.9-.4-.9-.8.9-.4.9-.8-.2-.3-.5-.4-.4-.2-.4-.4h0c0-.4.9-.4.9-.8s-.9-.4-.9-.8.9-.4.9-.8-.8-.4-.9-.7h0c.1-.3.9-.3.9-.7s-.9-.4-.9-.8.9-.4.9-.8-.1-.1-.2-.2h-.1c-.3-.1-.6-.2-.6-.4H48.4c0,.3-1,.3-1,.7s1,.4,1,.8S47.8,73.4,47.5,73.6Z" style="fill:#ffaa5a;stroke:#ff8d3d;stroke-miterlimit:10;stroke-width:3px"/><path d="M58.6,48.7v.5c.1.2.4.3.4.5h0c0,.3-.3.3-.4.5v.5c.2.2.4.3.4.6s-.3.4-.4.6v.5h.2c.1.2.2.3.2.5h0c0,.3-.3.4-.4.6v.4c.2.2.4.3.4.6s-.3.4-.4.7v.4c.1.2.4.3.4.5h0c0,.3-.3.4-.4.6v.4c.2.2.4.3.4.6s-.2.4-.4.6v.5c.1,0,.1.1.2.2a.5.5,0,0,1,.2.4h0c0,.3-.3.4-.4.6v.5c.1.2.4.2.4.6s-.2.4-.4.6v.4c.1.2.4.3.4.6h0c0,.2-.2.3-.3.5s-.1.1-.1.2V64c.1.2.4.3.4.7s-.3.4-.4.6v.4l.2.2a.5.5,0,0,1,.2.4h0c0,.4-.3.4-.4.7v.4c.1.2.4.3.4.6s-.2.4-.4.6v.5c.1.2.4.2.4.5h-.3c0,.1-.1.1-.1.2h0a.1.1,0,0,0,.1.1h0l.2.2H59c0,.3-.2.4-.4.6v.2c0,.4.4.4.4.9H52c0-.5.5-.5.5-.9v-.2c-.1-.2-.4-.3-.4-.6s.4-.4.5-.7v-.2c0-.3-.4-.4-.5-.7h0c.1-.3.5-.4.5-.8s-.5-.4-.5-.8.5-.4.5-.8a.5.5,0,0,0-.2-.4c-.1-.2-.3-.3-.3-.5h0c0-.4.5-.4.5-.8s-.5-.4-.5-.8.5-.5.5-.9-.4-.4-.5-.7h0c.1-.4.5-.4.5-.8s-.5-.4-.5-.8.5-.4.5-.9a.5.5,0,0,0-.2-.4c-.1-.1-.3-.2-.3-.4h0c0-.4.5-.4.5-.8s-.5-.5-.5-.9.5-.4.5-.8-.4-.4-.5-.8h0c.1-.3.5-.3.5-.7s-.5-.4-.5-.9.5-.4.5-.8a.5.5,0,0,0-.2-.4c-.1-.1-.3-.2-.3-.4h0c0-.4.5-.5.5-.9s-.5-.4-.5-.8.5-.4.5-.8-.4-.5-.5-.8h0c.1-.3.5-.4.5-.7s-.5-.5-.5-.9.5-.4.5-.8a.4.4,0,0,0-.1-.3h0c-.2-.1-.4-.2-.4-.5h7c0,.5-.4.5-.4.9s.4.4.4.8S58.7,48.5,58.6,48.7Z" style="fill:#ffaa5a;stroke:#ff8d3d;stroke-miterlimit:10;stroke-width:3px"/><path d="M61,78.1h0a.6.6,0,0,1-.5.6h-.9a.4.4,0,0,1-.4-.4,3.8,3.8,0,0,0-7.3,0c-.1.2-.2.4-.5.4h-.8a.6.6,0,0,1-.5-.6h0c0-3.3,1.2-7.1,5.4-7.1a5.1,5.1,0,0,1,3.6,1.3C60.5,73.7,61,76,61,78.1Z" style="fill:#5576b4;stroke:#335394;stroke-miterlimit:10;stroke-width:3px"/><path d="M10.1,48.7a.4.4,0,0,0-.1.3.3.3,0,0,0,.1.2l.4.5h0c-.1.3-.3.3-.4.5a.4.4,0,0,0-.1.3.3.3,0,0,0,.1.2c.1.2.4.3.4.6s-.3.4-.4.6-.1.1-.1.2a.4.4,0,0,0,.1.3h.2c.1.2.2.3.2.5h0c0,.3-.3.4-.4.6s-.1.1-.1.2,0,.2.1.2.4.3.4.6-.3.4-.4.7-.1.1-.1.2,0,.1.1.2l.4.5h0c-.1.3-.3.4-.4.6s-.1.1-.1.2,0,.2.1.2.4.3.4.6-.3.4-.4.6a.4.4,0,0,0-.1.3.3.3,0,0,0,.1.2l.2.2a.5.5,0,0,1,.2.4h0c0,.3-.3.4-.4.6s-.1.1-.1.2a.4.4,0,0,0,.1.3c.1.2.4.2.4.6s-.3.4-.4.6-.1.1-.1.2,0,.2.1.2.3.3.4.6h0l-.4.5v.2c0,.1,0,.1.1.2s.4.3.4.7-.3.4-.4.6-.1.1-.1.2,0,.2.1.2a.2.2,0,0,0,.2.2.5.5,0,0,1,.2.4h0c0,.4-.3.4-.4.7s-.1.1-.1.2v.2c.1.2.4.3.4.6s-.3.4-.4.6v.2a.4.4,0,0,0,.1.3c.1.2.3.2.4.5h-.3l-.2.2h0a.1.1,0,0,1,.1.1h.1c0,.1.1.1.2.2h.1c0,.3-.3.4-.4.6v.2c0,.4.5.4.5.9h-7c0-.5.5-.5.5-.9v-.2c-.1-.2-.4-.3-.4-.6s.4-.4.4-.7v-.2c0-.3-.4-.4-.5-.7h0c.1-.3.5-.4.5-.8s-.5-.4-.5-.8.5-.4.5-.8-.2-.3-.3-.4-.2-.3-.2-.5h0c0-.4.5-.4.5-.8s-.5-.4-.5-.8.5-.5.5-.9-.4-.4-.5-.7h0c.1-.4.5-.4.5-.8s-.5-.4-.5-.8.5-.4.5-.9-.2-.3-.3-.4a.5.5,0,0,1-.2-.4h0c0-.4.5-.4.5-.8s-.5-.5-.5-.9.5-.4.5-.8-.4-.4-.5-.8h0c.1-.3.5-.3.5-.7s-.5-.4-.5-.9.5-.4.5-.8-.2-.3-.3-.4a.5.5,0,0,1-.2-.4h0c0-.4.5-.5.5-.9s-.5-.4-.5-.8.5-.4.5-.8-.4-.5-.5-.8h0c.1-.3.5-.4.5-.7s-.5-.5-.5-.9.5-.4.5-.8-.1-.2-.1-.3a.1.1,0,0,1-.1-.1.6.6,0,0,1-.3-.5h7c0,.5-.5.5-.5.9s.5.4.5.8S10.2,48.5,10.1,48.7Z" style="fill:#ffaa5a;stroke:#ff8d3d;stroke-miterlimit:10;stroke-width:3px"/><path d="M12.5,78.1h0a.6.6,0,0,1-.5.6h-.9a.7.7,0,0,1-.5-.4A3.9,3.9,0,0,0,7,75.6a3.8,3.8,0,0,0-3.6,2.7.7.7,0,0,1-.5.4H2a.6.6,0,0,1-.5-.6h0C1.5,74.8,2.8,71,7,71a4.8,4.8,0,0,1,3.5,1.3C12,73.7,12.5,76,12.5,78.1Z" style="fill:#5576b4;stroke:#335394;stroke-miterlimit:10;stroke-width:3px"/><path d="M35.2,5.3a3.7,3.7,0,0,1-3.5,3.8,3,3,0,0,1-1.6-.5,3.7,3.7,0,0,1-1.8-3.3,3.7,3.7,0,0,1,3.4-3.8,3.5,3.5,0,0,1,2.7,1.4A4.1,4.1,0,0,1,35.2,5.3Z" style="fill:#ffaa5a;stroke:#ff8d3d;stroke-miterlimit:10;stroke-width:3px"/><ellipse cx="9.8" cy="20.7" rx="4.1" ry="7" style="fill:#ffaa5a;stroke:#ff8d3d;stroke-miterlimit:10;stroke-width:3px"/><path d="M56.4,21.1c0,3.9-1.8,7-4,7s-4.1-3.1-4.1-7a9.6,9.6,0,0,1,1.1-4.7c.8-1.4,1.8-2.2,3-2.2s3.1,1.8,3.7,4.3A10.9,10.9,0,0,1,56.4,21.1Z" style="fill:#ffaa5a;stroke:#ff8d3d;stroke-miterlimit:10;stroke-width:3px"/><path d="M37.8,36.8c0,.3.9.3,1,.6h0c-.1.3-1,.3-1,.7s1,.3,1,.6-1,.4-1,.7,1,.3,1,.7h-15c0-.4,1-.4,1-.7s-1-.3-1-.7,1-.3,1-.6-.9-.4-1-.7h0c.1-.3,1-.3,1-.6s-1-.4-1-.7,1-.4,1-.7-1-.3-1-.7h15c0,.4-1,.4-1,.7s1,.3,1,.7S37.8,36.4,37.8,36.8Z" style="fill:#ffaa5a;stroke:#ff8d3d;stroke-miterlimit:10;stroke-width:3px"/><path d="M51.5,21.1a14,14,0,0,1-14,14H25a14.1,14.1,0,0,1-14-14,14.4,14.4,0,0,1,4.1-10A14.3,14.3,0,0,1,25,7H37.5a14.1,14.1,0,0,1,12.4,7.4A14.7,14.7,0,0,1,51.5,21.1Z" style="fill:#5576b4;stroke:#335394;stroke-miterlimit:10;stroke-width:3px"/><path d="M30,98.6H12.4c-.7,0-1.2-.5-1.1-1,.6-4.2,4.8-7.4,9.9-7.4s9.3,3.2,9.9,7.4C31.2,98.1,30.7,98.6,30,98.6Z" style="fill:#5576b4;stroke:#335394;stroke-miterlimit:10;stroke-width:3px"/><path d="M50.5,98.6h-17a.9.9,0,0,1-1-1c.6-4.2,4.6-7.4,9.5-7.4a9.8,9.8,0,0,1,5.5,1.5,8,8,0,0,1,4,5.9A.9.9,0,0,1,50.5,98.6Z" style="fill:#5576b4;stroke:#335394;stroke-miterlimit:10;stroke-width:3px"/><path d="M59.8,45.4c0,2-5.4,2.2-8.7,1.5V66.8c0,2.7-1.8,5.4-4.5,5.4H14.8c-2.1-.5-3.3-2.5-3.3-4.8V47.4c-2.5.5-6.3.3-7.9-.8a1.5,1.5,0,0,1-.9-1.2,5.6,5.6,0,0,1,5.6-5.6h46a5.6,5.6,0,0,1,4.6,2.4A5.7,5.7,0,0,1,59.8,45.4Z" style="fill:#5576b4;stroke:#335394;stroke-miterlimit:10;stroke-width:3px"/><path d="M38.8,31a47.2,47.2,0,0,1-15,0A2.1,2.1,0,0,1,22,28.6h0A2.2,2.2,0,0,1,24.4,27a40,40,0,0,0,13.8,0,2.3,2.3,0,0,1,2.4,1.6h0A2.1,2.1,0,0,1,38.8,31Z" style="fill:#f9d9ca"/><circle cx="24.4" cy="17.8" r="4.8" transform="translate(-3.7 28.7) rotate(-57.2)" style="fill:#f9d9ca"/><circle cx="38.8" cy="17.8" r="4.8" transform="translate(8.8 48.1) rotate(-69.9)" style="fill:#f9d9ca"/><circle cx="38.8" cy="17.8" r="3.7" transform="translate(0.6 36.8) rotate(-51.1)" style="fill:#151b35"/><circle cx="24.4" cy="17.8" r="3.7" style="fill:#151b35"/><rect x="18.6" y="46.4" width="25.3" height="17.63" rx="1.8" style="fill:#151b35"/><circle cx="21.1" cy="48.8" r="0.9" style="fill:#5576b4"/><path d="M42.4,48.8a1,1,0,0,1-.9,1,1,1,0,0,1-1-1,.9.9,0,0,1,1-.9A.9.9,0,0,1,42.4,48.8Z" style="fill:#5576b4"/><path d="M22,62a.9.9,0,1,1-1.8,0A.9.9,0,1,1,22,62Z" style="fill:#5576b4"/><path d="M42.4,62a.9.9,0,0,1-.9.9.9.9,0,0,1-1-.9.9.9,0,0,1,1-1A.9.9,0,0,1,42.4,62Z" style="fill:#5576b4"/><path d="M37,51.2H25.5a1.7,1.7,0,0,1-1.7-1.7h0a1.8,1.8,0,0,1,1.7-1.8H37a1.8,1.8,0,0,1,1.8,1.8h0A1.7,1.7,0,0,1,37,51.2Z" style="fill:#ffaa5a"/><path d="M37.8,55.1h-13a1,1,0,0,1-1-1h0a.9.9,0,0,1,1-1h13a.9.9,0,0,1,1,1h0A1,1,0,0,1,37.8,55.1Z" style="fill:#ffaa5a"/><path d="M37.8,58.9h-13a.9.9,0,0,1-1-1h0a1,1,0,0,1,1-1h13a1,1,0,0,1,1,1h0A.9.9,0,0,1,37.8,58.9Z" style="fill:#ffaa5a"/><path d="M37.8,62.8h-13a.9.9,0,0,1-1-1h0a1,1,0,0,1,1-1h13a1,1,0,0,1,1,1h0A.9.9,0,0,1,37.8,62.8Z" style="fill:#ffaa5a"/><path d="M14.2,16.2c-.2-.2.9-2.8,3.3-4.9s7.3-3,7.3-2.8-2.9.8-6.3,3.4S14.4,16.3,14.2,16.2Z" style="fill:#5576b4;stroke:#335394;stroke-miterlimit:10;stroke-width:3px;opacity:0.4;mix-blend-mode:screen"/><path d="M24.2,40.6c0-.2-5.3,0-9,0H9.1a8.4,8.4,0,0,0-1.9.2c-1.5.5-2.3,1.6-2.1,1.8a10.7,10.7,0,0,1,2.5-1,31.8,31.8,0,0,1,5.8-.3C17.6,41.4,24.3,40.9,24.2,40.6Z" style="fill:#5576b4;stroke:#335394;stroke-miterlimit:10;stroke-width:3px;opacity:0.4;mix-blend-mode:screen"/><path d="M2.6,75.2c-.2-.1.1-1.4,1.1-2.4a4,4,0,0,1,2.7-1.1,12.6,12.6,0,0,0-2.1,1.4A12.2,12.2,0,0,0,2.6,75.2Z" style="fill:#5576b4;stroke:#335394;stroke-miterlimit:10;stroke-width:3px;opacity:0.4;mix-blend-mode:screen"/><path d="M51.6,75.2a3.4,3.4,0,0,1,1.1-2.4,4,4,0,0,1,2.7-1.1,12.6,12.6,0,0,0-2.1,1.4A12.2,12.2,0,0,0,51.6,75.2Z" style="fill:#5576b4;stroke:#335394;stroke-miterlimit:10;stroke-width:3px;opacity:0.4;mix-blend-mode:screen"/><path d="M13.8,94.8a4.2,4.2,0,0,1,1.5-2.2c1.6-1.1,3.7-1,3.7-.7s-1,.3-2.9,1.4S14,95,13.8,94.8Z" style="fill:#5576b4;stroke:#335394;stroke-miterlimit:10;stroke-width:3px;opacity:0.4;mix-blend-mode:screen"/><path d="M35.4,94.8c-.2-.1.4-1.4,1.5-2.2s3.6-1,3.6-.7-1,.3-2.8,1.4S35.5,95,35.4,94.8Z" style="fill:#5576b4;stroke:#335394;stroke-miterlimit:10;stroke-width:3px;opacity:0.4;mix-blend-mode:screen"/><circle cx="21.6" cy="15.6" r="1.1" style="fill:#f9d9ca"/><circle cx="35.9" cy="15.6" r="1.1" transform="matrix(0.04, -1, 1, 0.04, 18.94, 50.91)" style="fill:#f9d9ca"/></g></g></g></g></svg>