<svg xmlns="http://www.w3.org/2000/svg" xmlns:xlink="http://www.w3.org/1999/xlink" viewBox="0 0 85.4 109.9"><defs><clipPath id="clip-path"><path d="M82.4,54c4.2-6.5,1-9-3-5.6,8.9-17.2,3-20.1-1.4-14.6,5.1-12.2,1.8-22.5-3.9-16.4C77.5-.6,63.2-.3,59.4,14.6c-2-6.6-7.7-5.1-7.7,9.9-2.1-5.3-6.3-4.4-5.7,4a62.6,62.6,0,0,0,.9,6.5c-2.2-2.7-4.1-1.1-3.6,2.5A18.8,18.8,0,0,0,47,46.3l3.3-.2a7.2,7.2,0,0,0,.9,2L66.9,69.2c3.5-.2,7.2-.6,10.4-2.6s3.4-6-3.2-4.4A32.2,32.2,0,0,0,82.4,54Z" style="fill:#ffe8cc"/></clipPath></defs><g id="Layer_2" data-name="Layer 2"><g id="Layer_1-2" data-name="Layer 1"><g id="na_chicken1"><path d="M14.4,105.7a1.2,1.2,0,0,1-1-.5,2.7,2.7,0,0,1-.1-2.3,6.9,6.9,0,0,0,.5-1.3l-1.8.8-1.3.3a1.4,1.4,0,0,1-1.3-.7,1.9,1.9,0,0,1,.4-1.9c2.3-3.1,4.8-3.5,7.2-3.9l2.3-.5c.5-.2,1.8-2.3,3.6-7.2a1.2,1.2,0,0,1,1-.7H24l4,.4a1,1,0,0,1,.8.6.9.9,0,0,1,0,1,71.6,71.6,0,0,0-4.3,7h-.1a13.9,13.9,0,0,1,3.5,1.6,1.8,1.8,0,0,1,1.1,2.1c-.1.5-.6,1-1.6,1H26.2l-2.4-.2a6.9,6.9,0,0,0-2.2.3,12.1,12.1,0,0,0-5.1,3A3.2,3.2,0,0,1,14.4,105.7Z" style="fill:#ffc457"/><path d="M23.9,88.8l4,.4s-3.2,4.8-4.3,7.1-.2,1.3.5,1.6a13.6,13.6,0,0,1,3.3,1.4c1,.6.9,1.3,0,1.3h-.1l-3.5-.2a10.1,10.1,0,0,0-2.5.3,14.9,14.9,0,0,0-5.5,3.2,2.9,2.9,0,0,1-1.4.8c-.3,0-.5-.4-.1-1.5a12.2,12.2,0,0,1,1.6-3.1,14.1,14.1,0,0,0-4.3,1.3l-.9.3c-.5,0-.6-.3-.1-1,2.7-3.7,5.6-3.1,9-4,1.2-.3,3-4.5,4.3-7.9m0-2A2,2,0,0,0,22,88.1c-1.5,4.1-2.7,6.2-3.2,6.7l-1.9.4c-2.5.4-5.4.8-7.9,4.4a2.6,2.6,0,0,0-.5,2.9,2.3,2.3,0,0,0,2.2,1.2l1.5-.3a2.7,2.7,0,0,0,.3,2.3,2.6,2.6,0,0,0,1.9,1,4,4,0,0,0,2.7-1.3,13.4,13.4,0,0,1,4.7-2.8l2-.2,2.3.2h1.3a2.5,2.5,0,0,0,2.6-1.7,3,3,0,0,0-1.5-3.3l-2.7-1.2c1.3-2.4,3.8-6,3.8-6.1a1.9,1.9,0,0,0,.2-1.9,2.1,2.1,0,0,0-1.7-1.2l-4-.4Z" style="fill:#ce894a"/><path d="M39.5,108.9c-.7,0-1.5-.4-1.7-2.2a9.6,9.6,0,0,1,0-2.4,12.4,12.4,0,0,0-2.3,1.2l-.5.2a2.6,2.6,0,0,1-1.4.4,1.3,1.3,0,0,1-1.2-.6,1.7,1.7,0,0,1,0-1.7c1.5-3.3,4.8-4.3,6.9-5l.6-.2c.5-.5,1.3-3.7,1.4-7.8a1,1,0,0,1,1-1H47a.9.9,0,0,1,.8.4,1,1,0,0,1,.1.9c0,.1-1.8,5.3-2.3,7.5,0,.3,0,.3.2.3l1.1.3,1.2.2c1.7.5,2.1,1.3,2.1,1.8s-.2,1.1-1.5,1.4l-1.4.3c-2.5.4-3.6.6-5.9,4.7-.4.6-1,1.4-1.9,1.4Z" style="fill:#ffc457"/><path d="M47,90.7h0m0,0a70.7,70.7,0,0,0-2.3,7.6,1.1,1.1,0,0,0,.9,1.5l2.2.5c1.3.3,2,1,.7,1.2-3.7.8-5,.4-8,5.5-.3.5-.7.9-1,.9s-.6-.3-.7-1.3a10.6,10.6,0,0,1,.3-3.8c-1.3.1-3.4,1.4-4.6,2.1l-.9.2c-.4,0-.6-.2-.3-.9,1.5-3.3,5.3-4.1,7-4.7s1.9-4.9,2-8.7H47m0-2H42.2a2,2,0,0,0-1.9,2,25.4,25.4,0,0,1-1,7H39c-2.1.6-5.9,1.8-7.5,5.4a3,3,0,0,0,0,2.7,2.6,2.6,0,0,0,2.1,1.1,3.3,3.3,0,0,0,1.9-.5l.5-.3.7-.4a2.8,2.8,0,0,0,.1.9c.3,2.8,2,3.1,2.7,3.1a3.3,3.3,0,0,0,2.8-1.9c2.1-3.7,2.8-3.8,5.2-4.2l1.4-.3c2.1-.4,2.3-1.9,2.3-2.3s-.3-2.2-2.9-2.9L47,98.1h-.2c.4-1.9,1.6-5.2,2-6.5a2.4,2.4,0,0,0,.2-.8,2,2,0,0,0-2-2Zm0,4Z" style="fill:#ce894a"/><path d="M71.3,68.4l-9.6-.9,1.4,5.1a17.9,17.9,0,0,0,9.5.6C76.8,72.5,77.4,69.3,71.3,68.4Z" style="fill:#f9cd9d"/><path d="M82.4,54c4.2-6.5,1-9-3-5.6,8.9-17.2,3-20.1-1.4-14.6,5.1-12.2,1.8-22.5-3.9-16.4C77.5-.6,63.2-.3,59.4,14.6c-2-6.6-7.7-5.1-7.7,9.9-2.1-5.3-6.3-4.4-5.7,4a62.6,62.6,0,0,0,.9,6.5c-2.2-2.7-4.1-1.1-3.6,2.5A18.8,18.8,0,0,0,47,46.3l3.3-.2a7.2,7.2,0,0,0,.9,2L66.9,69.2c3.5-.2,7.2-.6,10.4-2.6s3.4-6-3.2-4.4A32.2,32.2,0,0,0,82.4,54Z" style="fill:#ffe8cc"/><g style="clip-path:url(#clip-path)"><path d="M61.4,4.8c-3.7,6.3-4.4,13.7-4.4,21a147.2,147.2,0,0,0,2.6,25.6c.2.9,1.7.5,1.5-.4a151.8,151.8,0,0,1-2.6-24.2c-.1-7.3.4-14.8,4.2-21.3C63.2,4.7,61.9,4,61.4,4.8Z" style="fill:#f9cd9d"/><path d="M57.8,49.2c-4.1-10.1-6.9-20.7-6-31.6.1-1-1.4-1-1.5-.1-.9,11.2,2,22.1,6.1,32.4C56.8,50.8,58.1,50.1,57.8,49.2Z" style="fill:#f9cd9d"/><path d="M53.9,52.6c-5-9.7-8.7-20-8.8-30.9,0-1-1.5-.9-1.5,0,.1,11.3,4,21.8,9,31.7C53,54.3,54.3,53.4,53.9,52.6Z" style="fill:#f9cd9d"/><path d="M75.1,10.9A85,85,0,0,1,60.6,49.7c-.5.8.8,1.6,1.3.8A88.3,88.3,0,0,0,76.6,10.9C76.7,9.9,75.2,9.9,75.1,10.9Z" style="fill:#f9cd9d"/><path d="M80.5,27C77.4,38.5,70,46.2,60.8,53.2c-.8.6,0,1.9.8,1.3,4.7-3.6,9.4-7.3,13-12.1a43,43,0,0,0,7.4-15A.8.8,0,0,0,80.5,27Z" style="fill:#f9cd9d"/><path d="M83.2,42.7c-3.9,7.4-10.7,13.8-19.1,15.8-.9.3-.4,1.7.5,1.5,8.8-2.1,15.9-8.8,19.9-16.7A.7.7,0,0,0,83.2,42.7Z" style="fill:#f9cd9d"/><path d="M80.1,58.7a28.8,28.8,0,0,1-16.4,5.9c-.9.1-1.1,1.6-.1,1.5a31.1,31.1,0,0,0,17.5-6.3C81.8,59.2,80.8,58.1,80.1,58.7Z" style="fill:#f9cd9d"/><path d="M68.4,58.1c-.7-.6-1.8.4-1,1.1a3.9,3.9,0,0,1,1.3,4.5.7.7,0,0,0,1.4.5C71.1,61.8,70.2,59.7,68.4,58.1Z" style="fill:#f9cd9d"/><path d="M70.7,62.9c-.9-.4-1.7.9-.8,1.3s1.9,4.2-1,5.7c-.8.4-.1,1.6.8,1.3C73.9,69.7,73.1,64,70.7,62.9Z" style="fill:#f9cd9d"/></g><path d="M82.4,54c4.2-6.5,1-9-3-5.6,8.9-17.2,3-20.1-1.4-14.6,5.1-12.2,1.8-22.5-3.9-16.4C77.5-.6,63.2-.3,59.4,14.6c-2-6.6-7.7-5.1-7.7,9.9-2.1-5.3-6.3-4.4-5.7,4a62.6,62.6,0,0,0,.9,6.5c-2.2-2.7-4.1-1.1-3.6,2.5A18.8,18.8,0,0,0,47,46.3l3.3-.2a7.2,7.2,0,0,0,.9,2L66.9,69.2c3.5-.2,7.2-.6,10.4-2.6s3.4-6-3.2-4.4A32.2,32.2,0,0,0,82.4,54Z" style="fill:none;stroke:#ddab88;stroke-linecap:round;stroke-linejoin:round;stroke-width:2px"/><path d="M44.6,46.9c4-1.1,8.4-6,15.3-3.5s8.8,15.3,8.2,22Z" style="fill:#6d371f"/><path d="M7.8,43.1C-3.8,58.6-.9,79.6,19.8,87.4c.1,1.3,1.5,3.1,4.8,3.8s6.1-.2,6.7-1.3a49.5,49.5,0,0,0,6.7.2c1,2.2,2.9,2.6,6.2,2.3s6-2.5,6.5-4.8c8-2.9,16.3-8.9,17.2-19.7L36.1,42.4C28.6,36.6,20.7,35.4,7.8,43.1Z" style="fill:#a05530;stroke:#6d371f;stroke-linecap:round;stroke-linejoin:round;stroke-width:2px"/><path d="M55.4,72.9c-7.4,1-15.3,0-21.6-4.3-2.2-1.5-3-.8-.5,1,6.5,4.9,14.4,5.8,22.2,4.8A.8.8,0,1,0,55.4,72.9Z" style="fill:#6d371f"/><path d="M69,62.9c1-5.1-14.5-16.4-29.8-18.1L27.7,61.2c3.6,7,21.9,18.6,35.9,12.9A7.5,7.5,0,0,0,68,70.2C72.5,68.8,71.6,65.3,69,62.9Z" style="fill:#bf6c47"/><path d="M67,71.7a4.9,4.9,0,0,0,1-1.5c-7.5.5-15-1.1-22.3-2.8-.9-.3-1.3,1.2-.4,1.4C52.5,70.5,59.7,72.1,67,71.7Z" style="fill:#a05530"/><path d="M50.8,57.6a66.3,66.3,0,0,0,19.8,7.2A6.7,6.7,0,0,0,69,63a70.3,70.3,0,0,1-17.5-6.7C50.7,55.8,50,57.1,50.8,57.6Z" style="fill:#a05530"/><path d="M50.2,46.8a82.2,82.2,0,0,0-13-3.6L26.7,60.9c1.6,3.1,8.7,11.1,18,11.7,6,.4,9.2-1.6,7.9-3.9,11.7-.5,12-8.4,6.4-12.1C61.8,54.8,59.3,50.5,50.2,46.8Z" style="fill:#a05530"/><path d="M26.7,60.9A26.9,26.9,0,0,0,40.4,71.8c7.1,3.5,15.7,5.3,23.2,2.3A7.5,7.5,0,0,0,68,70.2c4.5-1.4,3.6-4.9,1-7.3.6-2.9-4.2-7.8-11.3-11.8a27.5,27.5,0,0,0-7.5-4.3,82.2,82.2,0,0,0-13-3.6" style="fill:none;stroke:#6d371f;stroke-linecap:round;stroke-linejoin:round;stroke-width:2px"/><path d="M36.2,40c-1-2-1.8-4.1-2.1-10.3-.8-15.7-4.6-20-9.7-20.3-19-1.9-4.9,15.4-12.9,25.8a62.6,62.6,0,0,1-4.8,7.4c-2.2,3.3-1.3,7.1,4.6,1.3-2.6,8.3.8,14,6.5,1.1-2,10.8,3.1,9.5,4.4,3.6,1.7,6.8,5,5.9,5.4-3.1,2.6,6.8,5.8,5.7,4.4-4.1C35.1,45.8,39,45.9,36.2,40Z" style="fill:#ffe8cc;stroke:#ddab88;stroke-linecap:round;stroke-linejoin:round;stroke-width:2px"/><path d="M25,20.9c.6,2.3,4.9.9,4-1.6S24.4,18.4,25,20.9Z" style="fill:#fdb9ac"/><path d="M14,19.8c.2-6.2,3.3-9.8,9.6-9.7,2.6,0,4-.1,5.3-1.8s0-5.1-4.6-4c1.8-3.4-3.2-4.9-7.1-.9,0-1.6-4.2-1.8-6.5,3.7s1.6,10.2,1.1,13.6l.9,2.2c-.2,3.1-3.9,7.7-2.4,10.7a2.3,2.3,0,0,0,3.4.5c.9,2.4,5,3,6.2.1s-2.3-7.9-3.4-12.1Z" style="fill:#b24f6c;stroke:#781f1a;stroke-linecap:round;stroke-linejoin:round;stroke-width:2px"/><path d="M12.2,18.1c-2.1,1.1-4.9,5-4.4,5.6s3.4.2,7.6-.2c2.5-.3,2.5-1.8.3-3.2S13.5,17.4,12.2,18.1Z" style="fill:#ffaa5a;stroke:#ff8d3d;stroke-miterlimit:10;stroke-width:2px"/><path d="M17.7,19.8a3.8,3.8,0,0,1-1.2-2.9,4.1,4.1,0,0,1,8.1,0A4.1,4.1,0,0,1,20.5,21,3.8,3.8,0,0,1,17.7,19.8Z" style="fill:#fecf72"/><path d="M20.5,13.2a3.9,3.9,0,0,1,2.7,1.1,3.7,3.7,0,0,1-5.3,5.3h0a3.7,3.7,0,0,1,0-5.3,3.8,3.8,0,0,1,2.6-1.1m-4.4,3.7a4.5,4.5,0,0,0,8.9,0,4.5,4.5,0,0,0-8.9,0Z" style="fill:#fff"/><circle cx="20.5" cy="16.9" r="2.4" style="fill:#424242"/><circle cx="21.9" cy="16.2" r="0.6" style="fill:#fcfcfc"/></g></g></g></svg>