<svg xmlns="http://www.w3.org/2000/svg" xmlns:xlink="http://www.w3.org/1999/xlink" width="276.75" height="195.52" viewBox="0 0 276.75 195.52">
  <defs>
    <clipPath id="clip-path" transform="translate(7.11)">
      <rect x="19.07" y="83.63" width="227.89" height="28.22" fill="#924f28"/>
    </clipPath>
    <clipPath id="clip-path-2" transform="translate(7.11)">
      <rect x="19.07" y="127.52" width="227.89" height="28.22" fill="#924f28"/>
    </clipPath>
    <clipPath id="clip-path-3" transform="translate(7.11)">
      <rect x="19.07" y="171.41" width="227.89" height="7.36" fill="#924f28"/>
    </clipPath>
  </defs>
  <g id="Layer_2" data-name="Layer 2">
    <g id="Layer_1-2" data-name="Layer 1">
      <g id="fu_straw_crate2">
        <g>
          <rect x="31.83" y="86.66" width="216.6" height="88.42" fill="#fdd168"/>
          <path d="M225,150.8c-11.38,4.07-21.13,10.57-34.13,6.5-7.32-1.62-13,7.32-20.32,9.76a11.33,11.33,0,0,1-7.32,0c-4.06-2.44-7.31-6.5-11.38-4.88-14.63,4.88-29.26,4.88-44.7.81-3.25-.81-6.5,2.44-9.75,4.07-7.32,2.44-13.82-6.5-19.51-3.25-17.14,9.69-36.34,11.17-53.2,5.07v6.2h216.6V147.93A98.81,98.81,0,0,0,225,150.8Z" transform="translate(7.11)" fill="#ffaa5a" stroke="#ff8d3d" stroke-miterlimit="10" stroke-width="3"/>
        </g>
        <g>
          <rect x="26.18" y="83.63" width="11.29" height="95.14" fill="#6a3417"/>
          <rect x="242.79" y="83.63" width="11.29" height="95.14" fill="#6a3417"/>
          <g>
            <rect x="26.18" y="83.63" width="227.89" height="28.22" fill="#924f28"/>
            <g clip-path="url(#clip-path)">
              <g>
                <path d="M9.59,96.35A202.58,202.58,0,0,0,76.41,63c1-.79,0-2.59-1-1.78A201.21,201.21,0,0,1,9,94.36a1,1,0,0,0,.55,2Z" transform="translate(7.11)" fill="#6a3417"/>
                <path d="M4.46,137.87c31-34.19,67.26-66.34,113.13-77.81a1,1,0,0,0-.55-2C81.71,66.9,51.29,88.26,25.36,113.21c-7.75,7.45-15.14,15.24-22.36,23.2-.89,1,.57,2.45,1.46,1.46Z" transform="translate(7.11)" fill="#6a3417"/>
                <path d="M30.59,129.92c8.52-6.44,17-13,25.58-19.3,8.1-6,16.74-11.59,26.62-14.06,20.31-5.09,36.25,8,50.19,21,1,.91,2.44-.55,1.46-1.46-13.59-12.61-29.16-25.6-49-22.17-10.2,1.77-19.33,7.11-27.65,13-9.59,6.82-18.85,14.13-28.23,21.22-1.05.8,0,2.59,1,1.79Z" transform="translate(7.11)" fill="#6a3417"/>
                <path d="M63.7,124.74c8.29-8.41,18.24-16.58,30.55-17.35,11.67-.73,21.09,6.56,28.06,15.19.84,1,2.29-.43,1.46-1.46-7.29-9-17.35-16.55-29.52-15.8-12.88.8-23.31,9.14-32,18a1,1,0,0,0,1.46,1.46Z" transform="translate(7.11)" fill="#6a3417"/>
                <path d="M101.64,82.71a122.63,122.63,0,0,0,84.8,42.55c1.33.09,1.33-2,0-2.06A120.58,120.58,0,0,1,103.1,81.25c-.86-1-2.31.45-1.46,1.46Z" transform="translate(7.11)" fill="#6a3417"/>
                <path d="M125.22,78.26a187.38,187.38,0,0,0,107.55,46.35c1.32.11,1.32-2,0-2.07A185,185,0,0,1,126.68,76.79c-1-.88-2.46.58-1.46,1.47Z" transform="translate(7.11)" fill="#6a3417"/>
                <path d="M147.57,79.61c14.85,12.06,30.53,24.68,49.85,28.28,18,3.36,35.07-3.44,48.22-15.7,7.88-7.36,14.16-16.23,19.81-25.38.7-1.13-1.09-2.17-1.78-1-11.57,18.74-27.83,38.12-51.22,40.73-24.62,2.74-45.52-13.8-63.42-28.35-1-.84-2.49.62-1.46,1.46Z" transform="translate(7.11)" fill="#6a3417"/>
                <path d="M174.56,76.05c9.6,12.45,25.61,24.66,42.21,21,15.15-3.38,28.24-14.38,35.44-27.93.62-1.17-1.16-2.21-1.79-1-6.66,12.55-18.27,22.52-32,26.43-16.43,4.66-32.42-7-42-19.47-.8-1-2.59,0-1.78,1Z" transform="translate(7.11)" fill="#6a3417"/>
                <path d="M194.57,78.75C200,84.94,206.8,91.09,215.63,90.4c9.24-.73,16.14-7.46,22.29-13.71.93-1-.53-2.41-1.46-1.46-5.66,5.76-12,12.15-20.44,13s-14.83-5.1-20-11c-.87-1-2.33.47-1.46,1.47Z" transform="translate(7.11)" fill="#6a3417"/>
              </g>
            </g>
          </g>
          <g>
            <rect x="26.18" y="127.52" width="227.89" height="28.22" fill="#924f28"/>
            <g clip-path="url(#clip-path-2)">
              <g>
                <path d="M-5.82,154.18A74.21,74.21,0,0,1,67.07,177c.87,1,2.33-.47,1.46-1.46-18.27-20.89-48-30.13-74.9-23.38a1,1,0,0,0,.55,2Z" transform="translate(7.11)" fill="#6a3417"/>
                <path d="M-5.31,128.18c36.3,6,75,19.41,94.65,52.93a1,1,0,0,0,1.78-1c-19.89-34-59-47.76-95.88-53.89-1.3-.21-1.86,1.78-.55,2Z" transform="translate(7.11)" fill="#6a3417"/>
                <path d="M46.05,124.86a258.53,258.53,0,0,1,48,46.74c.82,1,2.27-.43,1.46-1.46a260.74,260.74,0,0,0-48.43-47.07c-1.06-.79-2.09,1-1,1.79Z" transform="translate(7.11)" fill="#6a3417"/>
                <path d="M63.81,120.87a67.16,67.16,0,0,0,9.77,11.65A87.26,87.26,0,0,0,85.05,142.7a45.31,45.31,0,0,0,67.54-18.51c.55-1.21-1.23-2.26-1.78-1-7,15.49-22.57,26-39.69,25.82a44,44,0,0,1-25-8,85.46,85.46,0,0,1-11-9.86,64.67,64.67,0,0,1-9.45-11.24c-.69-1.13-2.48-.09-1.78,1.05Z" transform="translate(7.11)" fill="#6a3417"/>
                <path d="M83.73,123.17C90,132.51,97.81,141.69,110,141.39c11.44-.29,20.69-8.18,25.36-18.2.56-1.2-1.22-2.25-1.78-1-4.36,9.36-12.84,16.92-23.58,17.18-11.47.28-18.72-8.47-24.52-17.19-.74-1.1-2.53-.07-1.79,1Z" transform="translate(7.11)" fill="#6a3417"/>
                <path d="M127.89,164.72c6.58-3,11.83-7.9,17.12-12.71a222.35,222.35,0,0,1,17.48-14.52c11.75-8.66,24.76-15.65,39.19-18.47,1.3-.25.75-2.25-.55-2-14.25,2.78-27.19,9.59-38.86,18.07a209.14,209.14,0,0,0-16.45,13.41c-6,5.31-11.62,11.06-19,14.43-1.21.55-.16,2.33,1,1.78Z" transform="translate(7.11)" fill="#6a3417"/>
                <path d="M146.7,164.18a109.39,109.39,0,0,1,41.53-31.63c17-7.38,38.38-12.27,56.26-5.58,1.24.47,1.78-1.53.55-2-18-6.75-39.55-2-56.72,5.3a111.05,111.05,0,0,0-43.08,32.44c-.83,1,.62,2.5,1.46,1.46Z" transform="translate(7.11)" fill="#6a3417"/>
                <path d="M170.46,162c13.41-12.89,29.4-24,47.85-27.9,17.12-3.64,36.17-.42,49.54,11.35,1,.88,2.46-.58,1.46-1.46-13.48-11.87-32.31-15.43-49.7-12.24C200.08,135.28,183.07,147,169,160.49c-1,.93.5,2.39,1.46,1.47Z" transform="translate(7.11)" fill="#6a3417"/>
                <path d="M189.46,163.2c10.31-9.72,22.13-18.91,36.56-21,13.11-1.91,27.72,3.48,32.86,16.52.49,1.22,2.49.69,2-.55-5.11-12.93-18.92-19.39-32.31-18.33-16,1.28-29.25,11.25-40.57,21.92-1,.91.49,2.37,1.46,1.46Z" transform="translate(7.11)" fill="#6a3417"/>
              </g>
            </g>
          </g>
          <g>
            <rect x="26.18" y="171.41" width="227.89" height="7.36" fill="#924f28"/>
            <g clip-path="url(#clip-path-3)">
              <g>
                <path d="M29.15,193.81a182.47,182.47,0,0,0,25.39-32.66c.7-1.14-1.09-2.18-1.78-1a180.72,180.72,0,0,1-25.07,32.24c-.93,1,.53,2.41,1.46,1.46Z" transform="translate(7.11)" fill="#6a3417"/>
                <path d="M47.65,195a124.44,124.44,0,0,1,23.46-27c1-.87-.45-2.33-1.46-1.46A126.3,126.3,0,0,0,45.87,194c-.72,1.12,1.06,2.15,1.78,1Z" transform="translate(7.11)" fill="#6a3417"/>
                <path d="M62,189.72a55.61,55.61,0,0,1,49.53-20.95c1.32.15,1.31-1.92,0-2.06a57.44,57.44,0,0,0-51,21.55c-.81,1,.64,2.51,1.46,1.46Z" transform="translate(7.11)" fill="#6a3417"/>
                <path d="M101.18,169.66c8.46,7.61,17.22,15.4,28.08,19.34,11.14,4,23.46,3.63,34.61-.12,1.26-.42.72-2.42-.55-2-10.84,3.64-22.68,4.05-33.51.12-10.5-3.81-19-11.46-27.17-18.81-1-.89-2.45.57-1.46,1.46Z" transform="translate(7.11)" fill="#6a3417"/>
                <path d="M112.85,168.28a79.43,79.43,0,0,0,60.81,18.24c1.31-.16,1.32-2.22,0-2.06a77.47,77.47,0,0,1-59.35-17.64c-1-.86-2.48.6-1.46,1.46Z" transform="translate(7.11)" fill="#6a3417"/>
                <path d="M140.33,162a111.21,111.21,0,0,0,68.33,21.18c1.32,0,1.33-2.1,0-2.06a109.4,109.4,0,0,1-67.29-20.91c-1.08-.78-2.11,1-1,1.79Z" transform="translate(7.11)" fill="#6a3417"/>
                <path d="M178.49,165.49c22.28,15.48,49.39,20.71,75.69,24.88,1.3.21,1.86-1.78.55-2-26.13-4.14-53.06-9.3-75.2-24.68-1.1-.76-2.13,1-1,1.79Z" transform="translate(7.11)" fill="#6a3417"/>
                <path d="M208.57,164.37c13.74,13.7,33,19,51.45,22.63,1.29.26,1.85-1.73.55-2-18.15-3.59-37.06-8.66-50.54-22.1a1,1,0,0,0-1.46,1.46Z" transform="translate(7.11)" fill="#6a3417"/>
              </g>
            </g>
          </g>
          <g>
            <path d="M29.47,141.62a3,3,0,1,1-3-3A3,3,0,0,1,29.47,141.62Z" transform="translate(7.11)" fill="#ddab88"/>
            <path d="M29.47,97.73a3,3,0,1,1-3-3A3,3,0,0,1,29.47,97.73Z" transform="translate(7.11)" fill="#ddab88"/>
            <path d="M236.57,141.62a3,3,0,1,0,3-3A3,3,0,0,0,236.57,141.62Z" transform="translate(7.11)" fill="#ddab88"/>
            <path d="M236.57,97.73a3,3,0,1,0,3-3A3,3,0,0,0,236.57,97.73Z" transform="translate(7.11)" fill="#ddab88"/>
          </g>
        </g>
        <path d="M235.68,83.63H19.07v95.13H247V83.63Zm0,87.78H30.37V155.73H235.68Zm0-43.89H30.37V111.84H235.68Z" transform="translate(7.11)" fill="none" stroke="#6a3417" stroke-linecap="round" stroke-linejoin="round" stroke-width="3"/>
        <g>
          <g>
            <path d="M166.21,9.15c-2.76.56-5,3.2-5.06,4.08,12.53-4.94,23.78-4,36.71-2.1-4.18,1.23-7.25.81-12.83,5.32a21.81,21.81,0,0,1,8-1.39c3.18.24,5.38.4,6.2,1.52.46.65-1.63,1.36-2.77,4.56a56.48,56.48,0,0,1,33.43,7,22.81,22.81,0,0,0-13.09,5.17,30.56,30.56,0,0,1,20.93,5.24l-4.55,1.91a56.63,56.63,0,0,1,27.88,22.8A13.77,13.77,0,0,1,252,60.94,35.39,35.39,0,0,1,264.5,89.62a.78.78,0,0,1-1.35.49,30.62,30.62,0,0,0-13.86-8.43l2.46,9.16c.25.92.45,2-.21,2.72a2.6,2.6,0,0,1-2.68.22c-5.42-1.83-9.17-6.82-14.34-9.3-.71-.33-2.38-1-2.25-.24,1.56,9.05-2.67,18.35-3.19,15.68-.74-3.85-5.76-9.33-10-8.35-4.57,1.05-8.6,5.63-11,9.42a.6.6,0,0,1-1.11-.3l-.28-10.81c-6.16,1.71-10.48,5.93-16.16,7.86-2.47.83-5.19,1.52-7.62.61s-4.12-4.11-2.6-6.22c-2.3-.77-7.81,3.19-9.48,5s-4.47,6.16-7,10.7c-.58,1.06.61-10.5.7-13-.29-1.13-2-1.22-2.92-.54s-1.49,1.8-2.38,2.55c-1.84,1.55-4.66,1.17-6.8.08s-3.93-2.79-6.1-3.83C141.83,90.9,136.3,92,132,94.52S124.35,101,121.1,104.8c-1.1-4.34-4.23-9.86-8.43-8.3-2,.74-3.3,3-5.4,3.13-2.46.18-4-3.6-2.08-5.18-3.34-1.72-7.42,5.81-9.8,2.89C94,95.58,93.4,92.11,85,93,75.2,94.1,66.4,109,66.4,109c.42-6.78,4.81-13.55,6-14.88-3-1.3-4.9,5.26-7.94,4.18-.93-.33-1.44-1.28-2-2.07C59,91.61,50.38,93,48.55,98.44c-2.36.57-1.5-4.32-3.57-5.58-1.68-1-3.49,1.14-5.39,1.64-1.44.38-2.92-.26-4.36-.68-6.45-1.88-16.92,6.24-19.22,12.47-3-3.25-1.19-10.88-4.1-11.22a7,7,0,0,0-7.07,4.16C1.45,97.17.76,92.29,2.23,88.61s4.57-6.43,7.55-9c-2.61,1-5.15-2.36-4.57-5.08s3-4.64,5.18-6.32L27.56,55.22a41.62,41.62,0,0,0-16.84,5c-1.22.66.14-4.07,4.65-7.84C21.23,47.44,28.81,45.27,36.8,45,35,41.68,31,40.51,27.68,39.38c7.29-2.72,19.89-3.73,31.1-2.14-1-3.51-6.43-6.29-4.39-9.29a3.54,3.54,0,0,1,3-1.48l15.58,0-7.64-4.09,14.59.73L69.3,14A105.37,105.37,0,0,1,105.65,19l-3.49-7.83,19.21,3.64a25.64,25.64,0,0,1-5.1-13.06A32.4,32.4,0,0,1,135.62,12.5a15.68,15.68,0,0,1-3.32-8.67,2.38,2.38,0,0,1,.49-1.94c.7-.66,1.84-.36,2.72,0a49,49,0,0,1,8.11,4.35c2,1.33,4.75,4.74,7.08,5.15,2.17.37,5.32-1.68,7.45-2.15,2.7-.6,4-1.17,8-.77C166.48,8.52,166.56,9.08,166.21,9.15Z" transform="translate(7.11)" fill="#f7d36d" stroke="#ffaa5a" stroke-linecap="round" stroke-linejoin="round" stroke-width="3"/>
            <path d="M215.23,22.41a56,56,0,0,0-18.78-1.27c1.14-3.2,3.23-3.91,2.77-4.56-.82-1.12-3-1.28-6.2-1.52a21.81,21.81,0,0,0-8,1.39c5.58-4.51,8.65-4.09,12.83-5.32-12.93-1.87-24.18-2.84-36.71,2.1.07-.88,2.3-3.52,5.06-4.08.35-.07.27-.63-.09-.66-3.92-.4-5.27.17-8,.77-2.13.47-5.28,2.52-7.45,2.15-2.33-.41-5.09-3.82-7.08-5.15a49,49,0,0,0-8.11-4.35c-.88-.38-2-.68-2.72,0a2.42,2.42,0,0,0-.49,1.94,15.68,15.68,0,0,0,3.32,8.67A32.4,32.4,0,0,0,116.27,1.71a25.64,25.64,0,0,0,5.1,13.06l-19.21-3.64L105.65,19A105.37,105.37,0,0,0,69.3,14l10.58,9.11-14.59-.73,7.64,4.09-12.16,0c2.84,3.95,5.26,11.18,7.61,13.06,3.32,2.65,8,2.94,12.13,1.79s7.7-3.54,11.24-5.89c0,1.93-.1,3.87-.16,5.8,6.14-3,14.1,1.42,20-1.89-.3,1.11.72,2.19,1.82,2.56s2.29.28,3.42.53c5.08,1.15,6.12,7.88,9.52,11.83a5.94,5.94,0,0,1,8-2.4c2.48,1.42,4.91,4.79,7.33,3.26.65-.41,1.11-1.15,1.85-1.39a3.22,3.22,0,0,1,2.34.51l7.62,4c.48-2.16,3.06-2.93,5-4,4.83-2.59,6.82-8.36,8.4-13.61,2.32,3.06,4.91,6.16,8.48,7.59s8.34.58,10.11-2.84c.38-.73.61-1.53,1-2.24a15.56,15.56,0,0,1,2.44-2.7,13,13,0,0,0,3.6-8.89c2.38,3.52,8,3.33,11.35.73s5.05-6.76,6.58-10.73A8,8,0,0,0,215.23,22.41Z" transform="translate(7.11)" fill="#ffeb81"/>
          </g>
          <g>
            <g>
              <path d="M32.13,62.27a50.85,50.85,0,0,0-12.94,17.2c-.61,1.34,1.33,2.52,2,1.17A53.46,53.46,0,0,1,34,64.17C35.34,63.05,33.43,61.14,32.13,62.27Z" transform="translate(7.11)" fill="#ffaa5a"/>
              <path d="M36.54,62.15A133.2,133.2,0,0,0,19.33,90.22c-.61,1.4,1.38,2.65,2.1,1.23A177.75,177.75,0,0,1,38.52,63.68C39.39,62.55,37.42,61,36.54,62.15Z" transform="translate(7.11)" fill="#ffaa5a"/>
              <path d="M44.44,65.42a89.68,89.68,0,0,0-13.28,17c-.77,1.34,1.19,2.43,2.05,1.19a135,135,0,0,1,13-16.42C47.28,66,45.54,64.28,44.44,65.42Z" transform="translate(7.11)" fill="#ffaa5a"/>
              <path d="M49.14,70.77c-1.42,2.86-2.86,5.7-4.13,8.63-.59,1.37,1.27,2.58,2.06,1.21,1.59-2.76,3-5.61,4.46-8.45C52.33,70.58,49.93,69.17,49.14,70.77Z" transform="translate(7.11)" fill="#ffaa5a"/>
            </g>
            <g>
              <path d="M206.87,78.35c-1.7-4.32-3.66-8.55-5.53-12.79-.65-1.47-2.84-.28-2.19,1.19,1.88,4.24,3.69,8.51,5.74,12.68C205.55,80.76,207.39,79.66,206.87,78.35Z" transform="translate(7.11)" fill="#ffaa5a"/>
              <path d="M204.47,58.13c-1-1.2-2.7.45-1.74,1.65a95.25,95.25,0,0,1,13.88,24.83c.46,1.2,2.53.42,2.13-.81A80.68,80.68,0,0,0,204.47,58.13Z" transform="translate(7.11)" fill="#ffaa5a"/>
              <path d="M224.77,71.86a31.76,31.76,0,0,0-7.25-10.36c-1.12-1.09-2.89.57-1.76,1.67a35.18,35.18,0,0,1,7,9.76C223.45,74.24,225.34,73.16,224.77,71.86Z" transform="translate(7.11)" fill="#ffaa5a"/>
            </g>
            <g>
              <path d="M113.09,63.89c-4.15,5.37-8.38,11.11-11.2,17.32A1.22,1.22,0,0,0,104,82.44c3.6-5.79,6.87-11.63,11-17.07C115.85,64.27,113.94,62.79,113.09,63.89Z" transform="translate(7.11)" fill="#ffaa5a"/>
              <path d="M114.6,70.38a83.74,83.74,0,0,0-9,15.67c-.52,1.27,1.54,2.08,2.2.92,3-5.17,5.71-10.36,9.13-15.25C117.85,70.32,115.56,69,114.6,70.38Z" transform="translate(7.11)" fill="#ffaa5a"/>
              <path d="M125,58c-5.07,8.4-9.61,17.63-11.93,27.21a1.24,1.24,0,0,0,2.39.66c3.32-9.22,6.77-18.1,11.79-26.55A1.31,1.31,0,0,0,125,58Z" transform="translate(7.11)" fill="#ffaa5a"/>
              <path d="M127.6,67.32c-1.94,4.61-4.15,9.18-5.79,13.91a1.23,1.23,0,0,0,2.23.94c2.2-4.36,3.91-9,5.82-13.53C130.5,67.11,128.26,65.78,127.6,67.32Z" transform="translate(7.11)" fill="#ffaa5a"/>
              <path d="M132.39,72.86c-.71,3.06-1.54,6.12-2,9.23a1.27,1.27,0,0,0,2.44.67c1-3,1.59-6.09,2.31-9.15C135.56,71.83,132.81,71.07,132.39,72.86Z" transform="translate(7.11)" fill="#ffaa5a"/>
            </g>
          </g>
        </g>
        <g>
          <g>
            <path d="M143.37,135.77c-.44-3.87-1.09-7.67-1.23-11.57a1.23,1.23,0,0,0-2.45,0A48,48,0,0,0,141,136.07C141.38,137.31,143.53,137.15,143.37,135.77Z" transform="translate(7.11)" fill="#f7d36d"/>
            <path d="M152,130.07a19.24,19.24,0,0,1-2.68-5.95,1.27,1.27,0,0,0-2.44.68,18.2,18.2,0,0,0,3.33,6.65C151,132.46,152.68,131.14,152,130.07Z" transform="translate(7.11)" fill="#f7d36d"/>
            <path d="M165.37,141.55c-1.94-8.39-6.2-16.4-11.23-23.33-1-1.33-3.19,0-2.22,1.3,5,7,8.32,14.56,11.11,22.68A1.21,1.21,0,0,0,165.37,141.55Z" transform="translate(7.11)" fill="#f7d36d"/>
            <path d="M172.43,135.57c-2.15-4.27-4.83-8.32-7.29-12.42a1.45,1.45,0,0,0-2.5,1.47c2.47,4.09,4.8,8.35,7.58,12.25A1.28,1.28,0,0,0,172.43,135.57Z" transform="translate(7.11)" fill="#f7d36d"/>
          </g>
          <g>
            <path d="M47.43,118.76c-5,4.6-10.12,9.56-13.94,15.2a1.22,1.22,0,0,0,1.87,1.57c4.51-5.1,8.72-10.31,13.72-15C50.08,119.61,48.45,117.82,47.43,118.76Z" transform="translate(7.11)" fill="#f7d36d"/>
            <path d="M52.26,121.8a83.85,83.85,0,0,0-9,15.66c-.53,1.27,1.53,2.08,2.19.93,3-5.17,5.71-10.36,9.13-15.26C55.52,121.73,53.23,120.41,52.26,121.8Z" transform="translate(7.11)" fill="#f7d36d"/>
            <path d="M60.9,117.69c-5.07,8.39-9.61,17.63-11.93,27.2a1.25,1.25,0,0,0,2.4.66c3.31-9.21,6.77-18.09,11.79-26.55A1.31,1.31,0,0,0,60.9,117.69Z" transform="translate(7.11)" fill="#f7d36d"/>
            <path d="M66.1,118.57c-1.33,4.82-2.91,9.65-3.91,14.55a1.22,1.22,0,0,0,2.33.64c1.61-4.62,2.69-9.47,4-14.18C68.94,118,66.54,117,66.1,118.57Z" transform="translate(7.11)" fill="#f7d36d"/>
            <path d="M70.58,121.22c-.71,3.07-1.54,6.13-2,9.24a1.26,1.26,0,0,0,2.43.67c1-3,1.59-6.09,2.32-9.15C73.75,120.2,71,119.44,70.58,121.22Z" transform="translate(7.11)" fill="#f7d36d"/>
          </g>
          <g>
            <path d="M42,162.14c-5.4,4.12-11,8.58-15.3,13.85-1,1.19.55,2.82,1.72,1.72,5-4.65,9.64-9.45,15.05-13.64C44.51,163.23,43.05,161.3,42,162.14Z" transform="translate(7.11)" fill="#ffaa5a"/>
            <path d="M43.37,166.14a83.93,83.93,0,0,0-9,15.66c-.53,1.28,1.53,2.08,2.19.93,3-5.17,5.71-10.36,9.13-15.26C46.63,166.08,44.34,164.76,43.37,166.14Z" transform="translate(7.11)" fill="#ffaa5a"/>
            <path d="M47,168.56C45.62,173.38,44,178.2,43,183.11a1.22,1.22,0,0,0,2.32.63c1.61-4.61,2.7-9.46,4-14.17C49.79,168,47.39,166.94,47,168.56Z" transform="translate(7.11)" fill="#ffaa5a"/>
          </g>
          <g>
            <path d="M231.46,122.92a83.85,83.85,0,0,1,9,15.66c.53,1.27-1.53,2.08-2.19.92-3-5.17-5.71-10.36-9.13-15.25C228.2,122.85,230.49,121.53,231.46,122.92Z" transform="translate(7.11)" fill="#ffaa5a"/>
            <path d="M222.79,123.06c5.07,8.39,9.61,17.62,11.93,27.2a1.24,1.24,0,0,1-2.39.66c-3.32-9.22-6.77-18.09-11.79-26.55A1.3,1.3,0,0,1,222.79,123.06Z" transform="translate(7.11)" fill="#ffaa5a"/>
            <path d="M216.71,125.71c1.32,4.82,2.91,9.65,3.91,14.55a1.22,1.22,0,0,1-2.33.64c-1.61-4.61-2.69-9.47-4-14.18C213.86,125.12,216.26,124.1,216.71,125.71Z" transform="translate(7.11)" fill="#ffaa5a"/>
            <path d="M207.38,126.3c.72,3.06,1.55,6.12,2,9.23a1.27,1.27,0,0,1-2.44.68c-1-3-1.59-6.1-2.31-9.15C204.22,125.27,207,124.51,207.38,126.3Z" transform="translate(7.11)" fill="#ffaa5a"/>
          </g>
        </g>
      </g>
    </g>
  </g>
</svg>
