<svg xmlns="http://www.w3.org/2000/svg" width="153.99" height="116.19" viewBox="0 0 153.99 116.19">
  <g id="Layer_2" data-name="Layer 2">
    <g id="Layer_1-2" data-name="Layer 1">
      <g id="fu_fence">
        <path d="M139,21.33V8.68H115.22V21.33a8.5,8.5,0,0,0,4.69,7.59,9,9,0,0,0,1.28,12.3,8.53,8.53,0,0,0-6,8.13v56.83a8.52,8.52,0,0,0,8.52,8.51h6.77a8.52,8.52,0,0,0,8.52-8.51V49.35a8.53,8.53,0,0,0-6-8.13,9,9,0,0,0,1.28-12.3A8.5,8.5,0,0,0,139,21.33Z" fill="#f1f2f2" stroke="#a7bfee" stroke-miterlimit="10" stroke-width="3"/>
        <path d="M91.73,21.33V8.68H67.92V21.33a8.5,8.5,0,0,0,4.69,7.59,9,9,0,0,0,1.28,12.3,8.53,8.53,0,0,0-6,8.13v56.83a8.52,8.52,0,0,0,8.52,8.51h6.77a8.52,8.52,0,0,0,8.52-8.51V49.35a8.53,8.53,0,0,0-6-8.13A9,9,0,0,0,87,28.92,8.5,8.5,0,0,0,91.73,21.33Z" fill="#f1f2f2" stroke="#a7bfee" stroke-miterlimit="10" stroke-width="3"/>
        <path d="M44.43,21.33V8.68H20.62V21.33a8.5,8.5,0,0,0,4.69,7.59,9,9,0,0,0,1.28,12.3,8.53,8.53,0,0,0-6,8.13v56.83a8.52,8.52,0,0,0,8.52,8.51h6.77a8.52,8.52,0,0,0,8.52-8.51V49.35a8.53,8.53,0,0,0-6-8.13,9,9,0,0,0,1.28-12.3A8.5,8.5,0,0,0,44.43,21.33Z" fill="#f1f2f2" stroke="#a7bfee" stroke-miterlimit="10" stroke-width="3"/>
        <rect x="0.98" y="0.98" width="152.02" height="12.21" rx="6.1" fill="#f1f2f2" stroke="#a7bfee" stroke-miterlimit="10" stroke-width="1.97"/>
      </g>
    </g>
  </g>
</svg>
