<svg xmlns="http://www.w3.org/2000/svg" viewBox="0 0 76.8 113"><g id="Layer_2" data-name="Layer 2"><g id="Layer_1-2" data-name="Layer 1"><g id="to_robe"><path d="M31.6,26.4l.4-.6h0c.1-.2.2-.3.2-.4,2.2-3.7.2-6.6-1.3-8a5.6,5.6,0,0,0-1.3-1,8.1,8.1,0,0,0-3.9,7.3h0c0,.3.1.6.1.9C26.5,27.8,29.1,29.6,31.6,26.4Z" style="fill:#dfe590;stroke:#c3bf4f;stroke-miterlimit:10"/><path d="M54.8,83.9h.4a3.5,3.5,0,0,0,1.6-.6c1.1-.9,1.9-2.5,1.1-3.6h-.1c-.1-.3-.4-.5-.8-.7l-.9-.3-.9-.2c-2.6-.2-4.4,1.7-5.2,2.8l-.4.6A11.7,11.7,0,0,0,54.8,83.9Z" style="fill:#dfe590;stroke:#c3bf4f;stroke-miterlimit:10"/><path d="M47.6,88.2l7.2.7a9.5,9.5,0,0,0,2.3-1.1c1.3-1,2.2-2.5-.3-4.5l-.6-.5-1.3-.7c-2-1.2-3.7-1.3-4.9-.8a5.2,5.2,0,0,0-3,3.5C46.3,87.2,47.6,88.2,47.6,88.2Z" style="fill:#dfe590;stroke:#c3bf4f;stroke-miterlimit:10"/><path d="M59.9,112.5h-.3a7.2,7.2,0,0,1-1.8-2.9,2.1,2.1,0,0,1-.4.6c-.1.2-.2.3-.4.3a.1.1,0,0,1-.1-.1.4.4,0,0,1-.4-.4,15.4,15.4,0,0,0-.3-1.6h-.1a10.4,10.4,0,0,0-.3,2.3c.1.1,0,.3-.1.4h-.5c-.2-.1-1.2-.5-1.3-2.8a8.9,8.9,0,0,0-.6,2c0,.2-.2.3-.4.4h-.1l-.4-.2a6.2,6.2,0,0,1-.8-1.8h0a6.6,6.6,0,0,1,0-2h-.5c-.2,0-.3-.3-.2-.5v-.3l-.5.6-.4.2h-.2a.7.7,0,0,1-.3-.6,10.2,10.2,0,0,1,.4-1.6l.3-.6-1,.3H47.7c-.3,0-.4-.2-.5-.4a.4.4,0,0,1,.2-.5l1.1-.9h-.6l-1.2-.3c-.2-.1-.3-.2-.3-.4s0-.4.2-.5l1.6-1.1h-.7a.5.5,0,0,1-.3-.5.4.4,0,0,1,.2-.5,17.7,17.7,0,0,0,4.1-3.1l1.1-1.5.5-.2h.2l11,6.6a.4.4,0,0,1,.2.6,14.7,14.7,0,0,0-.4,1.6,11.5,11.5,0,0,0,.1,5.2c.1.2,0,.4-.2.6h-.6a2.4,2.4,0,0,1-.8-.8.3.3,0,0,1-.3.3h-.1l-.4-.2c0-.1-.1-.1-.1-.2a7.1,7.1,0,0,0,.3,2.3.7.7,0,0,1-.1.6h-.5a2.5,2.5,0,0,1-1.2-.9h0l-.4-.6a9,9,0,0,0,.6,2.2.5.5,0,0,1-.2.6Z" style="fill:#dfe590"/><path d="M53.1,94.9l11,6.5a6.9,6.9,0,0,0-.5,1.7,12.4,12.4,0,0,0,.1,5.4,5,5,0,0,1-.8-.8h0l-.4-.8-.2.6h0a4.3,4.3,0,0,1-.1.5,5.5,5.5,0,0,1-1-2.5,20.6,20.6,0,0,0,.3,5.2,2,2,0,0,1-.9-.7h0a5.4,5.4,0,0,1-1-3.5,5.2,5.2,0,0,0-.3,1.9h0a8.9,8.9,0,0,0,.6,3.6,7.6,7.6,0,0,1-1.7-2.9h0a5.8,5.8,0,0,1-.4-1.9,5.5,5.5,0,0,1-.8,2.7,8.1,8.1,0,0,0-.4-1.7A2.3,2.3,0,0,0,56,107a10.2,10.2,0,0,0-.6,3.6s-1-.4-1-2.7a16.2,16.2,0,0,1,.1-2.1v-.2a25.9,25.9,0,0,0-1.7,4.6,3.9,3.9,0,0,1-.7-1.6h0a5.1,5.1,0,0,1,.8-3.7,7.6,7.6,0,0,0-1.6,1.4,6.2,6.2,0,0,1,.9-2.3,14,14,0,0,0-2.2,2.2,8,8,0,0,1,.4-1.5,8.9,8.9,0,0,1,.8-1.7,7.2,7.2,0,0,1-2.1.7H47.7l2.4-2h0a7.3,7.3,0,0,1-1.5.2h-.7l-1-.3s2.2-1.4,3.3-2.3h-.1l-1.2.3H47.7a15.6,15.6,0,0,0,4.1-3.3,9.3,9.3,0,0,0,1.3-1.5m0-1a1,1,0,0,0-.9.4l-1.1,1.5a17.9,17.9,0,0,1-3.9,3,.9.9,0,0,0-.5,1,.6.6,0,0,0,.3.6l-.7.5a.9.9,0,0,0-.4.9,1,1,0,0,0,.7.9l.6.2h-.1a.9.9,0,0,0-.4,1.1,1.3,1.3,0,0,0,.9.7h1.8A8.3,8.3,0,0,0,49,106a1,1,0,0,0,.6,1.1H50l.6-.2.3.2H51c0,.6.1,1.1.1,1.6h0a4.7,4.7,0,0,0,1,2,.8.8,0,0,0,.7.4h.3a1.2,1.2,0,0,0,.7-.7h0a2.5,2.5,0,0,0,1.2,1.3h.4a.7.7,0,0,0,.6-.2,1.2,1.2,0,0,0,.4-.8l.4.2H57a.9.9,0,0,0,.7-.3,5.3,5.3,0,0,0,1.6,2.1.9.9,0,0,0,.6.3l.6-.2a1,1,0,0,0,.4-1.2l-.2-.3.5.3h.3a1.1,1.1,0,0,0,.8-.3,1.2,1.2,0,0,0,.2-1c-.1-.4-.2-.8-.3-1.4h.4c.3.3.5.4.5.5h1.2a1.2,1.2,0,0,0,.4-1.1,10.6,10.6,0,0,1-.1-5c.2-.9.4-1.5.4-1.5a1.1,1.1,0,0,0-.4-1.3L53.6,94Z" style="fill:#c3bf4f"/><path d="M6.7,16H6.5a.3.3,0,0,1-.3-.3,3,3,0,0,0-.7-1A29.3,29.3,0,0,0,.9,10.9c-.2-.1-.2-.3-.2-.6s.2-.3.4-.3H2.5l.5.2A12.3,12.3,0,0,0,.7,7.9C.5,7.8.5,7.6.5,7.4A.7.7,0,0,1,1,7h.1a6.9,6.9,0,0,1,2.7.9h0L2.6,6.5a.7.7,0,0,1-.1-.6A.5.5,0,0,1,3,5.6h.1L4.2,6,2.6,4.6c-.2-.2-.3-.4-.2-.6s.2-.3.4-.3H3.9A7.7,7.7,0,0,1,7,5.4,21.8,21.8,0,0,0,5.1,3.2.4.4,0,0,1,5,2.7c0-.2.2-.3.4-.3h.3a4.4,4.4,0,0,1,2.4.7h0a6.3,6.3,0,0,1,1.2,1A3.7,3.7,0,0,0,8.8,3a.7.7,0,0,1,.1-.6h.5a2.8,2.8,0,0,1,1.2.4h0a3.9,3.9,0,0,1,1,.8,4.9,4.9,0,0,1,.1-1.3,1.9,1.9,0,0,0,.2-1.1.4.4,0,0,1,0-.6h.7a2.5,2.5,0,0,1,1,1.2h0a5.4,5.4,0,0,1,.5,1.1,11,11,0,0,1,.6-1.2h.5c.2,0,.3.2.4.3a11.6,11.6,0,0,1,.3,1.6H16a5.4,5.4,0,0,1,.9-.7h.5a.7.7,0,0,1,.2.6c-.7,1.7,0,4.1.5,5.4l.4,1.2a.6.6,0,0,1,.1.4l-.3.3L6.9,15.9Z" style="fill:#dfe590"/><path d="M12.3,1a2,2,0,0,1,.9,1.1h0a13.3,13.3,0,0,1,.9,2.7q.2-.9.3-1.5a8.6,8.6,0,0,1,.7-1.2c.1.4.3,1.5.5,2.2h0a1.2,1.2,0,0,0,.1.5,3,3,0,0,1,.7-1.1h0a2.1,2.1,0,0,1,.7-.5c-.7,1.8,0,4.3.5,5.8l.5,1.2L6.7,15.5a2.8,2.8,0,0,0-.8-1.2,29.7,29.7,0,0,0-4.7-3.8H2.4a4.8,4.8,0,0,1,1.7.7c0-.2-.1-.3-.1-.4A12.7,12.7,0,0,0,1,7.5h.1a7.9,7.9,0,0,1,2.5.8l1.7.9h0A16.4,16.4,0,0,0,3,6.1l1,.4H4A20.2,20.2,0,0,1,6.2,7.6h0C5.8,6.6,2.9,4.2,2.9,4.2h.8c2.5.5,4.9,3.3,5,3.5C8.4,5.6,5.4,2.9,5.4,2.9h.3a4.4,4.4,0,0,1,2.2.7h0a8.9,8.9,0,0,1,2.5,2.6h0c.1-.9-1.1-3.4-1.1-3.4a1.8,1.8,0,0,1,1,.4h0a4.6,4.6,0,0,1,1.8,2.6V5.2h0a8.2,8.2,0,0,1,.1-2.7c.3-1.1.1-1.4.1-1.4m0-1a.9.9,0,0,0-.7.3.9.9,0,0,0-.2,1.1,2.6,2.6,0,0,1-.1.7.9.9,0,0,0-.1.5l-.3-.3h-.1a2.9,2.9,0,0,0-1.3-.5H9.3a1.1,1.1,0,0,0-.8.3,1.7,1.7,0,0,0-.2.5,5.1,5.1,0,0,0-2.6-.7H5.4a1,1,0,0,0-.9.7.8.8,0,0,0,.1.8H2.8a1.1,1.1,0,0,0-.9.7A1,1,0,0,0,2.3,5l.3.2a1.2,1.2,0,0,0-.5.5.9.9,0,0,0,0,1l-1-.2H.9a1.4,1.4,0,0,0-.9.8,1,1,0,0,0,.4,1L1.7,9.5H1.1a1,1,0,0,0-.9.7,1.1,1.1,0,0,0,.4,1.1,23.2,23.2,0,0,1,4.6,3.6,3,3,0,0,1,.5.8,1.8,1.8,0,0,0,.5.7h.9l11.4-5.3a.8.8,0,0,0,.5-.5,1.1,1.1,0,0,0,0-.8l-.5-1.1c-.7-2.2-.9-4-.5-5.2a.8.8,0,0,0-.2-1,1.1,1.1,0,0,0-.7-.3h-.4l-.4.2a2.3,2.3,0,0,1-.2-.7,1.1,1.1,0,0,0-.8-.7h-.2a.9.9,0,0,0-.7.3l-.3.3h0a.1.1,0,0,0-.1-.1A3,3,0,0,0,12.8.2L12.3,0Z" style="fill:#c3bf4f"/><path d="M69.2,86.3a10.8,10.8,0,0,0,3.3,0v-.8a3,3,0,0,0-2.4-2.3,7,7,0,0,0-1.6,0s-2,1.2-.8,2.5l.2.2A2.8,2.8,0,0,0,69.2,86.3Z" style="fill:#dfe590;stroke:#c3bf4f;stroke-miterlimit:10"/><path d="M74.1,95.3A5.5,5.5,0,0,0,75,94a5.9,5.9,0,0,0-.1-6.3,8,8,0,0,0-2.4-2.2,7.9,7.9,0,0,0-2.8-.6,4.9,4.9,0,0,0-1.4.2,2,2,0,0,0-.4.8,3.1,3.1,0,0,0-.1,1h0a8.4,8.4,0,0,0,1.6,3.5,13.7,13.7,0,0,0,1.9,2.2A26.2,26.2,0,0,0,74.1,95.3Z" style="fill:#dfe590;stroke:#c3bf4f;stroke-miterlimit:10"/><path d="M68.4,101.8c1.4.2,3.4-.3,5.6-3.5A4.5,4.5,0,0,0,75,94c-.6-1.9-2.6-3.1-3.9-3.8l-1.3-.5-.4.8c-.3.9-.8,2.4-1.2,4s-.6,2.2-.8,3.2-.8,3.3-.8,3.3A3.2,3.2,0,0,0,68.4,101.8Z" style="fill:#dfe590;stroke:#c3bf4f;stroke-miterlimit:10"/><path d="M68.4,101.9h0c2.9-2.3,2.2-4.8,1.4-6.2a5.3,5.3,0,0,0-1.1-1.4l-.5.3-3.4,2.9-1.3,1.2-1.6,1.5a6.4,6.4,0,0,0,1.5,2.3C64.5,103.3,66.1,103.7,68.4,101.9Z" style="fill:#dfe590;stroke:#c3bf4f;stroke-miterlimit:10"/><path d="M62.7,102.6l.7-.2a2.8,2.8,0,0,0,1.9-3.8,3.3,3.3,0,0,0-.5-1.2,3.2,3.2,0,0,0-.2-.6c-1.8-.4-8.1,1.1-8.1,1.1a9,9,0,0,0,.7,2C58.1,101.5,59.8,103.3,62.7,102.6Z" style="fill:#dfe590;stroke:#c3bf4f;stroke-miterlimit:10"/><path d="M68.4,86.6s5,4.3.7,8.8-5,3.4-8,2.2S65.2,85.2,68.4,86.6Z" style="fill:#dfe590;stroke:#c3bf4f;stroke-miterlimit:10"/><path d="M20.4,31.6l1-.8c2.4-2.5-1.3-3.8-4.1-4.4L15.1,26h-.4l-6.8.3.4.9a13.4,13.4,0,0,0,1.6,2.2C11.1,30.5,16.7,33.9,20.4,31.6Z" style="fill:#dfe590;stroke:#c3bf4f;stroke-miterlimit:10"/><path d="M16,28.1l.4-.2.3-.2a1.4,1.4,0,0,0,.6-1.3,2.3,2.3,0,0,0-.2-1.1,9.3,9.3,0,0,0-1-2,.1.1,0,0,0-.1-.1l-1-1.4-.9-1.1-7.9-3-.6,1a6,6,0,0,0,.2,6.1,7.9,7.9,0,0,0,2.5,2.3A10.3,10.3,0,0,0,16,28.1Z" style="fill:#dfe590;stroke:#c3bf4f;stroke-miterlimit:10"/><path d="M12.7,24.4a1.4,1.4,0,0,0,1.7-.6.1.1,0,0,0,.1-.1,3.6,3.6,0,0,0,.5-1.9v-.6a19.5,19.5,0,0,0-.5-2.9L13.9,16a4.2,4.2,0,0,1-.4-1c-.7-1.8-1.7-3.3-3.1-3.6l-1,.3a6.4,6.4,0,0,0-4,5.4,4.1,4.1,0,0,0,.2,1.6C6.4,22.3,10.5,23.9,12.7,24.4Z" style="fill:#dfe590;stroke:#c3bf4f;stroke-miterlimit:10"/><path d="M13.5,19.2c.4.2.7-.2,1-.9a12.2,12.2,0,0,0,.5-1.7c.2-1,.3-2.2.4-3.2s.2-3.2.2-3.2l-.7-.3a4.1,4.1,0,0,0-5.4,1.7H9.4c-1.5,2.8.8,5.4,2.6,6.7A5.6,5.6,0,0,0,13.5,19.2Z" style="fill:#dfe590;stroke:#c3bf4f;stroke-miterlimit:10"/><path d="M16.5,18.4l5-6-.7-.8c-1.1-1.2-3.4-3.1-5.9-1.7l-.4.3c-1.5,1.1-1.3,2.8-.7,4.4a13.2,13.2,0,0,0,1.2,2A9.2,9.2,0,0,0,16.5,18.4Z" style="fill:#dfe590;stroke:#c3bf4f;stroke-miterlimit:10"/><path d="M20,30.2h.3l2.6-6.8s-3.8-1.4-6.9-.3h-.2a4.8,4.8,0,0,0-.4,1.4,4.2,4.2,0,0,0,1,3.3A8.9,8.9,0,0,0,20,30.2Z" style="fill:#dfe590;stroke:#c3bf4f;stroke-miterlimit:10"/><path d="M22.2,32c1.9.1,12.1-3,12.1-3s-.4-2.9-2.3-3.2h0c-1.7-.4-4.2-.2-5.5-1.3L26,24c-.1-.1-.2-.3-.3-.3s-1.8-.4-2.8-.1l-1.8.7a3.2,3.2,0,0,0-1.3,1.5,4,4,0,0,0-.4,1.3,5.7,5.7,0,0,0,.6,3.1A2.7,2.7,0,0,0,22.2,32Z" style="fill:#dfe590;stroke:#c3bf4f;stroke-miterlimit:10"/><path d="M19.4,13.3a3.1,3.1,0,0,0-3,0c-1.9.9-4.6,3.3-3.9,6.8s4.1,4.9,4.7,4.3S20.6,13.6,19.4,13.3Z" style="fill:#dfe590;stroke:#c3bf4f;stroke-miterlimit:10"/><path d="M25.4,14.3s-.9-2.8-3.2-2.5-3.5,1.4-4.3,3.8-1.3,8-1.8,8.8,3.7,1.9,5-.1S25.6,19.9,25.4,14.3Z" style="fill:#dfe590;stroke:#c3bf4f;stroke-miterlimit:10"/><path d="M30.5,16.3c.5.9.5,4-1.6,6.2s-7.8,1.8-7.8,1.8,3.2-10.7,4-10.6A5.4,5.4,0,0,1,30.5,16.3Z" style="fill:#dfe590;stroke:#c3bf4f;stroke-miterlimit:10"/><path d="M28.5,38.3s12.1-.8,14.1-3.7c0,0-.1-3.9-2.4-5a11.6,11.6,0,0,0-4.1-1.3,13.1,13.1,0,0,0-2.8,0c-1.5.4-9.2,3.4-10.8,3.7h-.3s-.9,1,.1,2.9S27.4,38.4,28.5,38.3Z" style="fill:#dfe590;stroke:#c3bf4f;stroke-miterlimit:10"/><path d="M35.9,44.4c1.4.2,13.2-.3,14.6-3.3,0,0-.4-3.4-1.7-4.5a11.9,11.9,0,0,0-5.5-2.1h0a10.9,10.9,0,0,0-3.6-.1c-3.5.5-9.8,3.3-11.1,3.9h-.1a4.6,4.6,0,0,0,.9,3.2C30.5,42.6,34.5,44.1,35.9,44.4Z" style="fill:#dfe590;stroke:#c3bf4f;stroke-miterlimit:10"/><path d="M42.3,50c2.8.3,15.2.5,15.2.5s.5-2.1-.8-4.9a10.9,10.9,0,0,0-2.9-3.7,5.3,5.3,0,0,0-3-1.2,30.5,30.5,0,0,0-9.6.9c-2.5.8-6.1,2.2-7.1,2.3a12.5,12.5,0,0,1,1.7,1.9C36.4,46.6,39.6,49.8,42.3,50Z" style="fill:#dfe590;stroke:#c3bf4f;stroke-miterlimit:10"/><path d="M49.6,56.8c3.6,1.4,13.8,2.9,13.8,2.9a7,7,0,0,0,.1-4.6,8.5,8.5,0,0,0-2.6-4l-1.8-1.3c-1.1-.7-7-1.5-8.7-1.4l-9.5,1.1h-.3L43,52.3A17.2,17.2,0,0,0,49.6,56.8Z" style="fill:#dfe590;stroke:#c3bf4f;stroke-miterlimit:10"/><path d="M65.8,69.4a5.5,5.5,0,0,0,1.9-5.1,4.5,4.5,0,0,0-1.2-2.9c-1.4-1.9-4-3.2-5.8-3.9s-10.3-1.6-12.6-1.4a26.4,26.4,0,0,1,1.1,2.5c.4,1,3,5,4.9,6.3S65.8,69.4,65.8,69.4Z" style="fill:#dfe590;stroke:#c3bf4f;stroke-miterlimit:10"/><path d="M68,78.8a3.7,3.7,0,0,0,1-2.5,10.7,10.7,0,0,0-1-5.6,6.1,6.1,0,0,0-3.1-2.8c-4.3-1.9-11-3.5-12-4a9.4,9.4,0,0,0,1.5,6.6C56.6,73.9,68,78.8,68,78.8Z" style="fill:#dfe590;stroke:#c3bf4f;stroke-miterlimit:10"/><path d="M68.4,86.6s1.9-4.1,1-6.7a1.4,1.4,0,0,0-.2-.6c-1.5-2.6-4-2.6-8.9-5.1s-5.7-3.5-5.9-3.7h0c-.1.2-.6,5.7,1.5,7.9S60,86.3,68.4,86.6Z" style="fill:#dfe590;stroke:#c3bf4f;stroke-miterlimit:10"/><path d="M67.1,90.2s1.6-2,1.3-3.6h0c-.3-1.6-5.8-3.1-6.9-4.1s-5.1-3.7-5.6-4.1h0s-1.3,4.1.7,7.5a3.5,3.5,0,0,0,.5.8C59.7,90.2,63.8,91.8,67.1,90.2Z" style="fill:#dfe590;stroke:#c3bf4f;stroke-miterlimit:10"/><path d="M59.7,88.6s3.4-.4,4.3,0a26.7,26.7,0,0,1,3.1,1.6s-2.8,6.6-5.6,8.3a6.3,6.3,0,0,1-5.9.7c-.9-.4-4.3-2.7-4-4.3S59.7,88.6,59.7,88.6Z" style="fill:#dfe590;stroke:#c3bf4f;stroke-miterlimit:10"/><path d="M52.8,87.2c2.2-.5,4.1-1.3,5.2-.9s3.2.7,1.9,3.6a9.6,9.6,0,0,1-6.2,5.4c-2.5.6-3.6.2-5.1-2a8.9,8.9,0,0,1-1.1-5.1Z" style="fill:#dfe590;stroke:#c3bf4f;stroke-miterlimit:10"/><path d="M12.3,1a2,2,0,0,1,.9,1.1h0a13.3,13.3,0,0,1,.9,2.7q.2-.9.3-1.5a8.6,8.6,0,0,1,.7-1.2c.1.4.3,1.5.5,2.2h0a1.2,1.2,0,0,0,.1.5,3,3,0,0,1,.7-1.1h0a2.1,2.1,0,0,1,.7-.5c-.7,1.8,0,4.3.5,5.8a1.4,1.4,0,0,1,.2.6,6.1,6.1,0,0,1,3,2l.3.4,1.1-.2h.3a3.1,3.1,0,0,1,2.6,2,5.4,5.4,0,0,1,5.4,2.6,2.5,2.5,0,0,1,.2,1h.2c1.5,1.4,3.5,4.3,1.3,8,0,.1-.1.2-.2.4a2.9,2.9,0,0,1,2.1,2.4h2a11.6,11.6,0,0,1,4.1,1.3c2,1,2.4,4,2.4,4.8h.7a11.9,11.9,0,0,1,5.5,2.1c1.1.9,1.5,3.2,1.7,4.1h.3a5.3,5.3,0,0,1,3,1.2,10.9,10.9,0,0,1,2.9,3.7,12.9,12.9,0,0,1,1,3.7,5.3,5.3,0,0,1,1.4.5l1.8,1.3a8.5,8.5,0,0,1,2.6,4,7,7,0,0,1,.1,3.8,10.1,10.1,0,0,1,2.9,2.5,4.5,4.5,0,0,1,1.2,2.9,6,6,0,0,1-1.3,4.5A7,7,0,0,1,68,70.7a10.7,10.7,0,0,1,1,5.6,4.7,4.7,0,0,1-.6,2,3.9,3.9,0,0,1,.8,1,1.4,1.4,0,0,1,.2.6,6.1,6.1,0,0,1,.1,3.3h.6a3,3,0,0,1,2.4,2.3,8,8,0,0,1,2.4,2.2A5.9,5.9,0,0,1,75,94a4.5,4.5,0,0,1-1,4.3c-2,2.8-3.8,3.6-5.1,3.6h-.5a5.3,5.3,0,0,1-3,1.3,3.2,3.2,0,0,1-1.7-.6c0,.2-.1.3-.1.5a12.4,12.4,0,0,0,.1,5.4,5,5,0,0,1-.8-.8h0l-.4-.8-.2.6h0a4.3,4.3,0,0,1-.1.5,5.5,5.5,0,0,1-1-2.5,20.6,20.6,0,0,0,.3,5.2,2,2,0,0,1-.9-.7h0a5.4,5.4,0,0,1-1-3.5,5.2,5.2,0,0,0-.3,1.9h0a8.9,8.9,0,0,0,.6,3.6,7.6,7.6,0,0,1-1.7-2.9h0a5.8,5.8,0,0,1-.4-1.9,5.5,5.5,0,0,1-.8,2.7,8.1,8.1,0,0,0-.4-1.7A2.3,2.3,0,0,0,56,107a10.2,10.2,0,0,0-.6,3.6s-1-.4-1-2.7a16.2,16.2,0,0,1,.1-2.1v-.2a25.9,25.9,0,0,0-1.7,4.6,3.9,3.9,0,0,1-.7-1.6h0a5.1,5.1,0,0,1,.8-3.7,7.6,7.6,0,0,0-1.6,1.4,6.2,6.2,0,0,1,.9-2.3,14,14,0,0,0-2.2,2.2,8,8,0,0,1,.4-1.5,8.9,8.9,0,0,1,.8-1.7,7.2,7.2,0,0,1-2.1.7H47.7l2.4-2h0a7.3,7.3,0,0,1-1.5.2h-.7l-1-.3s2.2-1.4,3.3-2.3h-.1l-1.2.3H47.7a15.6,15.6,0,0,0,4.1-3.3l.2-.2a1.6,1.6,0,0,1-.4-.7c-1.2-.1-2-.7-3-2.2a8.9,8.9,0,0,1-1.1-5.1h0a3.4,3.4,0,0,1-.5-3.4,5.2,5.2,0,0,1,3-3.5,6.2,6.2,0,0,1,4.8-2.8h1v-.2c-2.1-2.2-1.6-7.7-1.5-7.9h0a9.4,9.4,0,0,1-1.5-6.6,24.6,24.6,0,0,1-3.7-5.3,26.4,26.4,0,0,0-1.1-2.5h0A16,16,0,0,1,43,52.3l-2.4-2.8h0a14.9,14.9,0,0,1-4.8-3.7,12.5,12.5,0,0,0-1.7-1.9h0a15.8,15.8,0,0,1-4.7-2.3,4.6,4.6,0,0,1-.9-3.2h-.1c-1.1,0-5-1.6-6.1-3.4s-.1-2.9-.1-2.9h0a1.9,1.9,0,0,1-1.4-.7l-.4.3a5.2,5.2,0,0,1-3,.8,12.8,12.8,0,0,1-7.5-3.1,13.4,13.4,0,0,1-1.6-2.2,7.9,7.9,0,0,1-2.5-2.3,6,6,0,0,1-.2-6.1,4.1,4.1,0,0,1-.2-1.6,5.7,5.7,0,0,1,.8-2.5l-.3-.3a29.7,29.7,0,0,0-4.7-3.8H2.4a4.8,4.8,0,0,1,1.7.7c0-.2-.1-.3-.1-.4A12.7,12.7,0,0,0,1,7.5h.1a7.9,7.9,0,0,1,2.5.8l1.7.9h0A16.4,16.4,0,0,0,3,6.1l1,.4H4A20.2,20.2,0,0,1,6.2,7.6h0C5.8,6.6,2.9,4.2,2.9,4.2h.8c2.5.5,4.9,3.3,5,3.5C8.4,5.6,5.4,2.9,5.4,2.9h.3a4.4,4.4,0,0,1,2.2.7h0a8.9,8.9,0,0,1,2.5,2.6h0c.1-.9-1.1-3.4-1.1-3.4a1.8,1.8,0,0,1,1,.4h0a4.6,4.6,0,0,1,1.8,2.6V5.2h0a8.2,8.2,0,0,1,.1-2.7c.3-1.1.1-1.4.1-1.4m0-1a.9.9,0,0,0-.7.3.9.9,0,0,0-.2,1.1,2.6,2.6,0,0,1-.1.7.9.9,0,0,0-.1.5l-.3-.3h-.1a2.9,2.9,0,0,0-1.3-.5H9.3a1.1,1.1,0,0,0-.8.3,1.7,1.7,0,0,0-.2.5,5.1,5.1,0,0,0-2.6-.7H5.4a1,1,0,0,0-.9.7.8.8,0,0,0,.1.8H2.8a1.1,1.1,0,0,0-.9.7A1,1,0,0,0,2.3,5l.3.2a1.2,1.2,0,0,0-.5.5.9.9,0,0,0,0,1l-1-.2H.9a1.4,1.4,0,0,0-.9.8,1,1,0,0,0,.4,1L1.7,9.5H1.1a1,1,0,0,0-.9.7,1.1,1.1,0,0,0,.4,1.1A28.9,28.9,0,0,1,5,14.7,8.6,8.6,0,0,0,4.4,17a8.6,8.6,0,0,0,.1,1.6A7.1,7.1,0,0,0,5,25.3a7.8,7.8,0,0,0,2.6,2.5A10.2,10.2,0,0,0,9.2,30a13.7,13.7,0,0,0,8.2,3.4,7,7,0,0,0,3.3-.8h.2a3.4,3.4,0,0,0,.6,2.8c1,1.8,4.1,3.3,6,3.8a4.8,4.8,0,0,0,1.2,3c1.1,1.1,3.9,2.1,4.8,2.5A12.9,12.9,0,0,1,35,46.4a15.7,15.7,0,0,0,4.9,3.9c.4.4,1.6,1.7,2.3,2.6a16.8,16.8,0,0,0,5.2,4,22,22,0,0,1,.9,2.1,25.9,25.9,0,0,0,3.6,5.2,10.2,10.2,0,0,0,1.4,6.5c0,1.1-.2,4.4.9,6.8a7.4,7.4,0,0,0-4.8,3,6.9,6.9,0,0,0-3.4,4,4.7,4.7,0,0,0,.5,4,9.2,9.2,0,0,0,1.3,5.4,5.7,5.7,0,0,0,2.7,2.4,15.5,15.5,0,0,1-3.3,2.5.9.9,0,0,0-.5,1,.6.6,0,0,0,.3.6l-.7.5a.9.9,0,0,0-.4.9,1,1,0,0,0,.7.9l.6.2h-.1a.9.9,0,0,0-.4,1.1,1.3,1.3,0,0,0,.9.7h1.8A8.3,8.3,0,0,0,49,106a1,1,0,0,0,.6,1.1H50l.6-.2.3.2H51c0,.6.1,1.1.1,1.6h0a4.7,4.7,0,0,0,1,2,.8.8,0,0,0,.7.4h.3a1.2,1.2,0,0,0,.7-.7h0a2.5,2.5,0,0,0,1.2,1.3h.4a.7.7,0,0,0,.6-.2,1.2,1.2,0,0,0,.4-.8l.4.2H57a.9.9,0,0,0,.7-.3,5.3,5.3,0,0,0,1.6,2.1.9.9,0,0,0,.6.3l.6-.2a1,1,0,0,0,.4-1.2l-.2-.3.5.3h.3a1.1,1.1,0,0,0,.8-.3,1.2,1.2,0,0,0,.2-1c-.1-.4-.2-.8-.3-1.4h.4c.3.3.5.4.5.5h1.2a1.2,1.2,0,0,0,.4-1.1,12.9,12.9,0,0,1-.3-4.2h1a5.8,5.8,0,0,0,3.4-1.4h.1c2.1,0,4.1-1.4,6-4A5.8,5.8,0,0,0,76.1,94a6.8,6.8,0,0,0-.4-6.9,7.2,7.2,0,0,0-2.4-2.2,3.7,3.7,0,0,0-2.7-2.6,6.4,6.4,0,0,0-.2-2.8,2.5,2.5,0,0,0-.4-.7,1.6,1.6,0,0,0-.4-.7,4.8,4.8,0,0,0,.4-1.8,10.5,10.5,0,0,0-1.1-6,6.6,6.6,0,0,0-1.2-1.7,6.7,6.7,0,0,0,1-4.4,6.2,6.2,0,0,0-1.4-3.5,12.1,12.1,0,0,0-2.6-2.3,7.6,7.6,0,0,0-.2-3.6,9.6,9.6,0,0,0-3-4.4c-.8-.8-1.5-1.2-1.8-1.5l-1.1-.4a11.2,11.2,0,0,0-1-3.3,11.5,11.5,0,0,0-3.2-4.1,6.2,6.2,0,0,0-3.1-1.4,7.2,7.2,0,0,0-1.9-3.9,14.4,14.4,0,0,0-5.9-2.3c-.2-1.4-.8-3.9-2.8-4.8a13.3,13.3,0,0,0-4.4-1.4H34.8a4,4,0,0,0-1.4-1.9c1.5-2.9.8-6-1.7-8.5a3.6,3.6,0,0,0-.4-1.1,6,6,0,0,0-5.6-3,3.7,3.7,0,0,0-3.2-2h-1a8.1,8.1,0,0,0-2.9-2.1h-.1c-.7-2.2-.9-4-.5-5.2a.8.8,0,0,0-.2-1,1.1,1.1,0,0,0-.7-.3h-.4l-.4.2a2.3,2.3,0,0,1-.2-.7,1.1,1.1,0,0,0-.8-.7h-.2a.9.9,0,0,0-.7.3l-.3.3h0a.1.1,0,0,0-.1-.1A3,3,0,0,0,12.8.2L12.3,0Z" style="fill:#928e31"/></g></g></g></svg>