<svg xmlns="http://www.w3.org/2000/svg" width="62.45" height="29.66" viewBox="0 0 62.45 29.66">
  <g id="Layer_2" data-name="Layer 2">
    <g id="Layer_1-2" data-name="Layer 1">
      <g id="to_frisbee_2" data-name="to_frisbee 2">
        <g>
          <path d="M31.41,3C41,3,49.32,4.76,53.56,7.34,57.25,9,59.45,11,59.45,13.25a3.41,3.41,0,0,1-.05.55,4.21,4.21,0,0,1,.05.62c0,.11,0,.23,0,.35s0,.24,0,.37c0,6.36-12.64,11.52-28.23,11.52S3,21.5,3,15.14c0-.13,0-.25,0-.37s0-.24,0-.35a4.53,4.53,0,0,1,.46-1.95c.41-1.75,2.21-3.38,5-4.74,0,0,0,0,0,0l.79-.36C13.52,4.75,21.84,3,31.41,3m0-3C21.6,0,12.84,1.74,7.89,4.66L7.18,5c-.08,0-.17.09-.25.15C3.44,6.88,1.33,9,.63,11.47A7.39,7.39,0,0,0,0,14.42c0,.12,0,.23,0,.35s0,.25,0,.37c0,9.43,16.09,14.52,31.22,14.52s31.23-5.09,31.23-14.52c0-.12,0-.25,0-.37s0-.23,0-.35,0-.4,0-.61a5.4,5.4,0,0,0,0-.56c0-2.38-1.31-5.78-7.51-8.57C50,1.75,41.23,0,31.41,0Z" fill="#3b7e82"/>
          <ellipse cx="31.22" cy="15.14" rx="28.22" ry="11.52" fill="#72b75b"/>
          <path d="M59.45,13.25c0-5.32-12.56-9.63-28-9.63h-.19c-.88,0-1.76,0-2.62,0h-.07c-.25,0-.5,0-.74,0-13,.58-23.28,4.23-24.33,8.77A4.53,4.53,0,0,0,3,14.42c0,6,12.64,10.8,28.22,10.8s28.23-4.84,28.23-10.8a4.21,4.21,0,0,0-.05-.62A3.41,3.41,0,0,0,59.45,13.25Z" fill="#9be3bb"/>
          <path d="M31.41,3C21.84,3,13.52,4.75,9.28,7.33l-.79.36a8.87,8.87,0,0,0-1,.87,3.83,3.83,0,0,0-1.33,2.68,3.13,3.13,0,0,0,.49,1.63,4.36,4.36,0,0,0,.84,1,10.93,10.93,0,0,0,2.77,1.89,29.87,29.87,0,0,0,6.72,2.27,63.6,63.6,0,0,0,14.47,1.4c13.88,0,25.13-3.68,25.13-8.23S45.29,3,31.41,3Z" fill="#c6f4d8"/>
          <ellipse cx="31.73" cy="10.81" rx="17.24" ry="5.78" fill="#9be3bb"/>
          <g>
            <path d="M25.68,12.61a1.76,1.76,0,0,1,1.52-2.08,23.18,23.18,0,0,0,4.05-1.06,4.09,4.09,0,0,1,3,.19c.51.49.42,1.24,1.12,2.29s.92,1.74-.85,2.16-3.24-1.25-4.74-1.28S26.75,13.49,25.68,12.61Z" fill="#3b7e82"/>
            <path d="M37.24,11.52c-.87,0-1.49-.52-1.33-1a.52.52,0,0,1,.34-.34c.65-.27,2.15-1,3.16-.4C40.23,10.26,38.87,11.59,37.24,11.52Z" fill="#3b7e82"/>
            <path d="M31.82,8.31a2.13,2.13,0,0,1-2.22-.24.34.34,0,0,1-.11-.37c.2-.46.46-1.63,1.93-1.55A1.11,1.11,0,0,1,31.82,8.31Z" fill="#3b7e82"/>
            <path d="M28.43,9.18a2,2,0,0,1-2.1.35.56.56,0,0,1-.35-.3c-.15-.44-.74-1.52.59-1.82C27.63,7.17,29.06,8.34,28.43,9.18Z" fill="#3b7e82"/>
            <path d="M35.32,9a1.87,1.87,0,0,1-1.45-.52c-.5-.61,1.51-2.16,2.85-1.43S36.11,9,35.32,9Z" fill="#3b7e82"/>
          </g>
        </g>
      </g>
    </g>
  </g>
</svg>
