<svg xmlns="http://www.w3.org/2000/svg" width="87.23" height="30.46" viewBox="0 0 87.23 30.46">
  <g id="Layer_2" data-name="Layer 2">
    <g id="Layer_1-2" data-name="Layer 1">
      <g id="fu_plate">
        <ellipse cx="43.61" cy="16.47" rx="37.81" ry="11.18" fill="#9be3bb"/>
        <ellipse cx="43.61" cy="15.27" rx="41.24" ry="11.36" fill="#f3ebfc"/>
        <ellipse cx="43.61" cy="14.17" rx="41.24" ry="11.36" fill="#cbf4db"/>
        <ellipse cx="43.61" cy="15.35" rx="30.58" ry="7.88" fill="#9be3bb"/>
        <path d="M43.61,3C66,3,84.23,8,84.23,14.19a3.29,3.29,0,0,1,0,.54,3.29,3.29,0,0,1,0,.54c0,2.71-3.49,5.19-9.29,7.13-6.62,3-18.17,5.06-31.33,5.06s-24.7-2-31.32-5.06C6.49,20.46,3,18,3,15.27a3.29,3.29,0,0,1,0-.54,3.29,3.29,0,0,1,0-.54C3,8,21.18,3,43.61,3m0-3C22.61,0,0,4.44,0,14.19a4.89,4.89,0,0,0,0,.54,4.89,4.89,0,0,0,0,.54c0,4.08,3.76,7.42,11.19,9.92,7.28,3.3,19.38,5.27,32.42,5.27s25.14-2,32.43-5.27c7.42-2.5,11.19-5.84,11.19-9.92a4.89,4.89,0,0,0,0-.54,4.89,4.89,0,0,0,0-.54C87.23,4.44,64.62,0,43.61,0Z" fill="#72b75b"/>
      </g>
    </g>
  </g>
</svg>
