<svg xmlns="http://www.w3.org/2000/svg" viewBox="0 0 38.9 36.7"><g style="isolation:isolate"><g id="Layer_2" data-name="Layer 2"><g id="Layer_1-2" data-name="Layer 1"><g id="to_block_2" data-name="to_block 2"><path d="M3.7,35a2.2,2.2,0,0,1-2.2-2.2L1.7,3.7A2.2,2.2,0,0,1,3.9,1.5l31.3.2a2.2,2.2,0,0,1,2.2,2.2L37.2,33A2.2,2.2,0,0,1,35,35.2Z" style="fill:#98d9e4"/><path d="M3.9,3h0l31.3.2a.7.7,0,0,1,.7.7L35.7,33a.7.7,0,0,1-.7.7h0L3.7,33.5a.7.7,0,0,1-.7-.7L3.2,3.7A.7.7,0,0,1,3.9,3m0-3A3.6,3.6,0,0,0,.2,3.7L0,32.8a3.6,3.6,0,0,0,1.1,2.6,3.6,3.6,0,0,0,2.6,1.1l31.3.2A3.7,3.7,0,0,0,38.7,33l.2-29.1A3.8,3.8,0,0,0,35.2.2L3.9,0Z" style="fill:#3b7e82"/><path d="M19.5,14.5s4.4-5.9,7.7-4.6,2.3,17.2-.8,17.2-1.8-11.2-1.8-11.2-2.6,3.6-5.1,3.5-5-3.4-5-3.4,1.1,11-1.9,11S9.2,10.4,11.8,9.8,19.5,14.5,19.5,14.5Z" style="fill:#5576b4"/><path d="M35.9,3.9,35.7,33a.7.7,0,0,1-.7.7L3.7,33.5a.7.7,0,0,1-.7-.7v-.5C28.6,29.4,34.4,13.4,35,3.2h.2A.7.7,0,0,1,35.9,3.9Z" style="fill:#3581ba;opacity:0.5;mix-blend-mode:multiply"/></g></g></g></g></svg>