<svg xmlns="http://www.w3.org/2000/svg" viewBox="0 0 78.1 61.8"><g id="Layer_2" data-name="Layer 2"><g id="Layer_1-2" data-name="Layer 1"><g id="na_bushes_4" data-name="na_bushes 4"><path d="M62,52.2c4.9-3,9.7-7.6,6.8-13.1a7.1,7.1,0,0,0-2.1-2.6c1.8-3.8,2.4-7.5.1-9.9-7.4-7.6-17.2,2.1-17.2,2.1S63.4,15,52.5,13.2A9.9,9.9,0,0,0,42,17.4c2.5-7,4.1-17.1-9-15.2C23.5,3.7,22,9.3,22.9,14.7c-2.1-2.9-5-4.9-8.8-3.4C4.7,15,18.3,30.6,18.3,30.6S11,24.9,7.2,33.3a6,6,0,0,0,.2,4.9,5.8,5.8,0,0,0-1.9,3.3c-.6,2.8,5.4,7,9.9,9.7C8.7,52.1,1.6,53.3,2,54.1s13.3-1.5,14.3.9,31.5,6.2,30.6,3.5,20.1.2,20.5-3Q67.7,53.7,62,52.2Z" style="fill:#c3bf4f"/><path d="M51.9,45.3c3.5-2.2,6.9-5.5,4.9-9.4A4.4,4.4,0,0,0,55.2,34c1.4-2.8,1.8-5.4.1-7.2-5.3-5.4-12.4,1.6-12.4,1.6s10-9.9,2.1-11.2a7.1,7.1,0,0,0-7.6,3c1.8-5,3-12.3-6.5-10.9-6.8,1-7.9,5.1-7.2,9-1.6-2.2-3.7-3.6-6.4-2.5-6.8,2.7,3.1,13.9,3.1,13.9s-5.3-4.1-8.1,2a4,4,0,0,0,.2,3.5,4.5,4.5,0,0,0-1.4,2.4c-.4,2,3.9,5,7.1,7-4.8.6,0,1,.7,2.8S41.7,51.8,41,49.9s14.5.1,14.8-2.2S54.6,46,51.9,45.3Z" style="fill:#dfe590"/><path d="M36,2c9.8,0,8.2,9,6,15.4A9.9,9.9,0,0,1,50.3,13a8.6,8.6,0,0,1,2.2.2c10.9,1.8-2.9,15.5-2.9,15.5s5.1-5,10.7-5a9.1,9.1,0,0,1,6.5,2.9c2.3,2.4,1.7,6.1-.1,9.9a7.1,7.1,0,0,1,2.1,2.6c2.9,5.5-1.9,10.1-6.8,13.1q5.7,1.5,5.4,3.3c-.2,1.6-5.5,1.7-10.7,1.7H55.4c-4.7,0-8.9.1-8.5,1.3s-1.5.9-4.2.9c-8.2,0-25.6-2.5-26.4-4.4s-1.8-1-3.7-1-6.3.5-8.6.5-1.8-.1-2-.4,6.7-2,13.4-2.9c-4.5-2.7-10.5-6.9-9.9-9.7a5.8,5.8,0,0,1,1.9-3.3,6,6,0,0,1-.2-4.9c1.6-3.6,3.9-4.6,5.9-4.6a9.5,9.5,0,0,1,5.2,1.9S4.7,15,14.1,11.3a5.9,5.9,0,0,1,2.5-.5c2.6,0,4.7,1.6,6.3,3.9C22,9.3,23.5,3.7,33,2.2L36,2m0-2h0L32.7.3C28,1,24.6,2.7,22.6,5.5A11.2,11.2,0,0,0,20.8,10a7.9,7.9,0,0,0-4.2-1.2,9.5,9.5,0,0,0-3.2.6A6.9,6.9,0,0,0,9,14.2c-.9,3.9,1.5,8.8,3.9,12.5-2.3.1-5.4,1.1-7.5,5.8a7.7,7.7,0,0,0-.3,5.2,8.2,8.2,0,0,0-1.6,3.4c-.3,1.8.2,4.4,6.4,8.9C1,51.3.7,52.1.2,53a2.2,2.2,0,0,0,.1,2.1C1.1,56.5,3,56.5,4,56.5l4-.2,4.6-.3a7.3,7.3,0,0,1,2.1.2c.5.9,2.2,2.2,11.7,3.7a122.8,122.8,0,0,0,16.3,1.5c3.5,0,5-.3,5.8-1.4l.3-.6c1.4-.2,4.8-.2,6.6-.2h1.3c7.6,0,12.3-.2,12.7-3.4s-1.3-3.4-3.1-4.2C73.1,46,72,40.9,70.6,38.2A7.1,7.1,0,0,0,69.1,36c1.9-4.6,1.6-8.3-.9-10.8a10.7,10.7,0,0,0-7.9-3.5,10.6,10.6,0,0,0-3.1.4c1.2-2.3,1.9-4.7,1.2-6.8s-1.8-3.5-5.5-4.1a11.8,11.8,0,0,0-2.6-.2,12.4,12.4,0,0,0-4.8.9c.5-3.5,0-6.4-1.4-8.4S39.8,0,36,0Z" style="fill:#6c6120"/><path d="M46,59.8H63.9s16.6-21.3,11-23.4-13.1,9.5-13.1,9.5S66.3,27,57.6,26.7s-4.7,21.6-4.7,21.6S44.7,30.1,39.2,34.1C28.7,41.6,46,59.8,46,59.8Z" style="fill:#c3bf4f"/><path d="M49.2,54.6H61.4s11.3-14.6,7.5-16-9,6.5-9,6.5S63,32.1,57.1,32s-3.3,14.7-3.3,14.7S48.3,34.3,44.5,37C37.4,42.1,49.2,54.6,49.2,54.6Z" style="fill:#dfe590"/><path d="M57.4,26.7h.2c8.7.3,4.2,19.2,4.2,19.2s6.4-9.7,11.7-9.7l1.4.2c5.6,2.1-11,23.4-11,23.4H46S28.7,41.6,39.2,34.1a2.7,2.7,0,0,1,1.7-.6c5.3,0,12,14.8,12,14.8S49,26.7,57.4,26.7m0-2h0a6.2,6.2,0,0,0-4.7,2.2c-2.2,2.7-2.8,7.5-2.7,11.9-2.6-3.8-5.8-7.3-9.1-7.3a5.2,5.2,0,0,0-2.9.9,9.9,9.9,0,0,0-4.1,7.1C33,48.8,44.1,60.7,44.6,61.2a2,2,0,0,0,1.4.6H63.9a2.1,2.1,0,0,0,1.6-.8c.1-.1,3.4-4.4,6.6-9.4,6.2-9.5,6.3-12.9,5.8-14.6a3.5,3.5,0,0,0-2.3-2.4,4.6,4.6,0,0,0-2.1-.4c-3,0-6.2,2.3-8.6,4.8.2-4.1,0-8.9-2.2-11.7a6.5,6.5,0,0,0-5-2.6Z" style="fill:#6c6120"/></g></g></g></svg>