<svg xmlns="http://www.w3.org/2000/svg" viewBox="0 0 30.5 30.5"><g id="Layer_2" data-name="Layer 2"><g id="Layer_1-2" data-name="Layer 1"><g id="to_ball_1" data-name="to_ball 1"><path d="M15.3,30A14.7,14.7,0,0,1,.5,15.3a18.4,18.4,0,0,1,.7-4.7A17.7,17.7,0,0,1,2.7,7.5,14.8,14.8,0,0,1,30,15.3a13.1,13.1,0,0,1-.7,4.4,12.3,12.3,0,0,1-1.4,3.1A14.6,14.6,0,0,1,15.3,30Z" style="fill:#fcd54d"/><path d="M15.3,1A14.3,14.3,0,0,1,29.5,15.3a15.4,15.4,0,0,1-.6,4.3,15.5,15.5,0,0,1-1.4,2.9A14.2,14.2,0,0,1,1,15.3a16.3,16.3,0,0,1,.7-4.5,13.8,13.8,0,0,1,1.4-3A14.2,14.2,0,0,1,15.3,1m0-1a15.1,15.1,0,0,0-13,7.2A12.4,12.4,0,0,0,.8,10.5a15.1,15.1,0,0,0,14.5,20,15.4,15.4,0,0,0,13.1-7.4,13,13,0,0,0,1.4-3.2,14.7,14.7,0,0,0,.7-4.6A15.2,15.2,0,0,0,15.3,0Z" style="fill:#ffaa5a"/><path d="M28.4,19.5a25.5,25.5,0,0,1-1.3,2.9,9.7,9.7,0,0,0-1.8-5.7,6.6,6.6,0,0,0-7.5-2.5c-1.7.6-3.3,1.7-5.1,2.5a7.1,7.1,0,0,1-7.4-.6,8.9,8.9,0,0,1-2.9-4.6c-.1-.1-.1-.3-.2-.5A11.1,11.1,0,0,1,3.6,8.1a13.6,13.6,0,0,0,.7,3.5,5.7,5.7,0,0,0,7.8,3.7c3.8-1.5,7.3-3.6,11.4-1.7A10.3,10.3,0,0,1,28.4,19.5Z" style="fill:#f1f2f2;stroke:#f1f2f2;stroke-miterlimit:10"/></g></g></g></svg>