<svg xmlns="http://www.w3.org/2000/svg" viewBox="0 0 26.1 24.7"><g id="Layer_2" data-name="Layer 2"><g id="Layer_1-2" data-name="Layer 1"><g id="na_orange1"><path d="M15,24.2a9.6,9.6,0,0,1-6-2A9.6,9.6,0,0,1,5.8,16a9.9,9.9,0,0,1,1-6.6,11.4,11.4,0,0,1,9.3-5.7h1a7.1,7.1,0,0,1,3,1,10.1,10.1,0,0,1,4.4,4.7,12.6,12.6,0,0,1,1,6.6,7.6,7.6,0,0,1-1.1,3.4,7.5,7.5,0,0,1-2.3,2.4A12.7,12.7,0,0,1,15,24.2Z" style="fill:#ffaa5a"/><path d="M16.1,4.2H17a7.5,7.5,0,0,1,2.9.9A9.4,9.4,0,0,1,24,9.7a11.9,11.9,0,0,1,1,6.4,6.7,6.7,0,0,1-1,3.1,9.7,9.7,0,0,1-2.2,2.3A12,12,0,0,1,15,23.7a9.3,9.3,0,0,1-5.7-1.9,8.9,8.9,0,0,1-3-5.9,9.8,9.8,0,0,1,.9-6.3,10.8,10.8,0,0,1,8.9-5.4m0-1h0A11.9,11.9,0,0,0,6.3,9.1a11.1,11.1,0,0,0-1,7,9.6,9.6,0,0,0,3.4,6.4A9.8,9.8,0,0,0,15,24.7a13.2,13.2,0,0,0,7.3-2.4,6.9,6.9,0,0,0,2.5-2.6A7,7,0,0,0,26,16.2a12.8,12.8,0,0,0-1.1-6.9,10.2,10.2,0,0,0-4.6-5,9.4,9.4,0,0,0-3.1-1Z" style="fill:#e07032"/><path d="M9,9.4H9V9.1l.2-.3c0-.1.1-.2.2-.3l.2-.2h1.2a1.5,1.5,0,0,1,1.2.5,1.4,1.4,0,0,1,.2.6.7.7,0,0,1-.1.6v.2h0a1.8,1.8,0,0,1-.5.7h-.2l-.3.2h-.9l-.5-.2a.5.5,0,0,1-.4-.3A1.2,1.2,0,0,1,9,9.4Z" style="fill:#ef8810"/><path d="M6.6,13.1a.5.5,0,0,1,0-.5l.2-.3c0-.1.1-.2.2-.3H7l.3-.2H8.6l.4.2.3.2a.8.8,0,0,1,.2.8h0a.4.4,0,0,1-.1.3v.2c-.1.1-.2.2-.2.3l-.5.2H7.2l-.3-.2c-.1-.1,0-.1-.1-.2v-.2A.4.4,0,0,1,6.6,13.1Z" style="fill:#ef8810"/><path d="M14.9,6.1c-.6,0-1.1-.5-1.4-1.6l-.4-1.2a1.9,1.9,0,0,0-.2-.7A1.7,1.7,0,0,1,13,1.4,1.6,1.6,0,0,1,14.4.5a1.5,1.5,0,0,1,1.1.4,2.4,2.4,0,0,1,.7,2V4.1a1.7,1.7,0,0,1-.6,1.8A.8.8,0,0,1,14.9,6.1Z" style="fill:#ce894a"/><path d="M14.4,1a1.1,1.1,0,0,1,.8.3,2.3,2.3,0,0,1,.5,1.8V4.2a1.3,1.3,0,0,1-.3,1.3h-.5c-.5,0-.8-.7-.9-1.2l-.3-.9-.3-1c0-.3-.1-.6.1-.9a.9.9,0,0,1,.9-.6m0-1h0a2.1,2.1,0,0,0-1.9,1.2,2,2,0,0,0,0,1.5c0,.3.1.5.1.7v.3l.3,1c.5,1.6,1.3,1.9,1.9,1.9a1.7,1.7,0,0,0,1-.3,2.1,2.1,0,0,0,.8-2.2V3h0A3.2,3.2,0,0,0,15.8.5,2,2,0,0,0,14.4,0Z" style="fill:#75411a"/><path d="M6.7,7.2h-1A5.5,5.5,0,0,1,3.2,5.8l-.5-.6c-.5-.6-.8-1-1.2-1a1,1,0,0,1-1-.7,1,1,0,0,1,.6-1.2A9.2,9.2,0,0,1,5.4,1.2H6.8a9.4,9.4,0,0,1,2.8,1,3.9,3.9,0,0,1,2.1,2.5,1.1,1.1,0,0,1-.4.9h-.1a2.1,2.1,0,0,1-1.1.4H9.7l-.6.4-.7.3a4.7,4.7,0,0,1-1.7.3Z" style="fill:#c3bf4f"/><path d="M5.4,1.7H6.7a6.2,6.2,0,0,1,2.6.9,3.2,3.2,0,0,1,1.9,2.2c0,.2-.1.3-.3.4h0c-.4.3-.9.2-1.3.4l-1.4.6-1.5.3H5.8A4.3,4.3,0,0,1,3.5,5.4c-.6-.6-1-1.7-2-1.7s-.6-.8-.2-1a9.9,9.9,0,0,1,4.1-1m0-1A10.7,10.7,0,0,0,.8,1.8,1.8,1.8,0,0,0,0,3.6,1.5,1.5,0,0,0,1.5,4.7c.2,0,.4.3.8.8l.5.6A5.1,5.1,0,0,0,5.6,7.6H6.7a4.3,4.3,0,0,0,1.9-.4L9.3,7l.6-.3h.3a3.3,3.3,0,0,0,1.4-.6h0a1.4,1.4,0,0,0,.6-1.4C12,3.2,10.6,2.3,9.8,1.8A10,10,0,0,0,6.9.8Z" style="fill:#928e31"/></g></g></g></svg>