<svg xmlns="http://www.w3.org/2000/svg" viewBox="0 0 51.6 52.1"><g id="Layer_2" data-name="Layer 2"><g id="Layer_1-2" data-name="Layer 1"><g id="to_blocks"><path d="M25.8,24.7H1.9a.9.9,0,0,0-.9.9V50.2a.9.9,0,0,0,.9.9H12.1a.9.9,0,0,0,.9-.9,12.8,12.8,0,0,1,25.6,0,.9.9,0,0,0,.9.9H49.7a.9.9,0,0,0,.9-.9V25.6a.9.9,0,0,0-.9-.9Z" style="fill:#e84e2c;stroke:#c2331d;stroke-miterlimit:10;stroke-width:2px"/><rect x="5.7" y="1" width="23.7" height="23.7" style="fill:#fcd54d"/><rect x="16.4" y="1" width="23.7" height="23.7" style="fill:#ffeb81;stroke:#ffaa5a;stroke-miterlimit:10"/><polygon points="29.4 1 16.4 1 5.7 1 5.7 24.7 16.4 24.7 29.4 24.7 40.1 24.7 40.1 1 29.4 1" style="fill:none;stroke:#ffaa5a;stroke-linecap:round;stroke-linejoin:round;stroke-width:2px"/></g></g></g></svg>