<svg xmlns="http://www.w3.org/2000/svg" width="255.95" height="135.52" viewBox="0 0 255.95 135.52">
  <g id="Layer_2" data-name="Layer 2">
    <g id="Layer_1-2" data-name="Layer 1">
      <g id="fu_dog_bed" data-name="fu_dog bed">
        <ellipse cx="127.64" cy="48.54" rx="120.14" ry="44.36" fill="#5576b4"/>
        <path d="M125.17,9.4s-.16,17.31-3.91,28.48a1,1,0,0,1-.92.67,219.81,219.81,0,0,0-25.56,2.24,1,1,0,0,1-1.1-.73c-.1-.38-.2-.78-.33-1.19a1,1,0,0,0-1.95.43c0,.36.1.73.13,1.09a1,1,0,0,1-.83,1.06,138.4,138.4,0,0,0-28.83,7.89,1,1,0,0,1-1.27-.47c-2.84-5.2-21.26-24.1-21.26-24.1S50.82,32.5,55.8,51.22a1,1,0,0,1-.51,1.15c-6.71,3.49-11.7,7.48-14.51,11.79a1,1,0,0,1-1.73-.1c-1.21-2.47-6.41-8.8-6.41-8.8S37.86,62,39.12,66.92a1,1,0,0,1,0,.59,13.65,13.65,0,0,0-.87,4.74c0,18.67,40,33.81,89.43,33.81s89.44-15.14,89.44-33.81a13.72,13.72,0,0,0-1.23-5.61,1.24,1.24,0,0,1-.09-.38c-.14-4.91,3.2-11.34,3.2-11.34a73.19,73.19,0,0,0-3.45,7.83,1,1,0,0,1-1.75.34c-2.71-3.65-7-7-12.57-10.08a1,1,0,0,1-.32-.27c-2.84-3.74.42-13.13,3.77-20.53a1,1,0,0,0-1.74-1c-5,7.63-7.21,14-7.73,17.48a1,1,0,0,1-1.37.77,136.1,136.1,0,0,0-27.46-7.74,1,1,0,0,1-.83-.95c0-.35,0-.7,0-1a1,1,0,0,0-2-.26c-.07.28-.14.54-.2.81a1,1,0,0,1-1.12.74,219.77,219.77,0,0,0-32.4-2.61,1,1,0,0,1-.94-.67c-3.2-9.85-3.72-28.38-3.72-28.38" fill="#335394"/>
        <g opacity="0.28">
          <ellipse cx="127.64" cy="73.04" rx="88.55" ry="33.02" fill="#335394"/>
        </g>
        <g>
          <path d="M127.64,107.56c-50.35,0-89.8-15-89.8-34.1s39.45-34.1,89.8-34.1,89.81,15,89.81,34.1S178,107.56,127.64,107.56Z" fill="#98d9e4"/>
          <path d="M127.64,40.86c48.77,0,88.31,14.59,88.31,32.6s-39.54,32.6-88.31,32.6-88.3-14.6-88.3-32.6,39.53-32.6,88.3-32.6m0-3c-23.93,0-46.47,3.45-63.48,9.73C46.22,54.22,36.34,63.4,36.34,73.46S46.22,92.7,64.16,99.33c17,6.27,39.55,9.73,63.48,9.73s46.48-3.46,63.48-9.73C209.07,92.7,219,83.52,219,73.46s-9.88-19.24-27.83-25.87c-17-6.28-39.54-9.73-63.48-9.73Z" fill="#335394"/>
        </g>
        <g>
          <g opacity="0.4">
            <path d="M109.88,54.91a25,25,0,0,1,17.58,1.71l-1.11-2.12S116.34,51.73,109.88,54.91Z" fill="#335394"/>
          </g>
          <g opacity="0.4">
            <path d="M130.89,54.92s5-3.19,13.94-.12c0,0-8.94-1.34-13.07.94Z" fill="#335394"/>
          </g>
          <g opacity="0.4">
            <path d="M129.11,54.16s-.05-4-2.05-6.62a10.48,10.48,0,0,1,.37,6.3Z" fill="#335394"/>
          </g>
          <g opacity="0.4">
            <path d="M126.37,54.23s-.42-1.71-4.27-3.7c0,0,2.81,2,2.56,3.82Z" fill="#335394"/>
          </g>
          <g opacity="0.4">
            <path d="M125.39,54.14a22,22,0,0,0-6.88-2s4,1,5.95,2.49Z" fill="#335394"/>
          </g>
          <g opacity="0.4">
            <path d="M129.2,56.62a18.24,18.24,0,0,1,.66,8.24s.09-5.82-3.33-8.24Z" fill="#335394"/>
          </g>
          <g opacity="0.4">
            <path d="M127.06,55.93s-5.75.1-6.83,3.84a7.63,7.63,0,0,1,4.92-4.86Z" fill="#335394"/>
          </g>
          <g opacity="0.4">
            <path d="M125.93,55.88s-5.4-1-9.59,2a13,13,0,0,1,8.71-2.76Z" fill="#335394"/>
          </g>
          <g opacity="0.4">
            <path d="M129.67,55.07s5.14.46,8.16,3.77A17.25,17.25,0,0,0,127.6,56Z" fill="#335394"/>
          </g>
          <g opacity="0.4">
            <path d="M126.53,54.61a29.76,29.76,0,0,1,9.36-2.88s-6.29,1.56-8.34,4.21Z" fill="#335394"/>
          </g>
          <g>
            <path d="M127.68,59.27c-2.67,0-4.91-.76-6-1.93a2.68,2.68,0,0,1-.77-2c.14-2.48,3.53-3.59,6.84-3.59H128c2.66,0,4.91.76,6,1.94a2.58,2.58,0,0,1,.77,2c-.13,2.47-3.53,3.58-6.83,3.58Z" fill="#ffeb81"/>
            <path d="M127.74,53.28h.2c3,0,5.36,1.09,5.29,2.33s-2.43,2.16-5.33,2.16h-.2c-3,0-5.36-1.08-5.3-2.32s2.44-2.17,5.34-2.17m0-3h0c-4.83,0-8.17,2-8.33,5a4.13,4.13,0,0,0,1.17,3.07c2,2.11,5.6,2.39,7.07,2.41h.25c4.82,0,8.17-2,8.33-5a4.18,4.18,0,0,0-1.17-3.08c-2-2.11-5.61-2.39-7.08-2.41Z" fill="#ffaa5a"/>
          </g>
        </g>
        <g>
          <g opacity="0.4">
            <path d="M148.08,71.74a25,25,0,0,1,17.58,1.71l-1.11-2.11S154.54,68.56,148.08,71.74Z" fill="#335394"/>
          </g>
          <g opacity="0.4">
            <path d="M169.09,71.75s5-3.19,13.95-.11c0,0-8.95-1.34-13.07.94Z" fill="#335394"/>
          </g>
          <g opacity="0.4">
            <path d="M167.31,71s-.05-4-2-6.62a10.42,10.42,0,0,1,.36,6.29Z" fill="#335394"/>
          </g>
          <g opacity="0.4">
            <path d="M164.57,71.07s-.42-1.72-4.27-3.7c0,0,2.81,2,2.57,3.82Z" fill="#335394"/>
          </g>
          <g opacity="0.4">
            <path d="M163.6,71a22.3,22.3,0,0,0-6.89-2s4,1,5.95,2.5Z" fill="#335394"/>
          </g>
          <g opacity="0.4">
            <path d="M167.4,73.45a18.13,18.13,0,0,1,.66,8.25s.09-5.82-3.33-8.25Z" fill="#335394"/>
          </g>
          <g opacity="0.4">
            <path d="M165.27,72.77s-5.76.09-6.84,3.84a7.64,7.64,0,0,1,4.92-4.87Z" fill="#335394"/>
          </g>
          <g opacity="0.4">
            <path d="M164.13,72.72s-5.4-1-9.59,2a12.92,12.92,0,0,1,8.71-2.76Z" fill="#335394"/>
          </g>
          <g opacity="0.4">
            <path d="M167.88,71.9s5.14.46,8.15,3.77a17.17,17.17,0,0,0-10.23-2.83Z" fill="#335394"/>
          </g>
          <g opacity="0.4">
            <path d="M164.73,71.45a30,30,0,0,1,9.36-2.89s-6.29,1.57-8.34,4.22Z" fill="#335394"/>
          </g>
          <g>
            <path d="M165.88,76.11c-2.67,0-4.91-.77-6-1.94a2.61,2.61,0,0,1-.76-2c.13-2.47,3.52-3.58,6.83-3.58h.22c2.67,0,4.91.76,6,1.93a2.62,2.62,0,0,1,.76,2c-.13,2.48-3.53,3.59-6.83,3.59Z" fill="#ffeb81"/>
            <path d="M165.94,70.12h.2c3,0,5.36,1.08,5.3,2.32s-2.44,2.17-5.34,2.17h-.2c-3,0-5.36-1.09-5.3-2.33s2.44-2.16,5.34-2.16m0-3h0c-4.82,0-8.17,2-8.33,5a4.19,4.19,0,0,0,1.17,3.08c2,2.11,5.61,2.39,7.08,2.41h.24c4.82,0,8.17-2,8.33-5a4.13,4.13,0,0,0-1.17-3.07c-2-2.11-5.6-2.39-7.08-2.41Z" fill="#ffaa5a"/>
          </g>
        </g>
        <g>
          <g opacity="0.4">
            <path d="M110.8,89.83a25,25,0,0,1,17.59,1.7l-1.11-2.11S117.27,86.65,110.8,89.83Z" fill="#335394"/>
          </g>
          <g opacity="0.4">
            <path d="M131.82,89.84s5-3.19,13.94-.12c0,0-8.94-1.34-13.07.94Z" fill="#335394"/>
          </g>
          <g opacity="0.4">
            <path d="M130,89.08s0-4-2-6.62a10.42,10.42,0,0,1,.36,6.29Z" fill="#335394"/>
          </g>
          <g opacity="0.4">
            <path d="M127.29,89.15s-.41-1.71-4.26-3.7c0,0,2.81,2,2.56,3.82Z" fill="#335394"/>
          </g>
          <g opacity="0.4">
            <path d="M126.32,89.05a22.29,22.29,0,0,0-6.88-2s4,1,6,2.5Z" fill="#335394"/>
          </g>
          <g opacity="0.4">
            <path d="M130.13,91.53a18.3,18.3,0,0,1,.66,8.25s.09-5.82-3.34-8.25Z" fill="#335394"/>
          </g>
          <g opacity="0.4">
            <path d="M128,90.85s-5.75.09-6.83,3.84a7.61,7.61,0,0,1,4.92-4.86Z" fill="#335394"/>
          </g>
          <g opacity="0.4">
            <path d="M126.86,90.8s-5.41-1-9.59,2A13,13,0,0,1,126,90Z" fill="#335394"/>
          </g>
          <g opacity="0.4">
            <path d="M130.6,90s5.14.46,8.16,3.78a17.17,17.17,0,0,0-10.23-2.84Z" fill="#335394"/>
          </g>
          <g opacity="0.4">
            <path d="M127.45,89.53a29.9,29.9,0,0,1,9.37-2.88s-6.29,1.56-8.35,4.21Z" fill="#335394"/>
          </g>
          <g>
            <path d="M128.61,94.19c-2.67,0-4.92-.76-6-1.94a2.66,2.66,0,0,1-.77-2c.13-2.47,3.53-3.58,6.84-3.58h.22c2.66,0,4.91.76,6,1.93a2.65,2.65,0,0,1,.77,2c-.13,2.48-3.53,3.59-6.84,3.59Z" fill="#ffeb81"/>
            <path d="M128.67,88.2h.2c3,0,5.36,1.09,5.29,2.32s-2.43,2.17-5.34,2.17h-.19c-3,0-5.37-1.09-5.3-2.33s2.44-2.16,5.34-2.16m0-3h0c-4.83,0-8.18,2-8.33,5a4.16,4.16,0,0,0,1.16,3.07c2,2.11,5.61,2.39,7.08,2.41h.24c4.83,0,8.18-2,8.34-5A4.17,4.17,0,0,0,136,87.61c-2-2.11-5.61-2.39-7.08-2.41Z" fill="#ffaa5a"/>
          </g>
        </g>
        <g>
          <g opacity="0.4">
            <path d="M67.71,71.48a25,25,0,0,1,17.58,1.71l-1.11-2.11S74.17,68.3,67.71,71.48Z" fill="#335394"/>
          </g>
          <g opacity="0.4">
            <path d="M88.72,71.5s5-3.2,14-.12c0,0-9-1.34-13.07.94Z" fill="#335394"/>
          </g>
          <g opacity="0.4">
            <path d="M86.94,70.74s0-4-2-6.62a10.42,10.42,0,0,1,.36,6.29Z" fill="#335394"/>
          </g>
          <g opacity="0.4">
            <path d="M84.2,70.81s-.42-1.72-4.27-3.7c0,0,2.81,2,2.57,3.82Z" fill="#335394"/>
          </g>
          <g opacity="0.4">
            <path d="M83.23,70.71a22.3,22.3,0,0,0-6.89-2s4,1,6,2.5Z" fill="#335394"/>
          </g>
          <g opacity="0.4">
            <path d="M87,73.19a18.13,18.13,0,0,1,.66,8.25s.09-5.82-3.33-8.25Z" fill="#335394"/>
          </g>
          <g opacity="0.4">
            <path d="M84.9,72.51s-5.76.09-6.84,3.84A7.64,7.64,0,0,1,83,71.48Z" fill="#335394"/>
          </g>
          <g opacity="0.4">
            <path d="M83.77,72.46s-5.41-1-9.6,2a12.92,12.92,0,0,1,8.71-2.76Z" fill="#335394"/>
          </g>
          <g opacity="0.4">
            <path d="M87.51,71.64s5.14.46,8.15,3.77a17.17,17.17,0,0,0-10.23-2.83Z" fill="#335394"/>
          </g>
          <g opacity="0.4">
            <path d="M84.36,71.19a30,30,0,0,1,9.36-2.89s-6.29,1.57-8.34,4.22Z" fill="#335394"/>
          </g>
          <g>
            <path d="M85.51,75.85c-2.67,0-4.91-.76-6-1.94a2.58,2.58,0,0,1-.77-2c.13-2.47,3.53-3.58,6.83-3.58h.22c2.67,0,4.91.76,6,1.93a2.62,2.62,0,0,1,.76,2c-.13,2.48-3.52,3.59-6.83,3.59Z" fill="#ffeb81"/>
            <path d="M85.57,69.86h.2c3,0,5.36,1.08,5.3,2.32s-2.44,2.17-5.34,2.17h-.2c-3,0-5.36-1.09-5.29-2.33s2.43-2.16,5.33-2.16m0-3h0c-4.82,0-8.17,2-8.33,5a4.18,4.18,0,0,0,1.17,3.08c2,2.11,5.61,2.39,7.08,2.41h.24c4.82,0,8.17-2,8.33-5a4.13,4.13,0,0,0-1.17-3.07c-2-2.11-5.6-2.39-7.08-2.41Z" fill="#ffaa5a"/>
          </g>
        </g>
        <path d="M253.74,100.57h0C246.82,119.28,190.37,134,127.8,134c-67.87,0-123.16-17-126.17-38.25A13.35,13.35,0,0,1,1.5,94c0-8.11,10-11.53,6.16-24.41-4.84-16.25,0-21.19,0-21.19C9,54.9,12.76,59,23.92,67.36s48.92,16.85,61.46,19,23.94,12,42.42,11.74,35.38-10.79,38.8-12.47,28.21-3.07,51.87-12.16c11.83-4.54,19.2-10.83,23.6-16a33.14,33.14,0,0,0,5.87-9.16c2.83,7.38,1.58,16.15,0,21.59-3,10.17,4.61,18,6.16,24A10.76,10.76,0,0,1,253.74,100.57Z" fill="#5576b4" stroke="#335394" stroke-miterlimit="10" stroke-width="3"/>
        <g>
          <path d="M126.65,99.9c-2.64,0-5.18-.1-7.56-.29-6.52-.54-11.8-1.79-15.68-3.72C91.41,90,83.6,88.41,68.48,85.76c-16.42-2.87-39.86-9.91-51.89-20.29-6.18-5.32-9.8-9.71-11.4-13.82A12.48,12.48,0,0,1,6.71,39.52,47,47,0,0,1,17.88,27.43c7-5.39,16.76-10.22,29.73-14.76C57.78,9.11,64.69,6.83,74.86,5.12c10.42-1.76,24-2.79,45.57-3.46,3.37-.11,6.78-.16,10.11-.16a285.89,285.89,0,0,1,43,3.13,189.21,189.21,0,0,1,24,5.09l.54.15a206.68,206.68,0,0,1,20.79,7.5c13.32,5.63,22,11.15,25.92,16.41,3.77,5.09,5.73,9.56,5.82,13.27a10.48,10.48,0,0,1-2.2,6.72l-.22.31c-2.09,3.13-10,13-18.46,17.15-5.8,2.85-26.66,12.34-51.61,15.08-10.72,1.18-14.19,3.56-17.86,6.08C156.43,95,152.47,97.74,142,99A135.19,135.19,0,0,1,126.65,99.9Zm3.72-93.18c-3.2,0-6.48,0-9.72.15-44.32,1.38-52.6,4.28-70.76,10.64-27.84,9.74-33.95,18.74-38,24.68a7.7,7.7,0,0,0-1,7.76c1.27,3.27,4.53,7.14,10,11.81,11.1,9.57,33.25,16.16,48.85,18.89C85.47,83.41,93.62,85,106.43,91.37c4.37,2.16,11.35,3.31,20.2,3.31a126.93,126.93,0,0,0,14.57-.9c8.81-1,11.81-3.09,15.29-5.48,4.16-2.86,8.45-5.81,20.85-7.17,23.84-2.61,43.83-11.71,49.39-14.44,8.52-4.18,16.18-15.15,16.26-15.26l.28-.41c1.13-1.59,3.46-4.91-3.55-14.4-2.26-3.06-8.18-8.07-23.53-14.56a201.26,201.26,0,0,0-19.94-7.21l-.62-.17C187.22,12.29,164,6.72,130.37,6.72Z" fill="#a7bfee"/>
          <path d="M130.54,3a284.45,284.45,0,0,1,42.75,3.11,186.53,186.53,0,0,1,23.84,5.06l.55.15a204.91,204.91,0,0,1,20.6,7.43c13.06,5.53,21.57,10.88,25.29,15.92,3.58,4.84,5.44,9,5.53,12.42a8.94,8.94,0,0,1-1.93,5.82l-.23.34c-2,3-9.68,12.61-17.88,16.64-5.75,2.81-26.41,12.22-51.12,14.93-11.09,1.21-14.71,3.7-18.54,6.34-3.67,2.52-7.47,5.13-17.55,6.3a132.36,132.36,0,0,1-15.2.94q-3.9,0-7.43-.29c-6.34-.52-11.43-1.72-15.15-3.56C91.89,88.51,84,87,68.74,84.28c-16.23-2.84-39.37-9.77-51.17-19.94-6-5.16-9.47-9.36-11-13.23A10.93,10.93,0,0,1,8,40.36,45.78,45.78,0,0,1,18.79,28.62c6.91-5.29,16.5-10,29.31-14.53,10.1-3.53,17-5.8,27-7.49C85.45,4.86,99,3.83,120.47,3.16Q125.54,3,130.54,3m-3.92,93.18a129.31,129.31,0,0,0,14.76-.91c9.17-1.07,12.47-3.33,16-5.74,4-2.74,8.14-5.59,20.16-6.91C201.59,80,221.77,70.79,227.39,68c9-4.4,16.77-15.66,16.84-15.77l.27-.39c1.32-1.88,4.08-5.79-3.58-16.15-3.4-4.61-11.75-9.81-24.15-15a205.9,205.9,0,0,0-20.13-7.28l-.6-.17c-8.89-2.52-32.06-8-65.67-8q-4.74,0-9.77.15C76.05,6.76,67.7,9.69,49.4,16.09,21.09,26,14.81,35.24,10.65,41.35A9.18,9.18,0,0,0,9.49,50.5c1.37,3.5,4.76,7.56,10.37,12.4,11.33,9.77,33.79,16.46,49.57,19.23,15.63,2.73,23.71,4.33,36.33,10.58,4.62,2.29,11.9,3.47,20.86,3.47M48.75,15.09h0M130.54,0h0c-3.35,0-6.77.05-10.16.16C98.79.83,85.1,1.87,74.61,3.64c-10.29,1.73-17.25,4-27.5,7.62-13.12,4.59-23,9.49-30.14,15A48.18,48.18,0,0,0,5.47,38.67,13.94,13.94,0,0,0,3.79,52.2c1.7,4.34,5.45,8.92,11.82,14.41,12.26,10.57,36,17.72,52.61,20.63,15,2.62,22.71,4.14,34.52,10,4.06,2,9.52,3.31,16.23,3.86,2.42.2,5,.3,7.68.3a135.74,135.74,0,0,0,15.54-1c10.83-1.26,15.12-4.21,18.91-6.81s6.83-4.7,17.17-5.83c25.19-2.76,46.26-12.35,52.11-15.22,8.84-4.33,16.75-14.22,19.05-17.66l.19-.27A12,12,0,0,0,252.1,47c-.1-4-2.16-8.79-6.11-14.14-4.1-5.55-12.79-11.07-26.54-16.89a205.41,205.41,0,0,0-21-7.56L198,8.29a189.32,189.32,0,0,0-24.25-5.14A287.5,287.5,0,0,0,130.54,0Zm-3.92,93.18c-8.49,0-15.42-1.12-19.53-3.16C94.1,83.58,85.87,82,70,79.17,54.54,76.47,32.69,70,21.82,60.63c-5.16-4.45-8.37-8.23-9.54-11.22A6.2,6.2,0,0,1,13.13,43C17.07,37.25,23,28.51,50.39,18.92c18-6.3,26.22-9.17,70.3-10.55,3.23-.1,6.49-.15,9.68-.15,33.47,0,56.5,5.53,64.85,7.9l.63.18a196.44,196.44,0,0,1,19.76,7.14c15.83,6.69,21.14,11.69,22.9,14.07,6.37,8.62,4.46,11.34,3.54,12.64-.12.16-.22.31-.31.45-2,2.95-8.83,11.39-15.67,14.75-5.51,2.7-25.3,11.7-48.9,14.29-12.77,1.4-17.42,4.6-21.53,7.42-3.31,2.28-6.18,4.25-14.61,5.23a126.41,126.41,0,0,1-14.41.89Z" fill="#335394"/>
        </g>
        <g>
          <g opacity="0.4">
            <path d="M213.17,84.06S219,87.37,216,98.35l3.86-1.13S217.73,86.49,213.17,84.06Z" fill="#335394"/>
          </g>
          <g opacity="0.4">
            <path d="M219.57,100.6s3.33,5.54,1.74,10.17c0,0-.69-7.53-3.19-9.41Z" fill="#335394"/>
          </g>
          <g opacity="0.4">
            <path d="M220.8,99.18s5.36.27,12.63-3.41c0,0-7,2.45-12.46,1.34Z" fill="#335394"/>
          </g>
          <g opacity="0.4">
            <path d="M220.37,97.19a14.19,14.19,0,0,0,6.5-3.68A15,15,0,0,1,220,96Z" fill="#335394"/>
          </g>
          <g opacity="0.4">
            <path d="M220.45,96.46a11,11,0,0,0,3.09-5.34,12.27,12.27,0,0,1-4,4.73Z" fill="#335394"/>
          </g>
          <g opacity="0.4">
            <path d="M215.78,99.27a61.37,61.37,0,0,1-15,2.08s9.94-.95,14.14-3.82Z" fill="#335394"/>
          </g>
          <g opacity="0.4">
            <path d="M217.25,98a25.79,25.79,0,0,1-9.31-4.09s5.64,3,11,2.53Z" fill="#335394"/>
          </g>
          <g opacity="0.4">
            <path d="M217.22,97.12a21.79,21.79,0,0,1-4.75-6.71s2.76,4.52,6.14,6Z" fill="#335394"/>
          </g>
          <g opacity="0.4">
            <path d="M219.16,99.73a17.06,17.06,0,0,1-6.21,6.53s4.47-3.92,4.23-7.9Z" fill="#335394"/>
          </g>
          <g opacity="0.4">
            <path d="M219.68,97.36a18.66,18.66,0,0,1,6.45,6.41s-3.64-4.36-8.85-5.46Z" fill="#335394"/>
          </g>
          <g>
            <path d="M218.26,103.92a5.9,5.9,0,0,1-5.9-5.06,5.18,5.18,0,0,1,1.2-3.92,5.67,5.67,0,0,1,4-2h.36a5.9,5.9,0,0,1,5.9,5.06,5.17,5.17,0,0,1-1.2,3.92,5.69,5.69,0,0,1-4,2Z" fill="#ffeb81"/>
            <path d="M217.93,94.47a4.38,4.38,0,0,1,4.41,3.72,3.89,3.89,0,0,1-3.81,4.23h-.27a4.37,4.37,0,0,1-4.41-3.72,3.9,3.9,0,0,1,3.81-4.23h.27m0-3h-.45a7.21,7.21,0,0,0-5.07,2.5,6.66,6.66,0,0,0-1.54,5,7.41,7.41,0,0,0,7.39,6.39h.45a7.24,7.24,0,0,0,5.07-2.49,6.69,6.69,0,0,0,1.54-5.06,7.41,7.41,0,0,0-7.39-6.39Z" fill="#ffaa5a"/>
          </g>
        </g>
        <g>
          <g opacity="0.4">
            <path d="M41.91,84.94s-5.55,3.59-1.53,14.4l-4-.94S37.58,87.59,41.91,84.94Z" fill="#335394"/>
          </g>
          <g opacity="0.4">
            <path d="M37,101.76s-2.81,5.7-.81,10.24c0,0,0-7.55,2.33-9.55Z" fill="#335394"/>
          </g>
          <g opacity="0.4">
            <path d="M35.67,100.4s-5.32.54-12.91-2.78c0,0,7.16,2.1,12.55.73Z" fill="#335394"/>
          </g>
          <g opacity="0.4">
            <path d="M35.91,98.4A14.86,14.86,0,0,1,29.09,95a15.62,15.62,0,0,0,7.12,2.11Z" fill="#335394"/>
          </g>
          <g opacity="0.4">
            <path d="M35.77,97.68A11.67,11.67,0,0,1,32.2,92.5,13.08,13.08,0,0,0,36.67,97Z" fill="#335394"/>
          </g>
          <g opacity="0.4">
            <path d="M40.68,100.25a62.65,62.65,0,0,0,15.2,1.33s-10-.46-14.46-3.12Z" fill="#335394"/>
          </g>
          <g opacity="0.4">
            <path d="M39.1,99A24.47,24.47,0,0,0,48,94.47s-5.35,3.27-10.77,3.07Z" fill="#335394"/>
          </g>
          <g opacity="0.4">
            <path d="M39.06,98.17a20.67,20.67,0,0,0,4.12-6.93s-2.34,4.65-5.58,6.24Z" fill="#335394"/>
          </g>
          <g opacity="0.4">
            <path d="M37.35,100.87a18.18,18.18,0,0,0,6.8,6.22s-4.82-3.7-4.94-7.68Z" fill="#335394"/>
          </g>
          <g opacity="0.4">
            <path d="M36.62,98.54a17.5,17.5,0,0,0-5.85,6.71,16.86,16.86,0,0,1,8.33-5.89Z" fill="#335394"/>
          </g>
          <g>
            <path d="M38.21,105a5.82,5.82,0,0,1-4.14-1.75,5.25,5.25,0,0,1-1.52-3.8,5.68,5.68,0,0,1,5.78-5.42,5.94,5.94,0,0,1,4.2,1.75,5.28,5.28,0,0,1,1.52,3.81A5.68,5.68,0,0,1,38.27,105Z" fill="#ffeb81"/>
            <path d="M38.33,95.55h.05a4.08,4.08,0,0,1,4.17,4,4.16,4.16,0,0,1-4.28,3.94h-.05a4.07,4.07,0,0,1-4.17-4,4.17,4.17,0,0,1,4.28-3.94m0-3a7.19,7.19,0,0,0-7.28,6.89A6.75,6.75,0,0,0,33,104.32a7.39,7.39,0,0,0,5.2,2.2h.08a7.19,7.19,0,0,0,7.28-6.88,6.74,6.74,0,0,0-1.94-4.88,7.44,7.44,0,0,0-5.2-2.21h-.08Z" fill="#ffaa5a"/>
          </g>
        </g>
        <g opacity="0.21">
          <path d="M253.74,100.57C246.82,119.28,190.37,134,127.8,134c-67.87,0-123.16-17-126.17-38.25,7.52,9.64,22,20.54,52.53,27,50.19,10.58,58.33,8.7,73.27,9.11s62.82-3.56,79.06-8.9S246.83,108.88,253.74,100.57Z" fill="#335394"/>
        </g>
        <g>
          <path d="M127.27,120.9c-3.35,0-13.1-.25-13.51-.26h0c-2.24,0-4-1.49-4-3.38v-9.12c0-1.89,1.78-3.38,4.06-3.38.14,0,10.28.27,13.63.27s13.48-.26,13.59-.26h0c2.31,0,4.09,1.48,4.09,3.37v9.12c0,1.89-1.78,3.38-4.05,3.38-.39,0-10.33.26-13.77.26Z" fill="#ce894a"/>
          <path d="M141.06,106.26c1.41,0,2.55.84,2.55,1.88v9.12c0,1-1.14,1.88-2.55,1.88,0,0-10.31.26-13.78.26h0c-3.37,0-13.47-.26-13.47-.26-1.41,0-2.56-.84-2.56-1.88v-9.12c0-1,1.15-1.88,2.56-1.88,0,0,10.22.27,13.63.27s13.63-.27,13.63-.27m0-3H141c-.11,0-10.22.26-13.55.26s-13.45-.26-13.56-.26h-.07c-3.12,0-5.56,2.15-5.56,4.88v9.12c0,2.72,2.42,4.86,5.51,4.88.75,0,10.21.26,13.52.26s13.07-.24,13.83-.26c3.09,0,5.51-2.16,5.51-4.88v-9.12c0-2.73-2.44-4.88-5.55-4.88Z" fill="#75411a"/>
        </g>
        <path d="M127.3,117.83h0c-2.89,0-11.61-.2-11.69-.2-1.36,0-2.46-.7-2.46-1.56V109.4c0-.86,1.1-1.56,2.46-1.56.1,0,8.91.2,11.83.2s11.72-.2,11.81-.2c1.37,0,2.47.7,2.47,1.56v6.67c0,.86-1.1,1.56-2.46,1.56C139,117.64,130.25,117.83,127.3,117.83Zm-11.7-9.62c-1.08,0-2,.53-2,1.19v6.67c0,.66.88,1.19,2,1.19.1,0,8.8.2,11.69.2h0c3,0,11.85-.2,11.94-.2h0c1.08,0,2-.53,2-1.19V109.4c0-.66-.88-1.19-2-1.19-.08,0-8.9.2-11.82.2S115.69,108.21,115.6,108.21Z" fill="#f9da9b"/>
      </g>
    </g>
  </g>
</svg>
