<svg xmlns="http://www.w3.org/2000/svg" width="376.25" height="287.94" viewBox="0 0 376.25 287.94">
  <g id="Layer_2" data-name="Layer 2">
    <g id="Layer_1-2" data-name="Layer 1">
      <g id="na_cow">
        <g>
          <path d="M20.44,161l1.82-1.14c13.35-8.35,12.55-27.07,11.79-45.18C33.22,95,32.36,74.72,52.3,72.3l1.91-.23-1.3,10.37-.4.37c-9.25,8.6-9.17,22.13-9.07,36.45.11,17.14.22,34.86-15.5,46.19l-.91.65Z" fill="#eed5c4"/>
          <path d="M52.48,73.79l-1,7.92c-21,19.5,3.71,62.24-24.42,82.52l-4-3.13c29.43-18.4-6.19-83,29.43-87.31m3.46-3.44-3.82.47c-9.7,1.17-15.68,6.39-18.28,16-2.14,7.88-1.73,17.63-1.29,27.94.75,17.68,1.52,36-11.09,43.85l-3.64,2.27,3.39,2.64,4,3.13L27,168l1.82-1.32C45.17,154.88,45.05,136,44.94,119.25c-.09-14-.18-27.19,8.59-35.34l.8-.74.13-1.08,1-7.92.48-3.82Z" fill="#353535"/>
        </g>
        <path d="M27.07,168.57c2.15-3.45,3.29-7.29,2.42-8.82-1.32-2.31-9.83-4.18-18.47-.45-3.31,1.43-3.17,3.64-1.55,3.75C1.53,168.6-2,176.16,5,174.34c-7.54,3.45-5.5,6.2-.28,6.48C12.28,181.22,22,176.67,27.07,168.57Z" fill="#353535"/>
        <g>
          <path d="M125.13,281.76c-13.42,0-14.4-1.83-14.73-2.44-1.82-3.39-2.21-6.9-2.55-10a31.25,31.25,0,0,0-.85-5.12c-2-7-4.54-14.43-7.22-22.33-3.86-11.37-8.24-24.26-11.9-38.33l-.07-.3c-1.14-4.38-1.72-6.58-.23-10.84,2.57-7.34,1.64-13.79.58-21.26l-.52-3.67L139.38,169l-1,2.09c-4.76,9.74-10.59,17.66-15.27,24-2.49,3.38-4.64,6.3-6.11,8.8-2.86,4.83,1.89,32.13,12.31,60.15,1.09,1.3,6.72,8.2,8.68,14.23a1.75,1.75,0,0,1-.25,1.58C137.34,280.41,136.35,281.76,125.13,281.76Z" fill="#ddab88"/>
          <path d="M89.38,169,137,170.45c-7.24,14.8-17,25.41-21.34,32.72-3.43,5.81,2.21,34.63,12.29,61.68,0,0,6.52,7.6,8.58,13.93.31,1-5.39,1.48-11.41,1.48-6.23,0-12.81-.54-13.4-1.65-2.71-5-2-10.33-3.29-14.81-4.94-17.19-13-37-19.1-60.63-1.17-4.49-1.71-6.35-.34-10.27,2.9-8.31,1.56-15.38.38-23.87m-3.47-3.1.49,3.51q.13,1,.27,1.92c1.09,7.58,1.94,13.56-.5,20.55-1.64,4.7-1,7.34.19,11.72l.07.3c3.67,14.12,8.06,27,11.93,38.43,2.68,7.88,5.2,15.33,7.2,22.26a30.69,30.69,0,0,1,.8,4.88c.36,3.23.76,6.88,2.72,10.53.65,1.21,1.73,3.23,16,3.23,12,0,13.07-1.49,13.79-2.48a3.26,3.26,0,0,0,.47-2.93c-2-6-7.35-12.77-8.8-14.53a260.33,260.33,0,0,1-10.9-37.86c-2.71-13.71-2.18-19.5-1.43-20.76,1.43-2.43,3.56-5.32,6-8.67,4.72-6.42,10.59-14.4,15.41-24.27l2-4.17-4.65-.14L89.46,166l-3.55-.1Z" fill="#353535"/>
        </g>
        <path d="M128,264.85s6.52,7.6,8.58,13.93c.64,2-23.64,2-24.82-.17a21.68,21.68,0,0,1-2.2-7.88C111.64,268.32,120.35,264.8,128,264.85Z" fill="#4c2412"/>
        <g>
          <path d="M263.87,281.75c-11.64,0-12.12-2.16-12.32-3.08-1.05-4.73-2.22-8.68-3.26-12.17-1.64-5.49-2.93-9.83-2.95-14.48-.1-24.85-.92-38.94-5.68-61.88l-.32-1.58,46.6-6.26-.81,2.31c-1.48,4.27-3,8.4-4.43,12.39-6.58,18.1-12.26,33.73-13,52-.15,3.5.65,7.39,2.58,12.58.77,1.23,6.14,10.06,7.19,16.39a1.92,1.92,0,0,1-.45,1.58C275.3,281.53,267.26,281.75,263.87,281.75Z" fill="#ddab88"/>
          <path d="M283.72,184.11c-8.18,23.49-16.6,42.22-17.55,64.81-.17,4.17.95,8.58,2.73,13.31,0,0,6,9.53,7.06,16,.22,1.3-6,2.05-12.09,2.05-5.37,0-10.57-.59-10.86-1.9-2.66-12.06-6.14-19-6.17-26.34-.11-25.87-1.1-40-5.71-62.18l42.59-5.72m4.44-3.62-4.84.65-42.59,5.72-3.19.43.65,3.15c4.74,22.82,5.55,36.84,5.65,61.58,0,4.87,1.4,9.52,3,14.91,1,3.46,2.2,7.38,3.23,12.06.65,2.93,4.26,3.49,6,3.76a53.37,53.37,0,0,0,7.79.5c11.94,0,13.69-2.06,14.26-2.74a3.41,3.41,0,0,0,.79-2.8c-1.06-6.4-6.28-15.13-7.31-16.8-1.8-4.86-2.58-8.64-2.44-11.86.76-18,6.4-33.56,12.94-51.54,1.45-4,2.95-8.13,4.44-12.41l1.61-4.61Z" fill="#353535"/>
        </g>
        <path d="M268.9,262.23s6,9.53,7.06,16c.41,2.46-22.33,2.93-22.95.15-.76-3.48-1.6-6.53-2.4-9.28A41.68,41.68,0,0,1,268.9,262.23Z" fill="#4c2412"/>
        <g>
          <path d="M126.84,197.64c-4.17,16.06-9.83,16.36-11,.55C115.76,196.54,127.25,196.05,126.84,197.64Z" fill="#ac5350"/>
          <path d="M71.25,193.91c16.49-37.83,53.46-38.65,66.89-7.29a36.08,36.08,0,0,1-19.42,19.89c-3.41,10.66-7.43,11.7-9.23,3a47.79,47.79,0,0,1-10.53,1c-3.51,9.51-7.47,9.2-8.93-1.11a35.46,35.46,0,0,1-6.66-2.25c-3.22,6.22-6.48,4.5-7.66-5.31A17.65,17.65,0,0,1,71.25,193.91Z" fill="#d98885"/>
        </g>
        <path d="M138.14,186.62c-13.43-31.36-50.4-30.54-66.89,7.29a17.65,17.65,0,0,0,4.46,7.84c1.18,9.81,4.44,11.53,7.66,5.31A35.46,35.46,0,0,0,90,209.31c1.46,10.31,5.42,10.62,8.93,1.11a47.79,47.79,0,0,0,10.53-1c1.69,8.22,5.35,7.8,8.61-1.14,1.9,3.23,4.65,1.38,7.15-5.48A35.25,35.25,0,0,0,138.14,186.62Z" fill="none" stroke="#781f1a" stroke-miterlimit="10" stroke-width="3"/>
        <path d="M316.11,34.14l10,48.69c-8.71,15.44-8.11,51.82-15,70.13-7.39,19.72-22.12,32.74-41.86,39.52C259,196,226.17,205.82,188.64,205.82c-38.63,0-82.27-10.37-111.6-48.6-15-19.59-27.67-23.86-31.61-49C40.32,75.72,48.16,66.75,75.63,63a129.63,129.63,0,0,1,17.58-1.1c33.32,0,73.28,9.8,114.16,9.8a196.64,196.64,0,0,0,40.39-3.87c35.79-7.51,44.27-29.17,68.35-33.64m0-3a3.41,3.41,0,0,0-.55.05c-11.65,2.17-19.84,8.11-28.51,14.4-9.88,7.18-21.07,15.3-39.9,19.25a191.82,191.82,0,0,1-39.78,3.81c-21.29,0-42.23-2.67-62.48-5.25-18.34-2.34-35.67-4.55-51.67-4.55a131,131,0,0,0-18,1.13c-15.33,2.12-24,5.9-29,12.64-5.45,7.33-6.57,18.13-3.75,36.11,2.91,18.5,10.32,26.26,19.71,36.1a167.78,167.78,0,0,1,12.49,14.22,120.39,120.39,0,0,0,53.63,39.61c17.74,6.74,38.05,10.16,60.35,10.16,40.28,0,75.06-11.25,81.62-13.5C291.46,188,306.57,173.75,314,154c3.19-8.54,4.75-20.27,6.4-32.7,1.89-14.26,3.85-29,8.36-37a3,3,0,0,0,.33-2.08l-10-48.68a3,3,0,0,0-2.94-2.4Z" fill="#353535"/>
        <path d="M75.63,63C122,56.53,186,80.73,247.76,67.78c35.79-7.51,44.27-29.17,68.35-33.64l10,48.69c-8.71,15.44-8.11,51.82-15,70.13-7.39,19.72-22.12,32.74-41.86,39.52C248.35,199.67,134.86,232.59,77,157.22c-15-19.59-27.67-23.86-31.61-49C40.32,75.72,48.16,66.75,75.63,63Z" fill="#eed5c4"/>
        <path d="M283.72,141.89c-18.1,45.77-38.32,76.87-39.11,114a45.85,45.85,0,0,0,1.29,12.59s5.21,9.52,5.75,16c.21,2.45-22.57,2.92-23,.14-1.67-12.06-4.59-19-4-26.34,2.16-27.72-1.41-44.48-4.33-69.25" fill="#eed5c4" stroke="#353535" stroke-miterlimit="10" stroke-width="3"/>
        <path d="M220.65,203.74q-1.8-12.66-2.94-25.39c-.62-6.88,1.44-7.29,2.55-.49,1.43,8.76,2.3,17.07,3.42,25.47Z" fill="#ddab88"/>
        <path d="M245.9,268.43s5.21,9.52,5.75,16c.21,2.45-22.57,2.93-23,.14-.48-3.48-1.07-6.53-1.64-9.28A45,45,0,0,1,245.9,268.43Z" fill="#6a3417"/>
        <path d="M109.44,154.22c-15.42,25.86-36.23,44.49-45.79,55-5.26,5.81-14.7,33.59-14.42,61.09,0,0,5.34,7,5.83,13.93.14,2-24.27,2-24.76-.17a39.23,39.23,0,0,1-.25-14.82c2.89-17.05,2.71-35.68,4-59.35.25-4.49.29-6.35,2.9-10.27,22.1-33.27,4.61-67.14,6-108.73" fill="#eed5c4" stroke="#353535" stroke-miterlimit="10" stroke-width="3"/>
        <path d="M49.23,270.35s5.34,7,5.83,13.93c.14,2-24.27,2-24.76-.17a37.18,37.18,0,0,1-.82-8.35C34.55,272,41.5,270,49.23,270.35Z" fill="#6a3417"/>
        <path d="M126.91,79.31c.61-7.12,4.12-11.56,10.37-13.85,26,3.26,54,7.34,82.16,5.88C233,73.62,243,82.58,244.52,98.2c2,20.86-26.58,43.88-73.59,26.79C150,117.39,125.06,100.84,126.91,79.31Z" fill="#353535"/>
        <path d="M43,99.55c0-12.92,20.46-23.69,36.48-.75,12.66,18.14,9.65,27.56,29.45,39.19,42.67,25.06,31.9,56.93,29.81,61-16.88-4.73-32.66-13.25-44.2-23.46-12,15-24.18,26.32-30.87,33.7-3,3.32-7.38,13.83-10.52,27.36-10.15-1.76-11-9.48-8.08-25.36,1.09-6,5-15.54-.5-27C53.35,158.17,43.7,131,43,99.55Z" fill="#353535"/>
        <path d="M110.59,156.51a135.39,135.39,0,0,1-14,20.77c-.72-.57-1.46-1.2-2.12-1.75,5.12-6.36,9.69-13.18,14.17-20C111.3,151.42,112.59,152.81,110.59,156.51Z" fill="#eed5c4"/>
        <path d="M239.58,69.26c44.9-7.11,50.62-30.31,76.53-35.12l10,48.69c-8.71,15.44-8.11,51.82-15,70.12-7.39,19.73-22.12,32.75-41.86,39.53-2.06.71-5,1.66-8.72,2.74-.87,2-1.71,4-2.53,6-11.53-2.36-20.16-6.06-25.6-20.25-13.65-35.65,21.64-49.43,32.26-66.08,7.16-11.24,7.32-19.93,4.43-27.68C265.32,77,254.88,70.06,239.58,69.26Z" fill="#353535"/>
        <path d="M260.7,195.18q5.48-13.73,11.89-27.07c2.53-5.26,4.2-4.65,2.07.75-3.51,8.87-7.36,16.82-10.82,25.38Z" fill="#eed5c4"/>
        <path d="M286.21,54.21a107.23,107.23,0,0,0,5.22,28.18c1.92,6,1.63,9.36-1.95.71a82.32,82.32,0,0,1-5.75-28.22Z" fill="#eed5c4"/>
        <g>
          <path d="M282.35,8.32c1.9-6.13,3.39-2.95,4.63.32,3,7.84,8.49,13.9,16.54,15.74l-9.34,14.08C279.5,32.76,280,15.87,282.35,8.32Z" fill="#ce894a" stroke="#75411a" stroke-miterlimit="10" stroke-width="3"/>
          <path d="M345.89,4.1c-2.83-4.92-3.5-1.89-3.94,1.17-1.06,7.35-4.64,13.64-11.23,16.79l10.06,10.88C352.35,25.17,349.37,10.16,345.89,4.1Z" fill="#ce894a" stroke="#75411a" stroke-miterlimit="10" stroke-width="3"/>
        </g>
        <g>
          <path d="M344.65,32.15c13.53.34,25.84,8.28,29,12.53,1.84,2.52,1.08,3.63.42,4.42-2,2.39-13.08,7.37-24.71-2.48Z" fill="#353535"/>
          <path d="M346.09,37.46c7.13,9.17,16.9,10.66,24,11.77,3.39.53,2,1.49,0,2.2-4.66,1.7-12.6,2.15-20.82-4.81Z" fill="#d98885"/>
          <path d="M300.07,99c5.69,10.5,18.05,26.43,39.53,22.42,22.42-4.19,23.1-15.93,18.17-33-4.44-15.36-4.28-19.84-6.1-34.14-1.38-10.9-2.95-18.48-7.95-25.58-10.05-14.27-45.74-12.39-54,7.1C284.09,49.09,289,78.48,300.07,99Z" fill="#eed5c4"/>
          <path d="M293.22,36c-16.18,3.13-29.31,14-32.17,19-1.7,3-.55,4,.4,4.71,2.92,2.08,17.24,5,29.18-7.66Z" fill="#353535"/>
          <path d="M292.6,41.82c-10.89,12.26-22.27,13.68-27.88,15.54s-.58,3.65,1.89,4c5.95.82,15.58-.34,24-9.3Z" fill="#d98885"/>
          <path d="M351.72,54.24c.4,3.71.77,6.76,1.09,9.51-4.47,10.09-18.19,5.88-19.34-13.5-.53-9,1.53-15.51,4.73-18.14,2.62-2.15,5.38-2.57,7.71.09C347.79,35.37,350.28,40.78,351.72,54.24Z" fill="#353535"/>
          <path d="M289.68,35.74a23.75,23.75,0,0,1,11.58-11.87c15.2,1.36,22.57,32.57,14.34,49.2-4.91,9.91-18.94,16.6-12.74,30.54a58.28,58.28,0,0,1-5.16-8.85C288.25,75.23,284.25,48.56,289.68,35.74Z" fill="#353535"/>
          <path d="M315.37,88.24c6.9-2.63,12.61.14,17.47-.64,5.25-.85,8.53-4.07,14.58-4.26,8.15-.26,11.92,3.93,13.7,9.71,4.29,13.9-.36,25.78-20.43,29.53-11.48,2.14-20.94-1.42-27.59-7.45C306.71,109.34,301.61,93.48,315.37,88.24Z" fill="#d98885" stroke="#781f1a" stroke-miterlimit="10" stroke-width="3"/>
          <path d="M350.36,91.08c2.74.24.77,7.82-4.44,6.2C343,96.35,348,90.87,350.36,91.08Z" fill="#781f1a"/>
          <path d="M319.39,94.62c-2.93,1,1.42,8.77,6.63,5.5C329,98.24,321.92,93.71,319.39,94.62Z" fill="#781f1a"/>
          <g>
            <path d="M303.05,54.51c5.51.34,4.63,9.29,0,9S297.84,54.19,303.05,54.51Z" fill="#462619"/>
            <path d="M343.27,50.26c4.5.1,4,8.37.22,8.28S339,50.16,343.27,50.26Z" fill="#462619"/>
          </g>
          <g>
            <ellipse cx="342.63" cy="56.6" rx="9.22" ry="9.38" transform="translate(1.78 123.09) rotate(-20.42)" fill="#fff"/>
            <ellipse cx="340.88" cy="56.82" rx="5.83" ry="6.5" transform="translate(-4.28 39.67) rotate(-6.62)" fill="#333"/>
            <ellipse cx="342.39" cy="54.29" rx="1.6" ry="1.76" transform="translate(-3.98 39.83) rotate(-6.62)" fill="#fff"/>
          </g>
          <g>
            <ellipse cx="304.81" cy="59.68" rx="9.38" ry="9.22" transform="translate(142.53 324.52) rotate(-69.58)" fill="#fff"/>
            <ellipse cx="306.44" cy="59.68" rx="6.5" ry="5.83" transform="translate(211.83 357.2) rotate(-83.38)" fill="#333"/>
            <ellipse cx="304.93" cy="57.16" rx="1.76" ry="1.6" transform="translate(213 353.47) rotate(-83.38)" fill="#fff"/>
          </g>
        </g>
        <g>
          <g>
            <path d="M303.05,54.51c5.51.34,4.63,9.29,0,9S297.84,54.19,303.05,54.51Z" fill="#462619"/>
            <path d="M343.27,50.26c4.5.1,4,8.37.22,8.28S339,50.16,343.27,50.26Z" fill="#462619"/>
          </g>
          <path d="M373.6,44.68c-3-4.11-14.65-11.67-27.67-12.46l0,0,0,0a33.37,33.37,0,0,0-2.17-3.52c-7.36-10.45-28.45-12.23-42.46-4.79h0c-.4.21-.81.43-1.2.66a23.31,23.31,0,0,0-10.37,11.2c-.17.38-.32.78-.46,1.19-14.31,4-25.55,13.43-28.17,18.08-1.7,3-.55,4,.4,4.71a12.63,12.63,0,0,0,5,1.61l.19,0,.16,0,.84.09.23,0,1.09.07h.25c.31,0,.62,0,.94,0h.33l1.22-.06h.09l1.19-.12.36,0c.36-.05.73-.1,1.11-.17l.24,0c.44-.08.89-.18,1.35-.29l.33-.09c.37-.09.74-.19,1.11-.31l.37-.1c.46-.15.93-.31,1.41-.49l.21-.09,1.24-.51.4-.19c.43-.2.87-.41,1.3-.64l.17-.08c.48-.26,1-.54,1.45-.84l.38-.24c.39-.25.78-.51,1.16-.78l.35-.24q.74-.52,1.44-1.11h0A110.39,110.39,0,0,0,297.7,94.76a58.28,58.28,0,0,0,5.16,8.85h0a49,49,0,0,0,9.39,10.68c.28.3.56.58.85.84,6.65,6,16.11,9.59,27.59,7.45,20.07-3.75,24.72-15.63,20.43-29.53a14.58,14.58,0,0,0-3.9-6.63,125,125,0,0,1-4.41-22.67h0c0-.11,0-.22,0-.33-.18-1.53-.36-3.15-.57-4.92-.16-1.32-.31-2.74-.48-4.26-.25-2.37-.54-4.48-.85-6.38l.19.13c.37.27.74.52,1.11.77l.28.18c.44.29.89.55,1.33.8l.32.16c.36.2.71.37,1.06.54l.35.17c.44.19.87.38,1.3.54l.15.05c.39.15.77.28,1.15.39l.35.11c.37.1.72.2,1.08.28l.19.05c.41.09.81.16,1.21.22l.31,0,.94.11.29,0,1.13.06h.2c.31,0,.62,0,.92,0h.3c.33,0,.66,0,1-.08h.08c.34,0,.67-.08,1-.14l.26,0c.26,0,.51-.1.76-.15l.2-.05.87-.23.18-.06.67-.22.12,0,.15-.06.14,0,.23-.1A9.19,9.19,0,0,0,374,49.1C374.68,48.31,375.44,47.2,373.6,44.68Z" fill="none" stroke="#353535" stroke-miterlimit="10" stroke-width="3"/>
        </g>
        <g>
          <path d="M93.13,72.41a11.59,11.59,0,0,1,7.16,1c1.83.9,1.44,2.74-.42,3.34a14,14,0,0,1-8,.32C89.4,76.33,88.34,73.17,93.13,72.41Z" fill="#fff2e9"/>
          <path d="M64.41,73.12a10.31,10.31,0,0,1,6.43.44c1.69.68,1.47,2.34-.15,3a12.39,12.39,0,0,1-7.06.82C61.35,76.86,60.2,74.11,64.41,73.12Z" fill="#fff2e9"/>
          <path d="M178,193.86c1.47,1,1,2.51-.67,2.86-3.47.73-7.51,0-6.94-2.65C170.77,192.46,175.09,191.83,178,193.86Z" fill="#fff2e9"/>
          <path d="M156.28,191.23c1.86,1.54,1,3.52-1.27,3.79-4.77.55-10.14-.87-9-4.43C146.63,188.45,152.53,188.14,156.28,191.23Z" fill="#fff2e9"/>
          <path d="M109.85,78c1.56.84,1.26,2.39-.37,2.92-3.37,1.09-7.46.84-7.18-1.9C102.47,77.35,106.69,76.26,109.85,78Z" fill="#fff2e9"/>
          <path d="M78.29,77.44a1.4,1.4,0,0,1-.09,2.7c-2.77,1.15-5.77.87-5.72-1.46C72.52,77.17,75.92,76.25,78.29,77.44Z" fill="#fff2e9"/>
          <path d="M295.69,160.42a10.37,10.37,0,0,1,3.71-5.28c1.45-1.1,2.76,0,2.49,1.68a12.55,12.55,0,0,1-2.94,6.47C297.32,165,294.37,164.54,295.69,160.42Z" fill="#575757"/>
          <path d="M301.14,141.35a1.4,1.4,0,0,1,2.27,1.46c-.45,3-2.23,5.4-4.2,4.15C297.94,146.15,298.91,142.76,301.14,141.35Z" fill="#575757"/>
          <path d="M290.82,162.93a1.06,1.06,0,0,1,1.72,1.11c-.34,2.24-1.69,4.07-3.18,3.13C288.4,166.55,289.13,164,290.82,162.93Z" fill="#575757"/>
          <path d="M122.76,71.82c0,1.43-5,1.92-4.64-.46C118.39,69.7,122.81,70.22,122.76,71.82Z" fill="#fff2e9"/>
          <path d="M83.56,70.45c.07,1.43-4.87,2.28-4.66-.12C79.05,68.66,83.49,68.85,83.56,70.45Z" fill="#fff2e9"/>
          <path d="M162,198.29c-.11,1.43-5.12,1.68-4.62-.67C157.76,196,162.15,196.7,162,198.29Z" fill="#fff2e9"/>
          <path d="M136.65,190.25c-.61,1.85-7.29.53-5.85-2.41C131.8,185.79,137.34,188.2,136.65,190.25Z" fill="#575757"/>
          <path d="M129.38,183.67c-.27,1.4-4.48.87-3.9-1.09C126,181,129.67,182.1,129.38,183.67Z" fill="#575757"/>
        </g>
      </g>
    </g>
  </g>
</svg>
