<svg xmlns="http://www.w3.org/2000/svg" width="79.5" height="52.72" viewBox="0 0 79.5 52.72">
  <g id="Layer_2" data-name="Layer 2">
    <g id="Layer_1-2" data-name="Layer 1">
      <g id="to_duck">
        <g>
          <g>
            <path d="M6.45,29.3A8.91,8.91,0,0,0,4,29.46a.9.9,0,0,1-.53-.28,1.19,1.19,0,0,0-.08-.79,1.59,1.59,0,0,0-2-.58h0l-.24.1A1.65,1.65,0,0,0,.12,30a1.15,1.15,0,0,0,.2.29l.08.06a1.12,1.12,0,0,0,.22.16l.08.05a2.06,2.06,0,0,0,.35.12h0a2,2,0,0,0,.36,0H1.5l-.05,0-.18.14L1.14,31,1,31.11l-.11.13-.12.16a1.09,1.09,0,0,0-.08.15,1.09,1.09,0,0,0-.08.15,1.22,1.22,0,0,0-.07.17c0,.05,0,.1,0,.15a1.13,1.13,0,0,0,0,.18s0,.1,0,.14a1.49,1.49,0,0,0,0,.21s0,.08,0,.11A1.15,1.15,0,0,0,.58,33a1.06,1.06,0,0,0,.17.26l.06.07.16.14.09.07.19.1.1,0a1,1,0,0,0,.25.08l.06,0a1.86,1.86,0,0,0,.33,0h.36l.14,0,.11,0a.46.46,0,0,0-.07.07l-.09.09a1.22,1.22,0,0,0-.15.17l-.06.08a1.43,1.43,0,0,0-.15.27.08.08,0,0,0,0,0A1,1,0,0,0,2,34.7a.3.3,0,0,0,0,.1.63.63,0,0,0,0,.19v.1a1.27,1.27,0,0,0,0,.2s0,.06,0,.09a1.22,1.22,0,0,0,.09.27,1.77,1.77,0,0,0,2.4.56l.23-.13h0A2.42,2.42,0,0,0,5,35.81a.5.5,0,0,1,.34.31,5.06,5.06,0,0,0,1,1.3l1.82-7.84A10.47,10.47,0,0,0,6.45,29.3Z" fill="#cc411b"/>
            <path d="M13.36,52.36h0a1.58,1.58,0,0,0,.78-2,1.21,1.21,0,0,0-.6-.56,1,1,0,0,1,.07-.72,8.79,8.79,0,0,0,1.65-1.86,9.69,9.69,0,0,0,.83-1.53L8.77,42.38A5.09,5.09,0,0,0,9.19,44a.6.6,0,0,1,0,.63l-.31.09h0l-.24.1a1.76,1.76,0,0,0-1,2.23,1.32,1.32,0,0,0,.16.25l.06.06.14.14L8,47.5a1,1,0,0,0,.17.1l.09,0,.23.08.05,0,.31,0h.32l.13,0h.1a.6.6,0,0,0-.08.08l-.1.09a1.46,1.46,0,0,0-.16.19L9,48.18a2.29,2.29,0,0,0-.18.29l0,.06a1.25,1.25,0,0,0-.09.25l0,.11,0,.2v.12a1.48,1.48,0,0,0,0,.21s0,.06,0,.09a1.18,1.18,0,0,0,.1.3,1.27,1.27,0,0,0,.18.27.27.27,0,0,0,.08.07,1.06,1.06,0,0,0,.15.15l.12.07.16.09.15.06.17,0,.17,0,.17,0h.37l.21,0,.16,0a.9.9,0,0,0,.22-.06h.05l0,0a2.23,2.23,0,0,0-.2.3v0a1.12,1.12,0,0,0-.12.35s0,.06,0,.09a1.22,1.22,0,0,0,0,.27.31.31,0,0,0,0,.1,1,1,0,0,0,.1.34,1.65,1.65,0,0,0,2.25.49Z" fill="#cc411b"/>
          </g>
          <g>
            <path d="M16,47c-3.11,0-5.66-2.37-8.26-7.7L7.52,39c-4-8.4,0-11.37,2.12-13l.66-.51c.22-.38.48-.78.8-1.23A3.4,3.4,0,0,1,11.68,22c1.7-2.55,6.57-3.23,8-3.37a14.3,14.3,0,0,1,1.5-.08,32.38,32.38,0,0,1,6,.73,22.42,22.42,0,0,0,2.23.36c5.56-.52,17.92-6,20.43-8.65a1.5,1.5,0,0,1,1.09-.47l.23,0a1.54,1.54,0,0,1,1.12.83l4.48,9.28a1.5,1.5,0,0,1-1.35,2.15h0c-3.93,0-12.44,5.4-18.88,10.73l-.1.08-.05.06a18.43,18.43,0,0,0-1.11,2A27.06,27.06,0,0,1,31.16,42c-1,1-4.3,4.27-7.29,4.27h0A3.49,3.49,0,0,1,22.38,46l-.2,0a6.83,6.83,0,0,1-1.3.12,5.62,5.62,0,0,1-.58,0,11.26,11.26,0,0,0-1.41.36A10.11,10.11,0,0,1,16,47Z" fill="#f9d319"/>
            <path d="M50.92,12l1.15,2.39,3.33,6.89h-.14c-5,0-14.89,7.05-19.74,11.07-.09.08-.18.14-.26.2a.78.78,0,0,1-.11.18h0c-1,1.4-2.52,5.52-5.08,8.2-1.87,2-4.39,3.81-6.2,3.81a1.92,1.92,0,0,1-1.3-.44,3.94,3.94,0,0,1-.69.21,5.47,5.47,0,0,1-1,.09l-.62,0c-1.4.17-2.79.92-4.31.92-2,0-4.19-1.29-6.92-6.86l-.15-.31c-4.05-8.55.81-10.21,2.59-11.88a19.91,19.91,0,0,1,1.24-1.85.56.56,0,0,0,0-.12c-.76-2.54,3.49-4,7.18-4.37a12.21,12.21,0,0,1,1.35-.07c3.31,0,6.7,1.06,8.25,1.09C35.26,20.66,48.1,15,50.92,12m0-3a3,3,0,0,0-2.18.94c-2.09,2.21-13.78,7.6-19.36,8.17-.41,0-1.22-.19-1.93-.32a33,33,0,0,0-6.25-.76c-.57,0-1.13,0-1.65.08-2.07.21-7.11,1-9.12,4a4.86,4.86,0,0,0-.84,2.66c-.16.23-.31.45-.44.66l-.41.32C6.62,26.4,1.66,30.11,6.17,39.63l.17.35c1.95,4,4.8,8.54,9.61,8.54a11.53,11.53,0,0,0,3.36-.61,11,11,0,0,1,1.07-.29h.5a7.68,7.68,0,0,0,1.37-.11,5.09,5.09,0,0,0,1.62.25c3.48,0,7-3.31,8.37-4.74a27.47,27.47,0,0,0,4.31-6.65c.33-.65.7-1.38.93-1.72,6.06-5,14.35-10.35,17.78-10.35h.14A3,3,0,0,0,58.1,20l-3.33-6.89-1.15-2.38a3,3,0,0,0-2.24-1.66,3.73,3.73,0,0,0-.46,0Z" fill="#e57225"/>
          </g>
          <g>
            <path d="M35.15,32.76a.78.78,0,0,0,.11-.18c.08-.06.17-.12.26-.2,4.9-4.05,14.87-11.2,19.88-11.07l-3.33-6.89L50.92,12c-2.82,3-15.66,8.63-21.47,9.12-2.66-.1-13.51-.65-16.15,2.68a21.69,21.69,0,0,0-1.83,2.64C9.69,28.14,4.83,29.8,8.88,38.35l.15.31C13.85,48.5,17,45,20.26,44.6a5.44,5.44,0,0,0,1.62-.06,3.94,3.94,0,0,0,1.21-.46C25.56,42.61,33.89,34.2,35.15,32.76Z" fill="#fcd54d"/>
            <path d="M19.85,20.13c-3.69.37-7.94,1.83-7.18,4.37a2.31,2.31,0,0,0,.1.28c.85,2.27,3.14,2.29,6.5.6,2.27-1.14,5.88-2.58,8.13-3.45,1.22-.48,2.05-.78,2.05-.78C27.69,21.11,23.54,19.76,19.85,20.13Z" fill="#ffeb81"/>
            <path d="M30.07,41c2.56-2.68,4-6.8,5.08-8.2,0,0-6.06,3.76-9.59,5.44S20.68,41.79,22.21,44,27.52,43.65,30.07,41Z" fill="#ffeb81"/>
          </g>
        </g>
        <g>
          <path d="M59.65,29.32c-1.83,0-3.45-1.08-4.89-2a15.22,15.22,0,0,0-1.47-.92c-.46-.23-1-.45-1.68-.69-2.11-.78-4.73-1.75-6.1-4.54-1.49-3.06-.85-6.28-.28-9.11.09-.44.18-.88.26-1.3s.18-1.09.26-1.64c.41-2.75.87-5.86,3.45-7.12a4.53,4.53,0,0,1,2-.47,5.48,5.48,0,0,1,3.93,1.76,4,4,0,0,1,.53.68,21.61,21.61,0,0,1,6.91-1.37,12.64,12.64,0,0,1,2.64.27,10.77,10.77,0,0,1,1.57.44A7.33,7.33,0,0,1,69.47,5c1.39-1.57,2.46-2.66,3.76-2.66a2.16,2.16,0,0,1,2,1.46,3.47,3.47,0,0,1,2,.91A2.58,2.58,0,0,1,78,6.56c0,2.31-3.56,4-5.66,4.69a7.4,7.4,0,0,1-.43,3.13,16.17,16.17,0,0,1-6.62,7.69c.53,2-1,5.07-3.24,6.53a4.29,4.29,0,0,1-2.39.72Z" fill="#f9d319"/>
          <path d="M51.21,3c1.85,0,3.53,1.6,3.46,2.6a3,3,0,0,1,0,.31,22.6,22.6,0,0,1,7.94-1.84,11.34,11.34,0,0,1,2.32.23,10.86,10.86,0,0,1,1.38.39,6.46,6.46,0,0,1,3.16,2.55h0c1.49-1.66,2.88-3.46,3.78-3.46.42,0,.74.41.9,1.42h.33c.66,0,2.05.15,2,1.36,0,1.59-4.74,3.51-5.8,3.63l0-.06a6.63,6.63,0,0,1-.16,3.72A15.26,15.26,0,0,1,63,21.69c1.91.12.73,4.06-1.71,5.66a2.89,2.89,0,0,1-1.58.47c-2,0-4-1.94-5.69-2.78-2.11-1.08-5.63-1.53-7.11-4.56S46.41,14,47,11s.61-6.57,2.9-7.69A3,3,0,0,1,51.21,3m0-3a6,6,0,0,0-2.67.62c-3.29,1.61-3.84,5.29-4.28,8.26-.08.53-.15,1.06-.25,1.58s-.16.84-.25,1.27c-.58,2.92-1.32,6.55.4,10.07,1.64,3.33,4.82,4.51,6.93,5.29.58.22,1.13.42,1.52.62s.82.49,1.32.82c1.53,1,3.44,2.29,5.73,2.29a5.78,5.78,0,0,0,3.21-1,9,9,0,0,0,4-7,17.34,17.34,0,0,0,6.42-7.89,8.26,8.26,0,0,0,.53-2.63c2.47-1,5.64-2.88,5.66-5.71a4.12,4.12,0,0,0-1.19-3,4.64,4.64,0,0,0-2.06-1.18,3.61,3.61,0,0,0-3-1.63c-1.52,0-2.72.88-3.91,2.11a8.79,8.79,0,0,0-2-1,13.65,13.65,0,0,0-1.77-.49,14.31,14.31,0,0,0-2.94-.3,21.48,21.48,0,0,0-6.4,1.11,7,7,0,0,0-5-2.18Z" fill="#e57225"/>
        </g>
        <g>
          <path d="M70.51,13.84a6.63,6.63,0,0,0,.16-3.72l0,.06c1.06-.12,5.79-2,5.8-3.63S74.41,5.18,74.15,5.2h0c-.5-3.15-2.49-.41-4.68,2h0a6.46,6.46,0,0,0-3.16-2.55,10.86,10.86,0,0,0-1.38-.39c-3.22-.68-6.53.18-10.27,1.61a9.35,9.35,0,0,0-.7,1.9,10.51,10.51,0,0,0-.32,1.6,10.21,10.21,0,0,0,1,5.94c2,4,3.53,7,6.12,7a4.76,4.76,0,0,0,2.2-.63A15.26,15.26,0,0,0,70.51,13.84Z" fill="#fcd54d"/>
          <path d="M61.24,27.35c2.44-1.6,3.62-5.54,1.71-5.66s-4.12-1.14-4-2.47c.06-.53.13-1.14.16-1.78a6.58,6.58,0,0,0-.46-2.88,9.47,9.47,0,0,0-2.44-3c-.25-.26-.54-.55-.84-.89-1.71-1.87-.85-3.14-.72-5.09.09-1.25-2.52-3.41-4.81-2.29S47.52,8,47,11s-1.59,6.44-.1,9.48S51.86,24,54,25,58.79,28.94,61.24,27.35Z" fill="#ff8d3d"/>
          <path d="M61.11,24.55a.37.37,0,0,0-.3-.43c-2-.36-3.8-1.92-5.27-3.95h0c.73-.47-.72-2-.68-2.42,0-.16,0-.34.05-.53a2,2,0,0,0-.14-.86,2.71,2.71,0,0,0-.73-.89l-.25-.27c-.49-.53-1-2.32-1.65-2.18-.15-.54-.28-1.07-.38-1.56-.48-2.44-.3-4.25.45-4.72a.38.38,0,0,0,.12-.52.37.37,0,0,0-.52-.12c-1.06.67-1.34,2.67-.79,5.51.13.64.32,1.34.53,2.05a12,12,0,0,0-.27,1.63,4.42,4.42,0,0,0,0,2.83c.44.91,1.49,1,2.12,1.36a10.73,10.73,0,0,0,1.26.74c1.62,2.37,3.67,4.23,6,4.65A.37.37,0,0,0,61.11,24.55Z" fill="#af2d0e"/>
          <g>
            <ellipse cx="60.14" cy="9.53" rx="2.04" ry="1.36" transform="translate(1.94 27.42) rotate(-26.1)" fill="#252324"/>
            <ellipse cx="62.99" cy="15.36" rx="2.04" ry="1.36" transform="translate(-0.34 29.27) rotate(-26.1)" fill="#252324"/>
          </g>
        </g>
      </g>
    </g>
  </g>
</svg>
