<svg xmlns="http://www.w3.org/2000/svg" viewBox="0 0 41.5 11.9"><g style="isolation:isolate"><g id="Layer_2" data-name="Layer 2"><g id="Layer_1-2" data-name="Layer 1"><g id="fu_book_4" data-name="fu_book 4"><path d="M24.5.5H.5a7.7,7.7,0,0,1,0,10.9h24A7.7,7.7,0,0,0,24.5.5Z" style="fill:#879ef1"/><path d="M22.1,1H.5a7.1,7.1,0,0,1,0,9.9H22.1A7.1,7.1,0,0,0,22.1,1Z" style="fill:#ffefe1"/><path d="M39.6,1.5a2.6,2.6,0,0,0-2-1H23a7.7,7.7,0,0,1,0,10.9H37.6a2.6,2.6,0,0,0,2-1A7.7,7.7,0,0,0,39.6,1.5Z" style="fill:#b9e48e"/><ellipse cx="34.1" cy="6.3" rx="5" ry="2.2" style="fill:#baa2ee"/><path d="M20.4,9.5H13.1a.3.3,0,0,1-.3-.3l.3-.2h7.3c.2,0,.3.1.3.2A.3.3,0,0,1,20.4,9.5Z" style="fill:#ebebeb;mix-blend-mode:multiply"/><path d="M22.7,6.5H16.9c-.2,0-.3-.1-.3-.2a.3.3,0,0,1,.3-.3h5.8a.3.3,0,0,1,.3.3C23,6.4,22.8,6.5,22.7,6.5Z" style="fill:#ebebeb;mix-blend-mode:multiply"/><path d="M20.2,3.9H12.9a.3.3,0,0,1-.3-.3.3.3,0,0,1,.3-.3h7.3c.1,0,.2.1.2.3S20.3,3.9,20.2,3.9Z" style="fill:#ebebeb;mix-blend-mode:multiply"/><path d="M8.5,9.5H4.1a.3.3,0,0,1-.3-.3c0-.1.1-.2.3-.2H8.5l.3.2A.3.3,0,0,1,8.5,9.5Z" style="fill:#ebebeb;mix-blend-mode:multiply"/><path d="M9.3,3.3V5.9c0,.3.5.5.8.3l.7-.5a.4.4,0,0,1,.5,0l.7.5a.4.4,0,0,0,.7-.3V3.3Z" style="fill:#ffe76b"/><path d="M39.6,1.5a2.6,2.6,0,0,0-2-1H.5L1,1H.5a7.1,7.1,0,0,1,0,9.9H1l-.5.5H37.6a2.6,2.6,0,0,0,2-1A7.7,7.7,0,0,0,39.6,1.5Z" style="fill:none;stroke:#96b85c;stroke-linecap:round;stroke-linejoin:round"/></g></g></g></g></svg>