<svg xmlns="http://www.w3.org/2000/svg" viewBox="0 0 46.4 38.6"><g style="isolation:isolate"><g id="Layer_2" data-name="Layer 2"><g id="Layer_1-2" data-name="Layer 1"><g id="to_black_3" data-name="to_black 3"><path d="M9.6,37V1.8l32.7.6A2.6,2.6,0,0,1,44.9,5V34.4A2.6,2.6,0,0,1,42.3,37Z" style="fill:#ffaa5a"/><path d="M11.1,3.3,40,3.8h2.3A1.1,1.1,0,0,1,43.4,5V34.4a1.1,1.1,0,0,1-1.1,1.1H11.1V3.3M8.1.2V38.5H42.3a4.1,4.1,0,0,0,4.1-4.1V5a4.1,4.1,0,0,0-4-4.1H40.1L11.2.3Z" style="fill:#ff8d3d"/><path d="M11.1,35.5H6.2a.5.5,0,0,1-.5-.5V4.4a.7.7,0,0,1,.4-.6l5-.5Z" style="fill:#db3737"/><path d="M33.9,14.1c0-2-5.8-5.1-10.8-2.6s-6.8,11.1-1.9,14.9,12.7.4,13.1-1.5S33,21.8,30.7,23s-7.2.7-7.4-3.1,3-6.4,7.6-5C33.3,15.7,33.9,14.7,33.9,14.1Z" style="fill:#ffeb81"/><path d="M8.2,10c1.2,0,1,18.1,0,18.1S7,10,8.2,10Z" style="fill:#ea773d"/><path d="M3.5,37.1a2,2,0,0,1-2-2V4.4a2.1,2.1,0,0,1,1.8-2L10,1.7V37.1Z" style="fill:#e84e2c"/><path d="M8.5,3.4V35.6h-5a.5.5,0,0,1-.5-.5V4.4c0-.2.2-.4.5-.5l5-.5m3-3.4L8.1.4,3.1.9A3.6,3.6,0,0,0,0,4.4V35.1a3.5,3.5,0,0,0,3.5,3.5h8V0Z" style="fill:#c2331d"/><path d="M43.4,5V34.4a1.1,1.1,0,0,1-1.1,1.1H11.1V32.2C39.3,30.1,40.2,13.7,40,3.8h2.3A1.1,1.1,0,0,1,43.4,5Z" style="fill:#ea773d;opacity:0.5;mix-blend-mode:multiply"/></g></g></g></g></svg>