<svg xmlns="http://www.w3.org/2000/svg" viewBox="0 0 56.2 25.1"><g id="Layer_2" data-name="Layer 2"><g id="Layer_1-2" data-name="Layer 1"><g id="fo_meat_stick" data-name="fo_meat stick"><path d="M4,24.1a1,1,0,0,1-1.1-.6c0-.1-.1-.2-.1-.3L1,13.3a1,1,0,0,1,.7-1.1A76.1,76.1,0,0,1,15.2,9.1a59.7,59.7,0,0,0,9.9-2.3c2-.6,3.8-1.2,5.7-1.6a64.3,64.3,0,0,1,6.8-1.1,11.7,11.7,0,0,0,2.2-.3l2.6-.7C46.4,2,50.1,1,52,1h.4a1.1,1.1,0,0,1,.9.8l1.9,10.5a1.1,1.1,0,0,1-.1.8l-.7.4c-.3,0-9.1,1.6-12.3,2A57.4,57.4,0,0,0,33.5,18l-3.9,1.3a31,31,0,0,1-6.7,1,24.1,24.1,0,0,0-6.7,1A59.6,59.6,0,0,1,4,24.1Z" style="fill:#af7553"/><path d="M52,2h.3l.2,1.1,1.2,6.5.5,2.9L42,14.6c-3.2.4-8.1,2.3-12.7,3.7s-9.1.5-13.5,2.1A56.6,56.6,0,0,1,4,23.1H3.8l-.5-2.7-.8-4.5L2,13.2a73.9,73.9,0,0,1,13.3-3.1C21.2,9.4,26.2,7.2,31,6.2s7.3-1,9-1.4S49.4,2,52,2m0-2c-2,0-5.8,1-9.9,2.2l-2.5.7-2.1.2a65.2,65.2,0,0,0-6.9,1.1c-1.9.4-3.8,1-5.8,1.6a59.7,59.7,0,0,1-9.7,2.3A74.2,74.2,0,0,0,1.4,11.3,2,2,0,0,0,0,13.5l.5,2.8.9,4.4.4,2.6c.1.2.1.4.2.6a2,2,0,0,0,2,1.2,58.4,58.4,0,0,0,12.5-2.8,19.5,19.5,0,0,1,6.4-1A29.9,29.9,0,0,0,30,20.2l3.8-1.3a57.2,57.2,0,0,1,8.4-2.4c3.2-.4,12-2,12.4-2a2,2,0,0,0,1.3-.9,1.9,1.9,0,0,0,.3-1.5l-.5-2.8L54.5,2.8l-.2-1.1A2.3,2.3,0,0,0,52.6,0Z" style="fill:#75411a"/><path d="M33.8,13.6c-2.4,1.3-9.9,3.1-13.6,3.3S7.5,19.3,3.3,20.4l.5,2.7c-.2.2,6.8-.9,12-2.7s9.1-.7,13.5-2.1S38.8,15,42,14.6l12.2-2.1-.5-2.9a53.6,53.6,0,0,1-7,1C43.1,10.6,36.1,12.3,33.8,13.6Z" style="fill:#924f28"/><path d="M31,6.2c-4.8,1-9.8,3.2-15.7,3.9A73.9,73.9,0,0,0,2,13.2l.5,2.7a60.3,60.3,0,0,0,6.9-1.6c4.7-1.3,6.3-2.1,9.7-2.6s5.8-1.9,10.5-3.2A57.1,57.1,0,0,1,41,6.2c2.5-.2,7.8-2.1,11.5-3.1L52.3,2C50.2,1.7,41.7,4.4,40,4.8S35.9,5.1,31,6.2Z" style="fill:#924f28"/><path d="M41,6.2A57.1,57.1,0,0,0,29.6,8.5c-4.7,1.3-7,2.7-10.5,3.2s-5,1.3-9.7,2.6a60.3,60.3,0,0,1-6.9,1.6l.8,4.5c4.2-1.1,14-3.3,16.9-3.5s11.2-2,13.6-3.3,9.3-3,12.9-3a53.6,53.6,0,0,0,7-1L52.5,3.1C48.8,4.1,43.5,6,41,6.2Z" style="fill:#af7553"/></g></g></g></svg>