<svg xmlns="http://www.w3.org/2000/svg" xmlns:xlink="http://www.w3.org/1999/xlink" width="265.59" height="284.49" viewBox="0 0 265.59 284.49">
  <defs>
    <clipPath id="clip-path">
      <path d="M207.91,219.45s-3,26.56-22.58,34.44A228.78,228.78,0,0,1,166.11,213a46.89,46.89,0,0,0,27.56-28.15c1.91-5.57,2.72-11.67,1.26-17.37l-2.94,0v2.2l-3.81,9.22c-.65,1.57-1.3,3.14-2,4.67a43,43,0,0,1-22.88,21C154.42,176.7,148.5,140.73,153.08,98l-14.67-.77-.78,3.09s5.92,63.8,6.28,114.34c-6.9.81-65.63,6.4-76.53-37.91H58.12S66.61,216.1,99,220c28.28,3.37,41.88,2.62,44.89,2.38C143.8,248,142,268.87,136.86,274c0,0,49.41,13.13,60.22-3.09,0,0-1.72-2-4.5-5.91C198.19,256.81,216,229.17,207.91,219.45Z" fill="none"/>
    </clipPath>
    <clipPath id="clip-path-2">
      <path d="M222.68,112.53c-15.18,14.63-37.49,9-52.85.64A59.59,59.59,0,0,0,120.66,109c-16.54,5.7-39.48,7.52-52-9.44L59.27,84.52C39.67,50.31,84.52,12.2,104.1,7.37c35.43-9.91,65.72-7.36,99,8.31,21.25,11.24,56.37,53.08,31.35,83.55Z" fill="none"/>
    </clipPath>
  </defs>
  <g style="isolation: isolate">
    <g id="Layer_2" data-name="Layer 2">
      <g id="Layer_1-2" data-name="Layer 1">
        <g id="na_tree_3" data-name="na_tree 3">
          <path d="M207.91,219.45s-3,26.56-22.58,34.44A228.78,228.78,0,0,1,166.11,213a46.89,46.89,0,0,0,27.56-28.15c1.91-5.57,2.72-11.67,1.26-17.37l-2.94,0v2.2l-3.81,9.22c-.65,1.57-1.3,3.14-2,4.67a43,43,0,0,1-22.88,21C154.42,176.7,148.5,140.73,153.08,98l-14.67-.77-.78,3.09s5.92,63.8,6.28,114.34c-6.9.81-65.63,6.4-76.53-37.91H58.12S66.61,216.1,99,220c28.28,3.37,41.88,2.62,44.89,2.38C143.8,248,142,268.87,136.86,274c0,0,49.41,13.13,60.22-3.09,0,0-1.72-2-4.5-5.91C198.19,256.81,216,229.17,207.91,219.45Z" fill="#ddab88" stroke="#924f28" stroke-miterlimit="10" stroke-width="3"/>
          <g clip-path="url(#clip-path)">
            <g opacity="0.5" style="mix-blend-mode: multiply">
              <path d="M174.39,253.61C170.11,237,170.9,219,163.92,203.18a134.49,134.49,0,0,1-11.34-58.93c.09-2.49.24-5,.43-7.44-.1-1-.18-2-.23-3.05-.3-4.81,1.2-8.42,1.8-12.94,1-5.76,1.66-11.53,2.29-17.24-2.18,12.37-4.23,24.75-5.23,37.32-1.45,18.24,1.51,36.61,4.69,54.54,1.42,8,1.82,16.95,5.3,24.45,4.77,10.27,7,20.33,9.05,31.39a213.26,213.26,0,0,0,6.69,25.37q1.06,3.38,2.14,6.73c2.2-.25,4.37-.58,6.5-1-.29-.66-.6-1.31-.88-1.92C181,271.62,176.84,263.13,174.39,253.61Z" fill="#d98885"/>
              <path d="M98.59,201.32c0-5.12-.19-10.22-.49-15.33-.37,3.65-.81,7.3-1.41,10.95,0,.26-.1.5-.14.76v3.62c0,8.35-1.39,17.15-1.77,25.78.72,2,1.65,4,2.29,6C97.4,222.53,98.54,212,98.59,201.32Z" fill="#d98885"/>
              <path d="M171.21,261.84c-.83-5.52-3.35-10.69-5.56-15.77C156,224,152.92,200.36,150,176.69c-.1,1.14-.18,2.29-.18,3.41a127.47,127.47,0,0,0,1.8,21.06l-.3-.23c1.54,12.5,4,24.84,8.49,36.95,4.78,12.74,7,26.62,7.5,40.19a48.5,48.5,0,0,1-.28,6.42c2.43-.22,5-.4,7.5-.62a25.53,25.53,0,0,0-1.08-3.57C171.48,275.27,172,267.32,171.21,261.84Z" fill="#d98885"/>
              <path d="M181.84,243c-2.12-8-6.73-15.41-9.58-23.18A64.59,64.59,0,0,1,170,212c-.33.7-.67,1.4-1,2.11,0,.08,0,.15,0,.23,2.13,9,6,17.43,8.11,26.42,2.3,9.7,3.63,19.57,6.85,29a95.82,95.82,0,0,0,5.11,11.95,18.38,18.38,0,0,0,3-1.07c-1.63-3.9-3.15-7.84-4.44-11.88C185,260.42,184.07,251.48,181.84,243Z" fill="#d98885"/>
              <path d="M195.05,259.47c-3.93-3-7.07-8.48-8.57-12.58a98.23,98.23,0,0,1-5.61-22.43c-1-2.78-2.05-5.57-3.12-8.34,1.2-11.29,6.18-21.51,11.45-31.72,4.41-8.55,7.51-17.63,11.24-26.44a134.44,134.44,0,0,0-7.18,13.57c-2.44,5.8-4.95,11.58-7.91,17.18-4.2,8-7.74,15.92-8.71,24.49,0-.09-.07-.19-.11-.28a34.59,34.59,0,0,1-2.17-9.31c-1.09,1.93-2.15,3.88-3.16,5.87,1.15,9.75,6.82,19.72,9.46,29.08,2.57,9.05,7,17.31,11.34,25.62a107.67,107.67,0,0,1,5.85,13.42c.42-.22.84-.43,1.26-.62a21.21,21.21,0,0,1,3.84-1.1c-.51-1.07-1-2.12-1.49-3.15C199.41,268.26,197.21,263.88,195.05,259.47Z" fill="#d98885"/>
              <path d="M157.67,240.33c-4.94-15-5.85-28.92-7.41-44.55a175.47,175.47,0,0,0-2.94-18.36c-.91-.69-1.82-1.39-2.74-2.06a165.55,165.55,0,0,1,1.54,20.42c.06,13.09-.55,25.89,3.27,38.55,1.85,6.14,4.23,11.61,4.92,18.1.76,7-3.57,14.08-5.67,20.5-.74,2.26-1.44,4.69-2.09,7.2,2.47,1,5,1.9,7.48,2.67.62-3.88,1.29-7.71,2.25-11.37C159.38,259.59,161.62,252.32,157.67,240.33Z" fill="#d98885"/>
              <path d="M146.39,245.59c-.44-3.17-1.15-6.28-1.72-9.42-.25,6.66-.74,13-3.61,19.1-2,6.76-6.51,12.67-9.88,18.83l-.08.17a44.18,44.18,0,0,1,5.45,1.43c1.72-3.2,4.85-6.64,6.09-9.56C145.25,260,147.35,252.33,146.39,245.59Z" fill="#d98885"/>
              <path d="M116.92,194.12c1.57,6.53,4.85,12.71,7.91,18.62,3.48,6.73,10.29,9.74,13,16.81,0,.56,0,1.13,0,1.69a15.6,15.6,0,0,1,1.18,1.38,13.86,13.86,0,0,1,2.38,5.28c.13-1.06.25-2.12.33-3.17.56-6.86-1.52-13.95-4.05-20.67-.79-.48-1.57-1-2.37-1.43a101.52,101.52,0,0,1,2.06,11.23,14.86,14.86,0,0,0-2-3.44c-4.07-5.13-8.07-9.56-11.43-14.64a9.57,9.57,0,0,1-2.2-3.64,47.52,47.52,0,0,1-2.67-5.55C116,189,115,181,111.44,173.47a144.79,144.79,0,0,1-7.52-21.34c-.36,1.42-.72,2.84-1.1,4.25a56.87,56.87,0,0,0,3.14,9.36C110.27,175.38,114.44,183.75,116.92,194.12Z" fill="#d98885"/>
              <path d="M128,223.48c-5.36-4.52-7-11.57-8.92-18-4.36-14.69-10.83-28.86-17.11-42.81-.12-.26-.57-.07-.47.2l.84,2.28c2.32,5.67,5,11.65,6.71,17.69,3.23,8.43,6.36,16.89,8.87,25.5A47.3,47.3,0,0,0,123.14,221a18.21,18.21,0,0,0,2.36,2.87,62.92,62.92,0,0,1,8.12,4C131.78,226.43,129.86,225.06,128,223.48Z" fill="#d98885"/>
              <path d="M104.44,238.31c-5.36-4.53-7-11.58-8.92-18-4.36-14.7-10.83-28.86-17.11-42.81-.12-.26-.57-.07-.47.2.27.76.56,1.52.84,2.28,2.32,5.67,5,11.65,6.71,17.69,3.22,8.43,6.35,16.88,8.87,25.5a47,47,0,0,0,5.24,12.63,18.21,18.21,0,0,0,2.36,2.87,62.92,62.92,0,0,1,8.12,4C108.24,241.26,106.31,239.89,104.44,238.31Z" fill="#d98885"/>
            </g>
            <path d="M237.76,82.77c-24.06-16.49-46.59-18.38-73-6.16-10,4.15-29.62,26.28-36.46,52.14a56.55,56.55,0,0,0-11.61-8.65c-25.9-12.2-49.74-14.2-77.26-6.5C29.09,116.14,10.24,130.09,3,147-1.26,157-.94,166.73,4,175.28l7.23,11.62.07.1c12.12,16.41,35,10.12,41.76,7.8a44.54,44.54,0,0,1,36.67,3.08c3.82,2.08,13.33,6.63,23.51,6.63a26.45,26.45,0,0,0,19-7.36l7.67-8.67a21.25,21.25,0,0,0,9.7,6.57c9.71,3.13,20-1.34,25.31-4.29,11.55-6.54,23.58-5.52,33.88,2.85,4.22,3.39,12.23,8.67,21.11,8.67a22,22,0,0,0,3.12-.22c6.35-.93,11.84-4.68,16.32-11.16l9-15.14C278.08,140.28,252.91,94.53,237.76,82.77Z" fill="#ddab88" style="mix-blend-mode: multiply"/>
          </g>
          <path d="M207.91,219.45s-3,26.56-22.58,34.44A228.78,228.78,0,0,1,166.11,213a46.89,46.89,0,0,0,27.56-28.15c1.91-5.57,2.72-11.67,1.26-17.37l-2.94,0v2.2l-3.81,9.22c-.65,1.57-1.3,3.14-2,4.67a43,43,0,0,1-22.88,21C154.42,176.7,148.5,140.73,153.08,98l-14.67-.77-.78,3.09s5.92,63.8,6.28,114.34c-6.9.81-65.63,6.4-76.53-37.91H58.12S66.61,216.1,99,220c28.28,3.37,41.88,2.62,44.89,2.38C143.8,248,142,268.87,136.86,274c0,0,49.41,13.13,60.22-3.09,0,0-1.72-2-4.5-5.91C198.19,256.81,216,229.17,207.91,219.45Z" fill="none" stroke="#924f28" stroke-miterlimit="10" stroke-width="3"/>
          <g>
            <path d="M222.68,112.53c-15.18,14.63-37.49,9-52.85.64A59.59,59.59,0,0,0,120.66,109c-16.54,5.7-39.48,7.52-52-9.44L59.27,84.52C39.67,50.31,84.52,12.2,104.1,7.37c35.43-9.91,65.72-7.36,99,8.31,21.25,11.24,56.37,53.08,31.35,83.55Z" fill="#4a8c32" stroke="#2e5b1d" stroke-miterlimit="10" stroke-width="3"/>
            <g clip-path="url(#clip-path-2)">
              <g>
                <path d="M174,74.27c-9.59,9.25-23.7,5.7-33.4.41a37.59,37.59,0,0,0-31.06-2.61c-10.45,3.6-24.95,4.75-32.86-6-2.38-3.81-3.56-5.71-5.93-9.52C58.4,35,86.73,10.88,99.11,7.83c22.38-6.26,41.52-4.65,62.54,5.25,13.43,7.1,35.62,33.54,19.81,52.79Z" fill="#72b75b"/>
                <path d="M205.31,72.05c-7.82,7.53-19.31,4.64-27.22.33a30.7,30.7,0,0,0-25.33-2.13c-8.51,2.94-20.33,3.87-26.78-4.86l-4.84-7.77c-10.09-17.62,13-37.25,23.1-39.74,18.24-5.1,33.85-3.79,51,4.28,10.94,5.79,29,27.35,16.14,43Z" fill="#72b75b"/>
                <path d="M135.39,89.84c-5.74,5.53-14.18,3.41-20,.24a22.58,22.58,0,0,0-18.61-1.56C90.53,90.67,81.85,91.36,77.11,85l-3.55-5.71c-7.41-12.94,9.56-27.36,17-29.19,13.4-3.75,24.86-2.79,37.45,3.14,8,4.25,21.33,20.09,11.87,31.61Z" fill="#72b75b"/>
                <path d="M205.23,89.23c-4.16,4-10.28,2.47-14.48.18a16.34,16.34,0,0,0-13.47-1.13c-4.53,1.56-10.82,2.06-14.25-2.59l-2.57-4.13c-5.37-9.37,6.92-19.81,12.28-21.13a36.41,36.41,0,0,1,27.12,2.27c5.82,3.08,15.44,14.55,8.59,22.89Z" fill="#72b75b"/>
                <path d="M85,54.81c-2.08,2-5.14,1.24-7.24.09A8.16,8.16,0,0,0,71,54.33c-2.26.78-5.4,1-7.12-1.29L62.57,51c-2.68-4.68,3.46-9.9,6.15-10.56a18.16,18.16,0,0,1,13.55,1.14C85.18,43.08,90,48.82,86.57,53Z" fill="#72b75b"/>
                <path d="M219.26,62.75c-2.56,2.47-6.33,1.52-8.92.1a10.08,10.08,0,0,0-8.31-.69c-2.79,1-6.66,1.27-8.78-1.6L191.67,58c-3.31-5.78,4.26-12.22,7.57-13A22.41,22.41,0,0,1,216,46.39c3.58,1.9,9.52,9,5.29,14.11Z" fill="#72b75b"/>
                <path d="M212.65,100.93c-2.22,2.14-5.47,1.32-7.71.1a8.66,8.66,0,0,0-7.17-.61c-2.41.83-5.75,1.1-7.58-1.37l-1.37-2.2c-2.86-5,3.68-10.55,6.54-11.25a19.33,19.33,0,0,1,14.43,1.21c3.1,1.64,8.22,7.74,4.57,12.18Z" fill="#72b75b"/>
                <path d="M137.75,33.71c-1.9,1.83-4.69,1.12-6.61.08a7.45,7.45,0,0,0-6.15-.52c-2.07.71-4.94.94-6.5-1.18l-1.18-1.89c-2.45-4.27,3.16-9,5.61-9.64a16.62,16.62,0,0,1,12.38,1c2.65,1.4,7,6.63,3.92,10.44Z" fill="#98d9e4"/>
                <path d="M169.91,23.72c-2.21,2.13-5.47,1.31-7.7.09a8.7,8.7,0,0,0-7.17-.6c-2.42.83-5.76,1.1-7.59-1.38l-1.37-2.19c-2.85-5,3.69-10.55,6.54-11.25A19.35,19.35,0,0,1,167.06,9.6c3.09,1.64,8.22,7.74,4.57,12.18Z" fill="#72b75b"/>
                <path d="M149.47,24c-1.27,1.23-3.15.76-4.45.05a5,5,0,0,0-4.14-.35c-1.39.48-3.32.64-4.38-.79l-.79-1.27c-1.65-2.88,2.13-6.09,3.78-6.5a11.23,11.23,0,0,1,8.34.7c1.78.95,4.74,4.47,2.64,7Z" fill="#98d9e4"/>
                <path d="M111.53,21a2.18,2.18,0,0,1-2.57,0,2.9,2.9,0,0,0-2.39-.2,2.17,2.17,0,0,1-2.53-.46l-.46-.73c-1-1.66,1.23-3.52,2.18-3.75a6.47,6.47,0,0,1,4.81.4c1,.55,2.74,2.58,1.53,4.06Z" fill="#98d9e4"/>
                <path d="M204,39.38a2.18,2.18,0,0,1-2.57,0,2.9,2.9,0,0,0-2.39-.2,2.16,2.16,0,0,1-2.52-.45l-.46-.74c-1-1.66,1.23-3.51,2.18-3.75a6.43,6.43,0,0,1,4.81.41c1,.54,2.74,2.58,1.52,4.06Z" fill="#98d9e4"/>
              </g>
            </g>
            <path d="M222.68,112.53c-15.18,14.63-37.49,9-52.85.64A59.59,59.59,0,0,0,120.66,109c-16.54,5.7-39.48,7.52-52-9.44L59.27,84.52C39.67,50.31,84.52,12.2,104.1,7.37c35.43-9.91,65.72-7.36,99,8.31,21.25,11.24,56.37,53.08,31.35,83.55Z" fill="none" stroke="#2e5b1d" stroke-miterlimit="10" stroke-width="3"/>
          </g>
          <g>
            <path d="M131.13,187.07c-11.7,11.27-28.89,6.94-40.72.49a45.9,45.9,0,0,0-37.88-3.18c-12.74,4.39-30.41,5.79-40.07-7.27-2.89-4.65-4.33-7-7.23-11.62-15.09-26.35,19.46-55.72,34.55-59.44,27.29-7.63,50.63-5.67,76.26,6.41,16.37,8.65,43.43,40.89,24.15,64.36Z" fill="#4a8c32" stroke="#2e5b1d" stroke-miterlimit="10" stroke-width="3"/>
            <path d="M125.56,169.26c-8.39,8.09-20.72,5-29.21.36a32.9,32.9,0,0,0-27.17-2.28c-9.14,3.15-21.82,4.15-28.75-5.22l-5.18-8.33c-10.83-18.91,14-40,24.78-42.64,19.57-5.48,36.32-4.07,54.71,4.59,11.74,6.21,31.15,29.34,17.32,46.17Z" fill="#72b75b"/>
            <path d="M66,146.14c-4.5,4.33-11.11,2.67-15.66.19a17.65,17.65,0,0,0-14.58-1.23c-4.9,1.69-11.7,2.23-15.42-2.8l-2.78-4.47c-5.81-10.14,7.49-21.44,13.29-22.87,10.5-2.94,19.48-2.18,29.35,2.47,6.3,3.33,16.71,15.73,9.29,24.76Z" fill="#72b75b"/>
            <path d="M50.53,172.63c-2.9,2.78-7.15,1.71-10.08.12a11.34,11.34,0,0,0-9.37-.79c-3.15,1.09-7.52,1.43-9.91-1.8l-1.79-2.87c-3.73-6.52,4.81-13.79,8.55-14.71a25.3,25.3,0,0,1,18.86,1.59c4.05,2.14,10.75,10.11,6,15.92Z" fill="#72b75b"/>
            <path d="M118.23,181.56c-1.45,1.39-3.56.86-5,.07a5.64,5.64,0,0,0-4.66-.4c-1.57.54-3.75.72-4.94-.89l-.89-1.43c-1.86-3.25,2.4-6.86,4.25-7.32a12.62,12.62,0,0,1,9.4.79c2,1.06,5.35,5,3,7.92Z" fill="#72b75b"/>
            <path d="M87.32,117.22a2.3,2.3,0,0,1-2.7,0,3,3,0,0,0-2.51-.22,2.27,2.27,0,0,1-2.66-.48l-.48-.77c-1-1.75,1.29-3.7,2.29-3.94a6.78,6.78,0,0,1,5.06.42c1.09.57,2.88,2.71,1.6,4.27Z" fill="#98d9e4"/>
            <path d="M46.49,116.25a1.43,1.43,0,0,1-1.69,0,1.9,1.9,0,0,0-1.58-.13,1.45,1.45,0,0,1-1.67-.3l-.3-.49c-.63-1.1.81-2.32,1.44-2.47a4.25,4.25,0,0,1,3.17.26c.69.36,1.81,1.71,1,2.68Z" fill="#98d9e4"/>
            <path d="M111,131.07c-1.12,1.08-2.77.66-3.9,0a4.39,4.39,0,0,0-3.63-.3c-1.22.42-2.91.55-3.84-.7L99,129c-1.45-2.53,1.86-5.34,3.31-5.7a9.82,9.82,0,0,1,7.31.62c1.56.83,4.16,3.92,2.31,6.17Z" fill="#98d9e4"/>
            <path d="M117.57,126.06a2,2,0,0,1-2.36,0,2.69,2.69,0,0,0-2.2-.18,2,2,0,0,1-2.32-.42l-.42-.68c-.87-1.52,1.13-3.23,2-3.44a5.94,5.94,0,0,1,4.42.37c1,.5,2.52,2.37,1.4,3.73Z" fill="#98d9e4"/>
            <path d="M133.39,171.34c-2.18,2.1-5.37,1.3-7.57.1a8.49,8.49,0,0,0-7-.59c-2.37.81-5.65,1.07-7.44-1.36L110,167.34c-2.8-4.9,3.62-10.35,6.42-11a19,19,0,0,1,14.16,1.19c3,1.6,8.07,7.59,4.49,11.95Z" fill="#72b75b"/>
          </g>
          <g>
            <path d="M248.05,181.05c-11.48,16.6-27.5,11.12-38.38,2.39s-23.4-9.87-35.56-3-28.89,9.53-37.44-8.75c-2.54-6.52-3.8-9.78-6.34-16.31-13.13-37,20.63-80.45,35-86.39,26-12,47.93-10.2,71.58,6C252,86.7,276.14,131.68,257,166Z" fill="#4a8c32" stroke="#2e5b1d" stroke-miterlimit="10" stroke-width="3"/>
            <path d="M219.67,142.09c-7.2,10.4-17.24,7-24.06,1.5s-14.66-6.18-22.28-1.87-18.1,6-23.47-5.49c-1.58-4.08-2.38-6.13-4-10.22-8.24-23.22,12.92-50.42,21.93-54.14,16.3-7.54,30-6.39,44.86,3.77,9.44,7.33,24.58,35.51,12.59,57Z" fill="#72b75b"/>
            <path d="M242.37,134.08c-4.72,6.83-11.32,4.58-15.8,1a12.31,12.31,0,0,0-14.64-1.22c-5,2.79-11.89,3.92-15.41-3.61l-2.61-6.71C188.5,108.26,202.4,90.4,208.32,88c10.71-5,19.73-4.2,29.47,2.47,6.2,4.82,16.15,23.34,8.27,37.48Z" fill="#72b75b"/>
            <path d="M224.25,162.18c-2.81,4.07-6.74,2.73-9.4.59a7.32,7.32,0,0,0-8.71-.73c-3,1.66-7.08,2.33-9.18-2.15l-1.55-4c-3.22-9.08,5.05-19.71,8.57-21.17,6.38-2.95,11.74-2.5,17.54,1.47,3.69,2.87,9.61,13.89,4.92,22.3Z" fill="#72b75b"/>
            <path d="M178.65,159.4c-3.75,5.43-9,3.64-12.55.78a9.77,9.77,0,0,0-11.62-1c-4,2.23-9.45,3.12-12.25-2.86L140.16,151c-4.29-12.12,6.75-26.31,11.45-28.25,8.51-3.94,15.67-3.34,23.4,2,4.93,3.83,12.83,18.54,6.58,29.77C180.41,156.45,179.83,157.43,178.65,159.4Z" fill="#72b75b"/>
            <path d="M241.69,151.76c-2.15,3.1-5.14,2.08-7.18.44a5.58,5.58,0,0,0-6.64-.55c-2.28,1.27-5.4,1.78-7-1.64l-1.19-3c-2.45-6.92,3.86-15,6.54-16.15,4.87-2.25,9-1.9,13.39,1.12,2.81,2.19,7.33,10.6,3.75,17Z" fill="#72b75b"/>
            <path d="M153.31,119.27c-1.7,2.45-4.07,1.64-5.68.35a4.42,4.42,0,0,0-5.26-.44c-1.8,1-4.28,1.41-5.54-1.3l-.94-2.41c-1.94-5.48,3.05-11.91,5.18-12.79a9.76,9.76,0,0,1,10.59.89c2.23,1.73,5.81,8.39,3,13.47Z" fill="#72b75b"/>
            <path d="M222.05,88.93c-1.7,2.46-4.07,1.65-5.68.36a4.41,4.41,0,0,0-5.26-.45c-1.8,1-4.28,1.41-5.54-1.29l-.94-2.42c-1.94-5.48,3.05-11.9,5.18-12.78a9.76,9.76,0,0,1,10.59.89c2.23,1.73,5.81,8.39,3,13.47Z" fill="#72b75b"/>
            <path d="M173.35,84c-.85,1.23-2,.82-2.84.18a2.21,2.21,0,0,0-2.63-.23c-.9.51-2.14.71-2.77-.64l-.47-1.21c-1-2.74,1.53-6,2.59-6.39a4.89,4.89,0,0,1,5.3.44c1.11.87,2.9,4.2,1.49,6.74Z" fill="#98d9e4"/>
            <path d="M181.88,93.7c-1.18,1.71-2.82,1.14-3.94.25a3.07,3.07,0,0,0-3.66-.31c-1.25.7-3,1-3.84-.9l-.65-1.68c-1.35-3.8,2.12-8.26,3.59-8.87a6.79,6.79,0,0,1,7.36.61c1.55,1.21,4,5.83,2.06,9.36Z" fill="#98d9e4"/>
            <path d="M201.16,77.48a1.06,1.06,0,0,1-1.68.11,1.33,1.33,0,0,0-1.57-.14c-.54.3-1.27.42-1.65-.38l-.28-.72c-.57-1.63.91-3.54,1.54-3.8a2.91,2.91,0,0,1,3.15.26c.67.52,1.73,2.5.89,4Z" fill="#98d9e4"/>
            <path d="M149.16,104.54a1.06,1.06,0,0,1-1.69.1,1.34,1.34,0,0,0-1.57-.13c-.53.3-1.27.42-1.64-.38l-.28-.72c-.58-1.63.91-3.54,1.54-3.8a2.91,2.91,0,0,1,3.15.26c.66.52,1.72,2.5.88,4Z" fill="#98d9e4"/>
          </g>
          <g>
            <path d="M214.75,239.1c-5.63.23-11.56-4.48-15.25-8.57a31,31,0,0,0-13.78-8.85c-5.25-1.66-12-5.09-14.13-10.32-.56-1.74-.83-2.61-1.39-4.36-2.65-9.61,13.56-9.36,19.61-7a69.89,69.89,0,0,1,27.74,17.82c5.13,5.59,11.59,19.19,1.74,20.76Z" fill="#4a8c32" stroke="#2e5b1d" stroke-miterlimit="10" stroke-width="3"/>
            <path d="M200.38,222.58c-3.09.13-6.34-2.46-8.36-4.7a17,17,0,0,0-7.56-4.85c-2.88-.91-6.58-2.79-7.75-5.66-.3-1-.45-1.43-.76-2.39-1.45-5.27,7.44-5.13,10.75-3.86a38.3,38.3,0,0,1,15.21,9.77c2.82,3.07,6.36,10.52,1,11.38Z" fill="#72b75b"/>
            <path d="M212.42,232.77c-2.55.11-5.24-2-6.92-3.88a14.07,14.07,0,0,0-6.25-4c-2.38-.75-5.44-2.31-6.41-4.68l-.63-2c-1.2-4.37,6.15-4.25,8.9-3.2a31.67,31.67,0,0,1,12.58,8.09c2.33,2.53,5.26,8.7.79,9.41Z" fill="#72b75b"/>
            <path d="M198.3,211.48a4.55,4.55,0,0,1-3.09-1.74,6.37,6.37,0,0,0-2.79-1.79,4.53,4.53,0,0,1-2.87-2.09l-.28-.88c-.54-1.95,2.75-1.9,4-1.43a14.09,14.09,0,0,1,5.62,3.61c1,1.13,2.35,3.89.35,4.21Z" fill="#98d9e4"/>
            <path d="M199.72,216.65a2.46,2.46,0,0,1-1.68-1,3.51,3.51,0,0,0-1.53-1,2.47,2.47,0,0,1-1.56-1.14l-.15-.48c-.3-1.06,1.5-1,2.17-.78a7.65,7.65,0,0,1,3.06,2c.57.62,1.28,2.12.2,2.3Z" fill="#98d9e4"/>
          </g>
          <g>
            <path d="M229.63,204.25c-3.86.37-5.83-2.92-6.57-5.83a8.49,8.49,0,0,0-5.47-6.09c-2.81-1-5.88-3.35-5.09-7.16.36-1.27.54-1.91.91-3.18,2.27-7,13-7.42,16.06-5.91a18.82,18.82,0,0,1,11,12.26c1.07,4-.35,13.83-7.59,15.34Z" fill="#4a8c32" stroke="#2e5b1d" stroke-miterlimit="10" stroke-width="3"/>
            <path d="M227.28,193.78c-2.23.22-3.37-1.68-3.8-3.36a4.88,4.88,0,0,0-3.15-3.51c-1.63-.61-3.39-1.94-2.94-4.13.21-.74.31-1.11.52-1.84,1.32-4.06,7.5-4.28,9.27-3.41a10.88,10.88,0,0,1,6.36,7.07c.61,2.29-.2,8-4.38,8.85Z" fill="#72b75b"/>
          </g>
        </g>
      </g>
    </g>
  </g>
</svg>
