<svg xmlns="http://www.w3.org/2000/svg" viewBox="0 0 21.4 27"><g style="isolation:isolate"><g id="Layer_2" data-name="Layer 2"><g id="Layer_1-2" data-name="Layer 1"><g id="na_mango1"><path d="M12.9,26.5A10.8,10.8,0,0,1,7.6,25,17.1,17.1,0,0,1,.7,14.5,9.3,9.3,0,0,1,2.2,7.1,7.1,7.1,0,0,1,8,4.3h.3a7.7,7.7,0,0,1,6,3,13.9,13.9,0,0,1,1.8,4.9,14.1,14.1,0,0,0,.8,3.1,8.7,8.7,0,0,0,.8,1.4,5.2,5.2,0,0,0,1.1,1A6.4,6.4,0,0,1,20.3,19a3.2,3.2,0,0,1,.6,2.3,5.3,5.3,0,0,1-2.2,3.2,9.2,9.2,0,0,1-3.6,1.7,8.3,8.3,0,0,1-2.2.3Z" style="fill:#ffaa5a"/><path d="M8,4.8h.3a6.9,6.9,0,0,1,5.6,2.8c1.7,2.4,1.5,5.4,2.6,7.9a4.4,4.4,0,0,0,.8,1.5,6.3,6.3,0,0,0,1.2,1.1,5.5,5.5,0,0,1,1.4,1.2,2.6,2.6,0,0,1,.5,1.9,5,5,0,0,1-2,2.9A8.9,8.9,0,0,1,15,25.7a7.6,7.6,0,0,1-2.1.3,8.9,8.9,0,0,1-5-1.5C3,21.5-1.5,12.7,2.6,7.4A6.7,6.7,0,0,1,8,4.8m0-1a7.8,7.8,0,0,0-6.2,3A9.8,9.8,0,0,0,.2,14.6,17.1,17.1,0,0,0,7.4,25.4,10.4,10.4,0,0,0,12.9,27a8.5,8.5,0,0,0,2.3-.3A8.9,8.9,0,0,0,19,24.9a5.8,5.8,0,0,0,2.4-3.6,3.2,3.2,0,0,0-.7-2.5,3.9,3.9,0,0,0-1.5-1.4h-.1a4.1,4.1,0,0,1-1-.9,4.7,4.7,0,0,1-.7-1.2,15.7,15.7,0,0,1-.8-3.1,12.3,12.3,0,0,0-1.9-5A7.8,7.8,0,0,0,8.3,3.8Z" style="fill:#e07032"/><path d="M16.5,17.9c-.3-.9-1.1-1.6-1.4-2.6a6.2,6.2,0,0,0-.9-2.7.3.3,0,0,0-.5-.1c-1.4,1.7-.3,6,2,6.4C16.2,19,16.6,18.4,16.5,17.9Z" style="fill:#fff;opacity:0.5;mix-blend-mode:screen"/><path d="M18.8,19.5l-.6-.4h-.6a.7.7,0,0,0-.5,1,1,1,0,0,0,.4.5h.8a.7.7,0,0,0,.5-.4A.9.9,0,0,0,18.8,19.5Z" style="fill:#fff;opacity:0.5;mix-blend-mode:screen"/><path d="M6.5,5.1a1.1,1.1,0,0,1-1-.6h0a2.4,2.4,0,0,1-.5-1V3.2a6.4,6.4,0,0,0-.2-.7A1.7,1.7,0,0,1,6,.5h.3A1.6,1.6,0,0,1,7.8,2.1a8.3,8.3,0,0,1-.1,2.2,1.2,1.2,0,0,1-1.2.8Z" style="fill:#d98885"/><path d="M6.3,1c.6,0,.9.6,1,1.1a6.6,6.6,0,0,1-.1,2,.8.8,0,0,1-.7.5.6.6,0,0,1-.6-.4h0a1.6,1.6,0,0,1-.5-.9,2.4,2.4,0,0,0-.2-.8A1.2,1.2,0,0,1,6.1,1h.2m0-1H5.9A2.2,2.2,0,0,0,4.2,2.5a3.1,3.1,0,0,1,.2.8v.2h0a3.4,3.4,0,0,0,.6,1.2h0a1.6,1.6,0,0,0,1.4.8A1.6,1.6,0,0,0,8.1,4.4a6.3,6.3,0,0,0,.2-2.3A2.2,2.2,0,0,0,6.3,0Z" style="fill:#6a3417"/></g></g></g></g></svg>