<svg xmlns="http://www.w3.org/2000/svg" width="73.47" height="45.8" viewBox="0 0 73.47 45.8">
  <g id="Layer_2" data-name="Layer 2">
    <g id="Layer_1-2" data-name="Layer 1">
      <g id="fo_dog_food" data-name="fo_dog food">
        <g>
          <g>
            <path d="M65.47,15.31A6.38,6.38,0,0,0,62,11.11C58.59,9.54,51.47,7.7,36.74,7.76c-15-.06-22.07,1.83-25.4,3.42A6.29,6.29,0,0,0,8,15.31L3.08,34.71a2.86,2.86,0,0,0,2,3.32c8.47,3.23,18.88,5,31.68,4.73,16.15-.4,19.77-.61,31.67-4.73a2.83,2.83,0,0,0,2-3.32Z" fill="#5576b4"/>
            <ellipse cx="36.65" cy="14.57" rx="26.53" ry="5.48" fill="#3f434c"/>
            <path d="M59.3,17.42s-1.23-2-2.17-2.1a7.8,7.8,0,0,0-2.46.46,20.51,20.51,0,0,0-2.89-4.47c.33-.52.55-1,.41-1.18A26.2,26.2,0,0,0,49.3,7a2,2,0,0,0-1.24-.06c-.05-.52-.24-1.2-.31-1.8C47.63,4.23,46.5,4,44.89,3.75c-1.13-.16-2.44,1-3.11,1.77h0c-.1-.57-.32-1.15-.81-1.28a27.14,27.14,0,0,0-4.44-.48,2.92,2.92,0,0,0-2,1,20.3,20.3,0,0,1-1.68-1.4c-.34-.43-2.26-.4-3-.14-.34.11-.56,1-.68,2-1.46-.57-3.33-1.16-4.33-.89-1.78.48-4.1,2.86-3.81,3.34a6.77,6.77,0,0,0,1.15,1.15,24.46,24.46,0,0,0-2.31,1.56c-1.41-.27-3.38-.43-4.41.4-1.73,1.38-1,2.46-1.08,3a7.23,7.23,0,0,0,.08,1.9,10.63,10.63,0,0,1-1.41,1.49c.74.28,6.25,2.83,23.6,3a93.65,93.65,0,0,0,18-1.46h0A29.41,29.41,0,0,0,59.3,17.42Z" fill="#8f603f"/>
            <path d="M30.53,7.2s-1.39,1.52-1.11,1.89,4.61,1.5,5.09,1.22,1.7-1.92,1.28-2.4S31.63,6.3,30.53,7.2Z" fill="#a36e4a"/>
            <path d="M38.48,11.55a1,1,0,0,0-1,.09c-.82.61-2.34,1.86-1.84,2.49A9.93,9.93,0,0,0,40,16.19c.59-.05,1.92-2.71,1.64-3A33.29,33.29,0,0,0,38.48,11.55Z" fill="#a36e4a"/>
            <path d="M27.15,12a.81.81,0,0,0-.72.12c-.74.55-2.42,1.93-1.87,2.85a5,5,0,0,0,3.05,1.81c.6.08,2.07-2.44,2.27-3.2C30,13,28,12.29,27.15,12Z" fill="#a36e4a"/>
            <path d="M41.94,8.08a.62.62,0,0,0-.64-.18c-.58.18-1.65.55-1.62.92s1.45,2.8,2.12,2.62,1.6-1,1.54-1.5A7.14,7.14,0,0,0,41.94,8.08Z" fill="#a36e4a"/>
          </g>
          <g>
            <path d="M27.61,36.28s-.46-3.67,2-4.55,4.62-1.68,5.3-2.31,3.32-.67,4,.41.55,2.71,1.46,5,1.21,3.81-1.11,4.71S35,36.83,33,36.76,29,38.19,27.61,36.28Z" fill="#f1f2f2"/>
            <path d="M42.74,33.9A1.94,1.94,0,0,1,41,31.63a1.14,1.14,0,0,1,.44-.75c.86-.58,2.82-2.27,4.15-.86C46.65,31.16,44.87,34.05,42.74,33.9Z" fill="#f1f2f2"/>
            <path d="M35.65,26.9a1.94,1.94,0,0,1-2.91-.53,1,1,0,0,1-.14-.81c.25-1,.59-3.56,2.52-3.39C36.65,22.31,37.25,25.56,35.65,26.9Z" fill="#f1f2f2"/>
            <path d="M31.2,28.79a1.87,1.87,0,0,1-2.74.76,1.06,1.06,0,0,1-.46-.64c-.2-1-1-3.34.77-4C30.15,24.4,32,27,31.2,28.79Z" fill="#f1f2f2"/>
            <path d="M40.22,28.44a1.92,1.92,0,0,1-1.9-1.14c-.65-1.31,2-4.7,3.73-3.12S41.25,28.33,40.22,28.44Z" fill="#f1f2f2"/>
          </g>
        </g>
        <path d="M31.36,3a2.36,2.36,0,0,1,1.51.33,20.3,20.3,0,0,0,1.68,1.4,3,3,0,0,1,1.91-1h.06A27.14,27.14,0,0,1,41,4.23c.49.13.71.71.81,1.28h0c.63-.68,1.82-1.78,2.9-1.78h.21c1.61.23,2.74.48,2.86,1.39.07.6.26,1.28.31,1.8a3.83,3.83,0,0,1,.65-.06A1.1,1.1,0,0,1,49.3,7a10.85,10.85,0,0,1,1.45,1.43c5.71.67,9.17,1.72,11.24,2.68a6.38,6.38,0,0,1,3.48,4.2l4.92,19.4a2.83,2.83,0,0,1-2,3.32c-11.9,4.12-15.52,4.33-31.67,4.73-1,0-1.91,0-2.85,0C22.39,42.8,12.9,41,5.06,38a2.86,2.86,0,0,1-2-3.32L8,15.31a6.29,6.29,0,0,1,3.34-4.13A35.71,35.71,0,0,1,21.93,8.53,5.24,5.24,0,0,1,21,7.6c-.29-.48,2-2.86,3.81-3.34a2.17,2.17,0,0,1,.59-.07,12.08,12.08,0,0,1,3.74,1c.12-1,.34-1.85.68-2A5.24,5.24,0,0,1,31.36,3m0-3A8.18,8.18,0,0,0,28.9.34a3.34,3.34,0,0,0-1.56,1.09,8.74,8.74,0,0,0-1.91-.24,5.41,5.41,0,0,0-1.37.17A10.38,10.38,0,0,0,18.32,6a33.22,33.22,0,0,0-8.27,2.43,9.24,9.24,0,0,0-5,6.1L.17,34A5.84,5.84,0,0,0,4,40.83c8.65,3.3,18.71,5,29.9,5,1,0,1.94,0,2.92,0,16.38-.4,20.28-.64,32.58-4.9A5.82,5.82,0,0,0,73.3,34l-4.92-19.4a9.3,9.3,0,0,0-5.13-6.18,39.1,39.1,0,0,0-11-2.8,7.06,7.06,0,0,0-1.26-1.1,2.91,2.91,0,0,0-.3-.17C50,1.44,46.74,1,45.31.78a4.44,4.44,0,0,0-.63,0,5.34,5.34,0,0,0-2.6.71l-.35-.12A31.8,31.8,0,0,0,36.64.75h-.18A4.83,4.83,0,0,0,34.83,1a5.14,5.14,0,0,0-3.47-1Z" fill="#335394"/>
      </g>
    </g>
  </g>
</svg>
