<svg xmlns="http://www.w3.org/2000/svg" xmlns:xlink="http://www.w3.org/1999/xlink" viewBox="0 0 65.1 38.9"><defs><clipPath id="clip-path"><path d="M52.1,31.1S66.1,2.4,54.4,2,42.5,33.1,42.5,33.1,39,19.4,35,21.2c-2,.9-1,4.7.6,8.3-2.4-1.1-5.8-1.5-10.5-.4C30.5,14.2,21.9,6.4,12.6,27,12.8,10.9.7,12.7,7.2,31.5c-7.2-4-4.8,5.4-4.8,5.4H63.1C62.1,25,52.1,31.1,52.1,31.1Z" style="fill:none"/></clipPath></defs><g id="Layer_2" data-name="Layer 2"><g id="Layer_1-2" data-name="Layer 1"><g id="na_bushes_3" data-name="na_bushes 3"><path d="M52.1,31.1S66.1,2.4,54.4,2,42.5,33.1,42.5,33.1,39,19.4,35,21.2c-2,.9-1,4.7.6,8.3-2.4-1.1-5.8-1.5-10.5-.4C30.5,14.2,21.9,6.4,12.6,27,12.8,10.9.7,12.7,7.2,31.5c-7.2-4-4.8,5.4-4.8,5.4H63.1C62.1,25,52.1,31.1,52.1,31.1Z" style="fill:#3b7e82"/><g style="clip-path:url(#clip-path)"><path d="M47.9,30.4S58,9.6,49.5,9.3s-8.6,22.5-8.6,22.5-2.5-9.9-5.4-8.6c-1.4.6-.7,3.4.4,6-1.7-.8-4.2-1.1-7.6-.3,3.9-10.8-2.3-16.5-9-1.5.1-11.7-8.6-10.3-3.9,3.3-5.3-2.9-3.5,3.9-3.5,3.9h44C55.2,26,47.9,30.4,47.9,30.4Z" style="fill:#6ab3b9"/></g><path d="M54.1,2h.3c11.7.4-2.3,29.1-2.3,29.1a11,11,0,0,1,5.2-1.6c2.6,0,5.3,1.5,5.8,7.4H2.4S.7,30.5,4.2,30.5a6.2,6.2,0,0,1,3,1c-3.5-10.2-1.5-15.4,1-15.4s4.5,3.6,4.4,10.9c4-8.9,7.9-12.5,10.6-12.5s4.9,6.1,1.9,14.6a20,20,0,0,1,5.1-.7,14,14,0,0,1,5.4,1.1C34,25.9,33,22.1,35,21.2l.7-.2c3.7,0,6.8,12.1,6.8,12.1S42.6,2,54.1,2m0-2C45.3,0,42.1,13.6,41,23.5,39.7,21,37.9,19,35.7,19a2.8,2.8,0,0,0-1.5.4c-2.8,1.2-2.6,4.4-1.8,7.2l-2.2-.2H28c1.3-5,1-9.3-.8-11.9a4.8,4.8,0,0,0-4-2.1h0c-3,0-6.2,2.7-9.3,7.7a11,11,0,0,0-2.5-4.7,4.4,4.4,0,0,0-3.2-1.4,4.2,4.2,0,0,0-3.4,1.8c-1.8,2.6-2,7-.6,12.6A3.9,3.9,0,0,0,1.1,30C-.7,32.4.2,36.6.5,37.4a1.9,1.9,0,0,0,1.9,1.5H63.1a2.2,2.2,0,0,0,1.5-.6,2.7,2.7,0,0,0,.5-1.5c-.7-8.1-5.2-9.3-7.8-9.3H55.8c2.9-6.7,7.3-19.1,4-24.6a6.1,6.1,0,0,0-5.4-3Z" style="fill:#28575c"/></g></g></g></svg>