<svg xmlns="http://www.w3.org/2000/svg" width="338.69" height="251.06" viewBox="0 0 338.69 251.06"><g id="Layer_2" data-name="Layer 2"><g id="Layer_1-2" data-name="Layer 1"><g id="fu_fireplace"><path d="M329.38,7.48a10,10,0,0,0-9.16-6H18a10,10,0,0,0-9.16,6L1.5,24.26v5A3.53,3.53,0,0,0,5,32.84H333.22a3.53,3.53,0,0,0,3.53-3.53v-5Z" fill="#f1f2f2" stroke="#a8662f" stroke-miterlimit="10" stroke-width="3"/><rect x="93.9" y="109.51" width="148.76" height="129" fill="#a09877"/><rect x="93.9" y="119.51" width="148.76" height="106.77" fill="#b29e49" stroke="#6c6120" stroke-miterlimit="10" stroke-width="3"/><path d="M316.22,30.42V239.18H243.09V194c0-39.09-32.4-70.77-72.36-70.77h-3c-40,0-72.36,31.68-72.36,70.77v45.22H22.23V30.42Z" fill="#dadd72"/><path d="M21.79,58.73C35.39,58.9,43,49.08,36.23,37c-6.42-2.64-19-3.32-17,6.91C20.05,48.13,17.25,57.24,21.79,58.73Z" fill="#fffc9c"/><path d="M44.71,132c2.29-13.42-9.5-14.14-19.28-12.25-8.33,3.12-3.51,14.37-4.27,21.14-1.37,10.87,7.3,7.46,13.67,5.29C42.08,144.9,45.55,140.07,44.71,132Z" fill="#fffc9c"/><path d="M52.42,164.23c-5.9-5.57-17.41,1.48-24.9-3.23-4.67-1.5-6.4,4.24-7.25,8.94h0c-2.52,7.72,3.69,7.4,9.25,9.33C40.14,186.75,57.7,177.89,52.42,164.23Z" fill="#fffc9c"/><path d="M231.88,53c-.7,23.81,30.52,8,17.49-17.27-3.37-3.85-10.1-2.51-14.72-2.09C226.42,35.66,233.25,47.86,231.88,53Z" fill="#fffc9c"/><path d="M251.65,73.19c-9.58-13.94-37.84-7.64-50.27.58C193.22,84.66,259.93,85.85,251.65,73.19Z" fill="#fffc9c"/><path d="M255.66,71.91c6.84,4.52,66.32,11,62.8-3.34C314.18,42.46,304.63,46.8,282.9,50.4,261.66,55,248.22,40.35,255.66,71.91Z" fill="#fffc9c"/><path d="M50.84,224.44c3.79-21.57-11.67-48.18-30.38-24.71-.61,8.49,2,18.15,1.56,27.17C27.79,235.18,50.18,238.32,50.84,224.44Z" fill="#fffc9c"/><path d="M74.37,65.65c8.42-1.55,34.86,4.74,35.12-5.57C108.64,41.62,50.08,59.42,74.37,65.65Z" fill="#fffc9c"/><path d="M112.07,55.49c2.1,15.93,21.54,5,32,5.86,9.89-.94,18.42,4.31,15.26-10.2,1.1-12.56-17.43-7.64-25.49-9C123.32,40.34,102.62,38.88,112.07,55.49Z" fill="#fffc9c"/><path d="M125.25,66.78c-8.69.54-31.55-4.11-26.68,10.07,9.27,6.35,25.69,1.06,37.09,1.37C139.2,71.13,132.46,65.57,125.25,66.78Z" fill="#fffc9c"/><path d="M286.11,134.88c12.44,3.25,33.37,4.75,32.45-13.31v0c3.26-22.31-28.15-26.54-43.11-18-1.74,9-1.11,19-.75,28.05C276.07,137.81,281.64,133.27,286.11,134.88Z" fill="#fffc9c"/><path d="M318.33,230.56c-1.47-10.2-.6-21-2-31.05-13.16-6.55-12.4,16.22-16.78,23.59-5.81,7.94,15.49,19.19,18.71,11.05l-.09,0A13.12,13.12,0,0,0,318.33,230.56Z" fill="#fffc9c"/><path d="M316.25,82.06c-6.24-3.21-13.72-1.72-20.5-2.57-4,1.74-3.56,8.75-2.8,12.17h0C298.23,105,331.36,94,316.25,82.06Z" fill="#fffc9c"/><path d="M315.68,173.75c-4.17-3.12-10-1.78-14.85-2.58-3.25,2.65-2.6,9.41-1.75,13C304.69,197,326.56,183.33,315.68,173.75Z" fill="#fffc9c"/><path d="M196.57,45.91c-5.78-3.21-12.88-1.73-19.24-2.58-3.8,1.87-3.3,8.76-2.63,12.17C179.79,68.94,210.85,57.5,196.57,45.91Z" fill="#fffc9c"/><path d="M66,123.46c-4.16-3.12-10-1.77-14.85-2.57-3.24,2.64-2.6,9.41-1.75,13C55,146.74,76.89,133.05,66,123.46Z" fill="#fffc9c"/><path d="M40.23,114.79c7.93-1.61,16.23-1.37,24.19-2.59,5.66-.84,4.93-9.13,1-11.71-3.53-4.06-13.41-1.88-18.31-2.64C36.84,101,22.09,90.3,19.1,96.16,16.13,114.62,21,118.48,40.23,114.79Z" fill="#fffc9c"/><path d="M75,69.05c-15.62-4-32.81-4.31-48.91-3.42-7.66,1.51-6.81,17-5.14,22.8,15.43,11.09,37.47-.16,55.2,3.71C88,93,83.51,71.2,75,69.05Z" fill="#fffc9c"/><path d="M317.29,142.18c-9.73-3.86-22.56-.87-32.5-.46-6.72,18.23,18.4,16.12,29.7,15.92C319.91,157.16,319.6,145.52,317.29,142.18Z" fill="#fffc9c"/><path d="M177.24,64.32c-9.13-4.73-19.92.67-29.66-1.3-1.18-.06-2.55.08-3.12,1.26-5.66,18.13,18.71,15.54,30,15.5C179.86,79.3,179.54,67.67,177.24,64.32Z" fill="#fffc9c"/><path d="M288.62,96.56c4.49-2.53,2-16.6-3.93-17.43-11.32,6.19-34.69-6-38.25,9.74-2.69,6.67,1.92,10.76,8.33,8C266,95.29,277.55,97.91,288.62,96.56Z" fill="#fffc9c"/><path d="M316.23,30.42s.16,30.78,2.23,38.15c.52,2.13-.35,3.8-2.24,5.09,0,0,0,8.4,0,8.4h0c6,4.74,4.4,9.31,0,12.28v15.12a17.08,17.08,0,0,1,2.33,12.13v0c.2,4-.69,7.1-2.34,9.38.39.58-.94,11.27.87,11.27a.51.51,0,0,0,.2,0c2,2.93,2.51,12.25-1.07,14.82v17.28c3.67,3.68,2.8,7.85,0,10.89-.34,15.93,1.79,33,1.95,49l.09,0c2.33,4.46-13.72,5.48-31.58,5.48-15.17,0-31.64-.74-39.28-.74-2.51,0-4.07.08-4.32.29,6.29-50.92-7.82-116-71.15-116h-1.2c-1.49-.08-3-.11-4.4-.11-62.1,0-77.65,64.88-71,116.09H22.23c.8-12.66-1.87-27.21-1.77-39.45C23,199.06,22.55,179,22.23,177c-2.17-1.1-3.3-2.93-2-7h0c3.41-8.45,1.6-20.2.89-29,.63-5.61-2.57-14.31,1.07-18.9v-7.59c-3-.33-7.92-16.76,0-20v-5.1c-6.42-7.05,1.47-21.64,0-30.57h-.14c-4.27,0,.14-28.31.14-28.31h294m0-3h-294a3,3,0,0,0-3,2.53c0,.26-1,6.31-1.57,12.89-1.14,12.63,0,15.85,1.34,17.46a4.31,4.31,0,0,0,.37.37,47.37,47.37,0,0,1-1.28,9.76c-1.34,6.84-2.86,14.53,1.1,19.93v2.29c-3.42,2.49-4.92,7.36-4,13.48.05.35,1,7,4,9.92v5c-2.38,3.84-1.83,8.88-1.35,13.37a30.76,30.76,0,0,1,.3,6.14,3.62,3.62,0,0,0,0,.57c.1,1.29.23,2.63.36,4,.74,7.92,1.58,16.88-1,23.41a3,3,0,0,0-.17.41c-1.66,5.11-.12,8,2,9.67.24,4.3.16,16-.84,18.76a3,3,0,0,0-1.07,2.27c0,5.51.46,11.53.95,17.35.62,7.4,1.26,15,.83,21.94a3,3,0,0,0,.81,2.24,3,3,0,0,0,2.18,1H95.37a3,3,0,0,0,3-3.39c-3.8-29.13-.45-68.71,20.37-92.42,11.81-13.46,27.83-20.28,47.62-20.28,1.41,0,2.81,0,4.26.1h1.34c20,0,36.12,6.74,47.87,20,17.44,19.72,25,54.33,20.3,92.58a3,3,0,0,0,1.56,3,3,3,0,0,0,1.42.36,3.06,3.06,0,0,0,1.07-.19,30.8,30.8,0,0,1,3.25-.1c3.13,0,7.83.13,13.28.28,7.61.2,17.09.46,26,.46,28.54,0,32.52-2.64,34.16-5.35a4.44,4.44,0,0,0,.32-4c-.1-6.86-.55-14-1-20.88-.54-8.68-1.1-17.64-1-26.11,3.29-4.21,3.29-9.17,0-13.16V158.28c3.93-4.57,3-14.25.54-17.8a2.7,2.7,0,0,0-.58-.63,55.07,55.07,0,0,1,0-5.76c0-1,.08-1.75.08-2.35a17.84,17.84,0,0,0,2.27-10.05,20.09,20.09,0,0,0-2.35-13.08V95.84a10,10,0,0,0,3.94-7.15c.07-2-.58-4.94-3.93-8,0-1.5,0-4,0-5.58a7.17,7.17,0,0,0,2.15-7.23.29.29,0,0,0,0-.09c-1.61-5.73-2.08-28.91-2.12-37.36a3,3,0,0,0-3-3Z" fill="#c9b13d"/><path d="M256,240.33c-12.08,0-14.71-1.29-15.76-2.68a2.53,2.53,0,0,1-.48-2c-.7-14-.69-20.51,2.26-23.61,1.86-1.95,4.59-2.21,7-2.21,1.85,0,4.08.18,6.67.38,3.84.31,8.62.7,14.54.7h0c3.52,0,7.12-.14,10.72-.42H281a1.39,1.39,0,0,1,.35,0c4.95,1.16,4.36,9.72,3.83,17.26-.22,3.11-.44,6.33-.09,7.58a1.4,1.4,0,0,1,.06.41A4.18,4.18,0,0,1,281,240h0a1.47,1.47,0,0,1-.62-.13,13.64,13.64,0,0,0-2.2-.1c-2,0-4.81.11-8.1.23C265.68,240.14,260.65,240.33,256,240.33Z" fill="#fffc9c"/><path d="M249,211.33c4.48,0,11.23,1.08,21.21,1.08,3.26,0,6.86-.12,10.83-.42,5.65,1.33,1.41,19.39,2.65,23.79a2.68,2.68,0,0,1-2.65,2.7,8.77,8.77,0,0,0-2.82-.23c-4.64,0-14.08.58-22.27.58-8.38,0-15.44-.61-14.74-3.05-1-20.79-.46-24.45,7.79-24.45m0-3h0c-2.75,0-5.86.31-8.1,2.67-3.36,3.53-3.42,9.89-2.69,24.58a4.08,4.08,0,0,0,.79,3c1.52,2,4.89,3.28,17,3.28,4.72,0,9.77-.19,14.22-.35,3.28-.12,6.11-.23,8.05-.23,1.1,0,1.61,0,1.81.06a3.2,3.2,0,0,0,1,.17h0a5.68,5.68,0,0,0,5.65-5.7,3.24,3.24,0,0,0-.11-.82c-.29-1-.05-4.36.14-7.06.56-8.15,1.21-17.37-5-18.83A3.25,3.25,0,0,0,281,209h-.23c-3.56.27-7.12.41-10.6.41-5.86,0-10.61-.38-14.42-.69-2.62-.21-4.88-.39-6.79-.39Z" fill="#c9b13d"/><path d="M269.18,211.19c-4.65,0-9.66-.19-14.08-.36-3.35-.13-6.24-.24-8.27-.24a13.87,13.87,0,0,0-2.33.11,1.57,1.57,0,0,1-.64.14h-.14c-4.64-.44-4.25-5.64-4-8.74a13.89,13.89,0,0,0,0-3.07,1.39,1.39,0,0,1,0-.7,12.85,12.85,0,0,0-.25-4.72c-.54-3.31-1.29-7.83,3-9.36l.28-.07,36.77-5.51.23,0a1.49,1.49,0,0,1,.36.05c5.19,1.3,5,7.53,4.84,12.53a25.47,25.47,0,0,0,.15,5.2,1.45,1.45,0,0,1,0,.29c0,1.33,0,3,0,4.76s0,3.57,0,5a2.58,2.58,0,0,1-.51,2.07c-1.06,1.38-3.67,2.66-15.5,2.66Z" fill="#fffc9c"/><path d="M279.8,180.14c5.79,1.45,2.88,11.85,3.89,16.59,0,2.74-.05,7.12,0,9.9.65,2.45-6.26,3.06-14.51,3.06s-17.61-.6-22.35-.6a9.23,9.23,0,0,0-3,.25c-4.52-.43-2.05-7.67-2.65-10.61,1.14-4-3.12-11.31,1.81-13.07l36.78-5.52m0-3a2.32,2.32,0,0,0-.46,0l-36.76,5.51a3.65,3.65,0,0,0-.57.14c-5.46,1.95-4.53,7.62-4,11a12.72,12.72,0,0,1,.28,4.08,3,3,0,0,0,0,1.4,14.79,14.79,0,0,1-.07,2.66c-.24,3.17-.73,9.77,5.38,10.35h.28a3,3,0,0,0,1-.18,16.35,16.35,0,0,1,1.94-.07c2,0,4.87.11,8.2.24,4.44.16,9.47.36,14.15.36,11.82,0,15.15-1.25,16.69-3.25a4,4,0,0,0,.82-3.12c0-1.38,0-3.14,0-4.85s0-3.44,0-4.78a3.68,3.68,0,0,0-.07-.58,26,26,0,0,1-.12-4.84c.15-5,.38-12.45-6-14a3,3,0,0,0-.72-.09Z" fill="#c9b13d"/><path d="M242.31,185.16c-4.24,0-8.39-14.22-8.69-18.57-.23-3.16.84-4.19,1.9-4.47l33.08-16.54a1.58,1.58,0,0,1,.68-.16h.14c6,.55,7.88,7.75,9.51,14.09a39.91,39.91,0,0,0,1.95,6.27,1.38,1.38,0,0,1,.18.41,1.17,1.17,0,0,1,.05.2,18.19,18.19,0,0,0,.62,2.35c.93,3.1,2.5,8.29-2,9.69l-.18.05L243.1,185a2.12,2.12,0,0,1-.79.14Z" fill="#fffc9c"/><path d="M269.28,146.92c7.15.66,7.55,14,10.35,19.73a0,0,0,0,1,0,0c.44,2.92,3.73,9.12-.36,10.39l-36.61,6.56a.67.67,0,0,1-.34.09c-3.13,0-9.64-19.63-6.29-20.11l33.26-16.63m10.34,19.69h0m-10.34-22.69a2.91,2.91,0,0,0-1.36.33l-33,16.47c-1.29.41-3.14,1.74-2.84,6a43.3,43.3,0,0,0,3.06,11.6c3,7.37,5.27,8.36,7.13,8.36a3.59,3.59,0,0,0,1.17-.19l36.3-6.51a1.9,1.9,0,0,0,.36-.09,5.8,5.8,0,0,0,4.14-6,20.5,20.5,0,0,0-1.12-5.54,19.61,19.61,0,0,1-.57-2.13h0a2.71,2.71,0,0,0-.09-.41,2.9,2.9,0,0,0-.3-.7,41,41,0,0,1-1.81-5.92c-1.68-6.49-3.76-14.57-10.84-15.22Z" fill="#c9b13d"/><path d="M232.73,163.24a2.3,2.3,0,0,1-2.51-1.83c-.56-2.08-2.54-4.22-4.46-6.28-3-3.22-6.36-6.87-4.63-11.08a1.43,1.43,0,0,1,.34-.5l26.55-26a1.46,1.46,0,0,1,.73-.4,7.06,7.06,0,0,1,1.51-.17c5.15,0,8.75,5.69,11.92,10.7a42.27,42.27,0,0,0,3.66,5.24,1.45,1.45,0,0,1,.36.38l.11.19h0a17.21,17.21,0,0,0,1.35,2.11c1.82,2.61,4.87,7,1,9.74a1.55,1.55,0,0,1-.71.27c-.92.31-4.9,2.6-8.76,4.81-12.24,7-22.68,12.84-26.5,12.84Z" fill="#fffc9c"/><path d="M250.26,118.46c6.35,0,10.58,11.4,14.72,15.71,0,0,0,0,0,0,1.3,2.68,6.35,7.46,2.86,10h0c-1.69,0-29.32,17.64-35.07,17.64-.62,0-1-.21-1-.65-1.53-5.89-11.52-10.76-9.17-16.47l26.56-26a5.4,5.4,0,0,1,1.18-.13M265,134.11v0m-14.69-18.65a8.77,8.77,0,0,0-1.83.2,3.12,3.12,0,0,0-1.47.8l-26.54,26a3,3,0,0,0-.68,1c-2.09,5.09,1.8,9.29,4.92,12.67,1.78,1.92,3.62,3.9,4.1,5.61a3.81,3.81,0,0,0,4,3c3.85,0,11.85-4.21,27.24-13,3.45-2,7.34-4.21,8.42-4.67a3,3,0,0,0,1.18-.5,5.81,5.81,0,0,0,2.07-6.95,20.22,20.22,0,0,0-2.75-4.87,18,18,0,0,1-1.23-1.9,2.74,2.74,0,0,0-.19-.34,3.19,3.19,0,0,0-.59-.67,42.63,42.63,0,0,1-3.43-5c-3.38-5.34-7.21-11.4-13.19-11.4Z" fill="#c9b13d"/><path d="M218.31,145.5a2.16,2.16,0,0,1-2-1.16c-1.19-1.78-3.7-3.19-6.14-4.55-3.84-2.16-8.19-4.6-7.84-9.16a1.49,1.49,0,0,1,.17-.58l17.29-32.92a1.56,1.56,0,0,1,.57-.6,6.83,6.83,0,0,1,3.53-1c4.21,0,8.56,3.62,12.4,6.81a38.79,38.79,0,0,0,5.27,4,1.54,1.54,0,0,1,.39.23c1.63,1.33,3.81,3.21,5.25,4.48a5.18,5.18,0,0,1,1.7,3.6,3.81,3.81,0,0,1-1.05,2.76,1.5,1.5,0,0,1-.46.33c-.78.58-3.87,4-6.87,7.27-12.63,13.88-19.18,20.49-22.25,20.49Z" fill="#fffc9c"/><path d="M223.93,97.07c5.69,0,12.34,8.14,17.13,10.68l0,0c1.54,1.26,3.69,3.11,5.21,4.44,1.33,1.27,1.59,3.15.57,4.2-1.48.28-24,27.63-28.51,27.63a.67.67,0,0,1-.66-.41c-3.3-5.1-14.25-6.68-13.78-12.85l17.29-32.92a5.4,5.4,0,0,1,2.77-.75m0-3h0a8.31,8.31,0,0,0-4.29,1.17,3.06,3.06,0,0,0-1.14,1.2c-.26.51-17.12,32.58-17.29,32.91a3,3,0,0,0-.33,1.17c-.42,5.51,4.58,8.32,8.6,10.57,2.25,1.27,4.58,2.58,5.59,4a3.66,3.66,0,0,0,3.24,1.88c3.39,0,8.2-4.32,23.36-21,2.67-2.94,5.69-6.25,6.58-7a2.72,2.72,0,0,0,.72-.54,5.29,5.29,0,0,0,1.47-3.84,6.64,6.64,0,0,0-2.13-4.63l-.08-.07c-1.46-1.28-3.66-3.18-5.3-4.51l-1.81,2.22,1.34-2.53a35.62,35.62,0,0,1-5.17-3.87c-4-3.36-8.61-7.16-13.36-7.16Z" fill="#c9b13d"/><path d="M199.78,132.21c-5.06,0-17.19-3.92-19.12-7.25a2.39,2.39,0,0,1-.21-2.1c.49-2.85,6.19-36.17,6.24-36.46a1.49,1.49,0,0,1,.35-.75,7.52,7.52,0,0,1,5.87-2.42c3.5,0,7.42,1.58,11.21,3.1a42.81,42.81,0,0,0,6,2.12,1.64,1.64,0,0,1,.53.09l.15.07a21,21,0,0,0,2.44,1c2.27.81,4.84,1.73,6.21,3.81,1.31,1.7-.09,5.61-10.75,26-2.35,4.5-5,9.59-5.28,10.57-.09.86-.69,2.27-3.69,2.27Z" fill="#fffc9c"/><path d="M192.91,84.73c5.4,0,12.67,4.41,17.31,5.25l0,0c2.5,1.26,6.55,1.87,8.11,4.32C220.18,96.4,202,127.78,202,129.78c-.06.65-.9.93-2.2.93-5.5,0-19.29-5-17.88-7.41l6.26-36.65a6,6,0,0,1,4.75-1.92m17.25,5.21h0m-17.25-8.21h0a8.94,8.94,0,0,0-7,2.93,3,3,0,0,0-.71,1.5c-.1.54-5.58,32.63-6.21,36.3a3.88,3.88,0,0,0,.36,3.25c2.39,4.13,15.49,8,20.42,8,4.16,0,5-2.4,5.16-3.42.42-1.19,2.93-6,5.14-10.22,2.65-5.06,5.64-10.78,7.89-15.53,3.57-7.57,4.19-10.18,2.74-12.05-1.66-2.45-4.57-3.48-6.91-4.32a22.18,22.18,0,0,1-2.28-.9h0l-.27-.12a3.11,3.11,0,0,0-.88-.2,42.83,42.83,0,0,1-5.69-2c-3.74-1.5-8-3.21-11.77-3.21Z" fill="#c9b13d"/><path d="M162.1,126.9c-3.3,0-4.5-1.93-4.93-3.55a1,1,0,0,1,0-.17l-5.22-36.82a1.23,1.23,0,0,1,0-.2c0-4.69,5.25-4.83,8.41-4.92a17.13,17.13,0,0,0,2.53-.17h0l.25,0h.18c2-.1,4-.15,5.94-.15s4,0,5.95.15h.25l1.93.14c1.57.11,3.34.23,4.78.41h.25a3,3,0,0,1,2.37,1.13c2.75,3.33.88,14.63-1.85,29.07-.85,4.5-1.81,9.59-1.67,10.67a1.5,1.5,0,0,1,0,.89c-.43,1.62-1.64,3.54-4.95,3.54h0a20.83,20.83,0,0,1-3.22-.34,18.17,18.17,0,0,0-2.71-.31,4.06,4.06,0,0,0-.84.08,1.83,1.83,0,0,1-.66,0,3.47,3.47,0,0,0-.84-.08,19.45,19.45,0,0,0-2.71.3A19.84,19.84,0,0,1,162.1,126.9Z" fill="#fffc9c"/><path d="M169.21,82.4c2,0,4.1.06,6.15.16l-.08,0c2.05.17,4.81.31,6.82.57l.27,0c6.64,0-3.75,37.38-2.56,39.88-.51,1.92-1.86,2.42-3.5,2.42-1.86,0-4.1-.65-5.93-.65a5.47,5.47,0,0,0-1.17.11,5.47,5.47,0,0,0-1.17-.11c-1.83,0-4.08.66-5.94.66-1.63,0-3-.51-3.48-2.43L153.4,86.15c0-4.29,6.77-3,9.72-3.6h-.05c2.05-.1,4.1-.16,6.14-.16m6.07.14h0m-12.13,0h0m0,0h0m6.06-3.14h0c-2,0-4,0-5.92.14h-.24a4.35,4.35,0,0,0-.52.06,18.45,18.45,0,0,1-2.26.14,20.07,20.07,0,0,0-5.52.68,5.82,5.82,0,0,0-4.35,5.75,2.83,2.83,0,0,0,0,.41l5.22,36.81c0,.11,0,.23.07.34.46,1.74,1.9,4.67,6.38,4.67a22.06,22.06,0,0,0,3.47-.37,17,17,0,0,1,2.47-.29,2.07,2.07,0,0,1,.5,0,3.05,3.05,0,0,0,.67.07,2.9,2.9,0,0,0,.66-.07,2.4,2.4,0,0,1,.51,0,17.12,17.12,0,0,1,2.47.29,21.93,21.93,0,0,0,3.46.36c4.49,0,5.93-2.91,6.4-4.65a3.09,3.09,0,0,0,0-1.54c0-1.31.91-6.19,1.66-10.14,3.42-18.09,4.45-26.75,1.52-30.29a4.5,4.5,0,0,0-3.52-1.68h-.2c-1.45-.18-3.18-.3-4.71-.41l-1.93-.14h-.39c-2-.09-4-.14-5.93-.14Z" fill="#c9b13d"/><path d="M137.71,132.67a1.27,1.27,0,0,1-.34,0c-1.63-.38-3.47-3.48-13.35-24.58-2.31-4.93-4.7-10-5.19-10.71a1.18,1.18,0,0,1-.28-.53c-1.35-4.52,3.51-6.19,6.41-7.2a19.05,19.05,0,0,0,2.34-.9,1.76,1.76,0,0,1,.31-.16,1.52,1.52,0,0,1,.55-.1h.2a47.48,47.48,0,0,0,5.79-2.08c3.83-1.54,7.8-3.14,11.33-3.14a7.59,7.59,0,0,1,5.9,2.41,1.5,1.5,0,0,1,.36.75c.06.36,6.19,36.16,6.27,36.64a1.69,1.69,0,0,1,0,.55c-.9,4.58-8.32,6.25-14.87,7.74a48.37,48.37,0,0,0-4.93,1.26A1.69,1.69,0,0,1,137.71,132.67Z" fill="#fffc9c"/><path d="M145.48,84.74a6.11,6.11,0,0,1,4.78,1.91l6.27,36.66c-1,4.91-14.15,6.2-18.82,7.86-2.14-.49-16.45-33.42-17.73-34.79-1.25-4.19,5.35-4.92,8.07-6.38l-.13.09c4.73-.87,12.09-5.35,17.56-5.35m-17.32,5.2h0m0,0-.11.06.11-.06m17.32-8.2c-3.83,0-8.11,1.73-11.9,3.25a47.33,47.33,0,0,1-5.36,2h-.06a2.94,2.94,0,0,0-.51,0,2.81,2.81,0,0,0-.76.24,3.18,3.18,0,0,0-.32.16,18.2,18.2,0,0,1-2.1.8c-3,1-9.12,3.15-7.36,9a2.85,2.85,0,0,0,.52,1c.58,1,3,6,5,10.46,11.14,23.78,12.17,24.89,14.37,25.41a3.08,3.08,0,0,0,.68.07,2.84,2.84,0,0,0,1-.17c1.07-.38,2.86-.78,4.76-1.21,7-1.58,14.92-3.37,16-8.91a3.13,3.13,0,0,0,0-1.1c-.12-.65-6.21-36.27-6.27-36.63a3.05,3.05,0,0,0-.73-1.51,9,9,0,0,0-7-2.9Z" fill="#c9b13d"/><path d="M118.42,145.13a2.44,2.44,0,0,1-2.2-1.09L90.54,117.41a1.37,1.37,0,0,1-.4-.76C89,110.57,95.47,106.56,101.21,103a40.13,40.13,0,0,0,5.74-4,1.29,1.29,0,0,1,.36-.25,20.1,20.1,0,0,0,1.85-1.15c1.81-1.21,3.86-2.58,5.9-2.58A4,4,0,0,1,118.5,97l.09.14,17.22,32.77a2.49,2.49,0,0,1,.25,2.58c-1.61,4.14-13.49,12.66-17.64,12.66Z" fill="#fffc9c"/><path d="M115.06,96.58a2.56,2.56,0,0,1,2.2,1.24l17.3,32.93c2.24,2.05-12,12.88-16.14,12.88a1,1,0,0,1-1-.5L91.61,116.36c-1.4-7.25,11.56-11.72,16.36-16.21,1.88-.92,4.77-3.57,7.09-3.57m0-3c-2.5,0-4.85,1.57-6.73,2.83a15.78,15.78,0,0,1-1.69,1,3.2,3.2,0,0,0-.72.5,38.23,38.23,0,0,1-5.5,3.79c-5.85,3.6-13.12,8.09-11.76,15.18a3.14,3.14,0,0,0,.8,1.53c.46.47,23,23.87,25.58,26.51a4,4,0,0,0,3.38,1.66c5.11,0,17.35-9.28,19-13.62a4,4,0,0,0-.39-3.95L119.92,96.43c-.06-.1-.11-.2-.18-.3a5.56,5.56,0,0,0-4.68-2.55Z" fill="#c9b13d"/><path d="M103.83,163.18l-.59,0a1.3,1.3,0,0,1-.57-.17L69.9,145.42l-.17-.1c-3.83-2.75-.78-7.14,1-9.76a19.15,19.15,0,0,0,1.34-2.09h0a1.18,1.18,0,0,1,.11-.19,1.45,1.45,0,0,1,.36-.38,40.84,40.84,0,0,0,3.69-5.28C79.44,122.62,83,117,88.16,117a7.23,7.23,0,0,1,1.52.17,1.54,1.54,0,0,1,1,.87c.58.78,4,3.91,7.23,6.93,14.42,13.34,20.77,19.79,20.27,22.8a2.11,2.11,0,0,1-1.14,1.57c-1.83,1.16-3.27,3.7-4.66,6.15-2.16,3.8-4.4,7.73-8.59,7.73Z" fill="#fffc9c"/><path d="M88.16,118.46a5.44,5.44,0,0,1,1.19.14c.3,1.58,31.3,27.47,27,29.39-5.08,3.13-6.7,13.69-12.53,13.69l-.45,0L70.6,144.1c-3.48-2.5,1.56-7.3,2.87-10,0,0,0,0,0,0,4.16-4.31,8.35-15.71,14.71-15.71M73.48,134.11h0m0,0v0m14.68-18.65c-6,0-9.78,6-13.15,11.36a41.47,41.47,0,0,1-3.45,5,3.92,3.92,0,0,0-.45.46,3.72,3.72,0,0,0-.35.58,20.6,20.6,0,0,1-1.21,1.86,20.28,20.28,0,0,0-2.75,4.88,5.8,5.8,0,0,0,2,6.95l.34.22L102,164.3a3,3,0,0,0,1.14.35l.73,0c5.08,0,7.64-4.51,9.9-8.49,1.29-2.27,2.63-4.61,4.11-5.59a3.58,3.58,0,0,0,1.87-2.63c.57-3.46-3.5-8.2-20.73-24.14-2.92-2.7-6.21-5.74-7-6.65a3,3,0,0,0-2-1.51,8.24,8.24,0,0,0-1.84-.21Z" fill="#c9b13d"/><path d="M96,185.19a2.51,2.51,0,0,1-.89-.17l-36.4-6.53-.17-.05c-4.54-1.4-3-6.62-2-9.74.2-.66.39-1.28.51-1.8a5.4,5.4,0,0,1,.14-.72,1.64,1.64,0,0,1,.19-.4c3.06-13.91,6.77-19.63,12.68-19.63,4,0,8.42,2.77,14,6.27,5.31,3.33,11.32,7.11,18.72,9.67,1.07.23,2.22,1.23,2,4.54-.32,4.49-4.41,18.56-8.74,18.56Z" fill="#fffc9c"/><path d="M70.08,147.65c7.11,0,17,10.62,32.33,15.9,3.23.46-3,20.14-6.37,20.14a.79.79,0,0,1-.42-.12L59,177c-3.85-1.19-1.17-6.78-.47-9.86a3.54,3.54,0,0,0,0,.56c3.11-15.08,6.68-20.06,11.55-20.06m-11.43,19c0,.17-.06.35-.1.54a3.41,3.41,0,0,1,.1-.54m11.43-22h0c-8.2,0-11.7,9.67-14.09,20.58a2.57,2.57,0,0,0-.21.52,5.1,5.1,0,0,0-.19.88c-.11.46-.29,1-.47,1.63A20.58,20.58,0,0,0,54,173.82a5.8,5.8,0,0,0,4.14,6.05l.36.09,36.26,6.51a4,4,0,0,0,1.29.22c1.8,0,4.25-.95,7.22-8.37a43,43,0,0,0,3-11.59c.32-4.48-1.63-5.75-3.07-6.08-7.19-2.51-13.1-6.22-18.32-9.5-5.79-3.63-10.35-6.5-14.8-6.5Z" fill="#c9b13d"/><path d="M69.48,211.23c-12.08,0-14.72-1.29-15.77-2.68a2.54,2.54,0,0,1-.48-2c-.71-16.86,0-22.94,2.88-26a7.09,7.09,0,0,1,5.42-2c2.59,0,5.85.77,10,1.74a134.64,134.64,0,0,0,24,3.87,3.12,3.12,0,0,1,2.23,1.08c1.85,2.09,1.64,6.66,1.09,13.4-.25,3.11-.51,6.33-.16,7.65a1.32,1.32,0,0,1,.06.39,4.19,4.19,0,0,1-4.15,4.21h0a1.52,1.52,0,0,1-.63-.14,13.44,13.44,0,0,0-2.19-.1c-2,0-4.82.11-8.11.23C79.21,211,74.18,211.23,69.48,211.23Z" fill="#fffc9c"/><path d="M61.53,180.05c6,0,16.43,4.53,33.88,5.61,4.63.18.65,16.7,1.81,21a2.69,2.69,0,0,1-2.65,2.71,8.64,8.64,0,0,0-2.82-.24c-4.64,0-14.08.58-22.27.58-8.38,0-15.45-.6-14.74-3-.91-21.22.27-26.63,6.79-26.63m0-3A8.55,8.55,0,0,0,55,179.52c-3.59,3.75-3.93,11.69-3.29,26.94a4,4,0,0,0,.79,3c1.52,2,4.89,3.28,17,3.28,4.73,0,9.77-.19,14.22-.35,3.28-.12,6.11-.23,8-.23,1.1,0,1.61,0,1.81.06a2.87,2.87,0,0,0,1,.18h0a5.7,5.7,0,0,0,5.65-5.71,3,3,0,0,0-.11-.78c-.28-1.06,0-4.43.21-7.14.59-7.34.79-12-1.47-14.52a4.65,4.65,0,0,0-3.28-1.58,133.86,133.86,0,0,1-23.73-3.83c-4.21-1-7.54-1.78-10.31-1.78Z" fill="#c9b13d"/><path d="M69.47,240.33c-12.07,0-14.71-1.29-15.76-2.68a2.57,2.57,0,0,1-.48-2c-.69-14-.68-20.51,2.27-23.61,1.85-1.95,4.59-2.21,7-2.21,1.86,0,4.09.18,6.67.38,3.84.31,8.62.7,14.55.7,3.51,0,7.12-.14,10.71-.42h.12a1.32,1.32,0,0,1,.34,0c5,1.17,4.36,9.72,3.84,17.26-.22,3.11-.44,6.33-.09,7.58a1.4,1.4,0,0,1,.06.41,4.18,4.18,0,0,1-4.15,4.2h0a1.51,1.51,0,0,1-.63-.13,13.44,13.44,0,0,0-2.19-.1c-2,0-4.82.11-8.11.23C79.2,240.14,74.17,240.33,69.47,240.33Z" fill="#fffc9c"/><path d="M62.52,211.33c4.48,0,11.23,1.08,21.22,1.08,3.25,0,6.85-.12,10.83-.42,5.64,1.33,1.4,19.39,2.65,23.79a2.68,2.68,0,0,1-2.65,2.7,8.77,8.77,0,0,0-2.82-.23c-4.65,0-14.09.58-22.28.58-8.37,0-15.44-.61-14.73-3.05-1-20.79-.46-24.45,7.78-24.45m0-3h0c-2.75,0-5.86.31-8.11,2.67-3.35,3.53-3.41,9.89-2.68,24.58a4,4,0,0,0,.79,3c1.52,2,4.89,3.28,16.95,3.28,4.73,0,9.77-.19,14.22-.35,3.28-.12,6.12-.23,8.06-.23,1.1,0,1.6,0,1.81.06a3.1,3.1,0,0,0,1,.17h0a5.69,5.69,0,0,0,5.65-5.7,2.86,2.86,0,0,0-.12-.82c-.28-1,0-4.36.14-7.06.57-8.15,1.21-17.37-5-18.83a3.08,3.08,0,0,0-.68-.08h-.23c-3.56.27-7.13.41-10.6.41-5.86,0-10.61-.38-14.43-.69-2.61-.21-4.87-.39-6.79-.39Z" fill="#c9b13d"/><path d="M14.13,249.48c-.64-5,1.79-11.14,7.23-11H316.71c5.33-.11,8,6,7.22,11Z" fill="#75411a"/><path d="M145.66,249.48c-.1-6.07-1-12.65,5.31-11.8,5.94.14,5.74,7.17,5.53,11.8Z" fill="#ce894a" stroke="#a8662f" stroke-miterlimit="10" stroke-width="3"/><path d="M295.58,249.48c-1.26-2.23-.74-8.13,0-10,2-5,6.3-2,9.49-1.76,9.47-.18,20.38.06,22.75,11.8Z" fill="#ce894a" stroke="#a8662f" stroke-miterlimit="10" stroke-width="3"/><path d="M290.94,249.48c-6.66,0-16.6,0-23.21,0-2-1.82-1.44-5.78-1.14-8.21,3.43-4.76,11.62-7.38,17.08-4.3,2.84,1.43,6.41,1.69,9.36,2.66C293.64,241.48,293.06,246.9,290.94,249.48Z" fill="#ce894a" stroke="#a8662f" stroke-miterlimit="10" stroke-width="3"/><path d="M248.56,249.48c-.85-14.77,19.36-17,16,0Z" fill="#ce894a" stroke="#a8662f" stroke-miterlimit="10" stroke-width="3"/><path d="M246.79,249.48H201c.69-5.86-1.81-12.53,4.58-13.65,10.66-1.15,21.7-.1,32.34.69C249.13,236.56,246.68,240.76,246.79,249.48Z" fill="#ce894a" stroke="#a8662f" stroke-miterlimit="10" stroke-width="3"/><path d="M199.18,249.48c-2.93-.16-30.78.55-32.83-.71-3.28-.78-6.67-1.84-7.35-6.23-.57-3.67.21-6.68,3.44-7.24,3.53-.61,7.47-.16,11.05-.21,6.13.42,23.17-4.44,25.4,2.81C198.67,241.71,199.43,245.83,199.18,249.48Z" fill="#ce894a" stroke="#a8662f" stroke-miterlimit="10" stroke-width="3"/><path d="M116.89,249.48c0-17,1.14-12.33,15.73-13.7,13.29-1.92,10.6,3.26,11,13.7Z" fill="#ce894a" stroke="#a8662f" stroke-miterlimit="10" stroke-width="3"/><path d="M12.22,249.48c-2.61-16.42,14.38-14.19,13.92,0Z" fill="#ce894a" stroke="#a8662f" stroke-miterlimit="10" stroke-width="3"/><path d="M72.88,249.48H27.2c.56-5.52-1.55-11.37,4.55-12.34,10.62-1.24,21.7-.52,32.32,0C75.14,236.94,72.88,240.73,72.88,249.48Z" fill="#ce894a" stroke="#a8662f" stroke-miterlimit="10" stroke-width="3"/><path d="M110.8,249.48H76c-.22-15.71,1.35-13.87,16.47-13.43,7.14,2.62,24.45-4.45,22.41,8.16A6.36,6.36,0,0,1,110.8,249.48Z" fill="#ce894a" stroke="#a8662f" stroke-miterlimit="10" stroke-width="3"/><path d="M332.74,23.77c-70,2.1-146.94-.75-217.28,0-17.34,4.55-91.58-5.25-109.84,2-3.56,14.93,14.57,7.64,23.47,8.8C105.4,36,181.46,33.28,257.47,35.7,267.44,33.41,355.35,42.21,332.74,23.77Z" fill="#75411a"/><path d="M171.15,24.11c-20.9-.28-43.43-2.1-64.08.26-1.7,6.86-1.53,13.12,8.25,12C126.06,31.45,187.6,45.27,171.15,24.11Z" fill="#ce894a" stroke="#a8662f" stroke-miterlimit="10" stroke-width="3"/><path d="M240.1,35.92c2.27.26,5.05-.65,4.75-3.25,4.24-16.41-31.58-8.27-41.8-10.2-10-.15-41.9-2.95-23.72,12.84C201.05,35.66,219.07,34.11,240.1,35.92Z" fill="#ce894a" stroke="#a8662f" stroke-miterlimit="10" stroke-width="3"/><path d="M336.29,33c7.06-19.48-29.57-7-40.88-8.82-11.44,5-61-11.71-46.91,11.84C277.08,35.71,309.37,38.43,336.29,33Z" fill="#ce894a" stroke="#a8662f" stroke-miterlimit="10" stroke-width="3"/><path d="M104.9,27.1c-28.7-9.92-62.81-2.62-93.14-4-8.51.09-11.94,1.45-9.48,6.09-.59,13.47,34,3,44.06,6.05C57.62,31.6,113.08,45.23,104.9,27.1Z" fill="#ce894a" stroke="#a8662f" stroke-miterlimit="10" stroke-width="3"/></g></g></g></svg>