<svg xmlns="http://www.w3.org/2000/svg" width="106.44" height="84.39" viewBox="0 0 106.44 84.39">
  <g style="isolation: isolate">
    <g id="Layer_2" data-name="Layer 2">
      <g id="Layer_1-2" data-name="Layer 1">
        <g id="na_rock2">
          <g>
            <path d="M96.21,61a17.93,17.93,0,0,0,.13-5.16,78.71,78.71,0,0,0-.94-8.49C93.05,33.17,84.06,18.33,68.93,7a26.31,26.31,0,0,0-14-5.5c-4.57-.3-8.86,1.29-12.16,2.94-7.93,4-12.68,9.91-17.48,15.25A71.44,71.44,0,0,0,13.35,37.11C10.5,43.25,9.46,49.23,8.28,55.52A10,10,0,0,0,8.6,61Z" fill="#cecece"/>
            <path d="M96.34,55.87a78.71,78.71,0,0,0-.94-8.49C93.05,33.17,84.06,18.33,68.93,7a26.31,26.31,0,0,0-14-5.5c-.72,0-1.43,0-2.14,0a38.67,38.67,0,0,1,6.26,5.65,39.52,39.52,0,0,1,8.53,15.28c.62,2.18,1.59,4.66.6,6.85A15.8,15.8,0,0,1,65.37,33q-1.82,2-3.83,4C55.91,42.51,49.62,47.8,43.62,53.19,40.7,55.8,37.77,58.4,35,61H96.21A17.93,17.93,0,0,0,96.34,55.87Z" fill="#cecece" opacity="0.7" style="mix-blend-mode: multiply"/>
            <path d="M90.85,52.13a79.16,79.16,0,0,0-7.43-10.56c-4-4.72-8.53-9.52-14.92-13.3a3.84,3.84,0,0,1-.32,1A15.8,15.8,0,0,1,65.37,33q-1.82,2-3.83,4C55.91,42.51,49.62,47.8,43.62,53.19,40.7,55.8,37.77,58.4,35,61h61C94.72,58,92.62,55.08,90.85,52.13Z" fill="#575757"/>
            <path d="M96.34,55.87a78.71,78.71,0,0,0-.94-8.49C93.05,33.17,84.06,18.33,68.93,7a28.24,28.24,0,0,0-9.36-4.7,22.22,22.22,0,0,1,5.11,3.53,51.82,51.82,0,0,1,8.91,11,117.12,117.12,0,0,1,7,13.42c1,2.3,2.21,4.61,3,6.93.65,1.83,1.78,4.19,1.26,6.07-.06.19-5.78-6.61-6.26-7,2,3,3.25,7.42,4.37,10.56.29.82.66,1.63.89,2.47.07.28.22.61.07.89-.32.64-1.56.76-2.53.92-6.37,1-12.59,2.32-19,3.3-4.28.66-9.67,2.06-14.1,1.19-.18,0-.27-.14-.24-.26a33.59,33.59,0,0,1,3.63-6.75,43.41,43.41,0,0,1,3.87-5.7c.93-1.08,1.93-2.12,3-3.15A137.46,137.46,0,0,1,41,47.91C35.61,50,30.22,52.13,24.8,54.2a75,75,0,0,1-8.12,2.71c-1.46.37-3.74,1-5.33.5-2-.59-1.91-2.83-2.2-3.92-.08-.35-.17-.72-.28-1.09-.2,1-.39,2.08-.59,3.12A10,10,0,0,0,8.6,61H96.21A17.93,17.93,0,0,0,96.34,55.87Z" fill="#cecece" opacity="0.7" style="mix-blend-mode: multiply"/>
          </g>
          <g>
            <path d="M64.59,76.58a7.27,7.27,0,0,0,.09-2.77A31.94,31.94,0,0,0,64,69.28c-1.68-7.61-8.11-15.55-19-21.6a22.62,22.62,0,0,0-10-3,21.77,21.77,0,0,0-8.7,1.58c-5.68,2.14-9.07,5.31-12.51,8.16a39.91,39.91,0,0,0-8.55,9.3c-2,3.3-2.77,6.5-3.62,9.86a4.07,4.07,0,0,0,.23,3Z" fill="#cecece"/>
            <path d="M64.59,76.58a7.27,7.27,0,0,0,.09-2.77A31.94,31.94,0,0,0,64,69.28c-1.68-7.61-8.11-15.55-19-21.6a22.62,22.62,0,0,0-10-3,21.77,21.77,0,0,0-8.7,1.58c-5.68,2.14-9.07,5.31-12.51,8.16a39.91,39.91,0,0,0-8.55,9.3c-2,3.3-2.77,6.5-3.62,9.86a4.07,4.07,0,0,0,.23,3Z" fill="#cecece" opacity="0.6" style="mix-blend-mode: multiply"/>
            <path d="M64.68,73.81A31.94,31.94,0,0,0,64,69.28c-1.68-7.61-8.11-15.55-19-21.6a22.62,22.62,0,0,0-10-3c-.44,0-.89,0-1.32,0A11.34,11.34,0,0,1,37.57,49c1,1.8,1.59,3.64,2.41,5.45a38,38,0,0,1,2.3,6.68,26.61,26.61,0,0,1,.56,3.19,3.89,3.89,0,0,1-.23,2.23C41.92,68,40.25,69,38.43,69.93c-4.38,2.22-9.39,4.71-15.16,5.52S11.42,74.84,6.5,73.08C5,72.55,3.62,72,2.25,71.37c-.2.75-.39,1.49-.58,2.26a4.07,4.07,0,0,0,.23,3H64.59A7.27,7.27,0,0,0,64.68,73.81Z" fill="#cecece" opacity="0.7" style="mix-blend-mode: multiply"/>
            <path d="M64.68,73.81A31.94,31.94,0,0,0,64,69.28c-1.68-7.61-8.11-15.55-19-21.6a23.21,23.21,0,0,0-6.44-2.48A35.09,35.09,0,0,1,49,54.13a33.73,33.73,0,0,1,4.69,7.57,9.79,9.79,0,0,1-.86,9.11.33.33,0,0,1-.39.06c-1.81-1.23-2-3-3.07-4.41-1.6-2.23-2.77-4.59-4.33-6.83-2-2.88-4.15-5.75-6.49-8.55.48,1.13.91,2.27,1.43,3.41l.15.36h0c2.94,4.35,3.18,9.12,4,13.72a10.77,10.77,0,0,1,.47,3.76,6.86,6.86,0,0,1-1.86,2.83c-.44.48-.92.94-1.41,1.41H64.59A7.27,7.27,0,0,0,64.68,73.81Z" fill="#575757"/>
          </g>
          <g>
            <path d="M104.36,69.75a29.69,29.69,0,0,0-4.8-12.38c-3.29-4.54-9.67-8.73-17.42-10.77a23.75,23.75,0,0,0-18.26,2.08A54.78,54.78,0,0,0,51.7,57.77C48.18,61.37,46.81,65,45.77,69c-.61,2.36-1.36,4.82.09,7.13,1.84,2.94,6.91,4.46,11.74,5.27a119.53,119.53,0,0,0,32.51.68c4.17-.52,9.31-1.38,12.26-3.29C106,76.46,104.9,72.61,104.36,69.75Z" fill="#cecece"/>
            <path d="M104.36,69.75a29.69,29.69,0,0,0-4.8-12.38c-3.29-4.54-9.67-8.73-17.42-10.77a23.75,23.75,0,0,0-18.26,2.08A54.78,54.78,0,0,0,51.7,57.77C48.18,61.37,46.81,65,45.77,69c-.61,2.36-1.36,4.82.09,7.13,1.84,2.94,6.91,4.46,11.74,5.27a119.53,119.53,0,0,0,32.51.68c4.17-.52,9.31-1.38,12.26-3.29C106,76.46,104.9,72.61,104.36,69.75Z" fill="#cecece"/>
            <path d="M104.36,69.75a29.69,29.69,0,0,0-4.8-12.38c-3.29-4.54-9.67-8.73-17.42-10.77a23.75,23.75,0,0,0-18.26,2.08A54.78,54.78,0,0,0,51.7,57.77C48.18,61.37,46.81,65,45.77,69c-.61,2.36-1.36,4.82.09,7.13,1.84,2.94,6.91,4.46,11.74,5.27a119.53,119.53,0,0,0,32.51.68c4.17-.52,9.31-1.38,12.26-3.29C106,76.46,104.9,72.61,104.36,69.75ZM75.82,57.68a29.48,29.48,0,0,1-2,3.2,9.2,9.2,0,0,1-2.32,2.55c-.67.46-2.11,1.18-3.21.76a8.6,8.6,0,0,1-1.73-1c-.48-.32-8.07-7.79-7.53-8.64.14-.22.3-.43.47-.65a11.89,11.89,0,0,1,3.23-2.95,32.58,32.58,0,0,1,4.46-2.46A16.67,16.67,0,0,1,71.71,47a4.17,4.17,0,0,1,3.63.84,7.08,7.08,0,0,1,1.76,5.36A10,10,0,0,1,75.82,57.68Z" fill="#cecece"/>
            <path d="M104.36,69.75a29.69,29.69,0,0,0-4.8-12.38c-3.29-4.54-9.67-8.73-17.42-10.77a27.52,27.52,0,0,0-5.3-.88,17.28,17.28,0,0,1,5.66,6.43c.88,1.6,1.63,3.22,2.43,4.84A14,14,0,0,1,86,59.68a3.2,3.2,0,0,1,0,2.22c-.49,1-1.83,1.7-3.08,2.36-.73.39-1.49.77-2.15,1.2a22.42,22.42,0,0,0-2.09,1.66,32.71,32.71,0,0,0-7,7.65,37.93,37.93,0,0,0-3.3,7.87,119,119,0,0,0,21.7-.54c4.17-.52,9.31-1.38,12.26-3.29C106,76.46,104.9,72.61,104.36,69.75Z" fill="#8d8d8d" opacity="0.49"/>
            <path d="M104.36,69.75a29.73,29.73,0,0,0-4.79-12.36,43.61,43.61,0,0,0-15,3.16c-2.92,1.16-13.38,8.37-13.73,8.59,0,0-3.74-3.56-5.74-5.26s-4.45-4.51-6.68-6.19c-1.75-1.33-3.62-1.53-3-3.25a42.45,42.45,0,0,0-3.67,3.33C48.18,61.37,46.81,65,45.77,69c-.61,2.36-1.36,4.82.09,7.13,1.84,2.94,6.91,4.46,11.74,5.27a119.53,119.53,0,0,0,32.51.68c4.17-.52,9.31-1.38,12.26-3.29C106,76.46,104.9,72.61,104.36,69.75Z" fill="#8d8d8d"/>
          </g>
          <path d="M1.67,73.63c.85-3.36,1.6-6.56,3.62-9.86a29.52,29.52,0,0,1,3-3.93,11,11,0,0,1,0-4.32c1.18-6.29,2.22-12.27,5.07-18.41A71.44,71.44,0,0,1,25.29,19.72c4.8-5.34,9.55-11.23,17.48-15.25a26.07,26.07,0,0,1,10-2.93v0H53a16.35,16.35,0,0,1,2,0,23.75,23.75,0,0,1,7.28,1.69l.07,0a28.07,28.07,0,0,1,4.51,2.32l.3.19c.64.42,1.27.84,1.84,1.27C84.06,18.33,93.05,33.17,95.4,47.38c.35,2.11.59,4.24.76,6.37a22,22,0,0,1,3.4,3.62v0h0a21.18,21.18,0,0,1,1.72,2.81l.1.17c.1.19.18.39.27.59a34.49,34.49,0,0,1,2.7,8.79c.54,2.86,1.62,6.71-2,9.06-3,1.91-8.09,2.77-12.26,3.29-1.15.14-2.33.26-3.52.36l-.81.07c-2.44.19-5,.31-7.48.35h-.6c-2.62,0-5.27,0-7.88-.16l-.36,0c-.35,0-.7,0-1-.06v0a105.88,105.88,0,0,1-10.82-1.2c-4.58-.76-9.38-2.18-11.43-4.84H1.9A4.07,4.07,0,0,1,1.67,73.63Z" fill="none" stroke="#575757" stroke-linecap="round" stroke-linejoin="round" stroke-width="3"/>
        </g>
      </g>
    </g>
  </g>
</svg>
