<svg xmlns="http://www.w3.org/2000/svg" viewBox="0 0 39.2 42.4"><g style="isolation:isolate"><g id="Layer_2" data-name="Layer 2"><g id="Layer_1-2" data-name="Layer 1"><g id="na_cricket_1" data-name="na_cricket 1"><path d="M11.9,0a1.5,1.5,0,0,1,1.4,1.3c7.6,3,13.8,11.5,16.1,15.1l.3.5h.1l.4.6h0a.9.9,0,0,1,.1.5c-.1.2-.2.4-.3.4l-.4.2a.7.7,0,0,1-.6-.4h-.1v-.2c-1.3-2-7.9-12.3-16-15.5l-.9.3a1.5,1.5,0,0,1-1.4-1.5A1.4,1.4,0,0,1,11.9,0Z" style="fill:#1d1d1b"/><path d="M10.4,29.2H9.3v-.5a9.6,9.6,0,0,0,0-2.4V24.6a16.7,16.7,0,0,0,1.2,1.6l.6.9v.2h0a5.3,5.3,0,0,1-.1,1.3v.6Z" style="fill:#507125"/><path d="M9.8,26.2l.3.3.6.9a5.3,5.3,0,0,1-.1,1.3H9.8a9.6,9.6,0,0,0,0-2.4M8.7,23.1v3.1a9.6,9.6,0,0,1,0,2.4v.9h2.8v-1a6.2,6.2,0,0,0,.1-1.3v-.4l-.2-.2-.7-1-.2-.2h-.1L8.7,23.1Z" style="fill:#2e5b1d"/><path d="M10.9,24.1c-.1,0-.2,0-.2-.1l-.9-.5-.4-.3c-.2-.1-.3-.2-.3-.4a10.6,10.6,0,0,1,.7-4.5.5.5,0,0,1,.4-.3h0a.5.5,0,0,1,.5.3,3.7,3.7,0,0,0,.7,1,.4.4,0,0,1,.1.3V20c0,.9,0,2.2-.1,3.6a.8.8,0,0,1-.2.5Z" style="fill:#507125"/><path d="M10.2,18.5l.8,1.1V20c0,.9,0,2.2-.1,3.6l-.8-.5-.5-.3a12.2,12.2,0,0,1,.6-4.3m0-1h0a1.1,1.1,0,0,0-.9.6,13.7,13.7,0,0,0-.7,4.7.9.9,0,0,0,.5.8l.5.3.8.6h1a1,1,0,0,0,.5-.8c.1-1.5.1-2.8.1-3.7v-.4a1.4,1.4,0,0,0-.2-.6l-.7-.9a.9.9,0,0,0-.9-.6Z" style="fill:#2e5b1d"/><path d="M7.5,38.6h-2c-.2-.1-.5-.3-.5-.6a.6.6,0,0,1,.4-.6,6.7,6.7,0,0,1,2.7-.7c.1-.4.3-.8.4-1.1l.2-.5.5.2.3.2.9.4v.4a7.1,7.1,0,0,1-.5,1.7v.2l-.2.2H9.3l-.7.2Z" style="fill:#507125"/><path d="M9,35.7h.4l.4.3a7.1,7.1,0,0,1-.5,1.7h0a.1.1,0,0,0-.1.1l-.7.2H5.6c-.1,0-.2-.2,0-.3a8.3,8.3,0,0,1,2.5-.6h.4A9.3,9.3,0,0,1,9,35.7m-.6-1.5-.3,1.1-.4.8a13.8,13.8,0,0,0-2.6.7A1.1,1.1,0,0,0,4.5,38a1.3,1.3,0,0,0,1,1H8.7l.8-.2h.3l.3-.4.2-.2h0a12.4,12.4,0,0,0,.5-1.9v-.7l-.7-.4H9.8l-.3-.2-1.1-.6Z" style="fill:#2e5b1d"/><path d="M31.3,37.4a2.7,2.7,0,0,1-2.2-.9,7,7,0,0,1-1.2-3.4l-.2-.6.3-.2.3-.2c0-.1.1-.1.1-.2l1-1.2v1.7c.1,1.4.7,2.8,1,2.8h.2a1.2,1.2,0,0,1,.9-.3,1.4,1.4,0,0,1,1.3.8c0,.2.1.4,0,.6a1.2,1.2,0,0,1-1.3,1.2Z" style="fill:#507125"/><path d="M28.8,32.2v.3c.1,1,.6,3.2,1.5,3.2l.5-.2a.7.7,0,0,1,.6-.2.9.9,0,0,1,.8.5c0,.1.1.2,0,.4a.8.8,0,0,1-.8.7h-.1a2,2,0,0,1-1.8-.7,7.3,7.3,0,0,1-1.2-3.5h.1l.2-.3.2-.2M30,29.3l-1.9,2.2h-.2l-.2.2h0l-.5.4v.9a7.2,7.2,0,0,0,1.3,3.6,3,3,0,0,0,2.6,1.1h.1a1.7,1.7,0,0,0,1.8-1.7,1.2,1.2,0,0,0-.1-.8,1.7,1.7,0,0,0-1.7-1.1,1.7,1.7,0,0,0-1,.3,9.8,9.8,0,0,1-.6-2.2v-.2l.2-2.9Z" style="fill:#2e5b1d"/><path d="M23.4,37.7h-.5v-.5c0-.3.1-.6.1-.9V35l.6.2h.5s.1,0,.3-.3a11.6,11.6,0,0,0,.6-1.5h.1l.6-.5.2-.3.3.2h.2l.4.2v.6c-.4,3.4-1.9,4.1-3.1,4.1Z" style="fill:#507125"/><path d="M26,33.2h.2v.2c-.2,1.9-.9,3.7-2.6,3.7h-.2c0-.4.1-.7.1-1v-.5h.2l.4.2c.2,0,.5-.3.7-.5a11.1,11.1,0,0,0,.7-1.6h0l.5-.6M25.8,32l-.5.5c-.2.2-.3.4-.5.5h-.1v.4a5,5,0,0,1-.5,1.3h-.3l-1.2-.4v1.9c0,.3-.1.6-.1.8v1.1h1.3c1.4,0,3.1-.8,3.6-4.6v-.9l-.7-.3a.1.1,0,0,1-.1-.1h-.1l-.6-.3Z" style="fill:#2e5b1d"/><path d="M23,35.7a.9.9,0,0,0-.1.5,2.5,2.5,0,0,1-.1.8.7.7,0,0,1-.2-.7A.5.5,0,0,1,23,35.7Z" style="fill:#4a9804"/><path d="M25.2,32.8l.4.2h.6a1.9,1.9,0,0,0,1.5-.1v-.9A3,3,0,0,1,25.2,32.8Z" style="fill:#6c9433;opacity:0.39;mix-blend-mode:multiply"/><path d="M17.1,28.6h-.3a1,1,0,0,0-.5-.4l-.5-.4c-.1,0-.1-.1-.2-.2l-.4-.9A18.2,18.2,0,0,0,13,22.8a8.7,8.7,0,0,0-.9-1.1l-1.5-1.8a4.9,4.9,0,0,1-.8-1.2c-.3-.5-.2-.9,0-1a1.1,1.1,0,0,1,.9-.4h.4a9.9,9.9,0,0,1,3.3,2.1h.2c1.6,1.3,3.1,2.8,4.6,4.2L21,25.6h.2l.3.4a.8.8,0,0,1,.4.4c.1.1.2.3.1.4s-.1.3-.3.4h-.2l-4.2,1.3Z" style="fill:#b9e48e"/><path d="M10.7,17.8H11A11.1,11.1,0,0,1,14.3,20c2.3,1.9,4.3,4,6.4,5.9.2.2.3.4.5.5l.3.4c-1.2.4-2.7.9-4.4,1.3a1,1,0,0,0-.5-.4l-.5-.4a25.6,25.6,0,0,0-2.7-4.8L11,19.6l-.8-1.1a.4.4,0,0,1,0-.5l.5-.2m0-1h0a1.7,1.7,0,0,0-1.2.5A1.4,1.4,0,0,0,9.4,19a7.6,7.6,0,0,0,.8,1.3L11.7,22l1,1.1a29.6,29.6,0,0,1,2,3.7l.5.9.3.4h.1l.4.3a1,1,0,0,1,.5.4l.6.2h.3l4.3-1.3h.1a1.2,1.2,0,0,0,.7-.7,1.2,1.2,0,0,0-.2-1l-.4-.4-.4-.4h-.1l-1.9-1.8c-1.4-1.4-2.9-2.8-4.6-4.2h-.2a10.9,10.9,0,0,0-3.4-2.2Z" style="fill:#72b75b"/><path d="M22.2,26.9v-.3A1.9,1.9,0,0,1,24,25.3h.3l.3.9h0l.9,1.6,1,1.2h.1a7,7,0,0,0,1.9,1.5l1.1.6-.8,1h0l-.2.2-.2.3h-.2v-.3h0a1.7,1.7,0,0,0,.1-.7H26.8a.3.3,0,0,0-.3.3c-.1.2.1.3.2.3h1v.9a1.9,1.9,0,0,1-1.5.1h-.6l-.4-.2a12.5,12.5,0,0,1-1.7-2c0-.1-.1-.2-.1-.3A5.9,5.9,0,0,1,22.2,26.9Z" style="fill:#6c9433;stroke:#507125;stroke-miterlimit:10"/><path d="M21.9,26.7h.3a3.3,3.3,0,0,0,0,1,8.9,8.9,0,0,0,1.2,2.9,13.4,13.4,0,0,1-3.5,1c0-.2-.1-.3-.1-.4l-.6-1a10,10,0,0,0-2.1-2Z" style="fill:#6c9433;stroke:#507125;stroke-miterlimit:10"/><path d="M5.9,29.8V28l3.9.6h1.8l1.9,2.7.4.4-3.5-.2H9.5l-3.7-.7A4.1,4.1,0,0,1,5.9,29.8Z" style="fill:#6c9433;stroke:#507125;stroke-miterlimit:10"/><path d="M33.3,32.4h-.9a7.8,7.8,0,0,1-2.5-.7l-.5-.2a10.2,10.2,0,0,1-3.2-2.2,8.5,8.5,0,0,1-2.4-3.9,6.5,6.5,0,0,1,.9-5.8l.5-.6a5.9,5.9,0,0,1,4.2-1.7A8.8,8.8,0,0,1,35.5,20c3,3.1,4.5,8.3,1.8,11l-.8.6h-.7A6.9,6.9,0,0,1,33.3,32.4Z" style="fill:#b9e48e"/><path d="M29.4,17.8a8.3,8.3,0,0,1,5.8,2.6c2.9,2.9,4.2,7.8,1.8,10.2l-.7.6H36l-.3.2a.1.1,0,0,0,.1-.1,5.3,5.3,0,0,1-2.5.5h-.9l-2.3-.6-.5-.2A10.6,10.6,0,0,1,26.5,29a8.6,8.6,0,0,1-2.2-3.8,5.8,5.8,0,0,1,.8-5.3l.4-.5a5.3,5.3,0,0,1,3.9-1.6m0-1h0a6.4,6.4,0,0,0-4.6,1.9l-.6.6a7.3,7.3,0,0,0-.9,6.2,10.7,10.7,0,0,0,2.5,4.2A13.6,13.6,0,0,0,29.2,32l.5.2a14.5,14.5,0,0,0,2.6.7h1a7.1,7.1,0,0,0,2.6-.4h.2l.3-.2h.1l.3-.2.9-.7c1.4-1.3,1.8-3.4,1.3-5.8a11.4,11.4,0,0,0-3.1-5.8,9.5,9.5,0,0,0-6.5-2.9Z" style="fill:#72b75b"/><circle cx="30.5" cy="25.4" r="2.4" style="fill:#fff"/><circle cx="30.5" cy="25.5" r="1.7"/><circle cx="31.3" cy="24.3" r="0.5" style="fill:#fff"/><path d="M3.6,27.7l1.6.2v1.7a2,2,0,0,1,0,1.1,14.9,14.9,0,0,1-2.8-1.1l-.6-.5C.1,27.5,1.3,27.4,3.6,27.7Z" style="fill:#6c9433;stroke:#507125;stroke-miterlimit:10"/><path d="M5.7,32.4a7.6,7.6,0,0,0,.1-1.5,42.7,42.7,0,0,0,8.1,1c2,2.8,7.3,3.4,6-.4a11.1,11.1,0,0,0,3.5-1c.9,1.4,1.6,2.3,2.6,2.7a17.9,17.9,0,0,1-2.5,2.2V34c2.2.2,1.1-1-.4-.5s0,1.5-.2,2.2c-5.3,3.7-12.1,1.7-17.2-2.1Z" style="fill:#96b85c;stroke:#507125;stroke-miterlimit:10"/><path d="M2.4,29.6l1.4.7,1.4.4V32a4.9,4.9,0,0,1-.1,1.2A8.4,8.4,0,0,1,2.7,31C2.3,30.4,2.2,29.9,2.4,29.6Z" style="fill:#96b85c;stroke:#507125;stroke-miterlimit:10"/><path d="M30.4,40.1c-1.6,0-2.7-1.4-3-3.9a15.1,15.1,0,0,1-.2-3v-.5h-.4c-.5,0-.9-.4-.8-.8a.7.7,0,0,1,.4-.7h2.4v.5c0,.4-.1.7-.1,1.1a10.1,10.1,0,0,0,.9,4.7c.2.3.4.3.4.3h.8A1.3,1.3,0,0,1,32,38.8a1.3,1.3,0,0,1-1.1,1.3Z" style="fill:#6c9433"/><path d="M26.8,31.6h1.5c0,.3-.1.7-.1,1.1a10.7,10.7,0,0,0,1,5,1,1,0,0,0,.8.5h.8a.7.7,0,0,1,.7.7.8.8,0,0,1-.7.8h-.4c-1.7,0-2.3-2.1-2.5-3.5a14.6,14.6,0,0,1-.2-2.9v-1h-1c-.1,0-.3-.1-.2-.3s0-.2.1-.2h.2m0-1-.7.2a1.1,1.1,0,0,0-.6,1.1,1.1,1.1,0,0,0,1.2,1.3,15.6,15.6,0,0,0,.2,3.1c.4,2.7,1.6,4.3,3.5,4.3H31a1.7,1.7,0,0,0,1.5-1.8,1.7,1.7,0,0,0-1.7-1.6H30a9.4,9.4,0,0,1-.8-4.4c0-.4.1-.8.1-1.1v-1H26.8Z" style="fill:#507125"/><path d="M4.1,40.6a7.5,7.5,0,0,1-3.3-.7H.7v-.2a.7.7,0,0,1-.1-.5,1,1,0,0,1,.5-.4,6.2,6.2,0,0,1,2.1-.3h.7a1.9,1.9,0,0,0,.2-.7,26.6,26.6,0,0,0,.6-4.5,20.1,20.1,0,0,0,.1-2.5,26.1,26.1,0,0,0,0-2.8v-.2a16.1,16.1,0,0,1,.4-5.8l.3-.8.5.6.4.5h.2v.6c0,.9,0,2.8-.1,5.2v.4c0,.8-.1,1.6-.1,2.4a24.5,24.5,0,0,1-.2,2.7c-.4,6.3-.8,6.6-1.1,6.8S4.7,40.6,4.1,40.6Z" style="fill:#6c9433"/><path d="M5.5,22.1c.2.1.3.3.5.5v.3c0,1,0,2.9-.1,5.1a28.1,28.1,0,0,1-.1,2.9c0,.9-.1,1.8-.1,2.7-.3,3.3-.6,6.1-.9,6.4H4.1a6.3,6.3,0,0,1-3-.7H1c0-.1,0-.2.1-.2a6,6,0,0,1,2-.3,2,2,0,0,1,1.1.2l.3-1.3a30.2,30.2,0,0,0,.6-4.6,19.3,19.3,0,0,0,.1-2.5,26.1,26.1,0,0,0,0-2.8v-.2a15.7,15.7,0,0,1,.3-5.6m-.3-1.9-.6,1.5a17.5,17.5,0,0,0-.4,6v.2h0a24.3,24.3,0,0,1,0,2.7,19.3,19.3,0,0,1-.1,2.4,22.7,22.7,0,0,1-.6,4.4c0,.2,0,.3-.1.4H3.1a8,8,0,0,0-2.3.3,1.2,1.2,0,0,0-.7.7,1.2,1.2,0,0,0,.1,1c.1.1.2.3.4.4a8.3,8.3,0,0,0,3.5.8c.7,0,1-.1,1.2-.3s.9-.6,1.3-7.2a22.8,22.8,0,0,0,.2-2.7c0-.8.1-1.6.1-2.4v-.4c.1-2.4.1-4.3.1-5.3v-.7l-.3-.3-.4-.4L5.2,20.2Z" style="fill:#507125"/><path d="M20.7,41.9h-.3a1.4,1.4,0,0,1-1.2-1.1,1.5,1.5,0,0,1,.3-1,1.1,1.1,0,0,1,.9-.4h.8l.4-.3a7.6,7.6,0,0,0,.7-2.4,4.5,4.5,0,0,0,.1-1.2,2,2,0,0,0,.1-.7c0-.4-.1-.8-.1-1.2a1.4,1.4,0,0,1,.2-.6c.1,0,.1-.1.2-.2h1.6a.7.7,0,0,1,.6.3c.2.1.2.3.2.6a.8.8,0,0,1-.8.7H24v1.2a8.1,8.1,0,0,1-.1,1.5C23.6,40.3,22.6,41.9,20.7,41.9Z" style="fill:#6c9433"/><path d="M24.4,33.4a.3.3,0,0,1,.3.3.3.3,0,0,1-.3.3h-.7c-.1,0-.2.1-.2.3v1.4a8.6,8.6,0,0,1-.1,1.5c-.2,2.1-.8,4.2-2.7,4.2h-.2a.7.7,0,0,1-.8-.7.7.7,0,0,1,.7-.8h.8c.3,0,.5-.2.8-.5a7.9,7.9,0,0,0,.8-2.6,5.3,5.3,0,0,0,.1-1.3h0A1.7,1.7,0,0,0,23,35c0-.4-.1-.8-.1-1.2h0a.3.3,0,0,1,.1-.2h1.4m0-1H23.2c-.1,0-.2,0-.2.1h-.4q-.3.1-.3.3a1,1,0,0,0-.4.9h0c0,.3.1.6.1,1.1v.7h-.1a3.7,3.7,0,0,1-.1,1.1,4.8,4.8,0,0,1-.7,2.2h-.7a2.1,2.1,0,0,0-1.3.5,2,2,0,0,0-.4,1.5,1.8,1.8,0,0,0,1.7,1.5h.3c1.5,0,3.3-.9,3.7-5.2a7.6,7.6,0,0,0,.1-1.5V35a1.2,1.2,0,0,0,1.2-1.2,1.7,1.7,0,0,0-.3-1,1.8,1.8,0,0,0-1-.4Z" style="fill:#507125"/><path d="M18.2,34.7a6.2,6.2,0,0,1-4.3-2l-.4-.5-2.1-2.9-.2-.2-.9-1.4a8.3,8.3,0,0,1-.8-1.2,3.8,3.8,0,0,0-.9-.9l-1-.9-2-1.8-.4-.5c-.3-.3-.9-.9-.5-1.4a1.4,1.4,0,0,1,1.1-.5,3,3,0,0,1,1.4.4,12,12,0,0,1,2.3,1.2l.4.3,1.3.8,3.5,2.5,1.7,1.2.5.4.6.4a7.7,7.7,0,0,1,1.8,1.8h.2l.7,1.2c.1.1.1.3.2.4a2.8,2.8,0,0,1,.1,1.8v.2c-.1.2-.1.3-.2.4A2.2,2.2,0,0,1,18.2,34.7Z" style="fill:#b9e48e"/><path d="M5.8,21l1.2.3,2.5,1.4h.1l1.3.8,5.2,3.7.5.4a1,1,0,0,1,.5.4,7.3,7.3,0,0,1,1.8,1.7h.2a.1.1,0,0,0,.1.1l.6,1c0,.1.1.2.1.4a2.6,2.6,0,0,1,.2,1.5c-.1.1-.1.1-.1.2l-.2.3a1.8,1.8,0,0,1-1.6.7,5.8,5.8,0,0,1-3.9-1.9c-.2-.1-.3-.3-.4-.4s-1.5-2-2.3-3.1l-.9-1.4-.9-1.2-.8-1c-1-.8-2.2-1.8-3-2.6s-.3-.4-.5-.5-.5-.7-.4-.8a.9.9,0,0,1,.7-.3m0-1h0a2.3,2.3,0,0,0-1.5.6c-.6.9.2,1.8.5,2.1l.5.6,2,1.8,1,.9.8.8L9.9,28l.9,1.3v.2c.7,1.1,1.5,2.1,2.2,3l.4.5a7.1,7.1,0,0,0,4.7,2.2A2.8,2.8,0,0,0,20.7,34a.8.8,0,0,0,.2-.5H21v-.3a3.8,3.8,0,0,0-.1-2.1.8.8,0,0,1-.2-.4,7.5,7.5,0,0,0-.7-1.2.1.1,0,0,1-.1-.1h-.1l-.2-.2a11.1,11.1,0,0,0-1.9-1.8l-.5-.4-.4-.3h-.1L15,25.3l-3.5-2.5-1.3-.9H9.8L7.4,20.4A3.7,3.7,0,0,0,5.8,20Z" style="fill:#72b75b"/><path d="M10.5,2.9A1.5,1.5,0,0,1,12,4.2C20.7,7,28,17.5,28.8,18.8V19a.5.5,0,0,1-.3.7h-.4a.9.9,0,0,1-.6-.3C27.3,19,20,8.2,11.4,5.5a1.2,1.2,0,0,1-.9.3A1.5,1.5,0,0,1,9.1,4.3,1.5,1.5,0,0,1,10.5,2.9Z" style="fill:#1d1d1b"/></g></g></g></g></svg>