<svg xmlns="http://www.w3.org/2000/svg" xmlns:xlink="http://www.w3.org/1999/xlink" width="256.53" height="324.36" viewBox="0 0 256.53 324.36">
  <defs>
    <clipPath id="clip-path" transform="translate(8.51)">
      <path d="M42,103c13.44,18.44,38.91,17.33,57.39,11.86A68.83,68.83,0,0,1,153.76,121c16.8,9.43,41.39,16.18,58.59,1.19l13.39-13.71c28.52-31.45-12.28-80.6-32.58-89.77C156.7.9,123.19-2.87,83.67,6.4,58.19,13.59,11.15,49.7,32,86.7,36,93.23,38,96.5,42,103Z" fill="none"/>
    </clipPath>
    <clipPath id="clip-path-2" transform="translate(8.51)">
      <path d="M46.74,153.24h0l3.37.41h0q.54,7.78,1.09,15.56l.09,1.25.06.74c0,.16,0,.32,0,.48A30.28,30.28,0,0,0,52.53,178a15.12,15.12,0,0,0,1.66,3.69c4,6.26,12.25,7.84,19.39,9.92a76.9,76.9,0,0,1,35.6,22.5,28.21,28.21,0,0,0-9.6-21.27c-3.21-2.77-7-4.82-9.88-8-5.46-6.1-6.1-15.13-5-23.24.77-6,2.33-12,2.92-18.09,0,0,0-.09,0-.14,0-.41.07-.83.1-1.25a2.64,2.64,0,0,0,0-.29c0-.38,0-.75.06-1.13,0-.13,0-.26,0-.39,0-.37,0-.74,0-1.1v-.41q0-.75,0-1.5h0L97,137h0a18.85,18.85,0,0,0-3.79,7.22l-.09.36a19.35,19.35,0,0,0-.6,4.85,18.91,18.91,0,0,0,.28,3.1c.1.53.22,1,.35,1.56l.14.47c.1.36.21.73.33,1.09l.17.48c.14.4.28.8.44,1.19,0,.1.07.2.11.29.21.52.43,1,.65,1.54,2,4.59,4.59,9,4.79,14,.1,2.54-.43,5.09-.14,7.61.68,5.78,5.39,10.09,9.33,14.38s7.53,10.19,5.44,15.62c6.37-.87,10.27-7.73,11-14.12s-.58-12.89.19-19.28c.79-6.57,3.72-12.48,7.5-18h0c.68-1,1.4-2,2.13-2.93l.22-.29c.71-.92,1.43-1.83,2.17-2.73L138,153c.73-.89,1.46-1.76,2.21-2.63.11-.13.23-.26.34-.4.76-.87,1.51-1.74,2.27-2.6a8.85,8.85,0,0,1,2.48-2.21c2.75-1.43,5.75.22,8.2,2.41.68.62,1.33,1.27,1.91,1.91h0q-2.88,1.38-5.6,3c-.61.36-1.21.74-1.81,1.12a67.08,67.08,0,0,0-6.81,5.06h0c-.42.36-.83.72-1.24,1.1a.6.6,0,0,1-.08.08c-.41.38-.82.78-1.2,1.2h0a11.67,11.67,0,0,0-2.63,4.15c-.92,2.66-.26,6.05,2.15,7.49,3.38,2,7.54-.66,10.54-3.21l3.15-2.68h0l10-8.53a8.18,8.18,0,0,1,1-.72,2.84,2.84,0,0,1,.53-.25,1.81,1.81,0,0,1,.57-.12,2.88,2.88,0,0,1,1.31.32c.21.1.41.21.61.32l8.35,4.65a1.87,1.87,0,0,1,.14.59,2,2,0,0,1-.49,1.33,6.28,6.28,0,0,1-2.48,1.71l-18.77,7.67c-5.56,2.28-11.43,4.79-14.92,9.69-2.93,4.12-3.74,9.34-4.46,14.35s-1.46,10-2.18,15.07a80.35,80.35,0,0,0,16.61-16.33c2.26-3,4.34-6.14,7.18-8.56,6.23-5.3,15-6.14,22.47-9.45h0l1.07-.49c.4-.2.8-.39,1.19-.6l0,0a28.25,28.25,0,0,0,13.4-16.7,26.16,26.16,0,0,0,.81-3.61,6.7,6.7,0,0,1,2.34.71,8.27,8.27,0,0,1,4.43,7.37,7,7,0,0,1-.25,1.63l-1,4.53-.9,1.56-.21.35c-.24.42-.48.83-.73,1.24l-.25.42-.74,1.18-.26.41c-.25.39-.51.78-.77,1.17l-.26.39-.83,1.17-.25.35-.9,1.18-.23.28c-.33.42-.67.82-1,1.21a1.46,1.46,0,0,1-.16.19q-.6.69-1.23,1.32h0a19.31,19.31,0,0,1-10,5.74c-4,.79-8.2,0-12.19.87-6.55,1.43-11.27,7-15.51,12.15A155.13,155.13,0,0,1,139,218.08c-8.87,8.27-19.75,14.74-26.27,25-5.27,8.27-7.17,18.4-6.49,28.17s3.82,19.26,8,28.13c3.33,7.08,7.39,14.12,8,21.92q-6-.25-12,0c-3.58.14-7.14.41-10.7.81l-1.32.15c-1,.11-2,.25-2.94.39l-.44.06c-1.88-9.7-2.25-19.59-2.33-29.48,0-.76,0-1.52,0-2.28,0-1.52,0-3,0-4.56v-1.47c0-1,0-2,0-3a116.78,116.78,0,0,1,1.61-20.36c.13-.65.26-1.29.4-1.93.29-1.34.63-2.66,1-4,.16-.51.31-1,.48-1.53a40.08,40.08,0,0,1,6.54-12.39l.21-.26a56.62,56.62,0,0,0,4.35-5.49,11.74,11.74,0,0,0,1.05-2.06,11,11,0,0,0,.73-4,17.18,17.18,0,0,0-3.57-9.65,35.3,35.3,0,0,0-5.2-5.81,112.91,112.91,0,0,0-24-16.05c-5.46-2.82-11.08-5.39-16.69-7.87a37.74,37.74,0,0,1-4.76-2.38,13.38,13.38,0,0,1-2.84-2.3c-.23-.24-.43-.5-.63-.75l0,0c-2.62-3.45-3.09-8.16-3.38-12.55h0q-.61-9.45-1-18.92c0-.14,0-.27,0-.41Z" fill="none"/>
    </clipPath>
    <clipPath id="clip-path-4" transform="translate(8.51)">
      <path d="M124.21,175.87c9.91,10.81,26.09,8.27,37.49,3.46a44.18,44.18,0,0,1,35.16,0c11.41,4.82,27.59,7.36,37.5-3.45l7.56-9.71c16-22.12-13.62-50.58-27.24-55-24.56-8.75-46.23-8.75-70.79,0-15.76,6.42-43.19,32.86-27.24,55C119.67,170.05,121.19,172,124.21,175.87Z" fill="none"/>
    </clipPath>
  </defs>
  <g id="Layer_2" data-name="Layer 2">
    <g id="Layer_1-2" data-name="Layer 1">
      <g id="na_tree_4" data-name="na_tree 4">
        <g>
          <path d="M42,103c13.44,18.44,38.91,17.33,57.39,11.86A68.83,68.83,0,0,1,153.76,121c16.8,9.43,41.39,16.18,58.59,1.19l13.39-13.71c28.52-31.45-12.28-80.6-32.58-89.77C156.7.9,123.19-2.87,83.67,6.4,58.19,13.59,11.15,49.7,32,86.7,36,93.23,38,96.5,42,103Z" transform="translate(8.51)" fill="#6c9433" stroke="#507125" stroke-miterlimit="10" stroke-width="3"/>
          <g clip-path="url(#clip-path)">
            <path d="M74.17,71.61C85.69,84.92,107,84.49,122.38,80.87A67.26,67.26,0,0,1,168,86c14.2,7,34.87,12.1,49.06,1.68l11-9.56c23.43-22-11.42-57.52-28.54-64.34C168.72.58,140.62-2.58,107.68,3.45,86.45,8.21,47.61,33.23,65.56,59.85,69,64.55,70.73,66.9,74.17,71.61Z" transform="translate(8.51)" fill="#96b85c"/>
            <path d="M37.57,77.26c5.16,6,14.72,5.78,21.62,4.15a30.28,30.28,0,0,1,20.46,2.3c6.37,3.12,15.65,5.43,22,.76l4.94-4.29c10.51-9.86-5.13-25.81-12.81-28.87A67.72,67.72,0,0,0,52.6,46.68C43.07,48.82,25.65,60,33.7,72Z" transform="translate(8.51)" fill="#96b85c"/>
            <path d="M104.84,93.83c2.49,2.88,7.09,2.78,10.42,2a14.53,14.53,0,0,1,9.85,1.11c3.07,1.5,7.53,2.61,10.6.36l2.38-2.06c5.06-4.75-2.47-12.43-6.17-13.91a32.6,32.6,0,0,0-19.84-2.23c-4.58,1-13,6.44-9.1,12.19Z" transform="translate(8.51)" fill="#96b85c"/>
            <path d="M66.51,97c1.63,1.88,4.64,1.82,6.81,1.31a9.5,9.5,0,0,1,6.44.72c2,1,4.93,1.71,6.94.24L88.25,98c3.31-3.11-1.61-8.13-4-9.09a21.29,21.29,0,0,0-13-1.46c-3,.67-8.49,4.21-5.95,8Z" transform="translate(8.51)" fill="#96b85c"/>
            <path d="M162.35,99.87c3.14,3.63,9,3.52,13.14,2.53a18.33,18.33,0,0,1,12.44,1.4c3.88,1.89,9.51,3.3,13.38.45l3-2.6c6.38-6-3.12-15.69-7.79-17.55a41.13,41.13,0,0,0-25-2.82C165.7,82.58,155.1,89.4,160,96.66Z" transform="translate(8.51)" fill="#96b85c"/>
            <path d="M57.88,39.37C61,43,66.83,42.88,71,41.9a18.38,18.38,0,0,1,12.44,1.39c3.88,1.9,9.51,3.3,13.38.46l3-2.6c6.38-6-3.12-15.7-7.79-17.55a41.13,41.13,0,0,0-25-2.82c-5.8,1.3-16.39,8.12-11.49,15.38Z" transform="translate(8.51)" fill="#96b85c"/>
            <path d="M182,30.71a3.19,3.19,0,0,0,3.09.59,4.3,4.3,0,0,1,2.93.33,3.17,3.17,0,0,0,3.15.11l.71-.62c1.5-1.41-.74-3.69-1.84-4.13a9.76,9.76,0,0,0-5.89-.66c-1.36.31-3.85,1.91-2.7,3.62Z" transform="translate(8.51)" fill="#dfe590"/>
            <path d="M173.38,23.86a3.19,3.19,0,0,0,3.09.59,4.36,4.36,0,0,1,2.93.33,3.17,3.17,0,0,0,3.15.11l.7-.61c1.51-1.41-.73-3.7-1.83-4.13a9.69,9.69,0,0,0-5.89-.67c-1.36.31-3.86,1.91-2.71,3.62Z" transform="translate(8.51)" fill="#dfe590"/>
            <path d="M147.31,37.16a3.2,3.2,0,0,0,3.1.59,4.27,4.27,0,0,1,2.92.33,3.17,3.17,0,0,0,3.15.11l.71-.62c1.5-1.41-.73-3.69-1.83-4.13a9.72,9.72,0,0,0-5.9-.66c-1.36.31-3.85,1.91-2.7,3.62Z" transform="translate(8.51)" fill="#dfe590"/>
            <path d="M144.08,13.58a2.38,2.38,0,0,0,2.31.45,3.25,3.25,0,0,1,2.19.24,2.35,2.35,0,0,0,2.35.08l.53-.46c1.13-1.05-.55-2.76-1.37-3.08a7.19,7.19,0,0,0-4.41-.5c-1,.23-2.88,1.43-2,2.71Z" transform="translate(8.51)" fill="#dfe590"/>
          </g>
          <path d="M42,103c13.44,18.44,38.91,17.33,57.39,11.86A68.83,68.83,0,0,1,153.76,121c16.8,9.43,41.39,16.18,58.59,1.19l13.39-13.71c28.52-31.45-12.28-80.6-32.58-89.77C156.7.9,123.19-2.87,83.67,6.4,58.19,13.59,11.15,49.7,32,86.7,36,93.23,38,96.5,42,103Z" transform="translate(8.51)" fill="none" stroke="#507125" stroke-miterlimit="10" stroke-width="3"/>
        </g>
        <path d="M46.74,153.24h0l3.37.41h0q.54,7.78,1.09,15.56l.09,1.25.06.74c0,.16,0,.32,0,.48A30.28,30.28,0,0,0,52.53,178a15.12,15.12,0,0,0,1.66,3.69c4,6.26,12.25,7.84,19.39,9.92a76.9,76.9,0,0,1,35.6,22.5,28.21,28.21,0,0,0-9.6-21.27c-3.21-2.77-7-4.82-9.88-8-5.46-6.1-6.1-15.13-5-23.24.77-6,2.33-12,2.92-18.09,0,0,0-.09,0-.14,0-.41.07-.83.1-1.25a2.64,2.64,0,0,0,0-.29c0-.38,0-.75.06-1.13,0-.13,0-.26,0-.39,0-.37,0-.74,0-1.1v-.41q0-.75,0-1.5h0L97,137h0a18.85,18.85,0,0,0-3.79,7.22l-.09.36a19.35,19.35,0,0,0-.6,4.85,18.91,18.91,0,0,0,.28,3.1c.1.53.22,1,.35,1.56l.14.47c.1.36.21.73.33,1.09l.17.48c.14.4.28.8.44,1.19,0,.1.07.2.11.29.21.52.43,1,.65,1.54,2,4.59,4.59,9,4.79,14,.1,2.54-.43,5.09-.14,7.61.68,5.78,5.39,10.09,9.33,14.38s7.53,10.19,5.44,15.62c6.37-.87,10.27-7.73,11-14.12s-.58-12.89.19-19.28c.79-6.57,3.72-12.48,7.5-18h0c.68-1,1.4-2,2.13-2.93l.22-.29c.71-.92,1.43-1.83,2.17-2.73L138,153c.73-.89,1.46-1.76,2.21-2.63.11-.13.23-.26.34-.4.76-.87,1.51-1.74,2.27-2.6a8.85,8.85,0,0,1,2.48-2.21c2.75-1.43,5.75.22,8.2,2.41.68.62,1.33,1.27,1.91,1.91h0q-2.88,1.38-5.6,3c-.61.36-1.21.74-1.81,1.12a67.08,67.08,0,0,0-6.81,5.06h0c-.42.36-.83.72-1.24,1.1a.6.6,0,0,1-.08.08c-.41.38-.82.78-1.2,1.2h0a11.67,11.67,0,0,0-2.63,4.15c-.92,2.66-.26,6.05,2.15,7.49,3.38,2,7.54-.66,10.54-3.21l3.15-2.68h0l10-8.53a8.18,8.18,0,0,1,1-.72,2.84,2.84,0,0,1,.53-.25,1.81,1.81,0,0,1,.57-.12,2.88,2.88,0,0,1,1.31.32c.21.1.41.21.61.32l8.35,4.65a1.87,1.87,0,0,1,.14.59,2,2,0,0,1-.49,1.33,6.28,6.28,0,0,1-2.48,1.71l-18.77,7.67c-5.56,2.28-11.43,4.79-14.92,9.69-2.93,4.12-3.74,9.34-4.46,14.35s-1.46,10-2.18,15.07a80.35,80.35,0,0,0,16.61-16.33c2.26-3,4.34-6.14,7.18-8.56,6.23-5.3,15-6.14,22.47-9.45h0l1.07-.49c.4-.2.8-.39,1.19-.6l0,0a28.25,28.25,0,0,0,13.4-16.7,26.16,26.16,0,0,0,.81-3.61,6.7,6.7,0,0,1,2.34.71,8.27,8.27,0,0,1,4.43,7.37,7,7,0,0,1-.25,1.63l-1,4.53-.9,1.56-.21.35c-.24.42-.48.83-.73,1.24l-.25.42-.74,1.18-.26.41c-.25.39-.51.78-.77,1.17l-.26.39-.83,1.17-.25.35-.9,1.18-.23.28c-.33.42-.67.82-1,1.21a1.46,1.46,0,0,1-.16.19q-.6.69-1.23,1.32h0a19.31,19.31,0,0,1-10,5.74c-4,.79-8.2,0-12.19.87-6.55,1.43-11.27,7-15.51,12.15A155.13,155.13,0,0,1,139,218.08c-8.87,8.27-19.75,14.74-26.27,25-5.27,8.27-7.17,18.4-6.49,28.17s3.82,19.26,8,28.13c3.33,7.08,7.39,14.12,8,21.92q-6-.25-12,0c-3.58.14-7.14.41-10.7.81l-1.32.15c-1,.11-2,.25-2.94.39l-.44.06c-1.88-9.7-2.25-19.59-2.33-29.48,0-.76,0-1.52,0-2.28,0-1.52,0-3,0-4.56v-1.47c0-1,0-2,0-3a116.78,116.78,0,0,1,1.61-20.36c.13-.65.26-1.29.4-1.93.29-1.34.63-2.66,1-4,.16-.51.31-1,.48-1.53a40.08,40.08,0,0,1,6.54-12.39l.21-.26a56.62,56.62,0,0,0,4.35-5.49,11.74,11.74,0,0,0,1.05-2.06,11,11,0,0,0,.73-4,17.18,17.18,0,0,0-3.57-9.65,35.3,35.3,0,0,0-5.2-5.81,112.91,112.91,0,0,0-24-16.05c-5.46-2.82-11.08-5.39-16.69-7.87a37.74,37.74,0,0,1-4.76-2.38,13.38,13.38,0,0,1-2.84-2.3c-.23-.24-.43-.5-.63-.75l0,0c-2.62-3.45-3.09-8.16-3.38-12.55h0q-.61-9.45-1-18.92c0-.14,0-.27,0-.41Z" transform="translate(8.51)" fill="#ce894a"/>
        <g clip-path="url(#clip-path-2)">
          <path d="M-8.31,134.75c1.85-16.63,16.36-32.86,25.58-38.59l.05,0c1.15-.64,2.33-1.28,3.62-1.95l.29-.19a75,75,0,0,1,15.68-6.7c16.1-5.47,32.33-6.48,51-3.2,6.92,1,16.83,6.24,24.67,13,9,7.83,14.27,16.72,15,25.3a45.9,45.9,0,0,1,7.17-3.78c15.19-5.41,29.42-7.48,43.51-6.31,12-2.09,23.53-1,36.22,3.57,8.49,2.74,26,18.61,22.37,33.6,3.72,9.6,2.83,18.62-2.6,26.15l-7.56,9.71-.07.08c-12.4,13.53-33,6.31-39,3.77a43.05,43.05,0,0,0-34.14,0,52.58,52.58,0,0,1-19.32,4.2c-6.82,0-14.06-1.89-19.64-8l-7.66-9.82a25.49,25.49,0,0,1-4.91-18,49.79,49.79,0,0,1-20.65-.77,43.06,43.06,0,0,0-33.66,5.74c-5.49,3.51-24.54,14.08-39,2.83L-.57,157C-6.68,151-9.28,143.49-8.31,134.75Z" transform="translate(8.51)" fill="#af7553"/>
        </g>
        <g clip-path="url(#clip-path-2)">
          <g>
            <path d="M103.36,286.18c4.88,11.59,7,23.64,5.61,35.63a41.51,41.51,0,0,1-5,.5,122.55,122.55,0,0,0-7-37.26,165.78,165.78,0,0,1-5.46-19.74c.59-1.29,1.14-2.58,1.67-3.85,0,.22.11.43.16.64C95.63,270.62,100,278.13,103.36,286.18Z" transform="translate(8.51)" fill="#ddab88"/>
            <path d="M100.69,216.91c.52,1.57,3.45,1.74,4,3.29.87,2.36,2,3.23,3,5.51-1.86-10.29.25-21.21,2.72-31.82.49,1.33,1,2.67,1.45,4,.23.71.48,1.38.72,2.07-2.08,10.35-4.37,20.63-2.3,31.3,1.45,3,2.93,6,4.31,9.06A72.43,72.43,0,0,1,117,221.07c1.64-6.77,3.39-13.06,4.61-19.34,1.36-2.12,2.81-4.16,4-6C124.32,210.3,118,225,117,239.62a41.35,41.35,0,0,0-1.19,15.88c-.26-1-.51-2-.77-2.94-2-7.67-5.58-14.9-8.67-22.26a39.6,39.6,0,0,0-1.28-7.1C104.25,220.2,101.17,220,100.69,216.91Z" transform="translate(8.51)" fill="#ddab88"/>
            <path d="M106.28,190.56c.43.7.86,1.42,1.29,2.11a58.46,58.46,0,0,1-4.62,6.66c-.14-.37-.25-.73-.38-1.09-.35-.85-.71-1.71-1.08-2.57A64.2,64.2,0,0,0,106.28,190.56Z" transform="translate(8.51)" fill="#ddab88"/>
            <path d="M104.38,188.6c.05.1.11.18.15.27a50.14,50.14,0,0,1-3.3,6.8q-1-1.95-2.23-3.79a55.75,55.75,0,0,0,4-6.44C103.39,186.49,103.85,187.54,104.38,188.6Z" transform="translate(8.51)" fill="#ddab88"/>
            <path d="M125.12,190.75c2.37,3.59,5.55,6.35,8.77,9.09,0,.53-.08,1-.11,1.58a46.32,46.32,0,0,1-8.07-6.94C125.53,193.3,125.34,192.06,125.12,190.75Z" transform="translate(8.51)" fill="#ddab88"/>
            <path d="M144.58,191.56a220.53,220.53,0,0,0-2,24.05q-1.09,2-2.16,4.11c.2-6.87.23-13.74.82-20.59A63.87,63.87,0,0,0,144.58,191.56Z" transform="translate(8.51)" fill="#ddab88"/>
            <path d="M93.94,321.63l-1.6-.29c.27-10,.89-20-1.25-29.92A116.89,116.89,0,0,0,86.64,277c.25-.77.52-1.55.8-2.33,2.46,6.18,5.14,12.28,6.9,18.72C96.83,302.5,95.33,312.32,93.94,321.63Z" transform="translate(8.51)" fill="#ddab88"/>
            <path d="M113.15,320.88l-1,.27c-.22-22.54-8.49-44.62-16.72-65.78.19-.6.37-1.21.53-1.81C106,275.26,114.17,296.63,113.15,320.88Z" transform="translate(8.51)" fill="#ddab88"/>
          </g>
        </g>
        <path d="M46.74,153.24h0l3.37.41h0q.54,7.78,1.09,15.56l.09,1.25.06.74c0,.16,0,.32,0,.48A30.28,30.28,0,0,0,52.53,178a15.12,15.12,0,0,0,1.66,3.69c4,6.26,12.25,7.84,19.39,9.92a76.9,76.9,0,0,1,35.6,22.5,28.21,28.21,0,0,0-9.6-21.27c-3.21-2.77-7-4.82-9.88-8-5.46-6.1-6.1-15.13-5-23.24.77-6,2.33-12,2.92-18.09,0,0,0-.09,0-.14,0-.41.07-.83.1-1.25a2.64,2.64,0,0,0,0-.29c0-.38,0-.75.06-1.13,0-.13,0-.26,0-.39,0-.37,0-.74,0-1.1v-.41q0-.75,0-1.5h0L97,137h0a18.85,18.85,0,0,0-3.79,7.22l-.09.36a19.35,19.35,0,0,0-.6,4.85,18.91,18.91,0,0,0,.28,3.1c.1.53.22,1,.35,1.56l.14.47c.1.36.21.73.33,1.09l.17.48c.14.4.28.8.44,1.19,0,.1.07.2.11.29.21.52.43,1,.65,1.54,2,4.59,4.59,9,4.79,14,.1,2.54-.43,5.09-.14,7.61.68,5.78,5.39,10.09,9.33,14.38s7.53,10.19,5.44,15.62c6.37-.87,10.27-7.73,11-14.12s-.58-12.89.19-19.28c.79-6.57,3.72-12.48,7.5-18h0c.68-1,1.4-2,2.13-2.93l.22-.29c.71-.92,1.43-1.83,2.17-2.73L138,153c.73-.89,1.46-1.76,2.21-2.63.11-.13.23-.26.34-.4.76-.87,1.51-1.74,2.27-2.6a8.85,8.85,0,0,1,2.48-2.21c2.75-1.43,5.75.22,8.2,2.41.68.62,1.33,1.27,1.91,1.91h0q-2.88,1.38-5.6,3c-.61.36-1.21.74-1.81,1.12a67.08,67.08,0,0,0-6.81,5.06h0c-.42.36-.83.72-1.24,1.1a.6.6,0,0,1-.08.08c-.41.38-.82.78-1.2,1.2h0a11.67,11.67,0,0,0-2.63,4.15c-.92,2.66-.26,6.05,2.15,7.49,3.38,2,7.54-.66,10.54-3.21l3.15-2.68h0l10-8.53a8.18,8.18,0,0,1,1-.72,2.84,2.84,0,0,1,.53-.25,1.81,1.81,0,0,1,.57-.12,2.88,2.88,0,0,1,1.31.32c.21.1.41.21.61.32l8.35,4.65a1.87,1.87,0,0,1,.14.59,2,2,0,0,1-.49,1.33,6.28,6.28,0,0,1-2.48,1.71l-18.77,7.67c-5.56,2.28-11.43,4.79-14.92,9.69-2.93,4.12-3.74,9.34-4.46,14.35s-1.46,10-2.18,15.07a80.35,80.35,0,0,0,16.61-16.33c2.26-3,4.34-6.14,7.18-8.56,6.23-5.3,15-6.14,22.47-9.45h0l1.07-.49c.4-.2.8-.39,1.19-.6l0,0a28.25,28.25,0,0,0,13.4-16.7,26.16,26.16,0,0,0,.81-3.61,6.7,6.7,0,0,1,2.34.71,8.27,8.27,0,0,1,4.43,7.37,7,7,0,0,1-.25,1.63l-1,4.53-.9,1.56-.21.35c-.24.42-.48.83-.73,1.24l-.25.42-.74,1.18-.26.41c-.25.39-.51.78-.77,1.17l-.26.39-.83,1.17-.25.35-.9,1.18-.23.28c-.33.42-.67.82-1,1.21a1.46,1.46,0,0,1-.16.19q-.6.69-1.23,1.32h0a19.31,19.31,0,0,1-10,5.74c-4,.79-8.2,0-12.19.87-6.55,1.43-11.27,7-15.51,12.15A155.13,155.13,0,0,1,139,218.08c-8.87,8.27-19.75,14.74-26.27,25-5.27,8.27-7.17,18.4-6.49,28.17s3.82,19.26,8,28.13c3.33,7.08,7.39,14.12,8,21.92q-6-.25-12,0c-3.58.14-7.14.41-10.7.81l-1.32.15c-1,.11-2,.25-2.94.39l-.44.06c-1.88-9.7-2.25-19.59-2.33-29.48,0-.76,0-1.52,0-2.28,0-1.52,0-3,0-4.56v-1.47c0-1,0-2,0-3a116.78,116.78,0,0,1,1.61-20.36c.13-.65.26-1.29.4-1.93.29-1.34.63-2.66,1-4,.16-.51.31-1,.48-1.53a40.08,40.08,0,0,1,6.54-12.39l.21-.26a56.62,56.62,0,0,0,4.35-5.49,11.74,11.74,0,0,0,1.05-2.06,11,11,0,0,0,.73-4,17.18,17.18,0,0,0-3.57-9.65,35.3,35.3,0,0,0-5.2-5.81,112.91,112.91,0,0,0-24-16.05c-5.46-2.82-11.08-5.39-16.69-7.87a37.74,37.74,0,0,1-4.76-2.38,13.38,13.38,0,0,1-2.84-2.3c-.23-.24-.43-.5-.63-.75l0,0c-2.62-3.45-3.09-8.16-3.38-12.55h0q-.61-9.45-1-18.92c0-.14,0-.27,0-.41Z" transform="translate(8.51)" fill="none" stroke="#75411a" stroke-miterlimit="10" stroke-width="3"/>
        <g>
          <path d="M124.21,175.87c9.91,10.81,26.09,8.27,37.49,3.46a44.18,44.18,0,0,1,35.16,0c11.41,4.82,27.59,7.36,37.5-3.45l7.56-9.71c16-22.12-13.62-50.58-27.24-55-24.56-8.75-46.23-8.75-70.79,0-15.76,6.42-43.19,32.86-27.24,55C119.67,170.05,121.19,172,124.21,175.87Z" transform="translate(8.51)" fill="#6c9433" stroke="#507125" stroke-miterlimit="10" stroke-width="3"/>
          <g clip-path="url(#clip-path-4)">
            <path d="M160.39,153.07c6.83,7.45,18,5.7,25.86,2.38a30.47,30.47,0,0,1,24.25,0c7.86,3.32,19,5.07,25.85-2.38l5.22-6.7c11-15.26-9.4-34.88-18.79-37.91-16.94-6-31.88-6-48.82,0-10.86,4.42-29.78,22.65-18.78,37.91Z" transform="translate(8.51)" fill="#96b85c"/>
            <path d="M148.93,130.75c2.68,2.92,7,2.23,10.12.94a11.84,11.84,0,0,1,9.48,0c3.08,1.29,7.45,2,10.12-.94.82-1,1.22-1.57,2-2.62,4.3-6-3.68-13.64-7.35-14.83a26.65,26.65,0,0,0-19.1,0c-4.25,1.73-11.65,8.87-7.35,14.83Z" transform="translate(8.51)" fill="#96b85c"/>
            <path d="M138.4,166.89c2.67,2.92,7,2.23,10.12.93a11.93,11.93,0,0,1,9.48,0c3.08,1.3,7.44,2,10.12-.93l2-2.62c4.3-6-3.68-13.65-7.35-14.83a26.65,26.65,0,0,0-19.1,0c-4.25,1.73-11.65,8.86-7.35,14.83Z" transform="translate(8.51)" fill="#96b85c"/>
            <path d="M126.05,149.73c3.25,3.53,8.55,2.7,12.28,1.13a14.4,14.4,0,0,1,11.51,0c3.74,1.57,9,2.4,12.28-1.13,1-1.28,1.49-1.91,2.48-3.18,5.22-7.25-4.46-16.57-8.92-18a32.28,32.28,0,0,0-23.18,0c-5.16,2.1-14.15,10.76-8.92,18Z" transform="translate(8.51)" fill="#96b85c"/>
            <path d="M170.63,159.89c1.54,1.68,4.06,1.29,5.83.54a6.82,6.82,0,0,1,5.46,0c1.78.75,4.29,1.14,5.83-.54l1.18-1.51c2.48-3.44-2.12-7.86-4.24-8.54a15.34,15.34,0,0,0-11,0c-2.45,1-6.71,5.1-4.23,8.54Z" transform="translate(8.51)" fill="#96b85c"/>
            <path d="M212.07,120a1.8,1.8,0,0,0,2.05.19,2.49,2.49,0,0,1,1.93,0,1.8,1.8,0,0,0,2-.19l.41-.53c.88-1.21-.74-2.77-1.49-3a5.38,5.38,0,0,0-3.87,0c-.86.35-2.37,1.8-1.49,3Z" transform="translate(8.51)" fill="#dfe590"/>
            <path d="M187.76,129.93c1.06,1.16,2.79.89,4,.37a4.75,4.75,0,0,1,3.77,0c1.22.52,3,.79,4-.37l.82-1c1.71-2.37-1.47-5.43-2.93-5.9a10.57,10.57,0,0,0-7.59,0c-1.69.69-4.64,3.53-2.93,5.9Z" transform="translate(8.51)" fill="#dfe590"/>
            <path d="M183.84,122.17a1.4,1.4,0,0,0,1.61.15,1.91,1.91,0,0,1,1.52,0,1.42,1.42,0,0,0,1.62-.15l.32-.42c.69-1-.59-2.18-1.17-2.37a4.25,4.25,0,0,0-3.06,0c-.68.28-1.86,1.42-1.17,2.37Z" transform="translate(8.51)" fill="#dfe590"/>
            <path d="M196.4,166.68c2.94,3.21,7.75,2.46,11.14,1a13.07,13.07,0,0,1,10.44,0c3.39,1.43,8.19,2.18,11.14-1l2.24-2.88c4.74-6.57-4-15-8.09-16.33a29.3,29.3,0,0,0-21,0c-4.68,1.91-12.83,9.76-8.09,16.33Z" transform="translate(8.51)" fill="#96b85c"/>
          </g>
          <path d="M124.21,175.87c9.91,10.81,26.09,8.27,37.49,3.46a44.18,44.18,0,0,1,35.16,0c11.41,4.82,27.59,7.36,37.5-3.45l7.56-9.71c16-22.12-13.62-50.58-27.24-55-24.56-8.75-46.23-8.75-70.79,0-15.76,6.42-43.19,32.86-27.24,55C119.67,170.05,121.19,172,124.21,175.87Z" transform="translate(8.51)" fill="none" stroke="#507125" stroke-miterlimit="10" stroke-width="3"/>
        </g>
        <g>
          <path d="M18.13,155.65c11.58,9,27.11,3.76,37.54-2.9a44.23,44.23,0,0,1,34.66-5.91c12,2.83,28.43,2.62,36.38-9.7l5.82-10.84c12-24.49-21.92-47.57-36.09-49.62-25.68-4.5-47-.86-69.78,11.89C12.21,97.55-10.4,128.21,9,147.35Z" transform="translate(8.51)" fill="#6c9433" stroke="#507125" stroke-miterlimit="10" stroke-width="3"/>
          <path d="M24.92,130.82c7.66,6,17.94,2.5,24.84-1.91A29.23,29.23,0,0,1,72.7,125c8,1.87,18.81,1.73,24.07-6.42,1.55-2.87,2.32-4.31,3.86-7.18,8-16.21-14.51-31.48-23.88-32.84-17-3-31.13-.57-46.18,7.87C21,92.37,6,112.67,18.91,125.33Z" transform="translate(8.51)" fill="#96b85c"/>
          <path d="M28.87,143.47c3.8,2.95,8.9,1.24,12.33-.95a14.5,14.5,0,0,1,11.38-1.94c4,.93,9.34.86,12-3.19l1.92-3.56c3.94-8-7.2-15.62-11.86-16.3a32.41,32.41,0,0,0-22.92,3.91c-4.75,3-12.17,13-5.79,19.31Z" transform="translate(8.51)" fill="#96b85c"/>
          <path d="M92,110.65c2.8,2.17,6.54.91,9.06-.7a10.67,10.67,0,0,1,8.36-1.43c2.91.69,6.86.64,8.78-2.34l1.4-2.61c2.9-5.91-5.29-11.48-8.71-12a23.77,23.77,0,0,0-16.83,2.87c-3.49,2.16-8.94,9.56-4.25,14.18Z" transform="translate(8.51)" fill="#96b85c"/>
          <path d="M83.4,131.3c2.79,2.17,6.53.91,9-.7a10.67,10.67,0,0,1,8.36-1.43c2.91.69,6.86.64,8.78-2.34l1.4-2.61c2.9-5.91-5.29-11.48-8.7-12a23.79,23.79,0,0,0-16.84,2.87c-3.48,2.16-8.94,9.56-4.25,14.18Z" transform="translate(8.51)" fill="#96b85c"/>
          <path d="M82.41,89.37c1.3,1,3,.43,4.2-.32a5,5,0,0,1,3.88-.66c1.35.32,3.18.29,4.07-1.09l.65-1.21c1.34-2.74-2.45-5.32-4-5.55a11,11,0,0,0-7.8,1.33c-1.62,1-4.15,4.44-2,6.58Z" transform="translate(8.51)" fill="#96b85c"/>
          <path d="M17.79,133.7c1.3,1,3,.43,4.2-.32a5,5,0,0,1,3.88-.66c1.35.32,3.18.29,4.07-1.09l.65-1.21c1.35-2.74-2.45-5.32-4-5.55a11,11,0,0,0-7.81,1.33c-1.62,1-4.15,4.43-2,6.58Z" transform="translate(8.51)" fill="#96b85c"/>
          <path d="M34.43,95.84a2,2,0,0,0,2.22-.17,2.58,2.58,0,0,1,2.06-.35,2,2,0,0,0,2.15-.58l.35-.64c.71-1.45-1.3-2.82-2.14-2.94a5.88,5.88,0,0,0-4.14.7c-.85.53-2.19,2.35-1,3.49Z" transform="translate(8.51)" fill="#dfe590"/>
          <path d="M58.8,87.47a1.38,1.38,0,0,0,1.56-.13,1.87,1.87,0,0,1,1.44-.24,1.37,1.37,0,0,0,1.51-.4l.24-.45c.5-1-.91-2-1.5-2.07a4.15,4.15,0,0,0-2.9.5c-.6.37-1.54,1.64-.73,2.44Z" transform="translate(8.51)" fill="#dfe590"/>
          <path d="M93.41,97.39A1.39,1.39,0,0,0,95,97.27,1.83,1.83,0,0,1,96.41,97a1.37,1.37,0,0,0,1.51-.4l.24-.45c.5-1-.91-2-1.5-2.07a4.15,4.15,0,0,0-2.9.5c-.6.37-1.54,1.65-.73,2.44Z" transform="translate(8.51)" fill="#dfe590"/>
          <path d="M62,83.17a.86.86,0,0,0,1-.08,1.14,1.14,0,0,1,.9-.15.87.87,0,0,0,1-.25l.15-.29c.31-.63-.57-1.23-.94-1.29a2.61,2.61,0,0,0-1.81.31c-.38.24-1,1-.46,1.53Z" transform="translate(8.51)" fill="#dfe590"/>
          <path d="M49.47,99.94c1.26,1,3,.41,4.08-.31A4.82,4.82,0,0,1,57.32,99c1.31.31,3.09.29,4-1l.64-1.18c1.3-2.66-2.39-5.17-3.93-5.4a10.7,10.7,0,0,0-7.58,1.3c-1.58,1-4,4.31-1.92,6.39Z" transform="translate(8.51)" fill="#dfe590"/>
          <path d="M18.13,155.65c11.58,9,27.11,3.76,37.54-2.9a44.23,44.23,0,0,1,34.66-5.91c12,2.83,28.43,2.62,36.38-9.7l5.82-10.84c12-24.49-21.92-47.57-36.09-49.62-25.68-4.5-47-.86-69.78,11.89C12.21,97.55-10.4,128.21,9,147.35Z" transform="translate(8.51)" fill="none" stroke="#507125" stroke-miterlimit="10" stroke-width="3"/>
        </g>
      </g>
    </g>
  </g>
</svg>
