<svg xmlns="http://www.w3.org/2000/svg" width="80.51" height="49.29" viewBox="0 0 80.51 49.29">
  <g id="Layer_2" data-name="Layer 2">
    <g id="Layer_1-2" data-name="Layer 1">
      <g id="to_ball_launcher" data-name="to_ball launcher">
        <g>
          <path d="M4.34,47.79a2.52,2.52,0,0,1-1.55-.52,3.6,3.6,0,0,1-1.28-2.76c-.19-2.71,2.06-4.12,3.27-4.88l.1-.06.3-.2c1.21-.83,2.41-1.59,3.57-2.25L8.94,37a4.43,4.43,0,0,1,1-.49,2.32,2.32,0,0,1,.87-.16,2.28,2.28,0,0,1,.79.14c1-.51,2.17-1,3.39-1.51a54.94,54.94,0,0,1,13.83-3.52A61,61,0,0,1,35.24,31c.5,0,1,0,1.51,0,1.69,0,3.4.07,5.11.2,1,.08,2.07.18,3.1.3-.24-.44-.45-.9-.65-1.36-1.24-2.08-1.17-3.66.21-4.68a2.53,2.53,0,0,1,1.59-.57,2.66,2.66,0,0,1,1.78.72,7,7,0,0,0,3.75,1.07,6,6,0,0,0,5.49-3.23A3.93,3.93,0,0,1,59.51,21a2.75,2.75,0,0,1,.88-.14c1.55,0,2.71,1.17,3.55,2q.21.22.42.42a6.34,6.34,0,0,0,3.72,1.22,5,5,0,0,0,3.81-1.62l.25-.22a7.35,7.35,0,0,0,.64-.54A4.89,4.89,0,0,1,76,20.55a3.62,3.62,0,0,1,1.49.33,1.52,1.52,0,0,1,.52.38c2.2,2.55,0,6.89-1.27,9.5a1.57,1.57,0,0,1-.19.55,18.58,18.58,0,0,1-15.41,8.85c-.28,0-.57,0-.86,0A19,19,0,0,1,56,39.7l-.11,0c-.58-.18-1.17-.35-1.76-.5-1-.28-2-.52-3-.73a68.6,68.6,0,0,0-14.57-1.62,59.31,59.31,0,0,0-8.17.56A49.89,49.89,0,0,0,16.2,40.65c-1,.39-1.87.8-2.79,1.26l-.11.2a3.51,3.51,0,0,1-1.38,1.41l-.5.3-.53.29c-.82.49-1.69,1-2.55,1.64l-.43.32C7,46.79,5.7,47.79,4.34,47.79Z" fill="#6c9433"/>
          <path d="M76,22.05a2.14,2.14,0,0,1,.88.2c1.62,1.87-.53,5.94-1.63,8.15v.15a17.19,17.19,0,0,1-14.18,8.12h-.8a17.39,17.39,0,0,1-4-.44c-.61-.19-1.22-.36-1.83-.52-1-.27-2-.52-3-.74a69.61,69.61,0,0,0-14.89-1.66,59.26,59.26,0,0,0-8.38.58,51.45,51.45,0,0,0-12.6,3.37c-1.08.44-2,.88-3,1.34l-.2.1-.09,0-.07.12a3.36,3.36,0,0,0-.29.47,2.13,2.13,0,0,1-.85.89l-.51.3-.5.28c-.89.53-1.78,1.1-2.66,1.7L7,44.87a5.49,5.49,0,0,1-2.68,1.42,1.05,1.05,0,0,1-.65-.21A2.22,2.22,0,0,1,3,44.4c-.13-1.8,1.5-2.82,2.57-3.49l.46-.3c1.11-.77,2.27-1.51,3.45-2.18l.23-.14a3.48,3.48,0,0,1,.66-.35,1,1,0,0,1,.38-.08,1,1,0,0,1,.41.11.78.78,0,0,0,.42.11,1.07,1.07,0,0,0,.46-.15l.1,0c1.08-.54,2.21-1,3.35-1.5A53.93,53.93,0,0,1,29,33a60.83,60.83,0,0,1,6.31-.45c.49,0,1,0,1.47,0,1.67,0,3.33.06,5,.2q3.21.24,6.41.79a14.75,14.75,0,0,1-2.5-4c-.44-.72-1.24-2.05-.24-2.79a1.09,1.09,0,0,1,.7-.28,1.26,1.26,0,0,1,.86.42,8.64,8.64,0,0,0,4.67,1.37,7.47,7.47,0,0,0,6.83-4.06,2.61,2.61,0,0,1,1.46-1.64,1.48,1.48,0,0,1,.46-.08c1.17,0,2.22,1.39,3,2.11a7.83,7.83,0,0,0,4.68,1.56A6.55,6.55,0,0,0,73,24c.91-.65,1.79-1.9,3-1.9m0-3h0a6.29,6.29,0,0,0-4.27,2c-.18.16-.39.35-.5.43a3.5,3.5,0,0,0-.5.44,3.56,3.56,0,0,1-2.69,1.12,4.82,4.82,0,0,1-2.76-.88c-.1-.09-.21-.2-.31-.31-.91-.93-2.44-2.48-4.62-2.48a4.32,4.32,0,0,0-1.34.21,5.38,5.38,0,0,0-3.28,3.2,4.49,4.49,0,0,1-4.13,2.37,5.78,5.78,0,0,1-2.87-.78,4.05,4.05,0,0,0-2.66-1,4.1,4.1,0,0,0-2.53.9c-.87.65-2.45,2.36-1.15,5.45l-.47,0c-1.73-.13-3.49-.2-5.22-.2-.51,0-1,0-1.54,0a63.85,63.85,0,0,0-6.61.47,57.1,57.1,0,0,0-14.21,3.61q-1.59.64-3,1.32a4,4,0,0,0-.62,0,3.9,3.9,0,0,0-1.41.26,6.4,6.4,0,0,0-1.18.59l-.2.13c-1.19.68-2.42,1.45-3.64,2.3l-.23.15-.15.1C2.72,39.16-.24,41,0,44.61A5,5,0,0,0,1.9,48.48a4,4,0,0,0,2.44.81c1.88,0,3.45-1.23,4.49-2a1.66,1.66,0,0,0,.24-.18l.14-.1c.81-.55,1.65-1.09,2.46-1.57l.12-.07.27-.15.12-.07.2-.11.31-.19a4.91,4.91,0,0,0,1.79-1.75c.75-.36,1.5-.7,2.28-1a48.65,48.65,0,0,1,11.88-3.17,56.54,56.54,0,0,1,8-.55,66.91,66.91,0,0,1,14.25,1.59c.93.2,1.91.44,2.9.7.66.18,1.21.33,1.72.49l.21.06a20.29,20.29,0,0,0,4.63.52c.31,0,.62,0,.93,0a20.11,20.11,0,0,0,16.63-9.58,3.13,3.13,0,0,0,.33-.83c1.48-2.95,3.78-7.73,1-11a3.13,3.13,0,0,0-1-.77A5.12,5.12,0,0,0,76,19.05Z" fill="#507125"/>
        </g>
        <g>
          <g>
            <path d="M59.8,33A15.76,15.76,0,0,1,44.85,12.29,15.42,15.42,0,0,1,46.4,9,15.76,15.76,0,0,1,73.35,25.31,15.86,15.86,0,0,1,59.8,33Z" fill="#b9e48e"/>
            <path d="M59.8,3A14.27,14.27,0,0,1,73.4,21.56a13.65,13.65,0,0,1-1.34,3A14.26,14.26,0,1,1,59.8,3m0-3a17.26,17.26,0,0,0,0,34.51,17.39,17.39,0,0,0,14.84-8.42,17.8,17.8,0,0,0,1.62-3.62A17.27,17.27,0,0,0,59.8,0Z" fill="#507125"/>
          </g>
          <path d="M73.4,21.56a13.65,13.65,0,0,1-1.34,3,10,10,0,0,0-1.83-5.94,7,7,0,0,0-7.76-2.51c-1.8.59-3.43,1.73-5.34,2.59a7.42,7.42,0,0,1-7.6-.62,9.38,9.38,0,0,1-3.11-4.78l-.15-.53a14.18,14.18,0,0,1,1.41-3,15.07,15.07,0,0,0,.72,3.58c1.3,3.66,4.5,5.22,8.11,3.85,4-1.51,7.59-3.75,11.85-1.73A10.11,10.11,0,0,1,73.4,21.56Z" fill="#f1f2f2" stroke="#f1f2f2" stroke-miterlimit="10"/>
          <path d="M59.8,3A14.27,14.27,0,0,1,73.4,21.56a13.65,13.65,0,0,1-1.34,3A14.26,14.26,0,1,1,59.8,3m0-3a17.26,17.26,0,0,0,0,34.51,17.39,17.39,0,0,0,14.84-8.42,17.8,17.8,0,0,0,1.62-3.62A17.27,17.27,0,0,0,59.8,0Z" fill="#507125"/>
        </g>
      </g>
    </g>
  </g>
</svg>
