<svg xmlns="http://www.w3.org/2000/svg" xmlns:xlink="http://www.w3.org/1999/xlink" width="523.91" height="103.99" viewBox="0 0 523.91 103.99"><defs><clipPath id="clip-path"><polygon points="433.29 10.19 129.26 10.19 50.14 94.68 393.29 94.68 472.4 94.68 433.29 10.19" fill="none"/></clipPath></defs><g id="Layer_2" data-name="Layer 2"><g id="Layer_1-2" data-name="Layer 1"><g id="fu_ball_pit" data-name="fu_ball pit"><path d="M468,1.5H55.91A3.67,3.67,0,0,0,53,3.11l-50.4,89C.2,95.33,2,100.63,5.51,100.63h512.9c3.5,0,5.31-5.3,2.92-8.54l-50.41-89A3.67,3.67,0,0,0,468,1.5Z" fill="#bdeff4" stroke="#3b7e82" stroke-miterlimit="10" stroke-width="3"/><path d="M438,1.5H85.91A3.67,3.67,0,0,0,83,3.11l-40.4,89c-2.39,3.24-.58,8.54,2.92,8.54h432.9c3.5,0,5.31-5.3,2.92-8.54l-40.41-89A3.67,3.67,0,0,0,438,1.5Z" fill="#bdeff4" stroke="#3b7e82" stroke-miterlimit="10" stroke-width="3"/><rect x="89.26" y="7.45" width="344.03" height="87.23" fill="#6ab3b9" stroke="#3b7e82" stroke-linecap="round" stroke-linejoin="round" stroke-width="3"/><polygon points="50.14 94.68 89.26 94.68 89.26 7.45 50.14 94.68" fill="#3b7e82" stroke="#3b7e82" stroke-linecap="round" stroke-linejoin="round" stroke-width="3"/><polygon points="433.29 7.45 433.29 94.68 472.4 94.68 433.29 7.45" fill="#98d9e4" stroke="#3b7e82" stroke-linecap="round" stroke-linejoin="round" stroke-width="3"/><g clip-path="url(#clip-path)"><circle cx="397.31" cy="58.14" r="13.46" fill="#e84e2c" stroke="#c2331d" stroke-miterlimit="10" stroke-width="3"/><circle cx="331.08" cy="32.3" r="13.46" transform="translate(223.58 347.1) rotate(-76.72)" fill="#e8a4d2" stroke="#ac538c" stroke-miterlimit="10" stroke-width="3"/><circle cx="389.11" cy="37.18" r="13.46" transform="translate(263.53 407.33) rotate(-76.72)" fill="#e8a4d2" stroke="#ac538c" stroke-miterlimit="10" stroke-width="3"/><circle cx="276.35" cy="35.66" r="13.46" transform="translate(178.14 296.42) rotate(-76.72)" fill="#4a8c32" stroke="#2e5b1d" stroke-miterlimit="10" stroke-width="3"/><circle cx="189.24" cy="33.33" r="13.46" transform="translate(31.86 143.57) rotate(-45)" fill="#4a8c32" stroke="#2e5b1d" stroke-miterlimit="10" stroke-width="3"/><circle cx="145.22" cy="34.83" r="13.46" transform="translate(77.96 168.16) rotate(-76.72)" fill="#ffaa5a" stroke="#ce894a" stroke-miterlimit="10" stroke-width="3"/><circle cx="161.16" cy="46.79" r="13.46" fill="#98d9e4" stroke="#6ab3b9" stroke-miterlimit="10" stroke-width="3"/><circle cx="179.29" cy="56.46" r="13.46" transform="translate(12.59 143.31) rotate(-45)" fill="#e84e2c" stroke="#c2331d" stroke-miterlimit="10" stroke-width="3"/><circle cx="229.61" cy="30.02" r="13.46" transform="translate(46.03 171.15) rotate(-45)" fill="#5576b4" stroke="#335394" stroke-miterlimit="10" stroke-width="3"/><circle cx="304.92" cy="32.3" r="13.46" transform="translate(224.2 328.11) rotate(-80.78)" fill="#ac53b0" stroke="#7f1c81" stroke-miterlimit="10" stroke-width="3"/><circle cx="416.65" cy="62.7" r="13.46" transform="translate(259.89 453.8) rotate(-76.72)" fill="#ac53b0" stroke="#7f1c81" stroke-miterlimit="10" stroke-width="3"/><circle cx="364.36" cy="35.66" r="13.46" transform="translate(245.94 382.09) rotate(-76.72)" fill="#ffaa5a" stroke="#ce894a" stroke-miterlimit="10" stroke-width="3"/><circle cx="342.97" cy="42.82" r="13.46" transform="translate(222.49 366.78) rotate(-76.72)" fill="#9be3bb" stroke="#72b75b" stroke-miterlimit="10" stroke-width="3"/><circle cx="319.12" cy="50.75" r="13.46" transform="translate(57.58 240.52) rotate(-45)" fill="#4a8c32" stroke="#2e5b1d" stroke-miterlimit="10" stroke-width="3"/><circle cx="292.2" cy="48.64" r="13.46" transform="translate(197.38 329.27) rotate(-80.78)" fill="#e8a4d2" stroke="#ac538c" stroke-miterlimit="10" stroke-width="3"/><circle cx="257.49" cy="37.35" r="13.46" transform="translate(49.01 193.01) rotate(-45)" fill="#98d9e4" stroke="#6ab3b9" stroke-miterlimit="10" stroke-width="3"/><circle cx="205.2" cy="42.82" r="13.46" transform="translate(-0.77 81.78) rotate(-22.5)" fill="#ffeb81" stroke="#ffaa5a" stroke-miterlimit="10" stroke-width="3"/><circle cx="132.53" cy="59.22" r="13.46" transform="translate(44.44 174.6) rotate(-76.72)" fill="#e8a4d2" stroke="#ac538c" stroke-miterlimit="10" stroke-width="3"/><circle cx="366.14" cy="49.24" r="13.46" transform="translate(258.89 402.77) rotate(-80.78)" fill="#96b85c" stroke="#6c9433" stroke-miterlimit="10" stroke-width="3"/><circle cx="379.61" cy="64.22" r="13.46" transform="translate(255.41 428.64) rotate(-80.78)" fill="#5576b4" stroke="#335394" stroke-miterlimit="10" stroke-width="3"/><circle cx="416.65" cy="83.98" r="13.46" transform="translate(62.65 319.21) rotate(-45)" fill="#98d9e4" stroke="#6ab3b9" stroke-miterlimit="10" stroke-width="3"/><circle cx="342" cy="59.22" r="13.46" transform="translate(205.79 378.47) rotate(-76.72)" fill="#ffeb81" stroke="#ffaa5a" stroke-miterlimit="10" stroke-width="3"/><circle cx="264.45" cy="52.44" r="13.46" fill="#9be3bb" stroke="#72b75b" stroke-miterlimit="10" stroke-width="3"/><circle cx="398.6" cy="85.55" r="13.46" transform="matrix(0.16, -0.99, 0.99, 0.16, 250.31, 465.3)" fill="#9be3bb" stroke="#72b75b" stroke-miterlimit="10" stroke-width="3"/><circle cx="354.86" cy="72.09" r="13.46" transform="translate(52.96 272.04) rotate(-45)" fill="#98d9e4" stroke="#6ab3b9" stroke-miterlimit="10" stroke-width="3"/><circle cx="232.12" cy="45.76" r="13.46" fill="#ffaa5a" stroke="#ce894a" stroke-miterlimit="10" stroke-width="3"/><circle cx="328.62" cy="86.88" r="13.46" transform="translate(190.22 397.34) rotate(-80.78)" fill="#ffaa5a" stroke="#ce894a" stroke-miterlimit="10" stroke-width="3"/><circle cx="243.08" cy="62.11" r="13.46" fill="#e84e2c" stroke="#c2331d" stroke-miterlimit="10" stroke-width="3"/><circle cx="198.74" cy="67.67" r="13.46" fill="#5576b4" stroke="#335394" stroke-miterlimit="10" stroke-width="3"/><circle cx="89.33" cy="87.35" r="13.46" fill="#5576b4" stroke="#335394" stroke-miterlimit="10" stroke-width="3"/><circle cx="110.48" cy="67.75" r="13.46" transform="translate(19.15 159.71) rotate(-76.72)" fill="#9be3bb" stroke="#72b75b" stroke-miterlimit="10" stroke-width="3"/><circle cx="316.81" cy="75.57" r="13.46" fill="#ac53b0" stroke="#7f1c81" stroke-miterlimit="10" stroke-width="3"/><circle cx="218.66" cy="65.9" r="13.46" transform="translate(17.45 173.92) rotate(-45)" fill="#ac53b0" stroke="#7f1c81" stroke-miterlimit="10" stroke-width="3"/><circle cx="375.2" cy="86.88" r="13.46" transform="translate(204.44 432.09) rotate(-76.72)" fill="#ac53b0" stroke="#7f1c81" stroke-miterlimit="10" stroke-width="3"/><circle cx="264.45" cy="69.92" r="13.46" transform="translate(28.01 207.47) rotate(-45)" fill="#96b85c" stroke="#6c9433" stroke-miterlimit="10" stroke-width="3"/><circle cx="157.29" cy="68.24" r="13.46" fill="#e8a4d2" stroke="#ac538c" stroke-miterlimit="10" stroke-width="3"/><circle cx="291.44" cy="67.75" r="13.46" transform="translate(158.54 335.83) rotate(-76.72)" fill="#ffaa5a" stroke="#ce894a" stroke-miterlimit="10" stroke-width="3"/><circle cx="132.76" cy="83.98" r="13.46" transform="translate(-20.5 118.48) rotate(-45)" fill="#e84e2c" stroke="#c2331d" stroke-miterlimit="10" stroke-width="3"/><circle cx="301.7" cy="89.03" r="13.46" transform="translate(145.73 362.2) rotate(-76.72)" fill="#e84e2c" stroke="#c2331d" stroke-miterlimit="10" stroke-width="3"/><circle cx="109.8" cy="85.07" r="13.46" transform="translate(-27.99 102.56) rotate(-45)" fill="#ffeb81" stroke="#ffaa5a" stroke-miterlimit="10" stroke-width="3"/><circle cx="276.35" cy="85.67" r="13.46" transform="translate(129.48 334.94) rotate(-76.72)" fill="#98d9e4" stroke="#6ab3b9" stroke-miterlimit="10" stroke-width="3"/><circle cx="202.7" cy="87.35" r="13.46" transform="translate(71.12 264.56) rotate(-76.72)" fill="#ac53b0" stroke="#7f1c81" stroke-miterlimit="10" stroke-width="3"/><circle cx="155.72" cy="85.07" r="13.46" transform="translate(46.81 225.15) rotate(-80.78)" fill="#96b85c" stroke="#6c9433" stroke-miterlimit="10" stroke-width="3"/><circle cx="252.12" cy="87.35" r="13.46" transform="translate(125.51 322.22) rotate(-80.78)" fill="#e8a4d2" stroke="#ac538c" stroke-miterlimit="10" stroke-width="3"/><circle cx="177.24" cy="85.55" r="13.46" fill="#ffaa5a" stroke="#ce894a" stroke-miterlimit="10" stroke-width="3"/><circle cx="227.71" cy="87.35" r="13.46" transform="translate(90.38 288.9) rotate(-76.72)" fill="#ffeb81" stroke="#ffaa5a" stroke-miterlimit="10" stroke-width="3"/><circle cx="350.9" cy="85.67" r="13.46" transform="translate(42.2 273.21) rotate(-45)" fill="#ffeb81" stroke="#ffaa5a" stroke-miterlimit="10" stroke-width="3"/></g></g></g></g></svg>