<svg xmlns="http://www.w3.org/2000/svg" width="96.34" height="141.59" viewBox="0 0 96.34 141.59"><g id="Layer_2" data-name="Layer 2"><g id="Layer_1-2" data-name="Layer 1"><g id="na_potted_plant_3" data-name="na_potted plant 3"><path d="M44.13,140.09c-8.87,0-16.84-4.48-20.79-11.69l0-.06A24.05,24.05,0,0,1,20,116.12a1.24,1.24,0,0,1,0-.33c.07-.57,0-5,0-9.3-.08-5.95-.17-13.36-.08-19.41.12-7.49.44-10.34,1.15-11.44a3.46,3.46,0,0,1,.87-1.53c3.13-3.34,14.62-4.52,23.51-4.52,5.64,0,19.09.49,22.08,5.06a3.66,3.66,0,0,1,.4,3.38c0,2.3.11,5.69.26,9.58.55,14.36,1.31,34-3.46,41.09C60.67,135.83,53,140.09,44.13,140.09Z" fill="#e57225"/><path d="M45.44,71.09c11.66,0,23,2,21,6.65-.19,10.06,2.92,41.53-3,50.17-4,7.13-11.66,10.68-19.31,10.68s-15.49-3.65-19.47-10.91h0a22.43,22.43,0,0,1-3.17-11.55c.37-1.63-1-39.5,1-39.69-.21-3.38,11.53-5.34,23-5.34m0-3h0c-3.32,0-20.14.24-24.6,5a4.85,4.85,0,0,0-1.22,2.13,11.23,11.23,0,0,0-.88,4.06c-.17,1.84-.27,4.39-.33,7.79-.09,6.06,0,13.48.08,19.45.05,4.07.1,8.29,0,9.13a2.59,2.59,0,0,0,0,.48A25.56,25.56,0,0,0,22,129.06l0,.06c4.21,7.69,12.68,12.47,22.1,12.47s17.54-4.52,21.86-12.1c4.63-7,4.39-23.8,3.69-41.94-.15-3.75-.27-7-.26-9.27a5.19,5.19,0,0,0-.64-4.46c-3.28-5-16-5.73-23.34-5.73Z" fill="#5c1612"/><ellipse cx="44.63" cy="75.95" rx="21.18" ry="3.63" fill="#451724"/><path d="M24.51,121.49c1.74-.33,3.37,1.85,1,2.83S22.76,121.82,24.51,121.49Z" fill="#fff"/><path d="M30,123.23c2-.21,3.49,2.18,1.2,2.29S28,123.45,30,123.23Z" fill="#fff"/><path d="M38.34,122.91c2.4-.44,3.92,3.59,1.2,3.7S36,123.34,38.34,122.91Z" fill="#fff"/><path d="M46.19,125.41c-2.62-3.88,6.14-1.09,2.28.33C46.4,126.28,46.19,125.41,46.19,125.41Z" fill="#fff"/><path d="M54.47,123.78c1.52-.76,5.66.87,3.15,2.18S52.94,124.54,54.47,123.78Z" fill="#fff"/><path d="M65.27,124.18a18.57,18.57,0,0,1-.9,2,3,3,0,0,1-.86.17c-3,.22-2.18-3.27.22-3.27A1.74,1.74,0,0,1,65.27,124.18Z" fill="#fff"/><path d="M27.12,94.26c2.94-.22,3.7,2.94.76,3.37S24.18,94.47,27.12,94.26Z" fill="#fff"/><path d="M35.51,94.26c2.94-.11,4.25,2.94,1.52,3S32.57,94.36,35.51,94.26Z" fill="#fff"/><path d="M44.77,94.91c2.61.22,2.94,3.7.22,3.27S42.15,94.69,44.77,94.91Z" fill="#fff"/><path d="M52.5,96.87c-1-2.28,6.89-1.44,3.38.87C54,98.94,52.5,96.87,52.5,96.87Z" fill="#fff"/><path d="M61.44,97.09c-.12-4.45,7.43.27,2.29,1C60.46,98.07,61.44,97.09,61.44,97.09Z" fill="#fff"/><path d="M22.14,84.25q-.33-.15-.66-.27c1.72,7,14.43,2.2,19.94,2.58C48.29,88,63.49,91,66.75,83.85,56.29,88.63,50.43,86.25,40,84.94,34,85.42,27.7,87.59,22.14,84.25Z" fill="#fff"/><path d="M58.74,133.38a20.73,20.73,0,0,1-3,2.15c-4.66.22-10-1.76-14.33-2.13-3.1-.44-6.9,1.09-10.23,1.29A18.73,18.73,0,0,1,29,133c3.64.08,7.32-1,10.95-1.18C46.35,132,52.53,134.7,58.74,133.38Z" fill="#fff"/><path d="M63.44,127.91c-.28.47-.59.92-.92,1.37-4.22,1.47-9.89-.18-14.24,0a2.41,2.41,0,0,0-.66.12c-7.57,2.26-14.95.4-22.51-1-.15-.23-.31-.48-.45-.72,11.89,2.21,23.32-1,35.34.9A15.51,15.51,0,0,0,63.44,127.91Z" fill="#fff"/><path d="M59.87,90.68c-7,2.34-13.75-1.44-20.78-1-5.89.65-11.84,1.38-17.61-.48V90c7.67,2.75,15.56-.44,23.33.77,7.29,2.43,14.66,1.12,21.94-.67v-.86Z" fill="#fff"/><path d="M72.39,49.6c-9.06-4.52-16.56.3-21.69,7.75C50.84,49,49.82,41.47,47,36.74a24.41,24.41,0,0,1,2.92-3.21C62.82,23,80.1,30.14,82.69,46.47,79.43,23,57.15,20.54,45.68,34.91,40.8,29.23,31.88,30,16.89,43.27,32.23,32.74,40.11,32.1,44.21,37A33.93,33.93,0,0,0,39,53.76c-1.86-.72-4.14-.56-6.88.91-9.64,8.51-12.56,22.2-15.71,34.14,4.09-14,15.29-37.52,22.51-32.32a60.43,60.43,0,0,0,3.27,18.74A130.75,130.75,0,0,1,40.9,58.91c1.42,2.52,2.58,6.67,3.36,12.89a41.1,41.1,0,0,0-1,5.24c.34-1.1.73-2.29,1.18-3.52q.13,1.17.24,2.43a20.23,20.23,0,0,0,.91-5.38A62.25,62.25,0,0,1,48.76,64c0,3.64.08,7.37.23,11.07A130,130,0,0,0,50.56,61c4.87-7.4,11.69-12.8,20.26-8.9,12.85,12.35,13,35.75,12.66,52.59C86.49,87.47,86.74,61.92,72.39,49.6ZM45.59,67.47C45.32,62.63,43.87,57.59,41,55c.37-5.77,1.61-11.36,4.49-16.12,2.56,4.83,3,12.78,3.18,21.65A48.32,48.32,0,0,0,45.59,67.47Z" fill="#0e653d"/><path d="M6.07,61.78a2.09,2.09,0,0,1-.34,0,1.49,1.49,0,0,1-1-.79A30.58,30.58,0,0,1,1.65,50.43,1.49,1.49,0,0,1,2.5,48.9l-.19-.08a1.51,1.51,0,0,1-.81-1.34A22.37,22.37,0,0,1,3,39.39a1.7,1.7,0,0,1,.29-.46,4.5,4.5,0,0,1,2.29-1.2,1.58,1.58,0,0,1-.54-.46,1.51,1.51,0,0,1,0-1.71,21.91,21.91,0,0,1,9-8,1.56,1.56,0,0,1,.63-.14,1.49,1.49,0,0,1,1.18.59,6.31,6.31,0,0,0,1.83,1.66,7,7,0,0,0-.8-.59,1.5,1.5,0,0,1,.4-2.69,17.53,17.53,0,0,1,4.95-.74c4,0,7.36,1.52,8.91,4.06a5.91,5.91,0,0,1,.81,4.1c4.27.19,5.61,2.56,6,4,1.6,5.49-4.75,14.42-9.65,17.53a1.52,1.52,0,0,1-.8.23,1.56,1.56,0,0,1-.57-.11,1.49,1.49,0,0,1-.89-1.06,12.27,12.27,0,0,0-.68-2.15,8.41,8.41,0,0,0,1,2.88,1.51,1.51,0,0,1-.53,2A17.1,17.1,0,0,1,16.17,60c-.42,0-.85,0-1.28,0a1.51,1.51,0,0,1-1.16-.65,1.56,1.56,0,0,1-.24-.65,4.11,4.11,0,0,1-.66.9,1.45,1.45,0,0,1-1,.44c-1.62,0-2.55.08-3,.1L7,61.48A1.52,1.52,0,0,1,6.07,61.78Zm7.07-8.4c.14.51.33,1.13.61,1.87A7.08,7.08,0,0,0,13.14,53.38Zm16.44-6.17Z" fill="#3b783a"/><path d="M22.24,27.18c5.9,0,10,3.69,7.63,8.23.54,0,1.05-.08,1.53-.08,10.85,0,2.92,14.47-3.86,18.77C26.83,51,25.77,49.73,25,49.73c-1.15,0-1.75,2.62,0,6.12a15.62,15.62,0,0,1-8.85,2.68L15,58.5c1.36-4.08-1.51-8.22-2.92-8.22-.86,0-1.19,1.54.32,5.58a2.83,2.83,0,0,1-.62,2.67c-2.73.06-3.54.14-3.54.14L6.07,60.28a29.32,29.32,0,0,1-2.93-10c1.71-.71,2.9-3.59,1.6-3.59A3.49,3.49,0,0,0,3,47.49a20.93,20.93,0,0,1,1.42-7.55c2-2.14,12.11-.19,9.67-2.72a6.87,6.87,0,0,0-4.51-1.31,12.24,12.24,0,0,0-3.31.47A20.25,20.25,0,0,1,14.68,29c1.45,1.88,3.06,2.63,4.13,2.63,1.6,0,2-1.66-1.09-3.72a15.8,15.8,0,0,1,4.52-.68m9.55,13.57c1.39,0,2.85-.36,3.43-1.11.8-1-1.4-1.78-3.46-1.78-1.38,0-2.7.34-3,1.15-.44,1.14,1.24,1.74,3,1.74m-2.33,8,.15,0c1.67-.3-.27-5.23-2.31-5.23h-.19c-2,.3.62,5.24,2.35,5.24m-8.35.89c0,1.34-.41,2.45-1.4,2.45,1,0,1.4-1.11,1.4-2.45,0-2-.9-4.48-2.09-4.48,1.19,0,2.09,2.49,2.09,4.48M5.61,54.71c1.61,0,3-2,2.4-3.06a.38.38,0,0,0-.36-.2c-1.1,0-3.8,3-2.29,3.24l.25,0M22.24,24.18h0a19.06,19.06,0,0,0-5.38.8A3.08,3.08,0,0,0,15.34,26a3,3,0,0,0-.66-.08,2.92,2.92,0,0,0-1.25.28,23.39,23.39,0,0,0-9.68,8.52A3,3,0,0,0,3.34,37a4.81,4.81,0,0,0-1.14.91,3,3,0,0,0-.57.92A23.77,23.77,0,0,0,0,47.47,3,3,0,0,0,.41,49,3,3,0,0,0,.15,50.6a32.38,32.38,0,0,0,3.25,11,3,3,0,0,0,2,1.57,3.23,3.23,0,0,0,.68.08,3,3,0,0,0,1.8-.6L9.3,61.61l2.52-.08a3,3,0,0,0,1.58-.48,3,3,0,0,0,1.41.44c.46,0,.92,0,1.35,0a18.51,18.51,0,0,0,10.46-3.15,2.9,2.9,0,0,0,1.12-1.29,3,3,0,0,0,1.41-.46c5.33-3.38,12.15-12.77,10.28-19.21a7,7,0,0,0-5.9-4.92A7.31,7.31,0,0,0,32.43,29c-1.83-3-5.64-4.78-10.19-4.78Zm-5.06,7.13Z" fill="#02513d"/><path d="M80.49,52.45l-.25,0a1.48,1.48,0,0,1-1-.66,33.76,33.76,0,0,0-3.13-3.92,1.49,1.49,0,0,1-.29-1.6,5.8,5.8,0,0,0,.33-1.15,1.5,1.5,0,0,1-1,.88,1.61,1.61,0,0,1-.44.06,1.56,1.56,0,0,1-1-.34c-2.2-1.85-4.29-1.89-7.19-2-1.21,0-2.59-.06-4.09-.24a1.5,1.5,0,0,1-1.31-1.66,13.87,13.87,0,0,1,2.22-5.33l.43-.72c-2.06.61-2.57,4.27-2.7,5.9a1.5,1.5,0,0,1-1.5,1.38,1.24,1.24,0,0,1-.27,0c-4.77-.88-7.85-3.79-8.22-7.78a1.49,1.49,0,0,1,.77-1.45c3.21-1.75,4.54-3,5-3.66a8.62,8.62,0,0,0-2.43,1.32,1.48,1.48,0,0,1-.87.28,1.43,1.43,0,0,1-.29,0L52,32.28a1.7,1.7,0,0,1-.54.09,1.46,1.46,0,0,1-.74-.19,1.61,1.61,0,0,1-.44-.38,1.49,1.49,0,0,1-1,1.38,33.65,33.65,0,0,1-4.43,1l-1.48,3.09a1.47,1.47,0,0,1-.91.78,1.35,1.35,0,0,1-.44.07,1.45,1.45,0,0,1-.76-.21l-.32-.19a37.21,37.21,0,0,1-7.11-5.91,1.47,1.47,0,0,1-.32-1.53l-.13,0h-.16A1.49,1.49,0,0,1,32,29.65c-6.95-9.5-5.16-16.5-3.47-19.83a15.28,15.28,0,0,1,13-8.32A7.4,7.4,0,0,1,47.45,4a6.79,6.79,0,0,1,1.45,3.7A18.69,18.69,0,0,1,57,5.14a5.88,5.88,0,0,1,6,4.47,1.48,1.48,0,0,1-.36,1.47,1.52,1.52,0,0,1-1.07.45,1.33,1.33,0,0,1-.4,0,15.34,15.34,0,0,0-3.9-.51,6.6,6.6,0,0,0-3.83.91,19.51,19.51,0,0,0,3,.15c2.66,0,5.68,0,7.24,1.8a1.44,1.44,0,0,1,.36.91,20,20,0,0,1-1.57,9h.67a20.21,20.21,0,0,1,3.86.39,12.78,12.78,0,0,1,9.47-4.22c5.27,0,9.2,3.45,10.78,9.46a1.5,1.5,0,0,1-2,1.79,12.35,12.35,0,0,0-4-.91l-.41,0c.55.78,2.53,2.27,6,2.49A1.51,1.51,0,0,1,88.34,34c.81,7.48-1.72,14.07-6.93,18.1A1.54,1.54,0,0,1,80.49,52.45Zm.2-15.86a6,6,0,0,0,2.72.72l.38,0a4.35,4.35,0,0,0-2.42-.79A2.29,2.29,0,0,0,80.69,36.59ZM36.33,26.67a5.82,5.82,0,0,0-.69.81ZM75,24.62a5.05,5.05,0,0,0,2.36.43,10,10,0,0,0,1.81-.17,9.28,9.28,0,0,0-2.81-.47A3.39,3.39,0,0,0,75,24.62ZM53.49,20a3,3,0,0,0,2.14,1.4c.15,0,.17,0,.2-.08a.62.62,0,0,0,.07-.7,2,2,0,0,0-1.65-.84A1.31,1.31,0,0,0,53.49,20Zm-18.74.12a.77.77,0,0,0,.37.07,3,3,0,0,0,2-.93H37A3.78,3.78,0,0,0,34.75,20.08Z" fill="#3b783a"/><path d="M41.53,3c3.85,0,6.78,2.4,5.69,7.74h0v0c.16-.52,5.57-4.13,9.81-4.13A4.42,4.42,0,0,1,61.64,10a17.52,17.52,0,0,0-4.3-.56c-2.3,0-4.59.53-5.63,2.17-.67,3.53,8.55.45,10.93,3.17a17.09,17.09,0,0,1-2.93,10.8,13.74,13.74,0,0,1,3.52-.43,19.2,19.2,0,0,1,4.43.55h0l.08,0c1.41-2.33,5.08-4.39,8.82-4.39s7.71,2.15,9.33,8.34a13.93,13.93,0,0,0-4.49-1c-4.41,0-1.32,5.07,5.45,5.51.64,5.93-.95,12.58-6.36,16.75a34,34,0,0,0-3.29-4.13c1-2.5.34-4.82-.68-4.82-.57,0-1.24.72-1.76,2.54C71.1,41.48,67.63,42.62,62.69,42c.45-3.92,5.31-7.82,2-7.82l-.51,0c-3.45.3-4.28,4.86-4.48,7.36-3.64-.68-6.65-2.77-7-6.45,2.24-1.22,7-4.1,5.71-6a1.25,1.25,0,0,0-1.1-.55,7.57,7.57,0,0,0-3.66,1.67c.08-.15.17-.29.26-.44-.82.4-1.63.76-2.41,1.05-.45-2.67-3.57-8.94-6-8.94a1.53,1.53,0,0,0-1,.44c1.32,3,4.16,5.93,4.4,9.4a34.31,34.31,0,0,1-4.89,1h0L42,36.58l-.31-.19h0a35.71,35.71,0,0,1-6.79-5.64c1.89-2.67,5.76-5.84,3-6.18a1.88,1.88,0,0,0-.34,0c-2.09,0-3.57,2.45-4.36,4.21C21.8,13.16,33.61,3,41.53,3M39.1,10.52c0,.89-1.42,1.86-5,1.86,3.56,0,5-1,5-1.86,0-.74-1-1.41-2.53-1.41,1.55,0,2.53.67,2.53,1.41m-4,11.13c1.9,0,4.25-1.79,3.51-3.2A1.7,1.7,0,0,0,37,17.72c-2,0-4.74,1.6-3.61,3.14a2,2,0,0,0,1.71.79m20.51,1.21a1.65,1.65,0,0,0,1.46-.76c1.28-2-.83-3.86-2.84-3.86a2.78,2.78,0,0,0-1.67.52c-1.93,1.25.94,4.1,3.05,4.1M77.4,26.55c2,0,4.06-.54,4.39-1.37.42-1.07-2.83-2.27-5.39-2.27-1.51,0-2.78.41-2.94,1.5-.22,1.53,1.82,2.14,3.94,2.14m6,12.26a2.28,2.28,0,0,0,2-.74c.92-1.41-1.73-3.07-4-3.07a3,3,0,0,0-2.17.76c-1.48,1.46,1.83,3.05,4.21,3.05m-13.73.59c0,.72.3,1.25,1.06,1.25-.76,0-1.06-.53-1.06-1.25,0-1.47,1.25-3.69,2.45-3.69-1.2,0-2.45,2.22-2.45,3.69m13.84,4.32a1,1,0,0,0,.77-.35c1.22-1.46-1.12-2.6-2.8-2.6H81.2c-1.4.12.81,2.94,2.32,2.94m-36.3-33h0m0,0h0M41.53,0h0C35.82,0,29.93,3.76,27.2,9.14c-1.85,3.64-3.83,11.25,3.59,21.4a3,3,0,0,0,1.22,1,3,3,0,0,0,.71,1.29,38.44,38.44,0,0,0,7.38,6.13l.38.23a3,3,0,0,0,1.53.42,2.87,2.87,0,0,0,.87-.13,3,3,0,0,0,1.84-1.58l1.13-2.37a31.89,31.89,0,0,0,3.85-.88,2.62,2.62,0,0,0,0,.79c.44,4.7,4,8.1,9.43,9.12a3.51,3.51,0,0,0,.55,0,3,3,0,0,0,1.15-.23,2.94,2.94,0,0,0,1.53.65c1.57.19,3,.22,4.24.25,3,.06,4.54.16,6.26,1.6a3.09,3.09,0,0,0,1.45.66A3.06,3.06,0,0,0,75,48.87a32.53,32.53,0,0,1,3,3.72,3,3,0,0,0,2,1.32,4.21,4.21,0,0,0,.5,0,3,3,0,0,0,1.83-.63C88,49,90.7,41.89,89.83,33.88a3,3,0,0,0-1.58-2.33,3,3,0,0,0,.54-2.62c-2.5-9.54-9.39-10.58-12.23-10.58a14.63,14.63,0,0,0-10,4.1c-.62-.1-1.24-.17-1.84-.22a22.06,22.06,0,0,0,.93-7.57,3,3,0,0,0-.73-1.82,5.66,5.66,0,0,0-1-.87,3,3,0,0,0,.58-2.79A7.38,7.38,0,0,0,57,3.64,17.28,17.28,0,0,0,50,5.48,8.06,8.06,0,0,0,48.61,3a8.87,8.87,0,0,0-7.08-3Zm5.69,13.74Zm0,0ZM78,44.38Z" fill="#02513d"/><path d="M16.17,105.09a1.49,1.49,0,0,1-1.38-.91,24.91,24.91,0,0,0-1.44-2.69c-1.7-2.9-4-6.88-5.32-15.27a1.5,1.5,0,0,1,1.16-1.69,6.08,6.08,0,0,0,2.88-1.29c-.13,0-.3,0-.5,0a7.73,7.73,0,0,0-1.75.24,2,2,0,0,1-.34,0A1.51,1.51,0,0,1,8,81.89a17.15,17.15,0,0,1,4.1-9.75,1.48,1.48,0,0,1,1.07-.51h.46l.56,0,0-.13a1.48,1.48,0,0,1,.63-1.75,7.67,7.67,0,0,1,4.06-1.21,9.15,9.15,0,0,1,6.08,2.69A7.64,7.64,0,0,1,28,70.53a6.89,6.89,0,0,1,6.33,4.61c1.56,3.73,1.06,9.61-3.59,14.33a1.52,1.52,0,0,1-1.07.45,1.24,1.24,0,0,1-.33,0,1.51,1.51,0,0,1-1.09-1c-1-2.78-2.4-3.52-3.08-3.52-.21,0-.31.06-.33.09s0,.45.64,1.07a13.62,13.62,0,0,1,3.23,3.65A1.49,1.49,0,0,1,28.59,92a46.89,46.89,0,0,1-6.86,6.17,1.52,1.52,0,0,1-.87.27h-.11a1.54,1.54,0,0,1-1,.87c-1.73.52-2.12,3.49-2.12,4.12a1.54,1.54,0,0,1-.46,1.21A1.52,1.52,0,0,1,16.17,105.09Z" fill="#3b783a"/><path d="M18.82,70.05c3.08,0,5.35,2.54,5.78,3A6.72,6.72,0,0,1,28,72c5.7,0,8.41,9.53,1.67,16.39-1.17-3.32-3.08-4.52-4.5-4.52-1.75,0-2.75,1.84-.66,3.81A12.47,12.47,0,0,1,27.49,91a44.6,44.6,0,0,1-6.63,6c-1.15-2.72-2.41-4-3.05-4s-.66,1.77,1.55,4.88c-3,.92-3.24,5.47-3.19,5.68-1.61-3.71-5-6.69-6.66-17.6,4.86-1,5.68-4.28,2.06-4.28A9.35,9.35,0,0,0,9.48,82a15.59,15.59,0,0,1,3.72-8.86h.41a6.82,6.82,0,0,1,2.92.55,10.89,10.89,0,0,0,3.14.63c3,0,.35-3.3-3.49-3.3q-.31,0-.63,0a6.13,6.13,0,0,1,3.27-1m11.36,9.89a1.09,1.09,0,0,0,.7-.26c1.49-1.23-.44-3.83-2-3.83a1.4,1.4,0,0,0-.53.11c-1.39.65.28,4,1.84,4M14.47,78.78c1.65,0,3.8-.52,4.18-1.32s-.87-1.12-2.3-1.12-3.13.41-3.7,1.3.49,1.14,1.82,1.14m7.84,12.88a1,1,0,0,0,.66-.24c1.32-1.09-1-4.34-2.57-4.34a1,1,0,0,0-.66.23c-1.31,1.09,1,4.35,2.57,4.35m-10.65,0c1.19,0,2.27-2.1,1.83-3.12a.32.32,0,0,0-.31-.22c-.9,0-3,2.8-1.9,3.26a.84.84,0,0,0,.38.08m4.51,12h0m2.65-36.54h0A9.14,9.14,0,0,0,14,68.48a3,3,0,0,0-1.3,1.7,3,3,0,0,0-1.72,1A18.55,18.55,0,0,0,6.48,81.79,3,3,0,0,0,7.26,84a3,3,0,0,0-.71,2.44c1.33,8.68,3.74,12.79,5.5,15.8a26.28,26.28,0,0,1,1.37,2.52,3,3,0,0,0,1.41,1.51,3.07,3.07,0,0,0,1.34.32,3,3,0,0,0,3-3.18c0-.94.53-2.48,1.06-2.64a3,3,0,0,0,1.39-.9,3.06,3.06,0,0,0,1-.45,47.42,47.42,0,0,0,7.11-6.38,3,3,0,0,0,.77-1.74,2.9,2.9,0,0,0,1.36-.79c5.14-5.21,5.67-11.77,3.91-16A8.34,8.34,0,0,0,28,69a8.76,8.76,0,0,0-2.83.48,10.24,10.24,0,0,0-6.38-2.46Z" fill="#02513d"/><path d="M55,99.55a1.52,1.52,0,0,1-.69-.16,49.74,49.74,0,0,1-9.11-6.3,1.5,1.5,0,0,1-.24-2,1.48,1.48,0,0,1-.92.31A1.54,1.54,0,0,1,43,91a20.93,20.93,0,0,1-6.43-14.9,1.5,1.5,0,0,1,.75-1.31,5.16,5.16,0,0,0,.8-.58H38a1.51,1.51,0,0,1-1.5-1.53,37.38,37.38,0,0,1,.27-3.74,1.49,1.49,0,0,1,.84-1.16c5.36-2.55,7.12-4.32,7.68-5.12a9.14,9.14,0,0,0-4.88,2.55A1.5,1.5,0,0,1,38,63.61a17,17,0,0,1,3.31-5.8c-3.77-2.42-6.11-5.08-6.94-7.93a1.45,1.45,0,0,1,.1-1.1,6.94,6.94,0,0,1,1.14-1.62,1.18,1.18,0,0,1-.4-.1,1.5,1.5,0,0,1-.9-1.72,8.78,8.78,0,0,1,8.8-7,6.5,6.5,0,0,1,1,.07,7.83,7.83,0,0,1,5.58-2.76c2.21,0,4.35,1.17,6.35,3.46a1.49,1.49,0,0,1-.93,2.47,2.27,2.27,0,0,0-1.26.56h.26a11.85,11.85,0,0,1,3.83.8,1.48,1.48,0,0,1,.91.92,18.31,18.31,0,0,1,.91,6.91,1.52,1.52,0,0,1-1.26,1.41l-.24,0a1.51,1.51,0,0,1-1.4-.95,2.44,2.44,0,0,0-2.19-1.62,4.43,4.43,0,0,0,.62.62,13,13,0,0,1,3.66,3.69,1.48,1.48,0,0,1,.24,1.17c-.17.83-.37,1.67-.61,2.51A13.32,13.32,0,0,1,64.1,56.3c2.6,0,8.83,1,10.7,10.19A1.5,1.5,0,0,1,74,68.13a1.43,1.43,0,0,1-.66.16,1.5,1.5,0,0,1-1.13-.51,5.31,5.31,0,0,0-4-1.77,2.74,2.74,0,0,0-1.58.38c.1.21.54.93,2.47,2A26.1,26.1,0,0,1,75,71.75,1.51,1.51,0,0,1,75.54,73c-.13,7.07-1.87,11.6-5.83,15.15a1.5,1.5,0,0,1-1,.38,1.52,1.52,0,0,1-.51-.09,1.64,1.64,0,0,1-.43-.24,4.18,4.18,0,0,1,.09.71,1.53,1.53,0,0,1-.61,1.25A42.66,42.66,0,0,1,62.78,93a1.47,1.47,0,0,1-.73.19,1.5,1.5,0,0,1-1.29-.73,1.44,1.44,0,0,0-.5-.48,1.14,1.14,0,0,0,.11.11,1.53,1.53,0,0,1,.4,1.31A1.5,1.5,0,0,1,60,94.48c-.86.42-1.55.73-2,.92l-1.62,3.31a1.45,1.45,0,0,1-.87.76A1.26,1.26,0,0,1,55,99.55Zm-4.9-13.88c-2.4,0-4,3-4.67,4.8a.89.89,0,0,1-.08.17c.64-.71,1.4-1.45,2.13-2.17a35.9,35.9,0,0,0,2.65-2.8Zm11.38-4.56c.45.43,1.15,1,1.66,1.41a16.94,16.94,0,0,1,3.95,3.93c-.87-3.7-3.52-5.37-5.25-5.37A2.1,2.1,0,0,0,61.47,81.11Zm2.28-7.91A9.58,9.58,0,0,0,68,75.49,10,10,0,0,0,63.75,73.2ZM41.18,50.6a.77.77,0,0,0,.25,0,1.32,1.32,0,0,0,1-.85,1.14,1.14,0,0,0,.1-.78A3.1,3.1,0,0,0,41.18,50.6Z" fill="#3b783a"/><path d="M49.67,37.12c1.52,0,3.3.74,5.22,3-3.13.42-3.77,3.85-2.45,3.85a1.18,1.18,0,0,0,.44-.1,3,3,0,0,1,1.21-.22,10.82,10.82,0,0,1,3.33.71,16.92,16.92,0,0,1,.82,6.35,4,4,0,0,0-3.6-2.57c-1.66,0-2.7,1.32-.24,3.35a11.92,11.92,0,0,1,3.31,3.33A37.36,37.36,0,0,1,56,60.52c.14.3.21.48.21.48a11.65,11.65,0,0,1,7.9-3.2c3.91,0,7.86,2.28,9.23,9a6.86,6.86,0,0,0-5.09-2.27c-3.15,0-5.12,2.35.25,5.19A24.52,24.52,0,0,1,74.05,73c-.12,5.89-1.33,10.46-5.34,14-.77-5-4.33-7.42-6.88-7.42a3,3,0,0,0-1.67.45c-2.86,1.73,6.07,4.94,6.2,8.9A42.86,42.86,0,0,1,62,91.68a3.09,3.09,0,0,0-2.56-1.45c-1.26,0-2,1-.19,2.9-1.46.71-2.44,1.11-2.44,1.11L55,98.05A47.77,47.77,0,0,1,46.18,92c2.69-3.11,8.45-7.33,4.41-7.77l-.5,0c-3.27,0-5.18,3.54-6.06,5.74a19.28,19.28,0,0,1-6-13.84C40.52,74.64,41.46,72,39.9,72a4.19,4.19,0,0,0-1.93.71,31.9,31.9,0,0,1,.26-3.58c9.82-4.66,10.06-8,7.2-8a10,10,0,0,0-6.06,2.94,14.21,14.21,0,0,1,4.36-6.57c-3.45-1.92-7-4.65-8-8.07,1.63-3.2,6.91-4.29,3.73-5.64a2.4,2.4,0,0,0-1-.21,3.59,3.59,0,0,0-2.79,2.06,7.32,7.32,0,0,1,7.34-5.86c.84,0,1.43.15,1.52.33h0l0,0c.19-.28,2.15-3,5.07-3M48.08,41.8c1.39,0,2.16-1.91.82-2.23a1.07,1.07,0,0,0-.25,0c-1.22,0-1.95,2.21-.62,2.26h0M41.43,52.14c2,0,3.5-2.79,2.18-4.29a1.08,1.08,0,0,0-.85-.39c-1.79,0-4.43,3.5-2.32,4.46a2.4,2.4,0,0,0,1,.22m2.62,5.15a10.48,10.48,0,0,1,2.47-1.39c1.65-3.08,1.49-4.25.74-4.25-1.18,0-3.79,2.83-3.21,5.64m11.37-.63a1.56,1.56,0,0,0,.67-.15c1-.5-.11-1.44-1.2-1.44a1.61,1.61,0,0,0-.65.13c-1,.45.1,1.46,1.18,1.46m4.87,8.18c2.19,0,4.52-2.11,3.24-3.44a1.1,1.1,0,0,0-.81-.3c-1.88,0-5.14,3.19-3.14,3.66a3.36,3.36,0,0,0,.71.08m-14,7.09c1.48,0,4-1.26,4.4-2.66.19-.79-.36-1.14-1.19-1.14-1.42,0-3.64,1-4.18,2.59-.3.86.18,1.21,1,1.21M68.87,77.1A2.06,2.06,0,0,0,70,76.85c1.7-1-3.74-5.17-6.5-5.17a1.46,1.46,0,0,0-1.2.47C60.78,74,66.11,77.1,68.87,77.1M41.38,82.61a.94.94,0,0,0,1,1.06.94.94,0,0,1-1-1.06c0-2.12,3.42-6.68,7.9-6.68-4.48,0-7.9,4.56-7.9,6.68m8.29-48.49a8.93,8.93,0,0,0-6.16,2.7h-.45A10.23,10.23,0,0,0,32.8,45a3,3,0,0,0,.59,2.54c-.11.18-.21.36-.31.55a3,3,0,0,0-.2,2.2c.83,2.83,2.91,5.46,6.2,7.83a19,19,0,0,0-2.54,5,3,3,0,0,0,.74,3.14l-.34.16a3,3,0,0,0-1.69,2.34A37.07,37.07,0,0,0,35,72.65a3,3,0,0,0,.56,1.8,3,3,0,0,0-.48,1.65,22.37,22.37,0,0,0,6.89,16,2.94,2.94,0,0,0,1.36.76,3,3,0,0,0,.9,1.39,50.69,50.69,0,0,0,9.42,6.51,3,3,0,0,0,4.06-1.35l1.38-2.82c.42-.19.95-.43,1.55-.73a2.93,2.93,0,0,0,1.25-1.14h.19a3,3,0,0,0,1.47-.39,46.72,46.72,0,0,0,4.62-3,3,3,0,0,0,1-1.38,3,3,0,0,0,1.54-.73C76.15,84.37,77,78,77,73a3,3,0,0,0-1.18-2.44c-.46-.35-.93-.69-1.39-1l.19-.08a3,3,0,0,0,1.61-3.29c-1.45-7.13-6-11.38-12.17-11.39h0a13.93,13.93,0,0,0-3.43.45A3,3,0,0,0,60.15,53l0,0a3,3,0,0,0,1.12-2.19,19.91,19.91,0,0,0-1-7.48,3,3,0,0,0-1.83-1.83c-.26-.1-.51-.18-.76-.26,0,0,0-.07,0-.11a3,3,0,0,0-.55-3c-2.3-2.63-4.81-4-7.48-4v0ZM48.06,54.48Z" fill="#02513d"/><path d="M77.31,118a14.71,14.71,0,0,1-3.72-.47,1.48,1.48,0,0,1-.94-.74,1.46,1.46,0,0,1-.1-1.19,29.27,29.27,0,0,0,1-4.1,1.5,1.5,0,0,1,1.1-1.22h0a1.09,1.09,0,0,1-.23-.14,1.49,1.49,0,0,1-.65-1.28c.08-2.35-1-3.74-2.4-5.67a32.33,32.33,0,0,1-2-2.88,1.48,1.48,0,0,1,0-1.53,1.5,1.5,0,0,1-.37,0A1.53,1.53,0,0,1,68,98c-1.94-3.75-1.58-7.42,1-9.82a1.47,1.47,0,0,1,1-.41,1.38,1.38,0,0,1,.6.13,20.36,20.36,0,0,0,3.8,1.28c-.29-.12-.64-.24-1.08-.38a1.5,1.5,0,0,1,.18-2.91,8.7,8.7,0,0,1,1.53-.13c4.07,0,7.71,2.63,10.07,7.25,3.11.29,7.75,2,9.38,7,.86,2.63,0,6.09-2.28,9.5a1.51,1.51,0,0,1-1.25.66h-.21a1.48,1.48,0,0,1-1.21-1,10.69,10.69,0,0,0-1.33-2.93,7.28,7.28,0,0,0,1.47,4.61,1.49,1.49,0,0,1-.19,1.93A17.69,17.69,0,0,1,77.31,118ZM89.18,99.4a7.8,7.8,0,0,0,.78,1.15A6.76,6.76,0,0,0,89.18,99.4ZM74.22,97a4.62,4.62,0,0,0-1.45.28c.59-.12,1.18-.2,1.72-.26Z" fill="#3b783a"/><path d="M75.06,87.25c3.15,0,6.7,2,9.08,7.14h0l0,.06h0c.31,0,7,.07,8.9,6,.73,2.23-.14,5.32-2.1,8.2-1-3.17-2.16-4.4-3-4.4-1.47,0-2,3.71.5,7.39a16.3,16.3,0,0,1-11.16,4.9A13.41,13.41,0,0,1,74,116.1a28.53,28.53,0,0,0,1-4.35c2.8-.72,3.9-3.26,2-3.26a4.84,4.84,0,0,0-1.76.44c.14-4-2.42-5.76-4.6-9.37,3-1.83,8.46-.41,6-3.1a3.15,3.15,0,0,0-2.4-1,9.79,9.79,0,0,0-4.85,1.84c-1.44-2.79-1.61-5.89.66-8a16.54,16.54,0,0,0,5.38,1.52c.8,0,1.4-.22,1.6-.82.39-1.18-1.36-2-3.22-2.6a7.59,7.59,0,0,1,1.27-.11m16.6,16.32a.64.64,0,0,0,.2,0c1.36-.4-1.14-6.11-3.25-6.11a1.22,1.22,0,0,0-.58.15c-2.11,1.2,2,6,3.63,6m-14.07,1.49c1.3,0,2.58-.93,2.37-2.12-.11-.59-.74-.83-1.49-.83-1.55,0-3.62,1-2.67,2.15a2.27,2.27,0,0,0,1.79.8m4.79,3.43c0,1.58,1.35,4.17,2.66,4.17-1.31,0-2.66-2.59-2.66-4.17,0-.68.26-1.18.88-1.18-.62,0-.88.5-.88,1.18m-1.31,6.2c1.63,0,1-2.38.06-3.41a.41.41,0,0,0-.3-.16c-.82,0-1.34,3.51.18,3.57h.06m-6-30.44h0a10.72,10.72,0,0,0-1.79.15,3,3,0,0,0-2.33,2,3.14,3.14,0,0,0-.91-.14,3,3,0,0,0-2,.82c-3.07,2.89-3.54,7.22-1.27,11.6a2.94,2.94,0,0,0,1,1.08,3,3,0,0,0,.42,1.35c.7,1.16,1.43,2.14,2.07,3,1.5,2,2.16,3,2.1,4.72a3.07,3.07,0,0,0,.24,1.28,3,3,0,0,0-.45,1.18,27.62,27.62,0,0,1-.92,3.84A3,3,0,0,0,73.22,119a16.21,16.21,0,0,0,4.09.52,19.2,19.2,0,0,0,13.25-5.74,3,3,0,0,0,.91-2.19,3,3,0,0,0,2-1.27c2.57-3.8,3.47-7.74,2.47-10.82-1.73-5.29-6.39-7.35-9.86-7.89-2.63-4.7-6.58-7.36-11-7.36Z" fill="#02513d"/></g></g></g></svg>