<svg xmlns="http://www.w3.org/2000/svg" xmlns:xlink="http://www.w3.org/1999/xlink" viewBox="0 0 104.9 120"><defs><clipPath id="clip-path"><path d="M4.3,71c1.3,2.3,1.8,2.3,1.8-.1-.3-11.7,3-18,10.5-21.7C6.9,57.9,7,72.9,13.4,80.6c.8.9,1.5,1,1.4-.4A32.3,32.3,0,0,1,16.6,66a26.6,26.6,0,0,0,4.5,21.5c1.4,1.8,1.8,1.8,1.5-.3-1-7.3.2-12.8,2.7-17-2.4,6.6-.2,14.4,3.9,18.2.7.7,1.4.7,1.2-.3-1.6-7.2-.7-13.4,3.3-17.6A17.6,17.6,0,0,0,33.1,85c.4.8,1,1,1.2.1,1.8-11.6,8.5-18.4,21.6-15.3,4.8,1.2,12.3,7.9,12.3,7.9.3-6.1-3.5-10.4-8.5-12.8l1.5-3a24.7,24.7,0,0,0-5.4-5.3l3.5-2.8c1.8-17.5-5.4-29.7-15.1-35.5C29.7,9.7,12.4,14.6,5.6,28.6c-.7,1.3-.7,2.5.6,1.2,7.9-7.9,21.5-11.5,31.9-3.6-14.9-6.3-33,2.3-36.6,17.3-.7,2.5-.3,2.8,1.3,1a49.4,49.4,0,0,1,5-4.5A27.2,27.2,0,0,0,4.3,71Zm53.6-6.9h0Z" style="fill:none"/></clipPath></defs><g id="Layer_2" data-name="Layer 2"><g id="Layer_1-2" data-name="Layer 1"><g id="na_chicken1"><path d="M45.2,62.4c9.6-1.1,23.6,3.7,23,15.3,0,0-7.5-6.7-12.3-7.9-13.1-3.1-19.8,3.7-21.6,15.3-.2.9-.8.7-1.2-.1C29.7,77.6,32.9,63.9,45.2,62.4Z" style="fill:#28575c"/><path d="M32.4,62.3c8.7-4.7,23.9-5.4,27.7,5.9,0,0-9.7-3.6-14.8-2.8C31.7,67.3,27.8,76.3,30.4,88.1c.2,1-.5,1-1.2.3C23.2,82.7,21.1,68.3,32.4,62.3Z" style="fill:#6ab3b9"/><path d="M36.9,50c8.9-.5,18.8,4.8,24.3,11.9l-1.7,3.4c-7.7-6.1-19.1-7.1-26.7-2.5S20.9,74.4,22.6,87.2c.3,2.1-.1,2.1-1.5.3C11.4,74.6,14.8,51.2,36.9,50Z" style="fill:#6ab3b9"/><path d="M20.7,46.3C31.2,40.4,49.2,44,51.8,57.2l-2.4,1.5c-3.6-4.1-15.3-7.5-24.4-2.2-7.4,4.4-11,11.8-10.2,23.7.1,1.4-.6,1.3-1.4.4C6.2,71.9,7,54,20.7,46.3Z" style="fill:#6ab3b9"/><path d="M29.6,31.7c10.2.6,19.4,9.9,24.3,18.9l-2.5,3.6c-7.7-8.2-19-9.9-28.8-7.2C10.9,50.2,5.7,56.4,6.1,70.9c0,2.4-.5,2.4-1.8.1C-4.9,54.4,5.6,30.2,29.6,31.7Z" style="fill:#6ab3b9"/><path d="M59.3,53.8l-5.8,4.7C52,42.3,45.6,32,38.2,26.3c-10.4-8.1-24.1-4.4-32,3.5-1.3,1.3-1.3.1-.6-1.2,6.8-14,24.1-18.9,38.6-10.3C53.9,24.1,61.1,36.3,59.3,53.8Z" style="fill:#6ab3b9"/><path d="M46.6,31.9c7.2,7.2,9,18.4,6.6,28.4l-4.2,1c-.3-11.2-7.7-22.1-17.3-25.4S12.9,33.8,2.8,44.5c-1.6,1.8-2,1.5-1.3-1C5.9,25.5,31.2,16.7,46.6,31.9Z" style="fill:#6ab3b9"/><g style="clip-path:url(#clip-path)"><path d="M2,47.8C6,37.2,20.1,32.4,30.7,35.2S49.6,49.1,51.3,60.6c.2.9-1.3,1.4-1.4.4-1.6-10.4-7.5-20.2-17.8-23.8S6.6,38.8,1.9,49.4C1.5,50.3,1.6,48.8,2,47.8Z" style="fill:#28575c"/><path d="M30,22.5A27.1,27.1,0,0,1,49.6,33.8c5.1,7.3,6,16.3,5.1,24.9-.2,1-1.7,1-1.5,0,.8-7.7.2-15.7-3.9-22.6S37.7,24.5,30,24C29,23.9,29,22.4,30,22.5Z" style="fill:#28575c"/><path d="M10.5,54.4a23.8,23.8,0,0,1,22.1-8.1c8,1.2,13.2,6.5,15.3,13.9.3.9-1.1,1.3-1.4.4-2.2-7.7-7.7-12.3-16-13a21.2,21.2,0,0,0-18.9,7.8C11,56.2,9.9,55.2,10.5,54.4Z" style="fill:#28575c"/><path d="M23,57.6c7.6-5.3,19-5.1,24.6,3.1.6.8-.7,1.5-1.3.7-5.3-7.7-17.2-7.3-23.8-1.5S16,76.6,16.8,84.7c.1,1-1.3,1.3-1.4.4C14.4,75.7,14.2,63.8,23,57.6Z" style="fill:#28575c"/><path d="M28,66.2c4.3-5.1,13.5-8.5,19.2-3.8.8.6-.3,1.7-1,1.1-6.1-5.1-15.5.6-18.8,6.2a27.6,27.6,0,0,0-3.4,10l-1.3-1.6A25.7,25.7,0,0,1,28,66.2Z" style="fill:#28575c"/></g><path d="M59.7,64.9l1.5-3a24.7,24.7,0,0,0-5.4-5.3l3.5-2.8c1.8-17.5-5.4-29.7-15.1-35.5C29.7,9.7,12.4,14.6,5.6,28.6c-.7,1.3-.7,2.5.6,1.2,7.9-7.9,21.6-11.6,31.9-3.6-14.8-6.3-33,2.3-36.6,17.3-.7,2.5-.3,2.8,1.3,1a42.4,42.4,0,0,1,5.1-4.6A27.2,27.2,0,0,0,4.3,71c1.3,2.3,1.8,2.3,1.8-.1-.3-11.7,3-18,10.5-21.7C6.9,57.9,7,72.9,13.4,80.6c.8.9,1.5,1,1.4-.4A32.3,32.3,0,0,1,16.6,66a26.6,26.6,0,0,0,4.5,21.5c1.4,1.8,1.8,1.8,1.5-.3-1-7.3.2-12.8,2.7-16.9-2.4,6.5-.2,14.3,3.9,18.1.7.7,1.4.7,1.2-.3-1.6-7.2-.7-13.4,3.3-17.6A17.6,17.6,0,0,0,33.1,85c.4.8,1,1,1.2.1,1.8-11.6,8.5-18.4,21.6-15.3,4.8,1.2,12.3,7.9,12.3,7.9C68.5,71.6,64.7,67.3,59.7,64.9Zm-2-.9Z" style="fill:none;stroke:#28575c;stroke-linecap:round;stroke-linejoin:round;stroke-width:2px"/><path d="M90.4,115.7a3.2,3.2,0,0,1-2.1-1,12.1,12.1,0,0,0-5.1-3,6.8,6.8,0,0,0-2.1-.2H77.4a1.5,1.5,0,0,1-1.6-1.1,2,2,0,0,1,1.1-2.1,11.9,11.9,0,0,1,3.5-1.5v-.2c-1.1-2.2-4.2-6.9-4.3-7a.9.9,0,0,1,0-1,.8.8,0,0,1,.8-.5l4-.4h.1a1.1,1.1,0,0,1,1,.7c1.8,4.9,3.2,7.1,3.6,7.3l2.3.4c2.4.4,4.9.8,7.2,4a1.9,1.9,0,0,1,.4,1.9,1.2,1.2,0,0,1-1.2.7h0a4.3,4.3,0,0,1-1.4-.4L92,112l-1.2-.5a10.1,10.1,0,0,1,.7,1.5,2.8,2.8,0,0,1,0,2.2A1.6,1.6,0,0,1,90.4,115.7Z" style="fill:#ffc457"/><path d="M80.9,98.8c1.3,3.4,3.1,7.6,4.3,7.9,3.4.9,6.3.3,9,4.1.5.7.4,1,0,1l-1-.3c-1.3-.6-3.5-1.8-4.8-1.9a14.5,14.5,0,0,1,2.1,3.7c.4,1,.2,1.4-.1,1.4A2.6,2.6,0,0,1,89,114a12.6,12.6,0,0,0-5.5-3.2,6.6,6.6,0,0,0-2.4-.3l-3.6.2h-.1c-.9,0-.9-.7,0-1.4a17.3,17.3,0,0,1,3.4-1.4c.6-.2.8-.8.4-1.6s-4.3-7-4.3-7l4-.5m0-2h-.2l-4,.4a1.9,1.9,0,0,0-1.6,1.1,2,2,0,0,0,.1,2s2.5,3.7,3.8,6a11.3,11.3,0,0,0-2.7,1.3c-1.5,1-1.8,2.3-1.5,3.2a2.5,2.5,0,0,0,2.6,1.8h3.7a5.8,5.8,0,0,1,1.9.2,12,12,0,0,1,4.7,2.8,4.5,4.5,0,0,0,2.7,1.2,2.5,2.5,0,0,0,1.9-.9,3,3,0,0,0,.3-2.4,5.3,5.3,0,0,0,1.6.4,2.3,2.3,0,0,0,2.1-1.3,2.6,2.6,0,0,0-.5-2.9c-2.5-3.5-5.3-4-7.9-4.4l-1.9-.3a28.7,28.7,0,0,1-3.2-6.7,2,2,0,0,0-1.9-1.4Z" style="fill:#ce894a"/><path d="M70.7,119a2.6,2.6,0,0,1-2-1.4c-3-4-4.1-4.2-6.7-4.6l-1.4-.2c-1.3-.3-1.6-.9-1.6-1.4s.3-1.3,1.9-1.8l1.2-.3,1-.3h.1v-.2a56.8,56.8,0,0,0-3.4-7.4,1.2,1.2,0,0,1,.1-1,1,1,0,0,1,.8-.5h4.7a1.1,1.1,0,0,1,1,.8c.7,4.3,2.1,7.6,2.6,8l.9.2c1.9.5,4.9,1.3,6.8,4.4a1.7,1.7,0,0,1,.2,1.8,1.4,1.4,0,0,1-1.3.7h0a2.5,2.5,0,0,1-1.3-.4l-.5-.2a8.4,8.4,0,0,0-1.9-.9,7.8,7.8,0,0,1,.4,2.2,3.1,3.1,0,0,1-.5,2.1A1.8,1.8,0,0,1,70.7,119Z" style="fill:#ffc457"/><path d="M65.3,100.9c.7,3.8,2.1,8.3,3.3,8.7s5.2.9,7.1,4.2c.5.7.3,1-.2,1l-.9-.3c-1.2-.6-2.9-1.6-4.3-1.6a12.4,12.4,0,0,1,.9,3.7c0,1-.2,1.4-.5,1.4s-.8-.4-1.2-1c-3.7-5-5-4.5-8.7-5.2-1.4-.3-.8-.9.4-1.3l2.2-.5c.7-.2.9-.7.7-1.5s-3.5-7.6-3.5-7.6h4.7m0-2H60.6a2.1,2.1,0,0,0-1.7,1,1.9,1.9,0,0,0,0,1.9c.6,1.3,2.2,4.5,3,6.5l-1.2.3c-2.5.7-2.7,2.1-2.7,2.9s.3,1.9,2.4,2.3l1.4.2c2.5.4,3.4.5,6.1,4.2a3.5,3.5,0,0,0,2.8,1.8,2.5,2.5,0,0,0,1.7-.8,3.6,3.6,0,0,0,.8-2.7V116h.1l.4.2a4.8,4.8,0,0,0,1.8.5,2.5,2.5,0,0,0,2.2-1.2,3,3,0,0,0-.2-2.9c-2.1-3.4-5.5-4.3-7.5-4.8h-.5a24.5,24.5,0,0,1-2.2-7.2,2,2,0,0,0-2-1.7Z" style="fill:#ce894a"/><path d="M45.4,53.9c1.5-.9,5.9-1.5,9.4-.1-1.1-.4-3.2-2.5-.3-2.5A11.3,11.3,0,0,1,61,53.5c-.2-1.3,2.3-.9,3.6,4L41.1,73.2c-1.8,8-3.9,4.2-4.1,1.7-.8-7.3,2.4-14.6,9.7-17.2C42.6,57.1,41.9,55.7,45.4,53.9Z" style="fill:#ffaa5a;stroke:#ff8d3d;stroke-linecap:round;stroke-linejoin:round;stroke-width:2px"/><path d="M100.8,62.3C104.1,78,99.9,90.4,84.1,98c-.3,1.4-.5,2.7-4.6,3.4s-4.4-.6-4.7-2.1c0,0-2.4.2-5,.2-.7,1.8-2.3,2.9-6.4,2.6s-5.3-1.7-5.5-3.5c-5.1-2-15.3-8.1-15.9-19.5L70.1,54.2C84.5,49.2,94.8,51.8,100.8,62.3Z" style="fill:#3b7e82"/><path d="M54.5,51.3A11.3,11.3,0,0,1,61,53.5c0-.4.1-.6.5-.6s2.2,1.2,3.1,4.6v1.6l5.5-4.9a40.6,40.6,0,0,1,12.8-2.5c7.9,0,13.9,3.5,17.9,10.6C104.1,78,99.9,90.4,84.1,98c-.3,1.4-.5,2.7-4.6,3.4l-1.4.2c-2.1,0-3.1-1-3.3-2.3s-2.4.2-5,.2c-.6,1.6-2,2.6-5.2,2.6H63.4c-4.2-.3-5.3-1.7-5.5-3.5-5.1-2-15.3-8.1-15.9-19.5l5.1-4.4-6-1.5c-.8,3.6-1.7,4.8-2.4,4.8s-1.6-1.7-1.7-3.1c-.8-7.3,2.4-14.6,9.7-17.2-4.1-.6-4.8-2-1.3-3.8a10.7,10.7,0,0,1,4.8-.9,14.1,14.1,0,0,1,4.5.7h0c-1.2-.5-3-2.4-.2-2.4m0-2c-2.1,0-2.9,1-3.2,1.7H50.2a13.3,13.3,0,0,0-5.8,1.1c-.9.5-3.6,2-3.2,4.4A2.8,2.8,0,0,0,42,58c-5.1,3.6-7.8,10-7,17.1.2,1.8,1.2,4.9,3.7,4.9a2.3,2.3,0,0,0,1.4-.4c.7,10.3,8.8,17.3,16.1,20.5,1.1,3.2,4.5,3.8,7.1,4h1.3c3.1,0,5.2-.8,6.4-2.6h2.5a5.3,5.3,0,0,0,4.6,2.2l1.8-.2c3.8-.7,5.2-2,5.9-4,14.9-7.5,20.6-20.1,17-37.5a1.4,1.4,0,0,0-.2-.6c-4.4-7.7-11.1-11.6-19.7-11.6a42.1,42.1,0,0,0-13.5,2.6l-.7.4-2.8,2.5c-1.2-3.2-3-4.3-4.4-4.3h-.8a12.9,12.9,0,0,0-6.2-1.7ZM42.4,76.2c0-.2.1-.4.1-.6h.4l-.5.5Z" style="fill:#28575c"/><path d="M52.9,81.9c7.3,1.9,15.2,2,22-1.4,2.4-1.2,3.2-.3.5,1.2-7.2,3.9-15.2,3.7-22.8,1.6C51.7,83.1,52,81.6,52.9,81.9Z" style="fill:#133a3a"/><path d="M40.9,70.1c-.2-5.3,16.6-14.3,32-13.8L82,74c-4.5,6.5-24.2,15.4-37.3,7.9-2.3-1.4-3.4-2.9-3.8-4.5C36.7,75.3,38,72,40.9,70.1Z" style="fill:#ffeb81"/><path d="M41.6,79.1a6.1,6.1,0,0,1-.7-1.7c7.3,1.6,14.9,1,22.4.3a.8.8,0,0,1,.2,1.5C56.2,79.9,48.8,80.4,41.6,79.1Z" style="fill:#ffc457"/><path d="M59.7,67.3a70.3,70.3,0,0,1-20.6,4.4,6.6,6.6,0,0,1,1.7-1.6,64.1,64.1,0,0,0,18.3-4.2A.8.8,0,0,1,59.7,67.3Z" style="fill:#ffc457"/><path d="M61.8,57a44.1,44.1,0,0,1,12-1.2L83,73.9c-2,2.9-10.1,9.8-19.4,9.1-6-.4-8.8-2.8-7.3-5-11.5-2.1-10.6-9.9-4.7-12.8C49.2,63,52.3,59.3,61.8,57Z" style="fill:#3b7e82"/><path d="M73.8,55.8a44.1,44.1,0,0,0-12,1.2,30.2,30.2,0,0,0-7.1,2.5c-8.1,3-14,7.5-13.8,10.6-2.9,1.9-4.2,5.2,0,7.3.4,1.6,1.5,3.1,3.8,4.5,7,4,15.8,3.4,23.2.9S81.3,76.4,83,73.9" style="fill:none;stroke:#28575c;stroke-linecap:round;stroke-linejoin:round;stroke-width:2px"/><path d="M95.4,31.4c.3,12.9,4.5,22.3,6.7,28.7,1.5,4.3-.6,6.2-4.3.4,2.4,11.3-2.2,10.6-5.9,3.9,0,9.7-4.3,8.4-6.9,0-1.9,9.4-6.6,8.6-7.3-1-4.5,8.7-7.8,6.1-5.5-3.2-2.7,2.7-4.5,2.8-5.2,1.9s.2-3.6,1.7-6.7c5.7-11.6,1.9-30.2,12.5-37.8C86.7,11,101.3,15.5,95.4,31.4Z" style="fill:#ffc457;stroke:#ffaa5a;stroke-linecap:round;stroke-linejoin:round;stroke-width:2px"/><path d="M87.6,22.6c2.5.3,1.6,5.3-.7,4.9S84.9,22.3,87.6,22.6Z" style="fill:#462619"/><path d="M83.9,27.6c-.6,2.3-4.9.9-4-1.6S84.5,25.1,83.9,27.6Z" style="fill:#ffaa5a;stroke:#ff8d3d;stroke-linecap:round;stroke-linejoin:round;stroke-width:2px"/><path d="M94.5,26.1c-.3-7.9-5.2-8.8-11.4-8.1-2.2.3-4.4,1.2-8.8-2.5s-3.9-8.6,2.1-7.8c-4.5-6,1.5-8,6.3-2.9-2.5-5,3.8-5.2,6.9.2-.8-4.2,6.3-3.4,10,2.5s1,14.6.3,19l-1.7,3.1c4.7,7.4,3.9,12.6,3.1,14s-3.2,1.9-4.1.2c-2.4,2.3-4.9,2.1-6.4.5S88.1,34.7,94.5,26.1Z" style="fill:#8b2d34;stroke:#5c1612;stroke-linecap:round;stroke-linejoin:round;stroke-width:2px"/><path d="M100,25.5c2,1.3,4.4,5.5,3.8,6s-3.4-.1-7.5-.9c-2.5-.5-2.3-2-.1-3.2S98.7,24.7,100,25.5Z" style="fill:#ffaa5a;stroke:#ff8d3d;stroke-miterlimit:10;stroke-width:2px"/><path d="M86.9,29.1A4.1,4.1,0,1,1,91,25a4.1,4.1,0,0,1-4.1,4.1Z" style="fill:#fecf72"/><path d="M86.9,21.3a3.9,3.9,0,0,1,2.7,1.1,3.7,3.7,0,0,1,0,5.3h0a3.7,3.7,0,1,1-5.3-5.3,3.6,3.6,0,0,1,2.6-1.1m0-.7a4.5,4.5,0,0,0,0,8.9,4.5,4.5,0,0,0,0-8.9Z" style="fill:#fff"/><circle cx="86.9" cy="25.1" r="2.4" style="fill:#424242"/><circle cx="85.6" cy="24.3" r="0.6" style="fill:#fcfcfc"/></g></g></g></svg>