<svg xmlns="http://www.w3.org/2000/svg" width="202.82" height="202.69" viewBox="0 0 202.82 202.69"><g id="Layer_2" data-name="Layer 2"><g id="Layer_1-2" data-name="Layer 1"><g id="fu_straw_crate1"><polygon points="15.34 100.03 28.32 154.63 176.14 154.63 187.31 100.03 15.34 100.03" fill="#ffaa5a"/><path d="M192.23,95.69H10.44L22.9,156.63v.81a7,7,0,0,0,7,7H172.79a7,7,0,0,0,7-7v-.81h0ZM181.45,108l-2.39,11.7H150.42L152.2,108Zm-37,0-1.81,11.7H105.5V108Zm-39,23.82h35.28l-1.94,12.45H105.5Zm-8.33,12.45H63.83l-1.94-12.45H97.17Zm0-36.27v11.7H60L58.19,108Zm-46.7,0,1.78,11.7H23.61L21.22,108ZM26.08,131.84h28L56,144.29H28.63Zm148,12.45H146.68l1.89-12.45h28Z" fill="#924f28" stroke="#6a3417" stroke-miterlimit="10" stroke-width="3"/><polygon points="41.39 179.67 27.21 176.93 28.72 172.27 41.8 178.39 41.39 179.67" fill="#924f28"/><polygon points="43.07 177.6 41.29 163.27 46.19 163.27 44.41 177.6 43.07 177.6" fill="#924f28"/><polygon points="45.56 178.56 58.64 172.44 60.15 177.1 45.98 179.84 45.56 178.56" fill="#924f28"/><polygon points="45.42 181.22 55.28 191.77 51.32 194.65 44.33 182.01 45.42 181.22" fill="#924f28"/><polygon points="42.84 181.91 35.85 194.55 31.89 191.67 41.75 181.12 42.84 181.91" fill="#924f28"/><path d="M64.18,173.72c-.12-.41-.25-.81-.4-1.21a21.44,21.44,0,0,0-7-9.65h0a19.1,19.1,0,0,0-1.8-1.24,21.18,21.18,0,0,0-10-3.17l-.7,0h-.63a21.05,21.05,0,0,0-7.39,1.32c-.38.14-.76.28-1.12.45A21.19,21.19,0,0,0,29.27,164h0c-.28.25-.54.51-.8.77a21.28,21.28,0,0,0-6,12.2h0c-.08.59-.14,1.18-.17,1.78,0,.36,0,.72,0,1.09s0,.91,0,1.35.05.66.08,1a22.44,22.44,0,0,0,.65,3.4c.06.19.11.39.17.58a19.92,19.92,0,0,0,.78,2.12c.08.19.17.39.26.57a18.31,18.31,0,0,0,.85,1.65l.22.38a21.68,21.68,0,0,0,3.88,4.74h0l.77.68h0a21.11,21.11,0,0,0,2.85,2c.34.2.68.39,1,.57s.87.43,1.32.62h0c.39.18.79.33,1.19.48a21.43,21.43,0,0,0,5.09,1.16c.33,0,.66.06,1,.07s.67,0,1,0h.37c.5,0,1,0,1.49-.06l.5,0,.4,0,.49-.07a21.36,21.36,0,0,0,13.49-7.61c.33-.4.65-.83,1-1.26a21.32,21.32,0,0,0,2.17-3.88c.19-.45.38-.92.54-1.39a22.23,22.23,0,0,0,1-4.26c0-.36.08-.74.11-1.11,0-.55.06-1.11.06-1.67A21.36,21.36,0,0,0,64.18,173.72ZM49.37,192.23a13.44,13.44,0,0,1-4.29,1.17l-.66.06-.77,0a13.66,13.66,0,0,1-4.72-.84,9.35,9.35,0,0,1-.92-.38h0a13.74,13.74,0,0,1-7.54-8.82h0a11.78,11.78,0,0,1-.29-1.31,12.55,12.55,0,0,1-.2-2.22v-.12c0-.31,0-.61,0-.91a13.54,13.54,0,0,1,2.07-6.38A13.79,13.79,0,0,1,38.66,167c.36-.14.72-.26,1.09-.37a15.14,15.14,0,0,1,1.48-.35,13,13,0,0,1,2-.21h.43a13.49,13.49,0,0,1,2.93.32,11.66,11.66,0,0,1,1.16.31h0a13.68,13.68,0,0,1,9.55,12h0c0,.32,0,.65,0,1v.07a13.72,13.72,0,0,1-.87,4.81,12.26,12.26,0,0,1-.56,1.29A13.67,13.67,0,0,1,54.64,188c-.12.17-.25.33-.38.49A14.26,14.26,0,0,1,53,189.78c-.13.13-.28.26-.42.38a12.94,12.94,0,0,1-1.69,1.25h0A14,14,0,0,1,49.37,192.23Z" fill="#924f28" stroke="#6a3417" stroke-miterlimit="10" stroke-width="3"/><path d="M49.13,179.79A5.48,5.48,0,0,1,45.46,185a4,4,0,0,1-.68.19,5.29,5.29,0,0,1-1.13.12,5.19,5.19,0,0,1-1.48-.21L41.8,185a5.47,5.47,0,0,1-3-2.7,3.39,3.39,0,0,1-.18-.39,5.31,5.31,0,0,1-.41-2.07,5.48,5.48,0,0,1,4.51-5.39,4.58,4.58,0,0,1,.83-.08h.13a5.37,5.37,0,0,1,2.13.43,4.67,4.67,0,0,1,.67.34,5.41,5.41,0,0,1,2.41,3,4.53,4.53,0,0,1,.21.9A5.12,5.12,0,0,1,49.13,179.79Z" fill="#924f28" stroke="#6a3417" stroke-miterlimit="10" stroke-width="3"/><polygon points="157.54 178.59 146.43 169.38 149.99 166.02 158.52 177.67 157.54 178.59" fill="#924f28"/><polygon points="160.01 177.58 165.34 164.16 169.64 166.51 161.19 178.23 160.01 177.58" fill="#924f28"/><polygon points="161.74 179.62 176.15 180.54 175.24 185.35 161.49 180.94 161.74 179.62" fill="#924f28"/><polygon points="160.34 181.89 163.91 195.88 159.05 196.5 159 182.06 160.34 181.89" fill="#924f28"/><polygon points="157.74 181.26 145.54 188.98 143.45 184.55 157.17 180.04 157.74 181.26" fill="#924f28"/><path d="M179.08,171.22v0a19.33,19.33,0,0,0-1-1.93h0a21.06,21.06,0,0,0-7.2-7.56c-.19-.13-.4-.25-.6-.37l-.54-.31a21.33,21.33,0,0,0-7.13-2.4h0c-.4-.06-.79-.11-1.19-.14a21.16,21.16,0,0,0-7,.51c-.36.08-.73.18-1.08.28a21.37,21.37,0,0,0-11.13,7.8c-.35.48-.68,1-1,1.48-.2.31-.38.63-.56.95s-.42.8-.61,1.21h0l-.39.89h0a20.55,20.55,0,0,0-1.06,3.28c0,.2-.09.39-.13.59a19.25,19.25,0,0,0-.34,2.24c0,.21,0,.42,0,.62,0,.63-.05,1.24,0,1.86,0,.15,0,.3,0,.45a22,22,0,0,0,1.12,6c.11.33.23.65.36,1h0a21.13,21.13,0,0,0,1.54,3.13c.2.34.41.67.63,1s.56.8.86,1.18.53.67.81,1a21.29,21.29,0,0,0,3.91,3.46q.41.28.84.54a8.44,8.44,0,0,0,.86.51,1,1,0,0,0,.17.1l.16.09c.44.24.89.46,1.34.66l.46.2.37.15c.15.07.3.12.46.18a21.4,21.4,0,0,0,15.48-.19c.49-.2,1-.41,1.44-.64a21.44,21.44,0,0,0,3.77-2.36c.4-.31.78-.63,1.15-1a21.09,21.09,0,0,0,2.92-3.25c.22-.29.43-.6.63-.91s.6-.94.87-1.44a21.63,21.63,0,0,0,2.15-5.74c.09-.42.17-.84.23-1.26A21.41,21.41,0,0,0,179.08,171.22Zm-20.57,22.22h0a13.61,13.61,0,0,1-4.33-1c-.2-.09-.4-.17-.6-.27l-.68-.35a13.73,13.73,0,0,1-3.75-3c-.22-.25-.42-.51-.62-.77a13.7,13.7,0,0,1-2.38-11.35h0a11.82,11.82,0,0,1,.37-1.29h0a13.72,13.72,0,0,1,.9-2.05h0a.31.31,0,0,1,.05-.1c.15-.27.3-.53.47-.79a13.61,13.61,0,0,1,4.87-4.59h0a13.38,13.38,0,0,1,3.2-1.28h0a13.52,13.52,0,0,1,5.19-.33c.38,0,.76.11,1.14.19a12.69,12.69,0,0,1,1.46.41,12.91,12.91,0,0,1,1.85.77l.38.2a13.57,13.57,0,0,1,2.42,1.69c.3.26.59.53.87.82A13.71,13.71,0,0,1,172,185.42c-.14.3-.28.59-.44.88h0l0,.06a13.86,13.86,0,0,1-3.08,3.8,11.48,11.48,0,0,1-1.12.86,13.58,13.58,0,0,1-2.1,1.2l-.58.25a11.9,11.9,0,0,1-1.72.56l-.55.13a12.1,12.1,0,0,1-2.08.28h0A11.23,11.23,0,0,1,158.51,193.44Z" fill="#924f28" stroke="#6a3417" stroke-miterlimit="10" stroke-width="3"/><path d="M164.85,180.81a5,5,0,0,1-.25.9,6.43,6.43,0,0,1-.32.71,5.49,5.49,0,0,1-5.72,2.77,5.58,5.58,0,0,1-.68-.16,5.49,5.49,0,0,1-1-.44,5.67,5.67,0,0,1-1.2-.89l-.27-.28a5.52,5.52,0,0,1-1.36-3.83c0-.14,0-.28,0-.42a5.6,5.6,0,0,1,.64-2,5.5,5.5,0,0,1,6.55-2.55,4.25,4.25,0,0,1,.77.33l.12,0a5.56,5.56,0,0,1,1.66,1.41,6,6,0,0,1,.42.61A5.44,5.44,0,0,1,164.85,180.81Z" fill="#924f28" stroke="#6a3417" stroke-miterlimit="10" stroke-width="3"/><path d="M195.79,72.81c15.48,11.89-8.88-15.46,1.84-8.52,1.53.57-2.66-8.26-13.88-13.58,6.38,2,8.58,1.79,5.3-2.58-.42,0-.84,0-1.27-.06-2.53-.25-4.92-1.32-7.45-1.56-4.62-.46-6.65,10.11-9.61,13.85-1.81-1.16-6-9.56-7.14-11.4a20,20,0,0,1-2.44,3.11,12.13,12.13,0,0,1-3.51,2.43,5.86,5.86,0,0,1-6.28-1.28c-1.07-1.06-1.66-2.49-2.7-3.58s-3.48-2.1-4.74-.64a4.08,4.08,0,0,0-.74,2.25c-.25,2.13-.51,4.25-.76,6.38-2.68-4.09-10-3.54-12,.91-.38-2-3-2.65-4.91-2.12s-3.61,1.82-5.57,2.24c-5.5,1.19-9.82-4.48-12.56-9.39a21.77,21.77,0,0,1-4.44,6.41c-2,1.73-4.79,2.72-7.23,1.8A11,11,0,0,1,92,54.67a8.48,8.48,0,0,1-2.75-4.75c-2.86,4.55-8.09,11.75-11.68,12.5.83-2.88-1.38-6-4.22-7s-6-.16-8.66,1.26a19.67,19.67,0,0,0-7.54,7.17c-2.88-5-13.45-2-16.47,2.88-2.59-2.43.13-11.06-3.37-11.67-2.74-.49-5,1.24-7.63.44.26-2.51.33-3.23.58-5.74a1.92,1.92,0,0,0-.36-1.68,1.88,1.88,0,0,0-1.44-.26l-10,.84c-5.09,2.66-7.85,4.9,5.17,3.79C11.27,57-7.22,81,10.6,74.58a2.16,2.16,0,0,1,.66-.23l-.66.23C6.94,76.37-5.85,88,5.22,85.72-2.64,99-1.37,102.88,7.33,97.1,3.69,110.42,9.51,98.33,15.48,96c1.74,5.23,2.07,11.45,7.16,3,3,4.2,23.34,17.06,12.33-.44,11,4.36,10.91,14.05,20.61.89,3,11.79,18.41-8.26,17.72,6.44,2.62-15.87,29,3.93,16.89-8.37C109.78,111.92,96,93,115,107.31c.78-4-1.37-6.27-3.77-8.15,10-3.45,15.28,9.92,21.53,1.09C135.07,111,138,105,143,99.69c8.27,3.29,15.1,5.85,25-.38-2.94,12.12,1,.09,7.44.07,7,3.73,10.89,10.81,9.3-2,18.7,16.08,2.86-9,18.1,3.07C192.39,82.76,205.76,91,195.79,72.81Z" fill="#fdd168"/><path d="M29.89,48.11a1.92,1.92,0,0,1,.36,1.68c-.25,2.51-.32,3.23-.58,5.74,2.66.8,4.89-.93,7.63-.44,3.5.61.78,9.24,3.37,11.67,3-4.86,13.59-7.83,16.47-2.88a19.67,19.67,0,0,1,7.54-7.17c2.64-1.42,5.81-2.21,8.66-1.26s5,4.09,4.22,7c3.59-.75,8.82-8,11.68-12.5A8.48,8.48,0,0,0,92,54.67a11,11,0,0,0,3.7,2.81c2.44.92,5.28-.07,7.23-1.8a21.77,21.77,0,0,0,4.44-6.41c2.74,4.91,7.06,10.58,12.56,9.39,2-.42,3.64-1.71,5.57-2.24s4.53.15,4.91,2.12c2-4.45,9.33-5,12-.91.25-2.13.51-4.25.76-6.38a4.08,4.08,0,0,1,.74-2.25c1.26-1.46,3.63-.52,4.74.64s1.63,2.52,2.7,3.58a5.86,5.86,0,0,0,6.28,1.28,12.13,12.13,0,0,0,3.51-2.43A20,20,0,0,0,163.58,49c1.11,1.84,5.33,10.24,7.14,11.4,3-3.74,5-14.31,9.61-13.85,2.53.24,4.92,1.31,7.45,1.56.43,0,.85.06,1.27.06-.31-.42-.65-.86-1.07-1.35-2.77-3.59-9.84-7-13-8,21.24-.76-30.21-8.3-5.05-11-6-2.89-29.09-.83-12.83-5.05-9.58-6.14-18.46-.71-3.14-7.29,2-4.87-37.49.77-22.73-7.48l.37-.36c-38.48,6.93-5,4.68-36.36-7.59,1.09,1.75,2,3.44,1.9,4.36C99.65,9,91.31,6,79.87,6.35l.3.33L79,6.38A41.5,41.5,0,0,0,58.75,12.2c26.42,5.55-43.88,4.52-11.58,13.34-8.62.71-27.59,9.7-7.66,8.7-8.66,1.25-15.44,2.81-20.8,8.59,17.86-2.12,6.68,2.26-.23,5.86l10-.84A1.88,1.88,0,0,1,29.89,48.11Z" fill="#ffdb82"/><path d="M96.54,86.39a8.49,8.49,0,0,1-1.78,5.18,4.71,4.71,0,0,1-3.63,2.28c-.66,0-.93-.7-.81-1.22a10,10,0,0,1,.73-2.09c-1.3.87-3.27,2.16-3.55,2.33A15.74,15.74,0,0,1,82.23,95c-1.19.21-3.64-.18-2.8-2a2.51,2.51,0,0,1,1.71-1.19,39.33,39.33,0,0,1-4.22-.61.82.82,0,0,1-.26-1.39,7.33,7.33,0,0,1-2.58-1.93c-.5-.61.32-1.63,1-1.07a11.15,11.15,0,0,0,3.32,2.15.73.73,0,0,1,.47.81c1.67.22,3.34.57,5,.79a.8.8,0,0,1,.68,1C84.08,92.77,83,92.9,82,93.19l.33,0a11.54,11.54,0,0,0,2.56-.87,38.43,38.43,0,0,0,4.43-2.58c1-.64,3.07-2.48,4.12-1a.84.84,0,0,1,0,1,7.27,7.27,0,0,0-.95,1.72c1.48-1.2,2-3.75,2.91-5.24A.63.63,0,0,1,96.54,86.39Z" fill="#ffaa5a"/><path d="M16.88,77a28.42,28.42,0,0,0-7.24,9.63c-.35.75.74,1.41,1.12.66A30,30,0,0,1,18,78.09C18.68,77.46,17.61,76.4,16.88,77Z" fill="#ffaa5a"/><path d="M19.35,77A74.8,74.8,0,0,0,9.71,92.68c-.34.79.77,1.49,1.18.69a99.58,99.58,0,0,1,9.57-15.55C21,77.19,19.84,76.32,19.35,77Z" fill="#ffaa5a"/><path d="M23.78,78.79a50.28,50.28,0,0,0-7.44,9.51c-.43.75.66,1.36,1.15.67a74.9,74.9,0,0,1,7.26-9.2C25.37,79.13,24.4,78.15,23.78,78.79Z" fill="#ffaa5a"/><path d="M26.41,81.79c-.8,1.6-1.6,3.19-2.31,4.83-.33.77.71,1.44,1.15.68.89-1.55,1.69-3.14,2.5-4.73C28.2,81.68,26.85,80.89,26.41,81.79Z" fill="#ffaa5a"/><path d="M184.52,82.7c-1-2.41-2.09-4.77-3.17-7.14-.37-.81-1.59-.13-1.22.68,1.08,2.37,2.12,4.75,3.29,7.07C183.79,84.06,184.82,83.43,184.52,82.7Z" fill="#ffaa5a"/><path d="M183.07,71.39c-.55-.67-1.51.27-1,.93A53.22,53.22,0,0,1,190,86.15c.27.67,1.42.23,1.19-.46A45.24,45.24,0,0,0,183.07,71.39Z" fill="#ffaa5a"/><path d="M194.51,79a18,18,0,0,0-4.11-5.77c-.64-.6-1.62.34-1,1a19.6,19.6,0,0,1,4,5.43C193.79,80.31,194.84,79.7,194.51,79Z" fill="#ffaa5a"/><path d="M196.53,58.38c-4.93-4.17-11.25-6.86-17.45-8.46-1.05-.28-1.34,1.38-.29,1.65,6.16,1.6,11.5,4.49,16.8,8C196.37,60,197.28,59,196.53,58.38Z" fill="#ffaa5a"/><path d="M193.06,47.21a86.49,86.49,0,0,0-19.84-5,.74.74,0,0,0-.25,1.45,137.69,137.69,0,0,1,19.68,4.89C193.4,48.76,193.78,47.5,193.06,47.21Z" fill="#ffaa5a"/><path d="M185.62,40.46a43,43,0,0,0-9.32-2c-1.11-.11-1.42,1.6-.3,1.71a73.78,73.78,0,0,1,9.2,1.61C186,42,186.4,40.72,185.62,40.46Z" fill="#ffaa5a"/><path d="M23.87,46.87a101,101,0,0,0-15,5.37c-.77.35-.38,1.6.44,1.28a137.86,137.86,0,0,1,15.11-5C25.5,48.22,24.94,46.57,23.87,46.87Z" fill="#ffaa5a"/><path d="M23.08,50.27A32.32,32.32,0,0,0,8.56,58.11c-.57.56.25,1.62.91,1.11a38.21,38.21,0,0,1,14.08-7.4C24.56,51.56,24.09,50,23.08,50.27Z" fill="#ffaa5a"/><path d="M21.22,55.93A26.38,26.38,0,0,0,16.5,59a.7.7,0,0,0,.87,1.09,47,47,0,0,1,4.51-2.73C22.8,56.93,22.14,55.44,21.22,55.93Z" fill="#ffaa5a"/></g></g></g></svg>