<svg xmlns="http://www.w3.org/2000/svg" xmlns:xlink="http://www.w3.org/1999/xlink" width="283.15" height="403.67" viewBox="0 0 283.15 403.67"><defs><clipPath id="clip-path"><path d="M2.5,220.22c-6.8-20.67,21.85-28.78,36.7-25.89-14-47.79,55-67.68,66.65-17.1C156.57,158,149,230,92.32,208.64c1.53,26-35.25,26-49,12.76-5.82,20.82-31.06,17.68-40,.64h0C3,221.43,2.73,220.84,2.5,220.22Z" fill="none"/></clipPath><clipPath id="clip-path-2"><path d="M116,39.63c14.74-5.69,29.91-1.14,44.27,5.06C139.81,13,196-7.4,214.38,19.66c15.08-37.48,84.1-13.27,39.32,39.08,10.73,12.25-.5,21.19-14.3,24.77-18.89,5.1-37.28.51-53.62-9.2,29.32,48.36-29.22,45.36-45.46,6.64C114.65,126.56,67.9,56.85,116,39.63Z" fill="none"/></clipPath><clipPath id="clip-path-3"><path d="M64.41,130.18c-30-40.42,13.28-45.48,44.25-40,4.56-11.21,16-20.29,28.52-18.45,36.54,4.83,26.52,37.34,20,44,34,5.26,28.62,48-6.13,29.11,2.55,9.2-7.66,14.3-15.32,12.77-11.24-2-21.45-13.28-24-24.51C106.78,164.86,76.79,147.41,64.41,130.18Z" fill="none"/></clipPath></defs><g id="Layer_2" data-name="Layer 2"><g id="Layer_1-2" data-name="Layer 1"><g id="na_tree_1" data-name="na_tree 1"><path d="M85,382.91c5.54-20.55-3.94-51.06,20-61.81,25.95-9.64,44.87-30.52,60.56-53.07,8.74-15-1.25-25.59-12.49-35.58-6.24,6.86-12.49,11.23-22.47,11.23-5,0-14.36.63-19.36-2.49-5.62-3.12-6.87-11.24-10.61-16.24-14.53-16.14-26.79-5.45-33.72-35l5,.62C77.7,204.1,78.05,212,95.6,211.84c-3.74-10-6.86-18.73-11.24-28.72L90,184.37c14.37,56.41,40.4,72.1,66.81,10.61,10.61-27.47-8.12-42.45-26.85-59.93l6.25-1.88c6.86,7.5,13.11,16.86,20,25,5-5.62,3.13-20,3.75-27.47l3.75,2.49c-1.88,5-.63,11.24-.63,16.86-.8,10.49-3.3,12.77,8.12,15.61,10.12-53.76,9.59-64.27-26.85-106.76l11.24.62C161.16,68.24,168,83.85,176.14,92c7.49-8.74,0-23.73,0-33.72l6.25,6.25c0,13.73,4.37,25.59,3.12,39.33-.63,10,3.74,27.47-3.75,35.59,9.37,3.12,18.73,3.74,28.72,5,11.24,1.88,15.61.63,18.11-11.86l1.25,5c-3.75,10.61-5,13.73-16.24,11.86-10.61-1.88-21.85-3.75-32.46-5-.63,10.62.53,25.35-8.58,30.16-14.78,7.8-4.53,28.53-12.65,38.52,12.49,6.25,26.85,10.62,33.09,24.35,5,12.49,15,35,11.86,48.07-3.12,15.61-18.73,26.23-22.47,41.84-1.88,8.11,0,18.73,1.24,26.22,1.88,10.61,9.37,18.73,11.87,29.34-15.11,20.47-67.87,28.28-90.53,5C100,387.28,83.55,390.82,85,382.91Z" fill="#ce894a"/><path d="M86.44,383.31c2.79-10.54,2-21.65,2.89-32.42.9-10.44,3.75-21.22,13.35-26.92,2.79-1.66,5.92-2.64,8.87-4a94.11,94.11,0,0,0,9.64-5.07,113.39,113.39,0,0,0,16.86-12.53c10.79-9.61,19.91-20.94,28.17-32.74a21.53,21.53,0,0,0,2.4-20.82c-3-7-8.92-12.46-14.52-17.45a1.53,1.53,0,0,0-2.12,0,37,37,0,0,1-9.92,8.17c-3.95,2.06-8.15,2.59-12.55,2.64-4.22.05-8.52.24-12.69-.58a12.87,12.87,0,0,1-9.5-7c-1.95-3.56-3.13-7.76-5.81-10.88a35.28,35.28,0,0,0-7.9-6.66c-4.4-2.77-9.5-4.2-13.88-7-7-4.44-9.59-12.88-11.4-20.49l-1.45,1.9,5,.62-1.3-.74c2.33,5.43,4,11.68,7.88,16.23,4.25,4.93,11,5.75,17.14,5.74a1.51,1.51,0,0,0,1.45-1.9c-3.66-9.75-7.23-19.53-11.39-29.07L84,184.57l5.61,1.25-1-1c3.43,13.42,7.76,27.55,15.82,39,4.79,6.79,11.9,13.32,20.85,11.95,10.49-1.61,18-12.19,23-20.53,2.17-3.55,4.12-7.21,5.94-10.94a85.32,85.32,0,0,0,5.33-12.59,37.9,37.9,0,0,0,.6-21.08c-4.27-15.36-18-26.2-29.12-36.6l-.66,2.5,6.25-1.87-1.46-.39c7.18,7.9,13.1,16.82,20,25a1.5,1.5,0,0,0,2.12,0c3.12-3.65,3.67-8.81,3.92-13.42.28-5-.12-10.09.27-15.11L159.15,132l3.75,2.5-.69-1.69c-1.7,4.82-1,10-.73,15,.14,3.39-.56,6.68-.72,10.05a7.23,7.23,0,0,0,1.76,5.72c2.12,2.1,5.45,2.86,8.23,3.56a1.51,1.51,0,0,0,1.84-1.05c1.71-9.09,3.41-18.2,4.57-27.38a108.24,108.24,0,0,0,1-20.82c-.88-13.12-6.11-24.8-13.45-35.55a280.83,280.83,0,0,0-19.31-24.47l-1.06,2.56,11.24.62-1.3-.74c6.93,10.85,11.68,23.48,20.84,32.77a1.51,1.51,0,0,0,2.12,0c8.32-10,.55-23.51.44-34.78l-2.56,1.06,6.25,6.25-.44-1.06c.05,11.67,3.43,23,3.34,34.72,0,2.39-.3,4.77-.28,7.16,0,2,.13,4,.26,6a124.26,124.26,0,0,1,.45,13.37c-.19,4.4-.91,9.22-4,12.63a1.51,1.51,0,0,0,.66,2.5c9.76,3.2,19.93,3.69,30,5.2,5.08.77,11.13,1.35,14.74-3.11,2.29-2.81,3.21-6.53,3.92-10h-2.89l.78,3.12a10.75,10.75,0,0,1,.4,1.58c0,.25,0,.29,0,.11.1-.49-.26.36-.31.48l-.29.84c-.94,2.6-1.87,5.82-4,7.77s-4.82,1.69-7.29,1.44c-5.41-.52-10.8-1.79-16.16-2.66-6.37-1-12.75-2-19.15-2.72-.84-.1-1.46.77-1.5,1.5-.31,5.47-.15,11-1,16.43-.75,4.86-2.32,9.87-6.85,12.43a17.19,17.19,0,0,0-8.32,10.5c-1.33,4.6-1.25,9.49-1.38,14.23s-.2,10.17-3.25,14a1.53,1.53,0,0,0,.3,2.36c10.8,5.37,23.79,9.48,30.6,20.2a47.93,47.93,0,0,1,3.64,7.78c1.13,2.79,2.26,5.58,3.33,8.39a133.59,133.59,0,0,1,5.9,18.64c1.25,5.57,1.9,11.26.54,16.87-1.51,6.24-5.08,11.7-8.77,16.87s-7.68,10.22-10.52,15.94a37.84,37.84,0,0,0-3.68,19.4,112,112,0,0,0,1.37,11.68,50.23,50.23,0,0,0,2.92,11.38c3,7.34,7.67,14,9.57,21.77l.15-1.15c-4.29,5.75-10.87,9.65-17.38,12.4a80.05,80.05,0,0,1-25.19,5.87A74.19,74.19,0,0,1,125.52,398a49.71,49.71,0,0,1-11.62-5A38.11,38.11,0,0,1,109,389.6c-1.38-1.14-2.68-3.1-4.54-3.24-3.67-.27-7.4.37-11.09.3-2.11,0-7.48,0-7-3.35.3-1.89-2.6-2.7-2.9-.79C81.89,393,99.42,388.79,105,389.41l-1.06-.44c12.56,12.77,32.21,15.9,49.36,14.33a83.08,83.08,0,0,0,25.57-6.37,52.78,52.78,0,0,0,10.35-5.85c2.62-1.92,5.9-4.39,7.52-7.29.61-1.1-.06-2.5-.41-3.62-.45-1.45-1-2.86-1.57-4.25-1.15-2.72-2.51-5.35-3.86-8-2.78-5.38-5.1-10.62-6.1-16.63s-1.89-12-1.63-18A33.6,33.6,0,0,1,188,317.69c5.35-9.21,13.17-16.95,16.93-27.06,3.58-9.64,1.52-19.77-1.39-29.31-1.58-5.18-3.49-10.25-5.49-15.28-1.75-4.41-3.27-9.16-5.86-13.17-5.74-8.85-15.37-13.51-24.64-17.79-2.31-1.08-4.63-2.15-6.91-3.28l.3,2.35c6-7.62,3.23-18.22,4.83-27.11a18.17,18.17,0,0,1,2.33-6.5,14.81,14.81,0,0,1,5.53-4.86c4.4-2.57,6.55-7.34,7.54-12.14,1.3-6.29,1.08-12.75,1.44-19.13l-1.5,1.5c6.35.76,12.67,1.69,19,2.72,5.61.9,11.26,2.28,16.92,2.72,3,.23,6.1-.06,8.46-2s3.53-5.21,4.59-8.05a15.65,15.65,0,0,0,1.22-3.5,4.82,4.82,0,0,0-.28-1.63l-1-4a1.51,1.51,0,0,0-2.89,0c-.67,3.26-1.46,7.32-4.06,9.67-2.07,1.87-5,1.91-7.65,1.72-5.11-.35-10.26-1.22-15.35-1.86A94.3,94.3,0,0,1,182.16,138l.66,2.51c3.61-4,4.61-9.5,4.84-14.75.26-5.81-.46-11.59-.67-17.38-.11-3.06.22-6.08.24-9.13a84.34,84.34,0,0,0-.83-11.56c-.49-3.77-1.11-7.52-1.61-11.29-.26-1.91-.48-3.82-.64-5.75s0-4.17-.26-6.12c-.25-1.51-2.2-2.82-3.22-3.84l-3.47-3.47a1.52,1.52,0,0,0-2.56,1.06c.06,5.6,1.74,11.06,2.67,16.54s1.47,11.65-2.23,16.12h2.12c-6.08-6.17-10.19-14.15-14.33-21.67-1.89-3.42-3.62-7.17-5.93-10.33-1.09-1.49-4.08-1.06-5.73-1.15l-6.91-.38c-1.4-.08-1.84,1.64-1.06,2.56,10.25,12,21.26,24.48,27.46,39.15,4.93,11.69,5.18,24.16,3.81,36.6-1.09,9.92-3,19.75-4.81,29.55l1.85-1.05c-2.21-.55-5.48-1.08-7.05-2.93-1-1.22-.8-3.06-.66-4.54a67.72,67.72,0,0,0,.61-9.54c-.23-4.53-.89-9.23.65-13.61a1.51,1.51,0,0,0-.69-1.69l-3.74-2.5a1.52,1.52,0,0,0-2.26,1.3c-.36,4.57,0,9.18-.21,13.76-.15,4.09-.29,9.36-3.1,12.65h2.12c-6.87-8.16-12.79-17.09-20-25a1.49,1.49,0,0,0-1.46-.38l-6.25,1.87a1.52,1.52,0,0,0-.66,2.51c9.71,9,21,18.08,26.6,30.45a32.7,32.7,0,0,1,2.45,18.77c-1.34,8.14-5.29,15.77-9.17,23a80.31,80.31,0,0,1-11,16.21c-2.89,3.16-6.34,6.2-10.46,7.63-7.68,2.65-14.34-2.18-18.94-8a69.26,69.26,0,0,1-9.1-16.21A167.35,167.35,0,0,1,91.43,184a1.47,1.47,0,0,0-1.05-1l-5.62-1.25a1.52,1.52,0,0,0-1.69,2.2c4.06,9.31,7.52,18.85,11.09,28.36l1.44-1.9c-3.93,0-8.21-.2-11.73-2.15a14.53,14.53,0,0,1-5.67-6.44c-1.71-3.33-2.93-6.9-4.37-10.35-.36-.86-.58-1.9-1.55-2.23a8.44,8.44,0,0,0-1.51-.2l-3.89-.48c-1-.13-1.64,1.06-1.44,1.9C67.21,197.83,69.79,206,76,211c4.23,3.43,9.53,4.91,14.24,7.51a35,35,0,0,1,8.17,6.23c3.12,3.2,4.32,7.7,6.45,11.54a15.34,15.34,0,0,0,9.22,7.71c4.33,1.28,9,1.25,13.49,1.19,5.09-.07,9.93-.31,14.66-2.41s8.49-5.58,11.9-9.3H152c5,4.44,10.23,9.17,13.3,15.21a18.6,18.6,0,0,1-1.05,18.56,156.46,156.46,0,0,1-13.12,17.25,155.42,155.42,0,0,1-14.6,15.22,110.41,110.41,0,0,1-16.83,12.58,94.41,94.41,0,0,1-9.17,4.86c-3,1.4-6.27,2.39-9.17,4.09C92,326.76,88.1,336.64,86.75,347c-1.53,11.77-.15,24-3.21,35.55A1.5,1.5,0,0,0,86.44,383.31Z" fill="#75411a"/><path d="M139.69,333.83c42.64-76.93,34.48-52.94,12.87-129.71,54,99.42-25.11,93.06-9.43,182.79-2.29-22.15,9.59-40.6,22.37-57.5,23.55-35.76,26.56-85.86-8.79-115,11.39,11.67,24.64,23.78,29,40.76,11.42,48.91-23.88,73.44-35.27,112.36C152.47,453,129.47,363,139.69,333.83Z" fill="#d8a960"/><path d="M2.5,220.22a17.05,17.05,0,0,1-.58-1.88c-4.09-19.92,23-26.56,37.28-24-5.11-20.42,1-37.79,22.47-44.94.63-.21,1.25-.41,1.86-.59,22.82-6.78,35.35,8,42.32,28.43,14.3-6.13,36.52-5.88,32.94,16.59-3.57,23.5-30.13,19.41-46.47,14.82,1.53,26-35.25,26-49,12.76-3.06,8.18-8.17,14.81-17.87,14.81-8.48-.44-18.14-6-22.14-14.17h0v0c-.09-.18-.15-.37-.24-.56C2.84,221.05,2.65,220.64,2.5,220.22Z" fill="#3b7e82"/><path d="M3.94,219.82a14.9,14.9,0,0,1-.61-2l-.12-.64c0-.11,0-.21,0-.32-.05-.34,0,.08,0-.23a18.77,18.77,0,0,1-.12-2.7q0-.64.09-1.29l0-.28c0,.28,0,0,0,0l.12-.68a15.83,15.83,0,0,1,.66-2.33c0-.1.21-.54.17-.44s.15-.33.19-.42c.16-.35.35-.7.54-1.05s.4-.67.62-1l.29-.43c.06-.08.43-.57.24-.33a20.31,20.31,0,0,1,3.42-3.39c.23-.18.07-.06,0,0l.28-.2.5-.37q.52-.36,1.05-.69c.72-.46,1.46-.88,2.22-1.27a30.36,30.36,0,0,1,4.62-2,44.57,44.57,0,0,1,5.18-1.41c.87-.19,1.75-.35,2.64-.49s1.36-.19,2.36-.29a46.08,46.08,0,0,1,5.63-.21q1.35,0,2.7.15l.63.07.25,0s.44,0,.23,0,.05,0,.1,0l.36,0,.65.11a1.51,1.51,0,0,0,1.84-1.84A52.88,52.88,0,0,1,39,182.5a35.72,35.72,0,0,1,1.18-10.43A28.76,28.76,0,0,1,51.58,156a41.55,41.55,0,0,1,10.84-5.27,37,37,0,0,1,12.21-2.08,25.38,25.38,0,0,1,17.54,7.54c5.14,5.07,8.64,11.81,11.2,18.57.36.95.7,1.91,1,2.88a1.52,1.52,0,0,0,2.2.89c.27-.11.07,0,0,0l.31-.13.51-.21c.4-.15.81-.31,1.22-.45.77-.28,1.54-.53,2.32-.76a42.12,42.12,0,0,1,4.82-1.13l1.19-.2.28,0c-.28,0,0,0,0,0l.69-.08c.84-.09,1.67-.15,2.5-.18a29.72,29.72,0,0,1,4.72.17l.26,0c-.3,0-.07,0,0,0l.52.08c.4.07.8.15,1.19.24a18.85,18.85,0,0,1,2.11.6l.47.16.28.11.1,0c-.18-.07.06,0,.1,0l.28.12.49.24a13.33,13.33,0,0,1,1.78,1.07l.33.23.3.25q.4.35.78.72c.23.23.44.46.65.7l.19.23s.18.23.06.08l.07.09.21.29a12.57,12.57,0,0,1,1.07,1.89c0,.07.23.52.11.23l.21.55c.14.39.26.77.37,1.17a16.71,16.71,0,0,1,.55,5.13,28,28,0,0,1-.8,6.05,23.4,23.4,0,0,1-.83,2.74,16.19,16.19,0,0,1-1,2.22,15.23,15.23,0,0,1-2.7,3.77,18.19,18.19,0,0,1-1.78,1.62s-.23.17,0,0l-.21.16-.44.3c-.34.24-.69.47-1,.68a20.34,20.34,0,0,1-2.07,1.08c-.06,0-.54.23-.26.12l-.56.22c-.38.15-.76.28-1.15.41a30.26,30.26,0,0,1-4.81,1.12l-.28,0c.06,0,.28,0,0,0l-.56.07-1.3.12c-.88.07-1.75.11-2.63.13A73.3,73.3,0,0,1,95,207.8c-.76-.19-1.51-.4-2.27-.61a1.51,1.51,0,0,0-1.89,1.45,25.59,25.59,0,0,1,0,3.61c0,.28,0,.56-.09.85,0-.29,0,.31-.06.42-.1.58-.22,1.15-.37,1.71s-.25.92-.41,1.37c-.08.24-.17.47-.26.71,0,.05-.18.44,0,.11l-.15.34A17.7,17.7,0,0,1,88,220.31l-.42.58c-.23.31.13-.16,0,0l-.19.23c-.32.4-.67.78-1,1.15s-.62.61-.94.9l-.55.46-.23.19c-.08.06-.06,0,.07-.06l-.19.15A22.81,22.81,0,0,1,82,225.5c-.39.21-.79.42-1.2.61l-.67.3c-.38.17.28-.11-.1.05l-.47.18a29.9,29.9,0,0,1-5.79,1.58l-.72.11-.32,0c.35,0-.08,0-.13,0-.53.06-1.06.12-1.59.16-1.07.08-2.15.12-3.23.11s-2.18-.06-3.26-.15l-1.5-.15-.4-.05-.15,0-.81-.13a42.67,42.67,0,0,1-6.31-1.53c-.54-.18-1.09-.37-1.63-.58l-.73-.28-.37-.15h0l-.24-.11a34.38,34.38,0,0,1-3.1-1.54,28.37,28.37,0,0,1-2.71-1.74l-.3-.21-.17-.13-.56-.45c-.42-.35-.83-.72-1.23-1.1a1.52,1.52,0,0,0-2.5.66A29,29,0,0,1,37.51,229a15.08,15.08,0,0,1-7,5c-6.4,2.09-13.57-.51-18.89-4.37a24.64,24.64,0,0,1-4.21-3.89,20.36,20.36,0,0,1-1.67-2.24c-.27-.41-.52-.84-.76-1.27s-.47-1.18-1-1.41l.54.53c-.21-.48-.44-1-.63-1.46a1.56,1.56,0,0,0-1.84-1,1.51,1.51,0,0,0-1,1.85c.21.54.45,1.07.68,1.6s.32.91.79,1.12L2,222.8c3.39,6.87,10.27,11.82,17.54,13.91a20.35,20.35,0,0,0,11,.37,17.62,17.62,0,0,0,8.42-5.17,30.75,30.75,0,0,0,5.82-10.11l-2.51.66c6.34,6.08,15.62,8.83,24.23,9.17,8.27.32,17.75-1.77,23.15-8.55a20.93,20.93,0,0,0,4.22-14.44l-1.9,1.44a86.1,86.1,0,0,0,21.36,3.58c7,.15,14.35-1.06,19.82-5.66a20.49,20.49,0,0,0,6-9.05,28.35,28.35,0,0,0,1.34-12.89,15.16,15.16,0,0,0-4.22-8.81A17,17,0,0,0,128,173c-6.69-1.52-14-.37-20.36,2-.84.31-1.68.65-2.51,1l2.2.9c-2.58-7.54-6-15-11.35-21a29.08,29.08,0,0,0-18.61-10,34.84,34.84,0,0,0-12.28,1,48,48,0,0,0-12.65,5.08,32.44,32.44,0,0,0-14.3,16.85c-2.66,7.3-2.52,15.35-1,22.89.2,1,.44,2.06.69,3.08l1.85-1.84a45.83,45.83,0,0,0-21.34,1.63c-6.68,2.09-13.74,6-16.72,12.71a18.13,18.13,0,0,0-.49,13.39,1.54,1.54,0,0,0,1.84,1A1.51,1.51,0,0,0,3.94,219.82Z" fill="#28575c"/><g clip-path="url(#clip-path)"><path d="M99,174.88C95.4,156,78.48,151.92,66,157.53c-6.57-1.91-15.15,3.56-12.26,12.46l0,.09c-4.18-.78-12.13,1.5-10.24,7.27,1.4,3.73,6,5.36,9,3.68a28.22,28.22,0,0,0,1.26,5.45,23.91,23.91,0,0,0-5.08-.38c-10.58-4.88-26.43,4.06-21.38,19.21C20.73,204,8,207.63,11,216.83c3.05,8.14,15.82,10,18.15.53,5.94,5.71,21.44,5.9,21.84-4.58a10.25,10.25,0,0,0,1-.65c7.07,3.11,12.84,1.4,16.33-1.84,10.41,1.88,22.22-1.86,21.5-14.12C122.64,211.76,137.44,162.93,99,174.88Z" fill="#6ab3b9"/><path d="M62,165.11c-1.22-3.7,3.92-5.15,6.58-4.64-2.79-8.36,10.25-12,11.94-3.06,10.2-3.25,5.82,10-2.43,5.63.28,4.66-6.31,4.66-8.78,2.28C68.39,169.15,63.25,168.39,62,165.11Z" fill="#98d9e4"/><path d="M54.07,178.18c-.63-1.93,2-2.69,3.44-2.42-1.46-4.38,5.37-6.3,6.25-1.6,5.24-1.78,2.89,5.32-1.27,2.94.14,2.44-3.3,2.44-4.59,1.2C57.41,180.3,54.72,179.9,54.07,178.18Z" fill="#98d9e4"/></g><path d="M139,83.09C113.15,124.3,68.69,56.57,116,39.62c13.1-5,26.54-2,39.44,3.07a20.89,20.89,0,0,0,3.22,11.54,15.86,15.86,0,0,0-.85,1.36c-2.88-4.24-8.55-5-13-3.43-.42-7-9.56-11.69-14.79-2.46-5.06-7.46-20.53-1.83-14.91,6.89-4-1.71-8.13-3-12.19-1.4-13,3.5-.4,24.26,6.71,11.39,1.3,4.62,5.82,7.28,9.53,7.59,2.2,6.17,9.26,10.57,14.15,1.7A13.52,13.52,0,0,0,139,83.09Z" fill="#3b7e82"/><path d="M156.68,37.09C150.12,14.44,183,.14,203.84,10.52a20.71,20.71,0,0,0-9.09,4.76c-2.43-1-5.41-.22-7.47,3.6-4-5.84-16.1-1.43-11.69,5.41-3.1-1.34-6.38-2.32-9.56-1.1-4.39,1.18-5.06,4.87-3.95,7.88A13.68,13.68,0,0,0,156.68,37.09Z" fill="#3b7e82"/><path d="M253.7,58.73c10.73,12.26-.51,21.2-14.3,24.77-18.9,5.11-37.28.51-53.63-9.19,28.39,46.81-25.57,45.5-43.78,10.23,6.45,2.3,12.8-.68,6.31-10.86,5.45,4.95,28.29,6.16,22.49-5.16a13,13,0,0,0,4.71-8.32A19.7,19.7,0,0,0,181.64,53c6.84,21.27,44.59,24.33,26.62-3.89,9.65,8.77,50.06,10.9,39.78-9.13,23.55-22.91-7.49-49.15-23-22.88a15.85,15.85,0,0,0-6.07-5.3C239.76-13.78,294.9,10.57,253.7,58.73Z" fill="#3b7e82"/><path d="M248,40c10.28,20-30.13,17.9-39.78,9.13,18,28.22-19.78,25.16-26.62,3.89a19.7,19.7,0,0,1-6.14,7.16,13,13,0,0,1-4.71,8.32c5.8,11.32-17,10.11-22.49,5.16,6.49,10.18.14,13.16-6.31,10.86-.59-1.16-1.15-2.36-1.67-3.59-.42.74-.84,1.46-1.28,2.14a13.52,13.52,0,0,1-5.79-7.22c-4.89,8.87-12,4.47-14.15-1.7-3.71-.31-8.23-3-9.53-7.59-7.11,12.87-19.71-7.89-6.71-11.39,4.06-1.56,8.24-.31,12.19,1.4-5.62-8.72,9.85-14.35,14.91-6.89,5.23-9.23,14.37-4.54,14.79,2.46,4.47-1.53,10.14-.81,13,3.43a15.86,15.86,0,0,1,.85-1.36,20.89,20.89,0,0,1-3.22-11.54c1.62.63,3.24,1.31,4.84,2a29,29,0,0,1-3.56-7.6,13.68,13.68,0,0,1,5.4-6c-1.11-3-.44-6.7,3.95-7.88,3.18-1.22,6.46-.24,9.56,1.1-4.41-6.84,7.72-11.25,11.69-5.41,2.06-3.82,5-4.56,7.47-3.6a20.71,20.71,0,0,1,9.09-4.76,27.23,27.23,0,0,1,10.53,9.14,29.59,29.59,0,0,1,4.57-7.82,15.85,15.85,0,0,1,6.07,5.3C240.55-9.13,271.59,17.11,248,40Z" fill="#6ab3b9"/><g clip-path="url(#clip-path-2)"><path d="M207.58,24.19c3.22-1.24,6.53-.25,9.67,1.1-4.46-6.91,7.8-11.37,11.81-5.46,5.7-10.07,17.33.78,8.59,8.53,3.82,7.46-11.23,6.67-14.83,3.4,6.7,10.52-7.37,9.38-9.92,1.45C207.27,43.41,197.27,27,207.58,24.19Z" fill="#98d9e4"/></g><path d="M116.37,41.07a39.94,39.94,0,0,1,17-2.43,65.32,65.32,0,0,1,16.72,3.68c3.17,1.09,6.29,2.34,9.37,3.66a1.57,1.57,0,0,0,1.82-.23,1.53,1.53,0,0,0,.24-1.82,32.16,32.16,0,0,1-2.44-4.51s-.12-.26,0,0c0-.09-.07-.17-.11-.26s-.13-.34-.2-.52c-.14-.38-.28-.76-.41-1.15q-.33-1-.57-2.07-.12-.53-.21-1c0-.17-.05-.33-.08-.49l0-.25c0,.21,0,.15,0,0-.07-.66-.12-1.31-.13-2a16.14,16.14,0,0,1,.07-2c0-.16,0-.31,0-.46.05-.43,0,.09,0-.16s.11-.67.18-1a17.11,17.11,0,0,1,.47-1.84c.09-.28.18-.56.29-.84l.15-.42.09-.21c.13-.35-.14.3,0-.05a22.64,22.64,0,0,1,1.79-3.28l.52-.74.27-.36c.13-.17-.15.2,0,0l.18-.22c.4-.51.83-1,1.28-1.47a29,29,0,0,1,3-2.69s.22-.17,0,0l.19-.14.38-.29.9-.63c.55-.38,1.12-.74,1.7-1.08a36.29,36.29,0,0,1,3.72-1.92l.46-.2h0l.29-.12,1-.4c.68-.25,1.37-.49,2.07-.71a40.17,40.17,0,0,1,4.22-1.09c.73-.14,1.46-.27,2.19-.38l.39-.06.39,0,1.18-.13a40.35,40.35,0,0,1,4.4-.15c.75,0,1.5,0,2.24.1l1,.1.52.05.26,0c.43,0-.32-.05.12,0a37,37,0,0,1,4.29.87c.71.19,1.41.41,2.11.65l1,.35.48.19.3.12a29,29,0,0,1,3.92,2c.62.39,1.24.8,1.83,1.24l.42.31.22.17c.29.23.57.47.85.72a25.57,25.57,0,0,1,3.12,3.21l.39.48c.14.18-.13-.17,0,0l.17.22c.23.31.46.64.68,1a1.53,1.53,0,0,0,2.75-.36,3.65,3.65,0,0,1,.14-.35c-.13.32,0-.07.05-.11.08-.2.17-.39.25-.58.21-.45.43-.9.66-1.34q.63-1.23,1.38-2.4.34-.55.72-1.08l.33-.47.21-.28.14-.18-.06.07c.53-.66,1.08-1.31,1.66-1.93s1.19-1.21,1.82-1.77c.3-.27.61-.53.92-.78l.42-.33.34-.26A28.15,28.15,0,0,1,229,5.78c.34-.17.69-.34,1-.49l.25-.11c.2-.09-.35.14,0,0l.68-.27c.71-.27,1.44-.52,2.17-.74s1.54-.42,2.32-.58l1.12-.22L237,3.3l.31,0c.27,0-.33,0,.11,0A32.71,32.71,0,0,1,242.09,3c.78,0,1.57.07,2.35.15l.51,0,.31,0c.34,0-.27,0,0,0l1.16.19a30.27,30.27,0,0,1,4.52,1.16l1.05.38.47.19.27.11c.31.12-.26-.12,0,0,.7.31,1.39.63,2.07,1a27.37,27.37,0,0,1,3.76,2.42c-.35-.27.16.13.24.2l.39.31L260,10a22.21,22.21,0,0,1,1.59,1.63c.25.27.48.55.71.83.07.08.4.51.13.16l.39.52c.44.61.85,1.24,1.23,1.88s.75,1.36,1.08,2.07l.2.47c-.18-.41.08.2.13.31.14.37.28.74.4,1.12a22.34,22.34,0,0,1,.64,2.3c.09.38.17.77.23,1.17,0,.19.07.39.1.59s0,.18,0,.28c-.06-.44,0,.06,0,.15a27,27,0,0,1,.08,5.24c0,.46-.08.91-.13,1.36,0,.06-.06.48,0,.1l-.06.38c0,.25-.07.51-.12.76-.17,1-.39,2-.65,3s-.58,2-.92,3c-.17.51-.36,1-.56,1.53l-.34.85-.27.63a66.19,66.19,0,0,1-8.36,13.76c-1,1.23-1.94,2.43-3,3.61a1.57,1.57,0,0,0,0,2.13,15,15,0,0,1,3.69,6.81c0,.08.11.67.08.47q0,.39.06.78a6.43,6.43,0,0,1,0,.76c0,.15,0,.3,0,.45,0,.33,0-.15,0,.2a9.19,9.19,0,0,1-.36,1.44c-.07.23-.16.47-.25.69.08-.2,0,0,0,.06l-.24.47a14.2,14.2,0,0,1-4.22,4.68,30.53,30.53,0,0,1-6.74,3.65C232.65,85,219.23,85.17,207,81.84A82.51,82.51,0,0,1,186.54,73a1.51,1.51,0,0,0-2.06,2,66,66,0,0,1,6.06,12.39A36.58,36.58,0,0,1,192,92.63c.07.38.14.76.19,1.14a2.23,2.23,0,0,1,0,.23c.06.4,0-.32,0,.07l.06.57q.11,1.1.12,2.19a19.53,19.53,0,0,1-.11,2,1.11,1.11,0,0,0,0,.19c0,.34.06-.36,0,0l-.06.42c-.06.32-.12.63-.2.94a16.32,16.32,0,0,1-.52,1.68c-.1.27-.08.2,0,.07-.06.11-.1.23-.16.34-.12.26-.25.52-.39.77a12.85,12.85,0,0,1-.86,1.31c.29-.41,0,0-.07.07l-.25.29c-.18.2-.36.39-.55.57s-.38.36-.58.53l-.28.22c-.15.12.32-.23.09-.07l-.19.14a12.63,12.63,0,0,1-1.35.84c-.23.13-.46.24-.69.35l-.34.15c-.28.13.35-.13.06,0a1.57,1.57,0,0,0-.23.09c-.53.2-1.07.37-1.61.52s-1.11.26-1.67.35l-.39.06c-.33.06.37,0,0,0l-.18,0-.92.08a24.89,24.89,0,0,1-3.86,0l-1-.1c-.39,0,.12,0-.11,0l-.62-.09c-.7-.11-1.39-.25-2.08-.4a38.51,38.51,0,0,1-4.22-1.24c-.71-.25-1.42-.52-2.11-.82.35.15-.21-.08-.3-.12l-.54-.25c-.36-.16-.73-.33-1.09-.51a46.6,46.6,0,0,1-4.32-2.4c-.73-.46-1.44-.93-2.13-1.42l-1-.68-.52-.39-.26-.2c-.09-.06-.07,0,0,0l-.2-.16A51.26,51.26,0,0,1,149,92.45c-.69-.83-1-1.22-1.59-2s-1.11-1.56-1.63-2.36a51.12,51.12,0,0,1-2.87-5c-.21-.43-.41-.86-.61-1.29-.11-.23-.21-.46-.31-.69l-.12-.28-.09-.2a1.55,1.55,0,0,0-1.25-1.07,1.5,1.5,0,0,0-1.49.71c-.6,1.07-1.24,2.12-1.92,3.14-.29.44-.6.89-.91,1.32l-.49.66a3.15,3.15,0,0,1-.22.29l-.21.27a30.92,30.92,0,0,1-4,4.23l-.47.39c-.08.07-.63.5-.35.29-.34.26-.68.51-1,.75a21.06,21.06,0,0,1-2.09,1.26c-.34.19-.69.36-1,.52-.08,0-.62.26-.22.1l-.57.22a15.86,15.86,0,0,1-2.16.66c-.33.08-.67.14-1,.2l-.38.06-.47.06a18.07,18.07,0,0,1-2.08.07q-.5,0-1-.06l-.52-.05h-.08l-.17,0a17.92,17.92,0,0,1-2-.44,19.91,19.91,0,0,1-2-.65l-.26-.11-.44-.19-1-.46c-.66-.35-1.31-.73-1.94-1.13-.28-.18-.55-.37-.82-.56l-.45-.32c-.1-.07-.64-.49-.3-.22a29.65,29.65,0,0,1-3.3-3c-.53-.56-1-1.14-1.51-1.74l-.27-.34-.27-.36c-.23-.31-.46-.63-.68-1A34.76,34.76,0,0,1,100,79.86c-.16-.32-.32-.65-.47-1-.08-.18-.17-.36-.25-.55l-.1-.24c-.11-.24.1.25-.06-.15-.3-.74-.59-1.49-.84-2.25A33.83,33.83,0,0,1,97.06,71c-.07-.4-.13-.8-.18-1.19.06.44,0-.17,0-.26s0-.43-.07-.65c-.08-.81-.12-1.63-.13-2.45s0-1.65.08-2.46c0-.37.06-.73.1-1.09,0-.11,0-.22,0-.33,0-.38-.06.34,0,0s.07-.44.11-.66a25.56,25.56,0,0,1,1.25-4.69c.06-.17.13-.35.2-.52l.12-.31c.15-.36-.13.29,0-.06s.34-.75.52-1.12c.37-.76.79-1.49,1.23-2.21.23-.36.47-.72.72-1.07l.34-.48.21-.29c.18-.23-.14.18.1-.12A27.21,27.21,0,0,1,103.51,49c.66-.67,1.34-1.31,2.06-1.91l.5-.42c.07,0,.56-.44.32-.26.44-.33.88-.64,1.32-1a36.57,36.57,0,0,1,5.6-3.13c1-.46,1.9-.82,3.06-1.24a1.54,1.54,0,0,0,1-1.84,1.51,1.51,0,0,0-1.85-1C107.68,41,100.32,46,96.51,53.69a29.78,29.78,0,0,0-1.82,20.54,34.79,34.79,0,0,0,10.12,17.08c4.57,4.13,10.63,7,16.89,6.27,7.82-.87,13.81-6.43,18-12.74.67-1,1.31-2.07,1.91-3.13l-2.74-.36a52,52,0,0,0,13.82,19.19,47.42,47.42,0,0,0,18,10c5.13,1.45,11.05,2,16.1,0a13.66,13.66,0,0,0,5.87-4.42,14.36,14.36,0,0,0,2.63-7.12,25.68,25.68,0,0,0-1-9.58A57.13,57.13,0,0,0,189.05,77c-.63-1.15-1.29-2.29-2-3.41l-2,2c12,7.1,25.66,11.77,39.73,11.49a60.08,60.08,0,0,0,20-3.73c4.92-1.86,10.12-4.64,13-9.26a11.46,11.46,0,0,0,1.57-7.75c-.49-3.3-2.41-6.21-4.55-8.69V59.8c6.8-8,13.11-17.4,14.86-27.95,1.17-7.07.05-14.49-4.27-20.35A28.41,28.41,0,0,0,249.36,1a32.08,32.08,0,0,0-19.54,1.13,29.79,29.79,0,0,0-15.6,14.24c-.47.94-.89,1.91-1.29,2.88l2.74-.35a29.87,29.87,0,0,0-15.1-11.37,41.38,41.38,0,0,0-35.29,5c-4.58,3.19-8.43,7.58-10.08,13-1.83,6-.52,12.29,2.4,17.69.42.78.87,1.53,1.35,2.28L161,43.39c-11.07-4.77-23.11-9-35.35-7.61a40.7,40.7,0,0,0-10.08,2.4,1.54,1.54,0,0,0-1,1.85A1.52,1.52,0,0,0,116.37,41.07Z" fill="#28575c"/><path d="M64.41,130.18c-30-40.42,13.28-45.48,44.25-40,4.56-11.21,16-20.29,28.52-18.45,36.54,4.83,26.52,37.34,20,44,34,5.26,28.62,48-6.13,29.11,2.55,9.2-7.66,14.3-15.32,12.77-11.24-2-21.45-13.28-24-24.51C106.78,164.86,76.79,147.41,64.41,130.18Z" fill="#3b7e82"/><path d="M65.71,129.42A69.17,69.17,0,0,1,59,118.63c-.19-.37-.36-.75-.54-1.13l-.25-.55-.12-.28s-.18-.43-.08-.18c-.31-.74-.59-1.49-.85-2.25A28.86,28.86,0,0,1,56,110.06c0-.15-.05-.31-.07-.46l0-.23c0,.36,0,.09,0,0,0-.32-.07-.63-.1-1,0-.62-.06-1.25,0-1.88,0-.27,0-.54,0-.82s0-.3,0-.45.06-.53,0-.29,0-.19,0-.24.05-.29.08-.43.11-.53.18-.8a14.16,14.16,0,0,1,.5-1.56c0-.1.21-.47,0-.07l.15-.33c.12-.25.24-.5.37-.74a11.11,11.11,0,0,1,.81-1.32c.13-.2.28-.4.43-.59-.27.35,0,0,.05-.06s.19-.24.29-.35a17.79,17.79,0,0,1,2.36-2.23c.15-.12-.24.18-.07.06l.15-.11.32-.23c.24-.17.48-.34.73-.5.48-.31,1-.61,1.47-.88s1.08-.57,1.63-.83l.78-.35c.07,0,.26-.11-.06,0l.2-.09.5-.2A37.13,37.13,0,0,1,70.48,92c1.33-.37,2.67-.68,4-.94.7-.13,1.39-.25,2.09-.36l1.06-.16c.07,0,.3,0,0,0l.25,0,.58-.07a83.31,83.31,0,0,1,9.07-.55q4.73,0,9.43.33c1.58.12,3.16.27,4.74.46l1.09.13.54.07.27,0,.14,0,2.28.34,2.24.37a1.56,1.56,0,0,0,1.84-1c3.3-8,10.41-15,19-17a21,21,0,0,1,6.5-.49,41.23,41.23,0,0,1,6.5,1.09,39.58,39.58,0,0,1,5.58,1.74c.52.21.42.16.95.4l1.25.59c.74.38,1.47.78,2.18,1.22s1.31.87,2,1.33c.22.17,0,0,0,0l.23.18c.14.11.28.22.41.34.3.25.59.5.88.77.52.48,1,1,1.49,1.52.22.25.43.5.64.76l.13.17c.23.27-.14-.19,0,0s.23.32.35.47a21.62,21.62,0,0,1,2,3.42c.06.12.11.25.17.37a1.67,1.67,0,0,1,.08.2c.12.3.24.6.34.9.22.6.4,1.21.57,1.82s.29,1.22.41,1.84c.05.29.09.59.14.88s0-.3,0,.14l.06.49a28.61,28.61,0,0,1,.14,3.7c0,.61-.05,1.22-.1,1.83,0,.29,0,.57-.09.86s0,.31-.05.47c-.05.41,0-.25,0,.17-.18,1.16-.4,2.31-.68,3.45s-.59,2.15-1,3.2c-.17.5-.36,1-.56,1.48l-.12.3c-.11.27.13-.28,0-.1l-.08.18c-.1.24-.21.47-.32.71a24.78,24.78,0,0,1-1.26,2.39c-.2.34-.42.68-.65,1l-.31.43c0,.06-.14.14-.16.21.11-.32.19-.24,0,0s-.42.49-.64.72a1.51,1.51,0,0,0,.66,2.51,39.66,39.66,0,0,1,4.67,1c.69.2,1.38.42,2.06.67l1,.35.5.2s.27.11,0,0l.3.13a29.51,29.51,0,0,1,3.52,1.85q.81.5,1.59,1l.33.25.18.14c.18.13-.19-.16,0,0s.48.38.71.58a24.53,24.53,0,0,1,2.48,2.41c.18.21.37.43.54.65l.23.28s.18.22.05,0,0,.06.07.1c.32.44.63.88.92,1.34a21.48,21.48,0,0,1,1.45,2.72c.14.31-.08-.21,0,0s.09.23.14.35.17.47.25.7q.24.71.42,1.41c.12.47.21.94.29,1.41,0,.1,0,.2,0,.31s0-.32,0,0,.05.47.07.7a14.87,14.87,0,0,1,0,2.67c0,.11,0,.22,0,.34,0-.3,0-.21,0,0s-.07.43-.12.64a10.56,10.56,0,0,1-.32,1.26c-.06.19-.13.39-.2.57s-.06.18-.1.27l-.06.15c-.1.27.13-.26.05-.11-.2.38-.36.77-.57,1.14a10.24,10.24,0,0,1-.67,1l-.18.25c.16-.23.12-.15,0,0s-.27.33-.41.48a11.26,11.26,0,0,1-.93.9l-.22.18s-.35.28-.13.11l-.11.08-.31.21c-.37.25-.76.48-1.15.69-.2.1-.39.2-.59.28s-.48.19,0,0l-.33.13a14.39,14.39,0,0,1-2.88.76l-.2,0-.25,0-.87.07c-.55,0-1.11,0-1.67,0s-1.18-.07-1.77-.13c-.11,0-.54-.07-.2,0l-.48-.07-1-.17a31.93,31.93,0,0,1-4.21-1.15,37.81,37.81,0,0,1-4.35-1.79q-1.22-.58-2.4-1.23a1.51,1.51,0,0,0-2.2,1.69,9.86,9.86,0,0,1,.28,1.31c0-.17,0,.29,0,.39,0,.25,0,.51,0,.76s0,.4,0,.6-.07.58,0,.32a8.46,8.46,0,0,1-.29,1.23l-.18.52c0,.05-.12.27,0,0l-.12.24a7.7,7.7,0,0,1-.57,1c-.1.16-.2.3-.31.45s.13-.16,0,0l-.17.21a11,11,0,0,1-.82.85c-.13.12-.27.25-.42.37l-.21.17c.19-.15,0,0,0,0-.34.25-.7.49-1.07.71s-.66.38-1,.55l-.53.24c-.27.12-.1.05,0,0l-.41.16a16,16,0,0,1-2.34.67l-.58.11-.29.05c-.25,0,.2,0,0,0-.41,0-.83.09-1.25.11a15.71,15.71,0,0,1-2.47-.1l-.3-.05-.64-.12c-.53-.11-1.05-.23-1.57-.38a23.75,23.75,0,0,1-5.48-2.3,33,33,0,0,1-9.49-8.32,31.65,31.65,0,0,1-6.06-12.4c-.32-1.38-2.66-1.49-2.9,0a34.84,34.84,0,0,1-2.08,7.85c-.06.17,0,0,0,0a1.54,1.54,0,0,0-.08.19c-.06.13-.12.25-.17.37-.12.27-.25.53-.38.79-.24.47-.5.94-.78,1.39s-.54.85-.84,1.25c-.07.11-.21.28,0,.07l-.21.27-.48.55a13.62,13.62,0,0,1-1,1l-.48.41-.14.11-.18.13a12.61,12.61,0,0,1-2.19,1.27c-.17.08-.23.09,0,0l-.28.11c-.2.07-.4.15-.61.21-.39.13-.8.24-1.2.33-.2.05-.39.09-.59.12l-.35.06c-.35.06.21,0,0,0-.43.05-.85.09-1.28.1a17.84,17.84,0,0,1-2.63-.09l-.32,0c-.31,0,.06,0,0,0l-.71-.12c-.45-.08-.91-.17-1.36-.28a27.9,27.9,0,0,1-2.83-.85c-.47-.16-.94-.34-1.4-.53l-.21-.08c.16.06-.17-.07-.22-.1l-.73-.32a46.07,46.07,0,0,1-5.63-3.12c-.92-.6-1.83-1.23-2.72-1.88l-.64-.48-.31-.24,0,0-.22-.17c-.43-.34-.87-.69-1.3-1.05a62.61,62.61,0,0,1-4.93-4.57c-.76-.78-1.49-1.58-2.21-2.4-.36-.41-.71-.84-1.06-1.26l-.48-.59-.23-.3-.12-.14c-.14-.18.15.18,0,0-.31-.4-.62-.81-.91-1.23a1.55,1.55,0,0,0-2.06-.53,1.51,1.51,0,0,0-.53,2.05A59.71,59.71,0,0,0,72.35,141a54.56,54.56,0,0,0,11.49,7.87,28.65,28.65,0,0,0,12,3.34,15,15,0,0,0,10.56-3.8c3.58-3.25,5.41-8.09,6.38-12.72.15-.76.29-1.51.41-2.28h-2.9a36.21,36.21,0,0,0,16.21,22.09,23.85,23.85,0,0,0,12,3.8,16.71,16.71,0,0,0,10.38-3.53,11.18,11.18,0,0,0,3.47-4.81,10.9,10.9,0,0,0,.12-6.59l-2.2,1.69c5.35,2.89,11.53,5.34,17.73,4.95a14.41,14.41,0,0,0,11-5.59,15.08,15.08,0,0,0,2.37-11.28,21.35,21.35,0,0,0-6.22-11.65A30.76,30.76,0,0,0,160,114.68c-.8-.17-1.6-.32-2.4-.44l.66,2.5c2.69-2.76,4.29-6.71,5.36-10.35a32.41,32.41,0,0,0,.91-15.4,23.45,23.45,0,0,0-9.27-14.41,32.48,32.48,0,0,0-9.9-4.72,49.24,49.24,0,0,0-6.56-1.45,27.9,27.9,0,0,0-7.43-.31c-9.74,1.12-18.09,7.85-22.62,16.36-.57,1.07-1.06,2.17-1.52,3.29l1.85-1a120.09,120.09,0,0,0-19.48-1.86,74.56,74.56,0,0,0-18.3,1.8c-4.94,1.19-10,3.17-13.69,6.78a16.28,16.28,0,0,0-4.76,13c.54,7.14,4.24,13.8,8.2,19.6.68,1,1.37,2,2.09,2.92a1.54,1.54,0,0,0,2.05.54A1.53,1.53,0,0,0,65.71,129.42Z" fill="#28575c"/><g clip-path="url(#clip-path-3)"><path d="M150.43,106.8c17.66-17.76-17-48.66-33.69-18.25a94.77,94.77,0,0,0-10.29-.81c-4.78-3.63-11.77-4.36-17.2,1.89a20.24,20.24,0,0,0-6.62,3.23c-12.77-.75-29.09,2.8-16.28,19.07,4.45,6.82,15.81,13.22,20.1,6.12,8.54,11.72,29.64,21.72,32.25.87.64,12.67,26.92,27.11,27.46,8.2C169.6,140.8,173.9,109.47,150.43,106.8Z" fill="#6ab3b9"/><path d="M117.35,94c-7.48-9.5,4-10.75,10.71-9.81,5.63-10.51,17.67.59,11.56,6.33,8,.64,6.29,11.82-1.47,7-.18,6.51-9.22,1.54-9.44-2.82C127.79,102.12,120.09,98.23,117.35,94Z" fill="#98d9e4"/></g><path d="M195.49,132.52c-14.4-17.62,5.9-39.11,25.49-32.81-15.89-24.43,20.23-25.16,15.32-.26,26.28-29.57,69.27,8.28,16.35,17.11,67.79,31.68-1.38,81-25,18.9-8.39,4-19.24,4.82-27,.92h0A18,18,0,0,1,195.49,132.52Z" fill="#3b7e82"/><path d="M196.55,131.46a21.75,21.75,0,0,1-3.05-5c-.08-.19-.05-.13-.16-.41s-.16-.4-.23-.61c-.15-.43-.28-.86-.4-1.3s-.22-.86-.3-1.29c0-.21-.08-.41-.11-.61s0-.2-.05-.31c0,.22,0,0,0-.13a18.56,18.56,0,0,1-.11-2.47c0-.4,0-.8.07-1.19l0-.29s.06-.46,0-.24,0-.13,0-.17l.06-.36a16.78,16.78,0,0,1,.6-2.42,11.25,11.25,0,0,1,.39-1.11,8.27,8.27,0,0,1,.43-1,19.28,19.28,0,0,1,1.17-2.14q.31-.5.66-1c.27-.39.42-.59.61-.83a24,24,0,0,1,3.64-3.62c.25-.19.43-.33.8-.59s.76-.53,1.15-.77a23.14,23.14,0,0,1,2.23-1.25,17.78,17.78,0,0,1,2.22-.94,24.53,24.53,0,0,1,2.49-.75,20.64,20.64,0,0,1,5.81-.59,21.11,21.11,0,0,1,6,1.05,1.52,1.52,0,0,0,1.7-2.2,32.16,32.16,0,0,1-1.92-3.32q-.37-.72-.69-1.47c.13.31,0-.08,0-.12l-.14-.35c-.1-.27-.2-.54-.29-.81a16.07,16.07,0,0,1-.67-2.65c0-.1,0-.2-.05-.3.07.44,0,.1,0,0s0-.38,0-.57a11.42,11.42,0,0,1,0-1.17c0-.17,0-.34,0-.51s.07-.41,0,.07a2,2,0,0,1,0-.24,8.84,8.84,0,0,1,.23-1c0-.15.09-.29.14-.43a1.8,1.8,0,0,0,.08-.21c-.15.45-.08.2,0,.09a9.1,9.1,0,0,1,.44-.81c.07-.12.15-.23.23-.35.2-.29-.24.27.06-.07a7.41,7.41,0,0,1,.61-.64c.1-.09.21-.17.31-.27s-.31.22-.09.07a1.77,1.77,0,0,0,.17-.12,7.09,7.09,0,0,1,.75-.45l.36-.19c.42-.2-.25.09.09,0a8.45,8.45,0,0,1,.85-.28,8.21,8.21,0,0,1,.83-.18c.47-.09-.28,0,.1,0l.5,0a14.29,14.29,0,0,1,1.85.05c.29,0-.39-.07-.1,0l.22,0,.45.08c.33.07.66.16,1,.26s.59.2.89.31c.1,0,.36.17-.07,0l.22.1.51.24a14.91,14.91,0,0,1,1.74,1.09c.25.18-.27-.23,0,0l.2.16.38.34c.28.25.55.52.8.79s.24.26.35.4.44.57.15.18a10.61,10.61,0,0,1,.67,1A10.82,10.82,0,0,1,234,88.7c.1.21.19.41.28.62-.18-.42.1.26.14.38a16.43,16.43,0,0,1,.73,2.86c0,.07.06.45,0,0,0,.15,0,.3,0,.45s.05.55.06.82a16.1,16.1,0,0,1,0,1.7,18,18,0,0,1-.4,3.48,1.58,1.58,0,0,0,.69,1.7,1.51,1.51,0,0,0,1.82-.24,40.91,40.91,0,0,1,3.94-3.85l1-.77s.23-.18,0,0l.22-.16c.17-.14.35-.27.54-.4.67-.48,1.36-.94,2.06-1.37s1.38-.8,2.09-1.17l1-.48.44-.2.28-.12.16-.07c-.15.06-.18.08-.08,0a31.62,31.62,0,0,1,4.13-1.35c.67-.16,1.34-.3,2-.41l.49-.08.21,0c.36-.06-.25,0,0,0l1-.11a26.16,26.16,0,0,1,4-.06l.91.07.39,0,.25,0,.15,0,.29,0,.43.07.91.17a23.33,23.33,0,0,1,3.38,1l.76.29-.07,0,.16.08.41.18c.5.23,1,.48,1.46.75s.92.55,1.35.85c.21.14.4.28.6.43s-.16-.14,0,0l.34.28a17.43,17.43,0,0,1,2,2c.15.17-.22-.3,0,0l.21.29c.13.19.26.38.37.57a10.42,10.42,0,0,1,.61,1.14c.18.38,0-.13,0,0s.07.17.1.26.15.42.21.64.1.39.14.58,0,.2.06.3l0,.16c.05.25,0-.4,0-.13a11.85,11.85,0,0,1,.06,1.19c0,.2,0,.4,0,.6,0,.39.06-.37,0,0l-.06.34a9.81,9.81,0,0,1-.37,1.28c0,.09-.07.18-.11.27.19-.5,0-.07,0,0s-.21.43-.33.64a14.39,14.39,0,0,1-.8,1.23c-.17.25.19-.22.05-.07l-.13.17-.22.26c-.19.22-.39.44-.6.65a16.09,16.09,0,0,1-1.29,1.19l-.35.28c-.21.17,0,0,.06,0l-.21.15-.83.59a29.7,29.7,0,0,1-4,2.22l-.49.22-.32.13c-.24.11.33-.13-.09,0s-.83.34-1.26.5c-.88.33-1.78.64-2.68.92-2.08.66-4.2,1.19-6.34,1.64-1.2.25-2.4.47-3.6.68a1.51,1.51,0,0,0-.36,2.74,94.56,94.56,0,0,1,8.9,4.71c1.25.75,2.49,1.54,3.7,2.37.58.4,1.16.8,1.72,1.22s1,.73,1.43,1.08a48.84,48.84,0,0,1,5.37,4.9c.74.79,1.44,1.62,2.12,2.47.17.21-.14-.2.08.1l.21.28.46.63c.29.4.56.81.82,1.23a25.15,25.15,0,0,1,1.38,2.42q.3.6.57,1.2c.12.28,0-.08,0,0l.11.26.24.62a21,21,0,0,1,.71,2.34c.09.38.17.76.23,1.15,0,.18.05.37.09.55s0-.37,0-.07c0,.11,0,.22,0,.34a16.19,16.19,0,0,1,.09,2.2c0,.36,0,.72-.05,1.08,0,.16,0,.31,0,.47s-.06.39,0,.11,0,0,0,.11a17.08,17.08,0,0,1-.46,2c-.09.33-.2.66-.31,1l-.18.46-.09.21c.11-.26.09-.2,0,0a17.23,17.23,0,0,1-.94,1.81c-.17.28-.35.56-.53.83s-.19.27-.28.4-.11.14-.16.22l0,0a21.21,21.21,0,0,1-2.9,2.94l-.18.15c-.24.2.23-.17,0,0l-.44.32-.85.58a21.25,21.25,0,0,1-1.86,1.06c-.33.16-.65.32-1,.46l-.26.12c.17-.08.27-.11.06,0l-.53.21c-.7.26-1.41.49-2.13.68s-1.45.35-2.19.47l-.55.09c-.26,0,.35,0,0,0l-.31,0c-.39,0-.78.08-1.17.1a28.07,28.07,0,0,1-4.85-.16c-.1,0,.33,0,0,0l-.32-.05-.65-.11c-.41-.07-.81-.16-1.21-.25-.85-.2-1.7-.43-2.53-.71-.42-.14-.85-.3-1.27-.46l-.61-.24c-.26-.11.24.1,0,0l-.37-.16c-.87-.39-1.71-.82-2.54-1.28s-1.67-1-2.47-1.53c-.42-.29-.84-.59-1.24-.9-.05,0-.37-.28-.22-.16l-.17-.13-.64-.52a40.9,40.9,0,0,1-4.75-4.65c-.39-.45-.77-.91-1.15-1.38l-.29-.37-.1-.13c-.2-.25-.39-.51-.59-.77-.76-1-1.49-2.11-2.18-3.2a65.21,65.21,0,0,1-4-7.42c-.62-1.38-1.12-2.58-1.68-4a1.53,1.53,0,0,0-2.2-.9,32.1,32.1,0,0,1-21,2.53,24.26,24.26,0,0,1-2.75-.85c-.93-.35-2.23-1.33-3.22-.76h1.51a17.38,17.38,0,0,1-4.85-3.62,1.51,1.51,0,0,0-2.12,0,1.53,1.53,0,0,0,0,2.12,19.14,19.14,0,0,0,3,2.64,18.59,18.59,0,0,0,1.59,1c.72.41,1.52.92,2.34.44h-1.51c6.84,3.41,15.05,3.42,22.31,1.41a37.12,37.12,0,0,0,6.18-2.32l-2.21-.9a64.34,64.34,0,0,0,8.26,15.53,42.76,42.76,0,0,0,10.14,10A31.43,31.43,0,0,0,255.15,166a27.34,27.34,0,0,0,10.51.33,23,23,0,0,0,8.68-3.33,19.81,19.81,0,0,0,6.31-6.44,17.82,17.82,0,0,0,2.49-8.69,21.47,21.47,0,0,0-2.38-10,35.27,35.27,0,0,0-8-10.26,70,70,0,0,0-14.68-10.08c-1.55-.82-3.11-1.59-4.69-2.33L253,118a65.77,65.77,0,0,0,13.1-3.42,29.59,29.59,0,0,0,8.51-4.81c3.34-2.82,5.52-7.06,4.28-11.47-1.17-4.15-4.79-7.25-8.58-9a27,27,0,0,0-15.86-2,32.6,32.6,0,0,0-17.3,9.1c-.68.66-1.32,1.34-1.95,2l2.51,1.46c.83-4.31.73-8.85-1.28-12.83a13.82,13.82,0,0,0-7.23-6.57,11.44,11.44,0,0,0-8.3-.19,8.51,8.51,0,0,0-5.33,6.38c-.76,4.21.93,8.47,3,12.06.35.6.71,1.19,1.09,1.76l1.69-2.2A25.45,25.45,0,0,0,199,101.94c-6,4.34-10.23,11.33-9.8,18.89a22.35,22.35,0,0,0,5.28,12.75,1.51,1.51,0,0,0,2.12,0A1.54,1.54,0,0,0,196.55,131.46Z" fill="#28575c"/><path d="M242.5,107.45c24.23-3.48,4.47-22.29-7.69-8,2.65-11.53-14.81-11.06-7.2.12a11.06,11.06,0,0,0-14.05,7.68c-.65-3.7-7.11-2.84-3.71,1.89-4.54-1.55-9.39,3.67-6,7.71,1.88,2,5.1,1.83,7.55.69.84,4.08,7.32,9.49,11.4,5.88,1.75-1.58,1.56-3.58.51-5.41a17.22,17.22,0,0,0,7.41-1.63c1.68,8.16,14.65,19,22.81,11.76C261.46,120.9,249.46,109.37,242.5,107.45Z" fill="#6ab3b9"/></g></g></g></svg>