<svg xmlns="http://www.w3.org/2000/svg" xmlns:xlink="http://www.w3.org/1999/xlink" width="184.9" height="310.77" viewBox="0 0 184.9 310.77"><defs><clipPath id="clip-path" transform="translate(-0.04 0)"><path d="M162.27,59.3c-6.54-7.94-16.35-11.68-25.23-15.42C148.25,28.46,144.51,7.9,124,2.3,109.47-1.44,97.32,8.6,89.38,19.35,74.43,13.74,56.21,8.84,40.32,13.51,28.64,17.25,27.24,23.79,37.05,30.8,22.1,33.13,9,39.67,4.35,55.09-.33,71.45,10.42,78.92,24.44,82.66c-18.22,18.69-35.51,51.39-10.28,72.89.58.49,1.17.95,1.76,1.39l.42.31c.59.43,1.17.83,1.76,1.21l.11.06c.56.36,1.13.68,1.69,1l.4.21c.6.32,1.19.61,1.78.88l.19.07c.54.25,1.09.46,1.64.66l.39.14c.59.21,1.18.4,1.78.56l.25.06c.53.15,1.07.27,1.6.37l.36.08c.6.1,1.19.19,1.78.26l.3,0c.52,0,1.05.09,1.57.11l.34,0c.59,0,1.17,0,1.76,0l.34,0c.52,0,1-.06,1.54-.11l.32,0c.58-.06,1.15-.14,1.72-.24l.39-.08c.5-.09,1-.2,1.5-.31l.29-.07c.57-.14,1.13-.3,1.69-.47l.42-.13,1.48-.51.25-.09c.55-.2,1.1-.43,1.64-.66l.44-.19,1.47-.69.2-.1c.53-.26,1.06-.54,1.58-.83l.45-.25c.5-.28,1-.57,1.49-.87l.16-.11c.5-.3,1-.63,1.49-1l.44-.29c.5-.34,1-.69,1.48-1h0a72.81,72.81,0,0,0,16.34-17.11c17.29,21,37.38-22,41.12-34.57,7.22,6.69,15.37,12.76,23.9,14.18.28,0,.56.1.84.13l.63.07c.23,0,.46.05.69.06l.65,0,.68,0h.65l.69,0,.64,0,.71-.07.63-.08.75-.13.59-.11.95-.24.49-.13c.41-.12.81-.25,1.21-.39l.52-.2.84-.34.57-.26.79-.38.59-.31.78-.44.58-.35.81-.53.55-.37.9-.67.46-.35c.45-.36.9-.73,1.36-1.13C169.75,99,174.42,74.72,162.27,59.3Z" fill="none"/></clipPath><clipPath id="clip-path-2" transform="translate(-0.04 0)"><path d="M167.2,159.32c4.21-5.61,8.41-11.21,11.68-17.29,6.54-12.61,7.48-29.44-7.94-36C152.72,97.65,141,114.47,134,129c-18.69-4.67-28.5,5.14-29.9,23.83,0,.42-.06.86-.08,1.32,0,.12,0,.25,0,.37q0,.54,0,1.11V156c0,.4,0,.82,0,1.24v.3c0,.51,0,1,.07,1.55v.05a31.31,31.31,0,0,0,1.18,6.93h0c.93,3.06,2.46,5.76,4.94,7.28,5.61,2.81,14-1.63,18.69-4.43A70.91,70.91,0,0,0,142,184.55c9.71,7.94,23.16,8,32.1-.71l.05-.05c.51-.5,1-1,1.49-1.58C185.89,171.47,178.88,163.06,167.2,159.32Z" fill="none"/></clipPath></defs><g id="Layer_2" data-name="Layer 2"><g id="Layer_1-2" data-name="Layer 1"><g id="na_tree_2" data-name="na_tree 2"><path d="M96.67,225a61.14,61.14,0,0,0-1.73-13.89,152.35,152.35,0,0,0,11,16A128.51,128.51,0,0,0,111.19,258c-5.36-6.74-10.32-16.76-14.51-33A0,0,0,0,1,96.67,225Z" transform="translate(-0.04 0)" fill="#eed5c4"/><path d="M134.7,306c-18.28,2.86-42.48,6.82-58.86-2.77,28-21.14,20.73-12.77,15.41-45.79-3.27-13.55-21-14-26.63-27.56l1.55-1.16c2.62,6.42,10.2,12.54,16.33,15.16,7.26,1.89,11.34,4,14,11.38-.74-7.92-.1-15.7.12-23.42,5.91,17.78,12.15,33.4,20.29,41.06A122.22,122.22,0,0,0,131,295.71C138.32,307.39,140.82,306,134.7,306Z" transform="translate(-0.04 0)" fill="#eed5c4"/><path d="M167.88,141.06c-10.28,7.48-26.63,14.49-33.64,25.7-5.14,8.41-4.67,18.22-13.08,24.76-9.81,7.95-15.42,10.28-15.42,23.83q-.06,4.31.08,8.46c-4-4-8.22-10-12.79-19.05-2.21-10.42-.1-21.09-2.07-31.49-2.63-14.58-13.25-28.81-19.84-41.7-6.7-13.13-19.83-22.46-32.95-32.08l1.46-9.62C45.75,96,50.13,103.28,56,109.41,60.63,114.66,67,117.86,70.83,124c9.76,17.71,18.62,35.59,25.08,54.82,2.34-8.46-.29-15.45-2-23.62-1.46-7.87-1.75-15.46-6.71-22.16-5-7-11.37-11.67-14.29-20.13C68.3,91.41,50.26,93.48,41.67,74.41l1.75-6.12C49.2,84.61,68.29,89.66,74,105.91c5.25-18.08,10.5-36.16,17.5-53.66l2.62,2.33a159.54,159.54,0,0,0-5.83,21c-1.59,12.85-16,32.8-7,43.74,6.4,11.09,16.33,20.82,17.79,33.83,4.64-13.4,9.24-26.84,15.75-39.37,3.5-6.12,9.91-12.54,11.08-19.54,2.33-12.83.58-25.37,8.75-36.45l2,1.46c-7.69,16-3.43,34.85-13.7,49.87C102.37,146.5,99.28,158,101.45,201.27c3.8-4.67,8.17-8.75,12-13.71,5-6.71,2.92-12.83,3.21-20.7.29-9.92,1.16-18.09,4.37-27.42l1.75.88c-4.08,14.29-3.79,28.87-3.21,43.74,17.35-27.7,16.1-30.41,46.95-45.2Z" transform="translate(-0.04 0)" fill="#eed5c4"/><path d="M96.62,231.8c.08-2.27.11-4.53.06-6.8,4.19,16.2,9.15,26.22,14.51,33a110.15,110.15,0,0,0,5.72,14.9C108.77,265.2,102.53,249.58,96.62,231.8Z" transform="translate(-0.04 0)" fill="#e5ba9c"/><path d="M106,227.08a152.35,152.35,0,0,1-11-16,46.72,46.72,0,0,0-1.65-5.16c-.09-.39-.18-.78-.26-1.17,4.57,9.07,8.79,15,12.79,19.05C105.86,224.91,105.9,226,106,227.08Z" transform="translate(-0.04 0)" fill="#e5ba9c"/><path d="M132.26,295a118.4,118.4,0,0,1-18.79-34.75,131.48,131.48,0,0,1-6.21-38.48c-.12-5.48-.65-11.72,1.93-16.76,2-3.94,5.71-6.65,9.12-9.3a44.22,44.22,0,0,0,7-6.08,27.87,27.87,0,0,0,4.34-7.51c2.24-5.49,3.44-11.38,7-16.24,3.94-5.37,9.65-9.32,15.19-12.86s11.41-6.74,16.77-10.62a1.52,1.52,0,0,0,.54-2.05l-1.39-2.21a1.56,1.56,0,0,0-2.06-.54c-8.53,4.1-17.38,8.22-24.77,14.24-5.5,4.48-9.55,10.29-13.3,16.26-3.18,5.05-6.25,10.18-9.42,15.25l2.8.75c-.57-14.52-.83-29.23,3.15-43.34a1.52,1.52,0,0,0-.68-1.7l-1.75-.87a1.53,1.53,0,0,0-2.21.89c-3,8.7-4.09,17.71-4.4,26.86-.13,3.92.29,7.83.12,11.75a17.6,17.6,0,0,1-4.51,10.85c-3.32,4-7.06,7.67-10.36,11.71l2.56,1.06c-.89-17.72-1.6-35.89,3.57-53.08a142.19,142.19,0,0,1,9.75-23.25c2.45-4.81,5-9.56,7.62-14.28a78.59,78.59,0,0,0,4-7.33,49.84,49.84,0,0,0,2.51-7.64C133.27,83.88,132.73,71.18,138,60a1.56,1.56,0,0,0-.54-2.06l-2-1.46a1.54,1.54,0,0,0-2,.54c-3.89,5.36-5.83,11.63-6.74,18.14s-.91,13-2.3,19.41c-1.32,6-5.84,10.86-9.17,15.85a66.1,66.1,0,0,0-4.76,9c-1.52,3.29-2.93,6.62-4.28,10-3.08,7.69-5.77,15.52-8.48,23.34l3,.4c-.9-7.47-4.35-14.05-8.45-20.23-2.08-3.13-4.29-6.17-6.37-9.29-1.07-1.61-2-3.28-3.08-4.9a18.55,18.55,0,0,1-2-3.32c-2-5.34-.24-11.51,1.49-16.68,2-6,4.72-11.77,6.48-17.85,1.09-3.76,1.59-7.68,2.55-11.48C92.48,64.53,94,59.73,95.61,55a1.49,1.49,0,0,0-.39-1.46L92.6,51.19a1.52,1.52,0,0,0-2.51.66c-7,17.49-12.25,35.59-17.5,53.66h2.89c-2.21-6.14-6.35-11.07-11.11-15.43s-9.81-8.1-14-12.93a29.82,29.82,0,0,1-5.55-9.26,1.51,1.51,0,0,0-2.89,0A59.82,59.82,0,0,0,40.22,74c-.16,1,.51,2,1,2.84s1,1.84,1.56,2.73a35.8,35.8,0,0,0,3.63,4.78c4.69,5.23,10.9,8.59,16.09,13.24a28.32,28.32,0,0,1,6.44,8.23,30,30,0,0,1,2.18,6,25.68,25.68,0,0,0,2.71,6.68c2.41,4.14,5.76,7.61,8.85,11.23,3.35,3.91,6,8,7.4,13,1.53,5.64,2,11.52,3.38,17.2,1.48,6.17,2.72,12.26,1,18.53h2.89A299.83,299.83,0,0,0,79.9,137.82q-2.48-4.83-5.06-9.6a42.45,42.45,0,0,0-5.48-8.63,62.58,62.58,0,0,0-6.85-6.16,62.25,62.25,0,0,1-6.7-6.39c-5.29-5.88-9.54-12.61-15.12-18.23a1.51,1.51,0,0,0-2.51.66l-1.46,9.62a1.62,1.62,0,0,0,.69,1.7c8.76,6.42,17.8,12.78,25.05,20.94A64.33,64.33,0,0,1,71,134.51c2.57,4.78,5.39,9.42,8.08,14.14,5.58,9.79,10.52,19.88,11.19,31.32.35,6.1-.06,12.21.39,18.31a34.43,34.43,0,0,0,1.55,9,48.2,48.2,0,0,1,2.23,8.69c2.13,13-.59,26.22.58,39.28l3-.4a18.17,18.17,0,0,0-5.23-8.08,22.42,22.42,0,0,0-8.12-3.88,26.94,26.94,0,0,1-9.74-5.57,25.66,25.66,0,0,1-7.39-9.37,1.5,1.5,0,0,0-2-.54l-1.55,1.16a1.57,1.57,0,0,0-.54,2.05c3.11,7.34,10,11.22,16.35,15.35,2.85,1.85,5.75,3.88,7.76,6.68,2.43,3.4,2.7,7.41,3.48,11.4,1.08,5.56,2.78,11,3.65,16.64a11.56,11.56,0,0,1-.08,4.07,8.64,8.64,0,0,1-2.13,3.51,49.06,49.06,0,0,1-6.19,5.32c-3.67,2.82-7.4,5.55-11.08,8.33a1.52,1.52,0,0,0,0,2.59c10.89,6.3,24.11,6.84,36.36,6,6.34-.46,12.63-1.33,18.9-2.3a36.53,36.53,0,0,1,6.5-.64c1.08,0,2.41,0,2.75-1.31s-1.13-2.65-1.88-3.58a79.13,79.13,0,0,1-5.45-7.65c-1-1.63-3.63-.13-2.59,1.51,1.51,2.39,3.12,4.71,4.86,6.94.51.65,1,1.28,1.54,1.91.18.22.64.88.66.87.28-.11-.43.82,0-.13.22-.55-.1-1,.59-1.43.17-.11.62-.09.33-.12-.45-.05-.92,0-1.37,0a36.88,36.88,0,0,0-6.69.77c-11.53,1.77-23.32,3.31-35,2.08a45.08,45.08,0,0,1-18-5.44v2.59c3.48-2.62,7-5.21,10.46-7.85a72,72,0,0,0,6.41-5.26c2.65-2.52,4.43-5.46,4.24-9.21a35.11,35.11,0,0,0-1.06-6.27c-.68-3-1.41-5.9-2.06-8.87-.44-2-.85-4.1-1.22-6.16a30.33,30.33,0,0,0-1.52-6.44,20.9,20.9,0,0,0-6.79-8.35c-6.82-5.29-15.55-8.52-19.14-17l-.54,2L66.92,230l-2-.53C67.79,236.35,74.69,242,81.42,245c1.54.69,3.26,1,4.84,1.55a17,17,0,0,1,3.76,1.9,14.36,14.36,0,0,1,5,7.17c.54,1.47,3.1,1.4,2.94-.4-1.07-11.92,1-23.88-.13-35.79a57.55,57.55,0,0,0-1.51-8.86c-.37-1.39-.79-2.77-1.28-4.12A24.51,24.51,0,0,1,94,201.71c-.9-6.23-.48-12.58-.64-18.86A57.05,57.05,0,0,0,90.59,166a97.32,97.32,0,0,0-7.09-15.51c-2.72-4.94-5.66-9.76-8.42-14.69-2.58-4.58-4.86-9.18-8.14-13.33-7.68-9.74-18.1-17-28-24.22l.69,1.69,1.45-9.62-2.5.66c4.84,4.89,8.7,10.6,13.09,15.88a62.3,62.3,0,0,0,6.62,7c2.27,2,4.68,3.79,6.89,5.84a28.89,28.89,0,0,1,5.73,7.62Q73.49,132,76,136.82c3.33,6.4,6.5,12.88,9.45,19.47,3.35,7.5,6.38,15.14,9,22.92a1.51,1.51,0,0,0,2.89,0c2.63-9.87-1.3-19.52-2.84-29.23-.72-4.54-1.53-9.07-3.45-13.28s-4.91-7.54-7.84-10.89-5.74-6.52-7.69-10.43a39.58,39.58,0,0,1-2.07-6.17A32,32,0,0,0,71.33,104c-3-5.79-8-9.79-13.14-13.56a70.89,70.89,0,0,1-8.14-6.6A34.15,34.15,0,0,1,43,73.65l.15,1.16,1.75-6.12H42c2.22,6.15,6.36,11.1,11.13,15.48s9.8,8.09,14,12.91a29.58,29.58,0,0,1,5.53,9.22,1.51,1.51,0,0,0,2.89,0C80.73,88.24,86,70.14,93,52.65l-2.51.66,2.63,2.33-.39-1.46C91.25,58.4,89.92,62.67,88.78,67c-1,3.66-1.56,7.39-2.43,11.07-1.44,6.1-4.16,11.86-6.27,17.74-2,5.59-3.92,11.73-2.94,17.73a15.6,15.6,0,0,0,1.23,3.93c.62,1.3,1.53,2.41,2.27,3.64,1.92,3.21,4.08,6.27,6.22,9.35,4.77,6.88,9.74,14.17,10.76,22.7a1.5,1.5,0,0,0,2.94.4c2.4-6.92,4.78-13.85,7.43-20.68,1.34-3.43,2.73-6.84,4.24-10.19a76.9,76.9,0,0,1,4.71-9.44c3.26-5.2,7.56-9.83,9.67-15.69a38.38,38.38,0,0,0,1.63-8.85c.37-3.21.6-6.43.94-9.64.77-7.35,2.4-14.44,6.81-20.51l-2.05.53,2,1.46-.54-2c-4.79,10.1-5.05,21.26-7,32.07a48.29,48.29,0,0,1-5.11,15.3c-1.46,2.56-3,5.07-4.39,7.66-1.31,2.41-2.6,4.82-3.86,7.25a165.36,165.36,0,0,0-10.61,24,99.14,99.14,0,0,0-4.55,22.75c-1,11.2-.5,22.5.06,33.72.06,1.17,1.68,2.14,2.56,1.06,3-3.62,6.27-6.94,9.32-10.48,2.86-3.32,5.38-6.72,6.11-11.14.63-3.84.19-7.72.15-11.58a108.14,108.14,0,0,1,.8-13.82,76,76,0,0,1,3.55-15.47l-2.21.9,1.75.87-.69-1.69c-4.05,14.37-3.84,29.36-3.26,44.14a1.52,1.52,0,0,0,2.8.76c4.81-7.69,9.2-15.81,14.69-23A51.8,51.8,0,0,1,151,148.54c5.24-3.08,10.72-5.76,16.21-8.39l-2.06-.53,1.4,2.2.54-2c-9.82,7.1-21.39,12-29.9,20.82a30.91,30.91,0,0,0-5.21,7.07,59.55,59.55,0,0,0-3.42,8.55,47.05,47.05,0,0,1-3.36,8.26,23.72,23.72,0,0,1-6.31,6.93c-3.83,3-8.08,5.87-11,9.88-3.21,4.43-3.67,9.84-3.7,15.14a142.34,142.34,0,0,0,4.92,39.94,117.24,117.24,0,0,0,17.33,35.8c1,1.46,2.1,2.89,3.19,4.31S133.44,296.49,132.26,295Z" transform="translate(-0.04 0)" fill="#af7553"/><path d="M162.27,59.3c-6.54-7.94-16.35-11.68-25.23-15.42,23.87-36.76-26.81-59.32-47.66-24.53C74.43,13.74,56.21,8.84,40.32,13.51,28.64,17.25,27.24,23.79,37.05,30.8,6.29,32.25-14.06,74.42,24.44,82.66c-19.09,19.09-36.06,54.2-8.1,74.59,11.46,9.12,27.6,6.26,38.48-2.35h0a72.81,72.81,0,0,0,16.34-17.11c17.29,21,37.38-22,41.12-34.57C147.73,141.77,184.88,92.59,162.27,59.3Z" transform="translate(-0.04 0)" fill="#c3bf4f"/><path d="M163.33,58.24c-5.14-6.19-12.35-10-19.6-13.15-2.09-.91-4.2-1.77-6.29-2.66l.89,2.21c3.9-6,6.76-13.1,6.44-20.38a23.7,23.7,0,0,0-6.56-15.4,27.48,27.48,0,0,0-14.56-7.73,31.52,31.52,0,0,0-17.78,1.72A36.63,36.63,0,0,0,89.69,16.11c-.56.81-1.09,1.64-1.6,2.48l1.69-.69c-10.92-4.08-22.39-7.43-34.12-7.74a46.71,46.71,0,0,0-17.17,2.4c-3.67,1.34-8.34,3.62-9.28,7.84-1.12,5,3.46,9.08,7.08,11.69l.76-2.79a38,38,0,0,0-17.27,5.18A39.67,39.67,0,0,0,7.34,46a29.61,29.61,0,0,0-5.4,14.33A19.9,19.9,0,0,0,5.85,74c3.79,4.94,9.55,7.84,15.44,9.47.91.26,1.83.48,2.75.68l-.66-2.51A91.69,91.69,0,0,0,8.58,101,63.48,63.48,0,0,0,.43,124a36.06,36.06,0,0,0,4.13,22.64,37.22,37.22,0,0,0,8.3,9.77,32.37,32.37,0,0,0,12.66,7c9.33,2.39,19.47-.12,27.4-5.34,1-.67,2-1.4,3-2.16a1.5,1.5,0,0,0-.66-2.5h0l.36,2.74a74.44,74.44,0,0,0,16.87-17.65l-2.35.3c2.8,3.39,6.66,6.18,11.22,6.14,4.19,0,8-2.29,11-4.94a52.55,52.55,0,0,0,9.36-11.23,104.47,104.47,0,0,0,7.18-13,87.79,87.79,0,0,0,4.83-12.17l-2.5.66C117,110.49,124.07,116,132.42,118a27.68,27.68,0,0,0,19.19-2.24,34,34,0,0,0,13.63-13.46,41.87,41.87,0,0,0,5.43-19.81A41.24,41.24,0,0,0,165.11,61c-.48-.84-1-1.66-1.55-2.47A1.5,1.5,0,0,0,161,60.05a38.6,38.6,0,0,1,2.85,38.51,35.72,35.72,0,0,1-5,7.68,34.06,34.06,0,0,1-3.24,3.23c-.6.52-1.06.89-1.55,1.25s-1.24.88-1.88,1.28a23.8,23.8,0,0,1-7.91,3.27,19.84,19.84,0,0,1-4.24.53,21.84,21.84,0,0,1-2.29,0q-.58,0-1.17-.09c-.52-.05-.59-.06-1-.12-7.59-1.18-14.19-5.51-19.65-10.81-.87-.84-1.71-1.71-2.52-2.59a1.51,1.51,0,0,0-2.51.66c-.44,1.49-1,3-1.52,4.4-.35.92-.71,1.83-1.09,2.74l-.1.24c-.17.4.12-.28-.05.13l-.32.74c-.22.5-.44,1-.67,1.51a110.85,110.85,0,0,1-6.69,12.72,56.65,56.65,0,0,1-8.44,11c-.76.75-1.55,1.47-2.38,2.14l-.26.21c-.34.27.23-.18-.11.08l-.62.46c-.41.29-.83.57-1.26.83s-.77.44-1.16.65l-.64.31-.32.14c.23-.1.07,0-.07,0a13.56,13.56,0,0,1-2.58.73s-.38.05-.12,0-.2,0-.24,0c-.25,0-.5,0-.76,0a11.1,11.1,0,0,1-1.41-.07c.43,0-.23,0-.36-.07l-.76-.19a7.66,7.66,0,0,1-.77-.25l-.21-.08c-.23-.08.19.1-.19-.08a15.22,15.22,0,0,1-5.51-4.52,1.52,1.52,0,0,0-2.36.31,70.06,70.06,0,0,1-15.8,16.57,1.52,1.52,0,0,0,.36,2.74h0l-.66-2.51c-6.82,5.37-16,8.55-24.72,7.27a24.89,24.89,0,0,1-6.34-1.76,30.38,30.38,0,0,1-6-3.66,35.7,35.7,0,0,1-8.46-8.75,32.19,32.19,0,0,1-5.07-20.8c.59-7.44,3.29-14.9,6.81-21.56A87.49,87.49,0,0,1,23.59,85.69c.62-.66,1.26-1.32,1.91-2a1.52,1.52,0,0,0-.66-2.51,37.58,37.58,0,0,1-9.24-3.14A25.48,25.48,0,0,1,12,75.83l-.2-.15-.33-.26c-.27-.21-.53-.44-.78-.66-.47-.42-.91-.85-1.33-1.3l-.56-.63-.29-.34-.12-.15c-.25-.32.11.14,0,0-.35-.46-.68-.93-1-1.42s-.57-1-.82-1.49c-.13-.25-.24-.5-.36-.76,0-.07.08.19,0-.08L6,68.1a18.24,18.24,0,0,1-.87-3.24L5,64.51l0-.24s0,.29,0,.11-.07-.59-.09-.88c0-.55-.06-1.11-.06-1.66s0-1.13.08-1.68L5,59.37c0-.39,0,.14,0-.14s.05-.32.07-.48A26.19,26.19,0,0,1,6,55.36c.18-.56.37-1.12.59-1.68,0-.14.11-.28.17-.42.12-.32,0,.06.07-.17s.24-.56.37-.83A33.06,33.06,0,0,1,8.93,49a31.45,31.45,0,0,1,4.67-5.92,39.36,39.36,0,0,1,2.93-2.7c.62-.51.81-.66,1.41-1.1s1.1-.79,1.67-1.16A39.69,39.69,0,0,1,23.23,36c.62-.31,1.25-.61,1.88-.89s1-.44,1.72-.69a35.09,35.09,0,0,1,4.05-1.24c.69-.17,1.39-.32,2.09-.44s1.26-.21,1.9-.28,1.45-.14,2.18-.17a1.52,1.52,0,0,0,.76-2.8,18.52,18.52,0,0,1-4.62-4.42,10.74,10.74,0,0,1-.62-1,3.94,3.94,0,0,1-.36-.94c-.05-.16-.08-.32-.12-.47-.08-.35,0,.08,0-.27,0-.15,0-.3,0-.46s.06-.71,0-.37a6.66,6.66,0,0,1,.22-.88l.09-.25c-.1.26,0,0,0,0s.19-.36.3-.54a6.66,6.66,0,0,1,1.47-1.63,18.28,18.28,0,0,1,5.39-2.85,44.32,44.32,0,0,1,15.89-2.2,77.53,77.53,0,0,1,16.18,2.21A145.25,145.25,0,0,1,89,20.8a1.53,1.53,0,0,0,1.7-.69A34.78,34.78,0,0,1,105,6.52,25,25,0,0,1,108.83,5a32.38,32.38,0,0,1,4.24-1l.54-.08.35-.05.35,0,.61-.07c.7-.06,1.4-.1,2.11-.12a31.88,31.88,0,0,1,4.14.2l.2,0c.23,0-.24,0,0,0l.46.07c.35.05.69.11,1,.18.66.13,1.31.28,2,.46s1.28.36,1.91.58l.91.33.41.17.24.1,0,0a27,27,0,0,1,3.41,1.79c.55.35,1.09.71,1.61,1.09l.29.22.24.19.76.64a23.91,23.91,0,0,1,2.66,2.76l.27.34c.14.17-.14-.19,0,0l.11.15c.21.28.41.56.61.85.36.54.69,1.09,1,1.65s.58,1.11.83,1.68a2.29,2.29,0,0,1,.1.23c0-.05-.11-.27,0,0s.11.28.16.41c.12.32.24.64.34,1,.21.64.39,1.28.54,1.93.07.32.14.64.2,1,0,.15.05.31.08.46s.08.56.07.46,0,.24,0,.33l.06.54c0,.36,0,.73.06,1.09,0,.71,0,1.41,0,2.11a21,21,0,0,1-.59,4.32,35.12,35.12,0,0,1-3.88,9.76c-.49.86-1,1.71-1.55,2.54a1.53,1.53,0,0,0,.9,2.21c8.88,3.73,18.24,7.41,24.57,15a1.5,1.5,0,0,0,2.12-2.12Z" transform="translate(-0.04 0)" fill="#6c6120"/><g clip-path="url(#clip-path)"><path d="M140.36,40.9c-3.92-4.75-9.8-7-15.11-9.23C139.54,9.65,109.19-3.86,96.7,17c-9-3.36-19.87-6.3-29.38-3.5-7,2.24-7.84,6.15-2,10.35C46.93,24.7,34.74,50,57.8,54.9,46.89,66.09,36.53,85.68,51.65,98.55,58.52,105,69,103.79,76,98.17h0a44,44,0,0,0,9.79-10.25c10.35,12.59,22.38-13.16,24.62-20.71C130.44,89.91,154.3,61.7,140.36,40.9Z" transform="translate(-0.04 0)" fill="#dfe590"/><path d="M84.83,40.7c-2.42-2.93-6-4.31-9.31-5.69,8.92-13.44-10.12-21.88-17.59-9-4-3-29.15-5.24-19.31,4.22C27.34,30.51,19.86,46.52,34,49.32c-6.72,6.9-13.1,19-3.79,26.9,4.23,4,10.71,3.23,15-.24h0a26.91,26.91,0,0,0,6-6.31c6.38,7.75,13.8-8.11,15.18-12.76C78.32,70.9,93.6,53.4,84.83,40.7Z" transform="translate(-0.04 0)" fill="#dfe590"/><path d="M155,72.64c-1.71-2.07-4.26-3-6.58-4,6.43-9.34-7.37-15.46-12.42-6.39-3-2.12-20.27-3.83-13.64,3-8,.23-13.25,11.54-3.29,13.52-4.75,4.87-9.26,13.4-2.68,19,3,2.81,7.56,2.28,10.6-.16h0a19,19,0,0,0,4.26-4.46c4.5,5.49,9.74-5.72,10.72-9C150.4,94,161.2,81.61,155,72.64Z" transform="translate(-0.04 0)" fill="#dfe590"/><path d="M83.82,29.37a7.14,7.14,0,0,0-2.93-1.79c2.94-4-3.43-6.88-5.52-2.84-1.43-1-8.84-1.73-6.07,1.32-3.52,0-5.83,5.25-1.46,6-4.45,3.49-2.81,12,3.52,8.37h0a8.25,8.25,0,0,0,1.89-2c2,2.44,4.34-2.55,4.77-4C81.51,38.86,86.71,33.23,83.82,29.37Z" transform="translate(-0.04 0)" fill="#ffeb81"/><path d="M121.07,29.73a5,5,0,0,0-2-1.24c2-2.8-2.39-4.78-3.84-2-1-.67-6.14-1.19-4.22.93-2.45,0-4,3.64-1,4.18-3.09,2.23-1.84,8.44,2.45,5.82h0a5.94,5.94,0,0,0,1.32-1.38c1.39,1.69,3-1.77,3.31-2.79C119.47,36.33,123.08,32.42,121.07,29.73Z" transform="translate(-0.04 0)" fill="#ffeb81"/><path d="M78.24,99.6c-2.2-2.67-5.49-3.93-8.48-5.18,8.13-12.24-9.21-19.93-16-8.24C50,83.45,27.36,81.33,36.17,90c-10.27.3-17.08,14.88-4.24,17.43-6.12,6.28-11.93,17.27-3.45,24.49,3.85,3.61,9.75,2.94,13.66-.22h0A24.33,24.33,0,0,0,47.63,126c5.81,7.07,12.56-7.38,13.81-11.61C72.32,127.1,86.23,111.16,78.24,99.6Z" transform="translate(-0.04 0)" fill="#dfe590"/></g><path d="M163.33,58.24c-6.66-8-16.55-11.88-25.89-15.81l.89,2.21c6.63-9.17,9-22,2.77-32A27,27,0,0,0,127.4,1.83,27,27,0,0,0,116.59,0,28.15,28.15,0,0,0,106.1,2.72c-7.35,3.41-13.25,9.44-18,15.87l1.69-.69c-11-4.09-22.46-7.46-34.23-7.74a46.6,46.6,0,0,0-17.07,2.4c-3.66,1.35-8.32,3.62-9.27,7.83-1.13,5,3.46,9.09,7.08,11.7l.36-2.74C25.27,31.15,13.8,35.72,7.14,45.61A30.33,30.33,0,0,0,1.75,63a18.44,18.44,0,0,0,6,13.14c4.5,4.12,10.44,6.39,16.25,8l-.66-2.51A99,99,0,0,0,9,100.23a63.71,63.71,0,0,0-8.43,22,37,37,0,0,0,2.89,22.34,37.4,37.4,0,0,0,19.75,18.17c9.82,3.71,20.4,1.13,29.05-4.27,1.13-.7,2.22-1.44,3.29-2.22a1.52,1.52,0,0,0-.36-2.74h0l.36,2.74a74.64,74.64,0,0,0,16.87-17.65l-2.35.3c2.79,3.38,6.63,6.16,11.18,6.14,4.17,0,7.92-2.25,11-4.88a51.93,51.93,0,0,0,9.35-11.17,106,106,0,0,0,7.27-13.16,88.88,88.88,0,0,0,4.82-12.16l-2.5.66c6.09,5.63,12.92,11.15,20.95,13.69a24.67,24.67,0,0,0,11.22,1,25,25,0,0,0,11.05-4.83c10.76-8.06,16.79-21.74,16.28-35.1a35.64,35.64,0,0,0-7.39-20.77,1.5,1.5,0,0,0-2.12,0,1.54,1.54,0,0,0,0,2.12C168.85,70.12,169.3,83.73,165,95a37.8,37.8,0,0,1-10,14.75,25.2,25.2,0,0,1-9.7,5.68,20.32,20.32,0,0,1-10,.28c-8.52-1.87-15.73-7.77-22-13.55a1.52,1.52,0,0,0-2.51.66c-.45,1.5-1,3-1.53,4.44-.34.89-.69,1.77-1.06,2.64-.18.44-.23.57-.47,1.12l-.67,1.53a112.39,112.39,0,0,1-6.66,12.67,57.65,57.65,0,0,1-8.5,11.13A23.47,23.47,0,0,1,87.38,140q-.57.36-1.17.66l-.58.29-.35.16c-.33.14.18-.08-.12,0a14.13,14.13,0,0,1-2.54.72l-.3.05c.39-.05-.06,0-.14,0l-.66,0a9.79,9.79,0,0,1-1.43-.07c.37.05-.31,0-.44-.08a6.25,6.25,0,0,1-.72-.17c-.24-.07-.48-.14-.72-.23l-.36-.13c-.3-.12.2.09-.12-.06a15.55,15.55,0,0,1-5.51-4.52,1.52,1.52,0,0,0-2.36.31,70.06,70.06,0,0,1-15.8,16.57,1.52,1.52,0,0,0,.36,2.74h0l-.36-2.74c-7.69,5.59-17.2,9.49-26.8,7.18-8.45-2-15.9-8.43-20.18-15.89a33.07,33.07,0,0,1-3.81-20.37c.85-7.31,3.66-14.36,7.2-20.77A93.38,93.38,0,0,1,23.66,85.65c.6-.65,1.22-1.29,1.84-1.93a1.52,1.52,0,0,0-.66-2.51c-4.83-1.29-9.74-3-13.72-6.14a15.76,15.76,0,0,1-6.27-10.6C4.23,59,6,53.27,8.81,48.58A30,30,0,0,1,20,37.87a51.59,51.59,0,0,1,17.47-5.63c1.41-.22,1.28-2.07.36-2.74a17.94,17.94,0,0,1-4.63-4.44,6.81,6.81,0,0,1-1-1.93,4,4,0,0,1-.16-1.72,4.14,4.14,0,0,1,.63-1.62,7.31,7.31,0,0,1,1.51-1.63,17.8,17.8,0,0,1,5.46-2.85,44.45,44.45,0,0,1,15.75-2.15,77.34,77.34,0,0,1,16.16,2.21A141.47,141.47,0,0,1,89,20.8a1.55,1.55,0,0,0,1.7-.69c4-5.35,8.78-10.3,14.6-13.6A24.38,24.38,0,0,1,124.45,4a25.07,25.07,0,0,1,13.16,8.8,22.15,22.15,0,0,1,4.13,13.72,30,30,0,0,1-6,16.6c-.63.88.1,1.87.9,2.21,8.88,3.73,18.24,7.41,24.57,15a1.5,1.5,0,0,0,2.12-2.12Z" transform="translate(-0.04 0)" fill="#6c6120"/><path d="M93.08,219.17c-3.4-7-12.25-4.63-16.78-.08-12-21.6-30.17,4.19-14.48,16.35-24.56,25.83,11.72,26.44,22,5.84C94.36,236.38,96.38,225.4,93.08,219.17Z" transform="translate(-0.04 0)" fill="#c3bf4f"/><path d="M94.37,218.42a8.94,8.94,0,0,0-6.71-5,13.86,13.86,0,0,0-8.53,1.77A16.67,16.67,0,0,0,75.24,218l2.36.3c-1.94-3.45-4.57-6.83-8.33-8.37a9.37,9.37,0,0,0-8.13.53c-5.45,3-7.67,10.06-6.65,15.92a16.68,16.68,0,0,0,6.26,10.09v-2.12A49.79,49.79,0,0,0,55,241.56a19.67,19.67,0,0,0-2.68,5.81c-.78,3.12-.14,6.3,2.56,8.25,2.48,1.79,5.92,1.95,8.84,1.57a27.71,27.71,0,0,0,11.2-4.12,28.56,28.56,0,0,0,9.36-9.51c.29-.5.56-1,.82-1.52l-.54.54a20.27,20.27,0,0,0,9.26-8.49A17.9,17.9,0,0,0,96,223.83a14.82,14.82,0,0,0-1.58-5.41,1.5,1.5,0,1,0-2.59,1.51l.21.42.1.21c.17.34-.08-.2,0,0s.25.63.35,1a13.85,13.85,0,0,1,.48,2.12c0,.22,0-.26,0,0a2.11,2.11,0,0,1,0,.25c0,.17,0,.34,0,.52q0,.59,0,1.17c0,.38,0,.76,0,1.14l-.06.54c0,.06,0,.29,0,0l-.06.34A16.47,16.47,0,0,1,92.3,230c-.11.36-.24.72-.38,1.08,0,.09-.08.18-.11.27,0-.06.1-.23,0,0s-.21.45-.32.67a15.2,15.2,0,0,1-2.89,4.08A17.6,17.6,0,0,1,84,239.49a3.39,3.39,0,0,0-1.58,1.09c-.18.32-.33.65-.51,1-.36.64-.75,1.27-1.16,1.88-.19.28-.38.55-.58.82,0,.05-.4.51-.18.24l-.35.43c-.44.54-.9,1.06-1.39,1.56s-1,1-1.48,1.43l-.77.66-.37.3-.19.15c-.31.25.25-.18-.07.06a31.32,31.32,0,0,1-3.31,2.16c-.56.32-1.13.61-1.71.89l-.8.37-.2.08-.46.18a25.34,25.34,0,0,1-3.4,1.08c-.56.13-1.13.24-1.7.33l-.23,0-.23,0-.83.07a17.43,17.43,0,0,1-3-.06c.49.05-.13,0-.31-.06s-.46-.09-.68-.15l-.58-.17c-.16-.06-.8-.35-.31-.1-.35-.18-.7-.34-1-.55l-.23-.15c-.29-.2,0,.05.05,0s-.4-.35-.44-.39-.23-.25-.34-.38.17.28,0,0l-.16-.24c-.1-.16-.18-.32-.27-.48s0,.06,0,.06-.07-.19-.1-.28-.11-.37-.16-.56,0-.18-.05-.27c-.07-.3,0,.41,0,0a8.18,8.18,0,0,1,0-1.31s0-.46,0-.17,0-.16,0-.22c0-.25.1-.5.16-.75a12,12,0,0,1,.55-1.66,1.19,1.19,0,0,1,.08-.2s-.14.3,0,.05l.18-.41q.23-.48.48-1Q57,244,57.6,243a34.13,34.13,0,0,1,3.12-4.13c.7-.82,1.42-1.61,2.16-2.39a1.52,1.52,0,0,0,0-2.12,17.38,17.38,0,0,1-2-1.82c-.28-.29-.54-.6-.8-.91,0-.05-.23-.29-.07-.08,0-.07-.11-.14-.16-.22s-.27-.37-.39-.56a14,14,0,0,1-1.15-2.07l-.11-.24c0,.06.11.27,0,0L58,228c-.13-.37-.25-.75-.36-1.13s-.16-.68-.23-1l-.09-.55c0-.05,0-.31,0-.1s0-.17,0-.22a14.56,14.56,0,0,1-.06-2.09c0-.35,0-.7.08-1.05a1.94,1.94,0,0,1,0-.24c0,.35,0,.13,0,.06s.06-.39.1-.58a13.87,13.87,0,0,1,.52-2c.1-.3.21-.6.33-.89s-.11.24,0,0,.08-.17.11-.26l.24-.49a14.08,14.08,0,0,1,1-1.63l.28-.39c-.19.27,0,0,.09-.11s.43-.5.66-.73.41-.41.63-.6l.3-.26c.26-.22-.2.15,0,0l.2-.15a9.55,9.55,0,0,1,1.52-.88c.37-.19-.21.05.13-.06l.4-.14a6.1,6.1,0,0,1,.84-.22l.37-.07c.26,0-.08,0-.11,0l.24,0c.31,0,.62,0,.93,0l.39,0c.42,0-.15,0,.1,0s.64.12,1,.21l.51.16.26.1c.26.09-.18-.08,0,0,.35.16.69.33,1,.52a11.41,11.41,0,0,1,1,.69c.2.14-.27-.23.06,0l.25.21.51.45A19.6,19.6,0,0,1,75,219.85a1.52,1.52,0,0,0,2.36.3A14.39,14.39,0,0,1,78.62,219l.26-.2.36-.25c.27-.18.54-.36.82-.52a11.82,11.82,0,0,1,3.18-1.4l.85-.22.43-.08.37-.06a12.47,12.47,0,0,1,1.69-.05l.41,0h-.06l.21,0c.29.06.57.12.86.2l.39.12.14,0a5.85,5.85,0,0,1,.79.4l.41.26.17.12c.19.14-.16-.13,0,0a9.61,9.61,0,0,1,.73.7,4.33,4.33,0,0,1,.51.67,9.62,9.62,0,0,1,.61,1.08,1.5,1.5,0,0,0,2.59-1.51Z" transform="translate(-0.04 0)" fill="#6c6120"/><path d="M80.85,219.86c-1.61-3.36-5.82-2.21-8,0-5.49-10.24-14.44,2.09-6.89,7.77-11.67,12.19,5.67,12.57,10.44,2.78C81.46,228,82.42,222.82,80.85,219.86Z" transform="translate(-0.04 0)" fill="#dfe590"/><path d="M77.47,234.24c-1.33-2.76-4.78-1.81-6.55,0-4.5-8.4-11.85,1.72-5.65,6.39-9.57,9.84,4.76,10.34,8.57,2.27C78,241,78.76,236.67,77.47,234.24Z" transform="translate(-0.04 0)" fill="#dfe590"/><path d="M94.37,218.42a9.58,9.58,0,0,0-8.91-5.28c-3.91.24-7.32,2.4-10.22,4.89l2.36.3c-3-4.53-8.37-11.27-14.69-8.93-3.36,1.25-5.94,4.46-7.39,7.65a15.07,15.07,0,0,0-1,9.81,18.92,18.92,0,0,0,6.23,9.64v-2.12a43.86,43.86,0,0,0-6,7.35c-1.58,2.5-3.16,5.58-2.95,8.63a6.66,6.66,0,0,0,1.69,4.09A9.4,9.4,0,0,0,58,257c5.09,1.43,10.39.08,14.84-2.57A37.6,37.6,0,0,0,85.07,242l-.54.54a20.27,20.27,0,0,0,9.26-8.49A17.9,17.9,0,0,0,96,223.83a14.82,14.82,0,0,0-1.58-5.41,1.5,1.5,0,1,0-2.59,1.51c.12.23.23.45.33.68s0-.07,0-.08l.07.16.16.45a11.62,11.62,0,0,1,.44,1.53c.06.26.11.53.15.8,0,.12,0,.37,0,.1,0,.17,0,.34,0,.51a16.19,16.19,0,0,1,.06,1.7c0,.29,0,.58,0,.87l0,.41c0,.09-.06.49,0,.21-.09.61-.22,1.23-.37,1.83a17.12,17.12,0,0,1-.59,1.84l-.16.4c.09-.21-.06.12-.09.18-.14.31-.29.62-.45.92a16.37,16.37,0,0,1-5.37,5.93,20.79,20.79,0,0,1-2,1.2,3.71,3.71,0,0,0-1.27.8c-.3.36-.52.79-.78,1.17a37.54,37.54,0,0,1-3.06,4,31.46,31.46,0,0,1-8.13,6.71,16.58,16.58,0,0,1-9.72,2.3,13.88,13.88,0,0,1-2.11-.44c-.31-.08-.61-.18-.91-.29l-.26-.1-.35-.16c-.22-.11-.43-.23-.64-.36l-.34-.22-.13-.09c-.17-.13.2.17,0,0s-.34-.3-.5-.47l-.2-.22c-.15-.16.14.22-.06-.09-.1-.16-.2-.32-.29-.49s-.17-.4-.08-.16,0-.12-.05-.18a5.69,5.69,0,0,1-.16-.59l0-.13c0,.25,0-.15,0-.23s0-.39,0-.59,0-.23,0-.35,0-.44,0-.21,0-.16,0-.21l.06-.31c.06-.25.12-.5.19-.74.13-.48.31-.94.48-1.41.11-.27-.08.19,0-.07l.17-.39c.12-.26.25-.51.38-.77A28.15,28.15,0,0,1,58,242.38c.32-.46.64-.91,1-1.36l.23-.3c.15-.21-.1.11.12-.16s.36-.46.55-.68c.67-.82,1.36-1.61,2.08-2.38.32-.34.64-.67,1-1a1.52,1.52,0,0,0,0-2.12,17,17,0,0,1-5.1-7,11.77,11.77,0,0,1-.06-7.73,12.91,12.91,0,0,1,5.4-7,4.69,4.69,0,0,1,3-.59c-.27,0,0,0,0,0l.42.08a8,8,0,0,1,.83.26c.45.16-.25-.12.19.08l.41.19c.28.14.54.3.81.47,2.48,1.56,4.52,4.24,6.21,6.77a1.54,1.54,0,0,0,2.36.3c2.11-1.81,4.89-3.76,7.86-4a6.52,6.52,0,0,1,3.89.82,6.76,6.76,0,0,1,1.63,1.39l.36.43c-.23-.3.09.15.14.22a10.37,10.37,0,0,1,.54.91C92.7,221.63,95.29,220.12,94.37,218.42Z" transform="translate(-0.04 0)" fill="#6c6120"/><path d="M167.2,159.32c12.17-14.37,27.54-42,3.74-53.27C152.72,97.65,141,114.47,134,129c-24.16-7.49-33.89,17-28.77,37.1h0c2.5,12.42,16.47,7.81,23.63,2.85C154.72,216.58,203.87,170.57,167.2,159.32Z" transform="translate(-0.04 0)" fill="#c3bf4f"/><path d="M168.26,160.38a85.44,85.44,0,0,0,11.87-17.93c3-6.25,5.45-13.4,4.66-20.45a20,20,0,0,0-3.37-9.35,25.74,25.74,0,0,0-21.49-10.28,22,22,0,0,0-10.79,4c-6.72,4.72-11.37,12-15.09,19.16q-.68,1.31-1.32,2.64l1.7-.69a27.56,27.56,0,0,0-13.21-1,20.11,20.11,0,0,0-9.85,5c-5.75,5.29-8.29,13.32-8.83,20.92a44.8,44.8,0,0,0,1.27,14,1.52,1.52,0,0,0,2.9,0h-2.9a12.17,12.17,0,0,0,3,6.07,9.85,9.85,0,0,0,5,2.71c4.09.83,8.33-.31,12.09-1.91a31.57,31.57,0,0,0,5.7-3.13l-2-.54c4.13,7.59,9.87,14.8,17.69,18.8A27.72,27.72,0,0,0,163.82,191,25.41,25.41,0,0,0,177.49,183c3.1-3.6,5.07-8.32,4-13.1-1.22-5.65-6.35-9.18-11.4-11.18-.83-.32-1.68-.61-2.53-.88-1.85-.57-2.64,2.33-.8,2.9.85.26,1.7.55,2.53.88.09,0,.66.27.34.13l.51.22c.38.17.75.35,1.12.54.63.32,1.25.67,1.84,1,.3.19.59.38.87.59.13.08.25.18.37.27s.27.21,0,0a2.11,2.11,0,0,1,.23.19,13.86,13.86,0,0,1,1.39,1.26c.19.2.37.39.54.6l.28.33c.25.31-.15-.21.08.11a11.66,11.66,0,0,1,.88,1.39c.12.22.23.45.34.67.18.39-.06-.16,0,0s.12.29.17.44a10.5,10.5,0,0,1,.4,1.43l.06.34c0,.18.18.47,0,0a3.08,3.08,0,0,1,.07.75,12.52,12.52,0,0,1,0,1.5l0,.34c0,.43,0-.2,0,0s-.09.52-.15.79a12,12,0,0,1-.4,1.45c-.09.25-.19.5-.28.74s.1-.2,0,0l-.2.44a17.72,17.72,0,0,1-1.67,2.77c-.06.08-.38.48-.07.1l-.27.34c-.19.22-.37.44-.57.66-.38.43-.78.84-1.2,1.24s-.87.79-1.33,1.16l-.36.29c.37-.29-.05,0-.14.1-.25.19-.5.37-.76.54a23.46,23.46,0,0,1-3.23,1.85l-.89.41c-.07,0-.26.1.09,0l-.23.1-.51.19c-.62.24-1.25.45-1.89.64s-1.24.34-1.87.47c-.34.07-.67.14-1,.19l-.46.08-.26,0c.44-.06.07,0,0,0a25.5,25.5,0,0,1-4.19.17c-.71,0-1.42-.1-2.13-.19.44,0-.18,0-.26,0l-.5-.08q-.58-.1-1.17-.24a28.09,28.09,0,0,1-4.37-1.39c.34.13-.24-.11-.31-.14l-.51-.24c-.4-.18-.79-.38-1.18-.58-.74-.4-1.47-.82-2.18-1.28s-1.47-1-2.17-1.52c-.36-.27.13.11-.08-.06l-.28-.22-.55-.45c-.37-.31-.74-.62-1.09-.95a44.36,44.36,0,0,1-8.05-9.83c-.66-1.06-1.28-2.14-1.88-3.24a1.51,1.51,0,0,0-2.05-.54,31.91,31.91,0,0,1-4.72,2.69l-.61.28-.25.11c.31-.14-.11,0-.14,0-.46.19-.92.37-1.39.53a27.9,27.9,0,0,1-2.7.8c-.43.09-.86.18-1.29.25l-.39.07c-.41.06.21,0,0,0s-.46.06-.7.07a16.23,16.23,0,0,1-2.7,0c-.08,0-.3-.05,0,0l-.35-.06-.58-.12c-.41-.1-.81-.24-1.21-.38s0,0,0,0l-.31-.14-.51-.27-.48-.31a2.83,2.83,0,0,1-.28-.2c.2.15,0,0-.06,0a10.9,10.9,0,0,1-1-1c-.18-.2,0,0,0,0-.1-.13-.19-.27-.29-.41s-.28-.45-.4-.68-.26-.49-.37-.74c0,0-.1-.26,0,0-.08-.19-.15-.37-.21-.56a13.14,13.14,0,0,1-.49-1.84,1.51,1.51,0,0,0-2.9,0h2.9a40.38,40.38,0,0,1-1.26-11.53c0-1,.1-2,.2-3,0-.24,0-.48.08-.73l0-.29c.06-.46,0,.17,0-.1.07-.51.15-1,.24-1.51a35.25,35.25,0,0,1,1.4-5.34q.22-.64.48-1.29c0-.08.07-.17.11-.25.16-.41-.07.16,0-.09s.2-.45.31-.68a26.77,26.77,0,0,1,1.23-2.38,25.32,25.32,0,0,1,1.41-2.13c.05-.07.39-.51.2-.27l.4-.5c.28-.33.56-.65.85-1a21.77,21.77,0,0,1,1.86-1.74c.07-.06.55-.43.29-.24l.41-.3c.38-.27.77-.53,1.17-.77a19.12,19.12,0,0,1,2.15-1.13c.39-.18-.28.11.12-.05l.24-.09.62-.23q.63-.22,1.26-.39c.48-.13,1-.24,1.46-.34l.81-.13c.06,0,.3,0,0,0l.42,0a23.1,23.1,0,0,1,3.22-.1,27.82,27.82,0,0,1,7.14,1.31,1.5,1.5,0,0,0,1.69-.68c3.39-7,7.34-13.89,13.17-19a21.52,21.52,0,0,1,9.1-5c.4-.09.8-.18,1.2-.24l.38-.06c.26,0-.2,0,.06,0l.78-.08a20,20,0,0,1,2.79,0,15.52,15.52,0,0,1,2.78.43,23.58,23.58,0,0,1,3,.89,26.14,26.14,0,0,1,5.4,2.81,16.12,16.12,0,0,1,2,1.5,19.76,19.76,0,0,1,1.84,1.82c.21.24.59.7.68.81s.45.61.63.89a17.25,17.25,0,0,1,1.15,2c.09.18.17.35.25.53l.11.24c.09.21-.09-.21,0,0,.15.38.3.76.43,1.15a18.54,18.54,0,0,1,.57,2.19c.08.36.14.72.19,1.08,0,.06,0,.3,0,0l0,.26c0,.22.05.43.07.65a23.66,23.66,0,0,1,.08,2.38c0,.77-.06,1.53-.14,2.3,0,.2,0,.4-.07.61s-.05.38,0,.08c0,.09,0,.18,0,.27-.06.42-.13.83-.21,1.24a38.74,38.74,0,0,1-1.24,4.85c-.27.84-.57,1.68-.89,2.5-.14.37-.29.74-.44,1.11,0,.12-.09.23-.14.35s.08-.18,0,.05l-.3.69a72.54,72.54,0,0,1-5.06,9.39c-.93,1.46-1.89,2.89-2.9,4.29-.49.7-1,1.39-1.52,2.07l-.34.44c-.18.24-.06.08,0,0l-.21.27-.77,1c-.48.6-1,1.19-1.47,1.78a1.54,1.54,0,0,0,0,2.12A1.51,1.51,0,0,0,168.26,160.38Z" transform="translate(-0.04 0)" fill="#6c6120"/><g clip-path="url(#clip-path-2)"><path d="M157.66,136.66c23.53-25-5.21-47.22-18.89-17.3C125,115.1,119.48,129,122.39,140.49h0c1.42,7.07,9.38,4.45,13.45,1.62C149.48,168.65,179,143.94,157.66,136.66Z" transform="translate(-0.04 0)" fill="#dfe590"/><path d="M136,152.29c16.71-17-3-35.06-13.73-12.58-10-3.1-14,7-11.91,15.36h0c1,5.15,6.82,3.24,9.78,1.18C129.49,175.23,151.7,158,136,152.29Z" transform="translate(-0.04 0)" fill="#dfe590"/><path d="M170.21,134.41c11.9-11.61-2.19-25.17-9.79-9-7.14-2.21-10,5-8.5,10.95h0c.74,3.67,4.87,2.31,7,.84C165.22,150.55,181.56,138.81,170.21,134.41Z" transform="translate(-0.04 0)" fill="#dfe590"/><path d="M167.59,121.28c8-7.64-1.58-17-6.61-6-4.82-1.49-6.76,3.38-5.74,7.4h0c.5,2.47,3.29,1.55,4.71.56C163.92,132,175.36,124.51,167.59,121.28Z" transform="translate(-0.04 0)" fill="#ffeb81"/><path d="M146.58,130.28c5-4.73-1-10.54-4.09-3.75-3-.92-4.19,2.1-3.56,4.58h0c.31,1.54,2,1,2.92.36C144,136.71,151.5,132.55,146.58,130.28Z" transform="translate(-0.04 0)" fill="#ffeb81"/><path d="M159.53,168.63c11.89-11.61-2.19-25.17-9.8-9-7.13-2.21-10,5-8.49,11h0c.74,3.67,4.86,2.31,7,.85C154.53,184.77,170.88,173,159.53,168.63Z" transform="translate(-0.04 0)" fill="#dfe590"/><path d="M152,157.5c13.59-13.51-2.43-28.73-11.21-10.26-8.16-2.53-11.44,5.73-9.71,12.53h0c.84,4.19,5.56,2.64,8,1C146.45,176.05,164.94,162.41,152,157.5Z" transform="translate(-0.04 0)" fill="#dfe590"/></g><path d="M168.5,160.08c5.5-7.34,11.4-14.83,14.38-23.62,2.12-6.27,2.93-13.52.53-19.84a19.9,19.9,0,0,0-5.73-8.2,27.53,27.53,0,0,0-10.62-5.37,21,21,0,0,0-11,0,24.88,24.88,0,0,0-9.15,5.06c-5.63,4.73-9.68,11.25-13,17.73-.4.78-.79,1.56-1.17,2.35l1.7-.69c-7.15-1.77-15.36-2-21.58,2.51-6,4.37-8.76,11.66-9.78,18.78a43.79,43.79,0,0,0,.74,17.66c.37,1.37,2.6,1.49,2.9,0h-2.9c1.24,4,3.71,8.21,8.15,9.05,4.16.79,8.4-.64,12.15-2.35a55.37,55.37,0,0,0,5.53-3l-2-.54a62.13,62.13,0,0,0,6.55,9c1.15,1.35,2.35,2.65,3.59,3.92a39.39,39.39,0,0,0,3.79,3.52,26.74,26.74,0,0,0,17.23,5.82,24.8,24.8,0,0,0,16.43-7.06c4.09-4,8.31-9.59,6.48-15.66s-8.41-9.49-14.06-11.32a1.52,1.52,0,0,0-1.85,1,1.54,1.54,0,0,0,1.05,1.85,27.42,27.42,0,0,1,7.37,3.51,15.61,15.61,0,0,1,2.51,2.19,8,8,0,0,1,.85,1.05,11.58,11.58,0,0,1,.85,1.44c.06.12.11.24.17.37,0-.06-.1-.25,0,0s.18.51.26.77.11.43.16.65.05.27.07.4,0,.18,0,0l0,.27a8.8,8.8,0,0,1,0,1.54s-.06.5,0,.18c0,.14-.05.29-.08.43-.06.3-.13.6-.21.89-.75,2.63-2.6,4.87-4.5,7A22,22,0,0,1,160,188.84a23.53,23.53,0,0,1-15.41-4.2,28.3,28.3,0,0,1-3.81-3.28q-2-2-3.92-4.15a59.81,59.81,0,0,1-6.67-9.07,1.52,1.52,0,0,0-2.05-.54A40.94,40.94,0,0,1,118.7,172a14.32,14.32,0,0,1-5,.69,7.94,7.94,0,0,1-2.26-.47,3.34,3.34,0,0,1-.84-.45,6.78,6.78,0,0,1-.94-.8,12.72,12.72,0,0,1-2.93-5.34c-.41-1.33-2.59-1.53-2.9,0h2.9a39.82,39.82,0,0,1-.89-15,43.45,43.45,0,0,1,1-5.51c.22-.87.47-1.74.76-2.59.14-.41.29-.82.44-1.23l.21-.52c.12-.28,0-.09,0,0,0-.12.11-.25.16-.38a23.44,23.44,0,0,1,2.4-4.22c.11-.16.23-.31.34-.46-.18.24.1-.12.16-.2.27-.32.54-.63.83-.94a18,18,0,0,1,1.61-1.53l.38-.3.23-.18c.32-.22.64-.44,1-.65a17.46,17.46,0,0,1,2-1.06l.23-.1.17-.07c-.18.07.06,0,.11-.05l.29-.11c.36-.14.72-.26,1.09-.37a18,18,0,0,1,2.3-.57l.66-.11.21,0,.28,0c.47-.06.94-.09,1.41-.12a28.4,28.4,0,0,1,3.06,0,35,35,0,0,1,6.54,1,1.52,1.52,0,0,0,1.69-.68c3.07-6.33,6.62-12.54,11.53-17.47a25.1,25.1,0,0,1,7.8-5.53c.28-.12.12,0,.06,0l.28-.12.5-.19c.4-.14.81-.28,1.22-.4a19.18,19.18,0,0,1,2.39-.52s.25,0,.1,0l.19,0,.62-.06c.42,0,.84,0,1.26,0a17.37,17.37,0,0,1,2.6.15c.17,0,0,0,0,0l.34.05.67.12c.46.09.92.2,1.37.32a23.41,23.41,0,0,1,2.83.93,26.42,26.42,0,0,1,4.91,2.51,17.35,17.35,0,0,1,3.52,3.07,11.3,11.3,0,0,1,1.25,1.62,17.12,17.12,0,0,1,1.15,2c.09.17.17.34.25.52s.19.42.16.34,0,.12.06.15l.1.27c.08.2.15.4.22.61a18.59,18.59,0,0,1,.63,2.21c.08.33.14.66.2,1s.07.38.1.57,0,.19,0,.29c0-.22,0,0,0,.11.09.78.14,1.56.16,2.35s0,1.54,0,2.31c0,.4-.05.81-.09,1.21l-.06.53c0,.1,0,.2,0,.3s0-.14,0,.13a36.64,36.64,0,0,1-1,4.76,40.09,40.09,0,0,1-4.14,9.59,132.52,132.52,0,0,1-8.28,12.23l-2.26,3a1.52,1.52,0,0,0,.53,2.06A1.55,1.55,0,0,0,168.5,160.08Z" transform="translate(-0.04 0)" fill="#6c6120"/></g></g></g></svg>