<svg xmlns="http://www.w3.org/2000/svg" viewBox="0 0 13.7 42.8"><g id="Layer_2" data-name="Layer 2"><g id="Layer_1-2" data-name="Layer 1"><g id="fu_book_3" data-name="fu_book 3"><path d="M12.5,1,10.9.8A27.5,27.5,0,0,0,2.8.8L1.2,1a.8.8,0,0,0-.7.8V41a.8.8,0,0,0,.7.8l1.6.2a27.5,27.5,0,0,0,8.1,0l1.6-.2a.8.8,0,0,0,.7-.8V1.8A.8.8,0,0,0,12.5,1Z" style="fill:#ffeb81"/><path d="M12.5,1,10.9.8A27.5,27.5,0,0,0,2.8.8L1.2,1a.8.8,0,0,0-.7.8V6.2a.8.8,0,0,1,.7-.8l1.6-.2a27.5,27.5,0,0,1,8.1,0l1.6.2a.8.8,0,0,1,.7.8V1.8A.8.8,0,0,0,12.5,1Z" style="fill:#6ab3b9"/><path d="M1.2,41.8l1.6.2a27.5,27.5,0,0,0,8.1,0l1.6-.2a.8.8,0,0,0,.7-.8V36.6a.8.8,0,0,1-.7.8l-1.6.3a36.6,36.6,0,0,1-8.1,0l-1.6-.3a.8.8,0,0,1-.7-.8V41A.8.8,0,0,0,1.2,41.8Z" style="fill:#6ab3b9"/><path d="M10.2,21.7c0,6.3-1.6,11.4-3.5,11.4S3.3,28,3.3,21.7,4.9,10.3,6.7,10.3,10.2,15.4,10.2,21.7Z" style="fill:#baa2ee"/><path d="M12.8,1.1h-.3L10.9.8A27.5,27.5,0,0,0,2.8.8L1.2,1H.9l-.2.2H.6a.3.3,0,0,1-.1.2V41a.8.8,0,0,0,.7.8l1.6.2a26.9,26.9,0,0,0,4,.3,27.3,27.3,0,0,0,4.1-.3h.2l1.4-.2a.8.8,0,0,0,.7-.8h0V1.8h0A.8.8,0,0,0,12.8,1.1Z" style="fill:none;stroke:#ffaa5a;stroke-miterlimit:10"/></g></g></g></svg>