<svg xmlns="http://www.w3.org/2000/svg" width="112.45" height="271.4" viewBox="0 0 112.45 271.4">
  <g id="Layer_2" data-name="Layer 2">
    <g id="Layer_1-2" data-name="Layer 1">
      <g id="na_potted_plant_2" data-name="na_potted plant 2">
        <ellipse cx="62.01" cy="193.79" rx="45.45" ry="6.92" fill="#eaeaea" stroke="#5576b4" stroke-linecap="round" stroke-linejoin="round" stroke-width="3"/>
        <path d="M62,189.19c-1.39,0-2.77,0-4.12,0l-2.27,0c-17.92.36-31.55,2.26-31.55,4.53s13.47,4.15,31.21,4.53l2.28,0c1.46,0,2.94,0,4.45,0,20.95,0,37.94-2.07,37.94-4.61S83,189.19,62,189.19Z" fill="#5576b4"/>
        <path d="M62,195.4c-1.61,0-3,0-4.41,0l-2.26,0a190.78,190.78,0,0,1-21.91-1.53,193.69,193.69,0,0,1,22.26-1.53l2.24,0q2,0,4.08,0a219.3,219.3,0,0,1,28.58,1.6A217.15,217.15,0,0,1,62,195.4Z" fill="#ce894a"/>
        <path d="M90.59,193.79a216.09,216.09,0,0,1-28.38,1.61H59.76q-1.12,0-2.16,0l-2.26,0a190.78,190.78,0,0,1-21.91-1.53,193.69,193.69,0,0,1,22.26-1.53l2.24,0,2,0h2.44A218.45,218.45,0,0,1,90.59,193.79Z" fill="#ce894a"/>
        <path d="M107.46,195.79V263c0,3.82-20.35,6.92-45.45,6.92S16.55,266.8,16.55,263V195.79c0,2.3,7.38,4.34,18.74,5.6A249.5,249.5,0,0,0,62,202.71C87.11,202.71,107.46,199.61,107.46,195.79Z" fill="#cecece" stroke="#5576b4" stroke-linecap="round" stroke-linejoin="round" stroke-width="3"/>
        <g opacity="0.46">
          <path d="M107.46,252.33V263c0,3.82-20.35,6.92-45.45,6.92S16.55,266.8,16.55,263V195.79c0,2.3,7.38,4.34,18.74,5.6v43.45a10.41,10.41,0,0,0,9.93,10.46C59.51,255.91,86.46,256.32,107.46,252.33Z" fill="#a2a7b1"/>
        </g>
        <g>
          <path d="M61.39,73.3s4.79-24.72,22.2-32.13,38.86-4.94,20.07,9.63S61.39,73.3,61.39,73.3Z" fill="#6c9433" stroke="#507125" stroke-miterlimit="10" stroke-width="3"/>
          <g>
            <path d="M61,61.42S26.73,58.1,23.3,25.92,69.23-1.44,77.54,11,61,61.42,61,61.42Z" fill="#96b85c"/>
            <path d="M61,61.42S26.73,58.1,23.3,25.92,69.23-1.44,77.54,11,61,61.42,61,61.42Z" fill="none" stroke="#507125" stroke-miterlimit="10" stroke-width="3"/>
          </g>
          <path d="M61,154.18s-12.49,4.07-20.46-11.74l-8-15.81S59.1,134.26,61,154.18Z" fill="#6c9433" stroke="#507125" stroke-miterlimit="10" stroke-width="3"/>
          <path d="M63.51,119.22S100.51,95,101,78.71,70.5,87,64,99,63.51,119.22,63.51,119.22Z" fill="#6c9433" stroke="#507125" stroke-miterlimit="10" stroke-width="3"/>
          <path d="M62.37,190.88c0,.44,0,.88,0,1.31,0,1.11-.07,2.19-.11,3.21H59.76c0-1,.08-2.08.12-3.19,0-.42,0-.84,0-1.27,1.24-35.17,3.33-111-.7-137C54,20.2,51.17,14,51.05,13.72a1.39,1.39,0,0,1,.51-1.79,1.17,1.17,0,0,1,1.64.53c.13.25,3.09,6.43,8.44,41C65.7,79.67,63.62,155.57,62.37,190.88Z" fill="#6c9433"/>
          <g>
            <path d="M63.51,151.34s7.19-26.68,18.43-35.58,19.55-8.4,21.5-2.47-9.62,31.62-20,36.07A34,34,0,0,1,63.51,151.34Z" fill="#96b85c"/>
            <path d="M63.51,151.34s7.19-26.68,18.43-35.58,19.55-8.4,21.5-2.47-9.62,31.62-20,36.07A34,34,0,0,1,63.51,151.34Z" fill="none" stroke="#507125" stroke-miterlimit="10" stroke-width="3"/>
          </g>
          <g>
            <path d="M61.58,113.29S23.29,91.56,13,73.77s-7.33-24.21,3.91-23S61.58,84.15,61.58,84.15s7.65-11.37,12-7.41S61.58,113.29,61.58,113.29Z" fill="#96b85c"/>
            <path d="M61.58,113.29S23.29,91.56,13,73.77s-7.33-24.21,3.91-23S61.58,84.15,61.58,84.15s7.65-11.37,12-7.41S61.58,113.29,61.58,113.29Z" fill="none" stroke="#507125" stroke-miterlimit="10" stroke-width="3"/>
          </g>
          <g>
            <path d="M61.39,134.52S48.22,118.43,34,109,1.72,96.5,1.51,99s5.18,29.11,21.79,35.55S58.89,139,61.39,134.52Z" fill="#96b85c"/>
            <path d="M61.39,134.52S48.22,118.43,34,109,1.72,96.5,1.51,99s5.18,29.11,21.79,35.55S58.89,139,61.39,134.52Z" fill="none" stroke="#507125" stroke-miterlimit="10" stroke-width="3"/>
          </g>
        </g>
      </g>
    </g>
  </g>
</svg>
