<svg xmlns="http://www.w3.org/2000/svg" xmlns:xlink="http://www.w3.org/1999/xlink" width="312.15" height="249.88" viewBox="0 0 312.15 249.88">
  <defs>
    <clipPath id="clip-path" transform="translate(8.65)">
      <path d="M287.45,88a3.92,3.92,0,0,1,1.27-7.74l12.61,1.87c-.4-6.61-1-13.48-1.9-20.21a11.57,11.57,0,0,0-7.15-9.16,11.15,11.15,0,0,0-4.2-.75c-6.14,0-12.89,3.75-17.78,1.16l-1.38-1.35a3.22,3.22,0,0,1,.64-5.1,33.33,33.33,0,0,1,26.52-2.89,91.75,91.75,0,0,0-3.55-11.31,49,49,0,0,0-4.71-9.21C286.9,22,286,20.74,285,19.53L273,21.4a21.73,21.73,0,0,0-12.61,6.7l-2.07,2.24,1.31-4a14.47,14.47,0,0,1,8.81-9.08l10.95-4c-21-19.87-48.2-13.12-50.64,8.88,0,0-21.47,3.62-34.16,15.56,0,0,24.31-3.22,24.75,3,.6,8.36-32.4,8.71-32.4,8.71a47.6,47.6,0,0,0-.23,30.12l.84-1.33a49.69,49.69,0,0,1,17.94-17.07,5.47,5.47,0,0,1,2.66-.69,5.53,5.53,0,0,1,4.91,3,5.46,5.46,0,0,1,.62,2.53,5.52,5.52,0,0,1-5.92,5.5c-.4,0-.81,0-1.21,0A16.09,16.09,0,0,0,192,80.65l-2.66,5.63a57.83,57.83,0,0,0,19.54,22.36l6.76-14.33a17.34,17.34,0,0,1,6.43-7.25,2.76,2.76,0,0,1,1.45-.42,2.72,2.72,0,0,1,2,4.54c-2.82,3.84-3.48,10.74-3.48,16.29a74,74,0,0,0,.49,8.54,102.52,102.52,0,0,0,19.26,5.07S239.28,98.94,245,98.52c6.25-.46,7.11,24,7.11,24,8,.9,16,1.31,23.18,1.44l-5.12-15.93a3.4,3.4,0,1,1,6.6-1.52l.89,6.26a12.89,12.89,0,0,0,13.16,11.09c6.65-.2,10.84-.55,10.84-.55s.38-7.2.37-17.92A17.66,17.66,0,0,0,287.45,88Z" fill="none"/>
    </clipPath>
    <clipPath id="clip-path-2" transform="translate(8.65)">
      <path d="M104,65.91S100.73,44.4,89,31.54c0,0,2.89,24.35-3.34,24.71-8.37.48-8.26-32.52-8.26-32.52a47.62,47.62,0,0,0-30.12-.64l1.32.85A49.62,49.62,0,0,1,65.37,42.11h0A5.51,5.51,0,1,1,55,44.24a16.06,16.06,0,0,0-8.95-15.85l-5.6-2.74A58,58,0,0,0,17.86,44.87l14.24,7a17.27,17.27,0,0,1,7.16,6.52,2.71,2.71,0,0,1-4.16,3.41C28,56.43,10.31,58.44,10.31,58.44A104.65,104.65,0,0,0,5,77.63s22.18-2.21,22.52,3.48c.38,6.25-24.12,6.77-24.12,6.77-1,8-1.53,16-1.76,23.16l16-4.9a3.4,3.4,0,0,1,4.13,1.93h0a3.39,3.39,0,0,1-2.7,4.68l-6.27.81a12.91,12.91,0,0,0-11.27,13c.12,6.66.4,10.84.4,10.84s7.2.49,17.91.63a17.69,17.69,0,0,0,17.6-14.31,3.88,3.88,0,0,1,1.77-2.58,3.92,3.92,0,0,1,5.94,3.95l-2,12.58c6.6-.3,13.49-.81,20.23-1.62a11.55,11.55,0,0,0,9.25-7c3-7-3.4-16-.11-22l1.37-1.37a3.21,3.21,0,0,1,5.09.71A33.25,33.25,0,0,1,81.45,133c8.11-1.91,15.31-4.5,20.62-8,1.36-.89,2.63-1.82,3.86-2.76l-1.7-12a21.78,21.78,0,0,0-6.54-12.71l-2.2-2.09,4,1.36a14.48,14.48,0,0,1,9,8.94l3.83,11C132.39,95.93,126,68.66,104,65.91Z" fill="none"/>
    </clipPath>
    <clipPath id="clip-path-3" transform="translate(8.65)">
      <path d="M169.72,108.85c1-3.61,14.95,0,14.95,0,.3-11-4.74-21.93-21.69-19.35,0,0-10.38-20.88-33.74-11.08,4.41,3.1,13,6.55,8.55,9-1.88,1-5.51-.32-8.89-1.94a10,10,0,0,0-13.37,4.41c-3.14,6.48-3.21,14.81-1.7,23.41,4.64-1.21,17.62-5.49,19.09-2.26,1.22,2.68-16.84,11.87-16.84,11.87.65,2.28,1.38,4.53,2.15,6.74,0,0,8.43-9.25,10.55-6.91,2.39,2.65-9,11.12-9,11.12a183,183,0,0,0,11.28,23.88s8.1-4.48,17.73-10.21c0,0-4.59-17.84,0-18.7,4-.75,5.88,15.14,5.88,15.14,10.46-6.4,21.16-13.49,24.57-17.58l.05-.06a7.85,7.85,0,0,0-3.12-12.14C172.61,112.72,169.22,110.76,169.72,108.85Z" fill="none"/>
    </clipPath>
  </defs>
  <g id="Layer_2" data-name="Layer 2">
    <g id="Layer_1-2" data-name="Layer 1">
      <g id="na_potted_plant_4" data-name="na_potted plant 4">
        <path d="M201.14,248.38H68.43c-23.22,0-42-8.63-42-19.28H243.18C243.18,239.75,224.35,248.38,201.14,248.38Z" transform="translate(8.65)" fill="#ce894a" stroke="#a8662f" stroke-miterlimit="10" stroke-width="3"/>
        <path d="M235.25,100a10.77,10.77,0,0,0-9.85-6.43H44.17A10.77,10.77,0,0,0,34.32,100l-7.93,18v5.44a3.8,3.8,0,0,0,3.8,3.8H239.38a3.8,3.8,0,0,0,3.8-3.8v-5.44Z" transform="translate(8.65)" fill="#af7553"/>
        <path d="M175.87,248.38H93.69c-14.37,0-26-8.63-26-19.28H201.91C201.91,239.75,190.25,248.38,175.87,248.38Z" transform="translate(8.65)" fill="#d8a960" stroke="#a8662f" stroke-miterlimit="10" stroke-width="3"/>
        <g>
          <path d="M35,119.65H251.83a0,0,0,0,1,0,0v90.52A18.93,18.93,0,0,1,232.9,229.1H54A18.93,18.93,0,0,1,35,210.17V119.65A0,0,0,0,1,35,119.65Z" fill="#e1cc8c" stroke="#90822e" stroke-miterlimit="10" stroke-width="3"/>
          <rect x="35.04" y="142.03" width="216.79" height="18.74" fill="#ffeb81" stroke="#90822e" stroke-miterlimit="10" stroke-width="3"/>
        </g>
        <path d="M225.4,101.11a3.22,3.22,0,0,1,2.95,1.93l4,9.08H37.22l4-9.07a3.24,3.24,0,0,1,3-1.94H225.4m0-7.53H44.17A10.77,10.77,0,0,0,34.32,100l-7.93,18v1.59H243.18v-1.59l-7.93-18a10.77,10.77,0,0,0-9.85-6.43Z" transform="translate(8.65)" fill="#ffeb81" stroke="#90822e" stroke-miterlimit="10" stroke-width="3"/>
        <g>
          <path d="M215.82,9.85s-39.49-21.13-35.56,100.59" transform="translate(8.65)" fill="none" stroke="#2e5b1d" stroke-miterlimit="10" stroke-width="3.98"/>
          <path d="M260.36,28.1l-2.07,2.23,1.31-4a14.47,14.47,0,0,1,8.81-9.08l10.95-4c-21-19.86-48.19-13.12-50.64,8.9,0,0-21.47,3.61-34.16,15.55,0,0,24.31-3.22,24.75,3,.6,8.36-32.4,8.71-32.4,8.71a47.6,47.6,0,0,0-.23,30.12l.83-1.33a49.73,49.73,0,0,1,17.94-17.06h0A5.5,5.5,0,0,1,213,63.46h0a5.51,5.51,0,0,1-5.3,8h0A16.1,16.1,0,0,0,192,80.65l-2.66,5.63a58,58,0,0,0,19.53,22.36l6.78-14.33a17.25,17.25,0,0,1,6.42-7.25h0a2.72,2.72,0,0,1,3.72.81h0a2.71,2.71,0,0,1-.26,3.31h0c-5.24,7.13-3,24.83-3,24.83a104.07,104.07,0,0,0,19.26,5.08S239.29,98.94,245,98.52c6.24-.46,7.1,24,7.1,24,8,.9,16,1.31,23.18,1.44l-5.12-15.93a3.38,3.38,0,0,1,1.87-4.15h0a3.39,3.39,0,0,1,4.72,2.63l.9,6.26a12.9,12.9,0,0,0,13.16,11.09c6.65-.21,10.83-.55,10.83-.55s.39-7.21.39-17.91A17.68,17.68,0,0,0,287.45,88h0a3.91,3.91,0,0,1-2.6-1.74h0a3.92,3.92,0,0,1,3.86-6l12.61,1.86c-.39-6.6-1-13.47-1.89-20.21a11.53,11.53,0,0,0-7.15-9.14h0c-7.07-2.88-15.94,3.61-22,.4h0l-1.39-1.35a3.22,3.22,0,0,1,.64-5.1h0a33.34,33.34,0,0,1,26.52-2.89h0c-2-8.08-4.71-15.24-8.27-20.51C286.9,22,286,20.74,285,19.53L273,21.4A21.73,21.73,0,0,0,260.36,28.1Zm2.55,72.55c0,3.74-1.54,6.79-3.56,6.81s-3.7-3-3.75-6.71,1.55-6.78,3.56-6.81S262.86,96.92,262.91,100.65Zm13.28-36.06c.78,1.19-.16,3.17-2.1,4.44s-4.13,1.34-4.91.16.17-3.17,2.1-4.44S275.42,63.41,276.19,64.59ZM247.24,34.68c-1.67-.41-2.58-2.56-2-4.81s2.34-3.74,4-3.33,2.58,2.56,2,4.81S248.91,35.09,247.24,34.68Z" transform="translate(8.65)" fill="#4a8c32" stroke="#2e5b1d" stroke-linecap="round" stroke-linejoin="round" stroke-width="3"/>
          <g clip-path="url(#clip-path)">
            <path d="M248.3,5.8c8.54,0,18.17,3.68,26.76,11.8l-10.95,4a14.49,14.49,0,0,0-8.81,9.08l-1.31,4,2.07-2.22a21.69,21.69,0,0,1,12.61-6.71l12-1.87c1,1.22,1.9,2.47,2.81,3.82,3.56,5.27,6.24,12.43,8.26,20.51a33.27,33.27,0,0,0-26.51,2.9,3.21,3.21,0,0,0-.65,5.09L266,57.5a8.55,8.55,0,0,0,4.09.92c4.22,0,9.12-2.08,13.69-2.08a11,11,0,0,1,4.2.76,11.55,11.55,0,0,1,7.14,9.14c.9,6.74,1.51,13.62,1.9,20.22l-12.61-1.87a4,4,0,0,0-.6,0,3.92,3.92,0,0,0-.66,7.78,17.67,17.67,0,0,1,14.54,17.4c0,10.71-.38,17.91-.38,17.91s-4.18.34-10.83.55h-.41a12.92,12.92,0,0,1-12.76-11.1l-.89-6.26a3.4,3.4,0,0,0-3.36-2.92,3.33,3.33,0,0,0-1.36.29,3.38,3.38,0,0,0-1.87,4.15L271,128.29c-7.16-.13-15.16-.53-23.18-1.44,0,0-.84-24-6.93-24h-.18c-5.68.42-3.17,22.57-3.17,22.57a104,104,0,0,1-19.25-5.08s-2.26-17.7,3-24.82a2.71,2.71,0,0,0-2-4.54,2.64,2.64,0,0,0-1.44.42,17.31,17.31,0,0,0-6.43,7.24L204.56,113A57.9,57.9,0,0,1,185,90.58L187.69,85a16.09,16.09,0,0,1,14.54-9.21c.4,0,.8,0,1.2,0h0l.42,0a5.5,5.5,0,0,0,4.87-8h0a5.5,5.5,0,0,0-7.57-2.28h0a49.73,49.73,0,0,0-17.94,17.06l-.83,1.33a47.6,47.6,0,0,1,.23-30.12s33-.34,32.4-8.71c-.22-3.06-6.19-3.83-12.22-3.83a110.21,110.21,0,0,0-12.54.83C203,30.1,224.42,26.49,224.42,26.49,225.87,13.48,236,5.8,248.3,5.8m0-4v0c-14,0-24.68,8.45-27.39,21.32-6.51,1.46-22.66,5.91-33.4,16A4,4,0,0,0,190.25,46a4.71,4.71,0,0,0,.53,0,105.64,105.64,0,0,1,12-.8,32.79,32.79,0,0,1,6.92.56c-1.73.86-5.46,2.14-13.23,3.06-7.12.84-13.84.92-13.91.92a4,4,0,0,0-3.72,2.63c-3.61,9.91-3.72,21.83-.29,32.69a4,4,0,0,0,3.31,2.77h0l-.49,1a4,4,0,0,0,0,3.44,61.85,61.85,0,0,0,20.85,23.91,4,4,0,0,0,2.29.73,4,4,0,0,0,3.62-2.29l6.7-14.18c-2,8.51-.8,18.85-.61,20.34a4,4,0,0,0,2.53,3.23,108.27,108.27,0,0,0,20,5.28,4,4,0,0,0,4.66-4.39,72.08,72.08,0,0,1-.19-15.58A77.11,77.11,0,0,1,243.77,127a4,4,0,0,0,3.55,3.83c7.27.82,15.19,1.32,23.55,1.47H271a4,4,0,0,0,4-4.33,16.88,16.88,0,0,0,11.14,4.24h.53c6.68-.21,10.86-.55,11-.56a4,4,0,0,0,3.66-3.77c0-.3.4-7.44.39-18.14a21.66,21.66,0,0,0-15.83-20.87l10.58,1.56a3.79,3.79,0,0,0,.58,0,4,4,0,0,0,4-4.24c-.43-7.31-1.08-14.21-1.92-20.5a15.58,15.58,0,0,0-9.6-12.33,15,15,0,0,0-5.71-1,36.58,36.58,0,0,0-8,1.17,28.5,28.5,0,0,1-5.71.91,5.17,5.17,0,0,1-1.79-.26l-.14-.14a29.3,29.3,0,0,1,22.42-2,4,4,0,0,0,1.19.18,4,4,0,0,0,3.88-5c-2.29-9.17-5.26-16.5-8.82-21.78-.87-1.28-1.81-2.57-3-4.05a4,4,0,0,0-3.15-1.53,4.3,4.3,0,0,0-.61.05l-2,.31a4.07,4.07,0,0,0,.87-1.78,4,4,0,0,0-1.17-3.72C269,6.38,258.54,1.8,248.3,1.8ZM198.17,72.16A45.59,45.59,0,0,1,203.1,69a1.56,1.56,0,0,1,.73-.19,1.52,1.52,0,0,1,1.34.82,1.44,1.44,0,0,1,0,1.47,1.47,1.47,0,0,1-1.27.73h-.13c-.49,0-1-.05-1.49-.05a19.56,19.56,0,0,0-4.06.42Z" transform="translate(8.65)" fill="#9be3bb"/>
          </g>
          <path d="M260.36,28.1l-2.07,2.23,1.31-4a14.47,14.47,0,0,1,8.81-9.08l10.95-4c-21-19.86-48.19-13.12-50.64,8.9,0,0-21.47,3.61-34.16,15.55,0,0,24.31-3.22,24.75,3,.6,8.36-32.4,8.71-32.4,8.71a47.6,47.6,0,0,0-.23,30.12l.83-1.33a49.73,49.73,0,0,1,17.94-17.06h0A5.5,5.5,0,0,1,213,63.46h0a5.51,5.51,0,0,1-5.3,8h0A16.1,16.1,0,0,0,192,80.65l-2.66,5.63a58,58,0,0,0,19.53,22.36l6.78-14.33a17.25,17.25,0,0,1,6.42-7.25h0a2.72,2.72,0,0,1,3.72.81h0a2.71,2.71,0,0,1-.26,3.31h0c-5.24,7.13-3,24.83-3,24.83a104.07,104.07,0,0,0,19.26,5.08S239.29,98.94,245,98.52c6.24-.46,7.1,24,7.1,24,8,.9,16,1.31,23.18,1.44l-5.12-15.93a3.38,3.38,0,0,1,1.87-4.15h0a3.39,3.39,0,0,1,4.72,2.63l.9,6.26a12.9,12.9,0,0,0,13.16,11.09c6.65-.21,10.83-.55,10.83-.55s.39-7.21.39-17.91A17.68,17.68,0,0,0,287.45,88h0a3.91,3.91,0,0,1-2.6-1.74h0a3.92,3.92,0,0,1,3.86-6l12.61,1.86c-.39-6.6-1-13.47-1.89-20.21a11.53,11.53,0,0,0-7.15-9.14h0c-7.07-2.88-15.94,3.61-22,.4h0l-1.39-1.35a3.22,3.22,0,0,1,.64-5.1h0a33.34,33.34,0,0,1,26.52-2.89h0c-2-8.08-4.71-15.24-8.27-20.51C286.9,22,286,20.74,285,19.53L273,21.4A21.73,21.73,0,0,0,260.36,28.1Zm2.55,72.55c0,3.74-1.54,6.79-3.56,6.81s-3.7-3-3.75-6.71,1.55-6.78,3.56-6.81S262.86,96.92,262.91,100.65Zm13.28-36.06c.78,1.19-.16,3.17-2.1,4.44s-4.13,1.34-4.91.16.17-3.17,2.1-4.44S275.42,63.41,276.19,64.59ZM247.24,34.68c-1.67-.41-2.58-2.56-2-4.81s2.34-3.74,4-3.33,2.58,2.56,2,4.81S248.91,35.09,247.24,34.68Z" transform="translate(8.65)" fill="none" stroke="#2e5b1d" stroke-linecap="round" stroke-linejoin="round" stroke-width="3"/>
          <path d="M254.23,73.57a137.45,137.45,0,0,0-6.14-17.94,135.81,135.81,0,0,0-8.43-16.9,99.38,99.38,0,0,0-11-15.18,79.85,79.85,0,0,0-6.6-6.54,66.67,66.67,0,0,0-7.38-5.5l0,0a2,2,0,1,1,2.16-3.34l.09.06a70.31,70.31,0,0,1,7.52,6.24A82,82,0,0,1,231,21.63,100.93,100.93,0,0,1,241.4,37.76,137.55,137.55,0,0,1,249,55.27,139.17,139.17,0,0,1,254.23,73.57Z" transform="translate(8.65)" fill="#2e5b1d"/>
        </g>
        <g>
          <path d="M97.69,97.46l-2.2-2.09,4,1.36a14.48,14.48,0,0,1,9,8.94l3.83,11c20.15-20.73,13.78-48-8.2-50.75,0,0-3.31-21.51-15.08-34.37,0,0,2.89,24.35-3.34,24.71-8.37.48-8.26-32.52-8.26-32.52a47.62,47.62,0,0,0-30.12-.64l1.32.85A49.62,49.62,0,0,1,65.37,42.11h0A5.5,5.5,0,0,1,63,49.65h0a5.51,5.51,0,0,1-8-5.41h0a16.06,16.06,0,0,0-8.95-15.85l-5.6-2.74A58,58,0,0,0,17.86,44.87l14.24,7a17.27,17.27,0,0,1,7.16,6.52h0a2.71,2.71,0,0,1-.86,3.71h0a2.71,2.71,0,0,1-3.3-.3h0C28,56.43,10.31,58.44,10.31,58.44A104.65,104.65,0,0,0,5,77.63s22.18-2.21,22.52,3.48c.38,6.25-24.12,6.77-24.12,6.77-1,8-1.53,16-1.76,23.16l16-4.9a3.4,3.4,0,0,1,4.13,1.93h0a3.39,3.39,0,0,1-2.7,4.68l-6.27.81a12.91,12.91,0,0,0-11.27,13c.12,6.66.4,10.84.4,10.84s7.2.49,17.91.63a17.69,17.69,0,0,0,17.6-14.31h0a3.88,3.88,0,0,1,1.77-2.58h0a3.92,3.92,0,0,1,5.94,3.95l-2,12.58c6.6-.3,13.49-.81,20.23-1.62a11.55,11.55,0,0,0,9.25-7h0c3-7-3.4-16-.11-22h0l1.37-1.37a3.21,3.21,0,0,1,5.09.71h0A33.25,33.25,0,0,1,81.45,133h0c8.11-1.91,15.31-4.5,20.62-8,1.36-.89,2.63-1.82,3.86-2.75l-1.7-12.06A21.78,21.78,0,0,0,97.69,97.46ZM25.12,99c-3.74,0-6.77-1.63-6.77-3.65s3-3.66,6.77-3.66,6.76,1.64,6.76,3.66S28.85,99,25.12,99ZM61,112.8c-1.19.76-3.17-.21-4.41-2.16s-1.28-4.16-.09-4.91,3.16.2,4.41,2.16S62.18,112,61,112.8ZM91.3,84.25c.43-1.66,2.59-2.54,4.83-2s3.71,2.4,3.28,4.06-2.59,2.54-4.83,2S90.87,85.92,91.3,84.25Z" transform="translate(8.65)" fill="#4a8c32" stroke="#2e5b1d" stroke-linecap="round" stroke-linejoin="round" stroke-width="3"/>
          <g clip-path="url(#clip-path-2)">
            <path d="M59.44,26.34A44.68,44.68,0,0,1,75.2,29.11s-.1,32.52,8.09,32.52h.18c6.23-.36,3.34-24.72,3.34-24.72,11.77,12.86,15.08,34.38,15.08,34.38,22,2.75,28.35,30,8.2,50.75l-3.83-11a14.52,14.52,0,0,0-9-8.93l-4-1.36,2.2,2.09a21.78,21.78,0,0,1,6.54,12.71l1.7,12c-1.23.94-2.5,1.87-3.86,2.76-5.31,3.48-12.51,6.07-20.62,8a33.29,33.29,0,0,0-2.53-26.55,3.22,3.22,0,0,0-5.09-.72l-1.37,1.37c-3.29,6,3.07,15,.11,22a11.57,11.57,0,0,1-9.25,7c-6.75.81-13.63,1.32-20.23,1.62l2-12.58a3.92,3.92,0,0,0-3.87-4.56,4,4,0,0,0-3.84,3.19,17.69,17.69,0,0,1-17.37,14.31h-.23C7,143.28-.25,142.79-.25,142.79s-.28-4.18-.4-10.84a12.91,12.91,0,0,1,11.27-13l6.27-.81a3.39,3.39,0,0,0,2.7-4.68h0a3.4,3.4,0,0,0-3.13-2.08,3.46,3.46,0,0,0-1,.15l-16,4.9c.23-7.15.75-15.14,1.76-23.16,0,0,24.5-.52,24.12-6.77-.19-3.2-7.3-3.9-13.48-3.9-4.8,0-9,.42-9,.42A104.65,104.65,0,0,1,8.16,63.82a75,75,0,0,1,7.57-.37c5.7,0,13.19.65,17.22,3.7a2.69,2.69,0,0,0,1.84.72,2.75,2.75,0,0,0,1.46-.42,2.71,2.71,0,0,0,.86-3.71A17.27,17.27,0,0,0,30,57.22l-14.24-7A58,58,0,0,1,38.34,31l5.6,2.73a16.09,16.09,0,0,1,9,15.86,5.51,5.51,0,1,0,10.33-2.13h0A49.81,49.81,0,0,0,46.41,29.31l-1.32-.85a49.91,49.91,0,0,1,14.35-2.12m0-8v0A57.87,57.87,0,0,0,42.79,20.8a8,8,0,0,0-3.61,2.27,8.15,8.15,0,0,0-4.2.7A65.82,65.82,0,0,0,9.22,45.57a8,8,0,0,0,.6,10.08c-1.53.11-2.48.21-2.56.22a8,8,0,0,0-6.53,5A112.47,112.47,0,0,0-5,81.53,8,8,0,0,0-4,87.2a8,8,0,0,0-2.71,5c-.94,7.38-1.55,15.43-1.83,23.91A8,8,0,0,0-6.26,122a20.84,20.84,0,0,0-2.39,10.08c.12,6.78.41,11.06.42,11.24a8,8,0,0,0,7.44,7.44c.3,0,7.54.51,18.35.65h.33a25.63,25.63,0,0,0,15.65-5.33,8.12,8.12,0,0,0,1.43,2.3,8,8,0,0,0,6,2.67h.37c7.41-.34,14.41-.9,20.81-1.66a19.5,19.5,0,0,0,11.39-5.53,8,8,0,0,0,5.79,2.48,8.24,8.24,0,0,0,1.84-.21c9.79-2.31,17.37-5.28,23.17-9.08,1.38-.9,2.75-1.89,4.33-3.09a8,8,0,0,0,2.79-4,8,8,0,0,0,4.4-2.31c12.68-13.06,17.48-29.95,12.51-44.1A30,30,0,0,0,108.68,64.6c-1.9-7.92-6.48-22.72-16-33.09a8,8,0,0,0-9.23-1.87l-.28.13v-.63a8,8,0,0,0-5.15-7.51,53,53,0,0,0-18.61-3.29Z" transform="translate(8.65)" fill="#9be3bb"/>
          </g>
          <path d="M97.69,97.46l-2.2-2.09,4,1.36a14.48,14.48,0,0,1,9,8.94l3.83,11c20.15-20.73,13.78-48-8.2-50.75,0,0-3.31-21.51-15.08-34.37,0,0,2.89,24.35-3.34,24.71-8.37.48-8.26-32.52-8.26-32.52a47.62,47.62,0,0,0-30.12-.64l1.32.85A49.62,49.62,0,0,1,65.37,42.11h0A5.5,5.5,0,0,1,63,49.65h0a5.51,5.51,0,0,1-8-5.41h0a16.06,16.06,0,0,0-8.95-15.85l-5.6-2.74A58,58,0,0,0,17.86,44.87l14.24,7a17.27,17.27,0,0,1,7.16,6.52h0a2.71,2.71,0,0,1-.86,3.71h0a2.71,2.71,0,0,1-3.3-.3h0C28,56.43,10.31,58.44,10.31,58.44A104.65,104.65,0,0,0,5,77.63s22.18-2.21,22.52,3.48c.38,6.25-24.12,6.77-24.12,6.77-1,8-1.53,16-1.76,23.16l16-4.9a3.4,3.4,0,0,1,4.13,1.93h0a3.39,3.39,0,0,1-2.7,4.68l-6.27.81a12.91,12.91,0,0,0-11.27,13c.12,6.66.4,10.84.4,10.84s7.2.49,17.91.63a17.69,17.69,0,0,0,17.6-14.31h0a3.88,3.88,0,0,1,1.77-2.58h0a3.92,3.92,0,0,1,5.94,3.95l-2,12.58c6.6-.3,13.49-.81,20.23-1.62a11.55,11.55,0,0,0,9.25-7h0c3-7-3.4-16-.11-22h0l1.37-1.37a3.21,3.21,0,0,1,5.09.71h0A33.25,33.25,0,0,1,81.45,133h0c8.11-1.91,15.31-4.5,20.62-8,1.36-.89,2.63-1.82,3.86-2.75l-1.7-12.06A21.78,21.78,0,0,0,97.69,97.46ZM25.12,99c-3.74,0-6.77-1.63-6.77-3.65s3-3.66,6.77-3.66,6.76,1.64,6.76,3.66S28.85,99,25.12,99ZM61,112.8c-1.19.76-3.17-.21-4.41-2.16s-1.28-4.16-.09-4.91,3.16.2,4.41,2.16S62.18,112,61,112.8ZM91.3,84.25c.43-1.66,2.59-2.54,4.83-2s3.71,2.4,3.28,4.06-2.59,2.54-4.83,2S90.87,85.92,91.3,84.25Z" transform="translate(8.65)" fill="none" stroke="#2e5b1d" stroke-linecap="round" stroke-linejoin="round" stroke-width="3"/>
          <path d="M38.89,100.65A70.06,70.06,0,0,1,49.61,85.94a75.86,75.86,0,0,1,14-11.82,70.08,70.08,0,0,1,16.69-7.94A67.34,67.34,0,0,1,98.65,63c1.56,0,3.09-.11,4.68,0l2.36.15c.79,0,1.57.22,2.36.33s1.57.23,2.34.39l2.31.6a38,38,0,0,1,4.51,1.54A43.58,43.58,0,0,1,132.6,77,60.61,60.61,0,0,1,143,92.5a93.36,93.36,0,0,1,6.21,17.41l-3.85,1a98.24,98.24,0,0,0-6.16-16.57,61.22,61.22,0,0,0-9.68-14.47,39.32,39.32,0,0,0-13.88-9.94,33.94,33.94,0,0,0-4-1.42L109.5,68c-.69-.16-1.41-.26-2.11-.39s-1.41-.29-2.12-.34l-2.16-.16c-1.41-.17-2.91-.08-4.37-.11a66.31,66.31,0,0,0-17.35,2.6,71.69,71.69,0,0,0-16.14,7.13A87.48,87.48,0,0,0,51,87.33,93.46,93.46,0,0,0,38.89,100.65Z" transform="translate(8.65)" fill="#2e5b1d"/>
        </g>
        <g>
          <path d="M162.72,88.9h0a8.91,8.91,0,0,1,14.76,6.87l-.26,14.67" transform="translate(8.65)" fill="none" stroke="#2e5b1d" stroke-miterlimit="10" stroke-width="3.98"/>
          <path d="M169.72,108.85c1-3.61,14.95,0,14.95,0,.3-11-4.74-21.93-21.69-19.35,0,0-10.38-20.88-33.74-11.08,4.41,3.1,13,6.55,8.55,9-1.88,1-5.51-.32-8.89-1.94a10,10,0,0,0-13.37,4.41c-3.14,6.48-3.21,14.81-1.7,23.41,4.64-1.21,17.62-5.49,19.09-2.26,1.22,2.68-16.84,11.87-16.84,11.87.65,2.28,1.38,4.53,2.15,6.74,0,0,8.43-9.25,10.55-6.91,2.39,2.65-9,11.12-9,11.12a183,183,0,0,0,11.28,23.88s8.1-4.48,17.73-10.21c0,0-4.59-17.84,0-18.7,4-.75,5.88,15.14,5.88,15.14,10.46-6.4,21.16-13.49,24.57-17.58l.05-.06a7.85,7.85,0,0,0-3.12-12.14C172.61,112.72,169.22,110.76,169.72,108.85Z" transform="translate(8.65)" fill="#72b75b" stroke="#4a8c32" stroke-linecap="round" stroke-linejoin="round" stroke-width="3"/>
          <g clip-path="url(#clip-path-3)">
            <path d="M141.17,82.26C156.17,82.26,163,96,163,96a31.4,31.4,0,0,1,4.74-.38c13.17,0,17.22,9.86,16.95,19.73A53.12,53.12,0,0,0,174,113.7c-2.21,0-4,.4-4.3,1.61-.5,1.91,2.89,3.86,6.44,5.35a7.84,7.84,0,0,1,3.12,12.13l-.05.07c-3.41,4.09-14.11,11.17-24.57,17.58,0,0-1.8-15.17-5.61-15.17l-.27,0c-4.59.87,0,18.7,0,18.7-9.63,5.74-17.73,10.21-17.73,10.21a183,183,0,0,1-11.28-23.88s11.4-8.47,9-11.12a1.21,1.21,0,0,0-.93-.38c-3,0-9.62,7.29-9.62,7.29-.77-2.2-1.5-4.46-2.15-6.74,0,0,18.06-9.19,16.84-11.87-.39-.85-1.58-1.18-3.21-1.18-4.54,0-12.47,2.55-15.88,3.44-1.51-8.6-1.44-16.93,1.7-23.4a9.78,9.78,0,0,1,8.88-5.44,10.39,10.39,0,0,1,4.49,1c2.56,1.23,5.26,2.3,7.24,2.3a3.38,3.38,0,0,0,1.65-.36c4.47-2.46-4.14-5.9-8.55-9a30.79,30.79,0,0,1,11.93-2.61m0-6h0a36.82,36.82,0,0,0-14.24,3.08,6,6,0,0,0-3.65,4.88c0,.25,0,.49,0,.74a15.64,15.64,0,0,0-13.11,8.78c-3.39,7-4.13,16.09-2.21,27.06a6,6,0,0,0,2.66,4,7.45,7.45,0,0,0,1,.54,6,6,0,0,0-1.32,5.68c.66,2.29,1.41,4.66,2.25,7.06a6.07,6.07,0,0,0,1.21,2,6.14,6.14,0,0,0,.4,2.34,187.51,187.51,0,0,0,11.7,24.76,6,6,0,0,0,5.19,3,5.93,5.93,0,0,0,2.89-.75c.08,0,8.3-4.59,17.9-10.31a5.92,5.92,0,0,0,2.41-2.72l.41,0a6,6,0,0,0,3.13-.89c21.09-12.91,24.81-17.38,26-18.85l.08-.11a13.58,13.58,0,0,0,2.68-12,14.26,14.26,0,0,0-1.31-3.32,6.09,6.09,0,0,0,3-1.18,6,6,0,0,0,2.39-4.63c.22-8.2-2-15-6.54-19.6-2.8-2.87-7.91-6.29-16.41-6.29-.54,0-1.1,0-1.66,0-3.63-5-11.66-13.36-24.89-13.36Z" transform="translate(8.65)" fill="#9be3bb"/>
          </g>
          <path d="M169.72,108.85c1-3.61,14.95,0,14.95,0,.3-11-4.74-21.93-21.69-19.35,0,0-10.38-20.88-33.74-11.08,4.41,3.1,13,6.55,8.55,9-1.88,1-5.51-.32-8.89-1.94a10,10,0,0,0-13.37,4.41c-3.14,6.48-3.21,14.81-1.7,23.41,4.64-1.21,17.62-5.49,19.09-2.26,1.22,2.68-16.84,11.87-16.84,11.87.65,2.28,1.38,4.53,2.15,6.74,0,0,8.43-9.25,10.55-6.91,2.39,2.65-9,11.12-9,11.12a183,183,0,0,0,11.28,23.88s8.1-4.48,17.73-10.21c0,0-4.59-17.84,0-18.7,4-.75,5.88,15.14,5.88,15.14,10.46-6.4,21.16-13.49,24.57-17.58l.05-.06a7.85,7.85,0,0,0-3.12-12.14C172.61,112.72,169.22,110.76,169.72,108.85Z" transform="translate(8.65)" fill="none" stroke="#4a8c32" stroke-linecap="round" stroke-linejoin="round" stroke-width="3"/>
          <path d="M139.39,126.45a99.5,99.5,0,0,1,3.06-10,104.5,104.5,0,0,1,4.07-9.66,81.52,81.52,0,0,1,5.29-9.17,52.25,52.25,0,0,1,7-8.18,2,2,0,1,1,2.72,2.91.75.75,0,0,1-.14.12l-.05,0a48.86,48.86,0,0,0-7.19,6.92,77,77,0,0,0-5.92,8.31q-2.67,4.41-4.9,9.09A101.67,101.67,0,0,0,139.39,126.45Z" transform="translate(8.65)" fill="#2e5b1d"/>
        </g>
      </g>
    </g>
  </g>
</svg>
