<svg xmlns="http://www.w3.org/2000/svg" width="28.08" height="62.69" viewBox="0 0 28.08 62.69">
  <g id="Layer_2" data-name="Layer 2">
    <g id="Layer_1-2" data-name="Layer 1">
      <g id="fu_tic_spray">
        <g>
          <path d="M5.75,61.19A4.26,4.26,0,0,1,1.5,56.94V22.09a4.26,4.26,0,0,1,4.15-4.25V12.25c0-.11,0-.21,0-.32s0-.26,0-.33.07-.27.07-.28l.11-.3L6,10.78l.17-.29c0-.07.09-.13.13-.19l.2-.23.21-.21A2.38,2.38,0,0,1,7,9.66a1.39,1.39,0,0,1,.25-.17l.26-.14a2.61,2.61,0,0,1,.29-.12l0,0,.25-.07a2.28,2.28,0,0,1,.51-.09V4.16A2.66,2.66,0,0,1,11.22,1.5h5.64a2.66,2.66,0,0,1,2.65,2.66V9a3.23,3.23,0,0,1,2.92,3.21v5.59a4.26,4.26,0,0,1,4.15,4.25V56.94a4.24,4.24,0,0,1-3.82,4.23l-.43,0Z" fill="#cdf5f9"/>
          <path d="M16.86,3A1.15,1.15,0,0,1,18,4.16v6.37h1.21a1.72,1.72,0,0,1,1.71,1.72v7.09h1.4a2.75,2.75,0,0,1,2.75,2.75V56.94a2.75,2.75,0,0,1-2.47,2.73l-.28,0H5.75A2.75,2.75,0,0,1,3,56.94V22.09a2.75,2.75,0,0,1,2.75-2.75H7.14V12.25c0-.06,0-.12,0-.17a.13.13,0,0,0,0-.06s0-.08,0-.11a.14.14,0,0,1,0-.07.29.29,0,0,1,0-.09l0-.08s0-.05,0-.08a.3.3,0,0,0,0-.08l0-.06a.41.41,0,0,0,0-.09l0,0,.07-.09,0,0,.08-.09,0,0L7.71,11l0,0,.1-.08h0L8,10.78H8l.13-.07h0a.42.42,0,0,1,.14-.06h0l.15-.05h0a1.26,1.26,0,0,1,.33-.05h1.3V4.16A1.16,1.16,0,0,1,11.22,3h5.64M13.55,46.6h0a7.81,7.81,0,0,1-2-.34,7.81,7.81,0,0,0,2,.34M16.86,0H11.22A4.16,4.16,0,0,0,7.06,4.16V7.89L6.85,8a3.24,3.24,0,0,0-.38.21l-.37.23,0,0-.29.24,0,0L5.46,9l-.06.06c-.09.09-.16.18-.23.26l0,.07-.2.28-.1.16A2.18,2.18,0,0,0,4.7,10s-.07.13-.1.18-.07.15-.1.23l-.08.21-.07.21a2.1,2.1,0,0,0-.06.24,1.08,1.08,0,0,0,0,.21c0,.08,0,.17,0,.26a1.36,1.36,0,0,0,0,.2,3.59,3.59,0,0,0,0,.47v4.32A5.74,5.74,0,0,0,0,22.09V56.94a5.76,5.76,0,0,0,5.75,5.75H22.33a5.49,5.49,0,0,0,.58,0,5.73,5.73,0,0,0,5.17-5.72V22.09a5.75,5.75,0,0,0-4.15-5.52V12.25A4.71,4.71,0,0,0,21,7.89V4.16A4.15,4.15,0,0,0,16.86,0Z" fill="#5576b4"/>
        </g>
        <path d="M16.86,3H11.22a1.16,1.16,0,0,0-1.16,1.16v6.37h8V4.16A1.15,1.15,0,0,0,16.86,3Z" fill="#6ab3b9"/>
        <path d="M12.46,5.06c-.81,0-1.47.91-1.47,2s.66,2.05,1.47,2.05,1.47-.92,1.47-2.05S13.27,5.06,12.46,5.06Z" fill="#28575c"/>
        <path d="M19.22,10.53H8.76a1.26,1.26,0,0,0-.33.05h0l-.15.05h0a.42.42,0,0,0-.14.06h0L8,10.77H8l-.12.08h0l-.1.08,0,0-.09.09,0,0-.08.09,0,0-.07.09,0,0a.41.41,0,0,1,0,.09l0,.06a.3.3,0,0,1,0,.08s0,.05,0,.08l0,.08a.29.29,0,0,0,0,.09.14.14,0,0,0,0,.07s0,.07,0,.11a.13.13,0,0,1,0,.06c0,.05,0,.11,0,.17v3.07H20.93V12.25A1.72,1.72,0,0,0,19.22,10.53Z" fill="#cdf5f9"/>
        <path d="M20.93,15.32H7.14v4H8.65c0,.08,0,.16,0,.24a1.93,1.93,0,0,0,0-.24H20.93Z" fill="#98d9e4"/>
        <path d="M22.46,38.46A8.43,8.43,0,0,1,14,46.62h-.47a8.56,8.56,0,0,1-2-.35h0l-.31-.1-.08,0L10.9,46l-.1,0-.25-.11-.12,0-.23-.12-.12-.06-.23-.12-.12-.08-.21-.13-.13-.08-.2-.14L9.06,45l-.19-.14-.13-.1-.17-.15-.13-.11-.16-.15-.13-.12L8,44.06l-.12-.13-.15-.16-.12-.14-.13-.16-.12-.15-.12-.16L7.12,43,7,42.83l-.1-.16a1.74,1.74,0,0,1-.11-.18l-.1-.17-.1-.18L6.5,42l-.09-.17c0-.07,0-.13-.08-.19l-.08-.18-.08-.2A1.34,1.34,0,0,0,6.1,41L6,40.84a7.57,7.57,0,0,1-.12-.4,1.21,1.21,0,0,1,0-.18,1.74,1.74,0,0,1,0-.22c0-.06,0-.12-.05-.18a1.85,1.85,0,0,0,0-.23l0-.18,0-.25c0-.05,0-.11,0-.16s0-.19,0-.28,0-.1,0-.15a.76.76,0,0,0,0-.15H3V56.94a2.75,2.75,0,0,0,2.75,2.75H22.33l.28,0a2.75,2.75,0,0,0,2.47-2.73V38.46Z" fill="#98d9e4"/>
        <path d="M22.33,19.34H8.65a1.93,1.93,0,0,1,0,.24c0-.08,0-.16,0-.24H5.75A2.75,2.75,0,0,0,3,22.09V38.46H5.61a.76.76,0,0,1,0,.15s0,.1,0,.15,0,.18,0,.28,0,.11,0,.16l0,.25,0,.18a1.85,1.85,0,0,1,0,.23c0,.06,0,.12.05.18a1.74,1.74,0,0,0,0,.22,1.21,1.21,0,0,0,0,.18,7.57,7.57,0,0,0,.12.4l.06.2a1.34,1.34,0,0,1,.07.18l.08.2.08.18c0,.06,0,.12.08.19L6.5,42l.09.18.1.18.1.17a1.74,1.74,0,0,0,.11.18l.1.16.12.17.11.16.12.16.12.15.13.16.12.14.15.16.12.13.16.16.13.12.16.15.13.11.17.15.13.1.19.14.13.09.2.14.13.08.21.13.12.08.23.12.12.06.23.12.12,0,.25.11.1,0,.28.11.08,0,.31.1h0a8.56,8.56,0,0,0,2,.35H14a8.43,8.43,0,0,0,8.42-8.16h2.62V22.09A2.75,2.75,0,0,0,22.33,19.34Z" fill="#cdf5f9"/>
        <g>
          <circle cx="15.69" cy="25.56" r="1.41" fill="#781f1a"/>
          <circle cx="8.17" cy="33.17" r="1.41" fill="#781f1a"/>
          <circle cx="9.87" cy="27.18" r="1.41" fill="#781f1a"/>
          <circle cx="14.42" cy="31.83" r="6.25" fill="#d98885"/>
          <circle cx="14.42" cy="28.37" r="1.41" fill="#781f1a"/>
          <circle cx="11.03" cy="32.52" r="1.41" fill="#781f1a"/>
          <circle cx="16.75" cy="33.17" r="1.41" fill="#781f1a"/>
          <circle cx="19.91" cy="29.18" r="1.41" fill="#781f1a"/>
          <circle cx="19.71" cy="35.56" r="1.41" fill="#781f1a"/>
          <circle cx="12.68" cy="37.86" r="1.41" fill="#781f1a"/>
        </g>
      </g>
    </g>
  </g>
</svg>
