<svg xmlns="http://www.w3.org/2000/svg" xmlns:xlink="http://www.w3.org/1999/xlink" width="145.64" height="80.38" viewBox="0 0 145.64 80.38">
  <defs>
    <clipPath id="clip-path">
      <path d="M143.81,46.39c-2.29-14.53-20.51-6.71-20.51-6.71S130.61,13,111.7,8.35c-.41-.1-.84-.2-1.28-.28C90.18,4.41,88.53,23.86,88.49,24.41a18.82,18.82,0,0,0-2.83-3.66c-3-17.87-7.33-20.17-15.8-19-1.34.18-2.76.44-4.31.75C54.89,4.64,59.09,17.6,61,22.3a14.93,14.93,0,0,0-.68,1.39c-6.8-1.21-6.66,3.83-6.27,6.11-2.21-7.65-17-20.56-34.12-11-5.17,2.88-7.62,6.84-8.48,11-2.09,10.11,5,21.54,5.39,22.08l0,0C16,50.85,6.29,40,2.57,49.59a15.52,15.52,0,0,0-.77,2.66c-3,14.68,18.06,21.89,18.06,21.89s16.44,3.65,19,4.14c1.95.37,9.3-1.42,16.29-3.15,2.3-.57,4.56-1.14,6.56-1.62A34.67,34.67,0,0,0,75.18,66.9C77.77,69.81,80,72,81.29,72.61c4.61,2.08,22.59,5.1,38.74,4.89S146.1,60.92,143.81,46.39Z" fill="none"/>
    </clipPath>
  </defs>
  <g id="Layer_2" data-name="Layer 2">
    <g id="Layer_1-2" data-name="Layer 1">
      <g id="na_bushes_2" data-name="na_bushes 2">
        <g>
          <path d="M143.81,46.39c-2.29-14.53-20.51-6.71-20.51-6.71S130.61,13,111.7,8.35c-.41-.1-.84-.2-1.28-.28C90.18,4.41,88.53,23.86,88.49,24.41a18.82,18.82,0,0,0-2.83-3.66c-3-17.87-7.33-20.17-15.8-19-1.34.18-2.76.44-4.31.75C54.89,4.64,59.09,17.6,61,22.3a14.93,14.93,0,0,0-.68,1.39c-6.8-1.21-6.66,3.83-6.27,6.11-2.21-7.65-17-20.56-34.12-11-5.17,2.88-7.62,6.84-8.48,11-2.09,10.11,5,21.54,5.39,22.08l0,0C16,50.85,6.29,40,2.57,49.59a15.52,15.52,0,0,0-.77,2.66c-3,14.68,18.06,21.89,18.06,21.89s16.44,3.65,19,4.14c1.95.37,9.3-1.42,16.29-3.15,2.3-.57,4.56-1.14,6.56-1.62A34.67,34.67,0,0,0,75.18,66.9C77.77,69.81,80,72,81.29,72.61c4.61,2.08,22.59,5.1,38.74,4.89S146.1,60.92,143.81,46.39Z" fill="#6c9433" stroke="#507125" stroke-miterlimit="10" stroke-width="3"/>
          <g clip-path="url(#clip-path)">
            <path d="M117.24,35.85c-1.63-10.39-14.66-4.8-14.66-4.8S107.81,12,94.29,8.65l-.92-.2C78.9,5.84,77.73,19.74,77.69,20.14a12.79,12.79,0,0,0-2-2.62C73.55,4.74,70.43,3.1,64.37,3.94c-1,.13-2,.32-3.07.54C53.67,6,56.68,15.26,58,18.62c-.17.32-.33.66-.48,1-4.86-.87-4.77,2.74-4.49,4.37-1.58-5.47-12.16-14.7-24.39-7.9A11.39,11.39,0,0,0,22.62,24c-1.5,7.23,3.6,15.4,3.86,15.78l0,0c-.61-.7-7.52-8.45-10.18-1.6A11.62,11.62,0,0,0,15.72,40C13.54,50.53,28.63,55.69,28.63,55.69s11.75,2.61,13.6,3c1.39.26,6.65-1,11.65-2.26,1.64-.41,3.25-.81,4.69-1.15a25,25,0,0,0,9.61-4.73c1.85,2.08,3.46,3.67,4.37,4.08,3.29,1.49,16.15,3.65,27.69,3.5S118.88,46.24,117.24,35.85Z" fill="#c3bf4f"/>
          </g>
          <path d="M143.81,46.39c-2.29-14.53-20.51-6.71-20.51-6.71S130.61,13,111.7,8.35c-.41-.1-.84-.2-1.28-.28C90.18,4.41,88.53,23.86,88.49,24.41a18.82,18.82,0,0,0-2.83-3.66c-3-17.87-7.33-20.17-15.8-19-1.34.18-2.76.44-4.31.75C54.89,4.64,59.09,17.6,61,22.3a14.93,14.93,0,0,0-.68,1.39c-6.8-1.21-6.66,3.83-6.27,6.11-2.21-7.65-17-20.56-34.12-11-5.17,2.88-7.62,6.84-8.48,11-2.09,10.11,5,21.54,5.39,22.08l0,0C16,50.85,6.29,40,2.57,49.59a15.52,15.52,0,0,0-.77,2.66c-3,14.68,18.06,21.89,18.06,21.89s16.44,3.65,19,4.14c1.95.37,9.3-1.42,16.29-3.15,2.3-.57,4.56-1.14,6.56-1.62A34.67,34.67,0,0,0,75.18,66.9C77.77,69.81,80,72,81.29,72.61c4.61,2.08,22.59,5.1,38.74,4.89S146.1,60.92,143.81,46.39Z" fill="none" stroke="#507125" stroke-miterlimit="10" stroke-width="3"/>
        </g>
        <g>
          <path d="M114.46,50.55c-4.42-7.8-13.14.55-13.14.55S99.78,34.31,88,35.71a7.49,7.49,0,0,0-.79.11c-12.33,2.24-9.11,13.68-9,14-.21-.18-6.58-5.59-13.51,0-2.77,2.21-3.1,5.64-2.47,9a20.47,20.47,0,0,0,9.52,13.51l2,1.21c4.25,2.56,9.08,5.27,10.68,5.37,3.07.21,14-1.92,23.14-5.49S118.87,58.35,114.46,50.55Z" fill="#6c9433" stroke="#507125" stroke-miterlimit="10" stroke-width="3"/>
          <path d="M108.1,49.69c-3.15-5.57-9.38.39-9.38.39s-1.09-12-9.5-11l-.57.09c-8.79,1.59-6.5,9.76-6.43,10a7.53,7.53,0,0,0-9.65,0c-2,1.58-2.21,4-1.76,6.42A14.64,14.64,0,0,0,77.6,65.2l1.41.86c3,1.83,6.48,3.77,7.63,3.84,2.19.15,10-1.37,16.52-3.92S111.25,55.26,108.1,49.69Z" fill="#c3bf4f"/>
          <path d="M114.46,50.55c-4.42-7.8-13.14.55-13.14.55S99.78,34.31,88,35.71a7.49,7.49,0,0,0-.79.11c-12.33,2.24-9.11,13.68-9,14-.21-.18-6.58-5.59-13.51,0-2.77,2.21-3.1,5.64-2.47,9a20.47,20.47,0,0,0,9.52,13.51l2,1.21c4.25,2.56,9.08,5.27,10.68,5.37,3.07.21,14-1.92,23.14-5.49S118.87,58.35,114.46,50.55Z" fill="none" stroke="#507125" stroke-linejoin="round" stroke-width="3"/>
        </g>
      </g>
    </g>
  </g>
</svg>
