<svg xmlns="http://www.w3.org/2000/svg" viewBox="0 0 21.5 21.3"><g id="Layer_2" data-name="Layer 2"><g id="Layer_1-2" data-name="Layer 1"><g id="na_mangosteen1"><path d="M10.4,20.8a9.2,9.2,0,0,1-8.2-4.3,5.3,5.3,0,0,1-.4-5.3A8.5,8.5,0,0,1,3.2,9.1,12.1,12.1,0,0,1,9.7,5.5a11,11,0,0,1,2.6-.2,11,11,0,0,1,4.9,1,5.7,5.7,0,0,1,1.3.8A5.9,5.9,0,0,1,21,11c.3,3.6-4.6,8.9-7.9,9.5A12.4,12.4,0,0,1,10.4,20.8Z" style="fill:#84205c"/><path d="M12.3,5.8a9.9,9.9,0,0,1,4.7,1,4.7,4.7,0,0,1,1.2.7,5.5,5.5,0,0,1,2.3,3.6c.3,3.3-4.5,8.3-7.5,8.9a10.9,10.9,0,0,1-2.6.3,9,9,0,0,1-7.8-4,4.6,4.6,0,0,1-.3-4.9A5.9,5.9,0,0,1,3.6,9.5,10.8,10.8,0,0,1,9.8,6a10.6,10.6,0,0,1,2.5-.2m0-1h0L9.6,5A12.6,12.6,0,0,0,2.8,8.8,7.4,7.4,0,0,0,1.4,11a5.7,5.7,0,0,0,.3,5.8,10.1,10.1,0,0,0,8.7,4.5l2.8-.3c3.5-.7,8.6-6.2,8.3-10a6.2,6.2,0,0,0-2.7-4.3l-1.4-.8a10.9,10.9,0,0,0-5.1-1.1Z" style="fill:#5c1612"/><path d="M10.1,8.4C8.1,8.7,5.3,6,6.3,3.5s5.4-2.6,6.6-.9S12,8.1,10.1,8.4Z" style="fill:#6c9433"/><path d="M13,14.2c-.1.9,3.6,1.1,4,.6s-.8-.8-.8-.8,1.8-.7,1.7-1.6-2.1-1.6-2.6-1.1-.3,2.3-.3,2.3S13.2,13.3,13,14.2Z" style="fill:#e8a4d2"/><path d="M9.2,8.6c.5-1-3.4-3.4-5.2-3.1S-.3,8,.8,9.5,7.5,12.5,9.2,8.6Z" style="fill:#6c9433"/><path d="M8.7,8.2c0-.1-.1-1-1.6-2.7A8.6,8.6,0,0,0,5,3.7a.9.9,0,0,1-.6-.4H4.3a.8.8,0,0,1-.2-.4A2.6,2.6,0,0,1,6.3.5h.4c.6.2,1,.8,1.6,1.8a8.3,8.3,0,0,0,.8,1.2,12.1,12.1,0,0,1,1.6,4.4v.5l-2,.3Z" style="fill:#a8662f"/><path d="M6.4,1h.2c.5.2,1.1,1.3,2.1,2.8A10.7,10.7,0,0,1,10.2,8h-1s0-1-1.7-2.9A10.1,10.1,0,0,0,4.7,3h0V2.7c0-.9,1.1-1.6,1.8-1.7h0m0-1H6.3A3.1,3.1,0,0,0,3.6,2.8a1.1,1.1,0,0,0,.3.7H4a2,2,0,0,0,.7.6,5.6,5.6,0,0,1,2,1.6A5.7,5.7,0,0,1,8.2,8.2V9.3l1.1-.2h.9l1-.2V7.9A11.1,11.1,0,0,0,9.5,3.3L8.7,2C8,1,7.6.3,6.8.1Z" style="fill:#75411a"/><path d="M11.2,7.4s-2.8-2.3-4.6.8.5,7,2.4,6.7a4.7,4.7,0,0,0,3.6-3.2c.3-1.2-.7-3.2-.7-3.2a3.4,3.4,0,0,0,4.3.8c2.5-1.4,2.7-3.8,2.2-4.6S14.7,3,12.8,4.2A3.6,3.6,0,0,0,11.2,7.4Z" style="fill:#6c9433"/><path d="M6.4,6A4.3,4.3,0,0,0,4,5.5C2.3,5.8-.3,8,.8,9.5s3,1.8,5.1,1.5c.2,2.2,1.8,4.1,3.1,3.9a4.7,4.7,0,0,0,3.6-3.2c.3-1.2-.7-3.2-.7-3.2a3.4,3.4,0,0,0,4.3.8c2.5-1.4,2.7-3.8,2.2-4.6S15.1,3.1,13.2,4a1.7,1.7,0,0,0-.3-1.4c-.6-.9-2.3-1.3-3.8-1" style="fill:none;stroke:#507125;stroke-linecap:round;stroke-linejoin:round"/></g></g></g></svg>