<svg xmlns="http://www.w3.org/2000/svg" width="106.44" height="79.7" viewBox="0 0 106.44 79.7">
  <g style="isolation: isolate">
    <g id="Layer_2" data-name="Layer 2">
      <g id="Layer_1-2" data-name="Layer 1">
        <g id="na_rock1">
          <g>
            <path d="M86.45,54.44a15.41,15.41,0,0,0,.11-4.58,69.08,69.08,0,0,0-.84-7.56c-2.14-12.64-10.28-25.83-24-35.88A24.11,24.11,0,0,0,49.05,1.53,22.12,22.12,0,0,0,38,4.14C30.84,7.71,26.54,13,22.19,17.71A63,63,0,0,0,11.37,33.17C8.79,38.63,7.84,43.94,6.78,49.54a8.77,8.77,0,0,0,.28,4.9Z" fill="#cecece"/>
            <path d="M86.56,49.86a69.08,69.08,0,0,0-.84-7.56c-2.14-12.64-10.28-25.83-24-35.88A24.11,24.11,0,0,0,49.05,1.53a18.12,18.12,0,0,0-1.95,0A35.41,35.41,0,0,1,60.51,20.13c.56,1.94,1.44,4.14.54,6.09A13.93,13.93,0,0,1,58.5,29.5Q56.85,31.3,55,33c-5.1,4.93-10.8,9.64-16.25,14.43-2.63,2.33-5.29,4.63-7.85,7H86.45A15.41,15.41,0,0,0,86.56,49.86Z" fill="#cecece" opacity="0.7" style="mix-blend-mode: multiply"/>
            <path d="M81.6,46.53a70.67,70.67,0,0,0-6.74-9.4A52.58,52.58,0,0,0,61.35,25.31a3.74,3.74,0,0,1-.3.91A13.93,13.93,0,0,1,58.5,29.5Q56.85,31.3,55,33c-5.1,4.93-10.8,9.64-16.25,14.43-2.63,2.33-5.29,4.63-7.85,7H86.19C85.1,51.73,83.2,49.15,81.6,46.53Z" fill="#8d8d8d"/>
            <path d="M86.56,49.86a69.08,69.08,0,0,0-.84-7.56c-2.14-12.64-10.28-25.83-24-35.88a26,26,0,0,0-8.48-4.18,19.91,19.91,0,0,1,4.63,3.14A46.31,46.31,0,0,1,66,15.19a103.36,103.36,0,0,1,6.36,11.93c.94,2.05,2,4.1,2.75,6.17.59,1.62,1.61,3.72,1.14,5.4,0,.16-5.24-5.89-5.67-6.25,1.8,2.65,2.94,6.6,4,9.39.26.73.6,1.45.8,2.19.07.26.2.55.07.8-.29.57-1.42.67-2.29.82-5.78.91-11.42,2.06-17.22,2.93-3.88.59-8.76,1.84-12.78,1.06-.16,0-.24-.13-.21-.23a29.25,29.25,0,0,1,3.28-6,39,39,0,0,1,3.51-5.07c.84-1,1.75-1.89,2.7-2.81a122.68,122.68,0,0,1-16,7.25c-4.85,1.87-9.74,3.76-14.65,5.6a66.57,66.57,0,0,1-7.35,2.4c-1.33.33-3.39.87-4.83.45-1.78-.52-1.73-2.51-2-3.48-.08-.31-.16-.65-.26-1-.18.92-.35,1.84-.53,2.77a8.77,8.77,0,0,0,.28,4.9H86.45A15.41,15.41,0,0,0,86.56,49.86Z" fill="#cecece" opacity="0.7" style="mix-blend-mode: multiply"/>
          </g>
          <g>
            <path d="M1.68,70a7.09,7.09,0,0,1-.09-2.77,32.05,32.05,0,0,1,.66-4.54c1.69-7.61,8.12-15.55,19-21.6a22.66,22.66,0,0,1,10-3,21.77,21.77,0,0,1,8.7,1.58C45.6,41.87,49,45,52.42,47.88A39.81,39.81,0,0,1,61,57.19c2,3.29,2.77,6.49,3.62,9.85a4.1,4.1,0,0,1-.23,3Q31.8,86.43,1.68,70Z" fill="#cecece"/>
            <path d="M1.68,70a7.09,7.09,0,0,1-.09-2.77,32.05,32.05,0,0,1,.66-4.54c1.69-7.61,8.12-15.55,19-21.6a22.66,22.66,0,0,1,10-3,21.77,21.77,0,0,1,8.7,1.58C45.6,41.87,49,45,52.42,47.88A39.81,39.81,0,0,1,61,57.19c2,3.29,2.77,6.49,3.62,9.85a4.1,4.1,0,0,1-.23,3C42.55,80.42,21.56,81.44,1.68,70Z" fill="#cecece" opacity="0.6" style="mix-blend-mode: multiply"/>
            <path d="M1.59,67.23a32.05,32.05,0,0,1,.66-4.54c1.69-7.61,8.12-15.55,19-21.6a22.66,22.66,0,0,1,10-3c.44,0,.89,0,1.31,0a11.25,11.25,0,0,0-3.83,4.33c-1,1.79-1.59,3.63-2.41,5.44A38,38,0,0,0,24,54.58a25.07,25.07,0,0,0-.56,3.19A3.8,3.8,0,0,0,23.66,60c.69,1.38,2.36,2.41,4.17,3.34,4.39,2.23,9.39,4.71,15.17,5.52s11.84-.61,16.76-2.37c1.47-.53,2.89-1.11,4.26-1.7.2.74.39,1.49.58,2.25a4.1,4.1,0,0,1-.23,3Q30.58,86.44,1.68,70A7.09,7.09,0,0,1,1.59,67.23Z" fill="#cecece" opacity="0.7" style="mix-blend-mode: multiply"/>
            <path d="M1.59,67.23a32.05,32.05,0,0,1,.66-4.54c1.69-7.61,8.12-15.55,19-21.6a23.15,23.15,0,0,1,6.44-2.47,35.05,35.05,0,0,0-10.38,8.93,34.42,34.42,0,0,0-4.69,7.56,9.82,9.82,0,0,0,.87,9.11.31.31,0,0,0,.39.06c1.8-1.23,2-3,3.07-4.4,1.6-2.24,2.77-4.59,4.33-6.84,2-2.88,4.15-5.75,6.49-8.55-.48,1.13-.92,2.28-1.43,3.41-.05.12-.1.24-.16.36h0C23.19,52.62,23,57.39,22.1,62a11,11,0,0,0-.46,3.77,6.68,6.68,0,0,0,1.86,2.82c.44.48,5,9.15,5.47,9.62C19.08,77.25,9.79,75,1.68,70A7.09,7.09,0,0,1,1.59,67.23Z" fill="#575757"/>
          </g>
          <g>
            <path d="M104.36,63.16a29.6,29.6,0,0,0-4.8-12.37C96.27,46.24,89.89,42.05,82.14,40a23.75,23.75,0,0,0-18.26,2.08A55.09,55.09,0,0,0,51.7,51.18c-3.52,3.6-4.89,7.19-5.93,11.25-.61,2.36-1.36,4.82.09,7.13C47.7,72.5,52.77,74,57.6,74.84a119.93,119.93,0,0,0,32.51.67c4.17-.52,9.31-1.38,12.26-3.29C106,69.87,104.89,66,104.36,63.16Z" fill="#cecece"/>
            <path d="M104.36,63.16a29.6,29.6,0,0,0-4.8-12.37C96.27,46.24,89.89,42.05,82.14,40a23.75,23.75,0,0,0-18.26,2.08A55.09,55.09,0,0,0,51.7,51.18c-3.52,3.6-4.89,7.19-5.93,11.25-.61,2.36-1.36,4.82.09,7.13C47.7,72.5,52.77,74,57.6,74.84a119.93,119.93,0,0,0,32.51.67c4.17-.52,9.31-1.38,12.26-3.29C106,69.87,104.89,66,104.36,63.16Z" fill="#cecece"/>
            <path d="M104.36,63.16a29.6,29.6,0,0,0-4.8-12.37C96.27,46.24,89.89,42.05,82.14,40a23.75,23.75,0,0,0-18.26,2.08A55.09,55.09,0,0,0,51.7,51.18c-3.52,3.6-4.89,7.19-5.93,11.25-.61,2.36-1.36,4.82.09,7.13C47.7,72.5,52.77,74,57.6,74.84a119.93,119.93,0,0,0,32.51.67c4.17-.52,9.31-1.38,12.26-3.29C106,69.87,104.89,66,104.36,63.16ZM75.82,51.09a31.11,31.11,0,0,1-2,3.2,9.06,9.06,0,0,1-2.32,2.55,3.93,3.93,0,0,1-3.21.76,8.16,8.16,0,0,1-1.73-1c-.48-.31-8.07-7.79-7.53-8.64a7,7,0,0,1,.47-.64,11.91,11.91,0,0,1,3.23-3,31.52,31.52,0,0,1,4.46-2.45,16.67,16.67,0,0,1,4.52-1.49,4.17,4.17,0,0,1,3.63.84,7.11,7.11,0,0,1,1.76,5.36A10,10,0,0,1,75.82,51.09Z" fill="#cecece"/>
            <path d="M104.36,63.16a29.6,29.6,0,0,0-4.8-12.37C96.27,46.24,89.89,42.05,82.14,40a26.74,26.74,0,0,0-5.3-.87,17.18,17.18,0,0,1,5.66,6.42c.88,1.6,1.63,3.23,2.43,4.84A14.27,14.27,0,0,1,86,53.09a3.2,3.2,0,0,1,0,2.22c-.49,1-1.83,1.7-3.08,2.36-.73.4-1.49.78-2.15,1.21a19.54,19.54,0,0,0-2.09,1.66,32.48,32.48,0,0,0-7,7.64,38,38,0,0,0-3.3,7.88,119.86,119.86,0,0,0,21.7-.55c4.17-.52,9.31-1.38,12.26-3.29C106,69.87,104.89,66,104.36,63.16Z" fill="#8d8d8d" opacity="0.49"/>
            <path d="M104.36,63.16A29.73,29.73,0,0,0,99.57,50.8a43.84,43.84,0,0,0-15,3.16c-2.92,1.16-13.38,8.37-13.73,8.6,0,0-3.74-3.56-5.74-5.26s-4.45-4.52-6.68-6.2c-1.75-1.33-3.62-1.53-3-3.25a42.45,42.45,0,0,0-3.67,3.33c-3.52,3.6-4.89,7.19-5.93,11.25-.61,2.36-1.36,4.82.09,7.13C47.7,72.5,52.77,74,57.6,74.84a119.93,119.93,0,0,0,32.51.67c4.17-.52,9.31-1.38,12.26-3.29C106,69.87,104.89,66,104.36,63.16Z" fill="#8d8d8d"/>
          </g>
          <path d="M104.36,63.16a34.67,34.67,0,0,0-2.69-8.78c-.1-.2-.18-.4-.28-.6a1.09,1.09,0,0,1-.08-.15,22.22,22.22,0,0,0-1.74-2.83h0c-2.8-3.88-7.86-7.49-14.09-9.74C83,28.8,75,16.14,61.73,6.42c-.32-.24-.66-.47-1-.71-.17-.12-.35-.24-.54-.35s-.35-.23-.53-.34A26.09,26.09,0,0,0,57,3.62l-.29-.14c-.33-.14-.66-.29-1-.42L55.57,3a21.84,21.84,0,0,0-6.52-1.47,15.45,15.45,0,0,0-1.8,0h-.13A24,24,0,0,0,38,4.14C30.84,7.71,26.54,13,22.19,17.71A63,63,0,0,0,11.37,33.17C8.79,38.63,7.84,43.94,6.78,49.54a9.72,9.72,0,0,0-.06,3.76,25.42,25.42,0,0,0-4.47,9.39,32.05,32.05,0,0,0-.66,4.54A7.09,7.09,0,0,0,1.68,70a50.41,50.41,0,0,0,8.83,4.23,57.8,57.8,0,0,0,17.2,3.84L29,78.2l0-.07q1.18.06,2.37.06c.28,0,.56,0,.84,0h.2a65.7,65.7,0,0,0,22.22-4c1,.24,2,.44,3.05.62,3.42.56,7.08,1,10.82,1.2v0l1,0,.36,0c2.61.14,5.26.19,7.88.17h.6c2.53,0,5-.15,7.48-.35l.81-.07c1.19-.1,2.37-.22,3.52-.36,4.17-.52,9.31-1.38,12.26-3.29C106,69.87,104.89,66,104.36,63.16Z" fill="none" stroke="#575757" stroke-linecap="round" stroke-linejoin="round" stroke-width="3"/>
        </g>
      </g>
    </g>
  </g>
</svg>
