<svg xmlns="http://www.w3.org/2000/svg" viewBox="0 0 283.7 303.7"><g id="Layer_2" data-name="Layer 2"><g id="Layer_1-2" data-name="Layer 1"><g id="fu_dog_house" data-name="fu_dog house"><path d="M279.7,139.9l-4.4-4.3h0a16.6,16.6,0,0,0-3-11.3c-3.9-5.9-14.5-15.7-17.3-20-3.9-6-10.3-9-14.8-7.2h0c.9-3.6-.1-8.2-2.8-12.4-4-6.1-15.9-14-18.2-17.4-3.8-5.9-9.9-8.8-14.4-7.3h0c.9-3.7,0-8.4-2.8-12.7-4-6-14.9-15.4-17.7-19.6-4.3-6.6-11.5-9.5-16-6.6h0c-.2-3-2-5.8-3.2-9.2-4.8-14-40.3-14-44.2,0-.9,3.5-3,6.2-3.1,9.2h0c-4.5-2.9-11.7,0-16,6.6C99,31.9,88.1,41.3,84.1,47.3c-2.8,4.3-3.7,9-2.8,12.7h0c-4.5-1.5-10.6,1.4-14.5,7.3-2.2,3.4-14.1,11.3-18.1,17.4C46,88.9,45,93.5,45.9,97.1h-.1c-4.5-1.8-10.8,1.2-14.7,7.2-2.8,4.3-13.5,14.1-17.3,20s-3.8,9.3-2.7,13h0l-7.2,7.1a8.3,8.3,0,0,0,0,11.7,8.2,8.2,0,0,0,5.8,2.4,8.6,8.6,0,0,0,5.9-2.4l19.6-19.7,9,123.1c-12.2,4.4-19.4,9.6-19.4,15.2,0,15.2,52.4,27.5,117,27.5s117.1-12.3,117.1-27.5c0-5.6-7.2-10.8-19.4-15.2l9.3-127.2,19.3,19.4a8.2,8.2,0,0,0,11.8-.2A8.4,8.4,0,0,0,279.7,139.9Z" style="fill:#f7b53c"/><g id="VC"><ellipse id="VC-2" data-name="VC" cx="141.8" cy="274.7" rx="117" ry="27.5" style="fill:#bdeff4;stroke:#3b7e82;stroke-miterlimit:10;stroke-width:3px"/><path id="VC-3" data-name="VC" d="M230.3,272.2H53.4a8.9,8.9,0,0,1-8.8-7.9l-10-137.1L141.9,18.5l107.2,109-9.9,136.8A8.9,8.9,0,0,1,230.3,272.2Z" style="fill:#baa2ee;stroke:#7850b3;stroke-miterlimit:10;stroke-width:3px"/></g><path d="M196.4,221.7c-.4,11.7-1.2,23.5-2.2,35.2,1.3,1.8.8,3.2-1.2,4.3H95.3c-.8-16.9-2.4-32.8-2.8-49.5s-3.1-33.6,4-49.2c21.6-38.3,78.2-36.8,97.7,2.7C200.8,183.2,197.3,203,196.4,221.7Z" style="fill:#5576b4"/><path d="M188.7,227.8c-.3,10.2-1,20.2-1.8,30.4a1.9,1.9,0,0,1-.4,3h-84c-.1-1.8-.1-3.3-.2-5.5-1.1-13.4-1.7-25.4-2.3-39.3-.8-11.7-2.7-26.3,3.4-37.4,15.4-34.4,67.9-33,83.5.6C192.5,195,189.6,211.9,188.7,227.8Z" style="fill:#335394"/><path d="M114.3,120.5h-1.8c-4.3-.6-7.4-2.9-8.7-6.4a11.3,11.3,0,0,1,1.9-11,1.2,1.2,0,0,0,0-1.7A9.7,9.7,0,0,1,103,92a9.6,9.6,0,0,1,6-6.9,11.8,11.8,0,0,1,3.1-.5c4,0,7,2.3,9,3.9l1.2.8c.9.6,6.8,1.5,17,1.5s20.6-1,22.8-2.5l2-1.6c2.1-1.9,4.7-4.2,9.4-4.2h.1c2.9,0,6.8.8,8.6,4.7s.5,9.4-2,12.3a1.4,1.4,0,0,0,.1,1.7,9.8,9.8,0,0,1,2.1,9.5,8.6,8.6,0,0,1-6.9,5.6,8.3,8.3,0,0,1-2.2.3c-5.8,0-8.5-4.8-10-7.3-.1-.3-.3-.5-.4-.8s-1-.8-5.2-1.4a84.3,84.3,0,0,0-10.8-.6c-7.8,0-14.8.8-17.8,2.1s-4,3.2-5.5,5.5S119.2,120.5,114.3,120.5Z" style="fill:#ff8d3d"/><path d="M121.5,90.6c-2.2-1.4-6.3-5.8-12-4.1s-7.5,9.1-2.8,13.7a2.7,2.7,0,0,1,.2,3.7c-4,4.7-3.2,13.7,5.8,15s8.8-8.7,15.8-11.7,33.6-2.9,35.7.5,4.2,8.5,11,7.1,7.4-8.7,4-12.6a2.6,2.6,0,0,1-.1-3.6c3.5-4.3,4.7-14.6-5.6-14.6-5.6,0-7.8,3.7-10.6,5.6C157.6,93,125.1,93,121.5,90.6Z" style="fill:#ffaa5a;stroke:#ff8d3d;stroke-miterlimit:10;stroke-width:3px"/><path d="M114.3,116.9h-2l-1.7-.5c-.2-.1-.4-.4-.3-.6a.5.5,0,0,1,.7-.3,5.3,5.3,0,0,0,1.5.5h.7a6.3,6.3,0,0,0,2.4-.1h.2a3.3,3.3,0,0,0,1.3-.7.5.5,0,0,1,.7,0,.6.6,0,0,1-.1.7,5.1,5.1,0,0,1-1.6.9h-.2Zm-5-1.5H109c0-.1-.1-.1-.1-.2a.4.4,0,0,1-.1-.6.6.6,0,0,1,.7-.1h.1a.6.6,0,0,1,.1.7Zm9.3-.8h-.3a.5.5,0,0,1-.1-.7h.1a.5.5,0,0,1,.7-.1.6.6,0,0,1,.1.7h-.2ZM108,114l-.4-.2a5.4,5.4,0,0,1-.5-1.1c-.1-.2-.1-.4-.2-.6h0a4.4,4.4,0,0,1-.2-1.6v-.2a.5.5,0,0,1,.5-.5c.2,0,.4.3.4.5v.2a6.8,6.8,0,0,0,.2,1.4h0c.1.2.1.4.2.5a10.4,10.4,0,0,0,.4,1,.4.4,0,0,1-.1.6Zm11.7-.9h-.3a.6.6,0,0,1-.1-.7l.5-.7h.1a2.1,2.1,0,0,1,.4-.6h0c0-.1,0-.1.1-.1a8.5,8.5,0,0,1,1-1.4.4.4,0,0,1,.6-.1.5.5,0,0,1,.1.7l-1,1.3H121a1,1,0,0,1-.4.5h0a3.5,3.5,0,0,0-.5.8Zm53.5-.1h0a5.7,5.7,0,0,1-1.8-.3h-.2a6.5,6.5,0,0,1-1.6-.9.5.5,0,0,1,0-.7c.1-.2.4-.2.6,0a4.6,4.6,0,0,0,1.4.7h.1l1.5.2a.5.5,0,0,1,.5.5A.5.5,0,0,1,173.2,113Zm1.7-.2a.4.4,0,0,1-.4-.4.4.4,0,0,1,.3-.5h.2a.6.6,0,0,1,.6.4c0,.2-.1.5-.4.5h-.3Zm1.8-.7-.4-.2c-.2-.2-.1-.5.2-.6a5.2,5.2,0,0,0,1.1-1h0a.1.1,0,0,0,.1-.1,2,2,0,0,0,.4-.8,1.1,1.1,0,0,0,.1-.5c.1-.3.3-.5.6-.4s.4.3.4.5a6.4,6.4,0,0,1-.2.7,5.4,5.4,0,0,1-.5,1.1h-.2a4.4,4.4,0,0,1-1.4,1.3Zm-8-1.5-.3-.2a.1.1,0,0,1-.1-.1.5.5,0,0,1,0-.7.6.6,0,0,1,.7.1h.1a.5.5,0,0,1-.1.7Zm-1.1-1.5-.4-.2-.8-1.4h0a.1.1,0,0,1-.1-.1h0l-.4-.5a1.8,1.8,0,0,0-.5-.7.6.6,0,0,1-.1-.7.5.5,0,0,1,.7,0,1.6,1.6,0,0,1,.7.9,1,1,0,0,1,.4.5h0a.1.1,0,0,0,.1.1h0l.8,1.3a.5.5,0,0,1-.1.7Zm-60.2-.2h-.1a.5.5,0,0,1-.4-.6c0-.1.1-.1.1-.2a.5.5,0,0,1,.9.3h-.1A.4.4,0,0,1,107.4,108.9Zm15.4-.1h-.3a.5.5,0,0,1,0-.7h.1c.2-.2.5-.2.6,0a.4.4,0,0,1,.1.6c-.1.1-.1.1-.1.2Zm55.9-1.2a.4.4,0,0,1-.4-.4.1.1,0,0,0-.1-.1.7.7,0,0,1,.4-.6.5.5,0,0,1,.6.4v.2c0,.3-.1.5-.4.5Zm-54.6-.1-.3-.2c-.2-.2-.2-.5,0-.6l1.4-1.1h.2l1.5-.9a.4.4,0,0,1,.6.3c.2.2.1.5-.2.6l-1.4.8h-.1a.1.1,0,0,1-.1.1l-1.3,1Zm-16-.3h-.3a.4.4,0,0,1-.1-.6,3.6,3.6,0,0,1,.8-1.2l.2-.3h.1a3.5,3.5,0,0,0,.6-1.4.4.4,0,0,1,.6-.3.3.3,0,0,1,.3.5,5.1,5.1,0,0,1-.7,1.7h-.2c0,.1-.1.2-.2.3a3.6,3.6,0,0,0-.7,1A.5.5,0,0,1,108.1,107.2Zm70.1-1.4a.5.5,0,0,1-.4-.2,4.2,4.2,0,0,0-.9-1.4h0a.1.1,0,0,0-.1-.1,5.1,5.1,0,0,1-.9-1.6.5.5,0,0,1,.2-.6.4.4,0,0,1,.6.3l.8,1.3h.2a5.1,5.1,0,0,1,.9,1.6c.2.2,0,.5-.2.6Zm-13.9-.7h-.4a.5.5,0,0,1-.2-.6c.1-.3.4-.4.6-.2h.2a.6.6,0,0,1,.2.7Zm-35.6-.2a.5.5,0,1,1-.1-.9h.1a.6.6,0,0,1,.6.3c.1.3,0,.6-.3.6h-.3Zm33.8-.4h-.1l-1.6-.4h-.2l-1.6-.3c-.3,0-.5-.3-.4-.5s.3-.5.5-.4l1.7.3h.2l1.7.4c.2.1.4.4.3.6A.7.7,0,0,1,162.5,104.5Zm-32-.1a.4.4,0,0,1-.4-.4.3.3,0,0,1,.3-.5l1.7-.4h.2l1.7-.3c.2,0,.5.1.5.4s-.1.5-.4.5l-1.7.3h-.1l-1.7.4Zm5.2-.9a.7.7,0,0,1-.5-.4.5.5,0,0,1,.5-.5h.1c.3-.1.5.1.6.4s-.2.5-.4.5h-.3Zm21.7,0h-.3a.5.5,0,0,1-.4-.5c0-.2.3-.4.5-.4h.2c.3.1.5.3.4.6A.4.4,0,0,1,157.4,103.5Zm-19.8-.2a.5.5,0,0,1-.1-.9l1.7-.2h1.9a.5.5,0,0,1,.5.5.7.7,0,0,1-.4.5h-3.6Zm17.9,0h-.1l-1.6-.2h-1.9a.5.5,0,0,1-.5-.5.7.7,0,0,1,.5-.4h3.6a.5.5,0,0,1,.5.5C155.9,103.1,155.7,103.3,155.5,103.3Zm-12.6-.3a.5.5,0,0,1-.5-.5c0-.2.2-.5.4-.5h.2a.5.5,0,0,1,.5.5c0,.2-.2.5-.4.5Zm7.3-.1H150a.4.4,0,0,1-.4-.4.5.5,0,0,1,.4-.5h.2a.5.5,0,0,1,.5.5A.5.5,0,0,1,150.2,102.9Zm-5.5,0a.4.4,0,0,1-.4-.4.5.5,0,0,1,.4-.5h3.6a.5.5,0,0,1,.5.4.5.5,0,0,1-.5.5h-3.6Zm-34.6-.5a.5.5,0,0,1-.5-.4v-.2a.5.5,0,0,1,.9-.1v.2a.5.5,0,0,1-.5.5Zm65.8-1.2c-.2,0-.4-.2-.5-.5v-.2c0-.2.2-.4.5-.5a.5.5,0,0,1,.5.5v.2a.5.5,0,0,1-.5.5Zm-66.2-.6a.5.5,0,0,1-.5-.3,3.5,3.5,0,0,0-.8-1.3h-.1c0-.1-.1-.1-.1-.2a5.3,5.3,0,0,1-1-1.2.5.5,0,0,1,.1-.7.7.7,0,0,1,.7.2,3.9,3.9,0,0,0,.8,1l.2.2h.1a4.9,4.9,0,0,1,1,1.5.4.4,0,0,1-.2.6Zm66.4-1.3H176a.4.4,0,0,1-.3-.6,4.6,4.6,0,0,1,.7-1.6h.2c0-.1.1-.2.2-.3a5.2,5.2,0,0,0,.7-1.1.5.5,0,0,1,.6-.2.7.7,0,0,1,.2.7,3.6,3.6,0,0,1-.8,1.2l-.2.2h-.1a3.5,3.5,0,0,0-.6,1.4A.5.5,0,0,1,176.1,99.3Zm-69.2-3.1a.4.4,0,0,1-.4-.4c-.1-.1-.1-.1-.1-.2a.5.5,0,0,1,.4-.6c.2,0,.5.2.5.4v.2c0,.2-.1.5-.4.5S107,96.2,106.9,96.2Zm32.4-.9h-.9a.5.5,0,0,1-.5-.5.5.5,0,0,1,.5-.4H142a.5.5,0,0,1,0,1h-2.7Zm-2.6,0h-.2a.5.5,0,0,1,0-1h.2c.2,0,.4.3.4.5A.5.5,0,0,1,136.7,95.3Zm7-.1a.5.5,0,1,1-.1-.9h.2a.5.5,0,0,1,.5.5.4.4,0,0,1-.4.4Zm-8.9,0h-3.6a.5.5,0,0,1-.5-.5c0-.2.3-.4.5-.4h3.6a.5.5,0,0,1,.5.5A.7.7,0,0,1,134.8,95.2Zm10.7,0a.5.5,0,0,1-.4-.5.7.7,0,0,1,.4-.5h3.6a.5.5,0,0,1,.1.9h-3.7Zm-16-.2h-.2c-.3,0-.5-.2-.4-.5s.2-.5.5-.4h.1a.5.5,0,0,1,.5.5A.5.5,0,0,1,129.5,95Zm21.3-.1a.7.7,0,0,1-.5-.4.5.5,0,0,1,.5-.5h.2c.2-.1.5.1.5.4a.5.5,0,0,1-.5.5h-.2Zm-23.2,0h0l-1.7-.2h-.2l-1.7-.3c-.3,0-.4-.3-.4-.5s.3-.5.6-.4l1.6.2h.2l1.7.2c.2,0,.4.3.4.5A.5.5,0,0,1,127.6,94.9Zm25.1-.1c-.2,0-.4-.2-.5-.5a.5.5,0,0,1,.5-.5h1.8l1.7-.2a.5.5,0,0,1,.5.4c.1.3-.1.5-.4.6l-1.7.2h-.2l-1.7.2Zm25.9-.1h-.2c-.2-.1-.4-.4-.3-.6s0-.2.1-.2.3-.4.6-.3a.6.6,0,0,1,.3.6c-.1,0-.1.1-.1.2S178.8,94.7,178.6,94.7Zm-71.8-.4h0a.5.5,0,0,1-.5-.5c.1-.3.1-.7.2-1s.1-.5.2-.8h.1l.9-1.6a.5.5,0,0,1,.7,0c.2.1.2.4.1.6a6.4,6.4,0,0,0-.8,1.4h-.1c-.1.3-.1.5-.2.8a1.9,1.9,0,0,0-.1.8A.7.7,0,0,1,106.8,94.3Zm51.1-.2a.4.4,0,0,1-.4-.4c-.1-.2.1-.5.4-.5h.1a.7.7,0,0,1,.6.4.5.5,0,0,1-.4.6h-.3Zm-35.5,0h-.3c-.2,0-.4-.3-.3-.6a.4.4,0,0,1,.5-.3h.2a.6.6,0,0,1,.4.6A.7.7,0,0,1,122.4,94.1Zm37.4-.3a.7.7,0,0,1-.5-.4.5.5,0,0,1,.4-.6l1.6-.4h.2l1.5-.6a.5.5,0,0,1,.7.3c.1.2-.1.5-.3.6l-1.6.6h-.2l-1.7.4Zm-39.2-.3h-.2l-.6-.3-.9-.6h-.1l-.4-.3h-.1a7.3,7.3,0,0,0-.9-.8c-.2-.1-.2-.4-.1-.6a.5.5,0,0,1,.7-.1l.9.7h0l.4.3a.1.1,0,0,1,.1.1h.1l.8.6.5.3a.4.4,0,0,1,.3.6A.5.5,0,0,1,120.6,93.5Zm58.4-.7h-.1a.5.5,0,0,1-.4-.5,3.4,3.4,0,0,0,.1-1v-.6h-.1a3.2,3.2,0,0,0-.3-1.4h-.1c-.1-.3,0-.5.3-.7a.4.4,0,0,1,.6.3h0a8.4,8.4,0,0,1,.5,1.7h0v.7a4.5,4.5,0,0,1-.1,1.1A.4.4,0,0,1,179,92.8Zm-14.3-.9-.4-.2a.6.6,0,0,1,.1-.7h.2c.2-.1.5-.1.6.1a.5.5,0,0,1-.1.7h-.4Zm1.5-1.2h-.4a.5.5,0,0,1,.1-.7l.5-.5.7-.6h.2a6.7,6.7,0,0,1,1.4-1.1.4.4,0,0,1,.6.1.5.5,0,0,1-.1.7,5,5,0,0,0-1.3,1h-.1l-.7.6-.6.5Zm-49.9-.2H116a.1.1,0,0,1-.1-.1.5.5,0,0,1-.2-.6.6.6,0,0,1,.7-.2h.1c.3.2.3.4.2.7Zm-7-.7a.4.4,0,0,1-.4-.2.5.5,0,0,1,.2-.6h.2a.4.4,0,0,1,.6.1c.1.3.1.6-.2.7h-.4Zm5.3-.2h-.2l-1.5-.4h-.2a3.8,3.8,0,0,0-1.5,0c-.3.1-.5-.1-.6-.4s.2-.5.4-.5h2a5.8,5.8,0,0,1,1.8.4.5.5,0,0,1,.2.6C115,89.5,114.8,89.6,114.6,89.6ZM177.5,88h-.4a.7.7,0,0,1-.2-.7.5.5,0,0,1,.7-.1h.2a.6.6,0,0,1,.1.7Zm-7.1-.4c-.2,0-.3-.1-.4-.3a.5.5,0,0,1,.2-.6h.2a.4.4,0,1,1,.4.8h-.4Zm5.4-.3h-.1a7.6,7.6,0,0,0-1.6-.3h-1.8c-.3.1-.5-.1-.5-.4s.1-.5.4-.5h1.9l1.8.2c.2.1.4.4.3.6A.4.4,0,0,1,175.8,87.3Z" style="fill:#ffeb81"/><g id="VC-4" data-name="VC"><path d="M207.4,188.4c-.4,15-2.3,45.4-4,71.4H195v-5.9c0-1.1.8-4-.5-4.8a2.2,2.2,0,0,0,.2-3.5c1.5-.6,1-3.6,1.2-4.8s.8-4.2-.6-5a2.2,2.2,0,0,0,.2-3.5c1.5-.6,1-3.6,1.2-4.8s.8-4.2-.6-5a2.2,2.2,0,0,0,.2-3.5c1.4-.6.9-3.6,1.1-4.8s.8-4.2-.6-5a2.1,2.1,0,0,0,.2-3.5c1.5-.6.9-3.6,1.1-4.9s.8-4.1-.6-4.9a2.2,2.2,0,0,0,.1-3.5c1.6-1,.8-3.3,1.1-4.8s.6-4.1-1.1-5.2a2.1,2.1,0,0,0-.4-3.5c1.5-1.2-.7-9.4-2.6-9.7,1-1,0-3.1-1.4-3.2,1.2-1.6-3.1-8.9-5-8.7a2.2,2.2,0,0,0-2.2-2.8c.6-1.8-5.4-7.6-7.1-7a2.1,2.1,0,0,0-2.9-2.1c0-2.1-6.8-6-8.6-5.1a2.1,2.1,0,0,0-3.3-1.3c-.3-1.9-8.3-4.2-9.6-2.8a2.1,2.1,0,0,0-3.5-.5c-.8-1.8-9.1-2-10-.3a2.1,2.1,0,0,0-3.5.4c-1.2-1.5-9.3.3-9.7,2.2a2.2,2.2,0,0,0-3.4,1.2c-1.4-1.2-8.9,2.7-8.9,4.6a2.1,2.1,0,0,0-2.9,2c-1.5-1-8.3,5-7.5,6.6a2.1,2.1,0,0,0-2.3,2.7c-1.9-.3-6.6,6.6-5.6,8.3a2.1,2.1,0,0,0-1.5,3.2c-2.1.4-4.5,7.9-3.1,9.5a2.1,2.1,0,0,0-.7,3.5c-1.7.3-2.1,9.4-.4,10a2.1,2.1,0,0,0,.1,3.5c-1.5,1.1-.5,3.4-.7,5.1s-.3,4.1,1.1,4.7a2.2,2.2,0,0,0,.2,3.5c-1.4.8-.6,3.7-.6,5s-.3,4.2,1.1,4.8a2.2,2.2,0,0,0,.3,3.5c-1.4.8-.6,3.7-.6,5s-.4,4.2,1.1,4.8a2.2,2.2,0,0,0,.2,3.5c-1.4.8-.5,3.7-.6,5s-.3,4.2,1.2,4.8a2.2,2.2,0,0,0,.2,3.5c-1.3.9-.5,3.7-.5,5s-.3,4.2,1.2,4.8c-1.2.7-.7,2.6-.8,3.7H86c-1.8-27.3-3.7-56.6-4-73.2C82.8,106,208.9,107.6,207.4,188.4Z" style="fill:#bdeff4;stroke:#3b7e82;stroke-linecap:round;stroke-linejoin:round;stroke-width:3px"/><path d="M279.7,139.9l-4.4-4.3h0a16.6,16.6,0,0,0-3-11.3c-3.9-5.9-14.5-15.7-17.3-20-3.9-6-10.3-9-14.8-7.2h0c.9-3.6-.1-8.2-2.8-12.4-4-6.1-15.9-14-18.2-17.4-3.8-5.9-9.9-8.8-14.4-7.3h0c.9-3.7,0-8.4-2.8-12.7-4-6-14.9-15.4-17.7-19.6-4.3-6.6-11.5-9.5-16-6.6h0c-.2-3-2-5.8-3.2-9.2-4.8-14-40.3-14-44.2,0-.9,3.5-3,6.2-3.1,9.2h0c-4.5-2.9-11.7,0-16,6.6C99,31.9,88.1,41.3,84.1,47.3c-2.8,4.3-3.7,9-2.8,12.7h0c-4.5-1.5-10.6,1.4-14.5,7.3-2.2,3.4-14.1,11.3-18.1,17.4C46,88.9,45,93.5,45.9,97.1h-.1c-4.5-1.8-10.8,1.2-14.7,7.2-2.8,4.3-13.5,14.1-17.3,20s-3.8,9.3-2.7,13h0l-7.2,7.1a8.3,8.3,0,0,0,0,11.7,8.2,8.2,0,0,0,5.8,2.4,8.6,8.6,0,0,0,5.9-2.4L144,27.6h.1l124,124.1a8.3,8.3,0,0,0,11.8-.2A8.4,8.4,0,0,0,279.7,139.9Z" style="fill:#bdeff4;stroke:#3b7e82;stroke-miterlimit:10;stroke-width:3px"/><path d="M11.3,137.1,128.8,20.2a20.9,20.9,0,0,1,29.5,0L281.2,141.4" style="fill:none;stroke:#3b7e82;stroke-linejoin:round;stroke-width:3px"/></g></g></g></g></svg>