<svg xmlns="http://www.w3.org/2000/svg" viewBox="0 0 210.8 173.6"><g style="isolation:isolate"><g id="Layer_2" data-name="Layer 2"><g id="Layer_1-2" data-name="Layer 1"><g id="fu_bathub"><path d="M77.5,64.5h97.3s7.3-6.4,2.4-17.5a15.4,15.4,0,0,0-13.5-9.5s2.2-7.2-6.1-11.5a11.7,11.7,0,0,0-4.7-13.3c-6-4.3-12.7,0-12.7,0S137.4-.5,123.8,1.8c-11.6,1.9-11.1,13.8-11.1,13.8s-8.5-.4-9.7,9c0,0-8.6-2.9-16.3,5s-4.9,16.3-4.9,16.3a11.1,11.1,0,0,0-6.5,7.4C73.5,59.2,77.5,64.5,77.5,64.5Z" style="fill:#98d9e4;stroke:#5576b4;stroke-miterlimit:10;stroke-width:3px"/><path d="M121.9,5c-5.9,2.2-7.1,7.5-5.4,11.1s7.8,1.8,8.6,0-1.7-4.6,1-7.5S125.1,3.8,121.9,5Z" style="fill:#fff"/><path d="M161.2,42.3c-5.9,2.3-7,7.6-5.4,11.2s7.8,1.8,8.6,0-1.7-4.7,1-7.5S164.4,41.1,161.2,42.3Z" style="fill:#fff"/><path d="M143.4,13.2c-4.6,1.8-5.6,5.9-4.3,8.7s6.2,1.4,6.8,0-1.3-3.6.8-5.9S145.9,12.3,143.4,13.2Z" style="fill:#fff"/><path d="M89.3,32.3c-3.3-.1-6.5,8.3-3.7,14.7,1.7,4.1,7,6.6,9.1,2.7s-3.2-3.9-3.6-9.1S93.6,32.4,89.3,32.3Z" style="fill:#fff"/><path d="M120.2,71.4H26.5S21.7,70.2,22,64a10.8,10.8,0,0,1,8.3-10.1s-3.6-4.8-.9-11.9,10.4-8.1,10.4-8.1-.3-6.6,8.4-9.9c6.6-2.5,12.7.6,14.8,4.2,0,0,7-5.1,15-.9a13.8,13.8,0,0,1,7.1,10.8A9.5,9.5,0,0,1,95.2,38c5.1,3.3,3.8,9.7,3.8,9.7s5.4-3.9,10.7-1.7a11.9,11.9,0,0,1,7.5,11.3,6.3,6.3,0,0,1,5.4,3.6C125.8,67.9,120.2,71.4,120.2,71.4Z" style="fill:#98d9e4;stroke:#5576b4;stroke-miterlimit:10;stroke-width:3px"/><path d="M48.1,25.9C42.5,28,41.4,33,42.9,36.4s7.4,1.7,8.1,0-1.5-4.4,1-7.1S51,24.8,48.1,25.9Z" style="fill:#fff"/><path d="M67.9,27.9c-3.7,1.4-4.5,4.8-3.4,7.1s5,1.2,5.5,0-1.1-3,.6-4.8S70,27.1,67.9,27.9Z" style="fill:#fff"/><path d="M34.9,39.1c-2.7,0-5.2,6.6-3,11.7,1.4,3.2,5.5,5.2,7.2,2.1s-2.5-3.1-2.8-7.2S38.3,39.2,34.9,39.1Z" style="fill:#fff"/><path d="M28.4,56.9c-3.8,1.4-4.6,4.8-3.5,7.1s5,1.2,5.5,0-1.1-3,.7-4.8S30.4,56.1,28.4,56.9Z" style="fill:#fff"/><path d="M104.7,66.4a8.2,8.2,0,0,1,1-8,6.7,6.7,0,0,1,6.8-3.3,8.8,8.8,0,0,1,5.8-6.7c5.1-1.7,9.8,2.1,9.8,2.1s3.5-5.7,10-4.2,7.7,7.3,7.7,7.3,5.5-2.9,9.8.7,4.2,9.2,2.2,12.1Z" style="fill:#98d9e4;stroke:#5576b4;stroke-miterlimit:10;stroke-width:3px"/><path d="M117.7,50.5c-3.5,1.3-4.1,4.4-3.2,6.5s4.6,1.1,5,0-.9-2.7.7-4.4S119.5,49.8,117.7,50.5Z" style="fill:#fff"/><path d="M133.3,48a3.9,3.9,0,0,0-2.6,5.3c.8,1.7,3.7.9,4.1,0s-.8-2.2.5-3.6S134.8,47.4,133.3,48Z" style="fill:#fff"/><g id="VC"><path d="M191.4,56.6a43.9,43.9,0,0,1,5.4.3c15.4,2.5,13.6,18,1.3,18-2.7,0-5.3.1-7.9.3a62.4,62.4,0,0,0-8.4,16.1c-5,14.2-5.5,32.8-17.6,50.2l-1.2,1.6h0s.2,24.8-1.4,27.3l-.4.2c-2.6,0-12.5-16.2-12.5-16.2h0c-12.9,6-28.8,6-43.3,6s-30.4,0-43.2-6h0s-10,16.2-12.5,16.2l-.4-.2c-1.6-2.5-1.5-27.3-1.5-27.3h0l-1.2-1.6c-12.1-17.4-12.6-36-17.5-50.2a59.2,59.2,0,0,0-8.5-16.1q-3.9-.3-7.8-.3c-12.4,0-14.2-15.5,1.3-18a41.1,41.1,0,0,1,5.3-.3c18.4,0,55.3,9.2,86,9.2s67.7-9.2,86-9.2m0-3c-8.2,0-19.7,1.7-32.9,3.7-16.9,2.6-36,5.5-53.1,5.5s-36.2-2.9-53-5.5c-13.3-2-24.8-3.7-33-3.7a33.7,33.7,0,0,0-5.8.4C3.6,55.6-.4,62,0,67.6S4.6,77.9,12.8,77.9l6.2.2a55.6,55.6,0,0,1,7.2,14.2A123.2,123.2,0,0,1,30,106.6c2.6,11.4,5.6,24.3,14.2,36.6l.6.9c0,2.1,0,6.9.1,11.8.4,13.8,1.3,15.2,1.8,16.1a3.7,3.7,0,0,0,3,1.6c1.4,0,4,0,13.7-15.4,12.9,5.2,28.3,5.2,42,5.2s29.1,0,42.1-5.2c9.7,15.4,12.3,15.4,13.7,15.4a3.4,3.4,0,0,0,2.9-1.6c.6-.9,1.4-2.3,1.8-16.1.1-4.9.1-9.7.1-11.8l.7-.9c8.6-12.3,11.5-25.2,14.1-36.6a147.2,147.2,0,0,1,3.8-14.3,59.1,59.1,0,0,1,7.2-14.2l6.3-.2c8.2,0,12.3-5.3,12.7-10.3s-3.6-12-13.6-13.6a32.2,32.2,0,0,0-5.8-.4Z" style="fill:#335394"/><path d="M47.8,143.1s-.1,24.8,1.5,27.3,12.9-16,12.9-16Z" style="fill:#5576b4"/><path d="M163,143.1s.2,24.8-1.4,27.3-12.9-16-12.9-16Z" style="fill:#5576b4"/><path d="M105.4,71.2H17s7.1,6,12.1,20.1,5.4,32.8,17.5,50.2c13.2,18.9,37.6,18.9,58.8,18.9s45.7,0,58.8-18.9c12.1-17.4,12.6-36,17.6-50.2s12.1-20.1,12.1-20.1Z" style="fill:#a7bfee"/><path d="M27.5,71.2s7.1,6.2,10,22.1,7.3,30.5,13.9,37.4c0,0-5.2-12.1-5.3-31.9s-4.5-27.6-4.5-27.6Z" style="fill:#fff;opacity:0.30000000000000004;mix-blend-mode:screen"/><path d="M183.4,71.2s-7.1,6.2-10,22.1-7.4,30.5-13.9,37.4c0,0,5.2-12.1,5.2-31.9s4.5-27.6,4.5-27.6Z" style="fill:#fff;opacity:0.30000000000000004;mix-blend-mode:screen"/><path d="M196.8,56.9c-15.5-2.5-57.3,8.9-91.4,8.9S29.6,54.4,14.1,56.9s-13.7,18-1.3,18c27.5,0,49.8,10.9,92.6,10.9s65.1-10.9,92.7-10.9C210.4,74.9,212.2,59.4,196.8,56.9Z" style="fill:#a7bfee"/><g style="opacity:0.5;mix-blend-mode:multiply"><path d="M105.4,87.3c-23.9,0-41.4-3.4-56.9-6.4-12.7-2.4-23.6-4.5-35.7-4.5-7.3,0-10.9-4.6-11.3-8.9S4.8,56.9,13.9,55.4a43.3,43.3,0,0,1,5.5-.3c8.1,0,19.5,1.7,32.8,3.7,16.8,2.6,36,5.5,53.2,5.5s36.4-2.9,53.3-5.5c13.2-2,24.6-3.7,32.7-3.7a45,45,0,0,1,5.6.3c9.1,1.5,12.7,7.1,12.3,12.1s-4,8.9-11.2,8.9c-12.2,0-23.1,2.1-35.7,4.5C146.9,83.9,129.3,87.3,105.4,87.3Z" style="fill:#a7bfee"/><path d="M191.4,56.6a43.9,43.9,0,0,1,5.4.3c15.4,2.5,13.6,18,1.3,18-27.6,0-49.9,10.9-92.7,10.9S40.3,74.9,12.8,74.9c-12.4,0-14.2-15.5,1.3-18a41.1,41.1,0,0,1,5.3-.3c18.4,0,55.3,9.2,86,9.2s67.7-9.2,86-9.2m0-3c-8.2,0-19.7,1.7-32.9,3.7-16.9,2.6-36,5.5-53.1,5.5s-36.2-2.9-53-5.5c-13.3-2-24.8-3.7-33-3.7a33.7,33.7,0,0,0-5.8.4C3.6,55.6-.4,62,0,67.6S4.6,77.9,12.8,77.9c12,0,22.8,2.1,35.4,4.5,15.6,3,33.2,6.4,57.2,6.4s41.7-3.4,57.3-6.4c12.5-2.4,23.4-4.5,35.4-4.5,8.2,0,12.3-5.3,12.7-10.3s-3.6-12-13.6-13.6a32.2,32.2,0,0,0-5.8-.4Z" style="fill:#335394"/></g></g><path d="M83.1,130.8S82,121.9,88,119.7s11.3-4.1,12.9-5.6,8.1-1.6,9.8,1,1.3,6.6,3.6,12.2,2.9,9.3-2.8,11.5-10.3-6.6-15.1-6.8S86.5,135.5,83.1,130.8Z" style="fill:#f1f2f2"/><path d="M120.1,125a4.7,4.7,0,0,1-4.3-5.5,2.8,2.8,0,0,1,1.1-1.8c2.1-1.5,6.9-5.6,10.1-2.1S125.3,125.4,120.1,125Z" style="fill:#f1f2f2"/><path d="M102.8,107.9a4.8,4.8,0,0,1-7.2-1.3,2.5,2.5,0,0,1-.3-1.9c.6-2.5,1.5-8.7,6.2-8.3S106.7,104.7,102.8,107.9Z" style="fill:#f1f2f2"/><path d="M91.9,112.5a4.5,4.5,0,0,1-6.7,1.9,2.3,2.3,0,0,1-1.1-1.6c-.5-2.3-2.4-8.1,1.9-9.7S93.9,108.1,91.9,112.5Z" style="fill:#f1f2f2"/><path d="M113.9,111.7a4.7,4.7,0,0,1-4.6-2.8c-1.6-3.2,4.8-11.5,9.1-7.6S116.5,111.4,113.9,111.7Z" style="fill:#f1f2f2"/></g></g></g></g></svg>