<svg id="Layer_1" data-name="Layer 1" xmlns="http://www.w3.org/2000/svg" xmlns:xlink="http://www.w3.org/1999/xlink" viewBox="0 0 466.5 66.9"><defs><clipPath id="clip-path"><ellipse id="SVGID" cx="234.1" cy="32.6" rx="217.1" ry="25.7" style="fill:none"/></clipPath></defs><g id="fu_rug_1" data-name="fu_rug 1"><g id="VC"><path d="M232.9,59.7c-58.1,0-112.7-2.6-153.7-7.5-43.1-5.1-65-11.7-65-19.6S36.1,18,79.2,12.9c41-4.8,95.6-7.5,153.7-7.5s112.6,2.7,153.7,7.5c43.1,5.1,64.9,11.7,64.9,19.7s-21.8,14.5-64.9,19.6C345.5,57.1,290.9,59.7,232.9,59.7Z" style="fill:#85b1e1"/><path d="M232.9,6.9C352.8,6.9,450,18.4,450,32.6S352.8,58.2,232.9,58.2,15.7,46.7,15.7,32.6,112.9,6.9,232.9,6.9m0-3C174.8,3.9,120.1,6.6,79,11.4c-20.1,2.4-35.9,5.2-47,8.3-13.3,3.7-19.3,7.7-19.3,12.9s6,9.1,19.3,12.8c11.1,3.1,26.9,5.9,47,8.3,41.1,4.8,95.8,7.5,153.9,7.5s112.7-2.7,153.9-7.5c20.1-2.4,35.9-5.2,47-8.3,13.3-3.7,19.2-7.7,19.2-12.8s-5.9-9.2-19.2-12.9c-11.1-3.1-26.9-5.9-47-8.3C345.6,6.6,291,3.9,232.9,3.9Z" style="fill:#5576b4"/></g><g style="clip-path:url(#clip-path)"><path d="M43.9,48.8A74.6,74.6,0,0,1,69,23.3c1.6-.9,3.4-1.9,5-1.6,4,.5,3.2,5.9,1.7,9.6s-1.6,9.3,2.5,9.1a7.1,7.1,0,0,0,3-1c4.3-2.5,7.6-6.3,11.4-9.6s8.6-6.2,13.3-5.6a6.2,6.2,0,0,1,2.9,1.2c4.7,4.1-5.1,14.4-.3,18.5,2.2,1.8,6.2.8,9-1.1s5.1-4.4,8-5.9,7.2-1.6,8.4,1a6.4,6.4,0,0,1,.5,4.1c-1.6,4.5-3.4,12.3-9.5,16.7C121.6,61,57.3,50,45.5,46.3" style="fill:#fff"/><path d="M335.3,8.9c-6.1.9-22.7-3.5-26.6-2.5s-4.3,5.2-4.8,8.1,1.1,6.1,4.9,7.7,8.2,1.3,12.4,1.7,8.9,2.1,8.8,4.9-9.3,6.2-7.1,9.7c.8,1.2,2.9,1.9,4.9,2.5,21,5.7,46,5.1,66.3-1.5a11.3,11.3,0,0,0,3.3-1.6c3.2-2.6-1.3-6.4-6.3-7.4s-10.7-.9-14.9-2.9c-.7-.3-1.3-.6-1.5-1.1s1.5-1.9,3.1-2.3c9-2,18.9-1.3,28.4-1.2s31.3,4,26.6-2.3-50-9.9-62.1-10.6" style="fill:#fff"/><path d="M340.6,60.4c-6.4-10.6-19.3-18.7-32.6-25.9-3.7-2-7.5-4-12.3-4.7s-10.8.4-13.4,3.3c-5.1,5.6,4.7,13.9-3.2,18-4,2.1-9.9,1-13.4-1.1s-5.9-4.9-9.6-6.8-10-2.5-13.5-.1-2.1,6.4-4.1,9.5c-3.8,5.6-16.9,5.4-23.3,1.5s-8.8-9.9-14-14.5a13.4,13.4,0,0,0-5.4-3c-5.3-1.4-12,1-15,4.4a11.4,11.4,0,0,0-2.2,11.2c4.2,12.6,32.8,7.6,60.5,8s36.4,0,95-2.7" style="fill:#fff"/><path d="M290.4,5.5c-.1,7.9-.2,10.1-6.3,15.3C275,28.7,257.5,26,245.6,31c-6.3,2.7-10.7,7.5-17.1,10.1s-16.3,1.9-21-3.8c-2.3-2.9-2.8-6.5-5.5-9.2-4.2-4.3-11.9-4.5-17-2.5s-8.7,5.7-13.8,7.7c-8.3,3.2-19.5,1.4-28.3-3.7S127.8,16.4,125.3,8.3c0,0,23.1-1.4,57.4-2" style="fill:#fff"/></g></g></svg>