<svg xmlns="http://www.w3.org/2000/svg" xmlns:xlink="http://www.w3.org/1999/xlink" viewBox="0 0 306.3 208"><defs><clipPath id="clip-path"><path d="M301.1,134.2a61.3,61.3,0,0,1-20,44.3c-17.3,16.1-44.3,25.1-76.3,25.7s-65.5,4-99,1.3c-23.7-1.9-47.7-5.7-67.7-15.8C20.5,181,7.3,164.4,2.9,147c-7.1-28.2,13-50.9,49.1-56.5,18.9-2.9,38.8-2.7,56.4-8.8,19.5-6.7,33.5-20.4,45.8-33.9s24.3-27.9,41.9-37.3c55.2-29.4,94.2,19.7,102,56.8.1.3.1.5.2.8C302.7,89.7,301.8,112.4,301.1,134.2Z" style="fill:none"/></clipPath></defs><g style="isolation:isolate"><g id="Layer_2" data-name="Layer 2"><g id="Layer_1-2" data-name="Layer 1"><g id="fu_couch"><g id="VC"><g style="clip-path:url(#clip-path)"><path id="VC-2" data-name="VC" d="M301.1,134.2a61.3,61.3,0,0,1-20,44.3c-17.3,16.1-44.3,25.1-76.3,25.7s-65.5,4-99,1.3c-23.7-1.9-47.7-5.7-67.7-15.8C20.5,181,7.3,164.4,2.9,147c-7.1-28.2,13-50.9,49.1-56.5,18.9-2.9,38.8-2.7,56.4-8.8,19.5-6.7,33.5-20.4,45.8-33.9s24.3-27.9,41.9-37.3c55.2-29.4,94.2,19.7,102,56.8.1.3.1.5.2.8C302.7,89.7,301.8,112.4,301.1,134.2Z" style="fill:#e84e2c"/><path id="VC-3" data-name="VC" d="M301.4,134.2q-.9,4.4-2.1,8.7c-3.3,13.4-6.6,24.8-18.2,35.6-17.3,16.1-44.3,25.1-76.3,25.7s-65.5,4-99,1.3c-23.7-1.9-47.7-5.7-67.7-15.8a67.9,67.9,0,0,1-22.9-18.5C10.9,165.9.7,152.8,3.5,146.4s20-8.4,27.6-8.6c13.1-.5,26.4,2.1,38.4,6.3,19.8,6.8,37,17.3,56.1,25.2,12.9,5.3,26.9,9.5,41.4,9.8,19.2.3,37.6-6.1,53.1-14.8,39.4-22.2,51.2-59.6,60.7-94.6,2.6-9.3,5.1-18.5,7.6-27.7,13.5,16.8,18.3,37.2,17.9,57A175.5,175.5,0,0,1,301.4,134.2Z" style="fill:#e84e2c;opacity:0.30000000000000004;mix-blend-mode:multiply"/></g></g><g id="VC-4" data-name="VC"><path id="VC-5" data-name="VC" d="M301.1,134.2a61.3,61.3,0,0,1-20,44.3c-17.3,16.1-44.3,25.1-76.3,25.7s-65.5,4-99,1.3c-23.7-1.9-47.7-5.7-67.7-15.8C20.5,181,7.3,164.4,2.9,147c-7.1-28.2,13-50.9,49.1-56.5,18.9-2.9,38.8-2.7,56.4-8.8,19.5-6.7,33.5-20.4,45.8-33.9s24.3-27.9,41.9-37.3c55.2-29.4,94.2,19.7,102,56.8.1.3.1.5.2.8C302.7,89.7,301.8,112.4,301.1,134.2Z" style="fill:none;stroke:#c2331d;stroke-miterlimit:10;stroke-width:3px"/></g><path d="M190.7,124.3l-.8-.2C159.4,106,122.2,96.4,82.4,96.4H78.7a1.5,1.5,0,0,1-.2-3A155.6,155.6,0,0,1,106.4,91c33.2,0,63.5,10.9,85.3,30.7a1.5,1.5,0,0,1-1,2.6Z" style="fill:#ffaa5a"/><path d="M106.4,92.5c32.2,0,62.3,10.4,84.3,30.3-30.6-18.2-68.3-27.9-108.3-27.9H78.7a154.2,154.2,0,0,1,27.7-2.5m0-3v0A158.9,158.9,0,0,0,78.2,92a3,3,0,0,0,.5,6h3.7c39.6,0,76.5,9.5,106.8,27.5a2.8,2.8,0,0,0,1.5.4,3,3,0,0,0,2.4-1.2,2.9,2.9,0,0,0-.4-4c-22.1-20.1-52.7-31.1-86.3-31.1Z" style="fill:#c2331d"/></g></g></g></g></svg>