<svg xmlns="http://www.w3.org/2000/svg" xmlns:xlink="http://www.w3.org/1999/xlink" width="86.5" height="85.6" viewBox="0 0 86.5 85.6"><defs><clipPath id="clip-path"><path d="M20.5,64.4c2.6,2.8,6,3.8,7.5,2.4s.6-4.9-2.1-7.6-6.1-3.9-7.6-2.4S17.8,61.6,20.5,64.4Z" style="fill:none"/></clipPath></defs><g style="isolation:isolate"><g id="Layer_2" data-name="Layer 2"><g id="Layer_2-2" data-name="Layer 2"><g id="cat_toy_1" data-name="cat_toy 1"><ellipse cx="8.2" cy="77.6" rx="5.9" ry="9.8" transform="translate(-54.1 30.7) rotate(-47)" style="fill:#ec7670"/><line x1="7.5" y1="78.4" x2="19.6" y2="66.8" style="fill:none;stroke:#ec7670;stroke-linecap:round;stroke-linejoin:round;stroke-width:3px"/><ellipse cx="7.1" cy="78.8" rx="3.9" ry="9.1" transform="translate(-55.4 30.3) rotate(-47)" style="fill:#c2331d"/><path d="M22.2,63.2c3.8,4,5.4,8.2,9.3,4.4L81.1,22.4c3.9-3.9,2.6-11.6-1.2-15.5h0c-3.8-4-11.5-5.5-15.4-1.7L17.7,53.3c-4,3.8-.6,6.1,3.2,10.1Z" style="fill:#e8a4d2"/><path d="M19.3,65.5c3.8,3.9,8.6,5.4,10.7,3.4s.8-6.9-3-10.8-8.6-5.4-10.7-3.4S15.6,61.6,19.3,65.5Z" style="fill:#e8a4d2"/><path d="M56.2,45,31.5,67.6a4.7,4.7,0,0,1-1.2.9l-.3.4c-2.1,2-6.9.5-10.7-3.4s-5.1-8.7-3-10.8l.3-.2a6,6,0,0,1,1.1-1.2L40.4,29.9c9.7.3,15.5,5.1,19.5,11.8Z" style="fill:#e8a4d2;mix-blend-mode:screen;opacity:0.27"/><path d="M27.5,70.8c-2.8,0-6.1-1.8-8.9-4.6a15.9,15.9,0,0,1-3.9-6.5c-.7-2.4-.4-4.4.9-5.7a4.5,4.5,0,0,1,3.3-1.2c2.7,0,6.1,1.8,8.8,4.6,4.2,4.4,5.5,9.7,3,12.2a4.4,4.4,0,0,1-3.2,1.2Z" style="fill:#ac538c"/><path d="M18.9,53.8c2.3,0,5.4,1.6,8.1,4.3s5.1,8.7,3,10.8a3.5,3.5,0,0,1-2.5.9c-2.4,0-5.5-1.6-8.2-4.3s-5.1-8.7-3-10.8a3.7,3.7,0,0,1,2.6-.9m0-2a5.5,5.5,0,0,0-4,1.5c-1.5,1.5-2,3.9-1.2,6.6a16.6,16.6,0,0,0,4.2,7c3,3,6.5,4.9,9.6,4.9a5.4,5.4,0,0,0,3.9-1.5c1.6-1.5,2-3.9,1.2-6.7a15.9,15.9,0,0,0-4.2-6.9c-2.9-3.1-6.5-4.9-9.5-4.9Z" style="fill:#84205c"/><g style="clip-path:url(#clip-path)"><path d="M20.5,64.4c2.6,2.8,6,3.8,7.5,2.4s.6-4.9-2.1-7.6-6.1-3.9-7.6-2.4S17.8,61.6,20.5,64.4Z" style="fill:#84205c"/><circle cx="24.8" cy="60.3" r="5.1" style="fill:#a7bfee"/></g><path d="M70.5,3a13.4,13.4,0,0,1,9.4,3.9c3.8,3.9,5.1,11.6,1.2,15.5L59.9,41.7,56.2,45,31.5,67.6l-.3.3h-.3l-.3.2h-.3l-.3.4a3.5,3.5,0,0,1-2.5.9c-2.4,0-5.5-1.6-8.2-4.3s-5.1-8.7-3-10.8l.3-.2.5-.6a3.4,3.4,0,0,1,.6-.6L40.4,29.9h0L64.5,5.2a8.4,8.4,0,0,1,6-2.2m0-3h0a11.3,11.3,0,0,0-8.1,3.1h-.1l-24,24.7L15.5,51.1l-.7.8-.3.5-.3.2c-1.8,1.7-2.3,4.5-1.5,7.6a18.3,18.3,0,0,0,4.5,7.4c3.1,3.2,7,5.2,10.3,5.2A6.3,6.3,0,0,0,32.1,71l.2-.2h.1l.3-.3h.2l.3-.2.4-.4L58.3,47.2l3.6-3.3L83.1,24.6h0c5.4-5.1,3.9-14.7-1-19.7A16.5,16.5,0,0,0,70.5,0Z" style="fill:#ac538c"/><path d="M36.5,52.2a4.9,4.9,0,0,1-3.2-1.6c-1.6-1.6-1.9-3.7-.7-4.9h0a.1.1,0,0,0,.1-.1l.3-.3L45,33a3.5,3.5,0,0,1,2.6-1,4.8,4.8,0,0,1,3.5,1.4c1.5,1.6,2,4.5.3,6.1L38.5,51.3l-.3.2A2.1,2.1,0,0,1,36.5,52.2Z" style="fill:#a7bfee"/><path d="M47.6,33.5a3.7,3.7,0,0,1,2.5.9c.9,1.1,1.3,3.1.2,4l-5.4,5-1,.9-6.3,5.8a.1.1,0,0,0-.1.1h-.3a.9.9,0,0,1-.7.3,3.3,3.3,0,0,1-2.1-1.1c-1-1-1.3-2.3-.8-2.8h.1a.1.1,0,0,0,.1-.1l.2-.2,5.9-6h0L46.1,34a2,2,0,0,1,1.5-.5m0-3h0A5.1,5.1,0,0,0,44,31.9h-.1l-6.2,6.4-5.8,6c-.1.1-.3.2-.3.3h-.1a4,4,0,0,0-.9,4.1,6.7,6.7,0,0,0,1.7,2.9,6.4,6.4,0,0,0,4.2,2,3.7,3.7,0,0,0,2.7-1.1h.4L46,46.5l.9-.9,5.5-4.9h0c2.4-2.3,1.8-6.2-.2-8.2a6.6,6.6,0,0,0-4.6-1.9Z" style="fill:#5576b4"/></g></g></g></g></svg>