<svg xmlns="http://www.w3.org/2000/svg" xmlns:xlink="http://www.w3.org/1999/xlink" width="86.2" height="86.1" viewBox="0 0 86.2 86.1"><defs><clipPath id="clip-path"><path d="M26.5,26.9h1.8A16.4,16.4,0,0,1,44.7,43.3V56a0,0,0,0,1,0,0H10.1a0,0,0,0,1,0,0V43.3A16.4,16.4,0,0,1,26.5,26.9Z" style="fill:none"/></clipPath><clipPath id="clip-path-2"><path d="M60.6,11.5V52.7c0,.5,1.2.9,2.8.9s2.8-.4,2.8-.9V11.5Z" style="fill:none"/></clipPath></defs><g style="isolation:isolate"><g id="Layer_2" data-name="Layer 2"><g id="Layer_2-2" data-name="Layer 2"><g id="cat_toy_4" data-name="cat_toy 4"><rect x="76.7" y="13.1" width="3" height="24.96" style="fill:#2d5b1d"/><rect x="25.2" y="13.6" width="5.5" height="18.68" style="fill:#96b85c;stroke:#2d5b1d;stroke-miterlimit:10;stroke-width:3px"/><path d="M5.2,84.6a3.7,3.7,0,0,1-3.7-3.7v-.2h0V77.1a3.3,3.3,0,0,1,.4-1.4L4,72.8a4.6,4.6,0,0,1,3.8-2H73.3a4.4,4.4,0,0,1,3.8,2l2.1,2.9a2.4,2.4,0,0,1,.5,1.4v3.7h0A3.7,3.7,0,0,1,76,84.6Z" style="fill:#f5f79a"/><path d="M73.3,72.3a3.2,3.2,0,0,1,2.6,1.3L78,76.5a1.4,1.4,0,0,1,.2.6v3.5a.1.1,0,0,0-.1.1v.2A2.2,2.2,0,0,1,76,83.1H5.2A2.2,2.2,0,0,1,3,80.9v-.2H3V77.1a1.4,1.4,0,0,1,.2-.6l2-2.9a3.3,3.3,0,0,1,2.6-1.3H73.3m0-3H7.8a6.1,6.1,0,0,0-5,2.6L.7,74.8A4.8,4.8,0,0,0,0,77.1v3.5H0v.2a5.2,5.2,0,0,0,5.2,5.2H76a5.2,5.2,0,0,0,5.2-5.2v-.2h.1V77.1a4,4,0,0,0-.8-2.3l-2-2.9a6.4,6.4,0,0,0-5.1-2.6Z" style="fill:#696521"/><path d="M78,76.5l-2.1-2.9a3.2,3.2,0,0,0-2.6-1.3H7.8a3.3,3.3,0,0,0-2.6,1.3l-2,2.9a1.4,1.4,0,0,0-.2.6v3.5a.9.9,0,0,0,1,.9H77.2a1,1,0,0,0,1-.9V77.1A1.4,1.4,0,0,0,78,76.5Z" style="fill:#f5f79a"/><path d="M74,76.8H7.2A4.1,4.1,0,0,0,3,80.9a2.2,2.2,0,0,0,2.2,2.2H76a2.2,2.2,0,0,0,2.2-2.2A4.1,4.1,0,0,0,74,76.8Z" style="fill:#c3bf4f"/><path d="M74,83.1H7.2A4.2,4.2,0,0,1,3,78.9a2.1,2.1,0,0,1,2.2-2.1H76a2.1,2.1,0,0,1,2.2,2.1A4.2,4.2,0,0,1,74,83.1Z" style="fill:#c3bf4f"/><rect x="15" y="57.9" width="5.6" height="15.69" style="fill:#96b85c;stroke:#2d5b1d;stroke-miterlimit:10;stroke-width:3px"/><path d="M21.9,74.5H13.6a.9.9,0,0,1,1-.9H21a.9.9,0,0,1,.9.9Z" style="fill:#6d9e7a;stroke:#2d5b1d;stroke-miterlimit:10;stroke-width:3px"/><rect x="60.6" y="57.9" width="5.6" height="15.69" style="fill:#96b85c;stroke:#2d5b1d;stroke-miterlimit:10;stroke-width:3px"/><path d="M67.5,74.5H59.2a.9.9,0,0,1,1-.9h6.4a.9.9,0,0,1,.9.9Z" style="fill:#6d9e7a;stroke:#2d5b1d;stroke-miterlimit:10;stroke-width:3px"/><path d="M8.4,63.2H7.5A3.6,3.6,0,0,1,5.4,62a2.6,2.6,0,0,1-1.3-2.2V56.3a2.3,2.3,0,0,1,.4-1.4L6.6,52a4.7,4.7,0,0,1,3.8-2H70.8a4.8,4.8,0,0,1,3.8,2l2,2.9a2.4,2.4,0,0,1,.5,1.4v3.5A2.6,2.6,0,0,1,75.8,62a4.3,4.3,0,0,1-3.1,1.2Z" style="fill:#f5f79a"/><path d="M70.8,51.5a3.1,3.1,0,0,1,2.6,1.4l2,2.9a.8.8,0,0,1,.2.5v3.5a1,1,0,0,1-.7.9,2.9,2.9,0,0,1-2.2,1H7.8a3.4,3.4,0,0,1-1.6-1,.9.9,0,0,1-.6-.9V56.3a.7.7,0,0,1,.1-.5l2.1-2.9a3,3,0,0,1,2.6-1.4H70.8m0-3H10.4a6.4,6.4,0,0,0-5.1,2.6L3.3,54a3.9,3.9,0,0,0-.7,2.3v3.5a3.9,3.9,0,0,0,1.9,3.4,5.4,5.4,0,0,0,2.7,1.4H72.7a5.9,5.9,0,0,0,4-1.5,3.9,3.9,0,0,0,1.9-3.4V56.3a4.8,4.8,0,0,0-.7-2.3l-2.1-2.9a6.1,6.1,0,0,0-5-2.6Z" style="fill:#696521"/><path d="M75.4,55.8l-2-2.9a3.1,3.1,0,0,0-2.6-1.4H10.4a3,3,0,0,0-2.6,1.4L5.7,55.8a.7.7,0,0,0-.1.5v3.5a1,1,0,0,0,.9,1H74.6a1,1,0,0,0,1-1V56.3A.8.8,0,0,0,75.4,55.8Z" style="fill:#f5f79a"/><path d="M73.2,61.7H8.2a2.8,2.8,0,0,1-2.6-2h0l-.2-.5h0c0-.2-.1-.5-.1-.7a3.4,3.4,0,0,1,2.3-3.3H73c2.2,0,3.8,2.7,2.4,5.3A2.4,2.4,0,0,1,73.2,61.7Z" style="fill:#c3bf4f"/><g style="clip-path:url(#clip-path)"><path d="M11.3,57.5a2.7,2.7,0,0,1-2.7-2.7V43.3A17.9,17.9,0,0,1,26.5,25.4h1.8A17.9,17.9,0,0,1,46.2,43.3V57.5Z" style="fill:#dfe590"/><path d="M28.3,26.9A16.4,16.4,0,0,1,44.7,43.3V56H11.3a1.2,1.2,0,0,1-1.2-1.2V43.3A16.3,16.3,0,0,1,26.5,26.9h1.8m0-3H26.5A19.4,19.4,0,0,0,7.1,43.3V54.8A4.2,4.2,0,0,0,11.3,59H47.7V43.3A19.4,19.4,0,0,0,28.3,23.9Z" style="fill:#696521"/><path d="M44,32.7a1.2,1.2,0,0,0-2.3.4h0V51.9a1.2,1.2,0,0,1-1.2,1.2H13.8a1.2,1.2,0,0,0-1.2,1.2v.5A1.2,1.2,0,0,0,13.8,56H43.5a1.2,1.2,0,0,0,1.2-1.2V36.1A9.4,9.4,0,0,0,44,32.7Z" style="fill:#c3bf4f"/><path d="M32.2,52.3a6.5,6.5,0,0,0,6.1-8.7c-2.4-6.3-6.4-10.4-10.9-10.4s-8.6,4.1-11,10.4a6.5,6.5,0,0,0,6.1,8.7Z" style="fill:#c3bf4f;stroke:#696521;stroke-miterlimit:10;stroke-width:2px"/><path d="M19,47.4c2.4-6.3,6.4-10.5,10.9-10.5a9.3,9.3,0,0,1,7,3.6c-2.4-4.5-5.8-7.3-9.5-7.3s-8.6,4.1-11,10.4a6.4,6.4,0,0,0,2.4,7.5A5.9,5.9,0,0,1,19,47.4Z" style="fill:#828046;mix-blend-mode:multiply"/><path d="M32.2,52.3a6.5,6.5,0,0,0,6.1-8.7c-2.4-6.3-6.4-10.4-10.9-10.4s-8.6,4.1-11,10.4a6.5,6.5,0,0,0,6.1,8.7Z" style="fill:none;stroke:#696521;stroke-miterlimit:10;stroke-width:2px"/></g><path d="M28.3,26.9A16.4,16.4,0,0,1,44.7,43.3V54.5A1.5,1.5,0,0,1,43.2,56H11.5a1.5,1.5,0,0,1-1.4-1.5V43.3A16.3,16.3,0,0,1,26.5,26.9h1.8m0-3H26.5A19.4,19.4,0,0,0,7.1,43.3V54.5A4.5,4.5,0,0,0,11.5,59H43.2a4.5,4.5,0,0,0,4.5-4.5V43.3A19.4,19.4,0,0,0,28.3,23.9Z" style="fill:#696521"/><g style="clip-path:url(#clip-path-2)"><rect x="60.6" y="11.8" width="5.6" height="45.62" style="fill:#96b85c;stroke:#2d5b1d;stroke-miterlimit:10;stroke-width:3px"/></g><path d="M60.6,11.5V52.7c0,.5,1.2.9,2.8.9s2.8-.4,2.8-.9V11.5Z" style="fill:none;stroke:#2d5b1d;stroke-miterlimit:10;stroke-width:3px"/><path d="M47,16.6a5.1,5.1,0,0,1-4.9-4.3c0-.1-.1-.2-.1-.4h0V8.4A2.4,2.4,0,0,1,42.5,7l2.1-2.9a4.7,4.7,0,0,1,3.8-2h30a4.8,4.8,0,0,1,3.8,2L84.3,7a2.3,2.3,0,0,1,.4,1.4v3.5a1.5,1.5,0,0,1-.1.7,5.2,5.2,0,0,1-3.9,3.9H47Z" style="fill:#f5f79a"/><path d="M78.4,3.6A3.1,3.1,0,0,1,81,5l2,2.9c.2.1.2.3.2.5v3.8A3.7,3.7,0,0,1,80.4,15H47A3.5,3.5,0,0,1,43.6,12h-.1V8.4a.8.8,0,0,1,.2-.5L45.8,5a3,3,0,0,1,2.6-1.4h30m0-3h-30a6.4,6.4,0,0,0-5.1,2.6l-2,2.9a4,4,0,0,0-.8,2.3v3.5a2,2,0,0,1,.1.7A6.5,6.5,0,0,0,47,18.1H79.7l1.3-.2a6.4,6.4,0,0,0,5.1-5,3.4,3.4,0,0,0,.1-1V8.4a3.9,3.9,0,0,0-.7-2.3L83.4,3.2a6.1,6.1,0,0,0-5-2.6Z" style="fill:#696521"/><path d="M78.4,3.6h-30A3,3,0,0,0,45.8,5L43.7,7.9a.8.8,0,0,0-.2.5v3.5a1,1,0,0,0,1,.9H82.3a.9.9,0,0,0,.9-.9V8.4c0-.2,0-.4-.2-.5L81,5A3.1,3.1,0,0,0,78.4,3.6Z" style="fill:#f5f79a"/><path d="M83.2,11.4v-.2a3.6,3.6,0,0,0-3.5-3.9H47a3.7,3.7,0,0,0-3.5,3.9v.4A3.5,3.5,0,0,0,47,15.1H79.7a3.5,3.5,0,0,0,3.5-3.5Z" style="fill:#c3bf4f"/><path d="M81.9,38.8a3.6,3.6,0,0,1-3.6,3.5,3.5,3.5,0,1,1,0-7A3.6,3.6,0,0,1,81.9,38.8Z" style="fill:#dfe590"/><path d="M80.8,36.3v.6a3.6,3.6,0,0,1-3.6,3.5,3.7,3.7,0,0,1-2.5-1,3.6,3.6,0,0,0,7.2-.6A3.4,3.4,0,0,0,80.8,36.3Z" style="fill:#dfe590;mix-blend-mode:multiply"/><path d="M81.9,38.5h0a.4.4,0,0,1-.1-.3h0a3.6,3.6,0,0,0-3.5-2.8,3.7,3.7,0,0,0-3.7,3.5,3.5,3.5,0,0,0,1.6,2.9h.3a.1.1,0,0,0,.1.1h.2a.1.1,0,0,1,.1.1h.2a.1.1,0,0,1,.1.1h1.1a3.6,3.6,0,0,0,3.6-3.5Z" style="fill:none;stroke:#696521;stroke-miterlimit:10;stroke-width:3px"/><path d="M27.9,16.8a95.7,95.7,0,0,1-10.1-.5c-2.7-.4-7.1-.9-7.1-4.7A3.6,3.6,0,0,1,14,8c1.9-3.9,7.4-6.5,13.9-6.5a23.3,23.3,0,0,1,7.6,1.3h.2l.8.4h.3l.7.4-.7,1.3.8-1.3.2.2.6.3.4.3.5.4.4.3.4.3a.8.8,0,0,0,.4.4l.3.4.3.4c.2.2.3.3.3.4l.3.5.2.3a3.7,3.7,0,0,1,3.3,3.6c0,3.8-4.5,4.3-7.1,4.7A99.3,99.3,0,0,1,27.9,16.8Z" style="fill:#dfe590"/><path d="M27.9,3A22.5,22.5,0,0,1,35,4.2h.1l.8.3.2.2.6.3.4.2.5.3.3.2.5.3.3.3.4.3.3.3.3.4c.1.1.2.2.2.3l.3.4.2.4.2.3c.1.1.1.3.2.4s.1.2.1.3h.7a2.1,2.1,0,0,1,2.1,2.1c0,2.5-3.4,2.9-5.8,3.2a93.7,93.7,0,0,1-10,.5,93.1,93.1,0,0,1-9.9-.5c-2.5-.3-5.8-.7-5.8-3.2a2,2,0,0,1,2-2.1h.7C16.1,5.9,21.4,3,27.9,3m0-3C21.2,0,15.5,2.6,13,6.7a5,5,0,0,0-3.8,4.9c0,5.1,5.7,5.8,8.4,6.2a101.4,101.4,0,0,0,10.3.5,98.4,98.4,0,0,0,10.3-.5c2.8-.4,8.5-1.1,8.5-6.2a5,5,0,0,0-3.9-4.9c0-.1-.1-.2-.1-.3L42.4,6,42,5.4,41.5,5l-.4-.4-.5-.5-.4-.3-.5-.4-.5-.3-.6-.4-.4-.2h0l-.7-.3-.3-.2h-.1l-.8-.4h-.2A22.1,22.1,0,0,0,27.9,0Z" style="fill:#696521"/><path d="M27.9,3c-7.3,0-13.2,3.6-13.2,8.1v.4H41.1v-.4C41.2,6.6,35.2,3,27.9,3Z" style="fill:#dfe590"/><path d="M29.5,3.1c4,1.4,6.7,4,6.7,7v.4H14.8a1.3,1.3,0,0,0-.1.6v.4H41.1v-.4C41.2,7,36.1,3.5,29.5,3.1Z" style="fill:#c3bf4f"/><path d="M27.9,15.3a93.1,93.1,0,0,1-9.9-.5c-2.5-.3-5.8-.7-5.8-3.2a2,2,0,0,1,2-2.1,2.2,2.2,0,0,1,1.6.7c1.3.5,5.6,1,12.1,1s10.9-.5,12.2-1a2.1,2.1,0,0,1,1.5-.7,2.1,2.1,0,0,1,2.1,2.1c0,2.5-3.4,2.9-5.8,3.2A93.7,93.7,0,0,1,27.9,15.3Zm11.7-3.7Zm-23.3,0Zm23.3,0Zm-23.3,0Z" style="fill:#c3bf4f"/></g></g></g></g></svg>