<svg xmlns="http://www.w3.org/2000/svg" width="85.6" height="85.9" viewBox="0 0 85.6 85.9"><g id="Layer_2" data-name="Layer 2"><g id="Layer_2-2" data-name="Layer 2"><g id="cat_toy_3" data-name="cat_toy 3"><path d="M23.2,76a8.4,8.4,0,1,1-10.5-8.1V50.3h4.2V67.9A8.4,8.4,0,0,1,23.2,76Z" style="fill:#ffeb81;stroke:#e57225;stroke-linecap:round;stroke-linejoin:round;stroke-width:3px"/><path d="M79.2,76a8.4,8.4,0,1,1-10.5-8.1V50.3h4.2V67.9A8.4,8.4,0,0,1,79.2,76Z" style="fill:#ffeb81;stroke:#e57225;stroke-linecap:round;stroke-linejoin:round;stroke-width:3px"/><path d="M77.7,54C66,53,54.2,52.4,42.6,52.4S19.5,52.9,8.2,54H7.6a5.9,5.9,0,0,1-4-1.5c-2.2-1.7-2.1-4.6-2.1-6.7V45A10.2,10.2,0,0,1,8,35.6a1.3,1.3,0,0,1,.1-.6c.3-3.8,1.9-8.4,3.3-11.8-2.2-5.3-.4-15.9,0-18.1a4.5,4.5,0,0,1,4.4-3.6,5.4,5.4,0,0,1,2.1.5A56.2,56.2,0,0,1,29.7,9.8,31.8,31.8,0,0,1,42.3,7.3,34.4,34.4,0,0,1,55.6,10,57.7,57.7,0,0,1,67.7,2a4.6,4.6,0,0,1,2-.5,4.4,4.4,0,0,1,4.4,3.6c.4,2.1,2.2,12.4.2,17.8a49,49,0,0,1,3.6,12.8c4.3,1.8,6.7,6.5,6.1,12.3a6.4,6.4,0,0,1-1.8,4.2A5.8,5.8,0,0,1,78,54Z" style="fill:#ffaa5a"/><path d="M69.7,3a3.1,3.1,0,0,1,3,2.4c1,5.8,1.7,13.9-.1,17.5a46.2,46.2,0,0,1,3.9,13.7v.2c4.7,1.5,6.5,6.3,6,11.1A4.6,4.6,0,0,1,78,52.5h-.1c-11.8-1-23.5-1.6-35.3-1.6S19.5,51.4,8,52.5H7.6a4.7,4.7,0,0,1-3.1-1.2C2.7,49.9,3,47,3,45a8.7,8.7,0,0,1,6.4-8.3c0-.5.1-1,.1-1.5.4-3.9,2.2-8.9,3.6-12.2H13c-1.8-3.7-1.2-11.8-.1-17.7A3.1,3.1,0,0,1,15.8,3a3.5,3.5,0,0,1,1.4.3,58,58,0,0,1,12.2,8.2A32.8,32.8,0,0,1,42.3,8.8a33.6,33.6,0,0,1,13.6,2.9A57.1,57.1,0,0,1,68.4,3.3,3.1,3.1,0,0,1,69.7,3m0-3A5.4,5.4,0,0,0,67,.7,57.9,57.9,0,0,0,55.4,8.2,37.4,37.4,0,0,0,42.3,5.8,36.2,36.2,0,0,0,30,8,61.2,61.2,0,0,0,18.5.7,5,5,0,0,0,15.8,0,5.9,5.9,0,0,0,10,4.9c-.6,3-2.1,12.6-.2,18.3A43.1,43.1,0,0,0,6.6,34.5,11.9,11.9,0,0,0,0,45v.8c0,2.3-.1,5.7,2.6,7.8a7.8,7.8,0,0,0,5,1.9h.7c11.3-1.1,22.8-1.6,34.3-1.6s23.3.6,35,1.6H78a7.4,7.4,0,0,0,5.3-2.3,7.2,7.2,0,0,0,2.2-5.1c.6-6.1-1.8-11.2-6.3-13.4a51.7,51.7,0,0,0-3.3-11.9c1.8-5.7.3-15-.3-17.9A5.9,5.9,0,0,0,69.7,0Z" style="fill:#e57225"/><path d="M26.8,14.6a3.2,3.2,0,0,0,1.7.9,26.5,26.5,0,0,0-10.6,5.6.7.7,0,0,1-1.2-.2l-.2-.3-.2-.3c-.5-2.1-.5-6.3.2-11.5a.9.9,0,0,1,1.2-.6A53.1,53.1,0,0,1,26.8,14.6Z" style="fill:#e57225"/><path d="M68.9,21.2l-.3,1c-2.3-2.8-6.3-5.1-11.3-6.6a5.7,5.7,0,0,0,1.3-.8,50.6,50.6,0,0,1,9.3-6.6.9.9,0,0,1,1.2.6C69.8,14.3,69.8,19.3,68.9,21.2Z" style="fill:#e57225"/><path d="M42.6,36.3h0Z" style="fill:#fff"/><path d="M43,29l.6-.3c.3-.4.3-1.1.7-1.3s.6-.1.9-.1a1,1,0,0,0,.7-.5c.4-.5.7-1.5.2-1.9a5.4,5.4,0,0,0-6.6,0c-.5.4-.3,1.3.2,1.9a1.5,1.5,0,0,0,.7.5c.3,0,.6-.1.9.1s.4.9.7,1.3l.5.3Z" style="fill:#fff"/><path d="M38.3,32.6a10,10,0,0,1-2.4-.4,3.6,3.6,0,0,1-2.6-2.5,3.6,3.6,0,0,1,.5-2.6.8.8,0,0,1,1-.3.7.7,0,0,1,.3,1,2.1,2.1,0,0,0-.4,1.6c.2.9,1.3,1.3,1.7,1.4a5.7,5.7,0,0,0,2.6.3h.2a5,5,0,0,0,3-1.6.7.7,0,0,1,.6-.3h0a.9.9,0,0,1,.6.3c.5.9,2.2,1.5,3,1.6h.2a5.7,5.7,0,0,0,2.6-.3c.4-.1,1.5-.5,1.7-1.4a2.7,2.7,0,0,0-.4-1.6.7.7,0,1,1,1.2-.7,3.3,3.3,0,0,1,.6,2.6,3.6,3.6,0,0,1-2.6,2.5,7,7,0,0,1-3.5.3H46a5.9,5.9,0,0,1-3.2-1.5,6.5,6.5,0,0,1-3.3,1.5.1.1,0,0,1-.1.1Z" style="fill:#fff"/><path d="M55.3,20.4a3.3,3.3,0,0,0-2.4-2.2H52a3.2,3.2,0,0,0-.9.3c-1.5.6-2.9,2.4-1.8,3.8a4,4,0,0,0,2.1,1.2,4.8,4.8,0,0,0,2.4-.1l.4-.2A2.1,2.1,0,0,0,55.3,20.4Z" style="fill:#fff"/><path d="M36.4,20.1a3.9,3.9,0,0,0-1.9-1.7,3.2,3.2,0,0,0-.9-.3h-.9a3.7,3.7,0,0,0-2.5,2.2,2.2,2.2,0,0,0,1.1,2.7l.4.2H32a5.4,5.4,0,0,0,2.2,0,4.1,4.1,0,0,0,2-1.2A1.8,1.8,0,0,0,36.4,20.1Z" style="fill:#fff"/><path d="M16.9,41.3a294.2,294.2,0,0,1,53.1,0" style="fill:none;stroke:#e57225;stroke-linecap:round;stroke-linejoin:round;stroke-width:3px"/><line x1="61.7" y1="27.2" x2="68.9" y2="26.7" style="fill:none;stroke:#fff;stroke-linecap:round;stroke-linejoin:round;stroke-width:1.5px"/><line x1="61.9" y1="30.1" x2="68.7" y2="32.1" style="fill:none;stroke:#fff;stroke-linecap:round;stroke-linejoin:round;stroke-width:1.5px"/><line x1="23.8" y1="27.2" x2="16.7" y2="26.7" style="fill:none;stroke:#fff;stroke-linecap:round;stroke-linejoin:round;stroke-width:1.5px"/><line x1="23.7" y1="30.1" x2="16.8" y2="32.1" style="fill:none;stroke:#fff;stroke-linecap:round;stroke-linejoin:round;stroke-width:1.5px"/></g></g></g></svg>