<svg xmlns="http://www.w3.org/2000/svg" width="85.8" height="80.7" viewBox="0 0 85.8 80.7"><g id="Layer_2" data-name="Layer 2"><g id="Layer_5" data-name="Layer 5"><g id="owl_food_2" data-name="owl_food 2"><path d="M55.6,79.2h-.4a4.2,4.2,0,0,1-1.8-.7l-.3-.3a17.5,17.5,0,0,0-2.8-1.3H49a2,2,0,0,1-1.6-1.1,2,2,0,0,1-1.1-1.3,1.9,1.9,0,0,1,0-1.5h0l-8.2-4-.5-.2.5-1.4-.6,1.4-2.2-1.1-1.7-.9-2.5-1.2-1-.6-.9-.4-.3-.2a32.8,32.8,0,0,1-5-2.2,2,2,0,0,1-.9,1,1.5,1.5,0,0,1-.9.2,1.7,1.7,0,0,1-1.3-.5h-.5a2.3,2.3,0,0,1-1.5-1.4c-.4-1.5.9-3.1,1-3.3a3.2,3.2,0,0,1,2.4-1.1h.7c-.8-1.2-1.7-2.7-3.1-4.5C8.2,49.5,1.3,35.9,2.2,24.9l-.3-.6a4.6,4.6,0,0,1-.4-2.1,3.4,3.4,0,0,1,2.3-3.5h.8a3,3,0,0,1,2.8,2.3,4.8,4.8,0,0,1,0,2.9h.4c1.6,0,4-2.5,5.6-4.2l2-2a12.6,12.6,0,0,1,7-2.5,15.2,15.2,0,0,1,5.2-5.5,14.4,14.4,0,0,1,8-2.6,12.5,12.5,0,0,1,5.3,1.3c3.9,2.1,6.8,6.7,7.2,11.8v.3h1.4a13.8,13.8,0,0,1,7.5,2,13.5,13.5,0,0,1,4.6,4.3C59,20,57.4,10.7,63.8,3.4a2.3,2.3,0,0,1,1.7-.7,2.7,2.7,0,0,1,2.2,1.2,2.5,2.5,0,0,1,0,2.4c-2.9,5.1-2.7,11.7.7,17.8A45,45,0,0,0,73.2,31a55.3,55.3,0,0,1,5.7,8.3c5.3,10.6,2.5,23.9-6.3,30.1l-.5.3a13.1,13.1,0,0,1-2,3.7A8.6,8.6,0,0,1,66,76.7a15.5,15.5,0,0,1-5.6,1.1h0a10.9,10.9,0,0,1-2.6-.3l-.3.6A2.1,2.1,0,0,1,55.6,79.2Zm7.7-32.3a24.3,24.3,0,0,1,7.4,8.5A15,15,0,0,0,72,49c0-4.6-2.5-8.4-5.1-12.4l-1.4-2.1-.9-1.6a20,20,0,0,1,.7,4.9A29.7,29.7,0,0,1,65,42a.4.4,0,0,0-.1.3A17.9,17.9,0,0,1,63.3,46.9Z" style="fill:#f2b579"/><path d="M65.5,4.2a1,1,0,0,1,.9,1.4c-3.4,5.8-2.7,13.2.7,19.3S74.7,34.4,77.5,40c4.9,9.8,2.5,22.3-5.8,28.2l-.8.4a13.1,13.1,0,0,1-2,3.9,7.7,7.7,0,0,1-3.5,2.8h0a12.4,12.4,0,0,1-5,1,14.8,14.8,0,0,1-4.6-.8h.1l.3.5c.4.7.1,1.6-.6,1.6h-.2a5.1,5.1,0,0,1-1.6-.9,17.3,17.3,0,0,0-3.1-1.4H49.3c-.6-.2-.8-.4-.8-.8s-1.1-.9-.6-1.3a.5.5,0,0,1,.1-.6h.3a3.9,3.9,0,0,1,1.4.5h.9L38.7,67.4h0l-.5-.3-.7-.3-1-.5-.5-.2-1.3-.7-.4-.2-1-.5-.3-.2a2,2,0,0,1-.8-.4.5.5,0,0,1-.4-.2l-.7-.3-.3-.2L30,63l-.5-.3A33.4,33.4,0,0,1,23.6,60c-.2.1-.5.1-.7.4s-.2,1-.6,1.2h-.2a.5.5,0,0,1-.5-.3c-.1-.2-.1-.3-.2-.3h-.7c-1-.3-.1-1.8.3-2.3a1.3,1.3,0,0,1,1.2-.5,1.5,1.5,0,0,1,.9.2l.5.2a3.9,3.9,0,0,0,1.5.2h.8a73.1,73.1,0,0,0-5.2-8C9.9,48.7,2.5,35.7,3.8,24.4h0a1,1,0,0,1-.5-.6A3.9,3.9,0,0,1,3,22.3a2.1,2.1,0,0,1,1.2-2.2h.4A1.7,1.7,0,0,1,6,21.3a4.1,4.1,0,0,1-.4,2.9H5.5a2.8,2.8,0,0,0,2.3,1.2c3.1,0,6.7-5,8.6-6.5a10.4,10.4,0,0,1,6.7-2.2h.2a16,16,0,0,1,5.1-5.8,13.1,13.1,0,0,1,7.2-2.3,11.1,11.1,0,0,1,4.6,1.1c3.7,2,6,6.3,6.4,10.6v1.9a13.7,13.7,0,0,1,2.9-.2,13.1,13.1,0,0,1,6.8,1.8c4.6,2.7,7.4,8.5,7.5,14a26.9,26.9,0,0,1-.3,4,.3.3,0,0,1-.1.2,14.1,14.1,0,0,1-2.2,5.3,23.6,23.6,0,0,1,9.1,10.8c.1.2.1.4.2.6a16,16,0,0,0,3-9.7c-.1-5.9-3.7-10.5-6.7-15.3-5.6-8.9-9.1-21-1.8-29.3.1-.2.3-.2.5-.2m0-3a3.6,3.6,0,0,0-2.8,1.2c-4.4,5-5.8,11.8-4.2,19.2l-.7-.4A15.9,15.9,0,0,0,49.5,19h0c-.8-5.2-3.8-9.8-7.9-11.9a12.7,12.7,0,0,0-6-1.5,16.1,16.1,0,0,0-8.8,2.8,17.1,17.1,0,0,0-5.3,5.4,12.4,12.4,0,0,0-7,2.8,13.9,13.9,0,0,0-2.2,2.1,32.5,32.5,0,0,1-3.2,3,6.1,6.1,0,0,0-.3-1.3,4.4,4.4,0,0,0-4.2-3.3,2.7,2.7,0,0,0-1.3.2A4.9,4.9,0,0,0,0,22.2a7.6,7.6,0,0,0,.5,2.7l.2.3C0,36.6,7,50.4,18.9,53.6c.6.7,1,1.4,1.5,2a5.5,5.5,0,0,0-1.7,1.3c-.4.4-2,2.5-1.3,4.7A3.4,3.4,0,0,0,19.8,64h.4a4.1,4.1,0,0,0,1.9.5,3.5,3.5,0,0,0,1.7-.4l.6-.4,3.9,1.7h.2l.9.5h.3l.7.4.4.2.8.4.4.2.9.5h.2l.2.2,1.4.7h.4l1.1.5.4.2h.5l.2.2h.1l7.3,3.5a4.1,4.1,0,0,0,.1,1.1,4.3,4.3,0,0,0,1.5,2,4.2,4.2,0,0,0,2.4,1.5H50l2.3,1.1.3.2a7.1,7.1,0,0,0,2.3,1h.7a3.8,3.8,0,0,0,3-1.5h1.8a16.2,16.2,0,0,0,6.1-1.2l-1.1-2.8,1.1,2.8a10.8,10.8,0,0,0,4.8-3.7,14.6,14.6,0,0,0,2-3.7c.1,0,.1,0,.1-.1,9.5-6.6,12.4-20.7,6.8-32a47.1,47.1,0,0,0-5.8-8.5,50.6,50.6,0,0,1-4.7-6.7c-3.1-5.6-3.3-11.8-.7-16.3a3.9,3.9,0,0,0,0-3.9,3.9,3.9,0,0,0-3.5-2Zm-.3,45.2a24,24,0,0,0,1.2-3.8v-.3a15.5,15.5,0,0,0,.4-3.1c2,3.2,3.7,6.3,3.7,9.8a24.6,24.6,0,0,1-.2,2.8,32.6,32.6,0,0,0-5.1-5.4Z" style="fill:#b25b2f"/><path d="M58.4,78h-.5a4.5,4.5,0,0,1-1.7-.8l-.4-.2A14.3,14.3,0,0,0,53,75.7H51.8a2.8,2.8,0,0,1-1.7-1.1,2.3,2.3,0,0,1-1-2.9h0l-8.3-4-2.7-1.3-3-1.6-1.3-.6-.9-.5-.9-.5-.3-.2a25.2,25.2,0,0,1-5-2.2,1.8,1.8,0,0,1-.9,1,1.7,1.7,0,0,1-1,.3,1.8,1.8,0,0,1-1.2-.5H23A2,2,0,0,1,21.6,60c-.5-1.5.8-3.1,1-3.3A3,3,0,0,1,25,55.6h.7c-.8-1.3-1.8-2.8-3.1-4.6C10.9,48.3,4.1,34.7,5,23.7l-.3-.6a4.5,4.5,0,0,1-.4-2,3.6,3.6,0,0,1,2.2-3.6h.8a3.2,3.2,0,0,1,2.9,2.3,5.1,5.1,0,0,1-.1,3h.4c1.7,0,4.1-2.5,5.7-4.2a11.4,11.4,0,0,1,2-1.9,11,11,0,0,1,7-2.5,15.5,15.5,0,0,1,5.2-5.6A14.5,14.5,0,0,1,38.3,6a10.7,10.7,0,0,1,5.3,1.3c4,2,6.8,6.6,7.2,11.7.1.1.1.2.1.4h1.3a15.1,15.1,0,0,1,7.6,2,15.7,15.7,0,0,1,4.6,4.3c-2.6-6.8-4.2-16.1,2.2-23.3a2.1,2.1,0,0,1,1.7-.8,2.4,2.4,0,0,1,2.1,1.3,2.1,2.1,0,0,1,0,2.4c-2.9,5-2.6,11.6.8,17.8A50.4,50.4,0,0,0,76,29.9a44.7,44.7,0,0,1,5.6,8.3c5.3,10.6,2.6,23.8-6.3,30.1l-.4.3a14.6,14.6,0,0,1-2,3.7,10.2,10.2,0,0,1-4.1,3.2,14,14,0,0,1-5.6,1.1h0l-2.7-.2a.8.8,0,0,1-.2.5A2.1,2.1,0,0,1,58.4,78ZM66,45.7a25.3,25.3,0,0,1,7.5,8.5,16.1,16.1,0,0,0,1.3-6.3c-.1-4.7-2.6-8.5-5.2-12.5l-1.3-2.1-1-1.6a20.9,20.9,0,0,1,.8,4.9,20.9,20.9,0,0,1-.4,4.3v.3A17.4,17.4,0,0,1,66,45.7Z" style="fill:#f4b876"/><path d="M68.3,3a.9.9,0,0,1,.8,1.4c-3.4,5.9-2.6,13.2.7,19.3s7.7,9.6,10.5,15.1c4.9,9.9,2.4,22.4-5.8,28.2l-.9.5a11.8,11.8,0,0,1-1.9,3.9,7.9,7.9,0,0,1-3.5,2.7h-.1a13.7,13.7,0,0,1-4.9.9,12.1,12.1,0,0,1-4.6-.8v.2a1,1,0,0,1,.4.5c.4.7.1,1.5-.6,1.5h-.2a4.8,4.8,0,0,1-1.6-.8,22,22,0,0,0-3.1-1.5H52.1c-.6-.1-.8-.4-.8-.8a.8.8,0,0,1-.7-1.3c0-.1,0-.4.1-.5l.4-.2a3.9,3.9,0,0,1,1.4.5h.8L41.4,66.2h0l-.5-.2-.6-.4-1.1-.5-.4-.2-1.4-.7L37,64l-.9-.4-.4-.2-.8-.4a.5.5,0,0,0-.4-.2l-.7-.4h-.3l-.8-.5-.4-.3a25.4,25.4,0,0,1-5.9-2.7l-.7.4c-.3.4-.3,1-.6,1.2h-.3c-.2,0-.3-.2-.4-.4s-.1-.2-.2-.2h-.8c-1-.3,0-1.9.3-2.3a1.8,1.8,0,0,1,1.3-.6l.9.2.5.3,1.5.2h.8c-1.1-1.6-2.4-4.1-5.2-7.9C12.7,47.6,5.3,34.5,6.5,23.3a.1.1,0,0,1,.1-.1L6,22.5a3.2,3.2,0,0,1-.2-1.4c0-.9.3-1.9,1.1-2.1h.4a1.5,1.5,0,0,1,1.4,1.2A3.6,3.6,0,0,1,8.3,23H8.2a3,3,0,0,0,2.3,1.1c3.1,0,6.8-5,8.6-6.5a10.7,10.7,0,0,1,6.8-2.2h.2a14.4,14.4,0,0,1,5.1-5.8,13.8,13.8,0,0,1,7.1-2.2,9.2,9.2,0,0,1,4.6,1.1c3.8,1.9,6.1,6.2,6.5,10.5v2a13.3,13.3,0,0,1,2.8-.3A13.6,13.6,0,0,1,59,22.6c4.7,2.8,7.4,8.5,7.6,14.1a25.6,25.6,0,0,1-.3,3.9.4.4,0,0,0-.1.3A13.6,13.6,0,0,1,64,46.1a22.8,22.8,0,0,1,9,10.8,1.4,1.4,0,0,1,.2.6,15.8,15.8,0,0,0,3.1-9.6c-.1-6-3.8-10.6-6.8-15.4-5.5-8.8-9.1-21-1.8-29.2a.9.9,0,0,1,.6-.3m0-3a3.7,3.7,0,0,0-2.8,1.3c-4.4,5-5.8,11.7-4.3,19.2l-.6-.5a17.5,17.5,0,0,0-8.4-2.2h0c-.7-5.2-3.8-9.8-7.9-11.9a13.6,13.6,0,0,0-6-1.4,16.8,16.8,0,0,0-8.8,2.7,19.1,19.1,0,0,0-5.2,5.4,12.9,12.9,0,0,0-7,2.8,20.8,20.8,0,0,0-2.2,2.1,34.6,34.6,0,0,1-3.3,3.1,6.8,6.8,0,0,0-.2-1.4,4.7,4.7,0,0,0-4.3-3.3l-1.2.2a5,5,0,0,0-3.3,5,5.8,5.8,0,0,0,.5,2.6.8.8,0,0,0,.2.4C2.8,35.4,9.8,49.2,21.7,52.4l1.4,2.1a5.2,5.2,0,0,0-1.7,1.3c-.3.4-1.9,2.4-1.3,4.6a3.6,3.6,0,0,0,2.5,2.4H23a3,3,0,0,0,1.8.6,3.4,3.4,0,0,0,1.7-.5,1.3,1.3,0,0,0,.6-.4A27.1,27.1,0,0,0,31,64.3h.3l.8.5h.4l.7.3.3.2.9.5h.3l1,.5h.4l1.3.7h.5l1,.5.5.3h.8l7.2,3.5a4.3,4.3,0,0,0,1.7,3.2A3.5,3.5,0,0,0,51.4,77l1.3.2h0a12.8,12.8,0,0,1,2.4,1.1l.3.2a7.1,7.1,0,0,0,2.3,1h.7a3.6,3.6,0,0,0,3-1.5h1.8A18.3,18.3,0,0,0,69.3,77l-1.1-2.9,1.1,2.8a11.4,11.4,0,0,0,4.8-3.7,15.8,15.8,0,0,0,2-3.6h.1c9.4-6.7,12.4-20.7,6.8-32A52.9,52.9,0,0,0,77.2,29a48.7,48.7,0,0,1-4.7-6.8c-3.1-5.5-3.4-11.8-.8-16.3a3.9,3.9,0,0,0,0-3.9,4,4,0,0,0-3.4-2Zm-.4,45.3a12.9,12.9,0,0,0,1.2-3.8c.1-.1.1-.2.1-.4s.3-2,.4-3c2,3.1,3.6,6.3,3.7,9.8a13.3,13.3,0,0,1-.3,2.8,21.8,21.8,0,0,0-5.1-5.4Z" style="fill:#e28049"/><path d="M72.7,68.2a4.2,4.2,0,0,1-3.7-3,4.8,4.8,0,0,1,1.4-5.4,14.9,14.9,0,0,0,5.4-11.9c-.1-5-2.8-9.1-5.3-13l-1.4-2.1c-2.7-4.4-11-19.4-1.8-29.9a1.8,1.8,0,0,1,1-.4,1.6,1.6,0,0,1,1.3.8,1.7,1.7,0,0,1,0,1.4c-3.1,5.3-2.9,12.3.7,18.8a58.3,58.3,0,0,0,4.9,7,46.1,46.1,0,0,1,5.5,8.1c5.1,10.2,2.5,22.9-5.9,28.8a3.7,3.7,0,0,1-2.1.8Z" style="fill:#f4b876"/><path d="M68.3,3a.9.9,0,0,1,.8,1.4c-3.4,5.9-2.6,13.2.7,19.3s7.7,9.6,10.5,15.1c4.9,9.9,2.4,22.4-5.8,28.2a2.9,2.9,0,0,1-1.8.7c-3,0-5-5.1-2-7.5a15.5,15.5,0,0,0,5.6-12.3c-.1-6-3.8-10.6-6.8-15.4-5.5-8.8-9.1-21-1.8-29.2a.9.9,0,0,1,.6-.3m0-1a1.6,1.6,0,0,0-1.3.6c-9.5,10.7-1.1,26,1.7,30.4a16.4,16.4,0,0,0,1.4,2.2c2.6,4,5.1,7.9,5.2,12.7a14.3,14.3,0,0,1-5.2,11.5,5.2,5.2,0,0,0-1.5,5.9,4.5,4.5,0,0,0,4.1,3.4,4,4,0,0,0,2.4-.9c8.6-6.1,11.3-19,6.1-29.4a43.9,43.9,0,0,0-5.6-8.2,58.3,58.3,0,0,1-4.9-7C67.3,16.9,67,10.1,70,4.9A2.1,2.1,0,0,0,70,3a2.1,2.1,0,0,0-1.7-1Z" style="fill:#c1683d"/><path d="M63.2,75.6a15.2,15.2,0,0,1-6.3-1.4L41.2,66.7l-2.6-1.3-3.1-1.6-1.2-.6-1-.5-.8-.5a8,8,0,0,1-2.6-1.9,16.6,16.6,0,0,1-2.2-3.1,66.2,66.2,0,0,0-6.5-9.6,1.8,1.8,0,0,1-.4-1.7c.4-1.6,2.6-2.8,3.9-3.3a10.6,10.6,0,0,1,3.1-.9h1.8l1.5.2h.1a20.2,20.2,0,0,1,3.3.9,32,32,0,0,0,4.2,1h1.6a38.5,38.5,0,0,0,4.9-.7,38.9,38.9,0,0,1,5.1-.8h1.8a21.8,21.8,0,0,1,8.2,1.5A24.2,24.2,0,0,1,73.5,56.7c2.1,5.3,1.6,11-1.4,15a9.2,9.2,0,0,1-3.7,2.9,13.7,13.7,0,0,1-5.2,1Z" style="fill:#f4b876"/><path d="M29,42.1h.6l1.4.2h.2c2.4.5,4.9,1.6,7.5,1.9h1.7c3.3-.2,6.5-1.3,9.9-1.5h1.8a22.2,22.2,0,0,1,8,1.5A23.5,23.5,0,0,1,73,56.9c2,4.9,1.7,10.5-1.3,14.5a7.9,7.9,0,0,1-3.5,2.7h-.1a13.7,13.7,0,0,1-4.9.9,13,13,0,0,1-6.1-1.4L41.4,66.2h0l-.5-.2-.6-.4-1.1-.5-.4-.2-1.4-.7L37,64l-.9-.4-.4-.2-.8-.4a.5.5,0,0,0-.4-.2l-.7-.4h-.3l-.8-.5A13.5,13.5,0,0,1,30.2,60c-1.8-2-2.5-4.9-8.6-12.7-1.3-1.6.9-3.3,3.3-4.3a20.1,20.1,0,0,1,3-.9H29m0-1H27.7a11.1,11.1,0,0,0-3.2.9c-1.4.6-3.7,1.9-4.2,3.6a2.5,2.5,0,0,0,.5,2.2,86.3,86.3,0,0,1,6.5,9.5,14.7,14.7,0,0,0,2.2,3.2,12,12,0,0,0,2.7,2.1l.9.4.2.2h.1l.7.4.4.2.8.4.3.2,1,.4H37l1.3.7h.5l1,.5.5.3H41l15.7,7.5a14.4,14.4,0,0,0,6.5,1.5,13.9,13.9,0,0,0,5.3-1h.1A9.6,9.6,0,0,0,72.5,72c3.1-4.1,3.7-10,1.5-15.5A24.8,24.8,0,0,0,60.5,43.2a22.8,22.8,0,0,0-8.4-1.6H50.2a45,45,0,0,0-5.1.8,39.7,39.7,0,0,1-4.8.7H38.8a36.3,36.3,0,0,1-4.2-1,26.2,26.2,0,0,0-3.3-.9h-.1l-1.6-.2H29Z" style="fill:#c1683d"/><path d="M58.4,77h-.3a3.9,3.9,0,0,1-1.3-.6l-.5-.3a13.8,13.8,0,0,0-3-1.4H52c-.6-.2-1-.4-1.1-.9a1.2,1.2,0,0,1-.9-.9,1,1,0,0,1,.1-.9,1.1,1.1,0,0,1,.3-.8.9.9,0,0,1,.7-.3,4.4,4.4,0,0,1,1.5.5h.1a8.9,8.9,0,0,1,2.7.7l.9.2,1.3-.2h.3a1,1,0,0,1,.7.4,1.1,1.1,0,0,1,.2.8,1,1,0,0,0,.2.9,2.1,2.1,0,0,1,.4.6,1.7,1.7,0,0,1,0,1.7,1.1,1.1,0,0,1-1,.6Z" style="fill:#f4b876"/><path d="M51.1,71.3a3.9,3.9,0,0,1,1.4.5h.2a5.9,5.9,0,0,1,2.5.7l1.1.2,1.4-.3h.1a.7.7,0,0,1,.5.7,1.7,1.7,0,0,0,.3,1.4,1,1,0,0,1,.4.5c.4.7.1,1.5-.6,1.5h-.2a4.8,4.8,0,0,1-1.6-.8,22,22,0,0,0-3.1-1.5H52.1c-.6-.1-.8-.4-.8-.8a.8.8,0,0,1-.7-1.3c0-.1,0-.4.1-.5l.4-.2m0-1a1.6,1.6,0,0,0-1.1.5,1.3,1.3,0,0,0-.4,1,1.7,1.7,0,0,0,.9,2.3,2,2,0,0,0,1.4,1h1.3a15.1,15.1,0,0,1,2.9,1.3l.4.3a3.5,3.5,0,0,0,1.5.7h.4a1.9,1.9,0,0,0,1.5-.8,2.8,2.8,0,0,0,0-2.2l-.5-.7a.4.4,0,0,1-.1-.5,1.6,1.6,0,0,0-.3-1.2,1.3,1.3,0,0,0-1-.6h-.5l-1.2.2-.7-.2a14.8,14.8,0,0,0-2.9-.7,4.9,4.9,0,0,0-1.6-.5Z" style="fill:#c1683d"/><path d="M33.9,62.3c-2.2,0-6.1-2-8.1-3.3a.9.9,0,0,1-.4-1.2c.1-.5.4-.8.8-.8h.3l1.5.2h4.3c1.6.3,3.8,1.4,3.7,3.5s-.8,1.7-2.1,1.7Z" style="fill:#f4b876"/><path d="M26.2,57.5c.1,0,.1,0,.1.1l1.7.2,3.3-.2h.9c1.3.2,3.4,1.2,3.3,2.9s-.7,1.3-1.6,1.3-7-2.7-7.9-3.2a.5.5,0,0,1-.1-.6c0-.3.1-.5.3-.5m0-1A1.3,1.3,0,0,0,25,57.6a1.1,1.1,0,0,0-.2.8,1.9,1.9,0,0,0,.7,1.1c2.1,1.2,6.1,3.3,8.4,3.3a2.3,2.3,0,0,0,2.6-2.2c.1-2.4-2.4-3.7-4.1-4H28l-1.4-.2Z" style="fill:#c1683d"/><path d="M24.8,61a.9.9,0,0,1-.8-.6h-.7a1,1,0,0,1-.8-.7c-.3-1,.9-2.3.9-2.3a1.9,1.9,0,0,1,1.6-.8l1.1.3a3.2,3.2,0,0,1,1.2.8.7.7,0,0,1,0,1.2,1.2,1.2,0,0,1-.8.4c-.3.1-.4.1-.4.2s-.1.2-.2.4a1.8,1.8,0,0,1-.6,1Z" style="fill:#f4b876"/><path d="M25,57.1l.9.2a3,3,0,0,1,1,.7.4.4,0,0,1,0,.6c-.3.3-.9.2-1.2.6s-.3,1-.6,1.2h-.3c-.2,0-.3-.2-.4-.4s-.1-.2-.2-.2h-.8c-1-.3,0-1.9.3-2.3a1.8,1.8,0,0,1,1.3-.6m0-1a2.5,2.5,0,0,0-2,.9c-.1.1-1.3,1.6-.9,2.9a1.3,1.3,0,0,0,1.1,1h.6a1.4,1.4,0,0,0,1,.5l.8-.2a2,2,0,0,0,.8-1.3.3.3,0,0,0,.1-.2h.1a2.4,2.4,0,0,0,1-.5,1.3,1.3,0,0,0,.1-1.9,3.3,3.3,0,0,0-1.4-1L25,56.1Z" style="fill:#c1683d"/><path d="M38.2,32.3H36.8c-4.4-.4-10.2-3.1-11.9-9.4s2.2-10.9,6-13.5A13.7,13.7,0,0,1,38.3,7a11.7,11.7,0,0,1,4.9,1.1c3.6,1.9,6.3,6.2,6.6,11a17.1,17.1,0,0,1,0,3.2v.2a10.6,10.6,0,0,1-2.9,6.3.9.9,0,0,1-.6.3h0c-.4,0-.8-.4-1.5-1l-.7-.6v1.3c-.1,1.2-.1,2.2-.7,2.4A12.3,12.3,0,0,1,38.2,32.3Z" style="fill:#f4b876"/><path d="M38.3,7.5a9.2,9.2,0,0,1,4.6,1.1c3.8,1.9,6.1,6.2,6.5,10.5,0,1,0,2.1-.1,3.1s0,.1-.1.2a10.8,10.8,0,0,1-2.8,6.1h-.2c-.5,0-1.7-1.7-2.3-1.7h-.2c-.5.4,0,3.6-.6,3.9a13.4,13.4,0,0,1-4.9,1H36.9c-4.9-.4-10-3.5-11.6-9s2-10.4,5.9-13a13.8,13.8,0,0,1,7.1-2.2m0-1a14,14,0,0,0-7.7,2.4c-3.9,2.6-7.9,7.9-6.2,14s7.8,9.4,12.4,9.8h1.4a13.2,13.2,0,0,0,5.3-1.1c.9-.4.9-1.6,1-2.9v-.3c.6.6,1.1,1.1,1.7,1.1a1.3,1.3,0,0,0,.9-.4,12,12,0,0,0,3.1-6.6v-.3a17.1,17.1,0,0,0,0-3.2c-.4-5-3.1-9.4-6.9-11.4a11.3,11.3,0,0,0-5.1-1.2Z" style="fill:#c1683d"/><path d="M26.6,50.6l-3.1-.3C12.1,48.1,4.8,34.2,6,23.2A1.4,1.4,0,0,1,7.3,22a1.1,1.1,0,0,1,1.1.6,2.7,2.7,0,0,0,2.1,1.2c2.1,0,4.6-2.6,6.4-4.6l1.9-1.9A11.2,11.2,0,0,1,25.9,15a22.6,22.6,0,0,1,6.3,1.1l.4.2,1.1.5a1.6,1.6,0,0,1,1.5-1h.5a1.9,1.9,0,0,1,1.4,1.8h0a2.1,2.1,0,0,1,1.2.5,3.4,3.4,0,0,1,.8,2.1v.3a12.1,12.1,0,0,0,1.1,3,20.3,20.3,0,0,1,2.2,9.7c-.2,9.6-7.1,17.2-15.9,17.2Z" style="fill:#f4b876"/><path d="M25.9,15.5A21.8,21.8,0,0,1,32,16.6a.5.5,0,0,1,.4.2l1.6.7c.2-.7.5-1.2,1.2-1.2h.4a1.7,1.7,0,0,1,1,1.5v.7l.5-.2a1.4,1.4,0,0,1,.9.4,3.8,3.8,0,0,1,.7,2.1h0a11.5,11.5,0,0,0,1.1,3.1A19.2,19.2,0,0,1,42,33.4c-.1,8.9-6.5,16.7-15.4,16.7l-3-.3C12.8,47.7,5.3,34.6,6.5,23.3a.9.9,0,0,1,.8-.8.7.7,0,0,1,.7.4,3.1,3.1,0,0,0,2.5,1.4c3.1,0,6.8-5.1,8.6-6.6a10.7,10.7,0,0,1,6.8-2.2m0-1A11.1,11.1,0,0,0,18.5,17a16.5,16.5,0,0,0-2,1.9c-1.7,1.8-4.1,4.4-6,4.4a2.1,2.1,0,0,1-1.7-1,1.8,1.8,0,0,0-1.5-.8,1.9,1.9,0,0,0-1.8,1.7A27.8,27.8,0,0,0,9.7,40.5c3.5,5.6,8.3,9.2,13.8,10.3a16.3,16.3,0,0,0,3.1.3c9,0,16.2-7.8,16.4-17.7a20,20,0,0,0-2.3-9.9,11.1,11.1,0,0,1-1-2.9c0-.1-.1-.2-.1-.3a3.4,3.4,0,0,0-1-2.3,1.7,1.7,0,0,0-1.1-.6,2.6,2.6,0,0,0-1.6-2h-.7a2.1,2.1,0,0,0-1.7.8l-.6-.2-.6-.3a23.2,23.2,0,0,0-6.4-1.1Z" style="fill:#c1683d"/><path d="M7.4,24a2,2,0,0,1-1.8-1.3,4.1,4.1,0,0,1-.3-1.6,2.6,2.6,0,0,1,1.5-2.6h.5A2,2,0,0,1,9.2,20a4.3,4.3,0,0,1-.5,3.3,1.5,1.5,0,0,1-1.3.7Z" style="fill:#f4b876"/><path d="M7.3,18.9a1.5,1.5,0,0,1,1.4,1.2A3.6,3.6,0,0,1,8.3,23a1,1,0,0,1-.9.5,1.7,1.7,0,0,1-1.4-1,3.2,3.2,0,0,1-.2-1.4c0-.9.3-1.9,1.1-2.1h.4m0-1H6.7a3,3,0,0,0-1.9,3.1,5.2,5.2,0,0,0,.3,1.8,2.6,2.6,0,0,0,2.3,1.6,2,2,0,0,0,1.7-.9,4.6,4.6,0,0,0,.6-3.8,2.6,2.6,0,0,0-2.4-1.9Z" style="fill:#c1683d"/><path d="M23.8,40.8C32,45.3,38.7,52.3,45.5,59c.4.4.9-.3.5-.7-6.6-7-13.6-13.8-22-18.1-.3-.2-.6.4-.2.6Z" style="fill:#c1683d"/><path d="M23.1,42.3A83.7,83.7,0,0,1,38,57.7a.5.5,0,1,0,.8-.7A69.4,69.4,0,0,0,23.4,41.8c-.3-.3-.7.2-.3.5Z" style="fill:#c1683d"/><path d="M25.6,36.2a3.9,3.9,0,0,1-1.8-.4,5.3,5.3,0,0,1-2.6-6.4,4.3,4.3,0,0,1,4-2.9,4.3,4.3,0,0,1,1.9.4,5.2,5.2,0,0,1,2.5,6.4A4.2,4.2,0,0,1,25.6,36.2Z" style="fill:#f4b876"/><path d="M25.2,27a3.5,3.5,0,0,1,1.7.4,4.8,4.8,0,0,1,2.3,5.8,3.8,3.8,0,0,1-3.6,2.5,3.2,3.2,0,0,1-1.6-.4,4.7,4.7,0,0,1-2.3-5.8A3.7,3.7,0,0,1,25.2,27m0-1a4.8,4.8,0,0,0-4.5,3.2,5.8,5.8,0,0,0,2.8,7,4.1,4.1,0,0,0,2.1.5,4.7,4.7,0,0,0,4.5-3.2,5.7,5.7,0,0,0-2.8-7,4.1,4.1,0,0,0-2.1-.5Z" style="fill:#c1683d"/><path d="M52.4,52.5l-2.9-.2c-5.6-.9-12.8-4.8-14.6-13s3.6-13.7,8.6-16.6a17.6,17.6,0,0,1,8.7-2.4,13.3,13.3,0,0,1,7.1,1.9c4.5,2.7,7.6,8.4,7.8,14.5a18.7,18.7,0,0,1-.4,4V41a14.3,14.3,0,0,1-4.3,7.8l-.5.2h0c-.5,0-1-.5-1.8-1.3s-.8-.9-1.1-1a9.2,9.2,0,0,0-.2,1.9c-.1,1.5-.2,2.7-.9,2.9A14.5,14.5,0,0,1,52.4,52.5Z" style="fill:#f4b876"/><path d="M52.2,20.8A13.6,13.6,0,0,1,59,22.6c4.7,2.8,7.4,8.5,7.6,14.1a25.6,25.6,0,0,1-.3,3.9.4.4,0,0,0-.1.3,13.7,13.7,0,0,1-4.1,7.5h-.2c-.7,0-2.2-2.3-2.9-2.3h-.2c-.7.4-.3,4.6-1.1,4.9a15.1,15.1,0,0,1-5.3.9l-2.8-.2c-6.3-1-12.7-5.4-14.3-12.6s3.3-13.1,8.5-16.1a17.6,17.6,0,0,1,8.4-2.3m0-1a18.2,18.2,0,0,0-8.9,2.5c-5.2,3-10.7,9.2-8.9,17.1s9.2,12.4,15.1,13.3a13.6,13.6,0,0,0,2.9.3,15.6,15.6,0,0,0,5.7-1c1-.4,1.1-1.7,1.2-3.3a3.4,3.4,0,0,1,.1-1l.3.3c.8.9,1.4,1.5,2.2,1.5a1.6,1.6,0,0,0,.9-.3,15.3,15.3,0,0,0,4.4-8.1v-.3a19.9,19.9,0,0,0,.4-4.2c-.2-6.2-3.4-12-8.1-14.8a14,14,0,0,0-7.3-2Z" style="fill:#c1683d"/><path d="M66.5,62.4c-2.9-.8-6.2-.8-8.3,1.5a7.6,7.6,0,0,0-1.5,8.3c.3.5.5.8.9.9s1.3.4,1.5,0,.1-.6-.2-.6h0a1.9,1.9,0,0,1-1.6-1.4c-.7-2.7-.2-5.4,1.8-7.1s4.8-1.6,7.4-1.4C66.6,62.6,66.7,62.4,66.5,62.4Z" style="fill:#c1683d"/></g></g></g></svg>