<svg xmlns="http://www.w3.org/2000/svg" width="85.6" height="86.8" viewBox="0 0 85.6 86.8"><g style="isolation:isolate"><g id="Layer_2" data-name="Layer 2"><g id="Layer_5" data-name="Layer 5"><g id="owl_food_4" data-name="owl_food 4"><path d="M16.6,85.3A15.2,15.2,0,0,1,1.5,70.1V23.2A15.2,15.2,0,0,1,16.6,8H43.4a2.8,2.8,0,0,1,2.7,2.8,2.7,2.7,0,0,1-2.7,2.7H16.6a9.7,9.7,0,0,0-9.7,9.7V70.1a9.7,9.7,0,0,0,9.7,9.7h57a2.7,2.7,0,0,1,2.7,2.7,2.8,2.8,0,0,1-2.7,2.8Z" style="fill:#d8a960"/><path d="M43.4,9.5a1.2,1.2,0,0,1,1.2,1.3A1.2,1.2,0,0,1,43.4,12H16.6A11.2,11.2,0,0,0,5.4,23.2V70.1A11.2,11.2,0,0,0,16.6,81.3h57a1.3,1.3,0,0,1,1.2,1.2,1.3,1.3,0,0,1-1.2,1.3h-57A13.7,13.7,0,0,1,3,70.1V23.2A13.7,13.7,0,0,1,16.6,9.5H43.4m0-3H16.6A16.7,16.7,0,0,0,0,23.2V70.1A16.7,16.7,0,0,0,16.6,86.8h57a4.3,4.3,0,0,0,0-8.5h-57a8.2,8.2,0,0,1-8.2-8.2V23.2A8.2,8.2,0,0,1,16.6,15H43.4a4.2,4.2,0,0,0,4.2-4.2,4.2,4.2,0,0,0-4.2-4.3Z" style="fill:#6a3417"/><path d="M41.5,21.1A1.5,1.5,0,0,1,40,19.6V4.9a3.4,3.4,0,0,1,3.4-3.4,3.5,3.5,0,0,1,3.5,3.4V19.6a1.5,1.5,0,0,1-1.5,1.5Z" style="fill:#8d8d8d"/><path d="M43.4,3a2,2,0,0,1,2,1.9V19.6H41.5V4.9A1.9,1.9,0,0,1,43.4,3h0m0-3h0a4.9,4.9,0,0,0-4.9,4.9V19.6a3,3,0,0,0,3,3h3.9a3.1,3.1,0,0,0,3-3V4.9a4.9,4.9,0,0,0-5-4.9Z" style="fill:#575757"/><path d="M20.3,82.5a3.8,3.8,0,0,1-3.7-3.7A3.7,3.7,0,0,1,20.3,75H80.8a3.7,3.7,0,0,1,3.8,3.7,3.8,3.8,0,0,1-3.8,3.8Z" style="fill:#af7553"/><path d="M80.8,76a2.7,2.7,0,0,1,2.8,2.7h0a2.7,2.7,0,0,1-2.8,2.7H20.3a2.7,2.7,0,0,1-2.7-2.7h0A2.7,2.7,0,0,1,20.3,76H80.8m0-2H20.3a4.8,4.8,0,0,0,0,9.5H80.8a4.8,4.8,0,1,0,0-9.5Z" style="fill:#75411a"/><path d="M66.9,61c0,3.9-10.5,7.1-23.5,7.1S19.9,64.9,19.9,61c0-1.6,2.7-9.9,5.5-11.1s10.2,4,18,4,13.5-5.8,17.8-4.2S66.9,59.3,66.9,61Z" style="fill:#baa2ee"/><path d="M45.8,67.4a8.1,8.1,0,0,1-2.5-.3,5.4,5.4,0,0,1-1.9.3H40a3.7,3.7,0,0,1-2.9-1.7c-.9-1.5,0-3.3.3-4a1.1,1.1,0,0,0,.2-.7,2.8,2.8,0,0,1,.5-1.8.9.9,0,0,1,.7-.3H39a1.6,1.6,0,0,1,.9.4,13.1,13.1,0,0,1,3.5-.5,10.3,10.3,0,0,1,3.5.6,2.2,2.2,0,0,1,1-.4h.2a.9.9,0,0,1,.7.3,2.1,2.1,0,0,1,.3,2,.8.8,0,0,1,.2.4,5.2,5.2,0,0,1,.8,2,3,3,0,0,1-1.2,2.9,4.8,4.8,0,0,1-3.1.9Z" style="fill:#baa2ee"/><path d="M43.4,59.7a9,9,0,0,1,3.4.7h.4c.2-.4.9-.5.9-.5s0,1.2,0,1.2.8,1.4,1,2.7a2,2,0,0,1-.8,1.9,3.7,3.7,0,0,1-2.5.7,11.7,11.7,0,0,1-2.5-.3,6.3,6.3,0,0,1-1.9.3H40.2c-3.4-.4-2.6-2.8-1.9-4.2a8.2,8.2,0,0,0,.4-1.1s-.2-.9.1-1.2.7.1.8.6a10.4,10.4,0,0,1,3.8-.7m0-2a15.1,15.1,0,0,0-3.4.4l-.7-.3h-.5a1.9,1.9,0,0,0-1.5.7,3.7,3.7,0,0,0-.7,2.4.5.5,0,0,1-.1.3c-.4.8-1.4,3-.3,4.9a4.4,4.4,0,0,0,3.7,2.2h1.5l2-.2,2.4.2a6,6,0,0,0,3.7-1.1,4,4,0,0,0,1.6-3.8,6.7,6.7,0,0,0-.9-2.4h0a2.8,2.8,0,0,0-.6-2.4,1.8,1.8,0,0,0-1.5-.7h-.4l-.9.3a12.7,12.7,0,0,0-3.4-.5Z" style="fill:#7850b3"/><circle cx="40.6" cy="63" r="1.5" transform="matrix(0.99, -0.16, 0.16, 0.99, -9.54, 7.29)" style="fill:#7850b3"/><circle cx="46.3" cy="63" r="1.5" style="fill:#7850b3"/><path d="M42.4,64.1s.2-.9,1-.9a1.2,1.2,0,0,1,1.1.9l-1.1,1.3Z" style="fill:#7850b3"/><ellipse cx="43.4" cy="52" rx="19.7" ry="5.3" style="fill:#dfd4fc"/><ellipse cx="43.4" cy="51.5" rx="17.5" ry="4.2" style="fill:#98d9e4"/><path d="M27.7,53.3c2.8-1.4,8.8-2.3,15.7-2.3s12.9.9,15.8,2.3c1.1-.6,1.8-1.2,1.8-1.8,0-2.4-7.9-4.2-17.6-4.2s-17.5,1.8-17.5,4.2Q25.9,52.4,27.7,53.3Z" style="fill:#baa2ee"/><path d="M43.4,46.7c7.8,0,14.6,1.3,17.8,3h0c3.3,1.3,5.7,9.6,5.7,11.3,0,3.9-10.5,7.1-23.5,7.1S19.9,64.9,19.9,61c0-1.6,2.7-9.9,5.5-11.1h0c3-1.9,10-3.2,18-3.2m0-3c-8.3,0-15.7,1.4-19.4,3.5S16.9,59.3,16.9,61c0,8,16.7,10.1,26.5,10.1S69.9,69,69.9,61c0-1.6-2.2-11.8-7.5-14-3.8-2-10.9-3.3-19-3.3Z" style="fill:#7850b3"/><path d="M34.7,52.1c-3.5,0-6.3-1.9-6.3-4.4V21.3c0-5.5,6.6-9.8,15-9.8s15,4.3,15,9.8V47.7c0,2.5-2.7,4.4-6.2,4.4Z" style="fill:#98d9e4"/><path d="M43.4,13c7.5,0,13.5,3.7,13.5,8.3V47.7c0,1.6-2.1,2.9-4.7,2.9H34.7c-2.6,0-4.8-1.3-4.8-2.9V21.3c0-4.6,6.1-8.3,13.5-8.3m0-3c-9.2,0-16.5,5-16.5,11.3V47.7c0,3.4,3.4,5.9,7.8,5.9H52.2c4.4,0,7.7-2.5,7.7-5.9V21.3C59.9,15,52.7,10,43.4,10Z" style="fill:#5576b4"/><path d="M41.9,47.7V21.3c0-3.8,4.3-7,10-8a19.8,19.8,0,0,0-3.5-.3c-7.4,0-13.5,3.7-13.5,8.3V47.7c0,1.6,2.2,2.9,4.8,2.9h7C44.1,50.6,41.9,49.3,41.9,47.7Z" style="fill:#a7bfee;mix-blend-mode:multiply;opacity:0.5"/><path d="M43.4,13c-7.4,0-13.5,3.7-13.5,8.3v1.1h27V21.3C56.9,16.7,50.9,13,43.4,13Z" style="fill:#baa2ee"/><path d="M38.4,21.2V20.1c0-3,2.6-5.6,6.4-7H43.4c-7.4,0-13.5,3.7-13.5,8.3v1.1h27V21.3H38.4Z" style="fill:#baa2ee;mix-blend-mode:multiply;opacity:0.30000000000000004"/><rect x="29.9" y="31.2" width="27" height="3.69" style="fill:#baa2ee"/><rect x="35.2" y="50.9" width="16.4" height="2.74" rx="1.4" style="fill:#baa2ee"/><path d="M29.9,45.6v2.1c0,1.6,2.2,2.9,4.8,2.9H52.2c2.6,0,4.7-1.3,4.7-2.9V45.6Z" style="fill:#baa2ee"/><path d="M40.6,49.3c-2.7,0-4.8-1.3-4.8-2.9v-.8H30.3v2.1c0,1.6,2.2,2.9,4.8,2.9H52.5a5.8,5.8,0,0,0,4-1.3Z" style="fill:#baa2ee;mix-blend-mode:multiply;opacity:0.30000000000000004"/><rect x="29.9" y="22.4" width="27" height="0.94" style="fill:#91a7bd;mix-blend-mode:multiply;opacity:0.4"/><rect x="29.9" y="34.9" width="27" height="0.94" style="fill:#91a7bd;mix-blend-mode:multiply;opacity:0.4"/><path d="M43.4,13c7.5,0,13.5,3.7,13.5,8.3v1.1h-27V21.3c0-4.6,6.1-8.3,13.5-8.3m0-3c-9.2,0-16.5,5-16.5,11.3v1.1a3,3,0,0,0,3,3h27a2.9,2.9,0,0,0,3-3V21.3C59.9,15,52.7,10,43.4,10Z" style="fill:#7850b3"/><path d="M56.9,45.6v2.1c0,1.6-2.1,2.9-4.7,2.9H34.7c-2.6,0-4.8-1.3-4.8-2.9V45.6h27m0-3h-27a3,3,0,0,0-3,3v2.1c0,3.4,3.4,5.9,7.8,5.9H52.2c4.4,0,7.7-2.5,7.7-5.9V45.6a2.9,2.9,0,0,0-3-3Z" style="fill:#7850b3"/></g></g></g></g></svg>