<svg xmlns="http://www.w3.org/2000/svg" width="86" height="85.8" viewBox="0 0 86 85.8"><g id="Layer_2" data-name="Layer 2"><g id="Layer_5" data-name="Layer 5"><g id="owl_food_3" data-name="owl_food 3"><g id="path7433"><path d="M80.1,84.3A4.4,4.4,0,0,1,77,83L4,8a2.9,2.9,0,0,1,.1-4h.1a2.5,2.5,0,0,1,2-.9,3.2,3.2,0,0,1,2,.8l75,73a4.4,4.4,0,0,1-3.1,7.5Z" style="fill:#d8a960"/><path d="M6.2,4.5a1.8,1.8,0,0,1,.9.4l75,73a2.9,2.9,0,0,1-2,4.9,2.7,2.7,0,0,1-2-.9l-73-75A1.4,1.4,0,0,1,5.1,5h.1a1.8,1.8,0,0,1,1-.4m0-3A4.4,4.4,0,0,0,3.1,2.8H3A4.3,4.3,0,0,0,3,9L75.9,84a5.6,5.6,0,0,0,4.2,1.8A5.8,5.8,0,0,0,86,79.9a6,6,0,0,0-1.8-4.2L9.2,2.8a4.3,4.3,0,0,0-3-1.3Z" style="fill:#924f28"/></g><g id="path7445"><path d="M16.1,31.5a3,3,0,0,1-1.5-.5C11.4,28.9,4.3,23.1,1.9,19.9s1-4.2,2.1-5.3a19,19,0,0,0,3.1-4.4c1.7-2.8,3.6-6,7.2-7.8a8.6,8.6,0,0,1,3.9-.9,4.2,4.2,0,0,1,2,.4c4.2,1.9,11.5,9,12.1,13a4,4,0,0,1-1.5,3.2,45.9,45.9,0,0,1-4.1,3.6,52.8,52.8,0,0,0-8.4,8.6A2.7,2.7,0,0,1,16.1,31.5Z" style="fill:#c05637"/><path d="M18.2,3a3.2,3.2,0,0,1,1.4.3c4,1.8,10.8,8.6,11.2,11.8.1.6-.6,1.5-1,2-4.3,4-8.8,7-12.7,12.3a1.1,1.1,0,0,1-1,.6l-.6-.2C12.1,27.5,5.3,22,3.2,19c-.7-.9.9-2.4,1.9-3.3,3.3-3.3,4.7-9.4,9.9-12A7.9,7.9,0,0,1,18.2,3m0-3h0a11.9,11.9,0,0,0-4.6,1c-4,2-6,5.5-7.8,8.5a21.6,21.6,0,0,1-2.8,4C1.8,14.7-1.4,17.7.7,20.7S10.4,30,13.8,32.3a4.8,4.8,0,0,0,2.3.7,4.3,4.3,0,0,0,3.4-1.8,49.6,49.6,0,0,1,8.2-8.3c1.4-1.2,2.8-2.4,4.1-3.7s2.3-2.4,2-4.5c-.7-4.7-8.4-12-13-14.2A6.7,6.7,0,0,0,18.2,0Z" style="fill:#823b33"/></g><path id="path20956" d="M13.9,4.4c3.8,2.1,12.9,7.5,11.9,10.8S15.7,23.4,12.1,27.4c1.3.9,2.4,1.8,3.4,2.4a1.2,1.2,0,0,0,1.6-.4c3.9-5.3,8.4-8.3,12.7-12.3.4-.5,1.1-1.4,1-2-.4-3.2-7.2-10-11.2-11.8-1.2-.6-3.4-.2-4.6.4A4.1,4.1,0,0,0,13.9,4.4Z" style="fill:#b1452a"/><path id="path4058" d="M17.4,14.1a32.4,32.4,0,0,0,2.7,6.6,35.7,35.7,0,0,0-1-7.1l-.7-2.7a18.3,18.3,0,0,0-2.2-4.7,18.6,18.6,0,0,0,.4,5.1Z" style="fill:#ac3d24"/><path id="path4060" d="M19.7,13.6a19.6,19.6,0,0,0,4.9-2.2,18.7,18.7,0,0,0-5.4.5l-3.2.9a28.1,28.1,0,0,0-5.9,2.6,28.2,28.2,0,0,0,6.3-.8Z" style="fill:#ac3d24"/><path id="path4075" d="M18.8,18.8a20,20,0,0,0,4.8-2.2,18.1,18.1,0,0,0-5.3.5L15,18a31.9,31.9,0,0,0-5.8,2.5,22.8,22.8,0,0,0,6.3-.8Z" style="fill:#ac3d24"/><path id="path4097" d="M13.5,18a31.8,31.8,0,0,0,2.7,6.7,35.7,35.7,0,0,0-1-7.1l-.7-2.8a18.7,18.7,0,0,0-2.2-4.6,16.7,16.7,0,0,0,.5,5.1Z" style="fill:#ac3d24"/><g id="path7443"><path d="M31,46.5a4.2,4.2,0,0,1-2.1-.6A26.8,26.8,0,0,1,18.6,35.6a4.9,4.9,0,0,1,.9-5.9A57.4,57.4,0,0,0,24.7,24a30.4,30.4,0,0,1,5-5.3,6.2,6.2,0,0,1,3.8-1.2,4.5,4.5,0,0,1,2.4.6c2.7,1.8,5.4,5.3,8.1,8.6l1.6,2.1a3,3,0,0,1,.7,2.8,3.3,3.3,0,0,1-2,2.3c-4.5,2-7.3,6.6-9.8,10.6A4.2,4.2,0,0,1,31,46.5Z" style="fill:#ae4239"/><path d="M33.5,19a2.7,2.7,0,0,1,1.6.4c3,1.9,6.2,6.4,9.3,10.3a1.8,1.8,0,0,1-.8,2.9c-4.7,2.1-7.5,6.5-10.3,11.1A2.8,2.8,0,0,1,31,45a2.8,2.8,0,0,1-1.3-.4,25.8,25.8,0,0,1-9.9-9.8,3.5,3.5,0,0,1,.7-4h0c5.2-4.9,6.1-7.7,10.1-10.9a5,5,0,0,1,2.9-.9m0-3h0a8.2,8.2,0,0,0-4.7,1.5A33.6,33.6,0,0,0,23.5,23a39.7,39.7,0,0,1-5.1,5.6,6.2,6.2,0,0,0-1.1,7.7A27.1,27.1,0,0,0,28.2,47.2,5.4,5.4,0,0,0,31,48a5.7,5.7,0,0,0,4.8-2.7c2.9-4.7,5.3-8.3,9.1-10A5.2,5.2,0,0,0,47.8,32a4.8,4.8,0,0,0-1-4.1l-1.6-2.1c-2.8-3.5-5.6-7-8.5-8.9a5.7,5.7,0,0,0-3.2-.9Z" style="fill:#82322e"/></g><path id="path21444" d="M29.9,20.5c2.3,2.1,9.2,8.3,9,9.9s-11,6.2-12.4,11.9a.3.3,0,0,0-.1.2l3.3,2.1a2.7,2.7,0,0,0,3.6-.9c2.8-4.6,5.6-9,10.3-11.1a1.8,1.8,0,0,0,.8-2.9c-3.1-3.9-6.3-8.4-9.3-10.3-1.2-.8-3.3-.4-4.5.5Z" style="fill:#a43931"/><path id="path4168" d="M31.8,30.8a31.8,31.8,0,0,0,2.7,6.7,28.9,28.9,0,0,0-1-7.1l-.7-2.8A18.7,18.7,0,0,0,30.6,23a16.6,16.6,0,0,0,.5,5.1Z" style="fill:#942a25"/><path id="path4170" d="M31.1,32A20,20,0,0,0,36,29.7a20.9,20.9,0,0,0-5.4.6l-3.3.9a25.6,25.6,0,0,0-5.8,2.5,28.2,28.2,0,0,0,6.3-.8Z" style="fill:#942a25"/><path id="path4172" d="M33.2,35.6a18.1,18.1,0,0,0,4.9-2.3,20.9,20.9,0,0,0-5.4.6l-3.3.9a25.6,25.6,0,0,0-5.8,2.5,22.8,22.8,0,0,0,6.3-.8Z" style="fill:#942a25"/><path id="path4174" d="M28.8,37.2a32.4,32.4,0,0,0,2.7,6.6,35.7,35.7,0,0,0-1-7.1L29.8,34a18.3,18.3,0,0,0-2.2-4.7,16.6,16.6,0,0,0,.5,5.1Z" style="fill:#942a25"/><g id="path7441"><path d="M46.5,62.3l-1.4-.2-2.5-.9c-4.8-1.4-10.8-3.3-10.3-11.3a10,10,0,0,1,1.8-4.3,33.7,33.7,0,0,0,2.4-3.7c2.1-3.6,4.4-7.6,9.4-9.1l1.5-.2a7,7,0,0,1,3.3.8c4.2,2.2,6.2,5.2,7.9,7.9a23.6,23.6,0,0,0,2.6,3.6,3,3,0,0,1,.9,2.5,2.8,2.8,0,0,1-1.3,2.1c-5,3.6-7.9,7.3-10.9,11.2A4.4,4.4,0,0,1,46.5,62.3Z" style="fill:#bf703a"/><path d="M47.4,34.1a7.1,7.1,0,0,1,2.6.6c5.9,3.1,6.9,7.8,10.1,11.2a1.5,1.5,0,0,1-.2,2.4c-5.2,3.7-8.2,7.6-11.3,11.5a2.5,2.5,0,0,1-2.1,1l-.9-.2C40.1,58.7,33.3,58.1,33.8,50a9.1,9.1,0,0,1,1.5-3.5c3.3-4.4,4.9-10.4,11-12.2l1.1-.2m0-3a6.4,6.4,0,0,0-2,.3c-5.5,1.7-8,5.9-10.2,9.7a31.7,31.7,0,0,1-2.3,3.6,10.6,10.6,0,0,0-2.1,5.1c-.5,9.2,6.6,11.4,11.3,12.9l2.5.8A5.9,5.9,0,0,0,51,61.7h0c3-3.8,5.9-7.4,10.7-10.8a4.5,4.5,0,0,0,1.9-3.3,4.8,4.8,0,0,0-1.3-3.7,16.5,16.5,0,0,1-2.4-3.3c-1.8-2.7-3.9-6-8.5-8.4a8.8,8.8,0,0,0-4-1Z" style="fill:#8e4413"/></g><path id="path21518" d="M41.7,37.1l-1.4,1.6c2.7,0,7.8.2,10.9,2.8s2.8,6.3.1,8.9-8.1,6.2-9.7,9l4,1.2a2.6,2.6,0,0,0,3-.8c3.1-3.9,6.1-7.8,11.3-11.5a1.5,1.5,0,0,0,.2-2.4c-3.2-3.4-4.2-8.1-10.1-11.2a6,6,0,0,0-3.7-.4A10.2,10.2,0,0,0,41.7,37.1Z" style="fill:#9b592c"/><path id="path4176" d="M47.5,47.3A31.8,31.8,0,0,0,50.2,54a35.7,35.7,0,0,0-1-7.1l-.7-2.8a18.7,18.7,0,0,0-2.2-4.6,16.7,16.7,0,0,0,.5,5.1Z" style="fill:#9b592c"/><path id="path4178" d="M48.8,44.9a19.6,19.6,0,0,0,4.9-2.2,18.7,18.7,0,0,0-5.4.5l-3.2.9a28.1,28.1,0,0,0-5.9,2.6,28.2,28.2,0,0,0,6.3-.8Z" style="fill:#9b592c"/><path id="path4180" d="M46.9,50a18.1,18.1,0,0,0,4.9-2.3,16.2,16.2,0,0,0-5.3.6l-3.3.9a23.3,23.3,0,0,0-5.8,2.5,27.6,27.6,0,0,0,6.2-.8Z" style="fill:#9b592c"/><path id="path4182" d="M43.6,51.3a32.4,32.4,0,0,0,2.7,6.6,29.4,29.4,0,0,0-1-7.1l-.7-2.7a15.2,15.2,0,0,0-2.2-4.7,16.6,16.6,0,0,0,.5,5.1Z" style="fill:#9b592c"/><g id="path7439"><path d="M63.1,77.6a4.8,4.8,0,0,1-2.6-.7,22.3,22.3,0,0,0-4.1-2c-3.8-1.6-8.7-3.7-8.6-9.4A7.4,7.4,0,0,1,50,61l2.6-2.4a78.9,78.9,0,0,0,8.6-8.7A6.1,6.1,0,0,1,65.4,48H66c5.4,1,9.8,5.5,11.9,12.3a5.5,5.5,0,0,1-1.1,4.9L74,68.5a56.4,56.4,0,0,1-8.5,8.4A4,4,0,0,1,63.1,77.6Z" style="fill:#ce643a"/><path d="M65.4,49.5h.3c4,.7,8.4,3.9,10.8,11.2a4,4,0,0,1-.9,3.5c-3.5,3.9-6.3,8.1-11,11.5a2.4,2.4,0,0,1-1.5.4,3.7,3.7,0,0,1-1.8-.5c-4.6-2.9-12.1-3.5-12-10.1A5.8,5.8,0,0,1,51,62.1c3.6-3.4,6.8-5.9,11.4-11.2a4.5,4.5,0,0,1,3-1.4m0-3h0A7.4,7.4,0,0,0,60.1,49a96.6,96.6,0,0,1-8.5,8.5L49,59.9a8.5,8.5,0,0,0-2.7,5.6c-.1,6.7,5.5,9.1,9.6,10.8l3.8,1.8a5.9,5.9,0,0,0,3.4,1,5.4,5.4,0,0,0,3.3-1,47.7,47.7,0,0,0,8.7-8.7l2.8-3.2a7.1,7.1,0,0,0,1.5-6.4C77,52.5,72.2,47.7,66.3,46.6Z" style="fill:#ac3d24"/></g><path id="path21520" d="M62.5,50.8h-.1l-2.5,2.8c2.4.9,7.3,3,8.8,5.1s3.8,1.8,1.7,4.6S59.8,70.2,58.2,73.8V74l3.2,1.6a3,3,0,0,0,3.3.1c4.7-3.4,7.5-7.6,11-11.5a4,4,0,0,0,.9-3.5c-2.4-7.3-6.8-10.5-10.8-11.2A4.2,4.2,0,0,0,62.5,50.8Z" style="fill:#b1452a"/><path id="path4184" d="M65,61.4a34.6,34.6,0,0,0,3,7.3,38.9,38.9,0,0,0-1.1-7.8l-.8-3.1a19.7,19.7,0,0,0-2.4-5.1,19.9,19.9,0,0,0,.5,5.6Z" style="fill:#ac3d24"/><path id="path4186" d="M67.6,60.9A22.9,22.9,0,0,0,73,58.4a20,20,0,0,0-5.9.6l-3.7,1A34.7,34.7,0,0,0,57,62.8a30.2,30.2,0,0,0,6.9-.9Z" style="fill:#ac3d24"/><path id="path4188" d="M66.5,66.6a17.6,17.6,0,0,0,5.4-2.5,22.1,22.1,0,0,0-5.9.7l-3.6,1a28,28,0,0,0-6.5,2.8,28.3,28.3,0,0,0,7-1Z" style="fill:#ac3d24"/><path id="path4190" d="M60.7,65.8a34.6,34.6,0,0,0,3,7.3,39.5,39.5,0,0,0-1.1-7.9l-.8-3a17.9,17.9,0,0,0-2.4-5.1,20.1,20.1,0,0,0,.5,5.6Z" style="fill:#ac3d24"/></g></g></g></svg>