<svg xmlns="http://www.w3.org/2000/svg" width="85.8" height="86.7" viewBox="0 0 85.8 86.7"><g id="Layer_2" data-name="Layer 2"><g id="Layer_4" data-name="Layer 4"><g id="rabbit_toy_3" data-name="rabbit_toy 3"><path d="M40,68.3l-.7-.2c-2.9-.5-8.4-.9-12.6-1.2-14.5-1-17.5-1.4-17.5-4.5s2.7-3.5,15-4.4c-12.3-.9-15-1.4-15-4.3s2.7-3.5,15-4.4c-12.3-.9-15-1.4-15-4.3s3-3.6,17.5-4.6c4.6-.3,10.7-.7,13.3-1.3h3.1a1.5,1.5,0,0,1,1.5,1.5c0,3-2.7,3.5-15,4.3,12.3.9,15,1.4,15,4.4s-2.7,3.5-15.1,4.4c12.4.9,15.1,1.3,15.1,4.3s-2.7,3.5-15.1,4.4c12.4.9,15.1,1.3,15.1,4.3v.2a1.5,1.5,0,0,1-1.5,1.4Z" style="fill:#cecece"/><path d="M43.1,40.6c0,1.6-2.3,2-16.2,3-4.7.4-10.8.8-13.4,1.4,2.6.5,8.7.9,13.4,1.3,13.9.9,16.2,1.4,16.2,3s-2.3,2-16.2,3c-4.7.4-10.8.8-13.4,1.4,2.6.5,8.7.9,13.4,1.3,13.9,1,16.2,1.4,16.2,3s-2.3,2.1-16.2,3c-4.7.4-10.8.8-13.5,1.4,2.7.5,8.8.9,13.5,1.3,13.9,1,16.2,1.4,16.2,3H40.3c-2.7-.5-8.8-1-13.5-1.3-13.9-1-16.1-1.4-16.1-3s2.2-2.1,16.1-3.1c4.7-.3,10.8-.7,13.5-1.3-2.7-.5-8.8-1-13.5-1.3-13.9-1-16.1-1.4-16.1-3s2.2-2.1,16.1-3.1c4.7-.3,10.8-.7,13.5-1.3-2.7-.6-8.8-1-13.5-1.3-13.9-1-16.1-1.4-16.1-3s2.2-2.1,16.1-3.1c4.7-.3,10.8-.8,13.5-1.3h2.8m0-3H39.7c-2.5.5-8.6.9-13.1,1.2-6.7.5-11.1.9-13.6,1.3s-5.3,1-5.3,4.8,2.1,3.8,3.7,4.3c-1.6.5-3.7,1.6-3.7,4.4s2.1,3.8,3.7,4.3c-1.6.5-3.7,1.6-3.7,4.4s3.8,4.4,5.3,4.7,6.9.8,13.6,1.3c4,.3,9.3.7,12.2,1.1a2.7,2.7,0,0,0,1.2.3h3.1a3.1,3.1,0,0,0,3-2.9v-.2c0-2.7-2.1-3.8-3.8-4.3,1.7-.5,3.8-1.7,3.8-4.4s-2.1-3.8-3.8-4.3c1.7-.6,3.8-1.7,3.8-4.4s-2.1-3.8-3.8-4.4c1.7-.5,3.8-1.6,3.8-4.3a3,3,0,0,0-3-3Zm0,6Z" style="fill:#8d8d8d"/><path d="M25.6,77.4c-19.2,0-19.2-2.1-19.2-3.3V66.2c0-1.2,0-3.3,19.2-3.3S44.7,65,44.7,66.2v7.9C44.7,75.3,44.7,77.4,25.6,77.4Z" style="fill:#ec7670"/><path d="M25.6,64.4c9.7,0,17.6.8,17.6,1.8v7.9c0,1-7.9,1.8-17.6,1.8S7.9,75.1,7.9,74.1V66.2c0-1,7.9-1.8,17.7-1.8m0-3c-4.8,0-9.4.2-12.8.5s-7.9.8-7.9,4.3v7.9c0,3.5,4.2,3.9,7.9,4.3s8,.5,12.8.5,9.3-.2,12.8-.5,7.8-.8,7.8-4.3V66.2c0-3.5-4.1-3.9-7.8-4.3s-8-.5-12.8-.5Z" style="fill:#b53c3c"/><path d="M25.6,69.5c-19.2,0-19.2-2.1-19.2-3.3s0-3.3,19.2-3.3S44.7,65,44.7,66.2,44.7,69.5,25.6,69.5Z" style="fill:#ec7670"/><path d="M25.6,64.4c9.7,0,17.6.8,17.6,1.8S35.3,68,25.6,68,7.9,67.2,7.9,66.2s7.9-1.8,17.7-1.8m0-3c-4.8,0-9.4.2-12.8.5s-7.9.8-7.9,4.3,4.2,3.9,7.9,4.3,8,.5,12.8.5,9.3-.2,12.8-.5,7.8-.8,7.8-4.3-4.1-3.9-7.8-4.3-8-.5-12.8-.5Z" style="fill:#b53c3c"/><path d="M10.7,53.7c0-1.7,2.2-2.1,16.1-3.1,4.7-.3,10.8-.7,13.5-1.3-2.7-.6-8.8-1-13.5-1.3-13.9-1-16.1-1.4-16.1-3s2.2-2.1,16.1-3.1c4.7-.3,10.8-.8,13.5-1.3h2.8c0,1.6-2.3,2-16.2,3-4.7.4-10.8.8-13.4,1.4,2.6.5,8.7.9,13.4,1.3,13.9.9,16.2,1.4,16.2,3s-2.3,2-16.2,3c-4.7.4-10.8.8-13.4,1.4,2.6.5,8.7.9,13.4,1.3,13.9,1,16.2,1.4,16.2,3s-2.3,2.1-16.2,3c-4.7.4-10.8.8-13.5,1.4,2.7.5,8.8.9,13.5,1.3,13.9,1,16.2,1.4,16.2,3H40.3c-2.7-.5-8.8-1-13.5-1.3-13.9-1-16.1-1.4-16.1-3s2.2-2.1,16.1-3.1c4.7-.3,10.8-.7,13.5-1.3-2.7-.5-8.8-1-13.5-1.3C12.9,55.7,10.7,55.3,10.7,53.7Z" style="fill:#cecece"/><path d="M16.2,49.9A41.4,41.4,0,0,1,4.4,48.6L3.1,48a5.1,5.1,0,0,1-.9-1.3,11.2,11.2,0,0,1-.7-5h0A1.5,1.5,0,0,1,3,40.1H29.6l17.1.3a1.5,1.5,0,0,1,1.5,1.5v3.8a3.5,3.5,0,0,1-.6,2.2A3.4,3.4,0,0,1,45.2,49a73.4,73.4,0,0,1-8.1.5h-.7a3.1,3.1,0,0,1-1.5-.3l-.6-.3a5.8,5.8,0,0,1-1.3.4c-4.9.3-9.7.5-14.6.6Z" style="fill:#ffeb81"/><path d="M29.6,41.6l17.1.3v3.8a1.9,1.9,0,0,1-.3,1.3,1.7,1.7,0,0,1-1.4.5,69.8,69.8,0,0,1-7.9.5h-.7a2,2,0,0,1-1-.2c-.8-.3-1-1.2-1.2-2.1s-.1,1.5-.7,1.9l-.6.2-14.5.6H16.2A39.9,39.9,0,0,1,4.8,47.1a1.1,1.1,0,0,1-.7-.3,1.8,1.8,0,0,1-.5-.7C3,44.8,3,43.7,3,41.6H29.6m0-3H3a3,3,0,0,0-3,3v.2a11.4,11.4,0,0,0,.9,5.5,3.6,3.6,0,0,0,1.3,1.8A4.2,4.2,0,0,0,4,50a40.9,40.9,0,0,0,12.2,1.4h2.3l14.6-.6,1.1-.2h.1a4.7,4.7,0,0,0,2.1.4h.7a75.2,75.2,0,0,0,8.2-.5,4.2,4.2,0,0,0,3.4-1.7,4.3,4.3,0,0,0,1-3.1V41.9a3,3,0,0,0-3-3l-17.1-.3Z" style="fill:#ffaa5a"/><path d="M26.1,41.3A206.1,206.1,0,0,1,2.9,39.9a1.6,1.6,0,0,1-1.4-1.4A13.1,13.1,0,0,1,9.1,26.1a20.7,20.7,0,0,1,4-1.3l2.3-.7a7.4,7.4,0,0,0,4.2-3,11.8,11.8,0,0,0,.5-4.3c-.1-1.9-.1-4-.3-6.5a1.6,1.6,0,0,1,.8-1.4l.7-.2a1.6,1.6,0,0,1,.9.3c1.2.9,6.1,1.8,12.8,1.8S46.6,9.9,47.8,9a1.2,1.2,0,0,1,.9-.3l.7.2a1.6,1.6,0,0,1,.8,1.4c-.9,14.1-2,28.2-2,28.4A1.5,1.5,0,0,1,46.9,40,154.8,154.8,0,0,1,26.1,41.3Z" style="fill:#feb6d2"/><path d="M48.7,10.2c-.9,14.3-2,28.3-2,28.3a157.2,157.2,0,0,1-20.6,1.3A197.6,197.6,0,0,1,3,38.4a11.7,11.7,0,0,1,6.8-11c1.9-.8,4.1-1.2,6.1-1.9s4.1-1.8,5-3.8a11.5,11.5,0,0,0,.7-4.9c-.1-2.1-.2-4.4-.3-6.6,1.7,1.2,7.2,2.1,13.7,2.1s12-.9,13.7-2.1m-27.4-3a2.3,2.3,0,0,0-1.4.4,2.8,2.8,0,0,0-1.6,2.8c.2,2.4.2,4.5.3,6.5a9.4,9.4,0,0,1-.4,3.5c-.5,1.1-2.1,1.9-3.3,2.3l-2.2.6a34.5,34.5,0,0,0-4.2,1.4A14.9,14.9,0,0,0,0,38.6a3,3,0,0,0,2.7,2.8,211,211,0,0,0,23.4,1.4A156.4,156.4,0,0,0,47,41.5a3.2,3.2,0,0,0,2.7-2.7c0-.2,1.1-14.3,2-28.4a3.1,3.1,0,0,0-1.6-2.8,2.5,2.5,0,0,0-1.4-.4,2.8,2.8,0,0,0-1.8.6c-.7.5-4.7,1.5-11.9,1.5s-11.2-1-11.9-1.5a3.2,3.2,0,0,0-1.8-.6Zm27.4,6Z" style="fill:#fa789e"/><path d="M44.1,34.1a1.6,1.6,0,0,1-.4,1.3,5.3,5.3,0,0,1-3.1,1.2,18.9,18.9,0,0,1-4.2.3H28.7c-1.2-.3-1.4-1-.9-1.6a12.6,12.6,0,0,1,2.6-1.3,12.5,12.5,0,0,0,4.8-3.1c3-3.5.5-7.6,2.8-11.3a3.1,3.1,0,0,1,1-1c3.5-1.8,5.2,2.3,5.2,3.3.2,2.6,0,5.2,0,7.8S44.1,32.6,44.1,34.1Z" style="fill:#fc97b8"/><path d="M35,16.1c-3.7,0-15.7-.3-15.7-4.4A12.7,12.7,0,0,1,19,9.3c-.2-3.1-.2-3.2-.2-3.3,0-4.2,12.4-4.5,16.3-4.5S51.4,1.8,51.4,6c0,.2,0,.2-.4,3.4-.1,1.1-.3,2.1-.3,2.4C50.5,15.8,38.6,16.1,35,16.1Z" style="fill:#ffeb81"/><path d="M35.1,3c8.2,0,14.8,1.4,14.8,3s-.7,5.6-.7,5.7c0,1.6-6.4,2.9-14.2,2.9s-14.2-1.3-14.2-2.9c0-.1-.5-5.5-.5-5.7s6.6-3,14.8-3m0-3A51.3,51.3,0,0,0,24,1c-1.8.3-6.7,1.3-6.7,5,0,.2,0,.2.2,3.4a18.5,18.5,0,0,0,.3,2.4c.1,3.8,5.9,5.8,17.2,5.8s17-1.9,17.2-5.7c0-.3.2-1.3.3-2.3.4-3.3.4-3.3.4-3.6,0-3.7-4.9-4.7-6.7-5A51.9,51.9,0,0,0,35.1,0Z" style="fill:#ffaa5a"/><ellipse cx="35.1" cy="6.1" rx="11.6" ry="2.1" style="fill:#ffaa5a"/><path d="M73,76a1.1,1.1,0,0,1-.8-.2c-2.9-.4-8.4-.8-12.6-1.1-14.4-1.1-17.5-1.4-17.5-4.6s2.7-3.4,15.1-4.3c-12.4-.9-15.1-1.4-15.1-4.4s2.7-3.4,15-4.3c-12.3-.9-15-1.4-15-4.4s3.1-3.5,17.5-4.5c4.6-.3,10.8-.8,13.3-1.3H76a1.4,1.4,0,0,1,1.5,1.5c0,3-2.7,3.4-15,4.3,12.3.9,15,1.4,15,4.4s-2.7,3.4-15,4.3c12.3.9,15,1.4,15,4.4s-2.7,3.4-15.1,4.3c12.4.9,15.1,1.4,15.1,4.4h0A1.5,1.5,0,0,1,76,76Z" style="fill:#cecece"/><path d="M76,48.4c0,1.6-2.2,2-16.1,3-4.7.3-10.8.8-13.5,1.3,2.7.6,8.8,1,13.5,1.3C73.8,55,76,55.5,76,57.1s-2.2,2-16.1,3c-4.7.3-10.8.8-13.5,1.3,2.7.6,8.8,1,13.5,1.3,13.9,1,16.1,1.5,16.1,3.1s-2.2,2-16.1,3c-4.7.4-10.8.8-13.5,1.3,2.7.6,8.8,1,13.5,1.4,13.9.9,16.1,1.4,16.1,3H73.2c-2.6-.6-8.7-1-13.4-1.3-13.9-1-16.2-1.4-16.2-3.1s2.3-2,16.2-3c4.7-.3,10.8-.8,13.4-1.3-2.6-.6-8.7-1-13.4-1.3-13.9-1-16.2-1.4-16.2-3.1s2.3-2,16.2-3c4.7-.3,10.8-.8,13.4-1.3-2.6-.6-8.8-1-13.5-1.3-13.8-1-16.1-1.4-16.1-3.1s2.3-2,16.1-3c4.7-.3,10.9-.8,13.5-1.3H76m0-3H72.6c-2.4.5-8.6,1-13,1.3-6.8.5-11.1.8-13.7,1.3s-5.3,1-5.3,4.7,2.1,3.9,3.8,4.4c-1.7.5-3.8,1.6-3.8,4.3s2.1,3.9,3.8,4.4c-1.7.5-3.8,1.6-3.8,4.3s3.9,4.5,5.3,4.7,6.9.9,13.6,1.4c4,.3,9.4.6,12.2,1.1a2.7,2.7,0,0,0,1.3.2h3a2.9,2.9,0,0,0,3-2.8v-.2c0-2.7-2.1-3.9-3.8-4.4,1.7-.5,3.8-1.6,3.8-4.3s-2.1-3.9-3.8-4.4c1.7-.5,3.8-1.6,3.8-4.3s-2.1-3.9-3.8-4.4c1.7-.5,3.8-1.6,3.8-4.3a2.9,2.9,0,0,0-3-3Zm0,6Z" style="fill:#8d8d8d"/><path d="M58.5,85.2c-19.1,0-19.1-2.2-19.1-3.3V74c0-1.2,0-3.3,19.1-3.3S77.7,72.8,77.7,74v7.9C77.7,83,77.7,85.2,58.5,85.2Z" style="fill:#ec7670"/><path d="M58.5,72.2c9.8,0,17.7.8,17.7,1.8v7.9c0,1-7.9,1.8-17.7,1.8s-17.6-.8-17.6-1.8V74c0-1,7.9-1.8,17.6-1.8m0-3c-4.8,0-9.3.2-12.8.5s-7.8.8-7.8,4.3v7.9c0,3.4,4.1,3.9,7.8,4.3s8,.5,12.8.5,9.4-.2,12.8-.5,7.9-.9,7.9-4.3V74c0-3.5-4.2-3.9-7.9-4.3s-8-.5-12.8-.5Z" style="fill:#b53c3c"/><path d="M58.5,77.3c-19.1,0-19.1-2.2-19.1-3.3s0-3.3,19.1-3.3S77.7,72.8,77.7,74,77.7,77.3,58.5,77.3Z" style="fill:#ec7670"/><path d="M58.5,72.2c9.8,0,17.7.8,17.7,1.8s-7.9,1.8-17.7,1.8S40.9,75,40.9,74s7.9-1.8,17.6-1.8m0-3c-4.8,0-9.3.2-12.8.5s-7.8.8-7.8,4.3,4.1,3.9,7.8,4.2a118.3,118.3,0,0,0,12.8.6,117,117,0,0,0,12.8-.6c3.7-.3,7.9-.8,7.9-4.2s-4.2-3.9-7.9-4.3-8-.5-12.8-.5Z" style="fill:#b53c3c"/><path d="M43.6,61.4c0-1.6,2.3-2,16.2-3,4.7-.3,10.8-.8,13.4-1.3-2.6-.6-8.8-1-13.5-1.3-13.8-1-16.1-1.4-16.1-3.1s2.3-2,16.1-3c4.7-.3,10.9-.8,13.5-1.3H76c0,1.6-2.2,2-16.1,3-4.7.3-10.8.8-13.5,1.3,2.7.6,8.8,1,13.5,1.3C73.8,55,76,55.5,76,57.1s-2.2,2-16.1,3c-4.7.3-10.8.8-13.5,1.3,2.7.6,8.8,1,13.5,1.3,13.9,1,16.1,1.5,16.1,3.1s-2.2,2-16.1,3c-4.7.4-10.8.8-13.5,1.3,2.7.6,8.8,1,13.5,1.4,13.9.9,16.1,1.4,16.1,3H73.2c-2.6-.6-8.7-1-13.4-1.3-13.9-1-16.2-1.4-16.2-3.1s2.3-2,16.2-3c4.7-.3,10.8-.8,13.4-1.3-2.6-.6-8.7-1-13.4-1.3C45.9,63.5,43.6,63.1,43.6,61.4Z" style="fill:#cecece"/><path d="M49.1,57.7a45.8,45.8,0,0,1-11.8-1.3,4.5,4.5,0,0,1-1.2-.6,3.4,3.4,0,0,1-.9-1.3c-.8-1.6-.8-2.9-.8-5h0a1.5,1.5,0,0,1,1.5-1.5H62.5l17.1.3a1.5,1.5,0,0,1,1.5,1.5v3.8a3.5,3.5,0,0,1-.6,2.2,3.2,3.2,0,0,1-2.4,1.1,73.4,73.4,0,0,1-8.1.5h-.6a3.4,3.4,0,0,1-1.6-.3l-.6-.3a2.4,2.4,0,0,1-1.3.3c-4.8.4-9.7.6-14.5.7Z" style="fill:#ffeb81"/><path d="M62.5,49.4l17.1.3v3.8a2.1,2.1,0,0,1-.3,1.3,1.7,1.7,0,0,1-1.4.5,68.4,68.4,0,0,1-7.9.5h-.6a1.6,1.6,0,0,1-1-.2c-.8-.3-1.1-1.3-1.3-2.1s-.1,1.5-.7,1.9h-.6c-4.8.4-9.6.6-14.4.7H49.1a38.9,38.9,0,0,1-11.3-1.3c-.3-.1-.6-.1-.8-.3l-.5-.7a10.2,10.2,0,0,1-.6-4.5H62.5m0-3H35.9a3,3,0,0,0-3,3h0a11.6,11.6,0,0,0,.9,5.6,4.4,4.4,0,0,0,1.3,1.8,4.9,4.9,0,0,0,1.8.9,45.3,45.3,0,0,0,12.2,1.4h2.3c4.9-.1,9.8-.3,14.6-.7a2.3,2.3,0,0,0,1.1-.2h.1a5.1,5.1,0,0,0,2.2.4H70a77,77,0,0,0,8.3-.5,5.1,5.1,0,0,0,3.4-1.7,4.9,4.9,0,0,0,.9-3.1V49.7a3,3,0,0,0-2.9-3l-17.1-.3Z" style="fill:#ffaa5a"/><path d="M59.1,49.1a207.8,207.8,0,0,1-23.3-1.4,1.5,1.5,0,0,1-1.3-1.4,12.9,12.9,0,0,1,7.6-12.4A19.8,19.8,0,0,1,46,32.6l2.4-.7c2.1-.8,3.5-1.8,4.1-3.1a8.3,8.3,0,0,0,.5-4.2c0-2-.1-4.1-.3-6.5a1.5,1.5,0,0,1,.8-1.4,1,1,0,0,1,.7-.2,1.2,1.2,0,0,1,.9.3c1.3.9,6.2,1.8,12.8,1.8s11.6-.9,12.8-1.8a1.6,1.6,0,0,1,.9-.3.8.8,0,0,1,.7.2,1.5,1.5,0,0,1,.8,1.4c-.8,14.1-2,28.2-2,28.3a1.6,1.6,0,0,1-1.3,1.4A172.9,172.9,0,0,1,59.1,49.1Z" style="fill:#feb6d2"/><path d="M81.6,18c-.8,14.3-2,28.3-2,28.3a155.7,155.7,0,0,1-20.5,1.3A196.2,196.2,0,0,1,36,46.2a11.7,11.7,0,0,1,6.7-11c2-.9,4.1-1.2,6.1-1.9s4.1-1.9,5-3.8a9.1,9.1,0,0,0,.7-4.9q0-3.3-.3-6.6c1.7,1.2,7.2,2.1,13.7,2.1s12-.9,13.7-2.1M54.2,15a3.5,3.5,0,0,0-1.4.3,3.1,3.1,0,0,0-1.5,2.9c.1,2.4.2,4.5.2,6.4a8.1,8.1,0,0,1-.3,3.6c-.6,1.1-2.1,1.8-3.3,2.3l-2.3.6a39.9,39.9,0,0,0-4.1,1.4A14.4,14.4,0,0,0,33,46.4a3.1,3.1,0,0,0,2.6,2.8,211.3,211.3,0,0,0,23.5,1.4A176.3,176.3,0,0,0,80,49.3a3,3,0,0,0,2.6-2.7c0-.2,1.2-14.3,2-28.4A3,3,0,0,0,83,15.3a3.2,3.2,0,0,0-1.4-.3,4.1,4.1,0,0,0-1.8.5c-.7.5-4.7,1.6-11.9,1.6S56.7,16,56,15.5a3.5,3.5,0,0,0-1.8-.5Zm27.4,6Z" style="fill:#fa789e"/><path d="M77.1,41.9a2.2,2.2,0,0,1-.4,1.3,5.9,5.9,0,0,1-3.1,1.2,29.7,29.7,0,0,1-4.2.3H61.6c-1.2-.3-1.4-1.1-.8-1.6a9,9,0,0,1,2.6-1.3,12.4,12.4,0,0,0,4.7-3.1c3-3.6.5-7.6,2.8-11.3a2.7,2.7,0,0,1,1.1-1c3.5-1.8,5.1,2.2,5.2,3.2.1,2.7-.1,5.3-.1,7.9Z" style="fill:#fc97b8"/><path d="M67.9,23.9c-3.7,0-15.7-.4-15.7-4.5L52,17c-.3-3-.3-3.1-.3-3.2,0-4.2,12.5-4.5,16.3-4.5s16.3.3,16.3,4.5c0,.2,0,.2-.4,3.4a14.1,14.1,0,0,1-.3,2.3C83.5,23.5,71.6,23.9,67.9,23.9Z" style="fill:#ffeb81"/><path d="M68,10.8c8.2,0,14.8,1.3,14.8,3,0,.2-.6,5.5-.6,5.6,0,1.7-6.4,3-14.3,3s-14.2-1.3-14.2-3l-.5-5.6c0-1.7,6.6-3,14.8-3m0-3a60,60,0,0,0-11.1.9c-1.8.4-6.7,1.4-6.7,5.1,0,.2,0,.2.3,3.4.1,1.1.2,2.1.2,2.4.1,3.8,5.9,5.8,17.2,5.8s17-2,17.2-5.7a22.3,22.3,0,0,0,.3-2.3c.4-3.3.4-3.3.4-3.6,0-3.7-4.9-4.7-6.7-5.1A59.3,59.3,0,0,0,68,7.8Z" style="fill:#ffaa5a"/><ellipse cx="68" cy="13.9" rx="11.6" ry="2.1" style="fill:#ffaa5a"/></g></g></g></svg>