<svg xmlns="http://www.w3.org/2000/svg" xmlns:xlink="http://www.w3.org/1999/xlink" width="86" height="55.2" viewBox="0 0 86 55.2"><defs><clipPath id="clip-path"><ellipse cx="43" cy="15.9" rx="30.3" ry="10.7" style="fill:none"/></clipPath></defs><g id="Layer_2" data-name="Layer 2"><g id="Layer_4" data-name="Layer 4"><g id="rabbit_toy_2" data-name="rabbit_toy 2"><path d="M35.8,44.4a4.7,4.7,0,0,1-4.7-4.7V23.1a4.7,4.7,0,0,1,4.7-4.7h.4a1.5,1.5,0,0,1,0,3,.3.3,0,0,0-.3.3V39.6c0,.1.1.2.3.2H49.8a.3.3,0,0,0,.3-.3V21.7a.3.3,0,0,0-.3-.3,1.5,1.5,0,0,1,0-3h.4a4.7,4.7,0,0,1,4.7,4.7V39.8a4.7,4.7,0,0,1-4.7,4.7Z" style="fill:#ffaa5a"/><path d="M50.2,19.9a3.2,3.2,0,0,1,3.2,3.2V39.8A3.2,3.2,0,0,1,50.2,43H35.8a3.2,3.2,0,0,1-3.2-3.2V23.1a3.2,3.2,0,0,1,3.2-3.2h.4a1.8,1.8,0,0,0-1.8,1.8V39.6a1.8,1.8,0,0,0,1.8,1.7H49.8a1.8,1.8,0,0,0,1.8-1.8V21.7a1.8,1.8,0,0,0-1.8-1.8h.4m0-3h-.4a3.1,3.1,0,0,0-3,3,3.3,3.3,0,0,0,1.8,2.8V38.4H37.4V22.7a3.3,3.3,0,0,0,1.8-2.8,3.1,3.1,0,0,0-3-3h-.4a6.2,6.2,0,0,0-6.2,6.2V39.7a6.2,6.2,0,0,0,6.2,6.2H50.2a6.2,6.2,0,0,0,6.2-6.2V23.1a6.2,6.2,0,0,0-6.2-6.2Z" style="fill:#e57225"/><path d="M23.4,53.7h-.3L10.5,50.2c-2.5-.7-3.8-2.3-3.8-4.6V28.9a4.5,4.5,0,0,1,4.2-4.6h.3a1.5,1.5,0,0,1,0,3c.1,0,0,.1,0,.3v18l.4.2,11.6,3.3V27.6a.4.4,0,0,0-.1-.3,1.5,1.5,0,0,1,0-3h.3a4.5,4.5,0,0,1,4.3,4.6V49A4.5,4.5,0,0,1,23.4,53.7Z" style="fill:#ffaa5a"/><path d="M23.4,25.8a2.9,2.9,0,0,1,2.8,3.1V49a3,3,0,0,1-2.8,3.2L10.9,48.8c-1.5-.5-2.7-1.4-2.7-3.2V28.9a2.9,2.9,0,0,1,2.7-3.1h.3a1.7,1.7,0,0,0-1.5,1.8V45.4a1.8,1.8,0,0,0,1.5,1.8l11.9,3.4a1.7,1.7,0,0,0,1.6-1.8V27.6a1.7,1.7,0,0,0-1.6-1.8h.3m0-3h-.3a3,3,0,0,0-3,3,3.1,3.1,0,0,0,1.6,2.6V47.1l-9-2.6V28.4a3,3,0,0,0,1.5-2.6,2.9,2.9,0,0,0-3-3h-.3a6,6,0,0,0-5.7,6.1V45.6a6.2,6.2,0,0,0,4.9,6.1l12.6,3.4h.7A6,6,0,0,0,29.2,49V28.9a6,6,0,0,0-5.8-6.1Z" style="fill:#e57225"/><path d="M62.5,53.7A4.6,4.6,0,0,1,58.2,49V28.9a4.5,4.5,0,0,1,4.3-4.6h.3a1.5,1.5,0,0,1,0,3c.1,0,0,.1,0,.3V49.1l11.4-3.3.6-.3V27.6a.4.4,0,0,0-.1-.3,1.5,1.5,0,0,1,0-3H75a4.5,4.5,0,0,1,4.3,4.6V45.6c0,1.3-.5,3.5-3.8,4.6L62.9,53.6Z" style="fill:#ffaa5a"/><path d="M75,25.8a2.9,2.9,0,0,1,2.8,3.1V45.6c0,1.8-1.3,2.7-2.8,3.2L62.5,52.2A3,3,0,0,1,59.7,49V28.9a3,3,0,0,1,2.8-3.1h.3a1.7,1.7,0,0,0-1.5,1.8V48.8a1.7,1.7,0,0,0,1.5,1.8l11.9-3.4c1.1-.4,1.6-.8,1.6-1.8V27.6a1.7,1.7,0,0,0-1.6-1.8H75m0-3h-.3a3,3,0,0,0-3,3,3.1,3.1,0,0,0,1.6,2.6V44.5l-9,2.6V28.4a3,3,0,0,0,1.5-2.6,2.9,2.9,0,0,0-3-3h-.3a6,6,0,0,0-5.8,6.1V49a6,6,0,0,0,5.8,6.2h.8l12.5-3.4H76c3.1-1,4.8-3.2,4.8-6V28.9A6,6,0,0,0,75,22.8Z" style="fill:#e57225"/><path d="M83,19.5c0,7.8-17.9,14.2-40,14.2S3,27.3,3,19.5V17.2C3.4,9.5,21.2,5.3,43,5.3S82.7,9.4,83,17.2Z" style="fill:#ffaa5a"/><ellipse cx="43" cy="17.2" rx="40" ry="14.2" style="fill:#ffeb81"/><g style="clip-path:url(#clip-path)"><ellipse cx="43" cy="15.9" rx="30.3" ry="10.7" style="fill:#feb6d2"/><ellipse cx="43" cy="15.9" rx="26.3" ry="9.3" style="fill:#f9e4e4"/></g><path d="M43,5.3C26.2,5.3,12.7,10,12.7,15.9a5,5,0,0,0,.8,2.6,5.9,5.9,0,0,1-.2-1.3C13.3,11.3,26.6,6.5,43,6.5s29.6,4.8,29.6,10.7a3,3,0,0,1-.2,1.3,4.3,4.3,0,0,0,.9-2.6C73.3,10,59.7,5.3,43,5.3Z" style="fill:#ffaa5a"/><path d="M47.8,19.5c0,2.4-2.1,2.4-4.8,2.4s-4.9,0-4.9-2.4a6,6,0,0,1,1.7-3.9,4.9,4.9,0,0,1,2.4-1.4c-.2-1.7-.8-3-1.5-3a1,1,0,0,0-.8.5c.3-1.1.8-1.8,1.4-1.8S43,11.7,43,14h0c0-2.3.7-4.1,1.7-4.1s1.1.7,1.4,1.8a1,1,0,0,0-.8-.5c-.8,0-1.4,1.3-1.5,3a4.9,4.9,0,0,1,2.4,1.4A5.9,5.9,0,0,1,47.8,19.5Z" style="fill:#f9e4e4"/><path d="M46.2,15.4H46A3.9,3.9,0,0,0,43.8,14c-.2-.1-.2-.2-.2-.3.1-1.9.8-3.2,1.7-3.2s.6.1,1,.7h0a8.5,8.5,0,0,1,.3,2.3,4.2,4.2,0,0,1-.2,1.7.2.2,0,0,1-.2.2Z" style="fill:#f9e4e4"/><path d="M45.3,10.7a.9.9,0,0,1,.8.6,7.3,7.3,0,0,1,.3,2.2,6.5,6.5,0,0,1-.2,1.7,4.9,4.9,0,0,0-2.4-1.4c.1-1.8.7-3.1,1.5-3.1m0-.4c-1.2,0-1.9,1.7-2,3.4a.7.7,0,0,0,.4.5,4.5,4.5,0,0,1,2.1,1.2l.4.2h.1l.3-.3a4.5,4.5,0,0,0,.3-1.8,8.5,8.5,0,0,0-.3-2.3h-.1a1.3,1.3,0,0,0-1.2-.8Z" style="fill:#fc97b8"/><path d="M39.8,15.4h-.1a.3.3,0,0,1-.1-.2,3.7,3.7,0,0,1-.3-1.7,8.5,8.5,0,0,1,.3-2.3h.1a1.1,1.1,0,0,1,1-.7c.9,0,1.6,1.3,1.7,3.2,0,.2-.1.2-.2.3A4.2,4.2,0,0,0,40,15.3Z" style="fill:#f9e4e4"/><path d="M40.7,10.7c.7,0,1.3,1.3,1.5,3.1a4.9,4.9,0,0,0-2.4,1.4,6.5,6.5,0,0,1-.2-1.7,7.3,7.3,0,0,1,.3-2.2.9.9,0,0,1,.8-.6m0-.4a1.6,1.6,0,0,0-1.3.8h0a8.5,8.5,0,0,0-.3,2.3,7.4,7.4,0,0,0,.2,1.8c.1.2.2.3.4.3h.5a3.9,3.9,0,0,1,2.1-1.3.5.5,0,0,0,.3-.5c-.1-1.7-.7-3.4-1.9-3.4Z" style="fill:#fc97b8"/><path d="M42.5,19.8c0-.3.2-.3.5-.3s.5,0,.5.3a.5.5,0,0,1-1,0Z" style="fill:#fc97b8"/><path d="M41.7,19.5a.6.6,0,1,1-.6-.6A.6.6,0,0,1,41.7,19.5Z" style="fill:#fc97b8"/><path d="M44.3,19.5a.6.6,0,0,0,.6.6.6.6,0,1,0,0-1.2A.6.6,0,0,0,44.3,19.5Z" style="fill:#fc97b8"/><path d="M44.7,9.9c.6,0,1.1.7,1.4,1.8a8.5,8.5,0,0,1,.3,2.3,6.3,6.3,0,0,1-.2,1.6,5.9,5.9,0,0,1,1.6,3.9c0,2.4-2,2.4-4.6,2.4h-.4c-2.6,0-4.7,0-4.7-2.4a6,6,0,0,1,1.7-3.9,6.3,6.3,0,0,1-.2-1.6,8.5,8.5,0,0,1,.3-2.3c.3-1.1.8-1.8,1.4-1.8S43,11.7,43,14h0c0-2.3.7-4.1,1.7-4.1m0-.6A1.8,1.8,0,0,0,43,10.5a1.9,1.9,0,0,0-1.7-1.2c-1,0-1.7.8-2.1,2.3a8.8,8.8,0,0,0-.3,2.4,7.1,7.1,0,0,0,.1,1.5,6.1,6.1,0,0,0-1.6,4,2.5,2.5,0,0,0,1.8,2.7,10.2,10.2,0,0,0,3.6.4h.4a10.2,10.2,0,0,0,3.6-.4,2.5,2.5,0,0,0,1.8-2.7A6.6,6.6,0,0,0,47,15.4a5.7,5.7,0,0,0,.1-1.4,8.8,8.8,0,0,0-.3-2.4c-.4-1.5-1.2-2.3-2.1-2.3Z" style="fill:#fc97b8"/><path d="M43,3C65.1,3,83,9.4,83,17.2v2.3c0,7.8-17.9,14.2-40,14.2S3,27.3,3,19.5V17.2C3,9.4,20.9,3,43,3m0-3C32,0,21.6,1.5,13.7,4.3,2.4,8.3,0,13.5,0,17.2v2.3c0,3.6,2.4,8.8,13.7,12.8C21.6,35.1,32,36.7,43,36.7s21.4-1.6,29.3-4.4C83.6,28.3,86,23.1,86,19.5V17.2h0c0-3.6-2.4-8.8-13.7-12.9C64.4,1.5,54,0,43,0Z" style="fill:#e57225"/></g></g></g></svg>