<svg xmlns="http://www.w3.org/2000/svg" xmlns:xlink="http://www.w3.org/1999/xlink" width="123.5" height="61.3" viewBox="0 0 123.5 61.3"><defs><clipPath id="clip-path" transform="translate(21 0.7)"><path d="M83.1,38.5A8.6,8.6,0,0,0,81,34.6c-3.6-4.3-4.9-8.9-8-14S65.7,10.3,60.9,7.4A30.6,30.6,0,0,0,39.4,3.5a34,34,0,0,0-8,2.6l-1,.5a39.7,39.7,0,0,0-12,9.2c-3.8,4-5.3,8.2-8.4,13.5C8.4,32,4.8,37.8,3,39.5H83.1c0-.2.1-.3.1-.5A.9.9,0,0,0,83.1,38.5Z" style="fill:none"/></clipPath><clipPath id="clip-path-2" transform="translate(21 0.7)"><path d="M44.3,11.9c-13.9,0-25.5,11.8-28.8,27.8H73.2C69.9,23.7,58.2,11.9,44.3,11.9Z" style="fill:none"/></clipPath><clipPath id="clip-path-3" transform="translate(21 0.7)"><rect x="4.8" y="2.3" width="71.7" height="40.59" style="fill:none"/></clipPath></defs><g style="isolation:isolate"><g id="Layer_2" data-name="Layer 2"><g id="Layer_4" data-name="Layer 4"><g id="rabbit_toy_4" data-name="rabbit_toy 4"><path d="M43.1,59.2C19.8,59.2,1.5,51,1.5,40.6a3.4,3.4,0,0,1,.1-1A1.3,1.3,0,0,1,3,38.3H83.2a1.4,1.4,0,0,1,1.5,1.3,3.4,3.4,0,0,1,.1,1C84.8,51,66.5,59.2,43.1,59.2Z" transform="translate(21 0.7)" style="fill:#af7553"/><path d="M83.2,39.8a1.9,1.9,0,0,1,.1.8c0,9.4-18,17.1-40.2,17.1S3,50,3,40.6v-.8H83.2m0-3H3A2.9,2.9,0,0,0,.1,39.5,4.1,4.1,0,0,0,0,40.6c0,5.8,4.8,11.1,13.6,14.8S32,60.7,43.1,60.7c24.6,0,43.2-8.7,43.2-20.1a4.1,4.1,0,0,0-.1-1.1,2.9,2.9,0,0,0-3-2.7Z" transform="translate(21 0.7)" style="fill:#924f28"/><g style="clip-path:url(#clip-path)"><path d="M84.5,38.5a8.8,8.8,0,0,0-2.6-4.1c-4.2-3.1-5.8-8.7-8.9-13.8S65.7,10.3,60.9,7.4A30.6,30.6,0,0,0,39.4,3.5a34,34,0,0,0-8,2.6l-1,.5a39.7,39.7,0,0,0-12,9.2c-3.8,4-6,9.1-9.6,13.5C6.9,31.6,2.2,37.8.3,39.5H84.4a.9.9,0,0,0,.1-.5C84.6,38.8,84.5,38.7,84.5,38.5Z" transform="translate(21 0.7)" style="fill:#96b85c"/><path d="M84.5,39a.9.9,0,0,1-.1.5H.3c1.9-1.7,6.6-7.9,8.5-10.2a.1.1,0,0,1,.1-.1c-.7,1.4-1.5,2.8-2.3,4.2h.1c.9-.6,1.5-1.8,2.3-2.6a8.5,8.5,0,0,1-1,1.9c-.1,0,0,.1,0,.1a7.1,7.1,0,0,0,2-2.2,28,28,0,0,1-1.4,2.5h0a3,3,0,0,0,1.7-.8A9.8,9.8,0,0,0,11.5,31c.5-.5.7-1.1,1.2-1.7s1.1-1.4,1.6-2.2c3.6-5.2,6.8-10.6,11.4-14.1A35.9,35.9,0,0,1,39.5,7.3l2-.4,1.9-.2h1.8l1.7.2h.7a1.9,1.9,0,0,0-1-1.3,8.1,8.1,0,0,1,2.2.7h.1a4.9,4.9,0,0,0-1.4-1.1,4.1,4.1,0,0,1,1.7.5h0l-.7-.6a18.3,18.3,0,0,1,2.5.8s.1-.1,0-.1a4.2,4.2,0,0,0-1.8-1.7l-1-.4A29.8,29.8,0,0,1,60.9,7.4c4.8,2.9,8.7,7.5,12.1,13.2s4.7,10.7,8.9,13.8a8.8,8.8,0,0,1,2.6,4.1C84.5,38.7,84.6,38.8,84.5,39Z" transform="translate(21 0.7)" style="fill:#96b85c;mix-blend-mode:multiply;opacity:0.61"/><path d="M78.8,33a.1.1,0,0,1-.1.1,7.8,7.8,0,0,0-1.1-1.8,9.5,9.5,0,0,1,.6,2h0c-.5-.8-.9-1.5-1.6-1.7s.8,1.4,1.1,2.2h0a3.9,3.9,0,0,0-2-1.2,10.1,10.1,0,0,0,1.3.9,3.2,3.2,0,0,1,1.1,1.2c0,.1,0,.1-.1.1l-2.5-.2h-.6a6,6,0,0,0-1.9,0l-.9.2h-.3v.2l.4.3c.5.4,1.1.5,1.6.9s.1.1,0,.1-1.6.1-2.4.2l-2.6.4-2.6.6-5.1,1.4a14.2,14.2,0,0,0,3.5.3h3.7c2.4.1,4.7,0,7,0h9c1,0-.8,0,.1.1a.1.1,0,0,1,.1-.1c0-.1.1-.1.1-.2v-.4a10.9,10.9,0,0,0-2.6-4.5,21,21,0,0,1-4.4-4.9A18.9,18.9,0,0,0,78.8,33Z" transform="translate(21 0.7)" style="fill:#96b85c;mix-blend-mode:multiply;opacity:0.61"/><path d="M25.5,23.4h0a.1.1,0,0,0-.1.1h0c.1,0,0,0,0-.1h.1Z" transform="translate(21 0.7)" style="fill:#fff"/><polygon points="46.4 24.2 46.4 24.2 46.4 24.2 46.4 24.2" style="fill:#faf06f"/><path d="M25.4,23.5Z" transform="translate(21 0.7)" style="fill:#faf06f"/><polygon points="46.4 24.2 46.4 24.2 46.4 24.2 46.4 24.2" style="fill:#faf06f"/><path d="M26.6,21.3h-.2c0,.1.1,0,.1,0h.1Z" transform="translate(21 0.7)" style="fill:#fff"/><polygon points="47.5 22.1 47.5 22.1 47.5 22.1 47.5 22.1" style="fill:#faf06f"/><path d="M26.5,21.4Z" transform="translate(21 0.7)" style="fill:#faf06f"/><polygon points="47.5 22.1 47.5 22.1 47.5 22.1 47.5 22.1" style="fill:#faf06f"/><path d="M27,22.6h-.1a.1.1,0,0,0-.1.1h0s-.1.1,0,.1h0a.1.1,0,0,0,.1.1H27Z" transform="translate(21 0.7)" style="fill:#fff"/><polygon points="47.9 23.3 47.9 23.3 47.9 23.3 47.9 23.3" style="fill:#faf06f"/><path d="M26.9,22.6Z" transform="translate(21 0.7)" style="fill:#faf06f"/><polygon points="47.9 23.3 47.9 23.3 47.9 23.3 47.9 23.3" style="fill:#faf06f"/><path d="M19.3,32.2H19a.1.1,0,0,0,.1.1h0c.1,0,.1.1.1,0h.1Z" transform="translate(21 0.7)" style="fill:#fff"/><polygon points="40.2 33 40.2 33 40.2 33 40.2 33" style="fill:#faf06f"/><path d="M19.2,32.3Z" transform="translate(21 0.7)" style="fill:#faf06f"/><polygon points="40.2 33 40.2 33 40.2 33 40.2 33" style="fill:#faf06f"/><path d="M20.4,30.1h-.1a.1.1,0,0,0-.1.1h0c0,.1-.1.1,0,.1h.2Z" transform="translate(21 0.7)" style="fill:#fff"/><polygon points="41.3 30.9 41.3 30.9 41.3 30.9 41.3 30.9" style="fill:#faf06f"/><path d="M20.3,30.2Z" transform="translate(21 0.7)" style="fill:#faf06f"/><polygon points="41.3 30.9 41.3 30.9 41.3 30.9 41.3 30.9" style="fill:#faf06f"/><path d="M21,32.2h-.1s.1-.1,0-.1h0c-.1,0-.1,0-.1.1s.1,0,.1-.1H21Z" transform="translate(21 0.7)" style="fill:#fff"/><polygon points="41.9 32.9 41.9 32.9 41.9 32.9 41.9 32.9" style="fill:#faf06f"/><path d="M20.9,32.2Z" transform="translate(21 0.7)" style="fill:#faf06f"/><polygon points="41.9 32.9 41.9 32.9 41.9 32.9 41.9 32.9" style="fill:#faf06f"/><path d="M20.7,31.4h-.2c0,.1,0,.1.1.1a.1.1,0,0,0-.1.1c.1,0,.1,0,.1-.1h0c.1,0,.1,0,.1-.1h0Z" transform="translate(21 0.7)" style="fill:#fff"/><polygon points="41.6 32.1 41.6 32.1 41.6 32.1 41.6 32.1" style="fill:#faf06f"/><path d="M20.7,31.4h-.1c0-.1,0-.1.1-.1Z" transform="translate(21 0.7)" style="fill:#faf06f"/><polygon points="41.6 32.1 41.6 32.1 41.6 32.1 41.6 32.1" style="fill:#faf06f"/><path d="M32.4,13.6h-.1c.1,0,.1-.1,0-.1h-.1c0,.1,0,0,.1,0h.1Z" transform="translate(21 0.7)" style="fill:#fff"/><polygon points="53.3 14.3 53.3 14.3 53.3 14.3 53.3 14.3" style="fill:#faf06f"/><path d="M32.3,13.6Z" transform="translate(21 0.7)" style="fill:#faf06f"/><polygon points="53.3 14.3 53.3 14.3 53.3 14.3 53.3 14.3" style="fill:#faf06f"/><path d="M33.8,11.9h0C33.9,12,33.9,11.9,33.8,11.9Z" transform="translate(21 0.7)" style="fill:#fff"/><polygon points="54.7 12.6 54.7 12.6 54.7 12.6 54.7 12.6" style="fill:#faf06f"/><path d="M33.8,12h0Z" transform="translate(21 0.7)" style="fill:#faf06f"/><polygon points="54.7 12.6 54.7 12.6 54.7 12.6 54.7 12.6" style="fill:#faf06f"/><path d="M34.1,14.1h-.2a.1.1,0,0,0,.1-.1h.1Z" transform="translate(21 0.7)" style="fill:#fff"/><polygon points="55 14.8 55 14.8 55 14.8 55 14.8" style="fill:#faf06f"/><path d="M34,14.2Z" transform="translate(21 0.7)" style="fill:#faf06f"/><polygon points="55 14.8 55 14.8 55 14.8 55 14.8" style="fill:#faf06f"/><path d="M34,13.3c0-.1,0-.1-.1-.1H34Z" transform="translate(21 0.7)" style="fill:#fff"/><polygon points="54.9 13.9 54.9 13.9 54.9 13.9 54.9 13.9" style="fill:#faf06f"/><path d="M33.9,13.3Z" transform="translate(21 0.7)" style="fill:#faf06f"/><polygon points="54.9 13.9 54.9 13.9 54.9 13.9 54.9 13.9" style="fill:#faf06f"/><path d="M41.9,7.9h-.1c.1,0,.1-.1,0-.1h.1Z" transform="translate(21 0.7)" style="fill:#fff"/><polygon points="62.8 8.6 62.8 8.6 62.8 8.6 62.8 8.6" style="fill:#faf06f"/><path d="M41.8,8h0Z" transform="translate(21 0.7)" style="fill:#faf06f"/><polygon points="62.8 8.6 62.8 8.6 62.8 8.6 62.8 8.6" style="fill:#faf06f"/><path d="M44.1,5.5H44c.1,0,.1-.1,0-.1h0c.1-.1,0-.1,0-.1h.1Z" transform="translate(21 0.7)" style="fill:#fff"/><polygon points="65 6.2 65 6.2 65 6.2 65 6.2" style="fill:#faf06f"/><path d="M44,5.6h0Z" transform="translate(21 0.7)" style="fill:#faf06f"/><polygon points="65 6.2 65 6.2 65 6.2 65 6.2" style="fill:#faf06f"/><path d="M43.6,8.5h-.1c.1-.1.1-.1,0-.1h.1Z" transform="translate(21 0.7)" style="fill:#fff"/><polygon points="64.5 9.2 64.5 9.2 64.5 9.2 64.5 9.2" style="fill:#faf06f"/><path d="M43.5,8.5Z" transform="translate(21 0.7)" style="fill:#faf06f"/><polygon points="64.5 9.2 64.5 9.2 64.5 9.2 64.5 9.2" style="fill:#faf06f"/><path d="M45.3,5.3H45c0,.1,0,.1.1.1h.2Z" transform="translate(21 0.7)" style="fill:#fff"/><polygon points="66.2 6 66.2 6 66.2 6 66.2 6" style="fill:#faf06f"/><path d="M45.2,5.4h0Z" transform="translate(21 0.7)" style="fill:#faf06f"/><polygon points="66.2 6 66.2 6 66.2 6 66.2 6" style="fill:#faf06f"/><path d="M69.6,23.5h0Z" transform="translate(21 0.7)" style="fill:#fff"/><polygon points="90.8 24.2 90.8 24.2 90.8 24.2 90.8 24.2" style="fill:#faf06f"/><path d="M69.7,23.5Z" transform="translate(21 0.7)" style="fill:#faf06f"/><polygon points="90.8 24.2 90.8 24.2 90.8 24.2 90.8 24.2" style="fill:#faf06f"/><path d="M68.5,21.4h.1a.1.1,0,0,1-.1.1c.1,0,.1,0,.1.1h0s.1.1.1,0h-.2Z" transform="translate(21 0.7)" style="fill:#fff"/><polygon points="89.7 22.1 89.7 22.1 89.7 22.1 89.7 22.1" style="fill:#faf06f"/><path d="M68.6,21.4Z" transform="translate(21 0.7)" style="fill:#faf06f"/><polygon points="89.7 22.1 89.7 22.1 89.7 22.1 89.7 22.1" style="fill:#faf06f"/><path d="M68.1,22.6h.2c.1,0,0-.1,0-.1h0a.1.1,0,0,0-.1-.1h-.1Z" transform="translate(21 0.7)" style="fill:#fff"/><polygon points="89.3 23.3 89.3 23.3 89.3 23.3 89.3 23.3" style="fill:#faf06f"/><path d="M68.2,22.6Z" transform="translate(21 0.7)" style="fill:#faf06f"/><polygon points="89.3 23.3 89.3 23.3 89.3 23.3 89.3 23.3" style="fill:#faf06f"/><path d="M75.8,32.3h.1c0,.1,0,0,.1,0h0s.1,0,0-.1h-.2Z" transform="translate(21 0.7)" style="fill:#fff"/><polygon points="97 33 97 33 97 33 97 33" style="fill:#faf06f"/><path d="M75.9,32.3Z" transform="translate(21 0.7)" style="fill:#faf06f"/><polygon points="97 33 97 33 97 33 97 33" style="fill:#faf06f"/><path d="M74.7,30.2h.2a.1.1,0,0,0-.1-.1h-.1Z" transform="translate(21 0.7)" style="fill:#fff"/><polygon points="95.9 30.9 95.9 30.9 95.9 30.9 95.9 30.9" style="fill:#faf06f"/><path d="M74.8,30.2Z" transform="translate(21 0.7)" style="fill:#faf06f"/><polygon points="95.9 30.9 95.9 30.9 95.9 30.9 95.9 30.9" style="fill:#faf06f"/><path d="M74.1,32.2h0a.1.1,0,0,0,.1.1h0c0,.1,0,.1.1.1s0-.1-.1-.1h0c-.1,0-.1.1,0,.1Z" transform="translate(21 0.7)" style="fill:#fff"/><polygon points="95.2 32.9 95.2 32.9 95.2 32.9 95.2 32.9" style="fill:#faf06f"/><path d="M74.2,32.2Z" transform="translate(21 0.7)" style="fill:#faf06f"/><polygon points="95.2 32.9 95.2 32.9 95.2 32.9 95.2 32.9" style="fill:#faf06f"/><path d="M74.4,31.4h0c.1,0,.1,0,.1-.1s0,.1.1.1a.1.1,0,0,0-.1-.1c.1,0,.1,0,.1-.1h-.2Z" transform="translate(21 0.7)" style="fill:#fff"/><polygon points="95.5 32.1 95.5 32.1 95.5 32.1 95.5 32.1" style="fill:#faf06f"/><path d="M74.4,31.4Z" transform="translate(21 0.7)" style="fill:#faf06f"/><polygon points="95.5 32.1 95.5 32.1 95.5 32.1 95.5 32.1" style="fill:#faf06f"/><path d="M62.7,13.7h.1c.1,0,.1.1.1,0h-.1c-.1,0-.1.1,0,.1h-.1Z" transform="translate(21 0.7)" style="fill:#fff"/><polygon points="83.9 14.3 83.9 14.3 83.9 14.3 83.9 14.3" style="fill:#faf06f"/><path d="M62.8,13.6Z" transform="translate(21 0.7)" style="fill:#faf06f"/><polygon points="83.9 14.3 83.9 14.3 83.9 14.3 83.9 14.3" style="fill:#faf06f"/><path d="M61.3,12Z" transform="translate(21 0.7)" style="fill:#fff"/><polygon points="82.4 12.6 82.4 12.6 82.4 12.6 82.4 12.6" style="fill:#faf06f"/><path d="M61.3,12h0Z" transform="translate(21 0.7)" style="fill:#faf06f"/><polygon points="82.4 12.6 82.4 12.6 82.4 12.6 82.4 12.6" style="fill:#faf06f"/><path d="M61,14.2h.1a.1.1,0,0,0,.1.1H61Z" transform="translate(21 0.7)" style="fill:#fff"/><polygon points="82.1 14.8 82.1 14.8 82.1 14.8 82.1 14.8" style="fill:#faf06f"/><path d="M61.1,14.2Z" transform="translate(21 0.7)" style="fill:#faf06f"/><polygon points="82.1 14.8 82.1 14.8 82.1 14.8 82.1 14.8" style="fill:#faf06f"/><path d="M61.1,13.3h.2c.1,0,0-.1,0-.1h-.1c-.1,0-.1,0-.1.1Z" transform="translate(21 0.7)" style="fill:#fff"/><polygon points="82.3 13.9 82.3 13.9 82.3 13.9 82.3 13.9" style="fill:#faf06f"/><path d="M61.2,13.3Z" transform="translate(21 0.7)" style="fill:#faf06f"/><polygon points="82.3 13.9 82.3 13.9 82.3 13.9 82.3 13.9" style="fill:#faf06f"/><path d="M53.2,8h.1s-.1,0,0,.1h0c-.1,0-.1.1,0,.1h-.1Z" transform="translate(21 0.7)" style="fill:#fff"/><polygon points="74.4 8.6 74.4 8.6 74.4 8.6 74.4 8.6" style="fill:#faf06f"/><path d="M53.3,8h0Z" transform="translate(21 0.7)" style="fill:#faf06f"/><polygon points="74.4 8.6 74.4 8.6 74.4 8.6 74.4 8.6" style="fill:#faf06f"/><path d="M51,5.6h.1a.1.1,0,0,0,.1.1H51Z" transform="translate(21 0.7)" style="fill:#fff"/><polygon points="72.2 6.2 72.1 6.2 72.1 6.2 72.2 6.2" style="fill:#faf06f"/><path d="M51.1,5.6h0Z" transform="translate(21 0.7)" style="fill:#faf06f"/><polygon points="72.2 6.2 72.2 6.2 72.2 6.2 72.2 6.2" style="fill:#faf06f"/><path d="M51.5,8.5h.1c-.1.1-.1.1,0,.1h-.1Z" transform="translate(21 0.7)" style="fill:#fff"/><polygon points="72.6 9.2 72.6 9.2 72.6 9.2 72.6 9.2" style="fill:#faf06f"/><path d="M51.6,8.5Z" transform="translate(21 0.7)" style="fill:#faf06f"/><polygon points="72.6 9.2 72.6 9.2 72.6 9.2 72.6 9.2" style="fill:#faf06f"/><path d="M49.8,5.4H50a.1.1,0,0,0,.1-.1h-.3Z" transform="translate(21 0.7)" style="fill:#fff"/><polygon points="71 6 71 6 71 6 71 6" style="fill:#faf06f"/><path d="M49.9,5.4h0Z" transform="translate(21 0.7)" style="fill:#faf06f"/><polygon points="71 6 71 6 71 6 71 6" style="fill:#faf06f"/></g><path d="M45.1,3A30.5,30.5,0,0,1,60.9,7.4c4.8,2.9,8.7,7.5,12.1,13.2s4.4,9.7,8,14a8.6,8.6,0,0,1,2.1,3.9.9.9,0,0,1,.1.5c0,.2-.1.3-.1.5H3c1.8-1.7,5.4-7.5,7-10.2,3.1-5.3,4.6-9.5,8.4-13.5a39.7,39.7,0,0,1,12-9.2l1-.5a34,34,0,0,1,8-2.6A36.6,36.6,0,0,1,45.1,3m0-3a33.6,33.6,0,0,0-6.3.6,38.1,38.1,0,0,0-8.7,2.7L29,3.9a45.1,45.1,0,0,0-12.8,9.8,41.7,41.7,0,0,0-6.4,9.7c-.7,1.4-1.5,2.8-2.4,4.3C5.2,31.5,2.2,36.1,1,37.3a3.1,3.1,0,0,0-.8,3.3A3.2,3.2,0,0,0,3,42.5H83.1a3,3,0,0,0,2.6-1.7,3.4,3.4,0,0,0,.5-1.4,3.7,3.7,0,0,0-.2-1.8,13.1,13.1,0,0,0-2.7-5,40.4,40.4,0,0,1-4.7-7.8c-.9-1.8-1.8-3.7-3-5.8-4-6.6-8.3-11.3-13.1-14.2A33.6,33.6,0,0,0,45.1,0Z" transform="translate(21 0.7)" style="fill:#507125"/><g style="clip-path:url(#clip-path-2)"><g style="clip-path:url(#clip-path-3)"><rect y="3" width="123.5" height="40.4" style="fill:#924f28"/><rect y="38.9" width="123.5" height="4.49" style="fill:#ce894a"/><rect y="34" width="123.5" height="4.49" style="fill:#ce894a"/><rect y="29" width="123.5" height="4.49" style="fill:#ce894a"/><rect y="24.1" width="123.5" height="4.49" style="fill:#ce894a"/><rect y="19.2" width="123.5" height="4.49" style="fill:#ce894a"/><rect y="14.3" width="123.5" height="4.49" style="fill:#ce894a"/><rect y="9.4" width="123.5" height="4.49" style="fill:#ce894a"/><rect y="4.5" width="123.5" height="4.49" style="fill:#ce894a"/><g style="mix-blend-mode:screen;opacity:0.30000000000000004"><path d="M79.1,41H27c-8.9.1-32.7.2-41.6.1-.3,0-.8.1-.4.1,8.4.2,31.9.5,40.3.5,3.7,0,7.1.1,10.8-.1l42.6-.3C79,41.2,79.6,41,79.1,41Z" transform="translate(21 0.7)" style="fill:#a26c4a"/><path d="M82.5,40.4c-5.8-.1-41.7,0-47.5,0H27.9c-3.7.2-7.2.2-10.9.1-.1,0-.4.1-.2.1,5.4.1,11.1.1,16.4-.1H81.9C82.3,40.6,83.2,40.4,82.5,40.4Z" transform="translate(21 0.7)" style="fill:#a26c4a"/><path d="M97,38.7H-4.3c-2.9.1-5.8-.1-8.8-.1-.3,0-.8.2-.4.2l7.6.2H18.4c5.6-.1,11.2.1,16.7,0H80.6c5.3.1,10.6-.1,15.8-.2C97,39,97.9,38.8,97,38.7Z" transform="translate(21 0.7)" style="fill:#a26c4a"/><path d="M86.8,36.5H35.7c-6.6.1-13.1.3-19.7.1-.3,0-15.8.1-15.4.2,6.4.2,27.9,0,34.4,0H86.4C86.7,36.7,87.4,36.5,86.8,36.5Z" transform="translate(21 0.7)" style="fill:#a26c4a"/><path d="M45.4,35.3H-17.1c-.3-.1-.8,0-.5.1,2,.2,5.5.2,7.8.2H18.5c8.7,0,17.5.2,26.3,0C45.3,35.5,46.2,35.3,45.4,35.3Z" transform="translate(21 0.7)" style="fill:#a26c4a"/><path d="M16.4,35.8H-7.9L16,36C16.3,36,16.8,35.8,16.4,35.8Z" transform="translate(21 0.7)" style="fill:#a26c4a"/><path d="M24.3,31.8c-4-.2-23.2-.1-27.2-.1s-9.7.2-14.6,0c-.2,0-.4.2-.2.2l13.9.5H17.1l7-.3C24.3,32,24.6,31.8,24.3,31.8Z" transform="translate(21 0.7)" style="fill:#a26c4a"/><path d="M26.1,31.2H16.6l-19,.2c-2,.1-4,.2-6,.1-.1,0-.2.1-.1.1,3,.1,6.1,0,9-.1s18.6.1,20.3,0h5C26.1,31.4,26.5,31.2,26.1,31.2Z" transform="translate(21 0.7)" style="fill:#a26c4a"/><path d="M38.5,29.3l-4.2-.2H26.5l-5,.2c-3.1.1-21.3,0-24.4,0l-4.6.2h-5.1l4.2.2H29.5l8.6-.2C38.5,29.6,39,29.3,38.5,29.3Z" transform="translate(21 0.7)" style="fill:#a26c4a"/><path d="M28.5,27.3c-3.8-.2-7.7-.1-11.6-.1s-22.2.3-25.8.1c-.2,0-.5.1-.2.1,3.5.3,22.1.1,25.6.1H28.3C28.5,27.4,28.9,27.3,28.5,27.3Z" transform="translate(21 0.7)" style="fill:#a26c4a"/><path d="M25.4,26.1H-15.8c-.1,0-.4.1-.2.1a29,29,0,0,0,4.3.3h7.3c4.8,0,24.6.2,29.5.1C25.3,26.4,25.8,26.2,25.4,26.1Z" transform="translate(21 0.7)" style="fill:#a26c4a"/><path d="M-8.7,26.6a41.8,41.8,0,0,1-5-.2c-.1,0-.3.1-.1.2h5.1Z" transform="translate(21 0.7)" style="fill:#a26c4a"/><path d="M97.9,30.9l-3.1-.4-3.6-.4c-2.6-.2-5.1.1-7.7.1l-37.3.2-3.3.2c-.6,0-1.6,0-2,.5a.1.1,0,0,0,0,.2,5.3,5.3,0,0,0,1.8.4l3,.3,33,.2h3.4A85.4,85.4,0,0,0,95.5,32c.2,0,.3-.2.1-.2a104.3,104.3,0,0,1-12.5,0l-36-.2-3-.2a23,23,0,0,1-2.6-.3h.7l1.8-.2H84.1a51.5,51.5,0,0,1,6.8-.1,19.5,19.5,0,0,1,3.4.3,17.7,17.7,0,0,1,3.2.5C97.7,31.3,98.1,31,97.9,30.9Z" transform="translate(21 0.7)" style="fill:#a26c4a"/><path d="M93.5,31.3H86c-.1,0-.2.2-.1.2h7.5C93.5,31.5,93.7,31.3,93.5,31.3Z" transform="translate(21 0.7)" style="fill:#a26c4a"/><path d="M99.7,30.6l-2.8-.3-2.8-.5a41.7,41.7,0,0,0-6.1-.4c-4.1-.2-38.2.1-42.3,0-.1,0-.2.2-.1.2,4.1.1,38.1-.1,42.2.1a56.5,56.5,0,0,1,5.8.4,28.9,28.9,0,0,0,5.9.8C99.7,30.9,100,30.6,99.7,30.6Z" transform="translate(21 0.7)" style="fill:#a26c4a"/><path d="M35.6,31.8a56.1,56.1,0,0,1-5.8-.1c-.1,0-.3.1-.1.1a55.2,55.2,0,0,0,5.8.2C35.6,32,35.8,31.8,35.6,31.8Z" transform="translate(21 0.7)" style="fill:#a26c4a"/><path d="M97.9,35.4l-.9-.2H95.2l-3.9-.4-7.9-.4L45.6,34a76.7,76.7,0,0,1-8.3.2c-.1,0-.2.1-.1.2,2.6.2,5.2,0,7.9,0s35,.1,37.5.2l7.6.4,3.9.4H96a3.6,3.6,0,0,1,1.5.2C97.7,35.9,98.1,35.5,97.9,35.4Z" transform="translate(21 0.7)" style="fill:#a26c4a"/><path d="M96.4,36.5H93.9c-.1,0-.3.2-.1.2l2.4.2C96.3,36.8,96.6,36.6,96.4,36.5Z" transform="translate(21 0.7)" style="fill:#a26c4a"/><path d="M94.9,41a7.5,7.5,0,0,0-2.1-.2H90.1l-5.6-.3c-.1,0-.3.2-.1.2l5.2.4h5C94.8,41.3,95.1,41.1,94.9,41Z" transform="translate(21 0.7)" style="fill:#a26c4a"/><path d="M93.2,41.8h-.6c-.1,0-.2.1-.1.1h.6C93.2,41.9,93.2,41.9,93.2,41.8Z" transform="translate(21 0.7)" style="fill:#a26c4a"/><path d="M97.4,24.3c-2.9.5-6,.1-9,0l-8.7.2c-3,.2-35.9.3-38.8.5a74.4,74.4,0,0,1-9.4.3c-.1,0-.3.2-.1.2a51.8,51.8,0,0,0,8.8-.1c3.1-.3,36.3-.3,39.5-.5s5.8-.3,8.7-.2,6.1.6,8.9-.1C97.5,24.5,97.8,24.2,97.4,24.3Z" transform="translate(21 0.7)" style="fill:#a26c4a"/><path d="M87.8,25.7a48.3,48.3,0,0,0-7.6-.3c-2.6.1-35.2.3-37.8.2-.1,0-.3.1-.1.1,2.5.2,35.1,0,37.7,0s5.1.1,7.6.2C87.8,25.9,88,25.7,87.8,25.7Z" transform="translate(21 0.7)" style="fill:#a26c4a"/><path d="M94.8,27.7l-3.4-.3H87.5l-8.2-.2c-5.2-.2-40.5.3-45.8-.1-.1,0-.2.2-.1.2,5.2.4,40.5,0,45.7.2,2.6.2,5.2.3,7.9.3h3.9l3.7.2C94.7,28,95,27.8,94.8,27.7Z" transform="translate(21 0.7)" style="fill:#a26c4a"/><path d="M96.8,26.4H94.3c-.1,0-.3.2-.1.2h2.4C96.8,26.6,97,26.4,96.8,26.4Z" transform="translate(21 0.7)" style="fill:#a26c4a"/><path d="M31.4,23.9a84.2,84.2,0,0,0-8.7-.1L-.7,24l-8,.2a82.4,82.4,0,0,1-8.6-.3s-.2.1-.1.1a75.2,75.2,0,0,0,8.2.5l8.3-.2,23.1-.2c3-.1,6-.1,9.1,0C31.4,24.1,31.6,23.9,31.4,23.9Z" transform="translate(21 0.7)" style="fill:#a26c4a"/><path d="M30,25l-5,.2c-.1,0-.2.1-.1.1a41.7,41.7,0,0,0,5-.1C30,25.2,30.1,25,30,25Z" transform="translate(21 0.7)" style="fill:#a26c4a"/><path d="M17.1,21.3-7.5,21H-12l-5.1.3s-.2.2-.1.2l4.5-.2H-8c3.3,0,21.6.2,24.9.1C17,21.5,17.3,21.3,17.1,21.3Z" transform="translate(21 0.7)" style="fill:#a26c4a"/><path d="M16.8,22.1c-2.7.1-20.6.4-23.3.1,0,0-.2.1-.1.1a28.2,28.2,0,0,0,4.1.2l19.2-.2C16.8,22.3,16.9,22.1,16.8,22.1Z" transform="translate(21 0.7)" style="fill:#a26c4a"/><path d="M92.9,20.5c-4.7-.1-9.5-.5-14.2-.5l-44.3-.2-6.9-.2H24.2l-3.6-.2c-2.3-.2-19.7-.2-22-.2h-7a45.4,45.4,0,0,1-7.4-.2c-.1,0-.3.2-.1.2,2.3.2,4.6.3,7,.3l6.9.2H20l7,.2H78.3l7,.2c2.5.1,5,.3,7.5.3C92.9,20.7,93.1,20.5,92.9,20.5Z" transform="translate(21 0.7)" style="fill:#a26c4a"/><path d="M98.9,19.6a21.1,21.1,0,0,0-2.6-.2l-3.4-.2H85.7c-.2,0-.4.2-.2.2,4.4.2,8.7.3,13.1.7C98.8,20,99.1,19.7,98.9,19.6Z" transform="translate(21 0.7)" style="fill:#a26c4a"/><path d="M97.3,22H80l-36.2-.2H38.2l-5.5.2c-4.1,0-8.3.3-12.3-.3-.1,0-.2.1-.1.2,3.9.6,7.8.4,11.8.5h5.6a24.3,24.3,0,0,1,2.7,0h3l36,.2H94.5l2.6-.2C97.3,22.3,97.5,22,97.3,22Z" transform="translate(21 0.7)" style="fill:#a26c4a"/><path d="M92.6,21.2H88.3c-.1,0-.3.1-.2.2h4.4C92.6,21.4,92.8,21.2,92.6,21.2Z" transform="translate(21 0.7)" style="fill:#a26c4a"/><path d="M98.1,17c-4.8-.4-9.5-.8-14.3-1s-39.9-.5-44.8-.6H31.9l-7,.2-7-.2c-2.3-.1-19.7,0-22,.2l-6.3.5a21.4,21.4,0,0,1-6.2-.2h-.2a18.4,18.4,0,0,0,6.2.5l7-.6c4.8-.3,24.6.1,29.5.1l6.9-.2c2.4-.1,4.7,0,7.1,0,4.9.1,39.9.3,44.8.6l6.6.5,6.6.5C98.1,17.4,98.4,17,98.1,17Z" transform="translate(21 0.7)" style="fill:#a26c4a"/><path d="M-4.8,16.9c-2.3.2-4.7.2-7.1.2h-5.8s-.1-.1-.1,0h0a.1.1,0,0,1-.1-.1c-.1,0-.3.1-.2.2h0a5.3,5.3,0,0,0,1.8.1h3.9a64.3,64.3,0,0,0,7.6-.2C-4.7,17-4.5,16.8-4.8,16.9Z" transform="translate(21 0.7)" style="fill:#a26c4a"/><path d="M44,17.5c-2.6-.2-5.2-.2-7.9-.3l-8-.4-7.3-.4c-2.6-.2-20.3.1-22.9.1-.1,0-.3.3-.1.3,2.5,0,20-.2,22.5-.1l7.6.5,7.7.4c2.7.1,5.5.2,8.3.1C44,17.7,44.2,17.5,44,17.5Z" transform="translate(21 0.7)" style="fill:#a26c4a"/><path d="M99.1,15.8a4.3,4.3,0,0,1-1.6-.1H95.4l-4.1-.4L87,14.7a15.2,15.2,0,0,1-2.1-.3,3.7,3.7,0,0,1-1.8-.4h3l4.5-.3c2.7-.1,5.3.1,7.9.1h.2a31.7,31.7,0,0,0-4.4-.2H89.9l-4.3.4H82.7v.2a3.8,3.8,0,0,0,1.5.5,11.3,11.3,0,0,0,1.8.3c1.6.2,3.2.5,4.9.6l4.4.4h2.1a10.8,10.8,0,0,0,1.8,0C99.2,15.9,99.3,15.8,99.1,15.8Z" transform="translate(21 0.7)" style="fill:#a26c4a"/><path d="M98.8,15.5A37.1,37.1,0,0,1,94,15l-2.8-.4a5.8,5.8,0,0,1-1.4-.3,14.2,14.2,0,0,1,3.6-.3l4.5.2s.1-.1,0-.1c-2.6-.1-6-.9-8.5.1-.1.1-.2.2-.1.3a8.6,8.6,0,0,0,1.7.3l2.5.4a29.4,29.4,0,0,0,5.1.5C98.7,15.7,98.9,15.5,98.8,15.5Z" transform="translate(21 0.7)" style="fill:#a26c4a"/><path d="M99,15.2l-2.1-.4c-.4-.1-1.1-.1-1.4-.4h0c0-.2-.2-.1-.3,0h.1c-.1,0-.3.1-.2.2a1.4,1.4,0,0,0,1.1.4,7.7,7.7,0,0,0,2.6.3Z" transform="translate(21 0.7)" style="fill:#a26c4a"/><path d="M98.8,11.6a21.7,21.7,0,0,1-3.6-.1H91.6c-2.2-.1-4.5.3-6.7.4s-4.4,0-6.7.2-34.9.5-37.3.6a19.3,19.3,0,0,1-3.4-.1H34.2c-2.3.2-4.7-.2-7.1-.2H-1.5L-5.4,12c-1.4-.1-2.8-.1-4.1-.3l-4-.3a19.4,19.4,0,0,1-3.4-.2c-.2,0-.4.2-.2.3h2.8l3.5.3c2.3.2,4.6.3,6.9.6,4.6.4,24.2.1,28.8,0,2.3,0,4.5.2,6.8.3h6.7a31.6,31.6,0,0,0,6.9-.3c2.4-.2,34.8-.3,37.2-.3s5.4-.4,8.1-.5,2.8,0,4.2,0a26.7,26.7,0,0,0,4,0C98.9,11.8,99,11.6,98.8,11.6Z" transform="translate(21 0.7)" style="fill:#a26c4a"/><path d="M-.9,14.2a4.2,4.2,0,0,0-1.9-.3c-1.2,0-2.5-.3-3.7-.4a70,70,0,0,1-8-1.1c-.1,0-.2.1-.1.2a50.6,50.6,0,0,0,6.8,1l3.4.5,1.8.2h-.2l-2.1.4a31.2,31.2,0,0,1-4.4.5,32,32,0,0,1-4.4.1,25.1,25.1,0,0,1-3.9-.1c-.1-.1-.3.1-.2.1a22.2,22.2,0,0,0,3.7.3,32.3,32.3,0,0,0,4.4,0,40.2,40.2,0,0,0,5-.6l2.3-.4a3,3,0,0,0,1.3-.2C-1,14.4-.8,14.3-.9,14.2Z" transform="translate(21 0.7)" style="fill:#a26c4a"/><path d="M-7.8,14.5c-.1-.3-.9-.4-1.3-.4l-2.7-.5-3.6-.5-1.8-.2h-1.6s-.2.1-.1.1c1.8.3,3.6.3,5.4.6l4.6.8.6.2c.5.1-.1.2-.3.2a14.5,14.5,0,0,1-2.9.4h-3.1a18.7,18.7,0,0,1-3.2-.4h-.1l3.2.5h3.9C-10.5,15.4-7.3,15.2-7.8,14.5Z" transform="translate(21 0.7)" style="fill:#a26c4a"/><path d="M-12.2,14.7h-.1l-2.3-.5-2.4-.4c-.1-.1-.3.1-.2.1l2.7.6,1.3.3h.9A.1.1,0,0,0-12.2,14.7Z" transform="translate(21 0.7)" style="fill:#a26c4a"/><path d="M95.9,10.5H89.5c-2.3.2-4.7.6-7.1.6H23.7c-2.4,0-4.7-.2-7.1-.4H-5.7a109.9,109.9,0,0,1-11.4-.5s-.2.1-.1.2c2.3.3,4.5.3,6.8.4l7.1.3c2.4.1,19.8.1,22.2.3l7.1.2H40.3l7.3.2c2.2-.1,34.5.1,36.8-.1l5.6-.5,5.7-.2C95.9,10.9,96.2,10.6,95.9,10.5Z" transform="translate(21 0.7)" style="fill:#a26c4a"/><path d="M97.7,9.4l-3.1-.3L91,8.9c-2.4-.2-4.7,0-7,0l-3.4-.2H39.5c-5-.1-10-.4-14.9-.8l-7-.7C15.2,7-2.1,6.9-4.4,7l-6.3.5c-2.1.2-4.3,0-6.5,0,0,0-.1.1,0,.1a45.6,45.6,0,0,0,6.4.1l7.4-.5c4.7,0,24.3.6,29,.9s9.9.7,14.9.8h7.3c2.3.1,34.7.4,37.1.3H88a18.2,18.2,0,0,1,3.3.1h3.1a31.6,31.6,0,0,1,3.2.3C97.7,9.6,97.9,9.4,97.7,9.4Z" transform="translate(21 0.7)" style="fill:#a26c4a"/><path d="M100.2,6.6c-1.2.1-2.4,0-3.6,0H93l-6.7.3c-2.2.1-4.4,0-6.7.2l-37.3.4H35.6c-2.3.2-4.7-.1-7.1-.1H-.1L-4,6.9l-4.1-.2-4-.2a19.4,19.4,0,0,1-3.4-.2c-.2,0-.4.2-.2.2h2.8l3.5.2,6.9.4c4.6.3,24.2.1,28.8,0l6.8.2h6.7a53,53,0,0,0,6.9-.2c2.4-.2,34.8-.2,37.2-.2s5.4-.3,8.1-.4h4.1c1.4,0,2.7.2,4.1.1S100.4,6.6,100.2,6.6Z" transform="translate(21 0.7)" style="fill:#a26c4a"/><path d="M97.3,5.9H90.9c-2.3.1-4.7.4-7.1.3s-34.8.1-37.1,0H25.1c-2.4,0-4.7-.2-7.1-.3H-4.3c-3.7-.1-7.6,0-11.4-.3h-.1c2.3.2,4.5.3,6.8.3l7.1.2,22.2.2H85.7c1.9-.1,3.8-.3,5.7-.3L97,6.1C97.2,6.1,97.6,5.9,97.3,5.9Z" transform="translate(21 0.7)" style="fill:#a26c4a"/><path d="M99.1,5.1,96,4.9H92.3c-2.3-.2-4.6,0-6.9,0H40.9c-5-.1-10-.3-14.9-.6l-7-.4C16.6,3.5-.7,3.4-3,3.5s-4.2.2-6.3.3-4.3,0-6.5,0c0,0-.1.1,0,.1,2.1,0,4.3.2,6.4.1L-2,3.6c4.7,0,24.3.4,29,.7l14.9.5h7.3L86.3,5h9.5l3.2.2C99.1,5.2,99.3,5.1,99.1,5.1Z" transform="translate(21 0.7)" style="fill:#a26c4a"/><path d="M16.4,9.1-.5,8.9H-12.3a47.3,47.3,0,0,1-5.3-.4s-.2.1-.1.1a42.8,42.8,0,0,0,4.9.5h9.5l19.5.3C16.3,9.3,16.5,9.1,16.4,9.1Z" transform="translate(21 0.7)" style="fill:#a26c4a"/><path d="M37.7,10.5H32.3a50.7,50.7,0,0,1-5.5-.3C23.1,9.9,4.4,9.7.7,9.6c-.1,0-.2.2-.1.2,3.7.1,22.4.3,26,.5s7.3.5,11,.4C37.7,10.7,37.9,10.5,37.7,10.5Z" transform="translate(21 0.7)" style="fill:#a26c4a"/><path d="M40.6,9.8H33c-.1,0-.2.2-.1.2a48.2,48.2,0,0,0,7.6.1C40.6,10,40.7,9.8,40.6,9.8Z" transform="translate(21 0.7)" style="fill:#a26c4a"/><path d="M97.5,6H88.7c-2.9-.1-5.8-.2-8.7-.1l-38.9.4a71.7,71.7,0,0,1-9.3-.3h-.1c6,.7,42,.4,48.1.1,2.9-.1,5.8.1,8.7.1s5.9.2,8.8.1C97.5,6.3,97.7,6,97.5,6Z" transform="translate(21 0.7)" style="fill:#a26c4a"/><path d="M97.5,6.9c-3.5-.2-6.9.2-10.4,0H87c1.7.2,3.3.1,4.9.2h5.4C97.4,7.1,97.7,6.9,97.5,6.9Z" transform="translate(21 0.7)" style="fill:#a26c4a"/></g><path d="M58.2,32.7l-4.9-.2c-3.4,0-6.7.4-10,.6s-21.5.2-24.8.2H16.6c11,1.9,37.3.3,48.4.1l-1.8-.3Z" transform="translate(21 0.7)" style="fill:#a26c4a;mix-blend-mode:multiply;opacity:0.6000000000000001"/><path d="M56.7,18.4l-5,.2H46.6l-5,.2-5-.2c-1.5-.1-18-.2-19.5-.1h-.6c2.6.2,20.2.2,22.8.3s6.6.5,9.9.5,6.6-.4,10-.7l5.7-.3Z" transform="translate(21 0.7)" style="fill:#a26c4a;mix-blend-mode:multiply;opacity:0.6000000000000001"/><path d="M59.9,13.5c-2.7.2-35.4.2-38.1.2H14.1c2.5.3,5.1.7,7.7.8,5.2.1,40.4-.5,45.5-1.2A61.5,61.5,0,0,0,59.9,13.5Z" transform="translate(21 0.7)" style="fill:#a26c4a;mix-blend-mode:multiply;opacity:0.6000000000000001"/><path d="M24.8,28.9c2.8.2,20.6.2,23.5.1,5.3-.1,10.5-.5,15.8-.8l-4.3-.3-4.7-.2c-3.1-.3-21.3-.8-24.5-.8a74.5,74.5,0,0,0-9.5.8c-1.2.1-2.4.4-3.6.4h-.2a10.2,10.2,0,0,0,3.5.5Z" transform="translate(21 0.7)" style="fill:#a26c4a;mix-blend-mode:multiply;opacity:0.6000000000000001"/></g><path d="M76.5,2.3V42.9H4.8V2.3H76.5m0-3H4.8a3,3,0,0,0-3,3V42.9a2.9,2.9,0,0,0,3,3H76.5a3,3,0,0,0,3-3V2.3a3.1,3.1,0,0,0-3-3Z" transform="translate(21 0.7)" style="fill:#6a3417"/><rect x="29.1" y="11.2" width="67.6" height="26.95" style="fill:#f9e4e4;stroke:#f4a8ac;stroke-linecap:round;stroke-linejoin:round;stroke-width:2px;mix-blend-mode:screen;opacity:0.8"/><rect x="29.1" y="11.2" width="66.4" height="26.95" style="fill:#f9e4e4;stroke:#f4a8ac;stroke-linecap:round;stroke-linejoin:round;stroke-width:2px;mix-blend-mode:color;opacity:0.5"/><rect x="29.1" y="11.8" width="66.8" height="26.29" style="fill:#fa789e;stroke:#f4a8ac;stroke-linecap:round;stroke-linejoin:round;stroke-width:2px;mix-blend-mode:color;opacity:0.5"/><g style="mix-blend-mode:multiply"><path d="M43.2,13.7h0Z" transform="translate(21 0.7)" style="fill:#d8c3cb"/><path d="M67.2,40.6h0Z" transform="translate(21 0.7)" style="fill:#d8c3cb"/><path d="M16.1,13.7H43.3c-11.5.5-21.1,11.7-23.9,26.8H16.1Z" transform="translate(21 0.7)" style="fill:#d8c3cb"/><path d="M73.5,13.7V40.5H67.1C64.3,25.4,54.8,14.2,43.2,13.7Z" transform="translate(21 0.7)" style="fill:#d8c3cb"/></g><rect x="33.5" y="36.3" width="63.7" height="4.72" rx="0.5" style="fill:#d8a960"/><path d="M75.6,36.1v3.7H12.9V36.1H75.6m0-1H12.9a1.1,1.1,0,0,0-1,1v3.7a1,1,0,0,0,1,1H75.6a.9.9,0,0,0,1-1V36.1a1,1,0,0,0-1-1Z" transform="translate(21 0.7)" style="fill:#924f28"/><g style="mix-blend-mode:multiply;opacity:0.30000000000000004"><path d="M75.6,36.1v3.7a26.7,26.7,0,0,0-12.8-3.2H26.1a26,26,0,0,0-10.7,2.2l-2.5,1V36.1Z" transform="translate(21 0.7)" style="fill:#75411a"/></g></g><path d="M69.3,33.6a.1.1,0,0,1-.1.1v.2a.6.6,0,0,1,.1.4.9.9,0,0,1,.1.5v.4c0,.1.1.3.1.4s.1.3.2.4.1.2.2.3a.1.1,0,0,0,.1.1l.5.4h.6l.8-.4.8-.3c.2-.1.5-.2.6-.4a.7.7,0,0,0,.2-.6c0-.1,0-.1-.1-.2h0a.4.4,0,0,0-.1-.3v-.3c-.1-.1-.1-.1-.1-.2l-.2-.5c0-.2-.1-.3-.2-.5s0-.1-.1-.2a.3.3,0,0,0-.1-.2c-.1-.2-.3-.3-.4-.4h-.6l-1.6.5a1.8,1.8,0,0,0-.9.8Z" transform="translate(21 0.7)" style="fill:#808284"/><path d="M72.5,36.2l-1.4.5c-.3.2-.7.3-.8.7s-.1.6-.1.8v1h.3c.1.1.1.1.1.2l.4.4h.1l.4.2.4.2h.4l.5.2a1.2,1.2,0,0,0,.8-.1H74l.3-.3c.1-.1.1-.3.2-.4h.1v-.9h0v-.2a.4.4,0,0,1-.1-.3h0v-.2a.3.3,0,0,0-.1-.2c0-.1-.1-.2-.1-.3a.4.4,0,0,1-.1-.3l-.2-.4-.2-.3-.2-.2C73.2,35.8,72.8,36,72.5,36.2Z" transform="translate(21 0.7)" style="fill:#808284"/><path d="M72.3,31.5h0v-.2l-.3-1a.8.8,0,0,1-.2-.5c-.1,0-.1-.1-.1-.2l-.2-.2a.5.5,0,0,0-.2-.4l-.3-.3h-.1l-.3-.2h-.9l-.7.6-.7.5c-.2.2-.4.3-.5.6a.7.7,0,0,0-.1.5.4.4,0,0,1,.1.3c.1.1.1.1.1.2a12.9,12.9,0,0,0,.9,1.6.9.9,0,0,0,1,.3l1.6-.5a1.7,1.7,0,0,0,.9-.8Z" transform="translate(21 0.7)" style="fill:#808284"/><path d="M65.7,26.7h0V27c0,.1.1.2.1.4l.3.4V28a.3.3,0,0,0,.1.2l.2.3.5.6h.1c.2.1.4.3.6.3h.6l.7-.6.7-.5.6-.6a.6.6,0,0,0,0-.6c0-.1-.1-.2-.1-.3s-.1-.2-.2-.2v-.3a.3.3,0,0,1-.1-.2l-.3-.4-.3-.4-.3-.3a.5.5,0,0,0-.5-.3h-.6a6.7,6.7,0,0,0-1.4.9,1.6,1.6,0,0,0-.8,1Z" transform="translate(21 0.7)" style="fill:#808284"/><path d="M68.3,23.9h0v-.2l-.2-.4-.3-.4-.6-.8-.6-.6h-.2a.7.7,0,0,0-.6-.1.7.7,0,0,0-.6.2l-.6.7-.6.7-.4.6a.7.7,0,0,0,.1.6l.3.4c.1.1.1.2.2.4l.3.3.6.6.5.2h.6a11.9,11.9,0,0,0,1.5-.9,1.8,1.8,0,0,0,.7-1Z" transform="translate(21 0.7)" style="fill:#808284"/><path d="M61.5,19.5l1-1.2a1.4,1.4,0,0,0,.3-1.1.8.8,0,0,0-.2-.4c0-.1-.1-.2-.1-.4l-.3-.3-.3-.3-.2-.2h-.2l-.7-.3h-.9l-.3.3-.4.2-.3.4-.4.3a3,3,0,0,0-.4.8.8.8,0,0,1-.1.4c.1.2.1.5.3.7l.3.4a.2.2,0,0,0,.2.2l.2.2.4.3.4.2.6.3h.3A1.4,1.4,0,0,0,61.5,19.5Z" transform="translate(21 0.7)" style="fill:#808284"/><path d="M55.5,13.9a12.1,12.1,0,0,0-.5,1.4c-.1.4-.3.8,0,1.1l.4.6.3.2.4.3h1.3l.5-.2c0-.1,0-.1.1-.1l.3-.3.3-.4.3-.3.3-.4a2.9,2.9,0,0,0,.2-.9.4.4,0,0,0,.1-.3c-.1-.2-.1-.3-.2-.4L59,14l-.4-.4-.5-.2L57,13H56C55.7,13.1,55.6,13.6,55.5,13.9Z" transform="translate(21 0.7)" style="fill:#808284"/><path d="M33.1,16.3a8.3,8.3,0,0,0-.7-1.3c-.2-.3-.4-.7-.8-.7h-.8l-.4.2-.4.2c-.1,0-.2,0-.2.1h-.2l-.3.3c0,.1-.1.2-.2.3v.2a1.3,1.3,0,0,0-.1.6v.2c.1.1.1.2.1.4s.1.2.1.4l.2.5c.1.1.1.3.2.4a1.3,1.3,0,0,0,.6.7c0,.1.1.1.2.2h.8l.9-.3.8-.7c.2-.2.4-.3.5-.5a.3.3,0,0,0,.1-.2A1.4,1.4,0,0,0,33.1,16.3Z" transform="translate(21 0.7)" style="fill:#808284"/><path d="M24.9,23.8h.6l.3-.3.3-.3.2-.2h.2l.4-.6v-.2a1.4,1.4,0,0,0,.2-.6c-.1-.3-.1-.5-.2-.6s-.4-.5-.6-.7l-.6-.7-.6-.5h-.6l-.2.2-.2.2-.4.3-.3.3-.2.2-.2.2-.3.4a1.4,1.4,0,0,0,0,1.1,8.3,8.3,0,0,0,1.1,1.5c.1.1.2.3.4.4l.6.2Z" transform="translate(21 0.7)" style="fill:#808284"/><path d="M25.6,19.4l.9,1.2c.3.3.6.6.9.5h.8l.3-.2.4-.2H29l.2-.2.2-.3c.1,0,.1-.2.2-.3h.1v-.8c0-.1-.1-.2-.1-.4s-.1-.3-.1-.4l-.2-.5a.8.8,0,0,0-.2-.4,1.8,1.8,0,0,0-.5-.7l-.3-.2h-.8l-1,.5-.8.9-.3.3-.2.3a.4.4,0,0,0-.1.3A1.6,1.6,0,0,0,25.6,19.4Z" transform="translate(21 0.7)" style="fill:#808284"/><path d="M21.9,21.5h-.3q-.2,0-.3.3h-.2l-.2.2-.3.4-.3.4a1.6,1.6,0,0,0-.4.7h-.1a2.2,2.2,0,0,0,0,.8c.1.2.1.4.3.5l.7.5.7.5a1.3,1.3,0,0,0,.7.4c.4.1.7-.3.9-.5l.3-.4h.1c0-.1.1-.1.1-.2l.3-.4c.1-.1.2-.2.2-.3a.4.4,0,0,0,.1-.3.2.2,0,0,0,0-.3.7.7,0,0,0-.1-.5A8.3,8.3,0,0,0,23,22.1a1.3,1.3,0,0,0-1-.6Z" transform="translate(21 0.7)" style="fill:#808284"/><path d="M20.4,29.9h.2c.1-.1.2-.2.2-.3l.2-.2V29a.5.5,0,0,0,.2-.4l.3-.3c0-.1.1-.1.1-.2s0-.1.1-.2v-.5a1.6,1.6,0,0,0,0-.7c-.1-.2-.1-.4-.3-.5l-.7-.5-.7-.5-.7-.3-.5.2-.4.5-.3.4-.2.2a.4.4,0,0,1-.1.3.8.8,0,0,0-.2.4c-.1.2-.2.3-.2.5a.6.6,0,0,0,0,.6c0,.2.1.3.2.5l1.3,1.1.6.3c.2,0,.4.1.5,0Z" transform="translate(21 0.7)" style="fill:#808284"/><path d="M17,28.5h-.2c-.2.1-.2.3-.3.4l-.3.5a.8.8,0,0,0-.2.4,1.7,1.7,0,0,0-.2.5,4.1,4.1,0,0,0-.3.8v.2c.1.2.1.5.2.7a1,1,0,0,0,.4.5h.8l.8.3.8.2h.3a.1.1,0,0,1,.1-.1,1.7,1.7,0,0,0,.2-.5l.4-.8c.1-.2.2-.3.2-.5s.1-.2.1-.4a.4.4,0,0,0,.1-.3.3.3,0,0,0-.1-.2.9.9,0,0,0-.3-.5,4.5,4.5,0,0,0-1.3-1.1.9.9,0,0,0-1.1-.3Z" transform="translate(21 0.7)" style="fill:#808284"/><path d="M17.4,32.9l-1.3-.4c-.4-.1-.8-.2-1.1.1l-.3.3c-.1.1-.2.2-.2.3s-.2.3-.2.4-.2.3-.2.5a.3.3,0,0,1-.1.2v.4a.4.4,0,0,0-.1.3v.4c0,.1.1.2.1.3v.2h.1a.1.1,0,0,0,.1.1l.4.4h1.8l.8-.2.3-.2.3-.3v-.2h.2a.4.4,0,0,1,.1-.3,1.1,1.1,0,0,1,.1-.5v-.5a.6.6,0,0,1,.1-.4v-.3c0-.1-.1-.2-.1-.3S17.7,33.1,17.4,32.9Z" transform="translate(21 0.7)" style="fill:#808284"/><path d="M70.9,36.4h.5l.5-.3.6-.2h.4l.2-.2a.6.6,0,0,0,.1-.4,4.3,4.3,0,0,0-.1-.5.8.8,0,0,1-.1-.4c-.1-.1-.1-.3-.2-.4a.8.8,0,0,0-.2-.5h0v-.2a1,1,0,0,0-.5-.4h-.6l-1,.3h-.2a1.2,1.2,0,0,0-.5.5h-.1a6.4,6.4,0,0,0,.2.7c0,.1.1.3.1.4h0c0,.1.1.2.1.3l.3.6h.1l.4.3Z" transform="translate(21 0.7)" style="fill:#babcbe;mix-blend-mode:screen"/><path d="M74.2,38.8h-.1v-.3A.3.3,0,0,1,74,38h0a.1.1,0,0,0-.1-.1h0a.8.8,0,0,0-.2-.4l-.3-.6h-.1c-.3-.2-.6,0-.9.1l-1.1.5H71a.1.1,0,0,0-.1.1h0c-.1,0-.1,0-.1.1h0l-.2.2V38a.6.6,0,0,0-.1.4v.8h.3c0,.1,0,.1.1.2s.1.2.3.3H72l.4.2h1.3l.2-.2a.3.3,0,0,1,.1-.2h.1A2.8,2.8,0,0,0,74.2,38.8Z" transform="translate(21 0.7)" style="fill:#babcbe;mix-blend-mode:screen"/><path d="M71.2,32h.2l.5-.5h0V31l-.3-.7h0v-.2c-.1-.1-.1-.1-.1-.2h-.1c-.1-.1-.1-.1-.1-.2a1,1,0,0,0-.4-.5h-.1l-.5-.2h-.5c-.2.1-.3.4-.5.5l-.6.4h-.2c0,.1-.1.1-.1.2h0c-.1,0-.1.1-.2.2v.4c.1.1.1.3.2.4s.1.2.1.3.1.3.2.4h.1c0,.1,0,.1.1.2H69c0,.1,0,.1.1.2l.3.2a.5.5,0,0,0,.5,0A3.8,3.8,0,0,0,71.2,32Z" transform="translate(21 0.7)" style="fill:#babcbe;mix-blend-mode:screen"/><path d="M69.4,28h.4c0-.1.1-.1.1-.2s0-.3,0-.5a.8.8,0,0,1-.2-.4l-.2-.3c-.1-.2-.2-.3-.2-.4l-.3-.4h-.1c0-.1-.1-.1-.1-.2a1,1,0,0,0-.9-.1l-1.2.7c0,.1-.1.1-.2.2h0a.9.9,0,0,0-.4.6h.1c0,.1.1.2.1.3l.2.3a.8.8,0,0,0,.2.4c0,.1.1.2.2.3s.2.3.4.4h.5c.2,0,.4.1.5,0l.6-.5Z" transform="translate(21 0.7)" style="fill:#babcbe;mix-blend-mode:screen"/><path d="M61.1,20.7h0v.2l.3.3.3.4H62c0,.1.1.1.1.2l.4.3a.9.9,0,0,0,.6.4h.1a.7.7,0,0,0,.6.1l.6-.2c.2-.2.3-.6.5-.8l.6-.7a4.3,4.3,0,0,0,.4-.7.8.8,0,0,0-.2-.5c0-.1-.1-.2-.2-.3s-.1-.1-.2-.2v-.2H65c-.1-.2-.3-.3-.4-.4l-.4-.3-.4-.3h-.5l-.5.3a7.4,7.4,0,0,0-1.3,1.2,2.1,2.1,0,0,0-.4,1.1Z" transform="translate(21 0.7)" style="fill:#808284"/><path d="M65,20.9h.3c0-.1,0-.2.1-.2a.8.8,0,0,0-.2-.5l-.3-.3-.3-.3c0-.1-.1-.2-.2-.3l-.5-.3h0l-.2-.2a1.1,1.1,0,0,0-.8.1,9.4,9.4,0,0,0-1,1l-.2.2h0a1.9,1.9,0,0,0-.2.7h.1c.1.1.2.2.2.3l.3.3.3.2.2.3.5.3h.6l.5-.2.4-.6Z" transform="translate(21 0.7)" style="fill:#babcbe;mix-blend-mode:screen"/><path d="M67.5,24.5h0c.1-.2.3-.4.3-.6h0a4.3,4.3,0,0,0-.4-.7h0v-.2h-.2c0-.1-.1-.2-.2-.3l-.5-.5H65.3l-.3.4h-.2l-.4.6c-.1,0-.1,0-.1.1h-.2c-.1.1-.1.1-.1.2a.8.8,0,0,0,.3.8l.4.6.4.3h0c0,.1.1.1.1.2h.9l1.2-.7Z" transform="translate(21 0.7)" style="fill:#babcbe;mix-blend-mode:screen"/><path d="M62.2,17.9h0a.1.1,0,0,0,.1-.1h0a.1.1,0,0,0,.1-.1h0v-.3l-.3-.6-.2-.2-.3-.3v-.2c-.1,0-.2,0-.2-.1H60l-.3.2-.3.2-.3.3-.3.2v.2h-.1c0,.1-.1.2-.1.3a.4.4,0,0,1-.1.3c.1.2.1.4.2.6a3,3,0,0,0,.8.8h0l.5.3.5.3h.3a1.7,1.7,0,0,0,.6-.6,3.9,3.9,0,0,0,.8-1A.1.1,0,0,1,62.2,17.9Z" transform="translate(21 0.7)" style="fill:#babcbe;mix-blend-mode:screen"/><path d="M51.4,15.6H52l.4.2.9.2h1.4l.4-.5a3.1,3.1,0,0,0,.1-.9,2.9,2.9,0,0,0,.2-.9,1.1,1.1,0,0,0,0-.8.9.9,0,0,0-.3-.5h-3c-.1.2-.3.3-.3.5a8.5,8.5,0,0,0-.6,1.7,1.7,1.7,0,0,0,.1,1.2Z" transform="translate(21 0.7)" style="fill:#808284"/><path d="M55,13.6h0v-.3l-.3-.3h-.4l-.4-.2H52.8l-.5.2a.5.5,0,0,0-.2.4,6.9,6.9,0,0,0-.5,1.3v.3h0a.9.9,0,0,0,.1.7h2.2c.2-.1.4-.1.5-.3l.3-.2h0a2.5,2.5,0,0,0,.1-.8c.1-.2.1-.5.2-.7h0Z" transform="translate(21 0.7)" style="fill:#babcbe;mix-blend-mode:screen"/><path d="M58.9,15.8h0a.1.1,0,0,0,.1-.1h0V15l-.4-.6c0-.1-.1-.1-.1-.2h-.2l-.4-.3H56.3c-.3.1-.4.5-.5.8s-.1.4-.2.6-.1.4-.2.6h-.1v.2h0a.4.4,0,0,0,.1.3l.4.5H56l.3.2h1.6c.1,0,.1-.1.2-.2l.2-.3.3-.3c.1-.1.2-.2.2-.3Z" transform="translate(21 0.7)" style="fill:#babcbe;mix-blend-mode:screen"/><path d="M51.4,11.7h-.2l-.9-.3H48.4l-.6.4-.3.5c0,.3.1.7.1,1a2.8,2.8,0,0,0-.1.9,2.2,2.2,0,0,0,.1.8.5.5,0,0,0,.4.3h2.3c.4,0,.6-.3.8-.6a15.4,15.4,0,0,0,.5-1.7,1.5,1.5,0,0,0,.1-.7,1.4,1.4,0,0,0-.2-.6Z" transform="translate(21 0.7)" style="fill:#808284"/><path d="M51.1,12.1h-.2c-.2-.2-.5-.2-.7-.3H48.6c-.1.1-.3.1-.4.3l-.3.4c0,.2.1.5.1.8a1.5,1.5,0,0,0-.1.7h0a.3.3,0,0,0,.1.2v.2h2.4l.3-.4a5.7,5.7,0,0,0,.4-1.4h.1A.8.8,0,0,0,51.1,12.1Z" transform="translate(21 0.7)" style="fill:#babcbe;mix-blend-mode:screen"/><path d="M36.8,15.6h2.4l.3-.2c.1,0,.1,0,.1-.1l.3-.2.2-.2a1.4,1.4,0,0,0,.2-.6,2.9,2.9,0,0,0-.2-.9,2.8,2.8,0,0,0-.1-.9,1.9,1.9,0,0,0-.2-.8c-.1-.2-.3-.2-.5-.2H36.8l-.2.2-.2.2a1.4,1.4,0,0,0-.2.6,5.5,5.5,0,0,0,.1,1.8,1.3,1.3,0,0,0,.5,1.1Z" transform="translate(21 0.7)" style="fill:#808284"/><path d="M39.7,12.7v-.2h-.1V12l-.4-.2H37.8l-.5.2h-.2a1,1,0,0,0-.5.8v1.7h0a.7.7,0,0,0,.3.6.1.1,0,0,1,.1.1h1.6l.6-.2h.1c.1-.1.3-.2.3-.4h.1a.6.6,0,0,0,.1-.4c0-.2-.1-.5-.1-.7A2,2,0,0,1,39.7,12.7Z" transform="translate(21 0.7)" style="fill:#babcbe;mix-blend-mode:screen"/><path d="M47.7,13.6V12.1a1.2,1.2,0,0,0-.4-1.1l-.3-.2-.4-.2H45.3l-.7.3h-.2l-.4.4v.2a.6.6,0,0,0-.1.4.6.6,0,0,0-.1.4.9.9,0,0,0-.1.5.9.9,0,0,0-.1.5,1.5,1.5,0,0,0,.2.9.4.4,0,0,0,.1.3l.3.2a.1.1,0,0,0,.1.1h.2l.5.2h1.6l.6-.2h.3A2.2,2.2,0,0,0,47.7,13.6Z" transform="translate(21 0.7)" style="fill:#808284"/><path d="M47.3,12.1h-.1v-.2h-.1c0-.1-.1-.2-.1-.3l-.7-.3h-1l-.6.3h-.2l-.3.4h0c-.1.1-.1.2-.1.4s-.1.2-.1.3v1h0v.2h0v.5l.2.2.3.2h2.3l.2-.2a1.2,1.2,0,0,0,.2-.8Z" transform="translate(21 0.7)" style="fill:#babcbe;mix-blend-mode:screen"/><path d="M39.8,12.2l.3,1.5a1,1,0,0,0,.5,1l.7.3h1.8l.2-.2.3-.4v-.2a.8.8,0,0,1,.1-.4.8.8,0,0,1,.1-.4.9.9,0,0,1,.1-.5v-.5a1.4,1.4,0,0,0-.1-.9l-.2-.3-.7-.4a3.4,3.4,0,0,0-2.2.2h-.7l-.2.2C39.7,11.4,39.8,11.9,39.8,12.2Z" transform="translate(21 0.7)" style="fill:#808284"/><path d="M43.8,12.1v-.2h0a.4.4,0,0,0-.1-.3v-.3a.9.9,0,0,0-.6-.3H41.1l-.6.2-.2.2a1.1,1.1,0,0,0,0,.8h0c.1.4.1.8.2,1.2h.1v.2h.1a.2.2,0,0,0,.2.2h.3l.3.2h1.6l.3-.4h.1v-.3a.6.6,0,0,0,.1-.4c0-.1.1-.3.1-.4a.6.6,0,0,1,.1-.4v-.2Z" transform="translate(21 0.7)" style="fill:#babcbe;mix-blend-mode:screen"/><path d="M35.3,12.5h-.7l-.4.2h-.5l-.4.2-.7.4h-.1a1.5,1.5,0,0,0-.3.7c0,.2-.1.4,0,.6s.4.5.5.8l.4.8a1.5,1.5,0,0,0,.5.6h.5l.5-.2.4-.2h.4l.4-.2.3-.3a.8.8,0,0,0,.4-1,8.6,8.6,0,0,0-.3-1.7,2,2,0,0,0-.8-1Z" transform="translate(21 0.7)" style="fill:#808284"/><path d="M35.7,13.6h0l-.5-.5h-.3l-.7.2h0l-.3.2h-.4l-.3.2-.3.2h0c-.1.2-.3.3-.3.5v.5l.4.6.3.7c.1,0,.1.1.1.2h.7l.4-.2c.2-.1.5-.1.7-.3l.4-.2h.2a.8.8,0,0,0,.3-.8,5.8,5.8,0,0,0-.3-1.4C35.8,13.7,35.8,13.7,35.7,13.6Z" transform="translate(21 0.7)" style="fill:#babcbe;mix-blend-mode:screen"/><path d="M32,15.2h-.4c0-.1-.1-.1-.2-.1h-1L30,15h-.3c-.1.1-.1.2-.2.2l-.2.3c0,.1,0,.1-.1.2a.6.6,0,0,1-.1.4c.1.1.1.1.1.2a.4.4,0,0,0,.1.3.8.8,0,0,0,.1.4.8.8,0,0,0,.1.4v.3a.3.3,0,0,1,.1.2h.2l.2.2.2.2h1.1a.1.1,0,0,1,.1-.1h.4c0-.1,0-.1.1-.1h.1l.3-.2c.1-.1.3-.2.4-.4s.1-.1.1-.2-.1-.6-.2-.9Z" transform="translate(21 0.7)" style="fill:#babcbe;mix-blend-mode:screen"/><path d="M26,20.2l-.4-.5-.2-.2h-.3c-.2-.1-.3,0-.5.1l-.3.2-.3.3-.3.3c-.1.1-.3.2-.4.4h0a.3.3,0,0,0-.1.2c-.1,0-.1.1-.1.2v.2a.9.9,0,0,0,.1.5l.2.3.6.9h.2l.6.3h.3l.5-.4h.3l.3-.2.3-.5h.1c0-.2.1-.4.1-.6a.9.9,0,0,0-.1-.5Z" transform="translate(21 0.7)" style="fill:#babcbe;mix-blend-mode:screen"/><path d="M29.4,18.5c-.1-.1-.1-.2-.1-.4s-.1-.2-.2-.4a.4.4,0,0,0-.1-.3c0-.1-.1-.1-.1-.2h-.1l-.3-.2-.2-.2h-.7a1.2,1.2,0,0,0-.8.4h-.2a.3.3,0,0,1-.1.2c-.1,0-.1,0-.1.1l-.3.3-.3.5c-.1,0-.1.1-.1.2s.2.6.4.8l.7,1H27a.1.1,0,0,0,.1.1h0a.1.1,0,0,0,.1.1H29c.1-.1.1-.1.1-.2h.1l.2-.2v-.2a.6.6,0,0,0,.1-.4v-.2A.4.4,0,0,1,29.4,18.5Z" transform="translate(21 0.7)" style="fill:#babcbe;mix-blend-mode:screen"/><path d="M22.8,22.5l-.2-.2h0A.9.9,0,0,0,22,22h-.3l-.3.2-.3.3H21l-.2.2h0l-.2.3c-.1.1-.2.2-.2.3a.4.4,0,0,0-.1.3h-.1c0,.2-.1.4,0,.6l.2.5.4.2.2.2.6.4h.1a.1.1,0,0,1,.1.1h.7l.3-.4a4.8,4.8,0,0,0,.9-1.1,1,1,0,0,0-.1-.9A4.4,4.4,0,0,0,22.8,22.5Z" transform="translate(21 0.7)" style="fill:#babcbe;mix-blend-mode:screen"/><path d="M13.8,36.8h-.1v.2a4.3,4.3,0,0,0-.1.5v.2c0,.1,0,.2.1.2v.5a.7.7,0,0,0,.1.5,1.9,1.9,0,0,0,.2.8c0,.1.1.1.1.2a1.2,1.2,0,0,0,.5.5l.6.2.9-.2.8-.2.8-.2c.3-.2.2-.7.1-1v-.9a.6.6,0,0,1-.1-.4c0-.2-.1-.3-.1-.5l-.2-.2a.2.2,0,0,0-.2-.2l-.5-.3L15,36.4a1.7,1.7,0,0,0-1.2.3Z" transform="translate(21 0.7)" style="fill:#808284"/><path d="M15.1,36.8h-.3a1.1,1.1,0,0,0-.7.3h0c-.1.1-.1.1-.1.2v.7h0v.2h0c0,.2.1.3.1.4v.4l.2.3h0c.2.1.3.3.4.4l.5.2h2a.5.5,0,0,0,.2-.4V39c-.1-.5-.1-1-.2-1.4a1.3,1.3,0,0,0-.7-.6Z" transform="translate(21 0.7)" style="fill:#babcbe;mix-blend-mode:screen"/><path d="M21.3,26.5l-.6-.4-.6-.4H20c-.1,0-.1,0-.1-.1h-.3a.5.5,0,0,0-.4.2c-.2.1-.3.3-.4.4l-.7,1.2h0v.2a.7.7,0,0,0,.2.9,4.3,4.3,0,0,0,1,.9h.2a1,1,0,0,0,.7.2.1.1,0,0,1,.1-.1h.1l.3-.2c0-.1.1-.2.2-.3h0l.2-.3.2-.3c0-.1.1-.1.1-.2a.4.4,0,0,0,.1-.3v-.2a.3.3,0,0,0,.1-.2.4.4,0,0,0-.1-.3A.5.5,0,0,0,21.3,26.5Z" transform="translate(21 0.7)" style="fill:#babcbe;mix-blend-mode:screen"/><path d="M19.1,30.1c-.2-.2-.3-.4-.5-.5l-.6-.4-.2-.2h0a.8.8,0,0,0-.7,0h-.2a2.5,2.5,0,0,0-.4.7h-.1V30c-.1,0-.1.1-.1.2h-.1c0,.1-.1.3-.1.4a32966741879573.8,32966741879573.8,0,0,0-.2.6v.2a.7.7,0,0,0,.1.5l.3.4.7.2.7.3h.2c0,.1,0,.1.1.1h.3l.3-.3.2-.4.3-.6.2-.4h0c0-.1.1-.1.1-.2h0a.6.6,0,0,0-.1-.4Z" transform="translate(21 0.7)" style="fill:#babcbe;mix-blend-mode:screen"/><path d="M17.1,33.3,15.9,33a.1.1,0,0,0-.1-.1h-.7l-.5.6v.3c0,.1-.1.1-.1.2s0,.1-.1.2v.2h-.1v.4h0a4.3,4.3,0,0,0,.1.5h.1l.3.3h2.5c0-.1.1-.2.2-.3h.3v-.2c0-.1,0-.2.1-.2h0v-.4h0v-.3a1.3,1.3,0,0,0,.1-.6.3.3,0,0,0-.1-.2C17.7,33.5,17.3,33.4,17.1,33.3Z" transform="translate(21 0.7)" style="fill:#babcbe;mix-blend-mode:screen"/></g></g></g></g></svg>