<svg xmlns="http://www.w3.org/2000/svg" width="85.7" height="86.7" viewBox="0 0 85.7 86.7"><g style="isolation:isolate"><g id="Layer_2" data-name="Layer 2"><g id="Layer_4" data-name="Layer 4"><g id="rabbit_toy_1" data-name="rabbit_toy 1"><path d="M72.7,85.2a6.9,6.9,0,0,1-2-.3H69.3l-.6-.2h-2L66,84H64.3c-2-.2-5.9-1.4-8.3-6.4a19.2,19.2,0,0,1-1.7-7.4.8.8,0,0,1-.1-.4V45H9.2A1.3,1.3,0,0,1,8,44.4,1.4,1.4,0,0,1,7.8,43a2.8,2.8,0,0,0,.1-.9V24.8a1.7,1.7,0,0,1,.1-1.4,1.7,1.7,0,0,1,1.3-.7h15V10.1a1.5,1.5,0,0,1,1.5-1.5H45a1.5,1.5,0,0,1,1.5,1.5V22.7h15l.9.2h.5l2.1.5A16.7,16.7,0,0,1,73.3,30a18.9,18.9,0,0,1,2.4,4.7,22.9,22.9,0,0,1,.8,5.4V55.8a11,11,0,0,1,5.6,5.7,20.9,20.9,0,0,1,1.7,8.6,21.3,21.3,0,0,1-1.7,8.6C79.3,84.5,74.6,85.2,72.7,85.2Z" style="fill:#ffeb81"/><path d="M45,10.1V24.2H60.9l1.2.2a10.5,10.5,0,0,1,2.4.6,14.3,14.3,0,0,1,7.6,5.7,12.3,12.3,0,0,1,2.1,4.3,15.3,15.3,0,0,1,.8,4.9c.1,1.7,0,3.5,0,5.3V56.8a9.5,9.5,0,0,1,5.7,5.3,19.7,19.7,0,0,1,1.6,8,20.4,20.4,0,0,1-1.6,8c-2.4,5-6.4,5.6-8,5.6l-1.8-.3h-2l-.6-.2h-2l-.7-.2H64.5c-1.9-.2-5.1-1.2-7.1-5.5a17.7,17.7,0,0,1-1.6-7.2h-.1V45.2a2.2,2.2,0,0,0-.1-1.1,1.7,1.7,0,0,0-1-.6H9.2a3.2,3.2,0,0,0,.2-1.4V24.8a.1.1,0,0,1-.1-.1c0-.2,0-.3-.1-.4H25.7V10.1H45m0-3H25.7a3.1,3.1,0,0,0-3,3V21.2H9.2a3.2,3.2,0,0,0-2.6,1.5,3,3,0,0,0-.2,2.6h0v17a3.1,3.1,0,0,0,.3,2.8,3,3,0,0,0,2.5,1.2H52.7v23a.7.7,0,0,0,.1.5,21.9,21.9,0,0,0,1.8,8c2.7,5.5,7,6.9,9.4,7.2h2.4l.7.2H69l.7.2h.7l2.3.3c1.7,0,7.5-.6,10.7-7.4a23.5,23.5,0,0,0,0-18.5A12.6,12.6,0,0,0,78,54.9V40a19.2,19.2,0,0,0-.9-5.6h0a20.9,20.9,0,0,0-2.5-5.2,18.5,18.5,0,0,0-9.2-6.8,18,18,0,0,0-2.2-.6H48V10.1a3,3,0,0,0-3-3Z" style="fill:#ffaa5a"/><path d="M55.7,48.5V71.8c0,2.7,2.3,9.1,5,9.1h0V48.5Z" style="fill:#ffaa5a;mix-blend-mode:multiply;opacity:0.15"/><path d="M68.8,55.9v6.3a1.5,1.5,0,0,0,1.6,1.4,1.6,1.6,0,0,0,1.7-1.4V55.9a1.7,1.7,0,0,0-1.7-1.5A1.6,1.6,0,0,0,68.8,55.9Z" style="fill:#fff;mix-blend-mode:screen;opacity:0.30000000000000004"/><path d="M6.1,43.5H54.6a1.7,1.7,0,0,1,1,.6,2.2,2.2,0,0,1,.1,1.1v3.3h5V42.1a3.4,3.4,0,0,0-.5-1.7,3.8,3.8,0,0,0-2.9-1.8c-1.2-.1-2.4,0-3.6,0H6.1Z" style="fill:#ffaa5a;mix-blend-mode:multiply;opacity:0.15"/><path d="M48.1,30.5H59.2l2.4.3,2.3.8a8.4,8.4,0,0,1,3.5,3.5,6.5,6.5,0,0,1,.9,2.3,20,20,0,0,1,.4,2.4,1.4,1.4,0,0,0,1.7,1.4h0a2.5,2.5,0,0,0,1.5-2.7,12.7,12.7,0,0,0-.6-2.8,12.3,12.3,0,0,0-1.2-2.6,11,11,0,0,0-4.2-4.1,12.3,12.3,0,0,0-2.6-1.2,24.7,24.7,0,0,0-2.9-.6c-2-.2-4.1-.1-6.2-.1H48.1a1.5,1.5,0,0,0-1.4,1.6A1.5,1.5,0,0,0,48.1,30.5Z" style="fill:#fff;mix-blend-mode:screen;opacity:0.30000000000000004"/><path d="M49.4,47.4a5.1,5.1,0,0,1-4.8-5.3V25.7a5.1,5.1,0,0,1,4.8-5.3,5.1,5.1,0,0,1,4.8,5.3V42.1A5.1,5.1,0,0,1,49.4,47.4Z" style="fill:#ffaa5a"/><path d="M49.4,21.9a3.5,3.5,0,0,1,3.3,3.8V42.1a3.5,3.5,0,0,1-3.3,3.8,3.6,3.6,0,0,1-3.3-3.8V25.7a3.6,3.6,0,0,1,3.3-3.8m0-3a6.6,6.6,0,0,0-6.3,6.8V42.1c0,3.7,2.9,6.8,6.3,6.8a6.6,6.6,0,0,0,6.3-6.8V25.7a6.5,6.5,0,0,0-6.3-6.8Z" style="fill:#e57225"/><path d="M46.9,23.2V38.7a.9.9,0,0,0,.1.5c.2,2.8,4.6,2.8,4.9,0v-16a4.1,4.1,0,0,1,.8,2.5V42.1a3.5,3.5,0,0,1-3.3,3.8,3.6,3.6,0,0,1-3.3-3.8V25.7A4.1,4.1,0,0,1,46.9,23.2Z" style="fill:#ffaa5a;mix-blend-mode:multiply;opacity:0.15"/><path d="M27.2,11.1a5.1,5.1,0,0,1-5.3-4.8,5.1,5.1,0,0,1,5.3-4.8H43.6a5.1,5.1,0,0,1,5.3,4.8,5.1,5.1,0,0,1-5.3,4.8Z" style="fill:#ffaa5a"/><path d="M43.6,3a3.6,3.6,0,0,1,3.8,3.3,3.6,3.6,0,0,1-3.8,3.3H27.2a3.6,3.6,0,0,1-3.8-3.3A3.6,3.6,0,0,1,27.2,3H43.6m0-3H27.2a6.6,6.6,0,0,0-6.8,6.3,6.6,6.6,0,0,0,6.8,6.3H43.6a6.5,6.5,0,0,0,6.8-6.3A6.5,6.5,0,0,0,43.6,0Z" style="fill:#e57225"/><path d="M46.1,3.8h-16c-2.8.3-2.8,4.7,0,5h16a4.1,4.1,0,0,1-2.5.8H27.2a3.6,3.6,0,0,1-3.8-3.3A3.6,3.6,0,0,1,27.2,3H43.6A4.1,4.1,0,0,1,46.1,3.8Z" style="fill:#ffaa5a;mix-blend-mode:multiply;opacity:0.15"/><path d="M10.3,44.9c-3.6,0-6.2-4.6-6.2-11s2.6-11,6.2-11,6.2,4.5,6.2,11S14,44.9,10.3,44.9Z" style="fill:#fcd54d"/><path d="M10.3,25.5c2,0,3.6,3.8,3.6,8.4s-1.6,8.4-3.6,8.4-3.6-3.8-3.6-8.4,1.6-8.4,3.6-8.4m0-5.2c-1.5,0-5.1.6-7.3,5.6a20,20,0,0,0-1.5,8,20,20,0,0,0,1.5,8c2.2,5,5.8,5.6,7.3,5.6s5.2-.6,7.4-5.6a22,22,0,0,0,1.4-8,22,22,0,0,0-1.4-8c-2.2-5-5.9-5.6-7.4-5.6Z" style="fill:#ffaa5a;stroke:#e57225;stroke-linecap:round;stroke-linejoin:round;stroke-width:3px"/><path d="M74.1,81.8C69.9,81.8,67,77,67,70.1s2.9-11.6,7.1-11.6,7.1,4.8,7.1,11.6S78.3,81.8,74.1,81.8Z" style="fill:#fcd54d"/><path d="M74.1,61.3c2.3,0,4.1,3.9,4.1,8.8S76.4,79,74.1,79s-4.2-4-4.2-8.9,1.9-8.8,4.2-8.8m0-5.5c-1.7,0-5.9.6-8.4,5.9A20,20,0,0,0,64,70.1a20.8,20.8,0,0,0,1.7,8.5c2.5,5.3,6.7,5.9,8.4,5.9s5.9-.6,8.4-5.9a20.8,20.8,0,0,0,1.7-8.5,20,20,0,0,0-1.7-8.4c-2.5-5.3-6.7-5.9-8.4-5.9Z" style="fill:#ffaa5a;stroke:#e57225;stroke-linecap:round;stroke-linejoin:round;stroke-width:3px"/></g></g></g></g></svg>