<svg xmlns="http://www.w3.org/2000/svg" width="84.9" height="86.7" viewBox="0 0 84.9 86.7"><g style="isolation:isolate"><g id="Layer_2" data-name="Layer 2"><g id="Layer_4" data-name="Layer 4"><g id="rabbit_food_1" data-name="rabbit_food 1"><path d="M47,57.2a1.6,1.6,0,0,1-1-.2,2.2,2.2,0,0,1-.9-1,.6.6,0,0,0-.1-.4l-.9-5.7a2.3,2.3,0,0,1,.4-1.6c2.2-2.5,21.1-24.4,31.9-24.4h.4a6.7,6.7,0,0,1,5.3,2.9,7.4,7.4,0,0,1,1,6.3c-3.4,11.1-32.2,22.7-35.4,24Z" style="fill:#4a8c32"/><path d="M76.4,25.4h.4a4.8,4.8,0,0,1,4,2.2,5.5,5.5,0,0,1,.8,5.1c-3.2,10.6-33.2,22.5-34.5,23h-.4l-.2-.2h0l-.9-5.8c-.1-.1,0-.2.1-.3S66.1,25.4,76.4,25.4m0-3h0c-11.2,0-29.5,20.8-33,24.9a3.2,3.2,0,0,0-.8,2.8l1,5.8c0,.2.1.4.1.6a3.5,3.5,0,0,0,1.6,1.8,3.3,3.3,0,0,0,1.7.4,2.5,2.5,0,0,0,1.2-.2C53.7,56.4,81,45.1,84.5,33.6a8.8,8.8,0,0,0-1.2-7.7,7.8,7.8,0,0,0-6.4-3.5Z" style="fill:#2e5b1d"/><path d="M58.7,41.6l2-1.8c1.5-1.2,3.1-2.5,4.9-3.7s3.6-2.3,5.3-3.2l2.4-1.2,2.2-.9a15.8,15.8,0,0,1,4.4-1.4c0,.1-1.6.7-4.2,2l-2.1,1-2.3,1.2-5.2,3.2c-1.8,1.2-3.4,2.5-4.9,3.7l-2,1.7-1.7,1.5-3.4,3.2c-.1-.1,1-1.5,2.9-3.6Z" style="fill:#3b2910;mix-blend-mode:multiply;opacity:0.2"/><path d="M37.1,54a1.6,1.6,0,0,1-1.4-.7l-4.6-5.2a1.6,1.6,0,0,1-.3-.6,1.8,1.8,0,0,1,.9-2.3,15.9,15.9,0,0,0,6.8-8.7,26.3,26.3,0,0,0,.7-11.7c-.1-.3-.1-.6-.2-1a19.6,19.6,0,0,1-.3-4.9,7.8,7.8,0,0,1,3.5-6.2,10.7,10.7,0,0,1,4.1-1,6.6,6.6,0,0,0,2.6-.6c1-.5,1.5-1.9,2.1-3.5S52.8,3.1,55.3,2a5.9,5.9,0,0,1,2.3-.5,7.4,7.4,0,0,1,5.8,3.2,11.5,11.5,0,0,1,1.5,7.6c-.6,7.1-3.7,14.7-9.4,23.3A66.5,66.5,0,0,1,38.2,53.7,2,2,0,0,1,37.1,54Z" style="fill:#6c9433"/><path d="M57.6,3a6,6,0,0,1,4.6,2.5,10,10,0,0,1,1.2,6.7c-.6,6.8-3.6,14.2-9.2,22.6A64.3,64.3,0,0,1,37.4,52.4h-.6l-4.5-5.3c-.1,0-.1,0-.1-.1v-.2c0-.2.1-.3.2-.3A17.2,17.2,0,0,0,39.9,37a27.9,27.9,0,0,0,.8-12.4c-.1-.3-.1-.7-.2-1a23.2,23.2,0,0,1-.4-4.6A6.3,6.3,0,0,1,43,14a8.1,8.1,0,0,1,3.4-.8,6.6,6.6,0,0,0,3.2-.8c1.5-.8,2.1-2.5,2.8-4.2s1.6-4,3.5-4.8A3.8,3.8,0,0,1,57.6,3m0-3h0a7.2,7.2,0,0,0-2.9.6c-3,1.4-4.2,4.3-5,6.5a7.1,7.1,0,0,1-1.6,2.8,7.5,7.5,0,0,1-1.9.3,12.6,12.6,0,0,0-4.7,1.2,8.8,8.8,0,0,0-4.3,7.4,22.6,22.6,0,0,0,.3,5.3h0c.1.3.1.6.2,1A22.8,22.8,0,0,1,37,36a13.2,13.2,0,0,1-6.1,7.8,3.5,3.5,0,0,0-1.5,4.3,2.1,2.1,0,0,0,.6,1l4.5,5.2a3.4,3.4,0,0,0,2.6,1.2,3.6,3.6,0,0,0,2-.6A68.7,68.7,0,0,0,56.7,36.5c5.9-8.8,9.1-16.7,9.7-24.1a13.5,13.5,0,0,0-1.7-8.5A8.8,8.8,0,0,0,57.6,0Z" style="fill:#507125"/><path d="M42.2,24.7a16.2,16.2,0,0,1,3.1,1.9,14.6,14.6,0,0,1,2.5,2.6l.4.7a.3.3,0,0,0,.1-.2A38,38,0,0,0,49.9,23a28.8,28.8,0,0,0,.4-5.6,29.6,29.6,0,0,0-.7-5.2c.1,0,.1.1.2.3a5.1,5.1,0,0,1,.4,1,15.2,15.2,0,0,1,.7,3.8,23.3,23.3,0,0,1-.2,5.8,25.6,25.6,0,0,1-.5,2.7l5.3-4.6c3.5-2.8,6.4-4.9,6.5-4.7s-2.5,2.6-5.9,5.4a68.3,68.3,0,0,1-6,4.5,24.2,24.2,0,0,1-1,3.6,43.2,43.2,0,0,1-5.6,11.4,17.3,17.3,0,0,1-2.4,3c-.6.7-.9,1-1,1S41.3,43.8,43,41a53.8,53.8,0,0,0,5.1-10.7c-.6-.5-1.8-1.7-3.4-3s-4.1-2.7-4-3S41.3,24.4,42.2,24.7Z" style="fill:#3b2910;mix-blend-mode:multiply;opacity:0.2"/><path d="M9.4,85.2a9.5,9.5,0,0,1-3-.4,6.9,6.9,0,0,1-3-2,7.5,7.5,0,0,1-1.8-6.3c1-11,19.1-30,23.9-33.4a11,11,0,0,1,6.8-2.3c6.3,0,11.1,5.2,11.1,5.2s8.7,9.7,1.5,18.1C41,68.5,20.6,85,9.6,85.2Z" style="fill:#ff8d3d"/><path d="M32.3,42.3c5.5,0,9.9,4.7,10,4.7s7.8,8.7,1.4,16.1C40.1,67.3,19.9,83.5,9.5,83.7H9.4a6.6,6.6,0,0,1-2.5-.4,5.5,5.5,0,0,1-2.4-1.5A6.4,6.4,0,0,1,3,76.6c1.1-10.3,18.9-29,23.4-32.3a9.5,9.5,0,0,1,5.9-2m0-3h0a12.6,12.6,0,0,0-7.7,2.6C20.3,45,1.3,64.4.1,76.3a9.6,9.6,0,0,0,2.2,7.6A9.3,9.3,0,0,0,6,86.2a11.6,11.6,0,0,0,3.4.5h.2c12-.2,32.9-17.6,36.4-21.6,6.5-7.6,1.9-16.5-1.5-20.1-.2-.2-5.3-5.7-12.2-5.7Z" style="fill:#e57225"/><g style="opacity:0.5"><path d="M38.1,58.1c2.9,2.4,5.7,3.7,5.9,3.4s-2.3-2.1-5.1-4.4-4.9-4.4-5.2-4.2S35.2,55.7,38.1,58.1Z" style="fill:#fff6eb"/></g><g style="opacity:0.5"><path d="M25.3,56.3a26.8,26.8,0,0,0,4.5,3c1.2.7,2.1,1,2.2.8s-2.7-2.2-5.9-4.8-5.4-5.2-5.7-5,.3.9,1.1,2A33.5,33.5,0,0,0,25.3,56.3Z" style="fill:#fff6eb"/></g><g style="opacity:0.5"><path d="M26.5,69.6c2.7,2,5.3,2.9,5.5,2.6s-2.1-1.7-4.7-3.7-4.7-3.7-5-3.4S23.7,67.5,26.5,69.6Z" style="fill:#fff6eb"/></g></g></g></g></g></svg>