<svg xmlns="http://www.w3.org/2000/svg" width="86.6" height="86.9" viewBox="0 0 86.6 86.9"><g style="isolation:isolate"><g id="Layer_2" data-name="Layer 2"><g id="Layer_4" data-name="Layer 4"><g id="rabbit_food_3" data-name="rabbit_food 3"><path d="M51.5,49.9H49.6a19.3,19.3,0,0,1-3.4-1.1h-.1a5.3,5.3,0,0,0-2-.5h-.2a4.8,4.8,0,0,0-1.8.6l-.8.3a9.4,9.4,0,0,1-3.7.7,11.5,11.5,0,0,1-4.1-.8c-5-2.2-7.2-7.2-8.6-11.4S22.1,28.3,23.1,23a14.9,14.9,0,0,1,8.1-10.9,13.7,13.7,0,0,1,6.6-1.6h.5a16.7,16.7,0,0,1,3.8.6l1.2.5a13.4,13.4,0,0,1,4.1-2.2,14,14,0,0,1,4.1-.6,14.9,14.9,0,0,1,3.6.5c4.4,1.1,8.2,4.6,10.3,9.5a25.5,25.5,0,0,1,1.7,14.7c-.9,5.3-3.2,9.8-6.5,12.7a13.8,13.8,0,0,1-6.9,3.5,8.6,8.6,0,0,1-2.2.2Z" style="fill:#c3bf4f"/><path d="M51.5,10.3a16.5,16.5,0,0,1,3.2.4A14.6,14.6,0,0,1,64,19.4a23.7,23.7,0,0,1,1.6,13.9,20.6,20.6,0,0,1-6,11.8,11.8,11.8,0,0,1-6.2,3.1,6.2,6.2,0,0,1-1.9.2H49.9a12.8,12.8,0,0,1-3.3-1.1,7.1,7.1,0,0,0-2.5-.6h-.4a17.6,17.6,0,0,0-3,1,8.1,8.1,0,0,1-3.1.6,8.4,8.4,0,0,1-3.5-.7c-4.3-1.9-6.4-6.3-7.8-10.5s-2.6-9.1-1.8-13.7a14.1,14.1,0,0,1,7.3-9.9,13.9,13.9,0,0,1,6-1.4h.4a9.7,9.7,0,0,1,3.4.6,8.5,8.5,0,0,1,1.7.6.1.1,0,0,1,.1.1,15,15,0,0,1,4.5-2.4,10.5,10.5,0,0,1,3.6-.6m0-3A13.3,13.3,0,0,0,47,8a17.7,17.7,0,0,0-3.9,1.9l-.6-.2A19.4,19.4,0,0,0,38.3,9h-.5a17,17,0,0,0-7.3,1.7,16.8,16.8,0,0,0-8.9,12.1c-1,5.6.5,11,1.9,15.2s3.9,9.8,9.4,12.2a11,11,0,0,0,4.7,1,10.1,10.1,0,0,0,4.2-.8l.9-.3a3.4,3.4,0,0,1,1.4-.5l1.4.4h.1a28.5,28.5,0,0,0,3.8,1.2h2.1l2.4-.2a16,16,0,0,0,7.7-3.8,24.1,24.1,0,0,0,7-13.6,27.7,27.7,0,0,0-1.8-15.6c-2.4-5.3-6.5-9.1-11.3-10.4a18.3,18.3,0,0,0-4-.5Z" style="fill:#928e31"/><path d="M42.8,13.3c-1.7-.2-2.1-1.7-2.4-2.7v-.3L39.5,8l-.2-.5a6.9,6.9,0,0,1-.4-4.3A3.5,3.5,0,0,1,42.1,1a2.8,2.8,0,0,1,1.8.6c1.4,1.1,1.3,2.8,1.3,4.1V9h.1a1.7,1.7,0,0,1,.5,1.2,1.1,1.1,0,0,1,0,.8A3.2,3.2,0,0,1,43,13.3Z" style="fill:#d98885"/><path d="M42.1,2a1.9,1.9,0,0,1,1.2.4c1.1.9.9,2.6.9,3.9V9.1c0,.5.6.6.7,1.2a1.1,1.1,0,0,1-.1.5A2.2,2.2,0,0,1,43,12.3h-.1c-1.1-.1-1.4-1.4-1.7-2.3a20.9,20.9,0,0,0-.8-2.3c-.4-1.3-1.1-2.8-.5-4.1A2.5,2.5,0,0,1,42.1,2m0-2A4.4,4.4,0,0,0,38,2.9a7,7,0,0,0,.4,5c0,.1.1.3.1.4l.3.9.5,1.4v.3c.3,1,1,3.2,3.3,3.3H43a4.2,4.2,0,0,0,3.8-3.1,2,2,0,0,0,0-1.1,2.1,2.1,0,0,0-.6-1.5V5.7c0-1.4.1-3.5-1.7-4.8A3.6,3.6,0,0,0,42.1,0Z" style="fill:#6a3417"/><path d="M32.1,16.9a7.2,7.2,0,0,1-4-1.2l-1-.7a2.9,2.9,0,0,0-1.7-.9h-.6A1.7,1.7,0,0,1,23.2,13a1.9,1.9,0,0,1,.5-2.1,14.8,14.8,0,0,1,8.2-3.5H33a12.7,12.7,0,0,1,3.4.5c1.3.3,3.5,1.2,4.2,3.1a1.5,1.5,0,0,1-.3,1.7h-.1a3.1,3.1,0,0,1-1.5,1.1l-.5.2a2.7,2.7,0,0,0-.8.7l-.9.7a7.8,7.8,0,0,1-4.1,1.4Z" style="fill:#b9e48e"/><path d="M33,8.4a11.7,11.7,0,0,1,3.2.4c1.3.4,3,1.2,3.5,2.5a.8.8,0,0,1-.2.8c-.1.1-.1.1-.1.2s-1.3.6-1.8,1l-1.7,1.4a6.4,6.4,0,0,1-3.5,1.2h-.2a6.5,6.5,0,0,1-3.6-1c-1-.7-1.9-1.8-3.2-1.8h-.6a.8.8,0,0,1-.4-1.4A14.1,14.1,0,0,1,32,8.4h1m0-2H31.8a14.5,14.5,0,0,0-8.7,3.7,2.8,2.8,0,0,0-.8,3.2,2.6,2.6,0,0,0,2.5,1.7h.6c.2,0,.8.5,1.1.7l1,.8a9.5,9.5,0,0,0,4.7,1.3h.2a8.8,8.8,0,0,0,4.7-1.6,3.4,3.4,0,0,0,.9-.8l.8-.6h.3a4.2,4.2,0,0,0,2-1.5h0a2.7,2.7,0,0,0,.5-2.6c-.9-2.4-3.5-3.4-4.9-3.8A15,15,0,0,0,33,6.4Z" style="fill:#507125"/><path d="M52.6,12.4h-.9l-1.1-.2-1-.2H48.3a2.4,2.4,0,0,1-1.2-.3h0a1.8,1.8,0,0,1-1.2-1.3c-.3-2.1,1.3-3.9,2.2-4.8a13.9,13.9,0,0,1,3.8-2.5,13.5,13.5,0,0,1,5.7-1.2,17.3,17.3,0,0,1,3.2.3A1.8,1.8,0,0,1,62.2,4,1.7,1.7,0,0,1,61,5.7c-.6.1-.9.8-1.3,1.7a11.7,11.7,0,0,1-.5,1.1A7.4,7.4,0,0,1,56,11.6,7.7,7.7,0,0,1,52.6,12.4Z" style="fill:#b9e48e"/><path d="M57.6,2.9a13.6,13.6,0,0,1,2.9.3c.8.1,1,1.3.2,1.5S59,6.9,58.3,8a6.1,6.1,0,0,1-2.8,2.7,7.3,7.3,0,0,1-2.9.7h-.7l-2.2-.4H47.5a.9.9,0,0,1-.6-.6c-.2-1.4.9-2.9,1.9-3.9A11.8,11.8,0,0,1,52.3,4a12.3,12.3,0,0,1,5.3-1.1m0-2h0a14.2,14.2,0,0,0-6.1,1.3,13.9,13.9,0,0,0-4.1,2.7c-1.1,1-2.8,3.1-2.5,5.6a2.7,2.7,0,0,0,1.7,2.1,3.3,3.3,0,0,0,1.7.4h1.2l.9.2,1.2.2h1a7.9,7.9,0,0,0,3.8-.9A8.9,8.9,0,0,0,60.1,9a6.1,6.1,0,0,0,.5-1.2l.6-1.1a2.6,2.6,0,0,0,2-2.7A3,3,0,0,0,61,1.2,18.7,18.7,0,0,0,57.6.9Z" style="fill:#507125"/><path d="M58.5,15.6c-1.1-1.1-4.2-3.7-5.6-1.4s.2,3.4.7,4.8,1.1,4.2,2.5,5.8,4.3.7,5-1.3S60.3,17.5,58.5,15.6Z" style="fill:#ec7670;mix-blend-mode:screen"/><path d="M61.9,31.4a12,12,0,0,0-.3-2,3.5,3.5,0,0,0-1.6-2,2.4,2.4,0,0,0-2.3,0,3.8,3.8,0,0,0-1.5,2,12.3,12.3,0,0,0-.2,1.9,3.1,3.1,0,0,0,2.9,3C60.4,34.2,62,33,61.9,31.4Z" style="fill:#ec7670;mix-blend-mode:screen"/><path d="M69.1,85.4H67.2a15.1,15.1,0,0,1-3.4-1.1h-.2a4.7,4.7,0,0,0-1.9-.6h-.2a6.7,6.7,0,0,0-1.8.7l-.9.3a8.9,8.9,0,0,1-3.6.7,9.8,9.8,0,0,1-4.1-.9c-5-2.1-7.2-7.2-8.6-11.3s-2.8-9.2-1.9-14.5a15.4,15.4,0,0,1,8.1-10.9A14.4,14.4,0,0,1,55.4,46h.4a12.1,12.1,0,0,1,3.8.6l1.2.4A16.5,16.5,0,0,1,65,44.9a13.5,13.5,0,0,1,4.1-.6,14.9,14.9,0,0,1,3.6.5c4.4,1.1,8.1,4.6,10.3,9.5A25.5,25.5,0,0,1,84.7,69a22,22,0,0,1-6.6,12.7,13.1,13.1,0,0,1-6.8,3.5l-2.2.2Z" style="fill:#ffaa5a"/><path d="M69.1,45.8a11.2,11.2,0,0,1,3.2.4c4.3,1.1,7.6,4.7,9.3,8.7a24.2,24.2,0,0,1,1.6,13.8c-.8,4.4-2.7,8.9-6.1,11.9A11.9,11.9,0,0,1,71,83.7l-1.9.2H67.4a13.5,13.5,0,0,1-3.2-1.1,7.2,7.2,0,0,0-2.5-.7h-.4a10.6,10.6,0,0,0-3,1,8.5,8.5,0,0,1-3.1.6,8.4,8.4,0,0,1-3.5-.7c-4.3-1.9-6.4-6.3-7.8-10.5s-2.6-9.1-1.8-13.7a14.1,14.1,0,0,1,7.3-9.9,13.9,13.9,0,0,1,6-1.4h.4a10.2,10.2,0,0,1,3.4.6,4.9,4.9,0,0,1,1.7.6H61a19.2,19.2,0,0,1,4.4-2.5,15,15,0,0,1,3.7-.5m0-3a14.3,14.3,0,0,0-4.6.7,12.9,12.9,0,0,0-3.9,1.9l-.5-.2a15.4,15.4,0,0,0-4.2-.7h-.5a16.6,16.6,0,0,0-7.3,1.7,16.8,16.8,0,0,0-8.9,12.1c-1,5.6.5,11,1.9,15.2s3.9,9.8,9.4,12.2a11,11,0,0,0,4.7,1,10.4,10.4,0,0,0,4.2-.8l.9-.3,1.4-.6a4.3,4.3,0,0,1,1.3.5h.2A17.2,17.2,0,0,0,67,86.7l2.1.2,2.4-.2a15,15,0,0,0,7.6-3.9c3.6-3.1,6.1-8,7.1-13.5a26.7,26.7,0,0,0-1.9-15.6c-2.3-5.4-6.4-9.1-11.2-10.4a18.3,18.3,0,0,0-4-.5Z" style="fill:#ff8d3d"/><path d="M60.4,48.7c-1.7-.1-2.2-1.7-2.5-2.6v-.3l-.7-2.3-.2-.5c-.4-1.2-1-2.8-.4-4.3a3.5,3.5,0,0,1,3.2-2.2,3,3,0,0,1,1.8.6c1.3,1.1,1.3,2.8,1.3,4.1v3.2c0,.1,0,.1.1.1a2.3,2.3,0,0,1,.5,1.2c.1.2,0,.5,0,.8a3.1,3.1,0,0,1-2.8,2.2Z" style="fill:#d98885"/><path d="M59.7,37.5a1.9,1.9,0,0,1,1.2.4c1.1.9.8,2.6.9,3.9v2.7c0,.6.6.7.6,1.3v.4a2.1,2.1,0,0,1-1.8,1.5h-.1c-1.2-.1-1.4-1.3-1.7-2.2s-.5-1.6-.8-2.3-1.1-2.8-.6-4.1a2.6,2.6,0,0,1,2.3-1.6m0-2a4.4,4.4,0,0,0-4.1,2.9,6.7,6.7,0,0,0,.4,4.9,4.3,4.3,0,0,0,.1.5l.8,2.3c0,.1.1.2.1.3s1,3.1,3.3,3.3h.3a4,4,0,0,0,3.7-3,2.5,2.5,0,0,0,.1-1.2,3.7,3.7,0,0,0-.6-1.4V41.2c0-1.4,0-3.5-1.7-4.9a4.1,4.1,0,0,0-2.4-.8Z" style="fill:#6a3417"/><path d="M76.1,51.1c-1.1-1.1-4.2-3.7-5.6-1.4s.2,3.4.7,4.8,1.1,4.2,2.5,5.7,4.2.7,5-1.3S77.9,53,76.1,51.1Z" style="fill:#ec7670;mix-blend-mode:screen"/><path d="M79.4,66.9a6.5,6.5,0,0,0-.2-2,3.2,3.2,0,0,0-1.6-2,2.1,2.1,0,0,0-2.3,0,3,3,0,0,0-1.5,2,6.2,6.2,0,0,0-.2,1.9,3,3,0,0,0,2.9,2.9C78,69.7,79.6,68.5,79.4,66.9Z" style="fill:#ec7670;mix-blend-mode:screen"/><path d="M17.5,85.4l-2.2-.2a13.8,13.8,0,0,1-6.9-3.5A22.4,22.4,0,0,1,1.9,69,25.5,25.5,0,0,1,3.6,54.3c2.2-4.9,5.9-8.4,10.3-9.5a14.9,14.9,0,0,1,3.6-.5,14,14,0,0,1,4.1.6A15.8,15.8,0,0,1,25.7,47l1.2-.4a13.2,13.2,0,0,1,3.9-.6h.4a14.4,14.4,0,0,1,6.7,1.6A15.4,15.4,0,0,1,46,58.5c.9,5.3-.5,10.5-1.9,14.5s-3.6,9.2-8.6,11.3a9.8,9.8,0,0,1-4.1.9,8.9,8.9,0,0,1-3.6-.7l-.9-.3a6.7,6.7,0,0,0-1.8-.7h-.2a4.7,4.7,0,0,0-1.9.6h-.2a19.3,19.3,0,0,1-3.4,1.1Z" style="fill:#e05555"/><path d="M17.5,45.8a15,15,0,0,1,3.7.5,19.2,19.2,0,0,1,4.4,2.5h.1a4.9,4.9,0,0,1,1.7-.6,9.7,9.7,0,0,1,3.4-.6h.4a13.9,13.9,0,0,1,6,1.4,14.1,14.1,0,0,1,7.3,9.9c.8,4.6-.3,9.3-1.8,13.7S39.2,81.1,34.9,83a8.4,8.4,0,0,1-3.5.7,8.5,8.5,0,0,1-3.1-.6,11.8,11.8,0,0,0-3-1h-.4a7.2,7.2,0,0,0-2.5.7,13.5,13.5,0,0,1-3.2,1.1H17.5l-1.9-.2a11.9,11.9,0,0,1-6.1-3.1A20.2,20.2,0,0,1,3.4,68.7,23.4,23.4,0,0,1,5,54.9c1.7-4,5-7.6,9.3-8.7a11.2,11.2,0,0,1,3.2-.4m0-3a18.3,18.3,0,0,0-4,.5c-4.8,1.3-8.9,5-11.3,10.4A27.5,27.5,0,0,0,.4,69.3c1,5.5,3.5,10.4,7,13.5a15.7,15.7,0,0,0,7.7,3.9l2.4.2,2.1-.2a17.2,17.2,0,0,0,3.8-1.1h.1a6,6,0,0,1,1.4-.5l1.4.6.9.3a10.4,10.4,0,0,0,4.2.8,11,11,0,0,0,4.7-1c5.5-2.4,7.9-7.8,9.4-12.2s2.9-9.6,1.9-15.2A16.4,16.4,0,0,0,31.2,44.5h-.5a15.4,15.4,0,0,0-4.2.7l-.6.2a11.3,11.3,0,0,0-3.8-1.9,14.3,14.3,0,0,0-4.6-.7Z" style="fill:#b53c3c"/><path d="M26,48.7a3.1,3.1,0,0,1-2.8-2.2c0-.3-.1-.6,0-.8a1.7,1.7,0,0,1,.5-1.2c.1,0,.1,0,.1-.1V41.2c0-1.3,0-3,1.3-4.1a3,3,0,0,1,1.8-.6,3.5,3.5,0,0,1,3.2,2.2c.6,1.5,0,3.1-.4,4.3l-.2.5-.7,2.3v.3c-.3.9-.8,2.5-2.5,2.6Z" style="fill:#d98885"/><path d="M26.9,37.5a2.6,2.6,0,0,1,2.3,1.6c.5,1.3-.2,2.8-.6,4.1s-.5,1.5-.8,2.3-.5,2.1-1.7,2.2H26a2.1,2.1,0,0,1-1.8-1.5c0-.1-.1-.3,0-.4s.6-.7.6-1.3V41.8c0-1.3-.2-3,.9-3.9a1.9,1.9,0,0,1,1.2-.4m0-2h0a4.1,4.1,0,0,0-2.4.8c-1.8,1.4-1.7,3.5-1.7,4.9v2.9a3.6,3.6,0,0,0-.6,1.5,2.2,2.2,0,0,0,.1,1.1,4,4,0,0,0,3.7,3h.3c2.3-.2,3-2.3,3.3-3.3s.1-.2.1-.3l.5-1.5.3-.8a4.3,4.3,0,0,0,.1-.5,6.7,6.7,0,0,0,.4-4.9,4.4,4.4,0,0,0-4.1-2.9Z" style="fill:#6a3417"/><path d="M39.6,51.4A8.7,8.7,0,0,1,35.5,50l-.9-.7a2.7,2.7,0,0,0-.8-.7l-.5-.2a3.1,3.1,0,0,1-1.5-1.1h-.1a1.7,1.7,0,0,1-.3-1.7c.7-1.9,2.9-2.8,4.2-3.1a10,10,0,0,1,3.4-.5h1.1a14.8,14.8,0,0,1,8.2,3.5,1.9,1.9,0,0,1,.5,2.1,1.5,1.5,0,0,1-1.6,1.1h-.6a3.1,3.1,0,0,0-1.7.9l-1,.7a7.2,7.2,0,0,1-4,1.2Z" style="fill:#b9e48e"/><path d="M39,42.9h1a14,14,0,0,1,7.7,3.3.8.8,0,0,1-.5,1.4h-.6c-1.2,0-2.2,1.1-3.2,1.8a7.4,7.4,0,0,1-3.5,1h-.2a7.7,7.7,0,0,1-3.6-1.2l-1.7-1.4c-.5-.4-1.4-.5-1.8-1v-.2a.7.7,0,0,1-.3-.8c.5-1.3,2.2-2.1,3.5-2.5a12.2,12.2,0,0,1,3.2-.4m0-2h0a15.7,15.7,0,0,0-3.7.5c-1.4.4-4,1.4-4.9,3.7a2.9,2.9,0,0,0,.5,2.7A4,4,0,0,0,33,49.3h.3l.7.6,1,.8a8.2,8.2,0,0,0,4.6,1.6h.3A8.6,8.6,0,0,0,44.5,51l1-.7a2.8,2.8,0,0,1,1.1-.7h.6a2.6,2.6,0,0,0,2.5-1.7,2.7,2.7,0,0,0-.7-3.2,15.5,15.5,0,0,0-8.8-3.8Z" style="fill:#507125"/><path d="M18.3,42.5h-.6a2.2,2.2,0,0,1-1.6-.9l-.5-.4-.9-.4-1.1-.5a8.1,8.1,0,0,1-3-3.1,7.5,7.5,0,0,1-.7-4.4,5,5,0,0,1,.2-1.2c.2-1,.4-1.7,0-2.1a1.7,1.7,0,0,1-.2-1.8,2,2,0,0,1,1.7-1.1l.7.2A14.8,14.8,0,0,1,19,32.6a11.6,11.6,0,0,1,1.5,4.3c.3,1.3.4,3.7-1,5.1a1.3,1.3,0,0,1-1.2.5Z" style="fill:#b9e48e"/><path d="M11.6,27.5h.3a13.3,13.3,0,0,1,6.2,5.5,11.9,11.9,0,0,1,1.4,4c.3,1.3.3,3.2-.7,4.2s-.3.2-.5.2h-.5c-.6,0-1.1-.8-1.7-1.1s-1.3-.6-2-1a6.2,6.2,0,0,1-2.6-2.7,6.3,6.3,0,0,1-.6-3.8c.1-1.3.9-2.9,0-4a.8.8,0,0,1,.7-1.3m0-2h0A3,3,0,0,0,9,27.2,2.6,2.6,0,0,0,9.3,30a3.4,3.4,0,0,1-.2,1.3,5.1,5.1,0,0,0-.2,1.3,8.3,8.3,0,0,0,.9,4.9,7.9,7.9,0,0,0,3.4,3.6l1.1.5.8.4.3.2a3.5,3.5,0,0,0,2.2,1.2h.7a2.7,2.7,0,0,0,1.9-.8c1.7-1.7,1.6-4.5,1.3-6a15.7,15.7,0,0,0-1.6-4.6,15.8,15.8,0,0,0-7.2-6.3,2,2,0,0,0-1.1-.3Z" style="fill:#507125"/><path d="M10.5,51.1c1.1-1.1,4.2-3.7,5.6-1.4s-.2,3.4-.7,4.8-1.1,4.2-2.5,5.7-4.3.7-5-1.3S8.7,53,10.5,51.1Z" style="fill:#ec7670"/><path d="M7.2,66.9a6.5,6.5,0,0,1,.2-2,3.2,3.2,0,0,1,1.6-2,2.1,2.1,0,0,1,2.3,0,3.8,3.8,0,0,1,1.5,2,6.2,6.2,0,0,1,.2,1.9,3,3,0,0,1-2.9,2.9C8.6,69.7,7,68.5,7.2,66.9Z" style="fill:#ec7670"/></g></g></g></g></svg>