<svg xmlns="http://www.w3.org/2000/svg" width="86.6" height="87" viewBox="0 0 86.6 87"><g style="isolation:isolate"><g id="Layer_2" data-name="Layer 2"><g id="Layer_4" data-name="Layer 4"><g id="rabbit_food_4" data-name="rabbit_food 4"><path d="M50.4,13.7a6.7,6.7,0,0,1,3.1,1A7.5,7.5,0,0,1,56,17.2h.7a8,8,0,0,1,4.6,2c2.6,2.3,3.5,5.7,4,9l.3,3a47,47,0,0,1-1.5,14.9,24.2,24.2,0,0,1-4.7,9.5,13.8,13.8,0,0,1-3,2.4l-1.3.4h-.3A5.8,5.8,0,0,1,53,58h-.2l-.3.5a8.4,8.4,0,0,1-3.5,3l-1,.4H46.8a7.8,7.8,0,0,1-3.2-1.5l-1-.8-.5-.4h0a5,5,0,0,1-2,.8h-.6a6.9,6.9,0,0,1-4.1-1.7,21.7,21.7,0,0,1-5.2-5.7,39.1,39.1,0,0,1-4-7.9l-.7-1.9a44.5,44.5,0,0,1-1.9-8.2,18.2,18.2,0,0,1-.2-5.2,14.2,14.2,0,0,1,.8-4.1,11.1,11.1,0,0,1,.7-1.6h0l.6-.8A8.4,8.4,0,0,1,30,20.1h0a10.3,10.3,0,0,1,2.7-3.6,4.1,4.1,0,0,1,1.1-.7,3.3,3.3,0,0,1,1.7-.4,10.6,10.6,0,0,1,3.6.9l1.6-1.8a15.3,15.3,0,0,1,.3,3,20.4,20.4,0,0,0-6.8,2.8h0l1,.4,1.5.7.6-.2.8-.3h1.4a5.8,5.8,0,0,1,3.3,1l.7.6a5.4,5.4,0,0,1,3.4-2.3h1c0-.1-.1-.1-.1-.2a11.2,11.2,0,0,0-2.4-1.9h0c-.3-.1-.5-.5-.6-.8a1.9,1.9,0,0,1-.2-.7L44.1,14h.1l.9.5,1.2.9a12.6,12.6,0,0,1,3.3-1.6h.8m0-3-1.5.2a13.4,13.4,0,0,0-2.4.9l-1.4-.6H45l-.9-.2a2.7,2.7,0,0,0-1.9.8h-.1l-.7-.2h-.7a2.7,2.7,0,0,0-2.2,1l-.3.3a12.6,12.6,0,0,0-2.7-.4,7.3,7.3,0,0,0-3,.7,5.5,5.5,0,0,0-1.7,1.1,9.9,9.9,0,0,0-2.9,3.5,10.5,10.5,0,0,0-4.8,3.5H23a5.2,5.2,0,0,0-.7,1.1,7.5,7.5,0,0,0-1,2,17.1,17.1,0,0,0-.9,4.9,23.5,23.5,0,0,0,.2,5.9,61.3,61.3,0,0,0,2.1,8.7h0l.7,1.9a44.2,44.2,0,0,0,4.3,8.4,22.1,22.1,0,0,0,5.9,6.5,10,10,0,0,0,5.9,2.3h1.1l1-.3h.2a9.4,9.4,0,0,0,4.6,2h2a7.6,7.6,0,0,0,1.8-.6,11.2,11.2,0,0,0,3.9-3h1.1a8.6,8.6,0,0,0,2.5-.7,13.6,13.6,0,0,0,3.9-3.1A25.7,25.7,0,0,0,67,46.9,48.6,48.6,0,0,0,68.6,31a.1.1,0,0,0-.1-.1l-.2-3h-.1c-.4-3.1-1.3-7.6-4.9-10.8a11,11,0,0,0-5.8-2.7,13.1,13.1,0,0,0-2.4-2.1,8.9,8.9,0,0,0-4.7-1.5Z" style="fill:#6c9433"/><path d="M35.4,3a3,3,0,0,1,1.5.5c.7.5,1.5.9,2.2,1.5a13.8,13.8,0,0,1,4.2,5.6l.6,1.9.2,1.5.5,2.4a1.9,1.9,0,0,0,.2.7h2.3a15.6,15.6,0,0,1,4.2.8c.3.1.7.1.9.3a8.4,8.4,0,0,0-2.4,1.8l-.6.8h-.9l-1.5.2a5.2,5.2,0,0,0-3.2,2.2l-.7-.6a5,5,0,0,0-3.2-.9H38.4l-.8.2-.5-.4-1.9-.9-1-.4A20.4,20.4,0,0,1,41,17.5a15.3,15.3,0,0,0-.3-3,12.6,12.6,0,0,0-1.3-3.7,6.4,6.4,0,0,0-3.7-2.9l-.8-.2a2.2,2.2,0,0,1-1.3-.8A2.6,2.6,0,0,1,33.1,5h0a3.2,3.2,0,0,1,.3-.9,2.1,2.1,0,0,1,1.4-1h.6m0-3H34.2a5.3,5.3,0,0,0-3.4,2.5,10.7,10.7,0,0,0-.7,1.9h0a5.7,5.7,0,0,0,1.1,4.2A7,7,0,0,0,34,10.6h.8a3.5,3.5,0,0,1,2,1.5,9.1,9.1,0,0,1,1,2.9h0a18.7,18.7,0,0,0-5.3,2.6,2.9,2.9,0,0,0,.7,5.2l.9.4,1.4.7.6.3a2.7,2.7,0,0,0,1.5.5h.9l.5-.2h.7a2.3,2.3,0,0,1,1.5.4l.3.2a2.9,2.9,0,0,0,2.1.9h.3a3,3,0,0,0,2.3-1.4,2.3,2.3,0,0,1,1.2-.9h1.8a3,3,0,0,0,2.6-1.5l.2-.3A7.2,7.2,0,0,1,53.5,21a2.8,2.8,0,0,0,1.7-2.7,3,3,0,0,0-1.6-2.7l-1.2-.5h-.1a20.1,20.1,0,0,0-5-.9h-.1v-.7l-.3-1.6h0a21.9,21.9,0,0,0-.7-2.3,16.7,16.7,0,0,0-5.2-6.9L38.5,1a5.4,5.4,0,0,0-3.1-1Z" style="fill:#507125"/><path d="M40.7,14.5l-1.6,1.8c-1.6-.7-3.7-1.3-5.3-.5a4.1,4.1,0,0,0-1.1.7A10.3,10.3,0,0,0,30,20.1a13.4,13.4,0,0,1,2.8-.1l1.4.3A20.4,20.4,0,0,1,41,17.5,15.3,15.3,0,0,0,40.7,14.5Z" style="fill:#dfe590"/><path d="M44.1,14l.5,2.4a1.9,1.9,0,0,0,.2.7c.1.3.3.7.6.8h0a11.2,11.2,0,0,1,2.4,1.9l.8,1h.6l.6-.8a8.4,8.4,0,0,1,2.4-1.8l1.6-.6a7.9,7.9,0,0,1,2.2-.5,7.5,7.5,0,0,0-2.5-2.5,5.5,5.5,0,0,0-3.9-.9,12.6,12.6,0,0,0-3.3,1.6l-1.2-.9-.9-.5Z" style="fill:#dfe590"/><path d="M52.2,18.3c-.2-.2-.6-.2-.9-.3a15.6,15.6,0,0,0-4.2-.8H44.8c.1.3.3.7.6.8h0a11.2,11.2,0,0,1,2.4,1.9l.8,1h.6l.6-.8A8.4,8.4,0,0,1,52.2,18.3Z" style="fill:#6c9433"/><path d="M23.4,29.5a14.2,14.2,0,0,1,.8-4.1,11.1,11.1,0,0,1,.7-1.6h0l.6-.8A8.4,8.4,0,0,1,30,20.1a13.1,13.1,0,0,1,2.8-.1l1.4.3,1,.4,1.9.9.5.4a8,8,0,0,0-4.3,4,11.9,11.9,0,0,0-.9,3.6,15.3,15.3,0,0,0,.2,3.7l.4,3a24.7,24.7,0,0,0,.6,2.9,3.6,3.6,0,0,0,.2,1.1l.4,1.9,1.5,4.9a44,44,0,0,0,3.6,7.6l1.2,1.7H40l-.5.2.5-.2h.5a26.2,26.2,0,0,0,2.2,2.5l-.6.3a5,5,0,0,1-2,.8,6.3,6.3,0,0,1-4.7-1.6,21.7,21.7,0,0,1-5.2-5.7,39.1,39.1,0,0,1-4-7.9l-.7-1.9a44.5,44.5,0,0,1-1.9-8.2A18.2,18.2,0,0,1,23.4,29.5Z" style="fill:#c3bf4f"/><path d="M49.8,20.1a9,9,0,0,0-3.4-2l-1-.2a11.2,11.2,0,0,1,2.4,1.9l.8,1h.6Z" style="fill:#2c7101"/><path d="M24.9,23.8a7.7,7.7,0,0,0-.7,1.6,14.2,14.2,0,0,0-.8,4.1,18.2,18.2,0,0,0,.2,5.2,44.5,44.5,0,0,0,1.9,8.2l.7,1.9a39.1,39.1,0,0,0,4,7.9,21.7,21.7,0,0,0,5.2,5.7A6.3,6.3,0,0,0,40.1,60a5,5,0,0,0,2-.8l.6-.3a26.2,26.2,0,0,1-2.2-2.5H40l-1.1.2c-2.1.1-3.9-1.3-5.3-2.6l-1.8-2a23.5,23.5,0,0,1-1.9-2.5c-.6-1-1.2-1.9-1.7-2.9a41.6,41.6,0,0,1-3.9-11.9,43.8,43.8,0,0,1-.4-5.1,15.5,15.5,0,0,1,.4-3.7l.2-.9.3-.8c0-.1.1-.3.1-.4Z" style="fill:#c3bf4f;mix-blend-mode:multiply;opacity:0.5"/><path d="M36.9,3.5a2.6,2.6,0,0,0-2.1-.4,2.1,2.1,0,0,0-1.4,1,3.2,3.2,0,0,0-.3.9h0a2.6,2.6,0,0,0,.5,1.9,2.2,2.2,0,0,0,1.3.8l.8.2a6.4,6.4,0,0,1,3.7,2.9,12.6,12.6,0,0,1,1.3,3.7,15.3,15.3,0,0,1,.3,3,20.4,20.4,0,0,0-6.8,2.8l1,.4,1.9.9.5.4.8-.2a6,6,0,0,1,4.5.8l.7.6A5.2,5.2,0,0,1,46.8,21l1.8-.2-.8-1a11.2,11.2,0,0,0-2.4-1.9h0c-.3-.1-.5-.5-.6-.8a1.9,1.9,0,0,1-.2-.7L44.1,14l-.2-1.5-.6-1.9A13.8,13.8,0,0,0,39.1,5C38.4,4.4,37.6,4,36.9,3.5Z" style="fill:#6c9433"/><path d="M38.8,20.9A4.4,4.4,0,0,1,40,19.1l.7-.8-1.6,1a6.3,6.3,0,0,0-2,2.3l.5.4.8-.2A1.8,1.8,0,0,1,38.8,20.9Z" style="fill:#2c7101"/><path d="M36.9,3.5h-.1c-.1.1-.3,0-.5,0s-1.3.1-1.6.8a1.1,1.1,0,0,0-.1.5h0a1.3,1.3,0,0,0,.3,1c.5.5,1.3.5,1.9.8a7.9,7.9,0,0,1,2.3,1.4,11,11,0,0,1,2.6,4.4l.3,1.2a2.5,2.5,0,0,0,.1.8,8,8,0,0,1,.3,1.5c.1,1.3.2,2.7.2,4v1.2a13.4,13.4,0,0,0,5.2-1.4,11.2,11.2,0,0,0-2.4-1.9h0c-.3-.1-.5-.5-.6-.8a1.9,1.9,0,0,1-.2-.7L44.1,14l-.2-1.5-.6-1.9A13.8,13.8,0,0,0,39.1,5C38.4,4.4,37.6,4,36.9,3.5Z" style="fill:#96b85c"/><path d="M52.2,57.8l.8.2a5.2,5.2,0,0,0,2.1.4l1.3-.4a13.8,13.8,0,0,0,3-2.4,24.2,24.2,0,0,0,4.7-9.5,47,47,0,0,0,1.5-14.9l-.3-3c-.5-3.3-1.4-6.7-4-9a8,8,0,0,0-4.6-2H56a7.9,7.9,0,0,0-2.2.5l-1.6.6a8.4,8.4,0,0,0-2.4,1.8l-.6.8a7.6,7.6,0,0,1,5.3,3.2,10.2,10.2,0,0,1,1.6,3.7,26.9,26.9,0,0,1,.6,5.7v7.1c-.1,1.4-.2,2.8-.4,4.2l-.2,1a2.5,2.5,0,0,1-.1.8L55.8,48a28.6,28.6,0,0,1-1.9,6.5A34.1,34.1,0,0,1,52.2,57.8Z" style="fill:#c3bf4f"/><path d="M55.7,19H55l-1.7.4c.2.1.4,0,.6,0a4.1,4.1,0,0,1,2.4.8,13.9,13.9,0,0,1,4.9,5.3,18.7,18.7,0,0,1,1.3,4l.5,1.7a1.3,1.3,0,0,0,.1-.6,10.9,10.9,0,0,0,.1-1.8,12.9,12.9,0,0,0-1.6-6.1,13.3,13.3,0,0,0-1.4-1.9A6.3,6.3,0,0,0,55.7,19Z" style="fill:#c3bf4f;mix-blend-mode:multiply;opacity:0.5"/><path d="M48.7,19.9l-1.8.2a5.4,5.4,0,0,0-3.4,2.3l-.7-.6a6.5,6.5,0,0,0-4.7-.9l-.8.3a8.1,8.1,0,0,0-4.5,4.2,9.7,9.7,0,0,0-1,3.7,23.6,23.6,0,0,0,.2,3.8l.5,3.2a17,17,0,0,0,.6,3.1,5.2,5.2,0,0,0,.2,1.1l.5,2,1.5,5a44.8,44.8,0,0,0,3.7,8L40.3,57a14.3,14.3,0,0,0,2.3,2.6l1,.8a7.8,7.8,0,0,0,3.2,1.5H48l1-.4a8.4,8.4,0,0,0,3.5-3,22.1,22.1,0,0,0,1.8-3.4,31.1,31.1,0,0,0,1.9-6.8l.3-1.5c0-.3.1-.6.1-.8l.2-1.1c.2-1.4.3-2.9.4-4.3V33.1a29.5,29.5,0,0,0-.6-5.9,9.9,9.9,0,0,0-1.8-3.9A8,8,0,0,0,49.4,20Z" style="fill:#dfe590"/><path d="M47.2,21.7h0a7.5,7.5,0,0,1,1.7,1,14.3,14.3,0,0,1,3.7,4.4,17.3,17.3,0,0,1,1.8,6.1v-.5a10.6,10.6,0,0,0,.2-3.1,8.7,8.7,0,0,0-2.5-6.3A6.5,6.5,0,0,0,47.2,21.7Z" style="fill:#c3bf4f;mix-blend-mode:multiply;opacity:0.5"/><path d="M33.1,39.2a5.2,5.2,0,0,0,.2,1.1l.5,2,1.5,5a44.8,44.8,0,0,0,3.7,8L40.3,57a14.3,14.3,0,0,0,2.3,2.6l1,.8a7.8,7.8,0,0,0,3.2,1.5H48l1-.4a8.4,8.4,0,0,0,3.5-3,22.1,22.1,0,0,0,1.8-3.4,31.1,31.1,0,0,0,1.9-6.8l.3-1.5c0-.3.1-.6.1-.8a.8.8,0,0,0-.2.5l-.3,1L55.2,50a20,20,0,0,1-1,2.1,20.1,20.1,0,0,1-1.4,2.5,11,11,0,0,1-2,2.3,5.9,5.9,0,0,1-2.9,1.8,5.1,5.1,0,0,1-3.2-.5,13.7,13.7,0,0,1-2.9-2,23.8,23.8,0,0,1-4-4.9c-.5-.8-.9-1.7-1.3-2.5a40.7,40.7,0,0,1-1.8-4.4l-1.2-3.6A7.5,7.5,0,0,0,33.1,39.2Z" style="fill:#c3bf4f;mix-blend-mode:multiply;opacity:0.5"/><path d="M56.5,35.8h.8a9.6,9.6,0,0,1,3.2,1.6l1.3-.9.9-.5h0l-.4,2.3a2.4,2.4,0,0,0-.2.8l-.6.8h0a9.2,9.2,0,0,0-2.4,1.9h-.2l1.1.2a4.9,4.9,0,0,1,3.3,2.3l.7-.6a5.9,5.9,0,0,1,3.4-1h1.4l.8.2.6.3,1.5-.8,1-.3h0a17.5,17.5,0,0,0-6.8-2.8,7.5,7.5,0,0,1,.3-3l1.6,1.7a10.5,10.5,0,0,1,3.5-.8,3.9,3.9,0,0,1,1.8.4,2.6,2.6,0,0,1,1.1.7,8.8,8.8,0,0,1,2.7,3.6h0a8.4,8.4,0,0,1,4.5,2.9,2.2,2.2,0,0,1,.5.8h0a4.8,4.8,0,0,1,.8,1.6,13.5,13.5,0,0,1,.8,4,30.9,30.9,0,0,1-.2,5.3A57.4,57.4,0,0,1,81.4,65l-.7,1.9a44.1,44.1,0,0,1-4,7.8,22.1,22.1,0,0,1-5.2,5.8,7,7,0,0,1-4.1,1.6h-.7a6.4,6.4,0,0,1-1.9-.8h-.1l-.4.4-1,.8A8.1,8.1,0,0,1,60,83.9H58.9l-1.1-.4a8.9,8.9,0,0,1-3.4-3l-.3-.6h-.3a5.7,5.7,0,0,1-1.8.3h-.2a2.8,2.8,0,0,1-1.3-.4,8.6,8.6,0,0,1-3-2.3,24.2,24.2,0,0,1-4.8-9.6,46.6,46.6,0,0,1-1.4-14.9l.3-2.9c.4-3.3,1.4-6.7,4-9a7.7,7.7,0,0,1,4.5-2h.8a7.5,7.5,0,0,1,2.5-2.5,5.7,5.7,0,0,1,3.1-1m0-3h0a8.7,8.7,0,0,0-4.7,1.5,9.3,9.3,0,0,0-2.5,2A11.2,11.2,0,0,0,43.6,39c-3.6,3.2-4.6,7.8-5,10.9h0l-.3,2.9v.2a50.9,50.9,0,0,0,1.5,15.8,26.9,26.9,0,0,0,5.5,10.8,10.8,10.8,0,0,0,3.9,3,4.7,4.7,0,0,0,2.5.7h1.1a10.8,10.8,0,0,0,3.8,3,8.7,8.7,0,0,0,1.9.5h2a11.8,11.8,0,0,0,4.6-2h.1l1.1.2h1.1a9.9,9.9,0,0,0,5.9-2.2,25.1,25.1,0,0,0,5.9-6.5A44.2,44.2,0,0,0,83.5,68l.7-2h0a48,48,0,0,0,2-8.7,29.6,29.6,0,0,0,.3-5.9,14.7,14.7,0,0,0-1-4.9,11.3,11.3,0,0,0-.9-2l-.8-1v-.2A10.8,10.8,0,0,0,79,39.8a14.8,14.8,0,0,0-2.9-3.6l-1.7-1.1a8.1,8.1,0,0,0-3.1-.6,10.9,10.9,0,0,0-2.6.4l-.3-.3a2.8,2.8,0,0,0-2.2-1h-.8l-.6.3a.1.1,0,0,1-.1-.1,3.5,3.5,0,0,0-2-.7h-1a3.9,3.9,0,0,0-1.3.6A8.5,8.5,0,0,0,58,33l-1.5-.2Z" style="fill:#e57225"/><path d="M71.5,25.1H72a3.3,3.3,0,0,1,1.5,1.1l.3.8h0a2.9,2.9,0,0,1-.5,1.8,3,3,0,0,1-1.3.9l-.8.2a6.4,6.4,0,0,0-3.7,2.9,11.6,11.6,0,0,0-1.3,3.7,7.5,7.5,0,0,0-.3,3,17.5,17.5,0,0,1,6.8,2.8l-1,.3-1.9,1-.6.4-.7-.2-1.3-.2a5.6,5.6,0,0,0-3.3,1l-.7.6a4.7,4.7,0,0,0-3.1-2.2l-1.6-.2h-.9a1.8,1.8,0,0,0-.5-.7,7.2,7.2,0,0,0-2.5-1.8l1-.4a18.4,18.4,0,0,1,4.2-.8h2.3a2.4,2.4,0,0,1,.2-.8l.4-2.3.3-1.6a13.9,13.9,0,0,1,.6-1.9,12.7,12.7,0,0,1,4.2-5.5A10.7,10.7,0,0,1,70,25.6a3,3,0,0,1,1.5-.5m0-3a5.9,5.9,0,0,0-3.1.9l-2.5,1.7a16.8,16.8,0,0,0-5.1,6.8,11.5,11.5,0,0,0-.7,2.4h0l-.3,1.5-.2.7h0a24.6,24.6,0,0,0-5,1h-.1l-1.2.5a2.9,2.9,0,0,0-1.7,2.7,3.1,3.1,0,0,0,1.7,2.7,4.2,4.2,0,0,1,1.6,1.1.3.3,0,0,1,.1.2,3,3,0,0,0,2.6,1.5h1.8a1.8,1.8,0,0,1,1.3.9,3.2,3.2,0,0,0,2.2,1.3h.3a3.6,3.6,0,0,0,2.2-.9c.1-.1.2-.2.2-.3a3.2,3.2,0,0,1,1.6-.4h1.2l.8.2a3,3,0,0,0,1.6-.5l.6-.3a7,7,0,0,1,1.4-.8l.9-.3a2.8,2.8,0,0,0,1.9-2.4,3,3,0,0,0-1.2-2.9,18.6,18.6,0,0,0-5.3-2.5h0a9.1,9.1,0,0,1,1-2.9A3.2,3.2,0,0,1,72,32.9h.2l.7-.2a5.4,5.4,0,0,0,2.8-1.9,5.1,5.1,0,0,0,1-4.1h0a4.9,4.9,0,0,0-.7-1.9,5.1,5.1,0,0,0-3.3-2.4Z" style="fill:#507125"/><path d="M66.2,36.6l1.6,1.7c1.6-.6,3.6-1.2,5.3-.4a2.6,2.6,0,0,1,1.1.7,8.8,8.8,0,0,1,2.7,3.6,9.4,9.4,0,0,0-2.9-.1l-1.3.3a17.5,17.5,0,0,0-6.8-2.8A7.5,7.5,0,0,1,66.2,36.6Z" style="fill:#fcd54d"/><path d="M62.7,36.1l-.4,2.3a2.4,2.4,0,0,0-.2.8l-.6.8h0a9.2,9.2,0,0,0-2.4,1.9c-.3.3-.7.6-.8,1h-.7a1.8,1.8,0,0,0-.5-.7,7.2,7.2,0,0,0-2.5-1.8L53,39.7l-2.1-.4a7.5,7.5,0,0,1,2.5-2.5,5.3,5.3,0,0,1,3.9-.9,9.6,9.6,0,0,1,3.2,1.6l1.3-.9.9-.5Z" style="fill:#fcd54d"/><path d="M54.6,40.4l1-.4a18.4,18.4,0,0,1,4.2-.8h2.3l-.6.8h0a9.2,9.2,0,0,0-2.4,1.9c-.3.3-.7.6-.8,1h-.7a1.8,1.8,0,0,0-.5-.7A7.2,7.2,0,0,0,54.6,40.4Z" style="fill:#6c9433"/><path d="M83.5,51.5a13.5,13.5,0,0,0-.8-4,4.8,4.8,0,0,0-.8-1.6h0a2.2,2.2,0,0,0-.5-.8,8.4,8.4,0,0,0-4.5-2.9,9.4,9.4,0,0,0-2.9-.1l-1.3.3-1,.3-1.9,1-.6.4a7.4,7.4,0,0,1,4.3,4,8.8,8.8,0,0,1,1,3.6,14.5,14.5,0,0,1-.2,3.6l-.4,3.1-.6,2.9a4.3,4.3,0,0,1-.2,1.1l-.5,1.9-1.5,4.8a37.7,37.7,0,0,1-3.5,7.6l-1.2,1.7.4.2h0l-.4-.2a17.9,17.9,0,0,1-2.2,2.5l.6.4a6.4,6.4,0,0,0,1.9.8,6.4,6.4,0,0,0,4.8-1.6,22.1,22.1,0,0,0,5.2-5.8,44.1,44.1,0,0,0,4-7.8l.7-1.9a57.4,57.4,0,0,0,1.9-8.2A30.9,30.9,0,0,0,83.5,51.5Z" style="fill:#ffaa5a"/><path d="M57.1,42.2a9,9,0,0,1,3.4-2l1-.2a9.2,9.2,0,0,0-2.4,1.9c-.3.3-.7.6-.8,1h-.7A1.8,1.8,0,0,0,57.1,42.2Z" style="fill:#2c7101"/><path d="M81.9,45.9a4.8,4.8,0,0,1,.8,1.6,13.5,13.5,0,0,1,.8,4,30.9,30.9,0,0,1-.2,5.3A57.4,57.4,0,0,1,81.4,65l-.7,1.9a44.1,44.1,0,0,1-4,7.8,22.1,22.1,0,0,1-5.2,5.8,6.4,6.4,0,0,1-4.8,1.6,6.4,6.4,0,0,1-1.9-.8l-.6-.4a17.9,17.9,0,0,0,2.2-2.5l.4.2,1.2.2c2,.1,3.8-1.3,5.2-2.7A10.7,10.7,0,0,0,75,74.2c.7-.9,1.4-1.7,2-2.6l1.7-2.8a39.4,39.4,0,0,0,3.8-11.9,29.4,29.4,0,0,0,.5-5.1,15,15,0,0,0-.4-3.7l-.3-1-.2-.7a.8.8,0,0,1-.2-.5Z" style="fill:#ffaa5a;mix-blend-mode:multiply;opacity:0.5"/><path d="M70,25.6a2.9,2.9,0,0,1,2-.5,3.3,3.3,0,0,1,1.5,1.1l.3.8h0a2.9,2.9,0,0,1-.5,1.8,3,3,0,0,1-1.3.9l-.8.2a6.4,6.4,0,0,0-3.7,2.9,11.6,11.6,0,0,0-1.3,3.7,7.5,7.5,0,0,0-.3,3,17.5,17.5,0,0,1,6.8,2.8l-1,.3-1.9,1-.6.4-.7-.2a5.7,5.7,0,0,0-4.6.8l-.7.6a4.7,4.7,0,0,0-3.1-2.2,5.5,5.5,0,0,0-1.8-.2c.1-.4.5-.7.8-1A9.2,9.2,0,0,1,61.5,40h0l.6-.8a2.4,2.4,0,0,1,.2-.8l.4-2.3.3-1.6a13.9,13.9,0,0,1,.6-1.9,12.7,12.7,0,0,1,4.2-5.5A10.7,10.7,0,0,1,70,25.6Z" style="fill:#6c9433"/><path d="M68.1,43a5.7,5.7,0,0,0-1.2-1.8l-.7-.8,1.6.9a6.6,6.6,0,0,1,2,2.4l-.6.4-.7-.2Z" style="fill:#2c7101"/><path d="M70,25.6h.5a1.5,1.5,0,0,1,1.7.8.7.7,0,0,1,.1.5h0a1.5,1.5,0,0,1-.3,1,6.6,6.6,0,0,1-1.9.9,5.9,5.9,0,0,0-2.3,1.4,9.4,9.4,0,0,0-2.6,4.4l-.3,1.1a2.5,2.5,0,0,0-.1.8,4.5,4.5,0,0,0-.3,1.6,25.5,25.5,0,0,0-.2,3.9v1.2a11.4,11.4,0,0,1-5.2-1.3A9.2,9.2,0,0,1,61.5,40h0l.6-.8a2.4,2.4,0,0,1,.2-.8l.4-2.3.3-1.6a13.9,13.9,0,0,1,.6-1.9,12.7,12.7,0,0,1,4.2-5.5A10.7,10.7,0,0,1,70,25.6Z" style="fill:#96b85c"/><path d="M54.7,79.8l-.9.3a4.4,4.4,0,0,1-2,.3,2.8,2.8,0,0,1-1.3-.4,8.6,8.6,0,0,1-3-2.3,24.2,24.2,0,0,1-4.8-9.6,46.6,46.6,0,0,1-1.4-14.9l.3-2.9c.4-3.3,1.4-6.7,4-9a7.7,7.7,0,0,1,4.5-2h.8l2.1.4,1.6.7a7.2,7.2,0,0,1,2.5,1.8,1.8,1.8,0,0,1,.5.7,7.8,7.8,0,0,0-5.2,3.3,9.2,9.2,0,0,0-1.7,3.6,27.5,27.5,0,0,0-.5,5.7v7.2c.1,1.3.2,2.8.4,4.1v1c0,.3.1.6.1.8l.3,1.5a36.9,36.9,0,0,0,1.8,6.5A20.2,20.2,0,0,0,54.7,79.8Z" style="fill:#ffaa5a"/><path d="M51.2,41h.7l1.7.4a1.6,1.6,0,0,0-.7,0,4.8,4.8,0,0,0-2.3.7,13.4,13.4,0,0,0-4.9,5.4,25.8,25.8,0,0,0-1.4,3.9l-.4,1.8a1.7,1.7,0,0,1-.1-.7,9.1,9.1,0,0,1-.1-1.7,12.9,12.9,0,0,1,1.6-6.1,8.5,8.5,0,0,1,1.4-1.9A6.4,6.4,0,0,1,51.2,41Z" style="fill:#ffaa5a;mix-blend-mode:multiply;opacity:0.5"/><path d="M58.1,42l1.9.2a4.9,4.9,0,0,1,3.3,2.3l.7-.6a6.3,6.3,0,0,1,4.8-.9l.8.2a8.4,8.4,0,0,1,4.5,4.2,12.6,12.6,0,0,1,1,3.8,24.2,24.2,0,0,1-.2,3.8l-.5,3.2c-.2,1-.3,2-.6,3a3.6,3.6,0,0,1-.2,1.1l-.5,2-1.6,5.1a35.4,35.4,0,0,1-3.7,7.9,20.7,20.7,0,0,1-3.5,4.4l-1,.8A8.1,8.1,0,0,1,60,83.9H58.9l-1.1-.4a8.9,8.9,0,0,1-3.4-3,22.1,22.1,0,0,1-1.8-3.4,33.1,33.1,0,0,1-2-6.8l-.2-1.5a2.8,2.8,0,0,1-.1-.9l-.2-1c-.2-1.5-.3-2.9-.4-4.4V55.2a23.2,23.2,0,0,1,.6-5.9A10.5,10.5,0,0,1,52,45.4a8.2,8.2,0,0,1,5.5-3.3Z" style="fill:#fcd54d"/><path d="M59.7,43.7h0a5.9,5.9,0,0,0-1.7,1,12.8,12.8,0,0,0-3.7,4.3,18.8,18.8,0,0,0-1.9,6.1v-.5a15.1,15.1,0,0,1-.1-3,8.7,8.7,0,0,1,2.5-6.3A6.9,6.9,0,0,1,59.7,43.7Z" style="fill:#ffaa5a;mix-blend-mode:multiply;opacity:0.5"/><path d="M73.8,61.2a3.6,3.6,0,0,1-.2,1.1l-.5,2-1.6,5.1a35.4,35.4,0,0,1-3.7,7.9,20.7,20.7,0,0,1-3.5,4.4l-1,.8A8.1,8.1,0,0,1,60,83.9H58.9l-1.1-.4a8.9,8.9,0,0,1-3.4-3,22.1,22.1,0,0,1-1.8-3.4,33.1,33.1,0,0,1-2-6.8l-.2-1.5a2.8,2.8,0,0,1-.1-.9c.1.2.1.4.2.5l.3,1.1.9,2.4.9,2.2c.5.8.9,1.7,1.5,2.5a14.3,14.3,0,0,0,2,2.3A5.8,5.8,0,0,0,59,80.7a4.7,4.7,0,0,0,3.1-.4,10,10,0,0,0,2.9-2,18.7,18.7,0,0,0,4-4.9c.5-.9,1-1.7,1.4-2.6a33.8,33.8,0,0,0,1.8-4.4l1.1-3.6C73.5,62.3,73.6,61.8,73.8,61.2Z" style="fill:#ffaa5a;mix-blend-mode:multiply;opacity:0.5"/><path d="M30.1,35.6a6.7,6.7,0,0,1,3.1,1,8.5,8.5,0,0,1,2.5,2.5h.7a8,8,0,0,1,4.6,2c2.6,2.3,3.5,5.7,4,9l.2,3A47.2,47.2,0,0,1,43.8,68,23.1,23.1,0,0,1,39,77.5a9.2,9.2,0,0,1-2.9,2.3,3.3,3.3,0,0,1-1.4.4h-.2l-1.8-.3h-.2l-.3.5a8.4,8.4,0,0,1-3.5,3l-1,.4H26.5a6.6,6.6,0,0,1-3.2-1.4l-1-.8-.5-.4h0a5,5,0,0,1-2,.8h-.6A7.4,7.4,0,0,1,15,80.3a22.3,22.3,0,0,1-5.2-5.8,35.6,35.6,0,0,1-3.9-7.8l-.7-1.9a46.4,46.4,0,0,1-1.9-8.2,18.2,18.2,0,0,1-.2-5.2,14.1,14.1,0,0,1,.7-4.1,8,8,0,0,1,.8-1.6h0a2.4,2.4,0,0,1,.6-.8A8.4,8.4,0,0,1,9.7,42h0a9.5,9.5,0,0,1,2.6-3.6l1.1-.7a3.9,3.9,0,0,1,1.8-.4,11.1,11.1,0,0,1,3.6.8l1.6-1.7a15.3,15.3,0,0,1,.3,3,20.4,20.4,0,0,0-6.8,2.8h0l1,.4,1.5.7.6-.2.8-.3h1.3a5.9,5.9,0,0,1,3.4,1l.7.6A5.5,5.5,0,0,1,26.5,42h1.1c0-.1-.1-.1-.1-.2a14.3,14.3,0,0,0-2.4-1.9h0c-.3-.1-.5-.5-.6-.8a1.9,1.9,0,0,1-.2-.8l-.5-2.3h.1l.8.5,1.3.9a12.6,12.6,0,0,1,3.3-1.6h.8m0-3h0l-1.5.2a8.5,8.5,0,0,0-2.4.9l-1.4-.6h-1a3.2,3.2,0,0,0-2,.8h0l-.7-.2h-.7a2.6,2.6,0,0,0-2.2,1l-.3.3a12.6,12.6,0,0,0-2.7-.4,6,6,0,0,0-3,.7,5.5,5.5,0,0,0-1.7,1.1,9.9,9.9,0,0,0-2.9,3.5,10,10,0,0,0-4.8,3.5H2.7a4.3,4.3,0,0,0-.7,1,6.7,6.7,0,0,0-1,2.1,17.1,17.1,0,0,0-.9,4.9,23.5,23.5,0,0,0,.2,5.9,50.2,50.2,0,0,0,2.1,8.7h0l.7,1.9a50.7,50.7,0,0,0,4.2,8.4,23.8,23.8,0,0,0,6,6.5A9.8,9.8,0,0,0,19.2,85h1.1l1-.3h.2a9.4,9.4,0,0,0,4.6,2h2l1.8-.5a12.2,12.2,0,0,0,3.9-3h1.1a5,5,0,0,0,2.5-.7,11.7,11.7,0,0,0,3.9-3,25.5,25.5,0,0,0,5.4-10.8,47.8,47.8,0,0,0,1.5-15.8h0l-.3-3h0c-.4-3.1-1.4-7.7-5-10.8a10.4,10.4,0,0,0-5.7-2.7,10.6,10.6,0,0,0-2.5-2.1,8.4,8.4,0,0,0-4.6-1.5Z" style="fill:#781f1a"/><path d="M15.1,24.9a3,3,0,0,1,1.5.5,15.9,15.9,0,0,1,2.1,1.5A13.6,13.6,0,0,1,23,32.4a14.6,14.6,0,0,1,.5,2l.3,1.5.5,2.3a1.9,1.9,0,0,0,.2.8h2.2a20.3,20.3,0,0,1,4.3.7l.9.4A6.9,6.9,0,0,0,29.5,42l-.6.8H28l-1.5.2a5.2,5.2,0,0,0-3.2,2.2l-.7-.6a5.2,5.2,0,0,0-3.2-.9H18.1l-.8.2-.5-.4-1.9-.9-1-.4a20.4,20.4,0,0,1,6.8-2.8,15.3,15.3,0,0,0-.3-3,14.7,14.7,0,0,0-1.3-3.7,6.4,6.4,0,0,0-3.7-2.9l-.8-.2a3,3,0,0,1-1.3-.9,2.4,2.4,0,0,1-.5-1.8h0a1.4,1.4,0,0,1,.3-.9,2.6,2.6,0,0,1,1.4-1.1h.6m0-3H13.9a5.5,5.5,0,0,0-4.1,4.4h0a5.5,5.5,0,0,0,1.1,4.1,5.8,5.8,0,0,0,2.8,2h.8a3.1,3.1,0,0,1,2,1.5,12.4,12.4,0,0,1,1,2.9h0a19.3,19.3,0,0,0-5.4,2.5,3.3,3.3,0,0,0-1.2,2.9A3.1,3.1,0,0,0,12.8,45l.9.3,1.5.8.5.3a3.3,3.3,0,0,0,1.6.5h.9l.5-.2h.7a2.3,2.3,0,0,1,1.5.4l.3.2a2.7,2.7,0,0,0,2.1.9h.3a3,3,0,0,0,2.2-1.4,2.4,2.4,0,0,1,1.3-.9h1.8a2.9,2.9,0,0,0,2.6-1.6l.2-.2a5.3,5.3,0,0,1,1.5-1.1,2.8,2.8,0,0,0,1.7-2.7,3,3,0,0,0-1.6-2.7L32.1,37h-.2a18.6,18.6,0,0,0-5-.9h0v-.7l-.3-1.6h0c-.3-.9-.5-1.7-.7-2.4a17,17,0,0,0-5.2-6.8l-2.4-1.6a5.4,5.4,0,0,0-3.1-1Z" style="fill:#507125"/><path d="M20.4,36.4l-1.6,1.7c-1.6-.6-3.7-1.2-5.4-.4l-1.1.7A9.5,9.5,0,0,0,9.7,42a13.1,13.1,0,0,1,2.8-.1l1.4.3a20.4,20.4,0,0,1,6.8-2.8A15.3,15.3,0,0,0,20.4,36.4Z" style="fill:#e05555"/><path d="M23.8,35.9l.5,2.3a1.9,1.9,0,0,0,.2.8c.1.3.3.7.6.8h0a14.3,14.3,0,0,1,2.4,1.9l.8,1h.6l.6-.8a6.9,6.9,0,0,1,2.4-1.8l1.6-.7,2.2-.4a8.5,8.5,0,0,0-2.5-2.5,5.5,5.5,0,0,0-3.9-.9A12.6,12.6,0,0,0,26,37.3l-1.3-.9-.8-.5Z" style="fill:#e05555"/><path d="M31.9,40.2l-.9-.4a20.3,20.3,0,0,0-4.3-.7H24.5c.1.3.3.7.6.8h0a14.3,14.3,0,0,1,2.4,1.9l.8,1h.6l.6-.8A6.9,6.9,0,0,1,31.9,40.2Z" style="fill:#6c9433"/><path d="M3.1,51.4a14.1,14.1,0,0,1,.7-4.1,8,8,0,0,1,.8-1.6h0a2.4,2.4,0,0,1,.6-.8A8.4,8.4,0,0,1,9.7,42a13.1,13.1,0,0,1,2.8-.1l1.4.3,1,.4a15.1,15.1,0,0,1,1.8.9l.6.4a8,8,0,0,0-4.3,4,12.1,12.1,0,0,0-1,3.6,15.4,15.4,0,0,0,.3,3.7l.4,3a24.7,24.7,0,0,0,.6,2.9,4.3,4.3,0,0,0,.2,1.1l.4,1.9,1.5,4.8A41.6,41.6,0,0,0,19,76.6l1.2,1.6-.5.2h0l.5-.2a13.1,13.1,0,0,0,2.2,2.5l-.6.4a5,5,0,0,1-2,.8c-1.7.3-3.4-.6-4.8-1.6a22.3,22.3,0,0,1-5.2-5.8,35.6,35.6,0,0,1-3.9-7.8l-.7-1.9a46.4,46.4,0,0,1-1.9-8.2A18.2,18.2,0,0,1,3.1,51.4Z" style="fill:#c2331d"/><path d="M29.5,42a9,9,0,0,0-3.4-2l-1-.2a14.3,14.3,0,0,1,2.4,1.9l.8,1h.6Z" style="fill:#2c7101"/><path d="M4.6,45.7a8,8,0,0,0-.8,1.6,14.1,14.1,0,0,0-.7,4.1,18.2,18.2,0,0,0,.2,5.2,46.4,46.4,0,0,0,1.9,8.2l.7,1.9a35.6,35.6,0,0,0,3.9,7.8A22.3,22.3,0,0,0,15,80.3c1.4,1,3.1,1.9,4.8,1.6a5,5,0,0,0,2-.8l.6-.4a13.1,13.1,0,0,1-2.2-2.5l-.5.2-1.1.2c-2.1.1-3.9-1.3-5.3-2.6l-1.8-2a24.8,24.8,0,0,1-1.9-2.6,16.1,16.1,0,0,1-1.7-2.8A41.6,41.6,0,0,1,4,56.7a21.9,21.9,0,0,1-.4-5.1A11.4,11.4,0,0,1,4,47.9l.2-1,.3-.7c0-.1.1-.3.1-.4Z" style="fill:#c2331d;mix-blend-mode:multiply;opacity:0.5"/><path d="M16.6,25.4a3.1,3.1,0,0,0-2.1-.5A2.6,2.6,0,0,0,13.1,26a1.4,1.4,0,0,0-.3.9h0a2.4,2.4,0,0,0,.5,1.8,3,3,0,0,0,1.3.9l.8.2a6.4,6.4,0,0,1,3.7,2.9,14.7,14.7,0,0,1,1.3,3.7,15.3,15.3,0,0,1,.3,3,20.4,20.4,0,0,0-6.8,2.8l1,.4,1.9.9.5.4.8-.2a6,6,0,0,1,4.5.8l.7.6a5.2,5.2,0,0,1,3.2-2.2l1.8-.2-.8-1a14.3,14.3,0,0,0-2.4-1.9h0c-.3-.1-.5-.5-.6-.8a1.9,1.9,0,0,1-.2-.8l-.5-2.3-.3-1.5a14.6,14.6,0,0,0-.5-2,13.6,13.6,0,0,0-4.3-5.5A15.9,15.9,0,0,0,16.6,25.4Z" style="fill:#6c9433"/><path d="M18.4,42.8A5.9,5.9,0,0,1,19.7,41l.7-.8-1.6,1a6.3,6.3,0,0,0-2,2.3l.5.4.8-.2A2.4,2.4,0,0,1,18.4,42.8Z" style="fill:#2c7101"/><path d="M16.6,25.4h-.1c-.1.1-.3,0-.5,0s-1.3.1-1.6.8-.2.3-.2.5h0a1.4,1.4,0,0,0,.4,1c.5.5,1.3.5,1.9.8A7.9,7.9,0,0,1,18.8,30a11,11,0,0,1,2.6,4.4l.3,1.2a2.5,2.5,0,0,0,.1.8l.3,1.5c.1,1.3.2,2.6.2,3.9v1.3a13.4,13.4,0,0,0,5.2-1.4,14.3,14.3,0,0,0-2.4-1.9h0c-.3-.1-.5-.5-.6-.8a1.9,1.9,0,0,1-.2-.8l-.5-2.3-.3-1.5a14.6,14.6,0,0,0-.5-2,13.6,13.6,0,0,0-4.3-5.5A15.9,15.9,0,0,0,16.6,25.4Z" style="fill:#96b85c"/><path d="M31.9,79.7l.8.2a4.6,4.6,0,0,0,2,.3,3.3,3.3,0,0,0,1.4-.4A9.2,9.2,0,0,0,39,77.5,23.1,23.1,0,0,0,43.8,68a47.2,47.2,0,0,0,1.4-14.9l-.2-3c-.5-3.3-1.4-6.7-4-9a8,8,0,0,0-4.6-2h-.7l-2.2.4-1.6.7A6.9,6.9,0,0,0,29.5,42l-.6.8A7.4,7.4,0,0,1,34.1,46a9.6,9.6,0,0,1,1.7,3.7,26.9,26.9,0,0,1,.6,5.7v7.1c-.1,1.4-.2,2.8-.4,4.1l-.2,1a2.8,2.8,0,0,1-.1.9l-.2,1.4a28.6,28.6,0,0,1-1.9,6.5C33.1,77.5,32.5,78.6,31.9,79.7Z" style="fill:#c2331d"/><path d="M35.3,40.9c-.2-.1-.4,0-.6,0l-1.7.4h.6a4.3,4.3,0,0,1,2.4.8,12.9,12.9,0,0,1,4.8,5.3,14.7,14.7,0,0,1,1.4,4l.5,1.7a1.5,1.5,0,0,0,.1-.6c0-.6.1-1.2.1-1.8a11.9,11.9,0,0,0-1.7-6.1,8,8,0,0,0-1.3-1.9A6.1,6.1,0,0,0,35.3,40.9Z" style="fill:#c2331d;mix-blend-mode:multiply;opacity:0.5"/><path d="M28.4,41.8l-1.9.2a5.5,5.5,0,0,0-3.3,2.3l-.7-.6a6.1,6.1,0,0,0-4.7-.9l-.8.3a8.1,8.1,0,0,0-4.5,4.2,9.7,9.7,0,0,0-1,3.7,15.9,15.9,0,0,0,.2,3.8l.5,3.2a17,17,0,0,0,.6,3.1c0,.3.1.7.1,1.1l.5,1.9L15,69.2a44.8,44.8,0,0,0,3.7,8l1.2,1.7a19.5,19.5,0,0,0,2.4,2.6l1,.8a6.6,6.6,0,0,0,3.2,1.4h1.2l1-.4a8.4,8.4,0,0,0,3.5-3A36.5,36.5,0,0,0,34,77a31.1,31.1,0,0,0,1.9-6.8l.3-1.5c0-.3.1-.6.1-.8l.2-1.1a31.1,31.1,0,0,0,.3-4.3V55a28.8,28.8,0,0,0-.6-5.9,9.9,9.9,0,0,0-1.8-3.9,8,8,0,0,0-5.4-3.3Z" style="fill:#e05555"/><path d="M26.9,43.5h0a7.5,7.5,0,0,1,1.7,1,14.8,14.8,0,0,1,3.6,4.3A16.7,16.7,0,0,1,34.1,55v-.5a15.1,15.1,0,0,0,.2-3,8.7,8.7,0,0,0-2.5-6.3A7.1,7.1,0,0,0,26.9,43.5Z" style="fill:#c2331d;mix-blend-mode:multiply;opacity:0.5"/><path d="M12.8,61.1c0,.3.1.7.1,1.1l.5,1.9L15,69.2a44.8,44.8,0,0,0,3.7,8l1.2,1.7a19.5,19.5,0,0,0,2.4,2.6l1,.8a6.6,6.6,0,0,0,3.2,1.4h1.2l1-.4a8.4,8.4,0,0,0,3.5-3A36.5,36.5,0,0,0,34,77a31.1,31.1,0,0,0,1.9-6.8l.3-1.5c0-.3.1-.6.1-.8a.8.8,0,0,0-.2.5l-.4,1-.8,2.5a20,20,0,0,1-1,2.1l-1.4,2.5a14.3,14.3,0,0,1-2,2.3,6.8,6.8,0,0,1-2.9,1.8,5.1,5.1,0,0,1-3.2-.5,11.5,11.5,0,0,1-2.9-2,23.8,23.8,0,0,1-4-4.9,21,21,0,0,1-1.3-2.6,44.8,44.8,0,0,1-1.9-4.4l-1.1-3.5A7.5,7.5,0,0,0,12.8,61.1Z" style="fill:#c2331d;mix-blend-mode:multiply;opacity:0.5"/></g></g></g></g></svg>