<svg xmlns="http://www.w3.org/2000/svg" width="85.6" height="86" viewBox="0 0 85.6 86"><g id="Layer_2" data-name="Layer 2"><g id="Layer_4" data-name="Layer 4"><g id="rabbit_food_2" data-name="rabbit_food 2"><path d="M33,77.6a11,11,0,0,1-7.9-3.2,11.2,11.2,0,0,1-2.9-10.7,9,9,0,0,1-2.8.4,11.5,11.5,0,0,1-7.9-3.2A11.3,11.3,0,0,1,11.4,45a14.9,14.9,0,0,1,2-1.5,16.7,16.7,0,0,1,4.7-12.7,15.4,15.4,0,0,1,3.6-2.7A20.7,20.7,0,0,1,42,9.6a16.6,16.6,0,0,1,3.2.3c.6-.7,1.1-1.4,1.7-2A21.7,21.7,0,0,1,77.8,38.5a17.1,17.1,0,0,1-2,1.8A20.3,20.3,0,0,1,70.2,58a20.7,20.7,0,0,1-12.3,5.9,20,20,0,0,1-2.8,3.7,16.3,16.3,0,0,1-11.7,4.8h-.9a7.4,7.4,0,0,1-1.6,1.9A10.7,10.7,0,0,1,33,77.6Z" style="fill:#96b85c"/><path d="M62.4,3A20.3,20.3,0,0,1,76.7,37.5a16.4,16.4,0,0,1-2.5,2.1A19,19,0,0,1,56.9,62.5a14.7,14.7,0,0,1-13.5,8.4H41.7a14.4,14.4,0,0,1-1.8,2.5A9.7,9.7,0,0,1,25.4,60.4a9.1,9.1,0,0,1-6,2.2,9.7,9.7,0,0,1-6.9-16.5A11.4,11.4,0,0,1,15,44.3a14.7,14.7,0,0,1,4.2-12.4,14.1,14.1,0,0,1,4-2.9,18.7,18.7,0,0,1,5.4-12.3A19,19,0,0,1,42,11.1a25.8,25.8,0,0,1,3.9.4A16.4,16.4,0,0,1,48,9,20.3,20.3,0,0,1,62.4,3M26.9,58.9l1.7-1a1.3,1.3,0,0,0-.1-.6H28a7.6,7.6,0,0,1-1.1,1.6M62.4,0A22.7,22.7,0,0,0,45.9,6.9a8.6,8.6,0,0,0-1.3,1.4L42,8.1a21.6,21.6,0,0,0-15.5,6.5,22.2,22.2,0,0,0-6.2,12.5A21.6,21.6,0,0,0,17,29.8a17.8,17.8,0,0,0-5.2,12.9A8.6,8.6,0,0,0,10.4,44a12.7,12.7,0,0,0,9,21.6h1A12.7,12.7,0,0,0,42,75.4l1.3-1.5h.1a17.9,17.9,0,0,0,12.8-5.3,21,21,0,0,0,2.6-3.3A22.4,22.4,0,0,0,71.3,59a22.1,22.1,0,0,0,6.2-18.1l1.4-1.3a23.4,23.4,0,0,0,6.7-16.5A23.2,23.2,0,0,0,62.4,0Z" style="fill:#6c9433"/><path d="M14,84.5c-2.7,0-5.8-1.6-8.4-4.1C1.4,76.2.3,70.8,3,68.1A154.2,154.2,0,0,1,23.1,53.8v-1a16.3,16.3,0,0,1,1.2-5.4,10.1,10.1,0,0,1,.9-1.6l.5-.7a1.6,1.6,0,0,1,1.1-.5h.4a2,2,0,0,1,1.1,1.1,4.5,4.5,0,0,0,.1.8,15.9,15.9,0,0,1,.2,1.7c0,.7.1,1.5.1,2.3V51a8,8,0,0,0,1.9-1.3l.3-.4a2.9,2.9,0,0,0-.2-.9,9.7,9.7,0,0,1-.2-3A13.8,13.8,0,0,1,31.7,40a11.6,11.6,0,0,1,.8-1.6l.5-.7a1.3,1.3,0,0,1,1.2-.5h.3a1.4,1.4,0,0,1,1.1,1.1,7.3,7.3,0,0,1,.2.8,11.1,11.1,0,0,0,.2,1.7v3.3l3.2-3.2h0a6.1,6.1,0,0,1-.2-1.5,16,16,0,0,1,0-3.1,14.2,14.2,0,0,1,1.9-5.1,11.9,11.9,0,0,1,1-1.6l.6-.6a1.4,1.4,0,0,1,1-.4h.6a1.6,1.6,0,0,1,.9,1.2,4.5,4.5,0,0,0,.1.8,10.3,10.3,0,0,1-.1,1.7c0,.7-.1,1.5-.1,2.3s-.1.7-.2,1l.9-.8,2.9-2.6c0-.3-.1-.5-.1-.8a3.8,3.8,0,0,1,0-1.5,8,8,0,0,1,.6-3,13.1,13.1,0,0,1,2.6-4.8l1.3-1.4.7-.5.8-.2a1.2,1.2,0,0,1,.8.2,1.5,1.5,0,0,1,.7,1.4,4.2,4.2,0,0,1-.1.7,6.7,6.7,0,0,1-.3,1.7,17.4,17.4,0,0,1-.5,2.2.8.8,0,0,0-.1.4l3.6-3,2.6-2,.4-.3L63,20.2l.5-.4.7-.5a1.6,1.6,0,0,1,.9-.3,1.8,1.8,0,0,1,1,.4,1.7,1.7,0,0,1,.2,2l-.5.7-.4.5-1.1,1.5-.3.5-2,2.5-3.1,3.8h0l.6-.2,2.3-.6,1.7-.3h.8a1.7,1.7,0,0,1,1.3.7,1.5,1.5,0,0,1,0,1.6l-.5.7a9.4,9.4,0,0,1-1.4,1.3A15.6,15.6,0,0,1,59,36.8l-3.1.6H54.4l-.9-.2-2.6,2.9a4.7,4.7,0,0,1-1,1h1.4l2.2-.3H56a1.4,1.4,0,0,1,1.3.9,1.4,1.4,0,0,1-.3,1.5l-.6.6-1.6,1.1a14.2,14.2,0,0,1-5.1,1.9H46.6l-1.5-.3h-.3l-3.2,3.3h3.5l1.8.2h.7a1.4,1.4,0,0,1,1.1,1.1,1.4,1.4,0,0,1-.4,1.5l-.7.5a8.2,8.2,0,0,1-1.7.9,13.3,13.3,0,0,1-5.3,1.2H40a10.6,10.6,0,0,1-2.5-.2l-1-.3-.3.3a6.3,6.3,0,0,0-1.3,2h2.9l1.7.2h.8a1.7,1.7,0,0,1,1.1,1.1,1.7,1.7,0,0,1-.5,1.5l-.7.5-1.6.9a15.9,15.9,0,0,1-5.3,1.3H32.1A157.5,157.5,0,0,1,17.9,83,5.5,5.5,0,0,1,14,84.5Z" style="fill:#fafcfb"/><path d="M65.1,20.5l-.5.7c-.4.5-.8,1.2-1.5,2l-2.3,3-3,3.7L54.3,34h.1l1-.3,1.1-.4,1.2-.3,2.3-.8,2.1-.6,1.6-.2h.6l-.4.5A6.6,6.6,0,0,1,62.7,33a15,15,0,0,1-4.2,2.4l-2.7.5H54.5l-1.1-.2-.4-.2-3.2,3.6-3.9,4.2h.8l1.2-.2,1.2-.2,2.4-.4,2.1-.2h2.3l-.5.5-1.3.9a14.7,14.7,0,0,1-4.6,1.7H46.8l-1.3-.2-1-.4-4.3,4.4-2.4,2.3h7.3l1.6.2h.6l-.5.3a5.3,5.3,0,0,1-1.5.8,11,11,0,0,1-4.8,1.1H40a7.5,7.5,0,0,1-2.1-.2l-1.3-.3-.4-.2-1,.9h-.1a7.1,7.1,0,0,0-1.6,2.6l-1,2.2h5.2l1.6.2h.6l-.5.4a6,6,0,0,1-1.4.7,13.5,13.5,0,0,1-4.8,1.2h-2A162.8,162.8,0,0,1,16.9,81.9,4,4,0,0,1,14,83c-2.2,0-5-1.3-7.3-3.7S2,71.3,4,69.2A152,152,0,0,1,24.7,54.6a10.9,10.9,0,0,1-.1-1.8A13.6,13.6,0,0,1,25.7,48a6,6,0,0,1,.7-1.4l.4-.5a1.5,1.5,0,0,1,.1.6,6.3,6.3,0,0,1,.2,1.6c0,.6.1,1.4.1,2.2s-.1,1.6-.1,2.4v.4l2.1-.9a8.5,8.5,0,0,0,2.5-1.7h0l1-1.1c0-.1-.1-.2-.1-.3a5.6,5.6,0,0,1-.4-1.2,8.2,8.2,0,0,1-.2-2.7,13.6,13.6,0,0,1,1-4.8l.8-1.4a1.1,1.1,0,0,1,.4-.5,2.8,2.8,0,0,0,.1.6,13.7,13.7,0,0,0,.2,1.6v4.6a4.9,4.9,0,0,1-.1,1.2v1.1l2.2-2.2L41,41.3l-.3-.9-.3-1.3a25.3,25.3,0,0,1,.1-2.7,13.8,13.8,0,0,1,1.7-4.6,4.8,4.8,0,0,1,.9-1.3l.4-.5a1.5,1.5,0,0,1,.1.6v1.6c-.1.7-.1,1.4-.2,2.2s-.3,1.6-.4,2.4a5,5,0,0,1-.2,1.2c0,.4-.1.8-.1,1.1s-.1.4-.1.6l4-3.8,3.6-3.3a.3.3,0,0,0-.1-.2,3.6,3.6,0,0,1-.2-1.1,2.9,2.9,0,0,1,0-1.3,8.6,8.6,0,0,1,.5-2.7A14.6,14.6,0,0,1,52.8,23l1.1-1.1.5-.4v.6c-.1.4-.2,1-.3,1.6s-.4,1.4-.6,2.1a15.5,15.5,0,0,1-.7,2.3c-.1.4-.3.8-.4,1.2l-.3,1.1-.3.8,3.9-3.3,3.8-3.1,2.9-2.3,2-1.5.7-.5m0-3a3.2,3.2,0,0,0-1.8.6l-.7.5h0l-.5.4-1.5,1.1-.5.4-2.5,2-.3.2v-.2a4.4,4.4,0,0,0,.1-.9,2.8,2.8,0,0,0-1.5-2.7,2.6,2.6,0,0,0-1.5-.4,2.5,2.5,0,0,0-1.6.5l-.9.6-1.4,1.5a15.2,15.2,0,0,0-2.9,5.3,10.9,10.9,0,0,0-.7,3.4,5.4,5.4,0,0,0,0,1.8l-.3.3V30.5a4.4,4.4,0,0,1-.1-.9,3,3,0,0,0-1.9-2.4L43.5,27a3.2,3.2,0,0,0-2,.8,3.1,3.1,0,0,0-.7.8,6.8,6.8,0,0,0-1.2,1.7,15.5,15.5,0,0,0-2,5.7,9.8,9.8,0,0,0-.1,3.4,3.1,3.1,0,0,0,.1,1h-.2a7.2,7.2,0,0,0-.2-1.7,2.8,2.8,0,0,0-.1-.8,3.2,3.2,0,0,0-2.2-2.3h-.7a2.9,2.9,0,0,0-2.3,1l-.6.9a5.7,5.7,0,0,0-1,1.8A17.1,17.1,0,0,0,29,44.1a2.1,2.1,0,0,0-1.5-.9h-.7a3,3,0,0,0-2.3,1c0,.1-.3.4-.6.9l-1,1.8a19.5,19.5,0,0,0-1.3,5.9v.2A155.5,155.5,0,0,0,1.9,67.1c-3.3,3.3-2.2,9.5,2.7,14.4C7.4,84.3,10.9,86,14,86a6.9,6.9,0,0,0,5-2A148.9,148.9,0,0,0,32.9,64.4h.4A16.5,16.5,0,0,0,39.2,63l1.9-1,.8-.7a2.8,2.8,0,0,0,.9-3,2.4,2.4,0,0,0-.9-1.5,18,18,0,0,0,4.7-1.2l1.8-1.1a2.6,2.6,0,0,0,.9-.6,3,3,0,0,0-1.4-5.2h-.8l-1.9-.2h-.1l.2-.2,1.2.2h3.4a17.7,17.7,0,0,0,5.7-2.1L57.4,45l.7-.7a3,3,0,0,0,.6-3.1,2.9,2.9,0,0,0-2.5-1.9H53.7l.3-.3h2a13.7,13.7,0,0,0,3.4-.7,16.2,16.2,0,0,0,5.3-3,10.4,10.4,0,0,0,1.5-1.5,2.1,2.1,0,0,0,.6-.8,2.9,2.9,0,0,0,.1-3.1,2.8,2.8,0,0,0-2.6-1.5H62.9l.3-.4,2-2.5.3-.5,1.1-1.5L67,23h0l.5-.7a2.9,2.9,0,0,0-.3-3.8,3,3,0,0,0-2.1-.9Zm0,6Z" style="fill:#dfe590"/></g></g></g></svg>