<svg xmlns="http://www.w3.org/2000/svg" width="40.62" height="40.69" viewBox="0 0 40.62 40.69">
  <g id="Layer_2" data-name="Layer 2">
    <g id="Layer_4" data-name="Layer 4">
      <g id="rabbit_clean_3" data-name="rabbit_clean 3">
        <g>
          <path d="M23.9,13.84l-.15,0-.11,0-.95-.23a.71.71,0,0,1-.56-.83.76.76,0,0,1,.31-.47.81.81,0,0,1,.4-.12l.14,0h0c.31,0,.55-.56.62-1.09.05-.29-.42-.58-.57-.67A.76.76,0,0,1,22.7,10a.73.73,0,0,1,.12-.57A23.36,23.36,0,0,1,31,2,10.62,10.62,0,0,1,36.06.71a6.56,6.56,0,0,1,3.59.81,1,1,0,0,1,.25.78c-.06,1.31-1.9,6.56-4.93,9S25.6,13.8,24.09,13.81Z" fill="#baa2ee"/>
          <path d="M36.06,1.43a6.39,6.39,0,0,1,3.09.6c.35.34-1.55,6.23-4.63,8.68C31.61,13,24.72,13.1,24,13.1h-.07v0c-.38-.09-.74-.18-1.09-.25h0l.22,0c.9,0,1.19-1.25,1.26-1.7s-.33-1-.92-1.4a22.89,22.89,0,0,1,7.93-7.18,10,10,0,0,1,4.73-1.18m0-1.43a11.37,11.37,0,0,0-5.41,1.36A24.11,24.11,0,0,0,22.23,9,1.42,1.42,0,0,0,22,10.1a1.4,1.4,0,0,0,.68.93,1.06,1.06,0,0,1,.18.13,1.87,1.87,0,0,1-.08.28,1.44,1.44,0,0,0-1.35,1.11,1.48,1.48,0,0,0,.19,1.09,1.44,1.44,0,0,0,.91.63l1,.23h.06a1.32,1.32,0,0,0,.34,0l.29,0c1.75,0,8.13-.24,11.2-2.69,3.25-2.58,5.14-8.07,5.21-9.49A1.7,1.7,0,0,0,40.14,1c-.71-.68-2.61-1-4.08-1Z" fill="#7850b3"/>
        </g>
        <g>
          <path d="M16.7,13.84a.64.64,0,0,1-.2,0c-1.73,0-7.94-.22-10.85-2.54S.77,3.6.72,2.3A1,1,0,0,1,1,1.52,6.48,6.48,0,0,1,4.55.71,10.63,10.63,0,0,1,9.63,2,23.45,23.45,0,0,1,17.8,9.38a.72.72,0,0,1-.23,1c-.14.09-.61.38-.57.67.08.53.32,1.1.56,1.1l.16,0a.85.85,0,0,1,.42.11.83.83,0,0,1,.34.46.71.71,0,0,1-.55.84l-1,.23-.1,0Z" fill="#baa2ee"/>
          <path d="M4.55,1.43A10,10,0,0,1,9.29,2.61a22.89,22.89,0,0,1,7.93,7.18c-.59.35-1,.82-.92,1.4s.36,1.7,1.26,1.7l.22,0h0l-1.08.25v0h-.07C15.9,13.1,9,13,6.1,10.71,3,8.26,1.11,2.37,1.47,2a6.34,6.34,0,0,1,3.08-.6M4.55,0h0C3.09,0,1.19.32.48,1A1.66,1.66,0,0,0,0,2.34c.07,1.42,2,6.91,5.21,9.49,3.09,2.46,9.55,2.68,11.24,2.69l.27,0a1.17,1.17,0,0,0,.32,0h.05l1-.23a1.43,1.43,0,0,0,1.1-1.69,1.43,1.43,0,0,0-1.35-1.14c0-.08-.06-.18-.09-.28l.19-.13a1.43,1.43,0,0,0,.68-.93A1.42,1.42,0,0,0,18.39,9,24.2,24.2,0,0,0,10,1.36,11.41,11.41,0,0,0,4.55,0Z" fill="#7850b3"/>
        </g>
        <g>
          <path d="M10.62,40A6.76,6.76,0,0,1,5.56,37.6c-2.19-2.4-3.27-6.28-2.89-10.38C3.3,20.56,7.93,15.46,11,14a16.72,16.72,0,0,1,6.45-1.21l1,0h3.28l.9,0A16.8,16.8,0,0,1,29.14,14c3.09,1.49,7.73,6.59,8.35,13.25.38,4.1-.7,8-2.88,10.38A6.77,6.77,0,0,1,29.54,40Z" fill="#baa2ee"/>
          <path d="M20.81,13.44h.9l1,0a16.66,16.66,0,0,1,6.16,1.14c2.59,1.25,7.32,6,8,12.68s-2.77,12-7.24,12H10.62c-4.47,0-7.86-5.27-7.23-12s5.35-11.43,7.94-12.68a16.7,16.7,0,0,1,6.16-1.14l1,0h2.35m0-1.42H17.45a17.4,17.4,0,0,0-6.74,1.28C7.47,14.89,2.61,20.22,2,27.16c-.4,4.29.75,8.37,3.07,10.92a7.57,7.57,0,0,0,5.59,2.61H29.54a7.61,7.61,0,0,0,5.6-2.61c2.32-2.55,3.46-6.63,3.06-10.92-.65-6.94-5.51-12.27-8.75-13.83a17.35,17.35,0,0,0-6.73-1.28H20.81Z" fill="#7850b3"/>
        </g>
        <path d="M22.18,13.46H18C13.91,16.27,9.34,22.38,8,27.85c-1.11,4.7-.1,9.22,1,11.19a5.59,5.59,0,0,0,1.58.23H29.54A5.54,5.54,0,0,0,31.12,39a17.14,17.14,0,0,0,1-11.19C30.83,22.38,26.26,16.27,22.18,13.46Z" fill="#e6dff7"/>
        <path d="M29.78,5.07a.41.41,0,0,0-.56.1h0a18.19,18.19,0,0,1-5.77,5.27c-.24.14-.5.26-.75.39l-.15-.2-.19-.16-.19,0a.39.39,0,0,0-.29.28.38.38,0,0,0,.09.38h0l-.56.26a.4.4,0,0,0-.22.53h0l-.08.21,0,.12a.39.39,0,0,0,.38.3l.1,0,.63-.18a.9.9,0,0,1-.23.38l-.47-.13a.37.37,0,0,0-.43.19h0l-.24-.07-.15.12a.37.37,0,0,0-.13.27l-.39,0h-.12A.38.38,0,0,0,20,12.8a.37.37,0,0,0-.19-.11l0,0-.23-.08-.16.1-.12.08-.75.19a1.24,1.24,0,0,1-.48-.4h.08a.4.4,0,0,0,.31-.15.39.39,0,0,0,.07-.4l-.11-.21h0l0,0a.4.4,0,0,0,.09-.55h0l0,0h0l.23-.09,0-.19a.38.38,0,0,0-.11-.39l-.19-.14-.19,0a1.94,1.94,0,0,0-.3.13,19.55,19.55,0,0,0-4.7-4.28L13,6.18l-.17.09a.37.37,0,0,0-.22.33A.39.39,0,0,0,12.8,7a18.65,18.65,0,0,1,4.54,4.14,1.52,1.52,0,0,0-.18.36,9.84,9.84,0,0,1-1.35-.73,26.74,26.74,0,0,1-2.39-1.66A.41.41,0,0,0,13,9a.43.43,0,0,0-.25.32v.24l.15.12a26,26,0,0,0,2.47,1.72,9.93,9.93,0,0,0,1.68.87,1.87,1.87,0,0,0,.48,1,24,24,0,0,0-4.45,1.85l-.2.14v.19a.41.41,0,0,0,.2.36.36.36,0,0,0,.2.06.41.41,0,0,0,.19-.05A23.52,23.52,0,0,1,17.63,14a11.3,11.3,0,0,0-2.84,4.17l-.07.23.12.15a.44.44,0,0,0,.32.15h.06a.38.38,0,0,0,.31-.25,10.68,10.68,0,0,1,3.52-4.61l.4,0,.62,0,.6,0h.14a3.58,3.58,0,0,0,.68-.06,9.91,9.91,0,0,1,2.17,1.58,6.83,6.83,0,0,1,1.79,2.74.42.42,0,0,0,.3.26h.08a.39.39,0,0,0,.3-.14l.14-.2L26.21,18a7.64,7.64,0,0,0-2-3.06,9.4,9.4,0,0,0-1-.87c.3.12.61.26.93.41a14.59,14.59,0,0,1,2.34,1.37l.21.12.18-.08a.4.4,0,0,0,.23-.33.39.39,0,0,0-.16-.36,15.64,15.64,0,0,0-2.52-1.47,16,16,0,0,0-1.55-.64,1.75,1.75,0,0,0,.27-.88,39.68,39.68,0,0,0,5.06-1.94.39.39,0,0,0,.19-.52.41.41,0,0,0-.54-.2h0a37.17,37.17,0,0,1-3.87,1.55,18.65,18.65,0,0,0,4.48-3.62,18.37,18.37,0,0,0,1.45-1.82A.4.4,0,0,0,29.78,5.07Z" fill="#7850b3"/>
        <g>
          <path d="M18.46,14.17l-.15,0a1.48,1.48,0,0,1-1-.46,2.76,2.76,0,0,1-.55-2,1.93,1.93,0,0,1,1.52-1.66A5.59,5.59,0,0,1,20,9.8h.19a5.33,5.33,0,0,1,1.68.26,1.92,1.92,0,0,1,1.52,1.65,2.85,2.85,0,0,1-.55,2,1.51,1.51,0,0,1-1,.46l-.14,0H18.46Z" fill="#baa2ee"/>
          <path d="M20.18,10.52a5,5,0,0,1,1.45.21c.57.19,1,.52,1,1s0,1.7-.95,1.7H18.46c-1,0-1-1.27-1-1.7s.47-.83,1-1A5.1,5.1,0,0,1,20,10.52h.19m0-1.43H20a6.17,6.17,0,0,0-1.91.29,2.61,2.61,0,0,0-2,2.3,3.46,3.46,0,0,0,.75,2.5,2.2,2.2,0,0,0,1.4.68,1,1,0,0,0,.24,0h3.25l.24,0a2.2,2.2,0,0,0,1.4-.68,3.42,3.42,0,0,0,.74-2.52,2.6,2.6,0,0,0-2-2.29,6.3,6.3,0,0,0-1.89-.28Z" fill="#7850b3"/>
        </g>
        <g>
          <path d="M25.66,31.9C25.66,35,23.17,35,20.08,35S14.5,35,14.5,31.9a7.69,7.69,0,0,1,1.91-4.85,5.45,5.45,0,0,1,2.71-1.77c-.12-2.15-.83-3.81-1.7-3.81-.34,0-.67.27-.94.73.36-1.37.95-2.28,1.63-2.28,1.09,0,2,2.28,2,5.09v.15h0V25c0-2.81.87-5.09,2-5.09.68,0,1.28.91,1.63,2.28-.27-.46-.59-.73-.94-.73-.86,0-1.57,1.65-1.7,3.81A5.37,5.37,0,0,1,23.74,27,7.7,7.7,0,0,1,25.66,31.9Z" fill="#f9e4e4"/>
          <g>
            <path d="M23.74,26.75a.25.25,0,0,1-.2-.09A5.19,5.19,0,0,0,21,25a.27.27,0,0,1-.21-.28c.13-2.4.95-4.07,2-4.07.31,0,.76.15,1.18.86l0,.08a11.74,11.74,0,0,1,.33,2.88,7,7,0,0,1-.25,2.1.27.27,0,0,1-.21.19Z" fill="#f9e4e4"/>
            <path d="M22.72,20.92c.35,0,.67.26.94.72A11.43,11.43,0,0,1,24,24.46a6.51,6.51,0,0,1-.25,2A5.39,5.39,0,0,0,21,24.72c.13-2.15.84-3.8,1.7-3.8m0-.56c-1.38,0-2.13,2.18-2.25,4.33a.55.55,0,0,0,.42.57,4.89,4.89,0,0,1,2.44,1.58.55.55,0,0,0,.41.19h.11a.55.55,0,0,0,.42-.37,7.28,7.28,0,0,0,.27-2.19,12.38,12.38,0,0,0-.34-2.95.47.47,0,0,0-.06-.15,1.69,1.69,0,0,0-1.42-1Z" fill="#7850b3"/>
          </g>
          <g>
            <path d="M16.41,26.77h-.06a.28.28,0,0,1-.2-.18,6.74,6.74,0,0,1-.27-2.12,11.73,11.73,0,0,1,.34-2.88.13.13,0,0,1,0-.08c.42-.71.87-.86,1.17-.86,1,0,1.84,1.67,2,4.07a.29.29,0,0,1-.21.29,5.15,5.15,0,0,0-2.57,1.67A.26.26,0,0,1,16.41,26.77Z" fill="#f9e4e4"/>
            <path d="M17.42,20.92c.87,0,1.58,1.65,1.7,3.81a5.36,5.36,0,0,0-2.71,1.76,6.49,6.49,0,0,1-.25-2,12,12,0,0,1,.32-2.82c.27-.46.6-.72.94-.72m0-.56a1.67,1.67,0,0,0-1.41,1,.47.47,0,0,0-.06.15,11.87,11.87,0,0,0-.35,2.95,7.29,7.29,0,0,0,.28,2.21.56.56,0,0,0,.42.37h.11a.57.57,0,0,0,.42-.19,4.86,4.86,0,0,1,2.43-1.6.54.54,0,0,0,.41-.57c-.12-2.15-.86-4.33-2.25-4.33Z" fill="#7850b3"/>
          </g>
          <path d="M19.49,32.25c0-.33.27-.32.59-.32s.6,0,.6.32a.72.72,0,0,1-.6.72C19.76,33,19.49,32.58,19.49,32.25Z" fill="#7850b3"/>
          <path d="M18.63,31.9a.73.73,0,0,1-.72.73.73.73,0,0,1-.73-.73.73.73,0,0,1,.73-.72A.72.72,0,0,1,18.63,31.9Z" fill="#7850b3"/>
          <path d="M21.53,31.9a.73.73,0,0,0,.73.73A.73.73,0,0,0,23,31.9a.72.72,0,0,0-.72-.72A.73.73,0,0,0,21.53,31.9Z" fill="#7850b3"/>
          <path d="M22,19.92c.68,0,1.28.91,1.63,2.28A11.29,11.29,0,0,1,24,25a6.46,6.46,0,0,1-.25,2,7.7,7.7,0,0,1,1.92,4.87c0,3-2.38,3.05-5.36,3.05h-.43c-3,0-5.37,0-5.37-3.05a7.69,7.69,0,0,1,1.91-4.85,6.61,6.61,0,0,1-.25-2,11.81,11.81,0,0,1,.32-2.81c.36-1.37.95-2.28,1.63-2.28,1.09,0,2,2.28,2,5.09v.15h0V25c0-2.81.87-5.09,2-5.09m0-.83a2.31,2.31,0,0,0-2,1.55,2.29,2.29,0,0,0-2-1.55c-1.09,0-1.95,1-2.43,2.9a12.45,12.45,0,0,0-.35,3,8.8,8.8,0,0,0,.16,1.84,8.47,8.47,0,0,0-1.82,5,3.32,3.32,0,0,0,2.09,3.43,11.88,11.88,0,0,0,4.11.45h.43a11.88,11.88,0,0,0,4.11-.45,3.33,3.33,0,0,0,2.08-3.43,8.47,8.47,0,0,0-1.83-5.07A8.6,8.6,0,0,0,24.82,25a12.45,12.45,0,0,0-.35-3c-.48-1.87-1.35-2.9-2.44-2.9Z" fill="#7850b3"/>
        </g>
      </g>
    </g>
  </g>
</svg>
