<svg xmlns="http://www.w3.org/2000/svg" width="41.3" height="40.57" viewBox="0 0 41.3 40.57">
  <g style="isolation: isolate">
    <g id="Layer_2" data-name="Layer 2">
      <g id="Layer_4" data-name="Layer 4">
        <g id="rabbit_clean_4" data-name="rabbit_clean 4">
          <g>
            <path d="M29.64,2.62A4.6,4.6,0,0,1,30,9.12c-1.7,1.89-7.49,5.21-9.37,3.5s.84-7.79,2.54-9.68A4.61,4.61,0,0,1,29.64,2.62Z" fill="#f1f2f2" fill-rule="evenodd"/>
            <path d="M31.14,6.35A4.62,4.62,0,0,1,30,9.12c-1.7,1.89-7.49,5.21-9.37,3.5-1-.92-.69-3.15.11-5.29a5.24,5.24,0,0,0-.21,1.29A2.42,2.42,0,0,0,23,11.13a8.79,8.79,0,0,0,5.66-1.58A6.13,6.13,0,0,0,31.14,6.35Z" fill="#e3e2e2" fill-rule="evenodd"/>
            <path d="M20.21,10.07c1.16-1.29,4.12,1.38,2.95,2.67L12,25.14,9,22.47Z" fill="#ffeb81" fill-rule="evenodd"/>
            <path d="M20.72,9.76c1.34-.33,3.46,1.86,2.44,3L12,25.14l-1.7-1.54.06-1.88a5.64,5.64,0,0,1,1.42,0A2.05,2.05,0,0,0,13.62,21l7.92-8.86A1.45,1.45,0,0,0,21.2,10,1.72,1.72,0,0,0,20.72,9.76Z" fill="#ffaa5a" fill-rule="evenodd" opacity="0.5" style="mix-blend-mode: multiply"/>
            <path d="M2.93,32.15a4.62,4.62,0,0,0,6.51-.33,15.6,15.6,0,0,0,3.16-7.39,2.2,2.2,0,0,0-.92-2,2.16,2.16,0,0,0-2-.71,15.4,15.4,0,0,0-7,3.89A4.61,4.61,0,0,0,2.93,32.15Z" fill="#f1f2f2" fill-rule="evenodd"/>
            <path d="M2.93,32.15a4.62,4.62,0,0,0,6.51-.33,15.84,15.84,0,0,0,3.12-7c-.57.8-.92,1.91-1.47,2.83a12.87,12.87,0,0,1-3.82,3.6C4.87,32.78,3,32.3,1.63,29.87l-.1-.17,0,0A4.64,4.64,0,0,0,2.93,32.15Z" fill="#e3e2e2" fill-rule="evenodd"/>
            <path d="M20.1,11.31h0a.54.54,0,0,1,0,.76l-7.32,8.1a.56.56,0,0,1-.77,0h0a.55.55,0,0,1,0-.77l7.32-8.1A.54.54,0,0,1,20.1,11.31Z" fill="#f9d3d5" fill-rule="evenodd" opacity="0.3" style="mix-blend-mode: screen"/>
            <path d="M26.55,1.43a4.57,4.57,0,0,1,4.57,5l0-.05a1.48,1.48,0,0,1,0,.19c0,.1,0,.21,0,.31s-.08.34-.13.51l-.09.3a5,5,0,0,1-.25.52c0,.08-.07.16-.12.24a4.88,4.88,0,0,1-.52.7,15.41,15.41,0,0,1-7,3.88L12.6,24.42h0c0,.13,0,.28-.06.41s0,0,0,0,0,.23-.06.34-.05.29-.08.44-.09.37-.14.56-.09.31-.13.46-.13.38-.2.57-.1.31-.16.46l-.24.58c-.06.14-.12.29-.19.44l-.27.55c-.07.14-.13.27-.2.4s-.2.36-.3.53l-.19.34c-.11.18-.22.34-.33.5l-.17.25a5.36,5.36,0,0,1-.43.54l0,.05A4.61,4.61,0,0,1,6,33.33a4.66,4.66,0,0,1-1.52-.25,4.76,4.76,0,0,1-1.57-.93,4.92,4.92,0,0,1-.57-.64l-.15-.22a3.5,3.5,0,0,1-.29-.49c0-.09-.09-.18-.12-.26A3.75,3.75,0,0,1,1.61,30c0-.09-.05-.17-.07-.25l0-.1,0,0a4.56,4.56,0,0,1,1.08-4.05,15.45,15.45,0,0,1,7-3.89L20,10.33s0-.06,0-.09,0-.27.05-.41,0-.21,0-.31a3.67,3.67,0,0,1,.09-.43c0-.11,0-.21.07-.32s.08-.3.13-.45L20.46,8c.06-.15.11-.31.17-.46a1.72,1.72,0,0,1,.07-.21v0a15.34,15.34,0,0,1,2.44-4.42,4.61,4.61,0,0,1,3.42-1.51m4.59,4.92h0M26.55,0a6,6,0,0,0-4.48,2A16.16,16.16,0,0,0,19.4,6.73l0,.1L19.3,7l0,.06c-.06.17-.12.34-.17.51s-.07.21-.1.32-.11.36-.15.53l-.09.35c0,.17-.07.33-.1.49l-.06.36s0,.07,0,.1L8.9,20.45a17.4,17.4,0,0,0-7.35,4.23A6,6,0,0,0,.09,29.75a1.5,1.5,0,0,0,0,.2,1.54,1.54,0,0,0,.05.17l.06.22,0,.06a6.37,6.37,0,0,0,.24.7l.16.34a6.57,6.57,0,0,0,.39.65l0,0a1.88,1.88,0,0,0,.16.23A5.14,5.14,0,0,0,2,33.2,6,6,0,0,0,4,34.43a6.11,6.11,0,0,0,2,.33,6,6,0,0,0,4.47-2l.08-.09c.16-.19.33-.4.49-.63a1.43,1.43,0,0,0,.14-.2l.05-.08,0-.05c.11-.16.22-.32.33-.5s.11-.18.16-.27l.06-.11,0-.06c.09-.17.19-.33.28-.51s.11-.2.16-.31l.06-.12,0-.05.27-.55.15-.36,0-.11.26-.62c.05-.13.1-.26.14-.4l0-.1.21-.62.12-.43,0-.08c.06-.22.12-.42.16-.63a4.63,4.63,0,0,0,.09-.49l0-.11c0-.09,0-.18,0-.26L23.68,14.3A17,17,0,0,0,31,10.08a6.09,6.09,0,0,0,.68-.92,2.15,2.15,0,0,0,.14-.26l0-.05a6.57,6.57,0,0,0,.32-.69c0-.12.08-.24.12-.36a5.87,5.87,0,0,0,.17-.7c0-.14.05-.27.06-.41a.15.15,0,0,0,0-.07,1.24,1.24,0,0,0,0-.27,1.09,1.09,0,0,0,0-.18,6,6,0,0,0-6-6.17Z" fill="#ffaa5a"/>
          </g>
          <g>
            <path d="M39.49,20.47a4.6,4.6,0,0,1-2.38,6.06c-2.33,1-9,1.66-10-.67s4-6.75,6.31-7.77A4.6,4.6,0,0,1,39.49,20.47Z" fill="#f1f2f2" fill-rule="evenodd"/>
            <path d="M39.32,24.49a4.58,4.58,0,0,1-2.21,2c-2.33,1-9,1.66-10-.67-.55-1.27.67-3.15,2.28-4.78a5.46,5.46,0,0,0-.71,1.09A2.41,2.41,0,0,0,30,25.5a8.76,8.76,0,0,0,5.81.9A6.09,6.09,0,0,0,39.32,24.49Z" fill="#e3e2e2" fill-rule="evenodd"/>
            <path d="M27.83,23.38c1.59-.7,3.19,3,1.59,3.65L14.1,33.71l-1.6-3.65Z" fill="#e6dff7" fill-rule="evenodd"/>
            <path d="M28.43,23.31c1.35.25,2.39,3.12,1,3.72L14.1,33.71l-.92-2.1L14,29.92a5.34,5.34,0,0,1,1.3.58,2.07,2.07,0,0,0,2,.14l10.88-4.81a1.45,1.45,0,0,0,.59-2.15A1.53,1.53,0,0,0,28.43,23.31Z" fill="#baa2ee" fill-rule="evenodd" opacity="0.5" style="mix-blend-mode: multiply"/>
            <path d="M3,36.38a4.61,4.61,0,0,0,6.06,2.38A15.43,15.43,0,0,0,15,33.33a2.19,2.19,0,0,0,0-2.17,2.18,2.18,0,0,0-1.56-1.49,15.39,15.39,0,0,0-8,.65A4.6,4.6,0,0,0,3,36.38Z" fill="#f1f2f2" fill-rule="evenodd"/>
            <path d="M3,36.38a4.61,4.61,0,0,0,6.06,2.38,15.83,15.83,0,0,0,5.74-5.1c-.85.49-1.63,1.36-2.51,2a12.8,12.8,0,0,1-5,1.71c-2.82.42-4.29-.78-4.57-3.57l0-.2v0A4.62,4.62,0,0,0,3,36.38Z" fill="#e3e2e2" fill-rule="evenodd"/>
            <path d="M27.22,24.46h0a.53.53,0,0,1-.28.71l-10,4.36a.55.55,0,0,1-.72-.27h0a.56.56,0,0,1,.28-.72l10-4.36A.54.54,0,0,1,27.22,24.46Z" fill="#f9d3d5" fill-rule="evenodd" opacity="0.3" style="mix-blend-mode: screen"/>
            <path d="M35.27,17.7a4.59,4.59,0,0,1,4,6.83l0,0c0,.06-.07.11-.1.16s-.11.18-.17.27-.21.28-.32.41l-.21.23a5.2,5.2,0,0,1-.44.38l-.21.17a5.08,5.08,0,0,1-.76.42,15.48,15.48,0,0,1-5.44.92,10.77,10.77,0,0,1-2.57-.28L15,33.32h0c-.06.12-.15.24-.22.35l0,0-.19.28c-.09.13-.17.25-.27.38s-.23.29-.35.44-.2.25-.31.37-.27.3-.41.44l-.34.35-.46.43-.35.32-.48.39-.34.29-.49.35-.32.24-.5.31a1.4,1.4,0,0,1-.26.16,4.6,4.6,0,0,1-.62.32l0,0a4.61,4.61,0,0,1-5-.89,4.72,4.72,0,0,1-1-1.49,4.88,4.88,0,0,1-.26-.82,2,2,0,0,1,0-.26,5.54,5.54,0,0,1-.07-.57v-.29a5.29,5.29,0,0,1,0-.56,2.17,2.17,0,0,1,0-.25.31.31,0,0,1,0-.1v0a4.62,4.62,0,0,1,2.65-3.24,15.6,15.6,0,0,1,5.46-.92,10.7,10.7,0,0,1,2.56.27L27.5,23.52l.05-.08.21-.36.18-.26.25-.35.21-.26q.13-.18.3-.36l.21-.25.34-.36.15-.16v0a15,15,0,0,1,4-3,4.61,4.61,0,0,1,1.84-.39m4,6.79h0m-4.06-8.21v0a6.09,6.09,0,0,0-2.41.5A16.49,16.49,0,0,0,28.47,20l-.08.08-.12.13,0,0-.37.39-.23.26-.35.42a3.15,3.15,0,0,0-.22.29c-.11.13-.2.27-.3.4a3.28,3.28,0,0,0-.2.31.56.56,0,0,0,0,.08L13.25,28.18A12.57,12.57,0,0,0,10.84,28a17,17,0,0,0-6,1,6,6,0,0,0-3.41,4,.66.66,0,0,0-.06.2s0,.12,0,.17a1.81,1.81,0,0,0,0,.23v.06a6.21,6.21,0,0,0-.07.73c0,.13,0,.25,0,.38a7.11,7.11,0,0,0,.08.75v.06a2.74,2.74,0,0,0,.05.28,5.79,5.79,0,0,0,1.72,3,6,6,0,0,0,6.56,1.16l.1,0a6.85,6.85,0,0,0,.71-.37l.22-.13.08-.05.55-.35.25-.18.1-.08.07,0,.46-.34.27-.22.11-.09,0,0c.16-.12.31-.25.47-.39l.28-.25.1-.09.49-.46.29-.3.08-.08.45-.48.29-.34.05-.07.4-.5.29-.42.06-.08c.05-.08.11-.15.15-.22l13.27-5.78a13.52,13.52,0,0,0,2.42.2,16.84,16.84,0,0,0,6-1,6.2,6.2,0,0,0,1-.56,1.37,1.37,0,0,0,.24-.18l.05,0a6.84,6.84,0,0,0,.56-.5,3.45,3.45,0,0,0,.26-.28,4.85,4.85,0,0,0,.44-.56c.08-.12.16-.23.23-.35l.06-.09a1.33,1.33,0,0,0,.18-.38,6,6,0,0,0,.11-5,6,6,0,0,0-5.53-3.62Z" fill="#a7bfee"/>
          </g>
        </g>
      </g>
    </g>
  </g>
</svg>
