<svg xmlns="http://www.w3.org/2000/svg" width="41.03" height="41.06" viewBox="0 0 41.03 41.06">
  <g id="Layer_2" data-name="Layer 2">
    <g id="Layer_4" data-name="Layer 4">
      <g id="rabbit_clean_1" data-name="rabbit_clean 1">
        <path d="M6.25,39.12l-4.31-4.3a1.74,1.74,0,0,1-.05-2.41L30.11,2l2-.59a19.56,19.56,0,0,0,3.26,4.23A19.69,19.69,0,0,0,39.6,8.91l-.59,2L8.65,39.16A1.72,1.72,0,0,1,6.25,39.12Z" fill="#ffa3a1"/>
        <path d="M35.37,5.66a19.56,19.56,0,0,1-3.26-4.23l-2,.59s.38,2,3.63,5.27S39,10.91,39,10.91l.59-2A19.69,19.69,0,0,1,35.37,5.66Z" fill="#cecece"/>
        <g>
          <path d="M36.5,11.21,34.7,9.4a2.58,2.58,0,0,1-2.58-.49,2.6,2.6,0,0,1-.5-2.58l-1.81-1.8a.84.84,0,0,0-1.23,0L3,32.1a1.11,1.11,0,0,0,0,1.55L7.42,38a1.1,1.1,0,0,0,1.54,0L36.48,12.45A.86.86,0,0,0,36.5,11.21Zm-6.68,2.42a1.72,1.72,0,0,1-2.42,0h0a1.71,1.71,0,0,1,0-2.42L28.63,10A1.7,1.7,0,0,1,31,10h0a1.7,1.7,0,0,1,0,2.41Z" fill="#ffd0ce"/>
          <path d="M14.2,20,3,32.1a1.11,1.11,0,0,0,0,1.55L7.42,38a1.1,1.1,0,0,0,1.54,0L21,26.85Z" fill="#ffe7e6"/>
          <g>
            <path d="M36.71,11.56a.8.8,0,0,1-.23.38L9,37.55a1.1,1.1,0,0,1-1.54,0L3,33.14a1.09,1.09,0,0,1-.3-.53,1.1,1.1,0,0,0,.3,1L7.42,38a1.1,1.1,0,0,0,1.54,0L36.48,12.45A.86.86,0,0,0,36.71,11.56Z" fill="#ec7670"/>
            <path d="M31.48,7a3.15,3.15,0,0,1,.14-.67l-.1-.1A3.09,3.09,0,0,0,31.48,7Z" fill="#ec7670"/>
          </g>
          <path d="M27.4,13.64h0a1.72,1.72,0,0,0,2.42,0l1.11-1.11a1.71,1.71,0,0,1-2.42,0h0a1.72,1.72,0,0,1,0-2.42L27.4,11.22A1.71,1.71,0,0,0,27.4,13.64Z" fill="#ec7670"/>
        </g>
        <circle cx="31.61" cy="9.85" r="1.71" transform="translate(2.29 25.23) rotate(-45)" fill="#ec7670"/>
        <circle cx="31.61" cy="9.42" r="1.71" fill="#cecece"/>
        <path d="M32.11,1.43a19.56,19.56,0,0,0,3.26,4.23A19.69,19.69,0,0,0,39.6,8.91l-.59,2L8.65,39.16a1.72,1.72,0,0,1-2.4,0l-4.31-4.3a1.74,1.74,0,0,1-.05-2.41L30.11,2l2-.59m0-1.43a1.4,1.4,0,0,0-.41.06l-2,.59a1.34,1.34,0,0,0-.64.4L.85,31.44a3.16,3.16,0,0,0,.08,4.39l4.31,4.3a3.13,3.13,0,0,0,2.23.93,3.21,3.21,0,0,0,2.16-.85L40,12a1.46,1.46,0,0,0,.39-.64l.59-2a1.42,1.42,0,0,0-.71-1.67,18.59,18.59,0,0,1-3.88-3,18.35,18.35,0,0,1-3-3.89A1.43,1.43,0,0,0,32.11,0Z" fill="#ec7670"/>
      </g>
    </g>
  </g>
</svg>
