<svg xmlns="http://www.w3.org/2000/svg" width="41.17" height="41.38" viewBox="0 0 41.17 41.38">
  <g style="isolation: isolate">
    <g id="Layer_2" data-name="Layer 2">
      <g id="Layer_4" data-name="Layer 4">
        <g id="rabbit_food_4" data-name="rabbit_food 4">
          <g>
            <path d="M24,6.54A2.9,2.9,0,0,1,25.44,7,3.66,3.66,0,0,1,26.63,8.2H27a3.67,3.67,0,0,1,2.16,1,6.72,6.72,0,0,1,1.9,4.29l.14,1.4a22.3,22.3,0,0,1-.68,7.09,11.14,11.14,0,0,1-2.27,4.53,4.78,4.78,0,0,1-1.41,1.12,1.63,1.63,0,0,1-.64.19h-.1a2.83,2.83,0,0,1-.86-.15l-.12,0c-.05.08-.09.17-.15.25a4.11,4.11,0,0,1-1.64,1.45,1.72,1.72,0,0,1-.5.16l-.2,0-.34,0a3.63,3.63,0,0,1-1.54-.68l-.49-.38c-.07-.07-.13-.15-.2-.21h0a2.61,2.61,0,0,1-.93.38,1.63,1.63,0,0,1-.31,0,3.45,3.45,0,0,1-2-.78,10.63,10.63,0,0,1-2.47-2.75,19.1,19.1,0,0,1-1.88-3.72l-.33-.91a23.53,23.53,0,0,1-.92-3.9,11.64,11.64,0,0,1-.1-2.5,6.73,6.73,0,0,1,.37-1.94,2.85,2.85,0,0,1,.37-.74h0a2.4,2.4,0,0,1,.27-.38,3.9,3.9,0,0,1,2.15-1.37h0a4.47,4.47,0,0,1,1.25-1.72,2.51,2.51,0,0,1,.53-.34,1.9,1.9,0,0,1,.84-.18,5.2,5.2,0,0,1,1.71.39l.75-.84a5.91,5.91,0,0,1,.15,1.45,9,9,0,0,0-3.24,1.32l-.16,0,.16,0,.46.17a6.1,6.1,0,0,1,.72.37l.29-.13.37-.11a4.91,4.91,0,0,1,.66-.06,2.77,2.77,0,0,1,1.6.47,2.37,2.37,0,0,1,.34.29,2.54,2.54,0,0,1,1.58-1.09,3.92,3.92,0,0,1,.51-.07l-.06-.06a5,5,0,0,0-1.14-.91h0a.78.78,0,0,1-.27-.37c0-.13-.09-.25-.11-.38L21,6.67h0a2.32,2.32,0,0,1,.41.22,6.7,6.7,0,0,1,.6.45,4.84,4.84,0,0,1,1.54-.77,1.81,1.81,0,0,1,.4,0m0-1.43h0a3.53,3.53,0,0,0-.72.08,4.67,4.67,0,0,0-1.15.45,3.08,3.08,0,0,0-.63-.32h-.06A1.23,1.23,0,0,0,21,5.24a1.48,1.48,0,0,0-.95.36l0,0a1.75,1.75,0,0,0-.32-.12,1.34,1.34,0,0,0-.35,0,1.41,1.41,0,0,0-1.06.47l-.14.15a5.18,5.18,0,0,0-1.26-.17,3.44,3.44,0,0,0-1.44.3,3.9,3.9,0,0,0-.82.53,5.59,5.59,0,0,0-1.38,1.66A5.26,5.26,0,0,0,11,10.07l0,.06a2.84,2.84,0,0,0-.35.5,4.61,4.61,0,0,0-.46,1,8.3,8.3,0,0,0-.46,2.33,13.34,13.34,0,0,0,.12,2.81,25.23,25.23,0,0,0,1,4.14l.35.95a20.35,20.35,0,0,0,2,4A11.79,11.79,0,0,0,16,28.94,4.7,4.7,0,0,0,18.78,30a3.08,3.08,0,0,0,.53,0,3.66,3.66,0,0,0,.5-.12l0,0a5.08,5.08,0,0,0,2.22,1,3.65,3.65,0,0,0,.55,0,2.73,2.73,0,0,0,.41,0,3.3,3.3,0,0,0,.87-.27,5,5,0,0,0,1.82-1.41l.37,0h.18a3,3,0,0,0,1.19-.34A6,6,0,0,0,29.3,27.4a12.25,12.25,0,0,0,2.59-5.11,23.47,23.47,0,0,0,.72-7.55v-.06l-.14-1.39a8.15,8.15,0,0,0-2.38-5.22,5.18,5.18,0,0,0-2.73-1.28,5.1,5.1,0,0,0-1.17-1A4.14,4.14,0,0,0,24,5.11Z" fill="#6c9433"/>
            <path d="M16.83,1.43a1.29,1.29,0,0,1,.71.24,10.59,10.59,0,0,1,1,.71,6.31,6.31,0,0,1,2,2.64,7.3,7.3,0,0,1,.27.91l.14.74.21,1.11c0,.13.08.25.11.38l.38,0,.69,0a8.18,8.18,0,0,1,2,.37,3.29,3.29,0,0,1,.44.16,3.94,3.94,0,0,0-1.16.86,1.72,1.72,0,0,0-.28.37l-.29,0H23a3.64,3.64,0,0,0-.73.09,2.42,2.42,0,0,0-1.51,1c-.1-.1-.21-.19-.32-.28a2.71,2.71,0,0,0-1.54-.44,4.46,4.46,0,0,0-.63,0l-.35.11-.28-.17a9.42,9.42,0,0,0-.89-.47l-.47-.17a9,9,0,0,1,3.24-1.32,5.91,5.91,0,0,0-.15-1.45,6.26,6.26,0,0,0-.61-1.73A3,3,0,0,0,17,3.77l-.38-.1a1.2,1.2,0,0,1-.86-1.28v0a1.12,1.12,0,0,1,.14-.4,1.05,1.05,0,0,1,.68-.5,1.15,1.15,0,0,1,.26,0m0-1.43a2.76,2.76,0,0,0-.57.06,2.54,2.54,0,0,0-1.59,1.16,2.48,2.48,0,0,0-.33.92A2.62,2.62,0,0,0,16.16,5l.31.08.1,0a1.58,1.58,0,0,1,.94.73A4.89,4.89,0,0,1,18,7.22l0,0A9,9,0,0,0,15.44,8.5,1.43,1.43,0,0,0,15.77,11l.43.17a5.5,5.5,0,0,1,.71.37l.24.15a1.45,1.45,0,0,0,.76.21,1.83,1.83,0,0,0,.4-.05l.27-.08a1.63,1.63,0,0,1,.31,0,1.37,1.37,0,0,1,.72.19,1.42,1.42,0,0,1,.13.12,1.42,1.42,0,0,0,1,.42h.16A1.47,1.47,0,0,0,22,11.8a1,1,0,0,1,.61-.42,2.6,2.6,0,0,1,.42-.05l.32,0h.11a1.42,1.42,0,0,0,1.23-.71.59.59,0,0,1,.08-.11,2.64,2.64,0,0,1,.74-.54,1.44,1.44,0,0,0,.81-1.27,1.41,1.41,0,0,0-.78-1.28,3.12,3.12,0,0,0-.58-.24l-.06,0a9.51,9.51,0,0,0-2.38-.43h0l-.07-.33-.14-.74V5.61a7,7,0,0,0-.34-1.11,7.61,7.61,0,0,0-2.44-3.24,11.18,11.18,0,0,0-1.18-.8A2.57,2.57,0,0,0,16.83,0Z" fill="#507125"/>
            <path d="M19.36,6.89l-.75.84a3.39,3.39,0,0,0-2.55-.21,2.51,2.51,0,0,0-.53.34,4.47,4.47,0,0,0-1.25,1.72,4.31,4.31,0,0,1,1.34-.05c.22,0,.44.08.65.13a8.94,8.94,0,0,1,3.24-1.32A5.91,5.91,0,0,0,19.36,6.89Z" fill="#dfe590"/>
            <path d="M21,6.67l.21,1.11c0,.13.08.25.11.38a.78.78,0,0,0,.27.37h0a5,5,0,0,1,1.14.91,1.83,1.83,0,0,1,.38.46l.29,0a1.72,1.72,0,0,1,.28-.37,3.94,3.94,0,0,1,1.16-.86,7.05,7.05,0,0,1,.76-.3,5.75,5.75,0,0,1,1-.2A3.66,3.66,0,0,0,25.44,7a2.61,2.61,0,0,0-1.86-.43A4.84,4.84,0,0,0,22,7.35a6.7,6.7,0,0,0-.6-.45A2.32,2.32,0,0,0,21,6.68Z" fill="#dfe590"/>
            <path d="M24.85,8.7a3.29,3.29,0,0,0-.44-.16,8.18,8.18,0,0,0-2-.37,7.66,7.66,0,0,0-1.07,0,.78.78,0,0,0,.27.37h0a5,5,0,0,1,1.14.91,1.83,1.83,0,0,1,.38.46l.29,0a1.72,1.72,0,0,1,.28-.37A3.94,3.94,0,0,1,24.85,8.7Z" fill="#6c9433"/>
            <path d="M11.12,14a6.73,6.73,0,0,1,.37-1.94,2.85,2.85,0,0,1,.37-.74h0a2.4,2.4,0,0,1,.27-.38,3.9,3.9,0,0,1,2.15-1.37,4.29,4.29,0,0,1,1.34-.05c.22,0,.43.08.65.13l.46.17a9.59,9.59,0,0,1,.9.47l.27.17a3.68,3.68,0,0,0-2,1.91,4.74,4.74,0,0,0-.47,1.72,9.14,9.14,0,0,0,.1,1.73l.21,1.45A13.15,13.15,0,0,0,16,18.67a2.75,2.75,0,0,0,.09.5l.22.91.71,2.3A19.37,19.37,0,0,0,18.7,26c.17.28.37.53.55.8a.7.7,0,0,1-.2.08l-.28.07.28-.07a.76.76,0,0,0,.21-.08,8.52,8.52,0,0,0,1,1.19c-.1,0-.19.12-.29.17a2.61,2.61,0,0,1-.93.38,3.12,3.12,0,0,1-2.27-.75,10.63,10.63,0,0,1-2.47-2.75,19.1,19.1,0,0,1-1.88-3.72l-.33-.91a23.53,23.53,0,0,1-.92-3.9A11.64,11.64,0,0,1,11.12,14Z" fill="#c3bf4f"/>
            <path d="M11.86,11.34a2.85,2.85,0,0,0-.37.74A6.73,6.73,0,0,0,11.12,14a11.64,11.64,0,0,0,.1,2.5,23.53,23.53,0,0,0,.92,3.9l.33.91a19.1,19.1,0,0,0,1.88,3.72,10.63,10.63,0,0,0,2.47,2.75,3.12,3.12,0,0,0,2.27.75,2.61,2.61,0,0,0,.93-.38c.1-.05.19-.13.29-.17a8.52,8.52,0,0,1-1-1.19.76.76,0,0,1-.21.08,2.11,2.11,0,0,1-.56.09A3.68,3.68,0,0,1,16,25.72a10.76,10.76,0,0,1-.86-.93,14,14,0,0,1-.93-1.22,13,13,0,0,1-.79-1.36,18.7,18.7,0,0,1-1.84-5.66,14.05,14.05,0,0,1-.22-2.42,8.12,8.12,0,0,1,.18-1.77l.13-.44.13-.35a.56.56,0,0,0,.06-.21Z" fill="#c3bf4f" opacity="0.5" style="mix-blend-mode: multiply"/>
            <path d="M17.54,1.67a1.16,1.16,0,0,0-1-.21,1.05,1.05,0,0,0-.68.5,1.12,1.12,0,0,0-.14.4v0a1.2,1.2,0,0,0,.86,1.28l.38.1a3,3,0,0,1,1.77,1.39,6.26,6.26,0,0,1,.61,1.73,5.91,5.91,0,0,1,.15,1.45,8.94,8.94,0,0,0-3.24,1.32l.47.17a9.42,9.42,0,0,1,.89.47l.28.17.35-.11a2.9,2.9,0,0,1,2.17.39c.11.09.22.18.32.28a2.42,2.42,0,0,1,1.51-1,3.54,3.54,0,0,1,.86-.09,1.83,1.83,0,0,0-.38-.46,5,5,0,0,0-1.14-.91h0a.78.78,0,0,1-.27-.37c0-.13-.09-.25-.11-.38L21,6.67l-.14-.74A7.3,7.3,0,0,0,20.59,5a6.31,6.31,0,0,0-2-2.64A10.59,10.59,0,0,0,17.54,1.67Z" fill="#6c9433"/>
            <path d="M17.54,1.67h0a.65.65,0,0,1-.24,0,.74.74,0,0,0-.78.38.51.51,0,0,0-.06.25v0a.66.66,0,0,0,.17.48c.22.23.61.26.9.38a3.76,3.76,0,0,1,1.08.67A4.87,4.87,0,0,1,19.83,6c.05.18.1.37.14.55s0,.25.06.37a3.93,3.93,0,0,1,.13.75c.08.62.09,1.25.11,1.87v.57a6.27,6.27,0,0,0,2.47-.63,5,5,0,0,0-1.14-.91h0a.78.78,0,0,1-.27-.37c0-.13-.09-.25-.11-.38L21,6.67l-.14-.74A7.3,7.3,0,0,0,20.59,5a6.31,6.31,0,0,0-2-2.64A10.59,10.59,0,0,0,17.54,1.67Z" fill="#96b85c"/>
            <path d="M24.83,27.49l.4.12a2.61,2.61,0,0,0,1,.15,1.63,1.63,0,0,0,.64-.19,4.78,4.78,0,0,0,1.41-1.12,11.14,11.14,0,0,0,2.27-4.53,22.3,22.3,0,0,0,.68-7.09l-.14-1.4a6.72,6.72,0,0,0-1.9-4.29,3.67,3.67,0,0,0-2.16-1c-.12,0-.24,0-.36,0a5.75,5.75,0,0,0-1,.2,7.05,7.05,0,0,0-.76.3,3.94,3.94,0,0,0-1.16.86,1.72,1.72,0,0,0-.28.37,3.71,3.71,0,0,1,2.49,1.53,4.74,4.74,0,0,1,.81,1.75A13,13,0,0,1,27,15.92l0,3.39a18.67,18.67,0,0,1-.18,2l-.08.48a2.58,2.58,0,0,1,0,.39l-.11.68a15.09,15.09,0,0,1-.9,3.1A11.48,11.48,0,0,1,24.83,27.49Z" fill="#c3bf4f"/>
            <g>
              <path d="M23.18,9.48a3.79,3.79,0,0,0-.89.09,2.54,2.54,0,0,0-1.58,1.09,2.37,2.37,0,0,0-.34-.29A3,3,0,0,0,18.11,10l-.37.11a3.87,3.87,0,0,0-2.13,2,4.87,4.87,0,0,0-.49,1.79,8.47,8.47,0,0,0,.11,1.81l.22,1.51a12,12,0,0,0,.29,1.45,3.23,3.23,0,0,0,.08.53l.24.94.74,2.41a20.33,20.33,0,0,0,1.77,3.78c.18.29.39.56.58.84a9.21,9.21,0,0,0,1.1,1.24l.49.38a3.63,3.63,0,0,0,1.54.68,2,2,0,0,0,.54,0,1.72,1.72,0,0,0,.5-.16A4.11,4.11,0,0,0,25,27.83a10.81,10.81,0,0,0,.86-1.61A15.14,15.14,0,0,0,26.76,23l.11-.72a2.73,2.73,0,0,0,.05-.4l.08-.5a20.41,20.41,0,0,0,.19-2.07V15.76a14.14,14.14,0,0,0-.27-2.83,5.12,5.12,0,0,0-.84-1.82,3.88,3.88,0,0,0-2.6-1.6Z" fill="#dfe590"/>
              <path d="M15.74,18.63a3.23,3.23,0,0,0,.08.53l.24.94.74,2.41a20.33,20.33,0,0,0,1.77,3.78c.18.29.39.56.58.84a9.21,9.21,0,0,0,1.1,1.24l.49.38a3.63,3.63,0,0,0,1.54.68,2,2,0,0,0,.54,0,1.72,1.72,0,0,0,.5-.16A4.11,4.11,0,0,0,25,27.83a10.81,10.81,0,0,0,.86-1.61A15.14,15.14,0,0,0,26.76,23l.11-.72a2.73,2.73,0,0,0,.05-.4,1,1,0,0,0-.1.24l-.15.48-.41,1.18c-.14.35-.3.68-.47,1A9.29,9.29,0,0,1,25.12,26a6.27,6.27,0,0,1-.95,1.11,2.8,2.8,0,0,1-1.4.83,2.36,2.36,0,0,1-1.48-.21,5.6,5.6,0,0,1-1.39-1A10.42,10.42,0,0,1,18,24.4c-.23-.39-.43-.8-.63-1.2a20.19,20.19,0,0,1-.87-2.1L16,19.39C15.89,19.14,15.83,18.88,15.74,18.63Z" fill="#c3bf4f" opacity="0.5" style="mix-blend-mode: multiply"/>
            </g>
          </g>
          <g>
            <path d="M26.86,17a1.87,1.87,0,0,1,.4,0,5,5,0,0,1,1.54.76,6.61,6.61,0,0,1,.6-.44,1.81,1.81,0,0,1,.41-.22h0l-.21,1.11c0,.13-.08.25-.11.37a.81.81,0,0,1-.27.38h0a5,5,0,0,0-1.14.91L28,20l.51.08a2.5,2.5,0,0,1,1.58,1.09,1.58,1.58,0,0,1,.34-.29,2.75,2.75,0,0,1,1.6-.47,3.68,3.68,0,0,1,.66.06l.37.11c.1,0,.19.08.29.12q.34-.2.72-.36l.46-.17.16,0-.16,0a9.09,9.09,0,0,0-3.24-1.32,5.91,5.91,0,0,1,.15-1.45l.75.84a5.2,5.2,0,0,1,1.71-.39,2,2,0,0,1,.84.17,2.63,2.63,0,0,1,.52.35,4.32,4.32,0,0,1,1.26,1.72h0a3.9,3.9,0,0,1,2.15,1.37,2,2,0,0,1,.27.38h0a2.85,2.85,0,0,1,.37.74,6.67,6.67,0,0,1,.37,1.93,11.7,11.7,0,0,1-.1,2.51,23.53,23.53,0,0,1-.92,3.9l-.33.9a19.47,19.47,0,0,1-1.88,3.73A10.58,10.58,0,0,1,34,38.29a3.38,3.38,0,0,1-2,.78l-.31,0a2.74,2.74,0,0,1-.94-.38l0,0c-.07.07-.13.15-.2.21l-.49.39a3.54,3.54,0,0,1-1.54.67l-.34,0H28a2.11,2.11,0,0,1-.5-.17,4,4,0,0,1-1.64-1.44c-.06-.09-.1-.17-.15-.26l-.12,0a2.83,2.83,0,0,1-.86.15h-.1a1.82,1.82,0,0,1-.64-.19A4.78,4.78,0,0,1,22.6,37a11.06,11.06,0,0,1-2.27-4.54,22.27,22.27,0,0,1-.68-7.09l.14-1.39a6.68,6.68,0,0,1,1.9-4.29,3.71,3.71,0,0,1,2.16-1h.06l.3,0a3.56,3.56,0,0,1,1.19-1.19A2.81,2.81,0,0,1,26.86,17m0-1.43h0a4.14,4.14,0,0,0-2.21.69,5.33,5.33,0,0,0-1.18,1,5,5,0,0,0-2.72,1.28,8,8,0,0,0-2.37,5.17l-.15,1.44v.06A23.53,23.53,0,0,0,19,32.79a12.31,12.31,0,0,0,2.59,5.11,6,6,0,0,0,1.84,1.45,3,3,0,0,0,1.19.33h.18l.37,0a5.14,5.14,0,0,0,1.82,1.41,3.3,3.3,0,0,0,.87.27,2.95,2.95,0,0,0,1,0A4.91,4.91,0,0,0,31,40.39l.08,0a3.33,3.33,0,0,0,.5.12,3.08,3.08,0,0,0,.53,0,4.77,4.77,0,0,0,2.81-1.06,12,12,0,0,0,2.81-3.11,20.25,20.25,0,0,0,2-4l.34-.91a25,25,0,0,0,1-4.19,13.37,13.37,0,0,0,.12-2.81,8.3,8.3,0,0,0-.46-2.33,5.45,5.45,0,0,0-.81-1.47l0-.05a5.18,5.18,0,0,0-2.26-1.66,5.66,5.66,0,0,0-1.38-1.67,3.83,3.83,0,0,0-.82-.52,3.44,3.44,0,0,0-1.44-.31,4.73,4.73,0,0,0-1.26.18l-.14-.15A1.42,1.42,0,0,0,31.48,16a1.34,1.34,0,0,0-.35.05,1,1,0,0,0-.32.12l0,0a1.45,1.45,0,0,0-1.37-.3l-.06,0a2.84,2.84,0,0,0-.63.31,5.08,5.08,0,0,0-1.15-.44,3.53,3.53,0,0,0-.72-.08Z" fill="#e57225"/>
            <path d="M34,11.92a1.09,1.09,0,0,1,.94.53,1.17,1.17,0,0,1,.14.41v0a1.21,1.21,0,0,1-.24.88,1.35,1.35,0,0,1-.61.41l-.39.1a3,3,0,0,0-1.76,1.38,6,6,0,0,0-.61,1.74,5.91,5.91,0,0,0-.15,1.45,9.09,9.09,0,0,1,3.24,1.32l-.47.17a7.49,7.49,0,0,0-.89.46l-.28.17-.35-.1A3.36,3.36,0,0,0,32,20.8a2.72,2.72,0,0,0-1.54.45,2.14,2.14,0,0,0-.32.28,2.35,2.35,0,0,0-1.51-1,3.65,3.65,0,0,0-.74-.09h-.12l-.3,0a1.84,1.84,0,0,0-.27-.37A3.91,3.91,0,0,0,26,19.2a3.29,3.29,0,0,1,.44-.16,7.74,7.74,0,0,1,2-.37q.35,0,.69,0h.38c0-.12.08-.24.11-.37l.21-1.11.14-.74a6.83,6.83,0,0,1,.27-.91,6.25,6.25,0,0,1,2-2.64,10.68,10.68,0,0,1,1-.72,1.29,1.29,0,0,1,.71-.24m0-1.42a2.65,2.65,0,0,0-1.49.47c-.35.22-.76.48-1.15.78A7.71,7.71,0,0,0,28.92,15a9,9,0,0,0-.33,1.12v.05l-.14.74-.07.34h0a9.5,9.5,0,0,0-2.38.44l-.06,0a4.34,4.34,0,0,0-.59.23,1.43,1.43,0,0,0,0,2.56,2.81,2.81,0,0,1,.74.53l.08.11a1.41,1.41,0,0,0,1.23.72h.11l.3,0a1.92,1.92,0,0,1,.44.06,1,1,0,0,1,.61.41,1.45,1.45,0,0,0,1.05.66h.16a1.44,1.44,0,0,0,1-.42l.13-.11a1.26,1.26,0,0,1,.72-.19l.31,0,.27.08a1.4,1.4,0,0,0,1.16-.16L34,22a7.44,7.44,0,0,1,.68-.35l.43-.16A1.43,1.43,0,0,0,36,20.34,1.45,1.45,0,0,0,35.4,19a9,9,0,0,0-2.55-1.22v0a5.07,5.07,0,0,1,.47-1.36,1.58,1.58,0,0,1,.94-.73l.1,0,.31-.08A2.69,2.69,0,0,0,36,14.61a2.61,2.61,0,0,0,.52-1.94,2.56,2.56,0,0,0-.34-.95,2.5,2.5,0,0,0-1.59-1.16A2.76,2.76,0,0,0,34,10.5Z" fill="#507125"/>
            <path d="M31.48,17.39l.75.84A3.44,3.44,0,0,1,34.78,18a2.63,2.63,0,0,1,.52.35,4.32,4.32,0,0,1,1.26,1.72,4,4,0,0,0-1.34,0,4.67,4.67,0,0,0-.65.13,9.09,9.09,0,0,0-3.24-1.32A5.91,5.91,0,0,1,31.48,17.39Z" fill="#fcd54d"/>
            <path d="M29.84,17.17l-.21,1.11c0,.13-.08.25-.11.37a.81.81,0,0,1-.27.38h0a5,5,0,0,0-1.14.91,1.67,1.67,0,0,0-.38.46l-.3,0a1.84,1.84,0,0,0-.27-.37A3.91,3.91,0,0,0,26,19.2a7.12,7.12,0,0,0-.76-.31,5.74,5.74,0,0,0-1-.19,3.56,3.56,0,0,1,1.19-1.19,2.51,2.51,0,0,1,1.86-.43,5,5,0,0,1,1.54.76,6.61,6.61,0,0,1,.6-.44,1.81,1.81,0,0,1,.41-.22Z" fill="#fcd54d"/>
            <path d="M26,19.2a3.29,3.29,0,0,1,.44-.16,7.74,7.74,0,0,1,2-.37,7.67,7.67,0,0,1,1.07,0,.81.81,0,0,1-.27.38h0a5,5,0,0,0-1.14.91,1.67,1.67,0,0,0-.38.46l-.3,0a1.84,1.84,0,0,0-.27-.37A3.91,3.91,0,0,0,26,19.2Z" fill="#6c9433"/>
            <path d="M39.72,24.51a6.67,6.67,0,0,0-.37-1.93,2.85,2.85,0,0,0-.37-.74h0a2,2,0,0,0-.27-.38,3.9,3.9,0,0,0-2.15-1.37,4,4,0,0,0-1.34,0,5,5,0,0,0-.65.13l-.46.17a7.62,7.62,0,0,0-.9.46l-.27.17a3.69,3.69,0,0,1,2,1.92,4.89,4.89,0,0,1,.47,1.72,9.14,9.14,0,0,1-.1,1.73l-.21,1.45a13.15,13.15,0,0,1-.28,1.39,2.92,2.92,0,0,1-.09.5l-.22.91-.71,2.3a19.37,19.37,0,0,1-1.7,3.63c-.17.28-.37.53-.55.8a.7.7,0,0,0,.2.08,1.4,1.4,0,0,0,.28.06,1.27,1.27,0,0,1-.28-.06.76.76,0,0,1-.21-.08,9.83,9.83,0,0,1-1,1.19,1.61,1.61,0,0,1,.28.17,2.74,2.74,0,0,0,.94.38A3.14,3.14,0,0,0,34,38.29a10.58,10.58,0,0,0,2.47-2.74,19.47,19.47,0,0,0,1.88-3.73l.33-.9a23.53,23.53,0,0,0,.92-3.9A11.7,11.7,0,0,0,39.72,24.51Z" fill="#ffaa5a"/>
            <path d="M39,21.83a3.08,3.08,0,0,1,.37.75,6.67,6.67,0,0,1,.37,1.93,11.7,11.7,0,0,1-.1,2.51,23.53,23.53,0,0,1-.92,3.9l-.33.9a19.47,19.47,0,0,1-1.88,3.73A10.58,10.58,0,0,1,34,38.29a3.14,3.14,0,0,1-2.27.76,2.74,2.74,0,0,1-.94-.38,1.61,1.61,0,0,0-.28-.17,9.83,9.83,0,0,0,1-1.19.76.76,0,0,0,.21.08,2.62,2.62,0,0,0,.56.09,3.68,3.68,0,0,0,2.49-1.26,9.58,9.58,0,0,0,.86-.94,13.85,13.85,0,0,0,.93-1.21,14.15,14.15,0,0,0,.79-1.36,18.88,18.88,0,0,0,1.84-5.66,14.05,14.05,0,0,0,.22-2.42,8.12,8.12,0,0,0-.18-1.77l-.13-.44L39,22.06a.47.47,0,0,1-.06-.2Z" fill="#ffaa5a" opacity="0.5" style="mix-blend-mode: multiply"/>
            <path d="M33.3,12.16a1.24,1.24,0,0,1,1-.21,1.15,1.15,0,0,1,.68.5,1.17,1.17,0,0,1,.14.41v0a1.21,1.21,0,0,1-.24.88,1.35,1.35,0,0,1-.61.41l-.39.1a3,3,0,0,0-1.76,1.38,6,6,0,0,0-.61,1.74,5.91,5.91,0,0,0-.15,1.45,9.09,9.09,0,0,1,3.24,1.32l-.47.17a7.49,7.49,0,0,0-.89.46l-.28.17-.35-.1a2.9,2.9,0,0,0-2.17.39,2.14,2.14,0,0,0-.32.28,2.35,2.35,0,0,0-1.51-1,3.59,3.59,0,0,0-.86-.09,1.67,1.67,0,0,1,.38-.46A5,5,0,0,1,29.24,19h0a.81.81,0,0,0,.27-.38c0-.12.08-.24.11-.37l.21-1.11.14-.74a6.83,6.83,0,0,1,.27-.91,6.25,6.25,0,0,1,2-2.64A10.68,10.68,0,0,1,33.3,12.16Z" fill="#6c9433"/>
            <path d="M33.3,12.16h0a.49.49,0,0,0,.24,0,.75.75,0,0,1,.78.37.58.58,0,0,1,.06.26v0a.66.66,0,0,1-.17.48c-.22.23-.61.26-.9.38a3.76,3.76,0,0,0-1.08.67A4.72,4.72,0,0,0,31,16.46c-.05.18-.1.36-.14.54s0,.26-.07.38a6.18,6.18,0,0,0-.13.75c-.07.62-.08,1.25-.1,1.86v.58a6.4,6.4,0,0,1-2.47-.63A5,5,0,0,1,29.24,19h0a.81.81,0,0,0,.27-.38c0-.12.08-.24.11-.37l.21-1.11.14-.74a6.83,6.83,0,0,1,.27-.91,6.25,6.25,0,0,1,2-2.64A10.68,10.68,0,0,1,33.3,12.16Z" fill="#96b85c"/>
            <path d="M26,38l-.4.13a2.61,2.61,0,0,1-1,.15,1.82,1.82,0,0,1-.64-.19A4.78,4.78,0,0,1,22.6,37a11.06,11.06,0,0,1-2.27-4.54,22.27,22.27,0,0,1-.68-7.09l.14-1.39a6.68,6.68,0,0,1,1.9-4.29,3.71,3.71,0,0,1,2.16-1l.36,0a5.74,5.74,0,0,1,1,.19,7.12,7.12,0,0,1,.76.31,3.91,3.91,0,0,1,1.16.85,1.84,1.84,0,0,1,.27.37A3.77,3.77,0,0,0,24.93,22a4.81,4.81,0,0,0-.8,1.75,12.91,12.91,0,0,0-.27,2.71l0,3.39a18.91,18.91,0,0,0,.18,2l.08.48a2.58,2.58,0,0,0,0,.39l.11.68a13.94,13.94,0,0,0,.9,3.1A11.36,11.36,0,0,0,26,38Z" fill="#ffaa5a"/>
            <g>
              <path d="M27.66,20a3.79,3.79,0,0,1,.89.09,2.5,2.5,0,0,1,1.58,1.09,1.58,1.58,0,0,1,.34-.29,3,3,0,0,1,2.26-.41l.37.11a3.83,3.83,0,0,1,2.13,2,4.87,4.87,0,0,1,.49,1.79,8.34,8.34,0,0,1-.11,1.8l-.22,1.52a12,12,0,0,1-.29,1.45,2.36,2.36,0,0,1-.09.52l-.23,1L34,33a20.42,20.42,0,0,1-1.77,3.79c-.18.29-.39.55-.58.83a8.13,8.13,0,0,1-1.1,1.24l-.49.39a3.54,3.54,0,0,1-1.54.67,1.63,1.63,0,0,1-.54,0,2.11,2.11,0,0,1-.5-.17,4,4,0,0,1-1.64-1.44A11.89,11.89,0,0,1,25,36.72a14.66,14.66,0,0,1-.94-3.24L24,32.77a2.7,2.7,0,0,1,0-.41l-.09-.5c-.1-.68-.14-1.38-.18-2.07l0-3.53a14.92,14.92,0,0,1,.28-2.83,5.17,5.17,0,0,1,.84-1.83A3.91,3.91,0,0,1,27.35,20Z" fill="#fcd54d"/>
              <path d="M35.1,29.13a2.36,2.36,0,0,1-.09.52l-.23,1L34,33a20.42,20.42,0,0,1-1.77,3.79c-.18.29-.39.55-.58.83a8.13,8.13,0,0,1-1.1,1.24l-.49.39a3.54,3.54,0,0,1-1.54.67,1.63,1.63,0,0,1-.54,0,2.11,2.11,0,0,1-.5-.17,4,4,0,0,1-1.64-1.44A11.89,11.89,0,0,1,25,36.72a14.66,14.66,0,0,1-.94-3.24L24,32.77a2.7,2.7,0,0,1,0-.41,1.09,1.09,0,0,1,.1.25l.15.48.41,1.18a9.26,9.26,0,0,0,.47,1,9.17,9.17,0,0,0,.67,1.18,6.34,6.34,0,0,0,.94,1.12,3,3,0,0,0,1.41.83,2.36,2.36,0,0,0,1.48-.21,5.6,5.6,0,0,0,1.39-1,10.7,10.7,0,0,0,1.91-2.33c.23-.39.43-.8.63-1.21a19.16,19.16,0,0,0,.87-2.09l.53-1.71C35,29.64,35,29.38,35.1,29.13Z" fill="#ffaa5a" opacity="0.5" style="mix-blend-mode: multiply"/>
            </g>
          </g>
          <g>
            <path d="M14.32,17a2.88,2.88,0,0,1,1.46.48A3.36,3.36,0,0,1,17,18.62l.31,0h.06a3.64,3.64,0,0,1,2.15.95,6.67,6.67,0,0,1,1.9,4.29l.14,1.4a22.29,22.29,0,0,1-.67,7.09,11.16,11.16,0,0,1-2.28,4.53A4.59,4.59,0,0,1,17.17,38a1.63,1.63,0,0,1-.64.19h-.1a3.24,3.24,0,0,1-.87-.15l-.11,0-.15.25a4.1,4.1,0,0,1-1.64,1.45,1.82,1.82,0,0,1-.5.16l-.2,0a1.87,1.87,0,0,1-.34,0,3.6,3.6,0,0,1-1.55-.68l-.48-.38-.21-.21h0a2.69,2.69,0,0,1-.93.38,1.73,1.73,0,0,1-.32,0,3.44,3.44,0,0,1-2-.78,10.81,10.81,0,0,1-2.47-2.75,19.06,19.06,0,0,1-1.87-3.72l-.34-.9a23,23,0,0,1-.91-3.9,12.39,12.39,0,0,1-.11-2.51,7.1,7.1,0,0,1,.38-1.94,2.82,2.82,0,0,1,.36-.74h0a3.28,3.28,0,0,1,.27-.38A3.9,3.9,0,0,1,4.61,20h0a4.35,4.35,0,0,1,1.25-1.72,2.66,2.66,0,0,1,.53-.34,1.87,1.87,0,0,1,.84-.18,4.92,4.92,0,0,1,1.7.4l.76-.85a6,6,0,0,1,.14,1.46,8.78,8.78,0,0,0-3.23,1.31l-.17,0,.16,0,.47.18a6.76,6.76,0,0,1,.71.36l.3-.13.36-.1a3.68,3.68,0,0,1,.66-.06,2.78,2.78,0,0,1,1.61.46c.12.09.23.19.34.29A2.47,2.47,0,0,1,12.62,20a3,3,0,0,1,.51-.08l-.05-.06a5.07,5.07,0,0,0-1.15-.91h0a.8.8,0,0,1-.28-.37c0-.13-.08-.25-.11-.38l-.2-1.11h0a1.6,1.6,0,0,1,.4.23,6.25,6.25,0,0,1,.61.44A4.44,4.44,0,0,1,13.92,17a1.75,1.75,0,0,1,.4-.05m0-1.43h0a3.38,3.38,0,0,0-.72.08,4.59,4.59,0,0,0-1.16.45,2.64,2.64,0,0,0-.63-.31l-.05,0a1.52,1.52,0,0,0-.42-.06,1.39,1.39,0,0,0-.95.36l0,0a1.66,1.66,0,0,0-.31-.12,1.45,1.45,0,0,0-.35,0,1.43,1.43,0,0,0-1.06.47l-.14.15a5.24,5.24,0,0,0-1.26-.17,3.41,3.41,0,0,0-1.44.3,3.9,3.9,0,0,0-.82.53A5.51,5.51,0,0,0,3.6,18.83a5.1,5.1,0,0,0-2.26,1.65l-.05.06A3.54,3.54,0,0,0,1,21a4.16,4.16,0,0,0-.46,1A8,8,0,0,0,0,24.33a13.34,13.34,0,0,0,.12,2.81,24,24,0,0,0,1,4.14l.35.95a19.8,19.8,0,0,0,2,4,11.64,11.64,0,0,0,2.82,3.11,4.67,4.67,0,0,0,2.8,1.06,3.27,3.27,0,0,0,.54,0,2.8,2.8,0,0,0,.5-.12l0,0a5,5,0,0,0,2.21,1,3.87,3.87,0,0,0,.56,0,2.83,2.83,0,0,0,.41,0,3.17,3.17,0,0,0,.87-.28,5,5,0,0,0,1.82-1.41,2.23,2.23,0,0,0,.37,0h.17a3.15,3.15,0,0,0,1.19-.33,6.09,6.09,0,0,0,1.85-1.46,12.43,12.43,0,0,0,2.59-5.11A23.72,23.72,0,0,0,23,25.16a.13.13,0,0,0,0-.06l-.13-1.4a8.16,8.16,0,0,0-2.38-5.21A5.12,5.12,0,0,0,17.7,17.2a5.32,5.32,0,0,0-1.17-1,4.26,4.26,0,0,0-2.21-.69Z" fill="#781f1a"/>
            <path d="M7.16,11.84a1.24,1.24,0,0,1,.71.24,10.73,10.73,0,0,1,1,.71,6.27,6.27,0,0,1,2,2.64,7.49,7.49,0,0,1,.28.92l.14.73.2,1.11c0,.13.08.25.11.38l.39,0,.68,0a8.25,8.25,0,0,1,2,.37,4,4,0,0,1,.44.17A3.9,3.9,0,0,0,14,20a2.51,2.51,0,0,0-.27.37l-.3,0h-.12a3.56,3.56,0,0,0-.73.09,2.42,2.42,0,0,0-1.51,1,2.16,2.16,0,0,0-.33-.27,2.61,2.61,0,0,0-1.53-.45,3.39,3.39,0,0,0-.64.06l-.35.1L8,20.71a9.59,9.59,0,0,0-.9-.47l-.46-.17a8.78,8.78,0,0,1,3.23-1.31A6,6,0,0,0,9.7,17.3a6.28,6.28,0,0,0-.62-1.73,3,3,0,0,0-1.76-1.39l-.39-.1a1.21,1.21,0,0,1-.61-.41,1.19,1.19,0,0,1-.24-.87v0a1.22,1.22,0,0,1,.15-.4,1.05,1.05,0,0,1,.68-.5,1.07,1.07,0,0,1,.25,0m0-1.43a2.22,2.22,0,0,0-.57.07A2.49,2.49,0,0,0,5,11.64a2.83,2.83,0,0,0-.33.91,2.66,2.66,0,0,0,.51,2,2.7,2.7,0,0,0,1.32.91l.3.08.11,0a1.61,1.61,0,0,1,.94.73,5.24,5.24,0,0,1,.46,1.35v.05a9,9,0,0,0-2.54,1.23,1.42,1.42,0,0,0-.59,1.35,1.44,1.44,0,0,0,.92,1.15l.43.16a5.5,5.5,0,0,1,.71.37l.24.15a1.43,1.43,0,0,0,.75.22,1.34,1.34,0,0,0,.4-.06l.27-.08a1.72,1.72,0,0,1,.32,0,1.23,1.23,0,0,1,.71.19.67.67,0,0,1,.14.11,1.41,1.41,0,0,0,1,.42h.15a1.45,1.45,0,0,0,1-.65.94.94,0,0,1,.62-.41,1.83,1.83,0,0,1,.42-.06l.31,0h.11A1.45,1.45,0,0,0,15,21.05l.08-.11a2.39,2.39,0,0,1,.74-.54,1.43,1.43,0,0,0,.8-1.27,1.41,1.41,0,0,0-.77-1.28,3.06,3.06,0,0,0-.59-.23l-.06,0a9.42,9.42,0,0,0-2.37-.44h0l-.06-.34-.14-.74V16a8.72,8.72,0,0,0-.34-1.11A7.71,7.71,0,0,0,9.8,11.67a11.09,11.09,0,0,0-1.17-.8,2.66,2.66,0,0,0-1.47-.46Z" fill="#507125"/>
            <path d="M9.7,17.3l-.76.85a3.41,3.41,0,0,0-2.54-.22,2.66,2.66,0,0,0-.53.34A4.35,4.35,0,0,0,4.62,20a4.24,4.24,0,0,1,1.33,0c.23,0,.44.08.66.13a8.78,8.78,0,0,1,3.23-1.31A6,6,0,0,0,9.7,17.3Z" fill="#e05555"/>
            <path d="M11.34,17.08l.2,1.11c0,.13.08.25.11.38a.8.8,0,0,0,.28.37h0a5.07,5.07,0,0,1,1.15.91,1.87,1.87,0,0,1,.37.47l.3,0A2.51,2.51,0,0,1,14,20a3.9,3.9,0,0,1,1.17-.85,4.93,4.93,0,0,1,.75-.31,5.23,5.23,0,0,1,1-.19,3.36,3.36,0,0,0-1.18-1.19A2.53,2.53,0,0,0,13.92,17a4.44,4.44,0,0,0-1.54.76,6.25,6.25,0,0,0-.61-.44,1.6,1.6,0,0,0-.4-.23Z" fill="#e05555"/>
            <path d="M15.19,19.12a4,4,0,0,0-.44-.17,8.25,8.25,0,0,0-2-.37,7.63,7.63,0,0,0-1.07,0,.8.8,0,0,0,.28.37h0a5.07,5.07,0,0,1,1.15.91,1.87,1.87,0,0,1,.37.47l.3,0A2.51,2.51,0,0,1,14,20,3.9,3.9,0,0,1,15.19,19.12Z" fill="#6c9433"/>
            <path d="M1.45,24.43a7.1,7.1,0,0,1,.38-1.94,2.82,2.82,0,0,1,.36-.74h0a3.28,3.28,0,0,1,.27-.38A3.9,3.9,0,0,1,4.61,20a4.64,4.64,0,0,1,1.34,0c.22,0,.44.08.65.13l.47.18a8.48,8.48,0,0,1,.9.46l.27.17a3.68,3.68,0,0,0-2,1.92,4.83,4.83,0,0,0-.46,1.71,8.34,8.34,0,0,0,.1,1.73L6,27.69a13.15,13.15,0,0,0,.28,1.39,2.74,2.74,0,0,0,.08.5l.22.91.72,2.31A19.53,19.53,0,0,0,9,36.42c.18.28.37.53.56.8a.56.56,0,0,1-.21.09l-.28.06.29-.06a.59.59,0,0,0,.2-.09,8,8,0,0,0,1.06,1.19l-.29.17a2.69,2.69,0,0,1-.93.38,3.14,3.14,0,0,1-2.28-.75,10.81,10.81,0,0,1-2.47-2.75,19.06,19.06,0,0,1-1.87-3.72l-.34-.9a23,23,0,0,1-.91-3.9A12.39,12.39,0,0,1,1.45,24.43Z" fill="#c2331d"/>
            <path d="M2.19,21.75a2.82,2.82,0,0,0-.36.74,7.1,7.1,0,0,0-.38,1.94,12.39,12.39,0,0,0,.11,2.51,23,23,0,0,0,.91,3.9l.34.9a19.06,19.06,0,0,0,1.87,3.72,10.81,10.81,0,0,0,2.47,2.75A3.14,3.14,0,0,0,9.43,39a2.69,2.69,0,0,0,.93-.38l.29-.17a8,8,0,0,1-1.06-1.19.59.59,0,0,1-.2.09,2.23,2.23,0,0,1-.56.08,3.7,3.7,0,0,1-2.5-1.26,10.64,10.64,0,0,1-.85-.93A13.41,13.41,0,0,1,4.55,34a14.31,14.31,0,0,1-.79-1.37A18.75,18.75,0,0,1,1.91,27a14.08,14.08,0,0,1-.22-2.43,8.13,8.13,0,0,1,.19-1.77L2,22.33,2.13,22a.86.86,0,0,0,.07-.21Z" fill="#c2331d" opacity="0.5" style="mix-blend-mode: multiply"/>
            <path d="M7.87,12.08a1.18,1.18,0,0,0-1-.21,1.05,1.05,0,0,0-.68.5,1.22,1.22,0,0,0-.15.4v0a1.19,1.19,0,0,0,.24.87,1.21,1.21,0,0,0,.61.41l.39.1a3,3,0,0,1,1.76,1.39A6.28,6.28,0,0,1,9.7,17.3a6,6,0,0,1,.14,1.46,8.78,8.78,0,0,0-3.23,1.31l.46.17a9.59,9.59,0,0,1,.9.47l.27.17.35-.1a2.86,2.86,0,0,1,2.17.39,2.16,2.16,0,0,1,.33.27,2.42,2.42,0,0,1,1.51-1,3,3,0,0,1,.85-.08,1.87,1.87,0,0,0-.37-.47,5.07,5.07,0,0,0-1.15-.91h0a.8.8,0,0,1-.28-.37c0-.13-.08-.25-.11-.38l-.2-1.11-.14-.73a7.49,7.49,0,0,0-.28-.92,6.27,6.27,0,0,0-2-2.64A10.73,10.73,0,0,0,7.87,12.08Z" fill="#6c9433"/>
            <path d="M7.87,12.08h0a.88.88,0,0,1-.23,0,.72.72,0,0,0-.78.37.78.78,0,0,0-.07.25v0a.74.74,0,0,0,.17.48c.23.24.61.26.91.38a3.54,3.54,0,0,1,1.07.68,4.58,4.58,0,0,1,1.24,2.11,4.75,4.75,0,0,1,.14.54c0,.12,0,.25.07.37a5,5,0,0,1,.13.76c.07.61.09,1.24.1,1.86v.57a6.27,6.27,0,0,0,2.47-.63,5.07,5.07,0,0,0-1.15-.91h0a.8.8,0,0,1-.28-.37c0-.13-.08-.25-.11-.38l-.2-1.11-.14-.73a7.49,7.49,0,0,0-.28-.92,6.27,6.27,0,0,0-2-2.64A10.73,10.73,0,0,0,7.87,12.08Z" fill="#96b85c"/>
            <path d="M15.16,37.9a2.67,2.67,0,0,1,.4.13,2.92,2.92,0,0,0,1,.14,1.63,1.63,0,0,0,.64-.19,4.59,4.59,0,0,0,1.4-1.12,11.16,11.16,0,0,0,2.28-4.53,22.29,22.29,0,0,0,.67-7.09l-.14-1.4a6.67,6.67,0,0,0-1.9-4.29,3.64,3.64,0,0,0-2.15-.95,2.3,2.3,0,0,0-.37,0,5.23,5.23,0,0,0-1,.19,4.93,4.93,0,0,0-.75.31A3.9,3.9,0,0,0,14,20a2.51,2.51,0,0,0-.27.37,3.73,3.73,0,0,1,2.49,1.53,5.09,5.09,0,0,1,.81,1.75,13.68,13.68,0,0,1,.26,2.71v3.39c0,.66-.08,1.33-.18,2l-.08.48a2.6,2.6,0,0,1-.05.39l-.11.69a14.81,14.81,0,0,1-.89,3.1A11.43,11.43,0,0,1,15.16,37.9Z" fill="#c2331d"/>
            <g>
              <path d="M13.52,19.9a3,3,0,0,0-.9.09,2.47,2.47,0,0,0-1.57,1.08c-.11-.1-.22-.2-.34-.29a3.06,3.06,0,0,0-2.27-.4l-.36.1a3.85,3.85,0,0,0-2.14,2,5.06,5.06,0,0,0-.48,1.79,9.16,9.16,0,0,0,.1,1.81l.22,1.52A14.68,14.68,0,0,0,6.07,29a3.09,3.09,0,0,0,.09.53l.23.94.75,2.41A20,20,0,0,0,8.91,36.7c.18.29.38.56.57.84a10,10,0,0,0,1.11,1.24l.48.38a3.6,3.6,0,0,0,1.55.68,1.63,1.63,0,0,0,.54,0,1.82,1.82,0,0,0,.5-.16,4.1,4.1,0,0,0,1.64-1.45,11.82,11.82,0,0,0,.86-1.61,15.11,15.11,0,0,0,.93-3.23l.12-.72a2.71,2.71,0,0,0,0-.4l.09-.5a20.4,20.4,0,0,0,.18-2.07l0-3.54a13.45,13.45,0,0,0-.28-2.83,5.12,5.12,0,0,0-.84-1.82,3.91,3.91,0,0,0-2.6-1.6Z" fill="#e05555"/>
              <path d="M6.07,29a3.09,3.09,0,0,0,.09.53l.23.94.75,2.41A20,20,0,0,0,8.91,36.7c.18.29.38.56.57.84a10,10,0,0,0,1.11,1.24l.48.38a3.6,3.6,0,0,0,1.55.68,1.63,1.63,0,0,0,.54,0,1.82,1.82,0,0,0,.5-.16,4.1,4.1,0,0,0,1.64-1.45,11.82,11.82,0,0,0,.86-1.61,15.11,15.11,0,0,0,.93-3.23l.12-.72a2.71,2.71,0,0,0,0-.4.7.7,0,0,0-.09.24L17,33l-.41,1.18a9.19,9.19,0,0,1-.46,1,10.75,10.75,0,0,1-.68,1.19,7.16,7.16,0,0,1-.94,1.12,2.9,2.9,0,0,1-1.4.82,2.4,2.4,0,0,1-1.49-.21,5.26,5.26,0,0,1-1.38-1,10.25,10.25,0,0,1-1.91-2.34c-.23-.39-.43-.8-.63-1.2a18.07,18.07,0,0,1-.87-2.09L6.3,29.81C6.22,29.55,6.16,29.29,6.07,29Z" fill="#c2331d" opacity="0.5" style="mix-blend-mode: multiply"/>
            </g>
          </g>
        </g>
      </g>
    </g>
  </g>
</svg>
