<svg xmlns="http://www.w3.org/2000/svg" width="40.84" height="41.24" viewBox="0 0 40.84 41.24">
  <g id="Layer_2" data-name="Layer 2">
    <g id="Layer_4" data-name="Layer 4">
      <g id="rabbit_toy_3" data-name="rabbit_toy 3">
        <g>
          <g>
            <path d="M19,32.48a.7.7,0,0,1-.37-.11c-1.36-.22-4-.41-5.93-.54-6.93-.5-8.39-.65-8.39-2.17S5.64,28,11.52,27.59c-5.88-.42-7.17-.65-7.17-2.07s1.29-1.64,7.16-2.07C5.64,23,4.35,22.8,4.35,21.38s1.46-1.66,8.35-2.15c2.2-.16,5.11-.36,6.32-.62H20.5a.71.71,0,0,1,.71.71c0,1.42-1.29,1.65-7.16,2.07,5.87.43,7.16.65,7.16,2.07S19.92,25.1,14,25.52c5.88.43,7.17.65,7.17,2.07S19.92,29.24,14,29.67c5.9.42,7.19.65,7.19,2.07a.74.74,0,0,1-.72.74Z" fill="#cecece"/>
            <path d="M20.49,19.31c0,.78-1.07,1-7.68,1.45-2.24.16-5.14.36-6.41.62,1.27.27,4.17.47,6.41.63,6.61.47,7.68.67,7.68,1.44s-1.07,1-7.68,1.45c-2.24.15-5.14.36-6.41.62,1.27.27,4.17.47,6.41.63,6.61.47,7.68.67,7.68,1.44s-1.07,1-7.68,1.45c-2.24.16-5.14.36-6.41.63,1.26.26,4.17.47,6.41.62,6.61.47,7.68.68,7.68,1.45v0H19l.13,0c-1.27-.26-4.18-.47-6.42-.63-6.6-.47-7.68-.67-7.68-1.44s1.08-1,7.68-1.45c2.24-.16,5.14-.36,6.41-.63-1.27-.26-4.17-.46-6.41-.62-6.6-.47-7.68-.67-7.68-1.45s1.08-1,7.68-1.44c2.24-.16,5.14-.37,6.41-.63-1.27-.26-4.17-.47-6.41-.62-6.6-.47-7.68-.67-7.68-1.45s1.08-1,7.68-1.44c2.24-.16,5.14-.36,6.41-.63h1.33m0-1.42H19.16a1.43,1.43,0,0,0-.29,0c-1.17.24-4.08.44-6.2.6-3.21.22-5.29.4-6.5.63-.69.13-2.53.47-2.53,2.23a2.17,2.17,0,0,0,1.8,2.07,2.09,2.09,0,0,0,0,4.14,2.17,2.17,0,0,0-1.8,2.08c0,1.76,1.84,2.1,2.53,2.24,1.21.22,3.29.4,6.48.62,1.91.14,4.44.32,5.8.53a1.45,1.45,0,0,0,.59.13h1.45a1.43,1.43,0,0,0,1.43-1.37v-.08a2.16,2.16,0,0,0-1.81-2.07,2.1,2.1,0,0,0,0-4.15,2.09,2.09,0,0,0,0-4.14,2.17,2.17,0,0,0,1.8-2.07,1.42,1.42,0,0,0-1.43-1.42Zm0,2.85h0Z" fill="#8d8d8d"/>
          </g>
          <g>
            <g>
              <path d="M12.17,36.83c-9.12,0-9.12-1-9.12-1.57V31.49c0-.55,0-1.57,9.12-1.57s9.11,1,9.11,1.57v3.77C21.28,35.81,21.28,36.83,12.17,36.83Z" fill="#ec7670"/>
              <path d="M12.17,30.63c4.64,0,8.4.39,8.4.87v3.76c0,.47-3.76.86-8.4.86s-8.41-.39-8.41-.86V31.5c0-.48,3.77-.87,8.41-.87m0-1.42c-2.29,0-4.46.09-6.09.26s-3.74.38-3.74,2v3.76c0,1.64,2,1.85,3.74,2s3.8.25,6.09.25,4.45-.09,6.08-.25,3.75-.39,3.75-2V31.5c0-1.65-2-1.85-3.75-2s-3.79-.26-6.08-.26Z" fill="#b53c3c"/>
            </g>
            <g>
              <ellipse cx="12.17" cy="31.49" rx="9.12" ry="1.58" fill="#ec7670"/>
              <path d="M12.17,30.63c4.64,0,8.4.39,8.4.87s-3.76.86-8.4.86S3.76,32,3.76,31.5s3.77-.87,8.41-.87m0-1.42c-2.29,0-4.46.09-6.09.26s-3.74.38-3.74,2,2,1.84,3.74,2,3.8.26,6.09.26,4.45-.09,6.08-.26,3.75-.38,3.75-2-2-1.85-3.75-2-3.79-.26-6.08-.26Z" fill="#b53c3c"/>
            </g>
          </g>
          <path d="M5.07,25.52c0-.77,1.08-1,7.68-1.44,2.24-.16,5.14-.37,6.41-.63-1.27-.26-4.17-.47-6.41-.62-6.6-.47-7.68-.67-7.68-1.45s1.08-1,7.68-1.44c2.24-.16,5.14-.36,6.41-.63h1.33c0,.78-1.07,1-7.68,1.45-2.24.16-5.14.36-6.41.62,1.27.27,4.17.47,6.41.63,6.61.47,7.68.67,7.68,1.44s-1.07,1-7.68,1.45c-2.24.15-5.14.36-6.41.62,1.27.27,4.17.47,6.41.63,6.61.47,7.68.67,7.68,1.44s-1.07,1-7.68,1.45c-2.24.16-5.14.36-6.41.63,1.26.26,4.17.47,6.41.62,6.61.47,7.68.68,7.68,1.45v0H19l.13,0c-1.27-.26-4.18-.47-6.42-.63-6.6-.47-7.68-.67-7.68-1.44s1.08-1,7.68-1.45c2.24-.16,5.14-.36,6.41-.63-1.27-.26-4.17-.46-6.41-.62C6.15,26.5,5.07,26.3,5.07,25.52Z" fill="#cecece"/>
          <g>
            <path d="M7.7,23.75a19.86,19.86,0,0,1-5.61-.64,1.68,1.68,0,0,1-.6-.29,1.74,1.74,0,0,1-.43-.6,5.11,5.11,0,0,1-.35-2.36.77.77,0,0,1,.72-.78H14.08l8.13.15a.72.72,0,0,1,.71.71v1.82a1.62,1.62,0,0,1-.28,1,1.6,1.6,0,0,1-1.15.54,34.84,34.84,0,0,1-3.83.21h-.32a1.82,1.82,0,0,1-.74-.12,1.35,1.35,0,0,1-.29-.16,1.35,1.35,0,0,1-.62.18c-2.28.16-4.6.27-6.91.3Z" fill="#ffeb81"/>
            <path d="M14.08,19.79l8.12.15v1.81a.94.94,0,0,1-.14.6.92.92,0,0,1-.66.27,33.53,33.53,0,0,1-3.75.21h-.31a1.27,1.27,0,0,1-.48-.07,1.32,1.32,0,0,1-.61-1c-.17.29,0,.74-.32.91a.53.53,0,0,1-.3.07Q12.2,23,8.76,23H7.7a18.94,18.94,0,0,1-5.41-.62.91.91,0,0,1-.35-.15,1.07,1.07,0,0,1-.23-.35,4.63,4.63,0,0,1-.28-2.13H14.08m0-1.42H1.43A1.43,1.43,0,0,0,0,19.79v.07a5.78,5.78,0,0,0,.41,2.66,2.42,2.42,0,0,0,.63.85,2.31,2.31,0,0,0,.85.42,20.39,20.39,0,0,0,5.81.68H8.79c2.3,0,4.64-.14,6.94-.31a2.9,2.9,0,0,0,.53-.09l0,0a2.53,2.53,0,0,0,1,.17h.33A36.45,36.45,0,0,0,21.56,24a2.35,2.35,0,0,0,1.63-.81,2.3,2.3,0,0,0,.44-1.47V19.94a1.43,1.43,0,0,0-1.4-1.43l-8.13-.14Z" fill="#ffaa5a"/>
          </g>
          <g>
            <path d="M12.42,19.65A95.88,95.88,0,0,1,1.36,19a.71.71,0,0,1-.63-.66,6.21,6.21,0,0,1,3.62-5.91,12.41,12.41,0,0,1,1.87-.62c.37-.1.75-.2,1.11-.33A3.16,3.16,0,0,0,9.3,10a4.42,4.42,0,0,0,.25-2c0-1-.07-2-.13-3.1a.71.71,0,0,1,.37-.67.69.69,0,0,1,.34-.09.65.65,0,0,1,.42.14c.58.42,2.92.87,6.09.87s5.51-.45,6.09-.87a.65.65,0,0,1,.42-.14.69.69,0,0,1,.34.09.7.7,0,0,1,.37.66c-.4,6.73-.95,13.44-.95,13.5a.71.71,0,0,1-.62.65A78.43,78.43,0,0,1,12.42,19.65Z" fill="#feb6d2"/>
            <path d="M23.15,4.85c-.4,6.8-.95,13.48-.95,13.48a77.58,77.58,0,0,1-9.78.6,95.46,95.46,0,0,1-11-.65,5.52,5.52,0,0,1,3.21-5.22,29.76,29.76,0,0,1,2.91-.92A4,4,0,0,0,10,10.34,5.31,5.31,0,0,0,10.27,8c0-1-.07-2.07-.14-3.14.81.59,3.42,1,6.51,1s5.7-.42,6.51-1m-13-1.43a1.38,1.38,0,0,0-.68.18,1.43,1.43,0,0,0-.74,1.34c.07,1.15.11,2.16.13,3.08a4,4,0,0,1-.18,1.69A2.72,2.72,0,0,1,7.1,10.79c-.33.11-.69.21-1.06.31a11.89,11.89,0,0,0-2,.66,7,7,0,0,0-4,6.61,1.43,1.43,0,0,0,1.26,1.32,95.32,95.32,0,0,0,11.15.67,79.88,79.88,0,0,0,10-.61,1.43,1.43,0,0,0,1.24-1.3c0-.07.55-6.78.95-13.51a1.42,1.42,0,0,0-.74-1.34,1.37,1.37,0,0,0-.68-.17,1.43,1.43,0,0,0-.84.27c-.34.23-2.25.74-5.67.74S11.31,3.93,11,3.7a1.44,1.44,0,0,0-.84-.28Zm13,2.86Z" fill="#fa789e"/>
          </g>
          <g>
            <path d="M16.64,7.65c-1.75,0-7.48-.15-7.48-2.1,0,0-.05-.57-.1-1.14-.14-1.47-.14-1.49-.14-1.54,0-2,5.95-2.16,7.77-2.16s7.76.16,7.76,2.16c0,.07,0,.08-.19,1.62-.07.54-.13,1-.14,1.12C24.12,7.5,18.4,7.65,16.64,7.65Z" fill="#ffeb81"/>
            <path d="M16.69,1.43c3.89,0,7,.64,7,1.44,0,.07-.33,2.63-.33,2.68,0,.76-3,1.39-6.77,1.39S9.87,6.31,9.87,5.55c0,0-.23-2.61-.23-2.68,0-.8,3.15-1.44,7.05-1.44m0-1.43C11.06,0,8.21,1,8.21,2.87c0,.09,0,.1.13,1.6.05.52.1,1,.11,1.15.06,1.82,2.82,2.74,8.19,2.74s8.1-.91,8.19-2.71c0-.15.08-.59.14-1.07.19-1.58.19-1.58.19-1.71C25.16,1,22.31,0,16.69,0Z" fill="#ffaa5a"/>
          </g>
          <ellipse cx="16.69" cy="2.89" rx="5.51" ry="1.02" fill="#ffaa5a"/>
        </g>
        <g>
          <g>
            <path d="M34.71,36.18a.79.79,0,0,1-.37-.1c-1.37-.23-4-.42-6-.56C21.49,35,20,34.88,20,33.37s1.29-1.65,7.16-2.08c-5.88-.42-7.16-.65-7.16-2.07s1.28-1.64,7.15-2.07C21.31,26.73,20,26.5,20,25.08s1.45-1.66,8.34-2.15c2.17-.16,5.1-.36,6.32-.62h1.48a.71.71,0,0,1,.71.71c0,1.42-1.29,1.65-7.15,2.07,5.87.43,7.15.66,7.15,2.07s-1.29,1.65-7.16,2.07c5.87.43,7.16.65,7.16,2.07s-1.29,1.65-7.18,2.08c5.89.42,7.18.65,7.18,2.07a.74.74,0,0,1-.71.74Z" fill="#cecece"/>
            <path d="M36.17,23c0,.78-1.08,1-7.69,1.45-2.23.16-5.14.36-6.41.62,1.27.27,4.18.47,6.41.63,6.61.47,7.69.67,7.69,1.44s-1.08,1-7.69,1.45c-2.23.15-5.14.36-6.41.62,1.27.27,4.18.47,6.41.63,6.61.47,7.69.67,7.69,1.44s-1.08,1-7.69,1.45c-2.24.16-5.14.36-6.41.63,1.27.26,4.18.47,6.41.62,6.61.47,7.69.68,7.69,1.45v0H34.71l.13,0c-1.27-.26-4.18-.47-6.41-.63-6.61-.47-7.69-.67-7.69-1.44s1.08-1,7.68-1.45c2.24-.16,5.15-.36,6.41-.63-1.26-.26-4.17-.46-6.41-.62-6.6-.47-7.68-.67-7.68-1.45s1.08-1,7.68-1.44c2.24-.16,5.14-.37,6.41-.63-1.27-.26-4.17-.47-6.41-.62-6.6-.47-7.68-.67-7.68-1.45s1.08-1,7.68-1.44c2.24-.16,5.15-.36,6.41-.63h1.34m0-1.42H34.83l-.29,0c-1.17.24-4.07.44-6.2.6-3.21.22-5.29.4-6.5.63-.69.13-2.53.47-2.53,2.23a2.17,2.17,0,0,0,1.8,2.07,2.09,2.09,0,0,0,0,4.14,2.17,2.17,0,0,0-1.81,2.08c0,1.76,1.84,2.1,2.53,2.23,1.21.23,3.29.41,6.48.63,1.91.14,4.45.32,5.8.53a1.45,1.45,0,0,0,.59.13h1.46a1.42,1.42,0,0,0,1.42-1.37v-.08a2.16,2.16,0,0,0-1.8-2.07,2.1,2.1,0,0,0,0-4.15,2.09,2.09,0,0,0,0-4.14A2.16,2.16,0,0,0,37.59,23a1.41,1.41,0,0,0-1.42-1.42Zm0,2.85Z" fill="#8d8d8d"/>
          </g>
          <g>
            <g>
              <path d="M27.84,40.53c-9.12,0-9.12-1-9.12-1.57V35.2c0-.56,0-1.58,9.12-1.58S37,34.64,37,35.2V39C37,39.51,37,40.53,27.84,40.53Z" fill="#ec7670"/>
              <path d="M27.84,34.33c4.64,0,8.4.39,8.4.87V39c0,.47-3.76.86-8.4.86s-8.4-.39-8.4-.86V35.2c0-.48,3.76-.87,8.4-.87m0-1.42c-2.29,0-4.45.09-6.09.26s-3.74.38-3.74,2V39c0,1.64,2,1.85,3.74,2s3.8.25,6.09.25,4.45-.09,6.09-.25,3.74-.39,3.74-2V35.2c0-1.65-2-1.85-3.74-2s-3.8-.26-6.09-.26Z" fill="#b53c3c"/>
            </g>
            <g>
              <ellipse cx="27.84" cy="35.2" rx="9.12" ry="1.58" fill="#ec7670"/>
              <path d="M27.84,34.33c4.64,0,8.4.39,8.4.87s-3.76.86-8.4.86-8.4-.39-8.4-.86,3.76-.87,8.4-.87m0-1.42c-2.29,0-4.45.09-6.09.26s-3.74.38-3.74,2,2,1.84,3.74,2,3.8.26,6.09.26,4.45-.09,6.09-.26,3.74-.38,3.74-2-2-1.85-3.74-2-3.8-.26-6.09-.26Z" fill="#b53c3c"/>
            </g>
          </g>
          <path d="M20.74,29.22c0-.77,1.08-1,7.68-1.44,2.24-.16,5.14-.37,6.41-.63-1.27-.26-4.17-.47-6.41-.62-6.6-.47-7.68-.67-7.68-1.45s1.08-1,7.68-1.44c2.24-.16,5.15-.36,6.41-.63h1.34c0,.78-1.08,1-7.69,1.45-2.23.16-5.14.36-6.41.62,1.27.27,4.18.47,6.41.63,6.61.47,7.69.67,7.69,1.44s-1.08,1-7.69,1.45c-2.23.15-5.14.36-6.41.62,1.27.27,4.18.47,6.41.63,6.61.47,7.69.67,7.69,1.44s-1.08,1-7.69,1.45c-2.24.16-5.14.36-6.41.63,1.27.26,4.18.47,6.41.62,6.61.47,7.69.68,7.69,1.45v0H34.71l.13,0c-1.27-.26-4.18-.47-6.41-.63-6.61-.47-7.69-.67-7.69-1.44s1.08-1,7.68-1.45c2.24-.16,5.15-.36,6.41-.63-1.26-.26-4.17-.46-6.41-.62C21.82,30.2,20.74,30,20.74,29.22Z" fill="#cecece"/>
          <g>
            <path d="M23.38,27.45a19.89,19.89,0,0,1-5.62-.64,1.51,1.51,0,0,1-.59-.29,1.63,1.63,0,0,1-.44-.6,5.11,5.11,0,0,1-.35-2.36.77.77,0,0,1,.72-.78H29.75l8.14.15a.7.7,0,0,1,.7.71v1.81a1.64,1.64,0,0,1-.28,1,1.6,1.6,0,0,1-1.15.54,35.11,35.11,0,0,1-3.83.21H33a1.82,1.82,0,0,1-.75-.12A1.56,1.56,0,0,1,32,27a1.35,1.35,0,0,1-.62.18c-2.28.16-4.6.27-6.9.3Z" fill="#ffeb81"/>
            <path d="M29.75,23.49l8.12.15v1.81a.71.71,0,0,1-.8.87,33.53,33.53,0,0,1-3.75.21H33a1.3,1.3,0,0,1-.48-.07,1.32,1.32,0,0,1-.61-1c-.17.29,0,.74-.32.91a.53.53,0,0,1-.3.07q-3.42.25-6.87.31H23.38A19,19,0,0,1,18,26.12a.81.81,0,0,1-.34-.15,1,1,0,0,1-.24-.35,4.63,4.63,0,0,1-.28-2.13H29.75m0-1.42H17.1a1.42,1.42,0,0,0-1.43,1.42v.07a5.66,5.66,0,0,0,.42,2.66,2.24,2.24,0,0,0,.62.85,2.31,2.31,0,0,0,.85.42,20.42,20.42,0,0,0,5.82.68h1.08c2.31,0,4.64-.14,6.94-.31a2.9,2.9,0,0,0,.53-.09l.05,0A2.53,2.53,0,0,0,33,28h.33a36.45,36.45,0,0,0,3.91-.22,2.37,2.37,0,0,0,1.63-.8,2.29,2.29,0,0,0,.44-1.48V23.64a1.43,1.43,0,0,0-1.4-1.43l-8.13-.14Z" fill="#ffaa5a"/>
          </g>
          <g>
            <path d="M28.1,23.35A96,96,0,0,1,17,22.68.71.71,0,0,1,16.4,22,6.21,6.21,0,0,1,20,16.11a11.48,11.48,0,0,1,1.88-.62c.37-.1.74-.2,1.1-.33a3.21,3.21,0,0,0,2-1.44,4.56,4.56,0,0,0,.25-2c0-1-.07-2-.14-3.1a.72.72,0,0,1,.72-.76.64.64,0,0,1,.41.14c.59.42,2.92.87,6.09.87S37.82,8.4,38.4,8a.72.72,0,0,1,.42-.13.67.67,0,0,1,.34.09.68.68,0,0,1,.37.66c-.4,6.73-.94,13.44-1,13.5a.71.71,0,0,1-.62.65A78.38,78.38,0,0,1,28.1,23.35Z" fill="#feb6d2"/>
            <path d="M38.82,8.55c-.4,6.8-1,13.48-1,13.48a77.43,77.43,0,0,1-9.77.6,95.63,95.63,0,0,1-11-.65,5.52,5.52,0,0,1,3.21-5.22,29.11,29.11,0,0,1,2.92-.92A4,4,0,0,0,25.62,14a5,5,0,0,0,.32-2.35c0-1-.07-2.07-.13-3.14.8.59,3.41,1,6.5,1s5.7-.42,6.51-1m-13-1.43a1.38,1.38,0,0,0-.68.18,1.43,1.43,0,0,0-.74,1.34c.07,1.15.11,2.16.13,3.08a3.84,3.84,0,0,1-.18,1.69,2.72,2.72,0,0,1-1.56,1.08c-.33.11-.69.21-1.06.31a11.79,11.79,0,0,0-2,.66,6.93,6.93,0,0,0-4,6.61A1.41,1.41,0,0,0,17,23.39a97.41,97.41,0,0,0,11.15.67,79.84,79.84,0,0,0,9.95-.61,1.42,1.42,0,0,0,1.24-1.3c0-.07.56-6.78,1-13.51a1.42,1.42,0,0,0-.73-1.34,1.41,1.41,0,0,0-.69-.17A1.45,1.45,0,0,0,38,7.4c-.34.23-2.25.74-5.67.74S27,7.63,26.64,7.4a1.44,1.44,0,0,0-.84-.28Zm13,2.86h0Z" fill="#fa789e"/>
          </g>
          <g>
            <path d="M32.31,11.35c-1.75,0-7.48-.15-7.48-2.1,0,0,0-.58-.1-1.15-.14-1.46-.14-1.48-.14-1.53,0-2,5.95-2.16,7.77-2.16s7.76.16,7.76,2.16c0,.07,0,.08-.19,1.61-.07.55-.13,1.05-.14,1.13C39.79,11.2,34.07,11.35,32.31,11.35Z" fill="#ffeb81"/>
            <path d="M32.36,5.13c3.89,0,7,.64,7,1.44,0,.07-.33,2.63-.33,2.68,0,.76-3,1.39-6.77,1.39S25.55,10,25.55,9.25c0-.05-.24-2.61-.24-2.68,0-.8,3.15-1.44,7.05-1.44m0-1.43c-5.63,0-8.48,1-8.48,2.87,0,.09,0,.1.14,1.6,0,.52.09,1,.1,1.15.07,1.82,2.82,2.74,8.19,2.74s8.1-.91,8.19-2.71c0-.15.08-.59.14-1.07.2-1.58.2-1.59.2-1.71,0-1.9-2.86-2.87-8.48-2.87Z" fill="#ffaa5a"/>
          </g>
          <ellipse cx="32.36" cy="6.59" rx="5.51" ry="1.02" fill="#ffaa5a"/>
        </g>
      </g>
    </g>
  </g>
</svg>
