<svg xmlns="http://www.w3.org/2000/svg" width="40.71" height="40.89" viewBox="0 0 40.71 40.89">
  <g id="Layer_2" data-name="Layer 2">
    <g id="Layer_4" data-name="Layer 4">
      <g id="rabbit_food_2" data-name="rabbit_food 2">
        <g>
          <path d="M15.69,36.94a5.34,5.34,0,0,1-5.16-6.62,5.39,5.39,0,0,1-1.33.17,5.31,5.31,0,0,1-3.78-9.06,5.13,5.13,0,0,1,.93-.74,7.8,7.8,0,0,1,2.25-6,8,8,0,0,1,1.73-1.31A9.71,9.71,0,0,1,20,4.59a11,11,0,0,1,1.51.11,9.09,9.09,0,0,1,.82-.93A10.34,10.34,0,1,1,37,18.34a10.58,10.58,0,0,1-.93.83A9.7,9.7,0,0,1,27.51,30.4a7.9,7.9,0,0,1-1.3,1.74,7.77,7.77,0,0,1-5.55,2.31H20.2a5.86,5.86,0,0,1-.73.93A5.31,5.31,0,0,1,15.69,36.94Z" fill="#96b85c"/>
          <path d="M29.66,1.43a9.62,9.62,0,0,1,6.83,16.4,8.85,8.85,0,0,1-1.2,1,9,9,0,0,1-8.23,10.86,7.18,7.18,0,0,1-1.36,1.91,7.06,7.06,0,0,1-5.05,2.11,7.89,7.89,0,0,1-.84-.05A4.79,4.79,0,0,1,19,34.86a4.6,4.6,0,0,1-6.87-6.1,4.61,4.61,0,0,1-6.16-6.83,4.54,4.54,0,0,1,1.17-.85,7.1,7.1,0,0,1,2-5.91A7,7,0,0,1,11,13.8a9,9,0,0,1,9-8.5,9.28,9.28,0,0,1,1.82.18,10.45,10.45,0,0,1,1-1.21,9.64,9.64,0,0,1,6.84-2.84M12.8,28a4.57,4.57,0,0,1,.8-.52l0-.25-.26,0a4.51,4.51,0,0,1-.51.8M29.66,0a11,11,0,0,0-7.85,3.27c-.21.21-.42.44-.62.67A11.9,11.9,0,0,0,20,3.87,10.41,10.41,0,0,0,9.66,12.92a8.47,8.47,0,0,0-4,7.4,6.8,6.8,0,0,0-.7.61A6,6,0,0,0,9.2,31.2h.48A6,6,0,0,0,20,35.87a6.73,6.73,0,0,0,.59-.71h.08a8.48,8.48,0,0,0,6.07-2.52A8.87,8.87,0,0,0,28,31.07a10.42,10.42,0,0,0,8.88-11.61c.24-.2.46-.41.67-.62A11.06,11.06,0,0,0,29.66,0Z" fill="#6c9433"/>
        </g>
        <g>
          <path d="M6.67,40.18a6,6,0,0,1-4-1.93,6.72,6.72,0,0,1-1.82-3,2.87,2.87,0,0,1,.56-2.85A73.08,73.08,0,0,1,11,25.58a3.68,3.68,0,0,1,0-.47,6.89,6.89,0,0,1,.57-2.54,5,5,0,0,1,.42-.8,2.38,2.38,0,0,1,.23-.32.71.71,0,0,1,.54-.24.47.47,0,0,1,.17,0,.7.7,0,0,1,.53.52s0,.13.06.36a6.15,6.15,0,0,1,.09.82c0,.32,0,.7,0,1.09v.23a2.86,2.86,0,0,0,.91-.63l.17-.18a3.84,3.84,0,0,1-.11-.4,5.76,5.76,0,0,1-.12-1.46A6.93,6.93,0,0,1,15.05,19a5,5,0,0,1,.42-.8,3.69,3.69,0,0,1,.23-.32.71.71,0,0,1,.54-.24l.18,0a.71.71,0,0,1,.52.52s0,.14.07.36.06.48.08.82,0,.7,0,1.09c0,.16,0,.31,0,.48l0,0,1.5-1.49v0a3.59,3.59,0,0,1-.13-.71,6,6,0,0,1,0-1.46,7.29,7.29,0,0,1,.87-2.46,6.24,6.24,0,0,1,.51-.74,3.3,3.3,0,0,1,.27-.29.72.72,0,0,1,.48-.18.69.69,0,0,1,.25,0,.72.72,0,0,1,.46.59s0,.13,0,.36,0,.49,0,.82-.05.7-.09,1.09c0,.16,0,.33-.07.5l.41-.38,1.39-1.28c0-.12,0-.24,0-.35a4.34,4.34,0,0,1,0-.73,5.94,5.94,0,0,1,.29-1.44,7.15,7.15,0,0,1,1.25-2.27,5.73,5.73,0,0,1,.63-.65,3,3,0,0,1,.32-.24.67.67,0,0,1,.38-.11.81.81,0,0,1,.37.09.75.75,0,0,1,.35.65,2.4,2.4,0,0,1,0,.37c0,.19-.07.48-.14.81s-.16.67-.27,1.05l-.06.19,1.74-1.44L29,10.3l.24-.18.68-.51.6-.43A.7.7,0,0,1,30.94,9a.71.71,0,0,1,.51.21.73.73,0,0,1,.08.92l-.41.58c-.14.19-.32.44-.53.71l-.16.21c-.27.36-.58.77-.94,1.22S28.57,14,28,14.7l0,0,.33-.1c.37-.11.73-.21,1.05-.28l.82-.15.35,0h0a.71.71,0,0,1,.61.35.72.72,0,0,1,0,.75,2.53,2.53,0,0,1-.25.32,4.54,4.54,0,0,1-.63.63A7,7,0,0,1,28,17.49a5.61,5.61,0,0,1-1.44.3l-.34,0-.4,0-.43-.07L24.2,19.08l-.45.49.62-.09c.39-.05.77-.08,1.09-.1l.57,0h.26a2.81,2.81,0,0,1,.36,0,.71.71,0,0,1,.58.46.7.7,0,0,1-.13.73,2.83,2.83,0,0,1-.3.27,4.42,4.42,0,0,1-.73.52,7.19,7.19,0,0,1-2.44.88,6.8,6.8,0,0,1-1,.08l-.49,0a5.55,5.55,0,0,1-.73-.13l-.11,0c-.51.52-1,1.05-1.54,1.57h.75q.51,0,.93,0c.34,0,.63.05.83.08l.35.06A.72.72,0,0,1,23,25.11a3,3,0,0,1-.33.25,7.67,7.67,0,0,1-.79.43,7.14,7.14,0,0,1-2.53.58H19a5.48,5.48,0,0,1-1.18-.12,4.1,4.1,0,0,1-.5-.14l-.14.15a2.6,2.6,0,0,0-.63.94v0h.49l.9,0c.34,0,.63.06.83.09l.35.06a.72.72,0,0,1,.53.52.73.73,0,0,1-.21.71s-.12.1-.34.25a5.42,5.42,0,0,1-.78.42,7.15,7.15,0,0,1-2.53.59h-.57a73.28,73.28,0,0,1-6.72,9.57A2.55,2.55,0,0,1,6.67,40.18Z" fill="#fafcfb"/>
          <path d="M30.94,9.76l-.23.33c-.16.22-.38.54-.69.94s-.66.88-1.09,1.42l-1.46,1.8c-.5.61-1.06,1.26-1.65,1.94l.06,0,.48-.14.52-.17.54-.18,1.1-.36c.36-.1.7-.2,1-.26a6.62,6.62,0,0,1,.75-.14l.3,0a2.54,2.54,0,0,1-.18.25,7.46,7.46,0,0,1-.56.55,6.71,6.71,0,0,1-2,1.14,5.54,5.54,0,0,1-1.26.26h-.62a2.44,2.44,0,0,1-.55-.12l-.18-.06-1.53,1.7c-.59.65-1.21,1.31-1.84,2l.39,0,.54-.08.56-.09,1.15-.17c.37-.05.72-.08,1-.1h.77l.3,0-.22.21a7.15,7.15,0,0,1-.64.45,6.52,6.52,0,0,1-2.2.79,6.11,6.11,0,0,1-.86.07l-.42,0a4.1,4.1,0,0,1-.61-.11,3,3,0,0,1-.48-.18l-2,2.08L18,24.5h.12l.55,0,.57,0c.38,0,.78,0,1.15,0h.16c.32,0,.62,0,.88,0s.58.05.76.08a2.09,2.09,0,0,1,.3,0l-.24.18a4.61,4.61,0,0,1-.69.37,6.37,6.37,0,0,1-2.27.53H19a5,5,0,0,1-1-.1,2.71,2.71,0,0,1-.59-.18l-.22-.1-.48.47h0a3.33,3.33,0,0,0-.8,1.19A11.25,11.25,0,0,1,15.45,28l.28,0,1.15,0h.17c.31,0,.61,0,.87,0s.58.05.76.07l.3.06-.24.18a5.76,5.76,0,0,1-.69.37,6.59,6.59,0,0,1-2.27.53h-.24a5.32,5.32,0,0,1-.69,0A72.43,72.43,0,0,1,8,39a1.85,1.85,0,0,1-1.35.5,5.36,5.36,0,0,1-3.5-1.72C1.49,36.07.92,33.9,1.91,32.91A72.72,72.72,0,0,1,11.73,26a4.73,4.73,0,0,1,0-.84,6.34,6.34,0,0,1,.51-2.27,4.32,4.32,0,0,1,.37-.7,2,2,0,0,1,.18-.25l.05.3c0,.19.06.46.08.77s0,.66,0,1,0,.76,0,1.15v.19c.35-.17.68-.32,1-.44a3.23,3.23,0,0,0,1.19-.81h0l.48-.5-.06-.14a2.88,2.88,0,0,1-.18-.59,5,5,0,0,1-.11-1.28,6.34,6.34,0,0,1,.51-2.27,4.15,4.15,0,0,1,.37-.69,1.35,1.35,0,0,1,.18-.25l.05.3c0,.18.06.45.08.76s0,.66,0,1,0,.77,0,1.15c0,.19,0,.39,0,.58s0,.36,0,.54l1-1.06c.7-.7,1.39-1.39,2.09-2.07a2.48,2.48,0,0,1-.15-.41,2.9,2.9,0,0,1-.11-.6,5.08,5.08,0,0,1,0-1.29A6.26,6.26,0,0,1,20,15.14a4.17,4.17,0,0,1,.45-.65,1.87,1.87,0,0,1,.2-.22,1.85,1.85,0,0,1,0,.3c0,.19,0,.46,0,.77s-.05.66-.09,1-.1.76-.16,1.15l-.09.56c0,.19-.05.37-.07.54a2.51,2.51,0,0,0,0,.27c.64-.62,1.27-1.22,1.9-1.79s1.16-1.07,1.72-1.57a.36.36,0,0,1,0-.09,2.42,2.42,0,0,1-.12-.56,4.26,4.26,0,0,1,0-.62A5,5,0,0,1,24,13a6.49,6.49,0,0,1,1.12-2,5.14,5.14,0,0,1,.55-.57l.24-.19s0,.12,0,.31-.07.45-.14.75a10.07,10.07,0,0,1-.26,1c-.1.36-.22.73-.34,1.1l-.18.54c-.06.18-.11.36-.17.53s-.08.27-.11.39c.64-.56,1.25-1.09,1.83-1.58s1.25-1,1.79-1.47l1.41-1.1c.39-.31.72-.53.93-.69l.33-.24m0-1.43a1.42,1.42,0,0,0-.83.27l-.33.23L29.52,9l-.72.55-.21.16c-.36.27-.77.59-1.22.95l-.12.1V10.7a2.87,2.87,0,0,0,0-.41A1.44,1.44,0,0,0,26.59,9a1.41,1.41,0,0,0-.72-.19A1.44,1.44,0,0,0,25.1,9s-.19.13-.4.31a6.92,6.92,0,0,0-.71.72,8,8,0,0,0-1.38,2.51,6.47,6.47,0,0,0-.32,1.61,4.89,4.89,0,0,0,0,.86l-.16.14c0-.29,0-.51,0-.66s0-.41,0-.41a1.43,1.43,0,0,0-2.38-.89,4.06,4.06,0,0,0-.35.38,5.85,5.85,0,0,0-.57.83,7.69,7.69,0,0,0-.95,2.7,6.58,6.58,0,0,0-.05,1.65c0,.15,0,.3.06.45l-.07.07a7.43,7.43,0,0,0-.09-.83c0-.24-.08-.4-.08-.4a1.41,1.41,0,0,0-1.05-1,1.33,1.33,0,0,0-.34-.05,1.46,1.46,0,0,0-1.08.49c0,.05-.15.19-.3.42a6.52,6.52,0,0,0-.47.89A7.72,7.72,0,0,0,13.81,21a1.44,1.44,0,0,0-.73-.44,1.32,1.32,0,0,0-.34,0,1.39,1.39,0,0,0-1.07.49,3.56,3.56,0,0,0-.31.41,7.51,7.51,0,0,0-.47.9,8.06,8.06,0,0,0-.63,2.79v.09A74.34,74.34,0,0,0,.9,31.9a3.57,3.57,0,0,0-.74,3.53,7.46,7.46,0,0,0,2,3.33,6.78,6.78,0,0,0,4.5,2.13A3.24,3.24,0,0,0,9,40a74.5,74.5,0,0,0,6.62-9.35h.19a8,8,0,0,0,2.8-.65,6.4,6.4,0,0,0,.89-.49,2.47,2.47,0,0,0,.39-.29,1.41,1.41,0,0,0,.44-1.42,1.31,1.31,0,0,0-.44-.72,7.9,7.9,0,0,0,2.22-.61A6.56,6.56,0,0,0,23,26a4.8,4.8,0,0,0,.4-.3,1.43,1.43,0,0,0-.63-2.46l-.42-.08c-.17,0-.47-.06-.87-.09h0l.08-.08.55.08a5,5,0,0,0,.55,0A8.23,8.23,0,0,0,23.74,23a7.93,7.93,0,0,0,2.7-1,5.23,5.23,0,0,0,.83-.59,3.28,3.28,0,0,0,.36-.34,1.42,1.42,0,0,0,.27-1.46,1.44,1.44,0,0,0-1.18-.91,3.75,3.75,0,0,0-.42,0h-.76l.16-.17h.11l.45,0,.39,0a6,6,0,0,0,1.61-.33,7.92,7.92,0,0,0,2.51-1.41,6.83,6.83,0,0,0,.72-.72c.16-.19.26-.34.3-.39a1.45,1.45,0,0,0,0-1.49,1.43,1.43,0,0,0-1.24-.7H30.5l-.42,0-.19,0,.16-.2c.36-.45.67-.86.94-1.21l.17-.23c.21-.27.38-.52.53-.72l.16-.23.26-.36a1.43,1.43,0,0,0-1.17-2.25Zm0,2.86h0Z" fill="#dfe590"/>
        </g>
      </g>
    </g>
  </g>
</svg>
