<svg xmlns="http://www.w3.org/2000/svg" xmlns:xlink="http://www.w3.org/1999/xlink" width="40.9" height="26.25" viewBox="0 0 40.9 26.25">
  <defs>
    <clipPath id="clip-path">
      <ellipse cx="20.45" cy="7.57" rx="14.42" ry="5.07" fill="none"/>
    </clipPath>
  </defs>
  <g id="Layer_2" data-name="Layer 2">
    <g id="Layer_4" data-name="Layer 4">
      <g id="rabbit_toy_2" data-name="rabbit_toy 2">
        <g>
          <g>
            <path d="M17,21.12a2.22,2.22,0,0,1-2.23-2.21V11A2.23,2.23,0,0,1,17,8.76h.17a.72.72,0,1,1,0,1.43.13.13,0,0,0-.13.12v8.51a.13.13,0,0,0,.13.13l6.51,0a.13.13,0,0,0,.13-.13V10.31a.13.13,0,0,0-.14-.12.72.72,0,0,1,0-1.43h.17A2.23,2.23,0,0,1,26.1,11v8a2.22,2.22,0,0,1-2.23,2.21Z" fill="#ffaa5a"/>
            <path d="M23.87,9.48A1.51,1.51,0,0,1,25.39,11v8a1.51,1.51,0,0,1-1.52,1.5l-6.84,0a1.51,1.51,0,0,1-1.52-1.5V11A1.51,1.51,0,0,1,17,9.48h.17a.84.84,0,0,0-.85.83v8.51a.85.85,0,0,0,.85.84l6.5,0a.85.85,0,0,0,.85-.84V10.31a.84.84,0,0,0-.85-.83h.17m0-1.43H23.7a1.43,1.43,0,0,0-.58,2.73v7.49l-5.34,0V10.78a1.43,1.43,0,0,0-.58-2.73H17a2.94,2.94,0,0,0-3,2.93v7.93a3,3,0,0,0,3,2.93l6.83,0a3,3,0,0,0,3-2.93V11a2.94,2.94,0,0,0-2.95-2.93Z" fill="#e57225"/>
          </g>
          <g>
            <g>
              <path d="M11.15,25.54a.57.57,0,0,1-.18,0L5,23.89A2.23,2.23,0,0,1,3.17,21.7V13.77a2.13,2.13,0,0,1,2-2.21h.14a.71.71,0,1,1,0,1.42s0,0,0,.13v8.51c0,.06.08.11.22.15L11,23.34s0-.06,0-.1V13.11A.19.19,0,0,0,11,13a.71.71,0,0,1-.71-.71.72.72,0,0,1,.73-.71h.14a2.13,2.13,0,0,1,2,2.21v9.56A2.13,2.13,0,0,1,11.15,25.54Z" fill="#ffaa5a"/>
              <path d="M11.15,12.27a1.42,1.42,0,0,1,1.33,1.5v9.56a1.42,1.42,0,0,1-1.33,1.5L5.21,23.2a1.55,1.55,0,0,1-1.33-1.5V13.77a1.42,1.42,0,0,1,1.33-1.5h.14a.79.79,0,0,0-.74.84v8.51a.85.85,0,0,0,.74.83L11,24.08a.8.8,0,0,0,.74-.84V13.11a.79.79,0,0,0-.74-.84h.14m0-1.43H11a1.43,1.43,0,0,0-.69,2.68v8.87L6,21.17V13.52a1.43,1.43,0,0,0-.69-2.68H5.21a2.86,2.86,0,0,0-2.76,2.93V21.7a3,3,0,0,0,2.36,2.88l6,1.62a1.18,1.18,0,0,0,.37.05,2.85,2.85,0,0,0,2.76-2.92V13.77a2.86,2.86,0,0,0-2.76-2.93Z" fill="#e57225"/>
            </g>
            <g>
              <path d="M29.75,25.54a2.13,2.13,0,0,1-2-2.21V13.77a2.13,2.13,0,0,1,2-2.21h.14a.71.71,0,1,1,0,1.42s0,0,0,.13V23.24a.3.3,0,0,0,0,.1l5.47-1.57.24-.14,0-8.52a.17.17,0,0,0,0-.13.7.7,0,0,1-.7-.71.71.71,0,0,1,.72-.71h.15a2.13,2.13,0,0,1,2,2.21V21.7a2.26,2.26,0,0,1-1.82,2.18l-6,1.63A.63.63,0,0,1,29.75,25.54Z" fill="#ffaa5a"/>
              <path d="M35.7,12.27A1.42,1.42,0,0,1,37,13.77V21.7a1.61,1.61,0,0,1-1.32,1.5l-6,1.63a1.43,1.43,0,0,1-1.33-1.5V13.77a1.42,1.42,0,0,1,1.33-1.5h.14a.8.8,0,0,0-.74.84V23.24a.8.8,0,0,0,.74.84l5.66-1.63c.49-.21.74-.37.74-.83V13.11a.79.79,0,0,0-.74-.84h.15m0-1.43h-.15a1.43,1.43,0,0,0-.69,2.68v7.65l-4.28,1.22V13.52a1.43,1.43,0,0,0-.69-2.68h-.14A2.85,2.85,0,0,0,27,13.77v9.56a2.84,2.84,0,0,0,2.75,2.92,1.14,1.14,0,0,0,.37-.05l5.95-1.62.07,0a3,3,0,0,0,2.31-2.86V13.77a2.86,2.86,0,0,0-2.75-2.93Z" fill="#e57225"/>
            </g>
          </g>
        </g>
        <g>
          <path d="M39.47,9.26C39.47,13,31,16,20.45,16s-19-3-19-6.75V8.18c.18-3.67,8.63-5.68,19-5.68s18.91,2,19,5.68C39.48,8.21,39.47,9.23,39.47,9.26Z" fill="#ffaa5a"/>
          <ellipse cx="20.45" cy="8.18" rx="19.02" ry="6.76" fill="#ffeb81"/>
          <g clip-path="url(#clip-path)">
            <ellipse cx="20.45" cy="7.57" rx="12.53" ry="4.41" fill="#f9e4e4"/>
          </g>
          <path d="M20.45,2.5C12.49,2.5,6,4.77,6,7.57a2.13,2.13,0,0,0,.41,1.22,2.11,2.11,0,0,1-.1-.61c0-2.8,6.32-5.07,14.11-5.07S34.56,5.38,34.56,8.18a2.11,2.11,0,0,1-.1.61,2.13,2.13,0,0,0,.41-1.22C34.87,4.77,28.42,2.5,20.45,2.5Z" fill="#ffaa5a"/>
          <g>
            <path d="M22.76,9.27c0,1.17-1,1.16-2.31,1.16s-2.31,0-2.31-1.16a2.78,2.78,0,0,1,.79-1.84,2.21,2.21,0,0,1,1.12-.67c-.05-.82-.34-1.45-.7-1.45a.5.5,0,0,0-.39.27c.15-.52.4-.86.68-.86.44,0,.81.87.81,1.93v.06h0V6.65c0-1.06.36-1.93.81-1.93.28,0,.53.34.67.86a.49.49,0,0,0-.39-.27c-.35,0-.65.63-.7,1.44A2.31,2.31,0,0,1,22,7.42,2.83,2.83,0,0,1,22.76,9.27Z" fill="#f9e4e4"/>
            <g>
              <path d="M22,7.31a.12.12,0,0,1-.09,0,2.18,2.18,0,0,0-1.07-.64.09.09,0,0,1-.08-.1c.05-.91.39-1.55.81-1.55a.59.59,0,0,1,.49.33,0,0,0,0,1,0,0,4.11,4.11,0,0,1,.14,1.09,2.2,2.2,0,0,1-.11.8.1.1,0,0,1-.08.07Z" fill="#f9e4e4"/>
              <path d="M21.54,5.1a.49.49,0,0,1,.39.27,3.91,3.91,0,0,1,.14,1.07,2.47,2.47,0,0,1-.1.77,2.31,2.31,0,0,0-1.13-.67c.05-.81.35-1.44.7-1.44m0-.21c-.57,0-.88.82-.93,1.64a.23.23,0,0,0,.18.22,2,2,0,0,1,1,.6.29.29,0,0,0,.18.07h0a.22.22,0,0,0,.17-.15,2.35,2.35,0,0,0,.12-.83,4,4,0,0,0-.15-1.12.08.08,0,0,0,0-.05.68.68,0,0,0-.59-.38Z" fill="#fc97b8"/>
            </g>
            <g>
              <path d="M18.93,7.32h0a.16.16,0,0,1-.09-.07,2.51,2.51,0,0,1-.11-.81,4.11,4.11,0,0,1,.14-1.09v0A.6.6,0,0,1,19.35,5c.43,0,.76.64.82,1.55a.13.13,0,0,1-.09.11A2.07,2.07,0,0,0,19,7.28.11.11,0,0,1,18.93,7.32Z" fill="#f9e4e4"/>
              <path d="M19.35,5.1c.36,0,.65.63.7,1.44a2.3,2.3,0,0,0-1.12.68,2.59,2.59,0,0,1-.1-.78A4.35,4.35,0,0,1,19,5.37a.5.5,0,0,1,.39-.27m0-.21a.69.69,0,0,0-.59.38s0,0,0,.05a4.4,4.4,0,0,0-.14,1.12,2.71,2.71,0,0,0,.11.84.24.24,0,0,0,.18.14h0a.21.21,0,0,0,.17-.08,2.05,2.05,0,0,1,1-.6.21.21,0,0,0,.17-.22c-.05-.82-.36-1.64-.93-1.64Z" fill="#fc97b8"/>
            </g>
            <path d="M20.21,9.4c0-.12.11-.12.24-.12s.25,0,.25.12a.25.25,0,1,1-.49,0Z" fill="#fc97b8"/>
            <path d="M19.85,9.27a.28.28,0,0,1-.3.27.29.29,0,0,1-.3-.27.3.3,0,0,1,.3-.28A.29.29,0,0,1,19.85,9.27Z" fill="#fc97b8"/>
            <path d="M21.05,9.27a.29.29,0,0,0,.3.27.28.28,0,0,0,.3-.27.29.29,0,0,0-.3-.28A.3.3,0,0,0,21.05,9.27Z" fill="#fc97b8"/>
            <path d="M21.26,4.72c.28,0,.53.34.67.86a3.91,3.91,0,0,1,.14,1.07,2.47,2.47,0,0,1-.1.77,2.83,2.83,0,0,1,.79,1.85c0,1.14-1,1.16-2.22,1.16h-.18c-1.23,0-2.22,0-2.22-1.16a2.78,2.78,0,0,1,.79-1.84,2.5,2.5,0,0,1-.1-.78A4.35,4.35,0,0,1,19,5.58c.15-.52.4-.86.68-.86.44,0,.81.87.81,1.93v.06h0V6.65c0-1.06.36-1.93.81-1.93m0-.31a.93.93,0,0,0-.81.58.94.94,0,0,0-.81-.58c-.45,0-.81.39-1,1.1a4.14,4.14,0,0,0-.15,1.14,3.36,3.36,0,0,0,.07.7,3.07,3.07,0,0,0-.75,1.92,1.26,1.26,0,0,0,.86,1.3,5.36,5.36,0,0,0,1.7.17h.18a5.33,5.33,0,0,0,1.7-.17,1.26,1.26,0,0,0,.86-1.3,3.06,3.06,0,0,0-.76-1.93,2.77,2.77,0,0,0,.07-.69,4.14,4.14,0,0,0-.15-1.14c-.19-.71-.55-1.1-1-1.1Z" fill="#fc97b8"/>
          </g>
          <path d="M20.45,1.43c10.51,0,19,3,19,6.75,0,0,0,1.05,0,1.08C39.47,13,31,16,20.45,16s-19-3-19-6.75V8.18c0-3.73,8.51-6.75,19-6.75m0-1.43C10.29,0,0,2.81,0,8.18H0V9.26c0,5.37,10.29,8.18,20.45,8.18S40.9,14.63,40.9,9.26V8.14C40.9,2.81,30.61,0,20.45,0Z" fill="#e57225"/>
        </g>
      </g>
    </g>
  </g>
</svg>
