<svg xmlns="http://www.w3.org/2000/svg" width="40.39" height="41.25" viewBox="0 0 40.39 41.25">
  <g style="isolation: isolate">
    <g id="Layer_2" data-name="Layer 2">
      <g id="Layer_4" data-name="Layer 4">
        <g id="rabbit_food_1" data-name="rabbit_food 1">
          <g>
            <g>
              <path d="M22.34,27.23a.93.93,0,0,1-.46-.12.88.88,0,0,1-.4-.47.65.65,0,0,1-.05-.2L21,23.73a.92.92,0,0,1,.21-.74c1-1.2,10.05-11.63,15.18-11.63h.19A3.11,3.11,0,0,1,39,12.74a3.41,3.41,0,0,1,.47,3c-1.6,5.3-15.28,10.8-16.84,11.41A1.2,1.2,0,0,1,22.34,27.23Z" fill="#4a8c32"/>
              <path d="M36.36,12.08h.16a2.41,2.41,0,0,1,1.94,1.07,2.68,2.68,0,0,1,.37,2.41C37.3,20.61,23,26.26,22.41,26.5l-.07,0a.23.23,0,0,1-.11,0,.2.2,0,0,1-.09-.11s0,0,0,0l-.45-2.72a.19.19,0,0,1,0-.17c.4-.47,9.73-11.37,14.64-11.37m0-1.43h0c-5.35,0-14,9.89-15.72,11.87a1.61,1.61,0,0,0-.37,1.33l.45,2.73a1.81,1.81,0,0,0,.09.31,1.62,1.62,0,0,0,1.53,1.05,1.51,1.51,0,0,0,.59-.11c2.59-1,15.6-6.37,17.26-11.86a4.09,4.09,0,0,0-.56-3.64,3.85,3.85,0,0,0-3.05-1.68Z" fill="#2e5b1d"/>
            </g>
            <path d="M27.93,19.81c.29-.28.61-.56.95-.86.69-.58,1.48-1.19,2.34-1.78a27,27,0,0,1,2.52-1.51q.6-.32,1.14-.57c.37-.17.71-.31,1-.44A8.16,8.16,0,0,1,38,14a16.81,16.81,0,0,1-2,.95q-.47.21-1,.48c-.36.18-.73.39-1.12.6-.78.43-1.62.94-2.47,1.51s-1.63,1.17-2.32,1.73l-1,.82c-.3.26-.57.51-.82.74a17.45,17.45,0,0,1-1.61,1.49,8.26,8.26,0,0,1,1.41-1.7C27.37,20.34,27.64,20.08,27.93,19.81Z" fill="#3b2910" opacity="0.2" style="mix-blend-mode: multiply"/>
          </g>
          <g>
            <g>
              <path d="M17.66,25.69a.93.93,0,0,1-.7-.31l-2.15-2.49a1.2,1.2,0,0,1-.16-.27.92.92,0,0,1-.05-.49.94.94,0,0,1,.46-.65,7.23,7.23,0,0,0,3.23-4.11,12,12,0,0,0,.35-5.56l-.07-.44A9.45,9.45,0,0,1,18.39,9a3.63,3.63,0,0,1,1.69-2.93A4.75,4.75,0,0,1,22,5.57a3.11,3.11,0,0,0,1.23-.27,3.24,3.24,0,0,0,1-1.67,4.3,4.3,0,0,1,2-2.68A2.64,2.64,0,0,1,27.42.71a3.42,3.42,0,0,1,2.75,1.53,5.57,5.57,0,0,1,.72,3.62c-.31,3.37-1.78,7-4.49,11.1a31.82,31.82,0,0,1-8.21,8.56A.93.93,0,0,1,17.66,25.69Z" fill="#6c9433"/>
              <path d="M27.42,1.43a2.7,2.7,0,0,1,2.15,1.21,4.8,4.8,0,0,1,.61,3.15c-.3,3.26-1.73,6.78-4.37,10.77a31.37,31.37,0,0,1-8,8.38.19.19,0,0,1-.12,0,.24.24,0,0,1-.16-.07l-2.15-2.48a.16.16,0,0,1,0-.07.37.37,0,0,1,0-.11.19.19,0,0,1,.11-.14A8,8,0,0,0,19,17.59a12.61,12.61,0,0,0,.37-5.88c0-.16-.05-.33-.07-.49a8.72,8.72,0,0,1-.17-2.17,3,3,0,0,1,1.33-2.37,4.22,4.22,0,0,1,1.66-.4,3.59,3.59,0,0,0,1.53-.36,3.89,3.89,0,0,0,1.33-2A3.68,3.68,0,0,1,26.6,1.6a2,2,0,0,1,.82-.17m0-1.43h0A3.36,3.36,0,0,0,26,.3a5,5,0,0,0-2.4,3.06,3.3,3.3,0,0,1-.73,1.33,3.09,3.09,0,0,1-.93.17,5.32,5.32,0,0,0-2.23.58,4.36,4.36,0,0,0-2.05,3.49,10.15,10.15,0,0,0,.18,2.52c0,.17.05.32.07.47a11.29,11.29,0,0,1-.31,5.22,6.63,6.63,0,0,1-2.91,3.72,1.64,1.64,0,0,0-.73,2,1.44,1.44,0,0,0,.29.49l2.15,2.48a1.63,1.63,0,0,0,1.24.57,1.67,1.67,0,0,0,.94-.3A32.85,32.85,0,0,0,27,17.35c2.77-4.19,4.28-7.93,4.6-11.43a6.15,6.15,0,0,0-.84-4.07A4.16,4.16,0,0,0,27.42,0Z" fill="#507125"/>
            </g>
            <path d="M20.06,11.77a6.57,6.57,0,0,1,1.48.9,6.87,6.87,0,0,1,1.21,1.23,2.59,2.59,0,0,1,.2.31l0-.09a20.14,20.14,0,0,0,.77-3.19,14.56,14.56,0,0,0,.18-2.67,20.76,20.76,0,0,0-.31-2.46s0,0,.09.16a2.75,2.75,0,0,1,.18.47,8.2,8.2,0,0,1,.33,1.81A12.38,12.38,0,0,1,24.13,11a12.42,12.42,0,0,1-.23,1.31c.46-.45,1.4-1.27,2.53-2.19a16.89,16.89,0,0,1,3.09-2.24,17.75,17.75,0,0,1-2.83,2.56,32.36,32.36,0,0,1-2.84,2.14c-.13.55-.29,1.12-.47,1.69a21,21,0,0,1-2.67,5.44,13.94,13.94,0,0,1-1.14,1.45c-.29.32-.47.48-.49.46s.57-.77,1.38-2.07a24.79,24.79,0,0,0,2.42-5.11c-.29-.25-.86-.84-1.6-1.42-1-.82-2-1.31-1.92-1.42S19.66,11.59,20.06,11.77Z" fill="#3b2910" opacity="0.2" style="mix-blend-mode: multiply"/>
          </g>
          <g>
            <g>
              <path d="M4.47,40.54a4.75,4.75,0,0,1-1.41-.21,3.4,3.4,0,0,1-1.44-.92,3.72,3.72,0,0,1-.88-3c.52-5.22,9.13-14.25,11.39-15.9a5.41,5.41,0,0,1,3.24-1.1,8,8,0,0,1,5.28,2.5s4.16,4.57.69,8.59c-1.84,2.13-11.57,10-16.79,10.06Z" fill="#ff8d3d"/>
              <path d="M15.37,20.11a7.43,7.43,0,0,1,4.75,2.26s3.72,4.12.68,7.65c-1.73,2-11.33,9.72-16.26,9.8H4.46a4,4,0,0,1-1.18-.17,2.71,2.71,0,0,1-1.14-.72,3.07,3.07,0,0,1-.69-2.47c.49-4.93,9-13.84,11.1-15.39a4.74,4.74,0,0,1,2.82-1m0-1.43h0a6.14,6.14,0,0,0-3.66,1.24C9.65,21.42.6,30.63,0,36.31a4.43,4.43,0,0,0,1.06,3.58A4,4,0,0,0,2.83,41a5.06,5.06,0,0,0,1.63.25h.1c5.69-.09,15.64-8.36,17.32-10.3,3.09-3.59.89-7.82-.71-9.55a8.73,8.73,0,0,0-5.8-2.72Z" fill="#e57225"/>
            </g>
            <g opacity="0.5">
              <path d="M18.12,27.64a6.08,6.08,0,0,0,2.81,1.6c.09-.16-1.08-1-2.41-2.08s-2.36-2.1-2.5-2S16.73,26.5,18.12,27.64Z" fill="#fff6eb"/>
            </g>
            <g opacity="0.5">
              <path d="M12,26.76a12.32,12.32,0,0,0,2.14,1.47c.59.31,1,.43,1,.36s-1.27-1-2.76-2.3-2.59-2.46-2.73-2.35.12.42.52.95A12.16,12.16,0,0,0,12,26.76Z" fill="#fff6eb"/>
            </g>
            <g opacity="0.5">
              <path d="M12.59,33.09a5.15,5.15,0,0,0,2.63,1.27c.08-.16-1-.85-2.25-1.78S10.74,30.83,10.61,31,11.29,32.13,12.59,33.09Z" fill="#fff6eb"/>
            </g>
          </g>
        </g>
      </g>
    </g>
  </g>
</svg>
