<svg xmlns="http://www.w3.org/2000/svg" width="41.28" height="40.79" viewBox="0 0 41.28 40.79">
  <g id="Layer_2" data-name="Layer 2">
    <g id="Layer_4" data-name="Layer 4">
      <g id="rabbit_clean_2" data-name="rabbit_clean 2">
        <g>
          <path d="M24.64,38.59a1.86,1.86,0,0,0,.56-.15l7.56-3.15,5.76-2.39a2.35,2.35,0,0,0,.49-.29.54.54,0,0,1,.07.13,1,1,0,0,1-.55,1.33L26,39.28a1,1,0,0,1-1.33-.55S24.66,38.64,24.64,38.59Z" fill="#f3abc6"/>
          <path d="M15.77,15.82,18,14.91a.75.75,0,0,0,.51,0l4.89-2,.85-.35a2.18,2.18,0,0,1,.72.13l-8.2,3.42a2,2,0,0,0-.79,2.89l8.41,16.64a1.74,1.74,0,0,0,2.21.8l7.54-3.14a2.16,2.16,0,0,1-1.34,2L25.2,38.44a1.86,1.86,0,0,1-.56.15,2.17,2.17,0,0,1-2.29-1.32L14.6,18.66A2.17,2.17,0,0,1,15.77,15.82Z" fill="#f9d6e7"/>
          <path d="M16.73,16.05l8.2-3.42a2.18,2.18,0,0,1,1.25,1.21l2.34,5.62L22.4,22,20,17.23a1.41,1.41,0,0,0-1.79-.67l-.1.05a1.4,1.4,0,0,0-.62,1.88L19.8,23.1l-.58.24,5.66,11.3a1.57,1.57,0,0,0,2,.76l7.08-2.95a2,2,0,0,1,.17.79l-7.54,3.14a1.74,1.74,0,0,1-2.21-.8L15.94,18.94A2,2,0,0,1,16.73,16.05Z" fill="#f3abcc"/>
          <path d="M19.8,23.1l5.66,11.21a1.4,1.4,0,0,0,1.79.66l.09,0A1.4,1.4,0,0,0,28,33.05L22.4,22l6.12-2.55,5.41,13L26.85,35.4a1.57,1.57,0,0,1-2-.76l-5.66-11.3Z" fill="#f08eb9"/>
          <path d="M34.1,33.24l2-.83a1.74,1.74,0,0,0,1-2.13L31.19,12.59a2,2,0,0,0-2.61-1.48l-3.65,1.52a2.18,2.18,0,0,0-.72-.13l1.56-.65a.71.71,0,0,0,.37-.35l2.95-1.23.2-.07h0l.19,0h0l.18,0h.44l.17,0h0l.17,0h0l.16.06h0l.16.07h0l.16.09h0l.15.1h0l.15.12h0l.13.13h0a1,1,0,0,1,.13.16h0l.11.16h0l.09.18h0l.05.11,7.75,18.61A2.18,2.18,0,0,1,39,32.61a2.35,2.35,0,0,1-.49.29l-5.76,2.39A2.16,2.16,0,0,0,34.1,33.24Z" fill="#f5b7c8"/>
          <path d="M26.18,13.84a2.18,2.18,0,0,0-1.25-1.21l3.65-1.52a2,2,0,0,1,2.61,1.48l5.89,17.69a1.74,1.74,0,0,1-1,2.13l-2,.83a2,2,0,0,0-.17-.79l1.27-.53A1.56,1.56,0,0,0,36,30L32,18l-3.48,1.45Z" fill="#f092b1"/>
          <path d="M32,18l4,12a1.56,1.56,0,0,1-.84,1.93l-1.27.53-5.41-13Z" fill="#ed7aa3"/>
          <path d="M18.09,16.61l.1-.05a1.41,1.41,0,0,1,1.79.67L22.4,22,19.8,23.1l-2.33-4.61A1.4,1.4,0,0,1,18.09,16.61Z" fill="#f8d1e4"/>
          <path d="M22.4,22l5.56,11a1.4,1.4,0,0,1-.62,1.88l-.09,0a1.4,1.4,0,0,1-1.79-.66L19.8,23.1Z" fill="#f6bfd9"/>
          <path d="M29.93,10.1h.2l.17,0h0l.17,0h0l.16.06h0l.16.07h0l.16.09h0l.15.1h0l.15.12h0l.13.13h0a1,1,0,0,1,.13.16h0l.11.16h0l.09.18h0l.05.11,7.75,18.61A2.18,2.18,0,0,1,39,32.61a.54.54,0,0,1,.07.13,1,1,0,0,1-.55,1.33L26,39.28a1.09,1.09,0,0,1-.39.08,1,1,0,0,1-.94-.63s0-.09-.05-.14a1.27,1.27,0,0,1-.28,0,2.18,2.18,0,0,1-2-1.34L14.6,18.66a2.17,2.17,0,0,1,1.17-2.84L18,14.91a.85.85,0,0,0,.23,0,.71.71,0,0,0,.28-.06l4.89-2,.85-.35,1.56-.65a.71.71,0,0,0,.37-.35l2.95-1.23.2-.07h0l.19,0h0l.18,0h.24m0-1.43h0l-.35,0h-.05l-.3,0-.34.09h0a2.09,2.09,0,0,0-.3.11l-3,1.23a1.46,1.46,0,0,0-.57.44l-1.36.56-.85.36-4.69,2H18a1.46,1.46,0,0,0-.55.11l-2.19.91a3.61,3.61,0,0,0-1.94,4.71L21,37.82A3.61,3.61,0,0,0,23.83,40a2.46,2.46,0,0,0,1.8.79,2.54,2.54,0,0,0,.94-.19l12.51-5.21A2.45,2.45,0,0,0,40.58,33,3.6,3.6,0,0,0,41,29.5L33.26,10.89c0-.05,0-.11-.08-.16h0v-.08L33,10.4v0a1.59,1.59,0,0,0-.18-.27l0,0-.19-.24c-.08-.09-.16-.16-.23-.23l0,0-.21-.17a2.33,2.33,0,0,0-.28-.19l-.29-.17-.06,0a1,1,0,0,0-.25-.11l0,0-.27-.09-.33-.08-.33,0-.33,0Z" fill="#e75c78"/>
        </g>
        <g>
          <path d="M15.05,4a.57.57,0,0,1,.31-.71l3.5-1.46L21.42,7.5,16.93,9.37Z" fill="#e2b34d"/>
          <path d="M16.47,10.09l.62-.26,4.27-1.78,1.15,2.78-4.88,2a.72.72,0,0,1-.52,0,.67.67,0,0,1-.43-.41L16.08,11A.72.72,0,0,1,16.47,10.09Z" fill="#e2b34d"/>
          <path d="M21.42,7.5,18.86,1.82h0l.85-.35a.62.62,0,0,1,.38,0,.58.58,0,0,1,.35.3l2.49,5.12-1.51.63Z" fill="#df9f34"/>
          <circle cx="17.42" cy="5.05" r="1.32" fill="#df9f34"/>
          <path d="M23.15,7.31l.62-.26a.71.71,0,0,1,.94.39l.6,1.44a.71.71,0,0,1,0,.59h0a.74.74,0,0,1-.38.36l-1.55.64-.86.36L21.36,8.05l1.79-.74Z" fill="#df9f34"/>
          <polygon points="16.93 9.37 21.42 7.5 21.42 7.5 22.93 6.87 22.93 6.87 23.15 7.31 21.36 8.05 17.09 9.83 16.93 9.37" fill="#a76d2c"/>
          <circle cx="17.42" cy="5.05" r="0.31" fill="#a76d2c"/>
          <path d="M19.92,1.43l.17,0a.58.58,0,0,1,.35.3l2.49,5.12.22.44.62-.26A.66.66,0,0,1,24,7a.71.71,0,0,1,.67.45l.6,1.44a.71.71,0,0,1,0,.59h0a.74.74,0,0,1-.38.36l-1.55.64-.86.36-4.88,2a.92.92,0,0,1-.28.05.72.72,0,0,1-.67-.45L16.08,11a.72.72,0,0,1,.39-.95l.62-.26-.16-.46L15.05,4a.57.57,0,0,1,.31-.71l3.5-1.46h0l.85-.35a.52.52,0,0,1,.21,0m5.38,8h0M19.92,0a1.93,1.93,0,0,0-.75.15l-.86.36L14.81,2a2,2,0,0,0-1.11,2.5l1.63,4.67a2.18,2.18,0,0,0-.57,2.45l.6,1.44a2.16,2.16,0,0,0,1.3,1.21,2,2,0,0,0,.69.12,2.2,2.2,0,0,0,.83-.17l4.88-2,.86-.36,1.55-.65a2.08,2.08,0,0,0,1.05-.93,2.1,2.1,0,0,0,.13-.26,2.16,2.16,0,0,0,0-1.62L26,6.89a2.13,2.13,0,0,0-2-1.33h-.15L21.72,1.12a2,2,0,0,0-1.23-1A2.12,2.12,0,0,0,19.92,0Z" fill="#ce894a"/>
        </g>
        <g>
          <path d="M3.78,11.83a.71.71,0,0,1-.55-.26L1.88,10A.7.7,0,0,1,2.25,8.8l7.77-2a.52.52,0,0,1,.17,0,.72.72,0,0,1,.67.44.71.71,0,0,1-.32.89L4.13,11.74A.73.73,0,0,1,3.78,11.83Z" fill="#ffd0ce"/>
          <path d="M10.19,7.5,3.78,11.11,2.42,9.49l7.77-2m0-1.43a1.48,1.48,0,0,0-.35,0l-7.77,2a1.41,1.41,0,0,0-1,1,1.39,1.39,0,0,0,.26,1.35L2.68,12a1.44,1.44,0,0,0,1.8.33l6.41-3.62A1.43,1.43,0,0,0,11.52,7a1.44,1.44,0,0,0-1.33-.9Zm0,2.86h0Z" fill="#e75c78"/>
        </g>
        <g>
          <path d="M4.35,20.07a.69.69,0,0,1-.41-.13L1,17.86A.71.71,0,0,1,1,16.7l9.77-7a.76.76,0,0,1,.41-.13.72.72,0,0,1,.51.22.71.71,0,0,1,.06.93l-6.84,9A.72.72,0,0,1,4.35,20.07Z" fill="#ffd0ce"/>
          <path d="M11.19,10.33l-6.84,9L1.43,17.28l9.76-7m0-1.43a1.48,1.48,0,0,0-.83.26l-9.76,7a1.42,1.42,0,0,0,0,2.32l2.93,2.08a1.41,1.41,0,0,0,.82.27,1.43,1.43,0,0,0,1.14-.57l6.84-9A1.43,1.43,0,0,0,11.19,8.9Zm0,2.85Z" fill="#e75c78"/>
        </g>
      </g>
    </g>
  </g>
</svg>
