<svg xmlns="http://www.w3.org/2000/svg" width="40.77" height="41.22" viewBox="0 0 40.77 41.22">
  <g style="isolation: isolate">
    <g id="Layer_2" data-name="Layer 2">
      <g id="Layer_4" data-name="Layer 4">
        <g id="rabbit_toy_1" data-name="rabbit_toy 1">
          <g>
            <path d="M34.6,40.51a4.54,4.54,0,0,1-1-.12l-.31-.06L33,40.27l-.31-.06-.31-.06a2.07,2.07,0,0,1-.32-.06L31.7,40,31.38,40l-.31-.06-.32-.06-.2,0a4.91,4.91,0,0,1-3.91-3,9.65,9.65,0,0,1-.83-3.56.76.76,0,0,1,0-.15V21.42H4.37a.7.7,0,0,1-.58-.3.72.72,0,0,1-.09-.65A1.32,1.32,0,0,0,3.78,20V12.21a1.49,1.49,0,0,0,0-.21l.67-.27-.69.16,0-.1a.67.67,0,0,1,0-.67.72.72,0,0,1,.62-.31h7.15v-6a.71.71,0,0,1,.71-.71h9.18a.71.71,0,0,1,.72.71v6h5.46l.81,0c.22,0,.47,0,.69.06l.18,0c.14,0,.29,0,.42.06l.23,0a9.34,9.34,0,0,1,1,.26,8,8,0,0,1,4,3A7.8,7.8,0,0,1,36,16.52a9.58,9.58,0,0,1,.41,2.54c0,.53,0,1.07,0,1.61v5.87A5.2,5.2,0,0,1,39,29.23a10.45,10.45,0,0,1,0,8.21A4.83,4.83,0,0,1,34.6,40.51Z" fill="#ffeb81"/>
            <path d="M21.41,4.81v6.72H27.6c.25,0,.51,0,.76,0a3.08,3.08,0,0,1,.61,0l.59.08a8.83,8.83,0,0,1,1.1.29,7.29,7.29,0,0,1,3.65,2.72,7.16,7.16,0,0,1,1,2,8.24,8.24,0,0,1,.37,2.33c0,.84,0,1.69,0,2.53V27a4.36,4.36,0,0,1,2.7,2.5,9.76,9.76,0,0,1,0,7.6A4.14,4.14,0,0,1,34.6,39.8a3.89,3.89,0,0,1-.86-.1l-.31-.06-.31-.06-.32-.06-.31-.06-.32-.06-.31-.06-.32-.06-.31-.06-.32-.06-.22,0a4.21,4.21,0,0,1-3.4-2.63,9,9,0,0,1-.77-3.4h0V21.52a1,1,0,0,0-.07-.53.55.55,0,0,0-.45-.28H4.37A1.91,1.91,0,0,0,4.49,20V12.21a1.84,1.84,0,0,0,0-.33.22.22,0,0,0,0-.08s0-.05,0-.07a.75.75,0,0,0,0-.16s0,0,0,0h7.86V4.81h9.18m0-1.43H12.23A1.43,1.43,0,0,0,10.8,4.81V10.1H4.37a1.43,1.43,0,0,0-1.21.68,1.39,1.39,0,0,0-.11,1.27h0v0h0V20a.54.54,0,0,1,0,.19,1.44,1.44,0,0,0,1.34,1.92H25.09V33.08a1,1,0,0,0,0,.24A10.09,10.09,0,0,0,26,37.09a5.62,5.62,0,0,0,4.46,3.43l.18,0,.32.06.32.06.31.06.31.06.32.06.31.06.32.06.31.06.32.06a5.33,5.33,0,0,0,1.12.12,5.59,5.59,0,0,0,5.08-3.48,11.23,11.23,0,0,0,0-8.81,6,6,0,0,0-2.56-2.83V20.67c0-.55,0-1.1,0-1.64a10.12,10.12,0,0,0-.43-2.69,8.61,8.61,0,0,0-1.21-2.49,8.74,8.74,0,0,0-4.36-3.24,10,10,0,0,0-1-.28l-.19,0h-.05l-.48-.07-.17,0a5.37,5.37,0,0,0-.76-.07c-.25,0-.54,0-.82,0H22.84V4.81a1.43,1.43,0,0,0-1.43-1.43Z" fill="#ffaa5a"/>
          </g>
          <g>
            <path d="M26.51,23.09V34.14c0,1.3,1.06,4.34,2.37,4.34h0V23.09Z" fill="#ffaa5a" opacity="0.15" style="mix-blend-mode: multiply"/>
            <path d="M32.71,26.59v3a.8.8,0,0,0,1.58,0v-3a.8.8,0,0,0-1.58,0Z" fill="#fff" opacity="0.3" style="mix-blend-mode: screen"/>
          </g>
          <g>
            <path d="M2.92,20.71H26a.55.55,0,0,1,.45.28,1,1,0,0,1,.07.53v1.57h2.37v-2.2c0-.28,0-.57,0-.85a1.73,1.73,0,0,0-.23-.81,1.76,1.76,0,0,0-1.39-.88c-.57,0-1.13,0-1.7,0H2.92Z" fill="#ffaa5a" opacity="0.15" style="mix-blend-mode: multiply"/>
            <path d="M22.9,14.51h2.81c.82,0,1.65,0,2.45,0a10.81,10.81,0,0,1,1.16.14,4.79,4.79,0,0,1,1.09.41,4.25,4.25,0,0,1,1.67,1.64,4.35,4.35,0,0,1,.43,1.08A7.36,7.36,0,0,1,32.66,19a.68.68,0,0,0,.84.66h0a1.19,1.19,0,0,0,.71-1.27A8.39,8.39,0,0,0,33.92,17a5.48,5.48,0,0,0-.57-1.26,5.8,5.8,0,0,0-2-1.95,5.87,5.87,0,0,0-1.26-.55A8.27,8.27,0,0,0,28.75,13a29.17,29.17,0,0,0-3-.07H22.9a.8.8,0,0,0,0,1.58Z" fill="#fff" opacity="0.3" style="mix-blend-mode: screen"/>
          </g>
          <g>
            <g>
              <path d="M23.52,22.54A2.41,2.41,0,0,1,21.23,20V12.21a2.3,2.3,0,1,1,4.57,0V20A2.41,2.41,0,0,1,23.52,22.54Z" fill="#ffaa5a"/>
              <path d="M23.52,10.41a1.7,1.7,0,0,1,1.57,1.8V20a1.69,1.69,0,0,1-1.57,1.79A1.69,1.69,0,0,1,22,20V12.21a1.7,1.7,0,0,1,1.57-1.8m0-1.42a3.11,3.11,0,0,0-3,3.22V20a3,3,0,1,0,6,0V12.21a3.11,3.11,0,0,0-3-3.22Z" fill="#e57225"/>
            </g>
            <path d="M22.32,11v7.39a1.5,1.5,0,0,0,0,.2,1.19,1.19,0,0,0,2.36,0c0-.07,0-.14,0-.2V11a2,2,0,0,1,.38,1.17V20a1.69,1.69,0,0,1-1.57,1.79A1.69,1.69,0,0,1,22,20V12.21A2,2,0,0,1,22.32,11Z" fill="#ffaa5a" opacity="0.15" style="mix-blend-mode: multiply"/>
          </g>
          <g>
            <g>
              <path d="M12.93,5.28A2.4,2.4,0,0,1,10.43,3,2.41,2.41,0,0,1,12.93.71h7.83A2.41,2.41,0,0,1,23.27,3a2.41,2.41,0,0,1-2.51,2.28Z" fill="#ffaa5a"/>
              <path d="M20.76,1.43A1.69,1.69,0,0,1,22.55,3a1.69,1.69,0,0,1-1.79,1.57H12.93A1.7,1.7,0,0,1,11.14,3a1.69,1.69,0,0,1,1.79-1.57h7.83m0-1.43H12.93A3.12,3.12,0,0,0,9.72,3a3.12,3.12,0,0,0,3.21,3h7.83A3.12,3.12,0,0,0,24,3a3.12,3.12,0,0,0-3.22-3Z" fill="#e57225"/>
            </g>
            <path d="M21.92,1.81H14.34a1.19,1.19,0,0,0,0,2.36h7.58a1.9,1.9,0,0,1-1.16.38H12.93A1.7,1.7,0,0,1,11.14,3a1.69,1.69,0,0,1,1.79-1.57h7.83A1.9,1.9,0,0,1,21.92,1.81Z" fill="#ffaa5a" opacity="0.15" style="mix-blend-mode: multiply"/>
          </g>
          <g>
            <path d="M4.91,21.34c-1.74,0-3-2.15-3-5.22s1.22-5.22,3-5.22,3,2.14,3,5.22S6.65,21.34,4.91,21.34Z" fill="#fcd54d"/>
            <path d="M4.91,12.13c1,0,1.72,1.79,1.72,4s-.77,4-1.72,4-1.72-1.79-1.72-4,.77-4,1.72-4m0-2.47a3.82,3.82,0,0,0-3.49,2.66,9.9,9.9,0,0,0-.71,3.8,10,10,0,0,0,.71,3.8,3.82,3.82,0,0,0,3.49,2.66A3.82,3.82,0,0,0,8.4,19.92a10,10,0,0,0,.71-3.8,9.9,9.9,0,0,0-.71-3.8A3.82,3.82,0,0,0,4.91,9.66Z" fill="#ffaa5a" stroke="#e57225" stroke-linecap="round" stroke-linejoin="round" stroke-width="1.43"/>
          </g>
          <g>
            <path d="M35.24,38.89c-2,0-3.39-2.27-3.39-5.52s1.4-5.53,3.39-5.53,3.4,2.27,3.4,5.53S37.24,38.89,35.24,38.89Z" fill="#fcd54d"/>
            <path d="M35.25,29.15c1.09,0,2,1.89,2,4.22s-.88,4.21-2,4.21-2-1.88-2-4.21.88-4.22,2-4.22m0-2.61a4.38,4.38,0,0,0-4,2.81,10.38,10.38,0,0,0,0,8,4.26,4.26,0,0,0,8,0,10.38,10.38,0,0,0,0-8,4.37,4.37,0,0,0-4-2.81Z" fill="#ffaa5a" stroke="#e57225" stroke-linecap="round" stroke-linejoin="round" stroke-width="1.43"/>
          </g>
        </g>
      </g>
    </g>
  </g>
</svg>
