<svg xmlns="http://www.w3.org/2000/svg" xmlns:xlink="http://www.w3.org/1999/xlink" width="41.04" height="28.86" viewBox="0 0 41.04 28.86">
  <defs>
    <clipPath id="clip-path">
      <path d="M39.55,18.3a4.71,4.71,0,0,0-1-1.86c-1.74-2-2.35-4.23-3.81-6.65A17.46,17.46,0,0,0,29,3.52,14.55,14.55,0,0,0,18.73,1.68a15.34,15.34,0,0,0-3.81,1.21l-.48.23A20.5,20.5,0,0,0,8.75,7.49c-1.78,1.92-2.53,3.95-4,6.43a31.69,31.69,0,0,1-3.33,4.86H39.52a.65.65,0,0,0,.06-.21A.63.63,0,0,0,39.55,18.3Z" fill="none"/>
    </clipPath>
    <clipPath id="clip-path-2">
      <path d="M21.09,5.64c-6.61,0-12.16,5.64-13.73,13.27H34.81C33.24,11.28,27.69,5.64,21.09,5.64Z" fill="none"/>
    </clipPath>
  </defs>
  <g style="isolation: isolate">
    <g id="Layer_2" data-name="Layer 2">
      <g id="Layer_4" data-name="Layer 4">
        <g id="rabbit_toy_4" data-name="rabbit_toy 4">
          <g>
            <path d="M20.52,28.14C9.41,28.14.71,24.27.71,19.31a3.55,3.55,0,0,1,0-.46.72.72,0,0,1,.71-.65H39.59a.72.72,0,0,1,.71.65,3.55,3.55,0,0,1,0,.46C40.33,24.27,31.63,28.14,20.52,28.14Z" fill="#af7553"/>
            <path d="M39.59,18.92a2.55,2.55,0,0,1,0,.39c0,4.49-8.54,8.12-19.09,8.12S1.43,23.8,1.43,19.31c0-.13,0-.26,0-.39H39.59m0-1.43H1.45A1.43,1.43,0,0,0,0,18.77a4.89,4.89,0,0,0,0,.54c0,5.45,8.82,9.55,20.52,9.55S41,24.76,41,19.31a4.89,4.89,0,0,0,0-.54,1.42,1.42,0,0,0-1.42-1.28Z" fill="#924f28"/>
          </g>
          <g>
            <g clip-path="url(#clip-path)">
              <g>
                <path d="M40.19,18.3A4.25,4.25,0,0,0,39,16.35c-2-1.44-2.78-4.14-4.24-6.56A17.46,17.46,0,0,0,29,3.52,14.55,14.55,0,0,0,18.73,1.68a15.34,15.34,0,0,0-3.81,1.21l-.48.23A20.5,20.5,0,0,0,8.75,7.49C7,9.41,5.89,11.85,4.2,13.92,3.28,15,1,18,.16,18.78h40a.48.48,0,0,0,.07-.21A.63.63,0,0,0,40.19,18.3Z" fill="#96b85c"/>
                <path d="M40.22,18.57a.48.48,0,0,1-.07.21H.16C1.05,18,3.3,15,4.23,13.88c-.7,1.35-1.71,3,.06.82-.81,1.46-.2.78.47-.08-.3.67-1.26,1.73.13.86.71-.78,1.24-1.73,1.9-2.58C10,7,15.53,2.71,22.29,3.23c.68.07.16-.56-.1-.71.64.06,1.83.81.39-.26.38,0,1.19.56.49-.08,1.94.76,1.08-.6-.13-.68,9.06.58,12.57,9.11,16,14.85C39.23,16.78,40.15,17.69,40.22,18.57Z" fill="#96b85c" opacity="0.61" style="mix-blend-mode: multiply"/>
                <path d="M37.47,15.71c-.16-.15-.34-.61-.55-.82a2.77,2.77,0,0,1,.27.95c-.21-.36-.44-.73-.76-.82.67,1.42.8,1-.42.52,2.75,1.94-.59.51-1.72,1.07-.46.29.8.54.88.79a30.53,30.53,0,0,0-6.06,1.26c3.44.46,8.49,0,11.1.11a.4.4,0,0,0,.1-.12c-.5-2.36-2.23-2.76-3.34-4.64A8.85,8.85,0,0,0,37.47,15.71Z" fill="#96b85c" opacity="0.61" style="mix-blend-mode: multiply"/>
              </g>
            </g>
            <path d="M21.47,1.43A14.44,14.44,0,0,1,29,3.52a17.46,17.46,0,0,1,5.75,6.27c1.46,2.42,2.07,4.61,3.81,6.65a4.71,4.71,0,0,1,1,1.86.63.63,0,0,1,0,.27.65.65,0,0,1-.06.21H1.44a31.69,31.69,0,0,0,3.33-4.86c1.45-2.48,2.2-4.51,4-6.43a20.5,20.5,0,0,1,5.69-4.37l.48-.23a15.34,15.34,0,0,1,3.81-1.21,14.78,14.78,0,0,1,2.74-.25m0-1.43a16.9,16.9,0,0,0-3,.27,17.44,17.44,0,0,0-4.15,1.32l-.52.25A21.61,21.61,0,0,0,7.71,6.52a20.12,20.12,0,0,0-3,4.62c-.35.66-.71,1.35-1.13,2.06A30.33,30.33,0,0,1,.46,17.74,1.44,1.44,0,0,0,.11,19.3a1.42,1.42,0,0,0,1.33.9H39.52a1.44,1.44,0,0,0,1.27-.78,1.93,1.93,0,0,0,.2-.67,2,2,0,0,0-.08-.88,6.18,6.18,0,0,0-1.28-2.35,16.44,16.44,0,0,1-2.22-3.71C37,10.93,36.54,10,36,9.05a19,19,0,0,0-6.25-6.76A15.78,15.78,0,0,0,21.47,0Z" fill="#507125"/>
          </g>
          <g clip-path="url(#clip-path-2)">
            <g>
              <rect x="7.65" y="6.5" width="27.32" height="12.65" fill="#fedae8"/>
              <g style="mix-blend-mode: multiply">
                <path d="M20.57,6.5h0Z" fill="#d8c3cb"/>
                <path d="M32,19.32H8.39l0-.07H31.94Z" fill="#d8c3cb"/>
                <path d="M7.65,6.5H20.59c-5.48.25-10,5.58-11.37,12.75H7.65Z" fill="#d8c3cb"/>
                <path d="M35,6.5V19.25h-3C30.61,12.08,26.05,6.75,20.57,6.5Z" fill="#d8c3cb"/>
              </g>
            </g>
            <g>
              <g>
                <rect x="5.92" y="16.94" width="30.29" height="2.25" rx="0.24" fill="#d8a960"/>
                <path d="M36,17.18V19H6.16V17.18H36m0-.48H6.16a.47.47,0,0,0-.48.48V19a.47.47,0,0,0,.48.47H36a.47.47,0,0,0,.47-.47V17.18A.47.47,0,0,0,36,16.7Z" fill="#924f28"/>
              </g>
              <g opacity="0.3" style="mix-blend-mode: multiply">
                <path d="M36,17.18V19a12.74,12.74,0,0,0-6.11-1.54H12.4a12.91,12.91,0,0,0-5.09,1L6.16,19V17.18Z" fill="#75411a"/>
              </g>
            </g>
          </g>
          <g>
            <g>
              <path d="M33.72,17.43a1.12,1.12,0,0,1-.65-1.26,1,1,0,0,1,1-.73.86.86,0,0,1,.22,0,1.14,1.14,0,0,1,.56,1.28,1,1,0,0,1-1,.69Z" fill="#babcbe"/>
              <path d="M34.06,15.56h.2a.92.92,0,0,1-.45,1.75h-.08a.91.91,0,0,1,.33-1.75m0-.24a1.08,1.08,0,0,0-1.1.82,1.23,1.23,0,0,0,.66,1.38l.05,0h.14A1.14,1.14,0,0,0,35,16.77a1.25,1.25,0,0,0-.56-1.39l0,0H34.3l-.24,0Z" fill="#8d8d8d"/>
            </g>
            <g>
              <path d="M34.71,19.35a1.65,1.65,0,0,1-1.2-.6,1,1,0,0,1,.11-1,1.12,1.12,0,0,1,.87-.43.91.91,0,0,1,.67.28,1.16,1.16,0,0,1,.25.85.84.84,0,0,1-.17.67.69.69,0,0,1-.53.21Z" fill="#babcbe"/>
              <path d="M34.49,17.46a.82.82,0,0,1,.8,1c.06.57-.23.78-.58.78a1.54,1.54,0,0,1-1.11-.57.91.91,0,0,1,.89-1.21m0-.24a1.21,1.21,0,0,0-1,.48,1.14,1.14,0,0,0-.16,1l0,0,0,0a1.75,1.75,0,0,0,1.3.65.8.8,0,0,0,.62-.25,1,1,0,0,0,.2-.78,1.16,1.16,0,0,0-.29-.9,1,1,0,0,0-.75-.32Z" fill="#8d8d8d"/>
            </g>
            <g>
              <path d="M32.4,13.83a1.09,1.09,0,0,1-1-.69.77.77,0,0,1,.23-.9.77.77,0,0,1,.66-.35,1.11,1.11,0,0,1,1,.68.72.72,0,0,1-.17.82A.84.84,0,0,1,32.4,13.83Z" fill="#babcbe"/>
              <path d="M32.33,12c.61,0,1.22.8.71,1.29a.75.75,0,0,1-.64.41c-.63,0-1.26-.85-.66-1.38a.72.72,0,0,1,.59-.32m0-.24a.93.93,0,0,0-.76.4.9.9,0,0,0-.24,1A1.21,1.21,0,0,0,32.4,14a1,1,0,0,0,.82-.5.84.84,0,0,0,.18-.93,1.23,1.23,0,0,0-1.07-.75Z" fill="#8d8d8d"/>
            </g>
            <g>
              <path d="M30.22,10.65a1.09,1.09,0,0,1-.87-.45.82.82,0,0,1-.09-.8.88.88,0,0,1,.87-.64,1.06,1.06,0,0,1,.91.49.78.78,0,0,1,0,.77.85.85,0,0,1-.83.63Z" fill="#babcbe"/>
              <path d="M30.13,8.87c.55,0,1.12.51.81,1.09a.74.74,0,0,1-.72.58.85.85,0,0,1-.85-1.1.79.79,0,0,1,.76-.57m0-.23a1,1,0,0,0-1,.72,1,1,0,0,0,.11.9,1.23,1.23,0,0,0,1,.51,1,1,0,0,0,1-.74.82.82,0,0,0,0-.84,1.19,1.19,0,0,0-1-.55Z" fill="#8d8d8d"/>
            </g>
            <g>
              <path d="M31.32,12.19a.92.92,0,0,1-.86-.67A1.06,1.06,0,0,1,31,10.3a.48.48,0,0,1,.29-.09,1.23,1.23,0,0,1,1,.81.62.62,0,0,1-.12.73,1.13,1.13,0,0,1-.85.44Z" fill="#babcbe"/>
              <path d="M31.3,10.33c.55,0,1.24.94.8,1.33a1,1,0,0,1-.78.41c-.73,0-1.2-1.06-.25-1.67a.39.39,0,0,1,.23-.07m0-.24a.66.66,0,0,0-.36.11,1.2,1.2,0,0,0-.6,1.35,1,1,0,0,0,1,.76,1.23,1.23,0,0,0,1-.49.73.73,0,0,0,.14-.84,1.39,1.39,0,0,0-1.11-.89Z" fill="#8d8d8d"/>
            </g>
            <g>
              <path d="M33.25,15.57a.92.92,0,0,1-.87-.68,1.09,1.09,0,0,1,.55-1.22.6.6,0,0,1,.29-.08,1.24,1.24,0,0,1,1,.81.64.64,0,0,1-.12.73,1.14,1.14,0,0,1-.85.44Z" fill="#babcbe"/>
              <path d="M33.22,13.71c.56,0,1.24.93.8,1.33a1.06,1.06,0,0,1-.77.41A.87.87,0,0,1,33,13.77a.46.46,0,0,1,.23-.06m0-.24a.6.6,0,0,0-.35.1,1.22,1.22,0,0,0-.61,1.36,1.07,1.07,0,0,0,1,.76,1.29,1.29,0,0,0,1-.49.75.75,0,0,0,.13-.84,1.37,1.37,0,0,0-1.11-.89Z" fill="#8d8d8d"/>
            </g>
            <g>
              <path d="M28.73,9.33a1,1,0,0,1-.81-.39,1,1,0,0,1-.15-.88,1.07,1.07,0,0,1,1-.73,1,1,0,0,1,.83.4.84.84,0,0,1,.05.83,1,1,0,0,1-.95.77Z" fill="#babcbe"/>
              <path d="M28.8,7.45a.75.75,0,0,1,.77,1.07.87.87,0,1,1-1.69-.43,1,1,0,0,1,.92-.64m0-.24A1.17,1.17,0,0,0,27.66,8a1.1,1.1,0,0,0,.17,1,1.14,1.14,0,0,0,.9.44,1.12,1.12,0,0,0,1.07-.87.94.94,0,0,0-.07-.91,1.13,1.13,0,0,0-.93-.46Z" fill="#8d8d8d"/>
            </g>
            <g>
              <path d="M25.36,7.71a1.4,1.4,0,0,1-.85-.34,1,1,0,0,1,0-1,1.12,1.12,0,0,1,.91-.51.84.84,0,0,1,.82.63,1.3,1.3,0,0,1-.28,1,.88.88,0,0,1-.65.27Z" fill="#babcbe"/>
              <path d="M25.47,5.93a.73.73,0,0,1,.71.55c0,.7-.33,1.11-.82,1.11a1.25,1.25,0,0,1-.77-.31,1,1,0,0,1,.88-1.35m0-.24a1.24,1.24,0,0,0-1,.56,1.17,1.17,0,0,0-.09,1.12l0,0,.05,0a1.46,1.46,0,0,0,.92.37,1,1,0,0,0,.74-.31,1.38,1.38,0,0,0,.31-1V6.41a1,1,0,0,0-.93-.72Z" fill="#8d8d8d"/>
            </g>
            <g>
              <path d="M27.14,8.38a.93.93,0,0,1-.83-.61,1.31,1.31,0,0,1,.37-1.43.55.55,0,0,1,.21,0,1.57,1.57,0,0,1,1.23.57.72.72,0,0,1,0,.71c-.34.7-.77.8-1,.8Z" fill="#babcbe"/>
              <path d="M26.89,6.42c.59,0,1.48.43,1.14,1.11-.25.53-.59.73-.89.73-.67,0-1.2-1-.37-1.84h.12m0-.24h-.23l-.06.06a1.42,1.42,0,0,0-.4,1.56,1,1,0,0,0,.94.69c.26,0,.74-.11,1.11-.86a.84.84,0,0,0,0-.83,1.67,1.67,0,0,0-1.33-.63Z" fill="#8d8d8d"/>
            </g>
            <g>
              <path d="M23.48,7.24a1.22,1.22,0,0,1-.65-.19,1.26,1.26,0,0,1,0-1.27.92.92,0,0,1,.8-.44,1.31,1.31,0,0,1,.8.3,1.21,1.21,0,0,1-.09,1.18,1,1,0,0,1-.82.42Z" fill="#babcbe"/>
              <path d="M23.59,5.46a1.23,1.23,0,0,1,.73.27,1,1,0,0,1-.84,1.39A1.13,1.13,0,0,1,22.89,7c-.38-.78.05-1.49.7-1.49m0-.24a1.06,1.06,0,0,0-.91.5,1.37,1.37,0,0,0,0,1.33l0,.07.06,0a1.36,1.36,0,0,0,.71.21,1.12,1.12,0,0,0,.92-.47,1.35,1.35,0,0,0,.14-1.23l0-.07-.06,0a1.41,1.41,0,0,0-.87-.33Z" fill="#8d8d8d"/>
            </g>
            <g>
              <path d="M18.06,7.45A.78.78,0,0,1,17.34,7a1,1,0,0,1,0-1,1.17,1.17,0,0,1,.93-.57A.72.72,0,0,1,19,6a.91.91,0,0,1,0,.93,1.12,1.12,0,0,1-.93.54Z" fill="#babcbe"/>
              <path d="M18.3,5.59a.57.57,0,0,1,.56.43.89.89,0,0,1-.8,1.31.65.65,0,0,1-.61-.39,1,1,0,0,1,.85-1.35m0-.23a1.24,1.24,0,0,0-1,.61,1,1,0,0,0,0,1.08.89.89,0,0,0,.82.52,1.23,1.23,0,0,0,1-.6,1.05,1.05,0,0,0,0-1.07.78.78,0,0,0-.77-.54Z" fill="#8d8d8d"/>
            </g>
            <g>
              <path d="M21.66,7.1a1,1,0,0,1-.83-.44,1.05,1.05,0,0,1,.06-1.07A1.17,1.17,0,0,1,21.84,5a.77.77,0,0,1,.75.72,1,1,0,0,1-.1.95,1,1,0,0,1-.83.42Z" fill="#babcbe"/>
              <path d="M21.83,5.13c.29,0,.55.18.65.62A.88.88,0,0,1,21.66,7a.89.89,0,0,1-.73-.39,1.05,1.05,0,0,1,.9-1.46m0-.24a1.31,1.31,0,0,0-1,.63,1.21,1.21,0,0,0-.08,1.18,1.12,1.12,0,0,0,2-1,.89.89,0,0,0-.87-.78Z" fill="#8d8d8d"/>
            </g>
            <g>
              <path d="M19.93,7.09a.87.87,0,0,1-.63-.27,1.19,1.19,0,0,1-.25-.94.53.53,0,0,1,.09-.48A1.1,1.1,0,0,1,20,5a1,1,0,0,1,.74.27.57.57,0,0,1,.17.45,1.26,1.26,0,0,1-.26,1,1,1,0,0,1-.74.34Z" fill="#babcbe"/>
              <path d="M20,5.16c.41,0,.81.19.79.59A1,1,0,0,1,19.93,7c-.42,0-.83-.34-.76-1.08-.14-.47.36-.73.85-.73m0-.23a1.23,1.23,0,0,0-1,.4.7.7,0,0,0-.11.58,1.27,1.27,0,0,0,.29,1,.94.94,0,0,0,.71.31,1.11,1.11,0,0,0,.83-.39,1.37,1.37,0,0,0,.29-1.1.68.68,0,0,0-.2-.5A1.16,1.16,0,0,0,20,4.93Z" fill="#8d8d8d"/>
            </g>
            <g>
              <path d="M16.3,8.07a.76.76,0,0,1-.71-.64.56.56,0,0,1-.16-.66,1.3,1.3,0,0,1,1.1-.72.59.59,0,0,1,.59.4,1,1,0,0,1,.06,1,1.05,1.05,0,0,1-.88.59Z" fill="#babcbe"/>
              <path d="M16.53,6.17a.48.48,0,0,1,.48.32A.94.94,0,0,1,16.3,8c-.25,0-.48-.16-.6-.55-.57-.52.24-1.23.83-1.23m0-.24a1.41,1.41,0,0,0-1.21.8.73.73,0,0,0,.17.8.85.85,0,0,0,.81.66,1.15,1.15,0,0,0,1-.65,1.1,1.1,0,0,0-.06-1.16.71.71,0,0,0-.69-.45Z" fill="#8d8d8d"/>
            </g>
            <g>
              <path d="M14.4,9a1.13,1.13,0,0,1-.56-1.34,1,1,0,0,1,.85-.82.91.91,0,0,1,.64.33,1.05,1.05,0,0,1,.3,1.17A1.11,1.11,0,0,1,14.56,9Z" fill="#babcbe"/>
              <path d="M14.69,7a.83.83,0,0,1,.56.29.93.93,0,0,1-.69,1.64h-.14C13.51,8.39,14,7,14.69,7m0-.24a1.09,1.09,0,0,0-1,.92,1.26,1.26,0,0,0,.58,1.45l0,0h.22a1.24,1.24,0,0,0,1.18-.74,1.18,1.18,0,0,0-.33-1.31,1,1,0,0,0-.72-.36Z" fill="#8d8d8d"/>
            </g>
            <g>
              <path d="M11.8,11.19a.57.57,0,0,1-.37-.14A1,1,0,0,1,11,9.91a1,1,0,0,1,.85-.8.78.78,0,0,1,.66.44.61.61,0,0,1,.29.74,1.18,1.18,0,0,1-1,.9Z" fill="#babcbe"/>
              <path d="M11.82,9.23a.67.67,0,0,1,.56.39c.7.36,0,1.45-.58,1.45a.43.43,0,0,1-.3-.11,1,1,0,0,1,.32-1.73m0-.24a1.09,1.09,0,0,0-1,.89,1.1,1.1,0,0,0,.53,1.29.63.63,0,0,0,.41.14,1.27,1.27,0,0,0,1.08-1,.76.76,0,0,0-.33-.88A.87.87,0,0,0,11.82,9Z" fill="#8d8d8d"/>
            </g>
            <g>
              <path d="M13.31,9.9a1.28,1.28,0,0,1-1.22-1.08,1.36,1.36,0,0,1,1.18-1c.46,0,.77.35.82.95a1,1,0,0,1-.16.84.78.78,0,0,1-.62.27Z" fill="#babcbe"/>
              <path d="M13.27,8c.35,0,.65.25.71.84s-.24,1-.67,1a1.15,1.15,0,0,1-1.1-1A1.24,1.24,0,0,1,13.27,8m0-.24a1.49,1.49,0,0,0-1.28,1l0,0v.07A1.39,1.39,0,0,0,13.31,10,.91.91,0,0,0,14,9.71a1.12,1.12,0,0,0,.19-1c-.07-.76-.53-1-.94-1Z" fill="#8d8d8d"/>
            </g>
            <g>
              <path d="M10.46,12.43a1.06,1.06,0,0,1-.85-.49.8.8,0,0,1,0-.85,1.16,1.16,0,0,1,.89-.71.53.53,0,0,1,.44.24,1,1,0,0,1,.37,1.18.91.91,0,0,1-.85.63Z" fill="#babcbe"/>
              <path d="M10.5,10.5a.4.4,0,0,1,.34.19.88.88,0,0,1-.38,1.62,1,1,0,0,1-.75-.44c-.34-.42.27-1.37.79-1.37m0-.24a1.25,1.25,0,0,0-1,.78.9.9,0,0,0,0,1,1.18,1.18,0,0,0,.94.53,1.06,1.06,0,0,0,1-.71A1.19,1.19,0,0,0,11,10.52a.65.65,0,0,0-.52-.26Z" fill="#8d8d8d"/>
            </g>
            <g>
              <path d="M7.4,19.28H7.22c-.44,0-.74-.66-.71-1.19s.24-.69.58-.69h.24a1,1,0,0,1,.93.51.93.93,0,0,1,0,.94,1,1,0,0,1-.88.45Z" fill="#babcbe"/>
              <path d="M7.33,17.5a.83.83,0,1,1,.07,1.66H7.24c-.65,0-.91-1.64-.15-1.64h.24m0-.24v0H7.09c-.41,0-.68.32-.7.81s.3,1.26.83,1.31H7.4a1,1,0,0,0,1.12-1,1.13,1.13,0,0,0-1.19-1.12Z" fill="#8d8d8d"/>
            </g>
            <g>
              <path d="M9.39,14.07a.94.94,0,0,1-.81-.55,1.06,1.06,0,0,1,.09-1,.93.93,0,0,1,.76-.43,1,1,0,0,1,.79.44,1.06,1.06,0,0,1,0,1.06,1,1,0,0,1-.8.49Z" fill="#babcbe"/>
              <path d="M9.43,12.2a.89.89,0,0,1,.7.39A.93.93,0,0,1,9.39,14a.81.81,0,0,1-.7-.49.89.89,0,0,1,.74-1.26m0-.24a1.05,1.05,0,0,0-.86.48,1.18,1.18,0,0,0-.11,1.11,1.07,1.07,0,0,0,.93.64,1.1,1.1,0,0,0,.9-.54,1.19,1.19,0,0,0,.05-1.17A1.14,1.14,0,0,0,9.43,12Z" fill="#8d8d8d"/>
            </g>
            <g>
              <path d="M8.35,15.7a1,1,0,0,1-.82-.44,1.36,1.36,0,0,1,.21-1.2.84.84,0,0,1,.65-.35,1,1,0,0,1,.8.52,1,1,0,0,1-.84,1.47Z" fill="#babcbe"/>
              <path d="M8.39,13.83a.86.86,0,0,1,.7.47.85.85,0,0,1-.74,1.28.87.87,0,0,1-.72-.39c-.18-.67.25-1.36.76-1.36m0-.24a1,1,0,0,0-.75.4,1.47,1.47,0,0,0-.24,1.26v.05l0,0A1.09,1.09,0,0,0,9.3,14.19a1.1,1.1,0,0,0-.91-.6Z" fill="#8d8d8d"/>
            </g>
            <g>
              <path d="M7.51,17.58a1,1,0,0,1-.78-.42,1.35,1.35,0,0,1,.13-1.23.87.87,0,0,1,.72-.38,1.05,1.05,0,0,1,.61.2.8.8,0,0,1,.45.93,1.24,1.24,0,0,1-1.13.9Z" fill="#babcbe"/>
              <path d="M7.58,15.66a1,1,0,0,1,.54.19c.91.48.18,1.61-.61,1.61a.88.88,0,0,1-.69-.37c-.23-.68.15-1.43.76-1.43m0-.23a1,1,0,0,0-.81.43,1.44,1.44,0,0,0-.17,1.31v0l0,0a1.09,1.09,0,0,0,.88.46,1.37,1.37,0,0,0,1.24-1,.92.92,0,0,0-.51-1.07,1.2,1.2,0,0,0-.66-.21Z" fill="#8d8d8d"/>
            </g>
          </g>
        </g>
      </g>
    </g>
  </g>
</svg>
