<svg xmlns="http://www.w3.org/2000/svg" width="85.5" height="85.6" viewBox="0 0 85.5 85.6"><g id="Layer_2" data-name="Layer 2"><g id="Layer_5" data-name="Layer 5"><g id="owl_clean_4" data-name="owl_clean 4"><path d="M13,3a8.7,8.7,0,0,1,6.1,2.6L80,66.4a8.7,8.7,0,0,1,0,12.3c-.2.3-.5.4-.7.6l-.6.7a8.6,8.6,0,0,1-12.3,0L5.5,19.1A8.7,8.7,0,0,1,5.6,6.8a1.8,1.8,0,0,1,.7-.5,3.5,3.5,0,0,1,.5-.8A8.8,8.8,0,0,1,13,3m0-3A11.7,11.7,0,0,0,4.7,3.4l-.6.7-.7.6a11.8,11.8,0,0,0,0,16.6L64.3,82.1a11.5,11.5,0,0,0,16.5,0,1.9,1.9,0,0,0,.6-.7l.7-.5a11.7,11.7,0,0,0,0-16.6L21.3,3.4A11.7,11.7,0,0,0,13,0Z" style="fill:#8d8d8d"/><path d="M78.7,80a8.7,8.7,0,0,1-12.3,0L5.5,19.1A8.7,8.7,0,0,1,17.9,6.8L78.7,67.7A8.7,8.7,0,0,1,78.7,80Z" style="fill:#8e989b"/><path d="M80,78.7a8.7,8.7,0,0,1-12.3,0L6.8,17.9a8.8,8.8,0,0,1,0-12.4,8.7,8.7,0,0,1,12.3.1L80,66.4A8.7,8.7,0,0,1,80,78.7Z" style="fill:#c3cdd1"/><path d="M72.3,83.9a10,10,0,0,1-7-2.8L34.9,50.6a1.4,1.4,0,0,1,0-2.1L48.5,34.9a1.5,1.5,0,0,1,1.1-.4h0a1.2,1.2,0,0,1,1,.4L81.1,65.4a9.9,9.9,0,0,1,2.8,7.4A12,12,0,0,1,72.3,83.9Z" style="fill:#ffeb81"/><path d="M49.6,36,80,66.4c3.4,3.4,3.1,9.2-.6,13a10.1,10.1,0,0,1-7.1,3A8.2,8.2,0,0,1,66.4,80L36,49.6,49.6,36m0-3a2.7,2.7,0,0,0-2.1.9L33.9,47.5a2.7,2.7,0,0,0-.9,2.1,2.9,2.9,0,0,0,.9,2.1L64.3,82.1a11.2,11.2,0,0,0,8,3.3,13,13,0,0,0,9.2-3.9c4.9-4.9,5.2-12.6.6-17.2L51.7,33.9a3,3,0,0,0-2.1-.9Z" style="fill:#ffaa5a"/><path d="M59.6,66.3a6.8,6.8,0,0,1-3.8-1.5,12.9,12.9,0,0,1-3.4-3.9c-1.2-.8-5.3-3.5-5.5-6.8A4.2,4.2,0,0,1,48.5,50a8.9,8.9,0,0,1,3-1.4l1.1-.3c.3-.6,1-1.8,2.1-1.8h.1a.9.9,0,0,1,.8.4,3.6,3.6,0,0,1,.6,1.7,18,18,0,0,1,8.4,8.1,2.8,2.8,0,0,1,1.5.5,1.1,1.1,0,0,1,.5.9,3.4,3.4,0,0,1-1.5,2.2,3.9,3.9,0,0,0-.6,1.3C64,62.9,62.7,66.3,59.6,66.3Z" style="fill:#baa2ee"/><path d="M54.8,47.5a2,2,0,0,1,.3,1.6l.6.4A16.6,16.6,0,0,1,64,57.8h.4a3.1,3.1,0,0,1,1.2.3c-.1.7-1.2,1.6-1.2,1.6a7.7,7.7,0,0,0-.9,1.7c-.6,1.7-1.7,4-3.9,4A5.4,5.4,0,0,1,56.4,64a11.2,11.2,0,0,1-3.2-3.8S48,57.3,47.9,54a3.4,3.4,0,0,1,1.2-3.2c1.7-1.3,3.7-1.1,4.3-1.9s.7-1.4,1.4-1.4m0-2h-.1a3.8,3.8,0,0,0-2.8,2l-.7.2a8.5,8.5,0,0,0-3.3,1.5,5.3,5.3,0,0,0-2,5c.3,3.6,4.2,6.4,5.7,7.4a14.7,14.7,0,0,0,3.7,4,6.8,6.8,0,0,0,4.3,1.7c3.8,0,5.3-4,5.8-5.4a3.1,3.1,0,0,1,.5-.9,4.6,4.6,0,0,0,1.7-2.8,1.8,1.8,0,0,0-1-1.8,2.3,2.3,0,0,0-1.4-.6,17.9,17.9,0,0,0-8.1-7.9,4.2,4.2,0,0,0-.7-1.5,1.8,1.8,0,0,0-1.6-.9Z" style="fill:#7850b3"/><circle cx="59.9" cy="59.7" r="2.4" transform="matrix(0.81, -0.58, 0.58, 0.81, -23.6, 46.33)" style="fill:#7850b3"/><circle cx="53.3" cy="53.1" r="2.4" style="fill:#7850b3"/><path d="M56.5,58.9a1.7,1.7,0,0,0-2.4-2.4l-.4,2.7Z" style="fill:#7850b3"/></g></g></g></svg>