<svg xmlns="http://www.w3.org/2000/svg" width="84.4" height="85.8" viewBox="0 0 84.4 85.8"><g style="isolation:isolate"><g id="Layer_2" data-name="Layer 2"><g id="Layer_5" data-name="Layer 5"><g id="owl_clean_2" data-name="owl_clean 2"><path d="M70.2,69.7l-.9-.3-9.7-6.8a1.5,1.5,0,0,1-.6-1,1.4,1.4,0,0,1,.2-1.1l11.3-16a1,1,0,0,1,.9-.6h.3a1.6,1.6,0,0,1,.9.3l9.7,6.8a1.7,1.7,0,0,1,.6,1.6C81.6,59.1,77.6,64.8,71,69.4A1.1,1.1,0,0,1,70.2,69.7Z" style="fill:#ffeb81"/><path d="M71.7,45.3l9.7,6.9c-1.3,6.6-5.3,11.8-11.2,16l-9.8-6.9,11.3-16m0-3h-.5a3.2,3.2,0,0,0-2,1.2L58,59.6a3,3,0,0,0,.7,4.2l9.8,6.8a2.7,2.7,0,0,0,3.4,0C78.8,65.8,83,59.8,84.4,52.8a3.1,3.1,0,0,0-1.3-3.1l-9.7-6.8a2.7,2.7,0,0,0-1.7-.6Z" style="fill:#ffaa5a"/><path d="M70.2,68.2A29.9,29.9,0,0,0,78.8,59c-1.2,1.5-2.8,3.3-3.9,3.5s-4.8-4.3-4.8-4.3l-6.8,5.1Z" style="fill:#ffae55;mix-blend-mode:multiply;opacity:0.5"/><path d="M28.2,84.3c-3.3,0-14.6-6-15.7-11.1a1.6,1.6,0,0,1,.5-1.4c6.3-6.1,11.8-13.9,16.8-24a1.3,1.3,0,0,1,1-.7h.3a1.6,1.6,0,0,1,.9.3l14.2,9.9a1.6,1.6,0,0,1,.5,1.9c-3.8,7.9-9.5,16-17.4,24.7a1.3,1.3,0,0,1-1.1.5Z" style="fill:#baa2ee"/><path d="M31.1,48.5l14.2,10c-4,8.3-9.9,16.4-17.1,24.3-2.9,0-13.3-5.7-14.2-9.9,7-6.8,12.5-15.1,17.1-24.4m0-3h-.7a2.9,2.9,0,0,0-2,1.6c-4.9,9.9-10.3,17.6-16.5,23.5a3.2,3.2,0,0,0-.8,2.8c1.2,6,13.3,12.3,17,12.3h.1a3.1,3.1,0,0,0,2.2-.9C38.4,76,44.2,67.8,48,59.8A3.1,3.1,0,0,0,47,56L32.8,46.1a2.7,2.7,0,0,0-1.7-.6Z" style="fill:#7850b3"/><path d="M31.1,48.5c-.8,1.7-1.7,3.3-2.6,5a31,31,0,0,0,2.1,3.9,24.3,24.3,0,0,0,4.9,5.2S28.1,73,25.3,75s-8.1-.8-11.3-2c1,4.2,11.3,9.8,14.2,9.8,7.2-7.9,13.1-16,17.1-24.3Z" style="fill:#baa2ee;mix-blend-mode:multiply;opacity:0.5"/><path d="M63.4,23.6a23.3,23.3,0,0,0-11.1-4.2h0C40.1,17.6,29.9,12.8,21.9,5L6.3,25.3c10.4,6.9,15.8,13.1,22.4,24.9h0a23.8,23.8,0,0,0,8.5,10.7c10.6,7.5,25.1,5.1,32.3-5.2S74,31.1,63.4,23.6Z" style="fill:#baa2ee"/><path d="M69.5,55.7a22.8,22.8,0,0,0,2-22.4c.1,6.6-2.6,18.9-16,19.2s-10.1-10-17.9-17.2S22.2,23.9,22,23.4s4.8-8.1,1-17.3h0L21.9,5,6.3,25.3c10.4,6.9,15.8,13.1,22.4,24.9a23.8,23.8,0,0,0,8.5,10.7C47.8,68.4,62.3,66,69.5,55.7Z" style="fill:#baa2ee;mix-blend-mode:multiply;opacity:0.5"/><ellipse cx="13.7" cy="14.8" rx="12.8" ry="9.4" transform="translate(-6.3 17.5) rotate(-54.9)" style="fill:#d7cafc"/><ellipse cx="13.7" cy="14.8" rx="9.6" ry="6.3" transform="translate(-6.3 17.5) rotate(-54.9)" style="fill:#575757"/><path d="M52,58.1a14.5,14.5,0,0,1-8.2-2.6,14.2,14.2,0,0,1-5.8-9,13.4,13.4,0,0,1,2.2-10.3,13.7,13.7,0,0,1,11.2-5.8A14.3,14.3,0,0,1,65.4,42,13.5,13.5,0,0,1,52,58.1Z" style="fill:#baa2ee"/><path d="M51.4,31.9a12.5,12.5,0,0,1,7.3,2.4A12.3,12.3,0,0,1,62,51.5a11.9,11.9,0,0,1-10,5.1A12.6,12.6,0,0,1,41.4,37.1a12.1,12.1,0,0,1,10-5.2m0-3h0A15.1,15.1,0,0,0,39,35.3,15.6,15.6,0,0,0,64.5,53.2a14.8,14.8,0,0,0,2.4-11.4,15.3,15.3,0,0,0-6.4-10,15.6,15.6,0,0,0-9.1-2.9Z" style="fill:#7850b3"/><path d="M55.1,53c-3.1,0-6-3.1-6.8-4.1A11.7,11.7,0,0,1,44,46.3c-1.6-1.5-2.3-3-2.1-4.4s2.1-3.4,3.7-4.3a3.9,3.9,0,0,0,1.1-.9c.3-.4.9-1.5,1.8-1.7h.3a.9.9,0,0,1,.7.3,4.2,4.2,0,0,1,.8,1.3,17.5,17.5,0,0,1,9,6.6h.2a5,5,0,0,1,1.4.3,1,1,0,0,1,.6.8,3,3,0,0,1-1.4,2.4c0,.1-.1.6-.1,1a7.9,7.9,0,0,1-.8,3.1A4.3,4.3,0,0,1,55.6,53Z" style="fill:#baa2ee"/><path d="M48.8,36a1.7,1.7,0,0,1,.5,1.4,16.6,16.6,0,0,1,9.2,6.5l.4.5a.7.7,0,0,1,.6-.2l1,.2c.1.7-1.1,1.6-1.1,1.6s-.2,2.5-1.1,4.3A3.1,3.1,0,0,1,55.6,52h-.5c-3,0-6.3-4-6.3-4a10.4,10.4,0,0,1-4.1-2.4c-3.9-3.7-.8-5.9,1.4-7.2a5.6,5.6,0,0,0,1.4-1.1s.6-1.1,1.3-1.3m0-2h-.5a3.8,3.8,0,0,0-2.4,2l-.8.6c-1.1.6-3.9,2.2-4.2,5.1s.6,3.5,2.4,5.2a13.4,13.4,0,0,0,4.4,2.8C48.8,51,51.8,54,55.1,54h.6a5.3,5.3,0,0,0,4.4-2.8,8.6,8.6,0,0,0,.9-3.4v-.6a3.8,3.8,0,0,0,1.5-3,2,2,0,0,0-1.2-1.6l-1.5-.4A17.7,17.7,0,0,0,51,35.9a4.6,4.6,0,0,0-.7-1.3,2.2,2.2,0,0,0-1.5-.6Z" style="fill:#7850b3"/><circle cx="47.5" cy="42.5" r="2.3" transform="translate(-11.5 66.7) rotate(-64.1)" style="fill:#7850b3"/><circle cx="54.8" cy="47.7" r="2.3" style="fill:#7850b3"/><path d="M49.4,44.7a1.8,1.8,0,0,1,2.2-.2,1.9,1.9,0,0,1,.5,2.1l-2.5.7Z" style="fill:#7850b3"/><path d="M16.7,3A7.5,7.5,0,0,1,21,4.3l.9.7h0c8,7.8,18.2,12.6,30.4,14.4h0a23.3,23.3,0,0,1,11.1,4.2C74,31.1,76.7,45.4,69.5,55.7a22.5,22.5,0,0,1-18.6,9.6,23.5,23.5,0,0,1-13.7-4.4,23.8,23.8,0,0,1-8.5-10.7c-6.6-11.8-12-18-22.4-24.9h0C2,22.3,1.9,15.2,5.9,9.4,8.8,5.3,13,3,16.7,3m0-3h0C11.9,0,6.8,2.9,3.5,7.7A18.2,18.2,0,0,0,0,18.4a11.5,11.5,0,0,0,4.6,9.3h0c9.8,6.5,15,12.3,21.4,23.7A27,27,0,0,0,50.9,68.3a25.7,25.7,0,0,0,21-10.8A25.4,25.4,0,0,0,76.1,38a26.4,26.4,0,0,0-11-16.8,27.4,27.4,0,0,0-12.3-4.8h0C41.1,14.7,31.4,10.1,24,2.9l-.2-.2-1-.8A10.3,10.3,0,0,0,16.7,0Z" style="fill:#7850b3"/></g></g></g></g></svg>