<svg xmlns="http://www.w3.org/2000/svg" width="86.1" height="86.7" viewBox="0 0 86.1 86.7"><g id="Layer_2" data-name="Layer 2"><g id="Layer_5" data-name="Layer 5"><g id="owl_clean_1" data-name="owl_clean 1"><path d="M16.8,85.2A15.3,15.3,0,0,1,1.5,69.9V22.4A15.4,15.4,0,0,1,16.8,7.1H43.9a2.8,2.8,0,0,1,2.8,2.7,2.9,2.9,0,0,1-2.8,2.8H16.8A9.8,9.8,0,0,0,7,22.4V69.9a9.8,9.8,0,0,0,9.8,9.9H74.4a2.7,2.7,0,1,1,0,5.4Z" style="fill:#cecece"/><path d="M43.9,8.6a1.2,1.2,0,0,1,1.3,1.2,1.3,1.3,0,0,1-1.3,1.3H16.8A11.4,11.4,0,0,0,5.5,22.4V69.9A11.4,11.4,0,0,0,16.8,81.3H74.4a1.2,1.2,0,1,1,0,2.4H16.8A13.8,13.8,0,0,1,3,69.9V22.4A13.8,13.8,0,0,1,16.8,8.6H43.9m0-3H16.8A16.8,16.8,0,0,0,0,22.4V69.9A16.8,16.8,0,0,0,16.8,86.7H74.4a4.2,4.2,0,1,0,0-8.4H16.8a8.4,8.4,0,0,1-8.3-8.4V22.4a8.3,8.3,0,0,1,8.3-8.3H43.9a4.3,4.3,0,1,0,0-8.5Z" style="fill:#8d8d8d"/><path d="M43.9,55.7c-2.3,0-23-.2-23-6.3s20.7-6.2,23-6.2S67,43.3,67,49.4,46.3,55.7,43.9,55.7Z" style="fill:#cecece"/><path d="M43.9,44.7c11.9,0,21.6,2.1,21.6,4.7s-9.7,4.8-21.6,4.8S22.4,52,22.4,49.4s9.7-4.7,21.5-4.7m9.3,7.6c1.3,0,2.4-.2,2.4-.4s-1.1-.4-2.4-.4-2.4.2-2.4.4,1.1.4,2.4.4m-18.5,0c1.3,0,2.4-.2,2.4-.4s-1.1-.4-2.4-.4-2.4.2-2.4.4,1.1.4,2.4.4m9.2.7c1.4,0,2.4-.2,2.4-.5s-1-.4-2.4-.4-2.4.2-2.4.4,1.1.5,2.4.5m0-11.3a79.9,79.9,0,0,0-15.8,1.4c-3.7.8-8.7,2.4-8.7,6.3s5,5.5,8.7,6.3a72.4,72.4,0,0,0,15.8,1.5,73.4,73.4,0,0,0,15.9-1.5c3.7-.8,8.7-2.4,8.7-6.3s-5-5.5-8.7-6.3a80.9,80.9,0,0,0-15.9-1.4Z" style="fill:#8d8d8d"/><path d="M42,21.3a1.5,1.5,0,0,1-1.5-1.5V4.9a3.5,3.5,0,0,1,6.9,0V19.8a1.5,1.5,0,0,1-1.5,1.5Z" style="fill:#8d8d8d"/><path d="M44,3a2,2,0,0,1,1.9,1.9V19.8H42V4.9A1.9,1.9,0,0,1,43.9,3H44m0-3h-.1A4.9,4.9,0,0,0,39,4.9V19.8a3,3,0,0,0,3,3h3.9a3,3,0,0,0,3-3V4.9A4.9,4.9,0,0,0,44,0Z" style="fill:#575757"/><path d="M26.6,47.8a1.4,1.4,0,0,1-1.2-.6,14.3,14.3,0,0,1-2.8-8.3c0-7.6,6.6-14.2,16-16V15.4a5.3,5.3,0,0,1,5.3-5.3,5.3,5.3,0,0,1,5.3,5.3v7.5c9.4,1.8,16,8.4,16,16a14.2,14.2,0,0,1-2.7,8.3,1.6,1.6,0,0,1-1.2.6Z" style="fill:#baa2ee"/><path d="M43.9,11.6a3.8,3.8,0,0,1,3.8,3.8v8.7c9.2,1.4,16,7.5,16,14.8a13.1,13.1,0,0,1-2.4,7.4H26.6a12.4,12.4,0,0,1-2.5-7.4c0-7,6.4-12.9,15-14.6l1-.2V15.4a3.8,3.8,0,0,1,3.8-3.8m0-3a6.8,6.8,0,0,0-6.8,6.8v6.3c-9.5,2.3-16,9.2-16,17.2a15.7,15.7,0,0,0,3.1,9.2,3.3,3.3,0,0,0,2.4,1.2H61.3a3.3,3.3,0,0,0,2.4-1.2,15.6,15.6,0,0,0,3-9.2c0-8-6.5-14.9-16-17.2V15.4a6.7,6.7,0,0,0-6.8-6.8Z" style="fill:#7850b3"/><path d="M47.5,38.4a13.5,13.5,0,0,1-3.7-.5,9.1,9.1,0,0,1-3,.4H38.9c-2.1-.3-3.5-1.1-4.2-2.3s-.2-3.9.6-5.6a7.9,7.9,0,0,0,.4-1.3,3.2,3.2,0,0,1,.5-2.4,1.1,1.1,0,0,1,.7-.3h.3a3.3,3.3,0,0,1,1.3.6,19,19,0,0,1,5.3-.8,15.8,15.8,0,0,1,5.5,1,8.5,8.5,0,0,1,1.5-.7H51a.9.9,0,0,1,.8.4c.7.7.4,2,.2,2.6l.5.9a9.8,9.8,0,0,1,1.1,2.9A4.1,4.1,0,0,1,51.9,37a6.4,6.4,0,0,1-4.4,1.4Z" style="fill:#baa2ee"/><path d="M43.8,27.1a14.6,14.6,0,0,1,5.3,1l.6.2a2,2,0,0,1,1.3-.9c.5.5,0,1.9,0,1.9s1.3,2.1,1.6,4a3,3,0,0,1-1.3,2.9,5.6,5.6,0,0,1-3.8,1.2,16,16,0,0,1-3.8-.5,9.7,9.7,0,0,1-2.9.4H39c-5.1-.7-3.9-4.3-2.8-6.5a8.2,8.2,0,0,0,.5-1.7s-.2-1.2.2-1.7,1,.2,1.3.8a16,16,0,0,1,5.6-1m0-2h0a16,16,0,0,0-5.1.8,6.1,6.1,0,0,0-1.3-.6h-.5a1.9,1.9,0,0,0-1.5.7,3.8,3.8,0,0,0-.7,3l-.4.9c-.5,1.1-1.8,4-.5,6.5s2.5,2.5,5,2.8h2a9.5,9.5,0,0,0,3-.4,15.7,15.7,0,0,0,3.7.5,7.7,7.7,0,0,0,5-1.6,5.1,5.1,0,0,0,2.1-4.7,8.4,8.4,0,0,0-1.3-3.3c0-.1-.2-.3-.2-.5a3.6,3.6,0,0,0-.6-3.2,2.1,2.1,0,0,0-1.5-.7h-.4l-1.4.5a16.1,16.1,0,0,0-5.4-.9Z" style="fill:#7850b3"/><circle cx="39.6" cy="32.1" r="2.3" transform="translate(-4.6 6.7) rotate(-9.2)" style="fill:#7850b3"/><circle cx="48.3" cy="32.1" r="2.3" style="fill:#7850b3"/><path d="M42.4,33.9s.2-1.4,1.5-1.4a1.7,1.7,0,0,1,1.6,1.4l-1.5,2Z" style="fill:#7850b3"/><path d="M22.6,50.2a6.9,6.9,0,0,1-4.3-1.3,4.8,4.8,0,0,1-2-3.8c0-2.9,2.8-5.2,6.3-5.2H65.3a6.9,6.9,0,0,1,4.3,1.4,4.7,4.7,0,0,1,2,3.8c0,2.8-2.8,5.1-6.3,5.1Z" style="fill:#baa2ee"/><path d="M65.3,41.4a5.5,5.5,0,0,1,3.4,1.1,3.3,3.3,0,0,1,1.4,2.6c0,2-2.1,3.6-4.8,3.6H22.6a5.7,5.7,0,0,1-3.4-1,3.3,3.3,0,0,1-1.4-2.6c0-2,2.1-3.7,4.8-3.7H65.3m0-3H22.6c-4.4,0-7.8,2.9-7.8,6.7a6.4,6.4,0,0,0,2.5,5,8.8,8.8,0,0,0,5.3,1.6H65.3c4.4,0,7.8-2.9,7.8-6.6a6.3,6.3,0,0,0-2.6-5,8.3,8.3,0,0,0-5.2-1.7Z" style="fill:#7850b3"/><rect x="17.8" y="75.8" width="66.9" height="5.65" rx="2.8" style="fill:#f1f2f2;stroke:#8d8d8d;stroke-linecap:round;stroke-linejoin:round;stroke-width:3px"/></g></g></g></svg>