<svg xmlns="http://www.w3.org/2000/svg" width="62.9" height="85.8" viewBox="0 0 62.9 85.8"><g id="Layer_2" data-name="Layer 2"><g id="Layer_5" data-name="Layer 5"><g id="owl_clean_3" data-name="owl_clean 3"><path d="M28,21.2h8.1V8.2H26.7v13H28Z" style="fill:#ffaa5a"/><path d="M20,31.2a2.1,2.1,0,0,1-1-.4,1.6,1.6,0,0,1-.5-1.1V22.8a3.1,3.1,0,0,1,3-3H41.4a3,3,0,0,1,2.9,3v6.9a1.3,1.3,0,0,1-.5,1.1,1.5,1.5,0,0,1-1,.4H20Z" style="fill:#baa2ee"/><path d="M41.4,21.3a1.5,1.5,0,0,1,1.4,1.5v6.9l-1.9-.2H22l-2,.2V22.8a1.5,1.5,0,0,1,1.5-1.5H41.4m0-3H21.5A4.5,4.5,0,0,0,17,22.8v6.9a3.2,3.2,0,0,0,1,2.2,3.2,3.2,0,0,0,2,.8H42.8a2.8,2.8,0,0,0,2-.8,2.8,2.8,0,0,0,1-2.2V22.8a4.5,4.5,0,0,0-4.4-4.5Z" style="fill:#7850b3"/><path d="M27.1,29.5V21.3H25.4v8.2Z" style="fill:#baa2ee"/><path d="M24.6,29.5V21.3H22.9v8.2Z" style="fill:#baa2ee"/><path d="M22,21.3h-.5A1.5,1.5,0,0,0,20,22.8v6.9l2-.2Z" style="fill:#baa2ee"/><path d="M40,29.5V21.3H38.3v8.2Z" style="fill:#baa2ee"/><path d="M42.8,29.7V22.8a1.5,1.5,0,0,0-1.4-1.5h-.5v8.2Z" style="fill:#baa2ee"/><path d="M32.3,21.3H30.6v8.2h1.7Z" style="fill:#baa2ee"/><path d="M29.7,21.3H28v8.2h1.7Z" style="fill:#baa2ee"/><path d="M35.7,29.5h1.7V21.3H35.7Z" style="fill:#baa2ee"/><path d="M34.9,21.3H33.1v8.2h1.8Z" style="fill:#baa2ee"/><path d="M22.3,29.5h.6V21.3H22v8.2Z" style="fill:#7850b3"/><path d="M25.4,29.5V21.3h-.8v8.2Z" style="fill:#7850b3"/><path d="M28,21.3h-.9v8.2H28Z" style="fill:#7850b3"/><path d="M30.6,21.3h-.9v8.2h.9Z" style="fill:#7850b3"/><path d="M33.1,21.3h-.8v8.2h.8Z" style="fill:#7850b3"/><path d="M35.7,21.3h-.8v8.2h.8Z" style="fill:#7850b3"/><path d="M38.3,29.5V21.3h-.9v8.2Z" style="fill:#7850b3"/><path d="M40.6,29.5h.3V21.3H40v8.2Z" style="fill:#7850b3"/><path d="M16,84.3a7.2,7.2,0,0,1-6.9-5.2L2.3,54.3,2,53.4v-.2c-.1-.3-.1-.6-.2-.9v-.2c-.1-.3-.1-.6-.2-.9V48.1a2.8,2.8,0,0,1,.1-.9h0a2.8,2.8,0,0,1,.1-.9V46c0-.3.1-.6.1-.8V45c.1-.2.1-.5.2-.8H2a2.4,2.4,0,0,0,.2-.8l1.5.2-1.4-.4a2.4,2.4,0,0,0,.2-.8h.1l.3-.8a9.4,9.4,0,0,1,.3-.9h.1a2,2,0,0,1,.4-.8v-.2l.4-.7a5.6,5.6,0,0,1,.5-.8h.1c.1-.3.3-.5.4-.8h.1l1.1-1.5.7-.7H7l1.3-1.3.8-.7h.1a8.3,8.3,0,0,1,1.5-1.1l.8-.6.9-.5.9-.4.8-.4,1-.4,1-.3a.1.1,0,0,1,.1-.1,22,22,0,0,1,3.7-.7L22,28H40.8l2.2.2A20.7,20.7,0,0,1,60.6,54.3L53.7,79.1a7.1,7.1,0,0,1-6.9,5.2Z" style="fill:#ffeb81"/><path d="M40.6,29.5h.3l1.9.2A19.3,19.3,0,0,1,59.2,53.9L52.3,78.7a5.7,5.7,0,0,1-5.5,4.1H16a5.6,5.6,0,0,1-5.4-4.1L3.7,53.9c-.1-.3-.1-.6-.2-.9h0a3.1,3.1,0,0,1-.2-.8v-.2c-.1-.3-.1-.6-.2-.9h0v-.8C3,50.1,3,50.1,3,50V48.2H3a2.2,2.2,0,0,1,.1-.8h0v-1a2.5,2.5,0,0,1,.1-.8h0c.1-.2.1-.5.2-.7h0c.1-.3.1-.6.2-.8v-.2l.3-.7H4l.3-.8h0l.3-.8a.1.1,0,0,1,.1-.1l.3-.8h.1l.3-.7h0l.5-.7h0l.5-.7h0l1.1-1.3h0l.6-.6h0l1.3-1.2h0l.6-.5h.1l1.4-1h0l.8-.5h0l.8-.5h0l.8-.4h0l.8-.3h.1l.8-.3h.1l.8-.3h0a13.6,13.6,0,0,1,3.5-.7l2-.2H40.6m0-3H22l-2.3.2a16.9,16.9,0,0,0-3.9.8h-.2l-1,.4-1,.4h0l-1,.4-.9.5-.9.5h-.1l-.8.5H9.8L8.2,31.5H8.1l-.7.6H7.3L5.9,33.7h0l-.7.8H5.1A8.3,8.3,0,0,0,4,36.1H3.9l-.5.8H3.3a2.2,2.2,0,0,1-.5.8h0l-.4.8H2.3a5.9,5.9,0,0,1-.4.8v.2a3.6,3.6,0,0,0-.4.9h0l-.3.9H1.1l-.3.9v.2a2.9,2.9,0,0,0-.2.9H.5c0,.3-.1.6-.1.9H.3c0,.3-.1.6-.1.9V46a2.8,2.8,0,0,0-.1.9h0A3.8,3.8,0,0,0,0,48H0v1H0v1.1H.1a3.1,3.1,0,0,0,.1,1,3.7,3.7,0,0,0,.1,1.1v.2a2.9,2.9,0,0,1,.2.9v.2a3,3,0,0,0,.2,1L7.7,79.5A8.7,8.7,0,0,0,16,85.8H46.8a8.7,8.7,0,0,0,8.4-6.3L62,54.7a22,22,0,0,0-18.8-28l-2.3-.2h-.3Z" style="fill:#ffaa5a"/><path d="M31.4,66a6.5,6.5,0,0,0,6.5-6.4c0-3.6-4.8-13.2-6.5-13.2S25,56,25,59.6A6.4,6.4,0,0,0,31.4,66Z" style="fill:#baa2ee"/><path d="M10.2,16.8l-1-.2-1-.4-.6-.4a5.2,5.2,0,0,1-1-1.1v-.3l-.3-.7c0-.2-.1-.3-.1-.4V12.1a2.4,2.4,0,0,1,.2-.8l.2-.4.5-.7.3-.3L11.1,6l.2-.2L12,5c1.1-1.2,2.5-2.8,4.1-3.3H48.4a3.9,3.9,0,0,1,3.9,4,3.9,3.9,0,0,1-3.9,4.1H18.9L13,15.6A3.8,3.8,0,0,1,10.2,16.8Z" style="fill:#baa2ee"/><path d="M18.2,3H48.4c3.3,0,3.3,5.1,0,5.1H18.3a12.1,12.1,0,0,0-1.6,1.6l-4.8,4.7a2.1,2.1,0,0,1-1.7.8H9.6l-.7-.3-.3-.3-.7-.7v-.6a.4.4,0,0,1-.1-.3v-.7a1.1,1.1,0,0,1,.1-.5v-.2l.3-.5.2-.2L12.2,7a.2.2,0,0,0,.2-.2c1.1-1.2,2.6-3.2,4.1-3.6h1.7m0-3H16.4l-.7.2C13.6.9,12.1,2.6,10.9,4l-.7.7v.2l-.6.6L6.2,8.8l-.4.4-.7,1-.2.6-.3,1.1v1.7c.1.1.1.3.2.5l.3.9.3.5a5.3,5.3,0,0,0,1.2,1.4l.8.6a5.9,5.9,0,0,0,1.4.6l1.4.2a5.9,5.9,0,0,0,3.9-1.6l2.3-2.4,2.4-2.4.7-.7H48.4a5.4,5.4,0,0,0,5.4-5.6A5.3,5.3,0,0,0,48.4.1H18.2Z" style="fill:#7850b3"/><path d="M31.4,40.9a15.3,15.3,0,0,0-13,7.2,15.9,15.9,0,0,0-2.3,8.1,15.3,15.3,0,0,0,12.6,15,12.4,12.4,0,0,0,2.7.3,15.3,15.3,0,0,0,0-30.6Zm0,25.5A6.4,6.4,0,0,1,25,60c0-3.6,5.1-13.2,6.4-13.2s6.5,9.6,6.5,13.2A6.5,6.5,0,0,1,31.4,66.4Z" style="fill:#fff"/></g></g></g></svg>