<svg xmlns="http://www.w3.org/2000/svg" xmlns:xlink="http://www.w3.org/1999/xlink" width="21.284" height="21.284" viewBox="0 0 21.284 21.284">
  <defs>
    <filter id="Polygon_254" x="0" y="0" width="21.284" height="21.284" filterUnits="userSpaceOnUse">
      <feOffset dx="2" dy="2" input="SourceAlpha"/>
      <feGaussianBlur result="blur"/>
      <feFlood flood-color="#8e241c"/>
      <feComposite operator="in" in2="blur"/>
      <feComposite in="SourceGraphic"/>
    </filter>
  </defs>
  <g id="Group_14127" data-name="Group 14127" transform="translate(-245 -535)">
    <g transform="matrix(1, 0, 0, 1, 245, 535)" filter="url(#Polygon_254)">
      <path id="Polygon_254-2" data-name="Polygon 254" d="M11.11.3a2,2,0,0,1,1.932.518l.7.7a2,2,0,0,0,.9.518l.951.255A2,2,0,0,1,17,3.7l.255.951a2,2,0,0,0,.518.9l.7.7a2,2,0,0,1,.518,1.932l-.255.951a2,2,0,0,0,0,1.035l.255.951a2,2,0,0,1-.518,1.932l-.7.7a2,2,0,0,0-.518.9L17,15.585A2,2,0,0,1,15.585,17l-.951.255a2,2,0,0,0-.9.518l-.7.7a2,2,0,0,1-1.932.518l-.951-.255a2,2,0,0,0-1.035,0l-.951.255a2,2,0,0,1-1.932-.518l-.7-.7a2,2,0,0,0-.9-.518L3.7,17a2,2,0,0,1-1.414-1.414l-.255-.951a2,2,0,0,0-.518-.9l-.7-.7A2,2,0,0,1,.3,11.11l.255-.951a2,2,0,0,0,0-1.035L.3,8.174A2,2,0,0,1,.816,6.242l.7-.7a2,2,0,0,0,.518-.9L2.285,3.7A2,2,0,0,1,3.7,2.285L4.65,2.03a2,2,0,0,0,.9-.518l.7-.7A2,2,0,0,1,8.174.3l.951.255a2,2,0,0,0,1.035,0Z" fill="#f44336"/>
    </g>
    <g id="Group_14126" data-name="Group 14126" transform="translate(250.942 539.709)">
      <path id="Path_13026" data-name="Path 13026" d="M161.872,131.734a1.85,1.85,0,1,1,1.85-1.85A1.852,1.852,0,0,1,161.872,131.734Zm0-2.466a.617.617,0,1,0,.617.617A.617.617,0,0,0,161.872,129.268Z" transform="translate(-160.022 -128.034)" fill="#fafafa"/>
      <path id="Path_13027" data-name="Path 13027" d="M257.872,291.734a1.85,1.85,0,1,1,1.85-1.85A1.852,1.852,0,0,1,257.872,291.734Zm0-2.466a.617.617,0,1,0,.617.617A.618.618,0,0,0,257.872,289.268Z" transform="translate(-252.323 -281.869)" fill="#fafafa"/>
      <path id="Path_13028" data-name="Path 13028" d="M160.652,137.883a.616.616,0,0,1-.5-.975l6.166-8.632a.617.617,0,0,1,1,.716l-6.166,8.632A.619.619,0,0,1,160.652,137.883Z" transform="translate(-160.036 -128.017)" fill="#fafafa"/>
    </g>
  </g>
</svg>
