<svg width="17" height="11" viewBox="0 0 17 11" fill="none" xmlns="http://www.w3.org/2000/svg">
<path d="M14.0607 3.5486C13.9698 3.17897 13.7845 2.83926 13.523 2.56267C13.2615 2.28608 12.9327 2.08207 12.5687 1.9706C12.2074 1.85553 11.8223 1.83718 11.4517 1.91736C11.0812 1.99755 10.7381 2.17347 10.4567 2.4276L9.1937 3.5376L8.9437 1.8726C8.88746 1.49636 8.73463 1.14114 8.50012 0.841607C8.26561 0.542075 7.95744 0.308469 7.6057 0.163595C7.46872 0.108533 7.32624 0.0683037 7.1807 0.0435955C6.88331 -0.0170034 6.57651 -0.0143997 6.2802 0.0512374C5.98388 0.116875 5.70469 0.244079 5.46071 0.424595C5.13626 0.659133 4.88196 0.977757 4.7252 1.34614C4.56845 1.71451 4.5152 2.11868 4.57117 2.51509C4.62714 2.9115 4.7902 3.28513 5.04282 3.59571C5.29543 3.90629 5.628 4.14205 6.0047 4.2776L7.1807 4.7026L8.62871 5.2356H8.63969L11.1537 6.1606C11.3987 6.2463 11.6562 6.29058 11.9157 6.2916C12.2507 6.28994 12.581 6.21241 12.8818 6.06484C13.1825 5.91727 13.4459 5.70348 13.6523 5.43953C13.8586 5.17558 14.0024 4.86832 14.073 4.54082C14.1435 4.21332 14.14 3.87409 14.0607 3.5486Z" fill="#FE9923"/>
<path d="M13.3857 5.72558C12.9826 6.08898 12.4594 6.29057 11.9166 6.29158C11.6571 6.29054 11.3996 6.24627 11.1546 6.16058L8.64064 5.23558H8.62964L7.18164 4.70258V0.0435791C7.32718 0.0683023 7.46966 0.108531 7.60664 0.163579C7.95876 0.308175 8.26734 0.54166 8.50221 0.841211C8.73709 1.14076 8.89022 1.49613 8.94664 1.87258L9.19664 3.53758L10.4596 2.42758C10.741 2.17346 11.0841 1.99753 11.4547 1.91735C11.8253 1.83716 12.2104 1.85552 12.5716 1.97058C12.9452 2.08599 13.2813 2.2986 13.5457 2.58663C13.81 2.87466 13.9931 3.22777 14.0761 3.60981C14.1591 3.99184 14.1391 4.38908 14.0181 4.76085C13.8972 5.13261 13.6796 5.46555 13.3876 5.72558H13.3857Z" fill="#FE8821"/>
<path d="M16.1177 8.49458L15.3777 10.5406C15.3371 10.6432 15.2665 10.7312 15.1752 10.7933C15.0839 10.8553 14.9761 10.8885 14.8657 10.8886C14.8025 10.8892 14.7398 10.878 14.6807 10.8556L9.05472 8.81258L8.54273 7.12558L7.18173 7.42558L5.98173 7.69758L0.357726 5.65358C0.222797 5.60246 0.113134 5.50072 0.0520658 5.36999C-0.00900274 5.23926 -0.016658 5.08987 0.0307264 4.95358L0.781726 2.90758C0.853572 2.70526 0.964847 2.51921 1.1091 2.36019C1.25336 2.20118 1.42773 2.07237 1.62212 1.98122C1.81651 1.89007 2.02705 1.8384 2.24155 1.82919C2.45605 1.81998 2.67024 1.85343 2.87173 1.92758L7.18173 3.49458L7.47573 3.60358C7.47573 3.60358 8.65173 5.73658 8.68373 5.73658C8.71573 5.73658 9.17373 5.47558 9.63072 5.22458C10.0877 4.97358 10.5447 4.71258 10.5447 4.71258L15.1377 6.38858C15.5459 6.53863 15.8783 6.84374 16.0627 7.23758C16.1558 7.4327 16.2086 7.64454 16.218 7.86049C16.2275 8.07644 16.1934 8.29209 16.1177 8.49458Z" fill="#FF3E75"/>
<path d="M16.1177 8.49457L15.3777 10.5406C15.337 10.6432 15.2664 10.7312 15.1752 10.7933C15.0839 10.8553 14.976 10.8885 14.8657 10.8886C14.8025 10.8892 14.7397 10.878 14.6807 10.8556L9.05367 8.80957L8.54166 7.12257L7.18066 7.42257V3.49957L7.47466 3.60857C7.47466 3.60857 8.64966 5.74157 8.68266 5.74157C8.71566 5.74157 9.17265 5.48057 9.62965 5.22957C10.0867 4.97857 10.5437 4.71757 10.5437 4.71757L15.1367 6.39357C15.5448 6.54362 15.8773 6.84873 16.0617 7.24257C16.1542 7.43693 16.2068 7.64786 16.2164 7.8629C16.226 8.07794 16.1924 8.29272 16.1177 8.49457Z" fill="#FC1A40"/>
<path d="M7.47568 3.60858L7.18169 4.41358L5.98169 7.70058L7.18169 8.13558L8.54268 8.62558L9.05469 8.81058L10.5497 4.71658L7.47568 3.60858Z" fill="#FCBF29"/>
<path d="M10.5466 4.71658L9.05562 8.80958L8.54361 8.62458L7.18262 8.13458V4.40858L7.47661 3.60358L10.5466 4.71658Z" fill="#FE9923"/>
</svg>
