<svg xmlns="http://www.w3.org/2000/svg" xmlns:xlink="http://www.w3.org/1999/xlink" width="31" height="37.092" viewBox="0 0 31 37.092">
  <defs>
    <linearGradient id="linear-gradient" x1="0.628" y1="0.081" x2="0.5" y2="0.944" gradientUnits="objectBoundingBox">
      <stop offset="0" stop-color="#cddd0b"/>
      <stop offset="1" stop-color="#ff8b00"/>
    </linearGradient>
  </defs>
  <g id="Group_14182" data-name="Group 14182" transform="translate(-256.827 -495.685)">
    <path id="Path_13022" data-name="Path 13022" d="M14.15,1.7A1.08,1.08,0,0,1,15.1,2c2.611,2.6,6.187,6.491,6.187,11.667A8.642,8.642,0,1,1,4,13.663C4,11.1,5.281,8.488,6.7,6.35a1.08,1.08,0,0,1,1.5-.3l2.563,1.7,2.6-5.455a1.08,1.08,0,0,1,.791-.6Z" transform="translate(266.543 494.004)" fill-rule="evenodd" fill="url(#linear-gradient)"/>
    <g id="Group_14134" data-name="Group 14134" transform="translate(-4813.173 17715.826)">
      <path id="Path_13010" data-name="Path 13010" d="M155.3,122.619v1.746a.864.864,0,0,1-.873.873h-3.55a.864.864,0,0,1-.873-.873v-1.746A2.665,2.665,0,0,1,152.677,120,2.615,2.615,0,0,1,155.3,122.619Zm0,0" transform="translate(4928.73 -17324)" fill="#ffd27b"/>
      <path id="Path_13011" data-name="Path 13011" d="M197.746,125.238H196V120a2.615,2.615,0,0,1,2.619,2.619v1.746A.864.864,0,0,1,197.746,125.238Zm0,0" transform="translate(4885.407 -17324)" fill="#fdbf00"/>
      <path id="Path_13012" data-name="Path 13012" d="M102.28,394.365H90A4.367,4.367,0,0,1,94.365,390h3.55A4.367,4.367,0,0,1,102.28,394.365Zm0,0" transform="translate(4985.237 -17578.285)" fill="#fdbf00"/>
      <path id="Path_13013" data-name="Path 13013" d="M202.111,394.365H196V390h1.746A4.367,4.367,0,0,1,202.111,394.365Zm0,0" transform="translate(4885.407 -17578.285)" fill="#ff9100"/>
      <path id="Path_13014" data-name="Path 13014" d="M102.28,184.365a.864.864,0,0,1-.873.873H90.873a.864.864,0,0,1-.873-.873A4.367,4.367,0,0,1,94.365,180h3.55A4.367,4.367,0,0,1,102.28,184.365Zm0,0" transform="translate(4985.237 -17380.508)" fill="#fdbf00"/>
      <path id="Path_13015" data-name="Path 13015" d="M201.238,185.238H196V180h1.746a4.367,4.367,0,0,1,4.365,4.365A.864.864,0,0,1,201.238,185.238Zm0,0" transform="translate(4885.407 -17380.508)" fill="#ff9100"/>
      <path id="Path_13016" data-name="Path 13016" d="M6.526,246.984H3.492a3.492,3.492,0,0,1,0-6.984h.873a.873.873,0,0,1,0,1.746H3.492a1.746,1.746,0,1,0,0,3.492H6.526a.873.873,0,0,1,0,1.746Zm0,0" transform="translate(5070 -17437.014)" fill="#fdbf00"/>
      <path id="Path_13018" data-name="Path 13018" d="M79.963,240H60.873a.864.864,0,0,0-.873.873v.489a9.005,9.005,0,0,0,7.915,9.061,2.132,2.132,0,0,0,.332.035c.192.018.367.018.559.018a8.654,8.654,0,0,0,6.023-2.427c1.886-1.816-.172-3.825,2.5-3.825,2.409,0,2.238.241,2.238-2.169C79.566,241.566,80.452,240,79.963,240Z" transform="translate(5013.492 -17437.014)" fill="#ffd27b"/>
      <path id="Path_13019" data-name="Path 13019" d="M210.643,241.536c0,2.409-2.553,3.433-4,3.433-2.107.02-1.842,1.265-3.728,3.08a8.655,8.655,0,0,1-6.024,2.427c-.192,0-.367,0-.559-.018a2.127,2.127,0,0,1-.332-.035V240h12.747C210.715,239.987,210.643,240.871,210.643,241.536Z" transform="translate(4885.407 -17437.016)" fill="#fdaf00"/>
      <path id="Path_13020" data-name="Path 13020" d="M75.772,450.873a.864.864,0,0,1-.873.873H60.873a.873.873,0,1,1,0-1.746H74.9A.864.864,0,0,1,75.772,450.873Zm0,0" transform="translate(5013.492 -17634.795)" fill="#ffd27b"/>
      <path id="Path_13021" data-name="Path 13021" d="M203.857,450.873a.864.864,0,0,1-.873.873H196V450h6.984A.864.864,0,0,1,203.857,450.873Zm0,0" transform="translate(4885.407 -17634.795)" fill="#fdbf00"/>
    </g>
  </g>
</svg>
