<svg xmlns="http://www.w3.org/2000/svg" width="19.408" height="15.609" viewBox="0 0 19.408 15.609">
  <g id="Group_14132" data-name="Group 14132" transform="translate(-5070 17204)">
    <path id="Path_13010" data-name="Path 13010" d="M153.946,121.951v1.3a.644.644,0,0,1-.65.65H150.65a.644.644,0,0,1-.65-.65v-1.3A1.986,1.986,0,0,1,151.995,120,1.948,1.948,0,0,1,153.946,121.951Zm0,0" transform="translate(4926.504 -17324)" fill="#ffd27b"/>
    <path id="Path_13011" data-name="Path 13011" d="M197.3,123.9H196V120a1.948,1.948,0,0,1,1.951,1.951v1.3A.644.644,0,0,1,197.3,123.9Zm0,0" transform="translate(4882.499 -17324)" fill="#fdbf00"/>
    <path id="Path_13012" data-name="Path 13012" d="M99.149,393.252H90A3.253,3.253,0,0,1,93.252,390H95.9A3.253,3.253,0,0,1,99.149,393.252Zm0,0" transform="translate(4983.902 -17582.293)" fill="#fdbf00"/>
    <path id="Path_13013" data-name="Path 13013" d="M200.553,393.252H196V390h1.3A3.253,3.253,0,0,1,200.553,393.252Zm0,0" transform="translate(4882.499 -17582.293)" fill="#ff9100"/>
    <path id="Path_13014" data-name="Path 13014" d="M99.149,183.252a.644.644,0,0,1-.65.65H90.65a.644.644,0,0,1-.65-.65A3.253,3.253,0,0,1,93.252,180H95.9A3.253,3.253,0,0,1,99.149,183.252Zm0,0" transform="translate(4983.902 -17381.398)" fill="#fdbf00"/>
    <path id="Path_13015" data-name="Path 13015" d="M199.9,183.9H196V180h1.3a3.253,3.253,0,0,1,3.252,3.252A.644.644,0,0,1,199.9,183.9Zm0,0" transform="translate(4882.499 -17381.398)" fill="#ff9100"/>
    <path id="Path_13016" data-name="Path 13016" d="M4.862,245.2H2.6a2.6,2.6,0,1,1,0-5.2h.65a.65.65,0,0,1,0,1.3H2.6a1.3,1.3,0,1,0,0,2.6h2.26a.65.65,0,0,1,0,1.3Zm0,0" transform="translate(5070 -17438.797)" fill="#fdbf00"/>
    <path id="Path_13018" data-name="Path 13018" d="M74.873,240H60.65a.644.644,0,0,0-.65.65v.364a6.709,6.709,0,0,0,5.9,6.751,1.587,1.587,0,0,0,.247.026c.143.013.273.013.416.013A6.448,6.448,0,0,0,71.048,246c1.4-1.353-.128-2.85,1.862-2.85,1.795,0,1.668.179,1.668-1.616C74.577,241.167,75.237,240,74.873,240Z" transform="translate(5012.602 -17438.797)" fill="#ffd27b"/>
    <path id="Path_13019" data-name="Path 13019" d="M206.91,241.144c0,1.795-1.9,2.557-2.981,2.557-1.57.015-1.373.942-2.777,2.295a6.448,6.448,0,0,1-4.488,1.808c-.143,0-.273,0-.416-.013a1.583,1.583,0,0,1-.247-.026V240h9.5C206.963,239.99,206.91,240.649,206.91,241.144Z" transform="translate(4882.499 -17438.797)" fill="#fdbf00"/>
    <path id="Path_13020" data-name="Path 13020" d="M71.75,450.65a.644.644,0,0,1-.65.65H60.65a.65.65,0,1,1,0-1.3H71.1A.644.644,0,0,1,71.75,450.65Zm0,0" transform="translate(5012.602 -17639.691)" fill="#ffd27b"/>
    <path id="Path_13021" data-name="Path 13021" d="M201.853,450.65a.644.644,0,0,1-.65.65H196V450h5.2A.644.644,0,0,1,201.853,450.65Zm0,0" transform="translate(4882.499 -17639.691)" fill="#fdbf00"/>
  </g>
</svg>
