<svg id="printer_1_" data-name="printer (1)" xmlns="http://www.w3.org/2000/svg" width="33.74" height="33.74" viewBox="0 0 33.74 33.74">
    <path id="Path_639" data-name="Path 639" d="M28.8,8.5h-.923V4.942A4.948,4.948,0,0,0,22.933,0H10.807A4.948,4.948,0,0,0,5.865,4.942V8.5H4.942A4.948,4.948,0,0,0,0,13.443v7.908a4.948,4.948,0,0,0,4.942,4.942h.923v4.481A2.969,2.969,0,0,0,8.83,33.74H24.91a2.969,2.969,0,0,0,2.965-2.965V26.294H28.8a4.948,4.948,0,0,0,4.942-4.942V13.443A4.948,4.948,0,0,0,28.8,8.5ZM7.842,4.942a2.969,2.969,0,0,1,2.965-2.965H22.933A2.969,2.969,0,0,1,25.9,4.942V8.5H7.842ZM25.9,30.775a.99.99,0,0,1-.988.988H8.83a.99.99,0,0,1-.988-.988V21.022H25.9Zm5.865-9.424A2.969,2.969,0,0,1,28.8,24.317h-.923V21.022h.593a.988.988,0,1,0,0-1.977H5.272a.988.988,0,0,0,0,1.977h.593v3.295H4.942a2.969,2.969,0,0,1-2.965-2.965V13.443a2.969,2.969,0,0,1,2.965-2.965H28.8a2.969,2.969,0,0,1,2.965,2.965Z" fill="#d4c1f6"/>
    <path id="Path_640" data-name="Path 640" d="M207.26,353h-5.272a.988.988,0,1,0,0,1.977h5.272a.988.988,0,0,0,0-1.977Z" transform="translate(-187.754 -329.738)" fill="#d4c1f6"/>
    <path id="Path_641" data-name="Path 641" d="M207.26,417h-5.272a.988.988,0,1,0,0,1.977h5.272a.988.988,0,0,0,0-1.977Z" transform="translate(-187.754 -389.52)" fill="#d4c1f6"/>
    <path id="Path_642" data-name="Path 642" d="M69.152,193H65.988a.988.988,0,1,0,0,1.977h3.163a.988.988,0,1,0,0-1.977Z" transform="translate(-60.717 -180.282)" fill="#d4c1f6"/>
</svg>
