<svg xmlns="http://www.w3.org/2000/svg" width="52.797" height="53" viewBox="0 0 52.797 53">
    <g id="Group_8945" data-name="Group 8945" transform="translate(0 0)">
        <g id="Group_8944" data-name="Group 8944">
            <path id="Path_703" data-name="Path 703" d="M53.578,39.359c0-.453.049-.9.057-1.355.01-.641-.15-1.52-.847-1.751a7.086,7.086,0,0,0-2.464-.27c.07-.7.326-1.353.37-2.053a8.861,8.861,0,0,1,.064-1.235,5.878,5.878,0,0,0,.155-1.246,12.287,12.287,0,0,1,.148-2.314,16.383,16.383,0,0,0,.243-2.709c.009-1.706.14-3.406.183-5.111.045-1.754.006-3.512,0-5.267s0-3.506-.156-5.268a20.116,20.116,0,0,1,0-2.284,12.968,12.968,0,0,0-.26-2.621c-.135-.757-.3-1.509-.462-2.26s-.254-1.525-.464-2.251c-.415-1.429-1.775-1.4-3.013-1.348-1.679.068-3.384.031-5.064,0-1.617-.027-3.193.208-4.81.213-.807,0-1.627.053-2.431-.025a25.969,25.969,0,0,0-2.7-.147c-1.71.01-3.426.057-5.135.017a17.639,17.639,0,0,0-2.275,0C23.941.16,23.194.3,22.4.314c-1.792.023-3.585.016-5.377.025q-2.743.014-5.486.023c-.73,0-1.464-.026-2.193,0A4.731,4.731,0,0,0,7.524.585c-1.223.631-.841,2.807-.8,3.9.031.876-.04,1.756,0,2.632.044.9.217,1.774.209,2.68-.018,1.808.395,3.553.418,5.36A38.14,38.14,0,0,0,7.6,20.972c-.327.186-.651.388-.98.591a3.976,3.976,0,0,0-1.067.881,1.776,1.776,0,0,0-.111.157,9.675,9.675,0,0,0-1.973,1.57A6.087,6.087,0,0,0,1.739,27.06a1.538,1.538,0,0,0,.544,1.567,9.067,9.067,0,0,0-.372,1.3A8.013,8.013,0,0,0,1.875,32.2c.062.613.106,1.662.823,1.827a4.58,4.58,0,0,0,.311,1.78,4.511,4.511,0,0,0,1.362,1.728c.012.029.023.058.036.087a6.2,6.2,0,0,0,.666,1.2,6.281,6.281,0,0,0-1.292,1.389,12.347,12.347,0,0,0-1.524,4.019c-.189.664-.406,1.336-.618,1.991a5.763,5.763,0,0,0-.331.933,7.58,7.58,0,0,1-.211.979,6.047,6.047,0,0,0-.008,2.32c.106.773.145,1.715.837,2.188a.507.507,0,0,0,.456.045A.824.824,0,0,0,2.6,52.8a2.763,2.763,0,0,0,2.65-.287c.015-.016.029-.033.043-.05a1.975,1.975,0,0,1,.473-.019c.568.056,1.147-.028,1.708.079a9.925,9.925,0,0,0,1.876.207c2.669.012,5.336.072,8-.152.242-.02.588,0,.966.01a.655.655,0,0,0,.254.231c.728.369,1.284-.046,1.881-.456a7.041,7.041,0,0,0,1.451-.947,2.371,2.371,0,0,0,.486-1.706,14.588,14.588,0,0,0,.115-2.31c-.051-.329-.169-.646-.211-.975a3.841,3.841,0,0,1,.1-1.2c.08-.415.175-.828.223-1.248.043-.381-.038-.744-.013-1.122A5.9,5.9,0,0,1,22.9,41.47a17.809,17.809,0,0,1,3.188-.058,24.537,24.537,0,0,0,3.782.064c1.362-.037,2.714-.191,4.078-.194,1.328,0,2.657,0,3.985,0,1.382,0,2.765-.01,4.147,0,1.341.013,2.672.189,4.012.206,1.314.016,2.631-.025,3.945.008a12.763,12.763,0,0,0,3.286-.062.616.616,0,0,0,.449-.59C53.741,40.337,53.577,39.879,53.578,39.359ZM48.86,2.036c.048.256.061.537.1.712.171.837.363,1.669.533,2.506a19.379,19.379,0,0,1,.382,2.306c.062.783-.038,1.566-.036,2.349,0,.744.12,1.479.173,2.219.061.862.02,1.734.018,2.6-.005,1.9.012,3.792,0,5.689-.011,1.835-.171,3.664-.2,5.5a17.827,17.827,0,0,1-.179,2.7,12.333,12.333,0,0,0-.236,2.478c.024.879-.2,1.713-.21,2.594a9.493,9.493,0,0,1-.295,1.744,14.1,14.1,0,0,0-2.057-1.912,9.579,9.579,0,0,0-.987-.538.716.716,0,0,0-.171-.933,1.4,1.4,0,0,0,.252-1,14.475,14.475,0,0,1-.061-1.7c-.009-1.214-.358-2.39-.344-3.609.014-1.2.067-2.411-.006-3.606-.037-.615-.2-1.213-.21-1.831s0-1.237-.006-1.855c-.015-2.491-.035-4.983-.13-7.472-.044-1.153.074-2.291.135-3.441.027-.509.134-.993.125-1.505a3.277,3.277,0,0,0-.074-.821,1.393,1.393,0,0,0-.087-.219,20.6,20.6,0,0,0,1.687-1.419,13.686,13.686,0,0,0,1.874-1.516ZM23.207,26.192a1.59,1.59,0,0,0-.15-.513,2.883,2.883,0,0,1,.179-1.735,2.651,2.651,0,0,1,.758-1.317,1.071,1.071,0,0,1,.13-.051c.008.1.033.226.038.295.042.5.273,1.15.776,1.138a.506.506,0,0,0,.9-.143,3.427,3.427,0,0,1,.262-.634c.055-.013.1.011.137.108.041.124-.155.438-.187.567a1.349,1.349,0,0,0,.019.722.546.546,0,0,0,.9.237c.448-.347.732-.019.637.457a3.682,3.682,0,0,1-.69,1.223,6.075,6.075,0,0,1-.842.989c-.081.074-.163.145-.244.215-.126-.063-.252-.125-.374-.191a5.136,5.136,0,0,0-2.247-.6A5.625,5.625,0,0,1,23.207,26.192Zm-1.068-.036c.128.255.2.517.311.775-.7.038-.956.483-.943,1.245a6.845,6.845,0,0,1-.055,1.58,8.663,8.663,0,0,1-.628,1.794c-.232.51-.4,1.01-.591,1.536a6.776,6.776,0,0,1-.972,1.627c.038-.179.07-.366.1-.563.078-.533.111-1.069.148-1.606a14.248,14.248,0,0,0,.154-1.6,7.264,7.264,0,0,0-.269-1.263c-.112-.481-.081-.989-.24-1.455a3.16,3.16,0,0,0-.945-1.284,3.618,3.618,0,0,0,.166-.811A2.6,2.6,0,0,0,17.2,23.794a.52.52,0,0,0-.588-.026c-.011-.543-.632-1.056-.933-1.437-.27-.343-.6-.615-.854-.973A3.114,3.114,0,0,0,14,20.433a.537.537,0,0,0-.595-.009l-.094-.039c-.143-.058-.287-.108-.432-.151a.518.518,0,0,0,.184-.439c.04-1.309-.25-2.641-.27-3.956q-.032-2.186-.063-4.372c-.02-1.36,0-2.722-.024-4.081a10.791,10.791,0,0,0-.285-1.457c0-.031-.008-.061-.012-.09.277,0,.562-.048.82-.06.806-.037,1.621-.009,2.428-.012.846,0,1.707.042,2.551-.028.824-.068,1.623-.192,2.453-.194a46.662,46.662,0,0,0,4.781-.118,22.629,22.629,0,0,1,2.352-.075c.826,0,1.681-.072,2.5-.007.786.062,1.532.235,2.33.261.861.028,1.724.029,2.585.02,1.669-.018,3.34-.093,5.009-.065a16.5,16.5,0,0,0,2.554-.148,15.722,15.722,0,0,0,1.962-.2A2.7,2.7,0,0,1,44.8,5.9c-.053.552-.208,1.081-.274,1.63a27.666,27.666,0,0,0-.3,3.208c-.008,2.439-.1,4.877-.114,7.316a24.9,24.9,0,0,0,.117,3.555,29.083,29.083,0,0,1,.063,3.609,21.3,21.3,0,0,0,.361,3.328c.1.594.071,1.174.115,1.77a6.136,6.136,0,0,1,.23,1.6.4.4,0,0,0-.005.106.609.609,0,0,0-.269.316,1.251,1.251,0,0,0-.126-.019,4.586,4.586,0,0,0-1.02.157,11.149,11.149,0,0,1-1.691.02,12.02,12.02,0,0,0-2.773.064,3.889,3.889,0,0,1-1.564.091,4.759,4.759,0,0,0-1.35-.1c-.522.063-1.014.216-1.544.247-.484.028-.969.017-1.453.008-1.1-.019-2.2,0-3.3.016-.612.008-1.222.012-1.834.049a5.516,5.516,0,0,0-.988.094c.036-.185.07-.372.1-.564a8.06,8.06,0,0,0,.069-3.321,1.539,1.539,0,0,0-.367-.638,5.762,5.762,0,0,0,.776-.845,4.364,4.364,0,0,0,1.087-2.2,1.774,1.774,0,0,0-.708-1.569,1.214,1.214,0,0,0-.816-.2,1.045,1.045,0,0,0,.064-.435,1.277,1.277,0,0,0-.613-.9c.041-.063.082-.127.122-.193.412-.664.723-1.385,1.176-2.025a2.463,2.463,0,0,0,.7-1.674,1.836,1.836,0,0,0-.916-1.382,2,2,0,0,0-1.552-.162c-.588.232-.719.748-.932,1.273-.284.7-.7,1.341-1,2.037a3.747,3.747,0,0,0-.266.8c-.029.158-.038.318-.055.476a2.23,2.23,0,0,0-1.034.667,4.926,4.926,0,0,0-.958,2.548A2.89,2.89,0,0,0,22.14,26.156ZM17.878,36.438a.225.225,0,0,0,.035.107c-.113.141-.23.282-.345.423a3.531,3.531,0,0,0-.449.037,10.366,10.366,0,0,0-2.134.667,5.361,5.361,0,0,1-2.024.632c-.12,0-.232-.006-.34-.015a2.747,2.747,0,0,0,.251-.979,6.138,6.138,0,0,0-.36-2.526,1.5,1.5,0,0,0,.774.334,1.89,1.89,0,0,0,1.649-.628,1.608,1.608,0,0,0,.267-.428c.012.013.026.025.039.037,0,.14,0,.281,0,.421a.835.835,0,0,0,1.668,0c.014-.758.167-1.5.15-2.259-.018-.792-.051-1.581-.038-2.373A.8.8,0,0,0,17,29.7c.006-.039.012-.079.017-.119a1.592,1.592,0,0,0-.046-.781c-.006-.035-.012-.063-.018-.088.051-.043.1-.087.154-.128a2.439,2.439,0,0,0,.782-.9,2.511,2.511,0,0,1,.3,1.08,6.026,6.026,0,0,0,.121,1.219,4.4,4.4,0,0,1,.182,1.2c-.073.947-.192,1.943-.328,2.885-.059.408-.083.82-.143,1.227A5.9,5.9,0,0,0,17.878,36.438Zm-2.924-7.717c-.012-.013-.025-.024-.037-.037a.959.959,0,0,0,.563,0,1.256,1.256,0,0,0,0,.129,2.943,2.943,0,0,1-.124,1.026,6.448,6.448,0,0,0-.1,1.287q-.012.415-.017.83a7.112,7.112,0,0,0-.227,1.05.263.263,0,0,0-.326.024c-.438.345-.674,1.306-1.417,1.042-.491-.174-.6-.92-.581-1.368a2.949,2.949,0,0,1,.272-1.1.6.6,0,0,0,.5-.443,1.36,1.36,0,0,0,.024-.2.874.874,0,0,1,1.306.635.079.079,0,0,0,.158,0c-.007-.457.152-.838-.173-1.239a1.269,1.269,0,0,0-1.4-.375,1.682,1.682,0,0,0-.305.137.852.852,0,0,0-.1-.056c.6-.459,1.246-.69,1.8-.184a.14.14,0,0,0,.165.021A.753.753,0,0,0,14.954,28.721Zm-2.2-4.861a2.9,2.9,0,0,0,.028-.466c.089.037.176.079.263.124A2.49,2.49,0,0,0,12.758,23.86Zm.078,4.18a1.846,1.846,0,0,0,.012.366,2.906,2.906,0,0,0-.322.157A3.928,3.928,0,0,0,12.837,28.04Zm3.375-.581a3.506,3.506,0,0,0,.147-.7c.011-.178.014-.358.013-.538.05-.251.1-.5.144-.762.023-.139.042-.284.053-.431a1.718,1.718,0,0,1,.047,1.921A2.586,2.586,0,0,1,16.211,27.459Zm9.732-6.252c-.2.336-.5.688-.738,1.057a1.094,1.094,0,0,0-.285-.622.843.843,0,0,0-.318-.2c.006-.019.012-.036.018-.055a8.247,8.247,0,0,1,.614-1.519c.261-.492.548-.97.761-1.486.135-.327.217-.8.657-.834a.993.993,0,0,1,.919.58c.175.552-.352,1.03-.648,1.438C26.549,20.085,26.269,20.66,25.943,21.207ZM24.31,22.493c-.132.287-.157.192-.161.074A.518.518,0,0,0,24.31,22.493ZM26.985,33.43a4.008,4.008,0,0,0,.96.114c.569.034,1.133.046,1.7.053,1.025.013,2.051.012,3.075.053a13.667,13.667,0,0,0,2.861-.036,4.2,4.2,0,0,1,1.6-.051,5.159,5.159,0,0,0,1.255.135c.415-.027.809-.17,1.219-.211a9.957,9.957,0,0,1,1.26.053,14.158,14.158,0,0,0,3.008-.026,1.1,1.1,0,0,1,1.158.249c.308.222.655.316.975.508a10.943,10.943,0,0,1,1.9,1.734C47.4,36,46.847,36,46.293,36l-3.644,0c-.577,0-1.156.015-1.731-.031-.524-.042-1.035-.173-1.558-.216-1.144-.093-2.348.067-3.5.074l-3.629.021c-1.343.008-2.694.065-4.036.039a3.869,3.869,0,0,0-1.441.119,2.5,2.5,0,0,1-.861.127c.082-.148.162-.3.24-.446A9.911,9.911,0,0,0,26.985,33.43ZM8.489,1.606a12.838,12.838,0,0,1,2.129-.086c1.688.021,3.378.012,5.066.02l5.219.027c.735,0,1.474.031,2.208,0,.769-.037,1.517-.224,2.287-.231,1.546-.014,3.1.073,4.648.082a47.011,47.011,0,0,1,4.786.186c.761.082,1.535.044,2.3.049a18,18,0,0,0,2.349-.076,37.361,37.361,0,0,1,4.627-.114h2.313c.386,0,.767-.012,1.152-.033a4.248,4.248,0,0,1,.732-.029.465.465,0,0,0-.06.049,10.455,10.455,0,0,1-1.6,1.345,17.05,17.05,0,0,0-1.4,1.3,3.665,3.665,0,0,1-2.267.532,21.1,21.1,0,0,1-2.278.188c-1.57-.027-3.139.019-4.709.046a24.618,24.618,0,0,1-4.726-.1c-2.88-.525-5.837.12-8.732.052-.707-.017-1.417-.018-2.124-.016-.785,0-1.544.14-2.324.189-1.574.1-3.162-.064-4.737,0-.252.01-.5.048-.753.063a1.305,1.305,0,0,1-.331.008q-.082.12-.109.014a1.689,1.689,0,0,1-.076-.158c-.1-.14-.1-.244-.235-.367-.252-.236-.6-.4-.876-.61A22.708,22.708,0,0,1,8.121,1.755C8.175,1.617,8.216,1.648,8.489,1.606Zm2.445,36.38a.487.487,0,0,0-.018.569,1.693,1.693,0,0,1-1.147.08c-.034-.008-.066-.019-.1-.027a3.153,3.153,0,0,0,.558-.938c.035-.036.07-.073.1-.111.369-.434,1.039-1.5.857-2.18a2.2,2.2,0,0,0,.1-.441,7.484,7.484,0,0,1,.1-.839c.1-.518.187-1.035.309-1.548.039-.161.078-.322.118-.483l.007,0a3.756,3.756,0,0,0-.089.706A2.933,2.933,0,0,0,12.1,34.3a.36.36,0,0,0-.463.318,12.874,12.874,0,0,0-.33,1.936,5.724,5.724,0,0,1-.2.962c-.006.018-.087.261-.132.384C10.992,37.849,10.964,37.91,10.934,37.986Zm-.572-8.52a1.519,1.519,0,0,0,.072-.21.885.885,0,0,0,.021-.119,6.089,6.089,0,0,0,.425-.61c0,.007,0,.014,0,.02.006.023.014.045.022.067a.845.845,0,0,0-.306.616c0,.047-.008.094-.015.143A.813.813,0,0,0,10.362,29.466ZM7.987,2.518a10.249,10.249,0,0,0,1.7,1.32c.49.354.99.738,1.45,1.13a1.162,1.162,0,0,1,.342.438.761.761,0,0,0,.212.26,3.873,3.873,0,0,0-.017.487,5.351,5.351,0,0,0,.134.535,7.253,7.253,0,0,1,0,1.757c-.039,1.268-.037,2.54-.055,3.809-.037,2.532-.065,5.049.082,7.577a.832.832,0,0,0,.037.206,8.092,8.092,0,0,0-1.976.07,5.489,5.489,0,0,0-1.4.413A36.232,36.232,0,0,0,8.7,16.172a19.842,19.842,0,0,0-.067-2.393c-.076-.719-.12-1.462-.256-2.171A11.868,11.868,0,0,1,8.3,9.429C8.3,8.61,8.118,7.81,8.1,6.994c-.039-1.39-.123-2.8-.113-4.191C7.983,2.71,7.984,2.614,7.987,2.518ZM8.5,24.738q-.109.116-.227.223c-.2.135-.383.28-.563.432a6,6,0,0,1-.757.421c-.03.014-.06.026-.09.039.2-.151.392-.3.586-.453A4.649,4.649,0,0,1,8.5,24.738ZM7.071,38.59c-.085-.055-.168-.113-.25-.164a3.188,3.188,0,0,1-.628-.411.9.9,0,0,1-.115-.155.5.5,0,0,0,.235-.383,1.66,1.66,0,0,0,.456-.191A1.935,1.935,0,0,0,7.071,38.59ZM6.638,29.08q.33-.421.659-.844l.071-.09c.252-.163.5-.331.736-.5l.153-.109c-.008.033-.014.067-.022.1a8,8,0,0,0-.986.935c-.025.03-.049.061-.074.092Q6.912,28.878,6.638,29.08ZM3.687,30.685a5.9,5.9,0,0,0-.312.636,12.842,12.842,0,0,1,.365-1.854c.023-.08.044-.161.065-.243a1.933,1.933,0,0,0,.461.086A2.581,2.581,0,0,0,3.687,30.685Zm.741,1.763-.034.052c.008-.029.013-.058.022-.087.051-.171.1-.37.163-.577a1.228,1.228,0,0,0,.248.03C4.692,32.057,4.558,32.249,4.429,32.449Zm.289-6.976a2.759,2.759,0,0,0-.582.225,5.859,5.859,0,0,1,.795-.85,9.265,9.265,0,0,1,1.992-1.414l-.064.057c-.652.608-1.367,1.184-1.99,1.819C4.817,25.362,4.767,25.416,4.717,25.473Zm.469,9.618a.54.54,0,0,0,.084-.012c.014-.043.061-.019,0,0a.464.464,0,0,0,.1-.034l-.082.193a.323.323,0,0,0-.012-.065.156.156,0,0,1-.009-.093A.372.372,0,0,1,5.187,35.091Zm-.226-7.519c.041-.052.083-.1.126-.152.052.016.105.029.16.041Q5.1,27.521,4.961,27.572Zm17.782,11.09a2.04,2.04,0,0,1-.306.773,3.351,3.351,0,0,0-.388.7.435.435,0,0,0-.031.2,12.322,12.322,0,0,0-.614,1.7c-.215.74-.106,1.477-.276,2.22a7.961,7.961,0,0,0-.361,2.28c.022.334.123.657.158.988a3.97,3.97,0,0,1-.134,1.073,9.358,9.358,0,0,0-.125,1.119.934.934,0,0,1-.07.5c-.1.15-.4.22-.557.3a5.006,5.006,0,0,0-.683.427c-.364.01-.716.055-.909.055-1.31,0-2.6.206-3.913.21-1.368,0-2.736-.009-4.1.019A11.528,11.528,0,0,1,8.214,51.2a10.852,10.852,0,0,0-2.069-.147,6.339,6.339,0,0,0-.891.045,10.054,10.054,0,0,1,.059-3.163,17.1,17.1,0,0,1,.757-3.753c.109-.311-.37-.505-.528-.223a14.337,14.337,0,0,0-1.368,3.991,9.393,9.393,0,0,0-.336,3.527H3.555a5.851,5.851,0,0,0-.7.032c-.039-.328-.139-.661-.2-.992A5.882,5.882,0,0,1,2.5,48.429a11.5,11.5,0,0,1,.381-1.683c.206-.57.353-1.182.538-1.764a18.952,18.952,0,0,1,1.084-3.574A11.288,11.288,0,0,1,5.87,39.574l.072.049c.558.362,1.413.734,1.925.083A.761.761,0,0,0,8,39.456a4.382,4.382,0,0,0,1.264.637,2.642,2.642,0,0,0,2.118-.068,1.561,1.561,0,0,0,.662-.807,3.071,3.071,0,0,0,.822.2,4.914,4.914,0,0,0,2.37-.586,9.926,9.926,0,0,1,1.715-.6.217.217,0,0,0,.251.016c.073-.043.145-.09.217-.137l.407-.1a1.477,1.477,0,0,0,1.145-1.172.214.214,0,0,0,0-.053c.176-.192.345-.389.5-.588a10.365,10.365,0,0,0,1.8-2.722c.352-.964.827-1.891,1.136-2.871a6.434,6.434,0,0,0,.286-1.488c.017-.25-.089-.73-.052-1.059.151.009.316.036.427.037a4.229,4.229,0,0,1,1.029.084,4.955,4.955,0,0,1,.988.415.51.51,0,0,0,.726.614c.05-.027.1-.058.15-.087.423.423.283,1.125.2,1.715a11.412,11.412,0,0,1-.537,2.212,20.691,20.691,0,0,1-1.969,3.769A7,7,0,0,0,22.742,38.662Zm26.851,1.59c-1.3,0-2.6.034-3.891,0s-2.587-.187-3.887-.188c-1.379,0-2.757,0-4.136,0-1.328,0-2.657-.01-3.985,0-1.277.01-2.545.159-3.821.194a21.694,21.694,0,0,1-3.867-.08,9.613,9.613,0,0,0-2.29.011,1.33,1.33,0,0,0,.1-.123,10.74,10.74,0,0,0,.61-1.389c.316-.588.663-1.158,1-1.733a2.792,2.792,0,0,0,1.685.042,4.742,4.742,0,0,1,1.3,0c.614.017,1.228.023,1.841.027,2.3.013,4.6.034,6.893.041.509,0,1.013-.038,1.522-.053a8.294,8.294,0,0,1,1.522.158,21.718,21.718,0,0,0,3.234.12c2.26,0,4.55.111,6.806-.012a4.962,4.962,0,0,1,1.669.123c.023.006.226.052.4.086.022.075.076.228.081.256a7.923,7.923,0,0,1,0,1.377,6.743,6.743,0,0,0,.016.955,2.591,2.591,0,0,0,.056.277C51.512,40.425,50.528,40.254,49.593,40.252Z" transform="translate(-0.98 0)"/>
        </g>
    </g>
</svg>
