<svg xmlns="http://www.w3.org/2000/svg" width="19.969" height="19.991" viewBox="0 0 19.969 19.991">
    <path id="wrong" d="M15.558,12.482A1.792,1.792,0,0,0,14.314,13L12.686,14.63a2.118,2.118,0,0,0,.213,2.977l4.863,4.87L12.9,27.346a2.119,2.119,0,0,0-.213,2.978l1.629,1.631a2.115,2.115,0,0,0,2.975-.214l4.863-4.87,4.863,4.87a2.115,2.115,0,0,0,2.975.214l1.631-1.631a2.119,2.119,0,0,0-.215-2.978l-4.863-4.868,4.863-4.87a2.118,2.118,0,0,0,.215-2.977L29.991,13a2.113,2.113,0,0,0-2.975.215l-4.863,4.869-4.863-4.868a2.392,2.392,0,0,0-1.732-.732Z" transform="translate(-12.169 -12.481)" fill="#868686"/>
</svg>
