<svg id="happy_1_" data-name="happy (1)" xmlns="http://www.w3.org/2000/svg" width="53" height="53" viewBox="0 0 53 53">
    <path id="Path_674" data-name="Path 674" d="M26.5,0A26.5,26.5,0,1,0,53,26.5,26.53,26.53,0,0,0,26.5,0Zm0,49.895A23.395,23.395,0,1,1,49.895,26.5,23.421,23.421,0,0,1,26.5,49.895Z"/>
    <path id="Path_675" data-name="Path 675" d="M108.488,159.59a1.553,1.553,0,0,0,2.938-1.006,6.78,6.78,0,0,0-12.831,0,1.553,1.553,0,1,0,2.939,1,3.675,3.675,0,0,1,6.954,0Z" transform="translate(-88.314 -138.059)"/>
    <path id="Path_676" data-name="Path 676" d="M294.5,154a6.78,6.78,0,0,0-6.416,4.589,1.553,1.553,0,1,0,2.939,1,3.675,3.675,0,0,1,6.954,0,1.553,1.553,0,0,0,2.938-1.006A6.781,6.781,0,0,0,294.5,154Z" transform="translate(-258.183 -138.059)"/>
    <path id="Path_677" data-name="Path 677" d="M171.935,316.716a1.552,1.552,0,0,0-2.129.539,9.316,9.316,0,0,1-16,.02,1.553,1.553,0,0,0-2.664,1.6,12.422,12.422,0,0,0,21.327-.026A1.553,1.553,0,0,0,171.935,316.716Z" transform="translate(-135.303 -283.734)"/>
</svg>
