<svg xmlns="http://www.w3.org/2000/svg" width="86" height="86" viewBox="0 0 86 86">
    <g id="Group_8982" data-name="Group 8982" transform="translate(-3529 -3056)">
        <g id="Rectangle_2397" data-name="Rectangle 2397" transform="translate(3529 3056)" stroke="#000" stroke-width="3">
            <rect width="86" height="86" rx="21" stroke="none"/>
            <rect x="1.5" y="1.5" width="83" height="83" rx="19.5" fill="none"/>
        </g>
        <path id="wrong" d="M20.009,12.484a4.147,4.147,0,0,0-2.876,1.194l-3.768,3.777c-1.771,1.77-1.548,4.843.494,6.888L25.112,35.611,13.859,46.875c-2.042,2.044-2.266,5.118-.494,6.891l3.768,3.774c1.771,1.769,4.839,1.549,6.883-.5L35.269,45.777,46.522,57.044c2.046,2.045,5.116,2.264,6.883.5l3.774-3.774c1.768-1.773,1.548-4.847-.5-6.891L45.428,35.611,56.681,24.342c2.046-2.045,2.266-5.118.5-6.888l-3.774-3.777c-1.768-1.773-4.837-1.549-6.883.5L35.269,25.441,24.016,14.176a5.535,5.535,0,0,0-4.007-1.693Z" transform="translate(3536.831 3063.519)" fill="#fff"/>
    </g>
</svg>
