<svg id="light" xmlns="http://www.w3.org/2000/svg" width="53.006" height="53" viewBox="0 0 53.006 53">
    <g id="Group_8909" data-name="Group 8909" transform="translate(7.869 0)">
        <g id="Group_8908" data-name="Group 8908">
            <path id="Path_678" data-name="Path 678" d="M94.747.028A18.611,18.611,0,0,0,80.712,31.02a12.235,12.235,0,0,1,3.061,8.031v3.106a4.666,4.666,0,0,0,3.221,4.431,7.763,7.763,0,0,0,15.3,0,4.666,4.666,0,0,0,3.221-4.431V39.051a12.559,12.559,0,0,1,3.152-8.134A18.621,18.621,0,0,0,94.747.028Zm-.1,49.894a4.676,4.676,0,0,1-4.393-3.116h8.785A4.676,4.676,0,0,1,94.643,49.921Zm7.765-7.765a1.555,1.555,0,0,1-1.553,1.553H88.432a1.555,1.555,0,0,1-1.553-1.553V40.6h15.529ZM93.091,24.868H91.538a4.664,4.664,0,0,1-4.659-4.659V18.656h1.553a4.664,4.664,0,0,1,4.659,4.659Zm13.239,4a15.886,15.886,0,0,0-3.836,8.628H96.2V27.974h1.553a7.773,7.773,0,0,0,7.765-7.765V17.1a1.553,1.553,0,0,0-1.553-1.553h-3.106a7.758,7.758,0,0,0-6.212,3.111,7.757,7.757,0,0,0-6.212-3.111H85.326A1.553,1.553,0,0,0,83.773,17.1v3.106a7.773,7.773,0,0,0,7.764,7.765h1.553V37.5H86.8a15.419,15.419,0,0,0-3.764-8.543,15.529,15.529,0,1,1,23.3-.086Zm-10.133-4V23.315a4.664,4.664,0,0,1,4.659-4.659h1.553v1.553a4.664,4.664,0,0,1-4.659,4.659Z" transform="translate(-76.01 -0.027)"/>
        </g>
    </g>
    <g id="Group_8911" data-name="Group 8911" transform="translate(0 18.629)">
        <g id="Group_8910" data-name="Group 8910">
            <path id="Path_679" data-name="Path 679" d="M4.659,179.972H1.553a1.553,1.553,0,0,0,0,3.106H4.659a1.553,1.553,0,0,0,0-3.106Z" transform="translate(0 -179.972)"/>
        </g>
    </g>
    <g id="Group_8913" data-name="Group 8913" transform="translate(0.455 8.214)">
        <g id="Group_8912" data-name="Group 8912">
            <path id="Path_680" data-name="Path 680" d="M9.241,82.016l-2.2-2.2a1.553,1.553,0,0,0-2.2,2.2l2.2,2.2a1.553,1.553,0,1,0,2.2-2.2Z" transform="translate(-4.394 -79.366)"/>
        </g>
    </g>
    <g id="Group_8915" data-name="Group 8915" transform="translate(0.455 26.848)">
        <g id="Group_8914" data-name="Group 8914">
            <path id="Path_681" data-name="Path 681" d="M9.241,259.821a1.553,1.553,0,0,0-2.2,0l-2.2,2.2a1.553,1.553,0,0,0,2.2,2.2l2.2-2.2A1.553,1.553,0,0,0,9.241,259.821Z" transform="translate(-4.394 -259.366)"/>
        </g>
    </g>
    <g id="Group_8917" data-name="Group 8917" transform="translate(46.794 18.629)">
        <g id="Group_8916" data-name="Group 8916">
            <path id="Path_682" data-name="Path 682" d="M456.659,179.972h-3.106a1.553,1.553,0,0,0,0,3.106h3.106a1.553,1.553,0,0,0,0-3.106Z" transform="translate(-452 -179.972)"/>
        </g>
    </g>
    <g id="Group_8919" data-name="Group 8919" transform="translate(47.249 8.214)">
        <g id="Group_8918" data-name="Group 8918">
            <path id="Path_683" data-name="Path 683" d="M461.241,79.82a1.553,1.553,0,0,0-2.2,0l-2.2,2.2a1.553,1.553,0,1,0,2.2,2.2l2.2-2.2A1.553,1.553,0,0,0,461.241,79.82Z" transform="translate(-456.393 -79.366)"/>
        </g>
    </g>
    <g id="Group_8921" data-name="Group 8921" transform="translate(47.249 26.848)">
        <g id="Group_8920" data-name="Group 8920">
            <path id="Path_684" data-name="Path 684" d="M461.241,262.016l-2.2-2.2a1.553,1.553,0,1,0-2.2,2.2l2.2,2.2a1.553,1.553,0,0,0,2.2-2.2Z" transform="translate(-456.393 -259.366)"/>
        </g>
    </g>
</svg>
