<svg width="15" height="9" viewBox="0 0 15 9" fill="none" xmlns="http://www.w3.org/2000/svg">
<g clip-path="url(#clip0_299_16)">
<path d="M13.8977 0.419594L12.1347 -0.222404C12.0757 -0.244791 12.0129 -0.255986 11.9497 -0.255409H0.649739C0.578114 -0.256076 0.507072 -0.242457 0.44077 -0.215354C0.374467 -0.188252 0.314233 -0.148205 0.263585 -0.0975565C0.212936 -0.0469079 0.172889 0.0133259 0.145787 0.0796285C0.118685 0.145931 0.105069 0.216973 0.105736 0.288598V7.9456C0.105473 8.16012 0.147535 8.37258 0.229508 8.57082C0.311481 8.76907 0.431757 8.94919 0.583447 9.10088C0.735138 9.25257 0.915259 9.37285 1.1135 9.45483C1.31175 9.5368 1.52422 9.57885 1.73874 9.57859H12.6237C12.8383 9.57885 13.0507 9.5368 13.249 9.45483C13.4472 9.37285 13.6273 9.25257 13.779 9.10088C13.9307 8.94919 14.051 8.76907 14.133 8.57082C14.2149 8.37258 14.257 8.16012 14.2567 7.9456V0.932595C14.2576 0.820385 14.2235 0.710689 14.1592 0.618752C14.0948 0.526815 14.0035 0.457203 13.8977 0.419594Z" fill="#FC1A40"/>
<path d="M14.2566 0.930624V7.94562C14.2569 8.16015 14.2148 8.37261 14.1329 8.57085C14.0509 8.7691 13.9306 8.94922 13.7789 9.10091C13.6272 9.2526 13.4471 9.37288 13.2489 9.45485C13.0506 9.53683 12.8382 9.57888 12.6236 9.57862H7.18164V-0.254373H11.9466C12.0098 -0.254951 12.0726 -0.243755 12.1316 -0.221369H14.0625C14.1683 -0.18443 14.2566 -0.0546875 14.2566 0.609375C14.2566 0.71875 14.2566 0.835938 14.2566 0.930624Z" fill="#C60034"/>
<path d="M1.07106 4.80886C1.03637 4.81314 1.00116 4.80932 0.968195 4.79769C0.935231 4.78606 0.905416 4.76694 0.88109 4.74184C0.856764 4.71674 0.838594 4.68634 0.828004 4.65303C0.817415 4.61972 0.814695 4.5844 0.820062 4.54986V2.26486C0.815244 2.23025 0.818518 2.19499 0.82963 2.16185C0.840741 2.12872 0.859384 2.09861 0.884096 2.0739C0.908808 2.04918 0.938912 2.03054 0.972047 2.01943C1.00518 2.00832 1.04044 2.00504 1.07506 2.00986H2.02106C2.2749 1.99408 2.52521 2.07561 2.72106 2.23786C2.80542 2.31997 2.87114 2.41926 2.91376 2.52899C2.95638 2.63873 2.9749 2.75634 2.96807 2.87386C2.97473 2.99166 2.95614 3.10953 2.91354 3.21956C2.87094 3.3296 2.80532 3.42926 2.72106 3.51186C2.52551 3.67483 2.27516 3.75708 2.02106 3.74186H1.32106V4.55086C1.32622 4.58523 1.32339 4.62033 1.31278 4.65343C1.30216 4.68653 1.28405 4.71673 1.25987 4.74169C1.23568 4.76665 1.20607 4.7857 1.17332 4.79735C1.14057 4.809 1.10558 4.81294 1.07106 4.80886ZM1.32206 3.34386H1.94206C2.3034 3.34386 2.48406 3.18686 2.48406 2.87286C2.48406 2.55886 2.3034 2.4032 1.94206 2.40586H1.32206V3.34386ZM4.18006 4.81586C3.98598 4.82083 3.79355 4.77898 3.61906 4.69386C3.46655 4.6169 3.34024 4.49651 3.25606 4.34786C3.16756 4.18551 3.12341 4.00271 3.12806 3.81786C3.12404 3.63612 3.16673 3.45638 3.25206 3.29586C3.33178 3.14976 3.45008 3.02834 3.59406 2.94486C3.746 2.85754 3.91886 2.81329 4.09406 2.81686C4.21405 2.8109 4.3339 2.83096 4.44541 2.87566C4.55691 2.92037 4.65743 2.98866 4.74006 3.07586C4.90707 3.27232 4.99226 3.5254 4.97806 3.78286C4.97806 3.87953 4.9154 3.92786 4.79006 3.92786H3.60406C3.60474 4.00171 3.62106 4.07457 3.65193 4.14166C3.6828 4.20875 3.72752 4.26854 3.78316 4.3171C3.8388 4.36566 3.9041 4.40188 3.97475 4.42338C4.0454 4.44489 4.1198 4.45118 4.19306 4.44186C4.2704 4.44073 4.34743 4.43203 4.42306 4.41586C4.50744 4.39909 4.58873 4.3694 4.66406 4.32786C4.68882 4.31016 4.71695 4.29775 4.74671 4.29138C4.77647 4.28502 4.80723 4.28484 4.83706 4.29086C4.85884 4.29674 4.87907 4.30731 4.89634 4.32181C4.91361 4.33632 4.92751 4.35443 4.93706 4.37486C4.95629 4.41874 4.95913 4.46806 4.94506 4.51386C4.92616 4.57066 4.88603 4.61796 4.83306 4.64586C4.73566 4.70595 4.62883 4.74923 4.51706 4.77386C4.40707 4.80099 4.29434 4.81542 4.18106 4.81686L4.18006 4.81586ZM4.10906 3.15086C4.04491 3.14818 3.98088 3.15859 3.92088 3.18146C3.86088 3.20432 3.80616 3.23916 3.76006 3.28386C3.66676 3.38229 3.60994 3.50968 3.59906 3.64486H4.56507C4.5641 3.51107 4.51753 3.38161 4.43306 3.27786C4.39149 3.23481 4.3411 3.20126 4.28535 3.17951C4.2296 3.15777 4.1698 3.14833 4.11006 3.15186L4.10906 3.15086ZM5.60906 4.80786C5.57497 4.8127 5.54022 4.80955 5.50756 4.79864C5.4749 4.78774 5.44522 4.76939 5.42088 4.74504C5.39653 4.7207 5.37818 4.69102 5.36728 4.65836C5.35638 4.6257 5.35322 4.59095 5.35806 4.55686V3.07286C5.35281 3.03984 5.35533 3.00605 5.36542 2.97418C5.37551 2.94231 5.39289 2.91322 5.41619 2.88925C5.43949 2.86527 5.46806 2.84705 5.49964 2.83605C5.53121 2.82505 5.56491 2.82156 5.59806 2.82586C5.63122 2.82156 5.66492 2.82505 5.69649 2.83605C5.72806 2.84705 5.75663 2.86527 5.77993 2.88925C5.80323 2.91322 5.82061 2.94231 5.83071 2.97418C5.8408 3.00605 5.84331 3.03984 5.83806 3.07286V3.19486C5.89077 3.08063 5.97555 2.98418 6.08207 2.91725C6.18859 2.85031 6.31227 2.81579 6.43806 2.81786C6.55072 2.80453 6.6134 2.86853 6.62606 3.00986C6.63873 3.1512 6.57206 3.22853 6.42606 3.24186L6.34006 3.24986C6.01806 3.28119 5.85706 3.44619 5.85706 3.74486V4.55786C5.86199 4.59109 5.85923 4.62501 5.84902 4.65701C5.8388 4.68901 5.82139 4.71824 5.79813 4.74248C5.77486 4.76671 5.74636 4.78529 5.7148 4.7968C5.68324 4.8083 5.64946 4.81243 5.61606 4.80886L5.60906 4.80786ZM7.38406 4.80786C7.35019 4.81244 7.31572 4.80907 7.28339 4.79801C7.25105 4.78695 7.22173 4.76851 7.19776 4.74415C7.17379 4.7198 7.15583 4.69019 7.1453 4.65768C7.13476 4.62517 7.13194 4.59065 7.13706 4.55686V3.22586H6.95606C6.82273 3.22586 6.75606 3.16419 6.75606 3.04086C6.75606 2.91753 6.82273 2.85586 6.95606 2.85586H7.13706C7.12801 2.74644 7.14105 2.63633 7.17541 2.53205C7.20977 2.42777 7.26474 2.33147 7.33706 2.24886C7.49933 2.10278 7.70786 2.01852 7.92606 2.01086L8.05906 1.99886C8.08553 1.9941 8.11274 1.9955 8.13858 2.00295C8.16442 2.01041 8.1882 2.02373 8.20806 2.04186C8.23941 2.07556 8.2569 2.11984 8.25706 2.16586C8.25924 2.21207 8.24625 2.25773 8.22006 2.29586C8.20723 2.31463 8.1903 2.33023 8.17055 2.34149C8.1508 2.35275 8.12874 2.35937 8.10606 2.36086H8.05106C7.93248 2.35996 7.81725 2.40025 7.72506 2.47486C7.68888 2.51545 7.66135 2.56298 7.64416 2.61456C7.62697 2.66614 7.62047 2.72069 7.62506 2.77486V2.85686H7.95906C8.0924 2.85686 8.15906 2.91853 8.15906 3.04186C8.15906 3.16519 8.0924 3.22686 7.95906 3.22686H7.62506V4.55786C7.63004 4.59067 7.6275 4.62418 7.61763 4.65586C7.60776 4.68755 7.59082 4.71657 7.56809 4.74074C7.54536 4.76492 7.51744 4.78362 7.48642 4.79542C7.45541 4.80722 7.42211 4.81181 7.38906 4.80886L7.38406 4.80786ZM9.33206 4.81586C9.13798 4.82083 8.94555 4.77898 8.77106 4.69386C8.61855 4.6169 8.49224 4.49651 8.40806 4.34786C8.31956 4.18551 8.27541 4.00271 8.28006 3.81786C8.27604 3.63612 8.31873 3.45638 8.40406 3.29586C8.48378 3.14976 8.60208 3.02834 8.74606 2.94486C8.898 2.85754 9.07086 2.81329 9.24607 2.81686C9.36605 2.8109 9.4859 2.83096 9.59741 2.87566C9.70891 2.92037 9.80943 2.98866 9.89206 3.07586C10.0591 3.27232 10.1443 3.5254 10.1301 3.78286C10.1301 3.87953 10.0674 3.92786 9.94206 3.92786H8.75606C8.75674 4.00171 8.77306 4.07457 8.80393 4.14166C8.8348 4.20875 8.87952 4.26854 8.93516 4.3171C8.9908 4.36566 9.0561 4.40188 9.12675 4.42338C9.1974 4.44489 9.2718 4.45118 9.34506 4.44186C9.4224 4.44073 9.49943 4.43203 9.57506 4.41586C9.65944 4.3991 9.74074 4.36942 9.81606 4.32786C9.84083 4.31016 9.86895 4.29775 9.89871 4.29138C9.92847 4.28502 9.95923 4.28484 9.98906 4.29086C10.0108 4.29674 10.0311 4.30731 10.0483 4.32181C10.0656 4.33632 10.0795 4.35443 10.0891 4.37486C10.1083 4.41874 10.1111 4.46806 10.0971 4.51386C10.0782 4.57066 10.038 4.61796 9.98506 4.64586C9.88766 4.70595 9.78083 4.74923 9.66906 4.77386C9.56005 4.80077 9.44833 4.81519 9.33606 4.81686L9.33206 4.81586ZM9.26106 3.15086C9.19691 3.14818 9.13288 3.15859 9.07288 3.18146C9.01288 3.20432 8.95817 3.23916 8.91207 3.28386C8.81876 3.38229 8.76194 3.50968 8.75106 3.64486H9.71706C9.71609 3.51107 9.66953 3.38161 9.58506 3.27786C9.54394 3.23534 9.49421 3.2021 9.43919 3.18036C9.38417 3.15863 9.32514 3.14892 9.26606 3.15186L9.26106 3.15086ZM11.4011 4.81586C11.218 4.82017 11.0369 4.77748 10.8751 4.69186C10.7276 4.61155 10.6072 4.48943 10.5291 4.34086C10.4447 4.17575 10.4028 3.99223 10.4071 3.80686C10.4023 3.62336 10.4443 3.44166 10.5291 3.27886C10.6079 3.13308 10.7284 3.01404 10.8751 2.93686C11.0377 2.85382 11.2185 2.81258 11.4011 2.81686C11.4958 2.81774 11.59 2.82949 11.6821 2.85186C11.7829 2.87541 11.8791 2.91527 11.9671 2.96986C11.9904 2.98215 12.0108 2.99946 12.0267 3.02055C12.0426 3.04165 12.0537 3.066 12.0591 3.09186C12.0685 3.13846 12.0614 3.1869 12.0391 3.22886C12.0175 3.26983 11.9821 3.30175 11.9391 3.31886C11.9147 3.32748 11.8887 3.33016 11.8631 3.32668C11.8376 3.3232 11.8132 3.31366 11.7921 3.29886C11.6864 3.23585 11.5661 3.20139 11.4431 3.19886C11.3696 3.19466 11.2961 3.20673 11.2278 3.23421C11.1595 3.2617 11.0981 3.30392 11.0481 3.35786C10.9478 3.48676 10.8984 3.64794 10.9091 3.81086C10.8997 3.97486 10.949 4.13686 11.0481 4.26786C11.0967 4.32406 11.1577 4.36834 11.2261 4.39729C11.2946 4.42624 11.3688 4.43909 11.4431 4.43486C11.566 4.43141 11.686 4.39701 11.7921 4.33486C11.8128 4.32008 11.8369 4.31054 11.8621 4.30706C11.8874 4.30358 11.9131 4.30625 11.9371 4.31486C11.978 4.33246 12.0104 4.36553 12.0271 4.40686C12.0454 4.45012 12.0496 4.49807 12.0391 4.54386C12.0331 4.56897 12.022 4.59258 12.0065 4.61323C11.9911 4.63387 11.9715 4.65111 11.9491 4.66386C11.8638 4.7158 11.7711 4.75425 11.6741 4.77786C11.5865 4.80124 11.4966 4.81433 11.4061 4.81686L11.4011 4.81586ZM13.2541 4.81586C13.1512 4.83111 13.0461 4.8222 12.9473 4.78983C12.8485 4.75746 12.7585 4.70252 12.6846 4.62936C12.6106 4.5562 12.5547 4.46683 12.5213 4.36833C12.4879 4.26983 12.4779 4.1649 12.4921 4.06186V3.22586H12.2921C12.1587 3.22586 12.0921 3.16419 12.0921 3.04086C12.0921 2.91753 12.1587 2.85586 12.2921 2.85586H12.4921V2.49886C12.4874 2.46534 12.4906 2.43119 12.5014 2.3991C12.5121 2.36702 12.5302 2.33786 12.5541 2.31393C12.5781 2.29 12.6072 2.27194 12.6393 2.26117C12.6714 2.2504 12.7055 2.24721 12.7391 2.25186C12.7724 2.24747 12.8062 2.25088 12.838 2.2618C12.8698 2.27273 12.8985 2.29087 12.9221 2.31482C12.9457 2.33876 12.9633 2.36785 12.9737 2.39978C12.9841 2.43172 12.987 2.46564 12.9821 2.49886V2.85586H13.3981C13.5314 2.85586 13.5981 2.91753 13.5981 3.04086C13.5981 3.16419 13.5314 3.22586 13.3981 3.22586H12.9821V4.03486C12.9742 4.13601 13.0034 4.23657 13.0641 4.31786C13.0991 4.3519 13.1412 4.37793 13.1873 4.39416C13.2333 4.41039 13.2824 4.41642 13.3311 4.41186C13.3707 4.41231 13.4103 4.40829 13.4491 4.39986C13.4787 4.39266 13.5088 4.38731 13.5391 4.38386C13.5536 4.38206 13.5683 4.38376 13.5821 4.3888C13.5958 4.39384 13.6081 4.40209 13.6181 4.41286C13.6437 4.45294 13.6546 4.50063 13.6491 4.54786C13.6497 4.59546 13.6409 4.64272 13.6231 4.68686C13.6148 4.70671 13.6022 4.7245 13.5863 4.73901C13.5704 4.75352 13.5516 4.76439 13.5311 4.77086C13.4874 4.78336 13.443 4.79305 13.3981 4.79986C13.3522 4.80913 13.3058 4.81481 13.2591 4.81686L13.2541 4.81586ZM2.39906 8.30586C2.22669 8.30613 2.05486 8.28633 1.88706 8.24686C1.73348 8.21267 1.58675 8.15283 1.45306 8.06986C1.42604 8.05418 1.40241 8.03328 1.38352 8.00839C1.36464 7.9835 1.35089 7.95511 1.34306 7.92486C1.32978 7.87046 1.3347 7.8132 1.35706 7.76186C1.36672 7.73799 1.38108 7.7163 1.39929 7.69809C1.4175 7.67988 1.43919 7.66552 1.46306 7.65586C1.49115 7.6467 1.52105 7.64455 1.55016 7.6496C1.57928 7.65466 1.6067 7.66677 1.63006 7.68486C1.74372 7.75224 1.86671 7.80245 1.99506 7.83386C2.12606 7.86532 2.26033 7.8811 2.39506 7.88086C2.55241 7.89462 2.7102 7.85971 2.84706 7.78086C2.89101 7.75121 2.9269 7.71111 2.95151 7.66416C2.97612 7.6172 2.98868 7.56487 2.98806 7.51186C2.98988 7.47049 2.98174 7.42928 2.96434 7.3917C2.94694 7.35411 2.92079 7.32125 2.88806 7.29586C2.784 7.22846 2.6667 7.18413 2.54406 7.16586L2.11206 7.07586C1.62006 6.97119 1.37406 6.71853 1.37406 6.31786C1.37036 6.15644 1.41836 5.99806 1.51106 5.86586C1.60796 5.73263 1.73982 5.62881 1.89206 5.56586C2.06979 5.49237 2.26076 5.45628 2.45306 5.45986C2.60438 5.45908 2.75511 5.47893 2.90106 5.51886C3.03657 5.55558 3.16524 5.614 3.28206 5.69186C3.30586 5.70705 3.32642 5.7268 3.34255 5.74997C3.35869 5.77314 3.37007 5.79927 3.37606 5.82686C3.38676 5.87735 3.37969 5.92998 3.35606 5.97586C3.34466 5.99825 3.32888 6.01811 3.30963 6.03426C3.29039 6.05041 3.26808 6.06252 3.24406 6.06986C3.21361 6.07758 3.18184 6.07863 3.15095 6.07294C3.12005 6.06724 3.09076 6.05493 3.06507 6.03686C2.97316 5.98377 2.87416 5.94404 2.77106 5.91886C2.66544 5.89477 2.55739 5.88303 2.44906 5.88386C2.29916 5.87541 2.15051 5.91537 2.02506 5.99786C1.97672 6.03129 1.93743 6.0762 1.91072 6.12857C1.88402 6.18093 1.87074 6.2391 1.87206 6.29786C1.87017 6.34012 1.87761 6.38228 1.89385 6.42134C1.9101 6.4604 1.93475 6.49541 1.96606 6.52386C2.06057 6.59427 2.17133 6.63967 2.28806 6.65586L2.71606 6.74586C2.92864 6.77922 3.1285 6.86862 3.29506 7.00486C3.3586 7.06519 3.40845 7.13846 3.44122 7.21972C3.474 7.30098 3.48896 7.38833 3.48506 7.47586C3.48806 7.63162 3.44148 7.78429 3.35206 7.91186C3.25591 8.04334 3.12451 8.14492 2.97306 8.20486C2.79197 8.27601 2.5986 8.31067 2.40406 8.30686L2.39906 8.30586ZM4.73506 8.30586C4.63217 8.32111 4.52715 8.3122 4.4283 8.27983C4.32945 8.24746 4.2395 8.19252 4.16557 8.11936C4.09163 8.0462 4.03574 7.95683 4.00233 7.85833C3.96892 7.75983 3.9589 7.65491 3.97306 7.55186V6.71586H3.77307C3.63973 6.71586 3.57306 6.6542 3.57306 6.53086C3.57306 6.40753 3.63973 6.34586 3.77307 6.34586H3.97306V5.99186C3.96841 5.95834 3.9716 5.92419 3.98237 5.8921C3.99314 5.86002 4.01119 5.83086 4.03513 5.80693C4.05906 5.783 4.08822 5.76494 4.1203 5.75417C4.15239 5.7434 4.18654 5.74021 4.22006 5.74486C4.25337 5.74047 4.28723 5.74388 4.31899 5.7548C4.35076 5.76573 4.37954 5.78387 4.4031 5.80782C4.42666 5.83176 4.44433 5.86085 4.45474 5.89278C4.46514 5.92472 4.46799 5.95864 4.46306 5.99186V6.34886H4.87906C5.01239 6.34886 5.07906 6.41053 5.07906 6.53386C5.07906 6.6572 5.01239 6.71886 4.87906 6.71886H4.46306V7.52786C4.45523 7.62901 4.48437 7.72957 4.54506 7.81086C4.58012 7.8449 4.62215 7.87093 4.66825 7.88716C4.71434 7.90339 4.76341 7.90942 4.81206 7.90486C4.85172 7.90531 4.89131 7.90129 4.93006 7.89286C4.9597 7.88566 4.98976 7.88031 5.02006 7.87686C5.03458 7.87506 5.04933 7.87676 5.06307 7.8818C5.07681 7.88684 5.08915 7.89509 5.09906 7.90586C5.12467 7.94594 5.13562 7.99363 5.13006 8.04086C5.13072 8.08846 5.12188 8.13572 5.10406 8.17986C5.09575 8.19971 5.08322 8.2175 5.06733 8.23201C5.05144 8.24652 5.03258 8.25739 5.01206 8.26386C4.96839 8.27636 4.92397 8.28604 4.87906 8.29286C4.83349 8.30107 4.78735 8.30575 4.74106 8.30686L4.73506 8.30586ZM5.61506 8.29786C5.58097 8.3027 5.54623 8.29954 5.51357 8.28864C5.48091 8.27774 5.45123 8.25939 5.42688 8.23504C5.40253 8.2107 5.38418 8.18102 5.37328 8.14836C5.36237 8.1157 5.35922 8.08095 5.36406 8.04686V6.56286C5.35881 6.52984 5.36132 6.49606 5.37142 6.46418C5.38151 6.43231 5.39889 6.40323 5.42219 6.37925C5.44549 6.35527 5.47406 6.33706 5.50563 6.32605C5.5372 6.31505 5.5709 6.31156 5.60406 6.31586C5.63721 6.31156 5.67092 6.31505 5.70249 6.32605C5.73406 6.33706 5.76263 6.35527 5.78593 6.37925C5.80923 6.40323 5.82662 6.43231 5.83671 6.46418C5.8468 6.49606 5.84932 6.52984 5.84406 6.56286V6.68486C5.89677 6.57063 5.98154 6.47418 6.08807 6.40725C6.19459 6.34032 6.31827 6.30579 6.44406 6.30786C6.55673 6.29453 6.61939 6.35853 6.63206 6.49986C6.64473 6.64119 6.57806 6.71853 6.43206 6.73186L6.34606 6.73986C6.02406 6.7712 5.86306 6.9362 5.86306 7.23486V8.04786C5.86819 8.08165 5.86537 8.11617 5.85483 8.14868C5.84429 8.18119 5.82632 8.2108 5.80235 8.23516C5.77838 8.25951 5.74907 8.27795 5.71673 8.28901C5.68439 8.30007 5.64993 8.30344 5.61606 8.29886L5.61506 8.29786ZM7.81506 8.30586C7.62098 8.31083 7.42855 8.26898 7.25406 8.18386C7.10155 8.1069 6.97524 7.98651 6.89106 7.83786C6.8026 7.6755 6.75846 7.4927 6.76306 7.30786C6.75904 7.12612 6.80173 6.94638 6.88706 6.78586C6.96678 6.63976 7.08507 6.51835 7.22906 6.43486C7.38099 6.34754 7.55386 6.30329 7.72906 6.30686C7.84904 6.3009 7.9689 6.32095 8.08041 6.36566C8.19191 6.41037 8.29243 6.47866 8.37506 6.56586C8.54207 6.76232 8.62727 7.0154 8.61306 7.27286C8.61306 7.36953 8.55039 7.41786 8.42506 7.41786H7.23906C7.23974 7.49171 7.25605 7.56457 7.28692 7.63166C7.31779 7.69875 7.36252 7.75854 7.41816 7.8071C7.4738 7.85566 7.5391 7.89188 7.60975 7.91338C7.6804 7.93489 7.7548 7.94118 7.82806 7.93186C7.90539 7.93073 7.98243 7.92203 8.05806 7.90586C8.14244 7.88909 8.22372 7.85941 8.29906 7.81786C8.32382 7.80017 8.35195 7.78775 8.38172 7.78139C8.41148 7.77502 8.44223 7.77484 8.47206 7.78086C8.49384 7.78675 8.51407 7.79731 8.53134 7.81182C8.54861 7.82632 8.56251 7.84443 8.57206 7.86486C8.59129 7.90874 8.59413 7.95807 8.58006 8.00386C8.56116 8.06067 8.52103 8.10796 8.46806 8.13586C8.37066 8.19596 8.26383 8.23923 8.15206 8.26386C8.04435 8.29046 7.93399 8.30489 7.82306 8.30686L7.81506 8.30586ZM7.74406 6.64086C7.6799 6.63818 7.61588 6.64859 7.55588 6.67146C7.49588 6.69432 7.44116 6.72917 7.39506 6.77386C7.30175 6.87229 7.24495 6.99968 7.23406 7.13486H8.20006C8.19909 7.00108 8.15253 6.87162 8.06806 6.76786C8.02728 6.72573 7.97803 6.69271 7.92356 6.67099C7.86909 6.64927 7.81065 6.63935 7.75206 6.64186L7.74406 6.64086ZM9.62906 8.30586C9.50086 8.30832 9.37385 8.28093 9.25806 8.22586C9.15524 8.17708 9.06724 8.10184 9.00306 8.00786C8.94168 7.91624 8.90959 7.80813 8.91106 7.69786C8.90434 7.57604 8.9436 7.45613 9.02106 7.36186C9.11856 7.26654 9.24335 7.20398 9.37806 7.18286C9.59686 7.14137 9.81942 7.12294 10.0421 7.12786H10.1791V7.04586C10.1888 6.94389 10.1579 6.84219 10.0931 6.76286C10.0111 6.69709 9.9066 6.6662 9.80206 6.67686C9.71969 6.67743 9.63759 6.68648 9.55706 6.70386C9.4615 6.72473 9.36859 6.75626 9.28006 6.79786C9.25652 6.81174 9.23003 6.81988 9.20275 6.82162C9.17548 6.82336 9.14818 6.81865 9.12306 6.80786C9.10252 6.79693 9.08445 6.78187 9.06999 6.76363C9.05554 6.74539 9.04501 6.72436 9.03906 6.70186C9.02477 6.6534 9.02759 6.60149 9.04706 6.55486C9.05823 6.52914 9.07469 6.50605 9.09536 6.4871C9.11604 6.46815 9.14047 6.45376 9.16706 6.44486C9.2788 6.39774 9.39507 6.36222 9.51406 6.33886C9.61291 6.31943 9.71332 6.30906 9.81406 6.30786C10.0393 6.28973 10.2628 6.35922 10.4381 6.50186C10.5104 6.58303 10.5655 6.6781 10.5999 6.78126C10.6343 6.88442 10.6473 6.99351 10.6381 7.10186V8.04386C10.6381 8.21119 10.5621 8.29486 10.4101 8.29486C10.2581 8.29486 10.1807 8.21119 10.1781 8.04386V7.95786C10.1358 8.0624 10.0616 8.15093 9.96606 8.21086C9.86735 8.2726 9.75349 8.30583 9.63706 8.30686L9.62906 8.30586ZM9.72906 7.96786C9.78876 7.96948 9.84812 7.95847 9.90327 7.93555C9.95841 7.91263 10.0081 7.87831 10.0491 7.83486C10.0917 7.78979 10.125 7.73671 10.1469 7.67869C10.1689 7.62067 10.1791 7.55887 10.1771 7.49686V7.41086H10.0441C9.87142 7.40152 9.69842 7.42078 9.53206 7.46786C9.48888 7.48168 9.45146 7.50935 9.42561 7.5466C9.39975 7.58384 9.38691 7.62857 9.38906 7.67386C9.38778 7.71361 9.39517 7.75317 9.41071 7.78978C9.42625 7.82639 9.44957 7.85918 9.47906 7.88586C9.55142 7.94668 9.64485 7.9765 9.73906 7.96886L9.72906 7.96786ZM11.3861 8.29786C11.3525 8.30197 11.3184 8.29824 11.2864 8.28695C11.2545 8.27566 11.2257 8.25713 11.2021 8.23281C11.1786 8.20849 11.161 8.17904 11.1507 8.14678C11.1405 8.11451 11.1379 8.08031 11.1431 8.04686V5.71486C11.1381 5.68164 11.141 5.64772 11.1514 5.61578C11.1618 5.58385 11.1795 5.55476 11.203 5.53082C11.2266 5.50687 11.2554 5.48873 11.2871 5.4778C11.3189 5.46688 11.3528 5.46347 11.3861 5.46786C11.4196 5.46322 11.4537 5.4664 11.4858 5.47717C11.5179 5.48794 11.5471 5.506 11.571 5.52993C11.5949 5.55386 11.613 5.58302 11.6238 5.6151C11.6345 5.64719 11.6377 5.68134 11.6331 5.71486V7.16386H11.6411L12.2891 6.48086C12.3317 6.43687 12.3775 6.3961 12.4261 6.35886C12.4738 6.32772 12.5302 6.31265 12.5871 6.31586C12.6151 6.31386 12.6433 6.31752 12.6699 6.32662C12.6966 6.33573 12.7211 6.35009 12.7421 6.36886C12.7592 6.38543 12.7727 6.40534 12.7818 6.42736C12.791 6.44938 12.7955 6.47304 12.7951 6.49686C12.7916 6.55386 12.7662 6.60729 12.7241 6.64586L12.1351 7.26586L12.7911 7.97286C12.812 7.99199 12.8286 8.01534 12.8398 8.04137C12.851 8.06741 12.8565 8.09552 12.8561 8.12386C12.8546 8.14824 12.8481 8.17204 12.8369 8.19374C12.8257 8.21544 12.8101 8.23456 12.7911 8.24986C12.7489 8.28354 12.696 8.30093 12.6421 8.29886C12.5808 8.30211 12.5199 8.28715 12.4671 8.25586C12.4144 8.21838 12.3664 8.17473 12.3241 8.12586L11.6411 7.41086H11.6331V8.04686C11.638 8.0798 11.6355 8.11344 11.6256 8.14524C11.6156 8.17704 11.5986 8.20618 11.5758 8.23044C11.553 8.25471 11.5249 8.27348 11.4938 8.28533C11.4627 8.29718 11.4292 8.30181 11.3961 8.29886L11.3861 8.29786Z" fill="#FDBF29"/>
</g>
<defs>
<clipPath id="clip0_299_16">
<rect width="14" height="9" fill="white" transform="translate(0.109619)"/>
</clipPath>
</defs>
</svg>
