<svg xmlns="http://www.w3.org/2000/svg" width="64.981" height="65.035" viewBox="0 0 64.981 65.035">
    <path id="user-link_1_" data-name="user-link (1)" d="M24.354,32.516A16.258,16.258,0,1,0,8.1,16.258,16.275,16.275,0,0,0,24.354,32.516Zm0-24.387a8.129,8.129,0,1,1-8.129,8.129A8.139,8.139,0,0,1,24.354,8.129ZM29.66,42.285a4.038,4.038,0,0,1-4.3,3.81c-.333-.019-.667-.03-1-.03A16.3,16.3,0,0,0,8.14,61.144a4.065,4.065,0,1,1-8.11-.577A24.458,24.458,0,0,1,24.354,37.936c.5,0,1,.016,1.5.046A4.061,4.061,0,0,1,29.66,42.285ZM47.747,59.25a2.711,2.711,0,0,1-.634,3.78,11.459,11.459,0,0,1-6.5,2.005,10.325,10.325,0,0,1-7.449-3.176,10.851,10.851,0,0,1,0-15.326L37,42.7A10.866,10.866,0,0,1,49.335,40.58,2.708,2.708,0,1,1,47,45.469a5.426,5.426,0,0,0-6.17,1.062L37,50.362a5.42,5.42,0,0,0,6.972,8.251,2.716,2.716,0,0,1,3.78.634ZM65,40.7a10.76,10.76,0,0,1-3.176,7.663L57.993,52.2a10.858,10.858,0,0,1-12.337,2.119,2.708,2.708,0,1,1,2.333-4.888,5.433,5.433,0,0,0,6.17-1.062l3.832-3.832a5.42,5.42,0,0,0-6.969-8.254,2.71,2.71,0,1,1-3.146-4.414,10.841,10.841,0,0,1,17.12,8.836Z" transform="translate(-0.019)" fill="#938114"/>
</svg>
