<svg xmlns="http://www.w3.org/2000/svg" width="50" height="50" viewBox="0 0 50 50">
    <path id="bullseye-arrow_1_" data-name="bullseye-arrow (1)" d="M37.384,11.4c.077-4.9.393-5.493,1.35-6.45,1.448-1.448,1.38-1.409,1.634-1.664,2.309-2.309,4.293-2.75,5.4-1.861,1.175.941.486,4.33.486,4.33s3.391-.691,4.33.486c.861,1.08.457,3.07-1.87,5.4-.255.255-.214.184-1.659,1.63-1.107,1.107-1.507,1.318-6.468,1.357L32.15,23.061a2.272,2.272,0,0,1-3.214-3.214L37.382,11.4ZM50.5,18.832a2.274,2.274,0,1,0-4.493.7A42.507,42.507,0,0,1,46.452,26c0,14.911-5.543,20.455-20.455,20.455S5.545,40.911,5.545,26,11.089,5.545,26,5.545a42.261,42.261,0,0,1,6.468.448,2.274,2.274,0,0,0,.7-4.493A47.066,47.066,0,0,0,26,1C8.477,1,1,8.477,1,26S8.477,51,26,51s25-7.477,25-25a46.345,46.345,0,0,0-.5-7.168Zm-19.961-6.22a2.271,2.271,0,0,0-2.1-2.434q-1.159-.085-2.441-.086C15,10.091,10.091,15,10.091,26S15,41.909,26,41.909,41.909,37,41.909,26q0-1.282-.086-2.441a2.272,2.272,0,1,0-4.532.336q.072,1,.073,2.1c0,8.5-2.868,11.364-11.364,11.364S14.636,34.5,14.636,26,17.5,14.636,26,14.636c.739,0,1.439.023,2.1.073a2.288,2.288,0,0,0,2.434-2.1Zm-6.28,8.282a2.275,2.275,0,0,0-3.211-.13c-1.257,1.159-1.866,2.873-1.866,5.236,0,4.525,2.293,6.818,6.818,6.818,2.366,0,4.08-.611,5.239-1.866A2.273,2.273,0,0,0,27.9,27.87c-.111.123-.52.4-1.9.4-2,0-2.273-.277-2.273-2.273,0-1.375.282-1.784.4-1.9a2.273,2.273,0,0,0,.13-3.211Z" transform="translate(-1 -1)" fill="#a1f4a7"/>
</svg>
