<svg xmlns="http://www.w3.org/2000/svg" width="49.998" height="50" viewBox="0 0 49.998 50">
    <path id="gift-box-benefits_1_" data-name="gift-box-benefits (1)" d="M41.665,10.417H38.676A6.988,6.988,0,0,0,28.4,1.4,13.243,13.243,0,0,0,25,5.317,13.236,13.236,0,0,0,21.6,1.4,6.993,6.993,0,0,0,10.487,7.982a7.034,7.034,0,0,0,.831,2.435H8.333A8.341,8.341,0,0,0,0,18.75v4.167a4.171,4.171,0,0,0,4.167,4.167v12.5A10.428,10.428,0,0,0,14.583,50h8.333a2.083,2.083,0,0,0,0-4.167H14.583a6.257,6.257,0,0,1-6.25-6.25v-12.5H31.249a2.083,2.083,0,1,0,0-4.167H4.167V18.75a4.171,4.171,0,0,1,4.167-4.167H41.661a4.171,4.171,0,0,1,4.167,4.167v4.167a2.083,2.083,0,0,0,0,4.167,4.171,4.171,0,0,0,4.167-4.167V18.75a8.341,8.341,0,0,0-8.333-8.333ZM30.893,4.732a2.828,2.828,0,0,1,4.5,2.66A2.862,2.862,0,0,1,34.22,9.3a9.108,9.108,0,0,1-2.121,1.11H27.291a11.289,11.289,0,0,1,3.6-5.685ZM15.712,9.255a2.828,2.828,0,0,1,3.4-4.523,11.3,11.3,0,0,1,3.6,5.685H17.9a8.965,8.965,0,0,1-2.187-1.162Zm34.17,25.4a1.91,1.91,0,0,1-.565,2.117L44.8,40.447l1.869,5.692a1.91,1.91,0,0,1-2.856,2.2l-5.258-3.425-5.171,3.46a1.91,1.91,0,0,1-2.885-2.16l1.8-5.76L27.753,36.76a1.911,1.911,0,0,1,1.235-3.367H34.72L36.749,27.7a1.909,1.909,0,0,1,3.579,0l2.029,5.691h5.731a1.911,1.911,0,0,1,1.794,1.254Z" transform="translate(0 0.001)" fill="#a1f4ea"/>
</svg>
