<svg xmlns="http://www.w3.org/2000/svg" width="52.825" height="52.984" viewBox="0 0 52.825 52.984">
    <path id="badget-check-alt" d="M35.668,19.02,27.32,27.367a4.4,4.4,0,0,1-6.224,0L16.05,22.321l3.112-3.112,5.046,5.046,8.347-8.347ZM52.818,41.941h-11v11l-9.461-9.461a8.34,8.34,0,0,1-2.093,1.71,8.047,8.047,0,0,1-7.751,0,8.28,8.28,0,0,1-2.073-1.684L11,52.942v-11H0l7.722-7.722a8.049,8.049,0,0,1,.167-2.364,1.83,1.83,0,0,0-.843-1.906A8.222,8.222,0,0,1,4.3,26.973a8.2,8.2,0,0,1,0-7.8A8.245,8.245,0,0,1,7.049,16.2,1.828,1.828,0,0,0,7.894,14.3a8.217,8.217,0,0,1,.136-4.133,8.055,8.055,0,0,1,5.48-5.48,8.226,8.226,0,0,1,4.129-.134,1.818,1.818,0,0,0,1.906-.843A8.212,8.212,0,0,1,22.514.956a8.039,8.039,0,0,1,7.749,0,8.229,8.229,0,0,1,2.969,2.751,1.825,1.825,0,0,0,1.906.845,8.174,8.174,0,0,1,4.129.134,8.055,8.055,0,0,1,5.482,5.478,8.227,8.227,0,0,1,.136,4.135,1.828,1.828,0,0,0,.845,1.9,8.236,8.236,0,0,1,2.751,2.971h0a8.21,8.21,0,0,1,0,7.8,8.2,8.2,0,0,1-2.751,2.971,1.829,1.829,0,0,0-.845,1.906,8.042,8.042,0,0,1,.172,2.317l7.769,7.769Zm-16.71-4.633a3.816,3.816,0,0,0,1.941-.075,3.67,3.67,0,0,0,2.465-2.46,3.867,3.867,0,0,0,.073-1.941,6.243,6.243,0,0,1,2.751-6.58,3.882,3.882,0,0,0,1.287-1.406,3.806,3.806,0,0,0,0-3.537A3.9,3.9,0,0,0,43.337,19.9a6.241,6.241,0,0,1-2.751-6.576,3.884,3.884,0,0,0-.075-1.945,3.671,3.671,0,0,0-2.463-2.46,3.9,3.9,0,0,0-1.943-.075,6.247,6.247,0,0,1-6.578-2.751,3.882,3.882,0,0,0-1.406-1.287,3.658,3.658,0,0,0-3.482,0,3.856,3.856,0,0,0-1.4,1.287,6.247,6.247,0,0,1-6.578,2.751,3.861,3.861,0,0,0-1.945.075,3.661,3.661,0,0,0-2.458,2.46,3.885,3.885,0,0,0-.075,1.945A6.237,6.237,0,0,1,9.428,19.9a3.849,3.849,0,0,0-1.285,1.4,3.582,3.582,0,0,0-.436,1.761,3.62,3.62,0,0,0,.436,1.778A3.88,3.88,0,0,0,9.43,26.254a6.236,6.236,0,0,1,2.749,6.578,3.876,3.876,0,0,0,.075,1.943,3.668,3.668,0,0,0,2.46,2.46,3.878,3.878,0,0,0,1.943.075,6,6,0,0,1,1.323-.147,6.3,6.3,0,0,1,5.255,2.9,3.873,3.873,0,0,0,1.4,1.287,3.658,3.658,0,0,0,3.482,0,3.9,3.9,0,0,0,1.406-1.29,6.241,6.241,0,0,1,6.578-2.749Z" transform="translate(0 0.039)" fill="#f4e0a0"/>
</svg>
