<svg xmlns="http://www.w3.org/2000/svg" width="66.161" height="66.248" viewBox="0 0 66.161 66.248">
    <path id="family_1_" data-name="family (1)" d="M8.281,6.9a6.9,6.9,0,1,1,6.9,6.9A6.9,6.9,0,0,1,8.281,6.9Zm9.661,9.661H12.422A12.437,12.437,0,0,0,0,28.984v8.281A12.42,12.42,0,0,0,5.521,47.588V62.108a4.141,4.141,0,1,0,8.281,0V49.449a4.14,4.14,0,0,0-1.38-8.044,4.142,4.142,0,0,1-4.141-4.141V28.984a4.146,4.146,0,0,1,4.141-4.141h5.521a4.141,4.141,0,0,0,0-8.281ZM33.124,27.6a6.9,6.9,0,1,0-6.9-6.9A6.9,6.9,0,0,0,33.124,27.6ZM44.165,40.025v5.521a9.614,9.614,0,0,1-1.38,4.971V62.108a4.141,4.141,0,0,1-8.281,0v-6.9h-2.76v6.9a4.141,4.141,0,0,1-8.281,0V50.517a9.607,9.607,0,0,1-1.38-4.971V40.025a9.672,9.672,0,0,1,9.661-9.661H34.5A9.672,9.672,0,0,1,44.165,40.025Zm-9.661,6.9a1.382,1.382,0,0,0,1.38-1.38V40.025a1.382,1.382,0,0,0-1.38-1.38h-2.76a1.382,1.382,0,0,0-1.38,1.38v5.521a1.382,1.382,0,0,0,1.38,1.38ZM51.047,13.8a6.9,6.9,0,1,0-6.9-6.9A6.9,6.9,0,0,0,51.047,13.8ZM66.069,44.24,63.816,27.705A12.933,12.933,0,0,0,51.05,16.562a13.116,13.116,0,0,0-2.015.157A4.141,4.141,0,0,0,50.3,24.9a4.722,4.722,0,0,1,5.308,3.922l2.252,16.534a1.352,1.352,0,0,1-.328,1.093,1.374,1.374,0,0,1-1.038.472H53.81a4.14,4.14,0,0,0-1.38,8.044v7.138a4.141,4.141,0,0,0,8.281,0V54.241a9.657,9.657,0,0,0,5.361-10Z" fill="#8b0a86"/>
</svg>
