<svg width="128" height="128" viewBox="0 0 128 128" fill="none" xmlns="http://www.w3.org/2000/svg">
<path d="M45.6853 31.7867C45.3038 29.1592 45.4922 26.4804 46.2376 23.9321C46.983 21.3839 48.2679 19.0258 50.0052 17.0181C51.7425 15.0104 53.8915 13.3999 56.3062 12.2962C58.721 11.1924 61.3449 10.6211 64 10.6211C66.655 10.6211 69.2789 11.1924 71.6937 12.2962C74.1084 13.3999 76.2574 15.0104 77.9947 17.0181C79.732 19.0258 81.0169 21.3839 81.7623 23.9321C82.5077 26.4804 82.6961 29.1592 82.3146 31.7867L76.1706 74.7734C75.7454 77.6978 74.2814 80.3713 72.0464 82.3047C69.8115 84.2382 66.9551 85.3022 64 85.3022C61.0448 85.3022 58.1884 84.2382 55.9535 82.3047C53.7186 80.3713 52.2545 77.6978 51.8293 74.7734L45.6853 31.7867ZM74.6666 106.667C74.6666 109.496 73.5428 112.209 71.5424 114.209C69.542 116.21 66.8289 117.333 64 117.333C61.171 117.333 58.4579 116.21 56.4575 114.209C54.4571 112.209 53.3333 109.496 53.3333 106.667C53.3333 103.838 54.4571 101.125 56.4575 99.1242C58.4579 97.1238 61.171 96 64 96C66.8289 96 69.542 97.1238 71.5424 99.1242C73.5428 101.125 74.6666 103.838 74.6666 106.667Z" fill="#FF0000"/>
</svg>
