<svg xmlns="http://www.w3.org/2000/svg" width="42.325" height="38.382" viewBox="0 0 42.325 38.382">
    <g id="Path_638" data-name="Path 638" transform="translate(-3.588 -2.96)" fill="#cecece">
        <path d="M 35.71255111694336 40.59210205078125 C 35.14385986328125 40.59212112426758 34.5908317565918 40.44108963012695 34.06882095336914 40.14323043823242 L 27.13694190979004 36.18778991699219 C 26.4112720489502 35.77371215820312 25.58608245849609 35.55484008789062 24.75058174133301 35.55484008789062 C 23.91507148742676 35.55484008789062 23.08988189697266 35.77371215820312 22.36421203613281 36.18778991699219 L 15.43233203887939 40.14323043823242 C 14.91035175323486 40.44108200073242 14.35732173919678 40.59210205078125 13.78860187530518 40.59210205078125 C 12.7587718963623 40.59210205078125 11.76261138916016 40.08756256103516 11.12387180328369 39.24245071411133 C 10.49485206604004 38.41020965576172 10.30885219573975 37.38630294799805 10.60013198852539 36.35935974121094 L 12.27751159667969 30.44553184509277 C 12.81832218170166 28.53882217407227 12.11495208740234 26.46070098876953 10.52727127075195 25.27439117431641 L 5.67492151260376 21.64876174926758 C 4.304771900177002 20.62500190734863 4.161611557006836 19.11265182495117 4.484501838684082 18.03868103027344 C 4.807381629943848 16.96471214294434 5.760801792144775 15.78204154968262 7.468341827392578 15.68359088897705 L 14.62783145904541 15.27077102661133 C 16.44195175170898 15.16617107391357 18.02410125732422 14.06821155548096 18.75687217712402 12.40537166595459 L 21.71701240539551 5.687961101531982 C 22.25472259521484 4.467721462249756 23.41712188720703 3.709701299667358 24.75058174133301 3.709701299667358 C 26.08404159545898 3.709701299667358 27.24643135070801 4.467721462249756 27.78415107727051 5.687961101531982 L 30.74429130554199 12.40537166595459 C 31.47705268859863 14.06821155548096 33.05920028686523 15.16617107391357 34.87332153320312 15.27077102661133 L 42.03282165527344 15.68358135223389 C 43.74036026000977 15.78204154968262 44.69378280639648 16.96471214294434 45.01667022705078 18.03867149353027 C 45.33955001831055 19.11264228820801 45.19639205932617 20.62500190734863 43.82624053955078 21.64876174926758 L 38.97388076782227 25.27439117431641 C 37.38619995117188 26.4606819152832 36.68284225463867 28.53881072998047 37.22365188598633 30.44553184509277 L 38.90103149414062 36.35935974121094 C 39.1922721862793 37.38616943359375 39.00624084472656 38.4100227355957 38.37722015380859 39.24229049682617 C 37.73843002319336 40.08748245239258 36.74229049682617 40.59208297729492 35.71255111694336 40.59210205078125 Z" stroke="none"/>
        <path d="M 24.75057220458984 4.459701538085938 C 23.70316123962402 4.459701538085938 22.82569122314453 5.03192138671875 22.40332221984863 5.990390777587891 L 19.44318199157715 12.70780944824219 C 18.59628105163574 14.62966156005859 16.76769256591797 15.89863204956055 14.67101287841797 16.01952171325684 L 7.511512756347656 16.43234062194824 C 6.190292358398438 16.50852203369141 5.452571868896484 17.42362213134766 5.202732086181641 18.25461196899414 C 4.952899932861328 19.08561134338379 5.063671112060547 20.25581169128418 6.12384033203125 21.04795074462891 L 10.97619247436523 24.67358207702637 C 12.81117248535156 26.0446720123291 13.62409210205078 28.44648170471191 12.99904251098633 30.65019226074219 L 11.32166290283203 36.56401062011719 C 11.01727294921875 37.63718032836914 11.44195175170898 38.41944122314453 11.72219085693359 38.79022979736328 C 12.22001266479492 39.44888305664062 12.99249267578125 39.84210205078125 13.78859329223633 39.84210205078125 C 14.22531127929688 39.84210205078125 14.65328216552734 39.72425079345703 15.06062316894531 39.4918098449707 L 21.99250221252441 35.53638076782227 C 22.83121109008789 35.05780029296875 23.78493118286133 34.80484008789062 24.75057220458984 34.80484008789062 C 25.71622085571289 34.80484008789062 26.66994094848633 35.05780029296875 27.50865173339844 35.53638076782227 L 34.44052124023438 39.4918212890625 C 34.84785079956055 39.72425079345703 35.27583312988281 39.84210205078125 35.71256256103516 39.84210205078125 C 36.50855255126953 39.84210205078125 37.28100204467773 39.4488410949707 37.77886199951172 38.79013061523438 C 38.05912017822266 38.4193229675293 38.48384094238281 37.63703155517578 38.17949295043945 36.56402206420898 L 36.50211334228516 30.65018081665039 C 35.87705993652344 28.44646072387695 36.68999099731445 26.04464149475098 38.52496337890625 24.67358207702637 L 43.37732315063477 21.04795074462891 C 44.43748092651367 20.25581169128418 44.54826354980469 19.08561134338379 44.29842376708984 18.2546215057373 C 44.04859161376953 17.42362213134766 43.31087112426758 16.50852203369141 41.98964309692383 16.43233108520508 L 34.83015060424805 16.01952171325684 C 32.73345184326172 15.89863204956055 30.90486145019531 14.62965202331543 30.05798149108887 12.70780944824219 L 27.09782218933105 5.990390777587891 C 26.67546081542969 5.03192138671875 25.79798126220703 4.459701538085938 24.75057220458984 4.459701538085938 M 24.75057601928711 2.959697723388672 C 26.25419425964355 2.959697723388672 27.7578125 3.768306732177734 28.47046089172363 5.385520935058594 L 31.43061256408691 12.10293197631836 C 32.04618072509766 13.49985122680664 33.39249420166016 14.43414115905762 34.9164924621582 14.52201080322266 L 42.07599258422852 14.93482208251953 C 45.86252212524414 15.15316200256348 47.31351089477539 19.97934150695801 44.27516174316406 22.24957084655762 L 39.42280197143555 25.87520217895508 C 38.07317352294922 26.88362121582031 37.4854736328125 28.62005043029785 37.9451904296875 30.24088096618652 L 39.62257385253906 36.15471267700195 C 40.61589050292969 39.65679931640625 36.85885238647461 42.59877395629883 33.69711303710938 40.79463958740234 L 26.7652416229248 36.83920288085938 C 25.51662254333496 36.12672424316406 23.98453140258789 36.1267204284668 22.73591232299805 36.83920288085938 L 15.80403137207031 40.79463195800781 C 12.64230728149414 42.59877395629883 8.885257720947266 39.65679931640625 9.878593444824219 36.15470123291016 L 11.55597305297852 30.24088096618652 C 12.01568984985352 28.62005043029785 11.42797088623047 26.88363075256348 10.07835006713867 25.87520217895508 L 5.226001739501953 22.24957084655762 C 2.187652587890625 19.97935104370117 3.638629913330078 15.15316200256348 7.425163269042969 14.9348316192627 L 14.58466339111328 14.52201080322266 C 16.10866165161133 14.43414115905762 17.45497131347656 13.49985122680664 18.0705509185791 12.10293197631836 L 21.03069114685059 5.385520935058594 C 21.74334144592285 3.768306732177734 23.2469596862793 2.959697723388672 24.75057601928711 2.959697723388672 Z" stroke="none" fill="#5a5a5a"/>
    </g>
</svg>
