<svg width="18" height="18" viewBox="0 0 18 18" fill="none" xmlns="http://www.w3.org/2000/svg">
<path d="M8.4514 2.87383C8.58211 2.57778 8.79471 2.32636 9.06353 2.14994C9.33235 1.97352 9.64589 1.87964 9.96628 1.87964C10.2867 1.87964 10.6002 1.97352 10.869 2.14994C11.1379 2.32636 11.3505 2.57778 11.4812 2.87383L12.5746 5.35074C12.6906 5.61199 12.8708 5.83885 13.0979 6.00977C13.325 6.18069 13.5915 6.28997 13.8721 6.32723L16.5584 6.68659C16.8663 6.72779 17.1567 6.85564 17.3964 7.05561C17.636 7.25557 17.8154 7.51961 17.9142 7.81768C18.0129 8.11575 18.0269 8.43587 17.9548 8.74163C17.8826 9.0474 17.727 9.32651 17.5058 9.54721L15.4227 11.6261C15.2303 11.8182 15.0872 12.0549 15.0058 12.3156C14.9244 12.5764 14.9072 12.8533 14.9556 13.1224L15.4758 16.0157C15.5325 16.3312 15.4989 16.6565 15.3787 16.9532C15.2586 17.2499 15.0571 17.5056 14.7979 17.6901C14.5388 17.8746 14.2329 17.9801 13.9164 17.9942C13.5999 18.0083 13.286 17.9304 13.0118 17.7697L10.7959 16.4758C10.5437 16.3285 10.2575 16.2509 9.96628 16.2509C9.67503 16.2509 9.3889 16.3285 9.13667 16.4758L6.92159 17.7739C6.64743 17.9346 6.33354 18.0125 6.01702 17.9984C5.7005 17.9843 5.39459 17.8788 5.13545 17.6943C4.87631 17.5098 4.67477 17.2541 4.55465 16.9574C4.43454 16.6607 4.40087 16.3354 4.45763 16.0199L4.97697 13.1282C5.02538 12.8592 5.00813 12.5823 4.92673 12.3215C4.84533 12.0608 4.70224 11.8241 4.5099 11.632L2.42591 9.54973C2.20469 9.32897 2.04915 9.04979 1.977 8.74397C1.90486 8.43814 1.91899 8.11796 2.01781 7.81987C2.11662 7.52178 2.29614 7.25775 2.53593 7.05784C2.77572 6.85794 3.06615 6.73018 3.37416 6.68911L6.06045 6.32723C6.34106 6.28997 6.60759 6.18069 6.83469 6.00977C7.0618 5.83885 7.24193 5.61199 7.35797 5.35074L8.4514 2.87383Z" fill="#BDCB33"/>
<path d="M6.51976 0.99419C6.65047 0.698142 6.86307 0.446724 7.13189 0.270302C7.40071 0.0938802 7.71425 0 8.03464 0C8.35503 0 8.66857 0.0938802 8.93739 0.270302C9.20621 0.446724 9.41881 0.698142 9.54952 0.99419L10.643 3.4711C10.759 3.73235 10.9391 3.95921 11.1662 4.13013C11.3933 4.30105 11.6599 4.41033 11.9405 4.44759L14.6268 4.80695C14.9347 4.84815 15.225 4.97601 15.4647 5.17597C15.7044 5.37593 15.8838 5.63997 15.9825 5.93804C16.0812 6.23611 16.0953 6.55624 16.0231 6.862C15.9509 7.16776 15.7954 7.44687 15.5742 7.66757L13.491 9.7465C13.2987 9.93855 13.1556 10.1752 13.0742 10.436C12.9928 10.6968 12.9755 10.9737 13.0239 11.2427L13.5441 14.1361C13.6009 14.4515 13.5672 14.7769 13.4471 15.0736C13.327 15.3703 13.1254 15.626 12.8663 15.8105C12.6072 15.9949 12.3012 16.1005 11.9847 16.1146C11.6682 16.1287 11.3543 16.0508 11.0802 15.8901L8.86426 14.5962C8.61202 14.4488 8.3259 14.3712 8.03464 14.3712C7.74338 14.3712 7.45726 14.4488 7.20502 14.5962L4.98995 15.8943C4.71579 16.055 4.4019 16.1329 4.08538 16.1188C3.76886 16.1047 3.46295 15.9991 3.20381 15.8147C2.94467 15.6302 2.74313 15.3745 2.62301 15.0778C2.5029 14.7811 2.46923 14.4557 2.52599 14.1403L3.04533 11.2486C3.09374 10.9796 3.07649 10.7026 2.99509 10.4419C2.91369 10.1811 2.7706 9.94443 2.57826 9.75237L0.494265 7.67009C0.273048 7.44933 0.117513 7.17015 0.0453642 6.86433C-0.0267842 6.55851 -0.0126476 6.23833 0.0861651 5.94023C0.184978 5.64214 0.364497 5.37811 0.604288 5.17821C0.844078 4.9783 1.13451 4.85054 1.44252 4.80947L4.12881 4.44759C4.40942 4.41033 4.67595 4.30105 4.90305 4.13013C5.13016 3.95921 5.31029 3.73235 5.42633 3.4711L6.51976 0.99419Z" fill="#F3FF67"/>
</svg>
