<svg xmlns="http://www.w3.org/2000/svg" width="42.325" height="38.382" viewBox="0 0 42.325 38.382">
  <g id="Path_638" data-name="Path 638" transform="translate(-3.588 -2.96)" fill="#ffeb00">
    <path d="M 35.71254348754883 40.59209823608398 C 35.14385986328125 40.59212112426758 34.5908317565918 40.44108963012695 34.06882095336914 40.14323043823242 L 27.13694190979004 36.18778991699219 C 26.4112720489502 35.77370834350586 25.58608245849609 35.55484008789062 24.75058174133301 35.55484008789062 C 23.91507148742676 35.55484008789062 23.08988189697266 35.77370834350586 22.36421203613281 36.18778991699219 L 15.43234157562256 40.14321899414062 C 14.91035175323486 40.44107055664062 14.35731220245361 40.59209823608398 13.7885913848877 40.59209823608398 C 12.7587718963623 40.59209823608398 11.76261138916016 40.08755874633789 11.12387180328369 39.24245071411133 C 10.49485206604004 38.41019821166992 10.30885219573975 37.38629913330078 10.60013198852539 36.35935974121094 L 12.27751159667969 30.44551849365234 C 12.81832218170166 28.53880882263184 12.11495208740234 26.46068954467773 10.52727127075195 25.27438926696777 L 5.67492151260376 21.64875984191895 C 4.304771900177002 20.625 4.161611557006836 19.11264991760254 4.484501838684082 18.0386791229248 C 4.807381629943848 16.9647102355957 5.760801792144775 15.78203964233398 7.468341827392578 15.68358898162842 L 14.62783145904541 15.2707691192627 C 16.44195175170898 15.16616916656494 18.02410125732422 14.06820964813232 18.75687217712402 12.40536975860596 L 21.71701240539551 5.68795919418335 C 22.25472259521484 4.467729568481445 23.41712188720703 3.709709405899048 24.75058174133301 3.709709405899048 C 26.08404159545898 3.709709405899048 27.24643135070801 4.467729568481445 27.78415107727051 5.68795919418335 L 30.74429130554199 12.40536975860596 C 31.47705268859863 14.06820964813232 33.05920028686523 15.16616916656494 34.87332153320312 15.2707691192627 L 42.03282165527344 15.68357944488525 C 43.74036026000977 15.78203964233398 44.69378280639648 16.9647102355957 45.01667022705078 18.03866958618164 C 45.33955001831055 19.11264038085938 45.19639205932617 20.625 43.82624053955078 21.64875984191895 L 38.97388076782227 25.27438926696777 C 37.38619995117188 26.46068000793457 36.68284225463867 28.53879928588867 37.22365188598633 30.44551849365234 L 38.90103149414062 36.35935974121094 C 39.1922721862793 37.38616943359375 39.00624084472656 38.41001129150391 38.37722015380859 39.24229049682617 C 37.73843002319336 40.08747100830078 36.74229049682617 40.59207916259766 35.71254348754883 40.59209823608398 Z" stroke="none"/>
    <path d="M 24.75057220458984 4.459697723388672 C 23.70316123962402 4.459697723388672 22.82569122314453 5.031917572021484 22.40332221984863 5.990390777587891 L 19.44318199157715 12.70780944824219 C 18.59628105163574 14.62965965270996 16.76769256591797 15.89863014221191 14.67101287841797 16.0195198059082 L 7.511512756347656 16.43233871459961 C 6.190292358398438 16.50852012634277 5.452571868896484 17.42362022399902 5.202732086181641 18.25461006164551 C 4.952899932861328 19.08560943603516 5.063671112060547 20.25580978393555 6.12384033203125 21.04794883728027 L 10.97619247436523 24.67358016967773 C 12.81117248535156 26.04465866088867 13.62409210205078 28.44647026062012 12.99905014038086 30.65018081665039 L 11.32166290283203 36.56401062011719 C 11.01727294921875 37.63718032836914 11.44195175170898 38.41944122314453 11.72219085693359 38.79022979736328 C 12.22001266479492 39.44887924194336 12.99249267578125 39.84209823608398 13.78859329223633 39.84209823608398 C 14.22531127929688 39.84209823608398 14.65328216552734 39.72425079345703 15.06062316894531 39.4918098449707 L 21.99250221252441 35.53638076782227 C 22.83121109008789 35.05780029296875 23.78493118286133 34.80484008789062 24.75057220458984 34.80484008789062 C 25.71622085571289 34.80484008789062 26.66994094848633 35.05780029296875 27.50865173339844 35.53638076782227 L 34.44052124023438 39.4918212890625 C 34.84785079956055 39.72425079345703 35.27583312988281 39.84209823608398 35.71256256103516 39.84209823608398 C 36.50855255126953 39.84209823608398 37.28100204467773 39.4488410949707 37.77886199951172 38.79013061523438 C 38.05912017822266 38.41931915283203 38.48384094238281 37.63703155517578 38.17949295043945 36.56401824951172 L 36.50211334228516 30.65018081665039 C 35.87705993652344 28.44644927978516 36.68999099731445 26.04463958740234 38.52496337890625 24.67358016967773 L 43.37732315063477 21.04794883728027 C 44.43748092651367 20.25580978393555 44.54826354980469 19.08560943603516 44.29842376708984 18.25461959838867 C 44.04859161376953 17.42362022399902 43.31087112426758 16.50852012634277 41.98964309692383 16.43232917785645 L 34.83015060424805 16.0195198059082 C 32.73345184326172 15.89863014221191 30.90486145019531 14.6296501159668 30.05798149108887 12.70780944824219 L 27.09782218933105 5.990390777587891 C 26.67546081542969 5.031917572021484 25.79798126220703 4.459697723388672 24.75057220458984 4.459697723388672 M 24.75057601928711 2.959697723388672 C 26.25419425964355 2.959697723388672 27.7578125 3.768302917480469 28.47046089172363 5.385520935058594 L 31.43061256408691 12.10292816162109 C 32.04618072509766 13.49984931945801 33.39249420166016 14.43413925170898 34.9164924621582 14.52200889587402 L 42.07599258422852 14.9348201751709 C 45.86252212524414 15.15316009521484 47.31351089477539 19.97933959960938 44.27516174316406 22.24956893920898 L 39.42280197143555 25.87520027160645 C 38.07317352294922 26.88361930847168 37.4854736328125 28.62004852294922 37.9451904296875 30.24086952209473 L 39.62257385253906 36.15470886230469 C 40.61589050292969 39.65679931640625 36.85885238647461 42.59877014160156 33.69711303710938 40.79463958740234 L 26.7652416229248 36.83919906616211 C 25.51662254333496 36.1267204284668 23.98453140258789 36.12671661376953 22.73591232299805 36.83919906616211 L 15.80403137207031 40.79462814331055 C 12.64230728149414 42.59877014160156 8.885257720947266 39.65679931640625 9.878593444824219 36.15470123291016 L 11.55597305297852 30.24086952209473 C 12.01568984985352 28.62004852294922 11.42797088623047 26.88361930847168 10.07835006713867 25.87520027160645 L 5.226001739501953 22.24956893920898 C 2.187652587890625 19.97934913635254 3.638629913330078 15.15316009521484 7.425163269042969 14.93482971191406 L 14.58466339111328 14.52200889587402 C 16.10866165161133 14.43413925170898 17.45497131347656 13.49984931945801 18.0705509185791 12.10292816162109 L 21.03069114685059 5.385520935058594 C 21.74334144592285 3.768302917480469 23.2469596862793 2.959697723388672 24.75057601928711 2.959697723388672 Z" stroke="none" fill="#baac14"/>
  </g>
</svg>
