<svg xmlns="http://www.w3.org/2000/svg" width="86.7" height="84.8" viewBox="0 0 86.7 84.8"><g style="isolation:isolate"><g id="Layer_2" data-name="Layer 2"><g id="Layer_3" data-name="Layer 3"><g id="dog_clean_4" data-name="dog_clean 4"><path d="M31.2,35.1a2,2,0,0,1-1.2-.6,8.6,8.6,0,0,1-1.3-6.8,7,7,0,0,1,3-4,10.6,10.6,0,0,1,2.9-8.1,9.7,9.7,0,0,1,7.1-3.1h.8a6,6,0,0,1,4.4-4,7.5,7.5,0,0,1,6.6-6.8l1.7-.2a7.8,7.8,0,0,1,7.3,4.9A8.7,8.7,0,0,1,65,6a6.3,6.3,0,0,1,3.7,1.2,7.4,7.4,0,0,1,3.1,7,6.4,6.4,0,0,1,2.9,5A9,9,0,0,1,81,24.5c2.8,6.3-1.3,10-1.5,10.2a1.8,1.8,0,0,1-1,.4Z" style="fill:#98d9e4"/><path d="M55.2,3c5.3,0,6.5,5.5,6.5,5.5a6.2,6.2,0,0,1,3.3-1,4.4,4.4,0,0,1,2.9,1,5.6,5.6,0,0,1,2.2,6.4c4,2.1,3,5.6,3,5.6h0a7.4,7.4,0,0,1,6.5,4.6c2.4,5.4-1.1,8.5-1.1,8.5H31.2a6.6,6.6,0,0,1-1-5.4,5.3,5.3,0,0,1,3.1-3.6,9.1,9.1,0,0,1,2.4-7.9,8.1,8.1,0,0,1,6-2.7,7.6,7.6,0,0,1,1.9.2,4.8,4.8,0,0,1,4.7-4.4h0s-.2-5.7,5.4-6.7h1.5m0-3h0l-2,.2a8.9,8.9,0,0,0-7.6,7.1A7,7,0,0,0,41.5,11a11.1,11.1,0,0,0-8,3.6A11.8,11.8,0,0,0,30.2,23a8,8,0,0,0-2.9,4.3,9.5,9.5,0,0,0,1.5,8.1,3.3,3.3,0,0,0,2.4,1.2H78.5a3.2,3.2,0,0,0,2-.8c1.9-1.7,4.5-6.1,1.9-11.9A10.8,10.8,0,0,0,76.1,18a8,8,0,0,0-2.7-4.5A8.8,8.8,0,0,0,69.6,6,7.7,7.7,0,0,0,65,4.5l-1.7.2A9.1,9.1,0,0,0,55.2,0Z" style="fill:#5576b4"/><path d="M52.8,7.2c-2.9,1.1-3.4,3.6-2.6,5.4s3.8.8,4.1,0-.8-2.3.5-3.7S54.3,6.6,52.8,7.2Z" style="fill:#fff"/><path d="M71.9,25.3c-2.9,1.1-3.4,3.6-2.6,5.4s3.8.9,4.1,0-.8-2.3.5-3.6S73.4,24.7,71.9,25.3Z" style="fill:#fff"/><path d="M63.2,11.2a3,3,0,0,0-2,4.2c.6,1.4,2.9.7,3.2,0s-.6-1.8.4-2.9S64.4,10.7,63.2,11.2Z" style="fill:#fff"/><path d="M37,20.4c-1.7,0-3.2,4.1-1.8,7.2s3.4,3.1,4.4,1.3S38,27,37.9,24.4,39.1,20.5,37,20.4Z" style="fill:#fff"/><path d="M6.5,41.5H6.1a4.8,4.8,0,0,1-3.3-5.1,6.4,6.4,0,0,1,3.5-5.6,8.4,8.4,0,0,1,.2-5.6,7.9,7.9,0,0,1,5.1-4.6c.3-1.4,1.4-3.7,4.9-5a9.2,9.2,0,0,1,2.8-.5,8,8,0,0,1,5.3,2,8.3,8.3,0,0,1,3.6-.8,9.5,9.5,0,0,1,4,1A7.9,7.9,0,0,1,36,21.7l1.5-.2a5,5,0,0,1,3.1,1,5.6,5.6,0,0,1,2.5,3.6,6.6,6.6,0,0,1,2.1-.3,5.4,5.4,0,0,1,2.2.4,7.1,7.1,0,0,1,4.5,5.7,4.1,4.1,0,0,1,2.6,2.3,5.5,5.5,0,0,1-1.7,7,1.3,1.3,0,0,1-.8.3Z" style="fill:#98d9e4"/><path d="M19.3,16.5A5.8,5.8,0,0,1,24.2,19a7,7,0,0,1,7.3-.5,6.6,6.6,0,0,1,3.4,5.3,4.8,4.8,0,0,1,2.6-.8,4.3,4.3,0,0,1,2.3.7c2.5,1.6,1.9,4.7,1.9,4.7a6.9,6.9,0,0,1,3.5-1.1,5.1,5.1,0,0,1,1.7.3,5.7,5.7,0,0,1,3.6,5.5,3.2,3.2,0,0,1,2.6,1.7A4,4,0,0,1,52,40H6.5a3.2,3.2,0,0,1-2.2-3.6,5.1,5.1,0,0,1,4-4.9,6.4,6.4,0,0,1-.4-5.8,6.6,6.6,0,0,1,5-4s-.1-3.2,4.1-4.8a6.6,6.6,0,0,1,2.3-.4m0-3a10.2,10.2,0,0,0-3.4.6,9.4,9.4,0,0,0-5.5,5.2,9.2,9.2,0,0,0-5.3,5.3A9.6,9.6,0,0,0,4.6,30a7.7,7.7,0,0,0-3.3,6.2,6.4,6.4,0,0,0,4.4,6.7H52a3.3,3.3,0,0,0,1.6-.5,7,7,0,0,0,2.3-8.9,5.9,5.9,0,0,0-2.6-2.8,8.9,8.9,0,0,0-5.3-6,8.7,8.7,0,0,0-2.8-.5H44.1a6.8,6.8,0,0,0-2.7-3.2A6.9,6.9,0,0,0,37.5,20h-.6a8.9,8.9,0,0,0-4-4.2,10,10,0,0,0-4.7-1.2,10.2,10.2,0,0,0-3.3.6,9.8,9.8,0,0,0-5.6-1.8Z" style="fill:#5576b4"/><path d="M16.9,20.3a3.8,3.8,0,0,0-2.5,5.1c.8,1.7,3.6.9,4,0s-.8-2.1.5-3.4S18.4,19.8,16.9,20.3Z" style="fill:#fff"/><path d="M26.6,21.3a2.5,2.5,0,0,0-1.7,3.4c.5,1.2,2.4.6,2.7,0s-.5-1.4.3-2.3S27.6,20.9,26.6,21.3Z" style="fill:#fff"/><path d="M10.5,26.7c-1.3,0-2.5,3.2-1.4,5.7s2.7,2.5,3.5,1-1.2-1.5-1.4-3.5S12.2,26.8,10.5,26.7Z" style="fill:#fff"/><path d="M7.4,35.4a2.5,2.5,0,0,0-1.7,3.4c.5,1.2,2.4.6,2.7,0s-.6-1.4.3-2.3S8.4,35,7.4,35.4Z" style="fill:#fff"/><path d="M44.4,39a1.4,1.4,0,0,1-1.3-.8,5.7,5.7,0,0,1,.6-5.5,5.1,5.1,0,0,1,3.4-2.2,5.9,5.9,0,0,1,3.5-3.2,5.2,5.2,0,0,1,1.8-.3,7.1,7.1,0,0,1,3.1.8,6.1,6.1,0,0,1,4.2-1.7l1.3.2a6,6,0,0,1,4.3,3.1h1.4a5.2,5.2,0,0,1,3.4,1.2,6.1,6.1,0,0,1,1.4,7.8,1.5,1.5,0,0,1-1.3.7Z" style="fill:#98d9e4"/><path d="M59.7,27.6h1a4.7,4.7,0,0,1,3.7,3.6,5.7,5.7,0,0,1,2.3-.5,3.9,3.9,0,0,1,2.5.9,4.5,4.5,0,0,1,1,5.8H44.4a4.1,4.1,0,0,1,.5-3.9A3.5,3.5,0,0,1,47.8,32h.4A4.3,4.3,0,0,1,51,28.8a3.5,3.5,0,0,1,1.4-.3,5.8,5.8,0,0,1,3.4,1.3,4.8,4.8,0,0,1,3.9-2.2m0-3a7,7,0,0,0-4.4,1.5,8.8,8.8,0,0,0-2.9-.6,8.5,8.5,0,0,0-2.3.4,7.1,7.1,0,0,0-4,3.3,6.9,6.9,0,0,0-3.7,2.7,6.8,6.8,0,0,0-.6,6.9,3,3,0,0,0,2.6,1.7H70.2a3.1,3.1,0,0,0,2.5-1.3,7.6,7.6,0,0,0-1.6-9.9,7.1,7.1,0,0,0-4.4-1.5h-.6a8,8,0,0,0-4.8-3l-1.6-.2Z" style="fill:#5576b4"/><path d="M50.7,32.3a2.3,2.3,0,0,0-1.5,3.1c.5,1.1,2.2.5,2.4,0s-.4-1.3.3-2.1S51.6,31.9,50.7,32.3Z" style="fill:#fff"/><path d="M58.3,31a2,2,0,0,0-1.2,2.6c.4.8,1.8.4,2,0s-.4-1.1.2-1.7S59.1,30.8,58.3,31Z" style="fill:#fff"/><path d="M77.2,36.9h2.1c6.1,1,5.4,7.1.5,7.1H76.7a28.1,28.1,0,0,0-3.3,6.4c-2,5.5-2.1,12.9-6.9,19.7L66,71h0s.1,9.7-.5,10.7h-.2c-1,0-4.9-6.4-4.9-6.4h0c-5.1,2.4-11.4,2.4-17.1,2.4s-11.9,0-17-2.4h0s-3.9,6.4-4.9,6.4h-.2c-.6-1-.6-10.7-.6-10.7h.1a1.8,1.8,0,0,1-.5-.7c-4.8-6.8-5-14.2-6.9-19.7a24.2,24.2,0,0,0-3.4-6.4h-3C2,44.1,1.3,38,7.4,37H9.5c7.2,0,21.7,3.6,33.8,3.6S70,36.9,77.2,36.9m0-3a103.3,103.3,0,0,0-13.3,1.5c-6.5,1-14,2.1-20.6,2.1s-14-1.1-20.6-2.1A102.1,102.1,0,0,0,9.5,33.9a10.2,10.2,0,0,0-2.6.2c-5.1.8-7.1,4.3-6.9,7.3s3.2,5.7,6.9,5.7H8.3a16.4,16.4,0,0,1,2.1,4.4A51.4,51.4,0,0,1,11.9,57c1,4.6,2.2,9.8,5.7,15,0,9.6.7,10.6,1.1,11.3a3.3,3.3,0,0,0,2.7,1.5c1.2,0,2.4,0,6.1-5.7,5.1,1.7,10.8,1.7,15.8,1.7s10.8,0,15.9-1.7c3.7,5.7,4.9,5.7,6.1,5.7A3.3,3.3,0,0,0,68,83.3c.4-.7,1-1.7,1-11.3,3.6-5.2,4.7-10.4,5.8-15a52.5,52.5,0,0,1,1.4-5.4,19.8,19.8,0,0,1,2.2-4.4h1.4c3.7,0,6.6-2.4,6.9-5.7s-1.9-6.5-6.9-7.3a10.6,10.6,0,0,0-2.6-.2Z" style="fill:#335394"/><path d="M20.6,71s0,9.7.6,10.7,5.1-6.3,5.1-6.3Z" style="fill:#5576b4"/><path d="M66,71s.1,9.7-.5,10.7-5.1-6.3-5.1-6.3Z" style="fill:#5576b4"/><path d="M43.3,42.6H8.5s2.8,2.4,4.8,8,2.1,12.9,6.9,19.7S35,77.8,43.3,77.8s18,0,23.2-7.5,4.9-14.2,6.9-19.7,4.8-8,4.8-8Z" style="fill:#a7bfee"/><path d="M12.6,42.6s2.8,2.5,4,8.7S19.5,63.4,22,66.1a35.6,35.6,0,0,1-2-12.6c-.1-7.8-1.8-10.9-1.8-10.9Z" style="fill:#fff;mix-blend-mode:screen;opacity:0.30000000000000004"/><path d="M74,42.6s-2.8,2.5-3.9,8.7-2.9,12.1-5.5,14.8a34.1,34.1,0,0,0,2.1-12.6c0-7.8,1.7-10.9,1.7-10.9Z" style="fill:#fff;mix-blend-mode:screen;opacity:0.30000000000000004"/><path d="M79.3,37c-6.1-1-22.5,3.5-36,3.5S13.5,36,7.4,37,2,44.1,6.9,44.1c10.8,0,19.6,4.3,36.4,4.3S69,44.1,79.8,44.1C84.7,44.1,85.4,38,79.3,37Z" style="fill:#a7bfee"/><g style="mix-blend-mode:multiply;opacity:0.5"><path d="M43.3,49.9a109.9,109.9,0,0,1-22.6-2.5A67.9,67.9,0,0,0,6.9,45.6c-3.3,0-5.2-2.2-5.4-4.3S3,36.2,7.1,35.6a9,9,0,0,1,2.4-.2,99.6,99.6,0,0,1,13,1.5c6.6,1,14.1,2.1,20.8,2.1s14.3-1.1,20.9-2.1a97.8,97.8,0,0,1,13-1.5,7.9,7.9,0,0,1,2.3.2c4.2.6,5.8,3.3,5.7,5.7s-2.1,4.3-5.4,4.3a68.8,68.8,0,0,0-13.9,1.8A109,109,0,0,1,43.3,49.9Z" style="fill:#a7bfee"/><path d="M77.2,36.9h2.1c6.1,1,5.4,7.1.5,7.1-10.8,0-19.6,4.3-36.5,4.3S17.7,44.1,6.9,44.1C2,44.1,1.3,38,7.4,37H9.5c7.2,0,21.7,3.6,33.8,3.6S70,36.9,77.2,36.9m0-3a103.3,103.3,0,0,0-13.3,1.5c-6.5,1-14,2.1-20.6,2.1s-14-1.1-20.6-2.1A102.1,102.1,0,0,0,9.5,33.9a10.2,10.2,0,0,0-2.6.2c-5.1.8-7.1,4.3-6.9,7.3s3.2,5.7,6.9,5.7a65.1,65.1,0,0,1,13.5,1.8c6.3,1.1,13.3,2.5,22.9,2.5S60,50,66.2,48.9a66.9,66.9,0,0,1,13.6-1.8c3.7,0,6.6-2.4,6.9-5.7s-1.9-6.5-6.9-7.3a10.6,10.6,0,0,0-2.6-.2Z" style="fill:#335394"/></g><path d="M34.5,66.1s-.4-3.5,2-4.3,4.4-1.6,5.1-2.3,3.2-.6,3.8.4.5,2.6,1.4,4.9,1.2,3.6-1.1,4.5-4-2.6-5.9-2.7S35.9,68,34.5,66.1Z" style="fill:#f1f2f2"/><path d="M49.1,63.9a1.9,1.9,0,0,1-1.7-2.2c.1-.3.2-.6.5-.7s2.7-2.2,3.9-.9S51.2,64,49.1,63.9Z" style="fill:#f1f2f2"/><path d="M42.3,57.1a1.8,1.8,0,0,1-2.8-.5,1.1,1.1,0,0,1-.2-.8c.3-.9.6-3.4,2.5-3.2S43.8,55.8,42.3,57.1Z" style="fill:#f1f2f2"/><path d="M38,58.9a1.8,1.8,0,0,1-2.6.8l-.5-.6c-.2-1-.9-3.3.8-3.9S38.8,57.2,38,58.9Z" style="fill:#f1f2f2"/><path d="M46.7,58.6a1.7,1.7,0,0,1-1.8-1.1c-.7-1.3,1.9-4.5,3.5-3S47.7,58.5,46.7,58.6Z" style="fill:#f1f2f2"/></g></g></g></g></svg>