<svg xmlns="http://www.w3.org/2000/svg" width="85.7" height="85.6" viewBox="0 0 85.7 85.6"><g id="Layer_2" data-name="Layer 2"><g id="Layer_3" data-name="Layer 3"><g id="dog_clean_3" data-name="dog_clean 3"><circle cx="27.1" cy="26.3" r="8.6" style="fill:#fcd2d8;stroke:#d98885;stroke-miterlimit:10;stroke-width:3px"/><path d="M28,21.1a4,4,0,0,1,4,4" style="fill:none;stroke:#fff;stroke-linecap:round;stroke-linejoin:round;stroke-width:3px"/><path d="M10.2,83.9a8.7,8.7,0,0,1,0-17.4h3c0-.5-.1-1.1-.1-1.6a14.3,14.3,0,0,1,28.6,0,8.6,8.6,0,0,1-.1,1.6h6.5a8.7,8.7,0,0,1,0,17.4Z" style="fill:#fcd2d8"/><path d="M27.4,52.1A12.8,12.8,0,0,1,40.2,64.9a15.5,15.5,0,0,1-.4,3.1h8.3a7.2,7.2,0,0,1,0,14.4H10.2a7.2,7.2,0,0,1,0-14.4H15a15.5,15.5,0,0,1-.4-3.1A12.8,12.8,0,0,1,27.4,52.1m0-3A15.8,15.8,0,0,0,11.6,64.9H10.2a10.2,10.2,0,0,0,0,20.4H48.1a10.2,10.2,0,0,0,0-20.4H43.2A15.8,15.8,0,0,0,27.4,49.1Z" style="fill:#d98885"/><path d="M28.8,55.8a6.9,6.9,0,0,1,6.9,6.9" style="fill:none;stroke:#fff;stroke-linecap:round;stroke-linejoin:round;stroke-width:3px"/><path d="M63.4,3a12.5,12.5,0,0,1,5.1,1A7.3,7.3,0,0,1,72,7.2a4.9,4.9,0,0,1,.1,4.7c-1,1.8-3.2,2.6-5.3,2.6h-.6a6.4,6.4,0,0,1-2-.3v4.1a7.7,7.7,0,0,1,5.4,5.1h.3A10.8,10.8,0,0,1,80.6,33.6l.3,5.6,1.2,25.6.6,11a6.6,6.6,0,0,1-6.5,6.8H46.9a6.4,6.4,0,0,1-6.4-6.9l.6-10.5,1.7-25.9.4-5.9A10.8,10.8,0,0,1,53.6,23.2h0A7.6,7.6,0,0,1,57,18.9l1.7-.7V12.6l-3.9-.3a20.6,20.6,0,0,0-8.5,1.8l-.7.2h-.1a1,1,0,0,1-.6-.5l-1.3-1.9a.9.9,0,0,1,.2-1.2A41.7,41.7,0,0,1,57.1,4a22.4,22.4,0,0,1,6.3-1m0-3h0a27.3,27.3,0,0,0-7.1,1.1A42.8,42.8,0,0,0,42,8.3a4,4,0,0,0-.9,5.3l1.3,1.8a3.8,3.8,0,0,0,2.3,1.8h.9a5.4,5.4,0,0,0,1.9-.4,16.9,16.9,0,0,1,7.3-1.6h.9v.9h-.2a10.5,10.5,0,0,0-4,4.1A13.8,13.8,0,0,0,40.2,33.2l-.4,5.9L38.2,65l-.7,10.5A9.3,9.3,0,0,0,40,82.6a9.5,9.5,0,0,0,6.9,3H76.2a9.3,9.3,0,0,0,6.8-3,9.2,9.2,0,0,0,2.6-7l-.5-11L83.9,39.1l-.3-5.6a13.8,13.8,0,0,0-12-13.1,10.1,10.1,0,0,0-2.7-3.1,8.4,8.4,0,0,0,5.9-4,8,8,0,0,0-.1-7.5,10.8,10.8,0,0,0-4.9-4.5A15,15,0,0,0,63.4,0Z" style="fill:#924f28"/><rect x="58.7" y="11" width="5.5" height="7.94" style="fill:#a16306"/><path d="M70.1,25.1a8.2,8.2,0,0,0-5.9-6.9,9.5,9.5,0,0,0-7.2.7,7.4,7.4,0,0,0-3.7,6A133.9,133.9,0,0,1,70.1,25.1Z" style="fill:#e39b2f"/><path d="M43.6,11.9a.9.9,0,0,1,.2-1.2A41.7,41.7,0,0,1,57.1,4C60.9,2.9,65,2.4,68.5,4A7.3,7.3,0,0,1,72,7.2a4.9,4.9,0,0,1,.1,4.7c-1.1,2-3.6,2.7-5.9,2.5s-4.5-1.1-6.7-1.6a20,20,0,0,0-13.2,1.3.9.9,0,0,1-.8.2,1,1,0,0,1-.6-.5Z" style="fill:#e39b2f"/><path d="M46.9,82.6H76.2a6.4,6.4,0,0,0,6.4-6.8l-.5-11L80.9,39.2l-.3-5.6A10.8,10.8,0,0,0,69.9,23.3H53.6A10.8,10.8,0,0,0,43.2,33.4l-.4,5.9L41.1,65.2l-.6,10.5A6.4,6.4,0,0,0,46.9,82.6Z" style="fill:#ffc163"/><path d="M41.1,65.2c13.7.2,27.4.1,41-.4L80.9,39.2c-12.6.5-25.4.8-38.1.1Z" style="fill:#a7bfee"/><path d="M51.4,58.9s-.6-4.6,2.5-5.7,5.8-2.1,6.6-2.9,4.2-.8,5,.5.7,3.4,1.8,6.3,1.5,4.8-1.4,5.9-5.3-3.4-7.7-3.5S53.2,61.3,51.4,58.9Z" style="fill:#5576b4"/><path d="M70.3,55.9a2.4,2.4,0,0,1-2.2-2.8,1.5,1.5,0,0,1,.6-.9c1-.8,3.5-2.9,5.2-1.1S73,56.1,70.3,55.9Z" style="fill:#5576b4"/><path d="M61.4,47.2a2.4,2.4,0,0,1-3.6-.7,1.2,1.2,0,0,1-.2-1c.4-1.2.8-4.4,3.2-4.2S63.5,45.5,61.4,47.2Z" style="fill:#5576b4"/><path d="M55.9,49.5a2.3,2.3,0,0,1-3.4,1,1.6,1.6,0,0,1-.6-.8c-.2-1.2-1.2-4.2,1-5S56.9,47.3,55.9,49.5Z" style="fill:#5576b4"/><path d="M67.2,49.1a2.4,2.4,0,0,1-2.4-1.4c-.8-1.7,2.5-5.9,4.6-3.9S68.4,49,67.2,49.1Z" style="fill:#5576b4"/></g></g></g></svg>