<svg xmlns="http://www.w3.org/2000/svg" width="86.2" height="85.5" viewBox="0 0 86.2 85.5"><g id="Layer_2" data-name="Layer 2"><g id="Layer_3" data-name="Layer 3"><g id="dog_clean_1" data-name="dog_clean 1"><path d="M36.2,3h.2a.9.9,0,0,1,.7,1l3.7,7a12,12,0,0,1,3.3,1.3l.6.4-1.4-2.6a.9.9,0,0,1-.5-1,1,1,0,0,1,1-.7H44a.9.9,0,0,1,.7,1l2.6,5,4.4,2.8-.8-1.6a.9.9,0,0,1-.5-1,1,1,0,0,1,.9-.7h.2a1.1,1.1,0,0,1,.8,1L54.4,19l4.4,2.8-.4-.8a.9.9,0,0,1-.5-1,1,1,0,0,1,1-.7h.2a.9.9,0,0,1,.7,1l1.7,3.2,4.1,2.6a.8.8,0,0,1-.2-.7,1,1,0,0,1,1-.7h.2a.8.8,0,0,1,.7,1l1.2,2.3L80,35.4a6.8,6.8,0,0,1,2.9,3.9h0v.2a4.3,4.3,0,0,1,.1,1.6l.2,2.9h0a5.5,5.5,0,0,1-1.9,4.7l-16.5,16A9.7,9.7,0,0,1,58.3,67a11.3,11.3,0,0,1-5.6-1.6L38.5,56.3l-24,24.3A6.9,6.9,0,0,1,10,82.5a2.7,2.7,0,0,1-1.6-.4L4.1,79.8A2.1,2.1,0,0,1,3,77.5H3l.2-3.1h0a3.6,3.6,0,0,1,1.4-3.2L26.8,48.7l-10-6.4a6.1,6.1,0,0,1-3-5h-.1V32.9h0A5.8,5.8,0,0,1,15.5,29l5.7-5.5-1-2a.9.9,0,0,1-.5-1,1,1,0,0,1,.9-.7h.3a.9.9,0,0,1,.7,1l.8,1.5,4.1-4L25.3,16a.9.9,0,0,1-.5-1,1,1,0,0,1,.9-.7H26a.8.8,0,0,1,.7,1l1,1.9,4.2-4.1-1.4-2.8a.9.9,0,0,1-.5-1,1,1,0,0,1,.9-.7h.3a.9.9,0,0,1,.7,1l1.3,2.5a10.3,10.3,0,0,1,5.2-1.3h.5L35.7,4.7a1,1,0,0,1-.5-1,1,1,0,0,1,1-.7m0-3h0a3.9,3.9,0,0,0-3.9,3,4.2,4.2,0,0,0,.6,3.1l-1.1-.4h-.9a3.9,3.9,0,0,0-3.8,3,3.9,3.9,0,0,0,.6,3.2l-1.1-.4h-.9a3.9,3.9,0,0,0-3.8,3,3.7,3.7,0,0,0,.4,2.9l-.8-.3h-.9a3.9,3.9,0,0,0-3.8,3,3.9,3.9,0,0,0,.6,3.2l-3.9,3.8a8.6,8.6,0,0,0-2.8,5.4,2.2,2.2,0,0,0-.1.8v4.4c0,.2.1.3.1.5a9.2,9.2,0,0,0,4.4,6.9L22,49.2,2.5,69A6.8,6.8,0,0,0,.2,74.4l-.2,3H0a5.1,5.1,0,0,0,2.6,5l4.3,2.4a6.4,6.4,0,0,0,3.1.7,9.9,9.9,0,0,0,6.6-2.7h0L39,60.1l12.1,7.8A13.5,13.5,0,0,0,58.3,70a12.3,12.3,0,0,0,8.5-3.1.1.1,0,0,0,.1-.1L83.3,50.9a8.7,8.7,0,0,0,2.9-7.2L86,41.2a7.7,7.7,0,0,0-.1-2.1h0a2.3,2.3,0,0,0-.3-1.1,9.4,9.4,0,0,0-4-5.1L70.8,26l-.5-1.1a4.2,4.2,0,0,0-3.1-3.1h-.8a2.9,2.9,0,0,0-1.6.4l-1-.7-1.1-2a3.7,3.7,0,0,0-3-3h-.8a4,4,0,0,0-2.2.6h0L55.2,14a4,4,0,0,0-3-3h-.9a3.7,3.7,0,0,0-2.1.6l-1.5-3a4.1,4.1,0,0,0-3.1-3h-.8a4,4,0,0,0-2.2.6L40.1,3.1A4,4,0,0,0,37,.1Z" style="fill:#7f1c81"/><path d="M83.2,44h0l-.3-4.7a11.7,11.7,0,0,0-1.5,1.2l-1.3-1L44.2,16.4a10.4,10.4,0,0,0-12.1.7l-15,14.6-3.5,1.2v4.4h.1a6.1,6.1,0,0,0,3,5l12.3,7.9L5.4,74.1l.2-.7-2.4,1L3,77.5H3a2.1,2.1,0,0,0,1.1,2.3l4.3,2.3c1.6.9,4.3.2,6.1-1.5l24-24.3,14.2,9.1c3.6,2.3,9.1,2,12.1-.7l16.5-16A5.5,5.5,0,0,0,83.2,44Z" style="fill:#ac53b0"/><path d="M52.6,61.3,16.7,38.2c-3.7-2.3-4.2-6.5-1.2-9.2L32,13c3-2.7,8.4-3,12.1-.7L80,35.4c3.6,2.4,4.1,6.5,1.1,9.2l-16.5,16C61.6,63.4,56.2,63.7,52.6,61.3Z" style="fill:#e2a4ef"/><path d="M8.5,78.2,4.2,75.8c-1.6-.8-1.4-2.9.4-4.6l26-26.4c1.8-1.7,4.5-2.4,6.1-1.5L41,45.7c1.6.8,1.4,2.9-.4,4.6L14.7,76.7C12.9,78.4,10.1,79.1,8.5,78.2Z" style="fill:#e2a4ef"/><path d="M52.7,57.1,22.2,37c-3.1-2-3.7-5.5-1.3-7.6L34.1,16.6c2.4-2.2,6.9-2.3,10-.3L74.6,36.4c3.1,2,3.6,5.4,1.2,7.6L62.6,56.8C60.2,59,55.7,59.1,52.7,57.1Z" style="fill:#fff69f"/><path d="M12.7,75.1c-.8.8-2.6.8-4.1-.2s-2-2.5-1.2-3.4,2.9-1,4.4,0A2.5,2.5,0,0,1,12.7,75.1Z" style="fill:#ac53b0"/><path d="M73.4,40.1a.7.7,0,0,1-.5-.4L65.8,26.1a.7.7,0,0,1,.3-1,.8.8,0,0,1,1.1.4l7.1,13.6a.7.7,0,0,1-.4,1A.4.4,0,0,1,73.4,40.1Z" style="fill:#3f3d39"/><path d="M67.3,25.9a.9.9,0,0,1-1.1.7,1.1,1.1,0,0,1-.8-1.2.9.9,0,0,1,1.2-.6A.9.9,0,0,1,67.3,25.9Z" style="fill:#827c6c"/><path d="M68.2,45.7a.5.5,0,0,1-.6-.4L60.5,31.7a.8.8,0,0,1,.4-1,.8.8,0,0,1,1.1.4l7.1,13.6a.7.7,0,0,1-.4,1Z" style="fill:#3f3d39"/><path d="M62.1,31.5a1,1,0,0,1-1.9-.4.9.9,0,0,1,1.2-.7A.9.9,0,0,1,62.1,31.5Z" style="fill:#827c6c"/><path d="M63,51.4a.7.7,0,0,1-.6-.4L55.3,37.4a.7.7,0,0,1,.4-1,.9.9,0,0,1,1.1.3l7.1,13.7a.8.8,0,0,1-.4,1C63.3,51.4,63.1,51.5,63,51.4Z" style="fill:#3f3d39"/><path d="M56.9,37.1a.9.9,0,0,1-1.2.7.9.9,0,0,1-.7-1.1,1,1,0,0,1,1.9.4Z" style="fill:#827c6c"/><path d="M57.9,56.9a.5.5,0,0,1-.6-.4L50.2,42.9a.8.8,0,0,1,.4-1,.8.8,0,0,1,1.1.4l7.1,13.6a.7.7,0,0,1-.4,1A.4.4,0,0,1,57.9,56.9Z" style="fill:#3f3d39"/><path d="M51.8,42.7a1,1,0,0,1-1.9-.4.9.9,0,0,1,1.2-.7A.9.9,0,0,1,51.8,42.7Z" style="fill:#827c6c"/><path d="M58.3,29.3a.7.7,0,0,1-.5-.4L50.7,15.3a.7.7,0,0,1,.4-1,.8.8,0,0,1,1,.3l7.1,13.7a.7.7,0,0,1-.3,1Z" style="fill:#3f3d39"/><path d="M52.3,15a1,1,0,0,1-1.2.7.9.9,0,1,1,1.2-.7Z" style="fill:#827c6c"/><path d="M53.1,34.9a.7.7,0,0,1-.5-.4L45.5,20.9a.7.7,0,0,1,.3-1,.8.8,0,0,1,1.1.4L54,33.9a.8.8,0,0,1-.4,1C53.5,34.9,53.3,35,53.1,34.9Z" style="fill:#3f3d39"/><path d="M47,20.6a.9.9,0,0,1-1.1.7,1,1,0,0,1-.8-1.1,1.1,1.1,0,0,1,1.2-.7C46.8,19.7,47.2,20.1,47,20.6Z" style="fill:#827c6c"/><path d="M47.9,40.6a1,1,0,0,1-.5-.4L40.3,26.6a.8.8,0,0,1,.3-1,.8.8,0,0,1,1.1.3l7.1,13.6a.7.7,0,0,1-.3,1Z" style="fill:#3f3d39"/><path d="M41.9,26.3a1.1,1.1,0,0,1-1.2.7,1,1,0,0,1-.8-1.1,1.1,1.1,0,0,1,1.2-.7A1,1,0,0,1,41.9,26.3Z" style="fill:#827c6c"/><path d="M42.8,46.1a.7.7,0,0,1-.5-.4L35.2,32.1a.7.7,0,0,1,.3-1,.9.9,0,0,1,1.1.3l7.1,13.7a.8.8,0,0,1-.4,1C43.2,46.1,43,46.2,42.8,46.1Z" style="fill:#3f3d39"/><path d="M36.8,31.8a1,1,0,0,1-2-.4,1.1,1.1,0,0,1,1.2-.7C36.5,30.9,36.9,31.3,36.8,31.8Z" style="fill:#827c6c"/><path d="M43.2,18.4a.7.7,0,0,1-.5-.4L35.6,4.4a.7.7,0,0,1,.3-1,.9.9,0,0,1,1.1.3l7.1,13.7a.8.8,0,0,1-.4,1Z" style="fill:#3f3d39"/><path d="M37.1,4.1a1,1,0,0,1-1.9-.4A1,1,0,0,1,36.4,3,.9.9,0,0,1,37.1,4.1Z" style="fill:#827c6c"/><path d="M38,24a.7.7,0,0,1-.6-.4L30.3,10a.7.7,0,0,1,.4-1,.9.9,0,0,1,1.1.3L38.9,23a.8.8,0,0,1-.4,1C38.3,24,38.1,24.1,38,24Z" style="fill:#3f3d39"/><path d="M31.9,9.7a1,1,0,0,1-1.2.7A.9.9,0,0,1,30,9.3a1,1,0,0,1,1.2-.7A.9.9,0,0,1,31.9,9.7Z" style="fill:#827c6c"/><path d="M32.8,29.7a.9.9,0,0,1-.6-.4L25.1,15.7a.7.7,0,0,1,.4-1,.8.8,0,0,1,1.1.3l7.1,13.6a.7.7,0,0,1-.4,1Z" style="fill:#3f3d39"/><path d="M26.7,15.4a1,1,0,0,1-1.2.7.9.9,0,0,1-.7-1.1,1,1,0,0,1,1.2-.7A.9.9,0,0,1,26.7,15.4Z" style="fill:#827c6c"/><path d="M27.7,35.2a.7.7,0,0,1-.6-.4L20,21.2a.7.7,0,0,1,.4-1,.9.9,0,0,1,1.1.3l7.1,13.7a.8.8,0,0,1-.4,1Z" style="fill:#3f3d39"/><path d="M21.6,20.9a1,1,0,0,1-1.2.7.9.9,0,0,1-.7-1.1,1,1,0,0,1,1.2-.7A.9.9,0,0,1,21.6,20.9Z" style="fill:#827c6c"/><path d="M65.9,34.7a1.3,1.3,0,0,1-.6-.4L58.2,20.7a.8.8,0,0,1,.4-1,.9.9,0,0,1,1.1.3l7.1,13.6a.7.7,0,0,1-.4,1Z" style="fill:#3f3d39"/><path d="M59.8,20.4a1,1,0,0,1-1.2.7.9.9,0,0,1-.7-1.1,1,1,0,0,1,1.2-.7A.9.9,0,0,1,59.8,20.4Z" style="fill:#827c6c"/><path d="M60.6,40.3a.7.7,0,0,1-.5-.4L53,26.3a.7.7,0,0,1,.4-1,.8.8,0,0,1,1,.3l7.1,13.7a.7.7,0,0,1-.3,1Z" style="fill:#3f3d39"/><path d="M54.6,26a1,1,0,0,1-1.2.7.9.9,0,1,1,1.2-.7Z" style="fill:#827c6c"/><path d="M55.4,46a1,1,0,0,1-.5-.4L47.8,32a.7.7,0,0,1,.4-1,.7.7,0,0,1,1,.3l7.1,13.6a.7.7,0,0,1-.3,1Z" style="fill:#3f3d39"/><path d="M49.4,31.7a1,1,0,0,1-1.2.7.9.9,0,1,1,1.2-.7Z" style="fill:#827c6c"/><path d="M50.3,51.5a.7.7,0,0,1-.5-.4L42.7,37.5a.7.7,0,0,1,.4-1,.8.8,0,0,1,1,.3l7.1,13.7a.7.7,0,0,1-.3,1Z" style="fill:#3f3d39"/><path d="M44.3,37.2a1,1,0,0,1-1.2.7.9.9,0,1,1,1.2-.7Z" style="fill:#827c6c"/><path d="M50.8,23.8a.7.7,0,0,1-.5-.4L43.2,9.8a.7.7,0,0,1,.3-1,.9.9,0,0,1,1.1.3l7.1,13.7a.8.8,0,0,1-.4,1Z" style="fill:#3f3d39"/><path d="M44.7,9.5a1,1,0,0,1-1.9-.4A1,1,0,0,1,44,8.4.9.9,0,0,1,44.7,9.5Z" style="fill:#827c6c"/><path d="M45.5,29.4A.7.7,0,0,1,45,29L37.9,15.4a.7.7,0,0,1,.4-1,.7.7,0,0,1,1,.3l7.1,13.7a.7.7,0,0,1-.3,1C45.9,29.4,45.7,29.5,45.5,29.4Z" style="fill:#3f3d39"/><path d="M39.5,15.1a.9.9,0,0,1-1.2.7.9.9,0,1,1,1.2-.7Z" style="fill:#827c6c"/><path d="M40.3,35.1a1,1,0,0,1-.5-.4L32.7,21.1a.7.7,0,0,1,.4-1,.8.8,0,0,1,1.1.3L41.3,34c.1.4,0,.9-.4,1Z" style="fill:#3f3d39"/><path d="M34.3,20.8a1,1,0,0,1-1.2.7.9.9,0,0,1-.7-1.1,1,1,0,0,1,1.2-.7A.9.9,0,0,1,34.3,20.8Z" style="fill:#827c6c"/><path d="M35.2,40.6a.7.7,0,0,1-.5-.4L27.6,26.6a.7.7,0,0,1,.4-1,.7.7,0,0,1,1,.3l7.1,13.7a.7.7,0,0,1-.3,1C35.6,40.6,35.4,40.7,35.2,40.6Z" style="fill:#3f3d39"/><path d="M29.2,26.3A1,1,0,0,1,28,27a.9.9,0,1,1,1.2-.7Z" style="fill:#827c6c"/></g></g></g></svg>