<svg xmlns="http://www.w3.org/2000/svg" width="85.3" height="85.6" viewBox="0 0 85.3 85.6"><g id="Layer_2" data-name="Layer 2"><g id="Layer_3" data-name="Layer 3"><g id="dog_clean_2" data-name="dog_clean 2"><path d="M56.7,84.1a5.3,5.3,0,0,1-5-3.6L36.1,34.8a5.2,5.2,0,0,1,3.3-6.7l.4-.2-2.7-7.8a.8.8,0,0,1-.1-.4.3.3,0,0,1-.1-.2v-2c0-.1.1-.2.1-.3l.2-.3.2-.3c0-.1.1-.2.2-.3s.2-.2.2-.3l.3-.2.3-.2.7-.4h.4l-2.4-7a3.1,3.1,0,0,1,.1-2.3,3.1,3.1,0,0,1,1.8-1.6l7.4-2.5,1-.2a3,3,0,0,1,2.9,2.1l2.4,6.9h.2a2.5,2.5,0,0,1,1.2-.2A3.8,3.8,0,0,1,58,12.9l2.7,7.9.4-.2,1.7-.2A5.4,5.4,0,0,1,67.9,24L83.5,69.7a5.2,5.2,0,0,1-2.8,6.5l-.5.2L58.4,83.9l-1.7.2Z" style="fill:#cdf5f9"/><path d="M47.6,3a1.5,1.5,0,0,1,1.5,1.1L52,12.4l1.6-.5h.7a2.5,2.5,0,0,1,2.3,1.6l1.4,4,1.8,5.3,1.8-.6a2.5,2.5,0,0,1,1.2-.2,3.8,3.8,0,0,1,3.6,2.5l7.4,21.5,8.3,24.3a4,4,0,0,1-2,4.7h-.4l-1.8.6L58,82.4a3.2,3.2,0,0,1-1.3.2,3.9,3.9,0,0,1-3.6-2.5L44.8,55.8,37.5,34.3a3.8,3.8,0,0,1,2.4-4.8l1.8-.6-1.8-5.3-1.4-4a.4.4,0,0,0-.1-.3h0v-.2h0v-.2h.1a.1.1,0,0,1,.1-.1h0a.1.1,0,0,1,.1-.1h.2l.2-.2h.2c0-.1.1-.1.1-.2h0l.4-.2H40l1.6-.6L38.7,7.7a1.7,1.7,0,0,1,1-2.1l7.4-2.5h.5m12,59.2a12.6,12.6,0,0,0,2.7-.4,12.6,12.6,0,0,1-2.7.4M47.6,0h0L46.1.2,38.7,2.8a4.5,4.5,0,0,0-2.8,5.8l1.9,5.7h0l-.4.3-.4.3-.3.4-.3.4h-.1l-.2.3h0c-.1.1-.2.2-.2.3a.1.1,0,0,1-.1.1h0c0,.1-.1.2-.1.3h-.1a.4.4,0,0,1-.1.3v.2a.4.4,0,0,1-.1.3v1.5a.4.4,0,0,0,.1.3V20c.1.2.1.4.2.5L37,24.6l.9,2.5a6.8,6.8,0,0,0-3.3,8.2L42,56.8,50.3,81a6.7,6.7,0,0,0,6.4,4.6,7.8,7.8,0,0,0,2.2-.3l19.9-6.8,1.9-.7.6-.2a6.7,6.7,0,0,0,3.6-8.4L76.6,44.9,69.3,23.5a6.9,6.9,0,0,0-6.5-4.6H61.7l-.9-2.6-1.4-4a5.3,5.3,0,0,0-5.1-3.6h-.4L52,3.1A4.8,4.8,0,0,0,47.6,0Z" style="fill:#5576b4"/><path d="M47.1,3.1,39.7,5.6a1.7,1.7,0,0,0-1,2.1L41.6,16,52,12.4,49.1,4.1A1.5,1.5,0,0,0,47.1,3.1Z" style="fill:#6ab3b9"/><path d="M42.2,7.8c-1,.3-1.5,1.8-1,3.3s1.8,2.4,2.9,2,1.5-1.8,1-3.3S43.3,7.4,42.2,7.8Z" style="fill:#28575c"/><path d="M53.6,11.9l-1.6.5L41.6,16l-1.6.6h-.2l-.4.2h0c0,.1-.1.1-.1.2h-.2l-.2.2h-.2a.1.1,0,0,0-.1.1h0a.1.1,0,0,0-.1.1h-.1v.2h0v.2h0a.4.4,0,0,1,.1.3l1.4,4,1.8-.6L58,17.4l-1.4-4A2.3,2.3,0,0,0,53.6,11.9Z" style="fill:#cdf5f9"/><path d="M58,17.4,41.7,23l-1.8.6,1.8,5.3,2-.7a.4.4,0,0,0,.1.3.4.4,0,0,1-.1-.3l16.1-5.5Z" style="fill:#98d9e4"/><path d="M70.4,47.1A11.8,11.8,0,0,1,63,61.6l-.7.2a12.6,12.6,0,0,1-2.7.4H54.2l-.3-.2c-.1,0-.2,0-.2-.1h-.3l-.2-.2h-.3c0-.1-.1-.1-.2-.2h-.2c-.1-.1-.2-.1-.2-.2H52a.2.2,0,0,0-.2-.2l-.2-.2c-.1,0-.1-.1-.2-.2s-.1-.1-.2-.2-.1-.1-.2-.2h-.2l-.2-.3c-.1,0-.1-.1-.2-.2l-.2-.2a.3.3,0,0,1-.1-.2c-.1-.1-.2-.1-.2-.2s-.1-.2-.2-.2-.1-.2-.2-.3-.1-.1-.1-.2l-.2-.3a.3.3,0,0,1-.1-.2l-.2-.3a.3.3,0,0,0-.1-.2c0-.1-.1-.2-.1-.3s-.1-.1-.1-.2l-.2-.4a.1.1,0,0,0-.1-.1v-.3l-3.5,1.2,8.3,24.3A3.8,3.8,0,0,0,58,82.4l19.9-6.8,1.8-.6h.4a4,4,0,0,0,2-4.7L73.8,45.9Z" style="fill:#98d9e4"/><path d="M61.6,22.1l-1.8.6L43.7,28.2a.4.4,0,0,0,.1.3.4.4,0,0,1-.1-.3l-2,.7-1.8.6a3.8,3.8,0,0,0-2.4,4.8l7.3,21.5,3.5-1.2v.3a.1.1,0,0,1,.1.1l.2.4c0,.1,0,.1.1.2s.1.2.1.3a.3.3,0,0,1,.1.2l.2.3a.3.3,0,0,0,.1.2l.2.3c0,.1.1.1.1.2s.2.2.2.3.1.1.2.2.1.1.2.2a.3.3,0,0,0,.1.2l.2.2c.1.1.1.2.2.2l.2.3H51c.1.1.1.2.2.2s.1.2.2.2.1.2.2.2l.2.2a.2.2,0,0,1,.2.2h.3c0,.1.1.1.2.2h.2c.1.1.2.1.2.2h.3l.2.2h.3c0,.1.1.1.2.1l.3.2h5.4a12.6,12.6,0,0,0,2.7-.4l.7-.2a11.8,11.8,0,0,0,7.4-14.5l3.4-1.2L66.4,24.4A3.7,3.7,0,0,0,61.6,22.1Z" style="fill:#cdf5f9"/><circle cx="54.7" cy="33.2" r="1.9" style="fill:#781f1a"/><circle cx="48.2" cy="46.6" r="1.9" style="fill:#781f1a"/><circle cx="47.8" cy="37.9" r="1.9" style="fill:#781f1a"/><circle cx="55.8" cy="42" r="8.7" style="fill:#d98885"/><circle cx="54.3" cy="37.5" r="1.9" style="fill:#781f1a"/><circle cx="51.7" cy="44.4" r="1.9" style="fill:#781f1a"/><circle cx="59.5" cy="42.7" r="1.9" style="fill:#781f1a"/><circle cx="61.8" cy="36.1" r="1.9" style="fill:#781f1a"/><circle cx="64.4" cy="44.5" r="1.9" style="fill:#781f1a"/><circle cx="56.3" cy="50.7" r="1.9" style="fill:#781f1a"/><circle cx="56.1" cy="41.9" r="11.7" style="fill:none;stroke:#96b85c;stroke-miterlimit:10;stroke-width:2px"/><line x1="62.3" y1="32.1" x2="49.9" y2="51.8" style="fill:none;stroke:#96b85c;stroke-miterlimit:10;stroke-width:2px"/><path d="M16.6,21.5a1.4,1.4,0,0,1-1.1-.6l-2.9-3.4a1.7,1.7,0,0,1-.3-1.4,1.6,1.6,0,0,1,1.1-1l16.3-4.2h.4a1.4,1.4,0,0,1,1.4.9,1.5,1.5,0,0,1-.7,1.9L17.4,21.3Z" style="fill:#a7bfee"/><path d="M30.1,12.4,16.6,20l-2.8-3.4,16.3-4.2m0-3h-.7L13,13.7a2.9,2.9,0,0,0-2.1,1.9,3.1,3.1,0,0,0,.6,2.9l2.8,3.4A3.1,3.1,0,0,0,16.6,23a4.2,4.2,0,0,0,1.5-.4L31.6,15a3,3,0,0,0-1.5-5.6Zm0,6Z" style="fill:#5576b4"/><path d="M17.8,38.8a1.1,1.1,0,0,1-.8-.3l-6.2-4.3a1.6,1.6,0,0,1-.6-1.3,1.4,1.4,0,0,1,.6-1.2L31.3,17.1a1.5,1.5,0,0,1,2,.2,1.5,1.5,0,0,1,.1,1.9L19,38.2A1.4,1.4,0,0,1,17.8,38.8Z" style="fill:#a7bfee"/><path d="M32.2,18.3l-14.4,19-6.1-4.4L32.2,18.3m0-3a2.7,2.7,0,0,0-1.7.6L9.9,30.5a3,3,0,0,0-1.2,2.4,3,3,0,0,0,1.2,2.5l6.2,4.3a2.7,2.7,0,0,0,1.7.6,3,3,0,0,0,2.4-1.2l14.4-19a2.9,2.9,0,0,0-.3-3.9,2.7,2.7,0,0,0-2.1-.9Zm0,6Z" style="fill:#5576b4"/><path id="_315703984" data-name=" 315703984" d="M34.4,73a1,1,0,0,1-.2,1.5A2.9,2.9,0,0,1,30,74l-1.3-1.6a1.1,1.1,0,0,1,.2-1.5,1,1,0,0,1,1.5.2l1.3,1.6a.9.9,0,0,0,1.2.1,1.1,1.1,0,0,1,1.5.2Z" style="fill:#e57225;fill-rule:evenodd"/><path id="_315703744" data-name=" 315703744" d="M18.5,52.3a1.1,1.1,0,0,1-.2,1.5.9.9,0,0,0-.4.7,1.6,1.6,0,0,0,.3.9l1,1.3a1.1,1.1,0,0,1-.1,1.5,1.2,1.2,0,0,1-1.6-.1l-1-1.3a3.5,3.5,0,0,1-.7-2.6A2.8,2.8,0,0,1,17,52.1,1,1,0,0,1,18.5,52.3Z" style="fill:#e57225;fill-rule:evenodd"/><path id="_315703888" data-name=" 315703888" d="M25.6,75.4l2.2,2.8a1.2,1.2,0,0,1-.2,1.5,1.1,1.1,0,0,1-1.6-.2l-2.1-2.7a1.1,1.1,0,0,1,.2-1.6A1.2,1.2,0,0,1,25.6,75.4Z" style="fill:#e57225;fill-rule:evenodd"/><path id="_315704248" data-name=" 315704248" d="M11.8,57.6l2.1,2.6a1.4,1.4,0,0,1-.2,1.6,1.4,1.4,0,0,1-1.6-.2l-2-2.7a1.1,1.1,0,1,1,1.7-1.3Z" style="fill:#e57225;fill-rule:evenodd"/><path id="_315703936" data-name=" 315703936" d="M18.7,77.2l2,2.6a3.1,3.1,0,0,1-.6,4.3,1.1,1.1,0,0,1-1.5-.2,1.1,1.1,0,0,1,.2-1.6.7.7,0,0,0,.1-1.1l-2-2.6a1.2,1.2,0,0,1,.2-1.6,1.4,1.4,0,0,1,1.6.2Z" style="fill:#e57225;fill-rule:evenodd"/><path id="_315704176" data-name=" 315704176" d="M8.5,64.1l1.9,2.5a1,1,0,0,1-.2,1.5,1,1,0,0,1-1.5-.2L6.8,65.5a.8.8,0,0,0-1.2-.2,1,1,0,0,1-1.5-.2,1,1,0,0,1,.2-1.5,3,3,0,0,1,4.2.5Z" style="fill:#e57225;fill-rule:evenodd"/><path id="_315704464" data-name=" 315704464" d="M10.5,79.6a.8.8,0,0,1,.2.8l-.5,4.2a1.1,1.1,0,0,1-1.3.9A1,1,0,0,1,8,84.3l.6-4.2a1,1,0,0,1,1.2-.9.8.8,0,0,1,.7.4Z" style="fill:#ffaa5a;fill-rule:evenodd"/><path id="_315703816" data-name=" 315703816" d="M6.1,73.8a.8.8,0,0,1,.2.8,1.2,1.2,0,0,1-1.2,1L.9,75A1,1,0,0,1,0,73.8a1.2,1.2,0,0,1,1.2-1l4.2.6.7.4Z" style="fill:#ffaa5a;fill-rule:evenodd"/><path id="_315704128" data-name=" 315704128" d="M14.5,76.1a2.4,2.4,0,0,1,.2.9,5.7,5.7,0,0,1-4.9,4.4,5.5,5.5,0,0,1-4.7-2.1,5.4,5.4,0,0,1-.9-5.2A7.2,7.2,0,0,1,6,71.6a5.6,5.6,0,0,1,3.7-1.1,1.2,1.2,0,0,1,1,1.2l3.1,4a1,1,0,0,1,.7.4Z" style="fill:#e57225;fill-rule:evenodd"/><path id="_315703696" data-name=" 315703696" d="M29.9,60c2.4,3.2,2.2,8-.5,11.9A14.2,14.2,0,0,1,26.5,75l-1.6,1.1h-.3A12,12,0,0,1,18,77.8h-.1a10.8,10.8,0,0,1-4.1-1.1h-.1a10.4,10.4,0,0,1-2.5-2.2,7.1,7.1,0,0,1-1.4-2.9H9.7a9.9,9.9,0,0,1,0-4.2V67a12.6,12.6,0,0,1,3.2-6l.2-.2,1.4-1.3a16.5,16.5,0,0,1,3.7-2h0c4.5-1.7,9.2-.7,11.7,2.5Z" style="fill:#ffaa5a;stroke:#e57225;stroke-miterlimit:10;stroke-width:3px;fill-rule:evenodd"/><path id="_315703216" data-name=" 315703216" d="M28.6,61l.6.8L13.1,74.2l-.6-.7-.6-.8L28,60.2Z" style="fill:#ff8d3d;fill-rule:evenodd"/></g></g></g></svg>