<svg xmlns="http://www.w3.org/2000/svg" viewBox="0 0 32.3 37.8"><g id="Layer_2" data-name="Layer 2"><g id="Layer_1-2" data-name="Layer 1"><path d="M11.4,36.8,10,36.6a8.7,8.7,0,0,1-4.5-2.2,15,15,0,0,1-4.2-8.3,16.6,16.6,0,0,1,1.1-9.6,10.2,10.2,0,0,1,6.7-6.2,9.1,9.1,0,0,1,2.3-.3,7.7,7.7,0,0,1,2.7.4,8.7,8.7,0,0,1,2.7,1.4l.8-.3a10,10,0,0,1,2.4-.4h.3a9.8,9.8,0,0,1,4.4,1,10,10,0,0,1,5.2,7.2c.6,3.4-.3,6.8-1.1,9.4s-2.4,6-5.6,7.4a6.5,6.5,0,0,1-2.7.5,6.7,6.7,0,0,1-2.4-.4l-.6-.2a3,3,0,0,0-1.1-.4h-.2l-1.2.3h-.1l-2.2.7Z" style="fill:#e05555"/><path d="M11.5,11a8.5,8.5,0,0,1,2.3.3,13.5,13.5,0,0,1,2.9,1.6h.1l1.1-.4a5.4,5.4,0,0,1,2.2-.4h.2a8.6,8.6,0,0,1,3.9.9A9.2,9.2,0,0,1,29,19.4a18.6,18.6,0,0,1-1.2,9c-.9,2.7-2.3,5.5-5,6.8a6.6,6.6,0,0,1-2.3.4,7.6,7.6,0,0,1-2.1-.3,6.2,6.2,0,0,0-1.9-.7h-.3a4.7,4.7,0,0,0-1.6.4,8.6,8.6,0,0,1-2.1.7H10.2a8.6,8.6,0,0,1-4-2.1,13.4,13.4,0,0,1-4-7.7,16.2,16.2,0,0,1,1.1-9,9.3,9.3,0,0,1,6-5.6,7.8,7.8,0,0,1,2.2-.3m0-2a12.4,12.4,0,0,0-2.7.3,11.6,11.6,0,0,0-7.3,6.8A17.8,17.8,0,0,0,.3,26.3a14.8,14.8,0,0,0,4.6,8.8,10,10,0,0,0,4.9,2.5l1.6.2h1.4a12.3,12.3,0,0,0,2.5-.8h.1l.8-.2,1,.3.5.2a6.6,6.6,0,0,0,2.8.5,8.9,8.9,0,0,0,3.1-.6c3.5-1.6,5.1-5.1,6.1-8s1.9-6.3,1.2-9.9a11,11,0,0,0-5.8-7.9,11.3,11.3,0,0,0-4.8-1.1H20a8.6,8.6,0,0,0-2.7.5h-.4a8.4,8.4,0,0,0-2.5-1.3A9.2,9.2,0,0,0,11.5,9Z" style="fill:#b53c3c"/><path d="M17,13.3a2.3,2.3,0,0,1-2.2-1.8c0-.2-.1-.4,0-.6a1,1,0,0,1,.4-.9V8a3.3,3.3,0,0,1,.9-2.9,2.7,2.7,0,0,1,1.4-.5,2.5,2.5,0,0,1,2.4,1.7,3.8,3.8,0,0,1-.2,3v.3L19,11.3a2.5,2.5,0,0,1-1.9,2Z" style="fill:#d98885"/><path d="M17.5,5.6a1.5,1.5,0,0,1,1.5,1,4.2,4.2,0,0,1-.4,2.7,8.8,8.8,0,0,1-.5,1.5c-.2.6-.3,1.4-1.1,1.5h0a1.4,1.4,0,0,1-1.2-1c0-.1-.1-.2,0-.3s.4-.5.4-.8V8.4c0-.8-.2-2,.6-2.5a1.1,1.1,0,0,1,.7-.3m0-2h0a3.1,3.1,0,0,0-2,.7C14.1,5.4,14.2,7.1,14.2,8V9.6a2.1,2.1,0,0,0-.4,1.1,4.1,4.1,0,0,0,0,1.1A3.5,3.5,0,0,0,17,14.3h.2A3.2,3.2,0,0,0,20,11.6v-.2l.5-1.5V9.6a5.6,5.6,0,0,0,.3-3.7,3.7,3.7,0,0,0-3.4-2.3Z" style="fill:#6a3417"/><path d="M24.8,16.8a5.6,5.6,0,0,1-2.8-1l-.6-.5-.5-.4h-.3a2.9,2.9,0,0,1-1.1-.9h-.1a1.6,1.6,0,0,1-.2-1.5,4.1,4.1,0,0,1,2.9-2.2l2.4-.3h.7a9.5,9.5,0,0,1,5.5,2.4,1.6,1.6,0,0,1,.5,1.7,1.6,1.6,0,0,1-1.4,1h-.4a2,2,0,0,0-.9.6l-.7.4a4.7,4.7,0,0,1-2.8.9Z" style="fill:#b9e48e"/><path d="M24.5,10.9h.6a9.3,9.3,0,0,1,5,2.1c.3.3.2,1-.3,1h-.4c-.8,0-1.5.8-2.1,1.2a4.8,4.8,0,0,1-2.3.7h-.1a4.5,4.5,0,0,1-2.3-.8,8.7,8.7,0,0,0-1.1-.9c-.4-.3-1-.3-1.2-.7h0a.4.4,0,0,1-.2-.5,3,3,0,0,1,2.3-1.6l2.1-.3m0-2a10.9,10.9,0,0,0-2.6.3,5.2,5.2,0,0,0-3.7,2.9,2.6,2.6,0,0,0,.4,2.4,3.3,3.3,0,0,0,1.7,1.2h.1l.3.3.7.6a7,7,0,0,0,3.4,1.2H25a6.7,6.7,0,0,0,3.4-1l.7-.6.4-.2h.3a2.6,2.6,0,0,0,2.3-1.6,2.6,2.6,0,0,0-.7-2.9,10.8,10.8,0,0,0-6.1-2.6Z" style="fill:#507125"/><path d="M12.9,12.1h-.4a1.9,1.9,0,0,1-1.3-.7.2.2,0,0,1-.2-.2l-.6-.2-.7-.4A5.3,5.3,0,0,1,7.6,8.4a4.8,4.8,0,0,1-.5-3.1c0-.2.1-.5.1-.8a1.5,1.5,0,0,0,.1-1.1,1.4,1.4,0,0,1-.2-1.5A1.9,1.9,0,0,1,8.6,1h.6a10.3,10.3,0,0,1,4.5,4,10,10,0,0,1,1,2.9,4.1,4.1,0,0,1-.8,3.7,1.5,1.5,0,0,1-1,.4Z" style="fill:#b9e48e"/><path d="M8.6,2h.2a9.3,9.3,0,0,1,4,3.6,8,8,0,0,1,.9,2.6,3.1,3.1,0,0,1-.5,2.8h-.6c-.4,0-.7-.5-1.1-.7a7.5,7.5,0,0,0-1.3-.6A4.9,4.9,0,0,1,8.5,7.9a4.3,4.3,0,0,1-.4-2.5c.1-.8.6-1.8,0-2.6s.1-.8.5-.8m0-2h0A2.7,2.7,0,0,0,6.2,1.5a2.1,2.1,0,0,0,.2,2.3.9.9,0,0,0-.1.5,2.9,2.9,0,0,0-.2.9,5.7,5.7,0,0,0,.6,3.6,6.9,6.9,0,0,0,2.5,2.6l.8.4.4.2h.1a3,3,0,0,0,1.8.9h.6a2.4,2.4,0,0,0,1.7-.7,5.4,5.4,0,0,0,1.1-4.6,9.6,9.6,0,0,0-1.2-3.2A10.5,10.5,0,0,0,9.6.2L8.6,0Z" style="fill:#507125"/><path d="M6.9,14.4c.7-.7,2.7-2.3,3.6-.9s-.1,2.2-.4,3.2-.7,2.7-1.6,3.7a2,2,0,0,1-3.3-.9C4.6,17.8,5.7,15.7,6.9,14.4Z" style="fill:#ec7670"/><path d="M4.7,24.7a5.7,5.7,0,0,1,.1-1.3,2.8,2.8,0,0,1,1.1-1.3,1.6,1.6,0,0,1,1.5,0,2.2,2.2,0,0,1,1,1.3,5.3,5.3,0,0,1,.1,1.3,2,2,0,0,1-1.9,1.9C5.7,26.5,4.6,25.7,4.7,24.7Z" style="fill:#ec7670"/></g></g></svg>