<svg xmlns="http://www.w3.org/2000/svg" viewBox="0 0 70.6 48.1"><g style="isolation:isolate"><g id="Layer_2" data-name="Layer 2"><g id="Layer_1-2" data-name="Layer 1"><path d="M68.6,37.8c.1,5.1-14.8,7.8-33.1,8.2S2.1,43.8,2,39.2s14.8-6.5,33.2-6.9S68.5,34.4,68.6,37.8Z" style="fill:#becff8"/><path d="M35.4,44.7C21.4,45,7.1,43.1,7,38.9c0-1.5,2.9-2.9,8.5-4A118.5,118.5,0,0,1,35.2,33a128.4,128.4,0,0,1,19.7,1c5.7.9,8.7,2.2,8.7,3.7s-4.6,4.2-8.5,5A108,108,0,0,1,35.4,44.7Zm-.2-10.8a124.5,124.5,0,0,0-19.3,1.8c-4.7.9-7.5,2.1-7.5,3.1.1,3.1,11.9,5.3,27,5a114.9,114.9,0,0,0,19.3-1.9c3.4-.8,7.5-2.1,7.5-4.2s-2.9-2.1-7.7-2.8A122.3,122.3,0,0,0,35.2,33.9Z" style="fill:#ecf5ff"/><path d="M58.1,37.5c0,2.1-10.2,2.9-22.8,3.2s-22.8-.4-22.8-2.2,10.1-2.7,22.7-3S58.1,36.2,58.1,37.5Z" style="fill:#9cb4ed"/><path d="M39,32.3c16.6,0,29.5,2.3,29.6,5.5.1,5.1-14.8,7.8-33.1,8.2H31.9C15.2,46.1,2.1,43.5,2,39.2s14.8-6.5,33.2-6.9H39m0-2H35.1a139,139,0,0,0-23.8,2.4C3.4,34.3-.1,36.4,0,39.3c.2,7.9,22.4,8.8,31.9,8.8h3.6a130.3,130.3,0,0,0,23.9-2.3c7.6-1.8,11.3-4.3,11.2-7.9s-3.2-4.6-10.3-5.9A126.8,126.8,0,0,0,39,30.3Z" style="fill:#5576b4"/><path d="M40.5,7.3C40,12.5,30.6,15.4,27,17.6a14.5,14.5,0,0,0-5,4.5c-2.8,4.2-1.8,9.7-.7,14.6l-4.6-.2h-.5a2.6,2.6,0,0,1-1.3-.6,2.8,2.8,0,0,1-.4-1.2c-.5-3.5-1-7-1.3-10.5A3.6,3.6,0,0,1,11,20a3.6,3.6,0,0,1,3.7-2.8A4.2,4.2,0,0,1,16.4,12a6.9,6.9,0,0,1,5.8-.5,6,6,0,0,1,8.6-5.3c.4-5.8,8.7-5.3,9.6-.3A6.1,6.1,0,0,1,40.5,7.3Z" style="fill:#ffaa5a"/><path d="M40.5,7.3C40,12.5,30.6,15.4,27,17.6a14.5,14.5,0,0,0-5,4.5c-2.8,4.2-1.8,9.7-.7,14.6l-4.6-.2h-.5c-.4-3.2-.7-6.5-1.1-9.8a6.7,6.7,0,0,0-.5-1.9c-.3-.7-.8-1.2-1.1-1.9a2.9,2.9,0,0,1,.4-3.1,3,3,0,0,1,3.1-1A5.4,5.4,0,0,1,19.1,14a5.7,5.7,0,0,1,5.2-.5,5.8,5.8,0,0,1,2.9-5.1,5.9,5.9,0,0,1,5.9.1c.5-3.5,5.1-4.6,7.3-2.6A6.1,6.1,0,0,1,40.5,7.3Z" style="fill:#f79a2d;opacity:0.30000000000000004;mix-blend-mode:multiply"/><path d="M56.3,23.6v11a2.6,2.6,0,0,1-2.4,2.3c-8.4.4-28.2.3-34.8.2a2.5,2.5,0,0,1-2.4-2.2,8.8,8.8,0,0,1-.2-1.6,10,10,0,0,1-.2-1.6l-.3-2.5c-.1-.5-.1-1.1-.2-1.5s-.2-1.8-.3-2.5-.1-1.1-.1-1.5a6.2,6.2,0,0,1-.1-1.3,2.2,2.2,0,0,1,0-.8,3.5,3.5,0,0,1,.8-1.3l1.2-1C24.6,14,34.4,9.5,38.1,7.9a2.5,2.5,0,0,1,2.6.5L55.5,21.8a4.1,4.1,0,0,1,.7,1.1C56.2,23.1,56.3,23.4,56.3,23.6Z" style="fill:#fd5245"/><path d="M56.3,25.1v1.5a13.5,13.5,0,0,0-4,.2c-1,.2-1.7.7-2.7,1a2.5,2.5,0,0,1-2.2-.5,4.4,4.4,0,0,0-4.3.1,3,3,0,0,1-2.1.3l-1.5-.8a2.5,2.5,0,0,0-1.8-.6,4.7,4.7,0,0,0-1.7.4,4.2,4.2,0,0,1-3.8-.3,3.1,3.1,0,0,0-2.3-.3,13.8,13.8,0,0,1-2,.3c-1.5,0-2.7-1.2-4.2-.9l-2.2.6h-.1a4.6,4.6,0,0,1-2-.2c-.9-.4-2.4-1.3-3.5-.7s-.1-1.1-.1-1.5a5.4,5.4,0,0,1,3.3.4l.9.4a3.8,3.8,0,0,0,1.5.1L24,24c1.6-.2,2.8,1.1,4.3.9l2.4-.4a3.5,3.5,0,0,1,2,.5,2.9,2.9,0,0,0,1.8.5,5.9,5.9,0,0,0,1.9-.5,4.6,4.6,0,0,1,3.8.5c.5.3,1.1.9,1.7.8s1.4-.7,2.2-.9a6.2,6.2,0,0,1,4.2.7,1.2,1.2,0,0,0,1.3.1,3.1,3.1,0,0,0,1-.5l2.4-.5A12.2,12.2,0,0,1,56.3,25.1Z" style="fill:#c7271b;opacity:0.45"/><path d="M56.5,29.1v1.4a15.1,15.1,0,0,0-3.7.2,21.5,21.5,0,0,0-2.7,1,2.7,2.7,0,0,1-2.3-.4,4.5,4.5,0,0,0-4.2,0,3.1,3.1,0,0,1-2.1.3,4.8,4.8,0,0,1-1.6-.8,2.8,2.8,0,0,0-1.8-.6l-1.7.5a5,5,0,0,1-3.8-.3,2.9,2.9,0,0,0-2.2-.4,8,8,0,0,1-1.5.3h-.6c-1.4,0-2.7-1.3-4.1-.9s-1.5.5-2.3.6a4.4,4.4,0,0,1-2-.3c-1-.3-2.5-1.3-3.5-.6s-.1-1.1-.2-1.5a4.7,4.7,0,0,1,3.3.4,5.3,5.3,0,0,0,2.5.5l1.8-.6h.6c1.5-.1,2.7,1.1,4.2,1a20,20,0,0,1,2.4-.4,3.1,3.1,0,0,1,2.1.5,2.9,2.9,0,0,0,1.8.5l1.9-.5a4.3,4.3,0,0,1,3.8.5c.5.3,1.1.8,1.7.7a18,18,0,0,0,2.1-.8,5.6,5.6,0,0,1,4.2.6,1.4,1.4,0,0,0,1.4.2l1-.5a8.6,8.6,0,0,1,2.3-.6A16,16,0,0,1,56.5,29.1Z" style="fill:#c7271b;opacity:0.45"/><path d="M56.7,33.1v1.5a10.3,10.3,0,0,0-3.5.2c-.9.2-1.7.7-2.7,1a2.9,2.9,0,0,1-2.2-.4,4.2,4.2,0,0,0-4.2,0,3.3,3.3,0,0,1-2.2.3l-1.5-.8a2.5,2.5,0,0,0-1.8-.6l-1.7.4a4.6,4.6,0,0,1-3.8-.2,3.1,3.1,0,0,0-2.3-.4,6.4,6.4,0,0,1-2,.3c-1.5.1-2.7-1.2-4.2-.9a14.2,14.2,0,0,1-2.2.7,6.4,6.4,0,0,1-2-.3c-1-.4-2.5-1.3-3.5-.6a10,10,0,0,1-.2-1.6,4.8,4.8,0,0,1,3.3.5,4.3,4.3,0,0,0,2.5.4c.8-.1,1.5-.5,2.3-.6s2.8,1.1,4.3.9a20,20,0,0,0,2.4-.4,5,5,0,0,1,2.1.5,2.3,2.3,0,0,0,1.8.6l1.9-.5a4.3,4.3,0,0,1,3.8.5c.5.3,1,.8,1.7.7a7.1,7.1,0,0,0,1.8-.8H45a5.3,5.3,0,0,1,3.5.3l.7.3a1.2,1.2,0,0,0,1.4.1l.8-.4h.2a8.6,8.6,0,0,1,2.3-.6Z" style="fill:#c7271b;opacity:0.45"/><path d="M56.2,22.9l-6.4-.2H44l-3.8-.2H25.1l-9.3-.3a3.5,3.5,0,0,1,.8-1.3l1.8-1.4L21,17l2.2-1.4h.1l1.8-1.1,1.1-.6.4-.2,4.1-2.2.5-.3,2-1h.2l1.1-.6.9-.4,2.7-1.2a2.5,2.5,0,0,1,2.6.5l1.4,1.2.7.7.4.3,1,1,1,.9.2.2,2.9,2.6.5.5,2,1.8h0L54.6,21l.9.8A4.1,4.1,0,0,1,56.2,22.9Z" style="fill:#e94a33"/><path d="M56.2,22.9l-6.4-.2H44l-3.8-.2H25.1l-9.3-.3a3.5,3.5,0,0,1,.8-1.3l1.8-1.4c0,.2.1.3.2.5a4.2,4.2,0,0,0,2,1,11.9,11.9,0,0,0,8.9-.7h.3c.2,0,.4.3.6.4a1.2,1.2,0,0,0,1.5,0l1.2-1,.6-.2c.6-.1,1,.5,1.3,1a4.4,4.4,0,0,0,4.1,1.7,4.4,4.4,0,0,0,3.4-2.8l2.2,1.7c.2.1.4.3.6.2l.4-.2,1.5-1.3a4.9,4.9,0,0,0,6.3,2.6l1.1-.7.9.8A4.1,4.1,0,0,1,56.2,22.9Z" style="fill:#c7271b;opacity:0.45"/><path d="M42.4,20.5l2.3,2.1H44l-3.8-.2Z" style="fill:#f79726"/><path d="M48.9,16a21.9,21.9,0,0,0-3.1,4.8c-2.8-1.2-4.9-3.5-7.2-5.5l-.6-.2h-.4A29.3,29.3,0,0,0,32,19.4a.5.5,0,0,1-.5.3h-.3a14.3,14.3,0,0,1-6-4.9v-.3l1.1-.6.4-.2a9.1,9.1,0,0,0,2.3,1.5,5.3,5.3,0,0,0,4.1-.4c1.1-.6,2.1-1.8,1.6-3a10,10,0,0,0-1.4-1.6h.2l1.1-.6.9-.4a5.2,5.2,0,0,0,3.1,1.6,5.3,5.3,0,0,0,3.6-1.1l.7.7.4.3,1,1a3.7,3.7,0,0,0-1.5,2,3,3,0,0,0,2.1,3.3A4.4,4.4,0,0,0,48.9,16Z" style="fill:#c7271b;opacity:0.45"/><path d="M49.8,22.7H44.7l-2.3-2.1-4.1-3.4-2.6-2.3-4.5-3.7,2.2-1,1.1-.6,4.1,3.4,2.7,2.3,3.6,3.1,2.5,2.3Z" style="fill:#ffaa5a"/><path d="M45.4,12.7l-3.4,2-.7.5-3,1.9-4.6,3.2-2.5,1.8H26l2.4-1.9,2.8-2,4.5-3.3,2.9-1.9,4.2-2.6.4.3,2,1.9Z" style="fill:#f79726"/><path d="M50.8,17.6l-3.4,3-2.5-2.3,3.4-3,.5.5Z" style="fill:#f79726"/><path d="M36.1,22.3H30.8l-2.4-2-5.2-4.5h.1l2.9-1.7,5,4.3,2.5,2.2Z" style="fill:#ffaa5a"/><path d="M35.3,2a5,5,0,0,1,5.1,3.9,6.1,6.1,0,0,1,.1,1.4c-.1.3-.1.6-.2.8l.4.3,2.4,2.2h.1l.4.4,1.7,1.6h.1l2.9,2.6.5.5,2,1.8h0L54.6,21l.9.8a4.1,4.1,0,0,1,.7,1.1c0,.2.1.5.1.7v11a2.6,2.6,0,0,1-2.4,2.3c-4.5.2-12.3.3-19.5.3H19.6a2.7,2.7,0,0,1-1.5-.5H16.2a2.6,2.6,0,0,1-1.3-.6,2.8,2.8,0,0,1-.4-1.2c-.5-3.5-1-7-1.3-10.5a3.6,3.6,0,0,1,1.3-6.9h.2A4.2,4.2,0,0,1,16.4,12a5.7,5.7,0,0,1,3.2-.9,12.7,12.7,0,0,1,2.6.4,5.9,5.9,0,0,1,2.8-5,5.7,5.7,0,0,1,3.2-.9,6.2,6.2,0,0,1,2.6.6A4.3,4.3,0,0,1,35.3,2m0-2a6.4,6.4,0,0,0-6,3.7H28.2a8,8,0,0,0-4.3,1.2,8.4,8.4,0,0,0-3.4,4.3h-.9a7.7,7.7,0,0,0-4.3,1.2,6.5,6.5,0,0,0-3,5.4A5.7,5.7,0,0,0,9,19.6a5.6,5.6,0,0,0,2.3,5.7c.3,3.2.7,6.4,1.2,9.5a4.6,4.6,0,0,0,.8,2.2,4.1,4.1,0,0,0,2.5,1.4h1.7a3.9,3.9,0,0,0,2.1.6H34.9c9.2,0,15.8-.1,19.6-.3a4.3,4.3,0,0,0,4.2-4.1,1.3,1.3,0,0,0,.1-.6V23.5c-.1-.4-.1-.8-.2-1.2a5,5,0,0,0-1.3-1.9l-.9-.8-3.8-3.5h0l-2-1.8-.5-.5-2.8-2.6h-.1L44.9,9.5l-.4-.3h0l-2-1.8a10.9,10.9,0,0,0-.1-1.8A7.1,7.1,0,0,0,35.3,0Z" style="fill:#e57225"/></g></g></g></svg>