<svg xmlns="http://www.w3.org/2000/svg" viewBox="0 0 54.8 58.3"><g id="Layer_2" data-name="Layer 2"><g id="Layer_1-2" data-name="Layer 1"><path d="M28.4,57.3h-.6c-.8-.2-1.2-.6-1.3-1l-3.1.2a23.5,23.5,0,0,1-6-.8h0a1.6,1.6,0,0,1-1.4.7c-3.4,0-8.3-5.2-10.9-10.3H4.7c-1,0-1.4-1.1-1.6-1.4C1.3,40.8,0,33.1,2,23.8a1.4,1.4,0,0,1-.5-1.2c-.1-1.2.7-2.8,2.1-4.8a1.4,1.4,0,0,1,0-.9c.3-2.7,3-5.2,6.9-8.2-.2-.8.6-1.4.8-1.6,3.3-2.6,9.4-4,13.1-4.5h0a1.8,1.8,0,0,1,1.4-1.3L27.4,1A29.8,29.8,0,0,1,40.6,4.9,26.6,26.6,0,0,1,51.5,16.7c1.7,3.4,2.7,7.6,2.2,9l-.3.6c.8,9.7-3.3,17.2-5.9,20.1-1.2,1.3-1.8,1.5-2.2,1.5h-.5c-3,3.4-6.7,7.1-8.9,7.4h-.4a1.3,1.3,0,0,1-1-.3C32.7,56,30.2,57.3,28.4,57.3Z" style="fill:#935f54"/><path d="M27.4,2A30.5,30.5,0,0,1,40.1,5.7,26.8,26.8,0,0,1,50.6,17.1c1.8,3.7,2.5,7.4,2.2,8.2s-.2.3-.3.3h-.2c1.4,12.8-5.8,21.4-7,21.4h-.1c-.2,0-.4-.4-.3-.8-1.8,2.1-6.8,7.8-9.2,8.1h-.2c-.5,0-.7-.3-.6-.7s-4.5,2.8-6.5,2.8H28c-.8-.1-.7-.6-.1-1.2h-.8l-3.7.3a22.6,22.6,0,0,1-7.2-1.2c.4.7.5,1.1-.2,1.1h-.1c-3,0-8.2-5.7-10.6-11-.2.5-.4.8-.6.8s-.4-.3-.7-.8C2,40,1.1,31.8,3.2,23H2.9c-.2,0-.4-.1-.4-.5s1.4-3.5,2.4-4.8a.1.1,0,0,1,.1-.1c-.3,0-.5-.2-.4-.7.3-2.6,3.6-5.4,7.5-8.2-.7-.1-.9-.4-.1-.9,3.4-2.7,10.3-4.2,14.1-4.5-.5-.3-1.2-.9,0-1.3h1.3m0-2L25.5.2a2.8,2.8,0,0,0-1.8,1.5c-3.9.6-9.7,2-13,4.6A3.2,3.2,0,0,0,9.5,8.2c-3.9,3-6.5,5.7-6.9,8.5a1.4,1.4,0,0,0,0,.9C.4,20.7.5,22.1.5,22.7a2.9,2.9,0,0,0,.4,1.4C-1,33.4.4,41.2,2.2,45.2a2.9,2.9,0,0,0,2.3,2C7.1,51.8,12,57.4,15.9,57.4H16a2.4,2.4,0,0,0,1.7-.6,21.7,21.7,0,0,0,5.7.7H26a2.7,2.7,0,0,0,1.7.9h.7c1.8,0,4.2-1.1,6.2-2.3l.9.2H36c.8-.1,3-.5,9.1-7.3h.2c.9,0,1.8-.6,3-1.9,2.6-2.9,6.8-10.5,6.1-20.4l.3-.6c.6-1.8-.7-6.5-2.3-9.7A28.3,28.3,0,0,0,41.1,4,32.3,32.3,0,0,0,27.4,0Z" style="fill:#613629"/><path d="M36.5,11c-.2-1.3-2.9-2.3-4.4-2.4s-2.7.7-2.7,1.8,2.6,2.1,4.2,2.2S36.7,12.3,36.5,11Z" style="fill:#5e3733"/><path d="M41.3,13.3c-.6.1-.7,1.6-.5,2.6s1.1,2.8,2.3,2.2S43.5,12.9,41.3,13.3Z" style="fill:#5e3733"/><path d="M35.9,15.8c-2-.6-4.4.3-4.4,1.3s2.4,2.4,4.7,2.5S39.2,16.9,35.9,15.8Z" style="fill:#5e3733"/><path d="M26.6,50.1a3.2,3.2,0,0,0-2.3-.7c-.8,0-1.4,0-1.2.8s1.6,1.3,2.2,1.3S27.1,51,26.6,50.1Z" style="fill:#7a473f"/><path d="M29.4,47.1c.6-.1,2-.6,1.8-1.2s-2-1.1-3.1-.4S27.9,47.2,29.4,47.1Z" style="fill:#7a473f"/><path d="M34.2,49.3c-.2-.7-2.6-.3-3.4.7s0,1.7,1.2,1.5S34.5,50,34.2,49.3Z" style="fill:#7a473f"/><path d="M36.1,43.2c-.2-.3-1.5.3-1.8,1s.2.9.9.6S36.4,43.6,36.1,43.2Z" style="fill:#7a473f"/><path d="M43.2,35.3c-.4-.4-1.9.9-2,1.9s.6,1.2,1.3.5S43.7,35.7,43.2,35.3Z" style="fill:#7a473f"/><path d="M40.9,46c.4-1.1.4-2.4-.7-2s-3.2,2.8-2.3,3.9S40.4,47.4,40.9,46Z" style="fill:#7a473f"/></g></g></svg>