<svg xmlns="http://www.w3.org/2000/svg" xmlns:xlink="http://www.w3.org/1999/xlink" viewBox="0 0 92.1 80.1"><defs><linearGradient id="linear-gradient" x1="-656.76" y1="120.82" x2="-656.85" y2="120.56" gradientTransform="matrix(4.88, 0, 0, -4.88, 3215.3, 630.64)" gradientUnits="userSpaceOnUse"><stop offset="0" stop-color="#0e500a"/><stop offset="1" stop-color="#09350d"/></linearGradient></defs><g id="Layer_2" data-name="Layer 2"><g id="Layer_1-2" data-name="Layer 1"><g id="food_1" data-name="food 1"><path d="M12.4,44.3l.3.5a1.8,1.8,0,0,1-.7.5.9.9,0,0,1-.3-.7h.1Z" style="fill:#072f07"/><path d="M79.7,44.8a5.9,5.9,0,0,1,2.2,1.9l.5.9a3.3,3.3,0,0,1,.1,1.4,4,4,0,0,1-1,2.4,4.3,4.3,0,0,0-.4.7c-.7,2.9-1.4,5.9-2.3,8.8-1.3,4.6-2.9,10.7-7.2,13.5a10.1,10.1,0,0,1-2.3,1.2,19.5,19.5,0,0,1-4,1,87.9,87.9,0,0,1-18.4,1.5,88,88,0,0,1-10.3-.3,70.7,70.7,0,0,1-10.3-1.3c-3.5-.8-6.5-2.1-8.5-5.3s-3.9-9-5-13.5a43.9,43.9,0,0,1-1.3-5.2c-.5-1.8-1.5-1.7-1.4-4a3.4,3.4,0,0,0,0-1H9.9c.1,0,.3,0,.3-.1s.3-.5.4-.6A6.7,6.7,0,0,1,12,45.3a1.8,1.8,0,0,0,.7-.5h0l1,1.2,1.9,1.6a7.1,7.1,0,0,0,.6,2.5h.1a50,50,0,0,0,7.6,2l2.3.4,2.3.3,4.4.4,1.8.2c2.4.1,4.8.3,7.2.2H55.1l6.9-.5h.3l1.9-.2,3.6-.4,4.6-1a16.6,16.6,0,0,0,3.5-1.3l1.3-.7a3.5,3.5,0,0,0,1.6-2,1.9,1.9,0,0,0-.3-1.3A5.3,5.3,0,0,0,79.7,44.8Z" style="fill:#7e4304"/><path d="M19.9,56.1l.8.2a7.7,7.7,0,0,0,.2,1.5c.3,1.5.6,3,1,4.6l-.9-.2A32.6,32.6,0,0,1,19.9,56.1Z" style="fill:#714003"/><path d="M37.6,58.4h1.6c-.2,0-.4-.1-.5,0a8.6,8.6,0,0,0,0,1.6l.3,4.3H37.9C37.8,62.4,37.6,60.4,37.6,58.4Z" style="fill:#714003"/><path d="M54,58.3h.9c0,2-.2,4-.2,6H53.6c0-.9.1-1.8.1-2.6S53.8,58.7,54,58.3Z" style="fill:#714003"/><path d="M72.9,56c-.4,2.1-.8,4.1-1.3,6.2l-1.5.3a40.4,40.4,0,0,0,1.4-6.1h-.1Z" style="fill:#714003"/><path d="M29.3,75.5c3.6.1,6.3,0,9.5-1.5a22.9,22.9,0,0,0,.8,2.8L33,76.3l-3.5-.5Z" style="fill:#b0610e"/><path d="M68.8,56.9a9.3,9.3,0,0,1,2.2-.4,60.1,60.1,0,0,1-1.4,6.1l-2.8.5A22.5,22.5,0,0,0,68.8,56.9Z" style="fill:#9e5106"/><path d="M66.5,63.7a24,24,0,0,0,2.4-.4c2.8-.6,6.4-1.2,8.9-2.7-.2.6-.3,1.1-.5,1.6l-4,1.3-4.2,1-3.3.5C66,64.6,66.3,64.2,66.5,63.7Z" style="fill:#714003"/><path d="M52.4,58.4h1c0,1.3-.1,2.6-.2,3.9s-.1,1.4-.2,2.1H49.6a18.3,18.3,0,0,0,1.9-6Z" style="fill:#b0610e"/><path d="M70.8,64.6h.1a12.4,12.4,0,0,1-.4,1.6,24.3,24.3,0,0,1-4.7,9l-1.5.3h-.1a9.1,9.1,0,0,0,1.1-1.6,20.6,20.6,0,0,0,3.3-6.2l.9-2.7Z" style="fill:#714003"/><path d="M38.2,66.8h1.4a.1.1,0,0,1,.1.1,41.7,41.7,0,0,0,1,6,7.6,7.6,0,0,0,.6,2,15.9,15.9,0,0,0,.7,2h-.6a4.8,4.8,0,0,0-1.2,0A44.1,44.1,0,0,1,38.2,66.8Z" style="fill:#714003"/><path d="M39.2,66.8h.4a.1.1,0,0,1,.1.1,41.7,41.7,0,0,0,1,6,7.6,7.6,0,0,0,.6,2,15.9,15.9,0,0,0,.7,2h-.6l-.6-1.8c-.3-.9-.6-1.9-.8-2.8S39.5,68.6,39.2,66.8Z" style="fill:#7e4304"/><path d="M17.7,68.6h0c.4.1.7.5,1.1.7a9.9,9.9,0,0,0,4.4,1.4,16,16,0,0,0,2.9,4.4,16.1,16.1,0,0,1-2.9-.9A10.3,10.3,0,0,1,17.7,68.6Z" style="fill:#b0610e"/><path d="M21.1,64.7c0-.1,0-.1.1-.1h.4c.1,0,.1.1.1.2h.9c1.1,3.4,2.2,6.8,4.7,9.4l1.5,1.4-1.7-.3h0c-.2.1-.7-.1-1-.2a16,16,0,0,1-2.9-4.4A43.9,43.9,0,0,1,21.1,64.7Z" style="fill:#714003"/><path d="M21.1,64.7c0-.1,0-.1.1-.1h.4c.1,0,.1.1.1.2a26.3,26.3,0,0,0,3.2,8,10.9,10.9,0,0,0,2.2,2.6h0c-.2.1-.7-.1-1-.2a16,16,0,0,1-2.9-4.4A43.9,43.9,0,0,1,21.1,64.7Z" style="fill:#7e4304"/><path d="M39.7,66.9a24.3,24.3,0,0,1,2.7,0h5.4a24.2,24.2,0,0,1-7.1,6A41.7,41.7,0,0,1,39.7,66.9Z" style="fill:#c97920"/><path d="M15.4,62.9l4.4,1.4c.2,0,1.2.2,1.3.4a43.9,43.9,0,0,0,2.1,6.1,9.9,9.9,0,0,1-4.4-1.4c-.4-.2-.7-.6-1.1-.7h0a3.1,3.1,0,0,1-.6-1.3A33.4,33.4,0,0,1,15.4,62.9Z" style="fill:#c97920"/><path d="M12.8,53.5c.5.1.9.6,1.4.8l2,.7c.3.2,3.1,1,3.1,1,.3,2,.7,4,1.1,6l-5.9-1.9C13.8,57.9,13.3,55.7,12.8,53.5Z" style="fill:#c97920"/><path d="M73.4,56h0l3.1-1.1,1.7-.8a7.4,7.4,0,0,1,1.5-.8c-.2.9-1.7,6.8-1.9,7.2h-.4l-1.6.7-3.7,1.1C72.6,60,73.1,58,73.4,56Z" style="fill:#9e5106"/><path d="M76.9,62.9H77c.1.6-1.8,5.2-2.2,6l-1,1.7a10.2,10.2,0,0,1-7,4.5h-.1a10.1,10.1,0,0,1,.9-1.3l1.6-2.9a37.7,37.7,0,0,0,2.3-6.4A48.1,48.1,0,0,0,76.9,62.9Z" style="fill:#9e5106"/><path d="M14.7,60.7a32.6,32.6,0,0,0,4.4,1.5c7.8,2.1,16,2.7,24.1,2.9h6.5l8.9-.5,5.3-.5,2.6-.4c-.2.5-.5.9-.7,1.3a22.3,22.3,0,0,1-3.6.5c-3.2.4-6.5.6-9.7.7l-4.2.2c-2.5.1-5.1,0-7.6-.1a96.9,96.9,0,0,1-17.8-1.9c-1.7-.3-3.4-.8-5.2-1.3l-2.5-.7Z" style="fill:#7e4304"/><path d="M39.2,58.5h2.6c2.3.1,4.6.1,7,0h2.7a18.3,18.3,0,0,1-1.9,6H39.5A58.3,58.3,0,0,1,39.2,58.5Z" style="fill:#c97920"/><path d="M55.5,58.3a100,100,0,0,0,13.3-1.4,22.5,22.5,0,0,1-2,6.2,90.9,90.9,0,0,1-11.7,1.2c.1-.7.1-1.5.2-2.3S55.4,59.5,55.5,58.3Z" style="fill:#b0610e"/><path d="M21.2,56.5h.1l1.4.3,2.2.4c3.1.5,6.3.8,9.5,1l2.7.2c0,2,.2,4,.3,5.9l-3.7-.2-3.8-.4-3.8-.5-3.7-.7C21.9,60.5,21.6,58.5,21.2,56.5Z" style="fill:#c97920"/><path d="M54.4,66.8h.3a.3.3,0,0,1,.1.2v.2c-.1,1.2-.3,2.5-.5,3.8s-.5,2.5-.8,3.8a16.6,16.6,0,0,1-.6,2.1H42a15.9,15.9,0,0,1-.7-2,7.6,7.6,0,0,1-.6-2,24.2,24.2,0,0,0,7.1-6h3.3a8.6,8.6,0,0,1,1.6,0c0-.1,0-.1.1-.2l.4.2Z" style="fill:#b0610e"/><path d="M48.5,76.9l.5-.3,1.8-.6-.5.9Z" style="fill:#9e5106"/><path d="M52.7,66.9c0-.1,0-.1.1-.2l.4.2c-.4,3.4-.8,6.8-2.3,10h-.6l.5-.9C52,73.1,52.3,69.9,52.7,66.9Z" style="fill:#7e4304"/><path d="M54.4,66.8h.3a.3.3,0,0,1,.1.2v.2c-.1,1.2-.3,2.5-.5,3.8s-.5,2.5-.8,3.8a16.6,16.6,0,0,1-.6,2.1h-2c1.5-3.2,1.9-6.6,2.3-10Z" style="fill:#714003"/><path d="M54.4,66.8h.3a.3.3,0,0,1,.1.2v.2c-.1,1.2-.3,2.5-.5,3.8s-.5,2.5-.8,3.8a16.6,16.6,0,0,1-.6,2.1h-.6c.2-.9.6-1.9.9-2.8A45.1,45.1,0,0,0,54.4,66.8Z" style="fill:#7e4304"/><path d="M79.7,44.8a5.9,5.9,0,0,1,2.2,1.9l.5.9a3.3,3.3,0,0,1,.1,1.4,4,4,0,0,1-1,2.4,4.3,4.3,0,0,0-.4.7c-.3.2-1.3.8-1.4,1.1a7.4,7.4,0,0,0-1.5.8l-1.7.8-3.1,1.1h-.5l-1.5.4H71a9.3,9.3,0,0,0-2.2.4,100,100,0,0,1-13.3,1.4H51.6a4,4,0,0,1,.3-1.5,45.5,45.5,0,0,0,5.2-.4l2.5-.4a18.1,18.1,0,0,0,7.1-2.7,4.8,4.8,0,0,0,1.1-.9h0l4.6-1a16.6,16.6,0,0,0,3.5-1.3l1.3-.7a3.5,3.5,0,0,0,1.6-2,1.9,1.9,0,0,0-.3-1.3A5.3,5.3,0,0,0,79.7,44.8Z" style="fill:#c97920"/><path d="M57.1,56.5a12.2,12.2,0,0,0,3.3-.1c5-.4,10.4-1,15.2-2.7,2.3-.8,4.9-1.8,6.3-3.9l.6-1.1h0V49a4,4,0,0,1-1,2.4,4.3,4.3,0,0,0-.4.7c-.3.2-1.3.8-1.4,1.1a7.4,7.4,0,0,0-1.5.8l-1.7.8-3.1,1.1h-.5l-1.5.4H71a9.3,9.3,0,0,0-2.2.4,100,100,0,0,1-13.3,1.4H51.6a4,4,0,0,1,.3-1.5A45.5,45.5,0,0,0,57.1,56.5Z" style="fill:#7e4304"/><path d="M23.2,65a72.4,72.4,0,0,0,10.4,1.5l4.1.2a26.6,26.6,0,0,0,.3,2.8,32.5,32.5,0,0,0,.8,4.5c-3.2,1.5-5.9,1.6-9.5,1.5C25.6,72.2,24.7,69.6,23.2,65Z" style="fill:#c97920"/><path d="M65.2,65.7l3.7-.7a23.2,23.2,0,0,1-4.2,9l-1.4,1.8a68.6,68.6,0,0,1-9,.9,3.4,3.4,0,0,1-1.4.1,16.6,16.6,0,0,0,.6-2.1c.3-1.3.6-2.5.8-3.8s.4-2.6.5-3.8.1-.2.1-.3l2.4-.2Z" style="fill:#9e5106"/><path d="M54.8,67.1c0-.1.1-.2.1-.3l2.4-.2,7.9-.9v.2c-.1.4-.5.7-.7,1A23.7,23.7,0,0,1,55,74.1l-1.3.6h-.2c.3-1.3.6-2.5.8-3.8S54.7,68.3,54.8,67.1Z" style="fill:#b0610e"/><path d="M12.7,44.8l1,1.2,1.9,1.6a7.1,7.1,0,0,0,.6,2.5h.1a50,50,0,0,0,7.6,2l2.3.4,2.3.3,4.4.4,1.8.2c2.4.1,4.8.3,7.2.2H55.1l6.9-.5h.3l1.9-.2,3.6-.4h0a4.8,4.8,0,0,1-1.1.9,18.1,18.1,0,0,1-7.1,2.7l-2.5.4a45.5,45.5,0,0,1-5.2.4,4,4,0,0,0-.3,1.5H48.8c-2.4.1-4.7.1-7,0H37.1l-2.7-.2c-3.2-.2-6.4-.5-9.5-1l-2.2-.4-1.4-.3h-.1c-.1-.2-.4-.2-.5-.2l-.8-.2h-.6s-2.8-.8-3.1-1l-2-.7c-.5-.2-.9-.7-1.4-.8h-.1l-1.1-1h-.1c-.5-1.8-1.5-1.7-1.4-4a3.4,3.4,0,0,0,0-1H9.9c.1,0,.3,0,.3-.1s.3-.5.4-.6A6.7,6.7,0,0,1,12,45.3a1.8,1.8,0,0,0,.7-.5Z" style="fill:#e49c3e"/><path d="M12.7,44.8l1,1.2a4,4,0,0,0,.3,2.4,1.4,1.4,0,0,1,.2.6,5,5,0,0,1-1.5-1.4c-.9-1.3-.2-1.6,0-2.7Z" style="fill:#b0610e"/><path d="M13.7,46l1.9,1.6a7.1,7.1,0,0,0,.6,2.5l-1-.5-1-.6a1.4,1.4,0,0,0-.2-.6A4,4,0,0,1,13.7,46Z" style="fill:#7e4304"/><path d="M10.1,48.5a5.6,5.6,0,0,0,3.4,3.8,23.3,23.3,0,0,0,3.3,1.4C25,56.5,36.3,57,44.9,57h7a4,4,0,0,0-.3,1.5H48.8c-2.4.1-4.7.1-7,0H37.1l-2.7-.2c-3.2-.2-6.4-.5-9.5-1l-2.2-.4-1.4-.3h-.1c-.1-.2-.4-.2-.5-.2l-.8-.2h-.6s-2.8-.8-3.1-1l-2-.7c-.5-.2-.9-.7-1.4-.8h-.1l-1.1-1h-.1C11,50.7,10,50.8,10.1,48.5Z" style="fill:#9e5106"/><path d="M78.5,46.2a1.9,1.9,0,0,1,.3,1.3,3.5,3.5,0,0,1-1.6,2l-1.3.7a6.4,6.4,0,0,0-.4-2.4h0A10.5,10.5,0,0,0,78.5,46.2Z" style="fill:#714003"/><path d="M73.1,20.7a24.1,24.1,0,0,1,1.6,4.5c-.1.3-.1.6-.2.8a8.7,8.7,0,0,1-.7-1.7,14.2,14.2,0,0,0-.8-1.8A10.9,10.9,0,0,0,73.1,20.7Z" style="fill:#e49c3e"/><path d="M69.9,14.9a27.3,27.3,0,0,1,2.7,4.7,6.1,6.1,0,0,0-.1,1.4,11.1,11.1,0,0,1-.2,1.7,20.8,20.8,0,0,0-1.9-4.3,5.5,5.5,0,0,0-.2-2.2Z" style="fill:#e49c3e"/><path d="M72.3,22.7a11.1,11.1,0,0,0,.2-1.7,6.1,6.1,0,0,1,.1-1.4l.5,1.1a10.9,10.9,0,0,1-.1,1.8,14.2,14.2,0,0,1,.8,1.8,8.7,8.7,0,0,0,.7,1.7c.1-.2.1-.5.2-.8a20.6,20.6,0,0,0,.7,2.9h0a9.8,9.8,0,0,0-1.8,2.7,3.1,3.1,0,0,0-.2-.8,10.4,10.4,0,0,0-1.7-2.4l-.6-.5c0-.2-.1-.4-.1-.6A16.3,16.3,0,0,0,72.3,22.7Z" style="fill:#c97920"/><path d="M74.7,25.2a20.6,20.6,0,0,0,.7,2.9h0a9.8,9.8,0,0,0-1.8,2.7,3.1,3.1,0,0,0-.2-.8c.3-1.4,1-2.6,1.1-4.1S74.6,25.5,74.7,25.2Z" style="fill:#b0610e"/><path d="M72.3,22.7a11.1,11.1,0,0,0,.2-1.7,6.1,6.1,0,0,1,.1-1.4l.5,1.1a10.9,10.9,0,0,1-.1,1.8,30.4,30.4,0,0,1-1.3,5.2l-.6-.5c0-.2-.1-.4-.1-.6A16.3,16.3,0,0,0,72.3,22.7Z" style="fill:#9e5106"/><path d="M42.2,1.4A21.5,21.5,0,0,1,47.3,1h.5a20.2,20.2,0,0,1,5.4.8l.7.3a23.5,23.5,0,0,1,5.4,2.4l.8.5a21.2,21.2,0,0,1,4.2,3.2l.4.3a24.1,24.1,0,0,1,3.7,4.1l.9,1.1.6,1.1.3,1.3a5.5,5.5,0,0,1,.2,2.2c0,.8-.2,2.4-.9,3v.2l-1.2-2.4c-.4-.8-.9-1.6-1.4-2.4a25.4,25.4,0,0,0-7.6-7.7l-.5-.4-.5-.3-.5-.2-.6-.3-.5-.3-.5-.2-.6-.3-.5-.2-.5-.2L54,6.5l-.6-.2h-.5L52.3,6h-.6l-.5-.2H42.4l-.5.2H39.8l-.5.2h-.4l-.5.2-.5.2-.5.2-.4.2-.5.2-.4.2-.5.2-.4.3-.5.2-.4.3-.4.2-.5.3-.4.3-.4.3-.4.3-.4.3-.4.3-.4.3-.4.3-.3.4-.4.3-.3.4a.8.8,0,0,0-.4.4l-.3.3-.4.4-.3.4-.3.4a28.2,28.2,0,0,0-2.4,3.6c-.5.1-2.9,2.2-3.8,2.7a16.3,16.3,0,0,1-2.2,1.7,30.2,30.2,0,0,1,1.9-5,3,3,0,0,0,.4-.8,28,28,0,0,1,3-4.6,1.8,1.8,0,0,1,.5-.7A25.9,25.9,0,0,1,29,7.4l.8-.7a25.3,25.3,0,0,1,5.7-3.4l.5-.2a21.6,21.6,0,0,1,5.5-1.6Z" style="fill:#b0610e"/><path d="M44.6,3l.5.2a5.3,5.3,0,0,1-1.2.3l-2.8.4h-.4C41.8,3.2,43.4,3.3,44.6,3Z" style="fill:#c97920"/><path d="M39.1,4h.6l-3.1,1-1.7.5c-.1-.1,0-.1,0-.1l2.8-1.2Z" style="fill:#c97920"/><path d="M41.5,1.5h.7l1.7.7a10.1,10.1,0,0,0,1.8.9,16.2,16.2,0,0,1,1.9,1.8L45.1,3.2,44.6,3l-1.2-.7A6.4,6.4,0,0,1,41.5,1.5Z" style="fill:#9e5106"/><path d="M47.3,1h.5a15.1,15.1,0,0,1,3.9,2.7,7.6,7.6,0,0,1,1.2,1.9c-.7-.7-1.3-1.4-2-2a13.7,13.7,0,0,0-2.4-1.8Z" style="fill:#9e5106"/><path d="M59.3,4.6l.8.5A9.4,9.4,0,0,0,61,6.3,8.4,8.4,0,0,1,62.3,9a7.6,7.6,0,0,1,.3,2.1,12.5,12.5,0,0,0-1-2.7,20.1,20.1,0,0,0-1.4-2.5A7.7,7.7,0,0,1,59.3,4.6Z" style="fill:#7e4304"/><path d="M69.3,13.8l.6,1.1.3,1.3a5.5,5.5,0,0,1,.2,2.2c0,.8-.2,2.4-.9,3a9,9,0,0,1,.3-1.6,19.3,19.3,0,0,0,.1-2.4,10.9,10.9,0,0,0-.4-2.5A3.6,3.6,0,0,1,69.3,13.8Z" style="fill:#7e4304"/><path d="M36,3.1l1.7.2,3,.5h.4a7.6,7.6,0,0,1,2.1.8,20.2,20.2,0,0,1-3.4-.6h-.7a32.9,32.9,0,0,1-3.6-.7Z" style="fill:#9e5106"/><path d="M26,14.3a10.2,10.2,0,0,1,2.2-.9h0c-1.4,1-3,1.7-4.5,2.6s-2,1.2-2.2,1.2h-.1a3,3,0,0,0,.4-.8l2.3-1.2Z" style="fill:#9e5106"/><path d="M33.5,6.1a21.7,21.7,0,0,1,3.6.1L35,6.5l-2.6.2L30.7,7a10.5,10.5,0,0,1-1.7.4l.8-.7,1.6-.3Z" style="fill:#7e4304"/><path d="M66.1,12.3a15.4,15.4,0,0,0-.8-1.9c-.1-.4-1-1.8-1-2h0l.4.3a4.2,4.2,0,0,0,.9,1.4,2.5,2.5,0,0,0,.4.7l.3.8.3.8c.1.3.1.5.2.8a9.2,9.2,0,0,1,.1,3.3h-.1a6.3,6.3,0,0,1-.3-2.4,7.5,7.5,0,0,0-.4-1.6Z" style="fill:#7e4304"/><path d="M30.3,9.6l2.1-.4a9.6,9.6,0,0,1-2.8,1.1,13.8,13.8,0,0,0-2.7.8,17.2,17.2,0,0,1-2.1.7,1.8,1.8,0,0,1,.5-.7l2.2-.7Z" style="fill:#7e4304"/><path d="M32.4,6.7,35,6.5l-1.3.7a26.2,26.2,0,0,0-3.4,2.4l-2.8.8c.5-1,4.8-3.2,5-3.6Z" style="fill:#c97920"/><path d="M26.9,11.1a13.8,13.8,0,0,1,2.7-.8l-2.2,2.3A5.8,5.8,0,0,0,26,14.3l-1.9.9A16.6,16.6,0,0,1,26.3,12l.6-.8C27,11.1,27,11.2,26.9,11.1Z" style="fill:#c97920"/><path d="M26.9,11.1c.1.1.1,0,0,.1l-.6.8a16.6,16.6,0,0,0-2.2,3.2l-2.3,1.2a28,28,0,0,1,3-4.6A17.2,17.2,0,0,0,26.9,11.1Z" style="fill:#e49c3e"/><path d="M29,7.4A10.5,10.5,0,0,0,30.7,7l1.7-.3h.1c-.2.4-4.5,2.6-5,3.6l-2.2.7A25.9,25.9,0,0,1,29,7.4Z" style="fill:#e49c3e"/><path d="M23.7,16h0a4.6,4.6,0,0,1-.7,1.4,16,16,0,0,0-1.3,3,16.3,16.3,0,0,1-2.2,1.7,30.2,30.2,0,0,1,1.9-5h.1C21.7,17.2,23.3,16.2,23.7,16Z" style="fill:#e49c3e"/><path d="M64.7,8.6a24.1,24.1,0,0,1,3.7,4.1l.9,1.1a3.6,3.6,0,0,0,.2,1.1,10.9,10.9,0,0,1,.4,2.5l-1.3-1.9-1.8-2.4c-.1-.3-.1-.5-.2-.8l-.3-.8-.3-.8a2.5,2.5,0,0,1-.4-.7A4.2,4.2,0,0,1,64.7,8.6Z" style="fill:#e49c3e"/><path d="M60.1,5.1a21.2,21.2,0,0,1,4.2,3.2h0c0,.2.9,1.6,1,2a15.4,15.4,0,0,1,.8,1.9H66c-.2-.1-2.9-2.9-3.7-3.4A8.4,8.4,0,0,0,61,6.3,9.4,9.4,0,0,1,60.1,5.1Z" style="fill:#e49c3e"/><path d="M36,3.1a21.6,21.6,0,0,1,5.5-1.6,6.4,6.4,0,0,0,1.9.8l1.2.7c-1.2.3-2.8.2-3.9.8l-3-.5Z" style="fill:#e49c3e"/><path d="M29.8,6.7a25.3,25.3,0,0,1,5.7-3.4,32.9,32.9,0,0,0,3.6.7l-1.4.4L34.9,5.6,33.5,6h0l-2.1.3Z" style="fill:#e49c3e"/><path d="M42.2,1.4A21.5,21.5,0,0,1,47.3,1l1.2.9a13.7,13.7,0,0,1,2.4,1.8l-1.6-.3L45.7,3a10.1,10.1,0,0,1-1.8-.9Z" style="fill:#e49c3e"/><path d="M47.8,1.1a20.2,20.2,0,0,1,5.4.8,13.6,13.6,0,0,0,1.2,1.2l1.1,1.1.9,1.3a19.2,19.2,0,0,1-2.7-1.1,6.6,6.6,0,0,0-2-.6A15.1,15.1,0,0,0,47.8,1.1Z" style="fill:#e49c3e"/><path d="M53.2,1.9l.7.3a23.5,23.5,0,0,1,5.4,2.4,7.7,7.7,0,0,0,.9,1.3,20.1,20.1,0,0,1,1.4,2.5,9.6,9.6,0,0,1-2-1.3,13.4,13.4,0,0,0-2.4-1.2,16.7,16.7,0,0,1,.8,2,20,20,0,0,0-1.6-2.4l-.9-1.3L54.4,3.1A13.6,13.6,0,0,1,53.2,1.9Z" style="fill:#e49c3e"/><path d="M53.2,1.9l.7.3a12.9,12.9,0,0,1,3.3,3.7,16.7,16.7,0,0,1,.8,2,20,20,0,0,0-1.6-2.4l-.9-1.3L54.4,3.1A13.6,13.6,0,0,1,53.2,1.9Z" style="fill:#7e4304"/><path d="M70.4,18.4a20.8,20.8,0,0,1,1.9,4.3A16.3,16.3,0,0,1,71,26.6a28.8,28.8,0,0,0-1.5-5v-.2C70.2,20.8,70.4,19.2,70.4,18.4Z" style="fill:#c97920"/><path d="M21.7,20.5c.9-.5,3.3-2.6,3.8-2.7l-.4.6-1.3,3-.6,2-.3,1a9.5,9.5,0,0,0-.5,2.3A7,7,0,0,0,20,31.5a5.8,5.8,0,0,0,.5,2.6c.1.3.3.5.4.8l-.2.3-2.2-.8a21,21,0,0,1-.3-5,9.7,9.7,0,0,1,.1-1.7,37.3,37.3,0,0,1,.9-4.6l.3-.9A16.3,16.3,0,0,0,21.7,20.5Z" style="fill:#c97920"/><path d="M19.6,27c.6-.6,3-3.4,3.6-3.6l-.3,1c-.5.2-.8.7-1.2,1s-1.1,1.3-1.7,2-.9,1.1-1.4,1.5A11.4,11.4,0,0,1,19.6,27Z" style="fill:#9e5106"/><path d="M21.7,20.5c.9-.5,3.3-2.6,3.8-2.7l-.4.6-1.3,3-.6,2c-.6.2-3,3-3.6,3.6a24,24,0,0,1,1.2-3.8c.1-.5.4-1.1.5-1.6s-1.8,1.5-2.1,1.5l.3-.9A16.3,16.3,0,0,0,21.7,20.5Z" style="fill:#b0610e"/><path d="M21.7,20.5c.9-.5,3.3-2.6,3.8-2.7l-.4.6a19.2,19.2,0,0,0-2.3,2c-.3.3-1.3.9-1.5,1.2s-1.8,1.5-2.1,1.5l.3-.9A16.3,16.3,0,0,0,21.7,20.5Z" style="fill:#9e5106"/><path d="M12.4,44.3l.3.5h0l1,1.2,1.9,1.6a7.1,7.1,0,0,0,.6,2.5h.1a50,50,0,0,0,7.6,2l2.3.4,2.3.3,4.4.4,1.8.2c2.1.1,4.2.3,6.4.3h14l6.9-.5h.3l1.9-.2,3.6-.4,4.6-1a16.6,16.6,0,0,0,3.5-1.3,6.4,6.4,0,0,0-.4-2.4h0a10.5,10.5,0,0,0,3-1.5,5.3,5.3,0,0,0,1.2-1.4,5.9,5.9,0,0,1,2.2,1.9l.5.9a3.3,3.3,0,0,1,.1,1.4,4,4,0,0,1-1,2.4,4.3,4.3,0,0,0-.4.7c-.7,2.9-1.4,5.9-2.3,8.8-1.3,4.6-2.9,10.7-7.2,13.5a10.1,10.1,0,0,1-2.3,1.2,19.5,19.5,0,0,1-4,1,87.9,87.9,0,0,1-18.4,1.5H45.5c-3,0-6-.1-8.9-.3a70.7,70.7,0,0,1-10.3-1.3c-3.5-.8-6.5-2.1-8.5-5.3s-3.9-9-5-13.5a43.9,43.9,0,0,1-1.3-5.2c-.5-1.8-1.5-1.7-1.4-4a3.4,3.4,0,0,0,0-1H9.9c.1,0,.3,0,.3-.1s.3-.5.4-.6A6.7,6.7,0,0,1,12,45.3a.9.9,0,0,1-.3-.7h.1l.6-.2m0-2a1.8,1.8,0,0,0-1,.2h0a3.1,3.1,0,0,0-1,.5h-.1a2,2,0,0,0-.6,1.7,6,6,0,0,0-.8.8c0,.1,0,.2-.1.2a2.4,2.4,0,0,0-.9,1.6,1.9,1.9,0,0,0,.2.8v.3a5,5,0,0,0,1,3.6,2.5,2.5,0,0,1,.4.9c.3,1.4.7,2.7,1,4.1l.3,1.1h0c1.3,4.6,2.6,9.8,5.3,14s6.6,5.4,9.8,6.1a70.5,70.5,0,0,0,10.5,1.4c3,.2,6.1.3,9.1.3h1.4a94.6,94.6,0,0,0,18.8-1.5A38.9,38.9,0,0,0,70,77.5a17.4,17.4,0,0,0,2.7-1.4c4.7-3,6.4-9.1,7.8-14l.3-.7c.8-2.8,1.5-5.7,2.2-8.6a.3.3,0,0,0,.1-.2,5.7,5.7,0,0,0,1.4-3.4,6.4,6.4,0,0,0-.1-2l-.3-.7-.2-.3-.3-.6a8.3,8.3,0,0,0-2.8-2.5,1.4,1.4,0,0,0-1.1-.3,2.1,2.1,0,0,0-1.6.8,3,3,0,0,1-.9,1,6.2,6.2,0,0,1-2.3,1.1,2.5,2.5,0,0,0-1.4,1.6v.2a2,2,0,0,0,.2,1.3.3.3,0,0,0,.1.2l-2,.6a35.7,35.7,0,0,1-4.3.9l-3.5.4H61.8l-6.7.4h-14l-4.5-.2H33.1l-2.4-.3-2-.2h-.3l-1.7-.3h-.4l-1.6-.3h-.5a49.5,49.5,0,0,1-6.4-1.6,3.6,3.6,0,0,1-.2-1.1,1.7,1.7,0,0,0-.5-1.2,12.9,12.9,0,0,0-1.8-1.6l-.2-.2-.7-.8-.3-.5h0a2.1,2.1,0,0,0-1.7-.9Z" style="fill:#6a3417"/><path d="M45.9,1h1.9a20.2,20.2,0,0,1,5.4.8l.7.3a23.5,23.5,0,0,1,5.4,2.4l.8.5a21.2,21.2,0,0,1,4.2,3.2l.4.3a24.1,24.1,0,0,1,3.7,4.1l.9,1.1.6,1.1a27.3,27.3,0,0,1,2.7,4.7l.5,1.1a24.1,24.1,0,0,1,1.6,4.5,20.6,20.6,0,0,0,.7,2.9h0a9.8,9.8,0,0,0-1.8,2.7,3.1,3.1,0,0,0-.2-.8,10.4,10.4,0,0,0-1.7-2.4l-.6-.5c0-.2-.1-.4-.1-.6a28.8,28.8,0,0,0-1.5-5l-1.2-2.4c-.4-.8-.9-1.6-1.4-2.4a25.4,25.4,0,0,0-7.6-7.7l-.5-.4-.5-.3-.5-.2-.6-.3-.5-.3-.5-.2-.6-.3-.5-.2-.5-.2L54,6.5l-.6-.2h-.5L52.3,6h-.6l-.5-.2H42.4l-.5.2H39.8l-.5.2h-.4l-.5.2-.5.2-.5.2-.4.2-.5.2-.4.2-.5.2-.4.3-.5.2-.4.3-.4.2-.5.3-.4.3-.4.3-.4.3-.4.3-.4.3-.4.3-.4.3-.3.4-.4.3-.3.4a.8.8,0,0,0-.4.4l-.3.3-.4.4-.3.4-.3.4a28.2,28.2,0,0,0-2.4,3.6l-.4.6-1.3,3-.6,2-.3,1a9.5,9.5,0,0,0-.5,2.3A7,7,0,0,0,20,31.5a5.8,5.8,0,0,0,.5,2.6c.1.3.3.5.4.8l-.2.3-2.2-.8a21,21,0,0,1-.3-5,9.7,9.7,0,0,1,.1-1.7,37.3,37.3,0,0,1,.9-4.6l.3-.9a30.2,30.2,0,0,1,1.9-5,3,3,0,0,0,.4-.8,28,28,0,0,1,3-4.6,1.8,1.8,0,0,1,.5-.7A25.9,25.9,0,0,1,29,7.4l.8-.7a25.3,25.3,0,0,1,5.7-3.4l.5-.2a21.6,21.6,0,0,1,5.5-1.6h.7A14.5,14.5,0,0,1,45.9,1m0-1A15.1,15.1,0,0,0,42,.4h-.7a22.5,22.5,0,0,0-5.7,1.7l-.5.2a26.5,26.5,0,0,0-6,3.6l-.7.6a28.7,28.7,0,0,0-3.9,3.9h-.1l-.5.6A22.7,22.7,0,0,0,21,16a5.6,5.6,0,0,0-.5.8,24.5,24.5,0,0,0-2,5.1c0,.1,0,.1-.1.2a3.1,3.1,0,0,1-.2.8c-.4,1.7-.7,3.3-.9,4.7s-.1.7-.1,1v.7a14.9,14.9,0,0,0,.4,5.3.9.9,0,0,0,.8.8l1.9.7h.8a1.3,1.3,0,0,0,.6-.7.3.3,0,0,0,.1-.2.9.9,0,0,0,0-.7,1.5,1.5,0,0,0-.3-.7c0-.1,0-.1-.1-.2a5.2,5.2,0,0,1-.4-2.1,5.7,5.7,0,0,1,2.1-4.1,1.1,1.1,0,0,0,.3-.7,12.2,12.2,0,0,1,.3-1.7c0-.1.1-.3.1-.4l.3-.8v-.2a3.6,3.6,0,0,0,.4-1.1,3.1,3.1,0,0,0,.2-.8c.4-.9.7-1.7,1.1-2.5l.2-.4.3-.5h0l.6-.9c.6-.9,1.1-1.7,1.8-2.6l.3-.4.3-.3.3-.4.3-.4.4-.3.3-.4.4-.3.3-.3.4-.3.3-.3.4-.3.4-.3.4-.3.4-.3.4-.3.4-.2.4-.3.4-.2.4-.3.5-.2.4-.2.4-.2.5-.2.4-.2.5-.2h.4l.5-.2.4-.2H41l.5-.2h10l.6.2h.5l.5.2.6.2h.5l.5.2.6.3.5.2.5.2.5.3.5.2.5.3.4.3.5.3a25.2,25.2,0,0,1,7.4,7.5,17.1,17.1,0,0,1,1.3,2.3A25.3,25.3,0,0,1,68.6,22h0A36.4,36.4,0,0,1,70,26.8h0a.5.5,0,0,1,.1.3.9.9,0,0,0,.4.8l.5.5a5.6,5.6,0,0,1,1.4,2l.3.7a1,1,0,0,0,.9.7h0a1,1,0,0,0,1-.6,7.6,7.6,0,0,1,1.5-2.5.5.5,0,0,0,.3-.5.9.9,0,0,0-.1-.5q-.1-.6-.3-1.5a6.5,6.5,0,0,0-.4-1.3A17.4,17.4,0,0,0,74,20.3l-.5-1.1a33.6,33.6,0,0,0-2.7-4.9l-.6-.9h-.1a8.6,8.6,0,0,0-.7-1l-.2-.2a30.7,30.7,0,0,0-3.8-4.2l-.3-.3H65a27.9,27.9,0,0,0-4.3-3.4l-.8-.4h-.1a25.3,25.3,0,0,0-5.6-2.5L53.6,1h-.2A18.1,18.1,0,0,0,47.9.1h-2Z" style="fill:#6a3417"/><path d="M83.1,37.5h0l1.4.5a11.4,11.4,0,0,1,4.3,2.4,7.6,7.6,0,0,1,2.3,3.3h0a7.9,7.9,0,0,1-4.6,3.4,11.5,11.5,0,0,1-4.1.4l-.5-.9a5.9,5.9,0,0,0-2.2-1.9,7.7,7.7,0,0,0,1-2.5,3.4,3.4,0,0,0,.1-1h0a6.6,6.6,0,0,0-.4-2.8A8.6,8.6,0,0,0,83.1,37.5Z" style="fill:#243e1b"/><path d="M81.5,41.5l2.5-.8a17.2,17.2,0,0,1,3.9-.4h.7a10,10,0,0,0-5.1,1.1,3.4,3.4,0,0,0-1.2.6h.1l1.9.5a10.7,10.7,0,0,1,4.8,2.3,15.5,15.5,0,0,1-2.2-1.2,23.8,23.8,0,0,0-4.5-1.5,16.1,16.1,0,0,1,2.3,2.2L86,45.6a13.7,13.7,0,0,1-3-1.9,6.5,6.5,0,0,0-1.6-1.3h-.7a3.4,3.4,0,0,0,.1-1Z" style="fill:#123b0b"/><path d="M83.1,37.5h0l1.4.5a11.4,11.4,0,0,1,4.3,2.4,7.6,7.6,0,0,1,2.3,3.3h0l-1.3-.7a14.3,14.3,0,0,0-3.1-1.2l-1.5-.2-1.7-.2a10,10,0,0,1,5.1-1.1h-.7a17.2,17.2,0,0,0-3.9.4l-2.5.8-.7-.2h0a6.6,6.6,0,0,0-.4-2.8A8.6,8.6,0,0,0,83.1,37.5Z" style="fill:#457f3c"/><path d="M89.4,26.5a1.9,1.9,0,0,0-1-1.2c-2-1-6-.7-8.1,0a11.4,11.4,0,0,0-4.9,2.8h0a9.8,9.8,0,0,0-1.8,2.7,1.3,1.3,0,0,1,.1.6,8.8,8.8,0,0,1-.1,2.8h1.2l1.4.3.9.3a8.3,8.3,0,0,1,2.1,1.6l.9,1.2.3.7a8.6,8.6,0,0,0,2.7-.9l1.3-.9A13.6,13.6,0,0,0,88,32.3C88.8,30.9,89.9,28.1,89.4,26.5Z" style="fill:#457f3c"/><path d="M86.6,29.8a1.8,1.8,0,0,1,.7-.5l.9-.9c-.3,1-3.4,3.3-4.4,3.9a5.2,5.2,0,0,1-2.7.7.9.9,0,0,1-.6-.6,2.8,2.8,0,0,1-.1-.9c0-.1.1-.2.2-.3l.4-.3A13.6,13.6,0,0,0,86.6,29.8Z" style="fill:#5b9a16"/><path d="M80.7,30.4a28.5,28.5,0,0,1,6-3.7c.1-.1.5-.3.6-.2l-1.9,1.1A45.9,45.9,0,0,0,81,30.9l-.4.3c-.1.1-.2.2-.2.3A19.7,19.7,0,0,0,77.9,34a1.2,1.2,0,0,0-.5.5l-.3.4-.9-.3a4.8,4.8,0,0,1,.9-1.1l.4-.4A41.5,41.5,0,0,1,80.7,30.4Z" style="fill:#123b0b"/><path d="M1.1,44.1c0-.1-.1-.2-.1-.4s.6-1.6,1.1-2.2a11.3,11.3,0,0,1,7.4-3.9,7.4,7.4,0,0,0,2.5.5l-.4,1.3a1.3,1.3,0,0,1-.1.6v1.9c0,.3.1.5.1.8H10.6c-.3-.2-.9,0-1.3-.2H7.8a12.3,12.3,0,0,0-5.3,1.4Z" style="fill:#457f3c"/><path d="M7.1,38.7h.1c.9.1,3.8.7,4.3,1.3v.6A14.3,14.3,0,0,0,7.1,38.7Z" style="fill:#243e1b"/><path d="M9.2,42.2a15.1,15.1,0,0,0-4.5-2h0a1.1,1.1,0,0,1,.8.1A13,13,0,0,1,9.9,42l1.6-.4v.3c0,.3.1.5.1.8H10.6c-.3-.2-.9,0-1.3-.2H9.2Z" style="fill:url(#linear-gradient)"/><path d="M1.1,44.1l1.4-.6a12.3,12.3,0,0,1,5.3-1.4H9.3c.4.2,1,0,1.3.2h1.1V43l.6,1.3.3.5a1.8,1.8,0,0,1-.7.5,6.7,6.7,0,0,0-1.4,1.5c-.1.1-.2.5-.4.6s-.2.1-.3.1a11.6,11.6,0,0,1-3.7-.3C4.6,46.8,2,45.6,1.1,44.1Z" style="fill:#243e1b"/><path d="M9.3,42.3h0c.4.2,1,0,1.3.2h1.1V43l.6,1.3-.6.2A2.8,2.8,0,0,0,10.1,43L8.3,44.4l-1.6,1c.8-.9,1.6-1.9,2.4-2.7a21.2,21.2,0,0,0-5,.5l-1,.2c.2-.3,3.6-.7,4.1-.8a5.7,5.7,0,0,0,1.9-.1C9.3,42.5,9.3,42.4,9.3,42.3Z" style="fill:#123b0b"/><path d="M10.6,42.6h1.1V43A2.8,2.8,0,0,1,10.6,42.6Z" style="fill:#243e1b"/><path d="M18.2,29.4l-1.4-1.3A12.5,12.5,0,0,0,10.9,25c-1.7-.5-5.3-.6-6.9.3a2.3,2.3,0,0,0-1,1.2c-.5,1.7.9,5.1,1.8,6.6A10.1,10.1,0,0,0,8,36.7l1.5.9a7.4,7.4,0,0,0,2.5.5,7.5,7.5,0,0,1,2.1-2.6l.3-.2.8-.5.9-.2a6.5,6.5,0,0,1,2.4-.2A21,21,0,0,1,18.2,29.4Z" style="fill:#457f3c"/><path d="M14.1,35.5H11.4a10.9,10.9,0,0,1-3.2-1l1.6.4,2.3.4h2.3Z" style="fill:#243e1b"/><path d="M4.6,28.3l.8.7c.1.2.3.3.4.4a10.1,10.1,0,0,0,5.1,1.2l.3.2a9.1,9.1,0,0,1,1.7,1.7l-1.5.3a6.6,6.6,0,0,1-4.7-1.4A6.4,6.4,0,0,1,4.6,28.3Z" style="fill:#5b9a16"/><path d="M5.8,29.4a10.1,10.1,0,0,0,5.1,1.2l.3.2a5.1,5.1,0,0,1-3-.1C7.7,30.5,6.1,29.9,5.8,29.4Z" style="fill:#243e1b"/><path d="M10.9,30.6c-1.2-1-2.4-2-3.7-2.9L5.3,26.3c.9.2,4.3,2.7,5.2,3.3l1.7,1.3a45.9,45.9,0,0,1,3.9,3.7l-.9.2c-.7-.5-1.5-1.7-2.3-2.3a9.1,9.1,0,0,0-1.7-1.7Z" style="fill:#123b0b"/><path d="M53.2,18.1c2.5-2.7,4.8-4.5,8.8-4.7a2.5,2.5,0,0,1,1.7.4c.6.5.6,1.7.6,2.4a15.4,15.4,0,0,1-2.5,8.6,9.3,9.3,0,0,0-1.5-1.3l-.3-.2-.4-.2-.5-.2-.4-.2a7.1,7.1,0,0,0-5.5.6,1.4,1.4,0,0,1,.2-.7,4,4,0,0,0,.2-1.9,3.4,3.4,0,0,0-.1-1A5,5,0,0,1,53.2,18.1Z" style="fill:#243e1b"/><path d="M41.3,18.9c0-.1-.1-.3-.1-.4a9.5,9.5,0,0,1,.3-7.6,2,2,0,0,1,1.2-1.2,5.3,5.3,0,0,1,3.7.6,14.1,14.1,0,0,1,6.8,7.8,5,5,0,0,0,.3,1.6,3.4,3.4,0,0,1,.1,1,4,4,0,0,1-.2,1.9,1.4,1.4,0,0,0-.2.7l-1.1.8a.9.9,0,0,0-.1-.5,6.5,6.5,0,0,0-2.3-3.9,2.8,2.8,0,0,0-1.4-1h-.1l-.6-.3a8,8,0,0,0-5.9.4Z" style="fill:#3a6832"/><path d="M47.4,12a5.4,5.4,0,0,1,1.9,2.8,3.8,3.8,0,0,1-.4,3.1l-.6.8h-.1l-.6-1.1h0c.1-.1.1-.4.1-.6a9.2,9.2,0,0,0,.1-3.7,10.4,10.4,0,0,0-.4-1Z" style="fill:#5b9a16"/><path d="M47.2,17.7a42.3,42.3,0,0,0-2.4-4,8.6,8.6,0,0,1-.7-1,.5.5,0,0,1-.2-.4H44c.7.3,3.1,4.3,3.6,5.2l.6,1.1-.6-.3Z" style="fill:#243e1b"/><path d="M84.6,24.7a10.8,10.8,0,0,1,3.8.6,1.9,1.9,0,0,1,1,1.2c.5,1.6-.6,4.4-1.4,5.8a13.6,13.6,0,0,1-3.6,4.3l-1.3.9-1.3.5,1.3-.5h0l1.4.5a11.4,11.4,0,0,1,4.3,2.4,7.6,7.6,0,0,1,2.3,3.3h0a7.9,7.9,0,0,1-4.6,3.4,13.9,13.9,0,0,1-3.5.4h-.6l-.5-.9a5.9,5.9,0,0,0-2.2-1.9,7.7,7.7,0,0,0,1-2.5,3.4,3.4,0,0,0,.1-1h0a6.6,6.6,0,0,0-.4-2.8l.7-.2h0l-.7.2-.3-.7-.9-1.2a8.3,8.3,0,0,0-2.1-1.6l-.9-.3-1.4-.3H73.6a8.8,8.8,0,0,0,.1-2.8,1.3,1.3,0,0,0-.1-.6,9.8,9.8,0,0,1,1.8-2.7h0a11.4,11.4,0,0,1,4.9-2.8,14,14,0,0,1,4.3-.6m0-1h0a16.5,16.5,0,0,0-4.6.6,13.2,13.2,0,0,0-5.3,3.1l-.2.3a9,9,0,0,0-1.8,2.9.4.4,0,0,0,0,.5v.6a9.2,9.2,0,0,1-.1,2.4,1.1,1.1,0,0,0,.2.8.9.9,0,0,0,.8.4h1.1l1.2.3.8.2a7.9,7.9,0,0,1,1.8,1.4,8.6,8.6,0,0,1,.7,1h.1l.2.4a6.6,6.6,0,0,1,.3,2.4h0a2.8,2.8,0,0,1-.1.9,5.8,5.8,0,0,1-.8,2.1,1.1,1.1,0,0,0-.2.8,1.5,1.5,0,0,0,.5.6,4.9,4.9,0,0,1,1.9,1.6l.2.4a.9.9,0,0,0,.3.6,1.2,1.2,0,0,0,.8.4H83a11.3,11.3,0,0,0,3.8-.5,8.5,8.5,0,0,0,5.1-3.8.6.6,0,0,0,.1-.4c.1-.1.1-.1.1-.3s-1.9-3.3-2.6-4a11.9,11.9,0,0,0-4.2-2.4,14.2,14.2,0,0,0,3.6-4.4c.1-.2,2.2-4.2,1.5-6.6a3.1,3.1,0,0,0-1.6-1.8,10.6,10.6,0,0,0-4.2-.7Z" style="fill:#243e1b"/><path d="M7.8,24.6a13,13,0,0,1,3.1.4,12.5,12.5,0,0,1,5.9,3.1l1.4,1.3a21,21,0,0,0,.3,5h-.8l-1.6.2-.9.2-.8.5h-.3A7.5,7.5,0,0,0,12,38.1l-.4,1.3a1.3,1.3,0,0,1-.1.6v1.9c0,.3.1.5.1.8V43l.6,1.3.3.5a1.8,1.8,0,0,1-.7.5,6.7,6.7,0,0,0-1.4,1.5c-.1.1-.2.5-.4.6s-.2.1-.3.1H9a13.3,13.3,0,0,1-2.8-.3c-1.6-.4-4.2-1.6-5.1-3.1s-.1-.2-.1-.4.6-1.6,1.1-2.2a11.3,11.3,0,0,1,7.4-3.9h0L8,36.7a10.1,10.1,0,0,1-3.2-3.6c-.9-1.5-2.3-4.9-1.8-6.6a2.3,2.3,0,0,1,1-1.2,8.6,8.6,0,0,1,3.8-.7m0-1a9.9,9.9,0,0,0-4.3.8,2.8,2.8,0,0,0-1.4,1.8c-.7,2.3,1.1,6.1,1.8,7.4a12.6,12.6,0,0,0,2.9,3.5,13.4,13.4,0,0,0-5.4,3.7,4.5,4.5,0,0,0-1.4,3c0,.2.1.4.1.6a.4.4,0,0,1,.1.3c1.1,1.7,4.1,3,5.7,3.4a11,11,0,0,0,3.1.4h1a1.4,1.4,0,0,0,.9-.4,1.3,1.3,0,0,0,.5-.6v-.2a13.6,13.6,0,0,1,1.2-1.2l.6-.4h.1a1.2,1.2,0,0,0,.4-1,5.9,5.9,0,0,0-.4-.8h-.1c-.1-.4-.3-.7-.4-1.1v-.3h0a.8.8,0,0,1-.1-.4v-.3h-.1V40.2a.8.8,0,0,0,.1-.4v-.2l.3-1.1a7,7,0,0,1,1.8-2.2h.2l.7-.3h0l.5-.2c.1,0,.2,0,.2-.1h2.2a1.1,1.1,0,0,0,.8-.3.9.9,0,0,0,.2-.9,15.3,15.3,0,0,1-.3-4.7,1.2,1.2,0,0,0-.4-.9l-.6-.6a2.3,2.3,0,0,1-.7-.7A15.1,15.1,0,0,0,11.1,24a14.1,14.1,0,0,0-3.3-.4Z" style="fill:#243e1b"/><path d="M43.7,9.5a6.5,6.5,0,0,1,2.7.8,14.1,14.1,0,0,1,6.8,7.8c2.5-2.7,4.8-4.5,8.8-4.7h.4a1.8,1.8,0,0,1,1.3.4c.6.5.5,1.7.6,2.4a15.4,15.4,0,0,1-2.5,8.6,9.3,9.3,0,0,0-1.5-1.3l-.3-.2-.4-.2-.5-.2-.4-.2-2.1-.3a6.7,6.7,0,0,0-3.4.9l-1.1.8a.9.9,0,0,0-.1-.5,6.5,6.5,0,0,0-2.3-3.9,2.8,2.8,0,0,0-1.4-1h-.1l-.6-.3a7.5,7.5,0,0,0-2.6-.4,7.6,7.6,0,0,0-3.3.8l-.4.2c0-.1-.1-.3-.1-.4a9.5,9.5,0,0,1,.3-7.6,2,2,0,0,1,1.2-1.2l1-.2m0-1h0a3.5,3.5,0,0,0-1.4.3,3,3,0,0,0-1.7,1.6,10.7,10.7,0,0,0-.4,8.4,1.7,1.7,0,0,1,.2.5,1.2,1.2,0,0,0,.6.6h.8l.3-.2a5.9,5.9,0,0,1,2.9-.7,5.4,5.4,0,0,1,2.2.4h.1l.4.2h.1a5,5,0,0,1,1.2.8l.2.2A5.7,5.7,0,0,1,51,23.8a.6.6,0,0,1,.1.4.9.9,0,0,0,.6.8h.4l.6-.2.6-.5.4-.3a7.3,7.3,0,0,1,2.9-.7,5.7,5.7,0,0,1,1.8.3h.4l.3.2.3.2a.5.5,0,0,1,.4.2,3.8,3.8,0,0,1,1.2,1,.9.9,0,0,0,.8.4h0a1.2,1.2,0,0,0,.8-.4,15.8,15.8,0,0,0,2.7-9.2h0c-.1-.9-.1-2.3-.9-3.1a3.1,3.1,0,0,0-2-.6H62a12.3,12.3,0,0,0-8.5,3.9,14.7,14.7,0,0,0-6.6-6.9,7.4,7.4,0,0,0-3.2-.9Z" style="fill:#243e1b"/><path d="M41.3,18.9l.4-.2a8,8,0,0,1,5.9-.4l.6.3h.1a2.8,2.8,0,0,1,1.4,1A6.5,6.5,0,0,1,52,23.6a.9.9,0,0,1,.1.5l1.1-.8a7.1,7.1,0,0,1,5.5-.6l.4.2.5.2.4.2.3.2a9.3,9.3,0,0,1,1.5,1.3,7.1,7.1,0,0,1,1,1.4,5.9,5.9,0,0,1,.4.8,6.6,6.6,0,0,1,5.1-1,9.9,9.9,0,0,1,2.8,1.2l.6.5a10.4,10.4,0,0,1,1.7,2.4,3.1,3.1,0,0,1,.2.8,1.3,1.3,0,0,1,.1.6,8.8,8.8,0,0,1-.1,2.8h1.2l1.4.3.9.3a8.3,8.3,0,0,1,2.1,1.6l.9,1.2.3.7a6.6,6.6,0,0,1,.4,2.8h0a3.4,3.4,0,0,1-.1,1,7.7,7.7,0,0,1-1,2.5,5.3,5.3,0,0,1-1.2,1.4,1.9,1.9,0,0,1,.3,1.3,3.5,3.5,0,0,1-1.6,2l-1.3.7a16.6,16.6,0,0,1-3.5,1.3l-4.6,1-3.6.4-1.9.2H62l-6.9.5H41.9c-2.4.1-4.8-.1-7.2-.2l-1.8-.2-4.4-.4-2.3-.3-2.3-.4a50,50,0,0,1-7.6-2h-.1a7.1,7.1,0,0,1-.6-2.5L13.7,46l-1-1.2h0l-.3-.5L11.8,43v-.3c0-.3-.1-.5-.1-.8V40a1.3,1.3,0,0,0,.1-.6l.4-1.3a7.5,7.5,0,0,1,2.1-2.6l.3-.2.8-.5.9-.2a6.5,6.5,0,0,1,2.4-.2l2.2.8.2-.3c-.1-.3-.3-.5-.4-.8a5.8,5.8,0,0,1-.5-2.6,7,7,0,0,1,2.4-4.8,6.9,6.9,0,0,1,5.3-2c0-.2.1-.3.1-.4s.1-.3.2-.4l.2-.3a.5.5,0,0,1,.2-.4,6.2,6.2,0,0,1,3.9-2.6l1.2-.2a7.8,7.8,0,0,1,3.7.6l1.6,1A6.3,6.3,0,0,1,41.3,18.9Z" style="fill:#502390"/><path d="M44,39.4l.6.5c-.2,0-.4.1-.6,0Z" style="fill:#502390"/><path d="M63.1,51.6c-.2.9-.4.9-.8,1.5H62Z" style="fill:#7850b3"/><path d="M32.9,53.3l1.9-1a1.6,1.6,0,0,0-.1,1.2Z" style="fill:#502390"/><path d="M52.5,24.7h0c.3.1.4.2.4.4a1.7,1.7,0,0,1,0,1.2.5.5,0,0,1-.5.3l-.4-.2c-.1-.1-.1-.4-.1-.5A2.2,2.2,0,0,1,52.5,24.7Z" style="fill:#baa2ee"/><path d="M63.5,50.5a10.9,10.9,0,0,0,.7,2.4l-1.9.2c.4-.6.6-.6.8-1.5S63.4,50.9,63.5,50.5Z" style="fill:#502390"/><path d="M54.7,24h.7c.2,0,.3.1.4.3s0,.4,0,.6a1.4,1.4,0,0,1-1,.7.8.8,0,0,1-.7-.1c-.2,0-.3-.1-.4-.3a.7.7,0,0,1,.1-.5A1.8,1.8,0,0,1,54.7,24Z" style="fill:#baa2ee"/><path d="M45.8,53.8l.9-.4a3.8,3.8,0,0,0,1.5-.9l.9-.8a3.9,3.9,0,0,1,.8-1,6.1,6.1,0,0,1-1.5,3Z" style="fill:#7850b3"/><path d="M50.4,49.5a5.9,5.9,0,0,0,1.3,2.9c-.5.4-.5.9-.9,1.3H48.4a6.1,6.1,0,0,0,1.5-3A6.1,6.1,0,0,1,50.4,49.5Z" style="fill:#7850b3"/><path d="M60.2,31a12.7,12.7,0,0,0,.2,2.8,5.9,5.9,0,0,1-3.6,1.3h-.5c-.4-.6-.5-1.2-.9-1.8H56A5.8,5.8,0,0,0,60.2,31Z" style="fill:#7850b3"/><path d="M35.8,51.4l.2.2a.7.7,0,0,1-.1.5.9.9,0,0,1-.6.6.1.1,0,0,0-.1-.1c-.1-.1-.1-.2-.1-.4S35.5,51.6,35.8,51.4Z" style="fill:#a7bfee"/><path d="M41.4,29.5h0l1.5.8a6.9,6.9,0,0,0,5.6-.5A5.8,5.8,0,0,0,50,28.7a10.3,10.3,0,0,1-.1,1.7,9.2,9.2,0,0,1-1.6-.1h0l-1.4.4h-.6l-.3.2h-.3l-.3.2a.2.2,0,0,1-.2.2l-.3.2-.2.3a.2.2,0,0,0-.2.2l-.3.2c0,.1-.1.2-.2.3a.2.2,0,0,1-.2.2c0,.1-.1.2-.1.3l-.2.3-.2.3a.4.4,0,0,1-.1.3c-.3.7.2,2-.1,2.6a6.2,6.2,0,0,1,.1-1.3,9,9,0,0,0-.8-2.3,1.7,1.7,0,0,1,.1,1h0a2,2,0,0,0-.3-1.1,3.4,3.4,0,0,0-.9-1.5h0a2.3,2.3,0,0,0-.9-.8,6,6,0,0,1,.9-1.3Z" style="fill:#2d0861"/><path d="M48.3,30.3h.1c.3-.3,1.1-1.1,1.5-1.1s-.1.7-.1.9a.4.4,0,0,0,.1.3A9.2,9.2,0,0,1,48.3,30.3Z" style="fill:#502390"/><path d="M34.3,43.6a5.4,5.4,0,0,1,1,3.9.3.3,0,0,1-.1.2v.2a.4.4,0,0,0-.1.3v.2c0,.1-.1.2-.1.3a.3.3,0,0,0-.1.2.3.3,0,0,1-.1.2l-.2.2a.4.4,0,0,1-.1.3l-.2.2a.3.3,0,0,0-.1.2h-.2a.2.2,0,0,1-.2.2c0,.1-.1.1-.2.2l-.2.2h-.2A7.3,7.3,0,0,1,27.9,52a3.8,3.8,0,0,1-2.5-1.8,6.2,6.2,0,0,1-.9-4.6,1.9,1.9,0,0,1,.2-.7l.3-.6c0,.4-.1.9-.1,1.3a4,4,0,0,0,.6,3,4.2,4.2,0,0,0,2.7,1.6,4.9,4.9,0,0,0,3.5-.9,6.8,6.8,0,0,0,2.5-4.2c.1-.5,0-1,.1-1.5Z" style="fill:#2d0861"/><path d="M26.6,42.5a8.1,8.1,0,0,1,3.3-1.4,4.9,4.9,0,0,1,3.5,1.1,6.7,6.7,0,0,1,.9,1.4h0c-.1.5,0,1-.1,1.5a6.8,6.8,0,0,1-2.5,4.2,4.9,4.9,0,0,1-3.5.9,4.2,4.2,0,0,1-2.7-1.6,4,4,0,0,1-.6-3c0-.4.1-.9.1-1.3l-.3.6h-.1c.1-.3.4-.7.4-1l.2-.3a2,2,0,0,0,.6-.7v-.2h.2c.1.1.1,0,.2,0l.3-.2Z" style="fill:#7850b3"/><path d="M25.7,42.6h.2c.1.1.1,0,.2,0l.3-.2h.2A6.9,6.9,0,0,0,25,44.3l-.3.6h-.1c.1-.3.4-.7.4-1l.2-.3a2,2,0,0,0,.6-.7Z" style="fill:#502390"/><path d="M26.7,44.8h.2a.2.2,0,0,1,.2.2c.1.1.1.2,0,.4a.8.8,0,0,1-.5.5l-.3-.2a.4.4,0,0,1-.1-.3A1,1,0,0,1,26.7,44.8Z" style="fill:#a7bfee"/><path d="M28.5,43H29a.7.7,0,0,1,.5.4,1.7,1.7,0,0,1,.1.7,1.9,1.9,0,0,1-.8.7h-.4c-.2-.1-.5-.2-.6-.4a.8.8,0,0,1,0-.7A1.6,1.6,0,0,1,28.5,43Z" style="fill:#baa2ee"/><path d="M43,40.5a6,6,0,0,1,3.5.5A5.3,5.3,0,0,1,49,44a6,6,0,0,1-4.1,7.9,6.7,6.7,0,0,1-4.8-.5h.1a6.2,6.2,0,0,0,4,.6l1.5-.4,1.1-.7a4.9,4.9,0,0,0,2.3-3.3v-.2c.1,0,.1-.1.1-.2s.1-.9.1-1.3a5.9,5.9,0,0,0-.5-2.3c-.1-.3-.4-.6-.5-.9s-.1-.2-.2-.3a4.1,4.1,0,0,0-1.4-1.2c0,.2.5,1.3.6,1.7v.2c0,.1.1.2.1.3v1c0,.1-.1.2-.1.3V45c0,.1-.1.1-.1.2v.3a.3.3,0,0,0-.1.2.4.4,0,0,0-.1.3.3.3,0,0,0-.1.2l-.2.3c0,.1,0,.1-.1.2v.2a6.8,6.8,0,0,1-4.2,2.8H39c0-.1-.1-.1-.2-.2h-.2a3,3,0,0,1-1.3-2.1,5,5,0,0,1,1.1-3.7A6.4,6.4,0,0,1,43,40.5Z" style="fill:#7850b3"/><path d="M39.6,43.9H40v.4a1.6,1.6,0,0,1-.8,1l-.4-.2c-.1-.1,0-.3,0-.5S39.2,44.1,39.6,43.9Z" style="fill:#a7bfee"/><path d="M41.7,42.5h.6a.5.5,0,0,1,.4.3.9.9,0,0,1,.1.5c-.2.4-.5.5-.8.7h-.7l-.4-.4c-.1-.1,0-.3,0-.4S41.4,42.7,41.7,42.5Z" style="fill:#a7bfee"/><path d="M59.5,36a7.2,7.2,0,0,1,5.4.2,7.5,7.5,0,0,1,2.6,2l.3.5a5.3,5.3,0,0,0-.2,3.7,3.3,3.3,0,0,0,.7,1.3h-.1c-.7.2-2.1.4-2.5.9a5.3,5.3,0,0,0-2.1,2.1h0A7,7,0,0,0,61,43.1a2.9,2.9,0,0,0,1-.3,4.1,4.1,0,0,0,2.4-2.1,4.2,4.2,0,0,0,.1-2.7,3.1,3.1,0,0,0-1.6-1.6,5.3,5.3,0,0,0-3.9.2,6.1,6.1,0,0,0-3.2,3.5h0c-.3.1-.1,1.3-.3,1.6h-.4a4.7,4.7,0,0,1,.5-2.6A6.5,6.5,0,0,1,59.5,36Z" style="fill:#7850b3"/><path d="M52.7,44.7h0c.1-.6.9-1.2,1.4-1.5a4.5,4.5,0,0,1,3.4-.7,5.4,5.4,0,1,1-5.4,8.2,5.4,5.4,0,0,1-.6-3.3c0-.1.1-.2.1-.3A4.4,4.4,0,0,1,52.7,44.7Z" style="fill:#502390"/><path d="M52.7,44.7a5.2,5.2,0,0,1,3.9-1.5,2.1,2.1,0,0,1,1.7.8,2.4,2.4,0,0,1,.6,2.1,3.9,3.9,0,0,1-1.5,2.7,4.1,4.1,0,0,1-3,1h-.9a.1.1,0,0,1-.1-.1h-.2c0-.1,0-.1-.1-.1h-.8a4.6,4.6,0,0,1-.7-1.6A4.4,4.4,0,0,1,52.7,44.7Z" style="fill:#7850b3"/><path d="M52.9,46.4H53c.2,0,.4.1.4.3a.4.4,0,0,1,.1.3c-.1.2-.3.2-.4.3h-.2l-.4-.2a.3.3,0,0,1,0-.4C52.5,46.6,52.7,46.5,52.9,46.4Z" style="fill:#a7bfee"/><path d="M54.8,44.3h.6c.1.1.3.2.3.4a.5.5,0,0,1,0,.5,1.9,1.9,0,0,1-1.1.7H54c-.2,0-.3-.1-.4-.3a1.3,1.3,0,0,1,.1-.6A1.7,1.7,0,0,1,54.8,44.3Z" style="fill:#baa2ee"/><path d="M49.3,31.1a9.9,9.9,0,0,1,2.4.3,4.5,4.5,0,0,1,2.8,2.1A6.3,6.3,0,0,1,55,38a5.2,5.2,0,0,1-2.2,3.3,4.1,4.1,0,0,1-3.2.6h-.1a1.3,1.3,0,0,1-.8-.3l-1.5-.9-2.1-1-.6-.6a4.2,4.2,0,0,1-.7-3.1h.1v-.2h-.1l.8-1.9a6.6,6.6,0,0,1,3.3-2.4Z" style="fill:#7850b3"/><path d="M44.9,34.5h.3a.4.4,0,0,1,.1.3,2.5,2.5,0,0,1-.7,1.2h-.2c-.1,0-.1-.1-.2-.2a.9.9,0,0,1,.1-.7A.9.9,0,0,1,44.9,34.5Z" style="fill:#baa2ee"/><path d="M47.2,32.8h.6c.2.1.2.2.3.4a1.4,1.4,0,0,1-1.4,1.4l-.6-.2a.3.3,0,0,1-.3-.3.9.9,0,0,1,.1-.7A2.1,2.1,0,0,1,47.2,32.8Z" style="fill:#baa2ee"/><path d="M41.3,18.9l.4-.2a8,8,0,0,1,5.9-.4l.6.3h.1a2.8,2.8,0,0,1,1.4,1h-.1a7,7,0,0,0-2.7-1.4h0l1,.5a4,4,0,0,1,2.3,2.9,5.9,5.9,0,0,1-.8,4.3,6.2,6.2,0,0,1-4,2.7,5.3,5.3,0,0,1-4.2-.9,5.8,5.8,0,0,1-2.4-3.7,6.1,6.1,0,0,1,0-1.9h-.1c-.4.7-.1,1.7-.3,2.2a7.5,7.5,0,0,1,.4-2.6A6.3,6.3,0,0,1,41.3,18.9Z" style="fill:#7850b3"/><path d="M42.8,19.8h.7c.1,0,.2.1.2.3a.4.4,0,0,1-.1.5c-.2.4-.6.5-1,.7H42c-.2-.1-.3-.2-.3-.4s0-.3.1-.5A1.3,1.3,0,0,1,42.8,19.8Z" style="fill:#a7bfee"/><path d="M60.2,31c.2-.4.3-.9.5-1.3s1-1.6.9-2.9a5,5,0,0,0-2.2-3.6c.3.1.7.4.9.3a9.3,9.3,0,0,1,1.5,1.3,7.1,7.1,0,0,1,1,1.4,5.9,5.9,0,0,1,.4.8,6.6,6.6,0,0,1,5.1-1,9.9,9.9,0,0,1,2.8,1.2l.6.5a10.4,10.4,0,0,1,1.7,2.4,3.1,3.1,0,0,1,.2.8,1.3,1.3,0,0,1,.1.6h0a24.5,24.5,0,0,1-.2,2.7h-.7c-2,.8-3.6,1.7-4.6,3.8a5.6,5.6,0,0,0,.1,4.4,4.4,4.4,0,0,0,.8,1.1h-.8a3.3,3.3,0,0,1-.7-1.3,5.3,5.3,0,0,1,.2-3.7l-.3-.5a7.5,7.5,0,0,0-2.6-2,7.2,7.2,0,0,0-5.4-.2l-.2-.2h0l-.9.4A6.8,6.8,0,0,0,56.3,38h-.1l.5-.6h0c-.2-.7-.2-1.5-.4-2.2h.5a5.9,5.9,0,0,0,3.6-1.3A12.7,12.7,0,0,1,60.2,31Z" style="fill:#502390"/><path d="M65,28h.4c.2,0,.3.1.4.3a1.7,1.7,0,0,1-.2.5,1.3,1.3,0,0,1-1,.6l-.6-.2-.2-.2a4.3,4.3,0,0,1,.1-.5A1.7,1.7,0,0,1,65,28Z" style="fill:#a7bfee"/><path d="M62.5,29.1h.4c.5.3.5,1.1.6,1.5a1.2,1.2,0,0,1-.5.7h-.6a1.4,1.4,0,0,1-.3-.9A2,2,0,0,1,62.5,29.1Z" style="fill:#baa2ee"/><path d="M60.2,31c.2-.4.3-.9.5-1.3s1-1.6.9-2.9a5,5,0,0,0-2.2-3.6c.3.1.7.4.9.3a9.3,9.3,0,0,1,1.5,1.3,7.1,7.1,0,0,1,1,1.4,5.9,5.9,0,0,1,.4.8v.2c-1.4,1.4-2.4,2.4-2.4,4.5a4.6,4.6,0,0,0,1.1,3l1.5.4,1.8.4a7.7,7.7,0,0,0,4.7-.7,4.7,4.7,0,0,0,2.1-2.7.3.3,0,0,1,.1-.2V30.1c-.1-.1-.1-.1-.1-.2s0-.2-.1-.2v-.3a3933732386813.6,3933732386813.6,0,0,0-.2-.4v-.4a5.3,5.3,0,0,0-1.3-1.3h.1l.5.2c.4,0,1,.9,1.3,1.3s.1.1.1.2l.2.3a.3.3,0,0,1,.1.2l.2.3c0,.1,0,.2.1.2a.4.4,0,0,0,.1.3.4.4,0,0,0,.1.3V31c0,.1.1.2.1.3v.2c0,.1.1.2.1.3v.9c0,.1-.1.2-.1.3v.3a3.6,3.6,0,0,1-.4,1.1c-2,.8-3.6,1.7-4.6,3.8a5.6,5.6,0,0,0,.1,4.4,4.4,4.4,0,0,0,.8,1.1h-.8a3.3,3.3,0,0,1-.7-1.3,5.3,5.3,0,0,1,.2-3.7l-.3-.5a7.5,7.5,0,0,0-2.6-2,7.2,7.2,0,0,0-5.4-.2l-.2-.2h0l-.9.4A6.8,6.8,0,0,0,56.3,38h-.1l.5-.6h0c-.2-.7-.2-1.5-.4-2.2h.5a5.9,5.9,0,0,0,3.6-1.3A12.7,12.7,0,0,1,60.2,31Z" style="fill:#502390"/><path d="M34.3,30.2a6.5,6.5,0,0,1,5.3.1h.3l.5.4h.1a1.8,1.8,0,0,1,.9.8h0a4.5,4.5,0,0,1,1,1.4,5,5,0,0,1,.2,1.2h0a2.2,2.2,0,0,0-.1-1.1,11.3,11.3,0,0,1,.8,2.4,6.2,6.2,0,0,0-.1,1.3A5.3,5.3,0,0,1,41,40.4a7.3,7.3,0,0,1-5.5,1.3,7.5,7.5,0,0,1-3.2-1.3,6.1,6.1,0,0,0-1-.7h-.1a7.5,7.5,0,0,0,1.5,1.6l.6.6.2.4a4.8,4.8,0,0,0-3.4-1.1,9.3,9.3,0,0,0-3.4,1.3h-.2a.2.2,0,0,0-.2.2h-.5l-.8-.6c0-.1.1-.3.1-.4a6.7,6.7,0,0,0-1.8-4.3,2.1,2.1,0,0,1-.4-.6h0l.5.2c2.6,1.3,4.2,1,6.9.3a5.3,5.3,0,0,1,.1-2.8A7.8,7.8,0,0,1,34.3,30.2Z" style="fill:#7850b3"/><path d="M33.9,31.3c.2,0,.5-.1.7,0s.3.2.3.4a.4.4,0,0,1,0,.5,1.2,1.2,0,0,1-.8.6h-.6a.8.8,0,0,1-.4-.4.4.4,0,0,1,0-.5A1.2,1.2,0,0,1,33.9,31.3Z" style="fill:#a7bfee"/><path d="M16.1,34.6a6.5,6.5,0,0,1,2.4-.2l2.2.8.5.3,1.1,1,.4.5h.1l.3.3a5.8,5.8,0,0,1,1.8,4.3V42l.8.6v.2a2,2,0,0,1-.6.7l-.2.3c0,.3-.3.7-.4,1a4.1,4.1,0,0,1-.5.9,7.8,7.8,0,0,0-.2,1.6,6.5,6.5,0,0,0,.5,2.7,6.7,6.7,0,0,0,1.1,1.8c.2.2.6.5.7.8l-2.3-.4a50,50,0,0,1-7.6-2h-.1a7.1,7.1,0,0,1-.6-2.5L13.7,46l-1-1.2h0l-.3-.5L11.8,43v-.3c0-.3-.1-.5-.1-.8V40a1.3,1.3,0,0,0,.1-.6l.4-1.3a7.5,7.5,0,0,1,2.1-2.6l.3-.2.8-.5Z" style="fill:#7850b3"/><path d="M22.7,37h.1l.3.3a5.8,5.8,0,0,1,1.8,4.3V42a5.7,5.7,0,0,0-4.8,0,6,6,0,0,0-3.5,3.5,5.6,5.6,0,0,0-.3,4.4v.2h-.2a7.1,7.1,0,0,1-.6-2.5L13.7,46l-1-1.2h0l-.3-.5L11.8,43v-.3c0-.3-.1-.5-.1-.8h.1v-.3h.1c.1.1.8,1.4,1,1.6A4.8,4.8,0,0,0,15.4,45v-.2a6.5,6.5,0,0,1,3-3.7,6,6,0,0,1,4.9-.4A6.1,6.1,0,0,0,22.7,37Z" style="fill:#502390"/><path d="M13.5,37.5h.4a.2.2,0,0,1,0,.3.7.7,0,0,1-.4.6h-.4c0-.1-.1-.2,0-.3A.7.7,0,0,1,13.5,37.5Z" style="fill:#a7bfee"/><path d="M15.2,36.2h.3a.8.8,0,0,1,.4.4.4.4,0,0,1,0,.5c-.1.3-.3.4-.6.5h-.4a.3.3,0,0,1-.3-.3.7.7,0,0,1-.1-.5A1.3,1.3,0,0,1,15.2,36.2Z" style="fill:#a7bfee"/><path d="M24.1,45.7h0a3.8,3.8,0,0,1,.9-1.8c0,.3-.3.7-.4,1A4.1,4.1,0,0,1,24.1,45.7Z" style="fill:#7850b3"/><path d="M19.7,44.1h.6l.3.4a1,1,0,0,1-.2.7,1.1,1.1,0,0,1-.8.5l-.5-.2c-.2-.1-.3-.2-.3-.4a.6.6,0,0,1,.1-.6A1.4,1.4,0,0,1,19.7,44.1Z" style="fill:#a7bfee"/><path d="M16.3,50.2h.1v-.2a5.6,5.6,0,0,1,.3-4.4A6,6,0,0,1,20.1,42a5.7,5.7,0,0,1,4.8,0l.8.6v.2a2,2,0,0,1-.6.7,1.6,1.6,0,0,0-.9-.9,5,5,0,0,0-3.4-.2,5.5,5.5,0,0,0-3.4,2.7,5.6,5.6,0,0,0-.4,1.2,3.2,3.2,0,0,0,.5,2.3A4.9,4.9,0,0,0,21,50.7a4.8,4.8,0,0,0,3.3-.6.1.1,0,0,1,.1-.1,6.7,6.7,0,0,0,1.1,1.8c.2.2.6.5.7.8l-2.3-.4A50,50,0,0,1,16.3,50.2Z" style="fill:#7850b3"/><path d="M32.3,20.6l1.2-.2a7.8,7.8,0,0,1,3.7.6l1.6,1a7.5,7.5,0,0,0-.4,2.6,6.9,6.9,0,0,0,2.2,4.3.1.1,0,0,1,.1.1l.7.5h-.1a6,6,0,0,0-.9,1.3h-.1l-.6-.4h-.3a6.3,6.3,0,0,0-5.2-.1,7.5,7.5,0,0,0-3.9,4.3,5.3,5.3,0,0,0-.1,2.8c-2.8.7-4.4,1-7-.3l-.4-.2h0c0,.2.2.4.3.6l-.3-.3h-.1l-.4-.5-1.1-1-.5-.3.2-.3c-.1-.3-.3-.5-.4-.8a5.8,5.8,0,0,1-.5-2.6,7,7,0,0,1,2.4-4.8,6.9,6.9,0,0,1,5.3-2c0-.2.1-.3.1-.4s.1-.3.2-.4l.2-.3a.5.5,0,0,1,.2-.4A6.2,6.2,0,0,1,32.3,20.6Z" style="fill:#502390"/><path d="M21,35h.2c.2.5,1.6,1.4,2,1.8l-.4-.2h0c0,.2.2.4.3.6l-.3-.3h-.1l-.4-.5-1.1-1h.1l-.2-.2A.3.3,0,0,0,21,35Z" style="fill:#502390"/><path d="M25.7,25.6a2.7,2.7,0,0,1,1.7.6,3.3,3.3,0,0,1,.5,2,4.6,4.6,0,0,1-1.5,2.9,3.9,3.9,0,0,1-3.1,1,2.7,2.7,0,0,1-1.4-.7,1.9,1.9,0,0,1-.8-1.5,3.6,3.6,0,0,1,1.1-2.4A5.3,5.3,0,0,1,25.7,25.6Z" style="fill:#502390"/><path d="M22.4,28.8h.1a.8.8,0,0,1,.4.4.4.4,0,0,1,0,.5c0,.3-.2.4-.4.5h-.3c-.2,0-.3-.2-.4-.3v-.5A.9.9,0,0,1,22.4,28.8Z" style="fill:#baa2ee"/><path d="M23.6,27.1a1.1,1.1,0,0,1,.8.2c.3.1.3.4.4.7s-.3.7-.7.9a.5.5,0,0,1-.5,0,.8.8,0,0,1-.6-.4h-.1A1.6,1.6,0,0,1,23.6,27.1Z" style="fill:#baa2ee"/><path d="M32.3,20.6l1.2-.2a7.8,7.8,0,0,1,3.7.6l1.6,1a7.5,7.5,0,0,0-.4,2.6,6.9,6.9,0,0,0,2.2,4.3.1.1,0,0,1,.1.1l.7.5h-.1a6,6,0,0,0-.9,1.3h-.1l-.6-.4h-.3a6.3,6.3,0,0,0-5.2-.1,10.9,10.9,0,0,0-.9-2.3,7.4,7.4,0,0,0-4-2.9c-.2,0-.4,0-.4-.2s-.1-.4,0-.5h-.1a1.3,1.3,0,0,0-.1.6l-.8-.2h0A6.3,6.3,0,0,1,31.2,21l1-.3Z" style="fill:#502390"/><path d="M30.3,22.4h.4a.4.4,0,0,1,.1.3.9.9,0,0,1-.6.6h-.3a.4.4,0,0,1-.1-.3A1,1,0,0,1,30.3,22.4Z" style="fill:#baa2ee"/><path d="M28.9,24.2c.1-.2.2-.5.5-.6h.3a.8.8,0,0,1,.2.5h0a.1.1,0,0,1-.1.1h-.1l-.4.2c-.2,0-.4,0-.4-.2S28.8,24.3,28.9,24.2Z" style="fill:#baa2ee"/><path d="M40.7,29l.7.5h-.1a6,6,0,0,0-.9,1.3h-.1l-.6-.4h-.1a5.2,5.2,0,0,1,1-1.1Z" style="fill:#7850b3"/><path d="M39.6,30.3a5.2,5.2,0,0,1,1-1.1,3.2,3.2,0,0,1-.8,1.2h-.2Z" style="fill:#2d0861"/><path d="M31.8,22.7h.6a1,1,0,0,1,.5.4,1.7,1.7,0,0,1-.1.7,1.1,1.1,0,0,1-.7.6h-.5a.7.7,0,0,1-.5-.4.9.9,0,0,1,0-.7C31.2,22.9,31.5,22.8,31.8,22.7Z" style="fill:#baa2ee"/><path d="M73.7,31.5a8.8,8.8,0,0,1-.1,2.8h1.2l1.4.3.9.3a8.3,8.3,0,0,1,2.1,1.6l.9,1.2.3.7a6.6,6.6,0,0,1,.4,2.8h0a3.4,3.4,0,0,1-.1,1,7.7,7.7,0,0,1-1,2.5,5.3,5.3,0,0,1-1.2,1.4,1.9,1.9,0,0,1,.3,1.3,3.5,3.5,0,0,1-1.6,2l-1.3.7a16.6,16.6,0,0,1-3.5,1.3l-4.6,1-3.6.4a10.9,10.9,0,0,1-.7-2.4c.6-1.6-.2-2.9.9-4.4s1-.9,1.3-1.4,1.8-.7,2.5-.9h.9a4.4,4.4,0,0,1-.8-1.1,5.6,5.6,0,0,1-.1-4.4c1-2.1,2.6-3,4.6-3.8h.7a24.5,24.5,0,0,0,.2-2.7Z" style="fill:#502390"/><path d="M73.9,45.4a6.4,6.4,0,0,0,4.3-2c1.4-1.5,1.2-3.1,1.6-5a6.6,6.6,0,0,1,0,4.6,6.3,6.3,0,0,1-3.5,3.5l-1.3.4a5.6,5.6,0,0,1,.5.8h0l-.5-.7a6.4,6.4,0,0,0-1-1.3h.3Z" style="fill:#7850b3"/><path d="M73.2,35.2a4,4,0,0,1,2.6.6,2,2,0,0,1,.8,1.2,2.3,2.3,0,0,1-.7,1.7,4.4,4.4,0,0,1-3.2,2.1,3.6,3.6,0,0,1-2.7-.5,2.5,2.5,0,0,1-.8-1.6,3.2,3.2,0,0,1,.8-2c0-.1.1-.1.1-.2h.2l.2-.2h.3c.1-.1.2-.1.2-.2h.6c.1,0,.2,0,.2-.1h.3c0-.1.1-.1.2-.1h.9Z" style="fill:#7850b3"/><path d="M71.3,37c.5-.5.5-.8,1.3-.9a.8.8,0,0,1,.7.2c.1.1.1.2.1.4a1.4,1.4,0,0,1-1.1.9.9.9,0,0,1-.7,0q-.3-.1-.3-.3Z" style="fill:#a7bfee"/><path d="M67.5,45.7H68a.8.8,0,0,1,.4.4c.1.2,0,.4,0,.6a1.3,1.3,0,0,1-.8.7h-.7c-.1-.1-.3-.2-.3-.4a.6.6,0,0,1,0-.6A1.1,1.1,0,0,1,67.5,45.7Z" style="fill:#a7bfee"/><path d="M45,17.9a7.5,7.5,0,0,1,2.6.4l.6.3h.1a2.8,2.8,0,0,1,1.4,1A6.5,6.5,0,0,1,52,23.6a.9.9,0,0,1,.1.5l1.1-.8a6.7,6.7,0,0,1,3.4-.9l2.1.3.4.2.5.2.4.2.3.2a9.3,9.3,0,0,1,1.5,1.3,7.1,7.1,0,0,1,1,1.4,5.9,5.9,0,0,1,.4.8A6.5,6.5,0,0,1,67,25.9h1.3a9.9,9.9,0,0,1,2.8,1.2l.6.5a10.4,10.4,0,0,1,1.7,2.4,3.1,3.1,0,0,1,.2.8,1.3,1.3,0,0,1,.1.6,8.8,8.8,0,0,1-.1,2.8h1.2l1.4.3.9.3a8.3,8.3,0,0,1,2.1,1.6l.9,1.2.3.7a6.6,6.6,0,0,1,.4,2.8h0a3.4,3.4,0,0,1-.1,1,7.7,7.7,0,0,1-1,2.5,5.3,5.3,0,0,1-1.2,1.4,1.9,1.9,0,0,1,.3,1.3,3.5,3.5,0,0,1-1.6,2l-1.3.7a16.6,16.6,0,0,1-3.5,1.3l-4.6,1-3.6.4-1.9.2H62l-6.9.5h-14c-2.2,0-4.3-.2-6.4-.3l-1.8-.2-4.4-.4-2.3-.3-2.3-.4a50,50,0,0,1-7.6-2h-.1a7.1,7.1,0,0,1-.6-2.5L13.7,46l-1-1.2h0l-.3-.5L11.8,43v-.3c0-.3-.1-.5-.1-.8V40a1.3,1.3,0,0,0,.1-.6l.4-1.3a7.5,7.5,0,0,1,2.1-2.6l.3-.2.8-.5.9-.2,1.6-.2h.8l2.2.8.2-.3c-.1-.3-.3-.5-.4-.8a5.8,5.8,0,0,1-.5-2.6,7,7,0,0,1,2.4-4.8,7.4,7.4,0,0,1,5.1-2h.2c0-.2.1-.3.1-.4s.1-.3.2-.4l.2-.3a.5.5,0,0,1,.2-.4,6.2,6.2,0,0,1,3.9-2.6l1.2-.2h.7a8,8,0,0,1,3,.6l1.6,1a6.3,6.3,0,0,1,2.5-3.1l.4-.2a7.6,7.6,0,0,1,3.3-.8m0-1h0a8.5,8.5,0,0,0-3.8.9.5.5,0,0,1-.4.2h0a6.9,6.9,0,0,0-2.4,2.4l-.8-.4a7.7,7.7,0,0,0-3.4-.7h-.7l-1.5.2a7.2,7.2,0,0,0-4.4,3.1l-.3.4c-.1.1-.1.2-.2.4s-.1.1-.1.2A7.7,7.7,0,0,0,21.8,26,7.8,7.8,0,0,0,19,31.4a7.8,7.8,0,0,0,.3,2.2H17.7l-1.8.2h-.4l-.6.2h-.2l-.8.4a.1.1,0,0,0-.1.1h-.1a.1.1,0,0,1-.1.1h-.2a10.3,10.3,0,0,0-2.3,3,8.3,8.3,0,0,0-.4,1.5c0,.1-.1.2-.1.3v1.1h0v1.2h0c0,.3.1.6.1.8h.1v.3l.6,1.4h0a.1.1,0,0,1,.1.1c.1.1.1.1.1.2l.3.5,1,1.1h.1l.4.2a11.4,11.4,0,0,1,1.1,1.1,8,8,0,0,0,.7,2.4l.4.5h.2c0,.1,0,.1.1.1a39,39,0,0,0,7.7,2.1h.5l1.9.2a6.4,6.4,0,0,0,2,.3h.2l2.2.2,2.3.2,1.8.2h1.8l4.7.2H55.2l6.9-.5h2.2l3.6-.4,4.7-1a18.6,18.6,0,0,0,3.7-1.4,7,7,0,0,0,1.4-.8,4.6,4.6,0,0,0,2.1-2.6,5.3,5.3,0,0,0-.1-1.3,4.4,4.4,0,0,0,.8-1.1,7.2,7.2,0,0,0,1.2-2.8h0a4.5,4.5,0,0,0,.1-1.1v-.2a10.1,10.1,0,0,0-.4-3.1.1.1,0,0,0-.1-.1c0-.2-.1-.3-.2-.5v-.2h0a14.7,14.7,0,0,0-1-1.3h0A11.4,11.4,0,0,0,77.5,34h-.1l-.8-.3h-.1l-1.6-.3h-.2a5.4,5.4,0,0,0,0-1.8,2.2,2.2,0,0,0-.1-.8h0l-.3-.8h0A10.1,10.1,0,0,0,72.4,27h-.1l-.6-.5h-.1A8.1,8.1,0,0,0,68.5,25H67a8,8,0,0,0-3.4.7l-1-1.5a10.5,10.5,0,0,0-1.7-1.4l-.4-.3-.5-.2-.5-.2-.5-.2a6.1,6.1,0,0,0-2.4-.4,8.1,8.1,0,0,0-3.9,1,7.7,7.7,0,0,0-2.3-3.5,6.6,6.6,0,0,0-1.6-1.1h-.9a9.3,9.3,0,0,0-2.9-.5Z" style="fill:#2d0861"/></g></g></g></svg>