<svg xmlns="http://www.w3.org/2000/svg" viewBox="0 0 23.1 21.8"><g id="Layer_2" data-name="Layer 2"><g id="Layer_1-2" data-name="Layer 1"><g id="food_1" data-name="food 1"><path d="M9.8,9.6A7.8,7.8,0,0,1,4,7.5,7.5,7.5,0,0,1,2,1.9a.8.8,0,0,1,.7-.8h.1l1,.2c2.5.3,7.1.9,9.2,6.8a.5.5,0,0,1-.1.6c-.3.6-1.7.8-2.4.9Z" style="fill:#6c9433"/><path d="M2.7,1.6h0c2.2.5,7.5.2,9.9,6.6.2.7-2.1.9-2.1.9H9.8c-7,0-7.4-5.8-7.3-7.2s.1-.3.2-.3m0-1A1.2,1.2,0,0,0,1.5,1.8,8,8,0,0,0,3.7,7.9a8.4,8.4,0,0,0,6.1,2.2h.7C12,10,13,9.6,13.4,9a1.4,1.4,0,0,0,.1-1.1C11.3,1.8,6.5,1.1,3.9.8L2.9.6Z" style="fill:#507125"/><path d="M9.9,9.1l-.6-.2a3.3,3.3,0,0,1-.1-2.4c1.2-5.2,4.6-6,6.6-6a9.8,9.8,0,0,1,2.3.3,1,1,0,0,1,.5.4.6.6,0,0,1-.1.6l-.3.9c-.9,2.1-2.6,6-8.3,6.4Z" style="fill:#96b85c"/><path d="M15.8,1a8.8,8.8,0,0,1,2.2.3.2.2,0,0,1,.1.3c-.9,1.8-2,6.6-8.2,7H9.8c-.5,0-.1-2-.1-2,1-4.7,3.9-5.6,6.1-5.6m0-1C13.7,0,9.9.8,8.7,6.4a3.5,3.5,0,0,0,.2,2.8,1.1,1.1,0,0,0,.9.4h.1c6.1-.4,7.8-4.5,8.7-6.7a5.9,5.9,0,0,0,.4-.8A1.1,1.1,0,0,0,19,1a1,1,0,0,0-.8-.6A6.1,6.1,0,0,0,15.8,0Z" style="fill:#507125"/><path d="M21.8,14.2a6.1,6.1,0,0,1-5.2,4.4,6.2,6.2,0,0,1-6.8-7c.7-5.3,7.7-7.1,11-3A6.3,6.3,0,0,1,21.8,14.2Z" style="fill:#7850b3"/><path d="M20.8,8.6l-1-.9a5.9,5.9,0,0,1,.5,4.7A6.1,6.1,0,0,1,15,16.7a5.9,5.9,0,0,1-4.6-1.3,6.3,6.3,0,0,0,6.2,3.2,6.1,6.1,0,0,0,5.2-4.4A6.3,6.3,0,0,0,20.8,8.6Z" style="fill:#502390"/><path d="M18.3,17.3a1.6,1.6,0,0,1-1-1,2,2,0,0,1-1.4.4l-.4-.3a.9.9,0,0,1,0-1l.5-.7c-.6-.5-.9-1.2-.6-1.7a1.1,1.1,0,0,1,1.3-.3l.5.2c.3-.7.9-1.2,1.4-1.1a1.4,1.4,0,0,1,.6,1.7h.6c.5.2.9.5.9.9a1,1,0,0,1-.5.8l-.9.3a3.4,3.4,0,0,1,.1,1,1.1,1.1,0,0,1-.6.7Z" style="fill:#baa2ee"/><path d="M20.2,14.5c0-.4-.6-.7-1.2-.6h0c-.1,0-.2-.1-.2-.3h0c.2-.6,0-1.2-.3-1.3s-.8.3-1,1h-.3c-.5-.4-1.2-.4-1.4-.1s.1.8.6,1.2h0c.1.1.2.2.1.3h0c-.6.4-.8,1-.6,1.3s.9.2,1.4-.2h.3c.2.7.7,1.1,1,.9s.5-.7.3-1.3h0a.2.2,0,0,1,.1-.3h0C19.7,15.2,20.2,14.9,20.2,14.5Z" style="fill:#502390"/><circle cx="17.9" cy="14.7" r="0.6" style="fill:#2e3c80"/><path d="M18.9,8.1c.1.8-1.3,1-2.9,1.2s-3,.5-3.1-.4,1-1.8,2.7-2S18.8,7.3,18.9,8.1Z" style="fill:#baa2ee"/><ellipse cx="15.5" cy="7.5" rx="0.8" ry="0.3" transform="translate(-0.9 2.2) rotate(-7.9)" style="fill:#959dc7"/><path d="M12.3,9.9a4.8,4.8,0,0,0-1.6-.8,5,5,0,0,0-.9,2.5,6.1,6.1,0,0,0,4,6.7,5.1,5.1,0,0,0,1-3.3A6.2,6.2,0,0,0,12.3,9.9Z" style="fill:#502390"/><path d="M13.4,14.7a6.3,6.3,0,0,1-3.9,5.7A6.2,6.2,0,1,1,10.8,9.6,6.4,6.4,0,0,1,13.4,14.7Z" style="fill:#7850b3"/><path d="M10.8,9.6,9.7,9a6.1,6.1,0,0,1,1.7,4.3A6.3,6.3,0,0,1,7.6,19a6,6,0,0,1-4.9-.1,6.1,6.1,0,0,0,6.8,1.5,6.3,6.3,0,0,0,3.9-5.7A6.4,6.4,0,0,0,10.8,9.6Z" style="fill:#502390"/><path d="M6,18.7A1.9,1.9,0,0,1,4.7,18a1.7,1.7,0,0,1-1.2.7L3,18.5c-.2-.1-.3-.5-.3-.9a3.2,3.2,0,0,1,.3-.9c-.7-.3-1.2-.9-1-1.4s.5-.6,1.1-.6h.6c0-.9.5-1.5,1-1.5s1,.6,1.1,1.5h.6c.5,0,1,.2,1.1.6a.9.9,0,0,1-.3.9l-.8.5a3.6,3.6,0,0,1,.4.9c0,.4-.1.8-.4.9l-.4.2Z" style="fill:#baa2ee"/><path d="M7,15.4c-.1-.3-.7-.4-1.4-.2h0L5.4,15h0c0-.7-.3-1.2-.7-1.2S4,14.3,4,15H4l-.2.2h0c-.6-.2-1.2-.1-1.3.2s.3.9.9,1.1h0c.1,0,.1.1.1.2h0c-.4.6-.5,1.2-.2,1.4s.9,0,1.3-.6h0a.2.2,0,0,1,.3,0h0c.4.6.9.8,1.2.6s.3-.8-.1-1.4H6c-.1-.1,0-.2.1-.2h0C6.7,16.3,7.1,15.8,7,15.4Z" style="fill:#502390"/><circle cx="4.5" cy="16.2" r="0.6" style="fill:#2e3c80"/><path d="M8.9,9.6c.3.8-1,1.3-2.5,2s-2.7,1.3-3,.5.4-2,2-2.7S8.6,8.9,8.9,9.6Z" style="fill:#baa2ee"/><ellipse cx="5.5" cy="9.9" rx="0.8" ry="0.3" transform="translate(-3.6 3.1) rotate(-23.9)" style="fill:#959dc7"/><path d="M16,6.4a6,6,0,0,1,3.8,1.3H20l.2.2.6.6a4.3,4.3,0,0,1,.4.7l.6,1.3c.1.2.1.5.2.7a7.6,7.6,0,0,1,.1,1.5,3.2,3.2,0,0,1-.3,1.4,6.1,6.1,0,0,1-5.2,4.4h-2l-.7-.2h-.3l-.4-.2h-.3l-.3-.2h0a6.3,6.3,0,0,1-3.1,2.7l-.8.3h-3l-.6-.2H4.9l-.6-.3H4.1l-.6-.4H3.3L2.8,19h0a6.1,6.1,0,0,1-1.7-3.5,6.2,6.2,0,0,1,6.2-7A6.9,6.9,0,0,1,9.7,9h.4l.4.2.2-.3h0A6.2,6.2,0,0,1,16,6.4m0-1h0a7.3,7.3,0,0,0-5.8,2.7H9.9a7.5,7.5,0,0,0-2.6-.5,7.6,7.6,0,0,0-5.6,2.6A6.8,6.8,0,0,0,.1,15.6a7,7,0,0,0,1.8,3.9H2l.2.2.5.4h.2l.8.5h.1l.7.3h.3l.7.2H8.9l1-.3a7.6,7.6,0,0,0,3-2.3h.6a.1.1,0,0,0,.1.1l.7.2h2.4a7.3,7.3,0,0,0,6.1-5.1,4.7,4.7,0,0,0,.3-1.7,5,5,0,0,0-.2-1.7,2.4,2.4,0,0,0-.2-.8A4.6,4.6,0,0,0,22,8.7L21.5,8l-.6-.7c-.1-.1-.2-.1-.2-.2h-.1V6.9h-.2A7.1,7.1,0,0,0,16,5.4Z" style="fill:#2d0861"/></g></g></g></svg>