<svg xmlns="http://www.w3.org/2000/svg" viewBox="0 0 46.4 44.1"><g id="Layer_2" data-name="Layer 2"><g id="Layer_1-2" data-name="Layer 1"><path d="M43.7,27.5c-.2,2.6-2,6.6-6.8,10.2a25.7,25.7,0,0,1-13.2,4.4c-3.5.2-6.7-.5-7.3-1s-.2-.5,0-.5A24.6,24.6,0,0,1,2.6,30.5a57.3,57.3,0,0,0,18.9-9.6C28.8,15.4,34.4,9.1,37.3,3.4a25.9,25.9,0,0,1,6,10.5c.3-.5.5-.6.8.2,1,3.7-.2,9.7-1.2,12.8C43.3,26.6,43.8,26.4,43.7,27.5Z" style="fill:#935f54"/><path d="M28.7,36.4c-.5-.4-1.5-.2-2.1,0s-1.2.3-.9.9a2.5,2.5,0,0,0,2.3.6C28.5,37.7,29.4,37,28.7,36.4Z" style="fill:#7a473f"/><path d="M30.3,33.2c.5-.2,1.5-1,1.2-1.5s-1.9-.4-2.7.5S29.1,33.7,30.3,33.2Z" style="fill:#7a473f"/><path d="M34.9,33.8c-.3-.5-2.2.5-2.6,1.5s.3,1.5,1.3.9S35.3,34.4,34.9,33.8Z" style="fill:#7a473f"/><path d="M35,28.3c-.3-.2-1.2.6-1.2,1.2s.4.8.8.3S35.3,28.5,35,28.3Z" style="fill:#7a473f"/><path d="M39,19.9c-.4-.2-1.3,1.2-1.2,2s.8.9,1.3.1S39.5,20.1,39,19.9Z" style="fill:#7a473f"/><path d="M39.7,29.4c.1-.9-.2-2.1-1-1.5s-2,3.2-1,3.9S39.6,30.7,39.7,29.4Z" style="fill:#7a473f"/><path d="M37.3,3.4c2.5,3.3-3.1,12.2-12.8,19.5S4.7,33.1,2.6,30.5,5.5,17.4,15.2,10.1,34.9.1,37.3,3.4Z" style="fill:#fff5ee"/><path d="M32.9,6.9c1.7,2.4-3,8.9-9.9,14s-14.5,8-16.2,5.7S10,16.9,16.9,11.8,31.2,4.6,32.9,6.9Z" style="fill:#eacab5"/><path d="M33.7,2c1.7,0,2.9.4,3.6,1.4a25.9,25.9,0,0,1,6,10.5c.1-.2.2-.4.4-.4s.2.2.4.6c1,3.7-.2,9.7-1.2,12.8l.5-.2c.2,0,.4.2.3.8-.2,2.6-2,6.6-6.8,10.2a25.7,25.7,0,0,1-13.2,4.4H22.6c-3.1,0-5.7-.6-6.2-1s-.2-.5,0-.5A24.6,24.6,0,0,1,2.6,30.5C.1,27.2,5.5,17.4,15.2,10.1,22.2,4.9,29.3,2,33.7,2m0-2h0C28.6,0,21.1,3.3,14,8.5S.8,21.9.1,27.3A5.6,5.6,0,0,0,1,31.6,26,26,0,0,0,14.6,42.1l.6.6c1.2.9,4.7,1.4,7.4,1.4h1.2a27.5,27.5,0,0,0,14.3-4.8c6.7-5,7.5-10.2,7.6-11.7a3.2,3.2,0,0,0-.4-1.9c.9-3.4,1.7-8.5.7-12.1a2.9,2.9,0,0,0-1.3-1.8,27.9,27.9,0,0,0-5.9-9.7c-.7-1-2.2-2.1-5.1-2.1Z" style="fill:#613629"/></g></g></svg>