<svg xmlns="http://www.w3.org/2000/svg" viewBox="0 0 48.8 49.8"><g id="Layer_2" data-name="Layer 2"><g id="Layer_1-2" data-name="Layer 1"><path d="M24.1,48.3C10.2,48.3,1.5,42,1.5,31.7c0-14.5,7.4-21.6,22.6-21.6s23.2,7.3,23.2,21.6C47.3,41.8,38.2,48.3,24.1,48.3Z" style="fill:#fff6ef"/><path d="M24.1,11.6c12.8,0,21.7,5.2,21.7,20.1,0,9.6-8.9,15.1-21.7,15.1S3,41.3,3,31.7c0-15.1,8.3-20.1,21.1-20.1m0-3C8.1,8.6,0,16.4,0,31.7,0,42.9,9.2,49.8,24.1,49.8s24.7-7.1,24.7-18.1S44.5,8.6,24.1,8.6Z" style="fill:#a7bfee"/><path d="M42.5,22.9c-1.1-.7-8.4-1.3-17.6-1.3s-17.4.6-18.7,1.3c2.6-7.1,9.1-9.7,17.9-9.7S39.7,15.8,42.5,22.9Z" style="fill:#fdc888"/><path d="M43.9,31.5c0,8.7-8.1,13.8-19.8,13.8a27.6,27.6,0,0,1-12.2-2.5,12.6,12.6,0,0,1-6.7-8.3,13.9,13.9,0,0,1-.3-3,25.5,25.5,0,0,1,1.2-8.3c0-.1.1-.2.1-.3s8.5-1.2,17-1.3h1.7c3.6,0,6.9.1,9.6.3,4.4.2,7.3.6,8,1a.4.4,0,0,0,.1.3A25.4,25.4,0,0,1,43.9,31.5Z" style="fill:#ffaa5a"/><path d="M43.9,31.5c0,8.7-8.1,13.8-19.8,13.8a27.6,27.6,0,0,1-12.2-2.5,22.9,22.9,0,0,0,9.4.3A17.8,17.8,0,0,0,34.7,32.8a14.2,14.2,0,0,0-.2-10.9c4.4.2,7.3.6,8,1a.4.4,0,0,0,.1.3A25.4,25.4,0,0,1,43.9,31.5Z" style="fill:#f79b2f;opacity:0.48"/><path d="M23.2,21.6c-.1,3.5-3.4,6.7-6,8.5a26.6,26.6,0,0,1-9.7,4,9.3,9.3,0,0,1-2.3.4,13.9,13.9,0,0,1-.3-3,25.5,25.5,0,0,1,1.2-8.3c0-.1.1-.2.1-.3S14.7,21.7,23.2,21.6Z" style="fill:#fdb96a"/><path d="M42.6,23.1h0c-.5.8-8,1.4-17.7,1.4S6.9,24,6.1,23.2H6l.2-.2c1.3-.7,9.5-1.3,18.7-1.3s16.5.6,17.6,1.3A.3.3,0,0,1,42.6,23.1Z" style="fill:#f79b2f"/><ellipse cx="24.2" cy="29.2" rx="10.3" ry="7.4" style="fill:#becff8"/><path d="M33.2,29.3c0,3.3-4,6-9,6a10.4,10.4,0,0,1-7.3-2.6,4.9,4.9,0,0,1-1.6-3.4,2.8,2.8,0,0,1,.1-.9c.6-2.9,4.3-5.2,8.8-5.2h.1a11.4,11.4,0,0,1,6,1.6A5.4,5.4,0,0,1,33.2,29.3Z" style="fill:#e3e7f3"/><path d="M33.2,29.3c0,3.3-4,6-9,6a10.4,10.4,0,0,1-7.3-2.6,19.7,19.7,0,0,0,5.4.4,14.5,14.5,0,0,0,4.6-.9,6.7,6.7,0,0,0,3.3-3.5,7.4,7.4,0,0,0,.1-3.9A5.4,5.4,0,0,1,33.2,29.3Z" style="fill:#becff8;opacity:0.25"/><path d="M24.3,23.2a11.2,11.2,0,0,1-3.6,3.6,11.3,11.3,0,0,1-5.3,1.6c.6-2.9,4.3-5.2,8.8-5.2Z" style="fill:#eaeef7"/><g style="opacity:0.58"><path d="M14,17.2A14.5,14.5,0,0,0,7.9,32a1,1,0,1,0,2-.2,12.8,12.8,0,0,1,5.3-13C16.3,18.1,15.1,16.5,14,17.2Z" style="fill:#fde7d0"/><path d="M12.4,36.9c.2,0,0-.1,0-.1h-.2a39806572953304.7,39806572953304.7,0,0,0-.2-.2c0-.1-.1-.1-.1-.2h-.1c0-.1-.1-.3-.1-.4a1,1,0,0,0-1.3-.6,1,1,0,0,0-.6,1.3,3.6,3.6,0,0,0,1.8,2.2.9.9,0,0,0,1.3-.5C13.2,37.7,12.9,37.2,12.4,36.9Z" style="fill:#fde7d0"/></g><path d="M24.9,3c7.6,0,13.8.9,13.8,1.9h0a12.9,12.9,0,0,1,0,5.9h0l.4.5a1,1,0,0,1,.4.5l.3.4a.1.1,0,0,1,.1.1l.3.3.2.3v.2l.3.4.2.2c0,.1.1.2.2.3l.2.3a5.6,5.6,0,0,0,.5.8l.2.3c.3.6.7,1.3.4,1.9l-.3.4h-.1c0,.1-.1.1-.2.2h-.1a.1.1,0,0,0-.1.1H38.2l-1,.2H37l-.5.2h-.9l-.3.2h-.1l-.6.2-.5.3-.3.2h-.2l-.7.4-1.1.7h-.3l-.7.4H29.7l-.9.3H25.1a.1.1,0,0,1-.1-.1h-.3c-.1,0-.2,0-.2-.1h-.7l-.3-.2h-.2l-.4-.2h-.2l-.8-.4-.5-.4h-.3l-.2-.2-.7-.3H20l-.8-.4H14.5l-2.5.2h-.5l-3,.3H7.8a2.3,2.3,0,0,1-1.4-.4H6.3a1.5,1.5,0,0,1-.4-1.1,2.6,2.6,0,0,1,.2-1.5,5.2,5.2,0,0,1,1.5-1.8h0c.8-.7,1.7-1.2,2.4-1.9l.6-.7h0L11,11h0a11.9,11.9,0,0,1,.1-6h0c0-1,6.2-1.9,13.8-1.9m0-3A74.6,74.6,0,0,0,14.7.6c-2.4.3-6.3.9-6.6,3.9a17.1,17.1,0,0,0-.3,5.7l-1,.9-1.1.8H5.6a8.3,8.3,0,0,0-2.2,2.9,5.8,5.8,0,0,0-.5,2.9,5,5,0,0,0,1.2,2.9l.3.4a5.3,5.3,0,0,0,3.4,1.1h1l1.9-.2h1.6l2.5-.2h3.4l.5.3h.2l.5.3h.4l.5.3.3.2.5.3h.2l.5.2.2.2a.5.5,0,0,1,.4.2h.4c0,.1.1.1.2.2h0c.1,0,.2,0,.2.1h.5c.1,0,.2,0,.2.1h5.7l1.2-.4h1.4a2,2,0,0,1,.8-.4l.3-.2,1.2-.7.6-.4h.4l.5-.3.5-.2h6.7l.7-.4h.2a3.6,3.6,0,0,0,1.1-1.4,4.7,4.7,0,0,0-.6-4.8c0-.1-.1-.2-.2-.3l-.5-.9-.3-.3c0-.1-.1-.2-.2-.3v-.2l-.4-.5c0-.1,0-.1-.1-.1l-.2-.4-.2-.3a.2.2,0,0,1-.2-.2l-.3-.3a15.1,15.1,0,0,0-.2-5.5c-.3-3-4.2-3.6-6.6-3.9A75.7,75.7,0,0,0,24.9,0Z" style="fill:#781f1a"/><path d="M42.5,17.3l-.3.4h-.1c0,.1-.1.1-.2.2h-.1a.1.1,0,0,0-.1.1h-.5a8.1,8.1,0,0,1-1.6-.1H38.2l-1,.2H37l-.5.2h-.9l-.3.2h-.1l-.6.2-.5.3-.3.2h-.2l-.7.4-1.1.7h-.3l-.7.4H29.7l-.9.3H25.1a.1.1,0,0,1-.1-.1h-.3c-.1,0-.2,0-.2-.1h-.7l-.3-.2h-.2l-.4-.2h-.2l-.8-.4-.5-.4h-.3l-.2-.2-.7-.3H20l-.8-.4H14.5l-2.5.2h-.5l-3,.3H8.2a2.8,2.8,0,0,1-1.8-.4H6.3a1.5,1.5,0,0,1-.4-1.1,2.6,2.6,0,0,1,.2-1.5,5.2,5.2,0,0,1,1.5-1.8h0c.8-.7,1.7-1.2,2.4-1.9l.6-.7h0L11,11h0c.1-.2.2-.3.2-.5a3.6,3.6,0,0,0,.4-1.1A2.5,2.5,0,0,1,12,7.6c.7-.8,3.2,0,4.1.1l5.1.9c2.3.4,4.5.8,6.8,1l3.3.2h1a36.5,36.5,0,0,1,4.7.1h1.2a.1.1,0,0,0,.1.1h.1l.2.2h.1l.4.5a1,1,0,0,1,.4.5l.3.4a.1.1,0,0,1,.1.1l.3.3.2.3v.2l.3.4.2.2c0,.1.1.2.2.3l.2.3a5.6,5.6,0,0,0,.5.8l.2.3C42.4,16,42.8,16.7,42.5,17.3Z" style="fill:#e05555"/><path d="M42.5,17.3l-.3.4h-.1c0,.1-.1.1-.2.2h-.1a.1.1,0,0,0-.1.1h-.5a8.1,8.1,0,0,1-1.6-.1H38.2l-1,.2H37l-.5.2h-.9l-.3.2h-.1l-.6.2-.5.3-.3.2h-.2l-.7.4-1.1.7h-.3l-.7.4H29.7l-.9.3H25.1a.1.1,0,0,1-.1-.1h-.3c-.1,0-.2,0-.2-.1h-.7l-.3-.2h-.2l-.4-.2h-.2l-.8-.4-.5-.4h-.3l-.2-.2-.7-.3H20l-.8-.4H14.5l-2.5.2h-.5l.9-.4a14.9,14.9,0,0,1,3-.9h.1l1.7-.2a15.6,15.6,0,0,1,4.8.4l1,.3,1.1.4a.1.1,0,0,0,.1.1l1.3.4h2.1a2.7,2.7,0,0,0,1.8-3.2,4.3,4.3,0,0,0-2.9-2.3l-.7-.2-.7-.2L24,12.7H23l-1.1-.2h-.3a.1.1,0,0,0,.1-.1h0a1.9,1.9,0,0,1,.9-.4h2.8l1.3-.2a38.2,38.2,0,0,0,5.6-1.4,36.5,36.5,0,0,1,4.7.1h1.2a.1.1,0,0,0,.1.1h.1l.2.2h.1l.4.5a1,1,0,0,1,.4.5l.3.4a.1.1,0,0,1,.1.1l.3.3.2.3v.2l.3.4.2.2c0,.1.1.2.2.3l.2.3a5.6,5.6,0,0,0,.5.8l.2.3C42.4,16,42.8,16.7,42.5,17.3Z" style="fill:#b53c3c"/><path d="M38.7,10.9a60.4,60.4,0,0,1-17.6,1.6,44.8,44.8,0,0,1-10-1.5,11.7,11.7,0,0,1,0-6.1H38.7A12.3,12.3,0,0,1,38.7,10.9Z" style="fill:#b53c3c"/><path d="M38.7,10.9a60.4,60.4,0,0,1-17.6,1.6H22a11.1,11.1,0,0,0,5.7-2.6,7.1,7.1,0,0,0,2.5-4.9h8.5A12.3,12.3,0,0,1,38.7,10.9Z" style="fill:#c2331d"/><path d="M38.7,4.9c0,1.1-6.2,2-13.8,2S11.1,6,11.1,4.9,17.3,3,24.9,3,38.7,3.9,38.7,4.9Z" style="fill:#e05555"/><path d="M37.1,4.9c0,.8-6.6,1.3-12.2,1.3S13,5.7,13,4.9s6.3-1.3,11.9-1.3S37.1,4.1,37.1,4.9Z" style="fill:#c2331d"/><path d="M8.5,15.7h0c-.1.2-.1.3-.2.4l-.4.4h0l-.3.2a1.1,1.1,0,0,1-1.1-.2l-.3-.3a.3.3,0,0,0-.1-.2,5.2,5.2,0,0,1,1.5-1.8h.3l.4.4v.3h.1v.5Z" style="fill:#faa6a8"/><path d="M14.8,15a1.6,1.6,0,0,0-.8-1,1.1,1.1,0,0,0-1.5.6h-.1a.9.9,0,0,0-.1.7,1.2,1.2,0,0,0,.7,1.1,1.4,1.4,0,0,0,.9,0,1,1,0,0,0,.6-.5A1.7,1.7,0,0,0,14.8,15Z" style="fill:#faa6a8"/><path d="M21.8,16.4c0-.2,0-.3-.1-.4l-.2-.2-.5-.3H20l-.2.2a.8.8,0,0,0-.2.5c-.1.2,0,.4,0,.6a.8.8,0,0,0,.4.4l.3.2h.8c.2,0,.3-.2.5-.3h0a.1.1,0,0,0,.1-.1c.1-.1.1-.3.2-.4S21.9,16.5,21.8,16.4Z" style="fill:#faa6a8"/><path d="M29.3,17.9a.4.4,0,0,0-.1-.3h0v-.2l-.2-.2-.4-.2h-.8l-.3.2h0l-.4.4a1.3,1.3,0,0,0-.1.6c0,.2.1.3.2.5l.2.3h.1l.2.2h1c.2,0,.3-.1.4-.3s.2-.2.2-.3A1.1,1.1,0,0,0,29.3,17.9Z" style="fill:#faa6a8"/><path d="M34,16h0Z" style="fill:#faa6a8"/><path d="M36.4,16.1v-.2h-.1a.3.3,0,0,0-.1-.2l-.4-.4H34.7l-.4.3h-.1l-.2.4v.7l.4.5.6.3h.9l.3-.2c0-.1.1-.2.1-.3a.4.4,0,0,0,.1-.3Z" style="fill:#faa6a8"/><path d="M41.9,15.1h0c0,.1-.1.2-.2.3l-.2.2h-.6a1.7,1.7,0,0,1-1-.3l-.3-.5V15a.9.9,0,0,1,.1-.5l.2-.3H41c0,.1.1.2.2.3l.2.3A5.6,5.6,0,0,0,41.9,15.1Z" style="fill:#faa6a8"/><path d="M12,11.6a.5.5,0,0,0-.2-.4l-.4-.2H11l-.4.5h0l-.6.7v.2l.2.2h.2l.2.2h1.1l.2-.2H12v-.2h.1V12h0A.5.5,0,0,0,12,11.6Z" style="fill:#faa6a8"/><path d="M11.2,13.2Z" style="fill:#faa6a8"/><path d="M19.4,13.1a.6.6,0,0,0-.1-.4l-.3-.3h0l-.5-.2h-.4l-.4.2h-.3v.2a.4.4,0,0,0-.1.3h0v.3h0v.3h0a.5.5,0,0,0,.3.5h1.1l.3-.2h0l.2-.2a.3.3,0,0,0,.1-.2v-.6Z" style="fill:#faa6a8"/><path d="M19.2,13.9Z" style="fill:#faa6a8"/><path d="M30.8,13.5c0-.2-.1-.3-.1-.4l-.3-.4H29.3c-.2,0-.3.1-.4.3h-.1a.8.8,0,0,0-.2.4.6.6,0,0,0-.1.4.5.5,0,0,0,.2.4.5.5,0,0,0,.2.4H30c.2,0,.3-.1.4-.3h.1a.8.8,0,0,0,.2-.4A.6.6,0,0,0,30.8,13.5Z" style="fill:#faa6a8"/><path d="M38.1,12.2l-.2-.4-.3-.3H36.5l-.3.2-.2.2h0v.4h0v.3h0v.3h0v.2h0l.2.2h1.4l.2-.2h0l.2-.3h0a.4.4,0,0,1,.1-.3Z" style="fill:#faa6a8"/><path d="M14.5,7.7l-.2-.3-.4-.3H12.8l-.3.5h-.1c0,.1-.1.3-.1.4s0,.3.1.4a.5.5,0,0,0,.2.4l.4.2h.8l.2-.2a.8.8,0,0,0,.4-.4h.1V8.2C14.6,8,14.5,7.9,14.5,7.7Z" style="fill:#faa6a8"/><path d="M22.5,8.9V8.6l-.3-.4L21.9,8h-.7l-.4.2-.3.2c-.1.1-.1.3-.2.4s-.1.3,0,.4v.3l.4.5H22l.3-.3a.5.5,0,0,0,.2-.4C22.5,9.2,22.6,9.1,22.5,8.9Z" style="fill:#faa6a8"/><path d="M29.7,9V8.7l-.3-.4-.3-.2h-.6l-.4.2-.3.2a.5.5,0,0,0-.2.4.6.6,0,0,0-.1.4v.3l.3.4.3.2h.6l.4-.2.3-.2a.5.5,0,0,0,.2-.4A.3.3,0,0,0,29.7,9Z" style="fill:#faa6a8"/><path d="M37,8c0-.7-.6-1-1.2-1a1,1,0,0,0-.9,1.2,1,1,0,0,0,1.1.9A1,1,0,0,0,37,8Z" style="fill:#faa6a8"/><path d="M38.7,10.1a79.9,79.9,0,0,1-27.6.3c-.8-.1-1,1.1-.2,1.2a84.9,84.9,0,0,0,28-.2C39.7,11.3,39.5,10,38.7,10.1Z" style="fill:#f77075"/><path d="M31.5,14.9a15.4,15.4,0,0,0-6.8-3.3l-.4-.2c-2.5.3-4.4,1.9-6.2,3.5a12.2,12.2,0,0,0-4.3,5.7,2.4,2.4,0,0,0,2.8,3.3,8.6,8.6,0,0,0,5.2-3.5,10.8,10.8,0,0,0,1.1-1.8,103.4,103.4,0,0,1-3.7,19.2c-.2.8.9,1,1.2.2a94.8,94.8,0,0,0,3.7-19.8,96.8,96.8,0,0,0,4.2,19.2c.3.8,1.4.3,1.2-.4a86.2,86.2,0,0,1-4.2-19.4,14.2,14.2,0,0,0,.8,1.8c1.1,1.8,2.5,3.6,4.6,4.2a3.2,3.2,0,0,0,4.1-3C35,18.3,33.1,16.3,31.5,14.9ZM20.9,19.5a8.2,8.2,0,0,1-2.5,2.4,3.8,3.8,0,0,1-2.9.8c-2.4-.9,1.6-5.3,2.5-6.1s3.2-3.1,5.3-3.7h0v.3A12.8,12.8,0,0,1,20.9,19.5Zm12.2,2.4c-.8,1-2.3.6-3.3,0a7.6,7.6,0,0,1-2.2-2.5,18.3,18.3,0,0,1-2.5-6.5,14,14,0,0,1,5.4,2.8C32.1,17,34.8,19.8,33.1,21.9Z" style="fill:#f77075"/></g></g></svg>