<svg xmlns="http://www.w3.org/2000/svg" viewBox="0 0 34.4 30.1"><g id="Layer_2" data-name="Layer 2"><g id="Layer_1-2" data-name="Layer 1"><path d="M12.3,2c5.7,0,10.3.7,10.3,1.6V6.9a5.4,5.4,0,0,1,2.5-.6h1.1c5.4,1.2,7.4,6.4,5.6,11a7.2,7.2,0,0,1-2.1,3.1,7,7,0,0,1-3,1.7,7.8,7.8,0,0,1-2.1.2H23l-.4-.2v1.3a4.7,4.7,0,0,1-4.7,4.7H6.7A4.7,4.7,0,0,1,2,23.4V3.6C2,2.7,6.6,2,12.3,2M24.8,20.9A6.4,6.4,0,0,0,28,20a7,7,0,0,0,2.7-6.5A6.9,6.9,0,0,0,27,8.4,4.3,4.3,0,0,0,25.1,8a3.8,3.8,0,0,0-2.5.9V20.2a3.1,3.1,0,0,0,1.7.7h.5M12.3,0A53.6,53.6,0,0,0,4.7.5C3.1.8,0,1.3,0,3.6V23.4a6.7,6.7,0,0,0,6.7,6.7H17.9a6.8,6.8,0,0,0,6.6-5.7h.1l2.5-.3a8,8,0,0,0,4-2.2,10.3,10.3,0,0,0,2.6-3.8,10.5,10.5,0,0,0-.4-8.7,9.8,9.8,0,0,0-6.6-4.9l-1.6-.2h-.5V3.6c0-2.3-3.1-2.8-4.7-3.1A55.8,55.8,0,0,0,12.3,0ZM24.6,10h.5l1.1.2a5.8,5.8,0,0,1,2.6,3.6c.1,1.1-.3,3.5-1.9,4.4a3.3,3.3,0,0,1-2.1.7h-.2V10Z" style="fill:#502390"/><path d="M26.2,6.4a5,5,0,0,0-3.6.5V3.6c0,.9-4.6,1.7-10.3,1.7S2,4.5,2,3.6V23.4a4.7,4.7,0,0,0,4.7,4.7H17.9a4.7,4.7,0,0,0,4.7-4.7V22.1l.4.2a9.2,9.2,0,0,0,3.7-.1,7,7,0,0,0,3-1.7,7.2,7.2,0,0,0,2.1-3.1C33.6,12.8,31.6,7.6,26.2,6.4ZM28,20a5.9,5.9,0,0,1-3.7.9,3.1,3.1,0,0,1-1.7-.7V8.9A4.1,4.1,0,0,1,27,8.4a6.9,6.9,0,0,1,3.7,5.1A7,7,0,0,1,28,20Z" style="fill:#7d7aa2"/><path d="M22.6,3.6c0,.9-4.6,1.7-10.3,1.7S2,4.5,2,3.6,6.6,2,12.3,2,22.6,2.7,22.6,3.6Z" style="fill:#696889"/><path d="M12.3,2.5a45.2,45.2,0,0,1,6.8.4,10.6,10.6,0,0,1,3,.7c-.2.2-.9.5-3,.8a45.2,45.2,0,0,1-6.8.4,45.2,45.2,0,0,1-6.8-.4c-2.1-.3-2.8-.6-3-.8a10.6,10.6,0,0,1,3-.7,45.2,45.2,0,0,1,6.8-.4Zm0-.5C6.6,2,2,2.7,2,3.6S6.6,5.3,12.3,5.3s10.3-.8,10.3-1.7S18,2,12.3,2Z" style="fill:#5a819e"/><path d="M11.3,15.1c-.1.8.2,1.8-.1,2.4a1.8,1.8,0,0,1-1.7-1.1c-.4-.7-.2-1.6-.6-2.3a.8.8,0,0,0-1.4,0c-.9,2.5,1.4,4.6,3.7,5.1.3,1.4,0,3.1.1,4.6s1,1.2,1.9,1.1.6-2.4.8-3.3,2-.7,2.7-1.5a3.2,3.2,0,0,0,.9-3.9c-.7-.8-1.5.2-1.5,1a2.4,2.4,0,0,1-1.9,2.6c-.4-2.2.2-5,.1-7.3a4.5,4.5,0,0,0-.4-2,1.2,1.2,0,0,0-2.1.2A11.1,11.1,0,0,0,11.3,15.1Z" style="fill:#bacf8c"/><path d="M12.4,10.4a1.6,1.6,0,0,0-.3.9,3.4,3.4,0,0,1-.1,1v3.5a.2.2,0,1,0,.3,0c0-1.4,0-2.9.1-4.3a1.5,1.5,0,0,1,.2-.9C12.7,10.5,12.6,10.3,12.4,10.4Z" style="fill:#5c705a"/><path d="M12.2,16.9v2.4c0,.2.2.2.2,0V16.9C12.4,16.7,12.2,16.7,12.2,16.9Z" style="fill:#5c705a"/><path d="M12.3,20.2a.2.2,0,0,0-.2.2,25.3,25.3,0,0,0-.1,2.8V24c0,.2.2.2.3,0V21.2a2.5,2.5,0,0,0,.1-.8Z" style="fill:#5c705a"/><path d="M13.5,19.3V12.8c0-.1-.3-.1-.3,0v8.3a19.3,19.3,0,0,0,.1,2.4c0,.2.2.2.2,0Z" style="fill:#5c705a"/><path d="M16.1,19.3h-.2a1.3,1.3,0,0,1-.7.6,1.2,1.2,0,0,1-.8.4h-.2a.1.1,0,0,0,.1.1,1.2,1.2,0,0,0,1-.3,2.7,2.7,0,0,0,.8-.7C16.2,19.5,16.2,19.4,16.1,19.3Z" style="fill:#5c705a"/><path d="M16.8,17.2c-.1,0-.1.1-.2.2a3.5,3.5,0,0,1-.3,1.4V19h.2a4,4,0,0,0,.3-1.5C16.9,17.3,16.9,17.2,16.8,17.2Z" style="fill:#5c705a"/><path d="M17.4,16.3a.1.1,0,0,0-.2,0c-.1.1-.1.1,0,.2a2.2,2.2,0,0,1,.3,1.4c-.1.1.2.1.2,0A1.8,1.8,0,0,0,17.4,16.3Z" style="fill:#5c705a"/><path d="M8.5,16.4a2.5,2.5,0,0,1-.2-2.2c0-.2,0-.4-.2-.3a1.9,1.9,0,0,0-.3,1.3,5,5,0,0,0,.4,1.3C8.3,16.7,8.6,16.5,8.5,16.4Z" style="fill:#5c705a"/><path d="M11.1,18a2.9,2.9,0,0,1-1.9-1.5c-.1-.1-.3,0-.2.2a3,3,0,0,0,2,1.5C11.2,18.3,11.3,18,11.1,18Z" style="fill:#5c705a"/><path d="M3.1,5.1a.4.4,0,0,0,0,.8A.4.4,0,0,0,3.1,5.1Z" style="fill:#b3cccf"/><path d="M5.2,5.4a.4.4,0,0,0,0,.9C5.7,6.3,5.7,5.4,5.2,5.4Z" style="fill:#b3cccf"/><path d="M7.7,5.7c-.5,0-.5.9,0,.9S8.2,5.7,7.7,5.7Z" style="fill:#b3cccf"/><path d="M10.4,5.9a.4.4,0,1,0,0,.9C10.9,6.8,10.9,5.9,10.4,5.9Z" style="fill:#b3cccf"/><path d="M13.1,5.9c-.5,0-.5.9,0,.9S13.6,5.9,13.1,5.9Z" style="fill:#b3cccf"/><path d="M15.6,6.1a.4.4,0,1,0,0,.8A.4.4,0,0,0,15.6,6.1Z" style="fill:#b3cccf"/><path d="M18,5.7a.4.4,0,1,0,0,.8A.4.4,0,0,0,18,5.7Z" style="fill:#b3cccf"/><path d="M20.8,5.4a.4.4,0,1,0,0,.8A.4.4,0,0,0,20.8,5.4Z" style="fill:#b3cccf"/><path d="M21.1,7.5c-.5,0-.5.9,0,.9A.4.4,0,1,0,21.1,7.5Z" style="fill:#b3cccf"/><path d="M18.9,8.4c-.5,0-.5.9,0,.9A.4.4,0,0,0,18.9,8.4Z" style="fill:#b3cccf"/><path d="M16.7,7.8a.4.4,0,1,0,0,.8A.4.4,0,0,0,16.7,7.8Z" style="fill:#b3cccf"/><path d="M16,10.1a.4.4,0,1,0,0,.8A.4.4,0,0,0,16,10.1Z" style="fill:#b3cccf"/><path d="M20.1,10.3a.4.4,0,0,0,0,.8A.4.4,0,1,0,20.1,10.3Z" style="fill:#b3cccf"/><path d="M21.2,14a.4.4,0,0,0,0,.8A.4.4,0,1,0,21.2,14Z" style="fill:#b3cccf"/><path d="M18.9,12.6a.4.4,0,0,0,0,.8A.4.4,0,1,0,18.9,12.6Z" style="fill:#b3cccf"/><path d="M16,14.1c-.5,0-.5.9,0,.9S16.5,14.1,16,14.1Z" style="fill:#b3cccf"/><path d="M19.7,16.8a.4.4,0,0,0,0,.8A.4.4,0,1,0,19.7,16.8Z" style="fill:#b3cccf"/><path d="M14.1,8.1a.4.4,0,0,0,0,.8A.4.4,0,1,0,14.1,8.1Z" style="fill:#b3cccf"/><path d="M11.5,8.6a.4.4,0,1,0,0,.8A.4.4,0,0,0,11.5,8.6Z" style="fill:#b3cccf"/><path d="M10.2,7.6a.4.4,0,1,0,0,.8A.4.4,0,0,0,10.2,7.6Z" style="fill:#b3cccf"/><path d="M9.7,10.5a.4.4,0,0,0,0,.9C10.2,11.4,10.2,10.5,9.7,10.5Z" style="fill:#b3cccf"/><path d="M7.8,9.7a.4.4,0,0,0,0,.8A.4.4,0,1,0,7.8,9.7Z" style="fill:#b3cccf"/><path d="M7.2,7.3a.5.5,0,0,0,0,.9C7.7,8.2,7.7,7.3,7.2,7.3Z" style="fill:#b3cccf"/><path d="M4.1,7.4a.4.4,0,1,0,0,.9C4.6,8.3,4.6,7.4,4.1,7.4Z" style="fill:#b3cccf"/><path d="M6,9.8a.4.4,0,0,0,0,.8A.4.4,0,1,0,6,9.8Z" style="fill:#b3cccf"/><path d="M3.7,11.5a.4.4,0,1,0,0,.8A.4.4,0,0,0,3.7,11.5Z" style="fill:#b3cccf"/><path d="M5.3,13.2a.4.4,0,0,0,0,.8A.4.4,0,1,0,5.3,13.2Z" style="fill:#b3cccf"/><path d="M3.9,16a.4.4,0,1,0,0,.9C4.4,16.9,4.4,16,3.9,16Z" style="fill:#b3cccf"/><path d="M6.6,19a.4.4,0,0,0,0,.8A.4.4,0,1,0,6.6,19Z" style="fill:#b3cccf"/><path d="M3.4,21.9a.4.4,0,1,0,0,.8A.4.4,0,0,0,3.4,21.9Z" style="fill:#b3cccf"/><path d="M10,12.4c-.5,0-.5.9,0,.9A.5.5,0,0,0,10,12.4Z" style="fill:#b3cccf"/><path d="M7.5,11.9a.4.4,0,1,0,0,.9C8,12.8,8,11.9,7.5,11.9Z" style="fill:#b3cccf"/><path d="M16.5,21.8a.4.4,0,1,0,0,.8A.4.4,0,0,0,16.5,21.8Z" style="fill:#b3cccf"/><path d="M20.1,23.2a.4.4,0,0,0,0,.8A.4.4,0,1,0,20.1,23.2Z" style="fill:#b3cccf"/><path d="M17.9,10.6a.4.4,0,1,0,0,.8A.4.4,0,0,0,17.9,10.6Z" style="fill:#b3cccf"/><path d="M3.5,9.4a.4.4,0,1,0,0,.8A.4.4,0,0,0,3.5,9.4Z" style="fill:#b3cccf"/><path d="M21.3,11.9c-.5,0-.5.9,0,.9A.4.4,0,1,0,21.3,11.9Z" style="fill:#b3cccf"/><path d="M15.9,11.9c-.5,0-.5.9,0,.9A.4.4,0,0,0,15.9,11.9Z" style="fill:#b3cccf"/><path d="M8.7,23.2a.4.4,0,0,0,0,.8A.4.4,0,0,0,8.7,23.2Z" style="fill:#b3cccf"/><path d="M5.4,5.9A1.8,1.8,0,0,0,3.8,7.6V20a1.7,1.7,0,0,0,1.6,1.7A1.7,1.7,0,0,0,7,20V7.6A1.7,1.7,0,0,0,5.4,5.9Z" style="fill:#fff;opacity:0.30000000000000004"/><path d="M9.7,6.5A1.6,1.6,0,0,0,8.1,8.1v3.3A1.6,1.6,0,0,0,9.7,13a1.6,1.6,0,0,0,1.6-1.6V8.1A1.5,1.5,0,0,0,9.7,6.5Z" style="fill:#fff;opacity:0.30000000000000004"/></g></g></svg>