<svg xmlns="http://www.w3.org/2000/svg" xmlns:xlink="http://www.w3.org/1999/xlink" viewBox="0 0 95.1 65.3"><defs><clipPath id="clip-path"><path d="M91.2,46.6c-1.6,6-6.3,11.6-14,14.7-10.6,4.2-24.7,2.3-36-.1S16.4,54.6,8.5,46.4c-9.9-10.2-8.8-23.7.2-30.3s18.3-3.3,20.4.7a21.3,21.3,0,0,1,41.5,9c3.6-2.8,14-.8,18.8,7.8A17.4,17.4,0,0,1,91.2,46.6Z" style="fill:none"/></clipPath></defs><g style="isolation:isolate"><g id="Layer_2" data-name="Layer 2"><g id="Layer_1-2" data-name="Layer 1"><path d="M91.2,46.6c-1.6,6-6.3,11.6-14,14.7-10.6,4.2-24.7,2.3-36-.1S16.4,54.6,8.5,46.4c-9.9-10.2-8.8-23.7.2-30.3s18.3-3.3,20.4.7a21.3,21.3,0,0,1,40.4-1.5,21.9,21.9,0,0,1,1.1,10.5c2-1.6,6.1-1.6,10.2.1a18,18,0,0,1,8.6,7.7A17.4,17.4,0,0,1,91.2,46.6Z" style="fill:#3b7e82"/><g style="clip-path:url(#clip-path)"><path d="M1.8,20.5C3,27.8,3.8,36,9,41.8S22.9,52.2,31,55.3c3.4,1.2,6.8,2.2,10.3,3.1a64.2,64.2,0,0,0,10.8,1.9,78,78,0,0,0,10.8.4,54,54,0,0,0,10.6-1.4,39.3,39.3,0,0,0,19-10.7L95,45.9a.6.6,0,1,0-1-.7,32.5,32.5,0,0,1-9.1,8.2,39.2,39.2,0,0,1-9.5,4.4,50.3,50.3,0,0,1-20.8,1.9,76.9,76.9,0,0,1-10.5-1.8A88.5,88.5,0,0,1,34,55.2a63.5,63.5,0,0,1-11.2-4.4A50,50,0,0,1,12,43.5a29.2,29.2,0,0,1-4.2-4.4A30.6,30.6,0,0,1,5.2,34c-1.3-3.5-1.8-7.4-2.5-11.1a22.1,22.1,0,0,0-.5-2.5c-.1-.2-.5-.2-.4.1Z" style="fill:#28575c"/></g><path d="M91.2,46.6a21.1,21.1,0,0,1-9.8,12.5h0a41.3,41.3,0,0,1-4.2,2.2c-10.6,4.2-24.7,2.3-36-.1S16.4,54.6,8.5,46.4C-1.3,36.3-.3,23.2,8.3,16.5l.4-.4a17.8,17.8,0,0,1,14.9-2.8c2.6.7,4.7,2,5.5,3.5A21,21,0,0,1,39.6,4a17.8,17.8,0,0,1,5-1.9l-.8.4a31.4,31.4,0,0,0-6,4.9,34.3,34.3,0,0,0-4.6,6.2c-.3.6-3,7.1-2.7,7.1a30,30,0,0,0-7.9-.2,9.7,9.7,0,0,0-6.8,3.7c-2.3,3.2-1.7,7.7-.2,11.4A35.2,35.2,0,0,0,29.5,51.5,55.6,55.6,0,0,0,49.6,59c8.7,1.6,17.9,1.7,26.2-1.2A32.9,32.9,0,0,0,91.2,46.6Z" style="fill:#6379cf;opacity:0.2;mix-blend-mode:multiply"/><path d="M81.4,59.1a41.3,41.3,0,0,1-4.2,2.2c-10.6,4.2-24.7,2.3-36-.1S16.4,54.6,8.5,46.4C-1.3,36.3-.3,23.2,8.3,16.5H8.2A24,24,0,0,0,5.5,29,24,24,0,0,0,8.1,40.5c2,3.6,5.3,6.3,8.7,8.7C35.3,62.1,59.9,65.7,81.4,59.1Z" style="fill:#3b7e82;opacity:0.31;mix-blend-mode:multiply"/><path d="M39.6,4a32.4,32.4,0,0,0-4.3,4,23.4,23.4,0,0,0-5.7,10.6c.1-.8-2.6-3-3.1-3.5a12.7,12.7,0,0,0-2.9-1.8c2.6.7,4.7,2,5.5,3.5A21,21,0,0,1,39.6,4Z" style="fill:#6379cf;opacity:0.2;mix-blend-mode:multiply"/><path d="M80.8,25.9A14,14,0,0,0,68.4,29c.7-.7.9-3.4,1.1-4.4a34.4,34.4,0,0,0,.5-4.5c0-.9-.5-3-.5-4.8a21.9,21.9,0,0,1,1.1,10.5C72.6,24.2,76.7,24.2,80.8,25.9Z" style="fill:#6379cf;opacity:0.2;mix-blend-mode:multiply"/><rect x="29.3" y="22.1" width="4.6" height="19.54" rx="2.3" transform="translate(-5.1 6) rotate(-10)" style="fill:#ffeb81"/><rect x="56.9" y="30.1" width="4.6" height="19.54" rx="2.3" transform="translate(33.7 -26.8) rotate(35.1)" style="fill:#ffeb81"/><rect x="45.4" y="22.1" width="4.6" height="19.54" rx="2.3" transform="translate(9.6 -11) rotate(14.6)" style="fill:#ffeb81"/><path d="M90.5,48.5l.2-.3c.2-.6.3-1.1.5-1.6a17.4,17.4,0,0,0-1.8-13l-.9-1.5-.3-.4-.7-.9-.4-.5a4.6,4.6,0,0,1-.7-.7l-.5-.4-.7-.6-.5-.4-.8-.6-.5-.3-.8-.5-.4-.3-.9-.4a.5.5,0,0,1-.4-.2h-.5l-1-.4-.6-.2-.9-.2h-.5l-.9-.2H72.4l-.7.3h-.3l-.8.5c.1-.6.1-1.2.2-1.8V21.8h0a9.9,9.9,0,0,0-.2-1.7v-.5l-.3-1.6h-.1l-.4-1.6c-.1-.2-.1-.3-.2-.4s-.1-.3-.1-.5L69,14.2h0a10.9,10.9,0,0,0-.8-1.5c-.1-.1-.1-.3-.2-.4l-.9-1.4h0L66,9.4a.5.5,0,0,0-.2-.4L64.6,7.7h0L63.3,6.6,63,6.3,61.6,5.2h-.1L60,4.3l-.4-.2A8,8,0,0,0,58,3.3h0l-1.7-.7h-.5L54,2a21.3,21.3,0,0,0-9.4.1l-1.3.3-.5.2-.8.3-.6.2-.7.3-.6.3-.5.3h-.1l-1.6.9-.3.3a7.1,7.1,0,0,0-1.4,1H36L34.6,7.6l-.3.3L33.2,9.1c-.1.1-.1.1-.1.2l-1.2,1.5-.2.4-1,1.5h0a13,13,0,0,0-.8,1.7l-.2.5-.6,1.8-.5-.7h-.1l-.5-.5-.2-.2-.6-.4h-.1l-.9-.6h-.3l-.7-.3h-.4l-.8-.3h-.4l-1-.3h-.2l-2.6-.3H16.5l-1.4.3h-.3l-1.4.4a.1.1,0,0,0-.1.1l-1.4.5h-.2l-1.3.7-.3.2-1.4.8-.4.4H8.1l-.4.4-.3.3-.5.4-.3.3c-.1.1-.3.2-.4.4l-.3.3-.3.4-.3.4c-.1.1-.2.3-.4.4s-.1.2-.2.3l-.3.5a.8.8,0,0,0-.2.4l-.3.5-.2.3-.3.5c-.1.1-.1.3-.2.4l-.2.5a13.4,13.4,0,0,0-.7,1.8c0,.2-.1.3-.1.5s-.1.3-.2.5a.6.6,0,0,1-.1.4,1.3,1.3,0,0,1-.1.6.6.6,0,0,1-.1.4V28a1.1,1.1,0,0,0-.1.5V29a1.1,1.1,0,0,0-.1.5v2.1a.9.9,0,0,0,.1.5v.5a.7.7,0,0,0,.1.5,1.3,1.3,0,0,0,.1.6v.5l.2.5a.7.7,0,0,0,.1.5c0,.2.1.4.1.6a.7.7,0,0,1,.1.5c.1.2.2.3.2.5l.2.5c.1.2.1.4.2.6s.1.3.2.5a.8.8,0,0,1,.2.5c.1.2.2.3.2.5l.3.6.3.4.3.6c.1.2.2.3.2.5l.4.6.3.4.4.6.3.4.5.6c.1.1.1.3.2.4l.6.7.3.3a7.6,7.6,0,0,0,.9.9c7.9,8.2,21.4,12.3,32.7,14.8s25.4,4.3,36,.1l2-.9.4-.2,1.8-1h.2l1.5-1,.3-.2,1.5-1.2a.2.2,0,0,1,.2-.2L86.5,55h0l1.2-1.4c0-.1.1-.2.2-.3l1-1.4C88.9,51.8,90.4,48.8,90.5,48.5Z" style="fill:none;stroke:#28575c;stroke-miterlimit:10;stroke-width:3px"/></g></g></g></svg>