<svg xmlns="http://www.w3.org/2000/svg" viewBox="0 0 70.5 45.6"><g id="Layer_2" data-name="Layer 2"><g id="Layer_1-2" data-name="Layer 1"><path d="M22.6,34.6c-3.1-3.8-5.5-8.3-9.6-11.3-1.8-1.1-4.5.2-4.3,2.3.8,5.9,7.2,9.2,12.3,11.2,1.3.5,2.2-1.1,1.6-2.2Z" style="fill:#c2331d"/><path d="M21.5,34.5c-5.4-.3-10.8-1.7-16.3-.5C3,34.6,2.1,37.8,4,39.2c5.4,3.7,12.6.9,18.1-1.7,1.4-.7.8-2.6-.6-3Z" style="fill:#c2331d"/><path d="M22.3,34.3c-5.2-3.2-9.9-7.4-16-9.2-2.6-.6-5.2,2.1-4,4.5,3.4,6.6,12.2,7.8,19,8,1.8.1,2.2-2.2,1-3.3Z" style="fill:#ec7670"/><path d="M65.1,17.6A14.5,14.5,0,0,0,64,14.7a12.4,12.4,0,0,0-1.9-2.6,9.8,9.8,0,0,0-2.7-1.8A3.5,3.5,0,0,0,58,9.7c-5.9-1.8-12.1.5-16.4,4.4l-1.4,1.3c-.8.7-1.5,1.6-2.3,2.4L36,19.9C30.7,26,23.8,30.2,17.2,34.7c5.1,6.7,15.2,7.4,23,8.8h3.3c7.6-.2,15.1-3.7,19.1-10.9.5-.9,1-1.9,1.4-2.8A18.6,18.6,0,0,0,65.1,17.6Z" style="fill:#e05555"/><path d="M59.8,25.1c-7.2-2-14.4,1.9-19.2,7.2-2.8,3.1-5.8,5.5-10,5.7-1.6.1-4.7,1-2.9,3h.1a117.5,117.5,0,0,0,12.4,2.4h3.3c7.6-.2,15.1-3.7,19.1-10.9.5-.9,1-1.9,1.4-2.8a7.6,7.6,0,0,0,.4-1.1C63.9,26.9,62,25.7,59.8,25.1Z" style="fill:#ec7670"/><path d="M67.8,16.4l-1.3-.5a4.5,4.5,0,0,0-1.1-.3,3,3,0,0,0-2.1.3c-1.2.6-1.2,3-.1,3.4a3.2,3.2,0,0,0,2.1-.4l.7-.2,1.7-.6c.2-.1.6-.1.7-.4S68.1,16.6,67.8,16.4Z" style="fill:#1d262d"/><path d="M41.5,23.3a20.4,20.4,0,0,0-4.4,3.1c-4.6-.2-9.3-.5-13.9-2.3-2.6-1.2-3-5.2-.4-6.5,6.9-3.2,14.6.8,20.6,5Z" style="fill:#c2331d"/><path d="M41.5,23.3l-.7.4c-4-5.2-8.6-9.9-11-16.3-.9-3,2-6.3,5-5.2,7.5,3.2,9.9,12.1,11,19.9A11.9,11.9,0,0,0,41.5,23.3Z" style="fill:#c2331d"/><path d="M41.5,23.3A17.8,17.8,0,0,0,38.8,25c-6.3-2.8-13-5.1-18.4-9.8-2.5-2.6-1.3-7.5,2.2-7.9,9.6-.9,17.1,7.4,22.4,14.9A12,12,0,0,0,41.5,23.3Z" style="fill:#ec7670"/><path d="M57.8,12.2c-3.7.4-3.1,6.3.7,5.9S61.6,11.8,57.8,12.2Z" style="fill:#f1f2f2"/><path d="M57.9,13c-2.7.3-2.2,4.5.5,4.2S60.6,12.7,57.9,13Z" style="fill:#1d262d"/><path d="M57.8,13.8a.8.8,0,0,0-.3,1.5C58.5,15.5,58.8,13.9,57.8,13.8Z" style="fill:#fff"/><path d="M33.6,2l1.2.2c4.4,1.9,7.1,5.8,8.8,10.3A17.6,17.6,0,0,1,53.8,9.1a15.2,15.2,0,0,1,4.2.6,3.5,3.5,0,0,1,1.4.6,9.8,9.8,0,0,1,2.7,1.8A12.4,12.4,0,0,1,64,14.7c.1.3.3.5.4.8h1a4.5,4.5,0,0,1,1.1.3l1.3.5c.3.2.9.7.6,1.3s-.5.3-.7.4l-1.7.6h0l-.6.2a18.7,18.7,0,0,1-1,9.9h0a7.6,7.6,0,0,1-.4,1.1c-.4.9-.9,1.9-1.4,2.8A19.5,19.5,0,0,1,60,36.3a20.3,20.3,0,0,1-9.5,6.1,19.6,19.6,0,0,1-4.2.9,13.3,13.3,0,0,1-2.8.3H40.2l-1.5-.3h0l-7.6-1.3h-.2l-1.2-.3h-.4l-1.1-.3h-.4a24.3,24.3,0,0,1-7-3c-3.2,1.5-7,2.9-10.7,2.9A10.6,10.6,0,0,1,4,39.2C2.1,37.8,3,34.6,5.2,34l.9-.2a10.3,10.3,0,0,1-3.8-4.2C1.2,27.4,3.3,25,5.6,25h.7a10.6,10.6,0,0,1,2.5.9.6.6,0,0,0-.1-.4,2.7,2.7,0,0,1,2.9-2.7,2.7,2.7,0,0,1,1.4.4c3.3,2.4,5.5,5.7,7.8,8.9,3.1-2,6.1-4.1,9-6.4a26.7,26.7,0,0,1-6.6-1.7c-2.6-1.2-3-5.2-.4-6.5l.5-.2a31.5,31.5,0,0,1-2.9-2.2c-2.5-2.6-1.3-7.5,2.2-7.9H24a16,16,0,0,1,6.2,1.3c-.1-.3-.3-.7-.4-1.1A4.2,4.2,0,0,1,33.6,2m0-2a6.1,6.1,0,0,0-4.7,2.4,8,8,0,0,0-1.3,3.2A14.7,14.7,0,0,0,24,5.2H22.4a6,6,0,0,0-5,4.1,7.5,7.5,0,0,0,1.5,7.2h.2l.9.8a5.2,5.2,0,0,0-.9,3.1,5.9,5.9,0,0,0,3.2,5.3h.2l2.6.9-3.8,2.6a32.6,32.6,0,0,0-7.1-7.8H14a4.2,4.2,0,0,0-2.4-.7,5.1,5.1,0,0,0-3.7,1.6,1.6,1.6,0,0,0-.6.8l-.4-.2H5.6A5.7,5.7,0,0,0,.8,25.7a4.8,4.8,0,0,0-.3,4.8h0a11.5,11.5,0,0,0,2,2.9A4.8,4.8,0,0,0,1,36.2a4.8,4.8,0,0,0,1.8,4.6h0A13.1,13.1,0,0,0,10.1,43c3.1,0,6.5-.9,10.6-2.7a23.6,23.6,0,0,0,6,2.6h.6c0,.1.1.1.2.1h.2l1.2.3h.3l1.3.3h.2l5.9,1,1.7.3,1.6.3h3.6a15.5,15.5,0,0,0,3.1-.3,22.6,22.6,0,0,0,4.5-1,23.5,23.5,0,0,0,10.4-6.6,22.1,22.1,0,0,0,2.8-4,30.1,30.1,0,0,0,1.6-3.1c.1-.3.3-.7.4-1.1l.2-.6h0a20.8,20.8,0,0,0,1.1-8.5l.7-.3a2.6,2.6,0,0,0,1.9-1.4,2.8,2.8,0,0,0-1.3-3.8l-1.4-.6-.3-.2-1.5-.4h0a13,13,0,0,0-2.2-2.9,10.2,10.2,0,0,0-3.2-2.2l-1.7-.7a15.9,15.9,0,0,0-4.8-.7,18.6,18.6,0,0,0-9.3,2.5C42.4,5.1,39.4,2,35.5.4h0A4.3,4.3,0,0,0,33.6,0Z" style="fill:#781f1a"/></g></g></svg>