<svg xmlns="http://www.w3.org/2000/svg" viewBox="0 0 178.6 101.8"><g id="Layer_2" data-name="Layer 2"><g id="Layer_1-2" data-name="Layer 1"><g id="Layer_1-3" data-name="Layer 1"><path d="M87.3,100.2c-15.2,0-29.7-5.3-38.9-14.3a29.7,29.7,0,0,1-16.1,4.7C15.3,90.6,1.4,76.4,1.4,59S13.9,28.6,30,27.4C40.1,11.6,62.5,1.5,87.3,1.5s49.4,11.3,58.6,28.2h.2c17,0,30.9,14.2,30.9,31.6s-13.8,31.6-30.9,31.6a29.9,29.9,0,0,1-19.7-7.3C117.2,94.8,102.7,100.2,87.3,100.2Z" style="fill:#a7bfee"/><path d="M87.3,3c26.6,0,49.3,11.8,57.7,28.2h1.1c16.3,0,29.4,13.5,29.4,30.1s-13.1,30.1-29.4,30.1a28.8,28.8,0,0,1-19.7-7.8c-8.5,9.1-22.8,15.1-39.1,15.1S57.2,92.9,48.7,84a28.9,28.9,0,0,1-16.4,5.1C16.1,89.1,3,75.6,3,59S15.3,29.6,31,28.9C40.3,13.7,62,3,87.4,3m0-3c-25,0-47.6,10.1-58.2,26C12.7,27.6,0,41.8,0,59S14.5,92.1,32.3,92.1a30.7,30.7,0,0,0,16-4.3c9.6,8.8,24,14,39.1,14s29.7-5.2,39.2-14.1a32,32,0,0,0,19.7,6.8c17.8,0,32.3-14.9,32.3-33.1s-14.2-32.8-31.7-33.2C137.1,11.3,113.5.1,87.4.1Z" style="fill:#5576b4"/><path d="M87,88.7c-13.3,0-25.8-4.9-33.5-13.2a3.3,3.3,0,0,0-2.3-1,2.8,2.8,0,0,0-1.8.6A23.1,23.1,0,0,1,36,79.5c-13.2,0-24-11.6-24-25.8S22,28.7,34.9,28a3.1,3.1,0,0,0,2.6-1.6C45.8,12.2,65.2,3,87,3s43.1,10.2,50.6,25.4a3,3,0,0,0,2.9,1.9h1c13.2,0,24,11.5,24,25.7s-10.8,25.7-24,25.7a23.1,23.1,0,0,1-16.1-6.6,3.2,3.2,0,0,0-2.2-1h-.1a3.8,3.8,0,0,0-2.3,1.1C113.3,83.7,100.6,88.7,87,88.7Z" style="fill:#fff9e7"/><ellipse cx="62" cy="51.5" rx="3.7" ry="5.1" style="fill:#5576b4"/><path d="M69.6,29.1c.3,1.8-2.5,3.8-6.2,4.4s-6.9-.4-7.2-2.3,2.5-3.9,6.2-4.5S69.3,27.2,69.6,29.1Z" style="fill:#5576b4"/><ellipse cx="102.2" cy="51.5" rx="3.7" ry="5.1" style="fill:#5576b4"/><path d="M97.6,30.1c-.3,1.8,2.5,3.9,6.1,4.5s7-.4,7.3-2.3-2.4-3.9-6.1-4.5S97.9,28.2,97.6,30.1Z" style="fill:#5576b4"/><path d="M82,64.9a9.1,9.1,0,0,1-9.3-8.2,2,2,0,0,1,2.1-1.9,2.2,2.2,0,0,1,1.8,1.4,5.4,5.4,0,0,0,10.8,0,2,2,0,0,1,1.9-2.1A2.1,2.1,0,0,1,91.4,56a1.5,1.5,0,0,1-.1.7A9.2,9.2,0,0,1,82,64.9Z" style="fill:#5576b4"/></g></g></g></svg>