<svg xmlns="http://www.w3.org/2000/svg" viewBox="0 0 121.95 190.43"><g id="Layer_2" data-name="Layer 2"><g id="Layer_1-2" data-name="Layer 1"><g id="Props"><g id="na_potted_plant_6" data-name="na_potted plant 6"><path d="M97,131.61l-6.58,45.33a14,14,0,0,1-13.85,12H59.23a14,14,0,0,1-13.85-12L38.8,131.61Z" fill="#f5753c"/><path d="M76.59,190.43H59.23a15.59,15.59,0,0,1-15.34-13.27l-6.82-47H98.75l-6.82,47A15.59,15.59,0,0,1,76.59,190.43ZM40.53,133.11l6.33,43.62a12.57,12.57,0,0,0,12.37,10.7H76.59A12.57,12.57,0,0,0,89,176.73l6.33-43.62Z" fill="#781f1a"/><path d="M97,131.22c-.06,2.92-8.54,4.73-19,5.42l-1.84.11-1.66.08-1.92.07c-.93,0-1.88,0-2.83.06H67.63q-1.5,0-3,0L62,136.87c-.68,0-1.36-.06-2-.09l-2.3-.13c-1.45-.09-2.86-.21-4.22-.35-.58-.05-1.13-.12-1.69-.18l-.47-.06c-.82-.1-1.6-.21-2.36-.33-6.15-.95-10.37-2.45-10.41-4.51,0-1.41,2-2.56,5.28-3.46a46.9,46.9,0,0,1,5-1l1.18-.18c1.25-.17,2.57-.33,3.95-.46l2.39-.21,1.11-.07c.9-.07,1.81-.12,2.74-.16.72,0,1.46-.06,2.19-.09,1.37,0,2.76-.07,4.16-.08.73,0,1.47,0,2.21,0,1,0,2,0,3,0l2.26.07c1.15,0,2.3.1,3.42.17l2.13.15C89.31,126.68,97,128.45,97,131.22Z" fill="#ac5350"/><path d="M67.63,138.47c-1,0-2,0-3,0l-2.6-.07-1.92-.08h-.13l-2.32-.13c-1.48-.1-2.92-.22-4.28-.35l-1.72-.19-.5-.06c-.8-.1-1.61-.21-2.38-.33-7.92-1.23-11.63-3.13-11.67-6,.06-3.19,4.81-4.5,6.37-4.93a47.56,47.56,0,0,1,5.17-1.07c.41-.07.8-.13,1.21-.18,1.26-.18,2.61-.34,4-.47q1.2-.12,2.43-.21l1.12-.08,2.77-.16,2.21-.09c1.39,0,2.79-.07,4.2-.08q1.11,0,2.22,0c1,0,2,0,3,0l2.27.07c1.17,0,2.33.1,3.47.17l2.14.15c18.77,1.48,18.84,5.47,18.86,6.79v.05c0,1.38-.12,5.55-20.42,6.89l-1.85.11-1.68.08-1.95.07c-.94,0-1.9,0-2.86,0C69.06,138.47,68.35,138.47,67.63,138.47Zm-27.56-7.22s.79,1.71,9.13,3c.75.12,1.51.23,2.31.32l.43.05c.58.07,1.13.14,1.7.19,1.33.14,2.73.25,4.17.35l2.28.13h.12l1.88.08,2.56.07c1.7,0,3.39,0,5.08,0,1,0,1.88,0,2.81,0l1.89-.07,1.66-.07,1.8-.11c14.2-.94,17.51-3.32,17.63-3.93-.12-.56-3.14-2.8-16.09-3.82l-2.1-.14c-1.11-.07-2.25-.13-3.39-.17L71.7,127c-1,0-2,0-2.94,0q-1.1,0-2.19,0c-1.38,0-2.76,0-4.12.08-.73,0-1.45,0-2.17.09-.91,0-1.82.09-2.71.15l-1.09.08-2.37.2c-1.35.13-2.65.29-3.88.46l-1.15.17a46,46,0,0,0-4.85,1c-3.8,1-4.16,2-4.16,2Z" fill="#781f1a"/><path d="M97.53,20.94a.42.42,0,0,0-.49-.16,4.51,4.51,0,0,0-1,.39l-.15.1a12.66,12.66,0,0,0-1.08.72,25.44,25.44,0,0,0-6.17,6.6c-.14.22-.28.44-.43.66A62.64,62.64,0,0,0,81.39,45,108.18,108.18,0,0,0,78,61q-.57,3.41-1,6.81c-.34,2.36-.66,4.71-.94,7.08-.2,1.7-.39,3.39-.56,5.1,0,.3-.07.61-.1.92-.2,2-.39,4.09-.55,6.14q-.66,8.3-.88,16.64c0,1.12-.05,2.24-.07,3.36-.28,6.18-.74,12.36-.83,18.54,0,1.15,0,2.31,0,3.46s.83,5.69.52,7.78l-1.92.07a77.52,77.52,0,0,1-.84-11.38c0-6.39.5-12.81.93-19.22.25-3.8.46-7.6.49-11.38,0-.72.08-1.44.13-2.16.07-1.1.15-2.2.24-3.31q.28-3.48.7-7c0-.32.07-.63.1-.95.58-4.9,1.32-9.78,2.17-14.64l.39-2.23a108.86,108.86,0,0,1,4.72-20.84,79.3,79.3,0,0,1,5.81-13.11,12.59,12.59,0,0,1,.8-1.41,7.33,7.33,0,0,1,.4-.63,30.18,30.18,0,0,1,6.17-7A10.61,10.61,0,0,1,94.88,21,3.31,3.31,0,0,1,98,20.51.33.33,0,1,1,97.53,20.94Z" fill="#003d28"/><path d="M59,136.78l-2.3-.13c-.89-2-1.67-4-2.36-6.06q-.75-2.22-1.38-4.5c-.6-2.17-1.13-4.36-1.62-6.57-.11-.51-.23-1-.34-1.55-.89-4.2-1.65-8.46-2.47-12.7l-.36-1.8c-.27-1.38-.55-2.75-.85-4.11,0-.25-.11-.5-.16-.74l-.21-.9q-.24-1.06-.51-2.13-.83-3.39-1.89-6.71v0c-.17-.61-.33-1.22-.51-1.83C42,79.82,39.53,72.73,37.57,65.5c-.5-1.84-1-3.69-1.39-5.55-1.93-7.35-3.61-15-6.09-22.23a79.82,79.82,0,0,0-3.22-8.1c-.52-1.11-1.07-2.21-1.66-3.29-.68-1.27-1.42-2.51-2.21-3.74.06,1.47-1.55-2.79,1,.61.21.31.42.62.62.94.67,1,1.3,2.05,1.89,3.11a75.9,75.9,0,0,1,4.7,10c3.39,8.76,5.52,18.09,8.11,27.06,0,.09.05.18.08.26,2.23,7.81,4.85,15.5,7.16,23.28.23.77.46,1.54.68,2.31l.21.73c.24.84.48,1.69.71,2.54.34,1.27.68,2.55,1,3.83.14.54.27,1.09.4,1.63q.7,3,1.28,6l0,.15.36,1.86c1,5,1.91,9.92,3.1,14.82.08.32.15.64.24,1,.26,1.07.54,2.14.83,3.19.13.47.26.94.4,1.4.47,1.61,1,3.22,1.51,4.81C57.31,132.83,58.42,135,59,136.78Z" fill="#003d28"/><path d="M63.63,136.94,61,136.87a9.52,9.52,0,0,0-.23-1.07,73.44,73.44,0,0,1-1.6-10.15c-.13-1.39-.23-2.79-.31-4.2-.25-4-.32-8.13-.45-12.2l0-.89c-.1-2.91-.23-5.82-.47-8.7-.05-.59-.11-1.17-.16-1.75a74.09,74.09,0,0,0-1.31-8.42c-.09-.41-.18-.82-.28-1.22a49.09,49.09,0,0,0-1.66-5.51c-.22-.62-.46-1.23-.72-1.85-.15-.35-.29-.7-.45-1h0c-.17-.28-.41-.53-.57-.81a.44.44,0,0,1,0-.1c0-.3.53-.35.51,0,0,0,0,0,0,0h0c.33.55.64,1.11.94,1.67s.59,1.15.86,1.73a42.8,42.8,0,0,1,2.17,5.66c.12.38.24.76.34,1.15a63.88,63.88,0,0,1,1.8,9c.07.55.14,1.1.2,1.65.35,3,.56,6,.72,9.09,0,.21,0,.42,0,.63.16,3,.28,6,.46,9,.14,2.36.32,4.7.57,7s.59,4.61,1,6.86c.87.9.6,2.54,1,3.71C63.52,136.36,63.58,136.64,63.63,136.94Z" fill="#003d28"/><path d="M105.45,81c-.26-5.17-1.69-14.6-9-13.16-3.55.58-4.49,4.91-8,5.27-1.36-.29-2.08-1.55-3.14-2.32a5,5,0,0,0-5.89-.13h0A9.28,9.28,0,0,0,76,74.82l-.05.07A13.09,13.09,0,0,0,74,81c0,.34-.05.67-.05,1a16.12,16.12,0,0,0,.82,5.08,17.77,17.77,0,0,0,1.59,3.5A31.8,31.8,0,0,0,79,95l1,1.4L81,97.92c3.49,4.91,7.75,10.25,9,12.3C90,110.22,105.72,90.33,105.45,81Z" fill="#70af6d"/><path d="M90,111.72h-.08a1.48,1.48,0,0,1-1.19-.69c-.65-1-2.15-3-3.89-5.33-1.61-2.14-3.44-4.56-5.1-6.9-.37-.52-.73-1-1.08-1.54s-.66-1-1-1.43A33.24,33.24,0,0,1,75,91.23a19.08,19.08,0,0,1-1.67-3.72,17.33,17.33,0,0,1-.9-5.55c0-.38,0-.75.05-1.12a14.5,14.5,0,0,1,2.2-6.72,10.81,10.81,0,0,1,4-4.73l.07,0a6.47,6.47,0,0,1,7.51.23,11.1,11.1,0,0,1,1.17,1,4.22,4.22,0,0,0,1.18.94c1-.2,1.73-.93,2.78-2.07,1.21-1.3,2.57-2.77,4.84-3.14a7.07,7.07,0,0,1,6,1.29c3.5,2.73,4.5,8.73,4.73,13.27v0c.28,9.77-15.11,29.37-15.77,30.2A1.49,1.49,0,0,1,90,111.72ZM80.23,72a8,8,0,0,0-2.82,3.44l-.06.14-.08.12a11.72,11.72,0,0,0-1.77,5.41c0,.31,0,.61,0,.9a14.33,14.33,0,0,0,.75,4.6,16.48,16.48,0,0,0,1.45,3.21.8.8,0,0,1,.08.16,31.48,31.48,0,0,0,2.46,4.22c.3.45.61.91.93,1.37s.69,1,1.06,1.5c1.65,2.32,3.46,4.72,5.06,6.84,1.1,1.47,2.07,2.76,2.82,3.79,4.85-6.42,14.05-20,13.88-26.61-.27-5.54-1.55-9.46-3.58-11a4.17,4.17,0,0,0-3.59-.7c-1.3.22-2.16,1.15-3.17,2.23-1.22,1.32-2.62,2.82-4.93,3.06a1.41,1.41,0,0,1-.46,0,5.82,5.82,0,0,1-2.88-1.81,6.85,6.85,0,0,0-.83-.75,3.48,3.48,0,0,0-4.21-.08Z" fill="#488245"/><path d="M98.6,85.7c-2.1.27-4-2.66-2.19-4.13C99.16,79.63,102.45,85.23,98.6,85.7Z" fill="#70af6d"/><path d="M98.34,87.21a4.28,4.28,0,0,1-3.81-2.62,3.46,3.46,0,0,1,.93-4.18l.09-.06a3.6,3.6,0,0,1,4.25,0,4.44,4.44,0,0,1,2,4.44,3.19,3.19,0,0,1-3,2.38A3.25,3.25,0,0,1,98.34,87.21Zm-1-4.45c-.09.09-.21.25,0,.64a1.28,1.28,0,0,0,1.12.81h0c.34,0,.44-.13.44-.14a1.66,1.66,0,0,0-.69-1.19C97.74,82.55,97.47,82.67,97.33,82.76Z" fill="#488245"/><path d="M88.72,81.29l-.28.33A37.38,37.38,0,0,0,81,97.92c-1.93,9-1.67,18.68-2.42,28A75.14,75.14,0,0,1,77,136.64l-1.84.11a1.06,1.06,0,0,1,0-.4c.59-3.19,1-6.78,1.28-10.59.8-9.43,1.21-20.17,3.48-29.36,1.47-6,3.73-11.34,7.39-15.24l.39-.4s0,0,0,0a1.61,1.61,0,0,1,.62.24h0C88.71,81.18,89,81.44,88.72,81.29Z" fill="#003d28"/><path d="M88.38,81a2.59,2.59,0,0,1-.76-.24h0A6.72,6.72,0,0,1,85.51,79h0c-1.13-1.17-1.71-2.93-3.12-3.81h0a.13.13,0,0,1-.14-.19c1.64,0,2.43,2.36,3.57,3.34h0l0,0h0l0,0,0,0c3.35,5,7.74-1.12,11.35-2C95.35,77.87,91,81.22,88.38,81Z" fill="#003d28"/><path d="M91,105.17c-.26-2.75-.54-5.49-.72-8.25v0c0-.32,0-.64-.07-1v0h0v0c0-.33,0-.65-.07-1v.07c-.35-3.9-.55-7.83-1.1-11.7v0h0c0-.13,0-.27-.08-.41v.06c-.21-.7-.42-2.22-1.43-2-.41.22-.18-.41.09-.45,3.53-.18,2.74,9.56,3.29,12.15v-.07c0,.25,0,.49.05.73h0l0,.2v0c0,.09,0,.17,0,.26v-.07a2.29,2.29,0,0,0,0,.25h0v.06h0v0l.06.9V95C90.88,96,92.29,106.7,91,105.17Z" fill="#003d28"/><path d="M90,84.47c3,2.33,6.31,4.43,8.33,7.77.23.26-.28.44-.29.09v0C97.83,90.63,87.11,84,90,84.47Z" fill="#003d28"/><path d="M89.52,85.25c-.91.06-1.53,1.53-2.28,2.12v0a36.41,36.41,0,0,0-3,3.78v0c-.16.16-.64,1.27-.15,1l.06-.11v0c0-.08.09-.16.14-.24h0l.08-.12v0C85.71,89.41,88.88,87.66,89.52,85.25Z" fill="#003d28"/><path d="M91,94.8a32.87,32.87,0,0,1,4.5,2.34c-.87.25-2.1-.87-3.07-1.09C92,95.86,89.57,95,91,94.8Z" fill="#003d28"/><path d="M90.34,92.88c.22,1.22-2.48,2.84-3,4.23-.25.3-.67,2.18-1,1.06C86.83,96.65,88.68,92.77,90.34,92.88Z" fill="#003d28"/><path d="M43.66,19.47c-1.9-5-7.95-4.68-10.08-8.12.71-14.62-16-10.64-22.6-3-3.21,3-4.82,7.06-5.52,11.3-.88,4.22-2.57,8.28-2.83,12.62a38.34,38.34,0,0,0,.28,6.33c.4,4.63-1,9.26-1.36,13.76,0,.06,0,.12,0,.18l0,.55c.72.45.75-.83.89-1.26A16,16,0,0,1,3.91,48a8.49,8.49,0,0,1,3.35-3.67l0,0c3.34-2.37,7.35-3.39,11.31-4.18,1.93-.33,3.87-.61,5.8-1a44.08,44.08,0,0,0,5.68-1.42h0l1.07-.41c2.76-1,5.67-1.82,8.1-3.47C43.41,30.42,46,24.63,43.66,19.47Z" fill="#02513d"/><path d="M1.78,54.65A2.11,2.11,0,0,1,.7,54.33,1.51,1.51,0,0,1,0,53l0-.57a1.79,1.79,0,0,1,0-.24c.13-1.64.4-3.36.67-5a35,35,0,0,0,.68-8.44l-.08-1a33.78,33.78,0,0,1-.2-5.63,39.67,39.67,0,0,1,1.72-8.35c.41-1.46.83-3,1.14-4.46.84-5.1,2.83-9.17,5.91-12,4.4-5.06,13.5-9,19.6-6.54,2.18.87,5.75,3.34,5.6,10.16a9.78,9.78,0,0,0,3.47,2.2c2.31,1.09,5.18,2.44,6.48,5.8C47.74,25,44.44,31.52,40.24,35l-.11.09a28.4,28.4,0,0,1-6.76,3l-1.67.59-1,.39-.12,0a44.48,44.48,0,0,1-5.88,1.47c-1.26.24-2.52.44-3.78.64l-2.05.34c-4.27.85-7.74,1.85-10.66,3.9l0,0-.1.06a7,7,0,0,0-2.77,3L5.09,49A13.49,13.49,0,0,0,3.86,52.1a.85.85,0,0,1,0,.17s0,.11,0,.18a2.55,2.55,0,0,1-1.29,2.06A1.87,1.87,0,0,1,1.78,54.65Zm.09-2.18H1.54l.31,0ZM25.29,3A19,19,0,0,0,12.12,9.3L12,9.43c-2.62,2.4-4.32,5.91-5.06,10.43-.34,1.65-.78,3.21-1.21,4.72a37.54,37.54,0,0,0-1.61,7.75,31,31,0,0,0,.2,5.15l.08,1A29.36,29.36,0,0,1,4.1,45a10.93,10.93,0,0,1,2.34-1.95c3.6-2.52,7.83-3.61,11.88-4.42l2.11-.35c1.23-.2,2.47-.4,3.7-.63a40.88,40.88,0,0,0,5.43-1.35l1.1-.41c.58-.22,1.15-.42,1.73-.62a25.67,25.67,0,0,0,6-2.65c3.35-2.79,6-7.89,3.91-12.55l0-.07c-.86-2.26-2.86-3.2-5-4.19-1.88-.89-3.82-1.8-5-3.68a1.46,1.46,0,0,1-.22-.86c.19-4.09-1.05-6.7-3.7-7.75A8.23,8.23,0,0,0,25.29,3Zm14,30.84h0Z" fill="#073a2b"/><path d="M61.38,59.42C56.28,53,49.62,47.06,47.52,38.84v0C47.07,30.1,45.87,19.74,52.76,13l0,0c1.76-2.74,4.89-5,8.18-3.32,2.39,1.19,3.4,3.73,5.38,5.23,2.17.94,3.84-1.33,5.82-1.85,7.58-4,14.71-.36,14.78,8.47a47.75,47.75,0,0,1-3,13.39c-1.92,5.18-6.5,8.44-10.42,12A144.71,144.71,0,0,0,62,60.19Z" fill="#70af6d"/><path d="M62,61.69h0a1.47,1.47,0,0,1-1.17-.61l-.56-.74c-1.18-1.49-2.48-3-3.73-4.45C52.18,51,47.76,45.83,46.07,39.22a1.73,1.73,0,0,1,0-.45c0-.59-.06-1.19-.1-1.8-.5-8.53-1.06-18.2,5.67-24.88,2-3,5.8-5.77,10-3.68a11.28,11.28,0,0,1,3.72,3.35,13.5,13.5,0,0,0,1.75,1.9c.56.16,1.13-.12,2.25-.81a10.14,10.14,0,0,1,2.26-1.12c4.19-2.18,8.47-2.31,11.75-.35s5,5.56,5.09,10.21A48.68,48.68,0,0,1,85.28,35.5c-1.73,4.64-5.29,7.75-8.73,10.77q-1.06.91-2.1,1.86A133.74,133.74,0,0,0,63.88,60.19l-.76,1A1.52,1.52,0,0,1,62,61.69ZM49,38.65c1.55,5.85,5.7,10.64,9.71,15.28,1.08,1.25,2.19,2.54,3.25,3.84A132,132,0,0,1,72.39,46c.74-.67,1.46-1.31,2.18-1.94,3.31-2.9,6.44-5.63,7.89-9.54A45.79,45.79,0,0,0,85.4,21.53c0-3.48-1.31-6.2-3.63-7.58s-5.66-1.24-8.94.51a2.26,2.26,0,0,1-.33.13,6.37,6.37,0,0,0-1.63.82c-1.29.79-3.06,1.86-5.17.95a1.92,1.92,0,0,1-.31-.18A14.39,14.39,0,0,1,63,13.65a8.86,8.86,0,0,0-2.72-2.55c-3.09-1.54-5.56,1.75-6.18,2.68L54,14a1.29,1.29,0,0,1-.16.17c-5.86,5.72-5.34,14.73-4.88,22.67C49,37.42,49,38,49,38.65Z" fill="#488245"/><path d="M65,27.3c-4.83-2.58-4.47-10-10.12-11.91h0a1,1,0,0,0-.29-.08s-.12,0-.17,0c0-.48.9,0,1.16.09,3,1.39,4.91,4.06,6.39,6.9v0a48.25,48.25,0,0,0,3.48,4.29A.44.44,0,0,1,65,27.3Z" fill="#003d28"/><path d="M65.45,27.52c-2.22-1.12,2.11-2.85,2.91-3.63a90,90,0,0,1,8.55-5.69l0,0c.8-.19,2.77-2.93,3.23-1.77-2.34,2.26-5.51,3.93-7.93,6.25v0l-.06.06h0C70,24.38,68,26.65,65.45,27.52Z" fill="#003d28"/><path d="M49.93,30.79c.33-1.13,2.45-.71,3.44-1a75.84,75.84,0,0,0,9.57-2.66l-.07,0,.31-.1h0l.07,0h0L63.4,27l-.07,0c.54-.33,5.34-1.1,3.75.29a12.8,12.8,0,0,0-2.82.55l.06,0a39.77,39.77,0,0,1-14.21,2.92C50.13,30.82,50,30.85,49.93,30.79Z" fill="#003d28"/><path d="M72.69,28.16c-2.39-.08-4.77-.41-7.15-.63-2.46-2.2,3.82-.78,4.66-.53l-.06,0a31.65,31.65,0,0,0,7.27.59c.48-.09.36.69-.06.47C75.8,28.15,74.25,28.17,72.69,28.16Z" fill="#003d28"/><path d="M54,42.72a.3.3,0,0,1,0-.45,34.43,34.43,0,0,0,6.18-7.52c1.79-2.65,3.27-5.49,5-8.17a.42.42,0,0,1,.52-.18C66.32,29.18,56.87,41.8,54,42.72Z" fill="#003d28"/><path d="M74.76,39.63c-2.31,1-12.8-13.31-9.07-12.27,3.29,3.18,4.46,10,9.13,11.36A.46.46,0,1,1,74.76,39.63Z" fill="#003d28"/><path d="M57.88,50.13c-.37-.19-.14-.56.1-.74,2.65-2.79,4.17-6.47,6.25-9.67,2.11-.9-1.16,3.82-1.52,4.41l0,0C61.22,46.07,59.9,48.83,57.88,50.13Z" fill="#003d28"/><path d="M69.45,44.92h0c-.8-.33-7.26-6.35-3.9-5.51A33.21,33.21,0,0,0,70,44.18C70.65,44.49,70,45.46,69.45,44.92Z" fill="#003d28"/><path d="M118.61,19s0,0,0,0h0c-3-8.81-16.18-15-18.51-2.36h0a1.44,1.44,0,0,1-.51-.08c-7-4.39-11.9-4.83-15.23-2.44C80.77,16.61,79,22.3,78.14,29.8h0v0c0,.21,0,.43,0,.64a18.45,18.45,0,0,0,1.29,11.15,19.87,19.87,0,0,0,1.22,2.22c.25.39.51.77.78,1.15,3.14,4.31,7.93,7.74,12.72,11.37a32.78,32.78,0,0,1,3.39,3.38,15.64,15.64,0,0,0,3.93,3.55l0,0c2.78,1.59,3.56,5.13,5.92,7,1.34-.22,1-2.39,1.65-3.37,2.47-6.09,6.26-11.56,8.69-17.64C119.8,42.74,122.16,24.81,118.61,19Z" fill="#02513d"/><path d="M107.31,71.79a1.48,1.48,0,0,1-.94-.33,13.55,13.55,0,0,1-2.86-3.59,9.49,9.49,0,0,0-2.74-3.24l-.12-.07a17.25,17.25,0,0,1-4.31-3.88,32.68,32.68,0,0,0-3.17-3.17L92,56.64C87.47,53.22,83.19,50,80.18,45.86c-.29-.4-.57-.8-.83-1.22A19.63,19.63,0,0,1,78,42.24a19.89,19.89,0,0,1-1.43-12l0-.52a.66.66,0,0,1,0-.14h0c.95-8.7,3.16-14.18,6.77-16.76,3.86-2.76,9-2.24,15.63,1.62,1.6-5.31,5.15-6.4,7.26-6.55,5.36-.38,11.56,4.38,13.65,10.41,3.94,6.69,1.14,25.23-.88,31.39a86.19,86.19,0,0,1-4.51,9.19,89.41,89.41,0,0,0-4.22,8.56c0,.08-.08.16-.13.24a4.36,4.36,0,0,0-.23.88c-.19,1-.56,2.85-2.43,3.16A1,1,0,0,1,107.31,71.79Zm-5.22-9.87,0,0a11.66,11.66,0,0,1,3.92,4.33c.35.55.68,1.09,1,1.57a5.17,5.17,0,0,1,.52-1.6,91,91,0,0,1,4.33-8.74,88.32,88.32,0,0,0,4.32-8.79c2.16-6.59,4.19-23.81,1.08-28.91a.25.25,0,0,1,0-.07,2.24,2.24,0,0,1-.13-.27v0c-1.59-4.74-6.65-8.81-10.65-8.51-3.24.22-4.49,3.35-5,5.94a1.49,1.49,0,0,1-1.38,1.22h0A2.81,2.81,0,0,1,99.1,18a1.76,1.76,0,0,1-.37-.17c-6-3.77-10.6-4.61-13.56-2.49s-4.68,6.91-5.53,14.55c0,0,0,.09,0,.13l0,.57a.77.77,0,0,1,0,.15A17,17,0,0,0,80.75,41,17.25,17.25,0,0,0,81.88,43c.23.36.47.71.72,1.06,2.75,3.78,6.86,6.87,11.21,10.15l1.21.91.08.07a35.76,35.76,0,0,1,3.54,3.53A14.07,14.07,0,0,0,102.09,61.92Z" fill="#073a2b"/><path d="M90.87,35.2c2.48,0,1.92,2.83-.3,2.7S89,35.28,90.87,35.2Z" fill="#02513d"/><path d="M90.71,39.4h-.23a2.69,2.69,0,0,1-2.84-2.61,3.22,3.22,0,0,1,3.17-3.09h.09a3,3,0,0,1,2.77,1.43,2.73,2.73,0,0,1-.11,2.77A3.3,3.3,0,0,1,90.71,39.4Z" fill="#073a2b"/><path d="M81.43,76.08a14.21,14.21,0,0,0-1.93-5.42h0a10.89,10.89,0,0,0-2.57-2.85,9.55,9.55,0,0,0-1.43-.91,10.18,10.18,0,0,0-9.12,0,12.77,12.77,0,0,0-2.11,1.24,15.29,15.29,0,0,0-2.34,2.06c-2.47,2.28-7,5.35-9.64,1.77-1.86-1.92-2.56-4.82-4.89-6.3a9.13,9.13,0,0,0-8-1,10.7,10.7,0,0,0-1.8.88C31.81,69,28,78.42,26.39,84.26c0,0,0,0,0,.07-1.68,8.18,1.24,26.24,6.89,32.46,2.91,3.91,6.36,7.33,9.57,11l1,1.2a57.21,57.21,0,0,1,4.1,6.77,17.58,17.58,0,0,0,3.12,4.05c1.49.36,1.1-2.44,1.4-3.48l0-.09a54.21,54.21,0,0,1,1.83-5.62c.43-1.12.9-2.22,1.41-3.31.23-.49.46-1,.71-1.47q1.11-2.24,2.43-4.36c.61-1,1.25-2,1.93-2.91A55.56,55.56,0,0,1,65,113.37c.51-.57,1-1.13,1.57-1.67l.64-.68c1.49-1.57,3-3.12,4.48-4.72.77-.85,1.52-1.71,2.23-2.61.56-.7,1.08-1.41,1.58-2.15l.14-.2c.06-.09.12-.19.19-.28l0,0,.08-.12v0A49.59,49.59,0,0,0,79,95C81.51,89,82.75,82.58,81.43,76.08Z" fill="#02513d"/><path d="M51.34,141.31a2.46,2.46,0,0,1-.6-.07,1.38,1.38,0,0,1-.66-.36,18.55,18.55,0,0,1-3.4-4.38c-.42-.71-.82-1.44-1.22-2.17a30.92,30.92,0,0,0-2.77-4.44c-.3-.36-.64-.75-1-1.14-1-1.11-2-2.21-3-3.3a97.28,97.28,0,0,1-6.61-7.71c-6.24-6.95-8.86-25.63-7.2-33.71h0A1.32,1.32,0,0,1,25,83.8c1-3.45,4.69-15.22,11.83-19.58a12,12,0,0,1,2.07-1,10.62,10.62,0,0,1,9.3,1.14,11.27,11.27,0,0,1,3.51,4.12,13,13,0,0,0,1.7,2.44,1.58,1.58,0,0,1,.12.15,2.3,2.3,0,0,0,1.67,1c1.41.13,3.55-1,5.71-3A16.69,16.69,0,0,1,63.4,66.9a14,14,0,0,1,2.35-1.38,11.72,11.72,0,0,1,10.44,0,10.41,10.41,0,0,1,1.65,1.05,11.91,11.91,0,0,1,2.87,3.16l.06.09a15.37,15.37,0,0,1,2.14,5.95c1.25,6.22.38,12.87-2.58,19.77a50.76,50.76,0,0,1-3.1,6,.76.76,0,0,1-.12.19l0,0h0l-.07.09-.15.23-.08.12-.07.1c-.49.73-1,1.49-1.64,2.23s-1.41,1.71-2.3,2.69-1.94,2.07-2.92,3.1c-.53.54-1.06,1.09-1.58,1.64l-.63.67c-.55.56-1.06,1.11-1.56,1.66a52.72,52.72,0,0,0-4,5c-.66.93-1.29,1.88-1.89,2.84-.84,1.37-1.64,2.79-2.36,4.24-.24.47-.47,1-.69,1.43-.48,1-.94,2.11-1.37,3.22A54.42,54.42,0,0,0,54,136.59c0,.07,0,.12,0,.17s-.06.55-.08.82c-.08,1.14-.18,2.57-1.21,3.32A2.2,2.2,0,0,1,51.34,141.31ZM27.85,84.61v0c-1.66,8.07,1.44,25.54,6.53,31.15l.1.12a94.62,94.62,0,0,0,6.45,7.52c1,1.11,2,2.22,3,3.35L45,128a33.76,33.76,0,0,1,3.08,4.89c.38.7.77,1.4,1.17,2.09a21,21,0,0,0,1.59,2.34,6.75,6.75,0,0,1,.2-1.42.75.75,0,0,1,.05-.16A55.27,55.27,0,0,1,53,130.05c.45-1.17.94-2.32,1.45-3.4.23-.51.48-1,.73-1.52.76-1.52,1.6-3,2.49-4.47.63-1,1.3-2,2-3a58.82,58.82,0,0,1,4.25-5.31c.53-.58,1.07-1.16,1.63-1.72l.62-.66,1.58-1.65c1-1,1.94-2,2.87-3s1.54-1.74,2.17-2.53,1-1.38,1.51-2.06l.17-.24.17-.26h0l.06-.09a48.29,48.29,0,0,0,2.94-5.7C80.3,88.07,81.1,82,80,76.38c0,0,0,0,0-.07a12.86,12.86,0,0,0-1.67-4.77l-.06-.09A9.27,9.27,0,0,0,76,69a7.93,7.93,0,0,0-1.21-.77,8.65,8.65,0,0,0-7.79,0,12.44,12.44,0,0,0-1.88,1.1A15.11,15.11,0,0,0,63,71.2l-.07.08c-1.66,1.54-4.91,4.08-8.07,3.79a5.28,5.28,0,0,1-3.73-2.14A16.07,16.07,0,0,1,49.09,70a8.84,8.84,0,0,0-2.49-3.09A7.64,7.64,0,0,0,39.88,66a9,9,0,0,0-1.53.75C33.44,69.79,29.71,78,27.85,84.61Zm48.06,16.3h0Z" fill="#073a2b"/><path d="M29.87,89.78c1.46-1.45,4,1.65,2.89,3C31.23,94.1,28.36,91.21,29.87,89.78Z" fill="#02513d"/><path d="M31.86,94.62A4,4,0,0,1,29,93.22a3.19,3.19,0,0,1-.15-4.52,3,3,0,0,1,4.25.19c1.36,1.25,2,3.41.84,4.87a.86.86,0,0,1-.19.19A2.78,2.78,0,0,1,31.86,94.62Zm-1-3.76h0v0l-1.05-1,1,1.08Zm-1-1.08h0Z" fill="#073a2b"/><path d="M72.29,92.76a5,5,0,0,1-1.93.72c-3.13.06-1.76-2.66.24-3.41a8,8,0,0,1,1.93-.62C74.94,89.11,74.3,91.49,72.29,92.76Z" fill="#02513d"/><path d="M70.26,95c-2.6,0-3.11-1.6-3.21-2.1-.34-1.78,1.31-3.57,3-4.22A8.83,8.83,0,0,1,72.32,88c2.28-.32,3,1.06,3.12,1.49C76,90.91,75,92.83,73.09,94a6.53,6.53,0,0,1-2.51.93l-.19,0Zm.1-1.5h0Zm1.58-2.33c-.21.07-.45.17-.73.29a2.5,2.5,0,0,0-.82.51,3.61,3.61,0,0,0,1.09-.46h0A4.39,4.39,0,0,0,71.94,91.15Z" fill="#073a2b"/><path d="M51.41,139.51v.05c-7-21.64-9-40.18.43-61.58.14-.61,2.85-4.67,2.19-2.67a69.77,69.77,0,0,0-6.93,27.49C46.23,115.23,49.32,127.35,51.41,139.51Z" fill="#83bc60"/><path d="M107.38,69.65c-1.52-16.7,4-36.25-6.5-50.91-.32-.41-1.18-1.3-.29-1.49.68.24,1.14,1.06,1.52,1.47,8,11.11,7.52,22.13,6.47,35.13v0c-.08,1.33-.19,2.66-.28,4v-.06c-.24,3.9-.54,7.81-.49,11.6C107.93,69.59,107.6,69.88,107.38,69.65Z" fill="#83bc60"/><path d="M1.51,52.48A71.08,71.08,0,0,1,11,29.38c3.8-5,9.05-8.77,14.29-12.26h0c2.54-1.6,5.7-4.55,8.73-4-5.9,4.48-13.36,8.26-19.11,13.53l0-.05c-4.83,4.09-7.5,10.1-9.88,15.84a67.75,67.75,0,0,0-3.24,9.67C1.79,52.27,1.75,52.79,1.51,52.48Z" fill="#83bc60"/><path d="M100.1,18a.27.27,0,0,1,.53,0A.27.27,0,0,1,100.1,18Z" fill="#83bc60"/><path d="M106.84,30.29c-8.57-10.56-14.59-6.81-21.5-12.65,7.33,3.92,18.28,3.31,22.38,12.06A.53.53,0,0,1,106.84,30.29Z" fill="#83bc60"/><path d="M106.78,33.92c-.36-5.24.72-16.53,4.91-20h0c.75-.08-1,1.26-1,1.72-2.23,5.41-2.28,11.52-3.1,17.27h0c-.1.42.21,1.18-.37,1.32A.41.41,0,0,1,106.78,33.92Z" fill="#83bc60"/><path d="M81.7,30.2a.16.16,0,0,1,0-.28h0c4.13-1.46,8.5-1.43,12.83-1.54,3.58,0,7.17-1.59,10.72-.8.66.34,2.07.37,1.89,1.38a.71.71,0,0,1-.86.49,16,16,0,0,0-6.23-.52h0C93.89,29.68,87.65,28.49,81.7,30.2Z" fill="#83bc60"/><path d="M106.6,31.76c-2.63-2.37,16.81-14.61,7.71-6.6-2.16,2.25-4.75,4.09-6.82,6.43A.68.68,0,0,1,106.6,31.76Z" fill="#83bc60"/><path d="M88.92,41.57c-1.49,0-3-.1-4.48-.07-.49.32-.62-.65,0-.46,4.44,0,9-.55,12.91-2.74l-.08,0c3.27-1.62,6.26-3.76,9.56-5.33a.51.51,0,0,1,.61.2c.22,1.07-4.09,2.86-5,3.71C98.33,39.47,93.83,41.72,88.92,41.57Z" fill="#83bc60"/><path d="M114.79,39.09c-11.19-3.7-9.27-7.05.4-.88C116.25,38.25,115.53,39.86,114.79,39.09Z" fill="#83bc60"/><path d="M95.2,53.44c2.33-2.29,5.44-4.65,7-7.86,2-3.19,3.82-6.54,6-9.61,1.74-.78.16,1.7-.14,2.29h0C105,44,101.11,50.57,95.2,53.44Z" fill="#83bc60"/><path d="M102.41,57.87a.09.09,0,0,1,0-.17h0a33.42,33.42,0,0,0,3.94-9c.24-.51,1.45-7.35,1.83-4.42h0v.05h0c0,.1,0,.21-.07.31h0v0h0a31.36,31.36,0,0,1-3.93,10.9l0,0C103.6,56.29,103.19,57.36,102.41,57.87Z" fill="#83bc60"/><path d="M112.87,53.19c-2.38-2.76-3.82-6.18-5.31-9.47.39-2.08,2.12,2.67,2.52,3.18v0l0,.06h0a53.21,53.21,0,0,0,3.16,5.67l0,0,.07.08C113.94,52.85,113.26,53.75,112.87,53.19Z" fill="#83bc60"/><path d="M40.15,22.75h0c-4.56-1.32-8.94-3.68-13.81-3.5h.08l-.48,0h0c-.66,0-4.48.68-2.81-.71a24.13,24.13,0,0,1,4.15-.42c4.69,0,8.56,2.79,12.93,4C40.77,22.11,40.64,23,40.15,22.75Z" fill="#83bc60"/><path d="M23.37,20.12a.53.53,0,0,1-.28-.68c1.08-2.82,1.76-5.77,2.75-8.61a17.65,17.65,0,0,0,1.1-4.78c0-.36.55-.35.5,0h0c-.19,2.65-1.08,5.21-1.58,7.82h0l-.12.62h0C25.23,16.14,25.24,19.62,23.37,20.12Z" fill="#83bc60"/><path d="M27.64,34.86c-1.92-3-1.8-6.88-2.87-10.2-.36-1.62-3-3.83-2.33-5.32,4.73,2.9,3.63,10.15,5.56,14.88A.37.37,0,0,1,27.64,34.86Z" fill="#83bc60"/><path d="M22.32,20.3c-2.56-3.07-5.25-6-8-8.89-.28-.19-.93-1.38-.19-.94,2,1.91,4.45,3.31,6.37,5.32C21.07,16.38,25,21,22.32,20.3Z" fill="#83bc60"/><path d="M15.6,39.14A13.91,13.91,0,0,1,15.85,35v0c.64-3.67,2.2-7.08,2.93-10.72h0v-.07h0c.11-.6.29-1.18.45-1.76.74-1,.89.46.73,1-.78,5.12-4,9.72-3.88,15v0l0,.28C16.52,39.16,15.78,39.66,15.6,39.14Z" fill="#83bc60"/><path d="M17.79,24A70.94,70.94,0,0,1,7,21.52H7c-1-.32.66-.29,1-.13h0l.09,0h0l.16,0h0l.14,0h0l.07,0h0l.1,0h0C9.35,22,19.85,22.9,17.79,24Z" fill="#83bc60"/><path d="M4.8,32.66c-.46-.43.28-.58.62-.6h0l.2,0h0c2.2-.19,4.32-1.49,6.26-2-.42,1.3-2.69,1.74-4,2.14H8l-.4.08h0c-.8.15-1.6.24-2.41.35A.29.29,0,0,1,4.8,32.66Z" fill="#83bc60"/><path d="M10.66,40.56c-.6-1.55-.44-12,1.34-12.46a.43.43,0,0,1,.3.53c-.57,3.11-1.11,6.25-1.38,9.4v0a15.21,15.21,0,0,0,0,2.24h0A.23.23,0,0,1,10.66,40.56Z" fill="#83bc60"/><path d="M48.89,86.08C48,84,46.83,82,45.9,80c-1.47-3.69-2-8-5-10.87h0l-.24-.19,0,0c-.26-1.9,4,3.86,4,4.48C44.94,74.45,52.41,88.38,48.89,86.08Z" fill="#83bc60"/><path d="M49.13,86.28c-.73-.82.75-1.76,1.15-2.45,3.53-4.14,8.89-5,13.71-6.87A22.37,22.37,0,0,0,70.56,73c.47-.26,1.26-1.67,1.7-.8a.36.36,0,0,1-.22.37h0c-4.34,4.42-10.32,6.21-15.69,9a42.86,42.86,0,0,0-6.44,4.65A.61.61,0,0,1,49.13,86.28Z" fill="#83bc60"/><path d="M47.92,90.76C45.51,88.66,42,88.3,39.18,87h0a25.19,25.19,0,0,1-7.48-3.59l0,0-.42-.28h0L31.16,83l0,0-.36-.23a.32.32,0,0,1-.39-.49.38.38,0,0,1,.51-.06,29.08,29.08,0,0,0,5.11,2.64l-.05,0,.32.11h0l0,0h0l.07,0h0l.21.08h0l.26.1,0,0c3.69,1.3,8,1.51,11.32,3.59.4.45,1.08.81,1.13,1.46A.8.8,0,0,1,47.92,90.76Z" fill="#83bc60"/><path d="M47.7,90.82c.3-2.24,5.06-1.85,6.85-2.25,5.86-1.07,12-2.16,17-5.7h0l0,0h0c1.48-.63,3.53-3.44,5-3,.23.32-.18.73-.48.48a43.49,43.49,0,0,1-19.12,9.06c-2.52.76-5.22.68-7.69,1.64C48.74,91.11,48,91.46,47.7,90.82Z" fill="#83bc60"/><path d="M35.18,100.06h-.6l-.35,0h0l-.39,0h-.2a24.74,24.74,0,0,0-2.85-.15c-.37.32-.69-.45-.18-.47,2.49-.13,5,.17,7.43-.44,2,0,7.23-3.07,8.44-1.32,0,1-1.32.77-2,.92C41.4,99,38.38,100.12,35.18,100.06Z" fill="#83bc60"/><path d="M62.28,100.08c-5-.57-10.08-.77-15-1.4C43.8,96,60.07,97.91,61,98.58h0a14.74,14.74,0,0,0,7.52-.09c.56,0,1.38-.85,1.78-.2C69.82,99.94,64,100.05,62.28,100.08Z" fill="#83bc60"/><path d="M36,115.76h0c1.56-2.94,4.48-5.09,6.19-8,1.39-1.51,2.45-5.62,4.45-5.9.9,1.86-6,9.78-7.87,11.1h0a17,17,0,0,0-2.44,2.51h0l-.09.15h0C36.19,115.73,36.08,116,36,115.76Z" fill="#83bc60"/><path d="M61.28,109.63c-5.23-.49-11.11-2.17-14.73-6.16-.43-.23-.53-1,.14-.82,4.33,2.29,8.49,5.06,13.35,6.14C60.37,109,62.17,109.14,61.28,109.63Z" fill="#83bc60"/><path d="M42.87,125.17a.33.33,0,0,1-.07-.55c.93-2.83,1.49-5.75,2.36-8.58l0,.06c.26-.58,1.21-4.29,1.81-2.4-1.05,3.42-2.09,6.85-3.36,10.19v0C43.35,124.24,43.48,125.28,42.87,125.17Z" fill="#83bc60"/><path d="M54.69,122.63a.3.3,0,0,1-.48-.18c-2-2.22-4.26-4.17-6.3-6.35l.05.05c-.37-.51-3.13-3.18-1.19-2.76,2.45,2.61,4.91,5.21,7.17,8l0,0C54.13,121.75,55.1,122.15,54.69,122.63Z" fill="#83bc60"/></g></g></g></g></svg>