<svg xmlns="http://www.w3.org/2000/svg" width="113.08" height="72.81" viewBox="0 0 113.08 72.81">
  <g id="Layer_2" data-name="Layer 2">
    <g id="Layer_1-2" data-name="Layer 1">
      <g id="to_marimba">
        <g>
          <path d="M107.64,27.13l.39-.26-2.65-2.16-3.31,2L84.51,9.6,85,9.46l-.2-.25.45-.13-.2-.25.45-.12-.2-.25.45-.13-.2-.25L86,8l-.2-.25.45-.13-.2-.25.45-.12L86.32,7l.45-.13-.2-.25L87,6.46,85.21,4.25,80.31,5.5,78.59,3.82A3,3,0,0,0,76.36,3l-7.8.89a1.09,1.09,0,0,0-1,.7.77.77,0,0,0-.25.37.79.79,0,0,0-.25.38.77.77,0,0,0-.25.37.79.79,0,0,0-.25.38.77.77,0,0,0-.25.37.79.79,0,0,0-.25.38.77.77,0,0,0-.25.37c-.43.39-.4,1.07.2,1.69l.22.21L63,10,61.47,8.42A3.23,3.23,0,0,0,59,7.52L50.27,8.57a1.23,1.23,0,0,0-1.11.75.87.87,0,0,0-.25.38.9.9,0,0,0-.25.37.87.87,0,0,0-.25.38.9.9,0,0,0-.25.37.87.87,0,0,0-.25.38.9.9,0,0,0-.25.37.87.87,0,0,0-.25.38c-.46.44-.43,1.19.24,1.87l.06.06-3.75,1-1.2-1.18a3.65,3.65,0,0,0-2.8-1l-9.81,1.17a1.44,1.44,0,0,0-1.25.82,1.32,1.32,0,0,0-.25.38,1.15,1.15,0,0,0-.25.37,1.32,1.32,0,0,0-.25.38,1.15,1.15,0,0,0-.25.37,1.32,1.32,0,0,0-.25.38,1.15,1.15,0,0,0-.25.37,1.32,1.32,0,0,0-.25.38,1.36,1.36,0,0,0,.1,1.86l-4.94,1.27-1.26-1.24A4.16,4.16,0,0,0,17.83,18L6.53,19.35a1.65,1.65,0,0,0-1.42.91,1.51,1.51,0,0,0-.25.37,1.56,1.56,0,0,0-.25.38,1.51,1.51,0,0,0-.25.37,1.56,1.56,0,0,0-.25.38,1.51,1.51,0,0,0-.25.37,1.56,1.56,0,0,0-.25.38,1.51,1.51,0,0,0-.25.37c-.55.59-.49,1.53.36,2.4l42.1,43.29c1.13,1.15,3.07,1.59,4.15.94L59,64a1.31,1.31,0,0,0,.54-.61,1.27,1.27,0,0,0,.25-.37,1.19,1.19,0,0,0,.25-.38,1.27,1.27,0,0,0,.25-.37,1.19,1.19,0,0,0,.25-.38,1.27,1.27,0,0,0,.25-.37,1.19,1.19,0,0,0,.25-.38,1.27,1.27,0,0,0,.25-.37,1.35,1.35,0,0,0,.29-1.4l3-2a3.07,3.07,0,0,0,3.07.38l7.84-4.75a4.38,4.38,0,0,0,.74-.94,1.15,1.15,0,0,0,.25-.37,1.19,1.19,0,0,0,.25-.38A1.15,1.15,0,0,0,77,51a1.19,1.19,0,0,0,.25-.38,1.15,1.15,0,0,0,.25-.37,1.19,1.19,0,0,0,.25-.38,1.17,1.17,0,0,0,.22-1.33l2.11-1.4.07.07a2.91,2.91,0,0,0,3.2.73l7-4.22a1,1,0,0,0,.43-.53.9.9,0,0,0,.25-.37.93.93,0,0,0,.25-.38.9.9,0,0,0,.25-.37.93.93,0,0,0,.25-.38.9.9,0,0,0,.25-.37.93.93,0,0,0,.25-.38.9.9,0,0,0,.25-.37,1.18,1.18,0,0,0,0-1.66l1.82-1.21,1,1a2.62,2.62,0,0,0,2.87.66l6.21-3.72a.86.86,0,0,0,.4-.49.84.84,0,0,0,.25-.38.77.77,0,0,0,.25-.37.84.84,0,0,0,.25-.38.77.77,0,0,0,.25-.37.84.84,0,0,0,.25-.38.77.77,0,0,0,.25-.37.84.84,0,0,0,.25-.38c.47-.41.39-1.12-.24-1.73l-.62-.61.44-.29-.14-.11.39-.26-.14-.12.39-.26-.14-.11.39-.26-.14-.12.39-.26-.14-.11.39-.26-.14-.12.39-.26-.14-.11.39-.26ZM67.55,14.4l3-.85L90.46,33.83,88.51,35ZM48.88,19.69l3.51-1L75.81,42.78l-2.13,1.29Zm-21.19,6,4.62-1.31L59.75,52.59l-2.91,1.77Z" fill="#e6e7e8"/>
          <polygon points="108.03 26.87 54.9 62.18 48.86 59.24 105.38 24.71 108.03 26.87" fill="#db7a53"/>
          <polygon points="85.21 4.25 13.32 22.72 16.08 26.55 87.02 6.46 85.21 4.25" fill="#db7a53"/>
          <path d="M78.59,3.82l27.62,27c.69.67.73,1.47.09,1.85l-6.21,3.72a2.62,2.62,0,0,1-2.87-.66L68,5.91c-.85-.88-.58-1.88.55-2L76.36,3A3,3,0,0,1,78.59,3.82Z" fill="#ffdb45"/>
          <path d="M61.47,8.42,92.2,38.63c.76.75.8,1.66.09,2.09l-7,4.22a2.91,2.91,0,0,1-3.2-.73L49.65,10.82c-1-1-.64-2.1.62-2.25L59,7.52A3.23,3.23,0,0,1,61.47,8.42Z" fill="#cfd819"/>
          <path d="M42.76,13.67l34.62,34c.86.85.9,1.86.1,2.35l-7.84,4.75A3.25,3.25,0,0,1,66,54L29.44,16.38c-1.07-1.11-.72-2.38.71-2.55L40,12.66A3.65,3.65,0,0,1,42.76,13.67Z" fill="#40bfb8"/>
          <path d="M21.05,19.17,60.89,58.34c1,1,1,2.14.11,2.7l-9,5.47c-1.08.65-3,.21-4.15-.94L5.72,22.28c-1.24-1.27-.84-2.73.81-2.93L17.83,18A4.16,4.16,0,0,1,21.05,19.17Z" fill="#f0471c"/>
          <path d="M77,7.74c.13-.24-.07-.58-.45-.77s-.79-.14-.93.1.08.59.46.78S76.85,8,77,7.74Z" fill="#51495e" stroke="#51495e" stroke-miterlimit="10"/>
          <path d="M100.34,31.25c.13-.24-.08-.59-.45-.77s-.8-.14-.93.1.07.59.45.77A.72.72,0,0,0,100.34,31.25Z" fill="#51495e" stroke="#51495e" stroke-miterlimit="10"/>
          <path d="M85.64,40.13c.13-.24-.07-.59-.45-.77s-.8-.14-.93.1.07.59.45.77S85.51,40.37,85.64,40.13Z" fill="#51495e" stroke="#51495e" stroke-miterlimit="10"/>
          <path d="M70.62,49.6c.13-.25-.07-.59-.45-.78s-.79-.13-.92.11.07.58.45.77S70.49,49.84,70.62,49.6Z" fill="#51495e" stroke="#51495e" stroke-miterlimit="10"/>
          <path d="M16.31,24c.13-.24-.08-.59-.46-.78s-.79-.13-.92.11.07.59.45.77S16.17,24.26,16.31,24Z" fill="#51495e" stroke="#51495e" stroke-miterlimit="10"/>
          <path d="M39.71,18c.13-.24-.07-.59-.45-.77s-.79-.14-.92.1.07.59.45.77S39.58,18.21,39.71,18Z" fill="#51495e" stroke="#51495e" stroke-miterlimit="10"/>
          <path d="M59.06,12.46c.14-.24-.07-.59-.45-.77s-.79-.14-.92.1.07.59.45.78S58.93,12.7,59.06,12.46Z" fill="#51495e" stroke="#51495e" stroke-miterlimit="10"/>
        </g>
        <path d="M76.6,3a3,3,0,0,1,2,.82L80.31,5.5l4.9-1.25L87,6.46l-.45.12.2.25L86.32,7l.2.25-.45.12.2.25-.45.13L86,8l-.45.12.2.25-.45.13.2.25-.45.12.2.25-.45.13.2.25-.51.14,17.56,17.13,3.31-2L108,26.87l-.39.26.14.12-.39.26.14.11-.39.26.14.12-.39.26.14.11-.39.26.14.12-.39.26.14.11-.39.26.14.12-.39.26.14.11-.44.29.62.61a2.25,2.25,0,0,1,.35.44s0,0,0,.05a1.23,1.23,0,0,1,.15.43s0,0,0,0a.94.94,0,0,1,0,.41h0a.74.74,0,0,1-.24.35.84.84,0,0,1-.25.38.77.77,0,0,1-.25.37.84.84,0,0,1-.25.38.77.77,0,0,1-.25.37.84.84,0,0,1-.25.38.77.77,0,0,1-.25.37.84.84,0,0,1-.25.38.86.86,0,0,1-.4.49l-6.21,3.72a1.63,1.63,0,0,1-.84.2,3,3,0,0,1-2-.86l-1-1-1.82,1.21a1.86,1.86,0,0,1,.25.42.19.19,0,0,1,0,.07,1.11,1.11,0,0,1,0,.8v0a.88.88,0,0,1-.24.34.9.9,0,0,1-.25.37.93.93,0,0,1-.25.38.9.9,0,0,1-.25.37.93.93,0,0,1-.25.38.9.9,0,0,1-.25.37.93.93,0,0,1-.25.38.9.9,0,0,1-.25.37,1,1,0,0,1-.43.53l-7,4.22a1.81,1.81,0,0,1-.95.23,3.27,3.27,0,0,1-2.25-1l-.07-.07-2.11,1.4a1.17,1.17,0,0,1-.22,1.33,1.19,1.19,0,0,1-.25.38,1.15,1.15,0,0,1-.25.37A1.19,1.19,0,0,1,77,51a1.15,1.15,0,0,1-.25.37,1.19,1.19,0,0,1-.25.38,1.15,1.15,0,0,1-.25.37,4.38,4.38,0,0,1-.74.94l-7.84,4.75a2.06,2.06,0,0,1-1.06.26,3.73,3.73,0,0,1-2-.64l-3,2a1.35,1.35,0,0,1-.29,1.4,1.27,1.27,0,0,1-.25.37,1.19,1.19,0,0,1-.25.38,1.27,1.27,0,0,1-.25.37,1.19,1.19,0,0,1-.25.38,1.27,1.27,0,0,1-.25.37,1.19,1.19,0,0,1-.25.38,1.27,1.27,0,0,1-.25.37A1.31,1.31,0,0,1,59,64l-9,5.47a2.34,2.34,0,0,1-1.23.3,4.26,4.26,0,0,1-2.92-1.24L3.72,25.28c-.85-.87-.91-1.81-.36-2.4a1.51,1.51,0,0,1,.25-.37,1.56,1.56,0,0,1,.25-.38,1.51,1.51,0,0,1,.25-.37,1.56,1.56,0,0,1,.25-.38A1.51,1.51,0,0,1,4.61,21a1.56,1.56,0,0,1,.25-.38,1.51,1.51,0,0,1,.25-.37,1.32,1.32,0,0,1,.2-.32l0,0a2.16,2.16,0,0,1,.27-.25l.14-.07L6,19.47a2.34,2.34,0,0,1,.52-.12L17.83,18a2.11,2.11,0,0,1,.36,0,4.25,4.25,0,0,1,2.86,1.19l1.26,1.24,4.29-1.1.65-.17a1.36,1.36,0,0,1-.1-1.86,1.32,1.32,0,0,1,.25-.38,1.27,1.27,0,0,1,.25-.37,1.32,1.32,0,0,1,.25-.38,1.27,1.27,0,0,1,.25-.37,1.32,1.32,0,0,1,.25-.38,1.27,1.27,0,0,1,.25-.37,1.32,1.32,0,0,1,.25-.38,1.69,1.69,0,0,1,.17-.29h0a1.39,1.39,0,0,1,.25-.23l.11,0a1,1,0,0,1,.25-.13,2.07,2.07,0,0,1,.46-.11L40,12.66l.32,0a3.71,3.71,0,0,1,2.48,1L44,14.85l3.75-1-.06-.06c-.67-.68-.7-1.43-.24-1.87a.87.87,0,0,1,.25-.38.9.9,0,0,1,.25-.37.87.87,0,0,1,.25-.38.9.9,0,0,1,.25-.37.87.87,0,0,1,.25-.38.9.9,0,0,1,.25-.37.87.87,0,0,1,.25-.38.72.72,0,0,1,.15-.27h0a1,1,0,0,1,.23-.22l.08-.05a1.79,1.79,0,0,1,.24-.12,1.65,1.65,0,0,1,.41-.09L59,7.52h.28a3.29,3.29,0,0,1,2.2.91L63,10,65,9.45l1.28-.33L66,8.91c-.6-.62-.63-1.3-.2-1.69a.77.77,0,0,1,.25-.37.79.79,0,0,1,.25-.38.77.77,0,0,1,.25-.37.79.79,0,0,1,.25-.38.77.77,0,0,1,.25-.37A.79.79,0,0,1,67.31,5a.77.77,0,0,1,.25-.37h0a.83.83,0,0,1,.33-.46l.07,0A1.23,1.23,0,0,1,68.19,4a2,2,0,0,1,.37-.09L76.36,3h.24M88.51,35l1.73-1,.22-.13L70.57,13.55l-3,.85L88.51,35M73.68,44.07l2.13-1.29L52.39,18.7l-3.51,1L51.22,22,73.68,44.07M56.84,54.36l2.91-1.77L32.31,24.38l-4.62,1.31,4,4,25.12,24.7M76.6,0h0A5.49,5.49,0,0,0,76,0l-7.8.89a4.6,4.6,0,0,0-1,.25,3.78,3.78,0,0,0-.66.31,2.18,2.18,0,0,0-.36.22A3.82,3.82,0,0,0,65,3a4,4,0,0,0-.22.34,3.11,3.11,0,0,0-.25.38,3,3,0,0,0-.25.37,3.11,3.11,0,0,0-.25.38,3,3,0,0,0-.25.37,3.11,3.11,0,0,0-.25.38,3.19,3.19,0,0,0-.26.38c-.07.09-.13.19-.2.29a6.27,6.27,0,0,0-3.81-1.34c-.22,0-.43,0-.64,0l-8.71,1a4.94,4.94,0,0,0-1.09.25,4.29,4.29,0,0,0-.64.31,3,3,0,0,0-.39.23,4,4,0,0,0-.85.81,4.87,4.87,0,0,0-.32.47,2.92,2.92,0,0,0-.24.37c-.09.12-.17.24-.25.37s-.17.25-.25.38-.17.24-.25.37-.17.25-.25.38-.17.24-.25.37-.18.25-.26.39a4,4,0,0,0-.47.83,6.75,6.75,0,0,0-4.13-1.48,4.92,4.92,0,0,0-.67,0l-9.82,1.17a5.23,5.23,0,0,0-1.12.27,6.13,6.13,0,0,0-1.06.54,4.5,4.5,0,0,0-.67.59l-.07.06-.15.19a3.65,3.65,0,0,0-.34.5,3.75,3.75,0,0,0-.24.36c-.09.12-.17.25-.25.38s-.17.24-.25.37-.17.25-.25.38-.17.24-.25.37-.17.25-.25.38-.17.24-.25.37A4,4,0,0,0,24,16.88l-.79.2-.06,0a7.2,7.2,0,0,0-5-2.05,5.69,5.69,0,0,0-.72,0L6.17,16.37A5.21,5.21,0,0,0,5,16.65a3.77,3.77,0,0,0-.65.3,3.54,3.54,0,0,0-.43.25,4.4,4.4,0,0,0-.72.61l-.06.06L3,18a4.13,4.13,0,0,0-.41.59c-.09.12-.17.24-.25.37s-.17.24-.25.37-.17.25-.25.38-.17.24-.25.37-.17.25-.25.38-.17.24-.25.37-.17.24-.24.37a4.66,4.66,0,0,0,.71,6.16l42.1,43.29a7.21,7.21,0,0,0,5.07,2.15,5.31,5.31,0,0,0,2.79-.74l9-5.47A4.37,4.37,0,0,0,62,65.12c.09-.12.18-.25.26-.38s.17-.25.25-.38.17-.24.25-.37.17-.25.25-.38.17-.24.25-.37.17-.25.25-.38l.24-.35a4.21,4.21,0,0,0,.71-1.44l.37-.24a6.25,6.25,0,0,0,1.71.24,5.06,5.06,0,0,0,2.61-.69L77,55.62a4.11,4.11,0,0,0,1.43-1.44,3.11,3.11,0,0,0,.25-.38,3,3,0,0,0,.25-.37,3.11,3.11,0,0,0,.25-.38,3,3,0,0,0,.25-.37,3.11,3.11,0,0,0,.25-.38,3,3,0,0,0,.25-.37c.09-.12.17-.24.25-.37a4,4,0,0,0,.41-.65,6.06,6.06,0,0,0,1.74.26,4.83,4.83,0,0,0,2.51-.67l7-4.22a4,4,0,0,0,1.4-1.41c.09-.12.17-.25.25-.38s.17-.24.25-.37.17-.25.25-.38.17-.24.25-.37.17-.25.25-.38.17-.24.25-.37.17-.25.25-.38l.09-.13a5.79,5.79,0,0,0,2.17.43,4.55,4.55,0,0,0,2.38-.63l6.21-3.71a4,4,0,0,0,1.39-1.4c.08-.12.17-.24.24-.37s.17-.25.25-.38.17-.24.25-.37.17-.25.25-.38.17-.24.25-.37.17-.25.25-.38a3,3,0,0,0,.25-.37,3.87,3.87,0,0,0,.54-1v0l0,0a4,4,0,0,0,.18-1.75v-.09l0-.09s0-.08,0-.13l1.41-.93-.15-.12.4-.26-.15-.11.4-.26-.15-.12.4-.26-.15-.11.4-.26-.15-.12.4-.26-.15-.11.4-.26-.15-.12.4-.26-.15-.11.4-.26-3.16-2.57-2.65-2.16L105.63,21l-1.82,1.11L102.5,23,90.07,10.84l.43-.12-.21-.25.46-.13-.21-.24L91,10l-.21-.25.46-.13L91,9.35l.46-.13L91.29,9l.46-.13-.21-.24L92,8.47l-.21-.25.46-.13L89.34,4.55,87.52,2.34,86.31.87l-1.85.47-3.26.84-.52-.5A6,6,0,0,0,76.6,0Z" fill="#a8662f"/>
      </g>
    </g>
  </g>
</svg>
