<svg xmlns="http://www.w3.org/2000/svg" width="118.38" height="127.83" viewBox="0 0 118.38 127.83">
  <g id="Layer_2" data-name="Layer 2">
    <g id="Layer_1-2" data-name="Layer 1">
      <g id="to_scooter">
        <path d="M106.31,7.26H114a2.89,2.89,0,0,0,2.88-2.88h0A2.89,2.89,0,0,0,114,1.5h-7.69a2.89,2.89,0,0,0-2.88,2.88h0A2.89,2.89,0,0,0,106.31,7.26Z" fill="#ac538c" stroke="#84205c" stroke-miterlimit="10" stroke-width="3"/>
        <g>
          <g>
            <g>
              <path d="M99.15,124.08c5.6,0,10.35-4.8,11.06-11.17.76-6.79-3.45-12.85-9.38-13.52-.35,0-.71,0-1.06,0-5.6,0-10.36,4.8-11.07,11.17-.76,6.79,3.45,12.85,9.38,13.51A9.59,9.59,0,0,0,99.15,124.08Z" fill="#575757"/>
              <path d="M99.77,101.58a7.49,7.49,0,0,1,.81,0c4.71.52,8,5.46,7.4,11-.59,5.24-4.45,9.17-8.83,9.17a7.63,7.63,0,0,1-.82,0c-4.7-.53-8-5.46-7.4-11,.59-5.24,4.45-9.18,8.84-9.18m0-4.49c-6.74,0-12.46,5.66-13.3,13.17-.89,8,4.21,15.2,11.38,16a11.38,11.38,0,0,0,1.31.07c6.74,0,12.46-5.66,13.3-13.17.89-8-4.21-15.2-11.37-16a11.62,11.62,0,0,0-1.31-.07h0v0Z" fill="#a7bfee"/>
            </g>
            <g>
              <path d="M17.47,123.65c5.79,0,10.71-5,11.45-11.58.78-7-3.57-13.31-9.71-14a10,10,0,0,0-1.1-.06C12.32,98,7.4,103,6.66,109.6a13.81,13.81,0,0,0,2.15,9.23,10.47,10.47,0,0,0,7.56,4.76A10,10,0,0,0,17.47,123.65Z" fill="#575757"/>
              <path d="M18.11,100.27a6.06,6.06,0,0,1,.85,0c4.91.54,8.37,5.7,7.72,11.51-.61,5.47-4.64,9.57-9.21,9.57a6.06,6.06,0,0,1-.85-.05c-4.91-.54-8.37-5.7-7.72-11.51.61-5.47,4.64-9.57,9.21-9.57m0-4.5c-6.94,0-12.82,5.84-13.68,13.58a16.07,16.07,0,0,0,2.51,10.73,12.81,12.81,0,0,0,9.18,5.74,12.22,12.22,0,0,0,1.35.08c6.94,0,12.82-5.84,13.69-13.58.92-8.26-4.33-15.65-11.7-16.47a12.22,12.22,0,0,0-1.35-.08h0v0Z" fill="#a7bfee"/>
            </g>
          </g>
          <path d="M99.76,97.09v2.25h0V97.09h0a11.62,11.62,0,0,1,1.31.07c7.16.8,12.26,8,11.37,16-.84,7.51-6.56,13.17-13.3,13.17a11.38,11.38,0,0,1-1.31-.07c-7.17-.8-12.27-8-11.38-16C87.3,102.75,93,97.09,99.76,97.09Z" fill="none" stroke="#5576b4" stroke-miterlimit="10" stroke-width="3"/>
          <path d="M4.43,109.35c.86-7.74,6.74-13.58,13.68-13.58V98h0V95.77h0a12.22,12.22,0,0,1,1.35.08c7.37.82,12.62,8.21,11.7,16.47-.87,7.74-6.75,13.58-13.69,13.58a12.22,12.22,0,0,1-1.35-.08,12.81,12.81,0,0,1-9.18-5.74A16.07,16.07,0,0,1,4.43,109.35Z" fill="none" stroke="#5576b4" stroke-miterlimit="10" stroke-width="3"/>
        </g>
        <g>
          <path d="M17.79,91.79a16.28,16.28,0,0,1,15.41,11H79.68L95.34,64.73a2.64,2.64,0,1,1,4.88,2l-16.33,39.7a2.63,2.63,0,0,1-2.44,1.64H1.5A16.29,16.29,0,0,1,17.79,91.79Z" fill="#e8a4d2" stroke="#84205c" stroke-miterlimit="10" stroke-width="3"/>
          <path d="M75.79,2.1H108a1.55,1.55,0,0,1,1.55,1.55V5.44A1.54,1.54,0,0,1,108,7h-7v85.5a3.12,3.12,0,0,1-6.23,0V7h-19a1.55,1.55,0,0,1-1.55-1.55V3.65A1.56,1.56,0,0,1,75.79,2.1Z" fill="#fff" stroke="#a4bceb" stroke-miterlimit="10" stroke-width="3"/>
          <path d="M98.46,101h0a5.3,5.3,0,0,0,5.29-5.29V59.22a5.3,5.3,0,0,0-5.29-5.29h0a5.3,5.3,0,0,0-5.29,5.29V95.74A5.3,5.3,0,0,0,98.46,101Z" fill="#e8a4d2" stroke="#84205c" stroke-miterlimit="10" stroke-width="3"/>
          <path d="M89.93,99.34a2.58,2.58,0,0,1,2.57-2.58h13.91a2.58,2.58,0,1,1,0,5.15h-12v7a2.24,2.24,0,0,1-4.48,0V99.83a1,1,0,0,1,0-.17A1.73,1.73,0,0,1,89.93,99.34Z" fill="#e8a4d2" stroke="#84205c" stroke-miterlimit="10" stroke-width="3"/>
        </g>
        <path d="M100.46,30.7h0a2.41,2.41,0,0,0,2.4-2.4v-13a2.41,2.41,0,0,0-2.4-2.4h0a2.41,2.41,0,0,0-2.41,2.4v13A2.41,2.41,0,0,0,100.46,30.7Z" fill="#ac538c" stroke="#84205c" stroke-miterlimit="10" stroke-width="3"/>
        <path d="M74,7.48h7.68A2.88,2.88,0,0,0,84.6,4.6h0a2.89,2.89,0,0,0-2.88-2.88H74A2.89,2.89,0,0,0,71.16,4.6h0A2.88,2.88,0,0,0,74,7.48Z" fill="#ac538c" stroke="#84205c" stroke-miterlimit="10" stroke-width="3"/>
        <path d="M99.62,71.14h0A4.14,4.14,0,0,0,103.75,67V51.13A4.14,4.14,0,0,0,99.62,47h0a4.14,4.14,0,0,0-4.13,4.13V67A4.14,4.14,0,0,0,99.62,71.14Z" fill="#ac538c" stroke="#84205c" stroke-miterlimit="10" stroke-width="3"/>
      </g>
    </g>
  </g>
</svg>
