<svg xmlns="http://www.w3.org/2000/svg" width="86.68" height="25.93" viewBox="0 0 86.68 25.93">
  <g id="Layer_2" data-name="Layer 2">
    <g id="Layer_1-2" data-name="Layer 1">
      <g id="to_stick_marimba" data-name="to_stick marimba">
        <g>
          <g>
            <path d="M7.28,24.43A5.78,5.78,0,0,1,6.15,13a5.45,5.45,0,0,1,1.14-.12A5.81,5.81,0,0,1,13,17.51a5.8,5.8,0,0,1-4.54,6.81A5.44,5.44,0,0,1,7.28,24.43Z" fill="#e8a4d2"/>
            <path d="M7.29,14.36a4.29,4.29,0,0,1,.84,8.49,4.14,4.14,0,0,1-.85.08,4.28,4.28,0,0,1-.84-8.48,4.17,4.17,0,0,1,.85-.09m0-3h0a7,7,0,0,0-1.44.15A7.28,7.28,0,0,0,7.28,25.93a7,7,0,0,0,1.44-.14A7.29,7.29,0,0,0,7.29,11.36Z" fill="#84205c"/>
          </g>
          <g>
            <path d="M13.65,20.3a1.46,1.46,0,0,1-.82-.31l-1.07-.83a1.71,1.71,0,0,1-.38-.38,1.4,1.4,0,0,1-.23-.55,1.51,1.51,0,0,1,0-.7,1.35,1.35,0,0,1,.2-.44L12,15.93a1.57,1.57,0,0,1,.64-.61c.6-.3,4.56-1.61,13.85-4.39,12.42-3.72,43-9.18,44.28-9.41l.26,0a1.5,1.5,0,0,1,1.47,1.21L73.8,9.16a1.49,1.49,0,0,1-1.15,1.76C71.36,11.2,41,17.65,28.12,19c-11.36,1.2-13.83,1.29-14.31,1.29Z" fill="#ce894a"/>
            <path d="M71,3l.64,3.22h0l.65,3.23S40.92,16.15,28,17.52c-11.55,1.22-13.8,1.29-14.16,1.29h-.06l-1.13-.88h0l.7-1.26s1.13-.56,13.61-4.3S71,3,71,3m0-3a3.27,3.27,0,0,0-.53.05c-1.3.23-31.94,5.69-44.44,9.44C17.86,12,12.86,13.54,12,14a3,3,0,0,0-1.27,1.21l-.64,1.14a3.13,3.13,0,0,0-.38.9,3,3,0,0,0,1.2,3.15l1,.79a3.48,3.48,0,0,0,1.64.63h.26c.64,0,3.34-.13,14.47-1.3,13-1.37,43.39-7.85,44.68-8.12a3,3,0,0,0,2.31-3.53l-.64-3.23L74,2.41A3,3,0,0,0,71,0Z" fill="#a8662f"/>
          </g>
        </g>
        <g>
          <g>
            <path d="M18.15,14.47l-.58,0A5.78,5.78,0,0,1,18.14,2.9l.58,0a5.78,5.78,0,0,1-.57,11.54Z" fill="#e8a4d2"/>
            <path d="M18.14,4.4a3.1,3.1,0,0,1,.43,0A4.29,4.29,0,0,1,18.15,13l-.43,0a4.29,4.29,0,0,1,.42-8.55m0-3h0a7.28,7.28,0,0,0-.72,14.53c.24,0,.49,0,.73,0a7.29,7.29,0,0,0,.72-14.54c-.24,0-.49,0-.73,0Z" fill="#84205c"/>
          </g>
          <g>
            <path d="M82.9,20.45c-1.31-.11-32.22-2.83-44.94-5.31-9.52-1.85-13.59-2.77-14.21-3a1.44,1.44,0,0,1-.7-.54l-.77-1.1A1.59,1.59,0,0,1,22,10,1.55,1.55,0,0,1,22,9.53a1.42,1.42,0,0,1,.2-.72,1.47,1.47,0,0,1,.35-.43l1-.91a1.53,1.53,0,0,1,.79-.4c.23,0,1.55-.16,8.88-.16l5.65,0c13,.09,43.78,3.83,45.09,4a1.51,1.51,0,0,1,1.31,1.64l-.66,6.55A1.5,1.5,0,0,1,83,20.46Z" fill="#ce894a"/>
            <path d="M33.13,8.41l5.64,0c13,.09,44.91,4,44.91,4l-.32,3.27h0L83,19s-32-2.8-44.78-5.29-14-2.94-14-2.94l-.82-1.18h0l1-1s.86-.14,8.63-.14m0-3c-3.66,0-8.21,0-9.13.19a2.93,2.93,0,0,0-1.57.78l-.95.9a3,3,0,0,0-1,1.94,3,3,0,0,0,.14,1.29,2.83,2.83,0,0,0,.48.89l.73,1a3,3,0,0,0,1.39,1.08c.92.35,6.05,1.45,14.46,3.08,12.8,2.49,43.79,5.22,45.1,5.34H83a3,3,0,0,0,3-2.7L86.34,16l.33-3.27a3,3,0,0,0-2.62-3.28c-1.31-.16-32.21-3.91-45.26-4l-5.66,0Z" fill="#a8662f"/>
          </g>
        </g>
      </g>
    </g>
  </g>
</svg>
