<svg xmlns="http://www.w3.org/2000/svg" viewBox="0 0 153.5 28.8"><g style="isolation:isolate"><g id="Layer_2" data-name="Layer 2"><g id="Layer_1-2" data-name="Layer 1"><rect x="1.5" y="1.5" width="150.5" height="25.79" rx="1.5" style="fill:#fffaf3"/><path d="M150.5,3V25.8H3V3H150.5m0-3H3A2.9,2.9,0,0,0,0,3V25.8a3,3,0,0,0,3,3H150.5a3.1,3.1,0,0,0,3-3V3a3,3,0,0,0-3-3Z" style="fill:#cecece"/><g style="opacity:0.30000000000000004;mix-blend-mode:multiply"><path d="M150.5,3V25.8H3v-1c17.4.7,38.9-.2,61.9-2.8,36.2-4.1,67.7-11.3,85.4-19Z" style="fill:#cecece"/></g></g></g></g></svg>