<svg xmlns="http://www.w3.org/2000/svg" viewBox="0 0 143.2 82.4"><g style="isolation:isolate"><g id="Layer_2" data-name="Layer 2"><g id="Layer_1-2" data-name="Layer 1"><path d="M39.5,80.9A1.5,1.5,0,0,1,38,79.8a1.4,1.4,0,0,1,.6-1.6L44.8,74a16.8,16.8,0,0,1,8.8-2.4H89.5A16.9,16.9,0,0,1,98.4,74l6.1,4.2a1.3,1.3,0,0,1,.6,1.6,1.5,1.5,0,0,1-1.4,1.1Z" style="fill:#ce894a"/><path d="M89.5,73.1a14.7,14.7,0,0,1,8,2.2l6.2,4.1H39.5l6.1-4.1a14.7,14.7,0,0,1,8-2.2H89.5m0-3H53.6a17.5,17.5,0,0,0-9.7,2.7l-6.1,4.1a3,3,0,0,0-1.2,3.4,3,3,0,0,0,2.9,2.1h64.2a2.9,2.9,0,0,0,2.8-2.1,3,3,0,0,0-1.2-3.4l-6.1-4.1a17.2,17.2,0,0,0-9.7-2.7Z" style="fill:#75411a"/><path d="M71.6,77.4c-3.5,0-6.1-1.8-6.1-4.1h0l.9-11.9a9.2,9.2,0,0,1-4.2-7.7,8.3,8.3,0,0,1,1.2-4.4,3.1,3.1,0,0,0-.1-2.5L57.1,35.3a1.4,1.4,0,0,1,0-1.5,1.7,1.7,0,0,1,1.3-.7H84.7a1.4,1.4,0,0,1,1.3.7,1.6,1.6,0,0,1,.1,1.5L79.8,46.7a2.8,2.8,0,0,0,0,2.5,9.7,9.7,0,0,1,.9,6.3,8.9,8.9,0,0,1-4,5.8l1,11.9h0a3.2,3.2,0,0,1-1,2.3l-1.2.9a8.5,8.5,0,0,1-2.4.8Z" style="fill:#994807"/><path d="M84.7,34.6,78.5,46a4.1,4.1,0,0,0,0,3.9,8,8,0,0,1,.7,5.3,7.7,7.7,0,0,1-4,5.3l1,12.8a1.4,1.4,0,0,1-.6,1.2,2.7,2.7,0,0,1-.8.7,8.5,8.5,0,0,1-1.9.6H71.6c-2.6,0-4.6-1.2-4.6-2.6l.8-11.4.2-1.4a7.9,7.9,0,0,1-4.3-6.9,7.6,7.6,0,0,1,1-3.7,4.1,4.1,0,0,0-.1-3.9L58.4,34.6H84.7m0-3H58.4A3,3,0,0,0,55.8,33a3.2,3.2,0,0,0,0,3L62,47.4a.9.9,0,0,1,0,1,11.8,11.8,0,0,0-1.3,5.2A10.9,10.9,0,0,0,64.8,62L64,73.1v.2c0,3.2,3.2,5.6,7.6,5.6l1.8-.2a6.6,6.6,0,0,0,2.8-.9,4.8,4.8,0,0,0,1.6-1.2,4.7,4.7,0,0,0,1.4-3.3v-.2L78.3,62a10.6,10.6,0,0,0,3.9-6.2,10.9,10.9,0,0,0-1.1-7.3,1.4,1.4,0,0,1,.1-1.1L87.4,36a2.9,2.9,0,0,0-.1-3,2.9,2.9,0,0,0-2.6-1.4Zm0,6Z" style="fill:#75411a"/><path d="M67.8,61.9l.5-5.8.2-2.9.6-7.7H74l.6,8.1.8,9.9.8,9.8c0,1.2-1.4,2.2-3.3,2.5H71.6c-2.6,0-4.6-1.2-4.6-2.6Z" style="fill:#ce894a"/><path d="M73.2,63.3a15.9,15.9,0,0,1-5.4-1.4l.5-5.8.8-10.6H74l.6,8.1h0l.4,4.9,1.2,14.8c0,1.2-1.4,2.2-3.3,2.5C73.1,72.5,73.3,66.5,73.2,63.3Z" style="fill:#572904;opacity:0.4;mix-blend-mode:multiply"/><path d="M58.4,34.6H84.7L78.5,46a4.1,4.1,0,0,0,0,3.9,8,8,0,0,1,.7,5.3,7.7,7.7,0,0,1-6.1,6,7.8,7.8,0,0,1-9.4-7.6,7.6,7.6,0,0,1,1-3.7,4.1,4.1,0,0,0-.1-3.9Z" style="fill:#ce894a"/><path d="M61.3,44.7H58.6a93.4,93.4,0,0,1-22.1-3.4l-.8-.2a1.6,1.6,0,0,1-1.1-1.5v-.3H31.4c-2.1,0-4.1-.1-6.2-.3-6.8-.8-10.1-3.2-10.2-3.3a1.3,1.3,0,0,1-.6-1.2V32.8H12.5a14.9,14.9,0,0,1-3.6-.5H8.5a13.2,13.2,0,0,1-6.8-5.1,2,2,0,0,1-.2-.9l1-17.2V8.8A3.4,3.4,0,0,1,4,7.1c2.2-1.4,8.1-2.6,17.5-3.5l1.9-.2h.3C30,2.8,37.3,2.3,45.4,2s17.4-.5,26.5-.5h33.2l2.7.2h2.7l5,.4h4.3l4.1.4,2,.3,1.7.2,1.2.2h.4a30.8,30.8,0,0,1,3.9.7h.2l1.1.2h1.4l.7.2h.4l.6.2h1.3l.4.2.4.2.4.3h.2l.3.2.3.4.2.2h-.1l.2.4c.2.2.2.5.3.8.7,7.5,0,11.6-.1,11.8a1.1,1.1,0,0,1-.5.9l-.3.2-.7.6h-.2l-1.2.8-.7.4-.4.2a13,13,0,0,1-3.7,1.6l-2.1.5c.2,3.8-.1,4.4-.2,4.6l-.4.6-.6.5h-.2l-.5.4c-1,.6-5.9,3.8-11.5,4.2l-1.6.2h-3.8L111,39a.3.3,0,0,0-.1.2h-.2l-.4.4-.4.3c0,.1,0,.1-.1.1h0l-.4.4h-.2l-.5.3-.4.2-.7.4a46.1,46.1,0,0,1-11.4,2.6,74.3,74.3,0,0,1-7.8.5H82.9l-1.3-.3-.3-.2-.7-.4-1.8.2-1,.2A155.9,155.9,0,0,1,61.3,44.7Z" style="fill:#ffeb81"/><path d="M71.9,3h49.9l1.2.2h.8l1.1.2H129l3.8.6h.2l.7.2h.5l.8.2h.4l.7.2h.3a.1.1,0,0,1,.1.1h.9l.5.2a.1.1,0,0,1,.1.1h.2l.4.2h.2l.3.2.2.2h.2l.2.2h.1c0,.1.1.2.1.3a47.4,47.4,0,0,1,0,11.4h-.2l-.8.6h-.2l-1.1.8-.7.3-.3.2a13.6,13.6,0,0,1-3.3,1.4l-.9.2-1.6.4h-.6a.1.1,0,0,1-.1.1h-.2s.3,4.6,0,5.2h-.1l-.4.4h-.2l-.4.3a.1.1,0,0,0-.1.1h0A24.5,24.5,0,0,1,118,35.2l-1.6.2H112l-2.3,2.4a.3.3,0,0,1-.1.2h0c-.1,0-.1,0-.1.1l-.2.2-.3.3h-.1l-.4.3c0,.1,0,.1-.1.1l-.4.3h-.3l-.8.4c-1.9.9-5.3,1.9-10.9,2.5a76,76,0,0,1-7.6.5H83.2l-1-.3H82c-.6-.3-.6-.6-.1-.9H80.8l-1.4.2h-.8l-1,.2a130.6,130.6,0,0,1-16.3,1H58.6a95.7,95.7,0,0,1-21.7-3.3l-.5-.2c-.1,0-.2,0-.2-.1h-.1V37.7H31.3l-5.9-.3c-6.5-.7-9.5-3-9.5-3V31l-.7.2H12.5a13.3,13.3,0,0,1-3.2-.4H8.9A12,12,0,0,1,3,26.5L4,9.3H4a1.3,1.3,0,0,1,.8-.8c2-1.3,8.1-2.4,16.8-3.3l2.3-.2C30,4.3,37.3,3.8,45.5,3.5S62.5,3,71.9,3m0-3C62.7,0,53.8.2,45.4.5s-15.5.8-21.8,1.4h-.3l-1.9.2C6.9,3.6,4.1,5.2,3.2,5.8A3.9,3.9,0,0,0,1.1,8.5a2,2,0,0,0-.1.7L0,26.4a2.6,2.6,0,0,0,.5,1.7A14.5,14.5,0,0,0,8,33.9h.6a17.4,17.4,0,0,0,3.9.5h.4A3,3,0,0,0,14.1,37c.4.2,3.9,2.7,11,3.5l6.2.3h2a2.5,2.5,0,0,0,2,1.7h.8a89.9,89.9,0,0,0,22.4,3.5h2.8A133.3,133.3,0,0,0,78,45.1h2.2l.4.3h.5l1.4.4h5.9a78,78,0,0,0,8-.5c5-.6,9-1.5,11.8-2.8l.8-.4.5-.2.6-.4.2-.2.4-.2h.2l.5-.5.3-.3c.1-.1.1-.1.1-.2h.2a.3.3,0,0,1,.1-.2h.1l1.2-1.3h4.8c6-.5,11.2-3.8,12.2-4.4h.1l.3-.2h.2l.3-.3.7-.6.6-.9c.2-.5.5-1,.4-4.2h1a15.9,15.9,0,0,0,4-1.6c.1,0,.1,0,.1-.1h.1l.2-.2.5-.2.2-.2h.1l1.2-.8h.3l.7-.6.3-.2a2.5,2.5,0,0,0,1.1-1.8,51.6,51.6,0,0,0,.1-12.2,4.4,4.4,0,0,0-.5-1.5l-.2-.4L142,7l-.5-.6h-.1l-.3-.3-.3-.2-.5-.3h-.1l-.2-.2h-.2l-.4-.2H137l-.9-.2h-.4l-.8-.2h-1.5l-3.9-.7H129l-1.2-.2H119l-1.8-.2H71.9Z" style="fill:#ffaa5a"/><g style="opacity:0.30000000000000004"><path d="M81.9,39.7C80,40.8,85.7,42.1,96,40.9c12.7-1.5,13.8-4.6,13.8-4.6L112,34l6-.5c5.9-.6,11.6-4.4,11.9-5a2,2,0,0,0,.1-.9,6.9,6.9,0,0,1-.1,2.7c-.3.6-6,4.4-11.9,4.9l-6,.6-2.2,2.3s-1.1,3.1-13.8,4.6c-10.3,1.2-16-.1-14.1-1.2a125.7,125.7,0,0,1-23.3,1.7,85.3,85.3,0,0,1-22.5-3.6V37.8a85.3,85.3,0,0,0,22.5,3.6A125.7,125.7,0,0,0,81.9,39.7Z" style="fill:#ffd49c"/><path d="M129.9,23.3l3.4-.8a19.9,19.9,0,0,0,6.6-3.5s.2-1.5.3-4.4a48.1,48.1,0,0,1-.3,6.1,19.4,19.4,0,0,1-6.6,3.6l-3.3.8A16.2,16.2,0,0,0,129.9,23.3Z" style="fill:#ffd49c"/><path d="M9.3,29.3a12.5,12.5,0,0,0,6.6-.1V31a12.5,12.5,0,0,1-6.6.1A11.2,11.2,0,0,1,3,26.5V24.9C3.6,25.5,5.8,28.5,9.3,29.3Z" style="fill:#ffd49c"/><path d="M36.1,35.9v1.8a52.4,52.4,0,0,1-10.7-.2c-6.5-.7-9.5-3-9.5-3V32.7s3,2.3,9.5,3A52.4,52.4,0,0,0,36.1,35.9Z" style="fill:#ffd49c"/></g><g style="opacity:0.2;mix-blend-mode:multiply"><path d="M84,25.7c.5.4,1.2,7.9,1.6,17.4-3.4-.3-4.8-1-3.7-1.6l-4.3.7C81.6,34,83.4,25.2,84,25.7Z" style="fill:#a84f08"/><path d="M133.7,6.7c.4,1.7.8,3.4,1.1,5a106,106,0,0,1,1.8,11.2l.3-.2.7-.3,1.1-.8h.2l.8-.6h.2a47.4,47.4,0,0,0,0-11.4c0-.1-.1-.2-.1-.3h-.1l-.2-.2h-.2l-.2-.2-.3-.2h-.2l-.4-.2H138a.1.1,0,0,0-.1-.1l-.5-.2h-.9a.1.1,0,0,0-.1-.1h-.3l-.7-.2H135l-.8-.2h-.5Z" style="fill:#a84f08"/><path d="M129.9,30.3l-1.2,1C129,24,127.2,14,127.2,14l3.3,6a38.1,38.1,0,0,1,1.9,4.5l-2.5.6S130.2,29.7,129.9,30.3Z" style="fill:#a84f08"/><path d="M9.3,31.1H8.9a95.6,95.6,0,0,0,6.7-14.8,92.2,92.2,0,0,1-.4,15A14.4,14.4,0,0,1,9.3,31.1Z" style="fill:#a84f08"/><path d="M36.1,37.7a37,37,0,0,1-4.8.1,92,92,0,0,0,4.5-19.5s.8,11.1,1.1,21.6l-.8-.3Z" style="fill:#a84f08"/><path d="M115.4,31.7c.4,1.3.7,2.5,1,3.7l-4.4.4-2.2,2.3s-.4,1-2.9,2.1c4.1-10.4,3.7-21.9,3.7-21.9S113.2,22.1,115.4,31.7Z" style="fill:#a84f08"/></g><path d="M71.9,17.1h-34L33.6,16l-6.8-.5H24.7l-2.2-.2h-.4l-2.2-.2-1.6-.2H18l-1.4-.2H14.7V12.7l-.2,1.5h-.2L13.1,14h-.7l-.9-.2h-.1a25.9,25.9,0,0,1-6-1.5H5.3l-.8-.3-.3-.2-.4-.3-.3-.2L3.3,11c-.2-.2-.4-.3-.5-.6s-.1-.1-.1-.2a2.2,2.2,0,0,1-.2-.9V8.8A3.4,3.4,0,0,1,4,7.1c2.2-1.4,8.1-2.6,17.5-3.5l2.2-.2C30,2.8,37.3,2.3,45.4,2s17.4-.5,26.5-.5h33.2l2.7.2h2.7l5,.4h4.3l4.1.4,2,.3,1.7.2,1.2.2h.4a30.8,30.8,0,0,1,3.9.7h.2l1.1.2h1.4l.7.2h.4l.6.2h1.3l.4.2.4.2.4.3h.2l.3.2.3.4.2.2h-.1l.2.4a1.4,1.4,0,0,1,.3.9c0,1.8-1.8,2.9-6.3,3.9C124.5,15.6,99.7,17.1,71.9,17.1Z" style="fill:#fff1b6"/><path d="M71.9,3h49.9l1.2.2h.8l1.1.2H129l3.8.6h.2l.7.2h.5l.8.2h.4l.7.2h.3a.1.1,0,0,1,.1.1h.9l.5.2a.1.1,0,0,1,.1.1h.2l.4.2h.2l.3.2.2.2h.2l.2.2h.1c0,.1.1.2.1.3s-1.8,1.7-5.1,2.4c-10.2,2.3-34.5,3.9-62.9,3.9H33.7l-6.8-.5H20.1l-1.5-.2h-.4L16.7,13h-.4L15,12.8h-.3l-1.4-.2h-.2l-1.3-.2c-.1,0-.1,0-.1-.1a32.9,32.9,0,0,1-5.8-1.4h0l-.7-.3H5c-.1-.1-.3-.1-.3-.2L4.4,10H4.3c-.1-.1-.2-.1-.2-.2h0A.4.4,0,0,1,4,9.3H4a1.3,1.3,0,0,1,.8-.8c2-1.3,8.1-2.4,16.8-3.3l2.3-.2C30,4.3,37.3,3.8,45.5,3.5S62.5,3,71.9,3m0-3C62.7,0,53.8.2,45.4.5s-15.5.8-21.8,1.4h-.3l-1.9.2C6.9,3.6,4.1,5.2,3.2,5.8A3.9,3.9,0,0,0,1.1,8.5a2.5,2.5,0,0,0-.1.8,4,4,0,0,0,.3,1.5V11h.1a2.9,2.9,0,0,0,.7,1l.3.3.5.3.5.3.4.2.8.4h.2a33.9,33.9,0,0,0,6.2,1.6h.1l1,.2h.7l1.3.2h2.2l1.4.2h.5l1.5.2h6.9l6.8.5c.1,0,.1,0,.1.1H71.9c27.9,0,52.9-1.5,63.6-4,2.5-.5,7.4-1.6,7.4-5.3a3.4,3.4,0,0,0-.5-1.7l-.2-.4L142,7l-.5-.6h-.1l-.3-.3-.3-.2-.5-.3h-.1l-.2-.2h-.2l-.4-.2H137l-.9-.2h-.4l-.8-.2h-1.5l-3.9-.7H129l-1.2-.2H119l-1.8-.2H71.9Z" style="fill:#ffaa5a"/></g></g></g></svg>