<svg xmlns="http://www.w3.org/2000/svg" viewBox="0 0 41.5 76.4"><g style="isolation:isolate"><g id="Layer_2" data-name="Layer 2"><g id="Layer_1-2" data-name="Layer 1"><path d="M27.3,35.7h-.7L23,33.2a1.5,1.5,0,0,1-.6-.9C22.1,29.9,19.3,8.6,24.7,3a4.6,4.6,0,0,1,3.4-1.5h.6a5,5,0,0,1,3.9,2.5c4.4,7.1-3.2,28.3-4.1,30.7a1.1,1.1,0,0,1-.8.8Z" style="fill:#4a8c32"/><path d="M28.1,2.5h.5a3.7,3.7,0,0,1,3.1,2c4.3,6.9-3.8,28.9-4.1,29.8s-.1.2-.2.2h-.1a.1.1,0,0,1-.1-.1h-.1l-3.6-2.2c0-.1-.1-.2-.1-.3S20.2,9,25.4,3.7a3.7,3.7,0,0,1,2.7-1.2m0-2h0A5.4,5.4,0,0,0,24,2.3c-5.7,5.8-3.2,26.1-2.6,30.1a2.5,2.5,0,0,0,1.1,1.7L26,36.3l.4.2.9.2.7-.2a2.3,2.3,0,0,0,1.5-1.4c1.4-3.9,8.5-24.2,3.9-31.6A5.8,5.8,0,0,0,28.8.6Z" style="fill:#2e5b1d"/><path d="M25.5,21.3V19.4c.1-1.4.2-2.9.4-4.5a43.8,43.8,0,0,1,.8-4.4c.2-.7.3-1.3.5-1.9A14.2,14.2,0,0,0,27.7,7a11.1,11.1,0,0,1,1.4-3.1c.1,0-.4,1.3-.9,3.2s-.3,1.1-.5,1.7-.3,1.2-.4,1.8-.6,2.8-.8,4.4-.3,3-.4,4.4v1.9a9.6,9.6,0,0,0,0,1.7,30.3,30.3,0,0,1,0,3.4,28.9,28.9,0,0,1-.5-3.4C25.6,22.5,25.5,22,25.5,21.3Z" style="fill:#3b2910;opacity:0.2;mix-blend-mode:multiply"/><path d="M15.7,39.4h-.4l-.6-.4a1.4,1.4,0,0,1-.2-1.1,11.7,11.7,0,0,0-1.5-8,18.1,18.1,0,0,0-6-6l-.6-.4a15.1,15.1,0,0,1-2.8-2.2,5.5,5.5,0,0,1-1.7-4.8,8.6,8.6,0,0,1,1.4-2.7,4.4,4.4,0,0,0,1-1.7c.2-.9-.3-1.8-.9-3s-1.5-3.1-1-4.9A4.9,4.9,0,0,1,7,1h.7a8.3,8.3,0,0,1,4.8,2.9c3.6,3.7,6.2,9.1,8.1,16.3a48.7,48.7,0,0,1,1.5,18.1,1.4,1.4,0,0,1-1.3,1.1Z" style="fill:#6c9433"/><path d="M7,2h.6a7.9,7.9,0,0,1,4.2,2.5c3.4,3.7,6,8.9,7.9,16a48.7,48.7,0,0,1,1.4,17.7l-.3.2H15.6a.1.1,0,0,0-.1-.1.4.4,0,0,1-.1-.3,11.9,11.9,0,0,0-1.5-8.7,20.1,20.1,0,0,0-6.3-6.4l-.7-.4a16.4,16.4,0,0,1-2.6-2,4.5,4.5,0,0,1-1.4-3.9,5.3,5.3,0,0,1,1.3-2.3,7.1,7.1,0,0,0,1.1-2.1,6.2,6.2,0,0,0-1-3.6c-.7-1.4-1.4-2.8-.9-4.2A3.7,3.7,0,0,1,7,2M7,0A5.8,5.8,0,0,0,1.5,3.8c-.7,2.2.2,4.1,1,5.7a4.5,4.5,0,0,1,.8,2.3c0,.3-.4.8-.8,1.3A10,10,0,0,0,1,16.2a6.1,6.1,0,0,0,1.8,5.7,18.5,18.5,0,0,0,3,2.3l.7.4a19.3,19.3,0,0,1,5.7,5.7,10.8,10.8,0,0,1,1.3,7.3,2.2,2.2,0,0,0,.4,1.9,2.3,2.3,0,0,0,1,.7l.8.2h5a2.4,2.4,0,0,0,2.4-2A48.3,48.3,0,0,0,21.6,20c-2-7.4-4.7-12.9-8.3-16.8A8.9,8.9,0,0,0,7.9.1Z" style="fill:#507125"/><path d="M8.4,22.2a10.5,10.5,0,0,1,2.5-.8,7.9,7.9,0,0,1,2.6-.1h.6a.1.1,0,0,1-.1-.1,33,33,0,0,0-2.9-4.1,15.6,15.6,0,0,0-2.8-2.9c-1.8-1.5-3.2-2-3.1-2.1h.2l.7.3a9.3,9.3,0,0,1,2.5,1.4,26.5,26.5,0,0,1,3,2.9,18.3,18.3,0,0,0,1.3,1.6,42,42,0,0,1,0-5.1c.2-3.2.4-5.8.6-5.8s.2,2.6.1,5.8-.3,4.6-.5,5.5l1.5,2.2a35.3,35.3,0,0,1,3.5,8.6l.5,2.7v1.1c-.1,0-.3-1.5-1-3.7a39.5,39.5,0,0,0-3.3-7.9L11,22c-2,.4-3.5,1-3.6.8S7.7,22.5,8.4,22.2Z" style="fill:#3b2910;opacity:0.2;mix-blend-mode:multiply"/><path d="M21.1,71.2a5.9,5.9,0,0,1-4.2-2c-5.4-5.9-7-24.9-6.5-29.1.6-6.7,7.5-8.2,10.1-8.2s9.6,1.6,10.4,7.8C31.5,44,30.6,63,25.4,69a4.7,4.7,0,0,1-1.7,1.5,4.5,4.5,0,0,1-2.5.7Z" style="fill:#ff8d3d"/><path d="M20.5,32.9c.5,0,8.5.1,9.5,7,.5,4-.4,22.8-5.4,28.5a5.7,5.7,0,0,1-1.4,1.3,4.9,4.9,0,0,1-2,.5h-.1a4.7,4.7,0,0,1-3.4-1.7c-5.2-5.6-6.7-24.3-6.3-28.3.6-7.1,9-7.3,9.1-7.3h0m0-2h0c-2.9,0-10.4,1.7-11.1,9.1-.4,3.9.9,23.5,6.8,29.9a6.7,6.7,0,0,0,4.9,2.3h.1a6.4,6.4,0,0,0,3-.8,7.9,7.9,0,0,0,2-1.7c5.6-6.6,6.2-26.2,5.7-30.1-.9-6.9-7.6-8.7-11.4-8.7Z" style="fill:#e57225"/><g style="opacity:0.5"><path d="M24.5,40.5c2.7-.4,4.8-1.3,4.7-1.6s-2.2.3-4.8.7-4.8.5-4.8.8S21.8,40.9,24.5,40.5Z" style="fill:#fff6eb"/></g><g style="opacity:0.5"><path d="M17.3,46.6a15.7,15.7,0,0,0,3.9-1c.9-.3,1.5-.7,1.4-.8s-2.4.4-5.4.8-5.4.5-5.5.8a4.7,4.7,0,0,0,1.7.3A17.6,17.6,0,0,0,17.3,46.6Z" style="fill:#fff6eb"/></g><g style="opacity:0.5"><path d="M25.1,52.4c2.5-.6,4.2-1.5,4.1-1.8s-1.9.3-4.3.8-4.2.8-4.2,1.1S22.7,52.9,25.1,52.4Z" style="fill:#fff6eb"/></g><path d="M40,74.9c-3.4-6.6-6.2-11.1-19.2-11.2S4.9,68.3,1.5,74.9" style="fill:#ddab88;stroke:#75411a;stroke-linecap:round;stroke-linejoin:round;stroke-width:3px"/></g></g></g></svg>