<svg xmlns="http://www.w3.org/2000/svg" viewBox="0 0 241 89"><g id="Layer_2" data-name="Layer 2"><g id="Layer_1-2" data-name="Layer 1"><path d="M238,87.5h-.2l-19.2-2.5c-30-3.5-61.9-5.6-100.4-6.4-5.9-.2-12.4-.2-19.7-.2H55.4c-14.5,0-33.6-.2-52.5-2a1.4,1.4,0,0,1-1.4-1.4,1.4,1.4,0,0,1,1.3-1.5l1.4-.2a8.5,8.5,0,0,1,3.2-7.3,8.3,8.3,0,0,1,4.8-1.5h1.7a4.9,4.9,0,0,1,.1-1.2,6.3,6.3,0,0,1,2.7-3.7,5.4,5.4,0,0,1,2.9-.7,7,7,0,0,1,2.5.5v-.9c.1-2.9.1-5.9,1-8.2a9.9,9.9,0,0,1,4.7-5.1,15.6,15.6,0,0,0,2.8-2.3,8.4,8.4,0,0,0,1.3-2.7c.7-1.7,1.4-3.7,3.8-5a6.5,6.5,0,0,1,7.7,1.1,7.1,7.1,0,0,1,4.8-1.8,7.5,7.5,0,0,1,2.6.5,9,9,0,0,1,5.1,8,13,13,0,0,1-1.8,6.9,7.1,7.1,0,0,1,2.6,2.3c0-.5-.1-.9-.1-1.4a10.8,10.8,0,0,1,2.7-7.3,5,5,0,0,1,2.9-1.6c-.7-6.1.6-11.6,3.5-15.7a15.4,15.4,0,0,1,11.8-6.1,13.4,13.4,0,0,1,3.5.5A27.7,27.7,0,0,1,89.2,7.9a19.6,19.6,0,0,1,12.8-5,22,22,0,0,1,3.6.4l2.6.7a12.7,12.7,0,0,0,4.2.9h0a16.4,16.4,0,0,0,5.1-1.2l1.5-.6a32.6,32.6,0,0,1,9.9-1.6,31.2,31.2,0,0,1,17.4,5.2,32,32,0,0,1,13.6,21.8,9.2,9.2,0,0,1,2.9-.4c4.8,0,9.9,3.4,12.1,8,1.1,2.4,1,6.7,1,11.2s0,10.2,1.2,10.5,4-1.5,5.9-2.5a26.7,26.7,0,0,1,4.1-1.9,35.4,35.4,0,0,1,8.8-1.3,24.2,24.2,0,0,1,4.7.5,18.1,18.1,0,0,1,11.5,8.3,12.3,12.3,0,0,1,1.7,7.3,22.8,22.8,0,0,1,5.4-.8,14,14,0,0,1,5.1,1,10,10,0,0,1,5.5,5.9,7.3,7.3,0,0,1,.3,4.1,13.9,13.9,0,0,1,9.2,6.8,1.5,1.5,0,0,1,0,1.6A1.7,1.7,0,0,1,238,87.5Z" style="fill:#3b7e82"/><path d="M128.9,3a29.6,29.6,0,0,1,29.7,27.8,7.1,7.1,0,0,1,4.2-1.2c4.3,0,8.8,3.1,10.7,7.2s-.9,21.3,3.2,22.5h.4c2.4,0,8.3-3.9,10.4-4.4a29.5,29.5,0,0,1,8.4-1.3,21.2,21.2,0,0,1,4.4.5c7.4,1.5,14,9.1,11.6,16.2a22.5,22.5,0,0,1,7.3-1.4,11.3,11.3,0,0,1,4.5.9c3.8,1.5,6.4,6.2,4.4,9.8A12.6,12.6,0,0,1,238,86c-6.4-1-12.8-1.8-19.2-2.6-33.4-3.9-67-5.7-100.6-6.4-6.6-.2-13.1-.2-19.7-.2L55.4,77c-17.5,0-35-.4-52.4-1.9l3-.5a6.7,6.7,0,0,1,2.3-7.3,6.7,6.7,0,0,1,3.9-1.2A6.3,6.3,0,0,1,16,67.2a4.5,4.5,0,0,1,1.4-6.1,4.2,4.2,0,0,1,2.2-.5,4.5,4.5,0,0,1,3.9,2.1c.3-3.4-.2-8.6,1-11.7s4.9-4.2,7.2-6.9,1.5-5.7,4.7-7.4a4.8,4.8,0,0,1,2.4-.6c2,0,4.1,1.2,4.5,3.2a5.1,5.1,0,0,1,4.9-3.1,4.5,4.5,0,0,1,2,.4,7.5,7.5,0,0,1,4.2,6.7A12.5,12.5,0,0,1,51.7,51a5.6,5.6,0,0,1,4.5,3.5,14.9,14.9,0,0,1,.9,5.9c2.5-2.6,1.1-5.8,1-9.5s1.9-7.4,5-7.4H64c-1-5.6-.4-11.7,3-16.3a13.5,13.5,0,0,1,10.5-5.5,9.9,9.9,0,0,1,4.5,1c1.4-5.2,4-10.3,8.1-13.8A18.8,18.8,0,0,1,102,4.4a12.4,12.4,0,0,1,3.3.4c2.3.5,4.6,1.6,7.1,1.6h0c2.5,0,4.7-1,7-1.8A28.3,28.3,0,0,1,128.9,3m0-3a32.9,32.9,0,0,0-10.4,1.7l-1.6.6a13.4,13.4,0,0,1-4.5,1.1,14.4,14.4,0,0,1-3.8-.8l-2.7-.8a24.5,24.5,0,0,0-3.9-.4A22,22,0,0,0,88.2,6.7,29,29,0,0,0,80,19l-2.5-.2a16.8,16.8,0,0,0-13,6.7c-3,4.1-4.3,9.5-3.9,15.5a8.4,8.4,0,0,0-2.4,1.6l-.8,1v-.4a10.6,10.6,0,0,0-6-9.4,8.7,8.7,0,0,0-3.2-.6,8.9,8.9,0,0,0-4.7,1.3,8.4,8.4,0,0,0-4.7-1.4,7.6,7.6,0,0,0-3.9,1c-2.8,1.6-3.7,4-4.4,5.8a5.7,5.7,0,0,1-1.1,2.2,8.5,8.5,0,0,1-2.5,2A11.8,11.8,0,0,0,21.7,50c-.9,2.2-1,4.9-1.1,7.6h-1a6.6,6.6,0,0,0-3.7,1,7.3,7.3,0,0,0-3.3,4.5h-.4a9.7,9.7,0,0,0-5.7,1.8,9.8,9.8,0,0,0-3.8,7.2H2.6a3,3,0,0,0-2.6,3A2.9,2.9,0,0,0,2.7,78c19,1.8,38.2,2,52.7,2H98.5c7.3,0,13.7,0,19.6.2,38.5.8,70.4,2.9,100.3,6.4l19.2,2.5h.4a3.1,3.1,0,0,0,2.5-1.3,3.1,3.1,0,0,0,.1-3.2,15.7,15.7,0,0,0-8.8-7.2,10.7,10.7,0,0,0-.6-3.5,11.4,11.4,0,0,0-6.3-6.8,15.2,15.2,0,0,0-5.7-1.1,28.7,28.7,0,0,0-3.9.4,13.6,13.6,0,0,0-1.9-6.1,19.4,19.4,0,0,0-12.5-9.1,27.3,27.3,0,0,0-5-.5,34.3,34.3,0,0,0-9.2,1.4,21.3,21.3,0,0,0-4.4,2l-4.4,2.1c-.5-1.8-.5-6.1-.5-8.8,0-4.7.1-9.1-1.2-11.8-2.4-5.2-8-8.9-13.4-8.9h-1.7A33.2,33.2,0,0,0,147.2,5.5,32.8,32.8,0,0,0,128.9,0Z" style="fill:#28575c"/><path d="M218.8,83.4c-33.4-3.9-67-5.7-100.6-6.4-19.1-.5-38.2-.1-57.3,0-9.7,0-19.3,0-29-.3l-14.4-.6c-1.9,0-8,1.5-9.3-.1a1.8,1.8,0,0,1,0-1.6,7.1,7.1,0,0,1,8.6-3.7c-.7-1.7.7-3.7,2.4-4.2a8.1,8.1,0,0,1,5.3.7,1.6,1.6,0,0,0,1.5.1,1.6,1.6,0,0,0,.6-1.4c.2-1.3.3-2.6.4-3.9l2.1,1c-1.3-2.9-2.2-6.4-.8-9.3s5.9-4.2,7.8-1.6A6.6,6.6,0,0,1,39,46.4c1.9-1.2,4.8-.8,5.9,1.2.5-2.3,1.1-4.8,2.9-6.4s5.2-1.3,6.4.9-1.1,9.1-2.2,8.8c7.2,2.2,2.2,6.7,3.4,10.9s5.5,3.8,9.4,1.7,3-4.6,2.9-7.4-.6-5.9.9-8.2,5.9-2.7,6.5,0a14.7,14.7,0,0,1,21-18.3,14,14,0,0,1,21.7-10.1C119.1,4.4,134.4.5,145.5,8a29.9,29.9,0,0,1,13.1,22.8c5.1-3.3,12.3.5,14.9,6s-.9,21.3,3.2,22.5c2,.5,8.6-3.8,10.8-4.4a26.5,26.5,0,0,1,12.8-.8c7.4,1.5,14,9.1,11.6,16.2,3.8-1.2,8.1-2.1,11.8-.5s6.4,6.2,4.4,9.8A12.6,12.6,0,0,1,238,86C231.6,85,225.2,84.2,218.8,83.4Z" style="fill:#28575c"/></g></g></svg>