<svg xmlns="http://www.w3.org/2000/svg" viewBox="0 0 104.9 104.9"><g style="isolation:isolate"><g id="Layer_2" data-name="Layer 2"><g id="Layer_1-2" data-name="Layer 1"><rect x="1.5" y="1.5" width="101.9" height="101.91" style="fill:#af7553"/><rect x="14.8" y="14.8" width="75.2" height="75.25" style="fill:#ce894a"/><path d="M5.3,18a1.1,1.1,0,1,0-1.1-1.1A1.1,1.1,0,0,0,5.3,18Z" style="fill:#353535"/><path d="M10.9,15.8a1.1,1.1,0,1,0,0,2.2,1.1,1.1,0,1,0,0-2.2Z" style="fill:#353535"/><circle cx="6" cy="10.6" r="1.1" style="fill:#353535"/><circle cx="6" cy="5" r="1.1" style="fill:#353535"/><path d="M98.9,11.7a1.1,1.1,0,1,0-1.1-1.1A1.1,1.1,0,0,0,98.9,11.7Z" style="fill:#353535"/><path d="M98.9,6.1A1.1,1.1,0,1,0,97.8,5,1.1,1.1,0,0,0,98.9,6.1Z" style="fill:#353535"/><path d="M6,98.7a1.1,1.1,0,1,0,1.1,1.1A1.1,1.1,0,0,0,6,98.7Z" style="fill:#353535"/><path d="M6,93.1a1.1,1.1,0,1,0,1.1,1.1A1.1,1.1,0,0,0,6,93.1Z" style="fill:#353535"/><path d="M98.9,98.7a1.1,1.1,0,1,0,1.1,1.1A1.1,1.1,0,0,0,98.9,98.7Z" style="fill:#353535"/><path d="M98.9,93.1a1.1,1.1,0,1,0,1.1,1.1A1.1,1.1,0,0,0,98.9,93.1Z" style="fill:#353535"/><path d="M6.4,86.6a1.1,1.1,0,1,0-1.1,1.1A1.1,1.1,0,0,0,6.4,86.6Z" style="fill:#353535"/><path d="M10.9,85.5a1.1,1.1,0,0,0,0,2.2,1.1,1.1,0,1,0,0-2.2Z" style="fill:#353535"/><path d="M94.2,15.8a1.1,1.1,0,0,0,0,2.2,1.1,1.1,0,1,0,0-2.2Z" style="fill:#353535"/><circle cx="99.9" cy="16.9" r="1.1" style="fill:#353535"/><path d="M94.2,85.5a1.1,1.1,0,0,0,0,2.2,1.1,1.1,0,1,0,0-2.2Z" style="fill:#353535"/><circle cx="99.9" cy="86.6" r="1.1" style="fill:#353535"/><g style="opacity:0.30000000000000004;mix-blend-mode:screen"><rect x="2.7" y="13" width="99.2" height="0.63" style="fill:#ffe1c5"/></g><rect x="2.6" y="90.9" width="99.4" height="0.63" style="fill:#ffe1c5;opacity:0.30000000000000004;mix-blend-mode:screen"/><rect x="21.1" y="17.6" width="0.6" height="69.65" style="fill:#efcaab;opacity:0.30000000000000004;mix-blend-mode:screen"/><rect x="36.7" y="17.6" width="0.6" height="69.65" style="fill:#efcaab;opacity:0.30000000000000004;mix-blend-mode:screen"/><rect x="51.9" y="18" width="0.6" height="69.65" style="fill:#efcaab;opacity:0.30000000000000004;mix-blend-mode:screen"/><rect x="67" y="17.6" width="0.6" height="69.65" style="fill:#efcaab;opacity:0.30000000000000004;mix-blend-mode:screen"/><g style="opacity:0.30000000000000004;mix-blend-mode:screen"><rect x="82.1" y="17.6" width="0.6" height="69.65" style="fill:#efcaab"/></g><path d="M103.1,1.8V103.1H1.8V1.8Zm.6-.6H1.2V103.7H103.7V1.2Z" style="fill:#754c24"/><path d="M14.5,14.5V90.4H90.4V14.5ZM87.8,87.8H17.1V17.1H87.8Z" style="fill:#a67c52;opacity:0.7000000000000001;mix-blend-mode:multiply"/><rect x="19.3" y="14.5" width="1.1" height="75.8" style="fill:#a67c52;opacity:0.7000000000000001;mix-blend-mode:multiply"/><rect x="34.8" y="14.5" width="1.1" height="75.8" style="fill:#a67c52;opacity:0.7000000000000001;mix-blend-mode:multiply"/><rect x="50" y="14.5" width="1.1" height="75.8" style="fill:#a67c52;opacity:0.7000000000000001;mix-blend-mode:multiply"/><rect x="65.2" y="14.5" width="1.1" height="75.8" style="fill:#a67c52;opacity:0.7000000000000001;mix-blend-mode:multiply"/><rect x="80.7" y="14.5" width="1.1" height="75.8" style="fill:#a67c52;opacity:0.7000000000000001;mix-blend-mode:multiply"/><rect x="1.2" y="14.5" width="13.3" height="1.07" style="fill:#a67c52;opacity:0.7000000000000001;mix-blend-mode:multiply"/><rect x="90.4" y="14.5" width="13.3" height="1.07" style="fill:#a67c52;opacity:0.7000000000000001;mix-blend-mode:multiply"/><rect x="1.2" y="89.3" width="13.3" height="1.07" style="fill:#a67c52;opacity:0.7000000000000001;mix-blend-mode:multiply"/><rect x="90.4" y="89.3" width="13.3" height="1.07" style="fill:#a67c52;opacity:0.7000000000000001;mix-blend-mode:multiply"/><path d="M1.2,1.2V103.7H103.7V1.2ZM102.1,102.1H2.8V2.8h99.3Z" style="fill:#a67c52;opacity:0.7000000000000001;mix-blend-mode:multiply"/><rect x="1.5" y="1.5" width="101.9" height="101.91" style="fill:none;stroke:#924f28;stroke-linecap:round;stroke-linejoin:round;stroke-width:3px"/><path d="M47.9,45.9c-3.4,0-8.9-2.1-9.6-5.2V40a7.7,7.7,0,0,1,1.3-3v-.2c.1-.9.2-2.4,2.7-3.8a4.9,4.9,0,0,1,2-.5,2.7,2.7,0,0,1,2.2,1.1,6.4,6.4,0,0,1,2.2-1,3,3,0,0,1,1.3-.2c2.2,0,3.8,1.7,4.2,4.3.5,4.4-.8,7.5-3.8,8.7A6.6,6.6,0,0,1,47.9,45.9Z" style="fill:#ce894a"/><path d="M50,33.9c1.5,0,2.5,1.3,2.7,3s.3,5.9-2.8,7.1a4.5,4.5,0,0,1-2,.4c-3.3,0-7.7-2.1-8.1-4a7,7,0,0,1,1-2.5c.7-.9-.5-2.1,2.2-3.5a2.4,2.4,0,0,1,1.2-.4c1.6,0,1.8,2,1.8,2a6.7,6.7,0,0,1,3.1-2H50m0-3h0l-1.7.2-1.6.6a4.9,4.9,0,0,0-2.5-.7,5.4,5.4,0,0,0-2.6.7,5.8,5.8,0,0,0-3.5,4.8,11,11,0,0,0-1.3,3.2V41c.9,3.9,7,6.4,11.1,6.4a7.8,7.8,0,0,0,3.1-.6c3.6-1.4,5.3-5.2,4.7-10.2-.5-3.4-2.8-5.7-5.7-5.7Z" style="fill:#a8662f"/><path d="M49.9,44s-1.2-3.4.5-4.6,2.2-2.7,1.5-3.9-1.2-2.2-3.1-1.4c0,0-.5-.1.2-1.1s1.9-2,3.1-1.6,3.3,1,3.8,2.8-1.7,6.1-2.6,7.8S52.7,46.7,49.9,44Z" style="fill:#ce894a"/><path d="M49.5,42.2a1.5,1.5,0,0,1-1.4-1.1,3.2,3.2,0,0,1,1.6-3.4,2,2,0,0,0,.9-1.3l-.2-.3c-.3-.6-.3-.6-.6-.6h-.9l-.8-.2a2.7,2.7,0,0,1-1.4-1.8,1.7,1.7,0,0,1,.4-1.5,2,2,0,0,1,1.6-.7,3.1,3.1,0,0,1,1.3.3,2.5,2.5,0,0,1,1.3-.3,2.2,2.2,0,0,1,1.3.4,2.2,2.2,0,0,1,1.6.9,2.6,2.6,0,0,1,.4,2.3,4.7,4.7,0,0,1-2,4.7A5.9,5.9,0,0,0,51,41.2a1.5,1.5,0,0,1-1.4,1Z" style="fill:#ce894a"/><path d="M48.7,32.9a3.1,3.1,0,0,1,1.2.4,3.9,3.9,0,0,1,1.4-.4.7.7,0,0,1,.7.4h.3c.4,0,1.2.2.8,1.7a3.5,3.5,0,0,1-1.3,3.5s-1.9,1.2-2.2,2.2-.3-.9,1-1.8,1.8-2.5,1.3-3.3S51.2,34,49.8,34h-.9s-1-.6-.7-1,.3-.2.5-.2m0-3a3.7,3.7,0,0,0-2.8,1.3,3.3,3.3,0,0,0-.7,2.7,4.4,4.4,0,0,0,2.1,2.8l.8.3a4.7,4.7,0,0,0-1.5,4.4,3.2,3.2,0,0,0,2.8,2.3h.2a3,3,0,0,0,2.7-1.8l1.1-.9h.1a6.3,6.3,0,0,0,2.6-5.9,4,4,0,0,0-.7-3.3,3.7,3.7,0,0,0-2.2-1.4,4.1,4.1,0,0,0-1.9-.5l-1.3.2-1.3-.2Z" style="fill:#a8662f"/><path d="M54.8,52.6s-.7-6.2-3.1-8.8-4.3-2.6-8.3-2.6S36.2,40,35.1,46s3.4,7.5,6.4,8.3S51.4,55.1,54.8,52.6Z" style="fill:#ce894a"/><path d="M51.7,45.3a1.3,1.3,0,0,1-1.1-.5,3.3,3.3,0,0,0-2.7-1,24,24,0,0,0-4.3.7l-3.1.6H39.3a4.2,4.2,0,0,1-3.4-1.3,3.4,3.4,0,0,1-.9-1.3,2.7,2.7,0,0,1-1.7-2.1,3.6,3.6,0,0,1,2.4-3.6,5.3,5.3,0,0,1,2-.5,4.8,4.8,0,0,1,3.6,2l.8.7,3.7.2h3.4c2.2.3,3.5,3,3.9,3.8a1.5,1.5,0,0,1-.6,1.9Z" style="fill:#ce894a"/><path d="M37.7,37.9c2.1,0,2.7,2.5,4.2,2.7s5.6.1,7.1.3,2.7,2.9,2.7,2.9a5,5,0,0,0-3.8-1.5c-2.4,0-5.2,1-7.6,1.3h-1c-3,0-3-2.3-3-2.3-2.4-.3-1.6-2.5,0-3.2l1.4-.3m0-3a6.5,6.5,0,0,0-2.6.6,5.2,5.2,0,0,0-3.3,5.2,4.2,4.2,0,0,0,2.1,3,3.8,3.8,0,0,0,.9,1.3,5.8,5.8,0,0,0,4.5,1.7h1.4l3.2-.6a16.1,16.1,0,0,1,4-.7c1,0,1.4.3,1.6.6a3.1,3.1,0,0,0,2.2.9,2.6,2.6,0,0,0,1.7-.5,3,3,0,0,0,1.1-3.7c-.6-1.3-2.3-4.4-5.2-4.7H45.9l-3.2-.2-.3-.3a6.4,6.4,0,0,0-4.7-2.4Z" style="fill:#a8662f"/><path d="M60.8,67.2h-.4A1.8,1.8,0,0,1,59,66.1a1.7,1.7,0,0,1,.5-1.6c4.7-4.1,9.8-9.7,9.9-11.5s-1.6-6.4-2.2-7.6a1.5,1.5,0,0,1,.6-2,6.7,6.7,0,0,1,3.2-.9,3.6,3.6,0,0,1,2.8,1.2h.8a3.5,3.5,0,0,1,3.5,3.2c.8,3.5-2.7,10.3-5.7,12.4C71.3,60.7,66.3,67.2,60.8,67.2Z" style="fill:#ce894a"/><path d="M71,44a2.4,2.4,0,0,1,2.2,1.4,3.4,3.4,0,0,1,1.4-.3c.8,0,1.7.4,2.1,2s-2.8,9.5-5.3,11c0,0-5.3,7.6-10.6,7.6h-.3S70.8,56.6,70.9,53s-2.4-8.3-2.4-8.3A5.7,5.7,0,0,1,71,44m0-3h0a9.7,9.7,0,0,0-4,1.1,3.1,3.1,0,0,0-1.2,4c.6,1.1,2.1,4.5,2.1,6.8s-4.8,6.4-9.4,10.5a3,3,0,0,0-.9,3.2,3.1,3.1,0,0,0,2.7,2.1h.5c6,0,11.3-6.5,12.7-8.4,3.4-2.6,7-9.7,6.1-13.9a5,5,0,0,0-5-4.3h-.3A5.5,5.5,0,0,0,71,41Z" style="fill:#a8662f"/><path d="M60.2,67.2c-4.7,0-9.2-14.4-9.6-16.8-.8-4.5,1.4-14.5,6-18.4a1.9,1.9,0,0,1,1-.3,1.8,1.8,0,0,1,1.2.5c.8,1,3.3,3.7,5,4.5s11.9,9.5,9.4,16.8S64.4,66,60.9,67.1Z" style="fill:#ce894a"/><path d="M57.6,33.2s3.2,3.8,5.5,4.9S74,46.5,71.8,53,63.3,64.8,60.5,65.7h-.3c-2.9,0-7.4-11.5-8.1-15.5s1.5-13.6,5.5-17m0-3a2.6,2.6,0,0,0-1.9.7c-5.1,4.2-7.5,14.8-6.6,19.8a52.5,52.5,0,0,0,3.5,10c2.6,5.5,4.9,8,7.6,8l1.2-.2c3.8-1.2,10.7-7.3,13.2-14.5S67.9,37,64.4,35.4a21.6,21.6,0,0,1-4.5-4.2,2.9,2.9,0,0,0-2.3-1Z" style="fill:#a8662f"/><path d="M55.2,52.1c-1.6,0-3.4-2.4-4-4.7-.1-.3-1.5-4.4.1-7.3l1-1.7c1.1-1.7,1.7-2.8,1.3-3.5S51.7,33,51.7,33a1.6,1.6,0,0,1-1.6-1.5,4.6,4.6,0,0,1,1.2-3.1,3.3,3.3,0,0,1,2.6-1.1h.7a4.7,4.7,0,0,1,3.3,1.2h.6a2.5,2.5,0,0,1,2.6,2.4,7.9,7.9,0,0,1-.5,3.6h0a3,3,0,0,1,.4,1,3.3,3.3,0,0,1-.5,2.8c-.1.8-.7,2-2.7,3.3s-2.5,5.3-1.5,7.1a2.7,2.7,0,0,1,.3,2.6A1.7,1.7,0,0,1,55.2,52.1Z" style="fill:#ce894a"/><path d="M53.9,28.8h.7c.7,0,2.3.2,2.5,1.6a3.3,3.3,0,0,1,1.4-.4,1,1,0,0,1,1.1,1c.3,1.9-.8,3.5-.7,4.1s1.6.7.1,2.7c0,0,.3,1.1-2,2.6s-3.3,6.5-2,9c.4.8.4,1.2.2,1.2s-2-1.4-2.6-3.6c0,0-1.3-3.8,0-6.2s3.5-4.7,2.2-6.7-2.2-2.6-3.1-2.6h-.1s-.1-2.7,2.3-2.7m0-3a4.8,4.8,0,0,0-3.7,1.5,6,6,0,0,0-1.6,4.2,3.2,3.2,0,0,0,2.6,3,3.7,3.7,0,0,1,1,1.1,15.1,15.1,0,0,1-1.2,2l-1,1.7c-1.8,3.4-.5,7.8-.2,8.6.6,2.3,2.7,5.7,5.4,5.7a3.1,3.1,0,0,0,2.7-1.5,4,4,0,0,0-.3-4.1c-.6-1.2.2-4.5,1.1-5.1a7.1,7.1,0,0,0,3.2-4,5.1,5.1,0,0,0,.6-3.8l-.3-.8a8,8,0,0,0,.4-3.6A4,4,0,0,0,58.5,27h-.1a6.6,6.6,0,0,0-3.8-1.2h-.7Z" style="fill:#a8662f"/><path d="M47.6,71.5a21,21,0,0,1-8.8-1.8c-5.6-2.6-5.6-6.6-5.6-9v-.5c0-1.8-1.1-5.4-1.6-7.1l-.3-1c-.4-1.7-.9-3.3-.1-4.3a1.9,1.9,0,0,1,1.5-.8,4.2,4.2,0,0,1,1.5.4c.2.1,1.5.4,7.2.4H54.2c4.3.2,8.7,5.5,9.8,7.3s1.4,5.6.4,8.7A6.5,6.5,0,0,1,60,68.1a24.9,24.9,0,0,1-12.4,3.4Z" style="fill:#ce894a"/><path d="M32.7,48.5l.8.3c.8.4,4.1.5,7.9.5H54.1c3.5.2,7.5,4.8,8.6,6.5a9.5,9.5,0,0,1,.3,7.5,5.3,5.3,0,0,1-3.6,3.4A22.3,22.3,0,0,1,47.6,70a19,19,0,0,1-8.2-1.7c-5-2.3-4.6-5.8-4.7-8.1s-1.4-6.7-1.8-8.3-1.1-3.4-.2-3.4m0-3A3.5,3.5,0,0,0,30,46.9c-1.2,1.6-.6,3.7-.1,5.6v.2a3.1,3.1,0,0,0,.2.8,32.3,32.3,0,0,1,1.5,6.7v.5c0,2.4,0,7.3,6.4,10.3a22.8,22.8,0,0,0,9.5,2,26.1,26.1,0,0,0,13-3.5,8.1,8.1,0,0,0,5.2-5.2,12.7,12.7,0,0,0-.5-10c-1.2-2-6-7.7-11-8H41.4c-4.9,0-6.3-.2-6.7-.3a4.9,4.9,0,0,0-2-.5Z" style="fill:#a8662f"/><path d="M38.8,75.2a3.1,3.1,0,0,1-3.1-2.5h-.5c-3.1,0-6.8-1.2-8-4.4s1.2-5.3,3-6.4a6.2,6.2,0,0,1,1.3-2.1c.3-.4,1.6-1.8,2.9-1.8s1.7.4,1.8,2.2a7.9,7.9,0,0,0,.4,1.7c.7,1.6,3.3,4.4,7.4,5.6a15.5,15.5,0,0,0,3.5.5,17.5,17.5,0,0,0,4.2-.7l1.6-.4a34.7,34.7,0,0,0,6.2-2l2.3-.9h.4a1.5,1.5,0,0,1,1.3.7,1.7,1.7,0,0,1-.1,1.8c-1.5,1.8-10.8,5.8-12.6,6.6a5.9,5.9,0,0,1-1.7.4,2.1,2.1,0,0,1-1.2-.3l-1.5.9a3.2,3.2,0,0,1-1.4.3,3.7,3.7,0,0,1-1.5-.3,6.7,6.7,0,0,1-3,.8A3.8,3.8,0,0,1,38.8,75.2Z" style="fill:#ce894a"/><path d="M34.4,59.5c.6,0,0,1.1.8,3s3.7,5.1,8.5,6.4a14.2,14.2,0,0,0,3.8.6c2.6,0,4.4-.8,6.1-1.1,3.5-.6,6.7-2.4,8.6-3-1.1,1.4-10.1,5.4-12,6.2l-1.1.3a1.1,1.1,0,0,1-1.1-.7,16.7,16.7,0,0,1-2.2,1.5H45a3.2,3.2,0,0,1-1.7-.6c-.7,1.1-3.2,1.1-3.2,1.1a2.7,2.7,0,0,1-1.3.4C37,73.7,37,71,37,71l-1.8.2c-2.5,0-5.7-.9-6.6-3.4s3-4.9,3-4.9,2.1-3.4,2.8-3.4h0m27.8,5.9h0M34.4,56.5h-.1c-1.7,0-3.2,1.5-4,2.3A8,8,0,0,0,29,60.9c-2.6,1.7-4.4,4.6-3.2,7.9s5.4,5.2,8.9,5.4a4.7,4.7,0,0,0,4.1,2.5,5.1,5.1,0,0,0,2-.4,8.2,8.2,0,0,0,2.8-.7l1.4.2a3.6,3.6,0,0,0,2.1-.5,3.1,3.1,0,0,0,1-.5h1a6.8,6.8,0,0,0,2.3-.5c4-1.8,10.9-4.9,12.9-6.8a2.9,2.9,0,0,0,.9-2.2,3.1,3.1,0,0,0-2.9-3h-.4l-.7.2-2.3.9a33,33,0,0,1-5.8,2l-1.8.4a14.4,14.4,0,0,1-3.8.6,11.8,11.8,0,0,1-3.1-.5A10.1,10.1,0,0,1,38,61.3a7,7,0,0,1-.3-1.2c-.2-3.4-2.8-3.6-3.3-3.6Z" style="fill:#a8662f"/><path d="M34.8,54.5a3.7,3.7,0,0,1-3.3-2.1h-.2a6.8,6.8,0,0,1-1.7-.7,2.7,2.7,0,0,1-1.4-2.2,4.6,4.6,0,0,1,2.2-3.8A6.8,6.8,0,0,1,34.5,44l1.1.2a1.6,1.6,0,0,1,1,.8,1.7,1.7,0,0,1,0,1l.5.2c1.2.5,9.2.8,13.1,1l5,.2c1.9.3,5.2,2.7,5.1,4.2A1.5,1.5,0,0,1,58.8,53h0a1.7,1.7,0,0,1-1.2-.5c-.4-.4-2.5-.9-4.5-.9H52a13.1,13.1,0,0,0-2.1.8l-2.4,1.1a8.4,8.4,0,0,1-2.7.4,20,20,0,0,1-2.8-.3H40a9.3,9.3,0,0,0-3.6.7A4.5,4.5,0,0,1,34.8,54.5Z" style="fill:#ce894a"/><path d="M34.5,45.5h.7s-.6,1.2,1.3,2S53,48.7,55,48.9a6.9,6.9,0,0,1,3.8,2.6l-.2-.2c-.9-.7-3.5-1.2-5.5-1.2H51.6c-1.8.5-2.6,1.2-4.6,1.9a6,6,0,0,1-2.2.4,14.7,14.7,0,0,1-3.2-.4H40a10.6,10.6,0,0,0-4.1.8l-1.1.2a2.4,2.4,0,0,1-2.1-1.5c-.1-.5-1.1-.5-2.4-1.2s-.6-2.4,1-3.5a5.6,5.6,0,0,1,3.2-1.3m0-3a8.2,8.2,0,0,0-5,1.9,6.1,6.1,0,0,0-2.8,5.1,4.1,4.1,0,0,0,2.2,3.4,4.3,4.3,0,0,0,1.6.7A5.1,5.1,0,0,0,34.8,56a5.7,5.7,0,0,0,2.2-.4,7.9,7.9,0,0,1,3-.6h1.7a25.1,25.1,0,0,0,3.1.3A11.9,11.9,0,0,0,48,55l2.6-1.1a9.8,9.8,0,0,1,1.8-.8h.7a11.9,11.9,0,0,1,3.6.6,3.2,3.2,0,0,0,2.1.8,3,3,0,0,0,3-2.8c.1-1.1-.3-2.1-2.3-3.8a9.7,9.7,0,0,0-4.1-2l-5.2-.2c-3.3-.2-9.9-.4-12.1-.8a1.7,1.7,0,0,0-.2-.5A2.9,2.9,0,0,0,36,42.7l-1.5-.2Z" style="fill:#a8662f"/><path d="M59.4,52.1s3.5,2.6,4.5,5-1.2,6.7-1.2,6.7,1.5-4.5.5-6.7A25,25,0,0,0,59.4,52.1Z" style="fill:#a8662f;stroke:#a8662f;stroke-miterlimit:10"/></g></g></g></svg>