<svg xmlns="http://www.w3.org/2000/svg" viewBox="0 0 265.8 160.6"><g style="isolation:isolate"><g id="Layer_2" data-name="Layer 2"><g id="Layer_1-2" data-name="Layer 1"><rect x="31.8" y="98.5" width="7.5" height="54.54" transform="translate(-93.1 102.9) rotate(-64.2)" style="fill:#b6400d"/><rect x="10.3" y="121" width="53.6" height="7.48" transform="translate(-90 97) rotate(-61.1)" style="fill:#b6400d"/><path d="M165.6,109.8H165L130.3,94.6a1.6,1.6,0,0,1-.8-1,1.9,1.9,0,0,1,.2-1.3l3.4-4.7a1.4,1.4,0,0,1,1.2-.6c1.1,0,11.8,4.2,31.9,12.5a1.5,1.5,0,0,1,.9,1.4v7.4a1.6,1.6,0,0,1-.6,1.3A1.5,1.5,0,0,1,165.6,109.8Z" style="fill:#a8662f"/><path d="M134.3,88.5c1.4,0,31.3,12.4,31.3,12.4v7.4L130.9,93.2l3.4-4.7m0-3a2.7,2.7,0,0,0-2.4,1.2l-3.4,4.7a3,3,0,0,0-.4,2.6,2.6,2.6,0,0,0,1.6,1.9l34.7,15.2a2.5,2.5,0,0,0,1.2.2,2.6,2.6,0,0,0,1.7-.5,3,3,0,0,0,1.3-2.5v-7.4a2.8,2.8,0,0,0-1.8-2.7C136.3,85.5,135,85.5,134.3,85.5Z" style="fill:#6a3417"/><path d="M73,114.2a1.6,1.6,0,0,1-1.1-.5L14.1,42.2c-.1-.2-.2-.3-.2-.5L11,32.3a1.7,1.7,0,0,1,.1-1.2,1.6,1.6,0,0,1,1.1-.7l169-28.9h.3a1.6,1.6,0,0,1,.9.3,2.4,2.4,0,0,1,.6,1.1l1,12.3v.2l-2.4,58.5a1.4,1.4,0,0,1-1,1.3L73.5,114.1Z" style="fill:#a8662f"/><path d="M181.5,3l1,12.3-2.4,58.5L73,112.7,15.3,41.2l-2.9-9.3L181.5,3m0-3H181L11.9,28.9a3.2,3.2,0,0,0-2,1.4,2.8,2.8,0,0,0-.3,2.5l2.9,9.3a1.9,1.9,0,0,0,.5,1l57.7,71.5a3,3,0,0,0,2.3,1.1,2.2,2.2,0,0,0,1.1-.2l107-38.9a2.8,2.8,0,0,0,2-2.7l2.4-58.5V15L184.4,2.7A2.6,2.6,0,0,0,183.3.6a3,3,0,0,0-1.8-.6Z" style="fill:#6a3417"/><g style="opacity:0.28;mix-blend-mode:multiply"><rect x="14.8" y="27.9" width="169.4" height="0.85" transform="translate(-3.3 16.5) rotate(-9.3)" style="fill:#882b02"/></g><path d="M35.7,159.1a34.2,34.2,0,1,1,34.2-34.2A34.2,34.2,0,0,1,35.7,159.1Zm0-56a21.8,21.8,0,1,0,21.8,21.8A21.9,21.9,0,0,0,35.7,103.1Z" style="fill:#d86e2e"/><path d="M35.7,92.2A32.7,32.7,0,1,1,3,124.9,32.7,32.7,0,0,1,35.7,92.2m0,56a23.3,23.3,0,1,0-23.3-23.3,23.4,23.4,0,0,0,23.3,23.3m0-59a35.7,35.7,0,1,0,35.7,35.7A35.7,35.7,0,0,0,35.7,89.2Zm0,56A20.3,20.3,0,1,1,56,124.9a20.3,20.3,0,0,1-20.3,20.3Z" style="fill:#924f28"/><path d="M35.7,135.1a10.3,10.3,0,1,1,10.2-10.2A10.3,10.3,0,0,1,35.7,135.1Z" style="fill:#d86e2e"/><path d="M35.7,116.1a8.8,8.8,0,1,1-8.8,8.8,8.8,8.8,0,0,1,8.8-8.8m0-3a11.8,11.8,0,1,0,0,23.5,11.8,11.8,0,0,0,0-23.5Z" style="fill:#924f28"/><path d="M36.1,131.5a1.5,1.5,0,0,1-1.5-1.3l-1.8-11.5a1.5,1.5,0,0,1,.9-1.7L258.6,30.3h.5l.6.2a1.4,1.4,0,0,1,.8.9l3.7,11.2a1.5,1.5,0,0,1-.9,1.9L38.5,131.1A10,10,0,0,1,36.1,131.5Z" style="fill:#a8662f"/><path d="M259.1,31.7,262.8,43,37.9,129.7a5.7,5.7,0,0,1-1.8.3l-1.9-11.6L259.1,31.7m0-3-1.1.2L33.2,115.6a3,3,0,0,0-1.9,3.3l1.8,11.6a3.1,3.1,0,0,0,3,2.5,9.3,9.3,0,0,0,2.9-.5L263.9,45.8a3,3,0,0,0,1.7-3.8L262,30.8a3.5,3.5,0,0,0-1.6-1.8,3.1,3.1,0,0,0-1.3-.3Z" style="fill:#6a3417"/><path d="M169.5,159.1a1.6,1.6,0,0,1-1.5-1.3L156.1,82.6A1.5,1.5,0,0,1,157,81l24.1-9.2h.5a1.6,1.6,0,0,1,.9.3,1.4,1.4,0,0,1,.6,1.2v84.4a1.5,1.5,0,0,1-1.5,1.5Z" style="fill:#a8662f"/><path d="M181.6,73.2v84.4H169.5L157.6,82.4l24-9.2m0-3-1,.2-24.1,9.2a3.1,3.1,0,0,0-1.9,3.3L166.5,158a3.1,3.1,0,0,0,3,2.6h12.1a3,3,0,0,0,3-3V73.2a3.1,3.1,0,0,0-1.3-2.5,3.4,3.4,0,0,0-1.7-.5Z" style="fill:#6a3417"/><g style="opacity:0.28;mix-blend-mode:multiply"><rect x="51.6" y="68.9" width="132.5" height="0.85" transform="translate(-15.7 40) rotate(-18.1)" style="fill:#882b02"/></g><g style="opacity:0.28;mix-blend-mode:multiply"><rect x="34.4" y="49.7" width="149" height="0.85" transform="translate(-8.9 28.1) rotate(-14.1)" style="fill:#882b02"/></g></g></g></g></svg>