<svg xmlns="http://www.w3.org/2000/svg" viewBox="0 0 151.8 167.3"><g id="Layer_2" data-name="Layer 2"><g id="Layer_1-2" data-name="Layer 1"><path d="M20,165.8a1.5,1.5,0,0,1-1.5-1.5v-63a1.1,1.1,0,0,1-.2-.8V59.2A57.4,57.4,0,0,1,44.7,10.7h.2l.7-.5.7-.4,2.1-1.2.3-.2,1.9-.9.7-.4,1.8-.8.5-.2,2.3-.9.6-.2,1.8-.7L59,4l2.5-.7h.1L64,2.7h.6l2.1-.4h.6l2.5-.3h.6l2.1-.2h3.4a57.8,57.8,0,0,1,57.7,57.7V88.4h1.1a1.5,1.5,0,0,1,1.5,1.5v74.4a1.5,1.5,0,0,1-1.5,1.5Z" style="fill:#fff1b6"/><path d="M75.9,3a56.2,56.2,0,0,1,56.2,56.2V89.9h2.6v74.4H20V100.5h-.2V59.2a55.8,55.8,0,0,1,26-47.4h-.1l.7-.4L47,11l2.1-1.2.3-.2,1.8-.9.7-.3,1.8-.8.5-.2,2.2-.9.6-.2,1.8-.6.7-.3,2.3-.6H62l2.3-.5H65l2-.4h.5L70,3.3h.6l2-.2h3.3m0-3H72.4L70.3.3h-.6L67.1.7h-.6l-2.1.3-.8.2-2.3.5h-.2l-2.5.7-.6.2h-.1L56,3.4h-.2l-.4.2L53,4.6h-.5l-1.9.9-.7.3L48,7h-.4L45.5,8.4l-.5.3h-.2l-.2.2-.5.3-.3.2a58.9,58.9,0,0,0-27,49.7v41.3a2.5,2.5,0,0,0,.2,1.2v62.6a3,3,0,0,0,3,3H134.7a3,3,0,0,0,3-3V89.9a3,3,0,0,0-2.6-3V59.2A59.3,59.3,0,0,0,75.9,0Z" style="fill:#e75c78"/><path d="M75.9,3h0a56.2,56.2,0,0,1,56.2,56.2v41.3a0,0,0,0,1,0,0H19.8a0,0,0,0,1,0,0V59.2A56.2,56.2,0,0,1,75.9,3Z" style="fill:#feb6d2"/><path d="M75.9,3h0a55.7,55.7,0,0,0-30.2,8.8A56.6,56.6,0,0,1,69.3,6.6h0a56.1,56.1,0,0,1,56.2,56.2v37.7h6.6V59.2A56.2,56.2,0,0,0,75.9,3Z" style="fill:#fc97b8"/><path d="M127.6,101.7H24.2V63.3A51.8,51.8,0,0,1,75.9,11.6h0a51.8,51.8,0,0,1,51.7,51.7ZM26.7,99.2h98.4V63.3a49.2,49.2,0,1,0-98.4,0Z" style="fill:#fff1b6"/><rect x="20" y="89.9" width="114.7" height="74.45" style="fill:#feb6d2"/><rect x="37" y="123.1" width="77.7" height="41.18" rx="6.4" style="fill:#fc97b8"/><path d="M105,161.6H46.8a5.7,5.7,0,0,1-5.8-5.7V131.6a5.8,5.8,0,0,1,5.8-5.8H105a5.8,5.8,0,0,1,5.8,5.8v24.3A5.7,5.7,0,0,1,105,161.6ZM46.8,128.4a3.2,3.2,0,0,0-3.3,3.2v24.3a3.2,3.2,0,0,0,3.3,3.2H105a3.2,3.2,0,0,0,3.3-3.2V131.6a3.2,3.2,0,0,0-3.3-3.2Z" style="fill:#feb6d2"/><rect x="37" y="94.6" width="77.7" height="24.92" rx="5.5" style="fill:#fc97b8"/><path d="M106.1,117.6H45.7a4.9,4.9,0,0,1-4.9-4.9V101.5a4.9,4.9,0,0,1,4.9-4.9h60.4a4.9,4.9,0,0,1,4.9,4.9v11.2A4.9,4.9,0,0,1,106.1,117.6ZM45.7,99.1a2.4,2.4,0,0,0-2.4,2.4v11.2a2.4,2.4,0,0,0,2.4,2.4h60.4a2.4,2.4,0,0,0,2.4-2.4V101.5a2.4,2.4,0,0,0-2.4-2.4Z" style="fill:#feb6d2"/><path d="M122.4,94.6h-93v-7a413.2,413.2,0,0,1,93,0Z" style="fill:#fff1b6"/><path d="M114.8,165.8a1.4,1.4,0,0,1-1.5-1.5v-84a18.5,18.5,0,0,1,18.5-18.5,18.6,18.6,0,0,1,18.5,19.5l-4.4,76.8a8.1,8.1,0,0,1-8.2,7.7Z" style="fill:#feb6d2"/><path d="M131.8,63.3a17.1,17.1,0,0,1,17,17.9L144.4,158a6.7,6.7,0,0,1-6.7,6.3H114.8v-84a17,17,0,0,1,17-17m0-3a20,20,0,0,0-20,20v84a2.9,2.9,0,0,0,3,3h22.9a9.7,9.7,0,0,0,9.7-9.2l4.4-76.7a20,20,0,0,0-20-21.1Z" style="fill:#fa789e"/><path d="M132.5,74.1a12.4,12.4,0,0,0-12.4,12.3l-2,77.9h2.5l2-77.8a9.9,9.9,0,0,1,9.9-9.9,9.8,9.8,0,0,1,7.2,3.1,9.9,9.9,0,0,1,2.7,7.3l-6.5,77.3h2.5l6.5-77.1a12.3,12.3,0,0,0-3.4-9.3A12,12,0,0,0,132.5,74.1Z" style="fill:#fff1b6"/><path d="M14.1,165.8A8.2,8.2,0,0,1,5.9,158L1.5,81.3A18.3,18.3,0,0,1,6.6,67.6,18,18,0,0,1,20,61.8,18.5,18.5,0,0,1,38.5,80.3v84a1.4,1.4,0,0,1-1.5,1.5Z" style="fill:#feb6d2"/><path d="M20,63.3a17,17,0,0,1,17,17v84H14.1A6.7,6.7,0,0,1,7.4,158L3,81.2A17.1,17.1,0,0,1,20,63.3h0m0-3A20,20,0,0,0,0,81.4l4.4,76.7a9.7,9.7,0,0,0,9.7,9.2H37a2.9,2.9,0,0,0,3-3v-84a20,20,0,0,0-20-20Z" style="fill:#fa789e"/><path d="M19.3,74.1A12.4,12.4,0,0,1,31.7,86.4l2,77.9H31.2l-2-77.8A9.9,9.9,0,1,0,9.4,87l6.5,77.3H13.4L6.9,87.2a12.3,12.3,0,0,1,3.4-9.3A12,12,0,0,1,19.3,74.1Z" style="fill:#fff1b6"/><path d="M79.6,56.5a3.7,3.7,0,1,1-7.4,0,3.7,3.7,0,1,1,7.4,0Z" style="fill:#fc97b8"/><path d="M57.1,38.8a3.7,3.7,0,0,1-3.7,3.7,3.6,3.6,0,0,1-3.7-3.7,3.7,3.7,0,0,1,3.7-3.7A3.8,3.8,0,0,1,57.1,38.8Z" style="fill:#fc97b8"/><path d="M101,38.8a3.7,3.7,0,1,1-7.3,0,3.7,3.7,0,1,1,7.3,0Z" style="fill:#fc97b8"/><path d="M57.1,74.2a3.8,3.8,0,0,1-3.7,3.7,3.7,3.7,0,0,1,0-7.4A3.8,3.8,0,0,1,57.1,74.2Z" style="fill:#fc97b8"/><path d="M101,74.2a3.7,3.7,0,1,1-3.6-3.7A3.7,3.7,0,0,1,101,74.2Z" style="fill:#fc97b8"/></g></g></svg>