<svg xmlns="http://www.w3.org/2000/svg" viewBox="0 0 187.9 343.2"><g style="isolation:isolate"><g id="Layer_2" data-name="Layer 2"><g id="Layer_1-2" data-name="Layer 1"><path d="M90.1,287.9V271c37.6,0,47.8-8.6,47.8-69.6h16.9c0,34.7-3.7,54-12.6,66.7C130,285.6,109,287.9,90.1,287.9Z" style="fill:#af8051"/><rect x="77.6" y="208.2" width="16.9" height="130.72" style="fill:#af8051"/><path d="M143.3,244.7l-10,3.5c-5.6,18-17.3,22.3-38.8,22.8V223.6l-16.9-.9v24c5.8.9,12.5,2.2,12.5,15.6v76.6l4.4-.5v-63c22.9-.9,34-6,38.8-14.2s13.4-1,16-7.8S143.3,244.7,143.3,244.7Z" style="fill:#af8051;opacity:0.5;mix-blend-mode:multiply"/><path d="M88.9,244C68,244,38.5,241.6,23,221.1c-12-16-13.4-40.3-4.1-72.4,6.5-22.1,10.7-42.3,14.5-60.2C39.1,61.4,43.7,40,52.8,25S77.3,1.5,100.1,1.5c31.4,0,50.4,29.5,58.1,90.2,1.8,14.1,4.9,28.3,7.8,41.9,7.4,34.6,14.3,67.2-2.3,87.7C151.4,236.6,126.9,244,88.9,244Z" style="fill:#6c9433"/><path d="M100.1,3c38.6,0,51.3,47.1,56.7,88.9,9.5,75.4,53.8,150.6-67.9,150.6-31.3,0-94.3-4.6-68.5-93.4S37.3,3,100.1,3m0-3C76.7,0,61.8,7.5,51.5,24.3,42.3,39.5,37.7,61,32,88.2c-3.8,17.8-8.1,38-14.5,60.1-9.4,32.5-8,57.3,4.3,73.7,15.9,21.1,45.9,23.5,67.1,23.5,38.5,0,63.4-7.6,76-23.2,17.1-21.1,10-54.1,2.5-89-2.9-13.6-5.9-27.7-7.7-41.8-3.3-26.4-8.6-46.3-16.1-61.1C133.3,10.2,118.6,0,100.1,0Z" style="fill:#28575c"/><path d="M118.2,125.4c-29,38.3-17.9,94.7-45.1,96.9-9.1.8-18.5-.3-26.6-4.5a38.3,38.3,0,0,1-15.4-15,43.6,43.6,0,0,1-3.8-9.6c-.6-1.9-1-3.8-1.7-5.7a83.3,83.3,0,0,0-3.4-8.2c-.9-2-1.9-3.9-2.9-5.7a7.6,7.6,0,0,0-1.7-2.2l-1.3-.4-.8-.2a43.2,43.2,0,0,0-.5,4.3c-.1,1.2-.3,2.4-.4,3.6l-.3,6.8a69.7,69.7,0,0,0,.9,12.1,52,52,0,0,0,6.5,18.8,42.7,42.7,0,0,0,11.6,12.7A54.6,54.6,0,0,0,48,236.9a97.2,97.2,0,0,0,16.1,4,133,133,0,0,0,15.6,1.4l9.2.2c121.7,0,77.4-75.2,67.9-150.6C151.4,50.1,138.7,3,100.1,3,132.7,3,147.3,87,118.2,125.4Z" style="fill:#28575c;opacity:0.7000000000000001"/><path d="M140.1,255.2c-11.3,0-27.4-1.3-35.8-12.6-6.6-8.7-7.3-22-2.3-39.4,3.4-11.8,5.7-22.6,7.7-32.2,6-28.4,10-47.1,36.4-47.1,17.3,0,27.7,16,31.9,48.9.9,7.5,2.6,15.1,4.1,22.4,4,18.7,7.8,36.3-1.3,47.6C174,251.1,160.7,255.2,140.1,255.2Z" style="fill:#96b85c"/><path d="M146.1,125.4c20.7,0,27.6,25.2,30.4,47.6,5.1,40.4,28.9,80.7-36.4,80.7-16.7,0-50.5-2.5-36.7-50s9.1-78.3,42.7-78.3m0-3c-12.8,0-21.5,4.3-27.2,13.6s-7.5,20-10.6,34.7c-2,9.5-4.3,20.3-7.7,32.1-5.2,17.9-4.4,31.6,2.5,40.7,8.9,11.8,25.4,13.2,37,13.2,21.1,0,34.8-4.3,41.8-13,9.6-11.8,5.8-29.8,1.7-48.8-1.6-7.3-3.2-14.8-4.1-22.3-1.8-14.3-4.7-25.1-8.8-33.2-5.8-11.3-14.1-17-24.6-17Z" style="fill:#28575c"/><path d="M169.8,194.1c10.3,45-36.6,50.7-68.1,40.2,5.8,18.1,26.5,19.4,38.4,19.4,65.3,0,41.5-40.3,36.4-80.7-2.8-22.4-9.7-47.6-30.4-47.6C161.9,136.5,159.5,149,169.8,194.1Z" style="fill:#3b7e82;opacity:0.7000000000000001;mix-blend-mode:multiply"/><path d="M62.8,333.3c-2.9,9.4-19.2,12.7-36.5,7.3S-2.5,323.2.5,313.8s19.2-12.6,36.4-7.3S65.8,323.9,62.8,333.3Z" style="fill:#96b85c"/><path d="M32.1,333.3c2.9,9.4,19.3,12.7,36.5,7.3s28.8-17.4,25.9-26.8S75.2,301.2,58,306.5,29.2,323.9,32.1,333.3Z" style="fill:#96b85c"/><path d="M52.9,328.5c6.2-2,8.3-12.7,4.8-24.1s-11.4-19-17.6-17.1-8.4,12.7-4.9,24.1S46.7,330.4,52.9,328.5Z" style="fill:#96b85c"/><path d="M82.9,305c2.1,27.4-24.8,7.4-36.4,11.3-13.5,4.6-13,20.8-40.6,12.5,4.7,4.8,11.8,9.1,20.4,11.8a53.9,53.9,0,0,0,21.2,2.3,53.6,53.6,0,0,0,21.1-2.3c17.2-5.4,28.8-17.4,25.9-26.8C93.1,309.5,88.8,306.4,82.9,305Z" style="fill:#3b7e82;opacity:0.7000000000000001;mix-blend-mode:multiply"/><path d="M131.7,155.3c-2.2,0-6.7-.4-4.9-6.7s1.2-10.4,5.7-10.4c2.7,0,3.6,3.4,4,6.4C137.2,149.9,140.3,155.3,131.7,155.3Z" style="fill:#ffeb81"/><path d="M143.9,166.1c-1.7,0-5-.3-3.7-5s.9-7.7,4.3-7.7,2.7,2.5,3,4.7C148,162.1,150.3,166.1,143.9,166.1Z" style="fill:#ffeb81"/><path d="M115.7,196.1c-1.4,0-4.2-.2-3-4.1s.7-6.4,3.5-6.4,2.2,2.1,2.5,3.9C119.1,192.8,121,196.1,115.7,196.1Z" style="fill:#ffeb81"/><path d="M64.2,52.3c-3.4,0-10.2-.5-7.4-10.1s1.8-15.8,8.6-15.8c4.2,0,5.6,5.1,6.1,9.6C72.6,44.2,77.3,52.3,64.2,52.3Z" style="fill:#c3bf4f"/><path d="M52.6,73.2c-2.2,0-6.6-.3-4.8-6.5S49,56.5,53.3,56.5c2.7,0,3.6,3.3,4,6.2C57.9,68,61,73.2,52.6,73.2Z" style="fill:#c3bf4f"/><path d="M63.9,98.4c-1.6,0-4.9-.3-3.5-4.8s.8-7.5,4-7.5,2.7,2.4,2.9,4.6C67.8,94.5,70.1,98.4,63.9,98.4Z" style="fill:#c3bf4f"/><path d="M80.4,81.8c-1.2,0-3.5-.2-2.6-3.4s.7-5.3,3-5.3,1.8,1.7,2,3.2S84.8,81.8,80.4,81.8Z" style="fill:#c3bf4f"/><path d="M115.7,94.9c-1.1,0-3.4-.2-2.5-3.5s.6-5.3,2.9-5.3,1.9,1.7,2.1,3.3S120.1,94.9,115.7,94.9Z" style="fill:#c3bf4f"/><path d="M119.5,78.2c-1.2,0-3.5-.1-2.6-3.4s.7-5.3,3-5.3,1.8,1.7,2,3.2S123.9,78.2,119.5,78.2Z" style="fill:#c3bf4f"/></g></g></g></svg>