<svg xmlns="http://www.w3.org/2000/svg" xmlns:xlink="http://www.w3.org/1999/xlink" viewBox="0 0 104.4 118.5"><defs><clipPath id="clip-path"><path d="M3.8,70.5c1.3,2.3,1.8,2.3,1.8-.1-.3-11.7,3-18,10.5-21.7-9.7,8.7-9.6,23.7-3.2,31.4.8.9,1.5,1,1.4-.4a32.3,32.3,0,0,1,1.8-14.2A26.6,26.6,0,0,0,20.6,87c1.4,1.8,1.8,1.8,1.5-.3-1-7.3.2-12.8,2.7-17-2.4,6.6-.2,14.4,3.9,18.2.7.7,1.4.7,1.2-.3-1.6-7.2-.7-13.4,3.3-17.6a17.6,17.6,0,0,0-.6,14.5c.4.8,1,1,1.2.1C35.6,73,42.3,66.2,55.4,69.3c4.8,1.2,12.3,7.9,12.3,7.9.3-6.1-3.5-10.4-8.5-12.8l1.5-3a24.7,24.7,0,0,0-5.4-5.3l3.5-2.8c1.8-17.5-5.4-29.7-15.1-35.5C29.2,9.2,11.9,14.1,5.1,28.1c-.7,1.3-.7,2.5.6,1.2,7.9-7.9,21.5-11.5,31.9-3.6C22.7,19.4,4.6,28,1,43c-.7,2.5-.3,2.8,1.3,1a49.4,49.4,0,0,1,5-4.5A27.2,27.2,0,0,0,3.8,70.5Zm53.6-6.9h0Z" style="fill:none"/></clipPath></defs><g id="Layer_2" data-name="Layer 2"><g id="Layer_1-2" data-name="Layer 1"><path d="M44.7,61.9c9.6-1.1,23.6,3.7,23,15.3,0,0-7.5-6.7-12.3-7.9C42.3,66.2,35.6,73,33.8,84.6c-.2.9-.8.7-1.2-.1C29.2,77.1,32.4,63.4,44.7,61.9Z" style="fill:#28575c"/><path d="M31.9,61.8c8.7-4.7,23.9-5.4,27.7,5.9,0,0-9.7-3.6-14.8-2.8C31.2,66.8,27.3,75.8,29.9,87.6c.2,1-.5,1-1.2.3C22.7,82.2,20.6,67.8,31.9,61.8Z" style="fill:#6ab3b9"/><path d="M36.4,49.5c8.9-.5,18.8,4.8,24.3,11.9L59,64.8c-7.7-6.1-19.1-7.1-26.7-2.5S20.4,73.9,22.1,86.7c.3,2.1-.1,2.1-1.5.3C10.9,74.1,14.3,50.7,36.4,49.5Z" style="fill:#6ab3b9"/><path d="M20.2,45.8c10.5-5.9,28.5-2.3,31.1,10.9l-2.4,1.5c-3.6-4.1-15.3-7.5-24.4-2.2-7.4,4.4-11,11.8-10.2,23.7.1,1.4-.6,1.3-1.4.4C5.7,71.4,6.5,53.5,20.2,45.8Z" style="fill:#6ab3b9"/><path d="M29.1,31.2c10.2.6,19.4,9.9,24.3,18.9l-2.5,3.6c-7.7-8.2-19-9.9-28.8-7.2C10.4,49.7,5.2,55.9,5.6,70.4c0,2.4-.5,2.4-1.8.1C-5.4,53.9,5.1,29.7,29.1,31.2Z" style="fill:#6ab3b9"/><path d="M58.8,53.3,53,58c-1.5-16.2-7.9-26.5-15.3-32.2-10.4-8.1-24.1-4.4-32,3.5-1.3,1.3-1.3.1-.6-1.2,6.8-14,24.1-18.9,38.6-10.3C53.4,23.6,60.6,35.8,58.8,53.3Z" style="fill:#6ab3b9"/><path d="M46.1,31.4c7.2,7.2,9,18.4,6.6,28.4l-4.2,1c-.3-11.2-7.7-22.1-17.3-25.4S12.4,33.3,2.3,44C.7,45.8.3,45.5,1,43,5.4,25,30.7,16.2,46.1,31.4Z" style="fill:#6ab3b9"/><g style="clip-path:url(#clip-path)"><path d="M1.5,47.3c4-10.6,18.1-15.4,28.7-12.6S49.1,48.6,50.8,60.1c.2.9-1.3,1.4-1.4.4-1.6-10.4-7.5-20.2-17.8-23.8S6.1,38.3,1.4,48.9C1,49.8,1.1,48.3,1.5,47.3Z" style="fill:#28575c"/><path d="M29.5,22A27.1,27.1,0,0,1,49.1,33.3c5.1,7.3,6,16.3,5.1,24.9-.2,1-1.7,1-1.5,0,.8-7.7.2-15.7-3.9-22.6S37.2,24,29.5,23.5C28.5,23.4,28.5,21.9,29.5,22Z" style="fill:#28575c"/><path d="M10,53.9a23.8,23.8,0,0,1,22.1-8.1c8,1.2,13.2,6.5,15.3,13.9.3.9-1.1,1.3-1.4.4-2.2-7.7-7.7-12.3-16-13a21.2,21.2,0,0,0-18.9,7.8C10.5,55.7,9.4,54.7,10,53.9Z" style="fill:#28575c"/><path d="M22.5,57.1c7.6-5.3,19-5.1,24.6,3.1.6.8-.7,1.5-1.3.7-5.3-7.7-17.2-7.3-23.8-1.5s-6.5,16.7-5.7,24.8c.1,1-1.3,1.3-1.4.4C13.9,75.2,13.7,63.3,22.5,57.1Z" style="fill:#28575c"/><path d="M27.5,65.7c4.3-5.1,13.5-8.5,19.2-3.8.8.6-.3,1.7-1,1.1-6.1-5.1-15.5.6-18.8,6.2a27.6,27.6,0,0,0-3.4,10l-1.3-1.6A25.7,25.7,0,0,1,27.5,65.7Z" style="fill:#28575c"/></g><path d="M59.2,64.4l1.5-3a24.7,24.7,0,0,0-5.4-5.3l3.5-2.8c1.8-17.5-5.4-29.7-15.1-35.5C29.2,9.2,11.9,14.1,5.1,28.1c-.7,1.3-.7,2.5.6,1.2,7.9-7.9,21.6-11.6,31.9-3.6C22.8,19.4,4.6,28,1,43c-.7,2.5-.3,2.8,1.3,1a42.4,42.4,0,0,1,5.1-4.6A27.2,27.2,0,0,0,3.8,70.5c1.3,2.3,1.8,2.3,1.8-.1-.3-11.7,3-18,10.5-21.7-9.7,8.7-9.6,23.7-3.2,31.4.8.9,1.5,1,1.4-.4a32.3,32.3,0,0,1,1.8-14.2A26.6,26.6,0,0,0,20.6,87c1.4,1.8,1.8,1.8,1.5-.3-1-7.3.2-12.8,2.7-16.9-2.4,6.5-.2,14.3,3.9,18.1.7.7,1.4.7,1.2-.3-1.6-7.2-.7-13.4,3.3-17.6a17.6,17.6,0,0,0-.6,14.5c.4.8,1,1,1.2.1C35.6,73,42.3,66.2,55.4,69.3c4.8,1.2,12.3,7.9,12.3,7.9C68,71.1,64.2,66.8,59.2,64.4Zm-2-.9Z" style="fill:none;stroke:#28575c;stroke-linejoin:round"/><path d="M89.9,114.7a2.8,2.8,0,0,1-1.7-.9,15.1,15.1,0,0,0-5.3-3.1l-2.3-.2H76.9a1,1,0,0,1-1.1-.7c-.2-.5.1-1.1.8-1.6a17.6,17.6,0,0,1,3.5-1.5l.3-.2c.1-.1,0-.3-.1-.6-1.1-2.2-4.3-7-4.3-7.1l-.5-.7,5.3-.5v.4c1.8,5,3.3,7.4,4,7.6l2.3.4c2.4.4,4.8.8,6.9,3.8a1.4,1.4,0,0,1,.4,1.3.8.8,0,0,1-.8.5h0a2.5,2.5,0,0,1-1.2-.4l-.8-.3a20.6,20.6,0,0,0-2.6-1.2,13.8,13.8,0,0,1,1.4,2.7,2.3,2.3,0,0,1,.1,1.8A.9.9,0,0,1,89.9,114.7Z" style="fill:#ffc457"/><path d="M80.4,98.3c1.3,3.4,3.1,7.6,4.3,7.9,3.4.9,6.3.3,9,4.1.5.7.4,1,0,1l-1-.3c-1.3-.6-3.5-1.8-4.8-1.9a14.5,14.5,0,0,1,2.1,3.7c.4,1,.2,1.4-.1,1.4a2.6,2.6,0,0,1-1.4-.7,12.6,12.6,0,0,0-5.5-3.2,6.6,6.6,0,0,0-2.4-.3l-3.6.2h-.1c-.9,0-.9-.7,0-1.4a17.3,17.3,0,0,1,3.4-1.4c.6-.2.8-.8.4-1.6s-4.3-7-4.3-7l4-.5m.7-1h-.8l-4,.4H74.6l.9,1.4c.1.1,3.2,4.8,4.3,7v.2a11.9,11.9,0,0,0-3.5,1.5,2,2,0,0,0-1.1,2.1,1.5,1.5,0,0,0,1.6,1.1h3.7a6.8,6.8,0,0,1,2.1.2,12.1,12.1,0,0,1,5.1,3,3.2,3.2,0,0,0,2.1,1,1.6,1.6,0,0,0,1.1-.5,2.8,2.8,0,0,0,0-2.2,10.1,10.1,0,0,0-.7-1.5l1.2.5.8.4a4.3,4.3,0,0,0,1.4.4,1.2,1.2,0,0,0,1.2-.7,1.9,1.9,0,0,0-.4-1.9c-2.3-3.2-4.8-3.6-7.2-4l-2.3-.4c-.4-.2-1.8-2.4-3.6-7.3l-.3-.7Z" style="fill:#ce894a"/><path d="M70.2,118c-.6,0-1.2-.7-1.6-1.2-3.1-4.2-4.3-4.4-7-4.8l-1.4-.2q-1.2-.3-1.2-.9c0-.7.8-1.1,1.6-1.4l1.1-.2,1-.3c.2,0,.4-.1.4-.2a.9.9,0,0,0,0-.7c-.7-2.2-3.4-7.4-3.4-7.5l-.4-.7h5.9v.4c.8,4.4,2.2,8.1,2.9,8.3l.9.3c1.9.5,4.8,1.2,6.6,4.1a1.3,1.3,0,0,1,.2,1.3.9.9,0,0,1-.9.5h0a2.1,2.1,0,0,1-1.1-.4l-.5-.2a13.9,13.9,0,0,0-2.8-1.2,12.2,12.2,0,0,1,.6,3.1,2.2,2.2,0,0,1-.4,1.6Z" style="fill:#ffc457"/><path d="M64.8,100.4c.7,3.8,2.1,8.3,3.3,8.7s5.2.9,7.1,4.2c.5.7.3,1-.2,1l-.9-.3c-1.2-.6-2.9-1.6-4.3-1.6a12.4,12.4,0,0,1,.9,3.7c0,1-.2,1.4-.5,1.4s-.8-.4-1.2-1c-3.7-5-5-4.5-8.7-5.2-1.4-.3-.8-.9.4-1.3l2.2-.5c.7-.2.9-.7.7-1.5s-3.5-7.6-3.5-7.6h4.7m.9-1H58.5l.7,1.5a56.8,56.8,0,0,1,3.4,7.4v.2h-.1l-1,.3-1.2.3c-1.6.5-1.9,1.2-1.9,1.8s.3,1.1,1.6,1.4l1.4.2c2.6.4,3.7.6,6.7,4.6a2.6,2.6,0,0,0,2,1.4,1.8,1.8,0,0,0,1-.4,3.1,3.1,0,0,0,.5-2.1,7.8,7.8,0,0,0-.4-2.2,8.4,8.4,0,0,1,1.9.9l.5.2a2.5,2.5,0,0,0,1.3.4,1.4,1.4,0,0,0,1.3-.7,1.7,1.7,0,0,0-.2-1.8c-1.9-3.1-4.9-3.9-6.8-4.4l-.9-.2c-.6-.5-1.9-3.8-2.6-8v-.8Z" style="fill:#ce894a"/><path d="M44.9,53.4c1.5-.9,5.9-1.5,9.4-.1-1.1-.4-3.2-2.5-.3-2.5A11.3,11.3,0,0,1,60.5,53c-.2-1.3,2.3-.9,3.6,4L40.6,72.7c-1.8,8-3.9,4.2-4.1,1.7-.8-7.3,2.4-14.6,9.7-17.2C42.1,56.6,41.4,55.2,44.9,53.4Z" style="fill:#ffaa5a;stroke:#ff8d3d;stroke-miterlimit:10"/><path d="M100.3,61.8c3.3,15.7-.9,28.1-16.7,35.7-.3,1.4-.5,2.7-4.6,3.4s-4.4-.6-4.7-2.1c0,0-2.4.2-5,.2-.7,1.8-2.3,2.9-6.4,2.6s-5.3-1.7-5.5-3.5c-5.1-2-15.3-8.1-15.9-19.5L69.6,53.7C84,48.7,94.3,51.3,100.3,61.8Z" style="fill:#3b7e82"/><path d="M54,50.8A11.3,11.3,0,0,1,60.5,53c0-.4.1-.6.5-.6s2.2,1.2,3.1,4.6v1.6l5.5-4.9a40.6,40.6,0,0,1,12.8-2.5c7.9,0,13.9,3.5,17.9,10.6,3.3,15.7-.9,28.1-16.7,35.7-.3,1.4-.5,2.7-4.6,3.4l-1.4.2c-2.1,0-3.1-1-3.3-2.3s-2.4.2-5,.2c-.6,1.6-2,2.6-5.2,2.6H62.9c-4.2-.3-5.3-1.7-5.5-3.5-5.1-2-15.3-8.1-15.9-19.5l5.1-4.4-6-1.5c-.8,3.6-1.7,4.8-2.4,4.8s-1.6-1.7-1.7-3.1c-.8-7.3,2.4-14.6,9.7-17.2-4.1-.6-4.8-2-1.3-3.8a10.7,10.7,0,0,1,4.8-.9,14.1,14.1,0,0,1,4.5.7h0c-1.2-.5-3-2.4-.2-2.4m0-1c-1.8,0-2.3.8-2.4,1.4a.6.6,0,0,0-.1.4H49.7a12.5,12.5,0,0,0-5.3,1c-.8.4-3,1.6-2.7,3.3a2.3,2.3,0,0,0,1.5,1.7c-5.5,3.2-8.5,9.7-7.7,17,.1,1.4.9,4,2.7,4s2.3-1.4,3.1-4.6l3.2.8-3.6,3.2-.4.3v.5c.5,10.2,8.8,17.2,16,20.1.6,2.4,2.6,3.5,6.3,3.8h1.3c3,0,4.9-.8,5.9-2.6h3.6a4.1,4.1,0,0,0,4,2.2l1.6-.2c4-.7,4.8-2.1,5.2-3.7,7.7-3.7,12.9-8.8,15.6-15.1s3.1-13.2,1.3-21.5v-.2h-.1C97,54,90.7,50.2,82.4,50.2a41,41,0,0,0-13.2,2.6h-.1l-.2.2L65,56.5c-1.1-3.8-2.8-5.1-4-5.1a1.1,1.1,0,0,0-.8.2A13,13,0,0,0,54,49.8Z" style="fill:#28575c"/><path d="M52.4,81.4c7.3,1.9,15.2,2,22-1.4,2.4-1.2,3.2-.3.5,1.2-7.2,3.9-15.2,3.7-22.8,1.6C51.2,82.6,51.5,81.1,52.4,81.4Z" style="fill:#133a3a"/><path d="M40.4,69.6c-.2-5.3,16.6-14.3,32-13.8l9.1,17.7C77,80,57.3,88.9,44.2,81.4c-2.3-1.4-3.4-2.9-3.8-4.5C36.2,74.8,37.5,71.5,40.4,69.6Z" style="fill:#ffeb81"/><path d="M41.1,78.6a6.1,6.1,0,0,1-.7-1.7c7.3,1.6,14.9,1,22.4.3a.8.8,0,0,1,.2,1.5C55.7,79.4,48.3,79.9,41.1,78.6Z" style="fill:#ffc457"/><path d="M59.2,66.8a70.3,70.3,0,0,1-20.6,4.4,6.6,6.6,0,0,1,1.7-1.6,64.1,64.1,0,0,0,18.3-4.2A.8.8,0,0,1,59.2,66.8Z" style="fill:#ffc457"/><path d="M61.3,56.5a44.1,44.1,0,0,1,12-1.2l9.2,18.1c-2,2.9-10.1,9.8-19.4,9.1-6-.4-8.8-2.8-7.3-5-11.5-2.1-10.6-9.9-4.7-12.8C48.7,62.5,51.8,58.8,61.3,56.5Z" style="fill:#3b7e82"/><path d="M73.3,55.3a44.1,44.1,0,0,0-12,1.2A30.2,30.2,0,0,0,54.2,59c-8.1,3-14,7.5-13.8,10.6-2.9,1.9-4.2,5.2,0,7.3.4,1.6,1.5,3.1,3.8,4.5,7,4,15.8,3.4,23.2.9s13.4-6.4,15.1-8.9" style="fill:none;stroke:#28575c;stroke-linecap:round;stroke-linejoin:round"/><path d="M94.9,30.9c.3,12.9,4.5,22.3,6.7,28.7,1.5,4.3-.6,6.2-4.3.4,2.4,11.3-2.2,10.6-5.9,3.9,0,9.7-4.3,8.4-6.9,0-1.9,9.4-6.6,8.6-7.3-1-4.5,8.7-7.8,6.1-5.5-3.2-2.7,2.7-4.5,2.8-5.2,1.9s.2-3.6,1.7-6.7c5.7-11.6,1.9-30.2,12.5-37.8C86.2,10.5,100.8,15,94.9,30.9Z" style="fill:#ffc457;stroke:#ffaa5a;stroke-miterlimit:10"/><path d="M87.1,22.1c2.5.3,1.6,5.3-.7,4.9S84.4,21.8,87.1,22.1Z" style="fill:#462619"/><path d="M83.4,27.1c-.6,2.3-4.9.9-4-1.6S84,24.6,83.4,27.1Z" style="fill:#ffaa5a;stroke:#ff8d3d;stroke-miterlimit:10"/><path d="M94,25.6c-.3-7.9-5.2-8.8-11.4-8.1-2.2.3-4.4,1.2-8.8-2.5s-3.9-8.6,2.1-7.8c-4.5-6,1.5-8,6.3-2.9-2.5-5,3.8-5.2,6.9.2C88.3.3,95.4,1.1,99.1,7s1,14.6.3,19l-1.7,3.1c4.7,7.4,3.9,12.6,3.1,14s-3.2,1.9-4.1.2c-2.4,2.3-4.9,2.1-6.4.5S87.6,34.2,94,25.6Z" style="fill:#8b2d34;stroke:#5c1612;stroke-miterlimit:10"/><path d="M99.5,25c2,1.3,4.4,5.5,3.8,6s-3.4-.1-7.5-.9c-2.5-.5-2.3-2-.1-3.2S98.2,24.2,99.5,25Z" style="fill:#ffaa5a;stroke:#ff8d3d;stroke-miterlimit:10;stroke-width:2px"/><path d="M86.4,28.6a4.1,4.1,0,1,1,4.1-4.1,4.1,4.1,0,0,1-4.1,4.1Z" style="fill:#fecf72"/><path d="M86.4,20.8a3.9,3.9,0,0,1,2.7,1.1,3.7,3.7,0,0,1,0,5.3h0a3.7,3.7,0,1,1-5.3-5.3,3.6,3.6,0,0,1,2.6-1.1m0-.7a4.5,4.5,0,0,0,0,8.9,4.5,4.5,0,0,0,0-8.9Z" style="fill:#fff"/><circle cx="86.4" cy="24.6" r="2.4" style="fill:#424242"/><circle cx="85.1" cy="23.8" r="0.6" style="fill:#fcfcfc"/></g></g></svg>