<svg xmlns="http://www.w3.org/2000/svg" xmlns:xlink="http://www.w3.org/1999/xlink" viewBox="0 0 42.7 59.3"><defs><clipPath id="clip-path"><path d="M33.7,33.2a6.5,6.5,0,0,0-3-4.2c-4-2-5.9-2.2-10-2.1-7.1.3-10.6,2.6-11.7,5.3a10.4,10.4,0,0,0-.3,1.2c-.5,3.2.8,8.9,5.2,11.2S20,47,20,47s1.9.9,1.4,1.9-2.1,2.5-.4,4.3a2.2,2.2,0,0,0,3.1.5s-2.2.4-2.4-1.4.4-1.8.4-1.8,1.8,1,2.4.4-1.5-.6-1.7-1.4,0,.1.2-.3,2,.4,1.4-2.6c0,0,5.7-1.3,8-4.3S34.4,36.2,33.7,33.2Z" style="fill:none"/></clipPath></defs><g style="isolation:isolate"><g id="Layer_2" data-name="Layer 2"><g id="Layer_1-2" data-name="Layer 1"><path d="M22.6,26.9A15.3,15.3,0,0,1,30.7,29a6.5,6.5,0,0,1,3,4.2c.7,3,.5,6.9-1.3,9.1s-8,4.3-8,4.3c.6,3-1.2,2.3-1.4,2.6h-.1c-.1,0-.1-.2-.2-.2a.6.6,0,0,1,.1.4c.2.8,1.7,1.4,1.7,1.4l-.5.2a5.1,5.1,0,0,1-1.9-.6s-.6.1-.4,1.8,1.2,1.4,1.9,1.4h.5a2.2,2.2,0,0,1-1.3.4,2.5,2.5,0,0,1-1.8-.9c-1.7-1.8,0-3.4.4-4.3S20,47,20,47h-.1c-.4,0-1.9-.2-6-2.4s-5.7-8-5.2-11.2A10.4,10.4,0,0,1,9,32.2c1.1-2.7,4.6-5,11.7-5.3h1.9m0-2h-2c-9.1.4-12.3,3.8-13.5,6.6a6.2,6.2,0,0,0-.4,1.6c-.6,3.8,1,10.5,6.2,13.3a23.1,23.1,0,0,0,6.2,2.5,4.4,4.4,0,0,0,.4,5.7,4.9,4.9,0,0,0,3.3,1.5,4.5,4.5,0,0,0,2.6-.9,2,2,0,0,0,.5-2.4l-.2-.3h.2a2.2,2.2,0,0,0,.6-1.9,3.6,3.6,0,0,0-.4-.9,4.2,4.2,0,0,0,.4-1.5c2.1-.7,5.6-2.1,7.5-4.5s2.5-7.5,1.6-10.9a7.8,7.8,0,0,0-4-5.4,17.4,17.4,0,0,0-9-2.4Z" style="fill:#5e1441"/><g style="clip-path:url(#clip-path)"><path d="M33.7,33.2a6.5,6.5,0,0,0-3-4.2c-4-2-5.9-2.2-10-2.1-7.1.3-10.6,2.6-11.7,5.3a10.4,10.4,0,0,0-.3,1.2c-.5,3.2.8,8.9,5.2,11.2S20,47,20,47s1.9.9,1.4,1.9-2.1,2.5-.4,4.3a2.2,2.2,0,0,0,3.1.5s-2.2.4-2.4-1.4.4-1.8.4-1.8,1.8,1,2.4.4-1.5-.6-1.7-1.4,0,.1.2-.3,2,.4,1.4-2.6c0,0,5.7-1.3,8-4.3S34.4,36.2,33.7,33.2Z" style="fill:#84205c"/><path d="M9.6,39.7a10.1,10.1,0,0,0,6.7,5.4A7.6,7.6,0,0,1,14,43.5c-.9-.9,1.5.6,2.9,1.3s4.2.7,7.3.3a12.5,12.5,0,0,0,6.5-3.2,10.1,10.1,0,0,1-4.6,3.3,7.9,7.9,0,0,0,6.9-4A8.7,8.7,0,0,1,28.7,46a24,24,0,0,1-3.6,1.4s-1.3,1.3.4,2.7.4,5.8-2.8,4.8-3.4-5.6-3.4-5.6S10.6,44.9,9.6,39.7Z" style="fill:#eacfc1;mix-blend-mode:multiply"/></g><path d="M17.5,2h.4c3.2.9,2.2,6.2,2.1,9a29.9,29.9,0,0,0,.3,4.7l.5,1.4S22.1,6.7,28.3,6.7h.8c2.9.4-3.7,9.1-4.3,10.4a7.3,7.3,0,0,1,2.9-.9,1.4,1.4,0,0,1,1.5,1.2c.4,2.5-4.8,3.4-5.9,6.7s-.9,4.4-.9,4.4,1.3,1-.1,1H18.9c-1.8-.2.2-1.5.2-1.5a4.9,4.9,0,0,0-1-2.7c-1-1.4-4.4-2.1-3.4-3.4l.6-.2c1.2,0,3.2,2.3,3.2,2.3s-2.5-4.1-4.6-5.6-3-6.5-1.2-6.9h.2c1.3,0,2,2.3,2.2,3C14.4,11.7,14.7,2,17.5,2m0-2a3.5,3.5,0,0,0-2.7,1.4c-1.3,1.7-1.9,5-2,8h-.6a3.1,3.1,0,0,0-2.3,2.7c-.5,2.3.6,6.2,2.8,7.8l.6.5-.2.2a2.5,2.5,0,0,0-.5,2.2c.2,1.4,1.5,2.1,2.6,2.7a4.3,4.3,0,0,1,1.3.9,2.5,2.5,0,0,1,.4.7,2.8,2.8,0,0,0-.7,2.4,2.5,2.5,0,0,0,2.4,1.9h3.7a2.5,2.5,0,0,0,2.5-1.5,2.5,2.5,0,0,0-.4-2.3,23.4,23.4,0,0,1,.8-2.9c.3-1,1.5-1.8,2.7-2.6s3.7-2.6,3.3-5.1a3.4,3.4,0,0,0-2.3-2.7c2.5-4,3.5-6.3,2.7-8.1a2.7,2.7,0,0,0-2.2-1.6H28.3A7.4,7.4,0,0,0,22.2,8c.1-3.1-.2-6.9-3.8-7.9Z" style="fill:#4a8c32"/><path d="M21.4,24.4S19.9,14,20,11.1s1.1-8.1-2.1-9S14.4,12,15.1,14.5c0,0-.7-3.5-2.4-3s-.8,5.4,1.2,6.9S18.3,23,18.5,24s-2.8-3.3-3.8-2.1,2.4,2,3.4,3.4a4.9,4.9,0,0,1,1,2.7s-2,1.3-.2,1.5,3,0,3-.4S21.5,25,21.4,24.4Z" style="fill:#72b75b"/><path d="M20.1,27.7A48.4,48.4,0,0,0,18,18.6c-1.8-4.9,0-14.4,0-14.4s-.7,8.6,0,11.8S20.3,24,20.1,27.7Z" style="fill:#4b8710"/><path d="M13.7,14A9.7,9.7,0,0,0,18,18.6l.7,1.5S14.8,17.5,13.7,14Z" style="fill:#4b8710"/><path d="M20.5,28.3a6.2,6.2,0,0,0-.8-5.5c-1.9-2.5-3.9-8.3-2.3-9.6s3.4,4,3.4,4S22.2,5.7,29.1,6.8c2.9.4-3.7,9.1-4.3,10.4s4-2.2,4.4.3-4.8,3.4-5.9,6.7-.9,4.4-.9,4.4,1.6,1.3-.7,1S19.6,28.8,20.5,28.3Z" style="fill:#9be3bb"/><path d="M21.2,28.9a43.8,43.8,0,0,0,.7-9c-.3-3.5,2.3-9.4,5.5-11.5,0,0-4.9,4.9-5,10.2S21.8,27,21.2,28.9Z" style="fill:#4b8710"/><path d="M18.3,15.5s1.5,5.8,3.6,8.2v-.5A40.2,40.2,0,0,1,18.3,15.5Z" style="fill:#4b8710"/><path d="M22.3,20.1a10,10,0,0,1,5.1-2.5s-3.9,1.5-5.1,3.5Z" style="fill:#4b8710"/><path d="M41.2,57.8C37.6,51,34.7,46.4,21.3,46.3S5,51,1.5,57.8" style="fill:#ddab88;stroke:#75411a;stroke-linecap:round;stroke-linejoin:round;stroke-width:3px"/></g></g></g></svg>