<svg xmlns="http://www.w3.org/2000/svg" viewBox="0 0 29.2 29.8"><g id="Layer_2" data-name="Layer 2"><g id="Layer_1-2" data-name="Layer 1"><path d="M14.6,29.3c-1.7,0-3.9-.3-4.1-3.1a10.2,10.2,0,0,1,.1-2.4L8.7,25.6a4,4,0,0,1-2,.7c-1.6,0-2.8-1.5-3.9-3A10.9,10.9,0,0,1,1.3,20a3,3,0,0,1,1.4-3A9.9,9.9,0,0,1,5,15.9a10.1,10.1,0,0,1-2.6-.8C-.7,13.6.7,10.5,1.5,8.9s2-3.6,3.8-3.6a3.4,3.4,0,0,1,1.6.4A13.5,13.5,0,0,1,9,7a6.9,6.9,0,0,1-.6-2.6,2.8,2.8,0,0,1,1.4-3A8.2,8.2,0,0,1,13.3.6h1.4c1.6,0,3.8.3,4.1,3.1a11.9,11.9,0,0,1-.2,2.5,10.4,10.4,0,0,1,2-1.8,3,3,0,0,1,1.9-.7c1.6,0,2.8,1.4,3.9,3s2.9,4.3.1,6.3L24.3,14a10.5,10.5,0,0,1,2.5.8c3.2,1.4,1.7,4.5.9,6.2s-2,3.6-3.8,3.6h0a5.3,5.3,0,0,1-1.6-.4,15,15,0,0,1-2-1.4,18.5,18.5,0,0,1,.6,2.6c.2,3.5-3.1,3.7-5,3.9Z" style="fill:#baa2ee"/><path d="M14.7,1c1.9,0,3.4.5,3.6,2.6A20.7,20.7,0,0,1,17.7,8a16.9,16.9,0,0,1,3.2-3.3,2.9,2.9,0,0,1,1.6-.6c1.3,0,2.4,1.2,3.5,2.8s2.3,4.1.2,5.5a12.6,12.6,0,0,1-4,1.7,14,14,0,0,1,4.4,1.1c2.4,1.1,1.8,3.2.7,5.5s-1.9,3.4-3.4,3.4a2.4,2.4,0,0,1-1.3-.4,12.1,12.1,0,0,1-3.5-2.6,16.1,16.1,0,0,1,1.3,4.4c.2,2.6-1.9,3.1-4.5,3.3H14.6c-2,0-3.5-.5-3.6-2.6a15.5,15.5,0,0,1,.5-4.4,13.2,13.2,0,0,1-3.1,3.4,3.2,3.2,0,0,1-1.7.6c-1.3,0-2.4-1.3-3.4-2.8S.9,18.9,3,17.4a16.3,16.3,0,0,1,4.1-1.7,14.8,14.8,0,0,1-4.5-1.1C.3,13.5.8,11.5,2,9.1S3.8,5.8,5.3,5.8l1.4.3a17.4,17.4,0,0,1,3.5,2.7A11.2,11.2,0,0,1,8.9,4.4c-.2-2.6,1.8-3.1,4.4-3.3h1.4m0-1H13.3C11.5.2,7.6.5,7.9,4.5a6.9,6.9,0,0,0,.2,1.3l-1-.6a3.9,3.9,0,0,0-1.8-.4C3.2,4.8,2,6.7,1.1,8.7s-2.5,5.1,1.1,6.8l1.2.5-.9.6c-3.3,2.2-1,5.5-.1,6.9s2.5,3.3,4.3,3.3A3.7,3.7,0,0,0,8.9,26l1.1-.8a2.1,2.1,0,0,0,0,1.1c.2,2.3,1.7,3.5,4.6,3.5H16c1.7-.2,5.7-.5,5.4-4.4-.1-.4-.1-.9-.2-1.3l.9.5a4.5,4.5,0,0,0,1.8.5c2.1,0,3.3-1.9,4.3-3.9S30.6,16,27,14.3l-1.2-.5,1-.5a3.4,3.4,0,0,0,1.6-3.5,8,8,0,0,0-1.6-3.5c-1.1-1.7-2.5-3.2-4.3-3.2h0a3.8,3.8,0,0,0-2.2.7l-1,.9V3.6C19.1,1.2,17.5,0,14.7,0Z" style="fill:#7850b3"/><path d="M26.2,12.4c-2.1,1.5-8.8,3.5-10.2,1.4s2.7-7.7,4.9-9.1,3.6,0,5.1,2.2S28.3,11,26.2,12.4Z" style="fill:#d1c3f4"/><path d="M18.3,3.6c.2,2.6-1.4,9.4-4,9.6S9.1,7,8.9,4.4s1.8-3.1,4.4-3.3S18.1,1.1,18.3,3.6Z" style="fill:#d1c3f4"/><path d="M6.7,6.1C9,7.2,14.1,12,12.9,14.3S5,15.8,2.6,14.6.8,11.5,2,9.1,4.3,5,6.7,6.1Z" style="fill:#d1c3f4"/><path d="M3,17.4c2.2-1.5,8.8-3.5,10.3-1.3s-2.8,7.6-4.9,9.1S4.7,25.1,3.3,23,.9,18.9,3,17.4Z" style="fill:#d1c3f4"/><path d="M11,26.2c-.2-2.6,1.4-9.3,4-9.5s5.2,6.2,5.4,8.8-1.9,3.1-4.5,3.3S11.2,28.8,11,26.2Z" style="fill:#d1c3f4"/><path d="M22.6,23.7c-2.4-1.1-7.4-5.8-6.3-8.2s8-1.4,10.3-.3,1.8,3.2.7,5.5S24.9,24.8,22.6,23.7Z" style="fill:#d1c3f4"/><path d="M21.9,13.4c-1.3.9-5.5,2.1-6.4.8s1.7-4.8,3.1-5.7,2.3,0,3.2,1.3S23.3,12.4,21.9,13.4Z" style="fill:#baa2ee"/><path d="M16.9,7.8c.1,1.6-.9,5.9-2.5,6S11.1,9.9,11,8.3s1.2-2,2.8-2.1S16.8,6.2,16.9,7.8Z" style="fill:#baa2ee"/><path d="M9.6,9.4c1.5.7,4.7,3.7,4,5.2s-5.1.9-6.6.1-1.1-2-.4-3.4S8.1,8.7,9.6,9.4Z" style="fill:#baa2ee"/><path d="M7.3,16.5c1.4-.9,5.5-2.2,6.5-.8s-1.8,4.8-3.1,5.7-2.3,0-3.3-1.4S5.9,17.4,7.3,16.5Z" style="fill:#baa2ee"/><path d="M12.3,22c-.1-1.6.9-5.8,2.5-6s3.3,3.9,3.5,5.6-1.2,1.9-2.9,2.1S12.4,23.7,12.3,22Z" style="fill:#baa2ee"/><path d="M19.6,20.5c-1.5-.7-4.6-3.7-3.9-5.2s5-.9,6.5-.2,1.1,2,.4,3.5S21.1,21.2,19.6,20.5Z" style="fill:#baa2ee"/><path d="M16.8,18a3.6,3.6,0,1,1,1-5.1A3.7,3.7,0,0,1,16.8,18Z" style="fill:#ffeb81"/></g></g></svg>