<svg xmlns="http://www.w3.org/2000/svg" viewBox="0 0 111.4 250.3"><g style="isolation:isolate"><g id="Layer_2" data-name="Layer 2"><g id="Layer_1-2" data-name="Layer 1"><g id="na_potted_plant_1" data-name="na_potted plant 1"><path d="M40.8,132.2S31.6,95.2,51,47" style="fill:none;stroke:#507125;stroke-linecap:round;stroke-linejoin:round;stroke-width:3px"/><path d="M39.4,101.7H39a1.6,1.6,0,0,1-1.1-1.3c-.4-4,.9-12.2,8.7-14.6,6-1.8,13.4-5.4,14.3-12.2a1.5,1.5,0,0,1,1.5-1.3h.1a1.5,1.5,0,0,1,1.4,1.5c0,.8-.5,17.7-8.6,22.8A13.7,13.7,0,0,1,47.4,99H45c-1.5,0-2.7.2-4.4,2.3A1.7,1.7,0,0,1,39.4,101.7Z" style="fill:#96b85c"/><path d="M62.4,73.8S62,90.6,54.5,95.3a12.1,12.1,0,0,1-7.1,2.2H45c-1.9,0-3.6.4-5.6,2.8,0,0-1-10.3,7.6-12.9s14.5-7.1,15.4-13.5m0-3a3,3,0,0,0-3,2.6c-.8,6-7.7,9.3-13.3,11-8.6,2.7-10.1,11.7-9.7,16.1a3,3,0,0,0,2.2,2.6h.8a3.2,3.2,0,0,0,2.4-1.1c1.4-1.7,2.2-1.7,3.2-1.7h2.4a15.6,15.6,0,0,0,8.7-2.6c8.7-5.5,9.2-22.1,9.3-24a3.1,3.1,0,0,0-2.8-3.1Zm0,6Z" style="fill:#507125"/><path d="M61.5,78.3a25.2,25.2,0,0,1-6.7,8.2c-2.6,1.9-5.6,2.5-8.5,3.9a11.8,11.8,0,0,0-6.2,8.1h.1c2.9-7,9.3-7,14.8-10.7a15,15,0,0,0,6.7-9.4A.1.1,0,1,0,61.5,78.3Z" style="fill:#4f6001"/><path d="M41.6,3a8.7,8.7,0,0,1,5.7,2.5C50,8,51.4,12.8,52,17.9a26.7,26.7,0,0,1,2-4.2c2.9-5,6.5-6.9,9.6-6.9a8.6,8.6,0,0,1,7.5,4.6c1.7,3.4.8,10.1-3.6,15.8a18.8,18.8,0,0,1,7.6-1.6h2c12.6,1.4,8.2,14,.6,16.9a24.4,24.4,0,0,1-5.5,1.2,21.9,21.9,0,0,1,4.6,3.1c7.3,6.5,3.7,16.3-4.4,16.3a12.9,12.9,0,0,1-4.5-.9,15.8,15.8,0,0,1-3.6-2c.4,5.4-2,11.5-6.4,11.5a8.1,8.1,0,0,1-5.2-2.4A11.1,11.1,0,0,1,49,63.2a2.1,2.1,0,0,0-.4.6,10,10,0,0,1-8.8,5.6c-4.7,0-8.8-3.8-7.2-10.9A19.5,19.5,0,0,1,36,51.4l-3.4.7-2.6.2c-10,0-15.3-9.2-4.3-13.9A29,29,0,0,1,30.5,37a28.3,28.3,0,0,1-5.6-3.9c-8.1-7.5-7.4-15.2,1.8-15.2h2.2a16.9,16.9,0,0,1,7.9,3.5,37.3,37.3,0,0,1-1.4-4C33.2,8.6,36.8,3,41.6,3m0-3h0a9.1,9.1,0,0,0-7.2,3.6c-2.3,3-3.1,7.2-2.4,12a14,14,0,0,0-2.8-.6H26.7c-4.9,0-8.5,1.9-9.8,5.4s.5,9.9,6,15a6,6,0,0,1,.8.8c-7.7,3.6-7.3,9-7,10.7,1,4.9,6.6,8.5,13.3,8.5h.5a19.8,19.8,0,0,0-.8,2.6c-1,4.2-.3,8,1.9,10.7a10.4,10.4,0,0,0,8.2,3.8A12.2,12.2,0,0,0,48.3,69a15.5,15.5,0,0,0,2.4,2.7,10.9,10.9,0,0,0,7.2,3.1,7.8,7.8,0,0,0,5.9-2.7A13.8,13.8,0,0,0,67,65.2a14.7,14.7,0,0,0,5.4,1A10.9,10.9,0,0,0,83,59c1.8-4.7.4-10-3.6-13.9,5.4-2.4,9.3-8.4,8.6-13.8-.3-2.3-1.9-7.7-10.6-8.6H73.5c1.8-4.6,1.9-9.3.2-12.6A11.7,11.7,0,0,0,63.6,3.8c-2.3,0-6.5.9-10.4,5.8a15.5,15.5,0,0,0-3.9-6.3A11.5,11.5,0,0,0,41.6,0Z" style="fill:#ff8d3d"/><path d="M56.1,36.4s8.4-12.1,21-10.7,8.2,14,.6,16.9-20.3.1-20.3.1Z" style="fill:#fcd54d"/><path d="M55.9,37.8s6.5-9.4,16.2-8.3,6.4,10.8.5,13-15.7.1-15.7.1Z" style="fill:#fcd54d;opacity:0.4;mix-blend-mode:multiply"/><path d="M71.7,34.1c-2.9.6-5.4,2.1-8.2,3s-4.8,1-6.7,2.5c-.4.3,0,1.1.5.8,2.3-1.1,4.6-1.7,7-2.6s4.8-2.5,7.5-3.4C71.9,34.3,71.9,34.1,71.7,34.1Z" style="fill:#fcd54d;opacity:0.73;mix-blend-mode:multiply"/><path d="M51.5,34.1S48.1,23.7,54,13.7s14.3-7.5,17.1-2.3S69.9,30.3,56.5,35.2Z" style="fill:#fcd54d"/><path d="M51.3,34.4a20.8,20.8,0,0,1,1.9-15.9c4.6-7.7,11.1-5.8,13.3-1.7s-.9,14.6-11.4,18.4Z" style="fill:#fcd54d;opacity:0.4;mix-blend-mode:multiply"/><path d="M61.6,19.4c-1.8,1.8-2.8,4.2-4.1,6.3s-3.9,5.9-4.8,9.3a.3.3,0,1,0,.6.2c1.6-2.8,2.9-5.8,4.6-8.6s2.3-5,3.9-7.1C61.9,19.4,61.7,19.3,61.6,19.4Z" style="fill:#fcd54d;opacity:0.73;mix-blend-mode:multiply"/><path d="M48.6,35.2A29.7,29.7,0,0,1,35.4,17.5c-3.1-12.3,5-18.2,11.9-12s5.2,28.3,5.2,28.3Z" style="fill:#fcd54d"/><path d="M48.8,35.2A21.7,21.7,0,0,1,39,22c-2.3-9.2,3.7-13.6,8.8-9s4,21.1,4,21.1Z" style="fill:#fcd54d;opacity:0.4;mix-blend-mode:multiply"/><path d="M47.2,26c-.9-2.4-1.1-5-2.3-7.4-.1-.1-.2,0-.2.1,1.6,4.7,1.6,9.8,3.9,14.3.2.4.7.1.7-.3C49.3,30.4,47.9,28.2,47.2,26Z" style="fill:#fcd54d;opacity:0.73;mix-blend-mode:multiply"/><path d="M49.2,36.9l-2.4,4.4s-13.2-.2-21.9-8.2-7.2-16.4,4-15.1S49.2,36.9,49.2,36.9Z" style="fill:#fcd54d"/><path d="M49.2,38.1l-1.8,3.2s-9.5-.1-15.9-6-5.2-11.9,2.9-11S49.2,38.1,49.2,38.1Z" style="fill:#fcd54d;opacity:0.4;mix-blend-mode:multiply"/><path d="M45,35.7a69.1,69.1,0,0,1-7.2-3.6,43,43,0,0,1-5.7-2.8c-.2-.1-.5.2-.3.3,1.8,1.6,3.9,2.5,5.9,3.7A45.8,45.8,0,0,0,44.6,37C45.4,37.3,45.8,36.1,45,35.7Z" style="fill:#fcd54d;opacity:0.73;mix-blend-mode:multiply"/><path d="M49.2,40s-11.5-6.6-23.5-1.6S21,53.8,32.6,52.1s15.6-7.8,15.6-7.8Z" style="fill:#fcd54d"/><path d="M48.9,39.9s-9.5-5.4-19.3-1.2-4,12.6,5.6,11.2,12.9-6.5,12.9-6.5Z" style="fill:#fcd54d;opacity:0.4;mix-blend-mode:multiply"/><path d="M44.9,41.3a144.9,144.9,0,0,0-14.6,2.9c-.2.1-.2.5,0,.4,3.1-.1,6-.9,9-1.1s4.2-.2,5.9-1.6S45.1,41.3,44.9,41.3Z" style="fill:#fcd54d;opacity:0.73;mix-blend-mode:multiply"/><path d="M48.6,42.5s-13.2,4.1-16,16,11,14.7,16,5.3,2.9-20.4,2.9-20.4Z" style="fill:#fcd54d"/><path d="M49.2,42.5s-11,3.4-13.3,13.4S45,68,49.2,60.2s2.4-16.9,2.4-16.9Z" style="fill:#fcd54d;opacity:0.4;mix-blend-mode:multiply"/><path d="M47.5,47c-2,.4-3,3.1-4,4.6a74,74,0,0,0-5,8.6c-.1.3.3.5.4.3,1.5-2.7,3.4-5,5.1-7.5l2.1-2.9a8.7,8.7,0,0,0,1.8-2.6A.4.4,0,0,0,47.5,47Z" style="fill:#fcd54d;opacity:0.73;mix-blend-mode:multiply"/><path d="M51.5,43.4s-7.8,18.2,1.2,26S66.4,64,63.5,56.9a42,42,0,0,0-8.9-13.5Z" style="fill:#fcd54d"/><path d="M51.8,43.9s-6.4,14.7.9,21.1,11.1-4.4,8.8-10.2a33.4,33.4,0,0,0-7.2-10.9Z" style="fill:#fcd54d;opacity:0.4;mix-blend-mode:multiply"/><path d="M54.7,53.9c-.3-2.1.3-5-1-6.7s-.7-.3-.7.1c-.8,5.5,1.8,10.9,2.4,16.2.1.4.8.4.8,0C56,60.2,55,57.1,54.7,53.9Z" style="fill:#fcd54d;opacity:0.73;mix-blend-mode:multiply"/><path d="M54.6,43.4S56.9,58,67.9,62.3s17.5-7.9,8.9-15.4-20.4-5.6-20.4-5.6Z" style="fill:#fcd54d"/><path d="M54.6,42.9s1.9,11.5,10.5,14.9,13.7-6.2,7-12.2S56,41.2,56,41.2Z" style="fill:#fcd54d;opacity:0.4;mix-blend-mode:multiply"/><path d="M73.2,53.4c-2.4-1.8-4.9-3.4-7.5-5s-4.3-3.6-6.6-4.5c-.3-.1-.7.2-.5.5,1.2,2.3,4.3,3.7,6.4,5s5.3,2.9,7.9,4.5C73.2,54,73.5,53.6,73.2,53.4Z" style="fill:#fcd54d;opacity:0.73;mix-blend-mode:multiply"/><path d="M52.9,52.5a13.7,13.7,0,0,1-3.4-.4c-5.1-.9-8.8-4.4-9.6-8.9a10.5,10.5,0,0,1,5.5-11.1,12.9,12.9,0,0,1,6.7-2c5.9,0,9.8,4.7,10.9,9.1a10.9,10.9,0,0,1-1.8,9.5A9.9,9.9,0,0,1,52.9,52.5Z" style="fill:#a0651a"/><path d="M52.1,31.1c5.2,0,8.9,4.2,9.9,8.4s-1.1,12-9.1,12l-3.2-.3c-10.2-2-12.1-13.3-3.8-18.3a12.6,12.6,0,0,1,6.2-1.8m0-2h0a14.5,14.5,0,0,0-7.2,2.1c-4.5,2.7-6.9,7.4-6,12.2s4.9,8.7,10.5,9.7a20.9,20.9,0,0,0,3.5.4A11,11,0,0,0,62,49.4,12.3,12.3,0,0,0,64,39c-1.3-4.8-5.5-9.9-11.9-9.9Z" style="fill:#75411a"/><g style="opacity:0.4;mix-blend-mode:multiply"><path d="M45,36.7a.9.9,0,0,0-.8-.9c-.4,0-.9.2-.9.7v.2c-.2,1.4,2,1.4,1.9.1Z" style="fill:#a0651a"/><path d="M49.6,32.1a1.1,1.1,0,0,0-1,1.2,1.1,1.1,0,0,0,1.3,1c.6,0,1-.7,1-1.3A1.2,1.2,0,0,0,49.6,32.1Z" style="fill:#a0651a"/><path d="M48.9,39.3a1.3,1.3,0,0,0-1.3,1.1c0,.6.5,1.4,1.1,1.4a1.3,1.3,0,1,0,.2-2.5Z" style="fill:#a0651a"/><path d="M44.4,41.3a.9.9,0,0,0,0,1.7C45.4,43,45.4,41.3,44.4,41.3Z" style="fill:#a0651a"/><path d="M46.6,43.7a1.2,1.2,0,0,0-1.3,1c0,.6.4,1.3,1,1.3a1.1,1.1,0,0,0,1.3-1A1.1,1.1,0,0,0,46.6,43.7Z" style="fill:#a0651a"/><path d="M51.7,34.9c-1.5,0-1.8,2.4-.3,2.4S53.2,34.9,51.7,34.9Z" style="fill:#a0651a"/><path d="M55.6,33c-.6,0-1,.7-1,1.2a1.2,1.2,0,0,0,1.2,1c.6,0,1-.7,1-1.2A1.1,1.1,0,0,0,55.6,33Z" style="fill:#a0651a"/><path d="M60.8,40.5c-.6,0-1,.7-1,1.2a1.1,1.1,0,0,0,1.2,1,1.1,1.1,0,0,0,1-1.2A1.2,1.2,0,0,0,60.8,40.5Z" style="fill:#a0651a"/><path d="M54,37.4a1.2,1.2,0,0,0-.2,2.4,1.3,1.3,0,0,0,1.3-1.1A1.2,1.2,0,0,0,54,37.4Z" style="fill:#a0651a"/><path d="M57.4,38.4A1.3,1.3,0,0,0,56,39.5a1.3,1.3,0,0,0,1.1,1.3,1.2,1.2,0,0,0,1.3-1.1A1.1,1.1,0,0,0,57.4,38.4Z" style="fill:#a0651a"/><path d="M59,43.4c-1.6,0-1.8,2.5-.2,2.5S60.7,43.4,59,43.4Z" style="fill:#a0651a"/><path d="M52.3,44c-1.6,0-1.8,2.5-.2,2.5S53.9,44,52.3,44Z" style="fill:#a0651a"/><path d="M54,47a1.3,1.3,0,0,0-1.3,1c-.1.6.4,1.4,1,1.4a1.3,1.3,0,0,0,1.4-1.1A1.2,1.2,0,0,0,54,47Z" style="fill:#a0651a"/><path d="M43.7,45c-1.3,0-1.2,2,.1,2S44.9,45,43.7,45Z" style="fill:#a0651a"/><path d="M50.4,48.7a1,1,0,0,0-.9,1.2,1,1,0,0,0,1.1.9,1,1,0,0,0,1-1.1C51.6,49,51,48.7,50.4,48.7Z" style="fill:#a0651a"/><path d="M57.2,47.9c-1.3,0-1.2,2,.1,2S58.4,47.9,57.2,47.9Z" style="fill:#a0651a"/><path d="M48.6,36.6a.8.8,0,1,0,0,1.6A.8.8,0,0,0,48.6,36.6Z" style="fill:#a0651a"/><path d="M42.4,41.1c-.9,0-1,1.3-.1,1.3S43.3,41.1,42.4,41.1Z" style="fill:#a0651a"/><path d="M49.8,42.8c-.9,0-1,1.4-.1,1.4S50.7,42.8,49.8,42.8Z" style="fill:#a0651a"/><path d="M47.6,48.4c-.7,0-.6,1,.1,1S48.2,48.4,47.6,48.4Z" style="fill:#a0651a"/><path d="M56.4,45h0c-.5-1-2.2.1-1.1,1h0C56,46.5,56.7,45.6,56.4,45Z" style="fill:#a0651a"/><path d="M54.5,41.5a.8.8,0,0,0,0,1.6A.8.8,0,0,0,54.5,41.5Z" style="fill:#a0651a"/><path d="M59.5,46.8c-.8,0-.9,1.2-.1,1.2S60.3,46.8,59.5,46.8Z" style="fill:#a0651a"/><path d="M58.5,41.2c-.9,0-1,1.4-.1,1.4S59.4,41.2,58.5,41.2Z" style="fill:#a0651a"/><path d="M59.4,36.1c-.7,0-.6,1,.1,1S60,36.1,59.4,36.1Z" style="fill:#a0651a"/><path d="M52.8,32.5c-.7,0-.6,1,.1,1S53.4,32.5,52.8,32.5Z" style="fill:#a0651a"/><path d="M51.8,41.3c-.6,0-.5,1,.1,1S52.5,41.3,51.8,41.3Z" style="fill:#a0651a"/><path d="M60.4,38.6c-.7,0-.6,1,.1,1S61,38.6,60.4,38.6Z" style="fill:#a0651a"/><path d="M56.3,36.3c-.7,0-.5,1,.1,1S56.9,36.3,56.3,36.3Z" style="fill:#a0651a"/><path d="M45.1,39.1c-.6,0-.5,1,.1,1S45.8,39.1,45.1,39.1Z" style="fill:#a0651a"/><path d="M49.7,46.4c-.7,0-.6,1,.1,1S50.3,46.4,49.7,46.4Z" style="fill:#a0651a"/><path d="M46.9,33.9h-.2c-.4.2-.2.7.1.9h.1C47.9,35.5,47.8,33.3,46.9,33.9Z" style="fill:#a0651a"/></g><path d="M58,33.2c2.4,4.4,3.3,13.8-5.6,14.7-7.4.8-10.4-3.1-11.7-5.8.3,4.1,3.4,8,9,9.1,10.5,1.9,13.8-6,12.3-11.7A12.2,12.2,0,0,0,58,33.2Z" style="fill:#a0651a;opacity:0.30000000000000004;mix-blend-mode:multiply"/><path d="M32.1,127.2a1.6,1.6,0,0,1-1.1-.5,1.4,1.4,0,0,1-.4-1.2c.7-7-8.6-11.2-8.6-11.3a1.4,1.4,0,0,1-.9-1.6,1.4,1.4,0,0,1,1.4-1.2H24c14.5,0,15.6,14.1,15.6,14.3a1.5,1.5,0,0,1-.4,1.1,1.6,1.6,0,0,1-1.1.5Z" style="fill:#96b85c"/><path d="M24,112.8c13.2,0,14.1,12.9,14.1,12.9h-6c.8-8.2-9.5-12.8-9.5-12.8H24m0-3H22.4a3,3,0,0,0-2.8,2.4,3.2,3.2,0,0,0,1.7,3.3c.1,0,8.4,3.8,7.8,9.8a3.1,3.1,0,0,0,3,3.3h6a3.2,3.2,0,0,0,2.2-1,3.5,3.5,0,0,0,.8-2.2c-.4-5.4-4.4-15.7-17.1-15.7Z" style="fill:#507125"/><path d="M32.9,119.2c-1.7-3.3-4.1-4.1-7.2-5.7-.1,0-.1.1,0,.2,6.1,2.7,8.4,8.7,9.1,15a.3.3,0,0,0,.5,0A17.5,17.5,0,0,0,32.9,119.2Z" style="fill:#4f6001"/><path d="M77.1,78S46.2,89.7,43.5,135.8" style="fill:none;stroke:#507125;stroke-linecap:round;stroke-linejoin:round;stroke-width:3px"/><path d="M53.2,111.2a12.1,12.1,0,0,1-3.6-.4,1.4,1.4,0,0,1-1.1-1.4c0-.3.3-7.3,10.4-10.5a28.7,28.7,0,0,1,8.7-1.1A65.9,65.9,0,0,1,82,99.7a1.6,1.6,0,0,1,1.1,1.8,1.6,1.6,0,0,1-1.5,1.2h-2a23.7,23.7,0,0,0-13.7,4.3A21.4,21.4,0,0,1,53.2,111.2Z" style="fill:#96b85c"/><path d="M67.6,99.3a58,58,0,0,1,14,1.9h-2a25.2,25.2,0,0,0-14.5,4.6,20.7,20.7,0,0,1-11.9,4,14.5,14.5,0,0,1-3.2-.3s.2-6.2,9.4-9a25,25,0,0,1,8.2-1.1m0-3h0a31.4,31.4,0,0,0-9.1,1.2C47.3,101,47,109,47,109.3a3.1,3.1,0,0,0,2.2,3,21.9,21.9,0,0,0,4,.4,23.2,23.2,0,0,0,13.6-4.6,22.6,22.6,0,0,1,12.8-4h2a3.1,3.1,0,0,0,3-2.4,3,3,0,0,0-2.2-3.5,60.2,60.2,0,0,0-14.8-2Z" style="fill:#507125"/><path d="M75.7,100.7h0c-8.5.5-16,3.6-23.7,6.9-.4.2-.7-.3-.3-.6C58.4,102.6,67.6,100.6,75.7,100.7Z" style="fill:#4f6001"/><path d="M84.9,49.1c2.7,0,5.1,3.1,5.9,8.3a17.5,17.5,0,0,1,.1,5.1,37,37,0,0,1,2.9-2.4,9.1,9.1,0,0,1,4.6-1.6c4.6,0,5.7,6.5,1.1,11.6L97.7,72h.8a15.1,15.1,0,0,1,5,.9c8.4,3.1,4.9,12.3-2.5,12.3H99.6a8.7,8.7,0,0,1,2.4,5c.6,4.3-1.5,5.9-4.2,5.9a11,11,0,0,1-6.3-2.4,17.1,17.1,0,0,1-.3,3.1c-.9,4.1-3.7,6-6.5,6s-6.2-2.4-6.9-6.9a19.6,19.6,0,0,1,0-4.2,17,17,0,0,1-3,3,9.5,9.5,0,0,1-5.2,1.5c-4.3,0-8.2-3-5.1-8.9a13.6,13.6,0,0,1,4.9-5.4H68.2c-4.9,0-8.9-2-10.2-4.4s-.3-9.7,7.7-9.7h.9L70,68c-2.9-2.5-5.3-5.4-5.7-8.1s1.5-6.6,4.7-6.6,5,1.3,7.7,4.2A15,15,0,0,1,78.6,60a13.5,13.5,0,0,1,1.1-6.4c1.6-3.1,3.4-4.5,5.2-4.5m0-3h0c-1.8,0-5.2.8-7.9,6.1-.1.4-.3.7-.4,1.1a12.3,12.3,0,0,0-7.6-3,7.7,7.7,0,0,0-5.9,2.6,9.3,9.3,0,0,0-1.8,7.4A11.5,11.5,0,0,0,63,64.7a10.6,10.6,0,0,0-7.5,4.7,9.6,9.6,0,0,0-.1,9.3c1.3,2.3,4,4.2,7.4,5.2a9.5,9.5,0,0,0-1,1.7c-2.3,4.4-1.5,7.5-.4,9.3a9.6,9.6,0,0,0,8.2,4,11.8,11.8,0,0,0,5.6-1.3c1.3,4.7,5,7.9,9.5,7.9s7.8-2.9,9.2-7.4a13.4,13.4,0,0,0,3.9.7,7,7,0,0,0,5.5-2.3c1.5-1.7,2.1-4,1.7-7a14.6,14.6,0,0,0-.5-2,9.5,9.5,0,0,0,6.7-7.4c.8-4.3-1.8-8.3-6.6-10.1l-1.1-.3c2.1-3.4,2.6-7.2,1.3-10.1a6.9,6.9,0,0,0-6.4-4.1,10.9,10.9,0,0,0-4.7,1.2c-1.1-6.5-4.4-10.6-8.8-10.6Z" style="fill:#ff8d3d"/><path d="M79.9,78.3s-11.1.2-15.4,8.7,5.3,10.9,10.3,7.4,8.5-12.7,8.5-12.7Z" style="fill:#fcd54d"/><path d="M80.9,78.7s-8.6.2-12,6.7,4.1,8.5,8,5.7,6.6-9.7,6.6-9.7Z" style="fill:#fcd54d;opacity:0.4;mix-blend-mode:multiply"/><path d="M72,87.1c1.5-1.6,3.5-2.5,5.2-3.9s2.7-2.6,4.4-3.1.7.4.3.6A47.1,47.1,0,0,0,77.4,84c-1.7,1.2-3.6,1.9-5.3,3.2C72,87.3,71.9,87.2,72,87.1Z" style="fill:#fcd54d;opacity:0.73;mix-blend-mode:multiply"/><path d="M80.4,74.5a20.3,20.3,0,0,0-13.8-7c-8.7-.4-10.7,5.8-8.6,9.7s12.3,7.2,21,.8Z" style="fill:#fcd54d"/><path d="M80.6,74.4A15.7,15.7,0,0,0,69.9,69c-6.7-.3-8.2,4.5-6.6,7.6s9.5,5.5,16.3.6Z" style="fill:#fcd54d;opacity:0.4;mix-blend-mode:multiply"/><path d="M67,74.7a21.7,21.7,0,0,1,5.7,0c2.5.1,5.3,0,7.8.8.2.1.1.6-.2.6-2.4-.3-4.8-.7-7.3-.8s-4-.6-6-.5C66.9,74.8,66.9,74.7,67,74.7Z" style="fill:#fcd54d;opacity:0.73;mix-blend-mode:multiply"/><path d="M82.3,73.1a22.1,22.1,0,0,0-5.6-15.6c-6.4-7.1-13.5-4.5-12.4,2.4s15.4,15,15.4,15Z" style="fill:#fcd54d"/><path d="M82.2,73.2A16.4,16.4,0,0,0,78,61.6c-4.8-5.3-10-3.4-9.3,1.8S80.3,74.6,80.3,74.6Z" style="fill:#fcd54d;opacity:0.4;mix-blend-mode:multiply"/><path d="M77.1,68.4c-1.2-1.6-2.7-2.8-3.7-4.5,0-.1.1-.2.2-.1,2.2,2.9,5.4,5,7.3,8.3.2.3-.2.6-.5.4S78.2,69.8,77.1,68.4Z" style="fill:#fcd54d;opacity:0.73;mix-blend-mode:multiply"/><path d="M83.1,74.2l3.7.3s5.4-8.3,4-17.1S83.5,46,79.7,53.6,83.1,74.2,83.1,74.2Z" style="fill:#fcd54d"/><path d="M83.8,74.7l2.8.2s3.9-6,2.9-12.4-5.3-8.3-8.1-2.8S83.8,74.7,83.8,74.7Z" style="fill:#fcd54d;opacity:0.4;mix-blend-mode:multiply"/><path d="M84.1,71.1c.4-2,.5-4,.7-6a26.3,26.3,0,0,0,.6-4.8c0-.2.4-.2.4,0a30.2,30.2,0,0,1-.2,5.2,36.8,36.8,0,0,1-.5,5.8A.5.5,0,0,1,84.1,71.1Z" style="fill:#fcd54d;opacity:0.73;mix-blend-mode:multiply"/><path d="M85,75.5s.6-10,8.8-15.4,11.6,3.4,5.7,10-11.4,6.5-11.4,6.5Z" style="fill:#fcd54d"/><path d="M85.1,75.3s.5-8.3,7.3-12.7,9.5,2.8,4.7,8.2-9.5,5.4-9.5,5.4Z" style="fill:#fcd54d;opacity:0.4;mix-blend-mode:multiply"/><path d="M87.7,73.3a96.9,96.9,0,0,1,7.8-7.9c.2-.1.4,0,.3.2-1.4,1.8-3.1,3.3-4.5,5.1s-1.8,2.6-3.4,3S87.5,73.5,87.7,73.3Z" style="fill:#fcd54d;opacity:0.73;mix-blend-mode:multiply"/><path d="M86.9,76.2s8-6.6,16.6-3.4,4.6,13-3.3,12.2-14-6.6-14-6.6Z" style="fill:#fcd54d"/><path d="M86.6,76.5s6.7-5.5,13.9-2.8,3.8,10.8-2.8,10.2-11.6-5.6-11.6-5.6Z" style="fill:#fcd54d;opacity:0.4;mix-blend-mode:multiply"/><path d="M90.1,77.3c1.1-1.1,3.2-.6,4.6-.6a60,60,0,0,1,7.4.5c.2,0,.2.4,0,.3-2.3-.1-4.5.1-6.8.2a24.3,24.3,0,0,0-2.7,0,6.4,6.4,0,0,1-2.4.1A.3.3,0,0,1,90.1,77.3Z" style="fill:#fcd54d;opacity:0.73;mix-blend-mode:multiply"/><path d="M86.2,78.4S100.9,81,102,89.9s-9.1,6.3-12.4,1.5a31.6,31.6,0,0,1-4.7-11.1Z" style="fill:#fcd54d"/><path d="M86.4,78.7s11.9,2.2,12.8,9.4-7.4,5.1-10,1.2a23.6,23.6,0,0,1-3.8-9Z" style="fill:#fcd54d;opacity:0.4;mix-blend-mode:multiply"/><path d="M91.4,84.7c-1.2-1.1-3.2-1.9-3.7-3.5s.1-.5.3-.3c3.8,1.7,6.1,5.6,9.1,8.2.3.3,0,.7-.3.5C94.8,88.1,93.3,86.2,91.4,84.7Z" style="fill:#fcd54d;opacity:0.73;mix-blend-mode:multiply"/><path d="M84.9,80.3s8.2,7.5,6.3,16.2-12.2,7.6-13.4-.9,5-15.1,5-15.1Z" style="fill:#fcd54d"/><path d="M84.6,80.1S91,86,89.5,92.8s-9.5,6-10.5-.7,4-11.9,4-11.9Z" style="fill:#fcd54d;opacity:0.4;mix-blend-mode:multiply"/><path d="M83.4,96.1c-.1-2.3,0-4.5,0-6.8s-.4-4.2,0-6c0-.3.4-.3.5-.1.9,1.7.5,4.2.4,6.1s-.3,4.5-.5,6.8C83.8,96.3,83.4,96.3,83.4,96.1Z" style="fill:#fcd54d;opacity:0.73;mix-blend-mode:multiply"/><path d="M85,86.9A9.1,9.1,0,0,1,78.6,84a9.9,9.9,0,0,1-2.4-8.1c.4-1.9,1.6-4.5,5.3-6.3a8.8,8.8,0,0,1,4.1-1,7.8,7.8,0,0,1,6.6,3.5,9.2,9.2,0,0,1,.5,8.7c-2.2,5.3-5.8,6.1-7.7,6.1Z" style="fill:#a0651a"/><path d="M85.6,69.6c5,0,8.7,5,6.2,10.8-1.7,4-4.3,5.5-6.8,5.5a7.6,7.6,0,0,1-5.6-2.6c-3-3.3-4-9.6,2.6-12.8a8,8,0,0,1,3.6-.9m0-2a10.6,10.6,0,0,0-4.5,1.1c-4.1,2-5.5,4.9-5.9,7a10.7,10.7,0,0,0,2.7,8.9A9.5,9.5,0,0,0,85,87.9c2.2,0,6.2-.9,8.6-6.7a9.9,9.9,0,0,0-.5-9.6,9.1,9.1,0,0,0-7.5-4Z" style="fill:#75411a"/><g style="opacity:0.4;mix-blend-mode:multiply"><path d="M84.7,71.5a.7.7,0,0,1-.2-.9.6.6,0,0,1,.8-.3h.1c1,.5.1,1.9-.6,1.3Z" style="fill:#a0651a"/><path d="M79.9,72.4a.9.9,0,1,1,.1,1.2A.8.8,0,0,1,79.9,72.4Z" style="fill:#a0651a"/><path d="M84.7,75a1.1,1.1,0,0,1,1.3-.4,1,1,0,0,1,.3,1.3.9.9,0,0,1-1.2.4C84.7,76,84.4,75.4,84.7,75Z" style="fill:#a0651a"/><path d="M87.9,73c.4-.6,1.4,0,1,.7S87.4,73.7,87.9,73Z" style="fill:#a0651a"/><path d="M88.4,75.4a.9.9,0,1,1,1.6.8c-.3.3-.7.6-1.2.3A.8.8,0,0,1,88.4,75.4Z" style="fill:#a0651a"/><path d="M80.8,74.9c.7-.9,2.2-.1,1.6.8S80.2,75.8,80.8,74.9Z" style="fill:#a0651a"/><path d="M78,76.5c.2-.3.8-.3,1.2-.1a1,1,0,0,1,.1,1.2A.9.9,0,0,1,78,76.5Z" style="fill:#a0651a"/><path d="M80.5,82.9a1.1,1.1,0,0,1,1.2-.1.8.8,0,0,1,.1,1.2.7.7,0,0,1-1.1.1A.9.9,0,0,1,80.5,82.9Z" style="fill:#a0651a"/><path d="M81.4,77.4a1.1,1.1,0,0,1,1.3-.4.9.9,0,0,1-.9,1.6A.9.9,0,0,1,81.4,77.4Z" style="fill:#a0651a"/><path d="M80.6,79.9a1.1,1.1,0,0,1,1.3-.4.8.8,0,0,1,.3,1.2.8.8,0,0,1-1.2.4A1,1,0,0,1,80.6,79.9Z" style="fill:#a0651a"/><path d="M83.1,83c.6-1,2.3-.1,1.6.9S82.4,84,83.1,83Z" style="fill:#a0651a"/><path d="M86.3,79.1c.6-1,2.3-.1,1.6.9S85.6,80.1,86.3,79.1Z" style="fill:#a0651a"/><path d="M87.4,81.4a1,1,0,0,1,1.2-.4.9.9,0,0,1,.4,1.2,1,1,0,0,1-1.2.4A.9.9,0,0,1,87.4,81.4Z" style="fill:#a0651a"/><path d="M90.5,74.1c.5-.8,1.7.1,1.2.9A.8.8,0,1,1,90.5,74.1Z" style="fill:#a0651a"/><path d="M90,79.8a.9.9,0,0,1,1.1-.1.8.8,0,0,1,.1,1.2.9.9,0,0,1-1.1.1A.8.8,0,0,1,90,79.8Z" style="fill:#a0651a"/><path d="M86.7,83.8a.7.7,0,1,1,1.1.8C87.3,85.4,86.2,84.5,86.7,83.8Z" style="fill:#a0651a"/><path d="M83.2,73.7c.4-.7,1.4,0,1,.6S82.7,74.3,83.2,73.7Z" style="fill:#a0651a"/><path d="M88.5,71.6c.4-.5,1.3,0,.9.5S88.2,72.2,88.5,71.6Z" style="fill:#a0651a"/><path d="M86.6,77c.3-.5,1.2-.1.9.5S86.2,77.5,86.6,77Z" style="fill:#a0651a"/><path d="M91,77.9c.2-.4.8.1.6.5S90.7,78.3,91,77.9Z" style="fill:#a0651a"/><path d="M85.1,82h0c-.5-.7,1-1.3,1.1-.3h0C86.3,82.4,85.4,82.5,85.1,82Z" style="fill:#a0651a"/><path d="M83.7,79.4c.5-.6,1.5,0,1.1.6S83.3,80,83.7,79.4Z" style="fill:#a0651a"/><path d="M85,84.7c.3-.5,1.1-.1.8.4S84.7,85.2,85,84.7Z" style="fill:#a0651a"/><path d="M81.9,81.8c.4-.6,1.3-.1,1,.5S81.6,82.4,81.9,81.8Z" style="fill:#a0651a"/><path d="M78.4,80.2c.2-.4.8.1.5.5S78.1,80.6,78.4,80.2Z" style="fill:#a0651a"/><path d="M78.8,74.6c.3-.4.9,0,.6.5S78.6,75,78.8,74.6Z" style="fill:#a0651a"/><path d="M84.7,77.6c.3-.4.9.1.6.5S84.5,78,84.7,77.6Z" style="fill:#a0651a"/><path d="M79.5,81.9a.4.4,0,1,1,.6.4C79.8,82.7,79.2,82.3,79.5,81.9Z" style="fill:#a0651a"/><path d="M79.7,78.4a.4.4,0,1,1,.6.4C80.1,79.2,79.5,78.8,79.7,78.4Z" style="fill:#a0651a"/><path d="M86.2,72.5c.2-.4.8.1.5.5S85.9,73,86.2,72.5Z" style="fill:#a0651a"/><path d="M88.8,78.4c.3-.4.9.1.6.5S88.6,78.8,88.8,78.4Z" style="fill:#a0651a"/><path d="M82.2,71.4h.1c.3-.2.6.2.5.5h0C82.8,72.7,81.4,71.8,82.2,71.4Z" style="fill:#a0651a"/></g><path d="M77.1,78.2c1.8,3.3,7.3,7.7,11.6,2.6S91,73,89.9,71c2.4,1.9,3.6,5.5,1.9,9.4-3.1,7.4-9.4,6.2-12.4,2.9A9.5,9.5,0,0,1,77.1,78.2Z" style="fill:#a0651a;opacity:0.30000000000000004;mix-blend-mode:multiply"/><g id="VC_na_potted_plant_1" data-name="VC_na_potted plant 1"><path d="M24.9,248.8a1.4,1.4,0,0,1-1.3-.9c-.2-.4-16.1-38.7-21.2-68.9-4.5-26.9,8.9-37.8,16-43.6l2.9-2.5c4.2-4.2-.8-10.2-1.1-10.4a2,2,0,0,1-.2-1.7,1.6,1.6,0,0,1,1.4-.8H57.9a1.7,1.7,0,0,1,1.3.7,1.5,1.5,0,0,1-.1,1.6,29.5,29.5,0,0,0-3,7.4c-.7,3,1.7,5.8,7.4,8.7,1.8.9,17.9,10,12.5,44.5-4.6,29.2-20.2,64.6-20.3,65a1.7,1.7,0,0,1-1.4.9Z" style="fill:#68c6bf"/><path d="M57.9,121.5h0m0,0a27,27,0,0,0-3.2,7.8c-1.1,4.4,2.8,7.7,8.1,10.4s16.3,13.7,11.7,43-20.2,64.6-20.2,64.6H24.9S9,209.1,3.9,178.7,17.1,139.3,22.4,134s-1-12.5-1-12.5H57.9m0-3H21.4a3.2,3.2,0,0,0-2.8,1.7,3.1,3.1,0,0,0,.5,3.2c.2.2,4.4,5.2,1.2,8.4l-2.8,2.4c-7.4,6.1-21.2,17.3-16.6,45,5.1,30.4,20.6,67.7,21.3,69.3a2.8,2.8,0,0,0,2.7,1.8H54.3a3.1,3.1,0,0,0,2.8-1.8c.6-1.4,15.8-36,20.4-65.3,5.4-34.8-10.2-44.6-13.4-46.2-7.3-3.7-6.7-6.2-6.5-7a25.5,25.5,0,0,1,2.8-6.9,2.8,2.8,0,0,0,.5-1.6,3,3,0,0,0-3-3Zm0,6Z" style="fill:#3b7e82"/><g style="opacity:0.4;mix-blend-mode:multiply"><path d="M64.5,201.3c-10.3-4.9-14.8,5.4-17,10.4l-.6,1.2c-2.2,4.9-2.5,5.8-6.5,5.9s-5.6-.7-7.8-5.7c-4.1-9.3-7.7-15.1-19.6-10.5a7.4,7.4,0,0,1-3.4.5c1.5,5.3,3.1,10.6,4.8,15.5l2.1-.7a29.4,29.4,0,0,1,3.4-1,33.4,33.4,0,0,1,2,4.2c4.5,10,9.2,13.7,17.8,13.7h1c10.8-.3,14.3-8.1,16.9-13.8l.6-1.3a30.8,30.8,0,0,1,1.7-3.6l.4.2a25.9,25.9,0,0,0,5.1,1.8c1.7-4.9,3.3-10.2,4.7-15.5A13.2,13.2,0,0,1,64.5,201.3Z" style="fill:#b78ccf"/><path d="M3.9,178.7c.2,1,.3,2,.5,2.9,4.1,3.6,8.9,6.8,14.4,5.3s8-5.2,11-11.8c5.4-11.7,7.4-11.5,9.3-11.5,4.3-.1,7.1,9,8.9,12.3,3.3,5.9,7.4,11.4,13.4,11.4,2.5,0,5.4-1,8.7-3.3l1-.8c1.7-1.2,2.8-2,3.7-2.5a72.3,72.3,0,0,0,.6-16.4c-4,.4-7.6,3-10.3,4.9l-1,.8c-1.9,1.4-2.6,1.3-2.6,1.3h0c-.1,0-1-.4-3.5-4.7-4.6-8.3-10.3-18.6-18.5-19S25.8,152.5,19.2,167c-1.3,2.9-2.4,4.1-3,4.3s-4.8-2.8-7.1-4.9l-.2-.2a11.5,11.5,0,0,0-5.6-3A55.6,55.6,0,0,0,3.9,178.7Z" style="fill:#b78ccf"/><path d="M51.8,132.2c-8.4-.2-16.8.4-25.2.8-.1,0-.1.2,0,.2,8.4.2,16.8-.1,25.3-.1C52.3,133.1,52.2,132.2,51.8,132.2Z" style="fill:#b78ccf"/></g><path d="M62.8,139.7c-5.3-2.7-9.2-6-8.1-10.4a27,27,0,0,1,3.2-7.8H54.6c-4.8,4.1-13.8,14.4-2.4,26.1,14.8,15.1,10.5,65.6-8.3,81.3-9.6,8.1-18.2,7.1-24.4,4.3,3.1,8.5,5.4,14.1,5.4,14.1H54.3S69.9,212,74.5,182.7,68.1,142.3,62.8,139.7Z" style="fill:#b78ccf;opacity:0.73;mix-blend-mode:multiply"/><g style="opacity:0.7000000000000001;mix-blend-mode:multiply"><ellipse cx="39.3" cy="192.2" rx="7.8" ry="19" style="fill:#b78ccf"/><path d="M21.6,189.9c-1.7,0-3,1.8-3,3.9s1.3,3.9,3,3.9,2.9-1.8,2.9-3.9S23.2,189.9,21.6,189.9Z" style="fill:#b78ccf"/><path d="M12.6,194.4c0-3.4-2.2-6.2-4.8-6.2a4.1,4.1,0,0,0-1.9.5c.9,3.9,1.9,7.9,2.9,11.8C11,199.8,12.6,197.4,12.6,194.4Z" style="fill:#b78ccf"/><path d="M57.1,197.7c1.6,0,2.9-1.8,2.9-3.9s-1.3-3.9-2.9-3.9-3,1.8-3,3.9S55.4,197.7,57.1,197.7Z" style="fill:#b78ccf"/><path d="M70.8,188.2c-2.6,0-4.7,2.8-4.7,6.2s2,6.1,4.6,6.2c1-3.8,1.9-7.6,2.6-11.4A3.7,3.7,0,0,0,70.8,188.2Z" style="fill:#b78ccf"/></g></g></g></g></g></g></svg>