<svg xmlns="http://www.w3.org/2000/svg" viewBox="0 0 104.9 104.9"><g style="isolation:isolate"><g id="Layer_2" data-name="Layer 2"><g id="Layer_1-2" data-name="Layer 1"><rect x="1.5" y="1.5" width="101.9" height="101.91" style="fill:#af7553"/><rect x="14.8" y="14.8" width="75.2" height="75.25" style="fill:#ce894a"/><path d="M5.3,18a1.1,1.1,0,1,0-1.1-1.1A1.1,1.1,0,0,0,5.3,18Z" style="fill:#353535"/><path d="M10.9,15.8a1.1,1.1,0,1,0,0,2.2,1.1,1.1,0,1,0,0-2.2Z" style="fill:#353535"/><circle cx="6" cy="10.6" r="1.1" style="fill:#353535"/><circle cx="6" cy="5" r="1.1" style="fill:#353535"/><path d="M98.9,11.7a1.1,1.1,0,1,0-1.1-1.1A1.1,1.1,0,0,0,98.9,11.7Z" style="fill:#353535"/><path d="M98.9,6.1A1.1,1.1,0,1,0,97.8,5,1.1,1.1,0,0,0,98.9,6.1Z" style="fill:#353535"/><path d="M6,98.7a1.1,1.1,0,1,0,1.1,1.1A1.1,1.1,0,0,0,6,98.7Z" style="fill:#353535"/><path d="M6,93.1a1.1,1.1,0,1,0,1.1,1.1A1.1,1.1,0,0,0,6,93.1Z" style="fill:#353535"/><path d="M98.9,98.7a1.1,1.1,0,1,0,1.1,1.1A1.1,1.1,0,0,0,98.9,98.7Z" style="fill:#353535"/><path d="M98.9,93.1a1.1,1.1,0,1,0,1.1,1.1A1.1,1.1,0,0,0,98.9,93.1Z" style="fill:#353535"/><path d="M6.4,86.6a1.1,1.1,0,1,0-1.1,1.1A1.1,1.1,0,0,0,6.4,86.6Z" style="fill:#353535"/><path d="M10.9,85.5a1.1,1.1,0,0,0,0,2.2,1.1,1.1,0,1,0,0-2.2Z" style="fill:#353535"/><path d="M94.2,15.8a1.1,1.1,0,0,0,0,2.2,1.1,1.1,0,1,0,0-2.2Z" style="fill:#353535"/><circle cx="99.9" cy="16.9" r="1.1" style="fill:#353535"/><path d="M94.2,85.5a1.1,1.1,0,0,0,0,2.2,1.1,1.1,0,1,0,0-2.2Z" style="fill:#353535"/><circle cx="99.9" cy="86.6" r="1.1" style="fill:#353535"/><g style="opacity:0.30000000000000004;mix-blend-mode:screen"><rect x="2.7" y="13" width="99.2" height="0.63" style="fill:#ffe1c5"/></g><rect x="2.6" y="90.9" width="99.4" height="0.63" style="fill:#ffe1c5;opacity:0.30000000000000004;mix-blend-mode:screen"/><rect x="21.1" y="17.6" width="0.6" height="69.65" style="fill:#efcaab;opacity:0.30000000000000004;mix-blend-mode:screen"/><rect x="36.7" y="17.6" width="0.6" height="69.65" style="fill:#efcaab;opacity:0.30000000000000004;mix-blend-mode:screen"/><rect x="51.9" y="18" width="0.6" height="69.65" style="fill:#efcaab;opacity:0.30000000000000004;mix-blend-mode:screen"/><rect x="67" y="17.6" width="0.6" height="69.65" style="fill:#efcaab;opacity:0.30000000000000004;mix-blend-mode:screen"/><g style="opacity:0.30000000000000004;mix-blend-mode:screen"><rect x="82.1" y="17.6" width="0.6" height="69.65" style="fill:#efcaab"/></g><path d="M103.1,1.8V103.1H1.8V1.8Zm.6-.6H1.2V103.7H103.7V1.2Z" style="fill:#754c24"/><path d="M14.5,14.5V90.4H90.4V14.5ZM87.8,87.8H17.1V17.1H87.8Z" style="fill:#a67c52;opacity:0.7000000000000001;mix-blend-mode:multiply"/><rect x="19.3" y="14.5" width="1.1" height="75.8" style="fill:#a67c52;opacity:0.7000000000000001;mix-blend-mode:multiply"/><rect x="34.8" y="14.5" width="1.1" height="75.8" style="fill:#a67c52;opacity:0.7000000000000001;mix-blend-mode:multiply"/><rect x="50" y="14.5" width="1.1" height="75.8" style="fill:#a67c52;opacity:0.7000000000000001;mix-blend-mode:multiply"/><rect x="65.2" y="14.5" width="1.1" height="75.8" style="fill:#a67c52;opacity:0.7000000000000001;mix-blend-mode:multiply"/><rect x="80.7" y="14.5" width="1.1" height="75.8" style="fill:#a67c52;opacity:0.7000000000000001;mix-blend-mode:multiply"/><rect x="1.2" y="14.5" width="13.3" height="1.07" style="fill:#a67c52;opacity:0.7000000000000001;mix-blend-mode:multiply"/><rect x="90.4" y="14.5" width="13.3" height="1.07" style="fill:#a67c52;opacity:0.7000000000000001;mix-blend-mode:multiply"/><rect x="1.2" y="89.3" width="13.3" height="1.07" style="fill:#a67c52;opacity:0.7000000000000001;mix-blend-mode:multiply"/><rect x="90.4" y="89.3" width="13.3" height="1.07" style="fill:#a67c52;opacity:0.7000000000000001;mix-blend-mode:multiply"/><path d="M1.2,1.2V103.7H103.7V1.2ZM102.1,102.1H2.8V2.8h99.3Z" style="fill:#a67c52;opacity:0.7000000000000001;mix-blend-mode:multiply"/><rect x="1.5" y="1.5" width="101.9" height="101.91" style="fill:none;stroke:#924f28;stroke-linecap:round;stroke-linejoin:round;stroke-width:3px"/><path d="M63,72.7a10.1,10.1,0,0,1-5.3-1.5,10,10,0,0,1-3.8-12.8,10.7,10.7,0,0,1-3.8-1.3,10,10,0,0,1-2.9-2.9A10,10,0,0,1,30.7,42.8a9.5,9.5,0,0,1,6.6-4.5,8.2,8.2,0,0,1,1-2.6,9.3,9.3,0,0,1,7.8-4.2,8.8,8.8,0,0,1,5,1.4l1.1.8a12.8,12.8,0,0,1,6.3-1.8,11.5,11.5,0,0,1,6.2,1.8,11.6,11.6,0,0,1,5.4,11.1l1.2.7a9.1,9.1,0,0,1,1.2,14.7,9.5,9.5,0,0,1-1.1,7.9A9.7,9.7,0,0,1,63,72.7Z" style="fill:#ce894a"/><path d="M46.1,33a8,8,0,0,1,4.2,1.1,9.3,9.3,0,0,1,1.8,1.6,10,10,0,0,1,6.4-2.3,10.8,10.8,0,0,1,5.4,1.5,10.1,10.1,0,0,1,4.5,10.9,9.5,9.5,0,0,1,2.1.9,7.7,7.7,0,0,1,2.6,10.6,6.9,6.9,0,0,1-2.4,2.4A8.2,8.2,0,0,1,63,71.2a8.5,8.5,0,0,1-7.3-12.9A6.5,6.5,0,0,1,57,56.7L55,57a7.8,7.8,0,0,1-4.1-1.2,7.4,7.4,0,0,1-3.5-5.3,9.5,9.5,0,0,1-.9,2.1,8.6,8.6,0,0,1-7.2,3.9A8.5,8.5,0,0,1,32,43.6a7.9,7.9,0,0,1,6.5-3.9,9.4,9.4,0,0,1,1.1-3.2A7.6,7.6,0,0,1,46.1,33m0-3h0a10.4,10.4,0,0,0-9,4.9,10,10,0,0,0-1,2.1,11.4,11.4,0,0,0-2.9,20.7,11.1,11.1,0,0,0,6.1,1.8,11.5,11.5,0,0,0,7.8-3,9.6,9.6,0,0,0,2.2,1.8,12.3,12.3,0,0,0,2.6,1.2,11.8,11.8,0,0,0-.2,5.9A11.6,11.6,0,0,0,63,74.2a11.4,11.4,0,0,0,9.7-5.3,11.7,11.7,0,0,0,1.5-8.2,8.6,8.6,0,0,0,1.4-1.8,10.7,10.7,0,0,0-3.5-14.7l-.4-.3A13.2,13.2,0,0,0,58.5,30.4a12.5,12.5,0,0,0-6.1,1.5l-.6-.3A10.5,10.5,0,0,0,46.1,30Z" style="fill:#a8662f"/><path d="M47.2,73.5a3.6,3.6,0,0,1-2-.6l-7.1-4.4a4.8,4.8,0,0,1-1.7-2.3,3.9,3.9,0,0,1,.5-2.8l2.2-3.5c0-.1.1-.3,0-.4l-1.3-5.6a3.4,3.4,0,0,1,.4-2.8,3.5,3.5,0,0,1,2.3-1.6h.8a3.8,3.8,0,0,1,3.6,2.8l.7,3a.7.7,0,0,0,.7.5.5.5,0,0,0,.5-.3L48,53.5a3.8,3.8,0,0,1,3.1-1.7,3.3,3.3,0,0,1,1.9.6,3.7,3.7,0,0,1,1.7,2.2,3.9,3.9,0,0,1-.5,2.8L53,59.3q-.2.5,0,.6a.7.7,0,0,0,.6.4h.2l3-.7h.8a3.7,3.7,0,0,1,3.6,2.9,3.7,3.7,0,0,1-.5,2.7,3.5,3.5,0,0,1-2.3,1.6L52.8,68a.5.5,0,0,0-.4.3l-2.1,3.5A3.9,3.9,0,0,1,47.2,73.5Z" style="fill:#ce894a"/><path d="M41.3,50.9a2.1,2.1,0,0,1,2.1,1.7l.8,3a2.1,2.1,0,0,0,2.1,1.6,2,2,0,0,0,1.8-1l1.2-1.9a2.2,2.2,0,0,1,1.8-1,1.5,1.5,0,0,1,1.1.4,2.1,2.1,0,0,1,.8,2.9l-1.2,1.9a2.2,2.2,0,0,0,1.8,3.3h.5l3-.7h.5a2.1,2.1,0,0,1,2.1,1.7,2.1,2.1,0,0,1-1.6,2.6l-5.6,1.2a1.9,1.9,0,0,0-1.3,1L49,71a2.2,2.2,0,0,1-1.8,1,1.9,1.9,0,0,1-1.2-.4l-7.1-4.4a2.1,2.1,0,0,1-.7-3l2.1-3.5a2.1,2.1,0,0,0,.3-1.6l-1.4-5.6A2.2,2.2,0,0,1,40.8,51h.5m0-3H40.2a5.6,5.6,0,0,0-3.3,2.3,5.4,5.4,0,0,0-.6,3.9l1.3,5.3-2,3.1a5.5,5.5,0,0,0-.6,4,4.8,4.8,0,0,0,2.3,3.1l7.1,4.5a5.7,5.7,0,0,0,2.8.8,4.8,4.8,0,0,0,4.3-2.5l2-3.1,5.3-1.2A5,5,0,0,0,62,65.9a5.4,5.4,0,0,0,.6-3.9,5.1,5.1,0,0,0-5-4l-1.2.2-1,.2v-.2a5.2,5.2,0,0,0-1.7-7.1,5.3,5.3,0,0,0-2.7-.8,5.2,5.2,0,0,0-4.4,2.4v.2l-.3-1a5,5,0,0,0-5-4Z" style="fill:#a8662f"/></g></g></g></svg>