<svg xmlns="http://www.w3.org/2000/svg" xmlns:xlink="http://www.w3.org/1999/xlink" viewBox="0 0 171.2 216.9"><defs><clipPath id="clip-path"><path d="M137.6,69.1c-8.9,12.2-25.9,11.5-38.2,7.9a45.8,45.8,0,0,0-36.2,4c-11.2,6.3-27.5,10.8-39,.8l-8.9-9.1C-3.6,51.8,23.5,19.1,37,13,61.3,1.1,83.6-1.4,109.9,4.8c16.9,4.7,48.2,28.8,34.4,53.4Z" style="fill:none"/></clipPath><clipPath id="clip-path-2"><path d="M134.4,102.5h0l-2.2.2h0c-.2,3.5-.5,7-.7,10.4,0,.3-.1.6-.1.8v.5a.4.4,0,0,1-.1.3,18.4,18.4,0,0,1-.7,4.2,11.2,11.2,0,0,1-1.1,2.5c-2.7,4.1-8.2,5.2-12.9,6.6a51.1,51.1,0,0,0-23.7,14.9,18.4,18.4,0,0,1,6.4-14.1c2.1-1.9,4.7-3.2,6.6-5.3,3.6-4.1,4-10.1,3.3-15.5s-1.5-8-1.9-12h0a2.5,2.5,0,0,1-.1-.8v-.2a2.2,2.2,0,0,0-.1-.8V91.8H101a11.1,11.1,0,0,1,2.5,4.8.3.3,0,0,1,.1.2,12.4,12.4,0,0,1,.4,3.3,13.6,13.6,0,0,1-.2,2,4.3,4.3,0,0,1-.2,1.1c0,.1-.1.2-.1.3s-.1.5-.2.7a.4.4,0,0,0-.1.3l-.3.8c-.1.1-.1.1-.1.2l-.4,1c-1.4,3.1-3.1,6-3.2,9.3-.1,1.7.3,3.4.1,5.1-.5,3.8-3.6,6.7-6.2,9.6s-5.1,6.8-3.7,10.4c-4.2-.6-6.8-5.2-7.3-9.4s.4-8.6-.1-12.9a27.8,27.8,0,0,0-5-11.9h0a24.3,24.3,0,0,1-1.4-2l-.2-.2L74,102.6l-.3-.3-1.4-1.7-.3-.3-1.5-1.7a7.5,7.5,0,0,0-1.6-1.5c-1.9-.9-3.9.2-5.5,1.6L62.1,100h0l3.8,2,1.2.8a37.2,37.2,0,0,1,4.5,3.3h0a6,6,0,0,1,.8.8h.1l.8.8h0a7.3,7.3,0,0,1,1.7,2.8c.6,1.7.2,4-1.4,4.9s-5-.4-7-2.1l-2.1-1.8h0l-6.7-5.6-.6-.5-.4-.2h-.3l-.9.2-.4.3-5.6,3.1v.3a1,1,0,0,0,.4.9,4,4,0,0,0,1.6,1.2L64,116.2c3.7,1.5,7.6,3.2,9.9,6.4s2.5,6.2,3,9.6,1,6.7,1.4,10a54.1,54.1,0,0,1-11-10.9,32.9,32.9,0,0,0-4.8-5.7c-4.1-3.5-10-4.1-14.9-6.3h0l-.8-.3-.8-.4h0a18.6,18.6,0,0,1-8.9-11.1,20.5,20.5,0,0,1-.5-2.4,3,3,0,0,0-1.6.5,5.3,5.3,0,0,0-2.9,4.9,3.4,3.4,0,0,0,.1,1l.7,3.1.6,1a.3.3,0,0,0,.1.2l.5.9.2.2a2.2,2.2,0,0,0,.5.8v.3a3.5,3.5,0,0,1,.5.8l.2.2.6.8a.3.3,0,0,0,.1.2l.6.8.2.2a2.7,2.7,0,0,0,.7.8c0,.1,0,.1.1.2l.8.8h0a12.7,12.7,0,0,0,6.6,3.8c2.7.6,5.5,0,8.2.6,4.3,1,7.5,4.7,10.3,8.1A100.8,100.8,0,0,0,73,145.6c6,5.5,13.2,9.8,17.5,16.6A30.8,30.8,0,0,1,94.8,181a51.4,51.4,0,0,1-5.3,18.7c-2.2,4.7-4.9,9.4-5.3,14.6,2.7-.1,5.4-.1,8,0l7.1.5h.9l2,.3h.3a106.5,106.5,0,0,0,1.5-19.6v-7.5a68.7,68.7,0,0,0-1.1-13.6,5,5,0,0,0-.2-1.2,26.8,26.8,0,0,0-.7-2.7l-.3-1a26,26,0,0,0-4.4-8.2v-.2a33.7,33.7,0,0,1-2.9-3.7,5.4,5.4,0,0,1-.7-1.3,8.6,8.6,0,0,1-.5-2.7,11.5,11.5,0,0,1,2.4-6.4,24.9,24.9,0,0,1,3.4-3.8,71,71,0,0,1,16-10.7c3.7-1.9,7.4-3.6,11.1-5.3a18.7,18.7,0,0,0,3.2-1.5l1.9-1.6.4-.5h0c1.8-2.3,2.1-5.4,2.3-8.4h0q.4-6.3.6-12.6v-.2Z" style="fill:none"/></clipPath><clipPath id="clip-path-4"><path d="M82.9,117.5c-6.6,7.2-17.4,5.5-25,2.3a29.7,29.7,0,0,0-23.4,0c-7.5,3.2-18.3,4.9-24.9-2.3l-5-6.4c-10.7-14.7,9-33.7,18.1-36.6,16.3-5.8,30.7-5.8,47.1,0,10.5,4.3,28.7,21.9,18.1,36.6Z" style="fill:none"/></clipPath></defs><g id="Layer_2" data-name="Layer 2"><g id="Layer_1-2" data-name="Layer 1"><path d="M137.6,69.1c-8.9,12.2-25.9,11.5-38.2,7.9a45.8,45.8,0,0,0-36.2,4c-11.2,6.3-27.5,10.8-39,.8l-8.9-9.1C-3.6,51.8,23.5,19.1,37,13,61.3,1.1,83.6-1.4,109.9,4.8c16.9,4.7,48.2,28.8,34.4,53.4Z" style="fill:#6c9433;stroke:#507125;stroke-miterlimit:10;stroke-width:3px"/><g style="clip-path:url(#clip-path)"><path d="M116.2,48.2c-7.7,8.8-21.9,8.5-32.1,6.1a45.3,45.3,0,0,0-30.3,3.4c-9.5,4.6-23.2,8.1-32.7,1.1l-7.3-6.3c-15.6-14.6,7.6-38.3,19-42.8C53.3.9,72-1.2,93.9,2.8c14.1,3.2,40,19.8,28,37.5Z" style="fill:#96b85c"/><path d="M140.5,51.9c-3.4,4-9.8,3.9-14.3,2.8a20.3,20.3,0,0,0-13.7,1.5c-4.2,2.1-10.4,3.6-14.6.5l-3.3-2.8c-7-6.6,3.4-17.2,8.5-19.3a45.3,45.3,0,0,1,27.4-3c6.4,1.4,18,8.9,12.6,16.8Z" style="fill:#96b85c"/><path d="M95.8,62.9c-1.7,2-4.7,1.9-7,1.4a9.1,9.1,0,0,0-6.5.7c-2.1,1-5,1.7-7.1.2l-1.5-1.3c-3.4-3.2,1.6-8.3,4.1-9.3A22.1,22.1,0,0,1,91,53.1c3,.7,8.6,4.3,6,8.1Z" style="fill:#96b85c"/><path d="M121.3,65.1c-1.1,1.2-3.1,1.2-4.5.8a7,7,0,0,0-4.3.5c-1.4.7-3.3,1.2-4.6.2l-1.1-.9c-2.2-2.1,1.1-5.4,2.7-6.1a14.1,14.1,0,0,1,8.6-.9c2,.4,5.7,2.8,4,5.3Z" style="fill:#96b85c"/><path d="M57.5,67c-2.1,2.4-5.9,2.3-8.7,1.6a12.6,12.6,0,0,0-8.3,1c-2.6,1.2-6.3,2.2-8.9.3l-2-1.8c-4.3-3.9,2.1-10.4,5.2-11.6a27.2,27.2,0,0,1,16.6-1.9c3.9.9,10.9,5.4,7.7,10.2Z" style="fill:#96b85c"/><path d="M127,26.7c-2.1,2.4-5.9,2.3-8.7,1.7a11.9,11.9,0,0,0-8.3.9c-2.6,1.3-6.3,2.2-8.9.3l-2-1.7c-4.2-4,2.1-10.5,5.2-11.7a27.2,27.2,0,0,1,16.6-1.9c3.9.9,11,5.4,7.7,10.3Z" style="fill:#96b85c"/><path d="M44.4,20.9a1.9,1.9,0,0,1-2,.4,4.4,4.4,0,0,0-2,.2c-.6.3-1.5.6-2.1.1l-.5-.4c-1-.9.5-2.4,1.3-2.7A6.5,6.5,0,0,1,43,18c.9.2,2.6,1.3,1.8,2.4Z" style="fill:#dfe590"/><path d="M50.2,16.4a2.5,2.5,0,0,1-2.1.4,2.5,2.5,0,0,0-1.9.2,2.2,2.2,0,0,1-2.1.1l-.5-.4c-1-1,.5-2.5,1.2-2.8a5.8,5.8,0,0,1,3.9-.4c.9.2,2.6,1.2,1.8,2.4Z" style="fill:#dfe590"/><path d="M67.5,25.2a1.9,1.9,0,0,1-2,.4,3.4,3.4,0,0,0-2,.2c-.6.3-1.5.6-2.1.1l-.5-.4c-1-.9.5-2.5,1.3-2.7a6.5,6.5,0,0,1,3.9-.5c.9.2,2.6,1.3,1.8,2.4Z" style="fill:#dfe590"/><path d="M69.7,9.5a1.4,1.4,0,0,1-1.6.3,2.2,2.2,0,0,0-1.4.2,1.8,1.8,0,0,1-1.6.1l-.3-.4c-.8-.7.3-1.8.9-2a4.8,4.8,0,0,1,2.9-.3c.7.1,1.9.9,1.3,1.8Z" style="fill:#dfe590"/></g><path d="M137.6,69.1c-8.9,12.2-25.9,11.5-38.2,7.9a45.8,45.8,0,0,0-36.2,4c-11.2,6.3-27.5,10.8-39,.8l-8.9-9.1C-3.6,51.8,23.5,19.1,37,13,61.3,1.1,83.6-1.4,109.9,4.8c16.9,4.7,48.2,28.8,34.4,53.4Z" style="fill:none;stroke:#507125;stroke-miterlimit:10;stroke-width:3px"/><path d="M134.4,102.5h0l-2.2.2h0c-.2,3.5-.5,7-.7,10.4,0,.3-.1.6-.1.8v.5a.4.4,0,0,1-.1.3,18.4,18.4,0,0,1-.7,4.2,11.2,11.2,0,0,1-1.1,2.5c-2.7,4.1-8.2,5.2-12.9,6.6a51.1,51.1,0,0,0-23.7,14.9,18.4,18.4,0,0,1,6.4-14.1c2.1-1.9,4.7-3.2,6.6-5.3,3.6-4.1,4-10.1,3.3-15.5s-1.5-8-1.9-12h0a2.5,2.5,0,0,1-.1-.8v-.2a2.2,2.2,0,0,0-.1-.8V91.8H101a11.1,11.1,0,0,1,2.5,4.8.3.3,0,0,1,.1.2,12.4,12.4,0,0,1,.4,3.3,13.6,13.6,0,0,1-.2,2,4.3,4.3,0,0,1-.2,1.1c0,.1-.1.2-.1.3s-.1.5-.2.7a.4.4,0,0,0-.1.3l-.3.8c-.1.1-.1.1-.1.2l-.4,1c-1.4,3.1-3.1,6-3.2,9.3-.1,1.7.3,3.4.1,5.1-.5,3.8-3.6,6.7-6.2,9.6s-5.1,6.8-3.7,10.4c-4.2-.6-6.8-5.2-7.3-9.4s.4-8.6-.1-12.9a27.8,27.8,0,0,0-5-11.9h0a24.3,24.3,0,0,1-1.4-2l-.2-.2L74,102.6l-.3-.3-1.4-1.7-.3-.3-1.5-1.7a7.5,7.5,0,0,0-1.6-1.5c-1.9-.9-3.9.2-5.5,1.6L62.1,100h0l3.8,2,1.2.8a37.2,37.2,0,0,1,4.5,3.3h0a6,6,0,0,1,.8.8h.1l.8.8h0a7.3,7.3,0,0,1,1.7,2.8c.6,1.7.2,4-1.4,4.9s-5-.4-7-2.1l-2.1-1.8h0l-6.7-5.6-.6-.5-.4-.2h-.3l-.9.2-.4.3-5.6,3.1v.3a1,1,0,0,0,.4.9,4,4,0,0,0,1.6,1.2L64,116.2c3.7,1.5,7.6,3.2,9.9,6.4s2.5,6.2,3,9.6,1,6.7,1.4,10a54.1,54.1,0,0,1-11-10.9,32.9,32.9,0,0,0-4.8-5.7c-4.1-3.5-10-4.1-14.9-6.3h0l-.8-.3-.8-.4h0a18.6,18.6,0,0,1-8.9-11.1,20.5,20.5,0,0,1-.5-2.4,3,3,0,0,0-1.6.5,5.3,5.3,0,0,0-2.9,4.9,3.4,3.4,0,0,0,.1,1l.7,3.1.6,1a.3.3,0,0,0,.1.2l.5.9.2.2a2.2,2.2,0,0,0,.5.8v.3a3.5,3.5,0,0,1,.5.8l.2.2.6.8a.3.3,0,0,0,.1.2l.6.8.2.2a2.7,2.7,0,0,0,.7.8c0,.1,0,.1.1.2l.8.8h0a12.7,12.7,0,0,0,6.6,3.8c2.7.6,5.5,0,8.2.6,4.3,1,7.5,4.7,10.3,8.1A100.8,100.8,0,0,0,73,145.6c6,5.5,13.2,9.8,17.5,16.6A30.8,30.8,0,0,1,94.8,181a51.4,51.4,0,0,1-5.3,18.7c-2.2,4.7-4.9,9.4-5.3,14.6,2.7-.1,5.4-.1,8,0l7.1.5h.9l2,.3h.3a106.5,106.5,0,0,0,1.5-19.6v-7.5a68.7,68.7,0,0,0-1.1-13.6,5,5,0,0,0-.2-1.2,26.8,26.8,0,0,0-.7-2.7l-.3-1a26,26,0,0,0-4.4-8.2v-.2a33.7,33.7,0,0,1-2.9-3.7,5.4,5.4,0,0,1-.7-1.3,8.6,8.6,0,0,1-.5-2.7,11.5,11.5,0,0,1,2.4-6.4,24.9,24.9,0,0,1,3.4-3.8,71,71,0,0,1,16-10.7c3.7-1.9,7.4-3.6,11.1-5.3a18.7,18.7,0,0,0,3.2-1.5l1.9-1.6.4-.5h0c1.8-2.3,2.1-5.4,2.3-8.4h0q.4-6.3.6-12.6v-.2Z" style="fill:#ce894a"/><g style="clip-path:url(#clip-path-2)"><path d="M171.1,90.2c-1.3-11.1-10.9-21.9-17.1-25.7h0a13.6,13.6,0,0,0-2.4-1.3l-.2-.2A53.9,53.9,0,0,0,141,58.6c-10.7-3.6-21.5-4.3-34-2.1-4.6.6-11.2,4.1-16.4,8.6S81.1,76.3,80.6,82a24,24,0,0,0-4.7-2.5c-10.1-3.6-19.6-5-29-4.2a45.9,45.9,0,0,0-24.1,2.3C17.2,79.5,5.5,90,7.9,100c-2.4,6.4-1.9,12.4,1.8,17.4l5,6.5h0c8.3,9,22,4.2,26,2.5a28.9,28.9,0,0,1,22.7,0,35.3,35.3,0,0,0,12.8,2.8c4.6,0,9.4-1.2,13.1-5.3l5.1-6.5a17.5,17.5,0,0,0,3.3-12,33.8,33.8,0,0,0,13.7-.5,28.5,28.5,0,0,1,22.4,3.8c3.7,2.3,16.4,9.3,26,1.9l6.1-5.6A17.2,17.2,0,0,0,171.1,90.2Z" style="fill:#af7553"/></g><g style="clip-path:url(#clip-path-2)"><path d="M96.8,190.9A46.7,46.7,0,0,0,93,214.6l3.3.4a81.3,81.3,0,0,1,4.7-24.8,117.1,117.1,0,0,0,3.6-13.1c-.4-.9-.7-1.8-1.1-2.6v.4C101.9,180.6,99,185.6,96.8,190.9Z" style="fill:#ddab88"/><path d="M98.5,144.8c-.3,1.1-2.3,1.2-2.6,2.2s-1.3,2.2-2,3.7c1.2-6.9-.2-14.1-1.8-21.2l-1,2.7a12.1,12.1,0,0,1-.5,1.4c1.4,6.8,2.9,13.7,1.6,20.8-1,2-2,4-2.9,6a47.3,47.3,0,0,0-1.6-12.8c-1.1-4.5-2.2-8.7-3.1-12.9L82,130.8c.8,9.6,5,19.4,5.7,29.2a28.8,28.8,0,0,1,.8,10.5,13.3,13.3,0,0,1,.5-1.9c1.3-5.1,3.7-9.9,5.8-14.8a20.9,20.9,0,0,1,.8-4.8C96.2,147,98.2,146.9,98.5,144.8Z" style="fill:#ddab88"/><path d="M94.8,127.3l-.8,1.4a28.3,28.3,0,0,0,3,4.4l.3-.7c.2-.5.5-1.1.7-1.7S95.8,128.5,94.8,127.3Z" style="fill:#ddab88"/><path d="M96.1,126c0,.1-.1.1-.1.2a26.7,26.7,0,0,0,2.2,4.5,12.8,12.8,0,0,1,1.5-2.5,38.7,38.7,0,0,1-2.7-4.3Z" style="fill:#ddab88"/><path d="M82.3,127.4a28.5,28.5,0,0,1-5.9,6.1,3.4,3.4,0,0,1,.1,1,29.9,29.9,0,0,0,5.4-4.6C82,129.1,82.1,128.3,82.3,127.4Z" style="fill:#ddab88"/><path d="M69.3,128a119.1,119.1,0,0,1,1.3,16l1.5,2.7c-.2-4.6-.2-9.1-.6-13.7A42.5,42.5,0,0,1,69.3,128Z" style="fill:#ddab88"/><path d="M103,214.5l1.1-.2c-.2-6.6-.6-13.3.8-19.9a82,82,0,0,1,3-9.6,8.8,8.8,0,0,1-.5-1.5,97.7,97.7,0,0,0-4.6,12.4C101.1,201.8,102.1,208.3,103,214.5Z" style="fill:#ddab88"/><path d="M90.3,214l.6.2c.2-15,5.7-29.7,11.1-43.8l-.3-1.2C95,183.7,89.6,197.9,90.3,214Z" style="fill:#ddab88"/></g><path d="M134.4,102.5h0l-2.2.2h0c-.2,3.5-.5,7-.7,10.4,0,.3-.1.6-.1.8v.5a.4.4,0,0,1-.1.3,18.4,18.4,0,0,1-.7,4.2,11.2,11.2,0,0,1-1.1,2.5c-2.7,4.1-8.2,5.2-12.9,6.6a51.1,51.1,0,0,0-23.7,14.9,18.4,18.4,0,0,1,6.4-14.1c2.1-1.9,4.7-3.2,6.6-5.3,3.6-4.1,4-10.1,3.3-15.5s-1.5-8-1.9-12h0a2.5,2.5,0,0,1-.1-.8v-.2a2.2,2.2,0,0,0-.1-.8V91.8H101a11.1,11.1,0,0,1,2.5,4.8.3.3,0,0,1,.1.2,12.4,12.4,0,0,1,.4,3.3,13.6,13.6,0,0,1-.2,2,4.3,4.3,0,0,1-.2,1.1c0,.1-.1.2-.1.3s-.1.5-.2.7a.4.4,0,0,0-.1.3l-.3.8c-.1.1-.1.1-.1.2l-.4,1c-1.4,3.1-3.1,6-3.2,9.3-.1,1.7.3,3.4.1,5.1-.5,3.8-3.6,6.7-6.2,9.6s-5.1,6.8-3.7,10.4c-4.2-.6-6.8-5.2-7.3-9.4s.4-8.6-.1-12.9a27.8,27.8,0,0,0-5-11.9h0a24.3,24.3,0,0,1-1.4-2l-.2-.2L74,102.6l-.3-.3-1.4-1.7-.3-.3-1.5-1.7a7.5,7.5,0,0,0-1.6-1.5c-1.9-.9-3.9.2-5.5,1.6L62.1,100h0l3.8,2,1.2.8a37.2,37.2,0,0,1,4.5,3.3h0a6,6,0,0,1,.8.8h.1l.8.8h0a7.3,7.3,0,0,1,1.7,2.8c.6,1.7.2,4-1.4,4.9s-5-.4-7-2.1l-2.1-1.8h0l-6.7-5.6-.6-.5-.4-.2h-.3l-.9.2-.4.3-5.6,3.1v.3a1,1,0,0,0,.4.9,4,4,0,0,0,1.6,1.2L64,116.2c3.7,1.5,7.6,3.2,9.9,6.4s2.5,6.2,3,9.6,1,6.7,1.4,10a54.1,54.1,0,0,1-11-10.9,32.9,32.9,0,0,0-4.8-5.7c-4.1-3.5-10-4.1-14.9-6.3h0l-.8-.3-.8-.4h0a18.6,18.6,0,0,1-8.9-11.1,20.5,20.5,0,0,1-.5-2.4,3,3,0,0,0-1.6.5,5.3,5.3,0,0,0-2.9,4.9,3.4,3.4,0,0,0,.1,1l.7,3.1.6,1a.3.3,0,0,0,.1.2l.5.9.2.2a2.2,2.2,0,0,0,.5.8v.3a3.5,3.5,0,0,1,.5.8l.2.2.6.8a.3.3,0,0,0,.1.2l.6.8.2.2a2.7,2.7,0,0,0,.7.8c0,.1,0,.1.1.2l.8.8h0a12.7,12.7,0,0,0,6.6,3.8c2.7.6,5.5,0,8.2.6,4.3,1,7.5,4.7,10.3,8.1A100.8,100.8,0,0,0,73,145.6c6,5.5,13.2,9.8,17.5,16.6A30.8,30.8,0,0,1,94.8,181a51.4,51.4,0,0,1-5.3,18.7c-2.2,4.7-4.9,9.4-5.3,14.6,2.7-.1,5.4-.1,8,0l7.1.5h.9l2,.3h.3a106.5,106.5,0,0,0,1.5-19.6v-7.5a68.7,68.7,0,0,0-1.1-13.6,5,5,0,0,0-.2-1.2,26.8,26.8,0,0,0-.7-2.7l-.3-1a26,26,0,0,0-4.4-8.2v-.2a33.7,33.7,0,0,1-2.9-3.7,5.4,5.4,0,0,1-.7-1.3,8.6,8.6,0,0,1-.5-2.7,11.5,11.5,0,0,1,2.4-6.4,24.9,24.9,0,0,1,3.4-3.8,71,71,0,0,1,16-10.7c3.7-1.9,7.4-3.6,11.1-5.3a18.7,18.7,0,0,0,3.2-1.5l1.9-1.6.4-.5h0c1.8-2.3,2.1-5.4,2.3-8.4h0q.4-6.3.6-12.6v-.2Z" style="fill:none;stroke:#75411a;stroke-miterlimit:10;stroke-width:3px"/><path d="M82.9,117.5c-6.6,7.2-17.4,5.5-25,2.3a29.7,29.7,0,0,0-23.4,0c-7.5,3.2-18.3,4.9-24.9-2.3l-5-6.4c-10.7-14.7,9-33.7,18.1-36.6,16.3-5.8,30.7-5.8,47.1,0,10.5,4.3,28.7,21.9,18.1,36.6Z" style="fill:#6c9433;stroke:#507125;stroke-miterlimit:10;stroke-width:3px"/><g style="clip-path:url(#clip-path-4)"><path d="M58.8,102.4c-4.5,4.9-12,3.8-17.2,1.5a20.5,20.5,0,0,0-16.1,0c-5.3,2.3-12.7,3.4-17.2-1.5L4.8,97.9C-2.5,87.7,11,74.7,17.3,72.7c11.3-4,21.2-4,32.5,0,7.2,2.9,19.8,15,12.5,25.2Z" style="fill:#96b85c"/><path d="M66.4,87.5c-1.7,2-4.6,1.5-6.7.6a8.6,8.6,0,0,0-6.3,0c-2.1.9-5,1.4-6.7-.6l-1.4-1.7c-2.9-4,2.5-9.1,4.9-9.9a17.4,17.4,0,0,1,12.7,0c2.8,1.2,7.8,5.9,4.9,9.9Z" style="fill:#96b85c"/><path d="M73.4,111.6c-1.7,1.9-4.6,1.4-6.7.6a7.7,7.7,0,0,0-6.3,0c-2,.8-4.9,1.3-6.7-.6l-1.4-1.8c-2.8-4,2.5-9.1,4.9-9.9a18.5,18.5,0,0,1,12.7,0c2.8,1.2,7.8,5.9,4.9,9.9Z" style="fill:#96b85c"/><path d="M81.7,100.1c-2.2,2.4-5.7,1.8-8.2.8a9.4,9.4,0,0,0-7.7,0c-2.5,1-6,1.6-8.1-.8L56,98c-3.5-4.8,3-11,5.9-12a21.8,21.8,0,0,1,15.5,0c3.4,1.4,9.4,7.2,5.9,12Z" style="fill:#96b85c"/><path d="M52,106.9c-1,1.1-2.7.9-3.9.4a4.5,4.5,0,0,0-3.6,0c-1.2.5-2.9.7-3.9-.4l-.8-1c-1.6-2.3,1.4-5.2,2.8-5.7a10.5,10.5,0,0,1,7.4,0c1.6.7,4.4,3.4,2.8,5.7Z" style="fill:#96b85c"/><path d="M24.4,80.4c-.3.4-.9.3-1.3.1a1.5,1.5,0,0,0-1.3,0,1.2,1.2,0,0,1-1.4-.1l-.3-.4c-.5-.8.5-1.8,1-2a3.9,3.9,0,0,1,2.6,0c.6.2,1.6,1.2,1,2Z" style="fill:#dfe590"/><path d="M40.6,87a2.4,2.4,0,0,1-2.7.2,3.6,3.6,0,0,0-2.5,0,2.4,2.4,0,0,1-2.7-.2l-.5-.7c-1.1-1.6,1-3.6,1.9-4a7.5,7.5,0,0,1,5.1,0c1.1.5,3.1,2.4,1.9,4Z" style="fill:#dfe590"/><path d="M43.2,81.8c-.3.3-.7.2-1.1.1a1.7,1.7,0,0,0-1,0c-.3.1-.8.2-1-.1l-.3-.3c-.4-.6.4-1.4.8-1.6a3.4,3.4,0,0,1,2,0c.5.2,1.3,1,.8,1.6Z" style="fill:#dfe590"/><path d="M34.9,111.4c-2,2.2-5.2,1.7-7.5.7a8.3,8.3,0,0,0-6.9,0c-2.3,1-5.5,1.5-7.4-.7l-1.5-1.9c-3.2-4.4,2.7-10,5.4-10.9a19.9,19.9,0,0,1,14,0c3.1,1.3,8.5,6.5,5.3,10.9Z" style="fill:#96b85c"/></g><path d="M82.9,117.5c-6.6,7.2-17.4,5.5-25,2.3a29.7,29.7,0,0,0-23.4,0c-7.5,3.2-18.3,4.9-24.9-2.3l-5-6.4c-10.7-14.7,9-33.7,18.1-36.6,16.3-5.8,30.7-5.8,47.1,0,10.5,4.3,28.7,21.9,18.1,36.6Z" style="fill:none;stroke:#507125;stroke-miterlimit:10;stroke-width:3px"/><path d="M153.5,104.1c-7.7,6-18.1,2.5-25-2a29.8,29.8,0,0,0-23.1-3.9c-8,1.9-18.9,1.8-24.2-6.4l-3.8-7.3c-8-16.2,14.5-31.6,24-33,17.1-3,31.3-.5,46.4,7.9,9.6,6,24.7,26.4,11.7,39.2Z" style="fill:#6c9433;stroke:#507125;stroke-miterlimit:10;stroke-width:3px"/><path d="M149,87.6c-5.1,3.9-12,1.6-16.6-1.3a18.9,18.9,0,0,0-15.2-2.6c-5.3,1.2-12.6,1.1-16.1-4.3l-2.5-4.8c-5.3-10.8,9.6-20.9,15.9-21.8A43.4,43.4,0,0,1,145.2,58c6.4,4,16.3,17.5,7.8,25.9Z" style="fill:#96b85c"/><path d="M146.3,96c-2.5,1.9-5.9.8-8.2-.7a9.9,9.9,0,0,0-7.5-1.3c-2.7.7-6.3.6-8-2.1l-1.3-2.3c-2.6-5.4,4.8-10.4,7.9-10.9a21.6,21.6,0,0,1,15.3,2.6c3.1,2,8.1,8.7,3.8,12.9Z" style="fill:#96b85c"/><path d="M104.3,74.1c-1.9,1.5-4.3.6-6-.4a7.4,7.4,0,0,0-5.6-1c-1.9.5-4.6.4-5.8-1.5l-1-1.8c-1.9-3.9,3.6-7.6,5.8-7.9a15.1,15.1,0,0,1,11.2,1.9c2.4,1.4,6,6.3,2.9,9.4Z" style="fill:#96b85c"/><path d="M110,87.9c-1.8,1.4-4.3.6-6-.5a6.7,6.7,0,0,0-5.5-.9c-2,.4-4.6.4-5.9-1.6l-.9-1.7c-1.9-4,3.5-7.7,5.8-8a16.3,16.3,0,0,1,11.2,1.9c2.3,1.4,5.9,6.4,2.8,9.4Z" style="fill:#96b85c"/><path d="M110.7,60a2.6,2.6,0,0,1-2.8-.2,3.4,3.4,0,0,0-2.6-.5,2.5,2.5,0,0,1-2.7-.7l-.4-.8c-.9-1.8,1.6-3.6,2.7-3.7a7.3,7.3,0,0,1,5.2.9c1,.6,2.7,2.9,1.3,4.4Z" style="fill:#96b85c"/><path d="M153.7,89.5a2.6,2.6,0,0,1-2.8-.2,3.4,3.4,0,0,0-2.6-.5,2.5,2.5,0,0,1-2.7-.7l-.4-.8c-.9-1.8,1.6-3.6,2.7-3.7a7.3,7.3,0,0,1,5.2.9c1,.6,2.7,2.9,1.3,4.4Z" style="fill:#96b85c"/><path d="M142.6,64.3a1.4,1.4,0,0,1-1.4-.1,1.8,1.8,0,0,0-1.4-.3,1.2,1.2,0,0,1-1.4-.4l-.3-.4c-.4-.9.9-1.9,1.4-1.9a3.8,3.8,0,0,1,2.8.4c.6.4,1.5,1.6.7,2.3Z" style="fill:#dfe590"/><path d="M126.4,58.7c-.3.3-.7.1-1-.1a1.1,1.1,0,0,0-1-.1c-.3,0-.8,0-1-.3v-.3c-.4-.7.6-1.3,1-1.4a3.1,3.1,0,0,1,1.9.3c.4.3,1,1.1.5,1.7Z" style="fill:#dfe590"/><path d="M103.4,65.3c-.3.3-.8.1-1.1-.1a.9.9,0,0,0-.9-.1c-.3,0-.8,0-1-.3l-.2-.3c-.3-.7.6-1.3,1-1.4a2.9,2.9,0,0,1,2,.4c.4.2,1,1,.4,1.6Z" style="fill:#dfe590"/><path d="M124.3,55.8a.5.5,0,0,1-.6,0,.7.7,0,0,0-.6-.1,1,1,0,0,1-.7-.2v-.2c-.2-.4.4-.8.7-.8a1.7,1.7,0,0,1,1.2.2c.2.1.6.7.3,1Z" style="fill:#dfe590"/><path d="M132.6,67c-.8.7-1.9.3-2.7-.2a3.1,3.1,0,0,0-2.5-.4c-.9.2-2.1.2-2.6-.7l-.5-.8c-.8-1.8,1.6-3.5,2.7-3.6a6.8,6.8,0,0,1,5,.9c1.1.6,2.7,2.8,1.3,4.2Z" style="fill:#dfe590"/><path d="M153.5,104.1c-7.7,6-18.1,2.5-25-2a29.8,29.8,0,0,0-23.1-3.9c-8,1.9-18.9,1.8-24.2-6.4l-3.8-7.3c-8-16.2,14.5-31.6,24-33,17.1-3,31.3-.5,46.4,7.9,9.6,6,24.7,26.4,11.7,39.2Z" style="fill:none;stroke:#507125;stroke-miterlimit:10;stroke-width:3px"/><path d="M107,35.4c-2.5,0-5.5-.8-6.7-2.7a5,5,0,0,1-.4-4,6.1,6.1,0,0,1,.5-1.2,8.7,8.7,0,0,1,4.1-3.9,9.1,9.1,0,0,1,4-1l1.6.2a6,6,0,0,1,1.9.6,4.5,4.5,0,0,1,2.6,3.9c.2,3.2-1.6,6-4.8,7.6a7.2,7.2,0,0,1-2.8.5Z" style="fill:#84205c"/><path d="M108.5,24.1h1.3a6.6,6.6,0,0,1,1.5.5,3.3,3.3,0,0,1,1.8,2.7,6.1,6.1,0,0,1-4,6.1,4.4,4.4,0,0,1-2.1.4c-2,0-4.6-.7-5.4-2a3.4,3.4,0,0,1-.2-2.8,3.2,3.2,0,0,1,.3-.9,8,8,0,0,1,3.5-3.3,7.6,7.6,0,0,1,3.3-.8m0-3a10.8,10.8,0,0,0-4.7,1.1A11.9,11.9,0,0,0,99,26.8a8.8,8.8,0,0,0-.5,1.5,5.7,5.7,0,0,0,.6,5.1c1.6,2.6,5.2,3.5,7.9,3.5a7.8,7.8,0,0,0,3.5-.7,9.2,9.2,0,0,0,5.6-9,6.3,6.3,0,0,0-3.4-5.1,9,9,0,0,0-2.3-.8l-1.9-.2Z" style="fill:#5c1612"/><path d="M106,26.3c1.1-.6,1.6-3.2,0-4.1s-3.9.8-3.8,2.2S104.8,26.9,106,26.3Z" style="fill:#6c9433"/><path d="M106.7,30.5c.5.4-1.3,2-1.8,1.9s.2-.7.2-.7-1.3.3-1.6-.2.4-1.6.9-1.6,1.1,1.1,1.1,1.1S106.3,30.1,106.7,30.5Z" style="fill:#e8a4d2"/><path d="M106.5,26.1c-.6-.4.4-3.2,1.5-3.8s3.3-.4,3.3.8S108.9,27.4,106.5,26.1Z" style="fill:#6c9433"/><path d="M104.9,26.6a7.3,7.3,0,0,1-1-3.2c0-.4-.1-.7-.1-1a2.5,2.5,0,0,1,.3-2l.3-.3a2.8,2.8,0,0,1,1.3-.3,2.1,2.1,0,0,1,1.7.7,2.5,2.5,0,0,1,.2.7v.2a1.9,1.9,0,0,1-.2.7,3.8,3.8,0,0,0-.3,1.5,4.2,4.2,0,0,0,.1,1.7l.6.9-1,.5-1.4.7Z" style="fill:#a8662f"/><path d="M105.7,20.8a1.4,1.4,0,0,1,.9.3v.2h0a6.1,6.1,0,0,0-.5,2.2,4.7,4.7,0,0,0,.2,2.3l-.5.3a6.1,6.1,0,0,1-.9-2.8c-.1-1.2-.3-2,0-2.3a.1.1,0,0,1,.1-.1h.7m0-2a3.4,3.4,0,0,0-1.8.4l-.6.6a3.7,3.7,0,0,0-.5,2.7c0,.3.1.6.1.9a8.4,8.4,0,0,0,1.1,3.7l1,1.7,1.7-.9.6-.3,1.9-1.1-1.1-1.6a4.5,4.5,0,0,1,0-1.2,2.5,2.5,0,0,1,.2-1.2,2.9,2.9,0,0,0,.3-1.1h0a1.6,1.6,0,0,0-.4-1.2,3,3,0,0,0-2.5-1.2Z" style="fill:#75411a"/><path d="M105,26.2a1.9,1.9,0,0,1,2.8-1.4c2.2.9,2.5,3.9,1.4,4.5A3.2,3.2,0,0,1,106,29a4.5,4.5,0,0,1-.9-2,2.4,2.4,0,0,1-2,2.2,2.6,2.6,0,0,1-3-1.5,3.6,3.6,0,0,1,2.7-2.5A2.5,2.5,0,0,1,105,26.2Z" style="fill:#6c9433"/><path d="M106.9,23.6a2.9,2.9,0,0,1,1.1-1.3c1-.5,3.3-.4,3.3.8a4,4,0,0,1-2.1,2.9c.8,1.2.7,2.8,0,3.3A3.2,3.2,0,0,1,106,29a4.5,4.5,0,0,1-.9-2,2.4,2.4,0,0,1-2,2.2,2.6,2.6,0,0,1-3-1.5,3.8,3.8,0,0,1,2.5-2.5,1.2,1.2,0,0,1-.4-.8c-.1-.8.6-1.6,1.5-2.1" style="fill:none;stroke:#507125;stroke-linecap:round;stroke-linejoin:round;stroke-width:3px"/><path d="M74.4,59.5a7.2,7.2,0,0,1-2.8-.5c-3.2-1.6-5-4.4-4.8-7.6a4.5,4.5,0,0,1,2.6-3.9,6,6,0,0,1,1.9-.6l1.6-.2a9.1,9.1,0,0,1,4,1A8.7,8.7,0,0,1,81,51.6a6.1,6.1,0,0,1,.5,1.2,5,5,0,0,1-.4,4C79.9,58.7,76.9,59.5,74.4,59.5Z" style="fill:#84205c"/><path d="M72.9,48.2a7.6,7.6,0,0,1,3.3.8,8,8,0,0,1,3.5,3.3l.4.9a3.4,3.4,0,0,1-.3,2.8c-.8,1.3-3.3,2-5.4,2a4.4,4.4,0,0,1-2.1-.4,6.1,6.1,0,0,1-4-6.1,3.3,3.3,0,0,1,1.8-2.7l1.5-.5h1.3m0-3h0l-1.9.2a9,9,0,0,0-2.3.8,6.3,6.3,0,0,0-3.4,5.1,9.1,9.1,0,0,0,5.7,9,7.1,7.1,0,0,0,3.4.7c2.7,0,6.3-.9,7.9-3.5a5.7,5.7,0,0,0,.6-5.1,8.8,8.8,0,0,0-.5-1.5,11.3,11.3,0,0,0-4.8-4.6,10.8,10.8,0,0,0-4.7-1.1Z" style="fill:#5c1612"/><path d="M75.4,50.4c-1.1-.6-1.6-3.2,0-4.1s3.9.8,3.8,2.2S76.6,51,75.4,50.4Z" style="fill:#6c9433"/><path d="M74.7,54.6c-.5.4,1.4,2,1.8,1.9s-.2-.7-.2-.7,1.3.3,1.6-.2S77.5,54,77,54s-1.1,1.1-1.1,1.1S75.1,54.2,74.7,54.6Z" style="fill:#e8a4d2"/><path d="M74.9,50.2c.6-.4-.4-3.2-1.5-3.7s-3.3-.5-3.3.7S72.5,51.5,74.9,50.2Z" style="fill:#6c9433"/><path d="M73.6,50.3l.6-1h0a3.4,3.4,0,0,0,.1-1.6,3.8,3.8,0,0,0-.3-1.5,1.9,1.9,0,0,1-.2-.7h0a1.4,1.4,0,0,1,.2-.6,1.9,1.9,0,0,1,1.7-.8,2.8,2.8,0,0,1,1.3.3l.3.3a2.5,2.5,0,0,1,.3,2c0,.3-.1.6-.1,1a7.3,7.3,0,0,1-1,3.2l-.5.8Z" style="fill:#a8662f"/><path d="M75.7,44.9h.8c.3.3.1,1.1,0,2.3a6.1,6.1,0,0,1-.9,2.8l-.5-.3a4.7,4.7,0,0,0,.2-2.3,6.1,6.1,0,0,0-.5-2.2h0v-.2a1.4,1.4,0,0,1,.9-.3m0-2h0a3,3,0,0,0-2.5,1.2,1.6,1.6,0,0,0-.4,1.2h0v.2a2.9,2.9,0,0,0,.3,1,2.5,2.5,0,0,1,.2,1.2,4.5,4.5,0,0,1,0,1.2l-1.1,1.6,1.9,1.1.6.3,1.7.9,1-1.7a8.4,8.4,0,0,0,1.1-3.7c0-.3.1-.6.1-.9a3.3,3.3,0,0,0-.5-2.7l-.6-.6a3.4,3.4,0,0,0-1.8-.4Z" style="fill:#75411a"/><path d="M76.4,50.3a1.9,1.9,0,0,0-2.8-1.4c-2.2.9-2.5,3.9-1.4,4.5a3.2,3.2,0,0,0,3.2-.3,4.5,4.5,0,0,0,.9-2,2.4,2.4,0,0,0,2,2.2,2.6,2.6,0,0,0,3-1.5,3.6,3.6,0,0,0-2.7-2.5A2.5,2.5,0,0,0,76.4,50.3Z" style="fill:#6c9433"/><path d="M74.5,47.7a2.6,2.6,0,0,0-1.1-1.2c-1-.6-3.3-.5-3.3.7a4,4,0,0,0,2.1,2.9c-.8,1.2-.7,2.8,0,3.3a3.2,3.2,0,0,0,3.2-.3,4.5,4.5,0,0,0,.9-2,2.4,2.4,0,0,0,2,2.2,2.6,2.6,0,0,0,3-1.5,3.8,3.8,0,0,0-2.5-2.5,1.2,1.2,0,0,0,.4-.8c.1-.8-.6-1.6-1.5-2.1" style="fill:none;stroke:#507125;stroke-linecap:round;stroke-linejoin:round;stroke-width:3px"/><path d="M116.5,83.3a5.9,5.9,0,0,1-2.8-.6,7.6,7.6,0,0,1-4.8-7.6,4.5,4.5,0,0,1,2.6-3.8,5.4,5.4,0,0,1,1.9-.7h1.5a9.1,9.1,0,0,1,4.1.9,9.7,9.7,0,0,1,4.1,3.9,5.6,5.6,0,0,1,.4,1.2,4.6,4.6,0,0,1-.4,4C121.9,82.4,118.9,83.3,116.5,83.3Z" style="fill:#84205c"/><path d="M114.9,72a7.3,7.3,0,0,1,6.8,4,3.6,3.6,0,0,1,.4.9,3.3,3.3,0,0,1-.3,2.8c-.8,1.3-3.3,2.1-5.3,2.1a6.7,6.7,0,0,1-2.2-.4,6.4,6.4,0,0,1-3.9-6.2,3.1,3.1,0,0,1,1.8-2.6,3.4,3.4,0,0,1,1.4-.5h1.3m0-3h-1.8a12.3,12.3,0,0,0-2.3.8,6.3,6.3,0,0,0-3.4,5.2c-.2,3.8,1.8,7.1,5.6,9a8.7,8.7,0,0,0,3.5.7c2.6,0,6.3-.9,7.9-3.5a6.7,6.7,0,0,0,.6-5.2l-.6-1.4a10.6,10.6,0,0,0-9.5-5.7Z" style="fill:#5c1612"/><path d="M117.5,74.1a2.4,2.4,0,0,1,0-4c1.5-.9,3.9.8,3.8,2.1S118.6,74.8,117.5,74.1Z" style="fill:#6c9433"/><path d="M116.7,78.3c-.4.4,1.4,2.1,1.8,2s-.1-.8-.1-.8,1.3.4,1.6-.1-.5-1.7-.9-1.6-1.2,1-1.2,1S117.1,78,116.7,78.3Z" style="fill:#e8a4d2"/><path d="M116.9,73.9c.7-.4-.4-3.1-1.4-3.7s-3.3-.5-3.4.8S114.5,75.2,116.9,73.9Z" style="fill:#6c9433"/><path d="M115.7,74l.6-.9h0a4.2,4.2,0,0,0,.1-1.7,2.5,2.5,0,0,0-.4-1.5,6.4,6.4,0,0,1-.2-.7h0a.9.9,0,0,1,.3-.7,2,2,0,0,1,1.7-.8,2.4,2.4,0,0,1,1.2.3l.4.3a2.9,2.9,0,0,1,.2,2.1v.9a9,9,0,0,1-1,3.3l-.5.8Z" style="fill:#a8662f"/><path d="M117.8,68.6l.7.2h.1a9,9,0,0,1,0,2.4,7.7,7.7,0,0,1-.9,2.7l-.6-.3s.4-.5.3-2.2a5.5,5.5,0,0,0-.6-2.3h.1a1,1,0,0,1,.9-.4m0-2h0a2.8,2.8,0,0,0-2.5,1.2,3.1,3.1,0,0,0-.5,1.2h0a6.2,6.2,0,0,0,.3,1,3,3,0,0,1,.3,1.2v1.2l-1.2,1.6,2,1.1.5.3,1.7.9,1-1.6a9.4,9.4,0,0,0,1.2-3.7v-1a3.7,3.7,0,0,0-.4-2.7l-.6-.5a3.7,3.7,0,0,0-1.8-.5Z" style="fill:#75411a"/><path d="M118.5,74a2,2,0,0,0-2.8-1.4c-2.2.9-2.5,3.9-1.4,4.5a3.3,3.3,0,0,0,3.2-.2,4.5,4.5,0,0,0,.9-2,2.2,2.2,0,0,0,1.9,2.1c1.9.3,3-.9,3-1.5s-1.2-2.3-2.7-2.5A2.2,2.2,0,0,0,118.5,74Z" style="fill:#6c9433"/><path d="M116.5,71.4a4.2,4.2,0,0,0-1-1.2c-1.1-.6-3.3-.5-3.4.8a4.1,4.1,0,0,0,2.1,2.8c-.8,1.3-.7,2.9.1,3.3a3.3,3.3,0,0,0,3.2-.2,4.5,4.5,0,0,0,.9-2,2.2,2.2,0,0,0,1.9,2.1c1.9.3,3-.9,3-1.5s-1.1-2.1-2.4-2.4a3.6,3.6,0,0,0,.4-.9,2.6,2.6,0,0,0-1.6-2" style="fill:none;stroke:#507125;stroke-linecap:round;stroke-linejoin:round;stroke-width:3px"/><path d="M39.2,86.9a7.2,7.2,0,0,1-2.8-.5c-3.2-1.6-5-4.4-4.8-7.6a4.5,4.5,0,0,1,2.6-3.9l1.9-.7h1.6a9,9,0,0,1,4,.9,9.3,9.3,0,0,1,4.1,4,5.4,5.4,0,0,1,.5,1.1,5,5,0,0,1-.5,4C44.7,86,41.7,86.9,39.2,86.9Z" style="fill:#84205c"/><path d="M37.7,75.6a7.6,7.6,0,0,1,3.3.8,7.5,7.5,0,0,1,3.5,3.3,3.2,3.2,0,0,1,.3.9,3.1,3.1,0,0,1-.2,2.7c-.9,1.4-3.4,2.1-5.4,2.1a4.4,4.4,0,0,1-2.1-.4,6.3,6.3,0,0,1-4-6.1,3.2,3.2,0,0,1,1.8-2.7,5.3,5.3,0,0,1,1.5-.5h1.3m0-3h0a5.8,5.8,0,0,0-1.9.2,6.3,6.3,0,0,0-2.3.8,6.2,6.2,0,0,0-3.4,5.1c-.2,3.9,1.8,7.1,5.6,9a7.5,7.5,0,0,0,3.5.7c2.7,0,6.3-.9,7.9-3.5a5.9,5.9,0,0,0,.6-5.2,4.2,4.2,0,0,0-.6-1.4,10.5,10.5,0,0,0-4.7-4.6,10.8,10.8,0,0,0-4.7-1.1Z" style="fill:#5c1612"/><path d="M40.2,77.8c-1.1-.7-1.6-3.2,0-4.1s3.9.8,3.8,2.2S41.4,78.4,40.2,77.8Z" style="fill:#6c9433"/><path d="M39.5,82c-.5.4,1.3,2,1.8,1.9s-.2-.7-.2-.7,1.3.3,1.6-.2-.4-1.6-.9-1.6-1.1,1.1-1.1,1.1S39.9,81.6,39.5,82Z" style="fill:#e8a4d2"/><path d="M39.6,77.5c.7-.3-.3-3.1-1.4-3.7s-3.3-.4-3.3.8S37.2,78.9,39.6,77.5Z" style="fill:#6c9433"/><path d="M38.4,77.6l.6-.9h0a3.8,3.8,0,0,0,.1-1.6,4.5,4.5,0,0,0-.3-1.6,1.4,1.4,0,0,1-.2-.7h0a1.9,1.9,0,0,1,.2-.7,2.1,2.1,0,0,1,1.7-.8,2.8,2.8,0,0,1,1.3.3l.3.4a2.5,2.5,0,0,1,.3,2c0,.3-.1.6-.1,1a7.3,7.3,0,0,1-1,3.2l-.5.8Z" style="fill:#a8662f"/><path d="M40.5,72.2l.7.2h.1c.3.3.1,1.1,0,2.3a6.1,6.1,0,0,1-.9,2.8l-.5-.3a5.1,5.1,0,0,0,.2-2.3,6.1,6.1,0,0,0-.5-2.2h0a1.1,1.1,0,0,1,.9-.4m0-2h0A3.3,3.3,0,0,0,38,71.4a2,2,0,0,0-.4,1.3h0a2.4,2.4,0,0,0,.3,1,3.3,3.3,0,0,1,.2,1.2,4.1,4.1,0,0,1,0,1.2L37,78l1.9,1,.6.3,1.7,1,.9-1.7a8,8,0,0,0,1.2-3.7c0-.4.1-.7.1-.9a3.6,3.6,0,0,0-.5-2.7,1.7,1.7,0,0,0-.6-.6,3.5,3.5,0,0,0-1.8-.5Z" style="fill:#75411a"/><path d="M41.2,77.7a2,2,0,0,0-2.8-1.4c-2.2.9-2.5,3.8-1.4,4.5a3.2,3.2,0,0,0,3.2-.3,4.5,4.5,0,0,0,.9-2,2.4,2.4,0,0,0,2,2.2,2.7,2.7,0,0,0,3-1.5,3.6,3.6,0,0,0-2.8-2.5A2.2,2.2,0,0,0,41.2,77.7Z" style="fill:#6c9433"/><path d="M39.2,75.1a2.8,2.8,0,0,0-1-1.3c-1-.5-3.3-.4-3.3.8s.8,2.2,2.1,2.9c-.8,1.2-.7,2.8,0,3.3a3.2,3.2,0,0,0,3.2-.3,4.5,4.5,0,0,0,.9-2,2.4,2.4,0,0,0,2,2.2,2.7,2.7,0,0,0,3-1.5,3.6,3.6,0,0,0-2.5-2.5,1.2,1.2,0,0,0,.4-.8c.1-.8-.7-1.7-1.6-2.1" style="fill:none;stroke:#507125;stroke-linecap:round;stroke-linejoin:round;stroke-width:3px"/><path d="M68.3,23.5a6.5,6.5,0,0,1-2-.2c-2.6-.5-6.5-4.3-6.2-7.5a4.9,4.9,0,0,1,2.1-3.4l1.1-.7A9,9,0,0,1,67,11h1.9a9,9,0,0,1,5,2.8A9.9,9.9,0,0,1,75,15.6a4.7,4.7,0,0,1-.3,4.6,7.4,7.4,0,0,1-6.4,3.3Z" style="fill:#84205c"/><path d="M67,12.5h1.7a7.7,7.7,0,0,1,4.1,2.3,5.7,5.7,0,0,1,.8,1.3,3.1,3.1,0,0,1-.2,3.2A5.8,5.8,0,0,1,68.3,22H66.6c-2-.4-5.2-3.7-5-5.9a3.3,3.3,0,0,1,1.5-2.4l.8-.5a7.5,7.5,0,0,1,3.1-.6m0-3a10.5,10.5,0,0,0-4.4.9l-1.3.8a6.2,6.2,0,0,0-2.7,4.5c-.4,4.1,4.3,8.5,7.4,9.1a8.6,8.6,0,0,0,2.3.2,8.8,8.8,0,0,0,7.6-4,6,6,0,0,0,.4-6.1,6.3,6.3,0,0,0-1.3-2,10.7,10.7,0,0,0-5.8-3.3Z" style="fill:#5c1612"/><path d="M68.5,14.2c1.3.2,3.1-1.6,2.4-3.2s-3.5-1.8-4.3-.6S67.2,14,68.5,14.2Z" style="fill:#6c9433"/><path d="M66.5,18c.1.6-2.3.8-2.6.4s.5-.5.5-.5-1.2-.5-1.1-1.1,1.4-1,1.7-.7.2,1.5.2,1.5S66.4,17.4,66.5,18Z" style="fill:#e8a4d2"/><path d="M69,14.4c-.3-.7,2.3-2.3,3.4-2.1s2.9,1.6,2.2,2.6S70.1,16.9,69,14.4Z" style="fill:#6c9433"/><path d="M68.9,15l-1.6-.2v-1a8.9,8.9,0,0,1,1.1-3.2c.3-.3.4-.6.6-.8s.8-1.3,1.4-1.5H71a2.4,2.4,0,0,1,2.1,2.2c-.1.2-.1.5-.3.7h-.1a1,1,0,0,1-.5.4,6.4,6.4,0,0,0-1.3,1,4.7,4.7,0,0,0-.9,1.4v1.1Z" style="fill:#a8662f"/><path d="M70.9,9.3h0a1.4,1.4,0,0,1,1.2,1.2H72A7.6,7.6,0,0,0,70.2,12,5.6,5.6,0,0,0,69,14h-.6a6.7,6.7,0,0,1,1-2.7c.7-1,1-1.8,1.4-1.9h.1m0-2h-.6a3.9,3.9,0,0,0-2.1,1.9l-.5.7a9.2,9.2,0,0,0-1.3,3.7l-.2,1.9,1.9.3h.6l2.2.3v-2l.7-.9a2.8,2.8,0,0,1,.9-.8,2.8,2.8,0,0,0,.9-.7h.1a3.5,3.5,0,0,0,.5-1.3,3.4,3.4,0,0,0-3-3.2h-.2Z" style="fill:#75411a"/><path d="M67.7,13.5a2,2,0,0,1,3.1.6c1.2,2-.4,4.6-1.6,4.4a3.2,3.2,0,0,1-2.4-2.1,4.4,4.4,0,0,1,.5-2.2,2.3,2.3,0,0,1-2.9.6,2.6,2.6,0,0,1-1.5-3,3.6,3.6,0,0,1,3.7-.4A2.2,2.2,0,0,1,67.7,13.5Z" style="fill:#6c9433"/><path d="M70.9,12.6a2.9,2.9,0,0,1,1.5-.3c1.2.2,2.9,1.6,2.2,2.6a4.1,4.1,0,0,1-3.4,1c-.1,1.5-1.1,2.7-2,2.6a3.2,3.2,0,0,1-2.4-2.1,4.4,4.4,0,0,1,.5-2.2,2.3,2.3,0,0,1-2.9.6,2.6,2.6,0,0,1-1.5-3,3.5,3.5,0,0,1,3.5-.5c0-.4,0-.7.2-.9a2.4,2.4,0,0,1,2.5-.7" style="fill:none;stroke:#507125;stroke-linecap:round;stroke-linejoin:round;stroke-width:3px"/><path d="M22.2,55.8a7.1,7.1,0,0,1-2-.2c-2.5-.5-6.4-4.3-6.1-7.5a4.9,4.9,0,0,1,2.1-3.4,3.9,3.9,0,0,1,1.1-.6,7.2,7.2,0,0,1,3.7-.8h1.9a8.7,8.7,0,0,1,4.9,2.8A6.6,6.6,0,0,1,29,47.9a4.5,4.5,0,0,1-.4,4.6,7.1,7.1,0,0,1-6.4,3.3Z" style="fill:#84205c"/><path d="M21,44.8h1.7a7.1,7.1,0,0,1,4,2.3,3.8,3.8,0,0,1,.9,1.3,3.1,3.1,0,0,1-.2,3.2,5.8,5.8,0,0,1-5.2,2.6H20.5c-2-.4-5.1-3.7-4.9-5.9a3.3,3.3,0,0,1,1.5-2.4l.8-.5a7.5,7.5,0,0,1,3.1-.6m0-3a10.5,10.5,0,0,0-4.4.9,5.7,5.7,0,0,0-1.3.8A6.2,6.2,0,0,0,12.6,48c-.4,4.1,4.2,8.5,7.3,9.1a9.3,9.3,0,0,0,2.3.2,9.1,9.1,0,0,0,7.7-3.9,6.2,6.2,0,0,0,.4-6.2,8.6,8.6,0,0,0-1.3-2,10.7,10.7,0,0,0-5.8-3.3Z" style="fill:#5c1612"/><path d="M22.4,46.5c1.3.2,3.2-1.6,2.5-3.2s-3.6-1.8-4.3-.6S21.1,46.3,22.4,46.5Z" style="fill:#6c9433"/><path d="M20.5,50.3c.1.6-2.4.8-2.6.4s.5-.5.5-.5-1.2-.5-1.1-1.1,1.3-1,1.7-.7.2,1.5.2,1.5S20.4,49.7,20.5,50.3Z" style="fill:#e8a4d2"/><path d="M23,46.7c-.3-.7,2.2-2.3,3.4-2.1s2.9,1.6,2.2,2.6S24.1,49.2,23,46.7Z" style="fill:#6c9433"/><path d="M22.9,47.3l-1.6-.2v-1a7.2,7.2,0,0,1,1.1-3.2l.6-.8c.4-.7.8-1.3,1.4-1.4H25a2.3,2.3,0,0,1,2,2.2,1,1,0,0,1-.2.7h-.1l-.6.4a14.7,14.7,0,0,0-1.2,1,4.7,4.7,0,0,0-.9,1.4v1.1Z" style="fill:#a8662f"/><path d="M24.8,41.6h.1A1.4,1.4,0,0,1,26,42.8h0a6.6,6.6,0,0,0-1.8,1.5C23,45.7,23,46.3,23,46.3h-.6a7.7,7.7,0,0,1,.9-2.7c.7-1,1.1-1.8,1.5-1.9h0m0-2h-.6a3.7,3.7,0,0,0-2,1.9l-.5.7A9.2,9.2,0,0,0,20.4,46l-.2,1.9,1.9.3h.6l2.2.3v-2a5.4,5.4,0,0,1,.7-.9,2.8,2.8,0,0,1,.9-.8,2.8,2.8,0,0,0,.9-.7h.1a1.7,1.7,0,0,0,.4-1.2,3.3,3.3,0,0,0-2.9-3.2h-.3Z" style="fill:#75411a"/><path d="M21.7,45.8a2,2,0,0,1,3.1.6c1.2,2-.4,4.6-1.6,4.4a3.1,3.1,0,0,1-2.4-2.1,4.4,4.4,0,0,1,.5-2.2,2.3,2.3,0,0,1-2.9.6c-1.7-.9-1.8-2.5-1.5-3a3.5,3.5,0,0,1,3.7-.4A2.2,2.2,0,0,1,21.7,45.8Z" style="fill:#6c9433"/><path d="M24.8,44.9a3.4,3.4,0,0,1,1.6-.3c1.2.2,2.9,1.6,2.2,2.6a4.1,4.1,0,0,1-3.4,1c-.1,1.5-1.2,2.7-2,2.6a3.1,3.1,0,0,1-2.4-2.1,4.4,4.4,0,0,1,.5-2.2,2.3,2.3,0,0,1-2.9.6c-1.7-.9-1.8-2.5-1.5-3a3.5,3.5,0,0,1,3.5-.5.9.9,0,0,1,.2-.9,2.4,2.4,0,0,1,2.5-.7" style="fill:none;stroke:#507125;stroke-linecap:round;stroke-linejoin:round;stroke-width:3px"/></g></g></svg>