<?xml version="1.0" encoding="UTF-8"?>
<svg xmlns="http://www.w3.org/2000/svg" xmlns:xlink="http://www.w3.org/1999/xlink" viewBox="0 0 585.77 198.56">
  <defs>
    <clipPath id="clippath">
      <path d="M582.26,184.28c-2.86-7.39-8.05-14.22-15.19-19.97-26.43-21.48-35.7-45.43-57.88-71.42-20.78-27.18-50.73-50.31-87.2-67.34C375.23,5.56,319.64-1.48,265.97,5.8c-20.01,2.53-39.47,6.9-57.88,12.99l-7.29,2.47c-32.49,11.93-61.75,27.82-86.44,46.93-27.04,20.62-38.44,42.42-60.77,69.05-14.53,18.47-31.47,35.94-50.59,52.19h578.81c.48-.71.79-1.47.91-2.26.15-.98,0-1.97-.46-2.9Z" style="fill: none;"/>
    </clipPath>
    <clipPath id="clippath-1">
      <path d="M297.81,49.11c-97.46,0-179.36,59.63-202.58,140.33h405.16c-23.22-80.7-105.12-140.33-202.58-140.33Z" style="fill: none;"/>
    </clipPath>
  </defs>
  <g style="isolation: isolate;">
    <g id="Layer_2" data-name="Layer 2">
      <g id="Layer_1-2" data-name="Layer 1">
        <g id="rabbit_toy_4" data-name="rabbit toy 4">
          <g style="clip-path: url(#clippath);">
            <g>
              <path d="M591.98,184.28c-3.21-8.02-9.46-15.26-18.08-20.94-30.38-15.46-42.23-44.46-64.41-70.45-20.86-27.21-50.92-50.34-87.5-67.34C375.23,5.56,319.64-1.48,265.97,5.8c-20.01,2.53-39.47,6.9-57.88,12.99l-7.29,2.47c-32.49,11.93-61.75,27.82-86.44,46.93-26.59,20.62-43.45,46.82-69.12,69.05-13.98,11.6-48.61,43.82-61.37,52.19h607.67c.6-.68.96-1.46,1.06-2.26.1-.99-.11-1.98-.61-2.9Z" style="fill: #96b85c;"/>
              <path d="M592.44,187.18c-.1.8-.47,1.57-1.06,2.26H-16.14c13.52-8.38,47.7-40.59,61.83-52.62-10.63,14.5-25.98,32.22.91,8.81-12.31,15.68-3.04,8.38,7.14-.86-4.56,7.2-19.14,18.58,1.97,9.24,10.79-8.38,18.84-18.58,28.86-27.71C133.35,62.93,217.36,16.86,320.05,22.44c10.33.75,2.43-6.01-1.52-7.62,9.72.64,27.8,8.7,5.92-2.79,5.77,0,18.08,6.01,7.44-.86,29.47,8.16,16.41-6.44-1.97-7.3,137.64,6.23,190.96,97.84,243.07,159.48,4.41,4.62,18.38,14.39,19.45,23.84Z" style="fill: #96b85c; isolation: isolate; mix-blend-mode: multiply; opacity: .61;"/>
              <path d="M550.66,156.47c-2.43-1.61-5.17-6.55-8.36-8.81,2.22,3.2,3.61,6.66,4.1,10.2-3.19-3.87-6.68-7.84-11.55-8.81,10.18,15.25,12.15,10.74-6.38,5.58,41.78,20.83-8.96,5.48-26.13,11.49-6.99,3.11,12.15,5.8,13.37,8.48-31.26,2.29-62.1,6.83-92.06,13.53,52.26,4.94,128.98,0,168.63,1.18.62-.35,1.14-.79,1.52-1.29-7.6-25.34-33.88-29.64-50.74-49.83,1.66,6.25,4.21,12.37,7.6,18.26Z" style="fill: #96b85c; isolation: isolate; mix-blend-mode: multiply; opacity: .61;"/>
            </g>
          </g>
          <g style="clip-path: url(#clippath-1);">
            <g>
              <g>
                <path d="M247.36,35.05h60.71c-.36.31-.88.58-1.25.6-19.62,1-39.79.13-59.46-.6Z" style="fill: #924f28;"/>
                <path d="M272.58,44.26c-19.28-.76-150.65-.53-169.82-2.13,1.53-.06,3.06-.11,4.58-.17,11.36-.42,134.37.01,145.7.64,12.32.69,24.65,1.3,37.01,1.23,12.51-.08,25.03-.78,37.53-1.06,12.54-.29,25.08-.52,37.62-.88,1.99-.06,3.98-.13,5.96-.21,10.45-.4,20.89-.99,31.36-1.23,20.4-.48,40.79.45,61.19.36-6.55.32-13.11.57-19.67.87-7.75.34-15.49.75-23.19,1.39-24.71,2.07-49.48,4.58-74.42,4.74-24.7.16-49.22-2.58-73.85-3.55Z" style="fill: #924f28;"/>
                <path d="M510.39,49.2v129.39H104.75v-33.69c-.31-.04-.62-.09-.93-.14-.63-.11-1.25-.22-1.88-.32.94,0,1.87,0,2.81,0V49.2h186.48c1.91-.07,3.81-.1,5.73-.1s3.82.03,5.72.1h207.71Z" style="fill: #924f28;"/>
                <g>
                  <path d="M510.39,144.36v31.27H104.75v-30.73c-.31-.04-.62-.09-.93-.14-.63-.11-1.25-.22-1.88-.32.94,0,1.87,0,2.81,0v-.09h405.64Z" style="fill: #ce894a;"/>
                  <rect x="104.75" y="110.13" width="405.64" height="31.27" style="fill: #ce894a;"/>
                  <rect x="104.75" y="75.9" width="405.64" height="31.28" style="fill: #ce894a;"/>
                  <path d="M272.58,44.26c-19.28-.76-150.65-.53-169.82-2.13,1.53-.06,3.06-.11,4.58-.17,11.36-.42,134.37.01,145.7.64,12.32.69,24.65,1.3,37.01,1.23,12.51-.08,25.03-.78,37.53-1.06,12.54-.29,25.08-.52,37.62-.88,1.99-.06,3.98-.13,5.96-.21h72.88c-7.75.34-15.49.75-23.19,1.39-24.71,2.07-49.48,4.58-74.42,4.74-24.7.16-49.22-2.58-73.85-3.55Z" style="fill: #ce894a;"/>
                  <path d="M510.39,49.2v23.75H104.75v-23.75h186.48c1.91-.07,3.81-.1,5.73-.1s3.82.03,5.72.1h207.71Z" style="fill: #ce894a;"/>
                  <path d="M308.07,35.05c-.36.31-.88.58-1.25.6-19.62,1-39.79.13-59.46-.6h60.71Z" style="fill: #ce894a;"/>
                </g>
                <g style="mix-blend-mode: screen; opacity: .3;">
                  <path d="M510.39,166.25v2.18h-.09c-15.99.01-32.77.02-49.83.02-91.16,0-190.26-.13-219.78-.09-20.87.04-62.74.3-107.39.44-9.45.03-19.02.05-28.55.07v-1.83c9.7.25,19.37.38,29.04.42,37.33.18,74.53-.93,112.1-1.03,28.56-.07,124.31-.22,213.76-.21,17.3.01,34.36.02,50.65.03h.09Z" style="fill: #a26c4a;"/>
                  <path d="M313.61,160.19c-58.92.71-117.81-.4-176.71-.57-6.4-.03-12.81-.04-19.21-.03-3.28,0-7.67.01-12.94.01v-1.58c11.11-.01,19.99-.02,25.46-.01,2.46,0,4.91.01,7.37.02,28.02.09,56.09.5,84.06.41,32.17-.11,64.47-.39,96.59.03,5.92.08-1.01,1.67-4.62,1.72Z" style="fill: #a26c4a;"/>
                  <path d="M159.3,135.31c-3.45.12-6.88.24-10.3.38-13.83.55-27.51,1.23-41.32,1.95-.72.04-1.71.07-2.93.1v-4.4c18.23.07,34.3.2,45.45.39,4.33.08,7.92.17,10.6.27,2.34.09-.1,1.26-1.5,1.31Z" style="fill: #a26c4a;"/>
                  <path d="M172.32,131.17c-6.88.12-13.75.15-20.63.18-5.59.03-11.18.06-16.78.16-3.46.06-14.94.04-30.16,0v-2.02c16.13-.04,32.21-.29,48.29-.23,7.22.02,14.44.11,21.66.31,3.04.09-.5,1.58-2.38,1.61Z" style="fill: #a26c4a;"/>
                  <path d="M264.28,118.56c-21.41.75-43.27,1.48-64.79,1.33-11.11-.07-21.98.22-33.06.35-2.36.03-4.74.03-7.11.01-7.7-.04-15.44-.23-23.11-.02-5.34.14-16.78.2-31.46.21v-2.41c16.44-.06,29.36-.15,35.21-.32,7.21-.21,14.41-.29,21.6-.43,5.24-.09,10.47-.22,15.71-.45,9.2-.39,18.47-.62,27.74-.66,10.26-.05,20.38-.64,30.64-.66,10.44-.02,20.74.49,31.1.89,3.86.16-.17,2.08-2.47,2.16Z" style="fill: #a26c4a;"/>
                  <path d="M190.82,103.64c-5.97.16-11.95.26-17.94.33-7.9.09-15.82.12-23.73.11h-.01c-14.8,0-29.62-.11-44.39-.08v-1.92c.47,0,.91,0,1.33,0,20.7-.1,41.63-.33,62.43-.13h.01c2.08.02,4.16.04,6.23.07,5.99.08,11.96.2,17.92.38,2.41.07-.44,1.21-1.85,1.25Z" style="fill: #a26c4a;"/>
                  <path d="M166.66,96.36c-11.55.26-34.66.28-61.91.19v-1.93c5.26.01,9.18.01,11.3,0,17.7-.12,35.48-.39,53.16.03,3.25.07-.56,1.67-2.55,1.71Z" style="fill: #a26c4a;"/>
                  <path d="M294.6,128.21c-.62.05-3.28.29-5.04.63,5.36,2,13.38,1.62,19,2.22,7.58.82,14.99,1.53,22.67,1.7,6.51.14,56.85.35,112.24.58,22.3.09,45.43.19,66.83.29h.09v2.79h-.09c-19.53-.03-42.24-.05-65.02-.09-60.29-.09-121.1-.23-124.8-.59-7.35-.7-14.65-1.65-21.99-2.37-4.6-.45-10.14-.84-13.87-2.95-.68-.38.01-1.18.32-1.53,2.84-3.12,10.08-3.15,14.66-3.49,8.24-.61,16.57-1.03,24.85-1.38,7.76-.32,57.26-.48,112.47-.57,24.38-.05,49.88-.08,73.38-.11.03-.01.06-.01.09,0v2.28h-.09c-23.25.01-48.19.02-71.83.05-52.6.05-98.8.16-105.77.4-8.17.29-16.33,1.04-24.48,1.26-4.57.14-9.09.46-13.62.88Z" style="fill: #a26c4a;"/>
                  <path d="M510.39,116.94v1.66h-.09c-25.35.03-51.86.08-76.83.13-54.49.09-101.68.13-113.66-.22-.85-.02.09-.97.71-.96,11.93.2,58.16,0,111.84-.26,25.26-.11,52.17-.24,77.94-.35h.09Z" style="fill: #a26c4a;"/>
                  <path d="M245.39,134.05c-14.6-.04-29.22.51-43.73-.93-.6-.05-1.51.83-.68.93,14.42,1.62,28.98,1.31,43.52,1.22.77,0,1.96-1.21.89-1.22Z" style="fill: #a26c4a;"/>
                  <path d="M510.39,150.37v2.4h-.09c-17.93-.14-37.25-.27-56.52-.39-64.62-.4-128.71-.63-137.88-.43-19.57.44-39.09,1.88-58.6-.07-1.05-.11.11-1.25.87-1.18,20.53,1.57,40.98-.53,61.51-.98,9.24-.19,70.07-.02,132.97.3,19.51.11,39.22.22,57.65.35h.09Z" style="fill: #a26c4a;"/>
                  <path d="M510.39,84.28v2.54h-.09c-31.34.26-69.99.52-106.73.81-59.4.48-113.78,1.05-124.17,1.88-21.92,1.76-43.67,1.75-65.68.63-.96-.05.1-1.1.78-1.07,23.58.68,46.66-.13,70.05-2.2,9.28-.82,59.59-1.36,115.81-1.8,37.48-.3,77.6-.55,109.94-.79h.09Z" style="fill: #a26c4a;"/>
                  <path d="M510.39,90.01v1.84h-.09c-30.25.17-66.87.3-101.32.37-55.75.1-105.82.02-114.04-.45-1-.06.1-1.14.81-1.12,8.2.33,56.75.24,111.39-.01h.01c34.88-.16,72.23-.4,103.15-.63h.09Z" style="fill: #a26c4a;"/>
                  <path d="M510.39,101.59v2.09h-.09c-25.85-.06-57.18-.01-89.5.04-22.26.04-44.99.07-66.73.08h-.05c-58.46.01-109.71-.21-125.24-1.34-.93-.07.09-1.08.75-1.04,11.19.67,40.55.88,77.73.87h.06c33.44-.01,73.2-.19,111.76-.37,32.83-.15,64.79-.3,91.22-.33h.09Z" style="fill: #a26c4a;"/>
                  <path d="M212.85,80.64c-4.24-.19-8.48-.33-12.73-.45-18.16-.47-36.35-.31-54.5.3-5.9.19-21.4.34-40.87.46v-2.25c21.12-.12,38.16-.24,44.59-.4,17.7-.44,35.41-.55,53.08.29,3.82.17,7.64.4,11.45.67,1.26.08-.14,1.43-1.02,1.38Z" style="fill: #a26c4a;"/>
                  <path d="M203.29,86.82c-12.31.29-24.58,1.03-36.91,1.14-.73,0-1.84,1.14-.83,1.14,12.34.05,24.72-.21,37.02-1.01.7-.04,1.79-1.3.72-1.27Z" style="fill: #a26c4a;"/>
                  <path d="M105.99,62.48c-.39.01-.8.03-1.24.04v-1.65c.88.02,1.68.05,2.37.08,1.42.05-.22,1.5-1.13,1.53Z" style="fill: #a26c4a;"/>
                  <path d="M104.75,67.4v-1h.05c.79-.02.46.6-.05,1Z" style="fill: #a26c4a;"/>
                  <path d="M510.39,51.74v1.55h-.09c-51.46-.03-128.18-.11-177.42-.26-24.59-.07-42.33-.16-46.66-.27-7.12-.18-14.26-.37-21.41-.52-10.66-.23-21.34-.4-31.97-.35-17.17.07-34.29-.38-51.43-.34-17.49.05-34.79-1.09-52.27-1.46-3.73-.08-12.59-.15-24.39-.21v-.68h61.53c6.25.19,12.51.14,18.78.16,16.99.04,34.17.32,51.16.78,6.35.18,19.92.34,38.13.5,13.58.11,29.75.22,47.42.33,59.57.35,136.2.62,188.53.77h.09Z" style="fill: #a26c4a;"/>
                  <path d="M510.39,64.01v2.92s-.06.01-.09,0c-41.79-.2-96.88-.43-139.76-.61-35.2-.15-62.16-.27-66.8-.28-7.53-.03-15.06.02-22.58-.04-6.79-.06-13.58-.73-20.36-.49-12.41.45-24.86.75-37.3.75-1.44,0-2.9,0-4.34-.02-29.55-.15-59.16.97-88.27-3.55-.62-.09.29-.97.83-.91,30.36,4.08,61,1.98,91.64,1.82,1.98-.01,3.96-.03,5.94-.08h.01c11.89-.21,23.76-.85,35.65-1.15,6.81-.18,13.69.42,20.54.41,6.86-.03,13.72-.02,20.59.06,4.38.06,27.15.19,57.76.35h.01c43.06.25,101.64.56,146.44.82h.09Z" style="fill: #a26c4a;"/>
                  <path d="M308.07,35.05c-.36.31-.88.58-1.25.6-19.62,1-39.79.13-59.46-.6h60.71Z" style="fill: #a26c4a;"/>
                </g>
                <path d="M464.52,144.89c-4.46.07-9.24.18-14.31.3-76.83,1.92-220.25,9.25-308.3,3.51-13.94-.92-26.48-2.16-37.16-3.8-.31-.04-.62-.09-.93-.14-.63-.11-1.25-.22-1.88-.32.94,0,1.87,0,2.81,0,4.36,0,8.73,0,13.09-.04,3.23-.02,8.44-.04,15.11-.05,3.38-.01,7.13-.02,11.19-.03,48.18-.13,139.36-.39,158.76-1.45,7.86-.42,15.71-.95,23.56-1.48,16.79-1.13,33.57-2.27,50.46-2.43,12.29-.12,24.56.51,36.79,1.37,5.04.35,10.09.69,15.14,1.06,6.77.49,13.54,1.03,20.25,1.7.56.06,1.11.11,1.67.17,3.11.33,6.22.71,9.33,1.09,1.47.18,2.94.36,4.42.53Z" style="fill: #a26c4a; mix-blend-mode: multiply; opacity: .6;"/>
                <path d="M463.71,40.81c-6.55.32-13.11.57-19.67.87-7.75.34-15.49.75-23.19,1.39-24.71,2.07-49.48,4.58-74.42,4.74-24.7.16-49.22-2.58-73.85-3.55-19.28-.76-150.65-.53-169.82-2.13,1.53-.06,3.06-.11,4.58-.17,11.36-.42,134.37.01,145.7.64,12.32.69,24.65,1.3,37.01,1.23,12.51-.08,25.03-.78,37.53-1.06,12.54-.29,25.08-.52,37.62-.88,1.99-.06,3.98-.13,5.96-.21,10.45-.4,20.89-.99,31.36-1.23,20.4-.48,40.79.45,61.19.36Z" style="fill: #a26c4a; mix-blend-mode: multiply; opacity: .6;"/>
                <path d="M165.01,113.79c20.98,1.44,153.64,1.62,174.68,1.04,39.41-1.09,78.71-3.42,118.03-5.54-10.53-1.06-21.1-1.84-31.71-2.36-11.76-.57-23.57-.64-35.29-1.5-23.54-1.71-158.88-5.38-182.61-5.59-24.04-.22-47.62,2.96-71.25,5.69-8.8,1.01-17.55,2.43-26.46,2.9-.56.03-1.12.06-1.68.07,8.24,2.75,17.58,3.02,26.51,3.42,9.95.43,19.86,1.19,29.78,1.87Z" style="fill: #a26c4a; mix-blend-mode: multiply; opacity: .6;"/>
              </g>
              <path d="M308.07,35.05c-.36.31-.88.58-1.25.6-6.35.32-12.76.45-19.19.45-13.44,0-26.97-.56-40.27-1.05h60.71M308.07,32.05h-60.71c-1.64,0-2.97,1.31-3,2.94-.03,1.63,1.25,2.99,2.89,3.05l3.64.14c12.03.45,24.48.92,36.75.92,7,0,13.33-.15,19.34-.46,1.5-.08,2.72-1.03,3.05-1.32.95-.82,1.29-2.14.85-3.32-.44-1.18-1.56-1.96-2.81-1.96h0ZM308.07,38.05h0,0Z" style="fill: #6a3417;"/>
              <path d="M415.2,40.32c15.22,0,30.43.5,45.65.5.95,0,1.9,0,2.86,0-6.55.32-13.11.57-19.67.87-7.75.34-15.49.75-23.19,1.39-24.71,2.07-49.48,4.58-74.42,4.74-.7,0-1.39,0-2.09,0-23.99,0-47.82-2.61-71.76-3.56-19.28-.76-150.65-.53-169.82-2.13,1.53-.06,3.06-.11,4.58-.17,3.14-.12,14.8-.17,30.27-.17,40.53,0,107.23.35,115.43.81,11.67.65,23.35,1.24,35.06,1.24.65,0,1.3,0,1.95,0,12.51-.08,25.03-.78,37.53-1.06,12.54-.29,25.08-.52,37.62-.88,1.99-.06,3.98-.13,5.96-.21,10.45-.4,20.89-.99,31.36-1.23,4.23-.1,8.45-.14,12.68-.14M415.2,37.32c-4.6,0-8.77.05-12.75.14-6.82.16-13.73.46-20.41.76-3.61.16-7.34.33-11,.47-1.98.08-3.96.15-5.94.21-8.56.25-17.28.43-25.71.62-3.96.09-7.92.17-11.88.26-5.06.11-10.21.3-15.18.48-7.32.26-14.88.53-22.3.58-.64,0-1.29,0-1.93,0-11.92,0-23.77-.61-34.89-1.23-8.33-.46-75.87-.81-115.6-.81-11.77,0-26.59.03-30.38.17-.78.03-1.55.06-2.32.09-.75.03-1.51.05-2.26.08-1.58.06-2.85,1.35-2.88,2.93-.03,1.59,1.17,2.92,2.75,3.06,11.66.97,62.83,1.27,107.98,1.53,29.16.17,54.35.31,61.97.61,9.29.37,18.75,1,27.89,1.61,14.38.96,29.25,1.95,43.98,1.95.7,0,1.41,0,2.11,0,21.19-.14,42.51-1.98,63.14-3.77,3.84-.33,7.68-.66,11.51-.99,8.36-.7,16.72-1.1,23.07-1.38,2.72-.12,5.44-.24,8.16-.36,3.78-.16,7.68-.33,11.52-.51,1.63-.08,2.9-1.45,2.85-3.08-.04-1.63-1.37-2.92-3-2.92,0,0,0,0-.01,0-.95,0-1.9,0-2.84,0-7.59,0-15.31-.13-22.78-.25-7.49-.12-15.24-.25-22.87-.25h0Z" style="fill: #6a3417;"/>
              <path d="M296.96,49.1c1.91,0,3.82.03,5.72.1h207.71v129.39H104.75v-33.69c-.31-.04-.62-.09-.93-.14-.63-.11-1.25-.22-1.88-.32.94,0,1.87,0,2.81,0V49.2h186.48c1.91-.07,3.81-.1,5.73-.1M296.96,46.1c-2.03,0-3.93.03-5.78.1H104.75c-1.66,0-3,1.34-3,3v92.25c-1.48.09-2.68,1.26-2.8,2.76-.12,1.56.97,2.95,2.52,3.2.09.01.19.03.28.05v31.14c0,1.66,1.34,3,3,3h405.64c1.66,0,3-1.34,3-3V49.2c0-1.66-1.34-3-3-3h-207.66c-1.82-.07-3.77-.1-5.77-.1h0Z" style="fill: #6a3417;"/>
              <g style="mix-blend-mode: multiply;">
                <path d="M247.36,35.05h60.71c-.36.31-.88.58-1.25.6-19.62,1-39.79.13-59.46-.6Z" style="fill: #c6b2a5;"/>
              </g>
              <g style="mix-blend-mode: multiply;">
                <path d="M272.58,44.26c-19.28-.76-150.65-.53-169.82-2.13,1.53-.06,3.06-.11,4.58-.17,11.36-.42,134.37.01,145.7.64,12.32.69,24.65,1.3,37.01,1.23,12.51-.08,25.03-.78,37.53-1.06,12.54-.29,25.08-.52,37.62-.88,1.99-.06,3.98-.13,5.96-.21,10.45-.4,20.89-.99,31.36-1.23,20.4-.48,40.79.45,61.19.36-6.55.32-13.11.57-19.67.87-7.75.34-15.49.75-23.19,1.39-24.71,2.07-49.48,4.58-74.42,4.74-24.7.16-49.22-2.58-73.85-3.55Z" style="fill: #c6b2a5;"/>
              </g>
              <g style="mix-blend-mode: multiply;">
                <path d="M510.39,49.2v129.39H104.75v-33.69c-.31-.04-.62-.09-.93-.14-.63-.11-1.25-.22-1.88-.32.94,0,1.87,0,2.81,0V49.2h186.48c1.91-.07,3.81-.1,5.73-.1s3.82.03,5.72.1h207.71Z" style="fill: #c6b2a5;"/>
              </g>
              <path d="M247.36,35.05h60.71c-.36.31-.88.58-1.25.6-19.62,1-39.79.13-59.46-.6Z" style="fill: #f9e4e4; mix-blend-mode: screen; opacity: .8; stroke: #f4a8ac; stroke-linecap: round; stroke-linejoin: round; stroke-width: 2px;"/>
              <path d="M272.58,44.26c-19.28-.76-150.65-.53-169.82-2.13,1.53-.06,3.06-.11,4.58-.17,11.36-.42,134.37.01,145.7.64,12.32.69,24.65,1.3,37.01,1.23,12.51-.08,25.03-.78,37.53-1.06,12.54-.29,25.08-.52,37.62-.88,1.99-.06,3.98-.13,5.96-.21,10.45-.4,20.89-.99,31.36-1.23,20.4-.48,40.79.45,61.19.36-6.55.32-13.11.57-19.67.87-7.75.34-15.49.75-23.19,1.39-24.71,2.07-49.48,4.58-74.42,4.74-24.7.16-49.22-2.58-73.85-3.55Z" style="fill: #f9e4e4; mix-blend-mode: screen; opacity: .8; stroke: #f4a8ac; stroke-linecap: round; stroke-linejoin: round; stroke-width: 2px;"/>
              <path d="M510.3,49.2v124.06H104.75v-28.36c-.31-.04-.62-.09-.93-.14-.63-.11-1.25-.22-1.88-.32.94,0,1.87,0,2.81,0V49.2h186.48c1.91-.07,3.81-.1,5.73-.1s3.82.03,5.72.1h207.62Z" style="fill: #f9e4e4; mix-blend-mode: screen; opacity: .8; stroke: #f4a8ac; stroke-linecap: round; stroke-linejoin: round; stroke-width: 2px;"/>
              <path d="M247.36,35.05h60.71c-.36.31-.88.58-1.25.6-19.62,1-39.79.13-59.46-.6Z" style="fill: #f9e4e4; mix-blend-mode: color; opacity: .5; stroke: #f4a8ac; stroke-linecap: round; stroke-linejoin: round; stroke-width: 2px;"/>
              <path d="M272.58,44.26c-19.28-.76-150.65-.53-169.82-2.13,1.53-.06,3.06-.11,4.58-.17,11.36-.42,134.37.01,145.7.64,12.32.69,24.65,1.3,37.01,1.23,12.51-.08,25.03-.78,37.53-1.06,12.54-.29,25.08-.52,37.62-.88,1.99-.06,3.98-.13,5.96-.21,10.45-.4,20.89-.99,31.36-1.23,20.4-.48,40.79.45,61.19.36-6.55.32-13.11.57-19.67.87-7.75.34-15.49.75-23.19,1.39-24.71,2.07-49.48,4.58-74.42,4.74-24.7.16-49.22-2.58-73.85-3.55Z" style="fill: #f9e4e4; mix-blend-mode: color; opacity: .5; stroke: #f4a8ac; stroke-linecap: round; stroke-linejoin: round; stroke-width: 2px;"/>
              <path d="M247.36,35.05h60.71c-.36.31-.88.58-1.25.6-19.62,1-39.79.13-59.46-.6Z" style="fill: #fa789e; mix-blend-mode: color; opacity: .5; stroke: #f4a8ac; stroke-linecap: round; stroke-linejoin: round; stroke-width: 2px;"/>
              <path d="M272.58,44.26c-19.28-.76-150.65-.53-169.82-2.13,1.53-.06,3.06-.11,4.58-.17,11.36-.42,134.37.01,145.7.64,12.32.69,24.65,1.3,37.01,1.23,12.51-.08,25.03-.78,37.53-1.06,12.54-.29,25.08-.52,37.62-.88,1.99-.06,3.98-.13,5.96-.21,10.45-.4,20.89-.99,31.36-1.23,20.4-.48,40.79.45,61.19.36-6.55.32-13.11.57-19.67.87-7.75.34-15.49.75-23.19,1.39-24.71,2.07-49.48,4.58-74.42,4.74-24.7.16-49.22-2.58-73.85-3.55Z" style="fill: #fa789e; mix-blend-mode: color; opacity: .5; stroke: #f4a8ac; stroke-linecap: round; stroke-linejoin: round; stroke-width: 2px;"/>
              <path d="M510.3,49.2v124.06H104.75v-28.36c-.31-.04-.62-.09-.93-.14-.63-.11-1.25-.22-1.88-.32.94,0,1.87,0,2.81,0V49.2h186.48c1.91-.07,3.81-.1,5.73-.1s3.82.03,5.72.1h207.62Z" style="fill: #fa789e; mix-blend-mode: color; opacity: .5; stroke: #f4a8ac; stroke-linecap: round; stroke-linejoin: round; stroke-width: 2px;"/>
              <g style="mix-blend-mode: multiply;">
                <path d="M302.68,49.2h-11.45c1.91-.07,3.81-.1,5.73-.1s3.82.03,5.72.1Z" style="fill: #d8c3cb;"/>
                <path d="M291.23,49.2c-36.57,1.15-72.16,14.94-100.36,38.03h-.02c-28.88,23.37-50.1,55.83-60.79,91.36h-25.31V49.2h186.48Z" style="fill: #d8c3cb;"/>
                <path d="M510.39,49.2v129.39h-46.54c-10.2-33.83-29.89-64.88-56.7-87.95h-.01c-28.86-25.09-66.1-40.25-104.46-41.44h207.71Z" style="fill: #d8c3cb;"/>
              </g>
            </g>
            <g>
              <g>
                <rect x="74.83" y="162.6" width="430.55" height="28.92" rx="1.5" ry="1.5" style="fill: #d8a960;"/>
                <path d="M503.87,164.1v25.92H76.33v-25.92h427.55M503.87,161.1H76.33c-1.66,0-3,1.34-3,3v25.92c0,1.66,1.34,3,3,3h427.55c1.66,0,3-1.34,3-3v-25.92c0-1.66-1.34-3-3-3h0Z" style="fill: #924f28;"/>
              </g>
              <g style="mix-blend-mode: multiply; opacity: .3;">
                <path d="M503.87,164.11v25.92c-26.11-14.67-56.55-22.47-87.66-22.47h-250.27c-25.38,0-50.41,5.2-73.04,15.16l-16.57,7.31v-25.92h427.54Z" style="fill: #75411a;"/>
              </g>
            </g>
          </g>
          <g>
            <g>
              <path d="M493.69,176.44c-.15,0-.3-.02-.44-.07-8.22-2.52-12.79-9-10.87-15.4,2.15-6.23,10.54-9.04,17.44-9.04.92,0,1.82.05,2.7.14.13.01.26.04.38.09,7.75,2.98,11.61,9.42,9.38,15.65-.01.04-.03.08-.05.12-2.28,4.96-8.63,8.3-15.81,8.3-.23,0-.46,0-.69,0l-1.87.2c-.05,0-.11,0-.16,0Z" style="fill: #babcbe;"/>
              <path d="M499.82,153.43c.86,0,1.71.04,2.53.13,6.94,2.67,10.44,8.33,8.51,13.75-2.04,4.44-7.89,7.42-14.44,7.42-.25,0-.5,0-.75-.01l-1.97.21c-7.43-2.28-11.55-7.93-9.87-13.53,1.81-5.24,9.26-7.97,16-7.97M499.82,150.43c-7.65,0-16.45,3.09-18.83,9.99-.01.04-.03.08-.04.12-2.17,7.23,2.82,14.49,11.87,17.26.29.09.58.13.88.13.11,0,.22,0,.32-.02l1.77-.19c.21,0,.42,0,.63,0,7.75,0,14.65-3.69,17.17-9.17.04-.08.07-.16.1-.24,2.51-7.04-1.7-14.26-10.25-17.55-.24-.09-.5-.15-.75-.18-.93-.1-1.89-.15-2.86-.15h0Z" style="fill: #8d8d8d;"/>
            </g>
            <g>
              <path d="M508.69,197.06c-7.42-.24-14.4-2.72-19.16-6.81-.15-.13-.28-.29-.36-.47-2.33-4.65-1.26-8.15.05-10.26,2.66-4.3,9.15-7.19,16.16-7.19,5.39,0,10.04,1.72,12.76,4.72,2.08,2.29,3.03,5.3,2.75,8.72.53,2.41,0,4.72-1.55,6.7-2.08,2.67-5.89,4.4-9.69,4.4-.07,0-.14,0-.21,0-.22.12-.46.18-.71.18-.02,0-.03,0-.05,0Z" style="fill: #babcbe;"/>
              <path d="M505.37,173.84c7.58,0,14.82,3.66,14,12.05,1.39,5.53-4.31,9.49-9.72,9.49-.31,0-.61-.01-.92-.04v.21c-7.09-.23-13.72-2.57-18.23-6.44-4.74-9.48,5.33-15.27,14.87-15.27M505.37,170.84c-7.63,0-14.47,3.1-17.44,7.9-1.51,2.44-2.75,6.45-.11,11.72.18.36.43.67.73.93,5.01,4.31,12.34,6.92,20.09,7.17.03,0,.06,0,.1,0,.35,0,.69-.06,1.01-.18,4.28-.03,8.4-1.93,10.77-4.98,1.76-2.25,2.41-4.97,1.87-7.72.25-3.75-.83-7.07-3.15-9.63-3.01-3.32-8.06-5.22-13.87-5.22h0Z" style="fill: #8d8d8d;"/>
            </g>
            <g>
              <path d="M472.94,137.8c-7.28,0-15.04-4.69-16.62-10.04-.62-2.08-.82-6.1,4.64-9.71,2.47-2.69,6.16-4.11,10.68-4.11,7.92,0,15.81,4.26,17.59,9.5.64,1.88,1.01,5.56-3.58,9.18-2.48,3.11-7.05,5.08-11.98,5.16-.21.01-.46.02-.72.02Z" style="fill: #babcbe;"/>
              <path d="M471.64,115.44c10.57,0,22.58,8.69,12.94,16.11-2.18,2.85-6.36,4.65-10.94,4.73-.23.01-.47.02-.7.02-9.97,0-22.12-9.91-11-17.09,2.35-2.66,5.93-3.76,9.69-3.76M471.64,112.44h0c-4.81,0-8.93,1.58-11.65,4.46-6.33,4.27-5.68,9.3-5.1,11.28,1.96,6.65,10.92,11.11,18.06,11.11.27,0,.53,0,.79-.02,5.37-.1,10.18-2.17,12.97-5.58,5.18-4.16,4.7-8.49,3.94-10.73-2.21-6.5-11.59-10.52-19.01-10.52h0Z" style="fill: #8d8d8d;"/>
            </g>
            <g>
              <path d="M440.3,103.63c-5.43,0-12.73-2.5-15.57-7.14-1.58-2.57-1.63-5.48-.16-8.41,1.9-4.64,7.6-7.75,14.23-7.75h.38c.14,0,.36,0,.59,0,5.58,0,12.85,2.57,15.35,7.33.97,1.85,1.61,4.8-.81,8.41-1.8,4.46-7.44,7.56-13.81,7.56h-.21Z" style="fill: #babcbe;"/>
              <path d="M439.77,81.82c7.83,0,18.75,5.5,13.21,13.54-1.51,3.99-6.63,6.77-12.47,6.77h-.02s.02,0,.04,0h-.15s.08,0,.12,0c-.06,0-.12,0-.19,0-7.64,0-18.57-5.18-14.36-13.43,1.63-4.08,6.9-6.88,12.86-6.88.12,0,.24,0,.36,0,.2,0,.41-.01.62-.01M439.77,78.82c-.22,0-.43,0-.65.01-.11,0-.22,0-.33,0-7.2,0-13.44,3.46-15.59,8.63-1.67,3.36-1.58,6.84.24,9.82,3.16,5.15,10.87,7.85,16.85,7.85h.19s0,0,0,0c7.03,0,13.05-3.34,15.16-8.36,2.13-3.27,2.42-6.74.81-9.82-2.78-5.28-10.67-8.14-16.68-8.14h0Z" style="fill: #8d8d8d;"/>
            </g>
            <g>
              <path d="M457.23,120.17c-10.13-.38-14.84-5.96-15.03-11.33-.2-5.44,4.23-11.8,14.42-12.93.05,0,.11,0,.17,0,.05,0,.09,0,.14,0,7.49.69,13.75,4.31,16.36,9.45,1.46,2.34,1.58,4.78.34,7.04-2.75,5-11.4,7.76-16.33,7.76h-.06Z" style="fill: #babcbe;"/>
              <path d="M456.78,97.4c6.98.65,12.85,4.01,15.19,8.7,4.66,7.32-8.16,12.57-14.68,12.57-.02,0-.04,0-.05,0-18.17-.69-17.8-19.34-.46-21.26M456.78,94.4c-.11,0-.22,0-.33.02-11.14,1.23-15.97,8.37-15.75,14.47.22,6.06,5.38,12.35,16.42,12.77.03,0,.07,0,.1,0h.07c5.43,0,14.58-2.97,17.64-8.54,1.49-2.71,1.36-5.72-.35-8.5-2.86-5.56-9.55-9.47-17.53-10.21-.09,0-.18-.01-.28-.01h0Z" style="fill: #8d8d8d;"/>
            </g>
            <g>
              <path d="M486.51,156.46c-10.13-.3-14.86-5.89-15.05-11.3-.2-5.51,4.25-11.91,14.49-12.95.05,0,.1,0,.15,0,.05,0,.1,0,.14,0,7.47.72,13.74,4.34,16.36,9.47,1.42,2.4,1.49,4.87.21,7.14-2.77,4.91-11.37,7.64-16.25,7.65h0s-.03,0-.04,0Z" style="fill: #babcbe;"/>
              <path d="M486.1,133.7c6.96.67,12.82,4.02,15.19,8.7,4.46,7.44-8.17,12.55-14.74,12.57-18.33-.54-17.8-19.5-.46-21.26M486.1,130.7c-.1,0-.2,0-.3.02-10.7,1.09-16.07,8.12-15.84,14.5.22,6.11,5.41,12.42,16.51,12.75.03,0,.06,0,.09,0h0c5.37-.01,14.47-2.94,17.55-8.41,1.53-2.72,1.46-5.77-.2-8.6-2.87-5.55-9.57-9.47-17.53-10.24-.1,0-.19-.01-.29-.01h0Z" style="fill: #8d8d8d;"/>
            </g>
            <g>
              <path d="M417.43,89.45c-.08,0-.15,0-.22-.02-10.91-.39-15.91-6.39-15.93-11.87-.02-5.81,5.34-12.23,17.17-12.59.28-.02.62-.03.95-.03,5.2,0,11.78,2.37,14.29,6.91,1.02,1.84,1.76,4.8-.47,8.47-1.8,5.08-7.93,8.77-15.08,9.1-.08.01-.17.02-.26.02h-.46Z" style="fill: #babcbe;"/>
              <path d="M419.4,66.45c7.57,0,17.35,5.42,12.46,13.24-1.57,4.71-7.4,8.09-14.22,8.26-20.21-.46-19.71-20.85.85-21.47.3-.02.6-.03.91-.03M417.64,87.95c.08,0,.16,0,.24,0h-.46c.07,0,.14,0,.21,0M419.4,63.45h0c-.35,0-.7,0-1.04.03-12.8.4-18.61,7.59-18.58,14.1.02,6.16,5.45,12.91,17.3,13.36.12.01.23.02.35.02h.46c.14,0,.27,0,.4-.03,7.76-.38,14.22-4.32,16.3-9.95,1.96-3.31,2.11-6.8.42-9.85-2.79-5.04-9.96-7.68-15.6-7.68h0Z" style="fill: #8d8d8d;"/>
            </g>
            <g>
              <path d="M365.9,72.59c-.5-.01-.95-.27-1.21-.67-4.29-.42-8.38-1.72-11.69-3.74-.16-.1-.3-.22-.41-.38-3.25-4.29-2.56-7.95-1.41-10.26,2.37-4.77,9.25-8.36,16.01-8.36.15,0,.31,0,.46,0,10.45.21,14.1,5.92,14.05,10.75-.06,6.22-5.82,12.66-15.34,12.66h-.45Z" style="fill: #babcbe;"/>
              <path d="M367.18,50.68c.14,0,.28,0,.42,0,19.07.38,14.71,20.41-1.25,20.41-.14,0-.28,0-.42,0l.76-.54c-4.76-.16-9.31-1.45-12.91-3.65-6.68-8.83,4.31-16.22,13.4-16.22M367.18,47.68h0c-6.35,0-14.35,3.16-17.35,9.19-1.89,3.8-1.34,8.01,1.55,11.84.23.3.51.55.83.75,3.35,2.05,7.45,3.4,11.75,3.9.52.45,1.18.72,1.9.73.16,0,.33,0,.49,0,10.45,0,16.77-7.19,16.84-14.15.05-5.51-3.98-12.03-15.53-12.26-.15,0-.31,0-.48,0h0Z" style="fill: #8d8d8d;"/>
            </g>
            <g>
              <path d="M393.43,79.68c-.43,0-.83-.18-1.11-.49-6.6-.53-11.91-4.35-13.43-9.81-1.53-5.5,1.18-11.18,7.07-14.81.19-.12.4-.19.62-.21.72-.08,1.53-.12,2.42-.12,5.65,0,18.4,2.03,21.74,8.29.9,1.69,1.47,4.43-.87,7.9-5.53,8.05-12.67,9.25-16.44,9.25Z" style="fill: #babcbe;"/>
              <path d="M389,55.73c8.88,0,26.03,4.36,19.62,13.86-5.17,7.52-11.7,8.59-15.19,8.59l.3-.43c-13.66-.12-19.24-14.35-6.99-21.91.66-.08,1.42-.11,2.25-.11M389,52.73h0c-.95,0-1.82.04-2.59.13-.44.05-.86.2-1.23.43-6.49,4-9.45,10.32-7.73,16.49,1.66,5.94,7.27,10.13,14.27,10.86.49.35,1.09.54,1.72.54,4.06,0,11.75-1.29,17.66-9.89,2.78-4.12,2.06-7.42.97-9.47-3.52-6.62-16.01-9.09-23.06-9.09h0Z" style="fill: #8d8d8d;"/>
            </g>
            <g>
              <path d="M339.36,67.05c-.43,0-.86-.02-1.29-.05-3.69-.02-7.3-.77-10.43-2.17-.21-.09-.4-.24-.54-.41-3.96-4.8-3.96-10.75,0-15.55,2.8-3.36,7.53-5.21,13.34-5.21,4.67,0,9.5,1.27,12.92,3.39.19.12.35.28.47.47,2.4,3.76,2.63,7.82.65,11.43-2.62,4.77-8.83,8.1-15.11,8.1Z" style="fill: #babcbe;"/>
              <path d="M340.44,45.16c4.42,0,8.93,1.18,12.12,3.17,5.76,9.03-3.74,17.23-13.2,17.23-.41,0-.82-.02-1.23-.05-3.5,0-6.92-.72-9.87-2.04-3.48-4.21-3.48-9.43,0-13.64,2.73-3.28,7.4-4.67,12.18-4.67M340.44,42.16h0c-6.26,0-11.41,2.04-14.49,5.75-4.38,5.31-4.38,12.16,0,17.47.29.36.66.64,1.09.83,3.31,1.48,7.1,2.28,10.99,2.3.45.03.9.05,1.35.05,6.8,0,13.56-3.65,16.43-8.88,2.26-4.12,2.01-8.72-.7-12.96-.24-.38-.56-.7-.94-.93-3.64-2.27-8.77-3.62-13.7-3.62h0Z" style="fill: #8d8d8d;"/>
            </g>
            <g>
              <path d="M255.91,69.48c-.25,0-.5-.07-.71-.19-.05,0-.1,0-.14,0-5.37,0-10.61-3.08-12.74-7.5-1.68-3.49-1.19-7.33,1.35-10.53,2.75-3.79,9.39-6.59,15.75-6.59s10.39,2.48,11.98,6.81c2.92,4.01,2.25,7.43,1.17,9.6-2.63,5.26-10.37,8.4-16.33,8.4h-.33Z" style="fill: #babcbe;"/>
              <path d="M259.43,46.17c4.79,0,9.18,1.73,10.64,6.02,6.54,8.7-4.97,15.79-13.82,15.79-.1,0-.2,0-.31,0l-.15-.21c-.24.01-.49.02-.73.02-8.51,0-15.94-8.39-10.21-15.59,2.58-3.55,8.87-6.02,14.58-6.02M259.43,43.17c-6.89,0-13.85,2.96-16.97,7.2-2.88,3.66-3.43,8.05-1.49,12.06,2.38,4.94,7.96,8.28,13.91,8.35.32.12.66.19,1.01.19.12,0,.24,0,.36,0,6.33,0,14.67-3.23,17.67-9.23,1.76-3.53,1.34-7.41-1.17-10.98-1.87-4.84-6.69-7.6-13.31-7.6h0Z" style="fill: #8d8d8d;"/>
            </g>
            <g>
              <path d="M309.89,65.51c-6.52,0-12.53-3.22-14.62-7.83-1.57-3.47-.74-7.32,2.33-10.83,2.92-3.99,9.37-6.76,15.71-6.76,6.87,0,11.6,3.21,12.72,8.59,2.12,4.06,1.12,7.36-.1,9.42-2.56,4.31-8.59,7.32-14.65,7.32-.1,0-.2,0-.29,0-.14.05-.3.08-.46.09-.21,0-.43.01-.64.01Z" style="fill: #babcbe;"/>
              <path d="M313.32,41.58c5.38,0,10.29,2.21,11.29,7.6,4.51,8.28-5.07,14.73-13.33,14.73-.27,0-.54,0-.8-.02v.11c-.2,0-.39,0-.59,0-9.45,0-18.67-7.65-11.11-16.23,2.72-3.77,8.89-6.2,14.53-6.2M313.32,38.58c-6.76,0-13.67,3.01-16.88,7.33-4.65,5.35-3.58,10.06-2.53,12.39,2.32,5.13,8.89,8.71,15.98,8.71.23,0,.46,0,.69-.01.21,0,.42-.04.62-.09.03,0,.06,0,.08,0,6.57,0,13.13-3.31,15.94-8.06,1.97-3.31,2.04-7.09.24-10.69-1.33-5.92-6.71-9.58-14.15-9.58h0Z" style="fill: #8d8d8d;"/>
            </g>
            <g>
              <path d="M283.44,65.42c-4.63,0-9.2-2.16-11.94-5.63-2.07-2.62-2.85-5.75-2.22-8.84-.49-1.93-.14-3.78,1.04-5.38,3-4.09,10.69-5.62,14.83-5.62h.37c6.86,0,14.87,2.37,15.06,9.05.78,3.46-.02,6.81-2.31,9.72-2.93,3.71-8.03,6.16-13.15,6.36-.24.19-.53.3-.84.32-.28.02-.56.02-.84.02Z" style="fill: #babcbe;"/>
              <path d="M285.52,41.45c5.41,0,13.52,1.67,13.57,7.73,1.95,8.12-6.5,14.4-14.61,14.4-.2,0-.39,0-.59-.01l.3.32c-.25.01-.5.02-.76.02-7.22,0-14.33-5.91-12.61-13.02-2.08-6.59,8.68-9.45,14.33-9.45.04,0,.07,0,.11,0,.08,0,.17,0,.26,0M285.52,38.45h-.28s-.08,0-.08,0c-4.61,0-12.69,1.66-16.04,6.23-1.38,1.89-1.85,4.05-1.36,6.3-.6,3.42.31,6.85,2.58,9.74,3.01,3.82,8.04,6.2,13.11,6.2.31,0,.62,0,.93-.03.44-.03.85-.14,1.22-.34,5.4-.32,10.75-2.96,13.86-6.9,2.51-3.19,3.44-7.03,2.63-10.84-.32-7.64-9.07-10.36-16.56-10.36h0Z" style="fill: #8d8d8d;"/>
            </g>
            <g>
              <path d="M229,75.92c-5.9-.22-10.75-3.26-12.04-7.47-3.75-2.81-3.53-5.79-3.05-7.35,1.74-5.63,11.45-9.83,18.96-9.83,4.87,0,8.38,1.75,9.92,4.93,2.82,3.32,3.5,7.07,1.9,10.59-2.16,4.77-8.35,8.43-14.67,8.78-.27.23-.61.35-.96.35-.02,0-.04,0-.06,0Z" style="fill: #babcbe;"/>
              <path d="M232.87,52.77c3.91,0,7.3,1.23,8.64,4.25,7.39,8.45-2.89,17.06-12.46,17.08v.32c-5.44-.21-9.93-3.07-10.79-6.87-9.39-6.44,4.4-14.78,14.6-14.78M232.87,49.77h0c-8.05,0-18.4,4.47-20.39,10.89-.59,1.89-.89,5.44,3.2,8.71,1.68,4.56,6.93,7.81,13.26,8.05.04,0,.08,0,.11,0,.51,0,1.01-.13,1.46-.38,6.79-.51,13.18-4.4,15.54-9.63,1.82-4.03,1.11-8.28-2-12.03-1.83-3.62-5.78-5.61-11.18-5.61h0Z" style="fill: #8d8d8d;"/>
            </g>
            <g>
              <path d="M202.37,85.99c-.77,0-1.55-.03-2.3-.09-.13-.01-.26-.04-.39-.08-8.44-3.02-10.75-9.17-10.1-13.92.91-6.62,7.04-11.63,14.9-12.18.03,0,.15,0,.18,0,4.05.2,7.88,1.59,10.53,3.82,5.75,3.53,7.76,9.34,5,14.49-2.84,4.86-9.83,7.97-17.82,7.97Z" style="fill: #babcbe;"/>
              <path d="M204.59,61.21c3.79.19,7.31,1.47,9.72,3.54,5.12,3.09,6.94,8.12,4.56,12.56-2.8,4.78-9.8,7.17-16.5,7.17-.73,0-1.46-.03-2.18-.09-15.1-5.4-10.21-22.17,4.41-23.2M204.59,58.21c-.07,0-.14,0-.21,0-8.58.6-15.27,6.14-16.28,13.47-.73,5.33,1.79,12.22,11.08,15.54.25.09.51.14.77.17.8.06,1.61.1,2.42.1,6.78,0,15.36-2.27,19.09-8.66.02-.03.04-.07.06-.1,3.09-5.78.86-12.5-5.44-16.42-2.93-2.43-6.94-3.89-11.34-4.1-.05,0-.1,0-.15,0h0Z" style="fill: #8d8d8d;"/>
            </g>
            <g>
              <path d="M160.68,109.43c-4.88-.04-10.28-3.09-12.83-7.24-1.74-2.83-1.99-5.85-.72-8.54,1.71-6.09,8.87-9.38,14.78-9.38,4.43,0,8.24,1.75,10.53,4.81,2.44,1.02,4.21,2.68,5.01,4.71.65,1.64.58,3.43-.18,5.04-1.96,5.72-8.4,9.87-16.45,10.59-.04,0-.09,0-.13,0h-.01Z" style="fill: #babcbe;"/>
              <path d="M161.91,85.77c3.77,0,7.41,1.37,9.57,4.54,4.04,1.52,5.91,4.89,4.41,7.95-1.72,5.15-7.77,9-15.19,9.67-7.2-.06-15.34-7.32-12.15-13.75,1.35-5.08,7.51-8.41,13.37-8.41M161.91,82.77v3-3h0c-6.43,0-14.22,3.63-16.19,10.35-1.44,3.13-1.14,6.61.85,9.85,2.85,4.64,8.65,7.91,14.1,7.95,0,0,.02,0,.03,0,.09,0,.18,0,.27-.01,8.6-.77,15.52-5.28,17.71-11.52.91-1.97.98-4.15.18-6.16-.91-2.3-2.83-4.19-5.46-5.38-2.6-3.24-6.72-5.09-11.48-5.09h0Z" style="fill: #8d8d8d;"/>
            </g>
            <g>
              <path d="M183.59,95.57c-9.97-.25-18.37-5.62-19.96-12.77-.06-.29-.04-.59.06-.86,2.46-6.47,10.01-11.06,19.22-11.7.04,0,.07,0,.1,0,7.7,0,13.02,4.35,13.93,11.35,1,2.89.6,5.85-1.15,8.35-2.31,3.32-6.7,5.46-11.18,5.46-.09,0-.19,0-.28,0-.22.12-.46.18-.71.18h-.04Z" style="fill: #babcbe;"/>
              <path d="M183.02,71.73c6.99,0,11.7,3.76,12.46,10.2,2.43,6.61-4.22,11.96-10.86,11.96-.33,0-.66-.01-.99-.04v.21c-9.31-.23-17.08-5.09-18.53-11.6,2.23-5.87,9.37-10.14,17.93-10.74M183.02,68.73c-.07,0-.14,0-.21,0-9.8.68-17.85,5.65-20.52,12.66-.21.55-.25,1.15-.12,1.72,1.77,7.95,10.57,13.68,21.39,13.94.02,0,.05,0,.07,0,.35,0,.69-.06,1.01-.17,4.94,0,9.8-2.4,12.39-6.1,2-2.87,2.49-6.25,1.39-9.55-1.06-7.73-6.93-12.51-15.39-12.51h0Z" style="fill: #8d8d8d;"/>
            </g>
            <g>
              <path d="M140.21,122.74c-5.65,0-12.94-2.96-15.34-7.9-.97-2-1.53-5.14,1.28-8.8,2.34-4.39,9.34-8.22,15.09-8.22,2.94,0,5.45.95,7.28,2.76,5.48,2.85,8.07,7.38,6.93,12.16-1.38,5.8-7.58,10.01-14.76,10.01h-.49Z" style="fill: #babcbe;"/>
              <path d="M141.25,99.32c2.42,0,4.69.72,6.38,2.49,12.68,6.39,5.25,19.44-6.93,19.44-.12,0-.24,0-.37,0-.04,0-.08,0-.12,0-7.97,0-19.04-6.43-12.79-14.39,1.89-3.71,8.26-7.53,13.83-7.53M141.25,96.32h0c-6.3,0-13.7,4.05-16.36,8.9-2.5,3.31-2.99,6.95-1.37,10.27,2.66,5.47,10.58,8.75,16.69,8.75h.1c.13,0,.26,0,.39,0,7.86,0,14.68-4.69,16.22-11.16,1.29-5.44-1.51-10.55-7.5-13.74-2.1-1.99-4.91-3.03-8.16-3.03h0Z" style="fill: #8d8d8d;"/>
            </g>
            <g>
              <path d="M93.54,196.52c-.28,0-.54-.08-.77-.21h-1.66c-3.14,0-6.14-1.38-8.46-3.89-2.65-2.87-4.11-6.9-3.82-10.51.51-8.84,7.94-8.84,11.52-8.84.82,0,1.65.02,2.48.05h.26c11.26,0,17.15,6.05,17.16,12.04,0,5.46-5.22,11.35-16.7,11.37h0Z" style="fill: #babcbe;"/>
              <path d="M90.34,174.57c.81,0,1.62.02,2.44.05.1,0,.2,0,.3,0,20.06,0,21.51,20.37.46,20.41l.3-.21h-2.73c-6.68,0-11.24-7.09-10.79-12.78.38-6.59,4.94-7.46,10.02-7.46M90.34,171.57c-3.39,0-12.4,0-13.01,10.25-.31,4.01,1.31,8.46,4.22,11.61,2.6,2.82,6,4.37,9.56,4.37h1.32c.35.14.72.21,1.12.21h0c12.51-.02,18.2-6.69,18.19-12.87,0-6.73-6.41-13.54-18.65-13.54h-.27c-.79-.02-1.64-.04-2.48-.04h0Z" style="fill: #8d8d8d;"/>
            </g>
            <g>
              <path d="M124.53,140.46c-.12,0-.23-.01-.34-.04l-.33-.08c-10.3-.58-14.85-6.42-14.79-11.96.06-5.88,5.43-11.99,15.57-12.3.02,0,.08,0,.1,0,10.66.4,15.48,6.23,15.53,11.82.05,5.62-4.83,11.94-15.65,12.55-.03,0-.06,0-.08,0Z" style="fill: #babcbe;"/>
              <path d="M124.69,117.59c19.11.72,18.5,20.33-.15,21.37l-.46-.11c-18.83-.98-17.36-20.71.61-21.26M124.69,114.59s-.06,0-.09,0c-11.08.34-16.95,7.19-17.02,13.78-.07,6.23,4.88,12.78,16.08,13.46l.2.05c.23.05.46.08.69.08.06,0,.11,0,.17,0,11.81-.66,17.13-7.75,17.07-14.06-.06-6.1-5.39-12.87-16.97-13.31-.04,0-.08,0-.11,0h0Z" style="fill: #8d8d8d;"/>
            </g>
            <g>
              <path d="M108.27,157.86c-5.4-.03-10.46-1.97-13.53-5.19-.12-.13-.22-.27-.29-.43-1.66-3.77-1.25-8.03,1.14-11.69,2.84-4.36,7.82-7.06,13-7.06h.33c10.69.78,15.37,6.71,15.3,12.25-.07,5.47-5.06,11.6-15.87,12.12-.02,0-.05,0-.07,0h0Z" style="fill: #babcbe;"/>
              <path d="M108.59,134.99c.1,0,.2,0,.29,0,18.8,1.36,18.29,20.46-.61,21.37-5-.03-9.66-1.8-12.46-4.73-3.5-7.94,3.98-16.65,12.77-16.65M108.59,131.99h0c-5.68,0-11.15,2.97-14.26,7.74-2.67,4.1-3.13,8.88-1.26,13.12.14.32.34.61.58.86,3.35,3.5,8.81,5.62,14.61,5.65,0,0,.01,0,.02,0,.05,0,.1,0,.14,0,11.78-.57,17.22-7.45,17.3-13.6.07-6.04-5.09-12.92-16.62-13.76-.05,0-.1,0-.15,0-.12,0-.24,0-.36,0h0Z" style="fill: #8d8d8d;"/>
            </g>
            <g>
              <path d="M95.48,178.05c-5.15-.13-9.84-1.93-12.87-4.95-.1-.1-.19-.22-.26-.34-2.72-4.96-1.9-10.55,2.19-14.95,2.65-2.87,7.11-4.52,12.24-4.52,3.56,0,6.99.8,9.69,2.25,8.03,3.13,8.45,7.86,7.97,10.41-1.18,6.34-10.02,12.12-18.56,12.12h-.41Z" style="fill: #babcbe;"/>
              <path d="M96.79,154.79c3.27,0,6.54.74,9.06,2.11,15.83,6.09,2.54,19.66-9.95,19.66-.13,0-.25,0-.38,0-4.73-.12-9.11-1.78-11.85-4.51-2.4-4.37-1.67-9.29,1.97-13.21,2.55-2.77,6.84-4.05,11.14-4.05M96.79,151.79h0c-5.55,0-10.42,1.83-13.35,5.01-4.48,4.82-5.4,11.22-2.4,16.69.14.25.31.48.51.68,3.3,3.28,8.36,5.25,13.89,5.38.16,0,.3,0,.45,0,9.19,0,18.73-6.36,20.03-13.34.45-2.41.48-8.39-8.82-12.05-2.9-1.54-6.55-2.38-10.32-2.38h0Z" style="fill: #8d8d8d;"/>
            </g>
          </g>
          <path d="M307.59,3c40.07,0,79.67,7.7,114.4,22.56,36.47,17.02,66.42,40.15,87.2,67.34,22.18,25.99,31.45,49.94,57.88,71.42,7.14,5.76,12.33,12.59,15.19,19.97.45.93.6,1.92.46,2.9-.12.78-.43,1.54-.91,2.26h-62.56c-.42,1.32-1.24,2.57-2.46,3.65-1.98,1.45-4.71,2.26-7.54,2.26-.17,0-.34,0-.51,0v.21c-6.89-.22-13.31-2.45-17.81-6.12H107.47c-.17.25-.35.51-.56.75-2.82,3.03-7.6,4.84-12.7,4.84-.22,0-.45,0-.67-.01l.3-.21h-2.73c-3.82,0-6.94-2.32-8.83-5.37H3c19.12-16.25,36.05-33.72,50.59-52.19,22.33-26.63,33.73-48.43,60.77-69.05,24.69-19.11,53.95-35,86.44-46.93l7.29-2.47c18.41-6.1,37.87-10.47,57.88-12.99,13.81-1.87,27.74-2.8,41.62-2.8M307.59,0c-14.06,0-28.2.95-42.02,2.82-20.17,2.55-39.84,6.96-58.42,13.12l-7.31,2.48s-.05.02-.07.03c-32.88,12.07-62.24,28.01-87.24,47.37-19.08,14.55-30.76,30.03-43.14,46.43-5.56,7.37-11.31,14.98-18.09,23.07-.02.02-.04.05-.06.07-14.37,18.27-31.25,35.68-50.17,51.76-.96.81-1.31,2.14-.87,3.32.43,1.18,1.56,1.96,2.82,1.96h77.71c2.66,3.43,6.37,5.37,10.4,5.37h1.32c.32.13.66.2,1.02.21.26,0,.51.01.77.01,5.84,0,11.31-2.09,14.7-5.59h380.98c4.94,3.68,11.7,5.9,18.75,6.12.03,0,.06,0,.1,0,.39,0,.77-.07,1.12-.22,3.28-.11,6.35-1.11,8.71-2.83.08-.06.15-.11.22-.18.97-.86,1.78-1.84,2.39-2.89h60.64c.99,0,1.93-.49,2.48-1.32.73-1.08,1.2-2.25,1.39-3.48.23-1.54,0-3.11-.66-4.54-3.04-7.79-8.59-15.1-16.07-21.13-16.07-13.06-25.75-27.18-35.99-42.13-6.37-9.29-12.95-18.89-21.44-28.84-20.99-27.44-51.51-51.01-88.27-68.17-.03-.01-.06-.03-.09-.04C388.29,7.88,348.32,0,307.59,0h0Z" style="fill: #507125;"/>
        </g>
      </g>
    </g>
  </g>
</svg>