<svg xmlns="http://www.w3.org/2000/svg" viewBox="0 0 86.2 46.2"><g id="Layer_2" data-name="Layer 2"><g id="Layer_1-2" data-name="Layer 1"><path d="M43.6,3A85.7,85.7,0,0,1,58.7,4.4a4.6,4.6,0,0,1,3.4,3.1l3.8,12.4h0l.8,2.6.4,1.2,1.1,3.7a35.4,35.4,0,0,1,13.1,5.1,4.6,4.6,0,0,1-1.7,8.2,147.4,147.4,0,0,1-26.5,2.2H22.6A121.9,121.9,0,0,1,6.7,41.4a4.6,4.6,0,0,1-1.8-8.2,36.3,36.3,0,0,1,13-5.3l.9-3.2.3-1.3.9-3.1L23.6,7.9a6.1,6.1,0,0,1,.5-1.2,4,4,0,0,1,2.8-1.9A78.3,78.3,0,0,1,43.6,3M57.8,26.6v0h0m.2,1.3h0m.2,1.1h0M43.6,0A84,84,0,0,0,26.3,1.8a7.4,7.4,0,0,0-4.8,3.3A15.4,15.4,0,0,0,20.7,7L17.1,19.5l-.9,3.1-.3,1.3-.4,1.4A36.4,36.4,0,0,0,3.2,30.8a7.3,7.3,0,0,0-3,7.7,7.3,7.3,0,0,0,6,5.8,109.4,109.4,0,0,0,16.4,1.5H53.1a139.1,139.1,0,0,0,27.1-2.3,7.5,7.5,0,0,0,5.9-5.9A7.4,7.4,0,0,0,82.9,30a36.8,36.8,0,0,0-12.3-5.2l-.6-2-.4-1.2L68.8,19h0L65,6.6a7.4,7.4,0,0,0-5.7-5.1A83.5,83.5,0,0,0,43.6,0Z" style="fill:#e75c78"/><path d="M79.6,40.7a152.2,152.2,0,0,1-32.3,2.1c-8.2-.2-16.4.2-24.7,0A121.9,121.9,0,0,1,6.7,41.4a4.6,4.6,0,0,1-1.8-8.2,36.3,36.3,0,0,1,13-5.3l.9-3.2.3-1.3.9-3.1L23.6,7.9a6.1,6.1,0,0,1,.5-1.2,4,4,0,0,1,2.8-1.9,79.2,79.2,0,0,1,31.8-.4,4.6,4.6,0,0,1,3.4,3.1l3.8,12.4c-.1,0-3.2.7-8.4,1.4,0,1,.1,2.1.2,3.2v1.3a12.2,12.2,0,0,0,.9,4.2,91.7,91.7,0,0,0,9.6-2.6,35.4,35.4,0,0,1,13.1,5.1A4.6,4.6,0,0,1,79.6,40.7Z" style="fill:#fc97b8"/><path d="M58.6,30a83,83,0,0,1-40.7-2.1l.9-3.2.3-1.3.9-3.1a128,128,0,0,0,37.5,1c0,1,.1,2.1.2,3.2v1.3A12.2,12.2,0,0,0,58.6,30Z" style="fill:#fdb049"/><path d="M68.2,27.4A91.7,91.7,0,0,1,58.6,30c0-.1-.1-.2-.1-.3s-.1-.2-.1-.3a.3.3,0,0,1-.1-.2c0-.1-.1-.2-.1-.3h0c0-.1-.1-.1-.1-.2h0v-.3A.4.4,0,0,1,58,28a.4.4,0,0,0-.1-.3v-.5a2.8,2.8,0,0,1-.1-.9V24.5c-.1-1.1-.2-2.2-.2-3.2,5.2-.7,8.3-1.4,8.4-1.4h0l.8,2.6.4,1.2Z" style="fill:#eb9736"/><path d="M26.2,7.5l-2.1-.8a4,4,0,0,1,2.8-1.9,79.2,79.2,0,0,1,31.8-.4,4.6,4.6,0,0,1,3.4,3.1l3.8,12.4c-.1,0-3.2.7-8.4,1.4-.2-2.1-.3-4.1-.4-6.2s-.7-5.5-3-6.3a6.5,6.5,0,0,0-3.1,0A66.8,66.8,0,0,1,26.2,7.5Z" style="fill:#fa789e"/><path d="M79.6,40.7a152.2,152.2,0,0,1-32.3,2.1c-8.2-.2-16.4.2-24.7,0,2.5-.5,5.1-.8,7.5-1.1A225.9,225.9,0,0,0,56,37.3c2-.5,4.4-1.5,4.5-3.5s-1.2-2.5-1.8-3.7a.1.1,0,0,0-.1-.1,91.7,91.7,0,0,0,9.6-2.6,35.4,35.4,0,0,1,13.1,5.1A4.6,4.6,0,0,1,79.6,40.7Z" style="fill:#fa789e"/><path d="M10.2,33.2c-1.3.7-2.9,1.9-2.5,3.4s1.7,1.8,3,2c5.4,1.1,11,.9,16.6.6,1.1-.1,2.5-.3,2.9-1.3s.2-.6,0-.8h-.6c-3.7-.3-7.4.4-11-.7-1.2-.3-2.6-1.2-2.5-2.5s.5-1.2.8-1.8C18.9,28.5,11.3,32.6,10.2,33.2Z" style="fill:#feb6d2"/><path d="M66.7,22.5c-3,.8-6,1.5-9,2a108.4,108.4,0,0,1-30.1.2c-2.8-.3-5.7-.8-8.5-1.3l-.3,1.3c12.8,2.3,26.1,3.2,38.9,1.1l4.7-.9a40.5,40.5,0,0,0,4.7-1.2Z" style="fill:#ca7618"/><path d="M66.4,29.7a17,17,0,0,1-.9,3.9l-.2.4c-1.3,1.7-3.8,1.6-5.9,1.1a26.1,26.1,0,0,1-7.2-2.7,5.9,5.9,0,0,1-1.7-1.3h0l-.6-.6-.3-.4c0-.1-.1-.2-.1-.3s-.1-.4-.2-.6v-.8A4,4,0,0,1,50.8,26a25.7,25.7,0,0,1,7.7-4.4,11.5,11.5,0,0,1,3.6-.7h.2a6.8,6.8,0,0,1,2,.2,5.5,5.5,0,0,1,2.4,1.5,3.6,3.6,0,0,1,1.1,2.3h0c0,.2.1.3.1.4S66.8,28.2,66.4,29.7Z" style="fill:#e94a33"/><path d="M66.4,29.7a17,17,0,0,1-.9,3.9l-.2.4c-1.3,1.7-3.8,1.6-5.9,1.1a26.1,26.1,0,0,1-7.2-2.7,5.9,5.9,0,0,1-1.7-1.3h.4c2.9-.2,5.9-.1,8.8-.9s5.6-2.5,6.6-5.3a5.9,5.9,0,0,0,.4-2.3,3.6,3.6,0,0,1,1.1,2.3h0c0,.2.1.3.1.4S66.8,28.2,66.4,29.7Z" style="fill:#d23625;opacity:0.27"/><path d="M64.6,23a1.6,1.6,0,0,1-.8.6,10.9,10.9,0,0,1-3.1.3,17.6,17.6,0,0,0-7.1,1.7,11.8,11.8,0,0,0-4.2,3.5h-.1v-.8A4,4,0,0,1,50.8,26a25.7,25.7,0,0,1,7.7-4.4,11.5,11.5,0,0,1,3.6-.7H63a2.6,2.6,0,0,1,1.3.6A1.3,1.3,0,0,1,64.6,23Z" style="fill:#c5281c"/><path d="M66.4,29.7a17,17,0,0,1-.9,3.9v-.2c-.1-.9-.8-1.8-.8-2.8a4.1,4.1,0,0,1,1.1-2.5,11.8,11.8,0,0,0,1.7-2.2,1.7,1.7,0,0,0,.3-1c0,.2.1.3.1.4S66.8,28.2,66.4,29.7Z" style="fill:#f05c4d"/><path d="M60,26.4c-3.4,1.2-7.1,2-10.4,3.7,0-.1-.1-.2-.1-.3a2.9,2.9,0,0,1,1.5-.9l3-1.3,3.5-1.1a6.9,6.9,0,0,1,2.4-.5c.2,0,.4.1.3.2A.2.2,0,0,1,60,26.4Z" style="fill:#d23625"/><path d="M60.9,32.1h-.2a35.5,35.5,0,0,0-8.6-1H50.5l-.6-.6a23.3,23.3,0,0,1,10.8,1.1l.3.2A.2.2,0,0,1,60.9,32.1Z" style="fill:#d23625"/><path d="M32.7,21.2c-.3,1.3-1.1,2.6-1.1,3.9v.4c.3,2.1,2.5,3.3,4.6,3.9a27.9,27.9,0,0,0,7.6,1.1,6.6,6.6,0,0,0,2.1-.3h0l.8-.2.5-.3.2-.2.5-.4a2.5,2.5,0,0,0,.4-.7,3.5,3.5,0,0,0-.2-2.8A22.8,22.8,0,0,0,43.5,18a13.1,13.1,0,0,0-2.8-2.4h-.2a4.8,4.8,0,0,0-1.8-.7,4.5,4.5,0,0,0-2.8.1,3.6,3.6,0,0,0-2.1,1.5h0l-.2.3C32.8,18.1,33,19.7,32.7,21.2Z" style="fill:#e94a33"/><path d="M32.7,21.2c-.3,1.3-1.1,2.6-1.1,3.9v.4c.3,2.1,2.5,3.3,4.6,3.9a27.9,27.9,0,0,0,7.6,1.1,6.6,6.6,0,0,0,2.1-.3h0l-.3-.2c-2.5-1.6-5.2-3-7.3-5s-3.6-5-3.2-7.9a5.3,5.3,0,0,1,.8-2.2,3.6,3.6,0,0,0-2.1,1.5h0l-.2.3C32.8,18.1,33,19.7,32.7,21.2Z" style="fill:#d23625;opacity:0.27"/><path d="M37.5,16.3a4.1,4.1,0,0,0,.5.9,11,11,0,0,0,2.5,1.7,18.1,18.1,0,0,1,5.4,4.9,13.9,13.9,0,0,1,2,5.1v.2a2.5,2.5,0,0,0,.4-.7,3.5,3.5,0,0,0-.2-2.8A22.8,22.8,0,0,0,43.5,18a13.1,13.1,0,0,0-2.8-2.4h-.2l-.6-.2a3.8,3.8,0,0,0-1.5-.1A1.3,1.3,0,0,0,37.5,16.3Z" style="fill:#c5281c"/><path d="M32.7,21.2c-.3,1.3-1.1,2.6-1.1,3.9s0-.1.1-.2,1.6-1.2,2.1-2.1a4.1,4.1,0,0,0,.2-2.7,12.8,12.8,0,0,1-.5-2.7,2.9,2.9,0,0,1,.3-1l-.2.3C32.8,18.1,33,19.7,32.7,21.2Z" style="fill:#f05c4d"/><path d="M39.9,21.4c2.4,2.8,5.3,5.2,7.3,8.3l.2-.2a3.4,3.4,0,0,0-.9-1.5,24.3,24.3,0,0,0-2-2.5l-2.4-2.8a10.4,10.4,0,0,0-2-1.5h-.3C39.7,21.3,39.8,21.4,39.9,21.4Z" style="fill:#d23625"/><path d="M36.3,26h.2a29.7,29.7,0,0,1,8,3.4l1.3.7h.1l.8-.2a21.5,21.5,0,0,0-9.9-4.3h-.4C36.3,25.8,36.2,25.9,36.3,26Z" style="fill:#d23625"/><path d="M60,17.2a12.4,12.4,0,0,1-3.1,4.1l-3.6,3.3-2.4,2.2a6,6,0,0,1-1.3.9c-.7.4-.8.1-1.1-.6a37.8,37.8,0,0,1-1.7-3.5,23.6,23.6,0,0,1-2.3-7.4,7.7,7.7,0,0,1-.1-2.6l.3-1.1a4.4,4.4,0,0,1,4.6-2.7c1.1.2,2.1.8,3.2,1.1a13.4,13.4,0,0,0,3.5.3,6.5,6.5,0,0,1,2.7.8,1,1,0,0,1,.5.4A4.6,4.6,0,0,1,60,17.2Z" style="fill:#e94a33"/><path d="M60,17.2a12.4,12.4,0,0,1-3.1,4.1l-3.6,3.3-2.4,2.2a6,6,0,0,1-1.3.9c-.7.4-.8.1-1.1-.6a37.8,37.8,0,0,1-1.7-3.5,23.6,23.6,0,0,1-2.3-7.4,7.7,7.7,0,0,1-.1-2.6,16.3,16.3,0,0,0,.7,3A20.6,20.6,0,0,0,48.8,23c.3.3.8.7,1.1.4s.2-.3.3-.5c.4-2,.9-4,1.4-6,.4.3.3.9.3,1.4s-.6,3-.8,4.6-.1.9.2,1.1a1.1,1.1,0,0,0,.8-.1,5.3,5.3,0,0,0,1.4-1.1L56,20.1a12.1,12.1,0,0,0,3.1-4.7,4.1,4.1,0,0,0,.2-1.9,3.4,3.4,0,0,0-.6-1.5,1,1,0,0,1,.5.4A4.6,4.6,0,0,1,60,17.2Z" style="fill:#d23625"/><path d="M49.9,10.8a3.7,3.7,0,0,0-2.3.1,3,3,0,0,0-1.7,1.2,1.7,1.7,0,0,0,.4,2,1.8,1.8,0,0,0,1.9,0l1.7-1a3.7,3.7,0,0,1,1.8-.4c.4,0,1.5.3,1.5-.2S50.5,10.9,49.9,10.8Z" style="fill:#f05c4d"/><path d="M38.9,35.8A11.2,11.2,0,0,1,42,31.7a36.1,36.1,0,0,1,3.5-3.3L48,26.2a5.8,5.8,0,0,1,1.2-1c.8-.3.9-.1,1.2.6s1.2,2.3,1.7,3.5a25.1,25.1,0,0,1,2.3,7.5,7.6,7.6,0,0,1,0,2.6,3.6,3.6,0,0,1-.2,1,4.5,4.5,0,0,1-4.7,2.8c-1.1-.2-2-.9-3.1-1.2a19.8,19.8,0,0,0-3.5-.3,5.3,5.3,0,0,1-2.8-.7l-.4-.4A4.6,4.6,0,0,1,38.9,35.8Z" style="fill:#e94a33"/><path d="M38.9,35.8A11.2,11.2,0,0,1,42,31.7a36.1,36.1,0,0,1,3.5-3.3L48,26.2a5.8,5.8,0,0,1,1.2-1c.8-.3.9-.1,1.2.6s1.2,2.3,1.7,3.5a25.1,25.1,0,0,1,2.3,7.5,7.6,7.6,0,0,1,0,2.6,15.9,15.9,0,0,0-.6-3A19.5,19.5,0,0,0,50.1,30c-.3-.4-.8-.7-1.1-.4s-.2.3-.3.5c-.5,2-.9,4-1.4,6a1.4,1.4,0,0,1-.3-1.4c.3-1.5.5-3.1.8-4.6s.1-.9-.3-1.1-.5-.1-.8.1a4.5,4.5,0,0,0-1.3,1.1l-2.6,2.7a14.4,14.4,0,0,0-3.1,4.6,6.7,6.7,0,0,0-.1,2,3,3,0,0,0,.5,1.5l-.4-.4A4.6,4.6,0,0,1,38.9,35.8Z" style="fill:#d23625"/><path d="M49,42.2a4.5,4.5,0,0,0,2.3-.1,2.3,2.3,0,0,0,1.6-1.3,1.4,1.4,0,0,0-.3-1.9,1.8,1.8,0,0,0-1.9,0c-.6.2-1.1.7-1.7.9a3.9,3.9,0,0,1-1.8.4c-.4,0-1.5-.3-1.5.3S48.4,42,49,42.2Z" style="fill:#f05c4d"/><path d="M52.8,31.7a3.5,3.5,0,0,1-2.3,1.2,8.3,8.3,0,0,1-2.7-.3l-2.5-.7a2.5,2.5,0,0,1-1.2-.8,2.4,2.4,0,0,1-.3-2.2,18,18,0,0,0,.8-2.1c.3-1.3,0-2.8,1.3-3.5l.4-.3a5.7,5.7,0,0,1,3.4-.4,9.8,9.8,0,0,1,2.9.9,3.8,3.8,0,0,1,1.7,2.4v.6a14.2,14.2,0,0,1-.5,2.2A10.6,10.6,0,0,1,52.8,31.7Z" style="fill:#c7261a"/><path d="M52.8,31.7a3.5,3.5,0,0,1-2.3,1.2,8.3,8.3,0,0,1-2.7-.3l-2.5-.7a2.5,2.5,0,0,1-1.2-.8,2.4,2.4,0,0,1-.3-2.2,18,18,0,0,0,.8-2.1c.3-1.3,0-2.8,1.3-3.5l.4-.3a2,2,0,0,0-.2,1.7c.2.8.7,1.5.6,2.3s-1.3,1.6-1.5,2.6,1,1.9,2,2.2a5.1,5.1,0,0,0,3,.1,3.8,3.8,0,0,0,2.2-2.1,4.7,4.7,0,0,1,.4-1.6l.8-.8a3.1,3.1,0,0,0,.7-.9,14.2,14.2,0,0,1-.5,2.2A10.6,10.6,0,0,1,52.8,31.7Z" style="fill:#b81b13"/><path d="M51.7,24.5a2,2,0,0,1,1.1,1.3,1.9,1.9,0,0,1-.1.8l-.3.3a13.1,13.1,0,0,1-1.1,1.2,1.2,1.2,0,0,1-1.5.2c-.4-.4-.4-1-.6-1.5S47.6,25,48.7,24,50.9,24,51.7,24.5Z" style="fill:#e94a33;opacity:0.51"/><path d="M48.7,9.7h.6c1.1.2,2.1.8,3.2,1.1a13.4,13.4,0,0,0,3.5.3,6.5,6.5,0,0,1,2.7.8,1,1,0,0,1,.5.4,4.6,4.6,0,0,1,.8,4.8,12.4,12.4,0,0,1-3.1,4.1l-2.1,2a24.8,24.8,0,0,1,3.7-1.7,11.5,11.5,0,0,1,3.6-.7h.3l1.9.2a5.5,5.5,0,0,1,2.4,1.5,3.6,3.6,0,0,1,1.1,2.3h0c0,.2.1.3.1.4s-1.1,2.9-1.5,4.4a17,17,0,0,1-.9,3.9l-.2.4a4,4,0,0,1-3.5,1.4,9.3,9.3,0,0,1-2.4-.3,23.4,23.4,0,0,1-5.8-2c.3,1.2.6,2.4.8,3.7a7.6,7.6,0,0,1,0,2.6,3.6,3.6,0,0,1-.2,1,4.5,4.5,0,0,1-4,2.8h-.7c-1.1-.2-2-.9-3.1-1.2a19.8,19.8,0,0,0-3.5-.3,5.3,5.3,0,0,1-2.8-.7l-.4-.4a4.6,4.6,0,0,1-.8-4.8A11.2,11.2,0,0,1,42,31.7l1.2-1.2a27.6,27.6,0,0,1-7-1.1c-2.1-.6-4.3-1.8-4.6-3.9v-.4c0-1.3.8-2.6,1.1-3.9s.1-3.1.9-4.5l.2-.3h0a3.6,3.6,0,0,1,2.1-1.5,4.1,4.1,0,0,1,1.6-.3l1.2.2a4.8,4.8,0,0,1,1.8.7h.2A13.1,13.1,0,0,1,43.5,18a18.6,18.6,0,0,1,2.1,2.8,23.7,23.7,0,0,1-1.1-4.6,7.7,7.7,0,0,1-.1-2.6l.3-1.1a4.5,4.5,0,0,1,4-2.8m0-3h0a7.6,7.6,0,0,0-6.8,4.7,5.3,5.3,0,0,0-.3,1.2l-2.2-.8-1.9-.2A10.1,10.1,0,0,0,35,12a6.5,6.5,0,0,0-3.7,2.7h-.1l-.3.6a10.7,10.7,0,0,0-1,3.9,4.9,4.9,0,0,1-.1,1.3c-.1.3-.3.7-.4,1.1a8.5,8.5,0,0,0-.8,3.4v.9c.4,3,2.8,5.2,6.8,6.4l1.7.4a18.6,18.6,0,0,0-1,2,7.6,7.6,0,0,0,1.5,8.1l.9.7a8.7,8.7,0,0,0,4.2,1.2h2.9l.9.4a8.2,8.2,0,0,0,2.5.8h1.2A7.5,7.5,0,0,0,57,41.5a8.5,8.5,0,0,0,.4-1.7,12.7,12.7,0,0,0,.1-2l1.2.3,3.1.3c3.3,0,5-1.4,5.9-2.7l.5-.7a9.6,9.6,0,0,0,.9-3.4c.1-.4.1-.8.2-1.1a6.1,6.1,0,0,1,.5-1.2,11.1,11.1,0,0,0,1.1-4c0-.2-.1-.4-.1-.6h0a6.8,6.8,0,0,0-1.9-4.2,8.2,8.2,0,0,0-6-2.6,7.5,7.5,0,0,0-1.6-7.7l-.9-.7a8.8,8.8,0,0,0-4.3-1.2h-1A5,5,0,0,1,53.3,8l-1-.3a11,11,0,0,0-2.4-.9Z" style="fill:#c2331d"/></g></g></svg>