<svg xmlns="http://www.w3.org/2000/svg" viewBox="0 0 159.8 129.5"><g id="Layer_2" data-name="Layer 2"><g id="Layer_1-2" data-name="Layer 1"><path d="M145.7,128a50.5,50.5,0,0,1-6.8-.7l-.9-.2a50.8,50.8,0,0,1-11.2-3.7,33,33,0,0,1-5.3-2.7h-.1l-5.8-3.1a55.4,55.4,0,0,0-8.4-3.9,22.5,22.5,0,0,0-7.1-1.2,19.2,19.2,0,0,0-6.7,1.1L90,114.7,83.2,117a43.7,43.7,0,0,1-6.3,1.5l-1.8.4-3.2.6-4.3.3a27.6,27.6,0,0,1-7.1-.9h-.2l-3.1-.9c-4.1-1.5-7.6-4.1-11.1-8.3a62.1,62.1,0,0,1-6.4-10A45.2,45.2,0,0,0,33.2,90,28.8,28.8,0,0,1,31,87.3a25.2,25.2,0,0,0-2.1-2.5,61.8,61.8,0,0,0-6.4-6.2l-3.1-2.5-4.5-3.8a64.2,64.2,0,0,1-5.1-5.4l-.7-.8A34.4,34.4,0,0,1,3.9,57a4.1,4.1,0,0,0-.5-.9,5.4,5.4,0,0,1-.7-1.3,14.3,14.3,0,0,1-1-7.9c.1-1,.3-2,.4-2.9s.4-2.1.5-3.2a12.3,12.3,0,0,0,.2-2v-.4c.2-3.7.4-7.8.8-11.9a16.8,16.8,0,0,1,2.1-6.2A18.4,18.4,0,0,1,8.5,16a13.7,13.7,0,0,1,7.1-4.7l1.2-.4a10.7,10.7,0,0,1,2.7-.7l2.3-.2a8.8,8.8,0,0,1,6,2.1l.3.3a14.6,14.6,0,0,1,2.3,1l.2.2a5.1,5.1,0,0,0,1.2.5h.8l.6.2h2a6.4,6.4,0,0,0,2.3-.5l1.3-.3.2-.2.2-.2A34,34,0,0,1,65.7,1.5h.1c4,0,8,.3,11.8.5h1.3c2.3.2,4.7.3,7,.3l4.2.2a156.7,156.7,0,0,1,26,3.5l1.3.2,3.2.7,5.1,1.3.7.2h.2l.4.2h.2c5.9,1.2,11.1,4.2,16,9.2a11.4,11.4,0,0,1,2.5,4.6c.6,1.9,1.3,3.8,2.1,5.8A27.3,27.3,0,0,1,149.5,45a31.7,31.7,0,0,1-3,7.6v.2c-.9,1.8-1.8,3.6-2.6,5.5a34.5,34.5,0,0,0-2.7,11.1,30.3,30.3,0,0,0,1.3,9.6c1,3.7,3.1,6.9,5.3,10.3l.5.8a61.3,61.3,0,0,1,5.6,9.7c.5,1.1,1.1,2.1,1.7,3.2l.9,1.7a7.9,7.9,0,0,1,.8,2.3v.3c.3,1.7.5,3.4.7,5a22.8,22.8,0,0,0,.2,2.6,9.4,9.4,0,0,1-1.3,6.9l-.5.9a11.9,11.9,0,0,1-.9,1.5,10.2,10.2,0,0,1-6.2,3.5,19.8,19.8,0,0,1-3.5.3Z" style="fill:#fff6d8"/><path d="M65.7,3h.1c4.4,0,8.7.3,13,.6s7.5.3,11.2.5a160,160,0,0,1,25.8,3.5l4.4.9c1.7.4,3.4.9,5.1,1.2l.8.3a.6.6,0,0,0,.2.6.5.5,0,0,0,.4.3h.1c.1,0,.1-.3.1-.5,6,1.3,10.9,4.5,15.2,8.9a8.3,8.3,0,0,1,2.2,4,58.9,58.9,0,0,0,2.1,5.9A25.8,25.8,0,0,1,148,44.6a30.6,30.6,0,0,1-2.8,7.3,63.6,63.6,0,0,0-2.8,5.9,35.2,35.2,0,0,0-2.8,11.6,33.9,33.9,0,0,0,1.3,10c1.2,4.1,3.5,7.6,5.8,11.1a65.1,65.1,0,0,1,5.7,9.9c.8,1.7,1.8,3.3,2.7,5a5.5,5.5,0,0,1,.6,2.2c.5,2.5.6,5,1,7.5a8.9,8.9,0,0,1-1.1,5.9c-.6.7-.9,1.6-1.4,2.3a8.3,8.3,0,0,1-5.3,2.9,17.3,17.3,0,0,1-3.2.3,48,48,0,0,1-7.5-.9,46.5,46.5,0,0,1-10.9-3.6,36.7,36.7,0,0,1-5.2-2.7l-5.8-3.2a55.4,55.4,0,0,0-8.6-3.9,22.9,22.9,0,0,0-7.6-1.3,22.7,22.7,0,0,0-7.2,1.2l-10.2,3.5a44.7,44.7,0,0,1-6.1,1.4c-1.6.3-3.2.8-4.8,1l-4.2.3a25.2,25.2,0,0,1-6.7-.9l-3.2-.9a24.8,24.8,0,0,1-10.5-7.9,56.7,56.7,0,0,1-6.1-9.7A51.2,51.2,0,0,0,34.3,89c-1.5-1.6-2.7-3.6-4.3-5.2a64.5,64.5,0,0,0-6.5-6.3c-2.5-2.1-5.1-4.1-7.6-6.3a54,54,0,0,1-5.6-6.1,32.2,32.2,0,0,1-5-8.6c-.3-.8-.9-1.5-1.2-2.3a12.4,12.4,0,0,1-.9-7.1L4.1,41a11,11,0,0,0,.2-2.6c.2-3.9.4-7.9.8-11.8A16.7,16.7,0,0,1,7,20.9,20.4,20.4,0,0,1,9.6,17a13.1,13.1,0,0,1,6.5-4.3c1.2-.3,2.4-.8,3.6-1l2.1-.2a7.7,7.7,0,0,1,5.1,1.7c0,.1-.1.2-.1.4a9.6,9.6,0,0,1,2.8,1.1,4.7,4.7,0,0,0,2.2.9h1l.6.2H34l.6.2h.6a17.9,17.9,0,0,0,4-.9,2.3,2.3,0,0,0,1.1-.8A32.5,32.5,0,0,1,65.7,3m0-3h0A35.6,35.6,0,0,0,38,12.3h0l-.9.2a7.2,7.2,0,0,1-1.9.4H31.9l-.5-.3-.2-.2a15.6,15.6,0,0,0-2.2-1l-.2-.2a10.6,10.6,0,0,0-7-2.4l-2.5.2-3,.8-1.1.3a15.9,15.9,0,0,0-7.9,5.3,25.1,25.1,0,0,0-3,4.5,20.3,20.3,0,0,0-2.2,6.7c-.4,4.2-.6,8.3-.8,12v.4c0,.7-.1,1.3-.1,1.9S.8,42.7.7,43.7s-.4,2-.5,2.9a15.5,15.5,0,0,0,1.1,8.8,6.4,6.4,0,0,0,.8,1.4l.4.8A35.4,35.4,0,0,0,8,67.1l.7.7a54.8,54.8,0,0,0,5.2,5.6c1.5,1.4,3.1,2.6,4.6,3.8l3.1,2.6a69.6,69.6,0,0,1,6.2,6l2,2.4A31.1,31.1,0,0,0,32.1,91a44.2,44.2,0,0,1,6.3,9.4,69.2,69.2,0,0,0,6.5,10.2,27.8,27.8,0,0,0,11.8,8.7,19.2,19.2,0,0,0,3.2.9h.2a30.2,30.2,0,0,0,7.5,1l4.5-.3,3.3-.7,1.7-.3a60,60,0,0,0,6.5-1.5l6.8-2.4,3.5-1.2a18.7,18.7,0,0,1,6.2-1,19.4,19.4,0,0,1,6.6,1.1,57.3,57.3,0,0,1,8.2,3.8l5.7,3.1h.2a44.4,44.4,0,0,0,5.3,2.8h.1a53.5,53.5,0,0,0,11.5,3.8h1a39.5,39.5,0,0,0,7,.8,15.8,15.8,0,0,0,3.8-.4,10.7,10.7,0,0,0,7-4,6.9,6.9,0,0,0,1.1-1.7,5.9,5.9,0,0,0,.4-.8,11,11,0,0,0,1.6-7.9,22.9,22.9,0,0,1-.2-2.5c-.2-1.7-.4-3.4-.7-5.2v-.2a8.6,8.6,0,0,0-.8-2.8l-1-1.7a23.9,23.9,0,0,1-1.6-3.2,78.4,78.4,0,0,0-5.7-9.8l-.2-.4-.3-.4c-2.2-3.3-4.2-6.4-5.2-10a29,29,0,0,1-1.2-9,31.6,31.6,0,0,1,2.6-10.6,54,54,0,0,1,2.6-5.5h0a30.9,30.9,0,0,0,3.1-8A28.2,28.2,0,0,0,149.2,28a56.1,56.1,0,0,1-2-5.7,11.7,11.7,0,0,0-3-5.2c-5-5.2-10.5-8.4-16.7-9.7l-.4-.2H127l-1-.4-5-1.2-3.3-.7-1.3-.3A160.3,160.3,0,0,0,90.2,1.1L86,.9c-2.3,0-4.7-.1-7-.3H77.8C73.9.3,69.9,0,65.9,0Z" style="fill:#ffd3b6"/><path d="M35,16C48.3,14.1,40.5-.7,84.4,3.9c15.1.5,30.7,2.4,34.3,5.4,23.4,16.6,4.1,51.6,4.7,54.6-2.6,12.7,4.1,24.2,11.4,34.1,3.8,4.8,10.8,19.5,4.4,21.6-6.1.3-11.4-2-16.8-4.7C89,90.5,86.2,113.3,60.5,103.7c-7.4-.5-14.1-18.1-18.4-21.7C31.6,70.2,24.5,65.2,20.2,52.4c-5.5-16.6-.3-29.7,6.6-38.8C29.5,14.4,32,16.2,35,16Z" style="fill:#feb6d2"/><path d="M62.6,65.8a5.3,5.3,0,0,0,1,.6c.5.4.8.7.7,1.3a1.1,1.1,0,0,1-1,1.2c-1.1,0-1.3.6-1.3,1.5a1.7,1.7,0,0,1-1.5,1.8c-.7.1-1.3-.3-1.7-1.2l-.6-1.6c-.5-.1-.9.3-1.3.4a3.7,3.7,0,0,1-1.4.4,1.4,1.4,0,0,1-1.5-.7,1.4,1.4,0,0,1,.3-1.7l1.9-1.5-.9-1a1.2,1.2,0,0,1-.2-1.6,1.6,1.6,0,0,1,1.6-.7,3.1,3.1,0,0,1,1.8.9c.6.6,1.2.7,1.8-.1a2.5,2.5,0,0,1,1.4-.8,1.2,1.2,0,0,1,1.3.2,1.3,1.3,0,0,1,.2,1.3C63.1,65,62.6,65.3,62.6,65.8Z" style="fill:#e05555"/><path d="M110.4,22a9,9,0,0,0-1.9.4l-2,.5a1.4,1.4,0,0,1-1.7-.6,1.7,1.7,0,0,1,.2-1.9,18,18,0,0,1,2-1.9c.9-.6.9-.7.3-1.6a9.6,9.6,0,0,1-1.2-2c-.2-.7-.5-1.5.2-2.1a1.8,1.8,0,0,1,2.2-.3,16.4,16.4,0,0,1,2.9,1.6c1.2.8.9.9,2.3.1a15.6,15.6,0,0,1,2.8-1.6c1.5-.7,2.4,0,2.2,1.6a5.8,5.8,0,0,1-.9,2.5c-.4.6-.2,1,.3,1.4l2.4,2.3a4.1,4.1,0,0,1,1,1.3,1.6,1.6,0,0,1-.2,1.6,1.2,1.2,0,0,1-1.5.4l-2.8-.6c-1.2-.3-1.2-.3-1.6.8a7.6,7.6,0,0,1-.9,1.8c-.9,1.1-2,1-2.9-.1a4.9,4.9,0,0,1-.8-1.8C110.7,23.2,110.5,22.6,110.4,22Z" style="fill:#e05555"/><path d="M80,26.6a14.3,14.3,0,0,1-1.4,2,2.9,2.9,0,0,1-3.2.7c-1-.5-1.4-1.6-1.1-3.1s.2-1.1-.8-1.4l-1-.3a2.2,2.2,0,0,1-.2-3.9l1.8-.7c.6-.1.7-.4.6-.8a9.4,9.4,0,0,1-.4-1.6,3.7,3.7,0,0,1,.1-1.8A1.9,1.9,0,0,1,75.9,14a1.9,1.9,0,0,1,2.2.8l1.8,2.9c.7,1.1.7,1.1,1.9.7a7.5,7.5,0,0,1,3.6-.5,2.2,2.2,0,0,1,2.1,1.4,2.1,2.1,0,0,1-.9,2.3,12.1,12.1,0,0,1-2.9,1.9c.2.6.5,1.1.7,1.7a1.8,1.8,0,0,1-2.2,2.5A22.6,22.6,0,0,1,80,26.6Z" style="fill:#e05555"/><path d="M91.5,70.5c.3.7.7,1.3,1,2a1.8,1.8,0,0,1-.4,2.1,2,2,0,0,1-2.2.3,8.4,8.4,0,0,1-3-2.2c-.7.2-.9.8-1.2,1.2L84.8,75a1.6,1.6,0,0,1-2.7-1.6,4.9,4.9,0,0,1,.6-1.7,2.9,2.9,0,0,0,.3-1.1c-.4-.3-1-.1-1.4-.2a8.8,8.8,0,0,1-1.7-.2A1.3,1.3,0,0,1,78.7,69a1.2,1.2,0,0,1,1-1.4l2.9-1c.8-.1,1.2-.4,1-1.3a5.5,5.5,0,0,1,.2-2.2,1.5,1.5,0,0,1,2.5-.8A4.6,4.6,0,0,1,88,64a2,2,0,0,0,1.9,1h4.2c1.5.3,1.9,1.5,1,2.8a5.3,5.3,0,0,1-2,1.6Z" style="fill:#e05555"/><path d="M107,44.2V41.9a3.8,3.8,0,0,1,.9-2.5,1.8,1.8,0,0,1,3.2.3,10.1,10.1,0,0,1,.9,2.8c.2.9.6,1.2,1.5,1.1a8.2,8.2,0,0,1,3.8.6c.7.3,1.3.6,1.3,1.5s-.5,1.3-1.2,1.6l-2.2.7c-.5.1-.7.4-.5.9a2,2,0,0,1,.2,1.3,1.9,1.9,0,0,1-2.8,1.8,2.4,2.4,0,0,1-.8-.6c-.5-.6-1-.4-1.5.1a4.9,4.9,0,0,1-1.8,1.4,2,2,0,0,1-2.2-.3,1.8,1.8,0,0,1-.4-2.3,8.1,8.1,0,0,1,1-1.8c-.3-.5-.7-.4-1-.4l-1.2-.2c-1.3-.3-2-1-1.9-2a2.1,2.1,0,0,1,2.2-1.8A10.7,10.7,0,0,1,107,44.2Z" style="fill:#e05555"/><path d="M82.3,94.5a2.4,2.4,0,0,0-.3,1.4,3.1,3.1,0,0,1-1.2,2.4,1.8,1.8,0,0,1-3.2-.7,10.9,10.9,0,0,1-.5-2.6c0-.6-.3-.8-.9-.7a6.5,6.5,0,0,1-2.4.2,1.7,1.7,0,0,1-1.7-1,1.6,1.6,0,0,1,.7-1.9A37.1,37.1,0,0,1,76,89.3c0-.5-.4-.7-.6-1a8.6,8.6,0,0,0-.7-1,1.5,1.5,0,0,1,.3-2,1.3,1.3,0,0,1,1.8,0,17.8,17.8,0,0,1,2.7,2.1c.6.7,1.2.6,2,.2a27.1,27.1,0,0,1,3-1.3,1.2,1.2,0,0,1,1.4.2,1.2,1.2,0,0,1,0,1.5,17.4,17.4,0,0,1-1.1,1.8c-.3.4-.4.7.1,1L86.3,92a1.8,1.8,0,0,1,.5,2.1,1.8,1.8,0,0,1-2.1.9l-1.2-.2Z" style="fill:#e05555"/><path d="M52.8,46.4l-1.5-.7a1.5,1.5,0,0,1-1-1.3,1.5,1.5,0,0,1,1-1.4,5,5,0,0,1,2.7-.7,1.9,1.9,0,0,0,1.8-1.5,5.3,5.3,0,0,1,.8-1.7c.7-1.2,1.9-1.2,2.8-.1a5.8,5.8,0,0,1,1.2,2.5c.3,1.1.3,1.1,1.6,1.1l2.9.3c.6.1,1.2.3,1.3,1.1s-.4,1.1-1,1.3l-2.8,1c-1,.4-1.1.4-.9,1.6s.2,1,.2,1.5a1.7,1.7,0,0,1-2.6,1.5,8.3,8.3,0,0,1-1.5-1.1c-.5-.6-.9-.5-1.4-.1L54.5,51c-1.1.5-2,.5-2.6-.2a2,2,0,0,1-.2-2.5Z" style="fill:#e05555"/><path d="M119.3,80.8c.1.6.6.9.8,1.3a1.5,1.5,0,0,1,0,1.7,1.6,1.6,0,0,1-1.8.6,3.5,3.5,0,0,1-1.9-1.2c-.5-.5-.9-.6-1.3.1a4,4,0,0,1-1.4,1.5,1.8,1.8,0,0,1-2,0,1.6,1.6,0,0,1-.6-1.8,16.7,16.7,0,0,1,.8-2,17,17,0,0,0-2.2-.4,6.3,6.3,0,0,1-2.3-.8,1.6,1.6,0,0,1-.8-1.8,1.5,1.5,0,0,1,1.6-1.2h3.7c.4-.5.2-1,.2-1.5a6.1,6.1,0,0,1,.8-2.6c.5-.6,1-1.1,1.8-.9a1.6,1.6,0,0,1,1.4,1.3,4.7,4.7,0,0,1,.5,2.4c0,.6.3.8.8.8a9.6,9.6,0,0,1,3.4.3h.7c1,.3,1.5.9,1.5,1.6a1.6,1.6,0,0,1-1.3,1.7Z" style="fill:#e05555"/><path d="M43.6,25.3l.4.6a1.4,1.4,0,0,1,.3,1.8,1.5,1.5,0,0,1-1.8.9c-1-.3-1.3,0-1.4.9a5.1,5.1,0,0,1-1.4,2.6,2,2,0,0,1-2.2.6,1.8,1.8,0,0,1-1.3-2,17.4,17.4,0,0,1,.5-3.9,8.8,8.8,0,0,0-2.3,0c-1.8.1-2.6-.3-2.8-1.3s.6-1.7,2.3-2.1l1.7-.4c.7-.1,1-.4.9-1.3a3.9,3.9,0,0,1,.1-2.4,1.9,1.9,0,0,1,1.5-1.6,1.6,1.6,0,0,1,1.8,1,21.2,21.2,0,0,1,1.2,2,1.3,1.3,0,0,0,1.4.9h3a1.3,1.3,0,0,1,1.3.9,1.3,1.3,0,0,1-.7,1.5A9.6,9.6,0,0,1,43.6,25.3Z" style="fill:#e05555"/><path d="M39.8,43.8a6.6,6.6,0,0,0,1.5,1.4c.3.4.6.8.4,1.3a1.2,1.2,0,0,1-1.1.7H40c-1.2,0-2.3.1-2.9,1.5a1.1,1.1,0,0,1-1.5.7c-.7-.3-.8-.8-.9-1.4V46.4c-.7-.3-1.3.1-2,.1s-1.1,0-1.3-.7.2-1.1.8-1.4L33,44c1.3-.6,1.3-.7,1-2.1a1.6,1.6,0,0,1,.7-2.1c.7-.3,1.3-.1,2,.7a1,1,0,0,1,.4.5c.3.7.8.7,1.5.5a4.7,4.7,0,0,1,1.7-.3c.8,0,1,.6.6,1.3l-.6.7Z" style="fill:#e05555"/><path d="M85.3,45c-.6-.2-1.2.1-1.8-.1s-.9-.4-1-.9a1.3,1.3,0,0,1,.5-1.2h.1c1.5-.4,1.8-1.4,1.4-2.8s.8-1.6,1.3-1.7,1.1.3,1.5.9a.1.1,0,0,1,.1.1c.5,1.4,1.4,1.7,2.7,1.1h.7c.8,0,1.2.7.8,1.5l-.5.6c-.8.8-.8.8-.1,1.7a1,1,0,0,1,.3,1.2,1.1,1.1,0,0,1-1.1.7h-.8c-.7-.3-1,0-1.3.6a1.8,1.8,0,0,1-.5.7,1.4,1.4,0,0,1-1.7.4,1.2,1.2,0,0,1-.7-1.4C85.2,45.7,85.4,45.4,85.3,45Z" style="fill:#e05555"/></g></g></svg>