<svg xmlns="http://www.w3.org/2000/svg" viewBox="0 0 95.8 135.2"><g style="isolation:isolate"><g id="Layer_2" data-name="Layer 2"><g id="Layer_1-2" data-name="Layer 1"><line x1="9.4" y1="94.6" x2="9.4" y2="14.2" style="fill:none;stroke:#353535;stroke-linecap:round;stroke-linejoin:round;stroke-width:3px"/><line x1="84.4" y1="98.4" x2="15.4" y2="14.2" style="fill:none;stroke:#353535;stroke-linecap:round;stroke-linejoin:round;stroke-width:3px"/><path d="M69.7,103.7H68.1a7.7,7.7,0,0,1-3.1-.8c-2.1-1.3-2.1-4.1-2.1-6v-.8a34.2,34.2,0,0,1,.6-7.8c.5-2.7,1.7-4.3,3.5-4.8h1l1.3.2a12.3,12.3,0,0,1,.2-2.7,7.5,7.5,0,0,1,2.9-5.2,5.4,5.4,0,0,1,2.8-.8l1.5.2a14.7,14.7,0,0,1,2.1-3.9A5,5,0,0,1,82.6,69h.8a3.6,3.6,0,0,1,1.9,1.3,7.4,7.4,0,0,1,1.9-1.6,5.1,5.1,0,0,1,2.5-.6,4,4,0,0,1,3.2,1.4,4.4,4.4,0,0,1,.5,4.3,3.7,3.7,0,0,1-.7,1.4,4.8,4.8,0,0,1,1.6,3.4,6,6,0,0,1-2.4,4.6,10.4,10.4,0,0,1-1.7,1.2,4.8,4.8,0,0,1,.8,3.1,6.1,6.1,0,0,1-3.3,4.3l-1.9.7c.1.2.2.3.2.5a5.5,5.5,0,0,1-.4,4.7c-1,2-3,3.4-6,4.5a25.5,25.5,0,0,1-7.3,1.4H69.7Z" style="fill:#887a25"/><path d="M89.7,69.7a2.7,2.7,0,0,1,2.1.9,2.8,2.8,0,0,1,.2,2.8,9.1,9.1,0,0,1-1.6,2.4,3,3,0,0,1,2.4,2.9,4.6,4.6,0,0,1-1.9,3.5,13.9,13.9,0,0,1-3.6,2,2.9,2.9,0,0,1,2.2,3.2A4.3,4.3,0,0,1,87,90.5a11.9,11.9,0,0,1-4.2,1.1c2.1.9,2.6,3.6,1.5,5.5s-3.1,3-5.2,3.8a26.3,26.3,0,0,1-6.9,1.3H68.3a9.1,9.1,0,0,1-2.6-.6c-1.6-1-1.3-4-1.3-5.6a30.4,30.4,0,0,1,.6-7.4c.2-1.5.9-3.2,2.4-3.6H68a5.2,5.2,0,0,1,3.2,1.6,14,14,0,0,1-.2-5.4,5.8,5.8,0,0,1,2.3-4.2,3.8,3.8,0,0,1,1.9-.5,2.8,2.8,0,0,1,2.5,1.3A12,12,0,0,1,80,72.1a3.5,3.5,0,0,1,2.6-1.6H83c1.1.2,1.7,1.4,2.1,2.5a10,10,0,0,1,2.8-3,5.3,5.3,0,0,1,1.8-.4m0-3h0a7.2,7.2,0,0,0-3.2.8l-1.2.8-1.6-.7H82.6a6.4,6.4,0,0,0-5,2.8,19.2,19.2,0,0,0-1.8,3.1h-.6a6.3,6.3,0,0,0-3.6,1A8.7,8.7,0,0,0,68,80.7c-.1.4-.1.8-.2,1.2l-1.2.2c-1.7.4-3.8,1.8-4.6,6a35.5,35.5,0,0,0-.6,8v.8c0,2.1,0,5.6,2.8,7.3a9.6,9.6,0,0,0,3.8,1h4.3a29.1,29.1,0,0,0,7.8-1.5c3.4-1.2,5.6-2.9,6.9-5.1a8.1,8.1,0,0,0,.7-5.1l.6-.3a7.5,7.5,0,0,0,4.2-5.4,6.5,6.5,0,0,0-.3-2.8l.7-.5a8,8,0,0,0,2.9-5.8,6.5,6.5,0,0,0-1.2-3.6,1.4,1.4,0,0,0,.2-.6,5.9,5.9,0,0,0-.7-5.8,5.4,5.4,0,0,0-4.4-2Z" style="fill:#61562b"/><path d="M82.8,70.5a6.1,6.1,0,0,0-.7,1,32.5,32.5,0,0,0-3,8.4c-.7-1.2-2.5-1.1-3.6-.3A6.6,6.6,0,0,0,73.7,83a52.2,52.2,0,0,0-1.1,6.9c-1-1.2-3.1-1-4.3,0s-1.7,2.5-2.1,4-.9,4.7.4,6.7a4.4,4.4,0,0,0,1.7,1.6,9.1,9.1,0,0,1-2.6-.6c-1.6-1-1.3-4-1.3-5.6a30.4,30.4,0,0,1,.6-7.4c.2-1.5.9-3.2,2.4-3.6s2.7.6,3.8,1.5a14,14,0,0,1-.2-5.4,5.8,5.8,0,0,1,2.3-4.2c1.4-.9,3.6-.7,4.4.8A12,12,0,0,1,80,72.1,3.6,3.6,0,0,1,82.8,70.5Z" style="fill:#564d24;opacity:0.30000000000000004;mix-blend-mode:multiply"/><path d="M90.3,79.4a21.3,21.3,0,0,0-5.7,1.1c1.3-2.1,2.6-4.4,3.9-6.6a4.7,4.7,0,0,1,.5-1c.2-.4-.1-.8-.3-.3-1.3,2.4-3.1,4.8-4.6,7.2-.1,0-.1.1-.2.2a11.8,11.8,0,0,0-1.8-6.3c-.3-.4-.6,0-.3.5a11.5,11.5,0,0,1,1.3,7.1l-3.8,5.4-1.8,2.2A15.3,15.3,0,0,0,76,79.5c-.2-.4-.5,0-.3.5a14.1,14.1,0,0,1,.8,9.9v.2l-2.6,3c-1.5,1.5-3,3-4.6,4.4a17.1,17.1,0,0,0-.5-10c-.1-.4-.5-.2-.4.3,1.3,3.4.9,7.1-.2,10.6h0l-.5.3a56.7,56.7,0,0,1-6.8,5l-.9.5a.4.4,0,1,0,.4.7,48.8,48.8,0,0,0,7-4.9L69,98.8a45.9,45.9,0,0,1,9.8-.1c.3,0,.4,0,.4-.2s-.2-.3-.4-.4A37,37,0,0,0,70,98c1.3-1.2,2.5-2.3,3.7-3.6l3.9-4.3a12.7,12.7,0,0,1,8.1-1.6.4.4,0,0,0,0-.8,14.5,14.5,0,0,0-6.9.9l.5-.6c1.6-2,3.1-4.2,4.5-6.3a19.2,19.2,0,0,1,6.6-1.9C90.9,79.8,90.9,79.4,90.3,79.4Z" style="fill:#61562b"/><path d="M23.2,106.8H21.6l-3.6-.8-.4-.2a23.5,23.5,0,0,1-6.9-2.9c-2.7-1.7-4.3-3.6-4.9-5.7a6,6,0,0,1,.7-4.7l.3-.5a5.7,5.7,0,0,1-1.6-1.1,5.6,5.6,0,0,1-2.3-4.9,4.2,4.2,0,0,1,1.4-2.8L2.9,81.6a6.2,6.2,0,0,1-1.3-5.1,4.5,4.5,0,0,1,2.3-2.9,8.3,8.3,0,0,1-.4-1.5A4.3,4.3,0,0,1,5,68a3.8,3.8,0,0,1,2.4-.8,5.1,5.1,0,0,1,3.3,1.3,5.5,5.5,0,0,1,1.5,1.9,3.3,3.3,0,0,1,2.2-.8h.5a4.8,4.8,0,0,1,3.5,3.1,12.4,12.4,0,0,1,1.1,4.2H20a5.3,5.3,0,0,1,3.6,1.5,7.3,7.3,0,0,1,1.7,5.8,10.9,10.9,0,0,1-.4,2.6h.3a4.6,4.6,0,0,1,2,.5c1.6.9,2.4,2.7,2.3,5.4a39.7,39.7,0,0,1-1.1,7.7c-.1.3-.1.5-.2.8-.4,1.9-1,4.7-3.3,5.4Z" style="fill:#887a25"/><path d="M7.4,68.7a3.3,3.3,0,0,1,2.3.9,7.8,7.8,0,0,1,2.1,3.5c.7-1,1.5-2,2.6-2h.3c1.1.1,1.9,1.2,2.3,2.2a11,11,0,0,1,1,5.9,2.8,2.8,0,0,1,2-.8,3.4,3.4,0,0,1,2.5,1.1,5.7,5.7,0,0,1,1.3,4.6,13.4,13.4,0,0,1-1.4,5.1,7.6,7.6,0,0,1,2.8-.9,2.8,2.8,0,0,1,1.3.3c1.4.7,1.6,2.6,1.5,4.1a30,30,0,0,1-1.1,7.3c-.4,1.6-.7,4.6-2.5,5.2H21.8a23.8,23.8,0,0,1-3.8-.9,25.1,25.1,0,0,1-6.5-2.8c-1.9-1.2-3.7-2.7-4.3-4.8S7.8,92,10,91.6a12.9,12.9,0,0,1-3.9-1.9A4.2,4.2,0,0,1,4.4,86a2.9,2.9,0,0,1,2.7-2.6h.1a13.4,13.4,0,0,1-3.1-2.7,4.8,4.8,0,0,1-1-3.8,3.1,3.1,0,0,1,2.8-2.4h.2A7.5,7.5,0,0,1,5,71.8a2.6,2.6,0,0,1,.9-2.6,2,2,0,0,1,1.5-.5m0-3h0A5.8,5.8,0,0,0,4,66.8a6,6,0,0,0-2,5.5,1.3,1.3,0,0,1,.1.6A6.9,6.9,0,0,0,.2,76.2a7.5,7.5,0,0,0,1.5,6.3l.6.7a5.4,5.4,0,0,0-.9,2.6A7.4,7.4,0,0,0,4.2,92l.6.4a7,7,0,0,0-.4,5.1c.7,2.5,2.5,4.6,5.5,6.5a26.6,26.6,0,0,0,7.3,3.2h.4a26.7,26.7,0,0,0,3.8.9h1.8a6.6,6.6,0,0,0,2.1-.3c3.2-1,3.9-4.4,4.4-6.5,0-.2.1-.5.1-.7a36,36,0,0,0,1.2-8c.2-4.2-1.6-6-3.1-6.9l-1.2-.4a4.9,4.9,0,0,0,.1-1.2c.2-2.9-.5-5.3-2.1-6.9a6.3,6.3,0,0,0-3.9-1.9,13.3,13.3,0,0,0-1-3.4,6.5,6.5,0,0,0-4.8-4h-.6a4.7,4.7,0,0,0-1.7.3l-1-1.1a6.9,6.9,0,0,0-4.3-1.6Z" style="fill:#61562b"/><path d="M14.7,71.1a3.6,3.6,0,0,1,.4,1.1A37.9,37.9,0,0,1,16.2,81c.9-.9,2.7-.5,3.5.5a6.1,6.1,0,0,1,1,3.7,40.5,40.5,0,0,1-.4,7c1.2-.9,3.2-.3,4.2,1a8,8,0,0,1,1.2,4.3c0,2.4-.3,4.9-2,6.5a4.7,4.7,0,0,1-1.9,1.2,5.7,5.7,0,0,0,2.6,0c1.8-.6,2.1-3.6,2.5-5.2A30,30,0,0,0,28,92.7c.1-1.5-.1-3.4-1.5-4.1s-2.8,0-4.1.6a13.4,13.4,0,0,0,1.4-5.1,5.7,5.7,0,0,0-1.3-4.6c-1.1-1.2-3.4-1.5-4.5-.3a11,11,0,0,0-1-5.9C16.6,72.3,15.8,71.2,14.7,71.1Z" style="fill:#564d24;opacity:0.30000000000000004;mix-blend-mode:multiply"/><path d="M5.3,78.1a17.5,17.5,0,0,1,5.4,2.4c-.9-2.5-1.6-4.9-2.3-7.4l-.3-1c-.1-.5.2-.8.4-.3a76.4,76.4,0,0,0,2.9,8V80a13.7,13.7,0,0,1,3.2-5.6c.4-.4.6.1.2.5A10.9,10.9,0,0,0,12,81.6c.7,2,1.6,4,2.5,6l1.2,2.6a15.3,15.3,0,0,1,3.6-8.8c.3-.4.5.1.2.5a14.8,14.8,0,0,0-3,9.5c0,.1,0,.2-.1.2s1.3,2.3,2,3.5a59.5,59.5,0,0,0,3.4,5.3,17,17,0,0,1,2.7-9.6c.3-.4.6-.1.3.3-2,3.1-2.4,6.8-2.1,10.4h0l.3.4a57,57,0,0,0,5.6,6.4l.8.7a.4.4,0,1,1-.6.6,67.5,67.5,0,0,1-5.7-6.3,18.3,18.3,0,0,1-1.3-1.6,39.9,39.9,0,0,0-9.5-2.3c-.3-.1-.4-.1-.4-.3a.5.5,0,0,1,.5-.3,42.5,42.5,0,0,1,8.6,1.8l-2.8-4.2c-1-1.7-1.9-3.4-2.8-5.2A13.8,13.8,0,0,0,7.8,88a.4.4,0,0,1,.2-.8,13.5,13.5,0,0,1,6.5,2.4l-.3-.6c-1.1-2.4-2.1-4.8-3-7.3a17.4,17.4,0,0,0-6-3.2C4.7,78.3,4.8,77.9,5.3,78.1Z" style="fill:#61562b"/><path d="M35.7,89.6c-4.9,0-9.3-2.1-11.5-5.6a10.6,10.6,0,0,1-1.3-7.5,14.1,14.1,0,0,1,1.4-4.4,13.9,13.9,0,0,1,12.3-8.2,13.9,13.9,0,0,1,6.2,1.6,12.7,12.7,0,0,1,.1,22.4A15.3,15.3,0,0,1,35.7,89.6Z" style="fill:#e05555"/><path d="M36.6,65.4a12,12,0,0,1,5.5,1.5,10.8,10.8,0,0,1,5.1,5.5,11.3,11.3,0,0,1-5,14.2,14.1,14.1,0,0,1-6.5,1.5c-4,0-8.2-1.6-10.2-4.9a9.8,9.8,0,0,1-1.2-6.5,18.7,18.7,0,0,1,1.3-4c2.1-4.2,6.3-7.3,11-7.3m0-3h0a15.6,15.6,0,0,0-13.7,9,16.4,16.4,0,0,0-1.5,4.9,12.9,12.9,0,0,0,1.5,8.5c2.5,3.9,7.4,6.3,12.8,6.3a15.7,15.7,0,0,0,7.9-1.9,14.3,14.3,0,0,0-7-26.8Z" style="fill:#781f1a"/><path d="M42.2,86.6c-5.1,2.8-13.5,1.8-16.7-3.4a9.8,9.8,0,0,1-1.2-6.5,18.7,18.7,0,0,1,1.3-4,7.8,7.8,0,0,0,.5,1.4A9.6,9.6,0,0,0,30,78.2a16.5,16.5,0,0,0,3.6,1.6,12.9,12.9,0,0,0,3.9.4,11,11,0,0,0,8.9-5.7,10.2,10.2,0,0,0,.8-2.1A11.3,11.3,0,0,1,42.2,86.6Z" style="fill:#f07f31;opacity:0.5;mix-blend-mode:multiply"/><path d="M32,72.5a4.9,4.9,0,0,1-3.4,2.2,1.8,1.8,0,0,1-1.6-.4c-.5-.5-.3-1.3-.1-2a6.6,6.6,0,0,1,4.9-3.9C34.3,67.9,32.6,71.7,32,72.5Z" style="fill:#fff;opacity:0.30000000000000004;mix-blend-mode:screen"/><path d="M35,69.3l1.4.5a5.5,5.5,0,0,0,2.2.2,3.4,3.4,0,0,0,2-.9.5.5,0,0,0,.2-.4.2.2,0,0,0-.1-.3c-.2-.1-.3,0-.4,0a7.2,7.2,0,0,1-2.5.7,4.1,4.1,0,0,1-2.4-.6l-.7-.4C33.6,67.8,34.5,69,35,69.3Z" style="fill:#f07f31;opacity:0.5;mix-blend-mode:multiply"/><path d="M43.4,70.9a.5.5,0,0,0-.5.5c0,.2.3.4.5.4a.4.4,0,0,0,.5-.4A.5.5,0,0,0,43.4,70.9Z" style="fill:#f07f31;opacity:0.5;mix-blend-mode:multiply"/><path d="M41.3,72.3v-.2h-.8c0,.1-.1.2-.1.3h.1v.2h.2c0,.1.1.1.2.1h.2a.1.1,0,0,1,.1-.1h.1c0-.1.1-.2.1-.3Z" style="fill:#f07f31;opacity:0.5;mix-blend-mode:multiply"/><path d="M43.5,72.9l-.2-.2h-.5c-.1,0-.2,0-.2.1h-.1V73h0c0,.1,0,.2.1.2h.8c0-.1.1-.1.1-.2Z" style="fill:#f07f31;opacity:0.5;mix-blend-mode:multiply"/><path d="M45.9,72.5v-.2h-.7v.2h0v.2h.9v-.2H46A.3.3,0,0,0,45.9,72.5Z" style="fill:#f07f31;opacity:0.5;mix-blend-mode:multiply"/><path d="M44,74.5a.5.5,0,0,0-.5.5.5.5,0,0,0,.5.4.4.4,0,0,0,.5-.4A.5.5,0,0,0,44,74.5Z" style="fill:#f07f31;opacity:0.5;mix-blend-mode:multiply"/><path d="M41.1,76.4a.4.4,0,0,0-.5.4.5.5,0,0,0,1,0A.5.5,0,0,0,41.1,76.4Z" style="fill:#f07f31;opacity:0.5;mix-blend-mode:multiply"/><path d="M40.1,74.4a.5.5,0,0,0-.5.5.5.5,0,0,0,.5.4c.2.1.5-.2.5-.4A.5.5,0,0,0,40.1,74.4Z" style="fill:#f07f31;opacity:0.5;mix-blend-mode:multiply"/><path d="M38.6,68.6a7.8,7.8,0,0,1-2.7-.6,25.2,25.2,0,0,1-4.5-2.9,28.1,28.1,0,0,1-5.2-7.5,1.3,1.3,0,0,1-.1-1.2,1.4,1.4,0,0,1,.8-.9,10,10,0,0,1,3.8-.8h.2a9.9,9.9,0,0,1,5.9,2.1c2.1,1.7,4.9,5.8,4.5,9.5-.1.2-.1.4-.2.6a4.1,4.1,0,0,1-.5.9A2.5,2.5,0,0,1,38.6,68.6Z" style="fill:#b6a250"/><path d="M30.7,56.2h.2A7.6,7.6,0,0,1,35.8,58c1.9,1.5,4.3,5.2,4,8.1,0,.1-.1.2-.1.3s-.1.3-.2.4a1.4,1.4,0,0,1-.9.3,6.3,6.3,0,0,1-2.1-.5,18.3,18.3,0,0,1-4-2.6,25.9,25.9,0,0,1-5-7.1,7.1,7.1,0,0,1,3.2-.7m0-3h0a9.9,9.9,0,0,0-4.5,1,3.3,3.3,0,0,0-1.6,1.7,3.9,3.9,0,0,0,.2,2.4,32,32,0,0,0,5.6,7.9,22,22,0,0,0,4.9,3.1,7.5,7.5,0,0,0,3.3.8,4.2,4.2,0,0,0,3.1-1.3,2.9,2.9,0,0,0,.8-1.4,2.9,2.9,0,0,0,.2-.9c.6-4.5-2.7-9-5-10.8a10.6,10.6,0,0,0-6.8-2.5Z" style="fill:#928e31"/><path d="M29.1,57.5a30.7,30.7,0,0,1,3.1,1.7,25,25,0,0,1,4.7,3.9l.2.2A20,20,0,0,1,39,65.5l.7.9c-.1.2-.1.3-.2.4l-1.2-1.5a14.7,14.7,0,0,0-1-1.3A26.1,26.1,0,0,0,29,57.7C28.7,57.6,28.9,57.4,29.1,57.5Z" style="fill:#887a25"/><path d="M36.4,59.3c1.1,1.6,1.5,3.8,1.9,5.8a45.4,45.4,0,0,1-5.1-.9c-.2-.1-.3.1-.1.2a34.5,34.5,0,0,0,5.4,1.1c.1,0,.3-.1.2-.2-.4-2.1-.8-4.3-2-6C36.6,59.1,36.3,59.1,36.4,59.3Z" style="fill:#887a25"/><path d="M32.8,57.2a9.2,9.2,0,0,1,1.9,4.1,13.1,13.1,0,0,1-4.4-.7c-.2-.1-.4,0-.2.1a11.9,11.9,0,0,0,4.9,1c.1,0,.1-.1.1-.2A7.9,7.9,0,0,0,33,57.2C32.8,57,32.6,57,32.8,57.2Z" style="fill:#887a25"/><path d="M23.3,102c-4.9,0-9.4-2.2-11.5-5.6a11.5,11.5,0,0,1-1.4-7.6,19.2,19.2,0,0,1,.9-3.2c2.2-5.6,7.3-9.3,12.8-9.3a12.8,12.8,0,0,1,6.3,1.6,12.3,12.3,0,0,1,6.3,8,13,13,0,0,1-6.2,14.4A15.3,15.3,0,0,1,23.3,102Z" style="fill:#c2331d"/><path d="M24.1,77.8a11.2,11.2,0,0,1,5.5,1.4,11.1,11.1,0,0,1,.1,19.7,12.4,12.4,0,0,1-6.4,1.6c-4,0-8.2-1.6-10.2-4.9a9.9,9.9,0,0,1-1.2-6.5,13.8,13.8,0,0,1,.8-2.9c1.9-4.8,6.3-8.4,11.4-8.4m0-3h0c-6.1,0-11.8,4.1-14.2,10.3A20,20,0,0,0,9,88.6a12.3,12.3,0,0,0,1.5,8.5c2.4,4,7.3,6.4,12.8,6.4a17.1,17.1,0,0,0,7.9-1.9,14.4,14.4,0,0,0,7-16.1,14,14,0,0,0-7.1-8.9,14.9,14.9,0,0,0-7-1.8Z" style="fill:#781f1a"/><path d="M29.7,98.9c-5.1,2.9-13.4,1.9-16.6-3.3a9.9,9.9,0,0,1-1.2-6.5,13.8,13.8,0,0,1,.8-2.9,7.3,7.3,0,0,0,.4,2.5,10,10,0,0,0,5.7,5.5,12,12,0,0,0,5,.5,13.5,13.5,0,0,0,9.1-4.5,10.6,10.6,0,0,0,2.4-3.9A11.2,11.2,0,0,1,29.7,98.9Z" style="fill:#f07f31;opacity:0.5;mix-blend-mode:multiply"/><path d="M30.3,82.4h-.2c0-.1-.1-.1-.1-.2h-.7v.4h0a.4.4,0,0,0,.1.3h.1l.2.2h.6V83c.1,0,.1-.1.1-.2h0Z" style="fill:#f07f31;opacity:0.5;mix-blend-mode:multiply"/><path d="M31.4,85.5c-.8-.1-.8,1,0,1.1S32.1,85.6,31.4,85.5Z" style="fill:#f07f31;opacity:0.5;mix-blend-mode:multiply"/><path d="M27.5,85.4c-.7-.1-.8,1,0,1.1S28.2,85.5,27.5,85.4Z" style="fill:#f07f31;opacity:0.5;mix-blend-mode:multiply"/><path d="M29.8,85.7a.3.3,0,0,0-.1-.2h-.6l-.2.2h-.1a.4.4,0,0,0-.1.3h0v.2a.3.3,0,0,0,.1.2h.6l.3-.2h.1v-.3h0Z" style="fill:#f07f31;opacity:0.5;mix-blend-mode:multiply"/><path d="M28.5,89.6c-.8-.1-.8,1,0,1.1S29.2,89.6,28.5,89.6Z" style="fill:#f07f31;opacity:0.5;mix-blend-mode:multiply"/><path d="M24.9,88.5c-.8-.1-.8,1,0,1.1S25.6,88.5,24.9,88.5Z" style="fill:#f07f31;opacity:0.5;mix-blend-mode:multiply"/><path d="M24,86.8c-.7-.1-.7,1,0,1.1S24.8,86.9,24,86.8Z" style="fill:#f07f31;opacity:0.5;mix-blend-mode:multiply"/><path d="M26.5,83.4c-.7-.1-.7,1.1,0,1.1S27.3,83.5,26.5,83.4Z" style="fill:#f07f31;opacity:0.5;mix-blend-mode:multiply"/><path d="M21.4,81.4a9.4,9.4,0,0,0,4.4-.5c.4-.2.8-.4.9-.7a.6.6,0,0,0-.3-.9c-.2-.1-.4,0-.7.1a7.8,7.8,0,0,1-2.3.8,9.2,9.2,0,0,1-2.9-.3h-.7C18.4,80.3,20.9,81.3,21.4,81.4Z" style="fill:#f07f31;opacity:0.5;mix-blend-mode:multiply"/><path d="M17.7,87.3a2.1,2.1,0,0,1-2,.5,1.9,1.9,0,0,1-.7-1.3c-.2-1.8.6-4.1,2.4-4.8s2.7,1.8,2.1,3.2A4.8,4.8,0,0,1,17.7,87.3Z" style="fill:#fff;opacity:0.30000000000000004;mix-blend-mode:screen"/><path d="M23.7,81a1.7,1.7,0,0,1-1-.3,2.5,2.5,0,0,1-.8-1.4,2.2,2.2,0,0,1,.1-.8c0-.2.1-.5.1-.8h.1a8.3,8.3,0,0,1,1.2-2.7A9.3,9.3,0,0,1,25,73.1a10.6,10.6,0,0,1,2.6-1.7,23.4,23.4,0,0,1,3.3-.9l1.3-.3a5.3,5.3,0,0,0,3.1-1.5,1.4,1.4,0,0,1,1.1-.6h.5a1.4,1.4,0,0,1,1,1.3,12.7,12.7,0,0,1,0,3.9.4.4,0,0,1-.1.3,9.1,9.1,0,0,1-7,6.7h-4a14.3,14.3,0,0,0-2.3.3Z" style="fill:#d7c571"/><path d="M36.4,69.6a10.9,10.9,0,0,1,0,3.6h0a7.5,7.5,0,0,1-5.9,5.6H26.8a12.6,12.6,0,0,0-2.7.4h-.5c-.1,0-.1-.1-.2-.3v-.3a3.1,3.1,0,0,0,.2-.8,9.7,9.7,0,0,1,1.1-2.3A6.4,6.4,0,0,1,26,74.2a6.4,6.4,0,0,1,2.2-1.4,31.5,31.5,0,0,1,4.4-1.1,6.3,6.3,0,0,0,3.8-2.1m0-3a3.1,3.1,0,0,0-2.3,1.1,4.1,4.1,0,0,1-2.2,1.1l-1.3.3a16.4,16.4,0,0,0-3.5.9A10.3,10.3,0,0,0,24,72a11.2,11.2,0,0,0-1.8,2,10.4,10.4,0,0,0-1.5,3.2h0a3,3,0,0,0-.2,1,4.5,4.5,0,0,0-.1,1.1,3.7,3.7,0,0,0,1.4,2.5h.1a2.8,2.8,0,0,0,1.8.6l1.1-.2h.1a10.8,10.8,0,0,1,1.9-.3h1.4a13.7,13.7,0,0,0,2.8-.2A10.5,10.5,0,0,0,39.3,74a.4.4,0,0,1,.1-.3,16.2,16.2,0,0,0,0-4.4,2.8,2.8,0,0,0-2.1-2.5l-.9-.2Z" style="fill:#928e31"/><path d="M33.6,73.9A9.1,9.1,0,0,1,31.4,75a5.9,5.9,0,0,0,3.5-.2c.1,0,.2,0,.2.1l-.2.3-.5.2a7,7,0,0,1-3.8-.1l-3,1.1-.8.3-.3.2H27l1.2.3a8,8,0,0,0,3.1.1c.2-.1-.2.3-.5.4a10.4,10.4,0,0,1-2.5,0l-1.2-.3-1.2-.3a6.1,6.1,0,0,0-2.3,2.2c-.1,0-.1-.1-.2-.3v-.3l1.1-1.2,1.1-.8c.1-.1.1-.2.1-.4a12.2,12.2,0,0,1,1.7-2.9c.2-.2.3,0,.1.2a9,9,0,0,0-1.3,2.8A28.6,28.6,0,0,1,30.3,75h.1a11.1,11.1,0,0,1,1.7-2.7c.2-.2.3,0,.1.2A10.1,10.1,0,0,0,31,74.7c1.8-.7,3.8-1.6,4.6-3.4.2-.2.3,0,.2.2A6.4,6.4,0,0,1,33.6,73.9Z" style="fill:#887a25"/><path d="M55.9,94.7c-5,0-9.4-2.2-11.5-5.7A11.2,11.2,0,0,1,43,81.5a16.8,16.8,0,0,1,.9-3.2c2.2-5.6,7.3-9.4,12.8-9.4a12.9,12.9,0,0,1,6.2,1.7,12.2,12.2,0,0,1,6.4,8A12.7,12.7,0,0,1,63,92.9,13.9,13.9,0,0,1,55.9,94.7Z" style="fill:#c2331d"/><path d="M56.7,70.4a11.4,11.4,0,0,1,5.5,1.5,10.7,10.7,0,0,1,5.6,7,11.3,11.3,0,0,1-5.5,12.7,13.5,13.5,0,0,1-6.4,1.6c-4.1,0-8.2-1.7-10.2-5a9.7,9.7,0,0,1-1.2-6.5,12.9,12.9,0,0,1,.8-2.8c1.9-4.9,6.3-8.5,11.4-8.5m0-3h0c-6.1,0-11.8,4.2-14.2,10.4a20.1,20.1,0,0,0-1,3.5,12.9,12.9,0,0,0,1.6,8.5c2.4,3.9,7.3,6.4,12.8,6.4a16,16,0,0,0,7.9-2,14.1,14.1,0,0,0-.2-25,14.2,14.2,0,0,0-6.9-1.8Z" style="fill:#781f1a"/><path d="M62.3,91.6c-5.1,2.9-13.4,1.8-16.6-3.4a9.7,9.7,0,0,1-1.2-6.5,12.9,12.9,0,0,1,.8-2.8,5.7,5.7,0,0,0,.4,2.5,9.5,9.5,0,0,0,5.7,5.4,12.1,12.1,0,0,0,5,.6,13.5,13.5,0,0,0,9.1-4.5,12.3,12.3,0,0,0,2.3-4A11.3,11.3,0,0,1,62.3,91.6Z" style="fill:#f07f31;opacity:0.5;mix-blend-mode:multiply"/><path d="M62.8,75.1v-.2h-.9v.3h0c0,.1,0,.2.1.2s0,.2.1.2.1.1.2.1h.3l.3-.2h.1a.4.4,0,0,0,.1-.3h0Z" style="fill:#f07f31;opacity:0.5;mix-blend-mode:multiply"/><path d="M64,78.2c-.8-.1-.8,1-.1,1.1S64.7,78.3,64,78.2Z" style="fill:#f07f31;opacity:0.5;mix-blend-mode:multiply"/><path d="M60.1,78a.6.6,0,1,0,0,1.2C60.8,79.2,60.8,78.1,60.1,78Z" style="fill:#f07f31;opacity:0.5;mix-blend-mode:multiply"/><path d="M62.4,78.3h-.1l-.2-.2h-.7v.4h0v.2c0,.1.1.1.1.2h.9a.4.4,0,0,0,.1-.3h0Z" style="fill:#f07f31;opacity:0.5;mix-blend-mode:multiply"/><path d="M61.1,82.2c-.8-.1-.8,1.1,0,1.1S61.8,82.3,61.1,82.2Z" style="fill:#f07f31;opacity:0.5;mix-blend-mode:multiply"/><path d="M57.4,81.1c-.7-.1-.7,1.1,0,1.1S58.2,81.2,57.4,81.1Z" style="fill:#f07f31;opacity:0.5;mix-blend-mode:multiply"/><path d="M56.6,79.4a.6.6,0,0,0,0,1.2C57.3,80.6,57.3,79.5,56.6,79.4Z" style="fill:#f07f31;opacity:0.5;mix-blend-mode:multiply"/><path d="M59.1,76.1c-.7-.1-.7,1,0,1.1S59.8,76.2,59.1,76.1Z" style="fill:#f07f31;opacity:0.5;mix-blend-mode:multiply"/><path d="M53.9,74a7.6,7.6,0,0,0,4.5-.5,1.5,1.5,0,0,0,.9-.6.7.7,0,0,0-.3-1h-.7a6.3,6.3,0,0,1-2.3.8,10.1,10.1,0,0,1-3-.2h-.6C51,73,53.5,74,53.9,74Z" style="fill:#f07f31;opacity:0.5;mix-blend-mode:multiply"/><path d="M50.2,80a2,2,0,0,1-1.9.5,2.1,2.1,0,0,1-.7-1.3c-.2-1.8.6-4.1,2.4-4.8s2.7,1.8,2.1,3.2A6.3,6.3,0,0,1,50.2,80Z" style="fill:#fff;opacity:0.30000000000000004;mix-blend-mode:screen"/><path d="M56.3,73.7a1.7,1.7,0,0,1-1-.3,2,2,0,0,1-.8-1.4v-.8a1.9,1.9,0,0,0,.2-.8h.1A7.7,7.7,0,0,1,56,67.5l1.6-1.8a10.1,10.1,0,0,1,2.6-1.6,13.5,13.5,0,0,1,3.3-.9l1.3-.3a5.3,5.3,0,0,0,3.1-1.5,1.3,1.3,0,0,1,1.1-.6h.5a1.5,1.5,0,0,1,1,1.3,17,17,0,0,1,0,3.9v.2A8.9,8.9,0,0,1,63.3,73a10.6,10.6,0,0,1-2.5.2H59.4a8,8,0,0,0-2.3.3Z" style="fill:#d7c571"/><path d="M69,62.3a13.7,13.7,0,0,1,0,3.5V66a7.7,7.7,0,0,1-5.9,5.6H59.3a7.8,7.8,0,0,0-2.6.4h-.6a.4.4,0,0,1-.1-.3v-.4a1.9,1.9,0,0,0,.2-.7,7,7,0,0,1,1.1-2.3,4.7,4.7,0,0,1,1.3-1.5,6.4,6.4,0,0,1,2.2-1.4,21.8,21.8,0,0,1,4.4-1.1A6.8,6.8,0,0,0,69,62.3m0-3a3,3,0,0,0-2.3,1.1,4.1,4.1,0,0,1-2.2,1.1l-1.3.2a16.9,16.9,0,0,0-3.5,1,10.8,10.8,0,0,0-3.1,1.9,9.1,9.1,0,0,0-1.8,2.1,10.4,10.4,0,0,0-1.5,3.2h0a2.5,2.5,0,0,0-.2,1,3.7,3.7,0,0,0-.1,1.1,3.1,3.1,0,0,0,1.4,2.4h0a3.3,3.3,0,0,0,1.9.6l1.1-.2h.1l1.9-.2h1.4a14.2,14.2,0,0,0,2.8-.2,10.7,10.7,0,0,0,8.3-7.9v-.2A16.3,16.3,0,0,0,72,62a3.1,3.1,0,0,0-2.1-2.6Z" style="fill:#928e31"/><path d="M66.2,66.6A15.1,15.1,0,0,1,64,67.7a5.9,5.9,0,0,0,3.5-.2h.2a.5.5,0,0,1-.3.4l-.5.2a8.2,8.2,0,0,1-3.8-.1l-2.9,1.1-.8.3-.3.2h.5l1.2.3a10.1,10.1,0,0,0,3,.1c.3-.1-.1.3-.4.3a7,7,0,0,1-2.5.1l-1.2-.3a5,5,0,0,0-1.3-.3,8,8,0,0,0-2.3,2.2.4.4,0,0,1-.1-.3v-.4a5.7,5.7,0,0,1,1.1-1.1l1.1-.8c0-.1.1-.3.1-.4A9.2,9.2,0,0,1,60,66.2c.2-.3.3-.1.1.2a9,9,0,0,0-1.3,2.8,20.2,20.2,0,0,1,4.1-1.5c0-.1,0-.1.1-.1a9.5,9.5,0,0,1,1.7-2.7c.2-.3.3-.1.1.2a10.1,10.1,0,0,0-1.2,2.3c1.8-.7,3.8-1.7,4.6-3.4s.3-.1.1.2A6,6,0,0,1,66.2,66.6Z" style="fill:#887a25"/><path d="M62.8,107.5c-5,0-9.4-2.2-11.5-5.7a11.2,11.2,0,0,1-1.4-7.5,17.3,17.3,0,0,1,1.4-4.4c2.5-5,7.3-8.2,12.3-8.2a12.9,12.9,0,0,1,6.2,1.7,12.3,12.3,0,0,1,5.8,6.3,12.8,12.8,0,0,1-5.7,16A14.9,14.9,0,0,1,62.8,107.5Z" style="fill:#e05555"/><path d="M63.6,83.2a11.4,11.4,0,0,1,5.5,1.5,11.1,11.1,0,0,1,.1,19.7,13.5,13.5,0,0,1-6.4,1.6c-4.1,0-8.2-1.7-10.3-5a10.4,10.4,0,0,1-1.1-6.5,14.4,14.4,0,0,1,1.3-4c2.1-4.2,6.2-7.3,10.9-7.3m0-3c-5.6,0-10.9,3.6-13.6,9a17.6,17.6,0,0,0-1.6,4.9,12.9,12.9,0,0,0,1.6,8.5c2.4,3.9,7.3,6.4,12.8,6.4a16,16,0,0,0,7.9-2A14.3,14.3,0,0,0,77,89.1,14,14,0,0,0,70.5,82a14.2,14.2,0,0,0-6.9-1.8Z" style="fill:#781f1a"/><path d="M69.2,104.4c-5.1,2.9-13.5,1.8-16.7-3.4a10.4,10.4,0,0,1-1.1-6.5,14.4,14.4,0,0,1,1.3-4,5.7,5.7,0,0,0,.4,1.4A10.2,10.2,0,0,0,57,96a17.3,17.3,0,0,0,3.7,1.6,12,12,0,0,0,3.8.4,10.9,10.9,0,0,0,8.9-5.7,12.1,12.1,0,0,0,.9-2A11.4,11.4,0,0,1,69.2,104.4Z" style="fill:#f07f31;opacity:0.5;mix-blend-mode:multiply"/><path d="M59,90.3a4.9,4.9,0,0,1-3.4,2.2,1.7,1.7,0,0,1-1.5-.4,1.9,1.9,0,0,1-.2-1.9,6.5,6.5,0,0,1,4.9-4C61.4,85.7,59.6,89.5,59,90.3Z" style="fill:#fff;opacity:0.30000000000000004;mix-blend-mode:screen"/><path d="M62,87.1l1.5.5a5.3,5.3,0,0,0,2.2.2,3.7,3.7,0,0,0,2-.9c.1-.1.2-.2.2-.3a.5.5,0,0,0-.2-.4c-.1-.1-.3,0-.4.1l-2.4.6a4.1,4.1,0,0,1-2.4-.6l-.7-.4C60.7,85.6,61.6,86.9,62,87.1Z" style="fill:#f07f31;opacity:0.5;mix-blend-mode:multiply"/><path d="M70.5,88.7a.5.5,0,0,0-.5.5.5.5,0,0,0,.5.4c.2.1.5-.2.5-.4A.5.5,0,0,0,70.5,88.7Z" style="fill:#f07f31;opacity:0.5;mix-blend-mode:multiply"/><path d="M68.4,90.1v-.2h-.1a.1.1,0,0,0-.1-.1h-.6a.4.4,0,0,0-.1.3h0c0,.1.1.1.1.2h.1a.1.1,0,0,1,.1.1h.6a.4.4,0,0,0,.1-.3Z" style="fill:#f07f31;opacity:0.5;mix-blend-mode:multiply"/><path d="M70.5,90.8v-.2H70c-.1-.1-.1,0-.2,0h-.2c-.1,0-.1.1-.1.2h0v.2h.8v-.2Z" style="fill:#f07f31;opacity:0.5;mix-blend-mode:multiply"/><path d="M73,90.3c-.1-.1-.1-.1-.1-.2h-.8v.2h0v.2h.1a.1.1,0,0,0,.1.1h.3l.3-.2h0c.1,0,.1-.1.1-.2h0Z" style="fill:#f07f31;opacity:0.5;mix-blend-mode:multiply"/><path d="M71.1,92.3a.5.5,0,0,0-.5.5.5.5,0,0,0,.5.4c.2.1.4-.2.4-.4A.4.4,0,0,0,71.1,92.3Z" style="fill:#f07f31;opacity:0.5;mix-blend-mode:multiply"/><path d="M68.2,94.2a.4.4,0,0,0-.5.4.5.5,0,0,0,.5.5.5.5,0,0,0,.4-.5A.4.4,0,0,0,68.2,94.2Z" style="fill:#f07f31;opacity:0.5;mix-blend-mode:multiply"/><path d="M67.1,92.2a.5.5,0,0,0-.5.5c0,.2.3.4.5.5a.5.5,0,0,0,.5-.5A.5.5,0,0,0,67.1,92.2Z" style="fill:#f07f31;opacity:0.5;mix-blend-mode:multiply"/><path d="M66.5,86.9a8.8,8.8,0,0,1-2.4-.3l-.6-.3a2.7,2.7,0,0,1-.8-.7c-.8-1.2-.6-2.7.8-4.6a18.9,18.9,0,0,1,3.8-3.8,28.8,28.8,0,0,1,8.4-3.6h.4a1.1,1.1,0,0,1,.8.2,1.6,1.6,0,0,1,.7.9,9.9,9.9,0,0,1,0,4.2,10.2,10.2,0,0,1-3.4,5.3A13.4,13.4,0,0,1,66.5,86.9Z" style="fill:#b6a250"/><path d="M76.1,75.1a6.5,6.5,0,0,1,0,3.4A8.6,8.6,0,0,1,73.3,83a12.1,12.1,0,0,1-6.8,2.4,5.8,5.8,0,0,1-1.9-.3h-.3l-.4-.3c-.4-.6,0-1.7.8-2.8a18.9,18.9,0,0,1,3.4-3.5,28.1,28.1,0,0,1,8-3.3m0-3h-.8A29.1,29.1,0,0,0,66.4,76a22.3,22.3,0,0,0-4.1,4.1c-2.2,3.1-1.7,5.2-.8,6.4a4.3,4.3,0,0,0,1.2,1.1l.9.4a8.8,8.8,0,0,0,2.9.4,15.4,15.4,0,0,0,8.7-3.1A10.7,10.7,0,0,0,79,79.2a9.7,9.7,0,0,0,0-4.8,2.6,2.6,0,0,0-1.3-1.9,2.9,2.9,0,0,0-1.6-.4Z" style="fill:#928e31"/><path d="M75.2,76.5a28.5,28.5,0,0,1-2.3,2.6A22.8,22.8,0,0,1,68.1,83h-.2l-2.6,1.4-1,.5-.4-.3,1.8-.8,1.4-.8a26.2,26.2,0,0,0,8-6.7C75.2,76.2,75.3,76.3,75.2,76.5Z" style="fill:#887a25"/><path d="M71.9,83.3a15.2,15.2,0,0,1-6,.6,31.9,31.9,0,0,1,1.9-4.8c.1-.2,0-.3-.2-.1a31.6,31.6,0,0,0-2.2,5c-.1.1,0,.3.2.3a18.2,18.2,0,0,0,6.2-.7C72,83.5,72.1,83.2,71.9,83.3Z" style="fill:#887a25"/><path d="M74.7,80.1a8.2,8.2,0,0,1-4.4,1.1A11,11,0,0,1,72,77c.1-.2,0-.3-.1-.1a11.7,11.7,0,0,0-2.1,4.5l.2.2a9.4,9.4,0,0,0,4.7-1.2C74.9,80.3,74.9,80,74.7,80.1Z" style="fill:#887a25"/><path d="M42.8,105.9c-5,0-9.4-2.2-11.6-5.7a11.1,11.1,0,0,1-1.3-7.5A14.7,14.7,0,0,1,35,83.5a12.8,12.8,0,0,1,14.8-1.7,12.6,12.6,0,0,1,.1,22.3A13.9,13.9,0,0,1,42.8,105.9Z" style="fill:#b53c3c"/><path d="M43.6,81.7a11.5,11.5,0,0,1,5.5,1.4,11.1,11.1,0,0,1,5.1,14.1,10.9,10.9,0,0,1-5,5.6,12.7,12.7,0,0,1-6.4,1.6c-4.1,0-8.2-1.6-10.3-4.9A9.3,9.3,0,0,1,31.4,93a14.5,14.5,0,0,1,4.5-8.4,12,12,0,0,1,7.7-2.9m0-3h0A14.4,14.4,0,0,0,34,82.4a16.8,16.8,0,0,0-5.6,10.1A12.3,12.3,0,0,0,30,101c2.4,3.9,7.3,6.4,12.8,6.4a15.3,15.3,0,0,0,7.8-2,14.5,14.5,0,0,0,6.4-7,14,14,0,0,0-6.5-17.9,14.5,14.5,0,0,0-6.9-1.8Z" style="fill:#781f1a"/><path d="M54.2,97.2a10.9,10.9,0,0,1-5,5.6c-5.1,2.9-13.5,1.8-16.7-3.3A9.3,9.3,0,0,1,31.4,93a14.5,14.5,0,0,1,4.5-8.4,7.8,7.8,0,0,0-.5,1.4,10.2,10.2,0,0,0,.3,7.1,10.8,10.8,0,0,0,6.9,5.4,15.9,15.9,0,0,0,8.9-.3A14.8,14.8,0,0,0,54.2,97.2Z" style="fill:#c2331d"/><path d="M53.4,95.5c-.3.7-.8,1.4-1.5,1.5a2.3,2.3,0,0,1-1.7-1A7.3,7.3,0,0,1,49,92.5a5.3,5.3,0,0,1,1-3.7c1.6-1.7,2.8.3,3.4,1.7A6.7,6.7,0,0,1,53.4,95.5Z" style="fill:#fff;opacity:0.30000000000000004;mix-blend-mode:screen"/><path d="M45.8,85.7a9.7,9.7,0,0,0,2.4.8,2.1,2.1,0,0,0,1.1-.1c.2,0,.5-.3.4-.5a.6.6,0,0,0-.8-.3,4,4,0,0,1-2.9-.9c-.3-.3-1.4-2.1-1.7-1S45.3,85.4,45.8,85.7Z" style="fill:#c2331d"/><path d="M41,85.9c.1,0,0-.1,0-.2H40c-.1,0-.1.1-.1.2s-.1.1-.1.2v.4h1C41,86.1,41.1,86,41,85.9Z" style="fill:#c2331d"/><path d="M38.4,86.6h0v-.3h-.2c0-.1-.1-.1-.2-.1h-.6c0,.1-.1.1-.1.2v.4c0,.1.1.1.1.2h.8c0-.1.1-.1.2-.2h.1Z" style="fill:#c2331d"/><path d="M40.7,87.6c-.8-.1-.8,1,0,1.1S41.4,87.7,40.7,87.6Z" style="fill:#c2331d"/><path d="M37.7,89.6c-.7-.1-.7,1,0,1.1S38.5,89.7,37.7,89.6Z" style="fill:#c2331d"/><path d="M37,88.4h0a.3.3,0,0,1-.1-.2l-.2-.2h-.6l-.2.2v.5H36a.3.3,0,0,0,.1.2h.6a.2.2,0,0,0,.2-.2H37Z" style="fill:#c2331d"/><path d="M40.2,91c-.8-.1-.8,1-.1,1.1A.6.6,0,1,0,40.2,91Z" style="fill:#c2331d"/><path d="M37.7,93.1c-.8-.1-.8,1,0,1.1S38.4,93.2,37.7,93.1Z" style="fill:#c2331d"/><path d="M46.4,85.1,45,84.9a7,7,0,0,1-3.2-1.3,11.4,11.4,0,0,1-3.3-4.5l-.3-1a14.3,14.3,0,0,0-1.6-3,1.6,1.6,0,0,1-.1-1.5,1.4,1.4,0,0,1,1.3-.9h.6a15,15,0,0,1,3.7.4,5.8,5.8,0,0,1,2.1.6,6.3,6.3,0,0,1,2.3,1.8,8.9,8.9,0,0,1,1.6,2.2,12.1,12.1,0,0,1,1.1,3v.2c.2,1,.6,2.7-.7,3.6h-.2a1.1,1.1,0,0,1-.8.3Z" style="fill:#887a25"/><path d="M38.4,74.2a18.7,18.7,0,0,1,3.4.3l1.7.5a5.8,5.8,0,0,1,1.9,1.5,8.5,8.5,0,0,1,1.4,1.9,8,8,0,0,1,.9,2.6c.1.5.6,1.9,0,2.3h0l-.4.2H45.2a7.1,7.1,0,0,1-2.5-1.1,8.9,8.9,0,0,1-2.8-3.9h0a18.3,18.3,0,0,0-2.1-4.2h.6m0-3h-.7a3.2,3.2,0,0,0-2.6,1.7,3.4,3.4,0,0,0,.3,3.1,9.8,9.8,0,0,1,1.4,2.7l.3.9h.1a11.7,11.7,0,0,0,3.7,5.2,8.6,8.6,0,0,0,3.8,1.6l1.7.2,1.5-.2,1.2-.4.4-.3c2.1-1.4,1.4-4.1,1.2-5.1v-.2A14,14,0,0,0,49.4,77a15.1,15.1,0,0,0-1.8-2.6,10.8,10.8,0,0,0-2.8-2.1,10.1,10.1,0,0,0-2.4-.7,17.5,17.5,0,0,0-4-.4Z" style="fill:#6c6120"/><path d="M47.7,83.3l-.4.2-.6-1.1a8,8,0,0,0-3.7-.6c-.3,0-.3-.1,0-.2h2.7l.6.2c0-.1-.1-.2-.2-.3l-1.4-1.8a12.3,12.3,0,0,0-4.3-1h-.1c-.1,0-.2-.1-.1-.1h.2a11,11,0,0,1,3.7.6,17.4,17.4,0,0,0-4.5-4c-.2-.1-.2-.3,0-.2l2.8,1.9,1.9,1.8a8.4,8.4,0,0,1-.4-2.7c0-.2.1-.2.1,0a10.8,10.8,0,0,0,1.1,3.6h0l1.3,1.5a5.5,5.5,0,0,1,.1-1.8c.1-.2.2-.1.2.2a2.4,2.4,0,0,0,0,1.2,3.7,3.7,0,0,0,.4,1.4Z" style="fill:#61562b"/><path d="M20.7,133.7a5.2,5.2,0,0,1-5-3.9c-1.9-6.8-6.1-22.6-7.9-28a3.8,3.8,0,0,1-3.2-3.7v-.3a3.8,3.8,0,0,1,3.7-3.7h76A3.7,3.7,0,0,1,88,97.8v.3a3.7,3.7,0,0,1-3.7,3.8h-.2l-7.6,28a5.3,5.3,0,0,1-5.1,3.8Z" style="fill:#ce894a"/><path d="M84.3,95.6a2.2,2.2,0,0,1,2.2,2.2v.3a2.2,2.2,0,0,1-2.2,2.3H82.9L75,129.5a3.7,3.7,0,0,1-3.6,2.7H20.7a3.7,3.7,0,0,1-3.6-2.7c-1.9-7-6.7-24.8-8.2-29.1H8.3a2.2,2.2,0,0,1-2.2-2.3v-.3a2.2,2.2,0,0,1,2.2-2.2h76m0-3H8.3a5.2,5.2,0,0,0-5.2,5.2v.3a5.4,5.4,0,0,0,3.5,5c2,6.2,6.2,22,7.6,27.1a6.7,6.7,0,0,0,6.5,5H71.4a6.8,6.8,0,0,0,6.5-4.9l7.3-27a5.3,5.3,0,0,0,4.3-5.2v-.3a5.2,5.2,0,0,0-5.2-5.2Z" style="fill:#75411a"/><path d="M8.4,99.4c.6.1,6.6,22.1,8.7,30.1a3.7,3.7,0,0,0,3.6,2.7H71.4a3.7,3.7,0,0,0,3.6-2.7l8.2-30.1Z" style="fill:#ce894a"/><rect x="6.1" y="95.6" width="80.4" height="4.75" rx="2.2" style="fill:#ce894a"/><g style="opacity:0.30000000000000004;mix-blend-mode:multiply"><path d="M52.4,111.7a.6.6,0,0,0-.7-.2l-2.6,1.4-2.5-3.2,1.2-.6c.3-.1.3-.4.2-.7a.6.6,0,0,0-.7-.2l-1.3.7-1.8-2.2a.5.5,0,0,0-.7,0c-.2.1-.2.4-.1.7l1.7,2-4.2,2.2-2.8-3.5,4.8-2.5a.6.6,0,0,0,.2-.7.6.6,0,0,0-.7-.2l-6.6,3.5a.4.4,0,0,0-.2.7c0,.2.2.3.4.3h.2l1-.5,2.8,3.5-1.1.6a.5.5,0,0,0-.2.6.5.5,0,0,0,.4.3h.3l1.2-.7,1.6,2.1H43c.2-.1.2-.5,0-.7l-1.5-1.9,4.2-2.2,2.5,3.2L45.1,115c-.3.2-.4.5-.2.7s.2.3.4.3h.2l6.7-3.5A.6.6,0,0,0,52.4,111.7Z" style="fill:#b94d3c"/><path d="M50.9,106.6l-1.3.7c-.3.1-.4.4-.2.6s.2.3.4.3.2,0,.2-.1l1.5-.8,2.3,2.9.4.2h.3a.5.5,0,0,0,.1-.7l-2.2-2.7,3.3-1.8,2.2,2.7c.1.2.2.2.4.2h.3a.5.5,0,0,0,0-.7l-2-2.6,1.3-.7a.6.6,0,0,0,.2-.7.7.7,0,0,0-.7-.2l-1.5.8-2.4-3a.4.4,0,0,0-.7-.1.5.5,0,0,0-.1.7l2.3,2.9-3.2,1.8-2.4-2.9c-.1-.3-.4-.3-.7-.1s-.2.5,0,.7Z" style="fill:#b94d3c"/><path d="M66,122.6,63.4,124l-2.5-3.2,1.2-.6a.6.6,0,0,0,.2-.7.7.7,0,0,0-.7-.2l-1.4.7-1.7-2.2a.5.5,0,0,0-.8.7l1.6,2-4.2,2.2-2.8-3.5,4.8-2.5a.4.4,0,0,0,.2-.7.5.5,0,0,0-.6-.2L50,119.3a.7.7,0,0,0-.2.7.5.5,0,0,0,.5.3h.2l.9-.5,2.8,3.5-1,.6a.4.4,0,0,0-.2.7l.4.2h.2l1.3-.7,1.6,2.1.4.2.3-.2a.5.5,0,0,0,.1-.7l-1.5-1.9,4.2-2.2,2.5,3.2-3.2,1.7a.5.5,0,0,0-.2.6.5.5,0,0,0,.5.3h.2l6.6-3.5a.4.4,0,0,0,.3-.6A.6.6,0,0,0,66,122.6Z" style="fill:#b94d3c"/><path d="M72.9,118.3l-2.1-2.6,1.4-.7a.6.6,0,0,0,.2-.7.7.7,0,0,0-.7-.2l-1.5.8-2.4-3a.5.5,0,0,0-.7-.1.4.4,0,0,0-.1.7l2.3,2.9L66,117.2l-2.3-2.9a.4.4,0,0,0-.7-.1.6.6,0,0,0-.1.7l2.2,2.8-1.3.7a.4.4,0,0,0-.1.6c0,.2.2.3.4.3h.3l1.4-.7,2.3,2.8c.1.2.2.2.4.2h.3a.6.6,0,0,0,.1-.7L66.7,118l3.2-1.8,2.2,2.7a.4.4,0,0,0,.4.2h.3A.5.5,0,0,0,72.9,118.3Z" style="fill:#b94d3c"/><path d="M40.1,124.7l-2.2,1.2-2.5-3,3.2-1.9c.3-.1.4-.4.2-.6a.4.4,0,0,0-.7-.2l-3.3,1.9-2.2-2.7a.4.4,0,0,0-.7-.1.6.6,0,0,0-.1.7l2.1,2.6-3.8,2.1-3.4-3.9,2.7-1.4c.3-.1.3-.4.2-.7a.6.6,0,0,0-.7-.2L26,120l-2.5-2.9,4.2-2.2,1.7,2h.7c.2-.1.2-.5,0-.7l-1.5-1.8,3.2-1.7a.5.5,0,1,0-.5-.9L28,113.6,26.6,112a.4.4,0,0,0-.7-.1.5.5,0,0,0,0,.7l1.2,1.5-4.3,2.2-.9-.9a.4.4,0,0,0-.7-.1.5.5,0,0,0,0,.7l.7.8-3.3,1.8-.9-1.1a.6.6,0,0,0-.7-.1.8.8,0,0,0-.1.8l3.5,4.2.4.2h.3a.4.4,0,0,0,.1-.7l-2-2.4,3.4-1.8,2.5,2.9-2.4,1.3a.4.4,0,0,0-.2.7.5.5,0,0,0,.4.2h.2l2.7-1.4,3.5,3.9-3.8,2.1-2-2.5a.5.5,0,1,0-.8.6l1.9,2.4-1.7,1a.4.4,0,0,0-.3.6.5.5,0,0,0,.5.3h.2l1.9-1,.7.9.4.2h.3a.5.5,0,0,0,0-.7l-.5-.8,3.8-2.1,1.9,2.2h.8a.5.5,0,0,0,0-.7l-1.8-2,3.8-2.1,2.4,3-3,1.8c-.3.1-.3.4-.2.7l.4.2h.3l3.2-1.8.3.4.4.2h.3a.6.6,0,0,0,.1-.7l-.3-.3,2.1-1.2c.3-.1.3-.4.2-.7A.5.5,0,0,0,40.1,124.7Z" style="fill:#b94d3c"/></g><polygon points="8.9 100.4 9.9 103.7 82.1 103.7 82.9 100.4 8.9 100.4" style="opacity:0.30000000000000004"/><path d="M50.8,115.6c-8.5,0-36.1-16.8-39.2-18.7a1.5,1.5,0,0,1-.7-1.7,1.6,1.6,0,0,1,1.5-1.1H80.9a1.5,1.5,0,0,1,.8,2.8c-.9.6-23.3,15.5-28.9,18.3a4,4,0,0,1-2,.4Z" style="fill:#72b75b"/><path d="M80.9,95.6h0m0,0s-23.2,15.5-28.8,18.2a2.5,2.5,0,0,1-1.3.3c-8.3,0-38.4-18.5-38.4-18.5H80.9m0-3H12.4a2.9,2.9,0,0,0-2.9,2.2,3,3,0,0,0,1.3,3.4c5.1,3.1,31.3,18.9,40,18.9a6,6,0,0,0,2.7-.6c5.6-2.8,27.4-17.3,29-18.4a2.9,2.9,0,0,0,1.4-2.5,3.1,3.1,0,0,0-3-3Zm0,6Z" style="fill:#96b85c"/><line x1="43.4" y1="112.1" x2="70.9" y2="95.6" style="fill:none;stroke:#fff;stroke-miterlimit:10;stroke-width:0.25px"/><line x1="36.2" y1="108.9" x2="59.1" y2="95.5" style="fill:none;stroke:#fff;stroke-miterlimit:10;stroke-width:0.25px"/><line x1="29.9" y1="105.6" x2="47.2" y2="95.5" style="fill:none;stroke:#fff;stroke-miterlimit:10;stroke-width:0.25px"/><line x1="23.4" y1="101.9" x2="34.3" y2="95.5" style="fill:none;stroke:#fff;stroke-miterlimit:10;stroke-width:0.25px"/><line x1="54.6" y1="112" x2="25.9" y2="95.6" style="fill:none;stroke:#fff;stroke-miterlimit:10;stroke-width:0.25px"/><line x1="60.5" y1="108.5" x2="37.8" y2="95.5" style="fill:none;stroke:#fff;stroke-miterlimit:10;stroke-width:0.25px"/><line x1="66" y1="105.1" x2="49.6" y2="95.5" style="fill:none;stroke:#fff;stroke-miterlimit:10;stroke-width:0.25px"/><line x1="72.2" y1="101.2" x2="62.5" y2="95.5" style="fill:none;stroke:#fff;stroke-miterlimit:10;stroke-width:0.25px"/><path d="M12.4,95.6s34.2,21,39.7,18.2S80.9,95.6,80.9,95.6Z" style="fill:#fff;opacity:0.6000000000000001"/><rect x="12.1" y="2.2" width="4.3" height="10.02" rx="2.2" transform="translate(19.3 22.3) rotate(-135)" style="fill:#8d8d8d;stroke:#575757;stroke-linecap:round;stroke-linejoin:round;stroke-width:3px"/><circle cx="12.4" cy="9.8" r="5.3" style="fill:none;stroke:#fcd54d;stroke-linecap:round;stroke-linejoin:round;stroke-width:3px"/><path d="M13.4,4.9a3.5,3.5,0,0,0,3.5,3.5h.8A2.7,2.7,0,0,0,19,7.6h0l.5-.4a3.6,3.6,0,0,0,.8-2.3,3.4,3.4,0,0,0-3.4-3.4h-.4l-1.3.4-.6.5a1.2,1.2,0,0,0-.5.5A3.7,3.7,0,0,0,13.4,4.9Z" style="fill:#cecece;stroke:#575757;stroke-linecap:round;stroke-linejoin:round;stroke-width:3px"/><path d="M15.2,1.9l3.2,6,.6-.3h0l.5-.4-3-5.7Z" style="fill:#fff"/><path d="M14.1,2.9,17,8.4h.7L14.6,2.4A1.2,1.2,0,0,0,14.1,2.9Z" style="fill:#fff"/><path d="M13.4,4.9a3.5,3.5,0,0,0,3.5,3.5h.8A2.7,2.7,0,0,0,19,7.6h0l.5-.4a3.6,3.6,0,0,0,.8-2.3,3.4,3.4,0,0,0-3.4-3.4h-.4l-1.3.4-.6.5a1.2,1.2,0,0,0-.5.5A3.7,3.7,0,0,0,13.4,4.9Z" style="fill:none;stroke:#575757;stroke-linecap:round;stroke-linejoin:round;stroke-width:3px"/></g></g></g></svg>