<svg xmlns="http://www.w3.org/2000/svg" xmlns:xlink="http://www.w3.org/1999/xlink" viewBox="0 0 156.2 146"><defs><linearGradient id="Áåçûìÿííûé_ãðàäèåíò_475" x1="26.55" y1="-5.27" x2="31.06" y2="23.23" gradientUnits="userSpaceOnUse"><stop offset="0" stop-color="#386b2e"/><stop offset="0.88"/></linearGradient><linearGradient id="Áåçûìÿííûé_ãðàäèåíò_477" x1="14.23" y1="23.11" x2="8.28" y2="116.35" gradientUnits="userSpaceOnUse"><stop offset="0" stop-color="#9e7835"/><stop offset="0.75" stop-color="#171208"/><stop offset="0.88"/></linearGradient><linearGradient id="Áåçûìÿííûé_ãðàäèåíò_475-2" x1="119.98" y1="-5.27" x2="124.49" y2="23.23" xlink:href="#Áåçûìÿííûé_ãðàäèåíò_475"/><linearGradient id="Áåçûìÿííûé_ãðàäèåíò_477-2" x1="107.65" y1="23.11" x2="101.71" y2="116.35" xlink:href="#Áåçûìÿííûé_ãðàäèåíò_477"/><linearGradient id="Áåçûìÿííûé_ãðàäèåíò_475-3" x1="81.53" y1="60.63" x2="71.71" y2="111.62" xlink:href="#Áåçûìÿííûé_ãðàäèåíò_475"/></defs><g style="isolation:isolate"><g id="Layer_2" data-name="Layer 2"><g id="Layer_1-2" data-name="Layer 1"><path d="M17.2,28.1a1.7,1.7,0,0,1-1.2-.5,1.3,1.3,0,0,1-.3-1.2c1.2-7.4,2.5-15.8,6.9-22.8a1.6,1.6,0,0,1,.9-.7A43.2,43.2,0,0,1,34.3,1.5,37.9,37.9,0,0,1,45,3a1.4,1.4,0,0,1,.9.9,68.3,68.3,0,0,1,4.5,21.6,1.4,1.4,0,0,1-.4,1.1,1.6,1.6,0,0,1-1.1.5h-.1l-3.4-.4L42,26.3a1.5,1.5,0,0,1-1.4-1.5s.1-.7.1-.9a66,66,0,0,0-1-12.7H36.3a44.4,44.4,0,0,0-7.4.6,120.9,120.9,0,0,0-3.4,15.1A1.5,1.5,0,0,1,24,28.1H17.2Z" style="fill:#baa2ee"/><path d="M34.3,3A35.5,35.5,0,0,1,44.5,4.5a65.7,65.7,0,0,1,4.4,21.1c-2.1-.2-4.6-.6-6.8-.7,0-.4.1-.7.1-1A66.6,66.6,0,0,0,41,9.8l-4.7-.2a42.4,42.4,0,0,0-8.6.8h0A125.3,125.3,0,0,0,24,26.6H17.2c1.2-7.7,2.5-15.6,6.6-22.2A40.9,40.9,0,0,1,34.3,3m0-3A42,42,0,0,0,23.1,1.5a3,3,0,0,0-1.8,1.3c-4.5,7.3-5.9,15.8-7.1,23.4a2.9,2.9,0,0,0,3,3.4H24A3,3,0,0,0,27,27a103.7,103.7,0,0,1,3.1-14,42.1,42.1,0,0,1,6.2-.4h2.1a60.2,60.2,0,0,1,.8,11.3.7.7,0,0,1-.1.5v.4a3,3,0,0,0,2.8,3l3.3.4,3.5.3c0,.1.1.1.2.1a2.9,2.9,0,0,0,2.1-.9,2.8,2.8,0,0,0,.9-2.3,68.1,68.1,0,0,0-4.6-22,2.7,2.7,0,0,0-1.9-1.8A37.7,37.7,0,0,0,34.3,0Z" style="fill:#7850b3"/><path d="M42.2,23.9A66.6,66.6,0,0,0,41,9.8a45.6,45.6,0,0,0-13.3.6h-.1l.6-1.3A71.8,71.8,0,0,1,42.1,9a80.4,80.4,0,0,1,2.8,13.8l3,1.6Z" style="fill:#7850b3"/><path d="M40.4,4.1A52.8,52.8,0,0,0,27.3,5.7c-3.4,4.8-3.9,10.9-6.1,16.3a3.9,3.9,0,0,1-1.8.4c-.8,0-1-.4-.8-1.1s.3-1.4.4-2.1.7-3.2,1.1-4.7A53.4,53.4,0,0,1,24.2,5,30.7,30.7,0,0,1,40.4,4.1Z" style="mix-blend-mode:screen;fill:url(#Áåçûìÿííûé_ãðàäèåíò_475)"/><path d="M23.8,5.3,22.2,8.9c-.5,1.2-1.1,2.5-1.5,3.8a30.6,30.6,0,0,0-1.5,8c0,.2.4.3.5,0,.6-2.5,1.1-5.1,1.8-7.6s.6-2.5,1.1-3.7,1.1-2.6,1.7-3.8S24,5,23.8,5.3Z" style="fill:#c9eaea"/><path d="M30.3,91.2c-6.2,4.5-8.2,18.4-9.1,24A206.9,206.9,0,0,0,18.8,136H8.8C9.3,98.8,13.1,61.1,19,23.8a139.9,139.9,0,0,1,31.2.6A579,579,0,0,1,57.5,136H48.7a89.9,89.9,0,0,0-3.3-31c-1.3-4.8-3.8-14.1-9.5-15A7.2,7.2,0,0,0,30.3,91.2Zm9.3-16.8h6c1.2,0,0-22.8-.4-24.8-.8-4.9-3-16.1-10.2-14.7a4.1,4.1,0,0,0-1.9.8,11.2,11.2,0,0,0-3.6,4.9c-4.7,10.6-5,22.3-5.5,33.8Z" style="fill:#ffaa5a"/><path d="M45.4,105a89.9,89.9,0,0,1,3.3,31h-6a142.5,142.5,0,0,0-.3-19.6c-.4-3.4-1-6.9-1.7-10.3-1.1-5.3-3.3-15.4-10.4-14.9A7.2,7.2,0,0,1,35.9,90C41.6,90.9,44.1,100.2,45.4,105Z" style="fill:#ff8d3d"/><path d="M45.2,49.6c.4,2,1.6,24.8.4,24.8h-6a120.8,120.8,0,0,0-.4-25.5,28.1,28.1,0,0,0-2.7-10.2,5.9,5.9,0,0,0-1.8-2.4,4.4,4.4,0,0,0-1.6-.6,4.1,4.1,0,0,1,1.9-.8C42.2,33.5,44.4,44.7,45.2,49.6Z" style="fill:#ff8d3d"/><path d="M13.8,24.4l5.2-.6C13.1,61.1,9.3,98.8,8.8,136H3A696.1,696.1,0,0,1,13.8,24.4Z" style="fill:#fcd54d"/><path d="M33,23.2a119.1,119.1,0,0,1,17.2,1.2A579,579,0,0,1,57.5,136H42.7a142.5,142.5,0,0,0-.3-19.6c-.4-3.4-1-6.9-1.7-10.3-1.1-5.2-3.2-14.9-9.9-14.9h-.5c-6.2,4.5-8.2,18.4-9.1,24A206.9,206.9,0,0,0,18.8,136H3A696.1,696.1,0,0,1,13.8,24.4l5.2-.6c4.8-.4,9.4-.6,14-.6M24,74.4H39.6a120.8,120.8,0,0,0-.4-25.5,28.1,28.1,0,0,0-2.7-10.2,5.9,5.9,0,0,0-1.8-2.4,4.4,4.4,0,0,0-1.6-.6,11.2,11.2,0,0,0-3.6,4.9c-4.7,10.6-5,22.3-5.5,33.8m9-54.2c-4.6,0-9.4.2-14.3.6l-5.2.6a2.9,2.9,0,0,0-2.6,2.4A691.1,691.1,0,0,0,0,136a2.9,2.9,0,0,0,.9,2.1A2.7,2.7,0,0,0,3,139H18.8a3,3,0,0,0,3-2.8c.6-8.1,1.3-14.7,2.3-20.5l.3-1.4c.8-4.9,2.7-16,7-20,3.9.6,5.5,8.5,6.3,12.4s1.3,6.4,1.7,10a140.3,140.3,0,0,1,.3,19.2,3.5,3.5,0,0,0,.8,2.2,3.1,3.1,0,0,0,2.2.9H57.5a3,3,0,0,0,3-2.9A596.3,596.3,0,0,0,53.2,23.9a3,3,0,0,0-2.5-2.5A125.2,125.2,0,0,0,33,20.2ZM27.2,71.4c.4-10.1,1-20.5,5-29.6l1.3-2.4.4.6a27.6,27.6,0,0,1,2.3,9.2,117.7,117.7,0,0,1,.6,22.2Z" style="fill:#e57225"/><path d="M5.6,117.2a690.8,690.8,0,0,1,9.2-92l2.3.2C12.1,55.8,7.6,86.2,5.6,117.2Z" style="mix-blend-mode:screen;fill:url(#Áåçûìÿííûé_ãðàäèåíò_477)"/><path d="M55.9,14.1c-.1-.7-.9-.8-1.1-.2a17.1,17.1,0,0,0-.9,4.5l-.6,4.5c-.3,3-.7,6-1,9-.6,5.9-1.1,11.9-1.7,17.9C49.5,61.9,48.4,73.9,47,85.9c-.8,6.7-1.7,13.5-2.8,20.2-.1.8,1.1,1.1,1.3.3.9-6,1.9-12,2.6-18s1.4-12,2-18c1.2-12,2.3-24.1,3.6-36.1l1.2-10,.6-5A30.4,30.4,0,0,0,55.9,14.1Z" style="fill:#924f28"/><path d="M61.1,66.2,59,32.6l-.6-9.5c-.2-3.1-.4-6.3-.8-9.5-.1-.6-.9-.6-.9,0-.1,2.8.1,5.7.2,8.5s.3,5.6.5,8.4c.3,5.7.7,11.3,1.1,17,.7,11.2,1.6,22.4,2.4,33.6.4,6.3.9,12.6,1.4,19,.1.7,1.2.7,1.1,0C62.6,88.8,61.9,77.5,61.1,66.2Z" style="fill:#924f28"/><path d="M95.9,13.3a3.1,3.1,0,0,1-1.6,1.9c-.3.1-.7.2-.9,0s-.1-.5-.1-.8A35.4,35.4,0,0,0,94.4,10a8.6,8.6,0,0,0-.1-4.5,2.8,2.8,0,0,1-.4-1.3c-.2-.7.2-1.8,1.2-1.7s1.2,1.1,1.4,1.8a12.7,12.7,0,0,1,.4,5.8A11.9,11.9,0,0,1,95.9,13.3Z" style="fill:#ea7244"/><path d="M58.9,13.3a3.2,3.2,0,0,1-1.7,1.9c-.3.1-.7.2-.9,0a1.1,1.1,0,0,1,0-.8c.3-1.5.8-2.9,1.1-4.4a8.6,8.6,0,0,0-.2-4.5c-.1-.4-.3-.8-.4-1.3s.3-1.8,1.2-1.7,1.3,1.1,1.5,1.8a14.2,14.2,0,0,1,.3,5.8A16.8,16.8,0,0,1,58.9,13.3Z" style="fill:#ea7244"/><path d="M39.4,10.2h-.2a4.9,4.9,0,0,1-3.5-1.9,4.4,4.4,0,0,1-.6-4.5,3.2,3.2,0,0,1,3.1-1.9l89,1.1a1.4,1.4,0,0,1,1.5,1.3l.5,3.8a1.2,1.2,0,0,1-.3,1.2,1.3,1.3,0,0,1-1.1.5Z" style="fill:#ffaa5a"/><path d="M38.2,3.4l78.5,1h10.5l.6,3.8h-8.9l-79.5.3a3.6,3.6,0,0,1-2.5-1.3c-1.2-1.6-1-4,1.3-4m0-3a4.8,4.8,0,0,0-4.5,2.7,5.7,5.7,0,0,0,.9,6.1,6.6,6.6,0,0,0,4.5,2.5h.3l79.5-.3h8.9a2.8,2.8,0,0,0,2.2-1,2.9,2.9,0,0,0,.7-2.4l-.5-3.8a3,3,0,0,0-2.9-2.6H116.7L38.2.4Z" style="fill:#e57225"/><path d="M120.2,4.4c-.5,1.3-.9,2.6-1.3,4l-79.5.3a3.6,3.6,0,0,1-2.5-1.3l77.9.3c.7-1.2,1.2-2.2,1.9-3.3Z" style="fill:#244d5e;opacity:0.30000000000000004;mix-blend-mode:multiply"/><path d="M110.6,28.1a1.7,1.7,0,0,1-1.2-.5,1.7,1.7,0,0,1-.3-1.2c1.2-7.4,2.6-15.8,6.9-22.8a1.6,1.6,0,0,1,.9-.7,43.8,43.8,0,0,1,10.8-1.4A37.9,37.9,0,0,1,138.4,3a1.8,1.8,0,0,1,1,.9,68.3,68.3,0,0,1,4.5,21.6,1.4,1.4,0,0,1-.5,1.1,1.6,1.6,0,0,1-1,.5h-.2l-3.4-.4-3.4-.4a1.3,1.3,0,0,1-1.3-1.5v-.9a58.9,58.9,0,0,0-1-12.7h-3.3a45.6,45.6,0,0,0-7.5.6,120.9,120.9,0,0,0-3.4,15.1,1.5,1.5,0,0,1-1.4,1.3h-6.9Z" style="fill:#baa2ee"/><path d="M127.7,3A36.2,36.2,0,0,1,138,4.5a65.7,65.7,0,0,1,4.4,21.1c-2.2-.2-4.7-.6-6.8-.7v-1a66.6,66.6,0,0,0-1.2-14.1l-4.6-.2a41.1,41.1,0,0,0-8.6.8h-.1a110.2,110.2,0,0,0-3.6,16.1h-6.9c1.2-7.7,2.6-15.6,6.7-22.2A40.7,40.7,0,0,1,127.7,3m0-3a42.6,42.6,0,0,0-11.2,1.5,3.4,3.4,0,0,0-1.8,1.3c-4.5,7.3-5.9,15.8-7.1,23.4a3.1,3.1,0,0,0,.7,2.4,3.3,3.3,0,0,0,2.3,1h6.9a3,3,0,0,0,2.9-2.6,103.7,103.7,0,0,1,3.1-14,42.6,42.6,0,0,1,6.3-.4h2.1a70,70,0,0,1,.7,11.3v.9a2.9,2.9,0,0,0,2.7,3l3.3.4,3.5.3h.3a2.7,2.7,0,0,0,2-.9,2.8,2.8,0,0,0,.9-2.3,68,68,0,0,0-4.5-22,3,3,0,0,0-2-1.8A37.3,37.3,0,0,0,127.7,0Z" style="fill:#7850b3"/><path d="M135.6,23.9a66.6,66.6,0,0,0-1.2-14.1,44.9,44.9,0,0,0-13.2.6H121a5.4,5.4,0,0,1,.7-1.3A70.7,70.7,0,0,1,135.5,9a80.6,80.6,0,0,1,2.9,13.8l2.9,1.6Z" style="fill:#7850b3"/><path d="M133.8,4.1a52.8,52.8,0,0,0-13.1,1.6c-3.4,4.8-3.8,10.9-6.1,16.3a3.7,3.7,0,0,1-1.8.4c-.8,0-1-.4-.8-1.1a15.5,15.5,0,0,0,.4-2.1,35.9,35.9,0,0,1,1.2-4.7,53,53,0,0,1,4-9.5A30.7,30.7,0,0,1,133.8,4.1Z" style="mix-blend-mode:screen;fill:url(#Áåçûìÿííûé_ãðàäèåíò_475-2)"/><path d="M117.3,5.3a28.3,28.3,0,0,0-1.6,3.6,25.4,25.4,0,0,0-1.6,3.8,30.6,30.6,0,0,0-1.5,8c0,.2.4.3.5,0,.6-2.5,1.1-5.1,1.9-7.6a25.4,25.4,0,0,1,1-3.7c.5-1.3,1.1-2.6,1.7-3.8S117.4,5,117.3,5.3Z" style="fill:#c9eaea"/><path d="M99,117.2a690.8,690.8,0,0,1,9.2-92l2.3.2C105.5,55.8,101,86.2,99,117.2Z" style="mix-blend-mode:screen;fill:url(#Áåçûìÿííûé_ãðàäèåíò_477-2)"/><path d="M56.6,8.3h1a9.7,9.7,0,0,1,1.5-4.7,1.4,1.4,0,0,0-1.6.4,4,4,0,0,0-.8,1.6A12.2,12.2,0,0,0,56.6,8.3Z" style="fill:#244d5e"/><path d="M57.8,4.3a3.4,3.4,0,0,0-.5,1.4A18.4,18.4,0,0,0,57,9a25.9,25.9,0,0,0,.4,4.8c0,.2.1.5.1.8a1,1,0,0,1-.4.7,1.4,1.4,0,0,1-1.2-.4c-1.8-1.3-2.6-3.6-3-5.7s-.1-7.9,3.9-7.7a2.7,2.7,0,0,1,1.7.6l.6.7a.7.7,0,0,1,.1.5v.3a1.7,1.7,0,0,0-1.4.5C57.9,4.2,57.9,4.2,57.8,4.3Z" style="fill:#924f28"/><path d="M93.6,8.3h1.1a8.6,8.6,0,0,1,1.4-4.7,1.3,1.3,0,0,0-1.5.4,2.5,2.5,0,0,0-.8,1.6A12.3,12.3,0,0,0,93.6,8.3Z" style="fill:#244d5e"/><path d="M94.9,4.3a3.4,3.4,0,0,0-.5,1.4A18.4,18.4,0,0,0,94.1,9a19.4,19.4,0,0,0,.3,4.8,1.1,1.1,0,0,1,.1.8.8.8,0,0,1-.4.7,1.5,1.5,0,0,1-1.2-.4c-1.8-1.3-2.6-3.6-3-5.7s0-7.9,4-7.7a2.5,2.5,0,0,1,1.6.6,1.3,1.3,0,0,1,.6.7.8.8,0,0,1,.2.5v.3a1.5,1.5,0,0,0-1.3.5C95,4.2,94.9,4.2,94.9,4.3Z" style="fill:#924f28"/><path d="M45.4,109.9h0c-1.5.4-3.1,1.3-3.2,2.8-.2,4.2.7,8.9,4,11.7s5.3,2.6,8.2,3a96.1,96.1,0,0,0,14.2,1.3c2.5,0,4.9-.1,7.4-.3a23.9,23.9,0,0,0,9-2.6c2.5-1.2,6.3-2.8,8.1-4.9s2.5-6.2,3.1-8.7a55.1,55.1,0,0,0,1.5-9.9,86.7,86.7,0,0,0-1.2-19c-.4-2.8-1-5.7-2.8-7.9a11.7,11.7,0,0,0-6.5-3.8l-3-.3H79.5a13.1,13.1,0,0,0-5.9,1.4l-.8.5a12.1,12.1,0,0,0-3.1,4.8,104.1,104.1,0,0,0-6.9,23.1c-.6,3.5-3.9,5.9-7.2,6.8a89,89,0,0,1-10.2,1.9M75.8,78.6c.8-1.3,3.1-1.8,4.7-1.9H81a11.3,11.3,0,0,1,4.8.8l1.5.7c.7.4,1.3.9,1.3,1.6A1.7,1.7,0,0,1,87,81.2a5.5,5.5,0,0,1-2.2-.1h-.3a31.5,31.5,0,0,0-6.1-.6h-.8c-.5,0-1.2.1-1.6-.3A1.2,1.2,0,0,1,75.8,78.6Z" style="fill:none;stroke:#502390;stroke-linecap:round;stroke-linejoin:round;stroke-width:4px"/><path d="M87.2,71.6a11.7,11.7,0,0,1,6.5,3.8c1.8,2.2,2.4,5.1,2.8,7.9a86.7,86.7,0,0,1,1.2,19,55.1,55.1,0,0,1-1.5,9.9c-.6,2.5-1.3,6.6-3.1,8.7s-5.6,3.7-8.1,4.9a23.9,23.9,0,0,1-9,2.6c-2.5.2-4.9.3-7.4.3a12.9,12.9,0,0,0,7.1-3.7,16.6,16.6,0,0,0,3.3-6.3,55.5,55.5,0,0,0,1.3-7.1h0a30.6,30.6,0,0,0,7.3-4.5,17.7,17.7,0,0,0,5.3-7.3,29.9,29.9,0,0,0,1.2-8.4,69.5,69.5,0,0,0-.4-11.2,9,9,0,0,0-4.1-6.8,20.9,20.9,0,0,0-5.4-2.1Z" style="fill:#7850b3"/><path d="M93.7,80.2a9,9,0,0,0-4.1-6.8l-2.7-1.3-2.7-.8a36.9,36.9,0,0,0-4.7.1,13.1,13.1,0,0,0-5.9,1.4l-.8.5a12.1,12.1,0,0,0-3.1,4.8,104.1,104.1,0,0,0-6.9,23.1c-.6,3.5-3.9,5.9-7.2,6.8s-6.8,1-10.2,1.9a26.1,26.1,0,0,0-.5,4.8,10,10,0,0,0,1.7,5.6c1.8,2.6,5.1,3.7,8.3,4.4a33.9,33.9,0,0,0,10.5,1.2,12,12,0,0,0,5.6-1.8,11.8,11.8,0,0,0,4.1-5.5,40.1,40.1,0,0,0,1.8-6.8l3.4-.2a30.6,30.6,0,0,0,7.3-4.5,17.7,17.7,0,0,0,5.3-7.3,29.9,29.9,0,0,0,1.2-8.4A69.5,69.5,0,0,0,93.7,80.2Zm-6.7,1a5.5,5.5,0,0,1-2.2-.1h-.3a31.5,31.5,0,0,0-6.1-.6h-.8c-.5,0-1.2.1-1.6-.3a1.2,1.2,0,0,1-.2-1.6c.8-1.3,3.1-1.8,4.7-1.9H81a11.3,11.3,0,0,1,4.8.8l1.5.7c.7.4,1.3.9,1.3,1.6A1.7,1.7,0,0,1,87,81.2Z" style="fill:#baa2ee"/><path d="M80.3,111.6h0a55.5,55.5,0,0,1-1.3,7.1,16.6,16.6,0,0,1-3.3,6.3,12.9,12.9,0,0,1-7.1,3.7,96.1,96.1,0,0,1-14.2-1.3c-2.9-.4-5.9-1.1-8.2-3s-4.2-7.5-4-11.7c.1-1.5,1.7-2.4,3.2-2.8h0a26.1,26.1,0,0,0-.5,4.8,10,10,0,0,0,1.7,5.6c1.8,2.6,5.1,3.7,8.3,4.4a33.9,33.9,0,0,0,10.5,1.2,12,12,0,0,0,5.6-1.8,11.8,11.8,0,0,0,4.1-5.5,40.1,40.1,0,0,0,1.8-6.8Z" style="fill:#ddd2f9"/><polygon points="42.2 111.5 42.2 114.5 45.1 113.9 45.7 111.5 42.2 111.5" style="fill:#7850b3"/><polygon points="76.5 111.5 76.2 115.2 79.9 114.7 80.9 111.7 76.5 111.5" style="fill:#7850b3"/><path d="M78.2,77.5c-.6.4-1.2.8-1.2,1.5a1.3,1.3,0,0,0,.6,1l.8.5h-.8c-.5,0-1.2.1-1.6-.3a1.2,1.2,0,0,1-.2-1.6c.8-1.3,3.1-1.8,4.7-1.9A9,9,0,0,0,78.2,77.5Z" style="fill:#7850b3"/><path d="M75.8,78.6a1.2,1.2,0,0,0,.2,1.6c.4.4,1.1.3,1.6.3h.8a31.5,31.5,0,0,1,6.1.6h.3a112.1,112.1,0,0,1-13.7,30.1c-2.1-.3-4.5-.9-6.6-1.3a173.4,173.4,0,0,0,9.1-37.1,13.1,13.1,0,0,1,5.9-1.4,36.9,36.9,0,0,1,4.7-.1l2.7.8c-.3,1.8-.7,3.5-1.1,5.3a11.3,11.3,0,0,0-4.8-.8h-.5C78.9,76.8,76.6,77.3,75.8,78.6Z" style="mix-blend-mode:screen;fill:url(#Áåçûìÿííûé_ãðàäèåíò_475-3)"/><path d="M66.3,99.4a10,10,0,0,1-3.1,6.6,19.2,19.2,0,0,1-6.1,3.4,40.1,40.1,0,0,1-9,2.5l-1.6.2a27.5,27.5,0,0,0,.9-5,80.1,80.1,0,0,0,9.9-2.7A24,24,0,0,0,66.3,99.4Z" style="fill:#ff8d3d"/><path d="M63.3,98.5a79,79,0,0,1-23.8,7.2h0a8.3,8.3,0,0,0,.1,5.6,17.9,17.9,0,0,0,6.9.8,27.5,27.5,0,0,0,.9-5,80.1,80.1,0,0,0,9.9-2.7,24,24,0,0,0,9-5A9.8,9.8,0,0,0,63.3,98.5Z" style="fill:#fcd54d"/><path d="M93,101.1a9.8,9.8,0,0,1-.6,3.8c-1.8,3.5-7.1,6.7-11,7.9h-.1a15.4,15.4,0,0,0,.2-4.3A30.2,30.2,0,0,0,93,101.1Z" style="fill:#ff8d3d"/><path d="M93,101.1v-.2a13.7,13.7,0,0,0-4-.5,37.3,37.3,0,0,1-15.8,7.5h-.1a24.6,24.6,0,0,0,1.1,4.5,28,28,0,0,0,7.1.4,15.4,15.4,0,0,0,.2-4.3A30.2,30.2,0,0,0,93,101.1Z" style="fill:#fcd54d"/><path d="M89,100.4a13.7,13.7,0,0,1,4,.5v.2a9.8,9.8,0,0,1-.6,3.8c-1.8,3.5-7.1,6.7-11,7.9h-.1c.1-.4.1-.7.2-1.1s-.1.7-.2,1.1H79.4a30.5,30.5,0,0,1-5.2-.5,24.6,24.6,0,0,1-1.1-4.5h.1A37.3,37.3,0,0,0,89,100.4m0-2a1.8,1.8,0,0,0-1.3.4,32.8,32.8,0,0,1-14.9,7.1h-.1a2,2,0,0,0-1.6,2.2,25.9,25.9,0,0,0,1.2,4.8,1.8,1.8,0,0,0,1.5,1.3,26.7,26.7,0,0,0,5.6.6H82c4.3-1.3,10.1-4.8,12.2-8.9a.4.4,0,0,0,.1-.3,12.7,12.7,0,0,0,.7-4.4v-.3a2,2,0,0,0-1.5-1.9,18.2,18.2,0,0,0-4.5-.5Z" style="fill:#e57225"/><path d="M63.3,98.5a9.8,9.8,0,0,1,3,.9,10,10,0,0,1-3.1,6.6,19.2,19.2,0,0,1-6.1,3.4,40.1,40.1,0,0,1-9,2.5l-1.6.2H45.2a17.7,17.7,0,0,1-5.6-.9,8.3,8.3,0,0,1-.1-5.6h0a79,79,0,0,0,23.8-7.2m-16,9.9c0-.5.1-.9.1-1.3,2.5-.6,5-1.1,7.5-1.9l2.4-.8,2.5-1-2.5,1-2.4.8c-2.5.8-5,1.3-7.5,1.9,0,.4-.1.8-.1,1.3m16-11.9-.9.2a77.5,77.5,0,0,1-23.1,7,2.1,2.1,0,0,0-1.7,1.3h0a10.6,10.6,0,0,0,.1,6.8,2.1,2.1,0,0,0,1.3,1.3,21.7,21.7,0,0,0,6.2,1h1.4l1.9-.2a44.5,44.5,0,0,0,9.3-2.6,20.9,20.9,0,0,0,6.7-3.9,11.7,11.7,0,0,0,3.8-8,1.7,1.7,0,0,0-.9-1.7,10.7,10.7,0,0,0-3.8-1.2Z" style="fill:#e57225"/><path d="M93.4,14.1c-.1-.7-.9-.8-1.1-.1a26.7,26.7,0,0,0-.8,4.8c-.2,1.6-.3,3.3-.5,4.9-.3,3.2-.6,6.4-.8,9.6-.6,6.4-1,12.8-1.5,19.2-.9,12.9-1.8,25.7-3,38.6-.7,7.2-1.4,14.5-2.4,21.7-.1.8,1,1.1,1.1.2.9-6.4,1.7-12.9,2.4-19.4S88,80.8,88.5,74.4c1-12.9,1.9-25.8,3-38.7.3-3.6.6-7.2,1-10.7.2-1.8.3-3.6.5-5.4A33.9,33.9,0,0,0,93.4,14.1Z" style="fill:#924f28"/><path d="M95.8,70.1c-.1-12-.2-23.9-.4-35.9,0-3.4,0-6.8-.1-10.2s-.1-6.8-.3-10.2c-.1-.6-.8-.8-.9-.2-.1,3-.1,6-.1,9s0,6,0,9.1c.1,6,.1,12,.2,18.1.2,12,.5,24,.7,36,.1,6.8.2,13.6.4,20.3,0,.8,1.1,1,1.1.3Z" style="fill:#924f28"/><path d="M82.9,116.3a.5.5,0,0,0,.2.4c.1.1.3,0,.4-.1a3.4,3.4,0,0,0,1.5-3c0-.9-1-1.8-1.7-.8A6.1,6.1,0,0,0,82.9,116.3Z" style="fill:#ff8d3d"/><path d="M94.9,109.2a.4.4,0,0,0,.2.4h.4a3.4,3.4,0,0,0,1.5-3c0-1-1-1.9-1.7-.8A6,6,0,0,0,94.9,109.2Z" style="fill:#ff8d3d"/><path d="M124.1,95.5c-6.7,4.7-8.7,19.5-9.8,25.4a204.7,204.7,0,0,0-2.5,22.1H101.1c.6-39.5,4.7-79.5,10.9-119.1a140.7,140.7,0,0,1,33.2.5A620.1,620.1,0,0,1,152.9,143h-9.4a94.3,94.3,0,0,0-3.4-33c-1.4-5-4-14.9-10.1-15.9A7.4,7.4,0,0,0,124.1,95.5Zm9.7-17.9h6.5c1.3,0,0-24.2-.4-26.4C139,46,136.6,34.1,129,35.6a6.1,6.1,0,0,0-2,.9,10.6,10.6,0,0,0-3.8,5.2c-5,11.2-5.3,23.6-5.8,35.9Z" style="fill:#ffaa5a"/><path d="M140.1,110a94.3,94.3,0,0,1,3.4,33h-6.3a144.5,144.5,0,0,0-.4-20.8,79.9,79.9,0,0,0-1.8-10.9c-1.1-5.7-3.4-16.4-10.9-15.8a7.4,7.4,0,0,1,5.9-1.4C136.1,95.1,138.7,105,140.1,110Z" style="fill:#ff8d3d"/><path d="M139.9,51.2c.4,2.2,1.7,26.4.4,26.4h-6.5a122.8,122.8,0,0,0-.3-27.1c-.5-3.7-1.1-7.4-2.9-10.9a5.5,5.5,0,0,0-1.9-2.4,3.6,3.6,0,0,0-1.7-.7,6.1,6.1,0,0,1,2-.9C136.6,34.1,139,46,139.9,51.2Z" style="fill:#ff8d3d"/><path d="M106.5,24.4l5.5-.5c-6.2,39.6-10.3,79.6-10.9,119.1H95A727.3,727.3,0,0,1,106.5,24.4Z" style="fill:#fcd54d"/><path d="M126.9,23.2a136.1,136.1,0,0,1,18.3,1.2A620.1,620.1,0,0,1,152.9,143H137.2a144.5,144.5,0,0,0-.4-20.8,79.9,79.9,0,0,0-1.8-10.9c-1.1-5.5-3.3-15.9-10.4-15.9h-.5c-6.7,4.7-8.7,19.5-9.8,25.4a204.7,204.7,0,0,0-2.5,22.1H95A727.3,727.3,0,0,1,106.5,24.4l5.5-.5c5.1-.5,10-.7,14.9-.7m-9.5,54.4h16.4a122.8,122.8,0,0,0-.3-27.1c-.5-3.7-1.1-7.4-2.9-10.9a5.5,5.5,0,0,0-1.9-2.4,3.6,3.6,0,0,0-1.7-.7,10.6,10.6,0,0,0-3.8,5.2c-5,11.2-5.3,23.6-5.8,35.9m9.5-57.4c-4.8,0-10,.2-15.2.7l-5.5.6a2.8,2.8,0,0,0-2.6,2.4A731.4,731.4,0,0,0,92,143a3.1,3.1,0,0,0,3,3h16.8a3,3,0,0,0,3-2.8,207.2,207.2,0,0,1,2.5-21.8c.1-.4.1-.9.2-1.5.9-5.2,2.9-17.2,7.6-21.4,4.3.6,6.1,9.2,7,13.4a84.2,84.2,0,0,1,1.7,10.6,143.4,143.4,0,0,1,.4,20.4,3.5,3.5,0,0,0,.8,2.2,3.1,3.1,0,0,0,2.2.9h15.7a3,3,0,0,0,3-2.9A636.5,636.5,0,0,0,148.2,24a3.1,3.1,0,0,0-2.6-2.5,124.8,124.8,0,0,0-18.7-1.3Zm-6.4,54.4c.4-10.9,1.1-22,5.4-31.7a10.3,10.3,0,0,1,1.6-2.8l.5.9c1.4,2.8,2,6,2.5,9.8a118.4,118.4,0,0,1,.6,23.8Z" style="fill:#e57225"/></g></g></g></svg>