<svg xmlns="http://www.w3.org/2000/svg" xmlns:xlink="http://www.w3.org/1999/xlink" viewBox="0 0 38 72.3"><defs><clipPath id="clip-path"><path d="M35.8,34.9a4,4,0,0,0-1.9-2.8,4.8,4.8,0,0,0-1.4-.5c-3.1-.8-3.8,1.4-3.9,2.3s.1-.7.1-1.3a28.5,28.5,0,0,0,.2-3.1,10.1,10.1,0,0,0-.8-4.5,1.8,1.8,0,0,0-.5-.7c-.5-.5-1-.6-1.3-.4s-1.7,2.7-1.7,2.8.9-21.2-5-25.1A3.5,3.5,0,0,0,17.1,1h-.3c-2.6.5-4.1,3.2-4.8,6.8-1.9,9,.6,23.6.6,23.6a5.8,5.8,0,0,0-4.9-1.2c-2.9.6,1.1,10.6,1.2,10.8s-9-6.5-7.8,3A44.3,44.3,0,0,0,6.8,60.8c2.7,5.5,8.8,16.2,18.7,6.8a27.5,27.5,0,0,0,6.1-8.8C35.6,50.4,37.1,39.9,35.8,34.9Z" style="fill:none"/></clipPath><clipPath id="clip-path-2"><path d="M37,51a3,3,0,0,0-.9-1.8l-.9-.5a1.7,1.7,0,0,0-2.4,1.1l.2-.7c.1-.5.2-1.2.3-1.8a7.7,7.7,0,0,0-.1-2.7l-.3-.5c-.3-.3-.5-.4-.8-.3S31,45.3,31,45.3s2-12.4-1.2-15.1a1.8,1.8,0,0,0-1.4-.6h-.2c-1.6.2-2.6,1.7-3.3,3.7-1.8,5.2-1.4,14-1.4,14a3.2,3.2,0,0,0-2.7-1.1c-1.8.2-.2,6.4-.1,6.5s-4.9-4.5-4.9,1.2a26.6,26.6,0,0,0,.8,6.1A21,21,0,0,0,18,64.1c1.2,3.5,4,10.2,10.5,5.4a16.9,16.9,0,0,0,4.3-4.8C35.7,60.1,37.4,54,37,51Z" style="fill:none"/></clipPath></defs><g id="Layer_2" data-name="Layer 2"><g id="Layer_1-2" data-name="Layer 1"><path d="M18,71.8C11.6,71.8,7.6,63.7,6.4,61a32.4,32.4,0,0,1-3.3-6.7A48.1,48.1,0,0,1,.6,44.2c-.3-2.3,0-3.9.8-4.9a2.8,2.8,0,0,1,2.2-.9,8.9,8.9,0,0,1,4.3,1.5c-1-2.7-2.4-7.4-1.4-9.2a1.6,1.6,0,0,1,1.1-.9H9a5.9,5.9,0,0,1,2.9.7c-.6-3.6-2-15-.4-22.6.9-4.3,2.6-6.7,5.2-7.2h.9a3.9,3.9,0,0,1,2.3.7c4.9,3.2,5.3,17.1,5.3,22.9a2.2,2.2,0,0,1,.9-.7h.5a1.8,1.8,0,0,1,1.3.6,2.2,2.2,0,0,1,.7.9,11,11,0,0,1,.8,4.7c0,.7-.1,1.5-.1,2.1a3,3,0,0,1,2-.7l1.3.2,1.6.6c.9.4,1.6,1.5,2.1,3.1,1.4,5.4-.4,16.1-4.2,24.2a30.3,30.3,0,0,1-6.2,9c-2.8,2.5-5.4,3.8-7.9,3.8Z" style="fill:#3b7e82"/><path d="M17.6,1a3.4,3.4,0,0,1,2,.6c5.9,3.9,5,24.7,5,25.1s.5-2.4,1.7-2.8h.3a1.9,1.9,0,0,1,1,.5,1.8,1.8,0,0,1,.5.7,10.1,10.1,0,0,1,.8,4.5,28.5,28.5,0,0,1-.2,3.1c0,.6-.1,1-.1,1.3a2.7,2.7,0,0,1,2.7-2.5,3,3,0,0,1,1.2.2,4.8,4.8,0,0,1,1.4.5,4,4,0,0,1,1.9,2.8c1.3,5-.2,15.5-4.2,23.9a27.5,27.5,0,0,1-6.1,8.8c-2.8,2.7-5.3,3.7-7.5,3.7-5.6,0-9.3-6.5-11.2-10.5A44.3,44.3,0,0,1,1.1,44.1c-.5-4,.8-5.2,2.5-5.2S8.8,41,8.9,41.1,4.8,30.9,7.7,30.3H9a5.7,5.7,0,0,1,3.6,1.3S10.1,16.9,12,7.9c.7-3.6,2.2-6.3,4.8-6.8h.8m0-1h-1C13.8.7,11.9,3.2,11,7.7c-1.5,7.2-.3,17.5.3,21.9A5.6,5.6,0,0,0,9,29.2H7.5a1.9,1.9,0,0,0-1.4,1.1c-1,1.8,0,5.6.9,8.5a7,7,0,0,0-3.4-1A3.5,3.5,0,0,0,1,39C.1,40-.2,41.8.1,44.3A43.7,43.7,0,0,0,2.7,54.5a40.4,40.4,0,0,0,3.2,6.8c1.4,2.8,5.4,11,12.1,11,2.6,0,5.4-1.3,8.2-3.9a29.8,29.8,0,0,0,6.3-9.2c3.9-8.2,5.7-19,4.2-24.6a4.7,4.7,0,0,0-2.3-3.4l-1.7-.6-1.4-.2a3.7,3.7,0,0,0-1.5.3c0-.4.1-.8.1-1.2a10.9,10.9,0,0,0-.9-5,3.6,3.6,0,0,0-.7-1,3.1,3.1,0,0,0-1.7-.7h-.7c-.1.1-.2.1-.2.2,0-6.5-.7-19.2-5.5-22.3A5,5,0,0,0,17.6,0Z" style="fill:#28575c"/><g style="clip-path:url(#clip-path)"><path d="M33.6,29.8a3.1,3.1,0,0,0-1.3-2l-1.1-.4a1.9,1.9,0,0,0-2.7,1.7,4.1,4.1,0,0,1,.1-1c0-.6.1-1.4.1-2.2a7.7,7.7,0,0,0-.5-3.2l-.4-.5a1.1,1.1,0,0,0-1-.3c-.8.3-1.1,2-1.2,2S26.3,8.8,22.1,6a2.7,2.7,0,0,0-1.8-.4h0c-.1,0-.2,0-.2.1-1.9.3-2.9,2.3-3.5,4.8-1.3,6.5.5,16.8.5,16.8a4.2,4.2,0,0,0-3.5-.8c-2.1.4.8,7.6.9,7.7S8,29.6,8.9,36.4a27.3,27.3,0,0,0,1.8,7.1,30.9,30.9,0,0,0,2.2,4.7c2,4,6.3,11.6,13.4,4.9a19.5,19.5,0,0,0,4.3-6.3C33.5,40.8,34.6,33.4,33.6,29.8Z" style="fill:#98d9e4"/></g><path d="M17.6,1a3.4,3.4,0,0,1,2,.6c5.9,3.9,5,24.7,5,25.1s.5-2.4,1.7-2.8h.3a1.9,1.9,0,0,1,1,.5,1.8,1.8,0,0,1,.5.7,10.1,10.1,0,0,1,.8,4.5,28.5,28.5,0,0,1-.2,3.1c0,.6-.1,1-.1,1.3a2.7,2.7,0,0,1,2.7-2.5,3,3,0,0,1,1.2.2,4.8,4.8,0,0,1,1.4.5,4,4,0,0,1,1.9,2.8c1.3,5-.2,15.5-4.2,23.9a27.5,27.5,0,0,1-6.1,8.8c-2.8,2.7-5.3,3.7-7.5,3.7-5.6,0-9.3-6.5-11.2-10.5A44.3,44.3,0,0,1,1.1,44.1c-.5-4,.8-5.2,2.5-5.2S8.8,41,8.9,41.1,4.8,30.9,7.7,30.3H9a5.7,5.7,0,0,1,3.6,1.3S10.1,16.9,12,7.9c.7-3.6,2.2-6.3,4.8-6.8h.8m0-1h-1C13.8.7,11.9,3.2,11,7.7c-1.5,7.2-.3,17.5.3,21.9A5.6,5.6,0,0,0,9,29.2H7.5a1.9,1.9,0,0,0-1.4,1.1c-1,1.8,0,5.6.9,8.5a7,7,0,0,0-3.4-1A3.5,3.5,0,0,0,1,39C.1,40-.2,41.8.1,44.3A43.7,43.7,0,0,0,2.7,54.5a40.4,40.4,0,0,0,3.2,6.8c1.4,2.8,5.4,11,12.1,11,2.6,0,5.4-1.3,8.2-3.9a29.8,29.8,0,0,0,6.3-9.2c3.9-8.2,5.7-19,4.2-24.6a4.7,4.7,0,0,0-2.3-3.4l-1.7-.6-1.4-.2a3.7,3.7,0,0,0-1.5.3c0-.4.1-.8.1-1.2a10.9,10.9,0,0,0-.9-5,3.6,3.6,0,0,0-.7-1,3.1,3.1,0,0,0-1.7-.7h-.7c-.1.1-.2.1-.2.2,0-6.5-.7-19.2-5.5-22.3A5,5,0,0,0,17.6,0Z" style="fill:#28575c"/><path d="M24.3,71.7c-4.3,0-6.2-5.6-6.8-7.4a24,24,0,0,1-1.4-4.2,27,27,0,0,1-.8-6.2,3.9,3.9,0,0,1,.9-2.9,1.7,1.7,0,0,1,1.3-.5,4.4,4.4,0,0,1,2.4.9c-.4-1.8-.8-4.2-.1-5.2a1.4,1.4,0,0,1,.9-.5H21a3.7,3.7,0,0,1,2,.5c-.1-2.5,0-8.9,1.4-13s2.1-3.9,3.8-4.1h.1a2.9,2.9,0,0,1,1.9.7c2.6,2.2,2,9.8,1.5,13.6h.6a1.2,1.2,0,0,1,1,.5,1.6,1.6,0,0,1,.3.6,6.2,6.2,0,0,1,.2,2.9c-.1.3-.1.6-.2.9h.7a2.2,2.2,0,0,1,1.1.2l.9.5a2.4,2.4,0,0,1,1.1,2.1c.5,3.4-1.3,9.6-4.2,14.1a17.8,17.8,0,0,1-4.4,4.9,7.7,7.7,0,0,1-4.5,1.8Z" style="fill:#3b7e82"/><path d="M28.3,29.6h.1a1.8,1.8,0,0,1,1.4.6C33,32.9,31,45.1,31,45.3s.4-1.4,1.1-1.5h.2a.9.9,0,0,1,.6.3l.3.5a7.7,7.7,0,0,1,.1,2.7c-.1.6-.2,1.3-.3,1.8l-.2.7a1.6,1.6,0,0,1,1.5-1.2h.9l.9.5A3,3,0,0,1,37,51c.4,3-1.3,9.1-4.2,13.7a16.9,16.9,0,0,1-4.3,4.8,7.2,7.2,0,0,1-4.2,1.7c-3.6,0-5.4-4.5-6.3-7.1A21,21,0,0,1,16.6,60a26.6,26.6,0,0,1-.8-6.1c0-2.2.8-2.9,1.7-2.9s3.1,1.6,3.2,1.7-1.7-6.3.1-6.5H21a3.2,3.2,0,0,1,2.5,1.1s-.4-8.8,1.4-14c.7-2,1.7-3.5,3.3-3.7h.1m0-1h-.2c-1.8.2-3.2,1.7-4.2,4.4s-1.4,9.5-1.4,12.4L21,45.2h-.3a2.1,2.1,0,0,0-1.3.7c-.6.9-.6,2.7-.2,4.5a5.9,5.9,0,0,0-1.7-.4,2.4,2.4,0,0,0-1.7.6,5,5,0,0,0-1,3.3,27.2,27.2,0,0,0,.8,6.3,19.4,19.4,0,0,0,1.5,4.3c.6,2,2.6,7.7,7.2,7.7a8,8,0,0,0,4.8-1.9,17.1,17.1,0,0,0,4.5-5c2.9-4.7,4.8-11,4.3-14.5a3.2,3.2,0,0,0-1.3-2.5l-1-.5a3,3,0,0,0-1.3-.2h-.1c0-.1,0-.1.1-.2a7.8,7.8,0,0,0-.2-3.2,2.2,2.2,0,0,0-.5-.8,1.6,1.6,0,0,0-1.3-.6c.5-4.1.8-11.2-1.8-13.4a3.2,3.2,0,0,0-2.1-.8Z" style="fill:#28575c"/><g style="clip-path:url(#clip-path-2)"><path d="M35.2,47a1.7,1.7,0,0,0-.7-1.3l-.7-.4a1.3,1.3,0,0,0-1.9.9c.1-.2.1-.4.2-.6a7.8,7.8,0,0,1,.2-1.4,4.7,4.7,0,0,0-.1-2.1.5.5,0,0,0-.2-.4.9.9,0,0,0-.6-.3c-.5.2-.9,1.2-.9,1.2s1.6-9.7-.9-11.8a1.8,1.8,0,0,0-1.1-.4h-.1c-1.3.1-2.1,1.3-2.6,2.9-1.4,4-1.1,10.9-1.1,10.9a2.4,2.4,0,0,0-2.1-.9c-1.4.1-.1,5-.1,5.1s-3.8-3.5-3.8.9a21.1,21.1,0,0,0,1.7,8c.9,2.7,3.1,7.9,8.2,4.2a11.9,11.9,0,0,0,3.3-3.7C34.2,54.1,35.5,49.4,35.2,47Z" style="fill:#98d9e4"/></g><path d="M28.3,29.6h.1a1.8,1.8,0,0,1,1.4.6C33,32.9,31,45.1,31,45.3s.4-1.4,1.1-1.5h.2a.9.9,0,0,1,.6.3l.3.5a7.7,7.7,0,0,1,.1,2.7c-.1.6-.2,1.3-.3,1.8l-.2.7a1.6,1.6,0,0,1,1.5-1.2h.9l.9.5A3,3,0,0,1,37,51c.4,3-1.3,9.1-4.2,13.7a16.9,16.9,0,0,1-4.3,4.8,7.2,7.2,0,0,1-4.2,1.7c-3.6,0-5.4-4.5-6.3-7.1A21,21,0,0,1,16.6,60a26.6,26.6,0,0,1-.8-6.1c0-2.2.8-2.9,1.7-2.9s3.1,1.6,3.2,1.7-1.7-6.3.1-6.5H21a3.2,3.2,0,0,1,2.5,1.1s-.4-8.8,1.4-14c.7-2,1.7-3.5,3.3-3.7h.1m0-1h-.2c-1.8.2-3.2,1.7-4.2,4.4s-1.4,9.5-1.4,12.4L21,45.2h-.3a2.1,2.1,0,0,0-1.3.7c-.6.9-.6,2.7-.2,4.5a5.9,5.9,0,0,0-1.7-.4,2.4,2.4,0,0,0-1.7.6,5,5,0,0,0-1,3.3,27.2,27.2,0,0,0,.8,6.3,19.4,19.4,0,0,0,1.5,4.3c.6,2,2.6,7.7,7.2,7.7a8,8,0,0,0,4.8-1.9,17.1,17.1,0,0,0,4.5-5c2.9-4.7,4.8-11,4.3-14.5a3.2,3.2,0,0,0-1.3-2.5l-1-.5a3,3,0,0,0-1.3-.2h-.1c0-.1,0-.1.1-.2a7.8,7.8,0,0,0-.2-3.2,2.2,2.2,0,0,0-.5-.8,1.6,1.6,0,0,0-1.3-.6c.5-4.1.8-11.2-1.8-13.4a3.2,3.2,0,0,0-2.1-.8Z" style="fill:#28575c"/></g></g></svg>