<svg xmlns="http://www.w3.org/2000/svg" viewBox="0 0 72.5 53.2"><g style="isolation:isolate"><g id="Layer_2" data-name="Layer 2"><g id="Layer_1-2" data-name="Layer 1"><path d="M3.1,52.2A2.2,2.2,0,0,1,1,50a2.1,2.1,0,0,1,2.1-2.1h1c-.6-20.2,7.4-31,12.3-35.7h0L17.8,11a8.6,8.6,0,0,1-3.2-6.3,3.5,3.5,0,0,1,.8-2.6A3.3,3.3,0,0,1,17.9,1H54.7a3.3,3.3,0,0,1,2.5,1.1A3.3,3.3,0,0,1,58,4.6,8.7,8.7,0,0,1,54.7,11l1.4,1.2c4.9,4.6,13,15.4,12.4,35.7h.9A2.1,2.1,0,0,1,71.5,50h0a2.1,2.1,0,0,1-2.1,2.2Z" style="fill:#5576b4"/><path d="M54.7,2h0A2.3,2.3,0,0,1,57,4.5c-.2,2.2-1.1,5.2-4.1,6.3h0c.1.1,1.1.8,2.5,2.1,4.4,4.2,12.9,15.1,12,36h2A1.1,1.1,0,0,1,70.5,50h0a1.1,1.1,0,0,1-1.1,1.2H3.1A1.1,1.1,0,0,1,2,50a1.1,1.1,0,0,1,1.1-1.1h2c-.9-20.9,7.6-31.8,12-36h0a20.1,20.1,0,0,1,2.6-2.1h-.3c-2.7-1.2-3.6-4-3.8-6.1A2.3,2.3,0,0,1,17.9,2H54.7m0-2H17.9a4.3,4.3,0,0,0-3.3,1.5,4,4,0,0,0-1,3.3A10.2,10.2,0,0,0,16.3,11l-.6.4h0C10.7,16.3,2.7,27,3,46.9A3.1,3.1,0,0,0,0,50a3.1,3.1,0,0,0,3.1,3.2H69.4A3.1,3.1,0,0,0,72.5,50h0a3,3,0,0,0-3-3.1c.3-20-7.8-30.8-12.7-35.5l-.5-.4A10.2,10.2,0,0,0,59,4.7a4.4,4.4,0,0,0-1.1-3.3A4.3,4.3,0,0,0,54.7,0Z" style="fill:#5576b4"/><path d="M52.9,10.8H19.7c-3-1.1-3.9-4-4.1-6.2A2.3,2.3,0,0,1,17.9,2H54.7A2.4,2.4,0,0,1,57,4.6C56.7,6.8,55.8,9.7,52.9,10.8Z" style="fill:#a7bfee"/><path d="M67.4,48.9a17,17,0,0,1-.1,2.2H58.9a19.5,19.5,0,0,0,.8-2.2,25.9,25.9,0,0,0,.8-6.3A23.1,23.1,0,0,0,40,19.6a12.3,12.3,0,0,0-2.7-.2H34.7A23.4,23.4,0,0,0,14,42.6a21.8,21.8,0,0,0,.9,6.3,17.2,17.2,0,0,0,.7,2.1H5.2c0-.8-.1-1.5-.1-2.2-.9-20.9,7.6-31.8,12-36a20.1,20.1,0,0,1,2.6-2.1H52.9c.1.1,1.1.8,2.5,2.1C59.8,17.1,68.3,28,67.4,48.9Z" style="fill:#a7bfee"/><path d="M55.4,12.9H17.1a20.1,20.1,0,0,1,2.6-2.1H52.9A25.8,25.8,0,0,1,55.4,12.9Z" style="fill:#f9ba67"/><path d="M70.5,50h0a1.1,1.1,0,0,1-1.1,1.2H3.1A1.1,1.1,0,0,1,2,50H2a1.1,1.1,0,0,1,1.1-1.1H69.4A1.1,1.1,0,0,1,70.5,50Z" style="fill:#a7bfee"/><path d="M70.5,50h0a1.1,1.1,0,0,1-1.1,1.2H15.6a28.2,28.2,0,0,0,7.6-2.1H59.7a25.9,25.9,0,0,0,.8-6.3A23.1,23.1,0,0,0,40,19.6a12.3,12.3,0,0,0-2.7-.2H34.7a16.2,16.2,0,0,0-13-8.7H19.3C36.3,10.8,32.9,4,32,2H54.7A2.3,2.3,0,0,1,57,4.5c-.2,2.2-1.1,5.2-4.1,6.3h0c.1.1,1.1.8,2.5,2.1,4.4,4.2,12.9,15.1,12,36h2A1.1,1.1,0,0,1,70.5,50Z" style="fill:#a7bfee;opacity:0.30000000000000004;mix-blend-mode:multiply"/></g></g></g></svg>