<svg xmlns="http://www.w3.org/2000/svg" viewBox="0 0 44.8 68.1"><g id="Layer_2" data-name="Layer 2"><g id="Layer_1-2" data-name="Layer 1"><path d="M24.6,58.7a7.4,7.4,0,0,1-6.7-4.3,6,6,0,0,1-.6-1.9,11,11,0,0,1-7.3-6,13.5,13.5,0,0,1-.9-3.3,14,14,0,0,1-6.8-6.8,13.7,13.7,0,0,1,.6-12.9,11.4,11.4,0,0,1-1-1.9,14.3,14.3,0,0,1-.5-11.3A14.8,14.8,0,0,1,9.1,1.9,15.1,15.1,0,0,1,15.3.5,14.9,14.9,0,0,1,28.8,9.1a11.9,11.9,0,0,1,.8,2A13.9,13.9,0,0,1,40.7,28.5a10.7,10.7,0,0,1,1.9,2.8,10.9,10.9,0,0,1-.1,9.5,5.7,5.7,0,0,1,1.1,1.6,7.3,7.3,0,0,1,.2,5.6A6.9,6.9,0,0,1,40,52.2a6.7,6.7,0,0,1-3.1.7h0a7.4,7.4,0,0,1-5-2A7.5,7.5,0,0,1,27.7,58,8.7,8.7,0,0,1,24.6,58.7Z" style="fill:#6c9433"/><path d="M15.3,1A14.5,14.5,0,0,1,28.4,9.3a19.5,19.5,0,0,1,.8,2.2,13.3,13.3,0,0,1,10.2,7.6,13.1,13.1,0,0,1,.7,9.5,11.5,11.5,0,0,1,2,2.9,10.5,10.5,0,0,1-.2,9.3,7.1,7.1,0,0,1,1.2,1.8,6.8,6.8,0,0,1-3.3,9.1,5.9,5.9,0,0,1-2.9.7,6.7,6.7,0,0,1-5.8-3.3,6.8,6.8,0,0,1-3.7,8.4,7.2,7.2,0,0,1-2.8.7,7,7,0,0,1-6.3-4,8.3,8.3,0,0,1-.6-2.1,10.6,10.6,0,0,1-7.2-5.9,10.2,10.2,0,0,1-.9-3.3,14,14,0,0,1-6.9-6.7,13.6,13.6,0,0,1,.8-12.7L2.3,21.4A14.3,14.3,0,0,1,15.3,1M30.4,47.7l-.3-1.4h-.4c0,.2-.1.3-.1.4a4.4,4.4,0,0,1,.8,1.1M15.3,0A15.7,15.7,0,0,0,8.9,1.4,15.5,15.5,0,0,0,1.4,21.8l.9,1.7a14.7,14.7,0,0,0-.5,13.1,14.5,14.5,0,0,0,6.8,7,12.4,12.4,0,0,0,1,3.1,11.3,11.3,0,0,0,7.3,6.2,8.4,8.4,0,0,0,.5,1.7,7.7,7.7,0,0,0,10.5,3.8,7.8,7.8,0,0,0,4.5-6.5,7.4,7.4,0,0,0,4.5,1.5,8.8,8.8,0,0,0,3.3-.7,7.9,7.9,0,0,0,4.1-4.5,8.3,8.3,0,0,0-.2-6,7.8,7.8,0,0,0-1-1.5,11.5,11.5,0,0,0-.1-9.6,8,8,0,0,0-1.8-2.7,14.1,14.1,0,0,0-.8-9.7A14.8,14.8,0,0,0,30,10.6c-.2-.6-.5-1.2-.7-1.7A15.5,15.5,0,0,0,15.3,0Z" style="fill:#507125"/><path d="M35.1,67.6c-1.9,0-3.4-.7-3.9-1.9a109.6,109.6,0,0,1-4.7-17.1l-.9-.4a9.2,9.2,0,0,1-3.1-2,3,3,0,0,1-.8-.9l-.3-.4a.4.4,0,0,1,0-.5.5.5,0,0,1,.4-.3h.6l1.1.3L25,45l1.1.5v-.9a3.7,3.7,0,0,0-.5-1.8l-.3-.7h-.9a7,7,0,0,1-1.9-.6,8.3,8.3,0,0,1-3.1-2l-.9-.9-.2-.4a.6.6,0,0,1,0-.6.5.5,0,0,1,.4-.2h.5l1.2.3,1.5.5,1.6.6.4.2-.5-1-1.6-3.6h-.4l-1-.2a8.9,8.9,0,0,1-1.9-.7,10.8,10.8,0,0,1-2.8-2.4,4.6,4.6,0,0,1-.7-1l-.2-.4a.6.6,0,0,1,0-.6h1l1.1.4,1.5.7,1.5.8.5.3-.9-2.2-1.2-2.9-.8-.2a3.2,3.2,0,0,1-.9-.3,8.7,8.7,0,0,1-1.8-1.1A10.3,10.3,0,0,1,12.4,22l-.5-1.2-.2-.5c0-.2.1-.3.2-.5h.3c.1,0,.2,0,.2.1l.5.2,1,.6,1.3.9,1.4,1,.4.4-.7-1.8-1.1-3.3-.7-2.1v-.4A9.3,9.3,0,0,1,14,14v-.4l-.2-.6a.7.7,0,0,1,.3-.6h.2l.4.2.4.5.2.4a5.2,5.2,0,0,1,.7,1.1l.2.3,1.3,1.9,1.7,3,1.1,1.8V19.1c.1-.5.1-1.1.2-1.6s.1-.8.2-1.1a1.8,1.8,0,0,0,.1-.5c.1-.2.2-.3.4-.3h.1l.4.2.3.5.5,1.1a10.9,10.9,0,0,1,.6,3.6L22.7,23l-.4.9a3.5,3.5,0,0,1-.5.8l1.5,2.7,1.2,2.3v-.8a13.6,13.6,0,0,1,.4-1.7,8.3,8.3,0,0,1,.4-1.5,6.6,6.6,0,0,1,.4-1.1l.2-.5a.5.5,0,0,1,.4-.2h0l.5.2.2.5a10.4,10.4,0,0,1,.3,1.2,11.5,11.5,0,0,1,0,3.7,10.7,10.7,0,0,1-.7,1.9,4.1,4.1,0,0,1-.5.9l-.3.4,1.7,3.6.5,1,.2-.6a9.8,9.8,0,0,1,.5-1.6,11.6,11.6,0,0,1,.6-1.5l.5-1.1.3-.4a.5.5,0,0,1,.4-.2h0c.2,0,.4.1.4.3l.2.5c.1.3.1.7.2,1.2a11.8,11.8,0,0,1-.5,3.7,7.5,7.5,0,0,1-.8,1.8,2.8,2.8,0,0,1-.6.8h-.1l.3.6a4.2,4.2,0,0,0,1.1,1.5,2.3,2.3,0,0,1,.7.7c.1-.5.3-.9.4-1.3l.6-1.5.5-1,.3-.5a.5.5,0,0,1,.4-.2h.1a.5.5,0,0,1,.4.3,1.8,1.8,0,0,0,.1.5,3.9,3.9,0,0,1,.2,1.3,9.2,9.2,0,0,1-.5,3.6,4.9,4.9,0,0,1-.4,1.1A108.9,108.9,0,0,1,43.7,59.8a3.9,3.9,0,0,1-.6,3.8,10.3,10.3,0,0,1-3.9,3.1A10.1,10.1,0,0,1,35.1,67.6Z" style="fill:#fafcfb"/><path d="M14.2,12.9l.4.5.9,1.4,1.4,2.3q.9,1.3,1.8,3l1.9,3.3h0v-.8a2.5,2.5,0,0,1,.1-.8V19.2c.1-.6.1-1.1.2-1.6s.1-.8.2-1.1a1.2,1.2,0,0,1,.1-.5l.2.4a2.8,2.8,0,0,1,.5,1.1,8.6,8.6,0,0,1,.6,3.4,10.8,10.8,0,0,1-.3,1.9l-.3.9-.5.7c0,.1-.1.1-.2.2s1.1,2,1.6,3l1.8,3.6c.1-.1.1-.3.2-.5v-.8a2.9,2.9,0,0,0,.2-.9,13.6,13.6,0,0,1,.4-1.7,8.3,8.3,0,0,1,.4-1.5,6.2,6.2,0,0,1,.3-1l.2-.4a1.1,1.1,0,0,1,.2.4,5.3,5.3,0,0,1,.3,1.1,10.2,10.2,0,0,1,0,3.5l-.6,1.8a5.6,5.6,0,0,1-.5.8l-.5.6,1.9,3.9.9,2.1h.1l.3-.8c.1-.3.1-.5.2-.8l.6-1.7a12.1,12.1,0,0,0,.5-1.4,4.4,4.4,0,0,1,.6-1l.2-.4a1.6,1.6,0,0,0,.1.4c.1.3.1.7.2,1.2a11.2,11.2,0,0,1-.5,3.4,7.1,7.1,0,0,1-.8,1.8l-.5.7-.3.3a3.6,3.6,0,0,1,.4.9h0a7,7,0,0,0,1.3,1.7L31.7,44c.1-.1.1-.3.2-.4a7.5,7.5,0,0,1,.5-1.6,11.6,11.6,0,0,1,.6-1.5,4.6,4.6,0,0,1,.5-1l.2-.4a1,1,0,0,1,.1.4,3.7,3.7,0,0,1,.2,1.2,8.3,8.3,0,0,1-.4,3.4L33,45.4c4.4,5.2,9.7,13.4,10.2,14.7s-1,4.6-4.2,6.1a9.6,9.6,0,0,1-3.9.9c-1.7,0-3-.5-3.5-1.6A104.5,104.5,0,0,1,27,48.2l-1.2-.4a8.1,8.1,0,0,1-2.9-1.9,3,3,0,0,1-.8-.9l-.3-.4h.5l1.1.3,1.4.5,1.6.6h.3c0-.5-.1-1.1-.1-1.6a5.4,5.4,0,0,0-.5-2.1h0l-.5-.9H24.5l-1.9-.5a13.2,13.2,0,0,1-2.9-1.9l-.8-.9-.2-.4h.4l1.1.3,1.5.5,1.6.6.8.3.8.3c-.3-.6-.7-1.3-1-2l-1.8-4H20.6a4.9,4.9,0,0,1-1.8-.8,8.6,8.6,0,0,1-2.7-2.2l-.7-.9a1.1,1.1,0,0,0-.2-.4h.5l1,.4,1.4.7,1.5.8.8.4.7.4.4.2L19.9,29c-.4-1.1-.9-2.2-1.3-3.2h-.1l-.9-.2-.8-.3a7.5,7.5,0,0,1-1.7-1,8.5,8.5,0,0,1-2.2-2.6,4.5,4.5,0,0,1-.5-1l-.2-.5.4.2,1,.6a5.1,5.1,0,0,1,1.3.9l1.4,1,.6.6a1.8,1.8,0,0,1,.7.5l.5.3c-.5-1.2-.9-2.3-1.3-3.4s-.8-2.2-1.1-3.2a23.8,23.8,0,0,1-.8-2.6,9,9,0,0,1-.5-1.6l-.2-.6m0-1h-.4a1,1,0,0,0-.6,1.2l.2.5c0,.2.1.3.1.5s.3.8.4,1.2v.4c.2.7.5,1.4.7,2.2s.7,2.1,1.2,3.3h0l-.4-.3-1.3-.9-1.1-.7-.5-.2h-.4l-.6.2a1,1,0,0,0-.3,1,1.8,1.8,0,0,0,.1.6,6.6,6.6,0,0,0,.6,1.2,10.3,10.3,0,0,0,4.4,4.1l1,.3h.5L19,29.4l.4.9-.8-.4-1.5-.7L16,28.7h-.8a.9.9,0,0,0-.7.3,1,1,0,0,0-.2,1,1.5,1.5,0,0,0,.3.6l.7,1.1a11.7,11.7,0,0,0,3,2.4,5.6,5.6,0,0,0,2,.8l1.1.2h.1a29.2,29.2,0,0,0,1.4,3.1l-.8-.3-1.6-.5L19.3,37h-.6a1,1,0,0,0-.8.5.9.9,0,0,0-.1,1l.4.5a4.8,4.8,0,0,0,.8,1A12.4,12.4,0,0,0,22.3,42a8.3,8.3,0,0,0,2.1.6H25c.1.1.1.3.2.4a4.7,4.7,0,0,1,.4,1.7h0l-.4-.2L23.7,44l-1.2-.3h-.7a1,1,0,0,0-.8.5,1.2,1.2,0,0,0-.1,1l.4.5a3.5,3.5,0,0,0,.9,1,10.5,10.5,0,0,0,3.2,2.1l.7.3a108.3,108.3,0,0,0,4.6,16.9c.7,1.4,2.3,2.2,4.4,2.2a9.6,9.6,0,0,0,4.3-1c3.8-1.7,5.9-5,4.7-7.5a99.5,99.5,0,0,0-9.9-14.3l.3-.8a10.7,10.7,0,0,0,.5-3.9,4.4,4.4,0,0,0-.2-1.3c-.1-.3-.1-.5-.2-.6a1,1,0,0,0-.8-.6h-.1a1,1,0,0,0-.8.5l-.3.4a3.7,3.7,0,0,0-.5,1.1l-.6,1.5a1.4,1.4,0,0,0-.2.6h-.1a3.3,3.3,0,0,1-1-1.4l-.2-.3.5-.7a19.5,19.5,0,0,0,.9-2,10,10,0,0,0,.5-3.8,10.5,10.5,0,0,1-.2-1.3,3.9,3.9,0,0,1-.2-.6.9.9,0,0,0-.8-.6h-.1a1.3,1.3,0,0,0-.9.4l-.2.5-.6,1.1c-.2.4-.4,1-.6,1.5l-.3,1h0l-1.5-3.2h.1l.6-1a6.6,6.6,0,0,0,.6-2,10.3,10.3,0,0,0,.1-3.9,6.8,6.8,0,0,0-.4-1.3l-.2-.5a1.1,1.1,0,0,0-.9-.5h0a1.1,1.1,0,0,0-.9.5l-.2.5a8.3,8.3,0,0,0-.4,1.2c-.1.4-.3,1-.4,1.5a4.3,4.3,0,0,0-.2,1.1l-.6-1c-.4-.9-.9-1.7-1.3-2.5a2.1,2.1,0,0,0,.4-.6l.3-1a15.5,15.5,0,0,0,.4-2.1,12.7,12.7,0,0,0-.6-3.9c-.2-.5-.5-.9-.6-1.2l-.3-.5a1.2,1.2,0,0,0-.8-.4H21a.8.8,0,0,0-.8.7v.5c-.1.3-.1.8-.2,1.2s-.1,1-.2,1.6v.7c0-.1-.1-.1-.1-.2l-1.8-3-1.2-1.9-.2-.4-.8-1.1-.2-.3-.4-.6a.9.9,0,0,0-.8-.4Z" style="fill:#dfe590"/></g></g></svg>