<svg xmlns="http://www.w3.org/2000/svg" viewBox="0 0 119.2 129.1"><g style="isolation:isolate"><g id="Layer_2" data-name="Layer 2"><g id="Layer_1-2" data-name="Layer 1"><g id="Flower9"><path d="M86.6,101.1a26.1,26.1,0,0,1-5.5,12.4c-1.5,1.8-11.1,8.7-22.2,6.8a23.1,23.1,0,0,1-7.1-2.6,28.5,28.5,0,0,1-10.4-11,31.4,31.4,0,0,1-3.1-9.4,46.7,46.7,0,0,1,0-13.5c.2-1.4.5-2.7.7-3.8s.4-1.6.5-2.2h3.4a63.9,63.9,0,0,0,14.8,2.8,61.4,61.4,0,0,0,24.9-3.2h1.9a41,41,0,0,1,1.7,6.4A46.8,46.8,0,0,1,86.6,101.1Z" style="fill:#e57225"/><ellipse cx="62.4" cy="77.4" rx="26.1" ry="7" style="fill:#e57225"/><ellipse cx="62" cy="80.1" rx="23" ry="7.9" style="fill:#704f2f"/><path d="M86.6,101.1a26.1,26.1,0,0,1-5.5,12.4c-1.5,1.8-11.1,8.7-22.2,6.8-9.4-1.7-15.3-9.3-17.5-13.6a31.4,31.4,0,0,1-3.1-9.4,37.9,37.9,0,0,0,19,10.2C70.1,110.1,80.8,105,86.6,101.1Z" style="fill:#c4ae80;opacity:0.5;mix-blend-mode:multiply"/><path d="M90.3,82.8c-1,.3-3.1,1.3-4.3,1.6l-2.9.9c-6.7,1.9-13.1,3.6-21.7,3.5A65.4,65.4,0,0,1,50,87.6a47.1,47.1,0,0,1-12-3.8,21.4,21.4,0,0,1-3-1.7,6.2,6.2,0,0,1-.1-3.2A5.7,5.7,0,0,1,37,75.7a59.1,59.1,0,0,0,5.7,2.1c2.1.6,4.5,1.2,7,1.7a63.4,63.4,0,0,0,8.1,1.1,60.7,60.7,0,0,0,20.4-1.8,50.7,50.7,0,0,0,5-1.4l4.7-1.7a10.1,10.1,0,0,1,2,2.8A6.2,6.2,0,0,1,90.3,82.8Z" style="fill:#e57225"/><path d="M90.3,82.8c-1,.3-3.1,1.3-4.3,1.6l-2.9.9a10.7,10.7,0,0,0-2.2-4.4,12.4,12.4,0,0,0-2.7-2.1,50.7,50.7,0,0,0,5-1.4l4.7-1.7a10.1,10.1,0,0,1,2,2.8A6.2,6.2,0,0,1,90.3,82.8Z" style="fill:#e2d9a6;mix-blend-mode:multiply"/><path d="M50,87.6a47.1,47.1,0,0,1-12-3.8,21.4,21.4,0,0,1-3-1.7,6.2,6.2,0,0,1-.1-3.2A5.7,5.7,0,0,1,37,75.7a59.1,59.1,0,0,0,5.7,2.1c2.1.6,4.5,1.2,7,1.7a5.4,5.4,0,0,0-1.3,3.3A5.7,5.7,0,0,0,50,87.6Z" style="fill:#e2d9a6;mix-blend-mode:multiply"/><path d="M62.4,70.4c12.3,0,22.7,2.3,25.4,5.3h.1a10.1,10.1,0,0,1,2,2.8,6.2,6.2,0,0,1,.4,4.3l-4,1.5c.8,4.5,1.5,10.7.3,16.8a26.1,26.1,0,0,1-5.5,12.4c-1.3,1.6-8.9,7.1-18.2,7.1l-4-.3-1.8-.4-.6-.2-1.2-.4-.6-.2-1-.5-.7-.3-.9-.5h-.3l-.2-.2-1.6-1h-.1l-1.6-1.2-.4-.3-1.1-1.1-.3-.2-1.2-1.3L45,112l-.9-1.1-.2-.3a5.1,5.1,0,0,1-.9-1.3c-.1,0-.1-.1-.2-.2l-.6-1c-.1-.1-.2-.2-.2-.3s-.5-.8-.6-1.1a31.4,31.4,0,0,1-3.1-9.4,45.4,45.4,0,0,1,0-13.3l-.3-.2a21.4,21.4,0,0,1-3-1.7,6.2,6.2,0,0,1-.1-3.2A5.7,5.7,0,0,1,37,75.7h.1c2.8-3,13.1-5.3,25.3-5.3m0-3c-9.6,0-22.1,1.5-26.9,5.7l-.4.2A9.2,9.2,0,0,0,32,78.2a8.6,8.6,0,0,0,.2,4.9,3.3,3.3,0,0,0,1.1,1.5l1.8,1.1a44.3,44.3,0,0,0,.2,12.1,34.7,34.7,0,0,0,3.4,10.3l.7,1.2.2.4.7,1.1h.1c0,.1,0,.2.1.2l1,1.4.2.3h.1l.9,1.1h.1l.2.3,1.4,1.4.2.2h.1l1.3,1.2h0l.4.3,1.7,1.4h.2l1.7,1.1.3.2.3.2h.1l1,.5.7.4,1.2.4h.1l.6.2,1.3.5h.2l.5.2,2.1.4a22.8,22.8,0,0,0,4.5.4c10.4,0,18.7-6,20.5-8.2a29.8,29.8,0,0,0,6.2-13.7,49.8,49.8,0,0,0,.1-15.4l1.5-.6a2.8,2.8,0,0,0,2-2.2,9.8,9.8,0,0,0-.6-6.3,14.2,14.2,0,0,0-2.7-3.8l-.5-.3c-4.9-4.2-17.4-5.7-27-5.7Z" style="fill:#6a3417"/><path d="M57.1,83.7c-.3.2-1.6-3-4.1-6.3L51.7,76a16.8,16.8,0,0,0-4.5-3.8,13.8,13.8,0,0,0-4-1.5c-3.8-.8-5.3.7-10.1-.8l-1.5-.5c-3.4-1.4-4.4-3-8-3.6s-5.2.2-8.8,1.2A47.1,47.1,0,0,0,3,72.2,23.2,23.2,0,0,1,5.1,68c4.6-6.9,14.3-11.9,24.3-11.7a15.1,15.1,0,0,1,3,.2,28.9,28.9,0,0,1,7.9,2.1A28.6,28.6,0,0,1,53.7,71.8a29.2,29.2,0,0,1,2.4,5.7C57.2,81,57.4,83.5,57.1,83.7Z" style="fill:#6c9433"/><path d="M56.1,77.5H53L51.7,76a16.8,16.8,0,0,0-4.5-3.8,13.8,13.8,0,0,0-4-1.5c-3.8-.8-5.3.7-10.1-.8l-1.5-.5a12.4,12.4,0,0,0,.9-7.1,11.5,11.5,0,0,0-3.1-6,15.1,15.1,0,0,1,3,.2,28.9,28.9,0,0,1,7.9,2.1A28.6,28.6,0,0,1,53.7,71.8,29.2,29.2,0,0,1,56.1,77.5Z" style="fill:#364e2a;opacity:0.6900000000000001"/><path d="M23.2,34.8a30.2,30.2,0,0,0,9,8.8c4.4,2.6,7.6,2.7,10.5,3.9,4.6,1.7,10.2,6.6,14.1,20.4l-5.2,3.7C46.3,60.4,40.2,55.1,35.3,52.3c-2.4-1.4-6.6-3.3-9.5-8A20.7,20.7,0,0,1,23.2,34.8Z" style="fill:#6c9433"/><path d="M61.2,66.1l-6.8.8H54c-5.2-4.5-6.7-8.6-7.1-11.6-.6-4.7,1.3-7.9-.7-11.6S42,39.7,40,39l1-.3c2.7-.8,9.6-2.1,15.3,1.8S66,56.3,61.2,66.1Z" style="fill:#96b85c"/><path d="M61.2,66.1l-6.8.8c3.8-8.6,2.4-18.1-3.4-23.6a18.3,18.3,0,0,0-10-4.6c2.7-.8,9.6-2.1,15.3,1.8S66,56.3,61.2,66.1Z" style="fill:#6c9433"/><path d="M93.8,100.2c-.2-1.8-1.4-12.1-10.5-18.7l-1.8-1.3a27.8,27.8,0,0,0-13.2-3.8c1.1-2.5,3.6-7.4,8.2-8.7s11.8,2.9,15.7,8.9a24.2,24.2,0,0,1,3.4,7.3A23.7,23.7,0,0,1,93.8,100.2Z" style="fill:#b9e48e"/><path d="M92.2,76.6a10.7,10.7,0,0,0-7.7.8,9.1,9.1,0,0,0-3,2.8,27.8,27.8,0,0,0-13.2-3.8c1.1-2.5,3.6-7.4,8.2-8.7S88.3,70.6,92.2,76.6Z" style="fill:#597d4b;opacity:0.5"/><path d="M69.3,75.2c.3-.7,5.3-11.3,15-13.5a17.3,17.3,0,0,1,9.9.1c1.7.6,2.4,1.3,4.7,1.9s5.7.5,7.1.6,6.4,3.5,10.2,16.9c-4.3-5.5-8.4-7.6-11.5-8.5s-3-.2-8.9-.8c-8.3-1-9.5-2.2-13.4-2.1S74.7,71,69.3,75.2Z" style="fill:#6c9433"/><path d="M91,42.5c-1.6-.1-9.1-.7-13.9,4.4-3.3,3.4-3.8,7.7-3.8,12.4v3.2c0,.7.1,1.4.1,2.3s.1.8.2,1.3a29.6,29.6,0,0,0,.6,3.8.4.4,0,0,0,.1.3l-1.6,1.6-1.9,2a9.4,9.4,0,0,0-1-1l-.6-.6c-.5-.6-1.1-1.1-1.6-1.6l-1.8-1.8-3.1-3.1c-.9-17.2,7.5-29,15.8-29.7,3.2-.3,6.3,1.2,8.6,2.9A36.6,36.6,0,0,1,91,42.5Z" style="fill:#96b85c"/><path d="M60.1,42.1S55,60,63.3,64.1l.7-.9s-7.2-6.4-2.7-20.4Z" style="fill:#364e2a"/><path d="M87.1,38.9a19.7,19.7,0,0,0-10.6,2.2C68,45.7,63.5,57,66.4,68.6l-.6.2-3.1-3.1c-.9-17.2,7.5-29,15.8-29.7C81.7,35.7,84.8,37.2,87.1,38.9Z" style="fill:#b9e48e;opacity:0.51"/><path d="M54.2,73.9l-1.9.5-1,.4a13.2,13.2,0,0,0-6.8,5c-1.5,2.3-1.2,3.9-1.7,6.7a10.3,10.3,0,0,1-.4,1.4,24.9,24.9,0,0,1-4,8.2c-2.8,3.5-6.6,6.4-10.9,7a15.3,15.3,0,0,1-9.1-1.9,17.3,17.3,0,0,0,7.2-4.4c2.7-3,2.8-5.9,4.8-11.9a75,75,0,0,1,2.5-7.3c1.1-3.1,2.3-5,4-6.1s4.9-2.9,13.4.6l1.7.7,1,.5Z" style="fill:#96b85c"/><path d="M116.2,37.1a45,45,0,0,0-15.9,9.7c-4.9,4.6-5.5,7.6-9.5,11.6a32,32,0,0,1-2.6,2.4c-5.8,4.9-7.6,3.9-13.2,8.7l-.7.7-1.6,1.6-1.9,2-.3.4c-3.9,4.7-5.2,8.5-5.6,8.3a.4.4,0,0,1-.1-.3c-.1-1.3.6-5.6,2.6-11.1.1-.2.1-.4.2-.5A60.6,60.6,0,0,1,71,63.1l2.3-3.8a50,50,0,0,1,12-12.9C97.3,37.7,110.4,37,116.2,37.1Z" style="fill:#6c9433"/><path d="M90.8,58.4a32,32,0,0,1-2.6,2.4c-5.8,4.9-7.6,3.9-13.2,8.7l-.7.7-1.6,1.6-1.9,2-.3.4c-3.9,4.7-5.2,8.5-5.6,8.3a.4.4,0,0,1-.1-.3,48.5,48.5,0,0,1,4.1-9.6l.3-.4a26.5,26.5,0,0,1,2.6-3.9,12.4,12.4,0,0,1,1.8-2.2,22.5,22.5,0,0,1,11.5-7.2A23.7,23.7,0,0,1,90.8,58.4Z" style="fill:#364e2a"/><path d="M45.8,72.2c-2.4.8-5.5,2.2-7.3,5.3-2.8,4.8.4,8.8-1.9,14.2-1.1,2.6-3.8,5.8-10.8,8a17.9,17.9,0,0,0,5.9-3.9c2.6-2.7,5-6.5,4.5-10.4s-.1-7.7,2.6-10.5A10.1,10.1,0,0,1,45.8,72.2Z" style="fill:#6c9433"/><path d="M52,72.8c-.2.7-.5,1.3-.7,2a13.2,13.2,0,0,0-6.8,5c-1.5,2.3-1.2,3.9-1.7,6.7-1.1-6.4-3.2-10.4-5.8-10.8s-2.8.6-4.1,1.9c1.1-3.1,2.3-5,4-6.1s4.9-2.9,13.4.6Z" style="fill:#597d4b;opacity:0.5"/><path d="M68.3,97.4c-.8,16-4.3,20.3-5.5,21.7a24.1,24.1,0,0,1-11.5,7,60,60,0,0,0,1.8-10.3,64.5,64.5,0,0,0-.5-15.4c-2.2-15.8-8.5-26.6-2.8-33.5a13.5,13.5,0,0,1,7.1-4.4l.6-.2h.4a14,14,0,0,1,8.9,1.9c1,7.6,1.4,14.4,1.6,20.2S68.5,93.7,68.3,97.4Z" style="fill:#b9e48e"/><path d="M58.7,110.3c1.5-6.3,2.3-9.6,2.1-13.5-.4-7.7-4.2-9.5-5.7-16.4-.9-4.1-1.1-10,2.4-18.1h.4a37.4,37.4,0,0,0-1.2,9.2c-.1,8.9,3.1,14.6,4.5,19.2,1.9,6.3,2.2,16-5.7,30.7A112.2,112.2,0,0,0,58.7,110.3Z" style="fill:#96b85c"/><path d="M68.3,97.4c-.8,16-4.3,20.3-5.5,21.7a24.1,24.1,0,0,1-11.5,7,60,60,0,0,0,1.8-10.3,64.5,64.5,0,0,0-.5-15.4,12.2,12.2,0,0,0,4.8,1.3A14,14,0,0,0,68.3,97.4Z" style="fill:#597d4b;opacity:0.5"/><path d="M23.2,34.8a30.2,30.2,0,0,0,9,8.8c4.4,2.6,7.6,2.7,10.5,3.9A14.9,14.9,0,0,1,47,50c.2-2.2.4-4.1-.8-6.3S42,39.7,40,39l1-.3a21.1,21.1,0,0,1,6-.9,16.8,16.8,0,0,1,9.3,2.7,17.2,17.2,0,0,1,3.4,3.2,14.7,14.7,0,0,1,.4-1.6l1.2.7a20.2,20.2,0,0,0-.7,2.3,19.7,19.7,0,0,1,3,9.1c2.1-9.8,7.5-16.4,13.2-17.9a4.7,4.7,0,0,1,1.7-.3h.8a13.7,13.7,0,0,1,7.8,3h0A36.6,36.6,0,0,1,91,42.5H89c-3,0-8.3.6-11.9,4.5s-3.8,7.7-3.8,12.4a50,50,0,0,1,12-12.9c11.4-8.3,23.9-9.3,30-9.3h.9a45,45,0,0,0-15.9,9.7c-4.9,4.6-5.5,7.6-9.5,11.6a32,32,0,0,1-2.6,2.4l-.3.3h1.5a14.2,14.2,0,0,1,4.8.8c1.7.6,2.4,1.3,4.7,1.9a16.4,16.4,0,0,0,4.5.6H106c2.8.3,6.4,3.5,10.2,16.9-4.3-5.5-8.4-7.6-11.5-8.5s-3-.2-8.9-.8a82.6,82.6,0,0,1-9.6-1.7,23.1,23.1,0,0,1,6,6.4,24.2,24.2,0,0,1,3.4,7.3,23.7,23.7,0,0,1-1.8,16.3c-.2-1.8-1.4-12.1-10.5-18.7l-1.8-1.3a27,27,0,0,0-12.7-3.8l-.7,1.1q.2,3.6.3,6.9c.1,5,.1,9.3-.1,13-.8,16-4.3,20.3-5.5,21.7a24.1,24.1,0,0,1-11.5,7,60,60,0,0,0,1.8-10.3,64.5,64.5,0,0,0-.5-15.4c-1.3-9.8-4.3-17.6-5-23.8a9.5,9.5,0,0,0-3.1,3.2c-1.5,2.3-1.2,3.9-1.7,6.7a10.3,10.3,0,0,1-.4,1.4,24.9,24.9,0,0,1-4,8.2c-2.8,3.5-6.6,6.4-10.9,7H25.8a16.3,16.3,0,0,1-7.4-2,17.3,17.3,0,0,0,7.2-4.4c2.7-3,2.8-5.9,4.8-11.9a75,75,0,0,1,2.5-7.3c1.1-3.1,2.3-5,4-6.1a6.5,6.5,0,0,1,2.2-1H37.4a12.7,12.7,0,0,1-4.3-.7l-1.5-.5c-3.4-1.4-4.4-3-8-3.6H21.7A25,25,0,0,0,14.8,67,47.1,47.1,0,0,0,3,72.2,23.2,23.2,0,0,1,5.1,68c4.5-6.8,14-11.7,23.8-11.7h.5a15.1,15.1,0,0,1,3,.2,28.9,28.9,0,0,1,7.9,2.1,31.2,31.2,0,0,1,5.9,3.7,35.9,35.9,0,0,0-10.9-10c-2.4-1.4-6.6-3.3-9.5-8a20.7,20.7,0,0,1-2.6-9.5M67.5,70.7h0v.2M23.2,31.8h-.9a3,3,0,0,0-2.1,2.9,22.1,22.1,0,0,0,3.1,11,21.1,21.1,0,0,0,7.8,7.5H28.9c-10.5,0-21.1,5.2-26.3,13A22.3,22.3,0,0,0,.2,71.2a2.9,2.9,0,0,0,.9,3.4,3.3,3.3,0,0,0,1.9.6,3.2,3.2,0,0,0,1.6-.4,39.9,39.9,0,0,1,11-4.9,25.7,25.7,0,0,1,6.1-1.2h1.4a9.2,9.2,0,0,1,3.8,1.5l3.6,1.9,1.4.5a18.8,18.8,0,0,0-1.8,3.8c-.8,2-1.6,4.5-2.6,7.4s-.9,3.2-1.3,4.4c-.9,3.2-1.3,4.8-2.9,6.5a12.4,12.4,0,0,1-5.8,3.5,3.3,3.3,0,0,0-2.1,2.6,3.2,3.2,0,0,0,1.6,2.9,18.5,18.5,0,0,0,8.8,2.4l2.1-.2c4.7-.6,9.3-3.5,12.8-8.1a26.5,26.5,0,0,0,4.6-9.2,8.5,8.5,0,0,0,.4-1.7c.2-.9.3-1.7.4-2.4v-.3c.2.9.4,1.8.7,2.8a136,136,0,0,1,2.9,13.7,67,67,0,0,1,.4,14.8,64.8,64.8,0,0,1-1.7,9.8,3.2,3.2,0,0,0,.8,2.9,3.4,3.4,0,0,0,2.1.8h.9A27.4,27.4,0,0,0,65,121.1c1.3-1.5,5.4-6.1,6.3-23.5.2-4,.2-8.5.1-13.3-.1-1.5-.1-3.1-.2-4.6a21.8,21.8,0,0,1,8.7,3.1,9.1,9.1,0,0,1,1.6,1.1,24,24,0,0,1,9.3,16.6,3.1,3.1,0,0,0,2.5,2.7h.5a2.8,2.8,0,0,0,2.7-1.7c1.7-3.5,4.2-10.5,2-18.4a25.3,25.3,0,0,0-3.8-8.2.1.1,0,0,0-.1-.1h.9c2.7.4,4.4.4,5.5.5a8.9,8.9,0,0,1,2.9.3c3.5,1,6.9,3.5,9.9,7.4a3,3,0,0,0,2.4,1.2,3.1,3.1,0,0,0,1.3-.3,3.2,3.2,0,0,0,1.6-3.5c-3.6-12.5-7.6-18.6-12.8-19.1h-2.9a11.1,11.1,0,0,1-3.7-.5l-2.5-.9-2-.9-.7-.2A36.4,36.4,0,0,0,97.3,55a39.5,39.5,0,0,1,5-6,42.9,42.9,0,0,1,14.9-9.1,2.9,2.9,0,0,0,1.9-3.3,2.9,2.9,0,0,0-2.9-2.5h-.9a55.8,55.8,0,0,0-23.4,5,34.8,34.8,0,0,0-3-2.6,16,16,0,0,0-9.6-3.6H78.2a8.5,8.5,0,0,0-2.2.4c-4.8,1.3-9.1,5.3-12.1,10.9a1.7,1.7,0,0,0,.2-.5,3,3,0,0,0-1.3-3.5l-1.2-.7a3,3,0,0,0-1.5-.5h-.6L58,38.1a18.6,18.6,0,0,0-11-3.3,27.3,27.3,0,0,0-6.8,1l-1.2.4a3,3,0,0,0,0,5.6,9.7,9.7,0,0,1,4.1,2.6l-2.6-.7A24.6,24.6,0,0,1,33.8,41a25.4,25.4,0,0,1-8.1-7.9,2.8,2.8,0,0,0-2.5-1.3Z" style="fill:#507125"/><path d="M70.5,3a21.9,21.9,0,0,1,2.9,8.2" style="fill:#e8a4d2"/><path d="M73.4,11.2a18.8,18.8,0,0,1-.1,5.9c.2-.3,2.6-4,6.3-3.9s7.4,4.2,7.1,9.7c-1.9-2.5-3.5-3-4.5-3.1-4.3-.3-7.1,6.5-14.5,15.7a46.9,46.9,0,0,1-3.3,4,3.9,3.9,0,0,1-6.8-2,56.5,56.5,0,0,1-.7-8.3c-.1-5.3.5-9.3-1.9-11.1s-4.4-.9-6.2-.3a8.4,8.4,0,0,1,6.1-3.5,8.8,8.8,0,0,1,5.2,1.5,6.5,6.5,0,0,0-1.8-3.4A6.9,6.9,0,0,0,53,10.6a8.7,8.7,0,0,1,8.3-2.1,9.2,9.2,0,0,1,5.4,5.1,16.9,16.9,0,0,0,2.4-4.3A20.1,20.1,0,0,0,70.5,3" style="fill:#e8a4d2"/><path d="M86.6,26.9c-1.8-2.5-3.4-3.1-4.4-3.1-3.2-.3-5.6,3.4-9.7,9-.1,0-.1.1-.1.2-1.4,1.9-3,4-4.9,6.3l-3.4,3.9a3.9,3.9,0,0,1-6.8-2.1,71.2,71.2,0,0,1-.5-8.4V29.3a12,12,0,0,0,0-1.9c0-2.6-.3-4.6-1.8-5.8s-4-.9-5.8-.5l-.4.2A8.4,8.4,0,0,1,55,17.9a7,7,0,0,1,2.1.1h0a11.6,11.6,0,0,1,3.1,1.4A7,7,0,0,0,58.5,16a7.2,7.2,0,0,0-5.4-1.9l1-.7h0a8.5,8.5,0,0,1,5.5-1.6h0l1.9.4a8.9,8.9,0,0,1,5.3,5.1,19.3,19.3,0,0,0,2.5-4.2,20.8,20.8,0,0,0,1.5-6.3,20.5,20.5,0,0,1,2.7,8.3,21.7,21.7,0,0,1-.1,5.8c.1-.3,2.7-4,6.3-3.8h.7C83.8,17.8,87,21.8,86.6,26.9Z" style="fill:#f4c1e6"/><path d="M69.6,28.8a5.6,5.6,0,0,1,3.9-5.3s-.9-1.4-4.4-1-3.8,2.2-4.6,3.5a12.3,12.3,0,0,0-6.8-5.6,12,12,0,0,0-8.5.7c1.8-.4,4.2-.7,5.8.5s1.8,3.1,1.8,5.7c-2.9-.7-5.4,2.7-5.4,2.7h0c.5-.2,7.4-2.8,4.7,4.1a4.9,4.9,0,0,1-.4,1.1c-1.8,6.4,2.6,9.6,2.6,9.6s5.4,2,9.4-3.5a6.7,6.7,0,0,0,1.2-2,3.1,3.1,0,0,0,.5-1c.1-.2.2-.3.2-.5a24.5,24.5,0,0,1,2.6-4.5c2.7-3.8,4.6-3.3,4.6-3.3C74.9,26.3,69.6,28.8,69.6,28.8Z" style="fill:#e8a4d2"/><path d="M70.5,3a21.9,21.9,0,0,1,2.9,8.2,17.4,17.4,0,0,1,.1,3.9h0a7.6,7.6,0,0,1,.1,1.5c.8-1,2.9-3.4,5.8-3.4h.2c3.7.1,7.4,4.2,7.1,9.7a12.7,12.7,0,0,0-1-1.2,9.9,9.9,0,0,1,.9,5.2c-1.8-2.5-3.4-3.1-4.4-3.1h-.3c-2.2,0-4,1.8-6.3,4.8a3,3,0,0,1,1.2,1.3h-.2c-.6,0-2.2.3-4.4,3.3a24.5,24.5,0,0,0-2.6,4.5c0,.2-.1.3-.2.5a3.1,3.1,0,0,1-.5,1,6.7,6.7,0,0,1-1.2,2,8.6,8.6,0,0,1-7.1,3.9,6.2,6.2,0,0,1-2.3-.4s-4.4-3.2-2.6-9.6a4.9,4.9,0,0,0,.4-1.1c1.5-3.8.1-4.7-1.6-4.7a13.5,13.5,0,0,0-3.1.6h0s2.1-2.8,4.6-2.8h.8v-.9h0v-.8a.1.1,0,0,0-.1-.1v-.7c-.1-.1-.1-.1-.1-.2s-.1-.4-.1-.6a.3.3,0,0,1-.1-.2v-.4l-.2-.3a.8.8,0,0,0-.2-.4c0-.1-.1-.2-.2-.3l-.2-.2c-.1-.2-.3-.3-.5-.5l-1.3-.7H51.4a14.6,14.6,0,0,0-2.2.3l-.4.2a8.7,8.7,0,0,1,5.9-3.4,5,5,0,0,0-2.7-.7,10.7,10.7,0,0,0-3.2.6,8.4,8.4,0,0,1,6.1-3.5h.5a6.5,6.5,0,0,0-1.8-.2h-.5l1-.7h0a8.1,8.1,0,0,1,3.7-1.5,6.8,6.8,0,0,0-4.2-1.3H53a8.4,8.4,0,0,1,5.9-2.4,9.9,9.9,0,0,1,2.4.3,9.2,9.2,0,0,1,5.4,5.1,16.9,16.9,0,0,0,2.4-4.3A20.1,20.1,0,0,0,70.5,3m0-3h-.7a3,3,0,0,0-2.3,2.7,19.3,19.3,0,0,1-1.1,5.3,10.8,10.8,0,0,0-4.2-2.4,12.6,12.6,0,0,0-3.3-.5,11.6,11.6,0,0,0-8,3.2,3,3,0,0,0-.6,3.5l.3.5A13,13,0,0,0,46.3,16a3.2,3.2,0,0,0,0,3.5h0a3,3,0,0,0,0,3.4,3,3,0,0,0,2.5,1.4l.8-.2H50l1.6-.3h1.2l.4.2h.2c.1.1.1.1.1.2h.1A11.6,11.6,0,0,0,49,28.1a3.2,3.2,0,0,0,0,3.7A3.3,3.3,0,0,0,51.4,33a2.3,2.3,0,0,0,1.1-.3h0l1-.3c0,.2-.1.3-.2.5s-.3.9-.4,1.4c-2.5,8.3,3.4,12.7,3.7,12.9l.7.4a14.7,14.7,0,0,0,3.3.5A12.2,12.2,0,0,0,70.2,43c.5-.8,1-1.6,1.4-2.4l.6-1.2h0l.2-.3a25.3,25.3,0,0,1,2.2-4.1,6,6,0,0,1,2.1-2h.1a3,3,0,0,0,2.4-1.2,3.1,3.1,0,0,0,.3-3.2c.8-.9,1.7-1.7,2.4-1.7h0c.6,0,1.5.7,2.3,1.9a3,3,0,0,0,2.4,1.2h.9a3,3,0,0,0,2.1-2.7,11.5,11.5,0,0,0-.1-3.2,2,2,0,0,0,.2-.9,13.1,13.1,0,0,0-3.3-9.6,9.5,9.5,0,0,0-6.8-3.2h-.2a9.4,9.4,0,0,0-3,.5,25.4,25.4,0,0,0-3.3-9.2A2.8,2.8,0,0,0,70.5,0ZM53.7,31.3Z" style="fill:#ac538c"/></g></g></g></g></svg>