<svg xmlns="http://www.w3.org/2000/svg" viewBox="0 0 69.2 72.7"><g style="isolation:isolate"><g id="Layer_2" data-name="Layer 2"><g id="Layer_1-2" data-name="Layer 1"><path d="M26.5,51.1a1.1,1.1,0,0,1-.7-.3,58.2,58.2,0,0,1-7.4-6.7C10.2,35.1,4.8,23.8.6,14a1.1,1.1,0,0,1,.1-1.1,1.1,1.1,0,0,1,1-.6h.4a17.1,17.1,0,0,1,6.4,4.1c3.4,3.3,5.7,7.6,7.8,11.7a121.1,121.1,0,0,1,6.5,15.3,1.4,1.4,0,0,1,0,.9l1.9,2.4c.9.7,1.8,1.5,2.7,2.1a1.2,1.2,0,0,1,.4,1.3,1.4,1.4,0,0,1-1.3.9Z" style="fill:#4a8c32"/><path d="M1.7,12.8h.2a17.1,17.1,0,0,1,6.3,3.9c3.3,3.3,5.6,7.5,7.6,11.6a147,147,0,0,1,6.6,15.3.6.6,0,0,1-.3.7l2.2,2.7,2.8,2.2c.6.5.1,1.3-.6,1.3l-.4-.2a57.2,57.2,0,0,1-7.3-6.6c-8-8.7-13.2-19.3-17.8-30a.8.8,0,0,1,.7-1m0-1a1.7,1.7,0,0,0-1.4.8,1.7,1.7,0,0,0-.2,1.5C4.3,24.1,9.8,35.4,18,44.4a59.8,59.8,0,0,0,7.5,6.8,2.1,2.1,0,0,0,1,.4,2.1,2.1,0,0,0,1.8-1.3,1.7,1.7,0,0,0-.6-1.8c-.9-.6-1.7-1.3-2.7-2.1l-1.7-2a1.7,1.7,0,0,0,0-1A132.1,132.1,0,0,0,16.7,28,42.2,42.2,0,0,0,8.9,16.1a18.9,18.9,0,0,0-6.7-4.2Z" style="fill:#2e5b1d"/><path d="M40.2,33.3h-.6A33.3,33.3,0,0,1,34,29.6a.9.9,0,0,1-.7.3,1.2,1.2,0,0,1-.8-.4A53.4,53.4,0,0,1,19.6,1.8a1.6,1.6,0,0,1,.3-.9,1.5,1.5,0,0,1,.9-.4,1.6,1.6,0,0,1,.9.3A65.6,65.6,0,0,1,41.4,31.7a1.2,1.2,0,0,1-1.2,1.6Z" style="fill:#4a8c32"/><path d="M20.8,1l.5.2A63.1,63.1,0,0,1,40.9,31.9a.7.7,0,0,1-.7.9h-.3A25.9,25.9,0,0,1,34,28.9c-.2.3-.4.5-.7.5a.5.5,0,0,1-.4-.3A52,52,0,0,1,20.1,1.7c-.1-.4.3-.7.7-.7m0-1a1.6,1.6,0,0,0-1.3.6,1.8,1.8,0,0,0-.4,1.3,53.1,53.1,0,0,0,13,27.9,1.7,1.7,0,0,0,1.2.6l.7-.2a25.7,25.7,0,0,0,5.4,3.4l.8.2a2.1,2.1,0,0,0,1.4-.7,1.6,1.6,0,0,0,.2-1.5A65.4,65.4,0,0,0,22,.4,1.6,1.6,0,0,0,20.8,0Z" style="fill:#2e5b1d"/><path d="M22.4,43.7a147,147,0,0,0-6.6-15.3c-2-4.1-4.3-8.3-7.6-11.6a17.1,17.1,0,0,0-6.3-3.9.7.7,0,0,0-.9.9c4.6,10.7,9.8,21.3,17.8,30a57.2,57.2,0,0,0,7.3,6.6c.7.5,1.7-.5,1-1.1l-2.8-2.2-2.2-2.7A.6.6,0,0,0,22.4,43.7Z" style="fill:#4a8c32"/><path d="M21.3,1.2c-.4-.4-1.3-.1-1.2.5A52,52,0,0,0,32.9,29.1c.4.5.9.2,1.1-.2a25.9,25.9,0,0,0,5.9,3.8.7.7,0,0,0,1-.8A63.1,63.1,0,0,0,21.3,1.2Z" style="fill:#4a8c32"/><path d="M38.7,60.1a15.8,15.8,0,0,1-4.7-.7h-.5a1.1,1.1,0,0,1-.8-.3A71.7,71.7,0,0,1,20.9,46.5a90.8,90.8,0,0,1-13.4-28,48.7,48.7,0,0,1-1.8-7.3,10.4,10.4,0,0,1,.7-6.7A6.4,6.4,0,0,1,11.5,1h.3c2.1,0,3.9,1.2,5.5,2.5A108.3,108.3,0,0,1,30.8,15.7c8,8.7,13.3,17.9,15.8,27.4,1,3.7,2.5,9.4-.3,13.5-1.6,2.3-4.2,3.5-7.6,3.5Z" style="fill:#fcd54d"/><path d="M11.8,1.5c2,0,3.7,1.2,5.2,2.4A103.2,103.2,0,0,1,30.4,16.1c7.2,7.7,13,16.8,15.7,27.1,1.1,4,2.4,9.3-.2,13.1a8.4,8.4,0,0,1-7.2,3.3,17.8,17.8,0,0,1-4.7-.7H33A78,78,0,0,1,21.3,46.2,88,88,0,0,1,8,18.4a63.1,63.1,0,0,1-1.8-7.2,9.4,9.4,0,0,1,.7-6.4,5.7,5.7,0,0,1,4.6-3.3h.3m0-1h-.4A6.8,6.8,0,0,0,6,4.3a10.6,10.6,0,0,0-.8,7A48.7,48.7,0,0,0,7,18.6,89.4,89.4,0,0,0,20.5,46.7,69.9,69.9,0,0,0,32.4,59.6a1.5,1.5,0,0,0,1.1.4H34a19.5,19.5,0,0,0,4.7.6c3.6,0,6.4-1.3,8-3.7,3-4.3,1.4-10.1.4-14-2.5-9.5-7.9-18.7-15.9-27.5A102.5,102.5,0,0,0,17.6,3.1C15.9,1.8,14.1.5,11.8.5Z" style="fill:#ff8d3d"/><path d="M9.7,6.7c0,.1.1.2.3.2a3.5,3.5,0,0,0,3-.5,4.3,4.3,0,0,0,1.2-1.1,1.7,1.7,0,0,0,.1-1.8c-.6-1-2-.9-3-.7s-2.7.7-2.9,2.1a1.5,1.5,0,0,0,.7,1.6Z" style="fill:#ff994c;opacity:0.4;mix-blend-mode:multiply"/><path d="M12.9,12.4H14l1.2-.2a4.3,4.3,0,0,0,3.3-2.4,2.5,2.5,0,0,0-1.4-3.1,3.8,3.8,0,0,0-4,1.1,5.5,5.5,0,0,0-1.5,1.9,1.7,1.7,0,0,0,.2,1.7A1.2,1.2,0,0,0,12.9,12.4Z" style="fill:#ff994c;opacity:0.4;mix-blend-mode:multiply"/><path d="M13.5,16.2a3.8,3.8,0,0,0,.3,1.8,2.5,2.5,0,0,0,2.3.8,7.6,7.6,0,0,0,2.6-.6,15.7,15.7,0,0,0,2.5-1.4,2.5,2.5,0,0,0,.9-2.2A3,3,0,0,0,21,12.2c-1.5-1.2-3.7-.6-5.4.1a3.8,3.8,0,0,0-2.3,1.8A3.8,3.8,0,0,0,13.5,16.2Z" style="fill:#ff994c;opacity:0.4;mix-blend-mode:multiply"/><g style="opacity:0.4;mix-blend-mode:multiply"><path d="M21.1,25.1,23.5,24a4.2,4.2,0,0,0,2.2-4,2.8,2.8,0,0,0-3.1-2.3,11.8,11.8,0,0,0-2.7.6A8.1,8.1,0,0,0,17.1,20a.4.4,0,0,0,0,.5c-.5,1.5.6,2.9,1.8,3.8A2.4,2.4,0,0,0,21.1,25.1Z" style="fill:#ff994c"/></g><path d="M23.6,30.5a10,10,0,0,0,2.4-.4A7.6,7.6,0,0,0,28.2,29a2.8,2.8,0,0,0,1.2-2.1,4.8,4.8,0,0,0-.6-2.4,2.4,2.4,0,0,0-2.1-1.1,5.7,5.7,0,0,0-2.5.8c-1.4.8-2.9,1.8-3,3.5h0A2.6,2.6,0,0,0,23.6,30.5Z" style="fill:#ff994c;opacity:0.4;mix-blend-mode:multiply"/><path d="M27.3,30.2l-1.5.8a3.2,3.2,0,0,0-1.2.8A2,2,0,0,0,24,33a.3.3,0,0,0,0,.4,6.2,6.2,0,0,0,1.1,2.5,2.5,2.5,0,0,0,2.2.7A8.2,8.2,0,0,0,32,34.7a3.9,3.9,0,0,0,.8-1,2.4,2.4,0,0,0,0-1.2A4.9,4.9,0,0,0,31.6,30C30.3,28.7,28.7,29.5,27.3,30.2Z" style="fill:#ff994c;opacity:0.4;mix-blend-mode:multiply"/><path d="M29.2,42.3a2,2,0,0,0,2.1.5l2.5-1.1A5.9,5.9,0,0,0,36,40.5a2,2,0,0,0,.3-2.1,4.7,4.7,0,0,0-1.1-2.1c-1.2-1.4-3-.8-4.4-.1A7.6,7.6,0,0,0,28.3,38a2.3,2.3,0,0,0-.2,2.5h.1A3.7,3.7,0,0,0,29.2,42.3Z" style="fill:#ff994c;opacity:0.4;mix-blend-mode:multiply"/><path d="M33.7,49a4.3,4.3,0,0,0,2.5-.3,8.2,8.2,0,0,0,2-1.2,3.3,3.3,0,0,0,1.4-1.7,2.9,2.9,0,0,0-.4-2.4,3.5,3.5,0,0,0-1.8-1.6,2.9,2.9,0,0,0-2.4.6c-1.5.7-4.1,1.7-3.7,3.7A3.2,3.2,0,0,0,33.7,49Z" style="fill:#ff994c;opacity:0.4;mix-blend-mode:multiply"/><path d="M40.4,47.4a6.6,6.6,0,0,0-2.7.9,6.3,6.3,0,0,0-2.8,2,2.3,2.3,0,0,0-.3,1.1.6.6,0,0,0-.1.4,3.5,3.5,0,0,0,.6,1.4A5.8,5.8,0,0,0,37.4,55a4.2,4.2,0,0,0,2.7.1,4.6,4.6,0,0,0,2.3-1.8,3.9,3.9,0,0,0,.3-4.9A2.6,2.6,0,0,0,40.4,47.4Z" style="fill:#ff994c;opacity:0.4;mix-blend-mode:multiply"/><path d="M15.4,6a2,2,0,0,0,.8.4h.7a1.8,1.8,0,0,0,1-.2A.9.9,0,0,0,18,5.2a1,1,0,0,0-.4-.5l-.4-.2h-.1c0-.1,0-.1-.1-.1h-.2a.6.6,0,0,0-.6-.4q-.3.1-.3.3h-.1A1.3,1.3,0,0,0,15,5.2,2,2,0,0,0,15.4,6Zm1.5-1.9Z" style="fill:#ff994c;opacity:0.4;mix-blend-mode:multiply"/><path d="M17.1,4.4h0C17,4.3,17.1,4.3,17.1,4.4Z" style="fill:#ff994c;opacity:0.4;mix-blend-mode:multiply"/><path d="M19.2,10.1a1.7,1.7,0,0,0,1.6,1.6,1.9,1.9,0,0,0,1.9-.7,1.7,1.7,0,0,0,.2-2,1.7,1.7,0,0,0-2.2-.6h-.4C19.7,8.9,19.1,9.4,19.2,10.1Z" style="fill:#ff994c;opacity:0.4;mix-blend-mode:multiply"/><path d="M23.9,12.6a.4.4,0,0,0-.1.3c-.7.8-1.5,1.7-1.3,2.8a1.8,1.8,0,0,0,.8,1.4,2.2,2.2,0,0,0,1.4.3l1.5-.4a3.8,3.8,0,0,0,1.5-.9,2.3,2.3,0,0,0,.3-1.6,3.6,3.6,0,0,0-1-1.4,2.5,2.5,0,0,0-1.5-1A1.4,1.4,0,0,0,23.9,12.6Z" style="fill:#ff994c;opacity:0.4;mix-blend-mode:multiply"/><path d="M29,17.5A3.7,3.7,0,0,0,26.2,20a2.2,2.2,0,0,0,1.4,2.9,3.6,3.6,0,0,0,3.8-.8,2.7,2.7,0,0,0,.8-.7l.8-.8c.2-.6-.3-1.3-.5-1.8A5.7,5.7,0,0,0,31,17.2C30.4,16.9,29.4,16.8,29,17.5Z" style="fill:#ff994c;opacity:0.4;mix-blend-mode:multiply"/><path d="M32.5,22.5c-1.2.5-2.8,1.4-3.1,2.9a.7.7,0,0,0,.4.5,2.5,2.5,0,0,0,.2,1.2,2.4,2.4,0,0,0,1.5,1.3c1.5.5,3-.4,4.1-1.3a3.6,3.6,0,0,0,1.1-1.6,2.8,2.8,0,0,0-.7-2.1,3.4,3.4,0,0,0-1.6-1.3A3.1,3.1,0,0,0,32.5,22.5Z" style="fill:#ff994c;opacity:0.4;mix-blend-mode:multiply"/><path d="M39.2,27.9a2.3,2.3,0,0,0-1.8-.3,8.2,8.2,0,0,0-4.2,2,.3.3,0,0,0-.1.5v.2c.5,1.2.9,2.6,2.2,3.1a3.1,3.1,0,0,0,3.3-.6,4.1,4.1,0,0,0,1.2-3.2A2.2,2.2,0,0,0,39.2,27.9Z" style="fill:#ff994c;opacity:0.4;mix-blend-mode:multiply"/><path d="M39.4,41.4a3,3,0,0,0,2.1-.1,4.4,4.4,0,0,0,2-1.3,2.2,2.2,0,0,0-.1-2.1,9.2,9.2,0,0,0-.9-2.3c-.4-.6-.8-1.3-1.6-1.4a3.5,3.5,0,0,0-2,.5,4,4,0,0,0-1.7,1.7,2.4,2.4,0,0,0,.1,2.2l.2.2a3.6,3.6,0,0,0,.4.9A4,4,0,0,0,39.4,41.4Z" style="fill:#ff994c;opacity:0.4;mix-blend-mode:multiply"/><path d="M44.2,40.7a4.6,4.6,0,0,0-2.3.6,3.3,3.3,0,0,0-1.1,1.5.1.1,0,0,0-.1.1,2.5,2.5,0,0,0,.2,1.9A3.9,3.9,0,0,0,42,46.3c1,1,2.4.6,3.6.1a2.4,2.4,0,0,0,1.5-1.3,2.8,2.8,0,0,0,0-2,3,3,0,0,0-.4-1,2.3,2.3,0,0,0-.5-1A2.9,2.9,0,0,0,44.2,40.7Z" style="fill:#ff994c;opacity:0.4;mix-blend-mode:multiply"/><path d="M30.3,48.2a3.3,3.3,0,0,0-1.3.4,2.9,2.9,0,0,0-1.3.8,2,2,0,0,0,.1,1.7,4.8,4.8,0,0,0,.8,1.8.5.5,0,0,0,.8-.1l.8.3v.4a.7.7,0,0,0,.6.3,3.6,3.6,0,0,0,2.7-1.5,2,2,0,0,0-.1-1.5,9.4,9.4,0,0,0-.6-1.5A2.5,2.5,0,0,0,30.3,48.2Z" style="fill:#ff994c;opacity:0.4;mix-blend-mode:multiply"/><path d="M28.5,46.9a3.1,3.1,0,0,0,.9-.7,2.6,2.6,0,0,0,0-2.1,5.9,5.9,0,0,0-1.2-2.2,4,4,0,0,0-4.2-.7,3.4,3.4,0,0,0-2.2,3.4,4.9,4.9,0,0,0,.8,2.1,3.6,3.6,0,0,0,.7,1,1.3,1.3,0,0,0,.9.7c0,.1.1,0,.2,0s.2.2.4.1l2.5-.9Z" style="fill:#ff994c;opacity:0.4;mix-blend-mode:multiply"/><path d="M19.8,41.5H20a6,6,0,0,0,4.5-2.3.5.5,0,0,0,0-.7h0a20,20,0,0,0-.4-2.4A4.6,4.6,0,0,0,23,33.9c-1.2-1.2-3.1-.8-4.3.3a4.8,4.8,0,0,0-1.5,4.3,4.8,4.8,0,0,0,.7,2.3,1.7,1.7,0,0,0,1,.6c.1.2.4.4.6.2Z" style="fill:#ff994c;opacity:0.4;mix-blend-mode:multiply"/><path d="M18.1,33.4a4.8,4.8,0,0,1,.9-1.1,4.8,4.8,0,0,1,1.1-.9,2.4,2.4,0,0,0,.6-2.3A5.1,5.1,0,0,0,19,26.7a1.5,1.5,0,0,0-1.1-.6,2,2,0,0,0-1.3.4L14,27.8a2.1,2.1,0,0,0-.8,1.9c0,.1-.1.2-.1.3.1,1.7.8,3.7,2.7,4.1A2.7,2.7,0,0,0,18.1,33.4Z" style="fill:#ff994c;opacity:0.4;mix-blend-mode:multiply"/><path d="M14.4,24.3c.1-.1.2-.2.2-.3l.9-.4a1.3,1.3,0,0,0,.7-1.2,5.7,5.7,0,0,0-.4-1.4,3.8,3.8,0,0,0-1.7-2.4,3.1,3.1,0,0,0-2.5-.3l-1.2.5c-.4.2-.9.4-1,.9a2.2,2.2,0,0,0-.1,1.4,8.8,8.8,0,0,0,.5,1.5c.4,1,.9,2.3,2,2.5A3.8,3.8,0,0,0,14.4,24.3Z" style="fill:#ff994c;opacity:0.4;mix-blend-mode:multiply"/><path d="M9.2,17.2a6.4,6.4,0,0,0,1.8-.6,2.2,2.2,0,0,0,.9-1.2c0-.1.1-.1.1-.2h0c0-.1,0-.2-.1-.2a6.4,6.4,0,0,0-1.4-3.5,1.6,1.6,0,0,0-1.6-.7,1.9,1.9,0,0,0-1.4.8A4,4,0,0,0,7,14.9a3.5,3.5,0,0,0,.6,1.7A1.7,1.7,0,0,0,9.2,17.2Z" style="fill:#ff994c;opacity:0.4;mix-blend-mode:multiply"/><path d="M9.2,10.1a1.5,1.5,0,0,0,1.5-1,1.3,1.3,0,0,0-.5-1.4,5.4,5.4,0,0,0-1.9-.8.6.6,0,0,0-.6.4s.1,0,0,.1a.1.1,0,0,0-.1-.1c-.3-.1-.6.1-.6.3a2.3,2.3,0,0,0,.5,1.8A2.2,2.2,0,0,0,9.2,10.1Z" style="fill:#ff994c;opacity:0.4;mix-blend-mode:multiply"/><path d="M41.2,19.7h.3l1.3,1a58.2,58.2,0,0,1,6.3,4.8,55.7,55.7,0,0,1,9.6,12c2.4,4,4.8,8.5,9.2,10.8h0c0,.1,0,.1.1.1a.7.7,0,0,1,.2.7.6.6,0,0,1-.5.6h-.4a20.4,20.4,0,0,1-8.7-2.2,43.8,43.8,0,0,1-6.4-3.4,66.2,66.2,0,0,1,1.1,7.4c.3,3.5.6,7.2-.3,10.6a11.9,11.9,0,0,1-.8,2,.7.7,0,0,1-.4.7,6.4,6.4,0,0,1-1,1.3h.1A11.8,11.8,0,0,0,52,68.2c.3.6.7,1.2.4,1.8A3.6,3.6,0,0,1,50,71.6h-.4a1.7,1.7,0,0,1-1-.3,4.1,4.1,0,0,1-1.2-1.7,8.3,8.3,0,0,1-.7-1.3,13,13,0,0,1-3.4.8l-1.6.2c-6.3,0-11.5-4.8-15.3-9.5a102.3,102.3,0,0,1-7.5-10.7c-1.3,4-1.1,8.4-.5,12.5.1.5-.4.8-.8.8l-.4-.2c-2.1-2.1-2.7-5.2-3.5-8s-1.4-5-1.8-7.6a19.6,19.6,0,0,1,.3-6.8c.2-.8.3-2.3,1.1-2.8H14a8.4,8.4,0,0,1,2.4.7,15.2,15.2,0,0,1,5.7,3.7c.3.3,1,.7,1.1,1.2,4,3.6,7.6,7.8,12.8,9.7,1.9.7,3.9,1.3,5.8,2.1H42l.5.3.6.3a51.6,51.6,0,0,0,.9-5.2c.2-3.6-1.2-6.7-2.8-9.8A49.6,49.6,0,0,1,39,35.3a7.9,7.9,0,0,1-1-2.7,16.7,16.7,0,0,1,2.5-12.5,1,1,0,0,1,.7-.4m0-1a1.8,1.8,0,0,0-1.5.8A17.6,17.6,0,0,0,37,32.8a10.2,10.2,0,0,0,1.1,2.9,35.5,35.5,0,0,0,2.1,4.4v.3c1.6,3,2.9,6,2.7,9.3-.1,1.3-.4,2.5-.6,3.8H42c-1.1-.5-2.2-.8-3.3-1.2l-2.4-.8c-3.8-1.5-6.8-4.2-9.9-7.1A26.6,26.6,0,0,0,24,42a4,4,0,0,0-1-1.2.2.2,0,0,1-.2-.2,16.3,16.3,0,0,0-6.1-3.8l-.4-.2A6,6,0,0,0,14,36l-1.1.2c-1.1.6-1.4,2.1-1.6,3.1s0,.3-.1.4a21.8,21.8,0,0,0-.3,7.2,45.8,45.8,0,0,0,1.5,6.4c.1.4.3.8.4,1.3l.3,1.1c.6,2.6,1.3,5.3,3.4,7.3a1.6,1.6,0,0,0,1.1.5,1.7,1.7,0,0,0,1.4-.7,1.4,1.4,0,0,0,.4-1.2,30,30,0,0,1-.1-9.9,98.8,98.8,0,0,0,6.3,8.8c5.4,6.6,10.7,9.9,16.1,9.9l1.8-.2a13.1,13.1,0,0,0,2.7-.6h0l.3.6.2.3A3.9,3.9,0,0,0,48,72.2a3,3,0,0,0,1.6.5h.6a4.5,4.5,0,0,0,3.1-2.1,2.5,2.5,0,0,0-.4-2.6v-.2l-.3-.6-.5-.8.6-.7a2.4,2.4,0,0,0,.6-1.1,18,18,0,0,0,.8-2.1c.9-3.5.6-7.4.3-10.8-.2-1.8-.4-3.6-.7-5.4l4.6,2.4a22.3,22.3,0,0,0,9.1,2.2h.6a1.7,1.7,0,0,0,1.3-1.4,1.8,1.8,0,0,0-.6-1.7h-.2c-3.8-2-6.1-5.9-8.3-9.6l-.6-1a56.6,56.6,0,0,0-9.7-12.1A63.5,63.5,0,0,0,43.4,20l-1.3-1-.9-.3Z" style="fill:#2e5b1d"/><path d="M41.6,20.4a.8.8,0,0,0-1.3,0c-1.4,3.1-2.7,6.5-2.5,9.9s1.9,6.6,3.4,9.7,3,6.2,2.8,9.8-1.6,6.6-1.2,9.9,1.8,6.2,4.8,7l-1.1.2c-.9.1-.8,1.5.1,1.4,3.3-.3,5.6-3.1,6.4-6.1s.6-7.1.3-10.6a62.3,62.3,0,0,0-5.5-20.7A58,58,0,0,0,41.6,20.4Z" style="fill:#4a8c32"/><path d="M45.6,56.4c-2.9-2.1-6.3-2.9-9.6-4.1-5.7-2.1-9.4-6.9-13.9-10.6a18.6,18.6,0,0,0-8.3-4.4c-.7-.2-1,.5-.8,1A106.8,106.8,0,0,0,26.4,59.9c4.2,5.1,9.8,10.3,16.9,9.3a13,13,0,0,0,3.4-.8l.7,1.3a4.1,4.1,0,0,0,1.2,1.7,1.7,1.7,0,0,0,1.4.2A3.6,3.6,0,0,0,52.4,70c.3-.6-.1-1.2-.4-1.8a11.8,11.8,0,0,1-1.1-1.9l-.5-.7.6-.8c.5.6,1.5-.1,1.1-.9A19.6,19.6,0,0,0,45.6,56.4Z" style="fill:#4a8c32"/><path d="M22.1,41.4a15.2,15.2,0,0,0-5.7-3.7c-.8-.3-2.2-1-3.1-.6s-.9,2-1.1,2.8a19.6,19.6,0,0,0-.3,6.8c.4,2.6,1.2,5.1,1.8,7.6s1.4,5.9,3.5,8a.7.7,0,0,0,1.2-.6c-.7-4.3-.8-8.9.7-13a11.1,11.1,0,0,1,1.8-3.4l1-1.1.6-.5c.1-.1.4-.2.5-.4S22.6,41.8,22.1,41.4Z" style="fill:#96b85c"/><path d="M68,48.5c-.1,0-.1,0-.1-.1h0c-4.4-2.3-6.8-6.8-9.2-10.8a55.7,55.7,0,0,0-9.6-12,58.2,58.2,0,0,0-6.3-4.8l-1.3-1a.8.8,0,0,0-1,.3A16.7,16.7,0,0,0,38,32.6a7.1,7.1,0,0,0,3.9,5.3h.2a21.1,21.1,0,0,0,4,2.6l4.7,2.8a72.9,72.9,0,0,0,7.8,4.2,21.3,21.3,0,0,0,8.9,2.2h.2a.6.6,0,0,0,.5-.6A.7.7,0,0,0,68,48.5Z" style="fill:#96b85c"/><path d="M42,54.4c-.3-.1-.5.3-.2.4,4.1,2.5,6.4,7,8.9,10.9.1.2.4,0,.4-.1C49.1,60.8,46.6,56.8,42,54.4Z" style="fill:#96b85c"/></g></g></g></svg>