<svg xmlns="http://www.w3.org/2000/svg" xmlns:xlink="http://www.w3.org/1999/xlink" viewBox="0 0 338 145.3"><defs><clipPath id="clip-path"><ellipse cx="169" cy="39.8" rx="125.9" ry="30.4" style="fill:none"/></clipPath></defs><g id="Layer_2" data-name="Layer 2"><g id="Layer_1-2" data-name="Layer 1"><path d="M139.2,101.5c-8.2,0-14.8-5.9-14.8-13.1V27.3c0-7.2,6.6-13.1,14.8-13.1h1.5a1.5,1.5,0,0,1,1.5,1.5,1.5,1.5,0,0,1-1.5,1.5c-3.3,0-6,2.3-6,5V87.8c0,2.7,2.7,4.9,6,4.9l56.7.3c3.2,0,5.9-2.2,5.9-4.9V22.2c0-2.7-2.7-5-5.9-5a1.4,1.4,0,0,1-1.5-1.5,1.5,1.5,0,0,1,1.5-1.5h1.4c8.2,0,14.8,5.9,14.8,13.1V88.7c0,7.2-6.6,13.1-14.8,13.1Z" style="fill:#ffaa5a"/><path d="M198.8,15.7c7.4,0,13.3,5.2,13.3,11.6V88.7c0,6.4-5.9,11.6-13.3,11.6l-59.6-.3c-7.3,0-13.3-5.2-13.3-11.6V27.3c0-6.4,6-11.6,13.3-11.6h1.5c-4.1,0-7.5,2.9-7.5,6.5V87.8c0,3.5,3.4,6.4,7.5,6.4l56.7.3c4.1,0,7.4-2.9,7.4-6.4V22.2c0-3.6-3.3-6.5-7.4-6.5h1.4m0-3h-1.4a3,3,0,0,0-3,3,2.9,2.9,0,0,0,3,3c2.4,0,4.4,1.6,4.4,3.5V88.1c0,1.8-2,3.4-4.4,3.4l-56.7-.3c-2.4,0-4.5-1.6-4.5-3.4V22.2c0-1.9,2.1-3.5,4.5-3.5a3,3,0,0,0,3-3,3.1,3.1,0,0,0-3-3h-1.5c-9,0-16.3,6.6-16.3,14.6V88.4c0,8.1,7.3,14.6,16.3,14.6l59.6.3c9,0,16.3-6.5,16.3-14.6V27.3c0-8-7.3-14.6-16.3-14.6Z" style="fill:#e57225"/><path d="M87.9,143.8h-.4L35.6,131.3c-10.5-2.7-12.7-8.6-12.7-13V57.1A13.1,13.1,0,0,1,36,44.1h1.2a1.4,1.4,0,0,1,1.5,1.5,1.5,1.5,0,0,1-1.5,1.5A4.9,4.9,0,0,0,32.3,52v65.6c0,1.6.5,3.8,5.3,5L86.8,135a5,5,0,0,0,4.8-4.9V52a5,5,0,0,0-5-4.9,1.5,1.5,0,0,1-1.5-1.5,1.5,1.5,0,0,1,1.5-1.5h1.3a13,13,0,0,1,13,13v73.7A13,13,0,0,1,87.9,143.8Z" style="fill:#ffaa5a"/><path d="M87.9,45.6A11.4,11.4,0,0,1,99.4,57.1v73.7a11.5,11.5,0,0,1-11.5,11.5L36,129.8c-6.6-1.7-11.6-5.2-11.6-11.5V57.1A11.5,11.5,0,0,1,36,45.6h1.2A6.4,6.4,0,0,0,30.8,52v65.6c0,3.6,2.6,5.5,6.4,6.4l49.4,12.5a6.4,6.4,0,0,0,6.5-6.4V52a6.5,6.5,0,0,0-6.5-6.4h1.3m0-3H86.6a3,3,0,0,0-3,3,3.1,3.1,0,0,0,3,3A3.5,3.5,0,0,1,90.1,52v78.1a3.4,3.4,0,0,1-3.2,3.4L38,121.1c-4.2-1-4.2-2.7-4.2-3.5V52a3.4,3.4,0,0,1,3.4-3.4,3,3,0,0,0,3-3,2.9,2.9,0,0,0-3-3H36A14.5,14.5,0,0,0,21.4,57.1v61.2c0,4,1.8,11.4,13.8,14.4l52,12.5h.7a14.5,14.5,0,0,0,14.5-14.5V57.1A14.5,14.5,0,0,0,87.9,42.6Z" style="fill:#e57225"/><path d="M250.2,143.8a13,13,0,0,1-13.1-13V57.1a13,13,0,0,1,13.1-13h1.2a1.5,1.5,0,0,1,1.5,1.5,1.5,1.5,0,0,1-1.5,1.5,4.9,4.9,0,0,0-4.9,4.9v78.1a4.9,4.9,0,0,0,4.7,4.9l49.1-12.4c4.4-1.7,5.4-2.6,5.4-5V52a4.9,4.9,0,0,0-4.9-4.9,1.5,1.5,0,0,1-1.5-1.5,1.5,1.5,0,0,1,1.5-1.5h1.3a13,13,0,0,1,13,13v61.2c0,4.2-2.2,9.9-12.6,13l-52,12.5Z" style="fill:#ffaa5a"/><path d="M302.1,45.6a11.5,11.5,0,0,1,11.5,11.5v61.2c0,6.3-5.4,9.7-11.5,11.5l-51.9,12.5a11.6,11.6,0,0,1-11.6-11.5V57.1a11.5,11.5,0,0,1,11.6-11.5h1.2A6.4,6.4,0,0,0,245,52v78.1a6.4,6.4,0,0,0,6.4,6.4L300.8,124c4.3-1.6,6.4-2.8,6.4-6.4V52a6.4,6.4,0,0,0-6.4-6.4h1.3m0-3h-1.3a2.9,2.9,0,0,0-3,3,3,3,0,0,0,3,3,3.4,3.4,0,0,1,3.4,3.4v65.6c0,1.3,0,1.9-4.3,3.6l-48.8,12.3a3.3,3.3,0,0,1-3.1-3.4V52a3.4,3.4,0,0,1,3.4-3.4,3,3,0,0,0,3-3,2.9,2.9,0,0,0-3-3h-1.2a14.5,14.5,0,0,0-14.6,14.5v73.7a14.5,14.5,0,0,0,14.6,14.5h.7l51.9-12.5h.1c11.3-3.3,13.7-9.7,13.7-14.4V57.1a14.5,14.5,0,0,0-14.5-14.5Z" style="fill:#e57225"/><path d="M169,91.8C75.1,91.8,1.5,73.4,1.5,49.9V43.3C3.4,17.2,92.9,7.9,169,7.9s166.3,9.3,167.5,35.5v6.5C336.5,73.4,262.9,91.8,169,91.8Z" style="fill:#ffaa5a"/><path d="M169,9.4c91.1,0,165,11.9,166,34.1v6.4c0,22.3-74.3,40.4-166,40.4S3,72.2,3,49.9V43.5C4.6,21.5,78.3,9.4,169,9.4m0-3c-45.8,0-87.3,3.1-116.9,8.8C18.4,21.7.9,31.1,0,43.2v6.7C0,65.7,27.7,75.7,50.9,81.4,82.5,89.1,124.4,93.3,169,93.3s86.5-4.2,118.1-11.9C310.3,75.7,338,65.7,338,49.9V43.3c-.5-12.2-17.9-21.7-51.6-28.1C256.8,9.5,215.1,6.4,169,6.4Z" style="fill:#e57225"/><path d="M169,85.4C75.1,85.4,1.5,67,1.5,43.5S75.1,1.5,169,1.5s167.5,18.4,167.5,42S262.9,85.4,169,85.4Z" style="fill:#ffeb81"/><path d="M169,3c91.7,0,166,18.1,166,40.5S260.7,83.9,169,83.9,3,65.8,3,43.5,77.3,3,169,3m0-3C124.4,0,82.5,4.2,50.9,11.9,27.7,17.6,0,27.7,0,43.5S27.7,69.3,50.9,75C82.5,82.7,124.4,86.9,169,86.9S255.5,82.7,287.1,75C310.3,69.3,338,59.2,338,43.5s-27.7-25.9-50.9-31.6C255.5,4.2,213.6,0,169,0Z" style="fill:#ffaa5a"/><g style="clip-path:url(#clip-path)"><ellipse cx="169" cy="39.8" rx="125.9" ry="30.4" style="fill:#feb6d2"/><ellipse cx="169" cy="39.8" rx="109.4" ry="26.4" style="fill:#f9e4e4"/></g><path d="M169,9.4C99.5,9.4,43.2,23,43.2,39.8c0,2.5,1.2,4.9,3.6,7.3a8.1,8.1,0,0,1-.9-3.7C45.9,26.7,101,13.1,169,13.1S292.1,26.7,292.1,43.4a9.5,9.5,0,0,1-.8,3.7c2.3-2.4,3.6-4.8,3.6-7.3C294.9,23,238.5,9.4,169,9.4Z" style="fill:#ffaa5a"/><path d="M189.2,50c0,7-9.1,6.9-20.2,6.9s-20.1.1-20.1-6.9c0-3.9,2.6-8.1,6.9-11.1a23.5,23.5,0,0,1,9.7-4c-.4-4.9-3-8.7-6.1-8.7a4.7,4.7,0,0,0-3.4,1.7c1.3-3.1,3.5-5.2,5.9-5.2,3.9,0,7.1,5.2,7.1,11.6v.3h0v-.3c0-6.4,3.2-11.6,7.1-11.6s4.6,2.1,5.8,5.2a4.4,4.4,0,0,0-3.4-1.7c-3.1,0-5.6,3.8-6.1,8.7a22.6,22.6,0,0,1,9.8,4C186.5,41.9,189.2,46.1,189.2,50Z" style="fill:#f9e4e4"/><path d="M182.2,38.2a.8.8,0,0,1-.7-.2,22.9,22.9,0,0,0-9.3-3.8c-.5,0-.8-.3-.8-.6.5-5.5,3.4-9.3,7.1-9.3a5.9,5.9,0,0,1,4.3,2c0,.1.1.1.1.2a17.1,17.1,0,0,1,1.2,6.5,10.8,10.8,0,0,1-.9,4.8.9.9,0,0,1-.8.4Z" style="fill:#f9e4e4"/><path d="M178.5,25a4.6,4.6,0,0,1,3.4,1.6,16.6,16.6,0,0,1,1.2,6.4,9.4,9.4,0,0,1-.9,4.6,23.9,23.9,0,0,0-9.8-4c.5-4.9,3-8.6,6.1-8.6m0-1.3c-5,0-7.6,5-8.1,9.9,0,.6.6,1.1,1.5,1.3a19.9,19.9,0,0,1,8.8,3.5,2.7,2.7,0,0,0,1.5.5h.4a2.1,2.1,0,0,0,1.5-.9,10.3,10.3,0,0,0,1-5,18.1,18.1,0,0,0-1.2-6.7l-.2-.3a7,7,0,0,0-5.2-2.3Z" style="fill:#fc97b8"/><path d="M155.8,38.3h-.2c-.4-.1-.7-.2-.8-.4a11.3,11.3,0,0,1-.9-4.9,17.1,17.1,0,0,1,1.2-6.5c0-.1,0-.1.1-.2a5.8,5.8,0,0,1,4.2-2c3.7,0,6.7,3.9,7.1,9.3.1.3-.2.6-.7.6a22.5,22.5,0,0,0-9.3,3.9Z" style="fill:#f9e4e4"/><path d="M159.4,25c3.1,0,5.7,3.7,6.1,8.6a22.3,22.3,0,0,0-9.7,4.1,9.8,9.8,0,0,1-.9-4.7,18.7,18.7,0,0,1,1.1-6.4,4.9,4.9,0,0,1,3.4-1.6m0-1.3a6.9,6.9,0,0,0-5.1,2.3c-.1.1-.2.2-.2.3a18.2,18.2,0,0,0-1.3,6.7,10.7,10.7,0,0,0,1.1,5.1,2,2,0,0,0,1.5.8h.4a2.6,2.6,0,0,0,1.5-.4,20.2,20.2,0,0,1,8.7-3.6c1-.2,1.6-.7,1.5-1.3-.4-4.9-3.1-9.9-8.1-9.9Z" style="fill:#fc97b8"/><path d="M166.9,50.7c0-.7.9-.7,2.1-.7s2.2,0,2.2.7a2.1,2.1,0,0,1-2.2,1.7A2,2,0,0,1,166.9,50.7Z" style="fill:#fc97b8"/><path d="M163.8,50c0,.9-1.2,1.6-2.6,1.6s-2.6-.7-2.6-1.6,1.1-1.7,2.6-1.7S163.8,49,163.8,50Z" style="fill:#fc97b8"/><path d="M174.2,50c0,.9,1.2,1.6,2.7,1.6s2.6-.7,2.6-1.6-1.2-1.7-2.6-1.7S174.2,49,174.2,50Z" style="fill:#fc97b8"/><path d="M176.1,22.7c2.4,0,4.6,2.1,5.8,5.2a15.9,15.9,0,0,1,1.2,6.4,9.6,9.6,0,0,1-.9,4.6c4.3,3,7,7.2,7,11.1,0,6.8-8.6,6.9-19.4,6.9h-1.6c-10.7,0-19.3-.1-19.3-6.9,0-3.9,2.6-8.1,6.9-11.1a9.6,9.6,0,0,1-.9-4.6,17.9,17.9,0,0,1,1.1-6.4c1.3-3.1,3.5-5.2,5.9-5.2,3.9,0,7.1,5.2,7.1,11.6v.3h0v-.3c0-6.4,3.2-11.6,7.1-11.6m0-1.9a8.7,8.7,0,0,0-7.1,3.5,8.8,8.8,0,0,0-7.1-3.5c-3.9,0-7.1,2.4-8.8,6.6a19.3,19.3,0,0,0-1.3,6.9,13.3,13.3,0,0,0,.6,4.2c-4.1,3.3-6.5,7.5-6.5,11.5s2.5,6.5,7.5,7.7,9.6,1.1,14.8,1.1h1.6c5.3,0,10.7,0,14.8-1.1s7.6-3.8,7.6-7.7-2.5-8.2-6.7-11.6a12.2,12.2,0,0,0,.6-4.1,17.3,17.3,0,0,0-1.3-6.9c-1.7-4.2-4.8-6.6-8.7-6.6Z" style="fill:#fc97b8"/></g></g></svg>