<svg xmlns="http://www.w3.org/2000/svg" viewBox="0 0 62.5 76.6"><g id="Layer_2" data-name="Layer 2"><g id="Layer_1-2" data-name="Layer 1"><path d="M35.8,61l-.8-.2c-2.5-.5-7.4-.8-11-1.1-12.4-.8-15.7-1.1-15.7-4.2s2.5-3.1,11.1-3.8C10.8,51,8.3,50.5,8.3,47.8s2.5-3.1,11.1-3.8c-8.6-.7-11.1-1.2-11.1-3.9S11.6,36.8,24,36c4-.3,9.5-.7,11.7-1.2h2.8A1.5,1.5,0,0,1,40,36.3c0,2.6-2.5,3.2-11.1,3.8C37.5,40.8,40,41.3,40,44s-2.5,3.2-11.2,3.8C37.5,48.5,40,49,40,51.7s-2.5,3.2-11.2,3.9c8.7.6,11.2,1.2,11.2,3.8h0A1.5,1.5,0,0,1,38.5,61Z" style="fill:#cecece"/><path d="M38.5,36.3c0,1.4-2,1.8-14.3,2.7-4.2.3-9.6.6-11.9,1.1,2.3.5,7.7.9,11.9,1.2,12.3.9,14.3,1.2,14.3,2.7s-2,1.8-14.3,2.7c-4.2.3-9.6.7-11.9,1.1,2.3.5,7.7.9,11.9,1.2,12.3.9,14.3,1.3,14.3,2.7s-2,1.8-14.3,2.7c-4.2.3-9.6.7-11.9,1.1,2.3.5,7.7.9,11.9,1.2,12.3.9,14.3,1.3,14.3,2.7H36c-2.3-.5-7.8-.9-11.9-1.2C11.8,57.4,9.8,57,9.8,55.5s2-1.8,14.3-2.6c4.1-.3,9.5-.7,11.9-1.2-2.4-.5-7.8-.9-11.9-1.2-12.3-.8-14.3-1.2-14.3-2.7s2-1.8,14.3-2.6c4.1-.3,9.5-.7,11.9-1.2-2.4-.5-7.8-.9-11.9-1.2C11.8,42,9.8,41.6,9.8,40.1s2-1.8,14.3-2.6c4.1-.3,9.5-.7,11.9-1.2h2.5m0-3H35.4c-2.2.5-7.6.9-11.5,1.2-6,.4-9.9.7-12.1,1.1s-5,1-5,4.5A4,4,0,0,0,9.5,44a4.1,4.1,0,0,0,0,7.7,4,4,0,0,0-2.7,3.8c0,3.6,3.7,4.3,5,4.6s6.1.7,12.1,1.1c3.5.3,8.2.6,10.7,1a2.4,2.4,0,0,0,1.2.3h2.7a3.1,3.1,0,0,0,3-2.9v-.2a4,4,0,0,0-2.7-3.8,4.2,4.2,0,0,0,2.7-3.9,4.1,4.1,0,0,0-2.7-3.9,4.1,4.1,0,0,0,0-7.7,4.1,4.1,0,0,0,2.7-3.8,3,3,0,0,0-3-3Zm0,6Z" style="fill:#8d8d8d"/><path d="M23,69.1c-17.2,0-17.2-2-17.2-3.1V59c0-1.2,0-3.1,17.2-3.1S40.1,57.8,40.1,59v7C40.1,67.1,40.1,69.1,23,69.1Z" style="fill:#ec7670"/><path d="M23,57.4c8.6,0,15.6.7,15.6,1.6v7c0,.8-7,1.6-15.6,1.6S7.3,66.8,7.3,66V59c0-.9,7.1-1.6,15.7-1.6m0-3c-4.3,0-8.3.1-11.4.4s-7.3.8-7.3,4.2v7c0,3.3,4.1,3.7,7.3,4.1s7.1.5,11.4.5,8.3-.2,11.3-.5,7.3-.8,7.3-4.1V59c0-3.4-4-3.8-7.3-4.2s-7-.4-11.3-.4Z" style="fill:#b53c3c"/><path d="M23,62.1c-17.2,0-17.2-2-17.2-3.1s0-3.1,17.2-3.1S40.1,57.8,40.1,59,40.1,62.1,23,62.1Z" style="fill:#ec7670"/><path d="M23,57.4c8.6,0,15.6.7,15.6,1.6s-7,1.6-15.6,1.6S7.3,59.8,7.3,59s7.1-1.6,15.7-1.6m0-3c-4.3,0-8.3.1-11.4.4s-7.3.8-7.3,4.2,4.1,3.7,7.3,4.1,7.1.5,11.4.5,8.3-.2,11.3-.5,7.3-.8,7.3-4.1-4-3.8-7.3-4.2-7-.4-11.3-.4Z" style="fill:#b53c3c"/><path d="M9.8,47.8c0-1.4,2-1.8,14.3-2.6,4.1-.3,9.5-.7,11.9-1.2-2.4-.5-7.8-.9-11.9-1.2C11.8,42,9.8,41.6,9.8,40.1s2-1.8,14.3-2.6c4.1-.3,9.5-.7,11.9-1.2h2.5c0,1.4-2,1.8-14.3,2.7-4.2.3-9.6.6-11.9,1.1,2.3.5,7.7.9,11.9,1.2,12.3.9,14.3,1.2,14.3,2.7s-2,1.8-14.3,2.7c-4.2.3-9.6.7-11.9,1.1,2.3.5,7.7.9,11.9,1.2,12.3.9,14.3,1.3,14.3,2.7s-2,1.8-14.3,2.7c-4.2.3-9.6.7-11.9,1.1,2.3.5,7.7.9,11.9,1.2,12.3.9,14.3,1.3,14.3,2.7H36c-2.3-.5-7.8-.9-11.9-1.2C11.8,57.4,9.8,57,9.8,55.5s2-1.8,14.3-2.6c4.1-.3,9.5-.7,11.9-1.2-2.4-.5-7.8-.9-11.9-1.2C11.8,49.7,9.8,49.3,9.8,47.8Z" style="fill:#cecece"/><path d="M14.7,44.7A35.7,35.7,0,0,1,4.2,43.5,2.7,2.7,0,0,1,3,42.9a2.8,2.8,0,0,1-.8-1.1,9.5,9.5,0,0,1-.7-4.5h0A1.5,1.5,0,0,1,3,35.7H26.5l15.2.3a1.5,1.5,0,0,1,1.5,1.5v3.3a3.2,3.2,0,0,1-.6,2.1,2.9,2.9,0,0,1-2.3,1,55.3,55.3,0,0,1-7.1.4h-.6a4.4,4.4,0,0,1-1.5-.2l-.4-.3a2.1,2.1,0,0,1-1.2.3c-4.2.3-8.6.5-12.8.6Z" style="fill:#ffeb81"/><path d="M26.5,37.2l15.2.3v3.3a2,2,0,0,1-.3,1.1,1.5,1.5,0,0,1-1.2.5,54.8,54.8,0,0,1-7,.4H31.7c-.7-.3-.9-1.1-1.1-1.9s-.1,1.4-.6,1.7h-.6c-4.2.3-8.5.5-12.7.6h-2A38.2,38.2,0,0,1,4.6,42.1L4,41.8a1.8,1.8,0,0,1-.5-.7A8.8,8.8,0,0,1,3,37.2H26.5m0-3H3a2.9,2.9,0,0,0-3,3H0a11.2,11.2,0,0,0,.8,5.1,5,5,0,0,0,1.3,1.7,3.5,3.5,0,0,0,1.7.9,38.7,38.7,0,0,0,10.9,1.2h2c4.3-.1,8.7-.3,12.9-.6h1a5.6,5.6,0,0,0,2,.3h.6a59.5,59.5,0,0,0,7.3-.4,4.7,4.7,0,0,0,3.3-1.6,4.6,4.6,0,0,0,.9-3V37.5a2.9,2.9,0,0,0-3-3l-15.1-.3Z" style="fill:#ffaa5a"/><path d="M23.5,37.1A164.3,164.3,0,0,1,2.8,35.8a1.4,1.4,0,0,1-1.3-1.3A11.6,11.6,0,0,1,8.4,23.3a14.5,14.5,0,0,1,3.5-1.2l2-.6c1.9-.6,3.1-1.5,3.6-2.6a8.8,8.8,0,0,0,.5-3.7q-.2-2.5-.3-5.7a1.5,1.5,0,0,1,.8-1.4,1,1,0,0,1,.7-.2l.9.3c.9.6,5,1.6,11.2,1.6s10.3-1,11.2-1.6l.9-.3a.8.8,0,0,1,.7.2,1.2,1.2,0,0,1,.8,1.4c-.7,12.5-1.7,25-1.8,25.1A1.5,1.5,0,0,1,41.8,36,153.8,153.8,0,0,1,23.5,37.1Z" style="fill:#feb6d2"/><path d="M43.4,9.4c-.7,12.6-1.7,25.1-1.7,25.1a157.4,157.4,0,0,1-18.2,1.1A199.6,199.6,0,0,1,3,34.4a10.5,10.5,0,0,1,6-9.8c1.7-.7,3.6-1,5.4-1.7a7.6,7.6,0,0,0,4.5-3.3,10.7,10.7,0,0,0,.6-4.4l-.3-5.8c1.5,1.1,6.4,1.9,12.1,1.9s10.6-.8,12.1-1.9m-24.2-3a3.2,3.2,0,0,0-1.4.3,3,3,0,0,0-1.6,2.9q.2,3.2.3,5.7a9.2,9.2,0,0,1-.3,3,4.8,4.8,0,0,1-2.8,1.8l-1.9.6a20.7,20.7,0,0,0-3.8,1.2A13.4,13.4,0,0,0,0,34.5a2.9,2.9,0,0,0,2.7,2.8,165.9,165.9,0,0,0,20.8,1.3A138,138,0,0,0,42,37.4a2.9,2.9,0,0,0,2.6-2.7c.1-.1,1.1-12.6,1.8-25.1a3.1,3.1,0,0,0-1.5-2.9,4,4,0,0,0-1.5-.3,3.4,3.4,0,0,0-1.7.5c-.7.5-4.2,1.4-10.4,1.4s-9.7-1-10.4-1.4a3.4,3.4,0,0,0-1.7-.5Zm24.2,6Z" style="fill:#fa789e"/><path d="M39.4,30.6a1.7,1.7,0,0,1-.3,1.1,5.6,5.6,0,0,1-2.8,1.1,22.3,22.3,0,0,1-3.7.2H25.7c-1-.2-1.2-.9-.7-1.4a8.2,8.2,0,0,1,2.3-1.1,11.4,11.4,0,0,0,4.2-2.8c2.6-3.1.4-6.7,2.5-10a1.8,1.8,0,0,1,.9-.8c3.1-1.7,4.6,1.9,4.6,2.8s0,4.7-.1,7Z" style="fill:#fc97b8"/><path d="M31.3,14.7c-4.2,0-14.1-.3-14.1-4L17,8.6l-.2-2.9c0-3.8,10.2-4.2,14.6-4.2S46,1.9,46,5.7l-.3,3a14.2,14.2,0,0,0-.3,2.1C45.2,14.4,35.5,14.7,31.3,14.7Z" style="fill:#ffeb81"/><path d="M31.4,3c7.2,0,13.1,1.2,13.1,2.7l-.6,5c0,1.4-5.6,2.6-12.6,2.6s-12.6-1.2-12.6-2.6l-.4-5C18.3,4.2,24.1,3,31.4,3m0-3C20.7,0,15.3,1.9,15.3,5.7c0,.2,0,.2.2,3,.1.9.2,1.8.2,2.1.1,3.4,4.5,4.3,6.1,4.6a44.4,44.4,0,0,0,9.5.9,43.8,43.8,0,0,0,9.5-.9c1.7-.3,5.9-1.2,6.1-4.5,0-.3.1-1.1.2-2,.4-3,.4-3,.4-3.2C47.5,1.9,42.1,0,31.4,0Z" style="fill:#ffaa5a"/><ellipse cx="31.4" cy="5.7" rx="10.3" ry="1.9" style="fill:#ffaa5a"/><path d="M50.8,67l-.8-.2c-2.5-.5-7.4-.8-11-1.1-12.4-.8-15.7-1.1-15.7-4.2s2.5-3.1,11.1-3.8c-8.6-.7-11.1-1.2-11.1-3.9s2.5-3.1,11.1-3.8c-8.6-.7-11.1-1.2-11.1-3.9S26.6,42.8,39,42c4-.3,9.5-.7,11.7-1.2h2.8A1.5,1.5,0,0,1,55,42.3c0,2.6-2.5,3.2-11.1,3.8C52.5,46.8,55,47.3,55,50s-2.5,3.2-11.2,3.8C52.5,54.5,55,55,55,57.7s-2.5,3.2-11.2,3.9c8.7.6,11.2,1.2,11.2,3.8h0A1.5,1.5,0,0,1,53.5,67Z" style="fill:#cecece"/><path d="M53.5,42.3c0,1.4-2,1.8-14.3,2.7-4.2.3-9.6.6-11.9,1.1,2.3.5,7.7.9,11.9,1.2,12.3.9,14.3,1.2,14.3,2.7s-2,1.8-14.3,2.7c-4.2.3-9.6.7-11.9,1.1,2.3.5,7.7.9,11.9,1.2,12.3.9,14.3,1.3,14.3,2.7s-2,1.8-14.3,2.7c-4.2.3-9.6.7-11.9,1.1,2.3.5,7.7.9,11.9,1.2,12.3.9,14.3,1.3,14.3,2.7H51c-2.3-.5-7.8-.9-11.9-1.2-12.3-.8-14.3-1.2-14.3-2.7s2-1.8,14.3-2.6c4.1-.3,9.5-.7,11.9-1.2-2.4-.5-7.8-.9-11.9-1.2-12.3-.8-14.3-1.2-14.3-2.7s2-1.8,14.3-2.6c4.1-.3,9.5-.7,11.9-1.2-2.4-.5-7.8-.9-11.9-1.2-12.3-.8-14.3-1.2-14.3-2.7s2-1.8,14.3-2.6c4.1-.3,9.5-.7,11.9-1.2h2.5m0-3H50.4c-2.2.5-7.6.9-11.5,1.2-6,.4-9.9.7-12.1,1.1s-5,1-5,4.5A4,4,0,0,0,24.5,50a4.1,4.1,0,0,0,0,7.7,4,4,0,0,0-2.7,3.8c0,3.6,3.7,4.3,5,4.6s6.1.7,12.1,1.1c3.5.3,8.2.6,10.7,1a2.4,2.4,0,0,0,1.2.3h2.7a3.1,3.1,0,0,0,3-2.9v-.2a4,4,0,0,0-2.7-3.8,4.2,4.2,0,0,0,2.7-3.9,4.1,4.1,0,0,0-2.7-3.9,4.1,4.1,0,0,0,0-7.7,4.1,4.1,0,0,0,2.7-3.8,3,3,0,0,0-3-3Zm0,6Z" style="fill:#8d8d8d"/><path d="M38,75.1c-17.2,0-17.2-2-17.2-3.1V65c0-1.2,0-3.1,17.2-3.1S55.1,63.8,55.1,65v7C55.1,73.1,55.1,75.1,38,75.1Z" style="fill:#ec7670"/><path d="M38,63.4c8.6,0,15.6.7,15.6,1.6v7c0,.8-7,1.6-15.6,1.6S22.3,72.8,22.3,72V65c0-.9,7.1-1.6,15.7-1.6m0-3c-4.3,0-8.3.1-11.4.4s-7.3.8-7.3,4.2v7c0,3.3,4.1,3.7,7.3,4.1s7.1.5,11.4.5,8.3-.2,11.3-.5,7.3-.8,7.3-4.1V65c0-3.4-4-3.8-7.3-4.2s-7-.4-11.3-.4Z" style="fill:#b53c3c"/><path d="M38,68.1c-17.2,0-17.2-2-17.2-3.1s0-3.1,17.2-3.1S55.1,63.8,55.1,65,55.1,68.1,38,68.1Z" style="fill:#ec7670"/><path d="M38,63.4c8.6,0,15.6.7,15.6,1.6s-7,1.6-15.6,1.6S22.3,65.8,22.3,65s7.1-1.6,15.7-1.6m0-3c-4.3,0-8.3.1-11.4.4s-7.3.8-7.3,4.2,4.1,3.7,7.3,4.1,7.1.5,11.4.5,8.3-.2,11.3-.5,7.3-.8,7.3-4.1-4-3.8-7.3-4.2-7-.4-11.3-.4Z" style="fill:#b53c3c"/><path d="M24.8,53.8c0-1.4,2-1.8,14.3-2.6,4.1-.3,9.5-.7,11.9-1.2-2.4-.5-7.8-.9-11.9-1.2-12.3-.8-14.3-1.2-14.3-2.7s2-1.8,14.3-2.6c4.1-.3,9.5-.7,11.9-1.2h2.5c0,1.4-2,1.8-14.3,2.7-4.2.3-9.6.6-11.9,1.1,2.3.5,7.7.9,11.9,1.2,12.3.9,14.3,1.2,14.3,2.7s-2,1.8-14.3,2.7c-4.2.3-9.6.7-11.9,1.1,2.3.5,7.7.9,11.9,1.2,12.3.9,14.3,1.3,14.3,2.7s-2,1.8-14.3,2.7c-4.2.3-9.6.7-11.9,1.1,2.3.5,7.7.9,11.9,1.2,12.3.9,14.3,1.3,14.3,2.7H51c-2.3-.5-7.8-.9-11.9-1.2-12.3-.8-14.3-1.2-14.3-2.7s2-1.8,14.3-2.6c4.1-.3,9.5-.7,11.9-1.2-2.4-.5-7.8-.9-11.9-1.2C26.8,55.7,24.8,55.3,24.8,53.8Z" style="fill:#cecece"/><path d="M29.7,50.7a35.7,35.7,0,0,1-10.5-1.2,2.7,2.7,0,0,1-1.2-.6,2.8,2.8,0,0,1-.8-1.1,9.5,9.5,0,0,1-.7-4.5h0A1.5,1.5,0,0,1,18,41.7H41.5l15.2.3a1.5,1.5,0,0,1,1.5,1.5v3.3a3.2,3.2,0,0,1-.6,2.1,2.9,2.9,0,0,1-2.3,1,55.3,55.3,0,0,1-7.1.4h-.6a4.4,4.4,0,0,1-1.5-.2l-.4-.3a2.1,2.1,0,0,1-1.2.3c-4.2.3-8.6.5-12.8.6Z" style="fill:#ffeb81"/><path d="M41.5,43.2l15.2.3v3.3a2,2,0,0,1-.3,1.1,1.5,1.5,0,0,1-1.2.5,54.8,54.8,0,0,1-7,.4H46.7c-.7-.3-.9-1.1-1.1-1.9s-.1,1.4-.6,1.7h-.6c-4.2.3-8.5.5-12.7.6h-2a38.2,38.2,0,0,1-10.1-1.1l-.6-.3a1.8,1.8,0,0,1-.5-.7,8.8,8.8,0,0,1-.5-3.9H41.5m0-3H18a2.9,2.9,0,0,0-3,3h0a11.2,11.2,0,0,0,.8,5.1,5,5,0,0,0,1.3,1.7,3.5,3.5,0,0,0,1.7.9,38.7,38.7,0,0,0,10.9,1.2h2c4.3-.1,8.7-.3,12.9-.6h1a5.6,5.6,0,0,0,2,.3h.6a59.5,59.5,0,0,0,7.3-.4,4.7,4.7,0,0,0,3.3-1.6,4.6,4.6,0,0,0,.9-3V43.5a2.9,2.9,0,0,0-3-3l-15.1-.3Z" style="fill:#ffaa5a"/><path d="M38.5,43.1a164.3,164.3,0,0,1-20.7-1.3,1.4,1.4,0,0,1-1.3-1.3,11.6,11.6,0,0,1,6.9-11.2,14.5,14.5,0,0,1,3.5-1.2l2-.6c1.9-.6,3.1-1.5,3.6-2.6a8.8,8.8,0,0,0,.5-3.7q-.2-2.6-.3-5.7a1.5,1.5,0,0,1,.8-1.4,1,1,0,0,1,.7-.2l.9.3c.9.6,5,1.6,11.2,1.6s10.3-1,11.2-1.6l.9-.3a.8.8,0,0,1,.7.2,1.2,1.2,0,0,1,.8,1.4c-.7,12.5-1.7,25-1.8,25.1A1.5,1.5,0,0,1,56.8,42,153.8,153.8,0,0,1,38.5,43.1Z" style="fill:#feb6d2"/><path d="M58.4,15.4c-.7,12.6-1.7,25.1-1.7,25.1a157.4,157.4,0,0,1-18.2,1.1A199.6,199.6,0,0,1,18,40.4a10.5,10.5,0,0,1,6-9.8c1.7-.7,3.6-1,5.4-1.7a7.6,7.6,0,0,0,4.5-3.3,10.7,10.7,0,0,0,.6-4.4l-.3-5.8c1.5,1.1,6.4,1.9,12.1,1.9s10.6-.8,12.1-1.9m-24.2-3a3.2,3.2,0,0,0-1.4.3,3,3,0,0,0-1.6,2.9q.2,3.2.3,5.7a9.2,9.2,0,0,1-.3,3,4.8,4.8,0,0,1-2.8,1.8l-1.9.6a20.7,20.7,0,0,0-3.8,1.2A13.4,13.4,0,0,0,15,40.5a2.9,2.9,0,0,0,2.7,2.8,165.9,165.9,0,0,0,20.8,1.3A138,138,0,0,0,57,43.4a2.9,2.9,0,0,0,2.6-2.7c.1-.1,1.1-12.6,1.8-25.1a3.1,3.1,0,0,0-1.5-2.9l-1.5-.3a3.4,3.4,0,0,0-1.7.5c-.7.5-4.2,1.4-10.4,1.4s-9.7-1-10.4-1.4a3.4,3.4,0,0,0-1.7-.5Zm24.2,6Z" style="fill:#fa789e"/><path d="M54.4,36.6a1.7,1.7,0,0,1-.3,1.1,5.6,5.6,0,0,1-2.8,1.1,22.3,22.3,0,0,1-3.7.2H40.7c-1-.2-1.2-.9-.7-1.4a8.2,8.2,0,0,1,2.3-1.1,11.4,11.4,0,0,0,4.2-2.8c2.6-3.1.4-6.7,2.5-10a1.8,1.8,0,0,1,.9-.8c3.1-1.7,4.6,1.9,4.6,2.8s0,4.7-.1,7Z" style="fill:#fc97b8"/><path d="M46.3,20.7c-4.2,0-14.1-.3-14.1-4L32,14.6c-.2-2.8-.2-2.8-.2-2.9,0-3.8,10.2-4.2,14.6-4.2S61,7.9,61,11.7c0,.1,0,.1-.3,3a14.2,14.2,0,0,0-.3,2.1C60.2,20.4,50.5,20.7,46.3,20.7Z" style="fill:#ffeb81"/><path d="M46.4,9c7.2,0,13.1,1.2,13.1,2.7s-.6,4.9-.6,5-5.6,2.6-12.6,2.6-12.6-1.2-12.6-2.6-.4-4.9-.4-5S39.1,9,46.4,9m0-3C35.7,6,30.3,7.9,30.3,11.7c0,.2,0,.2.2,3,.1.9.2,1.8.2,2.1.1,3.4,4.5,4.3,6.1,4.6a44.4,44.4,0,0,0,9.5.9,43.8,43.8,0,0,0,9.5-.9c1.7-.3,5.9-1.2,6.1-4.5,0-.3.1-1.1.2-2,.4-3,.4-3,.4-3.2C62.5,7.9,57.1,6,46.4,6Z" style="fill:#ffaa5a"/><ellipse cx="46.4" cy="11.7" rx="10.3" ry="1.9" style="fill:#ffaa5a"/></g></g></svg>