<svg xmlns="http://www.w3.org/2000/svg" viewBox="0 0 32.3 24.1"><g style="isolation:isolate"><g id="Layer_2" data-name="Layer 2"><g id="Layer_1-2" data-name="Layer 1"><path d="M30.8,2.7a4,4,0,0,1-1.3,5.5c-1.8,1.2-7.4,2.7-8.6.8s2.5-6.3,4.3-7.5A4,4,0,0,1,30.8,2.7Z" style="fill:#ecebed;fill-rule:evenodd"/><path d="M31.2,6.2a4.1,4.1,0,0,1-1.7,2c-1.8,1.2-7.4,2.7-8.6.8s.1-2.8,1.3-4.4l-.5,1a2.1,2.1,0,0,0,1.6,2.7,8.1,8.1,0,0,0,5.1,0A6.3,6.3,0,0,0,31.2,6.2Z" style="fill:#e3e2e2;fill-rule:evenodd"/><path d="M23.8,5.3c.8,1.3,2.8,1.1,3.9.5s2.5-2,1.8-3.3-2.7-1.3-3.9-.6S23.2,3.9,23.8,5.3Z" style="fill:#f9f9fa;fill-rule:evenodd"/><path d="M21.2,6.8C22.4,6,24.3,8.9,23,9.7L10.8,17.5,8.9,14.6Z" style="fill:#ffeb81;fill-rule:evenodd"/><path d="M21.7,6.6c1.1.1,2.4,2.4,1.3,3.1L10.8,17.5,9.7,15.8l.5-1.5,1.2.3a1.7,1.7,0,0,0,1.7-.2l8.7-5.6a1.5,1.5,0,0,0,.6-.9,1.3,1.3,0,0,0-.4-1Z" style="fill:#ffaa5a;fill-rule:evenodd;opacity:0.5;mix-blend-mode:multiply"/><path d="M1.6,21.3a4,4,0,0,0,5.5,1.2A12.4,12.4,0,0,0,11.5,17a1.8,1.8,0,0,0-.3-1.8,2.2,2.2,0,0,0-1.6-1.1,13.4,13.4,0,0,0-6.8,1.7A4,4,0,0,0,1.6,21.3Z" style="fill:#ecebed;fill-rule:evenodd"/><path d="M1.6,21.3a4,4,0,0,0,5.5,1.2,13.9,13.9,0,0,0,4.3-5.1,18.4,18.4,0,0,0-1.9,2,11,11,0,0,1-4,2.1c-2.4.8-3.8-.1-4.4-2.4v-.2H1A3.6,3.6,0,0,0,1.6,21.3Z" style="fill:#e3e2e2;fill-rule:evenodd"/><path d="M9.4,15.2c.7,1.1-.5,2.4-1.7,3s-3.1,1-3.9-.1.3-2.5,1.6-3.1S8.4,14.1,9.4,15.2Z" style="fill:#f9f9fa;fill-rule:evenodd"/><path d="M20.8,7.8h0a.4.4,0,0,1-.2.6l-8,5.1a.4.4,0,0,1-.6-.1h0a.6.6,0,0,1,.1-.7l8-5.1A.6.6,0,0,1,20.8,7.8Z" style="fill:#f9d3d5;fill-rule:evenodd;opacity:0.30000000000000004;mix-blend-mode:screen"/><path d="M27.6,1c2.4,0,4.3,1.7,3.5,5.2h.1C30,9.1,26,9.8,22.8,9.8L11.5,17a.5.5,0,0,1-.2.4h.1c-1.1,3-4.3,5.7-6.9,5.7S1.3,21.9,1,18.9H1a4,4,0,0,1,1.8-3.1A14.1,14.1,0,0,1,9,14.1h.6L20.9,6.9a10.5,10.5,0,0,1,1.3-2.3h0A6.2,6.2,0,0,1,27.6,1m3.6,5.2h0M27.6,0h0a7.2,7.2,0,0,0-6.3,4.1,16.4,16.4,0,0,0-1.2,2.2L9.4,13.1H9a14.7,14.7,0,0,0-6.7,1.8A5.1,5.1,0,0,0,0,18.7V19c.5,4.6,3.3,5.1,4.5,5.1,3,0,6.6-3,7.8-6.4l10.8-6.9c3.4,0,7.6-.8,9-4.2V6.2h0a5,5,0,0,0-.9-4.4A4.5,4.5,0,0,0,27.6,0Z" style="fill:#ffaa5a"/></g></g></g></svg>