<svg xmlns="http://www.w3.org/2000/svg" xmlns:xlink="http://www.w3.org/1999/xlink" viewBox="0 0 184.8 311"><defs><clipPath id="clip-path" transform="translate(0 0)"><path d="M162.3,59.3c-6.6-7.9-16.4-11.7-25.3-15.4,11.3-15.4,7.5-36-13-41.6C109.5-1.4,97.3,8.6,89.4,19.4c-15-5.7-33.2-10.6-49.1-5.9-11.7,3.7-13.1,10.3-3.2,17.3C22.1,33.1,9,39.7,4.3,55.1s6.1,23.8,20.1,27.6c-18.2,18.6-35.5,51.4-10.2,72.8l1.7,1.4.4.3,1.8,1.3h.1l1.7,1,.4.2,1.8.9h.2l1.6.6.4.2,1.8.5h.2l1.6.4h.4l1.8.3h.3l1.5.2h4.3l1.8-.2h.3l1.6-.3h.2l1.7-.5h.4l1.5-.5H44l1.6-.7.5-.2,1.4-.6h.2l1.6-.9.5-.2,1.4-.9h.2l1.5-1,.4-.3,1.5-1h0a73.8,73.8,0,0,0,16.4-17.1c17.2,21,37.3-22,41.1-34.6,7.2,6.7,15.3,12.8,23.9,14.2h7.5l.6-.2,1-.2h.5l1.2-.4.5-.2.8-.3.6-.3.8-.4.6-.3.8-.4.5-.4.9-.5.5-.4.9-.7.5-.3,1.3-1.1C169.7,99,174.4,74.7,162.3,59.3Z" style="fill:none"/></clipPath><clipPath id="clip-path-2" transform="translate(0 0)"><path d="M167.2,159.3c4.2-5.6,8.4-11.2,11.7-17.3,6.5-12.6,7.5-29.4-8-35.9-18.2-8.5-29.9,8.4-36.9,22.8-18.7-4.6-28.5,5.2-29.9,23.9a6.2,6.2,0,0,1-.1,1.3v3.4a9.2,9.2,0,0,0,.1,1.6h0a27,27,0,0,0,1.2,6.9h0c.9,3.1,2.4,5.8,4.9,7.3,5.6,2.8,14-1.6,18.7-4.4A70.5,70.5,0,0,0,142,184.5c9.7,8,23.1,8,32.1-.7h0l1.5-1.6C185.9,171.5,178.9,163.1,167.2,159.3Z" style="fill:none"/></clipPath><clipPath id="clip-path-3" transform="translate(0 0)"><path d="M148.8,136.6a1.8,1.8,0,0,1,2.3-.2c2.8-1.9,7-1.4,10.1,1.3s4,6.8,2.5,9.8a1.8,1.8,0,0,1,.1,2.3,2,2,0,0,1-2.3.3c-2.9,1.8-7,1.4-10.1-1.3s-4-6.8-2.6-9.9A1.9,1.9,0,0,1,148.8,136.6Z" style="fill:none"/></clipPath><clipPath id="clip-path-4" transform="translate(0 0)"><path d="M120,47.3a1.9,1.9,0,0,1,2.1-.9c2.2-2.5,6.4-3.3,10.1-1.6s5.8,5.4,5.2,8.7a2,2,0,0,1,.7,2.2,1.7,1.7,0,0,1-2.1.9c-2.2,2.6-6.3,3.3-10.1,1.6s-5.8-5.3-5.2-8.7A1.9,1.9,0,0,1,120,47.3Z" style="fill:none"/></clipPath><clipPath id="clip-path-5" transform="translate(0 0)"><path d="M54.2,213.6a2,2,0,0,1,2.1-.9c2.2-2.5,6.3-3.3,10-1.5s5.8,5.3,5.3,8.6a2.1,2.1,0,0,1,.7,2.3,2.2,2.2,0,0,1-2.2.9c-2.1,2.5-6.3,3.3-10,1.5s-5.8-5.3-5.2-8.7A1.7,1.7,0,0,1,54.2,213.6Z" style="fill:none"/></clipPath><clipPath id="clip-path-6" transform="translate(0 0)"><path d="M81.8,100.8a1.7,1.7,0,0,1,.7-2.2c-.5-3.4,1.6-7,5.3-8.7s7.9-.9,10,1.7a1.9,1.9,0,0,1,2.1,1,1.7,1.7,0,0,1-.7,2.2c.5,3.3-1.6,6.9-5.3,8.6s-7.9.9-10-1.7A1.8,1.8,0,0,1,81.8,100.8Z" style="fill:none"/></clipPath><clipPath id="clip-path-7" transform="translate(0 0)"><path d="M37.7,146.4a2.1,2.1,0,0,1-.5-2.3c-2.1-2.6-2-6.8.3-10.1s6.4-4.7,9.6-3.6a2,2,0,0,1,2.3-.3,1.9,1.9,0,0,1,.4,2.3c2.2,2.6,2.1,6.8-.3,10.1s-6.3,4.8-9.5,3.6A2,2,0,0,1,37.7,146.4Z" style="fill:none"/></clipPath><clipPath id="clip-path-8" transform="translate(0 0)"><path d="M26.2,64.4a1.8,1.8,0,0,1,1.3-1.9c.4-3.4,3.3-6.3,7.4-7s7.8,1.2,9.2,4.2a1.9,1.9,0,0,1,1.8,1.5,1.7,1.7,0,0,1-1.2,1.9c-.4,3.4-3.4,6.3-7.4,7A8.6,8.6,0,0,1,28,65.9,2,2,0,0,1,26.2,64.4Z" style="fill:none"/></clipPath><clipPath id="clip-path-9" transform="translate(0 0)"><path d="M57.9,32.2a2,2,0,0,1,1.3-2c.3-3.3,3.3-6.3,7.4-6.9s7.8,1.1,9.2,4.2a1.8,1.8,0,0,1,1.8,1.4,2,2,0,0,1-1.2,2C76,34.2,73,37.1,69,37.8s-7.8-1.1-9.3-4.2A1.9,1.9,0,0,1,57.9,32.2Z" style="fill:none"/></clipPath></defs><g style="isolation:isolate"><g id="Layer_2" data-name="Layer 2"><g id="Layer_1-2" data-name="Layer 1"><path d="M131,295.7c-7-11-15.9-22.9-19.7-35.5s-5.1-30.4-5.6-44.8,5.6-15.9,15.5-23.9c8.4-6.5,7.9-16.3,13-24.7,7-11.3,23.4-18.3,33.7-25.7l-1.4-2.2c-8.2,5.2-19.3,8.4-26.3,15.1a89,89,0,0,0-13.7,18.7,44.9,44.9,0,0,1-7,11.4c-.6-14.9-.8-29.5,3.2-43.8l-1.7-.9c-3.2,9.4-4.1,17.5-4.4,27.5-.3,7.8,1.8,14-3.2,20.7-3.8,4.9-8.2,9-12,13.7-.8-9.4-.2-19.3,0-28.9s.6-17.5,3.5-26c4.7-13.1,12.3-24.7,18.1-37.3,1.8-3.8,4.1-7.6,5.6-11.4,2-5.5,2-11.6,2.6-17.5s2.9-14.2,5.5-21l-2-1.4c-8.2,11.1-6.4,23.6-8.8,36.4-1.1,7-7.5,13.5-11,19.6s-6.5,13.7-9.4,20.7-3.8,12.5-6.4,18.6c-.3-6.7-3.2-11-6.7-16.6s-7-11.6-11.1-17.2-3.8-10.2-1.4-16.9c2.9-9,6.1-17.8,8.4-26.8a154.3,154.3,0,0,1,5.9-21l-2.7-2.4c-7,17.5-12.2,35.6-17.5,53.7-3.8-7.6-6.4-12.2-13.4-17.2S46.3,76.5,43.4,68.3l-1.7,6.1c4.9,9.3,9.9,14.3,18.9,19.5s9.6,10.8,12.3,19S82.2,126,87.2,133s5.2,14.3,6.7,22.2,4.3,15.2,2,23.6c-4.4-12.2-9-24.5-15.2-35.9-3.2-6.1-6.4-12.8-9.9-18.9S60.6,114.7,56,109.4,45.7,96,39.6,89.9l-1.4,9.6c13.1,9.6,26.2,18.9,32.9,32.1S88.3,158.7,91,173.3c2,10.8-.3,21.8,2.3,32.6,2,8.8,4.4,15.5,3.8,24.5s-1.8,16.4-.6,24.8a28.5,28.5,0,0,0-5-7.9c-2.3-2-6.1-2-9-3.5-6.1-2.6-13.7-8.7-16.3-15.1l-1.6,1.1c5.6,13.6,23.4,14.1,26.6,27.6,1.9,6.5,1.9,13.1,3.8,19.6s2.8,8.4-1.9,12.6-11.7,8.5-17.3,13.6c0,0,14.9,7.7,32.1,6.3s20.7-3.5,26.8-3.5S138.3,307.4,131,295.7Z" transform="translate(0 0)" style="fill:#eed5c4"/><path d="M106.6,232.3c-3.3.4-6.6,1-9.9,1.5l-.3,3.2,10.6-.5C106.9,235.1,106.7,233.7,106.6,232.3Z" transform="translate(0 0)" style="fill:#ddab88"/><path d="M77.5,94.1l5.6-1.4,1.5-4.5-5.8,1.4C78.4,91.1,77.9,92.6,77.5,94.1Z" transform="translate(0 0)" style="fill:#ddab88"/><path d="M75.7,118.1l4-1.2-.7-1.3-4,1.2L73.3,114a31.9,31.9,0,0,0,3.5,6.3C76.4,119.5,76,118.8,75.7,118.1Z" transform="translate(0 0)" style="fill:#ddab88"/><path d="M77,120.5l.8,1.2,4.7-.6-.7-1.2Z" transform="translate(0 0)" style="fill:#ddab88"/><path d="M131.1,81.5l-3.7.4c-.1,1.3-.2,2.6-.4,4l3.8-.4Z" transform="translate(0 0)" style="fill:#ddab88"/><path d="M48.4,84.3a40.4,40.4,0,0,0,2.9,3l5.1-1.9-3.1-2.9Z" transform="translate(0 0)" style="fill:#ddab88"/><path d="M113.3,265.7l-.6-1.7c-6.6,1.2-13.1,2-19.6,3.2.1.9.3,1.8.4,2.7Q103.6,268.3,113.3,265.7Z" transform="translate(0 0)" style="fill:#ddab88"/><path d="M93.8,138.7l-1.4-2.2-.9-1.3-2.5.7a24.3,24.3,0,0,1,1.6,3.7Z" transform="translate(0 0)" style="fill:#ddab88"/><path d="M116.7,121.5l.8-1.3-5.5-.3a6.1,6.1,0,0,0-.5,1.2l3.5.2Z" transform="translate(0 0)" style="fill:#ddab88"/><path d="M114.2,270.9l-20.5.3.6,3.1c7.9.5,15.9,1,23.8,1.1a49.2,49.2,0,0,1-2.4-4.5Z" transform="translate(0 0)" style="fill:#ddab88"/><path d="M92,260.6a117.3,117.3,0,0,0,12.9,2.5,47.1,47.1,0,0,0,7.5.3c-.4-1-.7-2.1-1.1-3.2a8.3,8.3,0,0,0-.4-1.5,58.8,58.8,0,0,1-6,.3,89.4,89.4,0,0,1-13.6-1.3C91.6,258.7,91.8,259.6,92,260.6Z" transform="translate(0 0)" style="fill:#ddab88"/><path d="M68.6,96.6h.1a40.9,40.9,0,0,0-2.8-3.3l-4.2,1.5a23.9,23.9,0,0,1,5.9,6l3.3-.8a39.6,39.6,0,0,0-2.2-3.4Z" transform="translate(0 0)" style="fill:#ddab88"/><path d="M107.6,241.4a9.9,9.9,0,0,1-.2-1.7h-.7c-3.6.4-7.1,1-10.6,1.5a3.4,3.4,0,0,1-.1,1c3.6-.1,7.1-.4,10.7-.8Z" transform="translate(0 0)" style="fill:#ddab88"/><path d="M91.9,144.2a41.2,41.2,0,0,1,5.1.3l-.9-1.8H91.6Z" transform="translate(0 0)" style="fill:#ddab88"/><path d="M82.5,94.4l-5.3.6c-.4,1.3-.7,2.6-1.1,3.9l5.2-.8Z" transform="translate(0 0)" style="fill:#ddab88"/><path d="M117.2,290.3a84.3,84.3,0,0,0,9-1.9l-2.8-4.4a123.6,123.6,0,0,1-17.1,1.6,82.7,82.7,0,0,1-10-.5,9.6,9.6,0,0,1-2.9,4.3C101.1,290.5,108.8,291.5,117.2,290.3Z" transform="translate(0 0)" style="fill:#ddab88"/><path d="M131,295.7c-8-.1-16.1-1.8-23.8-3.4-4.7-.9-9.3-1.9-14-2.7h-.1a18,18,0,0,1-2,1.9c9.2,1.8,18.4,3.9,27.7,5.5a91.8,91.8,0,0,0,13.8,1.2C132.1,297.4,131.5,296.6,131,295.7Z" transform="translate(0 0)" style="fill:#ddab88"/><path d="M88.3,75.6c.1-.3.1-.5.2-.8l-5.2.5L82.1,79a49.5,49.5,0,0,1,5.4-.6C87.8,77.5,88.1,76.5,88.3,75.6Z" transform="translate(0 0)" style="fill:#ddab88"/><path d="M77.7,143.4a14,14,0,0,1,1,1.6l3-.3a10.9,10.9,0,0,1-.8-1.5Z" transform="translate(0 0)" style="fill:#ddab88"/><path d="M120.6,192l.6-.5,1.5-1.4-1.8-1.7a35.3,35.3,0,0,0-5.7-3.8l-.9,1.7,3.5,2.7A15.8,15.8,0,0,1,120.6,192Z" transform="translate(0 0)" style="fill:#ddab88"/><path d="M124.8,105.6l-5.2,1.2L118,109l5.6-1.1Z" transform="translate(0 0)" style="fill:#ddab88"/><path d="M65.4,122.8l.9,1.3,3.9-1-.9-1.2C68,122.1,66.7,122.5,65.4,122.8Z" transform="translate(0 0)" style="fill:#ddab88"/><path d="M95,160.2l1.9-.7,5.6-2.4c.2-1.1.3-2.3.6-3.5-2.9,1.4-5.8,2.7-8.7,3.8Z" transform="translate(0 0)" style="fill:#ddab88"/><path d="M107.4,194.6a29.6,29.6,0,0,0,5.7,3.4l1.3-1.1-1.2-.4a23.7,23.7,0,0,1-5.3-2.6Z" transform="translate(0 0)" style="fill:#ddab88"/><path d="M78.9,139.4l-2.8,1.1,1.5,2.7,2.8-.9Z" transform="translate(0 0)" style="fill:#ddab88"/><path d="M110.1,191.6l1.4-1a44,44,0,0,0,5,4.6l1.3-1.1a54.5,54.5,0,0,1-5.6-4.2c.7-.8,1.2-1.5,1-2.1C112.2,189.1,111.2,190.4,110.1,191.6Z" transform="translate(0 0)" style="fill:#ddab88"/><path d="M112.2,130.1l-5.4,1.3c-.4,1-.8,2.1-1.3,3.1a6.9,6.9,0,0,1-.5,1.3l5.1-1.4Z" transform="translate(0 0)" style="fill:#ddab88"/><path d="M39.3,91.9l1.6-.6a8.6,8.6,0,0,0-1.3-1.4Z" transform="translate(0 0)" style="fill:#ddab88"/><path d="M67.3,119.6l-3.4,1.5.9,1,3.4-1.5Z" transform="translate(0 0)" style="fill:#ddab88"/><path d="M42.6,102.7l4.1,3.1,5.1-1.2c-1.3-1.5-2.4-3.1-3.6-4.6Z" transform="translate(0 0)" style="fill:#ddab88"/><path d="M106,143.6a16.1,16.1,0,0,0-3.3-.6l-.8,2.4,3.1.8C105.3,145.3,105.7,144.5,106,143.6Z" transform="translate(0 0)" style="fill:#ddab88"/><path d="M91.9,192.4c3.1-.8,6.1-1.8,9.1-2.8v-2c-3,.5-6.1,1.1-9.1,1.8Z" transform="translate(0 0)" style="fill:#ddab88"/><path d="M97.2,227.5l9.1.7c0-1.1-.1-2.2-.2-3.3l-9,.2C97.1,225.9,97.2,226.7,97.2,227.5Z" transform="translate(0 0)" style="fill:#ddab88"/><path d="M96.6,175.5l4.8-2.5v-.6a.4.4,0,0,0,.1-.3l-4.8,2A7.1,7.1,0,0,1,96.6,175.5Z" transform="translate(0 0)" style="fill:#ddab88"/><path d="M93.9,173.3l-.6-1.6-2.4,1.5H91a8.8,8.8,0,0,1,.2,1.7Z" transform="translate(0 0)" style="fill:#ddab88"/><path d="M105.9,211.7c.1-.5.1-.9.2-1.4-3.9.2-7.8.4-11.6.4a2.9,2.9,0,0,0,.2.9C98.4,211.8,102.2,211.8,105.9,211.7Z" transform="translate(0 0)" style="fill:#ddab88"/><path d="M93.7,207.8l.2.6c4.2-.6,8.5-1,12.8-1.2l.3-1C102.6,206.6,98.1,207,93.7,207.8Z" transform="translate(0 0)" style="fill:#ddab88"/><path d="M102.1,160.3l-4.5,1.2-2.1.5a10.6,10.6,0,0,0,.4,1.9l6.1-1.8C102,161.5,102.1,160.9,102.1,160.3Z" transform="translate(0 0)" style="fill:#ddab88"/><path d="M131.2,80.2c.1-1,.2-2.1.4-3.2l-3.6-.5c-.2,1.2-.3,2.5-.4,3.7l3.6.5Z" transform="translate(0 0)" style="fill:#ddab88"/><path d="M96.3,218.8c.2,1.2.4,2.3.5,3.5l5.9-.7,3.3-.2c-.1-1.8-.2-3.6-.2-5.4C102.6,216.8,99.4,217.8,96.3,218.8Z" transform="translate(0 0)" style="fill:#ddab88"/><path d="M91.4,176.6a10,10,0,0,1,.2,1.6l3.4-1.9c-.1-.4-.3-.8-.4-1.2l-2.5,1.2Z" transform="translate(0 0)" style="fill:#ddab88"/><path d="M101.1,195.3c-.1-1.2-.1-2.4-.1-3.7-2.8.9-5.9,2.1-9,2.8a26.2,26.2,0,0,0,.1,2.8A55.4,55.4,0,0,0,101.1,195.3Z" transform="translate(0 0)" style="fill:#ddab88"/><path d="M88.6,159.6l-1.9.6.9,2.1,1.9-.5Z" transform="translate(0 0)" style="fill:#ddab88"/><path d="M127.4,100.5l-3.3-.9-1.5,2.7,3.5.7C126.6,102.2,127,101.3,127.4,100.5Z" transform="translate(0 0)" style="fill:#ddab88"/><path d="M101.7,166.9l-5,2.8a13.4,13.4,0,0,1,.1,2l4.8-2.8A14.1,14.1,0,0,1,101.7,166.9Z" transform="translate(0 0)" style="fill:#ddab88"/><path d="M93.2,205.5,108,204l.7-1.2-15.9,1.1C92.9,204.4,93.1,204.9,93.2,205.5Z" transform="translate(0 0)" style="fill:#ddab88"/><path d="M88,163.2l.9,2.4,2-.4a22.9,22.9,0,0,1-1-2.3Z" transform="translate(0 0)" style="fill:#ddab88"/><path d="M132.3,295c-7.4-11.7-16.1-23-19.9-36.5s-4.6-27.8-5.1-41.8c-.2-4.8.3-9.8,3.1-13.8s6.8-6.3,10.3-9.1a28.5,28.5,0,0,0,6.2-6.3,37.7,37.7,0,0,0,3.6-7.6c1.9-5.3,3.4-10.7,7-15.2,8.3-9.9,20.9-14.9,31.1-22.3a1.6,1.6,0,0,0,.6-2.1l-1.4-2.2a1.5,1.5,0,0,0-2.1-.5c-6.9,4.4-14.8,7-21.7,11.5a42.7,42.7,0,0,0-9.4,9.1,74.4,74.4,0,0,0-8,11.3c-1.4,2.3-2.3,4.7-3.6,7a41.8,41.8,0,0,1-4.5,6.5l2.5,1.1c-.5-14.6-.8-29.3,3.2-43.4a1.5,1.5,0,0,0-.7-1.7l-1.8-.9a1.6,1.6,0,0,0-2.2.9,93.1,93.1,0,0,0-4.3,26.6c-.2,4,.2,8,.1,12a17.9,17.9,0,0,1-4.4,10.8c-3.4,4-7.2,7.7-10.5,11.8l2.5,1.1c-.9-10-.3-19.9.1-29.9a119.4,119.4,0,0,1,1-14.6,58.1,58.1,0,0,1,4-14.1c3.5-8.7,8.3-16.9,12.6-25.3,2.2-4.2,4.2-8.6,6.4-12.8a42.5,42.5,0,0,0,4.7-13.5c.7-5.3.7-10.6,1.7-15.9a87.7,87.7,0,0,1,4.8-15.6,1.5,1.5,0,0,0-.7-1.6l-2-1.5a1.6,1.6,0,0,0-2.1.5,39.5,39.5,0,0,0-6.7,17.8c-.9,6.3-1,12.7-2.2,19s-5.4,11-8.8,15.9a62.3,62.3,0,0,0-4.9,9.2c-1.6,3.4-3.1,6.8-4.6,10.2a119.1,119.1,0,0,0-4.3,11.3,99.8,99.8,0,0,1-4.1,12l2.8.7c-.3-6.4-3.3-11.7-6.7-17s-7.6-12.4-11.8-18.2a12.3,12.3,0,0,1-2.5-7.8c.1-3.2,1.4-6.2,2.3-9.2,2.4-7.2,4.9-14.3,7-21.5,1.1-4.2,1.9-8.4,3-12.5s2.3-8,3.7-11.9a1.4,1.4,0,0,0-.4-1.5l-2.6-2.3a1.5,1.5,0,0,0-2.5.6c-7,17.5-12.3,35.6-17.5,53.7l2.7-.4a55.4,55.4,0,0,0-5.6-9.7,37.9,37.9,0,0,0-8.1-7.9C54.7,82.6,47.8,76,44.9,67.9a1.5,1.5,0,0,0-2.9,0c-.6,2-1.3,3.9-1.7,5.9s1.3,3.6,2,4.8a46.7,46.7,0,0,0,3.6,5.1,40.4,40.4,0,0,0,8.5,8c3.5,2.6,7.4,4.4,10.3,7.7a27,27,0,0,1,5.4,10c.7,2.1,1.4,4.2,2.2,6.2a31.6,31.6,0,0,0,3.5,5.9c2.6,3.6,5.7,6.7,8.4,10.1a31.1,31.1,0,0,1,6.3,12.9c.6,2.6.9,5.2,1.4,7.9s1.1,5.6,1.7,8.5c1.4,5.8,2.4,11.6.9,17.5h2.9c-2.6-7-5.2-14-8.1-20.9s-6.3-13.3-9.6-19.9c-1.7-3.3-3.3-6.5-5.1-9.8a38.8,38.8,0,0,0-5.4-8.4,61.7,61.7,0,0,0-6.6-5.9,59.5,59.5,0,0,1-6.8-6.5c-5.3-5.9-9.5-12.6-15.1-18.2a1.5,1.5,0,0,0-2.5.7l-1.5,9.6a1.6,1.6,0,0,0,.7,1.7c8.7,6.4,17.7,12.7,25,20.8a62.9,62.9,0,0,1,8.4,12.6c2.6,4.8,5.4,9.5,8.1,14.2,5.6,9.7,10.6,19.8,11.3,31.2.4,6.1,0,12.2.4,18.3s2.1,11.6,3.4,17.4a49.8,49.8,0,0,1,1.2,19.1c-.7,7-1.1,13.9-.2,20.8l2.9-.4a22.2,22.2,0,0,0-5.3-8.5c-2.6-2.4-6.4-2.4-9.5-3.8-6.4-2.9-12.8-8-15.6-14.6a1.5,1.5,0,0,0-2.1-.5l-1.5,1.1a1.6,1.6,0,0,0-.6,2.1c2.1,5,6.1,8.6,10.4,11.5s8.5,5,12,8.5,5.2,11.3,6,17.5a76.4,76.4,0,0,0,2.6,11.5c.7,2.3,1.2,4.6-.2,6.8a20.4,20.4,0,0,1-4.2,4.1,45.7,45.7,0,0,1-4.9,3.8,110,110,0,0,0-10.2,7.8,1.5,1.5,0,0,0,.3,2.4A59.6,59.6,0,0,0,86,308.6a65.3,65.3,0,0,0,24.5,2.1c6.1-.6,12-1.5,18-2.6a38.6,38.6,0,0,1,4.9-.6c1.5-.1,3.3.3,4.8-.1a1.7,1.7,0,0,0,1.4-2.1,6.2,6.2,0,0,0-1.1-1.7,104.1,104.1,0,0,1-6.2-8.6c-1.1-1.7-3.7-.2-2.6,1.5a91.9,91.9,0,0,0,5.8,8.1l.8,1,.2.3v.2c.1,0,.1.2.2.2s-.1-.8-.1-.9l.8-.9h0a43.9,43.9,0,0,0-9.6.7c-5.3.9-10.5,1.8-15.8,2.4a78.3,78.3,0,0,1-12.8.4,64.1,64.1,0,0,1-10.8-1.8,60.2,60.2,0,0,1-11.9-4.3l.3,2.4c5.8-5.3,12.9-8.9,18.3-14.6a8.9,8.9,0,0,0,2.8-7.2,28.6,28.6,0,0,0-1-4.2,41.2,41.2,0,0,1-1.5-5.8c-.8-4.3-1.2-8.6-2.1-12.8a22.7,22.7,0,0,0-3.3-8.4c-2.9-4.3-7.4-7-11.7-9.7s-10-6.7-12.5-12.5l-.5,2,1.5-1.1-2-.6c2.7,6.5,8.9,11.7,15.1,14.9a18.6,18.6,0,0,0,4.6,1.9,38.2,38.2,0,0,1,4.8,1.5,8.3,8.3,0,0,1,3.2,3.5,23.4,23.4,0,0,1,2.4,4.4c.6,1.4,3.2,1.4,3-.4a84.4,84.4,0,0,1,0-18.8c.3-3.2.7-6.3.7-9.5a59.9,59.9,0,0,0-.9-8.4c-1.1-5.7-3.1-11.3-3.9-17.1s-.4-12.6-.6-18.9a54.7,54.7,0,0,0-2.9-17,96,96,0,0,0-7-15.3c-2.7-4.9-5.7-9.7-8.4-14.6s-4.8-9.1-8.1-13.3c-7.7-9.7-18.1-16.9-28-24.1l.7,1.7,1.5-9.6-2.5.6c4.8,4.9,8.6,10.6,13,15.8a50.9,50.9,0,0,0,6.8,7.1c2.2,2,4.5,3.7,6.7,5.7,5,4.7,7.7,11.1,10.7,17.1s6.7,12.7,9.6,19.3,6.3,15.5,9.1,23.3a1.5,1.5,0,0,0,2.9,0,32.1,32.1,0,0,0,.3-13.8c-.8-4.6-2.2-9-2.9-13.6s-1.2-8.5-2.7-12.5a37.8,37.8,0,0,0-6.6-10.9,113.6,113.6,0,0,1-7.7-9.2,29.4,29.4,0,0,1-3-5.5c-.8-1.8-1.3-3.7-1.9-5.5A39.6,39.6,0,0,0,68.3,99a30.9,30.9,0,0,0-8.7-7.4A46,46,0,0,1,50.1,84,46,46,0,0,1,43,73.7v1.1l1.8-6.1H42c3,8.3,9.6,14.9,16.5,20.2,3,2.4,6.1,4.7,8.4,7.8a52.2,52.2,0,0,1,5.8,10c.6,1.2,2.4.8,2.8-.4C80.7,88.2,86,70.1,93,52.6l-2.5.7,2.6,2.3-.4-1.4c-1.2,3.5-2.4,7.1-3.4,10.7s-1.6,7.4-2.6,11c-2,7.5-4.6,14.9-7,22.3-1.9,5.6-4.5,11.8-2.1,17.7,1.3,3.1,3.6,5.7,5.4,8.5s3.8,6.2,5.8,9.3c3.8,6.1,8.4,12,8.8,19.4.1,1.4,2.2,2.3,2.8.8,2.8-6.7,4.4-13.8,7.2-20.5,1.5-3.6,3.1-7.2,4.7-10.7a83.8,83.8,0,0,1,4.7-9.5c3.2-5.2,7.5-9.8,9.6-15.6a37.9,37.9,0,0,0,1.7-9.4l.9-9.3c.8-7.3,2.4-14.3,6.8-20.4l-2.1.6,2.1,1.4-.7-1.7a85.1,85.1,0,0,0-4.4,13.8c-1.1,4.7-1.3,9.4-1.7,14.2a39.1,39.1,0,0,1-3.6,13.9c-2.1,4.4-4.3,8.8-6.5,13.1-4.3,8.5-9.1,16.7-12.9,25.4a64.7,64.7,0,0,0-4.5,13.7,89.4,89.4,0,0,0-1.6,14.6c-.5,11.2-1.2,22.6-.2,33.8.2,1.1,1.7,2.1,2.6,1,3-3.6,6.3-7,9.4-10.5s5.3-6.7,6-11,.2-7.9.2-11.8a124.4,124.4,0,0,1,.8-13.7,77.1,77.1,0,0,1,3.5-15.5l-2.2.9,1.8.9-.7-1.7c-4.1,14.4-3.8,29.4-3.3,44.2.1,1.1,1.7,2.1,2.6,1a50.1,50.1,0,0,0,7-11.2,63.3,63.3,0,0,1,7.8-12,44.6,44.6,0,0,1,9-9.4,76,76,0,0,1,10.8-6c4-2,8.2-3.9,12-6.3l-2-.6,1.4,2.2.5-2c-9.5,6.9-20.6,11.6-29,19.9a38,38,0,0,0-5.4,6.6,50.8,50.8,0,0,0-3.6,8.3c-1.9,5.5-3.5,11.1-8.1,15.1s-8.1,5.9-11.5,9.6a20.6,20.6,0,0,0-5.1,12.6,62.8,62.8,0,0,0,.1,9.7c.1,3.7.3,7.3.6,11a156.8,156.8,0,0,0,3.1,21.5,77.8,77.8,0,0,0,8.5,21.9c4,7,8.7,13.6,13,20.5C130.7,298.1,133.3,296.6,132.3,295Z" transform="translate(0 0)" style="fill:#af7553"/><path d="M162.3,59.3c-6.6-7.9-16.4-11.7-25.3-15.4,11.3-15.4,7.5-36-13-41.6C109.5-1.4,97.3,8.6,89.4,19.4c-15-5.7-33.2-10.6-49.1-5.9-11.7,3.7-13.1,10.3-3.2,17.3C22.1,33.1,9,39.7,4.3,55.1s6.1,23.8,20.1,27.6c-18.2,18.6-35.5,51.4-10.2,72.8l1.7,1.4.4.3,1.8,1.3h.1l1.7,1,.4.2,1.8.9h.2l1.6.6.4.2,1.8.5h.2l1.6.4h.4l1.8.3h.3l1.5.2h4.3l1.8-.2h.3l1.6-.3h.2l1.7-.5h.4l1.5-.5H44l1.6-.7.5-.2,1.4-.6h.2l1.6-.9.5-.2,1.4-.9h.2l1.5-1,.4-.3,1.5-1h0a73.8,73.8,0,0,0,16.4-17.1c17.2,21,37.3-22,41.1-34.6,7.2,6.7,15.3,12.8,23.9,14.2h7.5l.6-.2,1-.2h.5l1.2-.4.5-.2.8-.3.6-.3.8-.4.6-.3.8-.4.5-.4.9-.5.5-.4.9-.7.5-.3,1.3-1.1C169.7,99,174.4,74.7,162.3,59.3Z" transform="translate(0 0)" style="fill:#6c9433"/><path d="M163.3,58.2c-6.6-8-16.5-11.8-25.9-15.8l.9,2.2c6.7-9.1,9-22,2.8-32A27.1,27.1,0,0,0,127.4,1.8,26.4,26.4,0,0,0,116.6,0a29.1,29.1,0,0,0-10.5,2.7c-7.4,3.4-13.2,9.5-18,15.9l1.7-.7c-11-4.1-22.5-7.5-34.2-7.7a45.2,45.2,0,0,0-17.1,2.4c-3.7,1.3-8.3,3.6-9.3,7.8s3.5,9.1,7.1,11.7l.4-2.7C25.3,31.1,13.8,35.7,7.1,45.6,3.8,50.6,1.5,56.9,1.7,63A19,19,0,0,0,7.8,76.2c4.5,4.1,10.4,6.3,16.2,7.9l-.6-2.5A99.5,99.5,0,0,0,9,100.2c-3.9,6.8-7.1,14.2-8.4,22a36.2,36.2,0,0,0,22.6,40.5c9.9,3.7,20.4,1.1,29.1-4.3l3.3-2.2a1.5,1.5,0,0,0-.4-2.7h0l.4,2.7a74.8,74.8,0,0,0,16.9-17.7l-2.4.4c2.8,3.3,6.6,6.1,11.2,6.1s7.9-2.3,11-4.9a47.8,47.8,0,0,0,9.3-11.2,99.1,99.1,0,0,0,7.3-13.1,90.8,90.8,0,0,0,4.8-12.2l-2.5.7c6.1,5.6,12.9,11.1,21,13.7a23.9,23.9,0,0,0,22.2-3.9c10.8-8,16.8-21.7,16.3-35.1a35.8,35.8,0,0,0-7.4-20.8,1.5,1.5,0,0,0-2.1,0,1.7,1.7,0,0,0,0,2.2c7.6,9.7,8.1,23.3,3.8,34.6a37.2,37.2,0,0,1-9.9,14.7,25.2,25.2,0,0,1-9.7,5.7,20.3,20.3,0,0,1-10.1.3c-8.5-1.9-15.7-7.8-22-13.5a1.5,1.5,0,0,0-2.5.6,39.6,39.6,0,0,1-1.5,4.5l-1.1,2.6a7.6,7.6,0,0,1-.4,1.1,10.1,10.1,0,0,0-.7,1.5,109.4,109.4,0,0,1-6.7,12.7,54.5,54.5,0,0,1-8.5,11.1,22.1,22.1,0,0,1-4.5,3.7l-1.2.7-.6.3h-.3c-.3.2.2,0-.1.1l-2.6.7H78.9l-.7-.3h-.3c-.3-.1.2.1-.2,0a16.1,16.1,0,0,1-5.5-4.6c-.6-.8-1.8-.4-2.3.3a71.3,71.3,0,0,1-15.8,16.6c-1.1.8-1,2.4.3,2.7h0l-.3-2.7c-7.7,5.6-17.2,9.5-26.8,7.2s-15.9-8.4-20.2-15.9-4.6-13.3-3.8-20.4,3.6-14.3,7.2-20.7A90.3,90.3,0,0,1,23.7,85.7l1.8-2a1.5,1.5,0,0,0-.7-2.5c-4.8-1.3-9.7-3-13.7-6.1A15.6,15.6,0,0,1,4.9,64.5C4.2,59,6,53.3,8.8,48.6A30.3,30.3,0,0,1,20,37.9c5.3-3.1,11.4-4.7,17.5-5.7,1.4-.2,1.2-2,.3-2.7a19.2,19.2,0,0,1-4.6-4.4,6.2,6.2,0,0,1-1-2,3.3,3.3,0,0,1-.1-1.7,2.7,2.7,0,0,1,.6-1.6,7.3,7.3,0,0,1,1.5-1.6,18.1,18.1,0,0,1,5.5-2.9,41.7,41.7,0,0,1,15.7-2.1,73.5,73.5,0,0,1,16.2,2.2A152.2,152.2,0,0,1,89,20.8a1.7,1.7,0,0,0,1.7-.7A48.6,48.6,0,0,1,105.3,6.5C111.2,3.2,117.9,2,124.5,4a24.8,24.8,0,0,1,13.1,8.8,21.7,21.7,0,0,1,4.1,13.7,28.8,28.8,0,0,1-6,16.6,1.5,1.5,0,0,0,.9,2.2c8.9,3.8,18.3,7.4,24.6,15.1a1.5,1.5,0,0,0,2.1,0A1.7,1.7,0,0,0,163.3,58.2Z" transform="translate(0 0)" style="fill:#507125"/><g style="clip-path:url(#clip-path)"><path d="M140.4,40.9c-4-4.8-9.8-7-15.2-9.2,6.8-9.3,4.5-21.6-7.8-24.9-8.7-2.3-15.9,3.7-20.7,10.2-9-3.4-19.9-6.3-29.4-3.5-7,2.2-7.8,6.1-1.9,10.3-9,1.4-16.8,5.3-19.6,14.6s3.6,14.3,12,16.5C46.9,66.1,36.5,85.7,51.6,98.6l1.1.8.3.2,1,.7h.1l1,.6.2.2,1.1.5h.1l1,.4h.2l1.1.3h.1l1,.2h.2l1.1.2h3.7l1-.2h.2l.9-.2h.2l1-.3h.3l.9-.3h.1l1-.4.3-.2.8-.4h.2l.9-.5.3-.2.9-.5H74l.8-.5.3-.2.9-.6h0a43.5,43.5,0,0,0,9.8-10.3c10.3,12.6,22.4-13.1,24.6-20.7,4.3,4,9.2,7.6,14.3,8.5h5.8l.7-.2.3-.2.5-.2h.4l.4-.2.4-.2.4-.3.4-.2.5-.3.3-.2.5-.4.3-.3.8-.6C144.8,64.7,147.6,50.1,140.4,40.9Z" transform="translate(0 0)" style="fill:#c3bf4f"/><path d="M84.8,40.7c-2.4-2.9-6-4.3-9.3-5.7,4.2-5.7,2.8-13.3-4.8-15.3C65.3,18.3,60.9,22,57.9,26c-5.5-2.1-12.2-3.9-18.1-2.2-4.3,1.4-4.8,3.8-1.2,6.4-5.5.8-10.3,3.3-12.1,8.9s2.3,8.8,7.5,10.2c-6.8,6.9-13.1,19-3.8,26.9l.6.5H31l.6.5h.1l.6.4h.1l.7.3h.1l.6.3h.1l.7.2h.1l.6.2h4.4a.1.1,0,0,1,.1-.1h.7l.6-.2h.1l.6-.3h.1l.6-.3h.1l.5-.3h.2l.6-.3h0l.6-.3h.1l.6-.4h0a27.6,27.6,0,0,0,6-6.3c6.4,7.7,13.8-8.1,15.2-12.8,2.6,2.5,5.6,4.7,8.8,5.2h3.4a.1.1,0,0,0,.1-.1h1.7l.3-.2h.2l.3-.2.2-.2.3-.2h.2l.5-.5C87.6,55.4,89.3,46.4,84.8,40.7Z" transform="translate(0 0)" style="fill:#c3bf4f"/><path d="M155,72.6c-1.7-2-4.3-3-6.6-4,2.9-4,2-9.4-3.4-10.8-3.8-1-6.9,1.6-9,4.4-3.9-1.4-8.7-2.7-12.8-1.5s-3.4,2.7-.8,4.5c-3.9.6-7.4,2.3-8.6,6.3s1.6,6.3,5.3,7.2c-4.8,4.9-9.3,13.4-2.7,19,.1.2.3.3.4.4h.2l.4.3h0l.5.3h.1l.5.3h5.6c0-.1,0-.1.1-.1h.5l.4-.2h0l.5-.2h.1l.4-.2h0l.4-.3a.1.1,0,0,0,.1-.1l.4-.2h0a22.3,22.3,0,0,0,4.2-4.5c4.6,5.5,9.8-5.7,10.8-9,1.8,1.7,4,3.3,6.2,3.7h3.2a.1.1,0,0,0,.1-.1h.4c0-.1.1-.1.2-.2h.1c.1-.1.2-.1.2-.2h.2l.2-.2h.1l.4-.3C156.9,83,158.2,76.7,155,72.6Z" transform="translate(0 0)" style="fill:#c3bf4f"/><path d="M83.8,29.4a5.9,5.9,0,0,0-2.9-1.8c1.3-1.8.9-4.2-1.5-4.8s-3.1.7-4,1.9c-1.8-.6-3.9-1.2-5.7-.6s-1.5,1.1-.4,2a4.1,4.1,0,0,0-3.8,2.8c-.5,1.9.7,2.7,2.3,3.2-2.1,2.1-4.1,5.9-1.2,8.4.1.1.2.1.2.2h.1l.2.2h.5c0,.1.1.1.2.1h3.4c0-.1.1-.1.2-.1h0a11.9,11.9,0,0,0,1.9-2c2,2.4,4.3-2.6,4.7-4a7.2,7.2,0,0,0,2.8,1.6h1a.1.1,0,0,0,.1-.1h1.2A4.6,4.6,0,0,0,83.8,29.4Z" transform="translate(0 0)" style="fill:#ffeb81"/><path d="M121.1,29.7a5.5,5.5,0,0,0-2.1-1.2,2.1,2.1,0,0,0-1-3.4,2.7,2.7,0,0,0-2.8,1.4,7.8,7.8,0,0,0-4-.5c-.9.3-1,.9-.2,1.4a3.2,3.2,0,0,0-2.7,2c-.3,1.3.5,1.9,1.7,2.2-1.5,1.5-2.9,4.2-.9,5.9h.7a.1.1,0,0,1,.1.1h1.8a.1.1,0,0,1,.1-.1h.2a.1.1,0,0,0,.1-.1h.2a.1.1,0,0,0,.1-.1h0a4,4,0,0,0,1.3-1.3c1.4,1.7,3-1.8,3.3-2.8a4.4,4.4,0,0,0,2,1.1h.7c.1,0,.1,0,.1-.1h.4a.1.1,0,0,1,.1-.1h0a.1.1,0,0,0,.1-.1h0a.1.1,0,0,0,.1-.1A3.2,3.2,0,0,0,121.1,29.7Z" transform="translate(0 0)" style="fill:#ffeb81"/><path d="M78.2,99.6c-2.2-2.7-5.5-3.9-8.4-5.2,3.7-5.2,2.5-12.1-4.4-14-4.9-1.2-9,2.2-11.6,5.8-5.1-1.9-11.2-3.6-16.5-2s-4.4,3.5-1.1,5.8c-5.1.8-9.4,3-11,8.2s2,8,6.7,9.2c-6.1,6.3-11.9,17.3-3.4,24.5l.6.5h.1l.6.4h0l.6.4h.1l.6.3h.1l.6.2h.1l.6.2h.1l.5.2h5.4l.5-.2h.2l.5-.2h.1l.5-.3h.1l.5-.3H41l.5-.3h.1l.5-.4h0a21.3,21.3,0,0,0,5.5-5.7c5.8,7,12.6-7.4,13.8-11.6,2.5,2.2,5.2,4.2,8.1,4.7h2.3c0-.1.1-.1.2-.1h2.5c0-.1.1-.1.2-.2h.2l.2-.2.3-.2h.2c.1-.1.3-.2.4-.4C80.8,112.9,82.3,104.8,78.2,99.6Z" transform="translate(0 0)" style="fill:#c3bf4f"/></g><path d="M163.3,58.2c-6.6-8-16.5-11.8-25.9-15.8l.9,2.2c6.7-9.1,9-22,2.8-32A27.1,27.1,0,0,0,127.4,1.8,26.4,26.4,0,0,0,116.6,0a29.1,29.1,0,0,0-10.5,2.7c-7.4,3.4-13.2,9.5-18,15.9l1.7-.7c-11-4.1-22.5-7.5-34.2-7.7a45.2,45.2,0,0,0-17.1,2.4c-3.7,1.3-8.3,3.6-9.3,7.8s3.5,9.1,7.1,11.7l.4-2.7C25.3,31.1,13.8,35.7,7.1,45.6,3.8,50.6,1.5,56.9,1.7,63A19,19,0,0,0,7.8,76.2c4.5,4.1,10.4,6.3,16.2,7.9l-.6-2.5A99.5,99.5,0,0,0,9,100.2c-3.9,6.8-7.1,14.2-8.4,22a36.2,36.2,0,0,0,22.6,40.5c9.9,3.7,20.4,1.1,29.1-4.3l3.3-2.2a1.5,1.5,0,0,0-.4-2.7h0l.4,2.7a74.8,74.8,0,0,0,16.9-17.7l-2.4.4c2.8,3.3,6.6,6.1,11.2,6.1s7.9-2.3,11-4.9a47.8,47.8,0,0,0,9.3-11.2,99.1,99.1,0,0,0,7.3-13.1,90.8,90.8,0,0,0,4.8-12.2l-2.5.7c6.1,5.6,12.9,11.1,21,13.7a23.9,23.9,0,0,0,22.2-3.9c10.8-8,16.8-21.7,16.3-35.1a35.8,35.8,0,0,0-7.4-20.8,1.5,1.5,0,0,0-2.1,0,1.7,1.7,0,0,0,0,2.2c7.6,9.7,8.1,23.3,3.8,34.6a37.2,37.2,0,0,1-9.9,14.7,25.2,25.2,0,0,1-9.7,5.7,20.3,20.3,0,0,1-10.1.3c-8.5-1.9-15.7-7.8-22-13.5a1.5,1.5,0,0,0-2.5.6,39.6,39.6,0,0,1-1.5,4.5l-1.1,2.6a7.6,7.6,0,0,1-.4,1.1,10.1,10.1,0,0,0-.7,1.5,109.4,109.4,0,0,1-6.7,12.7,54.5,54.5,0,0,1-8.5,11.1,22.1,22.1,0,0,1-4.5,3.7l-1.2.7-.6.3h-.3c-.3.2.2,0-.1.1l-2.6.7H78.9l-.7-.3h-.3c-.3-.1.2.1-.2,0a16.1,16.1,0,0,1-5.5-4.6c-.6-.8-1.8-.4-2.3.3a71.3,71.3,0,0,1-15.8,16.6c-1.1.8-1,2.4.3,2.7h0l-.3-2.7c-7.7,5.6-17.2,9.5-26.8,7.2s-15.9-8.4-20.2-15.9-4.6-13.3-3.8-20.4,3.6-14.3,7.2-20.7A90.3,90.3,0,0,1,23.7,85.7l1.8-2a1.5,1.5,0,0,0-.7-2.5c-4.8-1.3-9.7-3-13.7-6.1A15.6,15.6,0,0,1,4.9,64.5C4.2,59,6,53.3,8.8,48.6A30.3,30.3,0,0,1,20,37.9c5.3-3.1,11.4-4.7,17.5-5.7,1.4-.2,1.2-2,.3-2.7a19.2,19.2,0,0,1-4.6-4.4,6.2,6.2,0,0,1-1-2,3.3,3.3,0,0,1-.1-1.7,2.7,2.7,0,0,1,.6-1.6,7.3,7.3,0,0,1,1.5-1.6,18.1,18.1,0,0,1,5.5-2.9,41.7,41.7,0,0,1,15.7-2.1,73.5,73.5,0,0,1,16.2,2.2A152.2,152.2,0,0,1,89,20.8a1.7,1.7,0,0,0,1.7-.7A48.6,48.6,0,0,1,105.3,6.5C111.2,3.2,117.9,2,124.5,4a24.8,24.8,0,0,1,13.1,8.8,21.7,21.7,0,0,1,4.1,13.7,28.8,28.8,0,0,1-6,16.6,1.5,1.5,0,0,0,.9,2.2c8.9,3.8,18.3,7.4,24.6,15.1a1.5,1.5,0,0,0,2.1,0A1.7,1.7,0,0,0,163.3,58.2Z" transform="translate(0 0)" style="fill:#507125"/><path d="M93.1,219.2h0l-.9-1.4h0l-.5-.5h-.1a5.2,5.2,0,0,0-1.1-1h-.1l-1.3-.7a.1.1,0,0,1-.1-.1l-.6-.2h-.1l-.7-.2H83.9l-.9.2h-.2l-.8.2h-.1l-1,.4h-.2l-.8.5h-.2l-1,.7h-.2l-.9.6-.2.2-1.1.9c-4.7-7-11.2-13.1-17.8-4.2-5.1,7-3.2,14.9,3.3,20.5-5.6,5.6-15.4,18.7-.9,20.6h3.8l.8-.2.9-.2h.5c7-2,13.2-8.3,16.9-14.1C94.4,236.4,96.4,225.4,93.1,219.2Z" transform="translate(0 0)" style="fill:#6c9433"/><path d="M94.4,218.4a9.7,9.7,0,0,0-8.9-5.3c-4,.3-7.4,2.4-10.3,4.9l2.4.3c-3-4.5-8.4-11.2-14.7-8.9-3.3,1.3-5.9,4.5-7.4,7.7a14.9,14.9,0,0,0-1,9.8,18.3,18.3,0,0,0,6.3,9.6v-2.1a41.6,41.6,0,0,0-6,7.3c-1.6,2.5-3.2,5.6-3,8.7a7.9,7.9,0,0,0,1.7,4.1A11.1,11.1,0,0,0,58,257c5.1,1.4,10.4,0,14.8-2.6A38.3,38.3,0,0,0,85.1,242l-.6.6a20.2,20.2,0,0,0,9.3-8.5,17.6,17.6,0,0,0,2.1-10.3,14.5,14.5,0,0,0-1.5-5.4,1.6,1.6,0,0,0-2.1-.5,1.5,1.5,0,0,0-.5,2l.3.7c.1.2,0-.1,0-.1v.2l.2.4a7.5,7.5,0,0,1,.4,1.6,1.9,1.9,0,0,1,.2.8c0,.1.1.3,0,.1a4.3,4.3,0,0,1,.1.5v2.6a.8.8,0,0,1-.1.4v.2l-.3,1.8-.6,1.8-.2.4c.1-.2,0,.2-.1.2l-.4.9a15.6,15.6,0,0,1-5.4,6l-2,1.2a2.9,2.9,0,0,0-1.3.8c-.3.3-.5.8-.8,1.1a37.9,37.9,0,0,1-3,4,33,33,0,0,1-8.2,6.7,16.6,16.6,0,0,1-9.7,2.3l-2.1-.4-.9-.3h-.3l-.3-.2-.7-.3-.3-.3h-.1c-.2-.1.2.2,0,.1l-.5-.5-.2-.2c-.1-.2.2.2,0-.1l-.3-.5c-.1,0-.2-.4-.1-.2s0-.1-.1-.1-.1-.4-.1-.6-.1-.4,0-.2-.1-.1-.1-.2v-.6a.4.4,0,0,1,.1-.3v-.2c-.1.2,0-.2,0-.3a.4.4,0,0,1,.1-.3c0-.2.1-.5.1-.7a7.8,7.8,0,0,0,.5-1.4c.1-.3-.1.2.1-.1s.1-.2.1-.4a2.5,2.5,0,0,0,.4-.7,17.5,17.5,0,0,1,1.8-2.9l.9-1.4.3-.3h.1l.5-.7,2.1-2.4,1-1a1.5,1.5,0,0,0,0-2.1,16.4,16.4,0,0,1-5.1-7.1,11.9,11.9,0,0,1-.1-7.7,13,13,0,0,1,5.4-7,5.1,5.1,0,0,1,3-.6h.4l.9.2h.2l.4.2.8.5c2.5,1.5,4.5,4.2,6.2,6.7a1.6,1.6,0,0,0,2.4.4c2.1-1.9,4.9-3.8,7.8-4a5.9,5.9,0,0,1,3.9.8,4.3,4.3,0,0,1,1.6,1.4c.2.1.3.3.4.4v.2l.6.9C92.7,221.6,95.3,220.1,94.4,218.4Z" transform="translate(0 0)" style="fill:#507125"/><path d="M80.9,219.9h-.1a1.6,1.6,0,0,0-.4-.7h0l-.2-.3h0l-.6-.5h0L79,218H75.5l-.4.2H75l-.4.2h-.1l-.5.3h-.1l-.4.3h-.1l-.5.4c-2.2-3.3-5.4-6.2-8.5-2s-1.5,7.1,1.6,9.8c-2.7,2.7-7.3,8.9-.5,9.8h2.9c3.3-1,6.3-4,8-6.7C81.5,228,82.4,222.8,80.9,219.9Z" transform="translate(0 0)" style="fill:#c3bf4f"/><path d="M77.5,234.2h0l-.4-.5h0l-.2-.2h0l-.4-.4h-.1l-.5-.3H73.1l-.4.2h-.1l-.3.2h-.1l-.4.3h0l-.4.3h-.1l-.4.3c-1.8-2.7-4.4-5.1-6.9-1.6s-1.3,5.8,1.3,8c-2.2,2.2-6,7.3-.4,8h2.3c2.8-.8,5.2-3.3,6.6-5.5C78,240.9,78.8,236.7,77.5,234.2Z" transform="translate(0 0)" style="fill:#c3bf4f"/><path d="M94.4,218.4a9.7,9.7,0,0,0-8.9-5.3c-4,.3-7.4,2.4-10.3,4.9l2.4.3c-3-4.5-8.4-11.2-14.7-8.9-3.3,1.3-5.9,4.5-7.4,7.7a14.9,14.9,0,0,0-1,9.8,18.3,18.3,0,0,0,6.3,9.6v-2.1a41.6,41.6,0,0,0-6,7.3c-1.6,2.5-3.2,5.6-3,8.7a7.9,7.9,0,0,0,1.7,4.1A11.1,11.1,0,0,0,58,257c5.1,1.4,10.4,0,14.8-2.6A38.3,38.3,0,0,0,85.1,242l-.6.6a20.2,20.2,0,0,0,9.3-8.5,17.6,17.6,0,0,0,2.1-10.3,14.5,14.5,0,0,0-1.5-5.4,1.6,1.6,0,0,0-2.1-.5,1.5,1.5,0,0,0-.5,2l.3.7c.1.2,0-.1,0-.1v.2l.2.4a7.5,7.5,0,0,1,.4,1.6,1.9,1.9,0,0,1,.2.8c0,.1.1.3,0,.1a4.3,4.3,0,0,1,.1.5v2.6a.8.8,0,0,1-.1.4v.2l-.3,1.8-.6,1.8-.2.4c.1-.2,0,.2-.1.2l-.4.9a15.6,15.6,0,0,1-5.4,6l-2,1.2a2.9,2.9,0,0,0-1.3.8c-.3.3-.5.8-.8,1.1a37.9,37.9,0,0,1-3,4,33,33,0,0,1-8.2,6.7,16.6,16.6,0,0,1-9.7,2.3l-2.1-.4-.9-.3h-.3l-.3-.2-.7-.3-.3-.3h-.1c-.2-.1.2.2,0,.1l-.5-.5-.2-.2c-.1-.2.2.2,0-.1l-.3-.5c-.1,0-.2-.4-.1-.2s0-.1-.1-.1-.1-.4-.1-.6-.1-.4,0-.2-.1-.1-.1-.2v-.6a.4.4,0,0,1,.1-.3v-.2c-.1.2,0-.2,0-.3a.4.4,0,0,1,.1-.3c0-.2.1-.5.1-.7a7.8,7.8,0,0,0,.5-1.4c.1-.3-.1.2.1-.1s.1-.2.1-.4a2.5,2.5,0,0,0,.4-.7,17.5,17.5,0,0,1,1.8-2.9l.9-1.4.3-.3h.1l.5-.7,2.1-2.4,1-1a1.5,1.5,0,0,0,0-2.1,16.4,16.4,0,0,1-5.1-7.1,11.9,11.9,0,0,1-.1-7.7,13,13,0,0,1,5.4-7,5.1,5.1,0,0,1,3-.6h.4l.9.2h.2l.4.2.8.5c2.5,1.5,4.5,4.2,6.2,6.7a1.6,1.6,0,0,0,2.4.4c2.1-1.9,4.9-3.8,7.8-4a5.9,5.9,0,0,1,3.9.8,4.3,4.3,0,0,1,1.6,1.4c.2.1.3.3.4.4v.2l.6.9C92.7,221.6,95.3,220.1,94.4,218.4Z" transform="translate(0 0)" style="fill:#507125"/><path d="M167.2,159.3c4.2-5.6,8.4-11.2,11.7-17.3,6.5-12.6,7.5-29.4-8-35.9-18.2-8.5-29.9,8.4-36.9,22.8-18.7-4.6-28.5,5.2-29.9,23.9a6.2,6.2,0,0,1-.1,1.3v3.4a9.2,9.2,0,0,0,.1,1.6h0a27,27,0,0,0,1.2,6.9h0c.9,3.1,2.4,5.8,4.9,7.3,5.6,2.8,14-1.6,18.7-4.4A70.5,70.5,0,0,0,142,184.5c9.7,8,23.1,8,32.1-.7h0l1.5-1.6C185.9,171.5,178.9,163.1,167.2,159.3Z" transform="translate(0 0)" style="fill:#6c9433"/><path d="M168.5,160.1c5.5-7.4,11.4-14.9,14.4-23.6,2.1-6.3,2.9-13.6.5-19.9a20.3,20.3,0,0,0-5.7-8.2,27.9,27.9,0,0,0-10.6-5.3,20.5,20.5,0,0,0-11-.1,25.3,25.3,0,0,0-9.2,5.1c-5.6,4.7-9.7,11.3-13,17.7l-1.2,2.4,1.7-.7c-7.1-1.8-15.3-2-21.6,2.5s-8.7,11.7-9.7,18.8a43.4,43.4,0,0,0,.7,17.6,1.5,1.5,0,0,0,2.9,0h-2.9c1.2,4.1,3.7,8.3,8.2,9.1s8.4-.6,12.1-2.4a41.4,41.4,0,0,0,5.5-2.9l-2-.5a70.8,70.8,0,0,0,6.5,9l3.6,3.9,3.8,3.5a27,27,0,0,0,17.3,5.8,24.7,24.7,0,0,0,16.4-7c4.1-4,8.3-9.6,6.5-15.7s-8.5-9.5-14.1-11.3a1.4,1.4,0,0,0-1.8,1,1.5,1.5,0,0,0,1,1.9,26.4,26.4,0,0,1,7.4,3.5,16.4,16.4,0,0,1,2.5,2.2l.8,1,.9,1.5c0,.1.1.2.1.3h0l.3.8c.1.2.1.5.2.7v.4h0a.4.4,0,0,1,.1.3V173s-.1.5-.1.2v.4a2.9,2.9,0,0,0-.2.9,19.5,19.5,0,0,1-4.5,7,22.1,22.1,0,0,1-14.3,7.3,22.9,22.9,0,0,1-15.4-4.2,29.2,29.2,0,0,1-3.8-3.2l-4-4.2a60.4,60.4,0,0,1-6.6-9.1,1.6,1.6,0,0,0-2.1-.5,42.3,42.3,0,0,1-9.4,4.4,14.1,14.1,0,0,1-5,.7,6.8,6.8,0,0,1-2.3-.5l-.8-.4-1-.8a13.5,13.5,0,0,1-2.9-5.4c-.4-1.3-2.6-1.5-2.9,0h2.9a41.4,41.4,0,0,1-.9-14.9c.2-1.7.6-3.7,1-5.5a25.8,25.8,0,0,1,.8-2.6c.1-.4.3-.8.4-1.2a1.4,1.4,0,0,0,.2-.6c.1-.2.1,0,0,0a.5.5,0,0,0,.2-.4,28.6,28.6,0,0,1,2.4-4.2l.4-.5c-.2.3,0-.1.1-.1l.8-1,1.6-1.5.4-.3.3-.2.9-.6,2-1.1h.4c-.2.1,0,0,.1,0h.3l1.1-.4,2.3-.6h5.6a38.4,38.4,0,0,1,6.5,1.1,1.6,1.6,0,0,0,1.7-.7c3.1-6.3,6.6-12.5,11.6-17.5a26.4,26.4,0,0,1,7.7-5.5c.3-.1.2,0,.1,0h.3l.5-.2,1.2-.4,2.4-.5s.3-.1.1-.1h2.1a11.8,11.8,0,0,1,2.6.2h1l1.4.3,2.8,1a28.2,28.2,0,0,1,4.9,2.5,14.5,14.5,0,0,1,3.5,3.1,10.1,10.1,0,0,1,1.3,1.6,12.8,12.8,0,0,1,1.1,2l.3.5c0,.1.2.4.1.3s.1.2.1.2.1.2.1.3.1.4.2.6a7.9,7.9,0,0,1,.6,2.2,3,3,0,0,1,.2,1,.7.7,0,0,1,.1.5.4.4,0,0,1,.1.3c-.1-.2,0,0,0,.1s.1,1.6.2,2.4a18.5,18.5,0,0,1-.1,2.3,4.9,4.9,0,0,1-.1,1.2v.5a.4.4,0,0,0-.1.3v.2a35.6,35.6,0,0,1-1,4.7,42.7,42.7,0,0,1-4.1,9.6,130.7,130.7,0,0,1-8.3,12.2l-2.3,3.1a1.5,1.5,0,0,0,.5,2A1.6,1.6,0,0,0,168.5,160.1Z" transform="translate(0 0)" style="fill:#507125"/><g style="clip-path:url(#clip-path-2)"><path d="M157.7,136.7a81.1,81.1,0,0,0,6.6-9.9c3.7-7.2,4.3-16.7-4.5-20.5-10.4-4.8-17,4.8-21,13.1-10.7-2.7-16.3,2.9-17.1,13.5v2.6h0v.9h0a18.7,18.7,0,0,0,.7,4h0a6.8,6.8,0,0,0,2.8,4.1c3.2,1.6,8-.9,10.6-2.5a40.3,40.3,0,0,0,7.5,8.9c5.5,4.5,13.2,4.6,18.3-.4h0l.8-.9C168.3,143.6,164.3,138.8,157.7,136.7Z" transform="translate(0 0)" style="fill:#c3bf4f"/><path d="M136,152.3a56.3,56.3,0,0,0,4.8-7.2c2.7-5.2,3.1-12.2-3.3-14.9s-12.3,3.5-15.3,9.5c-7.7-1.9-11.8,2.1-12.3,9.9,0,.2-.1.3-.1.5v1.3h0v.7h.1a13.5,13.5,0,0,0,.4,2.9h0a5.5,5.5,0,0,0,2.1,3c2.3,1.2,5.8-.7,7.7-1.8a30.5,30.5,0,0,0,5.4,6.4c4.1,3.3,9.6,3.3,13.3-.3h0l.7-.6C143.7,157.3,140.8,153.8,136,152.3Z" transform="translate(0 0)" style="fill:#c3bf4f"/><path d="M170.2,134.4a35.4,35.4,0,0,0,3.5-5.1c1.9-3.7,2.2-8.7-2.4-10.6s-8.8,2.5-10.9,6.7c-5.5-1.3-8.4,1.6-8.8,7.1v.4h0a.4.4,0,0,1-.1.3h0v.4h.1v.4h0a7.6,7.6,0,0,0,.3,2.1h0a3.3,3.3,0,0,0,1.5,2.1c1.6.9,4.1-.4,5.5-1.3a22.2,22.2,0,0,0,3.9,4.7,6.9,6.9,0,0,0,9.4-.3h.1l.4-.4C175.7,138,173.7,135.5,170.2,134.4Z" transform="translate(0 0)" style="fill:#c3bf4f"/><path d="M167.6,121.3a26.4,26.4,0,0,0,2.3-3.5c1.3-2.5,1.5-5.8-1.6-7.1s-5.9,1.6-7.3,4.5c-3.7-.9-5.7,1.1-6,4.8v.2h0v.2h0v.3h0v.3h0a5.9,5.9,0,0,0,.2,1.4h0a2.7,2.7,0,0,0,1,1.5c1.1.5,2.8-.3,3.8-.9a11,11,0,0,0,2.6,3.1,4.8,4.8,0,0,0,6.4-.1h0l.3-.4C171.3,123.7,169.9,122,167.6,121.3Z" transform="translate(0 0)" style="fill:#ffeb81"/><path d="M146.6,130.3a16.4,16.4,0,0,0,1.4-2.2c.8-1.5.9-3.6-1-4.4s-3.6,1-4.5,2.8c-2.3-.5-3.5.7-3.7,3h0v.2h0c0,.2.1.5.1.8h0a1.5,1.5,0,0,0,.6.9c.7.4,1.8-.2,2.4-.5a7.4,7.4,0,0,0,1.6,1.9,2.8,2.8,0,0,0,3.9-.1h0l.2-.2C148.9,131.8,148,130.7,146.6,130.3Z" transform="translate(0 0)" style="fill:#ffeb81"/><path d="M159.5,168.6a35.4,35.4,0,0,0,3.5-5.1c1.9-3.7,2.2-8.7-2.4-10.6s-8.8,2.5-10.9,6.8c-5.5-1.4-8.4,1.5-8.8,7v.4h0v.3h0v.4h0v.4h0a6.9,6.9,0,0,0,.3,2h0a4.4,4.4,0,0,0,1.5,2.2c1.7.8,4.1-.5,5.5-1.3a24.4,24.4,0,0,0,3.9,4.6,7.2,7.2,0,0,0,9.5-.2h0l.4-.5C165,172.2,163,169.7,159.5,168.6Z" transform="translate(0 0)" style="fill:#c3bf4f"/><path d="M152,157.5a54.5,54.5,0,0,0,4-5.8c2.2-4.3,2.5-10-2.7-12.2s-10.1,2.8-12.5,7.7c-6.3-1.5-9.6,1.8-10.1,8.1v1.5h0v.5h0a10,10,0,0,0,.4,2.4h0a3.8,3.8,0,0,0,1.7,2.4c1.9,1,4.7-.5,6.3-1.5a22.6,22.6,0,0,0,4.4,5.3,8,8,0,0,0,10.8-.2h.1l.5-.6C158.3,161.6,156,158.8,152,157.5Z" transform="translate(0 0)" style="fill:#c3bf4f"/></g><path d="M168.5,160.1c5.5-7.4,11.4-14.9,14.4-23.6,2.1-6.3,2.9-13.6.5-19.9a20.3,20.3,0,0,0-5.7-8.2,27.9,27.9,0,0,0-10.6-5.3,20.5,20.5,0,0,0-11-.1,25.3,25.3,0,0,0-9.2,5.1c-5.6,4.7-9.7,11.3-13,17.7l-1.2,2.4,1.7-.7c-7.1-1.8-15.3-2-21.6,2.5s-8.7,11.7-9.7,18.8a43.4,43.4,0,0,0,.7,17.6,1.5,1.5,0,0,0,2.9,0h-2.9c1.2,4.1,3.7,8.3,8.2,9.1s8.4-.6,12.1-2.4a41.4,41.4,0,0,0,5.5-2.9l-2-.5a70.8,70.8,0,0,0,6.5,9l3.6,3.9,3.8,3.5a27,27,0,0,0,17.3,5.8,24.7,24.7,0,0,0,16.4-7c4.1-4,8.3-9.6,6.5-15.7s-8.5-9.5-14.1-11.3a1.4,1.4,0,0,0-1.8,1,1.5,1.5,0,0,0,1,1.9,26.4,26.4,0,0,1,7.4,3.5,16.4,16.4,0,0,1,2.5,2.2l.8,1,.9,1.5c0,.1.1.2.1.3h0l.3.8c.1.2.1.5.2.7v.4h0a.4.4,0,0,1,.1.3V173s-.1.5-.1.2v.4a2.9,2.9,0,0,0-.2.9,19.5,19.5,0,0,1-4.5,7,22.1,22.1,0,0,1-14.3,7.3,22.9,22.9,0,0,1-15.4-4.2,29.2,29.2,0,0,1-3.8-3.2l-4-4.2a60.4,60.4,0,0,1-6.6-9.1,1.6,1.6,0,0,0-2.1-.5,42.3,42.3,0,0,1-9.4,4.4,14.1,14.1,0,0,1-5,.7,6.8,6.8,0,0,1-2.3-.5l-.8-.4-1-.8a13.5,13.5,0,0,1-2.9-5.4c-.4-1.3-2.6-1.5-2.9,0h2.9a41.4,41.4,0,0,1-.9-14.9c.2-1.7.6-3.7,1-5.5a25.8,25.8,0,0,1,.8-2.6c.1-.4.3-.8.4-1.2a1.4,1.4,0,0,0,.2-.6c.1-.2.1,0,0,0a.5.5,0,0,0,.2-.4,28.6,28.6,0,0,1,2.4-4.2l.4-.5c-.2.3,0-.1.1-.1l.8-1,1.6-1.5.4-.3.3-.2.9-.6,2-1.1h.4c-.2.1,0,0,.1,0h.3l1.1-.4,2.3-.6h5.6a38.4,38.4,0,0,1,6.5,1.1,1.6,1.6,0,0,0,1.7-.7c3.1-6.3,6.6-12.5,11.6-17.5a26.4,26.4,0,0,1,7.7-5.5c.3-.1.2,0,.1,0h.3l.5-.2,1.2-.4,2.4-.5s.3-.1.1-.1h2.1a11.8,11.8,0,0,1,2.6.2h1l1.4.3,2.8,1a28.2,28.2,0,0,1,4.9,2.5,14.5,14.5,0,0,1,3.5,3.1,10.1,10.1,0,0,1,1.3,1.6,12.8,12.8,0,0,1,1.1,2l.3.5c0,.1.2.4.1.3s.1.2.1.2.1.2.1.3.1.4.2.6a7.9,7.9,0,0,1,.6,2.2,3,3,0,0,1,.2,1,.7.7,0,0,1,.1.5.4.4,0,0,1,.1.3c-.1-.2,0,0,0,.1s.1,1.6.2,2.4a18.5,18.5,0,0,1-.1,2.3,4.9,4.9,0,0,1-.1,1.2v.5a.4.4,0,0,0-.1.3v.2a35.6,35.6,0,0,1-1,4.7,42.7,42.7,0,0,1-4.1,9.6,130.7,130.7,0,0,1-8.3,12.2l-2.3,3.1a1.5,1.5,0,0,0,.5,2A1.6,1.6,0,0,0,168.5,160.1Z" transform="translate(0 0)" style="fill:#507125"/><g style="clip-path:url(#clip-path-3)"><path d="M157.6,152.7a11,11,0,0,1-7.2-2.8,10.2,10.2,0,0,1-3.2-10.9,3.2,3.2,0,0,1,.5-3.4,3.3,3.3,0,0,1,2.4-1h.9a9,9,0,0,1,4-.9,11,11,0,0,1,7.2,2.8,10.2,10.2,0,0,1,3.2,10.9,3.2,3.2,0,0,1-2.9,4.4h-.9A9,9,0,0,1,157.6,152.7Z" transform="translate(0 0)" style="fill:#fcd54d"/><path d="M155,135.3a9.7,9.7,0,0,1,6.2,2.4c3.1,2.7,4,6.8,2.5,9.8a1.8,1.8,0,0,1,.1,2.3,1.8,1.8,0,0,1-1.3.6,1.9,1.9,0,0,1-1-.3,7.7,7.7,0,0,1-3.9,1.1,9.5,9.5,0,0,1-6.2-2.4c-3.1-2.8-4-6.8-2.6-9.9a1.9,1.9,0,0,1,0-2.3,1.9,1.9,0,0,1,1.3-.5,1.9,1.9,0,0,1,1,.3,6.8,6.8,0,0,1,3.9-1.1m0-3a11.6,11.6,0,0,0-4.2.8h-.7a4.9,4.9,0,0,0-3.5,1.5,4.7,4.7,0,0,0-1,4.4,11.8,11.8,0,0,0,3.8,12,12.5,12.5,0,0,0,8.2,3.2,9.9,9.9,0,0,0,4.2-.9h.7a4.6,4.6,0,0,0,3.5-1.6,4.5,4.5,0,0,0,1-4.3,11.7,11.7,0,0,0-3.8-12,12.5,12.5,0,0,0-8.2-3.2Z" transform="translate(0 0)" style="fill:#ff8d3d"/><g style="mix-blend-mode:soft-light"><path d="M161,139.8l.9.7-.4-.2c.4,0,.5.3.7.5a2.5,2.5,0,0,1,.4.7,4.4,4.4,0,0,1,.5,1.5,4.3,4.3,0,0,1,.1,1.6,2.2,2.2,0,0,1-.5,1.1h-.5a.3.3,0,0,1-.5-.2h-.1v-.4a2.8,2.8,0,0,1-.1-.9c0-.3.1-.5.1-.7v-.3h0v-.3h-.1v-.4c0-.2-.1-.4-.1-.6s-.1-.4-.1-.7a.8.8,0,0,1-.1-.7v.3c-.2-.3-.2-.6-.4-.9s.2-.3.3-.2Z" transform="translate(0 0)" style="fill:#fff"/></g><g style="mix-blend-mode:soft-light"><path d="M160.5,139.5h-.8a.6.6,0,0,1-.3-.6v.3h-.1v-.2h.8l.3.2h0l.2.2v.2a.1.1,0,0,1,.1.1h0v.4h-.4Z" transform="translate(0 0)" style="fill:#fff"/></g><g style="mix-blend-mode:soft-light"><path d="M162.3,147.9h.5v.3h0v.4h-1c0-.1-.1-.2-.1-.3v-.2h0l.2-.3h0v.2c0-.1.1-.1.1-.2h-.1c0-.1.1-.2.1-.3h.5Z" transform="translate(0 0)" style="fill:#fff"/></g></g><path d="M155,135.3a9.7,9.7,0,0,1,6.2,2.4c3.1,2.7,4,6.8,2.5,9.8a1.8,1.8,0,0,1,.1,2.3,1.8,1.8,0,0,1-1.3.6,1.9,1.9,0,0,1-1-.3,7.7,7.7,0,0,1-3.9,1.1,9.5,9.5,0,0,1-6.2-2.4c-3.1-2.8-4-6.8-2.6-9.9a1.9,1.9,0,0,1,0-2.3,1.9,1.9,0,0,1,1.3-.5,1.9,1.9,0,0,1,1,.3,6.8,6.8,0,0,1,3.9-1.1m0-3a11.6,11.6,0,0,0-4.2.8h-.7a4.9,4.9,0,0,0-3.5,1.5,4.7,4.7,0,0,0-1,4.4,11.8,11.8,0,0,0,3.8,12,12.5,12.5,0,0,0,8.2,3.2,9.9,9.9,0,0,0,4.2-.9h.7a4.6,4.6,0,0,0,3.5-1.6,4.5,4.5,0,0,0,1-4.3,11.7,11.7,0,0,0-3.8-12,12.5,12.5,0,0,0-8.2-3.2Z" transform="translate(0 0)" style="fill:#ff8d3d"/><g style="clip-path:url(#clip-path-4)"><path d="M130.1,60.6a11.5,11.5,0,0,1-4.8-1,10.3,10.3,0,0,1-6.2-9.5,3.2,3.2,0,0,1,2.4-5.2,9.4,9.4,0,0,1,6.5-2.5,11.6,11.6,0,0,1,4.8,1.1A10.2,10.2,0,0,1,139,53a3.3,3.3,0,0,1,.5,3.4,3.5,3.5,0,0,1-2.9,1.8A9.3,9.3,0,0,1,130.1,60.6Z" transform="translate(0 0)" style="fill:#fcd54d"/><path d="M128,43.9a10.6,10.6,0,0,1,4.2.9c3.7,1.8,5.8,5.4,5.2,8.7a2,2,0,0,1,.7,2.2,1.8,1.8,0,0,1-1.6,1H136a7.5,7.5,0,0,1-5.9,2.5,10.6,10.6,0,0,1-4.2-.9c-3.7-1.7-5.8-5.3-5.2-8.7a1.9,1.9,0,0,1-.7-2.2,1.8,1.8,0,0,1,1.7-.9h.4a7.8,7.8,0,0,1,5.9-2.5m0-3a11,11,0,0,0-7.1,2.5,4.8,4.8,0,0,0-3.6,2.7,4.6,4.6,0,0,0,.3,4.4,11.6,11.6,0,0,0,7.1,10.4,12.9,12.9,0,0,0,5.4,1.2,11,11,0,0,0,7.1-2.5,4.7,4.7,0,0,0,3.6-2.6,4.8,4.8,0,0,0-.3-4.5,11.7,11.7,0,0,0-7.1-10.4,12.5,12.5,0,0,0-5.4-1.2Z" transform="translate(0 0)" style="fill:#ff8d3d"/><g style="mix-blend-mode:soft-light"><path d="M132.6,46.9l1,.4h-.4a1.5,1.5,0,0,1,.8.3,1.7,1.7,0,0,1,.6.6,3.8,3.8,0,0,1,.9,1.3,2.7,2.7,0,0,1,.5,1.5,1.4,1.4,0,0,1-.1,1.1c0,.1-.1.2-.1.3s-.1,0-.1.1h-.1c-.1.1-.1.1-.1,0a.3.3,0,0,1-.5,0c0,.1-.1-.1-.1-.1h-.1l-.2-.2-.3-.8c0-.3-.1-.5-.1-.7s-.1-.2-.1-.3h0v-.2h-.1c0-.1-.1-.2-.1-.3l-.3-.6-.3-.6c-.1-.2-.4-.4-.3-.7V48l-.6-.8c-.1-.2,0-.4.2-.3Z" transform="translate(0 0)" style="fill:#fff"/></g><g style="mix-blend-mode:soft-light"><path d="M132,46.7h-.9a.7.7,0,0,1-.4-.5l.2.3h-.3v-.4h1.2l.2.2h.1a.3.3,0,0,1,.1.2v.3H132Z" transform="translate(0 0)" style="fill:#fff"/></g><g style="mix-blend-mode:soft-light"><path d="M136.2,54.2h.2a.1.1,0,0,1,.1.1h.2a.3.3,0,0,1,.1.2h0v.2h0v.2h0l-.2.2h-.7l-.2-.2v-.4c0-.1.1-.2.1-.3h.1v.2h0v0h0v-.3h.5Z" transform="translate(0 0)" style="fill:#fff"/></g></g><path d="M128,43.9a10.6,10.6,0,0,1,4.2.9c3.7,1.8,5.8,5.4,5.2,8.7a2,2,0,0,1,.7,2.2,1.8,1.8,0,0,1-1.6,1H136a7.5,7.5,0,0,1-5.9,2.5,10.6,10.6,0,0,1-4.2-.9c-3.7-1.7-5.8-5.3-5.2-8.7a1.9,1.9,0,0,1-.7-2.2,1.8,1.8,0,0,1,1.7-.9h.4a7.8,7.8,0,0,1,5.9-2.5m0-3a11,11,0,0,0-7.1,2.5,4.8,4.8,0,0,0-3.6,2.7,4.6,4.6,0,0,0,.3,4.4,11.6,11.6,0,0,0,7.1,10.4,12.9,12.9,0,0,0,5.4,1.2,11,11,0,0,0,7.1-2.5,4.7,4.7,0,0,0,3.6-2.6,4.8,4.8,0,0,0-.3-4.5,11.7,11.7,0,0,0-7.1-10.4,12.5,12.5,0,0,0-5.4-1.2Z" transform="translate(0 0)" style="fill:#ff8d3d"/><g style="clip-path:url(#clip-path-5)"><path d="M64.3,227a11.3,11.3,0,0,1-4.8-1.1c-4-1.9-6.5-5.7-6.2-9.5a3.3,3.3,0,0,1-.5-3.4,3.1,3.1,0,0,1,2.9-1.8,9.4,9.4,0,0,1,6.5-2.5,11.6,11.6,0,0,1,4.8,1.1,10.3,10.3,0,0,1,6.2,9.5,3.5,3.5,0,0,1,.4,3.4,3.1,3.1,0,0,1-2.9,1.8A9,9,0,0,1,64.3,227Z" transform="translate(0 0)" style="fill:#fcd54d"/><path d="M62.2,210.2a8.6,8.6,0,0,1,4.1,1c3.8,1.7,5.8,5.3,5.3,8.6a2.1,2.1,0,0,1,.7,2.3,1.9,1.9,0,0,1-1.7.9h-.5a7.5,7.5,0,0,1-5.8,2.5,9.2,9.2,0,0,1-4.2-1c-3.7-1.7-5.8-5.3-5.2-8.7a1.7,1.7,0,0,1-.7-2.2,1.7,1.7,0,0,1,1.6-.9h.5a7.8,7.8,0,0,1,5.9-2.5m0-3a11,11,0,0,0-7.1,2.5,4.6,4.6,0,0,0-3.6,2.7,4.3,4.3,0,0,0,.3,4.4c-.1,4.3,2.7,8.4,7.1,10.5a12.5,12.5,0,0,0,5.4,1.2,10.5,10.5,0,0,0,7.1-2.6,4.5,4.5,0,0,0,3.6-2.6,4.6,4.6,0,0,0-.3-4.4,11.9,11.9,0,0,0-7.1-10.5,12.9,12.9,0,0,0-5.4-1.2Z" transform="translate(0 0)" style="fill:#ff8d3d"/><g style="mix-blend-mode:soft-light"><path d="M66.8,213.2l1,.4h-.4c.4,0,.5.2.8.4l.6.5a3.8,3.8,0,0,1,.9,1.3,4.4,4.4,0,0,1,.5,1.5,1.4,1.4,0,0,1-.1,1.1l-.2.3h-.2c-.1.3-.4.2-.6,0s0,0,0-.1H69l-.2-.2c-.2-.2-.2-.5-.3-.8a1.7,1.7,0,0,1-.1-.7.4.4,0,0,1-.1-.3h0v-.2h-.1v-.2a.4.4,0,0,1-.1-.3l-.3-.6-.4-.5c-.1-.3-.3-.4-.3-.7v.3l-.5-.8c-.2-.1,0-.4.2-.3Z" transform="translate(0 0)" style="fill:#fff"/></g><g style="mix-blend-mode:soft-light"><path d="M66.2,213.1h-.9a.4.4,0,0,1-.4-.4v.2h-.2c0-.1,0-.2.1-.2h1.2l.2.2h.1v.6Z" transform="translate(0 0)" style="fill:#fff"/></g><g style="mix-blend-mode:soft-light"><path d="M70.3,220.6h.5l.2.2h0v.2h0v.2h0v.2h0a.1.1,0,0,0-.1.1h-.7a.2.2,0,0,1-.2-.2v-.2h0a.4.4,0,0,1,.1-.3h0v.2h-.1c.1,0,.1-.1.1-.2v.2h0v.2h0v-.4h.3Z" transform="translate(0 0)" style="fill:#fff"/></g></g><path d="M62.2,210.2a8.6,8.6,0,0,1,4.1,1c3.8,1.7,5.8,5.3,5.3,8.6a2.1,2.1,0,0,1,.7,2.3,1.9,1.9,0,0,1-1.7.9h-.5a7.5,7.5,0,0,1-5.8,2.5,9.2,9.2,0,0,1-4.2-1c-3.7-1.7-5.8-5.3-5.2-8.7a1.7,1.7,0,0,1-.7-2.2,1.7,1.7,0,0,1,1.6-.9h.5a7.8,7.8,0,0,1,5.9-2.5m0-3a11,11,0,0,0-7.1,2.5,4.6,4.6,0,0,0-3.6,2.7,4.3,4.3,0,0,0,.3,4.4c-.1,4.3,2.7,8.4,7.1,10.5a12.5,12.5,0,0,0,5.4,1.2,10.5,10.5,0,0,0,7.1-2.6,4.5,4.5,0,0,0,3.6-2.6,4.6,4.6,0,0,0-.3-4.4,11.9,11.9,0,0,0-7.1-10.5,12.9,12.9,0,0,0-5.4-1.2Z" transform="translate(0 0)" style="fill:#ff8d3d"/><g style="clip-path:url(#clip-path-6)"><path d="M89.8,105.8a8.9,8.9,0,0,1-6.5-2.6,3.1,3.1,0,0,1-2.9-1.8,3.3,3.3,0,0,1,.5-3.4c-.2-3.8,2.3-7.6,6.3-9.4a11,11,0,0,1,4.7-1,9.2,9.2,0,0,1,6.5,2.5,3.1,3.1,0,0,1,2.9,1.8,3.3,3.3,0,0,1-.5,3.4c.2,3.8-2.3,7.6-6.3,9.4A11.2,11.2,0,0,1,89.8,105.8Z" transform="translate(0 0)" style="fill:#fcd54d"/><path d="M91.9,89.1a7.8,7.8,0,0,1,5.9,2.5h.5a1.5,1.5,0,0,1,1.6,1,1.7,1.7,0,0,1-.7,2.2c.5,3.3-1.6,6.9-5.3,8.6a9.8,9.8,0,0,1-4.1.9,7.6,7.6,0,0,1-5.9-2.6h-.5a1.6,1.6,0,0,1-1.6-.9,1.7,1.7,0,0,1,.7-2.2c-.5-3.4,1.6-7,5.3-8.7a9.7,9.7,0,0,1,4.1-.8m0-3a13.6,13.6,0,0,0-5.3,1.1,11.7,11.7,0,0,0-7.2,10.4A4.6,4.6,0,0,0,79,102a4.8,4.8,0,0,0,3.6,2.7,11.3,11.3,0,0,0,7.2,2.6,12.1,12.1,0,0,0,5.3-1.2c4.4-2,7.2-6.1,7.2-10.3a4.8,4.8,0,0,0,.4-4.5,5,5,0,0,0-3.6-2.7,11.2,11.2,0,0,0-7.2-2.5Z" transform="translate(0 0)" style="fill:#ff8d3d"/><g style="mix-blend-mode:soft-light"><path d="M89.7,90.9l.9-.4-.3.2c.2-.3.5-.3.8-.4h2.4l1.4.6c.3.3.7.5.8.9a.3.3,0,0,0,.1.2v.2h0a.3.3,0,0,1-.4.4h-.5c-.3,0-.5-.2-.8-.3l-.6-.3-.3-.2c.1.1,0,.1,0,0h-.8l-.7-.2h-.6c-.2-.1-.5-.1-.7-.3l.3.2h-.9c-.3,0-.3-.3-.1-.4Z" transform="translate(0 0)" style="fill:#fff"/></g><g style="mix-blend-mode:soft-light"><path d="M89.1,91.3c0,.1,0,.1-.1.2h-.4a.1.1,0,0,0-.1.1h-.9v-.2h0c0-.1.1-.2.1-.3h.1v.3c0-.2.1-.3.2-.3l.2-.2h1c0,.1.1.1.1.2v.2c0,.1,0,.2-.1.2Z" transform="translate(0 0)" style="fill:#fff"/></g><g style="mix-blend-mode:soft-light"><path d="M97.6,93h1v.2h.1v.2h0a.4.4,0,0,1-.1.3c0,.1-.1.1-.2.2h-.8a.4.4,0,0,1-.1-.3h.1l-.2-.2h.2c-.1-.1-.2-.1-.2-.2v-.4c.1,0,.1-.1.2-.2Z" transform="translate(0 0)" style="fill:#fff"/></g></g><path d="M91.9,89.1a7.8,7.8,0,0,1,5.9,2.5h.5a1.5,1.5,0,0,1,1.6,1,1.7,1.7,0,0,1-.7,2.2c.5,3.3-1.6,6.9-5.3,8.6a9.8,9.8,0,0,1-4.1.9,7.6,7.6,0,0,1-5.9-2.6h-.5a1.6,1.6,0,0,1-1.6-.9,1.7,1.7,0,0,1,.7-2.2c-.5-3.4,1.6-7,5.3-8.7a9.7,9.7,0,0,1,4.1-.8m0-3a13.6,13.6,0,0,0-5.3,1.1,11.7,11.7,0,0,0-7.2,10.4A4.6,4.6,0,0,0,79,102a4.8,4.8,0,0,0,3.6,2.7,11.3,11.3,0,0,0,7.2,2.6,12.1,12.1,0,0,0,5.3-1.2c4.4-2,7.2-6.1,7.2-10.3a4.8,4.8,0,0,0,.4-4.5,5,5,0,0,0-3.6-2.7,11.2,11.2,0,0,0-7.2-2.5Z" transform="translate(0 0)" style="fill:#ff8d3d"/><g style="clip-path:url(#clip-path-7)"><path d="M38.7,148.1a3.5,3.5,0,0,1-1.8-.5,3.3,3.3,0,0,1-1.3-3.2c-2.1-3.2-1.8-7.7.7-11.3a10.5,10.5,0,0,1,8.4-4.6,6.6,6.6,0,0,1,2.1.3,3.2,3.2,0,0,1,1.6-.4,3.5,3.5,0,0,1,1.8.5,3.3,3.3,0,0,1,1.3,3.2c2.1,3.2,1.8,7.7-.7,11.3a10.5,10.5,0,0,1-8.4,4.6,6.6,6.6,0,0,1-2.1-.3A3.2,3.2,0,0,1,38.7,148.1Z" transform="translate(0 0)" style="fill:#fcd54d"/><path d="M48.4,129.9l1,.2a1.9,1.9,0,0,1,.4,2.3c2.2,2.6,2.1,6.8-.3,10.1a8.8,8.8,0,0,1-7.1,4,6.7,6.7,0,0,1-2.4-.4,1.8,1.8,0,0,1-1.3.5,1.6,1.6,0,0,1-1-.2,2.1,2.1,0,0,1-.5-2.3c-2.1-2.6-2-6.8.3-10.1a9.1,9.1,0,0,1,7.2-4,6.7,6.7,0,0,1,2.4.4,2.4,2.4,0,0,1,1.3-.5m0-3a4.7,4.7,0,0,0-1.7.3l-2-.2a11.8,11.8,0,0,0-9.6,5.2c-2.8,3.9-3.2,8.9-1,12.6a4.5,4.5,0,0,0,1.9,4,4.3,4.3,0,0,0,2.7.8,4.7,4.7,0,0,0,1.7-.3l2,.2a12.1,12.1,0,0,0,9.6-5.2,11.8,11.8,0,0,0,1-12.6,4.6,4.6,0,0,0-1.9-4,5,5,0,0,0-2.7-.8Z" transform="translate(0 0)" style="fill:#ff8d3d"/><g style="mix-blend-mode:soft-light"><path d="M39.6,133.9l.6-.9v.3c0-.3.2-.5.5-.7s.4-.3.6-.5a3.5,3.5,0,0,1,1.4-.6,3,3,0,0,1,1.6-.2,2,2,0,0,1,1.1.3l.2.2h.2c0,.1.1.2,0,.1s.1.4-.1.5h-.2l-.3.2H42.4l-.6.2-.6.2c-.3.1-.5.3-.8.2h.4l-.9.5a.2.2,0,0,1-.3-.3Z" transform="translate(0 0)" style="fill:#fff"/></g><g style="mix-blend-mode:soft-light"><path d="M39.4,134.5v.4h-.1v.2h0a.5.5,0,0,1-.5.3H38V135h0v0l.2-.3h.2c0-.1.1-.1.1-.2h.7c0,.1.1.1.1.2s.1.1.1.2Z" transform="translate(0 0)" style="fill:#fff"/></g><g style="mix-blend-mode:soft-light"><path d="M47.5,131.8a.1.1,0,0,1,.1-.1h0v-.2h1.1a.4.4,0,0,1,.1.3v.3c-.1,0-.1.1-.2.2H47.6v-.4Z" transform="translate(0 0)" style="fill:#fff"/></g></g><path d="M48.4,129.9l1,.2a1.9,1.9,0,0,1,.4,2.3c2.2,2.6,2.1,6.8-.3,10.1a8.8,8.8,0,0,1-7.1,4,6.7,6.7,0,0,1-2.4-.4,1.8,1.8,0,0,1-1.3.5,1.6,1.6,0,0,1-1-.2,2.1,2.1,0,0,1-.5-2.3c-2.1-2.6-2-6.8.3-10.1a9.1,9.1,0,0,1,7.2-4,6.7,6.7,0,0,1,2.4.4,2.4,2.4,0,0,1,1.3-.5m0-3a4.7,4.7,0,0,0-1.7.3l-2-.2a11.8,11.8,0,0,0-9.6,5.2c-2.8,3.9-3.2,8.9-1,12.6a4.5,4.5,0,0,0,1.9,4,4.3,4.3,0,0,0,2.7.8,4.7,4.7,0,0,0,1.7-.3l2,.2a12.1,12.1,0,0,0,9.6-5.2,11.8,11.8,0,0,0,1-12.6,4.6,4.6,0,0,0-1.9-4,5,5,0,0,0-2.7-.8Z" transform="translate(0 0)" style="fill:#ff8d3d"/><g style="clip-path:url(#clip-path-8)"><path d="M35.6,71.7a9.7,9.7,0,0,1-8.5-4.5,3.2,3.2,0,0,1-2.3-2.5,3.1,3.1,0,0,1,1.3-3.1c.8-3.8,4.2-6.8,8.5-7.6h1.9a9.7,9.7,0,0,1,8.6,4.5,3.2,3.2,0,0,1,.9,5.7c-.7,3.7-4.1,6.7-8.5,7.5Z" transform="translate(0 0)" style="fill:#fcd54d"/><path d="M36.5,55.4c3.4,0,6.4,1.7,7.6,4.3a1.9,1.9,0,0,1,1.8,1.5,1.7,1.7,0,0,1-1.2,1.9c-.4,3.4-3.4,6.3-7.4,7H35.6A8.3,8.3,0,0,1,28,65.9a2,2,0,0,1-1.8-1.5,1.8,1.8,0,0,1,1.3-1.9c.4-3.4,3.3-6.3,7.4-7h1.6m0-3h0l-2.1.2a11.6,11.6,0,0,0-9.6,8.1,4.6,4.6,0,0,0-1.5,4.2,4.4,4.4,0,0,0,2.8,3.5,11.1,11.1,0,0,0,9.5,4.8,8.2,8.2,0,0,0,2.2-.2,11.6,11.6,0,0,0,9.6-8.1,5,5,0,0,0,1.5-4.2,4.6,4.6,0,0,0-2.8-3.5,11.4,11.4,0,0,0-9.6-4.8Z" transform="translate(0 0)" style="fill:#ff8d3d"/><g style="mix-blend-mode:soft-light"><path d="M36.4,57a1.9,1.9,0,0,1,1-.3l-.3.2c.3-.3.5-.2.8-.2h.8a3.4,3.4,0,0,1,1.5.6,3.8,3.8,0,0,1,1.3.9,2.4,2.4,0,0,1,.5,1v.5h0a.4.4,0,0,1-.5.3H41a1.8,1.8,0,0,1-.7-.5l-.5-.5-.3-.2h-.2c.1,0,0-.1-.1-.1h-.4l-.6-.4-.5-.3c-.3-.1-.5-.1-.7-.4l.3.3-.9-.4a.1.1,0,0,1,0-.3Z" transform="translate(0 0)" style="fill:#fff"/></g><g style="mix-blend-mode:soft-light"><path d="M35.8,57.2h-.2c0,.1-.1.1-.2.1h-.3c0,.1,0,.1-.1.1a.7.7,0,0,1-.6-.2h-.2v-.2h0c0-.1.1-.2.2-.3h.1l-.2.2.3-.2h.8a.1.1,0,0,1,.1.1h.3V57c0,.1,0,.1-.1.2Z" transform="translate(0 0)" style="fill:#fff"/></g><g style="mix-blend-mode:soft-light"><path d="M43.5,61h.8a.1.1,0,0,1,.1.1h.2v.2h0v.2h0l-.2.3h-.7l-.2-.2h-.1v-.3h0v-.2h.1a.4.4,0,0,1-.1-.3h0v-.2l.2-.2Z" transform="translate(0 0)" style="fill:#fff"/></g></g><path d="M36.5,55.4c3.4,0,6.4,1.7,7.6,4.3a1.9,1.9,0,0,1,1.8,1.5,1.7,1.7,0,0,1-1.2,1.9c-.4,3.4-3.4,6.3-7.4,7H35.6A8.3,8.3,0,0,1,28,65.9a2,2,0,0,1-1.8-1.5,1.8,1.8,0,0,1,1.3-1.9c.4-3.4,3.3-6.3,7.4-7h1.6m0-3h0l-2.1.2a11.6,11.6,0,0,0-9.6,8.1,4.6,4.6,0,0,0-1.5,4.2,4.4,4.4,0,0,0,2.8,3.5,11.1,11.1,0,0,0,9.5,4.8,8.2,8.2,0,0,0,2.2-.2,11.6,11.6,0,0,0,9.6-8.1,5,5,0,0,0,1.5-4.2,4.6,4.6,0,0,0-2.8-3.5,11.4,11.4,0,0,0-9.6-4.8Z" transform="translate(0 0)" style="fill:#ff8d3d"/><g style="clip-path:url(#clip-path-9)"><path d="M67.3,39.5a10,10,0,0,1-8.6-4.6,3.2,3.2,0,0,1-.9-5.6,10.1,10.1,0,0,1,8.5-7.5l1.9-.2a9.9,9.9,0,0,1,8.6,4.5,3.4,3.4,0,0,1,2.3,2.6,3.3,3.3,0,0,1-1.4,3.1c-.7,3.7-4.1,6.8-8.5,7.5Z" transform="translate(0 0)" style="fill:#fcd54d"/><path d="M68.2,23.1a8.1,8.1,0,0,1,7.6,4.4,1.8,1.8,0,0,1,1.8,1.4,2,2,0,0,1-1.2,2C76,34.2,73,37.1,69,37.8l-1.7.2a8.4,8.4,0,0,1-7.6-4.4,1.9,1.9,0,0,1-1.8-1.4,2,2,0,0,1,1.3-2c.3-3.3,3.3-6.3,7.4-6.9l1.6-.2m0-3h0l-2.1.2a11.6,11.6,0,0,0-9.6,8.2A4.4,4.4,0,0,0,55,32.7a4.8,4.8,0,0,0,2.7,3.5A11.7,11.7,0,0,0,67.3,41l2.2-.2a11.9,11.9,0,0,0,9.6-8.2,5,5,0,0,0,1.5-4.2,4.7,4.7,0,0,0-2.8-3.5,11.7,11.7,0,0,0-9.6-4.8Z" transform="translate(0 0)" style="fill:#ff8d3d"/><g style="mix-blend-mode:soft-light"><path d="M68.1,24.7l1-.2h-.3a1.2,1.2,0,0,1,.8-.2h.8l1.5.6a4.1,4.1,0,0,1,1.3,1,1.9,1.9,0,0,1,.5,1v.3h0c0,.2-.1.2,0,.1a.3.3,0,0,1-.5.3h-.1a.1.1,0,0,1-.1-.1h-.3l-.7-.6-.5-.4-.3-.2h0l-.2-.2h0c.1.1,0,0-.1,0s0-.1-.1-.1l-.3-.2-.6-.3-.5-.3-.7-.4.3.2-.9-.3a.2.2,0,0,1,0-.4Z" transform="translate(0 0)" style="fill:#fff"/></g><g style="mix-blend-mode:soft-light"><path d="M67.5,24.9l-.2.2h-.6c-.2.1-.4,0-.6-.2l.3.2h-.5v-.2h0c0-.1.1-.2.2-.3h.1l-.2.2.3-.3h1.2v.4a.3.3,0,0,1-.1.2Z" transform="translate(0 0)" style="fill:#fff"/></g><g style="mix-blend-mode:soft-light"><path d="M75.2,28.8h.5c.1,0,.2,0,.2.1h.3v.2h0v.2h0l-.2.3h-.9c0-.1,0-.1-.1-.2s-.1-.2-.1-.3h0v.2c0-.1,0-.1-.1-.1h.1a.3.3,0,0,0-.1-.2v.2h0v-.6Z" transform="translate(0 0)" style="fill:#fff"/></g></g><path d="M68.2,23.1a8.1,8.1,0,0,1,7.6,4.4,1.8,1.8,0,0,1,1.8,1.4,2,2,0,0,1-1.2,2C76,34.2,73,37.1,69,37.8l-1.7.2a8.4,8.4,0,0,1-7.6-4.4,1.9,1.9,0,0,1-1.8-1.4,2,2,0,0,1,1.3-2c.3-3.3,3.3-6.3,7.4-6.9l1.6-.2m0-3h0l-2.1.2a11.6,11.6,0,0,0-9.6,8.2A4.4,4.4,0,0,0,55,32.7a4.8,4.8,0,0,0,2.7,3.5A11.7,11.7,0,0,0,67.3,41l2.2-.2a11.9,11.9,0,0,0,9.6-8.2,5,5,0,0,0,1.5-4.2,4.7,4.7,0,0,0-2.8-3.5,11.7,11.7,0,0,0-9.6-4.8Z" transform="translate(0 0)" style="fill:#ff8d3d"/></g></g></g></svg>