<svg xmlns="http://www.w3.org/2000/svg" viewBox="0 0 174.1 229.8"><g id="Layer_2" data-name="Layer 2"><g id="Layer_1-2" data-name="Layer 1"><ellipse cx="85.3" cy="116.8" rx="68.9" ry="118.8" transform="translate(-44.5 53) rotate(-27.7)" style="fill:#d7785a"/><ellipse cx="88.9" cy="113" rx="68.9" ry="118.8" transform="translate(-42.3 54.2) rotate(-27.7)" style="fill:#f5c379"/><path d="M33.8,123C23.2,96.3,20.6,69,26.7,48.1,30,36.5,35.2,29.6,38.9,25.9s8.2-6.3,12.6-7.1,9.8-.1,16.1,1.9,15.5,6.2,27,15c20.7,16.1,38.7,40.6,49.3,67.3s13.2,54,7.2,74.8c-3.4,11.6-8.5,18.5-12.3,22.2a24.3,24.3,0,0,1-12.5,7.1c-4.4.8-9.8.2-16.2-1.9s-15.5-6.1-27-15C62.4,174.2,44.4,149.6,33.8,123Zm99.4-18.1c-10.1-25.5-27.1-48.7-46.6-63.8C76.5,33.2,68.4,29.6,63.3,28s-7-1.8-8.8-1.4-4.2,1.9-6.5,4.2-7.5,9-10.5,19.2c-5.7,19.7-3.1,45.5,7,71s27.1,48.8,46.6,63.8c10.2,7.9,18.3,11.5,23.3,13.1s7,1.8,8.8,1.5a15,15,0,0,0,6.5-4.2c3.2-3.2,7.5-9,10.5-19.3C145.9,156.3,143.4,130.4,133.2,104.9Z" style="fill:#d7785a"/><path d="M86.1,67.8l-21.9.4-2.4-3.7c3.8-2.7,7.4-5.4,11.1-8.2L57,57.3l-2.5-3.5C59.4,50,64.1,46,68.8,42.1c.9,1.2,1.8,2.5,2.8,3.7L61,54.2l15.7-1,2.5,3.6c-3.6,2.8-7.3,5.5-11,8.2l16-.4Z" style="fill:#d7785a"/><path d="M75.8,88.4c-2.2-4.3-4.5-8.5-7-12.7l18.8-5.3c2.6,4.3,5,8.7,7.4,13.1l-2.9.7c-1.7-3.1-3.4-6.3-5.2-9.4l-5.1,1.4c1.4,2.5,2.8,5,4.1,7.5l-2.8.7c-1.3-2.5-2.6-5-4-7.4l-5.3,1.4c1.7,3.1,3.4,6.2,5,9.3Z" style="fill:#d7785a"/><path d="M83.2,103.7c-1.8-4.1-3.8-8.2-5.8-12.2l19.3-4.7c.6,1.4,1.3,2.7,1.9,4L82.4,94.5c1.4,2.8,2.7,5.7,4,8.5Z" style="fill:#d7785a"/><path d="M95.6,115.9l.9,3.5a9.6,9.6,0,0,1-9.7-6.5,6.7,6.7,0,0,1-.5-4.7,6.9,6.9,0,0,1,2.5-3.4,13.4,13.4,0,0,1,4.7-2,13.7,13.7,0,0,1,8.3.8,10.8,10.8,0,0,1,5.4,5.7,7.3,7.3,0,0,1,.2,5.6c-.7,1.6-2.1,2.7-4.3,3.5-.5-1.2-1.1-2.3-1.6-3.5,2.7-1.1,3.7-2.8,2.8-5a4.9,4.9,0,0,0-3.2-2.9,11,11,0,0,0-5.8-.2c-2.4.5-4,1.2-4.9,2.3a3.1,3.1,0,0,0-.5,3.6,5,5,0,0,0,2.3,2.5A5.8,5.8,0,0,0,95.6,115.9Z" style="fill:#d7785a"/><path d="M93.2,130.9c-.9-2.7-.6-4.9.9-6.7a10.3,10.3,0,0,1,6.6-3.5,12.7,12.7,0,0,1,8.1,1.4,10.2,10.2,0,0,1,5.1,6.2c.9,2.8.5,5.1-1,6.9a9.4,9.4,0,0,1-6.7,3.3A13.1,13.1,0,0,1,98,137,10.1,10.1,0,0,1,93.2,130.9Zm2.9-.3a5.1,5.1,0,0,0,2.7,3.1c1.3.8,3.4,1.1,6.2.7a9.3,9.3,0,0,0,5.1-1.9q1.7-1.4.9-3.9c-1.1-3.3-4.1-4.5-9.1-3.8-2.4.4-4.1,1.1-5,2A3.5,3.5,0,0,0,96.1,130.6Z" style="fill:#d7785a"/><path d="M101.3,163.4c-.3-1.3-.5-2.6-.7-3.8l17.8-1.3-18.9-4.5a12.9,12.9,0,0,1-.4-1.9c5.5-2.4,10.9-4.9,16.4-7.5l-17.8,1.7c-.2-1-.5-2-.7-3l20.2-2.2,1.5,6.1-12.1,5.6,14,3.4c.4,2.1.7,4.1,1.1,6.2Z" style="fill:#d7785a"/><path d="M103.5,181.5q-.6-6.7-1.5-13.5l20.4-1c.7,4.6,1.2,9.3,1.6,14h-3c-.3-3.3-.7-6.7-1.1-10l-5.5.2c.3,2.7.6,5.3.8,8h-2.9l-.9-8-5.7.3c.4,3.3.7,6.5,1,9.8Z" style="fill:#d7785a"/><path d="M53.9,3c37.3,0,82.6,41.3,104.8,97.3,18.9,47.5,15.6,91.5-5.6,111.4A40.8,40.8,0,0,1,128.6,226a46,46,0,0,1-8.4.8c-37.3,0-82.6-41.3-104.8-97.3C-3.5,81.9-.1,38,21,18.1A41.4,41.4,0,0,1,45.5,3.7,46.8,46.8,0,0,1,53.9,3m0-3a53.8,53.8,0,0,0-9,.8A43.6,43.6,0,0,0,18.8,16C7.8,26.4,1.4,42.8.2,63.2s3.1,44,12.4,67.4c22.5,56.5,68.7,99.2,107.6,99.2a52.9,52.9,0,0,0,9-.8,43.6,43.6,0,0,0,26.1-15.2c11-10.5,17.4-26.8,18.6-47.3s-3.1-43.9-12.4-67.3C139.1,42.6,92.8,0,53.9,0Z" style="fill:#ff8d3d"/></g></g></svg>