<svg xmlns="http://www.w3.org/2000/svg" viewBox="0 0 64.4 46.6"><g id="Layer_2" data-name="Layer 2"><g id="Layer_1-2" data-name="Layer 1"><path d="M40.2,45.6a11.8,11.8,0,0,1-2.7-.3,23.4,23.4,0,0,1-4.4.3c-4.1,0-9.4-.3-11.1-.5A3.5,3.5,0,0,1,19.5,44l-.2-.3-2.1.2H17a3.5,3.5,0,0,1-2.7-1.6h-.6a9.9,9.9,0,0,1-3.1-.8,3,3,0,0,1-2.8-1.4,4,4,0,0,1-.2-3C4.3,35.7.5,32.5,1,28.6s4.6-4.3,6.2-4.3a6.6,6.6,0,0,1,4.7-2h.2a51.9,51.9,0,0,0,1.6-6.9l.3-1.2-.4-.4-1.3-1.5a2.7,2.7,0,0,1-.2-2.3c.5-1.2,1.9-2.1,3.8-2.4h1.5a6.2,6.2,0,0,1,3.1.7,12.1,12.1,0,0,1,2.3-1.9h.1a2.6,2.6,0,0,1-.8-2.6,3.4,3.4,0,0,1,3.4-2h.3A4.3,4.3,0,0,1,29.6,4l.5-.3c.1,0,.2-.2.4-.5s1.5-2,4.1-2h0c1.7,0,2.6.7,2.9,1.3a3.5,3.5,0,0,1,.6,1.6h1.3a.8.8,0,0,0,.1-.4c.2-.4.4-.7.8-.8l.6-.2a1.6,1.6,0,0,1,.9.3,5.8,5.8,0,0,1,2.1-.5h.8A3.5,3.5,0,0,1,47.5,1a4,4,0,0,1,2.2.8c1,.4,2.5,1.5,2.6,3a2.5,2.5,0,0,1,1.9,1.1A2,2,0,0,1,54.4,8a9.4,9.4,0,0,1-2.3,3.2h-.2a16.8,16.8,0,0,0,2.2,4.8,28.9,28.9,0,0,1,3.5,9.7,3.7,3.7,0,0,1,2.9,3,3.3,3.3,0,0,1,2.7,4.6c-1,3.9-8.1,8.8-12,9.3-1,.5-6.2,2.9-11,2.9Z" style="fill:#b9e48e"/><path d="M47.5,2a3.2,3.2,0,0,1,1.7.6s2.7,1.1,2,3c0,0,3,.1,2.3,2.1A12.2,12.2,0,0,1,50.8,11c.6,1.8,1.4,4.4,2.5,5.8a26,26,0,0,1,3.4,9.8c1.3.2,3,1,2.9,3.1,0,0,3.7,0,2.7,3.5s-8,8.3-11.3,8.5c0,0-5.7,2.9-10.8,2.9a12.4,12.4,0,0,1-2.7-.3,21.5,21.5,0,0,1-4.4.3c-4.1,0-9.5-.4-11-.5s-2-1.6-2-1.6a17.2,17.2,0,0,1-2.9.3H17c-1.5,0-2.2-1.8-2.2-1.8a2,2,0,0,1-1.1.3,8,8,0,0,1-2.9-.8h-.1c-3.8,0-1.8-4-1.8-4-2.9-.9-7.4-4-6.9-7.8s4.3-3.4,5.4-3.4h.4c.5-1.3,2.9-2,4.1-2h.5c.3.2.2.5,0,.9h0c1.2-2.3,2.1-7.6,2.5-9.5a4.3,4.3,0,0,0,.1-.5h0c.1-.5-.9-1.1-1.8-2.5S13.8,9,16,8.6h1.4a5,5,0,0,1,3.2,1h0a.7.7,0,0,0-.3.3l.3-.3h0A8.2,8.2,0,0,1,23.8,7,3.5,3.5,0,0,1,24,5.8c-2.2-1.6-.4-3.2,1.5-3.2h.2c2.5.2,3,1.7,3.4,3.1l1.4-1.1c1.2-.5.7-2.4,4.1-2.4h.1c3.4,0,2.1,3.3,2.1,3.3A8,8,0,0,1,39.6,5h1.1c-.1,0-.1-.1-.1-.2s-.3-.9.1-1.1h.2a1.3,1.3,0,0,1,.7.4,6.5,6.5,0,0,1,2.3-.6,2.7,2.7,0,0,1,1.2.3A2.9,2.9,0,0,1,47.5,2M37,44.1h0M47.5,0a4.5,4.5,0,0,0-3.2,1.4h-.4a9.5,9.5,0,0,0-2.1.4l-.9-.2-1,.2a2.7,2.7,0,0,0-1.1,1,3.6,3.6,0,0,0-.4-.9A4.2,4.2,0,0,0,34.7.2h-.1c-2.8,0-4,1.1-4.8,2.3A5,5,0,0,0,25.9.6h-.4a4.4,4.4,0,0,0-4.3,2.7A3,3,0,0,0,21.5,6L20.3,7a9.3,9.3,0,0,0-2.9-.5H15.7c-2.2.4-3.9,1.5-4.5,3a3.3,3.3,0,0,0,.3,3.2,9,9,0,0,0,1.4,1.7h0c0,.2-.1.5-.1.7s-.8,4.1-1.4,6.1a8.4,8.4,0,0,0-4.7,2C3,23.5.5,25.5.1,28.5S3,36,6.4,37.6a4.9,4.9,0,0,0,.5,3.1,4.1,4.1,0,0,0,3.5,1.8,8.8,8.8,0,0,0,3.3.8h.2A4,4,0,0,0,17,44.8h1.8A4.5,4.5,0,0,0,22,46.1c1.7.2,7,.5,11.1.5a19,19,0,0,0,4.4-.3,12.4,12.4,0,0,0,2.7.3,28,28,0,0,0,11.3-3c4.3-.6,11.6-5.7,12.7-9.9a4.5,4.5,0,0,0-.6-4.2A4.4,4.4,0,0,0,61.4,28a5,5,0,0,0-3-3,26.6,26.6,0,0,0-3.5-9.5,13,13,0,0,1-1.8-3.9,10,10,0,0,0,2.2-3.2,3.4,3.4,0,0,0-.2-3A3.2,3.2,0,0,0,53.2,4a5.4,5.4,0,0,0-3-3.1A4.8,4.8,0,0,0,47.5,0Z" style="fill:#507125"/><path d="M37,16.8h-.6c-2.9-.3-6.1-3.2-7.8-5.7s-1.9-3.2-1.4-4.8l.2-.3a8.4,8.4,0,0,1,2.7-2.3c.1,0,.2-.2.4-.5s1.5-2,4.1-2h0c1.7,0,2.6.7,2.9,1.3a3.5,3.5,0,0,1,.6,1.6l1.5-.2,1.7.2A3.9,3.9,0,0,1,44,6a4.9,4.9,0,0,1,.1,4.3C42.6,14.5,40.1,16.8,37,16.8Z" style="fill:#dfe590"/><path d="M34.7,2.2c3.4,0,2.1,3.3,2.1,3.3a6.9,6.9,0,0,1,2.8-.6l1.5.2c2.4.5,2.9,2.6,2.1,4.9s-2.6,5.8-6.2,5.8h-.5c-3.8-.4-9.1-6.4-8.4-9.2a9.6,9.6,0,0,1,2.4-2c1.2-.5.7-2.4,4.1-2.4h.1m0-2h-.1c-3,0-4.1,1.2-4.9,2.5s-.1.1-.1.2a9.4,9.4,0,0,0-3,2.4,2,2,0,0,0-.4.8c-.5,1.9.5,4.1,1.6,5.6s5.3,5.7,8.5,6H37c3.5,0,6.4-2.5,8.1-7.1a6.2,6.2,0,0,0-.2-5.2,5.2,5.2,0,0,0-3.4-2.4l-1.9-.2h-.7a3.7,3.7,0,0,0-.5-1.1A4.2,4.2,0,0,0,34.7.2Z" style="fill:#507125"/><path d="M36.5,15.8s.7-4.2,3-4.5,3.8-1.6,3.6-3.2,0-2.9-2.4-3.1c0,0-.5-.3.8-.9s3.1-1.1,4.1,0,2.8,2.7,2.3,4.8-4.9,5.3-6.8,6.7S37.9,20,36.5,15.8Z" style="fill:#96b85c"/><path d="M38,13.2l-.5-.2a.9.9,0,0,1-.5-1.1c0-.1.5-1.7,2.9-2a2.7,2.7,0,0,0,2.2-1.6.6.6,0,0,1-.1-.4c0-1,0-1.5-1.5-1.8l-.6-.5a2.9,2.9,0,0,1-.4-2,1.1,1.1,0,0,1,.8-.8l.6-.2a2.8,2.8,0,0,1,1.9,1.2,3.7,3.7,0,0,1,2.2,1c.2.1.2.3.3.4a2.4,2.4,0,0,1,1,1.2,2.5,2.5,0,0,1-.8,2.3,4.9,4.9,0,0,1-3.9,3.4,6.7,6.7,0,0,0-2.9.8A1.1,1.1,0,0,1,38,13.2Z" style="fill:#96b85c"/><path d="M40.9,3.6c.6,0,1.4,1.2,1.4,1.2s2.3.1,2.1,1.1,1.9.5.2,2.3c0,0-.7,2.7-3.2,2.9,0,0-2.5.2-3.4,1.1s.2-1.1,2-1.3,3.1-1.6,3.1-2.6.2-2.6-2.3-3.2c0,0-.7-1.1-.1-1.4h.2m0-2h0l-1,.2a2.8,2.8,0,0,0-1.4,1.6,3.5,3.5,0,0,0,.6,2.7,1.6,1.6,0,0,0,1.2.9,1.4,1.4,0,0,1,.7.3v.6a.4.4,0,0,0,.1.3,2.6,2.6,0,0,1-1.4.7A4.1,4.1,0,0,0,36,11.7a2,2,0,0,0,1,2.2,1.7,1.7,0,0,0,1,.3,2.1,2.1,0,0,0,1.3-.5,5.4,5.4,0,0,1,2.3-.6h.1a6,6,0,0,0,4.7-3.9,3.3,3.3,0,0,0,.8-3.1,3.1,3.1,0,0,0-1.1-1.6l-.3-.3a4.1,4.1,0,0,0-2.4-1.3,3.8,3.8,0,0,0-2.5-1.3Z" style="fill:#507125"/><path d="M37,27.2s2.6-6.8,1.5-10.7-3-5-7.1-7-6.7-5.2-11.1.4-.4,9.5,2.2,11.9S32.2,27.9,37,27.2Z" style="fill:#96b85c"/><path d="M38.5,17.5a1.2,1.2,0,0,1-1-.7c-.7-2.8-4-3.7-7.5-4.6l-3.4-1.1A5.2,5.2,0,0,1,23,8.2a3.5,3.5,0,0,1-.1-2,2.6,2.6,0,0,1-.8-2.6,3.4,3.4,0,0,1,3.4-2h.3c3.3.2,3.9,2.5,4.3,4s.3,1.3.7,1.5,2.3,1.4,3.8,2.3l3.3,1.9c1.8,1.2,1.7,4.6,1.6,5.3a.9.9,0,0,1-.9.9Z" style="fill:#dfe590"/><path d="M25.5,2.6h.2c4.1.3,2.8,4.2,4.5,5.3s5.7,3.2,7.1,4.2,1.2,4.4,1.2,4.4c-1.2-4.4-7.2-4.7-11.6-6.3S24,5.8,24,5.8c-2.2-1.6-.4-3.2,1.5-3.2m0-2a4.4,4.4,0,0,0-4.3,2.7,3.2,3.2,0,0,0,.6,3.2,3.6,3.6,0,0,0,.3,2c.5,1.6,1.9,2.8,4.1,3.6l3.5,1c3.9,1.1,6.3,1.9,6.9,4a2,2,0,0,0,1.9,1.4h.2a2,2,0,0,0,1.8-1.8c.1-1.1.1-4.8-2.1-6.3L35.1,8.5c-1.4-.8-2.9-1.6-3.7-2.2a5.1,5.1,0,0,1-.4-1C30.6,3.8,29.8.9,25.9.6Z" style="fill:#507125"/><path d="M40.2,45.6a9.1,9.1,0,0,1-4.9-1.2.9.9,0,0,1-.5-1,1.1,1.1,0,0,1,.8-.8c5.7-1.4,15.4-4.5,16.7-6.9s1.9-9.2,1.9-9.3a1.1,1.1,0,0,1,.9-1h.2c.6,0,3,.1,4.3,1.6a3.1,3.1,0,0,1,.9,1.8,3.6,3.6,0,0,1,2.3,1.3,3.4,3.4,0,0,1,.4,3.3c-1,3.9-8.1,8.8-12,9.3C50.2,43.2,45,45.6,40.2,45.6Z" style="fill:#dfe590"/><path d="M55.3,26.4c.6,0,4.4.2,4.3,3.3,0,0,3.7,0,2.7,3.5s-8,8.3-11.3,8.5c0,0-5.8,2.9-10.8,2.9a8.2,8.2,0,0,1-4.4-1.1s15.4-3.7,17.4-7.3,2-9.8,2-9.8h.1m0-2h-.2a2.1,2.1,0,0,0-1.9,2c0,1.6-.4,6.2-1.8,8.8s-9.1,4.7-16.1,6.4a1.9,1.9,0,0,0-1.5,1.6,2.4,2.4,0,0,0,.9,2.1,10.7,10.7,0,0,0,5.5,1.3,28,28,0,0,0,11.3-3c4.3-.6,11.6-5.7,12.7-9.9a4.5,4.5,0,0,0-.6-4.2A4.4,4.4,0,0,0,61.4,28a4.8,4.8,0,0,0-1-1.7,7.2,7.2,0,0,0-5.1-1.9Z" style="fill:#507125"/><path d="M37.1,44.6H35.6a2.4,2.4,0,0,1-1.7-1.2c-2.2-3.7-.7-16.2.6-20.4S43.7,9.2,50,7.8h.2a1,1,0,0,1,1,.8s1.2,5.4,2.9,7.5,7.2,15.1.7,21.2A29.3,29.3,0,0,1,37.1,44.6Z" style="fill:#96b85c"/><path d="M50.2,8.8s1.3,5.6,3.1,8,6.6,14.4.8,19.8a28.4,28.4,0,0,1-17,7H35.8c-3.4-.6-1.8-15.6-.3-20.3S44.3,10.1,50.2,8.8m0-2h-.4C42.9,8.4,35.2,17.4,33.6,22.6c-1.2,3.6-3.2,16.8-.5,21.2a3.3,3.3,0,0,0,2.3,1.7h1.7a30.3,30.3,0,0,0,18.4-7.5c6.6-6.2,1.8-19.4-.6-22.6-1.1-1.4-2.3-5.1-2.7-7.2a2,2,0,0,0-2-1.5Z" style="fill:#507125"/><path d="M38.5,26.3a1,1,0,0,1-1-.5c-.8-.9-1.2-3.3-.7-5.7,0-.1.7-5,3.7-7l1.9-1.2c2.2-1.3,3.6-2.2,3.4-3.5S45,4.9,44.6,4.8a1.7,1.7,0,0,1-.6-.6,1.1,1.1,0,0,1,.1-.8A4.2,4.2,0,0,1,47.5,1a4,4,0,0,1,2.2.8c1,.4,2.5,1.5,2.6,3a2.5,2.5,0,0,1,1.9,1.1A2,2,0,0,1,54.4,8a9.4,9.4,0,0,1-2.3,3.2l-.4.3a2.8,2.8,0,0,1,.1,1.3A3.4,3.4,0,0,1,49.9,15c-.4.7-1.4,1.6-4.1,1.9s-5.9,4.3-5.9,7.1S39.4,26.3,38.5,26.3Z" style="fill:#dfe590"/><path d="M47.5,2a3.2,3.2,0,0,1,1.7.6s2.7,1.1,2,3c0,0,3,.1,2.3,2.1s-2.8,3.1-3,3.8,1.3,1.5-1.3,2.8c0,0-.3,1.2-3.5,1.6s-6.8,4.8-6.8,8.1c0,.9-.2,1.3-.4,1.3s-1.3-2.3-.8-5c0,0,.7-4.6,3.4-6.4s6-3,5.7-5.7S45.9,4.3,45,3.8,45.9,2,47.5,2m0-2h0c-2.8,0-4.2,2.7-4.3,3a1.6,1.6,0,0,0-.1,1.5,2.3,2.3,0,0,0,1,1.2c.1,0,.5.6.8,2.8s-1.2,1.5-3,2.6L40,12.2c-3.3,2.2-4.1,7-4.2,7.8-.5,2.4-.1,5.2.9,6.4a2.2,2.2,0,0,0,1.8.9c.7,0,2.4-.3,2.4-3.3s3-5.9,5-6.2,4.1-1.2,4.7-2A4.6,4.6,0,0,0,52.8,13a2.4,2.4,0,0,0,0-1.2,8.6,8.6,0,0,0,2.5-3.4,3.4,3.4,0,0,0-.2-3A3.2,3.2,0,0,0,53.2,4a5.4,5.4,0,0,0-3-3.1A4.8,4.8,0,0,0,47.5,0Z" style="fill:#507125"/><path d="M35.3,45.2H32.7A26.3,26.3,0,0,1,12,35.6c-4-5.2-2-8.9-.7-11.4l.2-.4c1-2,1.8-6.1,2.2-8.4l.3-1.2c.4-2,.8-4.1,2.4-4.1s1.4.9,1.6,1.2,8.9,5.2,13.8,7.7l6.8,3.5c3.8,2.3,5.6,9.5,5.7,12.1a11.7,11.7,0,0,1-4,8.6A7.1,7.1,0,0,1,35.3,45.2Z" style="fill:#96b85c"/><path d="M16.4,11.1c.2,0,.5.2.8.7,1.4,2.1,17.4,9.5,20.9,11.6s5.1,8.9,5.2,11.2a10.9,10.9,0,0,1-3.7,7.9,6.4,6.4,0,0,1-4.3,1.7H32.7c-8.9,0-16.2-4.3-19.9-9.1s-1.6-8.4-.4-10.8,2.1-7.6,2.5-9.5.7-3.6,1.5-3.6m0-2c-2.4,0-3,2.7-3.4,4.9v.3c0,.3-.1.6-.1.9a41.9,41.9,0,0,1-2.2,8.1c-.1.2-.2.3-.2.5-1.3,2.3-3.5,6.7.9,12.4s11.2,9.9,21.4,9.9h2.6A8.3,8.3,0,0,0,41,43.9a12.8,12.8,0,0,0,4.3-9.3c-.1-2.4-1.8-10.3-6.2-12.9-1.2-.8-3.9-2.1-6.9-3.6S20,11.9,18.8,10.7a3.1,3.1,0,0,0-2.4-1.6Z" style="fill:#507125"/><path d="M33.1,45.6c-4,0-9.3-.3-11.1-.5A3.5,3.5,0,0,1,19.5,44l-.2-.3-2.1.2H17a3.5,3.5,0,0,1-2.7-1.6h-.6a9.9,9.9,0,0,1-3.1-.8,3,3,0,0,1-2.8-1.4,4,4,0,0,1-.2-3C4.3,35.7.5,32.5,1,28.6s4.6-4.3,6.2-4.3a6.6,6.6,0,0,1,4.7-2h.9a1.6,1.6,0,0,1,.5,2.3,4.1,4.1,0,0,0-.6,2.2c-.2,2.2,1,6.7,4.8,10.2a17.2,17.2,0,0,0,8.2,4.2l1.9.4a29.9,29.9,0,0,0,7.5,1.2l2.8.3a1.1,1.1,0,0,1,.8.9.9.9,0,0,1-.6,1c-.5.3-1.5.5-5,.5Z" style="fill:#dfe590"/><path d="M11.9,23.3h.5c.6.4-.5,1.2-.7,3.5s1,7.2,5.2,11.1,7.6,3.9,10.4,4.8,8.2,1.1,10.4,1.5a15.3,15.3,0,0,1-4.6.4c-4.1,0-9.5-.4-11-.5s-2-1.6-2-1.6a17.2,17.2,0,0,1-2.9.3H17c-1.5,0-2.2-1.8-2.2-1.8a2,2,0,0,1-1.1.3,8,8,0,0,1-2.9-.8h-.1c-3.8,0-1.8-4-1.8-4-2.9-.9-7.4-4-6.9-7.8s4.3-3.4,5.4-3.4h.4c.5-1.3,2.9-2,4.1-2m0-2h0a8.3,8.3,0,0,0-5.2,2C3,23.5.5,25.5.1,28.5S3,36,6.4,37.6a4.9,4.9,0,0,0,.5,3.1,4.1,4.1,0,0,0,3.5,1.8,8.8,8.8,0,0,0,3.3.8h.2A4,4,0,0,0,17,44.8h1.8A4.5,4.5,0,0,0,22,46.1c1.7.2,7.1.5,11.1.5s4.8-.3,5.4-.5A2.1,2.1,0,0,0,39.7,44,2.1,2.1,0,0,0,38,42.2l-2.8-.3a32.3,32.3,0,0,1-7.3-1.1L26,40.3a15.4,15.4,0,0,1-7.8-3.9c-3.6-3.3-4.7-7.5-4.5-9.4a4.3,4.3,0,0,1,.5-1.9c.9-2.2-.2-3.2-.9-3.5a3.2,3.2,0,0,0-1.4-.3Z" style="fill:#507125"/><path d="M41.6,29.2c-.7,0-.9-.7-1-1s-4-3.8-5.9-4.2L32,23.7a16.2,16.2,0,0,1-2.9-.2,11.4,11.4,0,0,1-5.4-2.6l-.6-.5a11.2,11.2,0,0,0-5.7-2.2,3.3,3.3,0,0,1-2.7-1.4,3.5,3.5,0,0,1-.7-2.6l-.4-.4-1.3-1.5a2.7,2.7,0,0,1-.2-2.3c.5-1.2,1.9-2.1,3.8-2.4h1.5a5.9,5.9,0,0,1,3.9,1.3.9.9,0,0,1,.4.8,1.4,1.4,0,0,1-.5.8c-.1.1-.1.6.5,1.3s8.9,5.6,13.1,8.1c2.4,1.4,4.3,2.4,4.9,2.9s3.2,4.9,2.9,5.8a1,1,0,0,1-.9.7Z" style="fill:#dfe590"/><path d="M17.4,8.5a5.6,5.6,0,0,1,3.3,1s-1.3.9.3,2.8,16.3,9.9,18.2,11.2,2.6,4.7,2.5,4.7-.1-.1-.2-.3S37,23.5,35,23s-3.3-.1-5.8-.5-4.1-1.9-5.5-2.9a13,13,0,0,0-6.2-2.4,2.6,2.6,0,0,1-2.5-3c.1-.5-.9-1.1-1.8-2.5S13.8,9,16,8.6h1.4m0-2H15.7c-2.2.4-3.9,1.5-4.5,3a3.3,3.3,0,0,0,.3,3.2,9,9,0,0,0,1.4,1.7H13a4.8,4.8,0,0,0,.9,2.8,4.8,4.8,0,0,0,3.4,1.8,11.5,11.5,0,0,1,5.2,2l.6.5a13.1,13.1,0,0,0,5.8,2.8,18.4,18.4,0,0,0,3.1.2l2.5.3a11.9,11.9,0,0,1,5.1,3.6,2.2,2.2,0,0,0,2.1,1.6,2.1,2.1,0,0,0,1.9-1.4c.4-1.5-1.3-5.6-3.3-6.9a54.1,54.1,0,0,0-5-3c-3.8-2.2-11.8-6.7-12.8-7.9s-.2-.2-.2-.3a1.7,1.7,0,0,0,.3-1A1.7,1.7,0,0,0,22,8.1a6.9,6.9,0,0,0-4.6-1.6Z" style="fill:#507125"/></g></g></svg>