<svg xmlns="http://www.w3.org/2000/svg" viewBox="0 0 22.9 43.8"><g style="isolation:isolate"><g id="Layer_2" data-name="Layer 2"><g id="Layer_1-2" data-name="Layer 1"><rect x="1" y="11.4" width="20.9" height="31.31" rx="7.1" style="fill:#ffb8ae"/><path d="M14.8,12.4a6.1,6.1,0,0,1,6.1,6.1V35.7a6.1,6.1,0,0,1-6.1,6.1H8.1A6.1,6.1,0,0,1,2,35.7V18.5a6.1,6.1,0,0,1,6.1-6.1h6.7m0-2H8.1A8.1,8.1,0,0,0,0,18.5V35.7a8.1,8.1,0,0,0,8.1,8.1h6.7a8.1,8.1,0,0,0,8.1-8.1V18.5a8.1,8.1,0,0,0-8.1-8.1Z" style="fill:#ec7670"/><path d="M11.5,0c.1,3.1,5.7,10.6,0,11A2.6,2.6,0,0,1,8.9,8.8C8.5,6.6,10.8,3.2,11.5,0Z" style="fill:#fcd54d"/><path d="M11.5,4.3c0,1.9,3.4,6.3,0,6.6A1.7,1.7,0,0,1,9.9,9.6C9.7,8.2,11,6.2,11.5,4.3Z" style="fill:#ffd279;mix-blend-mode:screen"/><path d="M2,18.5V35.7a6.1,6.1,0,0,0,6.1,6.1H13a6.1,6.1,0,0,1-6.1-6.1V18.5A6.1,6.1,0,0,1,13,12.4H8.1A6.1,6.1,0,0,0,2,18.5Z" style="fill:#ffb8ae;opacity:0.30000000000000004;mix-blend-mode:multiply"/><path d="M9.9,12.5v.2A1.1,1.1,0,0,0,11,13.8h.4a1.1,1.1,0,0,0,1.1-1.1v-.2Z" style="opacity:0.1"/><path d="M11.2,13.4a.5.5,0,0,0,.5-.5V9.1a.5.5,0,1,0-1,0v3.8A.5.5,0,0,0,11.2,13.4Z" style="fill:#c4e0bd"/></g></g></g></svg>