<svg xmlns="http://www.w3.org/2000/svg" viewBox="0 0 114 98.6"><g style="isolation:isolate"><g id="Layer_2" data-name="Layer 2"><g id="Layer_1-2" data-name="Layer 1"><polygon points="23.7 57.5 24.3 47.2 89.7 47 89.7 57.5 23.7 57.5" style="fill:#924f28"/><polygon points="26.8 46.9 27.1 57 18.2 57 26.8 46.9" style="fill:#924f28"/><polygon points="87.4 46.9 87.1 57 95.9 57 87.4 46.9" style="fill:#924f28"/><g style="mix-blend-mode:multiply"><rect x="26.8" y="47.1" width="2.1" height="8.33" style="fill:#af7553"/></g><g style="mix-blend-mode:multiply"><polygon points="87.1 55.4 85 55.4 85 47.1 87.3 47.1 87.1 55.4" style="fill:#af7553"/></g><path d="M95.7,58.3a1.4,1.4,0,0,1-1.1-.5l-7.8-9.4H27.2l-7.6,9.3a1.7,1.7,0,0,1-1.2.5H16.1a1.3,1.3,0,0,1-1.3-.9,1.4,1.4,0,0,1,.2-1.6l8-9.4.2-.3,1-1.2a1.3,1.3,0,0,1,1.1-.6H88.5a1.8,1.8,0,0,1,1,.4l1.1,1.1a.8.8,0,0,1,.4.4l8.2,9.6a1.8,1.8,0,0,1,.2,1.6,1.5,1.5,0,0,1-1.4.9Z" style="fill:#ddab88"/><path d="M88.5,45.8l1.1,1.1h-.1L98,56.8H95.7l-8.2-9.9h-61l-8.1,9.8H16.1L24.5,47h-.1l.9-1.2H88.5m0-3H25.3A3.1,3.1,0,0,0,23,44l-.9,1.1c-.2.2-.3.3-.3.5l-8,9.3a3.1,3.1,0,0,0-.4,3.2,3,3,0,0,0,2.7,1.7h2.3a2.8,2.8,0,0,0,2.3-1.1L27.9,50H86.1l7.3,8.8a3,3,0,0,0,2.3,1.1H98a3,3,0,0,0,2.7-1.7,2.9,2.9,0,0,0-.4-3.2l-8.1-9.5a4.2,4.2,0,0,0-.6-.8l-1.1-1a3,3,0,0,0-2-.8Z" style="fill:#75411a"/><path d="M39.2,36.4h-.4a1.5,1.5,0,0,1-1.2-1c-1.7-3.5-9.9-21.6-6.3-28.6a5.1,5.1,0,0,1,3.7-3h1.1A4.8,4.8,0,0,1,39.4,5c5.5,4.7,4.9,23.6,4.7,27.4a1.7,1.7,0,0,1-.7,1.3l-3.1,2.4H40a1.2,1.2,0,0,1-.8.2Z" style="fill:#4a8c32"/><path d="M36.1,5.2a3.5,3.5,0,0,1,2.3.9c5.2,4.5,4.3,25.3,4.2,26.2s0,.1-.1.2l-3.1,2.4h-.5c-.4-.9-9.6-20.6-6.3-27.4a4.1,4.1,0,0,1,2.7-2.1h.8m0-3-1.4.2a6.7,6.7,0,0,0-4.8,3.7c-3.7,7.5,3.9,24.8,6.3,29.9a2.9,2.9,0,0,0,2.2,1.8h.8a3.2,3.2,0,0,0,1.4-.3l.6-.3,3.1-2.4a3.1,3.1,0,0,0,1.3-2.5c.3-5.4.7-23.5-5.3-28.6a6.5,6.5,0,0,0-4.2-1.6Z" style="fill:#2e5b1d"/><path d="M39.7,22.5c0-.6-.1-1.2-.1-1.9s-.4-2.6-.7-4.1a38.4,38.4,0,0,0-1.1-4c-.3-.6-.5-1.2-.7-1.7l-.6-1.5A12,12,0,0,0,35,6.6a22.7,22.7,0,0,0,1.1,2.9l.6,1.5c.2.5.3,1.1.5,1.7a32.6,32.6,0,0,1,1.1,4,33.8,33.8,0,0,1,.7,4,11,11,0,0,1,.2,1.8c.1.6.1,1.1.2,1.6a20.8,20.8,0,0,0,.2,3.1,12,12,0,0,0,.2-3.2A8.1,8.1,0,0,0,39.7,22.5Z" style="fill:#3b2910;opacity:0.2;mix-blend-mode:multiply"/><path d="M45.5,39.4A1.7,1.7,0,0,1,43.8,38a46.7,46.7,0,0,1-.2-17.1C44.8,14,46.9,8.7,49.9,4.8a8.8,8.8,0,0,1,4.5-3.2h1.2a4.8,4.8,0,0,1,4.6,2.8c.8,1.9.1,3.7-.5,5.1a4.3,4.3,0,0,0-.5,2.5,4.4,4.4,0,0,0,.9,1.3,5.7,5.7,0,0,1,1.6,2.5,5.7,5.7,0,0,1-1.2,5.2A13.4,13.4,0,0,1,58,23.2l-.6.4a17.7,17.7,0,0,0-4.9,5.9,9.9,9.9,0,0,0-.6,7.1,1.9,1.9,0,0,1-.2,1.5,1.9,1.9,0,0,1-.7.6,1.1,1.1,0,0,1-.7.2l-4.6.5Z" style="fill:#6c9433"/><path d="M55.6,3a3.3,3.3,0,0,1,3.2,1.9c.6,1.3.1,2.7-.5,4s-.9,2.3-.6,3.4A4.6,4.6,0,0,0,59,14.2a6.9,6.9,0,0,1,1.3,2,4.4,4.4,0,0,1-.9,3.7A11.2,11.2,0,0,1,57.1,22l-.6.5a16.5,16.5,0,0,0-5.3,6.4,11.6,11.6,0,0,0-.8,8.1.2.2,0,0,1,0,.3h-.2l-4.6.5h-.1l-.3-.2a45.7,45.7,0,0,1-.1-16.5c1.1-6.7,3.1-11.8,6-15.4a6.6,6.6,0,0,1,3.7-2.7h.8m0-3L54.1.2a9.5,9.5,0,0,0-5.4,3.7c-3.2,4.1-5.3,9.6-6.6,16.8a47.2,47.2,0,0,0,.2,17.6,3.3,3.3,0,0,0,3.2,2.6h.4l4.6-.5a2,2,0,0,0,1.1-.3,3.7,3.7,0,0,0,1.3-1.2,3.1,3.1,0,0,0,.4-2.8,7.8,7.8,0,0,1,.6-5.9,15.8,15.8,0,0,1,4.5-5.4l.5-.4a16.6,16.6,0,0,0,2.8-2.6,6.9,6.9,0,0,0,1.4-6.5,8.2,8.2,0,0,0-1.9-3.1l-.6-.7c.1-.3.3-1,.5-1.5s1.5-3.8.5-6.2a6.3,6.3,0,0,0-6-3.8Z" style="fill:#507125"/><path d="M55.7,21.8a11.1,11.1,0,0,0-2.4-.5,9.8,9.8,0,0,0-2.5.1h-.5a.1.1,0,0,0,.1-.1,31.5,31.5,0,0,1,2.3-4.1c.8-1.1,1.7-2.1,2.4-2.9s2.8-2.1,2.7-2.2h-.2l-.6.4a14.4,14.4,0,0,0-2.2,1.5A18.7,18.7,0,0,0,52.3,17l-1.1,1.6a39.7,39.7,0,0,0-.5-4.7c-.3-3-.8-5.4-1-5.4a36.4,36.4,0,0,0,.5,5.5,48.7,48.7,0,0,0,.8,4.9l-1.1,2.2a28.6,28.6,0,0,0-2.6,8.3c-.1,1.1-.2,2-.2,2.6v.9c.1,0,.2-1.3.6-3.4a35.7,35.7,0,0,1,2.5-7.7h3.1c1.8.1,3.3.6,3.3.4S56.3,22,55.7,21.8Z" style="fill:#3b2910;opacity:0.2;mix-blend-mode:multiply"/><path d="M47.5,68.9a5.4,5.4,0,0,1-2.2-.5A6.2,6.2,0,0,1,43.4,67c-5.4-5.2-7.9-23.1-7.7-27.1.2-6.3,6.3-8.4,9.5-8.7h.5c4.3,0,9.2,1.9,10.2,7.3s.8,21.9-3.8,27.9a5.9,5.9,0,0,1-4.2,2.5Z" style="fill:#ff8d3d"/><path d="M45.7,32.7c1.6,0,7.7.4,8.7,6.1.7,3.6.8,21.1-3.5,26.7a4.2,4.2,0,0,1-3.1,1.9h-.3a3.2,3.2,0,0,1-1.6-.4,6.5,6.5,0,0,1-1.5-1c-5-4.9-7.4-22.3-7.2-26,.2-6.6,8-7.3,8.1-7.3h.4m0-3h-.6c-3.6.3-10.6,2.7-10.9,10.1-.2,3.9,2,22.4,8.1,28.3a6.9,6.9,0,0,0,2.3,1.6,6.2,6.2,0,0,0,2.9.7H48a7.2,7.2,0,0,0,5.3-3.1c5.1-6.6,4.7-25.5,4.1-29.1-1.2-6.3-6.8-8.5-11.7-8.5Z" style="fill:#e57225"/><g style="opacity:0.5"><path d="M42.2,40.1c-2.5-.1-4.5-.8-4.4-1.1s2,.1,4.5.2,4.5.2,4.5.4S44.8,40.3,42.2,40.1Z" style="fill:#fff6eb"/></g><g style="opacity:0.5"><path d="M49.4,45.2a24.4,24.4,0,0,1-3.6-.6q-1.5-.5-1.5-.6c.1-.3,2.4.1,5.1.3s5.1-.1,5.2.2-.6.3-1.5.5Z" style="fill:#fff6eb"/></g><g style="opacity:0.5"><path d="M42.7,51.1c-2.3-.2-4.1-1-4-1.2s1.9.1,4.1.4,4,.3,4,.6S44.9,51.4,42.7,51.1Z" style="fill:#fff6eb"/></g><path d="M94.7,43h-.2a1.5,1.5,0,0,1-1.1-.6.2.2,0,0,1-.2-.2l-2-3.4a1.6,1.6,0,0,1-.2-1.5c1.2-3.6,7.7-21.3,14.6-23.7a5.2,5.2,0,0,1,1.7-.2,4.8,4.8,0,0,1,2.8.8,5.7,5.7,0,0,1,2.4,4.1c.6,8.1-14.8,22.6-16.6,24.2A1.3,1.3,0,0,1,94.7,43Z" style="fill:#4a8c32"/><path d="M107.3,14.9a3.3,3.3,0,0,1,1.9.6,3.7,3.7,0,0,1,1.8,3c.6,7.4-15.4,22.3-16.1,22.9s-.1.1-.2.1h0c-.1,0-.2,0-.2-.1h0L92.4,38v-.2c.3-.9,7.2-20.5,13.7-22.7a2.5,2.5,0,0,1,1.2-.2m0-3h0l-2.1.3c-7.5,2.5-13.9,19.5-15.6,24.6a3.2,3.2,0,0,0,.3,2.7l2,3.4a1,1,0,0,0,.4.5,3.1,3.1,0,0,0,1.9,1.1h.5a3.5,3.5,0,0,0,2.2-.8c4.2-3.9,17.7-17.1,17.1-25.5a6.8,6.8,0,0,0-3.1-5.2,5.9,5.9,0,0,0-3.6-1.1Z" style="fill:#2e5b1d"/><path d="M98.7,29.7l.9-1.6,2.1-3.6,2.6-3.3,1.2-1.3,1.1-1.1c1.4-1.4,2.4-2.1,2.5-2l-2.2,2.3-1,1.1-1.2,1.4-2.5,3.3L100,28.4a10.9,10.9,0,0,0-.8,1.5l-.7,1.4a18.2,18.2,0,0,1-1.4,2.9,21.4,21.4,0,0,1,1-3Z" style="fill:#3b2910;opacity:0.2;mix-blend-mode:multiply"/><path d="M87.7,43.4l-.8-.2L82.8,41l-.6-.4a1.7,1.7,0,0,1,0-2.3,9.7,9.7,0,0,0,2-6.8,16.7,16.7,0,0,0-2.3-7.3l-.4-.6a12.6,12.6,0,0,1-1.4-3.1,5.5,5.5,0,0,1,.8-5.2,7.5,7.5,0,0,1,2.4-1.8,3.8,3.8,0,0,0,1.4-.9,6.5,6.5,0,0,0,.4-2.4c0-1.6,0-3.5,1.4-4.9a4.4,4.4,0,0,1,3.3-1.4,5.7,5.7,0,0,1,3.1,1,8.4,8.4,0,0,1,3,4.7c1.4,4.7,1.3,10.3-.2,17.3a43.9,43.9,0,0,1-6.5,15.7A1.8,1.8,0,0,1,87.7,43.4Z" style="fill:#6c9433"/><path d="M89.8,5.4a3.5,3.5,0,0,1,2.2.8A6.9,6.9,0,0,1,94.5,10c1.3,4.5,1.2,9.9-.2,16.5A47.5,47.5,0,0,1,88,41.8h-.4l-4.2-2.2h0c-.1,0-.1,0-.1-.1s0-.2.1-.2a11.8,11.8,0,0,0,2.3-7.9,18.1,18.1,0,0,0-2.5-7.9,2.5,2.5,0,0,0-.4-.7,11.3,11.3,0,0,1-1.3-2.7,4.7,4.7,0,0,1,.5-3.9,9,9,0,0,1,2-1.4,4.7,4.7,0,0,0,1.8-1.2c.7-.9.7-2.1.8-3.4s0-2.9,1-3.9a3.1,3.1,0,0,1,2.2-.9m0-3h0a6.3,6.3,0,0,0-4.4,1.8c-1.8,1.9-1.8,4.4-1.8,6s-.1,1.3-.1,1.5l-.8.5a7.9,7.9,0,0,0-3,2.1,7.2,7.2,0,0,0-1.1,6.6,19.2,19.2,0,0,0,1.6,3.5h.1l.3.5a15.7,15.7,0,0,1,2.1,6.7A7.8,7.8,0,0,1,81,37.3a3.5,3.5,0,0,0-.6,2.8,3.3,3.3,0,0,0,.7,1.6l1,.7,4.1,2.1a2.8,2.8,0,0,0,1.5.4,3.2,3.2,0,0,0,2.8-1.5,47.8,47.8,0,0,0,6.7-16.2c1.5-7.2,1.6-13.1.1-18a9.9,9.9,0,0,0-3.5-5.5,7.3,7.3,0,0,0-4-1.3Z" style="fill:#507125"/><path d="M84.2,23.2a8,8,0,0,1,2.4.4,11.6,11.6,0,0,1,2.2,1l.5.3h0a31.1,31.1,0,0,0-.7-4.7,22.2,22.2,0,0,0-1.1-3.6c-.9-2-1.8-3-1.7-3.1l.2.2.5.5a12.1,12.1,0,0,1,1.4,2.2A38.5,38.5,0,0,1,89.2,20l.3,1.9c.4-.9,1.2-2.4,2.2-4.2s2.8-4.7,3-4.6A34.3,34.3,0,0,1,92.2,18c-1.1,2-2.1,3.6-2.6,4.3a17.9,17.9,0,0,1,.2,2.4,27.3,27.3,0,0,1-.7,8.6,16.4,16.4,0,0,1-.7,2.5,4.1,4.1,0,0,1-.4.9c-.1,0,.3-1.3.7-3.5a36.1,36.1,0,0,0,.6-8,18.2,18.2,0,0,0-2.9-1c-1.7-.6-3.3-.8-3.3-.9S83.5,23.1,84.2,23.2Z" style="fill:#3b2910;opacity:0.2;mix-blend-mode:multiply"/><path d="M76.2,70.3a4.4,4.4,0,0,1-2.3-.6,5.6,5.6,0,0,1-3-3.8c-2.1-7.3,4.7-24,6.9-27.3a8.1,8.1,0,0,1,7.3-4,13.2,13.2,0,0,1,5.3,1.2c.1.1,8.3,4.1,5.6,11.6-1.3,3.8-10.3,19.5-17.3,22.3l-2.2.6Z" style="fill:#ff8d3d"/><path d="M85.1,36.1a9.6,9.6,0,0,1,4.6,1.1c.1,0,7.1,3.5,4.9,9.7-1.3,3.6-10,18.8-16.5,21.4a6.4,6.4,0,0,1-1.7.5h-.2a4.7,4.7,0,0,1-1.7-.4,4.2,4.2,0,0,1-2.2-2.9c-1.9-6.8,4.7-23,6.7-26.1a6.9,6.9,0,0,1,6.1-3.3m0-3h0a10.1,10.1,0,0,0-8.6,4.6c-2,3.2-9.3,20.5-7.1,28.6a7.2,7.2,0,0,0,3.8,4.8,7.3,7.3,0,0,0,3,.7h.3a9.6,9.6,0,0,0,2.8-.7c7.9-3.2,16.8-19.5,18.1-23.2,2.5-7-3.1-11.8-6.4-13.4a12.7,12.7,0,0,0-5.9-1.4Z" style="fill:#e57225"/><g style="opacity:0.5"><path d="M89.8,45.2c2.4.8,4.5.9,4.6.6s-2-.7-4.3-1.5-4.2-1.5-4.3-1.3S87.4,44.4,89.8,45.2Z" style="fill:#fff6eb"/></g><g style="opacity:0.5"><path d="M81.3,47.2a24.3,24.3,0,0,0,3.6.8c.9.1,1.5.1,1.5-.1s-2.2-.7-4.8-1.6-4.7-1.9-4.8-1.7.3.5,1.2,1A17,17,0,0,0,81.3,47.2Z" style="fill:#fff6eb"/></g><g style="opacity:0.5"><path d="M85.3,55.2c2.2.7,4.1.6,4.2.4s-1.8-.6-3.9-1.2-3.9-1.2-4-.9S83.1,54.7,85.3,55.2Z" style="fill:#fff6eb"/></g><path d="M20.5,52.4a1.5,1.5,0,0,1-1.1-.4C17.5,50.5,1.3,36.8,1.5,28.7a5.1,5.1,0,0,1,2.2-4.2,4.6,4.6,0,0,1,2.9-1,3.9,3.9,0,0,1,1.5.2C15.2,25.6,22.6,43,24,46.5a1.6,1.6,0,0,1-.1,1.5l-1.8,3.4c-.1.1-.1.3-.2.3a1.6,1.6,0,0,1-1.1.7Z" style="fill:#4a8c32"/><path d="M6.6,25H7.7C14.3,26.9,22.3,46.2,22.6,47v.3l-1.8,3.5h-.1a.1.1,0,0,1-.1.1h-.3c-.7-.5-17.5-14.5-17.3-22a3.7,3.7,0,0,1,1.6-3.1,3.1,3.1,0,0,1,2-.7m0-3a6,6,0,0,0-3.8,1.3A6.8,6.8,0,0,0,0,28.7c-.2,8.4,14,20.8,18.4,24.5a3.8,3.8,0,0,0,2.1.7h.6a3.1,3.1,0,0,0,2-1.1l.3-.6,1.8-3.4a3.4,3.4,0,0,0,.2-2.8c-2.1-5-9.4-21.6-16.9-23.7A6.2,6.2,0,0,0,6.6,22Z" style="fill:#2e5b1d"/><path d="M15.8,39.3a11.9,11.9,0,0,0-.9-1.5,29.8,29.8,0,0,0-2.3-3.5c-.9-1.1-1.9-2.2-2.8-3.1L8.5,29.9,7.3,28.8A8.7,8.7,0,0,0,4.8,27c0,.1.9.8,2.3,2.2a11.3,11.3,0,0,1,1.1,1.1l1.2,1.2c.9,1,1.8,2,2.7,3.2s1.7,2.3,2.4,3.4l.9,1.5.8,1.4c.9,1.6,1.4,2.7,1.5,2.7a10.6,10.6,0,0,0-1.1-2.9Z" style="fill:#3b2910;opacity:0.2;mix-blend-mode:multiply"/><path d="M27.5,52.4a1.7,1.7,0,0,1-1.4-.7,44.9,44.9,0,0,1-7.4-15.4c-1.9-6.8-2.2-12.4-1.1-17.2a7.6,7.6,0,0,1,2.7-4.8,5.2,5.2,0,0,1,3.4-1.2,4.6,4.6,0,0,1,3,1.1c1.5,1.4,1.6,3.3,1.7,4.9s.1,2,.5,2.4a5.8,5.8,0,0,0,1.4.8,9.2,9.2,0,0,1,2.6,1.6A5.8,5.8,0,0,1,34,29.1a13.4,13.4,0,0,1-1.3,3.2l-.3.6a16.8,16.8,0,0,0-2,7.4A10,10,0,0,0,32.8,47a1.7,1.7,0,0,1,.5,1.5,2,2,0,0,1-.4.8c-.1.2-.3.3-.5.5l-4,2.4-.9.2Z" style="fill:#6c9433"/><path d="M23.7,14.6a2.7,2.7,0,0,1,2,.8c1.1.9,1.1,2.4,1.2,3.8a5.6,5.6,0,0,0,.9,3.3,4.7,4.7,0,0,0,1.9,1.2A4.6,4.6,0,0,1,31.8,25a3.9,3.9,0,0,1,.7,3.7,9.3,9.3,0,0,1-1.2,2.9l-.3.6a18.4,18.4,0,0,0-2.1,8.1A11.2,11.2,0,0,0,31.7,48a.4.4,0,0,1,.1.3.1.1,0,0,1-.1.1h0l-4.1,2.4h-.1c-.1,0-.2,0-.2-.1a45.9,45.9,0,0,1-7.2-14.9C18.3,29.3,18,24,19,19.4a7.4,7.4,0,0,1,2.2-4,4.4,4.4,0,0,1,2.5-.8m0-3a6.6,6.6,0,0,0-4.3,1.5,9.5,9.5,0,0,0-3.3,5.7c-1.2,5-.8,10.9,1.1,17.9a48,48,0,0,0,7.7,15.9,3.3,3.3,0,0,0,2.6,1.3,3.4,3.4,0,0,0,1.7-.5l4-2.4.9-.7a4.6,4.6,0,0,0,.7-1.6,3.3,3.3,0,0,0-.9-2.7,8.4,8.4,0,0,1-2-5.7,15,15,0,0,1,1.8-6.7L34,33a15,15,0,0,0,1.4-3.6A7.1,7.1,0,0,0,34,22.9a8.5,8.5,0,0,0-3.1-2l-.8-.4c-.1-.3-.1-1-.2-1.5s-.2-4.1-2.2-5.9a5.9,5.9,0,0,0-4-1.5Z" style="fill:#507125"/><path d="M30,32a6.4,6.4,0,0,0-2.4.6,9,9,0,0,0-2.2,1.1L25,34h0a33,33,0,0,1,.4-4.7,18.1,18.1,0,0,1,1-3.7,20.5,20.5,0,0,1,1.5-3.1c-.1-.1-.1,0-.2.1l-.5.6A15.4,15.4,0,0,0,26,25.4a12.4,12.4,0,0,0-1.1,3.7L24.6,31c-.4-.8-1.3-2.4-2.4-4.1A26,26,0,0,0,19,22.5a29.5,29.5,0,0,0,2.7,4.7,27.5,27.5,0,0,0,2.9,4.2,19.5,19.5,0,0,0-.2,2.5,32.1,32.1,0,0,0,1.2,8.5l.9,2.5c.3.5.4.8.5.8s-.4-1.3-1-3.4a39.4,39.4,0,0,1-1-8l2.8-1.2c1.8-.6,3.3-.9,3.3-1.1A3.4,3.4,0,0,0,30,32Z" style="fill:#3b2910;opacity:0.2;mix-blend-mode:multiply"/><path d="M40.3,78.6a10.1,10.1,0,0,1-2.3-.4c-7.1-2.5-16.9-17.6-18.5-21.3-2.4-5.8,2.2-10.4,5-11.9a12.5,12.5,0,0,1,5.8-1.5A8.1,8.1,0,0,1,37.2,47c2.4,3.3,10.1,19.5,8.5,26.9a5.7,5.7,0,0,1-2.8,4A4.8,4.8,0,0,1,40.3,78.6Z" style="fill:#ff8d3d"/><path d="M30.3,45A6.5,6.5,0,0,1,36,47.9c2.2,3,9.7,18.8,8.2,25.7a4.4,4.4,0,0,1-2,3,4.1,4.1,0,0,1-1.9.5l-1.8-.3c-6.6-2.3-16.1-17-17.6-20.5-2.5-6.1,4.3-10,4.3-10A12.7,12.7,0,0,1,30.3,45m0-3a13.9,13.9,0,0,0-6.5,1.7c-3.2,1.7-8.5,6.9-5.6,13.8C19.6,61,29.5,76.8,37.5,79.6a9.7,9.7,0,0,0,2.8.5,6.3,6.3,0,0,0,3.3-.9,6.9,6.9,0,0,0,3.5-5c1.8-8.2-6.5-25.1-8.6-28.1A9.8,9.8,0,0,0,30.3,42Z" style="fill:#e57225"/><g style="opacity:0.5"><path d="M25.6,54.3c-2.4.9-4.5,1.1-4.5.9s1.9-.8,4.2-1.7,4.1-1.8,4.2-1.6S28,53.4,25.6,54.3Z" style="fill:#fff6eb"/></g><g style="opacity:0.5"><path d="M34.2,55.8a16,16,0,0,1-3.5,1c-1,.2-1.6.2-1.6.1s2.2-.9,4.8-1.9,4.6-2.2,4.7-2-.4.5-1.1,1.1A19.9,19.9,0,0,1,34.2,55.8Z" style="fill:#fff6eb"/></g><g style="opacity:0.5"><path d="M30.6,64.1c-2.1.7-4,.8-4.1.5s1.8-.7,3.9-1.4,3.7-1.3,3.9-1.1S32.8,63.4,30.6,64.1Z" style="fill:#fff6eb"/></g><path d="M75.3,56.8a2,2,0,0,1-1.1-.3l-.2-.2-2.7-3a1.7,1.7,0,0,1-.5-1.4c.5-3.7,3.1-22.4,9.5-26.1a4.6,4.6,0,0,1,2.5-.8,5.8,5.8,0,0,1,1.9.4A5.5,5.5,0,0,1,87.9,29c2.3,7.7-9.8,25.1-11.2,27.1a1.7,1.7,0,0,1-1.3.7Z" style="fill:#4a8c32"/><path d="M82.8,26.5a3.5,3.5,0,0,1,1.4.3,4,4,0,0,1,2.3,2.6c2.1,7.2-10.5,25-11,25.8H75l-2.6-2.9c-.1,0-.1-.1-.1-.2s2.8-21.5,8.7-25a3.2,3.2,0,0,1,1.8-.6m0-3a6,6,0,0,0-3.3,1c-6.8,4-9.5,21.8-10.2,27.2a3.3,3.3,0,0,0,.9,2.7l2.6,2.9.5.4a3.6,3.6,0,0,0,2,.6h.2A3.5,3.5,0,0,0,78,56.9c3.2-4.6,13.7-20.3,11.4-28.4A7.1,7.1,0,0,0,85.3,24a7,7,0,0,0-2.5-.5Z" style="fill:#2e5b1d"/><path d="M76.8,42.9c.2-.5.3-1.1.5-1.7a38.4,38.4,0,0,1,1.4-4c.6-1.3,1.2-2.6,1.8-3.7l.9-1.6.9-1.3a12.7,12.7,0,0,1,2-2.5l-1.6,2.7a6.4,6.4,0,0,0-.8,1.4c-.3.4-.6,1-.9,1.5s-1.2,2.4-1.8,3.8-1,2.6-1.4,3.8-.3,1.2-.5,1.7-.3,1.1-.4,1.6a21.8,21.8,0,0,1-.7,3,11.8,11.8,0,0,1,.3-3.1Z" style="fill:#3b2910;opacity:0.2;mix-blend-mode:multiply"/><path d="M68.5,58.6H68l-4.5-1.3-.6-.3a2,2,0,0,1-.5-2.3,9.3,9.3,0,0,0,.6-7A16.9,16.9,0,0,0,59.2,41c-.1-.2-.3-.3-.5-.5a15.7,15.7,0,0,1-2.1-2.8,5.6,5.6,0,0,1-.2-5.2,7.6,7.6,0,0,1,2-2.3c.5-.4,1-.7,1.1-1.1s.1-1.4-.1-2.5-.7-3.4.4-5.1a4.8,4.8,0,0,1,4.1-2.1,5.4,5.4,0,0,1,2.1.5,7.8,7.8,0,0,1,3.9,3.9c2.3,4.3,3.4,9.9,3.4,16.9a46.4,46.4,0,0,1-3.1,16.8A1.8,1.8,0,0,1,68.5,58.6Z" style="fill:#6c9433"/><path d="M63.9,20.9a4,4,0,0,1,1.5.3,7.8,7.8,0,0,1,3.2,3.3c2.2,4.1,3.2,9.4,3.2,16.2a44.9,44.9,0,0,1-3,16.2c-.1.2-.2.2-.3.2h-.1l-4.5-1.3h-.2a.4.4,0,0,1,.1-.3,11.7,11.7,0,0,0,.7-8.1A18.2,18.2,0,0,0,60.3,40l-.4-.5A15,15,0,0,1,58,37a3.8,3.8,0,0,1-.3-3.8,4.9,4.9,0,0,1,1.7-1.8,5.6,5.6,0,0,0,1.5-1.6c.5-1,.2-2.2,0-3.5s-.6-2.8.2-4a3.4,3.4,0,0,1,2.8-1.4m0-3h0a6.5,6.5,0,0,0-5.4,2.8c-1.4,2.2-.9,4.6-.6,6.2a5.5,5.5,0,0,1,.3,1.6l-.7.6A8.3,8.3,0,0,0,55,31.8a7.3,7.3,0,0,0,.3,6.7,19.5,19.5,0,0,0,2.3,3l.5.5a15.3,15.3,0,0,1,3.5,6.1,8.4,8.4,0,0,1-.5,5.9,3.3,3.3,0,0,0-.1,2.9,2.8,2.8,0,0,0,1.1,1.3,1.9,1.9,0,0,0,1,.5L67.6,60h.9A3.3,3.3,0,0,0,71.6,58a46.7,46.7,0,0,0,3.2-17.3c0-7.3-1.1-13-3.6-17.6a9.3,9.3,0,0,0-4.6-4.6,6.3,6.3,0,0,0-2.7-.6Z" style="fill:#507125"/><path d="M61.2,39.5a9.6,9.6,0,0,1,2.5-.1,7.7,7.7,0,0,1,2.4.6l.5.2c0-.1-.1-.1-.1-.2A25.2,25.2,0,0,0,65,35.6a24.1,24.1,0,0,0-1.9-3.3c-1.3-1.8-2.4-2.6-2.3-2.7l.2.2c.2,0,.4.2.6.4a11.3,11.3,0,0,1,1.8,1.9,18.9,18.9,0,0,1,2.1,3.3c.2.5.5,1.1.7,1.7s.7-2.6,1.3-4.5a27.2,27.2,0,0,1,1.9-5.1c.2,0-.4,2.4-1.3,5.2a34,34,0,0,1-1.8,4.8,16.9,16.9,0,0,1,.8,2.4,31.9,31.9,0,0,1,1.1,8.5c-.1,1.1-.2,2-.3,2.6s-.1,1-.2,1,.1-1.4,0-3.6a31.6,31.6,0,0,0-1.1-7.9,19.9,19.9,0,0,0-3-.5c-1.8-.2-3.3,0-3.4-.2Z" style="fill:#3b2910;opacity:0.2;mix-blend-mode:multiply"/><path d="M62,87.4l-1.3-.2A6.2,6.2,0,0,1,57,84.1c-3.5-6.8-.3-24.5,1.1-28.2s4.5-5.6,8.9-5.6a13.2,13.2,0,0,1,2.9.3c3.1.8,8.7,3.9,7.9,10.2-.5,4-6.1,21.1-12.3,25.4a6.7,6.7,0,0,1-2.1,1Z" style="fill:#ff8d3d"/><path d="M67,51.8a12,12,0,0,1,2.6.3s7.6,2,6.7,8.5C75.8,64.4,70.4,81,64.6,85a5.6,5.6,0,0,1-1.6.7l-1,.2h-.9a4.6,4.6,0,0,1-2.8-2.4c-3.2-6.3-.1-23.5,1.3-27s4.9-4.6,7.4-4.6m0-3h0c-4.9,0-8.7,2.4-10.3,6.6s-4.9,21.9-1,29.3a7.1,7.1,0,0,0,4.7,4l1.6.2a5.7,5.7,0,0,0,1.8-.3,7.2,7.2,0,0,0,2.5-1.2c7.1-4.8,12.5-22.5,13-26.4,1-7.3-5.5-11-9-11.8a9.9,9.9,0,0,0-3.3-.4Z" style="fill:#e57225"/><g style="opacity:0.5"><path d="M71.3,59.9c2.5.3,4.6-.1,4.6-.3s-2.1-.3-4.5-.6-4.4-.7-4.5-.4S68.7,59.6,71.3,59.9Z" style="fill:#fff6eb"/></g><g style="opacity:0.5"><path d="M63.4,63.6a15.7,15.7,0,0,0,3.7.1c.9-.1,1.5-.3,1.5-.4s-2.4-.2-5.1-.6-5-.9-5.1-.7.5.5,1.4.8A19.7,19.7,0,0,0,63.4,63.6Z" style="fill:#fff6eb"/></g><g style="opacity:0.5"><path d="M69,70.7c2.3.1,4.1-.3,4.1-.6s-1.9-.2-4.1-.3-4-.4-4.1-.1S66.7,70.5,69,70.7Z" style="fill:#fff6eb"/></g><rect x="16.4" y="71.9" width="12.1" height="8.09" rx="1" style="fill:#d8a960"/><path d="M27.5,72.9V79H17.4V72.9H27.5m0-2H17.4a2,2,0,0,0-2,2V79a2,2,0,0,0,2,2H27.5a2,2,0,0,0,2-2V72.9a2,2,0,0,0-2-2Z" style="fill:#75411a"/><rect x="84.9" y="71.9" width="12.1" height="8.08" rx="1" style="fill:#d8a960"/><path d="M96,72.9V79H85.9V72.9H96m0-2H85.9a2,2,0,0,0-2,2V79a2,2,0,0,0,2,2H96a2,2,0,0,0,2-2V72.9a2,2,0,0,0-2-2Z" style="fill:#75411a"/><rect x="14.3" y="78.5" width="85.4" height="18.66" rx="1.5" style="fill:#ddab88"/><path d="M98.2,80V95.6H15.8V80H98.2m0-3H15.8a2.9,2.9,0,0,0-3,3V95.6a2.9,2.9,0,0,0,3,3H98.2a3,3,0,0,0,3-3V80a3,3,0,0,0-3-3Z" style="fill:#6a3417"/><rect x="14.3" y="55.6" width="85.4" height="18.57" rx="1.5" style="fill:#ddab88"/><path d="M98.2,57.1V72.6H15.8V57.1H98.2m0-3H15.8a2.9,2.9,0,0,0-3,3V72.6a2.9,2.9,0,0,0,3,3H98.2a3,3,0,0,0,3-3V57.1a3,3,0,0,0-3-3Z" style="fill:#6a3417"/></g></g></g></svg>