<svg xmlns="http://www.w3.org/2000/svg" xmlns:xlink="http://www.w3.org/1999/xlink" viewBox="0 0 216.4 118.7"><defs><clipPath id="clip-path"><path d="M2,68.6c3.4-21.7,30.7-10,30.7-10S21.7,18.7,50,11.7l1.9-.4C82.2,5.9,84.7,35,84.7,35.8A37.7,37.7,0,0,1,89,30.3C93.4,3.6,99.9.1,112.6,1.9L119.1,3c15.9,3.2,9.6,22.6,6.8,29.6l1,2.1c10.1-1.8,10,5.7,9.4,9.1,3.3-11.4,25.4-30.7,51-16.5,7.7,4.3,11.4,10.2,12.7,16.5,3.1,15.1-7.6,32.2-8.1,33h.1c1.2-1.5,15.7-17.7,21.3-3.4a32.6,32.6,0,0,1,1.1,4c4.6,22-27,32.8-27,32.8l-28.5,6.2c-2.9.5-13.9-2.2-24.3-4.8l-9.8-2.4a50.7,50.7,0,0,1-20.2-9.9c-3.8,4.4-7.2,7.7-9.1,8.6-6.9,3.1-33.8,7.6-57.9,7.3S-1.4,90.4,2,68.6Z" style="fill:none"/></clipPath></defs><g id="Layer_2" data-name="Layer 2"><g id="Layer_1-2" data-name="Layer 1"><path d="M2,68.6c3.4-21.7,30.7-10,30.7-10S21.7,18.7,50,11.7l1.9-.4C82.2,5.9,84.7,35,84.7,35.8A37.7,37.7,0,0,1,89,30.3C93.4,3.6,99.9.1,112.6,1.9L119.1,3c15.9,3.2,9.6,22.6,6.8,29.6l1,2.1c10.1-1.8,10,5.7,9.4,9.1,3.3-11.4,25.4-30.7,51-16.5,7.7,4.3,11.4,10.2,12.7,16.5,3.1,15.1-7.6,32.2-8.1,33h.1c1.2-1.5,15.7-17.7,21.3-3.4a32.6,32.6,0,0,1,1.1,4c4.6,22-27,32.8-27,32.8l-28.5,6.2c-2.9.5-13.9-2.2-24.3-4.8l-9.8-2.4a50.7,50.7,0,0,1-20.2-9.9c-3.8,4.4-7.2,7.7-9.1,8.6-6.9,3.1-33.8,7.6-57.9,7.3S-1.4,90.4,2,68.6Z" style="fill:#6c9433;stroke:#507125;stroke-miterlimit:10;stroke-width:3px"/><g style="clip-path:url(#clip-path)"><path d="M41.7,62.9c2.5-15.6,22-7.2,22-7.2S55.9,27.1,76.1,22.2l1.3-.3c21.7-3.9,23.4,16.9,23.5,17.5a17.9,17.9,0,0,1,3-3.9c3.2-19.1,7.9-21.6,16.9-20.4l4.6.9c11.4,2.2,6.9,16.1,4.9,21.1a10.1,10.1,0,0,1,.7,1.5c7.3-1.3,7.1,4.1,6.7,6.5,2.4-8.1,18.2-21.9,36.5-11.8,5.5,3.1,8.2,7.3,9.1,11.8,2.2,10.8-5.4,23.1-5.8,23.6h.1c.9-1.1,11.2-12.7,15.2-2.4a15.8,15.8,0,0,1,.8,2.8c3.3,15.7-19.3,23.5-19.3,23.5s-17.6,3.9-20.4,4.4-9.9-1.5-17.4-3.4l-7-1.7a37.8,37.8,0,0,1-14.4-7.1c-2.7,3.1-5.1,5.5-6.5,6.1-4.9,2.2-24.2,5.5-41.4,5.2S39.3,78.4,41.7,62.9Z" style="fill:#b9e48e"/></g><path d="M2,68.6c3.4-21.7,30.7-10,30.7-10S21.7,18.7,50,11.7l1.9-.4C82.2,5.9,84.7,35,84.7,35.8A37.7,37.7,0,0,1,89,30.3C93.4,3.6,99.9.1,112.6,1.9L119.1,3c15.9,3.2,9.6,22.6,6.8,29.6l1,2.1c10.1-1.8,10,5.7,9.4,9.1,3.3-11.4,25.4-30.7,51-16.5,7.7,4.3,11.4,10.2,12.7,16.5,3.1,15.1-7.6,32.2-8.1,33h.1c1.2-1.5,15.7-17.7,21.3-3.4a32.6,32.6,0,0,1,1.1,4c4.6,22-27,32.8-27,32.8l-28.5,6.2c-2.9.5-13.9-2.2-24.3-4.8l-9.8-2.4a50.7,50.7,0,0,1-20.2-9.9c-3.8,4.4-7.2,7.7-9.1,8.6-6.9,3.1-33.8,7.6-57.9,7.3S-1.4,90.4,2,68.6Z" style="fill:none;stroke:#507125;stroke-miterlimit:10;stroke-width:3px"/><path d="M128.1,73.6c4.7-8.3,14.1.6,14.1.6s1.6-18,14.2-16.5l.8.2c13.2,2.3,9.7,14.6,9.6,14.9s7.1-6,14.5,0c2.9,2.3,3.3,6,2.6,9.6a21.5,21.5,0,0,1-10.2,14.4l-2.1,1.3c-4.5,2.7-9.7,5.6-11.4,5.7-3.3.2-14.9-2-24.7-5.8S123.4,81.9,128.1,73.6Z" style="fill:#6c9433"/><path d="M41,69.9c6.2-4.6,10.1,5,10.1,5S58.2,62.2,67,67.4l.6.4c8.9,6,2.4,13.9,2.2,14.1s7.1-2.1,10.6,4.7c1.4,2.7.5,5.5-1.1,7.9a17.9,17.9,0,0,1-12.2,7.4l-2,.2c-4.3.6-9,1-10.3.5S44.5,96.3,38.5,90.3,34.8,74.5,41,69.9Z" style="fill:#6c9433"/><path d="M35.9,74.9c6.6-11.7,19.7.8,19.7.8s2.2-25.1,19.9-23h1.1c18.5,3.4,13.7,20.5,13.5,21s9.9-8.4,20.3-.1c4.1,3.3,4.6,8.5,3.6,13.5a30.4,30.4,0,0,1-14.2,20.2l-2.9,1.8c-6.4,3.8-13.6,7.9-16,8-4.6.3-20.9-2.8-34.6-8.2S29.3,86.5,35.9,74.9Z" style="fill:#96b85c;stroke:#507125;stroke-miterlimit:10;stroke-width:3px"/><path d="M45.4,73.6c4.7-8.3,14,.6,14,.6s1.7-18,14.3-16.5l.8.2c13.2,2.3,9.7,14.6,9.6,14.9s7.1-6,14.5,0c2.9,2.3,3.3,6,2.6,9.6A21.8,21.8,0,0,1,91,96.8l-2.1,1.3c-4.5,2.7-9.7,5.6-11.4,5.7-3.3.2-14.9-2-24.7-5.8S40.7,81.9,45.4,73.6Z" style="fill:#b9e48e"/><path d="M35.9,74.9c6.6-11.7,19.7.8,19.7.8s2.2-25.1,19.9-23h1.1c18.5,3.4,13.7,20.5,13.5,21s9.9-8.4,20.3-.1c4.1,3.3,4.6,8.5,3.6,13.5a30.4,30.4,0,0,1-14.2,20.2l-2.9,1.8c-6.4,3.8-13.6,7.9-16,8-4.6.3-20.9-2.8-34.6-8.2S29.3,86.5,35.9,74.9Z" style="fill:none;stroke:#507125;stroke-linejoin:round;stroke-width:3px"/></g></g></svg>