<svg xmlns="http://www.w3.org/2000/svg" xmlns:xlink="http://www.w3.org/1999/xlink" viewBox="0 0 218 166.1"><defs><clipPath id="clip-path" transform="translate(0 3.6)"><path d="M200,95.5c4.9-1,13.6-8.5,8.5-13.8-3-2.9-7.1-2.2-10.5.1-1.8-4-6.6-5.6-11.3-5.5,0-.2,0-.3.1-.4h1.8l.9-.2h.8a.1.1,0,0,1,.1-.1h1.4l.3-.2h.6l.3-.2h0l.8-.6h0l.3-.3h.2l.2-.3h.2c0-.1.1-.2.2-.3s.1-.1.1-.2l.2-.3.2-.2.2-.3c0-.1.1-.2.1-.3l.2-.3v-.3l.2-.3c0-.1.1-.2.1-.3s.1-.3.1-.4a.4.4,0,0,0,.1-.3,11.8,11.8,0,0,0,.5-4c-.2-11-11.9-8.3-11.9-8.3.5-4.2.4-9.4-4.7-10.4-3.3-.5-4.7,1.4-5.3,3.8-3-5.2-10.8-3.4-10.8-3.4a13.6,13.6,0,0,0,.2-2c1.7.6,3.4.4,3.6-2.1s-2.2-4.1-4.8-4.1l-.4-.5h.1l.2-.2h.1l.2-.2h.1c.1-.1.2-.2.2-.3h.1l.2-.3h.1c0-.1.1-.2.2-.3h0c2.1-2.9,2.9-7.1.5-10.1-4.2-5-7.2,3.7-7.8,6.6-1.1-4.6-8.1-12.7-13.2-8.9a13.3,13.3,0,0,0-7.5-.5c.6-4.2.4-9.4-4.7-10.4-2.3-.4-3.7.4-4.5,1.8-4.6-1.4-9.8-1.8-13.5-2.4h-.2v-.2c0-.1-.1-.1-.1-.2v-.2h-.1V11h-.1a.4.4,0,0,0-.1-.3h0c-.1-.4-.3-.8-.4-1.2s-.1,0-.1-.1l-.2-.3V8.7a.5.5,0,0,1-.2-.4V8.1l-.2-.3c0-.1-.1-.1-.1-.2l-.2-.3a.3.3,0,0,1-.1-.2l-.3-.4c0-.1-.1-.1-.1-.2l-.3-.3a.3.3,0,0,0-.1-.2l-.3-.4h-.1a.8.8,0,0,0-.4-.4h0l-.9-.9h-.1l-.3-.3-.3-.2-.3-.3h-.3l-.4-.3H107l-.4-.2-.3-.2-.5-.2H105l-.4-.2h-1.8a16.5,16.5,0,0,0-5.3.3c-9.9,1.9-9.9,9.5-9,14A4.5,4.5,0,0,0,87,19.3c-4.9.6-9.9,2.4-10.1,8.3a8.5,8.5,0,0,0,.5,2.5h0c-1.9-5.6-5.3-12-12.3-10.1S60.7,29.2,63.5,34h-.2c-4.1-.6-6.2,3.8-5.5,7.3-.3,1-.6,2.1-.8,3-2.7-3.7-7.9-1.2-9.7,2.3a9.1,9.1,0,0,0-.7,1.4c-2-3.9-5.6-7.2-9.5-8.2H37l-1.1-.2H32l-.7.3H31l-.4.2-.3.2-.4.2-.3.2-.4.3-.3.2-.4.3-.2.3-.5.4-.2.2-.6.7c-5.3,6.4-1.4,14.9,5,18-3.9,1.3-9.5,4.4-5.1,8.6,2.6,2.6,5.4,2,7.8.2a31.7,31.7,0,0,0,0,11.5h.1l-1.6,1.2C30,77.1,17,71.2,12,78.9s6.5,13.7,12.8,14.3a.7.7,0,0,0-.1.5c-3.9,2.1-11.3,7.3-4.8,10.5a8.7,8.7,0,0,0,8.8-.7,10.2,10.2,0,0,0,2.2,1.4c-3.5,1.2-8.5,4.2-4.7,7.8s7.3.3,9.8-3.2v2.4a.6.6,0,0,1,.1.4v.2c0,.2.1.3.1.5h0a.9.9,0,0,1,.1.5h0c1.1,4.4,4.1,8.4,8.5,9.1,5.7,7.8,16.6,2.2,16.6,2.2.7,5.8,2.6,12.8,9.9,12.4s6.2-8.1,4.5-13.3c4.2,1.9,7.3-2.6,7.1-6.4a12.9,12.9,0,0,0-2.8-7.5,9,9,0,0,0,2.3-2c2-2.8,1.4-5.6-.2-8.3a1.9,1.9,0,0,0,.2-.7c7.1-1.9,14.6-12.9,6.4-18.1,4.4-3.5,10.5-9.6,7.6-15.3A7,7,0,0,0,98,59.7a.6.6,0,0,1-.1-.4l1-.7c4.1-3.5,4.2-11.5,4.7-16.2h.9a.1.1,0,0,1,.1-.1h.7l.9-.4h.1l.2-.2h.2l.2-.2h.3c1.9,3,5.2,5.5,8,7.3-8,6.1,1.3,16.8,8.7,17.4-1.6,3-2.3,6.1.2,8.9a10.8,10.8,0,0,0,5.8,3c-3.5,3.4,0,7.7,3.2,10.6-3.8.4-4.2,4.9-2.5,7.5s8,6,12.5,5.3c-2.9,2.1-5.9,4.5-4.4,8.3a7.1,7.1,0,0,0,1.3,2.2c-2.5,5.5,3.7,13,8.7,14.3a10.2,10.2,0,0,0-.7,8.8h0l.3.6a.1.1,0,0,1,.1.1v.2h.1c.1.1.1.2.2.2v.2h.2v.2l.2.2h.3c0,.1.1.1.2.2h.1l.4.2h1.4c0,.1.1.1.2.1h1.6c5,0,7.6-5.2,6.6-9.5,2,1.3,5.4,2.7,6-.5,10.6,2.2,13.9-10.8,13.9-10.8,4.8,3.4,11.3,6.5,15.8.8s-1.1-9.3-5.9-11.6h.1c3.5.4,4.4-2.8,4.2-5.6l.3.3a.1.1,0,0,0,.1.1c0,.1.1.1.1.2l.2.2a.1.1,0,0,1,.1.1l.2.2h.1a.2.2,0,0,1,.2.2h.1l.3.2h0l.4.3h0c2.9,2.2,7.1,3,10.1.6C211.6,99.4,202.9,96.2,200,95.5Z" style="fill:none"/></clipPath></defs><g id="Layer_2" data-name="Layer 2"><g id="Layer_1-2" data-name="Layer 1"><g id="toy_4" data-name="toy 4"><path d="M205.7,105.2c5.2-1.1,14.6-9.1,9.1-14.7-3.1-3.1-7.6-2.3-11.2,0-1.9-4.1-7-5.9-12-5.8,0-.1.1-.3.1-.4H195a.1.1,0,0,1,.1-.1H197l.3-.2h.2l.3-.2h.2l.3-.2h0l.9-.7h0l.3-.3h.2l.2-.3.2-.2.2-.3.2-.2.2-.3c.1,0,.1-.1.2-.2l.2-.3v-.3l.2-.3a.4.4,0,0,0,.1-.3l.2-.4a.4.4,0,0,0,.1-.3c.1-.1.1-.3.2-.4a.4.4,0,0,1,.1-.3,17.5,17.5,0,0,0,.5-4.3c-.2-7.2-4.9-8.9-8.5-9.1a13,13,0,0,0-4.1-5c-.4-2.8-1.8-5.2-5.1-5.8h-.2c3.4-6.2,3-12.6-3.1-17.9l-.6-.5c-4.3-3.4-8.3-3.7-12.1-2.2l-.5-.7c-4.2-5.1-7.3,3-8.2,6.6l-.4-.4c-1.7-5-8.6-12.5-13.8-8.6-3.6-1.6-8-.6-8-.6.7-4.4.5-10-5-11.1a4.3,4.3,0,0,0-4.8,2c-4.8-1.5-10.4-1.9-14.3-2.5h0a.1.1,0,0,1-.1-.1h-.1V16h-.1v-.4a.4.4,0,0,0-.1-.3h0v-.3c0-.1,0-.1-.1-.2l-.4-1.2h-.1c0-.1-.1-.2-.1-.4s-.1-.1-.1-.2l-.2-.3v-.2l-.2-.4c0-.1-.1-.1-.1-.2a.8.8,0,0,1-.2-.4c-.1,0-.1-.1-.2-.2l-.2-.4-.2-.2-.2-.3-.2-.2-.3-.4V9.3a.8.8,0,0,1-.4-.4h0l-1-.9h-.1l-.4-.3-.2-.2-.4-.3h-.3l-.4-.3-.3-.2-.5-.2H106l-.5-.2-.3-.2h-.9l-.6-.2h-1.4a18.3,18.3,0,0,0-5.6.3C86.2,7.5,86.1,15.6,87,20.4a4.8,4.8,0,0,0-1.5,3.7c-5.3.5-10.6,2.5-10.7,8.8a7.6,7.6,0,0,0,.5,2.7h-.1c-2-5.9-5.6-12.8-13.1-10.7s-4.6,9.7-1.6,14.8h-.2c-4.4-.7-6.6,4-5.9,7.8a22.3,22.3,0,0,0-.9,3.2c-2.8-4-8.3-1.3-10.3,2.4a10.1,10.1,0,0,0-.7,1.5,7.5,7.5,0,0,0-.7-1.2,9.9,9.9,0,0,0-3.2-5.8h0c0-.1-.1-.1-.2-.2l-.4-.3-.7-.4a6.5,6.5,0,0,0-4.4-.7h-.5a.1.1,0,0,1-.1-.1l-1.2-.2H26.9c-.3.1-.5.1-.7.3h-.3l-.5.2-.3.2-.4.2-.3.2c-.1.1-.3.2-.4.4l-.3.2-.5.3-.2.3-.5.4c-.1.1-.2.2-.2.3a4.6,4.6,0,0,0-.7.7A10.4,10.4,0,0,0,19,56.7c-5.7-1.5-11,.2-14.9,6.1l-.5.7c-5,8.2-.5,14.7,6.7,19.5l-.9,1.3a8.1,8.1,0,0,0-3.7,3.2c-4.7,7.5,6,14,12.8,15.1l.6.7c-4.2,2.2-11.9,7.8-5.1,11.2a9.6,9.6,0,0,0,3.2.9c-1.1,3.5-.5,7.4,2.1,11.4l.5.7c4.3,6.2,10,6.6,15.8,4.2a8.8,8.8,0,0,0,5,2.5c6,8.3,17.7,2.3,17.7,2.3a16.6,16.6,0,0,0,.3,2.2c-4.1,2.1-7.2,5.4-6.1,10.8,2,8.1,10,5.6,15.6,2.8-1.4,5,4.1,7.8,8.3,6.9,6.1-1.1,11.6-7.2,13-13.3,1.1,4.7,2.8,9.7,8.3,9.7s8.4-2.4,11.9-5.4c4.2,1.9,10.6.2,14-2.2,1.6,8.4,6.7,13.8,15.9,12.9h.7c7.7-1.1,10.6-6.2,11-12.7h.2a.3.3,0,0,0,.1.2l.2.2.2.2h.1l.2.2h.4l.4.3h.2l.2.2h3c3.7,0,6.1-2.6,6.9-5.8,2.7,4.1,7,6.4,13.2,5.7h.8c9.5-1.3,11.7-8.8,10.8-17.5a18.4,18.4,0,0,0,4-.6,8.2,8.2,0,0,0,9.3-3c4.3-5.8-1.1-9.9-6.2-12.3h.1c3.7.4,4.6-3,4.4-6.1l.3.4h.1c.1.1.1.2.2.2v.2h.2a.2.2,0,0,0,.2.2v.2l.2.2h.1l.3.3h.1l.3.3h0c3.1,2.3,7.6,3.3,10.8.7C218.1,109.3,208.9,105.9,205.7,105.2Zm-65.2,14.7a10.9,10.9,0,0,0,1.4,2.3c-1.3,2.7-.5,6,1.3,8.8a5.3,5.3,0,0,0-.3,1.2h0l-2.1,1.7c-3.8-9.9-17.3-3.7-20.2,3.5a4.7,4.7,0,0,0-1-1c1.4-4,1.4-8.3-2.2-11.3-6.6-5.2-18.8-3-26.3-2.5H91a.1.1,0,0,0-.1-.1h0c0-.1,0-.1-.1-.1v-.2a.1.1,0,0,1-.1-.1v-.4c0-.1-.1-.1-.1-.2V121c0-.1-.1-.1-.1-.2s-.1-.1-.1-.2l-.2-.3h-.1L89,119c0-.1-.1-.1-.1-.2l-.3-.3v-.2l-.3-.4-.2-.2-.3-.3c0-.1-.1-.1-.2-.2l-.3-.4-.2-.2-.3-.3c-.1-.1-.2-.1-.2-.2l-.4-.3c-.1-.1-.2-.1-.2-.2l-.5-.3-.2-.2-.4-.3h-.1a5.7,5.7,0,0,0-1.3-.8h-.1l-.5-.2h-.3l-.5-.2h-.2a11.1,11.1,0,0,0-1.4-3.4,2.9,2.9,0,0,0,.2-.9c7.5-1.9,15.5-13.6,6.8-19.1,4.7-3.8,11.1-10.3,8.1-16.4A7.5,7.5,0,0,0,97.2,67l-.2-.3,1.2-.8c4.3-3.8,4.4-12.2,5-17.3h.1c.1,0,.1,0,.1-.1h.3a.1.1,0,0,0,.1-.1h.9c0-.1.1-.1.2-.1h.1l.9-.4H107c2,3.2,5.6,5.9,8.5,7.8-8.5,6.5,1.4,17.9,9.2,18.6-1.7,3.1-2.4,6.5.3,9.5a11.9,11.9,0,0,0,6.1,3.1c-3.7,3.6.1,8.2,3.4,11.3-4,.4-4.4,5.2-2.6,8s8.5,6.4,13.3,5.7C142.1,113.2,139,115.8,140.5,119.9Z" transform="translate(0 3.6)" style="fill:#6b8a00"/><path d="M206.1,106.6a17.3,17.3,0,0,0,10.5-7.8,8.3,8.3,0,0,0,1.1-6.3,7.8,7.8,0,0,0-5.4-5.2c-3.3-1-6.7.2-9.4,1.9l2,.6c-2.4-5-8.2-6.6-13.3-6.6l1.4,1.9.2-.4-1.5,1.1c4.3,0,8.9-2.1,10.9-6s2.2-12-2.3-15.4a11.5,11.5,0,0,0-6.2-2.1l1.4,1.1a15.2,15.2,0,0,0-2.8-4.3l-.8-.7-.6-.4c.1.2.1.2.1-.1a8.4,8.4,0,0,0-.5-1.7,7.6,7.6,0,0,0-6.2-4.7l1.3,2.2c2.9-5.3,3.3-11.5-.5-16.6s-10.5-8.7-17-6.1l1.7.7a6.4,6.4,0,0,0-3.8-3.1,4.4,4.4,0,0,0-3.9,1.5c-2,2-3.1,5-3.7,7.8l2.5-.7c-.5-.4,0,.3-.1,0s-.2-.3-.2-.5l-.6-1.2a17.6,17.6,0,0,0-1.4-2.3,19.5,19.5,0,0,0-3.9-4.2c-2.9-2.1-6.7-3.2-9.8-1h1.1a13.9,13.9,0,0,0-8.8-.6l1.9,1.8c.5-3.6.7-7.7-1.9-10.6s-8.3-3.4-10.6.4l1.6-.7c-4.6-1.5-9.5-1.9-14.3-2.6l1.1,1.5c0-.2-.1-.7-.1-.3s-.1-.8,0-.1-.1-.5-.1-.8a14.2,14.2,0,0,0-.7-2.2,21.2,21.2,0,0,0-2.7-4.9,14.1,14.1,0,0,0-8.6-5c-6.8-1-15.3,1.6-17.5,8.7a17.9,17.9,0,0,0-.1,8.3l.4-1.5a6.7,6.7,0,0,0-2,4.8l1.5-1.5c-3.3.3-6.7,1.1-9.2,3.3A9.5,9.5,0,0,0,73.8,36l.7-1.7h0l2.2.9c-1.7-4.9-4.5-11.1-10.3-12a10,10,0,0,0-8.3,2.3A7.7,7.7,0,0,0,56,32.3a21.8,21.8,0,0,0,3.2,8.1l.9-2.2h.6A6.2,6.2,0,0,0,54.3,41,9.3,9.3,0,0,0,53,47.9v-.8a19.2,19.2,0,0,0-.9,3.2l2.7-.4a6.4,6.4,0,0,0-7.7-2.2,11,11,0,0,0-6,6.5l2.7-.4c-.8-1.4-1.1-3.1-1.9-4.5s-1.9-3.2-3.3-3.2l1.1.4a8.2,8.2,0,0,0-7.2-1.9h.8C25.5,42.1,17.8,49,17.5,56.7l1.9-1.5a15.6,15.6,0,0,0-8.3.1,14.9,14.9,0,0,0-7.2,5.2A18,18,0,0,0,0,69.3a12.9,12.9,0,0,0,2.1,7.9,25.4,25.4,0,0,0,7.5,7.1l-.6-2a3.6,3.6,0,0,1-.7,1c.4-.3-.6.2-.7.3a7.4,7.4,0,0,0-2,1.6A10.5,10.5,0,0,0,3.3,89a8.7,8.7,0,0,0,1.4,7.3,19,19,0,0,0,6.3,5.3l3.8,1.6,1.9.5.9.2h0l.4.4.3-2.3c-3,1.6-6.6,3.9-8,7.2s3.1,7.3,6.9,7.7L15.8,115c-1.8,5.9,1,12.7,5.6,16.6s9.6,3.6,14.6,1.6l-1.5-.4a11.9,11.9,0,0,0,5.7,2.9l-.9-.7a13,13,0,0,0,12.2,5,21.7,21.7,0,0,0,7.5-2.2l-2.2-1.3.3,2.6.7-1.7a14,14,0,0,0-5.6,4.9,10.4,10.4,0,0,0-1,8.1,8.1,8.1,0,0,0,4.1,5.3,10.5,10.5,0,0,0,6.3.5,27,27,0,0,0,7.2-2.6l-2.2-1.7c-1.6,6.5,5.4,10,10.9,8.6s11.8-7.8,13.4-14.2H88c1,4.2,2.5,9,7.1,10.5s11.5-2.1,15.6-5.6l-1.9.3c4.9,2.1,11.3.8,15.6-2.2l-2.2-.9c1.1,5.9,4.3,11.3,10.2,13.3s13.5.5,17.4-4.5a16.4,16.4,0,0,0,2.9-9.1l-2.8.7c1.8,2.6,5.4,3.5,8.3,2.9s5.7-3.5,6.6-6.7l-2.7.4a13.3,13.3,0,0,0,6.3,5.4,17.4,17.4,0,0,0,9.6.8,13.2,13.2,0,0,0,11.1-9.6,26.4,26.4,0,0,0,.5-9.3l-1.5,1.5a31.1,31.1,0,0,0,4.4-.6h-.8a10.5,10.5,0,0,0,7.6-.7,9.9,9.9,0,0,0,5-6.6c1-5.3-4.2-8.8-8.4-10.8l-1.1,2.7a5,5,0,0,0,5.2-2,8.8,8.8,0,0,0,1.2-5.5l-2.8.8a11,11,0,0,0,2.1,2.2c.1.1.7.5.3.3l1,.7,2,1a10,10,0,0,0,8.6-.1c1.9-1.1,3.9-3.1,3.4-5.5s-2.2-3.2-3.8-4.1a23.4,23.4,0,0,0-5.9-2.3c-1.8-.4-2.6,2.5-.8,2.9a16.7,16.7,0,0,1,5,1.9,5.6,5.6,0,0,1,2.1,1.6,1.1,1.1,0,0,1,.4,1.1c-.9,2.2-4.2,2.7-6.2,2.3A9.5,9.5,0,0,1,201,110c-.8-1.1-2.8-.9-2.8.7s-.1,5.1-2.6,4.6-2.8,2-1.2,2.8c3.2,1.5,8.6,4.4,6.6,8.8a7,7,0,0,1-5.4,4.1,16.3,16.3,0,0,1-3.1-.3,8.3,8.3,0,0,0-2.2.3l-2.2.2a1.5,1.5,0,0,0-1.5,1.5c.4,4.1.4,9.1-2.4,12.5s-9,4.5-13.4,3.3a11,11,0,0,1-6.2-4.6,1.5,1.5,0,0,0-2.7.4,6,6,0,0,1-4.2,4.5,6.9,6.9,0,0,1-3.2-.2,2.4,2.4,0,0,1-1.1-.6l-.5-.3c0-.1-.6-.8-.4-.4a1.5,1.5,0,0,0-2.8.8,13.3,13.3,0,0,1-1.9,6.7,9.5,9.5,0,0,1-5.6,4c-4.8,1.4-10.5.7-13.8-3.3a16.8,16.8,0,0,1-3.3-7.8,1.4,1.4,0,0,0-2.2-.9c-3.3,2.2-8.7,3.8-12.5,2.1a1.7,1.7,0,0,0-1.9.2c-3.1,2.7-8.2,6.2-12.6,4.8s-4.3-5.4-5-8.4a1.5,1.5,0,0,0-2.9,0c-1.2,5.1-5.1,10-10.1,11.8a7.6,7.6,0,0,1-6.1-.1,3.8,3.8,0,0,1-2.3-4.5,1.5,1.5,0,0,0-2.2-1.7,20,20,0,0,1-6.6,2.3c-1.8.3-3.8.3-5.1-1.1s-2.2-4.7-1.5-7,3-4,5.2-5.2.8-1,.7-1.7a11,11,0,0,1-.2-1.8,1.6,1.6,0,0,0-2.3-1.3l-.6.3c-.4.2.2-.1-.1.1l-.5.2-1,.3a16.6,16.6,0,0,1-5.4,1,10,10,0,0,1-6-1.7,6.9,6.9,0,0,1-1.3-1.1c-.5-.6-.9-1.3-1.6-1.5l-2.2-.7a10.7,10.7,0,0,1-2.2-1.5,1.4,1.4,0,0,0-1.4-.3c-3.9,1.5-8.2,2-11.7-.9s-6.3-8.7-4.8-13.6a1.5,1.5,0,0,0-1.5-1.9c-1.4-.2-3.4-.8-4.2-2.1a2.3,2.3,0,0,1,.5-2.3c1.5-2.2,4.1-3.7,6.3-4.9a1.6,1.6,0,0,0,.3-2.4,3,3,0,0,0-1.7-1.2l-1.6-.3a15.1,15.1,0,0,1-3.3-1.3,15.2,15.2,0,0,1-5.8-4.2,5.7,5.7,0,0,1-1.5-5.4,7.1,7.1,0,0,1,2.2-3.2,12.9,12.9,0,0,1,1.6-.9c.8-.4,1.1-1.3,1.6-1.9a1.6,1.6,0,0,0-.5-2.1A21.7,21.7,0,0,1,4.3,75a9.7,9.7,0,0,1-.6-8.3,15.2,15.2,0,0,1,6.5-7.8,11.6,11.6,0,0,1,8.4-.8,1.5,1.5,0,0,0,1.9-1.4A10.5,10.5,0,0,1,28,47.3a5.8,5.8,0,0,1,2.3-.2c.7,0,1.5.3,2.4.4h1.6a4.7,4.7,0,0,1,1.7.3c.9.4,1.7,1.4,2.6,1.4l-1-.5a9.5,9.5,0,0,1,2.1,3.1,11.5,11.5,0,0,1,.6,1.7,17.6,17.6,0,0,0,.9,2c.7,1.2,2.3.7,2.8-.4a7.4,7.4,0,0,1,3.8-4.3c1.6-.7,3.3-.7,4.4.8s2.4,1,2.7-.4l.7-2.5a3.9,3.9,0,0,0,.2-1.8,6.3,6.3,0,0,1,.4-3.1,3.6,3.6,0,0,1,1.7-2.1c1-.6,1.9-.1,3-.5a1.5,1.5,0,0,0,.9-2.2,23.4,23.4,0,0,1-2.6-5.8c-.4-1.6-.6-3.5.5-4.9s3.8-2.4,5.8-2.1a7.3,7.3,0,0,1,4.9,3.1A21.7,21.7,0,0,1,73.8,36a1.5,1.5,0,0,0,2.2.9h0a1.7,1.7,0,0,0,.7-1.7,6.5,6.5,0,0,1,1.9-7.3,12.9,12.9,0,0,1,6.9-2.3A1.6,1.6,0,0,0,87,24.1a3.6,3.6,0,0,1,.9-2.4,2.6,2.6,0,0,0,.5-2.4,9,9,0,0,1-.2-2.9,9.1,9.1,0,0,1,2.1-6.1c2.3-2.5,5.9-3.5,9.2-3.7a12.1,12.1,0,0,1,9.1,3.1,13.4,13.4,0,0,1,2.7,4,22.5,22.5,0,0,1,.8,2.4,2.9,2.9,0,0,1,.2.9h0c0-.2,0-.2.1,0h0a1.4,1.4,0,0,0,1.1,1.4c4.8.7,9.7,1.1,14.3,2.6a1.6,1.6,0,0,0,1.7-.7c1.5-2.3,5-1.4,6.3.6s1.1,5,.8,7.3a1.5,1.5,0,0,0,1.8,1.9,12.8,12.8,0,0,1,5.5,0,7.1,7.1,0,0,0,2.3.6c.6-.1,1-.6,1.5-.8a5,5,0,0,1,2.7-.1,11.8,11.8,0,0,1,5.3,3.8,27.5,27.5,0,0,1,1.9,2.8,10.6,10.6,0,0,0,1.5,2.8,1.6,1.6,0,0,0,2.6-.6,16.6,16.6,0,0,1,2.4-5.8c.4-.6,1-1.3,1.6-1.4l.6.3a4.4,4.4,0,0,1,1.3,1.4,1.6,1.6,0,0,0,1.7.7,9.7,9.7,0,0,1,7.1-.2,15.5,15.5,0,0,1,6.7,5.2c3,4.1,2.7,9,.3,13.3a1.5,1.5,0,0,0,1.3,2.3,4.4,4.4,0,0,1,3.6,3.6,4.8,4.8,0,0,0,.4,1.5c.3.5,1.1.9,1.6,1.4a10.4,10.4,0,0,1,2.3,3.2,1.5,1.5,0,0,0,1.5,1.1,7.5,7.5,0,0,1,4.9,1.9c2,1.9,2.3,5.1,2,7.8a8.4,8.4,0,0,1-4.6,6.7,9.8,9.8,0,0,1-4.7,1.1,1.5,1.5,0,0,0-1.4,1.1l-.2.4a1.5,1.5,0,0,0,1.5,1.9c4.1,0,8.8,1.1,10.7,5.1a1.6,1.6,0,0,0,2.1.5c2.3-1.4,5.5-2.7,8.1-1.2a4.4,4.4,0,0,1,2.3,5.1c-.6,2-2.3,3.7-3.9,5.1a13.1,13.1,0,0,1-5.6,2.9C203.5,104.1,204.3,107,206.1,106.6Z" transform="translate(0 3.6)" style="fill:#365511"/><path d="M139.1,120.3a12.2,12.2,0,0,0,1.5,2.7v-1.6c-1.5,3.5-.6,7.2,1.3,10.3l-.2-1.1a9,9,0,0,0-.3,1.6l1.5-1.5c-.7,0-1.2.6-1.7,1l-1.4,1.1,2.5.7a9.8,9.8,0,0,0-3.8-4.9,8.6,8.6,0,0,0-5.2-1.3,17.2,17.2,0,0,0-10.5,4.5,15.7,15.7,0,0,0-3.6,5.2l2.5-.7-1-.9.4,1.4a13.1,13.1,0,0,0,.3-8.5,10.7,10.7,0,0,0-5.8-6c-5-2.3-10.7-2.3-16.1-1.9l-8.4.7,1.3.8c.3.7-.1-.1-.1-.2s-.1-.3,0-.1l-.2-.4-.3-.5a10.9,10.9,0,0,0-.8-1.5,34,34,0,0,0-2.3-3l-1.4-1.4-1.5-1.1a24.7,24.7,0,0,0-3.6-1.9l1,1.1a11.2,11.2,0,0,0-1.5-3.8v1.2l.3-.9L81,110.5a16.9,16.9,0,0,0,9-6.5c2-2.9,3.4-6.7,2.3-10.3a9.2,9.2,0,0,0-4.2-5.1l.3,2.3c5.2-4.1,11.9-10.9,8.4-18.1l-.2,1.8c1.8-2.4,2.8-5.4,1.9-8.3L97.8,68c3.3-1.8,4.8-5.7,5.6-9.2s.9-6.8,1.3-10.2l-1.5,1.5h.4c.5-.2.5-.2.1,0h.3l1.1-.4a12.3,12.3,0,0,0,2.6-1.2l-2-.5c2.2,3.4,5.6,6.1,9,8.3l-.3-2.3a9.7,9.7,0,0,0-3.4,4.8,10.3,10.3,0,0,0,.3,5.5,17,17,0,0,0,7.4,8.7,14.4,14.4,0,0,0,6,2.1l-1.3-2.3c-1.5,3-2.4,6.3-.8,9.4s4.9,4.9,8.1,5.5l-.6-2.5a6.1,6.1,0,0,0-1.4,7.1,17,17,0,0,0,4.8,6.2l1-2.5a5.4,5.4,0,0,0-4.5,2.9,8,8,0,0,0-.3,5.3c1.1,3.9,5,6.6,8.8,7.8a14.3,14.3,0,0,0,7.1.6l-1.1-2.7a16.1,16.1,0,0,0-4.7,4.3,6.5,6.5,0,0,0-.7,6.2,1.6,1.6,0,0,0,1.8,1,1.5,1.5,0,0,0,1.1-1.8,9.3,9.3,0,0,1-.4-1.3v-.5s.1-.5,0-.3a3.4,3.4,0,0,1,.9-1.9,11.7,11.7,0,0,1,3.5-3.1,1.5,1.5,0,0,0-1.2-2.8h-2.3l-2.3-.4a12.4,12.4,0,0,1-4.5-2.1,8.9,8.9,0,0,1-2.9-3.2v-.2c0,.1.1.3,0,0v-.4a.9.9,0,0,1-.1-.5c-.1-.1-.1-.6-.1-.3a2.7,2.7,0,0,1,0-.9v-.5h0v-.4c.1-.2.2-.3.2-.5s.1-.2,0-.1.1-.1.1-.1l.3-.5h0c-.1.1.1-.1.1-.2s.4-.3.2-.1l.5-.3c.2-.1,0-.1,0,0h.7a1.7,1.7,0,0,0,1.4-1,1.6,1.6,0,0,0-.3-1.6,16.5,16.5,0,0,1-3.9-4.8,4.3,4.3,0,0,1-.6-2.2h0c0-.1.1-.2.1-.3s.1-.5.1-.6a4.8,4.8,0,0,1,.9-1.1,1.5,1.5,0,0,0-.7-2.5c-2.4-.5-5-1.6-6.2-3.9s-.4-4.5.7-6.6a1.5,1.5,0,0,0-1.3-2.2h-.2c.3.1,0,.1,0,0h-.6l-1.2-.3-.5-.2h-.3l-1.1-.5a14,14,0,0,1-3.8-3,13.1,13.1,0,0,1-2.6-3.7,2.9,2.9,0,0,1-.3-1,3.5,3.5,0,0,1-.3-1.1c-.1-.3,0-.1,0,0v-.3a4.3,4.3,0,0,1-.1-.5,1.3,1.3,0,0,1,.1-.6v-.3c0-.1-.1.3,0,0l.3-1.2c0-.1.1-.3.1-.2s0-.2.1-.2l.3-.6a7.1,7.1,0,0,1,1.9-2,1.6,1.6,0,0,0-.3-2.4c-3-1.9-6-4.2-7.9-7.2a1.6,1.6,0,0,0-2.1-.6,12.4,12.4,0,0,1-2,1,8.4,8.4,0,0,0-1.7.5l.7-.2h0a1.5,1.5,0,0,0-1.5,1.5c-.4,3.1-.5,6.1-1.1,9.1a20.6,20.6,0,0,1-1.4,4.4,6.6,6.6,0,0,1-2.9,3.3,1.5,1.5,0,0,0-.7,1.7,5.9,5.9,0,0,1-1.1,5.4,1.5,1.5,0,0,0-.3,1.8,3,3,0,0,1,.4,1,4.3,4.3,0,0,1,.1.5s.1.5.1.2a12.1,12.1,0,0,1-.1,2,10.3,10.3,0,0,1-1.8,4,30.4,30.4,0,0,1-6.6,6.8c-.8.6-.4,1.9.3,2.4a6.6,6.6,0,0,1,1.9,1.5c0,.1.2.3.1.2h0l.3.5.3.5v.2c-.1-.2,0,.1,0,.1a2.2,2.2,0,0,1,.3,1v.3h0v1.7c0,.2,0-.2-.1.2a1.3,1.3,0,0,1-.1.6l-.3,1.1a1.7,1.7,0,0,1-.2.5h0a.8.8,0,0,1-.2.4,12.8,12.8,0,0,1-1.1,2l-.4.5-.2.3-.9,1a9.3,9.3,0,0,1-1.8,1.6c-.2.2-.1.1,0,.1l-.3.2a1,1,0,0,0-.5.4l-1.2.6-.6.3-.3.2c-.2.1.1-.1-.1,0l-1.2.4a1.3,1.3,0,0,0-1,1.1c-.2.7-.5,1.2-.1,1.9s.5.9.7,1.3l.4,1.2a2,2,0,0,0,1.2,1.6,16.8,16.8,0,0,1,3.5,2c.5.4,1.1,1.1,1.7,1.7l1.1,1.3a23.9,23.9,0,0,1,1.3,2.1l.3.5c0,.1.3.5.1.3s.2.5.2.3-.1-.1.1.3-.1-.1.1.2a1.4,1.4,0,0,0,1.3.7c4.8-.3,9.7-1,14.5-.9a25.3,25.3,0,0,1,7.2,1.2,9.1,9.1,0,0,1,5.3,3.8,6.4,6.4,0,0,1,.9,3.6,13.5,13.5,0,0,1-.8,4.3,1.4,1.4,0,0,0,.3,1.4l1.1.9a1.5,1.5,0,0,0,2.5-.6c.1-.4-.1.2,0,0s.1-.2.1-.3.1-.3.2-.4l.7-1.1v-.2h.1v-.2l.2-.2.8-.9.9-.8.5-.3c.2-.2,0-.1,0-.1l.3-.2,2.2-1.3.5-.3.4-.2,1.2-.4,1.1-.3h.9a8.9,8.9,0,0,1,2.3,0c-.4,0,.2.1.3.1h.5l.5.2h.3c-.3-.1-.1-.1,0,0l1,.6c.3.2.1,0,0,0l.3.2.5.5.2.3h.1l.4.5.3.7a1.5,1.5,0,0,1,.3.6,1.5,1.5,0,0,0,2.5.6l1.7-1.4-.7.2h0a1.5,1.5,0,0,0,1.5-1.5c0,.5,0-.1.1-.2a2.4,2.4,0,0,1,.2-.8,2.8,2.8,0,0,0-.6-1.6,11.5,11.5,0,0,1-1-2.3,6.3,6.3,0,0,1,.1-4.3,1.8,1.8,0,0,0,0-1.6,7.6,7.6,0,0,1-1.2-1.9,1.6,1.6,0,0,0-1.9-1.1A1.5,1.5,0,0,0,139.1,120.3Z" transform="translate(0 3.6)" style="fill:#365511"/><polyline points="105.3 163.3 105.3 135 117.5 135 117.5 163.3" style="fill:#783c1d;stroke:#6a3417;stroke-linecap:round;stroke-linejoin:round;stroke-width:3px"/><path d="M100.5,135.7H90.2l-9.4-.2h-1c-7.3-.3-7.7-.6-8.2-1.1s-1.4-1.4,5.5-23.5L78,108c2.7-8.5,5.7-17.6,8.8-26.5l1-2.8c3.2-9.3,6.4-17.9,9.1-24.8l1-2.4h0c6.8-16.5,8.5-16.5,9.8-16.5h.2a2.8,2.8,0,0,1,1.6.7l1.3,1.2c2.2,2.6,5.3,8,9.5,16.7h0l1,2.1c2.8,6,6,13.2,9.4,21.5l1.1,2.5c3.1,7.5,6.4,15.7,9.7,24.3h0l1.1,2.8c10.2,26.8,9.6,27.1,8.2,27.8s-.6.3-8.1.5h-1l-9.3.2H100.5Z" transform="translate(0 3.6)" style="fill:#a8662f"/><path d="M107.7,36.4h0a1.8,1.8,0,0,1,.9.4,4.7,4.7,0,0,1,1,1c2.3,2.6,5.6,8.6,9.3,16.4h0l1,2.1c3,6.4,6.2,13.8,9.4,21.5l1.1,2.4c3.4,8.3,6.7,16.7,9.7,24.3h0l1.1,2.8c5.6,14.6,9.4,25.7,8.9,25.9s-3,.3-7.5.4h-1l-9.3.2H90.2l-9.3-.2h-1c-4.2-.2-6.9-.4-7.2-.7s2-9.5,5.8-21.9l.9-2.9h0c2.6-8.1,5.7-17.4,8.8-26.5l1-2.8c3.1-8.9,6.3-17.6,9.1-24.7l1-2.5h0c3.8-9.4,6.9-15.6,8.4-15.6m0-3c-2.4,0-4,2.1-6,5.9s-3.1,6.6-5.2,11.6h0l-1,2.4c-2.7,6.9-5.9,15.5-9.1,24.8l-1,2.8c-3.1,8.9-6.1,18.1-8.8,26.6a.1.1,0,0,1-.1.1l-.8,2.8c-2,6.3-3.6,11.7-4.6,15.5-1.7,6.4-2,8-.5,9.4s1.6,1.3,9.2,1.6h1l9.4.2h42.2l9.3-.2h1c7.8-.2,8.1-.3,8.8-.7,2.4-1.2,1.6-3.8,1.1-5.6s-1-3.2-1.8-5.6c-1.7-4.8-4.1-11.4-6.8-18.5l-1.1-2.7h0c-3.3-8.6-6.6-16.8-9.8-24.4l-1-2.5c-3.4-8.3-6.6-15.5-9.5-21.6l-.9-2h-.1c-4.2-8.8-7.4-14.4-9.7-17.1a9.6,9.6,0,0,0-1.5-1.4,4.6,4.6,0,0,0-2.4-1Z" transform="translate(0 3.6)" style="fill:#75411a"/><path d="M150.1,133.3c-.2.2-3,.3-7.5.4h-1l-9.3.2H90.2l-9.3-.2h-1c-4.2-.2-6.9-.4-7.2-.7s2-9.5,5.8-21.9l.9-2.9h0c2.6-8.1,5.7-17.4,8.8-26.5l1-2.8c3.1-8.9,6.3-17.6,9.1-24.7l1-2.5h0c3.9-9.5,7-15.8,8.4-15.6a1.8,1.8,0,0,1,.9.4,4.7,4.7,0,0,1,1,1c2.3,2.6,5.6,8.6,9.3,16.4h0l1,2.1c3,6.4,6.2,13.8,9.4,21.5l1.1,2.4c3.4,8.3,6.7,16.7,9.7,24.3h0l1.1,2.8C146.8,122,150.6,133.1,150.1,133.3Z" transform="translate(0 3.6)" style="fill:#ce8c56"/><path d="M111.8,134.2c-1.9-15.5-2.3-65.4-2.2-96.4l-1-1c0,17.2-.1,78.9,2.2,97.4Z" transform="translate(0 3.6)" style="fill:#b87544"/><path d="M122.1,134.1h-1c-1.8-14.4-2.1-54.6-2.2-79.9l1,2.1C120,85.8,120.5,121.4,122.1,134.1Z" transform="translate(0 3.6)" style="fill:#b87544"/><path d="M132.3,133.9h-1c-1.2-10.5-1.7-34.3-2-56.2l1.1,2.4C130.6,102.7,131.2,124.5,132.3,133.9Z" transform="translate(0 3.6)" style="fill:#b87544"/><path d="M101.5,134.2h-1c-1.8-14.2-2.1-54.3-2.2-79.7l1-2.5C99.4,82.3,99.9,121,101.5,134.2Z" transform="translate(0 3.6)" style="fill:#b87544"/><path d="M91.2,134.2c-1.2-9.5-1.8-31.9-2-55l-1,2.8c.3,20.9.8,42.5,2,52.2Z" transform="translate(0 3.6)" style="fill:#b87544"/><path d="M80.9,134h-1c-.6-5-1.1-13.1-1.4-22.6l.9-2.9C79.8,119.5,80.2,128.7,80.9,134Z" transform="translate(0 3.6)" style="fill:#b87544"/><path d="M142.6,133.7h-1c-.7-6.2-1.2-16.9-1.5-29.1l1.1,2.8C141.5,118.7,142,128.2,142.6,133.7Z" transform="translate(0 3.6)" style="fill:#b87544"/><circle cx="110" cy="102.2" r="18.7" style="fill:#763f1a"/><path d="M107,51.7V75.4H98c2.4-6.8,4.7-13.1,6.8-18.3l1-2.5.2-.4C106.3,53.3,106.7,52.5,107,51.7Z" transform="translate(0 3.6)" style="fill:#763f1a"/><path d="M120.8,75.4H110V51.9c.7,1.3,1.4,2.8,2.2,4.5l.4.8,1,2.1C115.8,63.9,118.2,69.3,120.8,75.4Z" transform="translate(0 3.6)" style="fill:#763f1a"/><circle cx="85.5" cy="128.6" r="4.6" style="fill:#763f1a"/><circle cx="98" cy="128.6" r="4.6" style="fill:#763f1a"/><circle cx="110.5" cy="128.6" r="4.6" style="fill:#763f1a"/><circle cx="123" cy="128.6" r="4.6" style="fill:#763f1a"/><circle cx="135.5" cy="128.6" r="4.6" style="fill:#763f1a"/><g style="clip-path:url(#clip-path)"><path d="M200,95.5c4.9-1,13.6-8.5,8.5-13.8-3-2.9-7.1-2.2-10.5.1-1.8-4-6.6-5.6-11.3-5.5,0-.2,0-.3.1-.4h1.8l.9-.2h.8a.1.1,0,0,1,.1-.1h1.4l.3-.2h.6l.3-.2h0l.8-.6h0l.3-.3h.2l.2-.3h.2c0-.1.1-.2.2-.3s.1-.1.1-.2l.2-.3.2-.2.2-.3c0-.1.1-.2.1-.3l.2-.3v-.3l.2-.3c0-.1.1-.2.1-.3s.1-.3.1-.4a.4.4,0,0,0,.1-.3,11.8,11.8,0,0,0,.5-4c-.2-11-11.9-8.3-11.9-8.3.5-4.2.4-9.4-4.7-10.4-3.3-.5-4.7,1.4-5.3,3.8-3-5.2-10.8-3.4-10.8-3.4a13.6,13.6,0,0,0,.2-2c1.7.6,3.4.4,3.6-2.1s-2.2-4.1-4.8-4.1l-.4-.5h.1l.2-.2h.1l.2-.2h.1c.1-.1.2-.2.2-.3h.1l.2-.3h.1c0-.1.1-.2.2-.3h0c2.1-2.9,2.9-7.1.5-10.1-4.2-5-7.2,3.7-7.8,6.6-1.1-4.6-8.1-12.7-13.2-8.9a13.3,13.3,0,0,0-7.5-.5c.6-4.2.4-9.4-4.7-10.4-2.3-.4-3.7.4-4.5,1.8-4.6-1.4-9.8-1.8-13.5-2.4h-.2v-.2c0-.1-.1-.1-.1-.2v-.2h-.1V11h-.1a.4.4,0,0,0-.1-.3h0c-.1-.4-.3-.8-.4-1.2s-.1,0-.1-.1l-.2-.3V8.7a.5.5,0,0,1-.2-.4V8.1l-.2-.3c0-.1-.1-.1-.1-.2l-.2-.3a.3.3,0,0,1-.1-.2l-.3-.4c0-.1-.1-.1-.1-.2l-.3-.3a.3.3,0,0,0-.1-.2l-.3-.4h-.1a.8.8,0,0,0-.4-.4h0l-.9-.9h-.1l-.3-.3-.3-.2-.3-.3h-.3l-.4-.3H107l-.4-.2-.3-.2-.5-.2H105l-.4-.2h-1.8a16.5,16.5,0,0,0-5.3.3c-9.9,1.9-9.9,9.5-9,14A4.5,4.5,0,0,0,87,19.3c-4.9.6-9.9,2.4-10.1,8.3a8.5,8.5,0,0,0,.5,2.5h0c-1.9-5.6-5.3-12-12.3-10.1S60.7,29.2,63.5,34h-.2c-4.1-.6-6.2,3.8-5.5,7.3-.3,1-.6,2.1-.8,3-2.7-3.7-7.9-1.2-9.7,2.3a9.1,9.1,0,0,0-.7,1.4c-2-3.9-5.6-7.2-9.5-8.2H37l-1.1-.2H32l-.7.3H31l-.4.2-.3.2-.4.2-.3.2-.4.3-.3.2-.4.3-.2.3-.5.4-.2.2-.6.7c-5.3,6.4-1.4,14.9,5,18-3.9,1.3-9.5,4.4-5.1,8.6,2.6,2.6,5.4,2,7.8.2a31.7,31.7,0,0,0,0,11.5h.1l-1.6,1.2C30,77.1,17,71.2,12,78.9s6.5,13.7,12.8,14.3a.7.7,0,0,0-.1.5c-3.9,2.1-11.3,7.3-4.8,10.5a8.7,8.7,0,0,0,8.8-.7,10.2,10.2,0,0,0,2.2,1.4c-3.5,1.2-8.5,4.2-4.7,7.8s7.3.3,9.8-3.2v2.4a.6.6,0,0,1,.1.4v.2c0,.2.1.3.1.5h0a.9.9,0,0,1,.1.5h0c1.1,4.4,4.1,8.4,8.5,9.1,5.7,7.8,16.6,2.2,16.6,2.2.7,5.8,2.6,12.8,9.9,12.4s6.2-8.1,4.5-13.3c4.2,1.9,7.3-2.6,7.1-6.4a12.9,12.9,0,0,0-2.8-7.5,9,9,0,0,0,2.3-2c2-2.8,1.4-5.6-.2-8.3a1.9,1.9,0,0,0,.2-.7c7.1-1.9,14.6-12.9,6.4-18.1,4.4-3.5,10.5-9.6,7.6-15.3A7,7,0,0,0,98,59.7a.6.6,0,0,1-.1-.4l1-.7c4.1-3.5,4.2-11.5,4.7-16.2h.9a.1.1,0,0,1,.1-.1h.7l.9-.4h.1l.2-.2h.2l.2-.2h.3c1.9,3,5.2,5.5,8,7.3-8,6.1,1.3,16.8,8.7,17.4-1.6,3-2.3,6.1.2,8.9a10.8,10.8,0,0,0,5.8,3c-3.5,3.4,0,7.7,3.2,10.6-3.8.4-4.2,4.9-2.5,7.5s8,6,12.5,5.3c-2.9,2.1-5.9,4.5-4.4,8.3a7.1,7.1,0,0,0,1.3,2.2c-2.5,5.5,3.7,13,8.7,14.3a10.2,10.2,0,0,0-.7,8.8h0l.3.6a.1.1,0,0,1,.1.1v.2h.1c.1.1.1.2.2.2v.2h.2v.2l.2.2h.3c0,.1.1.1.2.2h.1l.4.2h1.4c0,.1.1.1.2.1h1.6c5,0,7.6-5.2,6.6-9.5,2,1.3,5.4,2.7,6-.5,10.6,2.2,13.9-10.8,13.9-10.8,4.8,3.4,11.3,6.5,15.8.8s-1.1-9.3-5.9-11.6h.1c3.5.4,4.4-2.8,4.2-5.6l.3.3a.1.1,0,0,0,.1.1c0,.1.1.1.1.2l.2.2a.1.1,0,0,1,.1.1l.2.2h.1a.2.2,0,0,1,.2.2h.1l.3.2h0l.4.3h0c2.9,2.2,7.1,3,10.1.6C211.6,99.4,202.9,96.2,200,95.5Z" transform="translate(0 3.6)" style="fill:#8fa129"/><path d="M200.4,97a17.1,17.1,0,0,0,9.9-7.4,7.9,7.9,0,0,0,1-6,7.7,7.7,0,0,0-5.2-5c-3-.9-6.3.2-8.9,1.9l2.1.5c-2.3-4.7-7.8-6.3-12.6-6.2l1.4,1.9v-.4l-1.4,1.1a12,12,0,0,0,7.5-2.4c3.3-2.5,4.5-6.6,4.2-10.6a10,10,0,0,0-3.8-7.4,11.2,11.2,0,0,0-6.1-1.9,16.7,16.7,0,0,0-3.9.4l1.8,1.8c.5-3.8.6-8.5-2.8-11a7,7,0,0,0-6.4-1,5.9,5.9,0,0,0-3.6,4.6l2.7-.3c-2.5-4.2-8-5.2-12.5-4.2l1.9,1.5a13.6,13.6,0,0,0,.2-2l-1.9,1.5a4.5,4.5,0,0,0,3.9-.3,4.4,4.4,0,0,0,1.6-4.3c-.3-3.3-3.4-4.6-6.3-4.6l1.3.7-.6-.7v2.1c3.6-3.2,5.4-9.2,2.3-13.3-1.1-1.6-2.9-3-5-2.4a7.4,7.4,0,0,0-3.7,3.7,22,22,0,0,0-2,5.4h2.9c-1.4-5.7-9.1-14.2-15.4-9.8h1.2a13.9,13.9,0,0,0-8.3-.6l1.8,1.9c.5-3.4.7-7.3-1.7-10.1s-8-3.2-10.2.4l1.7-.7c-4.4-1.3-9-1.7-13.5-2.4l1,1A14.3,14.3,0,0,0,103,.1C96.7-.6,89,1.9,87.1,8.6a16.7,16.7,0,0,0-.1,7.7l.4-1.5a6.4,6.4,0,0,0-1.9,4.5L87,17.8c-3.1.4-6.3,1.1-8.7,3.2A8.9,8.9,0,0,0,76,30.5l.3-1.4h0l2.5.7c-1.6-4.7-4.3-10.5-9.7-11.4a9.9,9.9,0,0,0-7.9,2.2,7.3,7.3,0,0,0-2,6.4,20.7,20.7,0,0,0,3,7.7l.9-2.2h.6a5.9,5.9,0,0,0-6.1,2.6,8.8,8.8,0,0,0-1.2,6.5v-.8a17.1,17.1,0,0,0-.9,3l2.7-.3A5.8,5.8,0,0,0,51,41.5a10,10,0,0,0-5.8,6.1l2.7-.4c-2.1-4.1-5.8-7.7-10.4-8.9l1,1.1h0a1.6,1.6,0,0,0-1-1.1,11.2,11.2,0,0,0-7.2.8,13.4,13.4,0,0,0-5.6,5.2,12.5,12.5,0,0,0,.7,13.4,14.9,14.9,0,0,0,5.9,5.2l.3-2.8c-3.3,1.1-8.5,3.6-7.7,7.9a7.2,7.2,0,0,0,4.8,5.1,7.4,7.4,0,0,0,6.7-1.4L33.2,70a35,35,0,0,0,.1,12.5l.7-1.6-1.9,1.4,2.4.3a17.3,17.3,0,0,0-7.4-6.8A16.5,16.5,0,0,0,16.7,74a9.1,9.1,0,0,0-7.1,7c-.7,3.6,1.4,6.8,4.1,9a21.6,21.6,0,0,0,11.1,4.7l-1.5-1.9a4.3,4.3,0,0,0-.1.5l.7-.9a22.3,22.3,0,0,0-5.3,3.8c-1.4,1.3-2.8,3.1-2.8,5.1s2.5,4,4.6,4.8a10.8,10.8,0,0,0,9.1-1.3H27.9a13.5,13.5,0,0,0,2.2,1.4l.4-2.7c-3.6,1.3-9.6,4.8-6.2,9.3,1.6,2.2,4.2,3.5,6.9,2.6s4.5-3,6.1-5.1l-2.8-.8c-.3,6.2,3.2,13.6,9.9,14.7l-.9-.7A12.1,12.1,0,0,0,55,128.3a22,22,0,0,0,7.2-2L59.9,125c.6,5,2,11.1,7.1,13.2a9.4,9.4,0,0,0,8.2-.4,7.4,7.4,0,0,0,3.3-5.9c.3-2.8-.5-5.6-1.3-8.2l-1.8,1.9c3.6,1.5,7-.9,8.4-4.3s0-8.5-2.4-11.8l-.5,2a9.3,9.3,0,0,0,4.2-5.7,10.2,10.2,0,0,0-1.6-6.6v1.1l.3-.7-1.1,1a16.2,16.2,0,0,0,10-8.8,10.8,10.8,0,0,0,.9-6.4,8.8,8.8,0,0,0-4.2-5.6l.3,2.4c5-4,11.1-10.3,7.9-17.2v1.6a8.6,8.6,0,0,0,1.6-7.7l-.7,1.7c3.1-1.6,4.5-5.2,5.3-8.4a84.5,84.5,0,0,0,1.2-9.8L104,43.8a10.9,10.9,0,0,0,3.9-1.5l-2-.6c2.1,3.3,5.3,5.8,8.5,7.9l-.3-2.4c-8.9,7.1,1.1,19.2,9.8,20L122.6,65c-1.5,2.8-2.3,5.9-.8,8.9s4.7,4.6,7.7,5.2l-.7-2.6c-4.1,4.3-.3,9.5,3.2,12.7l1.1-2.5a5.2,5.2,0,0,0-4.8,4,8,8,0,0,0,1.2,6.2c3.1,4.3,8.9,6.3,14,5.6l-1.1-2.7c-2,1.3-4.1,2.9-5.1,5.2s-.2,5.1,1.4,7.3v-1.6c-1.5,3.5-.6,7.2,1.5,10.2s4.7,5.4,8.1,6.3l-.9-2.2a12,12,0,0,0-.7,10.3v-1.5c-.9,1.8,1.8,4.2,3.2,4.9a8.3,8.3,0,0,0,6.9.1c4.1-1.7,5.7-6.6,4.9-10.7l-2.2,1.7a10.3,10.3,0,0,0,4.5,1.7,3.7,3.7,0,0,0,3.6-3.1l-1.8,1.1a11.8,11.8,0,0,0,10.5-2.9,19.7,19.7,0,0,0,4.6-7.2,12.7,12.7,0,0,0,.6-1.8l-2.2.9c3.7,2.6,8.7,5.3,13.4,3.7s8-7.6,4.8-12.1a17.4,17.4,0,0,0-6.7-5l-1.2,2.7a4.8,4.8,0,0,0,5.1-1.9,8.3,8.3,0,0,0,1.1-5.1l-2.8.7c3,3.9,8.7,6.4,13.4,3.8,1.8-1,3.6-3,3-5.2s-2-3-3.5-3.9a18.4,18.4,0,0,0-5.5-2.1,1.5,1.5,0,0,0-.8,2.9,15,15,0,0,1,4.6,1.7l1.9,1.3.3.4v.2a.5.5,0,0,1,0,.5c-.6,1.8-3.6,2.5-5.4,2.2a9.3,9.3,0,0,1-5.5-3.3c-.8-1.1-2.9-.9-2.8.8s-.1,4.5-2.4,4.2a1.4,1.4,0,0,0-1.7.8,1.4,1.4,0,0,0,.6,1.9c2.1,1,4.5,2.3,5.8,4.3s.4,4.5-1.4,6.2c-3.9,3.5-9.4.1-12.9-2.3a1.5,1.5,0,0,0-2.2.9,13.9,13.9,0,0,1-.6,1.9l-.7,1.6a23.9,23.9,0,0,1-1.3,2.1c-2.1,3.1-5.5,5-9.4,4.2a1.5,1.5,0,0,0-1.9,1c-.2.9-.3,1-1.1.8a8.8,8.8,0,0,1-2.6-1.2,1.5,1.5,0,0,0-2.2,1.7c.5,2.5-.4,5.7-2.7,7a5.6,5.6,0,0,1-4.2.3,4.4,4.4,0,0,1-2.6-2.4v1.5c.4-.8,0-1.4-.2-2.2a7.6,7.6,0,0,1-.3-2.1,10.7,10.7,0,0,1,1.2-4.4,1.6,1.6,0,0,0-.9-2.3c-4-1-7.8-5.4-8.2-9.4a7.3,7.3,0,0,1,.5-3c.3-.9-.4-1.5-.8-2.2a4.8,4.8,0,0,1-.8-1.8c-.3-2.5,2.3-4.3,4.1-5.6a1.5,1.5,0,0,0-1.2-2.7,12.2,12.2,0,0,1-10.2-3.7,5.4,5.4,0,0,1-1.4-3.8,2.3,2.3,0,0,1,2-2.4c1.1-.2,2.1-1.6,1-2.6s-5.9-5.6-3.1-8.4a1.5,1.5,0,0,0-.7-2.5c-2.2-.5-4.7-1.5-5.8-3.6s-.3-4.2.7-6.1a1.6,1.6,0,0,0-1.3-2.3c-3.5-.3-6.9-2.9-8.8-5.8a8.7,8.7,0,0,1-1.5-4.7,6,6,0,0,1,2.6-4.3,1.6,1.6,0,0,0-.3-2.4,24.1,24.1,0,0,1-7.4-6.8,1.6,1.6,0,0,0-2.1-.5,9.6,9.6,0,0,1-3.2,1.2,1.6,1.6,0,0,0-1.1,1.5,80.1,80.1,0,0,1-1,8.4c-.5,2.7-1.5,5.9-4,7.2a1.5,1.5,0,0,0-.7,1.7A5.4,5.4,0,0,1,95.1,65a1.8,1.8,0,0,0,0,1.6c1.2,2.5.1,5.1-1.3,7.3a27.6,27.6,0,0,1-6.1,6.2c-.8.6-.4,1.8.3,2.3a5.9,5.9,0,0,1,2.9,4.3A9.2,9.2,0,0,1,89.3,92a14.9,14.9,0,0,1-4.1,4.2,14.1,14.1,0,0,1-2.4,1.3c-.7.2-1.3.3-1.7.9a3,3,0,0,0-.2,2.3c.6,1.4,1.4,2.6,1.3,4.2a5.6,5.6,0,0,1-2.8,4c-.6.5-1.1,1.4-.6,2.1,1.8,2.5,3.3,5.7,2.4,8.8a6.4,6.4,0,0,1-1.8,2.7,3.3,3.3,0,0,1-3.2.2c-1.1-.5-2.2.8-1.9,1.8.9,2.9,2.5,7.9-.1,10.3a5.9,5.9,0,0,1-5.6.8,7.1,7.1,0,0,1-4-3.8,22.6,22.6,0,0,1-1.7-6.8,1.4,1.4,0,0,0-2.2-1.3l-.7.3c-.2.1.3-.1.1-.1h-.2l-.4.2-1.1.4a16.8,16.8,0,0,1-5.9.8,8.6,8.6,0,0,1-5.8-2.7c-.6-.6-.9-1.2-1.7-1.4a6.8,6.8,0,0,1-2-.7,9.1,9.1,0,0,1-3-2.5,12.8,12.8,0,0,1-2.5-8.6c.1-1.6-2-1.8-2.8-.7s-5.5,5.9-8,2.3,3-4.2,4.6-4.7,1.6-2.2.4-2.8a8.3,8.3,0,0,1-2.2-1.4,1.8,1.8,0,0,0-1.6,0,7.4,7.4,0,0,1-6.9.9,4.1,4.1,0,0,1-2-1.4,1.3,1.3,0,0,1,0-1.2c.5-1.4,1.9-2.5,3-3.4a16.4,16.4,0,0,1,2.2-1.4l1-.6a1.8,1.8,0,0,0,1-1.6,1.4,1.4,0,0,0-1.4-1.8,18.7,18.7,0,0,1-7.9-3.1c-2.1-1.3-4.5-3.5-4.5-6.1S14.6,77.7,17,77a12.3,12.3,0,0,1,8,1.1,14.5,14.5,0,0,1,6.9,6,1.6,1.6,0,0,0,2.4.3l1.2-1a1.4,1.4,0,0,0,.7-1.6,31.3,31.3,0,0,1-.1-11c.2-1.1-1.1-2.5-2.2-1.7s-2.7,1.7-4.3,1.2-2.8-1.8-2.8-3.1,1-1.8,1.7-2.3A17.6,17.6,0,0,1,32.4,63c1.1-.3,1.6-2.1.4-2.7-4.1-2-7.4-6.5-6.7-11.2A9.8,9.8,0,0,1,30,42.8a8.2,8.2,0,0,1,6.7-1.6l-1.1-1c.4,1.1,1.7,1.2,2.6,1.5a17.5,17.5,0,0,1,2.9,1.8,14.6,14.6,0,0,1,4.2,5.3c.7,1.2,2.3.7,2.8-.4a7.4,7.4,0,0,1,3.6-4,3.2,3.2,0,0,1,4,.7,1.5,1.5,0,0,0,2.7-.4,14.2,14.2,0,0,0,.8-4.1,5.9,5.9,0,0,1,.4-2.9A4.2,4.2,0,0,1,61,35.9c1-.6,1.9-.2,2.9-.5a1.5,1.5,0,0,0,.9-2.2,21.7,21.7,0,0,1-2.4-5.4,5.4,5.4,0,0,1,.4-4.5,6.3,6.3,0,0,1,5.5-2,6.8,6.8,0,0,1,4.5,2.9,21.1,21.1,0,0,1,3.1,6.4,1.5,1.5,0,0,0,2.5.6h.1a1.6,1.6,0,0,0,.3-1.5A6.1,6.1,0,0,1,80.6,23,13.3,13.3,0,0,1,87,20.8a1.5,1.5,0,0,0,1.5-1.5,3.6,3.6,0,0,1,.6-2c.4-.4.8-.6.8-1.2a2,2,0,0,0-.1-1.1,23,23,0,0,1-.2-2.8,8.9,8.9,0,0,1,1.8-5.6c2-2.3,5.3-3.3,8.3-3.5a10.9,10.9,0,0,1,8.8,2.7,12.8,12.8,0,0,1,3.7,7.3,1.5,1.5,0,0,0,1.1,1.1c4.5.7,9.1,1,13.5,2.4a1.7,1.7,0,0,0,1.7-.7c1.3-2.1,4.5-1.2,5.7.6s1,4.6.7,6.8a1.6,1.6,0,0,0,1.9,1.8,12.4,12.4,0,0,1,5.4.2c.8.2,1.5.6,2.2.3a13.3,13.3,0,0,1,1.2-.6,3.6,3.6,0,0,1,2.5-.1,11.3,11.3,0,0,1,4.8,3.6,12.2,12.2,0,0,1,2.7,5,1.5,1.5,0,0,0,2.9,0,28,28,0,0,1,1.6-4.6,12.7,12.7,0,0,1,1.3-1.9l.7-.5h.3a3.1,3.1,0,0,1,1.8,1.6,5.8,5.8,0,0,1,.7,3.5,11.4,11.4,0,0,1-1.3,3.5,11.2,11.2,0,0,1-1.7,2.1,1.5,1.5,0,0,0,0,2.1,2,2,0,0,0,1.6.9h1.3a2.7,2.7,0,0,1,1.7,1.1,2.6,2.6,0,0,1-.1,2.1c-.2.4-.9.1-1.5,0a1.5,1.5,0,0,0-1.9,1.4,13.6,13.6,0,0,1-.2,2c-.1,1,1.1,1.6,1.9,1.4h.7c.3-.1-.2,0,.1,0a13.4,13.4,0,0,1,2.8-.1,6.4,6.4,0,0,1,5.5,3,1.6,1.6,0,0,0,2.8-.4,3.1,3.1,0,0,1,1.8-2.7,4,4,0,0,1,3.9,1.1c1.9,1.8,1.6,5.1,1.3,7.4a1.6,1.6,0,0,0,1.9,1.9l.6-.2c.4,0-.2.1,0,0h3.5l1.3.3,1.1.3a6.1,6.1,0,0,1,3.3,4.3c.7,3,.2,6.7-2.1,8.9a9.1,9.1,0,0,1-6.4,2.4,1.6,1.6,0,0,0-1.5,1.1v.4a1.5,1.5,0,0,0,1.5,1.9c3.8-.1,8.2,1,10,4.7a1.4,1.4,0,0,0,2,.5c2.2-1.3,5.1-2.5,7.6-1.1a4,4,0,0,1,2,4.7c-.5,1.9-2.1,3.5-3.6,4.8a14.8,14.8,0,0,1-5.1,2.7C197.7,94.5,198.5,97.4,200.4,97Z" transform="translate(0 3.6)" style="fill:#365511"/><path d="M93.3,6.3c-7.8,1.5-7.9,7.5-7.2,11.1A3.3,3.3,0,0,0,85,20.2c-3.9.4-7.9,1.8-8,6.5a5.6,5.6,0,0,0,.3,2h0c-1.5-4.5-4.2-9.6-9.8-8s-3.4,7.2-1.2,11h-.1c-3.3-.5-5,3.1-4.4,5.8-.3.8-.5,1.7-.7,2.4-2.1-3-6.2-.9-7.7,1.9l-.5,1a12.7,12.7,0,0,0-7.6-6.5H41.2l-.5.2h-.2l-.4.2h-.2l-.3.2h-.2l-.4.3h-.2l-.3.3-.2.2-.3.3c-.1.1-.2.1-.2.2l-.5.6c-4.2,5-1.1,11.8,4,14.3-3.2,1-7.6,3.5-4.1,6.8s4.3,1.6,6.2.2a27.8,27.8,0,0,0,0,9.1h.1l-1.3.9c-2.5-4.9-12.8-9.6-16.8-3.5s5.1,10.9,10.1,11.4a.6.6,0,0,1-.1.4c-3.1,1.7-8.9,5.8-3.8,8.4a7,7,0,0,0,7-.6,8.7,8.7,0,0,0,1.8,1.1c-2.8,1-6.8,3.3-3.8,6.2s5.9.3,7.8-2.5v1.4c0,.1.1.2.1.3v.5h0a.8.8,0,0,1,.1.4h0c0,.2.1.3.1.4h0c.8,3.5,3.2,6.7,6.8,7.2,4.4,6.2,13.2,1.8,13.2,1.8.5,4.6,2,10.2,7.8,9.9s4.9-6.4,3.5-10.6c3.4,1.5,5.9-2.1,5.8-5.1a11.1,11.1,0,0,0-2.3-5.9,9.8,9.8,0,0,0,1.8-1.7c1.6-2.2,1.1-4.5-.1-6.5a2.5,2.5,0,0,1,.2-.7c5.6-1.4,11.5-10.2,5-14.3,3.5-2.8,8.3-7.6,6.1-12.2a6,6,0,0,0,1.2-4.9c0-.1-.1-.1-.1-.2l.8-.6c1.9-1.6,2.7-4.2,3.1-6.9V6A12.6,12.6,0,0,0,93.3,6.3Z" transform="translate(0 3.6)" style="fill:#b5d26a"/><path d="M189.2,75.9c4.2-.9,11.6-7.2,7.2-11.7-2.5-2.4-6-1.8-8.8.1C186,61,182,59.6,178,59.6c0-.1.1-.2.1-.3h1.5l.8-.2h.3a.1.1,0,0,1,.1-.1h1a.1.1,0,0,0,.1-.1h.4l.3-.2h.1l.3-.2h.1l.2-.2h.1l.6-.5h.1l.2-.2a.1.1,0,0,0,.1-.1.2.2,0,0,0,.2-.2h.2c0-.1.1-.2.1-.3h.2c0-.1.1-.2.2-.3a.3.3,0,0,1,.1-.2.3.3,0,0,0,.1-.2c.1-.1.1-.2.2-.2s.1-.2.1-.3a.3.3,0,0,1,.1-.2.4.4,0,0,0,.1-.3.4.4,0,0,0,.1-.3l.2-.3v-.2a9.1,9.1,0,0,0,.4-3.4c-.2-9.4-10.1-7.1-10.1-7.1.5-3.5.4-7.9-3.9-8.8-2.8-.4-4,1.2-4.5,3.3-2.5-4.5-9.1-3-9.1-3s.1-1,.2-1.6,2.8.3,3-1.8-1.9-3.5-4.1-3.5l-.3-.4h.1l.2-.2h.3l.2-.2h0c.1-.1.2-.1.2-.2h.1l.2-.2h0c1.8-2.5,2.5-6.1.4-8.6-3.5-4.2-6.1,3.1-6.6,5.6-.9-3.9-6.8-10.7-11.2-7.5a11.2,11.2,0,0,0-6.3-.5c.5-3.5.4-7.9-4-8.8a3.3,3.3,0,0,0-3.8,1.6,68.6,68.6,0,0,0-11.4-2h-.2V5H116V4.4h0V3.9a3.6,3.6,0,0,0-.4-.9h0l-.2-.3V2.4l-.2-.3a.1.1,0,0,0-.1-.1c0-.1-.1-.2-.1-.3s-.1-.1-.1-.2l-.2-.3a.3.3,0,0,1-.1-.2c-.1,0-.1-.1-.2-.2a.3.3,0,0,0-.1-.2l-.2-.3V.1l-.3-.3h-.1l-.3-.3h0a6,6,0,0,0-.8-.8h0l-.4-.3h-.1l-.4-.2c0-.1-.1-.1-.2-.2l-.3-.2h-.3l-.3-.2h-.6l-.3-.2h-2.3s.5,36.3.7,34.5h.7a.1.1,0,0,1,.1-.1h.4a.1.1,0,0,0,.1-.1h.1l.7-.3h.9c1.6,2.5,4.4,4.6,6.7,6.2-6.7,5.2,1.2,14.2,7.4,14.7-1.4,2.5-1.9,5.2.2,7.6a10,10,0,0,0,4.9,2.5c-2.9,2.8,0,6.5,2.7,8.9-3.2.3-3.6,4.2-2.1,6.4s6.7,5.1,10.6,4.5c-2.5,1.7-5,3.8-3.8,7a11.8,11.8,0,0,0,1.1,1.9c-2.1,4.6,3.1,11,7.4,12.1a8.8,8.8,0,0,0-.6,7.4h0l.3.5h0l.2.2h.2v.2h.2l.4.4h.3l.3.2h2.8c4.2,0,6.4-4.4,5.5-8.1,1.7,1.2,4.6,2.3,5.1-.4,8.9,1.9,11.7-9.1,11.7-9.1,4.1,2.8,9.6,5.5,13.4.7s-.9-7.9-4.9-9.9h0c3,.4,3.7-2.3,3.6-4.8,0,.1.1.2.2.3s0,.1.1.1.1.1.1.2h.2l.2.2h.1l.2.2h.1a.2.2,0,0,0,.2.2h0l.3.2h0c2.5,1.8,6,2.6,8.6.5C199,79.2,191.7,76.5,189.2,75.9Z" transform="translate(0 3.6)" style="fill:#b5d26a"/><path d="M116.4,27.5h0l.4-.6c1.9-2.6,3.8-6.9.8-9.3s-9.8-1.6-13.7-1.3h-.4v-.2c-.1,0-.1,0-.1-.1h-.1a2.1,2.1,0,0,1-.4-.6h-.1v-.2h-.3l-.2-.2h-.1l-.2-.2a.1.1,0,0,0-.1-.1l-.2-.2h-.3c0-.1,0-.1-.1-.1l-.2-.2h-.1c-.1-.1-.2-.1-.2-.2h-.1l-.6-.4H95.9a10.6,10.6,0,0,0-3.1.9c-8.2,3.6-2.5,11.5-2.5,11.5-3.3.8-7.2,2.6-6.3,6.7s5.2,2.9,8,1.5c-.7,2.5,2.2,4,4.3,3.5s6-3.7,6.8-6.8c.5,2.4,1.4,5,4.3,5s6.3-2.8,8.5-5.2h0Z" transform="translate(0 3.6)" style="fill:#b5d26a"/><path d="M119.1,16.1h0l.5-.5c1.8-2.6,3.7-6.9.7-9.4s-9.8-1.6-13.6-1.3h-.2a.1.1,0,0,1-.1-.1h-.1a.1.1,0,0,1-.1-.1c0-.1,0-.1-.1-.1V3.6H106a4.3,4.3,0,0,1-.4-.7h-.1a.3.3,0,0,0-.1-.2c0-.1,0-.1-.1-.1s-.1-.1-.1-.2h-.1l-.2-.2a.1.1,0,0,0-.1-.1V1.8c-.1,0-.1,0-.1-.1h-.3l-.2-.2a.1.1,0,0,1-.1-.1l-.3-.2h-.3l-.7-.4H98.9c-.1,0-.2,0-.2.1a10.7,10.7,0,0,0-3.2.8C87.4,4.1,93,12,93,12c-3.3.9-7.1,2.6-6.3,6.8s5.2,2.8,8.1,1.4c-.8,2.6,2.1,4,4.3,3.6s6-3.8,6.7-6.9c.6,2.4,1.4,5,4.3,5s6.4-2.7,8.5-5.2h0Z" transform="translate(0 3.6)" style="fill:#b5d26a"/><path d="M79.2,51.6c0-.1.1-.1.1-.2h.2a.1.1,0,0,1,.1-.1h0l.2-.3h0c.1-.1.1-.1.1-.2a.1.1,0,0,1,.1-.1v-.2c0-.1,0-.1.1-.1v-.4c0-.1.1-.1.1-.2h0V49h0v-.4c-.1-3.4-3.7-5-6.7-4.2.9-1.5,1.8-4-.8-4.1s-2.8,2.1-2.6,4l-.2-.2h0c-.1,0-.1,0-.1-.1h-.3a.1.1,0,0,0-.1-.1h-.1a.1.1,0,0,1-.1-.1h-.1l-.2-.2h0c-.1-.1-.2-.1-.2-.2h0c-2.1-1.3-5-1.8-7,0s2.8,4.8,4.8,5.1c-3.3.9-8.9,6.4-5.2,9.8s10-1.7,10.8-5.6a6.8,6.8,0,0,0,5.9.2h.1l.4-.2h.3c0-.1,0-.1.1-.1s0-.1.1-.1h.1A.1.1,0,0,1,79.2,51.6Z" transform="translate(0 3.6)" style="fill:#ffeb81"/><path d="M128,31.7h.1a.1.1,0,0,0,.1-.1h.1l.2-.2h0v-.2h0a.1.1,0,0,1,.1-.1h0v-.2h.1v-.2h0v-.2h0v-.4c-.1-2.8-3.1-4.1-5.5-3.4.7-1.2,1.5-3.3-.7-3.4s-2.3,1.7-2.1,3.3h-.3a.1.1,0,0,1-.1-.1H120a.1.1,0,0,1-.1-.1h-.1a.1.1,0,0,0-.1-.1h-.1a.1.1,0,0,1-.1-.1h-.2c-1.8-1.2-4.1-1.5-5.7,0s2.2,3.9,3.9,4.2c-2.7.7-7.4,5.2-4.3,8s8.2-1.4,8.9-4.6a5.6,5.6,0,0,0,4.9.2h.1l.3-.2h.1a.1.1,0,0,0,.1-.1c.1,0,.1,0,.1-.1h.2A.1.1,0,0,1,128,31.7Z" transform="translate(0 3.6)" style="fill:#ffeb81"/><path d="M59.5,72.1h.2c0-.1.1-.1.1-.2h.1v-.2l.2-.3h0V70c.1-.1.1-.1.1-.2v-.4c0-.1.1-.2.1-.3h0v-.5c-.2-4-4.4-5.9-7.9-4.9,1.1-1.8,2.1-4.7-.9-4.8s-3.4,2.4-3.1,4.7l-.2-.3c-.1,0-.1,0-.1-.1h-.2a3980657295328.6,3980657295328.6,0,0,0-.2-.2l-.2-.2h0c-.1-.1-.2-.1-.2-.2h-.1l-.2-.2h-.1c-.1-.1-.1-.2-.2-.2h0c-2.5-1.6-5.9-2.1-8.2,0-3.9,3.4,3.2,5.6,5.6,6-3.8,1-10.5,7.4-6.1,11.4s11.7-2,12.7-6.5a7.9,7.9,0,0,0,7,.2h.1l.4-.3h.3a.1.1,0,0,1,.1-.1h.2l.2-.2Z" transform="translate(0 3.6)" style="fill:#ffeb81"/></g><path d="M200.4,97a17.1,17.1,0,0,0,9.9-7.4,7.9,7.9,0,0,0,1-6,7.7,7.7,0,0,0-5.2-5c-3-.9-6.3.2-8.9,1.9l2.1.5c-2.3-4.7-7.8-6.3-12.6-6.2l1.4,1.9v-.4l-1.4,1.1a12,12,0,0,0,7.5-2.4c3.3-2.5,4.5-6.6,4.2-10.6a10,10,0,0,0-3.8-7.4,11.2,11.2,0,0,0-6.1-1.9,16.7,16.7,0,0,0-3.9.4l1.8,1.8c.5-3.8.6-8.5-2.8-11a7,7,0,0,0-6.4-1,5.9,5.9,0,0,0-3.6,4.6l2.7-.3c-2.5-4.2-8-5.2-12.5-4.2l1.9,1.5a13.6,13.6,0,0,0,.2-2l-1.9,1.5a4.5,4.5,0,0,0,3.9-.3,4.4,4.4,0,0,0,1.6-4.3c-.3-3.3-3.4-4.6-6.3-4.6l1.3.7-.6-.7v2.1c3.6-3.2,5.4-9.2,2.3-13.3-1.1-1.6-2.9-3-5-2.4a7.4,7.4,0,0,0-3.7,3.7,22,22,0,0,0-2,5.4h2.9c-1.4-5.7-9.1-14.2-15.4-9.8h1.2a13.9,13.9,0,0,0-8.3-.6l1.8,1.9c.5-3.4.7-7.3-1.7-10.1s-8-3.2-10.2.4l1.7-.7c-4.4-1.3-9-1.7-13.5-2.4l1,1A14.3,14.3,0,0,0,103,.1C96.7-.6,89,1.9,87.1,8.6a16.7,16.7,0,0,0-.1,7.7l.4-1.5a6.4,6.4,0,0,0-1.9,4.5L87,17.8c-3.1.4-6.3,1.1-8.7,3.2A8.9,8.9,0,0,0,76,30.5l.3-1.4h0l2.5.7c-1.6-4.7-4.3-10.5-9.7-11.4a9.9,9.9,0,0,0-7.9,2.2,7.3,7.3,0,0,0-2,6.4,20.7,20.7,0,0,0,3,7.7l.9-2.2h.6a5.9,5.9,0,0,0-6.1,2.6,8.8,8.8,0,0,0-1.2,6.5v-.8a17.1,17.1,0,0,0-.9,3l2.7-.3A5.8,5.8,0,0,0,51,41.5a10,10,0,0,0-5.8,6.1l2.7-.4c-2.1-4.1-5.8-7.7-10.4-8.9l1,1.1h0a1.6,1.6,0,0,0-1-1.1,11.2,11.2,0,0,0-7.2.8,13.4,13.4,0,0,0-5.6,5.2,12.5,12.5,0,0,0,.7,13.4,14.9,14.9,0,0,0,5.9,5.2l.3-2.8c-3.3,1.1-8.5,3.6-7.7,7.9a7.2,7.2,0,0,0,4.8,5.1,7.4,7.4,0,0,0,6.7-1.4L33.2,70a35,35,0,0,0,.1,12.5l.7-1.6-1.9,1.4,2.4.3a17.3,17.3,0,0,0-7.4-6.8A16.5,16.5,0,0,0,16.7,74a9.1,9.1,0,0,0-7.1,7c-.7,3.6,1.4,6.8,4.1,9a21.6,21.6,0,0,0,11.1,4.7l-1.5-1.9a4.3,4.3,0,0,0-.1.5l.7-.9a22.3,22.3,0,0,0-5.3,3.8c-1.4,1.3-2.8,3.1-2.8,5.1s2.5,4,4.6,4.8a10.8,10.8,0,0,0,9.1-1.3H27.9a13.5,13.5,0,0,0,2.2,1.4l.4-2.7c-3.6,1.3-9.6,4.8-6.2,9.3,1.6,2.2,4.2,3.5,6.9,2.6s4.5-3,6.1-5.1l-2.8-.8c-.3,6.2,3.2,13.6,9.9,14.7l-.9-.7A12.1,12.1,0,0,0,55,128.3a22,22,0,0,0,7.2-2L59.9,125c.6,5,2,11.1,7.1,13.2a9.4,9.4,0,0,0,8.2-.4,7.4,7.4,0,0,0,3.3-5.9c.3-2.8-.5-5.6-1.3-8.2l-1.8,1.9c3.6,1.5,7-.9,8.4-4.3s0-8.5-2.4-11.8l-.5,2a9.3,9.3,0,0,0,4.2-5.7,10.2,10.2,0,0,0-1.6-6.6v1.1l.3-.7-1.1,1a16.2,16.2,0,0,0,10-8.8,10.8,10.8,0,0,0,.9-6.4,8.8,8.8,0,0,0-4.2-5.6l.3,2.4c5-4,11.1-10.3,7.9-17.2v1.6a8.6,8.6,0,0,0,1.6-7.7l-.7,1.7c3.1-1.6,4.5-5.2,5.3-8.4a84.5,84.5,0,0,0,1.2-9.8L104,43.8a10.9,10.9,0,0,0,3.9-1.5l-2-.6c2.1,3.3,5.3,5.8,8.5,7.9l-.3-2.4c-8.9,7.1,1.1,19.2,9.8,20L122.6,65c-1.5,2.8-2.3,5.9-.8,8.9s4.7,4.6,7.7,5.2l-.7-2.6c-4.1,4.3-.3,9.5,3.2,12.7l1.1-2.5a5.2,5.2,0,0,0-4.8,4,8,8,0,0,0,1.2,6.2c3.1,4.3,8.9,6.3,14,5.6l-1.1-2.7c-2,1.3-4.1,2.9-5.1,5.2s-.2,5.1,1.4,7.3v-1.6c-1.5,3.5-.6,7.2,1.5,10.2s4.7,5.4,8.1,6.3l-.9-2.2a12,12,0,0,0-.7,10.3v-1.5c-.9,1.8,1.8,4.2,3.2,4.9a8.3,8.3,0,0,0,6.9.1c4.1-1.7,5.7-6.6,4.9-10.7l-2.2,1.7a10.3,10.3,0,0,0,4.5,1.7,3.7,3.7,0,0,0,3.6-3.1l-1.8,1.1a11.8,11.8,0,0,0,10.5-2.9,19.7,19.7,0,0,0,4.6-7.2,12.7,12.7,0,0,0,.6-1.8l-2.2.9c3.7,2.6,8.7,5.3,13.4,3.7s8-7.6,4.8-12.1a17.4,17.4,0,0,0-6.7-5l-1.2,2.7a4.8,4.8,0,0,0,5.1-1.9,8.3,8.3,0,0,0,1.1-5.1l-2.8.7c3,3.9,8.7,6.4,13.4,3.8,1.8-1,3.6-3,3-5.2s-2-3-3.5-3.9a18.4,18.4,0,0,0-5.5-2.1,1.5,1.5,0,0,0-.8,2.9,15,15,0,0,1,4.6,1.7l1.9,1.3.3.4v.2a.5.5,0,0,1,0,.5c-.6,1.8-3.6,2.5-5.4,2.2a9.3,9.3,0,0,1-5.5-3.3c-.8-1.1-2.9-.9-2.8.8s-.1,4.5-2.4,4.2a1.4,1.4,0,0,0-1.7.8,1.4,1.4,0,0,0,.6,1.9c2.1,1,4.5,2.3,5.8,4.3s.4,4.5-1.4,6.2c-3.9,3.5-9.4.1-12.9-2.3a1.5,1.5,0,0,0-2.2.9,13.9,13.9,0,0,1-.6,1.9l-.7,1.6a23.9,23.9,0,0,1-1.3,2.1c-2.1,3.1-5.5,5-9.4,4.2a1.5,1.5,0,0,0-1.9,1c-.2.9-.3,1-1.1.8a8.8,8.8,0,0,1-2.6-1.2,1.5,1.5,0,0,0-2.2,1.7c.5,2.5-.4,5.7-2.7,7a5.6,5.6,0,0,1-4.2.3,4.4,4.4,0,0,1-2.6-2.4v1.5c.4-.8,0-1.4-.2-2.2a7.6,7.6,0,0,1-.3-2.1,10.7,10.7,0,0,1,1.2-4.4,1.6,1.6,0,0,0-.9-2.3c-4-1-7.8-5.4-8.2-9.4a7.3,7.3,0,0,1,.5-3c.3-.9-.4-1.5-.8-2.2a4.8,4.8,0,0,1-.8-1.8c-.3-2.5,2.3-4.3,4.1-5.6a1.5,1.5,0,0,0-1.2-2.7,12.2,12.2,0,0,1-10.2-3.7,5.4,5.4,0,0,1-1.4-3.8,2.3,2.3,0,0,1,2-2.4c1.1-.2,2.1-1.6,1-2.6s-5.9-5.6-3.1-8.4a1.5,1.5,0,0,0-.7-2.5c-2.2-.5-4.7-1.5-5.8-3.6s-.3-4.2.7-6.1a1.6,1.6,0,0,0-1.3-2.3c-3.5-.3-6.9-2.9-8.8-5.8a8.7,8.7,0,0,1-1.5-4.7,6,6,0,0,1,2.6-4.3,1.6,1.6,0,0,0-.3-2.4,24.1,24.1,0,0,1-7.4-6.8,1.6,1.6,0,0,0-2.1-.5,9.6,9.6,0,0,1-3.2,1.2,1.6,1.6,0,0,0-1.1,1.5,80.1,80.1,0,0,1-1,8.4c-.5,2.7-1.5,5.9-4,7.2a1.5,1.5,0,0,0-.7,1.7A5.4,5.4,0,0,1,95.1,65a1.8,1.8,0,0,0,0,1.6c1.2,2.5.1,5.1-1.3,7.3a27.6,27.6,0,0,1-6.1,6.2c-.8.6-.4,1.8.3,2.3a5.9,5.9,0,0,1,2.9,4.3A9.2,9.2,0,0,1,89.3,92a14.9,14.9,0,0,1-4.1,4.2,14.1,14.1,0,0,1-2.4,1.3c-.7.2-1.3.3-1.7.9a3,3,0,0,0-.2,2.3c.6,1.4,1.4,2.6,1.3,4.2a5.6,5.6,0,0,1-2.8,4c-.6.5-1.1,1.4-.6,2.1,1.8,2.5,3.3,5.7,2.4,8.8a6.4,6.4,0,0,1-1.8,2.7,3.3,3.3,0,0,1-3.2.2c-1.1-.5-2.2.8-1.9,1.8.9,2.9,2.5,7.9-.1,10.3a5.9,5.9,0,0,1-5.6.8,7.1,7.1,0,0,1-4-3.8,22.6,22.6,0,0,1-1.7-6.8,1.4,1.4,0,0,0-2.2-1.3l-.7.3c-.2.1.3-.1.1-.1h-.2l-.4.2-1.1.4a16.8,16.8,0,0,1-5.9.8,8.6,8.6,0,0,1-5.8-2.7c-.6-.6-.9-1.2-1.7-1.4a6.8,6.8,0,0,1-2-.7,9.1,9.1,0,0,1-3-2.5,12.8,12.8,0,0,1-2.5-8.6c.1-1.6-2-1.8-2.8-.7s-5.5,5.9-8,2.3,3-4.2,4.6-4.7,1.6-2.2.4-2.8a8.3,8.3,0,0,1-2.2-1.4,1.8,1.8,0,0,0-1.6,0,7.4,7.4,0,0,1-6.9.9,4.1,4.1,0,0,1-2-1.4,1.3,1.3,0,0,1,0-1.2c.5-1.4,1.9-2.5,3-3.4a16.4,16.4,0,0,1,2.2-1.4l1-.6a1.8,1.8,0,0,0,1-1.6,1.4,1.4,0,0,0-1.4-1.8,18.7,18.7,0,0,1-7.9-3.1c-2.1-1.3-4.5-3.5-4.5-6.1S14.6,77.7,17,77a12.3,12.3,0,0,1,8,1.1,14.5,14.5,0,0,1,6.9,6,1.6,1.6,0,0,0,2.4.3l1.2-1a1.4,1.4,0,0,0,.7-1.6,31.3,31.3,0,0,1-.1-11c.2-1.1-1.1-2.5-2.2-1.7s-2.7,1.7-4.3,1.2-2.8-1.8-2.8-3.1,1-1.8,1.7-2.3A17.6,17.6,0,0,1,32.4,63c1.1-.3,1.6-2.1.4-2.7-4.1-2-7.4-6.5-6.7-11.2A9.8,9.8,0,0,1,30,42.8a8.2,8.2,0,0,1,6.7-1.6l-1.1-1c.4,1.1,1.7,1.2,2.6,1.5a17.5,17.5,0,0,1,2.9,1.8,14.6,14.6,0,0,1,4.2,5.3c.7,1.2,2.3.7,2.8-.4a7.4,7.4,0,0,1,3.6-4,3.2,3.2,0,0,1,4,.7,1.5,1.5,0,0,0,2.7-.4,14.2,14.2,0,0,0,.8-4.1,5.9,5.9,0,0,1,.4-2.9A4.2,4.2,0,0,1,61,35.9c1-.6,1.9-.2,2.9-.5a1.5,1.5,0,0,0,.9-2.2,21.7,21.7,0,0,1-2.4-5.4,5.4,5.4,0,0,1,.4-4.5,6.3,6.3,0,0,1,5.5-2,6.8,6.8,0,0,1,4.5,2.9,21.1,21.1,0,0,1,3.1,6.4,1.5,1.5,0,0,0,2.5.6h.1a1.6,1.6,0,0,0,.3-1.5A6.1,6.1,0,0,1,80.6,23,13.3,13.3,0,0,1,87,20.8a1.5,1.5,0,0,0,1.5-1.5,3.6,3.6,0,0,1,.6-2c.4-.4.8-.6.8-1.2a2,2,0,0,0-.1-1.1,23,23,0,0,1-.2-2.8,8.9,8.9,0,0,1,1.8-5.6c2-2.3,5.3-3.3,8.3-3.5a10.9,10.9,0,0,1,8.8,2.7,12.8,12.8,0,0,1,3.7,7.3,1.5,1.5,0,0,0,1.1,1.1c4.5.7,9.1,1,13.5,2.4a1.7,1.7,0,0,0,1.7-.7c1.3-2.1,4.5-1.2,5.7.6s1,4.6.7,6.8a1.6,1.6,0,0,0,1.9,1.8,12.4,12.4,0,0,1,5.4.2c.8.2,1.5.6,2.2.3a13.3,13.3,0,0,1,1.2-.6,3.6,3.6,0,0,1,2.5-.1,11.3,11.3,0,0,1,4.8,3.6,12.2,12.2,0,0,1,2.7,5,1.5,1.5,0,0,0,2.9,0,28,28,0,0,1,1.6-4.6,12.7,12.7,0,0,1,1.3-1.9l.7-.5h.3a3.1,3.1,0,0,1,1.8,1.6,5.8,5.8,0,0,1,.7,3.5,11.4,11.4,0,0,1-1.3,3.5,11.2,11.2,0,0,1-1.7,2.1,1.5,1.5,0,0,0,0,2.1,2,2,0,0,0,1.6.9h1.3a2.7,2.7,0,0,1,1.7,1.1,2.6,2.6,0,0,1-.1,2.1c-.2.4-.9.1-1.5,0a1.5,1.5,0,0,0-1.9,1.4,13.6,13.6,0,0,1-.2,2c-.1,1,1.1,1.6,1.9,1.4h.7c.3-.1-.2,0,.1,0a13.4,13.4,0,0,1,2.8-.1,6.4,6.4,0,0,1,5.5,3,1.6,1.6,0,0,0,2.8-.4,3.1,3.1,0,0,1,1.8-2.7,4,4,0,0,1,3.9,1.1c1.9,1.8,1.6,5.1,1.3,7.4a1.6,1.6,0,0,0,1.9,1.9l.6-.2c.4,0-.2.1,0,0h3.5l1.3.3,1.1.3a6.1,6.1,0,0,1,3.3,4.3c.7,3,.2,6.7-2.1,8.9a9.1,9.1,0,0,1-6.4,2.4,1.6,1.6,0,0,0-1.5,1.1v.4a1.5,1.5,0,0,0,1.5,1.9c3.8-.1,8.2,1,10,4.7a1.4,1.4,0,0,0,2,.5c2.2-1.3,5.1-2.5,7.6-1.1a4,4,0,0,1,2,4.7c-.5,1.9-2.1,3.5-3.6,4.8a14.8,14.8,0,0,1-5.1,2.7C197.7,94.5,198.5,97.4,200.4,97Z" transform="translate(0 3.6)" style="fill:#365511"/></g></g></g></svg>