<svg xmlns="http://www.w3.org/2000/svg" viewBox="0 0 75.1 115.1"><g id="Layer_2" data-name="Layer 2"><g id="Layer_1-2" data-name="Layer 1"><path d="M60.4,92.7a21,21,0,0,1,3.4,5,14.4,14.4,0,0,1,1.1,6.5,9,9,0,0,1-2,5.4,6.1,6.1,0,0,1-8.2,1.5,11.6,11.6,0,0,1-2.9-2.5,30.8,30.8,0,0,1-4.2-6.4,30.6,30.6,0,0,0-3.7-6.3c-1.2-1.6-2.5-3-3.7-4.5l-2.3-2.6a10.1,10.1,0,0,1-1.6-2.6,8.5,8.5,0,0,1-.4-2.3A3.1,3.1,0,0,1,38,81h.3a9.3,9.3,0,0,1,3.3.3,35.5,35.5,0,0,1,14.2,6.9A24.5,24.5,0,0,1,60.4,92.7Z" style="fill:#b95e35"/><path d="M61.2,103.5a26.3,26.3,0,0,0-2.9-6.1h-.6c-.1,0-.3,0-.3-.1s0-.3.2-.3l.4-.2a45.8,45.8,0,0,0-5-6.6l-.5.4h-.3a.3.3,0,0,1,0-.4l.4-.5A33.4,33.4,0,0,0,46,84.5l-.6.4h-.3v-.3l.3-.4a20.2,20.2,0,0,0-7.9-2.8h.8a17.5,17.5,0,0,1,7.1,2.3l.5.2.3-.2a.5.5,0,0,1,.5.1c.1.1,0,.2-.1.4h-.1A33,33,0,0,1,53,89.3l.4-.3c.2-.1.4-.1.4.1a.2.2,0,0,1,0,.3c0,.2-.2.3-.3.4a36.6,36.6,0,0,1,5.1,6.8c.9.1,1,.1,1.2.4s-.5.3-.7.4l.3.6a50.5,50.5,0,0,1,2.4,5.3c0,.3.2.3.4.4a3.9,3.9,0,0,1,2.1,1.4,4.7,4.7,0,0,1,.5,1,1.1,1.1,0,0,1-.6,1.2v-.4a1.2,1.2,0,0,0-.2-1,2.7,2.7,0,0,0-1.7-1.3,5.7,5.7,0,0,0-2.2-.4,8.3,8.3,0,0,0-5.6,2.1,3.6,3.6,0,0,0-1.1,1.4,1.7,1.7,0,0,0,.2,1.7l.2.3a.5.5,0,0,1,0,.5.4.4,0,0,1-.5-.1,2,2,0,0,1-.7-2,3.6,3.6,0,0,1,1.1-2.1,9.5,9.5,0,0,1,7.2-2.6Z" style="fill:#8f421f"/><path d="M27.1,87a41.2,41.2,0,0,0-4.4,5.7c-.9,1.5-1.7,3-2.5,4.5a28.6,28.6,0,0,1-4.4,6.5,9.6,9.6,0,0,1-3.2,2.4,5.9,5.9,0,0,1-7.2-1.4,9.3,9.3,0,0,1-2.3-4.9,13.8,13.8,0,0,1,1-7.2,20.6,20.6,0,0,1,2.5-4,32.5,32.5,0,0,1,11.2-9.3,32.3,32.3,0,0,1,8.5-3.2,8,8,0,0,1,3.4-.3,2.7,2.7,0,0,1,1.8,1,2.8,2.8,0,0,1,.7,1.9,9,9,0,0,1-.9,3.2,23.7,23.7,0,0,1-2.3,3Z" style="fill:#b95e35"/><path d="M15.5,84.5l.4.5a.3.3,0,0,1,0,.4h-.4L15,85l-.3.3a39.4,39.4,0,0,0-3.6,4.5c-.4.5-.7,1.1-1.1,1.7l.5.2a.4.4,0,0,1,.1.3h-.2c-.2.1-.4,0-.6,0l-.3.2a34.3,34.3,0,0,0-2.7,5.8H7a9.5,9.5,0,0,1,7.2,2.6,4.1,4.1,0,0,1,1.2,2,2.4,2.4,0,0,1-.7,2.1h-.5a.6.6,0,0,1-.1-.4l.3-.3a1.7,1.7,0,0,0,.2-1.7,2.7,2.7,0,0,0-.9-1.2,8.6,8.6,0,0,0-6.8-2.4,4.3,4.3,0,0,0-2.4,1l-.5.5a1.9,1.9,0,0,0-.3,1.3c.1,0,.1.1.1.2H3.7a1,1,0,0,1-.5-1.2,3.8,3.8,0,0,1,.9-1.5,3.8,3.8,0,0,1,1.7-.8c.2-.1.4-.2.4-.4a46,46,0,0,1,2.5-5.5l.2-.4H8.5l-.3-.2c.3-.6.7-.4,1.2-.5a36.6,36.6,0,0,1,5.1-6.8l-.2-.2c-.1-.2-.3-.3-.1-.5s.3-.2.5,0l.3.2a40.6,40.6,0,0,1,6.5-5.1.3.3,0,0,0-.1-.2v-.4h.4l.4.2a.5.5,0,0,1,.4-.2,12.7,12.7,0,0,1,4.3-1.8l2.9-.5h.7l-1.9.5a16.7,16.7,0,0,0-3,.8l-2.8,1.4h-.2c.1.2.3.3.3.5a.2.2,0,0,1,0,.3h-.3l-.6-.4A27,27,0,0,0,15.5,84.5Z" style="fill:#8f421f"/><path d="M61.2,82.6a12.5,12.5,0,0,1-1.9,4.6,7.7,7.7,0,0,1-2.8,2.3,5.5,5.5,0,0,1-6.1-.7A9.3,9.3,0,0,1,48,85.6a17.4,17.4,0,0,1-1.6-5.5c-.2-2-.2-4.1-.2-6.2s.2-3.8.4-5.7.3-3.5.5-5.3.3-4.2.3-6.3a8.1,8.1,0,0,1,.1-1.6,2.1,2.1,0,0,1,1-1.8,1.1,1.1,0,0,1,1.1-.2,2,2,0,0,1,1.2.8,21.7,21.7,0,0,1,2.4,2.9,48.3,48.3,0,0,1,6.5,12.8,37.9,37.9,0,0,1,1.7,9.4A21.7,21.7,0,0,1,61.2,82.6Z" style="fill:#b95e35"/><path d="M51.9,62.3h.5a.2.2,0,0,1,.2.2c.1,0,0,.1,0,.2l-.5.3,1.5,7.3h.7a.3.3,0,0,1-.3.3l-.3.2c.3,2.2.5,4.4.8,6.6h.4c.2,0,.4-.1.4.2s-.2.2-.3.3h-.5c.1,1.2.1,2.4.2,3.5h1.4a6.4,6.4,0,0,1,4,1.5,2,2,0,0,1,.6.7.3.3,0,0,1,0,.5h-.2a4.9,4.9,0,0,0-2.1-1.4,8.3,8.3,0,0,0-5.8.1,6.8,6.8,0,0,0-3.2,2.3l-.5,1c-.2.3-.3.4-.5.3a.4.4,0,0,1-.1-.5,6.3,6.3,0,0,1,2.3-2.8,10.1,10.1,0,0,1,3.2-1.4h.4l-.3-3.4h-.7l-.2-.2a.2.2,0,0,1,.2-.2l.7-.2c-.2-2.2-.5-4.4-.8-6.5h-.4c-.1,0-.2-.2-.2-.3l.2-.2H53c-.4-2.4-.9-4.8-1.5-7.1H51c-.2,0-.4,0-.4-.2a.6.6,0,0,1,.1-.4l.6-.3a.4.4,0,0,0-.1-.3,71.3,71.3,0,0,0-2.6-8.2c0-.1-.1-.2-.1-.3s.1-.2.1-.3l.3.2.3.7a52,52,0,0,1,2.5,7.6C51.8,61.9,51.8,62.1,51.9,62.3Z" style="fill:#8f421f"/><path d="M9.9,73.2a22.7,22.7,0,0,1,2.2-5.9,42.3,42.3,0,0,1,9.2-11.4,48.2,48.2,0,0,1,7.8-5.6l1.1-.5a2,2,0,0,1,1.5-.2,1.6,1.6,0,0,1,.8.5,2.5,2.5,0,0,1,.3,2.2,14.6,14.6,0,0,1-.7,1.9c-.7,1.8-1.3,3.7-1.8,5.5a117.3,117.3,0,0,1-4.1,12.7A25.5,25.5,0,0,1,23,78.5a14.7,14.7,0,0,1-3.1,3,9,9,0,0,1-2.4,1.2,5.6,5.6,0,0,1-5.7-1.6,8.4,8.4,0,0,1-2-4.4A13.3,13.3,0,0,1,9.9,73.2Z" style="fill:#b95e35"/><path d="M26.5,57.7l.4.4c.1.2.2.4.1.5a.3.3,0,0,1-.5,0c-.2,0-.3-.1-.4-.3a58.1,58.1,0,0,0-4,6.1c.1.1.2.2.2.3s.2.2.1.3h-.7c-1.1,1.8-2.1,3.7-3.1,5.7l.6.5v.2H19l-.7-.2-1.5,3.1.4.3a8.4,8.4,0,0,1,3,3.5,4.4,4.4,0,0,1,.5,2.2v.4l-.3.2-.2-.2a.6.6,0,0,1-.1-.4,5.3,5.3,0,0,0-1.2-3.2,8.5,8.5,0,0,0-5.5-3.2,6.1,6.1,0,0,0-3.3.4H9.8c-.1-.2.1-.3.2-.4l.9-.5a7.2,7.2,0,0,1,5,.5l.5.2c.5-1.1,1-2.1,1.4-3.2l-.5-.5v-.2h.3l.6.2,3.2-5.9-.4-.3V64c.1,0,.2-.1.3,0h.3l4.1-6.2-.3-.4v-.4h.3l.4.3.3-.4a73.4,73.4,0,0,1,5.1-6l.6-.7c.1-.1.2-.2.4,0s0,.2-.1.3l-1,1.1c-1.6,1.8-3.1,3.8-4.6,5.7C26.7,57.5,26.6,57.6,26.5,57.7Z" style="fill:#8f421f"/><path d="M20.6,73.3a31.1,31.1,0,0,1,2.6-7.8,92.1,92.1,0,0,1,5.1-9.3c2-3.2,4-6.3,6.1-9.4a5.3,5.3,0,0,0,.6-1,.7.7,0,0,1,.6-.3,18.9,18.9,0,0,1,7.1.3,20.3,20.3,0,0,1,4.6,1.9.5.5,0,0,1,.4.6c.5,2.1,1,4.3,1.4,6.4.8,4.1,1.6,8.1,2.1,12.2a54.9,54.9,0,0,1,.4,8.1,28.4,28.4,0,0,1-1,6.5,15.2,15.2,0,0,1-4,6.7A14.1,14.1,0,0,1,39,91.5a19.5,19.5,0,0,1-5.4-.1,18.3,18.3,0,0,1-8.8-3.8,12.6,12.6,0,0,1-4.6-9.4A16.3,16.3,0,0,1,20.6,73.3Z" style="fill:#c76b43"/><path d="M34.4,59.6l-.2-.3a4.4,4.4,0,0,1,.2-2.3,12.1,12.1,0,0,1,2-3l.4-.4h-.3a1.4,1.4,0,0,1-1.8-1.3,3.8,3.8,0,0,1,.3-1.8,3.6,3.6,0,0,1,2.3-1.9,6.2,6.2,0,0,1,3.3-.1l1,.2a5.4,5.4,0,0,1,3,1.3A3.5,3.5,0,0,1,46,53.6a2.4,2.4,0,0,1-.6,1.1,1.2,1.2,0,0,1-1.7.2h-.5c.1.1.1.3.2.4a9,9,0,0,1,.8,3.6,4.6,4.6,0,0,1-.6,2.3l-.3.2c-.3-.3-.3-.8-.5-1.2a1.3,1.3,0,0,1-1.2.5h0a4.6,4.6,0,0,0,.6-2.6,9.9,9.9,0,0,0-.3-2.4A23,23,0,0,1,40.7,51l-.2.2A34,34,0,0,1,38.4,54a9.2,9.2,0,0,0-1.8,3,4.3,4.3,0,0,0-.3,2.5h-.1a1.6,1.6,0,0,1-.9-.9C34.9,59,34.8,59.4,34.4,59.6ZM40,49.1a5,5,0,0,0-2.8.6,3.9,3.9,0,0,0-1,.8,1.9,1.9,0,0,0-.4,1.5c0,.4.1.4.5.4a1.8,1.8,0,0,0,.9-.4l2.1-2.1Zm1.9.3.8,2.1a11.9,11.9,0,0,0,.8,1.6,1.5,1.5,0,0,0,.5.6c.5.5.7.4.9-.2a2.7,2.7,0,0,0-1-2.9A7.6,7.6,0,0,0,41.9,49.4Z" style="fill:#932121"/><path d="M71.9,20.2a12.2,12.2,0,0,1-1.5,4.2,7.7,7.7,0,0,1-1.7,1.9,5.3,5.3,0,0,1-4.2,1.1,7.4,7.4,0,0,1-2.7-1l-1-.8a4.4,4.4,0,0,1-.6-1,14.1,14.1,0,0,1-2.2-4l-.3-1.3a3.3,3.3,0,0,1,0-1.4,12,12,0,0,1,.3-2,8.6,8.6,0,0,1,3.1-5A6.3,6.3,0,0,1,70,12a9.6,9.6,0,0,1,2.1,5.8A8.6,8.6,0,0,1,71.9,20.2Z" style="fill:#b95e35"/><path d="M61.1,20.7a8.3,8.3,0,0,1,2.7-4.8A4.8,4.8,0,0,1,66,14.7a3.1,3.1,0,0,1,4,2.1,5.9,5.9,0,0,1,.1,3.5,8.5,8.5,0,0,1-2.6,4.6,6.5,6.5,0,0,1-2.3,1.3,3,3,0,0,1-3-.7,4.5,4.5,0,0,1-1.1-1.9A7.1,7.1,0,0,1,61.1,20.7Z" style="fill:#a83d2e"/><path d="M37.3,12.3a14.1,14.1,0,0,1-.6,2.2,2.7,2.7,0,0,1-1,1.6A17,17,0,0,1,33.8,18l-2.4,1.8a.9.9,0,0,1-.9.3h-.1a5.7,5.7,0,0,1-4.6-.3A4.5,4.5,0,0,1,23.2,17a8.4,8.4,0,0,1-.7-3.5,11.7,11.7,0,0,1,2-6.7,9.3,9.3,0,0,1,3-2.9,6.2,6.2,0,0,1,4.2-.8,6,6,0,0,1,4.6,3.2A8.4,8.4,0,0,1,37.3,12.3Z" style="fill:#b95e35"/><path d="M32.7,15.2a6.3,6.3,0,0,1-.9,2.4A4.4,4.4,0,0,1,30.5,19a3,3,0,0,1-2,.6,3.7,3.7,0,0,1-1.8-.8,4.3,4.3,0,0,1-.9-1A8.3,8.3,0,0,1,25,9.6a4.5,4.5,0,0,1,1-1.4,3.1,3.1,0,0,1,4.1-.4A5.5,5.5,0,0,1,32,9.9,8.9,8.9,0,0,1,32.7,15.2Z" style="fill:#a83d2e"/><path d="M40.9,49.6l-2.4-.5A18.6,18.6,0,0,1,23.9,33.4c-1-7.9,1.7-14.3,7.7-19.4a19,19,0,0,1,12.1-4,15.4,15.4,0,0,1,4.3.6h.5A18.9,18.9,0,0,1,64.2,23.5a21.2,21.2,0,0,1,1.2,8.3c-.6,7.4-4.8,14.3-12.5,17.3a20.4,20.4,0,0,1-8.5,1.1C43.2,50.1,42,49.8,40.9,49.6Z" style="fill:#c76b43"/><path d="M47.6,79.1a13.8,13.8,0,0,1-5.1,8.1,11.5,11.5,0,0,1-17.1-3.6,13.8,13.8,0,0,1-1.1-10.7,15,15,0,0,1,4-6.9,13.3,13.3,0,0,1,7.5-4.1,9.6,9.6,0,0,1,1.7,0,16.3,16.3,0,0,1,3,.7l1.2.7a14.3,14.3,0,0,1,4.8,5.8A15.9,15.9,0,0,1,47.6,79.1Z" style="fill:#ffb48c"/><path d="M33.9,82.5l-.6-1L33,81a.6.6,0,0,1,.1-.4h.5l.3.4.9.9,1.1-.6h.5c.1-.1.3,0,.4.1a.6.6,0,0,1-.1.4l-.4.4-.9.7a1,1,0,0,1,.5.6,1,1,0,0,1,.4.5.5.5,0,0,1-.1.6.4.4,0,0,1-.5-.1,4.6,4.6,0,0,1-.7-.7c-.2-.2-.3-.4-.5-.5l-.9.5-.7.2c-.1.1-.3,0-.4-.1a.7.7,0,0,1,.1-.5l.4-.4Z" style="fill:#8f421f"/><path d="M31.6,32.9l-.5-.4c-.2-.2-.3-.4-.2-.6a.6.6,0,0,1,.6-.1c.3.1.4.3.6.4s2.9-1,3.9.1a2.6,2.6,0,0,1,.2,3.4,2.7,2.7,0,0,1-3.3.9A2.9,2.9,0,0,1,31.6,32.9Z" style="fill:#590606"/><path d="M55.4,36.6h.8c.2,0,.4.1.4.3s-.1.3-.2.4l-.8.3a2.6,2.6,0,0,1-1,2.3,2.5,2.5,0,0,1-1.6.6,2.6,2.6,0,0,1-2.7-2.1,2.7,2.7,0,0,1,1.6-3.1C53.2,34.7,54.4,35.1,55.4,36.6Z" style="fill:#590606"/><path d="M39.2,37.7c.8,1,1.6,1.9,3.1,1.4l-.2-.3a1,1,0,0,1-.4-.5c-.3-.4-.1-.7.3-.8h.2a4.3,4.3,0,0,1,1.9.4c.6.3.6.7.1,1a2,2,0,0,1-.8.4,2.1,2.1,0,0,0,1.7.6,5.9,5.9,0,0,0,1.4-.6l.3-.2a.6.6,0,0,1,0,.7,2.3,2.3,0,0,1-2.6,1,2.6,2.6,0,0,1-1.1-.7l-.3-.3-1.2.4a2.2,2.2,0,0,1-2.5-1.4,2,2,0,0,1-.1-.7c0-.1.1-.3.1-.4Z" style="fill:#590606"/><path d="M48.6,25.6a6.2,6.2,0,0,0,.9-2.6v-.5a9.6,9.6,0,0,1-4.2,3.8,9.2,9.2,0,0,1-2.5-5,4.2,4.2,0,0,0-.4,1.6c0,.5.1,1,.1,1.6a5.8,5.8,0,0,1-2.6-5,7.1,7.1,0,0,1,2.1-5,6.1,6.1,0,0,1,1.6-1.2,2.6,2.6,0,0,1,2.3-.1l1.4.8a.6.6,0,0,0,.7.2,4.1,4.1,0,0,1,2.2-.2,2.4,2.4,0,0,1,1.3.7,5,5,0,0,1,1.3,1.9,7.2,7.2,0,0,1,0,5.4,5.4,5.4,0,0,1-3.5,3.4Z" style="fill:#ffb48c"/><path d="M33.2,41.2a5.9,5.9,0,0,1-.4.8,1.8,1.8,0,0,1-1.9.8,2.2,2.2,0,0,1-1.5-.6A6.1,6.1,0,0,1,26.7,37a2.5,2.5,0,0,1,.1-.8A1.9,1.9,0,0,1,29.4,35a5.4,5.4,0,0,1,3.2,2.9,4.8,4.8,0,0,1,.6,2.6Z" style="fill:#f08372"/><path d="M58.9,42.8a6.7,6.7,0,0,1-.6,1.2,6.1,6.1,0,0,1-3.5,2.8,3.3,3.3,0,0,1-1.7.2c-1.6-.1-2.2-1.3-1.8-2.8a4.4,4.4,0,0,1,1.5-2.3,5.6,5.6,0,0,1,3.7-1.7h1.1a1.9,1.9,0,0,1,1.3,2.3.1.1,0,0,1-.1.1Z" style="fill:#f08372"/><path d="M57.3,32.6a1.4,1.4,0,0,1-1.9,1.1L54,33.2l-2.3-.8a3.6,3.6,0,0,1-1.2-.8,1.4,1.4,0,0,1-.1-2,2.3,2.3,0,0,1,1.4-.7,4.5,4.5,0,0,1,2.3.3l1.9.9A2.7,2.7,0,0,1,57.3,32.6Z" style="fill:#b95e35"/><path d="M37,25.8a7.5,7.5,0,0,1,1.3.6,1.6,1.6,0,0,1,1,1.1,1.3,1.3,0,0,1-.8,1.8,2.9,2.9,0,0,1-1.6.3H33.3A1.5,1.5,0,0,1,32,27.4a2.7,2.7,0,0,1,2.3-1.5H37Z" style="fill:#b95e35"/><path d="M30.8,3h.9a6,6,0,0,1,4.6,3.2,7.7,7.7,0,0,1,1.1,4.6,19.2,19.2,0,0,1,5.9-.9h.4a15.4,15.4,0,0,1,4.3.6h.5a18.8,18.8,0,0,1,9.8,4.2,7.6,7.6,0,0,1,2.8-4A5.9,5.9,0,0,1,65,9.5a3.9,3.9,0,0,1,1.5.2A5.9,5.9,0,0,1,70,12a9.6,9.6,0,0,1,2.1,5.8,8.6,8.6,0,0,1-.2,2.4,12.2,12.2,0,0,1-1.5,4.2,7.7,7.7,0,0,1-1.7,1.9,5.2,5.2,0,0,1-3.3,1.2h-.2a20.3,20.3,0,0,1,.2,4.3c-.6,7.4-4.8,14.3-12.5,17.3a24,24,0,0,1-4.8,1.1,28.6,28.6,0,0,0,.7,2.8h.8a2,2,0,0,1,1.2.8,21.7,21.7,0,0,1,2.4,2.9,48.3,48.3,0,0,1,6.5,12.8,37.9,37.9,0,0,1,1.7,9.4,21.7,21.7,0,0,1-.2,3.7,12.5,12.5,0,0,1-1.9,4.6,10.2,10.2,0,0,1-2.2,2,27.3,27.3,0,0,1,3.3,3.5,21,21,0,0,1,3.4,5,14.4,14.4,0,0,1,1.1,6.5,9.9,9.9,0,0,1-.2,1.7v.2a.9.9,0,0,1-.5,1.1,9.5,9.5,0,0,1-1.4,2.4,6.2,6.2,0,0,1-4.8,2.5,7,7,0,0,1-3.4-1,11.6,11.6,0,0,1-2.9-2.5,30.8,30.8,0,0,1-4.2-6.4,30.6,30.6,0,0,0-3.7-6.3c-1.2-1.6-2.5-3-3.7-4.5a.1.1,0,0,0-.1-.1l-1.1.2H36.4a13.2,13.2,0,0,1-2.8-.2,19.1,19.1,0,0,1-7.7-3,28.3,28.3,0,0,0-3.2,4.3c-.9,1.5-1.7,3-2.5,4.5a28.6,28.6,0,0,1-4.4,6.5,9.6,9.6,0,0,1-3.2,2.4,6.4,6.4,0,0,1-2.7.7,6.2,6.2,0,0,1-4.5-2.1,9.1,9.1,0,0,1-1.7-2.8,1.1,1.1,0,0,1-.5-1.2.3.3,0,0,1,.1-.2c-.1-.2-.1-.5-.2-.7a13.8,13.8,0,0,1,1-7.2,20.6,20.6,0,0,1,2.5-4,30.8,30.8,0,0,1,6.6-6.4l-1.4-1.1a8.4,8.4,0,0,1-2-4.4,13.3,13.3,0,0,1,.1-3.5,22.7,22.7,0,0,1,2.2-5.9,42.3,42.3,0,0,1,9.2-11.4,48.2,48.2,0,0,1,7.8-5.6l1.1-.5a1.8,1.8,0,0,1,1-.2h.5a.9.9,0,0,1,.6.4L34,47.5A18.7,18.7,0,0,1,23.9,33.4a19.9,19.9,0,0,1,2.5-13.3l-.6-.3A4.5,4.5,0,0,1,23.2,17a8.4,8.4,0,0,1-.7-3.5,11.7,11.7,0,0,1,2-6.7,9.3,9.3,0,0,1,3-2.9A6.3,6.3,0,0,1,30.8,3m0-3A10.2,10.2,0,0,0,26,1.3a12.4,12.4,0,0,0-4,3.9,14,14,0,0,0-2.5,8.3,11.9,11.9,0,0,0,.9,4.7,8.1,8.1,0,0,0,2.1,3,22.8,22.8,0,0,0-1.6,12.5,21.6,21.6,0,0,0,7.5,13.7l-.7.3a50.2,50.2,0,0,0-8.4,6A45.4,45.4,0,0,0,9.5,65.8,21.1,21.1,0,0,0,7,72.6a11.3,11.3,0,0,0-.1,4.5,9.3,9.3,0,0,0,1.8,4.8,33.7,33.7,0,0,0-4.5,4.8,19.9,19.9,0,0,0-2.8,4.8,15.2,15.2,0,0,0-1.2,8.8h0a4.1,4.1,0,0,0,1,3.4,18.1,18.1,0,0,0,1.9,2.9,9.6,9.6,0,0,0,6.8,3.1,9.9,9.9,0,0,0,4.1-1,13.5,13.5,0,0,0,4.1-3.1,35.2,35.2,0,0,0,4.8-7.1c.8-1.6,1.6-3,2.4-4.4l1.3-1.9a23.6,23.6,0,0,0,6.5,2.1l3.3.2h2.5c.9,1.1,1.8,2.1,2.6,3.2a30,30,0,0,1,3.4,5.8,35.3,35.3,0,0,0,4.6,7,16.1,16.1,0,0,0,3.7,3.2,9.1,9.1,0,0,0,12.1-2.2,12.8,12.8,0,0,0,1.5-2.5,3.8,3.8,0,0,0,1-3.2c0-.5.1-.9.1-1.4a16,16,0,0,0-1.4-7.9,22.1,22.1,0,0,0-3.8-5.8,8.6,8.6,0,0,0-1.3-1.4l.3-.3a14.3,14.3,0,0,0,2.4-5.8,15.8,15.8,0,0,0,.3-4.4,35.1,35.1,0,0,0-1.9-10.1A48.6,48.6,0,0,0,55.7,55c-.6-.8-1.4-1.9-2.3-2.9l.6-.2A22.9,22.9,0,0,0,68.4,32V29.9a9.4,9.4,0,0,0,2.2-1.2A8.7,8.7,0,0,0,72.9,26a13.5,13.5,0,0,0,2-5.2,25.4,25.4,0,0,0,.2-3.1,12.8,12.8,0,0,0-2.7-7.6,9.5,9.5,0,0,0-5.2-3.4L65,6.5a9.2,9.2,0,0,0-5.7,2,13.4,13.4,0,0,0-2.1,2,20.9,20.9,0,0,0-8.4-2.8,19.5,19.5,0,0,0-5-.7h-.5L40,7.2a12.8,12.8,0,0,0-1.1-2.4A9.1,9.1,0,0,0,32.1.1Z" style="fill:#6a3417"/></g></g></svg>