<svg xmlns="http://www.w3.org/2000/svg" viewBox="0 0 36.1 32.8"><g id="Layer_2" data-name="Layer 2"><g id="Layer_1-2" data-name="Layer 1"><path d="M7.5,26.3a7,7,0,0,1-7-6.8A7.1,7.1,0,0,1,3,14.1a8.7,8.7,0,0,1-.5-2.2A6.5,6.5,0,0,1,8.9,5.5h0l1.5.2A7.9,7.9,0,0,1,17.9.5a8.1,8.1,0,0,1,7.6,5l1.4-.2a6.4,6.4,0,0,1,6.5,6.3,9.3,9.3,0,0,1-.4,2.3,6.9,6.9,0,0,1,2.6,5.2,7,7,0,0,1-14,.2V19a6.1,6.1,0,0,1-3.5,1.1h0A6.7,6.7,0,0,1,14.4,19v.3a6.9,6.9,0,0,1-6.9,7Z" style="fill:#4a8c32"/><path d="M18,1a7.6,7.6,0,0,1,7.2,5.1l1.7-.3H27a6,6,0,0,1,5.9,5.8,4.8,4.8,0,0,1-.6,2.4,6.5,6.5,0,0,1,2.8,5.1,6.6,6.6,0,0,1-6.4,6.5h-.1a6.5,6.5,0,0,1-6.5-6.3,7.8,7.8,0,0,1,.2-1.6,5.7,5.7,0,0,1-4.2,1.9H18a5.7,5.7,0,0,1-4.3-2,9.9,9.9,0,0,1,.2,1.7,6.4,6.4,0,0,1-6.4,6.5h0A6.4,6.4,0,0,1,3.6,14.3,9.4,9.4,0,0,1,3,11.9,5.9,5.9,0,0,1,8.9,6h0a5.2,5.2,0,0,1,1.8.3A7.4,7.4,0,0,1,17.9,1H18m0-1h-.1a8.5,8.5,0,0,0-7.8,5.1H8.9A7,7,0,0,0,2,11.9,15.5,15.5,0,0,0,2.4,14,7.6,7.6,0,0,0,0,19.5a7.4,7.4,0,0,0,7.5,7.3h0a7.4,7.4,0,0,0,7.4-7,6.8,6.8,0,0,0,3.1.8h.1a6.8,6.8,0,0,0,3.1-.8,7.4,7.4,0,0,0,7.4,6.8h.1a7.7,7.7,0,0,0,5.2-2.2,7.5,7.5,0,0,0,2.2-5.3,7.5,7.5,0,0,0-2.6-5.4,5.2,5.2,0,0,0,.4-2.1A7,7,0,0,0,27,4.8H25.8A8.7,8.7,0,0,0,18,0Z" style="fill:#2e5b1d"/><path d="M15,32.3a2.1,2.1,0,0,1-2.1-2.1V27a.9.9,0,0,0-.3-.7L9.4,23.2a1.8,1.8,0,0,1-.7-1.5,2.2,2.2,0,0,1,.6-1.5,2.3,2.3,0,0,1,1.6-.6,2,2,0,0,1,1.4.6L14,21.8a1,1,0,0,0,.8.3,1.1,1.1,0,0,0,.8-.3A.9.9,0,0,0,16,21V19.3a2.3,2.3,0,0,1,.7-1.5,2.1,2.1,0,0,1,3.6,1.5V21a1.1,1.1,0,0,0,1.2,1.1,1.2,1.2,0,0,0,.8-.4l1.6-1.6a2.3,2.3,0,0,1,1.6-.6,2.2,2.2,0,0,1,1.5.6,2,2,0,0,1,.6,1.5,2.2,2.2,0,0,1-.6,1.5l-3.1,3.1a.9.9,0,0,0-.3.7v3.2a2.2,2.2,0,0,1-.6,1.5,2,2,0,0,1-1.5.6Z" style="fill:#dfe590"/><path d="M18.1,17.7a1.6,1.6,0,0,1,1.6,1.6V21a1.7,1.7,0,0,0,1.7,1.6,2.1,2.1,0,0,0,1.2-.5l1.6-1.6a1.3,1.3,0,0,1,1.2-.5,1.5,1.5,0,0,1,1.1.4,1.5,1.5,0,0,1,0,2.3l-3,3.1a1.3,1.3,0,0,0-.5,1.1v3.2a1.6,1.6,0,0,1-1.6,1.6H15a1.6,1.6,0,0,1-1.6-1.6V27a1.6,1.6,0,0,0-.5-1.1l-3.1-3a1.6,1.6,0,0,1,0-2.3,1.7,1.7,0,0,1,1.2-.5,1.6,1.6,0,0,1,1.1.5l1.7,1.6a1.5,1.5,0,0,0,1.1.4A1.6,1.6,0,0,0,16.5,21V19.3a1.7,1.7,0,0,1,1.7-1.6h0m0-1h0a2.7,2.7,0,0,0-1.9.8,2.5,2.5,0,0,0-.8,1.8V21a.5.5,0,0,1-.2.4c-.1.2-.3.2-.5.2h-.4l-1.7-1.6a2.7,2.7,0,0,0-1.8-.8,2.6,2.6,0,0,0-1.9.8,2.7,2.7,0,0,0-.8,1.9A2.5,2.5,0,0,0,9,23.6l3.1,3a.4.4,0,0,1,.2.4v3.2A2.6,2.6,0,0,0,15,32.8h6.4a2.3,2.3,0,0,0,1.8-.8,2.5,2.5,0,0,0,.8-1.8V26.9a.4.4,0,0,1,.2-.4l3-3.1a2.5,2.5,0,0,0,.8-1.8,2.7,2.7,0,0,0-.8-1.9,2.4,2.4,0,0,0-1.8-.7,2.6,2.6,0,0,0-1.9.8l-1.7,1.6a.5.5,0,0,1-.4.2.7.7,0,0,1-.7-.6V19.3a2.6,2.6,0,0,0-2.6-2.6Z" style="fill:#96b85c"/></g></g></svg>