<svg xmlns="http://www.w3.org/2000/svg" viewBox="0 0 106.5 85.8"><g id="Layer_2" data-name="Layer 2"><g id="Layer_1-2" data-name="Layer 1"><path d="M16.8,54.9l-1-1.2c-1.7-2-3.6-3.8-4.9-6.1C8.3,43,8.2,36.8,12.7,33.1c1.7-1.4,5.4-2.9,7.3-1.1a28,28,0,0,0-4,11.1A29.5,29.5,0,0,0,16.8,54.9Zm86.4-27.3c-4.1-1.8-8.5.4-11.6,3.2a41.2,41.2,0,0,0-6.9,9.1A31.7,31.7,0,0,0,80,30.1a27,27,0,0,0-4.9-5.2,23.6,23.6,0,0,0-4.2-2.8,2.7,2.7,0,0,0-.1-1.3,2.3,2.3,0,0,0-2-1.6l-.9-1.6A21.7,21.7,0,0,0,64.7,14a21.3,21.3,0,0,0-4.1-2.8,10.2,10.2,0,0,0-3.7-1.3,6,6,0,0,0-2.1-5.6A6.2,6.2,0,0,0,50.6,3a5.9,5.9,0,0,0-6.2,6.9,9.6,9.6,0,0,0-3.7,1.3A18.6,18.6,0,0,0,36.6,14a21.7,21.7,0,0,0-3.2,3.6c-.3.5-.7,1-1,1.6a2.2,2.2,0,0,0-1.9,1.6,2.7,2.7,0,0,0-.1,1.3,23.6,23.6,0,0,0-4.2,2.8A27.8,27.8,0,0,0,22,29.1c-1.9-2-5.1-2.6-7.8-2.2A13.5,13.5,0,0,0,6,32.5,15.5,15.5,0,0,0,3.1,43.3a16.2,16.2,0,0,0,4.8,9.2,54.6,54.6,0,0,0,4.4,3.8,7,7,0,0,1,2.6,4,2.4,2.4,0,0,0-.7,4.2c2.3,1.5,4.6-.3,5.6-2.4A27.5,27.5,0,0,0,26,69.5c2.2,1.8,4.9,3.4,6.5,5.8a10.6,10.6,0,0,1,1.2,2A31.8,31.8,0,0,0,35.4,80h0l.9.9c2,1.7,7.8,2.1,21.3,1.7,1.9,0,6.6-.2,8.3-2.7a32.1,32.1,0,0,0,1.9-3.1l.9-1.6c1.7-2.4,4.4-4,6.6-5.8a27.3,27.3,0,0,0,3.4-3.4C84.4,67.8,90.6,64,93.3,59a18.6,18.6,0,0,0,2.2-9.8c-.1-3.8-.6-7.7.8-11.4s4.2-6.5,7-9.1A.7.7,0,0,0,103.2,27.6Z" style="fill:#ffa4b6"/><path d="M101.9,28a6.6,6.6,0,0,0-2.8,0,7.9,7.9,0,0,0-3,1.2.8.8,0,0,0,.4,1.4,5.1,5.1,0,0,0,3.2-.4,4.8,4.8,0,0,0,2.3-1.6C102.1,28.4,102.1,28.1,101.9,28Z" style="fill:#d4465a"/><path d="M22.9,29.7a.2.2,0,0,0-.4,0c-.2.3-.2.8-.5,1.2s-.6.6-.8,1-.1.2,0,.2a1.4,1.4,0,0,0,1.4-.8A1.6,1.6,0,0,0,22.9,29.7Z" style="fill:#d4465a"/><path d="M17.8,56.2c-.1-.1-.2.1-.1.2a6.9,6.9,0,0,1,1.6,1.8,10.9,10.9,0,0,1,.5,2.6c0,.1.2.1.2,0C21.2,59.1,19.5,56.6,17.8,56.2Z" style="fill:#d4465a"/><path d="M68.8,19.8c-1,.9-6.6,1.6-8.2,1.8s-6.2.6-9.3.5c-17.2-.1-18.7-2-18.7-2.6s0-.4-.2-.2a1.1,1.1,0,0,0,.1,1.7,9.4,9.4,0,0,0,3.7,1.1,82,82,0,0,0,8.5,1,85.6,85.6,0,0,0,17.5-.8c4.4-.6,6.6-1.3,6.8-2.4S69,19.7,68.8,19.8Z" style="fill:#d4465a"/><path d="M19.9,30.3c-3.2-1.8-7.7-.3-10,2.3a10,10,0,0,0-2.6,5.1c-.4,1.7-.6,4,.4,5.6s.4.2.4,0,0-1.6.1-2.3a18.7,18.7,0,0,1,.4-2.5A11.3,11.3,0,0,1,11,33.9a9.2,9.2,0,0,1,4-2.7,12.9,12.9,0,0,1,4.8-.4C20.1,30.9,20.2,30.4,19.9,30.3Z" style="fill:#f48096"/><path d="M17.2,57.2c-2.7-4.1-5.7-7.9-8.6-11.7-.1-.1-.3-.1-.3,0a8.5,8.5,0,0,0,2.2,4.2L14,54.5a21.3,21.3,0,0,1,3.1,4.9A3,3,0,0,1,17,62c-.6.9-1.4.5-2.2.6s-.5.2-.4.4,2.9.5,3.5-.5S18.2,58.7,17.2,57.2Z" style="fill:#f48096"/><path d="M82.3,44.2c-1.1,6.2-6.7,11.9-5.1,18.6.1.2.5.2.5-.1.6-6.5,5-11.9,5.2-18.4C82.9,43.9,82.4,43.8,82.3,44.2Z" style="fill:#f48096"/><path d="M53.2,9.7a3.9,3.9,0,0,1-2.6.3,6.7,6.7,0,0,1-2.4-.7,2.2,2.2,0,0,1-1.3-1.9c-.1-1,.5-1.6,1-2.4a.3.3,0,0,0-.3-.5,3.1,3.1,0,0,0-2.4,2.4,3.9,3.9,0,0,0,1.3,3.8,5.9,5.9,0,0,0,4.3,1.2c1.8-.1,2.5-.9,2.8-1.8S53.4,9.5,53.2,9.7Z" style="fill:#f48096"/><path d="M69.7,22A18.6,18.6,0,0,1,65,23.8a37,37,0,0,1-4.8.7c-3.2.4-6.5.4-9.8.5a65.3,65.3,0,0,1-9.8-.6c-3.2-.5-6.2-1.7-9.3-2.4-.2,0-.4.2-.2.4,1.8,1.8,4.3,2.6,6.7,3.2a37.6,37.6,0,0,0,8.1,1.1c2.6.2,5.3.1,8,.1a52.9,52.9,0,0,0,8-.8c2.8-.5,6-1.3,8.2-3.2C70.5,22.5,70.1,21.8,69.7,22Z" style="fill:#f48096"/><path d="M50.9,6c0-.4-.1-.7-.4-.8h-.2l-.5-.2a.8.8,0,0,0-.7.4.8.8,0,0,0,0,.9l.3.4c.1,0,.2,0,.2.1h.9l.3-.3a.6.6,0,0,0,.1-.4Z" style="fill:#fff"/><path d="M49.9,7.9a.6.6,0,0,0-.6.6.7.7,0,0,0,.6.7.8.8,0,0,0,.7-.7A.7.7,0,0,0,49.9,7.9Z" style="fill:#fff"/><path d="M42.7,11.6A6.3,6.3,0,0,0,39,13.3a12.6,12.6,0,0,0-2.8,3.3c-.1.3.2.5.4.3l3.2-2.6a21.8,21.8,0,0,0,3.1-2.2C43,11.9,42.9,11.6,42.7,11.6Z" style="fill:#fff"/><path d="M93.1,31.3a2.9,2.9,0,0,0-1.8,1.1,2.4,2.4,0,0,0-.6.8,3.1,3.1,0,0,0-.5,1.2.5.5,0,0,0,.2.6c.1.1.1.2.3.2a.6.6,0,0,0,.7-.3,4.6,4.6,0,0,1,.7-.7l.6-.9a4.8,4.8,0,0,0,.8-1.6C93.6,31.4,93.4,31.2,93.1,31.3Z" style="fill:#fff"/><path d="M86.1,43.7l-.4.2-.4.4a1.5,1.5,0,0,0-.2,1.1.4.4,0,0,0,.8.2,2,2,0,0,0,.4-.8,2.8,2.8,0,0,0,.1-.9C86.5,43.7,86.3,43.6,86.1,43.7Z" style="fill:#fff"/><path d="M13.7,28.1a7.3,7.3,0,0,0-3.5,1.2A5.4,5.4,0,0,0,7.7,32c-.1.2.2.4.4.3s1-.7,1.5-1.1l1.5-.9a26.8,26.8,0,0,0,2.8-1.8C14,28.3,13.9,28.1,13.7,28.1Z" style="fill:#fff"/><path d="M30.1,25.4a2.7,2.7,0,0,0-1.7,1.2c-.4.5-.9,1.3-.6,1.9a.7.7,0,0,0,.6.3c.5-.1.9-.8,1.2-1.2l1-1.5C30.7,25.7,30.5,25.3,30.1,25.4Z" style="fill:#fff"/><path d="M24.9,37.3c-1.6,2.3-2,5.1-2.1,7.9a29.9,29.9,0,0,0,.4,4.1,8,8,0,0,0,1.4,3.9c.2.3.5.2.5-.1a12,12,0,0,0-.3-3.8,25.8,25.8,0,0,1-.4-4,29.8,29.8,0,0,1,1-7.8A.3.3,0,0,0,24.9,37.3Z" style="fill:#fff"/><path d="M31,64.8h0a.4.4,0,0,0-.1-.3l-.2-.3c0-.1-.1-.1-.1-.2l-.5-.2c-.2,0-.4.1-.4.2a.5.5,0,0,0-.2.4.7.7,0,0,0,.3.6l.6.4h.4C31,65.2,31,65,31,64.8Z" style="fill:#fff"/><path d="M73.8,25.7c-.4-.3-.9-.7-1.4-.5a.5.5,0,0,0-.3.5c.1.5.6.8,1,1a1.7,1.7,0,0,0,1.2.6.4.4,0,0,0,.4-.4A2.2,2.2,0,0,0,73.8,25.7Z" style="fill:#fff"/><path d="M20.2,33.6a12.4,12.4,0,0,0-2.1,5,50.3,50.3,0,0,0-.9,5.6,36.2,36.2,0,0,0,0,5.7,16,16,0,0,0,1.4,5.3.2.2,0,0,0,.4-.1,45.1,45.1,0,0,0,0-5.2,49.6,49.6,0,0,1,.2-5.5,33.3,33.3,0,0,1,.7-5.4,29.7,29.7,0,0,0,.8-5.2A.3.3,0,0,0,20.2,33.6Z" style="fill:#f48096"/><path d="M83.4,39c-.1-.1-.1-.2-.2-.4l-.4-.3c-.2-.2-.5-.1-.6.2s-.1.2-.2.4v.4a1.9,1.9,0,0,0,.2.8.7.7,0,0,0,1.3-.2A2.8,2.8,0,0,0,83.4,39Z" style="fill:#f48096"/><path d="M63.2,51.5c-.2-.6-.6-1.2-.3-1.8s.8-.9,1.1-1.5a1.4,1.4,0,0,0-.8-1.9,4.2,4.2,0,0,0-3.1.1,9.5,9.5,0,0,0-2.1.9l1.5-1.6c.9-1.2,2.4-3.6,1.3-5.1a1.6,1.6,0,0,0-.9-.7c-.5-.1-1,.2-1.4,0s-.7-.7-1-.9a1.4,1.4,0,0,0-1-.5,2.1,2.1,0,0,0-1.9,1,13.2,13.2,0,0,0-1.9,2.9l-.9,2.2A9.5,9.5,0,0,0,50.3,39a3.4,3.4,0,0,0-2.9-1.7c-1,.1-1.7,1.2-2.8,1.3s-1-.5-1.6-.4a1.6,1.6,0,0,0-1,.8c-.3.4-.5,1-.8,1.4a1,1,0,0,1-1,.4,1.2,1.2,0,0,0-.8.2c-.9.5-.8,2-.3,2.8A24.2,24.2,0,0,0,56.9,55.3c1.9.4,4.7.4,6.1-1.4A2.6,2.6,0,0,0,63.2,51.5Z" style="fill:#ffe983"/><path d="M57.1,53.4c0-.3.1-.3-.2-.6a.8.8,0,0,1-.1-.9c.2-.9-1-.8-2-.5a2.4,2.4,0,0,0,.9-.8,4.6,4.6,0,0,0,1-1.8,1.5,1.5,0,0,0-.1-.7c-.1-.1-.2-.1-.2-.2s-.3-.4-.3-.8,0-.8-.5-1h-.7a.7.7,0,0,1-.6-.2l-.2-.3a.9.9,0,0,0-1.3-.2,3.3,3.3,0,0,0-1.2,1.9,10.9,10.9,0,0,0-.7,2.4,8.8,8.8,0,0,0-1-4.3c-.4-.5-.9-1-1.5-.9s-.8.3-1.3,0-.4-.4-.8-.5-.9.6-1.3,1-1.4.2-2.1.6.8,2.9,1.4,3.5a11.5,11.5,0,0,0,3.3,2.9,10.2,10.2,0,0,0,3.7,2,6.2,6.2,0,0,0,4.6.5C56.5,54.4,57.1,54.1,57.1,53.4Z" style="fill:#ffc74e"/><path d="M55.3,60.3c-.7-.7-.3-1.7-.4-2.5a3,3,0,0,0-.8-1.6A4.1,4.1,0,0,1,53,55a1.2,1.2,0,0,0-.6-.6,3,3,0,0,0-1.8-.8H50a.1.1,0,0,0-.1-.1c-.8-.5-1.3-1.2-2.1-1.7a2.5,2.5,0,0,0-2.2-.3l-1.4.2-1.4.3a1.7,1.7,0,0,0-1.3,1.4c0,.1.1.2.1.1a3.4,3.4,0,0,1,2.6-.1c.7.3,1.2.9,1.9,1a3.4,3.4,0,0,0,2-.2l.8-.2a18,18,0,0,0-2.1,3.5A30,30,0,0,0,45,61.5a11.6,11.6,0,0,1-2.3,3.7,7.9,7.9,0,0,0,1.4-3.7c0-1.7-1.5-3.4-.7-5.1.1-.2-.1-.3-.3-.2a2.3,2.3,0,0,0-1.2,2.1,6.6,6.6,0,0,1-.6,2,3.3,3.3,0,0,0-.7,1.3,8.8,8.8,0,0,0,.6,2.8,6.4,6.4,0,0,1-.8,3.6c-.1.1.3.7.7.1s1.7-2.2,2.2-2.7a14.6,14.6,0,0,0,2.2-3.3,32.5,32.5,0,0,1,1.8-4.3,33,33,0,0,1,1.8-3.2,2.7,2.7,0,0,0,.3,1.2c.5.8,1.4.9,2,1.5s.6,1.6,1.2,2.2a8,8,0,0,0,2.5,1.1C55.3,60.6,55.5,60.4,55.3,60.3Z" style="fill:#5b8f3b"/><path d="M47.9,46.4h-.1a20.3,20.3,0,0,0,1.4,5.9c0,.1.1.1.1,0C49.2,50.3,48.2,48.4,47.9,46.4Z" style="fill:#ffe983"/><path d="M49.1,47h0a35.5,35.5,0,0,1,.6,5.7h.1A10.2,10.2,0,0,0,49.1,47Z" style="fill:#ffe983"/><path d="M54,47.9a11.9,11.9,0,0,0-1.9,2,7.5,7.5,0,0,0-1.5,2.4h.1l1.5-2.2L54.1,48C54.2,48,54.1,47.9,54,47.9Z" style="fill:#ffe983"/><path d="M53.6,51.2A5.5,5.5,0,0,0,50.5,53h.1a9.2,9.2,0,0,1,3-1.8C53.7,51.2,53.6,51.1,53.6,51.2Z" style="fill:#ffe983"/><path d="M54.3,53.1a5.3,5.3,0,0,0-2.8.1h.1a12.2,12.2,0,0,1,2.7-.1C54.4,53.2,54.4,53.1,54.3,53.1Z" style="fill:#ffe983"/><path d="M54.2,54.1h0Z" style="fill:#ffe983"/><path d="M48.1,51.7l-1.3-2a6.7,6.7,0,0,1-.9-2.1.1.1,0,0,0-.1.1,7.3,7.3,0,0,0,2.3,4.1Z" style="fill:#ffe983"/><path d="M45.8,49.9l-.8-.7s-.1,0,0,.1a2.3,2.3,0,0,0,.7.7C45.8,50,45.9,50,45.8,49.9Z" style="fill:#ffe983"/><path d="M67.8,76.9A32.1,32.1,0,0,1,65.9,80c-1.7,2.5-6.4,2.7-8.3,2.7-13.5.4-19.3,0-21.3-1.7l-.9-.9h0a31.8,31.8,0,0,1-1.7-2.7,17.5,17.5,0,0,0,5.4,1.6C57.6,81.2,65,77.8,67.8,76.9Z" style="fill:#f48096"/><path d="M51,3a6.2,6.2,0,0,1,3.8,1.3,6,6,0,0,1,2.1,5.6,10.2,10.2,0,0,1,3.7,1.3A21.3,21.3,0,0,1,64.7,14a21.7,21.7,0,0,1,3.2,3.6l.9,1.6a2.3,2.3,0,0,1,2,1.6,2.7,2.7,0,0,1,.1,1.3,23.6,23.6,0,0,1,4.2,2.8A27,27,0,0,1,80,30.1a31.7,31.7,0,0,1,4.7,9.8,41.2,41.2,0,0,1,6.9-9.1c2.3-2.1,5.3-3.8,8.4-3.8a8.7,8.7,0,0,1,3.2.6.7.7,0,0,1,.1,1.1c-2.8,2.6-5.6,5.5-7,9.1s-.9,7.6-.8,11.4A18.6,18.6,0,0,1,93.3,59c-2.2,4.2-7,7.5-11.7,7.5a9.2,9.2,0,0,1-2.9-.4,27.3,27.3,0,0,1-3.4,3.4c-2.2,1.8-4.9,3.4-6.6,5.8l-.9,1.6A32.1,32.1,0,0,1,65.9,80c-1.7,2.5-6.4,2.7-8.3,2.7H49.7c-8,0-11.8-.5-13.4-1.8l-.9-.9h0a31.8,31.8,0,0,1-1.7-2.7,10.6,10.6,0,0,0-1.2-2c-1.6-2.4-4.3-4-6.5-5.8a27.5,27.5,0,0,1-6.2-7.4c-.8,1.6-2.2,3-3.9,3a3.2,3.2,0,0,1-1.7-.6,2.4,2.4,0,0,1,.7-4.2,7,7,0,0,0-2.6-4,54.6,54.6,0,0,1-4.4-3.8,16.2,16.2,0,0,1-4.8-9.2A15.5,15.5,0,0,1,6,32.5a13.5,13.5,0,0,1,8.2-5.6H16a8.2,8.2,0,0,1,6,2.3,27.8,27.8,0,0,1,4.2-4.2,23.6,23.6,0,0,1,4.2-2.8,2.7,2.7,0,0,1,.1-1.3,2.2,2.2,0,0,1,1.9-1.6c.3-.6.7-1.1,1-1.6A21.7,21.7,0,0,1,36.6,14a18.6,18.6,0,0,1,4.1-2.8,9.6,9.6,0,0,1,3.7-1.3,5.8,5.8,0,0,1,2.1-5.6A6.2,6.2,0,0,1,50.3,3H51M16.8,54.9A29.5,29.5,0,0,1,16,43.1,28,28,0,0,1,20,32a3.1,3.1,0,0,0-2.3-.8,8.9,8.9,0,0,0-5,1.9C8.2,36.8,8.3,43,10.9,47.6c1.3,2.3,3.2,4.1,4.9,6.1l1,1.2M51,0h-.7a9,9,0,0,0-5.7,2,8.3,8.3,0,0,0-3.2,5.6l-2,.9a18.7,18.7,0,0,0-4.8,3.3A21.4,21.4,0,0,0,30.9,16l-.4.6a5.6,5.6,0,0,0-2.9,3.3.8.8,0,0,1-.1.4,29.5,29.5,0,0,0-3.2,2.2,33.2,33.2,0,0,0-2.8,2.6A12.4,12.4,0,0,0,16,23.8l-2.3.2A15.7,15.7,0,0,0,3.6,30.8,18.3,18.3,0,0,0,.1,43.6,19.5,19.5,0,0,0,5.7,54.5a36.5,36.5,0,0,0,3,2.7l1.6,1.4.9.9a4.3,4.3,0,0,0-.9,2.2A5.1,5.1,0,0,0,12.6,67a5.7,5.7,0,0,0,3.3,1.1A6.9,6.9,0,0,0,19.4,67a26.7,26.7,0,0,0,4.7,4.8,15.6,15.6,0,0,0,2,1.6,20.3,20.3,0,0,1,4,3.6l1,1.8h.1a22.6,22.6,0,0,0,1.6,2.6v.3a11.4,11.4,0,0,0,1.5,1.6c2.3,1.8,6.3,2.4,15.3,2.4h8c3.5-.1,8.3-.6,10.6-3.9a22.9,22.9,0,0,0,1.8-2.9l.3-.6.8-1.3a17.8,17.8,0,0,1,4-3.6l2-1.6a19.5,19.5,0,0,0,2.6-2.4h1.8c5.5,0,11.5-3.7,14.4-9.1a22.7,22.7,0,0,0,2.5-11.3,17.7,17.7,0,0,0-.1-2.3c-.1-2.8-.2-5.5.7-7.9s3.7-5.7,6.3-8a3.7,3.7,0,0,0-1-6A11.2,11.2,0,0,0,100,24a15.5,15.5,0,0,0-10.4,4.6,38,38,0,0,0-4.2,4.7,27.6,27.6,0,0,0-3-5A33.7,33.7,0,0,0,77,22.5a29.5,29.5,0,0,0-3.2-2.2c-.1-.2-.1-.3-.2-.4a5.5,5.5,0,0,0-2.8-3.3l-.4-.6a21.4,21.4,0,0,0-3.7-4.2,18.7,18.7,0,0,0-4.8-3.3l-2-.9A8.7,8.7,0,0,0,56.7,2,9.2,9.2,0,0,0,51,0ZM12.8,44.6c-1.1-3.1-1-6.8,1.8-9.1a1,1,0,0,1,.5-.4A33.5,33.5,0,0,0,13,42.6c-.1.7-.1,1.3-.2,2Z" style="fill:#e75c78"/></g></g></svg>