<svg xmlns="http://www.w3.org/2000/svg" viewBox="0 0 81.8 129"><g id="Layer_2" data-name="Layer 2"><g id="Layer_1-2" data-name="Layer 1"><path d="M57,18.7a2.6,2.6,0,0,1,1.7.5L59,19h0l1.3.2h.1l1.4.2a1.6,1.6,0,0,1,1,.5.8.8,0,0,1,.7.4,1.6,1.6,0,0,1,.4.7,4.1,4.1,0,0,1,.4,2.2c0,.4-.1.8-.1,1.2a5,5,0,0,0,.2,1.7,6.2,6.2,0,0,1,.2,1.9,1.7,1.7,0,0,1-.1.7h-.2a.3.3,0,0,1-.3-.3v-.7c-.1-.5-.8-.9-1-1.3a2.1,2.1,0,0,1-.4-.6,6.7,6.7,0,0,1-1.8,2.8c-.9.9-2.2,1.9-2.5,3.3a.2.2,0,0,1-.2.2l-.3-.2c-.2-1.9,1.2-3.4,1.3-5.3A10.3,10.3,0,0,0,59,25c-.2,1.4-.7,2.7-1,4s-1.1,3.7-1.6,5.5-1.6,5.8-2.3,8.8a20,20,0,0,1,2.8-3.7c1.1-2.9,1-6.9,3.9-8.9h.1c.1,0,.3.1.2.3l-.4,1.3A10,10,0,0,1,63,30l1.8-1a6.6,6.6,0,0,1,1-3.8h.1c.1,0,.2.1.2.3a4.5,4.5,0,0,0,.1,1.1,5.8,5.8,0,0,1,3.4-3.6h.1c.1,0,.2.2.2.3a4.9,4.9,0,0,0-.4,1.1c1.6-2.1,4.7-2.1,7-3h.1c.2,0,.3.2.2.3l-1.5,1.6a20.2,20.2,0,0,0,3.2-1.8h.1a.2.2,0,0,1,.2.2c-.9,1.6-.8,3.4-1.3,5a7.1,7.1,0,0,1-2.1,3l1-.4h0c.2,0,.3.2.2.3a4.6,4.6,0,0,1-2.3,3.1h.8c.2,0,.2.3.1.4a6.4,6.4,0,0,1-3.9,1.8h-.8a3.5,3.5,0,0,1-1.3-.5c-1.3,1.9-2.7,3.6-4.9,4.4H65c.2.1.3.3.1.4A9.9,9.9,0,0,1,61.6,41H60.5a14.5,14.5,0,0,1-3.5-.7l-1.6,2.3a22.7,22.7,0,0,0-1.9,3.4c-.3,1.3-.6,2.6-.8,3.9a11.3,11.3,0,0,1,4.9-2.1h0a.3.3,0,0,1,.2.4,3.9,3.9,0,0,0-.8,1,5.7,5.7,0,0,1,2.2-.4l5.5-.2h.1a.2.2,0,0,1,.1.4c-2.1,2.2-3.3,5.1-5.7,7.1a12.7,12.7,0,0,1-3.1,2l-1.2.4-2.2.5,1.3.5a.2.2,0,0,1,.1.3,2.8,2.8,0,0,1-1.9.7h-.4v1.8l-1.4.4h-.9v-3a10.6,10.6,0,0,0-2.3-.5h-.4a14.6,14.6,0,0,0-2.7,3.8l-.3.4h-.6l.4-.9a17.8,17.8,0,0,1,2.8-3.8l.4-1a11.9,11.9,0,0,0,.8-2c.3-.9.5-1.8.8-2.8h.1l-1.6-1-2.5-1.6-.7-.6-1.5.8h.7l1.3-.2h0c.1,0,.2.1.1.2a7,7,0,0,1-2.6,2c.1.4.1.7.2,1.1l.3,3.9a48.6,48.6,0,0,1,0,5.4c0,.2-.1.3-.1.5H41V62.7h0a7.8,7.8,0,0,0-1-1.5,17.9,17.9,0,0,0-1.3-1.4c-.1-.1-.1-.3.1-.3h2.3a9.2,9.2,0,0,1-.1-1.6c0-.5-.1-1-.1-1.4l-.2-.5a13,13,0,0,0-.8-1.7l-.5-.7c-2,.4-4.2.4-6.2.7a19.6,19.6,0,0,0-1.3,4.1c-.3,1.3-.5,2.6-.7,3.9a.9.9,0,0,1,.1.5l-1.6-.4c0-.2-.1-.5-.1-.7h-.1a37.1,37.1,0,0,1-4.1-2.8h-.5c-1.2,0-2.4.7-3.5.8h-.9a4.8,4.8,0,0,1-3.2-1.1c-.2-.1-.2-.5.1-.5l1.6-.4a8.7,8.7,0,0,1-5.2-3.4c-.1-.2.1-.4.3-.4h.1a4.1,4.1,0,0,0,1.6.3,8.8,8.8,0,0,1-3-7.3c0-.2.2-.3.4-.3h.2c1.6,1.4,4.1.7,6,1.4A10.1,10.1,0,0,1,23.8,52a2.2,2.2,0,0,0,.1-.8.4.4,0,0,1,.4-.4.2.2,0,0,1,.2.2,4.1,4.1,0,0,1,1.1,1.2L27,52a.4.4,0,0,1,.1-.3h.2L27,50.3a8.6,8.6,0,0,1-2.7-2,.3.3,0,0,1,.2-.5h1.8a6.4,6.4,0,0,1-2.8-2.6,7.1,7.1,0,0,1-.9-4.1.2.2,0,0,1,.2-.2c.1,0,.1,0,.1.1a5.3,5.3,0,0,0,1.6.4l-2.1-7.3a8.3,8.3,0,0,1-.4-1.5c-.1-.2,0-.3.1-.3l.3.2.6,1.4c.7,2,1.8,5.2,2.1,6.2a5.1,5.1,0,0,1,2.5-1.6h.2c.1,0,.2,0,.1.2a13.4,13.4,0,0,0-1.3,2.7h0l2,.4a11.2,11.2,0,0,1,4.3,2.3,6.1,6.1,0,0,0,.1-1.4l.3-.2h.1l1.3,1.2a25.5,25.5,0,0,1,2.4-3.1h.2c.2,0,.4.2.3.3a4.1,4.1,0,0,0-.3,1.6,5.7,5.7,0,0,1,2.1-2,4.1,4.1,0,0,1,.1-1.1,18.4,18.4,0,0,1,.5-4.1h.3a23.7,23.7,0,0,0-.3,4.6v.3l.6-.3a13.6,13.6,0,0,0,2.8-1.1,4.9,4.9,0,0,1,.4-1.1c0-.1.1-.2.3-.2s.2,0,.2.1l.3.6,1-.6A6.2,6.2,0,0,1,46.8,35h.3a.3.3,0,0,1,.3.3,4.9,4.9,0,0,0,.8,2.9l.5-.6h.1a.2.2,0,0,1,.2.2,6.8,6.8,0,0,1-.2,1.4l.6,1.1a6.8,6.8,0,0,1,.8,5l.5-.3h.2a.3.3,0,0,1,.3.3,18.3,18.3,0,0,1-.7,4.6l.8-.7c.3-2,.8-4.1,1.3-6.1l1.2-4.7-.3-1.2a9.5,9.5,0,0,0-.9-2.1c0-.1.1-.3.2-.3h.1a3.2,3.2,0,0,0,1.4.3h.5a10.5,10.5,0,0,1,.5-1.9l1.5-4.9.6-2a1.9,1.9,0,0,0,.2-.7l-.5.6a9.5,9.5,0,0,0-1.2,1.6l-.3.5a10.1,10.1,0,0,0-.2,3c.1.2-.1.3-.2.3s-.2,0-.2-.1-1-2.7-1-4.1-.2-2.2-.3-3.3l-.8.7c-.9.5-1.8.9-2.2,2h-.1l-.2-.2c-.3-.7.2-1.5.6-2s1.4-1.3,1.6-2.3.8-3,2.4-3h.2c.1-.1.2-.1.2-.2a4.1,4.1,0,0,1,1.6-.3M28.6,50.9h0m1.6,1.5H29l1.5,6.2c.2.8.3,1.6.5,2.3a19.4,19.4,0,0,1,.2-2.4,20.6,20.6,0,0,1,1.5-4.8,7.7,7.7,0,0,0-.2-1.5h-.3l-2,.2m-.8,8.4c-.1-.7-.3-1.4-.4-2L28.4,56a17,17,0,0,0-1-1.4,8,8,0,0,0-1.3-1.3,6.5,6.5,0,0,1-.3,5.1,13.3,13.3,0,0,0,3.6,2.4M40.8,55a9.9,9.9,0,0,1-.2-1.7l-.7.2.5.7.4.8M57,15.7h0a6,6,0,0,0-3,.7h0c-2.9.6-3.8,3.6-4.2,4.8v.2l-.4.5-.7.8c-1.8,2.3-1.5,4.2-1.1,5.1a3.3,3.3,0,0,0,3,2H51a6,6,0,0,0,.6,2.2,3.4,3.4,0,0,0-1.5,1.4c-.1,0-.1.1-.2.2a2.1,2.1,0,0,0-.4-.6,3.5,3.5,0,0,0-2.4-1A3.6,3.6,0,0,0,44.5,33l-1,1.5h-.3a2.7,2.7,0,0,0-.7-1.3,3.2,3.2,0,0,0-2.4-1.1,3,3,0,0,0-3,2.4,15.4,15.4,0,0,0-.5,3.1,3,3,0,0,0-1.7,1l-.9,1h-.7a3.2,3.2,0,0,0-1.4.3l-1-.4a3.3,3.3,0,0,0-.3-2.4,3.1,3.1,0,0,0-2.8-1.6H26.7c-.3-.9-.6-1.9-.9-2.7a8.9,8.9,0,0,0-.7-1.6,3.2,3.2,0,0,0-6,2.2c.1.4.2.9.4,1.5l1.1,3.8a2.9,2.9,0,0,0-1,2.2,10.4,10.4,0,0,0,.6,4.3,11.8,11.8,0,0,0-3.1-.5l-1.7-.2a3.1,3.1,0,0,0-2.2-.9,3.4,3.4,0,0,0-3.4,3.1A13,13,0,0,0,11,53a3.4,3.4,0,0,0,.3,3.1,9.7,9.7,0,0,0,2.9,2.8,3,3,0,0,0,1.2,2.2,8.2,8.2,0,0,0,5.1,1.7h1.3l2-.5.7-.2,2.6,1.8a2.7,2.7,0,0,0,1.8,1.5l1.8.4h.6a2.9,2.9,0,0,0,2.1-.9,3,3,0,0,0,.9-2.6c.1-1,.3-2.2.5-3.3s.3-1.3.5-1.9h1.8a4.1,4.1,0,0,0-1.2,1.4,3.2,3.2,0,0,0,.5,3.4l.9.9.4.4.3.5h0a2.7,2.7,0,0,0,.8,2.3,3.1,3.1,0,0,0,2.2.9h3.1a3.1,3.1,0,0,0,2.4-1.6v-.4l.2-.3.7.9a3.3,3.3,0,0,0,1.9.6h.6l.9-.2,1.5-.4A3,3,0,0,0,54.7,63a4.2,4.2,0,0,0,1.4-.9l.7-.9.5-.2a15.1,15.1,0,0,0,3.9-2.5,24,24,0,0,0,3.7-4.4,13,13,0,0,1,2.2-2.8,3.3,3.3,0,0,0,.7-3.5,3.2,3.2,0,0,0-3-2.1H59.9a3.3,3.3,0,0,0-2.3-1h-.1l.4-.5.4-.6a7.8,7.8,0,0,0,2.2.3l1.8-.2A12.1,12.1,0,0,0,67,41.2a3.6,3.6,0,0,0,1.1-1.6,11.5,11.5,0,0,0,2.2-2.2h1a8.7,8.7,0,0,0,6-2.7,2.9,2.9,0,0,0,.9-2A7.2,7.2,0,0,0,79.5,30a1.7,1.7,0,0,0,.1-1,7.7,7.7,0,0,0,.7-1.6,12.9,12.9,0,0,0,.6-2.5,4.8,4.8,0,0,1,.5-1.9,3.1,3.1,0,0,0-.1-3.1,3,3,0,0,0-2.7-1.6h-.8l-1.2-.2-1.1.2-1.9.5a29.6,29.6,0,0,0-3.3,1h-.6a2.7,2.7,0,0,0-1.2.3l-1.4.7c-.1-.4-.3-.7-.4-1.1a15.1,15.1,0,0,0-.9-1.4,5.2,5.2,0,0,0-1.7-1.2,7.5,7.5,0,0,0-1.8-.7l-1.5-.2H59.1a7.6,7.6,0,0,0-2.1-.3Z" style="fill:#2e5b1d"/><path d="M39.6,127.5l-6.5-.2a34.9,34.9,0,0,1-9.4-1.7c-2.9-1-4.9-2.6-5.9-4.7a8.5,8.5,0,0,1-.8-4.5c0-1.7.1-3.5.2-4.8s.2-3.1.4-4.7c-1.6-2.2-1.2-5.4-.9-8q.2-1.2.3-2.1a16.4,16.4,0,0,0-.8-5.7c-.5-1.1-1.1-2.1-1.7-3.2L13.4,86a16.1,16.1,0,0,1-1.2-12.5c1-3.4,3.9-6.8,7.8-6.8h1.6a12,12,0,0,1,3.7,2A33.3,33.3,0,0,0,22.9,61a1.9,1.9,0,0,1,0-1.7,1.6,1.6,0,0,1,1.1-1,36,36,0,0,1,12.1-2.4h8.5a27.7,27.7,0,0,1,7,.7h1.2c1.4,0,6,.1,7.3,1.1a2.8,2.8,0,0,1,1,1.7,3.9,3.9,0,0,1-1.5,2.9h-.1L58,63.9l-1.6,1.6a11.1,11.1,0,0,0-2.5,6.9v.4c.1.9.2,1.8.4,2.8a11.7,11.7,0,0,0,.5,2,15.8,15.8,0,0,1,.8,3.3c.5,1.4.9,2.9,1.4,4.3s1.7,5.2,2.3,7.8a107.2,107.2,0,0,1,2.8,18.6c.1,1.3.2,3.1.2,4.8a9.6,9.6,0,0,1-.8,4.5c-1,2.1-3,3.7-5.9,4.7a34.9,34.9,0,0,1-9.4,1.7ZM20.9,75.2a4.9,4.9,0,0,0-.5,2,9.2,9.2,0,0,0,.4,3.5,28.4,28.4,0,0,0,1.3,3.8,1.9,1.9,0,0,0,.2.7c.8-2.6,1.7-5.2,2.3-7.9l-1.2-.8-.2-.2a8,8,0,0,0-2.3-1.1Z" style="fill:#ffeb81"/><path d="M40.6,57.4h2.5a39.8,39.8,0,0,1,8.4.8h1.3c2.2,0,5.7.3,6.4.8s-.1,1.8-.8,2.5-2.2,2-3.2,3.1a13.3,13.3,0,0,0-2.8,7.9v.4a29.1,29.1,0,0,0,.4,3.1c.2.7.3,1.4.5,2.2a31,31,0,0,1,.9,3.1h0c1.2,4,2.6,8.1,3.6,12.2a103.8,103.8,0,0,1,2.8,18.3c.1,1.6.2,3.2.2,4.7a8.7,8.7,0,0,1-.7,3.9c-.9,2-3,3.2-5,3.9a31,31,0,0,1-9,1.6l-6.5.2-6.4-.2a30.4,30.4,0,0,1-9-1.6,8.7,8.7,0,0,1-5.1-3.9,8.6,8.6,0,0,1-.6-3.9c0-1.5,0-3.1.1-4.7s.3-3.5.5-5.2c-2.1-2.4-.7-6.9-.6-9.7a19.2,19.2,0,0,0-.9-6.3,52.9,52.9,0,0,0-2.9-5.2A14.9,14.9,0,0,1,13.6,74c.9-2.9,3.3-5.9,6.4-5.9l1.2.2A9.1,9.1,0,0,1,25,70.5L26.9,72c.3-4-1-7.8-2.6-11.6-.2-.6.1-.7.2-.7a33.4,33.4,0,0,1,11.7-2.3h4.4M22.3,90.3c1.3-4.6,3-9,4-13.6l-2.1-1.5c-.9-.5-2.2-1.5-3.3-1.5h-.2c-1.4.2-1.7,2.3-1.8,3.4a12.9,12.9,0,0,0,.4,3.9c.7,2.6,1.9,5.1,2.6,7.7.1.5.3,1,.4,1.6M40.6,54.4H36.1a37,37,0,0,0-12.7,2.5,3.1,3.1,0,0,0-1.9,1.8,3.6,3.6,0,0,0,0,2.9c.6,1.4,1.1,2.7,1.6,4.1l-1.2-.3a12.5,12.5,0,0,0-1.9-.3c-4.7,0-8,4-9.3,8a17.6,17.6,0,0,0,1.4,13.6,11.8,11.8,0,0,0,1.1,1.9,29.8,29.8,0,0,1,1.6,3,15.3,15.3,0,0,1,.7,5.1c-.1.5-.2,1.3-.3,2-.3,2.6-.7,5.9.8,8.6-.1,1.4-.3,2.8-.3,4.2s-.2,3.1-.2,4.9a10.6,10.6,0,0,0,.9,5.2,11.2,11.2,0,0,0,6.8,5.4,33.4,33.4,0,0,0,9.7,1.8c1.6.2,5.6.2,6.7.2s5.2,0,6.8-.2a33.4,33.4,0,0,0,9.7-1.8c3.3-1.1,5.6-3,6.7-5.4a10.8,10.8,0,0,0,1-5.2c0-1.8-.1-3.5-.2-4.9a109.4,109.4,0,0,0-2.8-18.8c-.7-2.7-1.6-5.4-2.4-8s-.9-2.7-1.3-4.1a19.4,19.4,0,0,0-.9-3.4,16.2,16.2,0,0,1-.4-1.9,23.4,23.4,0,0,1-.4-2.6v-.2a10.1,10.1,0,0,1,2.1-6L59,65a12.1,12.1,0,0,0,1.6-1.6h.1c.7-.8,2-2.2,1.9-4.1A4,4,0,0,0,61,56.5c-1.2-.9-3.9-1.4-8.2-1.4H51.7a29.5,29.5,0,0,0-7.1-.7h-4ZM22.1,76.1Zm.1,4.2h0a7.9,7.9,0,0,1-.3-2.9h0l.5.3h.2l.3.3a20.2,20.2,0,0,1-.7,2.3Z" style="fill:#ffaa5a"/><path d="M22.2,93.5h0a59.3,59.3,0,0,1,0,7.3,8.9,8.9,0,0,1-2.1,5.7c-.2.1,0,.4.1.3a7.4,7.4,0,0,0,3-5.3C23.6,98.8,22.6,96.2,22.2,93.5Z" style="fill:#ffc74e"/><path d="M28.8,72.4c0-.1-.1-.1-.1,0s-.3,1.6-.5,2.4-.6,1.5-.8,2.3a.2.2,0,0,0,.2.2C29.1,76.4,29.5,73.9,28.8,72.4Z" style="fill:#ffc74e"/><path d="M58.5,59a20.9,20.9,0,0,0-3.6-.4H49.5l-2.7-.2-4.6-.2H41c-3.8.1-6.8.2-9.1.5H30.5l-1.5.3a15.5,15.5,0,0,0-3.8.9c-.3.2-.4.7,0,.8A35.1,35.1,0,0,0,28.4,62l1.3.4,1.6.4,1.4.3a45.7,45.7,0,0,0,8.3.7h2.8a37.2,37.2,0,0,0,5.7-.8h.9l1.4-.4,2.9-.9a13.4,13.4,0,0,0,3.9-1.6C59,59.7,58.9,59.2,58.5,59Z" style="fill:#ffc74e"/><path d="M78.5,21.3a20.2,20.2,0,0,1-3.2,1.8l1.5-1.6c.1-.1-.1-.3-.3-.3-2.3.9-5.4.9-7,3a4.9,4.9,0,0,1,.4-1.1c0-.1-.2-.3-.3-.2a5.8,5.8,0,0,0-3.4,3.6,4.5,4.5,0,0,1-.1-1.1c0-.2-.2-.4-.3-.2a6.1,6.1,0,0,0-1,4.1,2.3,2.3,0,0,0,1,2.1,4.7,4.7,0,0,0,1.7,0,3.1,3.1,0,0,0,0,1.7,7.3,7.3,0,0,1,.7-1.7,2.6,2.6,0,0,0,2.3,3c1.7.4,3.5-.6,4.7-1.7s.1-.4-.1-.4h-.8a4.6,4.6,0,0,0,2.3-3.1c.1-.2-.1-.3-.2-.2l-1,.4a7.1,7.1,0,0,0,2.1-3c.5-1.6.4-3.4,1.3-5C78.8,21.4,78.6,21.2,78.5,21.3Z" style="fill:#6c9433"/><path d="M68.9,26.7Z" style="fill:#281818"/><path d="M75.6,23.4l-1,.9v-.5a1.3,1.3,0,0,0,.1-.6h-.1a2.4,2.4,0,0,0-.3.9c0,.1-.1.4-.1.6l-2,1.4a7.5,7.5,0,0,0,.4-1.6c.1-.1-.1-.1-.1-.1a3,3,0,0,0-.6,2l-.8.5L69.8,28c0-.2.1-.4.1-.6s.5-1.1.7-1.7-.1-.2-.2-.1a5.4,5.4,0,0,0-1.1,2.8,4.9,4.9,0,0,0-1.1,2c-.1.1.1.1.1,0l1.4-1.6a3.8,3.8,0,0,0,2.7.9c.1,0,.1-.1,0-.2L71,29l-1-.4L71.9,27a3,3,0,0,0,2.4.4c.1-.1.1-.2,0-.2a2.2,2.2,0,0,0-1.1-.2l-1-.2h.2c.7-.6,1.5-1.1,2.2-1.8a.1.1,0,0,1,.1.1h1c.1,0,.1-.1,0-.1h-.8a4.4,4.4,0,0,0,.8-1.1Z" style="fill:#5b8f3b"/><path d="M72,29.5c-2.3,3-3.9,7.5-7.7,8.8H65c.2.1.3.3.1.4A9.9,9.9,0,0,1,61.6,41a10.3,10.3,0,0,1-4.6-.6l-1.6,2.3a22.7,22.7,0,0,0-1.9,3.4,58.7,58.7,0,0,0-1.3,8.4c0,.1-.1.2-.1.4l1.9-.7c.2-.1.4.1.2.3l-1.6,2.3a6.1,6.1,0,0,0-.7,1.4v.3c0,.7-.1,2.3-.1,3.9l-1.4.4h-.9V58.3c-.1-.8-.1-1.5-.2-1.9a15.5,15.5,0,0,0-.7-3.1l-1.7-1.1-2.5-1.6a5.6,5.6,0,0,1-2.3-4.3.2.2,0,0,1,.4-.1,5.3,5.3,0,0,0,1.3,1.3c-1.6-3-1-6.8,0-9.8,0-.2.4-.3.5-.1a5.7,5.7,0,0,0,1.2,1.8A5.8,5.8,0,0,1,46.8,35a.3.3,0,0,1,.6.2c-.2,1.9,1.2,3.5,2,5a6.8,6.8,0,0,1,.8,5l.5-.3a.3.3,0,0,1,.5.3A19.1,19.1,0,0,1,49.3,53a20.9,20.9,0,0,1,1.1,4.3v.4c.1-1.6.2-3.2.4-4.9A65,65,0,0,1,52.6,43l1.2-4.7-.3-1.2a9.5,9.5,0,0,0-.9-2.1.2.2,0,0,1,.3-.3,4,4,0,0,0,1.9.3,10.5,10.5,0,0,1,.5-1.9l1.5-4.9.6-2a1.9,1.9,0,0,0,.2-.7l-.5.6a9.5,9.5,0,0,0-1.2,1.6l-.3.5a10.1,10.1,0,0,0-.2,3c.1.2-.2.4-.4.2s-1-2.7-1-4.1-.2-2.2-.3-3.3l-.8.7c-.9.5-1.8.9-2.2,2s-.3.1-.3-.1.2-1.5.6-2,1.4-1.3,1.6-2.3.8-3,2.4-3h.2c.1-.1.2-.1.2-.2a3.5,3.5,0,0,1,3.3.2L59,19l1.3.2h.1l1.4.2a1.6,1.6,0,0,1,1,.5.8.8,0,0,1,.7.4,1.6,1.6,0,0,1,.4.7,4.1,4.1,0,0,1,.4,2.2c0,.4-.1.8-.1,1.2a5,5,0,0,0,.2,1.7,6.2,6.2,0,0,1,.2,1.9,1.7,1.7,0,0,1-.1.7c-.1.3-.5.1-.5-.2v-.7c-.1-.5-.8-.9-1-1.3a2.1,2.1,0,0,1-.4-.6,6.7,6.7,0,0,1-1.8,2.8c-.9.9-2.2,1.9-2.5,3.3a.3.3,0,0,1-.5,0c-.2-1.9,1.2-3.4,1.3-5.3A10.3,10.3,0,0,0,59,25c-.2,1.4-.7,2.7-1,4s-1.1,3.7-1.6,5.5-1.6,5.8-2.3,8.8a20,20,0,0,1,2.8-3.7c1.1-2.9,1-6.9,3.9-8.9a.2.2,0,0,1,.3.3l-.4,1.3A10,10,0,0,1,63,30a8.8,8.8,0,0,1,3.9-1.5c.1,0,.2.2.1.4a2.7,2.7,0,0,0-.8,1c1.5-1.1,3.8-.4,5.5-.8S72.2,29.3,72,29.5Z" style="fill:#507125"/><path d="M55,19.5a5.4,5.4,0,0,0-1.2,4.4c0,.1.2.1.2-.1a7.5,7.5,0,0,1,.2-2.1,6.7,6.7,0,0,1,.9-2.1C55.2,19.5,55.1,19.4,55,19.5Z" style="fill:#507125"/><path d="M59.1,20.1a5,5,0,0,1-.9,4.7c-.9,1-2.3,1.7-2.5,3.1s0,.1.1,0,2.5-2.1,3.4-3.5a4.3,4.3,0,0,0,.1-4.4C59.3,19.9,59.1,20,59.1,20.1Z" style="fill:#376018"/><path d="M73.7,9.2a1.6,1.6,0,0,0-.5-1.1c-.2-.2-.5-.4-.6-.7a3.3,3.3,0,0,1,0-1,1.2,1.2,0,0,0-1.7-1.3c-1.2.4-1.2,1.9-1.8,2.8a4.7,4.7,0,0,1-1.3,1.5,5.4,5.4,0,0,0-.5-2.1c-.4-.7-1.1-1.7-.3-2.5s1.2-.9,1.2-1.7A1,1,0,0,0,67.1,2c-.8.2-1.1,1.2-1.9,1.5a2.7,2.7,0,0,1-1.3.2l-.7-.2c-.3-.2-.4-.5-.6-.7a4.4,4.4,0,0,0-2.4-1.1,3.3,3.3,0,0,0-2.6.1.8.8,0,0,0-.7.8,6.4,6.4,0,0,0,.2.7,1.2,1.2,0,0,1-.3,1.1,4.1,4.1,0,0,0-.5.9.4.4,0,0,1-.1-.3,4.4,4.4,0,0,0-.8-1.5,1.9,1.9,0,0,0-2.7.1,1.3,1.3,0,0,0-.4,1.2.7.7,0,0,0,.4.5c.3.3.5.4.4.8v.8c-.1-.1-.1-.3-.2-.4a1.7,1.7,0,0,0-2.2-1,2.6,2.6,0,0,0-1.4,2.6,4.8,4.8,0,0,1,0,1.2,3.5,3.5,0,0,1-.5.8c-.3.4-.7.7-.8,1.2s.6,2,1.3,2.6a2.1,2.1,0,0,1,.9,1.5,2.5,2.5,0,0,0,.6,1.3c.7.9,2.1.4,2.9,1.1a6.3,6.3,0,0,1,1.2,1.1l.3.3a5.2,5.2,0,0,0,1.3.6,13.1,13.1,0,0,0,2.7.6h1a12.2,12.2,0,0,0,3.3-.2H64a6.8,6.8,0,0,0,2.6-1.5,8.3,8.3,0,0,0,1.8-3,4.2,4.2,0,0,1,.9-1.4A6.9,6.9,0,0,0,70.4,13a2.8,2.8,0,0,0,.4-1.3c0-.5.2-.5.7-.5a2.1,2.1,0,0,0,.8,0A1.7,1.7,0,0,0,73.7,9.2Zm-19.4.2a2.9,2.9,0,0,1-1.1-2h.1C53.6,8.1,54.5,8.7,54.3,9.4Z" style="fill:#ff8c9f;stroke:#e75c78;stroke-miterlimit:10;stroke-width:3px"/><path d="M56.3,20.7c-.5.3-.6,1.1-.6,1.6h.1a4.1,4.1,0,0,0,.7-1.5C56.5,20.7,56.4,20.7,56.3,20.7Z" style="fill:#5b8f3b"/><path d="M55.9,23.9a.6.6,0,0,0-.2.5.8.8,0,0,0-.1.4v.3c0,.1.1.2.1.1s.2-.2.2-.3a.4.4,0,0,0,.1-.3,1.4,1.4,0,0,0,.2-.6C56.1,23.8,56,23.8,55.9,23.9Z" style="fill:#5b8f3b"/><path d="M61.8,21.8c-.1.4-.3,1,0,1.4H62a3.3,3.3,0,0,0,.1-1.4C62.1,21.7,61.8,21.7,61.8,21.8Z" style="fill:#5b8f3b"/><path d="M63.8,21.8c-.2,1.3-.6,2.4-.9,3.6a.1.1,0,0,0,.1.1,5.8,5.8,0,0,0,1-3.6Z" style="fill:#376018"/><path d="M56.6,7h-.1C59,9.8,58.8,14,58.6,17.4c0,.1.2.1.2,0a12.2,12.2,0,0,0,.1-6C58.6,9.8,58,7.9,56.6,7Z" style="fill:#d4465a"/><path d="M58.6,18.7Z" style="fill:#d4465a"/><path d="M56.5,15.8a2.5,2.5,0,0,1,.1-1.5,4.3,4.3,0,0,0-.1-2.5,6.6,6.6,0,0,0-1.4-2H55a15.1,15.1,0,0,1,1.1,2.2,5.4,5.4,0,0,1-.3,2.8,1.9,1.9,0,0,0,.7,1.8c.5.5,1.2.8,1.5,1.5s.2,0,.1-.1a2,2,0,0,0-.8-1.4Z" style="fill:#d4465a"/><path d="M72.1,7.1c-1-.1-1.1,1.5-1.5,2.1a4.5,4.5,0,0,1-3.1,2.4,3.3,3.3,0,0,0-1.6.7,7.6,7.6,0,0,0-1.1,1.4,13.6,13.6,0,0,0-1,2.1,10,10,0,0,1,.4-2.4c.3-.9.9-1.6,1.2-2.6a7.7,7.7,0,0,0-.3-2.6,5.1,5.1,0,0,1,.6-3c0-.1,0-.3-.1-.3s-1.8.2-2.7.3h-.3a3.1,3.1,0,0,0-1.7-1.5c-.8-.3-2-.3-2.5-1.2s-.2,0-.1.1a2.2,2.2,0,0,0,1.6,1.2,7.9,7.9,0,0,1,2.6,1.3l-2.6-.2c-1.2-.1-2.9.5-3.2,1.9s.1.1.2,0,2.4-1.5,3.7-1.3l2.4.3a16,16,0,0,1,2.1-.5,6.4,6.4,0,0,0-.5,2.4c.1,1,.7,2,.4,3.1s-.9,1.9-1.2,2.9a6.2,6.2,0,0,0-.2,2.7l-.3,1.4c0,.1.1.2.1.1l.5-1.2h0a12.3,12.3,0,0,1,1.2-2.6,5.4,5.4,0,0,1,1.4-1.6,9.5,9.5,0,0,1,1.8-.5,4.7,4.7,0,0,0,2.5-1.9,5.2,5.2,0,0,0,.6-1.3,2.1,2.1,0,0,1,.7-1.5Z" style="fill:#d4465a"/><path d="M54.4,9.7a9.5,9.5,0,0,0-.6,1.8,11.1,11.1,0,0,0-.7,1.6,3.3,3.3,0,0,0,.3,2.9c.1.1.2,0,.2-.1a5.1,5.1,0,0,1,.1-3c.2-.6.3-1.1.5-1.6a3,3,0,0,0,.3-1.6Z" style="fill:#d4465a"/><path d="M54.7,4.2a.9.9,0,0,0-.7-.6c-.5,0-.6.5-.9.7s0,.1.1.1.2-.3.4-.3.6.4.5.8a3,3,0,0,0-.2,1,2.5,2.5,0,0,0,.6,1.8c.1,0,.2-.1.1-.1a2.3,2.3,0,0,1-.2-2A3.2,3.2,0,0,0,54.7,4.2Z" style="fill:#d4465a"/><path d="M69.5,30.4l-2.4.9.3-.7c.1-.1,0-.2-.1-.1s-.6.6-.6.9l-.7.4a17,17,0,0,0-3.5,1.9h0l.5-1.2a9.1,9.1,0,0,1,1.1-1.6H64a3.9,3.9,0,0,0-1.8,3.1,13.4,13.4,0,0,0-2.7,2.6,7.5,7.5,0,0,1,.4-2.4c0-.1-.2-.2-.2-.1a8.3,8.3,0,0,0-.6,2.1,2,2,0,0,0-.1,1.1,5.9,5.9,0,0,0-.6,1.4c-.1.1.1.1.1.1l.9-1.2h1.3a4.3,4.3,0,0,0,2.2-.4h0l-1.5.2c-.4,0-1.2.1-1.6-.2h-.1a12.7,12.7,0,0,1,2.7-2.5,6.2,6.2,0,0,0,4.8-1c.1-.1,0-.3-.1-.2a12.5,12.5,0,0,1-2.6.7l-1.6.2c1.3-.9,2.7-1.7,4.1-2.5a2.1,2.1,0,0,0,1.7.2c0-.1,0-.2-.1-.2H67.4l2.2-1.1A.1.1,0,0,0,69.5,30.4Z" style="fill:#5b8f3b"/><path d="M49.1,46.4a10,10,0,0,0-1.4,1.5c-.2-1.1-.3-2.2-.4-3.2h0A11,11,0,0,0,48.8,42a.1.1,0,0,0-.2,0l-1.4,1.9c-.1-2-.1-4-.4-6,0-.1-.1-.1-.1,0a34.7,34.7,0,0,0-.1,5.6,26.8,26.8,0,0,0-1.8-2.8c-.1-.1-.2-.1-.2,0a19,19,0,0,0,2.1,4,.3.3,0,0,1,.1.2,28.9,28.9,0,0,0,.4,2.9c-.8-.7-1.5-1.5-2.3-2.3h-.1a14.8,14.8,0,0,0,2.6,3,11.8,11.8,0,0,0,1,3c0,.1.1.1.1,0s-.5-2.1-.7-3.1a12.1,12.1,0,0,0,1.4-2C49.3,46.4,49.2,46.3,49.1,46.4Z" style="fill:#5b8f3b"/><path d="M61,26.3a2.7,2.7,0,0,0-.6,1,3.1,3.1,0,0,0-.5,1h.2a2.7,2.7,0,0,0,1.2-2A.2.2,0,0,0,61,26.3Z" style="fill:#5b8f3b"/><path d="M71.8,51.6a5.7,5.7,0,0,0,2.5-.6A4.8,4.8,0,0,0,77,47.7a18.1,18.1,0,0,0-.3-2.3c.1-.9.7-1.5.6-2.4a2.5,2.5,0,0,0-2.1-2.4,4.4,4.4,0,0,0,1-3,7.7,7.7,0,0,0-5.3-7.4,7.8,7.8,0,0,0-2.6-.4H66.4A3.7,3.7,0,0,0,64,26.7a3.6,3.6,0,0,0-2.3.1,2.5,2.5,0,0,1-1.2.1l-1.1-.2a4.2,4.2,0,0,0-3.2,2.7,7.3,7.3,0,0,0-.4,3.3,4.5,4.5,0,0,0-1.7-.8,3.9,3.9,0,0,0-2.8.5,4.1,4.1,0,0,0-1.9,2.2c-.4,1.1-.1,2.3-.7,3.3a6.8,6.8,0,0,1-1.2,1.2,3.6,3.6,0,0,0-1,1.4,4.8,4.8,0,0,0-.7,3.1A5.7,5.7,0,0,0,50,48.2h.4a3.5,3.5,0,0,0-1.6,2.3,3.6,3.6,0,0,0,.9,3.6,4.8,4.8,0,0,0,1.6,1.2l2.4.4c1.6.3,2,2,3.3,2.6a2.8,2.8,0,0,0,2,.1,5,5,0,0,0,1.2-.8,3.9,3.9,0,0,0,2,1.3,4.3,4.3,0,0,0,2.5.2A13.4,13.4,0,0,0,67.1,58a3.8,3.8,0,0,1,1.3-.6,4.2,4.2,0,0,1,1.6-.1,3.3,3.3,0,0,0,2.4-1A3.4,3.4,0,0,0,71.8,51.6Z" style="fill:#ff8c9f;stroke:#e75c78;stroke-miterlimit:10;stroke-width:3px"/><path d="M60.1,57.1a7.3,7.3,0,0,1-1.5-3.5,7.1,7.1,0,0,1,.8-3.8,3.8,3.8,0,0,0,2.7.7,1.6,1.6,0,0,0,1.5-1.1,2.5,2.5,0,0,0,.1-.8,5.3,5.3,0,0,0,1.1.9,15.5,15.5,0,0,0,2.3.8,6.9,6.9,0,0,0,1.9,1,5,5,0,0,0,2.1.1h0a5.5,5.5,0,0,1-2.2-.2,10.4,10.4,0,0,1-1.7-1.2l-1.9-.7a11.9,11.9,0,0,1-1.5-.9,3.5,3.5,0,0,0,2.8-.9,1.9,1.9,0,0,1,.7,1.2c0,.3-.1.6.1.9s1.2.4,1.6-.1a2.2,2.2,0,0,0,.4-2.1,2.4,2.4,0,0,0-.7-1.2,2.8,2.8,0,0,0,2-.4,3.8,3.8,0,0,0,1.1-1.1,5.8,5.8,0,0,1,1.3-1.4c.8-.6,1.8-1.3,1.7-2.4a2.6,2.6,0,0,0-.5-1.2c-.4-.6-.1-1.1-.2-1.8s-1.2-1.3-1.7-2.1-.2-1-.4-1.4a1.3,1.3,0,0,0-1.2-.5,7.6,7.6,0,0,0-1.5.1,15.9,15.9,0,0,1-2-.7,7,7,0,0,0-3.2.3,11.7,11.7,0,0,0-2.5.7.6.6,0,0,0,0-.6h0A6.6,6.6,0,0,1,64.5,31c.5-.2.8-.6,1.3-.8h1.5s.1-.1,0-.1a2.7,2.7,0,0,0-1.5-.3h-.5a2.7,2.7,0,0,0-2.2-2.6,3.1,3.1,0,0,0-1.9.3c-.7.4-.9,1.2-1.6,1.7a4.5,4.5,0,0,0-2.5,3.2,7.6,7.6,0,0,1-.6,2.5,11.3,11.3,0,0,0-1.2,1.8,5.3,5.3,0,0,0,0,2.8,1.7,1.7,0,0,0-1.5-.5,2.1,2.1,0,0,0-1.6,2.4,2.8,2.8,0,0,0,2.3,2.1c.4.1.9.1,1.2.4a.8.8,0,0,1,.3.7,3.7,3.7,0,0,0,.7,1.4l.8.7.3.5h-.2a10.3,10.3,0,0,1-8.9-.2c-.1-.1-.2.1-.1.1a8.4,8.4,0,0,0,4.6,1.5,8,8,0,0,0,4.5-1.2c.1-.1.1-.1.1-.2a1.4,1.4,0,0,0,.2.6,3.1,3.1,0,0,0,1,1.5c0,.1.1.1.1.2a5.3,5.3,0,0,0,1,7.5C60.1,57.2,60.2,57.1,60.1,57.1Zm3.6-9h-.1a5.4,5.4,0,0,0-1-1.6c-.5-.5-1-.9-1.5-1.5a7.5,7.5,0,0,1-.7-1.2l1.4.5c.9.3,1.3,1.2,2.1,1.7s1.7.7,2.5,1.2l-1.1.6A4.5,4.5,0,0,1,63.7,48.1Zm5.4.2a2.5,2.5,0,0,1-.4.7l-.2.2c-.2.2-.4.3-.6.1s-.2-.6-.3-1-1.9-1.9-3.1-2.5L63.3,45c-.3-.3-.5-.7-.9-.9s-1.3-.3-1.9-.6c1,.2,2-.3,3-.1s1.5,1,2.3,1.5A13.9,13.9,0,0,0,67.9,46,2,2,0,0,1,69.1,48.3Zm-.7-7a5.8,5.8,0,0,0,1.7-1.8,2.1,2.1,0,0,0,.1-1.9c-.4-.7-1.3-1-1.7-1.7s-.5-1.2-1.3-1.2l-1,.2a2.3,2.3,0,0,1-1.4.2,2.9,2.9,0,0,0-2,.5l-.5.6-.7-.9a10.9,10.9,0,0,1,2.3-.9,2.8,2.8,0,0,1,1.3-.1,5.3,5.3,0,0,1,1.2.3c.9.2,1.9,0,2.7.5a2.4,2.4,0,0,1,.7,1.2l.4.8c.3.3.7.3,1,.5a1.5,1.5,0,0,1,.5,1.2,4,4,0,0,1-.8,2.6c-.4.8-.7,1.6-1.1,2.5a2.4,2.4,0,0,1-1.7,1.7H68L66.6,45l-1.4-1a3.8,3.8,0,0,0-1.5-.9,3.1,3.1,0,0,0-.1-1.9c-.2-.7-.7-1.3-.9-2a19.7,19.7,0,0,1-.3-2.4h0a2.4,2.4,0,0,1,.9-.8c.6-.4,1.2-.2,1.9-.3a10.5,10.5,0,0,0,1.7-.4.9.9,0,0,1,1.1.6,2.5,2.5,0,0,0,.4.7l1.3,1.1a2.2,2.2,0,0,1-.4,2.3A8.6,8.6,0,0,1,66,42.2c-.2.1-.1.2.1.2A7,7,0,0,0,68.4,41.3ZM63,34.2a11.3,11.3,0,0,1,3.1-.6l1.6.2a6.7,6.7,0,0,0,1.5.6l1.2-.2h.9a1.4,1.4,0,0,1,.5.8A3.5,3.5,0,0,0,73,37a1.8,1.8,0,0,1,.6,1.4,2.4,2.4,0,0,0,0,1.2,3.3,3.3,0,0,1,.6,1,1.5,1.5,0,0,1-.6,1.5l-1.3,1a4.9,4.9,0,0,0-1.1,1.4,2.7,2.7,0,0,1-2.4,1.2l.7-.4a3.3,3.3,0,0,0,1.1-2.1c.6-1.4,1.9-2.8,1.6-4.4a2.6,2.6,0,0,0-.9-1.5c-.4-.2-.9-.2-1.1-.6a4.5,4.5,0,0,0-.3-1.1c-.7-1.5-2.5-1-3.9-1.4a5.8,5.8,0,0,0-2.3-.2,8.5,8.5,0,0,0-2.2.9h0A4.1,4.1,0,0,1,63,34.2Zm-1.8.3c-.3.2-.5.3-.6.6a3.6,3.6,0,0,0-.7,1.7,17,17,0,0,1-.9,2.4c-.1.2.1.3.2.2a6.9,6.9,0,0,0,1.3-2.9,3.1,3.1,0,0,1,.6-1.3h0a8.4,8.4,0,0,1,.8,2,14.9,14.9,0,0,0,.2,2.1c.2.7.7,1.2.9,1.8a6.5,6.5,0,0,1,.5,2h-.7a8.9,8.9,0,0,1-2.8.1,4.4,4.4,0,0,0-1.7-1.6,4.1,4.1,0,0,1-.1-2.2c.2-1,1-1.7,1.2-2.6s0-1.9.2-2.8.8-1.2,1.4-.6S61.3,34.1,61.2,34.5Zm-5.6,4a4.4,4.4,0,0,1,.5-2.2c.4-.6,1.1-1.1,1.3-1.9a10.1,10.1,0,0,1,.4-2.5A4.5,4.5,0,0,1,59.3,30l1-.6a8.6,8.6,0,0,0,.7-1c1.2-1.6,4.1-.2,4,1.7h0l-.8.6a4.4,4.4,0,0,0-2.6,2.7,1.6,1.6,0,0,0-.7-.7c-1.2-.5-1.7.8-1.8,1.7a9.5,9.5,0,0,1-.1,2.4,18.6,18.6,0,0,0-1,2,3.1,3.1,0,0,0,0,2.5l-1-.5-.8-.5A9.5,9.5,0,0,1,55.6,38.5Zm3.9,10.8a2.7,2.7,0,0,1-.9-1.2,5.9,5.9,0,0,0-.6-1.4,7,7,0,0,0-.8-1,2,2,0,0,1-.6-1.3,4.1,4.1,0,0,0-.5-.9,3.7,3.7,0,0,0-1.4-.4c-1.2-.2-2.4-1.4-1.9-2.6a1.7,1.7,0,0,1,1.3-.9c.7,0,1.2.7,1.7,1s2,.9,2.9,1.6,1.2,1.8,1.9,2.7,1.8,1.7,2.4,2.7a1.7,1.7,0,0,1-1.8,2.6A4,4,0,0,1,59.5,49.3Z" style="fill:#d4465a"/><path d="M67.9,37a2.3,2.3,0,0,0-1.2-.6,7.1,7.1,0,0,1-1.5.1,1.5,1.5,0,0,0-1.8,1.6c-.1.1.1.1.2,0a1.4,1.4,0,0,1,.7-1,1.2,1.2,0,0,1,1,0c.6.1,1.2-.4,1.7-.2s1.4,1.1,1.1,1.8A2,2,0,0,1,66.2,40a.1.1,0,0,0-.1.1c.8.6,1.7-.3,2.1-.9A1.7,1.7,0,0,0,67.9,37Z" style="fill:#d4465a"/><path d="M66.5,38.1a1.1,1.1,0,0,0-1.8.3c0,.1.1.1.2.1a1.5,1.5,0,0,1,1.6-.3S66.6,38.1,66.5,38.1Z" style="fill:#d4465a"/><path d="M66.4,39.1h-.6l-.6-.2s-.1.1,0,.1a1,1,0,0,0,.5.4h.7Z" style="fill:#d4465a"/><path d="M47.9,44.4a10.6,10.6,0,0,1-5.7,6.4,3.5,3.5,0,0,0,2-.1c.1-.1.2.1.1.2-2.7,3.4-7.3,2.8-11.1,3.4a19.6,19.6,0,0,0-1.3,4.1c-.3,1.3-.5,2.6-.7,3.9a.9.9,0,0,1,.1.5l-1.6-.4c-.2-1.2-.5-2.4-.7-3.6L28.4,56a17,17,0,0,0-1-1.4,8.5,8.5,0,0,0-2.2-2h0c-.1-.1-.1-.2,0-.2a5.4,5.4,0,0,1,2.2-.4c-.6-2.5-1.3-5-2-7.5s-2.1-7.3-3-10.4a8.3,8.3,0,0,1-.4-1.5c-.1-.3.3-.4.4-.1l.6,1.4c.7,2,1.8,5.2,2.1,6.2a5.1,5.1,0,0,1,2.5-1.6c.2-.1.5,0,.3.2a13.4,13.4,0,0,0-1.3,2.7,12.5,12.5,0,0,0-.3,1.9,8.4,8.4,0,0,0,.5,1.7,128.5,128.5,0,0,1,3.7,13.5c.2.8.3,1.6.5,2.3a19.4,19.4,0,0,1,.2-2.4,20.6,20.6,0,0,1,1.5-4.8,24.2,24.2,0,0,1-.6-4.6,9.9,9.9,0,0,1,.9-4.2.3.3,0,0,1,.5.2,7.7,7.7,0,0,0,.2,1.5c.3-2.3,1.9-4.2,3.4-5.8s.6,0,.5.2a4.1,4.1,0,0,0-.3,1.6,6.6,6.6,0,0,1,3.3-2.6L44,38.6a16.1,16.1,0,0,0,3-2.1c.1-.1.5-.1.4.2a5.8,5.8,0,0,1-.9,2.5,6.2,6.2,0,0,0,2.2-1.7c.1-.1.4.1.3.2a14.5,14.5,0,0,1-1.2,4.2,10.8,10.8,0,0,1-2.1,3.4,5.4,5.4,0,0,0,2-1C47.8,44.2,48,44.3,47.9,44.4Z" style="fill:#507125"/><path d="M14.3,45.9a3.6,3.6,0,0,1-2.7-1.2,5.6,5.6,0,0,1-1-4.5,11.6,11.6,0,0,1,.4-1.8l.3-1.1a3.4,3.4,0,0,1-1.2-.6l-.6-.5a.2.2,0,0,1-.2-.2h0a6.2,6.2,0,0,1-2.6,1H6.6a4,4,0,0,1-2.9-1.2,3.8,3.8,0,0,1-1.4-2.9,8.6,8.6,0,0,1,.1-1.7,2.4,2.4,0,0,0,.2-.8,4.1,4.1,0,0,0-.4-1.2,4.2,4.2,0,0,1-.3-4,2.8,2.8,0,0,1,1.6-1.4,6.6,6.6,0,0,1-.1-1.4A4.6,4.6,0,0,1,4,20.1a5.6,5.6,0,0,1,1.4-1.6h.1a1.4,1.4,0,0,0,.2-.9,10,10,0,0,1,.2-1.6,3.6,3.6,0,0,1,2-2l1.2-.2.7-.2.5-.2a7.1,7.1,0,0,1,2.2-.5,4.4,4.4,0,0,1,3.7-3.3h.4a5.9,5.9,0,0,1,2,.5l.6.2h.1a1.2,1.2,0,0,0,.7-.2l.3-.2a5.4,5.4,0,0,1,2.9-1.1,4,4,0,0,1,1.5.3,5.1,5.1,0,0,1,2.2,2.5l.2.4a4.7,4.7,0,0,0,.8,1.4,8.6,8.6,0,0,0,3.4,1.3l1,.2A10.5,10.5,0,0,1,37,17.1a9.1,9.1,0,0,1-.2,13.3l.6.6a4.5,4.5,0,0,1,1,5.1,5.4,5.4,0,0,1-4.9,3h-.8a4.8,4.8,0,0,1-2.5-1.5l-.8-.7h-.2A3.8,3.8,0,0,1,27,38c-1.6,0-2.6-1.2-3.3-1.9h-.1c-.1-.2-.2-.2-.3-.3v.4a2.8,2.8,0,0,0-.1.9,6.9,6.9,0,0,1-.9,2.3,4.4,4.4,0,0,1-1.9,1.9l-1.2.4-.6.3a1.9,1.9,0,0,0-1,.8,3.9,3.9,0,0,0-.4.9,5.9,5.9,0,0,0-.4.8A2.7,2.7,0,0,1,14.3,45.9Z" style="fill:#f48096"/><path d="M23.2,10.1a1.2,1.2,0,0,1,.8.2,3.5,3.5,0,0,1,1.6,1.8,5,5,0,0,0,1.3,2.2c1.4,1.2,3.3,1.4,5,1.8a8.6,8.6,0,0,1,4,2.1A7.9,7.9,0,0,1,38,25.9a7.6,7.6,0,0,1-4.6,4.8A5.1,5.1,0,0,1,36.3,32c2.5,2.8-.2,5.6-2.8,5.6H33c-1.3-.2-1.9-1.6-3.1-2.1h-.7a1.1,1.1,0,0,0-.8.3c-.5.3-.8.8-1.4.8h0c-1,0-1.7-.9-2.3-1.6a6,6,0,0,0-1.3-.9H23a1.1,1.1,0,0,0-1,.8,13.8,13.8,0,0,0-.3,2,4.4,4.4,0,0,1-.7,1.9,3,3,0,0,1-1.3,1.2l-1.7.7a4.2,4.2,0,0,0-1.6,1.3,16.3,16.3,0,0,0-.9,1.9,1.4,1.4,0,0,1-1.2.7,2,2,0,0,1-1.5-.7,3.6,3.6,0,0,1-.7-3.2c.2-1.3.7-2.5.8-3.8v-.6h-.1a3.5,3.5,0,0,1-1.8-.6,9.4,9.4,0,0,0-1.2-.9H9.3a1.1,1.1,0,0,0-.7.2,4.6,4.6,0,0,1-1.9.8H6.6a2.7,2.7,0,0,1-1.9-.8,2.8,2.8,0,0,1-.9-1.9,19.7,19.7,0,0,1,.3-2.4c0-1.5-1.7-2.9-.9-4.5a1.7,1.7,0,0,1,1.3-.8h.1l.9.3.5.2h.1a3.8,3.8,0,0,1-1.2-3.2,3.2,3.2,0,0,1,.4-1.6,4.9,4.9,0,0,1,1.2-1.3c.9-.8.5-2.1.9-3.1a1.6,1.6,0,0,1,1-1.1c.6-.2,1.3-.1,1.9-.3a6.2,6.2,0,0,1,2.3-.7,1.5,1.5,0,0,1,.9.2c.4-1.5,1-3.3,2.8-3.6h.3a9.4,9.4,0,0,1,2.2.7h.5a3.3,3.3,0,0,0,1.4-.4,5.1,5.1,0,0,1,2.5-1.1m0-3a7.4,7.4,0,0,0-3.7,1.3l-.3.2h-.1a7,7,0,0,0-2.5-.6H16a5.9,5.9,0,0,0-4.6,3.4,8.5,8.5,0,0,0-1.7.6H8.9l-1.4.3a5,5,0,0,0-3,3,7.4,7.4,0,0,0-.3,1.9h0a10.6,10.6,0,0,0-1.6,1.9,7.3,7.3,0,0,0-.7,2.9V23A3.4,3.4,0,0,0,.6,24.6a5.6,5.6,0,0,0,.2,5.3l.3.6a.6.6,0,0,0-.1.4,6.2,6.2,0,0,0-.2,2,5.6,5.6,0,0,0,1.9,4,5.5,5.5,0,0,0,3.9,1.6h.2a5.2,5.2,0,0,0,2.3-.7l.2.2h.2c-.1.6-.3,1.2-.4,1.9a6.9,6.9,0,0,0,1.4,5.7,5.2,5.2,0,0,0,3.8,1.7,4.2,4.2,0,0,0,3.8-2.3l.5-.9a1.6,1.6,0,0,1,.3-.6c.1-.3.2-.4.3-.4l.5-.2a4.8,4.8,0,0,0,1.4-.5,5.8,5.8,0,0,0,2.5-2.4,6.9,6.9,0,0,0,.7-1.5,4.6,4.6,0,0,0,2.7.9,4.8,4.8,0,0,0,2.3-.7,5.7,5.7,0,0,0,3.2,1.7h1a7.1,7.1,0,0,0,6.3-3.9,6.3,6.3,0,0,0-.9-6.3,12,12,0,0,0,2-3.7A10.7,10.7,0,0,0,38,16.1a11.4,11.4,0,0,0-5.3-2.9L31.6,13a7.6,7.6,0,0,1-2.7-1l-.5-.9v-.3a6.2,6.2,0,0,0-3-3.2,4.1,4.1,0,0,0-2.1-.5Z" style="fill:#e75c78"/><path d="M32.2,30.9c-1.7.4-3.3-.6-4.7-1.3a7.6,7.6,0,0,0-4.4-.9,4.8,4.8,0,0,0-2.1.7,3.9,3.9,0,0,1,1.4-.8c1-.3,2.3-.1,3-1s.3-1.1.7-1.5a1.3,1.3,0,0,1,.7-.6c0,.1.1.2.2.3l.3.5.5,1.1c.2.8.3,1.5.5,2.3h.1a3.9,3.9,0,0,0-.2-2.4,3.4,3.4,0,0,0-.6-1.2l-.6-.7.5-.3,1.6-.4a3.9,3.9,0,0,0,1.5-.2,1.6,1.6,0,0,0,.9-.9,1.3,1.3,0,0,0-.5-1.2l-1.5-.8a2.9,2.9,0,0,1-.7-1.6,3.4,3.4,0,0,0-1.9-2.2,3.2,3.2,0,0,0-1.4-.3c-.5,0-1.1.2-1.5-.1A14.9,14.9,0,0,1,22.8,16a2.3,2.3,0,0,0-1.2-.6h-.4a1.8,1.8,0,0,0-1.2.5v-.3a4.4,4.4,0,0,0-.8-1.1,1.5,1.5,0,0,0-2,.3,3.9,3.9,0,0,1-1,.8A3,3,0,0,0,15,16a1.7,1.7,0,0,0-.9,1.4,1.7,1.7,0,0,0-1.2.2,2.4,2.4,0,0,0-1.1,1.5,3.8,3.8,0,0,1-.3,1l-.3.4h-.5c-.5.1-.6,1-.6,1.4a4.1,4.1,0,0,0,.5,1.8,5.3,5.3,0,0,0,1.5,1.5l.7.8c.2.3.3.7.5,1a13.4,13.4,0,0,0,.7,1.8,5,5,0,0,0,2,1.5l-1.1.5a3.8,3.8,0,0,1-1.3-.6c-.4-.4-.4-.9-.7-1.4a3.3,3.3,0,0,0-2.5-1.7A13.9,13.9,0,0,1,7.2,26a4.2,4.2,0,0,1-1.9-2.6h0a5.1,5.1,0,0,0,3,3.7l2.8,1a2.8,2.8,0,0,1,1.1.8l.5,1.2a2,2,0,0,0,1.7,1.1.1.1,0,0,1-.1.1,4.8,4.8,0,0,0-1.4,2,6.2,6.2,0,0,0,0,2.7v-.5a4.7,4.7,0,0,1,1.9-3.7,5,5,0,0,1,2-.8,8.8,8.8,0,0,0,2.3,0,8.1,8.1,0,0,0,2.1-1,6.6,6.6,0,0,1,2-.6h2.2a10.2,10.2,0,0,1,2.2.9c1.4.7,3,1.5,4.6.7C32.3,31,32.3,30.9,32.2,30.9Zm-8.5-13a3,3,0,0,0,1.3.2,3.8,3.8,0,0,1,1.5.1,2.9,2.9,0,0,1,1.9,2.1,3.8,3.8,0,0,0,.6,1.3,2.9,2.9,0,0,0,1.3.8c.4.2,1,.6.8,1.2s-.9.6-1.4.6a6.8,6.8,0,0,0-2.8.7,2.7,2.7,0,0,0-1.2.9,1,1,0,0,0-.4.5,1.5,1.5,0,0,1-.2.9c-.3.5-1,.6-1.6.7h-.7c.2-.5.8-.7,1.2-1a2,2,0,0,0,1.3-1.4c0-.6-.3-1.3.4-1.6a2.1,2.1,0,0,0,1.4-1,1.4,1.4,0,0,0-.1-1.6,2.6,2.6,0,0,0-1.6-.9c-.7-.2-.6-.9-.8-1.5s-.8-.8-1.3-1.1-.5-.4-.6-.9v-.3A5.8,5.8,0,0,0,23.7,17.9Zm-8.3-1.6.9-.2a1.5,1.5,0,0,0,.6-.5c.5-.4.9-1,1.5-.9a1.4,1.4,0,0,1,.8.7,2.4,2.4,0,0,1,.6.8.9.9,0,0,0-.3.6h-.1c-.3,0-.4,0-.6.6a4.1,4.1,0,0,0-.1,1,2.3,2.3,0,0,0-2.1-1.3,1.8,1.8,0,0,0-1,.4,2.8,2.8,0,0,1-1.2.1S14.6,16.5,15.4,16.3Zm4.3,1a.7.7,0,0,1,.5.6c.2.4.3.9.5,1.2a5.2,5.2,0,0,0,1.1,1,2.7,2.7,0,0,1,.8,1,3.4,3.4,0,0,1,.5,2.6c-.1.8-.4,1.5-.5,2.3a6.2,6.2,0,0,1-.2-1.9,3.6,3.6,0,0,0-.9-2.2,12.9,12.9,0,0,1-1.9-2.1,3.4,3.4,0,0,1-.3-2.5A.3.3,0,0,1,19.7,17.3Zm-2.8,13a5.5,5.5,0,0,1-2.3-1.4,8,8,0,0,1-.8-1.6,5.6,5.6,0,0,0-.7-1.6c-.4-.6-1-.9-1.4-1.4a3.3,3.3,0,0,1-1-1.4,3.3,3.3,0,0,1,0-1.7c.1-.2.4-.2.6-.3a1.2,1.2,0,0,0,.5-.5c.4-.7.3-1.4.7-2a2.2,2.2,0,0,1,.9-.7H14a1.7,1.7,0,0,0-1.2,1.4,2.4,2.4,0,0,0,0,1.2c.1.4.4.8.5,1.3a5.9,5.9,0,0,0,.2,1.3.5.5,0,0,0,.2.4,2.2,2.2,0,0,0,.4,2.1c.3.4.8.6,1.1,1a6.6,6.6,0,0,1,.3,1.5,3.4,3.4,0,0,0,1.7,2.4Zm-1-2.9a4.3,4.3,0,0,0-.2-1.1,2.3,2.3,0,0,0-.9-.8,2.5,2.5,0,0,1-.8-1,1.7,1.7,0,0,1,0-1l.5.2s.1-.1,0-.1a1.7,1.7,0,0,1-.7-1.3,4.9,4.9,0,0,0-.1-1.2c-.4-.8-.8-1.8-.1-2.6a1.6,1.6,0,0,1,1.2-.3,1.1,1.1,0,0,0,1.1-.3,1.7,1.7,0,0,1,1.2-.3,2.8,2.8,0,0,1,1.4,1h0l-.5.3c-.1.2-.1.5-.2.8s-.1,1.2-.8,1.5a3.7,3.7,0,0,0-1.8.8h0a4.1,4.1,0,0,1-.5-.9c-.1-.4-.1-1,.3-1.2h.5l.4-.2c.4-.2.6-.6,1.1-.6s.1,0,0-.1-.7,0-1,.2a1.5,1.5,0,0,1-.9.4.9.9,0,0,0-.6.3,1.6,1.6,0,0,0,.6,2.3,1.9,1.9,0,0,0-.4,1.5h.1l.6.7a4.9,4.9,0,0,1,.4,1.1,16.6,16.6,0,0,1,.6,2.1,4.4,4.4,0,0,0,.9,1.8l.9,1A3.4,3.4,0,0,1,15.9,27.4Zm4,2.5-1.1.4h-.3l-.6-.4a3.6,3.6,0,0,1-.7-1,16.6,16.6,0,0,1-.6-2.1,7.3,7.3,0,0,0-.5-2,2.4,2.4,0,0,0-.9-1.1h.1l.5.4a2.4,2.4,0,0,1,.8.9c.4.6.8,1.4,1.5,1.7a7.4,7.4,0,0,0,2.1,0h1.2c.4,0,.8.2,1.2.1s.1-.1,0-.1a4.9,4.9,0,0,0-2.1-.4c-.8,0-1.7.3-2.4-.2s-.8-1.3-1.4-1.9a2.2,2.2,0,0,0-.9-.7,3.2,3.2,0,0,0-.9-.3,2.2,2.2,0,0,1,1.3-1.4c.6-.2,1.3-.2,1.7-.7a4.5,4.5,0,0,0,.3-1.6,4.3,4.3,0,0,1,.1-.5l.4-.3.3.9a7.6,7.6,0,0,0,1.8,2.2,2.7,2.7,0,0,1,.9,1.2,2.7,2.7,0,0,1,.3,1.2,10.5,10.5,0,0,0,.6,2.4c0,.1.2,0,.3-.1a23.8,23.8,0,0,1,.5-2.6,3.9,3.9,0,0,0-.1-2.4A4.1,4.1,0,0,0,22,19.7c-.4-.3-.8-.5-1-1l-.5-1.2c-.2-.3-.4-.6-.8-.6a1.6,1.6,0,0,1,2-1h.2a2,2,0,0,1,.4.8,2.2,2.2,0,0,0,.1.8,1,1,0,0,0,.5.6c.5.4,1.1.5,1.3,1.1s.1,1.1.6,1.4,1.1.3,1.6.7a1.1,1.1,0,0,1,0,1.7c-.5.4-1.1.3-1.5.8a2.6,2.6,0,0,0-.2,1.5c0,1.3-2.2,1.4-2.2,2.7l-.6.2A4.5,4.5,0,0,0,19.9,29.9Z" style="fill:#d4465a"/><path d="M16.5,19.9a.5.5,0,0,0-.4.2,1.3,1.3,0,0,0-.3.5h.1c.2-.2.6-.4.7-.6S16.6,19.9,16.5,19.9Z" style="fill:#d4465a"/><path d="M44.5,42.9l-3.1.8H41l3.3-3h-.1a23.9,23.9,0,0,0-3.5,2.8c0-.2.1-.3.1-.4a11.3,11.3,0,0,0,.3-1.8H41a15.5,15.5,0,0,0-.7,2.3v.3a26,26,0,0,0-3,3.6,12.9,12.9,0,0,1,.4-1.9l1-2.7s-.1-.1-.1,0a9.2,9.2,0,0,0-1.7,5.2,36.2,36.2,0,0,0-2.2,3.2,3.4,3.4,0,0,1-.1-1L34.3,48c0-.1-.2-.1-.2,0a18.2,18.2,0,0,0,.1,3.3,1.1,1.1,0,0,1,.1.5l-.7,1.1h.1a4.7,4.7,0,0,0,1-1h.2a8.5,8.5,0,0,0,4.9-1.7c0-.1,0-.1-.1-.1a9.9,9.9,0,0,1-4.1,1.3c-.2,0-.4.1-.6,0a20.2,20.2,0,0,0,2.1-3,14.4,14.4,0,0,0,4.6-1.9c0-.1,0-.2-.1-.1a30.3,30.3,0,0,1-4.2,1.6l1.3-1.8,1.9-2.1h.3l1.3-.3,2.3-.9Z" style="fill:#5b8f3b"/><path d="M41.6,47.7c-.2.4-.3.9-.5,1.3s.6,3.3.8,5l.3,3.9a48.6,48.6,0,0,1,0,5.4c0,.2-.1.3-.1.5H41V62.7h0a7.8,7.8,0,0,0-1-1.5,17.9,17.9,0,0,0-1.3-1.4c-.2-.2-.1-.3.1-.3s1.5-.1,2.3,0a9.2,9.2,0,0,1-.1-1.6c0-.5-.1-1-.1-1.4l-.2-.5a13,13,0,0,0-.8-1.7,18.6,18.6,0,0,0-2.1-2.8l-1.9-1.6c-.5,1-2.6,2.1-3.7,2.3a12,12,0,0,1-5-.1.2.2,0,0,1-.1-.4l1.7-.9a7.8,7.8,0,0,1-4.5-2.5.3.3,0,0,1,.3-.5,4.8,4.8,0,0,0,1.7,0,6.4,6.4,0,0,1-2.8-2.6,7.1,7.1,0,0,1-.9-4.1.2.2,0,0,1,.3-.1,8.1,8.1,0,0,0,3.1.5,10.9,10.9,0,0,1,2.6.4,11.2,11.2,0,0,1,4.3,2.3,6.1,6.1,0,0,0,.1-1.4c.1-.1.3-.3.4-.2A6.3,6.3,0,0,1,36,46.2a5.6,5.6,0,0,1,0,3.4,12,12,0,0,1,2.1,1.7,15.4,15.4,0,0,1,2.3,2.9l.4.8-.3-2.4c-.5-4.4-1.3-8.8-1-13.2a18.4,18.4,0,0,1,.5-4.1.2.2,0,0,1,.3,0,23.7,23.7,0,0,0-.3,4.6c.1,1.8.3,3.7.5,5.5s.1.7.2,1a4.6,4.6,0,0,1,1.9-.8c.2,0,.3.2.2.4A10.4,10.4,0,0,0,41.6,47.7Z" style="fill:#6c9433"/><path d="M64.9,49.1c-2.1,2.2-3.3,5.1-5.7,7.1a12.7,12.7,0,0,1-3.1,2l-1.2.4-2.2.5,1.3.5a.2.2,0,0,1,.1.3c-2.1,1.9-4.9-.7-7.3-.4h0a14.6,14.6,0,0,0-2.7,3.8l-.3.4h-.6l.4-.9a17.8,17.8,0,0,1,2.8-3.8l.4-1a11.9,11.9,0,0,0,.8-2c.3-.9.5-1.8.8-2.8a8.2,8.2,0,0,1,2.9-4.2.3.3,0,0,1,.4.4,6,6,0,0,0-.6,1.9,11.6,11.6,0,0,1,6.5-3.5c.2,0,.3.2.2.4a3.9,3.9,0,0,0-.8,1,5.7,5.7,0,0,1,2.2-.4l5.5-.2C64.9,48.7,65.1,49,64.9,49.1Z" style="fill:#6c9433"/><path d="M58.6,23.4c-.9-1.4-2.9-.6-4.3-.7s-2.5-1.5-3.9-1.3a4.4,4.4,0,0,0,.9-3.1c-.1-1.7-1.1-3.2-.2-4.8s.5-1.2,0-1.7a1.9,1.9,0,0,0-1.6-.6l-2.4.2a16,16,0,0,0-2.3-.3,3.9,3.9,0,0,0-3.3,1.5,3.4,3.4,0,0,0-2.1-2.1,8.8,8.8,0,0,0-1.5-.5,1.3,1.3,0,0,1-.7-.6c-.1-.2-.1-.4-.3-.6a1.7,1.7,0,0,0-1.4,0,2.2,2.2,0,0,0-1.2.9l-1.1,1.6a10.1,10.1,0,0,0-1.3,1.6,4.1,4.1,0,0,0-.8,1.9,3.9,3.9,0,0,0-1.7-1.9c-1.2-.6-3.5-.3-3.9-1.8s-.2-.3-.3-.2a4.2,4.2,0,0,0-1.6,2.7,9.6,9.6,0,0,0,0,1.7,10.9,10.9,0,0,1-.1,1.8,6.1,6.1,0,0,0,.2,3.3,4.3,4.3,0,0,0,1.8,2.2,6.4,6.4,0,0,0,2.4,1,3.1,3.1,0,0,0-2.5,1.7,9.4,9.4,0,0,0-.7,2.2,5,5,0,0,1-1.3,2.2,3.5,3.5,0,0,0-1.2,2,4.9,4.9,0,0,0-.1,1.2c.1.2.1.7.3.9s.5,0,.7-.1a2.3,2.3,0,0,1,1.4-.2,7.5,7.5,0,0,1,2.5.9,6.3,6.3,0,0,0,2.7.6,3.7,3.7,0,0,0,2-.9,13,13,0,0,0,.8,1.7,5.1,5.1,0,0,0,2.6,1.9A10.8,10.8,0,0,0,37,38a2.7,2.7,0,0,1,1.8.8c.9.8,1.8,2,3.3,1.6s.1-.1.1-.2,1.6-2.1,2.4-2.9a7.4,7.4,0,0,0,1.9-2.7,5,5,0,0,0,.2-2.7l1.4.4a6.2,6.2,0,0,0,1.9-.2,9.2,9.2,0,0,0,3.6-1.7A7.4,7.4,0,0,0,56,27.3a6.9,6.9,0,0,1,1-1.9,12.9,12.9,0,0,1,1.6-1.7A.2.2,0,0,0,58.6,23.4Z" style="fill:#ff8c9f;stroke:#e75c78;stroke-miterlimit:10;stroke-width:3px"/><path d="M46.4,15.8a2.2,2.2,0,0,0-2.1.1c-.1.1-.1.2.1.2a2.8,2.8,0,0,1,1.8.1,1.4,1.4,0,0,1,.3,1.8c-.6,1.2-1.8,1.9-1.8,3.3a11.3,11.3,0,0,0,.3,1.8,2.9,2.9,0,0,1-.3,1.8,5.3,5.3,0,0,1-1.3,1.3,1.2,1.2,0,0,1-1,.3l-.8-.5c-.3-.3-.8-.6-1.2-.3s-1.3.1-1.9.1a6.9,6.9,0,0,1,1.9-1.9A17.7,17.7,0,0,0,42,21.7c.6-.7,1.5-.9,2.1-1.6a2,2,0,0,0,.1-2.2c.1-.1.1-.2.1-.4a.8.8,0,0,0-.2-1c-.2-.3-.1-.5,0-.8v-.6a1.4,1.4,0,0,0-1.7-1,1.7,1.7,0,0,0-1.7-.7l-1.5.6-.5.3a1.7,1.7,0,0,0-.8-1.2l-.9-.3-.9.3c-.6.4-1.4.1-2.1.3a2.6,2.6,0,0,0-1.5,1.2,1.5,1.5,0,0,0-.1,1.7,3.5,3.5,0,0,0,.5.8,6.6,6.6,0,0,1,.1,1.4L32.7,20a1.9,1.9,0,0,1-.3-1,1.7,1.7,0,0,0-.2-1.2,5.4,5.4,0,0,1-.8-2.8h-.1a4,4,0,0,0,.3,2.4,6.6,6.6,0,0,0-3.1-.6,3.1,3.1,0,0,0-2.6.8v.2c.4.4.9.6,1.2,1s-.2,1.2-.2,1.8a1.1,1.1,0,0,0,.6,1,3.1,3.1,0,0,1,1.6,1.2c.3.6.2,1.3.5,1.9a3.2,3.2,0,0,0,1,1.3,7.6,7.6,0,0,0,1.8.9,1.1,1.1,0,0,0,.3,1.3,12.5,12.5,0,0,0-1,2.7,6.1,6.1,0,0,0-.1,1.4,1.7,1.7,0,0,0,.1,1.2h.1a5.7,5.7,0,0,0,0-1.3,5.9,5.9,0,0,1,.2-1.3,7.9,7.9,0,0,1,.8-2.6c.3.3.8.4,1.1.7l.8.7a1.4,1.4,0,0,0,1.1.2,1.8,1.8,0,0,0,1-.4.9.9,0,0,1,1.2.3c.2.3.2.7.6,1s1.5-.2,2.2-.1h1.3a1.9,1.9,0,0,0,1-.3,2.9,2.9,0,0,0,1.4-2l.6.4a2.6,2.6,0,0,1,.7,1.1,4.5,4.5,0,0,0,.6,1.2,3,3,0,0,1,.2,1.6h.1c0-.2.1-.4.1-.6v-.3a1.3,1.3,0,0,0-.1-.6,1.5,1.5,0,0,0-.3-.7,1.6,1.6,0,0,1-.3-.9,2,2,0,0,0-1.6-1.5,1.4,1.4,0,0,0-.6-1.1,1.2,1.2,0,0,0-1-.2H41.2l-1.6-.4-.5-.2a1.7,1.7,0,0,0,1.2,0l.3-.2c.3-.2.4,0,.6.1l.8.6a1.7,1.7,0,0,0,1.7-.2A4,4,0,0,0,45,25.2a2.6,2.6,0,0,0,.5-1.7,17,17,0,0,1-.4-2.2c0-1.6,1.8-2.4,2-3.9A1.8,1.8,0,0,0,46.4,15.8ZM41.2,22a4.1,4.1,0,0,1-.7,1.1,3.2,3.2,0,0,1-1,1,5.7,5.7,0,0,0-1.1,1.1,3.2,3.2,0,0,0-1.4-2,5.2,5.2,0,0,1-1.1-1,1.7,1.7,0,0,1,0-1,1.7,1.7,0,0,1,1.9.5,1.3,1.3,0,0,0,1.4.5c.6-.2.9-.7,1.6-.6h.7Zm2.9-2.7a1.9,1.9,0,0,1-1,1A4.1,4.1,0,0,1,42,21l-.3.4-1-.2a14.3,14.3,0,0,0,2-1.4,4.6,4.6,0,0,0,1.4-1.7A2.4,2.4,0,0,1,44.1,19.3ZM31.4,26A2.7,2.7,0,0,1,30,24.6c-.3-.6-.2-1.2-.5-1.8a3.2,3.2,0,0,0-1.1-1.2c-.6-.4-1.3-.5-1.1-1.4a2,2,0,0,0,.2-1.5,10.9,10.9,0,0,0-1.1-1,4,4,0,0,1,2.4-.5l1.5.2a8,8,0,0,0,1.5.3c0,.1,0,.2.1.2a2.4,2.4,0,0,1,.3.9c0,.2-.1.4,0,.6a1.3,1.3,0,0,0,.5.9v.3a3.5,3.5,0,0,0,.6,1.7,6.8,6.8,0,0,0,4.1,2.5c.1,0,.2-.2.1-.2a12.5,12.5,0,0,1-3.4-1.9A4,4,0,0,1,33,19.3a10.1,10.1,0,0,0,.3-1.7,3.7,3.7,0,0,0-.7-1.4,1.6,1.6,0,0,1,.6-2,2.3,2.3,0,0,1,1.8-.6h.9l.9-.4c.8-.2,1.4.5,1.7,1.2l-.9.6h.1c1-.3,1.8-.9,2.8-1.2s1.3-.1,1.6.4a2.9,2.9,0,0,1,.1,1.3,5,5,0,0,0,.2,1.2,2.6,2.6,0,0,1-.2,1.5c-.3.6-1.1,1.2-1.1,2h.1a2.3,2.3,0,0,1,.9-1.4,3.1,3.1,0,0,0,.6-1.3,3.8,3.8,0,0,0-.1-1.5,6.6,6.6,0,0,1,0-1.4c0-.2,0-.3-.1-.4a1.3,1.3,0,0,1,1.1.5c.2.5,0,.8,0,1.3s.2.5.4.8-.2,1-.4,1.4a7.3,7.3,0,0,1-1.7,1.8c-.4.3-1,.5-1.3.9a2.6,2.6,0,0,0-.9-.9l-1.3-1-.4-.3a2.6,2.6,0,0,1,1.5-.2,3.8,3.8,0,0,0,1.5.1,1.6,1.6,0,0,0,1.2-2h-.1a1.5,1.5,0,0,1-.7,1.5,1.9,1.9,0,0,1-1.5.1h-.3a2.3,2.3,0,0,0-.7-1,.7.7,0,0,1-.2-1.1c.1-.1.2-.3.3-.3h.3c.6,0,1-.5,1.6-.4s.9,1.1.6,1.8.1.1.1,0,.5-1.3-.1-1.8a1.4,1.4,0,0,0-.9-.3,3.2,3.2,0,0,0-.9.3h-1a1.8,1.8,0,0,0-.6.9,1.4,1.4,0,0,0,.3.9c.3.3.7.5.9.9a1.4,1.4,0,0,0-1.4.4l-.4-.6a1.3,1.3,0,0,1,.5-1.4h-.1a1.4,1.4,0,0,0-.4,2.2,6.4,6.4,0,0,0,1.3,1l.8.5.9.7h-.3c-.5.1-.9.7-1.4.6s-.6-.4-.9-.6l-.8-.5a1.7,1.7,0,0,0-1.2.2.8.8,0,0,0,.1-.4,1.9,1.9,0,0,0,0-1.3c-.1-.6-.5-1-.4-1.6s.9-1.9,1.7-2.6,0-.1,0-.1a3.4,3.4,0,0,0-2,2.2,1.7,1.7,0,0,0,0,1.4l.3.7a1.1,1.1,0,0,1,.1,1,3.9,3.9,0,0,0-.2,1.5,1.7,1.7,0,0,0,.6,1.1c.3.3.8.5,1.2.9a7.6,7.6,0,0,1,1.1,1.4l-.3.7c-.9-.1-1.8.5-2.7.6A6.1,6.1,0,0,1,31.4,26Zm8.6.9a8.5,8.5,0,0,0,2.2.4,5.7,5.7,0,0,1,1.3-.1,1.6,1.6,0,0,1,.7.9,2.3,2.3,0,0,1-1,2,1.7,1.7,0,0,1-1,.3c-.4.1-.8-.1-1.2-.1h-.9a2.5,2.5,0,0,1-1.2.1c-.3-.2-.4-.6-.6-.8a.9.9,0,0,0-.6-.6c-.6-.3-1,0-1.5.3a1.2,1.2,0,0,1-1.3-.1c-.3-.2-.5-.6-.8-.7s-.8-.3-1.1-.6a1.5,1.5,0,0,1-.4-1.1l1.6.2a7.8,7.8,0,0,0,2.1-.4,4.1,4.1,0,0,1,1.8-.5A7.3,7.3,0,0,0,40,26.9Z" style="fill:#d4465a"/><path d="M40,16.4a.8.8,0,0,0-.4.9c.1.4.4.6.6.9h.1c-.3-.3-.7-.9-.3-1.3s.5-.3.7,0a1.9,1.9,0,0,1,.2.7h0C41,16.9,40.8,15.9,40,16.4Z" style="fill:#d4465a"/><path d="M50.7,20.6a2.3,2.3,0,0,1-1.2,1.2c-.4.3-.6.8-1,1.1A3.7,3.7,0,0,1,45.7,24c-.1,0-.1.1,0,.1a3.3,3.3,0,0,0,3.1-.8,1,1,0,0,0,.5-.6,2.4,2.4,0,0,1,.6-.8,1.8,1.8,0,0,0,.9-1.2Z" style="fill:#d4465a"/><path d="M43.4,11.6a2.8,2.8,0,0,0-2.3,1.6c-.1.1,0,.1.1.1a4,4,0,0,1,2.2-1.7Z" style="fill:#d4465a"/><path d="M62.4,49.9l-2.2.8a3.2,3.2,0,0,0,.3-.9c.1-.1-.1-.1-.1-.1a1.8,1.8,0,0,0-.5.8c-.1.1-.1.2-.2.4l-3.6,1.4a13,13,0,0,0,.8-1.7c0-.1-.1-.2-.1-.1a7.7,7.7,0,0,0-1.4,2.1l-1.2.5-2.8,1.6,1.5-3.1a.1.1,0,0,0-.1-.1,9.8,9.8,0,0,0-2.1,3.7,20.6,20.6,0,0,0-2.5,2.6s.1.1.1,0a27.5,27.5,0,0,1,2.6-2.2,6.2,6.2,0,0,0,3.8.1h0a18.7,18.7,0,0,1-3.4-.3,27.9,27.9,0,0,1,3.4-1.8l1-.5a3.4,3.4,0,0,0,2.6.3c.1,0,.1-.1,0-.1l-2-.4,3.5-1.4h.6a1.4,1.4,0,0,0,.9,0h0a3.8,3.8,0,0,1-1-.3L62.4,50C62.5,50,62.4,49.9,62.4,49.9Z" style="fill:#5b8f3b"/><path d="M34.1,48.7l-1-.9a4.7,4.7,0,0,0-.2-1.7c0-.1-.1-.1-.1,0a3.4,3.4,0,0,1-.1,1v.5L31,46.5h0a7.9,7.9,0,0,0-.5-2.2c0-.1-.3-.1-.2,0a5.9,5.9,0,0,0,.2,1.3,2.1,2.1,0,0,1,0,.8L29,45.4l-1.5-.9a9,9,0,0,0-.8-2.1h0a5.8,5.8,0,0,0,.4,1.9,10.9,10.9,0,0,1-2.7-2.1c-.1-.1-.2,0-.2.1a4.4,4.4,0,0,0,1.8,2l-1.6-.2c-.1,0-.2.1-.1.2a6.9,6.9,0,0,0,2.8.8l1.2.6,1.5.9h-.2a15,15,0,0,0-3,0c-.1,0-.1.1,0,.2a16.6,16.6,0,0,0,2.2.3,5.4,5.4,0,0,0,1.8,0l1.6,1h-.3l-2.8.6a.1.1,0,0,0,.1.1,9.5,9.5,0,0,0,3.7-.5h0l1.2.5A.1.1,0,0,0,34.1,48.7Z" style="fill:#5b8f3b"/><path d="M23.9,51.2a2.2,2.2,0,0,1-.1.8,10.1,10.1,0,0,0-4.4-3.8c-1.9-.7-4.4,0-6-1.4s-.5-.1-.6.2a8.8,8.8,0,0,0,3,7.3,4.1,4.1,0,0,1-1.6-.3.3.3,0,0,0-.4.4A8.7,8.7,0,0,0,19,57.8l-1.6.4c-.3,0-.3.4-.1.5a5.4,5.4,0,0,0,4.1,1c1.3-.1,2.6-1,4-.8a37.1,37.1,0,0,0,4.1,2.8c.1.1.5-.6.4-.6a17.1,17.1,0,0,1-4.1-2.7A6.1,6.1,0,0,0,24.5,51C24.3,50.7,24,50.8,23.9,51.2Z" style="fill:#6c9433"/><path d="M23.3,53.9h0a16.4,16.4,0,0,0-.2,2.3l-2.7-2.4c-.2-1.2-.3-2.5-.6-3.7h-.1c0,1.1.2,2.3.2,3.4s-.3-.3-.4-.4L17,50.7c-.1-.5-.1-1-.2-1.5s-.1-.1-.1,0a4.9,4.9,0,0,0-.1,1.2l-2-1.8a.1.1,0,0,0-.1.1c.5.7,1.1,1.3,1.6,1.9l-1.4-.2h0a3.9,3.9,0,0,0,1.8.6,34.5,34.5,0,0,0,2.8,2.6c0,.1.1.1.2.2l-3.1-.4c-.1,0-.1.1,0,.2a15.1,15.1,0,0,0,3.6.6,28.8,28.8,0,0,0,2.7,2.2H19.3c-.1,0-.1.1,0,.1a10.2,10.2,0,0,0,3.9.2l1.3.9c.1.1.2,0,.1-.1l-1.1-1h0A21.1,21.1,0,0,0,23.3,53.9Z" style="fill:#5b8f3b"/></g></g></svg>