<svg xmlns="http://www.w3.org/2000/svg" viewBox="0 0 57.8 47.1"><g id="Layer_2" data-name="Layer 2"><g id="Layer_1-2" data-name="Layer 1"><path d="M19.4,40c-.1-3.2-.1-6.5-.2-9.7,0-.6-.9-.5-.9.1.1,3.1.1,6.2.2,9.3-1-.2-2-.2-3-.3s-.5.8,0,.9l2.2.2h-.3l-1.6.8c-.5.3,0,1,.5.8l1.5-.8.9-.5a16.4,16.4,0,0,1-.2,2.2c-.1.5.8.7.9.2a15.1,15.1,0,0,0,.2-3C19.6,40.2,19.5,40,19.4,40Z" style="fill:#e08d63"/><path d="M42.3,24.3c0,1,1.2,1.7,1.9.9,2.7-3.2,5.9-7.7,4.3-12-.6-1.5-2.9-1.5-3.8,0C43,16.7,43,20.6,42.3,24.3Z" style="fill:#c64f64"/><path d="M43,23.8c-.8.8-.5,2.3.7,2.3,4.6-.2,10.6-.9,12.9-5.4.8-1.6-1-3.4-2.7-3.1-4.2,1.2-7.3,4.1-10.9,6.2Z" style="fill:#c64f64"/><path d="M42.4,24c-.4,1.2.6,2.6,1.8,1.9,4.6-2.7,10.1-6.6,10.1-12.3-.1-2-2.8-2.9-4.4-1.6-3.5,3.4-5.1,8-7.5,12Z" style="fill:#fb7f99"/><path d="M6,7.6A15.8,15.8,0,0,1,7.3,5,8,8,0,0,1,9.4,3a8.9,8.9,0,0,1,2.7-1.5l1.4-.3C19.2.3,24.6,3.1,28,7.2l1.2,1.4c2.5,3.2,4.4,7.1,7.2,10.3a8,8,0,0,0,1.3,1.3c2.3,2,5,3.1,7.8,2l.7-.3h.3c.7,0,.9.7.7,1.3a.3.3,0,0,1-.1.2c-.4.6-1,1.2-1.5,1.8l-1.2,1.1c-3.6,3.5-7.9,7-13.2,7.9l-1.9.2c-9.3.9-19.2-3.2-22.9-12.6-.4-.9-.7-1.8-1-2.7A17.5,17.5,0,0,1,6,7.6Z" style="fill:#fbabbc"/><path d="M9.4,18.3a15.8,15.8,0,0,1,6.8.5,13.5,13.5,0,0,1,3,1.4,7.3,7.3,0,0,1,2.1,2.2,14.1,14.1,0,0,0,4.9,3.8,11.2,11.2,0,0,0,5.9,1.7,9.8,9.8,0,0,1,3.4.2c1,.3.9,1.4.9,2.3a5.4,5.4,0,0,1-.4,2.2,19.4,19.4,0,0,1-4.8,1.6l-1.9.2c-9.3.9-19.2-3.2-22.9-12.6-.3-.6-.5-1.4-.8-2.1S8.1,18.5,9.4,18.3Z" style="fill:#ffdce5"/><path d="M24.3,14.9a13.3,13.3,0,0,1-2.9,2.5l-2.5,1.1C24,21.7,30.4,24.7,36,21.9c2.1-1.2,1.6-4.5-.6-5.5S28,15,24.3,14.9Z" style="fill:#c64f64"/><path d="M21.4,17.4,19,18.5c2.5,5.6,6.2,11.3,12.3,12.3,2.6.3,4.4-3,3-5.3-2.9-4.1-6.9-6.9-10.7-9.8A16.3,16.3,0,0,1,21.4,17.4Z" style="fill:#c64f64"/><path d="M24.1,15.1a14.3,14.3,0,0,1-2.7,2.3l-2.1,1c4.4,5.7,9.3,10.5,16.9,9.5,3-.5,3.8-4.6,1.6-6.7C33.2,17.5,29.3,17.1,24.1,15.1Z" style="fill:#fb7f99"/><path d="M1.1,6.6c.1.3.6.4.9.5l2.2.7.8.3a7.5,7.5,0,0,0,2.9.6,1.7,1.7,0,0,0,.5-3.2A5.4,5.4,0,0,0,5.6,5L4,5.2a12.5,12.5,0,0,0-1.9.3C1.7,5.7.8,6,1.1,6.6Z" style="fill:#1d262d"/><path d="M25.4,42.5c-.1-3.2-.1-6.4-.2-9.6a.5.5,0,0,0-.9,0c.1,3.1.1,6.2.2,9.3l-3-.3c-.5-.1-.5.9.1.9l2.1.2-.3.2-1.6.7c-.5.3,0,1.1.5.8l1.5-.7.9-.5a7.5,7.5,0,0,1-.2,2.1c-.1.6.8.8.9.2a14.3,14.3,0,0,0,.3-2.9C25.7,42.7,25.6,42.6,25.4,42.5Z" style="fill:#e08d63"/><path d="M14.1,3.5c3.5.8,2.2,6.2-1.3,5.3S10.6,2.6,14.1,3.5Z" style="fill:#fff"/><path d="M13.9,4.4A1.8,1.8,0,0,1,13,7.9,1.8,1.8,0,0,1,13.9,4.4Z" style="fill:#1d262d"/><path d="M12.9,4.9a.7.7,0,0,0,0,1.3A.7.7,0,1,0,12.9,4.9Z" style="fill:#fff"/><path d="M15.6,1A16.5,16.5,0,0,1,28,7.2l1.2,1.4c1.8,2.3,3.2,4.9,4.9,7.4l1.3.4a3.5,3.5,0,0,1,1.9,3.4l.4.4a9.1,9.1,0,0,0,4.9,2.4c.4-3.2.7-6.4,2.1-9.4a2.4,2.4,0,0,1,2-1.1,2,2,0,0,1,1.8,1.1.4.4,0,0,0,.1.3A9.3,9.3,0,0,1,49.9,12a2.7,2.7,0,0,1,4.4,1.6,8.5,8.5,0,0,1-1.1,4.2l.7-.2h.4c1.6,0,3,1.6,2.3,3.1-2.2,4.1-7.5,5.1-11.9,5.3l-.3.3A33,33,0,0,1,36,32.6h0l-1.1.5h-.2l-.9.3h-.3l-.8.2h-.3l-1.2.3-1.9.2-2.3.2H25.3c0,2.7.1,5.3.1,8,.2.1.3.2.3.4a14.3,14.3,0,0,1-.3,2.9c0,.2-.2.3-.4.3a.5.5,0,0,1-.5-.5,7.5,7.5,0,0,0,.2-2.1l-.9.5-1.5.7h-.2a.5.5,0,0,1-.3-.9l1.6-.7.3-.2-2.1-.2c-.6,0-.6-.9-.1-.9h0l3,.3c0-2.6-.1-5.2-.1-7.8a21,21,0,0,1-5.1-1c0,2.2.1,4.4.1,6.6.1,0,.2.2.2.3a15.1,15.1,0,0,1-.2,3c-.1.2-.2.3-.4.3s-.6-.2-.5-.5a16.4,16.4,0,0,0,.2-2.2l-.9.5-1.5.8h-.2c-.4,0-.7-.6-.3-.8l1.6-.8h.3l-2.2-.2c-.5-.1-.6-.9,0-.9h0c1,.1,2,.1,3,.3-.1-2.2-.1-4.4-.1-6.6a19.7,19.7,0,0,1-12-11.3,6.1,6.1,0,0,0-.5-1.2.6.6,0,0,0-.1-.4c0-.2-.1-.3-.2-.5h.1l-.3-.6A18.9,18.9,0,0,1,5.7,8.3L5,8.1l-.8-.3h0L2,7.1c-.3-.1-.8-.2-.9-.5s.6-.9,1-1.1A12.5,12.5,0,0,1,4,5.2L5.6,5H7.3A8,8,0,0,1,9.4,3a8.9,8.9,0,0,1,2.7-1.5l1.4-.3L15.6,1m0-1L13.4.2,11.7.6A11.8,11.8,0,0,0,8.8,2.2,11.2,11.2,0,0,0,6.8,4H5.6l-1.7.2H3.3l-1.5.3A2.7,2.7,0,0,0,.1,5.9,1.3,1.3,0,0,0,.2,7.1,1.9,1.9,0,0,0,1.5,8h.2l2.2.7.6.2a18.4,18.4,0,0,0,0,10.4v.2h0l.2.5c0,.1.1.3.1.4h.1c0,.1.1.2.1.4l.5,1.2A20.6,20.6,0,0,0,17.4,33.8V35c0,1.2,0,2.4.1,3.5h-2a1.3,1.3,0,0,0-1.4,1.3,1.5,1.5,0,0,0,.7,1.3,1.4,1.4,0,0,0-.2,1.1,1.6,1.6,0,0,0,1.5,1.1,1.1,1.1,0,0,0,.7-.2l.8-.4c0,.1-.1.2-.1.3a1.8,1.8,0,0,0,.3,1.2,1.7,1.7,0,0,0,1.2.5,1.5,1.5,0,0,0,1.4-1.1v-.3l.4.4a1.6,1.6,0,0,0-.2,1,1.6,1.6,0,0,0,1.5,1.2l.7-.2a2,2,0,0,1,.8-.4v.2a2.4,2.4,0,0,0,.3,1.2,1.8,1.8,0,0,0,1.2.5A1.3,1.3,0,0,0,26.4,46a16.3,16.3,0,0,0,.3-3.1c-.1-.3-.1-.6-.3-.8s0-2.9-.1-4.4V35.5H27l2.4-.2,2-.2,1.2-.3H33l.8-.2.3-.2,1-.3h.2l1.1-.5A33.2,33.2,0,0,0,45.1,27c4.3-.3,9.9-1.2,12.4-5.8a3.2,3.2,0,0,0-.2-3,4.2,4.2,0,0,0-2.5-1.6,10.5,10.5,0,0,0,.5-3,3.4,3.4,0,0,0-3.6-3.2,4.1,4.1,0,0,0-2.4.8h-.1l-.5.6a3.2,3.2,0,0,0-2-.7,3.3,3.3,0,0,0-2.8,1.5h-.1a29.1,29.1,0,0,0-2,8.1c0,.2-.1.4-.1.6a9.4,9.4,0,0,1-3.4-2h0a4.2,4.2,0,0,0-2.5-3.9h-.1l-.9-.3a21.3,21.3,0,0,1-1.6-2.5L30,8,28.8,6.6C25.3,2.5,20.4,0,15.6,0Zm4.8,39.6c0-1.6-.1-3.2-.1-4.8h0a15.5,15.5,0,0,0,3.1.6v2.5c0,1.1.1,2.2.1,3.3h-2a1.6,1.6,0,0,0-.9.3v-.9a.8.8,0,0,0-.2-.7Z" style="fill:#c64f64"/></g></g></svg>