<svg xmlns="http://www.w3.org/2000/svg" viewBox="0 0 77.5 129.7"><g id="Layer_2" data-name="Layer 2"><g id="Layer_1-2" data-name="Layer 1"><path d="M19.4,124.2a1.4,1.4,0,0,1-1.3-.7,2.2,2.2,0,0,1-.1-2.1h-.3l-1,.3-1.4.3a1.6,1.6,0,0,1-1.7-1,1.6,1.6,0,0,1,.2-1.6c-1.1,0-1.9-.4-2.1-1.2s-.2-1.1,1-1.9a23.8,23.8,0,0,1,7.2-2.5,13.7,13.7,0,0,0,2.9-.7c1.1-.5,1.1-.5,1.6-2.2s.3-1.4.5-2.3.6-2.5,1-4.2l.2-.8,6,.2-.7,1.4a18,18,0,0,0-2.2,8.6,1.8,1.8,0,0,0,.1,1,2.9,2.9,0,0,1-.9,3L26.5,119c-1.2.6-2.5,1.2-5.2,4.2a3,3,0,0,1-1.9,1Z" style="fill:#ffaa5a"/><path d="M26.9,104.8h3.6a19.6,19.6,0,0,0-2.3,8.9c-.1,1.3.7,2.5-.4,3.3s-3.1,1-7.2,5.4a1.9,1.9,0,0,1-1.2.7c-.6,0-.8-.5-.4-1.7s.5-1.2.3-1.4H19c-.5,0-1.4.5-2.6.8l-1.1.3c-.9,0-1.3-.5,0-1.8l1.2-1.1-2.2.3h-.4c-1.1,0-1.8-.5-.7-1.2,3.3-2.1,7.8-2.3,10-3.2s1.5-.6,2.1-2.8.8-3.5,1.6-6.5m-1.5-2.1-.4,1.6a40.2,40.2,0,0,0-1,4.2c-.3.9-.4,1.7-.6,2.2A3.6,3.6,0,0,1,23,112l-.6.3-2.7.6a21.3,21.3,0,0,0-7.5,2.7,2.7,2.7,0,0,0-1.5,3,2.8,2.8,0,0,0,1.8,1.7,2.5,2.5,0,0,0,.1,1.2,2.7,2.7,0,0,0,2.7,1.6l1.5-.3a3.2,3.2,0,0,0,.5,1.3,2.5,2.5,0,0,0,2.1,1.1,3.8,3.8,0,0,0,2.6-1.3c2.7-2.9,3.8-3.4,5-4l1.9-1.1a4,4,0,0,0,1.4-4.1,1.2,1.2,0,0,1-.1-.8,17.1,17.1,0,0,1,2.1-8.1l1.4-2.8H25.4Z" style="fill:#ff8d3d"/><path d="M44.4,128.7c-.5,0-1.4-.3-1.7-2.1a6.6,6.6,0,0,1-.3-1.3c-.4.2-1.1.9-1.8,1.4h-.1a3.6,3.6,0,0,1-2.1,1,1.3,1.3,0,0,1-1.1-.5,2.7,2.7,0,0,1-.4-2.5v-.4a.7.7,0,0,0,.1-.5l-1.6.5a3.1,3.1,0,0,1-1.3.3c-1.2,0-1.6-.6-1.7-.9s-.2-1.1.6-2a17.5,17.5,0,0,1,8.6-4.5l1.2-.4H43c.5-.1.7-.1,1-1.5a74.9,74.9,0,0,0,.8-9.4v-.8l5.8-1.2-.3,1.6a42,42,0,0,0-1.2,11.6,4.4,4.4,0,0,0,.2,1,3.1,3.1,0,0,1-.7,3.2c-.9.9-1.3,2.4-2.1,5.2h0c-.4,1.3-1.2,2.1-2.1,2.1Z" style="fill:#ffaa5a"/><path d="M49.3,105.2a46.6,46.6,0,0,0-1.2,12c.1,1.3.8,2.4-.2,3.4s-1.6,2.7-2.4,5.7c-.2.9-.7,1.4-1.1,1.4s-.6-.4-.8-1.2-.4-2.2-1-2.3h0c-.6,0-1.5.8-2.7,1.8a2.8,2.8,0,0,1-1.5.8c-.5,0-.7-.5-.5-1.8s.3-1.8-.1-2h-.5a6.6,6.6,0,0,0-2.2.6l-1,.2c-.8,0-1.1-.4-.4-1.2,3.2-3.3,7.2-3.9,9.4-4.6s1.4-.3,1.9-2.4a69.9,69.9,0,0,0,.8-9.6l3.5-.7m2.7-2.5-3.1.6-3.5.7-1.6.3v1.5a57.5,57.5,0,0,1-.8,9.3,4.5,4.5,0,0,0-.2.8h-.3l-1.2.3c-2.4.7-6,1.7-9,4.8a2.8,2.8,0,0,0-.8,3.1,2.8,2.8,0,0,0,2.6,1.5l1.7-.3h0a3.3,3.3,0,0,0,.7,2.6,2.6,2.6,0,0,0,1.9.8,4.5,4.5,0,0,0,2.7-1.2l.2-.2.4-.3c.6,2.4,2.2,2.6,2.7,2.6s2.5-1.1,3-2.8v-.2c.7-2.7,1.1-4,1.8-4.7a4.2,4.2,0,0,0,.9-4.2c0-.2-.1-.5-.1-.7a44.1,44.1,0,0,1,1.1-11.4l.8-3Z" style="fill:#ff8d3d"/><path d="M22.8,101.7c0,1.4.2,3.3,1.2,4.4s6.6,2.6,8.2,1.8,1.7-2.3,2.2-3.4Z" style="fill:#4f3332"/><path d="M45.4,109.5a8,8,0,0,1-3-.4,5.9,5.9,0,0,1-1.7-1h-.4a44.4,44.4,0,0,1-16.9-3.5A27.2,27.2,0,0,1,7.9,88.2c-3.3-10.1-.7-22.3,7.7-36.4l.5-.8,14.2,2.4.2.9C33,63.6,42,66.2,51.4,67.6l4.2.3a17,17,0,0,0,11.5-4.1c2.3-2,4-2.9,5.4-2.9a2.8,2.8,0,0,1,2.4,1.4c.9,1.6.5,4.3-.3,6.5a2.8,2.8,0,0,1,1,.9c.8,1.5.4,4-1.3,7.3a3.4,3.4,0,0,1,.6,1.2c.5,2.4-1.2,5.5-5,9.1A28.6,28.6,0,0,1,56,104.4l-1.7.9a5.7,5.7,0,0,1-1.4,2.4C51.2,109.2,47.2,109.5,45.4,109.5Z" style="fill:#5f493f"/><path d="M16.9,52.6l12.2,2.1C31.9,65.3,42.6,67.8,51.2,69a22.5,22.5,0,0,0,4.4.4,18.3,18.3,0,0,0,12.5-4.5c2.1-1.8,3.5-2.5,4.4-2.5,2.4,0,1.4,4.8-.1,7.8l1-.2c1.7,0,1.6,2.7-1.1,7.5,2,.5,1.9,3.8-3.7,9a27.7,27.7,0,0,1-13.3,16.6L53,104.2a4.8,4.8,0,0,1-1.1,2.4c-1.1.9-4.1,1.4-6.5,1.4a8.5,8.5,0,0,1-2.5-.3,2.9,2.9,0,0,1-1.5-1.2H40.3a43.3,43.3,0,0,1-16.4-3.4C11.7,98-.9,82.3,16.9,52.6m-1.5-3.3-1.1,1.8C5.7,65.5,3.1,78.1,6.5,88.7A28.7,28.7,0,0,0,22.8,106a46.7,46.7,0,0,0,17.4,3.6,5.6,5.6,0,0,0,1.7.9,8.4,8.4,0,0,0,3.5.5c.6,0,6,0,8.5-2.2a6,6,0,0,0,1.6-2.4l1.2-.7A29.9,29.9,0,0,0,71.2,88.1c4.1-3.9,5.8-7.4,5.2-10.2a4.2,4.2,0,0,0-.4-1c1.7-3.5,2-6.1.9-7.9l-.6-.7c.7-2.2,1-4.9-.2-6.8a4.1,4.1,0,0,0-3.6-2.1c-1.8,0-3.8,1-6.4,3.3a15.1,15.1,0,0,1-10.5,3.7l-3.9-.3C42.8,64.8,34.2,62.4,32,53.9L31.5,52l-1.9-.3-12.2-2-2-.4Z" style="fill:#3f312a"/><path d="M58.2,87.8c-8.8,1.8-18,1.9-25.3-3.7-2.6-1.9-3.7-1.1-.8,1.3,7.6,6.2,17.1,6,26.4,4.2A.9.9,0,0,0,58.2,87.8Z" style="fill:#4f3332"/><path d="M65,78.9c.9-5.4-12.6-14-25.9-14.6L29.3,79.6c3.5,5.9,19.9,14.9,31.6,9.2a6.3,6.3,0,0,0,3.6-3.6C68.3,83.7,67.4,80.7,65,78.9Z" style="fill:#936861"/><path d="M51.9,74.9A40.1,40.1,0,0,1,65,78.8a4.4,4.4,0,0,0-.3-2.2,47.4,47.4,0,0,0-12.3-3.5C51.2,73,50.7,74.7,51.9,74.9Z" style="fill:#a87f7b"/><path d="M46.3,82.7a.9.9,0,0,0-.5,1.8,81.1,81.1,0,0,0,17.7,2.4,4.2,4.2,0,0,0,1-1.7A80.6,80.6,0,0,1,46.3,82.7Z" style="fill:#a87f7b"/><path d="M48.6,65.7A55.5,55.5,0,0,0,33.3,63L28.5,79.5c1.5,2.6,8.1,9,16.1,9.1,5.2,0,7.8-1.9,6.6-3.9,10-1,9.8-7.8,4.9-10.7C58.3,72.3,56.7,68.2,48.6,65.7Z" style="fill:#5f493f"/><path d="M33.3,63a55.5,55.5,0,0,1,15.3,2.7,21,21,0,0,1,4.9,2.1c7.1,3.1,12.1,7.7,11.5,11.1,2.4,1.8,3.3,4.8-.5,6.3a6.3,6.3,0,0,1-3.6,3.6c-6.2,3-13.8,1.9-20-.7a22.1,22.1,0,0,1-12.4-8.6" style="fill:none;stroke:#3f312a;stroke-linecap:round;stroke-linejoin:round;stroke-width:3px"/><path d="M22.4,63.2A3.4,3.4,0,0,1,20,62.1a8.1,8.1,0,0,1-1.8-4.8,5.9,5.9,0,0,1-1.7.4,2.9,2.9,0,0,1-2.3-1.2c-.6-1-.6-2.4.1-4.2a16.7,16.7,0,0,1,.8-2c2.4-6.1,4.5-11.4,4.2-21a6.1,6.1,0,0,0-.1-1.4l-1.3-.3c-7-1-10.6-5.2-10.1-11.9C8.6,5.9,14.9,1.5,20.9,1.5S31.5,4.7,33,11.9s.6,15.9-.5,23.4a84.9,84.9,0,0,0-1.3,18.3c.2,2.4-.2,4.1-1.1,5a2.3,2.3,0,0,1-1.9.9h0a2.2,2.2,0,0,1-1.3-.4C26,61.7,24.4,63.2,22.4,63.2Z" style="fill:#3b7e82"/><path d="M20.9,3c4.7,0,9.4,3.2,10.7,9.2,2.9,14.2-2.9,27-1.9,41.5.3,3.1-.5,4.3-1.5,4.3s-1.7-1-2.1-2.2c-.4,3.8-2.1,5.9-3.7,5.9s-3.1-2.3-2.8-7.5a4.5,4.5,0,0,1-3.1,2c-1.1,0-1.7-1.1-.8-3.4,2.7-7,5.5-12.6,5.1-23.5,0-2.6-.2-2.8-2.7-3.2-6.8-.9-9.2-4.9-8.8-10.3C10,7.1,15.5,3,20.9,3m0-3C14.4,0,7.1,4.9,6.3,15.6,5.8,23.1,9.9,28,17.7,29.1h.1v.2c.3,9.4-1.8,14.5-4.1,20.5a11.9,11.9,0,0,0-.8,2c-.9,2.2-.9,4.1.1,5.6a4.4,4.4,0,0,0,3.5,1.8h.4a8.9,8.9,0,0,0,2,4,4.8,4.8,0,0,0,3.5,1.6A6.2,6.2,0,0,0,27.7,61h.5a4.2,4.2,0,0,0,3-1.3c1.2-1.3,1.7-3.4,1.5-6.2A81.7,81.7,0,0,1,34,35.6c1.1-7.7,2.3-15.6.5-24C33.1,4.7,27.6,0,20.9,0Z" style="fill:#28575c"/><path d="M24.5,17.9c.5,2.5,5,1.2,4.1-1.5S24,15.4,24.5,17.9Z" style="fill:#64adab"/><path d="M8.6,16.5a23.3,23.3,0,0,1-6.9,9.3c-1.2.9-1,2.2,1.8,2.4,5.7.4,11.2-1.6,13.6-3.4s2.4-2.9-.8-4.8c-1.6-.9-2.4-2.6-3.6-4S9.7,14,8.6,16.5Z" style="fill:#ffaa5a;stroke:#ff8d3d;stroke-miterlimit:10;stroke-width:2px"/><path d="M18.1,21.6a3.1,3.1,0,0,0-1-1c-3.1,4.2-13,7.5-15.8,5.5-.4.6-.4,1.1.2,1.5C4.3,29.4,14.9,26.3,18.1,21.6Z" style="fill:#ea7500"/><path d="M20.4,17.4A4.5,4.5,0,1,0,15.9,13a4.6,4.6,0,0,0,1.3,3.1A4.4,4.4,0,0,0,20.4,17.4Z" style="fill:#72b75b"/><path d="M20.4,8.9a4,4,0,0,1,2.9,1.2,4.1,4.1,0,0,1-5.8,5.8h0a4.1,4.1,0,0,1,0-5.8,3.8,3.8,0,0,1,2.9-1.2M15.6,13a4.8,4.8,0,0,0,4.8,4.8A4.9,4.9,0,1,0,15.6,13Z" style="fill:#fff"/><circle cx="20.4" cy="13" r="2.6" style="fill:#424242"/><circle cx="21.8" cy="12.2" r="0.6" style="fill:#fcfcfc"/></g></g></svg>