<svg xmlns="http://www.w3.org/2000/svg" viewBox="0 0 120 134.3"><g style="isolation:isolate"><g id="Layer_2" data-name="Layer 2"><g id="Layer_1-2" data-name="Layer 1"><g id="Flower5"><path d="M61.8,63.9c15.8,0,28.6,2.7,28.6,5.9a2,2,0,0,1-.9,1.5v27A15.8,15.8,0,0,1,83.1,111a30.9,30.9,0,0,1,2.9,6.8,57.2,57.2,0,0,1,1.3,5.8c.5,3.8,0,6.6-1.3,7.1h-.4c-1.7,0-4.2-3.5-6-8.6a17.2,17.2,0,0,1-.7-2.1,35.5,35.5,0,0,1-1.4-6.4l-1.8.4-9.6.8c0,.9.1,1.8.1,2.7s-.1,2.4-.2,3.5c-.4,5.1-1.9,8.8-3.5,8.8s-3.1-3.6-3.6-8.6c-.1-1.2-.2-2.4-.2-3.7s.1-1.7.1-2.6a80.4,80.4,0,0,1-10.8-.7h-.9a39.6,39.6,0,0,1-1.2,6.2,27.6,27.6,0,0,1-.8,2.7c-1.7,4.8-4,8.3-5.7,8.3h-.3c-1.3-.3-1.8-2.9-1.5-6.4a33.1,33.1,0,0,1,1.1-6.4,38.1,38.1,0,0,1,2.5-6.6,15.9,15.9,0,0,1-7.1-13.2V71.3a2,2,0,0,1-.9-1.5c0-3.2,12.8-5.9,28.6-5.9m0-3A112.6,112.6,0,0,0,41,62.7c-5,1.1-10.8,2.8-10.8,7.1a4.3,4.3,0,0,0,.9,2.6V98.6a18.4,18.4,0,0,0,6.4,14.1c-.6,1.5-1.2,3.2-1.7,4.9a46.7,46.7,0,0,0-1.2,7c-.5,6.9,1.8,9,3.8,9.5l1,.2c4.4,0,7.2-6.5,8.6-10.3.3-1,.6-1.9.8-2.9a24.5,24.5,0,0,0,.8-3.7c2,.2,4.1.4,6.1.4,0,1.3.1,2.5.2,3.7.7,7.3,3,11.3,6.6,11.3s5.9-4.1,6.5-11.5c.1-1.2.2-2.4.2-3.7l5.8-.5c.3,1.2.6,2.5,1,3.7a22.5,22.5,0,0,0,.8,2.4c1.4,3.9,4.5,10.5,8.8,10.5l1.2-.2c2.1-.6,4.4-2.9,3.4-10.2a40.4,40.4,0,0,0-1.3-6.4c-.6-1.8-1.3-3.6-2-5.2a19,19,0,0,0,5.6-13.4V72.4a4.3,4.3,0,0,0,.9-2.6c0-4.3-5.8-6-10.8-7.1a112.6,112.6,0,0,0-20.8-1.8Z" style="fill:#ff8d3d"/><path d="M86,130.7c-1.8.5-4.5-3.2-6.4-8.6a17.2,17.2,0,0,1-.7-2.1c-2-6.5-2-12.3,0-12.9s5.1,4.2,7.1,10.7a57.2,57.2,0,0,1,1.3,5.8C87.8,127.4,87.3,130.2,86,130.7Z" style="fill:#ffaa5a"/><path d="M45.9,120.3a27.6,27.6,0,0,1-.8,2.7c-1.8,5.1-4.3,8.7-6,8.2s-1.8-2.9-1.5-6.4a33.1,33.1,0,0,1,1.1-6.4c1.8-6.6,4.9-11.5,6.8-10.9S47.7,113.8,45.9,120.3Z" style="fill:#ffaa5a"/><path d="M66.2,117.5c0,1.2-.1,2.4-.2,3.5-.4,5.1-1.9,8.8-3.5,8.8s-3.1-3.6-3.6-8.6c-.1-1.2-.2-2.4-.2-3.7,0-6.8,1.7-12.3,3.8-12.3S66.2,110.7,66.2,117.5Z" style="fill:#ffaa5a"/><path d="M45.9,120.3a27.6,27.6,0,0,1-.8,2.7c-2.7.5-5.3,1.2-7.5,1.8a33.1,33.1,0,0,1,1.1-6.4c1.8-6.6,4.9-11.5,6.8-10.9S47.7,113.8,45.9,120.3Z" style="fill:#ffaa5a;opacity:0.5;mix-blend-mode:multiply"/><path d="M66.2,117.5c0,1.2-.1,2.4-.2,3.5-2.4,0-4.8,0-7.1.2-.1-1.2-.2-2.4-.2-3.7,0-6.8,1.7-12.3,3.8-12.3S66.2,110.7,66.2,117.5Z" style="fill:#ffaa5a;opacity:0.5;mix-blend-mode:multiply"/><path d="M87.3,123.6l-7.7-1.5a17.2,17.2,0,0,1-.7-2.1c-2-6.5-2-12.3,0-12.9s5.1,4.2,7.1,10.7A57.2,57.2,0,0,1,87.3,123.6Z" style="fill:#ffaa5a;opacity:0.5;mix-blend-mode:multiply"/><path d="M89.5,68.4V98.3A15.8,15.8,0,0,1,75.7,114a114.9,114.9,0,0,1-27.7.2A15.7,15.7,0,0,1,34.1,98.6V68.4Z" style="fill:#ffeb81"/><ellipse cx="61.8" cy="69.8" rx="28.6" ry="5.9" style="fill:#fff1b6"/><path d="M86.3,69.3c0,.7-.8,1.3-2.2,1.8-3.8,1.6-12.4,2.7-22.4,2.7S45,72.9,40.6,71.6c-2.2-.7-3.5-1.5-3.5-2.3,0-2.5,11-4.5,24.6-4.5S86.3,66.8,86.3,69.3Z" style="fill:#ffaa5a"/><path d="M84.1,71.1c-4.9,2-15.4,2.6-20.8,2.7A128.9,128.9,0,0,1,49,73.1a37.1,37.1,0,0,1-8.4-1.5c0-2.1,8.1-3.1,10.2-3.3A109.1,109.1,0,0,1,71.6,68C74,68.2,82.8,69.1,84.1,71.1Z" style="fill:#774c42"/><path d="M59.6,73.7H57.4a47.3,47.3,0,0,1-2.7-5.5h0l-.2-.3-.8-2h0C49.8,55.8,45.8,39,50.4,17.1l1,.5s-4.3,26.2,2.9,46l.9,2.3.9,1.9A38.2,38.2,0,0,0,59.6,73.7Z" style="fill:#ceada7"/><path d="M83.4,29.9l-8,22.3c-.2.5-2.6,9.4-3.4,13.1a5,5,0,0,1-.2,1.2c-.1.5-.1,1-.2,1.5h0c-.1.1-.1.2-.1.4h0v.2a38.8,38.8,0,0,0-.4,4.8H69.7c0-.7.1-1.4.1-2.2s.2-1.7.3-2.7a4.3,4.3,0,0,0,.1-.5v-.2c.1-.8.2-1.6.4-2.5h0l.6-3c.7-3.2,3.5-11.7,3.7-12.2,2.4-5.9,3.7-13.4,6.9-21Z" style="fill:#ccb7b4"/><path d="M100.2,49.8v.7c-13.7-6.2-20.1,3.9-23.1,13.2a7.6,7.6,0,0,0-.4,1.1l-.9,3.7a31.9,31.9,0,0,0-.8,4.6H73.9a35.6,35.6,0,0,1,.9-4.9c.2-1,.4-2,.7-3l.3-1.2C83,39.3,100.2,49.8,100.2,49.8Z" style="fill:#ccb7b4"/><path d="M102.9,66.7a4.6,4.6,0,0,1-2.1-.5c-.8-.4-3-1.7-1.7-9.6-4.1,4.3-5.9,5-7.2,5a2.8,2.8,0,0,1-1.3-.3c-1.9-1-2.5-4.4-1.9-6.8a9.3,9.3,0,0,1,.8-2.1c.1-.1.3-.3.3-.4s-.4-.3-.8-.6a4.7,4.7,0,0,1-2.3-2.5,5.2,5.2,0,0,1,1.1-5.2,3.3,3.3,0,0,1,2.7-1c2.8,0,7.1,2.2,10.7,4.4,1.6-10.3,3.4-12.6,5.5-12.7h.2c2.1,0,4.3,2.5,5.1,4.8a6.4,6.4,0,0,1,.3,2.2v.5h1a5,5,0,0,1,3.3.9,5.1,5.1,0,0,1,1.8,5c-.3,1.4-1.7,3.3-8,3.9,5.6,2.9,6.7,4.7,6.4,6.5s-3.5,3.7-6,3.9h-.4a8.4,8.4,0,0,1-1.8-.3h-.5a2.9,2.9,0,0,0-.3,1,5.9,5.9,0,0,1-1.7,2.9A5.8,5.8,0,0,1,102.9,66.7Z" style="fill:#84205c"/><path d="M106.9,35.9c1.2,0,3,1.8,3.6,3.7s0,2.5.8,3.3,2.9,0,4.4,1.2a3.9,3.9,0,0,1,1.3,3.4c-.7,2.7-7.9,3.1-12.2,3.1h-.7c9.3,3.9,11.5,6.1,11.2,7.4s-2.5,2.5-4.6,2.7h-.3c-1,0-1.7-.4-2.3-.4l-.7.2c-1.4.8-.8,2.8-2.2,4a3.9,3.9,0,0,1-2.3.7,3.2,3.2,0,0,1-1.4-.3c-2.6-1.5-.6-9.9.4-13.7-5.7,6.9-8.6,8.9-10,8.9h-.6c-1-.6-1.7-3.1-1.2-5.2s1.4-2,1.1-3.1-2.4-1.6-3.1-3.3a3.7,3.7,0,0,1,.7-3.6,2.4,2.4,0,0,1,1.7-.6c3.3,0,9.4,3.8,11.8,5.4,1.5-10.8,3.1-13.6,4.5-13.7h.1m0-3h-.3c-3.2.2-5.1,3.4-6.5,11.8-4.1-2.3-7.3-3.5-9.6-3.5a5.6,5.6,0,0,0-3.8,1.4,6.5,6.5,0,0,0-1.4,6.8,6,6,0,0,0,2.5,3,16.2,16.2,0,0,0-.6,1.7c-.7,3.1.1,7.2,2.7,8.6a4.5,4.5,0,0,0,2,.4c1.4,0,2.9-.5,5.3-2.5-.1,3.6.9,5.8,2.8,6.9a5.4,5.4,0,0,0,2.9.7,7.1,7.1,0,0,0,4.1-1.3,6.9,6.9,0,0,0,2.1-3.3h1.8c3.1-.2,6.8-2.2,7.4-5.1s-.6-4-3.6-6c3-.9,4.6-2.3,5.2-4.3a6.8,6.8,0,0,0-2.4-6.6,6.3,6.3,0,0,0-3.7-1.2c-.1-.5-.2-1.1-.4-1.8-.9-2.8-3.7-5.8-6.5-5.8Z" style="fill:#5e1441"/><path d="M90.1,43.5c-1,0-4,0-8.3-10.7-6.6,6.5-9.1,7.3-10.6,7.3a2.3,2.3,0,0,1-1.4-.4c-1.8-1.1-2.2-4.6-1.4-7a6.5,6.5,0,0,1,1-1.9l.3-.5c0-.1-.3-.3-.7-.6A5.4,5.4,0,0,1,66.9,27a5.1,5.1,0,0,1,1.5-5.1,3.6,3.6,0,0,1,2.3-.8c1.6,0,3.8.8,6.5,2.4-2.9-5.7-2.7-7.8-1.3-9a3.7,3.7,0,0,1,2.7-.9,8,8,0,0,1,4.3,1.3,6.6,6.6,0,0,1,1.7,1.5c.1.2.3.3.3.4a2.8,2.8,0,0,0,.9-.5,5,5,0,0,1,3.1-1.4H89a5,5,0,0,1,4.4,2.7c.4.9,1.5,3.2-4.3,8.7a27.2,27.2,0,0,1,5.2-.5c.9,0,3.5,0,4.4,1.8s-.6,5.1-2.5,6.7a6.5,6.5,0,0,1-1.9,1.1l-.4.2c-.1.2,0,.5.2,1a4.9,4.9,0,0,1,.4,3.3,5.2,5.2,0,0,1-4,3.6Z" style="fill:#ac538c"/><path d="M78.6,15.1a6.6,6.6,0,0,1,3.5,1.1c1.5.9,1.5,1.9,2.6,2.1H85c1.4,0,2.1-1.8,3.9-1.9H89a3.8,3.8,0,0,1,3.1,1.9c1.2,2.7-5.4,8.3-8.5,10.7a46.7,46.7,0,0,1,10.7-1.7c1.9,0,2.8.4,3.1,1s-.5,3.5-2.1,4.8S93,34,92.5,35s1,2.7.5,4.5A3.6,3.6,0,0,1,90.3,42h-.2c-3.1,0-6.6-8.6-7.8-11.9-6.4,6.6-9.5,8.5-11.1,8.5s-.5,0-.6-.2-1.5-3.2-.8-5.2,1.5-1.9,1.4-3-2.3-1.8-2.9-3.6a3.7,3.7,0,0,1,1-3.5,2.2,2.2,0,0,1,1.4-.5c2.9,0,8,3.6,10.8,5.7-5.2-8.7-5.6-11.8-4.6-12.7a2.5,2.5,0,0,1,1.7-.5m0-3h0a5.6,5.6,0,0,0-3.8,1.3c-1.6,1.4-1.8,3.5-.7,7a7.7,7.7,0,0,0-3.4-.8h0a5.1,5.1,0,0,0-3.3,1.1,6.9,6.9,0,0,0-2,6.7,7,7,0,0,0,2.3,3.2l-.8,1.7c-.9,2.9-.4,7.1,2,8.7a4.6,4.6,0,0,0,2.3.6c1.8,0,4.3-.8,10-6.2C85,43.8,87.9,45,90.1,45h.6a6.6,6.6,0,0,0,5.2-4.7,6.2,6.2,0,0,0-.2-3.9l1.5-1c2.4-2,4.1-5.8,2.9-8.4s-4.7-2.7-5.8-2.7H93c2.2-2.8,2.8-5.2,1.8-7.3A6.7,6.7,0,0,0,89,13.4h-.2a6.3,6.3,0,0,0-3.6,1.4l-1.4-1.1a9.9,9.9,0,0,0-5.2-1.6Z" style="fill:#84205c"/><path d="M58.8,31.4c-1,0-4,0-8.4-10.7-6.5,6.4-9,7.3-10.5,7.3a2.8,2.8,0,0,1-1.5-.4c-1.8-1.2-2.1-4.6-1.3-7a9.2,9.2,0,0,1,1-2l.3-.4a3.1,3.1,0,0,0-.8-.7,4.6,4.6,0,0,1-2-2.6A5.1,5.1,0,0,1,37,9.8,4.1,4.1,0,0,1,39.4,9c1.6,0,3.7.8,6.4,2.4-2.8-5.7-2.6-7.8-1.3-9a3.8,3.8,0,0,1,2.7-.9,8.4,8.4,0,0,1,4.4,1.3,6.6,6.6,0,0,1,1.7,1.5c.1.1.3.3.3.4a2,2,0,0,0,.9-.6,4.9,4.9,0,0,1,3-1.3h.2a5.1,5.1,0,0,1,4.4,2.7c.4.9,1.4,3.1-4.3,8.7a28.5,28.5,0,0,1,5.2-.6c.8,0,3.5,0,4.4,1.9s-.6,5-2.5,6.6A5.3,5.3,0,0,1,63,23.3l-.5.2a2.9,2.9,0,0,0,.3.9,6,6,0,0,1,.4,3.4,5.4,5.4,0,0,1-4,3.6Z" style="fill:#ac538c"/><path d="M47.2,3a7.5,7.5,0,0,1,3.6,1c1.4,1,1.5,2,2.6,2.1h.2c1.5,0,2.2-1.9,4-1.9h.1a3.7,3.7,0,0,1,3.1,1.8c1.2,2.8-5.4,8.3-8.5,10.8A48.7,48.7,0,0,1,63,15.1c1.9,0,2.8.4,3.1,1s-.6,3.6-2.2,4.9-2.2.8-2.7,1.8,1,2.8.5,4.6A3.6,3.6,0,0,1,59,29.9h-.2c-3.1,0-6.6-8.7-7.8-11.9-6.4,6.5-9.5,8.5-11.1,8.5l-.7-.2c-.9-.6-1.4-3.2-.7-5.2s1.5-2,1.3-3.1-2.3-1.7-2.8-3.5a3.8,3.8,0,0,1,1-3.6,2,2,0,0,1,1.4-.4c2.9,0,8,3.6,10.8,5.7C45,7.5,44.6,4.4,45.5,3.5A2.9,2.9,0,0,1,47.2,3m0-3h0a5.1,5.1,0,0,0-3.7,1.3c-1.6,1.4-1.9,3.5-.7,6.9a9,9,0,0,0-3.4-.7h0a5.1,5.1,0,0,0-3.3,1.1,6.6,6.6,0,0,0-2,6.7,6.3,6.3,0,0,0,2.3,3.2,7.9,7.9,0,0,0-.8,1.6c-.9,3-.5,7.1,2,8.7a3.9,3.9,0,0,0,2.3.7c1.8,0,4.3-.8,10-6.2,3.7,8.4,6.7,9.6,8.9,9.6h.6a6.7,6.7,0,0,0,5.2-4.7,5.5,5.5,0,0,0-.3-3.9,5.9,5.9,0,0,0,1.6-1c2.3-2,4.1-5.8,2.9-8.5s-4.7-2.7-5.8-2.7H61.7c2.2-2.9,2.7-5.2,1.8-7.3a6.5,6.5,0,0,0-5.8-3.6h-.2a5.5,5.5,0,0,0-3.6,1.4,6.5,6.5,0,0,0-1.5-1.2A10.2,10.2,0,0,0,47.2,0Z" style="fill:#84205c"/><path d="M63.3,73.8a22.1,22.1,0,0,0-.6-6.2,44.3,44.3,0,0,0-4.1-10.3l-1-1.7a55.3,55.3,0,0,0-4.9-7l.4-.5a44.9,44.9,0,0,1,5,6.4l1.1,1.6h0a38.1,38.1,0,0,1,4.5,11.6,28.2,28.2,0,0,1,.6,6Z" style="fill:#e4cac4"/><path d="M70.1,40.6A78.5,78.5,0,0,0,59.2,56.1h0l-.6,1.2a42.8,42.8,0,0,0-3.4,8.6c-.2.6-.3,1.3-.5,2v.3h0a19.8,19.8,0,0,0-.5,5.4H52.7a39.9,39.9,0,0,1,.6-5.5,15.5,15.5,0,0,1,.4-2.1h0l.6-2.3a46.9,46.9,0,0,1,3.3-8l.5-1.1A65.2,65.2,0,0,1,69.4,40Z" style="fill:#ccb7b4"/><path d="M49,73.1l-2.8-.3h0a26.7,26.7,0,0,0-4.3-2.5C30.5,64.7,16.2,64,16.2,64v-.9c12.4,0,21.3,3,27.4,6.5A32.5,32.5,0,0,1,49,73.1Z" style="fill:#ccb7b4"/><path d="M71.6,56.8A7.9,7.9,0,0,1,66.8,55a5.5,5.5,0,0,1-1.5-1.7c-.1-.1-.3-.3-.3-.4h0a2.8,2.8,0,0,0-.9.5,5.5,5.5,0,0,1-2.9,1h-.3a5.2,5.2,0,0,1-4.3-3.2c-.3-.9-1.1-3.2,5.2-8.2l-3.1.2c-2.5,0-5.6-.3-6.3-2.4s1-5,3.1-6.4a6.5,6.5,0,0,1,2-.9l.5-.2c.1-.1,0-.5-.1-1a4.6,4.6,0,0,1-.1-3.3,5.2,5.2,0,0,1,4.3-3.2h0c1.2,0,4.3.1,7.7,11.5,6.8-5.5,9.3-6.2,10.8-6.2a2.8,2.8,0,0,1,1.8.6c1.7,1.3,1.7,4.8.7,7a6.2,6.2,0,0,1-1.3,1.9l-.3.4c0,.1.3.4.7.7A5.8,5.8,0,0,1,84,44.6a5.2,5.2,0,0,1-2,4.9,3.3,3.3,0,0,1-1.9.6h0c-1.7,0-3.9-1-6.7-3.1,2.2,6,1.8,8.1.4,9.1A3.8,3.8,0,0,1,71.6,56.8Z" style="fill:#84205c"/><path d="M62.2,27.3c3.2,0,5.8,9.2,6.7,12.7,6.8-5.7,10.1-7.4,11.7-7.4l.9.2c.9.8,1,3.4.2,5.3S80,39.9,80,41s2.2,2,2.5,3.9a3.9,3.9,0,0,1-1.3,3.4,2,2,0,0,1-1.1.3c-2.9,0-7.9-4.3-10.6-6.8C73.8,51,74,54.1,72.9,54.9a1.7,1.7,0,0,1-1.3.4,6.8,6.8,0,0,1-3.9-1.5c-1.3-1-1.3-2-2.4-2.3h-.4c-1.2,0-2.1,1.5-3.7,1.5H61a3.7,3.7,0,0,1-3-2.2c-.9-2.8,6.2-7.7,9.6-9.8a77.2,77.2,0,0,1-8.9.8c-3.3,0-4.6-.6-4.9-1.4s.8-3.5,2.6-4.7,2.3-.6,2.9-1.5-.8-2.8-.1-4.6a3.9,3.9,0,0,1,3-2.2h0m0-3h-.1a6.8,6.8,0,0,0-5.7,4.1,6.5,6.5,0,0,0-.1,3.9,5.3,5.3,0,0,0-1.6.9c-2.6,1.7-4.7,5.3-3.8,8.1s4.6,3.3,6.8,3.4c-2.4,2.6-3.2,4.8-2.5,7a6.6,6.6,0,0,0,5.6,4.2h.4a6.4,6.4,0,0,0,3.3-1,15.8,15.8,0,0,0,1.3,1.3,10.5,10.5,0,0,0,5.8,2.1,5.2,5.2,0,0,0,3.1-1c1.7-1.3,2.2-3.3,1.4-6.8a8.2,8.2,0,0,0,4,1.1,5,5,0,0,0,2.7-.8,6.4,6.4,0,0,0,.7-9.9l.9-1.5c1.3-2.9,1.2-7.1-1.1-8.9a4.2,4.2,0,0,0-2.7-.9c-1.6,0-4.2.7-10,5.2-3.1-9.2-6-10.5-8.4-10.5Z" style="fill:#5e1441"/><path d="M51,73.3l-1.9-.2a14.7,14.7,0,0,0,.2-4.7C48.2,53,29.7,37.2,29.7,37.2l.5-.7C45.8,48.5,49.9,61,50.8,68.3h0A31.8,31.8,0,0,1,51,73.3Z" style="fill:#e4cac4"/><path d="M51.8,63.5c-1.8,0-4.2-1.7-5.4-3.8a5.6,5.6,0,0,1-.8-2.1c0-.1-.1-.4-.1-.5h-1l-1.5.2a5.3,5.3,0,0,1-1.8-.4,5.3,5.3,0,0,1-2.8-4.6c0-.9.2-3.4,7.9-5.6-6.5-2.1-8-3.8-7.9-5.7s2.9-4.2,5.3-4.7h2.6c.2-.1.3-.4.4-.9a5.1,5.1,0,0,1,1.2-3.2,5.4,5.4,0,0,1,3.8-1.5l1.4.2c1,.4,4,1.5,2.7,13.6q6.9-2.1,10.2-2.1c.6,0,2.8,0,3.6,1.6s-.2,5.1-2,6.8a10.8,10.8,0,0,1-1.8,1.3l-.5.2a2.9,2.9,0,0,0,.3.9,4.8,4.8,0,0,1,.6,3.3,5.1,5.1,0,0,1-3.7,3.9h-.6c-.8,0-2.9,0-6.4-5.6-.1,6.4-1.3,8.2-3,8.6Z" style="fill:#ac538c"/><path d="M51.7,32.2h.8c3,1.2,2,10.8,1.5,14.3,6.2-2,9.9-2.7,12-2.7s2.1.3,2.3.8-.2,3.6-1.7,5-2.3,1-2.7,2.1,1.3,2.6.9,4.4a3.8,3.8,0,0,1-2.5,2.7h-.4c-2.8,0-6.3-6.7-8-10.3.5,10.1-.5,13-1.8,13.4h-.3c-1.2,0-3.2-1.3-4.1-3s-.4-2.4-1.3-3.1a2.3,2.3,0,0,0-1.1-.3c-.7,0-1.5.3-2.3.3a2.7,2.7,0,0,1-1.2-.3,3.6,3.6,0,0,1-1.9-3.1c.2-3,8.6-4.8,12.5-5.5-10-2.6-12.6-4.4-12.5-5.8S42,38.3,44,37.9h2.3a1.2,1.2,0,0,0,1-.3c1.3-.9.4-2.9,1.7-4.2a4,4,0,0,1,2.7-1.1m0-3h0a6.6,6.6,0,0,0-4.9,2,6.3,6.3,0,0,0-1.6,3.6H43.4c-3,.7-6.4,3.2-6.5,6.2s1.3,4,5,5.6c-3.3,1.5-4.9,3.3-5,5.6a6.6,6.6,0,0,0,3.6,6,5.4,5.4,0,0,0,2.5.6h1.4a6.8,6.8,0,0,0,.7,1.7c1.2,2.2,4,4.5,6.7,4.5h1c2.1-.6,3.4-2.3,3.9-5.9,2.2,2.5,3.9,2.9,5.2,2.9h.9a6.7,6.7,0,0,0,4.9-5,6.5,6.5,0,0,0-.5-3.9,11,11,0,0,0,1.4-1.1c2.3-2.2,3.8-6.1,2.4-8.6s-2.6-2.4-5-2.4a35.2,35.2,0,0,0-8.5,1.5c.7-9.7-1.7-12-3.9-12.9a5.8,5.8,0,0,0-1.9-.3Z" style="fill:#84205c"/><path d="M13.7,49.6c-2.1,0-4.3-2.6-5-5a10.3,10.3,0,0,1-.2-2.2v-.5l-1-.2a5,5,0,0,1-3.2-1.1,5,5,0,0,1-1.6-5C3.5,33.1,6.8,32,13.4,32h2.7c-3.6-9.7-3.1-12.6-1.3-13.7a2.7,2.7,0,0,1,1.8-.5,7.9,7.9,0,0,1,5.1,2.1,8.9,8.9,0,0,1,1.4,1.8c0,.1.2.3.2.4h0a2.6,2.6,0,0,0,1-.4,5.7,5.7,0,0,1,2.6-.8h.6a5.6,5.6,0,0,1,4.1,3.5c.3,1.5.1,3.7-5.2,7.3h1.5c3.2,0,6.5.3,7.3,2.6s-1.3,4.9-3.4,6.3a5.9,5.9,0,0,1-2,.8l-.5.2c-.1.1,0,.5.1,1a5.3,5.3,0,0,1,0,3.3A5.3,5.3,0,0,1,25,49h0c-.9,0-3.4,0-6.1-7.6-1.7,6.6-3.3,8.2-5.2,8.2Z" style="fill:#84205c"/><path d="M16.6,19.3A6.6,6.6,0,0,1,20.7,21c1.2,1.2,1.1,2.2,2.2,2.5h.5c1.2,0,2.1-1.2,3.5-1.2h.4a3.7,3.7,0,0,1,2.8,2.4c.7,2.8-6.2,6.9-9.8,8.9,3.2-.3,5.6-.5,7.6-.5,4.1,0,5.6.7,5.8,1.6s-.9,3.4-2.7,4.5-2.4.6-3,1.5.7,2.8,0,4.6a3.7,3.7,0,0,1-3,2.1h0c-3,0-5.3-8.3-6.3-12.2-1.9,10.1-3.6,12.8-5,12.8h0c-1.2,0-3-1.9-3.5-3.9s.1-2.4-.6-3.3-2.9-.2-4.3-1.4A3.6,3.6,0,0,1,4.1,36c.7-2.1,5.2-2.5,9.3-2.5l4.9.2c-3.9-10.1-3.9-13.4-2.7-14.2l1-.2m0-3h0A4.4,4.4,0,0,0,14,17c-2.8,1.7-2.8,5.4-.1,13.5h-.5c-5,0-10.9.5-12.1,4.6a6.8,6.8,0,0,0,2,6.7A6.4,6.4,0,0,0,7,43.2,6.7,6.7,0,0,0,7.3,45c.8,2.9,3.5,6.1,6.4,6.1h0c2.3,0,4-1.5,5.4-5.3,1.7,3.2,3.6,4.7,5.9,4.7a6.5,6.5,0,0,0,5.7-4,6,6,0,0,0,.3-3.9,4.8,4.8,0,0,0,1.6-.8c2.7-1.6,4.9-5.2,4-8s-3.3-3.2-6.1-3.5c2.3-2.2,3-4.2,2.5-6.3a6.5,6.5,0,0,0-5.3-4.5h-.8a6,6,0,0,0-3,.8,6.9,6.9,0,0,0-1.2-1.4,9.7,9.7,0,0,0-6.1-2.5Z" style="fill:#5e1441"/><path d="M14,78.8a5,5,0,0,1-3.7-1.5c-.6-.7-2.3-2.6,1.7-9.6-4.3,2.2-6.2,2.5-7.3,2.5a3.2,3.2,0,0,1-2.4-.9c-1.4-1.6-.9-5,.5-7.1a9.2,9.2,0,0,1,1.5-1.7l.4-.3c0-.2-.2-.4-.5-.9a4.4,4.4,0,0,1-1.3-3,5.1,5.1,0,0,1,2.7-4.6A3.2,3.2,0,0,1,7,51.4c2.4,0,5.8,2.7,10.1,8,4.8-8.9,7.1-10.2,8.8-10.2h.7c2,.6,3.4,3.8,3.3,6.3a5.7,5.7,0,0,1-.4,2.2c-.1.1-.1.4-.1.4s.4.3.9.5A5,5,0,0,1,33,60.6a5.5,5.5,0,0,1,.1,5.4c-.8,1.1-2.2,1.6-4.2,1.6h0a16.7,16.7,0,0,1-4.7-.7c4.3,4.7,4.7,6.8,3.8,8.3s-2.9,1.9-4.7,1.9a7.8,7.8,0,0,1-2.2-.3,6.3,6.3,0,0,1-2-.9l-.4-.3a1.9,1.9,0,0,0-.7.8,4.9,4.9,0,0,1-2.5,2.1A4,4,0,0,1,14,78.8Z" style="fill:#ac538c"/><path d="M25.9,50.7h.3c1.1.4,2.3,2.8,2.2,4.8s-.8,2.3-.4,3.3,2.7,1.1,3.7,2.6a3.5,3.5,0,0,1,.1,3.7c-.5.7-1.5,1-2.9,1-3,0-7.6-1.5-10.3-2.5,7.5,6.9,8.8,9.7,8.1,10.8s-1.8,1.2-3.4,1.2a5.5,5.5,0,0,1-1.8-.2c-1.5-.4-1.9-1.3-2.8-1.3s-.2,0-.2.1c-1.6.2-1.7,2.3-3.5,2.9l-1,.2a4.1,4.1,0,0,1-2.6-1c-2-2.3,2.7-9.5,5-12.8-6.5,3.9-10,5.2-11.7,5.2a1.4,1.4,0,0,1-1.2-.5c-.8-.8-.6-3.5.6-5.2S6,61.5,6.2,60.4s-1.8-2.3-1.8-4.2a3.5,3.5,0,0,1,1.8-3.1,1.1,1.1,0,0,1,.8-.2c3.1,0,8.3,6.6,10.3,9.2,4.7-8.9,7.2-11.4,8.6-11.4m0-3c-2.4,0-4.8,1.6-9,9-6-6.8-8.8-6.8-9.9-6.8a4.5,4.5,0,0,0-2,.4,6.6,6.6,0,0,0-3.6,6,6.3,6.3,0,0,0,1.3,3.6L1.6,61.3c-1.7,2.6-2.3,6.8-.4,9a4.8,4.8,0,0,0,3.5,1.4,12.6,12.6,0,0,0,4.1-.9c-1.3,3.3-1.1,5.7.4,7.5a6.5,6.5,0,0,0,4.8,2,5.8,5.8,0,0,0,1.9-.3A6.7,6.7,0,0,0,19,77.6l1.7.7a10.9,10.9,0,0,0,2.6.3c1.1,0,4.6-.1,6-2.6s.8-4-1.3-6.9h.9c2.6,0,4.4-.8,5.4-2.3a6.8,6.8,0,0,0,0-7,7,7,0,0,0-3.1-2.4,9,9,0,0,0,.2-1.8c.1-3.1-1.6-6.9-4.4-7.7l-1.1-.2Z" style="fill:#84205c"/><path d="M88.5,64.8v.9c-5.1-1.8-8.9-1.8-11.8-.9l-1.2.5A11.3,11.3,0,0,0,71.9,68l-.4.6h0a13.4,13.4,0,0,0-1.7,2.7h0a21.6,21.6,0,0,0-.8,2.3h-.9a19.3,19.3,0,0,1,2-5h0l.5-.7h0l1.2-1.4a11.9,11.9,0,0,1,4-2.4l1.3-.4C82.6,62.5,88.5,64.8,88.5,64.8Z" style="fill:#b5938f"/><path d="M87.1,81.9c-1.8,0-4.2-1.7-5.4-3.8a11.9,11.9,0,0,1-.8-2.1.7.7,0,0,0-.1-.5H78.4a4.1,4.1,0,0,1-1.9-.4,5,5,0,0,1-2.8-4.5c.1-1,.2-3.5,7.9-5.7-6.5-2.1-8-3.8-7.9-5.6s2.9-4.2,5.3-4.7l1.4-.2h1.2c.3-.1.3-.5.4-1a4.7,4.7,0,0,1,1.2-3.1A5.3,5.3,0,0,1,87,49a3.2,3.2,0,0,1,1.4.3c1,.4,4,1.5,2.7,13.5a38.3,38.3,0,0,1,10.2-2c.7,0,2.8,0,3.7,1.5s-.3,5.1-2.1,6.8a5.6,5.6,0,0,1-1.8,1.3l-.5.2a2.2,2.2,0,0,0,.4,1,6.3,6.3,0,0,1,.6,3.3,5.3,5.3,0,0,1-3.7,3.8h-.7c-.8,0-2.9,0-6.4-5.6-.1,6.3-1.3,8.1-3,8.6Z" style="fill:#ac538c"/><path d="M87,50.5l.8.2c3.1,1.1,2,10.7,1.6,14.3,6.1-2,9.8-2.7,11.9-2.7s2.1.3,2.4.8-.3,3.5-1.8,5-2.2,1-2.6,2,1.2,2.6.8,4.5a4,4,0,0,1-2.5,2.7h-.4c-2.8,0-6.3-6.8-8-10.4.5,10.1-.5,13.1-1.8,13.4h-.3c-1.2,0-3.2-1.4-4.1-3.1s-.4-2.4-1.3-3a1.4,1.4,0,0,0-1.1-.3l-2.2.2a3.2,3.2,0,0,1-1.3-.2,3.7,3.7,0,0,1-1.9-3.2c.2-3,8.6-4.8,12.5-5.5-10-2.5-12.6-4.4-12.5-5.8s2.1-2.8,4.1-3.3h2.3a1.7,1.7,0,0,0,1-.3c1.3-1,.4-2.9,1.7-4.3A4,4,0,0,1,87,50.5m0-3h0a6.7,6.7,0,0,0-4.9,2.1,7.1,7.1,0,0,0-1.6,3.5h-.1l-1.7.2c-3,.6-6.4,3.2-6.5,6.1s1.3,4,5,5.7c-3.3,1.5-4.9,3.3-5,5.6a6.5,6.5,0,0,0,3.6,5.9,5.8,5.8,0,0,0,2.6.6h1.3a4.7,4.7,0,0,0,.7,1.7c1.2,2.2,4,4.6,6.7,4.6l1.1-.2c2-.5,3.3-2.2,3.8-5.8,2.2,2.4,3.9,2.9,5.2,2.9h.9a6.6,6.6,0,0,0,4.9-5,5.9,5.9,0,0,0-.5-3.9l1.5-1.1c2.2-2.1,3.7-6,2.3-8.6s-2.6-2.3-5-2.3a35.2,35.2,0,0,0-8.5,1.5c.7-9.8-1.7-12.1-3.9-12.9a4.1,4.1,0,0,0-1.9-.4Z" style="fill:#84205c"/><path d="M89.5,95v3.3A15.8,15.8,0,0,1,75.7,114a114.9,114.9,0,0,1-27.7.2A15.7,15.7,0,0,1,34.1,98.6v-11a83.5,83.5,0,0,0,24,8.2A81.8,81.8,0,0,0,89.5,95Z" style="fill:#fcd54d;opacity:0.56"/><path d="M51.4,43c-1.5,1-4.3-.4-4.5-2s2.8-3.8,4.3-3S52.9,42,51.4,43Z" style="fill:#c66d9c"/><path d="M51.8,12.6c-1.4-.4-1.9-2.9-1-3.8s3.8-.2,4.1,1.1S53.2,13.1,51.8,12.6Z" style="fill:#c66d9c"/><path d="M76.2,31.6c-1.4-.5-1.9-3-1-3.9s3.8-.2,4.1,1.2S77.6,32,76.2,31.6Z" style="fill:#c66d9c"/><path d="M82.4,24.6c-1.4-.4-1.9-2.9-1-3.8s3.8-.2,4.1,1.1S83.8,25.1,82.4,24.6Z" style="fill:#c66d9c"/><path d="M56.1,22.8c-1.4-.4-2-2.9-1.1-3.8s3.9-.2,4.1,1.1S57.5,23.3,56.1,22.8Z" style="fill:#c66d9c"/><path d="M86.6,34.6c-1.4-.5-1.9-3-1-3.9s3.8-.2,4.1,1.2S88.1,35,86.6,34.6Z" style="fill:#c66d9c"/><path d="M46.3,19.6c-1.3.8-3.8-.4-3.9-1.8s2.5-3.4,3.8-2.7S47.7,18.7,46.3,19.6Z" style="fill:#c66d9c"/><path d="M96.4,70.1c-1.5,1-4.3-.5-4.5-2.1s2.8-3.7,4.4-2.9S98,69.1,96.4,70.1Z" style="fill:#c66d9c"/><path d="M86.5,73.2c-1.4.9-4.3-.5-4.4-2.1s2.8-3.8,4.3-3S88.1,72.1,86.5,73.2Z" style="fill:#c66d9c"/><path d="M57.4,49.4c.3-1.8,3.3-2.8,4.6-1.8s.8,4.6-.9,5.2S57,51.2,57.4,49.4Z" style="fill:#c66d9c"/><path d="M21,61.7c-.6-1.7,1.5-4.1,3-3.9s3.1,3.7,1.9,4.9S21.6,63.5,21,61.7Z" style="fill:#c66d9c"/><path d="M82.2,58.7c.3-1.8,3.3-2.8,4.5-1.8s.8,4.6-.8,5.2S81.8,60.5,82.2,58.7Z" style="fill:#c66d9c"/><path d="M47.3,51.2c.3-1.8,3.3-2.8,4.6-1.8s.7,4.6-.9,5.1S46.9,53,47.3,51.2Z" style="fill:#c66d9c"/><path d="M14.2,61.5c-.3,1.8-3.4,2.8-4.6,1.8s-.7-4.7.9-5.2S14.6,59.7,14.2,61.5Z" style="fill:#c66d9c"/><path d="M21.1,68.7c-.4,1.8-3.3,2.8-4.6,1.9s-.8-4.7.8-5.2S21.4,66.9,21.1,68.7Z" style="fill:#c66d9c"/></g></g></g></g></svg>