<svg xmlns="http://www.w3.org/2000/svg" viewBox="0 0 57.8 51.4"><g id="Layer_2" data-name="Layer 2"><g id="Layer_1-2" data-name="Layer 1"><path d="M21.9,28.4a10.2,10.2,0,0,0-1.5,5.4.2.2,0,0,0,.4,0c.4-1.8.9-3.5,1.4-5.3C22.3,28.3,22,28.2,21.9,28.4Z" style="fill:#f48096"/><path d="M31,29.6a13.2,13.2,0,0,0-3.4,4.7c0,.2.2.4.3.2a49.6,49.6,0,0,0,3.4-4.6C31.4,29.6,31.2,29.5,31,29.6Z" style="fill:#f48096"/><path d="M44.3,7.3a9.9,9.9,0,0,0-2.7-1.4A7.1,7.1,0,0,1,39.3,4a6,6,0,0,0-4.7-1.8l-3.4.6L29,3h-.3c-1.1-.1-2.1-.9-3.3-1-5.8-.5-6.4.9-7.5,1h-.3l-2.2-.2L12,2.2A5.8,5.8,0,0,0,7.3,4,7.1,7.1,0,0,1,5,5.9,9.9,9.9,0,0,0,2.3,7.3C1.2,8.3.6,10,1.8,11.2a26.8,26.8,0,0,1,2.5,3.9,36.6,36.6,0,0,1,1.3,4.4c.6,3,.4,6,.9,9a9.7,9.7,0,0,0,3.9,6.7,20.8,20.8,0,0,0,3.6,2,7.6,7.6,0,0,1,1.9,1.2c.1.2-2.2.1-3,1s-.5,1.2-.2,2a2.1,2.1,0,0,1-.1,1.1,5.3,5.3,0,0,1-.3,1.2c-.3,1.6.8,2.2,2.2,2.7s1.9,2.5,3.4,3.3,2.2,0,3.4-.5a5.1,5.1,0,0,1,2.4.3h.2c3.8.8,4,.6,4.8.2s1.8-2.7,3.4-3.3,2.4-1.1,2.1-2.7a5.3,5.3,0,0,0-.3-1.2c-.1-.4.1-.7.2-1.1a1.1,1.1,0,0,0-.6-1.6,6.5,6.5,0,0,0-3.2-.9l.4-.5a6.2,6.2,0,0,1,1.9-1.2,25.3,25.3,0,0,0,3.6-2,10.1,10.1,0,0,0,3.9-6.7c.5-3,.2-6,.9-9a36.6,36.6,0,0,1,1.3-4.4,18.9,18.9,0,0,1,2.2-3.7A2.9,2.9,0,0,0,44.3,7.3Z" style="fill:#ffa4b6"/><path d="M43.9,7.9c-.9-1-2.9-1.5-4-2.2S38,3.3,36.3,3s-4.1.3-5.6.6A6.3,6.3,0,0,1,28,3.2c-.9-.1-1.7-.8-2.5-1a8.3,8.3,0,0,0-4.7.2c-2.3.5-4.8,1.2-7,.7S10.5,1.9,9,3L6.9,4.6C6.3,5.1,5.8,6.1,5,6.4A5.4,5.4,0,0,0,1.9,8.6c-.7,1.1-.2,2,1,2.3s3.5-.4,5.2.2h.2a6.8,6.8,0,0,0,4.6.8c1.9-.2,3.8-1.4,5.8-1.3s3.1,1.6,4.8,2a9.4,9.4,0,0,0,5-.4c1.6-.5,3.4-1.2,5.1-.8s2.6.8,4.1,1h.7c2.2.2,4.3,0,5.9-2.3S44.5,8.6,43.9,7.9Z" style="fill:#fff"/><path d="M40.3,8.8a3.2,3.2,0,0,0-2.4,1.1l-.2-.3A3.7,3.7,0,0,0,34.2,8l.3-.7a4.1,4.1,0,0,0,.7-1.5.3.3,0,0,0-.4-.4,2.5,2.5,0,0,0-1.1,1.4A2.8,2.8,0,0,0,33.3,8l-1.6.2c-2.5.2-4.8-1-7.3-1.2H22.6a2.8,2.8,0,0,0,.1-.9c.1-.4.4-.9.2-1.4h-.3c-.5.3-.6,1-.7,1.5a4,4,0,0,0,0,1.1l-1.8.3a25.7,25.7,0,0,1-4.8.1,9.7,9.7,0,0,0-3.7.7,8.1,8.1,0,0,0-1.5-4.1c-.1-.1-.4-.1-.4.1a26.1,26.1,0,0,0,.6,2.7,9.4,9.4,0,0,0,.4,1.6,5.1,5.1,0,0,0-1.6.9l-.5-.7-.7-.6-.8-.4c-.1,0-.3.1-.2.3l.5.6.5.7.6.8a2,2,0,0,0-.4.8h.2a6.8,6.8,0,0,0,4.6.8c1.9-.2,3.8-1.4,5.8-1.3s3.1,1.6,4.8,2a9.4,9.4,0,0,0,5-.4c1.6-.5,3.4-1.2,5.1-.8s2.6.8,4.1,1a3,3,0,0,0,.4-1.8l1-.6a7.4,7.4,0,0,0,1.3-.8C40.5,9.1,40.5,8.8,40.3,8.8Z" style="fill:#fff2be"/><path d="M40,4c-1.2-1.2-2.2-2.3-4-2.5s-3.7.6-5.6.9-3.9-.9-5.9-1.3a11.2,11.2,0,0,0-5.7.6,10.9,10.9,0,0,1-3,.7,11.9,11.9,0,0,1-3.2-.5,5.4,5.4,0,0,0-4.8.9A36.1,36.1,0,0,1,3.4,6.1,4.1,4.1,0,0,0,1.1,8.8,1.9,1.9,0,0,0,1.7,11c1.2.9,2.8.5,4.2.5a10.5,10.5,0,0,1,3,.5,7.3,7.3,0,0,0,2.5.8c1.6.3,3.2-.4,4.7-.9a7,7,0,0,1,2.5-.5,5.2,5.2,0,0,1,2.7,1,7.4,7.4,0,0,0,5,1.1c1.8-.3,3.4-1.6,5.3-1.7s3.7.9,5.5,1.4,7.5.1,8.2-3.3S41.9,5.8,40,4Zm2.5,7.4a6.4,6.4,0,0,1-4.9.6c-1.6-.3-3-1-4.6-1.2a6.8,6.8,0,0,0-4.2.6,7.6,7.6,0,0,1-4.9.8c-1.5-.4-2.7-1.5-4.2-1.9-3.3-.8-6.1,2.2-9.4,1.1l-2.5-.8A13.4,13.4,0,0,0,5,10.5a8.1,8.1,0,0,1-2.2.1,1.6,1.6,0,0,1-.9-.7c.1,0-1-1.5,3.4-3.4,1.2-.5,2-1.8,3-2.6a4.3,4.3,0,0,1,4.4-.6,9.4,9.4,0,0,0,4.4.6c1.6-.3,3.1-1.2,4.8-1.3a10.6,10.6,0,0,1,5,.8,7.9,7.9,0,0,0,4.8.3c1.6-.4,3.4-1,5-.5s2.2,1.7,3.4,2.5,2.3,1.1,3.3,1.9S43.9,10.7,42.5,11.4Z" style="fill:#ffc74e"/><path d="M30.5,38.8c-1.2.2-2.3,1-3.6,1.2a23.3,23.3,0,0,1-3.7.4,14.9,14.9,0,0,1-6.8-2c-.2-.1-.3.1-.2.2A9.1,9.1,0,0,0,23,41.4a9.1,9.1,0,0,0,4-.6c1.2-.4,2.8-.8,3.6-1.8S30.6,38.8,30.5,38.8Z" style="fill:#ffc74e"/><path d="M34.4,44.2a3.6,3.6,0,0,0-.2-1.1,6.2,6.2,0,0,1,.2-1.9c.1-1.6-2.6-2.2-3.9-2.3l1,.3a3.2,3.2,0,0,1,2,1.2c.5.7,0,1.4,0,2.2s.2,1.2.2,1.8-.6,1.2-1.4,1.5-3.2,3.9-5.8,3.6-2.5-.7-3.7-.8-2.4.3-3.7.5-1.9-1.1-2.7-2.1a3.3,3.3,0,0,0-2.1-1.3c-.9-.2-1.7-.5-1.6-1.6s.5-1.3.6-2.1-.4-1.8.1-2.4a5,5,0,0,1,1.9-1l.7-.3c-1.1-.3-3.2,0-3.6,1.2s.2,1.7.1,2.5a18.3,18.3,0,0,0-.6,2.5c0,1.5,1.3,1.7,2.5,2s1.7,2,2.8,3,2.9,0,4.4-.1,3.3.8,5,.9a4.6,4.6,0,0,0,3.6-1.6c.5-.5,1-1.1,1.6-1.6s1.4-.6,2-1.1A1.9,1.9,0,0,0,34.4,44.2Z" style="fill:#ffc74e"/><path d="M56.8,13.6a.3.3,0,0,0-.3-.3c-1.8.7-3.3-.9-4.9-1.6a7.5,7.5,0,0,0-3-.3l-1,.3c-2.6.9-3.9,3.9-6.6,4.5-.1,0-.1.1-.1.2s-1.2,2-.1,2.5,1.6-.3,2.1-.5a9.7,9.7,0,0,0,2.4-1.5c1.2-.9,2.3-2.6,3.8-2.8h1c1.3.3,2.4,1.3,3.7,1.3a7.5,7.5,0,0,0-1.4,4.2c-.1,1.1-.1,2.2-.9,3a4.1,4.1,0,0,1-1.1.7l-1.5.4a13,13,0,0,0-4.6,1.8c-1.4.9-2.5,2.4-4,2.9s-.7-.6-.9-.5h-.1c-.8.6-.9,2-1.1,2.9s.1.3.2.3a7.1,7.1,0,0,0,4.5-1.1,6.5,6.5,0,0,0,1.8-1.5c.5-.7,1.2-2,2.2-1.7s1.8,1.7,2.8.7a1.8,1.8,0,0,0,.3-2.1,6.9,6.9,0,0,0,2.8-.8,5.2,5.2,0,0,0,2.1-2.5,16.2,16.2,0,0,0,.7-4.4,7.2,7.2,0,0,1,.7-2.5A3.1,3.1,0,0,0,56.8,13.6Z" style="fill:#ffa4b6"/><path d="M56.8,13.6a.3.3,0,0,0-.3-.3c-1.8.7-3.3-.9-4.9-1.6a7.5,7.5,0,0,0-3-.3,3.9,3.9,0,0,0,.5,2.7h1c1.3.3,2.4,1.3,3.7,1.3a7.5,7.5,0,0,0-1.4,4.2c-.1,1.1-.1,2.2-.9,3a4.1,4.1,0,0,1-1.1.7,1.3,1.3,0,0,0,.6,1,2.3,2.3,0,0,0,1.8.4,5.2,5.2,0,0,0,2.1-2.5,16.2,16.2,0,0,0,.7-4.4,7.2,7.2,0,0,1,.7-2.5A3.1,3.1,0,0,0,56.8,13.6Z" style="fill:#ffc74e"/><path d="M56.1,13.8a.1.1,0,0,0-.1-.1h-.3c-.2,0-.2.2-.1.3H56C56.1,13.9,56.2,13.9,56.1,13.8Z" style="fill:#ffe983"/><path d="M28.6,11.7c-1.2.2-2.3.6-3.5.7a6.1,6.1,0,0,1-3.5-.9,7.8,7.8,0,0,0-2.4-.9,3.3,3.3,0,0,0-2.2.3c-.1.1,0,.2.1.1,2.2-.5,4.1,1.2,6.1,1.8a6.5,6.5,0,0,0,5.4-1C28.7,11.8,28.6,11.7,28.6,11.7Z" style="fill:#ffe983"/><path d="M40.3,12.5c-1-.1-2,.1-3-.1s-1.9-.7-2.9-.9-.2.1-.1.2,4.4,2.3,6,.9S40.3,12.5,40.3,12.5Z" style="fill:#ffe983"/><path d="M6.1,5.1A14.5,14.5,0,0,0,2.6,6.9,2.6,2.6,0,0,0,1.3,9.2c0,.1.1.2.2.1.9-1.8,3.1-2.8,4.6-4.1S6.1,5.1,6.1,5.1Z" style="fill:#ffe983"/><path d="M20.9,40.5c-1.2-.5-2.5-.5-3.6-1.1s-.2.1-.1.1,2.3,1.6,3.7,1.2S21,40.5,20.9,40.5Z" style="fill:#ffe983"/><path d="M14.5,38.6a2,2,0,0,0-1.6.7,1.2,1.2,0,0,0-.2,1.3h.1c-.2-1.2.9-1.5,1.7-1.9Z" style="fill:#ffe983"/><path d="M34,44.2h0a2.4,2.4,0,0,1-.9,1.6l-1.2.5a3.5,3.5,0,0,0-1.6,1.8s.1.1.1,0,.9-.9,1.5-1.3l1.4-.6A1.9,1.9,0,0,0,34,44.2Z" style="fill:#ffe983"/><path d="M54.6,13.7a16.6,16.6,0,0,0-3.1-1.2c-.6-.3-1.3-.8-2.1-.5v.2c1.4.8,3.5,2,5.2,1.6C54.7,13.8,54.7,13.7,54.6,13.7Z" style="fill:#ffe983"/><path d="M54.5,17.8c-.1-.2-.3-.2-.3,0a27.4,27.4,0,0,0-.5,2.8c-.3,1-.8,1.9-1.2,2.9s.1.2.2.1A6.8,6.8,0,0,0,54.5,17.8Z" style="fill:#ffe983"/><path d="M17.2,36.6C14,34.4,12.9,30,12.5,26.3s-.5-8.7-1-13h-.1c-.1,2.5-.2,4.9-.1,7.4a54.7,54.7,0,0,0,.3,7,11.9,11.9,0,0,0,5.5,9.1C17.3,36.9,17.4,36.7,17.2,36.6Z" style="fill:#f48096"/><path d="M24.3,15.1h-.1c-.2,3.4-.2,6.8-.2,10.2s-.4,6.7-.6,10.1c0,.2.3.2.4,0a37.8,37.8,0,0,0,1.3-10.1A70.1,70.1,0,0,0,24.3,15.1Z" style="fill:#f48096"/><path d="M35.4,14.4c-.1-.2-.3-.2-.3-.1-.8,4.1-.9,8.3-1.7,12.4a15.9,15.9,0,0,1-1.7,5.2,18.3,18.3,0,0,1-3.1,4.2.3.3,0,0,0,.2.4c3.4-1.4,5-5.3,5.7-8.6a33.9,33.9,0,0,0,.6-6.4C35.2,19.2,35.4,16.7,35.4,14.4Z" style="fill:#f48096"/><path d="M29.7,39.7l-2.8,1.2a8.9,8.9,0,0,1-3.2.5c-2.5-.1-4.6-1.1-7-1.7-.1-.1-.2.1-.1.2a10.1,10.1,0,0,0,7.2,2.5c2.1,0,4.9-.6,6-2.6Z" style="fill:#f48096"/><path d="M18.5,42.1A5.9,5.9,0,0,0,17.4,44a12.4,12.4,0,0,0-1,2c0,.1.1.2.2.1A6.2,6.2,0,0,0,18,44.3a7.6,7.6,0,0,0,.8-2.1C18.8,42,18.6,41.9,18.5,42.1Z" style="fill:#f48096"/><path d="M22.2,43.8c0-.2-.3-.1-.4,0a8.2,8.2,0,0,0-.3,3.5.2.2,0,1,0,.3,0A8.2,8.2,0,0,0,22.2,43.8Z" style="fill:#f48096"/><path d="M28.3,46.6a17.3,17.3,0,0,0-1.1-3.7.2.2,0,0,0-.4.1,5.4,5.4,0,0,0,1.1,3.7C28,47,28.3,46.8,28.3,46.6Z" style="fill:#f48096"/><path d="M31.7,42.1l-.6-.6-.8-.4a.2.2,0,0,0-.2.2,2.3,2.3,0,0,0,.7.7l.7.4C31.6,42.4,31.7,42.3,31.7,42.1Z" style="fill:#f48096"/><path d="M15.4,40.7c-.1.1-.3.1-.4.3l-.3.3-.7.8c-.1.2.2.4.4.3a4.6,4.6,0,0,1,.7-.7l.3-.4a.5.5,0,0,0,.2-.4C15.7,40.8,15.6,40.6,15.4,40.7Z" style="fill:#f48096"/><path d="M41,15.6a2.6,2.6,0,0,0-1.3,2.2.9.9,0,0,0,1.2,1.1h0c-1.5-.4-.4-2.3.2-3S41.1,15.5,41,15.6Z" style="fill:#f48096"/><path d="M39.6,28.6a1.9,1.9,0,0,0-1.6,3h.2a2.4,2.4,0,0,1,1.4-2.9Z" style="fill:#f48096"/><path d="M51.2,25.2l-1.3.2c-.1,0-.2.1-.1.2s.1,2-1,2-1.4-.6-2.1-.6a2.3,2.3,0,0,0-1.6.8,34.5,34.5,0,0,0-2.6,2.8c-1.1,1.1-2.5,2.4-4.2,1.8-.1-.1-.2,0-.3.1-1.5,3.4-5.4,3.7-7.8,6.2h.1c1.7-1,3.5-1.7,5.2-2.8a6.7,6.7,0,0,0,2.9-3.1A4.1,4.1,0,0,0,42,31.8a27.2,27.2,0,0,0,3.2-3.5l.4-.3a1.7,1.7,0,0,1,1.9-.1,2.6,2.6,0,0,0,1.9.3,1.7,1.7,0,0,0,.8-2.5l1.1-.4A.1.1,0,0,0,51.2,25.2Z" style="fill:#f48096"/><path d="M16,38.5l-.2-.3c-.1-.1-.1-.2-.2-.2a5,5,0,0,0-2.8-2.1,11.3,11.3,0,0,1-2.9-1.5l-.7-.7a6.4,6.4,0,0,1-1-1.3c-1.8-3.6-1.5-7.8-2-11.6,0-.1-.1-.1-.1,0a21.5,21.5,0,0,0,0,6.2,24.2,24.2,0,0,0,1.3,5.3,7,7,0,0,0,3.2,3.4l.9.4.8.3a16.3,16.3,0,0,1,1.9.9c.1.1.2.1.2.2s.2,0,.2.1l.6.6a1,1,0,0,1,.4.5C15.7,39,16.1,38.8,16,38.5Z" style="fill:#f48096"/><path d="M7.8,16.3a6.2,6.2,0,0,0-2.4-3.5c-.1-.1-.3,0-.2.2s.9,2.6,1.3,3.9a12.4,12.4,0,0,0,1.4,3.8c0,.1.2.1.3,0A8.2,8.2,0,0,0,7.8,16.3Z" style="fill:#fff"/><path d="M9.4,26.4l-.3-1.6c-.1-.6-.9-.6-.9,0a5.7,5.7,0,0,0,.3,1.8c.1.4.3.9.7,1s.1,0,.1-.1S9.4,26.8,9.4,26.4Z" style="fill:#fff"/><path d="M10.9,31.7l-.2.2c.1.1.1.4.4.4h.1C11.3,32,11.1,31.8,10.9,31.7Z" style="fill:#fff"/><path d="M44.3,15.5l-1.2.5-.6.4c-.2.1-.2.3-.4.5s0,.3.2.3a1.6,1.6,0,0,0,1.3-.4,1.6,1.6,0,0,0,.9-1.1C44.5,15.5,44.4,15.4,44.3,15.5Z" style="fill:#fff"/><path d="M46.8,13h-.4l-.3.2c-.1.1-.2.3-.1.4a.4.4,0,0,0,.1.3h.5l.3-.3c.1,0,.1-.1.1-.2h.1C47.1,13.2,47,12.9,46.8,13Z" style="fill:#fff"/><path d="M47.6,25.4a1,1,0,0,0-.5-.4l-.6.2a.5.5,0,0,0-.3.5.5.5,0,0,0,.5.4l.7-.2A.8.8,0,0,0,47.6,25.4Z" style="fill:#fff"/><path d="M40.5,5.2l-.4-.4a1.2,1.2,0,0,1-.5-.5c-.1-.1-.3,0-.2.1l.3.7a.9.9,0,0,0,.7.3C40.5,5.4,40.5,5.3,40.5,5.2Z" style="fill:#ffe983"/><path d="M22.7,1h1.8c1.8.3,3.4,1.3,5.2,1.3h.7c1.6-.2,3.2-.9,4.9-.9H36c1.8.2,2.8,1.3,4,2.5s6.1,2.4,5.3,5.9A3.3,3.3,0,0,1,44,12a32.7,32.7,0,0,0-1.7,3.1,6.4,6.4,0,0,1-.2.7c2-1,3.3-3.4,5.5-4.1l1-.3h.9a7.8,7.8,0,0,1,2.1.4c1.3.5,2.6,1.8,4,1.8l.9-.2h.1c.1,0,.2.1.2.3a3.1,3.1,0,0,1-.5,1.8,7.2,7.2,0,0,0-.7,2.5,16.2,16.2,0,0,1-.7,4.4,5.2,5.2,0,0,1-2.1,2.5,6.4,6.4,0,0,1-1.8.6,1.1,1.1,0,0,1-.8.3,1.7,1.7,0,0,1-.8,2.5h-.5a3.3,3.3,0,0,1-1.4-.4l-1-.2a1.6,1.6,0,0,0-.9.3l-.4.3A27.2,27.2,0,0,1,42,31.8,4.4,4.4,0,0,1,39.2,33h-.8l-.2.3A7.3,7.3,0,0,1,35.5,36c-1.6,1-3.4,1.7-5,2.7l-.2.2h.4c1.3.1,3.8.7,3.7,2.3a6.2,6.2,0,0,0-.2,1.9,3.6,3.6,0,0,1,.2,1.1,1.9,1.9,0,0,1-.6,1.9c-.6.5-1.4.6-2,1.1s-1.1,1.1-1.6,1.6a4.4,4.4,0,0,1-3.3,1.6h-.3c-1.6-.1-3.1-1-4.6-1h-.4c-1,.1-2,.6-3,.6a3,3,0,0,1-1.4-.5c-1.1-1-1.3-2.6-2.8-3s-2.5-.5-2.5-2a18.3,18.3,0,0,1,.6-2.5c.1-.8-.3-1.7-.1-2.5s1.6-1.3,2.7-1.3h.1l-.6-.6c0-.1-.1-.1-.2-.1h0l-.4-.2-1.4-.7h-.3l-.8-.3-.9-.4a7,7,0,0,1-3.2-3.4A24.2,24.2,0,0,1,6.1,27a29,29,0,0,1-.2-5.1,9.9,9.9,0,0,0-.3-2.4,36.6,36.6,0,0,0-1.3-4.4,26.8,26.8,0,0,0-2.5-3.9,1,1,0,0,1-.4-.5,1.8,1.8,0,0,1-.3-1.9A4.1,4.1,0,0,1,3.4,6.1,36.1,36.1,0,0,0,7.8,2.8a5.1,5.1,0,0,1,3.3-1.1l1.5.2a15.4,15.4,0,0,0,3.1.5h.1a10.9,10.9,0,0,0,3-.7A10.7,10.7,0,0,1,22.7,1M41.2,18.9h-.1c0,.2-.1.4-.1.6-.6,3-.5,6-.9,8.9h.2c1.5-.5,2.6-2,4-2.9a13,13,0,0,1,4.6-1.8l1.5-.4a4.1,4.1,0,0,0,1.1-.7c.8-.8.8-1.9.9-3a7.5,7.5,0,0,1,1.4-4.2h-.1c-1.3,0-2.3-1-3.6-1.3h-1c-1.5.2-2.6,1.9-3.8,2.8a9.7,9.7,0,0,1-2.4,1.5,4.2,4.2,0,0,1-1.7.5m4.9,8.3.6-.2h0a.7.7,0,0,0-.6.2m-6.9,5.3c1.3,0,2.4-1,3.3-1.9a.3.3,0,0,1,.1-.2,6.3,6.3,0,0,1-3.3.9l-.6,1.2h.5M22.7,0V0a12.3,12.3,0,0,0-4.2.7l-.4.2a6.9,6.9,0,0,1-2.4.5h0a6.9,6.9,0,0,1-2-.3L12.8.9,11.1.7A6.3,6.3,0,0,0,7.2,2L5.6,3.3A16.5,16.5,0,0,1,2.9,5.2C1.3,6.1.3,7.3.2,8.6a2.8,2.8,0,0,0,.4,2.7l.5.6a22.7,22.7,0,0,1,2.2,3.6,26.1,26.1,0,0,1,1.3,4.3,11.8,11.8,0,0,1,.3,2.1,22,22,0,0,0,.2,5.2,23,23,0,0,0,1.4,5.6,7.6,7.6,0,0,0,3.6,3.9l1,.4.8.3h.3l.7.4a2.3,2.3,0,0,0-1.4,1.5,6.2,6.2,0,0,0-.1,1.9,2.2,2.2,0,0,1,.1.8,3.1,3.1,0,0,1-.2.8,4.8,4.8,0,0,0-.4,1.8c0,2.2,1.9,2.6,3,2.9h.2c.5.1.8.5,1.2,1.2a6.1,6.1,0,0,0,1.3,1.5,3.2,3.2,0,0,0,2,.8,5.8,5.8,0,0,0,1.9-.4l1.2-.3H22a9.8,9.8,0,0,1,2.2.5l2.3.5h.4a5.4,5.4,0,0,0,4-1.9l.5-.5a9.4,9.4,0,0,1,1-1,2,2,0,0,1,.8-.4,4.2,4.2,0,0,0,1.2-.8,2.7,2.7,0,0,0,1-2.7c0-.3-.1-.5-.1-.7a.9.9,0,0,1-.1-.5,1.1,1.1,0,0,1,.1-.8c0-.2.1-.5.1-.8a3,3,0,0,0-.6-1.8,5,5,0,0,0-1.7-1.1A20,20,0,0,0,36,36.9,8,8,0,0,0,38.9,34h.3a4.8,4.8,0,0,0,3.4-1.5A18.9,18.9,0,0,0,45.9,29l.3-.2h.9a3.7,3.7,0,0,0,1.8.5l.9-.2a2.2,2.2,0,0,0,1.4-1.4,2,2,0,0,0,.2-1.3,6.4,6.4,0,0,0,1.9-.8,6.1,6.1,0,0,0,2.6-2.9,15.1,15.1,0,0,0,.6-3.5,4.9,4.9,0,0,1,.1-1.2,9,9,0,0,1,.6-2.2,4.1,4.1,0,0,0,.6-2.3,1.2,1.2,0,0,0-1.2-1.2h-1a3.9,3.9,0,0,1-2-.9,8,8,0,0,0-1.6-.8,7,7,0,0,0-2.5-.5H48.4l-1.1.3a5.3,5.3,0,0,0-1.5.8,7.8,7.8,0,0,0,.5-1.4c.7-3.2-1.8-4.5-3.6-5.5a9.9,9.9,0,0,1-2-1.3h0A7.9,7.9,0,0,0,36.1.5h-.8a16.4,16.4,0,0,0-3.2.5l-1.9.4h-.5A8.8,8.8,0,0,1,27,.8,15.5,15.5,0,0,0,24.7.2l-2-.2ZM41.9,19.8l1.2-.4h.2a9.5,9.5,0,0,0,2.6-1.6l1.1-1a4.2,4.2,0,0,1,2.3-1.6h.5a3.8,3.8,0,0,1,1.3.6l1.2.5a9.5,9.5,0,0,0-.9,3.4v.3a3.5,3.5,0,0,1-.6,2.1l-.7.5-1.4.3a14.6,14.6,0,0,0-5,2l-1.6,1.3-.8.7a17,17,0,0,0,.1-2.2,37.1,37.1,0,0,1,.5-4.8Z" style="fill:#e75c78"/></g></g></svg>