<svg xmlns="http://www.w3.org/2000/svg" viewBox="0 0 101.8 141.8"><g style="isolation:isolate"><g id="Layer_2" data-name="Layer 2"><g id="Layer_1-2" data-name="Layer 1"><circle cx="50.9" cy="125.5" r="14.7" style="fill:#ffeb81"/><path d="M50.9,112.3a13.3,13.3,0,1,1-13.2,13.2,13.2,13.2,0,0,1,13.2-13.2m0-3a16.3,16.3,0,1,0,16.2,16.2,16.2,16.2,0,0,0-16.2-16.2Z" style="fill:#fcd54d"/><rect x="50.5" width="3.2" height="49.02"/><path d="M54.9,60.9l-6.8-.5a1.6,1.6,0,0,1-1.4-1.6c.1-4.1.9-13.8,5.6-13.8a3.7,3.7,0,0,1,2.3,1c2.6,2.9,2.1,11.8,2,13.5a2.4,2.4,0,0,1-.6,1.1,1.4,1.4,0,0,1-.9.3Z" style="fill:#ffeb81"/><path d="M52.3,46.5c3.7,0,2.8,12.9,2.8,12.9l-6.9-.5s.3-12.4,4.1-12.4m0-3h0c-5.8,0-6.9,9.6-7.1,15.3A3.1,3.1,0,0,0,48,61.9l6.8.5h.3a2.6,2.6,0,0,0,1.9-.7,2.8,2.8,0,0,0,1-2.1c.3-3.3.5-11.5-2.3-14.6a4.8,4.8,0,0,0-3.4-1.5Z" style="fill:#ffaa5a"/><path d="M43,59.7l.2,1.7a3.5,3.5,0,0,0,2.1,2.7c2.5.9,7.5,1.9,14.4-.4a3.4,3.4,0,0,0,2.2-3.4L61.7,59S54.1,54.6,43,59.7Z" style="fill:#ff8c54"/><path d="M43,59.7s9.4,4.2,18.7-.7C61.7,59,54.5,54.5,43,59.7Z" style="fill:#0065dd;opacity:0.25;mix-blend-mode:multiply"/><path d="M55.8,59c0,.5-1.5.9-3.4,1s-3.5-.3-3.5-.8,1.5-.9,3.4-1S55.8,58.5,55.8,59Z" style="fill:#ff8c54"/><path d="M40.1,137.8a1.5,1.5,0,0,1-1.3-1.1c-1.2-4.6-3.1-7-5.8-7s-7.7,3.8-9,5.2a1.3,1.3,0,0,1-1.1.5h-.6a1.5,1.5,0,0,1-.9-1.6,30.9,30.9,0,0,0,.4-5.8l-1.1.8c-2.1,1.5-4.9,3.6-8.4,3.6A9.1,9.1,0,0,1,10,132c-9.9-2.7-8.5-17.1-8.4-17.7a1.4,1.4,0,0,1,.7-1.1,1.1,1.1,0,0,1,.8-.3h.4a31.3,31.3,0,0,0,8.2,1.2h0c19.9,0,22.9-25.4,24.8-40.5a53.2,53.2,0,0,1,1.4-9.1C41,55,51.8,54.6,54,54.6h.3c11.4,0,12.4,10.3,13.7,22.2.8,7.7,1.7,16.5,5.3,24.7,5.2,11.8,12.8,14.2,18.3,14.2a19.8,19.8,0,0,0,6.6-1.1l.6-.2a1.3,1.3,0,0,1,.8.3,1.4,1.4,0,0,1,.7,1.2c0,.7.2,7.1-2.8,10.3a5.6,5.6,0,0,1-4,1.7,10.2,10.2,0,0,1-3.6-.8,7.5,7.5,0,0,0-3-.9c-.7,0-.9.3-.9.4s-.4,3-.1,4.2a1.4,1.4,0,0,1-.6,1.6,1.3,1.3,0,0,1-.8.3,1.3,1.3,0,0,1-1-.4c-4.7-3.8-9-5.8-12.7-5.8-8.2,0-11.4,10.2-11.4,10.3a1.4,1.4,0,0,1-1.3,1H58a1.3,1.3,0,0,1-1.3-.8c-1.8-3-4.5-6.6-7.5-6.6s-6.7,4.7-7.6,6.5a1.5,1.5,0,0,1-1.3.9Z" style="fill:#baa2ee"/><path d="M54,56.1h.2c16.7,0,8.4,24.7,17.7,46,5.5,12.5,13.8,15.1,19.7,15.1a19.8,19.8,0,0,0,7.2-1.3s.5,10.5-5.3,10.5a6.8,6.8,0,0,1-2.9-.7,9.7,9.7,0,0,0-3.7-1c-4.3,0-2.4,6.5-2.4,6.5-5.6-4.6-10.1-6.2-13.7-6.2C61.3,125,58,136.4,58,136.4c-3.2-5.5-6.2-7.4-8.8-7.4-5.3,0-8.9,7.4-8.9,7.4-1.6-6.2-4.4-8.2-7.3-8.2-4.9,0-10.1,5.7-10.1,5.7.8-6,.5-7.9-.5-7.9s-5.3,4.8-10.1,4.8l-1.9-.2c-8.8-2.5-7.3-16.2-7.3-16.2a31.5,31.5,0,0,0,8.6,1.3c26.7,0,24.9-42,27.7-50.6s12.8-9,14.6-9m0-3h0c-2.4,0-14.1.5-17.5,11A71.3,71.3,0,0,0,35,73.5c-2.3,18.9-6.2,39.2-23.3,39.2a28.5,28.5,0,0,1-7.8-1.2H3.1a3.4,3.4,0,0,0-1.7.5,3.2,3.2,0,0,0-1.3,2.2c-.1.7-1.7,16.3,9.5,19.4l2.7.3a13.9,13.9,0,0,0,7.9-2.9,13.8,13.8,0,0,1-.3,2.6,3.1,3.1,0,0,0,1.8,3.1,2.7,2.7,0,0,0,1.2.3,2.8,2.8,0,0,0,2.2-1c1.2-1.2,5-4.7,7.9-4.7s3.4,2,4.4,5.9a2.9,2.9,0,0,0,2.6,2.2h.3a3.1,3.1,0,0,0,2.7-1.7c.9-1.8,3.6-5.7,6.2-5.7s4,2.1,6.2,5.9a3,3,0,0,0,2.6,1.5h.3a2.8,2.8,0,0,0,2.5-2.1c.1-.1,2.9-9.2,10-9.2,3.4,0,7.3,1.9,11.8,5.5a2.6,2.6,0,0,0,1.9.7,3.3,3.3,0,0,0,1.6-.5,3,3,0,0,0,1.2-3.4,8,8,0,0,1-.2-2.6,14.8,14.8,0,0,1,2.2.7,9.9,9.9,0,0,0,4.2,1,6.7,6.7,0,0,0,5.1-2.2c3.4-3.6,3.2-10.6,3.2-11.4a3.2,3.2,0,0,0-1.4-2.4,3.3,3.3,0,0,0-1.6-.5,2.7,2.7,0,0,0-1.2.3,17.7,17.7,0,0,1-6,1c-7.3,0-13-4.4-16.9-13.3s-4.4-16.7-5.2-24.3S68.3,65,66.4,60.8s-6.3-7.7-12.1-7.7Z" style="fill:#5576b4"/><path d="M52.9,56.1c-3.1.2-11.1,1.4-13.5,9-3.1,9.4-.6,59.1-36.3,49.3,0,0-1.5,13.7,7.3,16.2s14.6-13.7,12.5,3.3c0,0,4.8-5.3,9.6-5.6,2.8-4,12.2-19.1,12.6-44.7C45.5,60.7,50.5,56.7,52.9,56.1Z" style="fill:#0065dd;opacity:0.25;mix-blend-mode:multiply"/><path d="M58,136.4s2.8-37.6-2.2-52.8C55.8,83.6,51.1,117.5,58,136.4Z" style="fill:#0065dd;opacity:0.25;mix-blend-mode:multiply"/><path d="M66.6,99.3s12,26.4,17.9,31.9C84.5,131.2,67.8,115.8,66.6,99.3Z" style="fill:#0065dd;opacity:0.25;mix-blend-mode:multiply"/><path d="M40.3,136.4s7.7-24.8,6.5-40.2C46.8,96.2,39.9,134.1,40.3,136.4Z" style="fill:#0065dd;opacity:0.25;mix-blend-mode:multiply"/><path d="M22.9,133.9s15.8-19.4,16-29.7C38.9,104.2,28.4,126.2,22.9,133.9Z" style="fill:#0065dd;opacity:0.25;mix-blend-mode:multiply"/><path d="M40.1,89.8s-3.4-9.1.2-10.7S40.1,89.8,40.1,89.8Z" style="fill:#0065dd;opacity:0.25;mix-blend-mode:multiply"/><path d="M48.2,87.5s-4.4-9,.3-10.6S48.2,87.5,48.2,87.5Z" style="fill:#0065dd;opacity:0.25;mix-blend-mode:multiply"/><path d="M60,88.5s4.4-9-.3-10.6S60,88.5,60,88.5Z" style="fill:#0065dd;opacity:0.25;mix-blend-mode:multiply"/><path d="M64.4,93.6s-2.2-8.3.1-9.8S64.4,93.6,64.4,93.6Z" style="fill:#0065dd;opacity:0.25;mix-blend-mode:multiply"/><path d="M40.1,90.5s-3.4-9,.2-10.6S40.1,90.5,40.1,90.5Z" style="fill:#ffeb81"/><path d="M48.2,88.3s-4.4-9.1.3-10.7S48.2,88.3,48.2,88.3Z" style="fill:#ffeb81"/><path d="M60,89.3s4.4-9.1-.3-10.7S60,89.3,60,89.3Z" style="fill:#ffeb81"/><path d="M64.4,94.3s-2.2-8.3.1-9.7S64.4,94.3,64.4,94.3Z" style="fill:#ffeb81"/></g></g></g></svg>