<svg xmlns="http://www.w3.org/2000/svg" viewBox="0 0 33.3 32.1"><g style="isolation:isolate"><g id="Layer_2" data-name="Layer 2"><g id="Layer_1-2" data-name="Layer 1"><rect x="1" y="13.8" width="31.3" height="17.35" rx="7.1" style="fill:#f9ba67"/><path d="M25.2,14.8a6,6,0,0,1,6.1,6V24a6.1,6.1,0,0,1-6.1,6.1H8.1A6.1,6.1,0,0,1,2,24V20.8a6,6,0,0,1,6.1-6H25.2m0-2H8.1a8,8,0,0,0-8.1,8V24a8.1,8.1,0,0,0,8.1,8.1H25.2A8.1,8.1,0,0,0,33.3,24V20.8a8,8,0,0,0-8.1-8Z" style="fill:#ff8d3d"/><path d="M2,20.8V24a6.1,6.1,0,0,0,6.1,6.1h7.4A6.1,6.1,0,0,1,9.4,24V20.8a6,6,0,0,1,6.1-6H8.1A6,6,0,0,0,2,20.8Z" style="fill:#f9ba67;opacity:0.30000000000000004;mix-blend-mode:multiply"/><path d="M15.2,14.8V15a1.1,1.1,0,0,0,1.1,1.1h.4A1.1,1.1,0,0,0,17.8,15v-.2Z" style="fill:#ffe6c2;opacity:0.4;mix-blend-mode:multiply"/><path d="M16.5,0c.2,3.8,6.9,12.7,0,13.2a3.1,3.1,0,0,1-3.1-2.6C13,8,15.7,3.9,16.5,0Z" style="fill:#fcd54d"/><path d="M16.5,5.2c.1,2.2,4.1,7.5,0,7.8a1.7,1.7,0,0,1-1.8-1.5C14.4,9.9,16,7.5,16.5,5.2Z" style="fill:#ffd279;mix-blend-mode:screen"/><path d="M16.5,15.6a.5.5,0,0,0,.5-.5V11.3a.5.5,0,0,0-1,0v3.8A.5.5,0,0,0,16.5,15.6Z" style="fill:#c4e0bd"/></g></g></g></svg>