<svg xmlns="http://www.w3.org/2000/svg" xmlns:xlink="http://www.w3.org/1999/xlink" viewBox="0 0 219.9 324.1"><defs><linearGradient id="linear-gradient" x1="161.52" y1="323.03" x2="44.6" y2="120.52" gradientUnits="userSpaceOnUse"><stop offset="0.56" stop-color="#fff"/><stop offset="1" stop-color="#fffab8"/></linearGradient><clipPath id="clip-path"><path d="M134.1,252.2v67.9l-23.8,1-23.8-1V252.2a4.6,4.6,0,0,1,4.5-4.6h38.5A4.7,4.7,0,0,1,134.1,252.2Z" style="fill:none"/></clipPath><linearGradient id="linear-gradient-2" x1="89.97" y1="91.45" x2="80.35" y2="79.55" gradientUnits="userSpaceOnUse"><stop offset="0.01" stop-color="#ba8a32"/><stop offset="1" stop-color="#e2a854"/></linearGradient><linearGradient id="linear-gradient-3" x1="97.69" y1="93.52" x2="90.93" y2="85.15" xlink:href="#linear-gradient-2"/><linearGradient id="linear-gradient-4" x1="112.13" y1="88.82" x2="100.63" y2="74.59" xlink:href="#linear-gradient-2"/><linearGradient id="linear-gradient-5" x1="581.49" y1="91.45" x2="571.87" y2="79.55" gradientTransform="matrix(-1, 0, 0, 1, 714.06, 0)" xlink:href="#linear-gradient-2"/><linearGradient id="linear-gradient-6" x1="124.85" y1="93.52" x2="131.61" y2="85.15" xlink:href="#linear-gradient-2"/><linearGradient id="linear-gradient-7" x1="109.05" y1="85.05" x2="120.55" y2="70.81" xlink:href="#linear-gradient-2"/></defs><g style="isolation:isolate"><g id="Layer_2" data-name="Layer 2"><g id="Layer_1-2" data-name="Layer 1"><path d="M110.3,322.6c-29.3,0-56.1-4.3-71.8-11.4a1.5,1.5,0,0,1-.8-1.6l3.9-27.2L66.5,108.6a1.4,1.4,0,0,1,1.4-1.3h84.7a1.5,1.5,0,0,1,1.5,1.3l24.8,173.8,3.9,27.2a1.5,1.5,0,0,1-.8,1.6C166.3,318.3,139.5,322.6,110.3,322.6Z" style="fill:url(#linear-gradient)"/><path d="M152.6,108.8l24.9,173.8,3.9,27.2c-14.9,6.8-41.2,11.3-71.1,11.3S54,316.6,39.2,309.8l3.9-27.2L67.9,108.8h84.7m0-3H67.9a3,3,0,0,0-2.9,2.6L40.1,282.2l-3.9,27.2a3.1,3.1,0,0,0,1.7,3.2c15.9,7.2,42.9,11.5,72.4,11.5s56.4-4.3,72.3-11.5a3.1,3.1,0,0,0,1.7-3.2l-3.9-27.2L155.5,108.4a2.9,2.9,0,0,0-2.9-2.6Z" style="fill:#8d8d8d"/><polygon points="68.5 108.8 153.1 108.8 157.4 138.3 67.2 118 68.5 108.8" style="fill:#c9c393;opacity:0.5;mix-blend-mode:multiply"/><path d="M97.1,172.7a1.5,1.5,0,0,1-1.5-1.5V138.8a4.8,4.8,0,0,1,4.8-4.7h19.7a4.7,4.7,0,0,1,4.8,4.7v32.4a1.5,1.5,0,0,1-1.5,1.5Z" style="fill:#ec7670"/><path d="M120.1,135.6a3.2,3.2,0,0,1,3.3,3.2v32.4H97.1V138.8a3.2,3.2,0,0,1,3.3-3.2h19.7m0-3H100.4a6.3,6.3,0,0,0-6.3,6.2v32.4a3,3,0,0,0,3,3h26.3a3,3,0,0,0,3-3V138.8a6.3,6.3,0,0,0-6.3-6.2Z" style="fill:#781f1a"/><path d="M97.1,159.9v11.3h26.3V148.7a13.1,13.1,0,0,0-3.5-8.9C115.1,148.8,106.4,155.9,97.1,159.9Z" style="fill:#e05555;opacity:0.30000000000000004;mix-blend-mode:multiply"/><g style="clip-path:url(#clip-path)"><path d="M92.4,247.6h35.8a5.9,5.9,0,0,1,5.9,5.9v67.5a0,0,0,0,1,0,0H86.5a0,0,0,0,1,0,0V253.5A5.9,5.9,0,0,1,92.4,247.6Z" style="fill:#ec7670"/><path d="M129,256.8c-6,20.9-21.6,40.4-42.5,45v19.3h47.6V271.4A23.3,23.3,0,0,0,129,256.8Z" style="fill:#e05555;opacity:0.30000000000000004;mix-blend-mode:multiply"/></g><path d="M129.5,247.6a4.7,4.7,0,0,1,4.6,4.6v67.9l-23.8,1-23.8-1V252.2a4.6,4.6,0,0,1,4.5-4.6h38.5m0-3H91a7.5,7.5,0,0,0-7.5,7.6v67.9a3,3,0,0,0,2.8,3l23.8,1h.3l23.8-1a3.1,3.1,0,0,0,2.9-3V252.2a7.6,7.6,0,0,0-7.6-7.6Z" style="fill:#781f1a"/><path d="M86.5,320.1l23.8,1C102,321.1,94,320.7,86.5,320.1Z" style="fill:#d8c3cb"/><path d="M134.1,320.1c-7.6.7-15.6,1-23.8,1Z" style="fill:#d8c3cb"/><rect x="96.9" y="194.3" width="26.6" height="31.27" rx="1.5" style="fill:#ec7670"/><path d="M122.1,195.8V224H98.4V195.8h23.7m0-3H98.4a3,3,0,0,0-3,3V224a3,3,0,0,0,3,3h23.7a3,3,0,0,0,3-3V195.8a3,3,0,0,0-3-3Z" style="fill:#781f1a"/><path d="M115.4,195.8a37.1,37.1,0,0,1-17,20V224h23.7V195.8Z" style="fill:#e05555;opacity:0.30000000000000004;mix-blend-mode:multiply"/><path d="M110.3,58.3l58.3,50.5v2.7H52v-2.7L65.4,97.1h0l44.9-38.8m0-3a3.1,3.1,0,0,0-2,.7L63.5,94.8,50,106.5a2.9,2.9,0,0,0-1,2.3v2.7a3,3,0,0,0,3,3H168.6a3.1,3.1,0,0,0,3-3v-2.7a3,3,0,0,0-1.1-2.3L112.2,56a2.6,2.6,0,0,0-1.9-.7Z" style="fill:#6a3417"/><polygon points="165.4 108.8 110.3 61 55.1 108.8 52 108.8 52 111.5 168.6 111.5 168.6 108.8 165.4 108.8" style="fill:#924f28"/><polygon points="52 108.8 110.3 58.3 168.6 108.8 52 108.8" style="fill:#ce894a"/><path d="M128.1,73.7,110.3,58.3,65.4,97.1C87.9,99.6,115,92.2,128.1,73.7Z" style="fill:#d8a960;opacity:0.7000000000000001;mix-blend-mode:screen"/><polygon points="106.5 65.4 66.4 108.8 69.7 109 106.5 65.4" style="opacity:0.5;mix-blend-mode:multiply;fill:url(#linear-gradient-2)"/><g style="mix-blend-mode:multiply"><path d="M104.5,74.4l-5,7.6-5,7.4-5.2,7.5-5.2,7.4c1.6-2.6,3.3-5.1,5-7.6l5-7.5,5.2-7.4Z" style="fill:url(#linear-gradient-3)"/></g><g style="mix-blend-mode:multiply"><path d="M110.3,67l-1.8,7.4-1.9,7.4-2,7.3-2.1,7.3,1.8-7.4,1.9-7.3,2-7.4C108.8,71.9,109.5,69.4,110.3,67Z" style="fill:url(#linear-gradient-4)"/></g><polygon points="116 65.4 156.2 108.8 152.8 109 116 65.4" style="opacity:0.5;mix-blend-mode:multiply;fill:url(#linear-gradient-5)"/><g style="mix-blend-mode:multiply"><path d="M118,74.4l5.2,7.4,5.2,7.4,5.1,7.5c1.6,2.5,3.3,5,4.9,7.6l-5.2-7.4-5.1-7.5L123,82Z" style="fill:url(#linear-gradient-6)"/></g><g style="mix-blend-mode:multiply"><path d="M110.9,63.2l2.1,7.3,2,7.4,1.9,7.3,1.8,7.4-2.1-7.3-2-7.3-1.9-7.4Z" style="fill:url(#linear-gradient-7)"/></g><polygon points="160 136 113.5 108.9 140.6 62.4 136.3 59.8 109.1 106.4 62.6 79.3 60.1 83.6 106.6 110.7 79.5 157.3 83.8 159.8 110.9 113.2 157.5 140.4 160 136" style="fill:#75411a"/><path d="M176.7,103.5h0a9.5,9.5,0,0,1,9.5,9.5v79.7a0,0,0,0,1,0,0h-19a0,0,0,0,1,0,0V113A9.5,9.5,0,0,1,176.7,103.5Z" transform="matrix(-0.5, 0.86, -0.86, -0.5, 393.72, 69.98)" style="fill:#fcd54d"/><path d="M168.3,154.2l34.8,20.2a8.5,8.5,0,0,0,11.7-3.1h0a8.6,8.6,0,0,0-1.1-10.2C199.9,153.1,183.7,149.9,168.3,154.2Z" style="fill:#fcd54d;mix-blend-mode:screen"/><path d="M143,117.5l69.7,40.6a8.5,8.5,0,0,1,3.1,11.6l-1,1.7h0l-.6,1a7.3,7.3,0,0,1-6.3,3.7,7.9,7.9,0,0,1-3.7-1l-70.7-41.2,8.6-14.9h0l.9-1.5m0-3a3,3,0,0,0-2.6,1.5l-.8,1.4h-.1l-8.6,14.9a3,3,0,0,0,1,4.1l70.8,41.2a10.1,10.1,0,0,0,5.2,1.4,10.5,10.5,0,0,0,8.9-5.2l.5-.9h.1l1-1.7a11.5,11.5,0,0,0-4.2-15.7l-69.7-40.6a2.8,2.8,0,0,0-1.5-.4Z" style="fill:#ffaa5a"/><path d="M148.4-1.5h0A9.5,9.5,0,0,1,157.8,8V87.7a0,0,0,0,1,0,0h-19a0,0,0,0,1,0,0V8a9.5,9.5,0,0,1,9.5-9.5Z" transform="matrix(0.86, 0.5, -0.5, 0.86, 41.87, -68.82)" style="fill:#fcd54d"/><path d="M154.4,51.6l20.2-34.8A8.6,8.6,0,0,0,171.5,5h0a8.6,8.6,0,0,0-10.2,1.2C153.3,19.9,150.1,36.1,154.4,51.6Z" style="fill:#fcd54d;mix-blend-mode:screen"/><path d="M165.7,3a8.8,8.8,0,0,1,4.4,1.2l.6.3,1.9,1.2a7.3,7.3,0,0,1,2.7,10L161.4,39.5l-7,12.1h0L134.1,86.4l-14.9-8.7h0l-1.5-.8L158.2,7.3A8.8,8.8,0,0,1,165.7,3m0-3a11.5,11.5,0,0,0-10,5.8L115.1,75.4a3.1,3.1,0,0,0,1.1,4.1l1.5.8L132.6,89a2.8,2.8,0,0,0,1.5.4h.8a3.1,3.1,0,0,0,1.8-1.4L157,53.1,164,41l13.9-23.8a10.3,10.3,0,0,0-3.7-14.1l-2-1.2-.6-.3A11.1,11.1,0,0,0,165.7,0Z" style="fill:#ffaa5a"/><path d="M86.6,85.8l-9.5,16.3L7,61.3a8.1,8.1,0,0,1-2.9-11l1.4-2.5a8.2,8.2,0,0,1,11.1-2.9Z" style="fill:#fcd54d"/><path d="M51.8,65.5,17,45.2A8.6,8.6,0,0,0,5.2,48.3h0A8.9,8.9,0,0,0,6.4,58.6C20.1,66.6,36.4,69.8,51.8,65.5Z" style="fill:#fcd54d;mix-blend-mode:screen"/><path d="M12.2,43.6a6.9,6.9,0,0,1,3.7,1l.6.3h.1l70,40.9L78,100.7h0l-.9,1.4L7,61.3a8.1,8.1,0,0,1-2.9-11l.5-.9h0l1.3-2.2a7.3,7.3,0,0,1,6.3-3.6m0-3a10.2,10.2,0,0,0-8.9,5.1L2,47.9H2l-.5.8a11.1,11.1,0,0,0,4,15.1l70.1,40.8a2.8,2.8,0,0,0,1.5.4h.8a3.1,3.1,0,0,0,1.8-1.4l.9-1.4,8.6-14.9a2.9,2.9,0,0,0-1.1-4.1l-70-40.9H18l-.6-.3a10.1,10.1,0,0,0-5.2-1.4Z" style="fill:#ffaa5a"/><path d="M71.7,131.9h0a9.5,9.5,0,0,1,9.5,9.5v79.7a0,0,0,0,1,0,0h-19a0,0,0,0,1,0,0V141.4a9.5,9.5,0,0,1,9.5-9.5Z" transform="translate(44.9 365.2) rotate(-149.8)" style="fill:#fcd54d"/><path d="M65.7,168.1,45.4,202.8a8.6,8.6,0,0,0,3.1,11.8h0a8.7,8.7,0,0,0,10.3-1.1C66.8,199.7,70,183.5,65.7,168.1Z" style="fill:#fcd54d;mix-blend-mode:screen"/><path d="M86,133.2l14.9,8.7h0l1.5.9L61.8,212.5a8.6,8.6,0,0,1-7.4,4.2,9.8,9.8,0,0,1-4.3-1.1l-1.5-1h-.2l-1-.6a7.5,7.5,0,0,1-2.6-10.1l.6-.9h0l6.1-10.4L86,133.2m0-3a3.2,3.2,0,0,0-2.6,1.5L48.9,190.9l-6.1,10.4h-.1l-.5.9a10.3,10.3,0,0,0,3.7,14.2l1,.5h.2l1.5.9a11,11,0,0,0,5.8,1.6,11.4,11.4,0,0,0,9.9-5.7L105,144.3a3.1,3.1,0,0,0,.3-2.3,2.8,2.8,0,0,0-1.4-1.8l-1.5-.9-14.9-8.7a4.2,4.2,0,0,0-1.5-.4Z" style="fill:#ffaa5a"/><path d="M118.7,109.8a8.5,8.5,0,0,1-16.9,0,8.5,8.5,0,0,1,16.9,0Z" style="fill:#335394"/></g></g></g></svg>