<svg xmlns="http://www.w3.org/2000/svg" xmlns:xlink="http://www.w3.org/1999/xlink" viewBox="0 0 195.6 28.9"><defs><clipPath id="clip-path"><path d="M3,12a9,9,0,0,1,9-9H93.7V25.9H85.6L62.5,17.6V14.9H3Z" style="fill:none"/></clipPath></defs><g id="Layer_2" data-name="Layer 2"><g id="Layer_1-2" data-name="Layer 1"><g style="clip-path:url(#clip-path)"><polygon points="85.6 10.2 93.7 10.2 93.7 25.9 85.6 25.9 62.5 17.6 62.5 10.2 85.6 10.2" style="fill:#613629"/><path d="M3,15.9a1,1,0,0,1-1-1V12A10,10,0,0,1,12,2H184.6a10,10,0,0,1,10,10v2.9a1,1,0,0,1-1,1Z" style="fill:#af7553"/><path d="M184.6,3a9,9,0,0,1,9,9v2.9H3V12a9,9,0,0,1,9-9H184.6m0-2H12A11,11,0,0,0,1,12v2.9a2,2,0,0,0,2,2H193.6a2,2,0,0,0,2-2V12a11,11,0,0,0-11-11Z" style="fill:#75411a"/><path d="M15.4,4.7H182c4.8,0,8.7,2.1,8.7,4.7v1.5H6.6V9.4C6.6,6.8,10.5,4.7,15.4,4.7Z" style="fill:#ce894a"/></g><path d="M93.7,3V25.9H85.6L62.5,17.6V14.9H3V12a9,9,0,0,1,9-9H93.7m0-3H12A12,12,0,0,0,0,12v2.9a3,3,0,0,0,3,3H59.5a3.1,3.1,0,0,0,1.9,2.5l23.2,8.3,1,.2h8.1a3,3,0,0,0,3-3V3a3,3,0,0,0-3-3Z" style="fill:#75411a"/></g></g></svg>