<svg xmlns="http://www.w3.org/2000/svg" viewBox="0 0 75.3 29.5"><g id="Layer_2" data-name="Layer 2"><g id="Layer_1-2" data-name="Layer 1"><path d="M73.3,13.4c.1-1.2-1.2-1.9-2.6-2.4l-.9-.4A4.3,4.3,0,0,1,67.9,9a3.6,3.6,0,0,0-1.1-1,9.7,9.7,0,0,0-3.9-.8,3.4,3.4,0,0,1-2.4-1.1,5,5,0,0,0-1.3-1.2c-2.4-1.5-6.2-.4-8.9-1.4a35.2,35.2,0,0,0-3.9-1.7,11.6,11.6,0,0,0-4.9.6,8.6,8.6,0,0,1-1.7.3,13,13,0,0,1-4.8,0,11.3,11.3,0,0,1-1.8-.3,11,11,0,0,0-4.8-.6c-1.5.4-2.6,1.2-4,1.7S18,3.4,15.6,4.9a3.8,3.8,0,0,0-1.3,1.2,3.6,3.6,0,0,1-2.4,1.1c-3.2,0-4.6,1.3-5.1,2a6.4,6.4,0,0,1-1.5,1.3L4.1,11c-1.5.5-2.7,1.2-2.7,2.4s1.3,2,1.3,3.1-.5,1.3-.3,2a2,2,0,0,0,.8,1.2,14.2,14.2,0,0,0,3.6,1.4l1.7.8a12.1,12.1,0,0,1,1.6,1.6c2.1,2,5.5,2.1,8.9,2.2a19,19,0,0,1,5.3.9,18.7,18.7,0,0,0,5.4,1.5,30.8,30.8,0,0,0,6.8-.1,4.8,4.8,0,0,1,1.7,0,31,31,0,0,0,6.8.1,19.4,19.4,0,0,0,5.5-1.5,18.4,18.4,0,0,1,5.3-.9c3.4-.1,6.7-.2,8.8-2.2.6-.5,1-1.1,1.6-1.6l1.7-.8a11.8,11.8,0,0,0,3.6-1.4,1.8,1.8,0,0,0,.9-1.2c.2-.7-.3-1.3-.3-2S73.3,14.5,73.3,13.4Z" style="fill:#ffa4b6"/><path d="M73.1,15.6c.2-1.2,1.6-2.3,1.1-3.5s-1.9-1.5-3.3-2-2.1-1.5-3.1-2.4-2.7-1.2-4.6-1.4a3.9,3.9,0,0,1-2.3-.6L59.2,4.4c-1.3-1-3.1-1.2-5-1.3a12.3,12.3,0,0,1-2.7-.2,12.5,12.5,0,0,1-2.7-1,10.2,10.2,0,0,0-5-.9c-1.9.2-3.6.8-5.5,1.1a13.6,13.6,0,0,1-5.7-.7,9.5,9.5,0,0,0-5.8.4L24.5,3a7.2,7.2,0,0,1-3.3.6H18.7a6.4,6.4,0,0,0-2.8.7c-.5.2-2.2,1.5-2.6,1.7a7.6,7.6,0,0,1-3,1A6.5,6.5,0,0,0,6.4,8.9a7.8,7.8,0,0,1-2.8,1.7A4.8,4.8,0,0,0,1.3,12a2,2,0,0,0,.2,2.3,14.7,14.7,0,0,1,.6,1.4,4.2,4.2,0,0,1-.4,1.5,2.1,2.1,0,0,0,0,2.4,4.3,4.3,0,0,0,2.7,1.3A11,11,0,0,1,7.6,22c.8.5,1.5,1.2,2.3,1.8a6.7,6.7,0,0,0,2.9,1.5,14.6,14.6,0,0,0,4.2.4,22.2,22.2,0,0,1,4.5.4l4,1.1a18.3,18.3,0,0,0,8.1,1.1l3.1-.3a14.6,14.6,0,0,1,3,.2,40.3,40.3,0,0,0,4.9.3A26.7,26.7,0,0,0,53.4,27a11.4,11.4,0,0,1,3.3-.8,29.8,29.8,0,0,0,5.1-.7,7.5,7.5,0,0,0,3.8-2.2,4.8,4.8,0,0,1,2-1.4l2.1-.8c1.3-.4,2.7-.8,3.3-1.7S73,16.9,73.1,15.6Zm-.8-1.7a4,4,0,0,0-.6,1.6,5.8,5.8,0,0,0,.2,1.9,1.7,1.7,0,0,1-.4,1.8,4.6,4.6,0,0,1-1.7.9,16,16,0,0,0-4.2,1.6c-.8.6-1.2,1.3-2,1.9a7,7,0,0,1-2.3,1c-3.4,1.1-4.6.3-8.5,1.2a37.1,37.1,0,0,1-7,1.5,31,31,0,0,1-4.3-.2c-1.4-.1-2.9-.4-4.4-.4l-4.4.5a10.2,10.2,0,0,1-3.9-.2c-2.5-.5-4.8-1.4-7.3-1.9a15.5,15.5,0,0,0-3.7-.4,19.8,19.8,0,0,1-4.2-.3c-2.4-.4-3.3-2.1-4.9-3.2a11.7,11.7,0,0,0-2.6-1c-1-.2-2.4-.3-3-.9s0-1.8.2-2.6A2.7,2.7,0,0,0,3,14.4c-.5-.8-1.1-1.7,0-2.5s2-.8,2.9-1.3,2-1.9,3.3-2.2c8.2-2,6.9-3.6,10-3.7s4.6,0,6.3-.7S28,2.4,29.6,2.3s3.8.7,5.6.9a11.6,11.6,0,0,0,4.9-.3c1.7-.3,3.5-.9,5.3-.7s3.2,1.1,4.7,1.6a30.7,30.7,0,0,0,5.3.6c2,.1,2.7,1,3.9,1.9S62,7.5,63.8,7.6a3.5,3.5,0,0,1,2.3.6l1.3,1.3a6.5,6.5,0,0,0,3.4,1.8,3.8,3.8,0,0,1,1.8.8C73,12.7,72.6,13.4,72.3,13.9Z" style="fill:#ffc74e"/><path d="M9.6,7.5c-2,.2-3,1.7-4.4,2.5s-3.4,1.3-3.6,2.5h.3c.8-1.1,2.7-1.5,4-2.3S8.3,8.4,9.7,7.6,9.7,7.5,9.6,7.5Z" style="fill:#ffe983"/><path d="M31.9,27.6a15.8,15.8,0,0,1-5.5-1,16.1,16.1,0,0,0-4.8-1.2,33.1,33.1,0,0,0-5.5-.6,13.8,13.8,0,0,1-2.9-.1,14.5,14.5,0,0,1-2.5-1.2.1.1,0,0,0-.1.1A4.1,4.1,0,0,0,14,25.2h3.3a20.9,20.9,0,0,1,3.6.4l2.9.5a15.7,15.7,0,0,1,2.8,1,15.5,15.5,0,0,0,2.3.6,15.1,15.1,0,0,0,3-.2Z" style="fill:#ffe983"/><path d="M51.5,13.8c-1-1.7-3.2-2.7-5.7-3.3a30.8,30.8,0,0,0-11-.8c-1.4.2-5.4.7-7.7,1.8s-3.9,2.9-3.1,4.7,3.2,3,5.8,3.5a33.5,33.5,0,0,0,10,.6A30.1,30.1,0,0,0,49,18.5C51.5,17.4,52.7,15.6,51.5,13.8ZM49.6,17c-1.8,1.3-4.7,1.8-7.2,2.2a42,42,0,0,1-8.7.3c-2.6-.2-5.5-.7-7.2-2.1s-1.4-3.5.8-4.7,6.4-1.8,9.5-2.1h4.6c.6,0,1.1.5,1.7.5s3.7.4,5.2,1.2S51.6,15.5,49.6,17Z" style="fill:#ffc74e"/><path d="M45.5,11a36.6,36.6,0,0,0-15.2,0c-2.7.6-5.6,2-5.6,4.1s2.7,3.6,5.2,4.1a43.6,43.6,0,0,0,15.7-.1c2.5-.6,5.5-2.1,5.5-4S48.2,11.7,45.5,11Z" style="fill:#fff"/><path d="M50.3,17c-.3.1-.3.3-.5.4a1,1,0,0,1-.5.4c-.1.1,0,.2.1.1l.7-.4c.2-.1.4-.2.4-.4S50.4,17,50.3,17Z" style="fill:#ffe983"/><path d="M72.1,19.5l-2.1,1-2.6.7c-1.3.5-2.5,1.1-2.7,2.1s.1.1.2.1,2.4-1.6,4.1-2.1,2.9-.8,3.2-1.7A.1.1,0,0,0,72.1,19.5Z" style="fill:#ffe983"/><path d="M22.6,18.6a27.7,27.7,0,0,0-5,1,39.4,39.4,0,0,0-4.8,1.8c-.1,0,0,.2.1.1,1.6-.6,3.4-1,5.1-1.5s3.2-.6,4.7-1.1S22.8,18.6,22.6,18.6Z" style="fill:#f48096"/><path d="M18.2,16.1a24,24,0,0,0-11-.1c-.1,0-.1.1,0,.1a57.8,57.8,0,0,1,11,.1C18.3,16.2,18.3,16.1,18.2,16.1Z" style="fill:#f48096"/><path d="M21.2,11.8a23.8,23.8,0,0,0-10-1.3c-.1.1-.1.1,0,.1l5.1.5,4.8.8C21.2,11.9,21.3,11.8,21.2,11.8Z" style="fill:#f48096"/><path d="M28.7,9.3a10.5,10.5,0,0,0-1.4-1.7c-.6-.5-1.1-1.1-1.8-1.6s-.4.1-.3.2A12.9,12.9,0,0,0,26.8,8a7.9,7.9,0,0,0,1.7,1.4Z" style="fill:#f48096"/><path d="M55.6,7.8a10.2,10.2,0,0,0-3.5.5A18,18,0,0,0,49,9.7c-.2.1,0,.2.1.2a18.3,18.3,0,0,1,3.3-1.1l3.3-.7C56,8.1,55.9,7.8,55.6,7.8Z" style="fill:#f48096"/><path d="M62.8,12.1a32.2,32.2,0,0,0-9.8.3.2.2,0,0,0,0,.3l4.9-.3,4.9-.2C62.9,12.2,63,12.1,62.8,12.1Z" style="fill:#f48096"/><path d="M63.5,17.7a20.3,20.3,0,0,0-5-1.2,30.1,30.1,0,0,0-5.2-.1c-.2,0-.2.1,0,.1l5.2.5c1.6.2,3.2.7,4.8.9S63.6,17.7,63.5,17.7Z" style="fill:#f48096"/><path d="M54.2,21.1a7.7,7.7,0,0,0-2.6-1.2l-2.9-1c-.2,0-.2.2-.1.2s1.9.8,2.8,1.2a12.5,12.5,0,0,0,2.7,1C54.2,21.3,54.3,21.2,54.2,21.1Z" style="fill:#f48096"/><path d="M30.5,21.4A7.2,7.2,0,0,0,28,23.8h.3l2.4-2.4C30.8,21.4,30.6,21.3,30.5,21.4Z" style="fill:#f48096"/><path d="M41.2,22.2c-.1-.1-.4-.2-.5,0a2.5,2.5,0,0,0-.3,1.5c0,.1.4.2.4,0A2.6,2.6,0,0,0,41.2,22.2Z" style="fill:#f48096"/><path d="M18.2,7.9A7.8,7.8,0,0,0,16,7.6c-.5,0-.7.5-.2.7l2.1.5c.3.1,1.1.3,1.3-.1S18.6,8.1,18.2,7.9Z" style="fill:#fff"/><path d="M23.4,9.8h0c0-.2-.2-.3-.4-.4s-.7.1-.8.3-.1.5.2.6h.5l.5-.3V9.8Z" style="fill:#fff"/><path d="M49.3,23.9a.4.4,0,0,1-.1-.3c-.1-.2-.3-.2-.4-.3s-.5-.1-.5,0l-.2.4a.4.4,0,0,0,.1.3v.4h.1l.2.2c0,.2.4.1.5,0l.2-.2a.1.1,0,0,1,.1-.1Z" style="fill:#fff"/><path d="M44.7,1a9.5,9.5,0,0,1,4.1.9,12.5,12.5,0,0,0,2.7,1,12.3,12.3,0,0,0,2.7.2c1.9.1,3.7.3,5,1.3l1.7,1.3a3.9,3.9,0,0,0,2.3.6c1.9.2,3.4.3,4.6,1.4s1.5,1.9,3.1,2.4,2.9.9,3.3,2-.9,2.3-1.1,3.5.8,2.6-.1,3.8-2,1.3-3.3,1.7l-2.1.8a4.8,4.8,0,0,0-2,1.4,8.3,8.3,0,0,1-3.8,2.2,29.8,29.8,0,0,1-5.1.7,11.4,11.4,0,0,0-3.3.8,26.1,26.1,0,0,1-8.7,1.5h-.1a40.3,40.3,0,0,1-4.9-.3L37.2,28h-.7l-2.9.3H32a20.2,20.2,0,0,1-6.5-1.2l-4-1.1a22.2,22.2,0,0,0-4.5-.4,14.6,14.6,0,0,1-4.2-.4,6.7,6.7,0,0,1-2.9-1.5c-.8-.6-1.5-1.3-2.3-1.8a11,11,0,0,0-3.2-1.1,4.3,4.3,0,0,1-2.7-1.3,2.1,2.1,0,0,1,0-2.4,4.2,4.2,0,0,0,.4-1.5,14.7,14.7,0,0,0-.6-1.4A2,2,0,0,1,1.3,12a4.8,4.8,0,0,1,2.3-1.4A7.8,7.8,0,0,0,6.4,8.9a6.5,6.5,0,0,1,3.9-1.8,7.6,7.6,0,0,0,3-1c.4-.2,2.1-1.5,2.6-1.7a6.4,6.4,0,0,1,2.8-.7h2.5A7.2,7.2,0,0,0,24.5,3l2.3-1.2a7.8,7.8,0,0,1,3.3-.7l2.5.3a17,17,0,0,0,4.4.8h1.3c1.9-.3,3.6-.9,5.5-1.1h.9m0-1h-1L40.4.6l-2.3.5H37A13.5,13.5,0,0,1,33.6.6h-.8A9.3,9.3,0,0,0,30.1.1a9.1,9.1,0,0,0-3.7.8l-1.2.6-1.1.6a6.8,6.8,0,0,1-2.9.5H18.6a6.7,6.7,0,0,0-3.1.8L13.7,4.6l-.9.7a7.9,7.9,0,0,1-2.6.8A7.1,7.1,0,0,0,5.7,8.2,6.1,6.1,0,0,1,3.2,9.6,6.6,6.6,0,0,0,.5,11.5a2.9,2.9,0,0,0,.1,3.3V15l.4.8a4.1,4.1,0,0,1-.3.8v.2a3.4,3.4,0,0,0,.2,3.5,6.5,6.5,0,0,0,3.2,1.6h.5a6.7,6.7,0,0,1,2.4.8l1.4,1.1.8.7a7.3,7.3,0,0,0,3.4,1.7,15.7,15.7,0,0,0,4.3.4H17a18.5,18.5,0,0,1,4.3.4l3,.8.9.3A22.6,22.6,0,0,0,32,29.4h1.9l2.7-.3h3a41.9,41.9,0,0,0,5,.3h.1a25.9,25.9,0,0,0,9.1-1.6,9.5,9.5,0,0,1,2.9-.7,30.7,30.7,0,0,0,5.3-.7A10.1,10.1,0,0,0,66.4,24,4.8,4.8,0,0,1,68,22.8l1.7-.6H70c1.6-.5,3-1,3.8-2.1a3.6,3.6,0,0,0,.5-3.1,6.5,6.5,0,0,1-.2-1.1l.5-1.1a3.4,3.4,0,0,0,.5-3c-.5-1.5-2.2-2-3.7-2.5h-.2a5.1,5.1,0,0,1-2-1.4L68.5,7c-1.4-1.3-3.2-1.5-5.3-1.7a3.2,3.2,0,0,1-1.8-.5c-.3-.1-.5-.4-.8-.6l-.8-.7a10.5,10.5,0,0,0-5.5-1.4h-.4a7.8,7.8,0,0,1-2.2-.2,6.2,6.2,0,0,1-1.9-.7L49.2,1a10.2,10.2,0,0,0-4.5-1Z" style="fill:#e75c78"/></g></g></svg>