<svg xmlns="http://www.w3.org/2000/svg" viewBox="0 0 88.4 95.2"><g style="isolation:isolate"><g id="Layer_2" data-name="Layer 2"><g id="Layer_1-2" data-name="Layer 1"><polygon points="10.9 54.1 11.6 43.8 76.9 43.6 76.9 54.1 10.9 54.1" style="fill:#924f28"/><polygon points="14 43.5 14.3 53.6 5.5 53.6 14 43.5" style="fill:#924f28"/><polygon points="74.6 43.5 74.3 53.6 83.1 53.6 74.6 43.5" style="fill:#924f28"/><g style="mix-blend-mode:multiply"><rect x="14" y="43.7" width="2.1" height="8.33" style="fill:#af7553"/></g><g style="mix-blend-mode:multiply"><polygon points="74.3 52 72.2 52 72.2 43.7 74.6 43.7 74.3 52" style="fill:#af7553"/></g><path d="M83,54.9a1.7,1.7,0,0,1-1.2-.5L74.1,45H14.5L6.8,54.4a1.6,1.6,0,0,1-1.1.5H3.4A1.4,1.4,0,0,1,2,54a1.4,1.4,0,0,1,.2-1.6L10.3,43c0-.1.1-.2.2-.3l.9-1.2a1.4,1.4,0,0,1,1.2-.6H75.7a1.5,1.5,0,0,1,1,.4l1.2,1.1.3.4,8.2,9.6a1.4,1.4,0,0,1,.2,1.6,1.4,1.4,0,0,1-1.4.9Z" style="fill:#ddab88"/><path d="M75.7,42.4l1.1,1.1h0l8.4,9.9H83l-8.2-9.9H13.7l-8,9.8H3.4l8.3-9.8h-.1l1-1.2H75.7m0-3H12.6a3.3,3.3,0,0,0-2.4,1.2l-.9,1.1-.3.5L1.1,51.5a2.9,2.9,0,0,0-.5,3.2,3.2,3.2,0,0,0,2.8,1.7H5.7A3.1,3.1,0,0,0,8,55.3l7.2-8.7H73.3l7.3,8.8A3.2,3.2,0,0,0,83,56.4h2.2A3.2,3.2,0,0,0,88,54.7a2.9,2.9,0,0,0-.5-3.2L79.4,42a3.5,3.5,0,0,0-.5-.8l-1.2-1a2.8,2.8,0,0,0-2-.8Z" style="fill:#75411a"/><path d="M50,11.6a4.1,4.1,0,0,1,2.4.8,5.5,5.5,0,0,1,2,2h.7A5.7,5.7,0,0,1,58.7,16c2,1.8,2.8,4.5,3.2,7.2l.2,2.3A39.5,39.5,0,0,1,61,37.4,17.8,17.8,0,0,1,57.1,45a6,6,0,0,1-2.3,1.9,2,2,0,0,1-1.1.3h-.2L52.1,47h-.2l-.3.5a6.3,6.3,0,0,1-2.7,2.4l-.9.3h-.9a5.4,5.4,0,0,1-2.6-1.1l-.8-.6-.3-.4h-.1a4.1,4.1,0,0,1-1.5.7h-.5A5.7,5.7,0,0,1,38,47.3a18.4,18.4,0,0,1-4.2-4.6,30.7,30.7,0,0,1-3.1-6.3l-.6-1.5a36.1,36.1,0,0,1-1.5-6.5,19.7,19.7,0,0,1-.2-4.2,11.4,11.4,0,0,1,.6-3.3,13.4,13.4,0,0,1,.6-1.2h0l.5-.6a6.3,6.3,0,0,1,3.6-2.3h0a8.6,8.6,0,0,1,2.1-2.9l.9-.6a3.2,3.2,0,0,1,1.4-.3,9.5,9.5,0,0,1,2.9.7l1.2-1.4a9.9,9.9,0,0,1,.3,2.4A15.5,15.5,0,0,0,37,16.8h0l.8.3,1.2.6.5-.2.6-.2h1.1a5,5,0,0,1,2.7.8l.6.5a4.3,4.3,0,0,1,2.6-1.8h.8A7.4,7.4,0,0,0,46,14.9h0a1.5,1.5,0,0,1-.5-.6,1.4,1.4,0,0,0-.2-.6L45,11.8h0l.7.4,1,.7a8.8,8.8,0,0,1,2.6-1.2H50m0-3H48.7a7.5,7.5,0,0,0-1.8.7L46,9H45a2.7,2.7,0,0,0-1.7.6H42.2a2.8,2.8,0,0,0-2.2,1,5.8,5.8,0,0,0-1.9-.3,6,6,0,0,0-2.7.6,5.6,5.6,0,0,0-1.5,1,9.1,9.1,0,0,0-2.3,2.8,8.7,8.7,0,0,0-3.9,2.9h0a4.3,4.3,0,0,0-.7,1,5.3,5.3,0,0,0-.8,1.7,15.7,15.7,0,0,0-.8,4,26.8,26.8,0,0,0,.2,4.9,43.2,43.2,0,0,0,1.7,7.1h0l.5,1.5a36.3,36.3,0,0,0,3.5,6.8,19.9,19.9,0,0,0,4.9,5.4,8.3,8.3,0,0,0,5.1,1.9h1.6A9.1,9.1,0,0,0,46.7,53h1.8l1.6-.5a9.3,9.3,0,0,0,3.1-2.3h.7a4.9,4.9,0,0,0,2.2-.6A9.7,9.7,0,0,0,59.4,47a20.9,20.9,0,0,0,4.5-8.8,41.7,41.7,0,0,0,1.2-12.9h0l-.2-2.3h-.1c-.3-2.6-1.1-6.4-4.1-9.1A10.3,10.3,0,0,0,56,11.4a11.5,11.5,0,0,0-2-1.6,7.7,7.7,0,0,0-4-1.2Z" style="fill:#6c9433"/><path d="M38,3a2.8,2.8,0,0,1,1.2.4l1.7,1.2A11.2,11.2,0,0,1,44.3,9c.2.5.3,1.1.5,1.6l.2,1.2.3,1.9a1.4,1.4,0,0,1,.2.6h1.8a18.6,18.6,0,0,1,3.4.6l.8.3a7.5,7.5,0,0,0-2,1.5l-.5.6h-.7l-1.2.2a3.7,3.7,0,0,0-2.5,1.7l-.6-.4a3.8,3.8,0,0,0-2.6-.8h-1l-.6.2-.5-.3-1.5-.8-.8-.3a15.5,15.5,0,0,1,5.5-2.2,9.9,9.9,0,0,0-.3-2.4,10,10,0,0,0-1-2.9,4.8,4.8,0,0,0-3-2.4h-.6a2.6,2.6,0,0,1-1-.7,2,2,0,0,1-.4-1.5h0a1.4,1.4,0,0,1,.2-.7A3.1,3.1,0,0,1,37.5,3H38m0-3H36.9a5,5,0,0,0-3.1,2.2,6.4,6.4,0,0,0-.6,1.8h0a5.1,5.1,0,0,0,1,3.7,4.9,4.9,0,0,0,2.5,1.7l.5.2h.2a1.9,1.9,0,0,1,1.2,1,3.8,3.8,0,0,1,.6,1.6,14.3,14.3,0,0,0-3.9,2,2.8,2.8,0,0,0-1.2,2.8A3,3,0,0,0,36,19.6l.7.3,1.1.6.4.2a3,3,0,0,0,1.6.5h.8l.4-.2h.4l.9.2h.1a3.1,3.1,0,0,0,2.2.9h.3a3,3,0,0,0,2.2-1.4c.1-.2.4-.3.7-.4H49a3,3,0,0,0,2.6-1.5.1.1,0,0,0,.1-.1l1.1-.8a3.2,3.2,0,0,0,1.7-2.6,3,3,0,0,0-1.7-2.7l-1-.5h-.1a15.1,15.1,0,0,0-3.7-.7h-.1L47.7,10h0c-.2-.8-.4-1.4-.6-2a13.9,13.9,0,0,0-4.3-5.7L40.8.9A5.1,5.1,0,0,0,38,0Z" style="fill:#507125"/><path d="M42.2,12.2,41,13.6c-1.3-.5-3-1-4.3-.4l-.9.6a8.6,8.6,0,0,0-2.1,2.9,8.1,8.1,0,0,1,2.2-.1l1.1.2a15.5,15.5,0,0,1,5.5-2.2A9.9,9.9,0,0,0,42.2,12.2Z" style="fill:#dfe590"/><path d="M45,11.8l.3,1.9a1.4,1.4,0,0,1,.2.6,1.5,1.5,0,0,0,.5.6h0a7.4,7.4,0,0,1,1.9,1.6l.6.7H49l.5-.6a7.5,7.5,0,0,1,2-1.5l1.2-.5,1.7-.3a5.5,5.5,0,0,0-2-2,3.8,3.8,0,0,0-3.1-.7,8.8,8.8,0,0,0-2.6,1.2l-1-.7-.7-.4Z" style="fill:#dfe590"/><path d="M51.5,15.2l-.8-.3a18.6,18.6,0,0,0-3.4-.6H45.5a1.5,1.5,0,0,0,.5.6h0a7.4,7.4,0,0,1,1.9,1.6l.6.7H49l.5-.6A7.5,7.5,0,0,1,51.5,15.2Z" style="fill:#6c9433"/><path d="M28.4,24.2a11.4,11.4,0,0,1,.6-3.3,13.4,13.4,0,0,1,.6-1.2h0l.5-.6a6.3,6.3,0,0,1,3.6-2.3,8.1,8.1,0,0,1,2.2-.1l1.1.2.8.3,1.5.8.5.3a6.1,6.1,0,0,0-3.5,3.2,7.3,7.3,0,0,0-.7,2.9,14.1,14.1,0,0,0,.1,2.9l.4,2.4a10.3,10.3,0,0,0,.5,2.4,2.5,2.5,0,0,0,.1.8l.4,1.5,1.2,3.9a28,28,0,0,0,2.8,6.1l.9,1.3c0,.1-.2.1-.3.2h0l.4-.2a11.2,11.2,0,0,0,1.7,2l-.5.3a4.1,4.1,0,0,1-1.5.7A5.3,5.3,0,0,1,38,47.3a18.4,18.4,0,0,1-4.2-4.6,30.7,30.7,0,0,1-3.1-6.3l-.6-1.5a36.1,36.1,0,0,1-1.5-6.5A19.7,19.7,0,0,1,28.4,24.2Z" style="fill:#c3bf4f"/><path d="M49.5,16.7a6.3,6.3,0,0,0-2.7-1.6l-.8-.2a7.4,7.4,0,0,1,1.9,1.6l.6.7H49Z" style="fill:#2c7101"/><path d="M29.6,19.6,29,20.9a11.4,11.4,0,0,0-.6,3.3,19.7,19.7,0,0,0,.2,4.2,36.1,36.1,0,0,0,1.5,6.5l.6,1.5a30.7,30.7,0,0,0,3.1,6.3A18.4,18.4,0,0,0,38,47.3a5.3,5.3,0,0,0,3.8,1.3,4.1,4.1,0,0,0,1.5-.7l.5-.3a11.2,11.2,0,0,1-1.7-2l-.4.2h-.9c-1.7.1-3.1-1-4.2-2.1l-1.5-1.6-1.5-2a17.1,17.1,0,0,1-1.3-2.3,29.4,29.4,0,0,1-3.1-9.5,18.4,18.4,0,0,1-.4-4.1,13.6,13.6,0,0,1,.3-2.9l.2-.8.2-.6a.4.4,0,0,0,.1-.3Z" style="fill:#c3bf4f;opacity:0.5;mix-blend-mode:multiply"/><path d="M39.2,3.4A2.4,2.4,0,0,0,37.5,3a3.1,3.1,0,0,0-1.1.9,1.4,1.4,0,0,0-.2.7h0a2,2,0,0,0,.4,1.5,2.6,2.6,0,0,0,1,.7h.6a4.8,4.8,0,0,1,3,2.4,10,10,0,0,1,1,2.9,9.9,9.9,0,0,1,.3,2.4A15.5,15.5,0,0,0,37,16.8l.8.3,1.5.8.5.3.6-.2a4.6,4.6,0,0,1,3.6.7l.6.4a3.7,3.7,0,0,1,2.5-1.7l1.4-.2-.6-.7A7.4,7.4,0,0,0,46,14.9h0a1.5,1.5,0,0,1-.5-.6,1.4,1.4,0,0,0-.2-.6L45,11.8l-.2-1.2c-.2-.5-.3-1.1-.5-1.6a11.2,11.2,0,0,0-3.4-4.4Z" style="fill:#6c9433"/><path d="M40.7,17.3a4.5,4.5,0,0,1,1-1.4l.5-.6L41,16a6.1,6.1,0,0,0-1.7,1.9l.5.3.6-.2A2.1,2.1,0,0,1,40.7,17.3Z" style="fill:#2c7101"/><path d="M39.2,3.4h-.1c-.1.1-.2,0-.4,0a1.4,1.4,0,0,0-1.3.6c0,.2-.1.3-.1.5h0a1.1,1.1,0,0,0,.3.8c.4.4,1,.4,1.5.6a5.7,5.7,0,0,1,1.8,1.2A7.8,7.8,0,0,1,43,10.6l.3.9a1.7,1.7,0,0,0,.1.7c.1.4.1.8.2,1.2s.1,2.1.2,3.2v.9a9.9,9.9,0,0,0,4.1-1A7.4,7.4,0,0,0,46,14.9h0a1.5,1.5,0,0,1-.5-.6,1.4,1.4,0,0,0-.2-.6L45,11.8l-.2-1.2c-.2-.5-.3-1.1-.5-1.6a11.2,11.2,0,0,0-3.4-4.4Z" style="fill:#96b85c"/><path d="M51.4,46.8l.7.2a3,3,0,0,0,1.6.2,2,2,0,0,0,1.1-.3A6,6,0,0,0,57.1,45,17.8,17.8,0,0,0,61,37.4a39.5,39.5,0,0,0,1.1-11.9l-.2-2.3c-.4-2.7-1.2-5.4-3.2-7.2a5.7,5.7,0,0,0-3.6-1.6h-.7l-1.7.3-1.2.5a7.5,7.5,0,0,0-2,1.5l-.5.6a5.9,5.9,0,0,1,4.2,2.6,7.1,7.1,0,0,1,1.4,2.9,22.8,22.8,0,0,1,.4,4.5V33c-.1,1.1-.1,2.3-.3,3.4v.8c0,.2-.1.4-.1.6L54.3,39a25.5,25.5,0,0,1-1.5,5.2C52.4,45.1,51.9,45.9,51.4,46.8Z" style="fill:#c3bf4f"/><path d="M54.2,15.8h-.6l-1.3.3h.5a4.2,4.2,0,0,1,1.9.6A11.5,11.5,0,0,1,58.6,21a17.3,17.3,0,0,1,1.1,3.2l.3,1.3a.7.7,0,0,0,.1-.5,6.1,6.1,0,0,0,.1-1.4,10.2,10.2,0,0,0-1.3-4.8,5.8,5.8,0,0,0-1.1-1.5A4.6,4.6,0,0,0,54.2,15.8Z" style="fill:#c3bf4f;opacity:0.5;mix-blend-mode:multiply"/><path d="M48.6,16.5l-1.5.2a4.3,4.3,0,0,0-2.6,1.8l-.6-.5a5.6,5.6,0,0,0-3.8-.7l-.6.2a6.7,6.7,0,0,0-3.6,3.4,9.5,9.5,0,0,0-.8,3,15.1,15.1,0,0,0,.2,3l.4,2.6a20,20,0,0,0,.4,2.4c.1.3.1.6.2.9l.4,1.6,1.2,4a37.3,37.3,0,0,0,3,6.4l1,1.4a16.8,16.8,0,0,0,1.8,2.1l.8.6A5.4,5.4,0,0,0,47.1,50H48l.9-.3a6.3,6.3,0,0,0,2.7-2.4,15.1,15.1,0,0,0,1.5-2.8,30.8,30.8,0,0,0,1.6-5.4l.2-1.2v-.7l.2-.8.3-3.5V27.1a19.6,19.6,0,0,0-.5-4.8,6.9,6.9,0,0,0-1.4-3,6.1,6.1,0,0,0-4.3-2.7Z" style="fill:#dfe590"/><path d="M47.4,17.9h0a3.4,3.4,0,0,1,1.4.8,10.5,10.5,0,0,1,2.9,3.4,14,14,0,0,1,1.5,4.9v-.4a9.7,9.7,0,0,0,.1-2.4,7.3,7.3,0,0,0-2-5.1A5.7,5.7,0,0,0,47.4,17.9Z" style="fill:#c3bf4f;opacity:0.5;mix-blend-mode:multiply"/><path d="M36.1,31.9c.1.3.1.6.2.9l.4,1.6,1.2,4a37.3,37.3,0,0,0,3,6.4l1,1.4a16.8,16.8,0,0,0,1.8,2.1l.8.6A5.4,5.4,0,0,0,47.1,50H48l.9-.3a6.3,6.3,0,0,0,2.7-2.4,15.1,15.1,0,0,0,1.5-2.8,30.8,30.8,0,0,0,1.6-5.4l.2-1.2v-.7a.8.8,0,0,0-.1.4l-.3.9-.7,1.9a8.9,8.9,0,0,1-.8,1.7,12.8,12.8,0,0,1-1.1,2,14.6,14.6,0,0,1-1.6,1.9A4.9,4.9,0,0,1,48,47.5a3.6,3.6,0,0,1-2.5-.4,7.8,7.8,0,0,1-2.4-1.6,20.2,20.2,0,0,1-3.2-3.9l-1-2a26.3,26.3,0,0,1-1.5-3.5l-.9-2.9A6.5,6.5,0,0,0,36.1,31.9Z" style="fill:#c3bf4f;opacity:0.5;mix-blend-mode:multiply"/><path d="M60.7,26.5h.7A9.1,9.1,0,0,1,64,27.9l1-.7.7-.4h0l-.3,1.8a6.4,6.4,0,0,0-.2.7,1.5,1.5,0,0,1-.5.6h0a7,7,0,0,0-1.9,1.5h.8a4.2,4.2,0,0,1,2.6,1.9l.6-.5a4.3,4.3,0,0,1,2.7-.8h1.1l.6.2.5.2,1.2-.6.8-.3h0a13.9,13.9,0,0,0-5.5-2.2,10.7,10.7,0,0,1,.3-2.5l1.3,1.5a6.4,6.4,0,0,1,2.8-.7,3.2,3.2,0,0,1,1.4.3l.9.6A6.5,6.5,0,0,1,77,31.6h0A6.4,6.4,0,0,1,80.6,34a1.5,1.5,0,0,1,.5.6h0a6.7,6.7,0,0,1,.6,1.2,9.6,9.6,0,0,1,.6,3.3,19.7,19.7,0,0,1-.1,4.2,52.8,52.8,0,0,1-1.6,6.6l-.5,1.5a33,33,0,0,1-3.2,6.2,18.5,18.5,0,0,1-4.1,4.7,5.9,5.9,0,0,1-3.3,1.3h-.6a3.9,3.9,0,0,1-1.5-.6h-.1l-.3.3-.8.7A8.5,8.5,0,0,1,63.6,65h-.9a1.6,1.6,0,0,1-.9-.3,6.3,6.3,0,0,1-2.7-2.4l-.3-.4h-.2a3.2,3.2,0,0,1-1.4.3H57a4.5,4.5,0,0,1-1.1-.3A8.7,8.7,0,0,1,53.6,60a19.7,19.7,0,0,1-3.9-7.6,40.1,40.1,0,0,1-1.1-11.9l.2-2.4c.4-2.6,1.2-5.3,3.2-7.2a6.2,6.2,0,0,1,3.7-1.6h.6a5.5,5.5,0,0,1,2-2,5.3,5.3,0,0,1,2.4-.8m0-3h0a7.9,7.9,0,0,0-4,1.3,10.5,10.5,0,0,0-2,1.6,8.1,8.1,0,0,0-4.6,2.3c-3.1,2.6-3.9,6.4-4.2,9h0l-.3,2.4h0a41.6,41.6,0,0,0,1.3,12.9A21.4,21.4,0,0,0,51.3,62a12.5,12.5,0,0,0,3.3,2.6,4.9,4.9,0,0,0,2.3.6h.6a10.9,10.9,0,0,0,3.1,2.3l1.6.5H64a8.1,8.1,0,0,0,3.8-1.7l.7.2h1a8.9,8.9,0,0,0,5-1.9,19.9,19.9,0,0,0,4.9-5.4,36.3,36.3,0,0,0,3.5-6.8l.5-1.6h.1a39.6,39.6,0,0,0,1.6-7,20.3,20.3,0,0,0,.2-4.9,12.4,12.4,0,0,0-.8-4.1,8.5,8.5,0,0,0-.8-1.7c-.2-.4-.5-.7-.6-.9H83a9.9,9.9,0,0,0-3.8-2.9,13.1,13.1,0,0,0-2.4-2.8,7.1,7.1,0,0,0-4.2-1.5l-1.9.2a3.2,3.2,0,0,0-2.2-1h-.8c0,.1-.1.1-.2.1a3.7,3.7,0,0,0-1.8-.5h-1l-.9.4a8.5,8.5,0,0,0-1.7-.6l-1.4-.2Z" style="fill:#e57225"/><path d="M72.7,18h.5a1.5,1.5,0,0,1,1.1.8l.3.7h0a1.9,1.9,0,0,1-.5,1.4,1.4,1.4,0,0,1-1,.7l-.6.2a5.3,5.3,0,0,0-3,2.3,10,10,0,0,0-1,2.9,10.7,10.7,0,0,0-.3,2.5,13.9,13.9,0,0,1,5.5,2.2l-.8.3-1.5.8-.5.2H69.3a4.8,4.8,0,0,0-2.6.7l-.6.5a4.2,4.2,0,0,0-2.5-1.8H61.7l-.5-.6a6.2,6.2,0,0,0-1.9-1.4l.7-.3a12.8,12.8,0,0,1,3.4-.6h1.8a6.4,6.4,0,0,1,.2-.7l.3-1.8.3-1.3a8.3,8.3,0,0,1,.4-1.5,9.9,9.9,0,0,1,3.4-4.4,6.6,6.6,0,0,1,1.7-1.2,1.9,1.9,0,0,1,1.2-.4m0-3a5,5,0,0,0-2.8.8l-2,1.4a14.9,14.9,0,0,0-4.3,5.7c-.2.6-.4,1.2-.6,2h0l-.2,1.2h0a13.4,13.4,0,0,0-3.7.8H59l-1.1.4a3,3,0,0,0,.1,5.4l1,.7h.1a2.8,2.8,0,0,0,2.6,1.5H63a.8.8,0,0,1,.6.4,3,3,0,0,0,2.2,1.4h.3a3.1,3.1,0,0,0,2.2-.9h.1c.2-.2.5-.2.9-.2h1.6a2.9,2.9,0,0,0,1.6-.4l.4-.3,1.1-.5.7-.3a2.8,2.8,0,0,0,1.9-2.4,3,3,0,0,0-1.2-2.9,14.2,14.2,0,0,0-3.9-1.9l.6-1.7a1.9,1.9,0,0,1,1.2-.9H74a5.1,5.1,0,0,0,2.5-1.8,4.6,4.6,0,0,0,1-3.7h0a4.9,4.9,0,0,0-.6-1.7,5,5,0,0,0-3.1-2.2Z" style="fill:#507125"/><path d="M68.5,27.1l1.3,1.5c1.3-.5,2.9-1,4.2-.4l.9.6A6.5,6.5,0,0,1,77,31.6a8.1,8.1,0,0,0-2.2,0l-1.1.2a13.9,13.9,0,0,0-5.5-2.2A10.7,10.7,0,0,1,68.5,27.1Z" style="fill:#fcd54d"/><path d="M65.7,26.8l-.3,1.8a6.4,6.4,0,0,0-.2.7,1.5,1.5,0,0,1-.5.6h0a7,7,0,0,0-1.9,1.5,2.4,2.4,0,0,0-.6.8h-.5l-.5-.6a6.2,6.2,0,0,0-1.9-1.4L58,29.7l-1.7-.4a5.5,5.5,0,0,1,2-2,4.8,4.8,0,0,1,3.1-.7A9.1,9.1,0,0,1,64,27.9l1-.7.7-.4Z" style="fill:#fcd54d"/><path d="M59.3,30.2l.7-.3a12.8,12.8,0,0,1,3.4-.6,5.4,5.4,0,0,1,1.8,0,1.5,1.5,0,0,1-.5.6h0a7,7,0,0,0-1.9,1.5,2.4,2.4,0,0,0-.6.8h-.5l-.5-.6A6.2,6.2,0,0,0,59.3,30.2Z" style="fill:#6c9433"/><path d="M82.3,39.1a9.6,9.6,0,0,0-.6-3.3,6.7,6.7,0,0,0-.6-1.2h0a1.5,1.5,0,0,0-.5-.6A6.4,6.4,0,0,0,77,31.6a8.1,8.1,0,0,0-2.2,0l-1.1.2-.8.3-1.5.8-.5.2a6.3,6.3,0,0,1,3.5,3.3,9,9,0,0,1,.8,2.8,26.4,26.4,0,0,1-.2,2.9l-.4,2.5a15.7,15.7,0,0,1-.4,2.3,2.9,2.9,0,0,1-.2.9l-.4,1.5-1.2,3.9a30.4,30.4,0,0,1-2.8,6.1l-.9,1.3h0l-1.8,2,.5.3a3.9,3.9,0,0,0,1.5.6,5.5,5.5,0,0,0,3.9-1.2,18.5,18.5,0,0,0,4.1-4.7,33,33,0,0,0,3.2-6.2l.5-1.5a52.8,52.8,0,0,0,1.6-6.6A19.7,19.7,0,0,0,82.3,39.1Z" style="fill:#ffaa5a"/><path d="M61.2,31.6A9.2,9.2,0,0,1,63.9,30h.8a7,7,0,0,0-1.9,1.5,2.4,2.4,0,0,0-.6.8h-.5Z" style="fill:#2c7101"/><path d="M81.1,34.6a6.7,6.7,0,0,1,.6,1.2,9.6,9.6,0,0,1,.6,3.3,19.7,19.7,0,0,1-.1,4.2,52.8,52.8,0,0,1-1.6,6.6l-.5,1.5a33,33,0,0,1-3.2,6.2,18.5,18.5,0,0,1-4.1,4.7,5.5,5.5,0,0,1-3.9,1.2,3.9,3.9,0,0,1-1.5-.6l-.5-.3,1.8-2H69l.9.2a6.5,6.5,0,0,0,4.2-2.1c.6-.5,1-1.1,1.5-1.6s1.1-1.3,1.5-2,1-1.5,1.4-2.3a35.3,35.3,0,0,0,3.1-9.5,28.3,28.3,0,0,0,.3-4.1,10.2,10.2,0,0,0-.3-3l-.2-.7-.2-.6c0-.1-.1-.3-.1-.4Z" style="fill:#ffaa5a;opacity:0.5;mix-blend-mode:multiply"/><path d="M71.5,18.4a2.2,2.2,0,0,1,1.7-.4,1.5,1.5,0,0,1,1.1.8l.3.7h0a1.9,1.9,0,0,1-.5,1.4,1.4,1.4,0,0,1-1,.7l-.6.2a5.3,5.3,0,0,0-3,2.3,10,10,0,0,0-1,2.9,10.7,10.7,0,0,0-.3,2.5,13.9,13.9,0,0,1,5.5,2.2l-.8.3-1.5.8-.5.2h-.6a4.5,4.5,0,0,0-3.6.6l-.6.5a4.2,4.2,0,0,0-2.5-1.8H62.2a2.4,2.4,0,0,1,.6-.8,7,7,0,0,1,1.9-1.5h0a1.5,1.5,0,0,0,.5-.6,6.4,6.4,0,0,1,.2-.7l.3-1.8.3-1.3a8.3,8.3,0,0,1,.4-1.5,9.9,9.9,0,0,1,3.4-4.4A6.6,6.6,0,0,1,71.5,18.4Z" style="fill:#6c9433"/><path d="M70,32.3a4,4,0,0,0-1-1.5l-.5-.6,1.3.8a6,6,0,0,1,1.6,1.9l-.5.2h-.6A1.5,1.5,0,0,0,70,32.3Z" style="fill:#2c7101"/><path d="M71.5,18.4H72a1.2,1.2,0,0,1,1.3.6.6.6,0,0,1,.1.4h0a1.6,1.6,0,0,1-.3.8c-.4.4-1,.4-1.5.6A7.8,7.8,0,0,0,69.8,22a8.8,8.8,0,0,0-2.1,3.6,2.9,2.9,0,0,0-.2.9,1.3,1.3,0,0,0-.1.6,6.1,6.1,0,0,0-.3,1.3c-.1,1-.1,2.1-.1,3.1v1a11.9,11.9,0,0,1-4.2-1.1,7,7,0,0,1,1.9-1.5h0a1.5,1.5,0,0,0,.5-.6,6.4,6.4,0,0,1,.2-.7l.3-1.8.3-1.3a8.3,8.3,0,0,1,.4-1.5,9.9,9.9,0,0,1,3.4-4.4A6.6,6.6,0,0,1,71.5,18.4Z" style="fill:#96b85c"/><path d="M59.3,61.7l-.7.2a4.1,4.1,0,0,1-1.6.3,4.5,4.5,0,0,1-1.1-.3A8.7,8.7,0,0,1,53.6,60a19.7,19.7,0,0,1-3.9-7.6,40.1,40.1,0,0,1-1.1-11.9l.2-2.4c.4-2.6,1.2-5.3,3.2-7.2a6.2,6.2,0,0,1,3.7-1.6h.6l1.7.4,1.3.5a6.2,6.2,0,0,1,1.9,1.4l.5.6a6.2,6.2,0,0,0-4.2,2.6,8.6,8.6,0,0,0-1.4,2.9,23.8,23.8,0,0,0-.4,4.6V48c.1,1.1.1,2.2.3,3.3l.2.8v.7l.2,1.1a22.3,22.3,0,0,0,1.5,5.2A21.5,21.5,0,0,0,59.3,61.7Z" style="fill:#ffaa5a"/><path d="M56.5,30.7h.6a3.1,3.1,0,0,1,1.3.3c-.1,0-.3-.1-.5,0a3.5,3.5,0,0,0-1.9.6A10.8,10.8,0,0,0,52.1,36,16.3,16.3,0,0,0,51,39.1l-.3,1.4c-.1-.1-.1-.4-.1-.5a6.6,6.6,0,0,1-.1-1.4,10.5,10.5,0,0,1,1.3-4.9l1.1-1.5A5.5,5.5,0,0,1,56.5,30.7Z" style="fill:#ffaa5a;opacity:0.5;mix-blend-mode:multiply"/><path d="M62.1,31.5h1.5a4.2,4.2,0,0,1,2.6,1.9l.6-.5a5.1,5.1,0,0,1,3.8-.7l.6.2a6.2,6.2,0,0,1,3.6,3.3,11.1,11.1,0,0,1,.8,3,10.6,10.6,0,0,1-.2,3.1l-.3,2.5c-.2.8-.3,1.7-.5,2.5a3.1,3.1,0,0,1-.2.8L74,49.3l-1.2,4.1a36.4,36.4,0,0,1-3,6.3,7.1,7.1,0,0,1-1,1.4A9.1,9.1,0,0,1,67,63.2l-.8.7A8.5,8.5,0,0,1,63.6,65h-.9a1.6,1.6,0,0,1-.9-.3,6.3,6.3,0,0,1-2.7-2.4,18.2,18.2,0,0,1-1.5-2.7,25.5,25.5,0,0,1-1.5-5.4L55.9,53a2,2,0,0,1-.1-.7l-.2-.8L55.3,48V42a25,25,0,0,1,.5-4.7,7.3,7.3,0,0,1,1.4-3.1,6.8,6.8,0,0,1,4.3-2.7Z" style="fill:#fcd54d"/><path d="M63.3,32.9h0a5.7,5.7,0,0,0-1.3.8,9.2,9.2,0,0,0-3,3.5,14,14,0,0,0-1.5,4.9v-.4a20.1,20.1,0,0,1-.1-2.5,7.2,7.2,0,0,1,2-5A5.3,5.3,0,0,1,63.3,32.9Z" style="fill:#ffaa5a;opacity:0.5;mix-blend-mode:multiply"/><path d="M74.6,46.9a3.1,3.1,0,0,1-.2.8L74,49.3l-1.2,4.1a36.4,36.4,0,0,1-3,6.3,7.1,7.1,0,0,1-1,1.4A9.1,9.1,0,0,1,67,63.2l-.8.7A8.5,8.5,0,0,1,63.6,65h-.9a1.6,1.6,0,0,1-.9-.3,6.3,6.3,0,0,1-2.7-2.4,18.2,18.2,0,0,1-1.5-2.7,25.5,25.5,0,0,1-1.5-5.4L55.9,53a2,2,0,0,1-.1-.7c.1.1.1.3.2.4l.2.8.7,2a13,13,0,0,0,.8,1.7,19.8,19.8,0,0,0,1.1,2,14.6,14.6,0,0,0,1.6,1.9,4.4,4.4,0,0,0,2.4,1.3,3.7,3.7,0,0,0,2.5-.3,11.9,11.9,0,0,0,2.3-1.6,20.8,20.8,0,0,0,3.2-4,12.4,12.4,0,0,0,1-2A21.7,21.7,0,0,0,73.3,51l.9-2.9A5.6,5.6,0,0,1,74.6,46.9Z" style="fill:#ffaa5a;opacity:0.5;mix-blend-mode:multiply"/><path d="M18.4,41.9h.7a9.1,9.1,0,0,1,2.6,1.3l1-.8a1.5,1.5,0,0,1,.7-.3h0L23.1,44a1.4,1.4,0,0,0-.2.6,1.3,1.3,0,0,1-.5.7h0a7,7,0,0,0-1.9,1.5h.8a4.2,4.2,0,0,1,2.6,1.9l.6-.5a4.3,4.3,0,0,1,2.7-.8h1.1l.6.2.5.2a6.7,6.7,0,0,1,1.2-.6l.8-.3h0A13.9,13.9,0,0,0,25.9,45a10.7,10.7,0,0,1,.3-2.5l1.3,1.4a8.2,8.2,0,0,1,2.8-.6,3.2,3.2,0,0,1,1.4.3l.9.5A7.5,7.5,0,0,1,34.7,47h0a6.3,6.3,0,0,1,3.6,2.3l.5.7h0a6.7,6.7,0,0,1,.6,1.2,9.6,9.6,0,0,1,.6,3.3,19.7,19.7,0,0,1-.1,4.2,52.8,52.8,0,0,1-1.6,6.6l-.5,1.5A33,33,0,0,1,34.6,73a16.5,16.5,0,0,1-4.1,4.6,5.9,5.9,0,0,1-3.3,1.3h-.6l-1.5-.6H25l-.3.4-.8.6a6.8,6.8,0,0,1-2.6,1.2h-.9a3.2,3.2,0,0,1-.9-.3,6.3,6.3,0,0,1-2.7-2.4l-.3-.4h-.2a3.2,3.2,0,0,1-1.4.3h-.2a4.5,4.5,0,0,1-1.1-.3,8.7,8.7,0,0,1-2.3-1.9,20.4,20.4,0,0,1-3.9-7.6A40.1,40.1,0,0,1,6.3,55.9l.2-2.4c.4-2.7,1.2-5.4,3.2-7.2a6.2,6.2,0,0,1,3.7-1.6H14a5.5,5.5,0,0,1,2-2,5.3,5.3,0,0,1,2.4-.8m0-3h0a7.9,7.9,0,0,0-4,1.3,8.1,8.1,0,0,0-2,1.6,8.1,8.1,0,0,0-4.6,2.3c-3.1,2.6-3.9,6.4-4.2,9h0l-.3,2.4h0A40.7,40.7,0,0,0,4.6,68.5,21.9,21.9,0,0,0,9,77.4,15,15,0,0,0,12.3,80a9.8,9.8,0,0,0,2.3.6h.6a10.9,10.9,0,0,0,3.1,2.3l1.6.5h1.8a8,8,0,0,0,3.8-1.6l.7.2h1a8.3,8.3,0,0,0,5-1.9,19.4,19.4,0,0,0,4.9-5.3,34.3,34.3,0,0,0,3.5-6.9l.5-1.5h.1a40.7,40.7,0,0,0,1.6-7.1,19.3,19.3,0,0,0,.2-4.8,12.4,12.4,0,0,0-.8-4.1,8.5,8.5,0,0,0-.8-1.7c-.2-.4-.5-.7-.6-.9h-.1a9,9,0,0,0-3.8-2.9,13.1,13.1,0,0,0-2.4-2.8l-1.5-1a7.6,7.6,0,0,0-2.7-.5l-1.9.2a3.2,3.2,0,0,0-2.2-1h-1a2.9,2.9,0,0,0-1.8-.5h-1l-.9.4a8.5,8.5,0,0,0-1.7-.6l-1.4-.2Z" style="fill:#e57225"/><path d="M30.4,33.3h.5a1.5,1.5,0,0,1,1.1.8l.3.7h0a1.9,1.9,0,0,1-.5,1.4,1.8,1.8,0,0,1-1,.7l-.6.2a5.3,5.3,0,0,0-3,2.3,10,10,0,0,0-1,2.9,10.7,10.7,0,0,0-.3,2.5,13.9,13.9,0,0,1,5.5,2.2l-.8.3-1.5.7-.5.3H27a4.8,4.8,0,0,0-2.6.7l-.6.5a4.2,4.2,0,0,0-2.5-1.8H19.4l-.5-.6A6.2,6.2,0,0,0,17,45.6c.2-.2.5-.2.7-.3a9.7,9.7,0,0,1,3.4-.6h1.8a1.4,1.4,0,0,1,.2-.6l.3-1.8.3-1.3a8.3,8.3,0,0,1,.4-1.5,10.8,10.8,0,0,1,3.4-4.5l1.7-1.2a2.8,2.8,0,0,1,1.2-.4m0-3a5.1,5.1,0,0,0-2.8.9l-2,1.4a14.2,14.2,0,0,0-4.3,5.7c-.2.5-.4,1.2-.6,1.9h0l-.2,1.3h0a18.7,18.7,0,0,0-3.7.7h-.1l-1.1.4A2.9,2.9,0,0,0,14,45.6a2.9,2.9,0,0,0,1.7,2.7l1,.7h.1a2.8,2.8,0,0,0,2.6,1.5h1.3a.8.8,0,0,1,.6.4,3,3,0,0,0,2.2,1.4h.3a3.1,3.1,0,0,0,2.2-.9.1.1,0,0,1,.1-.1c.2-.2.5-.2.9-.2h1.6a2.9,2.9,0,0,0,1.6-.4l.4-.3,1.1-.6.7-.2a2.8,2.8,0,0,0,1.9-2.4,3,3,0,0,0-1.2-2.9,14.2,14.2,0,0,0-3.9-1.9l.6-1.7a1.9,1.9,0,0,1,1.2-.9h.7a5.8,5.8,0,0,0,2.5-1.8,4.6,4.6,0,0,0,1-3.7h0a4.9,4.9,0,0,0-.6-1.7,4.7,4.7,0,0,0-3.1-2.2l-1.1-.2Z" style="fill:#507125"/><path d="M26.2,42.5l1.3,1.4c1.3-.5,2.9-1,4.2-.3l.9.5A7.5,7.5,0,0,1,34.7,47a8.1,8.1,0,0,0-2.2,0l-1.1.2A13.9,13.9,0,0,0,25.9,45,10.7,10.7,0,0,1,26.2,42.5Z" style="fill:#fcd54d"/><path d="M23.4,42.2,23.1,44a1.4,1.4,0,0,0-.2.6,1.3,1.3,0,0,1-.5.7h0a7,7,0,0,0-1.9,1.5,2.4,2.4,0,0,0-.6.8h-.5l-.5-.6A6.2,6.2,0,0,0,17,45.6l-1.3-.5L14,44.7a5.5,5.5,0,0,1,2-2,4.8,4.8,0,0,1,3.1-.7,9.1,9.1,0,0,1,2.6,1.3l1-.8a1.5,1.5,0,0,1,.7-.3Z" style="fill:#fcd54d"/><path d="M17,45.6c.2-.2.5-.2.7-.3a9.7,9.7,0,0,1,3.4-.6h1.8a1.3,1.3,0,0,1-.5.7h0a7,7,0,0,0-1.9,1.5,2.4,2.4,0,0,0-.6.8h-.5l-.5-.6A6.2,6.2,0,0,0,17,45.6Z" style="fill:#6c9433"/><path d="M40,54.5a9.6,9.6,0,0,0-.6-3.3,6.7,6.7,0,0,0-.6-1.2h0l-.5-.7A6.3,6.3,0,0,0,34.7,47a8.1,8.1,0,0,0-2.2,0l-1.1.2-.8.3-1.5.7-.5.3a6.5,6.5,0,0,1,3.5,3.2,7.7,7.7,0,0,1,.7,2.9,13.8,13.8,0,0,1-.1,2.9L32.3,60a18.5,18.5,0,0,1-.4,2.3,2.9,2.9,0,0,1-.2.9l-.4,1.5-1.2,3.8a26,26,0,0,1-2.8,6.1L26.4,76h0l-1.8,2,.5.3,1.5.6a5.6,5.6,0,0,0,3.9-1.3A16.5,16.5,0,0,0,34.6,73a33,33,0,0,0,3.2-6.2l.5-1.5a52.8,52.8,0,0,0,1.6-6.6A19.7,19.7,0,0,0,40,54.5Z" style="fill:#ffaa5a"/><path d="M18.9,47a7.4,7.4,0,0,1,2.7-1.6h.8a7,7,0,0,0-1.9,1.5,2.4,2.4,0,0,0-.6.8h-.5Z" style="fill:#2c7101"/><path d="M38.8,50a6.7,6.7,0,0,1,.6,1.2,9.6,9.6,0,0,1,.6,3.3,19.7,19.7,0,0,1-.1,4.2,52.8,52.8,0,0,1-1.6,6.6l-.5,1.5A33,33,0,0,1,34.6,73a16.5,16.5,0,0,1-4.1,4.6,5.6,5.6,0,0,1-3.9,1.3l-1.5-.6-.5-.3,1.8-2h.3l.9.2a6.5,6.5,0,0,0,4.2-2.1c.6-.5,1-1.1,1.5-1.6a15.9,15.9,0,0,0,1.5-2.1l1.4-2.2a35.3,35.3,0,0,0,3.1-9.5,28.3,28.3,0,0,0,.3-4.1,10.2,10.2,0,0,0-.3-3l-.2-.7-.2-.6c0-.1-.1-.3-.1-.4Z" style="fill:#ffaa5a;opacity:0.5;mix-blend-mode:multiply"/><path d="M29.2,33.7a2.6,2.6,0,0,1,1.7-.3,1.5,1.5,0,0,1,1.1.8l.3.7h0a1.9,1.9,0,0,1-.5,1.4,1.8,1.8,0,0,1-1,.7l-.6.2a5.3,5.3,0,0,0-3,2.3,10,10,0,0,0-1,2.9,10.7,10.7,0,0,0-.3,2.5,13.9,13.9,0,0,1,5.5,2.2l-.8.3-1.5.7-.5.3H28a4.5,4.5,0,0,0-3.6.6l-.6.5a4.2,4.2,0,0,0-2.5-1.8H19.9a2.4,2.4,0,0,1,.6-.8,7,7,0,0,1,1.9-1.5h0a1.3,1.3,0,0,0,.5-.7,1.4,1.4,0,0,1,.2-.6l.3-1.8.3-1.3a8.3,8.3,0,0,1,.4-1.5,10.8,10.8,0,0,1,3.4-4.5Z" style="fill:#6c9433"/><path d="M27.7,47.6a4.5,4.5,0,0,0-1-1.4l-.5-.6,1.3.7a7.4,7.4,0,0,1,1.6,1.9l-.5.3H28C28,48.1,27.8,47.9,27.7,47.6Z" style="fill:#2c7101"/><path d="M29.2,33.7h.5a1.2,1.2,0,0,1,1.3.6.6.6,0,0,1,.1.4h0a1.1,1.1,0,0,1-.3.8,4.1,4.1,0,0,1-1.5.7,5.4,5.4,0,0,0-1.8,1.1A8.2,8.2,0,0,0,25.4,41a2.9,2.9,0,0,0-.2.9,1.3,1.3,0,0,0-.1.6,6.1,6.1,0,0,0-.3,1.3c-.1,1-.1,2.1-.1,3.1v1a11.9,11.9,0,0,1-4.2-1.1,7,7,0,0,1,1.9-1.5h0a1.3,1.3,0,0,0,.5-.7,1.4,1.4,0,0,1,.2-.6l.3-1.8.3-1.3a8.3,8.3,0,0,1,.4-1.5,10.8,10.8,0,0,1,3.4-4.5Z" style="fill:#96b85c"/><path d="M17,77.1l-.7.2a4.1,4.1,0,0,1-1.6.3,4.5,4.5,0,0,1-1.1-.3,8.7,8.7,0,0,1-2.3-1.9,20.4,20.4,0,0,1-3.9-7.6A40.1,40.1,0,0,1,6.3,55.9l.2-2.4c.4-2.7,1.2-5.4,3.2-7.2a6.2,6.2,0,0,1,3.7-1.6H14l1.7.4,1.3.5A6.2,6.2,0,0,1,18.9,47l.5.6a6.2,6.2,0,0,0-4.2,2.6,8.6,8.6,0,0,0-1.4,2.9,23.8,23.8,0,0,0-.4,4.6v5.7c.1,1.1.1,2.2.3,3.3l.2.8v.7l.2,1.1a22.3,22.3,0,0,0,1.5,5.2A21.5,21.5,0,0,0,17,77.1Z" style="fill:#ffaa5a"/><path d="M14.2,46.1h.6l1.3.4h-.5a4.9,4.9,0,0,0-1.9.7,11.3,11.3,0,0,0-3.9,4.2,17.3,17.3,0,0,0-1.1,3.2l-.3,1.4c-.1-.1-.1-.4-.1-.5A6.6,6.6,0,0,1,8.2,54a10.2,10.2,0,0,1,1.3-4.9,5.8,5.8,0,0,1,1.1-1.5A5.1,5.1,0,0,1,14.2,46.1Z" style="fill:#ffaa5a;opacity:0.5;mix-blend-mode:multiply"/><path d="M19.8,46.9h1.5a4.2,4.2,0,0,1,2.6,1.9l.6-.5a5.1,5.1,0,0,1,3.8-.7l.6.2a6.2,6.2,0,0,1,3.6,3.3,11.1,11.1,0,0,1,.8,3,10.8,10.8,0,0,1-.2,3.1l-.3,2.5c-.2.8-.3,1.7-.5,2.4a2.9,2.9,0,0,1-.2.9l-.4,1.6-1.2,4.1a36.4,36.4,0,0,1-3,6.3l-1,1.4a9.1,9.1,0,0,1-1.8,2.1l-.8.6a6.8,6.8,0,0,1-2.6,1.2h-.9a3.2,3.2,0,0,1-.9-.3,6.3,6.3,0,0,1-2.7-2.4A18.2,18.2,0,0,1,15.3,75a25.5,25.5,0,0,1-1.5-5.4l-.2-1.2a2,2,0,0,1-.1-.7l-.2-.9L13,63.4v-6a24.2,24.2,0,0,1,.5-4.7,7.3,7.3,0,0,1,1.4-3.1,6.8,6.8,0,0,1,4.3-2.7Z" style="fill:#fcd54d"/><path d="M21,48.2h0a5.7,5.7,0,0,0-1.3.8,9.2,9.2,0,0,0-3,3.5,14.1,14.1,0,0,0-1.5,4.8h0V57a19.3,19.3,0,0,1-.1-2.4,7.2,7.2,0,0,1,2-5A5.3,5.3,0,0,1,21,48.2Z" style="fill:#ffaa5a;opacity:0.5;mix-blend-mode:multiply"/><path d="M32.3,62.2a2.9,2.9,0,0,1-.2.9l-.4,1.6-1.2,4.1a36.4,36.4,0,0,1-3,6.3l-1,1.4a9.1,9.1,0,0,1-1.8,2.1l-.8.6a6.8,6.8,0,0,1-2.6,1.2h-.9a3.2,3.2,0,0,1-.9-.3,6.3,6.3,0,0,1-2.7-2.4A18.2,18.2,0,0,1,15.3,75a25.5,25.5,0,0,1-1.5-5.4l-.2-1.2a2,2,0,0,1-.1-.7c.1.1.1.2.1.4l.3.8.7,2a13,13,0,0,0,.8,1.7,19.8,19.8,0,0,0,1.1,2,9.3,9.3,0,0,0,1.6,1.8,3.7,3.7,0,0,0,2.4,1.4,3.7,3.7,0,0,0,2.5-.3,11.9,11.9,0,0,0,2.3-1.6,20.8,20.8,0,0,0,3.2-4,12.4,12.4,0,0,0,1-2A21.7,21.7,0,0,0,31,66.4l.9-2.9A9.3,9.3,0,0,1,32.3,62.2Z" style="fill:#ffaa5a;opacity:0.5;mix-blend-mode:multiply"/><path d="M28.2,27.5a4.3,4.3,0,0,1,2.4.8,5.5,5.5,0,0,1,2,2h.6a6.1,6.1,0,0,1,3.6,1.7c2.1,1.8,2.9,4.5,3.2,7.2l.3,2.3a36.5,36.5,0,0,1-1.2,11.9,18.2,18.2,0,0,1-3.8,7.6A6.9,6.9,0,0,1,33,62.8a2.3,2.3,0,0,1-1.1.3h-.2l-1.4-.2h-.2l-.3.4a5.9,5.9,0,0,1-2.7,2.5l-.9.3h-.9a5.4,5.4,0,0,1-2.6-1.1l-.8-.7-.3-.3h-.1a5.1,5.1,0,0,1-1.5.7h-.6a5.9,5.9,0,0,1-3.3-1.3A19.9,19.9,0,0,1,12,58.6a37.3,37.3,0,0,1-3.2-6.3l-.5-1.5a47.4,47.4,0,0,1-1.6-6.5A20.6,20.6,0,0,1,6.6,40a8.7,8.7,0,0,1,.6-3.2,3.8,3.8,0,0,1,.6-1.3h0l.5-.6a6.3,6.3,0,0,1,3.6-2.3h0A6.1,6.1,0,0,1,14,29.7l.9-.6a3.2,3.2,0,0,1,1.4-.3,8.9,8.9,0,0,1,2.8.7l1.3-1.4a6.5,6.5,0,0,1,.2,2.4,15,15,0,0,0-5.4,2.2h0l.8.3,1.2.6.5-.2.6-.2h1.1a5,5,0,0,1,2.7.8l.6.5a4,4,0,0,1,2.6-1.8l.9-.2h-.1a13.5,13.5,0,0,0-1.9-1.6h0c-.3-.1-.4-.4-.5-.6s-.1-.4-.2-.6l-.3-1.9h0l.7.4,1,.7a7.7,7.7,0,0,1,2.6-1.2h.7m0-3H26.8l-1.8.7a1.9,1.9,0,0,0-.9-.4h-.9a2.8,2.8,0,0,0-1.8.6h-1a2.8,2.8,0,0,0-2.2,1,6.3,6.3,0,0,0-1.9-.3,6,6,0,0,0-2.7.6,4.4,4.4,0,0,0-1.5,1,12.5,12.5,0,0,0-2.4,2.7A9.9,9.9,0,0,0,5.9,33H5.8l-.6.9a7.1,7.1,0,0,0-.8,1.8,12.4,12.4,0,0,0-.8,4,20.3,20.3,0,0,0,.2,4.9,39.6,39.6,0,0,0,1.6,7h.1L6,53.4a36.3,36.3,0,0,0,3.5,6.8,21.4,21.4,0,0,0,4.8,5.4,8.5,8.5,0,0,0,5.1,1.9H21a9.5,9.5,0,0,0,3.9,1.6h1.8l1.6-.5a8,8,0,0,0,3-2.3H32a4.9,4.9,0,0,0,2.3-.6,10.8,10.8,0,0,0,3.2-2.6A19.8,19.8,0,0,0,42,54.1a41.6,41.6,0,0,0,1.3-12.9h0L43,38.8h0c-.3-2.6-1.1-6.4-4.2-9.1a9.9,9.9,0,0,0-4.7-2.3,11.5,11.5,0,0,0-1.9-1.6,7.7,7.7,0,0,0-4-1.2Z" style="fill:#781f1a"/><path d="M16.1,18.9a1.6,1.6,0,0,1,1.2.4l1.8,1.2a11.2,11.2,0,0,1,3.4,4.4,7.5,7.5,0,0,1,.4,1.6l.3,1.2.3,1.9c.1.2.1.4.2.6h1.8a18.6,18.6,0,0,1,3.4.6l.7.3a8.5,8.5,0,0,0-1.9,1.4,1.8,1.8,0,0,0-.5.7h-.7l-1.2.2A3.9,3.9,0,0,0,22.7,35l-.5-.4a4.2,4.2,0,0,0-2.6-.8h-1l-.6.2-.5-.3L16,33l-.8-.3a15,15,0,0,1,5.4-2.2,6.5,6.5,0,0,0-.2-2.4,9.1,9.1,0,0,0-1-2.9,5.1,5.1,0,0,0-3-2.4h-.6a4.1,4.1,0,0,1-1.1-.7,2.6,2.6,0,0,1-.4-1.5h0c.1-.3.1-.5.3-.7a1.7,1.7,0,0,1,1.1-.9h.4m0-3h-1A5,5,0,0,0,12,18.2a6.4,6.4,0,0,0-.6,1.8h0a5.2,5.2,0,0,0,.9,3.8,4.9,4.9,0,0,0,2.5,1.7l.6.2h.1a2.3,2.3,0,0,1,1.3,1,13.8,13.8,0,0,1,.6,1.6,14.3,14.3,0,0,0-3.9,2,2.9,2.9,0,0,0,.7,5.2l.7.3,1.1.6.4.2a3,3,0,0,0,1.6.5h.8l.4-.2h.4l.9.2a.1.1,0,0,0,.1.1,2.9,2.9,0,0,0,2.1.9h.4a3,3,0,0,0,2.2-1.4.9.9,0,0,1,.6-.4h1.3a3,3,0,0,0,2.6-1.5.1.1,0,0,1,.1-.1,2.5,2.5,0,0,1,1-.8,2.8,2.8,0,0,0,1.7-2.6A2.9,2.9,0,0,0,31,28.5a3.4,3.4,0,0,0-1.1-.5h-.1a13.5,13.5,0,0,0-3.7-.7h0l-.2-1.3h-.1a9.7,9.7,0,0,0-.5-2A14.9,14.9,0,0,0,21,18.1l-2-1.3a5.2,5.2,0,0,0-2.9-.9Z" style="fill:#507125"/><path d="M20.4,28.1l-1.3,1.4c-1.3-.5-2.9-1-4.2-.4l-.9.6a6.1,6.1,0,0,0-2.1,2.9,5.5,5.5,0,0,1,2.2-.1l1.1.2a15,15,0,0,1,5.4-2.2A6.5,6.5,0,0,0,20.4,28.1Z" style="fill:#e05555"/><path d="M23.2,27.7l.3,1.9c.1.2.1.4.2.6s.2.5.5.6h0a13.5,13.5,0,0,1,1.9,1.6l.6.7h.5a1.8,1.8,0,0,1,.5-.7,8.5,8.5,0,0,1,1.9-1.4l1.3-.5a5.1,5.1,0,0,1,1.7-.3,5.5,5.5,0,0,0-2-2,3.8,3.8,0,0,0-3.1-.7,7.7,7.7,0,0,0-2.6,1.2l-1-.7-.7-.4Z" style="fill:#e05555"/><path d="M29.6,31.1l-.7-.3a18.6,18.6,0,0,0-3.4-.6H23.7c.1.2.2.5.5.6h0a13.5,13.5,0,0,1,1.9,1.6l.6.7h.5a1.8,1.8,0,0,1,.5-.7A8.5,8.5,0,0,1,29.6,31.1Z" style="fill:#6c9433"/><path d="M6.6,40a8.7,8.7,0,0,1,.6-3.2,3.8,3.8,0,0,1,.6-1.3h0l.5-.6a6.3,6.3,0,0,1,3.6-2.3,5.5,5.5,0,0,1,2.2-.1l1.1.2.8.3,1.5.8.5.3a5.8,5.8,0,0,0-3.5,3.2,9.6,9.6,0,0,0-.8,2.9c0,.9.1,1.9.2,2.9l.4,2.4a20,20,0,0,0,.4,2.4,3.1,3.1,0,0,0,.2.8l.3,1.5,1.2,3.9a34.1,34.1,0,0,0,2.9,6.1l.9,1.3-.3.2h0l.3-.2a17.1,17.1,0,0,0,1.8,2l-.5.3a5.1,5.1,0,0,1-1.5.7,5.6,5.6,0,0,1-3.9-1.3A19.9,19.9,0,0,1,12,58.6a37.3,37.3,0,0,1-3.2-6.3l-.5-1.5a47.4,47.4,0,0,1-1.6-6.5A20.6,20.6,0,0,1,6.6,40Z" style="fill:#c2331d"/><path d="M27.7,32.5A7.2,7.2,0,0,0,25,31l-.8-.2a13.5,13.5,0,0,1,1.9,1.6l.6.7h.5A1.8,1.8,0,0,1,27.7,32.5Z" style="fill:#2c7101"/><path d="M7.8,35.5a3.8,3.8,0,0,0-.6,1.3A8.7,8.7,0,0,0,6.6,40a20.6,20.6,0,0,0,.1,4.3,47.4,47.4,0,0,0,1.6,6.5l.5,1.5A37.3,37.3,0,0,0,12,58.6a19.9,19.9,0,0,0,4.1,4.6A5.6,5.6,0,0,0,20,64.5a5.1,5.1,0,0,0,1.5-.7l.5-.3a17.1,17.1,0,0,1-1.8-2l-.3.2h-1c-1.6.1-3-1-4.1-2.1a11.4,11.4,0,0,1-1.5-1.6,14.9,14.9,0,0,1-1.5-2,17.6,17.6,0,0,1-1.4-2.3,35.3,35.3,0,0,1-3.1-9.5A18.4,18.4,0,0,1,7,40.2a9.2,9.2,0,0,1,.3-2.9l.2-.8.2-.6c0-.1.1-.2.1-.3Z" style="fill:#c2331d;opacity:0.5;mix-blend-mode:multiply"/><path d="M17.3,19.3a2.3,2.3,0,0,0-1.6-.4,1.7,1.7,0,0,0-1.1.9c-.2.2-.2.4-.3.7h0a2.6,2.6,0,0,0,.4,1.5,4.1,4.1,0,0,0,1.1.7h.6a5.1,5.1,0,0,1,3,2.4,9.1,9.1,0,0,1,1,2.9,6.5,6.5,0,0,1,.2,2.4,15,15,0,0,0-5.4,2.2l.8.3,1.5.8.5.3.6-.2a4.7,4.7,0,0,1,3.6.7l.5.4a3.9,3.9,0,0,1,2.6-1.7l1.4-.2-.6-.7a13.5,13.5,0,0,0-1.9-1.6h0c-.3-.1-.4-.4-.5-.6s-.1-.4-.2-.6l-.3-1.9-.3-1.2a7.5,7.5,0,0,0-.4-1.6,11.2,11.2,0,0,0-3.4-4.4Z" style="fill:#6c9433"/><path d="M18.8,33.2a13,13,0,0,1,1-1.5,1.5,1.5,0,0,0,.6-.5l-1.3.7a6,6,0,0,0-1.6,1.9l.5.3.6-.2A1.9,1.9,0,0,1,18.8,33.2Z" style="fill:#2c7101"/><path d="M17.3,19.3h-.4a1.4,1.4,0,0,0-1.3.6.9.9,0,0,0-.1.5h0a1.1,1.1,0,0,0,.3.8c.4.4,1,.4,1.5.6A7.1,7.1,0,0,1,19.1,23a7.8,7.8,0,0,1,2.1,3.5,2.9,2.9,0,0,1,.2.9,1.7,1.7,0,0,1,.1.7,5.3,5.3,0,0,1,.3,1.2c.1,1.1.1,2.1.1,3.1v1a10,10,0,0,0,4.2-1,13.5,13.5,0,0,0-1.9-1.6h0c-.3-.1-.4-.4-.5-.6s-.1-.4-.2-.6l-.3-1.9-.3-1.2a7.5,7.5,0,0,0-.4-1.6,11.2,11.2,0,0,0-3.4-4.4Z" style="fill:#96b85c"/><path d="M29.6,62.7l.7.2a4.1,4.1,0,0,0,1.6.2,2.3,2.3,0,0,0,1.1-.3,6.9,6.9,0,0,0,2.3-1.9,18.2,18.2,0,0,0,3.8-7.6,36.5,36.5,0,0,0,1.2-11.9L40,39.1c-.3-2.7-1.1-5.4-3.2-7.2a6.1,6.1,0,0,0-3.6-1.7h-.6a5.1,5.1,0,0,0-1.7.3l-1.3.5a8.5,8.5,0,0,0-1.9,1.4,1.8,1.8,0,0,0-.5.7,6.4,6.4,0,0,1,4.2,2.5,8.1,8.1,0,0,1,1.3,3,23,23,0,0,1,.5,4.5v5.7l-.3,3.4-.2.8v.6l-.2,1.2A25.5,25.5,0,0,1,31,60.1C30.6,61,30.1,61.8,29.6,62.7Z" style="fill:#c2331d"/><path d="M32.4,31.7h-.6a5,5,0,0,0-1.3.3H31a4.7,4.7,0,0,1,1.9.6,10.5,10.5,0,0,1,3.8,4.3,17.5,17.5,0,0,1,1.2,3.2l.3,1.3a.7.7,0,0,0,.1-.5,6.1,6.1,0,0,0,.1-1.4,10.9,10.9,0,0,0-1.3-4.9L36,33.1A5,5,0,0,0,32.4,31.7Z" style="fill:#c2331d;opacity:0.5;mix-blend-mode:multiply"/><path d="M26.8,32.4l-1.5.2a4,4,0,0,0-2.6,1.8l-.6-.5a5.1,5.1,0,0,0-3.8-.7l-.6.2a6.7,6.7,0,0,0-3.6,3.4,7.4,7.4,0,0,0-.8,3,10.1,10.1,0,0,0,.2,3l.3,2.6c.2.8.3,1.6.5,2.4a2.9,2.9,0,0,0,.2.9l.4,1.6,1.2,4a37.3,37.3,0,0,0,3,6.4l.9,1.4a18,18,0,0,0,1.9,2l.8.7a5.4,5.4,0,0,0,2.6,1.1h.9l.9-.3a5.9,5.9,0,0,0,2.7-2.5,11.7,11.7,0,0,0,1.5-2.7,25.5,25.5,0,0,0,1.5-5.4l.2-1.2a1.5,1.5,0,0,0,.1-.7v-.8c.2-1.2.3-2.3.4-3.5V43a26.1,26.1,0,0,0-.5-4.8,8.3,8.3,0,0,0-1.4-3,6.3,6.3,0,0,0-4.4-2.7Z" style="fill:#e05555"/><path d="M25.6,33.8h0a3.8,3.8,0,0,1,1.3.9,10.8,10.8,0,0,1,3,3.4A16.4,16.4,0,0,1,31.4,43v-.4a19.3,19.3,0,0,0,.1-2.4,7.3,7.3,0,0,0-2-5.1A5.3,5.3,0,0,0,25.6,33.8Z" style="fill:#c2331d;opacity:0.5;mix-blend-mode:multiply"/><path d="M14.3,47.8a2.9,2.9,0,0,0,.2.9l.4,1.6,1.2,4a37.3,37.3,0,0,0,3,6.4l.9,1.4a18,18,0,0,0,1.9,2l.8.7a5.4,5.4,0,0,0,2.6,1.1h.9l.9-.3a5.9,5.9,0,0,0,2.7-2.5,11.7,11.7,0,0,0,1.5-2.7,25.5,25.5,0,0,0,1.5-5.4l.2-1.2a1.5,1.5,0,0,0,.1-.7l-.2.4-.2.8-.7,2a8.9,8.9,0,0,1-.8,1.7,12.8,12.8,0,0,1-1.1,2A14.6,14.6,0,0,1,28.5,62a5.8,5.8,0,0,1-2.4,1.4,4.4,4.4,0,0,1-2.5-.4,11.9,11.9,0,0,1-2.3-1.6,20.2,20.2,0,0,1-3.2-3.9c-.4-.7-.7-1.4-1.1-2s-1-2.4-1.4-3.6l-.9-2.8A5,5,0,0,0,14.3,47.8Z" style="fill:#c2331d;opacity:0.5;mix-blend-mode:multiply"/><path d="M55.9,44.9a5.7,5.7,0,0,1,2.5.8,7.6,7.6,0,0,1,2,2H61a5.7,5.7,0,0,1,3.6,1.6c2.1,1.8,2.8,4.5,3.2,7.2l.2,2.3a36.5,36.5,0,0,1-1.1,11.9,19.9,19.9,0,0,1-3.8,7.7,8.4,8.4,0,0,1-2.4,1.8l-1.1.4h-.1a4,4,0,0,1-1.5-.3h-.2l-.2.5a7.2,7.2,0,0,1-2.8,2.4l-.8.3h-.9a5.7,5.7,0,0,1-2.6-1.2l-.8-.6-.4-.4h0a4.6,4.6,0,0,1-1.6.7h-.5a5.7,5.7,0,0,1-3.3-1.3A18.4,18.4,0,0,1,39.7,76a30.7,30.7,0,0,1-3.1-6.3L36,68.2a36.1,36.1,0,0,1-1.5-6.5,19.7,19.7,0,0,1-.2-4.2,19.1,19.1,0,0,1,.6-3.3,13.4,13.4,0,0,1,.6-1.2h.1a4.3,4.3,0,0,1,.4-.7A6.6,6.6,0,0,1,39.6,50h0a8.6,8.6,0,0,1,2.1-2.9l.9-.6a3.4,3.4,0,0,1,1.4-.2,9.4,9.4,0,0,1,2.9.6l1.3-1.4a9.7,9.7,0,0,1,.2,2.4A17.1,17.1,0,0,0,43,50.1h0l.7.3,1.2.6.5-.2h1.8a5.2,5.2,0,0,1,2.7.7l.5.5A4.2,4.2,0,0,1,53.1,50h.7a5.5,5.5,0,0,0-1.9-1.5h0l-.5-.7c0-.2-.1-.4-.1-.6l-.4-1.9H51l.6.4,1.1.8A6.7,6.7,0,0,1,55.2,45h.7m0-3h0l-1.3.2a4.8,4.8,0,0,0-1.8.6l-.9-.4h-.1l-.9-.2a2.7,2.7,0,0,0-1.7.6h-1a3.3,3.3,0,0,0-2.3,1,5.8,5.8,0,0,0-1.9-.2,5.8,5.8,0,0,0-2.6.5l-1.6,1a9.1,9.1,0,0,0-2.3,2.8,9.3,9.3,0,0,0-3.9,2.9h0l-.7.9-.8,1.7a15.7,15.7,0,0,0-.8,4.1,26.1,26.1,0,0,0,.2,4.8,40.9,40.9,0,0,0,1.7,7.1h0l.6,1.5a33.2,33.2,0,0,0,3.4,6.8A20,20,0,0,0,42.1,83a8.3,8.3,0,0,0,5.1,1.9h1.6a8.4,8.4,0,0,0,3.8,1.6h1.8a3.4,3.4,0,0,0,1.6-.5,8.2,8.2,0,0,0,3.1-2.2h.7a7,7,0,0,0,2.2-.7,9.6,9.6,0,0,0,3.3-2.5,22,22,0,0,0,4.5-8.9A38.2,38.2,0,0,0,71,58.7v-.2l-.2-2.3h0c-.4-2.6-1.2-6.4-4.2-9.1a8.9,8.9,0,0,0-4.7-2.2A10.6,10.6,0,0,0,60,43.2a7.3,7.3,0,0,0-4.1-1.3Z" style="fill:#6c9433"/><path d="M43.9,36.3a2.8,2.8,0,0,1,1.2.4l1.8,1.2a11.5,11.5,0,0,1,3.3,4.5,6.6,6.6,0,0,1,.5,1.5l.2,1.2.4,1.9c0,.2.1.4.1.6h1.8a12.8,12.8,0,0,1,3.4.7l.8.2a7.5,7.5,0,0,0-2,1.5l-.4.6H53a4.1,4.1,0,0,0-2.5,1.8l-.6-.5a4.4,4.4,0,0,0-2.5-.8H46.3l-.6.2-.4-.3-1.6-.8-.7-.3a17.1,17.1,0,0,1,5.4-2.2,9.7,9.7,0,0,0-.2-2.4,14.5,14.5,0,0,0-1.1-2.9,4.4,4.4,0,0,0-2.9-2.3l-.7-.2a1.8,1.8,0,0,1-1-.7,2,2,0,0,1-.4-1.5h0a1.4,1.4,0,0,1,.2-.7,2,2,0,0,1,1.2-.8h.4m0-3H42.8a4.4,4.4,0,0,0-3,2.3,3.6,3.6,0,0,0-.7,1.7h0a5,5,0,0,0,1,3.7,4.9,4.9,0,0,0,2.5,1.7l.6.2h.1a1.9,1.9,0,0,1,1.2,1,3.8,3.8,0,0,1,.6,1.6,17.8,17.8,0,0,0-3.9,2A3,3,0,0,0,40,50.5,3.1,3.1,0,0,0,41.9,53l.7.2,1.1.6.4.2a3.3,3.3,0,0,0,1.6.5h1.7l.8.2.2.2a3.1,3.1,0,0,0,2.1.9h.3A3.2,3.2,0,0,0,53,54.1a1.8,1.8,0,0,1,.7-.5H55a3.2,3.2,0,0,0,2.6-1.5h0l1.1-.8a3,3,0,0,0,1.7-2.6,2.9,2.9,0,0,0-1.6-2.7,3.7,3.7,0,0,0-1.1-.4h-.1a15.1,15.1,0,0,0-3.7-.7h0l-.3-1.3h0a14.5,14.5,0,0,0-.6-1.9,12.8,12.8,0,0,0-4.3-5.7,12.1,12.1,0,0,0-2-1.4,4.9,4.9,0,0,0-2.8-.9Z" style="fill:#507125"/><path d="M48.2,45.5l-1.3,1.4c-1.3-.5-2.9-1-4.3-.4l-.9.6A8.6,8.6,0,0,0,39.6,50a8.9,8.9,0,0,1,2.3-.1l1.1.2a17.1,17.1,0,0,1,5.4-2.2A9.7,9.7,0,0,0,48.2,45.5Z" style="fill:#dfe590"/><path d="M50.9,45.1l.4,1.9c0,.2.1.4.1.6l.5.7h0a5.5,5.5,0,0,1,1.9,1.5,1.8,1.8,0,0,1,.7.8H55l.4-.6a7.5,7.5,0,0,1,2-1.5l1.3-.5,1.7-.3a7.6,7.6,0,0,0-2-2,4.1,4.1,0,0,0-3.2-.7,6.7,6.7,0,0,0-2.5,1.3l-1.1-.8-.6-.4Z" style="fill:#dfe590"/><path d="M57.4,48.5l-.8-.2a12.8,12.8,0,0,0-3.4-.7H51.4l.5.7h0a5.5,5.5,0,0,1,1.9,1.5,1.8,1.8,0,0,1,.7.8H55l.4-.6A7.5,7.5,0,0,1,57.4,48.5Z" style="fill:#6c9433"/><path d="M34.3,57.5a19.1,19.1,0,0,1,.6-3.3,13.4,13.4,0,0,1,.6-1.2h.1a4.3,4.3,0,0,1,.4-.7A6.6,6.6,0,0,1,39.6,50a8.9,8.9,0,0,1,2.3-.1l1.1.2.7.3,1.6.8.4.3a6.6,6.6,0,0,0-3.4,3.2,7.4,7.4,0,0,0-.8,2.9,9.3,9.3,0,0,0,.2,2.9L42,63c.1.7.3,1.5.5,2.3s.1.6.1.8l.4,1.6,1.2,3.8A42.2,42.2,0,0,0,47,77.6L48,79h0a16.2,16.2,0,0,0,1.8,2l-.5.2a4.6,4.6,0,0,1-1.6.7,5.3,5.3,0,0,1-3.8-1.3A18.4,18.4,0,0,1,39.7,76a30.7,30.7,0,0,1-3.1-6.3L36,68.2a36.1,36.1,0,0,1-1.5-6.5A19.7,19.7,0,0,1,34.3,57.5Z" style="fill:#c3bf4f"/><path d="M55.4,50a7.4,7.4,0,0,0-2.7-1.6,1.1,1.1,0,0,0-.8-.1,5.5,5.5,0,0,1,1.9,1.5,1.8,1.8,0,0,1,.7.8H55Z" style="fill:#2c7101"/><path d="M35.6,53a4.7,4.7,0,0,0-.7,1.2,19.1,19.1,0,0,0-.6,3.3,19.7,19.7,0,0,0,.2,4.2A36.1,36.1,0,0,0,36,68.2l.6,1.5A30.7,30.7,0,0,0,39.7,76a18.4,18.4,0,0,0,4.2,4.6,5.3,5.3,0,0,0,3.8,1.3,4.6,4.6,0,0,0,1.6-.7l.5-.2A16.2,16.2,0,0,1,48,79h-.4l-.9.2a6.4,6.4,0,0,1-4.2-2.2l-1.4-1.5-1.6-2.1a17.1,17.1,0,0,1-1.3-2.3,28.7,28.7,0,0,1-3.1-9.5,27.1,27.1,0,0,1-.4-4,15.3,15.3,0,0,1,.3-3l.2-.8.2-.5a.8.8,0,0,0,.2-.4Z" style="fill:#c3bf4f;opacity:0.5;mix-blend-mode:multiply"/><path d="M45.1,36.7a1.8,1.8,0,0,0-1.6-.3,2,2,0,0,0-1.2.8,1.4,1.4,0,0,0-.2.7h0a2,2,0,0,0,.4,1.5,1.8,1.8,0,0,0,1,.7l.7.2a4.4,4.4,0,0,1,2.9,2.3,14.5,14.5,0,0,1,1.1,2.9,9.7,9.7,0,0,1,.2,2.4A17.1,17.1,0,0,0,43,50.1l.7.3,1.6.8.4.3.6-.2a4.6,4.6,0,0,1,3.6.7l.6.5A4.1,4.1,0,0,1,53,50.7a3.8,3.8,0,0,1,1.5-.1,1.8,1.8,0,0,0-.7-.8,5.5,5.5,0,0,0-1.9-1.5h0l-.5-.7c0-.2-.1-.4-.1-.6l-.4-1.9-.2-1.2a6.6,6.6,0,0,0-.5-1.5,11.5,11.5,0,0,0-3.3-4.5Z" style="fill:#6c9433"/><path d="M46.6,50.6a4.5,4.5,0,0,1,1-1.4l.6-.6-1.3.7a4.8,4.8,0,0,0-1.6,1.9l.4.3.6-.2A2.1,2.1,0,0,1,46.6,50.6Z" style="fill:#2c7101"/><path d="M45.1,36.7h-.4c-.6,0-1.1.1-1.3.7s-.1.2-.2.4h0a1.1,1.1,0,0,0,.3.8,5.1,5.1,0,0,0,1.5.7,5.2,5.2,0,0,1,1.9,1.1,6.9,6.9,0,0,1,2,3.5l.3,1a1.3,1.3,0,0,0,.1.6,5,5,0,0,1,.2,1.2c.1,1.1.2,2.1.2,3.2v.9a9.9,9.9,0,0,0,4.1-1,5.5,5.5,0,0,0-1.9-1.5h0l-.5-.7c0-.2-.1-.4-.1-.6l-.4-1.9-.2-1.2a6.6,6.6,0,0,0-.5-1.5,11.5,11.5,0,0,0-3.3-4.5Z" style="fill:#96b85c"/><path d="M57.3,80.1l.7.2a4.5,4.5,0,0,0,1.6.3l1.1-.4a8.4,8.4,0,0,0,2.4-1.8,19.9,19.9,0,0,0,3.8-7.7A36.5,36.5,0,0,0,68,58.8l-.2-2.3c-.4-2.7-1.1-5.4-3.2-7.2A5.7,5.7,0,0,0,61,47.7h-.6l-1.7.3-1.3.5a7.5,7.5,0,0,0-2,1.5l-.4.6a6.3,6.3,0,0,1,4.2,2.6,9.5,9.5,0,0,1,1.3,2.9,17.9,17.9,0,0,1,.4,4.6v5.7a18.4,18.4,0,0,1-.3,3.3v.8c0,.2-.1.4-.1.6l-.2,1.2a22.3,22.3,0,0,1-1.5,5.2A13,13,0,0,1,57.3,80.1Z" style="fill:#c3bf4f"/><path d="M60.1,49.1h-.5l-1.4.3c.2.1.4,0,.5,0a3.9,3.9,0,0,1,1.9.6,10.8,10.8,0,0,1,3.9,4.3,17.3,17.3,0,0,1,1.1,3.2l.4,1.4a.7.7,0,0,1,.1-.5V57a9.2,9.2,0,0,0-1.3-4.9,4.2,4.2,0,0,0-1.1-1.5A4.9,4.9,0,0,0,60.1,49.1Z" style="fill:#c3bf4f;opacity:0.5;mix-blend-mode:multiply"/><path d="M54.6,49.9a3.8,3.8,0,0,0-1.5.1,4.2,4.2,0,0,0-2.7,1.8l-.5-.5a5.1,5.1,0,0,0-3.8-.6h-.7a7,7,0,0,0-3.6,3.4,10.2,10.2,0,0,0-.8,3c0,1,.1,2,.2,3l.4,2.6a10.3,10.3,0,0,0,.5,2.4c0,.3.1.6.1.9l.4,1.6,1.3,4a36.9,36.9,0,0,0,2.9,6.4l1,1.4,1.9,2.1.8.6a5.7,5.7,0,0,0,2.6,1.2H54l.8-.3a7.2,7.2,0,0,0,2.8-2.4c.5-.9,1-1.8,1.4-2.7a24.9,24.9,0,0,0,1.6-5.5l.2-1.2c0-.2.1-.4.1-.6v-.9c.2-1.1.2-2.3.3-3.5V60.4a25.9,25.9,0,0,0-.4-4.8,11.7,11.7,0,0,0-1.4-3,6.7,6.7,0,0,0-4.4-2.7Z" style="fill:#dfe590"/><path d="M53.4,51.2h-.1l1.4.8a10.5,10.5,0,0,1,2.9,3.4,12.2,12.2,0,0,1,1.5,4.9h.1V60a9.7,9.7,0,0,0,.1-2.4c-.1-1.9-.5-3.8-2-5A5.2,5.2,0,0,0,53.4,51.2Z" style="fill:#c3bf4f;opacity:0.5;mix-blend-mode:multiply"/><path d="M42.1,65.2c0,.3.1.6.1.9l.4,1.6,1.3,4a36.9,36.9,0,0,0,2.9,6.4l1,1.4,1.9,2.1.8.6a5.7,5.7,0,0,0,2.6,1.2H54l.8-.3a7.2,7.2,0,0,0,2.8-2.4c.5-.9,1-1.8,1.4-2.7a24.9,24.9,0,0,0,1.6-5.5l.2-1.2c0-.2.1-.4.1-.6a.5.5,0,0,0-.2.4l-.3.8-.7,2c-.2.5-.5,1.1-.7,1.7a19.9,19.9,0,0,1-1.2,1.9,7,7,0,0,1-1.6,1.9,4.9,4.9,0,0,1-2.3,1.4,4.3,4.3,0,0,1-2.5-.3,7.6,7.6,0,0,1-2.3-1.7,14.8,14.8,0,0,1-3.2-3.9,12.8,12.8,0,0,1-1.1-2c-.6-1.2-1-2.3-1.5-3.5l-.9-2.9Z" style="fill:#c3bf4f;opacity:0.5;mix-blend-mode:multiply"/><rect x="3.6" y="68.5" width="12.1" height="8.09" rx="1" style="fill:#d8a960"/><path d="M14.7,69.5v6.1H4.6V69.5H14.7m0-2H4.6a2,2,0,0,0-2,2v6.1a2,2,0,0,0,2,2H14.7a2,2,0,0,0,2-2V69.5a2,2,0,0,0-2-2Z" style="fill:#75411a"/><rect x="72.1" y="68.5" width="12.1" height="8.08" rx="1" style="fill:#d8a960"/><path d="M83.2,69.5v6.1H73.1V69.5H83.2m0-2H73.1a2,2,0,0,0-2,2v6.1a2,2,0,0,0,2,2H83.2a2,2,0,0,0,2-2V69.5a2,2,0,0,0-2-2Z" style="fill:#75411a"/><rect x="1.5" y="75.1" width="85.4" height="18.66" rx="1.5" style="fill:#ddab88"/><path d="M85.4,76.6V92.2H3V76.6H85.4m0-3H3a2.9,2.9,0,0,0-3,3V92.2a2.9,2.9,0,0,0,3,3H85.4a2.9,2.9,0,0,0,3-3V76.6a2.9,2.9,0,0,0-3-3Z" style="fill:#6a3417"/><rect x="1.5" y="52.2" width="85.4" height="18.57" rx="1.5" style="fill:#ddab88"/><path d="M85.4,53.7V69.2H3V53.7H85.4m0-3H3a2.9,2.9,0,0,0-3,3V69.2a2.9,2.9,0,0,0,3,3H85.4a2.9,2.9,0,0,0,3-3V53.7a2.9,2.9,0,0,0-3-3Z" style="fill:#6a3417"/></g></g></g></svg>