<svg xmlns="http://www.w3.org/2000/svg" xmlns:xlink="http://www.w3.org/1999/xlink" viewBox="0 0 66.5 87.2"><defs><clipPath id="clip-path" transform="translate(7.8 13.7)"><path d="M9.7,4.5A12,12,0,0,0,8,16.6c1.1,2.7,3.1,4.9,4.8,7.2,5.1,7.3,6.5,16.4,7.6,25.1.5,4.9,1.2,10.1,4.6,13.5a11.7,11.7,0,0,0,10.1,3.1,15.7,15.7,0,0,0,9.3-5.3c5-5.8,6.3-14.9,4.4-22.2A53.2,53.2,0,0,0,36.7,16.2C28.3,7.1,21.6,4,16.3,3.1A9,9,0,0,0,8.9,5.2" style="fill:none"/></clipPath></defs><g style="isolation:isolate"><g id="Layer_2" data-name="Layer 2"><g id="Layer_1-2" data-name="Layer 1"><path d="M9.7,4.5A12,12,0,0,0,8,16.6c1.1,2.7,3.1,4.9,4.8,7.2,5.1,7.3,6.5,16.4,7.6,25.1.5,4.9,1.2,10.1,4.6,13.5a11.7,11.7,0,0,0,10.1,3.1,15.7,15.7,0,0,0,9.3-5.3c5-5.8,6.3-14.9,4.4-22.2A53.2,53.2,0,0,0,36.7,16.2C28.3,7.1,21.6,4,16.3,3.1A9,9,0,0,0,8.9,5.2" transform="translate(7.8 13.7)" style="fill:#7f1c81"/><path d="M9.5,4.3a12.1,12.1,0,0,0-2.9,7.2A13,13,0,0,0,9,19.4c1.7,2.6,3.7,4.8,5.2,7.5a38.4,38.4,0,0,1,3.3,8.5,71.7,71.7,0,0,1,1.8,9c.4,2.9.7,5.8,1.1,8.7a20.8,20.8,0,0,0,2.7,7.7,11.5,11.5,0,0,0,6.2,4.8c5.5,1.7,11.3-.5,15.1-4.6a23,23,0,0,0,5.8-14.5,26.8,26.8,0,0,0-.7-8,46.7,46.7,0,0,0-3.1-8.6,57.5,57.5,0,0,0-9.8-14.6c-3.7-4-7.9-7.8-12.8-10.2s-8-3.5-11.9-2.2a7.9,7.9,0,0,0-3.4,2c-.4.5.3,1.1.8.7a8.6,8.6,0,0,1,7.2-1.8,20.3,20.3,0,0,1,4.8,1.4c4.3,1.7,8.1,4.7,11.6,7.9A59.1,59.1,0,0,1,43.5,26.4a46.3,46.3,0,0,1,3.6,8.2,29.5,29.5,0,0,1,1.8,7.8,24.6,24.6,0,0,1-3.1,15c-2.8,4.5-7.7,8-13.2,7.7a11,11,0,0,1-7.1-2.9,14,14,0,0,1-3.6-6.9,71.9,71.9,0,0,1-1.3-8.1c-.3-2.8-.8-5.6-1.3-8.4-1.2-5.6-3.1-11.1-6.5-15.7-1.6-2.3-3.7-4.5-4.6-7.2a11.6,11.6,0,0,1,0-7.8A11.1,11.1,0,0,1,10,4.7c.2-.3-.3-.7-.5-.4Z" transform="translate(7.8 13.7)" style="fill:#541155"/><g style="opacity:0.41000000000000003;mix-blend-mode:soft-light"><path d="M23.7,47.5a1.4,1.4,0,0,1-.2.6l1.6-1.7a2.8,2.8,0,0,0-1.8,2c0,.2-.1.3-.1.5s-.3.6,0,.1a6.5,6.5,0,0,0-.4,2v.5c0,.9.2-.6.2-.7a2.7,2.7,0,0,0-.3,1.2,1.6,1.6,0,0,0,0,.7v.4c0,.4.1.8.1,1.1a26.8,26.8,0,0,0,.7,2.7,9.9,9.9,0,0,0,3.1,4.6A10.9,10.9,0,0,0,30,63.2a4.6,4.6,0,0,0,4.7-1.3l-1.6,1a8.4,8.4,0,0,0,2.4-1.4,3,3,0,0,0-.2-4.1l-1-.7c-.7-.4.6.5.2.1l1,1.6a4.4,4.4,0,0,0-2.3-2.7l-1.1-.6.9.6-1.8-1.2.9.6A11.5,11.5,0,0,1,29.8,53l.6.8a14,14,0,0,1-1-1.6c-.2-.5.1.2.1.2s-.1-.3-.2-.4a3.8,3.8,0,0,0-.9-1.8c-.3-.5-.3-.4.1.1s.4.6.2.3a.6.6,0,0,0-.1-.4.9.9,0,0,0-.1-.5c0-.2-.2-.9-.4-1s.2.6.1.1-.1-.6,0-.1a2.6,2.6,0,0,0-1.4-2.1l1.1,1.3h0a2.1,2.1,0,0,0-1.9-2,2.2,2.2,0,0,0-2.3,1.6Z" transform="translate(7.8 13.7)" style="fill:#fff"/></g><g style="opacity:0.41000000000000003;mix-blend-mode:soft-light"><path d="M25.4,44.4l.2-.4c0-.1.1-.3.1-.4a.3.3,0,0,1,.1-.2,1.3,1.3,0,0,0-.1-.6h-.1c0-.2-.1-.3-.1-.4l-.3-.4-.5-.2h-.4c-.2-.1-.3,0-.5,0l-.4.2-.3.2-.3.6a.7.7,0,0,0-.1.5c0,.2.1.4.1.6a1.6,1.6,0,0,0,.6.8l.3.3.5.2a.3.3,0,0,0,.4,0H25c.2-.1.3-.3.4-.4Z" transform="translate(7.8 13.7)" style="fill:#fff"/></g><g style="clip-path:url(#clip-path)"><g style="opacity:0.15;mix-blend-mode:soft-light"><path d="M22.6,65.9a21.8,21.8,0,0,0,2.1,2.2c.8.8,1.8,1.4,2.7,2.2-.9-.8.2.1.3.2l.4.2.5.3,1.8.9L33.6,73a17.4,17.4,0,0,0,3.9.5,27.1,27.1,0,0,0,4.1-.4,17.8,17.8,0,0,0,7.1-2.9,21.7,21.7,0,0,0,5.7-6.4,30.5,30.5,0,0,0,2.9-7,36.9,36.9,0,0,0,1.2-14,49.7,49.7,0,0,0-1.4-7.7,45.9,45.9,0,0,0-2.8-7.3A58.4,58.4,0,0,0,48,17.3,129.4,129.4,0,0,0,39.1,6.6c-3-3.1-6-6.2-9.2-9s-4-3.3-6.1-4.8a28,28,0,0,0-4.9-3.3A25,25,0,0,0,11.8-13a32.4,32.4,0,0,0-8.2-.6l-2.2.4a10.8,10.8,0,0,0-2.9.9L.1-13l-2.4,1.1L1-12.8l-2.6-.3A6.6,6.6,0,0,0-6-11.2,6.2,6.2,0,0,0-7.8-7.6a6.3,6.3,0,0,0,.8,4A6.7,6.7,0,0,0-3.3-.7l2.6.4L-3.6-1.9-1.5-.4,1,.6a16.9,16.9,0,0,0,3.9.8L9,1.7,7,1.5a16.9,16.9,0,0,1,4.9,1.3L10.1,2a62.5,62.5,0,0,1,12.8,8L21.5,8.9A94.5,94.5,0,0,1,38.8,26.2l-1-1.3A47.7,47.7,0,0,1,44,35.3l-.7-1.5a45.2,45.2,0,0,1,3.1,11.3l-.2-1.6a39.4,39.4,0,0,1,0,9.7l.2-1.6a26.2,26.2,0,0,1-1.9,7.3l.6-1.3a24.3,24.3,0,0,1-2,3.5l.8-1.1a10,10,0,0,1-2.3,2.3l1.1-.8A20,20,0,0,1,39,63.7l1.2-.5a26.4,26.4,0,0,1-5.7,1.4l1.2-.2a15.1,15.1,0,0,1-3.7.1l1.1.2-2.9-.3h.9l-1.2-.2h-.2c.3,0,.3.1.1,0h-.4l-1.6-.5-.7-.3h-.4l-1.5-.9a2.2,2.2,0,0,0-2.7.6,2.3,2.3,0,0,0,.1,2.8Z" transform="translate(7.8 13.7)"/></g></g><path d="M22.7,4.3A20.1,20.1,0,0,0,16,1.4,13.2,13.2,0,0,0,9.6,2.7,11,11,0,0,0,7,1.2,11.4,11.4,0,0,0,3.7.5H2.1C1.5.7.8.9.6,1.5A.8.8,0,0,0,.9,2.6h0a1.8,1.8,0,0,0,1.3.2H3.6a12.6,12.6,0,0,1,2.7.4l1.6.7c-.1.1-.2.2-.2.3-1.6,2.3-2.5,4.6-2,9.1a10.8,10.8,0,0,0,1.5,4.9,1.4,1.4,0,0,0,.8.7c.8.1,1.3-.9,1.4-1.7a40,40,0,0,0,0-4.9,11,11,0,0,0,2.7,3,4.6,4.6,0,0,0,2,.9,1.9,1.9,0,0,0,1.9-.6c.6-.8.3-1.9,0-2.8a24.9,24.9,0,0,0-2.7-5.1c3.4.7,7.3.5,9.6-2a1,1,0,0,0,.3-.9C23.2,4.6,22.9,4.4,22.7,4.3Z" transform="translate(7.8 13.7)" style="fill:#c3bf4f"/><path d="M23,3.8,19.3,1.9a15.6,15.6,0,0,0-3.7-1A12.6,12.6,0,0,0,9.3,2.3h.6A10.1,10.1,0,0,0,5,.1H2.2A2.7,2.7,0,0,0,.4.9c-1,1.2.1,2.4,1.4,2.4h3a9.4,9.4,0,0,1,2.8,1V3.6a11.8,11.8,0,0,0-2.4,7.9,13.7,13.7,0,0,0,1,5.7c.3.7.7,1.7,1.5,2a1.3,1.3,0,0,0,1.7-.4,4.8,4.8,0,0,0,.6-2.6,25.4,25.4,0,0,0,0-3.9l-1,.2A12.3,12.3,0,0,0,12.2,16c1.1.7,2.8,1.2,3.9.2s.6-2.9.1-4.2a24.2,24.2,0,0,0-2.4-4.5l-.6.7A13.4,13.4,0,0,0,20.1,8c1.4-.5,5.2-2.6,2.9-4.2a.5.5,0,1,0-.5.9c.5.4-.2.9-.5,1.1l-1,.8a9.7,9.7,0,0,1-2.4.8,12.5,12.5,0,0,1-5.1-.2c-.4,0-.9.4-.6.8a23.3,23.3,0,0,1,2,3.4c.4,1,1.4,2.7.8,3.7s-2.5.4-3.3-.2A12,12,0,0,1,9.8,12c-.2-.4-1-.3-.9.3s.1,2.2.1,3.4,0,2.4-.7,2.7-1.5-2-1.6-2.5a10.5,10.5,0,0,1-.5-3c-.3-2.9,0-6.2,2.1-8.6a.5.5,0,0,0-.1-.8A14.6,14.6,0,0,0,4.3,2.3H2c-.5.1-1.3-.2-.8-.8S2.5,1.1,3,1l2.3.2A8.4,8.4,0,0,1,9.2,3.1a.6.6,0,0,0,.6,0,11.7,11.7,0,0,1,5.8-1.2,12.6,12.6,0,0,1,3.3,1,20.2,20.2,0,0,1,3.6,1.8C23,5.1,23.5,4.2,23,3.8Z" transform="translate(7.8 13.7)" style="fill:#928e31"/></g></g></g></svg>