<svg xmlns="http://www.w3.org/2000/svg" xmlns:xlink="http://www.w3.org/1999/xlink" viewBox="0 0 456 231.6"><defs><clipPath id="clip-path"><polygon points="14.9 171.1 58.1 170.6 66.5 155.7 389.5 155.9 397.9 170.8 439.1 170.8 427.4 196.9 22.6 196.9 14.9 171.1" style="fill:none"/></clipPath><clipPath id="clip-path-2"><path d="M396.5,71.4h-51l-231.4.4H62.4L104.5,3.8h250Z" style="fill:none"/></clipPath><clipPath id="clip-path-3"><path d="M61.8,71.6H395.6L231.9,139.8Z" style="fill:none"/></clipPath></defs><g style="isolation:isolate"><g id="Layer_2" data-name="Layer 2"><g id="Layer_1-2" data-name="Layer 1"><polygon points="316.2 96.8 314.1 91.4 350.1 89.7 353 96.8 316.2 96.8" style="fill:#381701;opacity:0.30000000000000004;mix-blend-mode:multiply"/><path d="M399,112.8a3.8,3.8,0,0,1,3.3,3.7.9.9,0,0,1,.1.5l-.5,1.2a3.3,3.3,0,0,1,.4,1.5c.1.1.1.2.1.4l-5,12.4s-2.2,5.6-11.3,5.6H65.3c-9.1,0-11.3-5.6-11.3-5.6l-5-12.4c0-.2,0-.3.1-.4a3.8,3.8,0,0,1,.4-1.6L49,117a.9.9,0,0,1,.1-.5,3.8,3.8,0,0,1,3.3-3.7H399m0-3H52.2a7,7,0,0,0-6.1,6.3,3.4,3.4,0,0,0-.1.9,2.3,2.3,0,0,0,.3,1.1h0a3.6,3.6,0,0,0-.2,1,3.4,3.4,0,0,0-.1.9,2.3,2.3,0,0,0,.3,1.1l4.9,12.4c.1.3,3.1,7.4,14.1,7.5H386.1c11.1-.1,14-7.2,14.1-7.5l5-12.4a3.6,3.6,0,0,0,.2-1.1c0-.4-.1-.6-.1-.8a4.3,4.3,0,0,0-.2-1.1h.1a4.3,4.3,0,0,0,.2-1.1c0-.4-.1-.7-.1-.9a7,7,0,0,0-6.1-6.3Z" style="fill:#6a3417"/><path d="M402.3,116.5a3.8,3.8,0,0,0-3.3-3.7H52.4a3.8,3.8,0,0,0-3.3,3.7.9.9,0,0,0-.1.5l5,12.4s2.2,5.6,11.3,5.6H386.1c9.1,0,11.3-5.6,11.3-5.6l5-12.4A.9.9,0,0,0,402.3,116.5Z" style="fill:#622e16"/><path d="M402.3,119.7a4,4,0,0,0-3.3-3.8H52.4a4,4,0,0,0-3.3,3.8c-.1.1-.1.2-.1.4l5,12.4s2.2,5.6,11.3,5.6H386.1c9.1,0,11.3-5.6,11.3-5.6l5-12.4C402.4,119.9,402.4,119.8,402.3,119.7Z" style="fill:#944629;opacity:0.5;mix-blend-mode:multiply"/><path d="M402.3,119.7a4,4,0,0,0-3.3-3.8H52.4a4,4,0,0,0-3.3,3.8c-.1.1-.1.2-.1.4l5,12.4s2.2,5.6,11.3,5.6H386.1c9.1,0,11.3-5.6,11.3-5.6l5-12.4C402.4,119.9,402.4,119.8,402.3,119.7Z" style="fill:#924f28"/><path d="M115.6,127a1.9,1.9,0,0,1-2,1.9,1.9,1.9,0,0,1-1.9-1.9,2,2,0,1,1,3.9,0Z" style="fill:#75411a;mix-blend-mode:multiply"/><path d="M115.4,126.7a1.6,1.6,0,0,1-1.7,1.6,1.7,1.7,0,0,1-1.7-1.6,1.8,1.8,0,0,1,1.7-1.8A1.7,1.7,0,0,1,115.4,126.7Z" style="fill:#301300"/><path d="M114.1,126.5a.8.8,0,0,1-.8.9.9.9,0,0,1-.9-.9.8.8,0,0,1,.9-.8A.7.7,0,0,1,114.1,126.5Z" style="fill:#623a31;mix-blend-mode:screen"/><path d="M343,127a1.8,1.8,0,0,1-1.9,1.9,1.9,1.9,0,0,1-2-1.9,2,2,0,0,1,2-2A1.9,1.9,0,0,1,343,127Z" style="fill:#75411a;mix-blend-mode:multiply"/><path d="M342.8,126.7a1.6,1.6,0,0,1-1.6,1.6,1.6,1.6,0,0,1-1.7-1.6,1.7,1.7,0,1,1,3.3,0Z" style="fill:#301300"/><path d="M341.6,126.5a.9.9,0,1,1-1.8,0,.9.9,0,0,1,1.8,0Z" style="fill:#623a31;mix-blend-mode:screen"/><path d="M121.2,122.5s62-.8,69.6.8C190.8,123.3,133.3,124.5,121.2,122.5Z" style="fill:#924f28"/><path d="M238.2,121.9s72.5-.5,81.4.6C319.6,122.5,252.4,123.4,238.2,121.9Z" style="fill:#924f28"/><path d="M272.5,133s72.4-.6,81.4.6C353.9,133.6,286.6,134.5,272.5,133Z" style="fill:#924f28"/><path d="M111.9,130.6s32-.8,35.9.7C147.8,131.3,118.1,132.5,111.9,130.6Z" style="fill:#924f28"/><path d="M203,126.4s32-.8,35.9.8C238.9,127.2,209.2,128.3,203,126.4Z" style="fill:#924f28"/><path d="M292.7,127.2s25.2-.6,28.3.6C321,127.8,297.6,128.7,292.7,127.2Z" style="fill:#924f28"/><path d="M161.1,132.3s48.1-.5,53.9.5C215,132.8,170.5,133.5,161.1,132.3Z" style="fill:#924f28"/><path d="M402.3,119.7a4,4,0,0,0-3.3-3.8H52.4a4,4,0,0,0-3.3,3.8c-.1.1-.1.2-.1.4l5,12.4s2.2,5.6,11.3,5.6H386.1c9.1,0,11.3-5.6,11.3-5.6l5-12.4C402.4,119.9,402.4,119.8,402.3,119.7Z" style="fill:#99897c;opacity:0.7000000000000001;mix-blend-mode:multiply"/><path d="M402.3,119.7a4,4,0,0,0-3.3-3.8H366.3a69.2,69.2,0,0,0,2.5,8.9c.3.9-1.1,1.4-1.6.6-2-3.1-3.8-6.3-5.8-9.5H313.7c1.3,4.6,2.6,9.1,4.1,13.6,1,2.9,2.1,5.8,3.2,8.6h65.1c9.1,0,11.3-5.6,11.3-5.6l5-12.4C402.4,119.9,402.4,119.8,402.3,119.7Z" style="fill:#6c6120;opacity:0.5;mix-blend-mode:multiply"/><path d="M95.3,115.9a54.9,54.9,0,0,0-4.2,8.4c-.3.8-1.7.8-1.7-.2l.3-8.2H52.4a4,4,0,0,0-3.3,3.8c-.1.1-.1.2-.1.4l5,12.4s2.2,5.6,11.3,5.6H136c.8-2.4,1.5-4.9,2.4-7.3,1.9-5,4-9.9,5.8-14.9Z" style="fill:#6c6120;opacity:0.5;mix-blend-mode:multiply"/><path d="M124.9,58.7,69.4,194.5s-1.4,2.5,2.1,2.9h31.9a4.8,4.8,0,0,0,5.1-2.3L161,60.3Z" style="fill:#924f28"/><polygon points="158.8 65.8 161 60.3 124.9 58.7 122 65.8 158.8 65.8" style="fill:#381701;opacity:0.30000000000000004;mix-blend-mode:multiply"/><path d="M122.4,73.1s-14.2,35.3-15.4,40.2C107,113.3,118.2,87.1,122.4,73.1Z" style="fill:#9d4a2c"/><path d="M126,87.3s-7.8,20.1-8.5,23C117.5,110.3,124.2,96.4,126,87.3Z" style="fill:#924f28"/><path d="M132.7,74.4a83.5,83.5,0,0,0-2.8,7.9l1.5-3.4C131.9,77.4,132.3,75.9,132.7,74.4Z" style="fill:#924f28"/><path d="M142.7,93.6s-6,15.4-6.5,17.6C136.2,111.2,141.3,100.6,142.7,93.6Z" style="fill:#924f28"/><path d="M142.1,76.4s-5.1,13.2-5.6,15.1C136.5,91.5,140.9,82.4,142.1,76.4Z" style="fill:#9d4a2c"/><path d="M129.7,103.8a56.5,56.5,0,0,0-2.9,8.8s1.2-2.5,2.6-5.8Z" style="fill:#9d4a2c"/><path d="M91.4,160.9s-11,27.5-11.9,31.3C79.5,192.2,88.2,171.8,91.4,160.9Z" style="fill:#9d4a2c"/><path d="M90.7,178.5s-5.1,12.8-5.6,14.6C85.1,193.1,89.5,184.4,90.7,178.5Z" style="fill:#924f28"/><path d="M97.9,167.8c-1.1,2.7-2,5.4-2.2,6.1l1.2-2.6C97.3,170.1,97.6,168.9,97.9,167.8Z" style="fill:#924f28"/><path d="M110.4,175.6s-4.7,12-5.1,13.7C105.3,189.3,109.3,181.1,110.4,175.6Z" style="fill:#924f28"/><path d="M106.8,163.5s-4,10.2-4.4,11.7S105.8,168.2,106.8,163.5Z" style="fill:#9d4a2c"/><path d="M98.8,183.3a48.3,48.3,0,0,0-2.3,6.9s1-1.9,2.1-4.5A19.4,19.4,0,0,0,98.8,183.3Z" style="fill:#9d4a2c"/><path d="M124.9,58.7,69.4,194.5s-1.4,2.5,2.1,2.9h31.9a4.8,4.8,0,0,0,5.1-2.3L161,60.3Z" style="fill:#6c6120;opacity:0.7000000000000001;mix-blend-mode:multiply"/><path d="M330.6,58.7l55.6,135.8s1.4,2.5-2.1,2.9H352.2a4.9,4.9,0,0,1-5.2-2.3L294.6,60.3Z" style="fill:#924f28"/><polygon points="296.7 65.8 294.6 60.3 330.6 58.7 333.6 65.8 296.7 65.8" style="fill:#381701;opacity:0.30000000000000004;mix-blend-mode:multiply"/><path d="M333.2,73.1s14.1,35.3,15.4,40.2C348.6,113.3,337.4,87.1,333.2,73.1Z" style="fill:#9d4a2c"/><path d="M329.5,87.3s7.9,20.1,8.6,23C338.1,110.3,331.4,96.4,329.5,87.3Z" style="fill:#924f28"/><path d="M322.9,74.4c1.3,3.6,2.6,6.9,2.8,7.9s-.7-1.4-1.5-3.4S323.3,75.9,322.9,74.4Z" style="fill:#924f28"/><path d="M312.8,93.6s6,15.4,6.6,17.6C319.4,111.2,314.3,100.6,312.8,93.6Z" style="fill:#924f28"/><path d="M313.5,76.4s5.1,13.2,5.6,15.1C319.1,91.5,314.7,82.4,313.5,76.4Z" style="fill:#9d4a2c"/><path d="M325.9,103.8a70.3,70.3,0,0,1,2.9,8.8s-1.2-2.5-2.6-5.8A15.3,15.3,0,0,1,325.9,103.8Z" style="fill:#9d4a2c"/><path d="M364.1,160.9s11,27.5,12,31.3C376.1,192.2,367.4,171.8,364.1,160.9Z" style="fill:#9d4a2c"/><path d="M364.9,178.5s5.1,12.8,5.5,14.6C370.4,193.1,366.1,184.4,364.9,178.5Z" style="fill:#924f28"/><path d="M357.7,167.8c1,2.7,2,5.4,2.2,6.1l-1.2-2.6C358.3,170.1,358,168.9,357.7,167.8Z" style="fill:#924f28"/><path d="M345.2,175.6s4.6,12,5.1,13.7C350.3,189.3,346.3,181.1,345.2,175.6Z" style="fill:#924f28"/><path d="M348.8,163.5s4,10.2,4.3,11.7S349.7,168.2,348.8,163.5Z" style="fill:#9d4a2c"/><path d="M356.8,183.3a44.4,44.4,0,0,1,2.2,6.9s-.9-1.9-2-4.5A19.4,19.4,0,0,1,356.8,183.3Z" style="fill:#9d4a2c"/><path d="M330.6,58.7l55.6,135.8s1.4,2.5-2.1,2.9H352.2a4.9,4.9,0,0,1-5.2-2.3L294.6,60.3Z" style="fill:#6c6120;opacity:0.7000000000000001;mix-blend-mode:multiply"/><path d="M82.7,152.4,104.5,99l5-.2L102,120.1l7.6-18.2L95.5,139.2l3.8-16.8s-12.8,29.8-12.8,30.2S82.7,152.4,82.7,152.4Z" style="fill:#dd733a;opacity:0.4;mix-blend-mode:screen"/><path d="M56.5,172.6H4.8a3.3,3.3,0,0,1-2.1-1.2c-1.9-2.4-1-8.7-.9-10a2.5,2.5,0,0,1,.4-.7L48.6,107a7.3,7.3,0,0,1,5.6-2.6H87.4a31,31,0,0,0,1-3.6c.7-3.1,1-4.2,2.4-4.2h.7c2.7,1.3,2.3,7.8,1.4,13.1-.1.1-.1.3-.2.4L60.2,170.5h0a4.2,4.2,0,0,1-3.7,2Z" style="fill:#75411a"/><path d="M90.8,98.1h.1c2.2,1,.5,11.4.5,11.4L58.9,169.8a2.7,2.7,0,0,1-2.4,1.3H4.9c-2.9-.3-1.6-9.4-1.6-9.4L49.7,108a6,6,0,0,1,4.5-2.1H88.1c1,0,2.2-7.8,2.7-7.8m0-3c-2.6,0-3.1,2.2-3.9,5.3-.1.7-.4,1.7-.6,2.5H54.2a9,9,0,0,0-6.7,3.1h0L1.1,159.6a2.3,2.3,0,0,0-.7,1.5c-.4,2.4-1,8.3,1.2,11.1a4.2,4.2,0,0,0,3,1.8H56.5a5.7,5.7,0,0,0,4.9-2.7l.2-.2L94,110.9a1.4,1.4,0,0,0,.3-.9c2.2-12.6-1-14.1-2.2-14.6h0a2.8,2.8,0,0,0-1.3-.3Z" style="fill:#6a3417"/><path d="M56.5,164.1H4.4c-1.7-.2-2.3-1-2.5-1.7s1-3.2,1.8-3.9L48.5,98.6h.1a7.3,7.3,0,0,1,5.6-2.6H88.7c2.3,0,3.8.7,4.5,1.9a4.4,4.4,0,0,1-.5,4L60.2,162h0a4.2,4.2,0,0,1-3.7,2Z" style="fill:#ce894a"/><path d="M54.2,97.4H88.7c5.2,0,2.7,3.6,2.7,3.6L58.9,161.3a2.7,2.7,0,0,1-2.4,1.3H4.6c-3-.3.3-3.1.3-3.1L49.7,99.5a6,6,0,0,1,4.5-2.1m0-3h0a9,9,0,0,0-6.7,3l-.2.3L2.6,157.4c-1.2,1.1-2.8,3.1-2.1,5.4a4.1,4.1,0,0,0,3.8,2.7H56.5a5.5,5.5,0,0,0,4.9-2.7l.2-.2L94,102.6a5.5,5.5,0,0,0,.5-5.4c-.9-1.9-2.9-2.8-5.8-2.8H54.2Z" style="fill:#75411a"/><path d="M76,116.4s-4.9,7.3-6.7,12.2A40.4,40.4,0,0,0,76,116.4Z" style="fill:#cb7436"/><path d="M31.1,134.7a59.7,59.7,0,0,0-5,9.1A30.7,30.7,0,0,0,31.1,134.7Z" style="fill:#cb7436"/><path d="M399.5,172.6a4.1,4.1,0,0,1-3.6-2h-.1l-32.5-60.3c0-.1-.1-.3-.1-.4-.9-5.3-1.4-11.8,1.3-13.1h.7c1.4,0,1.7,1.1,2.4,4.2.3,1,.7,2.8,1,3.6h33.2a7.3,7.3,0,0,1,5.6,2.6l46.4,53.6a1.3,1.3,0,0,1,.4.7c.2,1.3,1,7.6-.9,10a2.8,2.8,0,0,1-2,1.2H399.5Z" style="fill:#75411a"/><path d="M365.2,98.1c.6,0,1.7,7.8,2.7,7.8h33.9a6,6,0,0,1,4.5,2.1l46.4,53.6s1.4,9.1-1.6,9.4H399.5a2.8,2.8,0,0,1-2.4-1.3l-32.4-60.3s-1.8-10.4.5-11.4h0m0-3h0a3.1,3.1,0,0,0-1.3.3h0c-1.2.5-4.4,2-2.2,14.6a2.4,2.4,0,0,0,.3.9l32.5,60.3c0,.1,0,.1.1.2a5.8,5.8,0,0,0,4.9,2.7h51.9a4.6,4.6,0,0,0,3.1-1.8c2.1-2.8,1.5-8.7,1.2-11.1a3,3,0,0,0-.7-1.5L408.6,106h-.1a8.8,8.8,0,0,0-6.7-3.1H369.7c-.2-.8-.5-1.8-.6-2.5-.8-3.1-1.3-5.3-3.9-5.3Z" style="fill:#6a3417"/><path d="M399.5,164.1a4.4,4.4,0,0,1-3.7-2h0l-32.4-60.2c-.3-.5-1.4-2.3-.5-4s2.1-1.9,4.4-1.9h34.5a7.3,7.3,0,0,1,5.6,2.6h.1l44.8,59.8c.8.7,2.3,2.3,1.8,3.9s-.8,1.5-2.5,1.7H399.5Z" style="fill:#ce894a"/><path d="M401.8,97.4a6,6,0,0,1,4.5,2.1l44.9,59.9s3.2,2.8.3,3.1h-52a2.8,2.8,0,0,1-2.4-1.3L364.7,101s-2.6-3.6,2.6-3.6h34.5m0-3H367.3c-2.9,0-4.8.9-5.8,2.8s.1,4.6.6,5.4l32.4,60.1c0,.1,0,.1.1.2a5.8,5.8,0,0,0,4.9,2.7h52.3a4,4,0,0,0,3.7-2.7c.8-2.3-.9-4.3-2.1-5.4L408.7,97.7l-.2-.3a9,9,0,0,0-6.7-3Z" style="fill:#75411a"/><path d="M380,116.4s4.9,7.3,6.7,12.2A40.4,40.4,0,0,1,380,116.4Z" style="fill:#cb7436"/><path d="M424.9,134.7s3.7,5.4,5,9.1A30.7,30.7,0,0,1,424.9,134.7Z" style="fill:#cb7436"/><path d="M85.4,230.1h-33a4,4,0,0,1-3.4-2,3.5,3.5,0,0,1,.1-3.1L104.6,89.2a1.5,1.5,0,0,1,1.4-1l36.1,1.7a1.5,1.5,0,0,1,1.2.7,1.5,1.5,0,0,1,.1,1.3L91,226.7c0,.1-.1.2-.1.3a6.2,6.2,0,0,1-5.5,3.1Z" style="fill:#924f28"/><path d="M106,89.7l36,1.7L89.6,226.2a4.7,4.7,0,0,1-4.2,2.4H52.6c-3.6-.5-2.1-2.9-2.1-2.9L106,89.7m0-3a3.2,3.2,0,0,0-2.8,1.9L47.8,224.3a4.8,4.8,0,0,0-.1,4.4c.5,1,1.7,2.4,4.5,2.8H85.4a7.7,7.7,0,0,0,6.8-3.9l.2-.4L144.8,92.5a2.8,2.8,0,0,0-.3-2.8,2.8,2.8,0,0,0-2.4-1.3l-36-1.7Z" style="fill:#6a3417"/><polygon points="79 160.7 65.2 189.6 103.8 189.6 116.9 160.7 79 160.7" style="fill:#673119;opacity:0.6000000000000001;mix-blend-mode:multiply"/><polygon points="139.9 96.8 142 91.4 106 89.7 103.1 96.8 139.9 96.8" style="fill:#381701;opacity:0.6000000000000001;mix-blend-mode:multiply"/><path d="M103.4,104.2S89.3,139.4,88,144.4C88,144.4,99.2,118.2,103.4,104.2Z" style="fill:#9d4a2c"/><path d="M107.1,118.4s-7.9,20.1-8.6,22.9C98.5,141.3,105.2,127.5,107.1,118.4Z" style="fill:#924f28"/><path d="M113.8,105.5c-1.4,3.5-2.6,6.9-2.8,7.8l1.5-3.3C112.9,108.5,113.4,107,113.8,105.5Z" style="fill:#924f28"/><path d="M123.8,124.7s-6,15.4-6.5,17.5C117.3,142.2,122.4,131.7,123.8,124.7Z" style="fill:#924f28"/><path d="M123.1,107.5s-5.1,13.1-5.5,15C117.6,122.5,121.9,113.5,123.1,107.5Z" style="fill:#9d4a2c"/><path d="M110.7,134.9a52.9,52.9,0,0,0-2.8,8.7s1.1-2.4,2.5-5.8A14.3,14.3,0,0,0,110.7,134.9Z" style="fill:#9d4a2c"/><path d="M72.5,192s-11,27.4-12,31.3C60.5,223.3,69.2,202.9,72.5,192Z" style="fill:#9d4a2c"/><path d="M71.8,209.6s-5.2,12.8-5.6,14.6C66.2,224.2,70.5,215.4,71.8,209.6Z" style="fill:#924f28"/><path d="M79,198.8a49.4,49.4,0,0,0-2.2,6.2l1.2-2.7C78.3,201.2,78.6,200,79,198.8Z" style="fill:#924f28"/><path d="M91.4,206.7s-4.6,12-5,13.7C86.4,220.4,90.3,212.2,91.4,206.7Z" style="fill:#924f28"/><path d="M87.9,194.5s-4.1,10.3-4.4,11.7S86.9,199.2,87.9,194.5Z" style="fill:#9d4a2c"/><path d="M79.8,214.4a67.1,67.1,0,0,0-2.2,6.8s.9-1.8,2-4.5A16.4,16.4,0,0,0,79.8,214.4Z" style="fill:#9d4a2c"/><path d="M370.6,230.1a6.4,6.4,0,0,1-5.5-3.1.4.4,0,0,0-.1-.3L312.7,91.9a1.2,1.2,0,0,1,.1-1.3,1.5,1.5,0,0,1,1.2-.7l36.1-1.7a1.4,1.4,0,0,1,1.3,1l55.5,135.7a3.8,3.8,0,0,1,.2,3.1,4.1,4.1,0,0,1-3.4,2H370.6Z" style="fill:#924f28"/><path d="M350.1,89.7l55.5,135.9s1.4,2.4-2.1,2.9H370.6a4.8,4.8,0,0,1-4.2-2.4L314.1,91.4l36-1.7m0-3h-.2l-36,1.7a2.9,2.9,0,0,0-2.6,4.1l52.3,134.8.3.4a7.5,7.5,0,0,0,6.7,3.9h33.3c2.8-.4,4-1.8,4.5-2.9a4.6,4.6,0,0,0-.1-4.3L352.8,88.6a2.9,2.9,0,0,0-2.7-1.9Z" style="fill:#6a3417"/><polygon points="353.5 98.1 350.1 89.7 314.1 91.4 316.6 98.1 353.5 98.1" style="fill:#381701;opacity:0.6000000000000001;mix-blend-mode:multiply"/><polygon points="377.1 160.7 390.9 189.6 352.2 189.6 339.1 160.7 377.1 160.7" style="fill:#673119;opacity:0.6000000000000001;mix-blend-mode:multiply"/><path d="M352.6,104.2s14.1,35.2,15.4,40.2C368,144.4,356.8,118.2,352.6,104.2Z" style="fill:#9d4a2c"/><path d="M349,118.4s7.8,20.1,8.5,22.9C357.5,141.3,350.8,127.5,349,118.4Z" style="fill:#924f28"/><path d="M342.3,105.5c1.3,3.5,2.6,6.9,2.8,7.8l-1.6-3.3Z" style="fill:#924f28"/><path d="M332.3,124.7s6,15.4,6.5,17.5C338.8,142.2,333.7,131.7,332.3,124.7Z" style="fill:#924f28"/><path d="M332.9,107.5s5.1,13.1,5.6,15C338.5,122.5,334.1,113.5,332.9,107.5Z" style="fill:#9d4a2c"/><path d="M345.3,134.9a70.5,70.5,0,0,1,2.9,8.7s-1.2-2.4-2.6-5.8A28.5,28.5,0,0,1,345.3,134.9Z" style="fill:#9d4a2c"/><path d="M383.5,192s11.1,27.4,12,31.3C395.5,223.3,386.8,202.9,383.5,192Z" style="fill:#9d4a2c"/><path d="M384.3,209.6s5.1,12.8,5.5,14.6C389.8,224.2,385.5,215.4,384.3,209.6Z" style="fill:#924f28"/><path d="M377.1,198.8c1,2.8,2,5.4,2.2,6.2l-1.2-2.7A35.7,35.7,0,0,1,377.1,198.8Z" style="fill:#924f28"/><path d="M364.6,206.7s4.7,12,5.1,13.7C369.7,220.4,365.7,212.2,364.6,206.7Z" style="fill:#924f28"/><path d="M368.2,194.5s4,10.3,4.4,11.7S369.1,199.2,368.2,194.5Z" style="fill:#9d4a2c"/><path d="M376.2,214.4a37.4,37.4,0,0,1,2.2,6.8s-.9-1.8-2-4.5A16.4,16.4,0,0,1,376.2,214.4Z" style="fill:#9d4a2c"/><g style="clip-path:url(#clip-path)"><path d="M437,161.4c-.5-4.2-4-4.5-4-4.5H18.4s-3.5.3-4,4.5v.5l5.9,14.8s2.6,6.7,13.5,6.8H417.6c10.9-.1,13.5-6.8,13.5-6.8l6-14.8A4.3,4.3,0,0,0,437,161.4Z" style="fill:#622e16"/><path d="M33.8,188.7c-11.8-.1-14.7-7.4-14.9-7.7L13,166.2a1.3,1.3,0,0,1-.1-.6v-.8a6.1,6.1,0,0,1,5.4-5.6H433.2c1.6.1,4.7,1.5,5.3,5.7v.2a1.1,1.1,0,0,1,.1.5c0,.2-.1.4-.1.6l-6,14.8c-.1.3-3.1,7.6-14.9,7.7H33.8Z" style="fill:#924f28"/><path d="M433,160.7s3.5.2,4,4.4c0,.2.1.3.1.5l-6,14.9s-2.6,6.6-13.5,6.7H33.8c-10.9-.1-13.5-6.7-13.5-6.7l-5.9-14.9v-.5c.5-4.2,4-4.4,4-4.4H433m0-3H18.2c-2.1.1-6,1.8-6.8,6.9v1a2,2,0,0,0,.2,1.1l6,14.9h0c.3.8,3.7,8.5,16.2,8.6H417.6c12.5-.1,16-7.8,16.3-8.6h0l6-14.9a3.6,3.6,0,0,0,.2-1.1,3.5,3.5,0,0,0-.1-.6v-.3c-.7-5.2-4.7-6.9-6.7-7Z" style="fill:#6a3417"/><path d="M94,173.9a2.4,2.4,0,0,1-4.7,0,2.4,2.4,0,1,1,4.7,0Z" style="fill:#75411a;mix-blend-mode:multiply"/><path d="M93.8,173.5a2,2,0,0,1-2,2,2,2,0,0,1-2.1-2,2.1,2.1,0,0,1,2.1-2.1A2,2,0,0,1,93.8,173.5Z" style="fill:#301300"/><path d="M92.3,173.3a1.1,1.1,0,0,1-1.1,1.1,1,1,0,0,1-1-1.1.9.9,0,0,1,1-1A1,1,0,0,1,92.3,173.3Z" style="fill:#623a31;mix-blend-mode:screen"/><path d="M366.1,173.9a2.3,2.3,0,0,1-2.4,2.3,2.3,2.3,0,0,1-2.3-2.3,2.3,2.3,0,0,1,2.3-2.4A2.4,2.4,0,0,1,366.1,173.9Z" style="fill:#75411a;mix-blend-mode:multiply"/><path d="M365.8,173.5a2,2,0,0,1-4,0,2,2,0,1,1,4,0Z" style="fill:#301300"/><path d="M364.4,173.3a1.1,1.1,0,1,1-2.2,0,1.1,1.1,0,0,1,2.2,0Z" style="fill:#623a31;mix-blend-mode:screen"/><path d="M59.6,176.6c2.4-5.3,5-10.6,7.5-15.9H18.4s-3.5.2-4,4.4v.5l4.4,11Z" style="fill:#924f28;opacity:0.5;mix-blend-mode:multiply"/><path d="M432.6,176.6l4.5-11c0-.2-.1-.3-.1-.5-.5-4.2-4-4.4-4-4.4H387.9c2.8,5.2,5.5,10.6,8.2,15.9Z" style="fill:#924f28;opacity:0.5;mix-blend-mode:multiply"/></g><path d="M84.4,97.2a1.5,1.5,0,0,1-1.5-1.5V80.6H61.2a1.5,1.5,0,0,1-1.5-1.5V72.5A1.5,1.5,0,0,1,61.2,71H82.9V62.2a1.5,1.5,0,0,1,1.5-1.5H373.9a1.5,1.5,0,0,1,1.5,1.5V71h21.7a1.5,1.5,0,0,1,1.5,1.5v6.6a1.5,1.5,0,0,1-1.5,1.5H375.4V95.7a1.5,1.5,0,0,1-1.5,1.5Z" style="fill:#a8662f"/><path d="M373.9,62.2V72.5h23.2v6.6H373.9V95.7H84.4V79.1H61.2V72.5H84.4V62.2H373.9m0-3H84.4a3,3,0,0,0-3,3v7.3H61.2a3,3,0,0,0-3,3v6.6a3,3,0,0,0,3,3H81.4V95.7a3,3,0,0,0,3,3H373.9a2.9,2.9,0,0,0,3-3V82.1h20.2a2.9,2.9,0,0,0,3-3V72.5a2.9,2.9,0,0,0-3-3H376.9V62.2a2.9,2.9,0,0,0-3-3Z" style="fill:#75411a"/><rect x="84.4" y="79.1" width="289.5" height="2.95" style="fill:#7b3b20;mix-blend-mode:multiply"/><g style="opacity:0.4"><rect x="112.2" y="72.5" width="1.4" height="6.68" style="fill:#592912;mix-blend-mode:multiply"/><rect x="169.1" y="72.5" width="1.7" height="6.68" style="fill:#592912;mix-blend-mode:multiply"/><rect x="225.3" y="72.5" width="2" height="6.68" style="fill:#592912;mix-blend-mode:multiply"/><rect x="290.2" y="72.5" width="2.3" height="6.68" style="fill:#592912;mix-blend-mode:multiply"/><rect x="348.6" y="72.5" width="3.9" height="6.68" style="fill:#592912;mix-blend-mode:multiply"/></g><path d="M61.2,74a1.6,1.6,0,0,1-1.3-.8,1.6,1.6,0,0,1,.1-1.5L102.3,2.2a1.7,1.7,0,0,1,1.3-.7H354.7a1.7,1.7,0,0,1,1.3.7l42.4,69.5a1.4,1.4,0,0,1,0,1.5,1.6,1.6,0,0,1-1.3.8Z" style="fill:#d8a960"/><path d="M354.7,3l42.4,69.5H61.2L103.6,3H354.7m0-3H103.6A3,3,0,0,0,101,1.4L58.7,70.9a2.9,2.9,0,0,0-.1,3,2.9,2.9,0,0,0,2.6,1.6H397.1a2.9,2.9,0,0,0,2.6-1.6,3.2,3.2,0,0,0,0-3L357.3,1.4A3,3,0,0,0,354.7,0Z" style="fill:#924f28"/><path d="M130.7,91.2H336.4S167.4,93.8,130.7,91.2Z" style="fill:#a8662f"/><path d="M123.9,88.2a2.3,2.3,0,1,1-4.6,0,2.3,2.3,0,1,1,4.6,0Z" style="fill:#7b3b20;mix-blend-mode:multiply"/><path d="M123.7,87.8a2,2,0,1,1-2-2A2,2,0,0,1,123.7,87.8Z" style="fill:#301300"/><path d="M122.2,87.6a1,1,0,0,1-1.1,1.1,1.1,1.1,0,0,1-1-1.1,1.1,1.1,0,0,1,1-1A1,1,0,0,1,122.2,87.6Z" style="fill:#623a31;mix-blend-mode:screen"/><path d="M334.4,88.2a2.3,2.3,0,0,1-2.3,2.3,2.3,2.3,0,0,1-2.4-2.3,2.4,2.4,0,0,1,2.4-2.4A2.3,2.3,0,0,1,334.4,88.2Z" style="fill:#7b3b20;mix-blend-mode:multiply"/><path d="M334.2,87.8a2,2,0,1,1-2-2A2,2,0,0,1,334.2,87.8Z" style="fill:#301300"/><path d="M332.7,87.6a1.1,1.1,0,0,1-1.1,1.1,1.1,1.1,0,0,1-1-1.1,1.1,1.1,0,0,1,1-1A1.1,1.1,0,0,1,332.7,87.6Z" style="fill:#623a31;mix-blend-mode:screen"/><g style="clip-path:url(#clip-path-2)"><polygon points="354.5 3.8 321.6 3.8 137.7 3.8 104.5 3.8 62.4 71.9 114.1 71.8 345.5 71.4 396.5 71.4 354.5 3.8" style="fill:#f99db6"/><polygon points="73.5 53.9 385.4 53.6 382.9 49.6 76 49.9 73.5 53.9" style="fill:#f2f2f2"/><polygon points="78.5 45.8 380.4 45.5 377.9 41.4 81.1 41.6 78.5 45.8" style="fill:#f2f2f2"/><polygon points="63.8 69.6 395.1 69.1 392.7 65.3 66.2 65.7 63.8 69.6" style="fill:#f2f2f2"/><polygon points="68.6 61.8 390.3 61.4 387.9 57.5 71 57.9 68.6 61.8" style="fill:#f2f2f2"/><polygon points="356.2 6.4 102.8 6.4 100 11.1 359 11 356.2 6.4" style="fill:#f2f2f2"/><polygon points="94.4 20.1 364.6 20 361.8 15.5 97.2 15.6 94.4 20.1" style="fill:#f2f2f2"/><polygon points="83.7 37.4 375.3 37.2 372.7 33 86.3 33.2 83.7 37.4" style="fill:#f2f2f2"/><polygon points="89 28.9 370 28.7 367.3 24.4 91.7 24.5 89 28.9" style="fill:#f2f2f2"/><g style="mix-blend-mode:multiply"><polygon points="109.2 76.1 144.8 1.3 138.7 1.3 100.7 76.1 109.2 76.1" style="fill:#f99db6"/><polygon points="126.5 76 157.1 1.3 150.9 1.3 117.8 76.1 126.5 76" style="fill:#f99db6"/><polygon points="76 76.1 121 1.3 115.3 1.3 68 76.1 76 76.1" style="fill:#f99db6"/><polygon points="92.4 76.1 132.7 1.3 126.9 1.3 84.2 76.1 92.4 76.1" style="fill:#f99db6"/><polygon points="200.8 75.9 210.4 1.3 203.4 1.3 191 75.9 200.8 75.9" style="fill:#f99db6"/><polygon points="181.4 76 196.5 1.3 189.7 1.3 171.9 76 181.4 76" style="fill:#f99db6"/><polygon points="144.2 76 169.9 1.3 163.5 1.3 135.3 76 144.2 76" style="fill:#f99db6"/><polygon points="162.6 76 183 1.3 176.4 1.3 153.3 76 162.6 76" style="fill:#f99db6"/><polygon points="252.3 75.8 247.3 1.4 241.3 1.4 243.9 75.9 252.3 75.8" style="fill:#f99db6"/><polygon points="269.4 75.8 259.6 1.4 253.4 1.4 260.8 75.8 269.4 75.8" style="fill:#f99db6"/><polygon points="219.4 75.9 223.7 1.4 218 1.4 211.4 75.9 219.4 75.9" style="fill:#f99db6"/><polygon points="235.6 75.9 235.4 1.4 229.5 1.4 227.4 75.9 235.6 75.9" style="fill:#f99db6"/><polygon points="343.2 75.7 312.6 1.4 305.7 1.4 333.5 75.7 343.2 75.7" style="fill:#f99db6"/><polygon points="324 75.7 298.8 1.4 292 1.4 314.5 75.7 324 75.7" style="fill:#f99db6"/><polygon points="287.1 75.8 272.3 1.4 265.9 1.4 278.2 75.8 287.1 75.8" style="fill:#f99db6"/><polygon points="305.2 75.8 285.4 1.4 278.8 1.4 296.1 75.8 305.2 75.8" style="fill:#f99db6"/><polygon points="391.6 75.6 347.4 1.4 341.4 1.4 383.3 75.6 391.6 75.6" style="fill:#f99db6"/><polygon points="358.9 75.7 323.9 1.4 318.3 1.4 351 75.7 358.9 75.7" style="fill:#f99db6"/><polygon points="375 75.7 335.5 1.4 329.7 1.4 366.9 75.7 375 75.7" style="fill:#f99db6"/></g></g><g style="clip-path:url(#clip-path-3)"><polygon points="395.6 71.6 351.7 71.6 106.2 71.6 61.8 71.6 61.9 139.7 113.5 139.6 345.1 139.4 396.3 139.3 395.6 71.6" style="fill:#ca7f93"/><polygon points="61.9 125.3 396.1 125 396.1 121.5 61.9 121.8 61.9 125.3" style="fill:#c4c4c4"/><polygon points="61.9 118.1 396.1 117.8 396 114 61.9 114.2 61.9 118.1" style="fill:#c4c4c4"/><polygon points="61.9 138 396.3 137.6 396.2 134.6 61.9 135 61.9 138" style="fill:#c4c4c4"/><polygon points="61.9 131.9 396.2 131.6 396.2 128.3 61.9 128.7 61.9 131.9" style="fill:#c4c4c4"/><polygon points="395.6 75.1 61.8 75.1 61.8 81 395.7 80.9 395.6 75.1" style="fill:#c4c4c4"/><polygon points="61.9 91.7 395.8 91.6 395.8 86.4 61.8 86.5 61.9 91.7" style="fill:#c4c4c4"/><polygon points="61.9 110.2 396 109.9 395.9 105.7 61.9 105.9 61.9 110.2" style="fill:#c4c4c4"/><polygon points="61.9 101.4 395.9 101.3 395.8 96.6 61.9 96.7 61.9 101.4" style="fill:#c4c4c4"/><g style="mix-blend-mode:multiply"><polygon points="110.5 142.8 114.2 68.3 106 68.3 102.2 142.8 110.5 142.8" style="fill:#ca7f93"/><polygon points="127.5 142.8 130.9 68.3 122.5 68.3 119 142.8 127.5 142.8" style="fill:#ca7f93"/><polygon points="77.9 142.8 82.1 68.3 74.4 68.3 70.1 142.8 77.9 142.8" style="fill:#ca7f93"/><polygon points="94 142.8 97.9 68.3 90 68.3 85.9 142.8 94 142.8" style="fill:#ca7f93"/><polygon points="200.8 142.7 202.9 68.3 193.4 68.3 191.1 142.7 200.8 142.7" style="fill:#ca7f93"/><polygon points="181.6 142.7 184.1 68.3 174.9 68.3 172.3 142.7 181.6 142.7" style="fill:#ca7f93"/><polygon points="145.1 142.8 148.1 68.3 139.5 68.3 136.2 142.8 145.1 142.8" style="fill:#ca7f93"/><polygon points="163.1 142.7 165.9 68.3 156.9 68.3 154 142.7 163.1 142.7" style="fill:#ca7f93"/><polygon points="251.5 142.6 252.8 68.3 244.6 68.3 243.2 142.6 251.5 142.6" style="fill:#ca7f93"/><polygon points="268.4 142.6 269.4 68.3 261 68.3 259.8 142.6 268.4 142.6" style="fill:#ca7f93"/><polygon points="219 142.7 220.9 68.3 213.2 68.3 211.2 142.7 219 142.7" style="fill:#ca7f93"/><polygon points="235 142.6 236.6 68.3 228.7 68.3 227 142.7 235 142.6" style="fill:#ca7f93"/><polygon points="341.2 142.5 341 68.4 331.6 68.4 331.6 142.5 341.2 142.5" style="fill:#ca7f93"/><polygon points="322.1 142.5 322.3 68.4 313.2 68.4 312.8 142.6 322.1 142.5" style="fill:#ca7f93"/><polygon points="285.8 142.6 286.5 68.4 277.9 68.4 277 142.6 285.8 142.6" style="fill:#ca7f93"/><polygon points="303.7 142.6 304.1 68.4 295.3 68.4 294.7 142.6 303.7 142.6" style="fill:#ca7f93"/><polygon points="388.9 142.5 387.9 68.4 379.8 68.4 380.7 142.5 388.9 142.5" style="fill:#ca7f93"/><polygon points="356.7 142.5 356.2 68.4 348.6 68.4 348.9 142.5 356.7 142.5" style="fill:#ca7f93"/><polygon points="372.5 142.5 371.9 68.4 364 68.4 364.5 142.5 372.5 142.5" style="fill:#ca7f93"/></g></g><path d="M395.6,71.6,231.9,139.8,61.8,71.6H395.6m0-3H61.8A2.9,2.9,0,0,0,58.9,71a3,3,0,0,0,1.8,3.4l170.1,68.1,1.1.3,1.2-.3L396.8,74.4a3,3,0,0,0,1.7-3.4,2.9,2.9,0,0,0-2.9-2.4Zm0,6Z" style="fill:#ec7670"/><path d="M137.7,3.8H354.5l42,67.6-.9.2L231.9,139.8,62.4,71.9h0l-.6-.3h.8L104.5,3.8h33.2m0-3H104.5a3,3,0,0,0-2.6,1.4L60.8,68.8A2.8,2.8,0,0,0,58.9,71a3,3,0,0,0,1.8,3.4l.4.2h.4l169.3,67.8,1.1.3,1.2-.3L396.6,74.4l.7-.2a3,3,0,0,0,2-1.8,3,3,0,0,0-.3-2.6L357.1,2.2A3,3,0,0,0,354.5.8H137.7Z" style="fill:#ec7670"/></g></g></g></svg>