<svg xmlns="http://www.w3.org/2000/svg" viewBox="0 0 96.1 72"><g id="Layer_2" data-name="Layer 2"><g id="Layer_1-2" data-name="Layer 1"><path d="M84.9,36.7c-5,0-7.8-1.7-9.2-3.2a10.5,10.5,0,0,1-5.6-2.2,22.2,22.2,0,0,1-4.6-4.2,20.6,20.6,0,0,1-3.2-4.7h-1A15.4,15.4,0,0,1,53.4,20a14.2,14.2,0,0,0-6.9-2.2,7.4,7.4,0,0,0-3.4.8,7,7,0,0,0-2.8,2.3,8.3,8.3,0,0,0-1.4,3.5A8.5,8.5,0,0,0,42,32.1a1.1,1.1,0,0,1,.1,1.4.9.9,0,0,1-.8.4l-.7-.2a10.3,10.3,0,0,1-3.7-9.6,9.9,9.9,0,0,1,1.7-4.4,9.5,9.5,0,0,1,3.6-3,10,10,0,0,1,4.3-.9,16.3,16.3,0,0,1,8,2.4,12.9,12.9,0,0,0,6.8,2.2h.4a6.1,6.1,0,0,1-.1-1.9,5.9,5.9,0,0,1,.9-3,4.8,4.8,0,0,1,2-2l1.2-.2h.2a3.4,3.4,0,0,1,3.1,2,4.1,4.1,0,0,1-.4,3.2A6.3,6.3,0,0,1,66,21.3l-1.6.7a16.8,16.8,0,0,0,2.7,3.8,20.9,20.9,0,0,0,4.2,3.8A9.5,9.5,0,0,0,73.9,31a8.6,8.6,0,0,1-.6-2.3,7.1,7.1,0,0,1,.9-4.1,5.6,5.6,0,0,1,5.1-3h.9a3.7,3.7,0,0,1,3.4,3.2,6.6,6.6,0,0,1-.5,4.1A8.1,8.1,0,0,1,80,32.5l-1.4.7a12.6,12.6,0,0,0,6.2,1.4,21.2,21.2,0,0,0,4.2-.4h.2a1.1,1.1,0,0,1,1,.9,1.1,1.1,0,0,1-.8,1.2A37.5,37.5,0,0,1,84.9,36.7Zm-5.6-13A3.6,3.6,0,0,0,76,25.6a4.6,4.6,0,0,0-.6,2.9,5.3,5.3,0,0,0,1.2,2.9,5.5,5.5,0,0,0,2.4-.7,6.7,6.7,0,0,0,2.2-2.5,5,5,0,0,0,.4-2.9,1.9,1.9,0,0,0-1.7-1.6ZM65.7,15.3h-.4a2.7,2.7,0,0,0-1,1.1,3.7,3.7,0,0,0-.6,2.1,3.3,3.3,0,0,0,0,1.4l1.3-.5a5.4,5.4,0,0,0,1.8-1.9A1.9,1.9,0,0,0,67,16c-.2-.5-.8-.6-1.2-.7v0Z" style="fill:#6c6120;fill-rule:evenodd"/><path d="M65.7,13.8h.2a2.6,2.6,0,0,1,2.6,1.7,3.5,3.5,0,0,1-.3,2.8,6.4,6.4,0,0,1-2.4,2.5,6.7,6.7,0,0,1-2.1.9h0a19.1,19.1,0,0,0,3,4.4A19.2,19.2,0,0,0,71,30a9.6,9.6,0,0,0,3.9,1.8,7.6,7.6,0,0,1-1.1-3.2,7.1,7.1,0,0,1,.8-3.8,5.2,5.2,0,0,1,4.7-2.7h.8A3.3,3.3,0,0,1,83.2,25h0a6.5,6.5,0,0,1-.6,3.8,7.4,7.4,0,0,1-2.8,3.3,6.2,6.2,0,0,1-2.4.8,11.4,11.4,0,0,0,7.4,2.2,22.9,22.9,0,0,0,4.3-.4h.1c.2,0,.5.2.5.4a.6.6,0,0,1-.4.7,37.7,37.7,0,0,1-4.4.4c-4.3,0-7.3-1.3-9-3.2a10.9,10.9,0,0,1-5.5-2.1,24.2,24.2,0,0,1-4.5-4.1,17.7,17.7,0,0,1-3.1-4.6l-.2-.3H61.3a15.4,15.4,0,0,1-7.6-2.4,14.3,14.3,0,0,0-7.2-2.3,8,8,0,0,0-3.6.8,7,7,0,0,0-3,2.6,7.7,7.7,0,0,0-1.5,3.6,9.2,9.2,0,0,0,3.2,8.2.4.4,0,0,1,.1.7l-.4.2h-.4a10.1,10.1,0,0,1-3.5-9.2A9,9,0,0,1,39,20a8.8,8.8,0,0,1,3.4-2.9,10.7,10.7,0,0,1,4.1-.8,15.1,15.1,0,0,1,7.7,2.4,14.6,14.6,0,0,0,7.1,2.2h1a6.5,6.5,0,0,1-.2-2.4,5.4,5.4,0,0,1,.8-2.8A4.2,4.2,0,0,1,64.7,14a1.8,1.8,0,0,1,1-.2m-2.3,6.9a7.5,7.5,0,0,0,1.8-.8,4.4,4.4,0,0,0,2-2.1,2.3,2.3,0,0,0,.3-1.9,1.8,1.8,0,0,0-1.7-1.1h-.1l-.6.2a2.7,2.7,0,0,0-1.3,1.3,5.2,5.2,0,0,0-.6,2.3,5,5,0,0,0,.2,2.1M76.4,32a6.2,6.2,0,0,0,2.8-.9,5.7,5.7,0,0,0,2.4-2.7,5.3,5.3,0,0,0,.5-3.2h0a2.4,2.4,0,0,0-2.1-2h-.7a4.5,4.5,0,0,0-3.8,2.1,5.9,5.9,0,0,0-.6,3.2,6.4,6.4,0,0,0,1.4,3.4h.1M65.7,12.8a3.5,3.5,0,0,0-1.4.3A5.1,5.1,0,0,0,62,15.2a7.4,7.4,0,0,0-.9,3.3,6.5,6.5,0,0,0,0,1.4,13.7,13.7,0,0,1-6.4-2.1,15.9,15.9,0,0,0-8.2-2.5,11,11,0,0,0-4.5.9,10.1,10.1,0,0,0-3.8,3.3A9.3,9.3,0,0,0,36.4,24a10.8,10.8,0,0,0,3.9,10,1.3,1.3,0,0,0,1,.4,1.8,1.8,0,0,0,1.2-.5,1.7,1.7,0,0,0-.2-2.2,8,8,0,0,1-2.9-7.3,8,8,0,0,1,1.3-3.2A7,7,0,0,1,43.3,19a7.9,7.9,0,0,1,3.2-.7,13.9,13.9,0,0,1,6.7,2.2A16.8,16.8,0,0,0,61.3,23H62a26.1,26.1,0,0,0,3.1,4.5,30.6,30.6,0,0,0,4.7,4.3A12.4,12.4,0,0,0,75.4,34c1.6,1.5,4.5,3.2,9.5,3.2a37.5,37.5,0,0,0,4.5-.4A1.6,1.6,0,0,0,90.7,35a1.5,1.5,0,0,0-1.5-1.3h-.3a19.6,19.6,0,0,1-4.1.4,12.8,12.8,0,0,1-5-.9l.5-.3a7.8,7.8,0,0,0,3.2-3.7,6.8,6.8,0,0,0,.6-4.4h0a4.1,4.1,0,0,0-3.8-3.5h-1a6.4,6.4,0,0,0-5.6,3.2,8.3,8.3,0,0,0-.9,4.4l.3,1.4a6,6,0,0,1-1.5-.9,20.9,20.9,0,0,1-4.2-3.8,20.6,20.6,0,0,1-2.3-3.1l1.2-.6a7.8,7.8,0,0,0,2.8-2.9,4.6,4.6,0,0,0,.3-3.6,3.5,3.5,0,0,0-3.5-2.4Zm-1.5,6.5a1.3,1.3,0,0,1-.1-.6,5.3,5.3,0,0,1,.6-1.9,1.5,1.5,0,0,1,.8-.9h.2c.3.1.8.1.9.4a2.5,2.5,0,0,1-.3,1.2A4.1,4.1,0,0,1,64.7,19l-.5.3ZM76.8,30.9a5.4,5.4,0,0,1-.9-2.5,4.7,4.7,0,0,1,.5-2.6,3.2,3.2,0,0,1,2.9-1.6h.6a1.3,1.3,0,0,1,1.2,1.2h0a4.1,4.1,0,0,1-.4,2.6,5.6,5.6,0,0,1-2,2.3,6,6,0,0,1-1.9.6Z" style="fill:#514718"/><path d="M82.1,57.5a1.8,1.8,0,0,1-1-.4c-3-2.4-4.3-6.6-4.9-9.8-3.8,4.9-7,5.3-8,5.3H68a1.4,1.4,0,0,1-1.2-.9c-1.9-4.4.9-9,3.3-11.9-4.7-.3-5.6-3-5.7-3.3a1.4,1.4,0,0,1,.5-1.6,11,11,0,0,1,6.9-2.2,14.7,14.7,0,0,1,5.2.9l1.1-.5c3.2-1.3,5.9-2.5,8.1-2.5a4.4,4.4,0,0,1,3.2,1.3,1.4,1.4,0,0,1,.3,1.5,5.3,5.3,0,0,1-2.7,3c5.5,2.8,7.4,6.6,7.5,6.8a1.3,1.3,0,0,1,0,1.2,1.1,1.1,0,0,1-.7.8A8.4,8.4,0,0,1,90,46h0a10.9,10.9,0,0,1-4.2-.9c1.9,6.8-.1,10.7-3.1,12.2Z" style="fill:#90822e;fill-rule:evenodd"/><path d="M86.2,32.1a2.7,2.7,0,0,1,2.1.9c-.8,2.4-5.4,3.3-5.4,3.3,7.8,2.6,10.2,7.6,10.2,7.6a9,9,0,0,1-3.1.6,10.3,10.3,0,0,1-7.2-3.4c3.9,8.6,2.2,13.4-.7,14.9-4.8-3.8-4.9-13-4.9-13-4.5,7.9-8.5,8.1-9,8.1h0c-2.6-5.9,5.6-13,5.6-13l-2.9.2c-4.5,0-5.1-2.2-5.1-2.2a9.7,9.7,0,0,1,6-1.9,14.4,14.4,0,0,1,5.2,1c3.8-1.5,6.9-3.1,9.2-3.1m0-3c-2.5,0-5.4,1.2-8.6,2.6L77,32a17.2,17.2,0,0,0-5.2-.8A12.3,12.3,0,0,0,64,33.7a3.1,3.1,0,0,0-1.1,3.2,6.2,6.2,0,0,0,4.5,3.9c-2.1,3.2-3.8,7.4-2,11.5a3,3,0,0,0,2.5,1.8h.3c1,0,3.8-.3,7.2-3.6a15.3,15.3,0,0,0,4.8,7.8,3.4,3.4,0,0,0,1.9.7,3.3,3.3,0,0,0,1.3-.4c3.1-1.5,5.4-5.2,4.5-11.3a8.2,8.2,0,0,0,2.1.2,11.2,11.2,0,0,0,4.4-.9,2.9,2.9,0,0,0,1.4-4.1,18.7,18.7,0,0,0-6.1-6.3,7.6,7.6,0,0,0,1.5-2.3,3,3,0,0,0-.7-3,5.8,5.8,0,0,0-4.3-1.8Z" style="fill:#6c6120"/><path d="M82.6,52.9a.2.2,0,0,0,.2.2.3.3,0,0,0,.3-.3s-.5-8.3-7-19.9h-.3a.4.4,0,0,0-.2.4C82,44.6,82.6,52.8,82.6,52.9Z" style="fill:#6c6120;fill-rule:evenodd"/><path d="M70.6,47.7c0,.1,0,.3.1.3s.3.1.4-.1L77.8,37l12.3,6c.2.1.3.1.4-.1a.2.2,0,0,0-.1-.3L77.9,36.4c-.2-.1-.3,0-.4.1Z" style="fill:#6c6120;fill-rule:evenodd"/><path d="M69,36.2c-.2,0-.3.1-.3.2a.3.3,0,0,0,.3.3l8.7.2h.1l7.3-2.7c.2,0,.2-.2.2-.3l-.3-.2-7.3,2.6Z" style="fill:#6c6120;fill-rule:evenodd"/><path d="M44,26.2,23.3,24.4a1.6,1.6,0,0,1-1.3-.9,1.8,1.8,0,0,1,.2-1.6,18.3,18.3,0,0,1,2.9-2.3c.9-.6,2.4-1.6,2.6-2.2a51.8,51.8,0,0,0,1.4-5.3c.9-4.8,2-9.7,8.3-10.6h.2a3,3,0,0,1,2.9,1.4,3.9,3.9,0,0,1-.1,3.6,1.6,1.6,0,0,1-1,.8c-1.8.4-2.8,2.9-3.1,5.2s.4,5.2,1.5,5.7l.9.4c3.6,1.7,6.2,2.9,6.9,5.8a1.4,1.4,0,0,1-1.4,1.8Z" style="fill:#75411a;fill-rule:evenodd"/><path d="M37.6,3c2.9,0,1.5,2.8,1.5,2.8-5,1-5.9,12-1.9,13.8s6.4,2.7,7,5.1L23.4,22.9c1.3-1.6,5.1-3.2,5.7-5C31.5,11.1,30.3,4,37.6,3m0-3h-.4c-7.4,1-8.6,7-9.6,11.8a46,46,0,0,1-1.3,5,14.1,14.1,0,0,1-2.1,1.6A15.8,15.8,0,0,0,21.1,21a3,3,0,0,0,2,4.9l20.8,1.8h.3A3,3,0,0,0,47.1,24c-.9-3.6-3.9-5-7.8-6.7l-.8-.4c-.4-.3-1.1-2.4-.6-5s1.2-3,1.8-3.1a3.1,3.1,0,0,0,2.1-1.6c.2-.5,1.3-3,0-5.1A4.7,4.7,0,0,0,37.6,0Z" style="fill:#6a3417"/><path d="M30.4,70.5h-.5a8.8,8.8,0,0,1-3.6-1H26a2.3,2.3,0,0,1-1.1-.3l-.4-.3-3.2-.7H20.2L19,67.8c-9.4-.2-13.7-4.5-15.5-8.2-4.6-8.7-.7-22.3,5.4-31.4,3.6-5.1,7.2-6.2,9.7-6.2a8.5,8.5,0,0,1,2.3.3h.5a9.8,9.8,0,0,1,6.2-2.5,7.3,7.3,0,0,1,2.3.4h.9a6.1,6.1,0,0,1,2.8-.6h.1a6.4,6.4,0,0,1,3.8,1.2h.4a12.9,12.9,0,0,1,2.3-.3,9.2,9.2,0,0,1,6.5,3h2.1c2.7,0,6.5,1.2,9.8,7.1,5,9.2,7.5,22.9,2.6,31.2-2.9,4.8-8,7.4-14.8,7.4H44.5l-.9.3h-.5l-.8-.2a24.2,24.2,0,0,1-4.7.5H35.7l-.2.2-.9.2H34A9.2,9.2,0,0,1,30.4,70.5Z" style="fill:#6c6120;fill-rule:evenodd"/><path d="M33.7,20.9a5.2,5.2,0,0,1,3.4,1.2h.2l.3.2h.2a5.8,5.8,0,0,1,2.4-.5,7.6,7.6,0,0,1,5.9,3.1h.6a.3.3,0,0,1,.1.2,5.6,5.6,0,0,1,2-.3c2.3,0,5.6,1.1,8.4,6.3,7,12.8,9.6,36.4-10.8,36.4H44.3l-1.1.4h-.1c-.2,0-.4-.1-.4-.3a19.8,19.8,0,0,1-5.1.6H35.4l-.6.3h-.2c-.2,0-.4-.1-.4-.2h0a9.2,9.2,0,0,1-3.8.9H30a7.7,7.7,0,0,1-3.6-1.2L26,68h-.2l-.7-.4a21.2,21.2,0,0,1-4-1c-.1.2-.2.3-.4.3h-.1l-1.3-.5C-3.4,66,1.6,41.6,10.2,29.1c3.1-4.5,6.2-5.6,8.4-5.6a7.6,7.6,0,0,1,2.5.4h.1l.3-.2h.4a8.2,8.2,0,0,1,5.7-2.6,7.9,7.9,0,0,1,2.5.5h.2c0-.1.1-.1.2-.1s.3,0,.4.2h0a4.7,4.7,0,0,1,2.7-.8h.1m0-3h-.2a7.3,7.3,0,0,0-3,.6h-.6a8.5,8.5,0,0,0-2.3-.3,11,11,0,0,0-6.7,2.5l-2.3-.2c-2.8,0-7,1.2-10.9,6.9C1.3,36.8-2.7,51.1,2.1,60.3c2.1,4,6.6,8.7,16.6,9l1,.4h1.6a11,11,0,0,0,2.6.6l.2.2A4.1,4.1,0,0,0,26,71a10.2,10.2,0,0,0,3.8,1h.6a11.9,11.9,0,0,0,3.7-.6h.5a3.2,3.2,0,0,0,1.4-.3h1.6a23.2,23.2,0,0,0,4.6-.4H44l.8-.2h1.6c9.3,0,13.9-4.4,16.1-8.1,5.2-8.9,2.6-23.1-2.6-32.7-3.6-6.5-8-7.9-11.1-7.9H47.4a10.3,10.3,0,0,0-7.2-3.1,7.3,7.3,0,0,0-2.2.3,8,8,0,0,0-4.3-1.2Z" style="fill:#6c6120"/><path d="M21.6,24.2c-1.5-.8-6.5-2.4-11.4,4.9C1.5,41.8-3.6,67,20.7,66.3c-13.9-5.5-9-27.2-1.6-39A22.3,22.3,0,0,1,21.6,24.2Z" style="fill:#90822e;fill-rule:evenodd"/><path d="M19.1,27.3c-7.5,11.8-12.4,33.5,1.5,39h0a21.8,21.8,0,0,0,9.3,1.3C23.8,64.7,18.8,54.7,22.6,42c2.8-9.2,5.6-16.1,8.4-19.8-.3-.2-4.6-3-9.5,1.9h0A16.7,16.7,0,0,0,19.1,27.3Z" style="fill:#90822e;fill-rule:evenodd"/><path d="M46.4,25.2c1.5-.6,6.7-1.7,10.8,5.9,7.4,13.5,9.9,39-14.2,36.2C57.4,63,54.7,41,48.5,28.6A20.2,20.2,0,0,0,46.4,25.2Z" style="fill:#90822e;fill-rule:evenodd"/><path d="M48.6,28.6c6.3,12.5,8.9,34.4-5.4,38.7h-.1a23.6,23.6,0,0,1-9.4.4c6.4-2.4,12.4-11.9,9.9-24.9-1.8-9.3-4-16.5-6.3-20.4.3-.1,4.8-2.6,9.2,2.8h.1A17,17,0,0,1,48.6,28.6Z" style="fill:#90822e;fill-rule:evenodd"/><path d="M43.6,42.9c-2.8-14.6-4.2-22.1-10-22-2.2,0-4.5.9-6.9,7.4C15.9,56.2,22.2,68.6,30,69S46.6,58.2,43.6,42.9Z" style="fill:#90822e;fill-rule:evenodd"/><path d="M46.7,24.9c-.1-.2-.4-.2-.6,0s-.2.4-.1.6,6.9,8.1,7.2,23.6S43,66.9,43,66.9a.5.5,0,0,0-.3.6c.1.2.3.4.5.3S54.4,65,54.1,49.1,46.7,25,46.7,24.9Z" style="fill:#6c6120;fill-rule:evenodd"/><path d="M21.9,24.4a.5.5,0,0,0-.1-.6c-.2-.2-.4-.1-.6.1S11.6,35,11.3,50.4c0,0-.4,13.6,9.3,16.4.2,0,.5-.1.5-.3a.4.4,0,0,0-.3-.6c-9-2.5-8.6-15.5-8.6-15.5h0C12.5,35.3,21.9,24.5,21.9,24.4Z" style="fill:#6c6120;fill-rule:evenodd"/><path d="M37.6,22.2c-.1-.2-.4-.2-.6,0a.4.4,0,0,0,0,.6s4.9,4.5,6.8,26.7h0c0,.7.1,13-9.4,18-.3.2-.3.4-.2.7a.4.4,0,0,0,.6.1c10.1-5.3,9.9-18.1,9.9-18.8h0C42.8,26.8,37.6,22.2,37.6,22.2Z" style="fill:#6c6120;fill-rule:evenodd"/><path d="M30.8,22.3a.5.5,0,0,0,.1-.6c-.2-.2-.4-.3-.6-.1s-5.4,3.6-9,24.2h0c-.2.9-3.3,17.1,4.5,22.1.2.2.4.1.6-.1a.5.5,0,0,0-.2-.6C19,62.5,22,46.8,22.2,46h0C25.8,25.7,30.8,22.3,30.8,22.3Z" style="fill:#6c6120;fill-rule:evenodd"/></g></g></svg>