<svg xmlns="http://www.w3.org/2000/svg" viewBox="0 0 104.9 104.9"><g style="isolation:isolate"><g id="Layer_2" data-name="Layer 2"><g id="Layer_1-2" data-name="Layer 1"><rect x="1.5" y="1.5" width="101.9" height="101.91" style="fill:#af7553"/><rect x="14.8" y="14.8" width="75.2" height="75.25" style="fill:#ce894a"/><path d="M5.3,18a1.1,1.1,0,1,0-1.1-1.1A1.1,1.1,0,0,0,5.3,18Z" style="fill:#353535"/><path d="M10.9,15.8a1.1,1.1,0,1,0,0,2.2,1.1,1.1,0,1,0,0-2.2Z" style="fill:#353535"/><circle cx="6" cy="10.6" r="1.1" style="fill:#353535"/><circle cx="6" cy="5" r="1.1" style="fill:#353535"/><path d="M98.9,11.7a1.1,1.1,0,1,0-1.1-1.1A1.1,1.1,0,0,0,98.9,11.7Z" style="fill:#353535"/><path d="M98.9,6.1A1.1,1.1,0,1,0,97.8,5,1.1,1.1,0,0,0,98.9,6.1Z" style="fill:#353535"/><path d="M6,98.7a1.1,1.1,0,1,0,1.1,1.1A1.1,1.1,0,0,0,6,98.7Z" style="fill:#353535"/><path d="M6,93.1a1.1,1.1,0,1,0,1.1,1.1A1.1,1.1,0,0,0,6,93.1Z" style="fill:#353535"/><path d="M98.9,98.7a1.1,1.1,0,1,0,1.1,1.1A1.1,1.1,0,0,0,98.9,98.7Z" style="fill:#353535"/><path d="M98.9,93.1a1.1,1.1,0,1,0,1.1,1.1A1.1,1.1,0,0,0,98.9,93.1Z" style="fill:#353535"/><path d="M6.4,86.6a1.1,1.1,0,1,0-1.1,1.1A1.1,1.1,0,0,0,6.4,86.6Z" style="fill:#353535"/><path d="M10.9,85.5a1.1,1.1,0,0,0,0,2.2,1.1,1.1,0,1,0,0-2.2Z" style="fill:#353535"/><path d="M94.2,15.8a1.1,1.1,0,0,0,0,2.2,1.1,1.1,0,1,0,0-2.2Z" style="fill:#353535"/><circle cx="99.9" cy="16.9" r="1.1" style="fill:#353535"/><path d="M94.2,85.5a1.1,1.1,0,0,0,0,2.2,1.1,1.1,0,1,0,0-2.2Z" style="fill:#353535"/><circle cx="99.9" cy="86.6" r="1.1" style="fill:#353535"/><g style="opacity:0.30000000000000004;mix-blend-mode:screen"><rect x="2.7" y="13" width="99.2" height="0.63" style="fill:#ffe1c5"/></g><rect x="2.6" y="90.9" width="99.4" height="0.63" style="fill:#ffe1c5;opacity:0.30000000000000004;mix-blend-mode:screen"/><rect x="21.1" y="17.6" width="0.6" height="69.65" style="fill:#efcaab;opacity:0.30000000000000004;mix-blend-mode:screen"/><rect x="36.7" y="17.6" width="0.6" height="69.65" style="fill:#efcaab;opacity:0.30000000000000004;mix-blend-mode:screen"/><rect x="51.9" y="18" width="0.6" height="69.65" style="fill:#efcaab;opacity:0.30000000000000004;mix-blend-mode:screen"/><rect x="67" y="17.6" width="0.6" height="69.65" style="fill:#efcaab;opacity:0.30000000000000004;mix-blend-mode:screen"/><g style="opacity:0.30000000000000004;mix-blend-mode:screen"><rect x="82.1" y="17.6" width="0.6" height="69.65" style="fill:#efcaab"/></g><path d="M103.1,1.8V103.1H1.8V1.8Zm.6-.6H1.2V103.7H103.7V1.2Z" style="fill:#754c24"/><path d="M14.5,14.5V90.4H90.4V14.5ZM87.8,87.8H17.1V17.1H87.8Z" style="fill:#a67c52;opacity:0.7000000000000001;mix-blend-mode:multiply"/><rect x="19.3" y="14.5" width="1.1" height="75.8" style="fill:#a67c52;opacity:0.7000000000000001;mix-blend-mode:multiply"/><rect x="34.8" y="14.5" width="1.1" height="75.8" style="fill:#a67c52;opacity:0.7000000000000001;mix-blend-mode:multiply"/><rect x="50" y="14.5" width="1.1" height="75.8" style="fill:#a67c52;opacity:0.7000000000000001;mix-blend-mode:multiply"/><rect x="65.2" y="14.5" width="1.1" height="75.8" style="fill:#a67c52;opacity:0.7000000000000001;mix-blend-mode:multiply"/><rect x="80.7" y="14.5" width="1.1" height="75.8" style="fill:#a67c52;opacity:0.7000000000000001;mix-blend-mode:multiply"/><rect x="1.2" y="14.5" width="13.3" height="1.07" style="fill:#a67c52;opacity:0.7000000000000001;mix-blend-mode:multiply"/><rect x="90.4" y="14.5" width="13.3" height="1.07" style="fill:#a67c52;opacity:0.7000000000000001;mix-blend-mode:multiply"/><rect x="1.2" y="89.3" width="13.3" height="1.07" style="fill:#a67c52;opacity:0.7000000000000001;mix-blend-mode:multiply"/><rect x="90.4" y="89.3" width="13.3" height="1.07" style="fill:#a67c52;opacity:0.7000000000000001;mix-blend-mode:multiply"/><path d="M1.2,1.2V103.7H103.7V1.2ZM102.1,102.1H2.8V2.8h99.3Z" style="fill:#a67c52;opacity:0.7000000000000001;mix-blend-mode:multiply"/><rect x="1.5" y="1.5" width="101.9" height="101.91" style="fill:none;stroke:#924f28;stroke-linecap:round;stroke-linejoin:round;stroke-width:3px"/><path d="M69.6,36a9.2,9.2,0,0,0-9.1,1.9,29.7,29.7,0,0,0-3.9,5.4c-3.9,5.5-10,9-16.1,12-3.3,1.7-6.9,3.5-8.5,6.9a9.3,9.3,0,0,0,.5,8.1,11.8,11.8,0,0,0,6.2,5.2c5.5,2.1,12.4.7,17.1-2.7A40.1,40.1,0,0,0,68.3,58.5c4.4-8.4,4.8-14.1,4.1-18.2a7,7,0,0,0-3.5-4.7" style="fill:#ce894a"/><path d="M70.1,35.2a3.7,3.7,0,0,0-1.4-.7,5.7,5.7,0,0,0-1.8-.3,12.4,12.4,0,0,0-3.3.4,11,11,0,0,0-5.5,4c-1.4,1.8-2.4,3.8-3.9,5.6a34.2,34.2,0,0,1-4.9,4.4,54.3,54.3,0,0,1-5.7,3.5c-1.9,1.1-3.9,2-5.9,3a17.9,17.9,0,0,0-5.2,3.8,9.3,9.3,0,0,0-2.7,6.3,11.9,11.9,0,0,0,6.8,11.3,18.8,18.8,0,0,0,13.6,1.1,20.7,20.7,0,0,0,6.2-2.9,28.4,28.4,0,0,0,5.5-4.9,45.4,45.4,0,0,0,8.3-11.1,40.1,40.1,0,0,0,4.2-12.5c.4-3.5.1-7.4-2.1-10.2a6,6,0,0,0-3-1.9,1.6,1.6,0,0,0-1.9.9,1.6,1.6,0,0,0,.7,2l.8.8.8.9a2.5,2.5,0,0,1,.4.7l.2.2c-.1-.2,0,.1,0,.1a7.9,7.9,0,0,1,.3,1.3.9.9,0,0,1,.1.5h0c0,.3.1.6.1.9v2a3.4,3.4,0,0,1-.1,1V46a.4.4,0,0,1-.1.3c0,.3.1-.4,0,.1a20,20,0,0,1-.4,2.4,43,43,0,0,1-2,5.7,37.6,37.6,0,0,1-6.4,10.7,31.9,31.9,0,0,1-4.6,4.4,32.4,32.4,0,0,1-5.4,3.3l-.3.2s-.3.1-.1,0l-.6.3-1.5.5a15.9,15.9,0,0,1-3,.6c.2,0-.1,0-.1.1H43.4l-1.3-.2h-.5l-.8-.2-1.4-.4-1.2-.5A12.1,12.1,0,0,1,36,71.9a8.8,8.8,0,0,1-3-4.6,6.7,6.7,0,0,1,1-5.5,12,12,0,0,1,3.9-3.5c3.5-2.1,7.3-3.8,10.8-6A31.2,31.2,0,0,0,58,43.5c1.2-1.7,2.2-3.6,3.8-5a8.8,8.8,0,0,1,5-1.7h2.8c1,.1,1.2-1.2.5-1.7Z" style="fill:#a8662f"/><path d="M72.7,47.4l-1-.2a8.2,8.2,0,0,1-4.1-4.6l-1.3,1.2A4.2,4.2,0,0,1,63.7,45H63a3,3,0,0,1-2.1-2.4,3.3,3.3,0,0,1,.1-2H59.9a2.3,2.3,0,0,1-2.5-1.9,2.8,2.8,0,0,1,.6-1.9A11,11,0,0,1,61.6,34,13.9,13.9,0,0,1,67,32.6h.8c0-.3-.1-.5-.1-.7s-.1-.3-.2-.5l-.2-.5v-.2l-.3-.7a2.3,2.3,0,0,1,.4-2.1,2.5,2.5,0,0,1,3.8-.4,6.1,6.1,0,0,1,1.6,3.1,9.5,9.5,0,0,1,.2,2.9,8.8,8.8,0,0,1-.2,1.6A11,11,0,0,1,75,39.5a15.7,15.7,0,0,1-.3,6.1,2.5,2.5,0,0,1-.9,1.5A2,2,0,0,1,72.7,47.4Z" style="fill:#ce894a"/><path d="M69.5,28.4a1.1,1.1,0,0,1,.7.3,5,5,0,0,1,1.2,2.4,9.5,9.5,0,0,1,.1,2.4,7.8,7.8,0,0,1-.4,2.1,9,9,0,0,1,2.4,4.1,15.1,15.1,0,0,1-.3,5.6.8.8,0,0,1-.2.5h-.7c-2.5-1-3.6-3.8-4-6.4a23.5,23.5,0,0,1-3,3.3,2.5,2.5,0,0,1-1.6.8h-.3a1.4,1.4,0,0,1-1-1.2,2.9,2.9,0,0,1,.1-1.6A7.6,7.6,0,0,1,64,37.8,14.5,14.5,0,0,1,60.5,39h-.6c-.5,0-1-.1-1-.6s.1-.5.3-.8a9,9,0,0,1,3.1-2.3A11.2,11.2,0,0,1,67,34.1a8.5,8.5,0,0,1,2.3.4h.1V32.7h-.1a3.6,3.6,0,0,0-.2-1l-.3-1v-.3l-.3-.6a1.1,1.1,0,0,1,1.1-1.3m0-3a4,4,0,0,0-3.3,1.7,3.6,3.6,0,0,0-.6,3.5,1.4,1.4,0,0,0,.2.6A16.5,16.5,0,0,0,61,32.7a11.7,11.7,0,0,0-4.2,3.2,4.1,4.1,0,0,0-.9,3.1,3.7,3.7,0,0,0,3.4,3.1c0,.2.1.4.1.7a4.5,4.5,0,0,0,3.1,3.5l1.2.2a5.7,5.7,0,0,0,3.4-1.4,8.2,8.2,0,0,0,4,3.4,3.4,3.4,0,0,0,1.6.4,3.3,3.3,0,0,0,1.9-.6A3.9,3.9,0,0,0,76.2,46a18.9,18.9,0,0,0,.3-6.7,10.4,10.4,0,0,0-2.1-4.4,4.9,4.9,0,0,0,.1-1.2,12.2,12.2,0,0,0-.2-3.3,7.4,7.4,0,0,0-2-3.8,3.9,3.9,0,0,0-2.8-1.2Z" style="fill:#a8662f"/></g></g></g></svg>