<svg xmlns="http://www.w3.org/2000/svg" viewBox="0 0 68.4 84.6"><g style="isolation:isolate"><g id="Layer_2" data-name="Layer 2"><g id="Layer_1-2" data-name="Layer 1"><path d="M34.8,83.1C21,83.1,9.9,73.5,9.9,61.7c0-7.3,4.2-14,11.3-18l.7-.2H47.6l.7.2c7.1,4,11.3,10.7,11.3,18C59.6,73.5,48.5,83.1,34.8,83.1Z" style="fill:#fff"/><path d="M47.6,45c6.3,3.6,10.5,9.7,10.5,16.7,0,11-10.4,19.9-23.3,19.9S11.4,72.7,11.4,61.7c0-7,4.2-13.1,10.5-16.7H47.6m0-3H21.9a4.2,4.2,0,0,0-1.5.4c-7.5,4.3-12,11.5-12,19.3,0,12.7,11.8,22.9,26.4,22.9S61.1,74.4,61.1,61.7c0-7.8-4.5-15-12-19.3a4.2,4.2,0,0,0-1.5-.4Z" style="fill:#8d8d8d"/><path d="M57.9,59a13.9,13.9,0,0,1-2.3,8.4c-5.3,7-18.5,9.1-26.1,5.3C19,67.5,18,52,29.4,46.9c3.4-1.6,7.2-1.7,10.9-1.9H21.9c-6.3,3.6-10.5,9.7-10.5,16.7,0,11,10.4,19.9,23.4,19.9s23.3-8.9,23.3-19.9A12.3,12.3,0,0,0,57.9,59Z" style="fill:#d9d9d9;opacity:0.5;mix-blend-mode:multiply"/><path d="M25.6,23.7h-.5c-4.9-1.8-8-4.5-9.4-8.3C13.5,9,17.3,2.5,17.5,2.2a1.4,1.4,0,0,1,1.2-.7h.6c5.2,2.1,8.4,5.2,9.7,9.1,1.9,6.1-2,12.1-2.1,12.3A1.7,1.7,0,0,1,25.6,23.7Z" style="fill:#6c9433"/><path d="M18.7,3c15.5,6.2,6.9,19.2,6.9,19.2C10.5,16.8,18.7,3,18.7,3m0-3a2.7,2.7,0,0,0-2.5,1.5c-.2.3-4.4,7.4-1.9,14.3,1.5,4.2,5,7.3,10.3,9.2l1,.2a2.9,2.9,0,0,0,2.5-1.4c.2-.2,4.4-6.7,2.3-13.6C29,5.9,25.5,2.5,19.9.2L18.7,0Z" style="fill:#507125"/><path d="M25.7,18.1A6.9,6.9,0,0,1,20.6,14c-1-1.9-2-4.6-1-6.7A6.9,6.9,0,0,1,22,4.6,34.2,34.2,0,0,0,18.7,3s-8.2,13.8,6.9,19.2A16.8,16.8,0,0,0,27.4,18,3.2,3.2,0,0,1,25.7,18.1Z" style="fill:#d9d9d9;mix-blend-mode:multiply"/><path d="M10.8,46.6a18.9,18.9,0,0,1-8.5-2.2,1.4,1.4,0,0,1-.7-1.8C4.8,33.8,10.3,32,14.4,32a18.2,18.2,0,0,1,8.4,2.3,1.7,1.7,0,0,1,.6,1.8C20.6,44.8,15,46.6,10.8,46.6Z" style="fill:#6c9433"/><path d="M14.4,33.5A16.6,16.6,0,0,1,22,35.6c-2.5,7.6-7.1,9.5-11.2,9.5a18,18,0,0,1-7.8-2c2.8-7.7,7.4-9.6,11.4-9.6m0-3C9.8,30.5,3.7,32.5.2,42a3,3,0,0,0,1.3,3.7,21.5,21.5,0,0,0,9.3,2.4c3.8,0,10.8-1.5,14-11.6a2.9,2.9,0,0,0-1.3-3.4,18.1,18.1,0,0,0-9.1-2.6Z" style="fill:#507125"/><path d="M17.9,35.7A7,7,0,0,1,14,40.9c-1.9,1.1-4.6,2.2-6.8,1.2a7.4,7.4,0,0,1-2.7-2.3A35.2,35.2,0,0,0,3,43.1s14,7.8,19-7.5a22.7,22.7,0,0,0-4.2-1.7A5.5,5.5,0,0,1,17.9,35.7Z" style="fill:#d9d9d9;mix-blend-mode:multiply"/><path d="M57.7,46.6c-7.8,0-11.7-7-12.8-10.6a1.8,1.8,0,0,1,.8-1.8,16.7,16.7,0,0,1,8.2-2.4c9.3,0,12.8,10.3,12.9,10.7a1.6,1.6,0,0,1-.7,1.8,19.4,19.4,0,0,1-8.4,2.3Z" style="fill:#6c9433"/><path d="M53.9,33.3c8.3,0,11.5,9.7,11.5,9.7a17.5,17.5,0,0,1-7.7,2.1c-8.7,0-11.3-9.5-11.3-9.5a15.6,15.6,0,0,1,7.5-2.3m0-3a19.1,19.1,0,0,0-9,2.6,3,3,0,0,0-1.4,3.5c1.1,4,5.5,11.7,14.2,11.7a20.2,20.2,0,0,0,9-2.4,3,3,0,0,0,1.5-3.6c-.1-.5-3.9-11.8-14.3-11.8Z" style="fill:#507125"/><path d="M49.4,38.3a6.9,6.9,0,0,1,6.5-1.2c2.1.5,4.8,1.5,5.7,3.7a7.2,7.2,0,0,1,.4,3.5A18.1,18.1,0,0,0,65.4,43s-5-15.3-19-7.4a14.9,14.9,0,0,0,1.9,4A4.5,4.5,0,0,1,49.4,38.3Z" style="fill:#d9d9d9;mix-blend-mode:multiply"/><path d="M41.7,23.6a1.4,1.4,0,0,1-1.3-.8c-2.2-4.8-2.4-9-.7-12.6,2.9-6,10.3-7.8,10.6-7.9h.4a1.4,1.4,0,0,1,1.3.9c2.2,5.2,2.2,9.7.3,13.3-3.1,5.7-10,7-10.3,7.1Z" style="fill:#6c9433"/><path d="M50.7,3.8c6.3,15.4-9,18.3-9,18.3-6.7-14.6,9-18.3,9-18.3m0-3H50c-.4.1-8.4,2-11.6,8.7q-3,6,.6,13.8a2.9,2.9,0,0,0,2.7,1.7h.6c.3-.1,7.9-1.6,11.3-7.9,2.2-4,2.1-8.9-.2-14.5A2.9,2.9,0,0,0,50.7.8Z" style="fill:#507125"/><path d="M44.7,19.3a7.1,7.1,0,0,1-.7-6.5c.7-2,1.9-4.6,4.2-5.4a7,7,0,0,1,3.5-.1,16.9,16.9,0,0,0-1-3.5S35,7.5,41.7,22.1A18,18,0,0,0,46,20.5,3.7,3.7,0,0,1,44.7,19.3Z" style="fill:#d9d9d9;mix-blend-mode:multiply"/><path d="M16.8,56.6a1.5,1.5,0,0,1-1.4-1c-2.2-5.1-2.2-9.6-.3-13.2,3.1-5.7,10-7.1,10.3-7.1h.3a1.3,1.3,0,0,1,1.3.8c2.2,4.8,2.4,9,.7,12.6-2.9,5.9-10.3,7.8-10.6,7.8Z" style="fill:#6c9433"/><path d="M25.7,36.8c6.7,14.6-8.9,18.3-8.9,18.3-6.4-15.4,8.9-18.3,8.9-18.3m0-3h-.6c-.3.1-7.9,1.6-11.3,7.9-2.2,4-2.1,8.9.2,14.5a3,3,0,0,0,2.8,1.9h.7c.3-.1,8.3-2.1,11.5-8.7q3-6-.6-13.8a2.9,2.9,0,0,0-2.7-1.7Z" style="fill:#507125"/><path d="M22.8,39.6a7.1,7.1,0,0,1,.6,6.5c-.7,2-1.9,4.6-4.2,5.4a6.9,6.9,0,0,1-3.5.1,14,14,0,0,0,1.1,3.5s15.6-3.7,8.9-18.3a13,13,0,0,0-4.2,1.6A4.7,4.7,0,0,1,22.8,39.6Z" style="fill:#d9d9d9;mix-blend-mode:multiply"/><path d="M52.3,55.3c-4.8,0-8.5-1.5-11-4.3C37.2,46.4,38,39.7,38,39.4a1.5,1.5,0,0,1,1.3-1.3l2.7-.2q6.3,0,9.9,3.9c4.3,4.6,3.8,11.7,3.8,12a1.5,1.5,0,0,1-1.4,1.4Z" style="fill:#6c9433"/><path d="M42,39.4c13.3,0,12.2,14.3,12.2,14.3H52.3c-14.5,0-12.8-14.2-12.8-14.2l2.5-.2m0-3-2.9.2a3.1,3.1,0,0,0-2.6,2.6c0,.3-.9,7.7,3.7,12.8,2.8,3.2,6.9,4.8,12.1,4.8h2.2a3,3,0,0,0,2.7-2.8c0-.3.6-8-4.2-13.1-2.7-2.9-6.3-4.4-11-4.4Z" style="fill:#507125"/><path d="M41.3,43.2a7.2,7.2,0,0,1,6.4,1.4c1.7,1.3,3.8,3.3,3.8,5.6a6.1,6.1,0,0,1-.9,3.5h3.6s1.2-16-14.7-14.1a19.4,19.4,0,0,0,.2,4.5A5.1,5.1,0,0,1,41.3,43.2Z" style="fill:#d9d9d9;mix-blend-mode:multiply"/><path d="M35,60.6a1.8,1.8,0,0,1-1-.4c-4.3-3.6-6.5-7.5-6.4-11.6,0-6.4,5.5-10.9,5.7-11.1a1.7,1.7,0,0,1,1-.3,1.6,1.6,0,0,1,.9.3c4.1,3.2,6.3,6.8,6.4,10.7.2,6.7-5.4,11.8-5.6,12A2.1,2.1,0,0,1,35,60.6Z" style="fill:#6c9433"/><path d="M34.3,38.7C47,48.4,35,59,35,59c-12.8-10.6-.7-20.3-.7-20.3m0-3a3.1,3.1,0,0,0-1.9.6c-.3.2-6.3,5.1-6.3,12.3-.1,4.6,2.3,8.9,7,12.8a3.3,3.3,0,0,0,3.9-.1c.2-.2,6.4-5.7,6.1-13.1-.1-4.4-2.5-8.5-7-11.9a3.2,3.2,0,0,0-1.8-.6Z" style="fill:#507125"/><path d="M33,42.5A7.1,7.1,0,0,1,36.6,48c.3,2.1.5,5-1.2,6.7a7.1,7.1,0,0,1-3,1.8A12.5,12.5,0,0,0,35,59s12-10.6-.7-20.3a16.8,16.8,0,0,0-3,3.4A5.9,5.9,0,0,1,33,42.5Z" style="fill:#d9d9d9;mix-blend-mode:multiply"/><path d="M53.6,14.8s-4.4,3.7,0,7.3C53.6,22.1,58.1,18.8,53.6,14.8Z" style="fill:#e8a4d2"/><path d="M54.1,20.7a2.5,2.5,0,0,1-1.2-1.9,3.1,3.1,0,0,1,.5-2.5,3.9,3.9,0,0,1,1.1-.6l-.9-.9s-4.4,3.7,0,7.3a4.2,4.2,0,0,0,1.1-1.2A.7.7,0,0,1,54.1,20.7Z" style="fill:#f1caca;opacity:0.5;mix-blend-mode:multiply"/><path d="M53.6,32.6s4.5-3.6,0-7.3C53.6,25.3,49.2,28.6,53.6,32.6Z" style="fill:#e8a4d2"/><path d="M53.1,26.7a2.5,2.5,0,0,1,1.3,2,3,3,0,0,1-.5,2.4,2.7,2.7,0,0,1-1.2.6l.9.9s4.5-3.6,0-7.3a7.1,7.1,0,0,0-1.1,1.2Z" style="fill:#f1caca;opacity:0.5;mix-blend-mode:multiply"/><path d="M60.3,17.8s-5.7-.9-5.5,4.8C54.8,22.6,60.3,23.8,60.3,17.8Z" style="fill:#e8a4d2"/><path d="M56.2,22.1a2.3,2.3,0,0,1,.7-2.2A3,3,0,0,1,59,18.6l1.2.5c0-.4.1-.8.1-1.3s-5.7-.9-5.5,4.8a5,5,0,0,0,1.7.1A.9.9,0,0,1,56.2,22.1Z" style="fill:#f1caca;opacity:0.5;mix-blend-mode:multiply"/><path d="M47,29.6s5.7.9,5.4-4.8C52.4,24.8,47,23.7,47,29.6Z" style="fill:#e8a4d2"/><path d="M51.1,25.3a2.3,2.3,0,0,1-.7,2.2,3.2,3.2,0,0,1-2.1,1.3,2.6,2.6,0,0,1-1.2-.5,5.3,5.3,0,0,0-.1,1.3s5.7.9,5.4-4.8a4.6,4.6,0,0,0-1.6-.1Z" style="fill:#f1caca;opacity:0.5;mix-blend-mode:multiply"/><path d="M62.5,23.8s-3.6-4.5-7.3-.1C55.2,23.7,58.5,28.2,62.5,23.8Z" style="fill:#e8a4d2"/><path d="M56.6,24.2a2.7,2.7,0,0,1,2-1.2,2.9,2.9,0,0,1,2.4.5,2.7,2.7,0,0,1,.6,1.2l.9-.9s-3.6-4.5-7.3-.1a7.2,7.2,0,0,0,1.2,1.1A1.4,1.4,0,0,1,56.6,24.2Z" style="fill:#f1caca;opacity:0.5;mix-blend-mode:multiply"/><path d="M44.7,23.6s3.6,4.5,7.3.1C52,23.7,48.7,19.2,44.7,23.6Z" style="fill:#e8a4d2"/><path d="M50.7,23.2a2.7,2.7,0,0,1-2,1.2,2.9,2.9,0,0,1-2.4-.5,2.4,2.4,0,0,1-.6-1.1l-1,.8s3.6,4.5,7.3.1a4.8,4.8,0,0,0-1.1-1.1C50.8,22.8,50.8,23,50.7,23.2Z" style="fill:#f1caca;opacity:0.5;mix-blend-mode:multiply"/><path d="M60.1,29.8s.4-5.8-5.3-5C54.8,24.8,54.2,30.3,60.1,29.8Z" style="fill:#e8a4d2"/><path d="M55.5,26.1a2.4,2.4,0,0,1,2.3.5,3,3,0,0,1,1.4,2,2.8,2.8,0,0,1-.4,1.2h1.3s.4-5.8-5.3-5a4.9,4.9,0,0,0,.1,1.6Z" style="fill:#f1caca;opacity:0.5;mix-blend-mode:multiply"/><path d="M47.1,17.6s-.3,5.8,5.4,5C52.5,22.6,53.1,17.1,47.1,17.6Z" style="fill:#e8a4d2"/><path d="M51.8,21.3a2.7,2.7,0,0,1-2.3-.4c-.6-.5-1.4-1.2-1.4-2a2.8,2.8,0,0,1,.3-1.3H47.1s-.3,5.8,5.4,5c0,0,0-.7-.1-1.6Z" style="fill:#f1caca;opacity:0.5;mix-blend-mode:multiply"/><path d="M53.5,27.3a3.6,3.6,0,0,1-3.6-3.6A3.7,3.7,0,0,1,53.5,20a3.8,3.8,0,0,1,3.7,3.7A3.7,3.7,0,0,1,53.5,27.3Z" style="fill:#fcd54d"/><path d="M53.5,20.5a3.2,3.2,0,1,1,0,6.3,3.2,3.2,0,0,1,0-6.3m0-1a4.1,4.1,0,0,0-4.1,4.2,4.1,4.1,0,0,0,4.1,4.1,4.1,4.1,0,0,0,4.2-4.1,4.2,4.2,0,0,0-4.2-4.2Z" style="fill:#ffaa5a"/><path d="M54.1,26.2a2.5,2.5,0,0,1-2.5-2.5,2.6,2.6,0,0,1,2.5-2.6,2.6,2.6,0,0,1,2.6,2.6,3.2,3.2,0,1,0-6.3,0,3.2,3.2,0,0,0,6.3,0A2.6,2.6,0,0,1,54.1,26.2Z" style="fill:#fcd54d;opacity:0.5;mix-blend-mode:multiply"/><path d="M53.6,14.8l.6.6c2.1,2.2,1.5,4.2.6,5.4H55c.6-2.8,3.2-3.2,4.5-3.2h.8a1.9,1.9,0,0,1-.1.8,4.4,4.4,0,0,1-1.4,3.2,5.5,5.5,0,0,1,3.7,2l-.5.5-.4.4h0a4.8,4.8,0,0,1-2.7,1h-.2a5.6,5.6,0,0,1,1.4,4.1h-.8A4.1,4.1,0,0,1,55.5,28c.6,2.6-1.9,4.6-1.9,4.6l-.5-.6-.3-.3h-.1a4.2,4.2,0,0,1-.3-5.1.1.1,0,0,1-.1-.1,4.3,4.3,0,0,1-4.5,3.2H47v-.8a4.8,4.8,0,0,1,1.5-3.2,5.5,5.5,0,0,1-3.8-2l.6-.5a4.7,4.7,0,0,1,3.1-1.4h.2a5.9,5.9,0,0,1-1.5-4.1h.8a4.3,4.3,0,0,1,3.9,1.8c-.7-2.5,1.8-4.6,1.8-4.6m-1.3,6h.1l-.2-.2c.1,0,.1.1.1.2M55,26.9c0-.2-.1-.3-.1-.4h-.1l.2.4M53.6,11.8a3,3,0,0,0-1.9.7,11.3,11.3,0,0,0-1.9,2.3l-1.9-.2H46.8a3.2,3.2,0,0,0-2.7,2.9,11.3,11.3,0,0,0,.3,2.5,4.8,4.8,0,0,0-1.1.9l-.8.7a3,3,0,0,0-.1,3.9,6.7,6.7,0,0,0,1.9,1.7L44,28.6v1a3,3,0,0,0,2.5,3h1.3l1.9-.2a6.1,6.1,0,0,0,.7,1h0c.2.1.3.3.5.5l.7.7a2.7,2.7,0,0,0,2,.8,2.6,2.6,0,0,0,1.9-.7,8.4,8.4,0,0,0,2-2.3l1.8.2h1.1A3.1,3.1,0,0,0,63.1,30a6.5,6.5,0,0,0-.2-2.6,1,1,0,0,0,.5-.4h.1l.5-.4.8-.8a3,3,0,0,0,.1-3.9A8.7,8.7,0,0,0,63,20.2a5.1,5.1,0,0,0,.2-1.3,4.1,4.1,0,0,0,.1-1.1,3.1,3.1,0,0,0-2.5-3H59.5l-1.9.2a8.3,8.3,0,0,0-1.2-1.6l-.8-.7a3,3,0,0,0-2-.8Z" style="fill:#ac538c"/><path d="M17.9,15.7s-4.5,3.6,0,7.3C17.9,23,22.3,19.6,17.9,15.7Z" style="fill:#e8a4d2"/><path d="M18.4,21.6a2.7,2.7,0,0,1-1.2-2,2.9,2.9,0,0,1,.5-2.4,2.4,2.4,0,0,1,1.1-.6l-.9-.9s-4.5,3.6,0,7.3A7.2,7.2,0,0,0,19,21.8Z" style="fill:#f1caca;opacity:0.5;mix-blend-mode:multiply"/><path d="M17.9,33.5s4.4-3.7,0-7.3C17.9,26.2,13.4,29.5,17.9,33.5Z" style="fill:#e8a4d2"/><path d="M17.4,27.5a2.7,2.7,0,0,1,1.2,2,2.9,2.9,0,0,1-.5,2.4,2.4,2.4,0,0,1-1.1.6l.9,1s4.4-3.7,0-7.3a4.8,4.8,0,0,0-1.1,1.1Z" style="fill:#f1caca;opacity:0.5;mix-blend-mode:multiply"/><path d="M24.5,18.7s-5.6-.9-5.4,4.8C19.1,23.5,24.5,24.6,24.5,18.7Z" style="fill:#e8a4d2"/><path d="M20.4,23a3.2,3.2,0,0,1,.7-2.3,2.7,2.7,0,0,1,2.1-1.2,2.1,2.1,0,0,1,1.2.4,4.9,4.9,0,0,0,.1-1.2s-5.6-.9-5.4,4.8a7,7,0,0,0,1.6,0Z" style="fill:#f1caca;opacity:0.5;mix-blend-mode:multiply"/><path d="M11.2,30.5s5.7.9,5.5-4.9C16.7,25.6,11.2,24.5,11.2,30.5Z" style="fill:#e8a4d2"/><path d="M15.3,26.2a2.5,2.5,0,0,1-.6,2.2,2.7,2.7,0,0,1-2.2,1.2,2.8,2.8,0,0,1-1.2-.4c0,.4-.1.8-.1,1.3s5.7.9,5.5-4.9a7,7,0,0,0-1.6,0A.8.8,0,0,1,15.3,26.2Z" style="fill:#f1caca;opacity:0.5;mix-blend-mode:multiply"/><path d="M26.8,24.6s-3.6-4.4-7.3,0C19.5,24.6,22.8,29.1,26.8,24.6Z" style="fill:#e8a4d2"/><path d="M20.8,25.1a2.8,2.8,0,0,1,2.1-1.2,2.7,2.7,0,0,1,2.3.5,1.7,1.7,0,0,1,.6,1.1,2.8,2.8,0,0,0,1-.9s-3.6-4.4-7.3,0a4.2,4.2,0,0,0,1.2,1.1A1.3,1.3,0,0,1,20.8,25.1Z" style="fill:#f1caca;opacity:0.5;mix-blend-mode:multiply"/><path d="M9,24.5s3.6,4.5,7.3.1C16.3,24.6,13,20.1,9,24.5Z" style="fill:#e8a4d2"/><path d="M14.9,24a2.5,2.5,0,0,1-2,1.3c-.7,0-1.8.1-2.4-.6a2.4,2.4,0,0,1-.6-1.1l-.9.9s3.6,4.5,7.3.1a5.5,5.5,0,0,0-1.2-1.2A1.4,1.4,0,0,1,14.9,24Z" style="fill:#f1caca;opacity:0.5;mix-blend-mode:multiply"/><path d="M24.4,30.6s.4-5.7-5.3-4.9C19.1,25.7,18.5,31.2,24.4,30.6Z" style="fill:#e8a4d2"/><path d="M19.7,27a2.4,2.4,0,0,1,2.3.4c.6.5,1.4,1.2,1.4,2a2.1,2.1,0,0,1-.3,1.2h1.3s.4-5.7-5.3-4.9a4.9,4.9,0,0,0,.1,1.6A.5.5,0,0,1,19.7,27Z" style="fill:#f1caca;opacity:0.5;mix-blend-mode:multiply"/><path d="M11.4,18.5s-.4,5.7,5.3,5C16.7,23.5,17.3,17.9,11.4,18.5Z" style="fill:#e8a4d2"/><path d="M16.1,22.2a2.7,2.7,0,0,1-2.3-.5,2.5,2.5,0,0,1-1.4-2,1.8,1.8,0,0,1,.3-1.2H11.4s-.4,5.7,5.3,5a4.9,4.9,0,0,0-.1-1.6Z" style="fill:#f1caca;opacity:0.5;mix-blend-mode:multiply"/><path d="M17.8,28.2a3.8,3.8,0,0,1-3.7-3.7,3.7,3.7,0,0,1,3.7-3.6,3.6,3.6,0,0,1,3.6,3.6A3.7,3.7,0,0,1,17.8,28.2Z" style="fill:#fcd54d"/><path d="M17.8,21.4a3.2,3.2,0,0,1,0,6.3,3.2,3.2,0,1,1,0-6.3m0-1a4.1,4.1,0,0,0-4.2,4.1,4.2,4.2,0,0,0,4.2,4.2,4.1,4.1,0,0,0,4.1-4.2,4.1,4.1,0,0,0-4.1-4.1Z" style="fill:#ffaa5a"/><path d="M18.4,27.1a2.6,2.6,0,0,1-2.6-2.6A2.6,2.6,0,0,1,18.4,22a2.5,2.5,0,0,1,2.5,2.5,3.2,3.2,0,0,0-6.3,0,3.2,3.2,0,1,0,6.3,0A2.6,2.6,0,0,1,18.4,27.1Z" style="fill:#fcd54d;opacity:0.5;mix-blend-mode:multiply"/><path d="M17.9,15.7l.6.6.3.3h0a4,4,0,0,1,.3,5.1.1.1,0,0,1,.1.1,4.3,4.3,0,0,1,4.5-3.2h.8v.8a.6.6,0,0,1-.1.4h0A3.9,3.9,0,0,1,23,22.6a6,6,0,0,1,3.8,2l-.6.6-.3.3h-.1a3.9,3.9,0,0,1-2.7,1.1h-.2a5.2,5.2,0,0,1,1.5,4H23.1a3.5,3.5,0,0,1-3.3-1.8c.6,2.6-1.9,4.7-1.9,4.7l-.6-.6a4,4,0,0,1-.6-5.4h-.2c-.6,2.8-3.1,3.1-4.5,3.1h-.8c0-.3.1-.6.1-.8a4.1,4.1,0,0,1,1.5-3.2,5.5,5.5,0,0,1-3.8-2l.6-.6.3-.3h0a4.1,4.1,0,0,1,2.7-1h.3a5.4,5.4,0,0,1-1.5-4.1h.8A4.1,4.1,0,0,1,16,20.3c-.6-2.6,1.9-4.6,1.9-4.6m-1.3,5.9h0c0-.1-.1-.1-.1-.2s0,.2.1.2m2.7,6.1c-.1-.1-.1-.2-.1-.4h-.1c0,.1.1.2.2.3m-1.4-15a3.1,3.1,0,0,0-1.9.6,10.5,10.5,0,0,0-2,2.3H11.1a2.9,2.9,0,0,0-2.7,2.8,9.5,9.5,0,0,0,.2,2.6,1,1,0,0,0-.5.4H8l-.5.4-.7.8a2.9,2.9,0,0,0-.1,3.9,10.1,10.1,0,0,0,1.8,1.7,5.1,5.1,0,0,0-.2,1.3c0,.4-.1.7-.1,1.1a2.9,2.9,0,0,0,2.6,2.9H12a5.8,5.8,0,0,0,1.9-.2l1.2,1.6a6,6,0,0,0,.8.8,3.2,3.2,0,0,0,2,.8,3.4,3.4,0,0,0,1.9-.7,10.5,10.5,0,0,0,2-2.3h2.9a2.9,2.9,0,0,0,2.7-2.8,16.7,16.7,0,0,0-.2-2.5,1,1,0,0,1,.5-.4h0a1,1,0,0,0,.5-.4,3,3,0,0,0,.8-.8,3,3,0,0,0,.1-3.9,11.5,11.5,0,0,0-1.8-1.6.9.9,0,0,1,.1-.5v-.2h0c0-.2.1-.3.1-.5V18.7a2.9,2.9,0,0,0-2.5-3H23.7l-1.8.2-.8-1.1h0l-.4-.5-.8-.8a3.1,3.1,0,0,0-2-.7Z" style="fill:#ac538c"/><path d="M35,8.7s-4.4,3.6,0,7.3C35,16,39.5,12.7,35,8.7Z" style="fill:#e8a4d2"/><path d="M35.6,14.6a2.5,2.5,0,0,1-1.3-2,3,3,0,0,1,.5-2.4,3.9,3.9,0,0,1,1.1-.6,3.8,3.8,0,0,0-.9-.9s-4.4,3.6,0,7.3a5.5,5.5,0,0,0,1.2-1.2Z" style="fill:#f1caca;opacity:0.5;mix-blend-mode:multiply"/><path d="M35,26.5s4.5-3.7,0-7.3C35,19.2,30.6,22.5,35,26.5Z" style="fill:#e8a4d2"/><path d="M34.5,20.6a2.3,2.3,0,0,1,1.3,1.9,3.1,3.1,0,0,1-.5,2.5,3.9,3.9,0,0,1-1.1.6l.8.9s4.5-3.7,0-7.3a7.1,7.1,0,0,0-1.1,1.2A.7.7,0,0,1,34.5,20.6Z" style="fill:#f1caca;opacity:0.5;mix-blend-mode:multiply"/><path d="M41.7,11.7s-5.7-.9-5.5,4.8C36.2,16.5,41.7,17.6,41.7,11.7Z" style="fill:#e8a4d2"/><path d="M37.6,16a2.3,2.3,0,0,1,.7-2.2,3.2,3.2,0,0,1,2.1-1.3,3.1,3.1,0,0,1,1.2.5,5.3,5.3,0,0,0,.1-1.3s-5.7-.9-5.5,4.8a5.4,5.4,0,0,0,1.7.1A.9.9,0,0,1,37.6,16Z" style="fill:#f1caca;opacity:0.5;mix-blend-mode:multiply"/><path d="M28.4,23.5s5.7.9,5.5-4.8C33.9,18.7,28.4,17.5,28.4,23.5Z" style="fill:#e8a4d2"/><path d="M32.5,19.2a2.3,2.3,0,0,1-.7,2.2,3.2,3.2,0,0,1-2.1,1.3l-1.2-.5a5.3,5.3,0,0,0-.1,1.3s5.7.9,5.5-4.8a5.4,5.4,0,0,0-1.7-.1A.9.9,0,0,1,32.5,19.2Z" style="fill:#f1caca;opacity:0.5;mix-blend-mode:multiply"/><path d="M43.9,17.7s-3.6-4.5-7.3-.1C36.6,17.6,39.9,22.1,43.9,17.7Z" style="fill:#e8a4d2"/><path d="M38,18.1a2.7,2.7,0,0,1,2-1.2,2.9,2.9,0,0,1,2.4.5,2.4,2.4,0,0,1,.6,1.1l.9-.8s-3.6-4.5-7.3-.1a7.2,7.2,0,0,0,1.2,1.1A1.4,1.4,0,0,1,38,18.1Z" style="fill:#f1caca;opacity:0.5;mix-blend-mode:multiply"/><path d="M26.1,17.5s3.7,4.5,7.3.1C33.4,17.6,30.1,13.1,26.1,17.5Z" style="fill:#e8a4d2"/><path d="M32.1,17.1a2.7,2.7,0,0,1-2,1.2,2.9,2.9,0,0,1-2.4-.5,2.3,2.3,0,0,1-.6-1.2l-1,.9s3.7,4.5,7.3.1a4.8,4.8,0,0,0-1.1-1.1A1.4,1.4,0,0,1,32.1,17.1Z" style="fill:#f1caca;opacity:0.5;mix-blend-mode:multiply"/><path d="M41.6,23.7s.3-5.8-5.4-5C36.2,18.7,35.6,24.2,41.6,23.7Z" style="fill:#e8a4d2"/><path d="M36.9,20a2.7,2.7,0,0,1,2.3.4c.6.5,1.4,1.2,1.4,2a2.8,2.8,0,0,1-.3,1.3h1.3s.3-5.8-5.4-5a4.9,4.9,0,0,0,.1,1.6Z" style="fill:#f1caca;opacity:0.5;mix-blend-mode:multiply"/><path d="M28.5,11.5s-.3,5.8,5.4,5C33.9,16.5,34.5,11,28.5,11.5Z" style="fill:#e8a4d2"/><path d="M33.2,15.2a2.4,2.4,0,0,1-2.3-.5,2.7,2.7,0,0,1-1.4-2,2.7,2.7,0,0,1,.3-1.2H28.5s-.3,5.8,5.4,5c0,0,0-.7-.1-1.6Z" style="fill:#f1caca;opacity:0.5;mix-blend-mode:multiply"/><path d="M34.9,21.2a3.7,3.7,0,0,1,0-7.3,3.7,3.7,0,1,1,0,7.3Z" style="fill:#fcd54d"/><path d="M34.9,14.4a3.2,3.2,0,1,1,0,6.3,3.2,3.2,0,0,1,0-6.3m0-1a4.2,4.2,0,1,0,4.2,4.2,4.2,4.2,0,0,0-4.2-4.2Z" style="fill:#ffaa5a"/><path d="M35.5,20.1A2.5,2.5,0,0,1,33,17.6,2.6,2.6,0,0,1,35.5,15a2.6,2.6,0,0,1,2.6,2.6,3.2,3.2,0,1,0-6.3,0,3.2,3.2,0,0,0,6.3,0A2.6,2.6,0,0,1,35.5,20.1Z" style="fill:#fcd54d;opacity:0.5;mix-blend-mode:multiply"/><path d="M35,8.7l.6.6c2.1,2.2,1.5,4.2.6,5.4h.2c.6-2.8,3.2-3.2,4.5-3.2h.8a1.9,1.9,0,0,1-.1.8v.4h0a4.6,4.6,0,0,1-1.4,2.7,5.5,5.5,0,0,1,3.7,2l-.5.5-.4.3h0a4.3,4.3,0,0,1-2.7,1.1h-.2a5.9,5.9,0,0,1,1.5,4.1h-.8c-2.1,0-3.3-.8-3.9-1.8.7,2.5-1.9,4.6-1.9,4.6l-.5-.6c-2.1-2.2-1.5-4.2-.6-5.4s-.2,0-.2-.1a4.3,4.3,0,0,1-4.5,3.2h-.8v-.8a4.8,4.8,0,0,1,1.5-3.2c-2.1,0-3.8-2-3.8-2l.6-.5a4.7,4.7,0,0,1,3.1-1.4H30a5.9,5.9,0,0,1-1.5-4.1h.8c2.1,0,3.3.8,3.9,1.8C32.5,10.7,35,8.7,35,8.7m-1.3,6h.1c-.1,0-.1-.1-.1-.2v.3m2.7,6a.4.4,0,0,0-.1-.3h-.1l.2.3M35,5.7a3,3,0,0,0-1.9.7,8.8,8.8,0,0,0-1.9,2.3l-1.8-.2H28.3a3.2,3.2,0,0,0-2.8,2.8,11.9,11.9,0,0,0,.3,2.6,3.1,3.1,0,0,0-1.1.9l-.8.7a3,3,0,0,0-.1,3.9,8.7,8.7,0,0,0,1.9,1.7,5.1,5.1,0,0,0-.2,1.3,4.5,4.5,0,0,0-.1,1.1,3.1,3.1,0,0,0,2.5,3h1.3l1.9-.2A8.3,8.3,0,0,0,32.3,28l.7.7a3.2,3.2,0,0,0,2.1.8,3,3,0,0,0,1.9-.7,11.3,11.3,0,0,0,1.9-2.3l1.9.2h1a3.2,3.2,0,0,0,2.8-2.9,11.3,11.3,0,0,0-.3-2.5l.6-.4h0l.5-.4a6,6,0,0,1,.8-.8,3,3,0,0,0,.1-3.9,8.7,8.7,0,0,0-1.9-1.7.9.9,0,0,0,.1-.5v-.2h0v-.5a4.1,4.1,0,0,0,.1-1.1,3,3,0,0,0-2.5-3H40.9L39,8.8a8.3,8.3,0,0,0-1.2-1.6,2.7,2.7,0,0,0-.8-.7,2.4,2.4,0,0,0-2-.8Z" style="fill:#ac538c"/><path d="M21.6,32.9s-4.5,3.7,0,7.3C21.6,40.2,26,36.9,21.6,32.9Z" style="fill:#e8a4d2"/><path d="M22.1,38.8a2.5,2.5,0,0,1-1.2-2,3,3,0,0,1,.5-2.4,3.9,3.9,0,0,1,1.1-.6l-.9-.9s-4.5,3.7,0,7.3A4.2,4.2,0,0,0,22.7,39,.7.7,0,0,1,22.1,38.8Z" style="fill:#f1caca;opacity:0.5;mix-blend-mode:multiply"/><path d="M21.6,50.7s4.4-3.6,0-7.3C21.6,43.4,17.1,46.7,21.6,50.7Z" style="fill:#e8a4d2"/><path d="M21.1,44.8a2.5,2.5,0,0,1,1.2,2,3,3,0,0,1-.5,2.4,3.9,3.9,0,0,1-1.1.6,7.6,7.6,0,0,0,.9.9s4.4-3.6,0-7.3a4.2,4.2,0,0,0-1.1,1.2Z" style="fill:#f1caca;opacity:0.5;mix-blend-mode:multiply"/><path d="M28.2,35.9s-5.6-.9-5.4,4.8C22.8,40.7,28.2,41.9,28.2,35.9Z" style="fill:#e8a4d2"/><path d="M24.1,40.2a2.6,2.6,0,0,1,.7-2.2,3.2,3.2,0,0,1,2.1-1.3,3.3,3.3,0,0,1,1.2.5,5.3,5.3,0,0,0,.1-1.3s-5.6-.9-5.4,4.8a4.6,4.6,0,0,0,1.6.1Z" style="fill:#f1caca;opacity:0.5;mix-blend-mode:multiply"/><path d="M14.9,47.7s5.7.9,5.5-4.8C20.4,42.9,14.9,41.8,14.9,47.7Z" style="fill:#e8a4d2"/><path d="M19,43.4a2.5,2.5,0,0,1-.6,2.2,3.2,3.2,0,0,1-2.2,1.3,2.2,2.2,0,0,1-1.1-.5,5.1,5.1,0,0,0-.2,1.3s5.7.9,5.5-4.8a4.6,4.6,0,0,0-1.6-.1A1.4,1.4,0,0,1,19,43.4Z" style="fill:#f1caca;opacity:0.5;mix-blend-mode:multiply"/><path d="M30.5,41.9s-3.6-4.5-7.3-.1C23.2,41.8,26.5,46.3,30.5,41.9Z" style="fill:#e8a4d2"/><path d="M24.5,42.3a2.8,2.8,0,0,1,2.1-1.2,3,3,0,0,1,2.4.5,2.2,2.2,0,0,1,.5,1.2l1-.9s-3.6-4.5-7.3-.1a4.2,4.2,0,0,0,1.2,1.1A1.3,1.3,0,0,1,24.5,42.3Z" style="fill:#f1caca;opacity:0.5;mix-blend-mode:multiply"/><path d="M12.7,41.7s3.6,4.5,7.3.1C20,41.8,16.7,37.3,12.7,41.7Z" style="fill:#e8a4d2"/><path d="M18.6,41.3a2.7,2.7,0,0,1-2,1.2,3,3,0,0,1-2.4-.5,3.9,3.9,0,0,1-.6-1.1l-.9.8s3.6,4.5,7.3.1a4.2,4.2,0,0,0-1.2-1.1A1.4,1.4,0,0,1,18.6,41.3Z" style="fill:#f1caca;opacity:0.5;mix-blend-mode:multiply"/><path d="M28.1,47.9s.4-5.8-5.3-5C22.8,42.9,22.2,48.4,28.1,47.9Z" style="fill:#e8a4d2"/><path d="M23.4,44.2a2.4,2.4,0,0,1,2.3.5,2.7,2.7,0,0,1,1.4,2,2.7,2.7,0,0,1-.3,1.2h1.3s.4-5.8-5.3-5a4.9,4.9,0,0,0,.1,1.6Z" style="fill:#f1caca;opacity:0.5;mix-blend-mode:multiply"/><path d="M15.1,35.7s-.4,5.8,5.3,5C20.4,40.7,21,35.2,15.1,35.7Z" style="fill:#e8a4d2"/><path d="M19.8,39.4a2.6,2.6,0,0,1-2.3-.4,2.8,2.8,0,0,1-1.4-2,1.9,1.9,0,0,1,.3-1.3H15.1s-.4,5.8,5.3,5a4.9,4.9,0,0,0-.1-1.6Z" style="fill:#f1caca;opacity:0.5;mix-blend-mode:multiply"/><path d="M21.5,45.4a3.6,3.6,0,0,1-3.6-3.6,3.6,3.6,0,1,1,7.2,0A3.6,3.6,0,0,1,21.5,45.4Z" style="fill:#fcd54d"/><path d="M21.5,38.6a3.2,3.2,0,1,1-3.2,3.2,3.1,3.1,0,0,1,3.2-3.2m0-1a4.2,4.2,0,1,0,0,8.3,4.2,4.2,0,0,0,0-8.3Z" style="fill:#ffaa5a"/><path d="M22.1,44.3a2.6,2.6,0,0,1-2.6-2.5,2.6,2.6,0,0,1,2.6-2.6,2.6,2.6,0,0,1,2.5,2.6,3.2,3.2,0,1,0-3.1,3.1,3.1,3.1,0,0,0,3.1-3.1A2.5,2.5,0,0,1,22.1,44.3Z" style="fill:#fcd54d;opacity:0.5;mix-blend-mode:multiply"/><path d="M21.6,32.9l.6.6a4.1,4.1,0,0,1,.6,5.4h.1a4.3,4.3,0,0,1,4.5-3.2h.8v.8a.9.9,0,0,1-.1.5h0a4.1,4.1,0,0,1-1.4,2.7,5.5,5.5,0,0,1,3.8,2l-.6.5q-.1.3-.3.3h-.1a4.3,4.3,0,0,1-2.7,1h-.2a5.4,5.4,0,0,1,1.5,4.1h-.8c-2.1,0-3.2-.8-3.8-1.8.6,2.6-1.9,4.6-1.9,4.6l-.6-.6a4.1,4.1,0,0,1-.6-5.4h-.2c-.6,2.8-3.1,3.2-4.5,3.2h-.8c0-.3.1-.5.1-.8a4.1,4.1,0,0,1,1.5-3.2,5.5,5.5,0,0,1-3.8-2l.6-.5a4.5,4.5,0,0,1,3-1.4h.3a5.4,5.4,0,0,1-1.5-4.1h.8a4.1,4.1,0,0,1,3.8,1.8c-.6-2.5,1.9-4.6,1.9-4.6m-1.3,6h0a.3.3,0,0,0-.1-.2v.2M23,45a.8.8,0,0,1-.1-.4h-.1a.8.8,0,0,0,.2.4M21.6,29.9a2.6,2.6,0,0,0-1.9.7,10.5,10.5,0,0,0-2,2.3l-1.8-.2H14.8a3.1,3.1,0,0,0-2.7,2.9,8.9,8.9,0,0,0,.2,2.5l-1.1.9-.7.7a2.9,2.9,0,0,0-.1,3.9,7.4,7.4,0,0,0,1.8,1.7,5.9,5.9,0,0,0-.2,1.3c0,.4-.1.8-.1,1.1a3,3,0,0,0,2.6,3h1.2l1.9-.2,1.2,1.6.8.7a2.7,2.7,0,0,0,2,.8,2.8,2.8,0,0,0,1.9-.7,8.4,8.4,0,0,0,2-2.3l1.8.2h1.1a3.2,3.2,0,0,0,2.7-2.8,9.5,9.5,0,0,0-.2-2.6l.5-.4h0l.5-.4a6,6,0,0,0,.8-.8,2.9,2.9,0,0,0,.1-3.9A7.4,7.4,0,0,0,31,38.3c0-.2.1-.4.1-.6h0c0-.2.1-.4.1-.6V35.9a3,3,0,0,0-2.5-3H27.4l-1.8.2-1.2-1.6-.8-.7a3.2,3.2,0,0,0-2-.8Z" style="fill:#ac538c"/><path d="M48.4,31.9s-4.5,3.6,0,7.3C48.4,39.2,52.8,35.9,48.4,31.9Z" style="fill:#e8a4d2"/><path d="M48.9,37.8a2.4,2.4,0,0,1-1.2-2,2.6,2.6,0,0,1,.5-2.4,2.4,2.4,0,0,1,1.1-.6l-.9-.9s-4.5,3.6,0,7.3A7.2,7.2,0,0,0,49.5,38Z" style="fill:#f1caca;opacity:0.5;mix-blend-mode:multiply"/><path d="M48.4,49.7s4.4-3.7,0-7.3C48.4,42.4,43.9,45.7,48.4,49.7Z" style="fill:#e8a4d2"/><path d="M47.9,43.7a2.7,2.7,0,0,1,1.2,2,2.9,2.9,0,0,1-.5,2.4,1.7,1.7,0,0,1-1.1.6,2.8,2.8,0,0,0,.9,1s4.4-3.7,0-7.3a4.2,4.2,0,0,0-1.1,1.2Z" style="fill:#f1caca;opacity:0.5;mix-blend-mode:multiply"/><path d="M55,34.9s-5.6-.9-5.4,4.8C49.6,39.7,55,40.8,55,34.9Z" style="fill:#e8a4d2"/><path d="M50.9,39.2a2.9,2.9,0,0,1,.7-2.3,3.5,3.5,0,0,1,2.1-1.2,2.2,2.2,0,0,1,1.2.5,5.7,5.7,0,0,0,.1-1.3s-5.6-.9-5.4,4.8a4.6,4.6,0,0,0,1.6.1Z" style="fill:#f1caca;opacity:0.5;mix-blend-mode:multiply"/><path d="M41.7,46.7s5.7.9,5.5-4.9C47.2,41.8,41.7,40.7,41.7,46.7Z" style="fill:#e8a4d2"/><path d="M45.8,42.4a2.5,2.5,0,0,1-.6,2.2c-.6.6-1.3,1.3-2.2,1.2a2.8,2.8,0,0,1-1.2-.4c0,.4-.1.8-.1,1.3s5.7.9,5.5-4.9H45.6A1.4,1.4,0,0,1,45.8,42.4Z" style="fill:#f1caca;opacity:0.5;mix-blend-mode:multiply"/><path d="M57.3,40.8s-3.6-4.4-7.3,0C50,40.8,53.3,45.3,57.3,40.8Z" style="fill:#e8a4d2"/><path d="M51.3,41.3a3.3,3.3,0,0,1,4.4-.7,1.7,1.7,0,0,1,.6,1.1,2.8,2.8,0,0,0,1-.9s-3.6-4.4-7.3,0a4.2,4.2,0,0,0,1.2,1.1A1.3,1.3,0,0,1,51.3,41.3Z" style="fill:#f1caca;opacity:0.5;mix-blend-mode:multiply"/><path d="M39.5,40.7s3.6,4.5,7.3.1C46.8,40.8,43.5,36.3,39.5,40.7Z" style="fill:#e8a4d2"/><path d="M45.4,40.3a2.7,2.7,0,0,1-2,1.2A2.9,2.9,0,0,1,41,41a2.7,2.7,0,0,1-.6-1.2l-.9.9s3.6,4.5,7.3.1a7.2,7.2,0,0,0-1.2-1.1A1.4,1.4,0,0,1,45.4,40.3Z" style="fill:#f1caca;opacity:0.5;mix-blend-mode:multiply"/><path d="M54.9,46.9s.4-5.8-5.3-5C49.6,41.9,49,47.4,54.9,46.9Z" style="fill:#e8a4d2"/><path d="M50.2,43.2a2.4,2.4,0,0,1,2.3.4c.6.5,1.4,1.2,1.4,2a2.8,2.8,0,0,1-.3,1.3h1.3s.4-5.8-5.3-5a4.9,4.9,0,0,0,.1,1.6A.9.9,0,0,1,50.2,43.2Z" style="fill:#f1caca;opacity:0.5;mix-blend-mode:multiply"/><path d="M41.9,34.7s-.4,5.8,5.3,5C47.2,39.7,47.8,34.2,41.9,34.7Z" style="fill:#e8a4d2"/><path d="M46.6,38.4a2.4,2.4,0,0,1-2.3-.5,2.8,2.8,0,0,1-1.5-2,2.8,2.8,0,0,1,.4-1.2H41.9s-.4,5.8,5.3,5a4.9,4.9,0,0,0-.1-1.6Z" style="fill:#f1caca;opacity:0.5;mix-blend-mode:multiply"/><path d="M48.3,44.4a3.8,3.8,0,0,1-3.7-3.7,3.7,3.7,0,0,1,3.7-3.6,3.6,3.6,0,0,1,3.6,3.6A3.7,3.7,0,0,1,48.3,44.4Z" style="fill:#fcd54d"/><path d="M48.3,37.6a3.2,3.2,0,0,1,0,6.3,3.2,3.2,0,1,1,0-6.3m0-1a4.2,4.2,0,1,0,0,8.3,4.2,4.2,0,0,0,0-8.3Z" style="fill:#ffaa5a"/><path d="M48.9,43.3a2.6,2.6,0,0,1-2.6-2.6,2.6,2.6,0,0,1,2.6-2.5,2.5,2.5,0,0,1,2.5,2.5,3.2,3.2,0,0,0-6.3,0,3.2,3.2,0,1,0,6.3,0A2.6,2.6,0,0,1,48.9,43.3Z" style="fill:#fcd54d;opacity:0.5;mix-blend-mode:multiply"/><path d="M48.4,31.9l.5.5c2.1,2.3,1.5,4.3.7,5.5h.1a4.3,4.3,0,0,1,4.5-3.2H55v.8a4.6,4.6,0,0,1-1.5,3.2,5.6,5.6,0,0,1,3.8,1.9,3.4,3.4,0,0,1-.6.6l-.4.3h0a3.9,3.9,0,0,1-2.7,1.1h-.2a5.4,5.4,0,0,1,1.5,4.1H53.6a4,4,0,0,1-3.3-1.8c.6,2.5-1.9,4.6-1.9,4.6l-.6-.6a4,4,0,0,1-.6-5.4H47c-.6,2.8-3.2,3.1-4.5,3.1h-.8c0-.3.1-.5.1-.8a4.1,4.1,0,0,1,1.5-3.2,5.5,5.5,0,0,1-3.8-2l.6-.5a4.1,4.1,0,0,1,3-1.4h.3a5.4,5.4,0,0,1-1.5-4.1h1.3a4,4,0,0,1,3.3,1.8c-.6-2.6,1.9-4.6,1.9-4.6m-1.3,6h0a.3.3,0,0,1-.1-.2.4.4,0,0,0,.1.3m2.7,6c-.1-.1-.1-.2-.1-.4h-.2l.3.3m-1.4-15a2.6,2.6,0,0,0-1.9.7,8.4,8.4,0,0,0-2,2.3l-1.1-.2H41.6a3.1,3.1,0,0,0-2.7,2.8,9.5,9.5,0,0,0,.2,2.6l-1.1.8-.7.8a2.9,2.9,0,0,0-.1,3.9A5.7,5.7,0,0,0,39,44.3a5.1,5.1,0,0,0-.2,1.3c0,.4-.1.7-.1,1.1a3.1,3.1,0,0,0,2.6,3h3.1l1.2,1.6.8.7a3.2,3.2,0,0,0,2,.8,2.8,2.8,0,0,0,1.9-.7,8.7,8.7,0,0,0,1.9-2.3l1.2.2h1.8A2.9,2.9,0,0,0,57.9,47a11.3,11.3,0,0,0-.3-2.5l.6-.4h0l.5-.5.8-.7a3,3,0,0,0,.1-3.9,7.4,7.4,0,0,0-1.8-1.7c.1-.4.1-.9.2-1.3V34.9a2.9,2.9,0,0,0-2.5-3H54.2l-1.9.2a8.3,8.3,0,0,0-1.2-1.6l-.7-.8a3.1,3.1,0,0,0-2-.7Z" style="fill:#ac538c"/><path d="M35,24.3s-4.4,3.6,0,7.3C35,31.6,39.5,28.2,35,24.3Z" style="fill:#e8a4d2"/><path d="M35.5,30.2a2.7,2.7,0,0,1-1.2-2,2.9,2.9,0,0,1,.5-2.4,2.4,2.4,0,0,1,1.1-.6,3.8,3.8,0,0,0-.9-.9s-4.4,3.6,0,7.3a11.4,11.4,0,0,0,1.2-1.2Z" style="fill:#f1caca;opacity:0.5;mix-blend-mode:multiply"/><path d="M35,42.1s4.5-3.7,0-7.3C35,34.8,30.6,38.1,35,42.1Z" style="fill:#e8a4d2"/><path d="M34.5,36.1a2.5,2.5,0,0,1,1.3,2,2.9,2.9,0,0,1-.5,2.4,2.4,2.4,0,0,1-1.1.6l.8,1s4.5-3.7,0-7.3l-1.1,1.1Z" style="fill:#f1caca;opacity:0.5;mix-blend-mode:multiply"/><path d="M41.7,27.2s-5.7-.9-5.5,4.9C36.2,32.1,41.7,33.2,41.7,27.2Z" style="fill:#e8a4d2"/><path d="M37.6,31.6a2.4,2.4,0,0,1,.7-2.3,2.6,2.6,0,0,1,2.1-1.2,2.8,2.8,0,0,1,1.2.4,5.3,5.3,0,0,0,.1-1.3s-5.7-.9-5.5,4.9a8.1,8.1,0,0,0,1.7,0A.5.5,0,0,1,37.6,31.6Z" style="fill:#f1caca;opacity:0.5;mix-blend-mode:multiply"/><path d="M28.4,39.1s5.7.9,5.5-4.9C33.9,34.2,28.4,33.1,28.4,39.1Z" style="fill:#e8a4d2"/><path d="M32.5,34.7a2.4,2.4,0,0,1-.7,2.3,2.7,2.7,0,0,1-2.1,1.2,2.8,2.8,0,0,1-1.2-.4,5.3,5.3,0,0,0-.1,1.3s5.7.9,5.5-4.9a8.1,8.1,0,0,0-1.7,0C32.4,34.3,32.4,34.5,32.5,34.7Z" style="fill:#f1caca;opacity:0.5;mix-blend-mode:multiply"/><path d="M43.9,33.2s-3.6-4.5-7.3,0C36.6,33.2,39.9,37.6,43.9,33.2Z" style="fill:#e8a4d2"/><path d="M38,33.7a2.4,2.4,0,0,1,2-1.2,2.9,2.9,0,0,1,2.4.5,2.4,2.4,0,0,1,.6,1.1,3.8,3.8,0,0,0,.9-.9s-3.6-4.5-7.3,0a7.2,7.2,0,0,0,1.2,1.1A1.4,1.4,0,0,1,38,33.7Z" style="fill:#f1caca;opacity:0.5;mix-blend-mode:multiply"/><path d="M26.1,33.1s3.7,4.5,7.3,0C33.4,33.1,30.1,28.7,26.1,33.1Z" style="fill:#e8a4d2"/><path d="M32.1,32.6a2.2,2.2,0,0,1-2,1.2,2.9,2.9,0,0,1-2.4-.5,2.4,2.4,0,0,1-.6-1.1l-1,.9s3.7,4.5,7.3,0A9.2,9.2,0,0,0,32.3,32,1.4,1.4,0,0,1,32.1,32.6Z" style="fill:#f1caca;opacity:0.5;mix-blend-mode:multiply"/><path d="M41.6,39.2s.3-5.7-5.4-5C36.2,34.2,35.6,39.8,41.6,39.2Z" style="fill:#e8a4d2"/><path d="M36.9,35.5a2.8,2.8,0,0,1,2.3.5c.6.5,1.4,1.2,1.4,2a2.1,2.1,0,0,1-.3,1.2h1.3s.3-5.7-5.4-5a5.6,5.6,0,0,0,.1,1.7Z" style="fill:#f1caca;opacity:0.5;mix-blend-mode:multiply"/><path d="M28.5,27.1s-.3,5.7,5.4,5C33.9,32.1,34.5,26.5,28.5,27.1Z" style="fill:#e8a4d2"/><path d="M33.2,30.8a2.8,2.8,0,0,1-2.3-.5c-.6-.5-1.4-1.1-1.4-2a2.7,2.7,0,0,1,.3-1.2,2.8,2.8,0,0,0-1.3,0s-.3,5.7,5.4,5c0,0,0-.8-.1-1.7Z" style="fill:#f1caca;opacity:0.5;mix-blend-mode:multiply"/><path d="M34.9,36.8a3.7,3.7,0,0,1-3.6-3.7,3.6,3.6,0,0,1,3.6-3.6,3.7,3.7,0,0,1,3.7,3.6A3.8,3.8,0,0,1,34.9,36.8Z" style="fill:#fcd54d"/><path d="M34.9,30a3.1,3.1,0,0,1,3.2,3.1,3.2,3.2,0,1,1-6.3,0A3.1,3.1,0,0,1,34.9,30m0-1a4.1,4.1,0,0,0-4.1,4.1,4.2,4.2,0,1,0,8.3,0A4.1,4.1,0,0,0,34.9,29Z" style="fill:#ffaa5a"/><path d="M35.5,35.7A2.6,2.6,0,0,1,33,33.1a2.5,2.5,0,0,1,2.5-2.5,2.6,2.6,0,0,1,2.6,2.5,3.2,3.2,0,0,0-6.3,0,3.2,3.2,0,1,0,6.3,0A2.6,2.6,0,0,1,35.5,35.7Z" style="fill:#fcd54d;opacity:0.5;mix-blend-mode:multiply"/><path d="M35,24.3c.3.2.5.3.6.5l.3.4h0a4,4,0,0,1,.3,5.1h.2c.6-2.8,3.2-3.2,4.5-3.2h.8a1.9,1.9,0,0,1-.1.8v.5h0a4.3,4.3,0,0,1-1.4,2.7,5.5,5.5,0,0,1,3.7,2l-.5.6a4.7,4.7,0,0,1-3.1,1.4h-.2a5.6,5.6,0,0,1,1.5,4h-.8c-2.1-.1-3.3-.9-3.9-1.9.6,2.6-1.9,4.7-1.9,4.7l-.5-.6-.3-.4h0a4,4,0,0,1-.3-5.1h-.2a4.3,4.3,0,0,1-4.5,3.1h-.8v-.8a1.1,1.1,0,0,0,.1-.5h0a4.3,4.3,0,0,1,1.4-2.7c-2.1,0-3.8-2-3.8-2l.6-.6a4.7,4.7,0,0,1,3.1-1.4H30a5.9,5.9,0,0,1-1.5-4.1h.8a4.3,4.3,0,0,1,3.9,1.8c-.7-2.6,1.8-4.6,1.8-4.6m-1.3,5.9h.1c-.1-.1-.1-.1-.1-.2v.2m2.7,6.1a.6.6,0,0,0-.1-.4.1.1,0,0,1-.1.1l.2.3M35,21.3a3.5,3.5,0,0,0-1.9.6,11.3,11.3,0,0,0-1.9,2.3H28.3a3,3,0,0,0-2.8,2.8,10.8,10.8,0,0,0,.3,2.5l-1.1.9-.8.8a3,3,0,0,0-.1,3.9,24.5,24.5,0,0,0,1.9,1.7c-.1.2-.1.4-.2.6h0V38a3.7,3.7,0,0,0-.1,1.1A3,3,0,0,0,27.9,42h1.3a5.8,5.8,0,0,0,1.9-.2l.6,1a.1.1,0,0,1,.1.1h.1l.4.4a2.9,2.9,0,0,0,.8.8,2.8,2.8,0,0,0,2,.8,3.7,3.7,0,0,0,1.9-.7,11.3,11.3,0,0,0,1.9-2.3l1.8.2h1.1a3,3,0,0,0,2.8-2.8,11.3,11.3,0,0,0-.3-2.5l1.1-.9a6,6,0,0,0,.8-.8,3,3,0,0,0,.1-3.9,15.3,15.3,0,0,0-1.9-1.6,1.5,1.5,0,0,0,.1-.7h0a1.5,1.5,0,0,0,.1-.7,3.7,3.7,0,0,0,.1-1.1,3,3,0,0,0-2.5-2.9H40.9l-1.9.2-.7-1.1h0l-.5-.5A6,6,0,0,0,37,22a2.7,2.7,0,0,0-2-.7Z" style="fill:#ac538c"/></g></g></g></svg>