<svg xmlns="http://www.w3.org/2000/svg" viewBox="0 0 94.2 93.8"><g style="isolation:isolate"><g id="Layer_2" data-name="Layer 2"><g id="Layer_1-2" data-name="Layer 1"><polygon points="16.7 52.7 17.3 42.4 82.7 42.2 82.7 52.7 16.7 52.7" style="fill:#924f28"/><polygon points="19.8 42.1 20.1 52.2 11.2 52.2 19.8 42.1" style="fill:#924f28"/><polygon points="80.4 42.1 80.1 52.2 88.9 52.2 80.4 42.1" style="fill:#924f28"/><g style="mix-blend-mode:multiply"><rect x="19.8" y="42.3" width="2.1" height="8.33" style="fill:#af7553"/></g><g style="mix-blend-mode:multiply"><polygon points="80.1 50.6 78 50.6 78 42.3 80.4 42.3 80.1 50.6" style="fill:#af7553"/></g><path d="M88.7,53.5a1.6,1.6,0,0,1-1.1-.5l-7.8-9.4H20.2L12.6,53a1.7,1.7,0,0,1-1.2.5H9.1a1.3,1.3,0,0,1-1.3-.9A1.4,1.4,0,0,1,8,51l8-9.4a.8.8,0,0,0,.2-.4l1-1.1a1.4,1.4,0,0,1,1.1-.6H81.5a1.8,1.8,0,0,1,1,.4l1.1,1,.4.5L92.2,51a1.8,1.8,0,0,1,.2,1.6,1.5,1.5,0,0,1-1.4.9Z" style="fill:#ddab88"/><path d="M81.5,41l1.1,1.1h-.1L91,52H88.7l-8.2-9.9h-61L11.4,52H9.1l8.4-9.8h-.1l.9-1.2H81.5m0-3H18.3A3,3,0,0,0,16,39.1l-.9,1.2-.3.5-8,9.3a3.1,3.1,0,0,0-.4,3.2A3.1,3.1,0,0,0,9.1,55h2.3a2.8,2.8,0,0,0,2.3-1.1l7.2-8.7H79.1l7.3,8.8A3,3,0,0,0,88.7,55H91a3,3,0,0,0,2.3-4.9l-8.1-9.5a1.6,1.6,0,0,0-.6-.8l-1.1-1a3,3,0,0,0-2-.8Z" style="fill:#75411a"/><path d="M49.6,62.2a8.4,8.4,0,0,1-6.8-3.5,8.4,8.4,0,0,1-15.2-4.9,8.6,8.6,0,0,1,.1-1.6,12,12,0,0,1-3.9-8.9,15.5,15.5,0,0,1,.4-3.1A15.4,15.4,0,0,1,21,30.9,14.7,14.7,0,0,1,27,19a8.6,8.6,0,0,1-.1-1.6,15.9,15.9,0,1,1,31.7,0,8.6,8.6,0,0,1-.1,1.6,14.9,14.9,0,0,1,2.8,21.2,11,11,0,0,1,.4,3.1,12,12,0,0,1-3.9,8.9,8.8,8.8,0,0,1,.2,1.6A8.5,8.5,0,0,1,49.6,62.2Z" style="fill:#6c9433"/><path d="M42.8,3A14.3,14.3,0,0,1,57.1,17.4a9,9,0,0,1-.2,2.3A13.3,13.3,0,0,1,63,30.9a13.5,13.5,0,0,1-3.4,9,9.3,9.3,0,0,1,.6,3.4,10.7,10.7,0,0,1-4.1,8.4,7.1,7.1,0,0,1,.4,2.1,6.9,6.9,0,0,1-13.7.8,6.9,6.9,0,0,1-13.7-.8,7.1,7.1,0,0,1,.3-2.1,10.7,10.7,0,0,1-4.1-8.4,9.3,9.3,0,0,1,.6-3.4,13.5,13.5,0,0,1-3.4-9,13.3,13.3,0,0,1,6.1-11.2,17.9,17.9,0,0,1-.2-2.3A14.3,14.3,0,0,1,42.8,3m0,50a3.1,3.1,0,0,1,.3-1.3l-.3-.3-.3.3.3,1.3m0-53A17.4,17.4,0,0,0,25.4,17.4v.9a16.5,16.5,0,0,0-5.9,12.6,16.2,16.2,0,0,0,3.1,9.6,13.3,13.3,0,0,0-.3,2.8,13.5,13.5,0,0,0,3.8,9.4v1.1a9.8,9.8,0,0,0,16.7,7.1,9.8,9.8,0,0,0,16.7-7.1c0-.4-.1-.7-.1-1.1a13.5,13.5,0,0,0,3.8-9.4,13.3,13.3,0,0,0-.3-2.8A16.2,16.2,0,0,0,66,30.9a16.5,16.5,0,0,0-5.9-12.6v-.9A17.4,17.4,0,0,0,42.8,0Z" style="fill:#507125"/><path d="M42.8,74.9c-4.5,0-7.9-2.3-7.9-5.3a111.5,111.5,0,0,1,2.9-17.1l-.4-.3a10.5,10.5,0,0,1-2.1-3.5,4.6,4.6,0,0,1-.4-1.3,3.2,3.2,0,0,1-.1-.7,1.6,1.6,0,0,1,.7-1.4l.8-.2a1.3,1.3,0,0,1,.8.3l.5.3.9.8,1,.8v-.9l-.3-.2-1.8-1.5a9.2,9.2,0,0,1-2.1-3.4,5.8,5.8,0,0,1-.4-1.3,3.2,3.2,0,0,1-.1-.7,1.6,1.6,0,0,1,.7-1.4l.8-.2.8.2.5.4.9.8a4.1,4.1,0,0,1,1,.9V38l-.8-.5a8.3,8.3,0,0,1-1.5-1.7,11.1,11.1,0,0,1-1.8-3.6,11.5,11.5,0,0,1-.2-1.4,1.4,1.4,0,0,1,0-.7,1.3,1.3,0,0,1,.9-1.3h.6l.9.3.4.4a3.8,3.8,0,0,1,.9.9l.8.9c0-.7.1-1.5.1-2.2l-.3-.2-.8-.8a7.6,7.6,0,0,1-1.2-1.9,10.9,10.9,0,0,1-1.1-3.9,8.2,8.2,0,0,1-.1-1.4,3.2,3.2,0,0,0,.1-.7A1.7,1.7,0,0,1,37.5,19h.4a1.5,1.5,0,0,1,1.1.4l.4.5.7,1,.3.5c.1-.7.1-1.4.2-2l.3-2.3v-.4a7.4,7.4,0,0,0,.2-1.2V14.4a1.5,1.5,0,0,1,1.5-1.3,1.7,1.7,0,0,1,1.5,1.3v1a5.2,5.2,0,0,1,.2,1.4v.4c.1.6.2,1.4.3,2.2a18,18,0,0,0,.2,2.2,1.6,1.6,0,0,1,.4-.7l.7-1,.4-.5a1.2,1.2,0,0,1,1.1-.4h.4a1.4,1.4,0,0,1,1,1.1,2.4,2.4,0,0,1,.1.7,3.2,3.2,0,0,1,0,1.4,10.9,10.9,0,0,1-1.1,3.9A12.7,12.7,0,0,1,46.9,28a3,3,0,0,1-.8.8l-.4.3c.1.7.1,1.5.2,2.3l.9-1.1a3.8,3.8,0,0,1,.9-.9,1.2,1.2,0,0,1,.4-.4,1.4,1.4,0,0,1,.9-.3h.6a1.4,1.4,0,0,1,.9,1.3v.7a5,5,0,0,1-.3,1.4,10.8,10.8,0,0,1-1.7,3.6,8.7,8.7,0,0,1-1.6,1.7l-.9.6c0,.7.1,1.3.1,2a9.4,9.4,0,0,1,1-1l1-.8.5-.4.8-.2.8.2a1.9,1.9,0,0,1,.7,1.4,3.2,3.2,0,0,1-.1.7c-.1.3-.2.8-.4,1.3a11.1,11.1,0,0,1-2.2,3.4,8,8,0,0,1-1.7,1.5l-.5.3h0a1.9,1.9,0,0,0,.1.8l1-.9,1-.8.5-.3a1.1,1.1,0,0,1,.8-.3l.8.2a1.9,1.9,0,0,1,.7,1.4,3.2,3.2,0,0,1-.1.7c-.1.3-.2.8-.4,1.3a12.9,12.9,0,0,1-2.2,3.5l-.4.4a108.9,108.9,0,0,1,2.9,17C50.7,72.6,47.2,74.9,42.8,74.9Z" style="fill:#fafcfb"/><path d="M42.8,14.6a2.8,2.8,0,0,0,.1.6,14.9,14.9,0,0,0,.2,1.7c.1.8.3,1.7.4,2.7s.2,2.2.3,3.4l.3,3.8h.1l.3-.6.4-.7.4-.8a10.9,10.9,0,0,1,.8-1.5c.2-.5.5-1,.7-1.4l.7-.9.3-.4v.5a2.4,2.4,0,0,1,0,1.2,11.7,11.7,0,0,1-.9,3.3A9.1,9.1,0,0,1,45.8,27l-.6.6-.7.5h-.3c.1,1.1.1,2.3.2,3.4s.1,2.7.1,4.1l.4-.5.4-.6.5-.7a17.1,17.1,0,0,1,1.1-1.4,6.3,6.3,0,0,1,1-1.2l.8-.8.3-.3v.4a7.4,7.4,0,0,1-.2,1.2,9.8,9.8,0,0,1-1.5,3.1A8.6,8.6,0,0,1,46,36.3l-.8.5-.7.4c.1,1.4.1,2.9.1,4.3v2.3h.1l.5-.6.6-.6L47,41.3l1.1-1.1.9-.7.4-.3a1.8,1.8,0,0,1-.1.5,3.6,3.6,0,0,1-.3,1.1,9.6,9.6,0,0,1-1.9,2.9A8.6,8.6,0,0,1,45.7,45l-.8.4h-.4v1h0a4.6,4.6,0,0,0,.4,2.1l.6,1.6.3-.3L47,48.7l1.1-1.1.9-.7.4-.3a1.8,1.8,0,0,1-.1.5,3,3,0,0,1-.3,1.1,9.6,9.6,0,0,1-1.9,2.9l-1,1a103.7,103.7,0,0,1,3.1,17.5c0,2.1-2.9,3.8-6.4,3.8s-6.4-1.7-6.4-3.8A104.3,104.3,0,0,1,39.5,52l-1-.9a9.2,9.2,0,0,1-1.8-2.9,3,3,0,0,1-.3-1.1,1.8,1.8,0,0,1-.1-.5l.4.3.8.7,1.2,1.1,1.2,1.2v.2l.6-1.5a4.6,4.6,0,0,0,.4-2.1h0v-1h-.2L40,45l-1.5-1.3a9.2,9.2,0,0,1-1.8-2.9,3.6,3.6,0,0,1-.3-1.1,1.8,1.8,0,0,1-.1-.5l.4.3.8.7,1.2,1.1,1.2,1.2.5.6.6.6V37.1c-.2-.1-.4-.1-.6-.3l-.7-.5a8.6,8.6,0,0,1-1.3-1.4,8,8,0,0,1-1.5-3.1,7.4,7.4,0,0,1-.2-1.2v-.4l.3.3.8.8,1,1.2,1,1.4a1.8,1.8,0,0,1,.5.7l.5.6.3.3c0-1.3,0-2.6.1-3.9s.1-2.3.2-3.4h-.2l-.7-.5c-.2-.1-.4-.4-.6-.6a5.7,5.7,0,0,1-1.1-1.6,9.5,9.5,0,0,1-1-3.3V20.9a1.8,1.8,0,0,0,.1-.5l.3.4a3.5,3.5,0,0,1,.6.9c.3.4.5.9.8,1.4l.8,1.5c.1.3.3.5.4.8a2.5,2.5,0,0,0,.4.7l.3.5c0-1.2.1-2.4.2-3.6s.3-2.4.4-3.4.2-1.9.3-2.7.2-1.3.3-1.7a1.5,1.5,0,0,1,.1-.6m6.6,32h0m-6.6-35h0a3.1,3.1,0,0,0-3,2.5v.6h0a.6.6,0,0,1-.1.4,9.3,9.3,0,0,1-.2,1.4V17c0,.2-.1.5-.1.8a3.2,3.2,0,0,0-1.4-.3h-.8A2.7,2.7,0,0,0,35,19.8c-.1.1-.1.4-.2.9a11,11,0,0,0,.1,1.6,11.1,11.1,0,0,0,1.2,4.4l.3.5a1.7,1.7,0,0,0-1,.3A2.7,2.7,0,0,0,33.7,30a2.6,2.6,0,0,0,0,.9,6.9,6.9,0,0,0,.3,1.6,11.7,11.7,0,0,0,1.7,3.8l-1,.4a2.9,2.9,0,0,0-1.4,2.7,3.9,3.9,0,0,0,.1.9,12.6,12.6,0,0,0,.5,1.6,20,20,0,0,0,1,2.1h-.2a2.9,2.9,0,0,0-1.4,2.7,3.9,3.9,0,0,0,.1.9,12.6,12.6,0,0,0,.5,1.6,15.1,15.1,0,0,0,2.2,3.6,115.8,115.8,0,0,0-2.7,16.7c0,3.9,4,6.8,9.4,6.8s9.4-2.9,9.4-6.8A115.1,115.1,0,0,0,49.5,53a12,12,0,0,0,2.3-3.7l.5-1.6c0-.3,0-.5.1-.6v-.5a3,3,0,0,0-1.7-2.7,7.8,7.8,0,0,0,1.1-2l.5-1.6a7.8,7.8,0,0,1,.1-.9,2.8,2.8,0,0,0-1.5-2.7l-.9-.4a11.7,11.7,0,0,0,1.7-3.8c.2-.7.2-1.3.3-1.6V30a2.7,2.7,0,0,0-1.8-2.5,1.6,1.6,0,0,0-.9-.3l.3-.4a14.3,14.3,0,0,0,1.2-4.5,4.8,4.8,0,0,0,0-1.7,5.4,5.4,0,0,0-.1-.8,2.8,2.8,0,0,0-2.2-2.2h-.7a3.7,3.7,0,0,0-1.5.3,2.5,2.5,0,0,1-.1-.8v-.5c-.1-.5-.1-.9-.2-1.3a.6.6,0,0,0-.1-.4h0v-.6a3,3,0,0,0-2.9-2.5Z" style="fill:#dfe590"/><path d="M24.9,67.7a8.1,8.1,0,0,1-7.7-5.2,7.5,7.5,0,0,1-.5-1.6,11.9,11.9,0,0,1-6.9-6.8,10.2,10.2,0,0,1-.8-3,14.9,14.9,0,0,1-6.4-7.4A14.6,14.6,0,0,1,3.7,30.4,10.1,10.1,0,0,1,3,28.9a15.9,15.9,0,0,1,.1-12.1,16.1,16.1,0,0,1,8.7-8.5,15.2,15.2,0,0,1,5.9-1.2,15.9,15.9,0,0,1,14.7,10l.6,1.6a14.6,14.6,0,0,1,9.9,8.8,14.4,14.4,0,0,1,.5,9.8,15.1,15.1,0,0,1,1.5,2.8,11.7,11.7,0,0,1-.3,9.7,6.4,6.4,0,0,1,.8,1.4,8.4,8.4,0,0,1-.1,6.4,8.8,8.8,0,0,1-4.6,4.5,8.1,8.1,0,0,1-3.1.6h0a8,8,0,0,1-4.5-1.4A8.3,8.3,0,0,1,28,67.1,8.1,8.1,0,0,1,24.9,67.7Z" style="fill:#96b85c"/><path d="M17.7,8.6A14.4,14.4,0,0,1,31,17.7a9.4,9.4,0,0,1,.7,2.2,13.3,13.3,0,0,1,10,17.7,9.2,9.2,0,0,1,1.8,3,10.8,10.8,0,0,1-.6,9.3A10.8,10.8,0,0,1,44,51.7a6.9,6.9,0,0,1-3.8,9,8.5,8.5,0,0,1-2.6.5,7,7,0,0,1-6.1-3.7,6.9,6.9,0,0,1-4,8.3,7.8,7.8,0,0,1-2.6.4,6.7,6.7,0,0,1-6.3-4.3,5.4,5.4,0,0,1-.5-2.1,10.8,10.8,0,0,1-7.7-9.6,13.7,13.7,0,0,1-6.4-7A13.3,13.3,0,0,1,5.4,30.5a20,20,0,0,1-1-2.1,14.3,14.3,0,0,1,8-18.7,14,14,0,0,1,5.3-1.1M31,56.1l-.3-1.4h-.3c-.1.1-.1.3-.2.4a4.4,4.4,0,0,1,.8,1.1M17.7,5.6a17.4,17.4,0,0,0-6.4,1.3,17.2,17.2,0,0,0-9.6,9.3,17.5,17.5,0,0,0-.1,13.3,3.6,3.6,0,0,0,.4.9,16.5,16.5,0,0,0-.8,13.9A16.1,16.1,0,0,0,7.6,52a13.8,13.8,0,0,0,.8,2.7,13.2,13.2,0,0,0,7,7.3,3,3,0,0,0,.4,1,9.7,9.7,0,0,0,9.1,6.2,9.4,9.4,0,0,0,3.7-.7,9.6,9.6,0,0,0,5.3-5,11.6,11.6,0,0,0,3.7.7,11.6,11.6,0,0,0,3.7-.7,10,10,0,0,0,5.5-12.9l-.5-.9a13.4,13.4,0,0,0,0-10.2A11.9,11.9,0,0,0,45,37a15.6,15.6,0,0,0-.7-10,16.1,16.1,0,0,0-10.1-9.5l-.4-.9a17.2,17.2,0,0,0-16.1-11Z" style="fill:#6c9433"/><path d="M35,77.3c-2.5,0-4.5-1.1-5.2-2.8a108.3,108.3,0,0,1-3.7-17l-.4-.2a11.2,11.2,0,0,1-3.3-2.4l-.9-1.1-.3-.6a1.4,1.4,0,0,1,.2-1.5,1.4,1.4,0,0,1,1.2-.6h.8l1.2.4,1.2.5c-.1-.3-.1-.5-.2-.8h-.5a7,7,0,0,1-2.2-.7A9.6,9.6,0,0,1,19.7,48l-.9-1.1-.3-.5a1.5,1.5,0,0,1,.1-1.6,1.6,1.6,0,0,1,1.2-.6h.3l.5.2,1.2.3,1.3.5a13.4,13.4,0,0,1-.7-1.8l-1-.2a7.5,7.5,0,0,1-2-1,9.8,9.8,0,0,1-3-2.7c-.4-.5-.6-1-.8-1.2a3.2,3.2,0,0,0-.2-.6,1.5,1.5,0,0,1,.3-1.6,2.1,2.1,0,0,1,1.1-.4h.4l.6.2,1.1.6L20,37c-.2-.7-.5-1.4-.7-2.1H19l-1.1-.4A10.7,10.7,0,0,1,16,33.1a12.6,12.6,0,0,1-2.5-3.2L13,28.6l-.2-.7a1.8,1.8,0,0,1,.6-1.4,1.6,1.6,0,0,1,.9-.3H15l.5.3,1.1.7.4.3-.6-1.9a22.5,22.5,0,0,1-.5-2.2v-.4a3.5,3.5,0,0,1-.3-1.3v-.4l-.2-.6a1.7,1.7,0,0,1,.9-1.7h.6a1.5,1.5,0,0,1,1.3.7l.3.5.2.4.7,1.2.2.3,1.1,2c.3.6.7,1.2,1,1.9a1.7,1.7,0,0,0,.1-.7,13,13,0,0,1,.3-1.3l.2-.5a1.7,1.7,0,0,1,1.2-1h.2a1.4,1.4,0,0,1,1.2.7l.4.6.5,1.3a10.5,10.5,0,0,1,.4,4,7.9,7.9,0,0,1-.5,2.2c-.1.4-.3.8-.4,1.1l-.3.4,1,2.1c.1-.5.3-1,.4-1.4l.5-1.1a1.4,1.4,0,0,1,.3-.6,1.4,1.4,0,0,1,1.3-.7h0a1.4,1.4,0,0,1,1.3.9l.3.6c0,.3.2.8.2,1.4a10.9,10.9,0,0,1-.2,4,10.2,10.2,0,0,1-.8,2.1l-.6,1,.7,1.8.6-1.4.7-1.1a.7.7,0,0,1,.3-.4,1.4,1.4,0,0,1,1.2-.6h.2a1.4,1.4,0,0,1,1.2,1,3.2,3.2,0,0,1,.2.6c0,.3.1.8.1,1.4a14,14,0,0,1-.7,4,9.5,9.5,0,0,1-1.1,2l-.3.5h0a2,2,0,0,0,.4.8l.6-1.3.6-1.1.3-.5a1.6,1.6,0,0,1,1.2-.6H35a1.4,1.4,0,0,1,1.2,1,2.8,2.8,0,0,0,.1.6,5.3,5.3,0,0,1,.1,1.4,9.4,9.4,0,0,1-.7,4c-.1.2-.1.4-.2.5a108.5,108.5,0,0,1,9,14.8c1.1,2.8-1.3,6.2-5.4,7.9A11.9,11.9,0,0,1,35,77.3Z" style="fill:#fafcfb"/><path d="M16.7,20.5l.3.5.9,1.5,1.3,2.3,1.6,3.1,1.7,3.4h0a1.7,1.7,0,0,1,.1-.7v-.8a2.8,2.8,0,0,0,.1-.9c.1-.6.1-1.2.2-1.7a6.1,6.1,0,0,1,.2-1.5,10.4,10.4,0,0,1,.3-1.2,1,1,0,0,1,.1-.4l.2.4a6.6,6.6,0,0,1,.4,1.1,9.4,9.4,0,0,1,.4,3.5,11.6,11.6,0,0,1-.4,1.8,3.6,3.6,0,0,1-.4.9l-.4.7a.2.2,0,0,0-.2.2c.4,1,.9,2,1.4,3.1s1.1,2.4,1.6,3.7.1-.4.2-.6l.2-.8c.1-.3.1-.5.2-.8s.3-1.1.4-1.7a12.1,12.1,0,0,0,.5-1.4,5.8,5.8,0,0,1,.5-1.1,1.1,1.1,0,0,1,.2-.4,1.6,1.6,0,0,0,.1.4,10.4,10.4,0,0,1,.3,1.2,10.5,10.5,0,0,1-.3,3.4,4.8,4.8,0,0,1-.7,1.8,2.2,2.2,0,0,1-.5.8,1.2,1.2,0,0,1-.5.5l1.7,4.1a18,18,0,0,0,.8,2.1h.1l.3-.8.3-.8.6-1.6c.2-.5.5-1,.7-1.4a9.3,9.3,0,0,0,.5-1l.3-.4a1.8,1.8,0,0,0,.1.5c0,.3.1.7.1,1.1a11.7,11.7,0,0,1-.6,3.5l-.9,1.7-.6.7-.3.2.4.9h0a4.2,4.2,0,0,0,1.1,1.8l1.2,1.3v-.4l.7-1.6.6-1.4a4.4,4.4,0,0,1,.6-1l.2-.4a1.2,1.2,0,0,1,.1.5,3.4,3.4,0,0,1,.1,1.1,7.2,7.2,0,0,1-.6,3.4,5.2,5.2,0,0,1-.6,1.3,111.8,111.8,0,0,1,9.4,15.2c.8,1.9-1.2,4.6-4.5,5.9a10,10,0,0,1-3.6.7c-1.8,0-3.3-.7-3.8-1.9a110.2,110.2,0,0,1-3.7-17.5l-1.2-.5a10,10,0,0,1-2.8-2l-.7-.9c-.2-.3-.2-.4-.2-.4H23l1.1.3,1.4.6,1.6.7h.3a8.6,8.6,0,0,1-.1-1.6,3.9,3.9,0,0,0-.4-2.1h0a3.6,3.6,0,0,0-.4-.9H25.4a12.7,12.7,0,0,1-1.8-.6A9.3,9.3,0,0,1,20.8,47a5.7,5.7,0,0,1-.8-.9l-.2-.4h.4l1.1.4,1.5.5,1.6.7.7.4.8.3-.9-2c-.5-1.4-1.1-2.7-1.6-4.1h-.6l-.9-.2L20.2,41a10.2,10.2,0,0,1-2.6-2.4,3.7,3.7,0,0,1-.6-1,1.1,1.1,0,0,0-.2-.4h.4l1.1.5,1.3.7,1.5.9.7.5.7.4.4.2-1.4-3.6c-.4-1.2-.7-2.3-1.1-3.3h-.1l-.9-.2-.8-.3A9.1,9.1,0,0,1,17,32a8.5,8.5,0,0,1-2.1-2.8l-.5-1.1a1,1,0,0,0-.1-.4l.4.2,1,.6,1.2,1,1.3,1.1.6.6.7.5.4.4c-.4-1.2-.7-2.4-1-3.4s-.7-2.4-1-3.4-.5-1.8-.7-2.5l-.4-1.7a2.8,2.8,0,0,1-.1-.6m0-3-1.1.2a2.9,2.9,0,0,0-1.8,3.4v.6h0c0,.1.1.2.1.4a13,13,0,0,1,.3,1.3v.4c.1.3.1.5.2.8h-.3a3.2,3.2,0,0,0-1.8.6,3,3,0,0,0-1.1,2.9,1.7,1.7,0,0,0,.2.8,11.6,11.6,0,0,0,.6,1.6A14,14,0,0,0,15,34.2l.4.3-.8.6a3.1,3.1,0,0,0-.6,3.1,2.7,2.7,0,0,0,.3.8l.9,1.4a13.5,13.5,0,0,0,3,2.8,2.7,2.7,0,0,0-.8.7,2.9,2.9,0,0,0-.3,3.1l.5.8a6.4,6.4,0,0,0,1,1.3l1.7,1.5c0,.1-.1.1-.1.2a2.9,2.9,0,0,0-.3,3.1,5.4,5.4,0,0,0,.4.8l1,1.3a18.3,18.3,0,0,0,3.5,2.5A110.7,110.7,0,0,0,28.4,75c1,2.4,3.4,3.8,6.6,3.8a13.5,13.5,0,0,0,4.7-.9c5-2,7.6-6.3,6.2-9.9a106.3,106.3,0,0,0-8.7-14.4,10.8,10.8,0,0,0,.7-4.3,8.1,8.1,0,0,0-.1-1.7c-.1-.4-.2-.7-.2-.8a3.1,3.1,0,0,0-2.4-2H35a16.4,16.4,0,0,0,.2-2.3,5.7,5.7,0,0,0-.2-1.6,1.4,1.4,0,0,0-.2-.9,2.8,2.8,0,0,0-2.3-2h-1a14.2,14.2,0,0,0,.1-4.1c-.1-.7-.2-1.3-.3-1.7s-.3-.7-.3-.8a3.2,3.2,0,0,0-2.6-1.7h-1a.7.7,0,0,0,.1-.5,14.1,14.1,0,0,0-.5-4.6,5.7,5.7,0,0,0-.6-1.5l-.4-.8A3.1,3.1,0,0,0,23.5,21h-.4a3.2,3.2,0,0,0-2,1.2l-.4-.8-.2-.4-.7-1.1-.2-.4h0l-.3-.5a3.1,3.1,0,0,0-2.6-1.4Z" style="fill:#dfe590"/><path d="M70.2,72.3a8.5,8.5,0,0,1-7.9-5.5,7.8,7.8,0,0,1-5.3,2l-2.2-.3a8.4,8.4,0,0,1-5.9-10.3l.6-1.5a12,12,0,0,1-1.4-9.6,14.8,14.8,0,0,1,1.2-2.9,15,15,0,0,1-.7-9.8,14.7,14.7,0,0,1,8.9-9.9l.3-1.6A16,16,0,0,1,73.1,11.1a15.2,15.2,0,0,1,4.2.6A15.8,15.8,0,0,1,88.4,31.1a7.5,7.5,0,0,1-.5,1.6,15,15,0,0,1,2.7,13.1,15.4,15.4,0,0,1-5.5,8.1,11.2,11.2,0,0,1-.5,3.1,12.2,12.2,0,0,1-6.1,7.6,10,10,0,0,1-.2,1.6,8.4,8.4,0,0,1-8.1,6.1Z" style="fill:#96b85c"/><path d="M73.1,12.6a16.5,16.5,0,0,1,3.8.5A14.5,14.5,0,0,1,87,30.8a19.5,19.5,0,0,1-.8,2.2,13.4,13.4,0,0,1-2.7,20.1,10.4,10.4,0,0,1-6.4,10.5,8.9,8.9,0,0,1-.3,2.2,6.8,6.8,0,0,1-6.6,5,5.5,5.5,0,0,1-1.8-.2,6.9,6.9,0,0,1-5-7.7A6.8,6.8,0,0,1,57,67.3a5.7,5.7,0,0,1-1.8-.3,6.8,6.8,0,0,1-4.8-8.4,7.2,7.2,0,0,1,.9-2,10.4,10.4,0,0,1-1.8-9.1A9.4,9.4,0,0,1,51,44.3a13.2,13.2,0,0,1,7.9-18.7,8.5,8.5,0,0,1,.4-2.3A14.4,14.4,0,0,1,73.1,12.6M63.8,61.5a5.4,5.4,0,0,1,.7-1.3l-.3-.3h-.3a7.6,7.6,0,0,1-.1,1.5M73.1,9.6A17.3,17.3,0,0,0,56.4,22.5a2.9,2.9,0,0,0-.2.9A16.3,16.3,0,0,0,47.1,34a16.6,16.6,0,0,0,.5,10.1,20,20,0,0,0-1,2.6,13.7,13.7,0,0,0,1.2,10.1l-.3,1a9.9,9.9,0,0,0,6.9,12.1,8.2,8.2,0,0,0,2.6.4,10.6,10.6,0,0,0,4.7-1.2,10.2,10.2,0,0,0,5.9,4.4,11.5,11.5,0,0,0,2.6.3,9.8,9.8,0,0,0,9.5-7.3,3,3,0,0,0,.2-1,13.3,13.3,0,0,0,6.2-8.1,12.6,12.6,0,0,0,.4-2.8A15.9,15.9,0,0,0,92,46.2a16.2,16.2,0,0,0-2.4-13.7l.3-1a17.2,17.2,0,0,0-1.7-13.1A17.2,17.2,0,0,0,73.1,9.6Z" style="fill:#6c9433"/><path d="M61.1,83a10.3,10.3,0,0,1-3-.4c-4.3-1.2-7-4.3-6.3-7.2a123.6,123.6,0,0,1,7.3-15.8c-.1-.1-.1-.3-.2-.4a11,11,0,0,1-1.2-3.9,6.4,6.4,0,0,1,0-1.4v-.6a1.9,1.9,0,0,1,1.1-1.2h.4a1.5,1.5,0,0,1,1.1.4l.4.5.7,1,.7,1.1.3-.7v-.2l-.3-.3A7,7,0,0,1,60.8,52a12.9,12.9,0,0,1-1.2-3.8V46.8a2.4,2.4,0,0,1,.1-.7A1.4,1.4,0,0,1,60.8,45h.4a1.6,1.6,0,0,1,1.1.5l.3.4.8,1.1.7,1.1a10.5,10.5,0,0,1,.5-1.9l-.6-.7a10.3,10.3,0,0,1-1.1-2.1,10.7,10.7,0,0,1-.7-3.9c0-.7.1-1.1.1-1.4l.2-.7a1.4,1.4,0,0,1,1.2-1h.2a1.4,1.4,0,0,1,1.2.6l.3.5a3.6,3.6,0,0,1,.6,1.1,3.7,3.7,0,0,1,.5,1.1,17.2,17.2,0,0,0,.7-2.1c0-.1-.1-.2-.2-.3l-.6-1a11.4,11.4,0,0,1-.7-2.2,10.8,10.8,0,0,1,0-4,10.6,10.6,0,0,1,.3-1.4l.3-.6a1.6,1.6,0,0,1,1.3-.8h0A1.6,1.6,0,0,1,69,28l.2.6a5.5,5.5,0,0,1,.4,1.2c.1.1.1.3.2.5s.5-1.3.7-1.9l.8-2.1.2-.4a6.1,6.1,0,0,0,.5-1.2l.2-.4.3-.6a1.4,1.4,0,0,1,1.3-.8h.4a1.5,1.5,0,0,1,1.1,1.6v1.1c0,.3-.1.8-.1,1.3v.4c-.1.7-.2,1.4-.3,2.3s-.2,1.3-.3,2.1a1.2,1.2,0,0,1,.5-.5l1-.8.4-.4.8-.2.8.2a1.6,1.6,0,0,1,.8,1.4,1.5,1.5,0,0,0-.1.6c-.1.3-.2.8-.4,1.4a10.1,10.1,0,0,1-2.1,3.4,8.5,8.5,0,0,1-1.7,1.6l-1.1.5-.4.2c-.1.7-.3,1.5-.4,2.2l1.1-.8,1.1-.6.5-.3h.6a1.1,1.1,0,0,1,.9.4,1.3,1.3,0,0,1,.6,1.4l-.2.7a12.9,12.9,0,0,1-.6,1.2,9.9,9.9,0,0,1-2.7,3.1,7.6,7.6,0,0,1-1.9,1.2l-1,.4a13.3,13.3,0,0,0-.5,1.9l1.3-.7,1.1-.5.6-.2h.4a1.6,1.6,0,0,1,1.1.5,1.4,1.4,0,0,1,.3,1.5l-.2.6-.8,1.2a11.6,11.6,0,0,1-3,2.8,7.2,7.2,0,0,1-2,.9l-.6.2h0a2.8,2.8,0,0,0-.1.9l1.2-.6,1.2-.6.5-.2h.5a1.5,1.5,0,0,1,1,.4,1.6,1.6,0,0,1,.4,1.6l-.3.6-.7,1.2a12.9,12.9,0,0,1-3,2.7l-.5.3a117,117,0,0,1-1.7,17.2C66.5,81.7,64.2,83,61.1,83Z" style="fill:#fafcfb"/><path d="M73.8,24.4V25c-.1.4-.1,1-.2,1.7s-.2,1.6-.4,2.6-.3,2.2-.5,3.5-.5,2.4-.8,3.7a.1.1,0,0,0,.1-.1,1.2,1.2,0,0,0,.5-.5l.6-.6a1.8,1.8,0,0,0,.5-.7l1.2-1.2,1.1-1.1.9-.7.4-.3a1,1,0,0,1-.1.4l-.3,1.2A9.2,9.2,0,0,1,75,35.8a5.7,5.7,0,0,1-1.4,1.3l-.8.5-.9.2h-.2c-.3,1-.5,2.2-.8,3.3s-.6,2.6-.9,3.9l.5-.3.6-.5.7-.6,1.3-1,1.3-.9,1-.6.4-.2a1,1,0,0,1-.1.4l-.5,1.1a10.7,10.7,0,0,1-2.3,2.6,9.1,9.1,0,0,1-1.6,1.1l-.9.3h-.8c-.3,1.4-.7,2.8-1,4.2a18.7,18.7,0,0,0-.7,2.2h.2l.7-.5.7-.4,1.5-.9,1.3-.8,1.1-.4.4-.2a.6.6,0,0,1-.2.4,2.7,2.7,0,0,1-.6,1,11.5,11.5,0,0,1-2.5,2.4l-1.8.8-.9.2h-.3l-.3,1h0a5.3,5.3,0,0,0-.2,2.2,7.8,7.8,0,0,1,.2,1.6l.4-.2,1.4-.9,1.4-.7,1-.5h.5a1.1,1.1,0,0,0-.2.4,3.7,3.7,0,0,1-.6,1,8.4,8.4,0,0,1-2.6,2.3l-1.2.7a111.8,111.8,0,0,1-1.6,17.7c-.4,1.5-2.3,2.4-4.6,2.4a8.2,8.2,0,0,1-2.6-.4c-3.4-.9-5.8-3.3-5.2-5.3a102.9,102.9,0,0,1,7.6-16.2l-.7-1.1a9.5,9.5,0,0,1-1-3.3V53.6l.3.3.7.9.8,1.4c.3.4.5,1,.8,1.5v.2a11.3,11.3,0,0,0,1-1.3,4.2,4.2,0,0,0,.9-1.9h0l.3-1h-.2l-.7-.7a6.2,6.2,0,0,1-1-1.6A9.2,9.2,0,0,1,61.1,48V46.9a1.2,1.2,0,0,1,.1-.5l.2.4a3.5,3.5,0,0,1,.7.9l.8,1.3a10.9,10.9,0,0,1,.8,1.5,3,3,0,0,1,.4.8,2.5,2.5,0,0,1,.4.7l.6-2.2,1.2-4.2a1,1,0,0,1-.5-.4l-.6-.7a5.6,5.6,0,0,1-.9-1.7,9,9,0,0,1-.6-3.4,4.1,4.1,0,0,1,.1-1.2.6.6,0,0,1,.1-.4,1.1,1.1,0,0,1,.2.4,2.9,2.9,0,0,1,.6,1l.6,1.4a7.7,7.7,0,0,1,.7,1.6l.3.8.3.7c0,.1.1.3.1.4l1.2-3.7c.3-1.2.7-2.3,1-3.3s0-.1-.1-.1a1.8,1.8,0,0,1-.5-.7l-.5-.7a6,6,0,0,1-.6-1.9,7.8,7.8,0,0,1,0-3.4,3.7,3.7,0,0,1,.2-1.2l.2-.4.2.4a7.6,7.6,0,0,0,.4,1.1c.1.4.3,1,.4,1.5a13.6,13.6,0,0,0,.4,1.7c0,.3.1.5.1.8s.1.6.2.8.1.4.1.6a27.9,27.9,0,0,0,1.2-3.4L71.9,29l1-2.5.7-1.6a1,1,0,0,0,.2-.5M71.9,57h0m1.9-35.6a2.9,2.9,0,0,0-2.7,1.7l-.2.6h-.1c0,.1-.1.3-.1.4l-.6,1.3v.3a3,3,0,0,1-.4.8,2.8,2.8,0,0,0-2-.8h0A2.9,2.9,0,0,0,65,27.3l-.4.8a12.3,12.3,0,0,0-.4,1.6,11.9,11.9,0,0,0,.1,4.6.7.7,0,0,0,.1.5h-1A3.2,3.2,0,0,0,61,36.9c0,.1-.1.4-.2.8s-.1.9-.1,1.7a13.9,13.9,0,0,0,.6,4h-1a3.1,3.1,0,0,0-2.1,2.3,5.5,5.5,0,0,0-.1.9,11,11,0,0,0,.1,1.6,8.5,8.5,0,0,0,.4,2.3h-.2A2.9,2.9,0,0,0,56.3,53a5.5,5.5,0,0,0-.1.9,8.3,8.3,0,0,0,0,1.6,15.9,15.9,0,0,0,1.2,4.1,105.3,105.3,0,0,0-7,15.4c-1,3.8,2.1,7.6,7.3,9a13.3,13.3,0,0,0,3.4.5c3.8,0,6.7-1.8,7.5-4.6a120.8,120.8,0,0,0,1.7-16.7,13.1,13.1,0,0,0,3.2-3l.9-1.5.2-.5a2.7,2.7,0,0,0,.3-1.2,3.3,3.3,0,0,0-1-2.3A8,8,0,0,0,75.4,53l.9-1.4a2.7,2.7,0,0,0,.3-.8,3,3,0,0,0-.6-3,2.1,2.1,0,0,0-.8-.6A19.2,19.2,0,0,0,77.8,44l.7-1.5a5.1,5.1,0,0,0,.2-.9,2.8,2.8,0,0,0-1-2.9l-.8-.5.3-.4a10.6,10.6,0,0,0,2.4-3.9,9,9,0,0,0,.4-1.6,5.1,5.1,0,0,0,.2-.9,3.3,3.3,0,0,0-1.5-2.7,2.8,2.8,0,0,0-1.5-.4h-.8c0-.3.1-.6.1-.9v-.4c0-.5.1-1,.1-1.4s.1-.2.1-.4h0v-.6a3,3,0,0,0-2.2-3.2Zm0,6h0Z" style="fill:#dfe590"/><rect x="9.4" y="67.1" width="12.1" height="8.09" rx="1" style="fill:#d8a960"/><path d="M20.5,68.1v6.1H10.4V68.1H20.5m0-2H10.4a2,2,0,0,0-2,2v6.1a2,2,0,0,0,2,2H20.5a2,2,0,0,0,2-2V68.1a2,2,0,0,0-2-2Z" style="fill:#75411a"/><rect x="77.9" y="67.1" width="12.1" height="8.08" rx="1" style="fill:#d8a960"/><path d="M89,68.1v6.1H78.9V68.1H89m0-2H78.9a2,2,0,0,0-2,2v6.1a2,2,0,0,0,2,2H89a2,2,0,0,0,2-2V68.1a2,2,0,0,0-2-2Z" style="fill:#75411a"/><rect x="7.3" y="73.7" width="85.4" height="18.66" rx="1.5" style="fill:#ddab88"/><path d="M91.2,75.2V90.8H8.8V75.2H91.2m0-3H8.8a2.9,2.9,0,0,0-3,3V90.8a2.9,2.9,0,0,0,3,3H91.2a3,3,0,0,0,3-3V75.2a3,3,0,0,0-3-3Z" style="fill:#6a3417"/><rect x="7.3" y="50.8" width="85.4" height="18.57" rx="1.5" style="fill:#ddab88"/><path d="M91.2,52.3V67.8H8.8V52.3H91.2m0-3H8.8a2.9,2.9,0,0,0-3,3V67.8a2.9,2.9,0,0,0,3,3H91.2a3,3,0,0,0,3-3V52.3a3,3,0,0,0-3-3Z" style="fill:#6a3417"/></g></g></g></svg>