<svg xmlns="http://www.w3.org/2000/svg" viewBox="0 0 234.8 128.3"><g id="Layer_2" data-name="Layer 2"><g id="Layer_1-2" data-name="Layer 1"><path d="M117.4,126.8c-48.3,0-99.7-8-99.7-22.9v-.3h0V94.9a1.5,1.5,0,0,1,1.5-1.5h8.7C44.3,85.9,79.3,81,117.4,81s73.1,4.9,89.5,12.4h8.7a1.5,1.5,0,0,1,1.5,1.5v9C217.1,118.8,165.8,126.8,117.4,126.8Z" style="fill:#ff8d3d"/><path d="M117.4,82.5c39.5,0,73.5,5.1,89.2,12.4h9v9c0,11.8-43.9,21.4-98.2,21.4s-98.2-9.6-98.2-21.4v-.4h0V94.9h9.1c15.6-7.3,49.6-12.4,89.1-12.4m0-3c-38.6,0-72.9,4.8-89.8,12.4H19.2a2.9,2.9,0,0,0-3,3v9c0,7.5,10.5,13.5,31.1,18,18.8,4.1,43.7,6.4,70.1,6.4s51.3-2.3,70.1-6.4c20.7-4.5,31.1-10.5,31.1-18v-9a2.9,2.9,0,0,0-3-3h-8.4c-16.9-7.6-51.2-12.4-89.8-12.4Z" style="fill:#e57225"/><path d="M117.4,113.5c-57,0-115.9-9.8-115.9-26.4v-.3h0v-10A1.5,1.5,0,0,1,3,75.2H13.3c19-8.8,59.8-14.5,104.1-14.5s85.2,5.7,104.2,14.5h10.2a1.5,1.5,0,0,1,1.5,1.5V87.1C233.3,103.7,174.4,113.5,117.4,113.5Z" style="fill:#ffaa5a"/><path d="M117.4,62.2c46,0,85.7,5.9,103.8,14.5h10.6V87.1c0,13.8-51.2,24.9-114.4,24.9S3,100.9,3,87.1v-.4H3v-10H13.6c18.2-8.6,57.8-14.5,103.8-14.5m0-3c-45,0-84.9,5.6-104.5,14.5H3a2.9,2.9,0,0,0-3,3V87.1c0,8.5,12.1,15.4,35.9,20.6,21.8,4.7,50.7,7.3,81.5,7.3s59.7-2.6,81.5-7.3c23.9-5.2,35.9-12.1,35.9-20.6V76.7a2.9,2.9,0,0,0-3-3h-9.9c-19.6-8.9-59.5-14.5-104.5-14.5Z" style="fill:#ff8d3d"/><path d="M231.8,76.5c0,13.8-51.2,24.9-114.4,24.9S3,90.3,3,76.5,54.2,51.6,117.4,51.6,231.8,62.8,231.8,76.5Z" style="fill:#ffeb81"/><path d="M117.4,102.9C60.4,102.9,1.5,93,1.5,76.5S60.4,50.1,117.4,50.1,233.3,60,233.3,76.5,174.4,102.9,117.4,102.9Z" style="fill:#ffeb81"/><path d="M117.4,51.6c63.2,0,114.4,11.2,114.4,24.9s-51.2,24.9-114.4,24.9S3,90.3,3,76.5,54.2,51.6,117.4,51.6m0-3c-30.8,0-59.7,2.6-81.5,7.4C12.1,61.2,0,68.1,0,76.5S12.1,91.9,35.9,97.1c21.8,4.7,50.7,7.3,81.5,7.3s59.7-2.6,81.5-7.3c23.9-5.2,35.9-12.1,35.9-20.6s-12-15.3-35.9-20.5c-21.8-4.8-50.7-7.4-81.5-7.4Z" style="fill:#ffaa5a"/><path d="M140.4,75.2c0,2.8-10.3,5-23,5s-23-2.2-23-5,10.3-5,23-5S140.4,72.4,140.4,75.2Z" style="fill:#ffaa5a"/><path d="M197.6,70.3a4.7,4.7,0,0,1-4.7-4.7V28.7c0-4-1.1-7-3.2-8.8s-6.8-2.7-9-2.7h-2.4l-51.9,6.9h-.2a1.3,1.3,0,0,1-1.2-.6,7.9,7.9,0,0,1-1.5-4.1,6.7,6.7,0,0,1,1-3.9,1.4,1.4,0,0,1,1.1-.7L177,8.1c.4,0,1.7-.2,3.7-.2,4.2,0,10.3.9,15,4.9s6.5,9,6.5,15.9V65.6A4.7,4.7,0,0,1,197.6,70.3Z" style="fill:#e05555"/><path d="M180.7,9.4c3.7,0,9.6.7,14,4.5s6,8.4,6,14.8V65.6a3.2,3.2,0,1,1-6.3,0V28.7c0-4.5-1.2-7.8-3.7-10s-7.3-3-10-3h-2.6l-51.9,6.9a6,6,0,0,1-1.2-3.3,4.4,4.4,0,0,1,.8-3l51.4-6.8c.3,0,1.6-.2,3.5-.2m0-3a21.9,21.9,0,0,0-3.9.3l-51.4,6.7a3.7,3.7,0,0,0-2.2,1.4,8,8,0,0,0-1.2,4.8,9,9,0,0,0,1.7,4.8,3.1,3.1,0,0,0,2.5,1.3h.4l51.8-6.9h2.3c2,0,5.7.3,8,2.3s2.7,4.1,2.7,7.7V65.6a6.2,6.2,0,1,0,12.3,0V28.7c0-7.4-2.4-13.1-7-17s-11.5-5.3-16-5.3Z" style="fill:#c2331d"/><path d="M37.9,70.3a4.7,4.7,0,0,1-4.7-4.7V28.7c0-6.9,2.2-12.2,6.5-15.9s10.8-4.9,15-4.9c2,0,3.3.2,3.7.2l51.4,6.8a1.4,1.4,0,0,1,1.1.7,6,6,0,0,1,1,3.9,7.6,7.6,0,0,1-1.5,4.1,1.3,1.3,0,0,1-1.2.6H109L57.2,17.3H54.7c-2.2,0-6.3.3-9,2.7s-3.2,4.8-3.2,8.8V65.6A4.7,4.7,0,0,1,37.9,70.3Z" style="fill:#a7bfee"/><path d="M54.7,9.4c1.9,0,3.2.2,3.5.2l51.4,6.8a4.4,4.4,0,0,1,.8,3,6,6,0,0,1-1.2,3.3L57.4,15.8H54.7c-2.7,0-7,.4-10,3S41,24.2,41,28.7V65.6a3.2,3.2,0,1,1-6.3,0V28.7c0-6.4,2-11.4,6-14.8s10.4-4.5,14-4.5m0-3h0c-4.5,0-10.9.9-16,5.3s-7,9.6-7,17V65.6a6.2,6.2,0,0,0,6.2,6.2A6.1,6.1,0,0,0,44,65.6V28.7c0-3.6.9-6.2,2.7-7.7s6-2.3,8-2.3H57c.2,0,25.6,3.3,51.8,6.9h.4a3.3,3.3,0,0,0,2.5-1.2,9.6,9.6,0,0,0,1.7-4.9,8,8,0,0,0-1.2-4.8,3.7,3.7,0,0,0-2.2-1.4C84,9.9,59.6,6.8,58.6,6.7a20.9,20.9,0,0,0-3.9-.3Z" style="fill:#5576b4"/><path d="M117.4,3c7.7,0,14,1.4,14,3V75.3a.3.3,0,0,1-.1.2h-.1c0,.1,0,.2-.1.2s0,.1-.1.1l-.2.2-.2.2h-.4l-.5.2h0l-.6.2h0a21.4,21.4,0,0,1-3.4.8h0l-3.1.4h-.3l-3.3.2h-1.6l-5.1-.2h-.2l-3.1-.4h-.1c-2.7-.5-4.6-1.1-5.2-1.9s-.1-.1-.1-.2h-.1V6c0-1.6,6.2-3,13.9-3m0-3c-7.7,0-16.9,1-16.9,6V75.3a7.8,7.8,0,0,0,.2,1.4l.2.4.5.6c.6.8,2.1,2.1,6.9,2.9h.1a.1.1,0,0,1,.1.1l3.3.4h.4l5.2.2h1.8l3.2-.2h.4l3.3-.4h.1l3.6-.8h.2l.8-.3h.1l.6-.3.3-.2.4-.2.4-.3a1.2,1.2,0,0,0,.5-.5c.2-.1.2-.2.3-.3l.5-.6a.8.8,0,0,1,.2-.4,3.5,3.5,0,0,0,.3-1.4V6c0-5-9.3-6-17-6Z" style="fill:#84205c"/><path d="M103.5,6V75.3c0,1.7,6.2,3,13.9,3s14-1.3,14-3V6Z" style="fill:#eb6c3c"/><path d="M103.5,6V75.3c0,1.7,6.2,3,13.9,3s14-1.3,14-3V6Z" style="fill:#b46fab"/><path d="M108.9,6V77.7l3.4.4V6Z" style="fill:#feb6d2"/><path d="M103.5,6V75.3c0,.6.7,1.1,2,1.6V6Z" style="fill:#feb6d2"/><path d="M122.3,6V78.1l3.4-.4V6Z" style="fill:#feb6d2"/><path d="M129.1,6V76.9c1.4-.4,2.3-1,2.3-1.6V6Z" style="fill:#feb6d2"/><path d="M115.6,6V78.3H119V6Z" style="fill:#feb6d2"/><path d="M131.4,6c0,1.7-6.3,3.1-14,3.1S103.5,7.7,103.5,6s6.2-3,13.9-3S131.4,4.4,131.4,6Z" style="fill:#96297a"/><path d="M177.5,97a4.7,4.7,0,0,1-4.6-4.6V42.2c0-.8,0-7.6-7.9-9.5-4.2-1-17-3.5-37-7.3a4.6,4.6,0,0,1,.9-9.2h.8c20.5,3.8,33.1,6.3,37.5,7.4a19,19,0,0,1,15,18.7v50A4.7,4.7,0,0,1,177.5,97Z" style="fill:#a7bfee"/><path d="M128.9,17.7h.6c20.4,3.8,33,6.3,37.3,7.4a17.4,17.4,0,0,1,13.9,17.1V92.4a3.2,3.2,0,0,1-6.3,0V42.3h0a11.2,11.2,0,0,0-9-11c-4.2-1-17-3.5-37.1-7.2a3.2,3.2,0,0,1-2.5-3.7,3.2,3.2,0,0,1,3.1-2.6m0-3h0a6.1,6.1,0,0,0-6,5.1,6,6,0,0,0,4.8,7.1c20,3.8,32.8,6.3,37,7.3,6.7,1.6,6.7,7.3,6.7,7.9h0V92.4a6.2,6.2,0,0,0,12.3,0v-50a20.6,20.6,0,0,0-16.1-20.2c-4.5-1-17.1-3.5-37.6-7.3l-1.1-.2Z" style="fill:#5576b4"/><path d="M55.1,97a4.7,4.7,0,0,1-4.6-4.6V42.3c-.2-5.1,2.8-15.6,15-18.6,4.4-1.1,17-3.6,37.4-7.4h.9a4.6,4.6,0,0,1,.8,9.2c-20,3.8-32.8,6.3-37,7.3a9.7,9.7,0,0,0-7.9,9.4V92.4A4.7,4.7,0,0,1,55.1,97Z" style="fill:#e05555"/><path d="M103.8,17.7a3.2,3.2,0,0,1,3.1,2.6,3.2,3.2,0,0,1-2.5,3.7c-20.1,3.7-32.9,6.2-37.1,7.2a11.3,11.3,0,0,0-9.1,11h.1V92.4a3.2,3.2,0,0,1-6.3,0V42.3A17.5,17.5,0,0,1,65.8,25.2c4.4-1.1,17-3.6,37.4-7.4h.6m0-3-1.1.2c-20.5,3.8-33.1,6.3-37.6,7.3A20.5,20.5,0,0,0,49,42.4v50a6.1,6.1,0,0,0,6.1,6.1,6.2,6.2,0,0,0,6.2-6.1V42.3a.4.4,0,0,0-.1-.3c.1-1.4.6-6.3,6.8-7.8,4.2-1,16.9-3.5,36.9-7.3a6.1,6.1,0,0,0,3.9-2.5,5.9,5.9,0,0,0,1-4.6,6.2,6.2,0,0,0-6-5.1Z" style="fill:#c2331d"/></g></g></svg>