<svg xmlns="http://www.w3.org/2000/svg" viewBox="0 0 98.4 135.2"><g style="isolation:isolate"><g id="Layer_2" data-name="Layer 2"><g id="Layer_1-2" data-name="Layer 1"><line x1="12.5" y1="94.6" x2="12.5" y2="14.2" style="fill:none;stroke:#353535;stroke-linecap:round;stroke-linejoin:round;stroke-width:3px"/><line x1="87.5" y1="98.4" x2="18.5" y2="14.2" style="fill:none;stroke:#353535;stroke-linecap:round;stroke-linejoin:round;stroke-width:3px"/><path d="M38,83c-2.9,0-4.6-3.1-5.8-5.3l-.5-1a78.5,78.5,0,0,1-5.9-12A14.5,14.5,0,0,1,24.6,59a2.4,2.4,0,0,1,1-1.8,2,2,0,0,1,1.1-.3,2.4,2.4,0,0,1,1.3.4,8.3,8.3,0,0,1,2.6,3c0,.1.1.2.1.3a9.9,9.9,0,0,1,.1-4.2,2.3,2.3,0,0,1,2-2.1H33a2.4,2.4,0,0,1,1.3.4,6.7,6.7,0,0,1,2.4,3.4A65.6,65.6,0,0,1,39,64.3a33.3,33.3,0,0,1,.7-5.4,8.3,8.3,0,0,1,2.7-4.6,3,3,0,0,1,1.6-.6,1.7,1.7,0,0,1,1,.3,2.6,2.6,0,0,1,1,1.1,13.4,13.4,0,0,1,1,5.5,43.9,43.9,0,0,1-1.7,13.5c-.7,2.6-1.9,5.9-4.6,7.9A4.3,4.3,0,0,1,38,83Z" style="fill:#61562b"/><path d="M44,55.2h.3l.3.4a10.4,10.4,0,0,1,.9,4.9,44.8,44.8,0,0,1-1.6,13.1c-.8,2.7-1.9,5.4-4.1,7.1a3.2,3.2,0,0,1-1.8.7c-2.4,0-4-3.7-5.1-5.6a84.3,84.3,0,0,1-5.7-11.7,12.6,12.6,0,0,1-1.1-5.1.7.7,0,0,1,.3-.6h.3l.5.2A8.1,8.1,0,0,1,29.3,61c3,5.1,5.5,10.5,8,15.8C36,72.6,34.6,68.3,33.2,64c-.7-2.3-1.5-4.9-1-7.3.1-.4.3-.9.7-.9H33l.4.2a5.5,5.5,0,0,1,2,2.7,99.4,99.4,0,0,1,5.1,17.7c-.2-3.3-.2-6.6-.1-10a33.6,33.6,0,0,1,.8-7.1,6.3,6.3,0,0,1,2.1-3.8,1.5,1.5,0,0,1,.7-.3m0-3a3.8,3.8,0,0,0-2.5.9,9.1,9.1,0,0,0-3.1,5.1l-.3-.7a8.5,8.5,0,0,0-3-4.1,4.2,4.2,0,0,0-2.1-.6h-.4a3.8,3.8,0,0,0-3.3,3.3v.2l-.4-.3a4.2,4.2,0,0,0-2.1-.6,3.8,3.8,0,0,0-1.9.5,3.8,3.8,0,0,0-1.7,3,15.9,15.9,0,0,0,1.3,6.4,85.1,85.1,0,0,0,6,12.1l.5,1c1.3,2.4,3.3,6.1,7.1,6.1a5.9,5.9,0,0,0,3.6-1.3c3-2.3,4.4-5.9,5.2-8.7a50,50,0,0,0,1.7-13.9,14.2,14.2,0,0,0-1.2-6.2A3.6,3.6,0,0,0,44,52.2Z" style="fill:#4f420d"/><path d="M29.8,65.3a74.9,74.9,0,0,0,8.6,17.3S34.5,74.1,29.8,65.3Z" style="fill:#887a25"/><path d="M35.3,63.7a140.3,140.3,0,0,0,5.3,18.9A85.3,85.3,0,0,0,35.3,63.7Z" style="fill:#887a25"/><path d="M43.2,62.1S40.4,77.8,41,84.7C41,84.7,44.3,67.6,43.2,62.1Z" style="fill:#887a25"/><path d="M48.4,128.8a5.3,5.3,0,0,1-3.9-2l-.8-.9a22.6,22.6,0,0,1-2.8-4.9l-.5-1L39,116.8l-.4-1c-.8-1.8-1.5-3.5-2.1-5.2l-.4-1-2.7-7.5-.3-1.1c-.7-2-1.3-4.1-1.9-6.1l-.3-1.1c-.2-.9-.5-1.8-.7-2.7a33.8,33.8,0,0,1-.8-3.4,4.3,4.3,0,0,0-.2-1.1,15.4,15.4,0,0,1,0-4.3A10.6,10.6,0,0,1,34.4,74a7.1,7.1,0,0,1,1.8-.8,8.6,8.6,0,0,1,3.4-.7c6.9,0,10.4,8.2,11,13.4s.9,12.2,1.2,18.2l.8,18.4c.2,4.1-1.5,5.6-2.9,6.1Z" style="fill:#ff8d3d"/><path d="M39.6,74c5.7,0,8.9,7,9.5,12s.9,12.1,1.2,18.1.5,12.3.8,18.5c.1,1.7-.2,3.9-1.9,4.6h-.8a3.9,3.9,0,0,1-2.8-1.5l-.8-.8a34.2,34.2,0,0,1-2.6-4.6c0-.1-.1-.2-.1-.3l-.3-.7c-.5-1.1-1-2.1-1.4-3.2s-.3-.7-.5-1-1.4-3.4-2-5.2a3,3,0,0,1-.4-1c-1-2.4-1.8-4.9-2.6-7.4a4.2,4.2,0,0,1-.4-1c-.6-2-1.3-4.1-1.8-6.1l-.3-1.1a26.8,26.8,0,0,1-.7-2.7,29.9,29.9,0,0,1-.8-3.2c-.1-.4-.1-.8-.2-1.1a17,17,0,0,1,0-3.9,9.2,9.2,0,0,1,4.4-7.2l1.6-.7a7.9,7.9,0,0,1,2.9-.6m0-3h0a13.4,13.4,0,0,0-3.9.7l-2,1a12.2,12.2,0,0,0-6,9.4,14.9,14.9,0,0,0,.1,4.7c0,.4.1.8.1,1.2l.9,3.5a26.8,26.8,0,0,0,.7,2.7l.3,1.1c.6,2.1,1.2,4.1,1.9,6.2l.3,1.1q1.2,3.8,2.7,7.5a4.2,4.2,0,0,0,.4,1c.6,1.7,1.3,3.5,2.1,5.3l.4,1,1.4,3.2.3.6v.2h.1a25.6,25.6,0,0,0,3,5.2,4.4,4.4,0,0,0,.9,1.1,7,7,0,0,0,5,2.4l1.8-.3c1.6-.6,4.1-2.3,3.9-7.6l-.6-12.7-.2-5.7c-.3-6-.5-12.2-1.2-18.3S47.5,71,39.6,71Z" style="fill:#de5f1b"/><path d="M49.1,86c.7,6,.9,12.1,1.2,18.1s.5,12.3.8,18.5c.1,1.7-.2,3.9-1.9,4.6a3.6,3.6,0,0,1-3.6-1.4l-.8-.8a42.2,42.2,0,0,0,2.6-12.1c.6-8-.7-16-2.2-23.9-.7-3.8-1.5-7.7-3.8-10.9a11,11,0,0,0-4.7-3.5C44.3,71.8,48.4,80.2,49.1,86Z" style="fill:#e57225;opacity:0.64"/><path d="M41,84.7a25.4,25.4,0,0,1-10.1,2.8c-.1-.4-.1-.8-.2-1.1a24.4,24.4,0,0,0,9.8-2.7A.6.6,0,0,1,41,84.7Z" style="fill:#e57225"/><path d="M38.2,92.9a13.4,13.4,0,0,1-5.5,1.6l-.3-1.1a9.8,9.8,0,0,0,5.2-1.5C38.2,91.6,38.8,92.5,38.2,92.9Z" style="fill:#e57225"/><path d="M43.1,89.9l-1.7.5a.6.6,0,0,0,.3,1.1l1.8-.5C44.1,90.8,43.8,89.8,43.1,89.9Z" style="fill:#e57225"/><path d="M41.3,99.5a15.1,15.1,0,0,1-6.4,2.1,4.2,4.2,0,0,1-.4-1,15.1,15.1,0,0,0,6.2-2C41.3,98.2,41.9,99.2,41.3,99.5Z" style="fill:#e57225"/><path d="M44.3,97.7a1.1,1.1,0,0,1-.8.2.5.5,0,1,0-.2,1,2.3,2.3,0,0,0,1.6-.3C45.5,98.3,44.9,97.4,44.3,97.7Z" style="fill:#e57225"/><path d="M43.5,107.7a20.7,20.7,0,0,1-5.6,2.3,3,3,0,0,1-.4-1,18.1,18.1,0,0,0,5.4-2.2A.5.5,0,0,1,43.5,107.7Z" style="fill:#e57225"/><path d="M44.5,114.5l-4.1,1.7c-.2-.3-.3-.7-.5-1a28.3,28.3,0,0,0,4-1.7C44.5,113.2,45.1,114.1,44.5,114.5Z" style="fill:#e57225"/><path d="M44.4,119.4l-2.2,1c0-.1-.1-.2-.1-.3l-.3-.7a7.2,7.2,0,0,0,2-.9C44.4,118.2,45,119.1,44.4,119.4Z" style="fill:#e57225"/><path d="M58.6,83.4c-2.5,0-4-2.2-4.8-3.8a50.3,50.3,0,0,1-4.1-10.3c-.7-2.6-1.4-5.7-.5-8.7a2.8,2.8,0,0,1,1.4-1.7h.8a2.8,2.8,0,0,1,2.4,1.7l.9,1.8a11.1,11.1,0,0,1,.8-4.4,2.7,2.7,0,0,1,2.3-1.7h.4a3.1,3.1,0,0,1,1.4.9,11.8,11.8,0,0,1,2,4.6l.3,1.6a17.1,17.1,0,0,1,2.1-4,3.7,3.7,0,0,1,2.5-1.4h.2c1.6,0,2.9,1.5,3.1,3.6.6,4.4-.7,8.9-2,12.2s-3,7-6.4,9A6.3,6.3,0,0,1,58.6,83.4Z" style="fill:#887a25"/><path d="M57.8,57.7h.1a1,1,0,0,1,.5.4A8.1,8.1,0,0,1,60.1,62a73.2,73.2,0,0,1,1,16.2c.7-3,.7-6.2,1.1-9.2a16.5,16.5,0,0,1,3-8.7,1.8,1.8,0,0,1,1.4-.9c0-.1,0-.1.1-.1s1.5,1.3,1.7,2.3c.5,3.9-.6,7.8-2,11.5s-2.8,6.5-5.7,8.2a4.8,4.8,0,0,1-2.1.6c-1.5,0-2.6-1.4-3.5-3a53.5,53.5,0,0,1-4-10c-.7-2.6-1.2-5.3-.4-7.8.1-.3.2-.7.5-.8h.2c.5,0,.8.5,1.1.9,3,6,4.8,12.6,6.5,19.2-.7-3.2-1.3-6.5-1.9-9.7s-.7-4.5-.9-6.8a11.1,11.1,0,0,1,.7-5.4,1.1,1.1,0,0,1,.9-.8m0-3a4.1,4.1,0,0,0-3.7,2.6l-.3.8a4.1,4.1,0,0,0-2.4-.8,3.5,3.5,0,0,0-1.4.3,4,4,0,0,0-2.2,2.6c-1,3.4-.3,6.8.4,9.5a53.6,53.6,0,0,0,4.3,10.6c.6,1.1,2.4,4.6,6.1,4.6a7.8,7.8,0,0,0,3.5-1c3.9-2.2,5.8-6.2,7.1-9.8S72,66,71.3,61.2c-.4-2.9-2.2-4.9-4.6-4.9h-.3a4.5,4.5,0,0,0-3.5,2,1.8,1.8,0,0,0-.5.7,10,10,0,0,0-1.7-3,3.7,3.7,0,0,0-2.2-1.3Z" style="fill:#61562b"/><path d="M57.5,80A127,127,0,0,1,52,64.9S56.2,72.6,57.5,80Z" style="fill:#61562b"/><path d="M58.4,63s-1,5.2,1.2,16.1C59.6,79.1,60,69.2,58.4,63Z" style="fill:#61562b"/><path d="M66.1,63.1s-3.6,10.1-4,15.4C62.1,78.5,65.9,70.3,66.1,63.1Z" style="fill:#61562b"/><path d="M56.3,130.8c-1.6,0-3-1.4-3.5-3.6a.8.8,0,0,0-.1-.4,46.6,46.6,0,0,1-.6-8.2v-2.2c0-1.5,0-3.2-.1-4.8v-.9a64.4,64.4,0,0,0-.9-7.5l-.5-3.1-.6-4.4a4.4,4.4,0,0,1-.2-1c-.3-2.3-.5-4.2-.6-6S49,88,49,87.6h0a17.2,17.2,0,0,1,.9-6.6,10.4,10.4,0,0,1,7.2-6.3l.6-.2,2.3-.2a8.5,8.5,0,0,1,6.8,3.1c4.5,5.5,3,17.2,1.7,23.6a129.5,129.5,0,0,1-9,27.2,4.2,4.2,0,0,1-2.6,2.5Z" style="fill:#e57225"/><path d="M60,75.8c11,0,8.4,17.9,7,24.9a118.8,118.8,0,0,1-8.9,26.8c-.3.8-.8,1.6-1.5,1.7h-.3c-1.1,0-1.8-1.3-2-2.4s-.1-.2-.1-.4a41.4,41.4,0,0,1-.6-7.9v-1c0-2,0-4-.1-6V111a.6.6,0,0,1-.1-.4,67.3,67.3,0,0,0-.9-7.7c0-.3-.1-.7-.1-1-.4-2.1-.7-4.3-1.1-6.4,0-.4-.1-.7-.1-1-.3-2-.5-4-.6-5.9,0-.4-.1-.7-.1-1h0a15.6,15.6,0,0,1,.8-6.1,8.9,8.9,0,0,1,6.2-5.4H58l2-.2m0-3h0l-2.5.2-.7.2a12,12,0,0,0-8.3,7.2,18.9,18.9,0,0,0-1,7.2h0c0,.3.1.7.1,1.1s.3,3.7.6,6.1c.1.3.1.7.2,1s.4,2.9.7,4.4l.3,2.1.2,1a67.1,67.1,0,0,1,.8,7.4v.3h.1v.5c.1,1.6.1,3.1.1,4.8v2.1a50,50,0,0,0,.6,8.5l.2.5c.7,2.9,2.5,4.7,4.9,4.7h.9a5.3,5.3,0,0,0,3.6-3.4,120,120,0,0,0,9.1-27.5c1.7-8.2,2.7-19.2-2-24.9A9.9,9.9,0,0,0,60,72.8Z" style="fill:#924f28"/><path d="M67,100.7a118.8,118.8,0,0,1-8.9,26.8c-.3.8-.8,1.6-1.5,1.7s-2-1.1-2.3-2.3a42.2,42.2,0,0,0,6.4-11.3,65.3,65.3,0,0,0,3.6-21.9c.1-4.4-.2-9-2.3-12.8a11.6,11.6,0,0,0-4.5-4.8H58C71.3,73.7,68.5,93.3,67,100.7Z" style="fill:#e57225;opacity:0.30000000000000004;mix-blend-mode:multiply"/><path d="M60.4,86.6a16,16,0,0,1-9.8,2c0-.4-.1-.7-.1-1h0a14.9,14.9,0,0,0,9.4-1.9C60.4,85.4,60.9,86.2,60.4,86.6Z" style="fill:#ffaa5a"/><path d="M56,94.7a12.6,12.6,0,0,1-4.7.8c0-.4-.1-.7-.1-1a14.7,14.7,0,0,0,4.6-.7C56.4,93.6,56.6,94.5,56,94.7Z" style="fill:#ffaa5a"/><path d="M60.8,92.8l-2.4.5c-.7.1-.4,1.1.2,1l2.4-.5C61.7,93.7,61.4,92.7,60.8,92.8Z" style="fill:#ffaa5a"/><path d="M59.9,102.3a18.5,18.5,0,0,1-7.4.6c0-.3-.1-.7-.1-1a19.5,19.5,0,0,0,7.2-.5C60.2,101.2,60.5,102.2,59.9,102.3Z" style="fill:#ffaa5a"/><path d="M59.3,110.1a11.9,11.9,0,0,1-5.8,1.5V111a.6.6,0,0,1-.1-.4,11.3,11.3,0,0,0,5.4-1.3C59.4,109,59.9,109.8,59.3,110.1Z" style="fill:#ffaa5a"/><path d="M58.1,117.5a12.4,12.4,0,0,1-4.5,1.1v-1a14.4,14.4,0,0,0,4-.9C58.1,116.4,58.6,117.3,58.1,117.5Z" style="fill:#ffaa5a"/><path d="M79.5,87.5c-3.2,0-4.9-2-5.1-5.9A51.7,51.7,0,0,1,75,70.5a16.1,16.1,0,0,1,3.2-8,2.8,2.8,0,0,1,1.9-1c1.1.1,2.2.9,2.3,2.8s.1,1.3.1,2A11.1,11.1,0,0,1,85,62.7a3.3,3.3,0,0,1,1.9-.8,2,2,0,0,1,1.3.4,2.1,2.1,0,0,1,.9,1.3,10.5,10.5,0,0,1-.1,5,12.4,12.4,0,0,0-.4,1.6,14.1,14.1,0,0,1,3.6-2.7,4.3,4.3,0,0,1,1.9-.5l1,.2c1.5.6,2.2,2.5,1.5,4.6-1.3,4.3-4.4,7.7-6.9,10.3s-5.7,5.1-9.6,5.4Z" style="fill:#887a25"/><path d="M80.1,63h0c.6,0,.8.8.8,1.4.3,6.7-.9,13.5-2.1,20.1.7-3.2,1.5-6.4,2.3-9.6s1.3-4.4,2.1-6.5A10.4,10.4,0,0,1,86,63.8a1.8,1.8,0,0,1,.9-.4h.4a.6.6,0,0,1,.3.6,8.6,8.6,0,0,1-.1,4.2c-1.2,5.3-3.5,10.2-5.9,15.1a80,80,0,0,0,4.9-7.9,16.3,16.3,0,0,1,6.4-6.6,2.8,2.8,0,0,1,1.2-.4h.4c1,.4,1,1.8.7,2.8-1.2,3.7-3.8,6.8-6.6,9.6s-5.2,4.7-8.6,5h-.5c-2.8,0-3.4-2-3.6-4.5a47.7,47.7,0,0,1,.6-10.7,14.5,14.5,0,0,1,2.8-7.3c.2-.2.5-.5.8-.5m0-3h0a3.8,3.8,0,0,0-3,1.5c-2.3,2.7-3.1,6.1-3.6,8.8a54.2,54.2,0,0,0-.6,11.4c.4,6.4,4.3,7.3,6.6,7.3h.7c4.4-.4,7.8-3.2,10.5-5.9s5.9-6.2,7.3-10.8c.9-2.9-.1-5.6-2.4-6.5a4,4,0,0,0-1.5-.3,5.8,5.8,0,0,0-2.6.7l-.7.4a8,8,0,0,0-.3-3.4,3.9,3.9,0,0,0-1.4-2.1,3.4,3.4,0,0,0-2.2-.7A4.8,4.8,0,0,0,84,61.5l-.6.6A3.8,3.8,0,0,0,80.2,60Z" style="fill:#61562b"/><path d="M77.6,83.6A122.4,122.4,0,0,1,79,67.5,56.8,56.8,0,0,1,77.6,83.6Z" style="fill:#61562b"/><path d="M85.6,68.5s-3.2,4.3-5.7,15.1C79.9,83.6,84.4,74.8,85.6,68.5Z" style="fill:#61562b"/><path d="M92.5,71.8S85,79.5,82.4,84.1C82.4,84.1,89.3,78.2,92.5,71.8Z" style="fill:#61562b"/><path d="M56.5,129.4h-.6c-1.8-.4-2.7-2.3-2.3-4.8a.6.6,0,0,0,.1-.4,49.4,49.4,0,0,1,2.9-7.7l.9-2c.6-1.4,1.3-2.9,1.9-4.4l.4-.9c.9-2.6,1.7-5.2,2.3-7.2l.8-3,1.2-4.3.3-1c.7-2.2,1.3-4,2-5.7a6.9,6.9,0,0,1,.4-1,15.7,15.7,0,0,1,3.5-5.7,10.6,10.6,0,0,1,7.2-2.9l2,.2.6.2c3.6.9,5.9,2.8,6.8,5.6,2.5,6.9-4,17.4-8.1,22.9a117.7,117.7,0,0,1-19.5,21A4.7,4.7,0,0,1,56.5,129.4Z" style="fill:#e57225"/><path d="M77.5,79.8l1.7.2h.5c13.1,3.5,2.4,20.1-2.1,26.3A121.5,121.5,0,0,1,58.3,127a2.6,2.6,0,0,1-1.8.9h-.3c-1.2-.3-1.3-1.9-1.1-3.1v-.3A48.1,48.1,0,0,1,58,117a3.6,3.6,0,0,1,.4-.9l2.4-5.5c.1-.2.1-.4.2-.6s.1-.2.2-.4c.9-2.4,1.6-4.8,2.3-7.3l.3-1L65.6,95l.3-1a39.9,39.9,0,0,1,1.9-5.5l.3-1h0a16.2,16.2,0,0,1,3.2-5.2,9.2,9.2,0,0,1,6.2-2.5m0-3h0a11.8,11.8,0,0,0-8.2,3.3,16.9,16.9,0,0,0-3.9,6.2h0a3,3,0,0,0-.4,1c-.7,1.7-1.3,3.5-2,5.8l-.3,1-1.2,4.2-.6,2.1-.3,1c-.5,2-1.3,4.5-2.2,7v.3h-.1l-.2.5c-.6,1.5-1.2,2.9-1.9,4.4l-.5,1-.4,1a46.1,46.1,0,0,0-2.9,7.9,1.3,1.3,0,0,0-.1.6c-.7,3.2.7,5.9,3.4,6.5h.9a6.1,6.1,0,0,0,3.8-1.6A123.9,123.9,0,0,0,80,108.1C85.2,101,90.9,91,88.4,83.8c-.8-2.2-2.9-5.2-7.9-6.6h-.7a8.5,8.5,0,0,0-2.3-.3Z" style="fill:#924f28"/><path d="M77.6,106.4A121.5,121.5,0,0,1,58.3,127c-.6.5-1.3,1.1-2.1.9s-1.3-1.9-1.1-3.1a39.6,39.6,0,0,0,10.6-7.6c5.3-5.2,9.2-11.6,12.4-18.4,1.9-3.9,3.6-8.2,3.3-12.6A12.5,12.5,0,0,0,79.2,80h.5C92.8,83.6,82.1,100.2,77.6,106.4Z" style="fill:#e57225;opacity:0.30000000000000004;mix-blend-mode:multiply"/><path d="M77.5,90.7a15.7,15.7,0,0,1-9.7-2.2l.3-1h0a14.5,14.5,0,0,0,9.3,2.2A.5.5,0,1,1,77.5,90.7Z" style="fill:#ffaa5a"/><path d="M70.1,96.3A11.7,11.7,0,0,1,65.6,95l.3-1a10.7,10.7,0,0,0,4.4,1.3A.5.5,0,1,1,70.1,96.3Z" style="fill:#ffaa5a"/><path d="M75.3,96.6,72.9,96c-.7-.2-.8.8-.2,1l2.4.6C75.7,97.7,75.9,96.7,75.3,96.6Z" style="fill:#ffaa5a"/><path d="M70.4,104.8a17.4,17.4,0,0,1-6.9-2.5l.3-1a18.8,18.8,0,0,0,6.8,2.6C71.3,104,71.1,104.9,70.4,104.8Z" style="fill:#ffaa5a"/><path d="M66.7,111.7a11.8,11.8,0,0,1-5.9-1.1c.1-.2.1-.4.2-.6s.1-.2.2-.4a9.9,9.9,0,0,0,5.4,1.1C67.2,110.6,67.3,111.6,66.7,111.7Z" style="fill:#ffaa5a"/><path d="M62.5,117.9A11.3,11.3,0,0,1,58,117a3.6,3.6,0,0,1,.4-.9,10.6,10.6,0,0,0,4,.8C63,116.9,63.1,117.9,62.5,117.9Z" style="fill:#ffaa5a"/><path d="M19.9,88.1c-3.8,0-7.1-2.1-9.8-4.2S3.8,78.6,2,74.5c-.9-2-.5-3.9,1-4.7a2,2,0,0,1,1.3-.4,4.9,4.9,0,0,1,1.5.3,17.4,17.4,0,0,1,4,2.3l-.6-1.6a8.9,8.9,0,0,1-.7-4.9A2.3,2.3,0,0,1,9.2,64a2.5,2.5,0,0,1,1.5-.5,3.8,3.8,0,0,1,1.7.5,11.7,11.7,0,0,1,3,3.3,12.3,12.3,0,0,1-.2-1.9c-.2-1.9.8-2.9,1.9-3.1h.3a2.4,2.4,0,0,1,1.7.8c2.4,2.1,3.4,5,4.2,7.6a56.5,56.5,0,0,1,1.9,10.9c.1,1.4.1,3.5-1.3,5a5,5,0,0,1-3.6,1.5Z" style="fill:#887a25"/><path d="M17.4,63.8a1,1,0,0,1,.7.4,13.7,13.7,0,0,1,3.7,6.9,53.5,53.5,0,0,1,1.9,10.6c.2,2.6-.3,4.8-3.5,4.9h-.3c-3.3,0-6.3-1.9-8.9-3.9s-6.1-5.2-7.6-8.8c-.5-.9-.7-2.3.3-2.8l.6-.2,1,.2a17.1,17.1,0,0,1,7.2,5.8,68.8,68.8,0,0,0,5.8,7.3,65.8,65.8,0,0,1-7.7-14.3,7.5,7.5,0,0,1-.6-4.2.7.7,0,0,1,.2-.6h.5a1.1,1.1,0,0,1,.8.3,10.7,10.7,0,0,1,3.4,4.2,44.6,44.6,0,0,1,2.8,6.3c1.2,3,2.4,6.1,3.5,9.2-2-6.5-4-13-4.5-19.8-.1-.5,0-1.3.6-1.4h.1m0-3h-.5a3.9,3.9,0,0,0-3,2.5l-.7-.5a4.1,4.1,0,0,0-2.5-.8,3.5,3.5,0,0,0-2.6,1A3.4,3.4,0,0,0,7,65.3a9.1,9.1,0,0,0,.1,3.3l-.8-.3a7.9,7.9,0,0,0-2-.4,4.6,4.6,0,0,0-2,.5C.1,69.6-.6,72.4.6,75.1c2,4.4,5.6,7.6,8.6,9.9s6.4,4.6,10.7,4.6h.4a6.6,6.6,0,0,0,4.8-2c1.7-1.9,1.7-4.4,1.6-6.1a54.7,54.7,0,0,0-2-11.3c-.7-2.6-1.9-5.9-4.6-8.2a3.7,3.7,0,0,0-2.7-1.2Z" style="fill:#61562b"/><path d="M22.3,83.9A129.5,129.5,0,0,0,19,68.2S19.4,76.9,22.3,83.9Z" style="fill:#61562b"/><path d="M12.5,69.9s3.7,3.9,7.5,14.3C20,84.2,14.4,76,12.5,69.9Z" style="fill:#61562b"/><path d="M6,74s8.4,6.8,11.5,11C17.5,85,10,80,6,74Z" style="fill:#61562b"/><path d="M48.4,126.9a5.4,5.4,0,0,1-2.6-.9,124.8,124.8,0,0,1-21.9-18.5c-4.7-5-12.4-14.6-10.8-21.7.6-2.9,2.7-5.1,6.1-6.4l.6-.3a11.3,11.3,0,0,1,3.2-.5,10.5,10.5,0,0,1,6.2,2.1,16.9,16.9,0,0,1,4.2,5.2,4.7,4.7,0,0,1,.5,1c.9,1.5,1.7,3.3,2.7,5.4a3.6,3.6,0,0,0,.4.9c.5,1.4,1.1,2.7,1.7,4.1l1.2,2.9a67.4,67.4,0,0,0,3.2,6.9l.4.8c.8,1.4,1.6,2.8,2.5,4.2l1.1,1.8a51.1,51.1,0,0,1,3.7,7.4l.2.4c.8,2.4.1,4.4-1.7,5l-.9.2Z" style="fill:#e57225"/><path d="M23,80.1a8.5,8.5,0,0,1,5.3,1.8,13.7,13.7,0,0,1,3.8,4.8h0a4.1,4.1,0,0,1,.5.9,52,52,0,0,1,2.6,5.3l.4.9c.9,2,1.7,4,2.5,6a10.4,10.4,0,0,0,.4,1c1,2.4,2,4.7,3.2,7a.5.5,0,0,1,.2.4l.3.5c1,1.7,2,3.4,3.1,5.1a4.1,4.1,0,0,0,.5.9,39.5,39.5,0,0,1,3.6,7.1l.2.3c.4,1.2.4,2.8-.8,3.2h-.4a4.5,4.5,0,0,1-1.8-.7A124.8,124.8,0,0,1,25,106.5C19.8,101,7.2,85.8,19.7,80.8l.5-.2a8.7,8.7,0,0,1,2.8-.5m0-3a11.5,11.5,0,0,0-3.7.6l-.7.3c-4.8,1.9-6.5,5.1-7,7.5-1.6,7.4,5.2,16.6,11.2,23.1A127.4,127.4,0,0,0,45,127.2a5.8,5.8,0,0,0,3.4,1.2,3.2,3.2,0,0,0,1.4-.3c2.6-.9,3.6-3.7,2.6-6.9a1.7,1.7,0,0,0-.2-.5,52.6,52.6,0,0,0-3.8-7.5l-.6-.9-.6-1-2.4-4.1-.2-.5h-.1v-.2c-1.3-2.4-2.3-4.9-3.1-6.7v-.3l-.3-.7a16.7,16.7,0,0,1-.8-2c-.6-1.3-1.2-2.7-1.7-4.1l-.5-.9c-.9-2.2-1.8-3.9-2.6-5.6l-.6-.9h0a17.3,17.3,0,0,0-4.6-5.7A11.9,11.9,0,0,0,23,77.1Z" style="fill:#924f28"/><path d="M25,106.5a124.8,124.8,0,0,0,21.6,18.2c.7.4,1.5.9,2.2.6s1.2-2,.8-3.2a40.7,40.7,0,0,1-11.4-6.2A65.3,65.3,0,0,1,23.6,99.1c-2.3-3.7-4.5-7.7-4.8-12.1a12.8,12.8,0,0,1,1.4-6.4l-.5.2C7.2,85.8,19.8,101,25,106.5Z" style="fill:#e57225;opacity:0.30000000000000004;mix-blend-mode:multiply"/><path d="M23.2,91a15,15,0,0,0,9.4-3.4,4.1,4.1,0,0,0-.5-.9h0A14.4,14.4,0,0,1,23.2,90C22.5,90,22.6,91,23.2,91Z" style="fill:#ffaa5a"/><path d="M31.2,95.7a13.4,13.4,0,0,0,4.4-1.9l-.4-.9a12.7,12.7,0,0,1-4.3,1.8C30.3,94.8,30.6,95.8,31.2,95.7Z" style="fill:#ffaa5a"/><path d="M26.2,96.5l2.3-.8c.6-.3.9.7.3.9l-2.4.9C25.8,97.7,25.5,96.8,26.2,96.5Z" style="fill:#ffaa5a"/><path d="M31.9,104.2a19.7,19.7,0,0,0,6.6-3.4,10.4,10.4,0,0,1-.4-1,17.6,17.6,0,0,1-6.5,3.4C31,103.4,31.3,104.3,31.9,104.2Z" style="fill:#ffaa5a"/><path d="M36.5,110.5a11.3,11.3,0,0,0,5.7-1.8l-.3-.5a.5.5,0,0,0-.2-.4,10.4,10.4,0,0,1-5.2,1.7C35.8,109.5,35.9,110.5,36.5,110.5Z" style="fill:#ffaa5a"/><path d="M41.4,116.1a10.8,10.8,0,0,0,4.4-1.4,4.1,4.1,0,0,1-.5-.9,9,9,0,0,1-3.9,1.3C40.8,115.2,40.8,116.2,41.4,116.1Z" style="fill:#ffaa5a"/><path d="M23.8,133.7a5.2,5.2,0,0,1-5-3.9c-1.9-6.8-6.1-22.6-7.9-28a3.8,3.8,0,0,1-3.2-3.7v-.3a3.8,3.8,0,0,1,3.7-3.7h76a3.7,3.7,0,0,1,3.7,3.7v.3a3.7,3.7,0,0,1-3.7,3.8h-.2l-7.6,28a5.3,5.3,0,0,1-5.1,3.8Z" style="fill:#ce894a"/><path d="M87.4,95.6a2.2,2.2,0,0,1,2.2,2.2v.3a2.2,2.2,0,0,1-2.2,2.3H86l-7.9,29.1a3.7,3.7,0,0,1-3.6,2.7H23.8a3.8,3.8,0,0,1-3.6-2.7c-1.8-7-6.7-24.8-8.2-29.1h-.6a2.2,2.2,0,0,1-2.2-2.3v-.3a2.2,2.2,0,0,1,2.2-2.2h76m0-3h-76a5.2,5.2,0,0,0-5.2,5.2v.3a5.4,5.4,0,0,0,3.5,5c2,6.2,6.2,22,7.6,27.1a6.7,6.7,0,0,0,6.5,5H74.5a6.7,6.7,0,0,0,6.5-4.9l7.3-27a5.3,5.3,0,0,0,4.3-5.2v-.3a5.2,5.2,0,0,0-5.2-5.2Z" style="fill:#75411a"/><path d="M11.5,99.4c.6.1,6.6,22.1,8.7,30.1a3.8,3.8,0,0,0,3.6,2.7H74.5a3.7,3.7,0,0,0,3.6-2.7l8.2-30.1Z" style="fill:#ce894a"/><rect x="9.2" y="95.6" width="80.4" height="4.75" rx="2.2" style="fill:#ce894a"/><g style="opacity:0.30000000000000004;mix-blend-mode:multiply"><path d="M55.5,111.7a.6.6,0,0,0-.7-.2l-2.5,1.4-2.6-3.2,1.2-.6a.4.4,0,0,0,.2-.7.5.5,0,0,0-.6-.2l-1.4.7-1.8-2.2c-.1-.2-.5-.2-.7,0s-.2.4-.1.7l1.7,2L44,111.6l-2.8-3.5,4.8-2.5a.5.5,0,1,0-.5-.9l-6.6,3.5a.4.4,0,0,0-.2.7c.1.2.2.3.4.3h.2l1-.5,2.8,3.5-1.1.6a.5.5,0,0,0-.2.6.5.5,0,0,0,.5.3h.2l1.2-.7,1.7,2.1h.7c.2-.1.2-.5,0-.7l-1.5-1.9,4.2-2.2,2.6,3.2L48.2,115a.5.5,0,0,0-.2.7c.1.2.2.3.4.3h.3l6.6-3.5A.6.6,0,0,0,55.5,111.7Z" style="fill:#b94d3c"/><path d="M54,106.6l-1.3.7c-.3.1-.4.4-.2.6s.2.3.4.3h.3l1.4-.8,2.3,2.9.4.2h.3a.4.4,0,0,0,.1-.7l-2.2-2.7,3.3-1.8,2.2,2.7c.1.2.2.2.4.2h.3a.6.6,0,0,0,.1-.7l-2.1-2.6,1.3-.7c.3-.1.3-.4.2-.7a.6.6,0,0,0-.7-.2l-1.4.8-2.5-3a.4.4,0,0,0-.7-.1.6.6,0,0,0-.1.7l2.4,2.9-3.3,1.8-2.3-2.9a.4.4,0,0,0-.7-.1.4.4,0,0,0-.1.7Z" style="fill:#b94d3c"/><path d="M69.1,122.6,66.5,124,64,120.8l1.2-.6a.5.5,0,1,0-.5-.9l-1.3.7-1.8-2.2a.5.5,0,0,0-.8.7l1.6,2-4.2,2.2-2.8-3.5,4.8-2.5a.5.5,0,0,0,.3-.7.7.7,0,0,0-.7-.2l-6.7,3.5a.7.7,0,0,0-.2.7.5.5,0,0,0,.5.3h.2l.9-.5,2.8,3.5-1,.6a.4.4,0,0,0-.2.7.5.5,0,0,0,.4.2h.3L58,124l1.6,2.1.4.2.3-.2a.5.5,0,0,0,.1-.7l-1.5-1.9,4.2-2.2,2.5,3.2-3.1,1.7a.4.4,0,0,0-.3.6.5.5,0,0,0,.5.3h.2l6.7-3.5a.5.5,0,0,0,.2-.6A.6.6,0,0,0,69.1,122.6Z" style="fill:#b94d3c"/><path d="M76,118.3l-2-2.6,1.3-.7a.6.6,0,0,0,.2-.7.7.7,0,0,0-.7-.2l-1.5.8-2.4-3a.5.5,0,0,0-.7-.1.4.4,0,0,0-.1.7l2.3,2.9-3.2,1.8-2.4-2.9a.4.4,0,0,0-.7-.1.6.6,0,0,0-.1.7l2.3,2.8-1.4.7a.4.4,0,0,0-.1.6c.1.2.2.3.4.3h.3l1.4-.7,2.3,2.8c.1.2.2.2.4.2h.3a.6.6,0,0,0,.1-.7L69.8,118l3.3-1.8,2.1,2.7a.4.4,0,0,0,.4.2h.3A.4.4,0,0,0,76,118.3Z" style="fill:#b94d3c"/><path d="M43.2,124.7,41,125.9l-2.5-3,3.2-1.9c.3-.1.4-.4.2-.6a.4.4,0,0,0-.7-.2l-3.3,1.9-2.2-2.7a.4.4,0,0,0-.7-.1.6.6,0,0,0-.1.7l2.1,2.6-3.7,2.1-3.5-3.9,2.7-1.4a.4.4,0,0,0,.2-.7.5.5,0,0,0-.6-.2L29.2,120l-2.6-2.9,4.2-2.2,1.7,2h.7c.2-.1.2-.5,0-.7l-1.5-1.8,3.2-1.7a.5.5,0,0,0-.5-.9l-3.3,1.8L29.8,112a.5.5,0,0,0-.8-.1.5.5,0,0,0,0,.7l1.2,1.5-4.3,2.2-.8-.9a.5.5,0,1,0-.8.6l.7.8-3.3,1.8-.9-1.1c-.1-.2-.5-.2-.7-.1a.6.6,0,0,0,0,.8l3.5,4.2.3.2h.4a.5.5,0,0,0,0-.7l-2-2.4,3.4-1.8,2.5,2.9-2.4,1.3a.4.4,0,0,0-.2.7.5.5,0,0,0,.4.2h.3l2.6-1.4,3.5,3.9-3.8,2.1-2-2.5a.5.5,0,0,0-.8.6l1.9,2.4-1.7,1c-.3.1-.4.4-.2.6s.2.3.4.3h.2l1.9-1,.7.9.4.2h.3a.6.6,0,0,0,.1-.7l-.6-.8L33,126l2,2.2h.7a.5.5,0,0,0,0-.7l-1.8-2,3.8-2.1,2.4,3-3,1.8a.6.6,0,0,0-.2.7l.4.2h.3l3.2-1.8.3.4a.5.5,0,0,0,.4.2h.3a.5.5,0,0,0,.1-.7l-.2-.3,2-1.2c.3-.1.3-.4.2-.7A.5.5,0,0,0,43.2,124.7Z" style="fill:#b94d3c"/></g><polygon points="12 100.4 13 103.7 85.2 103.7 86 100.4 12 100.4" style="opacity:0.30000000000000004"/><path d="M53.9,115.6c-8.5,0-36.1-16.8-39.2-18.7a1.7,1.7,0,0,1-.7-1.7,1.6,1.6,0,0,1,1.5-1.1H84a1.4,1.4,0,0,1,1.4,1.1,1.5,1.5,0,0,1-.6,1.7c-.9.6-23.3,15.5-28.9,18.3a4,4,0,0,1-2,.4Z" style="fill:#007cff"/><path d="M84,95.6h0m0,0s-23.2,15.5-28.7,18.2a2.9,2.9,0,0,1-1.4.3c-8.3,0-38.4-18.5-38.4-18.5H84m0-3H15.5a3,3,0,0,0-2.9,2.2,3,3,0,0,0,1.3,3.4c5.2,3.1,31.3,18.9,40,18.9a5.7,5.7,0,0,0,2.7-.6c5.6-2.8,27.4-17.3,29-18.4A2.9,2.9,0,0,0,87,95.6a3,3,0,0,0-3-3Zm0,6Z" style="fill:#5576b4"/><line x1="46.5" y1="112.1" x2="74" y2="95.6" style="fill:none;stroke:#fff;stroke-miterlimit:10;stroke-width:0.25px"/><line x1="39.3" y1="108.9" x2="62.2" y2="95.5" style="fill:none;stroke:#fff;stroke-miterlimit:10;stroke-width:0.25px"/><line x1="33" y1="105.6" x2="50.3" y2="95.5" style="fill:none;stroke:#fff;stroke-miterlimit:10;stroke-width:0.25px"/><line x1="26.5" y1="101.9" x2="37.4" y2="95.5" style="fill:none;stroke:#fff;stroke-miterlimit:10;stroke-width:0.25px"/><line x1="57.7" y1="112" x2="29.1" y2="95.6" style="fill:none;stroke:#fff;stroke-miterlimit:10;stroke-width:0.25px"/><line x1="63.6" y1="108.5" x2="40.9" y2="95.5" style="fill:none;stroke:#fff;stroke-miterlimit:10;stroke-width:0.25px"/><line x1="69.2" y1="105.1" x2="52.7" y2="95.5" style="fill:none;stroke:#fff;stroke-miterlimit:10;stroke-width:0.25px"/><line x1="75.3" y1="101.2" x2="65.7" y2="95.5" style="fill:none;stroke:#fff;stroke-miterlimit:10;stroke-width:0.25px"/><path d="M15.5,95.6s34.2,21,39.8,18.2S84,95.6,84,95.6Z" style="fill:#fff;opacity:0.6000000000000001"/><rect x="15.2" y="2.2" width="4.3" height="10.02" rx="2.2" transform="translate(24.6 24.5) rotate(-135)" style="fill:#8d8d8d;stroke:#575757;stroke-linecap:round;stroke-linejoin:round;stroke-width:3px"/><circle cx="15.5" cy="9.8" r="5.3" style="fill:none;stroke:#fcd54d;stroke-linecap:round;stroke-linejoin:round;stroke-width:3px"/><path d="M16.5,4.9A3.5,3.5,0,0,0,20,8.4h.8a2.7,2.7,0,0,0,1.3-.7h.1l.4-.4a3.6,3.6,0,0,0,.8-2.3A3.4,3.4,0,0,0,20,1.5h-.4l-1.3.4-.6.5-.5.5A3.7,3.7,0,0,0,16.5,4.9Z" style="fill:#cecece;stroke:#575757;stroke-linecap:round;stroke-linejoin:round;stroke-width:3px"/><path d="M18.3,1.9l3.2,6,.6-.3h.1l.4-.4-3-5.7Z" style="fill:#fff"/><path d="M17.2,2.9l2.9,5.5h.7L17.7,2.4Z" style="fill:#fff"/><path d="M16.5,4.9A3.5,3.5,0,0,0,20,8.4h.8a2.7,2.7,0,0,0,1.3-.7h.1l.4-.4a3.6,3.6,0,0,0,.8-2.3A3.4,3.4,0,0,0,20,1.5h-.4l-1.3.4-.6.5-.5.5A3.7,3.7,0,0,0,16.5,4.9Z" style="fill:none;stroke:#575757;stroke-linecap:round;stroke-linejoin:round;stroke-width:3px"/></g></g></g></svg>