<svg xmlns="http://www.w3.org/2000/svg" viewBox="0 0 62.4 66.6"><g id="Layer_2" data-name="Layer 2"><g id="Layer_1-2" data-name="Layer 1"><path d="M18.3,20.8a1.4,1.4,0,0,1-1.2-.6,1.4,1.4,0,0,1-.2-1.4c.9-2.3,3.5-3.2,7.4-4.5l.9-.3c1.4-.4,1.9-2.2,1.7-3.6s-1-3.5-2.9-3.8a1.2,1.2,0,0,1-1.1-.7,2.8,2.8,0,0,1-.2-3,3.3,3.3,0,0,1,3.1-1.4H26c6.5.6,7.4,4.6,8.3,8.2a19.4,19.4,0,0,0,1.2,3.9A10.1,10.1,0,0,0,38,15.1a18.5,18.5,0,0,1,2.9,1.7,1.6,1.6,0,0,1,.4,1.6,1.5,1.5,0,0,1-1.4,1L18.4,20.8Z" style="fill:#6c6120;fill-rule:evenodd"/><path d="M25.8,3c7.5.7,6,6.1,8.3,11.2.6,1.3,4.5,2.6,5.7,3.7L18.3,19.3c.7-1.8,3.2-2.5,7.4-3.8s3.6-9.6-1.5-10.4c0,0-1.4-2.1,1.6-2.1m0-3h0c-2.6,0-3.9,1.2-4.4,2.2a4.5,4.5,0,0,0,.2,4.5,3,3,0,0,0,2.1,1.4c1.5.2,1.7,2.2,1.7,2.4s-.2,2-.7,2.1l-.9.3c-4.1,1.4-7.1,2.4-8.3,5.3a3,3,0,0,0,2.8,4.1h.2L40,20.9a2.9,2.9,0,0,0,2.7-2,3,3,0,0,0-.8-3.2,22.3,22.3,0,0,0-3.2-2,18.6,18.6,0,0,1-2-1,33.7,33.7,0,0,1-1-3.4c-.8-3.6-2-8.6-9.6-9.3Z" style="fill:#4c4318"/><path d="M30.1,65.1a8.6,8.6,0,0,1-3.6-.8h-.3a1.7,1.7,0,0,1-1-.3l-.4-.2-3.1-.6H20.6l-1-.3h-.3c-9,0-13.3-4.1-15.3-7.6C-.8,47,1.8,33.9,6.9,25.2c3.1-5.3,6.6-6.4,9.1-6.4l2,.2h.3a8.7,8.7,0,0,1,6-2.6,9.4,9.4,0,0,1,2,.3H27a7.7,7.7,0,0,1,2.7-.7H30a6.1,6.1,0,0,1,3.5,1.1h.4a7.5,7.5,0,0,1,2.4-.4,9.2,9.2,0,0,1,6.2,2.7h.4l1.8-.2c2.4,0,6.1,1.2,9.5,6.6,5.7,8.9,9.1,22.3,4.6,30.4-1.8,3.3-5.7,7.1-14.1,7.1h-1l-.8.3h-.5l-.7-.2a17.9,17.9,0,0,1-5.3.7H35.3a1.7,1.7,0,0,1-1,.3h-.4a9.4,9.4,0,0,1-3.7.7Z" style="fill:#ff8d3d;fill-rule:evenodd"/><path d="M30,17.3a5.4,5.4,0,0,1,3.2,1.1h.5a.3.3,0,0,0,.1.2,4.5,4.5,0,0,1,2.5-.6,7.8,7.8,0,0,1,5.6,2.8h.6V21a5.6,5.6,0,0,1,2.1-.4c2.1,0,5.2,1.1,8.2,5.9C60.7,38.7,65,61.7,44.7,61.7H43.4l-.9.4h-.1c-.2,0-.3-.1-.4-.3a18.9,18.9,0,0,1-5.6.8H35l-.5.3c0,.1-.1.1-.2.1l-.3-.2h0a8.5,8.5,0,0,1-3.8.9h-.1a7,7,0,0,1-3.6-1l-.3.2H26l-.7-.4a15.9,15.9,0,0,1-3.9-.8.3.3,0,0,1-.3.3H21l-1.2-.4h-.5c-21,0-18.2-23.3-11.1-35.5,2.7-4.6,5.6-5.6,7.8-5.6a6.2,6.2,0,0,1,2.2.4h0a.5.5,0,0,1,.4-.2h.2a7.5,7.5,0,0,1,5.5-2.7,6.2,6.2,0,0,1,2.2.4h.2c0-.1.1-.1.2-.1l.3.2a4.5,4.5,0,0,1,2.5-.9H30m0-3h-.4a8.2,8.2,0,0,0-2.9.7h-.4a6.4,6.4,0,0,0-2-.3,10.2,10.2,0,0,0-6.6,2.6H16c-2.9,0-7,1.2-10.4,7.1C.3,33.5-2.4,47.3,2.7,56c2.2,3.8,6.9,8.4,16.6,8.4h0l.9.3h1.5l2.6.5h.2a3.4,3.4,0,0,0,1.7.5h0a10,10,0,0,0,3.8.8h.2a10.4,10.4,0,0,0,3.9-.7h.2a4,4,0,0,0,1.5-.3h.6a21.2,21.2,0,0,0,5.2-.6h.8l1-.2.6-.2h.7c9.2,0,13.4-4.3,15.4-7.9,4.8-8.6,1.3-22.6-4.6-31.9-3.8-6-8-7.3-10.8-7.3H43.1A10.5,10.5,0,0,0,36.3,15a8.8,8.8,0,0,0-2.4.3,7.6,7.6,0,0,0-3.9-1Z" style="fill:#ff8d3d"/><path d="M18.6,20.8c-1.4-.6-6.3-2-10.4,5.1C1,38.4-1.9,62.7,21.1,61.4,7.5,56.5,10.4,35.5,16.6,23.9A15.1,15.1,0,0,1,18.6,20.8Z" style="fill:#ffaa5a;fill-rule:evenodd"/><path d="M16.5,23.9C10.3,35.5,7.4,56.4,21,61.4h0a20.6,20.6,0,0,0,8.9.9c-6-2.6-11.5-12-8.9-24.4,1.9-8.8,4.1-15.6,6.3-19.3-.2-.1-4.5-2.7-8.7,2.2h-.1A19.5,19.5,0,0,0,16.5,23.9Z" style="fill:#ffaa5a;fill-rule:evenodd"/><path d="M42.2,21.1c1.4-.6,6.2-1.9,10.7,5.4,8.1,12.6,12.4,37-10.6,35.1,13.3-4.6,9-25.6,2.2-37.3A24.4,24.4,0,0,0,42.2,21.1Z" style="fill:#ffaa5a;fill-rule:evenodd"/><path d="M44.6,24.3C51.5,36.1,55.7,57,42.4,61.7h0a20.7,20.7,0,0,1-8.9.7c5.9-2.5,10.8-11.8,7.4-24.2-2.4-8.9-5-15.7-7.5-19.4.2-.2,4.4-2.7,8.9,2.3h.1A32,32,0,0,1,44.6,24.3Z" style="fill:#ffaa5a;fill-rule:evenodd"/><path d="M41,38.2c-3.8-13.9-5.8-21.1-11.3-20.9-2.1.1-4.1,1.1-6,7.3-8,27.2-1,38.9,6.4,39S45,52.8,41,38.2Z" style="fill:#ffaa5a;fill-rule:evenodd"/><path d="M42.5,20.8a.6.6,0,0,0-.6,0,.4.4,0,0,0,0,.6s7.2,7.6,8.6,22.4-8.2,17.5-8.2,17.5-.4.3-.3.5a.5.5,0,0,0,.5.3s10.3-3,8.8-18.4S42.5,20.9,42.5,20.8Z" style="fill:#ff8d3d;fill-rule:evenodd"/><path d="M18.9,21.1c.1-.2.1-.5-.1-.6a.5.5,0,0,0-.6.1A42.1,42.1,0,0,0,11,46.3h0c0,.6.8,13.2,10,15.5a.5.5,0,0,0,.5-.3c0-.2-.1-.5-.3-.5-8.6-2.2-9.4-14.2-9.4-14.7h0A41.5,41.5,0,0,1,18.9,21.1Z" style="fill:#ff8d3d;fill-rule:evenodd"/><path d="M33.7,18.4c-.2-.1-.5-.1-.6.1s-.1.4,0,.6,5.1,4.1,8.5,25.4c.1.4,1.3,12.4-7.5,17.6a.5.5,0,0,0-.1.6c.1.2.3.3.5.1,9.4-5.5,7.9-18.3,7.9-18.4h0C38.9,22.8,33.7,18.5,33.7,18.4Z" style="fill:#ff8d3d;fill-rule:evenodd"/><path d="M27.2,18.7c.1-.1.2-.4,0-.5a.3.3,0,0,0-.5-.1c-.1,0-4.8,3.6-6.7,23.5,0,.1-2,16.5,6,21.1.2.1.4.1.5-.1a.5.5,0,0,0-.1-.6c-7.5-4.4-5.6-20.2-5.6-20.3h0C22.7,22.2,27.2,18.7,27.2,18.7Z" style="fill:#ff8d3d;fill-rule:evenodd"/></g></g></svg>