<svg xmlns="http://www.w3.org/2000/svg" viewBox="0 0 100.9 79.5"><g style="isolation:isolate"><g id="Layer_2" data-name="Layer 2"><g id="Layer_1-2" data-name="Layer 1"><g id="VC"><path d="M62.5,78a89.8,89.8,0,0,1-14.4-1.1l-4.9-.8a103.3,103.3,0,0,1-11-2.9A109,109,0,0,1,19.8,68,85.1,85.1,0,0,1,6.7,59.8c-5.1-4.1-5.2-5.9-5.2-6.5-.1-3.5,10.3-13.1,14.8-16.4a62.2,62.2,0,0,1,8.9-5.3,14.5,14.5,0,0,0,3.2-1.9,13,13,0,0,0,.8-4.5c-.1-1.6,8.9-20.4,11.2-22.3.7-.6,2.3-1.4,7.9-1.4h1.5l6.3.4A156.7,156.7,0,0,1,75,4.9l3.8.8,6.3,1.7c8.3,2.6,11.8,4.9,13.1,5.8l.3.2a.8.8,0,0,1,.4.4H99v.2c1.4,2.8-4.5,30.7-8.9,42C84.9,69.7,72.3,76.5,69.4,77.5S64,78,62.5,78Z" style="fill:#a7bfee"/><path d="M48.3,3h1.4l6.2.4A158.3,158.3,0,0,1,74.7,6.3l3.8.9,6.2,1.7c8.9,2.7,12.1,5.2,13,5.8h.1c.9,1.8-4,28-9,40.8S71.5,75.2,68.9,76a25.6,25.6,0,0,1-6.4.5,98.8,98.8,0,0,1-14.2-1c-1.6-.3-3.2-.5-4.8-.9a90.5,90.5,0,0,1-10.8-2.8,97.3,97.3,0,0,1-12.2-5.2,75.7,75.7,0,0,1-12.8-8C4.8,56.3,3.1,54.3,3,53.2s8.4-10.8,14.2-15.1,11.7-6.2,12.5-7.6a15,15,0,0,0,1-5.5c-.1-.7,8.4-19.1,10.6-20.9S44.6,3,48.3,3m0-3h0c-6,0-7.9.9-8.9,1.8s-2,1.6-7,11.9-4.7,10.9-4.7,11.6a14.8,14.8,0,0,1-.5,3.5l-2.7,1.4a73.2,73.2,0,0,0-9.1,5.5,92.5,92.5,0,0,0-9.7,8.7C-.1,50.5,0,52.3,0,53.3S.8,57,5.8,60.9a80.5,80.5,0,0,0,13.3,8.4,97.8,97.8,0,0,0,12.7,5.3,81.2,81.2,0,0,0,11.1,3l5,.8a105.9,105.9,0,0,0,14.6,1.1c2,0,5.7,0,7.4-.6s16.1-8,21.7-22.2c3.2-8.3,5.9-20.2,6.8-25,3.3-15.8,2.4-17.5,2.1-18.3l-.3-.4h-.1a3,3,0,0,0-.8-.8H99c-1.4-1-5-3.4-13.5-6L79.2,4.3l-3.9-.9A159.6,159.6,0,0,0,56.2.4L49.8,0Z" style="fill:#5576b4"/></g><path d="M55.9,3.4l-.7.4c-8,4.8-12.9,21.3-12.6,23.7S45.9,33,45.9,33a41.6,41.6,0,0,0-18.3,6.3c-9.1,5.8-16,16.2-15.6,18.3s6.7,7.4,8.5,9a75.7,75.7,0,0,1-12.8-8,4.3,4.3,0,0,1-1.4-2.4c-.5-4.3,12.8-22.2,35-24a14,14,0,0,1-3-6.8C38,21.8,42.4,7.3,49.7,3Z" style="fill:#ffeb81"/><path d="M84.7,8.9h0c-5.6-.3-13.2,27.2-12.9,28s-9.1,2.5-22.1,12S35.2,62.5,34.8,63.7,45.4,74.5,48.3,75.5c-1.6-.3-3.2-.5-4.8-.9l-.6-.2c-6.3-2.2-15.6-9-15.7-12.3s9.9-11.3,17.1-16.3,22.3-9.6,23-9.8S70,21.1,73.4,14.6c2.3-4.3,4.1-6.5,5.1-7.4Z" style="fill:#ffeb81"/><g id="VC-2" data-name="VC"><path d="M88.8,55.6C83.7,68.7,71.5,75.2,68.9,76a23.9,23.9,0,0,1-6.8.5,96.2,96.2,0,0,1-29.4-4.7C20.6,67.7,10,61.1,5.4,56.7,3.9,55.2,3,54,3,53.2c.9,2.5,13.2,6.2,26.3,9.4h.1c6.8,1.6,13.8,3.1,19.7,4.2s12.1,2,13.2,1.9c4.2-.6,24.7-20.4,26-24.7L90,38.5h0l5.8-17.7h0l1.9-5.9h.1C98.7,16.6,93.8,42.8,88.8,55.6Z" style="fill:#5576b4;opacity:0.5;mix-blend-mode:multiply"/><path d="M33.5,20.2c-1.7,8.4,34.9,16.4,34.9,16.4s-35.1-6.7-44.7-2.4-16,13.3-15.3,17,26.1,19,57.5,8.6,26.1-46,23.8-48S62.8,1.3,50.9,4.4,34.6,14.9,33.5,20.2Z" style="fill:#a7bfee;opacity:0.45;mix-blend-mode:screen"/></g></g></g></g></svg>