<svg xmlns="http://www.w3.org/2000/svg" viewBox="0 0 55 62"><g id="Layer_2" data-name="Layer 2"><g id="Layer_1-2" data-name="Layer 1"><g id="VC"><path d="M31.4,21.8H30a.9.9,0,0,1-1-1,1,1,0,0,1,1-1h.2a2.2,2.2,0,0,0,.2-1.5c0-.3-.4-.5-.8-.7s-.5-.2-.7-.5a1.1,1.1,0,0,1,0-.8A31.4,31.4,0,0,1,37.5,4.4a13.8,13.8,0,0,1,9-3.4,4.6,4.6,0,0,1,2.1.4c.5.3.5.8.6.9.3,1.8-.7,9.1-3.9,13s-11.9,6-13.4,6.3l-.5.2Z" style="fill:#baa2ee"/><path d="M46.5,2l1.6.2c.5.4-.3,8.5-3.6,12.5s-13.1,6-13.1,6H30c1.4,0,1.5-1.9,1.4-2.6s-.7-1.2-1.5-1.5A29,29,0,0,1,38.1,5.1,13.5,13.5,0,0,1,46.5,2m0-2h0a15.4,15.4,0,0,0-9.7,3.6A32.2,32.2,0,0,0,28,15.8a2.2,2.2,0,0,0,0,1.6,2.5,2.5,0,0,0,1.2,1.1c.1,0,.2,0,.2.1v.2A2,2,0,0,0,28,20.7a2,2,0,0,0,2,2h1.4l.8-.2c2.1-.5,10.5-2.5,13.8-6.6S50.5,4.4,50.2,2.2A2.6,2.6,0,0,0,49.1.5,4.8,4.8,0,0,0,46.5,0Z" style="fill:#7850b3"/><path d="M23.6,21.8l-.5-.2c-1.7-.3-10.1-2.3-13.4-6.3S5.5,4.1,5.8,2.3c.1-.1.1-.6.6-.9A4.6,4.6,0,0,1,8.5,1a13.6,13.6,0,0,1,9,3.4,31.4,31.4,0,0,1,8.6,11.8,1.1,1.1,0,0,1,0,.8c-.2.3-.4.5-.6.5s-.9.4-.9.7a3.2,3.2,0,0,0,.2,1.5H25a1,1,0,0,1,1,1,.9.9,0,0,1-1,1Z" style="fill:#baa2ee"/><path d="M8.5,2a13.5,13.5,0,0,1,8.4,3.1,30.4,30.4,0,0,1,8.3,11.5c-.9.3-1.6.8-1.6,1.5s0,2.6,1.4,2.6H23.6s-9.8-2-13.1-6S6.4,2.6,6.9,2.2A4.7,4.7,0,0,1,8.5,2m0-2A4.8,4.8,0,0,0,5.9.5,2.6,2.6,0,0,0,4.8,2.2C4.5,4.4,5.7,11.9,9,16s11.8,6.2,13.8,6.6l.8.2H25a2,2,0,0,0,2-2,2,2,0,0,0-1.4-1.9v-.2c0-.1.1-.1.2-.1A2.5,2.5,0,0,0,27,17.4a2.2,2.2,0,0,0,0-1.6A32.2,32.2,0,0,0,18.2,3.6,15.4,15.4,0,0,0,8.5,0Z" style="fill:#7850b3"/><path d="M13.1,61a10.3,10.3,0,0,1-7.6-3.6c-3.3-3.6-5-9.5-4.4-15.7,1-10.1,8-17.8,12.7-20.1,2.2-1.1,5.5-1.7,9.7-1.8h8c4.2.1,7.5.7,9.7,1.8,4.7,2.3,11.8,10,12.7,20.1.6,6.2-1.1,12.1-4.4,15.7A10.2,10.2,0,0,1,41.9,61Z" style="fill:#baa2ee"/><path d="M28.6,20.7h2.8c3.1.1,6.8.4,9.4,1.7s11.1,9.1,12.1,19.3S48.7,60,41.9,60H13.1c-6.8,0-11.9-8-11-18.2s8.2-17.4,12.1-19.3,6.3-1.6,9.4-1.7h5m0-2H23.5a26.4,26.4,0,0,0-10.2,1.9C8.4,23.1,1.1,31.1.1,41.6c-.6,6.5,1.1,12.6,4.6,16.5A11.5,11.5,0,0,0,13.1,62H41.9a11.5,11.5,0,0,0,8.4-3.9c3.5-3.9,5.2-10,4.6-16.5-1-10.5-8.3-18.5-13.2-20.9a26.4,26.4,0,0,0-10.2-1.9H28.6Z" style="fill:#7850b3"/><path d="M30.7,20.7H24.3C18.1,25,11.2,34.3,9.2,42.6s-.2,14,1.5,17a6.7,6.7,0,0,0,2.4.4H41.9a6.7,6.7,0,0,0,2.4-.4c1.7-3,3.2-9.8,1.5-17S36.9,25,30.7,20.7Z" style="fill:#e6dff7"/><path d="M42.2,8a.6.6,0,0,0-.8.1h0a25.9,25.9,0,0,1-8.8,8,3.9,3.9,0,0,1-1.1.6c-.1-.1-.2-.2-.2-.3l-.3-.2h-.3a.7.7,0,0,0-.5.4.7.7,0,0,0,.2.6h0l-.9.4a.6.6,0,0,0-.3.8h0V19a.5.5,0,0,0,.6.4h.2l.9-.3c0,.2-.2.4-.3.6l-.7-.2a.8.8,0,0,0-.7.3h-.4l-.2.2c-.2.1-.2.2-.2.4h-.8a1.1,1.1,0,0,0-.1-.5h-.3a.1.1,0,0,1-.1-.1h-.3l-.3.2h-.1l-1.2.3-.7-.6h.1l.5-.2a.7.7,0,0,0,.1-.6l-.2-.4h0a.6.6,0,0,0,.2-.8h.3v-.3a.6.6,0,0,0-.1-.6l-.3-.2h-.3l-.5.2a31.4,31.4,0,0,0-7.1-6.5h-.6a.5.5,0,0,0-.3.5.4.4,0,0,0,.2.5,28.1,28.1,0,0,1,6.9,6.4.8.8,0,0,0-.2.5L21,16.6a32.7,32.7,0,0,1-3.6-2.5.5.5,0,0,0-.6-.1c-.2.1-.4.2-.4.5v.3l.2.2,3.8,2.6A20.1,20.1,0,0,0,22.9,19a3.7,3.7,0,0,0,.7,1.4,32.7,32.7,0,0,0-6.7,2.8l-.3.2v.3a.5.5,0,0,0,.3.5h.6a35.2,35.2,0,0,1,6.3-2.7A16.5,16.5,0,0,0,19.5,28v.5c.2.2.3.3.5.3h.1a1,1,0,0,0,.5-.4,16,16,0,0,1,5.3-7h3.7A15.1,15.1,0,0,1,33,23.8,11.7,11.7,0,0,1,35.7,28c0,.2.2.3.4.4h.1l.5-.2.2-.3v-.3a11.8,11.8,0,0,0-3-4.7l-1.6-1.3,1.4.6a28.7,28.7,0,0,1,3.6,2.1l.3.2h.3a.5.5,0,0,0,.3-.5,1.1,1.1,0,0,0-.2-.6A23.6,23.6,0,0,0,34,21.1l-2.3-1a3.3,3.3,0,0,0,.4-1.3,55.7,55.7,0,0,0,7.7-3,.6.6,0,0,0,.3-.8.7.7,0,0,0-.8-.3h0a60.7,60.7,0,0,1-5.9,2.4,29.9,29.9,0,0,0,6.8-5.5,30.1,30.1,0,0,0,2.2-2.8A.5.5,0,0,0,42.2,8Z" style="fill:#7850b3"/><path d="M25,21.7h-.2a2.1,2.1,0,0,1-1.4-.7,3.5,3.5,0,0,1-.8-2.9,2.9,2.9,0,0,1,2.2-2.5,10.9,10.9,0,0,1,2.6-.3h.2a10.9,10.9,0,0,1,2.6.3,2.9,2.9,0,0,1,2.2,2.5,3.5,3.5,0,0,1-.8,2.9,2.1,2.1,0,0,1-1.4.7H25Z" style="fill:#baa2ee"/><path d="M27.6,16.3a8.5,8.5,0,0,1,2.3.3c.8.3,1.5.8,1.5,1.5s0,2.6-1.4,2.6H25c-1.4,0-1.5-1.9-1.4-2.6s.7-1.2,1.6-1.5a7.3,7.3,0,0,1,2.2-.3h.2m0-2h-.2a9.2,9.2,0,0,0-2.9.4A3.8,3.8,0,0,0,21.6,18a4.7,4.7,0,0,0,1.1,3.7,3,3,0,0,0,2,1h5.6a3,3,0,0,0,2-1A4.7,4.7,0,0,0,33.4,18a3.8,3.8,0,0,0-2.9-3.3,8.8,8.8,0,0,0-2.9-.4Z" style="fill:#7850b3"/></g><path d="M36,48.8c0,4.7-3.8,4.6-8.5,4.6s-8.5.1-8.5-4.6a11.5,11.5,0,0,1,2.9-7.4A8.9,8.9,0,0,1,26,38.7c-.1-3.3-1.2-5.8-2.5-5.8A1.8,1.8,0,0,0,22,34c.6-2.1,1.5-3.4,2.5-3.4s3,3.4,3,7.7v.2h0v-.2c0-4.3,1.3-7.7,3-7.7s1.9,1.3,2.4,3.4c-.4-.7-.9-1.1-1.4-1.1s-2.4,2.5-2.6,5.8a8.7,8.7,0,0,1,4.2,2.7A11.5,11.5,0,0,1,36,48.8Z" style="fill:#f9e4e4"/><path d="M33.1,41c-.1,0-.3-.1-.3-.2a7.9,7.9,0,0,0-4-2.5.5.5,0,0,1-.3-.5c.2-3.6,1.5-6.1,3-6.1A2,2,0,0,1,33.3,33h.1a19.7,19.7,0,0,1,.5,4.4,13.2,13.2,0,0,1-.4,3.2l-.3.2Z" style="fill:#f9e4e4"/><path d="M31.5,32.1c.5,0,1,.4,1.4,1.1a14.1,14.1,0,0,1,.5,4.3,11.5,11.5,0,0,1-.3,3,7.9,7.9,0,0,0-4.2-2.6c.2-3.3,1.3-5.8,2.6-5.8m0-.9c-2.1,0-3.2,3.3-3.4,6.6a.9.9,0,0,0,.6.9,6.6,6.6,0,0,1,3.7,2.4.9.9,0,0,0,.7.3h.1a1.1,1.1,0,0,0,.7-.6,10.2,10.2,0,0,0,.4-3.3,20.6,20.6,0,0,0-.5-4.5.3.3,0,0,1-.1-.2c-.8-1.3-1.6-1.6-2.2-1.6Z" style="fill:#7850b3"/><path d="M21.9,41h-.1l-.3-.3a9.6,9.6,0,0,1-.4-3.2,19.7,19.7,0,0,1,.5-4.4c0-.1,0-.1.1-.1a2,2,0,0,1,1.8-1.3c1.5,0,2.8,2.5,3,6.1,0,.3-.2.4-.4.5a7.7,7.7,0,0,0-3.9,2.5C22.2,40.9,22,41,21.9,41Z" style="fill:#f9e4e4"/><path d="M23.5,32.1c1.3,0,2.4,2.5,2.5,5.8a8.2,8.2,0,0,0-4.1,2.7,12.3,12.3,0,0,1-.4-3.1,18.1,18.1,0,0,1,.5-4.3,1.8,1.8,0,0,1,1.5-1.1m0-.9a2.6,2.6,0,0,0-2.2,1.6.3.3,0,0,0-.1.2,20.6,20.6,0,0,0-.5,4.5,9.9,9.9,0,0,0,.4,3.3,1.1,1.1,0,0,0,.7.6h.1a.9.9,0,0,0,.7-.3,7,7,0,0,1,3.6-2.4,1,1,0,0,0,.7-.9c-.2-3.3-1.3-6.6-3.4-6.6Z" style="fill:#7850b3"/><path d="M26.6,49.3c0-.5.4-.5.9-.5s.9,0,.9.5-.4,1.1-.9,1.1S26.6,49.8,26.6,49.3Z" style="fill:#7850b3"/><path d="M25.3,48.8a1.1,1.1,0,1,1-1.1-1.1A1.1,1.1,0,0,1,25.3,48.8Z" style="fill:#7850b3"/><path d="M29.7,48.8a1.1,1.1,0,1,0,1.1-1.1A1.1,1.1,0,0,0,29.7,48.8Z" style="fill:#7850b3"/><path d="M30.5,30.6c1,0,1.9,1.3,2.4,3.4a14.5,14.5,0,0,1,.5,4.3,11.9,11.9,0,0,1-.3,3.1A11.5,11.5,0,0,1,36,48.8c0,4.6-3.6,4.6-8.2,4.6h-.6c-4.6,0-8.2,0-8.2-4.6a11.5,11.5,0,0,1,2.9-7.4,11.1,11.1,0,0,1-.4-3.1A18.8,18.8,0,0,1,22,34c.6-2.1,1.5-3.4,2.5-3.4s3,3.4,3,7.7v.2h0v-.2c0-4.3,1.3-7.7,3-7.7m0-1.3c-1.3,0-2.3.9-3,2.4-.7-1.5-1.7-2.4-3-2.4s-3,1.6-3.7,4.4a22.4,22.4,0,0,0-.5,4.6,21.6,21.6,0,0,0,.2,2.8,13.1,13.1,0,0,0-2.7,7.7c0,2.6,1,4.4,3.1,5.2a18.2,18.2,0,0,0,6.3.7h.6c2.3,0,4.6,0,6.3-.7s3.2-2.6,3.2-5.2a13,13,0,0,0-2.8-7.7,21.6,21.6,0,0,0,.2-2.8,22.4,22.4,0,0,0-.5-4.6c-.8-2.8-2.1-4.4-3.7-4.4Z" style="fill:#7850b3"/></g></g></svg>