<svg xmlns="http://www.w3.org/2000/svg" viewBox="0 0 326.2 267.5"><g style="isolation:isolate"><g id="Layer_2" data-name="Layer 2"><g id="Layer_1-2" data-name="Layer 1"><path d="M110.3,90.3c34.3,0,58.1,21.4,58.1,21.4h-.1l2,1.6C200.5,140,206,168.9,207,178.9a8.8,8.8,0,0,1-1.9,6.6c-7,8.7-32,34.8-88,47.8a174.3,174.3,0,0,1-39.5,4.8c-28.9,0-49-8-59.1-13.3h0c-21.4-4.9-14.4-17.4-14.4-17.4S32,148.2,34.8,146.7l1.3-.2c2.8,0,7.4,2.3,9.7,3.5l1.2.7a74.4,74.4,0,0,0,14.3,9.1,61.1,61.1,0,0,0,18.1,2.7A64,64,0,0,0,97,160l1.8-55.2-6.2.9h0a36.6,36.6,0,0,1-8.9,1.3h-.3c-8.3,0-10.2-4.1-10.2-4.1h0v-.2h0v-.4h0a1.1,1.1,0,0,1,.1-.5h0c.5-3,4.9-9.7,33-11.1h4.1m-8.8,68.3c30.8-10.9,51.9-40.6,51.9-40.6-8.4-12.2-39.1-14.9-39.1-14.9l-11.4,1.2-1.4,54.3m-.7-54,1.9-.3-1.9.3m51.7,101.2c26.2-12.3,40-26.3,40-26.3C187.2,153.1,164,127,164,127h0c-12.5,17.9-31.4,31.3-31.4,31.3,9.3,12.8,16.8,36.8,19.9,47.5M51,223l17.2-48.5h0c-7-2.4-19.4-7-24.8-10.4l-24,49.1,1.8,1c3.9,2,13.8,6.5,29.8,8.8m20.2,1.4a181,181,0,0,0,33.7-3.3,192.6,192.6,0,0,0,35.3-10c-.8-2.9-8.9-31.3-18.3-45.4C109.7,174.2,80.5,177,80.5,177l-14,47.3h4.7M110.3,87.3v0l-4.3.2c-27.5,1.3-34.7,7.9-35.7,13.2v.4c0,.3-.1.6-.1.8v.2a1.5,1.5,0,0,0,.1.7v.2a.7.7,0,0,0,.1.5h0l.2.5c.3.6,3,5.8,12.9,5.8h.4a42.3,42.3,0,0,0,9.4-1.3h.2l2.3-.4-1.6,49.4a62.9,62.9,0,0,1-14.7,1.8,58.3,58.3,0,0,1-17-2.5,72.5,72.5,0,0,1-13.5-8.6,5.9,5.9,0,0,0-1.9-1.1c-3.3-1.8-7.8-3.8-10.9-3.8a5.5,5.5,0,0,0-2.6.6c-1.3.6-2.7,1.3-17.8,32.2C8.6,190.6,1.9,205,1.4,206A13,13,0,0,0,1,216.9q3.4,7.7,16.5,10.8c9.9,5,30.5,13.4,60.1,13.4a182.9,182.9,0,0,0,40.2-4.8c24.4-5.7,45.7-14.4,63.3-26,14.5-9.4,22.7-18.4,26.3-22.9a12.1,12.1,0,0,0,2.6-8.8c-1.1-11.3-7.1-40.5-37.7-67.5l-1.7-1.4h-.2c-1-.9-25-22.2-60.1-22.2ZM105.8,107l8.5-.9c7.8.8,27.7,4.2,35.3,11.9-4.8,6.2-21.8,26.4-45,36.2l1.2-47.2Zm30.9,52c5.1-3.9,17.6-14.1,27.5-27.1,5.8,7.2,20.5,26.8,25,46.6-3.6,3.3-15.5,13.5-34.9,23.1-3.5-12.1-9.8-30.6-17.6-42.6ZM23.4,211.9l21.3-43.6c5.2,2.7,12.9,5.6,19.6,8.1L49,219.7c-13.4-2.2-21.9-5.9-25.6-7.8Zm59.4-32.2c6.4-.7,26.5-3.5,38.1-9.9,7.3,12.2,13.5,32.1,15.7,39.5a205.4,205.4,0,0,1-32.3,8.9,184.2,184.2,0,0,1-33.1,3.2h-.7l12.3-41.7Z" style="fill:#6a3417"/><path d="M47,150.7s-9.3-5.4-12.2-4S4.1,207.4,4.1,207.4s-7,12.5,14.4,17.4c0,0-3.6-7.1-.8-14.2S47,150.7,47,150.7Z" style="fill:#e69c57"/><path d="M153.4,118s-40.9,57.7-92.1,41.8c0,0,11,13.2,29.3,10.5s48.7-19.9,48.7-19.9L165.2,121v-4.1Z" style="fill:#874c28"/><path d="M114.3,103.1s30.7,2.7,39.1,14.9l6.9.3-12-12.8S117.7,99.5,114.3,103.1Z" style="fill:#9a5732"/><path d="M168.4,111.7s-25.7-23.1-62.2-21.3-33,12.5-33,12.5,3.2,6.9,19.4,2.8S110.6,86.8,168.4,111.7Z" style="fill:#e69c57"/><path d="M192.5,179.5s-30.6,31-87.6,41.6-85.5-7.9-85.5-7.9S35.1,235.8,90,231.7s107.4-41.2,112.1-48v-4.2Z" style="fill:#9a5732"/><path d="M164,127s23.2,26.1,28.5,52.5l7.4,1.1,2.2-13.5-34.6-46.8Z" style="fill:#874c28"/><path d="M207,178.9c-1-10-6.5-38.9-36.7-65.6C137.7,84.5,96,94.4,86.3,97.2a7.2,7.2,0,0,0-4.3,3.4c-.8,1.5-1.2,3.3.8,4.7,4,2.7,6.3,0,31.5-2.2s46,15.2,46,15.2-20.8,35.9-56.5,45.6c-27.1,7.5-48.2-6.2-56.8-13.2a4.4,4.4,0,0,0-6.8,1.5L11,211.4c-1.1,1.2-1,3.5-.8,5.5a7.7,7.7,0,0,0,3.4,5.2c9.7,6,46,24.6,103.5,11.2s81-39.1,88-47.8A8.8,8.8,0,0,0,207,178.9ZM19.4,213.2l24-49.1c7.7,4.9,29.8,12.1,29.8,12.1L57.5,224.3C37.6,224.3,19.4,213.2,19.4,213.2Zm46.9,11.7L80.5,177s29.2-2.8,41.4-11.3c0,0,18.1,22.3,22.4,48C144.3,213.7,106.2,234.2,66.3,224.9Zm87.6-13.5s-9-36.2-21.3-53.1c0,0,21.9-15.5,34.2-35.5,0,0,27,24.7,33.1,57.8C199.9,180.6,176.4,203.4,153.9,211.4Z" style="fill:#bd743e"/><path d="M121.9,165.7l3.4-1.6s18.5,25,19,49.6l-4-2.3S131.9,180.6,121.9,165.7Z" style="fill:#874c28"/><polygon points="68.2 174.5 51 223 57.5 224.3 73.2 176.2 68.2 174.5" style="fill:#874c28"/><path d="M102.9,104.3l-1.4,57.5a3.4,3.4,0,0,1-4.6,0l1.9-57Z" style="fill:#bd743e"/><path d="M96.3,102H82.9a30.2,30.2,0,0,1-9.7-.6,2.9,2.9,0,0,0,0,1.5s3.2,6.9,19.4,2.8a25.8,25.8,0,0,0,4.2-1.3Z" style="fill:#bd743e;opacity:0.42"/><path d="M169.2,183.2c.2-.2-27.2-23.5-37.7-21.5s-4.8,13.1,4.5,14.1,33.8,10.9,34.4,10.7S169.2,183.2,169.2,183.2Z" style="fill:#874c28"/><polygon points="148.8 164.1 124.9 167.1 88.1 172.9 123.9 183.2 148.8 164.1" style="fill:#874c28"/><g id="VC"><path d="M179.8,187a55.2,55.2,0,0,1-7.1-.5c-11-1.4-18.6-6.8-25.4-11.6s-10.1-7.2-14.9-7.2h-.2c-6.4.2-11.3,3.6-15.6,6.7s-6.1,4.3-9.1,4.6h-.4C99,179,22,156.6,18.7,155.6a1.4,1.4,0,0,1-.8-.5c-.3-.3-6.7-8.9-4.6-19,1.3-6.7,6-12.5,14-17a28.9,28.9,0,0,1,14.9-3.7c9.3,0,19.5,3.2,30.3,6.5s23.9,7.5,35.9,7.5a46.4,46.4,0,0,0,15.1-2.4c23.4-7.9,42.4-46.2,56.3-74.3,6-12,11.2-22.4,15.6-28.4,12-16.2,18.3-22.8,33-22.8a85.9,85.9,0,0,1,11.2.9c22.1,3,73.1,10.6,73.6,10.7h.3c.2,0,13.4,5.5,10.9,20-2,11.6-7.4,14.1-13.6,16.9a48,48,0,0,0-4.7,2.2c-8.5,4.5-15.7,16.2-24.9,40.4-7.6,20-23.9,56-47.9,72.7C211.6,180.5,195.6,187,179.8,187Z" style="fill:#fff5c0"/><path d="M228.4,3a75.9,75.9,0,0,1,10.9.9c22.4,3,73.7,10.7,73.7,10.7s12.2,4.9,9.9,18.3S314,46.4,305.4,51s-15.8,15.5-25.6,41.1-25.9,57.1-47.3,72c-18.9,13.2-35.5,21.4-52.7,21.4a53.4,53.4,0,0,1-6.9-.5c-19.6-2.5-28.9-18.8-40.5-18.8h-.2c-11.7.2-18.5,10.7-24.8,11.3h-.3c-8,0-88-23.3-88-23.3s-15.3-19.9,9-33.8a27.4,27.4,0,0,1,14.1-3.5c19.1,0,42.9,14,66.2,14a47.1,47.1,0,0,0,15.6-2.5c34-11.4,57.8-83.2,72.6-103.2C208.7,8.9,214.6,3,228.4,3m0-3h0C213,0,206.5,6.8,194.2,23.4c-4.5,6.1-9.7,16.6-15.7,28.7-13.8,27.8-32.6,65.8-55.5,73.5a45.6,45.6,0,0,1-14.6,2.3c-11.8,0-23.8-3.8-35.5-7.4s-21.2-6.6-30.7-6.6a30.4,30.4,0,0,0-15.6,3.9c-8.4,4.8-13.4,10.8-14.8,18-2.2,10.8,4.6,19.8,4.9,20.2a3.6,3.6,0,0,0,1.6,1.1c8.2,2.4,80.6,23.4,88.8,23.4h.5c3.4-.3,6.5-2.5,9.8-4.9s8.9-6.3,14.8-6.4h.2c4.4,0,8.8,3.2,14,6.9s14.8,10.4,26.1,11.9a59.7,59.7,0,0,0,7.3.5c16.1,0,32.4-6.6,54.4-21.9,24.3-16.9,40.8-53.2,48.4-73.4,9.1-23.8,16.1-35.2,24.2-39.6l4.6-2.2c6.4-2.8,12.4-5.5,14.5-18s-6.8-19.6-11.8-21.6l-.7-.2c-.5-.1-51.5-7.7-73.6-10.7A88.6,88.6,0,0,0,228.4,0Z" style="fill:#ffaa5a"/><path d="M209.4,98.7a44.2,44.2,0,0,1,7.3.4c4.7.9,7.8,2.9,9,6,2.5-10,6.4-16.5,9.4-20.3A35.6,35.6,0,0,1,241,79c-6.9-4.9-19.9-4.8-21.4-4.8a42.6,42.6,0,0,0-4.5,6.8A50.3,50.3,0,0,0,209.4,98.7Z" style="fill:none"/><path d="M187.7,94.7a76.9,76.9,0,0,1,8.1.1c5.8.4,10.1,1.7,13,3.7a50,50,0,0,1,5.8-17.9A40.9,40.9,0,0,1,219,74c-8.5-5.6-19.5-4.4-20.7-4.3a38.4,38.4,0,0,0-5.2,7.3A38.2,38.2,0,0,0,187.7,94.7Z" style="fill:none"/><path d="M203,105c-2.9,3.1-6.5,7.8-7.5,13.2a31.4,31.4,0,0,1,6.7,1.4c4.5,1.6,7.6,3.9,9.1,6.9,1.4-5.1,5.1-10.2,7.9-13.7a80.2,80.2,0,0,1,6.2-6.6c-.9-3.4-3.9-5.5-8.8-6.4a31,31,0,0,0-7.4-.4A44.4,44.4,0,0,0,203,105Z" style="fill:none"/><path d="M221.7,24.1A34.7,34.7,0,0,0,213,41.7a44.3,44.3,0,0,1,7.5,0c4,.3,9.5,1.4,13.6,4.6.8-7.5,4.9-14.1,8.2-18.3a50.3,50.3,0,0,1,7-7.3c-7.4-3.6-12.6-3.9-15.7-3.5a11.7,11.7,0,0,0-5.1,1.6h-.2A25.2,25.2,0,0,0,221.7,24.1Z" style="fill:none"/><path d="M242.8,28.4c-3.3,4.2-7.3,10.7-8.1,18.2a31.1,31.1,0,0,1,7.1-.6,33.9,33.9,0,0,1,15.3,3.6,38.8,38.8,0,0,1,9.1-18.8,33.9,33.9,0,0,1,6.6-6.2c-3.4-3.6-9.3-4.4-13.7-4.5a45.4,45.4,0,0,0-9.1.8A52.2,52.2,0,0,0,242.8,28.4Z" style="fill:none"/><path d="M206.4,49.7A43.4,43.4,0,0,0,198.5,69a37.3,37.3,0,0,1,6.9,0,31.1,31.1,0,0,1,13.9,4.3A48.6,48.6,0,0,1,228,53.1a36.9,36.9,0,0,1,5.8-6.2c-4-3.2-9.4-4.3-13.3-4.6a41,41,0,0,0-7.8.1A46.6,46.6,0,0,0,206.4,49.7Z" style="fill:none"/><path d="M228.5,53.6a47.1,47.1,0,0,0-8.6,20,53.3,53.3,0,0,1,7.9.4c4.1.6,9.6,1.7,13.5,4.4.7-7.4,4.9-14.6,8.3-19.5a64.4,64.4,0,0,1,7.2-8.7,34.1,34.1,0,0,0-15-3.6,36.2,36.2,0,0,0-7.3.7A32.3,32.3,0,0,0,228.5,53.6Z" style="fill:none"/><path d="M180.9,101.9c-3.2,3.5-7.2,8.8-8.8,14.4a31.5,31.5,0,0,1,7.3-1.5,25.2,25.2,0,0,1,15.5,3.1c1-5.4,4.7-10.2,7.6-13.4a48.2,48.2,0,0,1,6-5.4c-6.3-4.6-19.7-3.8-21-3.7A65.9,65.9,0,0,0,180.9,101.9Z" style="fill:none"/><path d="M165,140c2.7.5,15.5,2.9,17.8,7.2,4.2-1.3,7-2.3,7.5-2.5,7.4-9.2,18.8-16.3,20.6-17.4-1.5-3.8-5.7-5.9-8.9-7a25.6,25.6,0,0,0-6.8-1.5,121.9,121.9,0,0,0-12.5,6.2C176.8,128.4,168.9,133.8,165,140Z" style="fill:none"/><path d="M144.7,135.4c2.9,0,14.8.3,19.7,4.4,3.9-6.4,11.9-11.9,18-15.4a114,114,0,0,1,12-6,24.6,24.6,0,0,0-14.9-3,28.7,28.7,0,0,0-7.7,1.7C171.1,117.4,150,128,144.7,135.4Z" style="fill:none"/><path d="M241.5,79.4h-.2L241,79a35.6,35.6,0,0,0-5.9,5.8c-3,3.8-6.9,10.3-9.4,20.3a1.1,1.1,0,0,1,.3.8h.2c2.4-10.2,6.4-16.8,9.4-20.6s5.6-5.7,6.1-5.9h-.2Z" style="fill:#ffaa5a"/><path d="M273.2,25v-.2l-.3-.2a33.9,33.9,0,0,0-6.6,6.2,38.8,38.8,0,0,0-9.1,18.8l.3.2h.3a38.9,38.9,0,0,1,8.9-18.5,35.2,35.2,0,0,1,6.9-6.4h-.3Z" style="fill:#ffaa5a"/><path d="M182.4,148v-.2l-.2-.4c-1.8.6-3.9,1.2-6.1,1.7-7.5,2-18.5,4.1-27.7,3.3v.6a35.4,35.4,0,0,0,4.6.2c8.2,0,17-1.8,23.4-3.4l6.4-1.8h-.2Z" style="fill:#ffaa5a"/><path d="M286.2,12.6l3.3-1.5-1.3-.2L285.9,12a30.9,30.9,0,0,0-12.6,12.1l.2.2h.4A30,30,0,0,1,286.2,12.6Z" style="fill:#ffaa5a"/><path d="M225.8,106.6h-.3v-.3h-.1a80.2,80.2,0,0,0-6.2,6.6c-2.8,3.5-6.5,8.6-7.9,13.7l.3.6h.2c2.5-9.5,13-19.5,14.1-20.5Z" style="fill:#ffaa5a"/><path d="M211.1,127.8v-.2a.4.4,0,0,0-.1-.3c-1.8,1.1-13.2,8.2-20.6,17.4-.5.2-3.3,1.2-7.5,2.5h2l5.9-2h.1c7.6-9.5,19.6-16.8,20.6-17.4h-.3Z" style="fill:#ffaa5a"/><path d="M257.2,50.4h-.1l-.3-.2a64.4,64.4,0,0,0-7.2,8.7c-3.4,4.9-7.6,12.1-8.3,19.5l.3.3h.3c.7-7.4,4.8-14.6,8.2-19.4a80.9,80.9,0,0,1,7.3-8.9h-.2Z" style="fill:#ffaa5a"/><path d="M202.5,104.5c-2.9,3.2-6.6,8-7.6,13.4l.3.2h.3c1-5.4,4.6-10.1,7.5-13.2a44.4,44.4,0,0,1,6.2-5.6h-.4l-.3-.3A48.2,48.2,0,0,0,202.5,104.5Z" style="fill:#ffaa5a"/><path d="M164.4,139.8l.2.2h.4c3.9-6.2,11.8-11.6,17.7-15a121.9,121.9,0,0,1,12.5-6.2H195l-.6-.3a114,114,0,0,0-12,6C176.3,127.9,168.3,133.4,164.4,139.8Z" style="fill:#ffaa5a"/><path d="M208.8,98.5l.3.3h.3A50.3,50.3,0,0,1,215.1,81a42.6,42.6,0,0,1,4.5-6.8h-.3L219,74a40.9,40.9,0,0,0-4.4,6.6A50,50,0,0,0,208.8,98.5Z" style="fill:#ffaa5a"/><path d="M228,53.1a48.6,48.6,0,0,0-8.7,20.2l.3.3h.3a47.1,47.1,0,0,1,8.6-20,32.3,32.3,0,0,1,6-6.3h-.3l-.4-.3A36.9,36.9,0,0,0,228,53.1Z" style="fill:#ffaa5a"/><path d="M164.3,140.6h-.1l-.5-.5c-4.2.6-23.6,3.4-27.6,7.9l.5.4c4.1-4.6,26.7-7.6,27.9-7.7h-.2Z" style="fill:#ffaa5a"/><path d="M250.4,20.2c3.7-7.1,8.7-10.2,12.3-11.6a13.2,13.2,0,0,1,3-1L264,7.4l-1.6.5c-3.7,1.5-9,4.8-12.7,12.3h.7Z" style="fill:#ffaa5a"/><path d="M242.3,28c-3.3,4.2-7.4,10.8-8.2,18.3l.4.3h.2c.8-7.5,4.8-14,8.1-18.2a52.2,52.2,0,0,1,7.2-7.5h-.3l-.4-.2A50.3,50.3,0,0,0,242.3,28Z" style="fill:#ffaa5a"/><path d="M213,41.7a34.7,34.7,0,0,1,8.7-17.6,25.2,25.2,0,0,1,6.6-5.1h-.2l-.6-.3a29.7,29.7,0,0,0-6.2,5.1,33.9,33.9,0,0,0-8.9,17.9h.6Z" style="fill:#ffaa5a"/><path d="M228.5,18.8h0Z" style="fill:#ffaa5a"/><path d="M144.4,135.4h.3c5.3-7.4,26.4-18,27.1-18.3h-.3V117l-.3-.3c-1.3.6-6.3,3.2-11.6,6.4-8,4.8-13.1,8.8-15.4,11.9a.5.5,0,0,1,.2.4Z" style="fill:#ffaa5a"/><path d="M187.7,94.7A38.2,38.2,0,0,1,193.1,77a38.4,38.4,0,0,1,5.2-7.3h-.4l-.3-.2a47,47,0,0,0-5.1,7.2c-2.3,4.1-5.2,10.5-5.4,17.8l.4.3Z" style="fill:#ffaa5a"/><path d="M198.5,69a43.4,43.4,0,0,1,7.9-19.3,46.6,46.6,0,0,1,6.3-7.3h-.3l-.3-.3a47.1,47.1,0,0,0-6.2,7.2,43.7,43.7,0,0,0-8.1,19.5l.4.3Z" style="fill:#ffaa5a"/><path d="M143.8,136v-.2c-.1-.1-.1-.3-.2-.4-2.1.4-12.1,2.3-18.7,7.1l.4.6c7.1-5.3,18.3-7,18.8-7.1h-.3Z" style="fill:#ffaa5a"/><path d="M172.1,116.3c1.6-5.6,5.6-10.9,8.8-14.4a65.9,65.9,0,0,1,6.6-6.5h-.3l-.3-.3a57.9,57.9,0,0,0-6.5,6.4c-3.2,3.5-7.2,8.9-8.9,14.5.1.2.2.3.2.4Z" style="fill:#ffaa5a"/><path d="M228.9,17.8a27.2,27.2,0,0,1,9-11.8,19.3,19.3,0,0,1,2.7-1.9l-1-.2-2.1,1.5a28.5,28.5,0,0,0-9.4,12.7h.1Z" style="fill:#ffaa5a"/><path d="M31,150.4c-.9-5.2-1.2-12.7,3.3-19s13.1-9.2,19.3-9.9a46.7,46.7,0,0,1,13.6.4l-3.9-1.2a46,46,0,0,0-9.8.1c-6.3.7-14.8,3.1-19.8,10.2A21.2,21.2,0,0,0,30,141a30.9,30.9,0,0,0,.4,9.5,36.6,36.6,0,0,0,2.3,7.6l.8.2A39,39,0,0,1,31,150.4Z" style="fill:#ffaa5a"/><path d="M54.6,161.9c-5-7-5.8-14.6-2.2-22.5S62.6,127,72.1,125.9a33.4,33.4,0,0,1,7.7-.1l-2.6-.8a30.9,30.9,0,0,0-5.2.2,27,27,0,0,0-11.2,3.7,22.2,22.2,0,0,0-9,10.3,22.9,22.9,0,0,0-2,13.2,25.9,25.9,0,0,0,6.1,12.3l1.2.3A19.9,19.9,0,0,1,54.6,161.9Z" style="fill:#ffaa5a"/><path d="M107.6,132.5a46.7,46.7,0,0,0-13.9-.9,28.9,28.9,0,0,0-11.2,3.2,20.1,20.1,0,0,0-8.7,9.5c-4.4,10.2-3,17.7-1.1,22.1a17.9,17.9,0,0,0,1.9,3.4l1,.3a23.6,23.6,0,0,1-2.3-3.9c-1.9-4.4-3.2-11.7,1.1-21.6,3.2-7.3,9.7-11.5,19.4-12.4a50.6,50.6,0,0,1,13.7.9Z" style="fill:#ffaa5a"/><path d="M273.3,24.1a14.7,14.7,0,0,0-6.4-3.6,29.3,29.3,0,0,0-7.8-1.1,46.2,46.2,0,0,0-8.7.8h-.7c-7.6-3.7-13-4.1-16.3-3.7a14.5,14.5,0,0,0-4.5,1.3l-.7.4h-.1A49.8,49.8,0,0,0,210,13.8h-4.4l-.6.7a38.6,38.6,0,0,1,5-.1,47.4,47.4,0,0,1,17.5,4.1l.6.3h.4a11.7,11.7,0,0,1,5.1-1.6c3.1-.4,8.3-.1,15.7,3.5l.4.2h.3a45.4,45.4,0,0,1,9.1-.8c4.4.1,10.3.9,13.7,4.5l.3.2V25h.3c1.2-.1,17-1.6,19.9,5.3l.6-.3a7.8,7.8,0,0,0-4.7-4.1,24.2,24.2,0,0,0-6.9-1.6,57.8,57.8,0,0,0-8.5,0h-.4Z" style="fill:#ffaa5a"/><path d="M257.1,49.6A33.9,33.9,0,0,0,241.8,46a31.1,31.1,0,0,0-7.1.6h-.2l-.4-.3c-4.1-3.2-9.6-4.3-13.6-4.6a44.3,44.3,0,0,0-7.5,0h-.6A36.4,36.4,0,0,0,194.8,36a35.9,35.9,0,0,0-4.8.1,2.5,2.5,0,0,0-.4.7,41.4,41.4,0,0,1,5.2-.1,35.9,35.9,0,0,1,17.3,5.4l.3.3h.3a41,41,0,0,1,7.8-.1c3.9.3,9.3,1.4,13.3,4.6l.4.3h.3a36.2,36.2,0,0,1,7.3-.7,34.1,34.1,0,0,1,15,3.6l.3.2h.3c1.7,0,19.4-.6,23.3,4.9l.6-.4c-1.8-2.5-6.4-4.2-13.7-4.9a70.7,70.7,0,0,0-9.9-.2h-.3Z" style="fill:#ffaa5a"/><path d="M241.3,78.4c-3.9-2.7-9.4-3.8-13.5-4.4a53.3,53.3,0,0,0-7.9-.4h-.3l-.3-.3A31.1,31.1,0,0,0,205.4,69a37.3,37.3,0,0,0-6.9,0h-.3l-.4-.3a34,34,0,0,0-17.3-6.3,24.2,24.2,0,0,0-3.7-.2l-.4.6,4.1.2a34,34,0,0,1,17.1,6.4l.3.2h.4c1.2-.1,12.2-1.3,20.7,4.3l.3.2h.3c1.5,0,14.5-.1,21.4,4.8l.3.3h.4c1.2-.2,18.2-1.9,23.2,4.3l.5-.4c-2.3-2.8-7-4.5-14-4.8a60.4,60.4,0,0,0-9.5.2h-.3Z" style="fill:#ffaa5a"/><path d="M225.7,105.1c-1.2-3.1-4.3-5.1-9-6a44.2,44.2,0,0,0-7.3-.4h-.3l-.3-.3c-2.9-2-7.2-3.3-13-3.7a76.9,76.9,0,0,0-8.1-.1h-.2l-.4-.3a35.6,35.6,0,0,0-18.5-6.1,36.7,36.7,0,0,0-5.9.1l-.5.7a40.4,40.4,0,0,1,6.3-.2,35.9,35.9,0,0,1,18.4,6.1l.3.3h.3c1.3-.1,14.7-.9,21,3.7l.3.3h.4a31,31,0,0,1,7.4.4c4.9.9,7.9,3,8.8,6.4h.1v.3h.4a52.8,52.8,0,0,1,10.4,1.2,22,22,0,0,1,7.4,3,8.1,8.1,0,0,1,3.9,5.7h.6a8.8,8.8,0,0,0-4.2-6.3,22.3,22.3,0,0,0-7.6-3,56.6,56.6,0,0,0-10.2-1.3H226A1.1,1.1,0,0,0,225.7,105.1Z" style="fill:#ffaa5a"/><path d="M211.6,127.1l-.3-.6c-1.5-3-4.6-5.3-9.1-6.9a31.4,31.4,0,0,0-6.7-1.4h-.3l-.3-.2a25.2,25.2,0,0,0-15.5-3.1,31.5,31.5,0,0,0-7.3,1.5h-.4c0-.1-.1-.2-.2-.4a18.9,18.9,0,0,0-6.6-5.1,28.1,28.1,0,0,0-8.2-2.3,41.2,41.2,0,0,0-7.4-.4,1.8,1.8,0,0,0-.5.7,45.1,45.1,0,0,1,7.8.3c4.6.7,10.8,2.5,14.5,7.5l.3.3v.2h.3a28.7,28.7,0,0,1,7.7-1.7,24.6,24.6,0,0,1,14.9,3l.6.3h.2a25.6,25.6,0,0,1,6.8,1.5c3.2,1.1,7.4,3.2,8.9,7a.4.4,0,0,1,.1.3v.2h.3a45.1,45.1,0,0,1,9.4,1,17.4,17.4,0,0,1,6.7,2.7,6.8,6.8,0,0,1,3.5,5.2h.7a8.1,8.1,0,0,0-3.8-5.7,19.1,19.1,0,0,0-6.9-2.7,41.1,41.1,0,0,0-9.2-1.1Z" style="fill:#ffaa5a"/><path d="M182.8,147.3h0c-2.3-4.3-15.1-6.7-17.8-7.2h-.4l-.2-.2c-4.9-4.1-16.8-4.4-19.7-4.4h-.4a.5.5,0,0,0-.2-.4c-1-1.9-4.9-3.7-11.4-5.3-2.8-.8-5.6-1.3-7.6-1.7l-1.1.4h-.1c6.3,1,18.1,3.7,19.7,6.9.1.1.1.3.2.4v.2h.3c.6,0,14.2,0,19.6,4l.5.5h.3c.9.1,15.3,2.5,17.6,6.8l.2.4v.2h.2a25.2,25.2,0,0,1,7.9.8c5.5,1.4,8.9,4.2,10.3,8.6l.7-.2c-1.5-4.5-5.2-7.6-10.8-9.1a30.2,30.2,0,0,0-5.9-.8Z" style="fill:#ffaa5a"/><path d="M118.3,138.8c-9.1-2.9-19.9,12.7-41.9,11.4-16.6-1-46.2-13.6-59.5-19.6-6.8,11.8,2.2,23.6,2.2,23.6s82,23.9,88.3,23.3a10.7,10.7,0,0,0,3.2-1C115.6,165.2,125.3,141.1,118.3,138.8Z" style="fill:#ffeb81;opacity:0.30000000000000004;mix-blend-mode:multiply"/><path d="M312.7,14.6l-5.1-.8h0S288.8,18.6,271.9,53s-68.1,79.8-81.9,80c-10.3.2-43.8-4.2-62.6-6l-3.7,1.4a46.9,46.9,0,0,1-15.7,2.5,5.2,5.2,0,0,0-.6,1.6s17.1,2.5,20.9,7.8,47.3,37.5,82.7,17.1,62.2-69.1,62.2-69.1,28-70,36.6-70.7a14.1,14.1,0,0,0,5.7-1.5A21.5,21.5,0,0,0,312.7,14.6Z" style="fill:#ffeb81;opacity:0.30000000000000004;mix-blend-mode:multiply"/><path d="M179.8,187a55.2,55.2,0,0,1-7.1-.5c-11-1.4-18.6-6.8-25.4-11.6s-10.1-7.2-14.9-7.2h-.2c-6.4.2-11.3,3.6-15.6,6.7s-6.1,4.3-9.1,4.6h-.7a15.3,15.3,0,0,1-8.6-8.3c-2.1-5-1.4-11.5,1.9-19.3,4.9-11.6,13.8-14.1,20.4-14.1s16.3,3.7,20.5,7.3c1.3,1.2,14,11.8,35.3,11.8a72.3,72.3,0,0,0,29.8-6.7c28.8-12.9,57-68.3,72.2-98.1l7.1-13.8c13.1-23.9,27-24.6,27.5-24.6h.6c.2,0,13.4,5.5,10.9,20-2,11.6-7.4,14.1-13.6,16.9a48,48,0,0,0-4.7,2.2c-8.5,4.5-15.7,16.2-24.9,40.4-7.6,20-23.9,56-47.9,72.7C211.6,180.5,195.6,187,179.8,187Z" style="fill:#ffeb81"/><path d="M313,14.6s12.2,4.9,9.9,18.3S314,46.4,305.4,51s-15.8,15.5-25.6,41.1-25.9,57.1-47.3,72c-18.9,13.2-35.5,21.4-52.7,21.4a53.4,53.4,0,0,1-6.9-.5c-19.6-2.5-28.9-18.8-40.5-18.8h-.2c-11.6.2-18.5,10.7-24.8,11.3-6.4-2.6-12.9-9.4-6-25.6,4.3-9.9,11.8-13.2,19.1-13.2a32.5,32.5,0,0,1,19.5,7c4.7,4.1,17.7,12.1,36.3,12.1a74.3,74.3,0,0,0,30.4-6.8c34.6-15.5,67.2-89,80-112.5S313,14.6,313,14.6m0-3h-.1c-.6,0-15.3.7-28.8,25.4-2,3.6-4.4,8.3-7.2,13.8-15,29.6-43.1,84.7-71.4,97.4a71.4,71.4,0,0,1-29.2,6.6c-20.7,0-33-10.2-34.3-11.4a35.6,35.6,0,0,0-21.5-7.7c-9.9,0-17.7,5.4-21.8,15s-4.1,15.1-1.9,20.5,4.9,7.2,9.5,9.1l1.1.2h.3c3.4-.3,6.5-2.5,9.7-4.9s8.9-6.3,14.8-6.4h.2c4.4,0,8.8,3.2,14,6.9s14.8,10.4,26.1,11.9a59.7,59.7,0,0,0,7.3.5c16.1,0,32.4-6.6,54.4-21.9,24.3-16.9,40.8-53.2,48.4-73.4,9.1-23.8,16.1-35.2,24.2-39.6l4.6-2.2c6.4-2.8,12.4-5.5,14.5-18s-6.8-19.6-11.8-21.6l-1.1-.2Z" style="fill:#ffaa5a"/></g><path d="M263.2,127.7l7,1.9s2.7,2.1,4,3.3c31.8,28.1,37.7,58.7,38.7,69.2a9.4,9.4,0,0,1-2,7c-7.4,9.2-33.7,36.7-92.8,50.5a188.7,188.7,0,0,1-41.8,4.9c-30.4,0-51.6-8.4-62.3-13.9h0c-22.6-5.3-15.2-18.5-15.2-18.5s29.4-62.4,32.4-63.9a3.2,3.2,0,0,1,1.4-.3c2.8,0,7.6,2.3,10,3.6l1.5.8a73.6,73.6,0,0,0,15.1,9.6,64.6,64.6,0,0,0,19,2.9c44.8,0,78.1-47,78.1-47l6.9-10.1m-7.9,102.8c27.8-13,42.3-27.8,42.3-27.8-5.5-27.9-30-55.3-30-55.3h0c-13.3,18.9-33.2,33.1-33.2,33.1,9.9,13.5,17.7,38.8,20.9,50.1m-107,18.1,18.1-51.1h.1c-7.4-2.6-20.5-7.4-26.3-11L115,238.3l1.9,1.1c4,2.1,14.5,6.8,31.4,9.2m21.3,1.5a202.1,202.1,0,0,0,35.6-3.4,212.4,212.4,0,0,0,37.3-10.6c-.9-3.1-9.4-33-19.4-48-12.9,9-43.7,12-43.7,12L164.7,250h4.9m93.6-125.4a3.1,3.1,0,0,0-2.5,1.3l-6.8,10.1a140.6,140.6,0,0,1-21.9,23c-12.3,10.4-31.6,22.7-53.8,22.7a60.7,60.7,0,0,1-17.9-2.7A71.4,71.4,0,0,1,146,170a9.4,9.4,0,0,0-2.2-1.2c-4.8-2.6-8.6-3.9-11.2-3.9a6,6,0,0,0-2.7.6c-1.3.6-2.8,1.4-18.7,33.9-7.5,15.2-14.6,30.4-15.1,31.4a13.6,13.6,0,0,0-.4,11.4c2.3,5.2,8.1,9,17.3,11.2,10.4,5.4,32.2,14.1,63.3,14.1a190.7,190.7,0,0,0,42.4-5c25.7-6,48.2-15.2,66.8-27.4,15.2-10,23.9-19.4,27.7-24.2a11.9,11.9,0,0,0,2.7-9.1c-1.2-11.9-7.5-42.7-39.7-71.1l-4.2-3.5-1.1-.5-6.9-1.9Zm-24.7,56.4c5.4-4.1,18.7-15,29.2-28.9,6.1,7.5,21.9,28.4,26.6,49.5-3.7,3.4-16.4,14.4-37.1,24.6-3.7-12.9-10.4-32.6-18.7-45.2ZM118.9,237l22.6-46.3a208.9,208.9,0,0,0,21.1,8.6l-16.3,46c-14.4-2.3-23.6-6.3-27.4-8.3Zm62.8-34.2c6.7-.8,28.1-3.7,40.5-10.6,7.7,13,14.3,34.3,16.6,42a199,199,0,0,1-34.2,9.5,188.3,188.3,0,0,1-35,3.4h-.9l13-44.3Z" style="fill:#6a3417"/><path d="M144.1,172.3s-9.8-5.7-12.9-4.1-32.4,63.9-32.4,63.9-7.4,13.2,15.2,18.5c0,0-3.8-7.6-.9-15S144.1,172.3,144.1,172.3Z" style="fill:#e69c57"/><path d="M256.3,137.8s-43.1,60.9-97.2,44.1c0,0,11.7,14,31,11.1s51.3-20.9,51.3-20.9L268.8,141l1.4-11.4-7-1.9Z" style="fill:#874c28"/><path d="M297.6,202.7s-32.3,32.8-92.4,44-90.2-8.4-90.2-8.4,16.5,23.8,74.4,19.5,113.4-43.5,118.3-50.7v-4.4Z" style="fill:#9a5732"/><path d="M267.6,147.4s24.5,27.4,30,55.3l7.8,1.2,2.3-14.3-36.5-49.3Z" style="fill:#874c28"/><path d="M312.9,202.1c-1-10.5-6.9-41.1-38.7-69.2-1.3-1.2-4-3.3-4-3.3l-6.6,8.6s-22,37.8-59.6,48.1c-28.6,7.8-50.8-6.6-59.9-14a4.7,4.7,0,0,0-7.2,1.6L106,236.3c-1.1,1.3-1,3.8-.7,5.9a7.7,7.7,0,0,0,3.5,5.4c10.3,6.4,48.6,26,109.3,12,59.1-13.8,85.4-41.3,92.8-50.5A9.4,9.4,0,0,0,312.9,202.1ZM115,238.3l25.2-51.8c8.2,5.2,31.5,12.8,31.5,12.8L155.1,250C134.1,250,115,238.3,115,238.3Zm49.5,12.4,14.9-50.6s30.8-3,43.7-12c0,0,19.1,23.6,23.7,50.7C246.8,238.8,206.5,260.4,164.5,250.7Zm92.4-14.4s-9.5-38.2-22.5-55.9c0,0,23.1-16.4,36.1-37.5,0,0,28.4,26,34.9,61C305.4,203.9,280.6,227.9,256.9,236.3Z" style="fill:#bd743e"/><path d="M223.1,188.1l3.6-1.6s19.5,26.4,20.1,52.3l-4.3-2.5S233.6,203.9,223.1,188.1Z" style="fill:#874c28"/><polygon points="166.4 197.5 148.3 248.7 155.1 250 171.7 199.3 166.4 197.5" style="fill:#874c28"/></g></g></g></svg>