<svg xmlns="http://www.w3.org/2000/svg" viewBox="0 0 59.1 104.9"><g style="isolation:isolate"><g id="Layer_2" data-name="Layer 2"><g id="Layer_1-2" data-name="Layer 1"><path d="M29.5,103.4a24.6,24.6,0,0,1-11.2-2.6,17.4,17.4,0,0,1-5.8-4.1C3.8,87.8,4.2,71.2,7.7,65.6q3.2-4.9,10.5-8.4a4.8,4.8,0,0,0,2.6-4,25,25,0,0,0-.1-6.1,32.6,32.6,0,0,1-.3-5.4c.1-3.6.6-7.6,3-10.8a8,8,0,0,1,5-3h1.3a7,7,0,0,1,3.6,1A10.2,10.2,0,0,1,38,35.6a31.1,31.1,0,0,1,.9,8.6q0,2.8-.3,6.3c-.2,2.2-.3,4.3,1.1,5.8a9.7,9.7,0,0,0,2.9,1.8l1.9,1c7.1,4.3,9.5,8.9,9.3,17.6s-2.4,14.6-6.1,18.9S36.8,103.4,29.5,103.4Z" style="fill:#ca7440"/><path d="M29.7,29.3a5,5,0,0,1,2.8.8A9.3,9.3,0,0,1,36.6,36a33.5,33.5,0,0,1,.8,8.2c0,2-.1,4.1-.3,6.1s-.3,5,1.5,7,3.5,2.1,5.2,3.1c6.7,4.1,8.7,8.3,8.5,16.2-.3,6.2-1.5,13.2-5.7,18.1s-10.7,7.2-17.1,7.2a23.9,23.9,0,0,1-10.6-2.4,20.4,20.4,0,0,1-5.3-3.8C5.4,87.2,5.8,71.5,9,66.4s6.1-6.1,9.8-7.8a6.4,6.4,0,0,0,3.5-5.2c.4-3.9-.5-7.8-.4-11.7s.6-7.1,2.7-9.9a7,7,0,0,1,4-2.4h1.1m0-3H28.2A10,10,0,0,0,22.3,30c-2.8,3.5-3.3,7.8-3.4,11.6a34.4,34.4,0,0,0,.3,5.6,29.3,29.3,0,0,1,.1,5.9,3.4,3.4,0,0,1-1.7,2.8c-5.2,2.3-9,5.3-11.2,8.9-4.1,6.6-3.9,23.8,5,32.9a22,22,0,0,0,6.2,4.5,28,28,0,0,0,11.9,2.7c7.8,0,14.8-3,19.3-8.3S55,85.4,55.3,76.7s-2.4-14.3-10-18.9l-2.1-1.1a8.9,8.9,0,0,1-2.4-1.4c-.9-1-.9-2.4-.7-4.7s.3-4.4.3-6.4a34,34,0,0,0-.9-9c-1-3.6-2.8-6.2-5.4-7.7a8.8,8.8,0,0,0-4.4-1.2Z" style="fill:#924f28"/><path d="M30.1,97.8c-1.2,1.6-3.4-4.8-3.6-5.4a45.8,45.8,0,0,1-2.3-18c.3-4.2,1-10.4,5.1-12.7a.9.9,0,0,1,.7,0C37.4,65.6,36.1,90.2,30.1,97.8Z" style="fill:#964b2d"/><path d="M41.6,94.6c-5-4.9-6.3-21,.7-27.4.5-.4,1.4-1.2,1.8-.7C46.4,69,47,72.8,47.2,76,48.1,87.9,42.6,95.7,41.6,94.6Z" style="fill:#964b2d"/><path d="M18.9,93.1l-1.3,1.6h-.5c-4.8-4.2-7.3-15.8-3.6-25.6A9.3,9.3,0,0,1,15,66.6c.9-1.4,3.7,2.8,4,3.3C22.8,76.6,22.7,86.5,18.9,93.1Z" style="fill:#964b2d"/><path d="M52.3,76.6c-.3,6.2-1.5,13.2-5.7,18.1-6.7,7.6-18.9,9.1-27.7,4.8,2.7-2.8,7.4-4,11.3-5.2,7-2,8.6-4.2,10.2-6.7a20.3,20.3,0,0,0,1.4-16.7c-1.6-4.5-5.8-7.1-8.2-14a24,24,0,0,1-1.2-8.7,18.6,18.6,0,0,1,1.3-6.6A24.7,24.7,0,0,1,36.6,36a33.5,33.5,0,0,1,.8,8.2c0,2-.1,4.1-.3,6.1s-.3,5,1.5,7,3.5,2.1,5.2,3.1C50.5,64.5,52.5,68.7,52.3,76.6Z" style="fill:#ca7440;opacity:0.25;mix-blend-mode:multiply"/><g id="VC"><path d="M8.1,49.8a6.7,6.7,0,0,1-4.9-2.1,6.5,6.5,0,0,1-1.7-5.1L5.4,7.3A6.6,6.6,0,0,1,12,1.5H47.2a6.6,6.6,0,0,1,6.5,5.8l3.9,35.3A6.8,6.8,0,0,1,56,47.7a7.1,7.1,0,0,1-4.9,2.1Z" style="fill:#ffd7d7"/><path d="M47.2,3a5.1,5.1,0,0,1,5,4.5l3.9,35.2a5,5,0,0,1-5,5.6H8.1A5.1,5.1,0,0,1,3,42.7V42L6.9,7.5A5.1,5.1,0,0,1,12,3H47.2m0-3H12A8,8,0,0,0,4,7.2L.1,41.6v.8a8.1,8.1,0,0,0,2.1,6.3,7.9,7.9,0,0,0,6,2.6h43a8.1,8.1,0,0,0,6-2.6,8.4,8.4,0,0,0,2-6.3L55.2,7.2a8.1,8.1,0,0,0-8-7.2Z" style="fill:#d98885"/><path d="M51.1,48.3H8.1A5.1,5.1,0,0,1,3,42.7V42C36.8,39.8,44.8,12.6,46.6,3h.6a5.1,5.1,0,0,1,5,4.5l3.9,35.2A5,5,0,0,1,51.1,48.3Z" style="fill:#fdd6b8;opacity:0.5;mix-blend-mode:multiply"/></g></g></g></g></svg>