<svg xmlns="http://www.w3.org/2000/svg" width="17.082" height="16.477" viewBox="0 0 17.082 16.477"><g transform="translate(11299.541 24220.283)"><path d="M9.189,3.87a2,2,0,0,1,3.623,0l1.021,2.182a2,2,0,0,0,1.561,1.136l2.4.3a2,2,0,0,1,1.121,3.441L17.139,12.6a2,2,0,0,0-.594,1.831L17,16.814a2,2,0,0,1-2.932,2.125l-2.1-1.161a2,2,0,0,0-1.935,0l-2.1,1.161A2,2,0,0,1,5,16.814l.455-2.385A2,2,0,0,0,4.861,12.6L3.091,10.931A2,2,0,0,1,4.211,7.49l2.4-.3A2,2,0,0,0,8.167,6.051Z" transform="translate(-11302 -24223)" fill="rgba(243,255,103,0.35)"/><path d="M11,3.718a.987.987,0,0,0-.906.576L9.073,6.475a2.985,2.985,0,0,1-2.342,1.7l-2.4.3a1,1,0,0,0-.56,1.72l1.771,1.667a2.986,2.986,0,0,1,.891,2.746L5.982,17a.959.959,0,0,0,.2.817,1.027,1.027,0,0,0,.779.375.992.992,0,0,0,.483-.13l2.1-1.161a3,3,0,0,1,2.9,0l2.1,1.161a.992.992,0,0,0,.483.13,1.027,1.027,0,0,0,.779-.375.959.959,0,0,0,.2-.817l-.455-2.385a2.986,2.986,0,0,1,.891-2.746L18.224,10.2a1,1,0,0,0-.56-1.72l-2.4-.3a2.985,2.985,0,0,1-2.342-1.7L11.906,4.294A.987.987,0,0,0,11,3.718m0-1A1.975,1.975,0,0,1,12.811,3.87l1.021,2.182a2,2,0,0,0,1.561,1.136l2.4.3a2,2,0,0,1,1.121,3.441L17.139,12.6a2,2,0,0,0-.594,1.831L17,16.814a2,2,0,0,1-2.932,2.125l-2.1-1.161a2,2,0,0,0-1.935,0l-2.1,1.161A2,2,0,0,1,5,16.814l.455-2.385A2,2,0,0,0,4.861,12.6L3.09,10.931A2,2,0,0,1,4.211,7.49l2.4-.3A2,2,0,0,0,8.167,6.051L9.189,3.87A1.975,1.975,0,0,1,11,2.718Z" transform="translate(-11302 -24223)" fill="#6a6e07"/></g></svg>