<svg xmlns="http://www.w3.org/2000/svg" width="89" height="90" viewBox="0 0 89 90"><g id="Layer_2" data-name="Layer 2"><g id="Layer_1-2" data-name="Layer 1"><g id="Squirrel_food_4" data-name="Squirrel_food 4"><path d="M75.6,14.5S87.7,29.8,85.8,87H66.3l-5-21Z" style="fill:#b78d5f"/><path d="M26,14.3C13.4,35.8,12.1,62,11.3,87h55c-2.2-32.7,9.3-72.5,9.3-72.5Z" style="fill:#e0c08d"/><path d="M26.8,4.7a1.9,1.9,0,0,1,.7-1.2,2.2,2.2,0,0,1,1.6-.1c2.9.7,5.5,2.7,8.4,2.4s3.3-1.1,5.1-1.2S47,5.9,49.3,5.9,54.4,4,57.1,3.8s5.1,1,7.6,1.4C68.8,6,73,4.5,76.9,3a75,75,0,0,1-1.3,11.5H74.5c-15.7-.1-31.7.5-47.3-.3-.3,0-.9.3-1.2,0s.3-2.4,0-3.9S25.9,7.1,26.8,4.7Z" style="fill:#b78d5f"/><path d="M76.9,3a75,75,0,0,1-1.3,11.5,9.3,9.3,0,0,1-.4,1.3l.4-1.3S87.7,29.8,85.8,87H11.3c.8-25,2.1-51.2,14.7-72.7-.2-.2.3-2.4,0-3.9s-.1-3.3.8-5.7a1.9,1.9,0,0,1,.7-1.2l.8-.2h.8c2.7.7,5.1,2.5,7.8,2.5h.6c1.7-.2,3.3-1.1,5.1-1.2h.2c2.2,0,4.3,1.3,6.5,1.3h.1c2.7,0,5-1.9,7.7-2.1h.7c2.3,0,4.6,1.1,6.9,1.5a8.2,8.2,0,0,0,2.2.2c3.4,0,6.8-1.2,10-2.4m0-3L75.8.2c-2.8,1-5.9,2.2-8.9,2.2H65.2l-2.3-.6a15.9,15.9,0,0,0-5.1-1h-1a15,15,0,0,0-4.4,1.3,10.4,10.4,0,0,1-3,.8A7.9,7.9,0,0,1,47,2.4a13.1,13.1,0,0,0-4.2-.8h-.4a8.9,8.9,0,0,0-3.4.8,7.4,7.4,0,0,1-1.8.4h-.3a11.6,11.6,0,0,1-3.5-1.1A19.1,19.1,0,0,0,29.8.5L28.3.3a4.8,4.8,0,0,0-2.4.7,5.7,5.7,0,0,0-2,2.7v.5a10.3,10.3,0,0,0-.7,6.8,6.9,6.9,0,0,1-.1,2v.5C10.1,36,9.1,63,8.3,86.8A2.4,2.4,0,0,0,9.1,89a3,3,0,0,0,2.2,1H85.8a2.9,2.9,0,0,0,3-2.9c1.7-49.8-7.2-68.6-10-73.3A76.1,76.1,0,0,0,79.9,3.1,2.9,2.9,0,0,0,78.6.6,2.7,2.7,0,0,0,76.9,0Zm0,6Z" style="fill:#8e6642"/><path d="M56.5,46.3a14.6,14.6,0,0,0-5.2-6.7l-.4-.3a4.8,4.8,0,0,1-2-2,5.4,5.4,0,0,1-.3-1.9,3.1,3.1,0,0,1-.1-1,10.9,10.9,0,0,0-3.4-6.6,10.4,10.4,0,0,0-4.7-2.6,16.9,16.9,0,0,1-2.7-1,5.8,5.8,0,0,0-2.8-.7h0a5.5,5.5,0,0,0-3.3,1.1A7.2,7.2,0,0,0,29.1,32a17.2,17.2,0,0,0,3.2,6.5l.4.6a14.2,14.2,0,0,1,2.8,7,10.6,10.6,0,0,0,1,3,14.4,14.4,0,0,0,3.7,4.4A14.1,14.1,0,0,0,47,57.1l1.9.2A7.9,7.9,0,0,0,54.8,55,8.4,8.4,0,0,0,56.5,46.3Z" style="fill:#fce2b4;stroke:#8e6642;stroke-miterlimit:10;stroke-width:3px"/><path d="M33.7,23.6a8.4,8.4,0,0,0-1.2,6.1,16.4,16.4,0,0,0,3.3,6.6l.4.5a15.2,15.2,0,0,1,2.8,7,9.1,9.1,0,0,0,.9,3.1,15.8,15.8,0,0,0,3.7,4.3,14.1,14.1,0,0,0,6.8,3.6,6.2,6.2,0,0,0,1.9.2,11.2,11.2,0,0,0,2.7-.3" style="fill:none;stroke:#8e6642;stroke-linecap:round;stroke-linejoin:round;stroke-width:3px"/><path d="M36,87.8A23.1,23.1,0,0,1,27.6,86a19.4,19.4,0,0,1-6.7-3.9,11,11,0,0,1-2.6-3.5,21.8,21.8,0,0,0-7.2-8.2l-.8-.5c-2.6-1.7-5.5-3.9-7.2-7a9.9,9.9,0,0,1-.2-10.5,7.7,7.7,0,0,1,6.5-3.3h6.3a14.2,14.2,0,0,1,6.1,1.3,14.6,14.6,0,0,1,7.3,7l.6,1.2a7.4,7.4,0,0,0,1.4,2.5c.9,1,2.3,1.4,3.8,1.9l.7.2a19.9,19.9,0,0,1,9.8,6.3,11.5,11.5,0,0,1,1.8,11.8c-1.5,3.3-5,5.6-9.1,6.2Z" style="fill:#fada9d"/><path d="M9.4,50.6h6.3a13,13,0,0,1,5.5,1.2,13.5,13.5,0,0,1,6.6,6.3c.7,1.4,1.1,2.9,2.2,4.1s3.3,1.8,5.1,2.4c3.5,1.1,6.9,2.9,9.1,5.8s3.2,7,1.7,10.3a10.3,10.3,0,0,1-8,5.3l-1.9.2a21,21,0,0,1-7.8-1.7A18.8,18.8,0,0,1,21.9,81a10.5,10.5,0,0,1-2.2-3,22.9,22.9,0,0,0-7.8-8.8l-.7-.6a19.9,19.9,0,0,1-6.8-6.4c-1.6-2.8-2-6.4-.2-9a6.1,6.1,0,0,1,5.2-2.6m0-3h0a9.2,9.2,0,0,0-7.7,3.9,11.4,11.4,0,0,0,.1,12.2c1.9,3.3,5,5.6,7.7,7.4l.8.5A21.5,21.5,0,0,1,17,79.3a13.7,13.7,0,0,0,2.9,3.9,21.4,21.4,0,0,0,7.2,4.2A23.8,23.8,0,0,0,36,89.3l2.4-.2A13.1,13.1,0,0,0,48.6,82c1.9-4.1,1.1-9.4-2-13.4A20.7,20.7,0,0,0,36,61.9l-.7-.3a8.2,8.2,0,0,1-3.1-1.4A9.7,9.7,0,0,1,31,58.1l-.6-1.3a16.6,16.6,0,0,0-8-7.7,17.1,17.1,0,0,0-6.7-1.4H9.4Z" style="fill:#6a3417"/><path d="M38.9,75.7c-.7-.1-1.3.6-1.8,1.2s-1.5,1.8-1.2,2.9a3.5,3.5,0,0,0,1.9,1.7c.9.3,4.5,1.3,5,.2h.1c.2-1.6-1.5-4-2.5-5l-.2-.3A2.2,2.2,0,0,0,38.9,75.7Z" style="fill:#db9b53"/><path d="M28.7,83.5a5.2,5.2,0,0,1-2.2-1.7,2.3,2.3,0,0,1,0-2.6,2,2,0,0,1,2.1-.6,5.2,5.2,0,0,1,2,.9c.9.7,5.3,3.5,4.3,4.9S29.8,84,28.7,83.5Z" style="fill:#db9b53"/><path d="M30.1,76.6A3.2,3.2,0,0,1,28.4,74a5.1,5.1,0,0,1,1.9-3.1,3.9,3.9,0,0,1,2.4-1.2,3,3,0,0,1,1.7.8,4.2,4.2,0,0,1,1.7,1.8,3.3,3.3,0,0,1-.7,2.8c-.5.7-1.4,2.1-2.3,2.4S30.8,77,30.1,76.6Z" style="fill:#db9b53"/><path d="M38,71.4a12.4,12.4,0,0,1-1.8-2.2,2,2,0,0,1-.1-1.3,1.1,1.1,0,0,1,.9-.4,1.7,1.7,0,0,1,1,.3,9.4,9.4,0,0,1,4.5,4.1,5.6,5.6,0,0,1,.6,2.1c0,1.7-.9,1.7-1.9.8Z" style="fill:#db9b53"/><path d="M19.2,70.4a1.6,1.6,0,0,0-1.6,1.1c-.3.8.3,1.6.8,2.3l2.3,2.9c.5.7,1.2,2,2,2.4a1.2,1.2,0,0,0,1.5-.4v-.2a3.2,3.2,0,0,0-.7-2.5,24.4,24.4,0,0,0-1.4-2.8,7.8,7.8,0,0,0-1.1-1.8H21A2.6,2.6,0,0,0,19.2,70.4Z" style="fill:#db9b53"/><path d="M23,70.3a3.6,3.6,0,0,1-.7-1.7,3.3,3.3,0,0,1,.7-2.1,3.5,3.5,0,0,1,1.7-1.9,2.5,2.5,0,0,1,1.7.1l1.5.9a3.4,3.4,0,0,1,.9.8,1.4,1.4,0,0,1,.4,1.2,4.1,4.1,0,0,1-.5.9c-.9,1.1-1.9,3-3.1,3.8S23.5,71.1,23,70.3Z" style="fill:#db9b53"/><path d="M30.2,65.6l-.4-.4c-.1-.2-.2-.4,0-.6s.5-.2.8-.1l2.6.7a2.1,2.1,0,0,1,1.7.9,1.3,1.3,0,0,1-1.5,1.8C32.3,67.7,31.1,66.2,30.2,65.6Z" style="fill:#db9b53"/><path d="M15.8,65.8a3,3,0,0,1-1.1-1.4c-.3-1,.5-2,1.2-2.9s1.4-1.7,2.5-1.8a3.2,3.2,0,0,1,1.7.3l2.2,1.2c.5.4,1.1.8,1.1,1.4a1.8,1.8,0,0,1-.9,1.6l-2,1.8a7.7,7.7,0,0,1-1.9,1.7C17.5,68.1,16.4,66.4,15.8,65.8Z" style="fill:#db9b53"/><path d="M22.7,58.9,21.5,58a1.9,1.9,0,0,1-.7-1.3,1.7,1.7,0,0,1,.9-1.3,1.9,1.9,0,0,1,1.5,0c1.3.4,2.1,1.7,2.7,2.8L27.4,61c.3.5.6,1.3.1,1.8a1.2,1.2,0,0,1-1.6-.1c-.5-.4-.7-1.2-1.1-1.7A7,7,0,0,0,22.7,58.9Z" style="fill:#db9b53"/><path d="M9.6,62.1a1.6,1.6,0,0,0-1.4,1.6c0,.8.8,1.4,1.5,1.9l2.9,2.1c.6.4,1.5,1.3,2.2.8a.3.3,0,0,0,.1-.2c.5-1.1-2.6-4-3.2-4.8l-.5-.6A2.7,2.7,0,0,0,9.6,62.1Z" style="fill:#db9b53"/><path d="M10.4,59.2a2.8,2.8,0,0,1,.6-2.3,9.8,9.8,0,0,1,1.7-1.8,8.7,8.7,0,0,1,2.7-1.7,3,3,0,0,1,2.9.7,2.9,2.9,0,0,1,.3,3,5.2,5.2,0,0,1-1.8,1.8c-.9.8-2.3,2.4-3.5,2.4A3.3,3.3,0,0,1,10.4,59.2Z" style="fill:#db9b53"/><path d="M7.4,53.7a1.4,1.4,0,0,0-1.8.2,3,3,0,0,0-.8,1.8,9.9,9.9,0,0,0,.4,4.5c.1.4.4,1.5,1,1.5a.5.5,0,0,0,.6-.4A2.2,2.2,0,0,0,7.2,60c.2-1.5.4-2.9.5-4.4a1.9,1.9,0,0,0-.3-1.8Z" style="fill:#db9b53"/><path d="M10.3,51.9a2.1,2.1,0,0,1,1.4-.3h1.9a.8.8,0,0,1,.7.3c.1.2-.2.5-.4.7s-2.3,2.1-3.2,2S9.6,52.5,10.3,51.9Z" style="fill:#db9b53"/><path d="M64.4,88.1c-7.3,0-13-3.8-13.3-8.8S56.7,69.4,64.5,69h3.8l1.5.2.8.2,1.4.5.7.3,1.2.6h.2l.5.2,1.3,1,.2.2a8.6,8.6,0,0,1,1.3,1.4l.2.4h.1a2.5,2.5,0,0,1,2.5,2.2,4.6,4.6,0,0,1-1.5,3,7.6,7.6,0,0,1-.6,1.6c-1.8,3.9-6.7,6.6-12.6,6.9Z" style="fill:#fada9d"/><path d="M65.5,70.5h2.6l1.4.2.7.2,1.2.4.7.2,1.1.6.6.3,1.1.8.2.2,1.1,1.2c.1.1.1.3.2.4l.5.7h.3c.8,0,1.4.1,1.5.7a3.9,3.9,0,0,1-1.4,2.3h0a7.5,7.5,0,0,1-.5,1.6h0c-1.5,3.2-6,5.7-11.4,6h-1c-6.4,0-11.6-3.2-11.8-7.4s5.1-8.3,11.9-8.7h1m0-3H64.4c-8.6.5-15.1,5.7-14.8,11.9s6.7,10.2,14.8,10.2h1.2c6.4-.4,11.8-3.4,13.9-7.7h0a8.8,8.8,0,0,0,.5-1.5,5.7,5.7,0,0,0,1.7-3.9A4.1,4.1,0,0,0,78.6,73h0a10.7,10.7,0,0,0-1.4-1.6l-.4-.3-1.4-1-.6-.4h-.1L73.3,69l-.8-.3L71,68.2l-.8-.2-1.7-.3h-3Z" style="fill:#6a3417"/><path d="M52.6,79.2c.2,4.5,6,7.8,12.8,7.4s9.9-2.8,11.4-6h0a5.2,5.2,0,0,0,.5-2.7c-.2-4.3-5.6-7.6-12.1-7.4h-.7C57.7,70.9,52.4,74.8,52.6,79.2Z" style="fill:#c16131"/><path d="M65.2,70.5h0c5.5-.2,10.2,2.1,11.7,5.4.9,0,1.7.1,1.8.7a3.9,3.9,0,0,1-1.4,2.3,6.4,6.4,0,0,1-.5,1.7h0c-1.8,2.6-5.6,4.5-10.2,4.7-6.4.4-11.8-2.7-12-6.8S59.1,71,65.2,70.5Z" style="fill:#cf743d"/><path d="M61.4,72.1a2.5,2.5,0,0,0-1.3.5,1.5,1.5,0,0,0-.7,1.2,1.6,1.6,0,0,0,1.4,1.5,8.2,8.2,0,0,0,2.2-.2l3.8-.7h1.9c.4,0,1.2.1,1.5-.2s-4.4-2.2-5.1-2.3A11.6,11.6,0,0,0,61.4,72.1Z" style="fill:#daa385"/><path d="M73.1,75a.5.5,0,0,1-.4.2h-.4a1.8,1.8,0,0,1-.7-.5c-.6-.5-.2-.9.4-.9S73.6,74.3,73.1,75Z" style="fill:#daa385"/></g></g></g></svg>