<svg xmlns="http://www.w3.org/2000/svg" width="88.6" height="88.3" viewBox="0 0 88.6 88.3"><g id="Layer_2" data-name="Layer 2"><g id="Layer_1-2" data-name="Layer 1"><g id="Squirrel_food_2" data-name="Squirrel_food 2"><path d="M30.6,39.4C5.8,39.4,2.3,17,1.9,12.5a2.2,2.2,0,0,1,.6-1.9,2.5,2.5,0,0,1,1.8-.8H8.6c9.8.3,28,.7,38.7,22.6a2.2,2.2,0,0,1,0,2.2c-1.2,2.4-6.7,3.6-9,4.1a53,53,0,0,1-7.7.6Z" style="fill:#6c9433"/><path d="M4.3,11.3h.1C13.1,12.1,34,8.7,46,33.2c1.2,2.4-7.9,4.1-7.9,4.1a51.4,51.4,0,0,1-7.5.6C7.4,37.9,3.9,17.5,3.4,12.3a.9.9,0,0,1,.9-1m0-3A3.6,3.6,0,0,0,1.4,9.6a4.1,4.1,0,0,0-1,3c1.4,13.7,10,28.3,30.2,28.3a54.6,54.6,0,0,0,7.9-.6h.1c3.8-.7,8.7-2.1,10.1-4.8a4.5,4.5,0,0,0,0-3.6C37.5,9.1,18.7,8.7,8.6,8.4H4.3Z" style="fill:#507125"/><path d="M35.4,37.3a2.3,2.3,0,0,1-1.8-.8c-1.7-1.8-1.4-6.8-1.2-8.8C35,4.9,50.1,1.5,58.9,1.5a35.1,35.1,0,0,1,5.7.5,2.5,2.5,0,0,1,1.7,1.1,2.6,2.6,0,0,1,.1,2.1c-.3.9-.7,2.1-1.1,3.5-2.6,8.6-7.4,24.5-29.5,28.6Z" style="fill:#96b85c"/><path d="M58.9,3a32.2,32.2,0,0,1,5.5.5A.8.8,0,0,1,65,4.6c-2.8,7.5-5,26.7-29.4,31.2h-.2c-2.3,0-1.5-8-1.5-8C36.3,6.3,50.4,3,58.9,3m0-3A28.7,28.7,0,0,0,42.4,4.9C35.9,9.6,32.1,17.1,30.9,27.5h0c-.3,3.4-.3,7.9,1.6,9.9a3.6,3.6,0,0,0,2.9,1.3h.7C59,34.5,64,18,66.7,9.1l1.1-3.4a4.2,4.2,0,0,0-.2-3.3A4,4,0,0,0,64.9.5a38.4,38.4,0,0,0-6-.5Z" style="fill:#6c9433"/><path d="M85.2,52.7c-1.6,9.6-9.6,17.5-18.9,19.6-15.6,3.6-30.5-9-29.9-24.9.8-21,27.4-31.3,42.1-16.2A24.8,24.8,0,0,1,85.2,52.7Z" style="fill:#7850b3"/><path d="M78.5,31.2a26.4,26.4,0,0,0-4.1-3.4,25,25,0,0,1,4,18.2c-1.6,9.6-9.6,17.5-19,19.6a23.8,23.8,0,0,1-18.7-3.4A24.4,24.4,0,0,0,66.3,72.3c9.3-2.1,17.3-10,18.9-19.6A24.8,24.8,0,0,0,78.5,31.2Z" style="fill:#502390"/><path d="M78.8,54.6c-.2-1.5-2.5-2.4-5.1-2h0c-.4.1-.8-.4-.8-.8h0c.5-2.6-.4-4.9-1.8-5.2s-3.1,1.7-3.5,4.2h0a.7.7,0,0,1-1,.6h-.1c-2.3-1.2-4.7-1.1-5.4.2s.6,3.4,2.9,4.6h0a.7.7,0,0,1,.2,1.1h0c-1.9,1.8-2.6,4.2-1.5,5.2s3.4.5,5.3-1.3h0a.6.6,0,0,1,1.1.2h0c1.2,2.3,3.2,3.7,4.5,3s1.5-3.1.4-5.4h0c-.2-.5,0-1,.5-1h0C77.1,57.6,79,56.1,78.8,54.6Z" style="fill:#502390"/><circle cx="70" cy="56.2" r="2.2" style="fill:#7850b3"/><path d="M45.6,39.8a23.9,23.9,0,0,0-6.5-2.6,22.7,22.7,0,0,0-2.7,10.2A24.8,24.8,0,0,0,55.2,72.3a24.2,24.2,0,0,0,2.7-13.7A24.7,24.7,0,0,0,45.6,39.8Z" style="fill:#502390"/><path d="M52.1,58.3c1.1,9.6-4.4,19.4-12.8,24.1-14,7.7-31.8-.3-35.6-15.8C-1.3,46.1,21.4,29,39.8,39.4A25,25,0,0,1,52.1,58.3Z" style="fill:#7850b3"/><path d="M39.8,39.4a25.8,25.8,0,0,0-4.9-2.1,25.2,25.2,0,0,1,8.8,16.4c1.1,9.7-4.4,19.4-12.8,24.1a24,24,0,0,1-19,1.8,24.6,24.6,0,0,0,27.4,2.8c8.4-4.7,13.9-14.5,12.8-24.1A25,25,0,0,0,39.8,39.4Z" style="fill:#502390"/><path d="M27.1,64c-.6-1.4-3-1.7-5.4-.6h0a.7.7,0,0,1-1-.5h0c-.3-2.6-1.7-4.5-3.2-4.4s-2.5,2.4-2.2,5h0a.7.7,0,0,1-.8.8h-.1c-2.5-.5-4.8.2-5.1,1.7s1.5,3.1,4,3.6h.1a.7.7,0,0,1,.4,1.1h0c-1.3,2.2-1.3,4.7,0,5.4s3.4-.5,4.7-2.7h0a.8.8,0,0,1,1.2-.2h0c1.7,1.9,4.1,2.6,5.2,1.6s.6-3.4-1.2-5.3h0a.7.7,0,0,1,.2-1.1h0C26.3,67.3,27.7,65.3,27.1,64Z" style="fill:#502390"/><circle cx="17.5" cy="68.1" r="2.2" style="fill:#7850b3"/><path d="M61.4,24.1A23.3,23.3,0,0,1,74.5,28c0-.1,0-.1-.1-.2l.8.6.8.6a17.1,17.1,0,0,1,2.5,2.2,13,13,0,0,1,1.9,2.2,28.8,28.8,0,0,1,3,5,23.1,23.1,0,0,1,1,2.8,22.1,22.1,0,0,1,1.1,5.7,18.7,18.7,0,0,1-.3,5.8c-1.6,9.6-9.6,17.5-18.9,19.6a21.4,21.4,0,0,1-3.5.6H58.3l-2.8-.5h-.4l-.6-.2-1.8-.5-.7-.3-.5-.2-1.2-.6h-.2a25.7,25.7,0,0,1-10.8,12l-3.2,1.4-1,.3-2.3.7-1,.2-2.9.3H24.3L22,84.6l-1-.2-2.5-.9-.6-.2L15,81.8l-.6-.4-2.1-1.5-.4-.3H12a23.6,23.6,0,0,1-8.3-13C-.3,50.4,13.1,36.3,28,36.3a24.3,24.3,0,0,1,7,1.1.1.1,0,0,1-.1-.1l.8.3,1,.4,1.7.8a7.7,7.7,0,0,1,.7-1.6h0A25.5,25.5,0,0,1,61.4,24.1m0-3A28.5,28.5,0,0,0,37,34.9h-.5l-.7-.2-.7-.2a28.3,28.3,0,0,0-7.1-1,28.5,28.5,0,0,0-22.2,11,26.6,26.6,0,0,0-5,23A27.5,27.5,0,0,0,9.6,81.6l.4.3a1,1,0,0,0,.5.4h0l2.2,1.6h.2l.6.4L16.7,86l.5.2h.2a14.3,14.3,0,0,0,2.7.9l1.1.3,2.7.5h5.2l3.2-.4,1-.2h.1l2.7-.7h.2l.9-.3A22.9,22.9,0,0,0,40.7,85,28,28,0,0,0,51.5,74.2h.2l2,.6h.7c0,.1.1.1.2.1h.3l3.1.5h5.1l3.8-.5c10.7-2.5,19.5-11.6,21.3-22.1a23.5,23.5,0,0,0,.3-6.5,27.8,27.8,0,0,0-1.2-6.4c-.3-1-.7-2.1-1.1-3.1a24.6,24.6,0,0,0-3.4-5.6,25.2,25.2,0,0,0-2.1-2.5c-.8-.8-1.8-1.6-2.9-2.5l-.9-.7h-.2l-.6-.5-.6-.3a26.5,26.5,0,0,0-14.1-3.9Z" style="fill:#2d0861"/></g></g></g></svg>