<svg xmlns="http://www.w3.org/2000/svg" width="88.4" height="89.2" viewBox="0 0 88.4 89.2"><g id="Layer_2" data-name="Layer 2"><g id="Layer_1-2" data-name="Layer 1"><g id="Squirrel_food_1" data-name="Squirrel_food 1"><path d="M25.7,87.7H23.2C17,87.2,11.6,85,7.9,81.4A23.1,23.1,0,0,1,1.6,67,52.6,52.6,0,0,1,3.2,51.8C5.6,41.3,8.9,33.6,13.6,27.5A36.4,36.4,0,0,1,19,21.8a22.4,22.4,0,0,1,14.7-5.4,22.1,22.1,0,0,1,13.2,4.2,259.7,259.7,0,0,1,22.7,18,21.2,21.2,0,0,1,4.7,26.2v.3C71,70.7,65.8,75.5,59,79.1s-14,5.5-19.5,6.8A64.9,64.9,0,0,1,25.7,87.7Z" style="fill:#e0626d"/><path d="M33.7,17.9A21.1,21.1,0,0,1,46,21.8,281.9,281.9,0,0,1,68.6,39.7,19.8,19.8,0,0,1,73,64.1c0,.1-.1.2-.1.3-3.3,5.8-8.7,10.2-14.6,13.4s-12.6,5.1-19.2,6.6a60.9,60.9,0,0,1-13.4,1.8H23.3C18,85.8,12.7,84,9,80.3A21.1,21.1,0,0,1,3.1,66.9,46.4,46.4,0,0,1,4.7,52.1c1.9-8.4,4.8-16.8,10-23.7a45.1,45.1,0,0,1,5.2-5.5,21.5,21.5,0,0,1,13.8-5m0-3h0A24.1,24.1,0,0,0,18,20.6a35.3,35.3,0,0,0-5.6,6C6.1,34.8,3.3,44.7,1.7,51.5.7,56.1-.4,61.5.1,67.1S3,78.7,6.9,82.4s9.7,6.3,16.2,6.7h2.6a60.8,60.8,0,0,0,14.1-1.9c5.7-1.3,13.1-3.2,19.9-6.8s12.5-8.8,15.8-14.6v-.3a22.7,22.7,0,0,0-5-28.1A279.6,279.6,0,0,0,47.8,19.3a24.3,24.3,0,0,0-14.1-4.4Z" style="fill:#b92321"/><path d="M66.3,55.6c-2.7,0-5.1-1.6-6.7-2.9A25.4,25.4,0,0,1,51,36.5H48.8a25.1,25.1,0,0,1-13.3-3.7c-2.1-1.4-3.4-2.9-3.7-4.6s1.6-5.1,3.7-6.2a12.1,12.1,0,0,1,3.6-1,19.9,19.9,0,0,1-2.8-6.3c-.7-3.2.1-7.5,3.6-9.5a7.6,7.6,0,0,1,3.9-1,10.9,10.9,0,0,1,5.4,1.6,17,17,0,0,1,4.4,4,25.2,25.2,0,0,1,2.1-4,11,11,0,0,1,6.2-4.2l1.6-.2a7,7,0,0,1,5.8,2.8,6.8,6.8,0,0,1,1.1,5.1L72,8.7a9.2,9.2,0,0,1,2.8-.5,6.6,6.6,0,0,1,5.5,2.5c1.6,2.2,1.4,5.3-.4,8.5a19.2,19.2,0,0,1-5.2,6.1,21.4,21.4,0,0,1,10.7,8.5c1.6,2.5,2,4.8,1.1,6.7s-2.8,3-5.6,3.5a18.7,18.7,0,0,1-3.4.3,21,21,0,0,1-5.6-.8,13.7,13.7,0,0,1,.9,4c.3,3-1.1,6.6-4.4,7.8A6.6,6.6,0,0,1,66.3,55.6Z" style="fill:#6c9433"/><path d="M63.5,3a5.4,5.4,0,0,1,4.6,2.2,5.7,5.7,0,0,1,.6,4.8,16.7,16.7,0,0,1-2.1,4.5c1.8-1.7,3.6-3.6,5.9-4.4a5.9,5.9,0,0,1,2.3-.4,5.3,5.3,0,0,1,4.3,1.9c1.4,2,.7,4.7-.5,6.9a18.6,18.6,0,0,1-7.4,7.3,20.1,20.1,0,0,1,12.9,8.8c1,1.6,1.8,3.6,1,5.3s-2.7,2.3-4.5,2.6a15.5,15.5,0,0,1-3.1.3,17.2,17.2,0,0,1-8.6-2.2,16.3,16.3,0,0,1,2.4,7c.3,2.5-.9,5.4-3.4,6.3l-1.6.2a9.4,9.4,0,0,1-5.7-2.6,24.1,24.1,0,0,1-8.3-16.6l-3.5.2a23.7,23.7,0,0,1-12.5-3.4c-1.3-.9-2.7-2.1-3-3.7s1.1-3.7,2.8-4.5a14.3,14.3,0,0,1,5.8-1.1,20.6,20.6,0,0,1-4.1-7.9c-.7-2.9.2-6.4,2.9-7.9a5.5,5.5,0,0,1,3.1-.8,8.3,8.3,0,0,1,4.6,1.4A21.7,21.7,0,0,1,54,12.9a31.1,31.1,0,0,1,2.9-6.1,9.9,9.9,0,0,1,5.3-3.7h1.3m0-3L61.6.2A12.5,12.5,0,0,0,54.5,5a15.9,15.9,0,0,0-1.3,2.2A21.3,21.3,0,0,0,50,4.6a11.7,11.7,0,0,0-6.2-1.8A8.8,8.8,0,0,0,39.2,4c-3.6,2-5.4,6.6-4.4,11.1a21.5,21.5,0,0,0,1.9,5,7.3,7.3,0,0,0-1.9.7c-3.1,1.5-5,4.7-4.4,7.8s3.4,5,4.3,5.6a26.9,26.9,0,0,0,14.1,3.9h.9a27.1,27.1,0,0,0,9,15.7c1.7,1.5,4.5,3.3,7.6,3.3a7.5,7.5,0,0,0,2.6-.4c4.1-1.4,5.8-5.8,5.4-9.4a5.7,5.7,0,0,0-.3-1.8l3.5.3a21,21,0,0,0,3.6-.3c4.2-.7,6-2.8,6.7-4.3S89,36.7,86.7,33a22.5,22.5,0,0,0-9.2-8.1,23.6,23.6,0,0,0,3.8-5c2-3.7,2.1-7.4.2-10.1a8,8,0,0,0-6.7-3.1,9.7,9.7,0,0,0-2.9.4,7.5,7.5,0,0,0-1.3-3.6A8.5,8.5,0,0,0,63.5,0Z" style="fill:#507125"/><path d="M48.4,49.1a4.2,4.2,0,0,0-2.6.8c-1.3.7-2.5,2.4-1.4,3.7C47.3,56.5,54.5,49.8,48.4,49.1Z" style="fill:#f4bd34"/><path d="M60.6,62.5a2.6,2.6,0,0,0,.5,1.7,2.3,2.3,0,0,0,1.5,1,3.5,3.5,0,0,0,2.6-1.6,5.3,5.3,0,0,0,1.1-2.1c.5-1.6-.6-4.1-2.7-3.6S60.5,60.8,60.6,62.5Z" style="fill:#f4bd34"/><path d="M47.3,65.6a4.6,4.6,0,0,0-3,1.1,2.3,2.3,0,0,0-1,2.6,2.2,2.2,0,0,0,1.9,1.3,5.3,5.3,0,0,0,2.5-.4,5.8,5.8,0,0,0,2.1-1C51.7,67.3,49.2,65.7,47.3,65.6Z" style="fill:#f4bd34"/><path d="M29.9,58.7a5.2,5.2,0,0,0-3.3,1.8,2.2,2.2,0,0,0-.6,1.7,2.1,2.1,0,0,0,1.7,1.7,5,5,0,0,0,2.7-.1A6,6,0,0,0,33,62.4C35.2,59.9,32.1,58.3,29.9,58.7Z" style="fill:#f4bd34"/><path d="M33.4,74.3a3.8,3.8,0,0,0-2.9,1.2,1.9,1.9,0,0,0,.9,3.4,6.2,6.2,0,0,0,2.3-.2,3.7,3.7,0,0,0,2.1-.9C37.6,76,35.2,74.4,33.4,74.3Z" style="fill:#f4bd34"/><path d="M30,43.1a4.6,4.6,0,0,0-.5,3.6,2.5,2.5,0,0,0,1.7,1.9,2.6,2.6,0,0,0,2.2-.5,4.2,4.2,0,0,0,1.7-3.6c-.1-1.1-.8-2.8-2-3.2S30.6,42.2,30,43.1Z" style="fill:#f4bd34"/><path d="M22.6,30.3a2.8,2.8,0,0,0,1.3,3,2.8,2.8,0,0,0,2,0A4,4,0,0,0,27.5,32a4.1,4.1,0,0,0,.9-2.8c-.1-1.5-1.4-3-2.9-2.4A4.9,4.9,0,0,0,22.6,30.3Z" style="fill:#f4bd34"/><path d="M14.2,47.5a3.9,3.9,0,0,0-.4,3.5,2.2,2.2,0,0,0,1.1,1.2,2,2,0,0,0,2.1-.6,4.5,4.5,0,0,0,1.3-2.8c0-.8-.3-2.5-1.2-2.9S14.6,46.7,14.2,47.5Z" style="fill:#f4bd34"/><path d="M15.7,73.9a1.9,1.9,0,0,1-2.2-1.7h0a5.2,5.2,0,0,1,.1-3.5A1.9,1.9,0,0,1,15,67.5a2.3,2.3,0,0,1,2.8,1.1c.1.2.1.3.2.4C18.5,70.8,17.6,73.4,15.7,73.9Z" style="fill:#f4bd34"/></g></g></g></svg>