<svg xmlns="http://www.w3.org/2000/svg" width="85.9" height="85.9" viewBox="0 0 85.9 85.9"><g style="isolation:isolate"><g id="Layer_2" data-name="Layer 2"><g id="Layer_5" data-name="Layer 5"><g id="owl_toy_4" data-name="owl_toy 4"><g id="_315704584" data-name=" 315704584" style="opacity:0.5"><path d="M34.2,62A27.7,27.7,0,1,1,62,34.3,27.8,27.8,0,0,1,34.2,62Z" style="fill:#a7bfee;fill-rule:evenodd"/><path d="M34.2,8A26.2,26.2,0,0,1,52.8,52.8a26.1,26.1,0,0,1-18.6,7.7,25.7,25.7,0,0,1-18.5-7.7A26.3,26.3,0,0,1,34.2,8m0-3a29,29,0,0,0-20.6,8.6,29.1,29.1,0,0,0,0,41.3,29.1,29.1,0,0,0,41.3,0A29.3,29.3,0,0,0,34.2,5Z" style="fill:#5576b4"/></g><path d="M57.1,19.3,13.2,51.5a29.1,29.1,0,0,1-2.7-4.9L53.3,15.2A24.6,24.6,0,0,1,57.1,19.3Z" style="fill:#fff;mix-blend-mode:screen;opacity:0.5"/><path d="M51.8,14,9.8,44.8a16.8,16.8,0,0,1-.9-3.2L49,12.2Z" style="fill:#fff;mix-blend-mode:screen;opacity:0.5"/><path d="M61.6,67.9a2.7,2.7,0,0,1-1.9-.8l-6.3-6.3A32.8,32.8,0,0,1,34.2,67H33a33.2,33.2,0,0,1-21.9-9.6,32.7,32.7,0,0,1,0-46.3,32.7,32.7,0,0,1,46.3,0A33.2,33.2,0,0,1,67,33a33,33,0,0,1-6.2,20.4l6.3,6.3a2.7,2.7,0,0,1,0,3.9l-3.5,3.5A2.8,2.8,0,0,1,61.6,67.9ZM34.2,9.5a24.2,24.2,0,0,0-17.4,7.3A24.6,24.6,0,0,0,9.5,34.3a24.2,24.2,0,0,0,7.3,17.4A24.2,24.2,0,0,0,34.2,59a24.6,24.6,0,0,0,17.5-7.3A24.2,24.2,0,0,0,59,34.3,24.9,24.9,0,0,0,34.2,9.5Z" style="fill:#cecece;fill-rule:evenodd"/><path d="M34.2,3a31.1,31.1,0,0,1,22.1,9.1A31.6,31.6,0,0,1,65.5,33a31.4,31.4,0,0,1-6.7,20.5L66,60.8a1.1,1.1,0,0,1,0,1.7l-3.5,3.6a1.3,1.3,0,0,1-1.8-.1l-7.2-7.2a31.4,31.4,0,0,1-19.3,6.7H33A31.3,31.3,0,0,1,12.1,12.1,31.1,31.1,0,0,1,34.2,3m0,57.5A26.2,26.2,0,0,0,52.8,15.7,26.5,26.5,0,0,0,34.2,8,26.2,26.2,0,0,0,15.7,52.8a25.7,25.7,0,0,0,18.5,7.7M34.2,0A34.1,34.1,0,0,0,0,34.2,34,34,0,0,0,10,58.4,34.7,34.7,0,0,0,32.9,68.5h1.3a34.6,34.6,0,0,0,19-5.8l5.4,5.5a4.2,4.2,0,0,0,3,1.2,4.1,4.1,0,0,0,3-1.2l3.6-3.5h0a4.3,4.3,0,0,0-.1-6l-5.4-5.4a34.6,34.6,0,0,0,5.8-20.3A34.7,34.7,0,0,0,58.4,10,34,34,0,0,0,34.2,0Zm0,57.5A23.3,23.3,0,0,1,17.8,17.8,23.3,23.3,0,0,1,57.5,34.3,23.2,23.2,0,0,1,34.2,57.5Z" style="fill:#575757"/><g id="_315704776" data-name=" 315704776"><path d="M76.7,84.4a7.5,7.5,0,0,1-5.5-2.3L57.9,68.9a2.9,2.9,0,0,1,0-3.9L65,57.9a2.7,2.7,0,0,1,1.9-.8,3.2,3.2,0,0,1,2,.8L82.1,71.2a7.8,7.8,0,0,1-5.4,13.2Z" style="fill:#af7553;fill-rule:evenodd"/><path d="M66.9,58.6a1.1,1.1,0,0,1,.9.4L81.1,72.2a6.3,6.3,0,0,1-4.4,10.7,6.6,6.6,0,0,1-4.5-1.8L59,67.8A1.3,1.3,0,0,1,59,66l7-7a1.2,1.2,0,0,1,.9-.4m0-3a4.3,4.3,0,0,0-3,1.3l-7,7h-.1a4.1,4.1,0,0,0,.1,5.9L70.1,83.2a9.3,9.3,0,0,0,13.1,0,9.3,9.3,0,0,0,0-13.1L69.9,56.9h0a4.2,4.2,0,0,0-3-1.2Z" style="fill:#75411a"/></g></g></g></g></g></svg>