<svg xmlns="http://www.w3.org/2000/svg" width="86" height="86" viewBox="0 0 86 86"><g id="Layer_2" data-name="Layer 2"><g id="Layer_5" data-name="Layer 5"><g id="owl_toy_1" data-name="owl_toy 1"><path d="M20.1,9.5H20v36h1.3V10l-1-.4h-.1" style="fill:#b04d36"/><path d="M23.4,35.6a1.6,1.6,0,0,1-1.1-.4l-1.6-1.1-1.6,1.1a2.8,2.8,0,0,1-1.2.4,1.5,1.5,0,0,1-1.2-.7,1.7,1.7,0,0,1-.3-1.7l.6-1.8-1.5-1.1a1.8,1.8,0,0,1-.7-2,1.7,1.7,0,0,1,1.8-1.1h1.8l.6-1.7a1.6,1.6,0,0,1,1.7-1.3,1.6,1.6,0,0,1,1.6,1.2l.6,1.8h1.9a1.8,1.8,0,0,1,1.8,1.2c.3.7,0,1.4-.8,2l-1.5,1.1.5,1.8a1.7,1.7,0,0,1-.2,1.8,1.4,1.4,0,0,1-1.2.6Z" style="fill:#fc97b8;fill-rule:evenodd"/><path d="M20.7,25.6s.1,0,.2.2l.9,2.4a.4.4,0,0,0,.4.4h2.5c.7.1.6.2.2.5l-2,1.5c-.2.2-.3.4-.2.6l.7,2.4c.1.4.1.5,0,.5l-.3-.2-2.2-1.4c0-.1-.1-.1-.2-.1s-.3,0-.3.1l-2.1,1.4-.4.2c-.1,0-.1-.2,0-.4l.7-2.4a.7.7,0,0,0-.2-.7l-2-1.5c-.3-.2-.2-.4.2-.4H19c.3,0,.5-.3.6-.5l.8-2.2.3-.3m0-3a3.3,3.3,0,0,0-3.1,2.3l-.3.7h-.7a3.1,3.1,0,0,0-3.2,2.2,3.1,3.1,0,0,0,1.2,3.6l.7.5-.3.8a3.1,3.1,0,0,0,.5,3,2.9,2.9,0,0,0,2.4,1.3,3.6,3.6,0,0,0,2.1-.7l.7-.5.7.5h.1a2.9,2.9,0,0,0,1.9.7A3.2,3.2,0,0,0,25.8,36a3.4,3.4,0,0,0,.5-3.1h0l-.2-.8.7-.5a3.3,3.3,0,0,0,1.3-3.7,3.4,3.4,0,0,0-3.3-2.2H24l-.3-.8a3.1,3.1,0,0,0-3-2.2Z" style="fill:#e75c78"/><path d="M20.5,28.5l-.4,1.3-.3.2H18.4c-.2,0-.2.1-.1.2l1.1.9a.2.2,0,0,1,.1.3l-.4,1.3c0,.3,0,.3.2.2l1.2-.8a.2.2,0,0,1,.3,0L22,33c.2.1.3.2.2-.2l-.4-1.3a.2.2,0,0,1,.1-.3l1.1-.9c.2-.2.2-.2-.1-.2H21.5a.2.2,0,0,1-.2-.2l-.5-1.3Q20.7,28.2,20.5,28.5Z" style="fill:#fff;fill-rule:evenodd;opacity:0.5"/><path d="M20.7,45.2l3.7,3.9H17l3.7-3.9m0-3h0a2.9,2.9,0,0,0-2.2.9l-3.7,4a2.9,2.9,0,0,0-.5,3.2A2.9,2.9,0,0,0,17,52.1h7.4a3.1,3.1,0,0,0,2.8-1.8,3.3,3.3,0,0,0-.6-3.3l-3.7-3.9a3.1,3.1,0,0,0-2.2-.9Z" style="fill:#6ab3b9"/><path d="M24.4,49.1h0m0,0L20.7,53,17,49.1h7.4m0-3H17a2.9,2.9,0,0,0-2.7,1.8,3.1,3.1,0,0,0,.5,3.3l3.7,3.9a2.9,2.9,0,0,0,2.2.9h0a3.1,3.1,0,0,0,2.2-.9l3.6-3.9a2.7,2.7,0,0,0,.9-2.1,3,3,0,0,0-3-3Zm0,6Z" style="fill:#6ab3b9"/><polygon points="20.7 45.2 24.4 49.1 22 49.1 20.7 45.2" style="fill:#87e7de;fill-rule:evenodd"/><polygon points="20.7 45.2 19.5 49.1 22 49.1 20.7 45.2" style="fill:#5ecdc3;fill-rule:evenodd"/><polygon points="20.7 45.2 17 49.1 19.5 49.1 20.7 45.2" style="fill:#87e7de;fill-rule:evenodd"/><polygon points="20.7 53 24.4 49.1 22 49.1 20.7 53" style="fill:#5ecdc3;fill-rule:evenodd"/><polygon points="20.7 53 19.5 49.1 22 49.1 20.7 53" style="fill:#87e7de;fill-rule:evenodd"/><polygon points="20.7 53 17 49.1 19.5 49.1 20.7 53" style="fill:#5ecdc3;fill-rule:evenodd"/><path d="M85.6,78.2V73.9a3.6,3.6,0,0,0-.7-2.6,5.8,5.8,0,0,0-2.7-1.8h-.1c-5.4-2-21.1-3.3-39.1-3.3h-.6a275.6,275.6,0,0,0-27.7,1.2C3.3,68.5,1.4,70.1.8,71.8a3.2,3.2,0,0,0-.3,1.9,1.4,1.4,0,0,0,0,.9,1.4,1.4,0,0,0,0,.9,1.1,1.1,0,0,0,0,.8,1.4,1.4,0,0,0,0,.9,1.1,1.1,0,0,0,0,.8,3.9,3.9,0,0,0,.3,2.1c.8,1.5,2.5,3.2,14.2,4.5A245.9,245.9,0,0,0,43,86h.7a269.1,269.1,0,0,0,27.6-1.3c11.4-1.3,13.2-3,13.9-4.5A3,3,0,0,0,85.6,78.2Z" style="fill:#ffaa5a"/><path d="M43,79.7c-3.9,0-38.6-.2-41.2-5.3a2,2,0,0,1,0-2.1C2.2,71,4,69.5,14.9,68.4a265.5,265.5,0,0,1,27.5-1.3H43c17.9.1,33.4,1.4,38.7,3.4h.1A4.3,4.3,0,0,1,84,72a2.3,2.3,0,0,1,.3,2.5c-2.5,5-34.3,5.2-40.6,5.2Z" style="fill:#fcf8cb"/><path d="M42.4,68.6H43c18,.1,33.2,1.4,38.2,3.3h.1a3.2,3.2,0,0,1,1.5.9.9.9,0,0,1,.1,1.1c-1.2,2.4-17.5,4.3-39.2,4.3H43c-22,0-38.7-2.1-39.9-4.5a.8.8,0,0,1,0-.8c.7-2.4,18-4.3,39.3-4.3m0-3a271.2,271.2,0,0,0-27.7,1.3C4,68,1.2,69.5.4,71.7a4,4,0,0,0,0,3.4c.9,1.6,2.7,3.4,14.5,4.8A278.2,278.2,0,0,0,43,81.2h.7a242.1,242.1,0,0,0,27.6-1.3c11.7-1.3,13.5-3,14.3-4.7a3.8,3.8,0,0,0-.3-4.1,6,6,0,0,0-2.9-2h-.1c-5.6-2-21-3.3-39.3-3.4Z" style="fill:#ffaa5a"/><path d="M45.1,44.9h-.4a1.6,1.6,0,0,1-1.1-1.4h0a46.8,46.8,0,0,0-.3-5.5,1.7,1.7,0,0,1,.3-1l8.8-13.4.4-.6a1.6,1.6,0,0,1,1.2-.6H81.4a1.4,1.4,0,0,1,1.4,1,3.1,3.1,0,0,1-1.6,3.7,5.9,5.9,0,0,1-2.8.6L65,28.2l-9.5.4L46.4,44.2A1.5,1.5,0,0,1,45.1,44.9Z" style="fill:#ddab88"/><path d="M54.1,23.8H81.4a1.6,1.6,0,0,1-.9,1.9,5.4,5.4,0,0,1-2.2.4l-23.7.9-.3.6L45.1,43.4a50.4,50.4,0,0,0-.3-5.7c3-4.5,6-9,8.9-13.5l.3-.3h.1m-.1-3A3,3,0,0,0,51.6,22a3.5,3.5,0,0,0-.5.8l-1.8,2.8-7,10.5a2.8,2.8,0,0,0-.4,2c.1,1.5.2,3.5.2,5.4a2.9,2.9,0,0,0,2.2,2.8h.8A3,3,0,0,0,47.7,45l8.7-15,8.6-.3,13.4-.5a7.6,7.6,0,0,0,3.6-.8,4.8,4.8,0,0,0,2.3-5.5,3,3,0,0,0-2.9-2H54Z" style="fill:#6a3417"/><path d="M43.1,29.4a1.6,1.6,0,0,1-1.3-.7c-2.7-4.8-5.7-9.5-8.9-14.2-4.2-.3-7.9-.5-12.8-.5H18.4a1.6,1.6,0,0,1-1.1-.5,1.7,1.7,0,0,1-.4-1.2l.3-1.9a1.4,1.4,0,0,1,1.5-1.3H26L34.3,9h.5a1.6,1.6,0,0,1,.8.6c2.9,4.4,5.8,8.7,8.8,12.9a1.4,1.4,0,0,1,.1,1.6c-.4.7-.2,2.2.1,3.5a1.4,1.4,0,0,1-1,1.6Z" style="fill:#ddab88"/><path d="M34.4,10.5c2.8,4.4,5.8,8.7,8.8,12.9-.7,1.2-.4,2.8-.1,4.5-2.9-5.1-6.1-10-9.4-14.9-4.9-.3-8.6-.5-13.6-.5H18.4l.3-1.9H26l8.3-.2h.1m0-3h-.2L26,7.7H18.7a3,3,0,0,0-3,2.6v1.9a2.6,2.6,0,0,0,.7,2.4,3.2,3.2,0,0,0,2.2,1h1.7c4.6,0,8.1.2,12,.4q4.5,6.7,8.4,13.5a2.8,2.8,0,0,0,2.6,1.5,1.8,1.8,0,0,0,1-.2A2.8,2.8,0,0,0,46,27.4a11,11,0,0,1-.2-2.4,3,3,0,0,0-.2-3.3c-3-4.2-5.9-8.5-8.7-12.8a3,3,0,0,0-2.5-1.4Z" style="fill:#6a3417"/><path d="M42.9,73a4.5,4.5,0,0,1-3.7-2.2,1.1,1.1,0,0,1-.3-.8c.1-2.8.3-5.6.4-8.3s.3-7.2.3-9.9c.1-11.7.1-19.3.1-23.9,0-2.4,0-3.9.1-4.9a6.2,6.2,0,0,1,.2-2.1c0-4.4-.1-10-.1-17.1a1.2,1.2,0,0,1,.5-1,4,4,0,0,1,3-1.3,4.3,4.3,0,0,1,3.4,1.6,1.6,1.6,0,0,1,.3.9V39.6c0,5.2,0,14.3-.1,29.7v.3A4.4,4.4,0,0,1,43.5,73Z" style="fill:#d8a960"/><path d="M43.4,3a2.6,2.6,0,0,1,2.2,1V37.5c0,4.6,0,14.1-.1,31.8a2.8,2.8,0,0,1-2.2,2.2h-.4A3.1,3.1,0,0,1,40.4,70c.3-6.8.7-13.6.7-18.2.1-23.5.1-30.3.2-30.3s.1,12.6.1,12.6.1-6.8,0-30.3a3.2,3.2,0,0,1,2-.8m2.2,30.6v0M43.4,0a5.5,5.5,0,0,0-4.1,1.7,2.9,2.9,0,0,0-.9,2.1c0,6.9.1,12.5.1,16.8a5,5,0,0,0-.2,1.2v1.1c-.1,1-.1,2.6-.1,5,0,4.9-.1,13-.1,23.9,0,2.6-.1,6.1-.3,9.8s-.3,5.5-.4,8.4a3.3,3.3,0,0,0,.5,1.6,5.9,5.9,0,0,0,5,2.9h.8a5.7,5.7,0,0,0,4.8-4.5v-.6c.1-15.1.1-24.2.1-29.4V4A3.2,3.2,0,0,0,48,2.2,5.6,5.6,0,0,0,43.4,0Z" style="fill:#6a3417"/></g></g></g></svg>