<svg xmlns="http://www.w3.org/2000/svg" width="56.4" height="86.3" viewBox="0 0 56.4 86.3"><g id="Layer_2" data-name="Layer 2"><g id="Layer_5" data-name="Layer 5"><g id="owl_toy_2" data-name="owl_toy 2"><path d="M27.8,45.8h-.1V80.3h1.1V45.9h-1" style="fill:#b04d36"/><path d="M28.3,76.6l3.2,3.3H25.2l3.1-3.3m0-3h0a3.1,3.1,0,0,0-2.2.9L23,77.9a2.9,2.9,0,0,0-.5,3.2,2.8,2.8,0,0,0,2.7,1.8h6.3a3,3,0,0,0,2.1-5.1l-3.1-3.3a3.1,3.1,0,0,0-2.2-.9Z" style="fill:#6ab3b9"/><path d="M31.5,79.9h0m0,0-3.2,3.4-3.1-3.4h6.3m0-3H25.2a3.1,3.1,0,0,0-2.8,1.8A3.3,3.3,0,0,0,23,82l3.1,3.3a3.7,3.7,0,0,0,2.2,1h0a3.2,3.2,0,0,0,2.2-1L33.6,82a3.1,3.1,0,0,0,.9-2.1,3.1,3.1,0,0,0-3-3Zm0,6Z" style="fill:#6ab3b9"/><polygon points="28.3 76.6 31.5 79.9 29.4 79.9 28.3 76.6" style="fill:#87e7de;fill-rule:evenodd"/><polygon points="28.3 76.6 27.3 79.9 29.4 79.9 28.3 76.6" style="fill:#5ecdc3;fill-rule:evenodd"/><polygon points="28.3 76.6 25.2 79.9 27.3 79.9 28.3 76.6" style="fill:#87e7de;fill-rule:evenodd"/><polygon points="28.3 83.3 31.5 79.9 29.4 79.9 28.3 83.3" style="fill:#5ecdc3;fill-rule:evenodd"/><polygon points="28.3 83.3 27.3 79.9 29.4 79.9 28.3 83.3" style="fill:#87e7de;fill-rule:evenodd"/><polygon points="28.3 83.3 25.2 79.9 27.3 79.9 28.3 83.3" style="fill:#5ecdc3;fill-rule:evenodd"/><path d="M12.1,41.8H12V71.2h1.1V41.9h-1" style="fill:#b04d36"/><polygon points="12.5 61.8 14.3 63.3 13.1 63.3 12.5 61.8" style="fill:#f6b9c9;fill-rule:evenodd"/><polygon points="12.5 61.8 12 63.3 13.1 63.3 12.5 61.8" style="fill:#ee9fb4;fill-rule:evenodd"/><polygon points="12.5 61.8 10.8 63.3 12 63.3 12.5 61.8" style="fill:#f6b9c9;fill-rule:evenodd"/><rect x="10.8" y="63.3" width="3.5" height="5.91" style="fill:#ee9fb4"/><rect x="12" y="63.3" width="1.2" height="5.91" style="fill:#f6b9c9"/><polygon points="12.5 70.8 14.3 69.2 13.1 69.2 12.5 70.8" style="fill:#f6b9c9;fill-rule:evenodd"/><polygon points="12.5 70.8 12 69.2 13.1 69.2 12.5 70.8" style="fill:#ee9fb4;fill-rule:evenodd"/><polygon points="12.5 70.8 10.8 69.2 12 69.2 12.5 70.8" style="fill:#f6b9c9;fill-rule:evenodd"/><path d="M12.5,61.8l1.8,1.5h0v5.9h0l-1.8,1.6-1.7-1.6h0V63.3h0l1.7-1.5m1.8,7.4h0M12.5,58.8a3.1,3.1,0,0,0-2,.7L8.8,61.1a1,1,0,0,0-.5.6,2.8,2.8,0,0,0-.5,1.6v6.2a5,5,0,0,0,.4,1.3l.6.6L10.5,73a3.2,3.2,0,0,0,2,.8,3.2,3.2,0,0,0,2-.8l1.7-1.5a2.8,2.8,0,0,0,1.1-2.3h0V63.3a3.3,3.3,0,0,0-1-2.3l-1.8-1.5a2.9,2.9,0,0,0-2-.7Z" style="fill:#fa789e"/><path d="M44.3,41.8h-1V71.2h1.1V41.8h-.1" style="fill:#b04d36"/><polygon points="43.9 61.8 42.1 63.3 43.3 63.3 43.9 61.8" style="fill:#f6b9c9;fill-rule:evenodd"/><polygon points="43.9 61.8 44.4 63.3 43.3 63.3 43.9 61.8" style="fill:#ee9fb4;fill-rule:evenodd"/><polygon points="43.9 61.8 45.6 63.3 44.4 63.3 43.9 61.8" style="fill:#f6b9c9;fill-rule:evenodd"/><rect x="42.1" y="63.3" width="3.5" height="5.91" style="fill:#ee9fb4"/><rect x="43.3" y="63.3" width="1.2" height="5.91" style="fill:#f6b9c9"/><polygon points="43.9 70.8 42.1 69.2 43.3 69.2 43.9 70.8" style="fill:#f6b9c9;fill-rule:evenodd"/><polygon points="43.9 70.8 44.4 69.2 43.3 69.2 43.9 70.8" style="fill:#ee9fb4;fill-rule:evenodd"/><polygon points="43.9 70.8 45.6 69.2 44.4 69.2 43.9 70.8" style="fill:#f6b9c9;fill-rule:evenodd"/><path d="M43.9,61.8l1.7,1.5h0v5.9h0l-1.7,1.6-1.8-1.6h0V63.3h0l1.8-1.5m1.7,7.4h0M43.9,58.8a3.1,3.1,0,0,0-2,.7L40.1,61a3.3,3.3,0,0,0-1,2.3v5.9a3.3,3.3,0,0,0,1,2.3L41.9,73a2.9,2.9,0,0,0,4,0l1.7-1.5a3.3,3.3,0,0,0,1-2.3h0v-6a2.8,2.8,0,0,0-.4-1.3l-.6-.7-1.7-1.6a3.1,3.1,0,0,0-2-.7Z" style="fill:#fa789e"/><path d="M28.3,53.8a25.5,25.5,0,1,1,0-50.9,26.4,26.4,0,0,1,11,2.5A1.4,1.4,0,0,1,40,7.2a1.4,1.4,0,0,1-1.4,1.1h-.2l-1.7-.2a15.2,15.2,0,0,0,0,30.4,15.1,15.1,0,0,0,14.1-9.6,1.5,1.5,0,0,1,1.4-1h.3a1.6,1.6,0,0,1,1.2,1.6A25.4,25.4,0,0,1,28.3,53.8Z" style="fill:#6ab3b9;fill-rule:evenodd"/><path d="M28.3,4.4A23.6,23.6,0,0,1,38.6,6.8l-1.9-.2A16.7,16.7,0,1,0,52.2,29.4a24,24,0,1,1-23.9-25m23.9,25h0M28.3,1.4A27,27,0,1,0,55.2,29.7v-.3a3.1,3.1,0,0,0-2.9-3h-.5a3.5,3.5,0,0,0-1.4.6,2.7,2.7,0,0,0-.7.8l-.3.6A13.7,13.7,0,1,1,36.7,9.6h1.9a3.1,3.1,0,0,0,2.9-2.2,3,3,0,0,0-1.6-3.5A26,26,0,0,0,28.3,1.4Z" style="fill:#3b7e82"/><path d="M29,3h.3a.6.6,0,0,1,.4.7.4.4,0,0,1-.1.3,25.1,25.1,0,0,1,8.2,1.8l.3-.2.7-.2a1.3,1.3,0,0,1,.8.3.6.6,0,0,1,.1.8l-.2.2a23.7,23.7,0,0,1,6.1,4.4l.5.6h.6a1.3,1.3,0,0,1,1.2.7.8.8,0,0,1-.2.8h-.3a26,26,0,0,1,4,7.3h.5a1.4,1.4,0,0,1,.9,1.2.6.6,0,0,1-.5.6h-.4a21.5,21.5,0,0,1,.8,6.2,16.2,16.2,0,0,1-.1,2.2l.3.3a1.1,1.1,0,0,1,.4,1.4c0,.3-.3.4-.5.4h-.2a.2.2,0,0,1-.2-.2,25.9,25.9,0,0,1-2.8,7.8.8.8,0,0,1,.2.4,1.2,1.2,0,0,1-.2,1.4.4.4,0,0,1-.4.2h-.4l-.2-.3a27.9,27.9,0,0,1-3,3.8A31.1,31.1,0,0,1,42.8,48v.4a1.3,1.3,0,0,1-.7,1.2h-.3a.7.7,0,0,1-.5-.4.3.3,0,0,1-.1-.2,23.2,23.2,0,0,1-7.4,3.1.6.6,0,0,1-.1.4,1.3,1.3,0,0,1-1.2.8h0a.6.6,0,0,1-.6-.6v-.2l-3.6.2a24.2,24.2,0,0,1-4.7-.4l-.3.3a1.8,1.8,0,0,1-.9.4l-.6-.2a.6.6,0,0,1-.3-.7l.2-.2a27.3,27.3,0,0,1-7.3-3.5l-.5.2h-.4a1.3,1.3,0,0,1-1-.4.5.5,0,0,1,.1-.8c0-.1.1-.1.2-.1L11,45.7a22.8,22.8,0,0,1-3.6-4.6H6.9a1.4,1.4,0,0,1-1.1-.9.6.6,0,0,1,.4-.8h.2A25.9,25.9,0,0,1,4,31.5H3.7A1.5,1.5,0,0,1,3,30.1a.6.6,0,0,1,.6-.5h.2V28.4a26.9,26.9,0,0,1,1-7l-.3-.3a1.6,1.6,0,0,1-.1-1.5.5.5,0,0,1,.5-.3h.3c.1.1.2.1.2.2a24.5,24.5,0,0,1,4.3-7.1.8.8,0,0,1-.1-.4,1.4,1.4,0,0,1,.5-1.4h.3l.5.2a.4.4,0,0,1,.1.3,23.3,23.3,0,0,1,6.8-4.8V5.9a1.3,1.3,0,0,1,1-1H19c.2,0,.5.2.5.4v.2a27.8,27.8,0,0,1,8.2-1.6c.1-.1.1-.2.2-.4A1.6,1.6,0,0,1,29,3M19.5,8.7a1.8,1.8,0,0,1-.9-.4.1.1,0,0,1-.1-.1,20.4,20.4,0,0,0-6.1,4.3h-.2c.1.1.3.1.3.2a.5.5,0,0,1,.1.8,1.2,1.2,0,0,1-.9.4h-.6a23,23,0,0,0-3.9,6.6h.3a.7.7,0,0,1,.4.8,1.5,1.5,0,0,1-1.1.8H6.7a21.8,21.8,0,0,0-.9,6.3v1.4l.4-.2h0a.6.6,0,0,1,.6.6,1.2,1.2,0,0,1-.6,1.2H6a24.9,24.9,0,0,0,2.3,7.3c.1-.1.1-.2.2-.2h.3a.5.5,0,0,1,.5.3,1.4,1.4,0,0,1-.1,1.4H9.1a21.8,21.8,0,0,0,3.3,4.2l1.8,1.6c0-.1.1-.2.1-.3l.5-.2h.4a1.5,1.5,0,0,1,.4,1.3h0a23.6,23.6,0,0,0,6.8,3.2v-.3a.6.6,0,0,1,.6-.5h.1a1.3,1.3,0,0,1,.9,1h.1a18.7,18.7,0,0,0,4.2.4l3.6-.2c-.1-.1-.2-.2-.2-.3s.2-.7.5-.7h.2a1,1,0,0,1,1,.5.1.1,0,0,1,.1.1,23.5,23.5,0,0,0,6.9-2.9l-.3-.2a.6.6,0,0,1,.1-.8,1,1,0,0,1,.7-.2h.9l2.3-2a26,26,0,0,0,3-3.6h-.3a.5.5,0,0,1-.2-.8,1.1,1.1,0,0,1,1.1-.6h.2A19.9,19.9,0,0,0,50.4,32h-.2a.6.6,0,0,1-.5-.6,1.4,1.4,0,0,1,.9-1.1h0a12.1,12.1,0,0,0,.1-1.9,22,22,0,0,0-.7-5.8h-.3a.1.1,0,0,1-.1.1.7.7,0,0,1-.6-.4,1.2,1.2,0,0,1,.4-1.3.1.1,0,0,1,.1-.1,23.8,23.8,0,0,0-3.8-6.8c0,.1-.1.2-.2.3h-.3c-.2,0-.4,0-.5-.2a1.2,1.2,0,0,1-.2-1.3h.1l-.5-.5a21.6,21.6,0,0,0-5.7-4.2.4.4,0,0,1-.1.3.5.5,0,0,1-.5.4h-.2a1.1,1.1,0,0,1-.7-1.1V7.6a27.1,27.1,0,0,0-7.6-1.7.4.4,0,0,1,.1.3.6.6,0,0,1-.6.6h0A1.2,1.2,0,0,1,27.7,6h-.1A23.4,23.4,0,0,0,20,7.5l.2.3c.2.3,0,.6-.3.8h-.4M29,0h0a4.3,4.3,0,0,0-2.7,1,25.2,25.2,0,0,0-6.1,1.1L19,1.9h-.8a4.4,4.4,0,0,0-2.9,2.2,24.5,24.5,0,0,0-5,3.4,3.7,3.7,0,0,0-2,.7,4.4,4.4,0,0,0-1.8,3.3,33,33,0,0,0-3.1,5.1,3.8,3.8,0,0,0-1.6,1.5,4.4,4.4,0,0,0-.2,3.7,24.7,24.7,0,0,0-.8,6A4.1,4.1,0,0,0,0,29.8a4.6,4.6,0,0,0,1.2,3.4,26.9,26.9,0,0,0,1.7,5.7,4.1,4.1,0,0,0,0,2.2,4.4,4.4,0,0,0,2.6,2.7,31.9,31.9,0,0,0,3.3,4l.6.5a3.4,3.4,0,0,0,.9,2,4.5,4.5,0,0,0,3.2,1.4h.3A27.6,27.6,0,0,0,19,54.2a3.1,3.1,0,0,0,1.7,1.5,4.7,4.7,0,0,0,1.7.4,4.6,4.6,0,0,0,2-.5,25.5,25.5,0,0,0,3.9.2h2.2a3.9,3.9,0,0,0,2,.6,4.2,4.2,0,0,0,3.3-1.6,32.1,32.1,0,0,0,5.4-2.2h.6a2.8,2.8,0,0,0,1.5-.4,4.3,4.3,0,0,0,2.4-2.7l2-1.8a27.5,27.5,0,0,0,2.2-2.6,3.1,3.1,0,0,0,2-1.1,4.7,4.7,0,0,0,1-3.6,25.8,25.8,0,0,0,2-5.5,3,3,0,0,0,1.3-1.8,4.4,4.4,0,0,0-.5-3.7V28.4a26.3,26.3,0,0,0-.4-4.9,3.3,3.3,0,0,0,.4-2.2,4.3,4.3,0,0,0-2-3.2,21.8,21.8,0,0,0-2.8-5.2,3.4,3.4,0,0,0-.5-2.2,3.9,3.9,0,0,0-3-2A28,28,0,0,0,42.6,5a3.8,3.8,0,0,0-1.3-1.8,4.6,4.6,0,0,0-2.5-.8l-1.1.2a30,30,0,0,0-5.9-1.5,3.5,3.5,0,0,0-1.9-1ZM22.9,9.7A13.6,13.6,0,0,1,26.4,9a4.1,4.1,0,0,0,2.4.8h0a3.8,3.8,0,0,0,2.1-.7,19.8,19.8,0,0,1,3.5.8,3.9,3.9,0,0,0,1.9,1.7,2.8,2.8,0,0,0,1.5.4h.8a20.1,20.1,0,0,1,2.9,2.2,3.7,3.7,0,0,0,1,2.3,3.9,3.9,0,0,0,1.9,1.2,19.2,19.2,0,0,1,1.8,3.1,4.3,4.3,0,0,0-.1,2.5,4.3,4.3,0,0,0,1.3,1.9,18.4,18.4,0,0,1,.3,3.3v.4a4.4,4.4,0,0,0-1,2.2,3.6,3.6,0,0,0,.4,2.1,20.6,20.6,0,0,1-1.2,3.5A3.9,3.9,0,0,0,44,38.3a3.4,3.4,0,0,0-.5,2.2L42,42.1a4.7,4.7,0,0,1-1,1h-.1a4,4,0,0,0-2.4.7,4.3,4.3,0,0,0-1.4,1.9,13.4,13.4,0,0,1-3,1.2,4.7,4.7,0,0,0-1.7-.3h-.8a3.7,3.7,0,0,0-2,1.2H26a5,5,0,0,0-2.2-1.3H23a4,4,0,0,0-1.5.3,17.3,17.3,0,0,1-3.1-1.4A4.1,4.1,0,0,0,17,43.1a4.4,4.4,0,0,0-2.2-.7h0l-.3-.3a16.4,16.4,0,0,1-2.1-2.4,3.8,3.8,0,0,0-.5-2.5,3.5,3.5,0,0,0-1.7-1.5c-.4-1.1-.7-2.2-1-3.3a3.6,3.6,0,0,0,.6-2.5,3.7,3.7,0,0,0-1-2.2c.1-1.1.2-2.3.4-3.5a3.8,3.8,0,0,0,1.5-2,3,3,0,0,0,0-2.3,23.8,23.8,0,0,1,1.8-3,4.6,4.6,0,0,0,2.3-1.2,3.6,3.6,0,0,0,.9-2.2,28.3,28.3,0,0,1,2.8-2l1,.2a4.7,4.7,0,0,0,1.6-.4,3.5,3.5,0,0,0,1.8-1.6Z" style="fill:#ac538c"/><path d="M28.3,3.9a24.8,24.8,0,0,1,17.3,7.2,24.6,24.6,0,0,1,0,34.6,24.7,24.7,0,0,1-17.3,7.1A24.4,24.4,0,0,1,3.8,28.4,24,24,0,0,1,11,11.1,24.4,24.4,0,0,1,28.3,3.9Zm15.8,8.6A22,22,0,0,0,28.3,5.9,22.5,22.5,0,0,0,5.8,28.4,22.5,22.5,0,1,0,44.1,12.5Z" style="fill:#feb6d2;fill-rule:evenodd"/><path d="M37.8,9h-.2a1.1,1.1,0,0,1-.7-1.1,2.5,2.5,0,0,1,1.2-2.2,1.4,1.4,0,0,1,1.5.1.6.6,0,0,1,.1.8.6.6,0,0,1-.8.1h-.2A1.5,1.5,0,0,0,38,7.7c0,.1,0,.2.1.2a.4.4,0,0,1,.2.7A.5.5,0,0,1,37.8,9Z" style="fill:#b4668a"/><path d="M28.8,6.8h0A1.2,1.2,0,0,1,27.7,6a2.5,2.5,0,0,1,.2-2.5A1.6,1.6,0,0,1,29.3,3a.6.6,0,0,1,.4.7.6.6,0,0,1-.6.5c-.1,0-.2-.1-.2.1a1.3,1.3,0,0,0-.2,1.2h.1c.3.1.6.3.6.6A.6.6,0,0,1,28.8,6.8Z" style="fill:#b4668a"/><path d="M19.5,8.7a1.8,1.8,0,0,1-.9-.4,2.7,2.7,0,0,1-.8-2.4,1.3,1.3,0,0,1,1-1c.3-.1.7.1.7.4s-.1.7-.4.7l-.2.2a1.7,1.7,0,0,0,.5,1.2h.1a.5.5,0,0,1,.7.3c.2.3,0,.6-.3.8Z" style="fill:#b4668a"/><path d="M11.7,14h-.4a2.4,2.4,0,0,1-1.7-1.8,1.4,1.4,0,0,1,.5-1.4.6.6,0,0,1,.8.1.6.6,0,0,1-.1.8c-.1.1-.1.1-.1.3a1.6,1.6,0,0,0,.9.9h.1a.6.6,0,0,1,.8,0,.5.5,0,0,1,.1.8A1.2,1.2,0,0,1,11.7,14Z" style="fill:#b4668a"/><path d="M6.6,22.1a2.7,2.7,0,0,1-2.1-1,1.6,1.6,0,0,1-.1-1.5.6.6,0,0,1,.8-.2.7.7,0,0,1,.3.8c-.1,0-.1.1,0,.2a1.3,1.3,0,0,0,1.2.5h.1a.6.6,0,0,1,.7-.4.7.7,0,0,1,.4.8,1.5,1.5,0,0,1-1.1.8Z" style="fill:#b4668a"/><path d="M4.9,31.7a2.4,2.4,0,0,1-1.2-.3A1.5,1.5,0,0,1,3,30.1a.5.5,0,0,1,.6-.5.6.6,0,0,1,.6.6.3.3,0,0,0,.1.2,1.5,1.5,0,0,0,1.3,0h.1c-.1-.3.2-.6.5-.7a.6.6,0,0,1,.6.6,1.2,1.2,0,0,1-.6,1.2A2.8,2.8,0,0,1,4.9,31.7Z" style="fill:#b4668a"/><path d="M7.2,41.1H6.9a1.4,1.4,0,0,1-1.1-.9.6.6,0,0,1,.4-.8.6.6,0,0,1,.7.4c0,.1,0,.1.2.1a1.3,1.3,0,0,0,1.1-.5.1.1,0,0,0,.1-.1.5.5,0,0,1,.2-.8.5.5,0,0,1,.8.2,1.4,1.4,0,0,1-.1,1.4A2.6,2.6,0,0,1,7.2,41.1Z" style="fill:#b4668a"/><path d="M13.5,48.7a1.3,1.3,0,0,1-1-.4.5.5,0,0,1,.1-.8.6.6,0,0,1,.8,0c0,.1.1.1.2.1a1.5,1.5,0,0,0,.9-1h0a.7.7,0,0,1-.2-.9.7.7,0,0,1,.9-.1,1.5,1.5,0,0,1,.4,1.3,2.5,2.5,0,0,1-1.7,1.9Z" style="fill:#b4668a"/><path d="M22.4,53.1l-.6-.2a.6.6,0,0,1-.3-.7.7.7,0,0,1,.8-.3h.2a1.3,1.3,0,0,0,.4-1.2h0c-.4-.1-.6-.4-.5-.7a.8.8,0,0,1,.7-.5,1.3,1.3,0,0,1,.9,1,2.6,2.6,0,0,1-.7,2.4A1.8,1.8,0,0,1,22.4,53.1Z" style="fill:#b4668a"/><path d="M32.5,53.4a.6.6,0,0,1-.6-.6.6.6,0,0,1,.6-.6h.2a2,2,0,0,0-.2-1.3h-.1a.6.6,0,0,1-.7-.4c0-.4.2-.7.5-.7a1.2,1.2,0,0,1,1.2.5,2.5,2.5,0,0,1,.3,2.5,1.3,1.3,0,0,1-1.2.8Z" style="fill:#b4668a"/><path d="M41.8,49.7a.7.7,0,0,1-.5-.4.5.5,0,0,1,.3-.7c0-.1.1-.1.1-.2a1.2,1.2,0,0,0-.7-1.1h-.1a.6.6,0,1,1-.7-.9,1.4,1.4,0,0,1,1.4-.1,2.5,2.5,0,0,1,1.2,2.2,1.3,1.3,0,0,1-.7,1.2Z" style="fill:#b4668a"/><path d="M49.2,42.3h-.4a.5.5,0,0,1-.1-.8c.1-.1.1-.1.1-.3a1.6,1.6,0,0,0-1.1-.7h-.1a.6.6,0,0,1-.8.2.5.5,0,0,1-.2-.8,1.3,1.3,0,0,1,1.2-.6,2.6,2.6,0,0,1,2,1.5,1.2,1.2,0,0,1-.2,1.4A.4.4,0,0,1,49.2,42.3Z" style="fill:#b4668a"/><path d="M52.8,32.7h-.2a.6.6,0,0,1-.4-.7c.1-.2-.1-.4-.3-.5s-1-.1-1,0a.8.8,0,0,1-.7.5.6.6,0,0,1-.5-.6,1.4,1.4,0,0,1,.9-1.1,2.4,2.4,0,0,1,2.3.6,1.1,1.1,0,0,1,.4,1.4C53.3,32.6,53,32.7,52.8,32.7Z" style="fill:#b4668a"/><path d="M49.6,22.8a.7.7,0,0,1-.6-.4,1.2,1.2,0,0,1,.4-1.3,2.8,2.8,0,0,1,2.5-.6,1.4,1.4,0,0,1,.9,1.2.6.6,0,0,1-.5.6c-.4,0-.7-.2-.7-.5s0-.1-.1-.2a1.5,1.5,0,0,0-1.3.3h-.1c.1.3,0,.7-.4.7A.1.1,0,0,1,49.6,22.8Z" style="fill:#b4668a"/><path d="M45.2,14.6c-.2,0-.4,0-.5-.2a1.2,1.2,0,0,1-.2-1.3,2.9,2.9,0,0,1,2.1-1.5,1.5,1.5,0,0,1,1.3.7.8.8,0,0,1-.2.8.7.7,0,0,1-.8-.2h-.2a1.6,1.6,0,0,0-1.1.7v.2a.5.5,0,0,1-.1.8Z" style="fill:#b4668a"/><path d="M15.8,40.6a4.4,4.4,0,0,0,4.3-4.4,4.4,4.4,0,0,0-8.7,0A4.4,4.4,0,0,0,15.8,40.6Z" style="fill:#fff;fill-rule:evenodd"/><path d="M16.4,13.3a2.4,2.4,0,0,1,2.2,1.5,1.6,1.6,0,0,0-1.1-.5,1.3,1.3,0,0,0-1.3,1.4A1.3,1.3,0,0,0,17.5,17a2.1,2.1,0,0,0,1.1-.4,2.6,2.6,0,0,1-2.2,1.5,2.4,2.4,0,1,1,0-4.8Z" style="fill:#fff;fill-rule:evenodd"/><path d="M12.9,20.9a3.5,3.5,0,0,1,2.7,1.4,2.3,2.3,0,0,0-1.3,2.1,2.4,2.4,0,0,0,1.3,2.2,3.4,3.4,0,0,1-2.7,1.3,3.5,3.5,0,1,1,0-7Z" style="fill:#fff;fill-rule:evenodd"/><path d="M35.8,42.1a2.6,2.6,0,0,0-2.2,1.5,1.4,1.4,0,0,1,1.1-.4A1.3,1.3,0,0,1,36,44.5a1.3,1.3,0,0,1-1.3,1.4,1.4,1.4,0,0,1-1.1-.5,2.4,2.4,0,0,0,2.2,1.5,2.4,2.4,0,1,0,0-4.8Z" style="fill:#fff;fill-rule:evenodd"/><path d="M25.2,40.4a3.2,3.2,0,0,0-2.7,1.4,2.3,2.3,0,0,1,0,4.2,3.5,3.5,0,0,0,2.7,1.4,3.5,3.5,0,0,0,0-7Z" style="fill:#fff;fill-rule:evenodd"/></g></g></g></svg>