<svg xmlns="http://www.w3.org/2000/svg" width="41.08" height="41" viewBox="0 0 41.08 41">
  <g id="Layer_2" data-name="Layer 2">
    <g id="Layer_5" data-name="Layer 5">
      <g id="owl_food_3" data-name="owl_food 3">
        <g id="path7433">
          <path d="M38.29,40.28a2,2,0,0,1-1.49-.63L1.93,3.81a1.38,1.38,0,0,1,0-1.92,1.41,1.41,0,0,1,1-.44,1.37,1.37,0,0,1,.94.38L39.74,36.71a2.08,2.08,0,0,1,.63,1.47,2.08,2.08,0,0,1-2.08,2.1Z" fill="#d8a960"/>
          <path d="M3,2.17a.66.66,0,0,1,.45.18L39.24,37.22a1.36,1.36,0,0,1,0,1.94,1.34,1.34,0,0,1-1,.4,1.38,1.38,0,0,1-1-.41L2.44,3.31a.65.65,0,0,1,0-.91l0,0A.63.63,0,0,1,3,2.17M3,.73a2.06,2.06,0,0,0-1.47.61l0,0a2.08,2.08,0,0,0,0,2.92L36.28,40.15a2.76,2.76,0,0,0,2,.85,2.79,2.79,0,0,0,2-.82,2.81,2.81,0,0,0,0-4L4.4,1.32A2.09,2.09,0,0,0,3,.73Z" fill="#924f28"/>
        </g>
        <g>
          <g id="path7445">
            <path d="M7.69,15A1.29,1.29,0,0,1,7,14.82,32.16,32.16,0,0,1,.93,9.5c-.67-.94.45-2,1-2.53A9.81,9.81,0,0,0,3.4,4.89,8.73,8.73,0,0,1,6.84,1.14,4.39,4.39,0,0,1,8.68.72a2.26,2.26,0,0,1,1,.19c2,.92,5.51,4.28,5.77,6.22a2.06,2.06,0,0,1-.72,1.54c-.64.61-1.29,1.17-1.93,1.72a23.06,23.06,0,0,0-4,4.1A1.31,1.31,0,0,1,7.69,15Z" fill="#c05637"/>
            <path d="M8.68,1.43a1.67,1.67,0,0,1,.67.12c1.91.9,5.16,4.13,5.37,5.68,0,.29-.28.71-.5.92-2,1.93-4.2,3.36-6.05,5.92a.59.59,0,0,1-.48.25.59.59,0,0,1-.31-.09A31.68,31.68,0,0,1,1.51,9.08c-.29-.42.45-1.16.91-1.6C4,5.94,4.66,3,7.16,1.78a3.74,3.74,0,0,1,1.52-.35M8.68,0h0A5.15,5.15,0,0,0,6.51.5a9.41,9.41,0,0,0-3.73,4A9.59,9.59,0,0,1,1.43,6.45C.85,7-.68,8.47.34,9.91a32.88,32.88,0,0,0,6.24,5.51,2,2,0,0,0,1.11.33,2,2,0,0,0,1.64-.84,22.42,22.42,0,0,1,3.92-4c.64-.55,1.31-1.12,2-1.74A2.72,2.72,0,0,0,16.14,7c-.3-2.25-4-5.77-6.18-6.78A3,3,0,0,0,8.68,0Z" fill="#823b33"/>
          </g>
          <path id="path4058" d="M8.31,6.72A16.06,16.06,0,0,0,9.6,9.89,16.06,16.06,0,0,0,9.13,6.5L8.77,5.19A8.24,8.24,0,0,0,7.74,3,8.17,8.17,0,0,0,8,5.41Z" fill="#ac3d24"/>
          <path id="path4060" d="M9.42,6.52a9.21,9.21,0,0,0,2.33-1.09,9.17,9.17,0,0,0-2.56.27l-1.57.44a12.5,12.5,0,0,0-2.78,1.2,12.67,12.67,0,0,0,3-.39Z" fill="#ac3d24"/>
          <path id="path4075" d="M9,9A9.36,9.36,0,0,0,11.3,7.91a9.39,9.39,0,0,0-2.56.26l-1.57.44A12.81,12.81,0,0,0,4.39,9.82a12.67,12.67,0,0,0,3-.39Z" fill="#ac3d24"/>
          <path id="path4097" d="M6.45,8.61a16.06,16.06,0,0,0,1.29,3.17,16.06,16.06,0,0,0-.47-3.39L6.92,7.08a8.43,8.43,0,0,0-1-2.22A8.35,8.35,0,0,0,6.1,7.3Z" fill="#ac3d24"/>
        </g>
        <g>
          <g id="path7443">
            <path d="M14.81,22.2a2,2,0,0,1-1-.26,12.72,12.72,0,0,1-5-5A2.31,2.31,0,0,1,9.3,14.2a24.54,24.54,0,0,0,2.5-2.75,14.62,14.62,0,0,1,2.4-2.51A3,3,0,0,1,16,8.34a2.12,2.12,0,0,1,1.15.31A19.6,19.6,0,0,1,21,12.77l.79,1a1.54,1.54,0,0,1,.34,1.34,1.67,1.67,0,0,1-1,1.1c-2.13.95-3.46,3.12-4.63,5A2,2,0,0,1,14.81,22.2Z" fill="#ae4239"/>
            <path d="M16,9.06a1.45,1.45,0,0,1,.76.19c1.45.95,3,3.08,4.47,5a.81.81,0,0,1-.39,1.34c-2.26,1-3.62,3.15-5,5.33a1.27,1.27,0,0,1-1.09.6,1.22,1.22,0,0,1-.62-.16,12.06,12.06,0,0,1-4.71-4.7,1.6,1.6,0,0,1,.31-1.89c2.51-2.37,2.9-3.67,4.85-5.23A2.4,2.4,0,0,1,16,9.06m0-1.43a3.76,3.76,0,0,0-2.26.75A15.52,15.52,0,0,0,11.24,11a23.66,23.66,0,0,1-2.43,2.68,3,3,0,0,0-.56,3.68,13.5,13.5,0,0,0,5.21,5.19,2.66,2.66,0,0,0,1.35.37,2.74,2.74,0,0,0,2.31-1.29c1.35-2.22,2.53-4,4.32-4.77a2.34,2.34,0,0,0,1.4-1.58,2.27,2.27,0,0,0-.48-2l-.78-1a20.08,20.08,0,0,0-4-4.27A2.8,2.8,0,0,0,16,7.63Z" fill="#82322e"/>
          </g>
          <path id="path4168" d="M15.2,14.74a16.06,16.06,0,0,0,1.29,3.17A16.06,16.06,0,0,0,16,14.52l-.35-1.31a8.43,8.43,0,0,0-1-2.22,8.35,8.35,0,0,0,.21,2.44Z" fill="#942a25"/>
          <path id="path4170" d="M14.86,15.29a9.2,9.2,0,0,0,2.32-1.08,9.33,9.33,0,0,0-2.55.26l-1.57.44a12.55,12.55,0,0,0-2.78,1.21,12.87,12.87,0,0,0,3-.4Z" fill="#942a25"/>
          <path id="path4172" d="M15.87,17a8.82,8.82,0,0,0,2.32-1.08,9.11,9.11,0,0,0-2.55.27l-1.57.43a12.55,12.55,0,0,0-2.78,1.21,12.67,12.67,0,0,0,3-.39Z" fill="#942a25"/>
          <path id="path4174" d="M13.76,17.76a16.06,16.06,0,0,0,1.29,3.17,16.06,16.06,0,0,0-.47-3.39l-.35-1.31a8.24,8.24,0,0,0-1-2.22,8.36,8.36,0,0,0,.21,2.44Z" fill="#942a25"/>
        </g>
        <g>
          <g id="path7441">
            <path d="M22.21,29.76a1.89,1.89,0,0,1-.67-.11c-.39-.14-.79-.26-1.19-.38-2.29-.71-5.13-1.58-4.9-5.43a4.31,4.31,0,0,1,.86-2A20.63,20.63,0,0,0,17.46,20c1-1.68,2.09-3.59,4.46-4.3a2.48,2.48,0,0,1,.75-.1,3.51,3.51,0,0,1,1.56.35A9.7,9.7,0,0,1,28,19.74a11.62,11.62,0,0,0,1.24,1.7,1.53,1.53,0,0,1,.45,1.2,1.48,1.48,0,0,1-.63,1A24.54,24.54,0,0,0,23.82,29,2,2,0,0,1,22.21,29.76Z" fill="#bf703a"/>
            <path d="M22.67,16.31a2.74,2.74,0,0,1,1.22.27c2.81,1.49,3.31,3.74,4.83,5.35a.72.72,0,0,1-.08,1.16,25.38,25.38,0,0,0-5.41,5.5,1.31,1.31,0,0,1-1.45.38c-2.61-.93-5.85-1.21-5.62-5.09a3.81,3.81,0,0,1,.72-1.65c1.59-2.1,2.35-5,5.25-5.85a1.77,1.77,0,0,1,.54-.07m0-1.43a3.23,3.23,0,0,0-1,.13c-2.63.8-3.82,2.83-4.87,4.63a19.86,19.86,0,0,1-1.1,1.73,5.09,5.09,0,0,0-1,2.42c-.26,4.42,3.15,5.47,5.41,6.16.39.12.79.24,1.16.38a2.8,2.8,0,0,0,.91.15,2.73,2.73,0,0,0,2.15-1,23.74,23.74,0,0,1,5.12-5.22,2.19,2.19,0,0,0,.92-1.55A2.23,2.23,0,0,0,29.77,21a10.66,10.66,0,0,1-1.17-1.6,10.39,10.39,0,0,0-4-4,4.24,4.24,0,0,0-1.89-.43Z" fill="#8e4413"/>
          </g>
          <path id="path4176" d="M22.7,22.61A16.3,16.3,0,0,0,24,25.79a16.12,16.12,0,0,0-.47-3.4l-.35-1.31a8.28,8.28,0,0,0-1-2.21,8.29,8.29,0,0,0,.21,2.43Z" fill="#9b592c"/>
          <path id="path4178" d="M23.33,21.48a9,9,0,0,0,2.32-1.09,9.11,9.11,0,0,0-2.55.27l-1.57.43a12.55,12.55,0,0,0-2.78,1.21,12.67,12.67,0,0,0,3-.39Z" fill="#9b592c"/>
          <path id="path4180" d="M22.43,23.87a8.82,8.82,0,0,0,2.32-1.08,9.11,9.11,0,0,0-2.55.27l-1.57.43a12.55,12.55,0,0,0-2.78,1.21,12.67,12.67,0,0,0,3-.39Z" fill="#9b592c"/>
          <path id="path4182" d="M20.84,24.5a16,16,0,0,0,1.29,3.18,16.19,16.19,0,0,0-.47-3.4L21.31,23a8.28,8.28,0,0,0-1-2.21,8.29,8.29,0,0,0,.21,2.43Z" fill="#9b592c"/>
        </g>
        <g>
          <g id="path7439">
            <path d="M30.17,37.1a2.38,2.38,0,0,1-1.27-.37A13.89,13.89,0,0,0,27,35.8C25.12,35,22.82,34,22.85,31.31a3.41,3.41,0,0,1,1-2.16L25.12,28a42.65,42.65,0,0,0,4.15-4.16,2.78,2.78,0,0,1,2-.93,1.73,1.73,0,0,1,.32,0c2.57.47,4.65,2.6,5.69,5.84a2.62,2.62,0,0,1-.57,2.36c-.46.51-.9,1-1.33,1.55a22.87,22.87,0,0,1-4.06,4A1.87,1.87,0,0,1,30.17,37.1Z" fill="#ce643a"/>
            <path d="M31.23,23.65h.19c1.9.35,4,1.84,5.13,5.36a1.85,1.85,0,0,1-.41,1.65c-1.69,1.87-3,3.86-5.28,5.51a1.17,1.17,0,0,1-.69.2,1.65,1.65,0,0,1-.89-.26c-2.18-1.38-5.75-1.69-5.72-4.8a2.8,2.8,0,0,1,.82-1.65h0a58.82,58.82,0,0,0,5.43-5.34,2.11,2.11,0,0,1,1.42-.68m0-1.43h0a3.54,3.54,0,0,0-2.51,1.17,41.47,41.47,0,0,1-4.08,4.1L23.4,28.63a4.1,4.1,0,0,0-1.27,2.68c0,3.21,2.62,4.33,4.56,5.15a13.63,13.63,0,0,1,1.83.88,3.08,3.08,0,0,0,1.65.48,2.61,2.61,0,0,0,1.54-.48,24.24,24.24,0,0,0,4.18-4.17c.44-.53.86-1,1.32-1.53a3.35,3.35,0,0,0,.71-3.06c-1.12-3.5-3.4-5.81-6.25-6.33a3.15,3.15,0,0,0-.44,0Z" fill="#ac3d24"/>
          </g>
          <path id="path4184" d="M31.06,29.33a17.73,17.73,0,0,0,1.42,3.51A17.5,17.5,0,0,0,32,29.09l-.39-1.45a9,9,0,0,0-1.14-2.45,9,9,0,0,0,.24,2.69Z" fill="#ac3d24"/>
          <path id="path4186" d="M32.29,29.11a9.91,9.91,0,0,0,2.57-1.2,9.94,9.94,0,0,0-2.82.3l-1.74.48A13.94,13.94,0,0,0,27.23,30a14,14,0,0,0,3.32-.43Z" fill="#ac3d24"/>
          <path id="path4188" d="M31.79,31.84a10.06,10.06,0,0,0,2.57-1.19,10.15,10.15,0,0,0-2.82.29l-1.74.48a14,14,0,0,0-3.07,1.34,13.71,13.71,0,0,0,3.32-.44Z" fill="#ac3d24"/>
          <path id="path4190" d="M29,31.42a17.42,17.42,0,0,0,1.42,3.51,17.5,17.5,0,0,0-.52-3.75l-.39-1.45a9.18,9.18,0,0,0-1.14-2.45A9,9,0,0,0,28.62,30Z" fill="#ac3d24"/>
        </g>
      </g>
    </g>
  </g>
</svg>
