<svg xmlns="http://www.w3.org/2000/svg" width="41.01" height="38.55" viewBox="0 0 41.01 38.55">
  <g id="Layer_2" data-name="Layer 2">
    <g id="Layer_5" data-name="Layer 5">
      <g id="owl_food_2" data-name="owl_food 2">
        <g>
          <path d="M26.57,37.84l-.21,0a2.28,2.28,0,0,1-.83-.38l-.18-.11A7.31,7.31,0,0,0,24,36.71h-.16a1.83,1.83,0,0,1-.44,0,1.15,1.15,0,0,1-.79-.51,1.18,1.18,0,0,1-.53-.67,1,1,0,0,1,0-.7v0c-1.32-.63-2.71-1.3-4-1.93l-2.73-1.35-1-.5L14,30.72l-.17-.1a13.79,13.79,0,0,1-2.36-1.05,1,1,0,0,1-.43.48.93.93,0,0,1-.46.12.87.87,0,0,1-.61-.24,1.1,1.1,0,0,1-.27,0A1,1,0,0,1,9,29.22a2,2,0,0,1,.49-1.56,1.45,1.45,0,0,1,1.13-.54,1.32,1.32,0,0,1,.34,0c-.37-.59-.83-1.31-1.48-2.19C3.9,23.65.63,17.14,1.07,11.87a1.2,1.2,0,0,1-.16-.27,2.4,2.4,0,0,1-.19-1A1.66,1.66,0,0,1,1.79,8.94a1.32,1.32,0,0,1,.39-.06A1.48,1.48,0,0,1,3.54,10a2.46,2.46,0,0,1,0,1.42.51.51,0,0,0,.2,0c.78,0,1.93-1.21,2.7-2a11.61,11.61,0,0,1,1-.94,5.73,5.73,0,0,1,3.33-1.2,7.68,7.68,0,0,1,2.49-2.65A7,7,0,0,1,17,3.41,5.56,5.56,0,0,1,19.53,4,7,7,0,0,1,23,9.64s0,.11,0,.16c.22,0,.43,0,.65,0a6.94,6.94,0,0,1,3.61,1,7.45,7.45,0,0,1,2.2,2c-1.25-3.23-2-7.67,1.05-11.14a1,1,0,0,1,.8-.37,1.22,1.22,0,0,1,1,.62,1.16,1.16,0,0,1,0,1.14c-1.4,2.39-1.27,5.57.34,8.5A24,24,0,0,0,35,14.83a23.11,23.11,0,0,1,2.68,4c2.54,5.08,1.22,11.39-3,14.38l-.23.14a6.28,6.28,0,0,1-.94,1.78,4.6,4.6,0,0,1-2,1.56,7.29,7.29,0,0,1-2.67.52,7.66,7.66,0,0,1-1.26-.11.8.8,0,0,1-.11.25A1.07,1.07,0,0,1,26.57,37.84Zm3.66-15.45a11.76,11.76,0,0,1,3.55,4.08,7.14,7.14,0,0,0,.63-3c0-2.22-1.21-4-2.46-5.94-.21-.34-.43-.68-.65-1s-.28-.45-.45-.75a10.11,10.11,0,0,1,.36,2.34,9.19,9.19,0,0,1-.17,2l0,.14A8,8,0,0,1,30.23,22.39Z" fill="#f2b579"/>
          <path d="M31.3,2a.47.47,0,0,1,.42.68c-1.62,2.78-1.26,6.31.33,9.21,1.43,2.59,3.66,4.56,5,7.23,2.35,4.69,1.18,10.68-2.77,13.47a1.72,1.72,0,0,1-.4.21,6.18,6.18,0,0,1-.93,1.87A3.92,3.92,0,0,1,31.27,36h0a6.26,6.26,0,0,1-2.38.46,6.69,6.69,0,0,1-2.19-.38s0,0,0,.06a1.32,1.32,0,0,1,.16.25c.18.34,0,.74-.29.74h-.08a2.8,2.8,0,0,1-.79-.4A7.26,7.26,0,0,0,24.23,36c-.22-.07-.44,0-.65-.07s-.39-.18-.39-.36c-.36,0-.54-.45-.32-.62a.27.27,0,0,1,.05-.27.24.24,0,0,1,.18-.07,1.59,1.59,0,0,1,.66.25h0a2.39,2.39,0,0,1,.36,0c-1.75-.83-3.84-1.83-5.69-2.74h0l-.24-.12-.31-.15-.49-.24-.22-.11-.65-.32-.18-.09-.46-.23-.17-.09-.38-.2-.19-.09-.33-.17-.14-.08-.39-.21L14.1,30a14.06,14.06,0,0,1-2.8-1.3c-.14,0-.27.06-.35.19s-.11.48-.29.58a.23.23,0,0,1-.11,0c-.09,0-.17-.08-.22-.19s-.05-.11-.08-.11l-.11,0-.18,0-.08,0c-.48-.14,0-.88.15-1.08a.74.74,0,0,1,.58-.28,1,1,0,0,1,.43.1l.23.12a2.69,2.69,0,0,0,.74.1l.36,0a39,39,0,0,0-2.48-3.81c-5.15-1-8.67-7.28-8.08-12.66,0,0,0,0,0,0a.81.81,0,0,1-.25-.32,1.76,1.76,0,0,1-.14-.68,1,1,0,0,1,.57-1l.18,0a.76.76,0,0,1,.67.59,1.72,1.72,0,0,1-.2,1.37s0,0,0,0a1.4,1.4,0,0,0,1.1.56c1.49,0,3.22-2.4,4.11-3.11a5,5,0,0,1,3.23-1h.09a7.16,7.16,0,0,1,2.45-2.77A6.25,6.25,0,0,1,17,4.13a4.73,4.73,0,0,1,2.21.53,6.27,6.27,0,0,1,3.06,5,7,7,0,0,1,0,.92,7.85,7.85,0,0,1,1.37-.13,6.31,6.31,0,0,1,3.25.88,8.12,8.12,0,0,1,3.6,6.71A8.43,8.43,0,0,1,30.34,20l0,.12a6.89,6.89,0,0,1-1,2.53,11.08,11.08,0,0,1,4.32,5.14c0,.1.07.2.1.3a7.48,7.48,0,0,0,1.44-4.62c0-2.85-1.78-5-3.21-7.33-2.66-4.23-4.35-10-.87-14A.33.33,0,0,1,31.3,2m0-1.44A1.83,1.83,0,0,0,30,1.16a10.24,10.24,0,0,0-2,9.17l-.32-.2a7.71,7.71,0,0,0-4-1.07h0a7.62,7.62,0,0,0-3.77-5.68A6.29,6.29,0,0,0,17,2.69,7.69,7.69,0,0,0,12.79,4a8.57,8.57,0,0,0-2.52,2.57A6.18,6.18,0,0,0,6.93,7.91a9.55,9.55,0,0,0-1,1,16.31,16.31,0,0,1-1.55,1.46,3.19,3.19,0,0,0-.12-.63,2.18,2.18,0,0,0-2-1.59,2,2,0,0,0-.59.09A2.37,2.37,0,0,0,0,10.63a3.33,3.33,0,0,0,.25,1.26l.09.16c-.34,5.44,3,12,8.7,13.55q.39.54.69,1a2.14,2.14,0,0,0-.8.61,2.6,2.6,0,0,0-.62,2.23,1.7,1.7,0,0,0,1.16,1.15l.2,0a1.52,1.52,0,0,0,.88.27,1.66,1.66,0,0,0,.81-.21,2,2,0,0,0,.28-.2,13,13,0,0,0,1.87.8l.12.06.41.23.13.06.35.19.19.1.4.2.05,0,.12.05.46.24.06,0,.12.06.65.32.12.06.1.05.49.24.16.08.16.08.13.06.11.06h0c1.11.55,2.31,1.12,3.47,1.68a1.79,1.79,0,0,0,.07.51,1.88,1.88,0,0,0,.71,1,1.91,1.91,0,0,0,1.14.69,2.91,2.91,0,0,0,.59.06h0A7.25,7.25,0,0,1,25,38l.14.09a2.86,2.86,0,0,0,1.09.47l.33,0A1.78,1.78,0,0,0,28,37.84a8.38,8.38,0,0,0,.86,0,7.81,7.81,0,0,0,2.91-.56,5.25,5.25,0,0,0,2.31-1.79,7,7,0,0,0,1-1.74l.05,0c4.51-3.19,5.93-9.91,3.24-15.29a24.14,24.14,0,0,0-2.77-4.08,23,23,0,0,1-2.25-3.21A8,8,0,0,1,33,3.39a1.85,1.85,0,0,0,0-1.86,1.94,1.94,0,0,0-1.66-1Zm-.17,21.63a8.61,8.61,0,0,0,.59-1.82l0-.14a10.51,10.51,0,0,0,.17-1.47,9.05,9.05,0,0,1,1.77,4.69,7.2,7.2,0,0,1-.11,1.32,12.46,12.46,0,0,0-2.45-2.58Z" fill="#b25b2f"/>
        </g>
        <g>
          <path d="M27.89,37.28l-.21,0a2.15,2.15,0,0,1-.82-.37l-.18-.11a7,7,0,0,0-1.34-.62h-.16a1.83,1.83,0,0,1-.44,0,1.16,1.16,0,0,1-.79-.52,1.13,1.13,0,0,1-.53-.66,1,1,0,0,1,0-.7v0c-1.32-.63-2.71-1.3-4-1.93l-2-1-1.78-.91-.4-.22-.16-.09A13.58,13.58,0,0,1,12.76,29a1,1,0,0,1-.44.49.87.87,0,0,1-.45.12.92.92,0,0,1-.61-.24l-.27,0a1,1,0,0,1-.68-.67,2,2,0,0,1,.49-1.57,1.47,1.47,0,0,1,1.13-.53,2,2,0,0,1,.34,0c-.37-.58-.83-1.3-1.48-2.19C5.22,23.09,2,16.59,2.39,11.32A1.12,1.12,0,0,1,2.23,11a2.38,2.38,0,0,1-.19-1,1.67,1.67,0,0,1,1.07-1.7,1.32,1.32,0,0,1,.39-.06A1.48,1.48,0,0,1,4.86,9.41a2.49,2.49,0,0,1,0,1.43l.2,0c.78,0,1.93-1.21,2.7-2a9.11,9.11,0,0,1,1-.94A5.6,5.6,0,0,1,12,6.72a7.8,7.8,0,0,1,2.49-2.66,7,7,0,0,1,3.8-1.2,5.41,5.41,0,0,1,2.54.61A7,7,0,0,1,24.3,9.09a.92.92,0,0,0,0,.16c.22,0,.43,0,.65,0a7,7,0,0,1,3.61,1,7.48,7.48,0,0,1,2.2,2c-1.25-3.23-2-7.67,1.05-11.15a1.09,1.09,0,0,1,.8-.36,1.23,1.23,0,0,1,1,.61,1.11,1.11,0,0,1,0,1.14c-1.4,2.4-1.27,5.58.34,8.51a25.62,25.62,0,0,0,2.32,3.3,23,23,0,0,1,2.68,4c2.54,5.08,1.22,11.4-3,14.39l-.23.14a6.28,6.28,0,0,1-.94,1.78,4.57,4.57,0,0,1-2,1.55,7.09,7.09,0,0,1-2.67.52,7.66,7.66,0,0,1-1.26-.11.85.85,0,0,1-.11.26A1.06,1.06,0,0,1,27.89,37.28Zm3.66-15.44a11.77,11.77,0,0,1,3.55,4.08,7.17,7.17,0,0,0,.63-3c0-2.23-1.21-4-2.46-5.95-.22-.34-.44-.67-.65-1l-.45-.75a10,10,0,0,1,.36,2.33,9.33,9.33,0,0,1-.17,2l0,.14A7.81,7.81,0,0,1,31.55,21.84Z" fill="#f4b876"/>
          <path d="M32.62,1.43a.47.47,0,0,1,.42.68c-1.62,2.79-1.26,6.31.33,9.21,1.43,2.59,3.66,4.57,5,7.23,2.35,4.7,1.18,10.69-2.77,13.48a1.72,1.72,0,0,1-.4.21,6.18,6.18,0,0,1-.93,1.87,3.92,3.92,0,0,1-1.67,1.32h0a6.45,6.45,0,0,1-2.38.45A6.67,6.67,0,0,1,28,35.52s0,0,0,.06a1.67,1.67,0,0,1,.16.24c.18.34,0,.75-.29.75H27.8a2.92,2.92,0,0,1-.78-.41,7.85,7.85,0,0,0-1.47-.68c-.22-.06-.44,0-.65-.06s-.39-.18-.39-.37c-.36,0-.54-.44-.32-.61a.3.3,0,0,1,0-.28.28.28,0,0,1,.18-.06,1.71,1.71,0,0,1,.66.24h0a2.39,2.39,0,0,1,.36.05l-5.69-2.74h0l-.24-.12-.31-.16-.49-.24L18.53,31l-.65-.32-.18-.09-.46-.23-.17-.08-.38-.2L16.5,30l-.33-.17L16,29.75l-.39-.21-.22-.14a13.56,13.56,0,0,1-2.8-1.29.48.48,0,0,0-.35.19c-.11.17-.11.47-.29.57a.23.23,0,0,1-.11,0,.28.28,0,0,1-.22-.18c0-.08-.05-.11-.08-.11l-.11,0a.57.57,0,0,1-.18,0H11.2c-.48-.14,0-.88.15-1.09a.74.74,0,0,1,.58-.28,1,1,0,0,1,.43.11,1.76,1.76,0,0,1,.23.12,2.68,2.68,0,0,0,.74.09h.36a37.61,37.61,0,0,0-2.48-3.82C6.06,22.72,2.54,16.5,3.13,11.12c0,0,0,0,0,0a.89.89,0,0,1-.25-.32,1.76,1.76,0,0,1-.14-.68,1,1,0,0,1,.57-1L3.5,9a.76.76,0,0,1,.67.59A1.69,1.69,0,0,1,4,11l0,0a1.43,1.43,0,0,0,1.1.56c1.49,0,3.22-2.4,4.11-3.11a5,5,0,0,1,3.23-1.05h.09a7,7,0,0,1,2.45-2.77,6.18,6.18,0,0,1,3.4-1.09,4.86,4.86,0,0,1,2.21.53,6.28,6.28,0,0,1,3.06,5,7.22,7.22,0,0,1,0,.93A7,7,0,0,1,25,9.94a6.3,6.3,0,0,1,3.25.87,8.13,8.13,0,0,1,3.6,6.71,8.52,8.52,0,0,1-.15,1.88l0,.12a6.89,6.89,0,0,1-1.05,2.53,11,11,0,0,1,4.32,5.14c0,.09.07.2.1.29a7.47,7.47,0,0,0,1.44-4.61c0-2.85-1.78-5.05-3.21-7.33-2.66-4.24-4.35-10-.87-14a.35.35,0,0,1,.26-.13m0-1.43a1.79,1.79,0,0,0-1.34.61c-2.1,2.39-2.77,5.6-2,9.17l-.32-.2A7.62,7.62,0,0,0,25,8.5h0a7.62,7.62,0,0,0-3.77-5.67,6.17,6.17,0,0,0-2.87-.69,7.76,7.76,0,0,0-4.2,1.32A8.81,8.81,0,0,0,11.59,6,6.19,6.19,0,0,0,8.25,7.36a10.38,10.38,0,0,0-1,1A15.1,15.1,0,0,1,5.66,9.83a3.06,3.06,0,0,0-.12-.63,2.18,2.18,0,0,0-2-1.59,2,2,0,0,0-.59.09,2.35,2.35,0,0,0-1.59,2.37,3.29,3.29,0,0,0,.25,1.26l.09.17c-.34,5.44,3,12,8.7,13.55.26.35.49.68.69,1a2.19,2.19,0,0,0-.8.62,2.59,2.59,0,0,0-.62,2.23A1.7,1.7,0,0,0,10.79,30l.2.05a1.6,1.6,0,0,0,.88.27,1.78,1.78,0,0,0,.81-.21,2,2,0,0,0,.28-.2,14.21,14.21,0,0,0,1.87.8l.12.06.41.22.13.07.35.19.19.09.4.2.17.09.46.23.18.1.65.32.12.06.1,0,.49.24.16.08.16.07.08,0,.17.09h0l3.47,1.68a1.79,1.79,0,0,0,.07.51,1.92,1.92,0,0,0,.71,1,2,2,0,0,0,1.14.68,3.06,3.06,0,0,0,.59.07h0a7.18,7.18,0,0,1,1.13.53l.14.09a2.71,2.71,0,0,0,1.09.48,1.84,1.84,0,0,0,.33,0,1.79,1.79,0,0,0,1.43-.72,8.43,8.43,0,0,0,.86,0,7.81,7.81,0,0,0,2.91-.56A5.35,5.35,0,0,0,35.4,35a7.07,7.07,0,0,0,1-1.73l.06,0c4.5-3.18,5.92-9.9,3.23-15.29a24.54,24.54,0,0,0-2.77-4.08,23.55,23.55,0,0,1-2.25-3.2,8,8,0,0,1-.35-7.8,1.85,1.85,0,0,0,0-1.86,1.93,1.93,0,0,0-1.66-1Zm-.17,21.62A8.52,8.52,0,0,0,33,19.81l0-.15a10.2,10.2,0,0,0,.17-1.46A9,9,0,0,1,35,22.88a7.24,7.24,0,0,1-.11,1.33,12.26,12.26,0,0,0-2.45-2.59Z" fill="#e28049"/>
        </g>
        <g>
          <path d="M34.72,32.57A2,2,0,0,1,33,31.14a2.26,2.26,0,0,1,.64-2.56,7,7,0,0,0,2.57-5.71c0-2.36-1.29-4.31-2.53-6.2l-.64-1c-1.31-2.08-5.25-9.27-.85-14.26a.6.6,0,0,1,.44-.21.73.73,0,0,1,.62.38.61.61,0,0,1,0,.66c-1.48,2.55-1.35,5.9.34,9a25.63,25.63,0,0,0,2.36,3.36,23.44,23.44,0,0,1,2.64,3.88c2.43,4.87,1.18,10.92-2.85,13.78a1.82,1.82,0,0,1-1,.34Z" fill="#f4b876"/>
          <path d="M32.62,1.43a.47.47,0,0,1,.42.68c-1.62,2.79-1.26,6.31.33,9.21,1.43,2.59,3.66,4.57,5,7.23,2.35,4.7,1.18,10.69-2.77,13.48a1.5,1.5,0,0,1-.87.3c-1.41,0-2.35-2.43-.94-3.56a7.32,7.32,0,0,0,2.66-5.9c0-2.85-1.78-5.05-3.21-7.33-2.66-4.24-4.35-10-.87-14a.35.35,0,0,1,.26-.13m0-.47a.82.82,0,0,0-.62.28c-4.51,5.11-.51,12.43.82,14.55l.66,1c1.26,1.95,2.46,3.78,2.49,6.07a6.82,6.82,0,0,1-2.49,5.52,2.49,2.49,0,0,0-.71,2.83,2.18,2.18,0,0,0,1.95,1.59,1.94,1.94,0,0,0,1.14-.39c4.13-2.92,5.42-9.1,2.93-14.08a23,23,0,0,0-2.66-3.91,25,25,0,0,1-2.34-3.34c-1.65-3-1.78-6.27-.34-8.74a.9.9,0,0,0,0-.9A1,1,0,0,0,32.62,1Z" fill="#c1683d"/>
        </g>
        <g>
          <g>
            <path d="M30.18,36.14a7,7,0,0,1-3-.69c-1.95-.93-4.95-2.36-7.49-3.6L17,30.51,15.92,30l-.4-.21a4.94,4.94,0,0,1-1.24-.93,8.36,8.36,0,0,1-1-1.51,37.11,37.11,0,0,0-3.12-4.56.94.94,0,0,1-.19-.84c.19-.75,1.24-1.3,1.86-1.56a6.79,6.79,0,0,1,1.48-.45,4,4,0,0,1,.59,0h.2a5.42,5.42,0,0,1,.78.09,14.75,14.75,0,0,1,1.63.43,12.33,12.33,0,0,0,2,.48l.37,0h.32a19.08,19.08,0,0,0,2.41-.36A19.33,19.33,0,0,1,24,20.17l.88,0a10.27,10.27,0,0,1,3.91.72,11.4,11.4,0,0,1,6.31,6.24,7.34,7.34,0,0,1-.67,7.15,4.2,4.2,0,0,1-1.77,1.4,6.62,6.62,0,0,1-2.5.49Z" fill="#f4b876"/>
            <path d="M13.87,20.1h.25a5.4,5.4,0,0,1,.69.08l.08,0c1.19.23,2.38.76,3.58.89h.05l.35,0h.42c1.6-.12,3.14-.62,4.75-.72.29,0,.57,0,.86,0a10.1,10.1,0,0,1,3.82.7,11.22,11.22,0,0,1,6.18,6.11,7.13,7.13,0,0,1-.64,6.92,3.92,3.92,0,0,1-1.67,1.32h0a6.5,6.5,0,0,1-2.38.46,6.68,6.68,0,0,1-2.9-.67c-2-.92-4.94-2.35-7.49-3.59h0l-.24-.12-.31-.16-.49-.24L18.53,31l-.65-.32-.18-.09-.46-.23-.17-.08-.38-.2L16.5,30l-.33-.17L16,29.75l-.39-.21a4.43,4.43,0,0,1-1.19-.89c-.88-.94-1.2-2.31-4.13-6-.6-.76.45-1.55,1.57-2a6.25,6.25,0,0,1,1.43-.43,3.39,3.39,0,0,1,.55,0m0-.48a4.21,4.21,0,0,0-.62.05,6.34,6.34,0,0,0-1.55.46c-.65.28-1.78.87-2,1.72a1.19,1.19,0,0,0,.24,1,38.76,38.76,0,0,1,3.11,4.53,8.16,8.16,0,0,0,1,1.55,5,5,0,0,0,1.31,1l.4.22.12.06.35.19.19.09.39.2.17.09.46.23.18.09.65.32.11.06.1.05.5.24.15.08.16.08.08,0,.17.09h0c2.52,1.24,5.46,2.64,7.48,3.6a7.16,7.16,0,0,0,3.1.7,6.81,6.81,0,0,0,2.56-.49,4.43,4.43,0,0,0,1.9-1.48,7.54,7.54,0,0,0,.7-7.39,11.67,11.67,0,0,0-6.44-6.37,10.55,10.55,0,0,0-4-.74c-.3,0-.59,0-.89,0a18,18,0,0,0-2.46.37,18.55,18.55,0,0,1-2.3.35h-.68a12.09,12.09,0,0,1-2-.48A14,14,0,0,0,15,19.74l-.09,0c-.24,0-.48-.07-.74-.09h-.28Z" fill="#c1683d"/>
          </g>
          <g>
            <path d="M27.76,36.79a1.8,1.8,0,0,1-.64-.3l-.21-.13a8.07,8.07,0,0,0-1.43-.66,1.29,1.29,0,0,0-.29,0,1.42,1.42,0,0,1-.35,0,.66.66,0,0,1-.54-.4.7.7,0,0,1-.42-.45.5.5,0,0,1,.06-.43.51.51,0,0,1,.13-.38.48.48,0,0,1,.35-.13,1.62,1.62,0,0,1,.71.24h0a3.48,3.48,0,0,1,1.31.32,1.12,1.12,0,0,0,.42.07,3.09,3.09,0,0,0,.62-.09h.14a.57.57,0,0,1,.36.21.5.5,0,0,1,.07.38.59.59,0,0,0,.12.46,1.54,1.54,0,0,1,.19.28.81.81,0,0,1,0,.8.57.57,0,0,1-.51.29Z" fill="#f4b876"/>
            <path d="M24.42,34.09a1.71,1.71,0,0,1,.66.24h.08a3.31,3.31,0,0,1,1.22.3,1.31,1.31,0,0,0,.51.09,2.66,2.66,0,0,0,.68-.1h0a.25.25,0,0,1,.24.3.78.78,0,0,0,.17.66,1.67,1.67,0,0,1,.16.24c.18.34,0,.75-.29.75H27.8a2.92,2.92,0,0,1-.78-.41,7.85,7.85,0,0,0-1.47-.68c-.22-.06-.44,0-.65-.06s-.39-.18-.39-.37c-.36,0-.54-.44-.32-.61a.3.3,0,0,1,0-.28.28.28,0,0,1,.18-.06m0-.48a.7.7,0,0,0-.72.68.75.75,0,0,0-.05.57.93.93,0,0,0,.47.56.92.92,0,0,0,.67.45,1.43,1.43,0,0,0,.39,0,.72.72,0,0,1,.23,0,7.53,7.53,0,0,1,1.38.64l.2.12a1.83,1.83,0,0,0,.73.34h.17a.83.83,0,0,0,.71-.4,1,1,0,0,0,0-1,1.6,1.6,0,0,0-.21-.32.34.34,0,0,1-.07-.27.74.74,0,0,0-.12-.55.7.7,0,0,0-.51-.31H27.6l-.15,0a2.52,2.52,0,0,1-.56.08.88.88,0,0,1-.33-.06,4,4,0,0,0-1.37-.33,1.77,1.77,0,0,0-.77-.24Z" fill="#c1683d"/>
          </g>
          <g>
            <g>
              <path d="M16.22,29.78A10.35,10.35,0,0,1,12.3,28.2a.41.41,0,0,1-.2-.33.49.49,0,0,1,.05-.27.4.4,0,0,1,.39-.34l.11,0a2.6,2.6,0,0,0,.71.09c.26,0,.51,0,.77-.05a7.36,7.36,0,0,1,.81-.06,2.92,2.92,0,0,1,.51,0c.73.11,1.8.65,1.75,1.64a.86.86,0,0,1-1,.84Z" fill="#f4b876"/>
              <path d="M12.54,27.5h0a2.63,2.63,0,0,0,.78.11c.53,0,1.05-.11,1.58-.11a2.49,2.49,0,0,1,.47,0c.62.09,1.59.55,1.55,1.39,0,.45-.32.62-.74.62-1.17,0-3.37-1.3-3.79-1.55a.21.21,0,0,1,0-.3c0-.11.06-.2.16-.2m0-.48a.63.63,0,0,0-.61.5.67.67,0,0,0-.07.37.68.68,0,0,0,.32.52,10.59,10.59,0,0,0,4,1.61A1.08,1.08,0,0,0,17.43,29c.06-1.15-1.13-1.76-1.95-1.89a4.41,4.41,0,0,0-.54,0,7.54,7.54,0,0,0-.84.06,6.42,6.42,0,0,1-.74.05,2.12,2.12,0,0,1-.64-.08.57.57,0,0,0-.18,0Z" fill="#c1683d"/>
            </g>
            <g>
              <path d="M11.87,29.14a.48.48,0,0,1-.41-.26l-.18,0-.15,0a.53.53,0,0,1-.36-.35c-.14-.47.39-1.11.39-1.12a1,1,0,0,1,.77-.36,1.23,1.23,0,0,1,.52.12,1.64,1.64,0,0,1,.6.39.41.41,0,0,1,0,.6.83.83,0,0,1-.39.19c-.11,0-.16,0-.18.08a.61.61,0,0,0-.07.18.72.72,0,0,1-.31.47.43.43,0,0,1-.22.06Z" fill="#f4b876"/>
              <path d="M11.93,27.28a1,1,0,0,1,.43.11,1.56,1.56,0,0,1,.51.32.19.19,0,0,1,0,.28c-.18.17-.46.09-.61.31s-.11.47-.29.57a.23.23,0,0,1-.11,0,.28.28,0,0,1-.22-.18c0-.08-.05-.11-.08-.11l-.11,0a.57.57,0,0,1-.18,0H11.2c-.48-.14,0-.88.15-1.09a.74.74,0,0,1,.58-.28m0-.47a1.22,1.22,0,0,0-.95.45s-.62.75-.44,1.34a.76.76,0,0,0,.52.51l.22,0h.07a.72.72,0,0,0,.52.24.69.69,0,0,0,.34-.09,1,1,0,0,0,.42-.61s0-.06,0-.09h.06a1,1,0,0,0,.5-.25.66.66,0,0,0,0-.92,2.15,2.15,0,0,0-.68-.46,1.6,1.6,0,0,0-.63-.14Z" fill="#c1683d"/>
            </g>
          </g>
        </g>
        <g>
          <g>
            <path d="M18.24,15.42c-.21,0-.43,0-.64,0a6.4,6.4,0,0,1-5.72-4.5C11.1,8.08,13,5.67,14.77,4.46a6.5,6.5,0,0,1,3.54-1.13,5,5,0,0,1,2.32.56,6.5,6.5,0,0,1,3.19,5.23,7,7,0,0,1,0,1.52l0,.11a5.47,5.47,0,0,1-1.42,3,.47.47,0,0,1-.25.11h0c-.21,0-.41-.18-.71-.46a4.38,4.38,0,0,0-.34-.29,4.16,4.16,0,0,0,0,.63c0,.57,0,1-.31,1.15A6.08,6.08,0,0,1,18.24,15.42Z" fill="#f4b876"/>
            <path d="M18.31,3.57a4.86,4.86,0,0,1,2.21.53,6.28,6.28,0,0,1,3.06,5,6.59,6.59,0,0,1,0,1.47s0,.06,0,.09a5.28,5.28,0,0,1-1.36,2.92.11.11,0,0,1-.08,0c-.26,0-.84-.8-1.12-.8l-.07,0c-.26.18,0,1.7-.29,1.83a5.87,5.87,0,0,1-2.37.48c-.21,0-.41,0-.62,0a6.17,6.17,0,0,1-5.51-4.32c-.72-2.59.93-4.94,2.8-6.17a6.18,6.18,0,0,1,3.4-1.09m0-.47a6.76,6.76,0,0,0-3.67,1.16c-1.89,1.25-3.81,3.76-3,6.7a6.64,6.64,0,0,0,5.93,4.67l.66,0a6.37,6.37,0,0,0,2.56-.52c.43-.19.44-.73.44-1.36a.76.76,0,0,0,0-.15,1.31,1.31,0,0,0,.84.49.59.59,0,0,0,.42-.17A5.73,5.73,0,0,0,24,10.78l0-.11a7.5,7.5,0,0,0,0-1.57,6.72,6.72,0,0,0-3.32-5.42,5.21,5.21,0,0,0-2.43-.58Z" fill="#c1683d"/>
          </g>
          <g>
            <g>
              <g>
                <path d="M12.73,24.17A7.49,7.49,0,0,1,11.25,24C5.77,23,2.32,16.34,2.89,11.09a.63.63,0,0,1,.62-.57.68.68,0,0,1,.53.27,1.23,1.23,0,0,0,1,.57c1,0,2.17-1.25,3-2.17A12.22,12.22,0,0,1,9,8.29a5.25,5.25,0,0,1,3.38-1.11,10.36,10.36,0,0,1,3,.51.94.94,0,0,1,.22.12,3.59,3.59,0,0,1,.51.2.78.78,0,0,1,.7-.47.82.82,0,0,1,.26,0,1,1,0,0,1,.64.89v0h0a.84.84,0,0,1,.58.25,1.6,1.6,0,0,1,.4,1l0,.17a5.64,5.64,0,0,0,.51,1.42,9.76,9.76,0,0,1,1.09,4.62c-.09,4.62-3.43,8.23-7.6,8.23Z" fill="#f4b876"/>
                <path d="M12.37,7.42a10,10,0,0,1,2.94.5.48.48,0,0,1,.17.1,4.55,4.55,0,0,1,.76.32c.09-.31.27-.56.57-.56l.19,0a.75.75,0,0,1,.47.68,1.82,1.82,0,0,1,0,.33.45.45,0,0,1,.25-.07.61.61,0,0,1,.42.19,1.84,1.84,0,0,1,.36,1h0A5.57,5.57,0,0,0,19,11.43a9.41,9.41,0,0,1,1.06,4.51c-.09,4.26-3.13,8-7.36,8a7.84,7.84,0,0,1-1.43-.13c-5.2-1-8.76-7.27-8.17-12.68a.38.38,0,0,1,.38-.36.42.42,0,0,1,.34.17A1.42,1.42,0,0,0,5,11.6c1.5,0,3.23-2.41,4.12-3.12a5,5,0,0,1,3.23-1.06m0-.48A5.51,5.51,0,0,0,8.84,8.1,11.45,11.45,0,0,0,7.9,9c-.85.88-2,2.09-2.88,2.09a1,1,0,0,1-.79-.47.89.89,0,0,0-.72-.37.86.86,0,0,0-.86.79c-.58,5.35,2.79,12.09,8.56,13.2a8.77,8.77,0,0,0,1.52.14c4.3,0,7.74-3.72,7.84-8.46a10,10,0,0,0-1.12-4.74A5.21,5.21,0,0,1,19,9.86l0-.17a1.89,1.89,0,0,0-.48-1.11,1.25,1.25,0,0,0-.54-.29,1.18,1.18,0,0,0-.77-.94,1.4,1.4,0,0,0-.34,0,1,1,0,0,0-.79.41,2,2,0,0,0-.31-.12.88.88,0,0,0-.26-.12,10.22,10.22,0,0,0-3.08-.53Z" fill="#c1683d"/>
              </g>
              <g>
                <path d="M3.54,11.48a1,1,0,0,1-.87-.63,2,2,0,0,1-.16-.77,1.23,1.23,0,0,1,.74-1.24.69.69,0,0,1,.25,0,1,1,0,0,1,.9.76,2,2,0,0,1-.23,1.57.78.78,0,0,1-.63.35Z" fill="#f4b876"/>
                <path d="M3.5,9a.76.76,0,0,1,.67.59A1.69,1.69,0,0,1,4,11a.51.51,0,0,1-.43.25.75.75,0,0,1-.65-.48,1.76,1.76,0,0,1-.14-.68,1,1,0,0,1,.57-1L3.5,9m0-.48a1.19,1.19,0,0,0-.32,0,1.44,1.44,0,0,0-.9,1.47,2,2,0,0,0,.17.87,1.24,1.24,0,0,0,1.09.77,1,1,0,0,0,.83-.45,2.29,2.29,0,0,0,.26-1.79A1.23,1.23,0,0,0,3.5,8.56Z" fill="#c1683d"/>
              </g>
            </g>
            <g>
              <g>
                <path d="M11.38,19.48c3.93,2.15,7.12,5.5,10.35,8.72.2.19.42-.14.24-.33-3.16-3.34-6.51-6.61-10.49-8.68-.17-.09-.28.2-.1.29Z" fill="#c1683d"/>
                <path d="M11,20.21a40.56,40.56,0,0,1,7.15,7.36.25.25,0,1,0,.39-.32A34.64,34.64,0,0,0,11.2,20c-.16-.12-.35.13-.18.26Z" fill="#c1683d"/>
              </g>
              <g>
                <path d="M12.25,17.31a2.06,2.06,0,0,1-.9-.22A2.5,2.5,0,0,1,10.14,14a2,2,0,0,1,2.8-1.17,2.52,2.52,0,0,1,1.22,3.06A2.05,2.05,0,0,1,12.25,17.31Z" fill="#f4b876"/>
                <path d="M12,12.89a1.77,1.77,0,0,1,.8.19,2.26,2.26,0,0,1,1.09,2.76,1.79,1.79,0,0,1-1.68,1.23,1.84,1.84,0,0,1-.8-.19,2.27,2.27,0,0,1-1.09-2.76A1.8,1.8,0,0,1,12,12.89m0-.48h0A2.28,2.28,0,0,0,9.91,14a2.76,2.76,0,0,0,1.34,3.36,2.22,2.22,0,0,0,1,.23A2.27,2.27,0,0,0,14.38,16a2.75,2.75,0,0,0-1.33-3.35,2.24,2.24,0,0,0-1-.24Z" fill="#c1683d"/>
              </g>
            </g>
          </g>
          <g>
            <path d="M25,25.08A9,9,0,0,1,23.67,25a8.29,8.29,0,0,1-7-6.18c-.8-3.64,1.73-6.55,4.15-7.94A8.44,8.44,0,0,1,25,9.7a6.44,6.44,0,0,1,3.38.91,8.32,8.32,0,0,1,3.72,6.91,9,9,0,0,1-.16,1.92l0,.13a6.86,6.86,0,0,1-2,3.74.49.49,0,0,1-.25.1c-.26,0-.5-.23-.87-.62-.17-.17-.45-.47-.56-.49s0,.61-.06.94c-.05.7-.09,1.26-.43,1.39A7.61,7.61,0,0,1,25,25.08Z" fill="#f4b876"/>
            <path d="M25,9.94a6.3,6.3,0,0,1,3.25.87,8.13,8.13,0,0,1,3.6,6.71,8.52,8.52,0,0,1-.15,1.88l0,.12a6.55,6.55,0,0,1-2,3.62.11.11,0,0,1-.08,0c-.34,0-1.06-1.11-1.42-1.11l-.07,0c-.35.21-.13,2.18-.52,2.32a7.37,7.37,0,0,1-2.54.44,8.75,8.75,0,0,1-1.34-.11,8.07,8.07,0,0,1-6.81-6c-.74-3.38,1.55-6.25,4-7.68a8.15,8.15,0,0,1,4-1.12m0-.48a8.68,8.68,0,0,0-4.27,1.18c-2.49,1.43-5.09,4.43-4.27,8.2a8.57,8.57,0,0,0,7.21,6.37,9.57,9.57,0,0,0,1.41.11,7.84,7.84,0,0,0,2.71-.47c.49-.18.53-.8.58-1.6,0-.13,0-.31,0-.47a1.53,1.53,0,0,1,.18.18c.37.38.66.69,1,.69a.62.62,0,0,0,.41-.16,7,7,0,0,0,2.1-3.87l0-.14a9.3,9.3,0,0,0,.16-2,8.59,8.59,0,0,0-3.84-7.11A6.79,6.79,0,0,0,25,9.46Z" fill="#c1683d"/>
          </g>
        </g>
        <path d="M31.78,29.8a4,4,0,0,0-4,.71,3.77,3.77,0,0,0-.69,4c.12.25.22.38.43.44s.6.18.72,0,0-.27-.11-.28h0a.86.86,0,0,1-.74-.66,3.26,3.26,0,0,1,.86-3.4c1-.87,2.29-.77,3.51-.64A.07.07,0,0,0,31.78,29.8Z" fill="#c1683d"/>
      </g>
    </g>
  </g>
</svg>
