<svg xmlns="http://www.w3.org/2000/svg" width="40.84" height="39.3" viewBox="0 0 40.84 39.3">
  <g style="isolation: isolate">
    <g id="Layer_2" data-name="Layer 2">
      <g id="Layer_5" data-name="Layer 5">
        <g id="owl_food_1" data-name="owl_food 1">
          <g>
            <path d="M27.81,38.58a6,6,0,0,1-3.5-1.16L3.6,22.48A7.37,7.37,0,0,1,1.66,13L6.83,4.06a5.9,5.9,0,0,1,8.72-2L36.25,17a7.37,7.37,0,0,1,2,9.47l-5.17,9A6,6,0,0,1,27.81,38.58Z" fill="#f2b579"/>
            <path d="M12,1.66a5.27,5.27,0,0,1,3.09,1L35.84,17.62a6.62,6.62,0,0,1,1.74,8.53l-5.18,9a5.16,5.16,0,0,1-7.67,1.74L4,21.9a6.62,6.62,0,0,1-1.74-8.53L7.45,4.42A5.32,5.32,0,0,1,12,1.66M12,.22h0A6.73,6.73,0,0,0,6.21,3.7L1,12.65A8.13,8.13,0,0,0,3.18,23.07L23.89,38a6.6,6.6,0,0,0,9.75-2.18l5.18-8.95a8.1,8.1,0,0,0-2.15-10.41L16,1.52A6.66,6.66,0,0,0,12,.22Z" fill="#b25b2f"/>
          </g>
          <g>
            <path d="M28.8,38.36a6,6,0,0,1-3.51-1.16L4.59,22.26a7.37,7.37,0,0,1-1.95-9.47L7.82,3.84a5.89,5.89,0,0,1,8.71-2L37.24,16.81a7.38,7.38,0,0,1,1.94,9.48l-5.17,9A6,6,0,0,1,28.8,38.36Z" fill="#f4b876"/>
            <path d="M13,1.43a5.2,5.2,0,0,1,3.08,1L36.82,17.4a6.62,6.62,0,0,1,1.74,8.53l-5.17,9a5.32,5.32,0,0,1-4.59,2.76,5.27,5.27,0,0,1-3.09-1L5,21.68a6.63,6.63,0,0,1-1.74-8.53l5.18-9A5.3,5.3,0,0,1,13,1.43M13,0h0A6.7,6.7,0,0,0,7.2,3.48L2,12.43A8.1,8.1,0,0,0,4.17,22.84l20.7,14.94a6.61,6.61,0,0,0,9.76-2.18l5.17-9a8.11,8.11,0,0,0-2.14-10.41L17,1.29A6.71,6.71,0,0,0,13,0Z" fill="#e28049"/>
          </g>
          <g>
            <g>
              <path d="M27.62,14.8a.73.73,0,0,1-.66-.41.85.85,0,0,1-.08-.35c-2.42-2-6.88-2.18-7.76-2.19L19,11.61v.24a.49.49,0,0,1-.44-.27.54.54,0,0,1,0-.31.5.5,0,0,1,.16-.3.51.51,0,0,1,.36-.15h.21l.09,0,.29,0c1.6.07,5.55.44,7.91,2.38l.18,0a.72.72,0,0,1,.66.41A.85.85,0,0,1,28,14.69.87.87,0,0,1,27.62,14.8Z" fill="#f4b876"/>
              <path d="M19.31,11l.06,0h.24c1.61.07,5.58.44,7.87,2.41a.68.68,0,0,1,.23-.05.49.49,0,0,1,.45.28.6.6,0,0,1-.54.85.5.5,0,0,1-.45-.28.57.57,0,0,1,0-.34c-2.46-2.13-7.09-2.31-8-2.33H19a.24.24,0,0,1-.22-.13.25.25,0,0,1,0-.17.24.24,0,0,1,.09-.17.25.25,0,0,1,.19-.09h.28m0-.48-.12,0H19a.77.77,0,0,0-.52.21.81.81,0,0,0-.23.47.73.73,0,0,0,.07.43.71.71,0,0,0,.65.4h.13c.86,0,5.15.17,7.53,2.07a.79.79,0,0,0,.1.33,1,1,0,0,0,.87.55,1,1,0,0,0,.53-.15,1.08,1.08,0,0,0,.44-1.4,1,1,0,0,0-.88-.54H27.6c-2.43-1.93-6.36-2.3-8-2.37h-.18l-.14,0Z" fill="#c1683d"/>
            </g>
            <g>
              <g>
                <path d="M25.45,24.15a.2.2,0,0,1-.11,0l-.45-.26a.23.23,0,0,1-.1-.31l.37-.76a.38.38,0,0,1,.11-.11l.63-.26.16-.06a.2.2,0,0,1,.11,0,.29.29,0,0,1,.2.07c.06.08.11.18.05.27-.28.45-.53.9-.76,1.34A.24.24,0,0,1,25.45,24.15Z" fill="#f4b876"/>
                <path d="M26.22,22.55h0m0,0a15.6,15.6,0,0,0-.77,1.36l-.14-.09a3.07,3.07,0,0,1-.31-.17c.13-.25.25-.5.37-.75l.62-.26.23-.09m0-.48h0l-.13,0-.07,0-.17.07c-.19.07-.41.17-.63.27a.47.47,0,0,0-.22.22c-.13.24-.25.48-.37.73a.51.51,0,0,0,.19.65l.1.06.21.12.15.08a.43.43,0,0,0,.22.06.32.32,0,0,0,.14,0,.49.49,0,0,0,.28-.23c.25-.47.49-.9.74-1.3a.52.52,0,0,0,.09-.28.48.48,0,0,0-.48-.48Zm0,1Z" fill="#c1683d"/>
              </g>
              <g>
                <path d="M26.57,21a.33.33,0,0,1-.25-.11.26.26,0,0,1,0-.24c.43-.82.83-1.54,1.13-2.05l.11-.2a.26.26,0,0,1,.13-.1,4.76,4.76,0,0,0,.7-.31.2.2,0,0,1,.13,0,.27.27,0,0,1,.12,0,.25.25,0,0,1,.12.23,7.48,7.48,0,0,1-1.1,2.69.22.22,0,0,1-.2.12Z" fill="#f4b876"/>
                <path d="M28.48,18.14h0m0,0a7.11,7.11,0,0,1-1.06,2.59h-.93c.43-.82.83-1.53,1.12-2l.12-.2a3.93,3.93,0,0,0,.75-.33m0-.48h0a.5.5,0,0,0-.27.08,3.58,3.58,0,0,1-.64.28.44.44,0,0,0-.25.21l-.12.2c-.3.52-.71,1.25-1.13,2.06a.46.46,0,0,0,0,.47.49.49,0,0,0,.41.23h.93a.49.49,0,0,0,.41-.23A8,8,0,0,0,29,18.24s0-.07,0-.1a.47.47,0,0,0-.48-.48Zm0,1Z" fill="#c1683d"/>
              </g>
              <g>
                <path d="M24.62,30.9l-.15,0,.05-.25-.18.18a6.09,6.09,0,0,1-1.43-1,2.29,2.29,0,0,1-.3-.34.59.59,0,0,1-.05-.25v0A4.15,4.15,0,0,1,22.85,28a.25.25,0,0,1,.23-.15l.32.05.23,0a.22.22,0,0,1,.18.1.25.25,0,0,1,0,.19,7.81,7.81,0,0,1-.17.84,4.83,4.83,0,0,1,1.22,1.39.34.34,0,0,1,0,.34.4.4,0,0,1-.28.17Z" fill="#f4b876"/>
                <path d="M23.08,28l.29,0,.24,0a6.89,6.89,0,0,1-.21,1,4.1,4.1,0,0,1,1.29,1.4.09.09,0,0,1-.07.15h0l-.14-.07a6.13,6.13,0,0,1-1.37-1,1.54,1.54,0,0,1-.27-.31.37.37,0,0,1,0-.11h0A3.72,3.72,0,0,1,23.08,28m0-.47a.46.46,0,0,0-.45.32,4.24,4.24,0,0,0-.31,1.29v0a1,1,0,0,0,0,.25l.06.13a2.37,2.37,0,0,0,.34.39,6.4,6.4,0,0,0,1.48,1l.05,0,.1,0a.65.65,0,0,0,.24.06.55.55,0,0,0,.49-.29.59.59,0,0,0,0-.59A5.18,5.18,0,0,0,24,28.9c0-.19.08-.42.12-.7a.52.52,0,0,0-.09-.38.49.49,0,0,0-.34-.19l-.21,0-.14,0-.15,0Z" fill="#c1683d"/>
              </g>
              <g>
                <path d="M12.71,21.2a1.77,1.77,0,0,1-1-.4.83.83,0,0,1-.27-1.06.66.66,0,0,1,.21-.26.62.62,0,0,1,.42-.15.77.77,0,0,1,.76.65c0,.14.11.14.15.14h0c.33,0,1-.64,1.39-1.19a.75.75,0,0,0,.08-.14.25.25,0,0,1,.22-.13h0a.26.26,0,0,1,.2.21c0,.09,0,.14,0,.18a1.55,1.55,0,0,0,0,.23.36.36,0,0,1,0,.27l-.13.15a4.27,4.27,0,0,1-1.69,1.43,1.34,1.34,0,0,1-.39.07Z" fill="#f4b876"/>
                <path d="M14.64,18.9a1.25,1.25,0,0,0,0,.19,1.84,1.84,0,0,0,.05.25s0,0,0,.06A4.62,4.62,0,0,1,13,20.91a1,1,0,0,1-.3.05,1.56,1.56,0,0,1-.89-.35.61.61,0,0,1-.2-.76.44.44,0,0,1,.14-.18.42.42,0,0,1,.28-.1.52.52,0,0,1,.52.45c.08.24.22.34.39.34.5,0,1.27-.81,1.59-1.29l.1-.17m0-.48a.47.47,0,0,0-.43.27l-.06.1A3.43,3.43,0,0,1,13,19.87a1,1,0,0,0-1-.78.88.88,0,0,0-.58.21.81.81,0,0,0-.27.35A1.06,1.06,0,0,0,11.57,21a1.94,1.94,0,0,0,1.14.42,1.43,1.43,0,0,0,.46-.07A4.61,4.61,0,0,0,15,19.86l.12-.15a.5.5,0,0,0,.09-.47l0,0s0-.11,0-.18a.6.6,0,0,1,0-.12v-.05a.46.46,0,0,0-.39-.41Z" fill="#c1683d"/>
              </g>
              <g>
                <path d="M15.79,23.89a.19.19,0,0,1-.12,0c-.93-.57-1.05-1.7-.34-3.36,0-.1.18-.25.29-.25h0c.1,0,.31.14.33.23s.06.32.1.49a.24.24,0,0,1,0,.12,4.66,4.66,0,0,0-.17,1.06c0,.38.14.38.18.38a1.08,1.08,0,0,1,.25,0,.29.29,0,0,1,.14.15.24.24,0,0,1,0,.2l-.15.26c-.12.22-.2.4-.29.58a.24.24,0,0,1-.15.13Z" fill="#f4b876"/>
                <path d="M15.59,20.48l.06,0,.08,0c0,.16.07.32.11.49h0a4.6,4.6,0,0,0-.18,1.11c0,.33.12.63.43.63h0a.32.32,0,0,1,.14,0c-.06.1-.11.21-.17.32s-.18.35-.27.54c-1-.6-.76-1.87-.25-3.07l0-.1m0-.48a.47.47,0,0,0-.43.28l.43.2-.44-.19s0,.1-.06.15c-.93,2.18-.27,3.17.45,3.62a.59.59,0,0,0,.26.07l.13,0a.5.5,0,0,0,.3-.25c.09-.2.17-.36.26-.52a2.88,2.88,0,0,1,.17-.31.49.49,0,0,0,0-.41.48.48,0,0,0-.28-.28,1.05,1.05,0,0,0-.24-.06,1.06,1.06,0,0,1,0-.18,4.09,4.09,0,0,1,.16-1,.55.55,0,0,0,0-.22c0-.2-.08-.35-.11-.5a.48.48,0,0,0-.37-.38l-.07,0-.06,0Z" fill="#c1683d"/>
              </g>
              <g>
                <path d="M16.15,24a.23.23,0,0,1-.19-.09.24.24,0,0,1,0-.23,4.61,4.61,0,0,1,.22-.51l.13-.27a.26.26,0,0,1,.22-.13h0a.23.23,0,0,1,.21.13.82.82,0,0,1,0,.67.65.65,0,0,1-.56.43Z" fill="#f4b876"/>
                <path d="M16.5,23a.59.59,0,0,1,0,.47.44.44,0,0,1-.36.28c.07-.16.13-.32.21-.48s.09-.18.14-.27m0-.48a.49.49,0,0,0-.43.26c0,.09-.1.19-.14.28s-.15.34-.22.52a.47.47,0,0,0,.44.65h0a.91.91,0,0,0,.77-.57,1.08,1.08,0,0,0,0-.88.47.47,0,0,0-.42-.26Z" fill="#c1683d"/>
              </g>
              <g opacity="0.39" style="mix-blend-mode: multiply">
                <path d="M16,20.79h-.15l-.18,0-.11,0A1.53,1.53,0,0,1,14.7,20a.23.23,0,0,1,0-.23c.08-.16.17-.32.26-.48a.22.22,0,0,1,.21-.12h0a.22.22,0,0,1,.2.16,1.55,1.55,0,0,0,1,1,.24.24,0,0,1,.18.25.24.24,0,0,1-.21.22H16Z" fill="#f4b876"/>
                <path d="M15.18,19.38a1.76,1.76,0,0,0,1.11,1.16H16l-.22,0-.08,0-.06,0a1.22,1.22,0,0,1-.68-.62q.13-.22.27-.48m0-.47a.48.48,0,0,0-.43.25l-.25.47a.47.47,0,0,0,0,.46,1.75,1.75,0,0,0,.94.84h.08l.13,0,.24,0h.47a.49.49,0,0,0,.42-.45.48.48,0,0,0-.36-.49,1.35,1.35,0,0,1-.78-.85.46.46,0,0,0-.41-.32Z" fill="#c1683d"/>
              </g>
              <g>
                <path d="M21.9,21.16a.21.21,0,0,1-.18-.09c-.68-.78-1.29-1.6-1.77-2.25l-.07-.09a.25.25,0,0,1,0-.22.24.24,0,0,1,.16-.15l.33-.09.3-.06.1,0,1.52-.31c1.19-.24,2.42-.5,3.66-.63l.15,0a12.11,12.11,0,0,1,1.27-.09,3,3,0,0,1,1,.14.8.8,0,0,1,.54.56c0,.13,0,.32-.31.5a3.81,3.81,0,0,1-.79.36c-.39.14-.86.28-1.31.43-.29.08-.58.17-.83.26a11.72,11.72,0,0,0-2.32,1.33l-.53.35a.19.19,0,0,1-.12,0l-.41,0-.36,0Z" fill="#f4b876"/>
                <path d="M27.33,17.37a3,3,0,0,1,1,.13.6.6,0,0,1,.4.39c0,.08-.06.16-.2.25a3.93,3.93,0,0,1-.75.33c-.64.23-1.48.47-2.14.69a16,16,0,0,0-2.9,1.71l-.41,0-.38,0c-.71-.82-1.33-1.66-1.83-2.33l.31-.08c.13,0,.26-.06.39-.09,1.73-.32,3.42-.75,5.16-.93a11,11,0,0,1,1.4-.12m0-.47A12.78,12.78,0,0,0,26,17l-.15,0a36.7,36.7,0,0,0-3.68.64l-1.51.3-.11,0-.32.07-.32.09a.46.46,0,0,0-.32.3.47.47,0,0,0,.07.44l.07.1c.49.66,1.09,1.47,1.78,2.26a.46.46,0,0,0,.36.17H22l.35,0,.31,0h.1a.43.43,0,0,0,.24-.08l.53-.35a12.61,12.61,0,0,1,2.26-1.31l.83-.26c.45-.14.92-.28,1.32-.43a3.94,3.94,0,0,0,.85-.38.69.69,0,0,0,.41-.74,1,1,0,0,0-.69-.74,3.23,3.23,0,0,0-1.13-.16Z" fill="#c1683d"/>
              </g>
              <g>
                <path d="M16,20.79h-.15l-.18,0-.11,0A1.48,1.48,0,0,1,14.7,20a.23.23,0,0,1,0-.23l0-.06h0a.25.25,0,0,1-.21-.15l.2-.14-.23,0a2.48,2.48,0,0,1-.07-.3.88.88,0,0,1,0-.17s0-.11,0-.12a4.77,4.77,0,0,1,0-.86.28.28,0,0,1,.09-.18.27.27,0,0,1,.15,0h0a4.91,4.91,0,0,0,.67.08h.33a4.94,4.94,0,0,0,1.1-.12h.06a5.19,5.19,0,0,0,.81-.28,4.48,4.48,0,0,0,.9-.52,4.65,4.65,0,0,0,.48-.39.2.2,0,0,1,.16-.07.24.24,0,0,1,.16.05l.15.14A1.61,1.61,0,0,1,20,18.29a1.36,1.36,0,0,1-.09.23A4.17,4.17,0,0,1,18,20.19l-.14.07a4.71,4.71,0,0,1-1.59.52H16Z" fill="#f4b876"/>
                <path d="M19.17,16.71a.53.53,0,0,1,.14.12,1.37,1.37,0,0,1,.49,1.39,1.59,1.59,0,0,1-.07.2A3.94,3.94,0,0,1,17.93,20a.61.61,0,0,0-.14.07,4.29,4.29,0,0,1-1.5.49H16l-.22,0-.08,0-.06,0a1.22,1.22,0,0,1-.68-.62q.13-.22.27-.48s0,0,0-.05l.48.36a.17.17,0,0,0,.25-.07.23.23,0,0,0-.07-.29c-.24-.15-.48-.32-.72-.48l-.06-.05-.23.46h0c0,.07-.07.13-.1.19s0,0,0-.05,0,0,0-.06a1.84,1.84,0,0,1-.05-.25,1.25,1.25,0,0,1,0-.19v0a5.08,5.08,0,0,1,0-.87,5.4,5.4,0,0,0,.69.08h.36A5.45,5.45,0,0,0,16.81,18h0a4.62,4.62,0,0,0,.91-.3,5.23,5.23,0,0,0,.95-.55l.06,0a5.2,5.2,0,0,0,.43-.37m0-.48a.46.46,0,0,0-.33.13,4.75,4.75,0,0,1-.39.34l-.06,0a4.26,4.26,0,0,1-.85.49,4,4,0,0,1-.78.26h-.05a4.54,4.54,0,0,1-1,.11h-.33a3.57,3.57,0,0,1-.63-.07h-.09a.47.47,0,0,0-.48.45,7.41,7.41,0,0,0,0,1h0v0h0c0,.11,0,.18,0,.24a1.57,1.57,0,0,0,.06.28v.05a.36.36,0,0,0,0,.11.38.38,0,0,0,.13.18.54.54,0,0,0,.05.28,1.75,1.75,0,0,0,.94.84h.08l.13,0,.24,0h.47A4.68,4.68,0,0,0,18,20.47l.1,0,0,0a4.33,4.33,0,0,0,2-1.78,1.66,1.66,0,0,0,.1-.29,1.78,1.78,0,0,0-.63-1.85,1.06,1.06,0,0,0-.15-.14.45.45,0,0,0-.31-.11Z" fill="#c1683d"/>
              </g>
              <g>
                <path d="M19.39,22a.27.27,0,0,1-.17-.06,9.66,9.66,0,0,1-1.5-1.85.25.25,0,0,1,0-.19.27.27,0,0,1,.11-.15,4.61,4.61,0,0,0,1.5-1.12,1.85,1.85,0,0,0,.26-.5.26.26,0,0,1,.19-.16h0a.26.26,0,0,1,.19.1l.2.27c.5.68,1.27,1.7,1.89,2.41a.25.25,0,0,1,0,.25.24.24,0,0,1-.2.15,4.88,4.88,0,0,0-1.6.36,4.1,4.1,0,0,0-.59.3l-.19.14A.21.21,0,0,1,19.39,22Z" fill="#f4b876"/>
                <path d="M19.8,18.22l.12.18c.52.69,1.33,1.77,2,2.52a5.07,5.07,0,0,0-1.67.38,3.4,3.4,0,0,0-.63.32l-.21.16A9.08,9.08,0,0,1,17.93,20a4.94,4.94,0,0,0,1.57-1.2,2.05,2.05,0,0,0,.3-.56m0-.48h-.08a.47.47,0,0,0-.37.31,1.64,1.64,0,0,1-.24.45,4.45,4.45,0,0,1-1.41,1,.48.48,0,0,0-.23.29.5.5,0,0,0,0,.38,10.16,10.16,0,0,0,1.54,1.89.45.45,0,0,0,.34.14.49.49,0,0,0,.3-.1l.18-.14a3.38,3.38,0,0,1,.54-.27,5,5,0,0,1,1.52-.35.47.47,0,0,0,.41-.29.48.48,0,0,0-.08-.5c-.61-.7-1.38-1.73-1.89-2.4l-.06-.09,0-.06-.09-.12a.49.49,0,0,0-.38-.19Z" fill="#c1683d"/>
              </g>
              <g>
                <path d="M26.77,26.88l-.08,0a15.59,15.59,0,0,1-2.16-1l-.47-.26c-.63-.37-1.25-.76-1.84-1.17a.25.25,0,0,1-.1-.23.27.27,0,0,1,.17-.2,2,2,0,0,0,.26-.09c.54-.2,1.13-.47,1.69-.74l.13-.06.1,0a.2.2,0,0,1,.13,0c.17.11.34.22.52.32l.45.26c.61.34,1.28.67,1.92,1l.24.12a.21.21,0,0,1,.12.14.23.23,0,0,1,0,.18L27,26.75A.23.23,0,0,1,26.77,26.88Z" fill="#f4b876"/>
                <path d="M24.47,23.32l.53.33.45.26c.69.38,1.46.75,2.17,1.1l-.53,1-.32.62a16.64,16.64,0,0,1-2.12-1c-.16-.08-.31-.17-.46-.26-.62-.35-1.23-.74-1.83-1.16l.28-.1c.59-.21,1.21-.51,1.83-.8m0-.48a.45.45,0,0,0-.2,0l-.13.07c-.56.26-1.14.53-1.66.72l-.26.1a.47.47,0,0,0-.13.84c.6.42,1.22.82,1.86,1.18l.45.26a18.27,18.27,0,0,0,2.2,1l.17,0a.49.49,0,0,0,.43-.26l0-.06c.09-.19.18-.37.28-.55l.53-1a.48.48,0,0,0,0-.37.49.49,0,0,0-.25-.28l-.22-.11c-.65-.31-1.32-.64-1.93-1l-.43-.25-.51-.32a.53.53,0,0,0-.27-.08Z" fill="#c1683d"/>
              </g>
              <g>
                <g>
                  <path d="M15.66,18.33a5.64,5.64,0,0,1-1.08-.1,1.86,1.86,0,0,1-.34-.07,6,6,0,0,1-1.46-.55l-.27-.16a4.28,4.28,0,0,1-1.31-1.3l-.06-.06s-.15-.31-.18-.38a2.58,2.58,0,0,1-.21-.63c-.5-2.42,1.92-4.72,4.4-5.29a5.65,5.65,0,0,1,1.16-.13A4.29,4.29,0,0,1,20.66,13a3.07,3.07,0,0,1,.06.52,4.35,4.35,0,0,1-1.38,3.41,5.17,5.17,0,0,1-2.47,1.32,5.34,5.34,0,0,1-1.21.13Z" fill="#f4b876"/>
                  <path d="M16.31,9.9A4,4,0,0,1,20.42,13a2.65,2.65,0,0,1,.07.48,4.13,4.13,0,0,1-1.32,3.23A4.88,4.88,0,0,1,16.82,18a5.64,5.64,0,0,1-1.16.12,6,6,0,0,1-1-.09l-.34-.07a5.72,5.72,0,0,1-1.38-.53h0c-.09,0-.17-.1-.26-.15a4,4,0,0,1-1.29-1.31,0,0,0,0,1,0,0,.91.91,0,0,1-.09-.17l-.09-.17A2.91,2.91,0,0,1,11,15c-.45-2.19,1.78-4.45,4.22-5a4.67,4.67,0,0,1,1.11-.13m0-.48a5.57,5.57,0,0,0-1.22.14c-2.58.59-5.1,3-4.58,5.57a3.9,3.9,0,0,0,.23.68,1.51,1.51,0,0,0,.09.18l0,.07a1.09,1.09,0,0,0,.08.15.39.39,0,0,0,.08.1,4.46,4.46,0,0,0,1.36,1.34,2.52,2.52,0,0,0,.27.15l0,0a5.89,5.89,0,0,0,1.5.57l.37.08a6.06,6.06,0,0,0,1.12.1,5.24,5.24,0,0,0,1.26-.14,5.44,5.44,0,0,0,2.59-1.38A4.57,4.57,0,0,0,21,13.44a4,4,0,0,0-.07-.54,4.51,4.51,0,0,0-4.58-3.48Z" fill="#c1683d"/>
                </g>
                <g>
                  <path d="M16.69,16a1.2,1.2,0,0,1-.7-.23,1.44,1.44,0,0,1-.39-1.86,1.22,1.22,0,0,1,1-.63,1.14,1.14,0,0,1,.7.24,1.44,1.44,0,0,1,.39,1.86A1.21,1.21,0,0,1,16.69,16Z" fill="#f4b876"/>
                  <path d="M16.64,13.5a.9.9,0,0,1,.56.19,1.2,1.2,0,0,1,.32,1.55.95.95,0,0,1-1.39.32A1.2,1.2,0,0,1,15.81,14a1,1,0,0,1,.83-.51m0-.47h0a1.43,1.43,0,0,0-1.25.74A1.68,1.68,0,0,0,15.85,16a1.43,1.43,0,0,0,2.09-.47,1.68,1.68,0,0,0-.46-2.18,1.43,1.43,0,0,0-.84-.27Z" fill="#c1683d"/>
                </g>
              </g>
              <g>
                <path d="M28.91,27.37A5.88,5.88,0,0,1,27,27a.22.22,0,0,1-.14-.14.23.23,0,0,1,0-.2l.38-.65c.18-.3.37-.61.57-.91A.23.23,0,0,1,28,25a.19.19,0,0,1,.1,0l.87.44c1.09.58,1.47.93,1.41,1.31s-.57.51-1,.59a2.9,2.9,0,0,1-.43,0Z" fill="#f4b876"/>
                <path d="M28,25.21l.86.44c1.28.68,1.89,1.21.47,1.45a2.47,2.47,0,0,1-.39,0h-.07a5.94,5.94,0,0,1-1.81-.37c.12-.21.24-.43.37-.64s.37-.61.57-.91m0-.47a.46.46,0,0,0-.4.21c-.2.3-.4.61-.58.92l-.38.65a.49.49,0,0,0,0,.41.52.52,0,0,0,.3.28,6.49,6.49,0,0,0,2,.4H29a2.39,2.39,0,0,0,.48,0c.32-.05,1.1-.19,1.19-.78s-.49-1-1.53-1.56l-.87-.45a.52.52,0,0,0-.21,0Z" fill="#c1683d"/>
              </g>
              <g>
                <path d="M25.1,28.43c-.46,0-.9,0-1.32-.07l-.26,0-.23,0-.25,0a9.06,9.06,0,0,1-4.11-1.65l-.43-.34-.39-.37a7.92,7.92,0,0,1-.67-.76,8.66,8.66,0,0,1-1-1.62c-.07-.13-.13-.27-.19-.4a.26.26,0,0,1,0-.21s0,0,0-.05a.24.24,0,0,1-.2-.15,11.6,11.6,0,0,1-.49-1.65c0-.18-.08-.34-.11-.5a.23.23,0,0,1,.07-.22.24.24,0,0,1,.16-.07h0l.19,0,.12.24v-.23a3.76,3.76,0,0,0,1.59-.49l.1,0a.32.32,0,0,1,.14,0,.25.25,0,0,1,.22.11l.1.18a10.57,10.57,0,0,0,1.32,1.57.23.23,0,0,1,.07.18.28.28,0,0,1-.09.17,1.29,1.29,0,0,0-.49.78,1,1,0,0,0,0,.17,1,1,0,0,0,.3.64,2.7,2.7,0,0,0,1.83.65,3,3,0,0,0,.79-.1l.33-.1.08,0a.24.24,0,0,1,.14.05q.87.6,1.8,1.14l.4.23a15.33,15.33,0,0,0,2.16,1,.25.25,0,0,1,.13.14.23.23,0,0,1,0,.2l-.45.88-.33.66a.23.23,0,0,1-.21.13Z" fill="#f4b876"/>
                <path d="M17.93,20a1.45,1.45,0,0,0,.12.19,9.58,9.58,0,0,0,1.34,1.61,1.52,1.52,0,0,0-.58.92,1.49,1.49,0,0,0,0,.21c0,.84,1.13,1.53,2.37,1.53a3.1,3.1,0,0,0,.85-.11,2.35,2.35,0,0,0,.35-.11c.6.42,1.21.81,1.83,1.16.15.09.3.18.46.26a16.64,16.64,0,0,0,2.12,1l-.45.88c-.12.22-.23.45-.33.66H25.1a10.85,10.85,0,0,1-1.3-.07l-.36,0-.36,0a8.77,8.77,0,0,1-4-1.6l-.41-.33-.38-.36a6.5,6.5,0,0,1-.65-.74,6.78,6.78,0,0,1-.54-.78c-.16-.26-.3-.53-.43-.79L16.48,23l0,0,.18-.33c.11-.19.22-.37.34-.54l.12-.18h0v0a.18.18,0,0,0,0-.22s0,0,0,0l0,0-.59-.45a.15.15,0,0,0-.11,0,.16.16,0,0,0-.16.1.23.23,0,0,0,.07.29l.33.21h0l.14.1-.1.16c-.11.18-.23.38-.35.6A13,13,0,0,1,15.84,21h0c0-.17-.07-.33-.11-.49l.22,0h.14a3.93,3.93,0,0,0,1.7-.51.61.61,0,0,1,.14-.07m0-.48a.42.42,0,0,0-.22.05l.22.43-.25-.42-.13.07a3.54,3.54,0,0,1-1.46.45H16l-.17,0h-.09a.49.49,0,0,0-.34.14.48.48,0,0,0-.12.44c0,.16.06.32.1.5a12.07,12.07,0,0,0,.51,1.68A.48.48,0,0,0,16,23a.52.52,0,0,0,0,.22l.19.42c.14.28.29.57.45.83a8.47,8.47,0,0,0,.57.82,7.59,7.59,0,0,0,.7.79c.12.13.26.25.4.38s.28.24.43.35A9.39,9.39,0,0,0,23,28.51l.27,0h.11l.11,0,.28,0c.42,0,.87.06,1.33.06H26a.47.47,0,0,0,.42-.26l.33-.66c.15-.3.3-.59.46-.88a.48.48,0,0,0-.26-.67,16.61,16.61,0,0,1-2.06-1L24.43,25q-.93-.54-1.8-1.14a.44.44,0,0,0-.27-.09.35.35,0,0,0-.17,0l-.3.09a3,3,0,0,1-.73.09,2.49,2.49,0,0,1-1.66-.58.73.73,0,0,1-.23-.47.49.49,0,0,1,0-.12,1.13,1.13,0,0,1,.42-.65.49.49,0,0,0,.17-.34.51.51,0,0,0-.14-.36,9.41,9.41,0,0,1-1.28-1.53l-.1-.16a.48.48,0,0,0-.42-.25Z" fill="#c1683d"/>
              </g>
              <g>
                <path d="M26.36,28.42a.24.24,0,0,1-.2-.11.24.24,0,0,1,0-.23c.11-.24.23-.49.37-.74s.24-.46.37-.7a.25.25,0,0,1,.21-.12h.08a8.9,8.9,0,0,0,.86.25,4.3,4.3,0,0,0,.87.11.21.21,0,0,1,.17.08.21.21,0,0,1,.07.17c0,.26-.14.62-.73.9a4.84,4.84,0,0,1-2.05.38Z" fill="#f4b876"/>
                <path d="M27.1,26.76c.31.1.61.19.89.25a3.94,3.94,0,0,0,.92.12c0,.26-.18.5-.59.7a4.7,4.7,0,0,1-2,.35l.37-.73c.11-.23.24-.46.37-.69m0-.48a.49.49,0,0,0-.42.24c-.13.25-.26.48-.38.72s-.25.49-.37.73a.49.49,0,0,0,0,.47.5.5,0,0,0,.4.22h0a5.18,5.18,0,0,0,2.16-.4,1.28,1.28,0,0,0,.86-1.11.49.49,0,0,0-.13-.35.53.53,0,0,0-.34-.15,4.54,4.54,0,0,1-.83-.1,8.29,8.29,0,0,1-.84-.25l-.15,0Z" fill="#c1683d"/>
              </g>
              <g>
                <path d="M12.08,22.91a1.38,1.38,0,0,1-1-.49.75.75,0,0,1-.09-1,.69.69,0,0,1,.57-.32.71.71,0,0,1,.63.44c0,.12.08.13.14.13a.75.75,0,0,0,.24-.07,5.47,5.47,0,0,0,2-2.3c.12-.22.22-.43.32-.64a.27.27,0,0,1,.15-.13h.07a.33.33,0,0,1,.13,0l.19.13c.19.14.39.27.59.4a.51.51,0,0,1,.16.19.45.45,0,0,1,0,.41.43.43,0,0,1-.38.23h0a.9.9,0,0,1-.22-.06l-.27-.21a2.69,2.69,0,0,1-.16.29,12,12,0,0,1-1.07,1.6A2.88,2.88,0,0,1,12.08,22.91Z" fill="#f4b876"/>
                <path d="M15.08,18.8c.25.18.52.36.78.53a.16.16,0,0,1,.07.09.2.2,0,0,1,0,.2.17.17,0,0,1-.25.07l-.48-.36c-.09.18-.19.36-.29.53a11.86,11.86,0,0,1-1,1.57c-.43.55-1.11,1.24-1.79,1.24a1.12,1.12,0,0,1-.84-.41.53.53,0,0,1-.08-.67.48.48,0,0,1,.38-.21.45.45,0,0,1,.41.3.36.36,0,0,0,.36.26,1,1,0,0,0,.33-.07,5.82,5.82,0,0,0,2.11-2.42c.12-.21.22-.43.33-.65m0-.48-.13,0a.5.5,0,0,0-.31.26c-.09.2-.19.41-.31.62a5.28,5.28,0,0,1-1.9,2.21l-.06,0a.93.93,0,0,0-.83-.55,1,1,0,0,0-.77.42,1,1,0,0,0,.12,1.26,1.59,1.59,0,0,0,1.19.57,3.1,3.1,0,0,0,2.16-1.42,12.49,12.49,0,0,0,1.09-1.63l0-.05,0,0,0,0a.59.59,0,0,0,.34.1.65.65,0,0,0,.59-.37.68.68,0,0,0,0-.62.62.62,0,0,0-.26-.29c-.17-.11-.37-.24-.56-.38l-.2-.13a.43.43,0,0,0-.26-.09Z" fill="#c1683d"/>
              </g>
              <g>
                <path d="M26.41,33.35a3.87,3.87,0,0,1-2.24-1.19c-.07-.17-.19-.47,1.6-4.08l.79-1.55c.23-.46.47-.91.7-1.35l.15-.28c.7-1.31,1.3-2.38,1.63-2.92l.11-.18a.27.27,0,0,1,.15-.1,2.87,2.87,0,0,0,.37-.09h.06a.23.23,0,0,1,.16.06.27.27,0,0,1,.08.22,10.63,10.63,0,0,1-1.65,3.33.83.83,0,0,1-.08.12c-.33.51-.65,1-.93,1.54s-.52,1-.73,1.41A25,25,0,0,0,25.45,31l-.18.61a3.67,3.67,0,0,1,1.42,1.19.4.4,0,0,1,.07.28.3.3,0,0,1-.17.22.42.42,0,0,1-.16,0Z" fill="#f4b876"/>
                <path d="M29.73,21.84h0m0,0a10.48,10.48,0,0,1-1.61,3.24l-.08.13c-.35.52-.66,1-.94,1.55s-.52,1-.74,1.42a22.49,22.49,0,0,0-1.13,2.75,7.63,7.63,0,0,0-.25.87c.51,0,1.21.77,1.53,1.16a.09.09,0,0,1,0,.14h-.06a4,4,0,0,1-2-1c-.11-.28.64-2,1.6-3.89.25-.5.51-1,.78-1.54L27.62,25c.68-1.26,1.28-2.35,1.63-2.91a1.12,1.12,0,0,1,.1-.16l.38-.1m0-.48h0l-.12,0-.34.09a.48.48,0,0,0-.3.2l-.12.19c-.33.53-.92,1.6-1.63,2.93l-.13.25c-.24.44-.48.91-.72,1.38s-.54,1-.79,1.55c-1.84,3.71-1.72,4-1.62,4.27a4,4,0,0,0,2.46,1.35h0a.59.59,0,0,0,.34-.09.54.54,0,0,0,.26-.36.62.62,0,0,0-.11-.47,4.56,4.56,0,0,0-1.33-1.19c0-.13.08-.27.12-.4a24.71,24.71,0,0,1,1.11-2.69c.23-.47.47-.94.73-1.4s.59-1,.92-1.51a1.05,1.05,0,0,1,.08-.13A11.14,11.14,0,0,0,30.19,22a.34.34,0,0,0,0-.14.48.48,0,0,0-.47-.48h0Zm0,1h0Z" fill="#c1683d"/>
              </g>
              <g>
                <path d="M16.22,27.4a.73.73,0,0,1-.41-.13c-1-.59-1.12-1.84-.23-3.72a9.07,9.07,0,0,1,.46-.88l.06-.12c.14-.25.26-.45.37-.63a1.81,1.81,0,0,1-.3-.16.46.46,0,0,1-.15-.6.41.41,0,0,1,.37-.23.39.39,0,0,1,.26.09l.59.45,0,0a.6.6,0,0,1,.09.13.23.23,0,0,1,0,.14.36.36,0,0,1-.07.31c-.14.21-.27.42-.4.64s-.16.26-.23.4a6.62,6.62,0,0,0-.33.73A5,5,0,0,0,16,25.54c0,.37.14.37.18.37a.73.73,0,0,1,.65.44.8.8,0,0,1-.11.8.62.62,0,0,1-.5.25Z" fill="#f4b876"/>
                <path d="M16.39,21.17a.15.15,0,0,1,.11,0l.13.09.47.36h0s0,0,0,0,0,0,0,0a.11.11,0,0,1,0,.08.17.17,0,0,1,0,.14v0h0c-.14.2-.27.41-.4.63a4.49,4.49,0,0,0-.24.42l0,0a7.89,7.89,0,0,0-.33.72,5.46,5.46,0,0,0-.39,1.77c0,.33.12.62.42.62h0a.51.51,0,0,1,.34.85.37.37,0,0,1-.31.16.48.48,0,0,1-.28-.09c-1.13-.64-.76-2.12-.14-3.42.14-.3.29-.59.44-.86l.09-.15c.12-.22.24-.42.35-.6a.21.21,0,0,0,0-.26h0l-.33-.21a.23.23,0,0,1-.07-.29.16.16,0,0,1,.16-.1m.78.63h0m-.78-1.11a.65.65,0,0,0-.59.37A.69.69,0,0,0,16,22l.11.07-.23.38-.1.18c-.14.24-.29.54-.45.86-1.18,2.51-.47,3.59.34,4a1,1,0,0,0,.52.15.89.89,0,0,0,.7-.35,1,1,0,0,0,.13-1,.93.93,0,0,0-.79-.57.68.68,0,0,1,0-.18,4.57,4.57,0,0,1,.36-1.56,5,5,0,0,1,.31-.68c.08-.16.16-.29.24-.42a6.86,6.86,0,0,1,.38-.6.33.33,0,0,0,0-.06.61.61,0,0,0,.09-.46.68.68,0,0,0-.11-.28h0l0,0a.55.55,0,0,0-.13-.14l-.47-.35-.11-.09a.66.66,0,0,0-.42-.15Z" fill="#c1683d"/>
              </g>
              <g>
                <path d="M21.16,24.68A3.12,3.12,0,0,1,19,23.89a1.39,1.39,0,0,1-.45-1,2.3,2.3,0,0,1,0-.26.46.46,0,0,1,0-.15,1.84,1.84,0,0,1,.62-.91l.23-.17a4.61,4.61,0,0,1,.66-.34l.14,0,.15-.06a5.64,5.64,0,0,1,1.46-.29l.39,0,1.62-.08c.87,0,1.73-.09,2.6-.09h1.22a10.09,10.09,0,0,1,1.54.15c.75.15,1.15.45,1.19.87s-.44.49-.64.55l-.41.1c-.44.1-1,.19-1.57.27l-.8.13a5.77,5.77,0,0,0-.72.2l-.83.35-.89.41-.13.06a19.55,19.55,0,0,1-2,.86l-.37.11a3.44,3.44,0,0,1-.91.12Z" fill="#f4b876"/>
                <path d="M26.5,20.71l.92,0h.1a12,12,0,0,1,1.68.15c.53.11,1,.31,1,.66,0,.11-.17.21-.47.3l-.38.1c-.68.15-1.63.27-2.37.39a4.76,4.76,0,0,0-.76.22c-.27.1-.55.22-.85.35l-.9.42a18.26,18.26,0,0,1-2.11.9,2.35,2.35,0,0,1-.35.11,3.1,3.1,0,0,1-.85.11c-1.24,0-2.37-.69-2.37-1.53a1.49,1.49,0,0,1,0-.21s0-.09,0-.12a1.57,1.57,0,0,1,.55-.8l.21-.16a3.4,3.4,0,0,1,.63-.32l.06,0,.07,0,.11,0a5,5,0,0,1,1.43-.29l.38,0,.41,0c1.27-.05,2.53-.15,3.8-.16h0m0-.47h0c-.88,0-1.76.05-2.61.09l-1.22.07h-.4l-.41,0a5.62,5.62,0,0,0-1.52.31l-.13.05-.11,0,.14.46L20,20.86a4.15,4.15,0,0,0-.7.36l-.25.18a2.08,2.08,0,0,0-.71,1.05.68.68,0,0,0,0,.12,2.26,2.26,0,0,0,0,.33,1.63,1.63,0,0,0,.52,1.16,3.38,3.38,0,0,0,2.33.86,3.49,3.49,0,0,0,1-.13,3,3,0,0,0,.4-.12,19.55,19.55,0,0,0,2-.86l.14-.06.89-.41c.34-.16.59-.26.81-.34a4.4,4.4,0,0,1,.68-.2l.79-.12c.56-.08,1.14-.17,1.6-.28a3.52,3.52,0,0,0,.41-.1c.22-.06.87-.26.82-.81s-.52-.9-1.38-1.07a10.89,10.89,0,0,0-1.58-.16H26.5Z" fill="#c1683d"/>
              </g>
            </g>
            <g>
              <path d="M26.85,15.84a.71.71,0,0,1-.66-.41.74.74,0,0,1-.08-.39c-2.33-2.23-7.08-2.51-7.28-2.52a.49.49,0,0,1-.41-.27.51.51,0,0,1-.05-.32.52.52,0,0,1,.36-.42l.12,0c.6,0,5.42.39,7.94,2.76h.15a.72.72,0,0,1,.66.41.84.84,0,0,1-.35,1.08A.71.71,0,0,1,26.85,15.84Z" fill="#f4b876"/>
              <path d="M18.89,11.72c.58,0,5.41.41,7.84,2.8a.52.52,0,0,1,.21,0,.48.48,0,0,1,.45.27.62.62,0,0,1-.26.78.6.6,0,0,1-.28.08.49.49,0,0,1-.45-.28.53.53,0,0,1,0-.37c-2.35-2.36-7.31-2.67-7.52-2.68a.25.25,0,0,1-.21-.14.3.3,0,0,1,0-.16.3.3,0,0,1,.2-.24l.08,0m0-.48H18.8l-.08,0-.07,0a.76.76,0,0,0-.52.65.72.72,0,0,0,.66.81c.22,0,4.79.29,7.08,2.4a1.07,1.07,0,0,0,.1.39,1,1,0,0,0,.88.54,1.07,1.07,0,0,0,.52-.14,1.08,1.08,0,0,0,.44-1.4,1,1,0,0,0-.87-.54h-.07c-2.61-2.37-7.4-2.72-7.95-2.76Z" fill="#c1683d"/>
            </g>
          </g>
        </g>
      </g>
    </g>
  </g>
</svg>
