<svg xmlns="http://www.w3.org/2000/svg" width="41.15" height="43.66" viewBox="0 0 41.15 43.66">
  <g id="Layer_2" data-name="Layer 2">
    <g id="Layer_5" data-name="Layer 5">
      <g id="owl_toy_3" data-name="owl_toy 3">
        <g>
          <path d="M8.16,23.75A.16.16,0,0,1,8,23.59a.16.16,0,0,1,.16-.17c.64,0,1.17-1.09,1.17-2.38s-.53-2.39-1.17-2.39A.16.16,0,0,1,8,18.49a.16.16,0,0,1,.16-.17c.85,0,1.51,1.19,1.51,2.72S9,23.75,8.16,23.75Z" fill="#5f4268"/>
          <path d="M31.75,27.72a.17.17,0,1,1,0-.34c.74,0,1.37-1.26,1.37-2.75s-.63-2.75-1.37-2.75a.17.17,0,1,1,0-.34c1,0,1.7,1.36,1.7,3.09S32.71,27.72,31.75,27.72Z" fill="#5f4268"/>
          <path d="M39.61,23.58a6.3,6.3,0,0,0-1.21-2.46c-.46-.56-1.5-1.61-2.31-1.46-.42.08-.78.54-1.13.78a10.91,10.91,0,0,1-1.54.84,14.35,14.35,0,0,1-4.62,1.21,35.71,35.71,0,0,1-8.64-1.2c-2.08-.45-3.47-.91-5.54-1.41s-4.55-1.26-6.75-1a28.28,28.28,0,0,0-5.44,1.27c-.92.31-1.31,1.95-.7,3.46.27.66.63,1.2,1.53.81a11,11,0,0,1,7-.81c1.38.24-.19,1.11-.78,1.58a.52.52,0,0,0-.24.27c-.15.45.71.72,1,.69,1.17-.09,2.23-.82,3.41-1a9.9,9.9,0,0,1,3.79.36c4.2,1.15,9.18,2.89,14.21,1.8a34.46,34.46,0,0,0,4-1.18C39,25,38.7,25.3,39.26,24.94S39.77,24.2,39.61,23.58Z" fill="#b96855"/>
          <path d="M31.75,27.72c-.95,0-1.7-1.36-1.7-3.09s.75-3.09,1.7-3.09a.17.17,0,0,1,0,.34c-.74,0-1.36,1.26-1.36,2.75s.62,2.75,1.36,2.75a.17.17,0,1,1,0,.34Z" fill="#5f4268"/>
          <path d="M8.16,23.75c-.84,0-1.5-1.19-1.5-2.71s.66-2.72,1.5-2.72a.16.16,0,0,1,.17.17.16.16,0,0,1-.17.16C7.53,18.65,7,19.75,7,21s.54,2.38,1.17,2.38a.16.16,0,0,1,.17.17A.16.16,0,0,1,8.16,23.75Z" fill="#5f4268"/>
          <path d="M8.16,18.32a1.12,1.12,0,0,1,.88.5,28.35,28.35,0,0,1,5.58,1.06c2.07.5,3.46,1,5.54,1.41a37.94,37.94,0,0,0,8.16,1.2h.48a10,10,0,0,0,1.89-.29,1.35,1.35,0,0,1,1.06-.66,1.08,1.08,0,0,1,.57.17c.4-.14.77-.28,1.1-.43A10.91,10.91,0,0,0,35,20.44c.35-.24.71-.7,1.13-.78h.17c.78,0,1.71,1,2.14,1.47a6.3,6.3,0,0,1,1.21,2.46c.16.62.22,1-.35,1.36s-.22,0-3.61,1.19c-.93.32-1.86.63-2.81.89a1.35,1.35,0,0,1-1.09.7,1.14,1.14,0,0,1-.72-.29,15.56,15.56,0,0,1-2.71.22c-3.87,0-7.6-1.25-10.87-2.14a10.81,10.81,0,0,0-2.82-.42,7.89,7.89,0,0,0-1,.06c-1.18.16-2.24.89-3.41,1h0c-.34,0-1.13-.27-1-.7a.52.52,0,0,1,.24-.27c.59-.47,2.16-1.34.78-1.58a11.54,11.54,0,0,0-1.34-.18,1.06,1.06,0,0,1-.75.34,1,1,0,0,1-.77-.37,10.44,10.44,0,0,0-4.13,1,1.4,1.4,0,0,1-.54.13c-.52,0-.78-.43-1-.94-.61-1.51-.22-3.15.7-3.46A29.58,29.58,0,0,1,7.19,19a1.22,1.22,0,0,1,1-.63m-.49.56.2,0a5.63,5.63,0,0,1,.71,0,.64.64,0,0,0-.42-.17.75.75,0,0,0-.49.23M31.3,22l.52-.16h-.07a.77.77,0,0,0-.45.16M8.16,23.42a.78.78,0,0,0,.21,0H7.93a.59.59,0,0,0,.23.05m23.59,4a.79.79,0,0,0,.52-.21l-.61.14-.14,0a.62.62,0,0,0,.23,0M8.16,16.89a2.48,2.48,0,0,0-1.72.73A31.7,31.7,0,0,0,2,18.77,2.78,2.78,0,0,0,.37,20.29a5,5,0,0,0,0,3.83A2.47,2.47,0,0,0,2.72,26a2.73,2.73,0,0,0,1.11-.25L4,25.64a9.19,9.19,0,0,1,2.93-.8,2.4,2.4,0,0,0,.88.32,1.76,1.76,0,0,0,.29,1.42,2.77,2.77,0,0,0,2.1,1h.15A7.73,7.73,0,0,0,12.54,27a5.86,5.86,0,0,1,1.31-.4,5,5,0,0,1,.78,0,9.35,9.35,0,0,1,2.45.37l1.49.41a35.61,35.61,0,0,0,9.75,1.78,19,19,0,0,0,2.41-.16,2.52,2.52,0,0,0,2.94-.66c.82-.23,1.62-.5,2.44-.78,1.69-.57,2.42-.76,2.81-.87A3,3,0,0,0,40,26.14a2.4,2.4,0,0,0,1-2.92,7.66,7.66,0,0,0-1.5-3,4.71,4.71,0,0,0-3.24-2,3,3,0,0,0-.43,0,3.21,3.21,0,0,0-1.46.82,1.51,1.51,0,0,1-.2.17,9.42,9.42,0,0,1-1.32.73l-.51.21a2.38,2.38,0,0,0-.59-.07,2.58,2.58,0,0,0-1.84.8,7,7,0,0,1-1.15.15h-.44a33.28,33.28,0,0,1-7.26-1l-.6-.13c-1.14-.25-2.07-.5-3.05-.77-.76-.2-1.54-.41-2.46-.63l-1-.25a26.52,26.52,0,0,0-4.31-.82,2.41,2.41,0,0,0-1.5-.53Z" fill="#75411a"/>
        </g>
        <g>
          <g>
            <path d="M9.72,1.43a.54.54,0,0,1,.53.54V3a.52.52,0,0,1-.42.51V4.2a.52.52,0,0,1,.42.51v1a.52.52,0,0,1-.42.51v.69a.54.54,0,0,1,.42.52v1A.52.52,0,0,1,9.83,9v.69a.52.52,0,0,1,.42.51v1a.52.52,0,0,1-.42.51v.69a.53.53,0,0,1,.42.52v1a.54.54,0,0,1-.42.52v.69a.52.52,0,0,1,.42.51v1a.52.52,0,0,1-.42.51v.68a.85.85,0,0,1,.54.86c0,.48-.29.87-.65.87s-.65-.39-.65-.87a.84.84,0,0,1,.54-.86v-.68a.53.53,0,0,1-.43-.51v-1a.52.52,0,0,1,.43-.51v-.69A.54.54,0,0,1,9.18,14V13a.54.54,0,0,1,.43-.52v-.69a.52.52,0,0,1-.43-.51v-1a.53.53,0,0,1,.43-.51V9a.53.53,0,0,1-.43-.51v-1a.54.54,0,0,1,.43-.52V6.25a.52.52,0,0,1-.43-.51v-1a.53.53,0,0,1,.43-.51V3.51A.53.53,0,0,1,9.18,3V2a.54.54,0,0,1,.54-.54M9.61,3.29V3a.11.11,0,0,1,.22,0v.29A.31.31,0,0,0,10,3V2a.31.31,0,0,0-.31-.32A.32.32,0,0,0,9.4,2V3a.32.32,0,0,0,.21.29m.11,1.49a.11.11,0,0,1-.11-.11V4.42a.31.31,0,0,0-.21.29v1A.3.3,0,0,0,9.61,6V5.74a.11.11,0,0,1,.22,0V6a.29.29,0,0,0,.2-.29v-1a.3.3,0,0,0-.2-.29v.25a.11.11,0,0,1-.11.11m0,2.74a.11.11,0,0,1-.11-.11V7.16a.33.33,0,0,0-.21.3v1a.32.32,0,0,0,.21.29V8.49a.11.11,0,0,1,.22,0v.29a.31.31,0,0,0,.2-.29v-1a.32.32,0,0,0-.2-.3v.25a.11.11,0,0,1-.11.11m0,2.74a.11.11,0,0,1-.11-.11V9.91a.31.31,0,0,0-.21.29v1a.31.31,0,0,0,.21.29v-.29a.11.11,0,0,1,.22,0v.29a.3.3,0,0,0,.2-.29v-1a.3.3,0,0,0-.2-.29v.24a.11.11,0,0,1-.11.11m0,2.75a.11.11,0,0,1-.11-.11v-.25a.33.33,0,0,0-.21.3v1a.33.33,0,0,0,.21.3V14a.11.11,0,0,1,.22,0v.29A.32.32,0,0,0,10,14V13a.32.32,0,0,0-.2-.3v.25a.11.11,0,0,1-.11.11m0,2.74a.11.11,0,0,1-.11-.11V15.4a.3.3,0,0,0-.21.29v1a.31.31,0,0,0,.21.29v-.29a.11.11,0,0,1,.22,0V17a.3.3,0,0,0,.2-.29v-1a.29.29,0,0,0-.2-.29v.24a.11.11,0,0,1-.11.11m0,3.67c.23,0,.43-.3.43-.65a.68.68,0,0,0-.32-.63v.25a.11.11,0,0,1-.22,0v-.25a.68.68,0,0,0-.32.63c0,.35.2.65.43.65M9.72,0a2,2,0,0,0-2,2V3a1.9,1.9,0,0,0,.2.85,1.94,1.94,0,0,0-.2.86v1A1.91,1.91,0,0,0,8,6.6a1.91,1.91,0,0,0-.2.86v1a1.9,1.9,0,0,0,.2.85,1.91,1.91,0,0,0-.2.86v1a1.91,1.91,0,0,0,.2.86,1.91,1.91,0,0,0-.2.86v1a1.91,1.91,0,0,0,.2.86,1.91,1.91,0,0,0-.2.86v1a2,2,0,0,0,.19.84,2.55,2.55,0,0,0-.3,1.21,2.18,2.18,0,0,0,2.08,2.31,2.18,2.18,0,0,0,2.08-2.31,2.55,2.55,0,0,0-.3-1.21,2,2,0,0,0,.19-.84v-1a1.91,1.91,0,0,0-.2-.86,1.91,1.91,0,0,0,.2-.86V13a1.91,1.91,0,0,0-.2-.86,1.91,1.91,0,0,0,.2-.86v-1a1.91,1.91,0,0,0-.2-.86,1.9,1.9,0,0,0,.2-.85v-1a1.91,1.91,0,0,0-.2-.86,1.91,1.91,0,0,0,.2-.86v-1a1.94,1.94,0,0,0-.2-.86,1.87,1.87,0,0,0,.2-.85V2a2,2,0,0,0-2-2Z" fill="#575757"/>
            <path d="M30.35,1.51a.54.54,0,0,1,.54.53v1a.52.52,0,0,1-.43.51v.69a.54.54,0,0,1,.43.52v1a.54.54,0,0,1-.43.52V7a.52.52,0,0,1,.43.51v1a.53.53,0,0,1-.43.51v.69a.53.53,0,0,1,.43.51v1a.54.54,0,0,1-.43.52v.69a.52.52,0,0,1,.43.51v1a.53.53,0,0,1-.43.51v.69a.53.53,0,0,1,.43.51v1a.52.52,0,0,1-.43.51V18a.54.54,0,0,1,.43.52v1a.53.53,0,0,1-.43.51v.68a.84.84,0,0,1,.54.86c0,.48-.29.87-.65.87s-.65-.39-.65-.87a.85.85,0,0,1,.54-.86v-.68a.52.52,0,0,1-.42-.51v-1a.54.54,0,0,1,.42-.52V17.3a.52.52,0,0,1-.42-.51v-1a.52.52,0,0,1,.42-.51v-.69a.52.52,0,0,1-.42-.51V13a.52.52,0,0,1,.42-.51v-.69a.54.54,0,0,1-.42-.52v-1a.52.52,0,0,1,.42-.51V9.07a.52.52,0,0,1-.42-.51v-1A.52.52,0,0,1,30.24,7V6.33a.54.54,0,0,1-.42-.52v-1a.54.54,0,0,1,.42-.52V3.58a.52.52,0,0,1-.42-.51V2a.53.53,0,0,1,.53-.53m-.11,1.85V3.07a.11.11,0,0,1,.22,0v.29a.31.31,0,0,0,.21-.29V2a.32.32,0,0,0-.32-.31A.31.31,0,0,0,30,2v1a.3.3,0,0,0,.2.29m.11,1.49a.11.11,0,0,1-.11-.11V4.49a.32.32,0,0,0-.2.3v1a.32.32,0,0,0,.2.3V5.82a.11.11,0,0,1,.22,0v.29a.33.33,0,0,0,.21-.3v-1a.33.33,0,0,0-.21-.3v.25a.11.11,0,0,1-.11.11m0,2.74a.11.11,0,0,1-.11-.11V7.24a.3.3,0,0,0-.2.29v1a.3.3,0,0,0,.2.29V8.56a.11.11,0,1,1,.22,0v.29a.31.31,0,0,0,.21-.29v-1a.31.31,0,0,0-.21-.29v.24a.11.11,0,0,1-.11.11m0,2.75a.11.11,0,0,1-.11-.11V10a.31.31,0,0,0-.2.29v1a.32.32,0,0,0,.2.3v-.3a.11.11,0,1,1,.22,0v.3a.33.33,0,0,0,.21-.3v-1a.32.32,0,0,0-.21-.29v.25a.11.11,0,0,1-.11.11m0,2.74a.11.11,0,0,1-.11-.11v-.24A.29.29,0,0,0,30,13v1a.31.31,0,0,0,.2.29v-.29a.11.11,0,1,1,.22,0v.29a.32.32,0,0,0,.21-.29V13a.3.3,0,0,0-.21-.29V13a.11.11,0,0,1-.11.11m0,2.75a.11.11,0,0,1-.11-.11v-.25a.3.3,0,0,0-.2.29v1a.29.29,0,0,0,.2.29v-.29a.11.11,0,1,1,.22,0v.29a.3.3,0,0,0,.21-.29v-1a.31.31,0,0,0-.21-.29v.25a.11.11,0,0,1-.11.11m0,2.74a.11.11,0,0,1-.11-.11v-.25a.32.32,0,0,0-.2.3v1a.31.31,0,0,0,.2.29v-.29a.11.11,0,0,1,.22,0v.29a.32.32,0,0,0,.21-.29v-1a.33.33,0,0,0-.21-.3v.25a.11.11,0,0,1-.11.11m0,2.74a.11.11,0,0,1-.11-.11V21a.68.68,0,0,0-.32.63c0,.35.2.65.43.65s.43-.3.43-.65a.68.68,0,0,0-.32-.63v.24a.11.11,0,0,1-.11.11m0-21.24a2,2,0,0,0-2,2v1a1.91,1.91,0,0,0,.2.86,1.91,1.91,0,0,0-.2.86v1a1.91,1.91,0,0,0,.2.86,1.91,1.91,0,0,0-.2.86v1a1.91,1.91,0,0,0,.2.86,1.9,1.9,0,0,0-.2.85v1a1.91,1.91,0,0,0,.2.86,1.91,1.91,0,0,0-.2.86v1a1.9,1.9,0,0,0,.2.85,1.94,1.94,0,0,0-.2.86v1a1.91,1.91,0,0,0,.2.86,1.91,1.91,0,0,0-.2.86v1a2,2,0,0,0,.19.84,2.52,2.52,0,0,0-.3,1.21,2.09,2.09,0,1,0,4.16,0,2.52,2.52,0,0,0-.3-1.21,2,2,0,0,0,.19-.84v-1a1.91,1.91,0,0,0-.2-.86,1.91,1.91,0,0,0,.2-.86v-1a1.94,1.94,0,0,0-.2-.86,1.9,1.9,0,0,0,.2-.85V13a1.91,1.91,0,0,0-.2-.86,1.91,1.91,0,0,0,.2-.86v-1a1.9,1.9,0,0,0-.2-.85,1.91,1.91,0,0,0,.2-.86v-1a1.91,1.91,0,0,0-.2-.86,1.91,1.91,0,0,0,.2-.86v-1a1.91,1.91,0,0,0-.2-.86,1.91,1.91,0,0,0,.2-.86V2a2,2,0,0,0-2-2Z" fill="#575757"/>
          </g>
          <g>
            <g>
              <g>
                <g>
                  <path d="M9.72,17.25a.54.54,0,0,1-.54-.53v-1a.54.54,0,1,1,1.07,0v1A.53.53,0,0,1,9.72,17.25Zm0-1.88a.33.33,0,0,0-.32.32v1a.32.32,0,0,0,.32.31.31.31,0,0,0,.31-.31v-1A.32.32,0,0,0,9.72,15.37Z" fill="#cecece"/>
                  <path d="M9.72,18.5a.11.11,0,0,1-.11-.11V16.72a.11.11,0,0,1,.22,0v1.67A.11.11,0,0,1,9.72,18.5Z" fill="#cecece"/>
                </g>
                <g>
                  <path d="M9.72,14.51A.54.54,0,0,1,9.18,14V13a.54.54,0,1,1,1.07,0v1A.54.54,0,0,1,9.72,14.51Zm0-1.88A.32.32,0,0,0,9.4,13v1a.32.32,0,0,0,.32.32A.31.31,0,0,0,10,14V13A.31.31,0,0,0,9.72,12.63Z" fill="#cecece"/>
                  <path d="M9.72,15.75a.11.11,0,0,1-.11-.11V14a.11.11,0,0,1,.22,0v1.66A.11.11,0,0,1,9.72,15.75Z" fill="#cecece"/>
                </g>
                <g>
                  <path d="M9.72,11.76a.54.54,0,0,1-.54-.53v-1a.54.54,0,0,1,1.07,0v1A.53.53,0,0,1,9.72,11.76Zm0-1.87a.32.32,0,0,0-.32.31v1a.32.32,0,0,0,.32.31.31.31,0,0,0,.31-.31v-1A.31.31,0,0,0,9.72,9.89Z" fill="#cecece"/>
                  <path d="M9.72,13a.11.11,0,0,1-.11-.11V11.23a.11.11,0,0,1,.22,0V12.9A.11.11,0,0,1,9.72,13Z" fill="#cecece"/>
                </g>
                <g>
                  <path d="M9.72,9a.54.54,0,0,1-.54-.53v-1a.54.54,0,1,1,1.07,0v1A.53.53,0,0,1,9.72,9Zm0-1.88a.32.32,0,0,0-.32.32v1a.32.32,0,0,0,.32.31A.31.31,0,0,0,10,8.49v-1A.31.31,0,0,0,9.72,7.14Z" fill="#cecece"/>
                  <path d="M9.72,10.26a.11.11,0,0,1-.11-.11V8.49a.11.11,0,0,1,.22,0v1.66A.11.11,0,0,1,9.72,10.26Z" fill="#cecece"/>
                </g>
                <g>
                  <path d="M9.72,6.28a.54.54,0,0,1-.54-.54v-1a.54.54,0,0,1,1.07,0v1A.54.54,0,0,1,9.72,6.28Zm0-1.88a.32.32,0,0,0-.32.31v1a.33.33,0,0,0,.32.32A.32.32,0,0,0,10,5.74v-1A.31.31,0,0,0,9.72,4.4Z" fill="#cecece"/>
                  <path d="M9.72,7.52a.11.11,0,0,1-.11-.11V5.74a.11.11,0,0,1,.22,0V7.41A.11.11,0,0,1,9.72,7.52Z" fill="#cecece"/>
                </g>
                <g>
                  <path d="M9.72,3.53A.54.54,0,0,1,9.18,3V2a.54.54,0,1,1,1.07,0V3A.53.53,0,0,1,9.72,3.53Zm0-1.88A.32.32,0,0,0,9.4,2V3a.32.32,0,0,0,.32.31A.31.31,0,0,0,10,3V2A.31.31,0,0,0,9.72,1.65Z" fill="#cecece"/>
                  <path d="M9.72,4.78a.11.11,0,0,1-.11-.11V3a.11.11,0,0,1,.22,0V4.67A.11.11,0,0,1,9.72,4.78Z" fill="#cecece"/>
                </g>
                <g>
                  <path d="M9.72,3.53A.54.54,0,0,1,9.18,3V2a.54.54,0,1,1,1.07,0V3A.53.53,0,0,1,9.72,3.53Zm0-1.88A.32.32,0,0,0,9.4,2V3a.32.32,0,0,0,.32.31A.31.31,0,0,0,10,3V2A.31.31,0,0,0,9.72,1.65Z" fill="#cecece"/>
                  <path d="M9.72,4.78a.11.11,0,0,1-.11-.11V3a.11.11,0,0,1,.22,0V4.67A.11.11,0,0,1,9.72,4.78Z" fill="#cecece"/>
                </g>
              </g>
              <path d="M9.72,19.64c-.36,0-.65-.39-.65-.87s.29-.87.65-.87.65.39.65.87S10.08,19.64,9.72,19.64Zm0-1.52c-.23,0-.43.3-.43.65s.2.65.43.65.43-.3.43-.65S10,18.12,9.72,18.12Z" fill="#cecece"/>
            </g>
            <g>
              <g>
                <g>
                  <path d="M30.35,20.07a.53.53,0,0,1-.53-.53v-1a.54.54,0,1,1,1.07,0v1A.54.54,0,0,1,30.35,20.07Zm0-1.88a.31.31,0,0,0-.31.32v1a.31.31,0,0,0,.31.31.32.32,0,0,0,.32-.31v-1A.32.32,0,0,0,30.35,18.19Z" fill="#cecece"/>
                  <path d="M30.35,21.31a.11.11,0,0,1-.11-.11V19.54a.11.11,0,0,1,.22,0V21.2A.11.11,0,0,1,30.35,21.31Z" fill="#cecece"/>
                </g>
                <g>
                  <path d="M30.35,17.33a.54.54,0,0,1-.53-.54v-1a.54.54,0,0,1,1.07,0v1A.54.54,0,0,1,30.35,17.33Zm0-1.88a.31.31,0,0,0-.31.31v1a.32.32,0,0,0,.31.32.33.33,0,0,0,.32-.32v-1A.32.32,0,0,0,30.35,15.45Z" fill="#cecece"/>
                  <path d="M30.35,18.57a.11.11,0,0,1-.11-.11V16.79a.11.11,0,1,1,.22,0v1.67A.11.11,0,0,1,30.35,18.57Z" fill="#cecece"/>
                </g>
                <g>
                  <path d="M30.35,14.58a.53.53,0,0,1-.53-.53V13a.54.54,0,1,1,1.07,0v1A.54.54,0,0,1,30.35,14.58Zm0-1.88A.31.31,0,0,0,30,13v1a.31.31,0,0,0,.31.31.32.32,0,0,0,.32-.31V13A.32.32,0,0,0,30.35,12.7Z" fill="#cecece"/>
                  <path d="M30.35,15.83a.11.11,0,0,1-.11-.11V14.05a.11.11,0,1,1,.22,0v1.67A.11.11,0,0,1,30.35,15.83Z" fill="#cecece"/>
                </g>
                <g>
                  <path d="M30.35,11.84a.54.54,0,0,1-.53-.54v-1a.54.54,0,0,1,1.07,0v1A.54.54,0,0,1,30.35,11.84Zm0-1.88a.31.31,0,0,0-.31.31v1a.31.31,0,0,0,.31.32.32.32,0,0,0,.32-.32v-1A.32.32,0,0,0,30.35,10Z" fill="#cecece"/>
                  <path d="M30.35,13.08a.11.11,0,0,1-.11-.11V11.3a.11.11,0,1,1,.22,0V13A.11.11,0,0,1,30.35,13.08Z" fill="#cecece"/>
                </g>
                <g>
                  <path d="M30.35,9.09a.53.53,0,0,1-.53-.53v-1a.54.54,0,0,1,1.07,0v1A.54.54,0,0,1,30.35,9.09Zm0-1.88a.32.32,0,0,0-.31.32v1a.31.31,0,0,0,.31.31.32.32,0,0,0,.32-.31v-1A.33.33,0,0,0,30.35,7.21Z" fill="#cecece"/>
                  <path d="M30.35,10.34a.11.11,0,0,1-.11-.11V8.56a.11.11,0,1,1,.22,0v1.67A.11.11,0,0,1,30.35,10.34Z" fill="#cecece"/>
                </g>
                <g>
                  <path d="M30.35,6.35a.54.54,0,0,1-.53-.54v-1a.54.54,0,1,1,1.07,0v1A.54.54,0,0,1,30.35,6.35Zm0-1.88a.31.31,0,0,0-.31.32v1a.31.31,0,0,0,.31.32.32.32,0,0,0,.32-.32v-1A.32.32,0,0,0,30.35,4.47Z" fill="#cecece"/>
                  <path d="M30.35,7.59a.11.11,0,0,1-.11-.11V5.82a.11.11,0,0,1,.22,0V7.48A.11.11,0,0,1,30.35,7.59Z" fill="#cecece"/>
                </g>
                <g>
                  <path d="M30.35,6.35a.54.54,0,0,1-.53-.54v-1a.54.54,0,1,1,1.07,0v1A.54.54,0,0,1,30.35,6.35Zm0-1.88a.31.31,0,0,0-.31.32v1a.31.31,0,0,0,.31.32.32.32,0,0,0,.32-.32v-1A.32.32,0,0,0,30.35,4.47Z" fill="#cecece"/>
                  <path d="M30.35,7.59a.11.11,0,0,1-.11-.11V5.82a.11.11,0,0,1,.22,0V7.48A.11.11,0,0,1,30.35,7.59Z" fill="#cecece"/>
                </g>
                <g>
                  <path d="M30.35,3.61a.54.54,0,0,1-.53-.54V2a.54.54,0,0,1,1.07,0v1A.54.54,0,0,1,30.35,3.61Zm0-1.88A.31.31,0,0,0,30,2v1a.32.32,0,0,0,.31.32.33.33,0,0,0,.32-.32V2A.32.32,0,0,0,30.35,1.73Z" fill="#cecece"/>
                  <path d="M30.35,4.85a.11.11,0,0,1-.11-.11V3.07a.11.11,0,0,1,.22,0V4.74A.11.11,0,0,1,30.35,4.85Z" fill="#cecece"/>
                </g>
              </g>
              <path d="M30.35,22.46c-.36,0-.65-.39-.65-.87s.29-.88.65-.88.65.4.65.88S30.71,22.46,30.35,22.46Zm0-1.53c-.23,0-.43.3-.43.66s.2.65.43.65.43-.3.43-.65S30.58,20.93,30.35,20.93Z" fill="#cecece"/>
            </g>
          </g>
        </g>
        <path d="M14.83,15.13C16.78,16.51,18.09,17,19,17c1.73,0,2-1.66,2.47-1.66.25,0,.55.43,1.14,1.75a2.72,2.72,0,0,1,.95-.2c.81,0,.94.63,2,.63a5,5,0,0,0,1.54-.32c.63-1,1-1.35,1.32-1.35.83,0,.93,2.85,3.38,3,.15-.71.47-1,.82-1,.54,0,1.17.64,1.5,1.35a1.24,1.24,0,0,1,.61-.2c.93,0,.88,2,1.66,3.54a3.16,3.16,0,0,1,.88,1.15,2.49,2.49,0,0,0,.52.35.86.86,0,0,1-.43.43.53.53,0,0,1-.58.34,2.54,2.54,0,0,1-.85-.19,9.42,9.42,0,0,1-1.58,5.22c3,.35,1.47,3.26-.51,3.26a2.08,2.08,0,0,1-1.34-.5,12.14,12.14,0,0,0-1.6,6,1.32,1.32,0,0,1,.42-.07c1.48,0,1.56,2.72.78,3.71a.39.39,0,0,1-.15,0c-1.16,0-2.85-2.32-1.64-3.3a12.11,12.11,0,0,1,.21-2.69,3.38,3.38,0,0,1-.8.09,3.68,3.68,0,0,1-.8-.08l.13-.19a.36.36,0,0,0,.07-.1l-.07.1a.35.35,0,0,1-.26.13.44.44,0,0,1-.37-.28c.4-.81,1.23-1.76,2-1.76a.89.89,0,0,1,.61.24,12.32,12.32,0,0,1,1-2c-.6-.18.83-2.26,1.67-2.51a8.46,8.46,0,0,0,.84-1.41c-.74-.32-.85-1.67-.25-1.67a1.19,1.19,0,0,1,.73.42,6.17,6.17,0,0,0,.31-2.76c-.54-.11-1-.25-1.36-.27a.84.84,0,0,1-1,.77c-1.14,0-3-1-3.83-1.28a10.46,10.46,0,0,1-2.92,1.21c-.59,0-.74-.6-.92-2.09a1.65,1.65,0,0,1-1.56,1.13c-1.23,0-2.71-1.12-3.64-1.12H20c-.22.47-1.47.69-3,.69-3,0-7.06-.85-6.41-2.32a4.14,4.14,0,0,0-.86-.07c-.75,0-1.72.09-2.66.17a3.13,3.13,0,0,1,.18.57c2.17.27,1.8,3.25.09,3.25A1.24,1.24,0,0,1,6.94,25,8.52,8.52,0,0,0,9.2,29.05c.26-.38.49-.53.75-.53s.82.33,1.44.82c.78.74-.18,2.42-.82,2.43a6.41,6.41,0,0,1,.4,3c1.48.3.14,2-.81,2a.64.64,0,0,1-.38-.12c0-.75,0-1.69.76-1.94a6.17,6.17,0,0,0-.43-3,2.27,2.27,0,0,1-1.32-1,1.47,1.47,0,0,1-.34.05c-1.19,0-1.57-2.05-.23-2.05h.16a7.94,7.94,0,0,1-1.93-4,1.42,1.42,0,0,1-.26-2.31c-.09-.23-.61-.25-.75-.57a.91.91,0,0,1-.23-.5c-1.55,0-2.24-.43.07-2.19-1.33-1.39-.46-1.71.78-1.71.8,0,1.76.14,2.36.19-.53-1.19.53-1.77,1.71-1.77s2.26.49,2.39,1.42h.13c1.06,0,.6-1.95,2.18-2.14m0-1.43h-.17a2.71,2.71,0,0,0-2.1,1.34,4.55,4.55,0,0,0-2.43-.64,3.32,3.32,0,0,0-2.9,1.32,1.72,1.72,0,0,0-.17.31c-.33,0-.67,0-1,0h0c-.54,0-2.17,0-2.72,1.3a1.92,1.92,0,0,0,0,1.58,2.45,2.45,0,0,0-.92,2.48,2.11,2.11,0,0,0,1.84,1.34l.08.1a2.73,2.73,0,0,0-.06,1,2.81,2.81,0,0,0,.81,1.68,7.84,7.84,0,0,0,1.2,2.83l-.07.1a2.61,2.61,0,0,0,.07,2.55,2.46,2.46,0,0,0,1.82,1.25,3.92,3.92,0,0,0,.83.64A4.74,4.74,0,0,1,9.14,34a3.51,3.51,0,0,0-.79,2.79,1.4,1.4,0,0,0,.57,1.06,2,2,0,0,0,1.24.41,3.14,3.14,0,0,0,2.89-2.64A2,2,0,0,0,12.44,34a7.87,7.87,0,0,0-.2-1.6,3.79,3.79,0,0,0,.64-1.08,2.63,2.63,0,0,0-.5-3,.52.52,0,0,0-.11-.1A3.89,3.89,0,0,0,10,27.08a2.3,2.3,0,0,0-.45.05,9.12,9.12,0,0,1-.71-1.08,3,3,0,0,0,1.37-2.41,2.43,2.43,0,0,0,0-.27c2,1.47,6.28,1.52,6.82,1.52a7.33,7.33,0,0,0,3.41-.59l.64.27a6.67,6.67,0,0,0,2.65.75,3.29,3.29,0,0,0,.71-.08,1.89,1.89,0,0,0,1.77,1,7.11,7.11,0,0,0,2.87-1l.11-.06.39.17a10.7,10.7,0,0,0,3.06,1,2,2,0,0,0-.17.48,2.73,2.73,0,0,0,.27,1.8l-.07.11a5.05,5.05,0,0,0-2.27,3.4.38.38,0,0,0,0,.1c-.09.16-.17.33-.26.51a4.39,4.39,0,0,0-3,2.54,1.43,1.43,0,0,0,0,1.32,2,2,0,0,0,1.23,1,1,1,0,0,0,.25.07l.26.05c0,.24,0,.47,0,.71a2.79,2.79,0,0,0-.21,2.52,4,4,0,0,0,3.29,2.73,2.12,2.12,0,0,0,.44,0,1.45,1.45,0,0,0,.85-.53,4.76,4.76,0,0,0,.38-4.52,2.65,2.65,0,0,0-1.21-1.26,10.7,10.7,0,0,1,.77-2.87,3.61,3.61,0,0,0,4.3-3.16,2.56,2.56,0,0,0-1.08-2.23,10.73,10.73,0,0,0,.85-2.88,2,2,0,0,0,1.17-.7,2.38,2.38,0,0,0,.68-.89,1.44,1.44,0,0,0-.66-1.85l0,0a4.42,4.42,0,0,0-.84-1.08,10.87,10.87,0,0,1-.42-1.33c-.29-1.09-.73-2.73-2.37-2.76a2.89,2.89,0,0,0-2.15-1.15,2.09,2.09,0,0,0-1.51.65,4,4,0,0,1-.65-1c-.34-.66-.87-1.66-2-1.66h0A2.9,2.9,0,0,0,26.14,16a2.61,2.61,0,0,1-.63.1c-.14,0-.15,0-.35-.13a3,3,0,0,0-1.61-.5h-.14c-.46-.87-1-1.56-1.95-1.56h0a2,2,0,0,0-1.66,1.07c-.33.47-.46.59-.81.59s-1.4-.2-3.33-1.57a1.43,1.43,0,0,0-.83-.26Z" fill="#96b85c"/>
        <g>
          <path d="M37.74,24c-2.67-1.37-1.56-6.06-3.67-4.84C33.52,18,32.14,17,31.75,18.8c-3.33-.17-2.32-5.36-4.7-1.63-3.12,1-2.18-.93-4.45-.11-2.34-5.24-.18,3.45-7.77-1.93-1.64.2-1.08,2.29-2.31,2.13-.27-1.94-5.12-1.94-4.1.35-1.53-.14-5.34-.78-3.14,1.52-4.8,3.65,3.34,1.52,5.29,2-1,2.22,8.78,3,9.42,1.63,1.39-.06,4.06,2.56,5.25,0,.33,2.8.57,2.45,3.84.88,1.27.41,4.54,2.34,4.79.51C34.76,24.2,37.22,25.19,37.74,24Z" fill="#b9e48e"/>
          <path d="M36.3,22.48c-1.22-1-2.4,1.21-1.09,1.85a5.75,5.75,0,0,1-.29,2.84c-1.34-1.32-1.44.83-.48,1.25a8.46,8.46,0,0,1-.84,1.41c-.84.25-2.27,2.33-1.67,2.51a12.32,12.32,0,0,0-1,2c-.87-.78-2.09.49-2.6,1.52.18.34.5.4.7.05l-.2.29a3.59,3.59,0,0,0,1.6,0,12.11,12.11,0,0,0-.21,2.69c-1.27,1,.65,3.52,1.79,3.28.85-1.08.67-4.21-1.2-3.64a12.14,12.14,0,0,1,1.6-6c2.39,1.93,5.55-2.33,1.85-2.76a9.42,9.42,0,0,0,1.58-5.22C38.14,25.42,37.4,23.29,36.3,22.48Z" fill="#b9e48e"/>
          <path d="M6.56,20.48c-.86-.65-1.8.58-1.12,1.34.14.32.66.34.75.57a1.42,1.42,0,0,0,.26,2.31,7.94,7.94,0,0,0,1.93,4c-1.66-.18-1.09,2.44.41,2a2.27,2.27,0,0,0,1.32,1,6.17,6.17,0,0,1,.43,3c-.72.25-.8,1.19-.76,1.94.88.65,2.88-1.59,1.19-1.93a6.41,6.41,0,0,0-.4-3c.64,0,1.6-1.69.82-2.43-1-.81-1.56-1.22-2.19-.29A8.52,8.52,0,0,1,6.94,25c2,.48,2.62-2.91.29-3.2A2.46,2.46,0,0,0,6.56,20.48Z" fill="#b9e48e"/>
        </g>
      </g>
    </g>
  </g>
</svg>
