<svg xmlns="http://www.w3.org/2000/svg" width="41.16" height="41.45" viewBox="0 0 41.16 41.45">
  <g id="Layer_2" data-name="Layer 2">
    <g id="Layer_5" data-name="Layer 5">
      <g id="owl_clean_1" data-name="owl_clean 1">
        <g>
          <path d="M8,40.73A7.32,7.32,0,0,1,.72,33.42V10.7A7.32,7.32,0,0,1,8,3.39H21A1.31,1.31,0,1,1,21,6H8a4.71,4.71,0,0,0-4.7,4.7V33.42A4.71,4.71,0,0,0,8,38.12H35.57a1.31,1.31,0,1,1,0,2.61Z" fill="#cecece"/>
          <path d="M21,4.11a.58.58,0,0,1,.59.59.59.59,0,0,1-.59.59H8A5.42,5.42,0,0,0,2.61,10.7V33.42A5.42,5.42,0,0,0,8,38.84H35.57a.58.58,0,0,1,.59.59.59.59,0,0,1-.59.59H8a6.61,6.61,0,0,1-6.6-6.6V10.7A6.6,6.6,0,0,1,8,4.11H21m0-1.44H8a8,8,0,0,0-8,8V33.42a8,8,0,0,0,8,8H35.57a2,2,0,1,0,0-4.05H8a4,4,0,0,1-4-4V10.7a4,4,0,0,1,4-4H21a2,2,0,1,0,0-4Z" fill="#8d8d8d"/>
        </g>
        <g>
          <g>
            <path d="M21,26.6c-1.13,0-11-.08-11-3s9.87-3,11-3,11,.08,11,3S22.12,26.6,21,26.6Z" fill="#cecece"/>
            <path d="M21,21.34c5.67,0,10.28,1,10.28,2.27S26.67,25.89,21,25.89s-10.29-1-10.29-2.28S15.32,21.34,21,21.34M25.42,25c.63,0,1.15-.09,1.15-.2s-.52-.21-1.15-.21-1.15.09-1.15.21.52.2,1.15.2m-8.85,0c.63,0,1.15-.09,1.15-.2s-.52-.21-1.15-.21-1.15.09-1.15.21.52.2,1.15.2M21,25.3c.63,0,1.14-.09,1.14-.2s-.51-.2-1.14-.2-1.15.09-1.15.2.51.2,1.15.2m0-5.4c-3.53,0-11.72.36-11.72,3.71S17.47,27.32,21,27.32,32.71,27,32.71,23.61,24.52,19.9,21,19.9Z" fill="#8d8d8d"/>
          </g>
          <g>
            <path d="M20.05,10.17a.72.72,0,0,1-.72-.72V2.38a1.67,1.67,0,0,1,3.33,0V9.45a.72.72,0,0,1-.72.72Z" fill="#8d8d8d"/>
            <path d="M21,1.43a1,1,0,0,1,1,1V9.45H20.05V2.38A1,1,0,0,1,21,1.43M21,0a2.38,2.38,0,0,0-2.37,2.38V9.45a1.43,1.43,0,0,0,1.43,1.43h1.89a1.43,1.43,0,0,0,1.43-1.43V2.38A2.38,2.38,0,0,0,21,0Z" fill="#575757"/>
          </g>
          <g>
            <path d="M12.72,22.83a.73.73,0,0,1-.58-.29,6.64,6.64,0,0,1-1.32-3.93c0-3.64,3.14-6.79,7.64-7.68V7.35a2.54,2.54,0,0,1,5.07,0v3.58c4.46.88,7.64,4,7.64,7.68a6.7,6.7,0,0,1-1.32,3.93.73.73,0,0,1-.58.29Z" fill="#baa2ee"/>
            <path d="M21,5.53a1.82,1.82,0,0,1,1.82,1.82v4.18c4.36.65,7.65,3.57,7.65,7.08a5.87,5.87,0,0,1-1.19,3.5H12.72a5.87,5.87,0,0,1-1.19-3.5c0-3.37,3-6.2,7.13-7l.52-.09V7.35A1.82,1.82,0,0,1,21,5.53h0M21,4.1a3.26,3.26,0,0,0-3.25,3.25v3c-4.53,1.11-7.64,4.44-7.64,8.26A7.39,7.39,0,0,0,11.56,23a1.44,1.44,0,0,0,1.16.59H29.27A1.42,1.42,0,0,0,30.42,23a7.33,7.33,0,0,0,1.47-4.35c0-3.82-3.15-7.15-7.64-8.26v-3A3.26,3.26,0,0,0,21,4.1Z" fill="#7850b3"/>
          </g>
          <g>
            <g>
              <path d="M22.69,18.33a8.28,8.28,0,0,1-1.77-.21,4.65,4.65,0,0,1-1.43.2,7,7,0,0,1-.91-.06,2.51,2.51,0,0,1-2-1.12,3,3,0,0,1,.27-2.66,2.27,2.27,0,0,0,.2-.6,1.63,1.63,0,0,1,.24-1.16.52.52,0,0,1,.36-.16h.11a1.63,1.63,0,0,1,.63.31,8.38,8.38,0,0,1,2.56-.4,7.15,7.15,0,0,1,2.63.49,1.77,1.77,0,0,1,.71-.34h.09a.46.46,0,0,1,.36.17,1.5,1.5,0,0,1,.1,1.34h0a1.57,1.57,0,0,1,.23.36,3.59,3.59,0,0,1,.53,1.38,1.93,1.93,0,0,1-.84,1.85,3,3,0,0,1-2.07.61Z" fill="#baa2ee"/>
              <path d="M21,13a6.6,6.6,0,0,1,2.52.48l.29.07c.12-.31.62-.41.62-.41.21.24,0,.88,0,.88-.06.44.62,1,.75,1.95a1.44,1.44,0,0,1-.62,1.38,2.67,2.67,0,0,1-1.82.55,7.68,7.68,0,0,1-1.8-.24,4,4,0,0,1-1.4.22,5.67,5.67,0,0,1-.84-.06c-2.45-.34-1.85-2.05-1.37-3.09a2.56,2.56,0,0,0,.25-.81s-.08-.61.12-.84c0,0,.46.1.59.4A7.8,7.8,0,0,1,21,13m0-1a9.06,9.06,0,0,0-2.47.34,2.38,2.38,0,0,0-.62-.25l-.21,0a1,1,0,0,0-.71.32,2,2,0,0,0-.37,1.46,2.22,2.22,0,0,1-.16.42,3.56,3.56,0,0,0-.25,3.09,3,3,0,0,0,2.36,1.36,5.86,5.86,0,0,0,1,.07,5.25,5.25,0,0,0,1.45-.19,8.61,8.61,0,0,0,1.75.2,3.6,3.6,0,0,0,2.41-.74,2.43,2.43,0,0,0,1-2.27,4.18,4.18,0,0,0-.59-1.55L25.36,14a1.75,1.75,0,0,0-.26-1.55,1,1,0,0,0-.72-.32.65.65,0,0,0-.19,0,2.05,2.05,0,0,0-.68.26A7.72,7.72,0,0,0,21,12Z" fill="#7850b3"/>
            </g>
            <g>
              <circle cx="18.91" cy="15.34" r="1.08" transform="translate(-2.21 3.22) rotate(-9.19)" fill="#7850b3"/>
              <circle cx="23.08" cy="15.34" r="1.08" fill="#7850b3"/>
            </g>
            <path d="M20.24,16.19a.76.76,0,0,1,1.51,0l-.74.95Z" fill="#7850b3"/>
          </g>
          <g>
            <path d="M10.78,24a3.38,3.38,0,0,1-2.06-.66,2.26,2.26,0,0,1-1-1.81,2.79,2.79,0,0,1,3-2.47H31.21a3.42,3.42,0,0,1,2.06.66,2.27,2.27,0,0,1,.95,1.81,2.78,2.78,0,0,1-3,2.47Z" fill="#baa2ee"/>
            <path d="M31.21,19.79a2.72,2.72,0,0,1,1.62.51,1.58,1.58,0,0,1,.68,1.24,2.08,2.08,0,0,1-2.3,1.75H10.78a2.68,2.68,0,0,1-1.63-.51,1.58,1.58,0,0,1-.67-1.24,2.08,2.08,0,0,1,2.3-1.75H31.21m0-1.43H10.78a3.45,3.45,0,0,0-3.73,3.18,3,3,0,0,0,1.23,2.38,4.18,4.18,0,0,0,2.5.81H31.21a3.45,3.45,0,0,0,3.73-3.19,3,3,0,0,0-1.23-2.37,4.07,4.07,0,0,0-2.5-.81Z" fill="#7850b3"/>
          </g>
        </g>
        <rect x="8.48" y="36.24" width="31.96" height="2.7" rx="1.35" fill="#f1f2f2" stroke="#8d8d8d" stroke-linecap="round" stroke-linejoin="round" stroke-width="1.43"/>
      </g>
    </g>
  </g>
</svg>
