<svg xmlns="http://www.w3.org/2000/svg" width="40.34" height="41.02" viewBox="0 0 40.34 41.02">
  <g id="Layer_2" data-name="Layer 2">
    <g id="Layer_5" data-name="Layer 5">
      <g id="owl_clean_2" data-name="owl_clean 2">
        <g>
          <path d="M33.53,33.29a.69.69,0,0,1-.41-.13l-4.65-3.27a.71.71,0,0,1-.17-1l5.37-7.65a.7.7,0,0,1,.46-.29h.13a.69.69,0,0,1,.41.13l4.65,3.26a.74.74,0,0,1,.29.73A13.07,13.07,0,0,1,34,33.16.72.72,0,0,1,33.53,33.29Z" fill="#ffeb81"/>
          <path d="M34.26,21.66l4.65,3.27a12.28,12.28,0,0,1-5.38,7.64l-4.65-3.26,5.38-7.65m0-1.43a1.44,1.44,0,0,0-1.18.61l-5.37,7.64a1.44,1.44,0,0,0,.35,2l4.65,3.27a1.45,1.45,0,0,0,.82.26,1.42,1.42,0,0,0,.83-.27,13.72,13.72,0,0,0,6-8.53,1.43,1.43,0,0,0-.58-1.45l-4.65-3.27a1.4,1.4,0,0,0-.82-.26Z" fill="#ffaa5a"/>
        </g>
        <g>
          <path d="M13.46,40.3c-1.56,0-7-2.87-7.47-5.33a.73.73,0,0,1,.2-.66,40.73,40.73,0,0,0,8-11.45.7.7,0,0,1,.47-.38l.17,0a.74.74,0,0,1,.41.13l6.78,4.76a.7.7,0,0,1,.23.9A50,50,0,0,1,14,40.07a.73.73,0,0,1-.54.23Z" fill="#baa2ee"/>
          <path d="M14.87,23.18l6.78,4.76a49.86,49.86,0,0,1-8.19,11.65c-1.39,0-6.36-2.76-6.77-4.77a41.66,41.66,0,0,0,8.18-11.64m0-1.44a1.41,1.41,0,0,0-.35.05,1.43,1.43,0,0,0-.93.75,40.07,40.07,0,0,1-7.9,11.25,1.47,1.47,0,0,0-.41,1.32C5.86,38,11.65,41,13.45,41h0a1.44,1.44,0,0,0,1.07-.47,51,51,0,0,0,8.41-12,1.43,1.43,0,0,0-.47-1.79L15.7,22a1.48,1.48,0,0,0-.83-.26Z" fill="#7850b3"/>
        </g>
        <path d="M30.31,11.29a11.34,11.34,0,0,0-5.3-2h0A25.59,25.59,0,0,1,10.45,2.4L3,12.08C8,15.41,10.56,18.33,13.73,24h0a11.4,11.4,0,0,0,4.05,5.12A11,11,0,0,0,33.2,26.63,11,11,0,0,0,30.31,11.29Z" fill="#baa2ee"/>
        <ellipse cx="6.53" cy="7.07" rx="6.12" ry="4.51" transform="translate(-3.01 8.35) rotate(-54.91)" fill="#d7cafc"/>
        <ellipse cx="6.53" cy="7.07" rx="4.61" ry="3" transform="translate(-3.01 8.35) rotate(-54.91)" fill="#575757"/>
        <g>
          <path d="M24.86,27.78a6.77,6.77,0,0,1-3.92-1.25,6.65,6.65,0,0,1-1.73-9.24,6.54,6.54,0,0,1,5.35-2.75,6.87,6.87,0,0,1,6.71,5.55A6.48,6.48,0,0,1,30.22,25,6.55,6.55,0,0,1,24.86,27.78Z" fill="#baa2ee"/>
          <path d="M24.56,15.26a6,6,0,0,1,3.51,1.12,5.93,5.93,0,0,1,1.56,8.24,5.8,5.8,0,0,1-4.77,2.44,6.07,6.07,0,0,1-3.51-1.12,5.93,5.93,0,0,1-1.56-8.23,5.8,5.8,0,0,1,4.77-2.45m0-1.43h0a7.27,7.27,0,0,0-5.94,3,7.37,7.37,0,0,0,1.91,10.24,7.49,7.49,0,0,0,4.33,1.37,7.24,7.24,0,0,0,5.94-3A7.14,7.14,0,0,0,32,20a7.56,7.56,0,0,0-7.41-6.13Z" fill="#7850b3"/>
        </g>
        <g>
          <g>
            <path d="M26.32,25.32c-1.45,0-2.85-1.47-3.26-1.94a6.13,6.13,0,0,1-2-1.26A2.54,2.54,0,0,1,20,20c.11-1,1.07-1.66,1.78-2.07a2.21,2.21,0,0,0,.53-.39,1.58,1.58,0,0,1,.89-.82l.11,0a.48.48,0,0,1,.35.16,1.52,1.52,0,0,1,.35.63,8.12,8.12,0,0,1,4.3,3.14h.13a1.66,1.66,0,0,1,.67.15.47.47,0,0,1,.28.38c.06.54-.47,1-.7,1.17a2.21,2.21,0,0,1,0,.45,3.88,3.88,0,0,1-.36,1.47,2,2,0,0,1-1.74,1h-.24Z" fill="#baa2ee"/>
            <path d="M23.31,17.2a.93.93,0,0,1,.25.68A7.74,7.74,0,0,1,28,21l.2.23a.52.52,0,0,1,.3-.08,1.33,1.33,0,0,1,.46.1c0,.32-.51.74-.51.74-.32.33-.09,1.23-.53,2.08a1.49,1.49,0,0,1-1.31.79h0l-.22,0c-1.45,0-3-1.9-3-1.9a5.17,5.17,0,0,1-2-1.18C19.49,20,21,19,22,18.36a2.53,2.53,0,0,0,.69-.53s.28-.55.6-.63m0-1a.91.91,0,0,0-.23,0,2.06,2.06,0,0,0-1.15,1,2.35,2.35,0,0,1-.39.28,3.58,3.58,0,0,0-2,2.42,3,3,0,0,0,1.16,2.51,6.29,6.29,0,0,0,2.1,1.32c.54.59,2,2,3.53,2h.27a2.42,2.42,0,0,0,2.13-1.31,4.21,4.21,0,0,0,.42-1.65c0-.08,0-.19,0-.27a1.76,1.76,0,0,0,.69-1.44.94.94,0,0,0-.56-.77,2.19,2.19,0,0,0-.74-.18,8.63,8.63,0,0,0-4.18-3,2.3,2.3,0,0,0-.37-.58,1,1,0,0,0-.7-.31Z" fill="#7850b3"/>
          </g>
          <g>
            <circle cx="22.69" cy="20.32" r="1.11" transform="translate(-5.5 31.86) rotate(-64.1)" fill="#7850b3"/>
            <circle cx="26.19" cy="22.78" r="1.11" fill="#7850b3"/>
          </g>
          <path d="M23.61,21.37a.83.83,0,0,1,1-.1.84.84,0,0,1,.26,1l-1.19.35Z" fill="#7850b3"/>
        </g>
        <path d="M8,1.43a3.58,3.58,0,0,1,2.09.64,4.12,4.12,0,0,1,.4.33h0A25.59,25.59,0,0,0,25,9.27h0a11.34,11.34,0,0,1,5.3,2A11,11,0,0,1,33.2,26.63a10.78,10.78,0,0,1-8.88,4.56A11.45,11.45,0,0,1,13.73,24C10.56,18.33,8,15.41,3,12.08H3C1,10.65.9,7.24,2.84,4.48A6.62,6.62,0,0,1,8,1.43M8,0H8A8,8,0,0,0,1.67,3.66,8.69,8.69,0,0,0,0,8.81a5.44,5.44,0,0,0,2.19,4.44c4.69,3.14,7.18,5.91,10.25,11.36a12.91,12.91,0,0,0,11.88,8,12.31,12.31,0,0,0,10.06-5.17,12.13,12.13,0,0,0,2-9.28A12.85,12.85,0,0,0,25.22,7.86h0A24.36,24.36,0,0,1,11.45,1.37l-.07-.06a4.71,4.71,0,0,0-.51-.42A5.06,5.06,0,0,0,8,0Z" fill="#7850b3"/>
      </g>
    </g>
  </g>
</svg>
