<svg xmlns="http://www.w3.org/2000/svg" width="41.05" height="41.05" viewBox="0 0 41.05 41.05">
  <g style="isolation: isolate">
    <g id="Layer_2" data-name="Layer 2">
      <g id="Layer_5" data-name="Layer 5">
        <g id="owl_toy_4" data-name="owl_toy 4">
          <g id="_315704584" data-name=" 315704584" opacity="0.5">
            <path d="M16.36,29.62A13.25,13.25,0,0,1,7,7,13.25,13.25,0,0,1,25.73,25.74,13.19,13.19,0,0,1,16.36,29.62Z" fill="#a7bfee" fill-rule="evenodd"/>
            <path d="M16.36,3.83a12.53,12.53,0,0,1,8.86,21.4A12.53,12.53,0,1,1,7.5,7.51a12.44,12.44,0,0,1,8.86-3.68m0-1.43A14,14,0,0,0,6.48,26.24,14,14,0,1,0,26.24,6.49,13.9,13.9,0,0,0,16.36,2.4Z" fill="#5576b4"/>
          </g>
          <path d="M27.3,9.22l-21,15.39A13.46,13.46,0,0,1,5,22.26l20.44-15A13.65,13.65,0,0,1,27.3,9.22Z" fill="#fff" opacity="0.5" style="mix-blend-mode: screen"/>
          <path d="M24.73,6.7l-20,14.7a13,13,0,0,1-.42-1.51l19.15-14A11.49,11.49,0,0,1,24.73,6.7Z" fill="#fff" opacity="0.5" style="mix-blend-mode: screen"/>
          <g>
            <path d="M29.45,32.45a1.29,1.29,0,0,1-.93-.39l-3-3A15.69,15.69,0,0,1,16.36,32h-.6a15.64,15.64,0,1,1,13.29-6.48l3,3a1.31,1.31,0,0,1,0,1.85l-1.69,1.69A1.28,1.28,0,0,1,29.45,32.45ZM16.36,4.55A11.83,11.83,0,1,0,24.71,8,11.78,11.78,0,0,0,16.36,4.55Z" fill="#cecece" fill-rule="evenodd"/>
            <path d="M16.35,1.43A14.93,14.93,0,0,1,28.1,25.58L31.56,29a.61.61,0,0,1,0,.85l-1.69,1.69a.6.6,0,0,1-.42.16.63.63,0,0,1-.43-.17L25.57,28.1a14.85,14.85,0,0,1-9.21,3.18h-.58a14.93,14.93,0,0,1,.57-29.85m0,27.48a12.53,12.53,0,0,0,8.86-21.4A12.53,12.53,0,1,0,7.5,25.23a12.44,12.44,0,0,0,8.86,3.68M16.35,0A16.35,16.35,0,0,0,0,16.36,16.38,16.38,0,0,0,15.72,32.71h.64A16.4,16.4,0,0,0,25.42,30L28,32.57a2,2,0,0,0,1.44.6,2,2,0,0,0,1.43-.59l1.69-1.69a2,2,0,0,0,0-2.88L30,25.43A16.35,16.35,0,0,0,27.92,4.79,16.22,16.22,0,0,0,16.35,0Zm0,27.47a11.1,11.1,0,1,1,7.85-3.25,11,11,0,0,1-7.85,3.25Z" fill="#575757"/>
          </g>
          <g id="_315704776" data-name=" 315704776">
            <path d="M36.63,40.33A3.68,3.68,0,0,1,34,39.25l-6.33-6.34a1.32,1.32,0,0,1,0-1.85l3.38-3.38a1.3,1.3,0,0,1,1.85,0L39.25,34a3.7,3.7,0,0,1-2.62,6.32Z" fill="#af7553" fill-rule="evenodd"/>
            <path d="M32,28a.65.65,0,0,1,.43.17l6.33,6.34a3,3,0,1,1-4.22,4.22l-6.34-6.33a.61.61,0,0,1,0-.85l3.38-3.38A.59.59,0,0,1,32,28m0-1.43a2.05,2.05,0,0,0-1.44.59l-3.37,3.37a2.06,2.06,0,0,0,0,2.88l6.33,6.33a4.42,4.42,0,0,0,6.25-6.25l-6.33-6.33A2,2,0,0,0,32,26.58Z" fill="#75411a"/>
          </g>
        </g>
      </g>
    </g>
  </g>
</svg>
