<svg xmlns="http://www.w3.org/2000/svg" width="40.88" height="40.89" viewBox="0 0 40.88 40.89">
  <g id="Layer_2" data-name="Layer 2">
    <g id="Layer_5" data-name="Layer 5">
      <g id="owl_clean_4" data-name="owl_clean 4">
        <path d="M6.21,1.43A4.16,4.16,0,0,1,9.15,2.65L38.23,31.74a4,4,0,0,1-.34,6.16c-.09.11-.17.23-.27.33a4.16,4.16,0,0,1-5.89,0L2.65,9.15a4.18,4.18,0,0,1,0-5.89c.11-.1.23-.18.34-.27s.17-.23.27-.34a4.18,4.18,0,0,1,3-1.22M6.21,0a5.55,5.55,0,0,0-4,1.64A2.22,2.22,0,0,0,2,2a1.75,1.75,0,0,0-.33.28,5.59,5.59,0,0,0,0,7.91L30.72,39.25a5.59,5.59,0,0,0,7.91,0,4.09,4.09,0,0,0,.28-.33,3,3,0,0,0,.33-.28,5.61,5.61,0,0,0,0-7.92L10.16,1.64A5.53,5.53,0,0,0,6.21,0Z" fill="#8d8d8d"/>
        <g>
          <path d="M37.62,38.23a4.16,4.16,0,0,1-5.89,0L2.65,9.15A4.16,4.16,0,0,1,8.54,3.26L37.62,32.35A4.16,4.16,0,0,1,37.62,38.23Z" fill="#8e989b"/>
          <path d="M38.23,37.62a4.16,4.16,0,0,1-5.89,0L3.26,8.54A4.16,4.16,0,0,1,9.15,2.65L38.23,31.74A4.16,4.16,0,0,1,38.23,37.62Z" fill="#c3cdd1"/>
        </g>
        <g>
          <path d="M34.55,40.09a4.62,4.62,0,0,1-3.32-1.35L16.69,24.2a.72.72,0,0,1,0-1l6.49-6.49a.71.71,0,0,1,.51-.21.69.69,0,0,1,.5.21L38.73,31.23a4.62,4.62,0,0,1,1.34,3.58,5.54,5.54,0,0,1-1.64,3.63A5.6,5.6,0,0,1,34.55,40.09Z" fill="#ffeb81"/>
          <path d="M23.69,17.2,38.23,31.74a4.39,4.39,0,0,1-.31,6.19,4.8,4.8,0,0,1-3.37,1.44,3.94,3.94,0,0,1-2.82-1.14L17.19,23.69l6.5-6.49m0-1.44a1.45,1.45,0,0,0-1,.42l-6.49,6.5a1.42,1.42,0,0,0,0,2L30.72,39.25a5.36,5.36,0,0,0,3.83,1.55,6.36,6.36,0,0,0,6.24-6,5.36,5.36,0,0,0-1.55-4.12L24.7,16.18a1.42,1.42,0,0,0-1-.42Z" fill="#ffaa5a"/>
        </g>
        <g>
          <g>
            <path d="M28.5,31.7A3.07,3.07,0,0,1,26.68,31,6.23,6.23,0,0,1,25,29.09c-.59-.36-2.56-1.67-2.62-3.29h0a2,2,0,0,1,.77-1.92,4.07,4.07,0,0,1,1.44-.64,1.81,1.81,0,0,0,.51-.18c.09-.2.47-.82,1-.85h0a.46.46,0,0,1,.39.21,1.68,1.68,0,0,1,.28.8h0a8.36,8.36,0,0,1,4,3.86,1.58,1.58,0,0,1,.72.24.51.51,0,0,1,.22.44,1.72,1.72,0,0,1-.68,1,2.42,2.42,0,0,0-.32.62C30.58,30.05,30,31.7,28.5,31.7Z" fill="#baa2ee"/>
            <path d="M26.18,22.68s.3.46.16.78l.27.17a8.07,8.07,0,0,1,4,4,.51.51,0,0,1,.2,0,1.19,1.19,0,0,1,.55.17c0,.34-.54.74-.54.74a2.54,2.54,0,0,0-.43.8c-.3.82-.82,1.95-1.86,1.95A2.61,2.61,0,0,1,27,30.58a5.53,5.53,0,0,1-1.57-1.83s-2.46-1.38-2.51-3a1.57,1.57,0,0,1,.57-1.52c.8-.6,1.77-.53,2.05-.91,0,0,.33-.65.67-.67m0-.95h-.06a1.84,1.84,0,0,0-1.34,1l-.29.08a4.4,4.4,0,0,0-1.6.72,2.49,2.49,0,0,0-.95,2.4c.11,1.72,2,3.06,2.72,3.52a6.87,6.87,0,0,0,1.75,1.93,3.51,3.51,0,0,0,2.09.83c1.82,0,2.53-1.94,2.76-2.58a1.77,1.77,0,0,1,.22-.46,2.12,2.12,0,0,0,.8-1.34,1,1,0,0,0-.44-.87,2,2,0,0,0-.66-.28,9,9,0,0,0-3.89-3.76,2.12,2.12,0,0,0-.32-.73.93.93,0,0,0-.79-.43Z" fill="#7850b3"/>
          </g>
          <g>
            <circle cx="28.63" cy="28.53" r="1.16" transform="translate(-11.28 22.14) rotate(-35.8)" fill="#7850b3"/>
            <circle cx="25.47" cy="25.37" r="1.16" fill="#7850b3"/>
          </g>
          <path d="M27,28.17a.88.88,0,0,0-.08-1.07A.86.86,0,0,0,25.83,27l-.16,1.28Z" fill="#7850b3"/>
        </g>
      </g>
    </g>
  </g>
</svg>
