<svg xmlns="http://www.w3.org/2000/svg" width="26.95" height="41.21" viewBox="0 0 26.95 41.21">
  <g id="Layer_2" data-name="Layer 2">
    <g id="Layer_5" data-name="Layer 5">
      <g id="owl_toy_2" data-name="owl_toy 2">
        <path d="M13.27,21.88h0l0,16.48h.51l0-16.42a2.28,2.28,0,0,1-.39-.06h-.08" fill="#b04d36"/>
        <g>
          <g>
            <path d="M13.52,36.59,15,38.18H12l1.48-1.59m0-1.43h0a1.43,1.43,0,0,0-1,.45L11,37.21a1.44,1.44,0,0,0,1,2.41h3a1.44,1.44,0,0,0,1-2.42l-1.52-1.6a1.44,1.44,0,0,0-1-.44Z" fill="#6ab3b9"/>
            <path d="M15,38.18h0m0,0-1.52,1.6L12,38.19h3m0-1.43H12a1.44,1.44,0,0,0-1,2.41l1.48,1.6a1.43,1.43,0,0,0,1,.45h0a1.44,1.44,0,0,0,1-.44L16,39.21a1.41,1.41,0,0,0,.43-1A1.43,1.43,0,0,0,15,36.75Zm0,2.87Z" fill="#6ab3b9"/>
          </g>
          <g>
            <polygon points="13.52 36.59 15.04 38.19 14.04 38.19 13.52 36.59" fill="#87e7de" fill-rule="evenodd"/>
            <polygon points="13.52 36.59 13.04 38.19 14.04 38.19 13.52 36.59" fill="#5ecdc3" fill-rule="evenodd"/>
            <polygon points="13.52 36.59 12.04 38.19 13.04 38.19 13.52 36.59" fill="#87e7de" fill-rule="evenodd"/>
          </g>
          <g>
            <polygon points="13.52 39.78 15.04 38.19 14.04 38.19 13.52 39.78" fill="#5ecdc3" fill-rule="evenodd"/>
            <polygon points="13.52 39.78 13.04 38.19 14.04 38.19 13.52 39.78" fill="#87e7de" fill-rule="evenodd"/>
            <polygon points="13.52 39.78 12.04 38.19 13.04 38.19 13.52 39.78" fill="#5ecdc3" fill-rule="evenodd"/>
          </g>
        </g>
        <path d="M5.77,20h0L5.75,34h.51l0-14A2.3,2.3,0,0,1,5.85,20H5.77" fill="#b04d36"/>
        <g>
          <g>
            <polygon points="5.99 29.51 6.83 30.25 6.28 30.25 5.99 29.51" fill="#f6b9c9" fill-rule="evenodd"/>
            <polygon points="5.99 29.51 5.72 30.25 6.28 30.25 5.99 29.51" fill="#ee9fb4" fill-rule="evenodd"/>
            <polygon points="5.99 29.51 5.17 30.25 5.72 30.25 5.99 29.51" fill="#f6b9c9" fill-rule="evenodd"/>
          </g>
          <rect x="5.16" y="30.25" width="1.67" height="2.82" fill="#ee9fb4"/>
          <rect x="5.72" y="30.25" width="0.56" height="2.82" fill="#f6b9c9"/>
          <g>
            <polygon points="5.99 33.81 6.83 33.07 6.27 33.07 5.99 33.81" fill="#f6b9c9" fill-rule="evenodd"/>
            <polygon points="5.99 33.81 5.72 33.07 6.27 33.07 5.99 33.81" fill="#ee9fb4" fill-rule="evenodd"/>
            <polygon points="5.99 33.81 5.16 33.07 5.72 33.07 5.99 33.81" fill="#f6b9c9" fill-rule="evenodd"/>
          </g>
          <path d="M6,29.51l.84.74h0v2.82h0L6,33.81l-.83-.74h0V30.25h0L6,29.51m.84,3.56h0m-.84-5a1.44,1.44,0,0,0-1,.37l-.83.74a1.45,1.45,0,0,0-.48,1.08v2.9a1.56,1.56,0,0,0,.22.68,1.48,1.48,0,0,0,.26.3l.82.73a1.41,1.41,0,0,0,1,.37,1.46,1.46,0,0,0,.94-.35l.81-.71a1.43,1.43,0,0,0,.53-1.11s0-.06,0-.09V30.25a1.43,1.43,0,0,0-.49-1.08l-.84-.74a1.43,1.43,0,0,0-1-.36Z" fill="#fa789e"/>
        </g>
        <path d="M21.18,20h-.07a2.57,2.57,0,0,1-.4.05l0,14h.51l0-14.07h0" fill="#b04d36"/>
        <g>
          <g>
            <polygon points="20.96 29.51 20.12 30.25 20.68 30.25 20.96 29.51" fill="#f6b9c9" fill-rule="evenodd"/>
            <polygon points="20.96 29.51 21.23 30.25 20.68 30.25 20.96 29.51" fill="#ee9fb4" fill-rule="evenodd"/>
            <polygon points="20.96 29.51 21.79 30.25 21.23 30.25 20.96 29.51" fill="#f6b9c9" fill-rule="evenodd"/>
          </g>
          <rect x="20.12" y="30.25" width="1.67" height="2.82" fill="#ee9fb4"/>
          <rect x="20.68" y="30.25" width="0.56" height="2.82" fill="#f6b9c9"/>
          <g>
            <polygon points="20.96 33.81 20.12 33.07 20.68 33.07 20.96 33.81" fill="#f6b9c9" fill-rule="evenodd"/>
            <polygon points="20.96 33.81 21.23 33.07 20.68 33.07 20.96 33.81" fill="#ee9fb4" fill-rule="evenodd"/>
            <polygon points="20.96 33.81 21.79 33.07 21.23 33.07 20.96 33.81" fill="#f6b9c9" fill-rule="evenodd"/>
          </g>
          <path d="M21,29.51l.83.74h0v2.82h0l-.83.74-.84-.74h0V30.25h0l.84-.74m.83,3.56h0m-.83-5a1.4,1.4,0,0,0-.94.36l-.85.74a1.42,1.42,0,0,0-.48,1.08v2.82a1.44,1.44,0,0,0,.49,1.08l.84.74a1.46,1.46,0,0,0,.94.35,1.4,1.4,0,0,0,1-.37l.79-.7a1.42,1.42,0,0,0,.51-1.1V30.26a1.41,1.41,0,0,0-.48-1.08l-.82-.74a1.48,1.48,0,0,0-1-.37Z" fill="#fa789e"/>
        </g>
        <g>
          <g>
            <path d="M13.51,25.73A12.17,12.17,0,1,1,18.76,2.58a.74.74,0,0,1,.38.85.73.73,0,0,1-.69.52h-.08a7.92,7.92,0,0,0-.85,0,7.26,7.26,0,1,0,6.76,9.9.7.7,0,0,1,.66-.45h.15a.72.72,0,0,1,.57.73A12.14,12.14,0,0,1,13.51,25.73Z" fill="#6ab3b9" fill-rule="evenodd"/>
            <path d="M13.51,2.11a11.37,11.37,0,0,1,4.94,1.12c-.31,0-.61,0-.93,0a8,8,0,1,0,7.42,10.87A11.45,11.45,0,1,1,13.51,2.11M24.94,14.05h0M13.51.68A12.89,12.89,0,1,0,26.37,14.2a.76.76,0,0,0,0-.15A1.43,1.43,0,0,0,25,12.62h0l-.21,0a1.35,1.35,0,0,0-.65.27,1.46,1.46,0,0,0-.34.36,1.55,1.55,0,0,0-.14.29,6.51,6.51,0,1,1-5.32-8.91h.17a1.43,1.43,0,0,0,.62-2.72A12.74,12.74,0,0,0,13.51.68Z" fill="#3b7e82"/>
          </g>
          <path d="M13.86,1.43l.14,0a.27.27,0,0,1,.21.32.22.22,0,0,1-.05.12,11.76,11.76,0,0,1,3.89.9.61.61,0,0,1,.16-.12.79.79,0,0,1,.32-.08.63.63,0,0,1,.37.12A.28.28,0,0,1,19,3.1a.39.39,0,0,1-.1.08,11.45,11.45,0,0,1,2.9,2.12,3.83,3.83,0,0,1,.28.29l.2,0h.06a.64.64,0,0,1,.56.32.27.27,0,0,1-.23.41,11.7,11.7,0,0,1,1.92,3.5.78.78,0,0,1,.22,0,.65.65,0,0,1,.43.54.28.28,0,0,1-.24.31h0l-.12,0a11.37,11.37,0,0,1,.37,2.93,9.47,9.47,0,0,1-.05,1.07l.16.12a.67.67,0,0,1,.19.69.28.28,0,0,1-.27.19h-.08a.23.23,0,0,1-.12-.08,11.53,11.53,0,0,1-1.31,3.72,1.62,1.62,0,0,1,.1.18.64.64,0,0,1-.11.69.27.27,0,0,1-.21.09.26.26,0,0,1-.18-.07.19.19,0,0,1-.07-.11,12,12,0,0,1-1.47,1.79A14.16,14.16,0,0,1,20.46,23a.91.91,0,0,1,0,.17.64.64,0,0,1-.37.58.27.27,0,0,1-.12,0,.26.26,0,0,1-.25-.17.17.17,0,0,1,0-.1,11.48,11.48,0,0,1-3.53,1.47,1.07,1.07,0,0,1-.07.19.64.64,0,0,1-.58.38h0a.29.29,0,0,1-.28-.28.2.2,0,0,1,0-.11,12.91,12.91,0,0,1-1.76.13A11.73,11.73,0,0,1,11.27,25a.77.77,0,0,1-.15.16.63.63,0,0,1-.42.17.58.58,0,0,1-.26-.06.28.28,0,0,1-.15-.36.22.22,0,0,1,.1-.11,11.68,11.68,0,0,1-3.53-1.66.88.88,0,0,1-.2.09l-.2,0A.62.62,0,0,1,6,23.08a.27.27,0,0,1,.14-.45,11.28,11.28,0,0,1-.89-.8,11.44,11.44,0,0,1-1.72-2.2H3.3a.63.63,0,0,1-.53-.43.28.28,0,0,1,.17-.36h.14a11.5,11.5,0,0,1-1.16-3.77L1.75,15a.63.63,0,0,1-.31-.62.28.28,0,0,1,.28-.25h0l.09,0c0-.19,0-.39,0-.59a11.81,11.81,0,0,1,.48-3.33,1.07,1.07,0,0,1-.14-.16.64.64,0,0,1,0-.69.28.28,0,0,1,.24-.14.32.32,0,0,1,.14,0,.32.32,0,0,1,.1.1A11.51,11.51,0,0,1,4.63,6c0-.07,0-.13-.06-.19a.64.64,0,0,1,.25-.65A.27.27,0,0,1,5,5.06a.28.28,0,0,1,.22.12.31.31,0,0,1,0,.1A11.73,11.73,0,0,1,8.49,3a1,1,0,0,1,0-.17A.65.65,0,0,1,9,2.34h.06a.27.27,0,0,1,.27.21.28.28,0,0,1,0,.09,11.71,11.71,0,0,1,3.9-.76.78.78,0,0,1,.11-.18.61.61,0,0,1,.51-.27M9.3,4.14A.62.62,0,0,1,8.89,4a.23.23,0,0,1-.07-.07A11.09,11.09,0,0,0,5.91,6L5.85,6A.27.27,0,0,1,6,6.11.28.28,0,0,1,6,6.5a.58.58,0,0,1-.43.18l-.2,0-.07,0A10.72,10.72,0,0,0,3.45,9.8h.07l.08,0a.28.28,0,0,1,.17.35.59.59,0,0,1-.51.39H3.2a10.61,10.61,0,0,0-.43,3c0,.23,0,.46,0,.68A.34.34,0,0,1,3,14.16H3a.28.28,0,0,1,.28.26A.6.6,0,0,1,3,15l-.08,0A10.68,10.68,0,0,0,4,18.49a.24.24,0,0,1,.1-.1.22.22,0,0,1,.13,0,.29.29,0,0,1,.25.14.62.62,0,0,1,0,.65l0,0a10.6,10.6,0,0,0,1.55,2,10.94,10.94,0,0,0,.89.79.35.35,0,0,1,0-.13.29.29,0,0,1,.22-.11.27.27,0,0,1,.17.06.62.62,0,0,1,.22.61l0,.05a10.66,10.66,0,0,0,3.28,1.51.33.33,0,0,1,0-.14.29.29,0,0,1,.27-.22H11a.59.59,0,0,1,.45.47s0,0,0,.06a10.74,10.74,0,0,0,3.74.05.29.29,0,0,1-.08-.14.28.28,0,0,1,.22-.33h.11a.6.6,0,0,1,.48.26L16,24a10.58,10.58,0,0,0,3.29-1.4.31.31,0,0,1-.15-.1.29.29,0,0,1,.07-.39.56.56,0,0,1,.33-.1.79.79,0,0,1,.32.08l.08.06a12.11,12.11,0,0,0,1.15-1,10.93,10.93,0,0,0,1.39-1.71.23.23,0,0,1-.14,0,.28.28,0,0,1-.1-.38.59.59,0,0,1,.52-.28h.13a10.59,10.59,0,0,0,1.2-3.47H24a.28.28,0,0,1-.25-.31.59.59,0,0,1,.41-.48h0c0-.31,0-.62,0-.93a10.93,10.93,0,0,0-.36-2.76.26.26,0,0,1-.11.07h-.08a.28.28,0,0,1-.27-.19.58.58,0,0,1,.19-.62l0,0a10.55,10.55,0,0,0-1.8-3.23.32.32,0,0,1-.08.12.26.26,0,0,1-.18.07.25.25,0,0,1-.21-.1.59.59,0,0,1-.08-.64s0,0,0,0L21.1,6a11.09,11.09,0,0,0-2.76-2,.2.2,0,0,1,0,.15.27.27,0,0,1-.25.16l-.12,0a.63.63,0,0,1-.34-.56s0,0,0-.07A10.85,10.85,0,0,0,14,2.84a.24.24,0,0,1,.05.14.28.28,0,0,1-.28.27h0a.58.58,0,0,1-.53-.36s0,0,0-.06a10.63,10.63,0,0,0-3.67.76.33.33,0,0,1,.13.13.28.28,0,0,1-.15.37.54.54,0,0,1-.22,0M13.86,0h0a2.06,2.06,0,0,0-1.32.48A13.21,13.21,0,0,0,9.67,1,1.74,1.74,0,0,0,9.06.9a1.58,1.58,0,0,0-.38,0A2,2,0,0,0,7.31,2,13.42,13.42,0,0,0,4.93,3.63,1.7,1.7,0,0,0,4,4a2.09,2.09,0,0,0-.83,1.56A12.68,12.68,0,0,0,1.64,8a1.73,1.73,0,0,0-.77.72,2.07,2.07,0,0,0-.12,1.78,13.18,13.18,0,0,0-.36,2.86,1.65,1.65,0,0,0-.38.92,2.09,2.09,0,0,0,.58,1.65,13.68,13.68,0,0,0,.8,2.72,1.68,1.68,0,0,0,0,1,2.06,2.06,0,0,0,1.24,1.29,12.45,12.45,0,0,0,1.58,1.9c.08.09.17.17.26.26a1.75,1.75,0,0,0,.45,1,2,2,0,0,0,1.52.66H6.6a13.16,13.16,0,0,0,2.48,1.19,1.66,1.66,0,0,0,.79.71,2.2,2.2,0,0,0,.83.17,2,2,0,0,0,1-.24,12.92,12.92,0,0,0,1.86.13c.35,0,.7,0,1.05,0a1.66,1.66,0,0,0,1,.3,2.1,2.1,0,0,0,1.61-.77,12.73,12.73,0,0,0,2.55-1,1.45,1.45,0,0,0,.3,0,1.57,1.57,0,0,0,.71-.16,2.06,2.06,0,0,0,1.13-1.3,11.41,11.41,0,0,0,1-.87,11.35,11.35,0,0,0,1.08-1.22,1.69,1.69,0,0,0,.92-.55,2.07,2.07,0,0,0,.49-1.7,12.84,12.84,0,0,0,1-2.64,1.79,1.79,0,0,0,.62-.87,2.11,2.11,0,0,0-.24-1.75c0-.19,0-.37,0-.55a13,13,0,0,0-.21-2.33,1.7,1.7,0,0,0,.22-1.05,2.08,2.08,0,0,0-1-1.51,13.82,13.82,0,0,0-1.34-2.52,1.68,1.68,0,0,0-.24-1,2,2,0,0,0-1.47-1,13.38,13.38,0,0,0-2.27-1.76,1.78,1.78,0,0,0-.63-.83,2.06,2.06,0,0,0-1.2-.38,2,2,0,0,0-.54.07,12.72,12.72,0,0,0-2.8-.68A1.72,1.72,0,0,0,14.28,0a2,2,0,0,0-.42,0ZM10.93,4.62a9.45,9.45,0,0,1,1.67-.31,2.07,2.07,0,0,0,1.14.38h0a1.77,1.77,0,0,0,1-.34,9.43,9.43,0,0,1,1.67.39,2,2,0,0,0,.9.83,1.8,1.8,0,0,0,.72.16,1.58,1.58,0,0,0,.38-.05,9.79,9.79,0,0,1,1.36,1,2,2,0,0,0,.48,1.12,1.77,1.77,0,0,0,.95.55,9.68,9.68,0,0,1,.82,1.52,2,2,0,0,0,0,1.2,1.67,1.67,0,0,0,.62.87,9.37,9.37,0,0,1,.14,1.58,1.09,1.09,0,0,1,0,.18,2.08,2.08,0,0,0-.47,1.07,1.68,1.68,0,0,0,.2,1,9.53,9.53,0,0,1-.59,1.65,2,2,0,0,0-.92.81,1.69,1.69,0,0,0-.23,1.05,9,9,0,0,1-.71.8l-.47.44h-.06a2,2,0,0,0-1.15.37,1.66,1.66,0,0,0-.65.9,10.49,10.49,0,0,1-1.43.59,2,2,0,0,0-.83-.18h0a2.56,2.56,0,0,0-.39,0,1.7,1.7,0,0,0-1,.56c-.21,0-.42,0-.63,0a10.32,10.32,0,0,1-1.11-.06,2,2,0,0,0-1-.62,2.58,2.58,0,0,0-.39,0,1.66,1.66,0,0,0-.7.15,9.14,9.14,0,0,1-1.48-.71,2,2,0,0,0-.7-1,1.72,1.72,0,0,0-1-.34h0l-.13-.13a9.28,9.28,0,0,1-1-1.17A2,2,0,0,0,5.7,17.8a1.66,1.66,0,0,0-.81-.74,8.77,8.77,0,0,1-.48-1.56,2.11,2.11,0,0,0,.28-1.21,1.74,1.74,0,0,0-.48-1,9.43,9.43,0,0,1,.21-1.66,1.9,1.9,0,0,0,.7-1,1.73,1.73,0,0,0,0-1.1A8.49,8.49,0,0,1,6,8.08a2,2,0,0,0,1-.6,1.68,1.68,0,0,0,.46-1,10.29,10.29,0,0,1,1.33-.94,1.82,1.82,0,0,0,.46.06,2.09,2.09,0,0,0,.78-.16,1.68,1.68,0,0,0,.85-.79Z" fill="#ac538c"/>
          <g>
            <path d="M18.07,4.29l-.12,0a.63.63,0,0,1-.34-.56,1.27,1.27,0,0,1,.6-1,.64.64,0,0,1,.69,0A.28.28,0,0,1,19,3.1a.28.28,0,0,1-.39.06.1.1,0,0,0-.11,0,.76.76,0,0,0-.3.54s0,0,0,.06a.28.28,0,0,1-.12.53Z" fill="#b4668a"/>
            <path d="M13.77,3.25h0a.58.58,0,0,1-.53-.36,1.23,1.23,0,0,1,.12-1.19A.64.64,0,0,1,14,1.45a.27.27,0,0,1,.21.32.27.27,0,0,1-.32.22.09.09,0,0,0-.1.05.68.68,0,0,0-.06.61s0,.05,0,.05a.28.28,0,0,1,.28.28A.28.28,0,0,1,13.77,3.25Z" fill="#b4668a"/>
            <path d="M9.3,4.14A.62.62,0,0,1,8.89,4a1.25,1.25,0,0,1-.38-1.14A.65.65,0,0,1,9,2.34a.28.28,0,0,1,.33.21.28.28,0,0,1-.21.34s0,0-.07.08a.71.71,0,0,0,.2.58.16.16,0,0,0,.06,0,.27.27,0,0,1,.36.14.28.28,0,0,1-.15.37A.54.54,0,0,1,9.3,4.14Z" fill="#b4668a"/>
            <path d="M5.58,6.68l-.2,0a1.24,1.24,0,0,1-.81-.88.64.64,0,0,1,.25-.65.28.28,0,0,1,.39.06.29.29,0,0,1-.06.39s0,0,0,.1a.7.7,0,0,0,.41.45s.06,0,.07,0A.28.28,0,0,1,6,6.5.58.58,0,0,1,5.58,6.68Z" fill="#b4668a"/>
            <path d="M3.14,10.56a1.24,1.24,0,0,1-1-.49.64.64,0,0,1,0-.69.28.28,0,0,1,.38-.11.29.29,0,0,1,.11.38s0,0,0,.11a.69.69,0,0,0,.56.24l.06,0a.28.28,0,0,1,.36-.17.28.28,0,0,1,.17.35.59.59,0,0,1-.51.39Z" fill="#b4668a"/>
            <path d="M2.34,15.14A1.15,1.15,0,0,1,1.75,15a.63.63,0,0,1-.31-.62.28.28,0,0,1,.3-.25.29.29,0,0,1,.25.31s0,.05.05.09a.71.71,0,0,0,.62,0s0,0,0,0A.29.29,0,0,1,3,14.16a.29.29,0,0,1,.3.26A.6.6,0,0,1,3,15,1.23,1.23,0,0,1,2.34,15.14Z" fill="#b4668a"/>
            <path d="M3.42,19.64H3.3a.63.63,0,0,1-.53-.43.28.28,0,0,1,.17-.36.27.27,0,0,1,.35.18s0,.05.09.06a.7.7,0,0,0,.56-.26s0,0,0-.06a.28.28,0,0,1,.49-.27.62.62,0,0,1,0,.65A1.28,1.28,0,0,1,3.42,19.64Z" fill="#b4668a"/>
            <path d="M6.46,23.29A.62.62,0,0,1,6,23.08a.28.28,0,0,1,.41-.37.08.08,0,0,0,.1,0,.7.7,0,0,0,.41-.46s0-.06,0-.07a.27.27,0,0,1-.06-.39.28.28,0,0,1,.39,0,.62.62,0,0,1,.22.61,1.24,1.24,0,0,1-.8.89Z" fill="#b4668a"/>
            <path d="M10.7,25.36a.58.58,0,0,1-.26-.06.28.28,0,0,1-.15-.36.28.28,0,0,1,.37-.15s.05,0,.11,0a.74.74,0,0,0,.18-.59s0-.05,0-.06a.28.28,0,0,1-.21-.33.28.28,0,0,1,.33-.21.59.59,0,0,1,.45.47,1.24,1.24,0,0,1-.37,1.14A.63.63,0,0,1,10.7,25.36Z" fill="#b4668a"/>
            <path d="M15.52,25.51a.29.29,0,0,1-.28-.28.28.28,0,0,1,.28-.28s.05,0,.08-.06a.69.69,0,0,0-.07-.61s0-.05,0,0a.28.28,0,0,1-.1-.55.6.6,0,0,1,.59.25,1.24,1.24,0,0,1,.13,1.19.64.64,0,0,1-.58.38Z" fill="#b4668a"/>
            <path d="M20,23.74a.28.28,0,0,1-.12-.53.11.11,0,0,0,.06-.1.72.72,0,0,0-.32-.53s0,0-.06,0a.28.28,0,0,1-.32-.46.61.61,0,0,1,.65,0,1.26,1.26,0,0,1,.6,1,.64.64,0,0,1-.37.58A.27.27,0,0,1,20,23.74Z" fill="#b4668a"/>
            <path d="M23.49,20.22a.26.26,0,0,1-.18-.07.27.27,0,0,1,0-.39s0,0,0-.11a.7.7,0,0,0-.51-.35s-.05,0-.06,0a.28.28,0,0,1-.38.09.28.28,0,0,1-.1-.38.61.61,0,0,1,.59-.28,1.25,1.25,0,0,1,1,.7.64.64,0,0,1-.11.69A.27.27,0,0,1,23.49,20.22Z" fill="#b4668a"/>
            <path d="M25.22,15.63h-.08a.27.27,0,0,1-.18-.35c0-.09-.07-.15-.16-.2a.55.55,0,0,0-.49,0,.28.28,0,0,1-.56-.07.59.59,0,0,1,.41-.48,1.21,1.21,0,0,1,1.14.25.67.67,0,0,1,.19.69A.28.28,0,0,1,25.22,15.63Z" fill="#b4668a"/>
            <path d="M23.69,10.88a.28.28,0,0,1-.27-.19.58.58,0,0,1,.19-.62,1.22,1.22,0,0,1,1.17-.26.65.65,0,0,1,.43.54.28.28,0,1,1-.55.06s0-.05-.07-.08a.69.69,0,0,0-.6.14s0,0,0,0a.27.27,0,0,1-.18.35Z" fill="#b4668a"/>
            <path d="M21.58,7a.25.25,0,0,1-.21-.1.59.59,0,0,1-.08-.64,1.24,1.24,0,0,1,1-.71.66.66,0,0,1,.62.32.28.28,0,1,1-.48.28s0,0-.1,0a.7.7,0,0,0-.49.37s0,0,0,.06a.27.27,0,0,1,0,.39A.26.26,0,0,1,21.58,7Z" fill="#b4668a"/>
          </g>
          <path d="M7.53,19.38a2.07,2.07,0,1,0-2.07-2.07A2.07,2.07,0,0,0,7.53,19.38Z" fill="#fff" fill-rule="evenodd"/>
          <path d="M7.81,6.35a1.15,1.15,0,0,1,1.06.72.66.66,0,0,0-.5-.23.65.65,0,0,0,0,1.3.66.66,0,0,0,.5-.23A1.14,1.14,0,1,1,7.81,6.35Z" fill="#fff" fill-rule="evenodd"/>
          <path d="M6.15,10a1.67,1.67,0,0,1,1.32.64,1.14,1.14,0,0,0,0,2A1.67,1.67,0,1,1,6.15,10Z" fill="#fff" fill-rule="evenodd"/>
          <path d="M17.12,20.13a1.15,1.15,0,0,0-1.06.72.66.66,0,0,1,.5-.23.65.65,0,0,1,0,1.3.66.66,0,0,1-.5-.23,1.14,1.14,0,1,0,1.06-1.56Z" fill="#fff" fill-rule="evenodd"/>
          <path d="M12.05,19.31a1.63,1.63,0,0,0-1.31.65,1.12,1.12,0,0,1,.62,1,1.14,1.14,0,0,1-.62,1,1.66,1.66,0,1,0,1.31-2.68Z" fill="#fff" fill-rule="evenodd"/>
        </g>
      </g>
    </g>
  </g>
</svg>
