<svg xmlns="http://www.w3.org/2000/svg" width="40.91" height="41.46" viewBox="0 0 40.91 41.46">
  <g style="isolation: isolate">
    <g id="Layer_2" data-name="Layer 2">
      <g id="Layer_5" data-name="Layer 5">
        <g id="owl_food_4" data-name="owl_food 4">
          <g>
            <g>
              <path d="M8,40.74A7.24,7.24,0,0,1,.72,33.51V11.08A7.23,7.23,0,0,1,8,3.85h12.8a1.3,1.3,0,1,1,0,2.59H8a4.63,4.63,0,0,0-4.63,4.64V33.51A4.63,4.63,0,0,0,8,38.14h27.2a1.3,1.3,0,1,1,0,2.6Z" fill="#d8a960"/>
              <path d="M20.75,4.56a.59.59,0,0,1,0,1.17H8A5.36,5.36,0,0,0,2.6,11.08V33.51A5.36,5.36,0,0,0,8,38.86h27.2a.58.58,0,0,1,0,1.16H8a6.53,6.53,0,0,1-6.52-6.51V11.08A6.53,6.53,0,0,1,8,4.56h12.8m0-1.43H8a8,8,0,0,0-7.95,8V33.51a8,8,0,0,0,8,8h27.2a2,2,0,0,0,0-4H8A3.92,3.92,0,0,1,4,33.51V11.08A3.93,3.93,0,0,1,8,7.16h12.8a2,2,0,1,0,0-4Z" fill="#6a3417"/>
            </g>
            <g>
              <path d="M19.82,10.07a.72.72,0,0,1-.72-.72v-7a1.65,1.65,0,0,1,3.3,0v7a.72.72,0,0,1-.72.72Z" fill="#8d8d8d"/>
              <path d="M20.75,1.43a.93.93,0,0,1,.93.94v7H19.82v-7a.93.93,0,0,1,.93-.94m0-1.43a2.37,2.37,0,0,0-2.37,2.37v7a1.43,1.43,0,0,0,1.44,1.43h1.86a1.43,1.43,0,0,0,1.44-1.43v-7A2.37,2.37,0,0,0,20.75,0Z" fill="#575757"/>
            </g>
            <g>
              <path d="M9.73,39.44a1.81,1.81,0,0,1,0-3.62H38.62a1.81,1.81,0,0,1,0,3.62Z" fill="#af7553"/>
              <path d="M38.62,36.29a1.34,1.34,0,0,1,0,2.67H9.73a1.34,1.34,0,1,1,0-2.67H38.62m0-.95H9.73a2.29,2.29,0,0,0,0,4.58H38.62a2.29,2.29,0,0,0,0-4.58Z" fill="#75411a"/>
            </g>
          </g>
          <g>
            <path d="M32,29.15c0,1.88-5,3.41-11.22,3.41S9.53,31,9.53,29.15c0-.75,1.26-4.74,2.59-5.3,2-.86,4.88,1.89,8.63,1.89,3.49,0,6.42-2.74,8.48-2C30.83,24.35,32,28.32,32,29.15Z" fill="#baa2ee"/>
            <g>
              <path d="M20.75,27.3A21.18,21.18,0,0,1,13,26.15l-.08,0-.2-.1a3,3,0,0,1-.35-.23,2.19,2.19,0,0,1-.33-.29,1.55,1.55,0,0,1-.26-.4,1.19,1.19,0,0,1-.11-.5c0-2.64,8.16-2.72,9.09-2.72s9.09.08,9.09,2.72a1.17,1.17,0,0,1-.08.44,1,1,0,0,1-.05.11,1.39,1.39,0,0,1-.19.29,2.39,2.39,0,0,1-.67.54,1.77,1.77,0,0,1-.27.14.11.11,0,0,1-.07,0A20.89,20.89,0,0,1,20.75,27.3Z" fill="#98d9e4"/>
              <path d="M20.75,22.59c4.63,0,8.38.89,8.38,2a.58.58,0,0,1,0,.18,0,0,0,0,0,0,0A.62.62,0,0,1,29,25l0,0a1.45,1.45,0,0,1-.18.16l0,0-.23.15,0,0-.18.09h0a20.09,20.09,0,0,1-7.52,1.12,20.05,20.05,0,0,1-7.52-1.12h0l-.18-.09,0,0-.23-.15,0,0a1.45,1.45,0,0,1-.18-.16l0,0a.62.62,0,0,1-.11-.17v0a.58.58,0,0,1,0-.18h0c0-1.11,3.75-2,8.38-2m0-1.44c-2.95,0-9.81.34-9.81,3.44a1.86,1.86,0,0,0,.13.68.42.42,0,0,0,0,.1,2,2,0,0,0,.31.51l.08.09a2.2,2.2,0,0,0,.35.33l.08.06a3.17,3.17,0,0,0,.36.23l.07,0,.24.13.11,0a21.52,21.52,0,0,0,8,1.21,21.52,21.52,0,0,0,8-1.21l.11,0,.24-.13.05,0a3.15,3.15,0,0,0,.38-.24l.07-.06A2.28,2.28,0,0,0,30,26l.08-.09a2.13,2.13,0,0,0,.31-.49s0-.08,0-.12a1.86,1.86,0,0,0,.13-.68c0-3.1-6.86-3.44-9.81-3.44Z" fill="#5576b4"/>
            </g>
            <path d="M20.75,22.34c3.73,0,7,.58,8.47,1.42h0c1.6.59,2.74,4.56,2.74,5.39,0,1.88-5,3.41-11.22,3.41S9.53,31,9.53,29.15c0-.75,1.26-4.74,2.59-5.3h0c1.45-.89,4.76-1.51,8.62-1.51m0-1.44c-4,0-7.53.64-9.29,1.68-2.15,1-3.36,5.77-3.36,6.57C8.1,33,16.05,34,20.75,34S33.4,33,33.4,29.15c0-.76-1-5.63-3.57-6.69-1.83-1-5.22-1.56-9.08-1.56Z" fill="#7850b3"/>
            <g>
              <g>
                <path d="M21.86,32.22a5.71,5.71,0,0,1-1.15-.13,3.38,3.38,0,0,1-.95.12,4.7,4.7,0,0,1-.62,0,1.8,1.8,0,0,1-1.44-.82,2.21,2.21,0,0,1,.17-1.89,1.25,1.25,0,0,0,.12-.34,1.19,1.19,0,0,1,.2-.86.46.46,0,0,1,.36-.16h.11a1.29,1.29,0,0,1,.41.18,6,6,0,0,1,1.65-.24,5,5,0,0,1,1.7.29,1.35,1.35,0,0,1,.46-.19H23a.5.5,0,0,1,.36.16,1,1,0,0,1,.12.94,2,2,0,0,1,.11.21,2.53,2.53,0,0,1,.38,1,1.43,1.43,0,0,1-.63,1.38,2.12,2.12,0,0,1-1.46.43Z" fill="#baa2ee"/>
                <path d="M20.72,28.52a4.31,4.31,0,0,1,1.66.32l.19,0c.08-.2.41-.26.41-.26s0,.57,0,.57c0,.29.41.68.49,1.29a1,1,0,0,1-.41.91,1.79,1.79,0,0,1-1.2.36,5,5,0,0,1-1.18-.16,2.64,2.64,0,0,1-.92.14,4.93,4.93,0,0,1-.55,0c-1.62-.23-1.22-1.35-.9-2a1.63,1.63,0,0,0,.16-.53,1,1,0,0,1,.08-.56s.3.07.38.27a5.13,5.13,0,0,1,1.79-.32m0-.95a6.35,6.35,0,0,0-1.58.2,2.11,2.11,0,0,0-.38-.13.75.75,0,0,0-.21,0,1,1,0,0,0-.72.32,1.57,1.57,0,0,0-.32,1.15,1.1,1.1,0,0,0-.07.17,2.6,2.6,0,0,0-.16,2.32,2.23,2.23,0,0,0,1.8,1.06,3.61,3.61,0,0,0,.68,0,4,4,0,0,0,1-.11,6.32,6.32,0,0,0,1.14.12,2.71,2.71,0,0,0,1.8-.56,1.94,1.94,0,0,0,.76-1.79A3.27,3.27,0,0,0,24,29.21l0,0A1.43,1.43,0,0,0,23.7,28a1,1,0,0,0-.72-.33l-.19,0a2.19,2.19,0,0,0-.41.14,5.38,5.38,0,0,0-1.66-.25Z" fill="#7850b3"/>
              </g>
              <g>
                <circle cx="19.38" cy="30.09" r="0.71" fill="#7850b3"/>
                <circle cx="22.12" cy="30.09" r="0.71" fill="#7850b3"/>
              </g>
              <path d="M20.25,30.65a.51.51,0,0,1,1,0l-.49.62Z" fill="#7850b3"/>
            </g>
          </g>
          <g>
            <g>
              <path d="M16.58,24.91c-1.68,0-3-.93-3-2.11V10.17c0-2.62,3.15-4.67,7.16-4.67s7.16,2.05,7.16,4.67V22.8c0,1.18-1.31,2.11-3,2.11Z" fill="#98d9e4"/>
              <path d="M20.75,6.22c3.56,0,6.44,1.77,6.44,4V22.8c0,.77-1,1.39-2.27,1.39H16.58c-1.26,0-2.27-.62-2.27-1.39V10.17c0-2.18,2.88-3.95,6.44-3.95m0-1.44c-4.42,0-7.88,2.37-7.88,5.39V22.8c0,1.61,1.6,2.83,3.71,2.83h8.34c2.11,0,3.71-1.22,3.71-2.83V10.17c0-3-3.46-5.39-7.88-5.39Z" fill="#5576b4"/>
            </g>
            <path d="M20,22.8V10.17c0-1.83,2-3.36,4.77-3.81a10.17,10.17,0,0,0-1.67-.14c-3.56,0-6.45,1.77-6.45,4V22.8c0,.77,1,1.39,2.28,1.39h3.34C21.05,24.19,20,23.57,20,22.8Z" fill="#a7bfee" opacity="0.5" style="mix-blend-mode: multiply"/>
            <path d="M20.75,6.22c-3.56,0-6.44,1.77-6.44,4v.53H27.19v-.53C27.19,8,24.31,6.22,20.75,6.22Z" fill="#baa2ee"/>
            <path d="M18.36,10.12V9.59c0-1.41,1.22-2.65,3-3.35-.21,0-.43,0-.65,0-3.56,0-6.44,1.77-6.44,4v.53H27.19v-.58Z" fill="#baa2ee" opacity="0.3" style="mix-blend-mode: multiply"/>
            <rect x="14.31" y="14.9" width="12.89" height="1.77" fill="#baa2ee"/>
            <rect x="16.83" y="24.33" width="7.83" height="1.31" rx="0.66" fill="#baa2ee"/>
            <path d="M14.31,21.79v1c0,.77,1,1.39,2.27,1.39h8.34c1.26,0,2.27-.62,2.27-1.39v-1Z" fill="#baa2ee"/>
            <path d="M19.38,23.56c-1.25,0-2.27-.63-2.27-1.4v-.37H14.49v1c0,.77,1,1.39,2.27,1.39h8.35a2.85,2.85,0,0,0,1.9-.63Z" fill="#baa2ee" opacity="0.3" style="mix-blend-mode: multiply"/>
            <rect x="14.31" y="10.7" width="12.89" height="0.45" fill="#91a7bd" opacity="0.4" style="mix-blend-mode: multiply"/>
            <rect x="14.31" y="16.67" width="12.89" height="0.45" fill="#91a7bd" opacity="0.4" style="mix-blend-mode: multiply"/>
            <path d="M20.75,6.22c3.56,0,6.44,1.77,6.44,4v.53H14.31v-.53c0-2.18,2.88-3.95,6.44-3.95m0-1.44c-4.42,0-7.88,2.37-7.88,5.39v.53a1.45,1.45,0,0,0,1.44,1.44H27.19a1.45,1.45,0,0,0,1.44-1.44v-.53c0-3-3.46-5.39-7.88-5.39Z" fill="#7850b3"/>
            <path d="M27.19,21.79v1c0,.77-1,1.39-2.27,1.39H16.58c-1.26,0-2.27-.62-2.27-1.39v-1H27.19m0-1.43H14.31a1.44,1.44,0,0,0-1.44,1.43v1c0,1.61,1.6,2.83,3.71,2.83h8.34c2.11,0,3.71-1.22,3.71-2.83v-1a1.44,1.44,0,0,0-1.44-1.43Z" fill="#7850b3"/>
          </g>
        </g>
      </g>
    </g>
  </g>
</svg>
