<svg xmlns="http://www.w3.org/2000/svg" width="41.12" height="41.09" viewBox="0 0 41.12 41.09">
  <g id="Layer_2" data-name="Layer 2">
    <g id="Layer_5" data-name="Layer 5">
      <g id="owl_toy_1" data-name="owl_toy 1">
        <g>
          <path d="M9.59,4.54l-.05,0,0,17.23h.6l0-17a1.81,1.81,0,0,1-.46-.17l-.09,0" fill="#b04d36"/>
          <g>
            <g>
              <path d="M11.19,17a.87.87,0,0,1-.52-.19l-.8-.54-.74.51a1,1,0,0,1-.56.2A.78.78,0,0,1,8,16.69a.87.87,0,0,1-.1-.81L8.12,15l-.7-.54A.81.81,0,0,1,7.93,13l.86,0,.3-.84a.8.8,0,0,1,1.56,0L11,13l.87,0a.88.88,0,0,1,.9.54.84.84,0,0,1-.38,1l-.73.56.25.83a1,1,0,0,1-.1.89.77.77,0,0,1-.58.28Z" fill="#fc97b8" fill-rule="evenodd"/>
              <path d="M9.87,12.21s.07,0,.11.14l.41,1.14a.28.28,0,0,0,.24.16l1.18,0c.31,0,.29.07.1.21l-1,.75a.28.28,0,0,0-.09.29l.33,1.13c.05.18,0,.24,0,.24s-.09-.05-.16-.1l-1-.68a.26.26,0,0,0-.28,0l-1,.69a.33.33,0,0,1-.16.07c-.06,0-.06-.06,0-.2l.34-1.14a.3.3,0,0,0-.09-.3l-.94-.72c-.16-.12-.14-.22.09-.22l1.15,0a.37.37,0,0,0,.28-.25l.38-1.06c0-.1.07-.15.11-.15m0-1.43a1.55,1.55,0,0,0-1.46,1.1l-.13.37H7.92a1.58,1.58,0,0,0-1.53,1.06A1.54,1.54,0,0,0,7,15.05l.31.24-.12.39a1.6,1.6,0,0,0,.21,1.44,1.53,1.53,0,0,0,1.19.6,1.7,1.7,0,0,0,1-.33l.34-.23.35.23a1.55,1.55,0,0,0,1,.35,1.48,1.48,0,0,0,1.14-.55,1.66,1.66,0,0,0,.25-1.46s0-.05,0-.08l-.11-.36.33-.26a1.51,1.51,0,0,0,.63-1.74,1.55,1.55,0,0,0-1.56-1h-.38l-.14-.38a1.54,1.54,0,0,0-1.46-1.08Z" fill="#e75c78"/>
            </g>
            <path d="M9.81,13.63l-.21.59a.2.2,0,0,1-.15.13l-.63,0c-.13,0-.14.05-.06.12l.52.4a.14.14,0,0,1,.05.16l-.19.63c0,.12,0,.14.1.07l.56-.38a.12.12,0,0,1,.14,0l.57.38c.08.06.13.11.08-.08l-.18-.62a.14.14,0,0,1,.05-.16l.53-.41c.11-.08.12-.11-.05-.12h-.65a.17.17,0,0,1-.13-.1l-.23-.62C9.89,13.52,9.84,13.54,9.81,13.63Z" fill="#fff" fill-rule="evenodd" opacity="0.5"/>
          </g>
          <g>
            <g>
              <path d="M9.88,21.59l1.79,1.88H8.14l1.74-1.88m0-1.43h0a1.43,1.43,0,0,0-1.05.45L7.09,22.49A1.44,1.44,0,0,0,8.14,24.9h3.53A1.42,1.42,0,0,0,13,24a1.43,1.43,0,0,0-.27-1.55L10.92,20.6a1.44,1.44,0,0,0-1-.44Z" fill="#6ab3b9"/>
              <path d="M11.67,23.47h0m0,0L9.89,25.35,8.14,23.47h3.53m0-1.44H8.14a1.44,1.44,0,0,0-1.05,2.41l1.75,1.87a1.4,1.4,0,0,0,1,.46h0a1.42,1.42,0,0,0,1-.45l1.74-1.84a1.4,1.4,0,0,0,.43-1A1.44,1.44,0,0,0,11.67,22Zm0,2.87Z" fill="#6ab3b9"/>
            </g>
            <g>
              <polygon points="9.88 21.59 11.66 23.47 10.49 23.47 9.88 21.59" fill="#87e7de" fill-rule="evenodd"/>
              <polygon points="9.88 21.59 9.31 23.47 10.49 23.47 9.88 21.59" fill="#5ecdc3" fill-rule="evenodd"/>
              <polygon points="9.88 21.59 8.14 23.47 9.31 23.47 9.88 21.59" fill="#87e7de" fill-rule="evenodd"/>
            </g>
            <g>
              <polygon points="9.88 25.35 11.66 23.47 10.49 23.47 9.88 25.35" fill="#5ecdc3" fill-rule="evenodd"/>
              <polygon points="9.88 25.35 9.31 23.47 10.49 23.47 9.88 25.35" fill="#87e7de" fill-rule="evenodd"/>
              <polygon points="9.88 25.35 8.14 23.47 9.31 23.47 9.88 25.35" fill="#5ecdc3" fill-rule="evenodd"/>
            </g>
          </g>
        </g>
        <g>
          <g>
            <path d="M40.9,37.35a1.41,1.41,0,0,0,0-.41,1.48,1.48,0,0,0,0-.42,1.41,1.41,0,0,0,0-.41,1.41,1.41,0,0,0,0-.41,1.41,1.41,0,0,0,0-.41,1.68,1.68,0,0,0-.32-1.21,2.67,2.67,0,0,0-1.29-.88l-.06,0c-2.58-1-10.08-1.6-18.67-1.62h-.32a127.59,127.59,0,0,0-13.2.6C1.59,32.74.66,33.52.36,34.33a1.57,1.57,0,0,0-.14.9,1.48,1.48,0,0,0,0,.42,1.41,1.41,0,0,0,0,.41,1.41,1.41,0,0,0,0,.41,1.41,1.41,0,0,0,0,.41,1.41,1.41,0,0,0,0,.41,1.64,1.64,0,0,0,.16,1c.37.71,1.22,1.53,6.77,2.17a123.39,123.39,0,0,0,13.4.66h.32a123.15,123.15,0,0,0,13.19-.62c5.48-.63,6.32-1.44,6.67-2.15A1.68,1.68,0,0,0,40.9,37.35Z" fill="#ffaa5a"/>
            <g>
              <path d="M20.55,38.1c-1.89,0-18.46-.1-19.71-2.55a1.12,1.12,0,0,1,.05-1.12h0C2.26,32.25,16,32.08,20.24,32.08h.32c8.53,0,16,.65,18.49,1.58a2.15,2.15,0,0,1,1.13.76,1.1,1.1,0,0,1,.09,1.19C39.08,38,23.91,38.1,20.87,38.1Z" fill="#fcf8cb"/>
              <path d="M20.24,32.8h.32c8.6,0,15.87.66,18.25,1.54h0a1.63,1.63,0,0,1,.73.45.44.44,0,0,1,.05.49c-.58,1.15-8.39,2.09-18.76,2.09h-.32c-10.54,0-18.47-1-19.07-2.16a.38.38,0,0,1,0-.4c.33-1.13,8.56-2,18.74-2m0-1.44A128,128,0,0,0,7,32C1.93,32.51.59,33.2.18,34.24a1.83,1.83,0,0,0,0,1.63c.41.8,1.28,1.63,6.92,2.29a126.88,126.88,0,0,0,13.43.66h.32a121,121,0,0,0,13.22-.63c5.57-.63,6.42-1.46,6.82-2.25a1.85,1.85,0,0,0-.17-2,2.87,2.87,0,0,0-1.38-1l-.06,0c-2.64-1-10-1.61-18.73-1.63Z" fill="#ffaa5a"/>
            </g>
          </g>
          <g>
            <path d="M21.55,21.47a.55.55,0,0,1-.18,0,.71.71,0,0,1-.53-.68v0c0-.92,0-1.87-.13-2.63a.68.68,0,0,1,.12-.48l4.22-6.38a1,1,0,0,1,.22-.33l.05,0a.68.68,0,0,1,.52-.23l13.07,0a.72.72,0,0,1,.68.49,1.52,1.52,0,0,1-.77,1.75,3,3,0,0,1-1.37.31c-1.61.08-4,.17-6.4.25l-4.52.16-4.36,7.47A.72.72,0,0,1,21.55,21.47Z" fill="#ddab88"/>
            <path d="M25.84,11.37l13.07,0a.82.82,0,0,1-.44.91,2.4,2.4,0,0,1-1.06.22c-2.78.14-7.9.28-11.31.42l-.15.28-4.4,7.53c0-1,0-1.93-.12-2.74l4.25-6.44a.44.44,0,0,1,.12-.17l0,0h0m0-1.44a1.43,1.43,0,0,0-1.15.59,2.19,2.19,0,0,0-.25.37l-.9,1.36-3.29,5a1.41,1.41,0,0,0-.23,1c.09.73.1,1.68.12,2.59a1.42,1.42,0,0,0,1.07,1.36,1.12,1.12,0,0,0,.36.05,1.43,1.43,0,0,0,1.24-.71l4.1-7,.06-.11,4.13-.15c2.35-.08,4.78-.16,6.4-.24a3.63,3.63,0,0,0,1.69-.4A2.23,2.23,0,0,0,40.27,11a1.44,1.44,0,0,0-1.36-1l-6.63,0-6.44,0h0Z" fill="#6a3417"/>
          </g>
          <g>
            <path d="M20.58,14.06A.71.71,0,0,1,20,13.7c-1.3-2.27-2.73-4.54-4.24-6.78-2-.14-3.77-.23-6.11-.23h-.8a.7.7,0,0,1-.54-.24.68.68,0,0,1-.17-.56L8.21,5a.72.72,0,0,1,.71-.63h0c1.17,0,2.34,0,3.51,0s2.62,0,3.93-.06h0a1,1,0,0,1,.24,0,.71.71,0,0,1,.39.29c1.34,2.07,2.75,4.13,4.2,6.13a.73.73,0,0,1,0,.8,3.14,3.14,0,0,0,0,1.64.72.72,0,0,1-.47.8A.93.93,0,0,1,20.58,14.06Z" fill="#ddab88"/>
            <path d="M16.43,5c1.35,2.09,2.76,4.15,4.22,6.16a3.33,3.33,0,0,0-.07,2.14c-1.39-2.43-2.89-4.8-4.46-7.11C13.78,6.06,12,6,9.61,6h-.8l.12-.93c1.17,0,2.34,0,3.51,0q2,0,4-.06h0m0-1.43h-.08c-1.29,0-2.61.05-3.91.05-1.15,0-2.32,0-3.48,0h0A1.44,1.44,0,0,0,7.5,4.87l-.06.45-.06.47a1.47,1.47,0,0,0,.35,1.14,1.49,1.49,0,0,0,1.08.48h.8c2.19,0,3.86.07,5.71.2,1.44,2.13,2.79,4.3,4,6.45a1.43,1.43,0,0,0,1.24.71,1.4,1.4,0,0,0,.49-.08A1.43,1.43,0,0,0,22,13.11a4.91,4.91,0,0,1-.11-1.18,1.44,1.44,0,0,0-.08-1.57c-1.44-2-2.84-4-4.18-6.1a1.42,1.42,0,0,0-1.2-.65Z" fill="#6a3417"/>
          </g>
          <g>
            <path d="M20.51,34.88a2.17,2.17,0,0,1-1.8-1,.71.71,0,0,1-.11-.4c0-1.35.11-2.7.17-4,.08-1.77.16-3.45.16-4.73,0-5.61,0-9.23,0-11.44A24.39,24.39,0,0,1,19.09,10V1.82a.76.76,0,0,1,.19-.5,2,2,0,0,1,1.47-.6,2,2,0,0,1,1.6.77.71.71,0,0,1,.14.42c0,7.25,0,11.6,0,14.1a1.84,1.84,0,0,1,0,.31V17c0,.75,0,1.29,0,1.68,0,2.44,0,6.86,0,14.47a.71.71,0,0,1,0,.14,2,2,0,0,1-1.68,1.58Z" fill="#d8a960"/>
            <path d="M20.75,1.43a1.27,1.27,0,0,1,1,.48c0,9.64,0,14.16,0,16,0,2.22,0,6.74,0,15.21a1.3,1.3,0,0,1-1.07,1h-.17a1.42,1.42,0,0,1-1.19-.69c.1-3.26.32-6.52.33-8.72,0-11.22.06-14.45.08-14.45s.06,6,.07,6,0-3.24,0-14.47a1.31,1.31,0,0,1,.95-.39M21.8,16s0,3,0,3V17.92c0-1.39,0-1.88,0-1.88M20.75,0a2.76,2.76,0,0,0-2,.83,1.45,1.45,0,0,0-.39,1c0,3.35,0,6,0,8.13a4.16,4.16,0,0,0-.1,1c0,.48,0,1.24,0,2.35,0,2.21,0,5.83,0,11.44,0,1.26-.09,2.94-.17,4.71-.06,1.27-.12,2.62-.16,4a1.38,1.38,0,0,0,.21.79,2.83,2.83,0,0,0,2.41,1.37,2.36,2.36,0,0,0,.37,0,2.75,2.75,0,0,0,2.28-2.15,1.33,1.33,0,0,0,0-.28c0-7.19,0-11.53,0-14a1.62,1.62,0,0,0,0-.22V17.23c0-.33,0-.64,0-.93,0-2.45,0-6.86,0-14.39a1.43,1.43,0,0,0-.27-.84A2.67,2.67,0,0,0,20.75,0Z" fill="#6a3417"/>
          </g>
        </g>
      </g>
    </g>
  </g>
</svg>
