<svg xmlns="http://www.w3.org/2000/svg" width="30.03" height="41.02" viewBox="0 0 30.03 41.02">
  <g id="Layer_2" data-name="Layer 2">
    <g id="Layer_5" data-name="Layer 5">
      <g id="owl_clean_3" data-name="owl_clean 3">
        <path d="M13.38,10.13h3.88V3.92H12.77v6.21h.61Z" fill="#ffaa5a"/>
        <g>
          <path d="M9.57,14.89a.71.71,0,0,1-.72-.72V10.9a1.43,1.43,0,0,1,1.42-1.42h9.49a1.43,1.43,0,0,1,1.43,1.42v3.27a.71.71,0,0,1-.24.53.75.75,0,0,1-.48.19h-.08a8.49,8.49,0,0,0-.88-.05l-.11-.72v.72H10.64l-.12-.72v.72a8.49,8.49,0,0,0-.88.05Z" fill="#baa2ee"/>
          <path d="M19.76,10.2a.7.7,0,0,1,.71.7v3.27a7.46,7.46,0,0,0-.95-.06h-9a7.46,7.46,0,0,0-.95.06V10.9a.7.7,0,0,1,.7-.7h9.49m0-1.44H10.27A2.14,2.14,0,0,0,8.14,10.9v3.27a1.41,1.41,0,0,0,.48,1.07,1.39,1.39,0,0,0,1,.36h.16c.26,0,.53,0,.81-.05h9c.27,0,.54,0,.81.05h.16a1.39,1.39,0,0,0,1-.36,1.41,1.41,0,0,0,.48-1.07V10.9a2.14,2.14,0,0,0-2.14-2.14Z" fill="#7850b3"/>
        </g>
        <g>
          <path d="M9.57,14.89a.71.71,0,0,1-.72-.72V10.9a1.43,1.43,0,0,1,1.42-1.42h9.49a1.43,1.43,0,0,1,1.43,1.42v3.27a.71.71,0,0,1-.24.53.75.75,0,0,1-.48.19h-.08a8.49,8.49,0,0,0-.88-.05l-.11-.72v.72H10.64l-.12-.72v.72a8.49,8.49,0,0,0-.88.05Z" fill="#baa2ee"/>
          <path d="M19.76,10.2a.7.7,0,0,1,.71.7v3.27a7.46,7.46,0,0,0-.95-.06h-9a7.46,7.46,0,0,0-.95.06V10.9a.7.7,0,0,1,.7-.7h9.49m0-1.44H10.27A2.14,2.14,0,0,0,8.14,10.9v3.27a1.41,1.41,0,0,0,.48,1.07,1.39,1.39,0,0,0,1,.36h.16c.26,0,.53,0,.81-.05h9c.27,0,.54,0,.81.05h.16a1.39,1.39,0,0,0,1-.36,1.41,1.41,0,0,0,.48-1.07V10.9a2.14,2.14,0,0,0-2.14-2.14Z" fill="#7850b3"/>
        </g>
        <g>
          <path d="M7.67,40.3a3.46,3.46,0,0,1-3.32-2.52L1.08,26c0-.15-.08-.3-.11-.45S.89,25.14.86,25l-.07-.53c0-.16,0-.31-.05-.45s0-.36,0-.5V23c0-.18,0-.32,0-.46s0-.34.05-.48,0-.36.08-.5.06-.31.09-.44.08-.32.11-.45l.14-.47c.07-.18.11-.31.16-.44s.12-.29.17-.42l.21-.44c.09-.18.16-.31.23-.43l.22-.38c.1-.17.18-.28.26-.4A7.72,7.72,0,0,1,3,17a4.28,4.28,0,0,1,.31-.36c.23-.25.44-.46.66-.66l.35-.3c.27-.22.51-.4.76-.57s.27-.18.39-.25l.43-.25.41-.21.43-.19L7.22,14l.46-.15a9.56,9.56,0,0,1,1.81-.38c.33,0,.67-.06,1-.07h9c.34,0,.68,0,1,.07A9.93,9.93,0,0,1,29,26L25.68,37.78a3.45,3.45,0,0,1-3.31,2.52Z" fill="#ffeb81"/>
          <path d="M19.4,14.11h.12a7.46,7.46,0,0,1,.95.06,9.21,9.21,0,0,1,7.8,11.59L25,37.59a2.72,2.72,0,0,1-2.62,2H7.67a2.73,2.73,0,0,1-2.63-2L1.77,25.77c0-.14-.07-.28-.1-.42l0-.08c0-.13-.06-.26-.08-.4s0-.05,0-.07l-.06-.41v0c0-.14,0-.27,0-.4s0,0,0-.07,0-.26,0-.4v-.07c0-.14,0-.27,0-.4v0c0-.13,0-.25,0-.38v-.06c0-.13,0-.26,0-.39v-.07l.06-.39v0c0-.12,0-.25.08-.37v0l.09-.38,0-.07.12-.37v0c0-.13.09-.25.13-.37v0l.15-.36,0-.06c0-.12.11-.24.16-.35l0-.05.19-.35h0l.21-.35,0-.05.21-.32,0,0a6,6,0,0,1,.49-.64l0,0,.26-.3,0,0c.18-.2.38-.39.58-.58l0,0,.31-.26,0,0c.22-.17.44-.34.67-.5h0l.34-.22,0,0,.36-.21h0l.39-.2h0L7,14.84l0,0,.39-.15h0l.42-.14h0a9.88,9.88,0,0,1,1.67-.35,7.46,7.46,0,0,1,.95-.06H19.4m0-1.43H10.53a9.75,9.75,0,0,0-1.12.07,10,10,0,0,0-1.88.39H7.47L7,13.32l-.47.18,0,0-.44.2L5.58,14l-.42.24-.44.28a8.54,8.54,0,0,0-.79.59l-.4.34c-.26.23-.48.46-.7.69l-.33.38,0,.05c-.19.23-.38.48-.56.73l0,0-.25.38,0,.06-.24.4s0,0,0,0-.13.23-.2.37l0,.05c-.07.13-.13.27-.19.4L.9,19c-.07.16-.13.3-.18.44s-.12.31-.17.45l0,.05c0,.14-.08.28-.13.43v.06a4.32,4.32,0,0,0-.12.45v0l-.09.43v.06c0,.14,0,.29-.07.44V22c0,.15,0,.3,0,.45v.06c0,.16,0,.31,0,.45v.6c0,.15,0,.3,0,.46v.06c0,.17,0,.32,0,.47s0,.35.07.5l0,.1.09.45,0,.07c0,.18.08.34.12.5L3.66,38a4.17,4.17,0,0,0,4,3.05h14.7a4.15,4.15,0,0,0,4-3.05l3.28-11.83a10.63,10.63,0,0,0-9-13.39,7.88,7.88,0,0,0-1.09-.07Z" fill="#ffaa5a"/>
        </g>
        <path d="M15,31.53a3.07,3.07,0,0,0,3.07-3.07c0-1.69-2.25-6.3-3.07-6.3-.62,0-3.07,4.61-3.07,6.3A3.06,3.06,0,0,0,15,31.53Z" fill="#baa2ee"/>
        <g>
          <path d="M4.89,8A1.68,1.68,0,0,1,4.39,8a1.91,1.91,0,0,1-.49-.21,2.43,2.43,0,0,1-.28-.2A1.86,1.86,0,0,1,3.18,7l-.09-.15A2.19,2.19,0,0,1,3,6.53a1.16,1.16,0,0,1,0-.18A1.16,1.16,0,0,1,2.9,6a1.34,1.34,0,0,1,0-.2A1.78,1.78,0,0,1,3,5.4a1.63,1.63,0,0,1,.09-.19,2.17,2.17,0,0,1,.22-.34,1.1,1.1,0,0,1,.15-.16L5.41,2.76c.11-.11.21-.23.33-.37A4.64,4.64,0,0,1,7.7.83L8,.77l.19,0a4.61,4.61,0,0,1,.53,0l.64,0,.52,0H23.11A1.88,1.88,0,0,1,25,2.7a1.88,1.88,0,0,1-1.9,1.94H9L6.21,7.45A1.85,1.85,0,0,1,4.89,8Z" fill="#baa2ee"/>
          <path d="M8.68,1.43c.39,0,.8,0,1.16,0H23.11a1.23,1.23,0,0,1,0,2.45H8.73L8,4.67,5.7,6.94a1.11,1.11,0,0,1-.81.36,1.06,1.06,0,0,1-.31,0,1.69,1.69,0,0,1-.31-.13A1.24,1.24,0,0,1,4.09,7a1.38,1.38,0,0,1-.3-.34.93.93,0,0,1,0-.1.83.83,0,0,1-.08-.22l0-.11a1.5,1.5,0,0,1,0-.22s0-.08,0-.12a.9.9,0,0,1,.06-.22l0-.12a1.43,1.43,0,0,1,.15-.22L4,5.22,5.83,3.36l.11-.11c.53-.56,1.23-1.53,2-1.73l.18,0,.16,0a3.15,3.15,0,0,1,.44,0M8.68,0a5.79,5.79,0,0,0-.61,0l-.23,0a1.94,1.94,0,0,0-.33.07A5.23,5.23,0,0,0,5.2,1.92l-.31.35-.07.07-.27.27L3,4.2l-.19.21a3.34,3.34,0,0,0-.32.48l-.11.26a2.52,2.52,0,0,0-.14.54,2.45,2.45,0,0,0,0,.27,3.12,3.12,0,0,0,0,.52,1.83,1.83,0,0,0,.06.25,2.75,2.75,0,0,0,.17.45,1.57,1.57,0,0,0,.12.21,2.58,2.58,0,0,0,.59.69,2,2,0,0,0,.37.28,2.8,2.8,0,0,0,.67.28,2.26,2.26,0,0,0,.69.1A2.58,2.58,0,0,0,6.71,8L9,5.68l.33-.33H23.11A2.58,2.58,0,0,0,25.73,2.7,2.58,2.58,0,0,0,23.11,0H9.84L9.36,0,8.68,0Z" fill="#7850b3"/>
        </g>
        <path d="M15,19.54A7.31,7.31,0,0,0,13.73,34a7.83,7.83,0,0,0,1.29.12,7.31,7.31,0,0,0,0-14.62Zm0,12.19A3.07,3.07,0,0,1,12,28.66C12,27,14.4,22.35,15,22.35c.82,0,3.07,4.61,3.07,6.31A3.08,3.08,0,0,1,15,31.73Z" fill="#fff"/>
      </g>
    </g>
  </g>
</svg>
