<svg xmlns="http://www.w3.org/2000/svg" viewBox="0 0 34.1 38.5"><g style="isolation:isolate"><g id="Layer_2" data-name="Layer 2"><g id="Layer_1-2" data-name="Layer 1"><g id="Props"><g id="fo_food_stock" data-name="fo_food stock"><path d="M26.4,1a3.3,3.3,0,0,1,1.7,2.3,5.1,5.1,0,0,1,2.1-2.1,3.9,3.9,0,0,1,.5,2,3.1,3.1,0,0,1,1.5-.4h.9c-.3,2.3-1.3,3.4-2.3,3.9,2.1,1.4,3.1,3.8.1,10.8S19.7,37.5,16.3,37.5h-.6c-1.1-.6-1.4-2.9-1.1-6h0v-.6h0a38.8,38.8,0,0,1,.8-4.5h0v-.2a.4.4,0,0,1,.1-.3h0c.3-1.7.8-3.5,1.3-5.3h0V20H17c.6-2.1,1.3-4.2,2-6h0c.1-.1.1-.1.1-.2v-.3h.1a1.4,1.4,0,0,1,.2-.6,30.4,30.4,0,0,1,2.6-4.9h0l.4-.4h0c1.3-1.6,2.5-2.2,3.7-2.2h.4C25.4,3.4,26.4,1,26.4,1m0-1H26l-.6.5a7.7,7.7,0,0,0-.3,3.7,6.5,6.5,0,0,0-3.3,2.3.1.1,0,0,1-.1.1l-.4.5a27.4,27.4,0,0,0-2.7,5.2.8.8,0,0,0-.2.5h-.1v.2h-.1c-.7,1.8-1.5,4-2.1,6.1h0v.2h0v.2c-.5,1.8-.9,3.6-1.3,5.3h0v.3h0c-.4,1.7-.6,3.3-.8,4.7v.2h0v.2c-.4,3.9.1,6.2,1.6,6.9h.2c.2.2.5.2.9.2,4.4,0,12.5-13.4,15.5-20.5s2.6-9.1.6-11.2a6.7,6.7,0,0,0,1.7-3.7A1.1,1.1,0,0,0,33.4,2a4.4,4.4,0,0,0-1.2-.2h-.7A3.6,3.6,0,0,0,31.1.8a.9.9,0,0,0-.9-.6h-.4a6.3,6.3,0,0,0-1.5,1A4.4,4.4,0,0,0,26.8.1Z" style="fill:#451724"/><path d="M12.9,1a3.3,3.3,0,0,1,1.7,2.3,5,5,0,0,1,2.2-2.1,5.1,5.1,0,0,1,.4,2,3.4,3.4,0,0,1,1.5-.4h.9c-.3,2.3-1.3,3.4-2.3,3.9,2.1,1.4,3.1,3.8.1,10.8S6.2,37.5,2.8,37.5H2.2c-1.1-.6-1.4-2.9-1.1-6h0v-.2a.4.4,0,0,1,.1-.3h0a37.9,37.9,0,0,1,.7-4.5h0v-.2c0-.1.1-.2.1-.3H2c.4-1.7.8-3.5,1.3-5.3h0c.1,0,.1-.1.1-.2V20h0a46.8,46.8,0,0,1,2.1-6h0v-.6h0c.1-.2.1-.4.2-.6A41.3,41.3,0,0,1,8.6,7.8h0c.2-.1.3-.3.4-.4H9c1.3-1.6,2.5-2.2,3.7-2.2h.4C11.9,3.4,12.9,1,12.9,1m0-1h-.4a1.2,1.2,0,0,0-.5.5,5.7,5.7,0,0,0-.3,3.7A7.1,7.1,0,0,0,8.3,6.6c0,.1,0,.1-.1.1a1,1,0,0,1-.4.5,27.4,27.4,0,0,0-2.7,5.2c-.1.1-.1.3-.2.5H4.8v.2H4.6c-.7,1.8-1.4,4-2.1,6.1h0v.2H2.4v.2c-.5,1.8-1,3.6-1.4,5.3H1v.3h0C.6,27.7.3,29.3.2,30.7V31h0v.2c-.3,3.9.2,6.2,1.6,6.9h.2a1.5,1.5,0,0,0,.9.2c4.5,0,12.5-13.4,15.5-20.5s2.7-9.1.6-11.2a5.6,5.6,0,0,0,1.7-3.7A1,1,0,0,0,20,2a5.6,5.6,0,0,0-1.3-.2h-.6c-.1-.4-.3-.8-.4-1.1a1.1,1.1,0,0,0-.9-.6h-.5a5,5,0,0,0-1.4,1A4.8,4.8,0,0,0,13.3.1Z" style="fill:#451724"/><path d="M33.1,2.9s-3.6-1.3-4.6,4.5C28.5,7.4,32.4,7.7,33.1,2.9Z" style="fill:#b1b2f3"/><path d="M30.2,1.2s-4,1.8-2,6.4C28.2,7.6,32,4.9,30.2,1.2Z" style="fill:#878cf0"/><path d="M26.4,1s-1.6,3.9,1.7,5.6C28.1,6.6,29.1,2.3,26.4,1Z" style="fill:#b1b2f3"/><path d="M29.1,6c3.1,1.3,5.5,2.9,1.8,11.6s-12,21.2-15.2,19.8.1-16,3.8-24.7S25.9,4.7,29.1,6Z" style="fill:#ec827d"/><path d="M24.4,24c-2.6,6.1-5.8,11-8.7,13.4h0c3.2,1.4,11.5-11.1,15.2-19.8S32.2,7.3,29.1,6l-1.9-.7C28.9,8.2,27.9,15.8,24.4,24Z" style="fill:#f1f2f2;mix-blend-mode:multiply"/><path d="M28.8,13.1A11.5,11.5,0,0,1,24,11.8l-.3.5a11.4,11.4,0,0,0,5.1,1.3Z" style="fill:#d66b6b"/><path d="M19,13.9,21.9,15l.2-.5a13.9,13.9,0,0,1-2.8-1.2Z" style="fill:#d66b6b"/><path d="M22.1,7.8A16.6,16.6,0,0,0,25.2,9l.2-.5L22.5,7.4Z" style="fill:#d66b6b"/><path d="M19.8,31.5a9.2,9.2,0,0,1-5.2-.7v.6a9.6,9.6,0,0,0,5.3.7Z" style="fill:#d66b6b"/><path d="M16.8,20.4a14.8,14.8,0,0,0,2.9,1.2v-.5A16.9,16.9,0,0,1,17,19.9C16.9,20.1,16.9,20.3,16.8,20.4Z" style="fill:#d66b6b"/><path d="M17.9,26.7v-.6a6.1,6.1,0,0,1-2.4-.4,1.3,1.3,0,0,0-.1.6A10.1,10.1,0,0,0,17.9,26.7Z" style="fill:#d66b6b"/><path d="M19.6,2.9S16,1.6,15,7.4C15,7.4,19,7.7,19.6,2.9Z" style="fill:#ffe76b"/><path d="M16.8,1.2S12.7,3,14.7,7.6C14.7,7.6,18.5,4.9,16.8,1.2Z" style="fill:#7cac42"/><path d="M12.9,1s-1.6,3.9,1.7,5.6C14.6,6.6,15.7,2.3,12.9,1Z" style="fill:#ffe76b"/><path d="M15.6,6c3.2,1.3,5.5,2.9,1.8,11.6S5.4,38.8,2.3,37.4s0-16,3.7-24.7S12.5,4.7,15.6,6Z" style="fill:#ec827d"/><path d="M11,24C8.4,30.1,5.1,35,2.2,37.4h.1c3.1,1.4,11.4-11.1,15.1-19.8S18.8,7.3,15.6,6l-1.8-.7C15.5,8.2,14.4,15.8,11,24Z" style="fill:#f1f2f2;mix-blend-mode:multiply"/><path d="M15.3,13.1a11.9,11.9,0,0,1-4.8-1.3l-.2.5a10.9,10.9,0,0,0,5,1.3Z" style="fill:#d66b6b"/><path d="M5.6,13.9,8.4,15l.2-.5a16.9,16.9,0,0,1-2.8-1.2A1.4,1.4,0,0,0,5.6,13.9Z" style="fill:#d66b6b"/><path d="M8.6,7.8A19.8,19.8,0,0,0,11.7,9l.2-.5L9,7.4C8.9,7.5,8.8,7.7,8.6,7.8Z" style="fill:#d66b6b"/><path d="M6.3,31.5a8.9,8.9,0,0,1-5.1-.7,1.3,1.3,0,0,0-.1.6,9.6,9.6,0,0,0,5.3.7Z" style="fill:#d66b6b"/><path d="M3.3,20.4a17.8,17.8,0,0,0,2.9,1.2l.2-.5a14.8,14.8,0,0,1-2.9-1.2C3.4,20.1,3.4,20.3,3.3,20.4Z" style="fill:#d66b6b"/><path d="M4.4,26.7v-.6A6.7,6.7,0,0,1,2,25.7c0,.2-.1.4-.1.6A10.1,10.1,0,0,0,4.4,26.7Z" style="fill:#d66b6b"/></g></g></g></g></g></svg>