<svg xmlns="http://www.w3.org/2000/svg" viewBox="0 0 200.78 201.66"><g style="isolation:isolate"><g id="Layer_2" data-name="Layer 2"><g id="Layer_1-2" data-name="Layer 1"><g id="Props"><g id="fu_shelf_1" data-name="fu_shelf 1"><path d="M162.56,95.81h-42.2l-.46,0h0a5.88,5.88,0,0,1-4.4-2.89l-4.79-8.3L96,59.07h-.32q-.42,0-.81.12a7.21,7.21,0,0,0-1.45.44c-.22.1-.43.2-.63.31a6.47,6.47,0,0,0-1.11.78,5.13,5.13,0,0,0-.53.51,5.34,5.34,0,0,0-.39.44,6.55,6.55,0,0,0-.39.53c-.12.18-.24.37-.35.56a10.25,10.25,0,0,0-.81,1.79c-.12.34-.23.68-.32,1a8,8,0,0,0-.2.81L102.2,89.87l4.62,8a15.65,15.65,0,0,0,1.88,2.6,15.85,15.85,0,0,0,7.56,4.73,15.18,15.18,0,0,0,3.43.57h42.19q.3,0,.6,0C164.75,102.72,163.7,98.55,162.56,95.81Zm0,0h-42.2l-.46,0h0a5.88,5.88,0,0,1-4.4-2.89l-4.79-8.3L96,59.07h-.32q-.42,0-.81.12a7.21,7.21,0,0,0-1.45.44c-.22.1-.43.2-.63.31a6.47,6.47,0,0,0-1.11.78,5.13,5.13,0,0,0-.53.51,5.34,5.34,0,0,0-.39.44,6.55,6.55,0,0,0-.39.53c-.12.18-.24.37-.35.56a10.25,10.25,0,0,0-.81,1.79c-.12.34-.23.68-.32,1a8,8,0,0,0-.2.81L102.2,89.87l4.62,8a15.65,15.65,0,0,0,1.88,2.6,15.85,15.85,0,0,0,7.56,4.73,15.18,15.18,0,0,0,3.43.57h42.19q.3,0,.6,0C164.75,102.72,163.7,98.55,162.56,95.81Zm0,0h-42.2l-.46,0h0a5.88,5.88,0,0,1-4.4-2.89l-4.79-8.3L96,59.07h-.32q-.42,0-.81.12a7.21,7.21,0,0,0-1.45.44c-.22.1-.43.2-.63.31a6.47,6.47,0,0,0-1.11.78,5.13,5.13,0,0,0-.53.51,5.34,5.34,0,0,0-.39.44,6.55,6.55,0,0,0-.39.53c-.12.18-.24.37-.35.56a10.25,10.25,0,0,0-.81,1.79c-.12.34-.23.68-.32,1a8,8,0,0,0-.2.81L102.2,89.87l4.62,8a15.65,15.65,0,0,0,1.88,2.6,15.85,15.85,0,0,0,7.56,4.73,15.18,15.18,0,0,0,3.43.57h42.19q.3,0,.6,0C164.75,102.72,163.7,98.55,162.56,95.81Zm0,0h-42.2l-.46,0h0a5.88,5.88,0,0,1-4.4-2.89l-4.79-8.3L96,59.07h-.32q-.42,0-.81.12a7.21,7.21,0,0,0-1.45.44c-.22.1-.43.2-.63.31a6.47,6.47,0,0,0-1.11.78,5.13,5.13,0,0,0-.53.51,5.34,5.34,0,0,0-.39.44,6.55,6.55,0,0,0-.39.53c-.12.18-.24.37-.35.56a10.25,10.25,0,0,0-.81,1.79c-.12.34-.23.68-.32,1a8,8,0,0,0-.2.81L102.2,89.87l4.62,8a15.65,15.65,0,0,0,1.88,2.6,15.85,15.85,0,0,0,7.56,4.73,15.18,15.18,0,0,0,3.43.57h42.19q.3,0,.6,0C164.75,102.72,163.7,98.55,162.56,95.81Zm0,0h-42.2l-.46,0h0a5.88,5.88,0,0,1-4.4-2.89l-4.79-8.3L96,59.07h-.32q-.42,0-.81.12a7.21,7.21,0,0,0-1.45.44c-.22.1-.43.2-.63.31a6.47,6.47,0,0,0-1.11.78,5.13,5.13,0,0,0-.53.51,5.34,5.34,0,0,0-.39.44,6.55,6.55,0,0,0-.39.53c-.12.18-.24.37-.35.56a10.25,10.25,0,0,0-.81,1.79c-.12.34-.23.68-.32,1a8,8,0,0,0-.2.81L102.2,89.87l4.62,8a15.65,15.65,0,0,0,1.88,2.6,15.85,15.85,0,0,0,7.56,4.73,15.18,15.18,0,0,0,3.43.57h42.19q.3,0,.6,0C164.75,102.72,163.7,98.55,162.56,95.81Zm0,0h-42.2l-.46,0h0a5.88,5.88,0,0,1-4.4-2.89l-4.79-8.3L96,59.07h-.32q-.42,0-.81.12a7.21,7.21,0,0,0-1.45.44c-.22.1-.43.2-.63.31a6.47,6.47,0,0,0-1.11.78,5.13,5.13,0,0,0-.53.51,5.34,5.34,0,0,0-.39.44,6.55,6.55,0,0,0-.39.53c-.12.18-.24.37-.35.56a10.25,10.25,0,0,0-.81,1.79c-.12.34-.23.68-.32,1a8,8,0,0,0-.2.81L102.2,89.87l4.62,8a15.65,15.65,0,0,0,1.88,2.6,15.85,15.85,0,0,0,7.56,4.73,15.18,15.18,0,0,0,3.43.57h42.19q.3,0,.6,0C164.75,102.72,163.7,98.55,162.56,95.81Zm0,0h-42.2l-.46,0h0a5.88,5.88,0,0,1-4.4-2.89l-4.79-8.3L96,59.07h-.32q-.42,0-.81.12a7.21,7.21,0,0,0-1.45.44c-.22.1-.43.2-.63.31a6.47,6.47,0,0,0-1.11.78,5.13,5.13,0,0,0-.53.51,5.34,5.34,0,0,0-.39.44,6.55,6.55,0,0,0-.39.53c-.12.18-.24.37-.35.56a10.25,10.25,0,0,0-.81,1.79c-.12.34-.23.68-.32,1a8,8,0,0,0-.2.81L102.2,89.87l4.62,8a15.65,15.65,0,0,0,1.88,2.6,15.85,15.85,0,0,0,7.56,4.73,15.18,15.18,0,0,0,3.43.57h42.19q.3,0,.6,0C164.75,102.72,163.7,98.55,162.56,95.81Zm34.6-50.08-3.24-5.61L180.27,16.47l-4.07-7A15.9,15.9,0,0,0,162.47,1.5H120.55a15.88,15.88,0,0,0-10.93,4.38,15.46,15.46,0,0,0-2.8,3.55L90.18,38.24h0l-4.32,7.48a15.21,15.21,0,0,0-1.36,3.1,15.89,15.89,0,0,0,1.36,12.75l2.79,4.83L102.2,89.87l4.62,8a15.65,15.65,0,0,0,1.88,2.6,15.85,15.85,0,0,0,7.56,4.73,15.18,15.18,0,0,0,3.43.57h.07c.26,0,.52,0,.79,0h42a15.88,15.88,0,0,0,11.19-4.71,15.65,15.65,0,0,0,2.47-3.22l4.07-7.06L192,70.46l5.13-8.88A15.91,15.91,0,0,0,197.16,45.73ZM170.33,88.05l-2.79,4.83a5.86,5.86,0,0,1-4.68,2.92h-42.5l-.46,0h0a5.88,5.88,0,0,1-4.4-2.89l-4.79-8.3L96,59.07l-1.44-2.49a5.87,5.87,0,0,1,0-5.85l4.6-8,16.36-28.33a5.6,5.6,0,0,1,1.7-1.85,5.83,5.83,0,0,1,3.37-1.08h41.92a5.87,5.87,0,0,1,5.07,2.93l4.7,8.15L184.79,44.3l3.71,6.43a5.87,5.87,0,0,1,0,5.85l-4.78,8.27Zm-7.77,7.76h-42.2l-.46,0h0a5.88,5.88,0,0,1-4.4-2.89l-4.79-8.3L96,59.07h-.32q-.42,0-.81.12a7.21,7.21,0,0,0-1.45.44c-.22.1-.43.2-.63.31a6.47,6.47,0,0,0-1.11.78,5.13,5.13,0,0,0-.53.51,5.34,5.34,0,0,0-.39.44,6.55,6.55,0,0,0-.39.53c-.12.18-.24.37-.35.56a10.25,10.25,0,0,0-.81,1.79c-.12.34-.23.68-.32,1a8,8,0,0,0-.2.81L102.2,89.87l4.62,8a15.65,15.65,0,0,0,1.88,2.6,15.85,15.85,0,0,0,7.56,4.73,15.18,15.18,0,0,0,3.43.57h42.19q.3,0,.6,0C164.75,102.72,163.7,98.55,162.56,95.81Zm0,0h-42.2l-.46,0h0a5.88,5.88,0,0,1-4.4-2.89l-4.79-8.3L96,59.07h-.32q-.42,0-.81.12a7.21,7.21,0,0,0-1.45.44c-.22.1-.43.2-.63.31a6.47,6.47,0,0,0-1.11.78,5.13,5.13,0,0,0-.53.51,5.34,5.34,0,0,0-.39.44,6.55,6.55,0,0,0-.39.53c-.12.18-.24.37-.35.56a10.25,10.25,0,0,0-.81,1.79c-.12.34-.23.68-.32,1a8,8,0,0,0-.2.81L102.2,89.87l4.62,8a15.65,15.65,0,0,0,1.88,2.6,15.85,15.85,0,0,0,7.56,4.73,15.18,15.18,0,0,0,3.43.57h42.19q.3,0,.6,0C164.75,102.72,163.7,98.55,162.56,95.81Zm0,0h-42.2l-.46,0h0a5.88,5.88,0,0,1-4.4-2.89l-4.79-8.3L96,59.07h-.32q-.42,0-.81.12a7.21,7.21,0,0,0-1.45.44c-.22.1-.43.2-.63.31a6.47,6.47,0,0,0-1.11.78,5.13,5.13,0,0,0-.53.51,5.34,5.34,0,0,0-.39.44,6.55,6.55,0,0,0-.39.53c-.12.18-.24.37-.35.56a10.25,10.25,0,0,0-.81,1.79c-.12.34-.23.68-.32,1a8,8,0,0,0-.2.81L102.2,89.87l4.62,8a15.65,15.65,0,0,0,1.88,2.6,15.85,15.85,0,0,0,7.56,4.73,15.18,15.18,0,0,0,3.43.57h42.19q.3,0,.6,0C164.75,102.72,163.7,98.55,162.56,95.81Zm0,0h-42.2l-.46,0h0a5.88,5.88,0,0,1-4.4-2.89l-4.79-8.3L96,59.07h-.32q-.42,0-.81.12a7.21,7.21,0,0,0-1.45.44c-.22.1-.43.2-.63.31a6.47,6.47,0,0,0-1.11.78,5.13,5.13,0,0,0-.53.51,5.34,5.34,0,0,0-.39.44,6.55,6.55,0,0,0-.39.53c-.12.18-.24.37-.35.56a10.25,10.25,0,0,0-.81,1.79c-.12.34-.23.68-.32,1a8,8,0,0,0-.2.81L102.2,89.87l4.62,8a15.65,15.65,0,0,0,1.88,2.6,15.85,15.85,0,0,0,7.56,4.73,15.18,15.18,0,0,0,3.43.57h42.19q.3,0,.6,0C164.75,102.72,163.7,98.55,162.56,95.81Zm0,0h-42.2l-.46,0h0a5.88,5.88,0,0,1-4.4-2.89l-4.79-8.3L96,59.07h-.32q-.42,0-.81.12a7.21,7.21,0,0,0-1.45.44c-.22.1-.43.2-.63.31a6.47,6.47,0,0,0-1.11.78,5.13,5.13,0,0,0-.53.51,5.34,5.34,0,0,0-.39.44,6.55,6.55,0,0,0-.39.53c-.12.18-.24.37-.35.56a10.25,10.25,0,0,0-.81,1.79c-.12.34-.23.68-.32,1a8,8,0,0,0-.2.81L102.2,89.87l4.62,8a15.65,15.65,0,0,0,1.88,2.6,15.85,15.85,0,0,0,7.56,4.73,15.18,15.18,0,0,0,3.43.57h42.19q.3,0,.6,0C164.75,102.72,163.7,98.55,162.56,95.81Zm0,0h-42.2l-.46,0h0a5.88,5.88,0,0,1-4.4-2.89l-4.79-8.3L96,59.07h-.32q-.42,0-.81.12a7.21,7.21,0,0,0-1.45.44c-.22.1-.43.2-.63.31a6.47,6.47,0,0,0-1.11.78,5.13,5.13,0,0,0-.53.51,5.34,5.34,0,0,0-.39.44,6.55,6.55,0,0,0-.39.53c-.12.18-.24.37-.35.56a10.25,10.25,0,0,0-.81,1.79c-.12.34-.23.68-.32,1a8,8,0,0,0-.2.81L102.2,89.87l4.62,8a15.65,15.65,0,0,0,1.88,2.6,15.85,15.85,0,0,0,7.56,4.73,15.18,15.18,0,0,0,3.43.57h42.19q.3,0,.6,0C164.75,102.72,163.7,98.55,162.56,95.81Z" fill="#ddb39d"/><path d="M196.57,140l-16.65-28.83-4.31-7.47a15.65,15.65,0,0,0-1.88-2.6,15.91,15.91,0,0,0-10.87-5.3h-.3a5.16,5.16,0,0,0-.68,0h-42a15.1,15.1,0,0,0-3.43.4,15.89,15.89,0,0,0-7.75,4.31,15.65,15.65,0,0,0-2.47,3.22L104,107.64h0l-17,29.51h0L85.27,140a15.89,15.89,0,0,0,0,15.86l1.51,2.62,19.45,33.68A15.92,15.92,0,0,0,120,200.09h41.92a15.12,15.12,0,0,0,2.43-.19,15.9,15.9,0,0,0,11.3-7.74L178,188l18.58-32.18A15.92,15.92,0,0,0,196.57,140Zm-8.66,10.86-17.72,30.7-3.24,5.6a5.85,5.85,0,0,1-5.07,2.93H120a5.88,5.88,0,0,1-5.07-2.93L97.12,156.39l-3.19-5.53a5.89,5.89,0,0,1,0-5.86l1.23-2.13,16.42-28.43,3.31-5.74a5.87,5.87,0,0,1,4.8-2.92h42.19q.3,0,.6,0h.06A5.83,5.83,0,0,1,167,108.7l5.61,9.72L187.91,145A5.89,5.89,0,0,1,187.91,150.86Z" fill="#ddb39d"/><path d="M111.51,113.84c0-.18-.05-.36-.08-.54s-.08-.38-.13-.58a3.74,3.74,0,0,0-.12-.45,5.75,5.75,0,0,0-.23-.66,6.37,6.37,0,0,0-.55-1.11,4.27,4.27,0,0,0-.3-.44c-.07-.09-.14-.19-.22-.28l-.25-.27c-.12-.12-.24-.24-.37-.35a4.19,4.19,0,0,0-.33-.26l-.35-.24a4.68,4.68,0,0,0-.54-.3,3.48,3.48,0,0,0-.48-.21l-.4-.14-.21-.07a9,9,0,0,0-1.15-.22l-.65-.07h-.33a8.22,8.22,0,0,0-.86,0h-.22L86.83,137a1.19,1.19,0,0,0,.08.2h0l.21.47c.07.16.15.31.23.46a7,7,0,0,0,.55.9,3.91,3.91,0,0,0,.3.41,1.71,1.71,0,0,0,.21.26,5.25,5.25,0,0,0,.6.65l.33.3.36.29.53.38a1.85,1.85,0,0,0,.33.21,5.33,5.33,0,0,0,.71.38,2.06,2.06,0,0,0,.26.12,4.08,4.08,0,0,0,.42.17,4.56,4.56,0,0,0,.52.18,6.08,6.08,0,0,0,.76.22,4.36,4.36,0,0,0,.52.11,4,4,0,0,0,.5.09l.26,0h0l.42,0,16.58-28.7v0A2.89,2.89,0,0,0,111.51,113.84Zm0,0c0-.18-.05-.36-.08-.54s-.08-.38-.13-.58a3.74,3.74,0,0,0-.12-.45,5.75,5.75,0,0,0-.23-.66,6.37,6.37,0,0,0-.55-1.11,4.27,4.27,0,0,0-.3-.44c-.07-.09-.14-.19-.22-.28l-.25-.27c-.12-.12-.24-.24-.37-.35a4.19,4.19,0,0,0-.33-.26l-.35-.24a4.68,4.68,0,0,0-.54-.3,3.48,3.48,0,0,0-.48-.21l-.4-.14-.21-.07a9,9,0,0,0-1.15-.22l-.65-.07h-.33a8.22,8.22,0,0,0-.86,0h-.22L86.83,137a1.19,1.19,0,0,0,.08.2h0l.21.47c.07.16.15.31.23.46a7,7,0,0,0,.55.9,3.91,3.91,0,0,0,.3.41,1.71,1.71,0,0,0,.21.26,5.25,5.25,0,0,0,.6.65l.33.3.36.29.53.38a1.85,1.85,0,0,0,.33.21,5.33,5.33,0,0,0,.71.38,2.06,2.06,0,0,0,.26.12,4.08,4.08,0,0,0,.42.17,4.56,4.56,0,0,0,.52.18,6.08,6.08,0,0,0,.76.22,4.36,4.36,0,0,0,.52.11,4,4,0,0,0,.5.09l.26,0h0l.42,0,16.58-28.7v0A2.89,2.89,0,0,0,111.51,113.84Zm0,0c0-.18-.05-.36-.08-.54s-.08-.38-.13-.58a3.74,3.74,0,0,0-.12-.45c-.07-.22-.14-.44-.23-.66a6.37,6.37,0,0,0-.55-1.11,4.27,4.27,0,0,0-.3-.44c-.07-.09-.14-.19-.22-.28l-.25-.27c-.12-.12-.24-.24-.37-.35a4.19,4.19,0,0,0-.33-.26l-.35-.24a4.68,4.68,0,0,0-.54-.3,3.48,3.48,0,0,0-.48-.21l-.4-.14-.21-.07a9,9,0,0,0-1.15-.22l-.65-.07h-.33a8.22,8.22,0,0,0-.86,0h-.22L86.83,137a1.19,1.19,0,0,0,.08.2h0l.21.47c.07.16.15.31.23.46a7,7,0,0,0,.55.9,3.91,3.91,0,0,0,.3.41,1.71,1.71,0,0,0,.21.26,5.25,5.25,0,0,0,.6.65l.33.3.36.29.53.38a1.85,1.85,0,0,0,.33.21,5.33,5.33,0,0,0,.71.38,2.06,2.06,0,0,0,.26.12,4.08,4.08,0,0,0,.42.17,4.56,4.56,0,0,0,.52.18,6.08,6.08,0,0,0,.76.22,4.36,4.36,0,0,0,.52.11,4,4,0,0,0,.5.09l.26,0h0l.42,0,16.58-28.7v0A2.89,2.89,0,0,0,111.51,113.84Zm0,0c0-.18-.05-.36-.08-.54s-.08-.38-.13-.58a3.74,3.74,0,0,0-.12-.45c-.07-.22-.14-.44-.23-.66a6.37,6.37,0,0,0-.55-1.11,4.27,4.27,0,0,0-.3-.44c-.07-.09-.14-.19-.22-.28l-.25-.27c-.12-.12-.24-.24-.37-.35a4.19,4.19,0,0,0-.33-.26l-.35-.24a4.68,4.68,0,0,0-.54-.3,3.48,3.48,0,0,0-.48-.21l-.4-.14-.21-.07a9,9,0,0,0-1.15-.22l-.65-.07h-.33a8.22,8.22,0,0,0-.86,0h-.22L86.83,137a1.19,1.19,0,0,0,.08.2h0l.21.47c.07.16.15.31.23.46a7,7,0,0,0,.55.9,3.91,3.91,0,0,0,.3.41,1.71,1.71,0,0,0,.21.26,5.25,5.25,0,0,0,.6.65l.33.3.36.29.53.38a1.85,1.85,0,0,0,.33.21,5.33,5.33,0,0,0,.71.38,2.06,2.06,0,0,0,.26.12,4.08,4.08,0,0,0,.42.17,4.56,4.56,0,0,0,.52.18,6.08,6.08,0,0,0,.76.22,4.36,4.36,0,0,0,.52.11,4,4,0,0,0,.5.09l.26,0h0l.42,0,16.58-28.7v0A2.89,2.89,0,0,0,111.51,113.84Zm0,0c0-.18-.05-.36-.08-.54s-.08-.38-.13-.58a3.74,3.74,0,0,0-.12-.45c-.07-.22-.14-.44-.23-.66a6.37,6.37,0,0,0-.55-1.11,4.27,4.27,0,0,0-.3-.44c-.07-.09-.14-.19-.22-.28l-.25-.27c-.12-.12-.24-.24-.37-.35a4.19,4.19,0,0,0-.33-.26l-.35-.24a4.68,4.68,0,0,0-.54-.3,3.48,3.48,0,0,0-.48-.21l-.4-.14-.21-.07a9,9,0,0,0-1.15-.22l-.65-.07h-.33a8.22,8.22,0,0,0-.86,0h-.22L86.83,137a1.19,1.19,0,0,0,.08.2h0l.21.47c.07.16.15.31.23.46a7,7,0,0,0,.55.9,3.91,3.91,0,0,0,.3.41,1.71,1.71,0,0,0,.21.26,5.25,5.25,0,0,0,.6.65l.33.3.36.29.53.38a1.85,1.85,0,0,0,.33.21,5.33,5.33,0,0,0,.71.38,2.06,2.06,0,0,0,.26.12,4.08,4.08,0,0,0,.42.17,4.56,4.56,0,0,0,.52.18,6.08,6.08,0,0,0,.76.22,4.36,4.36,0,0,0,.52.11,4,4,0,0,0,.5.09l.26,0h0l.42,0,16.58-28.7v0A2.89,2.89,0,0,0,111.51,113.84Zm0,0c0-.18-.05-.36-.08-.54s-.08-.38-.13-.58a3.74,3.74,0,0,0-.12-.45c-.07-.22-.14-.44-.23-.66a6.37,6.37,0,0,0-.55-1.11,4.27,4.27,0,0,0-.3-.44c-.07-.09-.14-.19-.22-.28l-.25-.27c-.12-.12-.24-.24-.37-.35a4.19,4.19,0,0,0-.33-.26l-.35-.24a4.68,4.68,0,0,0-.54-.3,3.48,3.48,0,0,0-.48-.21l-.4-.14-.21-.07a9,9,0,0,0-1.15-.22l-.65-.07h-.33a8.22,8.22,0,0,0-.86,0h-.22L86.83,137a1.19,1.19,0,0,0,.08.2h0l.21.47c.07.16.15.31.23.46a7,7,0,0,0,.55.9,3.91,3.91,0,0,0,.3.41,1.71,1.71,0,0,0,.21.26,5.25,5.25,0,0,0,.6.65l.33.3.36.29.53.38a1.85,1.85,0,0,0,.33.21,5.33,5.33,0,0,0,.71.38,2.06,2.06,0,0,0,.26.12,4.08,4.08,0,0,0,.42.17,4.56,4.56,0,0,0,.52.18,6.08,6.08,0,0,0,.76.22,4.36,4.36,0,0,0,.52.11,4,4,0,0,0,.5.09l.26,0h0l.42,0,16.58-28.7v0A2.89,2.89,0,0,0,111.51,113.84Zm4.94-17.67a15.77,15.77,0,0,0-1.55-3.71l-4.36-7.55L95.64,59.1h0L94,56.16a15.9,15.9,0,0,0-9.45-7.33,15.36,15.36,0,0,0-4.28-.6H38.3a15.89,15.89,0,0,0-13.73,7.93l-.51.88-19,32.88L3.61,92.46A15.82,15.82,0,0,0,3.44,108c.05.11.11.22.17.33L22.5,141l2.07,3.58a15.89,15.89,0,0,0,13.73,7.93H80.22a15.72,15.72,0,0,0,3.5-.4A15.92,15.92,0,0,0,94,144.62l1-1.77,16.58-28.7v0l3.35-5.81a15.29,15.29,0,0,0,1.36-3.11A15.73,15.73,0,0,0,116.45,96.17ZM38.3,142.55a5.88,5.88,0,0,1-5.07-2.93l-3.16-5.47-16.16-28h0l-1.64-2.83a5.89,5.89,0,0,1,0-5.86l4-6.91h0L31.61,64l1.62-2.8a5.85,5.85,0,0,1,5.07-2.93H80.22a5.88,5.88,0,0,1,5.07,2.93l3.27,5.67,13.3,23,4.38,7.6a5.84,5.84,0,0,1,0,5.86l-2.5,4.33L86.83,137l-1.54,2.67a5.9,5.9,0,0,1-5.07,2.93Zm73.21-28.71c0-.18-.05-.36-.08-.54s-.08-.38-.13-.58a3.74,3.74,0,0,0-.12-.45c-.07-.22-.14-.44-.23-.66a6.37,6.37,0,0,0-.55-1.11,4.27,4.27,0,0,0-.3-.44c-.07-.09-.14-.19-.22-.28l-.25-.27c-.12-.12-.24-.24-.37-.35a4.19,4.19,0,0,0-.33-.26l-.35-.24a4.68,4.68,0,0,0-.54-.3,3.48,3.48,0,0,0-.48-.21l-.4-.14-.21-.07a9,9,0,0,0-1.15-.22l-.65-.07h-.33a8.22,8.22,0,0,0-.86,0h-.22L86.83,137a1.19,1.19,0,0,0,.08.2h0l.21.47c.07.16.15.31.23.46a7,7,0,0,0,.55.9,3.91,3.91,0,0,0,.3.41,1.71,1.71,0,0,0,.21.26,5.25,5.25,0,0,0,.6.65l.33.3.36.29.53.38a1.85,1.85,0,0,0,.33.21,5.33,5.33,0,0,0,.71.38,2.06,2.06,0,0,0,.26.12,4.08,4.08,0,0,0,.42.17,4.56,4.56,0,0,0,.52.18,6.08,6.08,0,0,0,.76.22,4.36,4.36,0,0,0,.52.11,4,4,0,0,0,.5.09l.26,0h0l.42,0,16.58-28.7v0A2.89,2.89,0,0,0,111.51,113.84Zm0,0c0-.18-.05-.36-.08-.54s-.08-.38-.13-.58a3.74,3.74,0,0,0-.12-.45c-.07-.22-.14-.44-.23-.66a6.37,6.37,0,0,0-.55-1.11,4.27,4.27,0,0,0-.3-.44c-.07-.09-.14-.19-.22-.28l-.25-.27c-.12-.12-.24-.24-.37-.35a4.19,4.19,0,0,0-.33-.26l-.35-.24a4.68,4.68,0,0,0-.54-.3,3.48,3.48,0,0,0-.48-.21l-.4-.14-.21-.07a9,9,0,0,0-1.15-.22l-.65-.07h-.33a8.22,8.22,0,0,0-.86,0h-.22L86.83,137a1.19,1.19,0,0,0,.08.2h0l.21.47c.07.16.15.31.23.46a7,7,0,0,0,.55.9,3.91,3.91,0,0,0,.3.41,1.71,1.71,0,0,0,.21.26,5.25,5.25,0,0,0,.6.65l.33.3.36.29.53.38a1.85,1.85,0,0,0,.33.21,5.33,5.33,0,0,0,.71.38,2.06,2.06,0,0,0,.26.12,4.08,4.08,0,0,0,.42.17,4.56,4.56,0,0,0,.52.18,6.08,6.08,0,0,0,.76.22,4.36,4.36,0,0,0,.52.11,4,4,0,0,0,.5.09l.26,0h0l.42,0,16.58-28.7v0A2.89,2.89,0,0,0,111.51,113.84Zm0,0c0-.18-.05-.36-.08-.54s-.08-.38-.13-.58a3.74,3.74,0,0,0-.12-.45c-.07-.22-.14-.44-.23-.66a6.37,6.37,0,0,0-.55-1.11,4.27,4.27,0,0,0-.3-.44c-.07-.09-.14-.19-.22-.28l-.25-.27c-.12-.12-.24-.24-.37-.35a4.19,4.19,0,0,0-.33-.26l-.35-.24a4.68,4.68,0,0,0-.54-.3,3.48,3.48,0,0,0-.48-.21l-.4-.14-.21-.07a9,9,0,0,0-1.15-.22l-.65-.07h-.33a8.22,8.22,0,0,0-.86,0h-.22L86.83,137a1.19,1.19,0,0,0,.08.2h0l.21.47c.07.16.15.31.23.46a7,7,0,0,0,.55.9,3.91,3.91,0,0,0,.3.41,1.71,1.71,0,0,0,.21.26,5.25,5.25,0,0,0,.6.65l.33.3.36.29.53.38a1.85,1.85,0,0,0,.33.21,5.33,5.33,0,0,0,.71.38,2.06,2.06,0,0,0,.26.12,4.08,4.08,0,0,0,.42.17,4.56,4.56,0,0,0,.52.18,6.08,6.08,0,0,0,.76.22,4.36,4.36,0,0,0,.52.11,4,4,0,0,0,.5.09l.26,0h0l.42,0,16.58-28.7v0A2.89,2.89,0,0,0,111.51,113.84Zm0,0c0-.18-.05-.36-.08-.54s-.08-.38-.13-.58a3.74,3.74,0,0,0-.12-.45c-.07-.22-.14-.44-.23-.66a6.37,6.37,0,0,0-.55-1.11,4.27,4.27,0,0,0-.3-.44c-.07-.09-.14-.19-.22-.28l-.25-.27c-.12-.12-.24-.24-.37-.35a4.19,4.19,0,0,0-.33-.26l-.35-.24a4.68,4.68,0,0,0-.54-.3,3.48,3.48,0,0,0-.48-.21l-.4-.14-.21-.07a9,9,0,0,0-1.15-.22l-.65-.07h-.33a8.22,8.22,0,0,0-.86,0h-.22L86.83,137a1.19,1.19,0,0,0,.08.2h0l.21.47c.07.16.15.31.23.46a7,7,0,0,0,.55.9,3.91,3.91,0,0,0,.3.41,1.71,1.71,0,0,0,.21.26,5.25,5.25,0,0,0,.6.65l.33.3.36.29.53.38a1.85,1.85,0,0,0,.33.21,5.33,5.33,0,0,0,.71.38,2.06,2.06,0,0,0,.26.12,4.08,4.08,0,0,0,.42.17,4.56,4.56,0,0,0,.52.18,6.08,6.08,0,0,0,.76.22,4.36,4.36,0,0,0,.52.11,4,4,0,0,0,.5.09l.26,0h0l.42,0,16.58-28.7v0A2.89,2.89,0,0,0,111.51,113.84Zm0,0c0-.18-.05-.36-.08-.54s-.08-.38-.13-.58a3.74,3.74,0,0,0-.12-.45,5.75,5.75,0,0,0-.23-.66,6.37,6.37,0,0,0-.55-1.11,4.27,4.27,0,0,0-.3-.44c-.07-.09-.14-.19-.22-.28l-.25-.27c-.12-.12-.24-.24-.37-.35a4.19,4.19,0,0,0-.33-.26l-.35-.24a4.68,4.68,0,0,0-.54-.3,3.48,3.48,0,0,0-.48-.21l-.4-.14-.21-.07a9,9,0,0,0-1.15-.22l-.65-.07h-.33a8.22,8.22,0,0,0-.86,0h-.22L86.83,137a1.19,1.19,0,0,0,.08.2h0l.21.47c.07.16.15.31.23.46a7,7,0,0,0,.55.9,3.91,3.91,0,0,0,.3.41,1.71,1.71,0,0,0,.21.26,5.25,5.25,0,0,0,.6.65l.33.3.36.29.53.38a1.85,1.85,0,0,0,.33.21,5.33,5.33,0,0,0,.71.38,2.06,2.06,0,0,0,.26.12,4.08,4.08,0,0,0,.42.17,4.56,4.56,0,0,0,.52.18,6.08,6.08,0,0,0,.76.22,4.36,4.36,0,0,0,.52.11,4,4,0,0,0,.5.09l.26,0h0l.42,0,16.58-28.7v0A2.89,2.89,0,0,0,111.51,113.84Z" fill="#ddb39d"/><g opacity="0.4"><path d="M178,188l-2.38,4.12a15.9,15.9,0,0,1-11.3,7.74c-.05-3.43-.8-7.1-3.17-9.81h.74a5.85,5.85,0,0,0,5.07-2.93l3.24-5.6A10.77,10.77,0,0,0,178,188Z" fill="#cd8a74"/></g><g opacity="0.4"><path d="M103.81,188l2.38,4.12a15.9,15.9,0,0,0,11.3,7.74c.05-3.43.8-7.1,3.17-9.81h-.74a5.85,5.85,0,0,1-5.07-2.93l-3.24-5.6A10.77,10.77,0,0,1,103.81,188Z" fill="#cd8a74"/></g><g opacity="0.4"><path d="M175.61,103.7l4.31,7.47a12.87,12.87,0,0,0-7.36,7.25L167,108.7a5.83,5.83,0,0,0-4.41-2.89h-.07a0,0,0,0,0,0,0c2.27-3.08,1.22-7.25.08-10h.3a5.86,5.86,0,0,0,4.68-2.92l2.79-4.83c2.72,4.58,7.21,3.82,9.94,2.77l-4.07,7.06a15.65,15.65,0,0,1-2.47,3.22A15.65,15.65,0,0,1,175.61,103.7Z" fill="#cd8a74"/></g><g opacity="0.4"><path d="M121.63,105.81h-1.08c-.27,0-.53,0-.79,0h-.07a5.87,5.87,0,0,0-4.8,2.92l-3.31,5.74,0-.29v0a2.89,2.89,0,0,0,0-.29c0-.18-.05-.36-.08-.54s-.08-.38-.13-.58a3.74,3.74,0,0,0-.12-.45,5.75,5.75,0,0,0-.23-.66,6.37,6.37,0,0,0-.55-1.11,4.27,4.27,0,0,0-.3-.44c-.07-.09-.14-.19-.22-.28a3.2,3.2,0,0,0-.25-.27,3.06,3.06,0,0,0-.37-.35,4.19,4.19,0,0,0-.33-.26l-.35-.24a4.68,4.68,0,0,0-.54-.3,3.48,3.48,0,0,0-.48-.21l-.4-.14-.21-.07a7.82,7.82,0,0,0-1.15-.22,6.47,6.47,0,0,0-.65-.07h-.33a8.22,8.22,0,0,0-.86,0h-.22l2.5-4.33a5.84,5.84,0,0,0,0-5.86l-4.38-7.6h.34a8.33,8.33,0,0,0,8.34-5c0-.11.1-.21.15-.33l4.79,8.3a5.88,5.88,0,0,0,4.4,2.89h.51l0,0c-1.52,2-2,5.1,1.24,10C121.61,105.79,121.61,105.8,121.63,105.81Z" fill="#cd8a74"/></g><g opacity="0.4"><path d="M97.12,156.39c-2.94-.87-7.55-1.45-10.34,2.09l-1.51-2.62a15.77,15.77,0,0,1-1.55-3.71,15.72,15.72,0,0,1-3.5.4H70.29c.67-1.75,1.35-5.24-1-10H80.22a5.9,5.9,0,0,0,5.07-2.93L86.83,137a1.19,1.19,0,0,0,.08.2h0l.21.47c.07.16.15.31.23.46a7,7,0,0,0,.55.9,3.91,3.91,0,0,0,.3.41,1.71,1.71,0,0,0,.21.26,5.25,5.25,0,0,0,.6.65l.33.3a2,2,0,0,0,.36.29,3.39,3.39,0,0,0,.53.38,1.85,1.85,0,0,0,.33.21,5.33,5.33,0,0,0,.71.38,2.06,2.06,0,0,0,.26.12,4.08,4.08,0,0,0,.42.17,4,4,0,0,0,.52.18,6.08,6.08,0,0,0,.76.22,4.36,4.36,0,0,0,.52.11,4,4,0,0,0,.5.09l.26,0h0a1.93,1.93,0,0,0,.42,0,.58.58,0,0,0,.19,0L93.93,145a5.89,5.89,0,0,0,0,5.86Z" fill="#cd8a74"/></g><g opacity="0.4"><path d="M41.62,152.55H38.3a15.89,15.89,0,0,1-13.73-7.93L22.5,141c3.82-.76,6.24-4.21,7.57-6.89l3.16,5.47a5.88,5.88,0,0,0,5.07,2.93h2.13C37.76,145.49,39.47,149.49,41.62,152.55Z" fill="#cd8a74"/></g><g opacity="0.4"><path d="M12.27,103.32l1.64,2.83c-3.09-1.07-7.15-1.44-10.47,1.84a15.82,15.82,0,0,1,.17-15.53l1.47-2.54c2.39,1.4,6,2.18,11.18.63l-4,6.91A5.89,5.89,0,0,0,12.27,103.32Z" fill="#cd8a74"/></g><g opacity="0.4"><path d="M40.08,58.23H38.3a5.85,5.85,0,0,0-5.07,2.93L31.61,64c-.84-3.31-2.87-6.64-7.55-6.92l.51-.88A15.89,15.89,0,0,1,38.3,48.23h.42C37.13,51.11,36.43,54.85,40.08,58.23Z" fill="#cd8a74"/></g><g opacity="0.4"><path d="M94.52,56.58,96,59.07h-.32a5.27,5.27,0,0,0-.81.12,6.12,6.12,0,0,0-1.45.44,4.6,4.6,0,0,0-.63.31,5.52,5.52,0,0,0-1.11.78,5.13,5.13,0,0,0-.53.51,5.34,5.34,0,0,0-.39.44,6.55,6.55,0,0,0-.39.53c-.12.18-.24.37-.35.56a10.25,10.25,0,0,0-.81,1.79,10,10,0,0,0-.32,1,8,8,0,0,0-.2.81l-.09.42-3.27-5.67a5.88,5.88,0,0,0-5.07-2.93H75.08c1.37-4.72.13-7.9-1.79-10h6.93a15.36,15.36,0,0,1,4.28.6,15.21,15.21,0,0,1,1.36-3.1l4.32-7.48c1.35,3.94,5.49,4.66,8.94,4.51l-4.6,8A5.87,5.87,0,0,0,94.52,56.58Z" fill="#cd8a74"/></g><g opacity="0.4"><path d="M134.73,11.5H120.55a5.83,5.83,0,0,0-3.37,1.08c-1.26-4.92-4.37-6.51-7.56-6.7A15.88,15.88,0,0,1,120.55,1.5h7.2C127.38,6.24,132.14,9.89,134.73,11.5Z" fill="#cd8a74"/></g><g opacity="0.4"><path d="M180.27,16.47a13.14,13.14,0,0,0-8,6.11l-4.7-8.15a5.87,5.87,0,0,0-5.07-2.93h-4.32c2.94-4.23,2.29-7.6.71-10h3.61A15.9,15.9,0,0,1,176.2,9.43Z" fill="#cd8a74"/></g><g opacity="0.4"><path d="M197.16,61.58,192,70.46a10.77,10.77,0,0,0-8.31-5.61l4.78-8.27a5.87,5.87,0,0,0,0-5.85l-3.71-6.43c4.31,1.17,7.24-1.28,9.13-4.18l3.24,5.61A15.91,15.91,0,0,1,197.16,61.58Z" fill="#cd8a74"/></g><g opacity="0.4" style="mix-blend-mode:overlay"><path d="M179.92,111.17l-4.31-7.47a15.65,15.65,0,0,0-1.88-2.6,15.65,15.65,0,0,0,2.47-3.22l4.07-7.06L192,70.46l5.13-8.88a15.91,15.91,0,0,0,0-15.85l-3.24-5.61L180.27,16.47l-4.07-7A15.9,15.9,0,0,0,162.47,1.5H120.55a15.88,15.88,0,0,0-10.93,4.38,15.46,15.46,0,0,0-2.8,3.55L90.18,38.24h0l-4.32,7.48a15.21,15.21,0,0,0-1.36,3.1,15.36,15.36,0,0,0-4.28-.6H38.3a15.89,15.89,0,0,0-13.73,7.93l-.51.88-19,32.88L3.61,92.46A15.82,15.82,0,0,0,3.44,108c.05.11.11.22.17.33L22.5,141l2.07,3.58a15.89,15.89,0,0,0,13.73,7.93H80.22a15.72,15.72,0,0,0,3.5-.4,15.77,15.77,0,0,0,1.55,3.71l1.51,2.62L103.85,188h0l2.38,4.12a15.84,15.84,0,0,0,8.48,7l.48.16c.35.11.71.21,1.07.3s.62.14.94.2l.33.07h0a15.63,15.63,0,0,0,2.47.2h41.92a15.12,15.12,0,0,0,2.43-.19,15.9,15.9,0,0,0,11.3-7.74L178,188l18.58-32.18a15.92,15.92,0,0,0,0-15.86ZM115.48,14.43a5.6,5.6,0,0,1,1.7-1.85,5.83,5.83,0,0,1,3.37-1.08h41.92a5.87,5.87,0,0,1,5.07,2.93l4.7,8.15L184.79,44.3l3.71,6.43a5.87,5.87,0,0,1,0,5.85l-4.78,8.27-13.39,23.2-2.79,4.83a5.86,5.86,0,0,1-4.68,2.92h-.3a5.16,5.16,0,0,0-.68,0h-42a5.88,5.88,0,0,1-4.4-2.89l-4.79-8.3L96,59.07l-1.44-2.49a5.87,5.87,0,0,1,0-5.85l4.6-8ZM69.34,142.55h-31a5.88,5.88,0,0,1-5.07-2.93l-3.16-5.47-16.16-28h0l-1.64-2.83a5.89,5.89,0,0,1,0-5.86l4-6.91h0L31.61,64l1.62-2.8a5.85,5.85,0,0,1,5.07-2.93H80.22a5.88,5.88,0,0,1,5.07,2.93l3.27,5.67,13.3,23,4.38,7.6a5.84,5.84,0,0,1,0,5.86l-2.5,4.33L86.83,137l-1.54,2.67a5.9,5.9,0,0,1-5.07,2.93Zm118.57,8.31-17.72,30.7-3.24,5.6a5.85,5.85,0,0,1-5.07,2.93H120a5.88,5.88,0,0,1-5.07-2.93L97.12,156.39l-3.19-5.53a5.89,5.89,0,0,1,0-5.86l1.23-2.13,16.42-28.43,3.31-5.74a5.87,5.87,0,0,1,4.8-2.92h.07c.26,0,.52,0,.79,0h42A5.83,5.83,0,0,1,167,108.7l5.61,9.72L187.91,145A5.89,5.89,0,0,1,187.91,150.86Z" fill="#cc7f2b"/></g><path d="M119,201.66l-1.74-.28c-.1,0-.19,0-.29-.06l-1.1-.23c-.39-.1-.78-.21-1.16-.33l-.53-.18a17.33,17.33,0,0,1-9.28-7.67L101.46,187h.05L84,156.61a17,17,0,0,1-1.28-2.74,17.31,17.31,0,0,1-2.47.18H38.31a17.42,17.42,0,0,1-15-8.68L2.32,109.07a4.09,4.09,0,0,1-.21-.4,17.36,17.36,0,0,1,.21-17l21-36.3a17.39,17.39,0,0,1,15-8.68H80.23a17.54,17.54,0,0,1,3.32.32,19.74,19.74,0,0,1,1-2.07l21-36.3a16.8,16.8,0,0,1,3.07-3.89,17.26,17.26,0,0,1,12-4.79h41.92a17.38,17.38,0,0,1,15,8.68l21,36.3a17.4,17.4,0,0,1,0,17.35l-21,36.3a16.67,16.67,0,0,1-1.78,2.53,18.63,18.63,0,0,1,1.2,1.79l21,36.3a17.41,17.41,0,0,1,0,17.36l-21,36.3a17.5,17.5,0,0,1-12.36,8.47,16.47,16.47,0,0,1-2.66.21H120l-1,0Zm-1.49-3.29.22,0a13.67,13.67,0,0,0,2.25.19h41.92a14,14,0,0,0,2.18-.17,14.47,14.47,0,0,0,10.24-7l21-36.3a14.41,14.41,0,0,0,0-14.36l-21-36.3a14.06,14.06,0,0,0-1.71-2.35l-.93-1.06,1-1a14.18,14.18,0,0,0,2.24-2.91l21-36.3a14.39,14.39,0,0,0,0-14.35l-21-36.3A14.4,14.4,0,0,0,162.48,3H120.56a14.3,14.3,0,0,0-9.9,4,14.11,14.11,0,0,0-2.54,3.21l-21,36.3a13.44,13.44,0,0,0-1.22,2.79l-.44,1.41-1.41-.41a13.84,13.84,0,0,0-3.86-.54H38.31a14.4,14.4,0,0,0-12.44,7.18l-.51.88L4.91,93.21a14.39,14.39,0,0,0-.15,14.06l0,.1a2,2,0,0,0,.11.2l21,36.3a14.4,14.4,0,0,0,12.44,7.18H80.23a14.25,14.25,0,0,0,3.16-.36l1.4-.32.38,1.38a14.3,14.3,0,0,0,1.4,3.36l19.61,33.95h0l1.35,2.34a14.34,14.34,0,0,0,7.68,6.34l.44.15q.47.15,1,.27c.29.07.57.13.86.18Zm44.39-6.78H120a7.37,7.37,0,0,1-6.37-3.68l-21-36.3a7.41,7.41,0,0,1,0-7.36l21-36.3a7.33,7.33,0,0,1,6-3.67h.25c.22,0,.44,0,.68,0h42.15a7.34,7.34,0,0,1,5.55,3.63l21,36.3a7.41,7.41,0,0,1,0,7.36h0l-21,36.3A7.35,7.35,0,0,1,161.89,191.59Zm-42.16-84.31a4.42,4.42,0,0,0-3.54,2.17l-21,36.3a4.38,4.38,0,0,0,0,4.36l21,36.3a4.4,4.4,0,0,0,3.78,2.18h41.92a4.33,4.33,0,0,0,3.76-2.18l21-36.3a4.35,4.35,0,0,0,0-4.36l-21-36.3a4.34,4.34,0,0,0-3.2-2.14h-41.9C120.27,107.31,120,107.3,119.73,107.28Zm-39.5,36.77H38.31a7.37,7.37,0,0,1-6.37-3.68l-21-36.3a7.41,7.41,0,0,1,0-7.36l21-36.3a7.35,7.35,0,0,1,6.37-3.68H80.23a7.37,7.37,0,0,1,6.36,3.68l21,36.3a7.33,7.33,0,0,1,0,7.36l-21,36.3A7.4,7.4,0,0,1,80.23,144.05ZM15.41,105.76l19.12,33.11a4.4,4.4,0,0,0,3.78,2.18H80.23A4.39,4.39,0,0,0,84,138.86l21-36.29a4.35,4.35,0,0,0,0-4.36L84,61.91a4.36,4.36,0,0,0-3.76-2.18H38.31a4.33,4.33,0,0,0-3.77,2.18l-21,36.3a4.38,4.38,0,0,0,0,4.36ZM162.6,97.32l-.23,0a3.93,3.93,0,0,0-.48,0H119.71a7.38,7.38,0,0,1-5.52-3.63l-21-36.3a7.36,7.36,0,0,1,0-7.35l21-36.3a7,7,0,0,1,2.15-2.34A7.35,7.35,0,0,1,120.56,10h41.92a7.37,7.37,0,0,1,6.37,3.68l21,36.3a7.36,7.36,0,0,1,0,7.35l-21,36.3A7.31,7.31,0,0,1,163,97.3h-.26Zm-.07,0h0Zm.13-3h.14a4.39,4.39,0,0,0,3.44-2.16l21-36.31a4.38,4.38,0,0,0,0-4.35l-21-36.3A4.33,4.33,0,0,0,162.48,13H120.56a4.43,4.43,0,0,0-2.51.8,4.06,4.06,0,0,0-1.26,1.38h0l-21,36.3a4.38,4.38,0,0,0,0,4.35l21,36.3a4.39,4.39,0,0,0,3.2,2.14h41.91c.23,0,.46,0,.69,0Z" fill="#924f28"/></g></g></g></g></g></svg>