<svg xmlns="http://www.w3.org/2000/svg" xmlns:xlink="http://www.w3.org/1999/xlink" viewBox="0 0 206.67 291.27"><defs><clipPath id="clip-path"><rect x="21.19" y="137.38" width="61.2" height="112.08" rx="10" fill="none"/></clipPath><clipPath id="clip-path-2"><rect x="124.28" y="137.38" width="61.2" height="112.08" rx="10" fill="none"/></clipPath></defs><g id="Layer_2" data-name="Layer 2"><g id="Layer_1-2" data-name="Layer 1"><g id="Props"><g id="fu_kitchen_sink" data-name="fu_kitchen sink"><path d="M14.2,289.77a4.66,4.66,0,0,1,0-9.31H25.77a4.66,4.66,0,0,1,0,9.31Z" fill="#0c4a7b"/><path d="M25.77,282a3.16,3.16,0,0,1,0,6.31H14.2a3.16,3.16,0,0,1,0-6.31H25.77m0-3H14.2a6.16,6.16,0,0,0,0,12.31H25.77a6.16,6.16,0,0,0,0-12.31Z" fill="#134160"/><path d="M180.9,289.77a4.66,4.66,0,1,1,0-9.31h11.56a4.66,4.66,0,1,1,0,9.31Z" fill="#0c4a7b"/><path d="M192.46,282a3.16,3.16,0,1,1,0,6.31H180.9a3.16,3.16,0,1,1,0-6.31h11.56m0-3H180.9a6.16,6.16,0,1,0,0,12.31h11.56a6.16,6.16,0,1,0,0-12.31Z" fill="#134160"/><path d="M197.79,57.32a10,10,0,0,0-9.15-6H18a10,10,0,0,0-9.16,6L1.5,74.1v4.57A4.51,4.51,0,0,0,6,83.17H200.66a4.51,4.51,0,0,0,4.51-4.5V74.1Z" fill="#d1c1ff"/><path d="M200.66,84.67H6a6,6,0,0,1-6-6V73.78L7.5,56.72A11.5,11.5,0,0,1,18,49.84H188.64a11.51,11.51,0,0,1,10.53,6.88l7.5,17.06v4.89A6,6,0,0,1,200.66,84.67ZM3,74.42v4.25a3,3,0,0,0,3,3H200.66a3,3,0,0,0,3-3V74.42l-7.25-16.5a8.51,8.51,0,0,0-7.78-5.08H18a8.5,8.5,0,0,0-7.78,5.08Z" fill="#7850b3"/><path d="M11.5,285.4A8.51,8.51,0,0,1,3,276.9v-2.12H203.67v2.12a8.51,8.51,0,0,1-8.5,8.5Z" fill="#d1c1ff"/><path d="M202.17,276.28v.62a7,7,0,0,1-7,7H11.5a7,7,0,0,1-7-7v-.62H202.17m3-3H1.5v3.62a10,10,0,0,0,10,10H195.17a10,10,0,0,0,10-10v-3.62Z" fill="#7850b3"/><rect x="3.27" y="106.46" width="200.12" height="7.62" fill="#d1c1ff"/><path d="M201.9,108v2.31h0v2.31H4.77v-2.31h0V108H201.9m3-3H1.77v10.62H204.89V105Z" fill="#7850b3"/><rect x="99.09" y="111.31" width="8.48" height="162.95" fill="#d1c1ff"/><rect x="3" y="88.05" width="200.67" height="18.41" rx="3.5" fill="#1d6798"/><path d="M200.17,89.55a2,2,0,0,1,2,2V103a2,2,0,0,1-2,2H6.5a2,2,0,0,1-2-2V91.55a2,2,0,0,1,2-2H200.17m0-3H6.5a5,5,0,0,0-5,5V103a5,5,0,0,0,5,5H200.17a5,5,0,0,0,5-5V91.55a5,5,0,0,0-5-5Z" fill="#134160"/><path d="M56.14,92.61h92a3.07,3.07,0,0,1,3.07,3.07v1.48a3.06,3.06,0,0,1-3.06,3.06h-92a3.06,3.06,0,0,1-3.06-3.06V95.67a3.06,3.06,0,0,1,3.06-3.06Z" fill="#fff"/><path d="M148.17,94.11a1.56,1.56,0,0,1,1.56,1.56v1.49a1.56,1.56,0,0,1-1.56,1.56h-92a1.56,1.56,0,0,1-1.57-1.56V95.67a1.56,1.56,0,0,1,1.57-1.56h92m0-3h-92a4.57,4.57,0,0,0-4.57,4.56v1.49a4.57,4.57,0,0,0,4.57,4.56h92a4.56,4.56,0,0,0,4.56-4.56V95.67a4.57,4.57,0,0,0-4.56-4.56Z" fill="#a4bceb"/><rect x="3" y="114.08" width="97.58" height="158.68" rx="3.5" fill="#1d6798"/><path d="M97.08,115.58a2,2,0,0,1,2,2V269.26a2,2,0,0,1-2,2H6.5a2,2,0,0,1-2-2V117.58a2,2,0,0,1,2-2H97.08m0-3H6.5a5,5,0,0,0-5,5V269.26a5,5,0,0,0,5,5H97.08a5,5,0,0,0,5-5V117.58a5,5,0,0,0-5-5Z" fill="#134160"/><rect x="106.09" y="114.08" width="97.58" height="158.68" rx="3.5" fill="#1d6798"/><path d="M200.17,115.58a2,2,0,0,1,2,2V269.26a2,2,0,0,1-2,2H109.59a2,2,0,0,1-2-2V117.58a2,2,0,0,1,2-2h90.58m0-3H109.59a5,5,0,0,0-5,5V269.26a5,5,0,0,0,5,5h90.58a5,5,0,0,0,5-5V117.58a5,5,0,0,0-5-5Z" fill="#134160"/><rect x="1.5" y="74.1" width="203.67" height="9.07" rx="4" fill="#d1c1ff"/><path d="M201.17,84.67H5.5A5.51,5.51,0,0,1,0,79.17V78.1a5.51,5.51,0,0,1,5.5-5.5H201.17a5.51,5.51,0,0,1,5.5,5.5v1.07A5.51,5.51,0,0,1,201.17,84.67ZM5.5,75.6A2.5,2.5,0,0,0,3,78.1v1.07a2.5,2.5,0,0,0,2.5,2.5H201.17a2.51,2.51,0,0,0,2.5-2.5V78.1a2.51,2.51,0,0,0-2.5-2.5Z" fill="#7850b3"/><rect x="4.77" y="82.69" width="197.12" height="3.86" fill="#7850b3"/><rect x="10.84" y="124.2" width="81.89" height="138.44" rx="10" fill="#d1c1ff"/><path d="M82.74,264.14H20.84a11.51,11.51,0,0,1-11.5-11.5V134.2a11.51,11.51,0,0,1,11.5-11.5h61.9a11.51,11.51,0,0,1,11.5,11.5V252.64A11.51,11.51,0,0,1,82.74,264.14ZM20.84,125.7a8.51,8.51,0,0,0-8.5,8.5V252.64a8.51,8.51,0,0,0,8.5,8.5h61.9a8.51,8.51,0,0,0,8.5-8.5V134.2a8.51,8.51,0,0,0-8.5-8.5Z" fill="#7850b3"/><rect x="15.03" y="129.79" width="73.53" height="127.25" rx="10" fill="#eae5ff"/><path d="M78.56,258.55H25a11.51,11.51,0,0,1-11.5-11.5V139.79A11.51,11.51,0,0,1,25,128.29H78.56a11.51,11.51,0,0,1,11.5,11.5V247.05A11.51,11.51,0,0,1,78.56,258.55ZM25,131.29a8.51,8.51,0,0,0-8.5,8.5V247.05a8.51,8.51,0,0,0,8.5,8.5H78.56a8.51,8.51,0,0,0,8.5-8.5V139.79a8.51,8.51,0,0,0-8.5-8.5Z" fill="#7850b3"/><g clip-path="url(#clip-path)"><rect x="21.19" y="137.38" width="61.2" height="112.08" fill="#85bce1"/><path d="M83.89,251H19.69V135.88h64.2Zm-61.2-3h58.2V138.88H22.69Z" fill="#134160"/><polygon points="21.19 137.38 21.19 249.46 82.39 137.38 21.19 137.38" fill="#addaf3"/></g><path d="M72.39,251H31.19a11.51,11.51,0,0,1-11.5-11.5V147.38a11.51,11.51,0,0,1,11.5-11.5h41.2a11.51,11.51,0,0,1,11.5,11.5v92.08A11.51,11.51,0,0,1,72.39,251ZM31.19,138.88a8.51,8.51,0,0,0-8.5,8.5v92.08a8.51,8.51,0,0,0,8.5,8.5h41.2a8.51,8.51,0,0,0,8.5-8.5V147.38a8.51,8.51,0,0,0-8.5-8.5Z" fill="#134160"/><rect x="113.93" y="124.2" width="81.89" height="138.44" rx="10" fill="#d1c1ff"/><path d="M185.82,264.14H123.93a11.51,11.51,0,0,1-11.5-11.5V134.2a11.51,11.51,0,0,1,11.5-11.5h61.89a11.51,11.51,0,0,1,11.5,11.5V252.64A11.51,11.51,0,0,1,185.82,264.14ZM123.93,125.7a8.51,8.51,0,0,0-8.5,8.5V252.64a8.51,8.51,0,0,0,8.5,8.5h61.89a8.51,8.51,0,0,0,8.5-8.5V134.2a8.51,8.51,0,0,0-8.5-8.5Z" fill="#7850b3"/><rect x="118.11" y="129.79" width="73.53" height="127.25" rx="10" fill="#eae5ff"/><path d="M181.65,258.55H128.11a11.51,11.51,0,0,1-11.5-11.5V139.79a11.51,11.51,0,0,1,11.5-11.5h53.54a11.51,11.51,0,0,1,11.5,11.5V247.05A11.51,11.51,0,0,1,181.65,258.55ZM128.11,131.29a8.52,8.52,0,0,0-8.5,8.5V247.05a8.52,8.52,0,0,0,8.5,8.5h53.54a8.52,8.52,0,0,0,8.5-8.5V139.79a8.52,8.52,0,0,0-8.5-8.5Z" fill="#7850b3"/><g clip-path="url(#clip-path-2)"><rect x="124.28" y="137.38" width="61.2" height="112.08" fill="#85bce1"/><path d="M187,251h-64.2V135.88H187Zm-61.2-3H184V138.88h-58.2Z" fill="#134160"/><polygon points="124.28 137.38 124.28 249.46 185.48 137.38 124.28 137.38" fill="#addaf3"/></g><path d="M175.48,251h-41.2a11.51,11.51,0,0,1-11.5-11.5V147.38a11.51,11.51,0,0,1,11.5-11.5h41.2a11.51,11.51,0,0,1,11.5,11.5v92.08A11.51,11.51,0,0,1,175.48,251Zm-41.2-112.08a8.51,8.51,0,0,0-8.5,8.5v92.08a8.51,8.51,0,0,0,8.5,8.5h41.2a8.52,8.52,0,0,0,8.5-8.5V147.38a8.51,8.51,0,0,0-8.5-8.5Z" fill="#134160"/><path d="M93.7,176.82a3.06,3.06,0,0,1-3.06-3.07V125.88a3.07,3.07,0,1,1,6.13,0v47.87A3.07,3.07,0,0,1,93.7,176.82Z" fill="#fff"/><path d="M93.7,124.31a1.57,1.57,0,0,1,1.57,1.57v47.88a1.56,1.56,0,0,1-1.57,1.56h0a1.56,1.56,0,0,1-1.56-1.56V125.88a1.57,1.57,0,0,1,1.56-1.57h0m0-3a4.57,4.57,0,0,0-4.56,4.57v47.88a4.57,4.57,0,0,0,9.13,0V125.88a4.58,4.58,0,0,0-4.57-4.57Z" fill="#a4bceb"/><path d="M113,176.82a3.06,3.06,0,0,1-3.06-3.07V125.88a3.07,3.07,0,1,1,6.13,0v47.87A3.06,3.06,0,0,1,113,176.82Z" fill="#fff"/><path d="M113,124.31a1.57,1.57,0,0,1,1.56,1.57v47.88a1.56,1.56,0,0,1-1.56,1.56h0a1.56,1.56,0,0,1-1.56-1.56V125.88a1.57,1.57,0,0,1,1.56-1.57h0m0-3a4.58,4.58,0,0,0-4.57,4.57v47.88a4.57,4.57,0,0,0,9.13,0V125.88a4.57,4.57,0,0,0-4.56-4.57Z" fill="#a4bceb"/><path d="M162.78,69.41l-5.44-15.2c-.41-1.47-1.58-2.67-2.6-2.67H28c-1,0-2.21,1.18-2.66,2.62L20.53,69.45c-.45,1.45,0,2.63,1,2.63H161.7C162.71,72.08,163.2,70.88,162.78,69.41Z" fill="#134160"/><path d="M21.86,68.58a2,2,0,0,1,.1-.68l4.77-15.29A2.4,2.4,0,0,1,28,51H154.74a2.46,2.46,0,0,1,1.16,1.58l5.47,15.3a1.8,1.8,0,0,1,0,.66Z" fill="#1d6798"/><path d="M154.22,52.54a1.6,1.6,0,0,1,.24.49l0,.09,0,.1,4.95,13.86H23.79l4.37-14a1.57,1.57,0,0,1,.27-.52H154.22m.52-3H28c-1,0-2.21,1.18-2.66,2.62L20.53,67.45c-.45,1.45,0,2.63,1,2.63H161.7c1,0,1.5-1.2,1.08-2.67l-5.44-15.2c-.41-1.47-1.58-2.67-2.6-2.67Z" fill="#134160"/><path d="M23.35,68a1.15,1.15,0,0,1-1.09-1.49l4.19-13.47c.23-.75,1-1.48,1.5-1.48h84.27c.51,0,1.21.72,1.42,1.46l3.85,13.52a1.15,1.15,0,0,1-1.1,1.46Z" fill="#85bce1"/><path d="M116.39,69.53h-93a2.65,2.65,0,0,1-2.53-3.43L25,52.63A3.55,3.55,0,0,1,28,50.09h84.27a3.37,3.37,0,0,1,2.86,2.55l3.85,13.52a2.64,2.64,0,0,1-.43,2.32A2.61,2.61,0,0,1,116.39,69.53Zm-92.56-3h92.09L112.2,53.46a1,1,0,0,0-.23-.37H28.17a1.3,1.3,0,0,0-.29.43Z" fill="#134160"/><path d="M28.52,51.59a1.14,1.14,0,0,0-1,1.49l3.73,13.47c.2.74.87,1.48,1.33,1.48h74.9c.45,0,1.08-.73,1.27-1.46l3.42-13.52a1.13,1.13,0,0,0-1-1.46Z" fill="#addaf3"/><path d="M116.39,69.53h-93a2.65,2.65,0,0,1-2.53-3.43L25,52.63A3.55,3.55,0,0,1,28,50.09h84.27a3.37,3.37,0,0,1,2.86,2.55l3.85,13.52a2.64,2.64,0,0,1-.43,2.32A2.61,2.61,0,0,1,116.39,69.53Zm-92.56-3h92.09L112.2,53.46a1,1,0,0,0-.23-.37H28.17a1.3,1.3,0,0,0-.29.43Z" fill="#134160"/><g opacity="0.5"><path d="M155.67,54.21h-40c-.21,0-.38-.27-.38-.61s.17-.61.38-.61h40c.21,0,.38.27.38.61S155.88,54.21,155.67,54.21Z" fill="#d0d0d0"/><path d="M156.75,57.64h-40.2c-.21,0-.39-.28-.39-.62s.18-.62.39-.62h40.2c.22,0,.39.28.39.62S157,57.64,156.75,57.64Z" fill="#d0d0d0"/><path d="M157.94,61.07H117.4c-.22,0-.39-.28-.39-.63s.17-.63.39-.63h40.54c.22,0,.39.28.39.63S158.16,61.07,157.94,61.07Z" fill="#d0d0d0"/><path d="M159.22,64.5h-41c-.22,0-.4-.29-.4-.64s.18-.64.4-.64h41c.22,0,.4.28.4.64S159.44,64.5,159.22,64.5Z" fill="#d0d0d0"/><path d="M160.5,67.93H119.1c-.23,0-.41-.29-.41-.65s.18-.66.41-.66h41.4c.23,0,.41.3.41.66S160.73,67.93,160.5,67.93Z" fill="#d0d0d0"/></g><path d="M96.66,18.78V13.84A12.35,12.35,0,0,0,84.32,1.5H77.91A12.35,12.35,0,0,0,65.57,13.84V66.62h7.9V13.84a4.45,4.45,0,0,1,4.44-4.45h6.41a4.46,4.46,0,0,1,4.45,4.45v4.94Z" fill="#fff"/><path d="M75,68.12H64.07V13.84A13.86,13.86,0,0,1,77.91,0h6.41A13.86,13.86,0,0,1,98.16,13.84v6.44H87.27V13.84a3,3,0,0,0-3-2.95H77.91A3,3,0,0,0,75,13.84Zm-7.9-3H72V13.84a6,6,0,0,1,5.94-5.95h6.41a6,6,0,0,1,6,6v3.44h4.89V13.84A10.85,10.85,0,0,0,84.32,3H77.91A10.86,10.86,0,0,0,67.07,13.84Z" fill="#a4bceb"/><rect x="63.33" y="43.2" width="13.12" height="24.92" fill="#1d6798"/><path d="M75,44.7V66.62H64.83V44.7H75m3-3H61.83V69.62H78V41.7Z" fill="#134160"/><path d="M76.92,52.57a1.48,1.48,0,1,0,0-3H62.12a1.48,1.48,0,0,0,0,3Z" fill="#134160"/><path d="M57.68,56a4.94,4.94,0,1,0,0-9.87h-1a4.94,4.94,0,0,0,0,9.87Z" fill="#134160"/><path d="M82.35,56a4.94,4.94,0,0,0,0-9.87h-1a4.94,4.94,0,0,0,0,9.87Z" fill="#134160"/><path d="M96.16,21.23a2,2,0,1,0,0-3.94h-6.9a2,2,0,1,0,0,3.94Z" fill="#134160"/></g></g></g></g></svg>