<svg xmlns="http://www.w3.org/2000/svg" viewBox="0 0 14.1 58"><g id="Layer_2" data-name="Layer 2"><g id="Layer_1-2" data-name="Layer 1"><g id="Props"><g id="fu_kitchen_utensil_stir_2" data-name="fu_kitchen utensil_stir 2"><path d="M7.2,1H6.9A1.9,1.9,0,0,0,5,3V6.8H9.1V3A1.9,1.9,0,0,0,7.2,1ZM7.1,4.1H6.9A1.2,1.2,0,0,1,5.9,3a1.1,1.1,0,0,1,1-1.1h.2A1.1,1.1,0,0,1,8.2,3,1.2,1.2,0,0,1,7.1,4.1Z" style="fill:#dd8f54"/><path d="M11.5,40.4l-.4-1.3c-.6-2.4-.9-4.4-1.2-5.9-.5-3.2-.8-4.9-2.4-5.3v-.2H7.4v-.3l-.4.3-.3-.3v.3h0v.2c-1.7.4-2,2.1-2.5,5.3-.3,1.5-.6,3.5-1.2,5.9l-.4,1.3C1.7,44.2.9,47.7,1,50.6S3.3,56.9,6.9,57h.4c3.5-.2,5.6-2.4,5.8-6.4S12.4,44.2,11.5,40.4ZM6.6,50.6c0-2.8.1-6.4.3-10.1V39.2c.1-2,.1-3.7.2-5.1,0,1.4,0,3.1.1,5.1v1.3c.2,3.8.3,7.3.3,10.1A34.9,34.9,0,0,1,7.1,56C6.9,55.5,6.7,54.2,6.6,50.6ZM5.9,40.5l.2-1.3c0-.6.1-1.3.1-1.9v3.2c-.1,3.7-.2,7.3-.2,10.1a25.5,25.5,0,0,0,.3,4.9,12.4,12.4,0,0,1-.9-4.9C5.3,47.8,5.6,44.3,5.9,40.5Zm2.1,0V39.2a12.1,12.1,0,0,1-.1-1.8c0,.5.1,1.2.1,1.8l.2,1.3c.3,3.8.6,7.3.6,10.1a12.4,12.4,0,0,1-.9,4.9,25.5,25.5,0,0,0,.3-4.9C8.2,47.8,8.1,44.2,8,40.5ZM5.3,39.1v1.4a98.2,98.2,0,0,0-.6,10.1,10.5,10.5,0,0,0,.9,5.1c-1.4-1-1.8-3.2-1.8-5.1a55.3,55.3,0,0,1,1-10l.2-1.4c.4-2.4.7-4.3.8-5.8C5.6,34.9,5.5,36.8,5.3,39.1ZM8.7,55.7a12.9,12.9,0,0,0,.8-5.1,96.7,96.7,0,0,0-.6-10.1V39.1c-.2-2.3-.3-4.2-.4-5.7.1,1.5.4,3.4.8,5.8l.2,1.4a55.3,55.3,0,0,1,1,10C10.4,52.5,10,54.7,8.7,55.7ZM1.8,50.6c-.2-2.8.7-6.5,1.6-10l.3-1.3c.6-2.5.9-4.4,1.2-6l.3-1.4c-.1.4-.1.8-.2,1.3s-.4,3.5-.8,5.9L4,40.4A58.3,58.3,0,0,0,2.9,50.6a9.3,9.3,0,0,0,1.4,5C2.4,54.5,1.9,52.4,1.8,50.6Zm10.5,0c-.1,1.8-.6,3.9-2.5,5a9.3,9.3,0,0,0,1.4-5,58.3,58.3,0,0,0-1.1-10.2l-.2-1.3c-.4-2.4-.6-4.4-.8-5.9s-.1-.9-.2-1.3l.3,1.4c.3,1.6.6,3.5,1.2,6l.3,1.3C11.6,44.1,12.5,47.8,12.3,50.6Z" style="fill:#dd8f54"/><polygon points="9.2 21.5 8.6 28.7 5.5 28.7 4.9 21.5 9.2 21.5" style="fill:#dd8f54"/><path d="M9.3,21.5H4.8a.1.1,0,0,1-.1-.1V6.8H9.4V21.4A.1.1,0,0,1,9.3,21.5Z" style="fill:#607185"/><path d="M7.2,1A1.9,1.9,0,0,1,9.1,3V6.8h.3V21.4a.1.1,0,0,1-.1.1H9.2l-.6,7.1c.7.8.9,2.3,1.3,4.6s.6,3.5,1.2,5.9l.4,1.3c.9,3.8,1.7,7.3,1.6,10.2S10.8,56.8,7.3,57H6.9c-3.6-.1-5.7-2.4-5.9-6.4s.7-6.4,1.6-10.2L3,39.1c.6-2.4.9-4.4,1.2-5.9s.6-3.8,1.3-4.6l-.6-7.1H4.8a.1.1,0,0,1-.1-.1V6.8H5V3A1.9,1.9,0,0,1,6.9,1h.3M7.1,4.1h0A1.2,1.2,0,0,0,8.2,3,1.1,1.1,0,0,0,7.1,1.9H6.9A1.1,1.1,0,0,0,5.9,3a1.2,1.2,0,0,0,1,1.1h.2M4.3,55.6a9.3,9.3,0,0,1-1.4-5A58.3,58.3,0,0,1,4,40.4l.2-1.3c.4-2.4.6-4.4.8-5.9s.1-.9.2-1.3l-.3,1.4c-.3,1.6-.6,3.5-1.2,6l-.3,1.3c-.9,3.5-1.8,7.2-1.6,10s.6,3.9,2.5,5m5.5,0c1.9-1.1,2.4-3.2,2.5-5s-.7-6.5-1.6-10l-.3-1.3c-.6-2.5-.9-4.4-1.2-6l-.3-1.4c.1.4.1.8.2,1.3s.4,3.5.8,5.9l.2,1.3a58.3,58.3,0,0,1,1.1,10.2,9.3,9.3,0,0,1-1.4,5m-1.1.1c1.3-1,1.7-3.2,1.7-5.1a55.3,55.3,0,0,0-1-10l-.2-1.4c-.4-2.4-.7-4.3-.8-5.8.1,1.5.2,3.4.4,5.7v1.4a96.7,96.7,0,0,1,.6,10.1,12.9,12.9,0,0,1-.8,5.1m-3.2,0a10.5,10.5,0,0,1-.9-5.1,98.2,98.2,0,0,1,.6-10.1V39.1c.2-2.3.3-4.2.4-5.7-.1,1.5-.4,3.4-.8,5.8l-.2,1.4a55.3,55.3,0,0,0-1,10c0,1.9.4,4.1,1.8,5.1m1.6.3a34.9,34.9,0,0,0,.4-5.4c0-2.8-.1-6.3-.3-10.1V39.2c-.1-2-.1-3.7-.1-5.1-.1,1.4-.1,3.1-.2,5.1v1.3c-.2,3.7-.3,7.3-.3,10.1s.3,4.9.5,5.4m-.9-.5a25.5,25.5,0,0,1-.3-4.9c0-2.8.1-6.4.2-10.1V37.3c0,.6-.1,1.3-.1,1.9l-.2,1.3c-.3,3.8-.6,7.3-.6,10.1a12.4,12.4,0,0,0,.9,4.9m1.7,0a12.4,12.4,0,0,0,.9-4.9c0-2.8-.3-6.3-.6-10.1L8,39.2c0-.6-.1-1.3-.1-1.8A12.1,12.1,0,0,0,8,39.2v1.3c.1,3.7.2,7.3.2,10.1a25.5,25.5,0,0,1-.3,4.9M7.2,0H6.9A2.9,2.9,0,0,0,4,3V6a1.1,1.1,0,0,0-.3.8V21.4a1.1,1.1,0,0,0,.3.8l.5,6.1A12.1,12.1,0,0,0,3.2,33c-.3,1.5-.6,3.5-1.2,5.9l-.3,1.3A38.8,38.8,0,0,0,0,50.7c.3,4.4,2.7,7.1,6.8,7.3h.8c3.9-.3,6.2-3,6.5-7.3s-.7-6.7-1.7-10.5l-.3-1.3c-.6-2.4-.9-4.3-1.2-5.9a12.1,12.1,0,0,0-1.3-4.7l.5-6.1a1.1,1.1,0,0,0,.3-.8V6.8a1.1,1.1,0,0,0-.3-.8V3A2.9,2.9,0,0,0,7.2,0ZM7.1,3.1H6.9A.1.1,0,0,1,7,2.9c.1,0,.2,0,.2.1Z" style="fill:#924f28"/></g></g></g></g></svg>