<svg xmlns="http://www.w3.org/2000/svg" viewBox="0 0 79.4 85.3"><g style="isolation:isolate"><g id="Layer_2" data-name="Layer 2"><g id="Layer_1-2" data-name="Layer 1"><g id="Props"><g id="to_feather_toy" data-name="to_feather toy"><path d="M63.6,23.5h-.1a.1.1,0,0,0-.1-.1,2.2,2.2,0,0,0-.7-1.7,8.7,8.7,0,0,0-1.4-1.2l-1.4-.9a21.4,21.4,0,0,0-9.2-2.8h-.9c-2.5,0-5.7.6-7.9,3.1a3.9,3.9,0,0,0-.3,3.6h0a14.8,14.8,0,0,0,4,6.3,22.4,22.4,0,0,0,6.1,4.3l1.4.6,1.4.6h.1v.2h-.2L53,35l-1.4-.6a24.5,24.5,0,0,1-6.2-4.3,14.8,14.8,0,0,1-4-6.5h0c-.5-1.7-.3-3,.4-3.8,2.2-2.6,5.4-3.2,8-3.2h1A21.9,21.9,0,0,1,60,19.4l1.5,1L63,21.7A2.4,2.4,0,0,1,63.6,23.5Z" style="fill:#66373f"/><path d="M77.4,32.8C75,36.2,70.5,38,65.4,38a23.8,23.8,0,0,1-5.8-.8l-1.5-.4-1.5-.5h.1l1.5.5,1.5.4a23,23,0,0,0,5.7.8c5.1,0,9.5-1.8,11.8-5.1s1.3-5.2-.1-9.1C74.5,16.2,66.5,6.2,52.7,2.5a35.4,35.4,0,0,0-9.9-1.3c-8.2,0-16.6,2.5-21,7.9s-4.2,12-.6,20.4a.1.1,0,0,1-.1.1H21a35.8,35.8,0,0,1-1.7-4.9,23.8,23.8,0,0,1-.9-6.2,15.2,15.2,0,0,1,3.2-9.6c3.8-4.6,9.9-6.5,14.3-7.3A39.3,39.3,0,0,1,42.8,1a36.6,36.6,0,0,1,10,1.3,38.5,38.5,0,0,1,16.3,9,32.5,32.5,0,0,1,8.2,12.2C78.7,27.5,78.8,30.9,77.4,32.8Z" style="fill:#66373f"/><path d="M23.6,32.5a1.6,1.6,0,0,1-.8,1,1.6,1.6,0,0,1-1.2-.4h0l-.8-1.5a10.4,10.4,0,0,0-.4-1c-.1-.2-.2-.3-.2-.4l.8-.6h.1a.1.1,0,0,0,.1-.1l1-.3c0,.1.1.3.1.4a4.7,4.7,0,0,1,.5,1l.3.5C23.2,31.6,23.6,32,23.6,32.5Z" style="fill:#66373f"/><path d="M23.9,32.7,25,35l-2.2,1-1.1-2.3c-.3-.7.4-1.1.8-1.3A1,1,0,0,1,23.9,32.7Z" style="fill:#ffb8c2"/><path d="M25.3,35.5c2.4.6,4.6,3.2,4.5,4s-1.1.4-1.6.3a10.4,10.4,0,0,1,3.3,5.3c.1.3-.8.6-1.7.3,1.2,3.4,1.7,5.6,1,6.5s-1.4-.6-1.5-.9c-.2,3.5-2.8,7.9-3.9,7.9s-.7-1.1-1.1-1.7c-1.6,2.3-4.2,5.9-6.4,5.9-.7-.1.9-2.8.6-2.6-2.3,1.3-6.3,3.6-9.3,3.3s-.2-1.7-.5-1.7c-2-.1-4.8-.8-5-1.5s3.7.4,5.7-.9c-1-.5-2.7-2.3-1.1-1.9,6,1.3,7.7.3,7.2,0s-1.1-1.6-.2-2,2.9.2,5.1-3.1c-.7.5-2.1.1-2-.4s3-1.4,4.2-5.3c-.6.3-1.7,1.1-1.9.6s1.5-5.4,1.8-6-1.4,1.1-1.7.8-.7-5.1,2-6.4A2.7,2.7,0,0,1,25.3,35.5Z" style="fill:#ff839e"/><path d="M61.8,23.9c-.4.7-1.8,2.7-1.8,2.7h.2L24.8,81.8h-.1l-.6,1c-.6,1,1.3,2.3,1.9,1.3l.7-1h-.1L61.9,27.8h.2l1.7-2.7a1.3,1.3,0,0,0-.3-1.7A1.2,1.2,0,0,0,61.8,23.9Z" style="fill:#ffeb81"/><path d="M63.8,25.2l-1.7,2.7L60,26.6s1.4-2,1.8-2.7a1.2,1.2,0,0,1,1.7-.4A1.3,1.3,0,0,1,63.8,25.2Z" style="fill:#c293c7"/><path d="M26.7,83,26,84c-.6,1-2.5-.3-1.9-1.3l.6-1Z" style="fill:#c293c7"/><g style="opacity:0.45098000000000005;mix-blend-mode:multiply"><path d="M22.8,35.9l1.4-.9a18.4,18.4,0,0,0-.5-2.5l.2.3a14.7,14.7,0,0,1,1,2.2Z" style="fill:#853d6f"/><path d="M30.6,40.2l-.6-.3h-.7c-.1.1,0,.1,0,.1A1.5,1.5,0,0,0,30.6,40.2Z" style="fill:#853d6f"/><path d="M32.2,46.6a1.6,1.6,0,0,1-.9-.3l-.8-.6A3.7,3.7,0,0,0,31.7,47c0,.1.1.1.2.1a.2.2,0,0,0,.2-.2A.4.4,0,0,0,32.2,46.6Z" style="fill:#853d6f"/><path d="M29.7,54.2a4.3,4.3,0,0,0-.1-1.6L29.3,51a7.5,7.5,0,0,1,.8,1.8A2.9,2.9,0,0,0,29.7,54.2Z" style="fill:#853d6f"/><path d="M27.8,50.9c-.2-.1-.3-.2-.3-.4a.5.5,0,0,1,0-.5h.1A2.9,2.9,0,0,0,27.8,50.9Z" style="fill:#853d6f"/><path d="M22,61.5a9.9,9.9,0,0,0,2.1-3.2,4.3,4.3,0,0,1,.4.7L23,60.7A1.9,1.9,0,0,1,22,61.5Z" style="fill:#853d6f"/><path d="M7.2,62.9a2.1,2.1,0,0,1,.8-.6A8,8,0,0,1,2.6,61a2.7,2.7,0,0,1-1.3-1.7.7.7,0,0,0-.3.6c0,.2.2.4.4.6a5.7,5.7,0,0,0,2.8,1.7Z" style="fill:#853d6f"/><path d="M8,59.8h.5c0-.1-.1-.1-.1-.2l-.6-.3c0-.1-.1-.1-.1,0H7.6l.2.3C7.9,59.6,8,59.6,8,59.8Z" style="fill:#853d6f"/><path d="M14.9,58.3l1.3.2a2.1,2.1,0,0,0,1.6-.8l-1.2.4H15.3c.1,0,.2.1.1.1s-.1.1-.2.1Z" style="fill:#853d6f"/><path d="M19.7,53.7a3.7,3.7,0,0,0,1.8-2.1c-.5.5-.8,1.2-1.4,1.5S19.8,53.7,19.7,53.7Z" style="fill:#853d6f"/><path d="M21.2,48.2l1.1-.4.3-.8Z" style="fill:#853d6f"/><path d="M23.4,55.7c-.1.1-.2,0-.3-.1s-.2-.2-.2-.3v-.5h.3a.2.2,0,0,1,.3.1.6.6,0,0,1,.1.4C23.6,55.5,23.5,55.7,23.4,55.7Z" style="fill:#853d6f"/><path d="M10.9,60.3h-.4q-.3-.1-.3-.3c-.1-.2,0-.4.2-.4a.2.2,0,0,1,.3,0l.3.3h.1C11.1,60.1,11.1,60.1,10.9,60.3Z" style="fill:#853d6f"/><path d="M28.2,49.1h-.6c-.2-.1-.3-.3-.4-.4s0-.5.2-.6a.5.5,0,0,1,.5,0,.8.8,0,0,1,.2.4A5.6,5.6,0,0,1,28.2,49.1Z" style="fill:#853d6f"/><path d="M23.8,46.6a.5.5,0,0,1-.4.2.4.4,0,0,1-.5,0,.5.5,0,0,1-.2-.6.7.7,0,0,1,.5-.4.6.6,0,0,1,.6.3C23.9,46.4,23.9,46.6,23.8,46.6Z" style="fill:#853d6f"/><path d="M28.4,36.5a5.8,5.8,0,0,0-2.1-1,4.9,4.9,0,0,0-2.4,0L25,35h.9A7.4,7.4,0,0,1,28.4,36.5Z" style="fill:#853d6f"/><path d="M26.6,83.1a2.8,2.8,0,0,1-1.1.9,1.5,1.5,0,0,1-1.5-.9s-.2,1,1.2,1.2S26.6,83.1,26.6,83.1Z" style="fill:#853d6f"/></g><path d="M42.8,1a36.6,36.6,0,0,1,10,1.3,38.5,38.5,0,0,1,16.3,9,32.5,32.5,0,0,1,8.2,12.2c1.4,4,1.5,7.4.1,9.3C75,36.2,70.5,38,65.4,38a23.8,23.8,0,0,1-5.8-.8l-1.5-.4-1.5-.5h-.1L26.6,83h.1l-.3.4a.8.8,0,0,1-.2.4L26,84l-.2.2H25c-.7-.2-1-.6-1-.9a.6.6,0,0,1,.1-.7l.5-.8v-.2h.1L54.5,35.6h-.1L53,35l-1.4-.6a24.5,24.5,0,0,1-6.2-4.3,14.8,14.8,0,0,1-4-6.5h0c-.5-1.7-.3-3,.4-3.8,2.2-2.6,5.4-3.2,8-3.2h1A21.9,21.9,0,0,1,60,19.4l1.5,1L63,21.7a2.4,2.4,0,0,1,.6,1.8h-.1a.1.1,0,0,0-.1-.1,2.2,2.2,0,0,0-.7-1.7,8.7,8.7,0,0,0-1.4-1.2l-1.4-.9a21.4,21.4,0,0,0-9.2-2.8h-.9c-2.5,0-5.7.6-7.9,3.1a3.9,3.9,0,0,0-.3,3.6h0a14.8,14.8,0,0,0,4,6.3,22.4,22.4,0,0,0,6.1,4.3l1.4.6,1.4.6h.1l5.6-8.7H60s1.4-2,1.8-2.7l.2-.3a1.1,1.1,0,0,1,.7-.3l.8.2a1.4,1.4,0,0,1,.4,1.6h-.1l-.3.5-1.4,2.2h-.2l-5.3,8.3h.1l1.5.5,1.5.4a23,23,0,0,0,5.7.8c5.1,0,9.5-1.8,11.8-5.1s1.3-5.2-.1-9.1C74.5,16.2,66.5,6.2,52.7,2.5a35.4,35.4,0,0,0-9.9-1.3c-8.2,0-16.6,2.5-21,7.9s-4.2,12-.6,20.4l1-.3c0,.1.1.3.1.4a4.7,4.7,0,0,1,.5,1l.3.5a5,5,0,0,1,.4,1.3c.2.1.4.2.4.3L25,35h.9a7.4,7.4,0,0,1,2.5,1.4,5.8,5.8,0,0,0-2.1-1l-1.2-.2-1.2.2h1.4c2.4.6,4.6,3.2,4.5,4s-.6.3-1.1.3h-.5a10.4,10.4,0,0,1,3.3,5.3c0,.2-.4.4-.9.4h-.8c1.2,3.4,1.7,5.6,1,6.5s-.1.1-.2.1a1.7,1.7,0,0,1-1.1-.8l.6,1.6L29.7,54a3.2,3.2,0,0,0-.1-1.4l-.3-1.5h0c-.2,3.5-2.8,7.9-3.9,7.9h0c-.7,0-.7-1.1-1.1-1.7-1.6,2.3-4.2,5.9-6.3,5.9h-.1c-.7-.1.8-2.6.6-2.6h0c-2.2,1.3-5.9,3.4-8.8,3.4H9.2c-2.5-.2-.2-1.7-.5-1.7-2-.1-4.8-.8-5-1.5s.2-.6.7-.6l2.8.2a4,4,0,0,0,2.2-.5c-1-.4-2.4-2-1.4-2h.3a25.8,25.8,0,0,0,5.1.7,3.7,3.7,0,0,0,2-.4h.2c0-.1,0-.1-.1-.2s-1.1-1.6-.2-2,2.6.1,4.7-2.5c0-.1,0-.2.1-.2s.1-.1.2-.2v-.2a1.1,1.1,0,0,1-.8.2c-.6,0-1.3-.3-1.2-.6s2.6-1.4,3.9-4.5l-1.1.4A7.5,7.5,0,0,0,22.6,47h0c-.4.2-1.2.8-1.6.8l-.3-.2c-.4-1.2,1.5-5.4,1.8-6a2.5,2.5,0,0,1-1.4.9h-.3c-.5-.6-.7-5.1,2-6.4l-1.1-2.3v-.5c0-.1,0-.1-.1-.1h0l-.8-1.5a10.4,10.4,0,0,0-.4-1c-.1-.2-.2-.3-.2-.4l.8-.6a35.8,35.8,0,0,1-1.7-4.9,23.8,23.8,0,0,1-.9-6.2,15.2,15.2,0,0,1,3.2-9.6c3.8-4.6,9.9-6.5,14.3-7.3A39.3,39.3,0,0,1,42.8,1M29.7,54v0M15.4,58h0M42.8,0a41.7,41.7,0,0,0-7.1.6c-4.6.8-10.9,2.8-14.8,7.7a15.4,15.4,0,0,0-3.5,10.2,26,26,0,0,0,.9,6.5q.6,2,1.5,4.2l-.2.2a1,1,0,0,0-.4,1.1c.1.2.2.3.2.5a4.7,4.7,0,0,1,.5,1H20a1.7,1.7,0,0,0,.2.5l.5.9a1.3,1.3,0,0,0,.1.6,10.7,10.7,0,0,1,.7,1.5,5.3,5.3,0,0,0-1.8,3.2c-.3,1.5-.3,3.5.4,4.2a.7.7,0,0,0,.5.4c-.6,1.6-1.1,3.5-.8,4.5a1.8,1.8,0,0,0,.5.7h0l.3.3a9.1,9.1,0,0,1-1.8,1.7c-.6.4-1.1.7-1.3,1.4a1.1,1.1,0,0,0,.2,1.1,1.5,1.5,0,0,0,.6.5,3.7,3.7,0,0,1-2.4,1.1l-.9.2a1.7,1.7,0,0,0-1.2,1.5,1.8,1.8,0,0,0,.2,1h-.6a28.5,28.5,0,0,1-4.9-.7H8a1.2,1.2,0,0,0-1.3,1,1.8,1.8,0,0,0,.5,1.5H4.4a1.7,1.7,0,0,0-1.5.6,1.1,1.1,0,0,0-.2,1.2c.3,1.3,2.6,1.9,4.4,2.1a1.1,1.1,0,0,0,0,.8c.4,1,1.7,1.1,2.1,1.1h.5c2.2,0,4.7-1.1,7.1-2.3a1.3,1.3,0,0,0,.1.9,1.1,1.1,0,0,0,1,.6H18c2.1,0,4.1-2.2,6.1-4.9a1.6,1.6,0,0,0,1.3.7h.1c1.3,0,2.8-2.2,3.8-4.8a.1.1,0,0,0,.1.1h.3a1,1,0,0,0,.9-.7c0-.1.1-.2.1-.3a3.9,3.9,0,0,1,.3-1.1v-.2a.9.9,0,0,0,.6-.4c.9-1.2.6-3.1-.4-6.1a1.6,1.6,0,0,0,1-.5,1.9,1.9,0,0,0,.3-1,12.1,12.1,0,0,0-2.3-4.4,1,1,0,0,0,.6-.9c.1-.7-.5-1.7-1.5-2.7a1.1,1.1,0,0,0-.3-1.3,12.2,12.2,0,0,0-2.8-1.4h-.6l-.7-1.8-.4-.5-.4-.8a.3.3,0,0,0-.1-.2h0l-.3-.5-.4-1c-.1-.1-.1-.2-.2-.4a1.1,1.1,0,0,0-.9-.6h-.4c-3.1-7.7-2.9-14.1.8-18.6S33.9,2.2,42.8,2.2a37.9,37.9,0,0,1,9.7,1.2C65.9,7.1,73.6,16.7,76.2,23.9c1.2,3.5,1.3,6.7.2,8.2-2.1,3-6.1,4.7-11,4.7a25.9,25.9,0,0,1-5.5-.7l-1.4-.4h-.4l4.3-6.7a1,1,0,0,0,.5-.4l1.5-2.3.3-.5v-.2a2.4,2.4,0,0,0-.2-2.2,3.5,3.5,0,0,0-.9-2.2,7.8,7.8,0,0,0-1.6-1.5l-1.6-1a22.9,22.9,0,0,0-9.7-3h-1c-3.7,0-6.8,1.2-8.8,3.5a5.3,5.3,0,0,0-.6,4.7h0a16.8,16.8,0,0,0,4.3,6.9,26.4,26.4,0,0,0,6.4,4.5l1.5.6.4.2L24.3,80.8l-.5.4v.2l-.5.8a1.7,1.7,0,0,0-.2,1.4,2.2,2.2,0,0,0,1.7,1.6h.7a1.5,1.5,0,0,0,.9-.2,1.7,1.7,0,0,0,.6-.6H27l.3-.5.2-.3a1.7,1.7,0,0,0,.2-.5L56.9,37.5l.9.3,1.5.4a26.2,26.2,0,0,0,6.1.8c5.6,0,10.3-2.1,12.8-5.6s1.6-5.9.1-10.2a33.9,33.9,0,0,0-8.5-12.6A38.6,38.6,0,0,0,53,1.3,41.9,41.9,0,0,0,42.8,0Zm-.3,23.3h0a3.3,3.3,0,0,1,.2-2.7,9.3,9.3,0,0,1,7.1-2.8h.9a21.5,21.5,0,0,1,8.7,2.7,7.4,7.4,0,0,1,1.3.8,6.5,6.5,0,0,1,1.2,1.1c.1,0,.1,0,.1.1l-.7.4-.3.5c-.5.6-1.8,2.7-1.8,2.7a1.7,1.7,0,0,0-.2.5l-4.8,7.6-.7-.3-1.4-.6a20.3,20.3,0,0,1-5.8-4.1,14.5,14.5,0,0,1-3.8-5.9Z" style="fill:#66373f"/><path d="M29.7,39.9H30l.6.3H30a1,1,0,0,1-.7-.2s-.1,0,0-.1h.4m0-1-.8.2a.9.9,0,0,0-.6.6,1.1,1.1,0,0,0,.5,1.3,2.7,2.7,0,0,0,1.2.3,1.3,1.3,0,0,0,.9-.2,1,1,0,0,0,.7-.8,1.1,1.1,0,0,0-.5-.9,1.9,1.9,0,0,0-.9-.4Z" style="fill:#66373f"/><path d="M30.5,45.7l.8.6a1.4,1.4,0,0,0,.9.3h0a.4.4,0,0,1-.1.3.2.2,0,0,1-.2.2h0c-.1,0-.2,0-.2-.1a3.7,3.7,0,0,1-1.2-1.3m0-1-.6.2a1,1,0,0,0-.3,1.2,5.2,5.2,0,0,0,1.5,1.8,2.9,2.9,0,0,0,.8.2,1.3,1.3,0,0,0,1.2-.8,4.3,4.3,0,0,1,.1-.5,1,1,0,0,0-.2-.9,1.1,1.1,0,0,0-.8-.3h0l-.4-.2-.7-.5-.6-.2Z" style="fill:#66373f"/><path d="M24.1,58.3a4.3,4.3,0,0,1,.4.7L23,60.7a1.9,1.9,0,0,1-1,.8,9.9,9.9,0,0,0,2.1-3.2m0-1h-.2c-.4,0-.6.3-.8.6a8.4,8.4,0,0,1-1.8,2.8,1.3,1.3,0,0,0-.2,1.3,1.1,1.1,0,0,0,.9.4h.3a4.2,4.2,0,0,0,1.4-1.1l1.5-1.8a1,1,0,0,0,.2-1,1.8,1.8,0,0,0-.6-.9,1,1,0,0,0-.7-.4Z" style="fill:#66373f"/><path d="M1.3,59.3A2.7,2.7,0,0,0,2.6,61,8.5,8.5,0,0,0,7,62.4H8a2.1,2.1,0,0,0-.8.6l-3-.7a5.7,5.7,0,0,1-2.8-1.7c-.2-.2-.4-.4-.4-.6a.7.7,0,0,1,.3-.6m6.7,3H8m-6.7-4H1a1.5,1.5,0,0,0-1,1.7,2.9,2.9,0,0,0,.6,1.1,6.7,6.7,0,0,0,3.3,1.9,10.5,10.5,0,0,0,2.4.6l.7.2h.2a.9.9,0,0,0,.8-.4l.4-.3a.9.9,0,0,0,.6-.9,1,1,0,0,0-.9-1H7a7.3,7.3,0,0,1-3.9-1.3c-.6-.4-.8-.7-.8-.9a1,1,0,0,0-.4-.7l-.6-.2Z" style="fill:#66373f"/><path d="M7.7,59.1a.1.1,0,0,1,.1.1l.6.3c0,.1.1.1.1.2H8c0-.2-.1-.2-.2-.3l-.2-.3h.1m0-1-.5.2a.9.9,0,0,0-.5.9.9.9,0,0,0,.4,1,1.6,1.6,0,0,0,.8.6h.2l.8-.2a.8.8,0,0,0,.5-.7,1.1,1.1,0,0,0-.3-1.1l-.8-.5-.6-.2Z" style="fill:#66373f"/></g></g></g></g></g></svg>