<svg xmlns="http://www.w3.org/2000/svg" viewBox="0 0 143.46 241.43"><g id="Layer_2" data-name="Layer 2"><g id="Layer_1-2" data-name="Layer 1"><g id="Props"><g id="fu_kitchen_drawer" data-name="fu_kitchen drawer"><path d="M11.6,239.93a4.66,4.66,0,1,1,0-9.31H23.16a4.66,4.66,0,1,1,0,9.31Z" fill="#0c4a7b"/><path d="M23.16,232.12a3.16,3.16,0,1,1,0,6.31H11.6a3.16,3.16,0,1,1,0-6.31H23.16m0-3H11.6a6.16,6.16,0,1,0,0,12.31H23.16a6.16,6.16,0,1,0,0-12.31Z" fill="#134160"/><path d="M120.29,239.93a4.66,4.66,0,0,1,0-9.31h11.57a4.66,4.66,0,0,1,0,9.31Z" fill="#0c4a7b"/><path d="M131.86,232.12a3.16,3.16,0,0,1,0,6.31H120.29a3.16,3.16,0,0,1,0-6.31h11.57m0-3H120.29a6.16,6.16,0,0,0,0,12.31h11.57a6.16,6.16,0,0,0,0-12.31Z" fill="#134160"/><path d="M134.58,7.48a10,10,0,0,0-9.15-6H18a10,10,0,0,0-9.16,6L1.5,24.26v5A3.53,3.53,0,0,0,5,32.84h133.4A3.53,3.53,0,0,0,142,29.31v-5Z" fill="#d1c1ff"/><path d="M138.43,34.34H5a5,5,0,0,1-5-5V23.94L7.5,6.87A11.51,11.51,0,0,1,18,0h107.4A11.52,11.52,0,0,1,136,6.87l7.5,17.07v5.37A5,5,0,0,1,138.43,34.34ZM3,24.57v4.74a2,2,0,0,0,2,2h133.4a2,2,0,0,0,2-2V24.57L133.21,8.08A8.5,8.5,0,0,0,125.43,3H18a8.49,8.49,0,0,0-7.78,5.08Z" fill="#7850b3"/><path d="M11.5,233.77a8.51,8.51,0,0,1-8.5-8.5v-2.18H140.46v2.18a8.51,8.51,0,0,1-8.5,8.5Z" fill="#d1c1ff"/><path d="M139,224.59v.68a7,7,0,0,1-7,7H11.5a7,7,0,0,1-7-7v-.68H139m3-3H1.5v3.68a10,10,0,0,0,10,10H132a10,10,0,0,0,10-10v-3.68Z" fill="#7850b3"/><rect x="3" y="33.12" width="137.45" height="35" rx="3.5" fill="#1d6798"/><path d="M137,34.62a2,2,0,0,1,2,2v28a2,2,0,0,1-2,2H6.5a2,2,0,0,1-2-2v-28a2,2,0,0,1,2-2H137m0-3H6.5a5,5,0,0,0-5,5v28a5,5,0,0,0,5,5H137a5,5,0,0,0,5-5v-28a5,5,0,0,0-5-5Z" fill="#134160"/><rect x="3" y="70.81" width="137.45" height="35.01" rx="3.5" fill="#1d6798"/><path d="M137,72.31a2,2,0,0,1,2,2v28a2,2,0,0,1-2,2H6.5a2,2,0,0,1-2-2v-28a2,2,0,0,1,2-2H137m0-3H6.5a5,5,0,0,0-5,5v28a5,5,0,0,0,5,5H137a5,5,0,0,0,5-5v-28a5,5,0,0,0-5-5Z" fill="#134160"/><rect x="3" y="108.49" width="137.45" height="116.62" rx="3.5" fill="#1d6798"/><path d="M137,110a2,2,0,0,1,2,2V221.61a2,2,0,0,1-2,2H6.5a2,2,0,0,1-2-2V112a2,2,0,0,1,2-2H137m0-3H6.5a5,5,0,0,0-5,5V221.61a5,5,0,0,0,5,5H137a5,5,0,0,0,5-5V112a5,5,0,0,0-5-5Z" fill="#134160"/><rect x="17.14" y="114.86" width="107.39" height="98.51" rx="8" fill="#d1c1ff"/><path d="M116.52,214.87H25.14a9.52,9.52,0,0,1-9.5-9.5V122.86a9.51,9.51,0,0,1,9.5-9.5h91.38a9.51,9.51,0,0,1,9.5,9.5v82.51A9.52,9.52,0,0,1,116.52,214.87ZM25.14,116.36a6.5,6.5,0,0,0-6.5,6.5v82.51a6.51,6.51,0,0,0,6.5,6.5h91.38a6.51,6.51,0,0,0,6.5-6.5V122.86a6.5,6.5,0,0,0-6.5-6.5Z" fill="#7850b3"/><rect x="22.7" y="120.16" width="97.13" height="85.85" rx="8" fill="#eae5ff"/><path d="M111.83,207.51H30.7a9.51,9.51,0,0,1-9.5-9.5V128.16a9.51,9.51,0,0,1,9.5-9.5h81.13a9.51,9.51,0,0,1,9.5,9.5V198A9.51,9.51,0,0,1,111.83,207.51ZM30.7,121.66a6.5,6.5,0,0,0-6.5,6.5V198a6.51,6.51,0,0,0,6.5,6.5h81.13a6.51,6.51,0,0,0,6.5-6.5V128.16a6.51,6.51,0,0,0-6.5-6.5Z" fill="#7850b3"/><path d="M34.41,138.63a2.67,2.67,0,1,1,0-5.34h75.32a2.67,2.67,0,0,1,0,5.34Z" fill="#fff"/><path d="M109.73,134.79a1.17,1.17,0,0,1,0,2.34H34.41a1.17,1.17,0,0,1,0-2.34h75.32m0-3H34.41a4.17,4.17,0,1,0,0,8.34h75.32a4.17,4.17,0,0,0,0-8.34Z" fill="#a4bceb"/><rect x="17.14" y="75.88" width="107.39" height="25.8" rx="8" fill="#d1c1ff"/><path d="M116.52,103.18H25.14a9.51,9.51,0,0,1-9.5-9.5v-9.8a9.51,9.51,0,0,1,9.5-9.5h91.38a9.51,9.51,0,0,1,9.5,9.5v9.8A9.51,9.51,0,0,1,116.52,103.18ZM25.14,77.38a6.5,6.5,0,0,0-6.5,6.5v9.8a6.51,6.51,0,0,0,6.5,6.5h91.38a6.51,6.51,0,0,0,6.5-6.5v-9.8a6.5,6.5,0,0,0-6.5-6.5Z" fill="#7850b3"/><rect x="22.7" y="79.31" width="97.13" height="19.46" rx="8" fill="#eae5ff"/><path d="M111.83,100.26H30.7a9.51,9.51,0,0,1-9.5-9.5V87.31a9.51,9.51,0,0,1,9.5-9.5h81.13a9.51,9.51,0,0,1,9.5,9.5v3.45A9.51,9.51,0,0,1,111.83,100.26ZM30.7,80.81a6.5,6.5,0,0,0-6.5,6.5v3.45a6.5,6.5,0,0,0,6.5,6.5h81.13a6.51,6.51,0,0,0,6.5-6.5V87.31a6.51,6.51,0,0,0-6.5-6.5Z" fill="#7850b3"/><path d="M34.41,91.06a2.67,2.67,0,1,1,0-5.33h75.32a2.67,2.67,0,1,1,0,5.33Z" fill="#fff"/><path d="M109.73,87.23a1.17,1.17,0,1,1,0,2.33H34.41a1.17,1.17,0,1,1,0-2.33h75.32m0-3H34.41a4.17,4.17,0,1,0,0,8.33h75.32a4.17,4.17,0,1,0,0-8.33Z" fill="#a4bceb"/><rect x="17.14" y="39.25" width="107.39" height="25.8" rx="8" fill="#d1c1ff"/><path d="M116.52,66.55H25.14a9.51,9.51,0,0,1-9.5-9.5v-9.8a9.51,9.51,0,0,1,9.5-9.5h91.38a9.51,9.51,0,0,1,9.5,9.5v9.8A9.51,9.51,0,0,1,116.52,66.55ZM25.14,40.75a6.51,6.51,0,0,0-6.5,6.5v9.8a6.5,6.5,0,0,0,6.5,6.5h91.38a6.5,6.5,0,0,0,6.5-6.5v-9.8a6.51,6.51,0,0,0-6.5-6.5Z" fill="#7850b3"/><rect x="22.7" y="42.68" width="97.13" height="19.46" rx="8" fill="#eae5ff"/><path d="M111.83,63.64H30.7a9.52,9.52,0,0,1-9.5-9.5V50.68a9.51,9.51,0,0,1,9.5-9.5h81.13a9.51,9.51,0,0,1,9.5,9.5v3.46A9.52,9.52,0,0,1,111.83,63.64ZM30.7,44.18a6.5,6.5,0,0,0-6.5,6.5v3.46a6.51,6.51,0,0,0,6.5,6.5h81.13a6.51,6.51,0,0,0,6.5-6.5V50.68a6.51,6.51,0,0,0-6.5-6.5Z" fill="#7850b3"/><path d="M34.41,54.44a2.67,2.67,0,0,1,0-5.34h75.32a2.67,2.67,0,1,1,0,5.34Z" fill="#fff"/><path d="M109.73,50.6a1.17,1.17,0,0,1,1.17,1.17h0a1.18,1.18,0,0,1-1.17,1.17H34.41a1.18,1.18,0,0,1-1.17-1.17h0a1.17,1.17,0,0,1,1.17-1.17h75.32m0-3H34.41a4.17,4.17,0,0,0,0,8.34h75.32a4.17,4.17,0,1,0,0-8.34Z" fill="#a4bceb"/><rect x="1.5" y="24.26" width="140.46" height="9.11" rx="4" fill="#d1c1ff"/><path d="M138,34.86H5.5A5.5,5.5,0,0,1,0,29.36v-1.1a5.51,5.51,0,0,1,5.5-5.5H138a5.51,5.51,0,0,1,5.5,5.5v1.1A5.5,5.5,0,0,1,138,34.86ZM5.5,25.76A2.5,2.5,0,0,0,3,28.26v1.1a2.5,2.5,0,0,0,2.5,2.5H138a2.51,2.51,0,0,0,2.5-2.5v-1.1a2.51,2.51,0,0,0-2.5-2.5Z" fill="#7850b3"/></g></g></g></g></svg>