<svg xmlns="http://www.w3.org/2000/svg" viewBox="0 0 156.16 439.68"><g style="isolation:isolate"><g id="Layer_2" data-name="Layer 2"><g id="Layer_1-2" data-name="Layer 1"><g id="Props"><g id="fu_standing_lamp" data-name="fu_standing lamp"><path d="M32.62,142.39c-7.54,0-27.75-2.17-30.71-12.08,0-.05,0-.1,0-.15-2.07-11,5-33.94,5.25-34.92a1.51,1.51,0,0,1,1.44-1.06l24.06.88,24.05-.88a1.49,1.49,0,0,1,1.43,1.06c0,.06,1.66,5.4,3.15,12.05,2.31,10.34,3,18,2.1,22.87l0,.16a9.83,9.83,0,0,1-2,3.55C55.17,140.86,38.52,142.39,32.62,142.39Z" fill="#ffeb81"/><path d="M56.67,95.68s1.62,5.26,3.12,11.93c1.66,7.43,3.16,16.62,2.09,22.27a8.18,8.18,0,0,1-1.7,3c-5.49,6.25-20.73,8-27.56,8-7.82,0-26.67-2.31-29.27-11-2-10.72,5.21-34.2,5.21-34.2l24.06.88,24.05-.88m0-3h-.11l-23.94.87L8.67,92.69H8.56A3,3,0,0,0,5.69,94.8c-.3,1-7.43,24.32-5.29,35.64,0,.1,0,.2.07.3,3.89,13,31.87,13.15,32.15,13.15,7.57,0,23.54-1.88,29.81-9a11.09,11.09,0,0,0,2.32-4.11,2.81,2.81,0,0,0,.08-.31c1-5,.24-12.94-2.11-23.48C61.21,100.25,59.6,95,59.54,94.8a3,3,0,0,0-2.87-2.12Z" fill="#ffaa5a"/><path d="M115.35,434.89a76,76,0,0,1-21-13.29,66.4,66.4,0,0,1-9.81-11A13.9,13.9,0,0,1,82,402.53c.11-29.83.28-89.84.36-165.21l.07.09c4.24,6,9.94,9.69,15.94,9.69h.39c8.29-.23,27.57-8.22,27.57-77.41h-8q0,9.87-.52,18.06c-2.42,39.69-12.81,51.17-19.27,51.35-6.61.23-15.42-11.15-16.16-24.77,0-10.85,0-22.32,0-34,0-67.55-.11-142.63-.46-148.91C80.92,13.75,71.72,1.21,60,1.5c-13.14.35-27.07,16.93-30.57,60.73q-.83,10.2-.84,22.41h8q0-5.25.16-10C38.39,23.87,52.53,9.71,60.21,9.49h.19c6,0,12.7,7.77,13.5,22.35,2.51,45.77.91,294.25.25,370.51a14,14,0,0,1-2.48,7.82c-5.43,7.84-15,17.8-31.15,24.72-6.59,2.7,37.41,3.29,37.41,3.29S121.93,437.59,115.35,434.89Z" fill="#a4bceb"/><path d="M78,439.68c-.14,0-9.59-.13-19-.53-20.12-.85-20.33-2-20.6-3.4-.11-.56,0-1.58,1.57-2.24,16.14-6.92,25.49-17,30.49-24.19a12.48,12.48,0,0,0,2.21-7c.76-87.91,2.2-325.83-.25-370.41C71.66,18.33,65.66,11,60.4,11h-.19c-3.21.1-8.25,3.5-12.64,12.76-5.39,11.36-8.62,29-9.33,50.89-.11,3.11-.16,6.38-.16,10v1.5h-11v-1.5c0-8,.28-15.59.84-22.53C31,23.68,43,.46,60,0h.43c12.36,0,22,13.08,23,31.32.43,7.68.46,116,.46,149,0,11.7,0,23.17,0,34,.73,13.38,9.21,23.27,14.46,23.27h.15c5.12-.15,15.43-10.77,17.82-49.95.35-5.51.52-11.56.52-18v-1.5h11v1.5c0,70.5-20.3,78.67-29,78.91h-.43c-5.12,0-10.25-2.53-14.52-7.07-.09,86-.29,144.83-.35,161a12.29,12.29,0,0,0,2.26,7.18,64.75,64.75,0,0,0,9.58,10.77,74.75,74.75,0,0,0,20.63,13c1.6.66,1.66,1.68,1.56,2.24-.27,1.42-.49,2.55-20.61,3.4C87.5,439.55,78,439.68,78,439.68Zm-34.17-4.6c6.21.81,20.76,1.42,34.17,1.6,13.38-.18,27.93-.79,34.14-1.61a76.7,76.7,0,0,1-18.8-12.35,68.64,68.64,0,0,1-10-11.27,15.37,15.37,0,0,1-2.8-8.92c.06-16.44.27-76.95.36-165.21v-5.08l2.75,4.27c4.16,5.82,9.52,9.12,14.83,9.09h.2c7.86-.22,25.91-7.95,26.18-74.42h-5c0,5.92-.2,11.52-.52,16.66-2.35,38.54-12.25,52.52-20.73,52.75H98.3c-7.32,0-16.66-11.53-17.46-26.19,0-10.94,0-22.41,0-34.1,0-88-.17-143.69-.46-148.82C79.47,14.71,71,2.74,60,3c-11.81.32-25.66,16.07-29.12,59.35-.51,6.42-.79,13.41-.83,20.79h5c0-3.06.07-5.89.16-8.6C36.93,22.53,51.7,8.24,60.17,8h.23c6.8,0,14.14,8.17,15,23.77,2.45,44.66,1,282.67.25,370.61A15.4,15.4,0,0,1,72.9,411C68,418.16,59,427.94,43.78,435.08Z" fill="#5576b1"/><path d="M61.61,98.69A2,2,0,0,1,60.49,101c-6.47,3-21,4-27.87,4s-21.4-1-27.88-4a2,2,0,0,1-1.12-2.26c3.77-17.11,29-15.75,29-15.75s1.52-.08,3.86,0c6.42.36,19.08,2.29,23.78,11.83A17.07,17.07,0,0,1,61.61,98.69Z" fill="#a6a6ff"/><path d="M32.62,106.47c-5.45,0-21.19-.74-28.52-4.17a3.53,3.53,0,0,1-1.95-3.93c3.94-17.83,28.6-17,30.47-16.93.36,0,1.82-.06,3.94,0,7.22.4,20.08,2.59,25,12.66a18.5,18.5,0,0,1,1.48,4.22h0a3.55,3.55,0,0,1-1.95,3.94C53.8,105.73,38.07,106.47,32.62,106.47Zm-1.18-22c-4.75,0-23.34.89-26.36,14.6a.52.52,0,0,0,.29.57c5.75,2.68,19.39,3.88,27.25,3.88s21.5-1.2,27.24-3.88a.51.51,0,0,0,.29-.57h0a15.46,15.46,0,0,0-1.24-3.54c-4.29-8.71-15.95-10.63-22.52-11-2.21-.11-3.68,0-3.69,0h-.16S32.11,84.42,31.44,84.42Z" fill="#5b5bce"/><path d="M99.49,162.49a1.48,1.48,0,0,1-1.43-1.05c-.3-1-7.33-24-5.25-34.92l0-.15c3-10.22,23.87-11.8,28-12,.92,0,1.82-.08,2.69-.08,7.54,0,27.74,2.18,30.71,12.09l0,.14a21.15,21.15,0,0,1,.32,2.58c.79,11.58-5.31,31.5-5.57,32.35a1.49,1.49,0,0,1-1.43,1.05l-24.06-.87Z" fill="#ffeb81"/><path d="M123.54,115.78c7.81,0,26.67,2.31,29.27,11a18.67,18.67,0,0,1,.29,2.38c.78,11.45-5.5,31.82-5.5,31.82l-24.06-.88L99.49,161s-7.24-23.48-5.21-34.2c2.34-7.84,17.88-10.49,26.65-10.94,1,0,1.84-.07,2.61-.07m0-3c-.89,0-1.82,0-2.77.08-6.06.31-26.11,2.17-29.37,13.08,0,.1-.05.2-.07.3-2.14,11.32,5,34.65,5.29,35.64A3,3,0,0,0,99.49,164h.11l23.94-.87,24,.87h.11a3,3,0,0,0,2.87-2.11c.26-.85,6.43-21,5.62-32.91a22.37,22.37,0,0,0-.33-2.73,2.63,2.63,0,0,0-.08-.3c-3.88-13-31.86-13.16-32.14-13.16Z" fill="#ffaa5a"/><path d="M151.42,155.73a2,2,0,0,1,1.12,2.26,16.4,16.4,0,0,1-2.83,6.3c-7.4,10.06-24.81,9.51-26.1,9.46h-.15c-1.51.06-25.26.8-28.91-15.77a2,2,0,0,1,1.12-2.25c5.78-2.7,18-3.78,25.42-4,.89,0,1.72,0,2.45,0C130.4,151.71,144.94,152.71,151.42,155.73Z" fill="#a6a6ff"/><path d="M124.93,175.27l-1.38,0c-1.1,0-26.53.91-30.47-16.94a3.49,3.49,0,0,1,2-3.94c5.76-2.69,17.62-3.9,26-4.11.9,0,1.74,0,2.49,0,5.45,0,21.2.75,28.52,4.17a3.53,3.53,0,0,1,1.95,3.93,18.13,18.13,0,0,1-3.09,6.88C144.08,174.47,129.68,175.27,124.93,175.27Zm-1.39-22.06c-.72,0-1.53,0-2.4,0-8.76.23-19.83,1.5-24.84,3.84a.51.51,0,0,0-.29.57c3.4,15.42,26.41,14.63,27.39,14.59h.28c.72,0,17.83.65,24.82-8.84a15.19,15.19,0,0,0,2.58-5.74.53.53,0,0,0-.29-.58h0C144.73,154.27,130.86,153.21,123.54,153.21Z" fill="#5b5bce"/><g style="mix-blend-mode:overlay"><path d="M24.36,89.51c0-2,7-3.81,12.38-4.13,6-.35,13.33,1.06,13.48,3,.12,1.78-5.57,3.85-10.08,4.49C32.63,94,24.4,91.61,24.36,89.51Z" fill="#b3cbff"/></g><g style="mix-blend-mode:overlay"><path d="M129.83,154.2c1.19-2.28,8.13-.81,13.11.24,4.55,1,7.39,1.56,7.65,3,.41,2.42-6.16,7.34-12.26,6.07C132.81,162.4,128.68,156.41,129.83,154.2Z" fill="#b3cbff"/></g><path d="M151.07,125.92c.38-4-20.92-11.85-25.12-6.56-1.53,1.93-.3,5-.24,5.1,2.19,5.22,11.79,5.63,17.35,4.73C145.28,128.84,150.88,127.93,151.07,125.92Z" fill="#fff9db"/><path d="M56.16,115.6c-6.76-6-30.62,5.84-29.73,12.14.6,4.29,12.88,7.48,22.21,4.37,2.32-.78,7.6-2.54,9.22-7.28C58.88,121.84,58.46,117.65,56.16,115.6Z" fill="#fff9db"/></g></g></g></g></g></svg>