<svg xmlns="http://www.w3.org/2000/svg" viewBox="0 0 20.8 60.1"><g style="isolation:isolate"><g id="Layer_2" data-name="Layer 2"><g id="Layer_1-2" data-name="Layer 1"><g id="Props"><g id="fu_kitchen_utensil_wooden_1" data-name="fu_kitchen utensil_wooden 1"><path d="M12.6,26.1H8.2a.2.2,0,0,1-.2-.2V6.8h4.8V25.9A.2.2,0,0,1,12.6,26.1Z" style="fill:#607185"/><path d="M10.5,1h-.2a2,2,0,0,0-2,2V6.8h4.2V3A2,2,0,0,0,10.5,1Zm-.1,3.1h-.1A1.1,1.1,0,0,1,9.3,3a1,1,0,0,1,1-1.1h.2a1,1,0,0,1,1,1.1,1,1,0,0,1-1,1.1Z" style="fill:#dd8f54"/><polygon points="11.9 39.8 8.9 39.8 8.3 26.1 12.5 26.1 11.9 39.8" style="fill:#dd8f54"/><path d="M15.2,45.7c-1.7-1.5-3.3-3.2-3.3-5.9h-3c0,2.7-1.5,4.4-3.3,5.9,1.3-.6,2.9-2.8,4.8-2.8S13.9,45.1,15.2,45.7Z" style="fill:#dd8f54"/><path d="M19.8,52.2a.7.7,0,0,0-.1-.5v-.2h0c0-.1-.1-.3-.1-.4a1.9,1.9,0,0,1-.2-.7h-.1l-.2-.3h0c-.1-.1-.1-.2-.2-.2l-.3-.6c-.1,0-.1-.1-.2-.2h-.1l-.3-.4-.2-.2a.1.1,0,0,0-.1-.1l-.3-.3-.3-.3-.3-.3-.6-.5-1-.9c-1.3-.6-2.8-2.8-4.8-2.8s-3.5,2.2-4.8,2.8S1.2,49.2,1,52.2v.9a4.3,4.3,0,0,0,.1.5c0,.2.1.3.1.5h0v.4h.1v.2h.1A3.6,3.6,0,0,0,2.3,56c1.7,2.1,4.9,3.1,8.1,3.1a17.5,17.5,0,0,0,4-.5h0l.9-.4L16,58l.6-.4,1.4-.9.5-.6.2-.2h0a.3.3,0,0,1,.1-.2c.1-.1.1-.1.1-.2l.2-.2a4.2,4.2,0,0,0,.4-1A3.9,3.9,0,0,0,19.8,52.2ZM18.5,51c.1.2,0,.3-.1.5h-.2a.4.4,0,0,1-.6-.1c-.2-.2,0-.4.3-.6a.4.4,0,0,1,.5,0ZM9.4,55.8c0,.2-.2.3-.5.3s-.6-.1-.6-.3.3-.3.6-.3S9.4,55.6,9.4,55.8Zm0-5.6a.4.4,0,0,1-.7.2.5.5,0,0,1-.3-.7.5.5,0,0,1,.7-.1A.4.4,0,0,1,9.4,50.2Zm-.9,4.7c-.3,0-.5-.1-.5-.3s.2-.3.5-.3.6.1.6.3S8.9,54.9,8.5,54.9Zm.4,1.8c.3,0,.5.2.5.3s-.2.3-.5.3-.6-.1-.6-.3S8.6,56.7,8.9,56.7Zm3.4-1.2c.3,0,.6.1.6.3s-.3.3-.6.3-.5-.1-.5-.3S12,55.5,12.3,55.5Zm-.2-5.9a.5.5,0,0,1,.7.1.5.5,0,0,1-.3.7c-.2.2-.5.1-.7-.2A.4.4,0,0,1,12.1,49.6Zm0,5c0-.2.3-.3.6-.3s.5.1.5.3-.2.3-.5.3S12.1,54.8,12.1,54.6Zm.2,2.1c.3,0,.6.2.6.3s-.3.3-.6.3-.5-.1-.5-.3S12,56.7,12.3,56.7Zm2.2-3.2c.3-.1.6,0,.6.2s-.1.4-.4.5-.6-.1-.6-.2S14.2,53.6,14.5,53.5Zm-.1-1.4c.3-.1.6-.1.7.1a.4.4,0,0,1-.3.6.5.5,0,0,1-.7-.1C14,52.5,14.2,52.3,14.4,52.1Zm2.2,1c-.3.1-.6,0-.6-.1s.2-.4.5-.5a.8.8,0,0,1,.6.2A.5.5,0,0,1,16.6,53.1Zm0,1.6c-.3.1-.6,0-.6-.2a.5.5,0,0,1,.5-.4.4.4,0,0,1,.6.2C17.1,54.4,16.9,54.6,16.6,54.7Zm0-5.5a.5.5,0,0,1-.7-.1c-.1-.2.1-.4.3-.6s.6-.1.7.1A.4.4,0,0,1,16.6,49.2Zm.2,1.1c-.1-.2.1-.4.3-.6s.6-.1.7.1a.4.4,0,0,1-.3.6A.5.5,0,0,1,16.8,50.3Zm-.3.9a.4.4,0,0,1-.3.6.6.6,0,0,1-.7-.1c-.1-.2.1-.5.4-.6A.4.4,0,0,1,16.5,51.2Zm-.4,4.3a.5.5,0,0,1-.5.4c-.3.1-.6,0-.6-.1s.2-.4.4-.5ZM14.6,55c.1.2-.1.4-.4.5s-.6-.1-.6-.2.1-.4.4-.5S14.6,54.9,14.6,55ZM14,56.2a.4.4,0,0,1,.6.2.5.5,0,0,1-.5.4c-.3.1-.6,0-.6-.2S13.7,56.3,14,56.2Zm1.1-8.8a.5.5,0,0,1,.7.1.5.5,0,0,1-.3.7.5.5,0,0,1-.7-.1A.5.5,0,0,1,15.1,47.4ZM15,49.8a.7.7,0,0,1,.7.2.6.6,0,0,1-.3.7.6.6,0,0,1-.7-.2A.6.6,0,0,1,15,49.8Zm-1.2-3.3a.5.5,0,0,1,.7.1.5.5,0,0,1-.3.7.5.5,0,0,1-.7-.1A.5.5,0,0,1,13.8,46.5Zm0,2.1a.5.5,0,0,1,.7.1.5.5,0,0,1-.3.7.5.5,0,0,1-.7-.1A.5.5,0,0,1,13.8,48.6Zm-.3,2a.5.5,0,0,1,.7.1.5.5,0,0,1-.2.7.5.5,0,0,1-.7-.1A.5.5,0,0,1,13.5,50.6Zm-.3,2.5c.1.2-.1.4-.4.5a.5.5,0,0,1-.7-.3c0-.2.2-.4.5-.5S13.2,52.9,13.2,53.1Zm-.6-1c-.3.1-.6.1-.7-.1a.4.4,0,0,1,.3-.6.5.5,0,0,1,.7.1C13,51.7,12.8,51.9,12.6,52.1Zm-.5-6.4a.6.6,0,0,1,.7.2.6.6,0,0,1-.2.8.8.8,0,0,1-.8-.2A.7.7,0,0,1,12.1,45.7Zm0,1.9a.5.5,0,0,1,.7.3c.2.2,0,.6-.2.7a.5.5,0,0,1-.8-.2A.7.7,0,0,1,12.1,47.6Zm-1.8-2.2a.6.6,0,0,1,.7.2.5.5,0,0,1-.2.8.5.5,0,0,1-.7-.3A.4.4,0,0,1,10.3,45.4Zm.3,2.2a.5.5,0,0,1,.5.4.5.5,0,0,1-.5.5A.6.6,0,0,1,10,48C10,47.8,10.3,47.6,10.6,47.6Zm0,1.5a.5.5,0,0,1,.5.4.5.5,0,0,1-.5.5.6.6,0,0,1-.6-.5C10,49.3,10.3,49.1,10.6,49.1Zm0,1.3a.5.5,0,0,1,.5.4.5.5,0,0,1-.5.5.6.6,0,0,1-.6-.5C10,50.6,10.3,50.4,10.6,50.4Zm0,1.5a.4.4,0,1,1,0,.8c-.3,0-.6-.2-.6-.4S10.3,51.9,10.6,51.9Zm0,1.5c.3,0,.5.1.5.3a.5.5,0,0,1-.5.4c-.3,0-.6-.2-.6-.4S10.3,53.4,10.6,53.4Zm0,1.2a.5.5,0,0,1,.5.4c0,.2-.2.3-.5.3s-.6-.1-.6-.3S10.3,54.6,10.6,54.6Zm0,1.2c.3,0,.5.2.5.3s-.2.3-.5.3-.6-.1-.6-.3S10.3,55.8,10.6,55.8Zm0,1c.3,0,.5.2.5.3a.5.5,0,0,1-.5.4c-.3,0-.6-.2-.6-.4S10.3,56.8,10.6,56.8ZM8.4,45.9a.8.8,0,0,1,.8-.2.8.8,0,0,1,.2.8.8.8,0,0,1-.8.2A.7.7,0,0,1,8.4,45.9Zm0,2a.7.7,0,0,1,.8-.3.8.8,0,0,1,.2.8.5.5,0,0,1-.8.2A.6.6,0,0,1,8.4,47.9Zm0,3.6a.4.4,0,0,1,.6-.1.4.4,0,0,1,.3.6c-.1.2-.4.2-.6.1S8.3,51.7,8.4,51.5Zm.2,1.3c.3.1.5.3.5.5a.4.4,0,0,1-.6.3c-.3-.1-.5-.3-.5-.5A.6.6,0,0,1,8.6,52.8ZM8,51.3a.6.6,0,0,1-.8.1.6.6,0,0,1-.2-.7.5.5,0,0,1,.7-.1A.5.5,0,0,1,8,51.3ZM3,54.9c0-.2.3-.2.6,0s.4.4.3.5-.3.2-.6,0S2.9,55,3,54.9Zm-.3-.7c-.3-.2-.4-.4-.4-.5s.4-.2.7-.1.4.4.3.6Zm1.2,1.7a.8.8,0,0,1,.7,0c.2.2.4.4.3.6a.6.6,0,0,1-.6,0C4,56.3,3.8,56.1,3.9,55.9Zm.7-1.2c-.3-.1-.5-.3-.5-.4a.4.4,0,0,1,.6-.2.5.5,0,0,1,.5.4C5.2,54.7,4.9,54.8,4.6,54.7Zm-.5-2a.8.8,0,0,1,.6-.2c.3.1.5.3.5.5s-.3.2-.6.1A.5.5,0,0,1,4.1,52.7Zm2.1,3.1c0,.1-.3.2-.6.1s-.5-.2-.4-.4.3-.2.6-.2S6.3,55.6,6.2,55.8Zm0,1.4c0,.1-.3.2-.6.1s-.5-.2-.4-.4.3-.2.6-.2S6.3,57,6.2,57.2Zm-.1-3.5c0-.2.3-.3.6-.2s.5.3.4.5-.3.2-.6.2S6,53.9,6.1,53.7Zm0-1.5c.1-.2.4-.2.7-.1s.4.4.3.6a.5.5,0,0,1-.7.1C6.2,52.7,6,52.4,6.1,52.2ZM6.6,55c0-.1.3-.2.6-.2s.5.3.5.5a.8.8,0,0,1-.6.2C6.8,55.4,6.5,55.2,6.6,55Zm.1,1.4c0-.2.3-.3.6-.2s.5.3.4.4-.3.3-.6.2S6.6,56.6,6.7,56.4Zm0-9.8h0l.3-.2h.4a.5.5,0,0,1,.3.7.5.5,0,0,1-.7.1A.5.5,0,0,1,6.7,46.6Zm0,2.1a.5.5,0,0,1,.7-.1.5.5,0,0,1,.3.7.5.5,0,0,1-.7.1A.5.5,0,0,1,6.7,48.7Zm-.2,1.8a.6.6,0,0,1-.7.2.6.6,0,0,1-.3-.7.8.8,0,0,1,.8-.2A.7.7,0,0,1,6.5,50.5ZM5.4,47.7v-.2l.4-.2h.3a.5.5,0,0,1,.3.7.5.5,0,0,1-.7.1A.5.5,0,0,1,5.4,47.7Zm.3,4c-.1.2-.4.2-.7.1a.4.4,0,0,1-.3-.6.5.5,0,0,1,.7-.1C5.6,51.2,5.8,51.5,5.7,51.7Zm-1.4-3h0l.3-.2H5c.2.2.4.4.3.6a.5.5,0,0,1-.7.1A.5.5,0,0,1,4.3,48.7Zm-.9,1.1c.1-.2.4-.2.7-.1s.4.4.3.6a.5.5,0,0,1-.7.1A.4.4,0,0,1,3.4,49.8ZM2.7,51c.1-.2.4-.2.7-.1s.4.4.3.6a.5.5,0,0,1-.7.1A.4.4,0,0,1,2.7,51Zm-.4,1.3h.6q.5.3.3.6c0,.1-.3.1-.6,0S2.2,52.5,2.3,52.3Zm5.5,5.5c0,.2-.3.3-.6.2a.9.9,0,0,1-.5-.3h0a.4.4,0,0,1,.6-.2c.3.1.5.2.5.4Zm1.1.5c-.3,0-.6-.1-.6-.3a.3.3,0,0,0,.1-.2h.5l.5.2h0C9.4,58.2,9.2,58.3,8.9,58.3Zm1.7.2c-.3,0-.6-.2-.6-.3s.3-.4.6-.4a.5.5,0,0,1,.5.4C11.1,58.3,10.9,58.5,10.6,58.5Zm1.7-.2c-.3,0-.5-.1-.5-.3s.2-.3.5-.3.6.1.6.3S12.6,58.3,12.3,58.3ZM14,58a.4.4,0,0,1-.6-.2c0-.2.2-.3.5-.4s.6,0,.6.2S14.3,57.9,14,58Zm1.6-.7c-.3.1-.6,0-.6-.1s.2-.4.4-.5l.7.2A.5.5,0,0,1,15.6,57.3Zm1.3-.8a.6.6,0,0,1-.6,0c-.1-.2.1-.4.4-.6a.6.6,0,0,1,.6,0C17.4,56.1,17.2,56.3,16.9,56.5Zm1-1.1q-.4.3-.6,0c-.1-.1.1-.4.3-.5s.6-.2.7,0A.6.6,0,0,1,17.9,55.4Zm.6-1.2h-.6c-.1-.2.1-.4.3-.6s.6-.1.7.1S18.8,54,18.5,54.2Zm.1-1.3H18q-.2-.3.3-.6h.6Q19.1,52.6,18.6,52.9Z" style="fill:#dd8f54"/><g style="mix-blend-mode:multiply"><path d="M18.5,48.9a.1.1,0,0,0-.1-.1l-2.3-2.1c-1.3-.6-2.9-2.8-4.8-2.8S8.2,45.6,7,46.4l-.3.2H6.5l-.7.6-.4.2v.2l-.8.7-.3.2h0a6.9,6.9,0,0,0-2.4,4.5,5.4,5.4,0,0,0,.9,3.4,5.9,5.9,0,0,1-1.3-1.8H1.4v-.2H1.3v-.4h0c0-.2-.1-.3-.1-.5a4.3,4.3,0,0,1-.1-.5v-.9H1c.2-2.9,2.6-4.6,4.6-6.4s2.9-2.8,4.8-2.8,3.5,2.2,4.8,2.8A25,25,0,0,1,18.5,48.9Z" style="fill:#c3d0e8"/></g><path d="M10.6,1c2.7,0,1.8,4,1.9,5.8h.3V25.9c0,.2-.1.2-.2.2h-.1l-.6,13.7h0c0,4.5,4.3,6.1,6.6,9.1a.1.1,0,0,0-.1-.1,5.1,5.1,0,0,1,1.3,2.9,5.3,5.3,0,0,1-1,4.2h0a11,11,0,0,1-8.2,3.2,11.7,11.7,0,0,1-7.7-2.5h0A5.7,5.7,0,0,1,1,52.1c.5-5.5,8-6.4,7.9-12.3L8.3,26.1H8.2c-.1,0-.2,0-.2-.2V6.8h.3c.2-1.7-.8-5.8,2-5.8h.3m-.2,3.1h.1a1.1,1.1,0,0,0-.1-2.2h-.1a1.1,1.1,0,0,0,.1,2.2m.2,42.4h.2a.6.6,0,0,0-.2-1.1h-.3a.6.6,0,0,0,.3,1.1m1.7.3h.3a.6.6,0,0,0-.3-1.1h-.2a.6.6,0,0,0,.2,1.1m-3.4,0a.5.5,0,0,0,.5-.3.6.6,0,0,0-.5-.8c-.2,0-.4,0-.5.2a.6.6,0,0,0,.5.9m-1.6.6a.5.5,0,0,0,.1-.9H7.1c-.4,0-.7.6-.1.9h.3m6.7,0h.2c.6-.3.3-.9-.1-.9h-.3a.5.5,0,0,0,.2.9m-8,.9a.5.5,0,0,0,.1-.9H5.9a.5.5,0,0,0-.2.9H6m9.2,0h.3c.6-.3.3-.9-.1-.9h-.3a.5.5,0,0,0,.1.9m-4.7.2h.1a.5.5,0,1,0,0-.9h-.1a.5.5,0,1,0,0,.9m1.8.2h.3a.5.5,0,0,0-.3-1h-.2a.6.6,0,0,0,.2,1.1m-3.4,0a.5.5,0,0,0,.5-.3.6.6,0,0,0-.5-.8.5.5,0,0,0-.5.3.6.6,0,0,0,.5.8m7.4.6h.3c.5-.3.4-.8,0-.8h-.4c-.5.3-.3.8.1.8M5,49.3l.3-.2c.2-.3-.3-.7-.7-.7a.3.3,0,0,0-.3.3c-.1.3.3.6.7.6m9,.2h.2a.5.5,0,0,0-.1-.9h-.3a.5.5,0,0,0,.2.9m-6.7,0a.5.5,0,0,0,.4-.2c.2-.4-.2-.8-.6-.8a.5.5,0,0,0-.4.2c-.2.4.2.8.6.8m3.2.5h.1a.5.5,0,1,0,0-.9h-.1a.5.5,0,1,0,0,.9m1.7.5c.4,0,.8-.4.6-.8a.5.5,0,0,0-.4-.2c-.4,0-.8.4-.6.7a.5.5,0,0,0,.4.3M9,50.5c.2,0,.3-.1.4-.3s-.2-.7-.6-.7a.5.5,0,0,0-.4.2c-.2.4.2.8.6.8m8.2,0c.3,0,.8-.4.6-.7l-.3-.2c-.4,0-.8.4-.7.7s.2.2.4.2m-13.1,0c.1,0,.2,0,.3-.2s-.3-.7-.7-.7l-.3.2c-.2.3.3.7.7.7m11,.2c.4,0,.8-.3.6-.7a.4.4,0,0,0-.4-.2c-.4,0-.8.3-.6.7s.2.2.4.2m-9,0c.2,0,.3,0,.4-.2s-.2-.7-.6-.7a.4.4,0,0,0-.4.2c-.2.4.3.7.6.7m4.4.6h.1a.5.5,0,1,0,0-.9h-.1a.5.5,0,1,0,0,.9m-3,.2a.5.5,0,0,0,.2-.9H7.4c-.4,0-.7.7-.2.9h.3m6.2,0a.6.6,0,0,0,.5-.8.5.5,0,0,0-.4-.2c-.3,0-.8.4-.5.8s.2.2.4.2m-10.4.2c.4,0,.6-.5.1-.8H3.1c-.5,0-.6.6-.1.8h.3m14.6,0c.3,0,.8-.3.6-.7s-.2-.2-.3-.2-.8.4-.6.7.1.2.3.2m-2,.2h.3c.5-.3.4-.8,0-.8h-.3c-.6.3-.4.8,0,.8m-10.6,0c.4,0,.6-.5.1-.8H5.1c-.5,0-.6.5-.1.8h.3m3.7.3c.4,0,.5-.6,0-.8H8.7c-.4,0-.6.5,0,.8H9m3.2,0h.4c.5-.3.3-.8-.1-.8h-.3c-.5.2-.4.8,0,.8m-1.7.5h.1c.7,0,.7-.8,0-.8h-.1c-.7,0-.7.8,0,.8m4,.2h.3c.5-.2.4-.8-.1-.8h-.3c-.5.3-.3.8.1.8m-7.7,0c.1,0,.2,0,.3-.2s-.3-.7-.7-.7l-.3.2c-.2.3.3.7.7.7m11.5.1h.3c.5-.3.4-.7.1-.7h-.4c-.5.3-.4.7,0,.7M3,53h.2c.2-.3-.3-.7-.7-.7H2.3c-.2.3.4.7.7.7m1.8.2c.5,0,.6-.5-.1-.7H4.5c-.5,0-.5.5.1.6h.2m11.6,0h.2c.6-.1.6-.6.1-.6h-.2c-.6.2-.6.7-.1.7m-3.8.4h.2c.6-.1.5-.8,0-.8h-.2c-.7.2-.6.8,0,.8m-3.9,0c.2,0,.4-.1.4-.3s-.3-.5-.7-.5-.4.1-.4.3.3.5.7.5m1.8.5h.1c.7,0,.7-.7,0-.7h-.1c-.7,0-.7.7,0,.7m-3.8.1c.2,0,.4-.1.4-.2s-.3-.5-.6-.5-.4.1-.4.2.3.5.6.5m7.8,0c.3,0,.7-.2.6-.5s-.2-.2-.3-.2-.8.2-.7.5.2.2.4.2m3.7.1h.3c.5-.3.5-.7.1-.7h-.4c-.5.3-.4.7,0,.7m-15.1,0h.2c.2-.3-.4-.7-.7-.7l-.3.2c-.1.2.4.6.8.6m1.7.4c.5,0,.6-.5-.1-.6H4.5c-.5,0-.5.5.1.6h.2m11.6,0c.3,0,.8-.2.7-.4s-.2-.2-.4-.2-.8.2-.7.4.2.2.4.2m-3.7.2h0c.7,0,.7-.6,0-.6h0c-.7,0-.7.6,0,.6m-4.2,0c.3,0,.6-.1.6-.3s-.3-.3-.6-.3-.5.1-.5.3.3.3.5.3m2,.4h.1c.7,0,.7-.7,0-.7h-.1c-.7,0-.7.7,0,.7m-6.8.2c.3,0,.4-.4-.1-.6H3.2c-.3,0-.4.4.1.6h.4m13.9,0h.3c.5-.2.4-.6.1-.6h-.4c-.5.2-.4.6,0,.6m-10.3,0c.5,0,.5-.5-.1-.7H7c-.5,0-.6.5.1.7h.2m6.6,0h.3c.6-.2.5-.7,0-.7H14c-.6.2-.6.7-.1.7m-8,.5c.5,0,.5-.5-.1-.7H5.6c-.5,0-.6.5,0,.6h.3m9.5,0h.2c.6-.1.6-.6.1-.6h-.3c-.6.2-.5.7,0,.7m-6.5.1h0c.7,0,.7-.6,0-.6h0c-.7,0-.7.6,0,.6m3.4,0h0c.7,0,.7-.6,0-.6h0c-.7,0-.7.6,0,.6m-1.8.3h.1c.7,0,.7-.6,0-.6h-.1c-.7,0-.7.6,0,.6m6.1.2h.3c.5-.3.5-.7.1-.7h-.3c-.5.3-.5.7-.1.7m-11.9,0h.2c.2-.3-.4-.7-.7-.7H3.9c-.1.3.4.7.8.7m9.2.2h.2c.6-.1.6-.6.1-.6H14c-.7.1-.6.6-.1.6m-6.6,0c.5,0,.6-.5,0-.6H7.1c-.6,0-.6.5,0,.6h.2m-1.4.6c.5,0,.5-.5-.1-.7H5.6c-.5,0-.6.5,0,.6h.3m9.5,0h.2c.6-.1.6-.6.1-.6h-.3c-.6.2-.5.7,0,.7m-6.5-.1h0c.7,0,.7-.6,0-.6h0c-.7,0-.7.6,0,.6m3.4,0h0c.7,0,.7-.6,0-.6h0c-.7,0-.7.6,0,.6m-1.8.2h.1c.7,0,.7-.7,0-.7h-.1c-.7,0-.7.7,0,.7m3.3.5H14c.6-.1.6-.6.1-.6h-.2c-.6.1-.6.6-.1.6M7.4,58c.2,0,.4,0,.4-.2s-.4-.4-.7-.4-.4,0-.4.2.4.4.7.4m1.5.3h0c.7,0,.6-.6,0-.6H8.8c-.6,0-.6.6.1.6m3.4,0h0c.7,0,.7-.6,0-.6h0c-.7,0-.7.6,0,.6m-1.8.2h.1c.7,0,.7-.7,0-.7h-.1c-.7,0-.7.7,0,.7M10.6,0h-.4a3.1,3.1,0,0,0-2,.8c-1,1.1-1,3-.9,4.6V6a1.1,1.1,0,0,0-.3.8V25.9a1.1,1.1,0,0,0,.3.8l.6,13.1c0,2.6-1.7,4-3.6,5.7S.3,49,0,52.1a6.3,6.3,0,0,0,2.2,5.3h.1a12.8,12.8,0,0,0,8.2,2.7,11.9,11.9,0,0,0,8.9-3.5.1.1,0,0,1,.1-.1,6.3,6.3,0,0,0,1.2-5,6.5,6.5,0,0,0-1.3-3.1h-.1a17.2,17.2,0,0,0-2.7-2.7c-2-1.7-3.7-3.2-3.7-5.8l.6-13.1a1.1,1.1,0,0,0,.3-.8V6.8a1.1,1.1,0,0,0-.3-.8V5.4c.1-1.5.2-3.5-.9-4.6a2.7,2.7,0,0,0-2-.8Zm-.2,3.1h-.1V2.9h.2v.2h-.1Z" style="fill:#924f28"/></g></g></g></g></g></svg>