<svg xmlns="http://www.w3.org/2000/svg" viewBox="0 0 86.4 35"><g style="isolation:isolate"><g id="Layer_2" data-name="Layer 2"><g id="Layer_1-2" data-name="Layer 1"><g id="Props"><g id="to_mouse_toy" data-name="to_mouse toy"><path d="M51.8,25.5c-2.2-.2-7-2.1-10.6-4.3a7.6,7.6,0,0,0,1.9,2.1.6.6,0,0,1,.1.6.5.5,0,0,1-.5.3,4,4,0,0,1-3-1.3,11.8,11.8,0,0,1-1.3-1.8c-.9-1.3-1.7-2.5-2.8-2.9a1.1,1.1,0,0,1-.3.7,1.7,1.7,0,0,1-1.2.5c-1,0-2.4-2-3-3.3s-.7-2.1-.2-2.6a1.5,1.5,0,0,1,1.2-.6,2.4,2.4,0,0,1,1.5.7l4.6-3.2c4.6-3.3,8.6-6.2,12-7.3A70,70,0,0,1,68.3.5c3.8,0,4.3.6,4.5.8s.2.3.1.5a.5.5,0,0,1-.4.3h-.6a17.8,17.8,0,0,0-6.2,1.6l-1.8.7a15.4,15.4,0,0,1,4.3,2.9c.2.1.2.4.1.6v.2A162.3,162.3,0,0,1,85.5,13a.7.7,0,0,1,.4.5.6.6,0,0,1-.5.5l-8.5,1.6a9.9,9.9,0,0,1,2.6,3.2.3.3,0,0,1-.1.5.5.5,0,0,1-.4.2h-.1a34.7,34.7,0,0,0-10.1-1.4H66.9l5.7,1.6,4.5,1.3c.2,0,.3.3.3.5s-.2.4-.4.5c-4.3.3-10.1,1.3-15.3,2.1s-8.3,1.3-9.7,1.3Z" style="fill:#e2a4ef"/><path d="M68.3,1c2.2,0,3.7.2,4.2.6h-.6c-3.3,0-6.3,1.8-9.7,2.9,1.9.2,3.8,1.5,5.7,3.2a8.9,8.9,0,0,0-3.5-.6H61a156.7,156.7,0,0,1,24.4,6.3c-3.3.5-6.5,1.2-9.7,1.9h0A8.8,8.8,0,0,1,79,19a34.9,34.9,0,0,0-10.2-1.4H67.3l-2.8.8c3.3.1,8,2,12.4,3.2C68.8,22.3,54.8,25,52,25h-.2c-2.2-.2-8.2-2.6-11.7-5.3a7.8,7.8,0,0,0,2.6,4A3.9,3.9,0,0,1,40,22.6c-1.5-1.8-2.5-4.7-4.8-5a1.1,1.1,0,0,1-1.1,1.3c-1,0-3.7-4-2.8-5.1a.9.9,0,0,1,.8-.4c.7,0,1.4.9,1.4.9C40,9.9,45.8,5.1,50.3,3.6A68.1,68.1,0,0,1,68.3,1m0-1V0A68.2,68.2,0,0,0,50,2.7c-3.5,1.1-7.4,3.9-12,7.2L33.6,13a2.3,2.3,0,0,0-1.5-.6,1.8,1.8,0,0,0-1.6.8c-.6.7-.5,1.7.1,3.2s2,3.5,3.5,3.5a2.2,2.2,0,0,0,1.6-.7l.2-.3a7.4,7.4,0,0,1,2,2.5c.5.6.9,1.3,1.4,1.8a4.2,4.2,0,0,0,3.4,1.5,1.1,1.1,0,0,0,1-.7,1.2,1.2,0,0,0-.2-1c3.1,1.7,6.5,2.9,8.3,3H52c1.4,0,5.1-.6,9.8-1.3s11-1.8,15.2-2.1a1.1,1.1,0,0,0,.9-.9.9.9,0,0,0-.7-1.1l-4.4-1.3-2.4-.7A33.6,33.6,0,0,1,78.8,20H79a.9.9,0,0,0,.8-.4.9.9,0,0,0,.1-1.1A9.1,9.1,0,0,0,78,15.9l7.5-1.4a1.2,1.2,0,0,0,.9-.9,1.2,1.2,0,0,0-.7-1.1q-9.2-3-16.8-4.8a.9.9,0,0,0-.4-.8,15,15,0,0,0-3.3-2.4l.7-.3a16.8,16.8,0,0,1,6-1.6h.6a1.1,1.1,0,0,0,.9-.6A1.1,1.1,0,0,0,73.2.9C72.7.5,71.8,0,68.3,0Z" style="fill:#ac53b0"/><path d="M11.9,34.4c-3.4,0-9.3-.3-10.5-2.7a2.2,2.2,0,0,1,.3-2.4c-.9-2.4,0-6,2.7-10.6a2.5,2.5,0,0,1-1.2-2A3.7,3.7,0,0,1,5.1,13a2.7,2.7,0,0,1,1.4-.4A1.6,1.6,0,0,1,8,13.7c3.1-3.4,6-4,8.8-4.7a12.5,12.5,0,0,0,6-2.5h.5c.2,0,.3.2.3.4a4.5,4.5,0,0,1-.7,2.3h1.7c1.6,0,2.7-.3,3.3-1h.6a.5.5,0,0,1,.3.5,4.1,4.1,0,0,1-.9,2.3c2.4.8,4.6,3.1,6.2,6.5v.2a7.7,7.7,0,0,1,.8,5.1c-.1.4-.1.8-.2,1.1a5.5,5.5,0,0,0,1.7-1.4l.3-.2h.2c.2.1.4.3.3.5a6.7,6.7,0,0,1-3.3,5.1A5.7,5.7,0,0,1,35,28.9a.6.6,0,0,1,0,.6l-.4.2h-.2a6.2,6.2,0,0,0-2.2-.4,6.3,6.3,0,0,0-3.3.9,15,15,0,0,1-2.2,1.1c0,.2.1.5.1.7a.6.6,0,0,1-.5.5,40.6,40.6,0,0,0-5.7.9l-3.7.8A33.4,33.4,0,0,1,11.9,34.4Z" style="fill:#beef63"/><path d="M23.1,6.9h0m0,0a3.7,3.7,0,0,1-1.3,2.8h2.8a5.3,5.3,0,0,0,3.7-1.1A3,3,0,0,1,26.8,11c2.8.4,5.2,3.2,6.8,6.5a7.7,7.7,0,0,1,.8,5.1,8.9,8.9,0,0,1-.6,2h.3a6.1,6.1,0,0,0,2.6-1.9,6.1,6.1,0,0,1-4.2,5.3,3,3,0,0,1,2.1,1.3,5.4,5.4,0,0,0-2.4-.5,6.6,6.6,0,0,0-3.6,1A15.1,15.1,0,0,1,26,30.9a2.9,2.9,0,0,1,.3,1c-2.2,0-6.5,1.2-9.5,1.7a29.3,29.3,0,0,1-4.9.3c-5.4,0-12.3-.9-9.6-4.6-1.2-2.6.4-6.7,2.8-10.9-2.2-.5-1.6-4.2.2-5l1.2-.3c1,0,1.1,1,1.3,1.6C13.3,8,18.3,10.9,23.1,6.9m5.2,1.6h0M23.1,5.9H23l-.6.2c-1.8,1.6-3.7,2-5.7,2.5a14.6,14.6,0,0,0-8.6,4.3,1.9,1.9,0,0,0-1.6-.8,5.3,5.3,0,0,0-1.6.4,4.2,4.2,0,0,0-2.2,4.2,3,3,0,0,0,1,2.1c-2.5,4.5-3.3,8-2.5,10.4A2.9,2.9,0,0,0,1,32c1.2,2.4,6.6,2.9,10.9,2.9a34.9,34.9,0,0,0,5.1-.3l3.7-.8a28.9,28.9,0,0,1,5.6-.9,1.1,1.1,0,0,0,1-1,.6.6,0,0,0-.1-.4l1.9-.9a5.9,5.9,0,0,1,3.1-.9,4.6,4.6,0,0,1,2,.4h.4a.9.9,0,0,0,.8-.4,1.1,1.1,0,0,0,0-1.2l-.6-.7a7.1,7.1,0,0,0,2.9-5.2,1,1,0,0,0-.6-1h-.4a1.3,1.3,0,0,0-.7.4l-.6.6a8.7,8.7,0,0,0-.8-5.4h-.1a13.7,13.7,0,0,0-5.8-6.6,4.3,4.3,0,0,0,.6-1.9h0a.9.9,0,0,0-1-1h0c-.3,0-.5,0-.6.2h-.1a4.2,4.2,0,0,1-3,.8h-.9a5.4,5.4,0,0,0,.4-1.5V6.9a1,1,0,0,0-1-1Zm0,2Z" style="fill:#70af6d"/><path d="M11.8,34.5c-3.3,0-9.2-.4-10.4-2.8a2.4,2.4,0,0,1,.3-2.5c-1.4-4,2.4-11.6,6.9-16L9,13h.2a.5.5,0,0,1,.2.6,1.4,1.4,0,0,1-.2.6v.2A7.4,7.4,0,0,1,13,12h.4c.2.2.2.3.1.5a1.4,1.4,0,0,1-.2.6,5,5,0,0,0-.2,3.9,5.7,5.7,0,0,1,2.6-.8.5.5,0,0,1,.5.3l.8-.4,1.8-.2H20a3.8,3.8,0,0,1,2.4,1.7,3.1,3.1,0,0,1,.5,2.1,4.5,4.5,0,0,0,1.7-1.1h.5c.2.1.3.2.3.4a8.3,8.3,0,0,1-2.2,6,3.8,3.8,0,0,1,2,1.5.3.3,0,0,1-.1.5l-.4.2H24a7.2,7.2,0,0,1,2.8,4.6l-.2.4-.3.2a19.2,19.2,0,0,0-5,.8l-4.4.9A31.8,31.8,0,0,1,11.8,34.5Z" style="fill:#ffeb81"/><path d="M13.1,12.5h0m0,0a5.7,5.7,0,0,0-.3,5.3,7,7,0,0,1,2.9-1h0a3.1,3.1,0,0,0-.9,1.1,9,9,0,0,1,2.4-1.2l1.6-.2h1A3.4,3.4,0,0,1,22,18.1a2.4,2.4,0,0,1,.1,2.6,7.6,7.6,0,0,0,2.8-1.5,7.1,7.1,0,0,1-2.8,6.1,3.5,3.5,0,0,1,2.6,1.5h-.6a2.5,2.5,0,0,0-1.3.3,6.8,6.8,0,0,1,3.5,4.9c-2.7,0-4.9.9-9.5,1.7a28.5,28.5,0,0,1-5,.4C6.5,34-.4,33,2.3,29.3.7,25.6,4.6,17.8,9,13.5a6.4,6.4,0,0,0-.7,2.8c1.3-1.8,2.9-3.4,4.8-3.8M9,13.5H9m4.1-2h-.3a5.6,5.6,0,0,0-2.9,1.6,1,1,0,0,0-.9-.6H8.9l-.5.2h0a.1.1,0,0,0-.1.1c-4,3.9-8.5,11.8-7.1,16.4A2.9,2.9,0,0,0,1,32c1.2,2.4,6.6,3,10.8,3a32.2,32.2,0,0,0,5.2-.4l4.4-.9a18.5,18.5,0,0,1,4.9-.8l.7-.4a1.1,1.1,0,0,0,.3-.8,8,8,0,0,0-2-4c.1-.1.2-.2.2-.3a.9.9,0,0,0,.1-1.1A3.6,3.6,0,0,0,24,24.9a8.6,8.6,0,0,0,1.9-5.8,1.1,1.1,0,0,0-.6-.9h-.4l-.7.2a2.7,2.7,0,0,1-.8.7,9.8,9.8,0,0,0-.5-1.6,5.1,5.1,0,0,0-2.8-1.9H18.8a6.3,6.3,0,0,0-1.9.3l-.6.2c-.1-.2-.3-.2-.5-.2h-.1a7,7,0,0,0-2.3.6,5.1,5.1,0,0,1,.4-3.1c.1-.1.1-.3.2-.5s.1-.2.1-.3a1,1,0,0,0-1-1Zm0,2Z" style="fill:#ffaa5a"/><path d="M13.9,30.5a2.4,2.4,0,0,1-1.8-.6,3.3,3.3,0,0,1-.6-3.7,3.5,3.5,0,0,1,3.2-2.3h.7a3.3,3.3,0,0,1,2.2,2.1,3.1,3.1,0,0,1-.5,3.1,4.2,4.2,0,0,1-3.2,1.3Z" style="fill:#add9d6"/><path d="M14.7,24.4h.6a2.9,2.9,0,0,1,1.4,4.4A3.8,3.8,0,0,1,13.9,30a2.2,2.2,0,0,1-1.5-.4c-1.7-1.8-.2-5.2,2.3-5.2m0-1A4.1,4.1,0,0,0,11,26a4.1,4.1,0,0,0,.7,4.3,3.1,3.1,0,0,0,2.2.7,4.9,4.9,0,0,0,3.6-1.5,3.6,3.6,0,0,0,.5-3.6,3.6,3.6,0,0,0-2.4-2.4Z" style="fill:#457cd1"/><path d="M52.1,27h-.8a32.2,32.2,0,0,1-12.4-5.5,2.8,2.8,0,0,1-.8-1.1,6.5,6.5,0,0,1-.3-2.6,2.1,2.1,0,0,1,1.3-1.6h.7a1.7,1.7,0,0,1,1.2.4,20.7,20.7,0,0,0,10.9,4.2l.4-.2c4-1.4,8.5-3.1,12-4h.9a122.2,122.2,0,0,1,12.2,3.3,2.1,2.1,0,0,1,1.3,2.1A2,2,0,0,1,77,23.5l-6.1.9-6.4.9-4,.6A78,78,0,0,1,52.1,27Z" style="fill:#ff839e"/><path d="M39.8,16.5a1.6,1.6,0,0,1,.9.3A21,21,0,0,0,52,21.1l.4-.2c4.1-1.5,8.6-3.2,12.1-4.1h.6a114.3,114.3,0,0,1,12.1,3.3,1.4,1.4,0,0,1,1,1.6A1.5,1.5,0,0,1,76.9,23l-6,.9-6.5.9-4.1.6a69.7,69.7,0,0,1-8.2,1.1h-.5c-.1,0-.2,0-.2-.1a32.1,32.1,0,0,1-12.2-5.5,1.2,1.2,0,0,1-.6-.8,5.2,5.2,0,0,1-.3-2.3,1.4,1.4,0,0,1,.9-1.2h.6m0-1-.9.2a2.6,2.6,0,0,0-1.6,1.9,6.1,6.1,0,0,0,.4,2.8,2.6,2.6,0,0,0,.9,1.4,35.7,35.7,0,0,0,12.6,5.6h.9a75,75,0,0,0,8.4-1.1h0l4-.6,6.5-1,6.1-.8a2.5,2.5,0,0,0,.4-4.9,109.2,109.2,0,0,0-12.2-3.3H64.2c-3.5.9-8.1,2.6-12.1,4.1h-.3A19.6,19.6,0,0,1,41.3,16a2.7,2.7,0,0,0-1.5-.5Z" style="fill:#84205c"/><path d="M42.7,24.2c-2.4,0-3.3-1.4-4.2-2.8l-.2-.5c-.9-1.4-1.7-2.7-3.1-2.7a.7.7,0,0,1-.5-.4,11.2,11.2,0,0,0-1.1-2.5.4.4,0,0,1,.1-.7A55,55,0,0,1,48.1,7a17.6,17.6,0,0,1,5.8-.9h1.3C64,6.7,73.9,9,85.5,13a.7.7,0,0,1,.4.5.6.6,0,0,1-.5.5,184.4,184.4,0,0,0-25.9,6.5l-7.2,2.6H49.9c-3.2-.2-6.7-.4-8.7-1.8A6,6,0,0,0,43,23.3a.4.4,0,0,1,.2.5C43.1,24,43,24.2,42.7,24.2Z" style="fill:#ffeb81"/><path d="M53.9,6.6h1.3c10,.7,20.4,3.5,30.2,6.9A180.2,180.2,0,0,0,59.3,20l-7.1,2.6c-5.3-.4-11.8,0-12.1-4.4-.2-2.1,22.7-5.7,31.4-5.7a9.4,9.4,0,0,1,2.7.2,18.2,18.2,0,0,0-4.2-.4c-9.6,0-30.2,2.7-30.3,5.6s1.1,4.4,3,5.8c-2.2,0-2.9-1.3-3.8-2.8s-1.9-3.2-3.7-3.2A11.1,11.1,0,0,0,34,15,52.9,52.9,0,0,1,48.3,7.5a15,15,0,0,1,5.6-.9m0-1a18.3,18.3,0,0,0-5.9.9,58,58,0,0,0-14.6,7.7,1,1,0,0,0-.3,1.4A9,9,0,0,1,34.3,18a1,1,0,0,0,.9.7c1,0,1.7,1,2.6,2.5l.2.3h.1c.9,1.5,1.9,3.1,4.6,3.1a1,1,0,0,0,1-.7.9.9,0,0,0-.4-1.1l-.3-.3a29.5,29.5,0,0,0,6.9.9h2.6c1.6-.7,4.8-1.9,7.1-2.6a171.5,171.5,0,0,1,25.9-6.5,1.2,1.2,0,0,0,.9-.9,1.2,1.2,0,0,0-.7-1.1C74,8.5,64.1,6.2,55.3,5.6Z" style="fill:#ffaa5a"/><path d="M3.9,33.9H3.5A3.8,3.8,0,0,1,1,32a2.6,2.6,0,0,1-.4-2.3A2.7,2.7,0,0,1,3.4,28c1,0,2.8.2,3.7,1.3A1.9,1.9,0,0,1,7.7,31C7.5,32.9,5.2,33.9,3.9,33.9Z" style="fill:#ff839e"/><path d="M3.4,28.5a4.9,4.9,0,0,1,3.3,1.1A1.6,1.6,0,0,1,7.2,31c-.1,1.6-2.2,2.4-3.3,2.4H3.5a3.8,3.8,0,0,1-2.1-1.6,2.3,2.3,0,0,1-.3-1.9c.1-.6.7-1.4,2.3-1.4m0-1C1,27.5.3,28.9.1,29.6a3.2,3.2,0,0,0,.5,2.7,4,4,0,0,0,2.8,2h.5c1.6,0,4.1-1.2,4.3-3.3a2.9,2.9,0,0,0-.7-2.2c-1.3-1.4-3.8-1.4-4.1-1.4Z" style="fill:#84205c"/><path d="M5.1,20.4H4.8A3.6,3.6,0,0,1,2,18.3a5.3,5.3,0,0,1-.4-1.6,6.2,6.2,0,0,1,1.1-3.6,4.8,4.8,0,0,1,2.7-1.9h1A2.9,2.9,0,0,1,9,12.5a2.5,2.5,0,0,1,.4.7,2,2,0,0,1,.6,1.5,1.8,1.8,0,0,1-.8,1.5l-.7.9-.5.7a7.4,7.4,0,0,0-1.2,1.6A2.1,2.1,0,0,1,5.1,20.4Z" style="fill:#ff839e"/><path d="M6.4,11.6a2.7,2.7,0,0,1,2.2,1.1l.4.7H9a1.8,1.8,0,0,1,.5,1.2,1.5,1.5,0,0,1-.6,1.1l-.8,1-.5.7a8.8,8.8,0,0,0-1.2,1.7,1.7,1.7,0,0,1-1.3.7H4.8a2.8,2.8,0,0,1-2.3-1.8,2.6,2.6,0,0,1-.4-1.4,6.5,6.5,0,0,1,1.1-3.4,4.4,4.4,0,0,1,2.3-1.6h.9m0-1a2.5,2.5,0,0,0-1.2.2,5.1,5.1,0,0,0-2.9,2,6.5,6.5,0,0,0-1.2,3.9,5.9,5.9,0,0,0,.4,1.8,4.2,4.2,0,0,0,3.2,2.4h.4a2.3,2.3,0,0,0,2.1-1.3c.2-.2.8-1.2,1.1-1.5l.6-.7.6-.8a2.4,2.4,0,0,0,1-1.9A2.7,2.7,0,0,0,9.9,13l-.4-.8a3.7,3.7,0,0,0-3.1-1.6Z" style="fill:#84205c"/><path d="M16.3,24.4a3.1,3.1,0,0,1-3.2-2,3,3,0,0,1,1.6-3.7l.5-.4a3.2,3.2,0,0,0,1-1.4v-.3a4.2,4.2,0,0,1,2.6-2.4l1.2-.2a4.9,4.9,0,0,1,1.7.4,5.2,5.2,0,0,1,2.9,4.4,5.4,5.4,0,0,1-2.2,4.4,4.4,4.4,0,0,1-2.8,1L18.4,24A5.2,5.2,0,0,1,16.3,24.4Z" style="fill:#ff839e"/><path d="M20.1,14.5l1.5.3a4.7,4.7,0,0,1,.6,8,4.3,4.3,0,0,1-2.5.9l-1.3-.2a5.9,5.9,0,0,1-2.1.4,2.9,2.9,0,0,1-2.8-1.6A2.6,2.6,0,0,1,15,19.1l.5-.4a4.2,4.2,0,0,0,1.1-1.5v-.3A3.6,3.6,0,0,1,19,14.7l1.1-.2m0-1-1.4.2a4.9,4.9,0,0,0-2.9,2.7v.3a3.6,3.6,0,0,1-.8,1.2l-.4.3h-.1c-1.8,1.1-2.4,2.6-1.8,4.3a3.7,3.7,0,0,0,3.7,2.3,5.2,5.2,0,0,0,2.1-.4l1.3.2a5.3,5.3,0,0,0,3.1-1.1,5.7,5.7,0,0,0,2.4-4.8A5.9,5.9,0,0,0,22,13.9a5.4,5.4,0,0,0-1.9-.4Z" style="fill:#84205c"/><g style="opacity:0.25098000000000004;mix-blend-mode:multiply"><path d="M3.1,29.4a7.9,7.9,0,0,1,2.5.5c.6.1.6-.9.2-1.4a1.8,1.8,0,0,0-2.3-.4C2.9,28.4,2.7,29.4,3.1,29.4Z" style="fill:#94254f"/></g><path d="M16.4,22.5h-.5c0-.1-.1-.1-.1-.2s.1-.1.2,0A4.5,4.5,0,0,0,19.5,21a3.1,3.1,0,0,0,.7-3h.1c.1,0,.1,0,.1.1a3,3,0,0,1-.8,3.1A4.9,4.9,0,0,1,16.4,22.5Z" style="fill:#ffdce5"/><path d="M15.3,28.3h-.2a10.1,10.1,0,0,0-1.3-1.6c-.2-.1-.2-.2-.1-.3a.3.3,0,0,1,.4,0,10.7,10.7,0,0,1,1.4,1.6.2.2,0,0,1,0,.3C15.5,28.3,15.4,28.3,15.3,28.3Z" style="fill:#66373f"/><path d="M13.8,28.6h-.1a.2.2,0,0,1-.1-.4,8,8,0,0,0,1.5-2.1h.3a.2.2,0,0,1,.1.4A10.7,10.7,0,0,1,14,28.6Z" style="fill:#66373f"/></g></g></g></g></g></svg>