<svg xmlns="http://www.w3.org/2000/svg" viewBox="0 0 47.71 48.53"><g id="Layer_2" data-name="Layer 2"><g id="Layer_1-2" data-name="Layer 1"><g id="Props"><g id="na_potted_plant_2" data-name="na_potted plant 2"><path d="M38.9,20.93c-5.64,3.22-26.32,2.77-31.5-.08C7.4,20.85,3.13,47,17.76,47H28.55C43.18,47,38.9,20.93,38.9,20.93Z" fill="#baa2ee"/><path d="M28.55,48.53H17.76a10.3,10.3,0,0,1-8.22-3.66C3.26,37.47,5.81,21.3,5.92,20.61l.35-2.1,1.86,1c4.59,2.53,24.84,3.06,30,.09L40,18.55l.35,2.14c.11.68,2.66,16.79-3.61,24.17A10.3,10.3,0,0,1,28.55,48.53ZM8.65,23c-.46,4.31-1.08,14.95,3.18,20a7.33,7.33,0,0,0,5.93,2.6H28.55a7.31,7.31,0,0,0,5.93-2.61c4.25-5,3.64-15.53,3.18-19.84C30.64,25.37,15.36,25,8.65,23Z" fill="#7850b3"/><g opacity="0.5"><path d="M38.9,20.93c-5.63,3.22-26.32,2.77-31.5-.08,0,0-.45,7.54-.58,8.8,1,2.77,3.35-1.88,5.08.39,4.16,5.44,8.76,5,11.58,3,.82-.59,1.84,2,7.17.93,4.62-.87,5.14-2.72,4.3,2.09s-3.46,9.43-10.6,9.43H13.55a12,12,0,0,1-1.23-.07A9,9,0,0,0,17.76,47H28.55C43.18,47,38.9,20.93,38.9,20.93Z" fill="#6b5a6d"/></g><path d="M39.48,20.85c0,2-7.41,3.68-16.56,3.68S6.35,22.88,6.35,20.85s7.42-3.67,16.57-3.67S39.48,18.82,39.48,20.85Z" fill="#645598"/><path d="M22.92,25.45c-6.53,0-17.57-1-17.57-4.67s11-4.68,17.57-4.68,17.56,1,17.56,4.68S29.44,25.45,22.92,25.45Zm0-7.35c-9.67,0-15.2,1.75-15.57,2.72.37.89,5.9,2.63,15.57,2.63s15-1.69,15.55-2.67C38,19.8,32.45,18.1,22.92,18.1Z" fill="#af9ee1"/><path d="M17.53,19.39a1.72,1.72,0,0,0,1.22-2.86c-3.26-3.73-9.52-10-13.9-8.41C-1,10.17-.68,20.13,17.53,19.39Z" fill="#72b75b"/><path d="M19.32,19.64a1.73,1.73,0,0,0-1.47-2.75c-5,.2-13.73,1.19-15.26,5.57C.55,28.27,8.49,34.29,19.32,19.64Z" fill="#72b75b"/><path d="M30.18,19.39A1.72,1.72,0,0,1,29,16.53c3.25-3.73,9.52-10,13.89-8.41C48.67,10.17,48.38,20.13,30.18,19.39Z" fill="#72b75b"/><path d="M28.39,19.64a1.73,1.73,0,0,1,1.47-2.75c5,.2,13.72,1.19,15.26,5.57C47.16,28.27,39.22,34.29,28.39,19.64Z" fill="#72b75b"/><path d="M24.57,21.1c-1-3.31-4.58-4.21-6.73-1.5-2.43,3.07-5,6.22-3.28,9.08C17.44,33.41,28.24,33.18,24.57,21.1Z" fill="#72b75b"/><path d="M24,21.1c1-3.31,4.58-4.21,6.73-1.5,2.43,3.07,5,6.22,3.28,9.08C31.12,33.41,20.33,33.18,24,21.1Z" fill="#72b75b"/><path d="M23,14.61c.05,4.63,3.29,6.58,6.16,3.4C32.43,14.4,35.85,10.72,35,6.55,33.46-.37,22.84-2.29,23,14.61Z" fill="#72b75b"/><path d="M24.58,14.43c.12,4.62-3,6.69-6,3.62-3.38-3.49-6.94-7-6.19-11.24C13.59-.16,24.14-2.46,24.58,14.43Z" fill="#72b75b"/><g opacity="0.5"><path d="M18.53,18.94a1.46,1.46,0,0,0,1-2.42c-2.74-3.13-8-8.37-11.7-7.07C3,11.18,3.21,19.56,18.53,18.94Z" fill="#02513d"/><path d="M20,19.14a1.45,1.45,0,0,0-1.23-2.31C14.64,17,7.25,17.83,6,21.52,4.24,26.41,10.92,31.48,20,19.14Z" fill="#02513d"/><path d="M29.18,18.94a1.46,1.46,0,0,1-1-2.42c2.74-3.13,8-8.37,11.69-7.07C44.73,11.18,44.5,19.56,29.18,18.94Z" fill="#02513d"/><path d="M27.67,19.14a1.45,1.45,0,0,1,1.24-2.31c4.16.17,11.55,1,12.84,4.69C43.46,26.41,36.79,31.48,27.67,19.14Z" fill="#02513d"/><path d="M24.46,20.37c-.85-2.78-3.86-3.54-5.66-1.26-2.05,2.59-4.23,5.24-2.77,7.64C18.46,30.73,27.54,30.54,24.46,20.37Z" fill="#02513d"/><path d="M24,20.37c.84-2.78,3.85-3.54,5.66-1.26,2.05,2.59,4.23,5.24,2.76,7.64C30,30.73,20.88,30.54,24,20.37Z" fill="#02513d"/><path d="M23.15,14.91c0,3.9,2.77,5.54,5.18,2.86,2.74-3,5.62-6.13,4.86-9.64C31.94,2.31,23,.69,23.15,14.91Z" fill="#02513d"/><path d="M24.47,14.76c.1,3.89-2.57,5.63-5.08,3-2.84-2.94-5.84-5.92-5.21-9.46C15.22,2.49,24.09.55,24.47,14.76Z" fill="#02513d"/></g><path d="M20,18.49a1.21,1.21,0,0,0,.74-2c-2-2.56-5.76-6.83-8.4-5.76C8.86,12.17,9,19,20,18.49Z" fill="#329f84"/><path d="M21.11,18.66a1.2,1.2,0,0,0-.89-1.89c-3,.14-8.29.82-9.22,3.82C9.77,24.59,14.56,28.72,21.11,18.66Z" fill="#329f84"/><path d="M27.68,18.49a1.21,1.21,0,0,1-.74-2c2-2.56,5.76-6.83,8.4-5.76C38.85,12.17,38.68,19,27.68,18.49Z" fill="#329f84"/><path d="M26.6,18.66a1.2,1.2,0,0,1,.88-1.89c3,.14,8.3.82,9.23,3.82C37.94,24.59,33.14,28.72,26.6,18.66Z" fill="#329f84"/><path d="M24.29,19.66c-.61-2.27-2.77-2.89-4.07-1-1.47,2.11-3,4.27-2,6.23C20,28.11,26.5,28,24.29,19.66Z" fill="#329f84"/><path d="M23.94,19.66c.6-2.27,2.76-2.89,4.06-1,1.47,2.11,3,4.27,2,6.23C28.24,28.11,21.72,28,23.94,19.66Z" fill="#329f84"/><path d="M23.35,15.21c0,3.17,2,4.51,3.72,2.33,2-2.48,4-5,3.49-7.86C29.66,4.93,23.24,3.61,23.35,15.21Z" fill="#329f84"/><path d="M24.29,15.08c.08,3.18-1.84,4.6-3.64,2.49-2-2.39-4.2-4.83-3.75-7.71C17.65,5.08,24,3.49,24.29,15.08Z" fill="#329f84"/><g opacity="0.3"><path d="M20.93,18a.93.93,0,0,0,.56-1.51c-1.51-2-4.41-5.23-6.43-4.41C12.37,13.19,12.5,18.42,20.93,18Z" fill="#02513d"/><path d="M21.75,18.16a.92.92,0,0,0-.68-1.45c-2.29.11-6.35.63-7.06,2.93C13.07,22.7,16.74,25.86,21.75,18.16Z" fill="#02513d"/><path d="M26.78,18a.93.93,0,0,1-.57-1.51c1.51-2,4.41-5.23,6.44-4.41C35.34,13.19,35.21,18.42,26.78,18Z" fill="#02513d"/><path d="M26,18.16a.92.92,0,0,1,.68-1.45c2.29.11,6.36.63,7.07,2.93C34.64,22.7,31,25.86,26,18.16Z" fill="#02513d"/><path d="M24.19,18.93c-.47-1.74-2.12-2.22-3.12-.79-1.13,1.61-2.32,3.27-1.52,4.77C20.89,25.39,25.88,25.27,24.19,18.93Z" fill="#02513d"/><path d="M23.92,18.93c.46-1.74,2.12-2.22,3.11-.79,1.13,1.61,2.33,3.27,1.52,4.77C27.22,25.39,22.22,25.27,23.92,18.93Z" fill="#02513d"/><path d="M23.47,15.52C23.49,18,25,19,26.32,17.3c1.5-1.9,3.09-3.83,2.67-6C28.3,7.65,23.38,6.64,23.47,15.52Z" fill="#02513d"/><path d="M24.19,15.42c.06,2.43-1.41,3.52-2.79,1.9-1.57-1.83-3.21-3.69-2.87-5.9C19.1,7.76,24,6.54,24.19,15.42Z" fill="#02513d"/></g><path d="M23.77,18.67c.1-1.3-1.17-2-2.41-1.26-1.41.85-2.89,1.72-2.63,2.93C19.16,22.34,23.42,23.4,23.77,18.67Z" fill="#70af6d"/><path d="M23.27,18.51a1.5,1.5,0,0,1,2.52-1.1c1.33.94,2.72,1.89,2.35,3.08C27.52,22.46,23.17,23.25,23.27,18.51Z" fill="#70af6d"/><path d="M23.33,15.89c-.64,1.68.37,2.71,1.94,1.85,1.79-1,3.66-2,3.89-3.56C29.55,11.52,25.64,9.76,23.33,15.89Z" fill="#70af6d"/><path d="M23.94,15.94c.76,1.64-.16,2.73-1.79,2C20.29,17,18.36,16.13,18,14.54,17.43,11.9,21.19,9.93,23.94,15.94Z" fill="#70af6d"/><path d="M20,33h-.21a8,8,0,0,1-6.51-3.58,5.13,5.13,0,0,1-.54-1.17c-5.14,3.27-8.46,1.61-9.45.93A6.16,6.16,0,0,1,1.17,22a6.86,6.86,0,0,1,2.92-3.44C1.54,17.05.06,15,0,12.6A6.21,6.21,0,0,1,4.35,6.71c1.84-.65,4-.33,6.41,1a7,7,0,0,1,.12-1.11C11.52,3,14.3.22,17.5.07c2.43-.13,4.63,1.25,6.15,3.79C25.08,1.35,27.21,0,29.6,0c3.18.05,6,2.68,6.82,6.23a8.93,8.93,0,0,1,.18,1.62C39.17,6.41,41.43,6,43.35,6.71a6.22,6.22,0,0,1,4.36,5.89c-.07,2.36-1.55,4.45-4.1,5.93A6.75,6.75,0,0,1,46.53,22a6.18,6.18,0,0,1-2,7.16c-2.3,1.67-5.52,1.49-8.89-.42a6.06,6.06,0,0,1-.39.76A8,8,0,0,1,28.77,33a6.8,6.8,0,0,1-4.49-1.44A6.76,6.76,0,0,1,20,33ZM14.21,23.8A1.53,1.53,0,0,1,15,24a1.5,1.5,0,0,1,.62,1.69,2.49,2.49,0,0,0,.19,2.17,5,5,0,0,0,4,2.14A3.63,3.63,0,0,0,23,28.57a1.56,1.56,0,0,1,2.48,0A3.64,3.64,0,0,0,28.69,30a5,5,0,0,0,4-2.15A2.26,2.26,0,0,0,33,26.33a1.48,1.48,0,0,1,.74-1.49,1.5,1.5,0,0,1,1.66.11c3,2.27,5.73,2.93,7.36,1.74A3.17,3.17,0,0,0,43.7,23c-.54-1.54-2.61-2.52-4.25-3.07a1.5,1.5,0,0,1,0-2.86c3.21-.95,5.16-2.63,5.21-4.5a3.21,3.21,0,0,0-2.36-3c-1.62-.57-4.1.44-7.14,2.93a1.5,1.5,0,0,1-2.31-1.8,5.84,5.84,0,0,0,.59-3.79C33,4.69,31.33,3,29.55,3H29.5C27.59,3,26,4.94,25.15,8.19a1.5,1.5,0,0,1-1.43,1.14,1.52,1.52,0,0,1-1.47-1.1C21.32,4.9,19.58,3,17.64,3.06c-1.78.09-3.42,1.81-3.81,4a5.49,5.49,0,0,0,.46,3.2,1.51,1.51,0,0,1-.46,1.78,1.49,1.49,0,0,1-1.84,0C9.18,9.86,6.88,9,5.35,9.53a3.22,3.22,0,0,0-2.35,3c0,1.87,2,3.55,5.21,4.5a1.5,1.5,0,0,1,0,2.86C6.62,20.43,4.54,21.41,4,23a3.18,3.18,0,0,0,1,3.79c1.42,1,4.34.81,8.25-2.57A1.46,1.46,0,0,1,14.21,23.8Z" fill="#02513d"/></g></g></g></g></svg>