<svg xmlns="http://www.w3.org/2000/svg" xmlns:xlink="http://www.w3.org/1999/xlink" viewBox="0 0 240.05 481.87"><defs><clipPath id="clip-path" transform="translate(0 4.98)"><path d="M11.5,15.6a10,10,0,0,0-10,10V210a10,10,0,0,0,10,10H228.55a10,10,0,0,0,10-10V25.6a10,10,0,0,0-10-10Z" fill="none"/></clipPath><clipPath id="clip-path-2" transform="translate(0 4.98)"><path d="M11.5,302.88a10,10,0,0,0-10,10V448.05a10,10,0,0,0,10,10H228.55a10,10,0,0,0,10-10V312.88a10,10,0,0,0-10-10Z" fill="none"/></clipPath><clipPath id="clip-path-3" transform="translate(0 4.98)"><path d="M238.55,236.37v50.11a7.07,7.07,0,0,1-7.08,7H8.52A7.09,7.09,0,0,1,2,289.08a7.37,7.37,0,0,1-.48-2.6V236.37a7,7,0,0,1,7-7h223A7.07,7.07,0,0,1,238.55,236.37Z" fill="none"/></clipPath></defs><g style="isolation:isolate"><g id="Layer_2" data-name="Layer 2"><g id="Layer_1-2" data-name="Layer 1"><g id="Props"><g id="fu_fridge"><path d="M231.55,5.55a10,10,0,0,0-8-4h-207a10,10,0,0,0-8,4.05h0a35.7,35.7,0,0,0-7,21.24V65.32H238.55V26.79a35.7,35.7,0,0,0-7-21.24Z" transform="translate(0 4.98)" fill="#d1c1ff"/><path d="M240.05,66.82H0v-40A37.43,37.43,0,0,1,7.3,4.66,11.53,11.53,0,0,1,16.54,0h207a11.55,11.55,0,0,1,9.25,4.66,37.49,37.49,0,0,1,7.29,22.13Zm-237-3H237.05v-37a34.48,34.48,0,0,0-6.7-20.35A8.56,8.56,0,0,0,223.51,3h-207A8.54,8.54,0,0,0,9.71,6.44,34.42,34.42,0,0,0,3,26.79Z" transform="translate(0 4.98)" fill="#7850b3"/><rect x="4.9" y="224.43" width="230.22" height="10.37" fill="#0c4a7b"/><path d="M234.62,220v9.36H5.4V220H234.62m1-1H4.4v11.36H235.62V219Z" transform="translate(0 4.98)" fill="#134160"/><rect x="4.9" y="297.98" width="230.22" height="10.37" fill="#0c4a7b"/><path d="M234.62,293.5v9.37H5.4V293.5H234.62m1-1H4.4v11.37H235.62V292.5Z" transform="translate(0 4.98)" fill="#134160"/><g clip-path="url(#clip-path)"><path d="M238.55,22.68V213a7,7,0,0,1-7,7H8.5a7,7,0,0,1-7-7V22.68a7,7,0,0,1,7-7.08h223A7.08,7.08,0,0,1,238.55,22.68Z" transform="translate(0 4.98)" fill="#ece5ff"/><path d="M8.52,25.6h106.8V230H8.5a7,7,0,0,1-7-7V32.68A7,7,0,0,1,8.52,25.6Z" transform="translate(0 4.98)" fill="#d1c1ff"/><path d="M238.55,32.68V223a7,7,0,0,1-7,7H124.73V25.6H231.47A7.09,7.09,0,0,1,238.55,32.68Z" transform="translate(0 4.98)" fill="#d1c1ff"/><g opacity="0.24" style="mix-blend-mode:screen"><rect x="150.7" y="-5.01" width="30.27" height="481.92" transform="translate(31.3 -14.17) rotate(7.29)" fill="#fff"/><rect x="130.51" y="-6.21" width="11.26" height="481.92" transform="translate(30.91 -10.41) rotate(7.29)" fill="#fff"/></g></g><path d="M228.55,221.46H11.5A11.51,11.51,0,0,1,0,210V25.6A11.51,11.51,0,0,1,11.5,14.1H228.55a11.51,11.51,0,0,1,11.5,11.5V210A11.51,11.51,0,0,1,228.55,221.46ZM11.5,17.1A8.51,8.51,0,0,0,3,25.6V210a8.51,8.51,0,0,0,8.5,8.5H228.55a8.51,8.51,0,0,0,8.5-8.5V25.6a8.51,8.51,0,0,0-8.5-8.5Z" transform="translate(0 4.98)" fill="#7850b3"/><path d="M21.68,470.76A12.73,12.73,0,0,1,9,458v-1.5h222.1V458a12.74,12.74,0,0,1-12.72,12.72Z" transform="translate(0 4.98)" fill="#0c4a7b"/><path d="M229.56,458a11.22,11.22,0,0,1-11.22,11.22H21.68A11.22,11.22,0,0,1,10.46,458h219.1m3-3H7.46v3a14.24,14.24,0,0,0,14.22,14.22H218.34A14.24,14.24,0,0,0,232.56,458v-3Z" transform="translate(0 4.98)" fill="#134160"/><g clip-path="url(#clip-path-2)"><path d="M238.55,309.9V451a7.09,7.09,0,0,1-7.08,7.08H8.52a7,7,0,0,1-7-7.08V309.9a7,7,0,0,1,7-7h223A7.07,7.07,0,0,1,238.55,309.9Z" transform="translate(0 4.98)" fill="#d1c1ff"/><g opacity="0.24" style="mix-blend-mode:screen"><rect x="150.7" y="-5.01" width="30.27" height="481.92" transform="translate(31.3 -14.17) rotate(7.29)" fill="#fff"/><rect x="130.51" y="-6.21" width="11.26" height="481.92" transform="translate(30.91 -10.41) rotate(7.29)" fill="#fff"/></g></g><path d="M228.55,459.55H11.5A11.51,11.51,0,0,1,0,448.05V312.88a11.51,11.51,0,0,1,11.5-11.5H228.55a11.51,11.51,0,0,1,11.5,11.5V448.05A11.51,11.51,0,0,1,228.55,459.55ZM11.5,304.38a8.51,8.51,0,0,0-8.5,8.5V448.05a8.51,8.51,0,0,0,8.5,8.5H228.55a8.51,8.51,0,0,0,8.5-8.5V312.88a8.51,8.51,0,0,0-8.5-8.5Z" transform="translate(0 4.98)" fill="#7850b3"/><g clip-path="url(#clip-path-3)"><path d="M238.55,236.37v50.11a7.07,7.07,0,0,1-7.08,7H8.52A7.09,7.09,0,0,1,2,289.08a7.37,7.37,0,0,1-.48-2.6V236.37a7,7,0,0,1,7-7h223A7.07,7.07,0,0,1,238.55,236.37Z" transform="translate(0 4.98)" fill="#d1c1ff"/><g opacity="0.24" style="mix-blend-mode:screen"><rect x="150.7" y="-5.01" width="30.27" height="481.92" transform="translate(31.3 -14.17) rotate(7.29)" fill="#fff"/><rect x="130.51" y="-6.21" width="11.26" height="481.92" transform="translate(30.91 -10.41) rotate(7.29)" fill="#fff"/></g></g><path d="M231.47,295H8.52A8.61,8.61,0,0,1,.6,289.66a8.83,8.83,0,0,1-.6-3.18V236.37a8.53,8.53,0,0,1,8.52-8.52h223a8.56,8.56,0,0,1,8.58,8.52v50.11A8.56,8.56,0,0,1,231.47,295ZM8.52,230.85A5.53,5.53,0,0,0,3,236.37v50.11a6,6,0,0,0,.38,2.06A5.53,5.53,0,0,0,8.52,292h223a5.56,5.56,0,0,0,5.58-5.52V236.37a5.56,5.56,0,0,0-5.58-5.52Z" transform="translate(0 4.98)" fill="#7850b3"/><rect x="119.13" y="19.08" width="1.79" height="207.34" fill="#fff"/><rect x="171.28" y="37.96" width="35.74" height="8.13" fill="#fff9db"/><rect x="16.09" y="79.88" width="73.77" height="79.76" rx="6" fill="#b3eeef"/><path d="M83.86,156.17H22.09a7.5,7.5,0,0,1-7.5-7.5V80.91a7.5,7.5,0,0,1,7.5-7.5H83.86a7.5,7.5,0,0,1,7.5,7.5v67.76A7.5,7.5,0,0,1,83.86,156.17ZM22.09,76.41a4.5,4.5,0,0,0-4.5,4.5v67.76a4.51,4.51,0,0,0,4.5,4.5H83.86a4.51,4.51,0,0,0,4.5-4.5V80.91a4.5,4.5,0,0,0-4.5-4.5Z" transform="translate(0 4.98)" fill="#7fc9c9"/><rect x="21.93" y="87.42" width="19.1" height="9.65" fill="#fff9db"/><rect x="21.93" y="100.28" width="19.1" height="9.64" fill="#fff9db"/><rect x="21.93" y="113.14" width="19.1" height="9.64" fill="#fff9db"/><rect x="21.93" y="126" width="19.1" height="9.65" fill="#fff9db"/><rect x="47.08" y="87.42" width="36.94" height="28.49" fill="#fff9db"/><path d="M110,188a4.53,4.53,0,0,1-4.53-4.53V39.7a4.53,4.53,0,1,1,9,0V183.43A4.53,4.53,0,0,1,110,188Z" transform="translate(0 4.98)" fill="#fff"/><path d="M110,36.67a3,3,0,0,1,3,3V183.43a3,3,0,0,1-3,3h0a3,3,0,0,1-3-3V39.7a3,3,0,0,1,3-3h0m0-3a6,6,0,0,0-6,6V183.43a6,6,0,1,0,12,0V39.7a6,6,0,0,0-6-6Z" transform="translate(0 4.98)" fill="#a4bceb"/><path d="M130,188a4.53,4.53,0,0,1-4.53-4.53V39.7a4.53,4.53,0,1,1,9.05,0V183.43A4.53,4.53,0,0,1,130,188Z" transform="translate(0 4.98)" fill="#fff"/><path d="M130,36.67a3,3,0,0,1,3,3V183.43a3,3,0,0,1-3,3h0a3,3,0,0,1-3-3V39.7a3,3,0,0,1,3-3h0m0-3a6,6,0,0,0-6,6V183.43a6,6,0,1,0,12.05,0V39.7a6,6,0,0,0-6-6Z" transform="translate(0 4.98)" fill="#a4bceb"/></g></g></g></g></g></svg>