<svg xmlns="http://www.w3.org/2000/svg" viewBox="0 0 58.7 38.5"><g style="isolation:isolate"><g id="Layer_2" data-name="Layer 2"><g id="Layer_1-2" data-name="Layer 1"><g id="Props"><g id="fu_kitchen_utensil_pan_2" data-name="fu_kitchen utensil_pan 2"><path d="M29.3,9.8H8.7c0,8.6,1.1,27.7,5.6,27.7H44.4c4.5,0,5.5-19.1,5.5-27.7Z" style="fill:#387798"/><path d="M29.3,9.8H8.7c0,8.6,1.1,27.7,5.6,27.7H44.4c4.5,0,5.5-19.1,5.5-27.7Z" style="fill:#387798"/><g style="mix-blend-mode:multiply"><path d="M46.8,9.8c0,9-1.1,26.7-5.5,26.7H12.6a2.4,2.4,0,0,0,1.7,1H44.4c4.5,0,5.5-19.1,5.5-27.7Z" style="fill:#ccc"/></g><path d="M48.5,12a22.6,22.6,0,0,1,7.6-1.8,1.5,1.5,0,0,1,1.6,1.4c.3,3-4.8,1.5-8.4,3.4a.6.6,0,0,1-.9-.5l-.3-1.8A.6.6,0,0,1,48.5,12Z" style="fill:#2f5f78"/><g style="mix-blend-mode:multiply"><path d="M49.4,14.9a.6.6,0,0,1-.9-.5l-.3-1.9v-.3a.7.7,0,0,0-.1.5l.3,1.8a.6.6,0,0,0,.9.5c3.2-1.7,7.4-.8,8.3-2.5C56.6,14,52.4,13.2,49.4,14.9Z" style="fill:#ccc"/></g><path d="M10.2,12a23.3,23.3,0,0,0-7.6-1.8A1.5,1.5,0,0,0,1,11.6c-.4,3,4.8,1.5,8.4,3.4a.6.6,0,0,0,.9-.5l.3-1.8A.7.7,0,0,0,10.2,12Z" style="fill:#2f5f78"/><g style="mix-blend-mode:multiply"><path d="M9.3,14.9a.6.6,0,0,0,.9-.5l.3-1.9v-.3a.7.7,0,0,1,.1.5l-.3,1.8a.6.6,0,0,1-.9.5c-3.2-1.7-7.5-.8-8.3-2.5C2.1,14,6.2,13.2,9.3,14.9Z" style="fill:#ccc"/></g><path d="M49.9,9.8v1.6c.9-.1,3.6-1.3,5.6-1.3s2,.4,2.2,1.5a1.3,1.3,0,0,1-.1.9h0a2.9,2.9,0,0,1-1.9,1.1c-1.9.3-4,.3-5.9,1.2-.3,9.4-1.6,22.7-5.4,22.7H14.3a2.3,2.3,0,0,1-1.7-1h0c-2.5-3.3-3.5-13.8-3.8-21.7-1.8-.9-3.9-.9-5.9-1.2a2.9,2.9,0,0,1-1.8-1.1h0c-.5-1.8.6-2.3,2-2.3a26.4,26.4,0,0,1,5.7,1.2,9.2,9.2,0,0,1-.1-1.6H49.9m0-1H8.7a1,1,0,0,0-1,1v.3a17.1,17.1,0,0,0-4.6-.9,3,3,0,0,0-2.6,1,2.7,2.7,0,0,0-.4,2.4c0,.1.1.2.1.4a3.4,3.4,0,0,0,2.5,1.5l2,.3a16.5,16.5,0,0,1,3.2.7C8.1,22.2,9,33.3,11.7,37a.1.1,0,0,1,.1.1,3.4,3.4,0,0,0,2.5,1.4H44.4c3.7,0,5.8-7.8,6.4-23a16.5,16.5,0,0,1,3.2-.7,12.5,12.5,0,0,0,1.9-.3A3.4,3.4,0,0,0,58.5,13v-.2a2.2,2.2,0,0,0,.2-1.4h0c-.2-.8-.8-2.2-3.2-2.2a17.1,17.1,0,0,0-4.6,1V9.8a.9.9,0,0,0-1-1Z" style="fill:#314d77"/><rect x="7.3" y="7.8" width="44" height="1.99" rx="0.5" style="fill:#4c94b7"/><g style="mix-blend-mode:multiply"><path d="M50.9,7.8l.2.3v1a.5.5,0,0,1-.5.5H7.5l.3.2h43a.5.5,0,0,0,.5-.5v-1A.5.5,0,0,0,50.9,7.8Z" style="fill:#ccc"/></g><path d="M29.4,3.1C18,3.1,9.9,4.8,8.3,7.8H50.4C48.9,4.8,40.6,3.1,29.4,3.1Z" style="fill:#a6bcc9"/><g style="mix-blend-mode:multiply"><path d="M29.4,3.1H27.3c9.3.4,14.1,2.1,15.5,4.7h7.6C48.9,4.8,40.6,3.1,29.4,3.1Z" style="fill:#ccc"/></g><g style="mix-blend-mode:multiply"><path d="M29.4,3.1H27.3c10.2.2,17.6,1.9,19,4.7h4.1C48.9,4.8,40.6,3.1,29.4,3.1Z" style="fill:#ccc"/></g><path d="M29.4,1c-2.4,0-2.8,0-2.8.5s.2.7,1.2.7a.2.2,0,0,1,.2.2v.7h2.7V2.4c0-.1.1-.2.3-.2s1.1-.1,1.1-.7S31.8,1,29.4,1Z" style="fill:#584467"/><g style="mix-blend-mode:multiply"><path d="M30,1c1.3,0,1.6.1,1.6.5s-.2.7-1.2.7a.2.2,0,0,0-.2.2v.7h.5V2.4c0-.1.1-.2.3-.2s1.1-.1,1.1-.7S31.8,1,30,1Z" style="fill:#ccc"/><path d="M28.8,1h0Z" style="fill:#ccc"/></g><path d="M30.4,1a4.1,4.1,0,0,1,1.6.2c.3.6.1,1-.8,1H31c-.4,0-.2.7-.3.9,10.6.2,18.2,1.8,19.7,4.7h.5c.2,0,.3.1.4.3s.3,1.7-.5,1.7a14.3,14.3,0,0,0-3-.1H20.2c-7.1,0-12.6,0-12.7-.2h0c-.3-.2-.1-1.1-.2-1.3s.4-.5.8-.5h.2c1.5-2.8,8.8-4.5,19-4.7H28c-.1-.2.1-.9-.2-.9h0c-1,0-1.2-.1-1.2-.7s.3-.5,1.6-.5h2.2M28.2,1h0m2.2-1H28.2C27,0,25.6,0,25.6,1.5a1.5,1.5,0,0,0,.1.7c-6.3.2-15.3,1.1-17.9,4.6a1.9,1.9,0,0,0-1.1.4,2.1,2.1,0,0,0-.4,1.1h.1v.2a2.7,2.7,0,0,0,.4,1.7c.4.5,1.2.5,13.5.5H50.9a1.2,1.2,0,0,0,1-.5,2.3,2.3,0,0,0,.4-2.1V8a.4.4,0,0,0-.1-.3,1.4,1.4,0,0,0-1.1-.9h-.2C48.3,3.3,38.8,2.4,33,2.2A1.4,1.4,0,0,0,32.8.7a.8.8,0,0,0-.5-.5L30.4,0Z" style="fill:#314d77"/></g></g></g></g></g></svg>