<svg xmlns="http://www.w3.org/2000/svg" xmlns:xlink="http://www.w3.org/1999/xlink" viewBox="0 0 51.2 103.14"><defs><clipPath id="clip-path" transform="translate(0.72)"><path d="M44.11,28.3c-4-.45-13.06-.65-13.06-9.74V16.05a20.45,20.45,0,0,1,.48-4.55A6.55,6.55,0,0,0,25.94,3h0l-.2,0h-1l-.21,0h0a6.58,6.58,0,0,0-5.59,8.46,19.88,19.88,0,0,1,.49,4.55v2.51c0,9.09-9.06,9.29-13.07,9.74A3.36,3.36,0,0,0,3,31.66V80.55a3.37,3.37,0,0,0,3.36,3.37H44.11a3.36,3.36,0,0,0,3.36-3.37V31.66A3.35,3.35,0,0,0,44.11,28.3Zm-22-18.73a3.18,3.18,0,1,1,3.18,3.19A3.19,3.19,0,0,1,22.06,9.57Z" fill="none"/></clipPath></defs><g style="isolation:isolate"><g id="Layer_2" data-name="Layer 2"><g id="Layer_1-2" data-name="Layer 1"><g id="Props"><g id="fu_kitchen_utensil_wooden_board" data-name="fu_kitchen utensil_wooden board"><path d="M44.11,28.3c-4-.45-13.06-.65-13.06-9.74V16.05a20.45,20.45,0,0,1,.48-4.55A6.55,6.55,0,0,0,25.94,3h0l-.2,0h-1l-.21,0h0a6.58,6.58,0,0,0-5.59,8.46,19.88,19.88,0,0,1,.49,4.55v2.51c0,9.09-9.06,9.29-13.07,9.74A3.36,3.36,0,0,0,3,31.66V80.55a3.37,3.37,0,0,0,3.36,3.37H44.11a3.36,3.36,0,0,0,3.36-3.37V31.66A3.35,3.35,0,0,0,44.11,28.3Zm-22-18.73a3.18,3.18,0,1,1,3.18,3.19A3.19,3.19,0,0,1,22.06,9.57Z" transform="translate(0.72)" fill="#fbbc87"/><g opacity="0.8" style="mix-blend-mode:multiply"><path d="M6,28.7c2.78-.31,8-.5,11-3.65C13.92,27.81,9,28,6.36,28.3a3.36,3.36,0,0,0-2.57,1.19A3.38,3.38,0,0,1,6,28.7Z" transform="translate(0.72)" fill="#fbbc87"/><path d="M44.11,28.3c-4-.45-13.06-.65-13.06-9.74V16.05a20.45,20.45,0,0,1,.48-4.55A6.55,6.55,0,0,0,25.94,3h0l-.2,0h-1l-.21,0h0a6.53,6.53,0,0,0-4.14,2.1,6.63,6.63,0,0,1,3.73-1.7h1.42a6.59,6.59,0,0,1,5.59,8.47,19.88,19.88,0,0,0-.49,4.55V19c0,9.1,9.06,9.3,13.06,9.74a3.37,3.37,0,0,1,3.37,3.37V81a3.38,3.38,0,0,1-.79,2.17,3.36,3.36,0,0,0,1.19-2.58V31.66A3.35,3.35,0,0,0,44.11,28.3Z" transform="translate(0.72)" fill="#fbbc87"/></g><rect x="5.55" y="30.82" width="40.82" height="51.77" rx="3.06" fill="#ebae75"/><g style="mix-blend-mode:multiply"><path d="M4.83,79.53V33.89a3.06,3.06,0,0,1,3.06-3.07H42.58a3.06,3.06,0,0,1,2,.78,3,3,0,0,0-2.28-1H7.65a3.06,3.06,0,0,0-3.07,3.06V79.28a3.08,3.08,0,0,0,1,2.29A3,3,0,0,1,4.83,79.53Z" transform="translate(0.72)" fill="#fbbc87"/></g><rect x="6.78" y="32.05" width="38.35" height="49.31" rx="1.83" fill="#fbbc87"/><g style="mix-blend-mode:multiply"><path d="M43.75,32.47a1.86,1.86,0,0,1,.42,1.17V79.28a1.83,1.83,0,0,1-1.83,1.83H7.65a1.84,1.84,0,0,1-1.17-.42,1.83,1.83,0,0,0,1.41.67H42.58a1.83,1.83,0,0,0,1.83-1.83V33.89A1.83,1.83,0,0,0,43.75,32.47Z" transform="translate(0.72)" fill="#fbbc87"/></g><g style="mix-blend-mode:multiply"><path d="M22.06,9.57a3.19,3.19,0,0,1,3.18-3.18,3.12,3.12,0,0,1,2.11.82,3.17,3.17,0,0,0-5.53,2.12,3.19,3.19,0,0,0,1.06,2.37A3.17,3.17,0,0,1,22.06,9.57Z" transform="translate(0.72)" fill="#fbbc87"/></g><path d="M27.35,7.21a3.13,3.13,0,0,1,.82,2.12,3.17,3.17,0,0,1-5.29,2.37,3.17,3.17,0,0,0,5.53-2.13A3.15,3.15,0,0,0,27.35,7.21Z" transform="translate(0.72)" fill="#fbe1cb"/><g clip-path="url(#clip-path)"><g style="mix-blend-mode:multiply"><path d="M14.37,103.14c0-.81,0-1.61,0-2.39a84.08,84.08,0,0,1,.35-20.19c0-.45,0-.9,0-1.36,0-1.82.07-3.69.09-5.45q0-1.91.06-3.75c0-1.24,0-2.45.06-3.67.08,1.42.2,2.91.29,4.35,0,.49.06,1,.09,1.44.08,1.89.09,3.89,0,5.86l-.06,1.47a86.79,86.79,0,0,0-.87,20.94c0,.45,0,.9,0,1.36S14.39,102.67,14.37,103.14Z" transform="translate(0.72)" fill="#f6ddc7"/><path d="M9,3.52V6c0,.82,0,1.63.05,2.44A62,62,0,0,1,9,23.14C9,24,9,24.78,9,25.6a94.36,94.36,0,0,0-.05,13.66c0,.76,0,1.52,0,2.28,0,3.85-.11,7.56,0,11.39,0,.76,0,1.52,0,2.28v2.28l-.5.31V53.25c0-3.12.06-6.36,0-9.51,0-.63,0-1.26,0-1.88,0-5.32-.49-10.68,0-15.94,0-.82,0-1.64,0-2.46.12-1.89.24-3.73.31-5.56,0-.61,0-1.22,0-1.83a14,14,0,0,0,0-3.65c0-.61-.06-1.22-.11-1.83s-.1-1.23-.17-1.85c0-.82,0-1.63-.05-2.45V3.84Z" transform="translate(0.72)" fill="#f6ddc7"/><path d="M25.67,90.91a91.92,91.92,0,0,0,.43-18.08l-.09-2c-.07-4.86.08-9.56.22-14.37l.06-2.07c.12-3.51,1-7,1.08-10.5.42,3.91-1,7.4-.87,11l-.09,2.18c-.19,5.05-.24,9.94-.12,15,.06.61.12,1.23.16,1.84A84.19,84.19,0,0,1,26,90.73Z" transform="translate(0.72)" fill="#f6ddc7"/><path d="M39.13,62.42c1.11-4.64.06-9.49-.22-14.22,0-.68-.06-1.35-.06-2-.57-4.76-1.28-9.62-1-14.47a16.69,16.69,0,0,1,.23-2.09c1.21-3,1.47-6.07,2.35-9.14.34,3.71-1.78,7.18-2.07,10.94q-.09,1-.12,2.07a83.78,83.78,0,0,0,.83,12.42c0,.63,0,1.26,0,1.89.13,4.41,1.2,8.9.27,13.18C39.28,61.45,39.21,61.93,39.13,62.42Z" transform="translate(0.72)" fill="#f6ddc7"/><path d="M34.81,85l0-2.24a109.11,109.11,0,0,1-.25-14.12c0-.67.09-1.34.16-2A61.61,61.61,0,0,0,36,53.27a49.74,49.74,0,0,1-.86,13.3c-.07.68-.12,1.36-.16,2.05a95.31,95.31,0,0,0,.16,13.09c0,.21,0,.42,0,.66.08.52.07,1.14.15,1.71-.09-.62-.1-.42-.11,0s0,.75,0,1.13Z" transform="translate(0.72)" fill="#f6ddc7"/><path d="M20.1,96.5l.51-1.41c2.26-4.6,2.34-9.47,2.08-14.36,0-.61-.07-1.22-.11-1.84-.21-6.43-3-12.85.23-19-2.34,6.15-.44,12.56,0,19,0,.61.08,1.22.11,1.83.24,4.9.14,9.77-2.18,14.35-.16.46-.32.93-.46,1.4Z" transform="translate(0.72)" fill="#f6ddc7"/><path d="M14.32,39.51c-1.1,0-.48-.66-.67-1a78.08,78.08,0,0,0,.77-13.71c0-.66-.05-1.31-.09-2-.1-4.51-2.09-8.85-.56-13.36-.3,4.93.65,9.68,1,14.37,0,.61.06,1.23.08,1.84a116.62,116.62,0,0,1-.35,12.8C14.46,38.79,14.4,39.16,14.32,39.51Z" transform="translate(0.72)" fill="#f6ddc7"/><path d="M32.17,11.24c.18,1.31.78,2.56.6,4,.06.66.1,1.33.13,2A58.11,58.11,0,0,1,31.67,31l0,2c0,3.32.06,6.66-.26,10-.07-3.34-.05-6.61,0-9.88l.06-2a70.63,70.63,0,0,0,1.07-13.76c0-.66-.06-1.31-.11-2a20,20,0,0,0-.49-4Z" transform="translate(0.72)" fill="#f6ddc7"/><path d="M46.1,70.2c0-1.49.29-2.73.17-4.23,0-.71,0-1.41.07-2.12L46.4,62c.25-3.17.19-6.26.29-9.27l.06-1.85c0-.62,0-1.24,0-1.85l.27.41,0,1.87c0,.62,0,1.24-.05,1.87.1,2.57-.18,5-.2,7.46,0,.62,0,1.25-.05,1.87s0,1.24,0,1.87,0,1.42-.05,2.13c.12,1.38-.14,2.82-.13,4.26Z" transform="translate(0.72)" fill="#f6ddc7"/><path d="M24.22,35c0,.76,0,1.52,0,2.29s0,1.52-.05,2.27c-.88,6.19-.37,12.17-.28,18.34-1.12-6-.81-12.15-.25-18.39,0-.75,0-1.51,0-2.28s0-1.52,0-2.29Z" transform="translate(0.72)" fill="#f6ddc7"/><path d="M11,91.45c-1.93-6.12,0-12.27.85-18.46l.08-2.33c0-.58.05-1.16.07-1.75,0-.93.07-1.81.12-2.68,0-.44.05-.88.1-1.32s.1-.89.18-1.35a2.21,2.21,0,0,1,.26,2,4,4,0,0,0-.14,2c0,.58,0,1.16-.07,1.75L12.39,71l-.09,2.33a43.15,43.15,0,0,0-.78,18.51Z" transform="translate(0.72)" fill="#f6ddc7"/><path d="M42.92,29.56c1.55,6.08.22,12.27-.26,18.47,0,.78,0,1.56,0,2.34,0,.58,0,1.16,0,1.75,0,.93,0,1.81,0,2.69,0,.43,0,.87,0,1.32s-.06.89-.11,1.35a2.86,2.86,0,0,1-.23-1.95,5.3,5.3,0,0,0,.06-2c0-.58,0-1.16,0-1.75s0-1.16,0-1.75l0-2.33a58,58,0,0,0,.21-18.53Z" transform="translate(0.72)" fill="#f6ddc7"/><path d="M16.2,95.74,16.32,89c0-.74,0-1.49.05-2.24,1.33-5.88.62-11.86.53-18a66.41,66.41,0,0,1-.29,17.82c0,.74,0,1.48-.05,2.22l-.12,6.65Z" transform="translate(0.72)" fill="#f6ddc7"/><path d="M37.25,62.52c0-3.4,0-6.79.07-10.2,0-.68,0-1.36,0-2,.18-1.62-.62-3.28,0-4.92.39,1.24.16,2.68.45,4.21,0,.71,0,1.42,0,2.12V62.28Z" transform="translate(0.72)" fill="#f6ddc7"/><path d="M20.75,62.52c0-3.4.05-6.79.08-10.2,0-.68,0-1.36,0-2,.18-1.62-.62-3.28,0-4.92.39,1.24.16,2.68.45,4.21,0,.71,0,1.42,0,2.12q0,5.3,0,10.59Z" transform="translate(0.72)" fill="#f6ddc7"/><path d="M10.5,62.22q.06-3,.11-6c0-.67,0-1.34,0-2,.19-4.63-.18-9.46.21-14.18q.08-1,.21-2l0,2c-.09,4.65-.16,9.16-.19,13.76,0,.66,0,1.32,0,2l-.11,5.92Z" transform="translate(0.72)" fill="#f6ddc7"/><path d="M7.17,79.5c-.35-5.09.36-9.82.57-14.85,0-.46,0-.91,0-1.35,0,.34.07.73.08,1.15s0,.88,0,1.36a94.47,94.47,0,0,0-.58,13.75Z" transform="translate(0.72)" fill="#f6ddc7"/><path d="M24.52,69.92c0-.67,0-1.35,0-2,0-1.83.07-3.66.1-5.49l0-1.83c0-.59.06-1.2.09-1.8s0-1.22,0-1.83c.06-2.46-.09-5.14-.25-7.61.78,2.28.11,4.74.47,7.05,0,.46,0,.92,0,1.38,0,1.38-.07,2.74-.12,4l0,2c0,.68,0,1.36,0,2s0,1.35,0,2l0,2Z" transform="translate(0.72)" fill="#f6ddc7"/><path d="M34.07,25c-.12,1.55-.76,3-1,4.53C33,30.28,33,31,33,31.72c-.1,3.56-.09,7.08-.15,10.68a76.17,76.17,0,0,1-.06-10.68c0-.71.09-1.42.17-2.15.15-1.37.79-3,.91-4.5Z" transform="translate(0.72)" fill="#f6ddc7"/><path d="M35.5,52.75a54.8,54.8,0,0,0,0-12.41c0-.69,0-1.38,0-2.07s0-1.38,0-2.07l.42.14c0,.69,0,1.38,0,2.06.1,4.8.42,9.75-.17,14.4Z" transform="translate(0.72)" fill="#f6ddc7"/><path d="M22.38,34.45c0-2.24-.16-4.45-.33-6.66-.06-.73-.11-1.46-.15-2.2.23-1.44-.57-2.89,0-4.4.05-.74.14-1.48.26-2.22a19.79,19.79,0,0,1,.52-2.22,30.82,30.82,0,0,0-.51,4.44c-.08,1.47-.06,2.94,0,4.4s.14,2.93.23,4.4.16,2.94.19,4.42Z" transform="translate(0.72)" fill="#f6ddc7"/><path d="M9.05,62.34l.12-6.61c0-.74,0-1.47.05-2.21.18-3-.38-6.07.29-8.94,0,2.88-.11,6-.1,8.88,0,.74,0,1.47,0,2.21L9.25,62.3Z" transform="translate(0.72)" fill="#f6ddc7"/><path d="M33.11,82.85q-.13-3-.25-5.91l-.09-2a29.68,29.68,0,0,1,.77-8A37.93,37.93,0,0,0,33,75l.08,2q.13,3,.25,5.91Z" transform="translate(0.72)" fill="#f6ddc7"/><path d="M28.19,78.67a120.7,120.7,0,0,1,.23-13.06c0-.62.07-1.24.12-1.85,0,.66,0,1.33,0,2,0,4.65-.37,9.16-.12,13.83C28.34,79.28,28.27,79,28.19,78.67Z" transform="translate(0.72)" fill="#f6ddc7"/><path d="M28.48,21.6a62.13,62.13,0,0,0,.43,13.91,15,15,0,0,1,0,1.64c0-.52,0-1-.08-1.56a61.44,61.44,0,0,1-.42-14Z" transform="translate(0.72)" fill="#f6ddc7"/><path d="M19.23,3.54c0,.65,0,1.31,0,2a22.59,22.59,0,0,0,.61,5.86,32.4,32.4,0,0,1-.14,7.81C20.17,14.05,19,9.09,19,3.86Z" transform="translate(0.72)" fill="#f6ddc7"/><path d="M14.24,64a14.11,14.11,0,0,1-.19-3.15c.25-3.5,1.42-6.19,1.26-9.68-.1,0-.3,0-.3.2a11.56,11.56,0,0,0,0,1.86C14.6,57.3,13.14,61,14.36,65,14.32,64.67,14.27,64.31,14.24,64Z" transform="translate(0.72)" fill="#f6ddc7"/><path d="M4,37.62c0,.55,0,1.1,0,1.65l-.21,11.5-.23,0L3.7,39.48c0-.54,0-1.08,0-1.62Z" transform="translate(0.72)" fill="#f6ddc7"/><path d="M11.79,24.1c0,.55,0,1.1,0,1.65l-.18,9.58,0,1.91-.23,0,0-1.87.18-9.4,0-1.61Z" transform="translate(0.72)" fill="#f6ddc7"/><path d="M36.64,71.43c.16,2.63.31,3.95.3,5.49s-.17,3.12-.27,4.7c-.09-1.21-.24-2.27-.25-3.66S36.53,74.6,36.64,71.43Z" transform="translate(0.72)" fill="#f6ddc7"/><path d="M26,19.6c.13-3.83.2-7.74.36-11.6,0-.45,0-.9,0-1.35l.45.31c0,.51,0,1,0,1.55-.6,3.76-.05,7.26-.37,10.87Z" transform="translate(0.72)" fill="#f6ddc7"/><path d="M42.18,80.07c0-.23.06-.46.08-.7s.06-.47.08-.7c.2-1.45,0-3,.15-4.35.29,1.61-.06,3.22,0,4.86,0,.22,0,.45-.08.67a5.58,5.58,0,0,1-.13.69C42.26,80.38,42.22,80.23,42.18,80.07Z" transform="translate(0.72)" fill="#f6ddc7"/><path d="M40.76,67.17c0-.23.05-.46.08-.69s0-.47.07-.71c.2-1.45,0-2.95.15-4.35.29,1.62-.06,3.22,0,4.86,0,.23,0,.45-.07.68s-.08.45-.13.68C40.83,67.48,40.79,67.33,40.76,67.17Z" transform="translate(0.72)" fill="#f6ddc7"/><path d="M6.82,42.16c0-.23.06-.47.08-.7S7,41,7,40.75c.2-1.44,0-3,.14-4.35.3,1.62,0,3.23,0,4.86,0,.23,0,.45-.08.68a5.79,5.79,0,0,1-.13.68C6.9,42.47,6.86,42.31,6.82,42.16Z" transform="translate(0.72)" fill="#f6ddc7"/><path d="M43.4,61.4c0,1.1,0,2.34-.14,3.41a8.8,8.8,0,0,0-.23,1.7c-.07,1.74.17,3.55-.64,5.24,0-1.92.35-3.84.5-5.74,0-.48.06-1,.07-1.43,0-1,0-2.08.07-3.18Z" transform="translate(0.72)" fill="#f6ddc7"/><path d="M30,35.39q-.21,3.47-.12,6.81c0,.57,0,1.13,0,1.7l0,1.7-.25.21c0-.58,0-1.16,0-1.74s0-1.15,0-1.73c0-2.17.07-4.64,0-6.94Z" transform="translate(0.72)" fill="#f6ddc7"/><path d="M40.78,53.16c-.28-1.81,0-3.66-.33-5.47l0-1.83a14.34,14.34,0,0,0-.22-3.77c1,1,0,2.46.45,3.67l0,1.8A48.62,48.62,0,0,0,41,52.93Z" transform="translate(0.72)" fill="#f6ddc7"/><path d="M19,41.36c-.28-1.81,0-3.66-.33-5.47l0-1.83a14.34,14.34,0,0,0-.22-3.77c1,1,0,2.47.46,3.67l0,1.8a46.34,46.34,0,0,0,.28,5.37Z" transform="translate(0.72)" fill="#f6ddc7"/><path d="M17.29,59.48c-.28-1.81,0-3.66-.33-5.47l0-1.83a14.34,14.34,0,0,0-.22-3.77c1,1-.05,2.47.45,3.67l0,1.8a48.62,48.62,0,0,0,.29,5.37Z" transform="translate(0.72)" fill="#f6ddc7"/><path d="M6.54,57q.11-3.68.19-7.35c0-.61,0-1.22,0-1.83.42-.62-.6-1.25.23-1.86,0,1.44,0,2.67,0,4l0,2Q6.94,55,6.89,58Z" transform="translate(0.72)" fill="#f6ddc7"/><path d="M31.24,76.87c0,2.11.81,4.38.65,6.43l0,1.57,0,1.57h-.24l0-1.54,0-1.54c0-2.11-.59-4.18-.6-6.28Z" transform="translate(0.72)" fill="#f6ddc7"/><path d="M9.65,70.13c-.13,2.1.47,4.43.13,6.46,0,.52-.1,1-.15,1.57l-.15,1.56-.24,0,.15-1.53.15-1.53c.16-2.11-.25-4.21-.09-6.3Z" transform="translate(0.72)" fill="#f6ddc7"/><path d="M12.53,48.63c0-1.7.07-3.4.09-5.11,0-.57,0-1.13,0-1.7.09.44.17.88.22,1.32a21,21,0,0,1-.2,6.45C12.6,49.27,12.57,49,12.53,48.63Z" transform="translate(0.72)" fill="#f6ddc7"/><path d="M11.22,65.09c.31-3-.25-6.29.43-9.37.15,3.09-.12,6.38-.19,9.37Z" transform="translate(0.72)" fill="#f6ddc7"/><path d="M40.78,72.24c-.06,3.14-.11,6.28-.17,9.41h-.24q.08-4.64.17-9.26Z" transform="translate(0.72)" fill="#f6ddc7"/><path d="M30.44,29.41c0-.47,0-1,0-1.44s0-1-.05-1.49c-.17-1.84.08-3.9-.11-5.75a54.45,54.45,0,0,1,.31,6.37c0,.52,0,1,0,1.57s0,1,0,1.57C30.51,30,30.47,29.68,30.44,29.41Z" transform="translate(0.72)" fill="#f6ddc7"/><path d="M29.58,20.74c-.3-3.09-1-6.26.33-9.23a34,34,0,0,0-.13,9.11Z" transform="translate(0.72)" fill="#f6ddc7"/><path d="M30.7,54.55c.12-2.91.23-5.83.35-8.74l.43.57L31,55Z" transform="translate(0.72)" fill="#f6ddc7"/><path d="M27.82,51.86c.05,1.72,0,3.16,0,4.81q0,.8,0,1.59a17.34,17.34,0,0,1-.34,3.14c.09-1,.1-2,.09-3,0-.5,0-1,0-1.49a43.09,43.09,0,0,1-.12-4.54Z" transform="translate(0.72)" fill="#f6ddc7"/><path d="M24.53,22.06c0,.45,0,.91,0,1.36l0,1.34c0,1.79.07,3.58.1,5.38l-.46.7-.06-5.43c0-.45,0-.9,0-1.36l0-1.36C24.26,22.48,24.39,22.27,24.53,22.06Z" transform="translate(0.72)" fill="#f6ddc7"/><path d="M31,55.94c.26,3.33.82,6.42.78,9.7,0,.51,0,1,0,1.56-.06,2.63-.11,5.35-.15,7.92.21-2.57,0-5.29,0-7.91,0-.53,0-1,0-1.56.24-3.29-.73-6.39-1-9.72Z" transform="translate(0.72)" fill="#f6ddc7"/><path d="M29.51,75.11a42.88,42.88,0,0,1,.38-5.51,15.77,15.77,0,0,1,.41-1.85c-.08.62-.15,1.22-.23,1.82A31.56,31.56,0,0,0,29.68,75Z" transform="translate(0.72)" fill="#f6ddc7"/><path d="M18.79,65.23a42.91,42.91,0,0,1,.39-5.51,18,18,0,0,1,.4-1.85c-.07.62-.15,1.22-.22,1.82a32.53,32.53,0,0,0-.4,5.45Z" transform="translate(0.72)" fill="#f6ddc7"/><path d="M5.71,88.47A42.73,42.73,0,0,1,6.09,83a15.34,15.34,0,0,1,.41-1.85c-.08.62-.15,1.22-.23,1.82a32.46,32.46,0,0,0-.39,5.45Z" transform="translate(0.72)" fill="#f6ddc7"/><path d="M32.94,45.29c.25,1.29.64,2.53.86,3.69a8.15,8.15,0,0,1,.12,1.85,5.87,5.87,0,0,1-.43,1.93,16.36,16.36,0,0,0,.08-1.85c0-.62,0-1.23-.1-1.85a34.79,34.79,0,0,0-.71-3.72Z" transform="translate(0.72)" fill="#f6ddc7"/><path d="M45.14,82.92c0-.63,0-1.25,0-1.87s0-1.24,0-1.86c.2-1.23-.39-2.47.25-3.7,0,1.24-.05,2.47,0,3.63,0,.62,0,1.24,0,1.86l0,1.86Z" transform="translate(0.72)" fill="#f6ddc7"/><path d="M3.82,85.84c0-.62,0-1.24,0-1.86s0-1.24,0-1.86c.21-1.23-.39-2.47.25-3.7,0,1.24,0,2.47,0,3.63l0,1.86c0,.62,0,1.24,0,1.86Z" transform="translate(0.72)" fill="#f6ddc7"/><path d="M26.11,39.17c0-.63,0-1.25,0-1.87s0-1.25,0-1.88l0-3.74.28-.07c0,1.88-.07,3.75-.1,5.63l0,1.87Z" transform="translate(0.72)" fill="#f6ddc7"/><path d="M37.73,64.1c-.16,1.31.06,2.53-.1,3.89,0,.64,0,1.28-.09,1.91a12.53,12.53,0,0,1-.31,1.85c0-.63.08-1.26.1-1.87s0-1.22.05-1.83a22,22,0,0,0,.16-3.81A1.33,1.33,0,0,1,37.73,64.1Z" transform="translate(0.72)" fill="#f6ddc7"/><path d="M5,33a32.72,32.72,0,0,1,.31-5.62,15.65,15.65,0,0,1,.39-1.85c-.07.62-.13,1.24-.19,1.85a33.16,33.16,0,0,0-.31,5.51Z" transform="translate(0.72)" fill="#f6ddc7"/><path d="M5.37,48.57c-.08,2.47-.15,5-.55,18.6C4.94,53.51,5,51,5,48.54Z" transform="translate(0.72)" fill="#f6ddc7"/><path d="M19.41,69.82c-.31,2.46.46,5.15-.2,7.61.25-2.47-.11-4.94,0-7.51Z" transform="translate(0.72)" fill="#f6ddc7"/><path d="M21.64,36.2c0,.62,0,1.24,0,1.86s0,1.24,0,1.85c-.3,1.21.3,2.45-.55,3.67A22.93,22.93,0,0,0,21.36,40c0-.61,0-1.23,0-1.85s0-1.23,0-1.85Z" transform="translate(0.72)" fill="#f6ddc7"/><path d="M20.78,78.11q0,3.72-.05,7.43l-.28.08c0-2.47.09-4.94.13-7.41Z" transform="translate(0.72)" fill="#f6ddc7"/><path d="M27.13,69.57c-.08-.69.28-1.3.17-1.92a26,26,0,0,1-.08,5.14,5.34,5.34,0,0,1-.07-1.51C27.14,70.75,27.14,70.19,27.13,69.57Z" transform="translate(0.72)" fill="#f6ddc7"/><path d="M3.66,70.12c-.07-.69.28-1.3.18-1.92a26.08,26.08,0,0,1-.09,5.15,5.42,5.42,0,0,1-.07-1.52C3.67,71.3,3.67,70.74,3.66,70.12Z" transform="translate(0.72)" fill="#f6ddc7"/><path d="M18.72,48c-.09-1,.32-2,.2-2.89a50.29,50.29,0,0,1-.12,7.76,10.14,10.14,0,0,1-.07-2.29C18.72,49.82,18.72,49,18.72,48Z" transform="translate(0.72)" fill="#f6ddc7"/><path d="M41,37.87c-.15-.69.48-1.3.28-1.92a14.61,14.61,0,0,1-.09,5.15,3.09,3.09,0,0,1-.14-1.52C41,39.05,41,38.49,41,37.87Z" transform="translate(0.72)" fill="#f6ddc7"/><path d="M15.49,34.21c.41-2.06,0-4.33,1.31-6.37a52,52,0,0,0-1.09,6.37Z" transform="translate(0.72)" fill="#f6ddc7"/><path d="M33,62.67c.09-1.86.16-3.34.24-4.83.05,1,.15,2,.13,3,0,1.51-.11,3.08-.18,4.63C33.08,64.63,33,63.75,33,62.67Z" transform="translate(0.72)" fill="#f6ddc7"/><path d="M38.17,72.87,38.53,71c0,1,.1,2.11.07,3.12a16.54,16.54,0,0,1-.28,2C38.27,75.13,38.23,74.12,38.17,72.87Z" transform="translate(0.72)" fill="#f6ddc7"/><path d="M16,62.35c0,1.5-.05,3-.08,4.51l0,1.51h-.21c0-.51,0-1,0-1.51l.09-4.52Z" transform="translate(0.72)" fill="#f6ddc7"/><path d="M18.55,79.09c-.18-.64.45-1.25.25-1.87a21.15,21.15,0,0,1-.3,5.14c0-.62,0-1,0-1.55S18.55,79.71,18.55,79.09Z" transform="translate(0.72)" fill="#f6ddc7"/><path d="M35.58,26.41c-.62,1.41-.45,3.06-1,4.51-.09.48-.19.95-.3,1.42a14.07,14.07,0,0,1,.09-1.43,29.65,29.65,0,0,1,1-4.51Z" transform="translate(0.72)" fill="#f6ddc7"/><path d="M12.65,79.33A10.06,10.06,0,0,0,13.07,76c.59,1.65-.27,3.49-.81,5.2C12.4,80.65,12.53,80.05,12.65,79.33Z" transform="translate(0.72)" fill="#f6ddc7"/><path d="M20.54,26.31c.14-.72.24-1.3.35-1.9,0,.53.05,1.05.07,1.58s0,1,0,1.54a16.27,16.27,0,0,1-.28,2C20.64,28.56,20.6,27.56,20.54,26.31Z" transform="translate(0.72)" fill="#f6ddc7"/><path d="M16,42.18c.14-1.19.26-2.18.37-3.17,0,.88,0,1.76.05,2.63s0,1.74,0,2.58c0,1.2-.2,2.27-.31,3.4C16,45.94,16,44.27,16,42.18Z" transform="translate(0.72)" fill="#f6ddc7"/><path d="M23.83,2.42l0,1.51,0,1.51c-.17,1,.64,2.28-.41,3.09a6.9,6.9,0,0,0,.2-3.09c0-.51,0-1,0-1.51l0-1.51Z" transform="translate(0.72)" fill="#f6ddc7"/><path d="M44,83.94c0-.62.1-1.21.16-1.81.06.63.16,1.19.17,1.9a13.6,13.6,0,0,1-.19,1.61C44.09,85.08,44.05,84.52,44,83.94Z" transform="translate(0.72)" fill="#f6ddc7"/><path d="M38.79,79.45a13.22,13.22,0,0,1-.12-1.67,17.38,17.38,0,0,1,.25-1.8c0,.62.09,1.26.07,1.83A16.34,16.34,0,0,1,38.79,79.45Z" transform="translate(0.72)" fill="#f6ddc7"/><path d="M22.37,13.25c-.52-1.24-.09-2.27-.06-3.5a7.2,7.2,0,0,0,.13,1.89C22.45,12.22,22.4,12.72,22.37,13.25Z" transform="translate(0.72)" fill="#f6ddc7"/><path d="M26.84,29.35c-.38-1,0-1.84-.14-2.87A3.52,3.52,0,0,1,27,27.55C27,27.88,26.89,28.72,26.84,29.35Z" transform="translate(0.72)" fill="#f6ddc7"/><path d="M5.69,77.47a8.74,8.74,0,0,1,0-3.42,7.6,7.6,0,0,1,.18,1.79A10.59,10.59,0,0,1,5.69,77.47Z" transform="translate(0.72)" fill="#f6ddc7"/><path d="M30,81.29a8,8,0,0,1,0-3.42,6.37,6.37,0,0,1,.21,1.79A9.57,9.57,0,0,1,30,81.29Z" transform="translate(0.72)" fill="#f6ddc7"/><path d="M24.79,5.05c0,.63.11,1.48.07,1.8a3.3,3.3,0,0,1-.31,1c0-.66,0-1.37,0-2A2.75,2.75,0,0,1,24.79,5.05Z" transform="translate(0.72)" fill="#f6ddc7"/><path d="M25.48,22.18a6.36,6.36,0,0,1,.29-1.68,13.31,13.31,0,0,1-.17,3.55C25.56,23.43,25.52,22.82,25.48,22.18Z" transform="translate(0.72)" fill="#f6ddc7"/><path d="M19.83,21.84a6.22,6.22,0,0,1,.28-1.68,13.25,13.25,0,0,1-.17,3.54C19.91,23.09,19.87,22.47,19.83,21.84Z" transform="translate(0.72)" fill="#f6ddc7"/><path d="M32.26,2.74c-.16,1,.24,1.79-.19,2.81a15.82,15.82,0,0,0,0-2A2.82,2.82,0,0,1,32.26,2.74Z" transform="translate(0.72)" fill="#f6ddc7"/><path d="M39.84,32.1c.19-.1-1-.74.18-.64C40,31.68,39.89,31.9,39.84,32.1Z" transform="translate(0.72)" fill="#f6ddc7"/><path d="M24.65,75.93c0-.65-.34-2.85.26-1.38.2,0-.05,2.93-.2,4.09Z" transform="translate(0.72)" fill="#f6ddc7"/><path d="M28.91,29c0-.25,0-.56,0-.71a1.55,1.55,0,0,1,.11-.36l0,1.46C29,29.24,28.94,29.11,28.91,29Z" transform="translate(0.72)" fill="#f6ddc7"/><path d="M-.47,75.34a4,4,0,0,1-.25-.84s.2.21.3.14C-.44,74.88-.45,75.12-.47,75.34Z" transform="translate(0.72)" fill="#f6ddc7"/><path d="M49.33,30.11c0-.25,0-.56,0-.71a2,2,0,0,1,.11-.36l0,1.46C49.4,30.37,49.36,30.24,49.33,30.11Z" transform="translate(0.72)" fill="#f6ddc7"/><path d="M39.76,69.21c0-.59.24-1.09.24-1.59A29.3,29.3,0,0,1,39.82,71C39.79,70.43,39.78,69.82,39.76,69.21Z" transform="translate(0.72)" fill="#f6ddc7"/><path d="M5.36,69.81a9.25,9.25,0,0,1,.1-3.21c0,1.7,0,2.83,0,4.3C5.42,70.54,5.39,70.18,5.36,69.81Z" transform="translate(0.72)" fill="#f6ddc7"/><path d="M10.11,67.23c0-.24,0-.55.07-.69s.07,0,.11,0L10.2,68Z" transform="translate(0.72)" fill="#f6ddc7"/><path d="M29.84,63.54c0-.78.06-1.8.09-2.25s.07,0,.11,0C30,62.87,30,64.44,29.9,66Z" transform="translate(0.72)" fill="#f6ddc7"/><path d="M25.15,46.44c0-.24,0-.55.07-.69s.07,0,.11,0l-.09,1.44Z" transform="translate(0.72)" fill="#f6ddc7"/><path d="M18.48,67.18l-.36,1.2c.07-.76.14-1.52.22-2.28C18.38,66.46,18.43,66.82,18.48,67.18Z" transform="translate(0.72)" fill="#f6ddc7"/><path d="M3.8,59.33c-.08.74-.16,1.48-.25,2.22l.18-4.21C3.75,58,3.78,58.67,3.8,59.33Z" transform="translate(0.72)" fill="#f6ddc7"/><path d="M8.32,65.59c0-.24,0-.56,0-.71a1.11,1.11,0,0,1,.11-.35c0,.49,0,1,0,1.46Z" transform="translate(0.72)" fill="#f6ddc7"/><path d="M42.33,57.71c.06-.31.09-.72.13-1.14a14.65,14.65,0,0,0-.08,1.54C42.36,58,42.34,57.85,42.33,57.71Z" transform="translate(0.72)" fill="#f6ddc7"/><path d="M7,62.13c0-.51,0-1.17,0-1.48a4.92,4.92,0,0,1,.12-.74l-.06,3Z" transform="translate(0.72)" fill="#f6ddc7"/><path d="M41.29,25.09a5.85,5.85,0,0,0,.19-1c0,.42-.14,1.06-.17,1.44C41.3,25.36,41.3,25.23,41.29,25.09Z" transform="translate(0.72)" fill="#f6ddc7"/><path d="M8.42,71.52a21,21,0,0,1-.08-3.93c.15,1.41.07,3.51.27,5.26C8.54,72.41,8.48,72,8.42,71.52Z" transform="translate(0.72)" fill="#f6ddc7"/><path d="M46.61,39.45c0,.77.09,1.53.13,2.29-.1-.4-.21-.8-.31-1.2Z" transform="translate(0.72)" fill="#f6ddc7"/><path d="M18.14,97.13s-.09.08-.11,0,0-.47,0-.72l.21.06C18.19,96.67,18.16,96.91,18.14,97.13Z" transform="translate(0.72)" fill="#f6ddc7"/><path d="M39.23,22.27c0-.16.17-.57.17-.78a5.29,5.29,0,0,1-.18,1.57C39.22,22.79,39.23,22.53,39.23,22.27Z" transform="translate(0.72)" fill="#f6ddc7"/><path d="M7.64,89.28a3.75,3.75,0,0,1-.09-1.14,6.72,6.72,0,0,1,.25,1.55C7.75,89.55,7.69,89.42,7.64,89.28Z" transform="translate(0.72)" fill="#f6ddc7"/><path d="M27.35,21.52a3.85,3.85,0,0,1,.08,1.06c0-.21-.2-.21-.22-.35S27.3,21.76,27.35,21.52Z" transform="translate(0.72)" fill="#f6ddc7"/><path d="M17.66,22.65c.08,0-.12,0-.12,0a1.62,1.62,0,0,1,.31-.73C17.78,22.18,17.72,22.42,17.66,22.65Z" transform="translate(0.72)" fill="#f6ddc7"/><path d="M47.91,91.43a2.23,2.23,0,0,1,.1.41c0,.16,0,.46,0,.71l-.2-.43Z" transform="translate(0.72)" fill="#f6ddc7"/><path d="M18.23,92.33s-.09.08-.11,0,0-.47,0-.72l.22.06C18.27,91.87,18.25,92.11,18.23,92.33Z" transform="translate(0.72)" fill="#f6ddc7"/><path d="M24.56,15.54a2.57,2.57,0,0,1-.08-.82s.21.21.14.12Z" transform="translate(0.72)" fill="#f6ddc7"/><path d="M21.5,15.19a5.31,5.31,0,0,0,.11-1.13c0,.42,0,1,0,1.53C21.55,15.45,21.52,15.32,21.5,15.19Z" transform="translate(0.72)" fill="#f6ddc7"/><path d="M13.08,14a5.28,5.28,0,0,1,.06,1.2c0-.2-.2-.21-.16-.5S13.05,14.22,13.08,14Z" transform="translate(0.72)" fill="#f6ddc7"/><path d="M7.78,85.37c.08-.16.29-.37.3-.57a11.79,11.79,0,0,0-.4,1.27C7.71,85.84,7.74,85.6,7.78,85.37Z" transform="translate(0.72)" fill="#f6ddc7"/><path d="M49.78,82.92c0-.24,0-.56,0-.71a1,1,0,0,1,.11-.35l0,1.45C49.84,83.18,49.81,83.05,49.78,82.92Z" transform="translate(0.72)" fill="#f6ddc7"/><path d="M8.76,81.32l-1,1.2c.43-.76.84-1.52,1.2-2.28C8.93,80.6,8.85,81,8.76,81.32Z" transform="translate(0.72)" fill="#f6ddc7"/><path d="M28.26,38c0,.43.06.69.07,1.35s0,1.55,0,2.35l-.17-1.39C28.17,39.58,28.21,38.81,28.26,38Z" transform="translate(0.72)" fill="#f6ddc7"/><path d="M20.7,34.75s-.09.08-.1,0a6.73,6.73,0,0,1,0-.72l.21.06C20.75,34.29,20.72,34.53,20.7,34.75Z" transform="translate(0.72)" fill="#f6ddc7"/><path d="M17.16,34.71s-.08.08-.1,0A6.73,6.73,0,0,1,17,34l.21.06C17.21,34.25,17.18,34.49,17.16,34.71Z" transform="translate(0.72)" fill="#f6ddc7"/><path d="M6.69,34.14c-.07-.3.14-.5.14-.71,0,.41,0,1,0,1.47C6.78,34.65,6.73,34.39,6.69,34.14Z" transform="translate(0.72)" fill="#f6ddc7"/><path d="M26.58,3.62s-.08.08-.1,0a6.73,6.73,0,0,1,0-.72l.21.06C26.63,3.16,26.6,3.4,26.58,3.62Z" transform="translate(0.72)" fill="#f6ddc7"/><path d="M25.75,3.4c0-.24,0-.56,0-.71a1.27,1.27,0,0,1,.12-.35c0,.49,0,1,0,1.46Z" transform="translate(0.72)" fill="#f6ddc7"/></g></g><path d="M25.24,3h.49l.2,0h0a6.55,6.55,0,0,1,5.59,8.46,20.45,20.45,0,0,0-.48,4.55v2.51c0,9.09,9.05,9.29,13.06,9.74a3.35,3.35,0,0,1,2.38,1,3.42,3.42,0,0,1,.92,1.7,3.82,3.82,0,0,1,.06.68V80.55a3.38,3.38,0,0,1-.08.72,1.66,1.66,0,0,1-.06.21,3.57,3.57,0,0,1-.16.46c0,.07-.08.14-.12.22a2.85,2.85,0,0,1-.23.37l-.16.2c-.1.11-.19.21-.3.31l-.08.09,0,0a3.32,3.32,0,0,1-2.2.84H6.36A3.37,3.37,0,0,1,3,80.55V31.66a3.34,3.34,0,0,1,.84-2.2l0,0,.09-.08c.09-.1.2-.2.31-.3l.2-.16a2.85,2.85,0,0,1,.37-.23L5,28.6a4,4,0,0,1,.45-.16,1.8,1.8,0,0,1,.22-.06,3.36,3.36,0,0,1,.71-.08l.79-.08L8,28.13h.12L8.9,28l.27,0,.88-.13.11,0L11,27.7l.28-.06c.31-.06.62-.13.92-.21l.13,0c.28-.07.56-.16.84-.25l.29-.1c.3-.11.61-.23.9-.36l.11-.05c.27-.13.53-.26.78-.41l.26-.14a8.87,8.87,0,0,0,.81-.55l.09-.07a8.25,8.25,0,0,0,3-6.9V16.05a19.88,19.88,0,0,0-.49-4.55,6.63,6.63,0,0,1-.28-2.19,6.5,6.5,0,0,1,1.75-4.18h0l0,0A7,7,0,0,1,21,4.6l.29-.26A7.82,7.82,0,0,1,22,3.91a3.21,3.21,0,0,1,.31-.19A7.52,7.52,0,0,1,23,3.4l.31-.12A5.88,5.88,0,0,1,24.53,3h0l.21,0h.49M25,12.51a3.17,3.17,0,0,0,2.39-5.27l-.22-.18A1.59,1.59,0,0,0,27,6.91a1.78,1.78,0,0,0-.3-.17,1.51,1.51,0,0,0-.22-.11c-.12,0-.25-.08-.37-.12l-.2,0a3.14,3.14,0,0,0-3.8,3.11,3.1,3.1,0,0,0,.07.62c0,.07,0,.14.05.21s.07.25.12.37a1.51,1.51,0,0,0,.11.22,2.11,2.11,0,0,0,.16.3c.05.08.11.14.16.21l.18.23a3.2,3.2,0,0,0,2.08.78m2.67-5a3.2,3.2,0,0,0-.25-.27,3.2,3.2,0,0,1,.25.27m.36.54a2.33,2.33,0,0,0-.2-.34,2.33,2.33,0,0,1,.2.34m.13.24c.05.12.09.26.13.39,0-.13-.08-.27-.13-.39v0m.24.92a1.83,1.83,0,0,1,0,.33,1.83,1.83,0,0,0,0-.33c0-.11,0-.22-.05-.33,0,.11,0,.22.05.33M23,11.84l.19.16L23,11.84l-.09-.09.09.09m.39.33h0l.15.1.18.09-.18-.09-.15-.1h0m.55.31h0a2.7,2.7,0,0,0,.4.14,2.7,2.7,0,0,1-.4-.14h0m1.07.27h0a2.22,2.22,0,0,1-.45-.07,2.22,2.22,0,0,0,.45.07M25.24,0h-.71l-.3,0A10.32,10.32,0,0,0,22.49.4L22,.59A9.7,9.7,0,0,0,20.9,1a5.55,5.55,0,0,0-.48.29h0l-.06,0a8,8,0,0,0-.91.59c-.15.11-.29.24-.43.36L19,2.37a8.89,8.89,0,0,0-.68.63l-.12.12-.11.13a9.51,9.51,0,0,0-2,9,17.3,17.3,0,0,1,.39,3.79v2.51c0,2.75-1.07,3.91-1.87,4.54l-.1.09c-.14.1-.3.2-.5.32l-.17.1a6.09,6.09,0,0,1-.56.29l-.12.06c-.18.08-.39.16-.65.25l-.22.08-.69.21-.1,0-.78.19-.24.05-.75.13H9.62L8.79,25l-.25,0-.74.09H7.71l-.85.08-.69.07A5.86,5.86,0,0,0,5,25.45a3,3,0,0,0-.45.12,5.14,5.14,0,0,0-.81.3,2.63,2.63,0,0,0-.41.21,6.66,6.66,0,0,0-.73.45l-.35.28a5.83,5.83,0,0,0-.5.48,2.27,2.27,0,0,0-.26.27,3.55,3.55,0,0,0-.23.31A6.35,6.35,0,0,0,0,31.66V80.55a6.38,6.38,0,0,0,6.36,6.37H44.11a6.35,6.35,0,0,0,3.79-1.27,3.55,3.55,0,0,0,.31-.23,2.27,2.27,0,0,0,.27-.26,5.32,5.32,0,0,0,.46-.48c.11-.14.21-.25.3-.38a5.36,5.36,0,0,0,.44-.7,3.51,3.51,0,0,0,.22-.43,4.8,4.8,0,0,0,.3-.81c0-.15.09-.3.13-.45a7.06,7.06,0,0,0,.14-1.36V31.66a6.85,6.85,0,0,0-.12-1.28A6.38,6.38,0,0,0,44.3,25.3l-.81-.08c-6.26-.62-9.44-1.82-9.44-6.66V16.05a17.3,17.3,0,0,1,.39-3.79A9.6,9.6,0,0,0,26.26.05l-.32,0h-.7Zm-.13,9.46,0,0,0,0Z" transform="translate(0.72)" fill="#924f28"/></g></g></g></g></g></svg>