<svg xmlns="http://www.w3.org/2000/svg" width="42.6" height="43.04" viewBox="0 0 42.6 43.04">
  <g id="Layer_2" data-name="Layer 2">
    <g id="Layer_1-2" data-name="Layer 1">
      <g id="Squirrel_food_4" data-name="Squirrel_food 4">
        <path d="M36.19,6.93S42,14.24,41.07,41.61H31.72l-2.41-10Z" fill="#b78d5f"/>
        <path d="M12.45,6.85c-6,10.26-6.64,22.8-7.06,34.76H31.72C30.65,26,36.19,6.93,36.19,6.93Z" fill="#e0c08d"/>
        <path d="M12.81,2.24a1,1,0,0,1,.35-.55,1,1,0,0,1,.78-.05c1.35.33,2.6,1.28,4,1.15.84-.09,1.61-.56,2.44-.61,1.1-.05,2.13.64,3.23.66,1.29,0,2.44-.91,3.73-1s2.41.49,3.63.7c2,.34,4-.37,5.83-1.07a37.63,37.63,0,0,1-.6,5.49L36,7a1.63,1.63,0,0,1-.31,0c-7.48-.08-15.15.21-22.62-.15-.16,0-.45.11-.57,0a18.71,18.71,0,0,0,0-1.9A3.9,3.9,0,0,1,12.81,2.24Z" fill="#b78d5f"/>
        <path d="M36.79,1.44a37.63,37.63,0,0,1-.6,5.49s-.07.22-.19.65l.19-.65S42,14.24,41.07,41.61H5.39c.42-12,1-24.5,7.06-34.76a18.71,18.71,0,0,0,0-1.9,3.9,3.9,0,0,1,.36-2.71,1,1,0,0,1,.35-.55.76.76,0,0,1,.39-.1,1.74,1.74,0,0,1,.39,0C15.2,2,16.38,2.8,17.66,2.8h.27c.84-.09,1.61-.56,2.44-.61h.13c1.05,0,2,.64,3.1.66h0c1.29,0,2.42-.91,3.7-1l.33,0a20.52,20.52,0,0,1,3.3.72,6.2,6.2,0,0,0,1,.09,14.19,14.19,0,0,0,4.78-1.16m0-1.44a1.43,1.43,0,0,0-.5.09A13,13,0,0,1,32,1.16a5.1,5.1,0,0,1-.8-.06C30.85,1,30.47.92,30.07.81A8.46,8.46,0,0,0,27.66.36a3.62,3.62,0,0,0-.47,0A7.64,7.64,0,0,0,25.07,1a4.42,4.42,0,0,1-1.44.41,4.2,4.2,0,0,1-1.13-.26,6.63,6.63,0,0,0-2-.4h-.2a6,6,0,0,0-1.66.38,5.51,5.51,0,0,1-.85.23h-.13A4.75,4.75,0,0,1,16,.85a11.44,11.44,0,0,0-1.68-.6,3.35,3.35,0,0,0-.73-.1,2.11,2.11,0,0,0-1.17.34,2.4,2.4,0,0,0-.92,1.27L11.37,2A4.94,4.94,0,0,0,11,5.24a4,4,0,0,1,0,1,2.45,2.45,0,0,1,0,.27C4.81,17.24,4.36,30.15,4,41.56a1.4,1.4,0,0,0,.41,1,1.43,1.43,0,0,0,1,.44H41.07a1.44,1.44,0,0,0,1.44-1.39c.79-23.79-3.47-32.8-4.81-35a38.3,38.3,0,0,0,.53-5.12A1.44,1.44,0,0,0,36.79,0Zm0,2.87h0Z" fill="#8e6642"/>
        <g>
          <path d="M27,22.15a7,7,0,0,0-2.5-3.2l-.19-.15a2.77,2.77,0,0,1-1-.95,2.73,2.73,0,0,1-.17-.91c0-.15,0-.3,0-.46A5.25,5.25,0,0,0,19.34,12a7.52,7.52,0,0,1-1.29-.48,3.25,3.25,0,0,0-1.36-.31h0a2.57,2.57,0,0,0-1.56.5,3.6,3.6,0,0,0-1.22,3.57,7.8,7.8,0,0,0,1.57,3.12l.18.25A7.18,7.18,0,0,1,17,22.06a4.43,4.43,0,0,0,.46,1.46,6.87,6.87,0,0,0,1.75,2.07,7.28,7.28,0,0,0,3.25,1.74,4.88,4.88,0,0,0,.93.09,3.91,3.91,0,0,0,2.83-1.1A4.1,4.1,0,0,0,27,22.15Z" fill="#fce2b4" stroke="#8e6642" stroke-miterlimit="10" stroke-width="1.44"/>
          <path d="M16.14,11.3a3.79,3.79,0,0,0-.58,2.92,7.63,7.63,0,0,0,1.56,3.13l.19.25A7.16,7.16,0,0,1,18.65,21a4.43,4.43,0,0,0,.46,1.46,7,7,0,0,0,1.75,2.07,7.2,7.2,0,0,0,3.25,1.73,4.23,4.23,0,0,0,.94.1,4.36,4.36,0,0,0,1.26-.18" fill="none" stroke="#8e6642" stroke-linecap="round" stroke-linejoin="round" stroke-width="1.44"/>
        </g>
        <g>
          <g>
            <g>
              <path d="M17.21,42a11.17,11.17,0,0,1-4-.83A9.6,9.6,0,0,1,10,39.28a5.59,5.59,0,0,1-1.24-1.65,10.4,10.4,0,0,0-3.46-3.94l-.37-.25A10.7,10.7,0,0,1,1.47,30.1a4.81,4.81,0,0,1-.08-5.05A3.71,3.71,0,0,1,4.5,23.51a3.55,3.55,0,0,1,.46,0,10.12,10.12,0,0,0,1.1.05c.3,0,.6,0,.89,0l.54,0a7.23,7.23,0,0,1,2.95.63,7.08,7.08,0,0,1,3.48,3.35c.1.19.18.38.27.58a4.07,4.07,0,0,0,.69,1.2,4.36,4.36,0,0,0,1.82.88l.32.1a9.5,9.5,0,0,1,4.71,3A5.5,5.5,0,0,1,22.59,39a5.58,5.58,0,0,1-4.34,3A7.17,7.17,0,0,1,17.21,42Z" fill="#fada9d"/>
              <path d="M4.5,24.23l.39,0a11.46,11.46,0,0,0,1.17.06c.32,0,.63,0,1,0h.48a6.43,6.43,0,0,1,5.79,3.58,7.33,7.33,0,0,0,1.08,2A5.76,5.76,0,0,0,16.8,31a8.82,8.82,0,0,1,4.36,2.77,4.86,4.86,0,0,1,.78,4.92,4.87,4.87,0,0,1-3.79,2.56,6,6,0,0,1-.94.07,10.64,10.64,0,0,1-3.72-.79,9,9,0,0,1-3-1.74,5.12,5.12,0,0,1-1.09-1.44,11.15,11.15,0,0,0-3.7-4.22l-.37-.25a9.94,9.94,0,0,1-3.25-3.1A4.14,4.14,0,0,1,2,25.45,3,3,0,0,1,4.5,24.23m0-1.44h0A4.4,4.4,0,0,0,.8,24.65a5.55,5.55,0,0,0,0,5.81A11.31,11.31,0,0,0,4.54,34l.36.24A9.54,9.54,0,0,1,8.12,38a6.7,6.7,0,0,0,1.4,1.85,10.22,10.22,0,0,0,3.45,2,11.92,11.92,0,0,0,4.24.88,7.12,7.12,0,0,0,1.14-.08,6.3,6.3,0,0,0,4.89-3.37,6.24,6.24,0,0,0-.95-6.42,10.16,10.16,0,0,0-5.05-3.24l-.33-.11a3.8,3.8,0,0,1-1.51-.69,3.29,3.29,0,0,1-.55-1l-.28-.6a7.89,7.89,0,0,0-7.08-4.38l-.59,0c-.29,0-.57,0-.84,0a8.47,8.47,0,0,1-1-.06,4.89,4.89,0,0,0-.54,0Z" fill="#6a3417"/>
            </g>
            <path d="M18.63,36.2a1.22,1.22,0,0,0-.88.57,1.66,1.66,0,0,0-.56,1.4,1.42,1.42,0,0,0,.91.81c.43.17,2.16.63,2.39.11a.14.14,0,0,0,0-.07c.13-.73-.71-1.89-1.17-2.39l-.1-.11A1,1,0,0,0,18.63,36.2Z" fill="#db9b53"/>
            <path d="M13.74,39.94a2.37,2.37,0,0,1-1.07-.8,1,1,0,0,1,1-1.54,2.6,2.6,0,0,1,1,.45c.46.3,2.56,1.65,2,2.34S14.27,40.18,13.74,39.94Z" fill="#db9b53"/>
            <path d="M14.4,36.66a1.49,1.49,0,0,1-.8-1.26,2.24,2.24,0,0,1,.91-1.46,1.75,1.75,0,0,1,1.12-.59,1.71,1.71,0,0,1,.85.4,1.92,1.92,0,0,1,.77.83,1.5,1.5,0,0,1-.33,1.35c-.24.32-.67,1-1.07,1.13A2.32,2.32,0,0,1,14.4,36.66Z" fill="#db9b53"/>
            <path d="M18.19,34.17a4.66,4.66,0,0,1-.85-1.08.67.67,0,0,1-.06-.58.5.5,0,0,1,.43-.22,1.15,1.15,0,0,1,.48.13,4.59,4.59,0,0,1,2.14,2,2.12,2.12,0,0,1,.3,1c0,.78-.42.82-.9.36S18.7,34.7,18.19,34.17Z" fill="#db9b53"/>
            <path d="M9.21,33.69a.79.79,0,0,0-.8.5c-.13.4.15.8.4,1.13L9.89,36.7c.26.33.58,1,1,1.14a.6.6,0,0,0,.73-.18.37.37,0,0,0,.05-.11c.14-.37-.17-.88-.33-1.19L10.62,35a3.66,3.66,0,0,0-.54-.86l0,0A1.25,1.25,0,0,0,9.21,33.69Z" fill="#db9b53"/>
            <path d="M11,33.62a1.94,1.94,0,0,1-.37-.78,1.75,1.75,0,0,1,.34-1,1.78,1.78,0,0,1,.82-.87,1.22,1.22,0,0,1,.82,0,3.47,3.47,0,0,1,.72.42,2.11,2.11,0,0,1,.45.39.67.67,0,0,1,.17.55,1.16,1.16,0,0,1-.24.45,9.06,9.06,0,0,1-1.48,1.82C11.69,35,11.25,34,11,33.62Z" fill="#db9b53"/>
            <path d="M14.45,31.37a.61.61,0,0,1-.2-.19.24.24,0,0,1,0-.27c.08-.13.27-.1.42-.06l1.23.32a1.22,1.22,0,0,1,.8.47.62.62,0,0,1-.7.87C15.47,32.38,14.87,31.69,14.45,31.37Z" fill="#db9b53"/>
            <path d="M7.54,31.48a1.61,1.61,0,0,1-.48-.66,1.59,1.59,0,0,1,.53-1.38,2.08,2.08,0,0,1,1.21-.87,1.49,1.49,0,0,1,.83.16,6.8,6.8,0,0,1,1,.57c.26.16.54.37.56.67s-.21.54-.43.74l-1,.87a3.68,3.68,0,0,1-.91.81C8.39,32.59,7.86,31.77,7.54,31.48Z" fill="#db9b53"/>
            <path d="M10.84,28.16a5.56,5.56,0,0,1-.58-.41.92.92,0,0,1-.3-.63.72.72,0,0,1,.41-.6,1,1,0,0,1,.75,0,2.55,2.55,0,0,1,1.27,1.37l.71,1.32c.14.26.3.62,0,.86a.54.54,0,0,1-.75,0,4.4,4.4,0,0,1-.51-.83A4,4,0,0,0,10.84,28.16Z" fill="#db9b53"/>
            <path d="M4.59,29.73a.72.72,0,0,0-.67.73,1.43,1.43,0,0,0,.72.94l1.4,1c.26.19.68.63,1,.35a.27.27,0,0,0,.07-.08c.24-.49-1.26-1.92-1.54-2.27-.08-.09-.16-.19-.25-.28A1.07,1.07,0,0,0,4.59,29.73Z" fill="#db9b53"/>
            <path d="M5,28.32a1.41,1.41,0,0,1,.28-1.1,4.27,4.27,0,0,1,.84-.86,3.4,3.4,0,0,1,1.27-.81,1.36,1.36,0,0,1,1.37.35,1.3,1.3,0,0,1,.15,1.42,2.9,2.9,0,0,1-.83.88c-.45.37-1.12,1.15-1.71,1.15A1.58,1.58,0,0,1,5,28.32Z" fill="#db9b53"/>
            <path d="M3.52,25.71a.65.65,0,0,0-.85.08,1.52,1.52,0,0,0-.36.85,4.48,4.48,0,0,0,.18,2.15c.07.2.2.71.48.73a.32.32,0,0,0,.3-.17,1.61,1.61,0,0,0,.17-.64c.09-.7.18-1.4.26-2.11a1,1,0,0,0-.14-.85A.08.08,0,0,0,3.52,25.71Z" fill="#db9b53"/>
            <path d="M4.91,24.85a1.13,1.13,0,0,1,.68-.17l.92,0c.12,0,.27,0,.32.12s-.06.25-.17.34c-.34.26-1.09,1-1.54.94S4.57,25.13,4.91,24.85Z" fill="#db9b53"/>
          </g>
          <g>
            <path d="M30.8,42.16c-3.49,0-6.22-1.81-6.35-4.22s2.67-4.73,6.39-4.93h.5c.34,0,.66,0,1,0l.26,0,.1,0a5.86,5.86,0,0,1,.73.13l.36.09.66.21.36.14a5.43,5.43,0,0,1,.59.3l.29.16a6.14,6.14,0,0,1,.64.46l.13.11a4.78,4.78,0,0,1,.6.67,1.22,1.22,0,0,1,.12.19l0,0c1,.09,1.15.73,1.17,1a2.12,2.12,0,0,1-.72,1.47,3.23,3.23,0,0,1-.25.76c-.87,1.85-3.25,3.14-6.05,3.29Z" fill="#cf743d"/>
            <path d="M31.35,33.72a8.77,8.77,0,0,1,.9,0l.33.05c.23,0,.45.07.67.12l.36.09c.2,0,.39.12.57.18l.33.13c.18.08.36.17.52.26l.26.15a4.56,4.56,0,0,1,.55.4l.11.09a3,3,0,0,1,.51.56l.11.18a3.12,3.12,0,0,1,.2.35h.15c.38,0,.71.07.72.36A1.66,1.66,0,0,1,37,37.73s0,.05,0,.08a2.83,2.83,0,0,1-.23.75h0c-.73,1.54-2.86,2.73-5.44,2.87h-.5c-3.05,0-5.52-1.52-5.63-3.54s2.44-4,5.71-4.17h.47m0-1.44h-.2l-.35,0a9.2,9.2,0,0,0-4.89,1.62A4.77,4.77,0,0,0,23.74,38c.15,2.79,3.18,4.9,7.06,4.9l.58,0c3.06-.16,5.68-1.61,6.66-3.69a4.09,4.09,0,0,0,.26-.72,2.73,2.73,0,0,0,.78-1.86A1.8,1.8,0,0,0,37.62,35h0a4.77,4.77,0,0,0-.7-.79L36.74,34a6.23,6.23,0,0,0-.68-.5l-.26-.15-.07,0c-.24-.13-.44-.24-.65-.33l-.4-.15a7,7,0,0,0-.69-.22,3.74,3.74,0,0,0-.42-.11c-.23-.05-.48-.1-.79-.14l-.1,0-.29,0c-.37,0-.71,0-1,0Z" fill="#6a3417"/>
          </g>
        </g>
      </g>
    </g>
  </g>
</svg>
