<svg xmlns="http://www.w3.org/2000/svg" width="42.39" height="42.56" viewBox="0 0 42.39 42.56">
  <g id="Layer_2" data-name="Layer 2">
    <g id="Layer_1-2" data-name="Layer 1">
      <g id="Squirrel_toy_2" data-name="Squirrel_toy 2">
        <g>
          <g>
            <g>
              <g>
                <path d="M10.81,41.83l-1.75-.22a.76.76,0,0,1-.57-.44H8.21l-.2,0a2.61,2.61,0,0,1-.42-.1.64.64,0,0,0-.2-.05.9.9,0,0,1-.21-.08l0,.06a1,1,0,0,1-.61.22,1.32,1.32,0,0,1-.47-.1c-.36-.13-.71-.28-1.06-.42a1,1,0,0,1-.51-.39,1.13,1.13,0,0,1-.17-.56v-.16a1.16,1.16,0,0,1-.58-.77,1.19,1.19,0,0,1,0-.41,20.26,20.26,0,0,1,.47-3.16,9.14,9.14,0,0,1,.79-2l.11-.18A2.56,2.56,0,0,1,7.24,31.6a2.25,2.25,0,0,1,.38,0h.14a1.73,1.73,0,0,1,.76.16,2.27,2.27,0,0,1,.94,1,8,8,0,0,1,.65,1.35,11.93,11.93,0,0,1,1.15,3.41,20.56,20.56,0,0,1,.24,2.17l.11,1.38a.72.72,0,0,1-.72.78Z" fill="#ffdeae"/>
                <path d="M7.24,32.32h0l.31,0h.18a1,1,0,0,1,.45.1,1.72,1.72,0,0,1,.64.67,9.38,9.38,0,0,1,.59,1.24,11.25,11.25,0,0,1,1.11,3.28,21.08,21.08,0,0,1,.24,2.1c0,.47.07.93.1,1.39L9.16,40.9l-.09-.53v.05H9l-.82,0H8.13c-.3-.06-.31-.11-.61-.16-.08-.61.05-4.47-.09-5.76-.07.6-.52,5.15-.68,5.73a.31.31,0,0,1-.09.17.19.19,0,0,1-.14.05.59.59,0,0,1-.22-.05l-1-.41a.41.41,0,0,1-.19-.13.38.38,0,0,1,0-.19c0-.34,0-.68,0-1l-.12.4c-.2-.09-.42-.2-.47-.42a.74.74,0,0,1,0-.21,18.16,18.16,0,0,1,.45-3,7.79,7.79,0,0,1,.72-1.81,1,1,0,0,1,.08-.14,2,2,0,0,1,1.56-1.15m0-1.44a3.26,3.26,0,0,0-2.79,1.84l-.11.2a9.27,9.27,0,0,0-.85,2.14A19.94,19.94,0,0,0,3,38.32,2.19,2.19,0,0,0,3,39a1.81,1.81,0,0,0,.58,1,1.63,1.63,0,0,0,.27.75,1.75,1.75,0,0,0,.83.65l1.08.43a2,2,0,0,0,.73.15,1.59,1.59,0,0,0,.8-.21l0,0a4.33,4.33,0,0,0,.52.13l.25,0a1.44,1.44,0,0,0,.84.42l1.75.23h.17a1.44,1.44,0,0,0,1-.4A1.46,1.46,0,0,0,12.33,41l-.11-1.39c-.06-.73-.12-1.48-.25-2.24a13.11,13.11,0,0,0-1.22-3.62,9.82,9.82,0,0,0-.67-1.38,3,3,0,0,0-1.24-1.23,2.44,2.44,0,0,0-1.08-.24H7.65a2.22,2.22,0,0,0-.37,0Z" fill="#7c3505"/>
              </g>
              <g>
                <rect x="6.25" y="2.39" width="3.24" height="30.44" rx="0.84" fill="#ffdeae"/>
                <path d="M8.65,3.22V32H7.09V3.22H8.65m0-1.67H7.09A1.67,1.67,0,0,0,5.42,3.22V32a1.67,1.67,0,0,0,1.67,1.67H8.65A1.67,1.67,0,0,0,10.32,32V3.22A1.67,1.67,0,0,0,8.65,1.55Z" fill="#7c3505"/>
              </g>
              <g>
                <path d="M7.55,6.47a2.09,2.09,0,0,1-1.64-.78A1.77,1.77,0,0,1,5.5,4.56a1.49,1.49,0,0,1-.34-.75.34.34,0,0,1,0-.1,3.31,3.31,0,0,1,0-.7.5.5,0,0,1,0-.12V2.81A2.48,2.48,0,0,1,7.8.72a2.71,2.71,0,0,1,2,.79,3.1,3.1,0,0,1,.83,2.2,2.34,2.34,0,0,1,.05,1.87,1,1,0,0,1-.85.58,1.27,1.27,0,0,1-.71.22,1.31,1.31,0,0,1-.59-.14A2,2,0,0,1,7.55,6.47Z" fill="#e0a070"/>
                <path d="M7.8,1.44c1,0,2.1.7,2.07,2.46.25.36.39,1.55-.18,1.55a.45.45,0,0,1-.18,0,.5.5,0,0,1-.44.25.51.51,0,0,1-.52-.38,1.27,1.27,0,0,1-1,.47,1.26,1.26,0,0,1-1.3-1.52.63.63,0,0,1-.38-.55h0a2.22,2.22,0,0,1,0-.63h0s0-.1,0-.14A1.8,1.8,0,0,1,7.8,1.44M7.8,0h0A3.2,3.2,0,0,0,4.46,2.75v0a1.1,1.1,0,0,0,0,.18,4,4,0,0,0,0,.84s0,.09,0,.14a2.58,2.58,0,0,0,.34.89,2.55,2.55,0,0,0,.56,1.32,2.83,2.83,0,0,0,2.2,1A2.69,2.69,0,0,0,8.49,7a2.25,2.25,0,0,0,.58.08,2,2,0,0,0,1-.25,1.76,1.76,0,0,0,1.24-.94,3,3,0,0,0,0-2.35,3.8,3.8,0,0,0-1-2.55A3.41,3.41,0,0,0,7.8,0Z" fill="#7c3505"/>
              </g>
              <g>
                <path d="M7.05,35.55a2.76,2.76,0,0,1-2.16-1,2.38,2.38,0,0,1-.53-1.6,2.67,2.67,0,0,1-.52-2.11,2.22,2.22,0,0,1,.65-1.63,2.54,2.54,0,0,1,1.82-.82,1.94,1.94,0,0,1,1.08.31,6.26,6.26,0,0,1,.92-.07c2.2,0,2.7,1.62,2.86,3.26a3.19,3.19,0,0,1,.13,2.55,1.21,1.21,0,0,1-1.08.68,1.46,1.46,0,0,1-.93.32,1.48,1.48,0,0,1-.86-.26A2.64,2.64,0,0,1,7.05,35.55Z" fill="#e0a070"/>
                <path d="M6.31,29.08a1.26,1.26,0,0,1,.89.36,6,6,0,0,1,1.11-.12c1.51,0,2,.88,2.16,2.78.37.52.57,2.29-.26,2.29a.69.69,0,0,1-.26-.06.73.73,0,0,1-.66.37.77.77,0,0,1-.77-.56,1.87,1.87,0,0,1-1.47.69,1.87,1.87,0,0,1-1.93-2.24c-.64-.26-.61-1.14-.57-1.72h0a1.81,1.81,0,0,1,1.76-1.79m0-1.43A3.24,3.24,0,0,0,4,28.7a3,3,0,0,0-.86,2.14,3.65,3.65,0,0,0,.53,2.38A3,3,0,0,0,4.33,35a3.47,3.47,0,0,0,2.72,1.28A3.41,3.41,0,0,0,8.43,36a2.2,2.2,0,0,0,.86.17,2.17,2.17,0,0,0,1.18-.34,1.89,1.89,0,0,0,1.46-1,3.86,3.86,0,0,0-.06-3.07c-.13-1.27-.58-3.79-3.56-3.79a5.23,5.23,0,0,0-.77.05,2.75,2.75,0,0,0-1.23-.29Z" fill="#7c3505"/>
              </g>
            </g>
            <g>
              <g>
                <path d="M37.88,41.83l-1.74-.22a.74.74,0,0,1-.57-.44h-.28l-.2,0a2.61,2.61,0,0,1-.42-.1.64.64,0,0,0-.2-.05.66.66,0,0,1-.21-.08l0,0a.91.91,0,0,1-.62.23,1.37,1.37,0,0,1-.47-.1l-1.06-.42a1.08,1.08,0,0,1-.51-.39,1,1,0,0,1-.16-.56c0-.05,0-.11,0-.16a1.22,1.22,0,0,1-.58-.77,1.26,1.26,0,0,1,0-.43,18.35,18.35,0,0,1,.47-3.14,9.14,9.14,0,0,1,.79-2l.1-.17a2.57,2.57,0,0,1,2.17-1.48,2.05,2.05,0,0,1,.37,0h.14a1.77,1.77,0,0,1,.77.16,2.39,2.39,0,0,1,.94,1,8.89,8.89,0,0,1,.64,1.35,11.65,11.65,0,0,1,1.16,3.41c.13.73.18,1.46.24,2.17l.11,1.39a.76.76,0,0,1-.22.57.74.74,0,0,1-.5.2Z" fill="#ffdeae"/>
                <path d="M34.32,32.32h0a1.53,1.53,0,0,1,.3,0h.18a1.06,1.06,0,0,1,.46.1,1.69,1.69,0,0,1,.63.67,7.4,7.4,0,0,1,.59,1.24,11.27,11.27,0,0,1,1.12,3.28,21.06,21.06,0,0,1,.23,2.1c0,.47.07.93.11,1.39l-1.73-.22c0-.18-.07-.36-.1-.53v.05h0l-.82,0h-.08c-.31-.06-.32-.11-.62-.16-.07-.61,0-4.47-.08-5.76-.08.6-.52,5.15-.69,5.73a.31.31,0,0,1-.09.17.17.17,0,0,1-.14.05.54.54,0,0,1-.21-.05L32.33,40a.38.38,0,0,1-.18-.13.3.3,0,0,1,0-.19c0-.34,0-.68,0-1,0,.13-.07.27-.11.4-.2-.09-.43-.2-.47-.42a.74.74,0,0,1,0-.21,19.26,19.26,0,0,1,.45-3,8.26,8.26,0,0,1,.72-1.81l.08-.14a2,2,0,0,1,1.57-1.15m0-1.44a3.26,3.26,0,0,0-2.79,1.84c0,.05-.08.12-.12.2a10.32,10.32,0,0,0-.85,2.14,19.94,19.94,0,0,0-.49,3.26,2.2,2.2,0,0,0,0,.65,1.87,1.87,0,0,0,.58,1,1.9,1.9,0,0,0,.27.75,1.76,1.76,0,0,0,.84.65l1.07.43a2,2,0,0,0,.73.15,1.63,1.63,0,0,0,.81-.21l0,0a3.51,3.51,0,0,0,.52.13l.25,0a1.44,1.44,0,0,0,.83.42l1.75.23H38a1.42,1.42,0,0,0,1-.4A1.46,1.46,0,0,0,39.4,41l-.06-.73-.05-.66A20.19,20.19,0,0,0,39,37.38a12.48,12.48,0,0,0-1.22-3.62,8,8,0,0,0-.67-1.38,2.87,2.87,0,0,0-1.24-1.23,2.44,2.44,0,0,0-1.08-.24h-.1a2.31,2.31,0,0,0-.37,0Z" fill="#7c3505"/>
              </g>
              <g>
                <rect x="33.32" y="2.39" width="3.24" height="30.44" rx="0.84" fill="#ffdeae"/>
                <path d="M35.72,3.22V32H34.16V3.22h1.56m0-1.67H34.16a1.67,1.67,0,0,0-1.67,1.67V32a1.67,1.67,0,0,0,1.67,1.67h1.56A1.67,1.67,0,0,0,37.39,32V3.22a1.67,1.67,0,0,0-1.67-1.67Z" fill="#7c3505"/>
              </g>
              <g>
                <path d="M34.62,6.47A2.1,2.1,0,0,1,33,5.69a1.89,1.89,0,0,1-.41-1.13,1.48,1.48,0,0,1-.33-.75.28.28,0,0,1,0-.09,2.84,2.84,0,0,1,0-.71,1.33,1.33,0,0,1,0-.21A2.47,2.47,0,0,1,34.87.72a2.69,2.69,0,0,1,2,.79,3.1,3.1,0,0,1,.84,2.2,2.38,2.38,0,0,1,.05,1.87,1.06,1.06,0,0,1-.86.58,1.26,1.26,0,0,1-1.29.08A2,2,0,0,1,34.62,6.47Z" fill="#e0a070"/>
                <path d="M34.87,1.44c1,0,2.1.7,2.07,2.46.26.36.39,1.55-.17,1.55a.39.39,0,0,1-.18,0,.51.51,0,0,1-.45.25.51.51,0,0,1-.52-.38,1.31,1.31,0,0,1-2.3-1,.63.63,0,0,1-.38-.55h0a2.66,2.66,0,0,1,0-.63h0a.59.59,0,0,1,0-.14,1.79,1.79,0,0,1,1.91-1.49m0-1.44h0a3.2,3.2,0,0,0-3.34,2.75v0l0,.19a3.87,3.87,0,0,0,0,.83.78.78,0,0,0,0,.14,2.39,2.39,0,0,0,.34.89,2.53,2.53,0,0,0,.55,1.32,2.85,2.85,0,0,0,2.2,1,2.75,2.75,0,0,0,1-.16,2.12,2.12,0,0,0,.57.08,1.93,1.93,0,0,0,1-.25,1.8,1.8,0,0,0,1.25-.94,3,3,0,0,0,0-2.35,3.75,3.75,0,0,0-1-2.55,3.4,3.4,0,0,0-2.46-1Z" fill="#7c3505"/>
              </g>
              <g>
                <path d="M34.12,35.55a2.78,2.78,0,0,1-2.16-1,2.38,2.38,0,0,1-.53-1.6,2.71,2.71,0,0,1-.52-2.11,2.24,2.24,0,0,1,.66-1.63,2.52,2.52,0,0,1,1.81-.82,2,2,0,0,1,1.09.31,6.26,6.26,0,0,1,.92-.07c2.2,0,2.69,1.62,2.85,3.26a3.15,3.15,0,0,1,.13,2.55,1.19,1.19,0,0,1-1.08.68,1.44,1.44,0,0,1-.93.32,1.53,1.53,0,0,1-.86-.26A2.61,2.61,0,0,1,34.12,35.55Z" fill="#e0a070"/>
                <path d="M33.38,29.08a1.28,1.28,0,0,1,.9.36,6,6,0,0,1,1.11-.12c1.51,0,2,.88,2.15,2.78.38.52.57,2.29-.25,2.29a.74.74,0,0,1-.27-.06.72.72,0,0,1-.66.37.77.77,0,0,1-.76-.56,1.89,1.89,0,0,1-1.48.69,1.86,1.86,0,0,1-1.92-2.24c-.65-.26-.61-1.14-.57-1.72h0a1.81,1.81,0,0,1,1.75-1.79m0-1.43a3.2,3.2,0,0,0-2.33,1.05,3,3,0,0,0-.86,2.14,3.59,3.59,0,0,0,.53,2.38A3.1,3.1,0,0,0,31.4,35a3.49,3.49,0,0,0,2.72,1.28A3.41,3.41,0,0,0,35.5,36a2.27,2.27,0,0,0,.86.17,2.2,2.2,0,0,0,1.19-.34,1.91,1.91,0,0,0,1.46-1A3.9,3.9,0,0,0,39,31.68c-.13-1.27-.58-3.79-3.56-3.79a5.45,5.45,0,0,0-.78.05,2.72,2.72,0,0,0-1.23-.29Z" fill="#7c3505"/>
              </g>
            </g>
          </g>
          <g>
            <g>
              <path d="M2.44,30.49A1.66,1.66,0,0,1,.72,28.91v-1.3a1.54,1.54,0,0,1,.34-.95,1.59,1.59,0,0,1,.13-.13,1.08,1.08,0,0,1,.24-.2l1.36-1.15a3.19,3.19,0,0,1,2.26-1l16.15.18,16.13-.18a3.26,3.26,0,0,1,2.31,1.05L41,26.38a2.35,2.35,0,0,1,.22.19.66.66,0,0,1,.15.19,1.46,1.46,0,0,1,.27.85v1.3A1.66,1.66,0,0,1,40,30.49Z" fill="#e0a070"/>
              <path d="M37.34,24.88a2.54,2.54,0,0,1,1.8.84l1.42,1.21a.75.75,0,0,1,.17.14h0a.76.76,0,0,1,.21.52v1.3a1,1,0,0,1-1,.87H2.44a.94.94,0,0,1-1-.87v-1.3a.76.76,0,0,1,.21-.52h0a.54.54,0,0,1,.16-.14l1.24-1.05.18-.16a2.56,2.56,0,0,1,1.8-.84l16.15.17,14.94-.16h1.2m0-1.44h0l-1.21,0-14.94.16L5.06,23.44a3.93,3.93,0,0,0-2.77,1.22l-.14.12-1.2,1a2,2,0,0,0-.31.27l-.07.08h0A2.19,2.19,0,0,0,0,27.61v1.3a2.37,2.37,0,0,0,2.44,2.3H40a2.37,2.37,0,0,0,2.44-2.3v-1.3a2.24,2.24,0,0,0-.48-1.37,1.42,1.42,0,0,0-.2-.22,3,3,0,0,0-.27-.23L40.1,24.66a3.93,3.93,0,0,0-2.76-1.22Z" fill="#7c3505"/>
            </g>
            <g>
              <path d="M39.14,25.72a2.54,2.54,0,0,0-1.8-.84l-16.14.17L5.05,24.88a2.56,2.56,0,0,0-1.8.84L1.64,27.08c0,.52.28,1.69.88,1.69H39.87c.6,0,.88-1.17.88-1.69Z" fill="#d07a41"/>
              <path d="M40,26.74H2.44a.94.94,0,0,0-1,.87v1.3a.94.94,0,0,0,1,.87H40a1,1,0,0,0,1-.87v-1.3A1,1,0,0,0,40,26.74Z" fill="#ae6432"/>
            </g>
          </g>
        </g>
      </g>
    </g>
  </g>
</svg>
