<svg xmlns="http://www.w3.org/2000/svg" width="42.51" height="43.09" viewBox="0 0 42.51 43.09">
  <g id="Layer_2" data-name="Layer 2">
    <g id="Layer_1-2" data-name="Layer 1">
      <g id="Squirrel_clean_1" data-name="Squirrel_clean 1">
        <g id="clean_1" data-name="clean 1">
          <g>
            <path d="M22.38,6.42,23.67,10l-2.23.81L20.1,7.12l.28,0a7.64,7.64,0,0,0,1.27-.33,4.75,4.75,0,0,0,.73-.32m0-1.43a1.41,1.41,0,0,0-.69.17,2.91,2.91,0,0,1-.51.22,6.69,6.69,0,0,1-1.06.28l-.24,0a1.43,1.43,0,0,0-1.12,1.91l1.33,3.66a1.42,1.42,0,0,0,1.84.86l2.23-.81A1.43,1.43,0,0,0,25,9.48L23.73,5.93a1.47,1.47,0,0,0-.84-.85A1.52,1.52,0,0,0,22.38,5Z" fill="#c3bf4f"/>
            <path d="M30.81,14.42a5.33,5.33,0,0,1,4.79,3h0l.19.51.78,2.14.27.76,2.88,7.9,1,2.78a5.32,5.32,0,0,1-3.17,6.82l-8.29,3a5.28,5.28,0,0,1-6.81-3.17l-.72-2L19,28.58l-.28-.76-1-2.65-.22-.6a5.33,5.33,0,0,1,2.4-6.46h0a5.57,5.57,0,0,1,.78-.35l8.28-3,.24-.08a5.41,5.41,0,0,1,1.58-.24m0-1.44h0a6.86,6.86,0,0,0-2,.31l-.3.1-8.28,3a6.1,6.1,0,0,0-1,.44h0a6.71,6.71,0,0,0-3.05,8.2l.22.61,1,2.64.27.76,2.77,7.62.72,2a6.74,6.74,0,0,0,8.65,4l8.29-3a6.75,6.75,0,0,0,4-8.66l-1-2.78-2.88-7.9-.27-.76-.78-2.14L37,16.92a1.41,1.41,0,0,0-.22-.4A6.79,6.79,0,0,0,30.81,13Z" fill="#c3bf4f"/>
            <path d="M22.38,6.42,23.67,10l-2.23.81L20.1,7.12l.28,0a7.64,7.64,0,0,0,1.27-.33A4.75,4.75,0,0,0,22.38,6.42Z" fill="#9be3bb"/>
            <g>
              <path d="M28.93,14.14a2.25,2.25,0,0,1,.12,1l-.21.07-7.68,2.79a7.89,7.89,0,0,0-.72.33h0a2.23,2.23,0,0,1-.63-.93,2.26,2.26,0,0,1,.89-2.67,2.47,2.47,0,0,1,.46-.23L26,12.79a2,2,0,0,1,.58-.13A2.27,2.27,0,0,1,28.93,14.14Z" fill="#9be3bb"/>
              <path d="M26.42,10.58l.3.81a1.52,1.52,0,0,1-.11,1.27,2,2,0,0,0-.58.13l-4.87,1.77a2.47,2.47,0,0,0-.46.23,1.5,1.5,0,0,1-.87-.89l-.3-.82a1.51,1.51,0,0,1,.9-1.93l4.06-1.48A1.51,1.51,0,0,1,26.42,10.58Z" fill="#f1f2b6"/>
            </g>
            <path d="M25,9.58a1.5,1.5,0,0,1,1.41,1l.3.81a1.52,1.52,0,0,1-.11,1.27h.19a2.27,2.27,0,0,1,2.25,2.54l-.21.07-7.68,2.79a7.89,7.89,0,0,0-.72.33h0a2.23,2.23,0,0,1-.63-.93,2.26,2.26,0,0,1,.89-2.67,1.5,1.5,0,0,1-.87-.89l-.3-.82a1.51,1.51,0,0,1,.9-1.93l4.06-1.48A1.54,1.54,0,0,1,25,9.58m0-1.43h0a3.1,3.1,0,0,0-1,.17L19.94,9.8a3,3,0,0,0-1.76,3.78l.3.81a2.65,2.65,0,0,0,.23.48,3.7,3.7,0,0,0,.78,4.59,1.41,1.41,0,0,0,1,.36,1.61,1.61,0,0,0,.48-.08l.22-.1a4,4,0,0,1,.51-.24l7.68-2.79.17-.06a1.44,1.44,0,0,0,1-1.19,3.71,3.71,0,0,0-2.26-3.86,2.93,2.93,0,0,0-.15-.6l-.3-.81A3,3,0,0,0,25,8.15Z" fill="#c3bf4f"/>
            <g>
              <path d="M8.24,13.24a1.88,1.88,0,0,1-.34,0,2.12,2.12,0,0,1-1.74-1.16,2,2,0,0,1,.21-2,12.5,12.5,0,0,1,9.52-5.16,8.6,8.6,0,0,0,2.73-.57,7.59,7.59,0,0,0,2.51-1.62,8.38,8.38,0,0,1,1.54-1.23A4.73,4.73,0,0,1,25.09.72a3,3,0,0,1,.52,0,2,2,0,0,1,1.51,1.05,1.9,1.9,0,0,1,0,1.75,7.51,7.51,0,0,1-3.41,3,12.46,12.46,0,0,1-1.29.54,18,18,0,0,1-2.19.62l-.48.11-1.6.31-1.74.34a14.7,14.7,0,0,0-4,1.39,2.41,2.41,0,0,0-1.11,1.16,3.4,3.4,0,0,1-2.45,2.13A2.76,2.76,0,0,1,8.24,13.24Z" fill="#c3bf4f"/>
              <path d="M25.09,1.44a2.69,2.69,0,0,1,.4,0,1.18,1.18,0,0,1,1,1.77,6.79,6.79,0,0,1-3.08,2.69,11.75,11.75,0,0,1-1.22.52A19.43,19.43,0,0,1,20,7l-.46.1c-1.11.24-2.24.42-3.35.66A15.28,15.28,0,0,0,12,9.26a3.11,3.11,0,0,0-1.43,1.54,2.72,2.72,0,0,1-1.92,1.68,2.18,2.18,0,0,1-.44,0H8a1.28,1.28,0,0,1-1-2.07A11.75,11.75,0,0,1,15.91,5.6a9.38,9.38,0,0,0,3-.62l.08,0A8.22,8.22,0,0,0,21.63,3.2,8.42,8.42,0,0,1,23,2.07a4.13,4.13,0,0,1,2.05-.63m0-1.44h0A5.5,5.5,0,0,0,22.3.84a9.74,9.74,0,0,0-1.67,1.33,6.92,6.92,0,0,1-2.2,1.44L18.9,5l-.52-1.34a7.44,7.44,0,0,1-2.52.53A13.3,13.3,0,0,0,5.77,9.65a2.76,2.76,0,0,0-.26,2.71,2.85,2.85,0,0,0,2.31,1.58l.41,0A4.4,4.4,0,0,0,9,13.89a4.13,4.13,0,0,0,3-2.6,1.7,1.7,0,0,1,.78-.77,13.6,13.6,0,0,1,3.8-1.31c.58-.13,1.15-.24,1.73-.35l1.62-.31.48-.11a19.36,19.36,0,0,0,2.27-.64A13,13,0,0,0,24,7.22a8.29,8.29,0,0,0,3.72-3.33,2.61,2.61,0,0,0,0-2.4,2.74,2.74,0,0,0-2-1.44,4.37,4.37,0,0,0-.64,0Z" fill="#928e31"/>
            </g>
            <g>
              <path d="M36.86,20.82,40.75,31.5a5.32,5.32,0,0,1-3.17,6.82l-8.29,3a5.3,5.3,0,0,1-6.81-3.17L19,28.58l1.21-.31.32-.08.3-.09c.54-.15,1.08-.3,1.62-.47l1.26-.41.21-.07.45-.15.08,0,.59-.21A57.73,57.73,0,0,0,36.86,20.82Z" fill="#f1f2b6"/>
              <path d="M35.81,17.92l.78,2.14A57.3,57.3,0,0,1,24.75,26l-.59.21-.08,0-.45.15-.21.07c-.42.15-.84.28-1.26.41s-1.07.33-1.61.48l-.31.08-.32.09c-.4.1-.8.21-1.21.3l-1.18-3.25a5.33,5.33,0,0,1,2.4-6.46h0a5.57,5.57,0,0,1,.78-.35l8.28-3,.24-.08A5.32,5.32,0,0,1,35.81,17.92Z" fill="#f1f2b6"/>
              <path d="M35.62,17.41l4.12,11.31a26.87,26.87,0,0,1-2.37,2A27.34,27.34,0,0,1,21.76,36.2l-4-11,1.21-.3.32-.09.3-.08q.81-.22,1.62-.48c.42-.13.84-.26,1.26-.41l.21-.07.45-.15.08,0,.59-.21A57.23,57.23,0,0,0,35.62,17.41Z" fill="#9be3bb"/>
            </g>
            <path d="M29.13,31.67a1.07,1.07,0,1,0,.12-1.53A1.11,1.11,0,0,0,29.13,31.67Z" fill="#9be3bb"/>
            <g>
              <path d="M34.51,28.64c-.12-.19-.27-.36-.37-.56a3.3,3.3,0,0,1-.3-.43c-.21-.29-.4-.58-.6-.88a1.81,1.81,0,0,1-.25-.3c-.06-.07-.11-.16-.2-.2l0,0-.16-.08.16.08a1.61,1.61,0,0,0-.39-.39,2.93,2.93,0,0,0-.77-.48.13.13,0,0,1-.09-.06,1.7,1.7,0,0,1-.49-.18s-.07,0-.1,0a4.06,4.06,0,0,0-2,.08c.09.12.18.24.26.37a3.17,3.17,0,0,1,.21.41c0,.11.07.22.1.33,0-.11-.06-.22-.1-.33a3.17,3.17,0,0,0-.21-.41c-.08-.13-.17-.25-.26-.37a2.61,2.61,0,0,1-.5-.81,4.09,4.09,0,0,1-.07-.6s0,0,0,0,0,0,0,0c0-.27-.18-.35-.4-.21a.84.84,0,0,0-.35.53c0,.16-.09.33-.13.5,0,0,0,0,0,0v0l-.06-.11c-.11-.25-.32-.28-.51-.08a.85.85,0,0,0-.18.37,2.05,2.05,0,0,0,.14,1.4,2.4,2.4,0,0,0,.34.55,2.4,2.4,0,0,1-.34-.55,4.33,4.33,0,0,0-.91.85s0,0-.05,0a1.14,1.14,0,0,1-.18.3c0,.05,0,.12-.1.15-.08.21-.2.4-.27.61a4.15,4.15,0,0,0-.14.61.28.28,0,0,0,0,.09l.06-.11-.06.11v0a2.74,2.74,0,0,0-.07.5,1.48,1.48,0,0,1,0,.42s0,0,0,.07a6.71,6.71,0,0,0,.12.9,11,11,0,0,1,.24,1.51,1.18,1.18,0,0,0,.14.58h0a1.44,1.44,0,0,0,.19.31A2.59,2.59,0,0,0,27.3,34a4.89,4.89,0,0,0,1.38.11l.11,0a6.29,6.29,0,0,0,1.35-.31l.53-.19a.14.14,0,0,1,.11,0,1.81,1.81,0,0,1,.54-.22s.07,0,.1-.05a4.86,4.86,0,0,0,.67-.25,6.4,6.4,0,0,0,1.3-.67l.16-.12a4.28,4.28,0,0,0,1.13-1.3c0-.14.12-.28.16-.42a1.93,1.93,0,0,0,.06-1.09A1.88,1.88,0,0,0,34.51,28.64Z" fill="#ed793e"/>
              <g>
                <g>
                  <path d="M25.34,26.6a1.81,1.81,0,0,0-.77-.29,1.09,1.09,0,0,0-1.11.56,1.79,1.79,0,0,0,.24,2,3.41,3.41,0,0,0,1.43.85,1.48,1.48,0,0,0,0-.42,2.74,2.74,0,0,1,.07-.5s0,0,0,0a.28.28,0,0,1,0-.09,4.15,4.15,0,0,1,.14-.61c.07-.21.19-.4.27-.61.06,0,.07-.1.1-.15a1.14,1.14,0,0,0,.18-.3A2.61,2.61,0,0,0,25.34,26.6Z" fill="#ac462c"/>
                  <polygon points="25.18 28.77 25.18 28.77 25.18 28.77 25.18 28.77" fill="#ac462c"/>
                </g>
                <g>
                  <path d="M33.07,23.65a1.1,1.1,0,0,0-1.62.25A2.61,2.61,0,0,0,31,25.13a1.7,1.7,0,0,0,.49.18.13.13,0,0,0,.09.06,2.93,2.93,0,0,1,.77.48,1.76,1.76,0,0,1,.39.38s0,0,0,0,.14.13.2.2a1.81,1.81,0,0,0,.25.3,5.67,5.67,0,0,0,.49-1.06A1.78,1.78,0,0,0,33.07,23.65Z" fill="#ac462c"/>
                  <polygon points="32.75 26.23 32.75 26.23 32.75 26.23 32.75 26.23" fill="#ac462c"/>
                </g>
              </g>
              <g>
                <path d="M32.1,30.68c-.09,0-.11.06-.11.14a.82.82,0,0,1-.27.67.86.86,0,0,1-1.2-.09l-.06-.07h0a1.32,1.32,0,0,0,.5-.76c.11-.34,0-.51-.38-.49a2.43,2.43,0,0,0-1.14.36c-.39.24-.39.44,0,.71l.09.06a1.17,1.17,0,0,0,.76.19h0a.28.28,0,0,0,0,.09.84.84,0,0,1-.86.84.8.8,0,0,1-.64-.33c-.05-.07-.1-.1-.17-.05a.13.13,0,0,0,0,.2.75.75,0,0,0,.15.16,1,1,0,0,0,.87.27,1.27,1.27,0,0,0,.91-.87,1.25,1.25,0,0,0,1.26.08,1,1,0,0,0,.49-.76.81.81,0,0,0,0-.22C32.23,30.72,32.19,30.67,32.1,30.68Z" fill="#58393a"/>
                <g>
                  <path d="M27.29,29.58a.88.88,0,0,0,.4,1.19.59.59,0,0,0,.84-.4.8.8,0,0,0,0-.51.88.88,0,0,0-.39-.5A.6.6,0,0,0,27.29,29.58Z" fill="#58393a"/>
                  <path d="M30.81,28.38a.9.9,0,0,0,.33,1,.61.61,0,0,0,1-.38.89.89,0,0,0,0-.51.75.75,0,0,0-.22-.35A.61.61,0,0,0,30.81,28.38Z" fill="#58393a"/>
                </g>
              </g>
              <path d="M32.36,23.4a1.18,1.18,0,0,1,.71.25,1.78,1.78,0,0,1,.66,2.06,5.67,5.67,0,0,1-.49,1.06c.2.3.39.59.6.88a3.3,3.3,0,0,0,.3.43c.1.2.25.37.37.56a1.88,1.88,0,0,1,.39.77,1.93,1.93,0,0,1-.06,1.09c0,.14-.11.28-.16.42a4.28,4.28,0,0,1-1.13,1.3l-.16.12a6.4,6.4,0,0,1-1.3.67,4.86,4.86,0,0,1-.67.25s-.08,0-.1.05a1.81,1.81,0,0,0-.54.22h0a.13.13,0,0,0-.08,0l-.53.19a6.29,6.29,0,0,1-1.35.31l-.11,0h-.3A4.31,4.31,0,0,1,27.3,34a2.59,2.59,0,0,1-1.47-.89,1.44,1.44,0,0,1-.19-.31h0a1.18,1.18,0,0,1-.14-.58,11,11,0,0,0-.24-1.51,6.71,6.71,0,0,1-.12-.9s0-.05,0-.07a3.41,3.41,0,0,1-1.43-.85,1.79,1.79,0,0,1-.24-2,1.08,1.08,0,0,1,1-.57h.15a1.81,1.81,0,0,1,.77.29,2.61,2.61,0,0,1,.52.41s0,0,.05,0a4.33,4.33,0,0,1,.91-.85,2.05,2.05,0,0,1-.14-1.4.85.85,0,0,1,.18-.37.34.34,0,0,1,.25-.13.3.3,0,0,1,.26.21l.06.11h0c0-.17.08-.34.13-.5a.84.84,0,0,1,.35-.53.32.32,0,0,1,.19-.07c.12,0,.2.1.21.28,0,0,0,0,0,0s0,0,0,0a4.09,4.09,0,0,0,.07.6,2.61,2.61,0,0,0,.5.81h0l.09.12a3.33,3.33,0,0,1,.38.66,3.33,3.33,0,0,0-.38-.66l-.09-.12A4.17,4.17,0,0,1,30.08,25a3.91,3.91,0,0,1,.83.09l.06,0,0,0a2.61,2.61,0,0,1,.44-1.23,1.13,1.13,0,0,1,.91-.5m0-1a2.1,2.1,0,0,0-1.69.9,3.14,3.14,0,0,0-.39.75h-.2a4.71,4.71,0,0,0-.74.06v0a.62.62,0,0,0,0-.13,1.84,1.84,0,0,0,0-.33h0s0-.05,0-.07v0a1.17,1.17,0,0,0-1.15-1.05,1.27,1.27,0,0,0-.69.21,1.67,1.67,0,0,0-.57.59,1.4,1.4,0,0,0-.7.41,1.7,1.7,0,0,0-.41.8,3,3,0,0,0-.06,1.19,2.62,2.62,0,0,0-1-.34l-.25,0a2,2,0,0,0-1.8,1.08A2.72,2.72,0,0,0,23,29.5a3.71,3.71,0,0,0,1.25.88,4.8,4.8,0,0,0,.09.5,10,10,0,0,1,.21,1.37,2.53,2.53,0,0,0,.53,1.41,3.46,3.46,0,0,0,2,1.23,4.92,4.92,0,0,0,1.32.16h.33l.15,0h.05a7,7,0,0,0,1.56-.36l.15,0,.33-.12a1,1,0,0,0,.33-.13,1,1,0,0,1,.22-.1.8.8,0,0,0,.26-.09,3.25,3.25,0,0,0,.51-.19l.17-.07a7.39,7.39,0,0,0,1.48-.76l0,0,.16-.13a5.19,5.19,0,0,0,1.39-1.6.61.61,0,0,0,0-.12l0-.11a2.84,2.84,0,0,0,.13-.38,2.9,2.9,0,0,0,.09-1.54,2.57,2.57,0,0,0-.46-1l-.07-.11-.15-.22a1.24,1.24,0,0,1-.16-.24,1.24,1.24,0,0,0-.17-.23.67.67,0,0,1-.09-.14l-.12-.18-.27-.39a5.38,5.38,0,0,0,.28-.7,2.7,2.7,0,0,0-1-3.13,2.13,2.13,0,0,0-1.28-.44Z" fill="#928e31"/>
            </g>
          </g>
          <g>
            <path d="M7.38,31.55l-.49,0a4.28,4.28,0,0,1-3.23-2.36A3.66,3.66,0,0,1,3.8,25.5C7.24,19.83,7.69,17.71,7.65,17a.72.72,0,0,1,.71-.76.69.69,0,0,1,.52.22c1.39,1.44,4,8.28,2.68,11.9A4.42,4.42,0,0,1,7.38,31.55Z" fill="#f9f2e4"/>
            <path d="M8.36,16.91c1.34,1.38,3.7,7.89,2.52,11.15a3.7,3.7,0,0,1-3.5,2.77l-.42,0C5,30.62,3,28.14,4.42,25.87c3.25-5.37,4-7.81,3.94-9m0-1.44a1.46,1.46,0,0,0-.57.12A1.44,1.44,0,0,0,6.93,17c0,.43-.18,2.28-3.74,8.14A4.43,4.43,0,0,0,3,29.48a5,5,0,0,0,3.81,2.76l.56,0a5.09,5.09,0,0,0,4.85-3.72c1.45-4-1.27-11-2.83-12.64a1.43,1.43,0,0,0-1-.44Z" fill="#e8b19e"/>
          </g>
          <g>
            <path d="M3.14,19.1A2.34,2.34,0,0,1,.88,17.64a2.36,2.36,0,0,1,.25-2.19,2.13,2.13,0,0,1,1.8-1H3c.54,0,1,0,1.45,0a6.22,6.22,0,0,0,2.72-.33.76.76,0,0,1,.38-.11.71.71,0,0,1,.44.15.72.72,0,0,1,.25.78c-.32,1-2.61,3.75-4.6,4.06A3.23,3.23,0,0,1,3.14,19.1Z" fill="#f9f2e4"/>
            <path d="M7.58,14.79c-.27.86-2.41,3.31-4,3.56a3,3,0,0,1-.42,0,1.63,1.63,0,0,1-1.6-1,1.59,1.59,0,0,1,1.39-2.17H3l1.48,0a6.68,6.68,0,0,0,3.1-.43m0-1.44a1.44,1.44,0,0,0-.75.21,6.52,6.52,0,0,1-2.35.23c-.42,0-.89,0-1.42,0H2.93a2.84,2.84,0,0,0-2.4,1.3,3.11,3.11,0,0,0-.31,2.87,3.07,3.07,0,0,0,2.92,1.9,4.72,4.72,0,0,0,.64-.05C6,19.42,8.54,16.53,9,15.21a1.43,1.43,0,0,0-1.37-1.86Zm0,2.87h0Z" fill="#e8b19e"/>
          </g>
        </g>
      </g>
    </g>
  </g>
</svg>
