<svg xmlns="http://www.w3.org/2000/svg" xmlns:xlink="http://www.w3.org/1999/xlink" width="48.64" height="48.15" viewBox="0 0 48.64 48.15">
  <defs>
    <clipPath id="clip-path" transform="translate(5.88 5.77)">
      <path d="M31.84,30.15s-.2,5.57-7.21,8.91c-4.23,2-9.34,3.69-16-2.1-3.35,2-7,.63-3.82-4.23C.64,27.09-1.43,16.75,9.4,9c5.1-2.82,11.62.42,16.4,6.22C32.62,23.53,31.84,30.15,31.84,30.15Z" fill="none"/>
    </clipPath>
  </defs>
  <g id="Layer_2" data-name="Layer 2">
    <g id="Layer_1-2" data-name="Layer 1">
      <g id="Squirrel_food_3" data-name="Squirrel_food 3">
        <g>
          <path d="M17.16,1.44h.67a7.29,7.29,0,0,1,.79.08h0a16.52,16.52,0,0,1,5,1.65A26.09,26.09,0,0,1,30.35,8.3h0l.75.78c2.6-3.58,6.68-5.47,8.48-5.47a1.3,1.3,0,0,1,.69.16c1.22.85,1.5,2.4.17,2.75a3.83,3.83,0,0,0-.83-.08C36.87,6.43,34,9,32.51,10.7a40.55,40.55,0,0,1,3.55,5l0,0h0A32.48,32.48,0,0,1,39,21.93c.2.49.24.76.4,1.24h0a14.11,14.11,0,0,1,.55,5.33h0a7.39,7.39,0,0,1-.48,2h0c-.07.17-.15.34-.23.5a8,8,0,0,1-7,4.51,11.49,11.49,0,0,1-4.93-1.25C18.48,30.09,10.48,14.77,9.83,9.44a7,7,0,0,1,7.33-8M39.93,28.5h0M17.16,0h0a8.8,8.8,0,0,0-6.7,2.83A8.64,8.64,0,0,0,8.41,9.61c.74,6.13,9.14,21.63,18.22,25.93a13,13,0,0,0,5.55,1.38,9.36,9.36,0,0,0,8.31-5.31l.17-.36a2.12,2.12,0,0,0,.11-.21,8.56,8.56,0,0,0,.58-2.33,1.09,1.09,0,0,0,0-.18,15.32,15.32,0,0,0-.55-5.5,1.14,1.14,0,0,0-.07-.32l-.13-.44c-.07-.25-.15-.49-.28-.83a34.23,34.23,0,0,0-3-6.34L37.29,15a41.58,41.58,0,0,0-2.87-4.2c1.93-1.87,3.79-2.93,5.2-2.93a2.35,2.35,0,0,1,.54.06l.29,0a1.57,1.57,0,0,0,.37,0,2.49,2.49,0,0,0,1.9-2,3.5,3.5,0,0,0-1.63-3.34,2.6,2.6,0,0,0-1.5-.41C37.38,2.17,33.71,4,31,6.92a27.27,27.27,0,0,0-6.71-5A17.71,17.71,0,0,0,18.82.12a7.22,7.22,0,0,0-.9-.09H17.8l-.64,0Z" transform="translate(5.88 5.77)" fill="#3f1c0b"/>
          <g>
            <path d="M31.36,12.06s4.82-6.43,9.09-5.55c1.33-.35,1-1.9-.17-2.75s-7.6,1.7-10.3,7.16C29.6,12.64,30.87,12.89,31.36,12.06Z" transform="translate(5.88 5.77)" fill="#572406"/>
            <path d="M39.2,31s-3.26,7.37-12,3.26S10.48,14.77,9.83,9.44,14.26-1.51,23.66,3.19,42.88,23.91,39.2,31Z" transform="translate(5.88 5.77)" fill="#71350e"/>
          </g>
          <g>
            <g clip-path="url(#clip-path)">
              <path d="M31.84,30.15s-.2,5.57-7.21,8.91c-4.23,2-9.34,3.69-16-2.1-3.35,2-7,.63-3.82-4.23C.64,27.09-1.43,16.75,9.4,9c5.1-2.82,11.62.42,16.4,6.22C32.62,23.53,31.84,30.15,31.84,30.15Z" transform="translate(5.88 5.77)" fill="#a8662f"/>
              <path d="M27.69,19.61s-1.63,5.61-10.41,7.94C12,29,5.78,29.86-.35,23c-4.29,1.51-8.13-.44-3.25-4.88C-6.85,11.73-6.58.93,7.62-5.24c6.48-2.09,13,2.2,17,8.82C30.24,13,27.69,19.61,27.69,19.61Z" transform="translate(5.88 5.77)" fill="#f58b31"/>
            </g>
            <path d="M13.46,8c4.2,0,8.76,2.9,12.34,7.25,6.82,8.27,6,14.89,6,14.89s-.2,5.57-7.21,8.91a15.89,15.89,0,0,1-6.87,1.88c-2.7,0-5.73-1-9.17-4a5.8,5.8,0,0,1-2.87.89c-2.06,0-3.22-1.69-1-5.12C.64,27.09-1.43,16.75,9.4,9a8.26,8.26,0,0,1,4.06-1m0-1.44h0A9.69,9.69,0,0,0,8.7,7.79l-.14.08C3.79,11.27,1,15.42.21,20.19A17.92,17.92,0,0,0,3.06,32.78C1.75,35.13,2,36.66,2.48,37.56a3.51,3.51,0,0,0,3.24,1.72,6.74,6.74,0,0,0,2.68-.61c3.11,2.49,6.18,3.71,9.36,3.71a17.31,17.31,0,0,0,7.49-2c7.39-3.53,8-9.39,8-10.09s.52-7.58-6.36-15.92c-4.08-4.94-9-7.78-13.45-7.78Z" transform="translate(5.88 5.77)" fill="#603913"/>
          </g>
        </g>
      </g>
    </g>
  </g>
</svg>
