<svg xmlns="http://www.w3.org/2000/svg" xmlns:xlink="http://www.w3.org/1999/xlink" width="41.93" height="41.94" viewBox="0 0 41.93 41.94">
  <defs>
    <clipPath id="clip-path">
      <path d="M3.9,10.81c0,1.87,7.64,3.39,17.07,3.39S38,12.68,38,10.81,30.39,7.42,21,7.42,3.9,8.94,3.9,10.81Z" fill="none"/>
    </clipPath>
  </defs>
  <g style="isolation: isolate">
    <g id="Layer_2" data-name="Layer 2">
      <g id="Layer_1-2" data-name="Layer 1">
        <g id="Squirrel_clean_2" data-name="Squirrel_clean 2">
          <g>
            <g id="clean_4" data-name="clean 4">
              <path d="M21,6.75C31.75,6.75,40.5,8.66,40.5,11a1,1,0,0,1,0,.29l-.8,4.84L39.35,18l-.06.36,0,.24-.1.63,0,.3-.18,1-.05.38-.09.49-.07.42-1.1,6.7-.15.89-.22,1.39-.15.89-.16.93h0A6.1,6.1,0,0,1,35,36l-.47.41a15,15,0,0,1-4.4,2.47,3,3,0,0,1-.42.15,24.3,24.3,0,0,1-4.12,1.06l-.4.07a28.92,28.92,0,0,1-4,.34h-.59a31.53,31.53,0,0,1-3.83-.23l-.4-.06a24.42,24.42,0,0,1-4.1-.93l-.42-.13a14.79,14.79,0,0,1-4.36-2.29c-.17-.13-.32-.26-.47-.4a5.52,5.52,0,0,1-2.06-4v-.12l-.09-.59h0l-.15-.89-.22-1.39-.15-.89L3.22,21.87l-.07-.42L3.07,21,3,20.58l-.17-1,0-.3-.1-.63,0-.24-.09-.54-.28-1.68-.8-4.85a1,1,0,0,1,0-.28h0c0-2.35,8.74-4.26,19.53-4.26m0-1.44c-2.15,0-21,.16-21,5.7a2.39,2.39,0,0,0,.08.59l.79,4.78.28,1.69.08.53.05.26.1.61,0,.29.18,1.06,0,.36.09.51.07.42,1.1,6.68.15.9.22,1.38.14.84a.11.11,0,0,1,0,.05l.07.44v0A7,7,0,0,0,6,37.53c.15.14.34.3.54.46a16.15,16.15,0,0,0,4.79,2.52l.46.14a24.47,24.47,0,0,0,4.32,1l.41.06a34.29,34.29,0,0,0,4,.25h.69a30,30,0,0,0,4.14-.37l.23,0,.14,0h.06a25.83,25.83,0,0,0,4.33-1.12l.48-.17a16.23,16.23,0,0,0,4.8-2.71A6.94,6.94,0,0,0,36,37a7.56,7.56,0,0,0,2.34-4l0-.15L38.5,32l.15-.9.23-1.39.15-.89,1.1-6.69.07-.42.08-.5.06-.38.17-1,.05-.3.1-.63,0-.23.06-.37.31-1.86.78-4.76a2.16,2.16,0,0,0,.08-.6c0-5.55-18.82-5.71-21-5.71Z" fill="#6a3417"/>
            </g>
            <g id="clean_4-2" data-name="clean 4">
              <path d="M1.44,11l1.21,7.36,0,.24.1.63,0,.3.17,1,.06.38.08.49.07.42,1.11,6.69.15.89.22,1.39.15.89h0l.09.59v.12a5.52,5.52,0,0,0,2.06,4c.15.14.3.27.47.4a14.79,14.79,0,0,0,4.36,2.29l.42.13a24.42,24.42,0,0,0,4.1.93l.4.06a32.52,32.52,0,0,0,4,.23h.41a28.92,28.92,0,0,0,4-.34l.4-.07A24.3,24.3,0,0,0,29.71,39a3,3,0,0,0,.42-.15,15,15,0,0,0,4.4-2.47L35,36a6.1,6.1,0,0,0,1.93-3.32h0l.16-.93.15-.89.22-1.39.15-.89,1.1-6.7.07-.42.09-.49.05-.38.18-1,0-.3.1-.63,0-.24L40.5,11l-2.13.2-.51.06-5.25.49-.52.06-.81.07-4.39.41-.51.06-5.15.48-.26,0-.26,0-5.15-.48-.51-.06-5.21-.48-.52-.06-5.24-.49-.52-.06Z" fill="#c96833"/>
              <path d="M2.28,16.15,2.59,18c12.85,4.09,23.82,4.11,36.76,0l.3-1.86C26.39,20.57,15.46,20.55,2.28,16.15Z" fill="#ebaa50"/>
              <path d="M1.44,11c0,2.35,8.74,4.26,19.53,4.26S40.5,13.37,40.5,11,31.75,6.75,21,6.75,1.44,8.66,1.44,11Z" fill="#f4c37d"/>
              <g clip-path="url(#clip-path)">
                <path d="M35.83,9.14h0a16.74,16.74,0,0,0-1.9-.53h0c-.7-.16-1.48-.31-2.33-.45h-.1L30.66,8h0l-.91-.11h-.07l-.83-.09-.19,0-.85-.08h-.09l-1-.07-.2,0-.79,0h-.27l-.92,0h-.09l-1,0h-.28l-.79,0H21a65.47,65.47,0,0,0-12.07,1c-3.09.62-5,1.46-5,2.4h0a.69.69,0,0,0,0,.2.14.14,0,0,1,0,.06.61.61,0,0,0,.07.14.25.25,0,0,1,0,.07l.12.14s0,0,.05.05a1,1,0,0,0,.22.19l0,0a2.2,2.2,0,0,0,.25.17l.09.05.25.14.1.05.34.15,0,0,.46.18H6l.47.16.1,0,.47.14.09,0q.88.24,2,.45H9.2l.73.13h0a68.94,68.94,0,0,0,11,.8C30.39,14.2,38,12.68,38,10.81,38,10.2,37.23,9.64,35.83,9.14Z" fill="#a8662f" style="mix-blend-mode: multiply"/>
                <g>
                  <path d="M19.6,14.67l-1.1,0c-1.2,0-2.38-.09-3.51-.18l-.26,0-1.18-.1a44.18,44.18,0,0,1-5.43-.81l-.09,0a16.58,16.58,0,0,1-2.8-.86l-.52-.25-.11-.08A.48.48,0,0,1,4.46,12a.47.47,0,0,1,.25-.42C7.27,10.17,13.65,9.28,21,9.28c2.23,0,4.38.08,6.4.24l.54.05,1.18.11,1.1.13,1,.14,1,.16.81.15.89.18.73.18.61.17.54.16.41.15.52.21.22.1.31.15a.49.49,0,0,1,.24.42.48.48,0,0,1-.25.42l-.25.13a22.3,22.3,0,0,1-6,1.52h-.09a73.9,73.9,0,0,1-9.87.62Z" fill="#98d9e4"/>
                  <path d="M21,9.75c2.25,0,4.39.09,6.36.25l.42,0h.14l1,.09.17,0,.87.1.22,0,.78.1.24,0,.73.11.23,0,.65.12.23,0,.59.12.21.05.57.14.14,0c.21.05.4.11.59.17l.08,0h0l.41.13.21.07.18.07.39.15.11.05.21.09.15.07L37,12h0l-.23.11a21.65,21.65,0,0,1-5.92,1.49h0A73,73,0,0,1,21,14.2H19.61l-1,0h-.11c-1.21,0-2.37-.09-3.49-.17l-.25,0-1.18-.1A43.37,43.37,0,0,1,8.14,13h0a15.37,15.37,0,0,1-2.72-.83l-.08,0c-.14-.07-.28-.13-.4-.2h0c2.4-1.3,8.67-2.23,16-2.23m0-.95c-7.39,0-13.86.91-16.49,2.33A1,1,0,0,0,4,12a1,1,0,0,0,.51.84,4.92,4.92,0,0,0,.46.23l.09,0A17.65,17.65,0,0,0,7.93,14H8a45.19,45.19,0,0,0,5.5.83l1.2.1H15c1.14.08,2.32.14,3.53.18h.11l1,0H21a72.9,72.9,0,0,0,9.91-.63H31A24,24,0,0,0,37.18,13l.27-.14A1,1,0,0,0,38,12a.57.57,0,0,0,0-.13.94.94,0,0,0-.49-.71l-.12-.06-.2-.11-.23-.1-.1,0-.45-.18-.2-.07-.23-.08-.43-.14h-.05l-.06,0-.64-.18-.1,0h0L34,10l-.22-.05-.6-.13-.24,0-.67-.12-.07,0L32,9.6l-.75-.12h-.05l-.19,0-.8-.1-.23,0-.88-.1-.17,0-1-.1h-.1l-.47,0c-2-.17-4.2-.25-6.44-.25Z" fill="#5576b4"/>
                </g>
              </g>
              <g>
                <path d="M26.92,31.6a6.67,6.67,0,0,1-.19-.8,3.45,3.45,0,0,1-.17-.63c-.11-.42-.22-.85-.32-1.27a2.54,2.54,0,0,1-.17-.46.59.59,0,0,0-.15-.32l0-.05-.15-.16.15.16a2.34,2.34,0,0,0-.29-.62,3.89,3.89,0,0,0-.69-.87s-.08-.06-.08-.12a1.8,1.8,0,0,1-.5-.41c-.05,0-.08,0-.12,0a4.86,4.86,0,0,0-2.34-.75,5.44,5.44,0,0,1,.15.54,3.57,3.57,0,0,1,.07.56c0,.15,0,.29,0,.43,0-.14,0-.28,0-.43A3.57,3.57,0,0,0,22,25.8a5.44,5.44,0,0,0-.15-.54,3.28,3.28,0,0,1-.23-1.16,6.2,6.2,0,0,1,.16-.72s0,0,0-.05,0,0,0,0c.1-.32-.06-.49-.38-.42a1.08,1.08,0,0,0-.63.46c-.13.17-.24.35-.36.53,0,0,0,0,0,0v-.05a.76.76,0,0,1,0-.15.36.36,0,0,0-.57-.31,1.16,1.16,0,0,0-.37.36,2.57,2.57,0,0,0-.43,1.68,3.39,3.39,0,0,0,.17.78,3.39,3.39,0,0,1-.17-.78,4.79,4.79,0,0,0-1.41.61h-.07c-.08.13-.22.18-.34.27s-.09.12-.18.13c-.17.21-.39.38-.56.6a3.36,3.36,0,0,0-.42.64.23.23,0,0,0,0,.11l.11-.1-.11.1v0a3.6,3.6,0,0,0-.29.55,1.68,1.68,0,0,1-.17.49s0,.06,0,.08a7.12,7.12,0,0,0-.25,1.11A11.85,11.85,0,0,1,15,31.92a1.52,1.52,0,0,0-.08.73h0a1.57,1.57,0,0,0,.09.43,3.21,3.21,0,0,0,1.33,1.66,6.09,6.09,0,0,0,1.55.72l.14,0a7.46,7.46,0,0,0,1.7.21c.23,0,.47,0,.7,0a.14.14,0,0,1,.14,0,1.94,1.94,0,0,1,.72,0s.09,0,.14,0a5.17,5.17,0,0,0,.88,0,8.28,8.28,0,0,0,1.79-.23l.23-.07a5.14,5.14,0,0,0,1.87-1c.12-.14.25-.27.36-.42a2.32,2.32,0,0,0,.4-2.3Z" fill="#ed793e"/>
                <g>
                  <g>
                    <path d="M17.16,25.37a2.15,2.15,0,0,0-.77-.67,1.31,1.31,0,0,0-1.53.19,2.2,2.2,0,0,0-.56,2.4,4.27,4.27,0,0,0,1.3,1.59,1.68,1.68,0,0,0,.17-.49,3.6,3.6,0,0,1,.29-.55s0,0,0,0a.23.23,0,0,1,0-.11,3.36,3.36,0,0,1,.42-.64c.17-.22.39-.39.56-.6.09,0,.13-.08.18-.13s.26-.14.34-.27A3.21,3.21,0,0,0,17.16,25.37Z" fill="#ac462c"/>
                    <polygon points="16.06 27.81 16.06 27.81 16.06 27.81 16.06 27.81" fill="#ac462c"/>
                  </g>
                  <g>
                    <path d="M27.38,25.2a1.36,1.36,0,0,0-2-.39,3.18,3.18,0,0,0-1,1.24,1.8,1.8,0,0,0,.5.41c0,.06,0,.09.08.12a3.89,3.89,0,0,1,.69.87,2.34,2.34,0,0,1,.29.62s0,0,0,.05a.59.59,0,0,1,.15.32,2.54,2.54,0,0,0,.17.46,7,7,0,0,0,1-1A2.19,2.19,0,0,0,27.38,25.2Z" fill="#ac462c"/>
                    <polygon points="25.92 28.07 25.92 28.07 25.92 28.07 25.92 28.07" fill="#ac462c"/>
                  </g>
                </g>
                <g>
                  <path d="M23.26,33c-.1,0-.15,0-.18.12a1,1,0,0,1-.6.66,1.05,1.05,0,0,1-1.35-.61.54.54,0,0,0-.05-.11h0a1.57,1.57,0,0,0,.89-.66c.28-.35.2-.6-.23-.74a3,3,0,0,0-1.47-.06c-.55.11-.64.34-.33.81a1,1,0,0,0,.08.11,1.42,1.42,0,0,0,.8.54h0a1.17,1.17,0,0,0,0,.11,1,1,0,0,1-1.35.61,1,1,0,0,1-.6-.66c0-.1-.08-.15-.18-.12s-.14.1-.11.21a.92.92,0,0,0,.09.25,1.27,1.27,0,0,0,.9.69A1.57,1.57,0,0,0,21,33.47a1.54,1.54,0,0,0,1.42.63,1.25,1.25,0,0,0,.9-.69,1.45,1.45,0,0,0,.1-.25C23.4,33.05,23.37,33,23.26,33Z" fill="#58393a"/>
                  <g>
                    <path d="M18.14,29.65a1.1,1.1,0,0,0,0,1.55.74.74,0,0,0,1.14-.11,1,1,0,0,0,.19-.61,1.07,1.07,0,0,0-.24-.74A.74.74,0,0,0,18.14,29.65Z" fill="#58393a"/>
                    <path d="M22.74,29.74a1.11,1.11,0,0,0-.06,1.34.75.75,0,0,0,1.28,0,1.1,1.1,0,0,0,.17-.61,1.18,1.18,0,0,0-.11-.5A.75.75,0,0,0,22.74,29.74Z" fill="#58393a"/>
                  </g>
                </g>
                <path d="M21.59,22.87c.23,0,.33.16.25.44,0,0,0,0,0,0s0,0,0,.05a6.2,6.2,0,0,0-.16.72,3.28,3.28,0,0,0,.23,1.16h0s0,.1.05.16a3.79,3.79,0,0,1,.17.94,3.79,3.79,0,0,0-.17-.94c0-.06,0-.11-.05-.16a4.86,4.86,0,0,1,2.34.75.19.19,0,0,0,.1,0h0a3.18,3.18,0,0,1,1-1.24,1.48,1.48,0,0,1,.84-.28,1.38,1.38,0,0,1,1.15.67,2.19,2.19,0,0,1-.11,2.67,7,7,0,0,1-1,1c.1.42.21.85.32,1.27a4.5,4.5,0,0,0,.17.63,6.67,6.67,0,0,0,.19.8,2.32,2.32,0,0,1-.4,2.3c-.11.15-.24.28-.36.42a5.14,5.14,0,0,1-1.87,1l-.23.07a8.28,8.28,0,0,1-1.79.23l-.6,0a1.32,1.32,0,0,1-.28,0h-.07a.11.11,0,0,0-.07,0l-.26,0a2.4,2.4,0,0,0-.46.05.11.11,0,0,0-.08,0h-.78A7.36,7.36,0,0,1,18,35.48l-.14,0a6.25,6.25,0,0,1-1.55-.72A3.21,3.21,0,0,1,15,33.08a1.57,1.57,0,0,1-.09-.43h0a1.52,1.52,0,0,1,.08-.73,11.85,11.85,0,0,0,.36-1.85A7.12,7.12,0,0,1,15.59,29s0-.05,0-.08a4.27,4.27,0,0,1-1.3-1.59,2.2,2.2,0,0,1,.56-2.4,1.31,1.31,0,0,1,.88-.35,1.42,1.42,0,0,1,.65.16,2.15,2.15,0,0,1,.77.67,3.21,3.21,0,0,1,.43.69h.07a4.79,4.79,0,0,1,1.41-.61,2.57,2.57,0,0,1,.43-1.68,1.09,1.09,0,0,1,.38-.36.53.53,0,0,1,.23-.06c.18,0,.3.13.33.37a.76.76,0,0,0,0,.15l0,0h0c.12-.18.23-.36.36-.53a1.08,1.08,0,0,1,.63-.46l.13,0m0-1a1.27,1.27,0,0,0-.32,0,1.77,1.77,0,0,0-.88.46,1.27,1.27,0,0,0-.28,0,1.48,1.48,0,0,0-.67.17,2,2,0,0,0-.73.68,3.55,3.55,0,0,0-.58,1.51l-.18.08,0,0a3.19,3.19,0,0,0-1.11-.95,2.38,2.38,0,0,0-1.07-.26,2.3,2.3,0,0,0-1.52.59,3.2,3.2,0,0,0-.81,3.48,4.56,4.56,0,0,0,1.12,1.56c0,.22-.1.47-.14.73a11.17,11.17,0,0,1-.33,1.71A2.41,2.41,0,0,0,14,32.77a2.56,2.56,0,0,0,.13.61,4.11,4.11,0,0,0,1.7,2.15,6.7,6.7,0,0,0,1.8.84l.14,0h.06a8.52,8.52,0,0,0,1.91.24h.68l.18,0,.18,0,.28,0h.1l.16,0h.42l.38,0h.24a8.9,8.9,0,0,0,2-.25l.05,0,.15,0,.09,0A6,6,0,0,0,26.8,35l.1-.09.11-.12c.1-.12.2-.23.3-.36a3.46,3.46,0,0,0,.7-1.66,2.68,2.68,0,0,0-.1-1.27l0-.16c0-.1-.05-.21-.08-.31a2.53,2.53,0,0,1-.09-.38.9.9,0,0,0-.08-.28,1.65,1.65,0,0,1-.06-.24c0-.08,0-.16,0-.24-.07-.24-.12-.47-.18-.7a7.28,7.28,0,0,0,.69-.77,3.14,3.14,0,0,0,.16-3.79,2.36,2.36,0,0,0-1.95-1.09,2.49,2.49,0,0,0-1.37.43,3.74,3.74,0,0,0-.84.8,5.27,5.27,0,0,0-1.38-.42,2.32,2.32,0,0,1,0-.24.87.87,0,0,1,.06-.21c0-.13.07-.25.09-.38v0a.14.14,0,0,0,0-.07v0a1.25,1.25,0,0,0-.2-1,1.22,1.22,0,0,0-1-.49Z" fill="#6a3417"/>
              </g>
              <g>
                <circle cx="12.81" cy="8.13" r="4.65" fill="#98d9e4"/>
                <path d="M12.81,4.2A3.94,3.94,0,1,1,8.87,8.13,3.94,3.94,0,0,1,12.81,4.2m0-1.44a5.37,5.37,0,1,0,5.37,5.37,5.38,5.38,0,0,0-5.37-5.37Z" fill="#5576b4"/>
              </g>
              <g>
                <path d="M18.76,7.88A3.58,3.58,0,1,1,22.34,4.3,3.58,3.58,0,0,1,18.76,7.88Z" fill="#98d9e4"/>
                <path d="M18.76,1.44A2.86,2.86,0,1,1,15.9,4.3a2.86,2.86,0,0,1,2.86-2.86m0-1.44a4.3,4.3,0,1,0,4.3,4.3A4.31,4.31,0,0,0,18.76,0Z" fill="#5576b4"/>
              </g>
            </g>
          </g>
        </g>
      </g>
    </g>
  </g>
</svg>
