<svg xmlns="http://www.w3.org/2000/svg" xmlns:xlink="http://www.w3.org/1999/xlink" width="43.07" height="42.68" viewBox="0 0 43.07 42.68">
  <defs>
    <clipPath id="clip-path" transform="translate(0.3)">
      <path d="M40.94,38,27.59,20.53l0,0L13.33,1.9a1.16,1.16,0,0,0-.86-.46,2.16,2.16,0,0,0-.36,0,3.94,3.94,0,0,0-.65.13,2.3,2.3,0,0,0-.34.12,8,8,0,0,0-1.73.94h0l-.28.21,0,0L9,2.91l-.33.25-.32.25-.32.25L6,5.26l-.35.29C4.88,6.2,4.2,6.78,3.61,7.29l-.5.44c-.44.39-.82.73-1.13,1A1.71,1.71,0,0,0,1.76,9a1.75,1.75,0,0,0-.22.4,1.77,1.77,0,0,0-.1.72,1.51,1.51,0,0,0,.07.37,1.74,1.74,0,0,0,.28.54,1.61,1.61,0,0,0,.67.52,1.48,1.48,0,0,0,.41.12A1.69,1.69,0,0,0,4,11.44l.6-.39.51-.33c.78-.52,1.75-1.17,2.9-2a.39.39,0,0,1,.52.08h0a.37.37,0,0,1-.06.52c-2,1.63-3.36,2.76-4.15,3.45A1.07,1.07,0,0,0,4.1,14a1.21,1.21,0,0,0,1.06.69.46.46,0,0,0,.23-.06c.6-.4,1.56-1,2.93-2l.36-.25,1.38-1a.38.38,0,0,1,.52.07l.15.2a.37.37,0,0,1-.06.52l-.13.1-.29.24c-1,.79-1.79,1.46-2.44,2l-.31.26L6.29,15.81a.32.32,0,0,0-.12.22,1.25,1.25,0,0,0,.38,1.18,1.11,1.11,0,0,0,.37.2,1.2,1.2,0,0,0,.38,0,1.1,1.1,0,0,0,.51-.17c.43-.29,1-.68,1.75-1.2s1.61-1.14,2.66-1.9a.38.38,0,0,1,.52.07l.15.2a.37.37,0,0,1-.06.52c-2,1.63-3.36,2.76-4.15,3.45a1.15,1.15,0,0,0-.3.46,1.17,1.17,0,0,0-.05.46,1.2,1.2,0,0,0,1.11,1,.36.36,0,0,0,.25-.06c.83-.54,2.35-1.57,4.69-3.28a.38.38,0,0,1,.52.07l.15.2a.37.37,0,0,1-.06.52c-1.45,1.16-2.53,2.06-3.32,2.74l-.46.39-.61.54a.35.35,0,0,0-.12.23,1.1,1.1,0,0,0,1.64,1.23c.66-.43,1.63-1.09,3-2l.33-.24,1.13-.82a.38.38,0,0,1,.52.07l.15.2a.37.37,0,0,1-.06.52l-.89.72-.29.23c-1,.83-1.81,1.5-2.4,2l-.57.49-.09.09A1.11,1.11,0,0,0,13.76,26a.36.36,0,0,0,.25-.06L15.37,25l.31-.22c.3-.2.62-.43,1-.68l.41-.29,1.64-1.18a.38.38,0,0,1,.52.07l.09.13.25.32.1.13a.37.37,0,0,1-.06.52c-2.05,1.68-3.35,2.86-4.11,3.58a.39.39,0,0,0-.11.22,2,2,0,0,0,.94,2.13,1.48,1.48,0,0,0,.35.13,1.71,1.71,0,0,0,1.32-.2c1.27-.8,3.34-2.18,6.34-4.42l.52.07.53.63L27,27.84c.08.1.16.19.23.29,1.19,1.41,2.33,2.78,3.4,4.06l.38.45L32.11,34l.34.4,3.33,4,.34.4,1.46,1.76a1.71,1.71,0,0,0,2.13.54l.34-.17C41.1,40.33,41.82,39,40.94,38Z" fill="none"/>
    </clipPath>
  </defs>
  <g id="Layer_2" data-name="Layer 2">
    <g id="Layer_1-2" data-name="Layer 1">
      <g id="Squirrel_clean_4" data-name="Squirrel_clean 4">
        <g clip-path="url(#clip-path)">
          <path d="M40.94,38,27.59,20.53l0,0L13.33,1.9a1.16,1.16,0,0,0-.86-.46,2.16,2.16,0,0,0-.36,0,3.94,3.94,0,0,0-.65.13,2.3,2.3,0,0,0-.34.12,8,8,0,0,0-1.73.94h0l-.28.21,0,0L9,2.91l-.33.25-.32.25-.32.25L6,5.26l-.35.29C4.88,6.2,4.2,6.78,3.61,7.29l-.5.44c-.44.39-.82.73-1.13,1A1.71,1.71,0,0,0,1.76,9a1.75,1.75,0,0,0-.22.4,1.77,1.77,0,0,0-.1.72,1.51,1.51,0,0,0,.07.37,1.74,1.74,0,0,0,.28.54,1.61,1.61,0,0,0,.67.52,1.48,1.48,0,0,0,.41.12A1.69,1.69,0,0,0,4,11.44l.6-.39.51-.33c.78-.52,1.75-1.17,2.9-2a.39.39,0,0,1,.52.08h0a.37.37,0,0,1-.06.52c-2,1.63-3.36,2.76-4.15,3.45A1.07,1.07,0,0,0,4.1,14a1.21,1.21,0,0,0,1.06.69.46.46,0,0,0,.23-.06c.6-.4,1.56-1,2.93-2l.36-.25,1.38-1a.38.38,0,0,1,.52.07l.15.2a.37.37,0,0,1-.06.52l-.13.1-.29.24c-1,.79-1.79,1.46-2.44,2l-.31.26L6.29,15.81a.32.32,0,0,0-.12.22,1.25,1.25,0,0,0,.38,1.18,1.11,1.11,0,0,0,.37.2,1.2,1.2,0,0,0,.38,0,1.1,1.1,0,0,0,.51-.17c.43-.29,1-.68,1.75-1.2s1.61-1.14,2.66-1.9a.38.38,0,0,1,.52.07l.15.2a.37.37,0,0,1-.06.52c-2,1.63-3.36,2.76-4.15,3.45a1.15,1.15,0,0,0-.3.46,1.17,1.17,0,0,0-.05.46,1.2,1.2,0,0,0,1.11,1,.36.36,0,0,0,.25-.06c.83-.54,2.35-1.57,4.69-3.28a.38.38,0,0,1,.52.07l.15.2a.37.37,0,0,1-.06.52c-1.45,1.16-2.53,2.06-3.32,2.74l-.46.39-.61.54a.35.35,0,0,0-.12.23,1.1,1.1,0,0,0,1.64,1.23c.66-.43,1.63-1.09,3-2l.33-.24,1.13-.82a.38.38,0,0,1,.52.07l.15.2a.37.37,0,0,1-.06.52l-.89.72-.29.23c-1,.83-1.81,1.5-2.4,2l-.57.49-.09.09A1.11,1.11,0,0,0,13.76,26a.36.36,0,0,0,.25-.06L15.37,25l.31-.22c.3-.2.62-.43,1-.68l.41-.29,1.64-1.18a.38.38,0,0,1,.52.07l.09.13.25.32.1.13a.37.37,0,0,1-.06.52c-2.05,1.68-3.35,2.86-4.11,3.58a.39.39,0,0,0-.11.22,2,2,0,0,0,.94,2.13,1.48,1.48,0,0,0,.35.13,1.71,1.71,0,0,0,1.32-.2c1.27-.8,3.34-2.18,6.34-4.42l.52.07.53.63L27,27.84c.08.1.16.19.23.29,1.19,1.41,2.33,2.78,3.4,4.06l.38.45L32.11,34l.34.4,3.33,4,.34.4,1.46,1.76a1.71,1.71,0,0,0,2.13.54l.34-.17C41.1,40.33,41.82,39,40.94,38Z" transform="translate(0.3)" fill="#d3883d"/>
          <path d="M39.21,39.27,25.86,21.82l0,0L11.59,3.19a1.09,1.09,0,0,0-.85-.46h-.37a3.4,3.4,0,0,0-.65.13L9.39,3a8,8,0,0,0-1.73.95h0l-.27.22,0,0,0,0L7,4.45l-.33.25L6.31,5c-.73.57-1.4,1.11-2,1.6L4,6.84q-1.2,1-2.07,1.74L1.38,9c-.45.39-.82.73-1.13,1a1.86,1.86,0,0,0-.23.26,1.53,1.53,0,0,0-.21.4,1.62,1.62,0,0,0-.1.72,2.08,2.08,0,0,0,.06.36,1.55,1.55,0,0,0,.28.54,1.66,1.66,0,0,0,.68.53,1.42,1.42,0,0,0,.4.12,1.68,1.68,0,0,0,1.17-.24l.61-.38L3.42,12c.78-.52,1.74-1.17,2.9-2a.37.37,0,0,1,.51.08h0a.38.38,0,0,1-.07.53c-2,1.62-3.36,2.76-4.14,3.45a1.08,1.08,0,0,0-.36.79,1.11,1.11,0,0,0,.09.43A1.21,1.21,0,0,0,3.42,16a.32.32,0,0,0,.23-.06c.6-.39,1.57-1,2.94-2L7,13.64c.42-.3.88-.63,1.37-1a.38.38,0,0,1,.53.08l.15.2a.38.38,0,0,1-.07.52l-.12.1-.29.23c-1,.8-1.79,1.46-2.44,2L5.77,16c-.52.44-.92.8-1.22,1.06a.45.45,0,0,0-.12.21,1.24,1.24,0,0,0,.39,1.19,1.09,1.09,0,0,0,.37.19,1.18,1.18,0,0,0,.37,0,1,1,0,0,0,.51-.18l1.76-1.19c.73-.51,1.61-1.14,2.65-1.91a.39.39,0,0,1,.53.08l.15.2a.38.38,0,0,1-.07.52C9.06,17.89,7.73,19,7,19.71a1.11,1.11,0,0,0-.3.45,1,1,0,0,0-.05.46,1.16,1.16,0,0,0,1.11,1A.33.33,0,0,0,8,21.56C8.79,21,10.3,20,12.64,18.28a.39.39,0,0,1,.53.08l.15.2a.38.38,0,0,1-.07.52c-1.44,1.16-2.53,2.06-3.32,2.74l-.45.39-.62.54a.4.4,0,0,0-.12.22,1.11,1.11,0,0,0,1.65,1.24c.65-.44,1.63-1.1,2.95-2.05l.34-.24,1.12-.81a.38.38,0,0,1,.53.07l.15.2a.38.38,0,0,1-.07.52l-.88.71-.29.24c-1,.83-1.81,1.5-2.41,2l-.56.49-.09.09A1.11,1.11,0,0,0,12,27.27a.39.39,0,0,0,.25-.06l1.35-.91.32-.22,1-.68.41-.29L17,23.93a.39.39,0,0,1,.53.07l.09.13.25.32.1.13a.39.39,0,0,1-.06.52c-2.05,1.68-3.36,2.86-4.11,3.58a.36.36,0,0,0-.11.22A1.92,1.92,0,0,0,14.59,31a1.48,1.48,0,0,0,.35.13A1.68,1.68,0,0,0,16.26,31c1.27-.79,3.34-2.17,6.34-4.41l.52.07.52.63,1.58,1.89.24.28,3.4,4.07.37.45,1.15,1.36.33.41c1.33,1.58,2.47,2.94,3.33,4l.34.4c.93,1.11,1.47,1.75,1.47,1.76a1.7,1.7,0,0,0,2.13.53,2.6,2.6,0,0,0,.34-.16C39.37,41.62,40.09,40.33,39.21,39.27Z" transform="translate(0.3)" fill="#fcb363"/>
        </g>
        <path d="M12.3,1.44h.17a1.16,1.16,0,0,1,.86.46L27.56,20.5l0,0L40.94,38c.88,1.06.16,2.35-.89,2.94l-.34.17a2.22,2.22,0,0,1-.8.15,1.58,1.58,0,0,1-1.33-.69l-1.46-1.76-.34-.4-3.33-4-.34-.4L31,32.64l-.38-.45c-1.07-1.28-2.21-2.65-3.4-4.06L27,27.84,25.38,26l-.53-.63-.52-.07c-3,2.24-5.07,3.62-6.34,4.42a1.74,1.74,0,0,1-.9.26,1.52,1.52,0,0,1-.42-.06,1.48,1.48,0,0,1-.35-.13,2,2,0,0,1-.94-2.13.39.39,0,0,1,.11-.22c.76-.72,2.06-1.9,4.11-3.58a.37.37,0,0,0,.06-.52l-.1-.13-.25-.32-.09-.13a.41.41,0,0,0-.3-.14.34.34,0,0,0-.22.07l-1.64,1.18-.41.29c-.35.25-.67.48-1,.68l-.31.22L14,25.92a.36.36,0,0,1-.2.06h-.05a1.11,1.11,0,0,1-.85-1.83l.09-.09.57-.49c.59-.51,1.38-1.18,2.4-2l.29-.23.89-.72a.37.37,0,0,0,.06-.52l-.15-.2a.39.39,0,0,0-.3-.14.34.34,0,0,0-.22.07l-1.13.82-.33.24c-1.33.95-2.3,1.61-3,2a1,1,0,0,1-.58.17,1.13,1.13,0,0,1-1.06-1.4.35.35,0,0,1,.12-.23l.61-.54.46-.39c.79-.68,1.87-1.58,3.32-2.74a.37.37,0,0,0,.06-.52l-.15-.2a.4.4,0,0,0-.3-.15.37.37,0,0,0-.22.08c-2.34,1.71-3.86,2.74-4.69,3.28a.36.36,0,0,1-.2.06H9.44a1.2,1.2,0,0,1-1.11-1,1.17,1.17,0,0,1,.05-.46,1.15,1.15,0,0,1,.3-.46c.79-.69,2.11-1.82,4.15-3.45a.37.37,0,0,0,.06-.52l-.15-.2a.36.36,0,0,0-.52-.07c-1.05.76-1.93,1.39-2.66,1.9s-1.32.91-1.75,1.2a1.1,1.1,0,0,1-.51.17H7.23a1.06,1.06,0,0,1-.31,0,1.11,1.11,0,0,1-.37-.2A1.25,1.25,0,0,1,6.17,16a.32.32,0,0,1,.12-.22L7.5,14.75l.31-.26c.65-.54,1.45-1.21,2.44-2l.29-.24.13-.1a.37.37,0,0,0,.06-.52l-.15-.2a.36.36,0,0,0-.3-.15.37.37,0,0,0-.22.08l-1.38,1-.36.25c-1.37,1-2.33,1.62-2.93,2a.36.36,0,0,1-.2.06h0A1.21,1.21,0,0,1,4.1,14a1.07,1.07,0,0,1,.26-1.22c.79-.69,2.11-1.82,4.15-3.45a.37.37,0,0,0,.06-.52h0a.38.38,0,0,0-.3-.15.44.44,0,0,0-.22.07c-1.15.83-2.12,1.48-2.9,2l-.51.33-.6.39a1.72,1.72,0,0,1-.9.25,1.23,1.23,0,0,1-.27,0,1.48,1.48,0,0,1-.41-.12A1.61,1.61,0,0,1,1.79,11a1.74,1.74,0,0,1-.28-.54,1.51,1.51,0,0,1-.07-.37,1.77,1.77,0,0,1,.1-.72A1.75,1.75,0,0,1,1.76,9,1.71,1.71,0,0,1,2,8.75c.31-.29.69-.63,1.13-1l.5-.44C4.2,6.78,4.88,6.2,5.69,5.55L6,5.26l2-1.6.32-.25.32-.25L9,2.91l.06-.05,0,0,.28-.21h0a8,8,0,0,1,1.73-.94,2.3,2.3,0,0,1,.34-.12,3.94,3.94,0,0,1,.65-.13h.19M12.3,0H12a4.81,4.81,0,0,0-.93.19l-.44.14a9.5,9.5,0,0,0-1.92,1l-.18.12-.27.21-.1.08L7.81,2l-.09.07-.23.19-.33.25c-.74.58-1.41,1.12-2,1.62l-.35.29C4,5.05,3.32,5.65,2.67,6.21l-.51.44c-.45.4-.84.75-1.16,1a3,3,0,0,0-.41.46A3.49,3.49,0,0,0,.2,8.9,3,3,0,0,0,0,10.23a3.61,3.61,0,0,0,.12.67,3.18,3.18,0,0,0,.52,1,3,3,0,0,0,1.24,1,3.08,3.08,0,0,0,.73.22,2.52,2.52,0,0,0-.05.48,2.36,2.36,0,0,0,.22,1,2.59,2.59,0,0,0,1.93,1.49,2.6,2.6,0,0,0,.91,2.24,2.43,2.43,0,0,0,.88.47,3,3,0,0,0,.41.09,2.22,2.22,0,0,0,0,.63A2.55,2.55,0,0,0,9,21.72a2.7,2.7,0,0,0,.65,2,2.52,2.52,0,0,0,1.55.82,2.59,2.59,0,0,0,.13,1.2,2.66,2.66,0,0,0,2.2,1.69l.25,0H14A3.36,3.36,0,0,0,15.67,31a2.69,2.69,0,0,0,.65.24,2.86,2.86,0,0,0,.77.1,3.06,3.06,0,0,0,1.66-.48c1.13-.7,3-1.93,5.63-3.88l1.08,1.29.4.47L26,29l.07.1L29.39,33l.1.12.38.45.46.56.68.81.21.25.13.15L32.7,37l2,2.36.2.24.13.17,1.44,1.72a3,3,0,0,0,2.46,1.24,3.94,3.94,0,0,0,1.85-.51,3.88,3.88,0,0,0,2-2.6,3,3,0,0,0-.65-2.48L28.73,19.66l0,0h0L14.48,1.05A2.59,2.59,0,0,0,12.6,0Z" transform="translate(0.3)" fill="#6a3417"/>
      </g>
    </g>
  </g>
</svg>
