<svg xmlns="http://www.w3.org/2000/svg" xmlns:xlink="http://www.w3.org/1999/xlink" width="42.81" height="47.4" viewBox="0 0 42.81 47.4">
  <defs>
    <clipPath id="clip-path" transform="translate(0.71 5.02)">
      <path d="M.72,18.42A4.06,4.06,0,0,1,3.44,14.9S1.32,8.5,8.75,8.72c0,0-.8-6.63,7.3-7.86S26.44,6.53,26.44,6.53,31.2,3.59,34.71,7a7.12,7.12,0,0,1,1.74,7.6s4.49,4.55-.49,7.68c-4.07,2.57-24.14,1.21-31.27.63A4.29,4.29,0,0,1,.72,18.42Z" fill="none"/>
    </clipPath>
    <clipPath id="clip-path-2" transform="translate(0.71 5.02)">
      <path d="M26,24a1.64,1.64,0,0,1,1.11-1.44s-.87-2.61,2.17-2.52c0,0-.33-2.71,3-3.21a3.7,3.7,0,0,1,4.24,2.31s1.95-1.2,3.38.18a2.9,2.9,0,0,1,.71,3.1s1.84,1.86-.19,3.14c-1.67,1.05-9.87.5-12.78.26A1.75,1.75,0,0,1,26,24Z" fill="none"/>
    </clipPath>
  </defs>
  <g id="Layer_2" data-name="Layer 2">
    <g id="Layer_1-2" data-name="Layer 1">
      <g id="Squirrel_toy_4" data-name="Squirrel_toy 4">
        <g>
          <path d="M9.47,38.19c-.08.12-.15.24-.22.36A1.84,1.84,0,0,1,9.47,38.19Z" transform="translate(0.71 5.02)" fill="#966735"/>
          <g>
            <g>
              <path d="M18.54,41.66a.83.83,0,0,1-.22,0,8.26,8.26,0,0,0-2.51-.33c-.92,0-1.87.09-2.79.18s-1.72.16-2.51.16A5.08,5.08,0,0,1,7.79,41a.71.71,0,0,1-.34-.57.73.73,0,0,1,.27-.61c1.9-1.49,4-7.87,3.91-8.93a.83.83,0,0,1,0-.27,38.75,38.75,0,0,0-.35-5.21c-.44-4.15-.55-5.78,0-6.43A.9.9,0,0,1,12,18.7a1.26,1.26,0,0,1,.9.46,1.43,1.43,0,0,1,.29,0,3.17,3.17,0,0,1,1.29.39,2.71,2.71,0,0,0,.8.29.67.67,0,0,1,.28.06,3.8,3.8,0,0,0,.87.22,4.14,4.14,0,0,1,2.38,1.08,6,6,0,0,0,2.64.37A17.83,17.83,0,0,0,26.09,21a.75.75,0,0,1,.48-.35h.14a.71.71,0,0,1,.64.39.83.83,0,0,1,.08.45v0a8.4,8.4,0,0,0,.06,2.83,6.31,6.31,0,0,0,1.14-.44,12.55,12.55,0,0,1,5.31-1.32,10.38,10.38,0,0,1,1.57.12c.36.05,1.29.19,1.42.95s-.78,1.35-2.46,2.24a21,21,0,0,0-2.17,1.25c-2.16,1.22-3.09,5-2.66,7.86.15.92.66,3.1,2.39,3.47l.53.15c2,.55,3.14,1,3.07,1.88s-1.29,1.06-2,1.16h-.12c-1.55-.06-3-.09-4.52-.09s-2.95,0-4.45.06c-1.71,0-3.52.07-5.7.07Z" transform="translate(0.71 5.02)" fill="#924f28"/>
              <path d="M12,19.42c.17,0,.4.2.71.63a.61.61,0,0,1,.48-.2c.6,0,1.4.66,2.08.68.9.4,2.16.19,3.09,1.22a6.71,6.71,0,0,0,3.09.51c2.34,0,5-.46,5.28-.84-.19,2.78,0,3.6.71,3.6,1,0,3.1-1.76,6.51-1.76a9.44,9.44,0,0,1,1.47.11c2.54.37-1.48,1.7-3.52,3.14-3.89,2.2-4.29,11.72,0,12.62.87.28,5.23,1.3,1.62,1.78-1.69-.07-3.15-.09-4.54-.09-3.25,0-6,.13-10.15.13h-.27a8.79,8.79,0,0,0-2.73-.37c-1.83,0-3.73.35-5.3.35a4.49,4.49,0,0,1-2.35-.5c2.21-1.75,4.49-9.1,4.16-9.72.19-2.95-1.43-11.29-.34-11.29m14.74,1.91a.1.1,0,0,1,0,.09v-.09M12,18a1.63,1.63,0,0,0-1.23.55c-.79.88-.7,2.43-.22,7a39.39,39.39,0,0,1,.36,5.08,1.59,1.59,0,0,0,0,.38c-.1,1.28-2.05,7.06-3.64,8.31a1.44,1.44,0,0,0,.14,2.35,5.7,5.7,0,0,0,3.1.71c.82,0,1.67-.08,2.58-.17S14.93,42,15.81,42a7.51,7.51,0,0,1,2.29.29,1.31,1.31,0,0,0,.44.07h.27c2.19,0,4,0,5.71-.07,1.5,0,2.93-.06,4.44-.06s2.95,0,4.49.09h.24c.83-.11,2.54-.34,2.65-1.82s-1.69-2.08-3.6-2.62l-.43-.13-.14,0c-1.29-.27-1.71-2.09-1.83-2.87-.44-2.85.61-6.16,2.24-7.08l.12-.08a21.22,21.22,0,0,1,2.1-1.21c1.78-.94,3.07-1.62,2.83-3-.15-.85-.83-1.37-2-1.54a12,12,0,0,0-1.68-.12,13.08,13.08,0,0,0-5.6,1.38l-.25.11c0-.36,0-.88.05-1.65a1.53,1.53,0,0,0-.14-1,1.44,1.44,0,0,0-1.27-.78,1.36,1.36,0,0,0-.29,0,1.44,1.44,0,0,0-.77.43,18.17,18.17,0,0,1-4.23.47,6.81,6.81,0,0,1-2.23-.25,4.8,4.8,0,0,0-2.66-1.18,3.41,3.41,0,0,1-.7-.17,1.4,1.4,0,0,0-.57-.13,4.88,4.88,0,0,1-.5-.22,3.84,3.84,0,0,0-1.6-.46h0A1.8,1.8,0,0,0,12,18Z" transform="translate(0.71 5.02)" fill="#6a3417"/>
            </g>
            <path d="M21,31.08h0a6.3,6.3,0,0,1,6.3,6.3V46.5a0,0,0,0,1,0,0H14.69a0,0,0,0,1,0,0V37.39A6.3,6.3,0,0,1,21,31.08Z" fill="#6a3417"/>
          </g>
          <g>
            <g clip-path="url(#clip-path)">
              <path d="M.72,18.42A4.06,4.06,0,0,1,3.44,14.9S1.32,8.5,8.75,8.72c0,0-.8-6.63,7.3-7.86S26.44,6.53,26.44,6.53,31.2,3.59,34.71,7a7.12,7.12,0,0,1,1.74,7.6s4.49,4.55-.49,7.68c-4.07,2.57-24.14,1.21-31.27.63A4.29,4.29,0,0,1,.72,18.42Z" transform="translate(0.71 5.02)" fill="#6c9433" stroke="#507125" stroke-linecap="round" stroke-linejoin="round" stroke-width="1.44"/>
              <path d="M36.16-1.33a4.19,4.19,0,0,1-1.9,4.13s3.44,6-3.87,7.37c0,0,2.19,6.53-5.46,9.49a9,9,0,0,1-11.37-3.53s-4,4-8.17,1.32a7.49,7.49,0,0,1-3.32-7.31S-3.3,6.49.9,2.27C4.34-1.18,24.24-4.06,31.34-5A4.35,4.35,0,0,1,36.16-1.33Z" transform="translate(0.71 5.02)" fill="#96b85c"/>
            </g>
            <path d="M.72,18.42A4.06,4.06,0,0,1,3.44,14.9S1.32,8.5,8.75,8.72c0,0-.8-6.63,7.3-7.86S26.44,6.53,26.44,6.53,31.2,3.59,34.71,7a7.12,7.12,0,0,1,1.74,7.6s4.49,4.55-.49,7.68c-4.07,2.57-24.14,1.21-31.27.63A4.29,4.29,0,0,1,.72,18.42Z" transform="translate(0.71 5.02)" fill="none" stroke="#507125" stroke-linecap="round" stroke-linejoin="round" stroke-width="1.44"/>
          </g>
          <g>
            <g clip-path="url(#clip-path-2)">
              <path d="M26,24a1.64,1.64,0,0,1,1.11-1.44s-.87-2.61,2.17-2.52c0,0-.33-2.71,3-3.21a3.7,3.7,0,0,1,4.24,2.31s1.95-1.2,3.38.18a2.9,2.9,0,0,1,.71,3.1s1.84,1.86-.19,3.14c-1.67,1.05-9.87.5-12.78.26A1.75,1.75,0,0,1,26,24Z" transform="translate(0.71 5.02)" fill="#6c9433" stroke="#507125" stroke-linecap="round" stroke-linejoin="round" stroke-width="1.44"/>
              <path d="M40.51,15.89a1.73,1.73,0,0,1-.78,1.69s1.4,2.46-1.58,3c0,0,.89,2.67-2.23,3.88A3.69,3.69,0,0,1,31.27,23s-1.65,1.63-3.34.54a3.08,3.08,0,0,1-1.36-3s-2.19-1.49-.47-3.22c1.4-1.41,9.54-2.58,12.44-3A1.78,1.78,0,0,1,40.51,15.89Z" transform="translate(0.71 5.02)" fill="#96b85c"/>
            </g>
            <path d="M26,24a1.64,1.64,0,0,1,1.11-1.44s-.87-2.61,2.17-2.52c0,0-.33-2.71,3-3.21a3.7,3.7,0,0,1,4.24,2.31s1.95-1.2,3.38.18a2.9,2.9,0,0,1,.71,3.1s1.84,1.86-.19,3.14c-1.67,1.05-9.87.5-12.78.26A1.75,1.75,0,0,1,26,24Z" transform="translate(0.71 5.02)" fill="none" stroke="#507125" stroke-linecap="round" stroke-linejoin="round" stroke-width="1.44"/>
          </g>
        </g>
      </g>
    </g>
  </g>
</svg>
