<svg xmlns="http://www.w3.org/2000/svg" xmlns:xlink="http://www.w3.org/1999/xlink" width="42.65" height="44.09" viewBox="0 0 42.65 44.09">
  <defs>
    <clipPath id="clip-path" transform="translate(0 1.55)">
      <path d="M19.77,28.73c-.09-7.83,4.63-14.24,10.55-14.31s10.8,6.22,10.89,14.06c.06,5.48-1,9.41-4.42,11.82-1.46,1-10.41,1-11.7.31C21.21,38.5,19.84,34.61,19.77,28.73Z" fill="none"/>
    </clipPath>
  </defs>
  <g id="Layer_2" data-name="Layer 2">
    <g id="Layer_1-2" data-name="Layer 1">
      <g id="Squirrel_clean_3" data-name="Squirrel_clean 3">
        <g id="clean_2" data-name="clean 2">
          <g>
            <g>
              <circle cx="13.36" cy="9.42" r="3.94" fill="#fcd2d8" stroke="#d98885" stroke-miterlimit="10" stroke-width="1.44"/>
              <g>
                <path d="M4.71,41.83a4,4,0,0,1,0-8H6.07c0-.24,0-.48,0-.72a6.57,6.57,0,0,1,13.13,0,5.79,5.79,0,0,1,0,.72h2.94a4,4,0,0,1,0,8Z" transform="translate(0 1.55)" fill="#fcd2d8"/>
                <path d="M12.6,27.26a5.84,5.84,0,0,1,5.84,5.85,6.17,6.17,0,0,1-.18,1.44h3.8a3.28,3.28,0,1,1,0,6.56H4.71a3.28,3.28,0,0,1,0-6.56H6.94a5.68,5.68,0,0,1-.19-1.44,5.85,5.85,0,0,1,5.85-5.85m0-1.43a7.3,7.3,0,0,0-7.29,7.28h-.6a4.72,4.72,0,0,0,0,9.43H22.06a4.72,4.72,0,0,0,0-9.43H19.88a7.29,7.29,0,0,0-7.28-7.28Z" transform="translate(0 1.55)" fill="#d98885"/>
              </g>
            </g>
            <path d="M13.25,29a3.15,3.15,0,0,1,3.15,3.15" transform="translate(0 1.55)" fill="none" stroke="#fff" stroke-linecap="round" stroke-linejoin="round" stroke-width="1.44"/>
          </g>
          <g clip-path="url(#clip-path)">
            <g>
              <path d="M30.2,41.59c-1,0-4.39,0-5.34-.56-3.77-2.05-5.49-5.84-5.57-12.29a17.18,17.18,0,0,1,3.12-10.36,10,10,0,0,1,7.91-4.44h.1c6.12,0,11.17,6.52,11.27,14.53.07,6.14-1.35,9.91-4.62,12.22C35.88,41.52,31.51,41.59,30.2,41.59Z" transform="translate(0 1.55)" fill="#dfe590"/>
              <path d="M30.42,14.42c5.88,0,10.7,6.27,10.79,14.06.06,5.48-1,9.41-4.42,11.82-.79.56-3.8.81-6.59.81a16.91,16.91,0,0,1-5.11-.5c-3.88-2.11-5.25-6-5.32-11.88-.09-7.83,4.63-14.24,10.55-14.31h.1m0-1h-.11c-6.44.08-11.59,6.94-11.49,15.28.08,6.65,1.87,10.57,5.81,12.71,1,.56,4.23.62,5.57.62,1.73,0,5.88-.1,7.14-1,3.41-2.41,4.9-6.3,4.83-12.61-.1-8.28-5.37-15-11.75-15Z" transform="translate(0 1.55)" fill="#c3bf4f"/>
            </g>
            <path d="M7.91,19C7.77,7.75,14.54-1.44,23-1.54S38.51,7.38,38.65,18.61c.09,7.86-1.45,13.5-6.34,17C30.21,37,17.38,37,15.52,36,10,33,8,27.41,7.91,19Z" transform="translate(0 1.55)" fill="#fcf6e8"/>
          </g>
          <path d="M30.42,14.42c5.88,0,10.7,6.27,10.79,14.06.06,5.48-1,9.41-4.42,11.82-.79.56-3.8.81-6.59.81a16.91,16.91,0,0,1-5.11-.5c-3.88-2.11-5.25-6-5.32-11.88-.09-7.83,4.63-14.24,10.55-14.31h.1m0-1.43H30.3c-6.7.08-12.07,7.15-12,15.76.05,4.6.79,10.26,6.06,13.12,1,.56,3.72.68,5.8.68,2.69,0,6.16-.19,7.42-1.08,4.55-3.21,5.08-8.64,5-13C42.54,19.93,37.06,13,30.42,13Z" transform="translate(0 1.55)" fill="#c3bf4f"/>
          <rect x="28.66" y="6.71" width="3.5" height="5.6" transform="translate(60.94 20.12) rotate(179.17)" fill="#fff" stroke="#dfe590" stroke-linecap="round" stroke-linejoin="round" stroke-width="1.44"/>
          <rect x="24.49" y="12.01" width="12.01" height="5.24" rx="2.07" transform="translate(-0.02 1.59) rotate(-0.08)" fill="#c3bf4f" stroke="#928e31" stroke-linecap="round" stroke-linejoin="round" stroke-width="1.44"/>
          <path d="M33.58.72,20.37.74a.74.74,0,0,0-.74.73V3.21a.73.73,0,0,0,.73.73h3a3.21,3.21,0,0,1,3.21,3.2h7a.74.74,0,0,0,.73-.74V1.45A.73.73,0,0,0,33.58.72Z" transform="translate(0 1.55)" fill="#c3bf4f" stroke="#928e31" stroke-linecap="round" stroke-linejoin="round" stroke-width="1.44"/>
          <g>
            <path d="M36.3,31a7.31,7.31,0,0,1-.18-.78,3.35,3.35,0,0,1-.17-.62c-.11-.41-.21-.82-.31-1.23a2,2,0,0,1-.16-.44.78.78,0,0,0-.15-.32l0,0-.15-.16.15.16a2.19,2.19,0,0,0-.28-.6,3.49,3.49,0,0,0-.68-.85s-.07-.06-.07-.11a2.09,2.09,0,0,1-.49-.4s-.08,0-.11,0a4.84,4.84,0,0,0-2.28-.74,3.79,3.79,0,0,1,.14.53,2.51,2.51,0,0,1,.07.55,2.75,2.75,0,0,1,0,.41,2.75,2.75,0,0,0,0-.41,2.51,2.51,0,0,0-.07-.55,3.79,3.79,0,0,0-.14-.53,3,3,0,0,1-.23-1.12,5.88,5.88,0,0,1,.16-.7s0,0,0,0,0,0,0,0c.1-.31-.05-.48-.37-.41a1,1,0,0,0-.61.45c-.12.17-.24.34-.35.52,0,0,0,0,0,0v0a.76.76,0,0,1,0-.15.35.35,0,0,0-.55-.3.93.93,0,0,0-.36.35A2.49,2.49,0,0,0,28.65,25a3.32,3.32,0,0,0,.16.76,3.32,3.32,0,0,1-.16-.76,4.93,4.93,0,0,0-1.38.58h-.06c-.08.13-.22.18-.33.27s-.09.12-.18.12c-.17.21-.38.38-.54.59a3.5,3.5,0,0,0-.41.62.23.23,0,0,0,0,.11l.1-.1-.1.1v0a4,4,0,0,0-.28.54,1.62,1.62,0,0,1-.17.48.22.22,0,0,1,0,.08A7.87,7.87,0,0,0,25,29.47a12.18,12.18,0,0,1-.35,1.8,1.46,1.46,0,0,0-.08.72l0,0,0,0a1.58,1.58,0,0,0,.09.42A3,3,0,0,0,26,34a5.75,5.75,0,0,0,1.51.7l.14,0a7.6,7.6,0,0,0,1.65.2c.23,0,.45,0,.68,0,.05,0,.09,0,.13,0a2.12,2.12,0,0,1,.71,0,.2.2,0,0,1,.13,0,4.94,4.94,0,0,0,.86,0,7.82,7.82,0,0,0,1.74-.22l.23-.07a5.05,5.05,0,0,0,1.81-1c.12-.14.24-.27.35-.41a2.23,2.23,0,0,0,.51-1.2A2.13,2.13,0,0,0,36.3,31Z" transform="translate(0 1.55)" fill="#ed793e"/>
            <g>
              <g>
                <path d="M26.79,24.9a2.22,2.22,0,0,0-.75-.65,1.28,1.28,0,0,0-1.48.18A2.17,2.17,0,0,0,24,26.77a4.34,4.34,0,0,0,1.27,1.55,1.62,1.62,0,0,0,.17-.48,4,4,0,0,1,.28-.54s0,0,0,0a.23.23,0,0,1,0-.11,3.5,3.5,0,0,1,.41-.62c.16-.21.37-.38.54-.59.09,0,.13-.08.18-.12s.25-.14.33-.27A3.59,3.59,0,0,0,26.79,24.9Z" transform="translate(0 1.55)" fill="#ac462c"/>
                <polygon points="25.72 28.82 25.72 28.82 25.72 28.82 25.72 28.82" fill="#ac462c"/>
              </g>
              <g>
                <path d="M36.73,24.74a1.31,1.31,0,0,0-1.93-.38,3.13,3.13,0,0,0-1,1.21,2.09,2.09,0,0,0,.49.4c0,.05,0,.08.07.11a3.49,3.49,0,0,1,.68.85,2.19,2.19,0,0,1,.28.6s0,0,0,0a.78.78,0,0,1,.15.32,2,2,0,0,0,.16.44,7.28,7.28,0,0,0,1-1A2.12,2.12,0,0,0,36.73,24.74Z" transform="translate(0 1.55)" fill="#ac462c"/>
                <polygon points="35.31 29.08 35.31 29.08 35.31 29.07 35.31 29.08" fill="#ac462c"/>
              </g>
            </g>
            <g>
              <path d="M32.74,32.27c-.1,0-.14,0-.17.12A1,1,0,0,1,32,33a1,1,0,0,1-1.32-.6.47.47,0,0,0-.05-.1h0a1.54,1.54,0,0,0,.87-.65c.27-.34.19-.58-.22-.71a2.93,2.93,0,0,0-1.44-.06c-.53.1-.62.33-.32.78a1,1,0,0,0,.08.11,1.32,1.32,0,0,0,.78.52h0a1.17,1.17,0,0,1-.05.11A1,1,0,0,1,29,33a1,1,0,0,1-.58-.65c0-.09-.08-.14-.18-.12s-.14.1-.11.21a1.06,1.06,0,0,0,.09.25,1.2,1.2,0,0,0,.87.66,1.5,1.5,0,0,0,1.39-.61,1.52,1.52,0,0,0,1.39.61,1.2,1.2,0,0,0,.87-.66,1.06,1.06,0,0,0,.09-.25C32.88,32.37,32.85,32.3,32.74,32.27Z" transform="translate(0 1.55)" fill="#58393a"/>
              <g>
                <path d="M27.77,29.06a1.07,1.07,0,0,0,0,1.52.72.72,0,0,0,1.11-.12,1,1,0,0,0,.19-.58,1,1,0,0,0-.24-.73A.72.72,0,0,0,27.77,29.06Z" transform="translate(0 1.55)" fill="#58393a"/>
                <path d="M32.24,29.15a1.08,1.08,0,0,0-.06,1.31.73.73,0,0,0,1.24,0,1,1,0,0,0,.17-.6,1.09,1.09,0,0,0-.11-.48A.73.73,0,0,0,32.24,29.15Z" transform="translate(0 1.55)" fill="#58393a"/>
              </g>
            </g>
            <path d="M31.1,22.47c.22,0,.32.16.24.43,0,0,0,0,0,0s0,0,0,0a5.88,5.88,0,0,0-.16.7,3,3,0,0,0,.23,1.12h0a1.21,1.21,0,0,1,.05.18,3.4,3.4,0,0,1,.16.9,3.4,3.4,0,0,0-.16-.9,1.21,1.21,0,0,0-.05-.18,4.84,4.84,0,0,1,2.28.74.15.15,0,0,0,.09,0h0a3.13,3.13,0,0,1,1-1.21,1.43,1.43,0,0,1,.81-.27,1.35,1.35,0,0,1,1.12.65,2.12,2.12,0,0,1-.1,2.59,7.28,7.28,0,0,1-1,1c.1.41.2.82.31,1.23a3.35,3.35,0,0,0,.17.62,7.31,7.31,0,0,0,.18.78,2.13,2.13,0,0,1,.12,1,2.23,2.23,0,0,1-.51,1.2c-.11.14-.23.27-.35.41a5.05,5.05,0,0,1-1.81,1l-.23.07a7.82,7.82,0,0,1-1.74.22l-.59,0a1.23,1.23,0,0,1-.27,0h-.06a.08.08,0,0,0-.07,0l-.26,0a2.3,2.3,0,0,0-.45.05.09.09,0,0,0-.07,0h-.76a7.49,7.49,0,0,1-1.63-.2l-.14,0A5.75,5.75,0,0,1,26,34a3,3,0,0,1-1.29-1.6,1.58,1.58,0,0,1-.09-.42l0,0,0,0a1.46,1.46,0,0,1,.08-.72,12.18,12.18,0,0,0,.35-1.8,7.87,7.87,0,0,1,.24-1.07.22.22,0,0,0,0-.08A4.34,4.34,0,0,1,24,26.77a2.17,2.17,0,0,1,.56-2.34,1.26,1.26,0,0,1,.85-.33,1.45,1.45,0,0,1,.63.15,2.22,2.22,0,0,1,.75.65,3.59,3.59,0,0,1,.42.67h.06A4.93,4.93,0,0,1,28.65,25a2.49,2.49,0,0,1,.42-1.64.93.93,0,0,1,.36-.35.53.53,0,0,1,.23-.06c.17,0,.29.13.32.36a.76.76,0,0,0,0,.15l0,0h0c.11-.18.23-.35.35-.52a1,1,0,0,1,.61-.45l.13,0m0-.95h0l-.32,0a1.81,1.81,0,0,0-.86.45,1.09,1.09,0,0,0-.26,0,1.48,1.48,0,0,0-.67.17,2,2,0,0,0-.72.67,3.43,3.43,0,0,0-.56,1.47l-.15.06v0a3.17,3.17,0,0,0-1.09-.93,2.32,2.32,0,0,0-1.05-.25,2.27,2.27,0,0,0-1.49.58,3.14,3.14,0,0,0-.8,3.42,4.48,4.48,0,0,0,1.09,1.51c-.05.21-.1.45-.14.69A11.53,11.53,0,0,1,23.75,31a2.74,2.74,0,0,0,0,1.7,4,4,0,0,0,1.66,2.1,6.26,6.26,0,0,0,1.76.83l.14,0h.06a8.65,8.65,0,0,0,1.86.23h.66l.17,0,.19,0,.26,0h1l.23,0a9,9,0,0,0,1.94-.24l.06,0,.23-.07a5.89,5.89,0,0,0,2.16-1.2l.09-.09.1-.12a3.27,3.27,0,0,0,.3-.35,3.34,3.34,0,0,0,.69-1.63,2.56,2.56,0,0,0-.1-1.24l0-.15a2.81,2.81,0,0,0-.08-.31,2.18,2.18,0,0,1-.08-.36A.9.9,0,0,0,37,29.8a1.84,1.84,0,0,1-.06-.23c0-.08,0-.16,0-.24s-.12-.44-.17-.66a7.75,7.75,0,0,0,.66-.74,3.06,3.06,0,0,0,.16-3.72,2.32,2.32,0,0,0-1.92-1.08,2.43,2.43,0,0,0-1.35.43,3.87,3.87,0,0,0-.81.76,5.53,5.53,0,0,0-1.31-.39.77.77,0,0,1,0-.21,1.43,1.43,0,0,1,0-.2,2.49,2.49,0,0,0,.09-.37v0s0,0,0-.07v0a1.23,1.23,0,0,0-.2-1,1.21,1.21,0,0,0-1-.48Z" transform="translate(0 1.55)" fill="#928e31"/>
          </g>
        </g>
      </g>
    </g>
  </g>
</svg>
