<svg xmlns="http://www.w3.org/2000/svg" width="42.32" height="42.69" viewBox="0 0 42.32 42.69">
  <g id="Layer_2" data-name="Layer 2">
    <g id="Layer_1-2" data-name="Layer 1">
      <g id="Squirrel_food_1" data-name="Squirrel_food 1">
        <g>
          <g>
            <path d="M12.32,42c-.4,0-.8,0-1.2,0a11.61,11.61,0,0,1-7.34-3,10.89,10.89,0,0,1-3-6.88,23.59,23.59,0,0,1,.76-7.28c1.16-5,2.74-8.71,5-11.61a18.25,18.25,0,0,1,2.59-2.75,11,11,0,0,1,13.38-.58,128.9,128.9,0,0,1,10.86,8.64A10.16,10.16,0,0,1,35.56,31l-.7-.22.63.35a17.75,17.75,0,0,1-7.27,6.71,38,38,0,0,1-9.34,3.21A30,30,0,0,1,12.32,42Z" fill="#e0626d"/>
            <path d="M16.13,8.55A10.14,10.14,0,0,1,22,10.43,126.22,126.22,0,0,1,32.83,19a9.45,9.45,0,0,1,2.1,11.67.83.83,0,0,1-.07.13,17,17,0,0,1-7,6.42,37.12,37.12,0,0,1-9.17,3.15,28.93,28.93,0,0,1-6.4.88c-.38,0-.77,0-1.15,0a11,11,0,0,1-6.89-2.79A10.17,10.17,0,0,1,1.49,32a22.41,22.41,0,0,1,.74-7A29.31,29.31,0,0,1,7.06,13.6,17.11,17.11,0,0,1,9.54,11a10.07,10.07,0,0,1,6.59-2.42m0-1.43h0A11.52,11.52,0,0,0,8.61,9.88a19.18,19.18,0,0,0-2.7,2.85c-3,3.93-4.33,8.67-5.08,11.89a24.27,24.27,0,0,0-.77,7.5,11.56,11.56,0,0,0,3.22,7.33,12.25,12.25,0,0,0,7.79,3.2c.41,0,.83,0,1.25,0A30.65,30.65,0,0,0,19,41.78a38.83,38.83,0,0,0,9.52-3.28,18.47,18.47,0,0,0,7.55-7l.08-.15a10.87,10.87,0,0,0-2.41-13.43A129,129,0,0,0,22.86,9.26a11.56,11.56,0,0,0-6.73-2.14Z" fill="#b92321"/>
          </g>
          <g>
            <path d="M31.74,26.62a5.17,5.17,0,0,1-3.2-1.42,12.2,12.2,0,0,1-4.16-7.73c-.33,0-.67,0-1,0A12,12,0,0,1,17,15.76a3.5,3.5,0,0,1-1.77-2.21,2.89,2.89,0,0,1,1.75-3,5.47,5.47,0,0,1,1.74-.49,9.1,9.1,0,0,1-1.35-3A4.19,4.19,0,0,1,19.1,2.52a3.68,3.68,0,0,1,1.84-.47,5,5,0,0,1,2.61.77,8.59,8.59,0,0,1,2.09,1.93,9,9,0,0,1,1-1.92,5.08,5.08,0,0,1,2.95-2A3.44,3.44,0,0,1,30.4.72a3.31,3.31,0,0,1,2.78,1.35,3.46,3.46,0,0,1,.5,2.44,4.82,4.82,0,0,1,.76-.36,4.24,4.24,0,0,1,1.37-.23,3.12,3.12,0,0,1,2.61,1.2c.75,1,.69,2.53-.17,4.06a9.81,9.81,0,0,1-2.49,2.93,10.31,10.31,0,0,1,5.1,4.06,3.31,3.31,0,0,1,.51,3.22,3.4,3.4,0,0,1-2.67,1.67,8.53,8.53,0,0,1-1.61.14,9.57,9.57,0,0,1-2.67-.38,8,8,0,0,1,.43,1.89,3.53,3.53,0,0,1-2.11,3.74A3,3,0,0,1,31.74,26.62Z" fill="#6c9433"/>
            <path d="M30.4,1.44a2.63,2.63,0,0,1,2.19,1,2.79,2.79,0,0,1,.3,2.28,8.47,8.47,0,0,1-1,2.16,8.36,8.36,0,0,1,2.79-2.09,3.36,3.36,0,0,1,1.13-.2,2.46,2.46,0,0,1,2,.91,3.14,3.14,0,0,1-.21,3.29,9,9,0,0,1-3.58,3.54,9.61,9.61,0,0,1,6.2,4.18,2.69,2.69,0,0,1,.47,2.53,2.8,2.8,0,0,1-2.14,1.27,8.25,8.25,0,0,1-1.49.13A8.59,8.59,0,0,1,33,19.43a7.82,7.82,0,0,1,1.17,3.35,2.81,2.81,0,0,1-1.63,3,2.21,2.21,0,0,1-.76.13A4.46,4.46,0,0,1,29,24.66a11.55,11.55,0,0,1-4-8,11.48,11.48,0,0,1-1.66.12,11.2,11.2,0,0,1-6-1.65,2.89,2.89,0,0,1-1.45-1.73,2.2,2.2,0,0,1,1.35-2.19,6.89,6.89,0,0,1,2.75-.5,10.16,10.16,0,0,1-2-3.8,3.49,3.49,0,0,1,1.39-3.79,2.93,2.93,0,0,1,1.48-.37,4.3,4.3,0,0,1,2.23.66,10.43,10.43,0,0,1,2.67,2.75,12.76,12.76,0,0,1,1.41-2.93A4.41,4.41,0,0,1,29.77,1.5a3.36,3.36,0,0,1,.63-.06M30.4,0a4.2,4.2,0,0,0-.93.1A5.75,5.75,0,0,0,26.1,2.4a7.07,7.07,0,0,0-.65,1.05,8.47,8.47,0,0,0-1.52-1.24,5.74,5.74,0,0,0-3-.88,4.38,4.38,0,0,0-2.19.56,4.9,4.9,0,0,0-2.08,5.35,8.51,8.51,0,0,0,.91,2.36,4.65,4.65,0,0,0-.92.34,3.61,3.61,0,0,0-2.13,3.73,4.31,4.31,0,0,0,2.09,2.69,12.65,12.65,0,0,0,6.75,1.87h.4a13,13,0,0,0,4.3,7.52,5.91,5.91,0,0,0,3.67,1.59A3.71,3.71,0,0,0,33,27.13a4.25,4.25,0,0,0,2.58-4.5,8.32,8.32,0,0,0-.13-.85,10.24,10.24,0,0,0,1.66.14,10.05,10.05,0,0,0,1.74-.15A4,4,0,0,0,42,19.7a3.89,3.89,0,0,0-.56-3.92,10.9,10.9,0,0,0-4.38-3.88,10.52,10.52,0,0,0,1.8-2.37c1-1.79,1-3.55.12-4.83a3.83,3.83,0,0,0-3.19-1.5,4.75,4.75,0,0,0-1.4.21,3.89,3.89,0,0,0-.64-1.75A4.06,4.06,0,0,0,30.4,0Z" fill="#507125"/>
          </g>
          <path d="M23.16,23.47a2.35,2.35,0,0,0-1.23.39c-.63.33-1.21,1.15-.7,1.78C22.62,27,26.06,23.83,23.16,23.47Z" fill="#f4bd34"/>
          <path d="M29,29.92a1.57,1.57,0,0,0,.25.81,1,1,0,0,0,.73.44,1.54,1.54,0,0,0,1.23-.74,3.15,3.15,0,0,0,.55-1c.21-.76-.32-1.95-1.29-1.73A2.3,2.3,0,0,0,29,29.92Z" fill="#f4bd34"/>
          <path d="M22.64,31.41a2.2,2.2,0,0,0-1.46.5,1.18,1.18,0,0,0-.47,1.25,1.12,1.12,0,0,0,.94.63,3,3,0,0,0,1.17-.18,2.36,2.36,0,0,0,1-.52C24.72,32.19,23.55,31.43,22.64,31.41Z" fill="#f4bd34"/>
          <path d="M14.28,28.07a2.51,2.51,0,0,0-1.55.89,1.22,1.22,0,0,0-.29.78,1,1,0,0,0,.82.85,2.49,2.49,0,0,0,1.27-.08,2.58,2.58,0,0,0,1.27-.68C16.83,28.68,15.38,27.91,14.28,28.07Z" fill="#f4bd34"/>
          <path d="M16,35.56a2,2,0,0,0-1.41.56,1.08,1.08,0,0,0-.36.91,1,1,0,0,0,.78.7,2.5,2.5,0,0,0,1.12-.06,2.06,2.06,0,0,0,1-.45C18,36.38,16.84,35.58,16,35.56Z" fill="#f4bd34"/>
          <path d="M14.35,20.64a2.17,2.17,0,0,0-.24,1.7,1.29,1.29,0,0,0,.8.92A1.3,1.3,0,0,0,16,23a2,2,0,0,0,.84-1.73,1.93,1.93,0,0,0-1-1.55C15.27,19.55,14.62,20.18,14.35,20.64Z" fill="#f4bd34"/>
          <path d="M10.82,14.47a1.33,1.33,0,0,0,.63,1.46,1.21,1.21,0,0,0,1,0,2,2,0,0,0,.75-.6A1.93,1.93,0,0,0,13.6,14c-.07-.7-.66-1.41-1.39-1.13A2.23,2.23,0,0,0,10.82,14.47Z" fill="#f4bd34"/>
          <path d="M6.78,22.72a1.86,1.86,0,0,0-.18,1.67,1,1,0,0,0,.54.61,1,1,0,0,0,1-.32,2,2,0,0,0,.6-1.33c0-.39-.14-1.21-.57-1.41S7,22.36,6.78,22.72Z" fill="#f4bd34"/>
          <path d="M7.5,35.35a.89.89,0,0,1-1-.8s0,0,0-.06a2.34,2.34,0,0,1,0-1.67,1.05,1.05,0,0,1,.69-.54,1.09,1.09,0,0,1,1.32.55,1,1,0,0,1,.09.21A2,2,0,0,1,7.5,35.35Z" fill="#f4bd34"/>
        </g>
      </g>
    </g>
  </g>
</svg>
