<svg xmlns="http://www.w3.org/2000/svg" width="42.38" height="42.27" viewBox="0 0 42.38 42.27">
  <g id="Layer_2" data-name="Layer 2">
    <g id="Layer_1-2" data-name="Layer 1">
      <g id="Squirrel_food_2" data-name="Squirrel_food 2">
        <g>
          <path d="M14.66,18.86C2.78,18.86,1.12,8.12.9,6a1.21,1.21,0,0,1,.3-.9,1.19,1.19,0,0,1,.87-.38h.1c.54.05,1.19.06,2,.08,4.67.1,13.38.29,18.53,10.79a1.16,1.16,0,0,1,0,1.07c-.57,1.13-3.19,1.73-4.3,1.93a23,23,0,0,1-3.68.31Z" fill="#6c9433"/>
          <path d="M2.07,5.39h0C6.27,5.77,16.27,4.17,22,15.87c.58,1.17-3.79,2-3.79,2a23,23,0,0,1-3.55.29c-11.12,0-12.8-9.77-13-12.25a.45.45,0,0,1,.45-.5M2.07,4a1.92,1.92,0,0,0-1.4.62A1.89,1.89,0,0,0,.19,6C.84,12.58,5,19.58,14.66,19.58a24.21,24.21,0,0,0,3.78-.32c1.87-.34,4.19-1,4.84-2.31a1.9,1.9,0,0,0,0-1.72C18,4.34,9,4.15,4.13,4,3.39,4,2.75,4,2.24,4Z" fill="#507125"/>
        </g>
        <g>
          <path d="M16.92,17.86a1.17,1.17,0,0,1-.86-.39c-.78-.86-.66-3.24-.57-4.22C16.74,2.34,24,.72,28.18.72A15.58,15.58,0,0,1,30.92,1a1.15,1.15,0,0,1,.79.55,1.16,1.16,0,0,1,.07,1c-.18.48-.35,1-.54,1.69C30,8.25,27.68,15.89,17.14,17.84l-.22,0Z" fill="#96b85c"/>
          <path d="M28.18,1.44a14.74,14.74,0,0,1,2.61.22.41.41,0,0,1,.32.55C29.76,5.78,28.71,15,17,17.14h-.09c-1.07,0-.72-3.83-.72-3.83C17.38,3,24.12,1.44,28.18,1.44m0-1.44c-3.57,0-12,1.28-13.4,13.15-.16,1.67-.14,3.83.75,4.81a1.87,1.87,0,0,0,1.39.62l.35,0c11-2,13.37-9.94,14.65-14.19.2-.65.37-1.2.53-1.64A1.85,1.85,0,0,0,31,.24,16.81,16.81,0,0,0,28.18,0Z" fill="#6c9433"/>
        </g>
        <g>
          <g>
            <path d="M40.78,25.24a12,12,0,0,1-9.07,9.37A11.79,11.79,0,0,1,17.42,22.69c.39-10.08,13.09-15,20.16-7.76A12,12,0,0,1,40.78,25.24Z" fill="#7850b3"/>
            <path d="M37.58,14.93a12.13,12.13,0,0,0-2-1.61A12.07,12.07,0,0,1,37.52,22a12.07,12.07,0,0,1-9.07,9.38,11.47,11.47,0,0,1-9-1.67,11.69,11.69,0,0,0,12.24,4.87,12,12,0,0,0,9.07-9.37A12,12,0,0,0,37.58,14.93Z" fill="#502390"/>
            <g>
              <path d="M37.71,26.12c-.1-.71-1.19-1.14-2.42-1h0a.33.33,0,0,1-.38-.39h0c.21-1.23-.19-2.32-.9-2.45s-1.45.78-1.66,2h0a.33.33,0,0,1-.49.24h0c-1.1-.58-2.27-.54-2.6.1s.29,1.62,1.39,2.2h0a.34.34,0,0,1,.08.54h0c-.89.87-1.21,2-.71,2.5s1.63.23,2.52-.64h0a.34.34,0,0,1,.54.1h0c.55,1.12,1.52,1.77,2.17,1.45s.71-1.48.16-2.6h0a.34.34,0,0,1,.25-.49h0C36.89,27.55,37.81,26.83,37.71,26.12Z" fill="#502390"/>
              <circle cx="33.5" cy="26.9" r="1.06" fill="#7850b3"/>
            </g>
            <path d="M21.8,19a11.3,11.3,0,0,0-3.09-1.22,11.39,11.39,0,0,0-1.29,4.88,11.88,11.88,0,0,0,9,11.89,11.4,11.4,0,0,0,1.31-6.53A12,12,0,0,0,21.8,19Z" fill="#502390"/>
          </g>
          <path d="M24.94,27.89A12.08,12.08,0,0,1,18.8,39.41a11.8,11.8,0,0,1-17-7.53c-2.4-9.8,8.46-18,17.24-13A12,12,0,0,1,24.94,27.89Z" fill="#7850b3"/>
          <path d="M19,18.87a11,11,0,0,0-2.33-1,12,12,0,0,1,4.23,7.85,12.05,12.05,0,0,1-6.14,11.51,11.43,11.43,0,0,1-9.09.87A11.7,11.7,0,0,0,18.8,39.41a12.08,12.08,0,0,0,6.14-11.52A12,12,0,0,0,19,18.87Z" fill="#502390"/>
          <g>
            <path d="M13,30.6c-.29-.65-1.45-.77-2.59-.26h0a.34.34,0,0,1-.47-.28h0c-.14-1.24-.83-2.19-1.54-2.11s-1.18,1.15-1,2.39h0a.32.32,0,0,1-.4.36h0c-1.22-.25-2.33.11-2.47.81S5.16,33,6.38,33.27h0a.33.33,0,0,1,.22.5h0C6,34.86,6,36,6.62,36.38s1.63-.23,2.25-1.32h0A.33.33,0,0,1,9.41,35h0c.84.93,1.95,1.28,2.48.8s.28-1.62-.56-2.54h0a.34.34,0,0,1,.11-.54h0C12.59,32.2,13.28,31.25,13,30.6Z" fill="#502390"/>
            <circle cx="8.35" cy="32.59" r="1.06" fill="#7850b3"/>
          </g>
        </g>
        <path d="M29.39,11.52a11.24,11.24,0,0,1,6.26,1.86l0-.06.35.26c.13.09.26.18.38.28a11.08,11.08,0,0,1,1.23,1.07A11.33,11.33,0,0,1,38.49,16a11.65,11.65,0,0,1,1.42,2.41,12,12,0,0,1,.49,1.3,12.17,12.17,0,0,1,.52,2.74,12,12,0,0,1-.14,2.8,11.88,11.88,0,0,1-10.72,9.62l-.49,0h-.46l-.71,0-.5,0a12.1,12.1,0,0,1-1.34-.23.8.8,0,0,1-.15,0h-.07l-.28-.09c-.28-.08-.57-.17-.85-.27l-.35-.13-.2-.09c-.2-.08-.4-.18-.59-.27l-.1-.05a12.3,12.3,0,0,1-5.17,5.75,13.7,13.7,0,0,1-1.52.69l-.47.15a9.35,9.35,0,0,1-1.12.31l-.49.1a10.32,10.32,0,0,1-1.35.15l-.23,0h-.3c-.42,0-.84,0-1.25-.06l-.43-.07a10.25,10.25,0,0,1-1.13-.21L10,40.36A11.33,11.33,0,0,1,8.87,40a2.85,2.85,0,0,1-.31-.12,10,10,0,0,1-1.38-.71,3.28,3.28,0,0,1-.31-.2c-.34-.22-.66-.45-1-.69-.06-.06-.13-.09-.2-.15l0,0a11.66,11.66,0,0,1-3.95-6.23c-1.9-7.75,4.5-14.49,11.61-14.49a11.13,11.13,0,0,1,3.35.51l0,0c.14,0,.28.1.41.15l.45.16c.27.11.55.24.82.38.11-.25.22-.5.34-.74h0a12.13,12.13,0,0,1,10.66-6.29m0-1.44h0A13.62,13.62,0,0,0,17.7,16.7l-.12,0-.12-.05a2.42,2.42,0,0,0-.35-.12.8.8,0,0,0-.3-.06A12.34,12.34,0,0,0,13.39,16,13.66,13.66,0,0,0,2.78,21.2a12.7,12.7,0,0,0-2.4,11A13,13,0,0,0,4.61,39a1.29,1.29,0,0,0,.17.16l.22.16c.34.27.71.53,1.09.78l.1.06.25.17A13.29,13.29,0,0,0,8,41.16l.25.1.09,0a11.81,11.81,0,0,0,1.3.45l.54.14a12.22,12.22,0,0,0,1.26.24l.13,0,.36,0a13.76,13.76,0,0,0,1.4.08h.58c.52,0,1-.09,1.54-.17l.47-.1L16,42a11.94,11.94,0,0,0,1.27-.34l.12,0,.41-.14a12.3,12.3,0,0,0,1.7-.78,13.43,13.43,0,0,0,5.14-5.14l.09,0c.3.11.62.21,1,.31l.07,0L26,36h0l.11,0,.1,0h.08a11.4,11.4,0,0,0,1.46.24l.48,0h.08c.27,0,.54,0,.81,0h.64l.43,0A13.38,13.38,0,0,0,32,36,13.55,13.55,0,0,0,42.2,25.48a13.7,13.7,0,0,0,.15-3.14,13.44,13.44,0,0,0-.58-3.06,12.17,12.17,0,0,0-.55-1.46,13,13,0,0,0-1.58-2.7,11.81,11.81,0,0,0-1-1.19,12.12,12.12,0,0,0-1.37-1.21l-.43-.31-.1-.08-.3-.22a2.44,2.44,0,0,0-.28-.14,12.75,12.75,0,0,0-6.73-1.89Z" fill="#2d0861"/>
      </g>
    </g>
  </g>
</svg>
