<svg xmlns="http://www.w3.org/2000/svg" width="86.8" height="85.3" viewBox="0 0 86.8 85.3"><g style="isolation:isolate"><g id="Layer_2" data-name="Layer 2"><g id="Layer_4" data-name="Layer 4"><g id="rabbit_clean_4" data-name="rabbit_clean 4"><path d="M62.3,5.5A9.7,9.7,0,0,1,63,19.2c-3.6,3.9-15.8,10.9-19.7,7.3S45,10.2,48.6,6.2A9.7,9.7,0,0,1,62.3,5.5Z" style="fill:#ecebed;fill-rule:evenodd"/><path d="M65.5,13.3A10.4,10.4,0,0,1,63,19.2c-3.6,3.9-15.8,10.9-19.7,7.3-2.2-1.9-1.5-6.6.2-11.1a9.3,9.3,0,0,0-.4,2.7c0,3.4,2.1,5,5.3,5.3a18.6,18.6,0,0,0,11.9-3.3A13.6,13.6,0,0,0,65.5,13.3Z" style="fill:#e3e2e2;fill-rule:evenodd"/><path d="M47.8,16c2.5,2.6,7.1.7,9.4-1.3s4.6-6.2,2-8.8S52.1,4.6,49.8,7,45.3,13.1,47.8,16Z" style="fill:#f9f9fa;fill-rule:evenodd"/><path d="M42.5,21.2c2.4-2.7,8.6,2.9,6.2,5.6L25.1,52.9l-6.2-5.7Z" style="fill:#ffeb81;fill-rule:evenodd"/><path d="M43.6,20.5c2.8-.7,7.2,3.9,5.1,6.3L25.1,52.9l-3.6-3.3.2-3.9a10.1,10.1,0,0,1,3-.1,4.1,4.1,0,0,0,3.9-1.4L45.3,25.6a2.9,2.9,0,0,0,.7-2.5,2.8,2.8,0,0,0-1.4-2.2Z" style="fill:#ffaa5a;fill-rule:evenodd;mix-blend-mode:multiply;opacity:0.5"/><path d="M6.2,67.6a9.6,9.6,0,0,0,13.6-.7c2.6-2.9,6.3-10.3,6.7-15.5a4.6,4.6,0,0,0-1.9-4.2,4.9,4.9,0,0,0-4.3-1.5c-5.2.9-12.2,5.3-14.8,8.2A9.7,9.7,0,0,0,6.2,67.6Z" style="fill:#ecebed;fill-rule:evenodd"/><path d="M6.2,67.6a9.6,9.6,0,0,0,13.6-.7c2.5-2.7,5.9-9.5,6.6-14.7-1.2,1.6-1.9,4-3.1,5.9a27.6,27.6,0,0,1-8,7.6c-5.1,3.2-8.9,2.2-11.9-2.9l-.2-.4h0A9.8,9.8,0,0,0,6.2,67.6Z" style="fill:#e3e2e2;fill-rule:evenodd"/><path d="M20.3,48.4c2.6,2,.4,6-1.9,8.1s-6.7,4.2-9.3,2.2-.9-6,1.8-8.1S17.5,46.4,20.3,48.4Z" style="fill:#f9f9fa;fill-rule:evenodd"/><path d="M42.3,23.8h0a1.1,1.1,0,0,1,0,1.6l-15.4,17a1.1,1.1,0,0,1-1.6.1h0a1.1,1.1,0,0,1,0-1.6L40.7,23.8A1.1,1.1,0,0,1,42.3,23.8Z" style="fill:#f9d3d5;fill-rule:evenodd;mix-blend-mode:screen;opacity:0.30000000000000004"/><path d="M55.8,3a9.7,9.7,0,0,1,6.5,2.5,9.9,9.9,0,0,1,3.1,8v-.2c0,.2-.1.3-.1.4s-.1.5-.1.7L65,15.5a1.4,1.4,0,0,1-.2.6,5.4,5.4,0,0,1-.5,1.1l-.2.5L63,19.2c-2.6,2.8-9.6,7.2-14.8,8.1l-21.7,24h0c0,.2-.1.5-.1.8h0c0,.2-.1.4-.1.7s-.1.6-.2.9L25.8,55l-.3.9a5.6,5.6,0,0,1-.4,1.2l-.3,1a6.1,6.1,0,0,0-.5,1.2,3.6,3.6,0,0,0-.4.9l-.6,1.2-.4.9-.6,1.1a2.5,2.5,0,0,0-.4.7l-.7,1-.4.5a6.2,6.2,0,0,1-.9,1.2.1.1,0,0,1-.1.1,9.6,9.6,0,0,1-7.1,3.2,8.7,8.7,0,0,1-3.2-.6,9.2,9.2,0,0,1-3.3-1.9A5.3,5.3,0,0,1,5,66.2l-.4-.4L4,64.7c-.1-.1-.1-.3-.2-.5a4.9,4.9,0,0,1-.4-1.1c-.1-.2-.1-.4-.2-.5v-.3h0a9.6,9.6,0,0,1,2.3-8.5c2.6-2.9,9.6-7.3,14.8-8.2L42,21.7v-.2c0-.3.1-.5.1-.8s.1-.5.1-.7.1-.6.2-.9a2.5,2.5,0,0,1,.2-.7,2.9,2.9,0,0,1,.2-.9c.1-.2.1-.5.2-.7l.4-1c0-.1.1-.2.1-.4h0a32.7,32.7,0,0,1,5.1-9.3A9.8,9.8,0,0,1,55.8,3m9.7,10.3h0M55.8,0h0a12.5,12.5,0,0,0-9.4,4.2,34.9,34.9,0,0,0-5.6,9.9v.6h-.1l-.3,1.1a1.9,1.9,0,0,0-.2.7,4.9,4.9,0,0,0-.4,1.1c0,.2-.1.5-.1.7a4.3,4.3,0,0,0-.2,1.1c-.1.2-.1.5-.2.7v.2L18.7,43A36,36,0,0,0,3.3,51.9,12.5,12.5,0,0,0,.2,62.5V63a.4.4,0,0,1,.1.3l.2.5h0c.2.5.3,1,.5,1.5a2.5,2.5,0,0,0,.4.7,7,7,0,0,0,.8,1.4h0l.4.5a12.9,12.9,0,0,0,1.6,1.7,13.4,13.4,0,0,0,4.3,2.6,14.2,14.2,0,0,0,4.2.7,12.7,12.7,0,0,0,9.4-4.2c0-.1.1-.1.1-.2l1.1-1.3.2-.4.2-.2h0l.7-1.1.3-.5.2-.2v-.2l.6-1,.4-.7v-.3h0l.6-1.1.3-.8v-.2h.1a6.1,6.1,0,0,1,.5-1.2l.3-.8v-.3c.1-.4.3-.8.4-1.3l.3-.9h0l.3-1.4a3.6,3.6,0,0,0,.2-1,.3.3,0,0,1,.1-.2,1.3,1.3,0,0,1,.1-.6L49.8,30.1c5.6-1.4,12.4-5.6,15.4-8.9a13.3,13.3,0,0,0,1.4-1.9l.3-.6H67a9.8,9.8,0,0,0,.6-1.4l.3-.8h0a5.7,5.7,0,0,0,.4-1.4,2.5,2.5,0,0,1,.1-.8v-.3a.7.7,0,0,0,.1-.5.4.4,0,0,0-.1-.3,12.4,12.4,0,0,0-4.1-9.7A12.6,12.6,0,0,0,55.8,0Z" style="fill:#ffaa5a"/><path d="M83,43a9.8,9.8,0,0,1-5,12.8c-4.9,2.1-18.9,3.5-21-1.4S65.4,40.2,70.3,38A9.7,9.7,0,0,1,83,43Z" style="fill:#ecebed;fill-rule:evenodd"/><path d="M82.7,51.5A9.9,9.9,0,0,1,78,55.8c-4.9,2.1-18.9,3.5-21-1.4-1.1-2.7,1.4-6.7,4.8-10.1a22.2,22.2,0,0,0-1.5,2.3c-1.3,3.1-.1,5.5,2.7,7s7.8,2.5,12.2,1.9A13.2,13.2,0,0,0,82.7,51.5Z" style="fill:#e3e2e2;fill-rule:evenodd"/><path d="M65.5,46.6c1.2,3.4,6.1,3.6,9.1,2.7s6.7-3.8,5.5-7.2-6-4.1-9.1-2.8S64.4,43,65.5,46.6Z" style="fill:#f9f9fa;fill-rule:evenodd"/><path d="M58.5,49.1c3.4-1.4,6.7,6.3,3.3,7.7L29.6,70.9l-3.3-7.7Z" style="fill:#e6dff7;fill-rule:evenodd"/><path d="M59.8,49c2.8.5,5,6.5,2,7.8L29.6,70.9l-1.9-4.5,1.8-3.5a11.1,11.1,0,0,1,2.7,1.2,4.5,4.5,0,0,0,4.2.3L59.2,54.3a2.8,2.8,0,0,0,1.7-2,2.8,2.8,0,0,0-.4-2.5A2.7,2.7,0,0,0,59.8,49Z" style="fill:#baa2ee;fill-rule:evenodd;mix-blend-mode:multiply;opacity:0.5"/><path d="M6.3,76.5a9.7,9.7,0,0,0,12.7,5c3.6-1.6,10-6.8,12.5-11.4,1-1.9.5-3.2-.1-4.6s-1.2-2.6-3.2-3.1c-5.1-1.3-13.4-.2-16.9,1.3A9.8,9.8,0,0,0,6.3,76.5Z" style="fill:#ecebed;fill-rule:evenodd"/><path d="M6.3,76.5a9.7,9.7,0,0,0,12.7,5c3.4-1.5,9.3-6.3,12.1-10.7-1.8,1-3.4,2.8-5.3,4.1a26.9,26.9,0,0,1-10.4,3.6c-6,.9-9-1.6-9.6-7.5v-.4h0A9.7,9.7,0,0,0,6.3,76.5Z" style="fill:#e3e2e2;fill-rule:evenodd"/><path d="M27.1,64.8c1.5,2.9-2.1,5.6-5,6.6s-7.9,1.1-9.4-1.8,1.6-5.8,4.9-6.7S25.3,61.8,27.1,64.8Z" style="fill:#f9f9fa;fill-rule:evenodd"/><path d="M57.2,51.4h0a1.1,1.1,0,0,1-.6,1.5l-21,9.2a1.2,1.2,0,0,1-1.5-.6h0a1.2,1.2,0,0,1,.6-1.5l21-9.2A1.1,1.1,0,0,1,57.2,51.4Z" style="fill:#f9d3d5;fill-rule:evenodd;mix-blend-mode:screen;opacity:0.30000000000000004"/><path d="M74.1,37.2a9.7,9.7,0,0,1,8.5,14.4c0-.1,0-.1.1-.1l-.3.3-.3.6-.7.8-.4.5-.9.8-.5.4-1.6.9a34.1,34.1,0,0,1-11.4,1.9,22.3,22.3,0,0,1-5.4-.6L31.5,70h0l-.5.7h.1l-.4.5-.6.8-.7,1-.7.7a3.9,3.9,0,0,1-.8,1l-.8.7-.9.9a4.6,4.6,0,0,0-.7.7l-1,.8-.8.6-1,.8-.7.4-1,.7-.6.4-1.3.6H19a10,10,0,0,1-3.8.8,9.8,9.8,0,0,1-6.7-2.7,8.7,8.7,0,0,1-2.2-3.1,17.7,17.7,0,0,1-.6-1.7,1.3,1.3,0,0,0-.1-.6c0-.4-.1-.8-.1-1.2v-.6c0-.4.1-.8.1-1.2s.1-.3.1-.5v-.2h0a9.7,9.7,0,0,1,5.6-6.9,34.3,34.3,0,0,1,11.5-1.9,22.9,22.9,0,0,1,5.4.6l29.6-13h.1l.5-.8.3-.5.6-.8.4-.5.6-.8c.2-.1.3-.3.5-.5a4.6,4.6,0,0,1,.7-.7l.3-.4h0A30.9,30.9,0,0,1,70.3,38a10,10,0,0,1,3.8-.8m8.6,14.3h0M74.1,34.2h0a12.5,12.5,0,0,0-5,1.1c-2.7,1.1-6.3,3.8-9.3,6.8h-.1l-.3.3h-.1l-.7.8-.5.5-.7.9-.5.6-.6.9-.5.6c0,.1,0,.1-.1.2L27.9,59.2a26.4,26.4,0,0,0-5.1-.4A35.7,35.7,0,0,0,10.1,61a12.7,12.7,0,0,0-7.2,8.4v.4c0,.1-.1.3-.1.4v.5H2.6c0,.5-.1,1-.1,1.5v.8a10,10,0,0,0,.2,1.6h0c0,.2.1.4.1.6a12.5,12.5,0,0,0,.7,2.3,14.6,14.6,0,0,0,2.9,4.1,13,13,0,0,0,8.8,3.5,12.5,12.5,0,0,0,5-1.1c.1,0,.2,0,.2-.1l1.5-.7.5-.3h.2l1.1-.7.5-.3.3-.2h.1l1-.7.5-.5.3-.2h0l1-.9.6-.5.2-.2h.1l1-.9.6-.7H30l1-1.1.6-.7h.1a7.6,7.6,0,0,0,.8-1.1l.6-.8.2-.2.3-.5L61.5,60.3a37.7,37.7,0,0,0,5.1.4,35.5,35.5,0,0,0,12.6-2.2l2.1-1.1.5-.4h.1l1.2-1,.5-.6h.1l.9-1.1.4-.7.2-.3.3-.7a13.1,13.1,0,0,0,.3-10.6,12.8,12.8,0,0,0-11.7-7.6Z" style="fill:#a7bfee"/></g></g></g></g></svg>