<svg xmlns="http://www.w3.org/2000/svg" width="86.2" height="86.3" viewBox="0 0 86.2 86.3"><g id="Layer_2" data-name="Layer 2"><g id="Layer_4" data-name="Layer 4"><g id="rabbit_clean_1" data-name="rabbit_clean 1"><path d="M13.1,82.2l-9-9A3.6,3.6,0,0,1,4,68.1L63.3,4.2,67.5,3a39.7,39.7,0,0,0,6.8,8.9,42.4,42.4,0,0,0,8.9,6.8L82,22.9,18.2,82.3A3.6,3.6,0,0,1,13.1,82.2Z" style="fill:#ffa3a1"/><path d="M74.3,11.9A39.7,39.7,0,0,1,67.5,3L63.3,4.2s.8,4.3,7.6,11.1S82,22.9,82,22.9l1.2-4.2A42.4,42.4,0,0,1,74.3,11.9Z" style="fill:#cecece"/><path d="M76.7,23.6l-3.8-3.8a5.3,5.3,0,0,1-5.4-1.1c-2.2-2.2-1-5.4-1-5.4L62.7,9.5a1.8,1.8,0,0,0-2.6.1L6.3,67.5a2.2,2.2,0,0,0,.1,3.2L15.6,80a2.3,2.3,0,0,0,3.2,0L76.7,26.2A1.8,1.8,0,0,0,76.7,23.6Zm-14,5.1a3.6,3.6,0,0,1-5.1,0h0a3.6,3.6,0,0,1,0-5.1L60.2,21a3.6,3.6,0,0,1,5.1,0h0a3.6,3.6,0,0,1,0,5.1Z" style="fill:#ffd0ce"/><path d="M29.8,42.1,6.3,67.5a2.2,2.2,0,0,0,.1,3.2L15.6,80a2.3,2.3,0,0,0,3.2,0L44.2,56.4Z" style="fill:#ffe7e6"/><path d="M77.2,24.3a2.2,2.2,0,0,1-.5.8L18.8,78.9a2.2,2.2,0,0,1-3.2,0L6.4,69.7a2.1,2.1,0,0,1-.7-1.2,2.6,2.6,0,0,0,.7,2.2L15.6,80a2.3,2.3,0,0,0,3.2,0L76.7,26.2A2,2,0,0,0,77.2,24.3Z" style="fill:#ec7670"/><path d="M66.2,14.7a8.1,8.1,0,0,1,.3-1.4l-.2-.2A4,4,0,0,0,66.2,14.7Z" style="fill:#ec7670"/><path d="M57.6,28.7h0a3.6,3.6,0,0,0,5.1,0L65,26.3a3.6,3.6,0,0,1-5.1,0h0a3.6,3.6,0,0,1,0-5.1l-2.3,2.4A3.6,3.6,0,0,0,57.6,28.7Z" style="fill:#ec7670"/><circle cx="66.4" cy="20.7" r="3.6" transform="translate(4.8 53) rotate(-45)" style="fill:#ec7670"/><circle cx="66.4" cy="19.8" r="3.6" transform="translate(5.5 52.8) rotate(-45)" style="fill:#cecece"/><path d="M67.5,3a39.7,39.7,0,0,0,6.8,8.9,42.4,42.4,0,0,0,8.9,6.8L82,22.9,18.2,82.3a3.5,3.5,0,0,1-2.5,1,3.8,3.8,0,0,1-2.6-1.1l-9-9A3.6,3.6,0,0,1,4,68.1L63.3,4.2,67.5,3m0-3h-.9L62.4,1.4a2.6,2.6,0,0,0-1.3.8L1.8,66.1A6.5,6.5,0,0,0,2,75.3l9,9.1a6.8,6.8,0,0,0,4.7,1.9,6.3,6.3,0,0,0,4.5-1.8L84.1,25.1a4.1,4.1,0,0,0,.8-1.3l1.2-4.2a2.9,2.9,0,0,0-1.5-3.5,39,39,0,0,1-8.1-6.3,46,46,0,0,1-6.4-8.2A2.9,2.9,0,0,0,67.5,0Z" style="fill:#ec7670"/></g></g></g></svg>