<svg xmlns="http://www.w3.org/2000/svg" width="86.8" height="85.7" viewBox="0 0 86.8 85.7"><g id="Layer_2" data-name="Layer 2"><g id="Layer_4" data-name="Layer 4"><g id="rabbit_clean_2" data-name="rabbit_clean 2"><path d="M51.8,81.1a2.7,2.7,0,0,0,1.2-.3l15.9-6.6,12.1-5,1-.7.2.3A2.2,2.2,0,0,1,81,71.6l-26.3,11a2.2,2.2,0,0,1-2.8-1.2C51.9,81.3,51.8,81.2,51.8,81.1Z" style="fill:#f3abc6"/><path d="M33.2,33.2l4.5-1.9h1.1L49.1,27l1.8-.7a4,4,0,0,1,1.5.3L35.2,33.7c-2.2.9-2.9,3.7-1.7,6.1l17.7,35a3.6,3.6,0,0,0,4.6,1.7l15.9-6.6a4.7,4.7,0,0,1-2.8,4.3L53,80.8a2.7,2.7,0,0,1-1.2.3A4.5,4.5,0,0,1,47,78.4L30.7,39.2A4.6,4.6,0,0,1,33.2,33.2Z" style="fill:#f9d6e7"/><path d="M35.2,33.7l17.2-7.1A4.6,4.6,0,0,1,55,29.1l5,11.8L47.1,46.3,42,36.2a3,3,0,0,0-3.8-1.4H38a3,3,0,0,0-1.3,4l4.9,9.7-1.2.5L52.3,72.8a3.3,3.3,0,0,0,4.1,1.6l14.9-6.2a3.5,3.5,0,0,1,.4,1.7L55.8,76.5a3.6,3.6,0,0,1-4.6-1.7l-17.7-35C32.3,37.4,33,34.6,35.2,33.7Z" style="fill:#f3abcc"/><path d="M41.6,48.6,53.5,72.1a3,3,0,0,0,3.8,1.4h.2a3,3,0,0,0,1.3-3.9L47.1,46.3,60,40.9,71.3,68.2,56.4,74.4a3.3,3.3,0,0,1-4.1-1.6L40.4,49.1Z" style="fill:#f08eb9"/><path d="M71.7,69.9l4.2-1.8A3.7,3.7,0,0,0,78,63.7L65.6,26.5c-.9-2.6-3.4-4-5.5-3.1l-7.7,3.2a4,4,0,0,0-1.5-.3l3.3-1.4a1.2,1.2,0,0,0,.7-.7l6.3-2.6.4-.2h3l.3.2H65l.3.2h0l.3.2h.1l.3.2h0l.3.3h0l.3.3h0l.2.3h0a.8.8,0,0,1,.2.4h0a.3.3,0,0,1,.1.2L83.4,63.2A4.5,4.5,0,0,1,82,68.5l-1,.7-12.1,5A4.7,4.7,0,0,0,71.7,69.9Z" style="fill:#f5b7c8"/><path d="M55,29.1a4.6,4.6,0,0,0-2.6-2.5l7.7-3.2c2.1-.9,4.6.5,5.5,3.1L78,63.7a3.7,3.7,0,0,1-2.1,4.4l-4.2,1.8a3.5,3.5,0,0,0-.4-1.7L74,67.1A3.4,3.4,0,0,0,75.8,63L67.3,37.9l-7.3,3Z" style="fill:#f092b1"/><path d="M67.3,37.9,75.8,63A3.4,3.4,0,0,1,74,67.1l-2.7,1.1L60,40.9Z" style="fill:#ed7aa3"/><path d="M38,34.9h.2A3,3,0,0,1,42,36.2l5.1,10.1-5.5,2.3-4.9-9.7A3,3,0,0,1,38,34.9Z" style="fill:#f8d1e4"/><path d="M47.1,46.3,58.8,69.5a3,3,0,0,1-1.3,3.9h-.2a3,3,0,0,1-3.8-1.4L41.6,48.6Z" style="fill:#f6bfd9"/><path d="M62.9,21.2h1.7l.3.2H65l.3.2h0l.3.2h.1l.3.2h0l.3.3h0l.3.3h0l.2.3h0a.8.8,0,0,1,.2.4h0a.3.3,0,0,1,.1.2L83.4,63.2A4.5,4.5,0,0,1,82,68.5l.2.3A2.2,2.2,0,0,1,81,71.6l-26.3,11h-.8a2.1,2.1,0,0,1-2-1.3c0-.1-.1-.2-.1-.3h-.6A4.6,4.6,0,0,1,47,78.4L30.7,39.2a4.6,4.6,0,0,1,2.5-6l4.5-1.9h1.1L49.1,27l1.8-.7,3.3-1.4a1.2,1.2,0,0,0,.7-.7l6.3-2.6.4-.2h1.3m0-3H61.4l-.7.2h-.1l-.6.2-6.2,2.6a2.7,2.7,0,0,0-1.2.9l-2.9,1.2-1.8.8-9.8,4.1h-.4l-1.1.3L32,30.5a7.5,7.5,0,0,0-4.1,4.1,7.3,7.3,0,0,0,0,5.8L44.2,79.5a7.7,7.7,0,0,0,5.9,4.6,5.3,5.3,0,0,0,3.8,1.6,4.1,4.1,0,0,0,1.9-.4L82.2,74.4a5,5,0,0,0,2.7-2.8,5.4,5.4,0,0,0,.4-2.2,7.5,7.5,0,0,0,.9-7.4L69.9,22.9c0-.1-.1-.2-.1-.4h-.1l-.3-.5h0l-.4-.5h-.1l-.4-.5h0c-.1-.2-.3-.3-.5-.5h0l-.5-.4h-.1l-.5-.3h-.1l-.5-.3h-.1l-.5-.3h-.1l-.6-.2H62.9Z" style="fill:#e75c78"/><path d="M31.6,8.4a1.2,1.2,0,0,1,.7-1.5l7.4-3.1,5.3,12-9.4,3.9Z" style="fill:#e2b34d"/><path d="M34.6,21.2l1.3-.5,9-3.8,2.4,5.9L37.1,27a1.4,1.4,0,0,1-1.1.1,1.6,1.6,0,0,1-.9-.9l-1.3-3A1.5,1.5,0,0,1,34.6,21.2Z" style="fill:#e2b34d"/><path d="M45,15.8l-5.3-12h0l1.7-.7a1.1,1.1,0,0,1,.8,0c.3,0,.6.3.8.6l5.2,10.7L45,15.8Z" style="fill:#df9f34"/><circle cx="36.6" cy="10.6" r="2.8" style="fill:#df9f34"/><path d="M48.7,15.4l1.3-.6a1.7,1.7,0,0,1,2,.8l1.2,3.1a1.3,1.3,0,0,1,0,1.2h0a3,3,0,0,1-.8.8L49.1,22l-1.8.8-2.4-5.9,3.8-1.5Z" style="fill:#df9f34"/><polygon points="35.6 19.7 45 15.8 45 15.8 48.2 14.4 48.2 14.4 48.7 15.4 44.9 16.9 35.9 20.7 35.6 19.7" style="fill:#a76d2c"/><circle cx="36.6" cy="10.6" r="0.6" style="fill:#a76d2c"/><path d="M41.9,3h.3c.3,0,.6.3.8.6l5.2,10.7.5,1,1.3-.6h.5a1.9,1.9,0,0,1,1.5.9l1.2,3.1a1.3,1.3,0,0,1,0,1.2h0a3,3,0,0,1-.8.8L49.1,22l-1.8.8L37.1,27l-.6.2H36a1.6,1.6,0,0,1-.9-.9l-1.3-3a1.5,1.5,0,0,1,.8-2l1.3-.5-.3-1-4-11.3a1.2,1.2,0,0,1,.7-1.5l7.4-3.1h0l1.7-.7h.5M53.2,19.9h0M41.9,0a4.1,4.1,0,0,0-1.6.3l-1.8.8-7.4,3a4.3,4.3,0,0,0-2.3,5.3l3.4,9.8A4.7,4.7,0,0,0,31,24.4l1.3,3A4.4,4.4,0,0,0,35,29.9a4,4,0,0,0,1.5.3,4.7,4.7,0,0,0,1.7-.4l10.3-4.3,1.8-.7,3.2-1.4a4.5,4.5,0,0,0,2.3-2c.1-.1.1-.3.2-.4a5.3,5.3,0,0,0,0-3.5l-1.3-3a4.5,4.5,0,0,0-4.2-2.8h-.3L45.7,2.4A4.1,4.1,0,0,0,43.1.2L41.9,0Z" style="fill:#ce894a"/><path d="M7.9,24.9a1.4,1.4,0,0,1-1.1-.6L3.9,20.9a1.4,1.4,0,0,1-.2-1.4,1.3,1.3,0,0,1,1-1l16.4-4.2h.3a1.4,1.4,0,0,1,1.4.9,1.6,1.6,0,0,1-.6,1.9L8.7,24.7Z" style="fill:#ffd0ce"/><path d="M21.4,15.8,7.9,23.4,5.1,20l16.3-4.2m0-3h-.7L4.3,17a3.7,3.7,0,0,0-2.1,2,3.1,3.1,0,0,0,.6,2.9l2.8,3.4a3.1,3.1,0,0,0,2.3,1.1A3.7,3.7,0,0,0,9.4,26l13.5-7.6a3,3,0,0,0-1.5-5.6Zm0,6Z" style="fill:#e75c78"/><path d="M9.2,42.2a1.2,1.2,0,0,1-.9-.3L2.1,37.5a1.3,1.3,0,0,1-.6-1.2,1.4,1.4,0,0,1,.6-1.2L22.7,20.5a1.1,1.1,0,0,1,.8-.3,1.6,1.6,0,0,1,1.1.5,1.4,1.4,0,0,1,.1,1.9l-14.4,19A1.3,1.3,0,0,1,9.2,42.2Z" style="fill:#ffd0ce"/><path d="M23.5,21.7,9.2,40.7,3,36.3,23.5,21.7m0-3a2.7,2.7,0,0,0-1.7.6L1.3,33.9A2.9,2.9,0,0,0,0,36.3a3.1,3.1,0,0,0,1.3,2.5l6.1,4.3a2.7,2.7,0,0,0,1.7.6,2.7,2.7,0,0,0,2.4-1.2l14.4-19a3,3,0,0,0-.2-3.9,3.1,3.1,0,0,0-2.2-.9Zm0,6Z" style="fill:#e75c78"/></g></g></g></svg>