<svg xmlns="http://www.w3.org/2000/svg" width="85.4" height="85.5" viewBox="0 0 85.4 85.5"><g id="Layer_2" data-name="Layer 2"><g id="Layer_4" data-name="Layer 4"><g id="rabbit_clean_3" data-name="rabbit_clean 3"><path d="M50.2,29.1h-.4l-2.1-.5a1.7,1.7,0,0,1-1-.6,1.7,1.7,0,0,1-.2-1.2A1.6,1.6,0,0,1,48,25.5h.5c.5,0,1-1.2,1.1-2.3s-.9-1.2-1.2-1.4a1.8,1.8,0,0,1-.7-1,1.4,1.4,0,0,1,.3-1.2A47.6,47.6,0,0,1,65.1,4.2,22.9,22.9,0,0,1,75.8,1.5c3.3,0,6.6.7,7.5,1.7a2.2,2.2,0,0,1,.6,1.6c-.1,2.8-4,13.8-10.4,18.9S53.8,29,50.6,29Z" style="fill:#baa2ee"/><path d="M75.8,3c3.5,0,6.1.9,6.5,1.3S79,17.4,72.6,22.5s-20.6,5-22.2,5h-.1L48,27.1h.5c1.9,0,2.5-2.6,2.6-3.6s-.7-2.2-1.9-2.9A47.8,47.8,0,0,1,65.9,5.5,20.7,20.7,0,0,1,75.8,3m0-3A23.8,23.8,0,0,0,64.4,2.9a49.9,49.9,0,0,0-17.7,16,2.7,2.7,0,0,0-.4,2.3,2.7,2.7,0,0,0,1.4,2l.4.2c-.1.3-.1.5-.2.6a3.8,3.8,0,0,0-1.5.5,2.8,2.8,0,0,0-1.3,1.9A3,3,0,0,0,47.4,30l2,.5h1.5c3.7,0,17.1-.5,23.5-5.6s10.8-17,11-20a3.7,3.7,0,0,0-1-2.8C82.9.7,78.9,0,75.8,0Z" style="fill:#7850b3"/><path d="M35.1,29.1h-.4c-3.3,0-16.6-.4-22.8-5.3S1.6,7.6,1.5,4.8a2.2,2.2,0,0,1,.6-1.6c.9-1,4.2-1.7,7.5-1.7A22.3,22.3,0,0,1,20.2,4.2,47.9,47.9,0,0,1,37.4,19.7a1.8,1.8,0,0,1,.3,1.2,1.6,1.6,0,0,1-.8,1c-.3.2-1.3.8-1.2,1.4s.7,2.3,1.2,2.3h.5a1.4,1.4,0,0,1,1.4,1.2,1.3,1.3,0,0,1-.2,1.2,1.5,1.5,0,0,1-.9.6l-2.1.5h-.5Z" style="fill:#baa2ee"/><path d="M9.6,3a20.7,20.7,0,0,1,9.9,2.5A47.8,47.8,0,0,1,36.2,20.6c-1.3.7-2.1,1.7-1.9,2.9s.7,3.6,2.6,3.6h.5l-2.3.5H35c-1.6,0-16.1-.1-22.2-5S2.3,5,3.1,4.3,6.1,3,9.6,3m0-3C6.5,0,2.5.7,1,2.1A3.7,3.7,0,0,0,0,4.9c.1,3,4.1,14.5,10.9,20s19.9,5.6,23.6,5.6h1.4L38,30a3,3,0,0,0,2.3-3.6A3,3,0,0,0,39,24.5a3.8,3.8,0,0,0-1.5-.5c-.1-.1-.1-.3-.2-.6l.4-.2a3,3,0,0,0,1.4-2,2.8,2.8,0,0,0-.5-2.3A49.6,49.6,0,0,0,21,2.9,23.8,23.8,0,0,0,9.6,0Z" style="fill:#7850b3"/><path d="M22.3,84a14,14,0,0,1-10.6-5C7.1,74,4.8,65.8,5.6,57.2c1.3-14,11.1-24.7,17.6-27.8,3-1.5,7.6-2.4,13.5-2.6h11c5.9.2,10.5,1.1,13.6,2.6,6.5,3.1,16.2,13.8,17.5,27.8.8,8.6-1.5,16.8-6.1,21.8a13.9,13.9,0,0,1-10.6,5Z" style="fill:#baa2ee"/><path d="M43.7,28.3h4c4.1.2,9.3.7,12.9,2.4C66.1,33.3,76,43.3,77.3,57.4S71.5,82.5,62.1,82.5H22.3c-9.4,0-16.5-11-15.2-25.1S18.4,33.3,23.8,30.7c3.6-1.7,8.8-2.2,13-2.4h6.9m0-3h-7c-6.2.2-10.9,1.1-14.2,2.7-6.8,3.3-17,14.5-18.4,29.1-.8,9,1.6,17.6,6.5,22.9a15.6,15.6,0,0,0,11.7,5.5H62.1A15.8,15.8,0,0,0,73.9,80c4.8-5.3,7.2-13.9,6.4-22.9C78.9,42.5,68.7,31.3,61.9,28Q57,25.6,47.8,25.3H43.7Z" style="fill:#7850b3"/><path d="M46.6,28.3h-1c-1.3-.1-2.5,0-3.4,0s-2-.1-3.4,0h-1c-8.6,5.9-18.2,18.8-20.9,30.2S16.7,77.9,19,82.1a12.4,12.4,0,0,0,3.3.4H62.1a11.9,11.9,0,0,0,3.3-.4c2.3-4.2,4.5-13.7,2.1-23.6S55.2,34.2,46.6,28.3Z" style="fill:#e6dff7"/><path d="M62.6,10.7a.8.8,0,0,0-1.2.2h0a36.5,36.5,0,0,1-12.1,11l-1.6.9-.3-.5L47,22h-.4a.9.9,0,0,0-.6.6.8.8,0,0,0,.2.8h0L45,24a1.1,1.1,0,0,0-.5,1.2h.1l-.2.4v.3a.8.8,0,0,0,.8.6h.2l1.3-.4a1.8,1.8,0,0,1-.5.8l-1-.3a.8.8,0,0,0-.9.4h-.1l-.4-.2-.4.3a.8.8,0,0,0-.2.6H42.2a.8.8,0,0,0-.2-.7l-.4-.2h-.5l-.4.2h-.2l-1.6.4a1.9,1.9,0,0,1-1-.8h.2a.7.7,0,0,0,.6-.3.8.8,0,0,0,.2-.8l-.3-.5h.1a.9.9,0,0,0,.1-1.2h0l.5-.3V23a1.6,1.6,0,0,0-.3-.9l-.4-.3h-.4l-.6.3a42.5,42.5,0,0,0-9.9-9l-.5-.2-.3.2a.8.8,0,0,0-.5.7.7.7,0,0,0,.4.7,39.9,39.9,0,0,1,9.6,8.7,3,3,0,0,0-.4.8c-1-.4-1.9-1-2.9-1.5l-5-3.5a.8.8,0,0,0-.8-.2c-.3.2-.5.4-.5.7v.5l.4.3A48,48,0,0,0,32.4,24a23.1,23.1,0,0,0,3.5,1.8,3.5,3.5,0,0,0,1,2,54.8,54.8,0,0,0-9.4,3.9l-.4.3v.4a.8.8,0,0,0,.4.7l.4.2h.4a56.5,56.5,0,0,1,8.8-3.7,23.4,23.4,0,0,0-6,8.8v.5l.2.3a.9.9,0,0,0,.7.3H32a.9.9,0,0,0,.6-.6,22.1,22.1,0,0,1,7.5-9.6h5.1a20,20,0,0,1,4.5,3.3,13.6,13.6,0,0,1,3.8,5.8.6.6,0,0,0,.6.5h.2l.6-.2.3-.5v-.3a15.2,15.2,0,0,0-4.2-6.5,12.4,12.4,0,0,0-2.2-1.8l2,.9a31.7,31.7,0,0,1,4.9,2.8l.4.3.4-.2a.8.8,0,0,0,.5-.7.7.7,0,0,0-.4-.7,23.8,23.8,0,0,0-5.2-3.1L48,27.4a5.5,5.5,0,0,0,.6-1.8,80.1,80.1,0,0,0,10.6-4.1.8.8,0,1,0-.7-1.5h0a81.8,81.8,0,0,1-8.2,3.2,38.3,38.3,0,0,0,9.4-7.6,39.3,39.3,0,0,0,3.1-3.8A.7.7,0,0,0,62.6,10.7Z" style="fill:#7850b3"/><path d="M38.8,29.8h-.3a3.5,3.5,0,0,1-2.1-1,5.7,5.7,0,0,1-1.1-4.2c.1-1.6,1.2-2.8,3.2-3.5a12.9,12.9,0,0,1,3.5-.5h.4a12.3,12.3,0,0,1,3.5.5c2,.7,3.2,1.9,3.2,3.5A5.7,5.7,0,0,1,48,28.8a3.5,3.5,0,0,1-2.1,1H38.8Z" style="fill:#baa2ee"/><path d="M42.4,22.1a11.2,11.2,0,0,1,3.1.5c1.2.3,2.1,1,2.1,2.1s0,3.6-2,3.6H38.8c-2,0-2.1-2.7-2-3.6s1-1.8,2.2-2.1a9.9,9.9,0,0,1,3-.5h.4m0-3H42a12.9,12.9,0,0,0-4,.6c-2.5.8-4.1,2.6-4.2,4.8a6.9,6.9,0,0,0,1.6,5.3,4.4,4.4,0,0,0,2.9,1.4h7.8a4.7,4.7,0,0,0,3-1.4,7.1,7.1,0,0,0,1.5-5.3c-.1-2.2-1.6-4-4.2-4.8a12.9,12.9,0,0,0-4-.6Z" style="fill:#7850b3"/><path d="M53.9,67.1c0,6.4-5.2,6.4-11.7,6.4s-11.7,0-11.7-6.4a15.8,15.8,0,0,1,4-10.2,11.3,11.3,0,0,1,5.7-3.8c-.3-4.5-1.8-8-3.6-8s-1.4.6-1.9,1.6c.7-2.9,1.9-4.8,3.4-4.8s4.1,4.8,4.1,10.7v.3h0v-.3c0-5.9,1.8-10.7,4.1-10.7s2.7,1.9,3.4,4.8c-.5-1-1.2-1.6-1.9-1.6s-3.3,3.5-3.6,8a11.8,11.8,0,0,1,5.7,3.7A16,16,0,0,1,53.9,67.1Z" style="fill:#f9e4e4"/><path d="M49.9,56.2c-.2,0-.3,0-.4-.2a11.2,11.2,0,0,0-5.4-3.5.6.6,0,0,1-.5-.6c.3-5,2-8.5,4.2-8.5a2.8,2.8,0,0,1,2.4,1.8c.1.1.1.1.1.2a23,23,0,0,1,.7,6,16.6,16.6,0,0,1-.5,4.4.7.7,0,0,1-.5.4Z" style="fill:#f9e4e4"/><path d="M47.8,44a2.3,2.3,0,0,1,1.9,1.5,21.2,21.2,0,0,1,.7,5.9,15.3,15.3,0,0,1-.5,4.3A11.1,11.1,0,0,0,44.2,52c.3-4.6,1.8-8,3.6-8m0-1.2c-2.9,0-4.5,4.6-4.8,9.1a1.2,1.2,0,0,0,.9,1.2A10,10,0,0,1,49,56.4a1.2,1.2,0,0,0,.9.4h.2A1.1,1.1,0,0,0,51,56a14.7,14.7,0,0,0,.6-4.6,30.2,30.2,0,0,0-.7-6.2l-.2-.3c-1-1.7-2.1-2.1-2.9-2.1Z" style="fill:#7850b3"/><path d="M34.5,56.3h-.1a1,1,0,0,1-.5-.4,17.5,17.5,0,0,1-.5-4.5,23,23,0,0,1,.7-6c0-.1,0-.1.1-.2a2.8,2.8,0,0,1,2.4-1.8c2.2,0,3.9,3.5,4.2,8.5a.6.6,0,0,1-.5.6,10.8,10.8,0,0,0-5.4,3.6A.5.5,0,0,1,34.5,56.3Z" style="fill:#f9e4e4"/><path d="M36.6,44c1.8,0,3.3,3.4,3.6,8a11.1,11.1,0,0,0-5.7,3.7,15.3,15.3,0,0,1-.5-4.3,21.2,21.2,0,0,1,.7-5.9A2.3,2.3,0,0,1,36.6,44m0-1.2c-.8,0-1.9.4-3,2.1a.4.4,0,0,1-.1.3,30.2,30.2,0,0,0-.7,6.2,14.9,14.9,0,0,0,.6,4.7,1.1,1.1,0,0,0,.9.7h.2a1.8,1.8,0,0,0,.9-.4,10.2,10.2,0,0,1,5.1-3.4,1.2,1.2,0,0,0,.9-1.2c-.3-4.5-1.9-9.1-4.8-9.1Z" style="fill:#7850b3"/><path d="M41,67.8c0-.7.5-.7,1.2-.7s1.3,0,1.3.7a1.5,1.5,0,0,1-1.3,1.5C41.5,69.3,41,68.5,41,67.8Z" style="fill:#7850b3"/><path d="M39.2,67.1a1.6,1.6,0,0,1-1.6,1.5,1.5,1.5,0,0,1-1.5-1.5,1.6,1.6,0,0,1,1.5-1.6A1.6,1.6,0,0,1,39.2,67.1Z" style="fill:#7850b3"/><path d="M45.3,67.1a1.5,1.5,0,0,0,1.5,1.5,1.5,1.5,0,0,0,1.5-1.5,1.6,1.6,0,0,0-1.5-1.6A1.5,1.5,0,0,0,45.3,67.1Z" style="fill:#7850b3"/><path d="M46.3,41.9c1.4,0,2.7,1.9,3.4,4.8a21.2,21.2,0,0,1,.7,5.9,14.5,14.5,0,0,1-.5,4.2,16,16,0,0,1,4,10.3c0,6.3-5,6.4-11.2,6.4h-.9c-6.3,0-11.3-.1-11.3-6.4a15.8,15.8,0,0,1,4-10.2,15.3,15.3,0,0,1-.5-4.3,21.2,21.2,0,0,1,.7-5.9c.7-2.9,1.9-4.8,3.4-4.8s4.1,4.8,4.1,10.7v.3h0v-.3c0-5.9,1.8-10.7,4.1-10.7m0-1.8c-1.8,0-3.1,1.3-4.1,3.3-1-2-2.3-3.3-4.1-3.3S34,42.3,33,46.2a25.5,25.5,0,0,0-.8,6.4,13.8,13.8,0,0,0,.4,3.8,18,18,0,0,0-3.9,10.7c0,3.6,1.5,6,4.4,7.2s5.6.9,8.7.9h.9c3,0,6.2,0,8.6-.9s4.4-3.6,4.4-7.2a17.4,17.4,0,0,0-3.9-10.7,14.3,14.3,0,0,0,.4-3.8,25.5,25.5,0,0,0-.8-6.4c-1-3.9-2.8-6.1-5.1-6.1Z" style="fill:#7850b3"/></g></g></g></svg>