<svg xmlns="http://www.w3.org/2000/svg" width="88.8" height="90.1" viewBox="0 0 88.8 90.1"><g style="isolation:isolate"><g id="Layer_2" data-name="Layer 2"><g id="Layer_1-2" data-name="Layer 1"><g id="Squirrel_clean_1" data-name="Squirrel_clean 1"><rect x="1" y="1.8" width="86.6" height="86.59" style="fill:none;stroke:#db9b53;stroke-miterlimit:10;mix-blend-mode:multiply"/><g id="clean_1" data-name="clean 1"><path d="M46.8,13.4l2.7,7.4-4.7,1.7L42,14.9h.6l2.7-.7,1.5-.7m0-3a2.8,2.8,0,0,0-1.5.4l-1,.5-2.2.5h-.6a3.5,3.5,0,0,0-2.1,1.5,3.1,3.1,0,0,0-.2,2.5L42,23.6a3.5,3.5,0,0,0,1.5,1.7l1.3.2h1l4.7-1.7a3.3,3.3,0,0,0,1.7-1.6,3,3,0,0,0,.1-2.3l-2.7-7.4a3.2,3.2,0,0,0-1.8-1.8l-1-.2Z" style="fill:#c3bf4f"/><path d="M64.4,30.1a11.1,11.1,0,0,1,10,6.3h0l.4,1,1.7,4.5.5,1.6L83.1,60l2.1,5.8a11.2,11.2,0,0,1-6.7,14.3L61.2,86.4a12.2,12.2,0,0,1-3.8.7A11,11,0,0,1,47,79.7l-1.5-4.1L39.7,59.7l-.6-1.6-2-5.5-.5-1.2a11.2,11.2,0,0,1,5-13.5h0l1.7-.8,17.3-6.3.5-.2a12.6,12.6,0,0,1,3.3-.5m0-3a15.4,15.4,0,0,0-4.2.7l-.6.2L42.3,34.3a18.9,18.9,0,0,0-2.1.9h0a14.1,14.1,0,0,0-6.4,17.2l.5,1.2,2,5.6.6,1.6,5.8,15.9,1.5,4.1a14.2,14.2,0,0,0,13.2,9.3,12.8,12.8,0,0,0,4.8-.9l17.4-6.3a14.2,14.2,0,0,0,7.9-7.3A14,14,0,0,0,88,64.8L85.9,59l-6-16.5-.6-1.6-1.6-4.5-.4-1a4.1,4.1,0,0,0-.5-.9,14.1,14.1,0,0,0-12.4-7.4Z" style="fill:#c3bf4f"/><path d="M46.8,13.4l2.7,7.4-4.7,1.7L42,14.9h.6l2.7-.7Z" style="fill:#9be3bb"/><path d="M60.5,29.6a5,5,0,0,1,.2,2.1l-.4.2L44.2,37.7l-1.5.7h0a4.3,4.3,0,0,1-1.3-1.9,4.8,4.8,0,0,1,1.9-5.6l.9-.5,10.2-3.7,1.2-.2A4.7,4.7,0,0,1,60.5,29.6Z" style="fill:#9be3bb"/><path d="M55.2,22.1l.6,1.7a2.9,2.9,0,0,1-.2,2.7l-1.2.2L44.2,30.4l-.9.5A3.2,3.2,0,0,1,41.4,29l-.6-1.7a3.2,3.2,0,0,1,1.9-4l8.5-3.1A3.2,3.2,0,0,1,55.2,22.1Z" style="fill:#f1f2b6"/><path d="M52.3,20a3.1,3.1,0,0,1,2.9,2.1l.6,1.7a2.9,2.9,0,0,1-.2,2.7H56a4.8,4.8,0,0,1,4.5,3.2,5,5,0,0,1,.2,2.1l-.4.2L44.2,37.7l-1.5.7h0a4.3,4.3,0,0,1-1.3-1.9,4.8,4.8,0,0,1,1.9-5.6A3.2,3.2,0,0,1,41.4,29l-.6-1.7a3.2,3.2,0,0,1,1.9-4l8.5-3.1,1.1-.2m0-3h0a6.5,6.5,0,0,0-2.1.4l-8.5,3.1a5.8,5.8,0,0,0-3.5,3.2,5.9,5.9,0,0,0-.2,4.7l.6,1.7a4.7,4.7,0,0,0,.5,1,7.5,7.5,0,0,0-.5,6.4,8.5,8.5,0,0,0,2.1,3.2,3.1,3.1,0,0,0,2,.7,2.2,2.2,0,0,0,1.1-.2l.4-.2,1.1-.4,16-5.9h.3a2.9,2.9,0,0,0,2.1-2.5,8.9,8.9,0,0,0-.4-3.6A8.3,8.3,0,0,0,59,24l-.3-1.2L58,21.1A6.1,6.1,0,0,0,52.3,17Z" style="fill:#c3bf4f"/><path d="M17.2,27.7h-.7a4.2,4.2,0,0,1-3.6-2.4,4.3,4.3,0,0,1,.4-4.2c4.1-6.1,12.3-10.6,19.9-10.8A19.4,19.4,0,0,0,38.9,9h.2a16.9,16.9,0,0,0,5.1-3.4A17.9,17.9,0,0,1,47.4,3a9.6,9.6,0,0,1,5-1.5h1.1a4,4,0,0,1,3.2,2.2,4.1,4.1,0,0,1-.1,3.6,15.2,15.2,0,0,1-7.1,6.3,15.9,15.9,0,0,1-2.7,1.2,37.1,37.1,0,0,1-4.6,1.3l-1,.2-3.3.7-3.7.7a27.5,27.5,0,0,0-8.3,2.9,5.1,5.1,0,0,0-2.4,2.4,7.2,7.2,0,0,1-5.1,4.5Z" style="fill:#c3bf4f"/><path d="M52.4,3h.9a2.5,2.5,0,0,1,2,3.7c-1.2,2.3-3.7,4.2-6.5,5.6l-2.5,1.1a36,36,0,0,1-4.4,1.2l-1,.2-7,1.4a34.1,34.1,0,0,0-8.8,3.1,6.6,6.6,0,0,0-3,3.2,5.7,5.7,0,0,1-4,3.5H16.7a2.6,2.6,0,0,1-2.1-4.3c3.7-5.6,11.4-9.9,18.6-10.1a19.1,19.1,0,0,0,6.2-1.3h.2a16.3,16.3,0,0,0,5.6-3.6,17.6,17.6,0,0,1,3-2.4A9,9,0,0,1,52.4,3m0-3h0a10.9,10.9,0,0,0-5.8,1.8,21.3,21.3,0,0,0-3.5,2.7,12.6,12.6,0,0,1-4.6,3h-.1a16.1,16.1,0,0,1-5.2,1.1c-8.1.2-16.8,5-21.1,11.5a5.7,5.7,0,0,0-.6,5.6,6,6,0,0,0,4.8,3.3h.9l1.5-.2a8.5,8.5,0,0,0,6.2-5.4A3.8,3.8,0,0,1,26.6,22a32.5,32.5,0,0,1,7.9-2.8l3.6-.7,3.4-.6,1-.3a36.1,36.1,0,0,0,4.8-1.3l2.8-1.2c2.6-1.3,6.1-3.5,7.8-7a5.2,5.2,0,0,0,.1-5,5.5,5.5,0,0,0-4.2-3Z" style="fill:#928e31"/><path d="M77,43.5l8.2,22.3a11.2,11.2,0,0,1-6.7,14.3L61.2,86.4A11.1,11.1,0,0,1,47,79.7l-7.3-20,2.5-.6.7-.2.6-.2,3.4-1,2.6-.8.5-.2.9-.3h.2l1.2-.5A114.3,114.3,0,0,0,77,43.5Z" style="fill:#f1f2b6"/><path d="M74.8,37.4l1.7,4.5A117.4,117.4,0,0,1,51.7,54.3l-1.2.5h-.2l-.9.4h-.5l-2.6.9-3.4,1h-.6l-.7.2-2.5.6-2.5-6.7a11.2,11.2,0,0,1,5-13.5h0l1.7-.8,17.3-6.3.5-.2A11.1,11.1,0,0,1,74.8,37.4Z" style="fill:#f1f2b6"/><path d="M74.4,36.4,83.1,60c-1.6,1.5-3.3,2.9-5,4.2A56.9,56.9,0,0,1,45.5,75.6l-8.4-23,2.5-.6.7-.2.6-.2,3.4-1,2.6-.8.5-.2.9-.3h.2l1.2-.4A119,119,0,0,0,74.4,36.4Z" style="fill:#9be3bb"/><path d="M60.9,66.2a2.2,2.2,0,0,0,3.4-2.9,2.2,2.2,0,1,0-3.4,2.9Z" style="fill:#9be3bb"/><path d="M72.1,59.9l-.7-1.2-.7-.9L69.5,56l-.6-.7-.4-.4h0l-.9-.8L66,53h-.2l-1-.4c-.1.1-.1,0-.2,0a8.6,8.6,0,0,0-4.2.2l.6.8a2,2,0,0,1,.4.8,1.9,1.9,0,0,1,.2.7,1.9,1.9,0,0,0-.2-.7,2,2,0,0,0-.4-.8l-.6-.8a5.9,5.9,0,0,1-1-1.7c-.1-.4-.1-.8-.2-1.3h0a.5.5,0,0,0-.8-.4c-.5.2-.6.6-.8,1.1a3.6,3.6,0,0,0-.2,1,.1.1,0,0,1-.1.1h0v-.2a.6.6,0,0,0-1.1-.2,1.1,1.1,0,0,0-.3.8,4.1,4.1,0,0,0,.2,2.9l.8,1.2L56,54.6a10.7,10.7,0,0,0-1.9,1.8H54c0,.2-.2.4-.3.6l-.2.3a5.2,5.2,0,0,0-.6,1.3l-.3,1.2v.2c.1,0,.1-.1.1-.2s0,.1-.1.2h0c-.1.3,0,.7-.1,1a2.7,2.7,0,0,1,0,.9h0l.3,1.9c.2,1.1.4,2.1.5,3.2a2.7,2.7,0,0,0,.3,1.2h0a2.1,2.1,0,0,0,.4.6A5.4,5.4,0,0,0,57,71a9.7,9.7,0,0,0,2.9.2h.3a9.6,9.6,0,0,0,2.8-.7l1.1-.4h.2l1.2-.5h.2l1.4-.5a17.4,17.4,0,0,0,2.7-1.4l.3-.3a7.8,7.8,0,0,0,2.4-2.7l.3-.9a4.1,4.1,0,0,0,.1-2.2A2.5,2.5,0,0,0,72.1,59.9Z" style="fill:#ed793e"/><path d="M53,55.6a4.9,4.9,0,0,0-1.7-.6A2.2,2.2,0,0,0,49,56.2a3.6,3.6,0,0,0,.5,4.1,7.1,7.1,0,0,0,3,1.8,2.7,2.7,0,0,0,0-.9c.1-.3,0-.7.1-1h0v-.2l.3-1.2a5.2,5.2,0,0,1,.6-1.3l.2-.3c.1-.2.3-.4.3-.6A4.1,4.1,0,0,0,53,55.6Z" style="fill:#ac462c"/><polygon points="52.6 60.1 52.6 60.1 52.6 60.1 52.6 60.1" style="fill:#ac462c"/><path d="M69.1,49.4a2.4,2.4,0,0,0-3.4.5,6.2,6.2,0,0,0-.9,2.6l1,.4H66l1.6,1,.9.8h0l.4.4.6.7a22.9,22.9,0,0,0,1-2.3A3.8,3.8,0,0,0,69.1,49.4Z" style="fill:#ac462c"/><polygon points="68.5 54.8 68.5 54.8 68.5 54.8 68.5 54.8" style="fill:#ac462c"/><path d="M67.1,64.1c-.2,0-.2.1-.2.3a1.8,1.8,0,0,1-.6,1.4,1.8,1.8,0,0,1-2.5-.2h-.1a3.4,3.4,0,0,0,1-1.6c.2-.7,0-1.1-.8-1a5.1,5.1,0,0,0-2.4.7c-.8.5-.8.9,0,1.5h.2a2.3,2.3,0,0,0,1.6.4h0v.2a1.8,1.8,0,0,1-1.8,1.8,1.7,1.7,0,0,1-1.3-.7c-.1-.2-.2-.2-.4-.1s-.1.2,0,.4l.3.3a2.1,2.1,0,0,0,1.8.6,2.7,2.7,0,0,0,1.9-1.8,2.5,2.5,0,0,0,2.7.1c.4-.1.8-.7,1-1.6v-.4A.3.3,0,0,0,67.1,64.1Z" style="fill:#58393a"/><path d="M57,61.8a2,2,0,0,0,.9,2.5,1.2,1.2,0,0,0,1.7-.8,2,2,0,0,0,0-1.1,1.6,1.6,0,0,0-.8-1A1.3,1.3,0,0,0,57,61.8Z" style="fill:#58393a"/><path d="M64.4,59.3a1.9,1.9,0,0,0,.7,2.2,1.3,1.3,0,0,0,2-.8,2.1,2.1,0,0,0-.1-1.1,4.3,4.3,0,0,0-.4-.7A1.3,1.3,0,0,0,64.4,59.3Z" style="fill:#58393a"/><path d="M67.6,48.9a3,3,0,0,1,1.5.5,3.8,3.8,0,0,1,1.4,4.3,22.9,22.9,0,0,1-1,2.3l1.2,1.8.7.9.7,1.2a2.5,2.5,0,0,1,.8,1.6,4.1,4.1,0,0,1-.1,2.2l-.3.9a7.8,7.8,0,0,1-2.4,2.7l-.3.3A17.4,17.4,0,0,1,67.1,69l-1.4.5h-.2l-1.2.5h-.2l-1.1.4a9.6,9.6,0,0,1-2.8.7h-.9A9,9,0,0,1,57,71a5.4,5.4,0,0,1-3-1.9,2.1,2.1,0,0,1-.4-.6h0a2.7,2.7,0,0,1-.3-1.2c-.1-1.1-.3-2.1-.5-3.2l-.3-1.9h0a7.1,7.1,0,0,1-3-1.8,3.6,3.6,0,0,1-.5-4.1A2.2,2.2,0,0,1,51,55h.3a4.9,4.9,0,0,1,1.7.6,4.1,4.1,0,0,1,1,.9h.1A10.7,10.7,0,0,1,56,54.6a4.1,4.1,0,0,1-.2-2.9,1.1,1.1,0,0,1,.3-.8.9.9,0,0,1,.6-.3c.2,0,.4.2.5.5v.2h.1a3.6,3.6,0,0,1,.2-1c.2-.5.3-.9.8-1.1l.4-.2c.2,0,.4.2.4.6h0c.1.5.1.9.2,1.3a5.9,5.9,0,0,0,1,1.7h0c.1.1.2.2.2.3a5.7,5.7,0,0,1,.8,1.3,5.7,5.7,0,0,0-.8-1.3c0-.1-.1-.2-.2-.3a10.9,10.9,0,0,1,2.5-.4l1.7.2h.2a6.2,6.2,0,0,1,.9-2.6,2.6,2.6,0,0,1,1.9-1m0-2a4.5,4.5,0,0,0-3.5,1.9,10.9,10.9,0,0,0-.8,1.5h-.4l-1.6.2h0v-.3a2,2,0,0,0-.1-.7h0A2.5,2.5,0,0,0,58.8,47a3,3,0,0,0-1.5.5,3.4,3.4,0,0,0-1.2,1.2,2.4,2.4,0,0,0-1.4.9,4.2,4.2,0,0,0-.9,1.6,7.1,7.1,0,0,0-.1,2.5,5.8,5.8,0,0,0-2.1-.7H51a4,4,0,0,0-3.7,2.2,5.9,5.9,0,0,0,.7,6.5,8,8,0,0,0,2.7,1.8c0,.3.1.7.1,1a25,25,0,0,1,.5,2.9,3.9,3.9,0,0,0,.5,2l.6,1a7.2,7.2,0,0,0,4.1,2.5,12.7,12.7,0,0,0,2.8.3h1.1a15.9,15.9,0,0,0,3.3-.8H64l.7-.2.7-.3.4-.2.6-.2,1-.4h.4l3.1-1.6H71l.3-.3a10.2,10.2,0,0,0,2.9-3.3.4.4,0,0,0,.1-.3c.1,0,.1-.1.1-.2l.3-.8a5.5,5.5,0,0,0,.2-3.2,4.6,4.6,0,0,0-1-2.1.3.3,0,0,0-.1-.2l-.3-.5-.4-.5-.3-.5-.2-.3a.5.5,0,0,1-.2-.4l-.6-.8.6-1.4a5.8,5.8,0,0,0-2.1-6.6,4.4,4.4,0,0,0-2.7-.9Z" style="fill:#928e31"/><path d="M15.4,65.9h-1a9.3,9.3,0,0,1-6.8-5,7.9,7.9,0,0,1,.3-7.6C15.1,41.4,16.1,37,16,35.4a1.3,1.3,0,0,1,.9-1.4l.6-.2a1.6,1.6,0,0,1,1.1.5c2.9,3,8.3,17.3,5.6,24.9C22.6,63.5,19.4,65.9,15.4,65.9Z" style="fill:#f9f2e4"/><path d="M17.5,35.3c2.8,2.9,7.7,16.5,5.2,23.3-1.2,3.6-3.7,5.8-7.3,5.8h-.9c-4-.4-8.2-5.6-5.3-10.3,6.8-11.2,8.4-16.4,8.3-18.8m0-3a2.7,2.7,0,0,0-1.2.3,2.8,2.8,0,0,0-1.8,2.9c0,.9-.4,4.7-7.8,17a9.2,9.2,0,0,0-.4,9.1,10.6,10.6,0,0,0,7.9,5.8h1.2c4.7,0,8.4-2.8,10.2-7.7,3-8.4-2.7-23.1-6-26.4a2.8,2.8,0,0,0-2.1-1Z" style="fill:#e8b19e"/><path d="M6.6,39.9a5.1,5.1,0,0,1-4.8-3,4.8,4.8,0,0,1,.6-4.6,4.4,4.4,0,0,1,3.7-2.1H9.4c4.2,0,5.4-.5,5.6-.7l.8-.2a1.7,1.7,0,0,1,1,.3,1.5,1.5,0,0,1,.5,1.6c-.7,2.2-5.5,7.9-9.6,8.5Z" style="fill:#f9f2e4"/><path d="M15.8,30.9c-.5,1.8-5,6.9-8.4,7.4H6.6a3.5,3.5,0,0,1-3.4-2.1c-.7-1.7.4-4.6,2.9-4.6H9.4c3.9,0,5.7-.4,6.4-.9m0-3a2.8,2.8,0,0,0-1.5.4c-.1.1-1.2.5-4.9.5H6.1a5.8,5.8,0,0,0-5,2.8,6.2,6.2,0,0,0-.6,5.9,6.3,6.3,0,0,0,6.1,4H7.9c4.7-.7,10-6.8,10.8-9.5a3,3,0,0,0-1-3.3,3.3,3.3,0,0,0-1.9-.6Zm0,6Z" style="fill:#e8b19e"/></g></g></g></g></g></svg>