<svg xmlns="http://www.w3.org/2000/svg" xmlns:xlink="http://www.w3.org/1999/xlink" width="89.1" height="92.1" viewBox="0 0 89.1 92.1"><defs><clipPath id="clip-path" transform="translate(0 3.2)"><path d="M41.3,60.1c-.2-16.4,9.7-29.8,22.1-30s22.5,13,22.7,29.4C86.3,71,84,79.2,76.9,84.2c-3.1,2.2-21.8,2.1-24.5.7C44.3,80.5,41.5,72.3,41.3,60.1Z" style="fill:none"/></clipPath></defs><g style="isolation:isolate"><g id="Layer_2" data-name="Layer 2"><g id="Layer_1-2" data-name="Layer 1"><g id="Squirrel_clean_3" data-name="Squirrel_clean 3"><rect x="1.5" y="4.3" width="86.6" height="86.59" style="fill:none;stroke:#db9b53;stroke-miterlimit:10;mix-blend-mode:multiply"/><g id="clean_2" data-name="clean 2"><circle cx="27.9" cy="19.7" r="8.2" style="fill:#fcd2d8;stroke:#d98885;stroke-miterlimit:10;stroke-width:3px"/><path d="M9.9,87.4a8.3,8.3,0,0,1-8.4-8.3,8.4,8.4,0,0,1,8.4-8.4h2.8a7.6,7.6,0,0,1-.1-1.5,13.7,13.7,0,0,1,27.4,0v1.5h6.1a8.4,8.4,0,0,1,8.3,8.4,8.3,8.3,0,0,1-8.3,8.3Z" transform="translate(0 3.2)" style="fill:#fcd2d8"/><path d="M26.3,57A12.2,12.2,0,0,1,38.5,69.2a15.3,15.3,0,0,1-.3,3h7.9a6.9,6.9,0,1,1,0,13.7H9.9a6.9,6.9,0,1,1,0-13.7h4.6a10.3,10.3,0,0,1-.4-3A12.2,12.2,0,0,1,26.3,57m0-3A15.2,15.2,0,0,0,11.1,69.2H9.9a9.9,9.9,0,1,0,0,19.7H46.1a9.9,9.9,0,1,0,0-19.7H41.5A15.2,15.2,0,0,0,26.3,54Z" transform="translate(0 3.2)" style="fill:#d98885"/><path d="M28.7,11.5a3.8,3.8,0,0,1,3.9,3.8" transform="translate(0 3.2)" style="fill:none;stroke:#fff;stroke-linecap:round;stroke-linejoin:round;stroke-width:3px"/><path d="M27.7,60.6a6.6,6.6,0,0,1,6.6,6.5" transform="translate(0 3.2)" style="fill:none;stroke:#fff;stroke-linecap:round;stroke-linejoin:round;stroke-width:3px"/><g style="clip-path:url(#clip-path)"><path d="M63.1,86.9c-2.1,0-9.2-.1-11.2-1.1-7.8-4.3-11.4-12.3-11.6-25.7-.1-8.2,2.2-15.9,6.5-21.7s10.3-9.2,16.6-9.3h.2c12.8,0,23.3,13.7,23.5,30.4.2,12.8-2.8,20.7-9.6,25.5C75,86.8,65.9,86.9,63.1,86.9Z" transform="translate(0 3.2)" style="fill:#dfe590"/><path d="M63.6,30.1c12.3,0,22.3,13.1,22.5,29.4C86.3,71,84,79.2,76.9,84.2c-1.7,1.2-8,1.7-13.8,1.7s-9.4-.4-10.7-1c-8.1-4.4-10.9-12.6-11.1-24.8-.2-16.4,9.7-29.8,22.1-30h.2m0-2h-.3c-6.6.1-12.7,3.6-17.3,9.7a37,37,0,0,0-6.7,22.3c.2,13.9,3.9,22.1,12.2,26.5,2.1,1.2,8.8,1.3,11.6,1.3s12.3-.2,14.9-2.1c7.2-5,10.3-13.1,10.1-26.3-.2-17.3-11.2-31.4-24.5-31.4Z" transform="translate(0 3.2)" style="fill:#c3bf4f"/><path d="M16.5,39.7C16.2,16.2,30.4-3,48.1-3.2S80.5,15.4,80.8,38.9c.2,16.4-3.1,28.2-13.3,35.4-4.4,3.1-31.2,3.1-35.1,1C20.8,69,16.7,57.3,16.5,39.7Z" transform="translate(0 3.2)" style="fill:#fcf6e8"/></g><path d="M63.6,30.1c12.3,0,22.3,13.1,22.5,29.4C86.3,71,84,79.2,76.9,84.2c-1.7,1.2-8,1.7-13.8,1.7s-9.4-.4-10.7-1c-8.1-4.4-10.9-12.6-11.1-24.8-.2-16.4,9.7-29.8,22.1-30h.2m0-3h-.3c-6.9.1-13.3,3.7-18.1,10.1a38.3,38.3,0,0,0-6.9,22.9C38.4,69.7,40,81.5,51,87.5c2.1,1.2,7.8,1.4,12.1,1.4s12.9-.4,15.5-2.2C88.1,80,89.2,68.6,89.1,59.5s-2.7-16.6-7.3-22.6-11.3-9.8-18.2-9.8Z" transform="translate(0 3.2)" style="fill:#c3bf4f"/><rect x="59.9" y="14" width="7.3" height="11.71" transform="translate(127.4 42) rotate(179.2)" style="fill:#fff;stroke:#dfe590;stroke-linecap:round;stroke-linejoin:round;stroke-width:3px"/><rect x="51.2" y="25.1" width="25.1" height="10.95" rx="2.1" transform="translate(0 3.3) rotate(-0.1)" style="fill:#c3bf4f;stroke:#928e31;stroke-linecap:round;stroke-linejoin:round;stroke-width:3px"/><path d="M70.2,1.5H42.6A1.6,1.6,0,0,0,41,3.1V6.7a1.5,1.5,0,0,0,1.6,1.5h6.2a6.7,6.7,0,0,1,6.7,6.7H70.2a1.5,1.5,0,0,0,1.5-1.5V3A1.5,1.5,0,0,0,70.2,1.5Z" transform="translate(0 3.2)" style="fill:#c3bf4f;stroke:#928e31;stroke-linecap:round;stroke-linejoin:round;stroke-width:3px"/><path d="M75.9,64.7a4.7,4.7,0,0,1-.4-1.6,6.5,6.5,0,0,1-.4-1.3l-.6-2.6a3.6,3.6,0,0,1-.4-.9,1.1,1.1,0,0,0-.3-.7h0l-.3-.3.3.3a6.7,6.7,0,0,0-.6-1.2,6.2,6.2,0,0,0-1.4-1.8c-.1-.1-.2-.1-.2-.2a8.1,8.1,0,0,1-1-.9c-.1.1-.1,0-.2,0a10.5,10.5,0,0,0-4.8-1.6l.3,1.1a5,5,0,0,1,.2,1.2,2.2,2.2,0,0,1-.1.8,2.2,2.2,0,0,0,.1-.8,5,5,0,0,0-.2-1.2l-.3-1.1a8.6,8.6,0,0,1-.5-2.3c.1-.5.3-1,.4-1.5s-.1-.1,0-.1h0c.2-.7-.1-1-.8-.9a2.2,2.2,0,0,0-1.2.9,10.5,10.5,0,0,1-.8,1.1h0a.4.4,0,0,0-.1-.3c0-.7-.5-1-1.1-.6a1.2,1.2,0,0,0-.7.7,5.2,5.2,0,0,0-.9,3.4,4.5,4.5,0,0,0,.3,1.6,4.5,4.5,0,0,1-.3-1.6A14.8,14.8,0,0,0,57,53.4h-.1c-.2.3-.5.4-.7.6l-.4.3a13.1,13.1,0,0,0-1.1,1.2,3.8,3.8,0,0,0-.9,1.3c0,.1-.1.1,0,.2s.1-.1.2-.2-.2.1-.2.2h0a3.9,3.9,0,0,0-.6,1.1,4.2,4.2,0,0,1-.4,1v.2a14.2,14.2,0,0,0-.5,2.2c-.2,1.3-.4,2.5-.7,3.8a2.2,2.2,0,0,0-.2,1.4h0a2.4,2.4,0,0,0,.2.9,6,6,0,0,0,2.7,3.4,8.7,8.7,0,0,0,3.1,1.4h.3a13.9,13.9,0,0,0,3.5.4h1.7a3.3,3.3,0,0,1,1.4-.1h2.1a20.8,20.8,0,0,0,3.6-.5l.5-.2a9.5,9.5,0,0,0,3.8-2.1l.8-.8a6,6,0,0,0,1-2.5A5.3,5.3,0,0,0,75.9,64.7Z" transform="translate(0 3.2)" style="fill:#ed793e"/><path d="M56,52a4.2,4.2,0,0,0-1.6-1.3,2.6,2.6,0,0,0-3.1.4A4.4,4.4,0,0,0,50.2,56a8,8,0,0,0,2.6,3.2,4.2,4.2,0,0,0,.4-1,3.9,3.9,0,0,1,.6-1.1c-.1-.1-.1-.1,0-.1s0-.1,0-.2a3.8,3.8,0,0,1,.9-1.3,13.1,13.1,0,0,1,1.1-1.2l.4-.3c.2-.2.5-.3.7-.6Z" transform="translate(0 3.2)" style="fill:#ac462c"/><polygon points="53.8 60.2 53.8 60.2 53.8 60.2 53.8 60.2" style="fill:#ac462c"/><path d="M76.8,51.7a2.8,2.8,0,0,0-4.1-.8,6.4,6.4,0,0,0-2.1,2.5,8.1,8.1,0,0,0,1,.9c0,.1.1.1.2.2a6.2,6.2,0,0,1,1.4,1.8,6.7,6.7,0,0,1,.6,1.2h0a1.1,1.1,0,0,1,.3.7,3.6,3.6,0,0,0,.4.9,13.4,13.4,0,0,0,2-2.1A4.5,4.5,0,0,0,76.8,51.7Z" transform="translate(0 3.2)" style="fill:#ac462c"/><polygon points="73.8 60.8 73.8 60.8 73.8 60.8 73.8 60.8" style="fill:#ac462c"/><path d="M68.4,67.5c-.2-.1-.3,0-.3.2A1.9,1.9,0,0,1,66.8,69a2,2,0,0,1-2.7-1.2v-.2h0a3.2,3.2,0,0,0,1.8-1.4c.6-.7.4-1.2-.4-1.5a6.1,6.1,0,0,0-3-.1c-1.2.2-1.3.7-.7,1.7l.2.2a3.1,3.1,0,0,0,1.6,1.1h0v.2A2.1,2.1,0,0,1,60.6,69a2,2,0,0,1-1.2-1.3c0-.2-.1-.3-.3-.2s-.3.2-.3.4l.2.5a2.5,2.5,0,0,0,1.8,1.4,3.2,3.2,0,0,0,2.9-1.3,3.5,3.5,0,0,0,2.9,1.3,2.5,2.5,0,0,0,1.9-1.4l.2-.5C68.7,67.7,68.7,67.5,68.4,67.5Z" transform="translate(0 3.2)" style="fill:#58393a"/><path d="M58,60.7a2.2,2.2,0,0,0,0,3.2,1.5,1.5,0,0,0,2.3-.2,3.3,3.3,0,0,0,.4-1.3,2.7,2.7,0,0,0-.5-1.5A1.7,1.7,0,0,0,58,60.7Z" transform="translate(0 3.2)" style="fill:#58393a"/><path d="M67.4,60.9a2.3,2.3,0,0,0-.1,2.8,1.5,1.5,0,0,0,2.5-.1,1.9,1.9,0,0,0,.4-1.2,3.6,3.6,0,0,0-.2-1.1A1.5,1.5,0,0,0,67.4,60.9Z" transform="translate(0 3.2)" style="fill:#58393a"/><path d="M65,47c.5,0,.7.3.5.9h0c-.1,0-.1.1,0,.1s-.3,1-.4,1.5a8.6,8.6,0,0,0,.5,2.3h0a.4.4,0,0,1,.1.3,14.2,14.2,0,0,1,.4,2,14.2,14.2,0,0,0-.4-2,.4.4,0,0,0-.1-.3,10.5,10.5,0,0,1,4.8,1.6h.2a6.4,6.4,0,0,1,2.1-2.5,3.2,3.2,0,0,1,1.7-.6,2.9,2.9,0,0,1,2.4,1.4,4.5,4.5,0,0,1-.3,5.4,13.4,13.4,0,0,1-2,2.1l.6,2.6a6.5,6.5,0,0,0,.4,1.3,4.7,4.7,0,0,0,.4,1.6,5.3,5.3,0,0,1,.2,2.2,6,6,0,0,1-1,2.5l-.8.8a9.5,9.5,0,0,1-3.8,2.1l-.5.2a20.8,20.8,0,0,1-3.6.5H61.1a13.2,13.2,0,0,1-3.4-.4h-.3a8.7,8.7,0,0,1-3.1-1.4,6,6,0,0,1-2.7-3.4,2.4,2.4,0,0,1-.2-.9h0a2.2,2.2,0,0,1,.2-1.4c.3-1.3.5-2.5.7-3.8a14.2,14.2,0,0,1,.5-2.2v-.2A8,8,0,0,1,50.2,56a4.4,4.4,0,0,1,1.1-4.9,2.6,2.6,0,0,1,1.8-.7,3.1,3.1,0,0,1,1.3.3A4.2,4.2,0,0,1,56,52l.9,1.4H57a14.8,14.8,0,0,1,2.9-1.2,5.2,5.2,0,0,1,.9-3.4,1.2,1.2,0,0,1,.7-.7l.5-.2c.3,0,.6.3.6.8a.4.4,0,0,1,.1.3h0a10.5,10.5,0,0,0,.8-1.1,2.2,2.2,0,0,1,1.2-.9H65m0-2h-.7a5.2,5.2,0,0,0-1.8,1H62a2.3,2.3,0,0,0-1.4.4,3.3,3.3,0,0,0-1.5,1.4,7.9,7.9,0,0,0-1.2,3l-.3.2h0a5.9,5.9,0,0,0-2.3-1.9,4.2,4.2,0,0,0-2.2-.5A4.7,4.7,0,0,0,50,49.6a6.3,6.3,0,0,0-1.7,7.1,10.9,10.9,0,0,0,2.3,3.2l-.3,1.4a15.5,15.5,0,0,1-.7,3.5,5.1,5.1,0,0,0-.2,2.3,10.4,10.4,0,0,0,.3,1.2,8.1,8.1,0,0,0,3.4,4.4,15.9,15.9,0,0,0,3.7,1.8h.5a17.6,17.6,0,0,0,3.8.4h5.4a18.4,18.4,0,0,0,4-.6h.6a14.1,14.1,0,0,0,4.5-2.5l.2-.2c.1-.1.2-.2.2-.3l.7-.7a8.3,8.3,0,0,0,1.4-3.4,5.2,5.2,0,0,0-.2-2.6c0-.1-.1-.2-.1-.3a1.4,1.4,0,0,0-.2-.7c0-.3-.1-.5-.1-.7s-.1-.4-.2-.6a4.3,4.3,0,0,1-.1-.5.9.9,0,0,1-.1-.5,7.4,7.4,0,0,1-.4-1.4l1.4-1.5a6.3,6.3,0,0,0,.3-7.8,4.8,4.8,0,0,0-4-2.3,5.8,5.8,0,0,0-2.8.9,12.9,12.9,0,0,0-1.7,1.6L67.2,50c0-.1-.1-.3-.1-.4a.8.8,0,0,1,.2-.4c0-.3.1-.5.1-.8h.1a2.9,2.9,0,0,0-.4-2.1A2.5,2.5,0,0,0,65,45Z" transform="translate(0 3.2)" style="fill:#928e31"/></g></g></g></g></g></svg>