<svg xmlns="http://www.w3.org/2000/svg" xmlns:xlink="http://www.w3.org/1999/xlink" width="87.7" height="87.9" viewBox="0 0 87.7 87.9"><defs><clipPath id="clip-path"><path d="M8.3,22.6c0,3.9,15.9,7.1,35.6,7.1s35.7-3.2,35.7-7.1-16-7.1-35.7-7.1S8.3,18.7,8.3,22.6Z" style="fill:none"/></clipPath></defs><g style="isolation:isolate"><g id="Layer_2" data-name="Layer 2"><g id="Layer_1-2" data-name="Layer 1"><g id="Squirrel_clean_2" data-name="Squirrel_clean 2"><rect x="0.5" y="0.8" width="86.6" height="86.59" style="fill:none;stroke:#db9b53;stroke-miterlimit:10;mix-blend-mode:multiply"/><g id="clean_4" data-name="clean 4"><path d="M43.9,14.1c22.6,0,40.8,4,40.8,8.9a1.3,1.3,0,0,1-.1.6L83,33.7l-.7,3.9h0v1.3l-.2,1.3v.6L81.5,43l-.2.8v1l-.2.9-2.3,14-.3,1.9-.5,2.8-.3,1.9-.3,2h0a12.3,12.3,0,0,1-4.1,6.9l-.9.9a32,32,0,0,1-9.2,5.1l-.9.3a51.3,51.3,0,0,1-8.6,2.3h-.8a57.3,57.3,0,0,1-8.5.7H43.1a70.3,70.3,0,0,1-8-.4l-.8-.2a43.4,43.4,0,0,1-8.6-1.9l-.9-.3A30.1,30.1,0,0,1,15.7,77l-1-.8c-2.7-2.5-4.2-5.3-4.3-8.4v-.3l-.2-1.2h0l-.3-1.9-.4-2.8-.3-1.9-2.4-14v-.9l-.2-1V43L6,40.8v-.6l-.2-1.3V37.3l-.6-3.6L3.2,23.6a1.3,1.3,0,0,1-.1-.6h0c0-4.9,18.3-8.9,40.8-8.9m0-3a146.9,146.9,0,0,0-29.5,2.7C4.7,15.9.1,18.8.1,23a5,5,0,0,0,.2,1.2l1.6,10,.6,3.6.2,1.1v.5L3,40.7v.6l.3,2.2.2.8v1l.2.9,2.3,14L6.5,62,7,64.9l.3,1.8h0v.9h0c.1,3.9,1.9,7.5,5.3,10.6a12.7,12.7,0,0,0,1.2,1,33.6,33.6,0,0,0,10,5.3h0l.9.3a48.6,48.6,0,0,0,9.1,2h.8a60.1,60.1,0,0,0,8.4.5h1.5a62.5,62.5,0,0,0,8.6-.8h.9a50.5,50.5,0,0,0,9.1-2.3l1-.4a36.7,36.7,0,0,0,10-5.6l1.1-1a16.1,16.1,0,0,0,4.9-8.3.6.6,0,0,1,.1-.4l.3-1.9.3-1.9.5-2.9.3-1.8,2.3-14v-.9l.2-1v-.8l.4-2.2v-.6l.2-1.3V38.1l.6-3.9,1.7-9.9a5.7,5.7,0,0,0,.1-1.3c0-4.1-4.5-7.1-14.3-9.2a146.9,146.9,0,0,0-29.5-2.7Z" style="fill:#6a3417"/></g><g id="clean_4-2" data-name="clean 4"><path d="M3.1,23,5.6,38.4v.5l.2,1.3v.6L6.4,43v.8l.2,1v.9l2.4,14,.3,1.9.4,2.8.3,1.9h0l.2,1.2v.3c.1,3.1,1.6,5.9,4.3,8.4l1,.8a30.1,30.1,0,0,0,9.1,4.8l.9.3A43.4,43.4,0,0,0,34.3,84l.8.2a57.7,57.7,0,0,0,8.4.4h.8a57.3,57.3,0,0,0,8.5-.7h.8a51.3,51.3,0,0,0,8.6-2.3l.9-.3a32,32,0,0,0,9.2-5.1l.9-.9a12.3,12.3,0,0,0,4.1-6.9h0l.3-2,.3-1.9.5-2.8.3-1.9,2.3-14,.2-.9v-1l.2-.8.3-2.2v-.6l.2-1.3v-.5L84.7,23l-4.4.4H79.2L68.3,24.6H67.2l-1.7.2-9.2.8H55.2l-10.7,1H43.4l-10.8-1h-1l-10.9-1H19.6l-11-1.1H7.5Z" style="fill:#c96833"/><g style="mix-blend-mode:multiply;opacity:0.30000000000000004"><path d="M72.3,76.1l.9-.9,7.1-51.8H79.2Z" style="fill:#633319;mix-blend-mode:multiply"/><path d="M62.2,81.5l.9-.3,5.2-56.6H67.2Z" style="fill:#633319;mix-blend-mode:multiply"/><path d="M52.8,83.9h.8l2.7-58.1H55.2Z" style="fill:#633319;mix-blend-mode:multiply"/><path d="M43.4,26.8V84.6h.8l.2-57.8H43.4Z" style="fill:#633319;mix-blend-mode:multiply"/><path d="M31.6,25.7,34.3,84l.8.2L32.6,25.8Z" style="fill:#633319;mix-blend-mode:multiply"/><path d="M19.6,24.6l5.2,57.2.9.3-5-57.4Z" style="fill:#633319;mix-blend-mode:multiply"/><path d="M7.5,23.4l7.2,52.8,1,.8L8.6,23.5Z" style="fill:#633319;mix-blend-mode:multiply"/></g><path d="M4.9,33.7l.6,3.9c26.9,8.6,49.8,8.6,76.8,0l.7-3.9C55.3,43,32.4,42.9,4.9,33.7Z" style="fill:#ebaa50"/><path d="M3.1,23c0,4.9,18.3,8.9,40.8,8.9s40.8-4,40.8-8.9-18.2-8.9-40.8-8.9S3.1,18.1,3.1,23Z" style="fill:#f4c37d"/><g style="clip-path:url(#clip-path)"><path d="M75,19.1h0A28.3,28.3,0,0,0,71,18h0l-4.9-1h-.2l-1.7-.2h-.1l-1.9-.2h-.1l-1.8-.2h-.4l-1.8-.2H58l-2.1-.2h-12a134.9,134.9,0,0,0-25.2,2.1c-6.5,1.3-10.4,3-10.4,5h0V23a.1.1,0,0,0,.1.1v.3c0,.1.1.1.1.2l.2.3c.1,0,.1,0,.1.1l.5.4h.1l.5.4h.2l.5.3h.2l.7.3h.1l1,.4h0l1,.4h.2l1,.3h.2l4.1.9h.1l1.6.3h0a148.3,148.3,0,0,0,23,1.7c19.7,0,35.7-3.2,35.7-7.1C79.6,21.3,77.9,20.1,75,19.1Z" style="fill:#a8662f;mix-blend-mode:multiply"/><path d="M43.9,30.7H38.8l-7.4-.4h-.5L28.4,30A96.1,96.1,0,0,1,17,28.3h-.1A27.8,27.8,0,0,1,11,26.4h-.1l-.9-.5H9.8a1.2,1.2,0,0,1-.4-.8.8.8,0,0,1,.6-.8c5.3-2.9,18.6-4.8,33.9-4.8,4.7,0,9.2.2,13.4.5h1.1l2.1.2h.4l1.8.2h.5l1.7.2h.5l1.5.2h.5l1.4.3h.4l1.3.2h.4l1.3.3h.3l1.2.3H74l.9.3h.4l.4.2.9.3h.2l.5.2.6.4a.9.9,0,0,1,.5.8v.3c-.1.2-.2.5-.5.6l-.5.3c-2.6,1.3-7,2.4-12.6,3.2h-.2A161.6,161.6,0,0,1,43.9,30.7Z" style="fill:#98d9e4"/><path d="M43.9,20.4c4.7,0,9.2.2,13.3.5h1.2l2,.2h.4l1.8.2h.5l1.6.2h.5l1.5.2h.5l1.4.3h.5l1.2.3h.4l1.2.3h.3l1.3.3h.1a.1.1,0,0,0,.1.1l.9.2.4.2h.4l.8.3h.2l.4.2.4.2h.2l-.5.3c-2.5,1.2-6.9,2.3-12.3,3.1h-.1a154.2,154.2,0,0,1-20.6,1.3H38.8l-7.3-.4H31L28.5,29a96.1,96.1,0,0,1-11.4-1.7h0a35.2,35.2,0,0,1-5.7-1.8.1.1,0,0,1-.1-.1l-.9-.4h0c5-2.7,18.1-4.6,33.5-4.6m0-2c-15.4,0-28.9,1.9-34.4,4.9a1.9,1.9,0,0,0-1.1,1.8,1.8,1.8,0,0,0,1.1,1.7l1,.5h.1a29.5,29.5,0,0,0,6.1,1.9h.1A82,82,0,0,0,28.3,31l2.5.2h.6l7.3.4h5.2a163.2,163.2,0,0,0,20.8-1.3h.2c4-.5,9.5-1.6,12.9-3.2l.6-.3a2.1,2.1,0,0,0,1-1.7v-.5a2.1,2.1,0,0,0-1-1.3h-.3l-.4-.2-.5-.2H77l-.9-.3-.4-.2h-.1l-.4-.2-.9-.2H74l-1.3-.4h-.3l-1.2-.3h-.5l-1.3-.2H69l-1.4-.3h-.5l-1.6-.3H65l-1.7-.2h-.4L61,19.2h-.3L58.6,19H57.4c-4.2-.3-8.8-.5-13.5-.5Z" style="fill:#5576b4"/></g><path d="M56.4,66a4.7,4.7,0,0,1-.4-1.6,6.5,6.5,0,0,1-.4-1.3,26.8,26.8,0,0,0-.7-2.7l-.3-1c-.1-.2-.1-.4-.3-.6h-.1l-.3-.4.3.4a3.1,3.1,0,0,0-.6-1.3,8.5,8.5,0,0,0-1.4-1.9.2.2,0,0,1-.2-.2,2.8,2.8,0,0,1-1-.9c-.1.1-.2,0-.3,0a9.5,9.5,0,0,0-4.9-1.6,2.3,2.3,0,0,1,.3,1.1,5,5,0,0,1,.2,1.2,2.8,2.8,0,0,1-.1.9,2.8,2.8,0,0,0,.1-.9,5,5,0,0,0-.2-1.2,2.3,2.3,0,0,0-.3-1.1,10.3,10.3,0,0,1-.5-2.4c.1-.5.3-1,.4-1.5s-.1-.1,0-.1h0c.2-.7-.1-1-.8-.9a2.2,2.2,0,0,0-1.3,1l-.8,1.1h0v-.4a.8.8,0,0,0-1.2-.6,2.7,2.7,0,0,0-.8.7,5.7,5.7,0,0,0-.9,3.6,9.4,9.4,0,0,0,.4,1.6,9.4,9.4,0,0,1-.4-1.6A10.5,10.5,0,0,0,37,54.4h-.2c-.1.2-.4.3-.7.5s-.2.3-.4.3a15,15,0,0,0-1.1,1.3,3.8,3.8,0,0,0-.9,1.3c0,.1-.1.1-.1.2l.3-.2-.3.2h0L33,59.3a4.5,4.5,0,0,1-.3,1.1.1.1,0,0,1-.1.1c-.2.8-.4,1.6-.5,2.3a26.6,26.6,0,0,1-.7,3.9,2.6,2.6,0,0,0-.2,1.5h0a2.9,2.9,0,0,0,.2.9,6.9,6.9,0,0,0,2.8,3.5,13.3,13.3,0,0,0,3.2,1.5h.3a14.9,14.9,0,0,0,3.6.5h5.4a15.7,15.7,0,0,0,3.7-.5h.5a12.6,12.6,0,0,0,3.9-2.2,7.1,7.1,0,0,0,.7-.9,3.8,3.8,0,0,0,1.1-2.5A6,6,0,0,0,56.4,66Z" style="fill:#ed793e"/><path d="M36,53a5.2,5.2,0,0,0-1.6-1.4,2.9,2.9,0,0,0-3.2.4A4.5,4.5,0,0,0,30,57a9.9,9.9,0,0,0,2.7,3.4,4.9,4.9,0,0,0,.4-1.1,6,6,0,0,1,.6-1.1c-.1,0-.1-.1,0-.1v-.2l.9-1.3,1.2-1.3c.2,0,.3-.2.4-.3l.7-.5C36.6,53.9,36.3,53.5,36,53Z" style="fill:#ac462c"/><polygon points="33.7 58.1 33.7 58.1 33.7 58.1 33.7 58.1" style="fill:#ac462c"/><path d="M57.3,52.7a2.8,2.8,0,0,0-4.1-.9A7.8,7.8,0,0,0,51,54.4a3.1,3.1,0,0,0,1.1.9.3.3,0,0,0,.1.2,9,9,0,0,1,1.5,1.9,5.2,5.2,0,0,1,.6,1.3h0a.9.9,0,0,1,.3.6,3,3,0,0,0,.4,1,11,11,0,0,0,2.1-2.2A4.5,4.5,0,0,0,57.3,52.7Z" style="fill:#ac462c"/><polygon points="54.3 58.7 54.3 58.7 54.3 58.7 54.3 58.7" style="fill:#ac462c"/><path d="M48.7,68.9c-.2-.1-.3,0-.4.2a1.9,1.9,0,0,1-1.2,1.4,2.1,2.1,0,0,1-2.8-1.3V69h0a3.8,3.8,0,0,0,1.9-1.4c.5-.7.4-1.3-.5-1.5a6.5,6.5,0,0,0-3.1-.2c-1.2.3-1.3.8-.7,1.7l.2.3A3.1,3.1,0,0,0,43.6,69h0v.2a2.1,2.1,0,0,1-2.8,1.3,1.9,1.9,0,0,1-1.2-1.4c-.1-.2-.2-.3-.4-.2s-.3.2-.2.4a.8.8,0,0,0,.2.5,3,3,0,0,0,1.8,1.5,3.3,3.3,0,0,0,3-1.4,3.3,3.3,0,0,0,3,1.4,3.2,3.2,0,0,0,1.9-1.5c.1-.1.1-.3.2-.5S49,68.9,48.7,68.9Z" style="fill:#58393a"/><path d="M38,62a2.3,2.3,0,0,0-.1,3.2,1.6,1.6,0,0,0,2.4-.2,2.2,2.2,0,0,0,.4-1.3,1.8,1.8,0,0,0-.5-1.5A1.5,1.5,0,0,0,38,62Z" style="fill:#58393a"/><path d="M47.6,62.1a2.6,2.6,0,0,0-.1,2.9,1.6,1.6,0,0,0,2.7-.1,2.8,2.8,0,0,0,.3-1.3,1.6,1.6,0,0,0-.2-1A1.6,1.6,0,0,0,47.6,62.1Z" style="fill:#58393a"/><path d="M45.2,47.8q.8,0,.6.9h-.1a8,8,0,0,0-.3,1.5,5.2,5.2,0,0,0,.5,2.4h0a.4.4,0,0,0,.1.3,6.4,6.4,0,0,1,.3,2,6.4,6.4,0,0,0-.3-2,.4.4,0,0,1-.1-.3,9.8,9.8,0,0,1,4.9,1.6H51a7.8,7.8,0,0,1,2.2-2.6,3.4,3.4,0,0,1,1.7-.5,2.8,2.8,0,0,1,2.4,1.4,4.5,4.5,0,0,1-.2,5.5A11,11,0,0,1,55,60.4a26.8,26.8,0,0,0,.7,2.7,6.1,6.1,0,0,0,.3,1.3l.4,1.6a4.6,4.6,0,0,1,.3,2.3,5.2,5.2,0,0,1-1.1,2.5l-.8.9a10.7,10.7,0,0,1-3.9,2.2h-.5a15,15,0,0,1-3.7.5H41.3a13.4,13.4,0,0,1-3.5-.5h-.3a12.4,12.4,0,0,1-3.3-1.5,6.9,6.9,0,0,1-2.8-3.5c-.1-.3-.1-.6-.2-.9h0a3.9,3.9,0,0,1,.2-1.5,27,27,0,0,0,.8-3.9c.1-.7.3-1.5.5-2.3h0A9.9,9.9,0,0,1,30,57a4.5,4.5,0,0,1,1.2-5,2.4,2.4,0,0,1,1.8-.7,3.5,3.5,0,0,1,1.4.3A5.2,5.2,0,0,1,36,53c.3.5.6.9.9,1.5a.1.1,0,0,0,.1-.1,9.9,9.9,0,0,1,3-1.2,5.7,5.7,0,0,1,.9-3.6,2.3,2.3,0,0,1,.7-.7h.5a.7.7,0,0,1,.7.7v.4h.1l.7-1.1a2.8,2.8,0,0,1,1.4-1h.2m0-2h-.6a3.8,3.8,0,0,0-1.9.9h-.6l-1.4.3a4,4,0,0,0-1.5,1.4A9.6,9.6,0,0,0,38,51.7l-.4.2h0a7.6,7.6,0,0,0-2.4-2,5.4,5.4,0,0,0-2.2-.5,4.7,4.7,0,0,0-3.2,1.2,6.9,6.9,0,0,0-1.7,7.3A10,10,0,0,0,30.5,61l-.3,1.6c-.2,1.1-.4,2.3-.7,3.5a5.6,5.6,0,0,0-.2,2.4,4.4,4.4,0,0,0,.2,1.3,8.9,8.9,0,0,0,3.6,4.4A11.2,11.2,0,0,0,36.9,76h.4a19,19,0,0,0,4,.5h5.4a20.1,20.1,0,0,0,4.2-.5H51l.4-.2h.1a11.7,11.7,0,0,0,4.6-2.6,15922629181313.5,15922629181313.5,0,0,1,.4-.4l.7-.8a7.7,7.7,0,0,0,1.5-3.4,5.6,5.6,0,0,0-.3-2.7v-.3a6.4,6.4,0,0,1-.2-.7,2.4,2.4,0,0,1-.2-.8.8.8,0,0,0-.2-.5,1.1,1.1,0,0,0-.1-.5c0-.2-.1-.4-.1-.6s-.3-.9-.4-1.4l1.5-1.6a6.5,6.5,0,0,0,.3-7.9,4.9,4.9,0,0,0-4.1-2.3,4.7,4.7,0,0,0-2.8.9,6.9,6.9,0,0,0-1.8,1.6,8.9,8.9,0,0,0-2.9-.8v-.5a4.3,4.3,0,0,0,.1-.5c.1-.2.1-.5.2-.8h0a2.4,2.4,0,0,0-.4-2.2,2.7,2.7,0,0,0-2.1-1Z" style="fill:#6a3417"/><path d="M26.9,26.7A9.7,9.7,0,1,1,36.6,17,9.6,9.6,0,0,1,26.9,26.7Z" style="fill:#98d9e4"/><path d="M26.9,8.8A8.2,8.2,0,1,1,18.7,17a8.2,8.2,0,0,1,8.2-8.2m0-3A11.2,11.2,0,1,0,38.1,17,11.2,11.2,0,0,0,26.9,5.8Z" style="fill:#5576b4"/><path d="M26.9,11.4A5.6,5.6,0,0,1,32.5,17" style="fill:none;stroke:#fff;stroke-linecap:round;stroke-linejoin:round;stroke-width:3px"/><path d="M39.3,16.5A7.6,7.6,0,0,1,31.8,9a7.5,7.5,0,0,1,15,0A7.6,7.6,0,0,1,39.3,16.5Z" style="fill:#98d9e4"/><path d="M39.3,3a6,6,0,1,1-6,6,6,6,0,0,1,6-6m0-3a9,9,0,0,0-9,9,9,9,0,0,0,18,0,9,9,0,0,0-9-9Z" style="fill:#5576b4"/><path d="M39.3,4.9A4.1,4.1,0,0,1,43.4,9" style="fill:none;stroke:#fff;stroke-linecap:round;stroke-linejoin:round;stroke-width:3px"/></g></g></g></g></g></svg>