<svg xmlns="http://www.w3.org/2000/svg" viewBox="0 0 64.1 186.7"><g style="isolation:isolate"><g id="Layer_2" data-name="Layer 2"><g id="Layer_1-2" data-name="Layer 1"><path d="M28.6,85.2v61.1h-2V85.2h2m0-3h-2a3,3,0,0,0-3,3v61.1a3.1,3.1,0,0,0,3,3h2a3,3,0,0,0,3-3V85.2a2.9,2.9,0,0,0-3-3Z" style="fill:#28575c"/><path d="M5.4,67.9s32.9,49.6,14.7,75.3c0,0-24.8-34.3-14.7-75.3m0-3H4.9a3,3,0,0,0-2.4,2.2c-5.4,22-1,42,3.6,54.9a102.7,102.7,0,0,0,11.6,23,2.7,2.7,0,0,0,2.4,1.2h0a2.7,2.7,0,0,0,2.4-1.2C41.7,117.8,9.3,68.3,7.9,66.2a3,3,0,0,0-2.5-1.3Z" style="fill:#28575c"/><path d="M33.6,42.3l2.8,59c2.4-12.5,5.3-26.7,9-40.7l1.9.5c-4.5,17.3-8,34.7-10.5,49l.9,18C38.8,115.9,43.9,100.6,61,94c0,0,2.7,43-22.7,51.5,0,0-.2-1-.4-2.7H36.4l-1.1-23.5c-2.4,14.3-3.5,23.9-3.6,24.1l-2-.3c.1-.2,1.7-13.9,5.1-33.1L31.6,42.4h2m0-3H31.5a2.9,2.9,0,0,0-2.9,3.1l3.2,67.3c-3.4,19.1-5,32.8-5,33a2.9,2.9,0,0,0,2.6,3.3l2,.2h.3a3.2,3.2,0,0,0,1.9-.7l.7-.7h.1l.8.5a1.8,1.8,0,0,1,.1.5,3,3,0,0,0,1.5,2,2.4,2.4,0,0,0,1.5.4h.9C66.5,139.2,64.1,95.6,64,93.8A2.9,2.9,0,0,0,61,91a2,2,0,0,0-1.1.2,36.9,36.9,0,0,0-19.8,17.3C43.2,91.7,46.6,76,50.2,61.9a2.9,2.9,0,0,0-2.1-3.7l-1.9-.5h-.8a2.8,2.8,0,0,0-1.5.4,3.1,3.1,0,0,0-1.4,1.8c-1.4,5.6-2.9,11.5-4.2,17.6L36.6,42.1a3,3,0,0,0-1-2.1,2.9,2.9,0,0,0-2-.7Z" style="fill:#28575c"/><path d="M31.7,143.4l-2-.3c.1-.4,5.1-41.8,15.7-82.5l1.9.5C36.8,101.7,31.8,142.9,31.7,143.4Z" style="fill:#537342"/><rect x="26.6" y="85.2" width="2" height="61.13" style="fill:#537342"/><rect x="34" y="42.3" width="2" height="100.6" transform="translate(-4.3 1.8) rotate(-2.7)" style="fill:#537342"/><path d="M20.1,143.2S-4.7,108.9,5.4,67.9C5.4,67.9,38.3,117.5,20.1,143.2Z" style="fill:#7e9e6c"/><path d="M20.1,143.2,5.4,67.9S38.3,117.5,20.1,143.2Z" style="fill:#537342"/><path d="M38.3,145.5,61,94S63.7,137,38.3,145.5Z" style="fill:#537342"/><path d="M38.3,145.5S30.4,105.9,61,94Z" style="fill:#7e9e6c"/><path d="M46.8,185.2H15.3c-3.6,0-7.4-2.1-7.4-8.1V152.3H7a5.2,5.2,0,0,1-5.2-5.2V144A5.2,5.2,0,0,1,7,138.7H55.1a5.3,5.3,0,0,1,5.3,5.3v3.1a5.3,5.3,0,0,1-5.3,5.2h-.9v24.8C54.2,183.1,50.4,185.2,46.8,185.2Z" style="fill:#e57225"/><path d="M55.1,140.2a3.8,3.8,0,0,1,3.8,3.8v3.1a3.8,3.8,0,0,1-3.8,3.7H52.7v26.3c0,6-4,6.6-5.9,6.6H15.3c-1.8,0-5.9-.6-5.9-6.6V150.8H7a3.8,3.8,0,0,1-3.7-3.7V144A3.8,3.8,0,0,1,7,140.2H55.1m0-3H7A6.8,6.8,0,0,0,.3,144v3.1a6.6,6.6,0,0,0,6.1,6.6v23.4c0,7.1,4.8,9.6,8.9,9.6H46.8c4.1,0,8.9-2.5,8.9-9.6V153.7a6.7,6.7,0,0,0,6.2-6.6V144a6.9,6.9,0,0,0-6.8-6.8Z" style="fill:#6a3417"/><path d="M34.3,147.4v-.2h-1v.2l-2.2.5-2.2-.5v-.2h-1v.2L9.4,151.8v25.3c0,7.7,6.8,6.6,6.8,6.6h3.6a9,9,0,0,0,1.8,0h19a7.8,7.8,0,0,0,1.7,0H46s6.7,1.1,6.7-6.6V151.8Z" style="fill:#e57225"/><path d="M9.4,155.6s43.3-1.5,43.3,8.3V150.8H9.4Z" style="fill:#917f57;opacity:0.5;mix-blend-mode:multiply"/><path d="M15.8,160.2a1.5,1.5,0,0,1-3,0,1.5,1.5,0,0,1,3,0Z" style="fill:#cebe99"/><path d="M32.6,160.2a1.5,1.5,0,0,1-3,0,1.5,1.5,0,0,1,3,0Z" style="fill:#cebe99"/><path d="M15.8,174.9a1.5,1.5,0,1,1-1.5-1.5A1.5,1.5,0,0,1,15.8,174.9Z" style="fill:#cebe99"/><path d="M49.4,174.9a1.5,1.5,0,0,1-1.5,1.5,1.5,1.5,0,0,1,0-3A1.5,1.5,0,0,1,49.4,174.9Z" style="fill:#cebe99"/><path d="M32.6,174.9a1.5,1.5,0,1,1-1.5-1.5A1.5,1.5,0,0,1,32.6,174.9Z" style="fill:#cebe99"/><path d="M49.4,160.2a1.5,1.5,0,0,1-1.5,1.5,1.4,1.4,0,0,1-1.5-1.5,1.4,1.4,0,0,1,1.5-1.4A1.5,1.5,0,0,1,49.4,160.2Z" style="fill:#cebe99"/><path d="M23.1,167.5a1.5,1.5,0,0,1-3,0,1.5,1.5,0,0,1,3,0Z" style="fill:#cebe99"/><path d="M41.4,167.5a1.5,1.5,0,0,1-3,0,1.5,1.5,0,0,1,3,0Z" style="fill:#cebe99"/><path d="M23.1,181.1a1.5,1.5,0,0,1-3,0,1.5,1.5,0,0,1,3,0Z" style="fill:#cebe99"/><path d="M41.4,181.1a1.5,1.5,0,0,1-3,0,1.5,1.5,0,0,1,3,0Z" style="fill:#cebe99"/><path d="M55.1,140.2H7A3.8,3.8,0,0,0,3.3,144v3.1A3.8,3.8,0,0,0,7,150.8H55.1a3.8,3.8,0,0,0,3.8-3.7V144A3.8,3.8,0,0,0,55.1,140.2Z" style="fill:#e57225"/><path d="M28.8,3c1.7,0,2.5,2.8,2.7,4.1-.1-1.3-.3-4,1.2-4l1,.3c1.7,1,5.8,11.8,7,22.3s0,17.9-7,19.2H32.4c-7.4,0-9.5-12.1-10-23a152.7,152.7,0,0,1,.4-16.6c.6-.9,1.1-1.2,1.6-1.2s1.9,2.1,2.1,2.7-.7-3,1.7-3.8h.6m0-3h0a4.5,4.5,0,0,0-1.6.3,6.9,6.9,0,0,0-1.9,1h-.9c-1.1,0-2.7.4-4.1,2.6a2.9,2.9,0,0,0-.5,1.3,167.3,167.3,0,0,0-.4,17c.8,17.2,5.1,25.9,13,25.9h1.9c4.4-.9,11.5-4.9,9.4-22.6A78.4,78.4,0,0,0,40.2,10c-2.6-7.9-4.3-8.8-5-9.2A5,5,0,0,0,32.7.1a5.8,5.8,0,0,0-1.8.4A4.6,4.6,0,0,0,28.8,0Z" style="fill:#ac5350"/><path d="M47.7,33.7c1.3,0,1.4,2.5,1.4,3.1s.3-2.9,2.7-2.9h0c2.2.1,2,3.3,1.9,4.6.2-1.1.8-3.3,1.9-3.3a1.7,1.7,0,0,1,1.1.6c1.3,1.4,1.9,12.5,0,22.3-1.6,8.2-4.8,15.6-10.9,15.6h-1c-8.1-1-6.5-13.5-3.7-24.1a144,144,0,0,1,5.1-15,2.5,2.5,0,0,1,1.5-.7m0-3a4.8,4.8,0,0,0-3.4,1.4,3.1,3.1,0,0,0-.9,1.1,150.2,150.2,0,0,0-5.2,15.4c-3.1,11.7-3.2,19.5-.2,24a9.1,9.1,0,0,0,6.4,3.9h1.4c4.8,0,11-3.2,13.9-18.1,1.5-8.1,2-21.9-.8-24.8a4.5,4.5,0,0,0-3.3-1.6H55a4.9,4.9,0,0,0-3.2-1.3h-.1a6.4,6.4,0,0,0-2,.3,4.6,4.6,0,0,0-2-.5v0Z" style="fill:#ac5350"/><path d="M20.6,56.4c1.6,0,2.4,2.7,2.6,3.9-.1-1.2-.3-3.9,1.1-3.9l1,.3c1.6.9,5.8,11.2,7.2,21.1s.4,17.1-6.2,18.5l-1.4.2C18,96.5,15.7,85,15,74.8a130,130,0,0,1-.1-15.9c.5-.9,1-1.2,1.5-1.2s1.9,2,2.1,2.5-.8-2.8,1.5-3.6l.6-.2m0-3h0a5.1,5.1,0,0,0-1.7.3,5,5,0,0,0-1.7,1.1h-.8a4.6,4.6,0,0,0-4.1,2.6,3.3,3.3,0,0,0-.4,1.4A138.3,138.3,0,0,0,12,75c1.1,16.2,5.4,24.5,12.9,24.5a6.9,6.9,0,0,0,2-.3c4.3-.9,11-4.9,8.6-21.9-1.2-8.2-5.3-21.4-8.9-23.2a3.8,3.8,0,0,0-4.1-.2,3.8,3.8,0,0,0-1.9-.5Z" style="fill:#ac5350"/><path d="M33.7,44.9C25.3,46.5,22.9,33.5,22.4,22a152.7,152.7,0,0,1,.4-16.6c2-3.2,3.4.7,3.7,1.5s-.7-3,1.7-3.8,3,2.6,3.3,4c-.2-1.5-.3-5.1,2.2-3.7s5.8,11.8,7,22.3S40.7,43.6,33.7,44.9Z" style="fill:#ef8678"/><path d="M33.7,44.9C25.3,46.5,22.9,33.5,22.4,22c2.9-.3,6,9.7,6.2,10.4s-3.4-15.7,0-14.8S33.9,31,33.9,31s2.2-17,3.5-12.3,0,16,0,16,1.6-6.5,3.3-9C41.8,34.8,40.7,43.6,33.7,44.9Z" style="fill:#ce675d"/><path d="M44.8,73.5c-8.1-1-6.5-13.5-3.7-24.1a144,144,0,0,1,5.1-15c2.8-2.3,2.9,1.6,2.9,2.4s.3-2.9,2.7-2.9,2,3.2,1.9,4.5c.2-1.4,1.1-4.7,3-2.7s1.9,12.5,0,22.3S51.5,74.3,44.8,73.5Z" style="fill:#ef8678"/><path d="M44.8,73.5c-8.1-1-6.5-13.5-3.7-24.1,2.7.5,2.6,10.6,2.6,11.3.1-.8,1.4-15.3,4.3-13.6s1,13.8,1,13.8,6.9-14.8,6.7-10.2-4.6,14.5-4.6,14.5,3.3-5.4,5.6-7.2C55.1,66.7,51.5,74.3,44.8,73.5Z" style="fill:#ce675d"/><path d="M26.3,96.3C18.3,98,15.7,85.7,15,74.8a130,130,0,0,1-.1-15.9c1.8-3.1,3.3.6,3.6,1.3s-.8-2.8,1.5-3.6,2.9,2.3,3.2,3.7c-.1-1.5-.4-4.9,2.1-3.6s5.8,11.2,7.2,21.1S32.9,94.9,26.3,96.3Z" style="fill:#ef8678"/><path d="M26.3,96.3C18.3,98,15.7,85.7,15,74.8c2.7-.5,5.9,9.1,6.1,9.7s-3.6-14.9-.3-14.2S26.2,83,26.2,83s1.6-16.2,2.9-11.8.4,15.3.4,15.3,1.5-6.3,3-8.7C33.8,86.5,32.9,94.9,26.3,96.3Z" style="fill:#ce675d"/></g></g></g></svg>