<svg xmlns="http://www.w3.org/2000/svg" viewBox="0 0 93.1 53.3"><g id="Layer_2" data-name="Layer 2"><g id="Layer_1-2" data-name="Layer 1"><path d="M70.4,45.8a.9.9,0,0,0-1.1-.4.8.8,0,0,0-.4,1,3.2,3.2,0,0,1-2.4,4.2l-2.3.5.7-7.6h-2v7.9a32,32,0,0,1-10.7-.2V43.5H50.3l.9,7.5-1.8-.4c-2.1-.6-3.1-2.5-2.4-4.2a.8.8,0,0,0-.4-1,.9.9,0,0,0-1.1.4c-1.2,2.3.3,5.4,3.5,6.3a34,34,0,0,0,17.9,0C70.1,51.2,71.6,48.1,70.4,45.8Z" style="fill:#3b7e82"/><path d="M80.2,10.9A143.1,143.1,0,0,1,60.3,9h-.4a1.7,1.7,0,0,1-1.5-1.8,1.6,1.6,0,0,1,1.5-1.7h.4c4.3-.6,13.2-1.9,19.9-1.9,8.5,0,10.6.7,11.4,3.3a1.1,1.1,0,0,1,0,.8C90.8,10.3,88.7,10.9,80.2,10.9Z" style="fill:#3b7e82"/><path d="M80.2,5c8.8,0,9.5.8,9.9,2.2S89,9.4,80.2,9.4c-6.8,0-15.9-1.3-20.1-1.9-.3,0-.3-.5,0-.6C64.3,6.4,73.4,5,80.2,5m0-3C73.4,2,64.4,3.3,60.1,3.9h-.4a3.2,3.2,0,0,0-2.8,3.2,3.3,3.3,0,0,0,2.8,3.3h.4c4.3.6,13.3,1.9,20.1,1.9S91.9,12,93,8a2.2,2.2,0,0,0,0-1.6C91.9,2.5,88.2,2,80.2,2Z" style="fill:#335394"/><path d="M38.2,10.9c-8.5,0-10.7-.6-11.4-3.3a1.1,1.1,0,0,1,0-.8c.7-2.6,2.9-3.3,11.4-3.3,6.7,0,15.6,1.3,19.9,1.9h.4A1.6,1.6,0,0,1,60,7.2,1.8,1.8,0,0,1,58.5,9h-.4A143.1,143.1,0,0,1,38.2,10.9Z" style="fill:#3b7e82"/><path d="M38.2,5C45,5,54.1,6.4,58.3,6.9c.3.1.3.6,0,.6C54.1,8.1,45,9.4,38.2,9.4c-8.9,0-9.6-.8-10-2.2S29.3,5,38.2,5m0-3c-8.1,0-11.7.5-12.9,4.4a4.3,4.3,0,0,0,0,1.6c1.2,4,4.8,4.4,12.9,4.4S54,11.1,58.3,10.5h.4a3.3,3.3,0,0,0,2.8-3.3A3.2,3.2,0,0,0,58.7,4h-.4C54,3.3,45,2,38.2,2Z" style="fill:#335394"/><path d="M40,17.6a13.1,13.1,0,0,0,6.7-1.7,22.8,22.8,0,0,1,10.9-2.7c10.6,0,19.1,6.8,19.1,15.2S68.2,43.7,57.6,43.7c-8.2,0-15.3-4.3-17.9-10.2-1.4-3-4.6-6.8-7.8-7.5Z" style="fill:#5576b4"/><path d="M46.7,15.9a22.8,22.8,0,0,1,10.9-2.7c10.6,0,19.1,6.8,19.1,15.2a11.2,11.2,0,0,1-.4,3.2,79.2,79.2,0,0,1-22,2.9,87.5,87.5,0,0,1-14.7-1.2,10.6,10.6,0,0,0-7.2-5.8L15.6,23A5.8,5.8,0,0,1,12,20.3L7.5,12.6a.6.6,0,0,1,.5-.8h2.1a2.1,2.1,0,0,1,1.7.9l3.2,4a2.1,2.1,0,0,0,1.8.9H40A13.1,13.1,0,0,0,46.7,15.9Z" style="fill:#baa2ee"/><path d="M46.7,15.9a22.8,22.8,0,0,1,10.9-2.7,22,22,0,0,1,13.3,4.3A47.6,47.6,0,0,1,58.2,19a49,49,0,0,1-14.3-1.9A11.8,11.8,0,0,0,46.7,15.9Z" style="fill:#7850b3"/><path d="M66.7,20a17.2,17.2,0,0,1,6.8,0,13.1,13.1,0,0,1,3.2,8.4v.2A17.5,17.5,0,0,1,68.8,32c-6.1,1-11.5-.8-12.1-4.1S60.6,21,66.7,20Z" style="fill:#98d9e4"/><path d="M71.6,20.8l-1.1-.2c-.3.1-.7.3-.8.6a1.1,1.1,0,0,0,.1,1.1,3.4,3.4,0,0,0,.8.9,16.4,16.4,0,0,1,2.9,3.5c.2.4.5,1,1,1s.6-2.9.3-3.7A5.3,5.3,0,0,0,71.6,20.8Z" style="fill:#d7f1f4"/><path d="M59.4,29.3a2,2,0,0,1-.9-1.1,4.2,4.2,0,0,1-.4-1.5c.1-.6.6-1.7,1.3-1.3a.8.8,0,0,1,.6.8,4.1,4.1,0,0,1,.1,1.1,1.7,1.7,0,0,0,.3,1c.1.3.5.7.2,1A1.1,1.1,0,0,1,59.4,29.3Z" style="fill:#d7f1f4"/><path d="M10.1,11.8a2.1,2.1,0,0,1,1.7.9l3.2,4a2.1,2.1,0,0,0,1.8.9H41.7a7.8,7.8,0,0,0,2.2-.4l.7-.2h.1l.6-.2h.3l.4-.2.7-.4a22.8,22.8,0,0,1,10.9-2.7h2l1.8.2h0l1.8.4h0l1.7.5h0l1.7.6h0l1.5.7h0c5.2,2.7,8.6,7.4,8.6,12.7v.8h0a2,2,0,0,0-.1.7h0c-1,7.6-9.1,13.6-19,13.6-8.2,0-15.3-4.3-17.9-10.2-.1,0-.1-.1-.1-.2h0a10.6,10.6,0,0,0-7.2-5.8L15.6,23A5.8,5.8,0,0,1,12,20.3L7.5,12.6a.6.6,0,0,1,.5-.8h2.1m0-3H8a3.6,3.6,0,0,0-3.1,5.3l4.6,7.8a8.3,8.3,0,0,0,5.3,4l16.9,4.5h.1a7.6,7.6,0,0,1,5.1,4.2h0c3.2,7.1,11.5,11.9,20.7,11.9,11.3,0,20.7-7,22-16.2h0a2.2,2.2,0,0,1,.1-.8V28.4c0-6.2-3.8-12-10.2-15.3l-1.7-.9h-.1l-1.8-.7h-.1L63.9,11h0l-2-.4h-.1l-2-.2H57.6a25.5,25.5,0,0,0-12.3,3.1l-.6.3h-.5l-.5.2h0l-.6.2-1.7.4H17.1l-3-3.8a4.9,4.9,0,0,0-4-2Z" style="fill:#335394"/><path d="M8.9,13.4c-2.3,0-5.9-5.5-6-5.7A7.8,7.8,0,0,1,1.5,4.4,2.6,2.6,0,0,1,2.7,1.9a2.3,2.3,0,0,1,1.4-.4c1.6,0,2.8,1.5,3.8,3a34.8,34.8,0,0,1,2.2,4.3c.4,1.1,1.3,3.3-.2,4.3a1.7,1.7,0,0,1-1,.3Z" style="fill:#5576b4"/><path d="M4.1,3c.6,0,1.4.5,2.5,2.3s3.2,6.1,2.5,6.6H8.9c-.8,0-3.3-2.8-4.8-5S2.8,3.6,3.5,3.2L4.1,3m0-3A3.6,3.6,0,0,0,1.9.7c-1.4.9-3.3,3.1-.3,7.8,1.3,1.9,4.5,6.4,7.3,6.4a3.5,3.5,0,0,0,1.8-.5c2.6-1.7,1.3-5,.8-6.2A24.2,24.2,0,0,0,9.1,3.7C8,2,6.4,0,4.1,0Z" style="fill:#335394"/><path d="M16.4,15.1c-7.2,0-7.3-1.9-7.3-2.5C9,9.8,15.3,9.3,17.3,9.2h.8c2.8,0,4.2.9,4.3,2.7s-3.6,3.2-4.8,3.2Z" style="fill:#5576b4"/><path d="M18.1,10.7c2.2,0,2.8.6,2.8,1.3s-.5,1.5-3.4,1.6H16.4c-2.6,0-5.8-.4-5.8-1.1s3.9-1.7,6.8-1.8h.7m0-3h-.9a40.1,40.1,0,0,0-5,.7c-1.3.4-4.8,1.2-4.6,4.2s2.9,4,8.8,4h1.3a8.5,8.5,0,0,0,4.1-1,4,4,0,0,0,2.1-3.8c-.1-1.2-.8-4.1-5.8-4.1Z" style="fill:#335394"/><path d="M5.1,24.3A2.7,2.7,0,0,1,3.9,24c-2.6-1.4-.9-4.7-.4-5.8s3.3-6.3,5.7-6.3l.8.2c2.4,1.3-.3,7.1-1.2,8.8s-2,3.4-3.7,3.4Z" style="fill:#5576b4"/><path d="M9.2,13.4h.1c.7.3-.5,4.2-1.8,6.8s-1.8,2.5-2.4,2.5H4.6c-.7-.4-1-1.2.3-3.8s3.4-5.5,4.3-5.5m0-3c-2.9,0-5.6,4.5-7,7.2a8.1,8.1,0,0,0-1.2,4,4,4,0,0,0,2.2,3.7,4.5,4.5,0,0,0,1.9.5c2.9,0,4.4-2.9,5-4.2A21.1,21.1,0,0,0,12,16.9c.4-1.3,1.4-4.7-1.3-6.1a4.2,4.2,0,0,0-1.5-.4Z" style="fill:#335394"/><path d="M9.7,16.4a3.7,3.7,0,0,1-3.1-1.6A3.6,3.6,0,0,1,6.1,12,3.5,3.5,0,0,1,7.7,9.7a3.6,3.6,0,0,1,2-.6,3.7,3.7,0,0,1,2,6.8,4.6,4.6,0,0,1-2,.5Z" style="fill:#7850b3"/><path d="M9.7,10.6a2,2,0,0,1,1.8,1,2.1,2.1,0,0,1-.6,3,2.7,2.7,0,0,1-1.2.3,2.3,2.3,0,0,1-1.9-1,2.2,2.2,0,0,1,.7-3,2.7,2.7,0,0,1,1.2-.3m0-3a5.4,5.4,0,0,0-2.8.8,5.2,5.2,0,0,0-2.3,3.3,5.4,5.4,0,0,0,.7,3.9,5.2,5.2,0,0,0,4.4,2.3,4.8,4.8,0,0,0,2.8-.8A5.2,5.2,0,0,0,14,9.9,5.2,5.2,0,0,0,9.7,7.6Z" style="fill:#335394"/><path d="M59.1,15.8c-2.3,0-3.4-1.3-3.4-4.1,0,0,.1-7.6,3.4-7.6s3.4,7.6,3.4,7.6C62.5,14.5,61.4,15.8,59.1,15.8Z" style="fill:#5576b4"/><path d="M59.1,5.6c1.1,0,1.9,3.7,1.9,6.1s-.8,2.6-1.9,2.6-1.9-.2-1.9-2.6.9-6.1,1.9-6.1m0-3c-4.8,0-4.9,8.8-4.9,9.1,0,4.9,3.1,5.6,4.9,5.6s4.9-.7,4.9-5.6c0-.3-.1-9.1-4.9-9.1Z" style="fill:#335394"/><path d="M29.4,17.6a14.5,14.5,0,0,0-1.8,8.6l-1-.2a16.3,16.3,0,0,1,1.7-8.4Zm3.4,0A14.3,14.3,0,0,0,30.6,27l-1-.2a15.6,15.6,0,0,1,2-9.2Zm-6.7,0a15,15,0,0,0-1.5,7.8l-1-.2a15.5,15.5,0,0,1,1.5-7.6Zm-4.3,0h1.1a14.1,14.1,0,0,0-1.3,7l-1-.2A16,16,0,0,1,21.8,17.6Z" style="fill:#5576b4"/></g></g></svg>