<svg xmlns="http://www.w3.org/2000/svg" viewBox="0 0 12.8 55.1"><g id="Layer_2" data-name="Layer 2"><g id="Layer_1-2" data-name="Layer 1"><g id="fu_book_7" data-name="fu_book 7"><rect x="1.5" y="1.5" width="9.8" height="52.11" rx="1.3" style="fill:#beef63"/><rect x="1.5" y="10.4" width="9.8" height="34.3" style="fill:#baa2ee"/><path d="M6.4,14.1a1.1,1.1,0,0,0-1.1,1.2V39.9A1.1,1.1,0,0,0,6.4,41a1.1,1.1,0,0,0,1.2-1.1V15.3A1.2,1.2,0,0,0,6.4,14.1Z" style="fill:#ffe76b"/><path d="M10,1.5H2.8A1.3,1.3,0,0,0,1.5,2.8V52.3a1.3,1.3,0,0,0,1.3,1.3H10a1.3,1.3,0,0,0,1.3-1.3V2.8A1.3,1.3,0,0,0,10,1.5Z" style="fill:none;stroke:#72b75b;stroke-miterlimit:10;stroke-width:3px"/></g></g></g></svg>