<svg xmlns="http://www.w3.org/2000/svg" viewBox="0 0 226.5 316.9"><g id="Layer_2" data-name="Layer 2"><g id="Layer_1-2" data-name="Layer 1"><g id="fu_bird_house" data-name="fu_bird house"><path d="M71.7,168c-7.2,0-13.1-3.1-13.1-6.8s5.9-6.9,13.1-6.9,13.2,3.1,13.2,6.9S79,168,71.7,168Zm0-11.1c-4.5,0-8.1,1.9-8.1,4.3s3.6,4.2,8.1,4.2,8.2-1.9,8.2-4.2S76.3,156.9,71.7,156.9Z" style="fill:#ffce61"/><path d="M71.7,155.1c6.5,0,11.7,2.7,11.7,6.1s-5.2,6-11.7,6-11.6-2.7-11.6-6,5.2-6.1,11.6-6.1m0,11.1c5.4,0,9.7-2.3,9.7-5s-4.3-5.1-9.7-5.1-9.6,2.3-9.6,5.1,4.3,5,9.6,5m0-12.7c-8.1,0-14.6,3.5-14.6,7.7s6.5,7.6,14.6,7.6,14.7-3.4,14.7-7.6-6.5-7.7-14.7-7.7Zm0,11.1c-3.6,0-6.6-1.5-6.6-3.4s3-3.5,6.6-3.5,6.7,1.5,6.7,3.5-3,3.4-6.7,3.4Z" style="fill:#d38d2f"/><rect x="70.7" y="0.5" width="2" height="155.43"/><rect x="69.7" width="4" height="156.47"/><path d="M223.1,315.4H36.9a2,2,0,0,1-1.8-1.2h0a2,2,0,0,1,1.8-2.6H223.1a1.9,1.9,0,0,1,1.9,2.2h0A2,2,0,0,1,223.1,315.4Z" style="fill:#af7553"/><path d="M223.1,316.9H36.9a3.5,3.5,0,0,1-3.2-2.2,3.6,3.6,0,0,1,.4-3.2,3.5,3.5,0,0,1,2.8-1.4H223.1a3.4,3.4,0,0,1,2.6,1.2,3.6,3.6,0,0,1,.8,2.7A3.4,3.4,0,0,1,223.1,316.9ZM36.9,313.1c-.1,0-.3.1-.3.2s-.1.2-.1.3a.5.5,0,0,0,.4.3H223.1c.2,0,.4-.1.4-.3s0-.3-.1-.4H36.9Z" style="fill:#924f28"/><path d="M35.1,310.1a1.5,1.5,0,0,1-1.4-1l-22.8-61a1.7,1.7,0,0,1,.2-1.4l59.7-79.9a1.3,1.3,0,0,1,1.2-.6,1.6,1.6,0,0,1,1.2.6l59.6,79.9a1.4,1.4,0,0,1,.2,1.4l-22.8,61a1.5,1.5,0,0,1-1.4,1Z" style="fill:#ffeb81"/><path d="M72,167.7l59.6,79.9-22.8,61H35.1l-22.8-61L72,167.7m0-3a3,3,0,0,0-2.4,1.2L9.9,245.8a3.1,3.1,0,0,0-.4,2.8l22.8,61a3,3,0,0,0,2.8,2h73.7a2.9,2.9,0,0,0,2.8-2l22.8-61a3.1,3.1,0,0,0-.4-2.8L74.4,165.9a3.3,3.3,0,0,0-2.4-1.2Z" style="fill:#ffaa5a"/><path d="M11.5,256.3l56.2-75.2a5,5,0,0,1,8,0l56.5,75.7a5,5,0,0,0,6.7,1.2l1-.7a5,5,0,0,0,1.4-7.2L75.7,162.2a5,5,0,0,0-8,0L2.5,249.5a5,5,0,0,0,1.1,7.1l1,.7A4.9,4.9,0,0,0,11.5,256.3Z" style="fill:#6ab3b9"/><path d="M136.2,260.3a6.4,6.4,0,0,1-5.2-2.6L74.5,182a3.6,3.6,0,0,0-2.8-1.5h0a3.6,3.6,0,0,0-2.8,1.5L12.7,257.2a6.5,6.5,0,0,1-9,1.3l-1-.7a6.3,6.3,0,0,1-2.6-4.3,6.2,6.2,0,0,1,1.2-4.9l65.2-87.3a6.6,6.6,0,0,1,5.2-2.6h0a6.5,6.5,0,0,1,5.2,2.6l65.6,87.9a6.7,6.7,0,0,1-1.7,9.4l-1.1.7A6.4,6.4,0,0,1,136.2,260.3ZM71.7,177.5h0a6.3,6.3,0,0,1,5.2,2.7l56.5,75.7a3.5,3.5,0,0,0,4.7.8l1-.7a3.2,3.2,0,0,0,1.6-2.3,3.7,3.7,0,0,0-.6-2.7L74.5,163.1a3.4,3.4,0,0,0-2.8-1.4h0a3.5,3.5,0,0,0-2.8,1.4L3.7,250.4a3.7,3.7,0,0,0-.7,2.7,3.9,3.9,0,0,0,1.5,2.3l1,.7a3.5,3.5,0,0,0,4.8-.7l56.2-75.2A6.3,6.3,0,0,1,71.7,177.5Z" style="fill:#28575c"/><path d="M93.8,253A21.9,21.9,0,1,0,72,274.9,21.9,21.9,0,0,0,93.8,253Z" style="fill:#756557"/><path d="M72.1,203.2l-.3.3-.3-.3a7,7,0,0,0-6.2-2.2,6.2,6.2,0,0,0-4.4,3.1,6.7,6.7,0,0,0-.7,3.1,8.8,8.8,0,0,0,1.9,5.2c1.9,2.8,5.8,6.1,9.9,8.5,4.1-2.4,8.3-5.2,10.2-8a10.3,10.3,0,0,0,2-5.4,7.5,7.5,0,0,0-.7-3.3,6.9,6.9,0,0,0-5-3.5A8,8,0,0,0,72.1,203.2Z" style="fill:#fff"/><path d="M72,222.7l-.7-.5c-4.4-2.5-8.5-6-10.5-8.9a10.9,10.9,0,0,1-2.1-6.1,8.2,8.2,0,0,1,.9-3.8,7.8,7.8,0,0,1,5.4-3.9,8.7,8.7,0,0,1,6.8,1.9,9.5,9.5,0,0,1,7-2.2,8.8,8.8,0,0,1,6,4.3,8.4,8.4,0,0,1,.9,4,12.5,12.5,0,0,1-2.2,6.3c-2.1,3-6.6,6-10.7,8.4Zm-5.6-20.3h-.9a4.3,4.3,0,0,0-3.2,2.3,4.8,4.8,0,0,0-.6,2.4,8.5,8.5,0,0,0,1.6,4.4c1.6,2.4,5.1,5.4,8.7,7.6,3.5-2.1,7.4-4.7,9-7.1a9,9,0,0,0,1.7-4.6,5,5,0,0,0-.6-2.6,5.6,5.6,0,0,0-3.8-2.7c-1.7-.3-3.5.5-5.2,2.1l-1.3,1.2-1.3-1.2A5.8,5.8,0,0,0,66.4,202.4Z" style="fill:#ee9cf5"/></g></g></g></svg>