<svg xmlns="http://www.w3.org/2000/svg" viewBox="0 0 35.8 29.7"><g id="Layer_2" data-name="Layer 2"><g id="Layer_1-2" data-name="Layer 1"><path d="M24,27.1c.5,1.8-23.9,1.8-23.3,0S24.5,25.3,24,27.1Z" style="fill:#231f20;opacity:0.15"/><path d="M9.3,20.8c.1-.2-3.1,2.1-2.3,4.2s-.7.4-.9-.1.2-2.8,2.5-4.5c0,0,.6-.4.9-.2S9.7,20.6,9.3,20.8Z" style="fill:#51190e"/><path d="M15.2,21.3c0-.2-3.2,2.1-2.3,4.2,0,.5-.7.4-.9-.1s.2-2.8,2.4-4.5c0,0,.6-.4,1-.2S15.6,21.1,15.2,21.3Z" style="fill:#51190e"/><path d="M19.5,20.2c-.1-.3-2.4,3-.9,4.6s-.6.7-.9.3-.7-2.8.9-5.1c0,0,.5-.6.8-.4S19.8,19.8,19.5,20.2Z" style="fill:#51190e"/><path d="M21.6,19.6c-2.2,2.5-5.7,3.7-9.3,4.1-1.5.4-9.9.5-10-4.4A3.4,3.4,0,0,1,2.5,18c1-4.5,12.9-2.7,17.4-2.4Z" style="fill:#702511"/><path d="M20.8,20.5a15.2,15.2,0,0,1-8.5,3.2c-1.5.4-9.9.5-10-4.4A3.4,3.4,0,0,1,2.5,18c.6,10,18.5,3.1,18,2.2Z" style="opacity:0.1"/><path d="M22,19.1c-.1-.2,3.2,2.1,2.4,4.1s.7.5.8,0-.2-2.9-2.5-4.5c0,0-.6-.4-.9-.2S21.6,18.9,22,19.1Z" style="fill:#51190e"/><path d="M20.3,17.8C16,21,6.2,19,1.9,17.9a1.5,1.5,0,0,1-.9-1,1.5,1.5,0,0,1,.5-1.2c7.9-5.5,15-4.3,19.8-1.3C21,15.3,20.6,17,20.3,17.8Z" style="fill:#51190e"/><path d="M20.8,16.2h0c-4.4-1.5-13.1-2.1-19.7.8h0C6.1,14.4,16.5,14.5,20.8,16.2Z" style="fill:#ce894a"/><path d="M6.6,21c.1-.3-3.9,2.6-2.8,5.1,0,.7-.9.6-1.2,0s.3-3.6,3.1-5.6c0,0,.7-.5,1.1-.2S7.1,20.7,6.6,21Z" style="fill:#51190e"/><path d="M18.8,19.9c-.2,0,1.9,3.4,4,2.7.6,0,.4.7-.1.9s-2.9-.5-4.3-2.8c0,0-.4-.7-.1-1S18.6,19.5,18.8,19.9Z" style="fill:#51190e"/><path d="M13.1,21.8c.1-.3-3.9,2.6-2.9,5.1.1.7-.8.6-1.1,0s.3-3.6,3.1-5.6c0,0,.7-.6,1.1-.2S13.6,21.5,13.1,21.8Z" style="fill:#51190e"/><path d="M16.7,21.5c0-.4-2.9,4.2-1.1,6.5.3.7-.6.9-1.1.3s-.9-3.9,1.1-7c0,0,.6-.9,1-.7S17,21,16.7,21.5Z" style="fill:#51190e"/><path d="M1,16.9a1.2,1.2,0,0,1,.5-1.2C9.4,10.3,15,11.6,20,13.6,21,16.5,19.9,20.8,1,16.9Z" style="fill:#fff;opacity:0.15"/><path d="M22.5,16.1c-.7-.2-1.5-.9-2.8-2.4C16.7,10.1,17.4.9,24.5,1a.3.3,0,0,1,.1.5,19.1,19.1,0,0,0-3.8,2.3h.1s3.9-.3,2.7.8-3.4.4-3.9,1.8a13.6,13.6,0,0,0,2.9.4c.9.3-.9,1.3-2.3,1.8-.2,2.8,1.1,4.5,2.6,5" style="fill:#702511"/><path d="M25.6,14.3c1.7,1,4.2.4,5.7-2.4-.8-1.2-1.9-3-.9-2.8A14.4,14.4,0,0,0,33,10.3c.3-1.5-2-2.7-2.4-3.6a.4.4,0,0,1,.4-.6,10.4,10.4,0,0,1,2.5,1.4,17.2,17.2,0,0,0-2.1-4c-.1-.2.1-.5.4-.3,6.1,3.6,1.5,12.8-2.7,13.3-2.5.2-3.6.7-4.5.1" style="fill:#702511"/><path d="M26.5,18.8a.4.4,0,0,1-.1.3,3.7,3.7,0,0,1-7.1-2.4A4.3,4.3,0,0,1,21.7,14c-1.7-1.8,6.7.7,4.3,1.3A3.8,3.8,0,0,1,26.5,18.8Z" style="fill:#702511"/><path d="M26.4,19.1c-2.2,5.2-9.4,1.5-6.7-3.4C18,20.2,24,23.3,26.4,19.1Z" style="opacity:0.1"/><g style="opacity:0.25"><path d="M2,16.2c-.8-.4,2-2.2,5.5-3.1.1-.1.2,0,.2.1a.2.2,0,0,1-.1.3A16.2,16.2,0,0,0,2,16.2Z" style="fill:#fff"/></g><path d="M8.6,13.2c0,.2-.6.3-.7.1S8.5,12.9,8.6,13.2Z" style="fill:#fff;opacity:0.25"/><path d="M24.3,1h.2a.3.3,0,0,1,.1.5,19.1,19.1,0,0,0-3.8,2.3h1.1c1.1,0,2.5.2,1.7.9s-3.4.4-3.9,1.8a13.6,13.6,0,0,0,2.9.4c.9.3-.9,1.3-2.3,1.8-.2,2.5.8,4.1,2.2,4.8a10.9,10.9,0,0,1,3.2,1,4.2,4.2,0,0,0,1.6.4,4.7,4.7,0,0,0,4-2.9C30.5,10.7,29.5,9,30.2,9h.2A14.4,14.4,0,0,0,33,10.3c.3-1.5-2-2.7-2.4-3.6a.4.4,0,0,1,.3-.6H31a10.4,10.4,0,0,1,2.5,1.4,17.2,17.2,0,0,0-2.1-4c-.1-.2,0-.4.2-.4h.2c6.1,3.6,1.5,12.8-2.7,13.3l-2.5.3a3.5,3.5,0,0,1-.1,2,.4.4,0,0,1-.1.3l-.3.6a3.6,3.6,0,0,1-.7,1L25,21a.1.1,0,0,0-.1.1h0a3.3,3.3,0,0,1,.3,2.1c0,.3-.3.4-.5.4s-.4-.1-.3-.4a2.3,2.3,0,0,0-.2-1.8,2.5,2.5,0,0,1-1.2.2,4.1,4.1,0,0,1-1.9-.4h-.2a.1.1,0,0,0-.1-.1l-.3-.3-.6.5h-.2a4,4,0,0,0,2.5,1.4h.6c.6,0,.4.7-.1.9h-.3a4.4,4.4,0,0,1-3.3-1.8c-.1,0-.2,0-.2.1l-.5.2a2.6,2.6,0,0,0,.2,2.8c.1.4-.1.6-.4.6a.5.5,0,0,1-.5-.3,4.2,4.2,0,0,1-.3-2.6h-.2l-.7.2-.4.2h-.4c-.6,1.4-1.2,3.5-.1,4.9a.5.5,0,0,1-.5.7.7.7,0,0,1-.6-.4,6.3,6.3,0,0,1,.1-4.9H13a2.1,2.1,0,0,0-.1,1.9.4.4,0,0,1-.3.4.6.6,0,0,1-.6-.5,3,3,0,0,1,.1-1.6H10.9a3.1,3.1,0,0,0-.7,3,.3.3,0,0,1-.3.5,1,1,0,0,1-.8-.5,4.5,4.5,0,0,1,.7-3L7,23.5A2.6,2.6,0,0,0,7,25c.1.2-.1.4-.3.4a.7.7,0,0,1-.6-.5,3.2,3.2,0,0,1,.2-1.6L5.4,23H4.6a3.6,3.6,0,0,0-.8,3.4.5.5,0,0,1-.4.5,1,1,0,0,1-.8-.5,5.2,5.2,0,0,1,1.2-3.9,3.5,3.5,0,0,1-1.5-2.9,2.8,2.8,0,0,1,.1-.8.4.4,0,0,1,.1-.3V18H1.9a1.5,1.5,0,0,1-.8-.8h0a.1.1,0,0,0-.1-.1H1a1.2,1.2,0,0,1,.5-1.2l1.4-.9,1-.6.5-.2.3-.2a17,17,0,0,1,7.7-1.9h.8a15.5,15.5,0,0,1,5.9,1.4l.5.2C16.7,9.7,17.5,1,24.3,1m0-1A6.7,6.7,0,0,0,18,3.9a10.8,10.8,0,0,0-.5,7.7,19.4,19.4,0,0,0-4.2-.7h-.9a18.6,18.6,0,0,0-8.1,2H3.9l-.3.2H3.3l-.9.5-1.5,1H.8A2.5,2.5,0,0,0,0,17.1a.3.3,0,0,1,.1.2H.2v.2a2.3,2.3,0,0,0,1.1,1.1v.6h0a4.4,4.4,0,0,0,1.2,3,5,5,0,0,0-.8,3.9h0a1.9,1.9,0,0,0,1.7,1.2,1.4,1.4,0,0,0,1-.5A1.1,1.1,0,0,0,4.7,26v-.3A1.7,1.7,0,0,1,5,24h.1a3.7,3.7,0,0,0,.1,1.1v.2a1.7,1.7,0,0,0,1.5,1.1,1.4,1.4,0,0,0,1-.5A1,1,0,0,0,8,24.8h.3a4.9,4.9,0,0,0-.1,2.4h0a1.9,1.9,0,0,0,1.7,1.2,1.4,1.4,0,0,0,1-.5,1.1,1.1,0,0,0,.3-1.1v-.3a1.3,1.3,0,0,1-.1-.6,1.5,1.5,0,0,0,1.5,1h.5a4.6,4.6,0,0,0,.5,2h.1a1.6,1.6,0,0,0,2.7.1,1.4,1.4,0,0,0,.1-1.4c-.1-.1-.1-.2-.2-.2a3.6,3.6,0,0,1,.1-3.2,3.3,3.3,0,0,0,.4,1.4h.1a1.7,1.7,0,0,0,1.3.7,1.5,1.5,0,0,0,1.2-.7,1.4,1.4,0,0,0,.1-1.3l-.2-.2a2,2,0,0,1-.2-1.1,4.9,4.9,0,0,0,3.3,1.4H23l.6-.3h.1a1.2,1.2,0,0,0,1,.4,1.6,1.6,0,0,0,1.5-1.1h0a4.4,4.4,0,0,0-.1-2h0a9.4,9.4,0,0,0,.9-1.2l.3-.7a.8.8,0,0,0,.2-.5,5.9,5.9,0,0,0,.2-1.3l1.5-.2c2.7-.3,5.5-3.5,6.3-7.2a7,7,0,0,0-3.2-8l-.7-.2a1.4,1.4,0,0,0-1.1.7,1.2,1.2,0,0,0,.1,1.3,6.1,6.1,0,0,0,.7,1h-.4a1.4,1.4,0,0,0-1.2.7,1.7,1.7,0,0,0,0,1.4l.7.9h-.2a1.4,1.4,0,0,0-1.1.7c-.1.3-.5,1,1,3.2a3.5,3.5,0,0,1-2.8,1.9,2,2,0,0,1-1.1-.3,12.3,12.3,0,0,0-3.4-1.1,3.4,3.4,0,0,1-1.5-3.1c2.5-1.2,2.5-1.9,2.5-2.3A1.2,1.2,0,0,0,23,5.9a2.2,2.2,0,0,0,1.2-.5.1.1,0,0,0,.1-.1,1.3,1.3,0,0,0,.5-1.5,1.4,1.4,0,0,0-.9-.8L25,2.4A1.3,1.3,0,0,0,25.7,1a1.2,1.2,0,0,0-1.2-1Z" style="fill:#a86d39"/></g></g></svg>