<svg xmlns="http://www.w3.org/2000/svg" viewBox="0 0 76 243.9"><g id="Layer_2" data-name="Layer 2"><g id="Layer_1-2" data-name="Layer 1"><path d="M14.5,110.1H12.7s3.7-5.9,8.1-11.7c9.2-12,12.4-12,14-11.9s4.7,0,14.8,11.4c4.9,5.6,9,11.2,9.1,11.3H56.9c-.1-.1-4.2-5.6-9.1-11.1C38.6,87.6,35.2,87,34.7,86.9s-3.9.8-12.2,11.7C18.1,104.3,14.5,110.1,14.5,110.1Z" style="fill:#161616;stroke:#161616;stroke-miterlimit:10;stroke-width:2px"/><path d="M35.7,87.2c-4.1,0-7.5-1-7.5-2.2s3.4-2.3,7.5-2.3,7.5,1,7.5,2.3S39.9,87.2,35.7,87.2Zm0-3.7c-2.6,0-4.7.7-4.7,1.5s2.1,1.4,4.7,1.4,4.7-.7,4.7-1.4S38.3,83.5,35.7,83.5Z" style="fill:#ddb663"/><path d="M36.1,84.1c-.8,0-1.4-.2-1.4-.4L33.9,1.4c0-.2.6-.4,1.3-.4s1.5.2,1.5.4l.8,82.3c0,.2-.6.4-1.4.4Z" style="fill:#161616;stroke:#161616;stroke-miterlimit:10;stroke-width:2px"/><path d="M35.7,104.3c16.2,0,29.4,2.6,29.4,5.7S63,135,35.7,135,6.3,113.2,6.3,110s13.2-5.7,29.4-5.7m0-3A119.7,119.7,0,0,0,14.3,103c-5.1,1-11,2.7-11,7,0,.3.4,28,32.4,28s32.4-27.7,32.4-28c0-4.3-5.9-6-11.1-7a118.5,118.5,0,0,0-21.3-1.7Z" style="fill:#924f28"/><path d="M65.1,110c0,3.2-2.1,25-29.4,25S6.3,113.2,6.3,110s13.2-5.7,29.4-5.7S65.1,106.9,65.1,110Z" style="fill:#e57225"/><ellipse cx="35.7" cy="110" rx="29.4" ry="5.7" style="fill:#f9d9b7"/><ellipse cx="35.7" cy="109.5" rx="23.3" ry="4" style="fill:#af7553"/><path d="M19.3,137.8c0-3.8,0-7.3-.2-10.7h.1a.4.4,0,0,0-.1-.3q-.2-5.1-.6-9.3a17.9,17.9,0,0,1,.2-7.3c.5-1.8,1.8-1.8,3.6-1.8h1.3c.2,0,.3-.2.3-.4a.3.3,0,0,0-.3-.3H22.3c-1.9,0-3.6,0-4.3,2.3s-.4,5.1-.2,7.6.5,6,.7,9.4A45.8,45.8,0,0,1,6.1,143.5a.5.5,0,0,0,0,.5h.5a46.3,46.3,0,0,0,11.9-15.5c.2,5.2.2,10.9.1,16.9h-.1a61.8,61.8,0,0,0-11.1,27c0,.2.1.4.3.4h.1a.3.3,0,0,0,.3-.3,61.3,61.3,0,0,1,10.5-26.1c-.1,6.3-.3,12.8-.5,19.3v1.3h0c-.2.1-.1.3,0,.5h0c-.1,2.1-.1,4.2-.2,6.4a35.3,35.3,0,0,0-7,19.5.3.3,0,0,0,.3.3h0c.2,0,.4-.1.4-.3a34.4,34.4,0,0,1,6.3-18.3q-.1,8-.3,15.6h-.1a.4.4,0,0,0,0,.5v4.8a15.1,15.1,0,0,0-6,7.6,47.4,47.4,0,0,0-2,9.8c0,.2.1.4.3.4h0c.2,0,.4-.1.4-.3a39.1,39.1,0,0,1,2-9.6,15.2,15.2,0,0,1,5.3-7.1A159.5,159.5,0,0,0,18.8,217l.2.2a34.2,34.2,0,0,1,.1,11.5c0,.2.1.3.3.4h0c.2,0,.3-.1.4-.3a34.1,34.1,0,0,0-.5-13.5h0a166.6,166.6,0,0,1-1-18.8.2.2,0,0,0,0-.3h0v-3.7a43.4,43.4,0,0,1,7,16.9.3.3,0,0,0,.3.3h.1c.1-.1.3-.2.2-.4a41.4,41.4,0,0,0-7.6-17.9c0-7.4.2-15.3.5-23.1a25,25,0,0,1,7.7,15.7.4.4,0,0,0,.4.3h0c.2,0,.3-.2.3-.4a25.7,25.7,0,0,0-8.4-16.5v-1.5c.3-9.2.5-18.5.5-27.1a24.3,24.3,0,0,1,7.3,18.9.3.3,0,0,0,.3.3h0c.2,0,.4-.1.4-.3A24.7,24.7,0,0,0,19.3,137.8Z" style="fill:none;stroke:#2e5b1d;stroke-miterlimit:10"/><path d="M38.6,142.3h-.1a10.8,10.8,0,0,0-.8-1.9c-2.1-4.6-4.3-9.3-5.1-14.4a23.1,23.1,0,0,1-.1-3.8l8.5,12h.3c.1,0,.2,0,.2-.1a.2.2,0,0,0,.1-.4l-9.1-12.7c.4-4.2,1.6-8.9,3.7-10.2a2.5,2.5,0,0,1,2.8.3h.4c.1-.2.1-.4-.1-.5a3.1,3.1,0,0,0-3.5-.4c-2.3,1.4-3.6,6.3-3.9,10.7a.2.2,0,0,0,0,.3,18.7,18.7,0,0,0,.1,4.8c.1.8.3,1.6.4,2.4v.2a38.8,38.8,0,0,0-.2,14.8c.1.2.2.3.4.3h0c.2,0,.3-.2.3-.4a38.3,38.3,0,0,1,0-13.5,67.5,67.5,0,0,0,4.3,10.8c.4.8.7,1.6,1.1,2.5,1.9,4.3,3.7,8.8,4.1,13.5A32.1,32.1,0,0,0,30.9,169c-.1.2,0,.4.1.4h.2l.3-.2a31.4,31.4,0,0,1,10.8-11.8,14.1,14.1,0,0,1-.1,2.9c-.4,4.6-2.5,8.9-4.5,13s-4.4,9.1-4.7,14.1,1.4,9.3,2.9,13.7,2.9,8.6,2.7,13a36.1,36.1,0,0,1-1.8,9.6c-.1.1-.1.3-.2.5l-.2.2a27.8,27.8,0,0,0-1.1,5,20.4,20.4,0,0,0-.1,7.4.3.3,0,0,0,.3.3h.1l.3-.3a2.4,2.4,0,0,0,.2.8.3.3,0,0,0,.3.3h.1a.4.4,0,0,0,.2-.5,23.9,23.9,0,0,1-.7-8c.4-1.8.9-3.7,1.4-5.5a41.4,41.4,0,0,0,1.9-9.8c.1-4.5-1.4-8.9-2.8-13.2s-3-8.9-2.8-13.4c0-.2.1-.4.1-.6a38,38,0,0,1,11.5,18.9.3.3,0,0,0,.3.3h.1c.2-.1.3-.3.2-.4a38.5,38.5,0,0,0-12-19.7c.5-4.3,2.5-8.4,4.4-12.4a10.1,10.1,0,0,0,.7-1.5,28.3,28.3,0,0,0,3.2,4.3,18.3,18.3,0,0,1,1.3,1.6c2.1,2.6,3,4.7,2.9,6.8a.4.4,0,0,0,.4.4h0a.3.3,0,0,0,.3-.3c.1-2.3-.9-4.6-3-7.3l-1.4-1.6a24.3,24.3,0,0,1-3.3-4.6h0a36.2,36.2,0,0,0,3.5-11c.1-1.2.1-2.4.1-3.6h0c-.3-4.4-1.9-8.8-3.7-12.9l9.1,8.9h.5a.4.4,0,0,0,0-.5Z" style="fill:none;stroke:#2e5b1d;stroke-miterlimit:10"/><path d="M70.4,214.5a24.7,24.7,0,0,0-7.5-13.3,15.3,15.3,0,0,0-.3-3,29.1,29.1,0,0,0-1.6-5,28.8,28.8,0,0,1-1.5-5c-.8-4.1.1-8.4.9-12.6s2-9.9.4-14.6a18.7,18.7,0,0,0-1.5-3.2h0a.3.3,0,0,0-.2-.4h0l-1.2-1.9a40.9,40.9,0,0,1-2.5-4.6c-2.2-5.4-1.2-11.2-.1-17.3a35.9,35.9,0,0,1,9.9,12.3l.3.2h.2c.1,0,.2-.3.1-.4a37.3,37.3,0,0,0-10.3-12.7h-.1c1-5.5,2-11.1.5-16.5-1.1-3.7-4.2-7.5-8-6.9a.3.3,0,0,0-.3.3c0,.2.2.4.4.3,3.4-.4,6.3,3,7.2,6.5a3.1,3.1,0,0,1,.2.8.1.1,0,0,1-.1.1,44.7,44.7,0,0,0-4.9,13.2c0,.2.1.3.3.4h0c.2,0,.3-.1.4-.3a42.5,42.5,0,0,1,4.5-12.5c.9,4.8,0,9.8-.9,14.7s-2.3,12.4.1,18.1a27.7,27.7,0,0,0,2.6,4.8l1.2,2.1a26.7,26.7,0,0,1-6.4,13.3c-.1.2-.1.4.1.5s.1.1.2.1h.2a28.6,28.6,0,0,0,6.4-12.9,25.6,25.6,0,0,1,1.1,2.4c1.4,4.1.7,8.3-.2,12.8h0A31.6,31.6,0,0,0,57.8,187a.3.3,0,0,0,.3.3h0c.2,0,.4-.2.3-.3a25.5,25.5,0,0,1,.2-3.9,18.9,18.9,0,0,0,.2,5.3,49.9,49.9,0,0,0,1.6,5.1,24.4,24.4,0,0,1,1.5,4.8c1.1,5-.3,10-2.4,15.4h0a8.9,8.9,0,0,0-3.5,6.5,22.6,22.6,0,0,0,.6,7.3.3.3,0,0,0,.3.3h0c.2-.1.4-.2.3-.4a25,25,0,0,1-.5-7.2A8.1,8.1,0,0,1,59,215a24.4,24.4,0,0,1-1,2.4.4.4,0,0,0,.2.4h.1c.2,0,.3,0,.3-.2,2-4.5,4.3-9.9,4.4-15.5a25.2,25.2,0,0,1,6.8,12.5.3.3,0,0,0,.3.3h.1C70.4,214.8,70.5,214.6,70.4,214.5Z" style="fill:none;stroke:#2e5b1d;stroke-miterlimit:10"/><path d="M13.6,134.3h.1c.3.1.6.1.8.3a1.1,1.1,0,0,1,.3.7,13.5,13.5,0,0,1-.1,4.5,9.5,9.5,0,0,1-7.8,7.4h-1a3,3,0,0,1-2-.6c-1.3-1.1-.9-3.2-.2-4.8a15.3,15.3,0,0,1,6.6-6.7,7.4,7.4,0,0,1,3.3-.9m0-3a9.8,9.8,0,0,0-4.7,1.3,18,18,0,0,0-7.9,8c-1.6,3.3-1.2,6.6,1,8.4a5.9,5.9,0,0,0,3.9,1.3H7.3a12.6,12.6,0,0,0,10.3-9.7,17.1,17.1,0,0,0,.2-5.6,4.5,4.5,0,0,0-1.2-2.5,4.7,4.7,0,0,0-2.7-1.1Z" style="fill:#2e5b1d"/><path d="M23.3,141.7h.3a21,21,0,0,0,3.3,2.6,12.4,12.4,0,0,1,4.8,9.3,8.7,8.7,0,0,1-1,5,4.6,4.6,0,0,1-3.9,2.4h-.4a4.6,4.6,0,0,1-3.2-2,11.7,11.7,0,0,1-1.6-3.6,20.9,20.9,0,0,1,.5-12.6c.2-.5.7-1.1,1.2-1.1m0-3a4.3,4.3,0,0,0-3.9,3c-2.3,5.4-1.6,10.8-.7,14.4a14,14,0,0,0,2,4.6A7.7,7.7,0,0,0,26,164h.8a7.7,7.7,0,0,0,6.4-3.8,10.6,10.6,0,0,0,1.5-6.8,15.6,15.6,0,0,0-6-11.5l-1.2-.9a5.5,5.5,0,0,1-1.6-1.2,2.1,2.1,0,0,0-1.1-.8,2.8,2.8,0,0,0-1.5-.4Z" style="fill:#2e5b1d"/><path d="M13.4,153.9h0c.5,0,.7.5.8,1,.9,5.5,1.7,11.5-.9,16.4-.9,1.8-2.4,3.5-4.3,3.7H8.4a4.8,4.8,0,0,1-3.8-2A7.2,7.2,0,0,1,3,168.5,13.2,13.2,0,0,1,6,160a24.7,24.7,0,0,1,6.9-6h.5m0-3a3.3,3.3,0,0,0-2,.6,26.1,26.1,0,0,0-7.8,6.7A16.4,16.4,0,0,0,0,168.5,10.6,10.6,0,0,0,2.2,175a8.3,8.3,0,0,0,6.2,3.1h1c2.7-.4,5-2.3,6.6-5.3,2.9-5.8,2.1-12.5,1.1-18.3a3.7,3.7,0,0,0-3.6-3.5Z" style="fill:#2e5b1d"/><path d="M21.2,169.7a7.7,7.7,0,0,1,4.6,2.6,16.5,16.5,0,0,1,2.8,4.4,11.9,11.9,0,0,1,1.5,5.5,4.7,4.7,0,0,1-3.4,4.3h-.5a5.7,5.7,0,0,1-4.1-2.5c-2.9-4-2.5-9.6-.9-14.3m0-3a3,3,0,0,0-2.8,2c-2.3,6.6-1.8,12.8,1.3,17.1a8.4,8.4,0,0,0,6.5,3.7h1c3.2-.5,5.6-3.4,5.9-7a14.9,14.9,0,0,0-1.8-7,21.5,21.5,0,0,0-3.3-5.2,11.1,11.1,0,0,0-6.4-3.5Z" style="fill:#2e5b1d"/><path d="M13.6,180.2c.9,0,1.4,1.1,1.6,1.9a18,18,0,0,1-1.7,12.7c-.7,1.3-1.9,2.6-3.2,2.6H9.7A2.6,2.6,0,0,1,8,195.6a5.7,5.7,0,0,1-.2-2.6,21.6,21.6,0,0,1,4.6-11.9,2.1,2.1,0,0,1,1-.9h.2m0-3h-.8a5.4,5.4,0,0,0-2.8,1.9,25.9,25.9,0,0,0-5.2,13.6,8.1,8.1,0,0,0,.4,3.7,5.3,5.3,0,0,0,3.7,3.7,3.2,3.2,0,0,0,1.4.2c2.2,0,4.4-1.5,5.8-4.1a21.8,21.8,0,0,0,2.1-14.8c-.6-2.6-2.4-4.3-4.6-4.3Z" style="fill:#2e5b1d"/><path d="M13.5,200.2a17.4,17.4,0,0,1,.1,13.6c-.6,1.6-1.8,3.3-3.6,3.5H9.6c-1.9,0-3.5-1.9-3.7-3.8a9.8,9.8,0,0,1,1.8-5.9,38.5,38.5,0,0,1,5.8-7.5m0-3a3.1,3.1,0,0,0-2.2.9,43.6,43.6,0,0,0-6.2,8.1c-1.2,2-2.5,4.7-2.2,7.7s3.4,6.5,6.7,6.5h.8c2.6-.3,4.7-2.3,6-5.4a20.2,20.2,0,0,0-.2-16,3,3,0,0,0-2.2-1.7Z" style="fill:#2e5b1d"/><path d="M19.1,214.8a20.2,20.2,0,0,1,4,8.5,9.5,9.5,0,0,1-2.7,8.7,2.6,2.6,0,0,1-1.1.7h-.2a2.3,2.3,0,0,1-1.7-1c-1.3-1.5-1.4-3.6-1.4-5.6.1-3.9.8-8,3.1-11.3m0-3h0a2.8,2.8,0,0,0-2.4,1.3c-2.4,3.3-3.6,7.5-3.7,13-.1,2.3.1,5.2,2.1,7.5a5.2,5.2,0,0,0,4,2.1h.8a5.8,5.8,0,0,0,2.5-1.3A12.5,12.5,0,0,0,26,222.9a21.8,21.8,0,0,0-4.5-9.8,2.8,2.8,0,0,0-2.4-1.3Z" style="fill:#2e5b1d"/><path d="M22.1,197.8a18.2,18.2,0,0,1,5,6.3,11,11,0,0,1,1.7,4.2,4.9,4.9,0,0,1-1.5,4.2,2.7,2.7,0,0,1-1.7.6h-.1c-1.4,0-2.4-1.4-3-2.7a16.2,16.2,0,0,1-.4-12.6m0-3h-.7a3,3,0,0,0-2.1,1.7,19.3,19.3,0,0,0,.5,15.1c1.3,2.8,3.3,4.3,5.6,4.4h.2a5.5,5.5,0,0,0,3.6-1.3,7.3,7.3,0,0,0,2.5-6.8,15.8,15.8,0,0,0-1.9-5.4,24.8,24.8,0,0,0-5.8-7.2,3.1,3.1,0,0,0-1.9-.6Z" style="fill:#2e5b1d"/><path d="M40.1,194.1l.8.2a20.9,20.9,0,0,1,4.2,2.9,10.6,10.6,0,0,1,3.2,6.4,5.8,5.8,0,0,1-1,4.4,3.7,3.7,0,0,1-2.8,1.4,2.4,2.4,0,0,1-1.3-.4,4.7,4.7,0,0,1-1.4-1.4,16.3,16.3,0,0,1-2.3-12.9c0-.2.1-.3.2-.5h.4m0-3a3.5,3.5,0,0,0-2.5,1,4.3,4.3,0,0,0-1,1.9,19.2,19.2,0,0,0,2.7,15.3,9.6,9.6,0,0,0,2.5,2.4,6.4,6.4,0,0,0,2.7.7,6.6,6.6,0,0,0,5.2-2.6,9,9,0,0,0,1.6-6.6,13.7,13.7,0,0,0-4.1-8.2,24.8,24.8,0,0,0-4.9-3.3,4.6,4.6,0,0,0-2.2-.6Z" style="fill:#2e5b1d"/><path d="M42,172.7c2.9,0,5.5,2.1,7,4.6a8.5,8.5,0,0,1,1.3,6.1,4.7,4.7,0,0,1-4.2,3.6h-.5a5.4,5.4,0,0,1-3.9-3.2,14.1,14.1,0,0,1-1.6-10l.3-.8.8-.2H42m0-3H40.8a3.7,3.7,0,0,0-2.4,1.1,4,4,0,0,0-1.2,2.2,16.8,16.8,0,0,0,1.9,12.2c1.5,2.7,3.7,4.4,6.2,4.7h.8a7.7,7.7,0,0,0,7.1-5.8,11.4,11.4,0,0,0-1.6-8.4c-1.8-2.9-5.2-6.1-9.6-6.1Z" style="fill:#2e5b1d"/><path d="M36.7,161.7a6.8,6.8,0,0,1,.4,6.5,6.1,6.1,0,0,1-5.4,3.5h-.1c-1.7,0-3.6-1.1-3.8-2.8s.9-3,2.2-4a14.9,14.9,0,0,1,6.7-3.2m0-3H36a19.2,19.2,0,0,0-7.9,3.7c-2.5,2-3.7,4.5-3.3,6.9s3.4,5.2,6.8,5.3h.1a9.3,9.3,0,0,0,8.1-5.1,9.7,9.7,0,0,0-.7-9.6,2.9,2.9,0,0,0-2.4-1.3Z" style="fill:#2e5b1d"/><path d="M41,144.5a11.1,11.1,0,0,1,6.4,1.8,8.1,8.1,0,0,1,3.5,6.4,3.1,3.1,0,0,1-.6,1.9,2.6,2.6,0,0,1-2,.8h-.7a7.5,7.5,0,0,1-3.9-2.5,13.8,13.8,0,0,1-3.5-8.4H41m0-3H40a3,3,0,0,0-2.8,3.2A16.7,16.7,0,0,0,41.5,155a10,10,0,0,0,5.6,3.3h1.2a5.6,5.6,0,0,0,4.3-1.9,6.3,6.3,0,0,0,1.3-3.7,10.6,10.6,0,0,0-4.8-8.9,13.6,13.6,0,0,0-8.1-2.4Z" style="fill:#2e5b1d"/><path d="M32.2,130.9c.7,1.4,1.3,2.8,1.9,4.2a17.9,17.9,0,0,1,1.6,4.6,6.5,6.5,0,0,1-1,4.7,3.4,3.4,0,0,1-2.4,1.3h-.2a3.2,3.2,0,0,1-2.5-1.9,6.9,6.9,0,0,1-.4-3.2,19.7,19.7,0,0,1,3-9.7m0-3a3,3,0,0,0-2.5,1.4,23,23,0,0,0-3.5,11.1,8.7,8.7,0,0,0,.7,4.6,6,6,0,0,0,4.9,3.7h.5a6.1,6.1,0,0,0,4.8-2.5,9.2,9.2,0,0,0,1.6-7,26.3,26.3,0,0,0-1.9-5.4l-1.1-2.4-.7-1.7a3.1,3.1,0,0,0-2.5-1.8Z" style="fill:#2e5b1d"/><path d="M34.5,123.8a7.2,7.2,0,0,1,4.3,2,27.5,27.5,0,0,1,4.9,5.3,3.8,3.8,0,0,1,.9,1.8c.2,1.6-1.4,3-3,3.1h-.2a6.3,6.3,0,0,1-4-1.9A12,12,0,0,1,34,123.8h.5m0-3h-.9a3,3,0,0,0-2.6,2.5,14.9,14.9,0,0,0,4.3,12.8,9,9,0,0,0,6.1,2.8h.4a6.6,6.6,0,0,0,4.5-2.3,5.2,5.2,0,0,0,1.2-4.2,7.8,7.8,0,0,0-1.4-3.2,29.5,29.5,0,0,0-5.4-5.8,9.7,9.7,0,0,0-6.2-2.7Z" style="fill:#2e5b1d"/><path d="M53.7,120.1H54a1.7,1.7,0,0,1,.8,1.3,17.7,17.7,0,0,1,.5,6.5,7.9,7.9,0,0,1-2.9,5.5,4.4,4.4,0,0,1-2.4.9l-.9-.2c-1.5-.6-1.9-2.5-1.9-4.1a12.5,12.5,0,0,1,5.5-9.6,1.8,1.8,0,0,1,1-.4m0-3a5.2,5.2,0,0,0-2.7.9,15.7,15.7,0,0,0-6.8,12c-.1,3.3,1.3,6,3.8,7a6.5,6.5,0,0,0,2,.4,7.1,7.1,0,0,0,4.1-1.5,10.8,10.8,0,0,0,4.2-7.6,19.9,19.9,0,0,0-.6-7.4,4.4,4.4,0,0,0-2.7-3.5,3.1,3.1,0,0,0-1.3-.3Z" style="fill:#2e5b1d"/><path d="M56.5,134a9.9,9.9,0,0,1,5.5,1.9,19.6,19.6,0,0,1,4.1,4.5c1.1,1.5,2.1,3.3,1.5,5.1a3.9,3.9,0,0,1-4,2.7h-.1a7.1,7.1,0,0,1-4.6-2.2,11.4,11.4,0,0,1-2.6-12h.2m0-3h-.3a2.9,2.9,0,0,0-2.7,1.9,14.5,14.5,0,0,0,3.3,15.2,10.4,10.4,0,0,0,6.7,3.1h.1a7.1,7.1,0,0,0,6.9-4.8c.9-3.1-.7-5.9-1.9-7.7a25,25,0,0,0-4.8-5.2,12.2,12.2,0,0,0-7.3-2.5Z" style="fill:#2e5b1d"/><path d="M57.9,157.8l1,.2a14,14,0,0,1,1.4,8,9.3,9.3,0,0,1-4,6.8,5.7,5.7,0,0,1-3,1,3.3,3.3,0,0,1-1.5-.3,4.2,4.2,0,0,1-2.4-3.8,9.2,9.2,0,0,1,1.2-4.5,18.3,18.3,0,0,1,3.8-5.4,5.3,5.3,0,0,1,3.5-2m0-3c-2.4,0-4.4,1.6-5.7,2.9a22.2,22.2,0,0,0-4.3,6.2,12.3,12.3,0,0,0-1.5,6,7.7,7.7,0,0,0,4.1,6.4,8.1,8.1,0,0,0,7.5-1,12.2,12.2,0,0,0,5.3-8.9,17.9,17.9,0,0,0-1.7-9.7,3.6,3.6,0,0,0-1.5-1.5,7.8,7.8,0,0,0-2.2-.4Z" style="fill:#2e5b1d"/><path d="M59.9,175.5a27,27,0,0,1,3.9,10.2c.2,1.5.2,3.4-1.1,4.1a2,2,0,0,1-1.1.3h-1a6.5,6.5,0,0,1-5.9-3.5,7.3,7.3,0,0,1,.7-6.4,18.7,18.7,0,0,1,4.5-4.8m0-3a2.8,2.8,0,0,0-1.9.7,21.4,21.4,0,0,0-5.2,5.6,9.9,9.9,0,0,0-.8,9.1,9.3,9.3,0,0,0,8.6,5.3H62a6.7,6.7,0,0,0,2.2-.7c1-.6,3.3-2.4,2.5-7.2a31,31,0,0,0-4.2-11.3,3.4,3.4,0,0,0-2.1-1.4Z" style="fill:#2e5b1d"/><path d="M60.7,194.6H61a.8.8,0,0,1,.3.7c.2,4.5-.8,9.4-4.2,12.3a4.4,4.4,0,0,1-3,1.4,2,2,0,0,1-1.3-.4,3.8,3.8,0,0,1-1.4-3.5,9.7,9.7,0,0,1,3.1-6.1,29.7,29.7,0,0,1,5.6-4.3l.6-.2m0-3a4,4,0,0,0-2.2.7,32.7,32.7,0,0,0-6.2,4.7,13.2,13.2,0,0,0-3.9,8,6.7,6.7,0,0,0,2.8,6.3,6,6,0,0,0,2.9.8,7.9,7.9,0,0,0,5-2.1c5-4.3,5.4-11.1,5.2-14.7a3.8,3.8,0,0,0-1.9-3.3,4.7,4.7,0,0,0-1.7-.4Z" style="fill:#2e5b1d"/><path d="M65.1,203.8c2.5.1,4.4,2.2,5.6,4.3a14.5,14.5,0,0,1,2.3,5.6,3.4,3.4,0,0,1-.3,2.2,2.9,2.9,0,0,1-2.7,1.6,4.5,4.5,0,0,1-2.3-.7,8,8,0,0,1-2.7-5,15.5,15.5,0,0,1,.1-8m0-3a2.9,2.9,0,0,0-2.8,2,17.2,17.2,0,0,0-.2,9.6c.7,3.2,1.9,5.4,3.9,6.8a6.8,6.8,0,0,0,4,1.3,5.8,5.8,0,0,0,5.4-3.3,6.2,6.2,0,0,0,.5-3.9,17,17,0,0,0-2.6-6.8c-2.8-4.6-6-5.6-8.1-5.7Z" style="fill:#2e5b1d"/><path d="M58.1,214.6c2.5.8,3.5,3.7,3.6,6.3a12.8,12.8,0,0,1-2.9,9.1,1,1,0,0,1-.7.4h-.5a8,8,0,0,1-4-7.8,12.1,12.1,0,0,1,4.5-7.9m0-3a3.1,3.1,0,0,0-2,.7,14.8,14.8,0,0,0-5.4,9.9,10.6,10.6,0,0,0,5.5,10.7,4.3,4.3,0,0,0,1.9.5h.3a4.1,4.1,0,0,0,2.7-1.4,15.8,15.8,0,0,0,3.6-11.2c-.2-4.5-2.4-8-5.7-9.1Z" style="fill:#2e5b1d"/><path d="M36.6,225.3a47.5,47.5,0,0,0,2.5,5.6,10.7,10.7,0,0,1,1,6.1,5,5,0,0,1-4.2,3.9h-.1c-2.3,0-4.1-2.4-4.4-4.7s.8-4.7,1.8-6.8a11.3,11.3,0,0,1,2.7-4h.7m0-3H35.5a2.6,2.6,0,0,0-1.5.7,13,13,0,0,0-3.5,5,15.4,15.4,0,0,0-2,8.4c.3,3.6,3.2,7.4,7.3,7.4h.1a7.7,7.7,0,0,0,7.1-6.3,12.5,12.5,0,0,0-1.2-7.8,22,22,0,0,0-.9-2.1,18.1,18.1,0,0,1-1.4-3.3,3,3,0,0,0-2.9-2.1Z" style="fill:#2e5b1d"/><path d="M19.2,217.2l-.4-.2c-1.7-12.1-1.2-32-.7-51.2s1-36-.3-48.2c-.2-2.5-.5-5.2.2-7.6s2.4-2.3,4.3-2.3h1.3a.3.3,0,0,1,.3.3c0,.2-.1.4-.3.4H22.3c-1.8,0-3.1,0-3.6,1.8a17.9,17.9,0,0,0-.2,7.3c1.3,12.2.8,30.6.3,48.3s-1.1,39.1.7,51.1a.3.3,0,0,1-.3.3Z" style="fill:#174c30"/><path d="M35.5,237.2a.3.3,0,0,1-.3-.3c-.9-4.4.4-8.8,1.6-13.1a36.1,36.1,0,0,0,1.8-9.6c.2-4.4-1.3-8.8-2.7-13s-3.1-9-2.9-13.7,2.5-9.6,4.7-14.1,4.1-8.4,4.5-13-1.5-11.8-4-17.2c-.4-.9-.7-1.7-1.1-2.5-2.2-4.7-4.4-9.4-5.1-14.6s.6-13.8,3.8-15.8a3.1,3.1,0,0,1,3.5.4c.2.1.2.3.1.5H39a2.5,2.5,0,0,0-2.8-.3c-2.9,1.8-4.2,10.4-3.6,15.1s3,9.8,5.1,14.4a18.9,18.9,0,0,1,1.1,2.5c2.5,5.5,4.7,11.4,4.1,17.6s-2.5,9-4.6,13.2-4.3,9-4.6,13.9,1.3,9,2.8,13.4,2.9,8.7,2.8,13.2a41.4,41.4,0,0,1-1.9,9.8c-1.2,4.4-2.4,8.5-1.5,12.8,0,.2-.1.3-.3.4Z" style="fill:#174c30"/><path d="M58.3,217.8h-.1a.4.4,0,0,1-.2-.4c2.9-6.8,5.2-12.9,3.9-19.1a24.4,24.4,0,0,0-1.5-4.8,49.9,49.9,0,0,1-1.6-5.1c-.8-4.3.1-8.7.9-12.9s2-9.7.5-14.3a34.5,34.5,0,0,0-2.8-5.4,27.7,27.7,0,0,1-2.6-4.8c-2.4-5.7-1.2-12-.1-18.1s2-11.1.5-16.4c-.9-3.5-3.8-6.9-7.2-6.5-.2.1-.4-.1-.4-.3a.3.3,0,0,1,.3-.3c3.8-.6,6.9,3.2,8,6.9,1.5,5.4.5,11.2-.5,16.7s-2.3,12.2,0,17.8a40.9,40.9,0,0,0,2.5,4.6,29.7,29.7,0,0,1,2.9,5.6c1.6,4.7.6,9.7-.4,14.6s-1.7,8.5-.9,12.6a28.8,28.8,0,0,0,1.5,5,29.1,29.1,0,0,1,1.6,5c1.4,6.8-1.6,13.8-4,19.4C58.6,217.8,58.5,217.8,58.3,217.8Z" style="fill:#174c30"/><path d="M6.9,147.2a9.5,9.5,0,0,0,7.8-7.4,13.5,13.5,0,0,0,.1-4.5,1.1,1.1,0,0,0-.3-.7c-.2-.2-.5-.2-.8-.3a8.2,8.2,0,0,0-3.4.9,15.3,15.3,0,0,0-6.6,6.7c-.7,1.6-1.1,3.7.2,4.8A3.5,3.5,0,0,0,6.9,147.2Z" style="fill:#4a8c32"/><path d="M31.7,153.7a12.4,12.4,0,0,0-4.8-9.3,21,21,0,0,1-3.3-2.6c-.6-.3-1.2.4-1.5,1a20.9,20.9,0,0,0-.5,12.6,11.7,11.7,0,0,0,1.6,3.6,4.6,4.6,0,0,0,3.2,2,4.6,4.6,0,0,0,4.3-2.3A8.7,8.7,0,0,0,31.7,153.7Z" style="fill:#4a8c32"/><path d="M9,175c1.9-.2,3.4-1.9,4.3-3.7,2.6-4.9,1.8-10.9.9-16.4-.1-.5-.3-1-.8-1s-.3,0-.5.1A24.7,24.7,0,0,0,6,160a13.2,13.2,0,0,0-3,8.5,7.2,7.2,0,0,0,1.6,4.6A4.5,4.5,0,0,0,9,175Z" style="fill:#4a8c32"/><path d="M26.7,186.5a4.7,4.7,0,0,0,3.4-4.3,11.9,11.9,0,0,0-1.5-5.5,16.5,16.5,0,0,0-2.8-4.4,7.7,7.7,0,0,0-4.6-2.6c-1.6,4.7-2,10.3.9,14.3C23.2,185.5,24.9,186.8,26.7,186.5Z" style="fill:#4a8c32"/><path d="M9.7,197.3c1.6.5,3-1,3.8-2.5a18,18,0,0,0,1.7-12.7c-.2-.9-.8-2.1-1.8-1.9a2.1,2.1,0,0,0-1,.9A21.6,21.6,0,0,0,7.8,193a5.7,5.7,0,0,0,.2,2.6A2.6,2.6,0,0,0,9.7,197.3Z" style="fill:#4a8c32"/><path d="M10,217.3c1.8-.2,3-1.9,3.6-3.5a17.4,17.4,0,0,0-.1-13.6,38.5,38.5,0,0,0-5.8,7.5,9.8,9.8,0,0,0-1.8,5.9C6.2,215.6,8,217.6,10,217.3Z" style="fill:#4a8c32"/><path d="M19.3,232.7a2.6,2.6,0,0,0,1.1-.7,9.5,9.5,0,0,0,2.7-8.7,20.2,20.2,0,0,0-4-8.5c-2.3,3.3-3,7.4-3.1,11.3,0,2,.1,4.1,1.4,5.6A2.2,2.2,0,0,0,19.3,232.7Z" style="fill:#4a8c32"/><path d="M25.5,213.1a2.3,2.3,0,0,0,1.8-.6,4.9,4.9,0,0,0,1.5-4.2,11,11,0,0,0-1.7-4.2,18.2,18.2,0,0,0-5-6.3,16.2,16.2,0,0,0,.4,12.6C23.1,211.7,24.1,213.1,25.5,213.1Z" style="fill:#4a8c32"/><path d="M43.2,209a3.3,3.3,0,0,0,4.1-1,5.8,5.8,0,0,0,1-4.4,10.6,10.6,0,0,0-3.2-6.4,20.9,20.9,0,0,0-4.2-2.9c-.4-.2-.9-.4-1.2-.1s-.2.3-.2.5a16.3,16.3,0,0,0,2.3,12.9A4.7,4.7,0,0,0,43.2,209Z" style="fill:#4a8c32"/><path d="M41.7,183.8a5.4,5.4,0,0,0,3.9,3.2,4.5,4.5,0,0,0,4.7-3.6,8.5,8.5,0,0,0-1.3-6.1c-1.6-2.7-4.6-5-7.8-4.5l-.8.2-.3.8A14.1,14.1,0,0,0,41.7,183.8Z" style="fill:#4a8c32"/><path d="M31.6,171.7a6.2,6.2,0,0,0,5.5-3.5,6.8,6.8,0,0,0-.4-6.5,14.9,14.9,0,0,0-6.7,3.2c-1.3,1-2.5,2.4-2.2,4S29.9,171.7,31.6,171.7Z" style="fill:#4a8c32"/><path d="M47.6,155.4a3.2,3.2,0,0,0,2.7-.8,3.1,3.1,0,0,0,.6-1.9,8.1,8.1,0,0,0-3.5-6.4,12.1,12.1,0,0,0-7.2-1.8,13.8,13.8,0,0,0,3.5,8.4A7.5,7.5,0,0,0,47.6,155.4Z" style="fill:#4a8c32"/><path d="M34.7,144.4a6.5,6.5,0,0,0,1-4.7,17.9,17.9,0,0,0-1.6-4.6c-.6-1.4-1.2-2.8-1.9-4.2a19.7,19.7,0,0,0-3,9.7,6.9,6.9,0,0,0,.4,3.2,3.2,3.2,0,0,0,2.5,1.9A3,3,0,0,0,34.7,144.4Z" style="fill:#4a8c32"/><path d="M43.7,131.1a27.5,27.5,0,0,0-4.9-5.3c-1.4-1.1-3-2.2-4.8-2a12,12,0,0,0,3.4,10.3,5.7,5.7,0,0,0,4.2,1.9c1.6-.1,3.2-1.5,3-3.1A3.8,3.8,0,0,0,43.7,131.1Z" style="fill:#4a8c32"/><path d="M49.1,134.2a3.7,3.7,0,0,0,3.3-.7,7.9,7.9,0,0,0,2.9-5.5,17.7,17.7,0,0,0-.5-6.5,1.7,1.7,0,0,0-.8-1.3c-.5-.2-.9.1-1.3.3a12.5,12.5,0,0,0-5.5,9.6C47.2,131.7,47.6,133.6,49.1,134.2Z" style="fill:#4a8c32"/><path d="M67.6,145.5c.6-1.8-.4-3.6-1.5-5.1a19.6,19.6,0,0,0-4.1-4.5,9.3,9.3,0,0,0-5.7-1.9,11.4,11.4,0,0,0,2.6,12,7.1,7.1,0,0,0,4.6,2.2A4.2,4.2,0,0,0,67.6,145.5Z" style="fill:#4a8c32"/><path d="M51.8,173.5a4.6,4.6,0,0,0,4.5-.7,9.3,9.3,0,0,0,4-6.8,14,14,0,0,0-1.4-8c-1.6-.7-3.3.5-4.5,1.8a18.3,18.3,0,0,0-3.8,5.4,9.2,9.2,0,0,0-1.2,4.5A4.2,4.2,0,0,0,51.8,173.5Z" style="fill:#4a8c32"/><path d="M54.7,186.7c1.1,2.5,4.1,3.8,6.9,3.4a2,2,0,0,0,1.1-.3c1.3-.7,1.3-2.6,1.1-4.1a27,27,0,0,0-3.9-10.2,18.7,18.7,0,0,0-4.5,4.8A7.3,7.3,0,0,0,54.7,186.7Z" style="fill:#4a8c32"/><path d="M52.8,208.7c1.4.8,3.1.1,4.3-1,3.4-2.9,4.4-7.8,4.2-12.3a.8.8,0,0,0-.3-.7c-.3-.2-.6,0-.9.1a29.7,29.7,0,0,0-5.6,4.3,9.7,9.7,0,0,0-3.1,6.1A3.8,3.8,0,0,0,52.8,208.7Z" style="fill:#4a8c32"/><path d="M65,211.8a8,8,0,0,0,2.7,5c1.6,1.1,4.2.9,5-.9a3.4,3.4,0,0,0,.3-2.2,14.5,14.5,0,0,0-2.3-5.6c-1.2-2.1-3.1-4.2-5.6-4.3A15.5,15.5,0,0,0,65,211.8Z" style="fill:#4a8c32"/><path d="M58.8,230a12.8,12.8,0,0,0,2.9-9.1c-.1-2.6-1.1-5.5-3.6-6.3a12.1,12.1,0,0,0-4.5,7.9,8,8,0,0,0,4,7.8h.5A1,1,0,0,0,58.8,230Z" style="fill:#4a8c32"/><path d="M35.9,240.9a5,5,0,0,0,4.2-3.9,10.7,10.7,0,0,0-1-6.1,47.5,47.5,0,0,1-2.5-5.6h-.7a11.3,11.3,0,0,0-2.7,4c-1,2.1-2,4.4-1.8,6.8S33.5,240.9,35.9,240.9Z" style="fill:#4a8c32"/><path d="M6.3,144.1H6.1a.5.5,0,0,1,0-.5,44.3,44.3,0,0,0,12.4-16.7.4.4,0,0,1,.5-.1c.2,0,.2.2.2.4A46.9,46.9,0,0,1,6.6,144Z" style="fill:#174c30"/><path d="M7.8,172.9H7.7c-.2,0-.3-.2-.3-.4a61.8,61.8,0,0,1,11.1-27c.1-.2.3-.2.5-.1a.3.3,0,0,1,0,.5A60.3,60.3,0,0,0,8.1,172.6.3.3,0,0,1,7.8,172.9Z" style="fill:#174c30"/><path d="M26.9,157.9h0a.3.3,0,0,1-.3-.3,24.4,24.4,0,0,0-7.8-19.4.3.3,0,0,1,0-.5h.4a24.7,24.7,0,0,1,8.1,19.9C27.3,157.8,27.1,157.9,26.9,157.9Z" style="fill:#174c30"/><path d="M11.2,193.8h0a.3.3,0,0,1-.3-.3,35.6,35.6,0,0,1,7-19.6c.2-.1.4-.2.5,0a.2.2,0,0,1,.1.4,35,35,0,0,0-6.9,19.2C11.6,193.7,11.4,193.8,11.2,193.8Z" style="fill:#174c30"/><path d="M26.9,184.2a.4.4,0,0,1-.4-.3,25,25,0,0,0-8.4-16.3c-.1-.2-.2-.4,0-.5a.2.2,0,0,1,.4,0,25.4,25.4,0,0,1,8.7,16.7c0,.2-.1.4-.3.4Z" style="fill:#174c30"/><path d="M31.2,169.5H31c-.1,0-.2-.2-.1-.4a32.2,32.2,0,0,1,11.6-12.4.3.3,0,0,1,.3.5,32.3,32.3,0,0,0-11.3,12.2Z" style="fill:#174c30"/><path d="M48.6,152.9h-.2L38.1,142.7a.2.2,0,0,1,0-.4c.1-.2.3-.2.5,0l10.3,10a.4.4,0,0,1,0,.5Z" style="fill:#174c30"/><path d="M52.5,171.8c-.1,0-.2,0-.2-.1s-.2-.3-.1-.5a27,27,0,0,0,6.5-13.6c0-.2.2-.3.4-.3a.3.3,0,0,1,.2.4,27.6,27.6,0,0,1-6.6,14Z" style="fill:#174c30"/><path d="M58.1,187.3a.3.3,0,0,1-.3-.3A31.6,31.6,0,0,1,60,174.1c0-.2.2-.3.4-.2s.3.3.2.4A32.4,32.4,0,0,0,58.4,187c.1.1-.1.3-.3.3Z" style="fill:#174c30"/><path d="M70.1,214.9a.3.3,0,0,1-.3-.3,25.4,25.4,0,0,0-7.4-13,.4.4,0,0,1,0-.5h.5a25,25,0,0,1,7.5,13.4c.1.1,0,.3-.2.4Z" style="fill:#174c30"/><path d="M56.9,227.8a.3.3,0,0,1-.3-.3,22.6,22.6,0,0,1-.6-7.3,8.9,8.9,0,0,1,3.5-6.5c.2-.1.4-.1.5.1a.4.4,0,0,1-.1.5,7.6,7.6,0,0,0-3.2,5.9,25,25,0,0,0,.5,7.2c.1.2-.1.3-.3.4Z" style="fill:#174c30"/><path d="M36.4,238a.3.3,0,0,1-.3-.3,22.8,22.8,0,0,1,.3-13.2c.1-.2.2-.3.4-.2s.3.2.2.4a22.3,22.3,0,0,0-.3,12.8.4.4,0,0,1-.2.5Z" style="fill:#174c30"/><path d="M19.4,229.1h0c-.2-.1-.3-.2-.3-.4a35,35,0,0,0-.4-13.3c-.1-.1,0-.3.2-.4s.4.1.4.3a34.1,34.1,0,0,1,.5,13.5C19.7,229,19.6,229.1,19.4,229.1Z" style="fill:#174c30"/><path d="M9.9,213.9h0c-.2,0-.3-.2-.3-.4a47.4,47.4,0,0,1,2-9.8,14.9,14.9,0,0,1,6.3-7.7c.1-.1.3,0,.4.1s.1.4-.1.5a14,14,0,0,0-5.9,7.4,39.1,39.1,0,0,0-2,9.6C10.3,213.8,10.1,213.9,9.9,213.9Z" style="fill:#174c30"/><path d="M25.6,209.6a.3.3,0,0,1-.3-.3,41,41,0,0,0-7.8-18,.4.4,0,0,1,0-.5c.2-.1.4-.1.5.1a40.6,40.6,0,0,1,7.9,18.3c.1.2-.1.3-.2.4Z" style="fill:#174c30"/><path d="M45.6,206.2a.3.3,0,0,1-.3-.3,38.5,38.5,0,0,0-12-19.4.3.3,0,0,1,0-.4c.1-.2.3-.2.5-.1a38.9,38.9,0,0,1,12.1,19.8c.1.1,0,.3-.2.4Z" style="fill:#174c30"/><path d="M46.8,185.3h0c-.2,0-.4-.2-.3-.4,0-2.1-.9-4.2-3-6.8a18.3,18.3,0,0,0-1.3-1.6,26.9,26.9,0,0,1-3.4-4.7.4.4,0,0,1,.2-.5.4.4,0,0,1,.4.2,24.3,24.3,0,0,0,3.3,4.6l1.4,1.6c2.1,2.7,3.1,5,3,7.3A.3.3,0,0,1,46.8,185.3Z" style="fill:#174c30"/><path d="M32.5,143.8c-.2,0-.3-.1-.4-.3a38.8,38.8,0,0,1,.2-14.8.5.5,0,0,1,.4-.3c.2.1.3.2.3.4a37.8,37.8,0,0,0-.2,14.6c0,.2-.1.4-.3.4Z" style="fill:#174c30"/><path d="M41.3,134.3H41l-9.1-12.8c-.1-.2-.1-.4.1-.5a.2.2,0,0,1,.4.1l9.2,12.8a.2.2,0,0,1-.1.4C41.5,134.3,41.4,134.3,41.3,134.3Z" style="fill:#174c30"/><path d="M50.7,131h0c-.2-.1-.3-.2-.3-.4a44.7,44.7,0,0,1,4.9-13.2.4.4,0,0,1,.6.4,42.8,42.8,0,0,0-4.8,12.9C51,130.9,50.9,131,50.7,131Z" style="fill:#174c30"/><path d="M65.5,146l-.3-.2a34.1,34.1,0,0,0-10.1-12.5c-.1-.1-.2-.3-.1-.4s.4-.2.5-.1a37.3,37.3,0,0,1,10.3,12.7c.1.1,0,.4-.1.4Z" style="fill:#174c30"/></g></g></svg>