<svg xmlns="http://www.w3.org/2000/svg" viewBox="0 0 15.7 44.8"><g id="Layer_2" data-name="Layer 2"><g id="Layer_1-2" data-name="Layer 1"><g id="fu_book_4" data-name="fu_book 4"><path d="M13.5,2l-1.6-.2a27.5,27.5,0,0,0-8.1,0L2.2,2a.8.8,0,0,0-.7.8V42a.8.8,0,0,0,.7.8l1.6.2a27.5,27.5,0,0,0,8.1,0l1.6-.2a.8.8,0,0,0,.7-.8V2.8A.8.8,0,0,0,13.5,2Z" style="fill:#e8a4d2"/><path d="M13.5,2l-1.6-.2a27.5,27.5,0,0,0-8.1,0L2.2,2a.8.8,0,0,0-.7.8V7.2a.8.8,0,0,1,.7-.8l1.6-.2a27.5,27.5,0,0,1,8.1,0l1.6.2a.8.8,0,0,1,.7.8V2.8A.8.8,0,0,0,13.5,2Z" style="fill:#d98885"/><path d="M2.2,42.8l1.6.2a27.5,27.5,0,0,0,8.1,0l1.6-.2a.8.8,0,0,0,.7-.8V37.6a.8.8,0,0,1-.7.8l-1.6.3a36.6,36.6,0,0,1-8.1,0l-1.6-.3a.8.8,0,0,1-.7-.8V42A.8.8,0,0,0,2.2,42.8Z" style="fill:#d98885"/><path d="M11.2,22.7c0,6.3-1.6,11.4-3.5,11.4S4.3,29,4.3,22.7,5.9,11.3,7.7,11.3,11.2,16.4,11.2,22.7Z" style="fill:#ffe76b"/><path d="M13.8,2.1h-.3l-1.6-.2a27.5,27.5,0,0,0-8.1,0L2.2,2H1.9l-.2.2H1.6a.3.3,0,0,1-.1.2V42a.8.8,0,0,0,.7.8l1.6.2a26.9,26.9,0,0,0,4,.3,27.3,27.3,0,0,0,4.1-.3h.2l1.4-.2a.8.8,0,0,0,.7-.8h0V2.8h0A.8.8,0,0,0,13.8,2.1Z" style="fill:none;stroke:#84205c;stroke-miterlimit:10;stroke-width:3px"/></g></g></g></svg>