<svg xmlns="http://www.w3.org/2000/svg" viewBox="0 0 347.9 89"><g id="Layer_2" data-name="Layer 2"><g id="Layer_1-2" data-name="Layer 1"><path d="M325.3,54.4a14.3,14.3,0,0,1-5.8-1.2l-2.6-1.4a19.2,19.2,0,0,1-2.2-1.8,15.5,15.5,0,0,1-3.1-5,14.8,14.8,0,0,1-1-5.8,13.5,13.5,0,0,1,.4-2.9,14.3,14.3,0,0,1,.9-2.7,14.1,14.1,0,0,1,7.9-7.8,13.8,13.8,0,0,1,5.6-1.2,15.5,15.5,0,0,1,5.6,1.1,14.7,14.7,0,0,1,8.2,7.8,12.5,12.5,0,0,1,1.3,5.7,13.7,13.7,0,0,1-1,5.7,17.6,17.6,0,0,1-3.3,4.9,15.8,15.8,0,0,1-5,3.4,15.2,15.2,0,0,1-5.9,1.2Z" style="fill:#fcd54d"/><path d="M325.4,26.1h.1a13.8,13.8,0,0,1,4.9,1,12.1,12.1,0,0,1,4.3,2.7,12.2,12.2,0,0,1,3.1,4.3,12,12,0,0,1,1.2,5.2,12.3,12.3,0,0,1-.9,5,16,16,0,0,1-2.9,4.4,14.2,14.2,0,0,1-9.9,4.2,13.1,13.1,0,0,1-5.2-1.1,10.1,10.1,0,0,1-2.3-1.2l-2-1.7a11.5,11.5,0,0,1-2.8-4.5,11.9,11.9,0,0,1-.9-5.2,10.1,10.1,0,0,1,.3-2.5,18.3,18.3,0,0,1,.8-2.5,13.5,13.5,0,0,1,7.2-7.1,14.4,14.4,0,0,1,5-1m0-3a16.8,16.8,0,0,0-6.2,1.3,16.3,16.3,0,0,0-8.7,8.6,17.6,17.6,0,0,0-1,3,16.5,16.5,0,0,0-.4,3.1,15.7,15.7,0,0,0,1.1,6.4,14,14,0,0,0,3.5,5.5,11.6,11.6,0,0,0,2.4,2,15.6,15.6,0,0,0,2.8,1.6,16.4,16.4,0,0,0,12.8,0,17.9,17.9,0,0,0,5.6-3.8,15.8,15.8,0,0,0,3.5-5.3,13.9,13.9,0,0,0,1.2-6.3,16.1,16.1,0,0,0-1.4-6.4,17.4,17.4,0,0,0-3.8-5.2,18.2,18.2,0,0,0-5.3-3.3,15.7,15.7,0,0,0-6-1.2Z" style="fill:#ff8d3d"/><path d="M317.1,42.8a10.2,10.2,0,0,0,1.9,3l1.4,1.1,1.5.8a8.9,8.9,0,0,0,7,0,11,11,0,0,0,3.1-2,9.5,9.5,0,0,0,1.9-3,8,8,0,0,0,.7-3.4,10.5,10.5,0,0,0-.8-3.4,10.3,10.3,0,0,0-2.1-2.9,8.8,8.8,0,0,0-2.9-1.8,9.2,9.2,0,0,0-3.3-.6,10.2,10.2,0,0,0-3.4.6,9.4,9.4,0,0,0-4.8,4.8,7.5,7.5,0,0,0-.5,1.6,8.8,8.8,0,0,0-.2,1.7A8.5,8.5,0,0,0,317.1,42.8Z" style="fill:#ffeb81"/><path d="M335.5,36.6h.2a.9.9,0,0,0,.4-1.2,11.2,11.2,0,0,0-3.8-4.6.8.8,0,0,0-1.2.2.8.8,0,0,0,.2,1.2,10,10,0,0,1,3.2,3.9A.9.9,0,0,0,335.5,36.6Z" style="fill:#fff"/><path d="M328.1,30.7a1.3,1.3,0,0,0,1.7.7,1.4,1.4,0,0,0,.7-1.7,1.3,1.3,0,1,0-2.4,1Z" style="fill:#fff"/><path d="M321.5,29.9a63.7,63.7,0,0,1-6.9,2.5.9.9,0,0,1-1.1-.7v-.5a.8.8,0,0,1,.3-1c.1,0,.1-.1.1-.2l-.3-1.1c-.6-2.5-1.2-4.1-1-5.3s1.2-2,3.6-3.1a.1.1,0,0,0,.1-.1c-.1-.5.1-.7.8-1h.1c.7-.3,1-.2,1.3.2h.2l1.6-.6,1.3-.2a2.2,2.2,0,0,1,1.8.5c1,.7,1.7,2.2,3,4.4a2.4,2.4,0,0,1,.6.9l.3.2a.9.9,0,0,1,.9.4l.2.5a.8.8,0,0,1-.2,1.2C325.9,27.9,323.7,29,321.5,29.9Z" style="fill:#353535"/><path d="M284.8,68.8a14.7,14.7,0,0,1-7.1-1.8,14.3,14.3,0,0,1-4.4-3.7,13,13,0,0,1-2.7-5.2,14.8,14.8,0,0,1-.4-5.9,13.3,13.3,0,0,1,1.8-5.4,14.8,14.8,0,0,1,8.6-7.1,15.9,15.9,0,0,1,4.3-.6,15,15,0,0,1,6.9,1.7,15.1,15.1,0,0,1,7.4,8.5,14.7,14.7,0,0,1,.7,5.9,13.4,13.4,0,0,1-1.6,5.5,15.1,15.1,0,0,1-9,7.4,14.1,14.1,0,0,1-4.5.7Z" style="fill:#fcd54d"/><path d="M284.9,40.6a13.2,13.2,0,0,1,6.2,1.5,13.5,13.5,0,0,1,4,3.1,13.3,13.3,0,0,1,2.7,4.6,12.1,12.1,0,0,1,.6,5.3A12,12,0,0,1,297,60a13.6,13.6,0,0,1-8.1,6.7,15.1,15.1,0,0,1-4.1.6,13.8,13.8,0,0,1-6.4-1.6,12.6,12.6,0,0,1-4-3.3,14.9,14.9,0,0,1-2.4-4.7,15.9,15.9,0,0,1-.3-5.3,12.3,12.3,0,0,1,1.6-4.9,13.5,13.5,0,0,1,11.6-6.9m0-3a14.9,14.9,0,0,0-4.7.7,16.5,16.5,0,0,0-9.6,7.8,17,17,0,0,0-1.9,5.9,17.7,17.7,0,0,0,.4,6.5,15.8,15.8,0,0,0,7.9,9.8,16.5,16.5,0,0,0,7.8,2,20,20,0,0,0,4.9-.7,16.6,16.6,0,0,0,11.7-14.3,16.2,16.2,0,0,0-.8-6.5,18.5,18.5,0,0,0-3.2-5.6,20.1,20.1,0,0,0-4.9-3.8,17,17,0,0,0-7.6-1.8Z" style="fill:#ff8d3d"/><path d="M295.3,52.1h.1a.9.9,0,0,0,.5-1.1,11.3,11.3,0,0,0-3.3-5,.9.9,0,1,0-1.1,1.3,10,10,0,0,1,2.8,4.2A.8.8,0,0,0,295.3,52.1Z" style="fill:#fff"/><path d="M288.4,45.5a1.5,1.5,0,0,0,1.7.8,1.3,1.3,0,0,0,.8-1.6,1.2,1.2,0,0,0-1.6-.8A1.3,1.3,0,0,0,288.4,45.5Z" style="fill:#fff"/><path d="M281.9,44l-.9.3-.9.3-1.7.4-3.6.8a.8.8,0,0,1-1-.7v-.5a1,1,0,0,1,.4-1c.1,0,.2-.1.1-.2s-.1-.7-.1-1.2c-.4-2.5-.8-4.1-.5-5.3s1.3-1.9,3.9-2.7c0-.1.1-.1.1-.2s.1-.7.9-.9h.1c.7-.3,1-.2,1.3.2a.1.1,0,0,0,.1.1,10.2,10.2,0,0,1,3-.5,2.6,2.6,0,0,1,1.8.6c.9.8,1.5,2.4,2.6,4.7l.5,1a.2.2,0,0,0,.2.2.8.8,0,0,1,.9.5l.2.5a.8.8,0,0,1-.4,1.1A63.7,63.7,0,0,1,281.9,44Z" style="fill:#353535"/><path d="M243,79.4a15.3,15.3,0,0,1-3-.3,14.5,14.5,0,0,1-5.4-2.3,12.4,12.4,0,0,1-2.2-1.8,13,13,0,0,1-1.8-2.3,13.3,13.3,0,0,1-2.2-5.5,14.7,14.7,0,0,1,.2-5.9,14.3,14.3,0,0,1,.9-2.7,11.6,11.6,0,0,1,1.4-2.4,14.9,14.9,0,0,1,3.9-4,14.3,14.3,0,0,1,5.4-2.2l1.4-.3h1.5l2.8.2a13.1,13.1,0,0,1,2.8.9,14.2,14.2,0,0,1,2.5,1.2,16.9,16.9,0,0,1,4.1,3.9,13.2,13.2,0,0,1,2.4,5.4,13,13,0,0,1,.2,5.9,16.3,16.3,0,0,1-2.1,5.3,21.1,21.1,0,0,1-1.9,2.3,13.7,13.7,0,0,1-2.2,1.9,17.1,17.1,0,0,1-2.7,1.4l-1.4.5-1.5.4a16.5,16.5,0,0,1-3.1.4Z" style="fill:#fcd54d"/><path d="M243.1,51.2l2.6.2,2.4.7,2.3,1.2a15.3,15.3,0,0,1,3.7,3.5,13.2,13.2,0,0,1,2.2,4.8,13.5,13.5,0,0,1,.1,5.3,11.8,11.8,0,0,1-1.9,4.8,15.6,15.6,0,0,1-1.6,2,8.7,8.7,0,0,1-2.1,1.7,10.5,10.5,0,0,1-2.3,1.3l-1.3.5-1.4.4-2.8.3a12.4,12.4,0,0,1-2.7-.3,16.3,16.3,0,0,1-4.9-2l-2-1.7a15.6,15.6,0,0,1-1.6-2,13.2,13.2,0,0,1-1.9-4.9,13.5,13.5,0,0,1,.1-5.3,10.6,10.6,0,0,1,.9-2.5,11.9,11.9,0,0,1,1.2-2.2,15.4,15.4,0,0,1,3.6-3.6,14.8,14.8,0,0,1,4.8-2l1.3-.2h1.3m0-3h-1.6l-1.6.2A15.5,15.5,0,0,0,234,51a16.3,16.3,0,0,0-4.4,4.3,18.2,18.2,0,0,0-1.5,2.7c-.4,1-.7,2-1,3a17.7,17.7,0,0,0-.2,6.5,16.9,16.9,0,0,0,2.4,6.1,15.9,15.9,0,0,0,2,2.4,16.4,16.4,0,0,0,2.5,2.1,14.7,14.7,0,0,0,5.9,2.4,18.6,18.6,0,0,0,3.3.4,19.7,19.7,0,0,0,3.4-.4l1.6-.4,1.6-.6a11.5,11.5,0,0,0,2.9-1.6,12.7,12.7,0,0,0,2.5-2.1,12.2,12.2,0,0,0,2-2.5,14.7,14.7,0,0,0,2.4-5.9,15.9,15.9,0,0,0-.2-6.5,16.6,16.6,0,0,0-2.7-5.9,16.4,16.4,0,0,0-4.5-4.2,10.5,10.5,0,0,0-2.8-1.4,14.9,14.9,0,0,0-3-.9,16.3,16.3,0,0,0-3.1-.3Z" style="fill:#ff8d3d"/><path d="M253.6,63.6h.1a.8.8,0,0,0,.6-1,10.9,10.9,0,0,0-2.8-5.3,1.1,1.1,0,0,0-1.3,0,.9.9,0,0,0,0,1.2,9.9,9.9,0,0,1,2.4,4.5A.8.8,0,0,0,253.6,63.6Z" style="fill:#fff"/><path d="M247.4,56.4a1.3,1.3,0,0,0,1.5,1,1.3,1.3,0,0,0,1-1.5,1.2,1.2,0,0,0-1.5-1A1.2,1.2,0,0,0,247.4,56.4Z" style="fill:#fff"/><path d="M241,54.4l-1.8.3-1.8.3-3.6.4a.8.8,0,0,1-.9-.8v-.5a.9.9,0,0,1,.5-.9.2.2,0,0,0,.2-.2,4.9,4.9,0,0,1-.1-1.2c-.1-2.6-.4-4.2,0-5.3s1.6-1.8,4.2-2.4h.1c0-.5.2-.7,1-.9h.1c.7-.1,1,0,1.3.4s0,.1.1.1a8.3,8.3,0,0,1,3-.2,2.2,2.2,0,0,1,1.7.7c.8.9,1.2,2.5,2.1,5l.4,1a.2.2,0,0,0,.2.2.8.8,0,0,1,.8.6l.2.5a.8.8,0,0,1-.5,1.1A57.1,57.1,0,0,1,241,54.4Z" style="fill:#353535"/><path d="M200.4,85.8a18.3,18.3,0,0,1-4.6-.7,15.9,15.9,0,0,1-2.7-1.2l-1.2-.7-1.2-.9a15.5,15.5,0,0,1-3.6-4.5,16.2,16.2,0,0,1-1.6-5.7,16.8,16.8,0,0,1,.8-5.9,16.3,16.3,0,0,1,2.9-4.9l.9-1,1.1-.9a18.8,18.8,0,0,1,2.3-1.6,15.3,15.3,0,0,1,5.5-1.7h3a13.7,13.7,0,0,1,2.8.5l2.6,1.1,1.2.7,1.2.8,2,2a19.5,19.5,0,0,1,1.7,2.3,15.5,15.5,0,0,1,1.9,5.6,14.7,14.7,0,0,1-.5,5.9,15.3,15.3,0,0,1-1.1,2.7,11.1,11.1,0,0,1-1.6,2.4l-.9,1.1-1.1,1-2.4,1.6a16.9,16.9,0,0,1-2.8,1.2,15.5,15.5,0,0,1-3.1.6Z" style="fill:#fcd54d"/><path d="M200.5,57.6h1.3a12.2,12.2,0,0,1,2.6.6,10.9,10.9,0,0,1,2.3.9l1.1.7,1,.7a10.7,10.7,0,0,1,1.9,1.8,19.1,19.1,0,0,1,1.5,2.1,16.4,16.4,0,0,1,1.7,5,13.5,13.5,0,0,1-.4,5.3,24.4,24.4,0,0,1-1,2.4,15.3,15.3,0,0,1-1.4,2.1l-.9,1-1,.9a8.6,8.6,0,0,1-2.2,1.5,9.3,9.3,0,0,1-2.5,1,13.1,13.1,0,0,1-2.7.6h-1.4a14.1,14.1,0,0,1-4.1-.7,10.9,10.9,0,0,1-2.5-1l-1.1-.7a3.9,3.9,0,0,1-1-.8,12.6,12.6,0,0,1-3.3-4A14.9,14.9,0,0,1,187,72a13.4,13.4,0,0,1,.8-5.3,12.9,12.9,0,0,1,2.5-4.4l.9-.9.9-.9,2.1-1.4a13.9,13.9,0,0,1,5-1.5h1.3m0-3h-1.6a16,16,0,0,0-6.1,1.8l-2.6,1.7-1.1,1L188,60.4a18.1,18.1,0,0,0-3.1,5.4,17.1,17.1,0,0,0-.9,6.4,17.5,17.5,0,0,0,1.8,6.3,15.4,15.4,0,0,0,3.9,4.9l1.3,1,1.4.8a13.6,13.6,0,0,0,3,1.3,16.9,16.9,0,0,0,5,.8h1.7a17.6,17.6,0,0,0,3.3-.7,16.9,16.9,0,0,0,3.1-1.3,21.1,21.1,0,0,0,2.7-1.8l1.1-1.1,1.1-1.2a15.1,15.1,0,0,0,1.8-2.6,18.8,18.8,0,0,0,1.2-3,15.8,15.8,0,0,0,.4-6.5,13.5,13.5,0,0,0-2.1-6.1,15.1,15.1,0,0,0-1.8-2.6,14.5,14.5,0,0,0-2.2-2.1,6,6,0,0,0-1.3-.9l-1.3-.8a14.8,14.8,0,0,0-2.9-1.2,15.5,15.5,0,0,0-3.1-.6Z" style="fill:#ff8d3d"/><path d="M211.1,71.1a.8.8,0,0,0,.7-.9,10.7,10.7,0,0,0-2.3-5.6.9.9,0,0,0-1.2-.1.8.8,0,0,0-.1,1.2,10.2,10.2,0,0,1,1.9,4.7.8.8,0,0,0,1,.7Z" style="fill:#fff"/><path d="M205.6,63.3a1.3,1.3,0,1,0,2.5-.3,1.3,1.3,0,0,0-2.5.3Z" style="fill:#fff"/><path d="M199.4,60.6l-1.8.2h-5.5a.8.8,0,0,1-.8-.9v-.5a1,1,0,0,1,.6-.9.2.2,0,0,0,.2-.2V57.3c.2-2.6.1-4.2.6-5.3s1.7-1.6,4.4-2h.1c.1-.5.3-.7,1.1-.8h.1c.7-.1,1,0,1.2.5h.1c2.7-.2,3.9.1,4.6,1.1s1,2.6,1.6,5.1l.3,1.1c0,.1.1.1.2.1a1.1,1.1,0,0,1,.8.8v.5a.9.9,0,0,1-.6,1l-3.6.7-1.9.2Z" style="fill:#353535"/><path d="M157.1,87.5h-1.5l-1.6-.3a16.6,16.6,0,0,1-2.9-1,20.1,20.1,0,0,1-2.5-1.4,13.7,13.7,0,0,1-2.2-1.9,15,15,0,0,1-3.1-4.9,14.6,14.6,0,0,1,.6-11.6,14.9,14.9,0,0,1,3.4-4.5,18.4,18.4,0,0,1,2.2-1.7l2.5-1.3,2.8-.8,1.4-.2h3l1.4.2a14.3,14.3,0,0,1,2.7.9l.7.3.6.4,1.2.7a11.8,11.8,0,0,1,2.1,1.8,15.2,15.2,0,0,1,4.5,10.4,14.5,14.5,0,0,1-4.3,10.6,13,13,0,0,1-2.3,1.8l-1.3.7-.6.4-.7.3-2.9.8-1.6.2h-1.6Z" style="fill:#fcd54d"/><path d="M157.4,59.3H159l1.3.2,2.4.8.6.3.5.3,1.1.6a15.6,15.6,0,0,1,2,1.6,13.7,13.7,0,0,1,4,9.4,12.7,12.7,0,0,1-3.9,9.5,10,10,0,0,1-2,1.6l-1.2.7-.6.3-.6.3a11.1,11.1,0,0,1-2.6.7l-1.4.2h-2.9l-1.3-.3a16,16,0,0,1-2.6-.8,13.6,13.6,0,0,1-2.4-1.3,17.1,17.1,0,0,1-2-1.8,12.1,12.1,0,0,1-2.7-4.3,13.4,13.4,0,0,1-.8-5.3,12.9,12.9,0,0,1,1.4-5.1,13.6,13.6,0,0,1,3-4.1,9.5,9.5,0,0,1,2-1.5,10.1,10.1,0,0,1,2.3-1.2l2.4-.7,1.3-.2h1.1m0-3h-1.3l-1.6.3a10.2,10.2,0,0,0-3,.8,24.4,24.4,0,0,0-2.8,1.4,22.3,22.3,0,0,0-2.4,1.9,15.2,15.2,0,0,0-3.7,5,17.4,17.4,0,0,0-1.7,6.3,15.9,15.9,0,0,0,4.4,11.8,12.1,12.1,0,0,0,2.4,2.1,15.6,15.6,0,0,0,2.8,1.6,17.3,17.3,0,0,0,3.2,1.1l1.7.2,1.7.2h1.7l1.8-.2a18.1,18.1,0,0,0,3.1-.9l.8-.4.7-.3,1.4-.8a16.9,16.9,0,0,0,2.5-2,15.9,15.9,0,0,0,4.8-11.7A16.7,16.7,0,0,0,169,61.1a11.2,11.2,0,0,0-2.4-1.9l-1.3-.9-.7-.3-.7-.3a11.8,11.8,0,0,0-3-1l-1.6-.3h-1.9Z" style="fill:#ff8d3d"/><path d="M168.1,74a.8.8,0,0,0,.7-.8,10.6,10.6,0,0,0-.5-3.1,15.9,15.9,0,0,0-1.2-2.7.9.9,0,0,0-1.2-.3,1,1,0,0,0-.3,1.2,6.7,6.7,0,0,1,1,2.3,7.8,7.8,0,0,1,.4,2.6.8.8,0,0,0,.9.8Z" style="fill:#fff"/><path d="M163.3,65.7a1.2,1.2,0,0,0,1.3,1.2,1.3,1.3,0,0,0,1.3-1.3,1.2,1.2,0,0,0-1.3-1.2A1.3,1.3,0,0,0,163.3,65.7Z" style="fill:#fff"/><path d="M157.5,62.3h-3.6l-3.6-.4a.7.7,0,0,1-.7-.9v-.6a.7.7,0,0,1,.6-.7c.1-.1.2-.1.2-.2s.1-.8.2-1.2c.5-2.5.6-4.2,1.2-5.2l.6-.6.9-.5a12.1,12.1,0,0,1,3-.3c.1,0,.1,0,.1-.1s.4-.6,1.2-.6h.1c.8,0,1,.2,1.2.7h.1c5.2.3,4.7,1.8,5.4,6.9.1.4.1.8.2,1.1a.2.2,0,0,0,.2.2.9.9,0,0,1,.6.8V61a.8.8,0,0,1-.7,1l-1.9.2h-5.5Z" style="fill:#353535"/><path d="M114.5,84.1l-2.3-.2a14.7,14.7,0,0,1-3-.8l-1.5-.6-1.3-.7A18.8,18.8,0,0,1,104,80a12.9,12.9,0,0,1-1.9-2.1,16.5,16.5,0,0,1-1.5-2.5,15.1,15.1,0,0,1-1-8.7,14.5,14.5,0,0,1,2.2-5.5l1.7-2.2a12.4,12.4,0,0,1,2.2-1.8,11.6,11.6,0,0,1,2.4-1.4l2.7-1,1.4-.3h4.3l2.8.7,1.4.6,1.2.7a11.9,11.9,0,0,1,2.3,1.6,19,19,0,0,1,1.9,2.1,17,17,0,0,1,2.6,5,12.8,12.8,0,0,1,.5,5.8,14.6,14.6,0,0,1-1.8,5.7,13,13,0,0,1-3.8,4.3,19,19,0,0,1-5.2,2.6l-1.5.3h-2.4Z" style="fill:#fcd54d"/><path d="M114.4,55.9h1.9a18.3,18.3,0,0,1,2.5.6l1.2.5,1.1.6,2.1,1.5a15.4,15.4,0,0,1,1.7,1.9,13.1,13.1,0,0,1,2.4,4.5,15.7,15.7,0,0,1,.5,5.3,12.4,12.4,0,0,1-1.7,5,10.7,10.7,0,0,1-3.4,3.9,16.4,16.4,0,0,1-2.2,1.4,10.6,10.6,0,0,1-2.5.9l-1.4.3h-2.1l-2.1-.2a11.9,11.9,0,0,1-2.7-.7l-1.3-.5-1.2-.7a11.2,11.2,0,0,1-2.2-1.6,15.4,15.4,0,0,1-1.7-1.9,10.5,10.5,0,0,1-1.3-2.3,9.9,9.9,0,0,1-.9-2.4A13.5,13.5,0,0,1,101,67a15.3,15.3,0,0,1,2-4.9,15.6,15.6,0,0,1,1.6-2l2-1.7a14.8,14.8,0,0,1,2.1-1.3l2.4-.8,1.3-.3h2m0-3h-.9l-1.6.2a4,4,0,0,0-1.5.3,14.2,14.2,0,0,0-2.9,1,12,12,0,0,0-2.7,1.6,14.3,14.3,0,0,0-2.3,2,21.2,21.2,0,0,0-2,2.4,17.2,17.2,0,0,0-2.4,6,16.3,16.3,0,0,0,.1,6.6c.3,1,.6,2,1,3a16.1,16.1,0,0,0,1.7,2.8,15.1,15.1,0,0,0,2.1,2.3,16.4,16.4,0,0,0,2.6,2l1.5.8,1.6.6a15.9,15.9,0,0,0,3.3.9l2.5.2h2.6l1.6-.4a16.3,16.3,0,0,0,3.1-1.1,17.4,17.4,0,0,0,7-6.5,16.6,16.6,0,0,0,1.9-6.2,14.4,14.4,0,0,0-.6-6.5,16.8,16.8,0,0,0-2.8-5.5,21.3,21.3,0,0,0-2.1-2.2,14.4,14.4,0,0,0-2.5-1.8l-1.4-.8-1.5-.6-3.1-.8Z" style="fill:#ff8d3d"/><path d="M124.9,71.9a1.2,1.2,0,0,0,.7-.7,10.9,10.9,0,0,0-1-5.9.8.8,0,0,0-1.1-.5.9.9,0,0,0-.4,1.2,9.4,9.4,0,0,1,.7,5,.9.9,0,0,0,.8.9Z" style="fill:#fff"/><path d="M121.1,63a1.3,1.3,0,0,0,1.1,1.5,1.3,1.3,0,0,0,1.4-1.2,1.3,1.3,0,0,0-2.5-.3Z" style="fill:#fff"/><path d="M115.8,59l-3.6-.7-3.6-.8a.8.8,0,0,1-.5-1.1l.2-.5a.8.8,0,0,1,.7-.7c.1,0,.2,0,.2-.1a7.6,7.6,0,0,1,.4-1.1c.7-2.5,1-4.1,1.8-5a2.4,2.4,0,0,1,1.7-.9,14.7,14.7,0,0,1,3,0h.1c.2-.5.4-.6,1.2-.5h.1c.8.1,1,.3,1.1.8h0l1.7.4,1.2.4a2.7,2.7,0,0,1,1.3,1.3c.5,1.1.4,2.8.4,5.4v1.1a.3.3,0,0,0,.1.2.9.9,0,0,1,.6.9v.5a.9.9,0,0,1-.8.9l-3.7-.2Z" style="fill:#353535"/><path d="M72.3,75.1H71l-3.1-.6-.7-.2-.8-.3L65,73.3a22.6,22.6,0,0,1-2.6-1.6l-2.1-2.1-.9-1.2c-.2-.4-.5-.8-.7-1.3A15.3,15.3,0,0,1,57,61.6a15,15,0,0,1,.7-5.9,14,14,0,0,1,3-5.1,15.1,15.1,0,0,1,4.4-3.5l1.3-.5,1.3-.5a13.1,13.1,0,0,1,2.7-.6h2.9l1.4.2h.7l.7.2a13.6,13.6,0,0,1,2.8,1.1l1.2.7,1.1.8a13.4,13.4,0,0,1,2.1,2,18.8,18.8,0,0,1,1.6,2.3,11.5,11.5,0,0,1,1.2,2.5c.1.5.3.9.4,1.4l.3,1.4a16.7,16.7,0,0,1-.2,5.9A15.4,15.4,0,0,1,84,69.4l-.9,1.1a5.2,5.2,0,0,1-1.1,1,12.4,12.4,0,0,1-2.3,1.7L77,74.4a15,15,0,0,1-2.9.6H72.3Z" style="fill:#fcd54d"/><path d="M72.1,46.9h2.3l.7.2h.6l2.5,1,1.1.7,1,.7a7.7,7.7,0,0,1,1.8,1.8,9.5,9.5,0,0,1,1.5,2,16.3,16.3,0,0,1,1.1,2.3l.3,1.3a5.3,5.3,0,0,1,.3,1.2,13.6,13.6,0,0,1-.2,5.3,11.9,11.9,0,0,1-2.3,4.8l-.8,1-.9.9a10.7,10.7,0,0,1-2.2,1.5A13.3,13.3,0,0,1,76.5,73l-2.6.5H71.2l-2.9-.5-.6-.3-.7-.2L65.7,72a13.1,13.1,0,0,1-4.2-3.4l-.8-1a7.5,7.5,0,0,1-.7-1.2,14,14,0,0,1-1.5-4.9,12.1,12.1,0,0,1,.6-5.3,13.3,13.3,0,0,1,2.7-4.6,13.5,13.5,0,0,1,4-3.1l1.1-.6,1.2-.4,2.5-.5h1.5m0-3H70.3a11.6,11.6,0,0,0-3.1.7l-1.4.5-1.4.6a16.9,16.9,0,0,0-4.9,3.9,16.4,16.4,0,0,0-3.2,5.6,16,16,0,0,0-.8,6.5,15.5,15.5,0,0,0,1.9,6.1l.8,1.3a6.4,6.4,0,0,0,1,1.3,16.7,16.7,0,0,0,2.3,2.3,19.6,19.6,0,0,0,2.8,1.9l1.6.7.8.3.8.3a20.2,20.2,0,0,0,3.4.6h3.4a17.3,17.3,0,0,0,3.1-.7,13.6,13.6,0,0,0,3-1.3A15.1,15.1,0,0,0,83,72.7l1.2-1.2,1-1.2A14,14,0,0,0,88,64.4a17.7,17.7,0,0,0,.3-6.5L88,56.4c-.2-.5-.3-1-.5-1.5a23.9,23.9,0,0,0-1.3-2.8,16.6,16.6,0,0,0-4-4.6l-1.3-1-1.3-.8a18.8,18.8,0,0,0-3-1.2h-.8l-.8-.2L73.4,44Z" style="fill:#ff8d3d"/><path d="M82.2,64.3a.9.9,0,0,0,.7-.6,12.2,12.2,0,0,0-.1-6,1.1,1.1,0,0,0-1.1-.6.9.9,0,0,0-.6,1.1,9.8,9.8,0,0,1,.1,5.1.9.9,0,0,0,.6,1C82,64.4,82.1,64.4,82.2,64.3Z" style="fill:#fff"/><path d="M79.6,55a1.3,1.3,0,0,0,.9,1.6,1.2,1.2,0,0,0,1.5-.9,1.3,1.3,0,0,0-.9-1.6A1.1,1.1,0,0,0,79.6,55Z" style="fill:#fff"/><path d="M74.9,50.3l-3.5-1.1-1.7-.7L68,47.9a.8.8,0,0,1-.4-1.2l.2-.5a.8.8,0,0,1,.9-.5h.2a5.4,5.4,0,0,1,.5-1.1c1.1-2.3,1.6-3.9,2.5-4.7a2.9,2.9,0,0,1,1.7-.7,14.2,14.2,0,0,1,3,.5.1.1,0,0,0,.1-.1c.3-.4.6-.4,1.3-.2h.1c.7.2.9.4.9.9h.1c2.5.8,3.5,1.5,3.9,2.7s-.1,2.8-.4,5.3c-.1.4-.1.8-.2,1.2a.2.2,0,0,0,.2.2.8.8,0,0,1,.4.9v.6a.8.8,0,0,1-.9.7l-3.6-.7Z" style="fill:#353535"/><path d="M31.2,60.5a10.3,10.3,0,0,1-3-.4l-1.5-.4h-.8l-.7-.4a11.7,11.7,0,0,1-2.7-1.5l-.7-.5-.5-.5-1.1-1a18.8,18.8,0,0,1-1.8-2.4,9.1,9.1,0,0,1-1.3-2.6,17.2,17.2,0,0,1-.8-2.8c0-.5-.1-1-.1-1.5V44.9a14.7,14.7,0,0,1,1.5-5.8,16,16,0,0,1,3.6-4.6l1.2-.9,1.2-.8,2.5-1.1a9,9,0,0,1,2.7-.7,9.7,9.7,0,0,1,2.4-.2h3.3l2.7,1,.7.3.6.3,1.3.8A19,19,0,0,1,42,35.4a13.5,13.5,0,0,1,3,4.7,17.5,17.5,0,0,1,1.2,5.5,16.2,16.2,0,0,1-1.1,5.8,13.8,13.8,0,0,1-3.2,5A15.7,15.7,0,0,1,37,59.5a14.5,14.5,0,0,1-5.5,1Z" style="fill:#fcd54d"/><path d="M31.3,32.3h2.9l2.5.8.6.3.3.2h.3l1.1.7a15.4,15.4,0,0,1,1.9,1.7,12.1,12.1,0,0,1,2.7,4.3,13.5,13.5,0,0,1,1.1,5,13.7,13.7,0,0,1-1,5.2,13.5,13.5,0,0,1-2.9,4.4,12.3,12.3,0,0,1-4.3,2.8,14.3,14.3,0,0,1-5,.9h-.3a12.4,12.4,0,0,1-2.7-.3l-1.3-.4h-.7l-.7-.3a20.1,20.1,0,0,1-2.5-1.4l-.5-.5-.6-.4-.9-1a8.7,8.7,0,0,1-1.7-2.1A17.5,17.5,0,0,1,18.5,50a18.2,18.2,0,0,1-.7-2.5c0-.4-.1-.8-.1-1.3V44.9a11.8,11.8,0,0,1,1.4-5.1,14.6,14.6,0,0,1,3.2-4.2l1-.8,1.1-.7,2.3-1a10.2,10.2,0,0,1,2.5-.6,7.5,7.5,0,0,1,2.1-.2m0-3-2.6.2-3,.7-2.8,1.3-1.3.9-1.2,1a15.4,15.4,0,0,0-4,5.1,15.2,15.2,0,0,0-1.7,6.3v1.6a8.8,8.8,0,0,0,.2,1.6,11.8,11.8,0,0,0,.8,3.1A11.1,11.1,0,0,0,17.1,54a16.4,16.4,0,0,0,2,2.6,4.3,4.3,0,0,0,1.2,1.1l.6.6.7.5a14.6,14.6,0,0,0,3,1.7l.8.3.4.2.4.2,1.7.4a17.5,17.5,0,0,0,3.3.4h.3a17.3,17.3,0,0,0,6-1.1,15.3,15.3,0,0,0,5.4-3.5A15.1,15.1,0,0,0,46.5,52a17.7,17.7,0,0,0,1.2-6.4,18.5,18.5,0,0,0-1.3-6.1,16,16,0,0,0-3.3-5.1,12.1,12.1,0,0,0-2.4-2.1l-1.3-.9-.4-.2h-.3l-.7-.4a18.6,18.6,0,0,0-3.1-1l-.8-.2H31.3Z" style="fill:#ff8d3d"/><path d="M40.9,51.1a.9.9,0,0,0,.6-.6,9.6,9.6,0,0,0,.8-2.9c0-.5.1-1,.1-1.5s-.1-1-.2-1.5a.7.7,0,0,0-.9-.7.9.9,0,0,0-.8,1,4.9,4.9,0,0,1,.1,1.2v1.3a7.8,7.8,0,0,1-.7,2.5.9.9,0,0,0,.5,1.1Z" style="fill:#fff"/><path d="M39.4,41.5a1.4,1.4,0,0,0,.7,1.7,1.3,1.3,0,0,0,1.7-.7,1.2,1.2,0,0,0-.7-1.7A1.3,1.3,0,0,0,39.4,41.5Z" style="fill:#fff"/><path d="M35.5,36.1l-1.7-.7-1.6-.9L29,32.8a.8.8,0,0,1-.2-1.2l.2-.5a1,1,0,0,1,1-.4h.2l.6-1C32.2,27.5,33,26,34,25.3a3.4,3.4,0,0,1,1.8-.4l1.3.3,1.6.6h.1c.3-.4.6-.5,1.3-.1h.1c.7.3.9.6.8,1.1h0c2.4,1.1,3.3,2,3.5,3.1s-.5,2.8-1.1,5.3l-.3,1.1a.1.1,0,0,0,0,.2.7.7,0,0,1,.3,1v.5a.7.7,0,0,1-1,.6l-1.8-.5-1.7-.7-1.7-.6-.8-.4Z" style="fill:#353535"/><path d="M342.8,5.1c-3.7,1.9-14,7.2-29.3,13.4-11.4,4.5-23.1,8.7-35,12.3a454.2,454.2,0,0,1-45,11.1c-38,7.2-75.1,8.6-110.2,4.2A303.5,303.5,0,0,1,62.7,32.2,304.2,304.2,0,0,1,32,19.6,299,299,0,0,1,4.8,4.8l.4,2c8.5,5.1,17.3,9.9,26.2,14.1A284.2,284.2,0,0,0,62.2,33.5a310,310,0,0,0,60.9,14.1c35.3,4.3,72.6,2.9,110.7-4.3l11.9-2.4c11.1-2.5,22.2-5.4,33.2-8.7s23.8-7.8,35.1-12.4c14.9-6,25.1-11.1,29.1-13.2Z" style="fill:#353535;stroke:#353535;stroke-miterlimit:10;stroke-width:2px"/><path d="M276.3,56.4a8.8,8.8,0,0,0,1.6,3.2,11.3,11.3,0,0,0,2.7,2.2A9.1,9.1,0,0,0,293,58a9.1,9.1,0,0,0,1-3.3,8.3,8.3,0,0,0-.5-3.5,10.3,10.3,0,0,0-1.7-3.1,9,9,0,0,0-2.7-2.1,8.9,8.9,0,0,0-13,6.9A8.4,8.4,0,0,0,276.3,56.4Z" style="fill:#ffeb81"/><path d="M234.3,66.2a7.9,7.9,0,0,0,1.3,3.3l1.1,1.3a6.9,6.9,0,0,0,1.3,1.1,8,8,0,0,0,3.2,1.3,7.7,7.7,0,0,0,3.7,0l.9-.2.9-.3a8.3,8.3,0,0,0,1.6-.9l1.4-1.1a7.1,7.1,0,0,0,1-1.4,7.5,7.5,0,0,0,1.3-3.2,8.3,8.3,0,0,0-.1-3.5,8.6,8.6,0,0,0-1.5-3.2A7.8,7.8,0,0,0,248,57l-1.5-.8-1.7-.4-1.7-.2h-.9l-.8.2a8.3,8.3,0,0,0-3.2,1.3,7.8,7.8,0,0,0-2.4,2.4,11.9,11.9,0,0,0-.9,1.5,9.8,9.8,0,0,0-.5,1.6A8.6,8.6,0,0,0,234.3,66.2Z" style="fill:#ffeb81"/><path d="M191.5,71.6a9,9,0,0,0,.9,3.4,8.4,8.4,0,0,0,2.2,2.7l.7.6.7.4,1.7.7a8.7,8.7,0,0,0,3.6.4l1.9-.4,1.7-.7a7.1,7.1,0,0,0,1.4-1l.7-.6.6-.6.9-1.5a7.7,7.7,0,0,0,.7-1.6,8.2,8.2,0,0,0,.2-3.5,7.6,7.6,0,0,0-1.1-3.3,7.1,7.1,0,0,0-1-1.4,6.8,6.8,0,0,0-1.2-1.2l-.7-.5-.8-.4-1.5-.7a5.1,5.1,0,0,0-1.7-.3,5.4,5.4,0,0,0-1.8,0,7.5,7.5,0,0,0-3.3,1,4.2,4.2,0,0,0-1.4.9l-.6.6-.6.6a9.2,9.2,0,0,0-1.7,2.9A8.3,8.3,0,0,0,191.5,71.6Z" style="fill:#ffeb81"/><path d="M148.4,72.3a8.3,8.3,0,0,0,.5,3.5,8.1,8.1,0,0,0,1.9,2.9,6.9,6.9,0,0,0,1.3,1.1,6,6,0,0,0,1.5.9,6.4,6.4,0,0,0,1.8.6l.9.2h2.8l1.8-.5.4-.2.4-.2.8-.5a6.3,6.3,0,0,0,1.3-1.1,8.4,8.4,0,0,0,2.6-6.3,8.9,8.9,0,0,0-2.7-6.2,6.9,6.9,0,0,0-1.3-1.1l-.7-.4a.5.5,0,0,0-.4-.2l-.4-.2a7.6,7.6,0,0,0-1.6-.6h-3.5a4.9,4.9,0,0,0-1.6.5,6.9,6.9,0,0,0-1.5.7l-1.4,1a9.7,9.7,0,0,0-2.9,6.2Z" style="fill:#ffeb81"/><path d="M105.5,67.7a8.7,8.7,0,0,0,0,3.6l.6,1.6a6,6,0,0,0,.9,1.5,6.9,6.9,0,0,0,1.1,1.3l1.5,1.1.8.4.8.3,1.9.5h2.8l.9-.2,1.6-.6,1.5-.9a9.6,9.6,0,0,0,2.3-2.6,9.7,9.7,0,0,0,1.1-3.4,8.2,8.2,0,0,0-.4-3.5,8.5,8.5,0,0,0-1.5-3l-1.2-1.2-1.3-1-.8-.4-.8-.4-1.7-.4H113l-.8.2a4.4,4.4,0,0,0-1.6.6l-1.5.8-1.2,1.1a7.6,7.6,0,0,0-1.1,1.4A8.3,8.3,0,0,0,105.5,67.7Z" style="fill:#ffeb81"/><path d="M63.4,57.6a8.2,8.2,0,0,0-.4,3.5,10.4,10.4,0,0,0,1,3.3l.5.7a1.8,1.8,0,0,0,.5.7,8,8,0,0,0,1.3,1.3,5.6,5.6,0,0,0,1.5,1l.8.4h.5l.5.2a5.7,5.7,0,0,0,1.8.3h1.9l1.7-.4,1.6-.7A7.1,7.1,0,0,0,78,67l.6-.6.6-.7a8.1,8.1,0,0,0,1.5-3.1,10.9,10.9,0,0,0,.2-3.6c-.1-.2-.1-.5-.2-.8l-.3-.8a7.7,7.7,0,0,0-.7-1.6,11.3,11.3,0,0,0-1-1.3,3.4,3.4,0,0,0-1.2-1.2l-.7-.5-.7-.4-1.6-.7H71.1l-1.7.4-.8.3-.7.3a7.9,7.9,0,0,0-2.7,2.1A8.7,8.7,0,0,0,63.4,57.6Z" style="fill:#ffeb81"/><path d="M23.1,41.7a7.3,7.3,0,0,0-.9,3.5V46a2.8,2.8,0,0,0,.1.9,10.5,10.5,0,0,0,.4,1.7c.2.5.5,1,.8,1.6a13.4,13.4,0,0,0,1.1,1.4l.6.6.4.3.3.3a14,14,0,0,0,1.7.9l.4.2h.5l.9.2a11.3,11.3,0,0,0,1.8.3,10.3,10.3,0,0,0,3.5-.6,9.7,9.7,0,0,0,2.9-1.9,7.7,7.7,0,0,0,1.9-3,8.4,8.4,0,0,0,.7-3.5,13,13,0,0,0-.7-3.3,10.3,10.3,0,0,0-1.8-2.8,6.9,6.9,0,0,0-1.3-1.1l-.7-.5h-.4l-.4-.2L33.2,37H31.5l-1.7.2a4.7,4.7,0,0,0-1.6.4l-1.5.7-.8.4-.6.6A8.2,8.2,0,0,0,23.1,41.7Z" style="fill:#ffeb81"/><circle cx="4.8" cy="4.8" r="4.8" style="fill:#353535"/><circle cx="343.1" cy="4.8" r="4.8" style="fill:#353535"/></g></g></svg>