<svg xmlns="http://www.w3.org/2000/svg" viewBox="0 0 83.5 85.7"><g id="Layer_2" data-name="Layer 2"><g id="Layer_1-2" data-name="Layer 1"><path d="M49.9,14.8l-.6-.2h0a40.3,40.3,0,0,0-9.2-.6,56,56,0,0,0-5.9.7h-.3C15.6,18.4,2.2,34.1,3,52.3A32.1,32.1,0,0,0,7.6,67.8c4.5,7.5,12.5,12,21,13.5a88.5,88.5,0,0,0,17.6,1.4c16.2-.1,30.8-11,33.8-27a32.5,32.5,0,0,0,.5-7C79.7,31.8,66.7,18,49.9,14.8Z" style="fill:#b8a887"/><path d="M53,5.9l-1.3.2-2.6.2-3.4.2H38.9L35,6.4l-4-.5h0c0,1.5-.1,3-.1,4.5s-.1,3.3-.2,4.9h0c0,2.2-.1,4.4-.2,6.6l1.5.3,2,.3,2.1.2,3.4.2h5.2l2.4-.2a40.3,40.3,0,0,0,5.5-.8v-.9a30.8,30.8,0,0,0,.2-3.3,6.6,6.6,0,0,1,.1-1.4V14c.1-1.2.1-2.4.2-3.5V6H53Z" style="fill:#b8a887"/><path d="M53,5.9l-1.3.2-2.6.2-3.8.2h-.5a41.7,41.7,0,0,1-5,0h-.9L35,6.4l-4-.5h0c0,1.5-.1,3-.1,4.5s-.1,3.3-.2,4.9h0c0,2.2-.1,4.4-.2,6.6l1.5.3,2,.3,2.1.2,3.4.2h5.2l2.4-.2a26.8,26.8,0,0,0,5.5-.8v-.9a30.8,30.8,0,0,0,.2-3.3,6.6,6.6,0,0,1,.1-1.4V14c.1-1.2.1-2.4.2-3.5V6H53Z" style="fill:#b8a887"/><path d="M42,3C35.9,3,31,4.3,31,5.8s4.9,2.9,11,2.9S53.1,7.6,53.1,6,48.1,3,42,3Z" style="fill:#e6dcc8"/><path d="M30.9,10.5c0,1.5-.1,3.4-.2,5,5.9,2.5,15.7,2.8,22.2.1h0V14.1c.1-1.3.1-2.5.2-3.6C46.9,13.3,36.5,13.3,30.9,10.5Z" style="fill:#a38f6e"/><path d="M37.1,55.6c0-.1-.1-.1-.1-.2a1.3,1.3,0,0,0-.7-.6,2.4,2.4,0,0,0-2.3-.3l-1.2.7-.2.2-.4.2a4,4,0,0,0-1,1.2h0l-.8,1.3a5.5,5.5,0,0,0-.6,1.8,3.9,3.9,0,0,0,.5,2.8l.4.6a5.8,5.8,0,0,0,1.2,1l1,.3a3.7,3.7,0,0,0,1.8-.2l1-.5.8-.9a15.8,15.8,0,0,0,1.6-3.5,3.8,3.8,0,0,0-.5-3A3.1,3.1,0,0,0,37.1,55.6Z" style="fill:#856e4d"/><path d="M32.7,73.5l-.3-.3a.3.3,0,0,0-.1-.2l-.7-.7-.6-.4-.7-.3h-1l-.9.4a2.2,2.2,0,0,0-.5.8,3.1,3.1,0,0,0-.1,1l.3.7.3.5v.2l.3.5a.1.1,0,0,0,.1.1l.4.3.5.3h1.9l.4-.2.4-.2a2.1,2.1,0,0,0,.4-.6.8.8,0,0,0,.2-.4.4.4,0,0,0,0-.5c.1-.2,0-.3-.1-.5A.9.9,0,0,0,32.7,73.5Z" style="fill:#856e4d"/><path d="M13.8,36.9a3.2,3.2,0,0,0-2.8-.7l-.7.3c0,.1-.1.1-.2.2a2.8,2.8,0,0,0-.9,1,4.6,4.6,0,0,0-.5,2A4.7,4.7,0,0,0,9,41.4c0,.2.1.3.1.4s.1.2.1.3l.4.9a6.9,6.9,0,0,0,1.1,1.3,2.3,2.3,0,0,0,2.1.5h.1a2.3,2.3,0,0,0,1.5-1.1c0-.2.1-.3.1-.5a3.6,3.6,0,0,0,.7-1,5,5,0,0,0,.2-1.2,5,5,0,0,0-.2-1.2A4.4,4.4,0,0,0,13.8,36.9Z" style="fill:#856e4d"/><path d="M22.9,64.7h0l-.3-.7c-.2-.1-.3-.3-.4-.4l-.4-.3-.6-.2a1.1,1.1,0,0,0-.8,0l-.5.2a.5.5,0,0,0-.5.3h-.2a1.8,1.8,0,0,0-.7.8v.2a1.4,1.4,0,0,0-.2.6v.9h0a1.3,1.3,0,0,1,.1.6.1.1,0,0,0,.1.1v.2l.3.5h0c.2.1.3.3.4.4l.7.4h.5a1.4,1.4,0,0,0,.9-.1l.7-.3.5-.5a1.6,1.6,0,0,0,.4-.7c.2-.2.2-.4.3-.7a1.7,1.7,0,0,0,.1-.7v-.2A6.4,6.4,0,0,0,22.9,64.7Z" style="fill:#856e4d"/><path d="M42.6,75.6a4.3,4.3,0,0,1-.1-.5h-.1c-.1-.1-.1-.2-.2-.4h-.1l-.4-.3h0l-.4-.2h-1l-.5.2-.4.5-.3.5a.7.7,0,0,0-.1.5.4.4,0,0,0,0,.5,1.3,1.3,0,0,0,.1.6v.2l.3.4h0l.5.5.3.2H41c.2-.1.4-.1.6-.3l.3-.2.3-.3c0-.1.1-.1.1-.2a.9.9,0,0,0,.3-.7h0v-.7Z" style="fill:#856e4d"/><path d="M20,57.3l-.3-.5-.4-.3a.1.1,0,0,0-.1-.1l-.5-.3H17.3a.5.5,0,0,1-.4.2c-.1.2-.3.3-.3.5a.8.8,0,0,0-.2.4v.4c0,.1,0,.1-.1.2a2.4,2.4,0,0,0,.2.8h0l.3.4a.1.1,0,0,0,.1.1l.4.4h.1l.4.2h1.1l.5-.2.4-.3.3-.5c0-.2.1-.4.1-.6v-.5C20.1,57.7,20.1,57.5,20,57.3Z" style="fill:#856e4d"/><path d="M23.9,25.8l-.2-.3-.3-.3-.6-.2h-1l-.7.4H21l-.3.4h-.1c-.1.2-.2.3-.2.5h0a.9.9,0,0,0-.1.5h0v.5h0c0,.1.1.2.1.4l.4.4.4.2c.1.2.3.2.6.2h.5l.6-.2c.1-.1.3-.2.4-.4a.8.8,0,0,0,.4-.4.8.8,0,0,0,.2-.5.1.1,0,0,0,.1-.1c0-.2.1-.3.1-.5h0v-.6C24,26.1,24,26,23.9,25.8Z" style="fill:#856e4d"/><path d="M40.5,24.2l-.2-.4-.3-.3-.4-.2h-1l-.4.2h-.1a1.8,1.8,0,0,0-.7.5h-.1l-.2.4a.1.1,0,0,0-.1.1c0,.2-.1.3-.1.5h0c0,.2-.1.3-.1.5h0a.1.1,0,0,1,.1.1.6.6,0,0,0,.1.4h0l.2.3c.1.2.2.4.4.4l.4.2h1.2l.5-.3.4-.4.3-.5c.1-.1.1-.4.2-.5v-.7h0A4.3,4.3,0,0,1,40.5,24.2Z" style="fill:#856e4d"/><path d="M47.1,66.1l-.4-.4-.4-.2H44.8l-.4.2h-.1l-.4.4h-.1l-.3.4h0c-.1.1-.1.3-.2.4h0v.4a1.3,1.3,0,0,0,.1.6l.2.3.5.4.6.2h1.1l.5-.2.4-.4c.1,0,.1,0,.1-.1l.3-.4a.1.1,0,0,0,.1-.1,4.3,4.3,0,0,0,.1-.5.8.8,0,0,0,.1-.4c0-.2-.1-.3-.1-.4S47.2,66.2,47.1,66.1Z" style="fill:#856e4d"/><path d="M25.7,34.8l-.3-.3-.3-.2h-.2a1.1,1.1,0,0,0-.7-.3h-.7c0,.1,0,.1-.1.1h-.5c0,.1,0,.1-.1.1l-.3.3h-.2l-.3.3h0l-.2.4a1.3,1.3,0,0,0-.1.6c0,.1.1.2.1.4l.3.5.5.4.5.2h1.1l.5-.2h.2l.4-.3h.1l.3-.5.2-.3c0-.1.1-.3.1-.4a.6.6,0,0,0-.1-.4A1.4,1.4,0,0,0,25.7,34.8Z" style="fill:#856e4d"/><path d="M36.6,43.8h0l-.3-.6h0l-.3-.5-.3-.4-.5-.3a1.1,1.1,0,0,0-.8-.2c-.1-.1-.3,0-.5,0l-.5.2a.9.9,0,0,0-.5.3l-.5.6-.2.5-.2.2a4.9,4.9,0,0,0-.4,1.1,2.2,2.2,0,0,0-.1.8,1.4,1.4,0,0,0,0,.9,2,2,0,0,0,.3,1.1,2.7,2.7,0,0,0,.8.7,2.2,2.2,0,0,0,1.1.2,2,2,0,0,0,1.1-.3l.6-.6a2.1,2.1,0,0,0,.4-.6H36a2.1,2.1,0,0,0,.4-.6h0a1.4,1.4,0,0,0,.2-.6,1.7,1.7,0,0,0,.1-.7v-.2C36.7,44.2,36.6,44,36.6,43.8Z" style="fill:#856e4d"/><path d="M12,53.2l-.6-.7-.3-.3-1.2-.7-1.1-.2-1,.4a2.7,2.7,0,0,0-.7.8.4.4,0,0,1-.1.3c0,.1-.1.2-.1.3a1.1,1.1,0,0,0-.2.8,1.1,1.1,0,0,0,.1.8,3.4,3.4,0,0,0,1,1.6,3.1,3.1,0,0,0,.7.9l1.1.8a1.4,1.4,0,0,0,1.1.2,1.6,1.6,0,0,0,.9-.3h.1l.6-.3a1.8,1.8,0,0,0,.5-.7,2,2,0,0,0,.2-1.1l-.3-1.3A7.5,7.5,0,0,0,12,53.2Z" style="fill:#856e4d"/><path d="M42,3c6,0,10.8,1.4,11.1,2.9h0v4.5h0c-.1,1.1-.1,2.3-.2,3.6v1.4c15.4,4.2,26.9,17.3,27.6,33.2a32.5,32.5,0,0,1-.5,7c-3,16-17.6,26.9-33.8,27h-1a95.2,95.2,0,0,1-16.6-1.4c-8.5-1.5-16.5-6-21-13.5A32.1,32.1,0,0,1,3,52.3C2.2,35.2,14,20.2,30.7,15.5h0c0-.4.1-.8.1-1.2a21.8,21.8,0,0,1,.1-2.5v-3A21.7,21.7,0,0,0,31,6.1V5.8C31,4.3,35.9,3,42,3m11.1,7.5h0M42,0C36.8,0,28,.8,28,5.8v.6a18.5,18.5,0,0,1-.1,2.3v4.6C10.5,19.1-.8,34.9,0,52.5A35.2,35.2,0,0,0,5,69.4c4.7,7.7,13.1,13.2,23.1,14.9a107.6,107.6,0,0,0,17.1,1.4h1c18.2-.2,33.6-12.5,36.7-29.4a33.8,33.8,0,0,0,.6-7.7c-.7-16.1-11.7-30-27.5-35.3v-.9a8.1,8.1,0,0,1,.1-1.6v-.3h0V6h0a3.4,3.4,0,0,0-.5-1.7C53.4.3,44.8,0,42,0Z" style="fill:#856e4d"/></g></g></svg>