<svg xmlns="http://www.w3.org/2000/svg" viewBox="0 0 245.6 145.5"><g style="isolation:isolate"><g id="Layer_2" data-name="Layer 2"><g id="Layer_1-2" data-name="Layer 1"><path d="M53.1,125.4c-5.2,0-18.1-.5-23.1-5.6-.6-.7-.8-.8-1-55.1V61.3c0-2,0-4-.1-6V35.8a1.3,1.3,0,0,1,.9-1.3c15.3-7.1,30-14.8,43.8-22.8l.6-.3,1.9-1a1,1,0,0,1,.7-.2l.8.2a1.5,1.5,0,0,1,.7,1.3V59.9c0,1.6,0,3.1-.1,4.6v8.8c-.1,45.6-.1,45.7-.5,46.3-2.7,4-14.6,5.8-24.6,5.8Z" style="fill:#e1cc8c"/><path d="M76.8,11.7h0m0,0V59.9c0,1.6,0,3.1-.1,4.6v8.8c0,27.3-.1,45.2-.2,45.4-2.2,3.2-12.8,5.2-23.4,5.2s-18.4-1.5-22-5.2c-.3-.2-.5-21.9-.6-54V61.3c0-2,0-4-.1-6V35.8A481,481,0,0,0,74.3,12.9l2.5-1.2m0-3h0a2.3,2.3,0,0,0-1.4.4l-1.9.9-.5.3h-.2C59.1,18.4,44.4,26,29.1,33.1a3.1,3.1,0,0,0-1.7,2.7V55.3c.1,2,.1,4.1.1,6v3.4c.1,17.3.2,30.1.2,39,.1,4.8.1,8.5.2,11.1.1,4.7.1,5.1,1.1,6,5.4,5.6,18.7,6.1,24.1,6.1,2.2,0,21.6-.1,25.8-6.5.6-.9.6-.9.7-14.2.1-7.7.1-18.7.1-32.9V64.5c.1-1.5.1-3,.1-4.6V11.8h0a2.9,2.9,0,0,0-3-3Zm0,6Z" style="fill:#90822e"/><path d="M191.6,125.4c-5.3,0-18.1-.5-23.2-5.6-.6-.6-.7-.8-.9-46V70.5c0-1-.1-2-.1-3V60c0-4.8,0-9.9-.1-15.1v-1a1.6,1.6,0,0,1,.9-1.4l1.5-.6,2-.9h.6l15.2-6.5,27.2-10.6h.5l.9.2a1.6,1.6,0,0,1,.6,1.3V64.6c-.1,54.3-.2,54.5-.6,55-2.7,4-14.6,5.8-24.5,5.8Z" style="fill:#e1cc8c"/><path d="M215.2,25h.1m-.1,0V61.3h0v3.3h0c0,32.2-.2,53.9-.3,54.1-2.2,3.2-12.7,5.2-23.3,5.2s-18.5-1.5-22.1-5.2c-.2-.2-.4-17.9-.5-44.9V70.5c0-2-.1-4-.1-6.1V60c0-5.1,0-10.5-.1-16.1l3.5-1.5h.3l.3-.2,15.2-6.5L215.2,25m0-3h0l-1.1.2L187,32.8h-.1l-15.2,6.6h-.4c0,.1-.1.1-.2.1l-2,.9-1.5.6a3.1,3.1,0,0,0-1.8,2.8v.6c.1,5.4.1,10.5.1,15.5h0v7.5c0,.9.1,1.9.1,2.9v3.4c0,13.8.1,24.7.2,32.5.2,13.4.2,13.4,1.2,14.4,5.4,5.6,18.7,6.1,24.2,6.1,2.2,0,21.4-.1,25.7-6.5.7-.9.7-1.1.8-16.7,0-9.8.1-23.3.1-39.1V25.1h.1a3,3,0,0,0-3-3Zm0,6h0Z" style="fill:#90822e"/><path d="M122.4,144c-5.3,0-18.1-.6-23.2-5.7-.6-.6-.8-.9-1-63.1V72c0-.9-.1-1.9-.1-2.8V61.9c0-9.7,0-19.9-.1-30.4a1.7,1.7,0,0,1,.5-1.2,1.5,1.5,0,0,1,1.1-.4h.1a87.4,87.4,0,0,0,10.2.7,76.2,76.2,0,0,0,15.7-1.7l12.5-2.6a41.4,41.4,0,0,0,7.4-2.3h.5a1.6,1.6,0,0,1,.9.3,1.4,1.4,0,0,1,.6,1.2v50c-.1,62-.2,62.1-.6,62.7C144.2,142.2,132.3,144,122.4,144Z" style="fill:#e1cc8c"/><path d="M146,25.4h0m0,0v50c-.1,36.4-.2,61.6-.3,61.9-2.2,3.2-12.7,5.2-23.3,5.2s-18.5-1.6-22.1-5.2c-.3-.3-.5-25.7-.6-62.1V72c0-1.9-.1-3.8-.1-5.7V61.8c0-9.6,0-19.9-.1-30.4a89.3,89.3,0,0,0,10.4.7,80.6,80.6,0,0,0,16-1.7l12.5-2.6a48,48,0,0,0,7.6-2.4m0-3h0a3.5,3.5,0,0,0-1.1.3,37.3,37.3,0,0,1-7.1,2.1h-.1l-12.4,2.6a80.5,80.5,0,0,1-15.4,1.6,66.3,66.3,0,0,1-10-.7h-.4a2.6,2.6,0,0,0-1.9.7,3,3,0,0,0-1.1,2.3v1.1c.1,10.3.1,20,.1,29.3h0v7.3c0,1,.1,1.9.1,2.8v3.2c0,19.1.1,34.1.2,44.6.2,18.4.2,18.4,1.2,19.5h.1c5.4,5.5,18.7,6.1,24.2,6.1,2.2,0,21.5-.2,25.8-6.5h0c.6-.9.6-.9.7-19,0-10.2,0-24.8.1-44.5v-50a3,3,0,0,0-2.9-3Zm0,6Z" style="fill:#90822e"/><path d="M122.9,74.5c-8.2,0-16.1-.2-23.3-.6S84,72.8,76.6,72a267,267,0,0,1-32.9-5.6l-2.9-.6-1.9-.5h-.8l-1.2-.3-1.4-.4-.9-.3a11.7,11.7,0,0,1-2-.6h-.2l-2.1-.7H30l-7.4-2.6-3.4-1.4-.8-.4c-.1-.1-.2-.1-.2-.2a41,41,0,0,1-5.6-2.9C5.4,50.9,1.7,46.1,1.7,41V35.9a17,17,0,0,1-.1-2.2A1.5,1.5,0,0,1,3,32.2a1.5,1.5,0,0,1,.9-.2h.3a1.6,1.6,0,0,1,1.1,1c1.5,4.2,6.8,8.5,15.2,12.4l2.1.8,1.2.5c2.6,1.1,4.9,1.9,7.1,2.6l5.4,1.6,3.2.9a256.3,256.3,0,0,0,37.4,6.6c7.2.8,14.8,1.5,22.8,1.9s15.7.6,23.2.6,15.2-.2,23-.6c5.1-.2,9.7-.6,14.1-.9h1.1l2.2-.2,1.7-.2,3.7-.4c2.5-.2,5-.6,7.2-.9l2.4-.3h.9a158.2,158.2,0,0,0,35.5-9.6c15.5-6.3,25.5-13.2,26.6-14.1s.1-.1.1-.2a2.1,2.1,0,0,1,1.1-.4,1.4,1.4,0,0,1,1.3.8,1.4,1.4,0,0,1,.2.6,2.5,2.5,0,0,1,.1.8v.2c0,1.1-.1,3.2-.3,6.1-.5,8-10.1,15.3-27.9,21.3h-.3l-.4.2-.8.2h-.9a215.8,215.8,0,0,1-33.8,7.2l-.9.2-2.5.3-6.8.8h-.4l-2.8.3-2.4.3h-3.6c-4.1.4-8.4.7-14.2,1h-1.8l-5.6.2C133.5,74.4,128.4,74.5,122.9,74.5Z" style="fill:#c4a88d"/><path d="M3.9,33.5c1.7,4.8,7.3,9.3,16,13.2l3.3,1.4c2.3.9,4.7,1.8,7.2,2.6l5.4,1.7,3.4.9a261.9,261.9,0,0,0,37.6,6.6c7.2.9,14.9,1.5,22.8,1.9s15.3.6,23.3.6,15.6-.2,23.1-.6c4.8-.2,9.5-.5,14.1-1l3.4-.2,5.4-.6,7.2-.9,3.4-.5A156,156,0,0,0,215.2,49c17-6.9,27.2-14.3,27.2-14.6h.1a1.5,1.5,0,0,1,.1.6v.2c0,.9-.1,2.7-.3,6-.4,7.4-10.3,14.4-26.9,19.9h-.2l-1.3.4-.5.2h-.2a207.2,207.2,0,0,1-33.7,7.2l-3.4.5-6.8.8H169l-5.3.6h-1.4l-2.2.3-14.1.9h-1.8l-5.6.2c-5.1.2-10.4.3-15.7.3-7.9,0-15.7-.2-23.2-.6s-15.7-1.1-23-1.9A288.4,288.4,0,0,1,44,65l-4.7-1.1-.9-.2L35.9,63l-2.8-.9-2.3-.7h-.3c-2.6-.8-5.1-1.7-7.3-2.6l-3.4-1.4-.7-.4h0a50.3,50.3,0,0,1-5.7-3C6.9,50,3.2,45.6,3.2,41V35.9h0a14.8,14.8,0,0,1-.1-2.1h.7c0-.1,0-.1.1-.1m0-3a3.2,3.2,0,0,0-1.4.3A3.1,3.1,0,0,0,.1,33.7a14.8,14.8,0,0,0,.1,2.1h0V41c0,5.6,3.9,10.8,11.7,15.5a44,44,0,0,0,5.5,3h.3l1,.5,3.4,1.4,7.4,2.7h.4l2.1.6h.2l2,.6.8.2h.2l1.3.3,1.2.4h.9l1.8.4,3,.7a293.1,293.1,0,0,0,33,5.6c7.5.8,15.2,1.5,23.1,1.9s15.2.6,23.4.6c5.5,0,10.7-.1,15.8-.3l5.6-.2h1.8c5.9-.3,10.2-.6,14.2-1h3.8l2.3-.3,2.8-.3h.5l6.8-.8,2.5-.4h.9a218.7,218.7,0,0,0,34-7.2l.4-.2h.5l.8-.3h.8c18.4-6.1,28.4-13.9,28.9-22.6.2-3,.3-5,.3-6.2v-.2a5.4,5.4,0,0,0-.1-1.1l-.3-.9a2.9,2.9,0,0,0-2.7-1.7,2.8,2.8,0,0,0-2.1.8l-.2.2c-1.3,1.1-11,7.7-26.1,13.8A156.1,156.1,0,0,1,179,55.7h-.9l-2.3.3h-.1c-2.2.3-4.6.7-7.1.9h-.1l-3.6.4-1.7.2-2.2.2h-1.1c-4.4.4-9,.7-14,.9-7.8.4-15.5.6-23,.6s-15.3-.2-23.2-.6-15.5-1-22.6-1.8A263,263,0,0,1,40,50.4c-.1,0-.1,0-.1-.1a24.9,24.9,0,0,1-3.2-.8h0l-5.3-1.6a69.9,69.9,0,0,1-7.1-2.6l-1.1-.5L21.1,44C10.9,39.3,7.7,35.2,6.7,32.5a2.7,2.7,0,0,0-2.1-1.9Z" style="fill:#ce894a"/><path d="M122.8,68.4c-31.7,0-61.6-3.3-84.2-9.2S2.4,44.8,1.6,35.7c0-.2-.1-.4-.1-.7v-.4c.4-9.2,13.4-17.7,36.7-23.8s52.7-9.3,84.6-9.3,61.6,3.2,84.2,9.1c16.3,4.3,35.8,11.8,36.9,23.3a.6.6,0,0,1,.1.4,2.5,2.5,0,0,1,.1.8C243.7,53.8,190.4,68.4,122.8,68.4Z" style="fill:#f4efd9"/><path d="M122.8,3c65.3,0,118.3,13.9,119.7,31.2v.3a1.5,1.5,0,0,1,.1.6c-.4,17.6-53.8,31.8-119.8,31.8S4.4,53,3.1,35.6c0-.3-.1-.4-.1-.6v-.4C3.7,17.1,57.1,3,122.8,3m0-3C64,0,1.1,12.1,0,34.4V35a2.5,2.5,0,0,0,.2,1c1.1,12.4,21.3,20.3,38,24.7,22.7,5.9,52.8,9.2,84.6,9.2,59.1,0,122.3-12.2,122.8-34.7h0a4.1,4.1,0,0,0-.1-1,.9.9,0,0,0-.1-.5c-1.3-12.3-21.3-20-38-24.4C184.7,3.3,154.6,0,122.8,0Z" style="fill:#ce894a"/><path d="M35.4,65.8l-2.3-.7-2.3-.7h-.3v3.4l3.9,1.1,3.5.9a293.8,293.8,0,0,0,38.8,6.6V73.2a301.2,301.2,0,0,1-38-6.6Z" style="fill:#ad8c6d;opacity:0.46;mix-blend-mode:multiply"/><path d="M99.7,75v3.2q12.3.6,25.5.6c7.1,0,14-.1,20.8-.4V75.2c-6.9.3-13.8.5-20.8.5C116.5,75.7,108,75.5,99.7,75Z" style="fill:#ad8c6d;opacity:0.46;mix-blend-mode:multiply"/><path d="M213.9,64.7l-.5.2h-.2a152.2,152.2,0,0,1-29.5,7l-3.4.5L169,73.7v3.1c4-.3,7.9-.8,11.6-1.3l3.6-.4a165.7,165.7,0,0,0,31-7.5h0V64.3h0Z" style="fill:#ad8c6d;opacity:0.46;mix-blend-mode:multiply"/></g></g></g></svg>