<svg xmlns="http://www.w3.org/2000/svg" viewBox="0 0 140.9 318.7"><g style="isolation:isolate"><g id="Layer_2" data-name="Layer 2"><g id="Layer_1-2" data-name="Layer 1"><g id="na_potted_plant_1" data-name="na_potted plant 1"><path d="M51.4,168.3s-11.8-47.3,13-109" style="fill:none;stroke:#507125;stroke-linecap:round;stroke-linejoin:round;stroke-width:3px"/><path d="M49.6,129h-.4a1.6,1.6,0,0,1-1.1-1.3c0-.1-1.3-14.5,10.8-18.2,7.8-2.4,17.4-7.1,18.6-16A1.5,1.5,0,0,1,79,92.1h.1a1.6,1.6,0,0,1,1.4,1.6c0,.9-.6,22.3-10.8,28.7a16.5,16.5,0,0,1-9.8,3H56.7c-1.9,0-3.6.3-5.9,3.1A1.4,1.4,0,0,1,49.6,129Z" style="fill:#96b85c"/><path d="M79,93.6s-.4,21.5-10.1,27.6a16.1,16.1,0,0,1-9,2.7H56.7c-2.4,0-4.5.5-7.1,3.7,0,0-1.3-13.3,9.7-16.6S77.9,101.8,79,93.6m0-3a3,3,0,0,0-3,2.6c-1.1,8.1-10.1,12.5-17.5,14.8-10.6,3.2-12.4,14.3-11.9,19.8a3,3,0,0,0,2.2,2.5l.8.2a3.2,3.2,0,0,0,2.4-1.1c1.9-2.4,3.1-2.6,4.7-2.6h3.2a19,19,0,0,0,10.6-3.2c10.7-6.8,11.4-27.6,11.5-30a3.1,3.1,0,0,0-2.8-3.1Zm0,6Z" style="fill:#507125"/><path d="M77.9,99.4a33.7,33.7,0,0,1-8.6,10.5c-3.3,2.5-7.2,3.2-10.8,5a14.7,14.7,0,0,0-8,10.3h.1c3.8-9,12-9.1,19-13.7a20.7,20.7,0,0,0,8.6-12.1C78.2,99.3,78,99.2,77.9,99.4Z" style="fill:#4f6001"/><path d="M52.4,3a10.8,10.8,0,0,1,7.2,3.2c3.5,3.1,5.3,9.4,6.2,15.8a28,28,0,0,1,2.5-5.3c3.7-6.4,8.3-8.8,12.3-8.8a10.9,10.9,0,0,1,9.5,5.9c2.3,4.2,1.1,12.8-4.5,20.1a25.4,25.4,0,0,1,9.7-2h2.6c16.1,1.8,10.5,17.9.7,21.7a30.8,30.8,0,0,1-7.1,1.5,25.1,25.1,0,0,1,6,4c9.3,8.3,4.7,20.9-5.7,20.9a15.4,15.4,0,0,1-5.7-1.2,19.2,19.2,0,0,1-4.7-2.5c.6,6.8-2.4,14.7-8.2,14.7-1.9,0-4.1-.9-6.6-3.1a15.1,15.1,0,0,1-4.8-8,2,2,0,0,1-.4.8A12.9,12.9,0,0,1,50.1,88c-6,0-11.3-4.8-9.2-13.9A24.8,24.8,0,0,1,45.2,65l-4.3.8-3.3.3c-12.9,0-19.7-11.7-5.5-17.7a30.5,30.5,0,0,1,6.1-1.9,30.5,30.5,0,0,1-7.1-5C20.7,31.9,21.6,22,33.3,22l2.8.2a20.4,20.4,0,0,1,10.1,4.5c-.6-1.6-1.2-3.3-1.7-5.1C41.6,10.1,46.2,3,52.4,3m0-3h0a10.7,10.7,0,0,0-8.6,4.3c-2.9,3.8-3.9,9.6-2.6,16.1a21.7,21.7,0,0,0-4.7-1.2L33.3,19c-5.9,0-10.2,2.3-11.8,6.4s.8,12.1,7.5,18.3l2.1,1.8h-.2C20.5,50,21,56.9,21.4,58.9c1.2,5.9,8,10.2,16.2,10.2h1.9A32.6,32.6,0,0,0,38,73.4c-1.5,6.6.4,10.7,2.2,13A12.5,12.5,0,0,0,50.1,91a15.3,15.3,0,0,0,11.1-4.8,16.9,16.9,0,0,0,3.4,4.1c2.9,2.5,5.8,3.8,8.6,3.8a9.2,9.2,0,0,0,7-3.2,18.4,18.4,0,0,0,4.1-9.5l.7.3a18.8,18.8,0,0,0,6.8,1.4,13.4,13.4,0,0,0,12.8-8.7c2.3-6,.3-12.7-5.1-17.5l-.3-.2.5-.2c7-2.7,12.1-10.4,11.2-17.2-.3-2.7-2.3-9.1-12.7-10.2l-2.9-.2-3.4.2c2.7-6.1,3.1-12.5.9-16.7A13.9,13.9,0,0,0,80.6,4.9c-3,0-8.6,1.2-13.6,8.3C65.7,9.1,63.9,6,61.7,4a14.1,14.1,0,0,0-9.3-4Z" style="fill:#ff8d3d"/><path d="M70.9,45.7S81.8,30.3,97.9,32s10.5,17.9.7,21.7-26,.1-26,.1Z" style="fill:#fcd54d"/><path d="M70.7,47.5s8.3-12,20.8-10.6,8.1,13.8.5,16.7-20.1.1-20.1.1Z" style="fill:#fcd54d;opacity:0.4;mix-blend-mode:multiply"/><path d="M90.9,42.8c-3.7.8-6.8,2.7-10.4,3.8s-6.2,1.3-8.6,3.2c-.5.5-.1,1.5.6,1.1,2.9-1.4,5.9-2.2,8.9-3.3s6.2-3.3,9.6-4.4C91.2,43.1,91.2,42.7,90.9,42.8Z" style="fill:#fcd54d;opacity:0.73;mix-blend-mode:multiply"/><path d="M65.1,42.8s-4.4-13.3,3.2-26.1,18.2-9.6,21.8-2.9S88.7,37.9,71.4,44.3Z" style="fill:#fcd54d"/><path d="M64.8,43.1a26.4,26.4,0,0,1,2.5-20.2c5.8-9.9,14.2-7.5,16.9-2.3S83.1,39.4,69.7,44.3Z" style="fill:#fcd54d;opacity:0.4;mix-blend-mode:multiply"/><path d="M78,24c-2.3,2.3-3.6,5.3-5.3,8.1s-5,7.5-6.1,11.8c-.2.5.6.8.8.4,2-3.7,3.7-7.5,5.8-11.1s3-6.4,5.1-9C78.4,24,78.2,23.9,78,24Z" style="fill:#fcd54d;opacity:0.73;mix-blend-mode:multiply"/><path d="M61.3,44.3A38.1,38.1,0,0,1,44.5,21.6C40.5,5.8,50.8-1.8,59.6,6.2s6.8,36.2,6.8,36.2Z" style="fill:#fcd54d"/><path d="M61.6,44.3a28.4,28.4,0,0,1-12.5-17c-3-11.8,4.7-17.4,11.3-11.4s5,26.9,5,26.9Z" style="fill:#fcd54d;opacity:0.4;mix-blend-mode:multiply"/><path d="M59.5,32.5c-1.1-3.2-1.4-6.5-2.9-9.5-.1-.2-.3-.1-.2.1,2.1,6,2,12.5,4.9,18.3.3.5,1,.1,1-.3C62.3,38.1,60.5,35.3,59.5,32.5Z" style="fill:#fcd54d;opacity:0.73;mix-blend-mode:multiply"/><path d="M62.2,46.4,59,52s-16.8-.2-27.9-10.5-9.3-21,5-19.3S62.2,46.4,62.2,46.4Z" style="fill:#fcd54d"/><path d="M62.2,47.9,59.9,52s-12.3-.1-20.4-7.6-6.7-15.3,3.7-14.1S62.2,47.9,62.2,47.9Z" style="fill:#fcd54d;opacity:0.4;mix-blend-mode:multiply"/><path d="M56.8,44.9a98.6,98.6,0,0,1-9.2-4.6c-2.5-1.3-5.1-2.1-7.4-3.6-.2-.2-.5.2-.3.4a53.5,53.5,0,0,0,7.6,4.7,48.7,48.7,0,0,0,8.7,4.7C57.3,47,57.8,45.3,56.8,44.9Z" style="fill:#fcd54d;opacity:0.73;mix-blend-mode:multiply"/><path d="M62.2,50.3s-14.7-8.4-30.1-1.9S26,68,40.9,65.8s20-10,20-10Z" style="fill:#fcd54d"/><path d="M61.8,50.3s-12.2-7-24.8-1.7S31.9,64.8,44.2,63s16.5-8.2,16.5-8.2Z" style="fill:#fcd54d;opacity:0.4;mix-blend-mode:multiply"/><path d="M56.6,52c-6.4,1-12.4,2.1-18.7,3.7a.3.3,0,0,0,.1.6c3.9-.2,7.6-1.2,11.5-1.4s5.3-.3,7.5-2.2C57.4,52.4,56.9,52,56.6,52Z" style="fill:#fcd54d;opacity:0.73;mix-blend-mode:multiply"/><path d="M61.4,53.6S44.5,58.8,40.9,74.1,55,92.8,61.4,80.8s3.7-26,3.7-26Z" style="fill:#fcd54d"/><path d="M62.1,53.6s-14,4.3-17,17.1,11.7,15.5,17,5.6,3.1-21.7,3.1-21.7Z" style="fill:#fcd54d;opacity:0.4;mix-blend-mode:multiply"/><path d="M59.9,59.4c-2.5.4-3.8,3.9-5,5.9a92.7,92.7,0,0,0-6.4,11c-.2.3.3.6.5.3a106,106,0,0,1,6.5-9.5l2.6-3.9c.9-1.1,1.9-1.9,2.4-3.3A.4.4,0,0,0,59.9,59.4Z" style="fill:#fcd54d;opacity:0.73;mix-blend-mode:multiply"/><path d="M65.1,54.8S55,78,66.6,88s17.5-6.9,13.9-16A51,51,0,0,0,69.1,54.8Z" style="fill:#fcd54d"/><path d="M65.5,55.4s-8.2,18.8,1.1,26.9,14.2-5.6,11.3-13a42.3,42.3,0,0,0-9.2-13.9Z" style="fill:#fcd54d;opacity:0.4;mix-blend-mode:multiply"/><path d="M69.1,68.1c-.3-2.7.5-6.3-1.3-8.6-.2-.2-.8-.3-.8.2-1.1,7,2.3,13.9,3.1,20.7.1.6,1,.6.9,0C70.8,76.2,69.6,72.2,69.1,68.1Z" style="fill:#fcd54d;opacity:0.73;mix-blend-mode:multiply"/><path d="M69.1,54.8s2.9,18.7,17,24.1,22.3-10.1,11.4-19.7S71.3,52,71.3,52Z" style="fill:#fcd54d"/><path d="M69.1,54.1s2.3,14.7,13.4,19,17.5-7.9,8.9-15.5-20.6-5.7-20.6-5.7Z" style="fill:#fcd54d;opacity:0.4;mix-blend-mode:multiply"/><path d="M92.9,67.5c-3.1-2.3-6.3-4.3-9.6-6.4s-5.5-4.6-8.5-5.7c-.4-.1-.8.2-.6.6,1.5,3,5.4,4.8,8.2,6.4s6.7,3.8,10.1,5.7C92.8,68.3,93.2,67.8,92.9,67.5Z" style="fill:#fcd54d;opacity:0.73;mix-blend-mode:multiply"/><path d="M66.8,66a21.2,21.2,0,0,1-4.2-.4c-6.5-1.2-11.2-5.5-12.2-11.2s1.8-10.8,7.1-14a17,17,0,0,1,8.4-2.5c7.3,0,12.2,6,13.6,11.6a13.8,13.8,0,0,1-2.2,11.9C75.7,63.5,72.5,66,66.8,66Z" style="fill:#a0651a"/><path d="M65.9,38.9c6.6,0,11.3,5.4,12.7,10.8S77.1,65,66.8,65a19.4,19.4,0,0,1-4-.4c-13.1-2.4-15.6-17-4.8-23.3a15.2,15.2,0,0,1,7.9-2.4m0-2h0A17.3,17.3,0,0,0,57,39.6c-5.7,3.3-8.6,9.1-7.5,15s6,10.7,12.9,12a23.2,23.2,0,0,0,4.4.4c6.1,0,9.5-2.7,11.3-5a15.1,15.1,0,0,0,2.4-12.8C79,43.3,73.8,36.9,65.9,36.9Z" style="fill:#75411a"/><g style="opacity:0.4;mix-blend-mode:multiply"><path d="M56.8,46.1a1.2,1.2,0,0,0-1-1.1,1.2,1.2,0,0,0-1.3.9v.2c-.2,1.8,2.6,1.8,2.3.2Z" style="fill:#a0651a"/><path d="M62.6,40.2c-.8,0-1.3.9-1.3,1.6A1.6,1.6,0,0,0,63,43.1c.8,0,1.3-.9,1.3-1.6A1.6,1.6,0,0,0,62.6,40.2Z" style="fill:#a0651a"/><path d="M61.8,49.5a1.6,1.6,0,0,0-1.7,1.4,1.6,1.6,0,0,0,3.1.3A1.5,1.5,0,0,0,61.8,49.5Z" style="fill:#a0651a"/><path d="M56,52.1a1.1,1.1,0,0,0-.1,2.1A1.1,1.1,0,0,0,56,52.1Z" style="fill:#a0651a"/><path d="M58.8,55.1a1.5,1.5,0,1,0,1.3,1.7A1.5,1.5,0,0,0,58.8,55.1Z" style="fill:#a0651a"/><path d="M65.3,43.9c-1.9,0-2.3,3-.4,3S67.2,43.9,65.3,43.9Z" style="fill:#a0651a"/><path d="M70.3,41.4a1.3,1.3,0,0,0-1.2,1.5c0,.9.7,1.3,1.5,1.3a1.4,1.4,0,0,0,1.2-1.6C71.8,41.8,71.1,41.4,70.3,41.4Z" style="fill:#a0651a"/><path d="M77,51a1.4,1.4,0,1,0,.3,2.8,1.4,1.4,0,0,0,1.2-1.5A1.5,1.5,0,0,0,77,51Z" style="fill:#a0651a"/><path d="M68.3,47.1a1.6,1.6,0,0,0-1.7,1.3A1.5,1.5,0,0,0,68,50.1a1.5,1.5,0,1,0,.3-3Z" style="fill:#a0651a"/><path d="M72.6,48.3a1.6,1.6,0,0,0-1.7,1.4,1.5,1.5,0,0,0,1.4,1.7,1.6,1.6,0,0,0,.3-3.1Z" style="fill:#a0651a"/><path d="M74.7,54.7c-2,0-2.3,3.2-.2,3.2S76.8,54.7,74.7,54.7Z" style="fill:#a0651a"/><path d="M66.1,55.5c-2.1,0-2.4,3.2-.3,3.2S68.1,55.5,66.1,55.5Z" style="fill:#a0651a"/><path d="M68.3,59.3a1.6,1.6,0,0,0-1.7,1.4,1.5,1.5,0,0,0,1.3,1.6,1.5,1.5,0,0,0,.4-3Z" style="fill:#a0651a"/><path d="M55,56.8c-1.6,0-1.5,2.5.2,2.5S56.7,56.8,55,56.8Z" style="fill:#a0651a"/><path d="M63.7,61.5A1.4,1.4,0,0,0,62.5,63c0,.8.7,1.2,1.5,1.2a1.4,1.4,0,0,0,1.2-1.5A1.4,1.4,0,0,0,63.7,61.5Z" style="fill:#a0651a"/><path d="M72.4,60.5c-1.6,0-1.5,2.5.1,2.5S74,60.5,72.4,60.5Z" style="fill:#a0651a"/><path d="M61.4,46a1.1,1.1,0,0,0-.1,2.1A1.1,1.1,0,0,0,61.4,46Z" style="fill:#a0651a"/><path d="M53.4,51.7c-1.2,0-1.3,1.8-.2,1.8S54.5,51.7,53.4,51.7Z" style="fill:#a0651a"/><path d="M62.9,54c-1.1,0-1.3,1.7-.2,1.7S64,54,62.9,54Z" style="fill:#a0651a"/><path d="M60.1,61.1c-.9,0-.7,1.3.1,1.3S60.9,61.1,60.1,61.1Z" style="fill:#a0651a"/><path d="M71.4,56.7h-.1c-.5-1.3-2.8.2-1.4,1.3H70C70.8,58.6,71.7,57.5,71.4,56.7Z" style="fill:#a0651a"/><path d="M68.9,52.2a1.1,1.1,0,0,0,0,2.1A1.1,1.1,0,0,0,68.9,52.2Z" style="fill:#a0651a"/><path d="M75.3,59c-1,0-1.2,1.6-.2,1.6S76.3,59,75.3,59Z" style="fill:#a0651a"/><path d="M74,51.9c-1.1,0-1.3,1.8-.1,1.8S75.2,51.9,74,51.9Z" style="fill:#a0651a"/><path d="M75.2,45.4c-.9,0-.7,1.3.1,1.3S76,45.4,75.2,45.4Z" style="fill:#a0651a"/><path d="M66.7,40.8c-.8,0-.7,1.2.1,1.2S67.5,40.8,66.7,40.8Z" style="fill:#a0651a"/><path d="M65.5,52c-.8,0-.7,1.3.1,1.3S66.3,52,65.5,52Z" style="fill:#a0651a"/><path d="M76.4,48.6c-.8,0-.7,1.3.1,1.3S77.2,48.6,76.4,48.6Z" style="fill:#a0651a"/><path d="M71.2,45.6c-.8,0-.7,1.3.1,1.3S72,45.6,71.2,45.6Z" style="fill:#a0651a"/><path d="M56.9,49.2c-.8,0-.7,1.3.2,1.3S57.8,49.2,56.9,49.2Z" style="fill:#a0651a"/><path d="M62.7,58.5c-.8,0-.7,1.3.2,1.3S63.6,58.5,62.7,58.5Z" style="fill:#a0651a"/><path d="M59.1,42.5c0,.1-.1.1-.2.1s-.2,1,.2,1.3h0C60.4,44.6,60.4,41.8,59.1,42.5Z" style="fill:#a0651a"/></g><path d="M73.4,41.7c3.1,5.6,4.2,17.6-7.2,18.8-9.4,1-13.3-4-14.9-7.5.4,5.3,4.3,10.3,11.5,11.6,13.5,2.6,17.7-7.5,15.8-14.9A15.2,15.2,0,0,0,73.4,41.7Z" style="fill:#a0651a;opacity:0.30000000000000004;mix-blend-mode:multiply"/><path d="M40.2,161.5a1.6,1.6,0,0,1-1.1-.5,1.5,1.5,0,0,1-.4-1.1c1-9.3-11.2-14.9-11.3-14.9a1.4,1.4,0,0,1-.8-1.6,1.5,1.5,0,0,1,1.3-1.3h2c18.1,0,19.5,17.6,19.5,17.8A1.5,1.5,0,0,1,49,161a1.6,1.6,0,0,1-1.1.5Z" style="fill:#96b85c"/><path d="M29.9,143.6c16.9,0,18,16.4,18,16.4H40.2C41.3,149.5,28,143.6,28,143.6h1.9m0-3H27.8a3,3,0,0,0-2.7,2.5,3,3,0,0,0,1.7,3.3c.1,0,11.3,5.1,10.4,13.3A3.1,3.1,0,0,0,38,162a2.8,2.8,0,0,0,2.2,1h7.7a3.1,3.1,0,0,0,2.2-.9,2.9,2.9,0,0,0,.8-2.3c-.4-6.6-5.4-19.2-21-19.2Z" style="fill:#507125"/><path d="M41.3,151.7c-2.2-4.1-5.3-5.2-9.2-7.2-.1-.1-.2.1-.1.2,7.9,3.4,10.8,11.1,11.7,19.2a.3.3,0,1,0,.6,0C44.7,159.7,43.2,155.4,41.3,151.7Z" style="fill:#4f6001"/><path d="M97.8,99s-39.5,14.9-43,74" style="fill:none;stroke:#507125;stroke-linecap:round;stroke-linejoin:round;stroke-width:3px"/><path d="M67.2,141.1a14.2,14.2,0,0,1-4.4-.5,1.4,1.4,0,0,1-1.1-1.4c0-.4.3-9.1,13-13a36.1,36.1,0,0,1,11-1.5,74.4,74.4,0,0,1,18.3,2.5,1.5,1.5,0,0,1,1.1,1.8,1.6,1.6,0,0,1-1.5,1.2h-.2a11.7,11.7,0,0,0-2.3-.2,31.2,31.2,0,0,0-17.8,5.7A27.4,27.4,0,0,1,67.2,141.1Z" style="fill:#96b85c"/><path d="M85.7,126.2a72.6,72.6,0,0,1,17.9,2.5,12.7,12.7,0,0,0-2.5-.2,32.8,32.8,0,0,0-18.6,5.9,26.5,26.5,0,0,1-15.3,5.2,17.1,17.1,0,0,1-4-.4s.1-7.9,11.9-11.6a37.6,37.6,0,0,1,10.6-1.4m0-3v0h0a38.9,38.9,0,0,0-11.4,1.5c-13.8,4.3-14.1,14-14.1,14.4a3.1,3.1,0,0,0,2.2,3,24.2,24.2,0,0,0,4.8.5,29.2,29.2,0,0,0,17-5.7,29.2,29.2,0,0,1,16.9-5.4h2.5a3.1,3.1,0,0,0,3-2.4,3,3,0,0,0-2.2-3.5,75,75,0,0,0-18.7-2.6Z" style="fill:#507125"/><path d="M96,128.1h0c-10.8.6-20.5,4.6-30.2,8.8a.5.5,0,1,1-.5-.8C74,130.5,85.7,127.9,96,128.1Z" style="fill:#4f6001"/><path d="M107.9,62.1c3.3,0,6.4,3.8,7.5,10.5a29.5,29.5,0,0,1,.2,6.6,22.4,22.4,0,0,1,3.6-3.1,11.1,11.1,0,0,1,5.9-2.1c5.9,0,7.3,8.3,1.4,14.9l-2.4,2.4h1.2a19,19,0,0,1,6.4,1.2c10.6,4,6.2,15.6-3.2,15.6h-1.8a11.3,11.3,0,0,1,3,6.3c.7,5.5-1.9,7.6-5.4,7.6a14.6,14.6,0,0,1-8.1-3.1,13.8,13.8,0,0,1-.3,4c-1.2,5.2-4.7,7.6-8.3,7.6s-8-3-8.8-8.8a19.5,19.5,0,0,1,0-5.4,19.9,19.9,0,0,1-3.9,3.8,11.3,11.3,0,0,1-6.6,2.1c-5.6,0-10.6-3.9-6.6-11.5a16.9,16.9,0,0,1,6.3-6.9H86.5c-6.3,0-11.4-2.6-13-5.6-2.7-4.8-.4-12.4,9.7-12.4h1.2a21.3,21.3,0,0,1,4.4.7c-3.7-3.3-6.9-7-7.4-10.5-.8-5.2,2-8.4,6.1-8.4s6.4,1.6,9.8,5.3A23.9,23.9,0,0,1,99.8,76a16.4,16.4,0,0,1,1.4-8.3c2-3.9,4.4-5.6,6.7-5.6m0-3v0c-2.1,0-6.1.9-9.4,7.3a8.5,8.5,0,0,0-.9,2.4c-3.3-2.9-6.8-4.4-10.1-4.4a8.7,8.7,0,0,0-6.9,3,11.1,11.1,0,0,0-2.2,8.9,14.7,14.7,0,0,0,2.9,6.3c-6.3.6-9.1,3.8-10.3,5.8a11.3,11.3,0,0,0-.2,11.1c1.7,3,5.5,5.4,10.2,6.5a20.5,20.5,0,0,0-2,3.1c-2.7,5.3-1.8,8.9-.5,11.1S84,125,88.3,125a14.4,14.4,0,0,0,7.7-2.2c1.4,7.2,6.9,10.5,11.6,10.5s9.7-3.8,11.1-9.7a14.5,14.5,0,0,0,5.6,1.2,8.3,8.3,0,0,0,6.5-2.7c1.7-2,2.3-4.7,1.9-8.3a11.6,11.6,0,0,0-.8-3.2,11.7,11.7,0,0,0,8.8-9c.7-4.1-1-9.4-8-12l-2.3-.8c2.9-4.3,3.8-9.3,2.1-13.1a8,8,0,0,0-7.4-4.7,13,13,0,0,0-6.6,2.1,2.8,2.8,0,0,1-.1-.9c-1.3-8.1-5.4-13.1-10.5-13.1Z" style="fill:#ff8d3d"/><path d="M101.4,99.3s-14.1.4-19.7,11.2,6.8,14,13.2,9.4,10.9-16.2,10.9-16.2Z" style="fill:#fcd54d"/><path d="M102.7,99.9s-11,.2-15.3,8.6,5.2,10.8,10.2,7.3,8.4-12.5,8.4-12.5Z" style="fill:#fcd54d;opacity:0.4;mix-blend-mode:multiply"/><path d="M91.3,110.6c2-2,4.5-3.2,6.7-4.9s3.4-3.4,5.6-4.1c.5-.1.9.6.4.9-2.1,1.2-3.8,2.7-5.8,4.1s-4.6,2.6-6.7,4.2C91.3,110.9,91.1,110.8,91.3,110.6Z" style="fill:#fcd54d;opacity:0.73;mix-blend-mode:multiply"/><path d="M102,94.5a25.5,25.5,0,0,0-17.6-8.9C73.2,85,70.7,93,73.5,98s15.7,9.2,26.8,1Z" style="fill:#fcd54d"/><path d="M102.4,94.4a20.4,20.4,0,0,0-13.7-6.9c-8.7-.4-10.6,5.8-8.5,9.7s12.2,7.1,20.8.8Z" style="fill:#fcd54d;opacity:0.4;mix-blend-mode:multiply"/><path d="M84.9,94.7c2.4-.5,4.8,0,7.3,0s6.8.1,9.9,1.1c.4.2.3.7-.1.7-3.2-.3-6.2-.8-9.4-1s-5.2-.8-7.7-.6C84.8,94.9,84.7,94.8,84.9,94.7Z" style="fill:#fcd54d;opacity:0.73;mix-blend-mode:multiply"/><path d="M104.5,92.7a28.5,28.5,0,0,0-7.2-20c-8.2-9-17.2-5.7-15.9,3.1s19.8,19.3,19.8,19.3Z" style="fill:#fcd54d"/><path d="M104.4,92.9A21.4,21.4,0,0,0,99,78c-6.1-6.8-12.9-4.3-11.9,2.3s14.8,14.4,14.8,14.4Z" style="fill:#fcd54d;opacity:0.4;mix-blend-mode:multiply"/><path d="M97.9,86.7c-1.5-2-3.5-3.6-4.7-5.8-.1-.1,0-.2.1-.1,2.9,3.8,7,6.4,9.4,10.7.2.4-.3.7-.6.5C100.2,90.7,99.2,88.4,97.9,86.7Z" style="fill:#fcd54d;opacity:0.73;mix-blend-mode:multiply"/><path d="M105.5,94.1l4.8.4s6.9-10.6,5.1-21.9-9.3-14.5-14.2-4.9S105.5,94.1,105.5,94.1Z" style="fill:#fcd54d"/><path d="M106.4,94.7l3.5.3s5.1-7.7,3.8-15.9-6.8-10.6-10.4-3.6S106.4,94.7,106.4,94.7Z" style="fill:#fcd54d;opacity:0.4;mix-blend-mode:multiply"/><path d="M106.8,90.1c.5-2.5.7-5.1,1-7.7s.7-4,.7-6c0-.3.4-.3.4-.1a29.9,29.9,0,0,1-.2,6.7,47.4,47.4,0,0,1-.6,7.5C107.9,91.3,106.6,91,106.8,90.1Z" style="fill:#fcd54d;opacity:0.73;mix-blend-mode:multiply"/><path d="M108,95.8s.8-12.8,11.2-19.7,14.9,4.4,7.3,12.8-14.6,8.4-14.6,8.4Z" style="fill:#fcd54d"/><path d="M108.1,95.5s.7-10.5,9.3-16.2,12.2,3.6,6,10.5-12.1,6.9-12.1,6.9Z" style="fill:#fcd54d;opacity:0.4;mix-blend-mode:multiply"/><path d="M111.4,93a119.1,119.1,0,0,1,10-10.1c.2-.2.5,0,.4.2-1.8,2.3-4,4.3-5.7,6.6s-2.4,3.2-4.5,3.8C111.3,93.6,111.2,93.2,111.4,93Z" style="fill:#fcd54d;opacity:0.73;mix-blend-mode:multiply"/><path d="M110.3,96.7s10.3-8.5,21.4-4.3,5.8,16.5-4.3,15.6-17.9-8.5-17.9-8.5Z" style="fill:#fcd54d"/><path d="M110,97.1s8.6-7,17.8-3.6,4.9,13.8-3.6,13-14.9-7.1-14.9-7.1Z" style="fill:#fcd54d;opacity:0.4;mix-blend-mode:multiply"/><path d="M114.5,98.1c1.4-1.4,4.1-.7,5.8-.7a77.3,77.3,0,0,1,9.6.6c.2,0,.2.4,0,.4a84.2,84.2,0,0,0-8.7.2h-3.5a8.1,8.1,0,0,1-3.1.1C114.4,98.6,114.4,98.3,114.5,98.1Z" style="fill:#fcd54d;opacity:0.73;mix-blend-mode:multiply"/><path d="M109.5,99.5s18.8,3.3,20.2,14.7-11.6,8.1-15.8,2a40.9,40.9,0,0,1-6.1-14.3Z" style="fill:#fcd54d"/><path d="M109.7,99.9s15.2,2.8,16.4,12-9.4,6.5-12.8,1.6a32.6,32.6,0,0,1-4.9-11.6Z" style="fill:#fcd54d;opacity:0.4;mix-blend-mode:multiply"/><path d="M116.2,107.5c-1.6-1.3-4.2-2.3-4.8-4.4-.1-.2.1-.6.4-.4,4.8,2.2,7.8,7.2,11.7,10.6.3.2-.1.8-.4.5C120.6,111.9,118.6,109.5,116.2,107.5Z" style="fill:#fcd54d;opacity:0.73;mix-blend-mode:multiply"/><path d="M107.8,101.9s10.5,9.7,8.1,20.8-15.6,9.7-17.1-1.2,6.4-19.4,6.4-19.4Z" style="fill:#fcd54d"/><path d="M107.4,101.7s8.3,7.5,6.4,16.3-12.3,7.6-13.5-.9,5.1-15.3,5.1-15.3Z" style="fill:#fcd54d;opacity:0.4;mix-blend-mode:multiply"/><path d="M105.9,122.1c-.1-2.9,0-5.7,0-8.6s-.6-5.4,0-7.7c.1-.4.5-.5.6-.1,1.2,2.1.7,5.3.6,7.7s-.5,5.8-.6,8.7A.3.3,0,0,1,105.9,122.1Z" style="fill:#fcd54d;opacity:0.73;mix-blend-mode:multiply"/><path d="M107.9,110.1a10.9,10.9,0,0,1-7.9-3.7,12,12,0,0,1-3-10.1c.4-2.3,2-5.6,6.6-7.8a12,12,0,0,1,5.1-1.3,10,10,0,0,1,8.3,4.4c2,3.1,2.2,7,.6,10.9-2.8,6.6-7.3,7.6-9.7,7.6Z" style="fill:#a0651a"/><path d="M108.7,88.2c6.4,0,11.1,6.5,7.9,13.9-2.1,5.1-5.5,7-8.7,7a9.9,9.9,0,0,1-7.1-3.3c-3.9-4.3-5.1-12.3,3.3-16.4a10.2,10.2,0,0,1,4.6-1.2m0-2a12.5,12.5,0,0,0-5.5,1.4c-5,2.4-6.7,6-7.2,8.5a13.1,13.1,0,0,0,3.3,11,11.8,11.8,0,0,0,8.6,4c2.7,0,7.6-1.1,10.6-8.2a12.3,12.3,0,0,0-.7-11.8,10.7,10.7,0,0,0-9.1-4.9Z" style="fill:#75411a"/><g style="opacity:0.4;mix-blend-mode:multiply"><path d="M107.6,90.7a.9.9,0,0,1-.3-1.2c.2-.3.7-.6,1-.4h.2c1.2.6.1,2.4-.8,1.6Z" style="fill:#a0651a"/><path d="M101.4,91.8a1.1,1.1,0,0,1,1.7,1.5c-.3.5-1.1.4-1.6.1A1.2,1.2,0,0,1,101.4,91.8Z" style="fill:#a0651a"/><path d="M107.6,95.2a1.2,1.2,0,0,1,1.6-.5,1.2,1.2,0,1,1-1.1,2.1A1.1,1.1,0,0,1,107.6,95.2Z" style="fill:#a0651a"/><path d="M111.6,92.6a.8.8,0,0,1,1.4.9A.8.8,0,0,1,111.6,92.6Z" style="fill:#a0651a"/><path d="M112.3,95.7a1.2,1.2,0,0,1,1.5-.5,1,1,0,0,1,.5,1.4,1.1,1.1,0,0,1-1.5.5A1.1,1.1,0,0,1,112.3,95.7Z" style="fill:#a0651a"/><path d="M102.6,95c.8-1.2,2.8-.2,2,1S101.8,96.2,102.6,95Z" style="fill:#a0651a"/><path d="M99,97.1c.3-.5,1.1-.4,1.5-.1a1.1,1.1,0,0,1,.1,1.5c-.3.5-1.1.4-1.5.1A1.1,1.1,0,0,1,99,97.1Z" style="fill:#a0651a"/><path d="M102.3,105.3a.9.9,0,0,1,1.4-.1,1.1,1.1,0,0,1,.2,1.5,1.2,1.2,0,0,1-1.5.1A1,1,0,0,1,102.3,105.3Z" style="fill:#a0651a"/><path d="M103.4,98.2a1.2,1.2,0,0,1,1.5-.5,1.1,1.1,0,0,1,.5,1.6,1.1,1.1,0,0,1-1.5.5A1.1,1.1,0,0,1,103.4,98.2Z" style="fill:#a0651a"/><path d="M102.4,101.4a1.1,1.1,0,0,1,1.5-.5,1.1,1.1,0,0,1,.5,1.6,1.2,1.2,0,0,1-1.5.5A1.1,1.1,0,0,1,102.4,101.4Z" style="fill:#a0651a"/><path d="M105.5,105.4c.8-1.3,2.9-.1,2.1,1.2S104.6,106.7,105.5,105.4Z" style="fill:#a0651a"/><path d="M109.6,100.4c.8-1.3,3-.2,2.1,1.1S108.7,101.7,109.6,100.4Z" style="fill:#a0651a"/><path d="M111,103.3a1.2,1.2,0,1,1,.5,1.6A1.3,1.3,0,0,1,111,103.3Z" style="fill:#a0651a"/><path d="M114.9,94c.7-1.1,2.3.1,1.6,1.1S114.3,95,114.9,94Z" style="fill:#a0651a"/><path d="M114.3,101.4a1.1,1.1,0,0,1,1.5-.2,1.2,1.2,0,0,1,.1,1.5,1.1,1.1,0,0,1-1.4.1A1,1,0,0,1,114.3,101.4Z" style="fill:#a0651a"/><path d="M110.1,106.4c.7-1,2.2.1,1.5,1.1S109.4,107.4,110.1,106.4Z" style="fill:#a0651a"/><path d="M105.6,93.5c.6-.9,1.9,0,1.3.8S105,94.3,105.6,93.5Z" style="fill:#a0651a"/><path d="M112.5,90.8c.5-.7,1.6,0,1.2.7S112,91.5,112.5,90.8Z" style="fill:#a0651a"/><path d="M110,97.7c.4-.7,1.6,0,1.1.7S109.5,98.4,110,97.7Z" style="fill:#a0651a"/><path d="M115.6,98.9c.3-.5,1.1.1.7.6S115.2,99.4,115.6,98.9Z" style="fill:#a0651a"/><path d="M108.1,104.2h0c-.6-.9,1.3-1.7,1.4-.3h0C109.6,104.6,108.5,104.7,108.1,104.2Z" style="fill:#a0651a"/><path d="M106.3,100.8c.6-.8,1.9,0,1.3.8S105.8,101.6,106.3,100.8Z" style="fill:#a0651a"/><path d="M107.9,107.6c.5-.6,1.5-.1,1.1.5S107.5,108.2,107.9,107.6Z" style="fill:#a0651a"/><path d="M104,103.9c.5-.8,1.7-.1,1.2.6S103.6,104.6,104,103.9Z" style="fill:#a0651a"/><path d="M99.5,101.8c.3-.5,1,.1.7.6S99.1,102.3,99.5,101.8Z" style="fill:#a0651a"/><path d="M100.1,94.6c.3-.5,1.1.1.7.6S99.7,95.1,100.1,94.6Z" style="fill:#a0651a"/><path d="M107.6,98.5c.3-.5,1.1.1.8.6S107.3,99,107.6,98.5Z" style="fill:#a0651a"/><path d="M100.9,103.9c.4-.5,1.1.1.8.7S100.6,104.5,100.9,103.9Z" style="fill:#a0651a"/><path d="M101.2,99.5c.4-.6,1.1,0,.8.6S100.9,100,101.2,99.5Z" style="fill:#a0651a"/><path d="M109.4,92c.4-.5,1.1.1.8.6S109.1,92.5,109.4,92Z" style="fill:#a0651a"/><path d="M112.8,99.5c.4-.5,1.1.1.8.6S112.5,100,112.8,99.5Z" style="fill:#a0651a"/><path d="M104.3,90.6h.2c.4-.2.7.3.7.6h0C105.1,92.3,103.4,91.1,104.3,90.6Z" style="fill:#a0651a"/></g><path d="M97.9,99.2c2.2,4.2,9.3,9.9,14.8,3.3s3-10,1.5-12.4c3.1,2.4,4.6,7,2.4,12-4,9.5-12,7.9-15.8,3.7A11.4,11.4,0,0,1,97.9,99.2Z" style="fill:#a0651a;opacity:0.30000000000000004;mix-blend-mode:multiply"/><g id="VC_na_potted_plant_1" data-name="VC_na_potted plant 1"><path d="M31.1,317.2a1.6,1.6,0,0,1-1.4-.9c-.2-.5-20.6-49.5-27-88.1-5.8-34.2,11.2-48,20.3-55.4l3.8-3.2c5.6-5.7-1.1-13.6-1.4-14a1.3,1.3,0,0,1-.2-1.6,1.4,1.4,0,0,1,1.3-.9H73.2a1.5,1.5,0,0,1,1.3,2.3,36.4,36.4,0,0,0-3.9,9.6c-1,4.1,2.2,7.9,9.6,11.6,2.4,1.2,22.7,12.8,15.8,56.6-5.8,37.3-25.8,82.6-26,83.1a1.4,1.4,0,0,1-1.3.9Z" style="fill:#68c6bf"/><path d="M73.2,154.6h0m0,0a37.4,37.4,0,0,0-4.1,10.1c-1.3,5.6,3.7,9.9,10.4,13.3s20.9,17.5,15,55-25.8,82.7-25.8,82.7H31.1s-20.4-48.8-27-87.8,17-50.5,23.7-57.3-1.3-16-1.3-16H73.2m0-3H26.5a2.9,2.9,0,0,0-2.7,1.8,2.9,2.9,0,0,0,.5,3.2c.2.3,6.1,7.2,1.4,11.9-.9.9-2.2,1.9-3.6,3.1-9.4,7.7-26.8,21.8-20.9,56.8,6.5,38.9,26.9,88,27.1,88.5a3.1,3.1,0,0,0,2.8,1.8H68.7a2.9,2.9,0,0,0,2.7-1.8c.2-.4,20.2-45.9,26.1-83.4,2.6-16.9,1.6-31-3-42s-11-14.9-13.6-16.2c-10-5-9.1-8.7-8.9-9.9a34.5,34.5,0,0,1,3.7-9.1,2.5,2.5,0,0,0,.5-1.7,3,3,0,0,0-3-3Zm0,6Z" style="fill:#3b7e82"/><g style="opacity:0.4;mix-blend-mode:multiply"><path d="M81.7,256.8c-13.1-6.2-18.9,7-21.8,13.3a7.7,7.7,0,0,1-.7,1.6c-2.8,6.2-3.3,7.4-8.3,7.5s-7.2-.8-10-7.3C35.6,260,31,252.6,15.8,258.5a10.5,10.5,0,0,1-4.4.6c1.9,6.9,4,13.6,6.1,19.8a17.2,17.2,0,0,0,2.8-.8,13.3,13.3,0,0,1,4.4-1.2c.6,1,1.7,3.5,2.5,5.2C32.9,295,38.9,299.7,50,299.7h1.2c13.9-.4,18.4-10.4,21.6-17.6a14.2,14.2,0,0,0,.8-1.8c.7-1.4,1.6-3.5,2.2-4.5l.5.2a28.8,28.8,0,0,0,6.6,2.3c2.1-6.3,4.2-13,6-19.9A15,15,0,0,1,81.7,256.8Z" style="fill:#b78ccf"/><path d="M4.1,227.9c.2,1.3.5,2.5.7,3.8,5.2,4.5,11.3,8.7,18.4,6.7,5.5-1.5,10.2-6.6,14.1-15.1,6.9-15,9.5-14.7,11.9-14.8,5.6-.1,9.1,11.5,11.4,15.8,4.2,7.6,9.4,14.6,17.1,14.6,3.2,0,6.9-1.2,11.1-4.3l1.4-.9c2.1-1.5,3.6-2.6,4.7-3.2a91,91,0,0,0,.7-21.1c-5.1.6-9.7,3.9-13.1,6.4l-1.3.9c-2.5,1.8-3.3,1.7-3.3,1.7h0c-.1,0-1.4-.5-4.5-6.1-5.8-10.6-13.1-23.8-23.7-24.2s-17.5,6.2-26,24.8c-1.7,3.7-3.1,5.3-3.8,5.5s-6.2-3.6-9.1-6.3l-.2-.2A16.1,16.1,0,0,0,3.4,208,72.1,72.1,0,0,0,4.1,227.9Z" style="fill:#b78ccf"/><path d="M65.5,168.4c-10.8-.3-21.6.5-32.3,1-.1,0-.2.2,0,.2,10.8.4,21.6,0,32.4-.1C66.1,169.5,66,168.4,65.5,168.4Z" style="fill:#b78ccf"/></g><path d="M79.5,178c-6.7-3.4-11.7-7.7-10.4-13.3a37.4,37.4,0,0,1,4.1-10.1H69c-6.1,5.3-17.7,18.6-3.1,33.4,19,19.4,13.5,84.1-10.5,104.2-12.3,10.3-23.4,9.1-31.3,5.5,4,10.9,7,18,7,18H68.7s20-45.2,25.8-82.7S86.3,181.4,79.5,178Z" style="fill:#b78ccf;opacity:0.73;mix-blend-mode:multiply"/><g style="opacity:0.7000000000000001;mix-blend-mode:multiply"><ellipse cx="49.5" cy="245.1" rx="10" ry="24.3" style="fill:#b78ccf"/><path d="M26.7,242.3c-2.1,0-3.8,2.2-3.8,4.9s1.7,5,3.8,5,3.9-2.2,3.9-5S28.9,242.3,26.7,242.3Z" style="fill:#b78ccf"/><path d="M15.2,248c0-4.4-2.7-7.9-6.1-7.9a5,5,0,0,0-2.4.6c1.1,5,2.4,10.1,3.8,15C13.2,255,15.2,251.8,15.2,248Z" style="fill:#b78ccf"/><path d="M72.2,252.2c2.1,0,3.8-2.2,3.8-5s-1.7-4.9-3.8-4.9-3.8,2.2-3.8,4.9S70.1,252.2,72.2,252.2Z" style="fill:#b78ccf"/><path d="M89.8,240.1c-3.4,0-6.1,3.5-6.1,7.9s2.6,7.8,5.9,7.9c1.3-4.8,2.5-9.7,3.4-14.6A4.7,4.7,0,0,0,89.8,240.1Z" style="fill:#b78ccf"/></g></g></g></g></g></g></svg>