<svg xmlns="http://www.w3.org/2000/svg" viewBox="0 0 106.2 159.4"><g id="Layer_2" data-name="Layer 2"><g id="Layer_1-2" data-name="Layer 1"><path d="M72.4,31.8a28,28,0,0,1,5.1,16.1A27.7,27.7,0,0,1,63.9,71.7H35.5A27.7,27.7,0,0,1,21.9,47.9,28,28,0,0,1,27,31.8Z" style="fill:#ad5224;stroke:#6a3417;stroke-miterlimit:10;stroke-width:3px;fill-rule:evenodd"/><path d="M77.3,50.6C61.7,75.1,36.4,69.1,26.7,63.4a26.9,26.9,0,0,0,8.8,8.3h.4a1.6,1.6,0,0,0-1.6,1.6h0a1.6,1.6,0,0,0,1.6,1.5H62.7a1.5,1.5,0,0,0,1.5-1.5h0a1.6,1.6,0,0,0-1.5-1.6h1.2A27.4,27.4,0,0,0,77.3,50.6Z" style="fill:#ad5224;stroke:#6a3417;stroke-linecap:round;stroke-linejoin:round;stroke-width:3px;fill-rule:evenodd"/><path d="M22,48.7a2.2,2.2,0,0,1-.1-.8A28,28,0,0,1,27,31.8H57.8v.3c0,10.3-10.9,18.7-24.5,18.7A29.5,29.5,0,0,1,22,48.7Z" style="fill:#e57225;stroke:#6a3417;stroke-miterlimit:10;stroke-width:3px;fill-rule:evenodd"/><path d="M29.1,3a8.1,8.1,0,0,1,7.3,5.6,3.9,3.9,0,0,1,1.7-2.5,4.1,4.1,0,0,1,2-.6c3.4,0,6.2,5,3.1,9.6h0l.6.7A9.1,9.1,0,0,1,46,19.3l.5,1.1.6-.3h1.1a2.2,2.2,0,0,1,1.1.2C46.8,15.5,49.1,10,53.6,10h.3c2.8.1,4.4,2.3,4.6,4.8l.5-.4C58.6,8.6,62.7,5,66.2,5a4.5,4.5,0,0,1,4.1,2.4A7,7,0,0,1,71,9.6a8.5,8.5,0,0,1,5.6-2.1c4,0,7.3,3.2,5.8,6.8l-.3.5.8.9A7.2,7.2,0,0,1,86,20.6v.2h1.6c6.3,0,10.3,5.9,6.9,9.9A3.7,3.7,0,0,1,92.7,32c4.6,3.9,4.8,10.5-.1,12.8a5.2,5.2,0,0,1-2.4.5,3,3,0,0,1-1.3-.2,8,8,0,0,1-.4,9.3c7.2,1.8,8.4,10.3,3,11.8l-1.3.2H89.1a6.2,6.2,0,0,1,.3,4.6c7.2,2.5,9.2,10.9,3.8,14a5.5,5.5,0,0,1-2.9.8c-4.5,0-8.3-5.9-5.9-12.1a4.2,4.2,0,0,1-2.6-4.5,6.6,6.6,0,0,1-3.3-1.7,4.3,4.3,0,0,1-1.1,1.2h0c5.5,3.5,5.4,10.6,1.2,12.5,8.7,2.1,12.1,11.8,6.1,16.2a6.7,6.7,0,0,1-3.9,1.3,6.6,6.6,0,0,1-3.6-1.1,7.7,7.7,0,0,1-1.3,6.4c5.7,1.7,7.9,8.1,3.9,11.1a4.4,4.4,0,0,1-2.8,1H76a10.8,10.8,0,0,1,1.8,9.9,8.5,8.5,0,0,1,4.5-1.2c3.8,0,6.9,2.5,6.4,6.2a4.8,4.8,0,0,1-5.1,4.1H82.2a7.6,7.6,0,0,1,1.3,2.3,12.3,12.3,0,0,1,6.9-2.1c5.4,0,9.9,3.8,8.9,8.9a10.7,10.7,0,0,1-.7,1.9c3.6,1.2,5.7,4.6,4,7.9a4.5,4.5,0,0,1-4.2,2.6c-3.1,0-6.6-2.7-7.2-7.1a11.1,11.1,0,0,1-7.8-5.3,6.2,6.2,0,0,1-4.6,3.3h-.9c-6.4,0-8.6-10.4-.5-15.5a7.6,7.6,0,0,1-1.5-2.8,6.3,6.3,0,0,1-4.3,1.6h-.7c-7.9-.7-9.3-12.7-.3-18.3a.1.1,0,0,1-.1-.1.4.4,0,0,1,.4-.4.8.8,0,0,1,.7.5h.3a8.4,8.4,0,0,1-.3-6.3l-1.5-.4c-4.9-2.2-3.7-9.7,2.5-12.3a19.5,19.5,0,0,1,.2-2.3,12.4,12.4,0,0,1,.9-8.1,14.9,14.9,0,0,0,.2-2.1c-3.1-2-3.6-7.9.8-11.7h-.5c-3.9-1.1-3.9-6.6.1-9.4h-.6a4.5,4.5,0,0,1-1.9-.5c-4-1.7-4-6.9-.7-10.2a5.7,5.7,0,0,1-4.9-4.2,4,4,0,0,1-2.2.6h-.2a5,5,0,0,1-2.7-.8A5.1,5.1,0,0,1,58,48.7c5.8,4.2,4.7,12.3-.8,12.9h-.6a4.7,4.7,0,0,1-1.7-.3c1.8,5.7-.4,10.7-3.7,13.1,4.2,2,5.1,6.9,2.8,9.1h.2c6.1,0,10.1,5.6,6.9,9.7a4.9,4.9,0,0,1-1.8,1.4c4.8.5,7.6,4.8,6.1,8.1v.2a3.8,3.8,0,0,1-.8,1.1,4.1,4.1,0,0,1-2.9,1.3c-3.6,0-7.2-4.6-5.1-10.1h-.2c-3.3-.8-6.4-4.8-5.3-10.1a.4.4,0,0,0-.1-.3c-3.2-.2-5.1-5-2.3-8.8a5.8,5.8,0,0,1-1.9.3,6.5,6.5,0,0,1-4.5-1.9C36.4,68.8,42,58.7,52,58.7h.3c-1.3-2.8-.6-7.1,3.2-9.8h0c-2.7-.4-4.3-2.8-4.3-5.7h-1c-4.3-.1-6.3-4.9-4.5-9.2A8.4,8.4,0,0,1,41,35.5a7,7,0,0,1-2.5-.5c1.2,4.5-1.2,8.8-5.1,8.8h-1a4.9,4.9,0,0,1-1.8-.8,11.7,11.7,0,0,1,.2,6.4c7.1.7,10.2,8.2,5.7,11.5a5.1,5.1,0,0,1-2.8.9,5.1,5.1,0,0,1-1.7-.3,6.6,6.6,0,0,1,.9,6.5,4.3,4.3,0,0,0,.2,1.1c9.7,1.1,12.3,12.2,5.6,14.6a5.7,5.7,0,0,1-2.2.4h-.7a1.1,1.1,0,0,0,.1.5,8.9,8.9,0,0,1,.7,5.7l.3,2.2c9.6,3.2,11.5,14.6,4.3,17.7a7.4,7.4,0,0,1-2.7.6h-.8c1.1,4.7-.9,8.7-3.8,10.5-.1,0-.1.1-.1.2,4.1,5,1.9,11.9-3.2,11.9h-.3a4.3,4.3,0,0,1-3.2-1.5c0,4.1-3,6.7-5.7,6.7a3.7,3.7,0,0,1-3.2-1.9c-1.7-3.2,1.3-6.8,5.4-6.8a11.8,11.8,0,0,1,2.5.4c-1-2.5-.2-6.2,2.8-8.6a5.5,5.5,0,0,1-1.5-.8c-4.8-3.8-1.9-11.6,5.3-13.4a11.4,11.4,0,0,1,.2-12.2,5.7,5.7,0,0,1-1.8.3l-1.6-.2c-5.6-1.8-3.9-10.7,3.7-12.2-3.4-2.3-5-8-1.9-13.3a3.3,3.3,0,0,1-1.9.6l-1.1-.2c-4.2-1.3-3.8-7.8,1.5-10.1a.3.3,0,0,0-.1-.2,7.7,7.7,0,0,1-1.8-5.7A6.9,6.9,0,0,1,23.5,56a6.3,6.3,0,0,1-3.6-1.3C14,50.1,18.7,40,28.6,39.9c-.7-3.3,1.5-7.7,6.8-9.1-.4-3.3,2.4-5.4,5.8-5.4a7.8,7.8,0,0,1,3.3.7,6.1,6.1,0,0,1-.2-3,8.3,8.3,0,0,1-4.2,1.1c-4,0-7.2-2.8-6.5-6.6a4.7,4.7,0,0,1,4.9-3.8l-1-1a4.7,4.7,0,0,0-1.2-.9A10.1,10.1,0,0,1,31,13.5a7.5,7.5,0,0,1-2.6-.4c.5,5.4-2.9,9.9-7.2,9.9a6.6,6.6,0,0,1-2.3-.4,9.5,9.5,0,0,1-1.7-1c-.8,2.5-2.7,4.2-5.1,4.2h-.8c3.3,3.7,2.9,8.3.8,10.8,5.6,1.3,7.7,7.5,3.8,10.1a4.4,4.4,0,0,1-2.2.7,10.7,10.7,0,0,1,1.5,11.1c7,1.1,9.7,8.7,5.1,11.8a5.2,5.2,0,0,1-2.6.8h-.5a6.4,6.4,0,0,1,.5,5.5c6.4,1.5,8.5,9,3.6,11.3a4.6,4.6,0,0,1-2.2.6l-1.4-.2h0c2.9,4.2,1.8,9.3-1.3,11.1,1.5,4.8-1.7,8.5-4.7,8.5A3.5,3.5,0,0,1,9,106.5c-2.1-2.4-.7-5.8,2.3-7.2-4-2.4-2.8-10.2,4.4-12.2A8.4,8.4,0,0,1,13.2,79H13c-4.1-1.2-3.9-7.2.8-9.8a8.1,8.1,0,0,1-1.5-7.7,6.1,6.1,0,0,1-3,.8H8.8C1.2,61.7.5,49.6,10.1,45.5a7.3,7.3,0,0,1-.9-7.4H8.6a5.1,5.1,0,0,1-1.7-.3c-5.3-2-4.3-10.3,2.5-12.8-3.5-2.2-2.8-8.3,2-11A4.6,4.6,0,0,1,7.1,9.7C6.9,6.2,9.8,4,13.2,4a9.3,9.3,0,0,1,7,3.3h.4A16.9,16.9,0,0,1,24,6.5h.4A4.6,4.6,0,0,1,29.1,3m38,22.1c-3.5,0-7.3-2.6-8.8-7.3l-.4.5a10.2,10.2,0,0,1-1.4,2.2h.6A4.6,4.6,0,0,1,61.2,23a5.1,5.1,0,0,1,.1,4.8A4.6,4.6,0,0,1,64,31.9l.5.3a10.4,10.4,0,0,1,9.4-6.8,6.1,6.1,0,0,1,6.2,4.4c1.3,4.4-2.5,7.8-7.2,7.8h-.8c3.5,1.9,4.9,5.6,3.9,8.3a1.7,1.7,0,0,1,.2.5c.1.1.3.2.3.4h0c3.1,3.5,3.1,7.7,1.5,10.3h.8a9.1,9.1,0,0,1,6,2.1,8.2,8.2,0,0,1,.9-3.2H85a4.3,4.3,0,0,1-2.2-.6c-4.7-2.5-2.7-10,3.9-11.6-3.3-2.7-4.4-8.8-.1-13.8a9.1,9.1,0,0,1-2.1-5,3.8,3.8,0,0,1-2.6,1h-.2c-4-.2-5.5-5.1-3.1-8.9h-.9A8,8,0,0,1,70.5,12a5.7,5.7,0,0,1-1.2,1.8c3.1,1.5,4.9,4.8,3.2,8.1a5.9,5.9,0,0,1-5.4,3.2M15.8,13.5v-.2h-.1M58.5,37.1h0l.2.2c0-.1.1-.1.1-.2h-.3M29.1,0h0a7.6,7.6,0,0,0-6.8,3.8l-1.1.3a12.2,12.2,0,0,0-8-3.1,9.7,9.7,0,0,0-7,2.8A7.9,7.9,0,0,0,4.1,9.9a7.8,7.8,0,0,0,2.1,4.9,9.8,9.8,0,0,0-2,5.9,7.8,7.8,0,0,0,.7,3.5A11,11,0,0,0,.5,32.9a8.2,8.2,0,0,0,5.1,7.7,11.4,11.4,0,0,0,.5,3.7,13.2,13.2,0,0,0-5.9,13,9.1,9.1,0,0,0,8.4,7.9H9a9,9,0,0,0,.9,3.2,9,9,0,0,0-2.7,7.3A7.1,7.1,0,0,0,10,80.8a12.6,12.6,0,0,0,1.1,5.1,11.3,11.3,0,0,0-5,7.7A9.5,9.5,0,0,0,7,98.9a7.8,7.8,0,0,0-1.9,3.6,7.3,7.3,0,0,0,1.6,6,6.6,6.6,0,0,0,5,2.3,7.9,7.9,0,0,0,6.2-3.4,9.3,9.3,0,0,0,1.8-6.9,9.2,9.2,0,0,0,2.4-4.7,10.6,10.6,0,0,0,0-5l.6-.3.5-.3a7.6,7.6,0,0,0,5.3,7.9,13.4,13.4,0,0,0,.2,7.7,12.1,12.1,0,0,0-6.4,8.1,8.9,8.9,0,0,0,2.2,8.3,9.9,9.9,0,0,0-1.7,4.6,9.2,9.2,0,0,0-7.1,4.3,6.8,6.8,0,0,0-.1,6.9,6.6,6.6,0,0,0,5.8,3.5,8.4,8.4,0,0,0,5.8-2.6,8.3,8.3,0,0,0,1.9-2.7h1.5a8.1,8.1,0,0,0,7.4-4.8,11.2,11.2,0,0,0-.3-9.6,12.6,12.6,0,0,0,3.3-8.4l1.3-.5a10.3,10.3,0,0,0,6.3-10.1,14.9,14.9,0,0,0-8.9-12.5h0a9.7,9.7,0,0,0-.1-3.8h.1a8.4,8.4,0,0,0,4.9-4.5l.4,1.2a7.3,7.3,0,0,0,2.8,3.2A11.2,11.2,0,0,0,53,96.7a10.8,10.8,0,0,0,1.7,7.7,8.6,8.6,0,0,0,6.9,3.9,6.7,6.7,0,0,0,4.6-1.8,10,10,0,0,0,1.9,1.6,14.1,14.1,0,0,0,.1,2c-.1,0-.1.1-.2.2-5.8,4.2-7.4,10.6-6.3,15.2a10.1,10.1,0,0,0,8.9,8h.7a12.2,12.2,0,0,0-1.7,10.1c1.2,4,4.4,6.6,8.3,6.6h1.3a8.6,8.6,0,0,0,4.1-1.6,13.6,13.6,0,0,0,5.4,3.2,10.6,10.6,0,0,0,9.7,7.6,7.9,7.9,0,0,0,7.2-10.9,8.9,8.9,0,0,0-3.3-4.1,9.9,9.9,0,0,0-2.2-8.1,12.5,12.5,0,0,0-8.6-4.2c0-.2.1-.5.1-.8a7.9,7.9,0,0,0-1.8-6.4,9.7,9.7,0,0,0-7.5-3.2h-1a14.7,14.7,0,0,0-.8-3.5,4.1,4.1,0,0,0,1.1-.7,8,8,0,0,0,3.1-8,10.2,10.2,0,0,0-4.8-6.9l.3-.9h.6a10.2,10.2,0,0,0,9.7-12.4,1.3,1.3,0,0,0-.1-.6,8.5,8.5,0,0,0,4.3-1.2,9.1,9.1,0,0,0,4.5-8.8,12.3,12.3,0,0,0-6.5-9.6h0a7.4,7.4,0,0,0,5.1-7.4,10.5,10.5,0,0,0-5.1-8.7,9.6,9.6,0,0,0,.3-5.1l.9-.3a8.8,8.8,0,0,0,5.2-7.1,11.6,11.6,0,0,0-2-8,8.1,8.1,0,0,0,.9-8.6,11.1,11.1,0,0,0-9.7-6.1A10.7,10.7,0,0,0,85.6,14a7.5,7.5,0,0,0-1.1-5.6,9.6,9.6,0,0,0-7.9-3.9,11.5,11.5,0,0,0-4.1.8A7.4,7.4,0,0,0,66.2,2a9.7,9.7,0,0,0-7.1,3.3,12,12,0,0,0-1.8,2.6A6.3,6.3,0,0,0,54,7h-.4a7.8,7.8,0,0,0-6.1,2.8,11.9,11.9,0,0,0-1-3.2,7.5,7.5,0,0,0-6.4-4.1,6.1,6.1,0,0,0-3.4,1A10.3,10.3,0,0,0,29.1,0ZM21.2,26a9.8,9.8,0,0,0,7.1-3.2,13.4,13.4,0,0,0,2.2-3.6,7.7,7.7,0,0,0,1.8,4.5,9.6,9.6,0,0,0,1.8,1.7,7.8,7.8,0,0,0-1.6,3.3,11.4,11.4,0,0,0-6.9,8.5,15.9,15.9,0,0,0-5.5,2.2A9.5,9.5,0,0,0,16.3,35a10.9,10.9,0,0,0-.3-7.3,8.2,8.2,0,0,0,2.5-2.1,8.4,8.4,0,0,0,2.7.4ZM78.1,39.5a13.1,13.1,0,0,0,2.7-1.9v.9A15.2,15.2,0,0,0,82,42.8a11.6,11.6,0,0,0-2.8,2.6,9.4,9.4,0,0,0-1.1-5.9Zm-36.3-1h.3a11.2,11.2,0,0,0,1.4,4A8,8,0,0,0,48.6,46a8.2,8.2,0,0,0,2.1,3.6,11.2,11.2,0,0,0-2,6.4,15.8,15.8,0,0,0-7.8,4,8.6,8.6,0,0,0,.4-5.5,11.3,11.3,0,0,0-7.2-7.4v-.3a7.8,7.8,0,0,0,5.7-3.2,10.4,10.4,0,0,0,2-5.1ZM62.5,49l.3-.5h1.9a9,9,0,0,0,1.9,2,10,10,0,0,0-.8,5.6,7.8,7.8,0,0,0,3.4,5.2,8,8,0,0,0-.8,5A7,7,0,0,0,70.1,70a11.3,11.3,0,0,0-1.6,6.4,10.1,10.1,0,0,0,2.3,5.7h0a16,16,0,0,0-1.1,9.1v.2a12.2,12.2,0,0,0-3.6,3.2,5.1,5.1,0,0,0-1.6-1.3,8.2,8.2,0,0,0-.1-7,10.5,10.5,0,0,0-6.2-5.3,7.4,7.4,0,0,0-.1-2.1,8.7,8.7,0,0,0-2.4-4.9,15.3,15.3,0,0,0,2.8-9.7,8,8,0,0,0,6-6,10.7,10.7,0,0,0-2-9.4Zm-39,10a7.6,7.6,0,0,0,2.1-.3.8.8,0,0,0,.2.4,14.1,14.1,0,0,0-1.7,1.8,9.5,9.5,0,0,0-1.5-2Zm12.8,5.4a7.8,7.8,0,0,0,2-1.1h.1a7.7,7.7,0,0,0-.7,1.6A18.7,18.7,0,0,0,37,67l-.7-.2a9.6,9.6,0,0,0,0-2.4ZM21,73.2l.9-.5A9.7,9.7,0,0,0,24,70.8a7,7,0,0,0,2.9,2.1,13,13,0,0,0,1.3,9l-1.3.9v-.2a10.4,10.4,0,0,0-5.8-8,6.6,6.6,0,0,0-.1-1.4Z" style="fill:#204212"/><path d="M50.4,31.6c-.3,1-2.5.2-2.2-.9C51.4,19.5,63.5,5.8,76.4,11.1c24.4,10.1,3.7,58.6,13.9,72.5.6.9,0,1.2-.7.3C79,69.4,98.7,22.1,75.8,12.7,63.9,7.8,53.3,21.3,50.4,31.6Z" style="fill:#4d946d;fill-rule:evenodd"/><path d="M86.4,70.2c-6.8,8.3.3,18.5,6.8,14.7S95.9,71.1,86.4,70.2Z" style="fill:#4a8c32;fill-rule:evenodd"/><path d="M86.8,70.1c-.1-.4-.8-.1-.8.5.1,5.3,2.8,9.2,6.2,13.3.2.2.4.1.3-.1A27.8,27.8,0,0,1,86.8,70.1Z" style="fill:#4d946d;fill-rule:evenodd"/><path d="M86.9,54.1c8.6.8,10.4,10.5,4.6,12.1S82.1,60.1,86.9,54.1Z" style="fill:#4a8c32;fill-rule:evenodd"/><path d="M86.6,54.3c-.2-.2.4-.5.8-.2,2.9,3.1,3.6,6.8,4.1,11,0,.2-.2.3-.2.1A23.4,23.4,0,0,0,86.6,54.3Z" style="fill:#428761;fill-rule:evenodd"/><path d="M42.1,29.7c1.1-.1,1.2,2.1.1,2.1C7,33,63.8,111.5,19.8,136.7c-1,.5-1.4-.2-.5-.7C62.1,111.5,3.8,30.9,42.1,29.7Z" style="fill:#4d946d;fill-rule:evenodd"/><path d="M27,130.6c1,6.9-6.4,10.2-8.8,6S21.3,127.9,27,130.6Z" style="fill:#4a8c32;fill-rule:evenodd"/><path d="M26.7,130.4c.2-.2.5.2.3.6-1.8,2.9-4.6,4.2-7.9,5.3-.1.1-.2-.1-.1-.1A17.5,17.5,0,0,0,26.7,130.4Z" style="fill:#4d946d;fill-rule:evenodd"/><path d="M32.3,119.9c-8.6,2.8-8.2,13.1-2,13.4S38.5,124.9,32.3,119.9Z" style="fill:#9be3bb;fill-rule:evenodd"/><path d="M32.6,120.1c.1-.4-.6-.5-.8-.1-2.3,3.8-2.3,7.7-1.7,12.2,0,.2.2.2.2,0A23.1,23.1,0,0,1,32.6,120.1Z" style="fill:#4d946d;fill-rule:evenodd"/><path d="M36.2,107.1c5.6,9.2-2.9,18.3-8.8,13.7S26.6,106.7,36.2,107.1Z" style="fill:#4a8c32;fill-rule:evenodd"/><path d="M35.7,107c.2-.4.9,0,.8.6-.9,5.2-4,8.7-8,12.3-.2.2-.4,0-.2-.1A28,28,0,0,0,35.7,107Z" style="fill:#4d946d;fill-rule:evenodd"/><path d="M35.4,92.1c-9.1,8.8-2.3,21.5,5.8,18.1S46.3,94.5,35.4,92.1Z" style="fill:#2e5b1d;fill-rule:evenodd"/><path d="M35.9,92.1c-.1-.5-1-.3-1.1.4-.6,6.2,2,11.1,5.4,16.4.1.3.4.1.3-.1C37.1,102.5,36.1,98.5,35.9,92.1Z" style="fill:#428761;fill-rule:evenodd"/><path d="M34.8,82.8c-8.9.5-11.3,10.5-5.3,12.5S39.6,89.3,34.8,82.8Z" style="fill:#9be3bb;fill-rule:evenodd"/><path d="M35.1,83.1c.2-.3-.4-.6-.7-.3-3.3,3.1-4.2,6.9-4.9,11.3,0,.2.2.3.3.1A23,23,0,0,1,35.1,83.1Z" style="fill:#4d946d;fill-rule:evenodd"/><path d="M31.8,69c10.8.2,13.9,12.2,6.9,14.7S26.4,76.9,31.8,69Z" style="fill:#4a8c32;fill-rule:evenodd"/><path d="M31.5,69.3c-.3-.3.4-.7.9-.3,3.9,3.5,5.2,8.1,6.1,13.4.1.2-.2.3-.2,0A27.9,27.9,0,0,0,31.5,69.3Z" style="fill:#4d946d;fill-rule:evenodd"/><path d="M30.4,59.8c5.5,4.3,2.6,11.8-2.1,10.4S24.5,61.9,30.4,59.8Z" style="fill:#4a8c32;fill-rule:evenodd"/><path d="M30.1,59.9c0-.3.5-.2.6.1.7,3.4-.4,6.3-1.9,9.4-.1.2-.3.1-.2,0A17.8,17.8,0,0,0,30.1,59.9Z" style="fill:#4d946d;fill-rule:evenodd"/><path d="M29.5,49.3c-4.9,7.6,2,15.3,7,11.6S37.5,49.2,29.5,49.3Z" style="fill:#9be3bb;fill-rule:evenodd"/><path d="M29.8,49.2c0-.3-.7,0-.6.5.6,4.4,3.2,7.4,6.4,10.5.1.1.3,0,.2-.2A24.3,24.3,0,0,1,29.8,49.2Z" style="fill:#4d946d;fill-rule:evenodd"/><path d="M29.1,39.9c6.1,9.9-2.9,19.6-9.2,14.8S18.9,39.6,29.1,39.9Z" style="fill:#4a8c32;fill-rule:evenodd"/><path d="M28.7,39.9c.1-.5.9-.1.8.5-.9,5.7-4.3,9.4-8.5,13.3-.2.2-.4,0-.2-.2A29.2,29.2,0,0,0,28.7,39.9Z" style="fill:#4d946d;fill-rule:evenodd"/><path d="M36,30.7c-8.9,1.7-9.7,12-3.6,13.1S41.6,36.4,36,30.7Z" style="fill:#72b75b;fill-rule:evenodd"/><path d="M36.2,30.9c.2-.3-.4-.5-.7-.2-2.8,3.5-3.2,7.4-3.2,11.9,0,.2.3.2.3.1A23.8,23.8,0,0,1,36.2,30.9Z" style="fill:#4d946d;fill-rule:evenodd"/><path d="M57.9,31.8c-1-.3-.4-2.5.7-2.2C81.5,37.2,78.9,57.6,76,81c-3.1,25-6.6,52.9,21,69.8.9.6.4,1.3-.6.7C67.9,134,70.8,106.2,74,80.7,76.8,58,79.5,39,57.9,31.8Z" style="fill:#4d946d;fill-rule:evenodd"/><path d="M91.1,146.6c-.9,8.9,8.7,12.8,11.5,7.2S98.2,142.9,91.1,146.6Z" style="fill:#9be3bb;fill-rule:evenodd"/><path d="M91.4,146.4c-.2-.3-.6.3-.3.7,2.5,3.6,6.1,5.1,10.4,6.4.2.1.3-.1.1-.2A22.6,22.6,0,0,1,91.4,146.4Z" style="fill:#4d946d;fill-rule:evenodd"/><path d="M81.4,138.8c2.2,12.2,16.3,13.6,17.9,5.2S89.4,131.3,81.4,138.8Z" style="fill:#4a8c32;fill-rule:evenodd"/><path d="M81.7,138.5c-.4-.3-.8.6-.2,1,4.7,3.9,10,4.5,16.2,4.6.3,0,.3-.3,0-.3C90.8,143.1,87,141.8,81.7,138.5Z" style="fill:#4d946d;fill-rule:evenodd"/><path d="M78.1,131.3c-9.3,5.1-6.6,16.9.7,16S86.4,135.7,78.1,131.3Z" style="fill:#9be3bb;fill-rule:evenodd"/><path d="M78.5,131.5c.1-.5-.7-.5-.9.1-1.9,4.8-.9,9.4.7,14.4a.1.1,0,0,0,.3,0A27.5,27.5,0,0,1,78.5,131.5Z" style="fill:#4d946d;fill-rule:evenodd"/><path d="M75.5,127.7c2,8.8,12.2,9.4,13.2,3.2S81,122,75.5,127.7Z" style="fill:#72b75b;fill-rule:evenodd"/><path d="M75.7,127.4c-.3-.1-.5.5-.1.8,3.5,2.6,7.4,2.9,11.9,2.8.2,0,.2-.2,0-.2A24,24,0,0,1,75.7,127.4Z" style="fill:#4d946d;fill-rule:evenodd"/><path d="M71,111.9c11,5.5,8.5,19.5-.1,18.6S61.5,117.5,71,111.9Z" style="fill:#4a8c32;fill-rule:evenodd"/><path d="M70.5,112.1c-.1-.5.8-.5,1.1.1,2.4,5.6,1.5,10.9-.1,16.8-.1.3-.4.3-.4,0A31,31,0,0,0,70.5,112.1Z" style="fill:#4d946d;fill-rule:evenodd"/><path d="M72.7,103.6c-4.8,7.6,2.1,15.3,7.1,11.5S80.7,103.4,72.7,103.6Z" style="fill:#9be3bb;fill-rule:evenodd"/><path d="M73.1,103.5c-.1-.3-.7,0-.7.5.7,4.4,3.3,7.3,6.5,10.4.2.1.4,0,.2-.2A22.6,22.6,0,0,1,73.1,103.5Z" style="fill:#4d946d;fill-rule:evenodd"/><path d="M74.4,92.8c6.4,6.4,1.4,15.4-4.3,12.9S66.6,94.5,74.4,92.8Z" style="fill:#2e5b1d;fill-rule:evenodd"/><path d="M74.1,92.9c0-.4.7-.2.7.3.3,4.4-1.5,7.9-4,11.6-.1.1-.3,0-.2-.1A24.3,24.3,0,0,0,74.1,92.9Z" style="fill:#4d946d;fill-rule:evenodd"/><path d="M74.9,80.7c-7,10.8,2.6,21.9,9.8,16.7S86.3,80.7,74.9,80.7Z" style="fill:#4a8c32;fill-rule:evenodd"/><path d="M75.4,80.7c-.1-.5-1-.1-.9.6.8,6.2,4.4,10.5,8.9,15,.2.2.5,0,.3-.2A33.9,33.9,0,0,1,75.4,80.7Z" style="fill:#428761;fill-rule:evenodd"/><path d="M76.3,68.1c-7.8,4.5-5.2,14.5,1,13.5S83.5,71.6,76.3,68.1Z" style="fill:#4a8c32;fill-rule:evenodd"/><path d="M76.6,68.2c.1-.4-.6-.4-.7.1-1.5,4.1-.5,8,.9,12.2.1.2.3.2.3,0A22.6,22.6,0,0,1,76.6,68.2Z" style="fill:#4d946d;fill-rule:evenodd"/><path d="M86.7,63.3c5.6,4.3,2.6,11.8-2.1,10.4S80.8,65.4,86.7,63.3Z" style="fill:#72b75b;fill-rule:evenodd"/><path d="M86.4,63.4c0-.3.6-.2.6.2.7,3.3-.3,6.2-1.9,9.3-.1.2-.2.1-.2,0A17.8,17.8,0,0,0,86.4,63.4Z" style="fill:#4d946d;fill-rule:evenodd"/><path d="M77,57.3c-3.6,8.2,4.3,14.8,8.7,10.4S84.9,56,77,57.3Z" style="fill:#9be3bb;fill-rule:evenodd"/><path d="M77.3,57.2c-.1-.4-.7,0-.5.5,1.2,4.2,4.2,6.8,7.9,9.4.1.1.3,0,.2-.2A23.3,23.3,0,0,1,77.3,57.2Z" style="fill:#4d946d;fill-rule:evenodd"/><path d="M76.3,58.8c5.5,4.2,2.6,11.7-2.1,10.3S70.4,60.8,76.3,58.8Z" style="fill:#72b75b;fill-rule:evenodd"/><path d="M76,58.8c0-.3.5-.2.6.2.7,3.3-.4,6.2-1.9,9.4-.1.1-.3,0-.2-.1A17.8,17.8,0,0,0,76,58.8Z" style="fill:#4d946d;fill-rule:evenodd"/><path d="M76.1,46.5c6.4,6.4,1.4,15.4-4.3,12.8S68.3,48.1,76.1,46.5Z" style="fill:#4a8c32;fill-rule:evenodd"/><path d="M75.7,46.5c.1-.3.7-.2.8.3.3,4.4-1.6,7.9-4,11.6-.1.2-.4.1-.3-.1A21.8,21.8,0,0,0,75.7,46.5Z" style="fill:#4d946d;fill-rule:evenodd"/><path d="M67.7,36.4c9,.5,11.3,10.5,5.4,12.4S63,42.8,67.7,36.4Z" style="fill:#72b75b;fill-rule:evenodd"/><path d="M67.5,36.7c-.3-.3.3-.6.7-.3,3.2,3,4.1,6.9,4.8,11.3,0,.2-.2.3-.3.1A22.5,22.5,0,0,0,67.5,36.7Z" style="fill:#4d946d;fill-rule:evenodd"/><path d="M49.4,31.8c-1-.3-.4-2.5.6-2.1,25.9,9.2-20.3,46.5,15,72.5.9.6.3,1-.5.4C28.5,76.1,72.8,40.2,49.4,31.8Z" style="fill:#4d946d;fill-rule:evenodd"/><path d="M56.7,94.7c-3.2,7.4,3.9,13.3,7.8,9.3S63.7,93.5,56.7,94.7Z" style="fill:#9be3bb;fill-rule:evenodd"/><path d="M57,94.6c-.2-.3-.6.1-.5.5,1.1,3.8,3.8,6.1,7.1,8.4.2.1.3-.1.2-.2A20.8,20.8,0,0,1,57,94.6Z" style="fill:#4d946d;fill-rule:evenodd"/><path d="M51.3,83.9c-2.6,8.6,6,14.2,9.8,9.3S58.9,81.6,51.3,83.9Z" style="fill:#72b75b;fill-rule:evenodd"/><path d="M51.6,83.8c-.2-.3-.7.1-.5.6,1.7,4,5,6.2,9,8.3.2.1.3-.1.1-.2A23.1,23.1,0,0,1,51.6,83.8Z" style="fill:#4d946d;fill-rule:evenodd"/><path d="M50.3,74c-5.6,4.3-2.6,11.8,2.1,10.4S56.2,76.1,50.3,74Z" style="fill:#4a8c32;fill-rule:evenodd"/><path d="M50.6,74.1c0-.3-.6-.2-.6.1-.7,3.4.3,6.3,1.9,9.4.1.1.2.1.2,0A18,18,0,0,1,50.6,74.1Z" style="fill:#4d946d;fill-rule:evenodd"/><path d="M54,58.8c5.6,11.5-5.3,21.4-11.8,15.3S42.7,57.4,54,58.8Z" style="fill:#4a8c32;fill-rule:evenodd"/><path d="M53.5,58.7c.2-.5,1,.1.8.7-1.5,6.1-5.6,10-10.7,13.8-.2.2-.5,0-.2-.2A33.9,33.9,0,0,0,53.5,58.7Z" style="fill:#428761;fill-rule:evenodd"/><path d="M57,48c-8.1,4.1-6,14.2.2,13.6S63.9,52,57,48Z" style="fill:#72b75b;fill-rule:evenodd"/><path d="M57.3,48.1c.1-.3-.6-.3-.8.1-1.7,4.1-1,8,.3,12.3,0,.2.2.1.2-.1A23.2,23.2,0,0,1,57.3,48.1Z" style="fill:#4d946d;fill-rule:evenodd"/><path d="M55.9,35.4c8.1,4,6.3,14.1,0,13.5S49.1,39.4,55.9,35.4Z" style="fill:#2e5b1d;fill-rule:evenodd"/><path d="M55.6,35.5c-.1-.3.6-.4.8,0,1.7,4.1,1.1,8-.1,12.3,0,.2-.2.2-.2,0A24.2,24.2,0,0,0,55.6,35.5Z" style="fill:#4d946d;fill-rule:evenodd"/><path d="M87.8,43.8c5.6,6.5.2,14.6-5,11.8S80.3,44.7,87.8,43.8Z" style="fill:#72b75b;fill-rule:evenodd"/><path d="M87.5,43.8c.1-.4.7-.2.7.3,0,4.2-2,7.4-4.7,10.7-.1.1-.3,0-.2-.1A22.4,22.4,0,0,0,87.5,43.8Z" style="fill:#4d946d;fill-rule:evenodd"/><path d="M87.2,29.5c-7.5,7.7-1.3,18.4,5.4,15.3S96.6,31.3,87.2,29.5Z" style="fill:#4a8c32;fill-rule:evenodd"/><path d="M87.6,29.5c0-.5-.8-.2-.8.3-.4,5.3,1.9,9.5,5,13.9.1.2.4.1.2-.1C89,38.3,88,35,87.6,29.5Z" style="fill:#4d946d;fill-rule:evenodd"/><path d="M85.1,21c-2.9,8.5,5.5,14.4,9.5,9.6S92.8,19,85.1,21Z" style="fill:#9be3bb;fill-rule:evenodd"/><path d="M85.4,20.9c-.2-.3-.7.1-.5.6,1.6,4.1,4.8,6.4,8.7,8.6.2.1.3,0,.1-.2A23,23,0,0,1,85.4,20.9Z" style="fill:#4d946d;fill-rule:evenodd"/><path d="M81.2,14.7c7,3.1,5.8,11.7.5,11.5S75.5,18.4,81.2,14.7Z" style="fill:#72b75b;fill-rule:evenodd"/><path d="M80.9,14.8c-.1-.3.5-.3.7,0,1.6,3.4,1.2,6.7.4,10.4-.1.2-.2.2-.2,0A20,20,0,0,0,80.9,14.8Z" style="fill:#4d946d;fill-rule:evenodd"/><path d="M70,10.6c5.9-6.3,14.6-1.8,12.4,3.7S71.8,18,70,10.6Z" style="fill:#4a8c32;fill-rule:evenodd"/><path d="M70,10.9c-.3,0-.2-.7.3-.7,4.2-.5,7.6,1.2,11.2,3.4.2.1.1.3-.1.2A22.8,22.8,0,0,0,70,10.9Z" style="fill:#428761;fill-rule:evenodd"/><path d="M59.1,15C57.9,6.1,67.3,2,70.3,7.4S66.3,18.5,59.1,15Z" style="fill:#72b75b;fill-rule:evenodd"/><path d="M59.4,15.2c-.2.3-.7-.2-.4-.6,2.4-3.8,6-5.4,10.2-6.9.2,0,.3.2.1.3A23.8,23.8,0,0,0,59.4,15.2Z" style="fill:#4d946d;fill-rule:evenodd"/><path d="M57.9,15.9c7.9-7,18-.4,14.6,6S59.2,25.1,57.9,15.9Z" style="fill:#9be3bb;fill-rule:evenodd"/><path d="M57.9,16.3c-.4-.1-.2-.9.4-.9,5.1,0,9,2.4,13.2,5.6.2.1,0,.4-.2.3A26,26,0,0,0,57.9,16.3Z" style="fill:#4d946d;fill-rule:evenodd"/><path d="M52,23.4c8.5-2.8,8.1-13.1,1.9-13.4S45.8,18.4,52,23.4Z" style="fill:#4a8c32;fill-rule:evenodd"/><path d="M51.7,23.2c-.1.3.5.5.8.1,2.3-3.8,2.2-7.8,1.6-12.2,0-.2-.2-.2-.2,0A24.1,24.1,0,0,1,51.7,23.2Z" style="fill:#4d946d;fill-rule:evenodd"/><path d="M50,30.6c-1.3-9,8.2-13.1,11.2-7.6S57.2,34,50,30.6Z" style="fill:#72b75b;fill-rule:evenodd"/><path d="M50.3,30.7c-.3.3-.7-.2-.4-.6,2.3-3.8,5.9-5.4,10.2-6.9.2,0,.3.2.1.3A23.2,23.2,0,0,0,50.3,30.7Z" style="fill:#4d946d;fill-rule:evenodd"/><path d="M64.2,33c6.6,8.5,18,4,15.9-3.2S67.3,23.9,64.2,33Z" style="fill:#4a8c32;fill-rule:evenodd"/><path d="M64.2,32.6c-.4-.1-.3.8.3.9,5.2,1.1,9.6-.6,14.4-3,.2-.1.1-.4-.1-.3C73.1,32.5,69.7,33,64.2,32.6Z" style="fill:#4d946d;fill-rule:evenodd"/><path d="M62.2,32.1c8.5,2.9,8,13.2,1.8,13.5S55.9,37,62.2,32.1Z" style="fill:#9be3bb;fill-rule:evenodd"/><path d="M61.9,32.3c-.1-.3.5-.5.8-.1C65,36,64.8,40,64.2,44.4c0,.2-.2.2-.2,0A23,23,0,0,0,61.9,32.3Z" style="fill:#4d946d;fill-rule:evenodd"/><path d="M50.5,30.6c5.7-7,15.2-3,13.3,2.9S53,38.2,50.5,30.6Z" style="fill:#4a8c32;fill-rule:evenodd"/><path d="M50.6,31c-.4,0-.3-.7.2-.8,4.4-.8,8,.7,12,2.7.2.1.1.3-.1.3A21.9,21.9,0,0,0,50.6,31Z" style="fill:#4d946d;fill-rule:evenodd"/><path d="M48.4,26.1c.2,1.1-2.1,1.4-2.2.3C44.8,17.3,34,7,24.3,8.5c-32.7,5,8.6,86.5-13.4,97.7-1,.5-1.5-.2-.5-.7C30.7,95.2-10.7,11.9,24,6.5,35.6,4.9,46.9,16.2,48.4,26.1Z" style="fill:#4d946d;fill-rule:evenodd"/><path d="M16.3,98.8c2.4,6.6-4.1,11.4-7.3,7.7S10.2,97.4,16.3,98.8Z" style="fill:#9be3bb;fill-rule:evenodd"/><path d="M16,98.7c.1-.2.6.1.4.5-1.2,3.2-3.6,5.1-6.6,6.9a.1.1,0,1,1-.1-.2A18,18,0,0,0,16,98.7Z" style="fill:#4d946d;fill-rule:evenodd"/><path d="M16.5,86.8C7.7,88.6,6.9,98.9,13,99.9S22.1,92.5,16.5,86.8Z" style="fill:#72b75b;fill-rule:evenodd"/><path d="M16.8,87.1c.2-.4-.5-.6-.8-.2-2.7,3.5-3.1,7.4-3.1,11.9,0,.2.2.2.3,0A22.5,22.5,0,0,1,16.8,87.1Z" style="fill:#4d946d;fill-rule:evenodd"/><path d="M14.3,76.3c8.9-.8,12.6,8.8,7,11.5S10.5,83.3,14.3,76.3Z" style="fill:#2e5b1d;fill-rule:evenodd"/><path d="M14.1,76.6c-.3-.3.2-.7.6-.4,3.6,2.5,5.1,6.2,6.4,10.5,0,.2-.2.3-.2.1A23.2,23.2,0,0,0,14.1,76.6Z" style="fill:#4d946d;fill-rule:evenodd"/><path d="M15.1,68.6c5.5,4.2,2.6,11.7-2.1,10.3S9.2,70.6,15.1,68.6Z" style="fill:#9be3bb;fill-rule:evenodd"/><path d="M14.8,68.6c0-.3.5-.2.6.2.7,3.3-.4,6.2-1.9,9.4-.1.1-.3,0-.2-.1A17.8,17.8,0,0,0,14.8,68.6Z" style="fill:#4d946d;fill-rule:evenodd"/><path d="M13.9,58.2c-5.2,7.4,1.2,15.4,6.4,12S21.8,58.5,13.9,58.2Z" style="fill:#2e5b1d;fill-rule:evenodd"/><path d="M14.2,58.2c-.1-.3-.7-.1-.6.4.3,4.4,2.8,7.5,5.8,10.8.2.1.4,0,.2-.1A23.5,23.5,0,0,1,14.2,58.2Z" style="fill:#4d946d;fill-rule:evenodd"/><path d="M11.5,45C.5,48.5.8,61.7,8.8,62.2S19.4,51.5,11.5,45Z" style="fill:#4a8c32;fill-rule:evenodd"/><path d="M11.9,45.2c.2-.4-.7-.6-1-.1-3,4.8-3,9.9-2.4,15.6.1.3.4.3.4,0A29.6,29.6,0,0,1,11.9,45.2Z" style="fill:#4d946d;fill-rule:evenodd"/><path d="M10.3,36.2c-4.5,6.4,1.1,13.4,5.6,10.4S17.2,36.4,10.3,36.2Z" style="fill:#9be3bb;fill-rule:evenodd"/><path d="M10.6,36.2c-.1-.3-.7-.1-.6.3.4,3.9,2.5,6.6,5.2,9.4.1.1.3,0,.2-.1A20.3,20.3,0,0,1,10.6,36.2Z" style="fill:#4d946d;fill-rule:evenodd"/><path d="M10.3,24.7c6.8,5.9,2.4,15.3-3.4,13.2S2.6,26.9,10.3,24.7Z" style="fill:#4a8c32;fill-rule:evenodd"/><path d="M10,24.8c0-.4.6-.2.7.2.7,4.4-1,8-3.2,11.9-.1.2-.3.1-.2-.1A23.9,23.9,0,0,0,10,24.8Z" style="fill:#428761;fill-rule:evenodd"/><path d="M15.3,12.9C6.4,13.9,4.7,24,10.7,25.6S20.4,19,15.3,12.9Z" style="fill:#9be3bb;fill-rule:evenodd"/><path d="M15.6,13.1c.2-.3-.4-.6-.8-.2-3,3.2-3.7,7.1-4.1,11.6a.1.1,0,0,0,.3,0A23.7,23.7,0,0,1,15.6,13.1Z" style="fill:#4d946d;fill-rule:evenodd"/><path d="M20.5,7.6c-2.7,8.6-13,8.3-13.4,2.1S15.4,1.4,20.5,7.6Z" style="fill:#2e5b1d;fill-rule:evenodd"/><path d="M20.3,7.3c.3-.2.5.5,0,.8-3.7,2.3-7.6,2.3-12.1,1.8a.2.2,0,1,1,0-.3A23.1,23.1,0,0,0,20.3,7.3Z" style="fill:#4d946d;fill-rule:evenodd"/><path d="M26.3,7.2C15,7.4,11.6,19.9,18.9,22.6S31.9,15.5,26.3,7.2Z" style="fill:#72b75b;fill-rule:evenodd"/><path d="M26.6,7.5c.3-.3-.5-.7-.9-.3-4.2,3.6-5.6,8.4-6.6,13.9-.1.3.2.4.3.1A29.2,29.2,0,0,1,26.6,7.5Z" style="fill:#4d946d;fill-rule:evenodd"/><path d="M37,11.3C36.2,2.4,26.1.5,24.4,6.5S30.8,16.3,37,11.3Z" style="fill:#2e5b1d;fill-rule:evenodd"/><path d="M36.8,11.6c.3.2.6-.4.2-.8-3.1-3-7-3.8-11.5-4.3-.2,0-.2.2,0,.2A23.7,23.7,0,0,1,36.8,11.6Z" style="fill:#4d946d;fill-rule:evenodd"/><path d="M43,15.5c4.2-5.7-.8-12-4.9-9.4S36.8,15.2,43,15.5Z" style="fill:#9be3bb;fill-rule:evenodd"/><path d="M42.7,15.5c.1.3.6.1.5-.3-.2-3.4-2.1-5.9-4.4-8.5-.1-.1-.3,0-.2.1A17.9,17.9,0,0,1,42.7,15.5Z" style="fill:#4d946d;fill-rule:evenodd"/><path d="M46.6,21.5c-1.5-8.9-11.7-10-13-3.9S40.7,26.9,46.6,21.5Z" style="fill:#72b75b;fill-rule:evenodd"/><path d="M46.4,21.8c.3.2.5-.5.1-.8-3.3-2.8-7.3-3.3-11.7-3.5-.2,0-.3.3-.1.3A22.8,22.8,0,0,1,46.4,21.8Z" style="fill:#4d946d;fill-rule:evenodd"/><path d="M49.1,30.5c5.6-4.3,2.6-11.7-2-10.4S43.3,28.5,49.1,30.5Z" style="fill:#9be3bb;fill-rule:evenodd"/><path d="M48.9,30.5c-.1.2.5.2.6-.2.7-3.4-.4-6.3-2-9.4,0-.1-.2-.1-.2.1A18.9,18.9,0,0,1,48.9,30.5Z" style="fill:#4d946d;fill-rule:evenodd"/><path d="M48.9,30.2c-4.5-7.8-14.5-5.3-13.5.9S45.3,37.4,48.9,30.2Z" style="fill:#2e5b1d;fill-rule:evenodd"/><path d="M48.8,30.6c.4,0,.4-.6-.1-.8-4.2-1.5-8-.6-12.2.8-.2.1-.2.3,0,.3A22.5,22.5,0,0,1,48.8,30.6Z" style="fill:#4d946d;fill-rule:evenodd"/><path d="M49.3,29.7c8.4,3.5,7.1,13.7.9,13.5S42.7,34.2,49.3,29.7Z" style="fill:#72b75b;fill-rule:evenodd"/><path d="M49,29.8c-.1-.3.6-.4.8,0,2,4,1.6,7.9.7,12.3,0,.2-.3.2-.2,0A24,24,0,0,0,49,29.8Z" style="fill:#4d946d;fill-rule:evenodd"/></g></g></svg>