<svg xmlns="http://www.w3.org/2000/svg" viewBox="0 0 95.7 75.9"><g id="Layer_2" data-name="Layer 2"><g id="Layer_1-2" data-name="Layer 1"><path d="M53,52.6l1.2,5.9a1,1,0,0,0,.9.6h.6a.8.8,0,0,0,.8-.7l1.1-5.8a.8.8,0,0,0-.8-1h-3A.8.8,0,0,0,53,52.6Z" style="fill:#994325"/><path d="M56.8,51.6h-3a.8.8,0,0,0-.8,1l.4,2.2a1.4,1.4,0,0,1,1-.6c1,0,1.7,1.5,1.7,3.4a7.6,7.6,0,0,1-.1,1.5,1.3,1.3,0,0,0,.5-.7l1.1-5.8A.8.8,0,0,0,56.8,51.6Z" style="fill:#832f18;opacity:0.5"/><path d="M85.4,52.6l-1.3,5.9c0,.3-.4.6-.8.6h-.6a.8.8,0,0,1-.8-.7l-1.1-5.8a.8.8,0,0,1,.8-1h3A.8.8,0,0,1,85.4,52.6Z" style="fill:#994325"/><path d="M81.6,51.6h3a.8.8,0,0,1,.8,1l-.5,2.2a1.1,1.1,0,0,0-.9-.6c-1,0-1.7,1.5-1.7,3.4a7.6,7.6,0,0,0,.1,1.5,1.3,1.3,0,0,1-.5-.7l-1.1-5.8A.8.8,0,0,1,81.6,51.6Z" style="fill:#832f18;opacity:0.5"/><path d="M93.1,34.1l-2.3,14a3.1,3.1,0,0,1-.8,1.7c-1.6,1.8-6.3,4.5-19.5,4.7H68.8c-20.2-.3-20.4-6.4-20.4-6.4L46.3,34.9v-.8l14.3.9a139.7,139.7,0,0,0,18.3,0Z" style="fill:#c49537"/><path d="M90,49.8c-1.6,1.8-6.3,4.5-19.5,4.7H68.8c-20.2-.3-20.4-6.4-20.4-6.4L46.3,34.9C49.4,41.2,59.9,55.5,90,49.8Z" style="fill:#8c6013;opacity:0.5"/><path d="M93.1,34.1l-2.3,14a3.1,3.1,0,0,1-.8,1.7c-1.6,1.8-6.3,4.5-19.5,4.7H68.8c-20.2-.3-20.4-6.4-20.4-6.4L46.3,34.9v-.8l14.3.9a139.7,139.7,0,0,0,18.3,0Z" style="fill:none;stroke:#924f28;stroke-miterlimit:10;stroke-width:3px"/><path d="M40.7,56.9c.2-.1,1-1.7.6-1,3.2-8.4-6.7-7.8-7.6-.2-.2,1.2-.9,8,1.4,4.4C37.2,59.1,39.2,58.9,40.7,56.9Z" style="fill:#72b75b;stroke:#4a8c32;stroke-linecap:round;stroke-linejoin:round;stroke-width:3px"/><path d="M47.1,9.8c5,.1,11.2,1.3,15.3,5.3C63.1,5.5,52.5,7.9,47.1,9.8Z" style="fill:#72b75b;stroke:#4a8c32;stroke-linecap:round;stroke-linejoin:round;stroke-width:3px"/><path d="M52.7,55.3h0Z" style="fill:#72b75b;stroke:#4a8c32;stroke-linecap:round;stroke-linejoin:round;stroke-width:3px"/><path d="M25.4,66.5c-1-5.9-5.9,1.3-8.1,3.1.4-.3.4-.2,0,.1,2.8-2,5,1.2,6.5-.7-.1.8,1.4-3.6,1.2-1.2-.1.6.3-.1.4-.9S25.5,66.6,25.4,66.5Z" style="fill:#72b75b;stroke:#4a8c32;stroke-linecap:round;stroke-linejoin:round;stroke-width:3px"/><path d="M32.9,59.2c-1.8-3.4,5.1-9.1,1.3-9.3s-4.3,8.2-2.8,7v.3C31.4,58.2,33.8,62.5,32.9,59.2Z" style="fill:#72b75b;stroke:#4a8c32;stroke-linecap:round;stroke-linejoin:round;stroke-width:3px"/><path d="M77.2,50.1c0,.4-.6-2.1-.4-1.1-6.5-9-14.3,6.5-12.6,12.6,0-2-.4,3.1.9.2-.5.7.5-.8.2-.4s.3-.4.2-.2A17.4,17.4,0,0,1,68,58.3c.5,2.5,1,2.6,3.9-1.6,1-.3.8-3.9,2.1-3.3h-.4l.5.2C76,55.7,77,51.7,77.2,50.1Zm-1.5-2.7Z" style="fill:#72b75b;stroke:#4a8c32;stroke-linecap:round;stroke-linejoin:round;stroke-width:3px"/><path d="M60.3,66A10,10,0,0,0,56,59h0c1.8-3.1-7.1-2.7-3.6-4.2,1-1.6-10.2,2.8-3.1,3.7a35.3,35.3,0,0,1,5.1,2.6h-.2C56.7,61.2,61.2,68,60.3,66Z" style="fill:#72b75b;stroke:#4a8c32;stroke-linecap:round;stroke-linejoin:round;stroke-width:3px"/><path d="M64.1,55.6c2-7,8.8-10.8,4-17.6-1.6-5.7-.8,1.3.4,2.8,3.7,10.5-7.8,1.8-7.2,10,2.3-1.4-.5,2.9-.2,4.2C64.5,54.4,61.9,66.9,64.1,55.6Z" style="fill:#72b75b;stroke:#4a8c32;stroke-linecap:round;stroke-linejoin:round;stroke-width:3px"/><path d="M50.9,33.4a5.5,5.5,0,0,0-2.2-2.6c-4.8-2-13.8,8.9-16.4,12.8.6-1,5.2-1.3,5.8-1.1,3.7,0,3.1-4.1,5.7-1.7,2.2-1.4,3.4-6.2,5-5.5S51.9,35.3,50.9,33.4Z" style="fill:#72b75b;stroke:#4a8c32;stroke-linecap:round;stroke-linejoin:round;stroke-width:3px"/><path d="M65,12.1c1.1,3.8,4.3,5.8,3.7,1.9a12.7,12.7,0,0,1,6.5-6.8H75c22.4-8.9-11.9,2.3-4.8,10,2.9.3,7.1.5,9-2.7.4,1.1,5.1-7.2,1-4.5-.3-.1.7-1.8.3-1.2.8-1.7,1.7-3.4,2.6-5-.5.9-.1.4.1,0-.7,1.2,2.2-3,.7-1.7h-.2a9.6,9.6,0,0,1-3,.3h.1c-1.4-1.2-10.3,2.3-7-.3,0-.4-.6.1-.8.3s-1.1.7-1.4,1.4c-2.7,4.4-1.1-.5-3.1,2,.4-.1-1.7,1.5-.7.7C66.3,8,64.5,9.2,65,12.1Z" style="fill:#72b75b;stroke:#4a8c32;stroke-linecap:round;stroke-linejoin:round;stroke-width:3px"/><path d="M21.4,69.4a.1.1,0,0,0,.1-.1C21.4,69.4,21.3,69.4,21.4,69.4Z" style="fill:#72b75b;stroke:#4a8c32;stroke-linecap:round;stroke-linejoin:round;stroke-width:3px"/><path d="M10.4,71.9c-.4.2-.1-.1-.3,0H9.9C-3.2,65.7.7,79.7,10.4,71.9Z" style="fill:#72b75b;stroke:#4a8c32;stroke-linecap:round;stroke-linejoin:round;stroke-width:3px"/><path d="M52.6,54.7c.2-.1-.2.1-.1,0Z" style="fill:#72b75b;stroke:#4a8c32;stroke-linecap:round;stroke-linejoin:round;stroke-width:3px"/><path d="M94.1,33.7c-2.7-8.2-4.5-21.3-13.5-19.4h.2C75.1,17.1,82.1,22,75,22c-.4-.3-6.2,4.2-2.9,2.7C79.6,16.8,88.8,28,94.1,33.7ZM90.4,19.8Z" style="fill:#72b75b;stroke:#4a8c32;stroke-linecap:round;stroke-linejoin:round;stroke-width:3px"/><path d="M93.6,33.9l-.5-.5h.1c-1.4-1.2-3.2-3.2-4.8-4.9l.2.2c-9.1-12-16.4-2.5-9,3.7C83.7,38.7,86.8,30.8,93.6,33.9Z" style="fill:#72b75b;stroke:#4a8c32;stroke-linecap:round;stroke-linejoin:round;stroke-width:3px"/><path d="M94.2,34.6Z" style="fill:#72b75b;stroke:#4a8c32;stroke-linecap:round;stroke-linejoin:round;stroke-width:3px"/><path d="M82.6,14.4c.1-.1-.2.3-.1.2Z" style="fill:#72b75b;stroke:#4a8c32;stroke-linecap:round;stroke-linejoin:round;stroke-width:3px"/><path d="M71.5,33.8h0Z" style="fill:#72b75b;stroke:#4a8c32;stroke-linecap:round;stroke-linejoin:round;stroke-width:3px"/><path d="M30.9,57.8Z" style="fill:#72b75b;stroke:#4a8c32;stroke-linecap:round;stroke-linejoin:round;stroke-width:3px"/><path d="M66,61.7h0Z" style="fill:#72b75b;stroke:#4a8c32;stroke-linecap:round;stroke-linejoin:round;stroke-width:3px"/><path d="M52.9,55.3Z" style="fill:#72b75b;stroke:#4a8c32;stroke-linecap:round;stroke-linejoin:round;stroke-width:3px"/><path d="M54.5,69h0Z" style="fill:#72b75b;stroke:#4a8c32;stroke-linecap:round;stroke-linejoin:round;stroke-width:3px"/><path d="M58.5,25.1Z" style="fill:#72b75b;stroke:#4a8c32;stroke-linecap:round;stroke-linejoin:round;stroke-width:3px"/><path d="M56.1,36.8Z" style="fill:#72b75b;stroke:#4a8c32;stroke-linecap:round;stroke-linejoin:round;stroke-width:3px"/><path d="M83.4,36.1h0Z" style="fill:#72b75b;stroke:#4a8c32;stroke-linecap:round;stroke-linejoin:round;stroke-width:3px"/><path d="M82.2,13.2h0Z" style="fill:#72b75b;stroke:#4a8c32;stroke-linecap:round;stroke-linejoin:round;stroke-width:3px"/><path d="M25.3,68.9Z" style="fill:#72b75b;stroke:#4a8c32;stroke-linecap:round;stroke-linejoin:round;stroke-width:3px"/><path d="M83.8,1.5h0Z" style="fill:#72b75b;stroke:#4a8c32;stroke-linecap:round;stroke-linejoin:round;stroke-width:3px"/><path d="M71.4,18.1Z" style="fill:#72b75b;stroke:#4a8c32;stroke-linecap:round;stroke-linejoin:round;stroke-width:3px"/><path d="M2,70.3H2Z" style="fill:#72b75b;stroke:#4a8c32;stroke-linecap:round;stroke-linejoin:round;stroke-width:3px"/><path d="M2.2,74.3H2.1C2.2,74.4,2.2,74.4,2.2,74.3Z" style="fill:#72b75b;stroke:#4a8c32;stroke-linecap:round;stroke-linejoin:round;stroke-width:3px"/><path d="M1.6,74.4Z" style="fill:#72b75b;stroke:#4a8c32;stroke-linecap:round;stroke-linejoin:round;stroke-width:3px"/><path d="M76.4,21.6Z" style="fill:#72b75b;stroke:#4a8c32;stroke-linecap:round;stroke-linejoin:round;stroke-width:3px"/><path d="M69.6,22.7Z" style="fill:#72b75b;stroke:#4a8c32;stroke-linecap:round;stroke-linejoin:round;stroke-width:3px"/><path d="M68.1,21.4Z" style="fill:#72b75b;stroke:#4a8c32;stroke-linecap:round;stroke-linejoin:round;stroke-width:3px"/><path d="M70.4,18c-2.1-.9-2.8,4.7-1,6s-.4-2.1-.5-2.4S69.4,19.2,70.4,18Z" style="fill:#72b75b;stroke:#4a8c32;stroke-linecap:round;stroke-linejoin:round;stroke-width:3px"/><path d="M68,37.5h-.1C68,37.6,68,37.6,68,37.5Z" style="fill:#72b75b;stroke:#4a8c32;stroke-linecap:round;stroke-linejoin:round;stroke-width:3px"/><path d="M67.7,38.9Z" style="fill:#72b75b;stroke:#4a8c32;stroke-linecap:round;stroke-linejoin:round;stroke-width:3px"/><path d="M69.4,41.2Z" style="fill:#72b75b;stroke:#4a8c32;stroke-linecap:round;stroke-linejoin:round;stroke-width:3px"/><path d="M61.1,58Z" style="fill:#72b75b;stroke:#4a8c32;stroke-linecap:round;stroke-linejoin:round;stroke-width:3px"/><path d="M60.5,59.4Z" style="fill:#72b75b;stroke:#4a8c32;stroke-linecap:round;stroke-linejoin:round;stroke-width:3px"/><path d="M62.2,57.5c-.3-1.2-1.6,1.4-1.9,1.2C54.3,60.6,61.6,60.3,62.2,57.5Z" style="fill:#72b75b;stroke:#4a8c32;stroke-linecap:round;stroke-linejoin:round;stroke-width:3px"/><path d="M44.3,58.4Z" style="fill:#72b75b;stroke:#4a8c32;stroke-linecap:round;stroke-linejoin:round;stroke-width:3px"/><path d="M43.1,59.1Z" style="fill:#72b75b;stroke:#4a8c32;stroke-linecap:round;stroke-linejoin:round;stroke-width:3px"/><path d="M43.4,59.1h.1c2.2.4,2.1-1-.1-.7.1.3-3.5-2.1-2.1-.3A18.9,18.9,0,0,0,43.4,59.1Z" style="fill:#72b75b;stroke:#4a8c32;stroke-linecap:round;stroke-linejoin:round;stroke-width:3px"/><path d="M15.7,68.3Z" style="fill:#72b75b;stroke:#4a8c32;stroke-linecap:round;stroke-linejoin:round;stroke-width:3px"/><path d="M17.5,68c-1.7-.9-8.4,4.6-5.4,3.2C13.5,69,16.2,69.8,17.5,68Z" style="fill:#72b75b;stroke:#4a8c32;stroke-linecap:round;stroke-linejoin:round;stroke-width:3px"/><path d="M27.9,58.1h0Z" style="fill:#72b75b;stroke:#4a8c32;stroke-linecap:round;stroke-linejoin:round;stroke-width:3px"/><path d="M29.9,56.9c-2.3-.6-5.5,8.4-3.7,6.6A15.8,15.8,0,0,1,29.9,56.9Z" style="fill:#72b75b;stroke:#4a8c32;stroke-linecap:round;stroke-linejoin:round;stroke-width:3px"/><path d="M44.6,8.9Z" style="fill:#72b75b;stroke:#4a8c32;stroke-linecap:round;stroke-linejoin:round;stroke-width:3px"/><path d="M44.6,8.9Z" style="fill:#72b75b;stroke:#4a8c32;stroke-linecap:round;stroke-linejoin:round;stroke-width:3px"/><path d="M44.7,8.9Z" style="fill:#72b75b;stroke:#4a8c32;stroke-linecap:round;stroke-linejoin:round;stroke-width:3px"/><path d="M32.6,36.9h0Z" style="fill:#72b75b;stroke:#4a8c32;stroke-linecap:round;stroke-linejoin:round;stroke-width:3px"/><path d="M32.4,39.4h0Z" style="fill:#72b75b;stroke:#4a8c32;stroke-linecap:round;stroke-linejoin:round;stroke-width:3px"/><path d="M45.4,27.8h0Z" style="fill:#72b75b;stroke:#4a8c32;stroke-linecap:round;stroke-linejoin:round;stroke-width:3px"/><path d="M47,27.1Z" style="fill:#72b75b;stroke:#4a8c32;stroke-linecap:round;stroke-linejoin:round;stroke-width:3px"/><path d="M49.5,24.6Z" style="fill:#72b75b;stroke:#4a8c32;stroke-linecap:round;stroke-linejoin:round;stroke-width:3px"/><path d="M54.2,26.7c8,3.2-6.1-5.7-7.8,0C41.2,34.2,50.1,20.9,54.2,26.7Z" style="fill:#72b75b;stroke:#4a8c32;stroke-linecap:round;stroke-linejoin:round;stroke-width:3px"/><path d="M68.5,37.4h0Z" style="fill:#72b75b;stroke:#4a8c32;stroke-linecap:round;stroke-linejoin:round;stroke-width:3px"/><path d="M66.7,39.3Z" style="fill:#72b75b;stroke:#4a8c32;stroke-linecap:round;stroke-linejoin:round;stroke-width:3px"/><path d="M62.4,58.5h-.1A.1.1,0,0,0,62.4,58.5Z" style="fill:#72b75b;stroke:#4a8c32;stroke-linecap:round;stroke-linejoin:round;stroke-width:3px"/><path d="M60.4,57.2Z" style="fill:#72b75b;stroke:#4a8c32;stroke-linecap:round;stroke-linejoin:round;stroke-width:3px"/><path d="M52.7,55.2h0Z" style="fill:#72b75b;stroke:#4a8c32;stroke-linecap:round;stroke-linejoin:round;stroke-width:3px"/><path d="M45.1,9.9h-.2c2.7,2.6,2.1,7.5,6.4,8-.6.1-2.8.5-2,.8,1.9,2.8,8.7-.1,4.9,3.3,4.2,2.2,12-4.9,6.4-7.5h.1a27.4,27.4,0,0,0-5.1-2.7h.2c-3-1.2-7.6-1.1-10.6-1.9.5.2-.1.1-.3,0h.2Z" style="fill:#72b75b;stroke:#4a8c32;stroke-linecap:round;stroke-linejoin:round;stroke-width:3px"/><path d="M59.4,66c-13-16.5-26.7,2.4-3.7,2.1h-.2C56.8,67,60.9,68,59.4,66Z" style="fill:#72b75b;stroke:#4a8c32;stroke-linecap:round;stroke-linejoin:round;stroke-width:3px"/><path d="M31,45.1c1.6-6,8.1-9.3,12.6-13.3,2.7-6.1-8.8-.8-8.3.7s.5-.1.3,0c3-.6,2-.2.2,1.5,1.1-1.3-1.5,1.5-2.4,2.7.5-.5-.5.7-.2.3l-.2.2c-.4.8-1.1,1.6-.6,1.5C35.5,37.3,30.2,43.9,31,45.1Z" style="fill:#72b75b;stroke:#4a8c32;stroke-linecap:round;stroke-linejoin:round;stroke-width:3px"/><path d="M32.6,39.3h0Z" style="fill:#72b75b;stroke:#4a8c32;stroke-linecap:round;stroke-linejoin:round;stroke-width:3px"/><path d="M32.4,39.3Z" style="fill:#72b75b;stroke:#4a8c32;stroke-linecap:round;stroke-linejoin:round;stroke-width:3px"/><path d="M17.8,68.3c1.1-2,6.1-3.9,6.7-6C23.3,56.8,17.4,64,17.8,68.3Z" style="fill:#72b75b;stroke:#4a8c32;stroke-linecap:round;stroke-linejoin:round;stroke-width:3px"/><path d="M52.6,54.6c.1-.1-.2.1-.1,0Z" style="fill:#72b75b;stroke:#4a8c32;stroke-linecap:round;stroke-linejoin:round;stroke-width:3px"/><path d="M59.5,23.6c.7-.5.3-.3-.1,0s-.9.5-.6.7,1.4.2,1,.2-.4.5-.3.3a14.1,14.1,0,0,0-1.8,2.3h0c-2.1,1.7-.8,4.5-1.4,5.1a4.2,4.2,0,0,0-.4,2.7h0c-.6,4.2,2.8-5.9,4.6-6.3,3.8-4.1,14.6-3.8,3.8-1.9A13.6,13.6,0,0,0,59,31.2c-1.5,1.8-3.2,6.7-2.5,7.2,5.8-3.2,16.2-.9,17.6-9.1C71.2,23.5,64,20.3,59.5,23.6ZM56.3,38.5Zm0-.1Zm13.5-13c-.1,0-.1-.1,0-.1Z" style="fill:#72b75b;stroke:#4a8c32;stroke-linecap:round;stroke-linejoin:round;stroke-width:3px"/><path d="M94.2,34.5Z" style="fill:#72b75b;stroke:#4a8c32;stroke-linecap:round;stroke-linejoin:round;stroke-width:3px"/><path d="M82.6,14.3l-.2.2Z" style="fill:#72b75b;stroke:#4a8c32;stroke-linecap:round;stroke-linejoin:round;stroke-width:3px"/><path d="M40.7,56.9c.2-.1,1-1.7.6-1,3.2-8.4-6.7-7.8-7.6-.2-.2,1.2-.9,8,1.4,4.4C37.2,59.1,39.2,58.9,40.7,56.9Z" style="fill:#72b75b;stroke:#4a8c32;stroke-linecap:round;stroke-linejoin:round"/><path d="M47.1,9.8c5,.1,11.2,1.3,15.3,5.3C63.1,5.5,52.5,7.9,47.1,9.8Z" style="fill:#72b75b;stroke:#4a8c32;stroke-linecap:round;stroke-linejoin:round"/><path d="M52.7,55.3h0Z" style="fill:#72b75b;stroke:#4a8c32;stroke-linecap:round;stroke-linejoin:round"/><path d="M25.4,66.5c-1-5.9-5.9,1.3-8.1,3.1.4-.3.4-.2,0,.1,2.8-2,5,1.2,6.5-.7-.1.8,1.4-3.6,1.2-1.2-.1.6.3-.1.4-.9S25.5,66.6,25.4,66.5Z" style="fill:#72b75b;stroke:#4a8c32;stroke-linecap:round;stroke-linejoin:round"/><path d="M32.9,59.2c-1.8-3.4,5.1-9.1,1.3-9.3s-4.3,8.2-2.8,7v.3C31.4,58.2,33.8,62.5,32.9,59.2Z" style="fill:#72b75b;stroke:#4a8c32;stroke-linecap:round;stroke-linejoin:round"/><path d="M77.2,50.1c0,.4-.6-2.1-.4-1.1-6.5-9-14.3,6.5-12.6,12.6,0-2-.4,3.1.9.2-.5.7.5-.8.2-.4s.3-.4.2-.2A17.4,17.4,0,0,1,68,58.3c.5,2.5,1,2.6,3.9-1.6,1-.3.8-3.9,2.1-3.3h-.4l.5.2C76,55.7,77,51.7,77.2,50.1Zm-1.5-2.7Z" style="fill:#72b75b;stroke:#4a8c32;stroke-linecap:round;stroke-linejoin:round"/><path d="M60.3,66A10,10,0,0,0,56,59h0c1.8-3.1-7.1-2.7-3.6-4.2,1-1.6-10.2,2.8-3.1,3.7a35.3,35.3,0,0,1,5.1,2.6h-.2C56.7,61.2,61.2,68,60.3,66Z" style="fill:#72b75b;stroke:#4a8c32;stroke-linecap:round;stroke-linejoin:round"/><path d="M64.1,55.6c2-7,8.8-10.8,4-17.6-1.6-5.7-.8,1.3.4,2.8,3.7,10.5-7.8,1.8-7.2,10,2.3-1.4-.5,2.9-.2,4.2C64.5,54.4,61.9,66.9,64.1,55.6Z" style="fill:#72b75b;stroke:#4a8c32;stroke-linecap:round;stroke-linejoin:round"/><path d="M50.9,33.4a5.5,5.5,0,0,0-2.2-2.6c-4.8-2-13.8,8.9-16.4,12.8.6-1,5.2-1.3,5.8-1.1,3.7,0,3.1-4.1,5.7-1.7,2.2-1.4,3.4-6.2,5-5.5S51.9,35.3,50.9,33.4Z" style="fill:#72b75b;stroke:#4a8c32;stroke-linecap:round;stroke-linejoin:round"/><path d="M65,12.1c1.1,3.8,4.3,5.8,3.7,1.9a12.7,12.7,0,0,1,6.5-6.8H75c22.4-8.9-11.9,2.3-4.8,10,2.9.3,7.1.5,9-2.7.4,1.1,5.1-7.2,1-4.5-.3-.1.7-1.8.3-1.2.8-1.7,1.7-3.4,2.6-5-.5.9-.1.4.1,0-.7,1.2,2.2-3,.7-1.7h-.2a9.6,9.6,0,0,1-3,.3h.1c-1.4-1.2-10.3,2.3-7-.3,0-.4-.6.1-.8.3s-1.1.7-1.4,1.4c-2.7,4.4-1.1-.5-3.1,2,.4-.1-1.7,1.5-.7.7C66.3,8,64.5,9.2,65,12.1Z" style="fill:#72b75b;stroke:#4a8c32;stroke-linecap:round;stroke-linejoin:round"/><path d="M21.4,69.4a.1.1,0,0,0,.1-.1C21.4,69.4,21.3,69.4,21.4,69.4Z" style="fill:#72b75b;stroke:#4a8c32;stroke-linecap:round;stroke-linejoin:round"/><path d="M10.4,71.9c-.4.2-.1-.1-.3,0H9.9C-3.2,65.7.7,79.7,10.4,71.9Z" style="fill:#72b75b;stroke:#4a8c32;stroke-linecap:round;stroke-linejoin:round"/><path d="M52.6,54.7c.2-.1-.2.1-.1,0Z" style="fill:#72b75b;stroke:#4a8c32;stroke-linecap:round;stroke-linejoin:round"/><path d="M94.1,33.7c-2.7-8.2-4.5-21.3-13.5-19.4h.2C75.1,17.1,82.1,22,75,22c-.4-.3-6.2,4.2-2.9,2.7C79.6,16.8,88.8,28,94.1,33.7ZM90.4,19.8Z" style="fill:#72b75b;stroke:#4a8c32;stroke-linecap:round;stroke-linejoin:round"/><path d="M93.6,33.9l-.5-.5h.1c-1.4-1.2-3.2-3.2-4.8-4.9l.2.2c-9.1-12-16.4-2.5-9,3.7C83.7,38.7,86.8,30.8,93.6,33.9Z" style="fill:#72b75b;stroke:#4a8c32;stroke-linecap:round;stroke-linejoin:round"/><path d="M94.2,34.6Z" style="fill:#72b75b;stroke:#4a8c32;stroke-linecap:round;stroke-linejoin:round"/><path d="M82.6,14.4c.1-.1-.2.3-.1.2Z" style="fill:#72b75b;stroke:#4a8c32;stroke-linecap:round;stroke-linejoin:round"/><path d="M71.5,33.8h0Z" style="fill:#72b75b;stroke:#4a8c32;stroke-linecap:round;stroke-linejoin:round"/><path d="M30.9,57.8Z" style="fill:#72b75b;stroke:#4a8c32;stroke-linecap:round;stroke-linejoin:round"/><path d="M66,61.7h0Z" style="fill:#72b75b;stroke:#4a8c32;stroke-linecap:round;stroke-linejoin:round"/><path d="M52.9,55.3Z" style="fill:#72b75b;stroke:#4a8c32;stroke-linecap:round;stroke-linejoin:round"/><path d="M54.5,69h0Z" style="fill:#72b75b;stroke:#4a8c32;stroke-linecap:round;stroke-linejoin:round"/><path d="M58.5,25.1Z" style="fill:#72b75b;stroke:#4a8c32;stroke-linecap:round;stroke-linejoin:round"/><path d="M56.1,36.8Z" style="fill:#72b75b;stroke:#4a8c32;stroke-linecap:round;stroke-linejoin:round"/><path d="M83.4,36.1h0Z" style="fill:#72b75b;stroke:#4a8c32;stroke-linecap:round;stroke-linejoin:round"/><path d="M82.2,13.2h0Z" style="fill:#72b75b;stroke:#4a8c32;stroke-linecap:round;stroke-linejoin:round"/><path d="M25.3,68.9Z" style="fill:#72b75b;stroke:#4a8c32;stroke-linecap:round;stroke-linejoin:round"/><path d="M83.8,1.5h0Z" style="fill:#72b75b;stroke:#4a8c32;stroke-linecap:round;stroke-linejoin:round"/><path d="M71.4,18.1Z" style="fill:#72b75b;stroke:#4a8c32;stroke-linecap:round;stroke-linejoin:round"/><path d="M2,70.3H2Z" style="fill:#72b75b;stroke:#4a8c32;stroke-linecap:round;stroke-linejoin:round"/><path d="M2.2,74.3H2.1C2.2,74.4,2.2,74.4,2.2,74.3Z" style="fill:#72b75b;stroke:#4a8c32;stroke-linecap:round;stroke-linejoin:round"/><path d="M1.6,74.4Z" style="fill:#72b75b;stroke:#4a8c32;stroke-linecap:round;stroke-linejoin:round"/><path d="M76.4,21.6Z" style="fill:#72b75b;stroke:#4a8c32;stroke-linecap:round;stroke-linejoin:round"/><path d="M69.6,22.7Z" style="fill:#72b75b;stroke:#4a8c32;stroke-linecap:round;stroke-linejoin:round"/><path d="M68.1,21.4Z" style="fill:#72b75b;stroke:#4a8c32;stroke-linecap:round;stroke-linejoin:round"/><path d="M70.4,18c-2.1-.9-2.8,4.7-1,6s-.4-2.1-.5-2.4S69.4,19.2,70.4,18Z" style="fill:#72b75b;stroke:#4a8c32;stroke-linecap:round;stroke-linejoin:round"/><path d="M68,37.5h-.1C68,37.6,68,37.6,68,37.5Z" style="fill:#72b75b;stroke:#4a8c32;stroke-linecap:round;stroke-linejoin:round"/><path d="M67.7,38.9Z" style="fill:#72b75b;stroke:#4a8c32;stroke-linecap:round;stroke-linejoin:round"/><path d="M69.4,41.2Z" style="fill:#72b75b;stroke:#4a8c32;stroke-linecap:round;stroke-linejoin:round"/><path d="M61.1,58Z" style="fill:#72b75b;stroke:#4a8c32;stroke-linecap:round;stroke-linejoin:round"/><path d="M60.5,59.4Z" style="fill:#72b75b;stroke:#4a8c32;stroke-linecap:round;stroke-linejoin:round"/><path d="M62.2,57.5c-.3-1.2-1.6,1.4-1.9,1.2C54.3,60.6,61.6,60.3,62.2,57.5Z" style="fill:#72b75b;stroke:#4a8c32;stroke-linecap:round;stroke-linejoin:round"/><path d="M44.3,58.4Z" style="fill:#72b75b;stroke:#4a8c32;stroke-linecap:round;stroke-linejoin:round"/><path d="M43.1,59.1Z" style="fill:#72b75b;stroke:#4a8c32;stroke-linecap:round;stroke-linejoin:round"/><path d="M43.4,59.1h.1c2.2.4,2.1-1-.1-.7.1.3-3.5-2.1-2.1-.3A18.9,18.9,0,0,0,43.4,59.1Z" style="fill:#72b75b;stroke:#4a8c32;stroke-linecap:round;stroke-linejoin:round"/><path d="M15.7,68.3Z" style="fill:#72b75b;stroke:#4a8c32;stroke-linecap:round;stroke-linejoin:round"/><path d="M17.5,68c-1.7-.9-8.4,4.6-5.4,3.2C13.5,69,16.2,69.8,17.5,68Z" style="fill:#72b75b;stroke:#4a8c32;stroke-linecap:round;stroke-linejoin:round"/><path d="M27.9,58.1h0Z" style="fill:#72b75b;stroke:#4a8c32;stroke-linecap:round;stroke-linejoin:round"/><path d="M29.9,56.9c-2.3-.6-5.5,8.4-3.7,6.6A15.8,15.8,0,0,1,29.9,56.9Z" style="fill:#72b75b;stroke:#4a8c32;stroke-linecap:round;stroke-linejoin:round"/><path d="M44.6,8.9Z" style="fill:#72b75b;stroke:#4a8c32;stroke-linecap:round;stroke-linejoin:round"/><path d="M44.6,8.9Z" style="fill:#72b75b;stroke:#4a8c32;stroke-linecap:round;stroke-linejoin:round"/><path d="M44.7,8.9Z" style="fill:#72b75b;stroke:#4a8c32;stroke-linecap:round;stroke-linejoin:round"/><path d="M32.6,36.9h0Z" style="fill:#72b75b;stroke:#4a8c32;stroke-linecap:round;stroke-linejoin:round"/><path d="M32.4,39.4h0Z" style="fill:#72b75b;stroke:#4a8c32;stroke-linecap:round;stroke-linejoin:round"/><path d="M45.4,27.8h0Z" style="fill:#72b75b;stroke:#4a8c32;stroke-linecap:round;stroke-linejoin:round"/><path d="M47,27.1Z" style="fill:#72b75b;stroke:#4a8c32;stroke-linecap:round;stroke-linejoin:round"/><path d="M49.5,24.6Z" style="fill:#72b75b;stroke:#4a8c32;stroke-linecap:round;stroke-linejoin:round"/><path d="M54.2,26.7c8,3.2-6.1-5.7-7.8,0C41.2,34.2,50.1,20.9,54.2,26.7Z" style="fill:#72b75b;stroke:#4a8c32;stroke-linecap:round;stroke-linejoin:round"/><path d="M68.5,37.4h0Z" style="fill:#72b75b;stroke:#4a8c32;stroke-linecap:round;stroke-linejoin:round"/><path d="M66.7,39.3Z" style="fill:#72b75b;stroke:#4a8c32;stroke-linecap:round;stroke-linejoin:round"/><path d="M62.4,58.5h-.1A.1.1,0,0,0,62.4,58.5Z" style="fill:#72b75b;stroke:#4a8c32;stroke-linecap:round;stroke-linejoin:round"/><path d="M60.4,57.2Z" style="fill:#72b75b;stroke:#4a8c32;stroke-linecap:round;stroke-linejoin:round"/><path d="M52.7,55.2h0Z" style="fill:#72b75b;stroke:#4a8c32;stroke-linecap:round;stroke-linejoin:round"/><path d="M45.1,9.9h-.2c2.7,2.6,2.1,7.5,6.4,8-.6.1-2.8.5-2,.8,1.9,2.8,8.7-.1,4.9,3.3,4.2,2.2,12-4.9,6.4-7.5h.1a27.4,27.4,0,0,0-5.1-2.7h.2c-3-1.2-7.6-1.1-10.6-1.9.5.2-.1.1-.3,0h.2Z" style="fill:#72b75b;stroke:#4a8c32;stroke-linecap:round;stroke-linejoin:round"/><path d="M59.4,66c-13-16.5-26.7,2.4-3.7,2.1h-.2C56.8,67,60.9,68,59.4,66Z" style="fill:#72b75b;stroke:#4a8c32;stroke-linecap:round;stroke-linejoin:round"/><path d="M31,45.1c1.6-6,8.1-9.3,12.6-13.3,2.7-6.1-8.8-.8-8.3.7s.5-.1.3,0c3-.6,2-.2.2,1.5,1.1-1.3-1.5,1.5-2.4,2.7.5-.5-.5.7-.2.3l-.2.2c-.4.8-1.1,1.6-.6,1.5C35.5,37.3,30.2,43.9,31,45.1Z" style="fill:#72b75b;stroke:#4a8c32;stroke-linecap:round;stroke-linejoin:round"/><path d="M32.6,39.3h0Z" style="fill:#72b75b;stroke:#4a8c32;stroke-linecap:round;stroke-linejoin:round"/><path d="M32.4,39.3Z" style="fill:#72b75b;stroke:#4a8c32;stroke-linecap:round;stroke-linejoin:round"/><path d="M17.8,68.3c1.1-2,6.1-3.9,6.7-6C23.3,56.8,17.4,64,17.8,68.3Z" style="fill:#72b75b;stroke:#4a8c32;stroke-linecap:round;stroke-linejoin:round"/><path d="M52.6,54.6c.1-.1-.2.1-.1,0Z" style="fill:#72b75b;stroke:#4a8c32;stroke-linecap:round;stroke-linejoin:round"/><path d="M59.5,23.6c.7-.5.3-.3-.1,0s-.9.5-.6.7,1.4.2,1,.2-.4.5-.3.3a14.1,14.1,0,0,0-1.8,2.3h0c-2.1,1.7-.8,4.5-1.4,5.1a4.2,4.2,0,0,0-.4,2.7h0c-.6,4.2,2.8-5.9,4.6-6.3,3.8-4.1,14.6-3.8,3.8-1.9A13.6,13.6,0,0,0,59,31.2c-1.5,1.8-3.2,6.7-2.5,7.2,5.8-3.2,16.2-.9,17.6-9.1C71.2,23.5,64,20.3,59.5,23.6ZM56.3,38.5Zm0-.1Zm13.5-13c-.1,0-.1-.1,0-.1Z" style="fill:#72b75b;stroke:#4a8c32;stroke-linecap:round;stroke-linejoin:round"/><path d="M94.2,34.5Z" style="fill:#72b75b;stroke:#4a8c32;stroke-linecap:round;stroke-linejoin:round"/><path d="M82.6,14.3l-.2.2Z" style="fill:#72b75b;stroke:#4a8c32;stroke-linecap:round;stroke-linejoin:round"/></g></g></svg>