<svg id="Layer_1" data-name="Layer 1" xmlns="http://www.w3.org/2000/svg" xmlns:xlink="http://www.w3.org/1999/xlink" viewBox="0 0 490.5 122.5"><defs><clipPath id="clip-path"><path d="M445.3,3.1H6.7V78.3S36,85,45.2,84.6a47.2,47.2,0,0,1,17.5,5.2c2.2,3.8,10.4,7,16.6,9s17.3,4.8,26.3,2.8c6.9-.3,14.1.9,19.1,3.2,2.1,3.8,11.4,6.5,17.8,7.8,8.9,1.9,19.5,2.6,28-.4,6.6-1.1,14.4-.9,20,1.3,2.1,3.6,12.2,5.5,18.7,6.3,9.9,1.2,21.1.1,28.6-3.4,6.1-1.7,14-2.4,20.3-.7,2.2,3.5,12.9,4.4,19.1,4.5,10.5.3,21.3-2.1,28.2-6.1,5.5-2,13.1-3.7,19.9-2.5,2.9,3.3,13.3,2.8,18.8,2.4,10.6-.6,20.7-4.2,27.2-8.6,4.9-2.3,11.8-4.7,18.9-4.4,3.5,2.9,13.2,1,17.8.2a61.7,61.7,0,0,0,25.2-10.9c4.6-2.6,10.5-5.4,17.4-6.2,4,2.1,12.8-1.4,16-2.5,9.2-3.1,15.6-12.8,15.6-12.8V3.1Z" style="fill:none"/></clipPath><clipPath id="clip-path-2"><path d="M450.8,3.1H-.3V78.3S29.8,85,39.4,84.6a49.2,49.2,0,0,1,17.9,5.2c2.3,3.8,10.8,7,17.1,9s17.8,4.8,27.1,2.8c7-.3,14.5.9,19.6,3.2,2.1,3.8,11.7,6.5,18.3,7.8,9.1,1.9,20.1,2.6,28.8-.4,6.8-1.1,14.8-.9,20.6,1.3,2.2,3.6,12.5,5.5,19.2,6.3,10.1,1.2,21.8.1,29.5-3.4,6.2-1.7,14.3-2.4,20.8-.7,2.3,3.5,13.3,4.4,19.6,4.5,10.8.3,22-2.1,29.1-6.1,5.6-2,13.4-3.7,20.4-2.5,3,3.3,13.7,2.8,19.4,2.4,10.9-.6,21.3-4.2,27.9-8.6,5.1-2.3,12.2-4.7,19.5-4.4,3.6,2.9,13.5,1,18.3.2a64.6,64.6,0,0,0,25.9-10.9,46.1,46.1,0,0,1,17.9-6.2c4.1,2.1,13.2-1.4,16.5-2.5,9.4-3.1,16-12.8,16-12.8V3.1Z" style="fill:none"/></clipPath></defs><g id="Layer_2" data-name="Layer 2"><g id="Layer_1-2" data-name="Layer 1-2"><g style="clip-path:url(#clip-path)"><path d="M482.2,3.1V68.8s-6.4,9.7-15.6,12.8c-3.2,1.1-12,4.6-16,2.5q-2.7-40.5-5.3-81Z" style="fill:#f7826b;stroke:#e05353;stroke-miterlimit:10;stroke-width:3px"/><path d="M450.6,84.1c-6.9.8-12.8,3.6-17.4,6.2-4.7-29.1-9.5-58.1-14.3-87.2h26.4Q447.9,43.6,450.6,84.1Z" style="fill:#ed9188;stroke:#e05353;stroke-miterlimit:10;stroke-width:3px"/><path d="M418.9,3.1c4.8,29.1,9.6,58.1,14.3,87.2A61.7,61.7,0,0,1,408,101.2c-4.6.8-14.3,2.7-17.8-.2.3-32.6.5-65.2.8-97.9Z" style="fill:#f7826b;stroke:#e05353;stroke-miterlimit:10;stroke-width:3px"/><path d="M390.2,101c-7.1-.3-14,2.1-18.9,4.4Q362.2,54.2,353.6,3.1H391C390.7,35.8,390.5,68.4,390.2,101Z" style="fill:#ed9188;stroke:#e05353;stroke-miterlimit:10;stroke-width:3px"/><path d="M353.6,3.1q8.5,51.2,17.7,102.3c-6.5,4.4-16.6,8-27.2,8.6-5.5.4-15.9.9-18.8-2.4,1.6-36.2,3-72.3,4.2-108.5Z" style="fill:#f7826b;stroke:#e05353;stroke-miterlimit:10;stroke-width:3px"/><path d="M325.3,111.6c-6.8-1.2-14.4.5-19.9,2.5q-7.3-55.5-14.1-111h38.2C328.3,39.3,326.9,75.4,325.3,111.6Z" style="fill:#ed9188;stroke:#e05353;stroke-miterlimit:10;stroke-width:3px"/><path d="M291.3,3.1q6.8,55.5,14.1,111c-6.9,4-17.7,6.4-28.2,6.2-6.2-.2-16.9-1.1-19.1-4.6q4.5-56.2,8.3-112.6Z" style="fill:#f7826b;stroke:#e05353;stroke-miterlimit:10;stroke-width:3px"/><path d="M258.1,115.7c-6.3-1.7-14.2-1-20.3.7q-6-56.7-11-113.3h39.6Q262.7,59.5,258.1,115.7Z" style="fill:#ed9188;stroke:#e05353;stroke-miterlimit:10;stroke-width:3px"/><path d="M226.8,3.1q5.1,56.7,11,113.3c-7.5,3.5-18.7,4.6-28.6,3.4-6.5-.8-16.6-2.7-18.7-6.3q7.2-55.2,13.7-110.4Z" style="fill:#f7826b;stroke:#e05353;stroke-miterlimit:10;stroke-width:3px"/><path d="M190.5,113.5c-5.6-2.2-13.4-2.4-20-1.3-.8-36.4-1.6-72.7-2.2-109.1h35.9Q197.8,58.3,190.5,113.5Z" style="fill:#ed9188;stroke:#e05353;stroke-miterlimit:10;stroke-width:3px"/><path d="M168.3,3.1c.6,36.4,1.4,72.7,2.2,109.1-8.5,3-19.1,2.3-28,.4-6.4-1.3-15.7-4-17.8-7.8q8.1-51,15.7-101.7Z" style="fill:#f7826b;stroke:#e05353;stroke-miterlimit:10;stroke-width:3px"/><path d="M124.7,104.8c-5-2.3-12.2-3.5-19.1-3.2l-.3-98.5h35.1Q132.8,54,124.7,104.8Z" style="fill:#ed9188;stroke:#e05353;stroke-miterlimit:10;stroke-width:3px"/><path d="M105.3,3.1l.3,98.5c-9,2-19-.4-26.3-2.8s-14.4-5.2-16.6-9L78.9,3.1Z" style="fill:#f7826b;stroke:#e05353;stroke-miterlimit:10;stroke-width:3px"/><path d="M62.7,89.8a47.2,47.2,0,0,0-17.5-5.2c.9-27.2,1.7-54.3,2.4-81.5H78.9Z" style="fill:#ed9188;stroke:#e05353;stroke-miterlimit:10;stroke-width:3px"/><path d="M47.6,3.1c-.7,27.2-1.5,54.3-2.4,81.5C36,85,6.7,78.3,6.7,78.3V3.1Z" style="fill:#f7826b;stroke:#e05353;stroke-miterlimit:10;stroke-width:3px"/><path d="M478.7,10.8V64.1s-5.1,7.9-12.6,10.4c-2.6.9-9.8,3.8-13,2.1-1.5-22-2.9-43.9-4.4-65.8Z" style="fill:#f99a75"/><path d="M417.6,14.1q5.7,35.4,11.6,70.9a51.4,51.4,0,0,1-20.5,8.8c-3.7.7-11.6,2.2-14.5-.1.2-26.6.5-53.1.7-79.6Z" style="fill:#f99a75"/><path d="M352.6,13.5C357.2,41.2,362,69,367,96.7c-5.3,3.5-13.5,6.4-22.1,7-4.5.3-12.9.7-15.3-2,1.3-29.4,2.5-58.8,3.4-88.2Z" style="fill:#f99a75"/><path d="M289.5,14.1c3.6,30.1,7.5,60.1,11.5,90.2-5.6,3.2-14.4,5.2-23,5-5-.1-13.7-.9-15.5-3.7,2.5-30.5,4.7-61,6.8-91.5Z" style="fill:#f99a75"/><path d="M224.4,14.1c2.8,30.7,5.7,61.3,9,92-6.1,2.9-15.3,3.8-23.3,2.8-5.2-.7-13.4-2.2-15.2-5.1q5.8-45,11.1-89.7Z" style="fill:#f99a75"/><path d="M164.4,13.5c.5,29.6,1.1,59.1,1.8,88.7-6.9,2.4-15.5,1.8-22.7.3-5.3-1.1-12.8-3.3-14.5-6.3,4.3-27.6,8.6-55.1,12.7-82.7Z" style="fill:#f99a75"/><path d="M101.3,12.4l.3,80c-7.3,1.7-15.4-.3-21.4-2.2S68.5,86,66.7,82.9L79.9,12.4Z" style="fill:#f99a75"/><path d="M43.8,10.7c-.6,22.1-1.3,44.2-1.9,66.2-7.6.4-31.4-5-31.4-5V10.7Z" style="fill:#f99a75"/><ellipse cx="244.9" cy="3.1" rx="238.2" ry="42.2" style="fill:#ffb0b0;stroke:#e05353;stroke-miterlimit:10;stroke-width:3px"/></g><path d="M445.3,3.1H6.7V78.3S36,85,45.2,84.6a47.2,47.2,0,0,1,17.5,5.2c2.2,3.8,10.4,7,16.6,9s17.3,4.8,26.3,2.8c6.9-.3,14.1.9,19.1,3.2,2.1,3.8,11.4,6.5,17.8,7.8,8.9,1.9,19.5,2.6,28-.4,6.6-1.1,14.4-.9,20,1.3,2.1,3.6,12.2,5.5,18.7,6.3,9.9,1.2,21.1.1,28.6-3.4,6.1-1.7,14-2.4,20.3-.7,2.2,3.5,12.9,4.4,19.1,4.5,10.5.3,21.3-2.1,28.2-6.1,5.5-2,13.1-3.7,19.9-2.5,2.9,3.3,13.3,2.8,18.8,2.4,10.6-.6,20.7-4.2,27.2-8.6,4.9-2.3,11.8-4.7,18.9-4.4,3.5,2.9,13.2,1,17.8.2a61.7,61.7,0,0,0,25.2-10.9c4.6-2.6,10.5-5.4,17.4-6.2,4,2.1,12.8-1.4,16-2.5,9.2-3.1,15.6-12.8,15.6-12.8V3.1Z" style="fill:none;stroke:#e05353;stroke-miterlimit:10;stroke-width:3px"/><g style="clip-path:url(#clip-path-2)"><path d="M414-30.7c-45.2-8-105.2-12.4-169.1-12.4S121-38.7,75.8-30.7c-48.4,8.6-73,20-73,33.8s24.6,25.2,73,33.8c45.2,8,105.3,12.4,169.1,12.4S368.8,44.9,414,36.9c48.4-8.6,73-20,73-33.8S462.4-22.1,414-30.7Zm-169.1,72c-63.4,0-123-4.4-167.8-12.3C24.5,19.7,10.5,8.3,10.5,3.1s14-16.6,66.6-25.9c44.8-7.9,104.4-12.3,167.8-12.3s123,4.4,167.8,12.3c52.6,9.3,66.6,20.7,66.6,25.9s-14,16.6-66.6,25.9c-44.8,7.9-104.4,12.3-167.8,12.3Z" style="fill:#ffdcdc;stroke:#e05353;stroke-miterlimit:10;stroke-width:3px"/></g></g></g></svg>