<svg xmlns="http://www.w3.org/2000/svg" viewBox="0 0 214 456.4"><g style="isolation:isolate"><g id="Layer_2" data-name="Layer 2"><g id="Layer_1-2" data-name="Layer 1"><path d="M92,344.9l12.5,96.8c.2,1.6,2.9,1.6,3.1,0l13.3-96.8" style="fill:none;stroke:#131313;stroke-linecap:round;stroke-linejoin:round;stroke-width:3px"/><path d="M106.8,264.5c19.4,0,35.2,1.6,35.2,3.7a.7.7,0,0,1-.4.6c.8,21.1,2.2,58.4-12.5,79a8.7,8.7,0,0,1-2.8,2.6h-.1l-.8.4c-4.4,2.1-11.1,2.9-18.1,2.9h-1.6c-7,0-13.7-.8-18.1-2.9a9.3,9.3,0,0,1-3.7-3.1C69.1,327,70.7,289.2,71.5,268.2c0-2.1,15.8-3.7,35.3-3.7m0-3a230.8,230.8,0,0,0-25.3,1.1,51,51,0,0,0-8,1.2c-1.5.4-5,1.3-5,4.3v.5c-.9,22.3-2.3,59.5,12.9,80.9a12.9,12.9,0,0,0,4.9,4.1c5.7,2.7,13.7,3.2,19.4,3.2h1.6c5.7,0,13.7-.5,19.4-3.2l1-.5h.1a12.7,12.7,0,0,0,3.8-3.5c15-21,13.8-58.6,13-79.7a3.7,3.7,0,0,0,.4-1.6c0-3.1-3.5-4-5-4.4a51,51,0,0,0-8-1.2,230,230,0,0,0-25.2-1.1Z" style="fill:#6a3417"/><path d="M129.1,347.8a9.3,9.3,0,0,1-3.7,3.1c-4.6,2.1-11.6,3-18.9,2.9s-14.3-.8-18.9-2.9a9.3,9.3,0,0,1-3.7-3.1C69.1,327,70.7,289.2,71.5,268.2c0,2,15.8,3.7,35.3,3.7,17.5,0,32-1.3,34.8-3.1C142.4,289.9,143.8,327.2,129.1,347.8Z" style="fill:#e57225"/><path d="M142,268.2a.7.7,0,0,1-.4.6c-2.8,1.8-17.3,3.1-34.8,3.1-19.5,0-35.3-1.7-35.3-3.7s15.8-3.7,35.3-3.7S142,266.1,142,268.2Z" style="fill:#6a3417"/><path d="M87.4,350.5a.9.9,0,0,1-.7-.3c-12.4-18.3-12.1-67.6-10.9-79.3.1-.4.4-.7.8-.6a.7.7,0,0,1,.7.8c-.6,6.1-1,21.3.4,37.9,1.2,13.2,3.9,31,10.3,40.4a.8.8,0,0,1-.2,1Z" style="fill:#b1ada9;opacity:0.5;mix-blend-mode:multiply"/><path d="M91.9,351.7a.8.8,0,0,1-.7-.4c-9.4-17.8-10.1-67.1-9.1-80.3.1-.5.4-.8.9-.7a.8.8,0,0,1,.7.8c-1.1,13.1-.5,61.9,8.8,79.5a.7.7,0,0,1-.3,1Z" style="fill:#b1ada9;opacity:0.5;mix-blend-mode:multiply"/><path d="M96.1,351.7a.8.8,0,0,1-.7-.5c-3.6-9.6-5.2-28.1-5.9-42-.8-17.4-.6-32.9-.2-39.1a.8.8,0,1,1,1.5.1c-.4,7.4-.5,23.6.3,38.9.6,13.8,2.2,32.2,5.7,41.5a.7.7,0,0,1-.4,1Z" style="fill:#b1ada9;opacity:0.5;mix-blend-mode:multiply"/><path d="M100.4,351.7a.9.9,0,0,1-.8-.6c-3.9-17.2-4.2-65.5-3.6-81a.7.7,0,0,1,.7-.7.7.7,0,0,1,.8.8c-.6,15.4-.3,63.5,3.6,80.5a.8.8,0,0,1-.6,1Z" style="fill:#b1ada9;opacity:0.5;mix-blend-mode:multiply"/><path d="M104.6,351.7a.7.7,0,0,1-.7-.7c-1.3-17.1-1.4-65.4-1.3-80.9a.8.8,0,0,1,.8-.7h0a.8.8,0,0,1,.8.7c-.2,15.5-.1,63.7,1.2,80.8a.8.8,0,0,1-.7.8Z" style="fill:#b1ada9;opacity:0.5;mix-blend-mode:multiply"/><path d="M108.9,351.7h-.1a.8.8,0,0,1-.7-.8c1.3-17.1,1.4-65.3,1.2-80.8a.8.8,0,0,1,.8-.7h0a.8.8,0,0,1,.8.7c.1,15.5,0,63.8-1.3,80.9A.7.7,0,0,1,108.9,351.7Z" style="fill:#b1ada9;opacity:0.5;mix-blend-mode:multiply"/><path d="M113.1,351.7H113a.8.8,0,0,1-.6-1c2.1-9.4,3.1-27.8,3.5-41.6.5-17.3.3-32.8.1-38.9a.7.7,0,0,1,.8-.8.7.7,0,0,1,.7.7c.6,15.5.3,63.8-3.6,81A.9.9,0,0,1,113.1,351.7Z" style="fill:#b1ada9;opacity:0.5;mix-blend-mode:multiply"/><path d="M117.4,351.7h-.3a.7.7,0,0,1-.4-1c3.5-9.3,5.1-27.7,5.7-41.5.8-15.3.7-31.5.3-38.9a.8.8,0,0,1,1.5-.1c.4,6.2.6,21.7-.2,39.1-.7,13.9-2.3,32.4-5.9,42A.8.8,0,0,1,117.4,351.7Z" style="fill:#b1ada9;opacity:0.5;mix-blend-mode:multiply"/><path d="M121.6,351.7h-.3a.7.7,0,0,1-.3-1c4.9-9.4,7.1-27.7,8-41.5,1.1-15.3,1-31.5.4-38.9a.8.8,0,0,1,.7-.8.7.7,0,0,1,.8.7c.9,11.4,1.1,62.8-8.6,81.2A.8.8,0,0,1,121.6,351.7Z" style="fill:#b1ada9;opacity:0.5;mix-blend-mode:multiply"/><g style="opacity:0.5;mix-blend-mode:multiply"><path d="M125.9,350.5h-.4a.6.6,0,0,1-.2-1c11.4-16.9,12.4-64.1,10.8-79.2a.8.8,0,0,1,.7-.8.7.7,0,0,1,.8.7c1.6,15.2.6,63-11.1,80.1A.7.7,0,0,1,125.9,350.5Z" style="fill:#b1ada9"/></g><path d="M95.4,269c-1.4-10.4-3.7-61.4-2.2-83.6,1.3-20.5-1.3-28-6.4-43.1l-.8-2.5,2.1-.7.9,2.5c5.2,15.3,7.8,23,6.4,43.9s.9,72.9,2.3,83.2Z" style="fill:#395149;stroke:#39514a;stroke-miterlimit:10"/><path d="M100.8,271.1s-2-29.6-3.1-44.5-5.3-23.7-11.8-24.8c-5-.9-12.7,2.4-17.9,11.8l-2-1.1c4-7.3,12.1-14.4,20.3-13s12.6,11,13.7,26.9,3.1,44.5,3.1,44.5Z" style="fill:#395149;stroke:#39514a;stroke-miterlimit:10"/><path d="M103.5,271.1c0-1.8-.1-4.6-.2-8.2-.7-21.4-2.3-71.4-3.7-85A137.9,137.9,0,0,0,95.7,159c-2.5-9.4-4.8-18.2-3-24.9l2.2.6c-1.6,6.1.6,14.7,3,23.7,1.6,6.3,3.3,12.8,3.9,19.3,1.5,13.7,3.1,63.7,3.7,85.1.1,3.6.2,6.4.3,8.2Z" style="fill:#395149;stroke:#39514a;stroke-miterlimit:10"/><path d="M107.5,266.4c-.3-9.6,1.2-78.3,4.1-89.9s14.6-33.2,18-39.1l2,1.1c-3.4,5.8-14.5,25.8-17.8,38.5-1.2,4.7-2.3,20.8-3.2,45.3-.7,20-1,39.4-.9,44.1Z" style="fill:#395149;stroke:#39514a;stroke-miterlimit:10"/><path d="M111.8,271.2c-1.2-9.6.9-44.3,6.8-55.5,2.8-5.4,7-11,10.7-15.9s7.2-9.6,8.5-12.9l2.1.8c-1.3,3.6-4.8,8.1-8.7,13.4s-7.9,10.4-10.6,15.6c-5.6,10.7-7.7,45.1-6.5,54.2Z" style="fill:#395149;stroke:#39514a;stroke-miterlimit:10"/><path d="M118.4,269.6c-.5-9.7,1.2-26.5,7.7-42,5.2-12.3,15-27.3,32.6-29.6l.3,2.2c-16.5,2.2-25.9,16.6-30.8,28.3-6.3,15.1-8,31.5-7.5,41Z" style="fill:#395149;stroke:#39514a;stroke-miterlimit:10"/><path d="M100.2,268.6H97.9c.6-27.2-1-49.6-4.9-66.6s-8.3-23.2-10.7-25.8l1.6-1.6c2.6,2.9,7.6,10.1,11.3,26.9S100.8,241.2,100.2,268.6Z" style="fill:#395149;stroke:#39514a;stroke-miterlimit:10"/><path d="M89.7,146.1a1.1,1.1,0,0,1-.9-.4c-.2-.1-14.3-12.2-19-15.3a6.3,6.3,0,0,0-3.7-1.2,18.7,18.7,0,0,0-4,.7,14.7,14.7,0,0,1-4.1.7h-.3c-4.3-.1-9.3-6.6-14.6-13.5l-.4-.4-2.4-3.2c-3.4-4.6-5-6.5-7.9-6.8a1.5,1.5,0,0,1-1.1-2.4l4.3-5.7-9.2.6h-.1a1.4,1.4,0,0,1-1.3-.7c-.2-.2-12.6-22.2-17.9-34.2C3.3,55.9.5,49,2.7,44.8c.9-1.9,2.8-3.1,5.4-3.7a25.1,25.1,0,0,1,5.1-.4c9.6,0,27.2,3.2,41,9.2C70.6,57,80.1,77.8,82.5,90c1,5.2,2,12.6,3.1,20.4,1.6,11.6,3.4,24.7,5.6,33.8a1.6,1.6,0,0,1-.7,1.7Z" style="fill:#72b75b"/><path d="M13.2,42.2c10,0,27.6,3.5,40.4,9.1C69,57.9,78.5,77.4,81,90.3s5,39,8.7,54.3c0,0-14.3-12.2-19.1-15.5a7.9,7.9,0,0,0-4.5-1.4c-2.9,0-5.7,1.4-8.1,1.4h-.2c-3.7-.1-8.9-6.9-13.9-13.3s-6.8-10.2-11.4-10.6l6.2-8.3-12.4.8S13.8,75.8,8.4,63.7.6,44.2,8.4,42.6a22.1,22.1,0,0,1,4.8-.4m0-3h0a28.3,28.3,0,0,0-5.4.4c-3.1.7-5.3,2.2-6.5,4.5-2.4,4.8.4,12,4.4,20.9,5.4,12,17.5,33.3,18,34.2a2.8,2.8,0,0,0,2.6,1.5h.2l5.9-.4-2.3,3.1a2.7,2.7,0,0,0-.3,3,2.8,2.8,0,0,0,2.4,1.8c2.3.2,3.6,1.8,6.9,6.2l2.4,3.2.4.5c5.7,7.4,10.7,13.9,15.8,14H58a16.9,16.9,0,0,0,4.5-.7,12.1,12.1,0,0,1,3.6-.7,5,5,0,0,1,2.9.9c4.5,3.1,18.6,15.2,18.8,15.3a2.6,2.6,0,0,0,1.9.7,2.9,2.9,0,0,0,1.6-.4,3,3,0,0,0,1.3-3.3c-2.2-9.1-4-22.2-5.5-33.7C86,102.3,85,94.9,84,89.7,81.5,77.2,71.8,55.9,54.8,48.5c-14-6-31.9-9.3-41.6-9.3Z" style="fill:#2e5b1d"/><path d="M87,138.7a.7.7,0,0,1-.7-.6c-4.1-18.3-14.1-33.6-23.9-47.6S42.8,68.4,28.7,58.3c-4.1-2.9-7-5.2-9.4-7.1-5.5-4.4-6.9-5.6-11.1-4.8a.8.8,0,1,1-.3-1.5c4.9-.9,6.9.7,12.4,5.1,2.3,1.9,5.2,4.2,9.3,7.1,14.2,10.2,24.3,18.8,34,32.5s20,29.6,24.2,48.2a.8.8,0,0,1-.6.9Z" style="fill:#648f6b"/><path d="M92.4,146.1a1.3,1.3,0,0,1-1.3-.9c-5.3-11.4-6.5-36.6,0-50.8,1.6-3.5,3-7.4,4.6-11.4,4.5-11.9,9.7-25.5,20.8-36.5l11.1-11.4c14.2-14.7,30.3-31.3,36.7-33.3l1.6-.3a4,4,0,0,1,3.8,2.9c2.5,6-1.2,21.9-6.3,27s-9.7,15.1-11.5,22-6.1,13.2-15.2,21.1l4.4-2,.7-.2a1.6,1.6,0,0,1,1.1.5,1.7,1.7,0,0,1,.2,1.8c-.1.1-7.8,12.7-11.2,19.5-2.1,4.2-5.6,7.6-10.9,10.3h.6a1.6,1.6,0,0,1,1.2,2.4,180,180,0,0,0-10.5,16.6c-1.6,3.2-5.2,6.6-9,10.2s-8.6,8.3-9.4,11.4a1.6,1.6,0,0,1-1.3,1.1Z" style="fill:#72b75b"/><path d="M165.9,3c6.3,0,2,21.7-3.6,27.3s-10,15.6-11.8,22.8-9.7,18-24.6,27.6c11.5-4.6,15.9-6.9,15.9-6.9S134,86.5,130.6,93.4s-10.9,10.4-16.2,12.2l7.2.3s-7.2,10.3-10.6,16.8-16.9,15.5-18.6,21.9c-4.8-10.5-6.4-35.5,0-49.6S103,62.1,117.5,47.6,156.9,5.7,164.8,3.2l1.1-.2m0-3a6.9,6.9,0,0,0-2,.3c-6.3,2-19.5,15.3-37.4,33.8-4,4.1-7.8,8.1-11.1,11.3-11.3,11.3-16.5,25-21.1,37-1.6,4.1-3,7.9-4.6,11.4-6.6,14.5-5.4,40.3,0,52.1a3.1,3.1,0,0,0,2.7,1.7h.3a2.9,2.9,0,0,0,2.6-2.2c.7-2.8,5.1-7,9-10.7s7.6-7.2,9.3-10.6c3.3-6.3,10.3-16.4,10.4-16.5a2.9,2.9,0,0,0,.2-3c0-.1,0-.2-.1-.2a24.3,24.3,0,0,0,9.2-9.7c3.3-6.7,11-19.2,11-19.3a3,3,0,0,0-.3-3.6,5.1,5.1,0,0,0-1.3-.9c6.1-6.4,9.5-12.5,10.7-17.1,1.7-6.7,5.6-15.9,11-21.3s9.4-22.2,6.7-28.7A5.6,5.6,0,0,0,165.9,0Z" style="fill:#2e5b1d"/><path d="M93.3,138.7h-.1a.7.7,0,0,1-.7-.8c.8-6.3,7-35.6,23.1-64.5,10.1-18.1,23.2-34.4,32.8-46.3,5.3-6.7,9.6-11.9,11.4-15.2a.8.8,0,0,1,1-.3.8.8,0,0,1,.3,1.1c-1.8,3.3-6.1,8.6-11.5,15.4C140,39.9,127,56.2,116.9,74.2c-16,28.6-22.1,57.6-22.9,63.9C94,138.4,93.6,138.7,93.3,138.7Z" style="fill:#648f6b"/><path d="M124.7,148.2a1.2,1.2,0,0,1-.9-.3,1.4,1.4,0,0,1-.5-1.8c2.4-6,1.4-10.3-3.8-16a8.6,8.6,0,0,1-2-7c.6-7.1,6.6-15.9,11.8-19.9C142.5,93,145.4,87,145.6,83.8c.3-6.8,1.2-9,1.4-9.3a1.4,1.4,0,0,1,1-.8h.3a1.4,1.4,0,0,1,.9.3l6.5,5L154,74.3a2,2,0,0,1,.3-1.5c5.2-6,13.4-17.2,13.2-21.3a1.4,1.4,0,0,1,.7-1.2,1.1,1.1,0,0,1,.8-.3h.6l4.2,1.9c-.2-.6-.5-1.2-.8-1.9-2-4.3-.6-6,1.6-8.5l.2-.4a31.5,31.5,0,0,0,2.7-5.1c2-4.6,4.1-9.2,7-10.1l1.1-.2a3.7,3.7,0,0,1,2.7,1.2c2.4,2.5,2.8,8.9,2.7,13.8-.3,8.2-8.8,44.3-27.1,68a244.2,244.2,0,0,1-38.3,39.1Z" style="fill:#2e5b1d"/><path d="M185.6,27.3c3,0,4.1,6.1,3.9,13.4s-8.5,43.6-26.8,67.2a234.2,234.2,0,0,1-38,38.8c2.8-6.9,1.2-11.8-4.1-17.6s2.8-19.4,9.7-24.7,16.4-13.7,16.8-20.6,1.2-8.7,1.2-8.7l10.6,8.1-3.4-9.4S169.2,57.7,169,51.5l7,3.1s0-1.7-1.7-5.2-.6-4.5,1.7-7.2,5.4-13.7,8.9-14.8h.7m0-3h0a4,4,0,0,0-1.5.3c-3.6,1-5.7,5.8-8,10.9a30,30,0,0,1-2.4,4.8l-.3.3c-1.9,2.3-3.7,4.4-2.4,8.5l-.8-.3a2.4,2.4,0,0,0-1.2-.3,3,3,0,0,0-1.6.5,3.1,3.1,0,0,0-1.4,2.6c.1,3.1-6.6,12.9-12.8,20.3a2.7,2.7,0,0,0-.6,2.7l-2.5-1.8a2.4,2.4,0,0,0-1.8-.7h-.7a3.2,3.2,0,0,0-2,1.6c-.3.6-1.2,3-1.5,9.9-.1,2.4-2.3,8-15.7,18.3-5.5,4.2-11.8,13.4-12.4,20.9a10.5,10.5,0,0,0,2.4,8.3c4.8,5.2,5.7,9,3.5,14.3a3.2,3.2,0,0,0,.9,3.6,3.3,3.3,0,0,0,1.9.6,3.2,3.2,0,0,0,1.8-.6,240.1,240.1,0,0,0,38.6-39.4c19.5-25.3,27.2-61.9,27.4-68.9s-.9-12.5-3.1-14.8a5.3,5.3,0,0,0-3.8-1.7Z" style="fill:#1e3d11"/><path d="M126.8,143.9h-.2a.9.9,0,0,1-.5-1c3.1-9.7,13.1-21.4,28.2-39.2l.8-.9c14.8-17.3,29.8-52.6,30.7-67.3a.7.7,0,0,1,.8-.7.8.8,0,0,1,.7.8c-.4,7-4.2,19.5-10,32.6s-14,27.3-21.1,35.6l-.7.9c-15,17.6-24.9,29.2-27.9,38.7A.8.8,0,0,1,126.8,143.9Z" style="fill:#293046"/><path d="M85.5,181.2a1.6,1.6,0,0,1-1.1-.5c-1.1-1.1-3.3-1.2-5.5-1.2H74.3c-3.8,0-8-.4-10.8-3.5-5.2-5.9-7.7-7.7-14.3-8.7H47.1a67.9,67.9,0,0,0-11,1.3,77.7,77.7,0,0,1-12,1.4,18.6,18.6,0,0,1-3.6-.3,1.5,1.5,0,0,1-1.2-1,1.7,1.7,0,0,1,.4-1.5l2-2.2L14,169.1a.8.8,0,0,1-.7.2h-.5c-.9-.3-9.2-3.5-11-8a4.7,4.7,0,0,1,.3-4C5.3,151.3,26,143,37.4,143h2.5a47.9,47.9,0,0,1,12.3,3.1l-.4-.9a1.5,1.5,0,0,1,.1-1.6,1.6,1.6,0,0,1,1.2-.6h.3c.6.1,15.2,2.5,25,7.5,5,2.6,8.9,8.2,10.4,15s.5,11.5-2.1,15a2.4,2.4,0,0,1-1.1.6Z" style="fill:#2e5b1d"/><path d="M37.4,144.5h2.4c11.1,1.3,15.8,5.2,15.8,5.2l-2.5-5.2s15,2.4,24.6,7.4,13.1,20.8,7.8,27.7c-1.5-1.5-3.9-1.7-6.6-1.7H74.3c-3.6,0-7.3-.4-9.7-3-5.3-5.9-8.1-8.1-15.2-9.2H47.1c-6.5,0-16.2,2.7-23,2.7a11.6,11.6,0,0,1-3.3-.3l8.4-9-15.9,8.7s-12.7-4.6-9.9-9.9,22.3-13.4,34-13.4m0-3h0c-12.3,0-33.1,8.5-36.6,14.9a6.5,6.5,0,0,0-.4,5.3c1.9,5.1,10.2,8.3,11.9,8.9a1.8,1.8,0,0,0,1,.2l1.5-.3,3-1.7v.2a3.1,3.1,0,0,0,2.2,2.1,24.1,24.1,0,0,0,4,.3A81.4,81.4,0,0,0,36.4,170a64.6,64.6,0,0,1,10.7-1.3h1.8c6.2.9,8.5,2.6,13.5,8.2,3.2,3.6,7.8,4,11.9,4h4.6c1,0,3.6,0,4.5.8a3.1,3.1,0,0,0,2.1.9h.2a3.5,3.5,0,0,0,2.2-1.2c2.9-3.8,3.8-9.9,2.4-16.2s-5.8-13.2-11.2-16c-10-5.1-24.9-7.6-25.5-7.7h-.5a3,3,0,0,0-2.4,1.2,4.7,4.7,0,0,0-.5,1,55.7,55.7,0,0,0-10.1-2.2Z" style="fill:#1e3d11"/><path d="M85.2,177.5a.8.8,0,0,1-.7-.4c-4.3-6.9-15.9-16.8-29.5-22.3-9.7-3.9-22.1-.7-31.1,1.5a61.2,61.2,0,0,1-9.6,2,.8.8,0,1,1-.1-1.5,73.1,73.1,0,0,0,9.3-1.9c9.2-2.4,21.9-5.5,32.1-1.5a76.8,76.8,0,0,1,18.7,10.9c5,4,9.2,8.3,11.5,12a.9.9,0,0,1-.2,1.1Z" style="fill:#293046"/><path d="M136.5,193.3a1.4,1.4,0,0,1-.9-.3,1.6,1.6,0,0,1-.4-2.1c.5-.9-.4-5.7-1.2-9.2-1.5-7.5-3.4-16.8-1.1-23.1a1.5,1.5,0,0,1,1.2-1h.2a1.4,1.4,0,0,1,1.2.6l.7.8c-.1-.3-.1-.6-.2-.8-.3-2.2-.7-6.2,1.1-8.7s11.8-15,12.2-15.4a1.4,1.4,0,0,1,1.2-.6h.3a1.5,1.5,0,0,1,.9.6,5.7,5.7,0,0,1,1.5-2.2c2.7-2.4,7.7-6.4,11.7-9.6l3.2-2.6a4.7,4.7,0,0,1,3.2-1.3c4.1,0,6.6,5.6,8,10.3,7.4,25.2-.9,39.6-9.3,47.3-10.5,9.8-18.1,11.5-23.6,12.7-3.7.8-6.4,1.4-8.8,4.1A1.6,1.6,0,0,1,136.5,193.3Z" style="fill:#72b75b"/><path d="M171.3,119.9c2.8,0,5.1,4.2,6.6,9.2s8.5,29.7-8.9,45.8-26,9.4-32.5,16.9c2.2-3.1-5.9-22.7-2.2-32.7a25,25,0,0,0,5.9,5.4c-2.1-1.5-4.3-10.7-1.8-14.1S150.5,135,150.5,135l2.4,11.7s-2.1-10.6,1.3-13.7,11-9,14.8-12.1a3.6,3.6,0,0,1,2.3-1m0-3h0a7.4,7.4,0,0,0-4.2,1.6l-3.2,2.6c-4,3.2-9,7.2-11.7,9.7a4.7,4.7,0,0,0-1.1,1.3h-.6a3.2,3.2,0,0,0-2.4,1.1c-.4.5-9.7,12.1-12.2,15.5a11.8,11.8,0,0,0-1.6,7.5h-.5a2.8,2.8,0,0,0-2.3,1.9c-2.5,6.6-.5,16.2,1.1,23.9.6,3,1.4,7.1,1.3,8.3a3,3,0,0,0,.7,3.8,2.8,2.8,0,0,0,1.9.7,3,3,0,0,0,2.2-1c2.1-2.4,4.3-2.9,8-3.7,5.7-1.2,13.5-2.9,24.4-13,8.6-8,17.3-22.9,9.6-48.8-2.2-7.6-5.4-11.4-9.4-11.4Z" style="fill:#2e5b1d"/><path d="M138.4,189.7h-.3a.7.7,0,0,1-.5-.9c1.6-5.1,7.7-12.4,15.3-21.6,2.3-2.7,4.6-5.5,6.9-8.5,10-12.3,10.8-22.6,10.8-35.9a.7.7,0,0,1,.7-.7.8.8,0,0,1,.8.7c0,13.6-.8,24.1-11.1,36.9l-6.9,8.4c-7.2,8.8-13.5,16.4-15,21.2A.8.8,0,0,1,138.4,189.7Z" style="fill:#648f6b"/><path d="M208.3,246.9c-2.9,0-10.3-6.2-13.4-8.8a1.7,1.7,0,0,1-.5-1.5l1.6-6.5-.8.5a1.6,1.6,0,0,1-.9.3,1.4,1.4,0,0,1-1-.4c-.3-.3-6-6-5.9-12.2a13.6,13.6,0,0,0-2.2,3.3,1.3,1.3,0,0,1-1,.9h-.3a1.5,1.5,0,0,1-1.1-.4,23.4,23.4,0,0,0-7.7-4.3,32.7,32.7,0,0,0-4.1-1.1c-7.1-1.7-19-4.5-18.3-16.4a1.4,1.4,0,0,1,.7-1.2c3.9-2.5,12-5,21.2-5s19.1,3.3,24.6,9.2c12,13.2,16.2,29,11.2,42.2a2.2,2.2,0,0,1-2.1,1.4Z" style="fill:#2e5b1d"/><path d="M174.6,195.6c8.5,0,17.5,2.3,23.5,8.8,11.8,12.9,15.7,27.9,10.9,40.6a.7.7,0,0,1-.7.4c-2.7,0-12.4-8.4-12.4-8.4l2.5-10.4-4.1,2.8s-8.4-8.2-4.4-15a13.5,13.5,0,0,0-6,6.6,25.8,25.8,0,0,0-8.3-4.7c-5.7-2-22.2-2.8-21.4-16,4-2.5,11.9-4.7,20.4-4.7m0-3v0h0c-8.3,0-17.1,2.1-22,5.2a3.2,3.2,0,0,0-1.4,2.4c-.8,13.1,12.4,16.3,19.5,17.9a26.4,26.4,0,0,1,3.8,1.1,22.7,22.7,0,0,1,7.3,4,2.7,2.7,0,0,0,2.1.9h.5a3.3,3.3,0,0,0,2.1-1.5c1.6,4.9,5.5,8.8,5.7,9.1a3.8,3.8,0,0,0,1.7.8l-.9,3.9a2.9,2.9,0,0,0,.9,2.9c7,6.1,11.9,9.2,14.4,9.2a3.7,3.7,0,0,0,3.5-2.3c5.2-13.8.9-30.2-11.5-43.8-5.8-6.3-14.9-9.7-25.7-9.7Z" style="fill:#1e3d11"/><path d="M208.2,239.4a.8.8,0,0,1-.8-.7c-2.1-15.1-7.9-26.1-17.2-32.4-13.6-9.3-30.7-6-33.9-5.2a.8.8,0,0,1-1-.6.8.8,0,0,1,.6-.9c3.4-.8,21-4.2,35.1,5.4,9.7,6.6,15.7,17.9,17.9,33.5a.8.8,0,0,1-.6.9Z" style="fill:#293046"/><path d="M48.6,272.5c-5.8,0-11-1.7-12.4-4a2.4,2.4,0,0,1,0-2.6c1.1-2,2.4-8,4.2-20.7,1.2-7.8,6.4-33.2,25.4-34.4h.9a13.6,13.6,0,0,1,10.8,5.6c3.7,4.7,5.5,12,4.3,17.3-1.8,7.5-2.6,11.9-2.6,12a1.5,1.5,0,0,1-1.2,1.1h-.3a1.5,1.5,0,0,1-1.2-.7L75,244.6c1.7,2.8,1.3,4.2.2,7.7l-.4,1.1c-1.6,5.3-15.2,18.4-24.1,19Z" style="fill:#72b75b"/><path d="M66.7,212.3c10.4,0,15.4,13.6,13.6,21.1s-2.6,12-2.6,12-8.4-8.2-8.4-8.2.1,2.2,3.1,6.4,2.5,4.5,1,9.4-14.8,17.4-22.8,18h-2c-7,0-12.1-2.6-11.1-4.3s2.3-6.5,4.4-21.3,9.2-32.1,24-33.1h.8m0-3h-1c-20.1,1.3-25.6,27.6-26.7,35.6-1.8,12.2-3.1,18.4-4.1,20.3a4.1,4.1,0,0,0,0,4c1.9,3.3,8.3,4.8,13.7,4.8h2.2c9.6-.6,23.7-14.3,25.5-20l.3-1.2a13.7,13.7,0,0,0,1-4.3h.7a2.9,2.9,0,0,0,2.3-2.4c.1,0,.9-4.4,2.6-11.9,1.4-5.7-.5-13.5-4.6-18.5a14.7,14.7,0,0,0-11.9-6.2Z" style="fill:#2e5b1d"/><path d="M135.2,339.8c-.1,3.7-13.4,5.6-27.2,5.8h-3.1c-13.8-.2-27.1-2.1-27.2-5.8" style="fill:none;stroke:#131313;stroke-linecap:round;stroke-linejoin:round;stroke-width:3px"/><path d="M104.9,345.6c0,1.5-21.7,76.8-30.8,108.1a1.6,1.6,0,0,1-3.1-.5l6.7-113.4" style="fill:none;stroke:#131313;stroke-linecap:round;stroke-linejoin:round;stroke-width:3px"/><path d="M108.1,345.6c0,1.5,21.8,76.8,30.8,108.1a1.6,1.6,0,0,0,3.1-.5l-6.7-113.4" style="fill:none;stroke:#131313;stroke-linecap:round;stroke-linejoin:round;stroke-width:3px"/><path d="M41.2,267.1h-.4a.6.6,0,0,1-.2-1,66.2,66.2,0,0,1,4.4-6c4.3-5.5,10.1-13.1,11.6-18.5.6-2.2,1.1-4.5,1.6-6.9,1.3-6.8,2.8-14.4,7.7-21.4a.7.7,0,1,1,1.2.8c-4.6,6.8-6.1,14.2-7.4,20.9-.5,2.4-1,4.8-1.6,7-1.6,5.7-7.6,13.4-11.9,19.1a68.7,68.7,0,0,0-4.4,5.8A.6.6,0,0,1,41.2,267.1Z" style="fill:#648f6b"/></g></g></g></svg>