<svg id="Layer_1" data-name="Layer 1" xmlns="http://www.w3.org/2000/svg" xmlns:xlink="http://www.w3.org/1999/xlink" viewBox="0 0 38.5 66.5"><defs><clipPath id="clip-path"><path id="SVGID" d="M2.2,45.1C2.1,32.8,9.5,22.7,18.8,22.6s16.9,9.8,17.1,22.1c.1,8.6-1.6,14.8-7,18.5-2.3,1.7-16.3,1.6-18.4.5C4.5,60.4,2.3,54.3,2.2,45.1Z" style="fill:none"/></clipPath></defs><g id="Layer_2" data-name="Layer 2"><g id="Layer_1-2" data-name="Layer 1-2"><g id="clean_2" data-name="clean 2"><g style="clip-path:url(#clip-path)"><path d="M18.6,65.5c-1.6,0-7,0-8.5-.9-6-3.2-8.8-9.3-8.9-19.5A26.6,26.6,0,0,1,6.1,28.7c3.4-4.5,7.8-7,12.7-7.1h.1c9.8,0,17.8,10.4,18,23.1.1,9.7-2.2,15.7-7.4,19.4C27.6,65.4,20.7,65.5,18.6,65.5Z" style="fill:#dfe590"/><path d="M18.9,22.6c9.2,0,16.8,9.9,17,22.1.1,8.6-1.6,14.8-7,18.5-1.2.9-5.9,1.3-10.3,1.3s-7.1-.3-8.1-.8c-6-3.3-8.2-9.4-8.3-18.6C2.1,32.8,9.5,22.7,18.8,22.6h.1m0-2h-.2C8.4,20.7,0,31.7.2,45.1.3,55.8,3.2,62,9.6,65.5c1.6.9,6.3,1,9,1s9.5-.2,11.5-1.6C35.6,61,38,54.8,37.9,44.7,37.7,31.4,29.2,20.6,18.9,20.6Z" style="fill:#c3bf4f"/><path d="M-16.4,29.8C-16.6,12.1-6-2.3,7.3-2.5S31.6,11.6,31.8,29.2c.2,12.3-2.2,21.2-9.9,26.6-3.3,2.3-23.5,2.3-26.4.7C-13.2,51.8-16.3,43-16.4,29.8Z" style="fill:#fcf6e8"/></g><path d="M18.9,22.6c9.2,0,16.8,9.9,17,22.1.1,8.6-1.6,14.8-7,18.5-1.2.9-5.9,1.3-10.3,1.3s-7.1-.3-8.1-.8c-6-3.3-8.2-9.4-8.3-18.6C2.1,32.8,9.5,22.7,18.8,22.6h.1m0-2h-.2C8.4,20.7,0,31.7.2,45.1.3,55.8,3.2,62,9.6,65.5c1.6.9,6.3,1,9,1s9.5-.2,11.5-1.6C35.6,61,38,54.8,37.9,44.7,37.7,31.4,29.2,20.6,18.9,20.6Z" style="fill:#c3bf4f"/><rect x="16.2" y="10.4" width="5.5" height="7.37" transform="translate(-0.2 0.3) rotate(-0.8)" style="fill:#fff;stroke:#dfe590;stroke-linecap:round;stroke-linejoin:round;stroke-width:2.0000000462713947px"/><rect x="9.6" y="18.7" width="18.9" height="8.23" rx="2.1" style="fill:#c3bf4f;stroke:#928e31;stroke-linecap:round;stroke-linejoin:round;stroke-width:2px"/><path d="M23.9,1.1H3.1A1,1,0,0,0,2,2.1V5A1.2,1.2,0,0,0,3.1,6.2H7.8a5,5,0,0,1,5.1,4.9h11A1.3,1.3,0,0,0,25,10V2.3c0-.7-.4-1.2-1-1.2Z" style="fill:#c3bf4f;stroke:#928e31;stroke-linecap:round;stroke-linejoin:round;stroke-width:2px"/><path d="M13.9,39.2c-.1.2-.4.3-.5.4l-.3.2-.3-.6a4.7,4.7,0,0,0-1.1-1.3,1,1,0,0,0-1.4,0c-.1.1-.1.1-.1.2a2.7,2.7,0,0,0-.5,2.3,3.8,3.8,0,0,0,1.4,2.4c-.1.2-.1.5-.3.7a9.1,9.1,0,0,1-2-2.4,3.2,3.2,0,0,1,.9-3.7,2,2,0,0,1,2.3-.3,3.5,3.5,0,0,1,1.2,1Z" style="fill:#983824"/><path d="M11.1,42.8a3.8,3.8,0,0,1-1.4-2.4,2.7,2.7,0,0,1,.5-2.3,1,1,0,0,1,1.4-.3h.1a4.7,4.7,0,0,1,1.1,1.3l.3.6-.9.9-.6,1c0,.1-.1.1-.1.2h0C11.3,42.2,11.3,42.5,11.1,42.8Z" style="fill:#e29a64"/><path d="M25,39.8l-.8-.6a3.8,3.8,0,0,1,1.6-1.9,2,2,0,0,1,2.8.3l.2.3a3.6,3.6,0,0,1-.1,4.1l-1.6,1.5a1.1,1.1,0,0,1-.2-.7A10.2,10.2,0,0,0,28.2,41a3,3,0,0,0-.3-2.9,1,1,0,0,0-1.5-.3l-.5.5A3.8,3.8,0,0,0,25,39.8Z" style="fill:#ac462c"/><path d="M25,39.8a3.8,3.8,0,0,1,.9-1.5l.5-.5a1,1,0,0,1,1.5.3,3,3,0,0,1,.3,2.9,10.2,10.2,0,0,1-1.3,1.8c-.1-.1-.1-.3-.3-.5h0a10.4,10.4,0,0,0-.4-1A4.7,4.7,0,0,0,25.1,40Z" style="fill:#f0bd88"/><path d="M26.6,42.3l-.8-.8a2.7,2.7,0,0,0-2-.8,1.3,1.3,0,0,0-1.2.5,3.7,3.7,0,0,0-1.2,2,9.5,9.5,0,0,0-.8,3c0,.5-.1.9-.1,1.3h-.2a2,2,0,0,0-1.4-.6,18.7,18.7,0,0,0-.4-4.2,1.2,1.2,0,0,0,.8-.1L20,42a4,4,0,0,0,.8-2.3L20.5,38A6.6,6.6,0,0,1,24,39.1h.2l.8.6v.2a8.7,8.7,0,0,1,1.2,1.4A10.4,10.4,0,0,1,26.6,42.3Z" style="fill:#ed793e"/><path d="M18.5,42.7a18.7,18.7,0,0,1,.4,4.2,1.2,1.2,0,0,0-.9.3c-.2.1-.3.3-.5.3a22.4,22.4,0,0,0-1.4-4.6,3.9,3.9,0,0,0-1.4-1.7,2.3,2.3,0,0,0-2.7.3l-.5.4c0-.1.1-.1.1-.2l.6-1,.9-.9.3-.2c.1-.1.4-.2.5-.4H14a4,4,0,0,1,2.1-.9l.3,1.1a5.9,5.9,0,0,0,1.3,2.3Z" style="fill:#cc5d33"/><path d="M20.4,35.1c-.1,0-.1-.1,0-.1Z" style="fill:#943623"/><path d="M28.2,47.7a3.5,3.5,0,0,1-.3-1.3,1.6,1.6,0,0,1-.3-.9c-.2-.7-.3-1.3-.5-2a1.1,1.1,0,0,1-.2-.7c-.1-.1-.1-.3-.3-.5h0l-.8-.8a2.7,2.7,0,0,0-2-.8,1.3,1.3,0,0,0-1.2.5,3.7,3.7,0,0,0-1.2,2,9.5,9.5,0,0,0-.8,3,6.9,6.9,0,0,1-.2,1.3h-.1a2,2,0,0,0-1.4-.6,1.2,1.2,0,0,0-.9.3c-.2.1-.3.3-.5.3a22.4,22.4,0,0,0-1.4-4.6,3.9,3.9,0,0,0-1.4-1.7,2.3,2.3,0,0,0-2.7.3l-.5.4h0c-.2.3-.2.6-.4.9s-.1.5-.3.7h0c-.1.6-.3,1.1-.4,1.7a16,16,0,0,1-.5,2.9,1.6,1.6,0,0,0-.1,1.2h0a1.3,1.3,0,0,0,.1.6,4.9,4.9,0,0,0,2,2.5,13.3,13.3,0,0,0,2.4,1.1h.2a10.9,10.9,0,0,0,2.6.3h4a12.4,12.4,0,0,0,2.7-.3h.3A11.8,11.8,0,0,0,27,51.9l.5-.6a3.6,3.6,0,0,0,.8-1.9A3.2,3.2,0,0,0,28.2,47.7Z" style="fill:#f0bd88"/><path d="M21.6,49.7c-.1-.1-.2,0-.2.1a1.2,1.2,0,0,1-.7.7,1.2,1.2,0,0,1-1.5-.6h0v-.2H19v.2a1.2,1.2,0,0,1-1.4.6h-.1a1,1,0,0,1-.7-.7c0-.1,0-.2-.2-.1s-.1.1-.1.2.1.2.1.3a2.7,2.7,0,0,0,1,.8,2.4,2.4,0,0,0,1.6-.7,2.4,2.4,0,0,0,1.6.7,3.9,3.9,0,0,0,1-.8c0-.1.1-.2.1-.3S21.7,49.7,21.6,49.7Z" style="fill:#ca743f"/><path d="M19.9,47.7a4.3,4.3,0,0,0-1.6,0c-.7.1-.8.4-.4.9a.1.1,0,0,0,.1.1,1.7,1.7,0,0,0,1,.6h.2l1-.7Q20.7,48,19.9,47.7Z" style="fill:#58393a"/><path d="M15.8,45.7a.7.7,0,0,0-1.1-.2c-.1,0-.1,0-.1.1a1.1,1.1,0,0,0,0,1.7h0a.8.8,0,0,0,1.2-.1h.1a6.4,6.4,0,0,1,.2-.7A1.1,1.1,0,0,0,15.8,45.7Z" style="fill:#58393a"/><path d="M23.4,45.9a.8.8,0,0,0-1.1-.5q-.2,0-.3.3a1.2,1.2,0,0,0-.1,1.5.9.9,0,0,0,1.1.2l.3-.3a2.5,2.5,0,0,0,.2-.7A.7.7,0,0,0,23.4,45.9Z" style="fill:#58393a"/><path d="M20.5,38a3.9,3.9,0,0,1-.4-1.8,2,2,0,0,1,.3-1.1c-.1,0-.1-.1,0-.1h0c.1-.5-.1-.8-.6-.7a1.6,1.6,0,0,0-1,.8,2.2,2.2,0,0,0-.5.8h-.1v-.2c0-.3-.1-.6-.4-.6s-.3,0-.4.1a.9.9,0,0,0-.6.6,3.8,3.8,0,0,0-.7,2.6l.3,1.1a5.9,5.9,0,0,0,1.3,2.3l.8,1h0a1.2,1.2,0,0,0,.8-.1l.7-.6a4,4,0,0,0,.8-2.3Q20.7,38.8,20.5,38Z" style="fill:#ed793e"/><path d="M20,34.3c.3,0,.5.3.4.7h0c-.1,0-.1.1,0,.1a2,2,0,0,0-.3,1.1,3.9,3.9,0,0,0,.4,1.8h0v.2a3.3,3.3,0,0,1,.3,1.5,3.3,3.3,0,0,0-.3-1.5V38A6.6,6.6,0,0,1,24,39.1h.2a3.8,3.8,0,0,1,1.6-1.9,1.5,1.5,0,0,1,1.3-.4,1.9,1.9,0,0,1,1.7,1,3.6,3.6,0,0,1-.1,4.1l-1.6,1.5c.2.7.3,1.3.5,2a1.6,1.6,0,0,0,.3.9,3.5,3.5,0,0,0,.3,1.3,2.9,2.9,0,0,1,.1,1.6,3.6,3.6,0,0,1-.8,1.9l-.5.6a11.8,11.8,0,0,1-2.9,1.6h-.3a12.4,12.4,0,0,1-2.7.3h-4a10.9,10.9,0,0,1-2.6-.3h-.2a13.3,13.3,0,0,1-2.4-1.1,4.9,4.9,0,0,1-2-2.5,1.3,1.3,0,0,1-.1-.6h0a1.6,1.6,0,0,1,.1-1c.2-1,.4-1.9.5-2.8s.3-1.1.4-1.7h0a9.1,9.1,0,0,1-2-2.4,3.2,3.2,0,0,1,.9-3.7,1.9,1.9,0,0,1,1.4-.5l.9.2a4.7,4.7,0,0,1,1.2.9l.7,1.1H14a4,4,0,0,1,2.1-.9,3.8,3.8,0,0,1,.7-2.6.9.9,0,0,1,.6-.6h.3c.3,0,.5.2.5.6v.2h.1a2.2,2.2,0,0,1,.5-.8,1.6,1.6,0,0,1,1-.8H20m0-2h-.6A1.9,1.9,0,0,0,18,33h-.3a1.3,1.3,0,0,0-1.2.4,2.4,2.4,0,0,0-1.4,1.2,4.9,4.9,0,0,0-.8,1.8,3.6,3.6,0,0,0-1.4-1.1,3,3,0,0,0-1.8-.4,3.4,3.4,0,0,0-2.7,1A5.2,5.2,0,0,0,7,41.8a9.1,9.1,0,0,0,1.6,2.4c0,.3-.1.5-.1.8A22.4,22.4,0,0,1,8,47.6a3.1,3.1,0,0,0-.2,1.9,2,2,0,0,0,.2,1,7.6,7.6,0,0,0,2.8,3.6l2.9,1.4h.4a14.5,14.5,0,0,0,3,.4h4a17.5,17.5,0,0,0,3.2-.4h.4a10.7,10.7,0,0,0,3.6-2c.1,0,.1-.1.2-.2h.2l.4-.6a5.8,5.8,0,0,0,1.2-2.8,5.4,5.4,0,0,0-.1-2.2c-.1,0-.1-.1-.1-.2A4.3,4.3,0,0,1,30,47a1.1,1.1,0,0,1-.1-.5c-.1-.2-.1-.4-.2-.6a.3.3,0,0,0-.1-.2c0-.2,0-.3-.1-.4a1.9,1.9,0,0,0-.2-.8,4.3,4.3,0,0,0,.9-1,5.4,5.4,0,0,0,.3-6.4,4.2,4.2,0,0,0-3.4-1.9,3.4,3.4,0,0,0-2.4.7l-1.2,1-1.4-.4h.1c0-.2.1-.4.1-.6h0v-.2h.1a2.6,2.6,0,0,0-2.4-3Z" style="fill:#928e31"/></g></g></g></svg>