<svg xmlns="http://www.w3.org/2000/svg" viewBox="0 0 338.3 105.2"><g style="isolation:isolate"><g id="Layer_2" data-name="Layer 2"><g id="Layer_1-2" data-name="Layer 1"><path d="M169.1,103.7c-57.2,0-109.8-8.5-140.7-22.6C10.8,73,1.5,63.5,1.5,53.6c0-13.7,17.7-26.4,49.7-35.8S124.6,3.5,169.1,3.5c49.8,0,96.5,6.4,128.4,17.6,25.7,9.1,39.3,20.3,39.3,32.5S319.1,80,287.1,89.4,213.7,103.7,169.1,103.7Z" style="fill:#ce894a"/><path d="M169.1,5c51.5,0,97.4,6.8,127.9,17.6,23.9,8.4,38.3,19.2,38.3,31,0,26.8-74.4,48.6-166.2,48.6-58.8,0-110.6-9-140.1-22.5C12.6,72.2,3,63.2,3,53.6,3,26.7,77.4,5,169.1,5m0-3C124.5,2,82.5,7.1,50.8,16.3,35.3,20.9,23,26.2,14.4,32.2S0,46,0,53.6C0,64.1,9.6,74.1,27.8,82.4c31.1,14.3,83.9,22.8,141.3,22.8,44.7,0,86.7-5.1,118.4-14.4,15.5-4.5,27.8-9.9,36.4-15.8s14.4-13.8,14.4-21.4c0-12.9-13.9-24.6-40.3-33.9C266,8.5,219,2,169.1,2Z" style="fill:#ce894a"/><path d="M169.1,101.7c-57.2,0-109.8-8.5-140.7-22.6C10.8,71,1.5,61.5,1.5,51.6c0-13.7,17.7-26.4,49.7-35.8S124.6,1.5,169.1,1.5c49.8,0,96.5,6.4,128.4,17.6,25.7,9.1,39.3,20.3,39.3,32.5S319.1,78,287.1,87.4,213.7,101.7,169.1,101.7Z" style="fill:#f4efd9"/><path d="M169.1,3C220.6,3,266.5,9.8,297,20.6c23.9,8.4,38.3,19.2,38.3,31,0,26.8-74.4,48.6-166.2,48.6-58.8,0-110.6-9-140.1-22.5C12.6,70.2,3,61.2,3,51.6,3,24.7,77.4,3,169.1,3m0-3C124.5,0,82.5,5.1,50.8,14.3,35.3,18.9,23,24.2,14.4,30.2S0,44,0,51.6C0,62.1,9.6,72.1,27.8,80.4c31.1,14.3,83.9,22.8,141.3,22.8,44.7,0,86.7-5.1,118.4-14.4,15.5-4.5,27.8-9.9,36.4-15.8s14.4-13.8,14.4-21.4c0-12.9-13.9-24.6-40.3-33.9C266,6.5,219,0,169.1,0Z" style="fill:#ce894a"/><path d="M313.1,55.6a1.1,1.1,0,0,1,1.5-.5,9.9,9.9,0,0,1,2.3,1.1,4.4,4.4,0,0,1,1.2,1.1,1.3,1.3,0,0,1,.3,1.4,2,2,0,0,1-1.4,1h-2.4l-2.5-.5c-.6-.2-.7-.5-.6-.9l.8-1.3a5.6,5.6,0,0,1,.5-.8A1.6,1.6,0,0,1,313.1,55.6Z" style="fill:#e1cc8c"/><path d="M307.6,62.3c.8-.6,1.2-.5,1.6-.1a6,6,0,0,1,2.1,3c.2,1.1-.6,2-2.1,1.9a11.1,11.1,0,0,1-4.4-1.6c-.5-.3-.5-.6-.2-1l1.5-1.1.8-.7Z" style="fill:#e1cc8c"/><path d="M299.1,67.7c1-.5,1.4-.2,1.7.2a6.5,6.5,0,0,1,1.1,3.3,2,2,0,0,1-.8,1.3,2.5,2.5,0,0,1-1.8.2,9.4,9.4,0,0,1-3.9-2.2c-.4-.4-.4-.7.1-1l1.8-.9Z" style="fill:#e1cc8c"/><path d="M289.2,72.1c1.2-.4,1.5-.1,1.7.4a6.3,6.3,0,0,1,.5,3.3,2.1,2.1,0,0,1-2.8,1.3,11.2,11.2,0,0,1-3.5-2.5c-.4-.4-.3-.7.2-1Z" style="fill:#e1cc8c"/><path d="M278.6,75.7c1.2-.3,1.5,0,1.7.5a5.1,5.1,0,0,1,0,3.3,2,2,0,0,1-2.8,1.1,8,8,0,0,1-3.3-2.7c-.3-.4-.2-.7.3-1Z" style="fill:#e1cc8c"/><path d="M267.6,78.7c1.3-.3,1.5,0,1.6.5a5.7,5.7,0,0,1-.3,3.4,2.1,2.1,0,0,1-2.9.9,7.6,7.6,0,0,1-3-2.9c-.3-.4-.2-.7.4-.9l2.1-.6Z" style="fill:#e1cc8c"/><path d="M256.4,81.1c1.2-.1,1.4.2,1.5.7a6.9,6.9,0,0,1-.5,3.3,2.2,2.2,0,0,1-3,.8,7.3,7.3,0,0,1-2.8-3c-.3-.4-.1-.7.4-.9l2.2-.5Z" style="fill:#e1cc8c"/><path d="M244.9,83.2c1.3-.1,1.5.2,1.5.7a5.5,5.5,0,0,1-.8,3.3,2.1,2.1,0,0,1-3,.7,7.1,7.1,0,0,1-2.6-3.1c-.2-.4-.1-.7.5-.9Z" style="fill:#e1cc8c"/><path d="M233.3,84.9c1.3-.1,1.5.2,1.5.7a5.8,5.8,0,0,1-1,3.3,2.1,2.1,0,0,1-3,.6,7.5,7.5,0,0,1-2.5-3.1q-.3-.7.6-.9A31.1,31.1,0,0,1,233.3,84.9Z" style="fill:#e1cc8c"/><path d="M221.6,86.2c1.3,0,1.5.3,1.5.8a8.4,8.4,0,0,1-1.1,3.3,2.3,2.3,0,0,1-3.1.5,6.6,6.6,0,0,1-2.3-3.2c-.2-.5,0-.7.6-.9l2.2-.3Z" style="fill:#e1cc8c"/><path d="M209.9,87.3c1.3-.1,1.4.3,1.4.8a6,6,0,0,1-1.3,3.2,2.2,2.2,0,0,1-3.1.5,6.5,6.5,0,0,1-2.1-3.3c-.2-.4,0-.7.6-.8A34.2,34.2,0,0,1,209.9,87.3Z" style="fill:#e1cc8c"/><path d="M198.1,88.1c1.3,0,1.4.3,1.3.8a6,6,0,0,1-1.3,3.2,2.3,2.3,0,0,1-3.2.4,6.3,6.3,0,0,1-2-3.3c-.1-.5.1-.8.7-.9Z" style="fill:#e1cc8c"/><path d="M186.3,88.5c1.3.1,1.4.4,1.3.9a6.8,6.8,0,0,1-1.5,3.2,2.3,2.3,0,0,1-3.2.3,6.4,6.4,0,0,1-1.8-3.3c-.2-.5.1-.8.7-.9h4.5Z" style="fill:#e1cc8c"/><path d="M174.4,88.8c1.3,0,1.4.4,1.3.9a7.3,7.3,0,0,1-1.6,3.1,2.3,2.3,0,0,1-3.2.3,6.5,6.5,0,0,1-1.7-3.4c-.1-.5.1-.7.7-.8Z" style="fill:#e1cc8c"/><path d="M162.6,88.8c1.3.1,1.4.4,1.2.9a7.2,7.2,0,0,1-1.7,3.1,2.3,2.3,0,0,1-3.2.2,6.3,6.3,0,0,1-1.6-3.4c-.1-.5.2-.8.8-.8Z" style="fill:#e1cc8c"/><path d="M150.7,88.5c1.3.1,1.4.5,1.3.9a7.5,7.5,0,0,1-1.9,3.1,2.2,2.2,0,0,1-3.2.1,6.2,6.2,0,0,1-1.5-3.4c-.1-.5.2-.7.8-.8A33.4,33.4,0,0,1,150.7,88.5Z" style="fill:#e1cc8c"/><path d="M138.9,88c1.3.1,1.4.5,1.2.9a7.2,7.2,0,0,1-2,3.1,2.3,2.3,0,0,1-3.2,0,6.3,6.3,0,0,1-1.3-3.5c-.1-.4.2-.7.8-.7A33.9,33.9,0,0,1,138.9,88Z" style="fill:#e1cc8c"/><path d="M127.1,87.2c1.3.1,1.3.5,1.2,1a8.6,8.6,0,0,1-2.2,3,2.2,2.2,0,0,1-3.1-.1,5.5,5.5,0,0,1-1.2-3.5c-.1-.5.2-.7.8-.7A32.9,32.9,0,0,1,127.1,87.2Z" style="fill:#e1cc8c"/><path d="M115.4,86.1c1.2.2,1.3.6,1.1,1a8.8,8.8,0,0,1-2.3,3c-1.1.7-2.4.8-3.2-.2a6.2,6.2,0,0,1-1-3.5c0-.5.3-.7.9-.7Z" style="fill:#e1cc8c"/><path d="M103.7,84.7c1.3.2,1.3.6,1,1.1a6.9,6.9,0,0,1-2.4,2.8c-1.1.8-2.4.8-3.1-.2a5.6,5.6,0,0,1-.9-3.6.8.8,0,0,1,1-.6Z" style="fill:#e1cc8c"/><path d="M92.2,83c1.2.3,1.2.6.9,1.1a7.9,7.9,0,0,1-2.6,2.8,2.4,2.4,0,0,1-3.1-.3,5.3,5.3,0,0,1-.6-3.7q0-.6.9-.6l2.3.3Z" style="fill:#e1cc8c"/><path d="M80.7,80.9c1.2.3,1.2.7.9,1.1a8.6,8.6,0,0,1-2.8,2.7c-1.2.6-2.4.6-3.1-.4a5,5,0,0,1-.3-3.6c0-.5.4-.7,1-.7l2.1.4Z" style="fill:#e1cc8c"/><path d="M69.5,78.4c1.1.3,1.1.7.8,1.1a10.7,10.7,0,0,1-3,2.6c-1.3.6-2.5.4-3.1-.6s-.3-2.4-.1-3.6.5-.7,1.1-.6A33.9,33.9,0,0,1,69.5,78.4Z" style="fill:#e1cc8c"/><path d="M58.5,75.3c1.1.4,1,.8.7,1.2A9.4,9.4,0,0,1,56,78.9c-1.3.6-2.6.4-3-.7s-.1-2.4.3-3.6.5-.6,1.1-.5l2,.6Z" style="fill:#e1cc8c"/><path d="M48,71.7c1,.4.9.8.5,1.2A11.3,11.3,0,0,1,45,75.1c-1.4.4-2.6.1-2.9-1s.2-2.4.8-3.6.6-.5,1.2-.4l1.9.8Z" style="fill:#e1cc8c"/><path d="M38.2,67.2c1,.6.8.9.3,1.2a9.2,9.2,0,0,1-3.9,1.8,3,3,0,0,1-1.9-.1,1.4,1.4,0,0,1-.8-1.2c-.1-1.2.8-2.3,1.6-3.4a1.1,1.1,0,0,1,1.3-.3l1.7,1,1,.6Z" style="fill:#e1cc8c"/><path d="M30,61.6c.7.7.4,1-.2,1.3a12.1,12.1,0,0,1-2.5.8l-1.8.3a3,3,0,0,1-1.8-.5c-.2-.2-.4-.4-.4-.6a1.1,1.1,0,0,1,0-.8c.3-1.2,1.7-2.1,2.9-2.9a1,1,0,0,1,1.3,0l.5.5a4.6,4.6,0,0,0,.7.7Z" style="fill:#e1cc8c"/><path d="M24.9,54.9c.2.7-.2.9-.8,1a11.7,11.7,0,0,1-4.6-.3l-.9-.5a2.1,2.1,0,0,1-.4-.6,1.1,1.1,0,0,1,.4-1.4,5.1,5.1,0,0,1,2.1-1,10.3,10.3,0,0,1,2.4-.5c.7-.1,1,.1,1.1.5a7.8,7.8,0,0,1,.3,1.4,1.9,1.9,0,0,1,.2.8A1.4,1.4,0,0,1,24.9,54.9Z" style="fill:#e1cc8c"/><path d="M25.2,47.5a1.1,1.1,0,0,1-1.5.6A16.7,16.7,0,0,1,21.4,47a4.4,4.4,0,0,1-1.2-1.1,1.3,1.3,0,0,1-.3-1.4,1.7,1.7,0,0,1,1.4-1,4.9,4.9,0,0,1,2.4,0l2.5.5c.6.2.7.4.6.8s-.5.8-.8,1.4l-.5.8Z" style="fill:#e1cc8c"/><path d="M30.7,40.9c-.8.6-1.2.4-1.6,0a5.3,5.3,0,0,1-2.1-3c-.2-1.1.6-1.9,2.1-1.9a9.9,9.9,0,0,1,4.4,1.7c.5.3.5.6.2.9l-1.5,1.2-.8.6Z" style="fill:#e1cc8c"/><path d="M39.2,35.5c-1,.4-1.4.2-1.7-.3A6,6,0,0,1,36.4,32a2,2,0,0,1,.8-1.3,1.9,1.9,0,0,1,1.7-.2,9.2,9.2,0,0,1,4,2.2c.4.3.4.6-.1.9l-1.8,1Z" style="fill:#e1cc8c"/><path d="M49.1,31.1c-1.2.3-1.5,0-1.7-.4a6.7,6.7,0,0,1-.5-3.4,2.1,2.1,0,0,1,2.8-1.2,8.7,8.7,0,0,1,3.5,2.5c.4.4.3.7-.2,1Z" style="fill:#e1cc8c"/><path d="M59.7,27.5c-1.2.3-1.5,0-1.7-.5a5.4,5.4,0,0,1,0-3.4,2.1,2.1,0,0,1,2.8-1.1,8.3,8.3,0,0,1,3.3,2.8q.5.6-.3.9Z" style="fill:#e1cc8c"/><path d="M70.7,24.5c-1.3.2-1.5-.1-1.6-.6a5.3,5.3,0,0,1,.3-3.3,2.1,2.1,0,0,1,2.9-1,8.4,8.4,0,0,1,3,2.9c.3.4.2.7-.4.9a9.3,9.3,0,0,1-2.1.6Z" style="fill:#e1cc8c"/><path d="M81.9,22c-1.2.2-1.4-.1-1.5-.6a7.3,7.3,0,0,1,.5-3.4,2.2,2.2,0,0,1,3-.8,8,8,0,0,1,2.8,3c.3.5.1.7-.4.9a14.9,14.9,0,0,1-2.2.5Z" style="fill:#e1cc8c"/><path d="M93.4,20c-1.3.1-1.5-.2-1.5-.7a5.8,5.8,0,0,1,.8-3.4,2.2,2.2,0,0,1,3-.6,7.5,7.5,0,0,1,2.6,3c.2.5.1.8-.5.9Z" style="fill:#e1cc8c"/><path d="M105,18.3c-1.3.1-1.5-.3-1.5-.7a6.2,6.2,0,0,1,1-3.4,2.3,2.3,0,0,1,3-.6,7.8,7.8,0,0,1,2.5,3.2q.3.6-.6.9Z" style="fill:#e1cc8c"/><path d="M116.7,16.9c-1.3.1-1.5-.3-1.5-.7a6.2,6.2,0,0,1,1.1-3.3,2.1,2.1,0,0,1,3.1-.5,6.2,6.2,0,0,1,2.3,3.2c.2.4,0,.7-.6.8l-2.2.3Z" style="fill:#e1cc8c"/><path d="M128.4,15.9c-1.3,0-1.4-.3-1.4-.8a6.8,6.8,0,0,1,1.3-3.3,2.2,2.2,0,0,1,3.1-.4,6.6,6.6,0,0,1,2.1,3.2q.3.8-.6.9Z" style="fill:#e1cc8c"/><path d="M140.2,15.1c-1.3,0-1.4-.4-1.3-.8a6.8,6.8,0,0,1,1.3-3.3,2.2,2.2,0,0,1,3.1-.3,5.9,5.9,0,0,1,2.1,3.3c.1.5-.1.7-.7.8Z" style="fill:#e1cc8c"/><path d="M152,14.6c-1.3,0-1.4-.4-1.3-.9a6.3,6.3,0,0,1,1.5-3.1,2.5,2.5,0,0,1,3.2-.4,6.6,6.6,0,0,1,1.8,3.4c.2.5-.1.7-.7.8l-2.2.2Z" style="fill:#e1cc8c"/><path d="M163.9,14.4c-1.3-.1-1.4-.5-1.3-.9a6.7,6.7,0,0,1,1.6-3.2,2.4,2.4,0,0,1,3.2-.2,6.5,6.5,0,0,1,1.7,3.4c.1.4-.1.7-.7.8Z" style="fill:#e1cc8c"/><path d="M175.7,14.4c-1.3-.1-1.4-.5-1.2-.9a7.7,7.7,0,0,1,1.7-3.2,2.3,2.3,0,0,1,3.2-.1,6.3,6.3,0,0,1,1.6,3.4c.1.5-.2.7-.8.8Z" style="fill:#e1cc8c"/><path d="M187.5,14.6c-1.2-.1-1.3-.4-1.2-.9a8.3,8.3,0,0,1,1.9-3.1,2.4,2.4,0,0,1,3.2-.1c1,.9,1.2,2.3,1.5,3.5s-.2.7-.8.8Z" style="fill:#e1cc8c"/><path d="M199.4,15.2c-1.3-.2-1.4-.5-1.2-1a6.2,6.2,0,0,1,2-3,2.4,2.4,0,0,1,3.2-.1,6.5,6.5,0,0,1,1.3,3.5c.1.5-.2.7-.8.8Z" style="fill:#e1cc8c"/><path d="M211.2,16c-1.3-.2-1.3-.6-1.2-1a7,7,0,0,1,2.2-3,2.2,2.2,0,0,1,3.1,0,5.8,5.8,0,0,1,1.2,3.6c.1.4-.2.7-.8.7Z" style="fill:#e1cc8c"/><path d="M222.9,17.1c-1.2-.2-1.3-.6-1.1-1.1a8.3,8.3,0,0,1,2.3-2.9,2.4,2.4,0,0,1,3.2.1,6.5,6.5,0,0,1,1,3.6c0,.5-.3.7-.9.7Z" style="fill:#e1cc8c"/><path d="M234.6,18.5c-1.3-.3-1.3-.7-1.1-1.1a8.4,8.4,0,0,1,2.5-2.9,2.3,2.3,0,0,1,3.1.2,5.2,5.2,0,0,1,.8,3.6c0,.5-.3.7-.9.7Z" style="fill:#e1cc8c"/><path d="M246.1,20.2c-1.2-.3-1.2-.7-.9-1.1a7.9,7.9,0,0,1,2.6-2.8,2.2,2.2,0,0,1,3.1.3,5.6,5.6,0,0,1,.6,3.6c0,.5-.3.7-.9.7l-2.3-.3Z" style="fill:#e1cc8c"/><path d="M257.6,22.3c-1.2-.3-1.2-.7-.9-1.1a6.9,6.9,0,0,1,2.8-2.7c1.2-.7,2.4-.6,3.1.4a5.5,5.5,0,0,1,.3,3.6c0,.5-.4.7-1,.6l-2.1-.4Z" style="fill:#e1cc8c"/><path d="M268.8,24.8c-1.1-.4-1.1-.7-.8-1.1a8.1,8.1,0,0,1,3-2.6c1.2-.6,2.5-.5,3.1.5s.3,2.5.1,3.7a.9.9,0,0,1-1.1.5Z" style="fill:#e1cc8c"/><path d="M279.8,27.8c-1.1-.4-1-.8-.7-1.1a10,10,0,0,1,3.2-2.5c1.3-.5,2.6-.3,3,.8s.1,2.4-.3,3.6-.5.6-1.1.5l-2-.6Z" style="fill:#e1cc8c"/><path d="M290.3,31.5c-1-.5-.9-.9-.5-1.2a9.6,9.6,0,0,1,3.5-2.2c1.4-.4,2.6-.1,2.9,1s-.2,2.4-.8,3.5-.6.6-1.2.4l-1.9-.7Z" style="fill:#e1cc8c"/><path d="M300.1,36c-1-.6-.8-.9-.3-1.3a12.7,12.7,0,0,1,3.9-1.8,3.9,3.9,0,0,1,1.9.1,1.6,1.6,0,0,1,.8,1.2c.1,1.2-.8,2.4-1.6,3.5a1.1,1.1,0,0,1-1.3.2l-1.7-.9-1-.6Z" style="fill:#e1cc8c"/><path d="M308.3,41.5c-.7-.7-.4-1,.2-1.2a12.5,12.5,0,0,1,2.5-.9l1.8-.2a3,3,0,0,1,1.8.5c.2.2.4.4.4.6a.9.9,0,0,1,0,.7c-.3,1.2-1.7,2.2-2.9,3a1,1,0,0,1-1.3,0l-.5-.5-.7-.7A15.6,15.6,0,0,1,308.3,41.5Z" style="fill:#e1cc8c"/><path d="M313.4,48.3c-.2-.8.2-1,.8-1a10.1,10.1,0,0,1,4.6.3l.9.5.4.6a1.1,1.1,0,0,1-.4,1.4,5.1,5.1,0,0,1-2.1,1l-2.4.5c-.7,0-1-.1-1.1-.5a7.8,7.8,0,0,1-.3-1.4,3.1,3.1,0,0,1-.2-.8A3.9,3.9,0,0,1,313.4,48.3Z" style="fill:#e1cc8c"/><path d="M267.9,54.5a1.1,1.1,0,0,1,1.6,0,8.6,8.6,0,0,1,1.7,1.5,4.2,4.2,0,0,1,.7,1.3c.2,1.2-.7,2.1-2.2,2a8.8,8.8,0,0,1-4.3-1.8c-.4-.3-.5-.6-.1-.9l1.4-1.1Z" style="fill:#e1cc8c"/><path d="M259.6,59.2c1.1-.4,1.4-.1,1.6.3a6.1,6.1,0,0,1,.6,3.4,2,2,0,0,1-2.8,1.2,6.8,6.8,0,0,1-3.4-2.6c-.4-.3-.3-.7.2-.9l1.9-.7,1.1-.4Z" style="fill:#e1cc8c"/><path d="M249.2,62.4c1.2-.2,1.4.1,1.5.6a5.1,5.1,0,0,1-.2,3.4,2.1,2.1,0,0,1-2.9.9,8.3,8.3,0,0,1-3-2.9c-.2-.4-.1-.7.4-.9S248.4,62.6,249.2,62.4Z" style="fill:#e1cc8c"/><path d="M238.1,64.8c1.2-.1,1.5.2,1.5.7a5.5,5.5,0,0,1-.6,3.3,2.2,2.2,0,0,1-3,.8,7.4,7.4,0,0,1-2.7-3.1c-.2-.4,0-.7.5-.9Z" style="fill:#e1cc8c"/><path d="M226.7,66.7c1.3-.2,1.5.2,1.5.7a6.2,6.2,0,0,1-.9,3.3,2.1,2.1,0,0,1-3,.6,7.5,7.5,0,0,1-2.5-3.1q-.3-.7.6-.9A31.8,31.8,0,0,1,226.7,66.7Z" style="fill:#e1cc8c"/><path d="M215.2,68c1.3,0,1.5.3,1.4.8a6.1,6.1,0,0,1-1.1,3.3,2.2,2.2,0,0,1-3,.5,7.1,7.1,0,0,1-2.3-3.2q-.3-.7.6-.9Z" style="fill:#e1cc8c"/><path d="M203.6,69c1.3,0,1.4.4,1.4.8a6.1,6.1,0,0,1-1.3,3.3,2.2,2.2,0,0,1-3.1.4,7.2,7.2,0,0,1-2.1-3.3c-.1-.4.1-.7.7-.8Z" style="fill:#e1cc8c"/><path d="M191.9,69.7c1.3,0,1.4.4,1.4.9a6.8,6.8,0,0,1-1.5,3.2,2.1,2.1,0,0,1-3,.3,6.3,6.3,0,0,1-2-3.3c-.1-.5.1-.7.7-.8Z" style="fill:#e1cc8c"/><path d="M180.2,70.1c1.3.1,1.4.4,1.3.9a6.8,6.8,0,0,1-1.5,3.2,2.3,2.3,0,0,1-3.1.3,6,6,0,0,1-1.8-3.4c-.2-.5.1-.8.7-.8Z" style="fill:#e1cc8c"/><path d="M168.5,70.2c1.3.1,1.4.5,1.3.9a7.7,7.7,0,0,1-1.7,3.2,2.3,2.3,0,0,1-3.1.2,5.8,5.8,0,0,1-1.7-3.4c-.1-.5.1-.7.7-.8Z" style="fill:#e1cc8c"/><path d="M156.8,70.1c1.3.1,1.3.5,1.2.9a7.2,7.2,0,0,1-1.8,3.1,2.2,2.2,0,0,1-3.1.2,6.1,6.1,0,0,1-1.5-3.5c-.1-.5.1-.7.7-.8Z" style="fill:#e1cc8c"/><path d="M145.1,69.7c1.3.1,1.3.5,1.2.9a8.2,8.2,0,0,1-2,3.1,2.2,2.2,0,0,1-3.1,0,5.5,5.5,0,0,1-1.4-3.5c0-.4.2-.7.8-.7A33.9,33.9,0,0,1,145.1,69.7Z" style="fill:#e1cc8c"/><path d="M133.4,68.9c1.3.2,1.3.6,1.2,1a7,7,0,0,1-2.1,3,2.3,2.3,0,0,1-3.2,0,6.4,6.4,0,0,1-1.2-3.5c0-.5.3-.7.9-.8Z" style="fill:#e1cc8c"/><path d="M121.8,67.9c1.3.2,1.3.6,1.1,1a7.8,7.8,0,0,1-2.3,3,2.3,2.3,0,0,1-3.1-.2,6.2,6.2,0,0,1-1-3.5c0-.5.3-.7.9-.7Z" style="fill:#e1cc8c"/><path d="M110.3,66.5c1.2.2,1.2.6,1,1a7.4,7.4,0,0,1-2.4,2.9c-1.2.7-2.4.7-3.2-.3a6,6,0,0,1-.7-3.5c0-.5.3-.7,1-.7A31.8,31.8,0,0,1,110.3,66.5Z" style="fill:#e1cc8c"/><path d="M99,64.6c1.2.3,1.2.7.9,1.1a7.5,7.5,0,0,1-2.7,2.7c-1.2.7-2.5.6-3.1-.4s-.5-2.4-.4-3.6.4-.6,1-.6Z" style="fill:#e1cc8c"/><path d="M88,62.1c1.1.4,1,.8.7,1.2a7.9,7.9,0,0,1-3,2.5c-1.3.6-2.6.4-3.1-.6a5,5,0,0,1,.2-3.6c.1-.5.5-.7,1.1-.6Z" style="fill:#e1cc8c"/><path d="M77.7,58.8c.9.4.8.8.4,1.2a9.1,9.1,0,0,1-3.5,2.1c-1.4.4-2.7,0-2.9-1.1s.5-2.4,1.2-3.5a.9.9,0,0,1,1.2-.3l1.8.7Z" style="fill:#e1cc8c"/><path d="M69.8,54c.5.6.2.9-.4,1.1a9.5,9.5,0,0,1-2.5.7,5.9,5.9,0,0,1-1.9,0,3.5,3.5,0,0,1-1.1-.3l-.4-.3-.3-.3a1.1,1.1,0,0,1-.2-.8,1.1,1.1,0,0,1,.3-.8c.9-1.2,2.7-1.5,4.3-1.7s1,.1,1.1.3l.4,1Z" style="fill:#e1cc8c"/><path d="M70.4,48.6a1.2,1.2,0,0,1-1.6.1,6.6,6.6,0,0,1-1.7-1.6,3.3,3.3,0,0,1-.7-1.3c-.2-1.1.7-2.1,2.2-2a9.9,9.9,0,0,1,4.3,1.9c.4.3.5.6.1.9l-1.4,1Z" style="fill:#e1cc8c"/><path d="M78.7,44c-1.1.3-1.4.1-1.6-.4a5.7,5.7,0,0,1-.6-3.3A2.1,2.1,0,0,1,79.3,39a8.2,8.2,0,0,1,3.4,2.6c.4.4.3.7-.2,1l-1.9.7-1.1.4Z" style="fill:#e1cc8c"/><path d="M89.1,40.7c-1.2.3-1.4-.1-1.5-.5a5.1,5.1,0,0,1,.2-3.4,2.1,2.1,0,0,1,2.9-.9,8.3,8.3,0,0,1,3,2.9c.2.4.1.7-.4.9Z" style="fill:#e1cc8c"/><path d="M100.2,38.3c-1.2.2-1.5-.1-1.5-.6a6.1,6.1,0,0,1,.6-3.4,2.1,2.1,0,0,1,3-.7,7.7,7.7,0,0,1,2.7,3c.2.4,0,.7-.5.9Z" style="fill:#e1cc8c"/><path d="M111.6,36.5c-1.3.1-1.5-.2-1.5-.7a5.9,5.9,0,0,1,.9-3.3,2.1,2.1,0,0,1,3-.6,6.9,6.9,0,0,1,2.5,3.1q.3.6-.6.9C115.2,36.1,112.3,36.4,111.6,36.5Z" style="fill:#e1cc8c"/><path d="M123.1,35.1c-1.3.1-1.5-.3-1.4-.7a5.5,5.5,0,0,1,1.1-3.3,2,2,0,0,1,3-.5,6.2,6.2,0,0,1,2.3,3.2c.2.4,0,.7-.6.8A32.9,32.9,0,0,1,123.1,35.1Z" style="fill:#e1cc8c"/><path d="M134.7,34.1c-1.3,0-1.4-.3-1.4-.8a6,6,0,0,1,1.3-3.2,2.2,2.2,0,0,1,3.1-.5,7.2,7.2,0,0,1,2.1,3.3c.1.5-.1.7-.7.9Z" style="fill:#e1cc8c"/><path d="M146.4,33.4c-1.3,0-1.4-.3-1.4-.8a6.8,6.8,0,0,1,1.5-3.2,2.1,2.1,0,0,1,3-.4,7,7,0,0,1,2,3.4c.1.4-.1.7-.7.8Z" style="fill:#e1cc8c"/><path d="M158.1,33c-1.3,0-1.4-.4-1.3-.8a6.8,6.8,0,0,1,1.5-3.2,2.2,2.2,0,0,1,3.1-.3,6,6,0,0,1,1.8,3.4c.2.5-.1.7-.7.8A32.3,32.3,0,0,1,158.1,33Z" style="fill:#e1cc8c"/><path d="M169.8,32.9c-1.3-.1-1.4-.4-1.3-.9a7.2,7.2,0,0,1,1.7-3.1,2.1,2.1,0,0,1,3.1-.2,5.8,5.8,0,0,1,1.7,3.4c.1.5-.1.7-.7.8A33.8,33.8,0,0,1,169.8,32.9Z" style="fill:#e1cc8c"/><path d="M181.5,33.1c-1.3-.1-1.3-.5-1.2-1a6.8,6.8,0,0,1,1.8-3.1,2.3,2.3,0,0,1,3.1-.1,5.6,5.6,0,0,1,1.5,3.5c.1.4-.1.7-.7.7S182.3,33.1,181.5,33.1Z" style="fill:#e1cc8c"/><path d="M193.2,33.5c-1.3-.1-1.3-.5-1.2-1a6.7,6.7,0,0,1,2-3,2.3,2.3,0,0,1,3.1-.1,5.9,5.9,0,0,1,1.4,3.5c0,.5-.2.7-.8.8Z" style="fill:#e1cc8c"/><path d="M204.9,34.2c-1.3-.1-1.3-.5-1.2-1a8.6,8.6,0,0,1,2.1-3,2.3,2.3,0,0,1,3.2.1c.9.9,1,2.3,1.2,3.5s-.3.7-.9.7Z" style="fill:#e1cc8c"/><path d="M216.5,35.3c-1.3-.2-1.3-.6-1.1-1.1a7.3,7.3,0,0,1,2.3-2.9,2.2,2.2,0,0,1,3.1.1,6.5,6.5,0,0,1,1,3.6c0,.5-.3.7-.9.7Z" style="fill:#e1cc8c"/><path d="M228,36.7c-1.2-.3-1.3-.6-1-1.1a7.8,7.8,0,0,1,2.4-2.8c1.2-.7,2.4-.7,3.2.2a6.3,6.3,0,0,1,.7,3.6c0,.5-.3.7-1,.7Z" style="fill:#e1cc8c"/><path d="M239.3,38.6c-1.2-.3-1.2-.7-.9-1.1a9,9,0,0,1,2.7-2.8c1.2-.6,2.5-.6,3.1.4a5.6,5.6,0,0,1,.4,3.6c-.1.5-.4.7-1,.7Z" style="fill:#e1cc8c"/><path d="M250.3,41c-1.1-.3-1-.7-.7-1.1a9.5,9.5,0,0,1,3-2.6c1.3-.5,2.6-.4,3.1.7a5,5,0,0,1-.2,3.6c-.1.5-.5.6-1.1.5Z" style="fill:#e1cc8c"/><path d="M260.6,44.4c-.9-.5-.8-.8-.4-1.2a11.3,11.3,0,0,1,3.5-2.2c1.4-.4,2.7,0,2.9,1.1s-.5,2.5-1.2,3.5a.9.9,0,0,1-1.2.4l-1.8-.8Z" style="fill:#e1cc8c"/><path d="M268.5,49.2c-.5-.6-.2-.9.4-1.1a9.5,9.5,0,0,1,2.5-.7,6.6,6.6,0,0,1,1.9-.1l1.1.4.4.2.3.4a1.1,1.1,0,0,1,.2.8,1.6,1.6,0,0,1-.3.8c-.9,1.2-2.7,1.5-4.3,1.7s-1-.1-1.1-.4a6.4,6.4,0,0,1-.4-1C269,49.8,268.6,49.4,268.5,49.2Z" style="fill:#e1cc8c"/><ellipse cx="169.1" cy="51.6" rx="127.3" ry="29.7" style="fill:none;stroke:#ddab88;stroke-miterlimit:10;stroke-width:3.10264px;opacity:0.8"/><ellipse cx="169.1" cy="51.6" rx="76.1" ry="12.2" style="fill:none;stroke:#ddab88;stroke-miterlimit:10;stroke-width:3.10264px;opacity:0.8"/><path d="M335.3,51.6c0,26.8-74.4,48.6-166.2,48.6-58.8,0-110.6-9-140.1-22.5,12.2.9,23.8,1.6,34.9,2.1l5.9.3,5.7.2h2.7q30.6.9,55.8-.3a476,476,0,0,0,66.1-7l4.1-.8,6.8-1.4,5.5-1.3,5.4-1.4,5.6-1.5c17.6-5.2,30.9-11.2,41-17.4l3.1-2a92,92,0,0,0,11.6-8.9,73.8,73.8,0,0,0,6.8-7.1l2.1-2.7a57.7,57.7,0,0,0,4.9-8C320.9,29,335.3,39.8,335.3,51.6Z" style="fill:#ddab88;opacity:0.25;mix-blend-mode:multiply"/></g></g></g></svg>