<svg xmlns="http://www.w3.org/2000/svg" xmlns:xlink="http://www.w3.org/1999/xlink" viewBox="0 0 82 45.2"><defs><clipPath id="clip-path" transform="translate(0.3 1)"><path id="SVGID" d="M78.7,18.5c.5,7.2-15.3,5.4-20.5,5.1s-22.7-6.9-19-13.3S54.4,2.4,60.3,3.2,78.2,11.3,78.7,18.5Z" style="fill:none"/></clipPath><clipPath id="clip-path-2" transform="translate(0.3 1)"><path id="SVGID-2" data-name="SVGID" d="M29.3,12.7c3.9,2.6.8,8.2-2.7,15.4s-6.1,13-10.4,11.2S-.2,24.2,3.8,15.9,25.1,10,29.3,12.7Z" style="fill:none"/></clipPath></defs><g id="Layer_2" data-name="Layer 2"><g id="Layer_1-2" data-name="Layer 1"><path d="M56.4,42.3a13.6,13.6,0,0,1-2.9-.3,16.6,16.6,0,0,1-5.3-1.8,4.1,4.1,0,0,1-2-2.5,3.9,3.9,0,0,1,.4-3,29.9,29.9,0,0,0,2.9-6.3,33,33,0,0,0,1.9-8.5,1.7,1.7,0,0,1,.6-1,1.6,1.6,0,0,1,.9-.3h.3l8.5,1.6a1.2,1.2,0,0,1,1,.6,1.3,1.3,0,0,1,.2,1.2,35.7,35.7,0,0,0-.7,15.5,3.9,3.9,0,0,1-.6,3,4.1,4.1,0,0,1-2.9,1.6Z" transform="translate(0.3 1)" style="fill:#fff"/><path d="M52.9,20.1l8.6,1.5a38.2,38.2,0,0,0-.8,16.2,2.4,2.4,0,0,1-2.2,2.8l-2.1.2-2.7-.2A16,16,0,0,1,49,38.9a2.4,2.4,0,0,1-1.1-3.4A34,34,0,0,0,51,28.9a39.6,39.6,0,0,0,1.9-8.8m0-3a3.1,3.1,0,0,0-3,2.6,35.1,35.1,0,0,1-1.8,8.2,27.3,27.3,0,0,1-2.8,6,6.1,6.1,0,0,0-.6,4.2,5.5,5.5,0,0,0,2.8,3.4,16.9,16.9,0,0,0,5.7,2,17.3,17.3,0,0,0,3.2.3l2.6-.2a5.5,5.5,0,0,0,3.8-2.3,5.1,5.1,0,0,0,.9-4,34.4,34.4,0,0,1,.7-14.9A3.4,3.4,0,0,0,64,20a3,3,0,0,0-2-1.3l-8.5-1.6Z" transform="translate(0.3 1)" style="fill:#d8a960"/><path d="M54.1,21.7s-.2,6.1-1.9,9.9" transform="translate(0.3 1)" style="fill:none;stroke:#d8a960;stroke-linecap:round;stroke-linejoin:round;stroke-width:0.9921000000000001px"/><path d="M56.3,23c-.1.4-.4,7.7-2.7,12.2" transform="translate(0.3 1)" style="fill:none;stroke:#d8a960;stroke-linecap:round;stroke-linejoin:round;stroke-width:0.9921000000000001px"/><path d="M58.2,23.6s-1.8,10-1.6,13.1" transform="translate(0.3 1)" style="fill:none;stroke:#d8a960;stroke-linecap:round;stroke-linejoin:round;stroke-width:0.9921000000000001px"/><path d="M58.5,29a35.2,35.2,0,0,0-.1,7.8" transform="translate(0.3 1)" style="fill:none;stroke:#d8a960;stroke-linecap:round;stroke-linejoin:round;stroke-width:0.9921000000000001px"/><g style="clip-path:url(#clip-path)"><path d="M66.8,25.5a67.3,67.3,0,0,1-6.9-.3H58.1c-4.4-.2-17.2-4.8-20.2-10.3a5.1,5.1,0,0,1-.1-5.2c3.5-6,12.7-8.1,19.6-8.1l3.1.2c6.3.7,19.2,8.5,19.7,16.7a5.3,5.3,0,0,1-1.3,4C76.9,24.5,73,25.5,66.8,25.5Z" transform="translate(0.3 1)" style="fill:#e84e2c"/><path d="M57.4,3l2.9.2c5.9.7,17.9,8.1,18.4,15.3.4,4.6-6,5.5-11.9,5.5-3.4,0-6.7-.3-8.6-.4-5.1-.2-22.7-6.9-19-13.3S51.2,3,57.4,3m0-3h0C50.1,0,40.3,2.3,36.5,8.8a6.9,6.9,0,0,0,.1,6.7C40,21.8,53.4,26.4,58.1,26.6h1.7c1.9.2,4.4.3,7,.3,6.7,0,10.9-1.1,13.1-3.6a6,6,0,0,0,1.8-5.1C81.1,9.2,67.5,1,60.7.2L57.4,0Z" transform="translate(0.3 1)" style="fill:#c2331d"/><path d="M54.2,17.2a1.7,1.7,0,0,1-2,1.4,1.6,1.6,0,0,1-1.5-1.9,1.7,1.7,0,0,1,2-1.4A1.6,1.6,0,0,1,54.2,17.2Z" transform="translate(0.3 1)" style="fill:#ed7156"/><path d="M59.6,13.2a2.9,2.9,0,0,1-5.7-.8,2.9,2.9,0,0,1,5.7.8Z" transform="translate(0.3 1)" style="fill:#ed7156"/><path d="M47.7,16.3a5.1,5.1,0,0,1-5.9,4.1,5.1,5.1,0,0,1-4.5-5.7,5.2,5.2,0,0,1,6-4.1A5.1,5.1,0,0,1,47.7,16.3Z" transform="translate(0.3 1)" style="fill:#ed7156"/><path d="M63.2,3.6a4.2,4.2,0,0,1-4.8,3.3,4,4,0,0,1-3.5-4.6A4,4,0,0,1,59.6-1,4.1,4.1,0,0,1,63.2,3.6Z" transform="translate(0.3 1)" style="fill:#ed7156"/><ellipse cx="71.3" cy="10" rx="5.7" ry="6" transform="translate(51.1 80.1) rotate(-81.4)" style="fill:#ed7156"/><path d="M78.4,22.6a3.8,3.8,0,0,1-7.5-1.1,3.6,3.6,0,0,1,4.3-3A3.7,3.7,0,0,1,78.4,22.6Z" transform="translate(0.3 1)" style="fill:#ed7156"/><path d="M61.9,22.9a3.7,3.7,0,1,1-3.2-4A3.6,3.6,0,0,1,61.9,22.9Z" transform="translate(0.3 1)" style="fill:#ed7156"/><path d="M51.9,7.2a3.6,3.6,0,0,1-4.2,2.9,3.7,3.7,0,0,1-3.2-4,3.7,3.7,0,0,1,4.3-3A3.6,3.6,0,0,1,51.9,7.2Z" transform="translate(0.3 1)" style="fill:#ed7156"/><path d="M67.4,18.9a2.9,2.9,0,0,1-3.3,2.3A3,3,0,0,1,61.6,18a2.9,2.9,0,0,1,3.3-2.3A3,3,0,0,1,67.4,18.9Z" transform="translate(0.3 1)" style="fill:#ed7156"/></g><g id="SVGID-3" data-name="SVGID"><path d="M57.4,3l2.9.2c5.9.7,17.9,8.1,18.4,15.3.4,4.6-6,5.5-11.9,5.5-3.4,0-6.7-.3-8.6-.4-5.1-.2-22.7-6.9-19-13.3S51.2,3,57.4,3m0-3h0C50.1,0,40.3,2.3,36.5,8.8a6.9,6.9,0,0,0,.1,6.7C40,21.8,53.4,26.4,58.1,26.6h1.7c1.9.2,4.4.3,7,.3,6.7,0,10.9-1.1,13.1-3.6a6,6,0,0,0,1.8-5.1C81.1,9.2,67.5,1,60.7.2L57.4,0Z" transform="translate(0.3 1)" style="fill:#c2331d"/></g><path d="M39.4,42.2a3.6,3.6,0,0,1-2.6-1.1,28.7,28.7,0,0,0-4.6-4,67.4,67.4,0,0,0-9.7-4.8,1.5,1.5,0,0,1-.9-1.8l2.2-7.8a1.5,1.5,0,0,1,.9-1h.5l.8.2c4,2.3,12.4,5.8,17.1,6.2a3.5,3.5,0,0,1,2.4,1.4,3.4,3.4,0,0,1,.8,2.9A13.7,13.7,0,0,1,45,36.8a14.9,14.9,0,0,1-2.8,4.1A4.1,4.1,0,0,1,39.4,42.2Z" transform="translate(0.3 1)" style="fill:#fff"/><path d="M25.2,23.1c4.1,2.4,12.7,6,17.7,6.4a2.2,2.2,0,0,1,1.9,2.6,10.4,10.4,0,0,1-1.2,4.1,14,14,0,0,1-2.5,3.7,2.5,2.5,0,0,1-1.7.8,1.8,1.8,0,0,1-1.5-.7A36.5,36.5,0,0,0,33,35.8a70.1,70.1,0,0,0-9.9-4.9l2.1-7.8m0-3a2,2,0,0,0-1.1.3,2.9,2.9,0,0,0-1.8,1.9l-2.1,7.8A3,3,0,0,0,22,33.7a62,62,0,0,1,9.3,4.6,26.7,26.7,0,0,1,4.4,3.8,5.2,5.2,0,0,0,3.7,1.6A6,6,0,0,0,43.3,42a20,20,0,0,0,3.1-4.5,17.8,17.8,0,0,0,1.4-5,5.4,5.4,0,0,0-1.1-4.1,4.8,4.8,0,0,0-3.5-1.8c-4.5-.4-12.6-3.9-16.5-6.1a3.7,3.7,0,0,0-1.5-.4Z" transform="translate(0.3 1)" style="fill:#d8a960"/><path d="M28.3,29.2c.3.1,7.2,2.6,10.8,6.1" transform="translate(0.3 1)" style="fill:none;stroke:#d8a960;stroke-linecap:round;stroke-linejoin:round;stroke-width:0.9921000000000001px"/><path d="M29.3,27.5s9.1,4.6,12.1,5.4" transform="translate(0.3 1)" style="fill:none;stroke:#d8a960;stroke-linecap:round;stroke-linejoin:round;stroke-width:0.9921000000000001px"/><path d="M34.6,28.8A41.7,41.7,0,0,0,42,31.2" transform="translate(0.3 1)" style="fill:none;stroke:#d8a960;stroke-linecap:round;stroke-linejoin:round;stroke-width:0.9921000000000001px"/><path d="M33.6,33.3s4.7,3.2,6,5.3" transform="translate(0.3 1)" style="fill:none;stroke:#d8a960;stroke-linecap:round;stroke-linejoin:round;stroke-width:0.9921000000000001px"/><path d="M17.7,41.1a5.2,5.2,0,0,1-2.1-.4c-3.4-1.5-10.4-8.4-13-15.5-1.4-3.8-1.5-7.2-.1-9.9C4.6,11,9.8,8.7,17.1,8.7c5.1,0,10.5,1.2,13,2.8,4.8,3.1,1.9,9.1-1.5,15.9l-1.3,2.7C24.2,36.2,21.9,41.1,17.7,41.1Z" transform="translate(0.3 1)" style="fill:#e84e2c"/><path d="M17.1,10.2c5.1,0,10.1,1.2,12.2,2.5,3.9,2.6.8,8.2-2.7,15.4s-5.4,11.5-8.9,11.5a4.4,4.4,0,0,1-1.5-.3C11.6,37.4-.2,24.2,3.8,15.9c2.1-4.3,7.8-5.7,13.3-5.7m0-3h0c-7.9,0-13.6,2.6-16,7.4-1.5,3.2-1.5,6.9.1,11.1,2.6,7,9.6,14.5,13.8,16.4a8.6,8.6,0,0,0,2.7.5c5.1,0,7.8-5.5,10.9-11.9l.7-1.3.6-1.3c3.4-6.9,6.9-14,1-17.9-2.7-1.7-8.4-3-13.8-3Z" transform="translate(0.3 1)" style="fill:#c2331d"/><g style="clip-path:url(#clip-path-2)"><path d="M20.7,29.2a1.7,1.7,0,0,1,.7,2.3,1.8,1.8,0,0,1-2.3.9,1.6,1.6,0,0,1-.7-2.3A1.7,1.7,0,0,1,20.7,29.2Z" transform="translate(0.3 1)" style="fill:#ed7156"/><path d="M15.8,20.9A2.7,2.7,0,0,1,17,24.6,2.8,2.8,0,0,1,13.3,26a2.8,2.8,0,0,1-1.2-3.7A2.7,2.7,0,0,1,15.8,20.9Z" transform="translate(0.3 1)" style="fill:#ed7156"/><path d="M17.9,34.2a5.1,5.1,0,0,1,2.2,6.9,5,5,0,0,1-6.7,2.5,4.9,4.9,0,0,1-2.2-6.8A5,5,0,0,1,17.9,34.2Z" transform="translate(0.3 1)" style="fill:#ed7156"/><path d="M5.6,15.3a4,4,0,0,1,1.7,5.5,4.1,4.1,0,0,1-5.4,2.1A4,4,0,0,1,.2,17.4,4,4,0,0,1,5.6,15.3Z" transform="translate(0.3 1)" style="fill:#ed7156"/><path d="M16.7,7a5.8,5.8,0,0,1,2.5,7.8,5.9,5.9,0,0,1-7.7,3A5.9,5.9,0,0,1,9,9.9,5.8,5.8,0,0,1,16.7,7Z" transform="translate(0.3 1)" style="fill:#ed7156"/><path d="M29.8,7.1a3.7,3.7,0,0,1,1.6,5A3.7,3.7,0,0,1,26.5,14a3.7,3.7,0,0,1-1.6-5A3.8,3.8,0,0,1,29.8,7.1Z" transform="translate(0.3 1)" style="fill:#ed7156"/><path d="M27.5,22.9a3.6,3.6,0,0,1,1.6,4.9,3.5,3.5,0,1,1-6.3-3A3.5,3.5,0,0,1,27.5,22.9Z" transform="translate(0.3 1)" style="fill:#ed7156"/><path d="M8.9,24a3.6,3.6,0,0,1,1.6,4.9,3.7,3.7,0,0,1-4.8,1.9,3.8,3.8,0,0,1-1.6-4.9A3.7,3.7,0,0,1,8.9,24Z" transform="translate(0.3 1)" style="fill:#ed7156"/><path d="M23,16.6a2.8,2.8,0,0,1,1.2,3.8,2.7,2.7,0,0,1-3.7,1.4A2.8,2.8,0,0,1,19.3,18,2.7,2.7,0,0,1,23,16.6Z" transform="translate(0.3 1)" style="fill:#ed7156"/></g></g></g></svg>