<svg xmlns="http://www.w3.org/2000/svg" viewBox="0 0 37.6 34.9"><g id="Layer_2" data-name="Layer 2"><g id="Layer_1-2" data-name="Layer 1"><path d="M19.7,16.8S15.3,11,8.5,9.7-.7,16.1,2.3,22.2s11.5,3.5,11.9,3.3-4.4,2.9-1.5,7,7.2-1.5,7.8-3.6S19.7,16.8,19.7,16.8Z" style="fill:#a48bc0"/><path d="M16.7,25.5a6.4,6.4,0,0,0-1.3,2.6c-.1.6-.3,1.6.3,2s2.2-.1,2.8-.7a8.9,8.9,0,0,0,2.1-3.3,5.7,5.7,0,0,0,.4-1.4c.1-.5.4-1.8-.5-1.2a10,10,0,0,1-2.1,1A3.3,3.3,0,0,0,16.7,25.5Z" style="fill:#7454a2"/><path d="M7.7,14c-.2-1.1-2.4-1.3-3.2-.9s.6,2,1.5,2S7.9,14.9,7.7,14Z" style="fill:#d4c2de"/><path d="M7,18.4c-.2-1-2.2-1.1-3-.7s.6,1.8,1.3,1.8S7.1,19.2,7,18.4Z" style="fill:#d4c2de"/><path d="M7.9,21.7c-.5-1-2.5-.5-3.1.2s1.1,1.5,1.8,1.3S8.3,22.4,7.9,21.7Z" style="fill:#d4c2de"/><path d="M19.6,16.1s-.4-7.2,4-12.7S34.8,2.4,36.4,9s-6.5,10.2-6.9,10.2,5.2-.5,5.6,4.4-6.5,3.5-8.3,2.3S19.6,16.1,19.6,16.1Z" style="fill:#a48bc0"/><path d="M21.6,12.8a12.7,12.7,0,0,1,2.6-3.9c.6-.5,2.7-1.7,2.4,0s-2,2.7-3,3.6-3,2.3-2.3.5Z" style="fill:#7454a2"/><path d="M20.7,16.9a31.6,31.6,0,0,1,5.4-5.6c.6-.6,3-2.4,3.6-.6s-3.7,4.1-5,4.8-3.2,2.4-4,1.6Z" style="fill:#7454a2"/><path d="M21.1,19a37.6,37.6,0,0,1,7.2-4.8c.7-.4,3.7-1.8,3.8-.4s-1.6,1.9-2.1,2.4a21,21,0,0,1-3.9,2.1,7.3,7.3,0,0,1-5,.8Z" style="fill:#7454a2"/><path d="M15.9,14.6a12.4,12.4,0,0,0-4.6-1.1c-.9,0-3.2.6-1.9,1.6s3.3.7,4.8.7,3.8-.4,2-1.3Z" style="fill:#7454a2"/><path d="M18.2,17.3a29.3,29.3,0,0,0-7.3-.4c-.8,0-3.5.3-2.9,1.8s5.1.5,6.4.2,3.7-.4,3.9-1.5Z" style="fill:#7454a2"/><path d="M20,18.5a35.4,35.4,0,0,0-7.9,1.4c-.6.2-3.6,1.2-2.8,2.1s2.2.3,2.8.2a24.8,24.8,0,0,0,3.9-1,8.5,8.5,0,0,0,4-2.6Z" style="fill:#7454a2"/><path d="M28.6,20.9a5.7,5.7,0,0,1,2.6,1.5c.4.4,1.1,1.1.8,1.7s-2.1,1.3-3,1.1a10,10,0,0,1-3.7-1.5l-1.1-1c-.4-.4-1.3-1.3-.2-1.4a10.6,10.6,0,0,0,2.5-.2A3.1,3.1,0,0,1,28.6,20.9Z" style="fill:#7454a2"/><path d="M21.5,18.1a2.8,2.8,0,0,0-1.2-.8l-2,2a5.7,5.7,0,0,1,1.1,1.1A2.7,2.7,0,0,0,21.5,18.1Z" style="fill:#f0c11d"/><path d="M23,20.2a15.9,15.9,0,0,0-1.5-2.1,2.7,2.7,0,0,1-2.1,2.3,4.4,4.4,0,0,1,.7,1.9A2.7,2.7,0,0,0,23,20.2Z" style="fill:#ffd771"/><path d="M24.8,23.7l-.9-1.9a11.4,11.4,0,0,1-.9-1.6,2.7,2.7,0,0,1-2.9,2.1l.3,2.1c0,.3.1.7.1,1A3.7,3.7,0,0,0,24.8,23.7Z" style="fill:#f0c11d"/><path d="M20.9,27.4A3,3,0,0,0,22.2,29c1.8,1,3.3-.2,3.4-2.1v-.4A4.4,4.4,0,0,1,20.9,27.4Z" style="fill:#f0c11d"/><path d="M24.8,23.7a3.7,3.7,0,0,1-4.3,1.7,11.8,11.8,0,0,0,.4,2,4.4,4.4,0,0,0,4.7-.9A6.9,6.9,0,0,0,24.8,23.7Z" style="fill:#ffd771"/><path d="M21.9,12.9c-1.5-2.4-4.7-1.7-6.6-.1s-2.5,4.7-.2,6.3,5.8,1.2,6.8-1.5S22.8,14.3,21.9,12.9Z" style="fill:#ffd771"/><path d="M15,13.4a5.4,5.4,0,0,0-1.8-1.5,2.4,2.4,0,0,0-1.2-.1.8.8,0,0,0-.7.4,1.3,1.3,0,0,0-.1.6c.3.5.6.5.8-.1s-.2.4-.3.2.4-.8.7-.3-1.1,1.3-1.4.5.5-1.7,1.4-1.7a3.8,3.8,0,0,1,2.8,1.8c.2.2-.1.4-.2.2Z" style="fill:#f0c11d"/><path d="M17.8,11.7a5.8,5.8,0,0,1-1-1.9,1.7,1.7,0,0,1-.1-1.2c0-.2.2-.4.4-.6h.6c.6,0,.6.3,0,.7s.2.3.3.1-.9-.6-.8.1,2,.2,1.4-.8-2-.3-2.3.5.5,2.5,1.1,3.4.5,0,.4-.2Z" style="fill:#f0c11d"/><path d="M27,6.3c-.6-1,1-2.6,1.9-2.8s.7,1.9.1,2.5S27.4,7.1,27,6.3Z" style="fill:#d4c2de"/><path d="M30.4,9.2c-.6-.9.9-2.3,1.8-2.5s.7,1.7.1,2.2S30.8,9.9,30.4,9.2Z" style="fill:#d4c2de"/><path d="M31.7,11.8c0-1,2-1.4,2.8-1.1s-.3,1.8-1,1.9S31.7,12.7,31.7,11.8Z" style="fill:#d4c2de"/><path d="M28.2,1c3.5,0,7.1,3.5,8.2,8,1.6,6.7-6.5,10.2-6.9,10.2h.4c1.3,0,4.8.4,5.2,4.4s-1.6,3.5-3.7,3.5a9.1,9.1,0,0,1-4.6-1.2,7.4,7.4,0,0,1-1.9-2,5.9,5.9,0,0,1,.7,2.6v.4c-.1,1.4-.9,2.5-2.1,2.5a2.4,2.4,0,0,1-1.3-.4,3,3,0,0,1-1.3-1.6,2.9,2.9,0,0,1-.2-.9,7.6,7.6,0,0,1-.2,2.4c-.4,1.6-3,5-5.4,5a2.8,2.8,0,0,1-2.4-1.4c-2.9-4.1,1.5-7,1.5-7h0a14.6,14.6,0,0,1-4.5.7c-2.7,0-5.8-.8-7.4-4C-.5,16.6,1.3,9.5,7,9.5l1.5.2a17.4,17.4,0,0,1,6.9,3,5.7,5.7,0,0,1,1.9-1c-.6-.9-1.3-2.2-1-3.2a1.7,1.7,0,0,1,1.4-1,1.1,1.1,0,0,1,.9.5.9.9,0,0,1-.8,1.3.6.6,0,0,1-.6-.5c-.1-.4.2-.5.5-.5h.2c.3-.3.2-.5-.2-.5h-.6c-.2.2-.4.4-.4.6a1.7,1.7,0,0,0,.1,1.2,5.6,5.6,0,0,0,.9,1.7l1.4-.2.9.2a18.6,18.6,0,0,1,3.6-8.1A5.9,5.9,0,0,1,28.2,1m0-1h0a7.1,7.1,0,0,0-5.4,2.8,19.5,19.5,0,0,0-3.1,5.9,1.7,1.7,0,0,0-.2-1.2,2.1,2.1,0,0,0-1.8-1,2.7,2.7,0,0,0-2.4,1.7,3.8,3.8,0,0,0,.6,3l-.5.3A18.4,18.4,0,0,0,8.7,8.7L7,8.5H7a6.6,6.6,0,0,0-5.7,3.1C-.5,14.5-.4,19,1.4,22.7s4.4,4.5,8.3,4.5h1.7a4.9,4.9,0,0,0-.6,1.7,5.3,5.3,0,0,0,1.1,4.3,3.7,3.7,0,0,0,3.2,1.8c2.8,0,5.4-3.4,6.2-5.3l.5.3a3.4,3.4,0,0,0,1.7.5A3.3,3.3,0,0,0,26.6,27h0a10.9,10.9,0,0,0,4.8,1.2,4.9,4.9,0,0,0,3.8-1.4,4.2,4.2,0,0,0,.9-3.2,5.3,5.3,0,0,0-3.5-4.8,11.3,11.3,0,0,0,3.5-3.4,8,8,0,0,0,1.3-6.5C36.2,3.8,32.2,0,28.2,0ZM18.1,10.3a2.3,2.3,0,0,0,1.4-1c0-.1,0-.1.1-.2a5.3,5.3,0,0,0-.3,1.2H18.1Z" style="fill:#7454a2"/></g></g></svg>