<svg xmlns="http://www.w3.org/2000/svg" viewBox="0 0 21 25.1"><g id="Layer_2" data-name="Layer 2"><g id="Layer_1-2" data-name="Layer 1"><g id="food_3_1" data-name="food 3_1"><path d="M14.1,1a1.1,1.1,0,0,1,.7.3c.5.3.5,3-1,5.1l.5.3h0A11.2,11.2,0,0,1,17.8,9a5.9,5.9,0,0,1,1.6,2.1h0l.2.3h0a3.4,3.4,0,0,1-2.4,5l-1.6.2c-3.6,0-10.1-1.4-13-4.3s-.4-6.1-.4-6.1a.2.2,0,0,1,.2-.2h0l.8-.6h0a9.1,9.1,0,0,1,2.6-.6h.8l3.3.3h0a14,14,0,0,1,2.9.9c.6-1.1,1.5-3.2.7-4.5a.5.5,0,0,1,.6-.6m0-1a1.7,1.7,0,0,0-1.2.5,1.6,1.6,0,0,0-.4,1.2c0,.2.1.3.1.4s.2,1.5-.3,2.7l-2.2-.6L6.6,3.9h-1a7.7,7.7,0,0,0-2.8.7h0l-1.1.7a.1.1,0,0,1-.1.1v.2A5,5,0,0,0,0,9a5.8,5.8,0,0,0,1.9,4.1c3.1,3.2,9.8,4.6,13.7,4.6l1.8-.2a4.4,4.4,0,0,0,3.1-2.3,5.3,5.3,0,0,0,.1-4.1h-.1l-.2-.4a7.6,7.6,0,0,0-1.8-2.3A10.7,10.7,0,0,0,15.2,6c1.1-2.2,1.3-4.8.2-5.6A3.3,3.3,0,0,0,14.1,0Z" style="fill:#3f1c0b"/><path d="M12.4,6.8s2.2-3.3,1.1-5.2.7-.8,1.3-.3.5,3.8-1.6,6C12.4,7.8,12.1,7.2,12.4,6.8Z" style="fill:#572406"/><path d="M2.2,6.3s-3,2.7.4,6.1,12,4.7,14.6,4.1,4.4-3.9.6-7.5S4.9,3.4,2.2,6.3Z" style="fill:#71350e"/><path d="M14.3,14.2c-.2.1-.3.2-.3.4s.2.3.3.3h.1c3.2-.7,4.7-2,5.4-3.1a2.5,2.5,0,0,0-.4-.7C19,11.9,17.7,13.5,14.3,14.2Z" style="fill:#572406"/><path d="M12.5,12.3a.4.4,0,0,0-.1.5h.5a19.9,19.9,0,0,0,4.6-4.2L17,8.3A19.3,19.3,0,0,1,12.5,12.3Z" style="fill:#572406"/><path d="M10.4,12h.4c1.5-1.2,2.9-4,3.5-5.3l-.6-.3c-.6,1.3-2,4-3.3,5.1S10.2,11.9,10.4,12Z" style="fill:#572406"/><path d="M9.2,10.5a.3.3,0,0,0,.3.3h0c.2.1.4-.1.4-.3.2-2.1.5-4,.7-5.1l-.7-.2C9.7,6.3,9.4,8.3,9.2,10.5Z" style="fill:#572406"/><path d="M6.8,9.8H7c.1,0,.2-.2.2-.4a14.2,14.2,0,0,1-.6-4.5H5.8a16,16,0,0,0,.7,4.7Z" style="fill:#572406"/><path d="M4,9.8h.5a.4.4,0,0,0,0-.5A4.8,4.8,0,0,1,3.2,5.5l-.8.6A4.8,4.8,0,0,0,4,9.8Z" style="fill:#572406"/><path d="M5.4,24.6a1.4,1.4,0,0,1-1-.5A2.8,2.8,0,0,1,4,22C.6,19.8.3,17,.6,14.3c.5-4.2,3.1-5.4,3.2-5.4a8,8,0,0,1,3.3-.6,12.9,12.9,0,0,1,4.6.9c3.9,1.5,6.1,4.4,5.6,7.4-1.7,6.4-6.2,7.1-8,7.1h0a7.6,7.6,0,0,1-2.1-.3A2.4,2.4,0,0,1,5.4,24.6Z" style="fill:#f58b31"/><path d="M7.1,8.8a12.3,12.3,0,0,1,4.5.9c3.3,1.3,5.7,3.8,5.2,6.8-1.4,5.1-4.6,6.7-7.5,6.7A8.5,8.5,0,0,1,7,22.9c-.6.8-1.2,1.2-1.6,1.2S4.3,23,4.5,21.8c-3.6-2.3-3.6-5-3.4-7.4.5-4,2.9-5,2.9-5a7,7,0,0,1,3.1-.6m0-1a6.5,6.5,0,0,0-3.5.7c-.4.2-3,1.5-3.5,5.8a7.9,7.9,0,0,0,3.3,8A3.5,3.5,0,0,0,4,24.4a1.7,1.7,0,0,0,1.4.7,2.9,2.9,0,0,0,2-1.1l1.9.2c1.9,0,6.7-.7,8.5-7.4h0c.6-3.2-1.8-6.4-5.9-8a14,14,0,0,0-4.8-.9Z" style="fill:#a8662f"/><path d="M11.6,9.7C6.8,7.8,4,9.4,4,9.4a3.7,3.7,0,0,0-1.7,1.5c.8-.7,2.4-1.4,5.6-1s7.2,3.7,6.8,6.9S12.2,23.1,6.4,22c-.2.7-.6,1.9-1.6,1.8.5.5,1.2.4,2.2-.9,3.1,1,8,.2,9.8-6.4C17.3,13.5,14.9,11,11.6,9.7Z" style="fill:#e67922"/></g></g></g></svg>