<svg xmlns="http://www.w3.org/2000/svg" viewBox="0 0 143.9 300.5"><g id="Layer_2" data-name="Layer 2"><g id="Layer_1-2" data-name="Layer 1"><g id="Layer_2-2" data-name="Layer 2"><g id="Layer_1-2-2" data-name="Layer 1-2"><g id="Squirrel_toy_1" data-name="Squirrel toy 1"><path d="M26.7,298.1l-5.9-.7a2.6,2.6,0,0,1-1.9-1.5H17.2l-1.4-.3-.7-.2a1.1,1.1,0,0,1-.7-.3h0a3.2,3.2,0,0,1-2.1.8,4.1,4.1,0,0,1-1.6-.3,21.2,21.2,0,0,1-3.8-1.3A3.1,3.1,0,0,1,5.2,293a2.8,2.8,0,0,1-.6-1.8v-.5a4.4,4.4,0,0,1-2-2.5v-1.5a71.2,71.2,0,0,1,1.6-10.3,38.1,38.1,0,0,1,2.7-6.6l.4-.5a8.6,8.6,0,0,1,7.3-4.9h1.8a7.5,7.5,0,0,1,2.6.5,8.4,8.4,0,0,1,3.2,3.3,37.4,37.4,0,0,1,2.2,4.5,37.3,37.3,0,0,1,3.9,11.2c.4,2.4.6,4.8.8,7.1l.4,4.6a2.4,2.4,0,0,1-2.3,2.5h-.5Z" style="fill:#ffdeae"/><path d="M14.6,266.8h1.6a4.1,4.1,0,0,1,1.6.3,5.8,5.8,0,0,1,2.2,2.2,31.1,31.1,0,0,1,2,4.1,37.6,37.6,0,0,1,3.8,10.8c.4,2.3.6,4.6.8,6.9a35.7,35.7,0,0,0,.4,4.6l-5.9-.7-.3-1.7H17.6l-2.1-.5c-.2-2,0-14.7-.2-18.9-.3,1.9-1.8,16.9-2.4,18.8a.9.9,0,0,1-.3.6.4.4,0,0,1-.5.1h-.7L8,292a.8.8,0,0,1-.6-.4.6.6,0,0,1,0-.6v-3.3A6.5,6.5,0,0,1,7,289c-.7-.3-1.5-.7-1.6-1.4v-.7a54,54,0,0,1,1.5-9.8,26.3,26.3,0,0,1,2.5-6l.2-.5a6.7,6.7,0,0,1,5.4-3.7m0-4.8a11.1,11.1,0,0,0-9.5,6.1c0,.1-.3.4-.4.6a31.9,31.9,0,0,0-3.3,7A64.4,64.4,0,0,0,.1,286.5a8.9,8.9,0,0,0,0,2.3,6.7,6.7,0,0,0,2,3.3,5.4,5.4,0,0,0,.9,2.4,5.8,5.8,0,0,0,2.9,2.2l3.6,1.4a7,7,0,0,0,2.5.5,6.4,6.4,0,0,0,2.7-.7h0l1.8.4h.8a4.7,4.7,0,0,0,2.9,1.4l5.9.7h.6a4.7,4.7,0,0,0,3.5-1.3,4.6,4.6,0,0,0,1.7-3.8l-.3-4.5c-.2-2.5-.4-4.9-.8-7.4a43.3,43.3,0,0,0-4.2-11.9,23.8,23.8,0,0,0-2.3-4.5,9.3,9.3,0,0,0-4.2-4.1,9.1,9.1,0,0,0-3.7-.8H15Z" style="fill:#7c3505"/><path d="M13.3,12.2h5.3c1.6,0,2.9,3.2,2.9,7.1V261.4c0,3.9-1.3,7.1-2.9,7.1H13.3c-1.6,0-2.9-3.2-2.9-7.1V19.3C10.4,15.4,11.7,12.2,13.3,12.2Z" style="fill:#ffdeae"/><path d="M18.6,19.2V261.5H13.3V19.2h5.3m0-14.1H13.3c-3.1,0-5.7,6.3-5.7,14.1V261.5c0,7.7,2.6,13.9,5.7,13.9h5.3c3.2,0,5.7-6.2,5.7-13.9V19.2c0-7.8-2.5-14.1-5.7-14.1Z" style="fill:#7c3505"/><path d="M14.9,21.3a7,7,0,0,1-5.6-2.6A5.5,5.5,0,0,1,7.9,15a4.4,4.4,0,0,1-1.1-2.4c-.1-.2-.1-.3,0-.4a8.8,8.8,0,0,1,0-2.3.8.8,0,0,1,0-.7,8.1,8.1,0,0,1,8.9-6.8A9,9,0,0,1,22.5,5a9.7,9.7,0,0,1,2.9,7.2,7.9,7.9,0,0,1,.2,6.2,3.7,3.7,0,0,1-3,1.9,4.6,4.6,0,0,1-4.4.2A6.4,6.4,0,0,1,14.9,21.3Z" style="fill:#e0a070"/><path d="M15.7,4.8c3.4,0,7.2,2.3,7.1,8,.9,1.2,1.3,5.1-.6,5.1a.6.6,0,0,1-.6,0,1.9,1.9,0,0,1-2.5.8,1.8,1.8,0,0,1-.9-1.2,4.4,4.4,0,0,1-3.4,1.6,4.3,4.3,0,0,1-4.5-4,3.4,3.4,0,0,1,0-1A2.4,2.4,0,0,1,9,12.3H9V10.2H9V9.7a6,6,0,0,1,6.7-4.9m0-4.8h0A10.9,10.9,0,0,0,4.3,9.1h0v.6a12.2,12.2,0,0,0,0,2.7v.5a8.1,8.1,0,0,0,1.2,2.9,8.3,8.3,0,0,0,1.9,4.4,9.5,9.5,0,0,0,7.5,3.2,8,8,0,0,0,3.4-.5,6.3,6.3,0,0,0,1.9.3,7.7,7.7,0,0,0,3.4-.8,6.3,6.3,0,0,0,4.3-3.1,9.6,9.6,0,0,0,0-7.8,11.9,11.9,0,0,0-3.8-8.2A12.1,12.1,0,0,0,15.7,0Z" style="fill:#7c3505"/><path d="M13.9,277.4a9.6,9.6,0,0,1-7.3-3.3,7.2,7.2,0,0,1-1.8-5.2,8.5,8.5,0,0,1-1.8-7,7.1,7.1,0,0,1,2.2-5.3,8.6,8.6,0,0,1,6.2-2.7,6.1,6.1,0,0,1,3.7,1,17.3,17.3,0,0,1,3.2-.3c7.5,0,9.1,5.4,9.7,10.8a10.2,10.2,0,0,1,.4,8.4,4.2,4.2,0,0,1-3.7,2.2,5.1,5.1,0,0,1-3.1,1.1,5.3,5.3,0,0,1-3-.9A9.4,9.4,0,0,1,13.9,277.4Z" style="fill:#e0a070"/><path d="M11.4,256.1a4.3,4.3,0,0,1,3.1,1.2,23.3,23.3,0,0,1,3.8-.4c5.1,0,6.8,2.9,7.3,9.2,1.3,1.7,1.9,7.5-.9,7.5l-.7-.2a2.5,2.5,0,0,1-2.3,1.2,2.6,2.6,0,0,1-2.6-1.8,6.3,6.3,0,0,1-5,2.2,6.3,6.3,0,0,1-6.7-5.7,8.1,8.1,0,0,1,.1-1.6c-2.2-.9-2.1-3.8-1.9-5.7h0a6,6,0,0,1,5.9-5.9m0-4.7a11.1,11.1,0,0,0-8,3.5,9.8,9.8,0,0,0-2.9,7,11.4,11.4,0,0,0,1.8,7.8,9.9,9.9,0,0,0,2.3,5.9,11.8,11.8,0,0,0,9.2,4.2,12.7,12.7,0,0,0,4.7-.9,8,8,0,0,0,3,.6,7.2,7.2,0,0,0,4-1.2,6.3,6.3,0,0,0,5-3.3,12.3,12.3,0,0,0-.2-10.1c-.4-4.1-2-12.4-12.1-12.4H15.6a9.9,9.9,0,0,0-4.2-.9Z" style="fill:#7c3505"/></g></g><g id="Layer_2-3" data-name="Layer 2"><g id="Layer_1-2-3" data-name="Layer 1-2"><g id="Squirrel_toy_1-2" data-name="Squirrel toy 1"><path d="M138.7,298.1l-6-.7a2.4,2.4,0,0,1-1.9-1.5h-1.7l-1.4-.3-.6-.2-.8-.2h0a2.6,2.6,0,0,1-2.1.7,4.5,4.5,0,0,1-1.6-.3,21.1,21.1,0,0,1-3.8-1.2,3.7,3.7,0,0,1-1.7-1.3,2.6,2.6,0,0,1-.5-1.9.4.4,0,0,1,0-.5,3.9,3.9,0,0,1-2-2.5,3.3,3.3,0,0,1,0-1.4,52.3,52.3,0,0,1,1.6-10.4,27,27,0,0,1,2.7-6.6l.3-.5a9.1,9.1,0,0,1,7.3-4.9h1.8a5.8,5.8,0,0,1,2.6.6,7.3,7.3,0,0,1,3.2,3.3,25.8,25.8,0,0,1,2.2,4.4,37.3,37.3,0,0,1,3.9,11.2,44.1,44.1,0,0,1,.8,7.1l.4,4.6a2.5,2.5,0,0,1-2.3,2.6h-.4Z" style="fill:#ffdeae"/><path d="M126.5,266.8h1.7a3.7,3.7,0,0,1,1.5.3,5.4,5.4,0,0,1,2.2,2.3,18.7,18.7,0,0,1,2,4,38.6,38.6,0,0,1,3.8,10.8c.4,2.3.6,4.6.8,6.9a34.2,34.2,0,0,0,.4,4.6l-5.8-.6-.4-1.8v.2h-3.1c-1.1-.2-1.1-.4-2.1-.6-.3-2,0-14.7-.3-18.9-.3,2-1.8,16.9-2.4,18.8a.6.6,0,0,1-.3.6l-.4.2-.8-.2-3.4-1.3-.6-.5v-3.9a3.3,3.3,0,0,1-.4,1.3c-.6-.3-1.4-.6-1.6-1.4V287a63.8,63.8,0,0,1,1.5-9.9,26.3,26.3,0,0,1,2.5-6l.3-.4a6.8,6.8,0,0,1,5.3-3.8m0-4.8a11.1,11.1,0,0,0-9.5,6.1c0,.2-.3.4-.4.7a31.2,31.2,0,0,0-3.3,6.9,78.3,78.3,0,0,0-1.7,10.8,8.1,8.1,0,0,0,0,2.2,6.3,6.3,0,0,0,2,3.3,5.8,5.8,0,0,0,.9,2.5,6.2,6.2,0,0,0,2.9,2.1l3.6,1.4a7.4,7.4,0,0,0,2.5.5,5,5,0,0,0,2.7-.7h0l1.8.4h.9a4.2,4.2,0,0,0,2.8,1.4l6,.8h.6a5.1,5.1,0,0,0,3.4-1.3,5.3,5.3,0,0,0,1.8-3.8l-.4-4.6a60.3,60.3,0,0,0-.8-7.3,36,36,0,0,0-4.2-11.9,27.7,27.7,0,0,0-2.2-4.6,10.4,10.4,0,0,0-4.3-4,7.6,7.6,0,0,0-3.6-.8h-1.5Z" style="fill:#7c3505"/><path d="M125.2,12.2h5.4c1.5,0,2.8,3.2,2.8,7.1V261.4c0,3.9-1.3,7.1-2.8,7.1h-5.4c-1.5,0-2.8-3.2-2.8-7.1V19.3C122.4,15.4,123.7,12.2,125.2,12.2Z" style="fill:#ffdeae"/><path d="M130.6,19.2V261.5h-5.4V19.2h5.4m0-14.1h-5.4c-3.1,0-5.7,6.3-5.7,14.1V261.5c.1,7.7,2.6,14,5.7,14h5.4c3.1,0,5.6-6.3,5.6-14V19.2c0-7.8-2.5-14.1-5.6-14.1Z" style="fill:#7c3505"/><path d="M126.8,21.3a7.3,7.3,0,0,1-5.6-2.5,6.5,6.5,0,0,1-1.4-3.7,4.7,4.7,0,0,1-1.1-2.5v-.3a8.8,8.8,0,0,1,0-2.3V9.3a8.5,8.5,0,0,1,9-6.9A9.5,9.5,0,0,1,134.5,5a10,10,0,0,1,2.8,7.3,7.6,7.6,0,0,1,.2,6.1,3.7,3.7,0,0,1-2.9,1.9,4.3,4.3,0,0,1-4.4.3A6.7,6.7,0,0,1,126.8,21.3Z" style="fill:#e0a070"/><path d="M127.7,4.8c3.4,0,7.1,2.3,7,8.1.9,1.2,1.3,5.1-.6,5.1h-.6a1.9,1.9,0,0,1-2.5.7,1.9,1.9,0,0,1-.9-1.1,4.7,4.7,0,0,1-3.4,1.5,4.2,4.2,0,0,1-4.5-3.9,4.1,4.1,0,0,1,.1-1.1,1.9,1.9,0,0,1-1.3-1.8h0a7.4,7.4,0,0,1,0-2.1h0V9.8a6,6,0,0,1,6.7-5m0-4.8h0a10.9,10.9,0,0,0-11.4,9.1h0v.6a13.1,13.1,0,0,0,0,2.8v.4a6.8,6.8,0,0,0,1.1,2.9,9.1,9.1,0,0,0,1.9,4.4,10.1,10.1,0,0,0,7.5,3.3,12.7,12.7,0,0,0,3.4-.5l2,.2a6.8,6.8,0,0,0,3.4-.8,6.1,6.1,0,0,0,4.2-3.1,9.4,9.4,0,0,0,0-7.7A12.1,12.1,0,0,0,127.7,0Z" style="fill:#7c3505"/><path d="M125.9,277.4a9.3,9.3,0,0,1-7.4-3.2,7.9,7.9,0,0,1-1.8-5.3,8.8,8.8,0,0,1-1.8-7,7.2,7.2,0,0,1,2.3-5.3,8.4,8.4,0,0,1,6.1-2.7,7.2,7.2,0,0,1,3.8,1l3.1-.2c7.5,0,9.2,5.3,9.7,10.7a9.9,9.9,0,0,1,.4,8.4,3.9,3.9,0,0,1-3.6,2.2,5.2,5.2,0,0,1-3.2,1.1,5,5,0,0,1-2.9-.9A8.9,8.9,0,0,1,125.9,277.4Z" style="fill:#e0a070"/><path d="M123.3,256.2a4.2,4.2,0,0,1,3.1,1.1l3.8-.4c5.1,0,6.8,2.9,7.3,9.2,1.3,1.7,2,7.5-.8,7.5l-.8-.2a2.6,2.6,0,0,1-2.3,1.3,2.8,2.8,0,0,1-2.6-1.9,6.4,6.4,0,0,1-5,2.3,6.3,6.3,0,0,1-6.7-5.8,4.4,4.4,0,0,1,.2-1.6c-2.3-.8-2.2-3.7-2-5.7h0a6,6,0,0,1,6-5.8m0-4.7a11.1,11.1,0,0,0-8.1,3.4,9.8,9.8,0,0,0-2.9,7,12.1,12.1,0,0,0,1.8,7.9,9.6,9.6,0,0,0,2.3,5.8,11.8,11.8,0,0,0,9.3,4.2,10.9,10.9,0,0,0,4.7-.9,7.2,7.2,0,0,0,2.9.6,8.7,8.7,0,0,0,4.1-1.1,6.6,6.6,0,0,0,4.9-3.3,12.3,12.3,0,0,0-.2-10.1c-.4-4.2-2-12.5-12.1-12.5l-2.7.2a8.7,8.7,0,0,0-4.2-1Z" style="fill:#7c3505"/></g></g></g></g><path d="M10.3,256.1a5.5,5.5,0,0,1-5.7-5.2v-4.3a5.1,5.1,0,0,1,1.1-3.1l.5-.4a2.7,2.7,0,0,1,.8-.7l4.4-3.8a11.2,11.2,0,0,1,7.5-3.3l53.1.6,53.1-.6a10.6,10.6,0,0,1,7.6,3.5l4.5,3.8.7.6.5.6a4.7,4.7,0,0,1,.9,2.8v4.3a5.5,5.5,0,0,1-5.4,5.2Z" style="fill:#e0a070"/><path d="M125.1,237.6a8.7,8.7,0,0,1,6,2.8l4.6,4,.6.4h0a2.8,2.8,0,0,1,.7,1.7v4.3a3.3,3.3,0,0,1-3.3,2.9H10.3A3.1,3.1,0,0,1,7,250.8v-4.3a2.3,2.3,0,0,1,.7-1.7h0a1,1,0,0,1,.5-.4l4.1-3.5.6-.5a8.3,8.3,0,0,1,5.9-2.8l53.2.6,49.1-.5h4m0-4.8h-4l-49.2.5-53-.5a13.2,13.2,0,0,0-9.1,4l-.5.4-3.9,3.3a2.8,2.8,0,0,0-1,.9l-.3.2h0a7.4,7.4,0,0,0-1.8,4.9v4.3a7.8,7.8,0,0,0,8,7.6H133.9a7.8,7.8,0,0,0,8-7.6h0v-4.3a7.5,7.5,0,0,0-1.6-4.5l-.6-.7-.9-.8-4.6-3.7a13,13,0,0,0-9.1-4Z" style="fill:#7c3505"/><path d="M131.1,240.4a8.7,8.7,0,0,0-6-2.8l-53.1.6-53.1-.6a8.3,8.3,0,0,0-5.9,2.8l-5.3,4.5c0,1.7.9,5.5,2.9,5.5H133.5c1.9,0,2.9-3.8,2.9-5.5Z" style="fill:#d07a41"/><path d="M133.9,243.7H10.3A3.1,3.1,0,0,0,7,246.6v4.3a3,3,0,0,0,3.3,2.8H133.9a3.2,3.2,0,0,0,3.3-2.8v-4.3A3.4,3.4,0,0,0,133.9,243.7Z" style="fill:#ae6432"/></g></g></svg>