<svg xmlns="http://www.w3.org/2000/svg" viewBox="0 0 151.4 198.9"><g style="isolation:isolate"><g id="Layer_2" data-name="Layer 2"><g id="Layer_1-2" data-name="Layer 1"><g id="Flower11"><path d="M77.1,134.6c16,0,29.2,2,31.5,4.6.9.7.1,5.3,0,7.5l-.7.3a47.2,47.2,0,0,1,1.5,11.8c.1,6,.3,19.3-7.7,28l-.7.8a25.3,25.3,0,0,1-5.2,3.9,34.2,34.2,0,0,1-6.5,2.7,42.7,42.7,0,0,1-10.2,1.7H77.8l-4-.2a37.7,37.7,0,0,1-9.4-2.1,29.1,29.1,0,0,1-6.4-3.1,21.2,21.2,0,0,1-3.8-2.9c-9.7-8.8-9-22.8-9.2-25.5a38.8,38.8,0,0,1,1.8-14.5l-1.4-.4c0-2.4-.1-4.8-.1-7.2h0a.8.8,0,0,1,.2-.4h0c1.6-2.7,15.2-4.8,31.6-4.8m0-3a138.9,138.9,0,0,0-21.8,1.5c-9.1,1.3-11.4,3.1-12.4,4.7a6.6,6.6,0,0,0-.6,2h0v7.3a2.8,2.8,0,0,0,.8,2A44.8,44.8,0,0,0,42,162.3a2.8,2.8,0,0,1,.1,1c.1,4.4.4,17.7,10.1,26.6a46.3,46.3,0,0,0,4.2,3.2,34.8,34.8,0,0,0,7,3.3,42.4,42.4,0,0,0,10.1,2.3l4.3.2h1.4a49.6,49.6,0,0,0,11-1.8,40.9,40.9,0,0,0,7.1-3,32.7,32.7,0,0,0,5.8-4.4,6,6,0,0,1,.8-.8c8.8-9.6,8.6-24,8.5-30.2a54.5,54.5,0,0,0-1.1-10.6,2.8,2.8,0,0,0,.3-1.3,15.4,15.4,0,0,1,.2-1.9c.3-3.5.6-6.3-1.1-7.9-5-5.1-28.8-5.4-33.6-5.4Z" style="fill:#6a3417"/><path d="M83.1,115l-2.1.7c0-2.1-.1-4.1-.2-6.2s-.3-5.6-.5-8.4c.7-1,1.3-2.1,2-3.3a54.2,54.2,0,0,0,2.3-5.4h-.3a56.5,56.5,0,0,1-3.9,7c0,.1-.1.2-.2.3,0-1.6-.1-3.1-.2-4.7L78.8,80.3l1.3-1.2A43.3,43.3,0,0,1,85.6,75v-.3a35.2,35.2,0,0,0-4.3,2.6,27.3,27.3,0,0,0-2.5,2q-.5-5-.9-9.6c-.4-3.1-.7-6.1-1-9a2.4,2.4,0,0,1,.2-.8,56.3,56.3,0,0,1,3.3-7.3l-.2-.2a38.3,38.3,0,0,0-3,5.1l-.6,1.3c-.4-3.9-.9-7.7-1.4-11.4l-1.2.3c.1,3.7.3,7.5.4,11.2s.3,6.5.4,9.5c.1,1.3.1,2.6.2,3.9a33.4,33.4,0,0,0-4.3-3.9,34.1,34.1,0,0,0-5-3.2.4.4,0,0,0-.1.3,60,60,0,0,1,6.2,4.9q1.8,1.6,3.3,3.3c.3,8.4.6,14.8.8,20a46.2,46.2,0,0,0-4.4-3.9,43.1,43.1,0,0,0-5-3.1V87a57.2,57.2,0,0,1,6.2,4.9c1.2,1.1,2.3,2.2,3.2,3.2.1,3.7.2,6.8.3,9.5v1.1a24.8,24.8,0,0,0-5.1-.8,29,29,0,0,0-5.9,0v.3a47,47,0,0,1,7.9.8l3,.6c.1,3.6.1,6.6,0,9.9-.1,5.8-.4,14.9-1.4,26.1a7.7,7.7,0,0,0,3.2.9,7.2,7.2,0,0,0,3.6-.7c0-8.5-.1-17.3-.4-26.4l.7-.3a35.6,35.6,0,0,1,5.3-1.7v-.2A23.5,23.5,0,0,0,83.1,115Z" style="fill:#5e4d41;stroke:#6a3417;stroke-miterlimit:10;stroke-width:3px"/><path d="M101.7,186.8l-.7.8a25.3,25.3,0,0,1-5.2,3.9,34.2,34.2,0,0,1-6.5,2.7,42.7,42.7,0,0,1-10.2,1.7,47.8,47.8,0,0,1-5.3-.2,37.7,37.7,0,0,1-9.4-2.1,29.1,29.1,0,0,1-6.4-3.1,21.2,21.2,0,0,1-3.8-2.9c-9.7-8.8-9-22.8-9.2-25.5a41.2,41.2,0,0,1,2-15.3h3.6l4.9-.2,7.5-.3,8.5-.3,8.6-.3,12.1-.5,7.2-.3,7.9-.2a52.7,52.7,0,0,1,2.1,14.2C109.5,164.8,109.7,178.1,101.7,186.8Z" style="fill:#e57225"/><path d="M64.4,193.6a29.1,29.1,0,0,1-6.4-3.1,63,63,0,0,1-5.1-31.8,51.3,51.3,0,0,1,2.6-12.2l7.5-.3A78,78,0,0,0,60.7,178,68.8,68.8,0,0,0,64.4,193.6Z" style="fill:#d6a983"/><path d="M95.8,191.5a34.2,34.2,0,0,1-6.5,2.7A74.9,74.9,0,0,0,93.6,179a77.7,77.7,0,0,0-1.4-33.9l7.2-.3a58.6,58.6,0,0,1,2.9,15.3A63.5,63.5,0,0,1,95.8,191.5Z" style="fill:#d6a983"/><path d="M80.9,167.9a263.7,263.7,0,0,1-1.8,28,47.8,47.8,0,0,1-5.3-.2c-.9-8.6-1.5-17.7-1.9-27.2-.3-7.8-.5-15.4-.4-22.6l8.6-.3C80.7,152.5,80.9,160,80.9,167.9Z" style="fill:#d6a983"/><path d="M108.9,139.9v.3h0c-.9,2.8-14.8,5-31.8,5s-31.5-2.3-31.8-5.2h0a.8.8,0,0,1,.2-.4c1.6-2.7,15.2-4.8,31.6-4.8s29.2,2,31.5,4.6l.3.5Z" style="fill:#d1a073"/><path d="M108.6,146.7a99.4,99.4,0,0,1-31.2,5.4,102.7,102.7,0,0,1-32-4.9c0-2.4-.1-4.8-.1-7.2v-.2h0a.8.8,0,0,1,.2-.4l.5.2a114.4,114.4,0,0,0,31.2,4,122.9,122.9,0,0,0,31.4-4.4C109.5,139.9,108.7,144.5,108.6,146.7Z" style="fill:#d1a073"/><path d="M106.1,141.1v.3a3.1,3.1,0,0,1-1.7,1.3,28.8,28.8,0,0,1-7.2,1.9,138.4,138.4,0,0,1-20,1.3c-12.1,0-22.5-1.2-26.8-3-1.3-.5-2.1-1.1-2.1-1.7h0a.8.8,0,0,1,.1-.4c1.5-2.4,13.8-4.3,28.8-4.3s26.6,1.8,28.6,4.1a.9.9,0,0,1,.3.5Z" style="fill:#e57225"/><path d="M104.4,142.7a28.8,28.8,0,0,1-7.2,1.9,138.4,138.4,0,0,1-20,1.3c-12.1,0-22.5-1.2-26.8-3,4-1.8,14.7-3.1,27.2-3.1S100.1,141,104.4,142.7Z" style="fill:#774c42"/><path d="M101.7,186.8l-.7.8a25.3,25.3,0,0,1-5.2,3.9,34.2,34.2,0,0,1-6.5,2.7,42.7,42.7,0,0,1-10.2,1.7,47.8,47.8,0,0,1-5.3-.2,37.7,37.7,0,0,1-9.4-2.1,29.1,29.1,0,0,1-6.4-3.1,21.2,21.2,0,0,1-3.8-2.9c-9.7-8.8-9-22.8-9.2-25.5a41.2,41.2,0,0,1,2-15.3h3.8c.1,3,.9,19,14,30.6S93.3,188.2,101.7,186.8Z" style="fill:#d1a073;opacity:0.5;mix-blend-mode:multiply"/><path d="M80.1,52.4a38.3,38.3,0,0,0-3,5.1,37.5,37.5,0,0,0-2.4,6.8c0,.2.1.3.3.4a.3.3,0,0,0,.5-.1c.4-1.5.9-3.1,1.5-4.7a56.3,56.3,0,0,1,3.3-7.3Z" style="fill:#6c5e53"/><path d="M66.4,86.7a43.1,43.1,0,0,1,5,3.1,32.5,32.5,0,0,1,5.3,4.9.6.6,0,0,1,0,.6.7.7,0,0,1-.6.1c-1-1.1-2.2-2.3-3.5-3.5A57.2,57.2,0,0,0,66.4,87Z" style="fill:#5e4d41"/><path d="M84.6,92.4a54.2,54.2,0,0,1-2.3,5.4,31.1,31.1,0,0,1-4,6h-.5a.6.6,0,0,1-.3-.6,31.7,31.7,0,0,0,2.9-4,56.5,56.5,0,0,0,3.9-7Z" style="fill:#5e4d41"/><path d="M65.1,104.9a29,29,0,0,1,5.9,0,31.1,31.1,0,0,1,7.1,1.3.4.4,0,0,1,.2.5c0,.2-.1.4-.3.4s-3.1-.8-4.9-1.1a47,47,0,0,0-7.9-.8Z" style="fill:#6c5e53"/><path d="M81.5,142.8a7.2,7.2,0,0,1-3.6.7,7.7,7.7,0,0,1-3.2-.9c1-11.2,1.3-20.3,1.4-26.1.1-3.9.1-7.4,0-11.9-.2-7.4-.6-17.5-1.4-36.2-.1-3-.2-6.1-.4-9.5s-.3-7.5-.4-11.2l1.1-.3c1,7.2,2,14.6,2.8,22.3S79.4,86.2,80,94.9c.3,4.9.6,9.8.8,14.6C81.3,121.1,81.5,132.2,81.5,142.8Z" style="fill:#6c5e53"/><path d="M65.6,65.2a34.1,34.1,0,0,1,5,3.2,35.9,35.9,0,0,1,5.2,4.9.4.4,0,0,1,0,.5c-.1.2-.4.2-.6.2a39.1,39.1,0,0,0-3.5-3.6,60,60,0,0,0-6.2-4.9Z" style="fill:#6c5e53"/><path d="M87.1,114.2a23.5,23.5,0,0,0-4,.8,24,24,0,0,0-4.7,1.9.8.8,0,0,0-.2.4l.4.3,3.2-1.5a35.6,35.6,0,0,1,5.3-1.7Z" style="fill:#6c5e53"/><path d="M85.5,74.7a35.2,35.2,0,0,0-4.3,2.6,34.4,34.4,0,0,0-4.7,4.1.9.9,0,0,0,.1.5l.4.2c.9-1,2-2,3.1-3A43.3,43.3,0,0,1,85.6,75Z" style="fill:#6c5e53"/><path d="M81.5,142.8a7.2,7.2,0,0,1-3.6.7,7.7,7.7,0,0,1-3.2-.9c1-11.2,1.3-20.3,1.4-26.1.1-3.9.1-7.4,0-11.9.4.7,1,1.4,1.5,2.1a19.4,19.4,0,0,0,3.2,2.8C81.3,121.1,81.5,132.2,81.5,142.8Z" style="fill:#5e4d41"/><path d="M77.8,69.7l-1.4-.4-1.7-.9c-.1-3-.2-6.1-.4-9.5s-.3-7.5-.4-11.2l1.1-.3C76,54.6,77,62,77.8,69.7Z" style="fill:#5e4d41"/><path d="M113.9,98.2a26.7,26.7,0,0,1,14.8,4.3l.7.5.7.5a29,29,0,0,1,10,15.3l-7.5,3.5-5.5,2.5-3.9,1.7c-2.3,1.1-4.2,1.9-5.3,2.3l-1.2.4-1.8.4a20.7,20.7,0,0,1-5,.5,37.7,37.7,0,0,1-5.7-.5,40,40,0,0,1-12.6-4.3c-5-2.7-8.6-6.4-8.8-9.9-.3-5.6,8.1-10.4,13.2-12.8l3.7-1.6a43.1,43.1,0,0,1,10.2-2.5,26,26,0,0,1,4-.3m0-3a31.1,31.1,0,0,0-4.3.3,48.5,48.5,0,0,0-10.9,2.7l-3.9,1.7c-7.1,3.3-15.4,8.6-15,15.7.2,4.4,3.9,8.8,10.4,12.3a40.5,40.5,0,0,0,19.7,5.2,33.3,33.3,0,0,0,5.6-.5l2-.5,1.4-.5,5.6-2.3,3.8-1.8,5.5-2.5,7.6-3.5A3,3,0,0,0,143,118a32.1,32.1,0,0,0-11.1-16.9l-.8-.6-.7-.5a29.1,29.1,0,0,0-16.5-4.8Z" style="fill:#194042"/><path d="M30.4,86.4A42,42,0,0,1,44.3,89a62.3,62.3,0,0,1,23.8,15.7l.2.2a34.1,34.1,0,0,1-27,14.7H40a43.6,43.6,0,0,1-10.1-1.2,53.2,53.2,0,0,1-7.7-2.5l-1.7-.8a61.4,61.4,0,0,1-15.1-9.9c3-9.2,8-13.2,10.5-14.8a21.2,21.2,0,0,1,6.5-2.9,27.2,27.2,0,0,1,7.2-1.1h.8m0-3h-.9a32.7,32.7,0,0,0-7.9,1.2,25.3,25.3,0,0,0-7.3,3.2C9,91.3,4.9,97,2.5,104.3a3,3,0,0,0,.9,3.1,64.4,64.4,0,0,0,15.9,10.5l1.7.7a49.2,49.2,0,0,0,8.2,2.7A44.3,44.3,0,0,0,40,122.6h1.4a36.3,36.3,0,0,0,14.4-3.4,37.3,37.3,0,0,0,14.9-12.6,3,3,0,0,0-.3-3.8h-.1a67.1,67.1,0,0,0-25-16.6,44.8,44.8,0,0,0-14.9-2.7Z" style="fill:#194042"/><path d="M52.7,123.7h4.5l.6.2h.7l.5.2.7.2.6.2.6.2.6.3.6.3.5.3.6.4.6.3.5.4.6.5H65l.8.8.2.2.7.8a21.8,21.8,0,0,1,3.4-2,33.7,33.7,0,0,1,6.6-2.4h0a.5.5,0,0,1,.4.2c.2.2.1.4,0,.6l-4.6,1.5a59.9,59.9,0,0,0-5.5,2.4c1.3,1.7,3.4,4.7,3.4,8.5s-2,7.7-5.2,11.1l-2.6,2.4a26.2,26.2,0,0,1-3.4,2.4,35.9,35.9,0,0,1-18.6,5.6H38.9a28.9,28.9,0,0,1-9.4-2.3,45.5,45.5,0,0,1,1.7-14.1,30.9,30.9,0,0,1,2.1-5.6,27.1,27.1,0,0,1,7.4-9.9,19.5,19.5,0,0,1,6.8-3.6l.9-.2h4.3m0-3H47.8l-1,.2a21.3,21.3,0,0,0-8,4.2,30.9,30.9,0,0,0-8.3,10.9,54.8,54.8,0,0,0-2.2,6.1,49,49,0,0,0-1.8,15,3,3,0,0,0,1.8,2.7,34.4,34.4,0,0,0,10.4,2.5h1.9a39.5,39.5,0,0,0,20.2-6,31.8,31.8,0,0,0,3.7-2.7l2.9-2.6c3.9-4.2,6-8.7,6-13.2a15.2,15.2,0,0,0-2-7.3l2.1-.8,4.4-1.4a4.2,4.2,0,0,0,1.4-.9,3.3,3.3,0,0,0,.3-4.2,3.4,3.4,0,0,0-2.9-1.6h-.8a33.4,33.4,0,0,0-7.1,2.6l-1.6.9-.3-.2-.2-.2-.5-.4H66a1,1,0,0,0-.5-.4l-.7-.5-.7-.4-.7-.4-.7-.3-.7-.3-.7-.3-.7-.3-.7-.2-.7-.2-.7-.2H52.7Z" style="fill:#194042"/><path d="M110.6,42.6a45.3,45.3,0,0,1,4,6.7,33.1,33.1,0,0,1,5.5-.4h1.6l2.6.2a44.5,44.5,0,0,1,24.1,10.5,135,135,0,0,1-16.1,7.5l-6,2.1c-3.8,1.2-7.6,2.3-11.2,3.1a32.2,32.2,0,0,1-4.2,5.7C103.6,85.7,92.2,90.5,86,93.1l-2.3.9a36.4,36.4,0,0,1-2.8-18.8,34.9,34.9,0,0,1,7.4-17.1,48.4,48.4,0,0,1,22.3-15.5m0-3h-1A52.4,52.4,0,0,0,85.9,56.3a39.6,39.6,0,0,0-8,18.5,38.4,38.4,0,0,0,3,20.4A3.1,3.1,0,0,0,83.7,97a2.2,2.2,0,0,0,1.1-.2l2.4-.9c6.3-2.7,18.1-7.6,25.9-15.9a31.4,31.4,0,0,0,3.9-5.1c3.5-.8,6.9-1.8,10.3-2.9s4.1-1.4,6-2.1a137.7,137.7,0,0,0,16.5-7.7,3,3,0,0,0,1.6-2.3,2.9,2.9,0,0,0-1.1-2.6,48,48,0,0,0-25.7-11.2l-2.7-.2h-1.8a24.2,24.2,0,0,0-3.8.2,41.5,41.5,0,0,0-3.2-5.3,3,3,0,0,0-2.5-1.2Z" style="fill:#194042"/><path d="M28,38.7c15.3,0,30.4,10.6,38.2,27.2l-6,.2h-.6a24.3,24.3,0,0,1,5.2,6.3,25,25,0,0,1,3.3,15.5,26.7,26.7,0,0,1-6.7.8,23.1,23.1,0,0,1-5.7-.6C48.3,86.4,43,81.8,39.3,77a46.1,46.1,0,0,1-7.1-13.2l2.2-1c-3.2-.8-6.1-1.7-8.9-2.7l-5.3-2L17.6,57A110.1,110.1,0,0,1,3,49c3.4-3.1,11.4-9.4,22.7-10.2H28m0-3H25.5A40.7,40.7,0,0,0,1,46.8a2.9,2.9,0,0,0-1,2.5,3,3,0,0,0,1.4,2.2,99.4,99.4,0,0,0,15,8.2l2.7,1.2L24.5,63l4.8,1.5c0,.1,0,.2.1.2a44.1,44.1,0,0,0,7.5,14.2C41.9,85.4,48,89.4,55,91a27.9,27.9,0,0,0,6.4.7,37.2,37.2,0,0,0,7.4-.8,3,3,0,0,0,2.3-2.6,29.5,29.5,0,0,0-3.7-17.5l-1.2-1.9h.2a2.9,2.9,0,0,0,2.4-1.4,3.1,3.1,0,0,0,.1-2.8c-8.2-17.6-24.3-29-40.9-29Z" style="fill:#194042"/><path d="M60,3c1.7.3,13.6,2.4,19.7,13a23.4,23.4,0,0,1,2.9,8,34.4,34.4,0,0,1,.5,4.5,37.5,37.5,0,0,1,3.7-5.8l.9-1.1C98.8,8.6,114.2,8,117.3,8h.3a54.3,54.3,0,0,1-8,23.2,52.3,52.3,0,0,1-8.9,10.5A57.2,57.2,0,0,1,79.3,53.8a39,39,0,0,1-.5-9.6,36.5,36.5,0,0,1-4.1,5.6H72.9l-.5-.2H72l-.7-.3h-.4l-.7-.3-.5-.2-.8-.4-.6-.2-.8-.5-.6-.3-.9-.5-.5-.3-.9-.6-.6-.4-1-.7-.6-.4-.9-.8c-.2-.2-.4-.3-.5-.5l-1-.9c-.1-.2-.3-.3-.5-.5L58.6,40l-.5-.5-.9-1.2-.4-.6-.9-1.4-.3-.6-1.1-2.1-.4-1a31.4,31.4,0,0,1-1.6-5.8c-.1-1-.2-1.9-.2-2.8a25.7,25.7,0,0,1,.4-6.8l.9-3.4A28.4,28.4,0,0,1,60,3m0-3a2.6,2.6,0,0,0-2.2,1,31.6,31.6,0,0,0-7,11.8,26.6,26.6,0,0,0-1,3.8,27.1,27.1,0,0,0-.5,7.5,15.5,15.5,0,0,0,.3,3.1,29.7,29.7,0,0,0,1.7,6.5l.5,1.1A13.4,13.4,0,0,0,53,37.2l.3.5h.1l.9,1.5.4.5h.1v.2l.9,1.1a1,1,0,0,0,.4.5c0,.1.1.1.1.2l.2.2.8.9.4.5h.2l.2.2.8.8.5.4.2.2h.2a2.7,2.7,0,0,0,.8.7l.4.4h.2l.2.2.8.6.5.3h.4l.8.5.4.3h.4l.8.5.4.2h.4l.7.4.5.2h.3l.7.3.4.2h.3l.6.3h.6l.6.2h.6l.5.2h2.6a3.3,3.3,0,0,0,1.3-.4c.1.9.2,1.5.3,2a3.5,3.5,0,0,0,1.4,2,2.9,2.9,0,0,0,1.6.4h.9a60.1,60.1,0,0,0,22.5-12.8,55.3,55.3,0,0,0,9.4-11.1,57,57,0,0,0,8.5-24.5,3.2,3.2,0,0,0-.8-2.3,2.9,2.9,0,0,0-2.2-1h-.3C112.7,5,97,6.1,85.4,19.6l-.6.8a23.1,23.1,0,0,0-2.5-5.8C75.9,3.3,63.9.6,60.4,0Z" style="fill:#194042"/><path d="M109.1,110.6l-12.4,1.3a10.4,10.4,0,0,1-1.3-6.8,10.2,10.2,0,0,1,.6-2.5l3.7-1.6a43.1,43.1,0,0,1,10.2-2.5,14.8,14.8,0,0,0-1.7,5.6A16.6,16.6,0,0,0,109.1,110.6Z" style="fill:#3b7e82;opacity:0.64"/><path d="M103.1,125.7a26.6,26.6,0,0,0,1.1,3.9,40,40,0,0,1-12.6-4.3,12.2,12.2,0,0,1-.2-7.4,11.4,11.4,0,0,1,3.7-5.7l10.1-1.6A24.9,24.9,0,0,0,103.1,125.7Z" style="fill:#9be3bb;opacity:0.5700000000000001"/><path d="M140.1,118.8l-7.5,3.5-5.5,2.5-3.9,1.7c-2.3,1.1-4.2,1.9-5.3,2.3l-1.2.4-1.8.4a29.6,29.6,0,0,1-10.7,0,40,40,0,0,1-12.6-4.3c-5-2.7-8.6-6.4-8.8-9.9-.3-5.6,8.1-10.4,13.2-12.8l3.7-1.6a43.1,43.1,0,0,1,10.2-2.5,27.3,27.3,0,0,1,18.8,4l.7.5.7.5A29,29,0,0,1,140.1,118.8Z" style="fill:#6ab3b9"/><path d="M130.1,103.5A13.9,13.9,0,0,0,123,112l-2.4-.6a14.7,14.7,0,0,1,1.8-4.3,12.5,12.5,0,0,1,6.3-4.6l.7.5Z" style="fill:#3b7e82;opacity:0.64"/><path d="M127.1,124.8l-3.9,1.7a16.8,16.8,0,0,1-3.1-8,15.4,15.4,0,0,1,.8-7l2.5.9a10.7,10.7,0,0,0,3.7,12.4Z" style="fill:#3b7e82;opacity:0.64"/><path d="M116.7,129.2l-1.8.4a17.3,17.3,0,0,1-2.6-5.1,18.7,18.7,0,0,1,1.4-13.7h1.6a14.8,14.8,0,0,0-2,4.9C112.1,121.3,114.6,126.3,116.7,129.2Z" style="fill:#3b7e82;opacity:0.64"/><path d="M86.8,114.6a83.9,83.9,0,0,1,27.3-3.2c9.8.6,17.2,4,21.9,5.4-3.5-2-12.3-6-19.4-7C100.7,107.6,86.8,114.6,86.8,114.6Z" style="fill:#9be3bb"/><path d="M68.3,104.9a34.1,34.1,0,0,1-27,14.7,44.7,44.7,0,0,1-11.4-1.2,53.2,53.2,0,0,1-7.7-2.5l-1.7-.8a61.4,61.4,0,0,1-15.1-9.9c3-9.2,8-13.2,10.5-14.8a21.2,21.2,0,0,1,6.5-2.9,27.2,27.2,0,0,1,7.2-1.1A39.7,39.7,0,0,1,44.3,89a62.3,62.3,0,0,1,23.8,15.7Z" style="fill:#6ab3b9"/><path d="M34.2,97.3l-5.4.9a11.8,11.8,0,0,0-6.4-10.7,27.2,27.2,0,0,1,7.2-1.1,13.5,13.5,0,0,1,3.1,3.8A13.2,13.2,0,0,1,34.2,97.3Z" style="fill:#9be3bb;opacity:0.5700000000000001"/><path d="M44.4,109.8a24.6,24.6,0,0,1-3.1,9.8,44.7,44.7,0,0,1-11.4-1.2c2.7-2.3,6.8-6.6,7.5-13a18.8,18.8,0,0,0-.8-7.6h6A24.4,24.4,0,0,1,44.4,109.8Z" style="fill:#9be3bb;opacity:0.5700000000000001"/><path d="M68.1,104.7a115.2,115.2,0,0,0-11.7-3.8,91.8,91.8,0,0,0-11.1-2.3,9.4,9.4,0,0,0,.7-5.9A7.5,7.5,0,0,0,44.3,89,62.3,62.3,0,0,1,68.1,104.7Z" style="fill:#3b7e82;opacity:0.64"/><path d="M33.4,101.3c-.2,7.4-7.8,12.6-11.2,14.6l-1.7-.8a19.9,19.9,0,0,0,8.1-7.6,19.6,19.6,0,0,0,2.6-9.7h1.7A11.8,11.8,0,0,1,33.4,101.3Z" style="fill:#3b7e82;opacity:0.64"/><path d="M63.4,103.8a81.5,81.5,0,0,0-26.9-5.4c-9.8-.2-17.4,2.6-22.3,3.6,3.7-1.7,12.8-5,19.9-5.4C50.2,95.7,63.4,103.8,63.4,103.8Z" style="fill:#9be3bb"/><path d="M65.3,130.4a46.4,46.4,0,0,1,4.8-2.9,33.7,33.7,0,0,1,6.6-2.4.5.5,0,0,1,.4.2c.2.2.1.4,0,.6l-4.6,1.5a45,45,0,0,0-6.9,3.2Z" style="fill:#6c5e53"/><path d="M70.4,138.3c0,3.9-2,7.7-5.2,11.1l-2.6,2.4a26.2,26.2,0,0,1-3.4,2.4,35.6,35.6,0,0,1-20.3,5.6,28.9,28.9,0,0,1-9.4-2.3,45.5,45.5,0,0,1,1.7-14.1,30.9,30.9,0,0,1,2.1-5.6,27.1,27.1,0,0,1,7.4-9.9,19.5,19.5,0,0,1,6.8-3.6c4.2-1,12-1.2,17.5,3.4l.8.8.2.2C66.6,129.3,70.4,133.1,70.4,138.3Z" style="fill:#6ab3b9"/><path d="M48.7,145.8l-5.8,4.1a13.8,13.8,0,0,0-7.7-5.9,16.2,16.2,0,0,0-4-.6,30.9,30.9,0,0,1,2.1-5.6,20.3,20.3,0,0,1,9.3,2.6A18.6,18.6,0,0,1,48.7,145.8Z" style="fill:#9be3bb;opacity:0.5700000000000001"/><path d="M65.8,128.5c-1,1.2-2,2.5-3.2,3.7a63.6,63.6,0,0,1-4.5,4.5,20.5,20.5,0,0,0-9.9-7.8,19.6,19.6,0,0,0-7.5-1,19.5,19.5,0,0,1,6.8-3.6C51.9,123.2,60.3,123.1,65.8,128.5Z" style="fill:#3b7e82;opacity:0.64"/><path d="M62.6,151.8a26.2,26.2,0,0,1-3.4,2.4,15,15,0,0,0-.8-3.9,12.8,12.8,0,0,0-7-7.3l2.7-2.4a12.6,12.6,0,0,1,4.7,2.7A13.4,13.4,0,0,1,62.6,151.8Z" style="fill:#3b7e82;opacity:0.64"/><path d="M64.4,130.2a175.4,175.4,0,0,1-14.7,13.3c-6.6,5.4-12.4,9.4-16.3,12a77.4,77.4,0,0,0,13.1-7.6A76.2,76.2,0,0,0,64.4,130.2Z" style="fill:#9be3bb"/><path d="M117,67.6A25.6,25.6,0,0,1,110.9,78C103.6,85.7,92.2,90.5,86,93.1l-2.3.9a36.4,36.4,0,0,1-2.8-18.8,34.9,34.9,0,0,1,7.4-17.1,48.4,48.4,0,0,1,22.3-15.5C113.8,47.1,119.8,57.3,117,67.6Z" style="fill:#3b7e82"/><path d="M110.9,78C103.6,85.7,92.2,90.5,86,93.1l-2.3.9a36.4,36.4,0,0,1-2.8-18.8,34.9,34.9,0,0,1,7.4-17.1c2.1,2.6,4,7.9,8.2,12.3C99.3,73.2,103.7,76.3,110.9,78Z" style="fill:#285b4c"/><path d="M114.6,51.6A208.2,208.2,0,0,0,100,69.5,203.7,203.7,0,0,0,87.2,89.2a82.5,82.5,0,0,1,7.7-15.8A88.6,88.6,0,0,1,114.6,51.6Z" style="fill:#105b32"/><path d="M148.4,59.6a135,135,0,0,1-16.1,7.5l-6,2.1c-3.8,1.2-7.6,2.3-11.3,3.1a132,132,0,0,1-30.4,3.2c1-3,5-14.1,15.9-21.1l2.7-1.5a40.1,40.1,0,0,1,6.5-2.6,37.3,37.3,0,0,1,12-1.4l2.6.2A44.5,44.5,0,0,1,148.4,59.6Z" style="fill:#6ab3b9"/><path d="M110.5,59.3l-8.6,4.1a13.8,13.8,0,0,1-1.7-4.9,13.4,13.4,0,0,1,.3-4.1l2.7-1.5a40.1,40.1,0,0,1,6.5-2.6,12.7,12.7,0,0,0-.5,4.5A13.5,13.5,0,0,0,110.5,59.3Z" style="fill:#9be3bb;opacity:0.5700000000000001"/><path d="M123.9,56.9H121a8.1,8.1,0,0,1-.7-4.1,7.8,7.8,0,0,1,1.4-3.8l2.6.2a8.1,8.1,0,0,0-1,3.1A9.4,9.4,0,0,0,123.9,56.9Z" style="fill:#9be3bb;opacity:0.5700000000000001"/><path d="M126.3,69.2c-3.8,1.2-7.6,2.3-11.3,3.1a20.7,20.7,0,0,1-2.4-6.3,19.4,19.4,0,0,1-.1-7.6l5.8-.9a15.4,15.4,0,0,0,1.3,4.2A18.6,18.6,0,0,0,126.3,69.2Z" style="fill:#3b7e82;opacity:0.64"/><path d="M89.7,71a82.5,82.5,0,0,1,24.6-12c9.5-2.7,17.5-2,22.5-2.2-4-.8-13.7-1.6-20.7-.2C100.4,59.8,89.7,71,89.7,71Z" style="fill:#9be3bb"/><path d="M68.1,87.9a26.8,26.8,0,0,1-12.4.2C48.3,86.4,43,81.8,39.3,77a46.1,46.1,0,0,1-7.1-13.2c.8-.4,12.1-6.4,23.3-.4a23,23,0,0,1,9.3,9A25,25,0,0,1,68.1,87.9Z" style="fill:#3b7e82"/><path d="M64.8,72.4A21,21,0,0,0,52.6,70a21.8,21.8,0,0,0-13.3,7,46.1,46.1,0,0,1-7.1-13.2c.8-.4,12.1-6.4,23.3-.4A23,23,0,0,1,64.8,72.4Z" style="fill:#285b4c"/><path d="M65.7,84.9a113,113,0,0,0-11-9.9,137.4,137.4,0,0,0-12.3-8.8,50.2,50.2,0,0,1,9.9,5.4A55.7,55.7,0,0,1,65.7,84.9Z" style="fill:#105b32"/><path d="M66.2,65.9a99.7,99.7,0,0,1-20-.7l-4.3-.7a100,100,0,0,1-16.4-4.4l-5.3-2L17.6,57A110.1,110.1,0,0,1,3,49c3.4-3.1,11.4-9.4,22.7-10.2C41.8,37.7,58,48.4,66.2,65.9Z" style="fill:#6ab3b9"/><path d="M14.2,45a81.9,81.9,0,0,1,27,4.5c9.3,3.4,15.4,8.7,19.6,11.3C58,57.9,50.6,51.6,44.1,48.7,29.4,42.1,14.2,45,14.2,45Z" style="fill:#9be3bb"/><path d="M49.3,52.5a27.2,27.2,0,0,0-2.4,6.7,26.4,26.4,0,0,0-.7,6l-4.3-.7a100,100,0,0,1-16.4-4.4,29.5,29.5,0,0,1,3.1-7.7,34.3,34.3,0,0,1,4.9-6.2Z" style="fill:#9be3bb;opacity:0.5700000000000001"/><path d="M28.2,45.4A22.5,22.5,0,0,0,23,51.3a24.5,24.5,0,0,0-2.8,6.8L17.6,57a18.9,18.9,0,0,1,3.1-6.7,19.7,19.7,0,0,1,5.7-5.2Z" style="fill:#9be3bb;opacity:0.5700000000000001"/><path d="M117.6,8a54.3,54.3,0,0,1-8,23.2,52.3,52.3,0,0,1-8.9,10.5A57.2,57.2,0,0,1,79.3,53.8c-.4-2-3.1-17.5,7.5-31.1l.9-1.1C99.2,8.1,115.4,8,117.6,8Z" style="fill:#3b7e82"/><path d="M100.7,41.7A57.2,57.2,0,0,1,79.3,53.8c-.4-2-3.1-17.5,7.5-31.1a22.6,22.6,0,0,0,2.1,8.1A23,23,0,0,0,100.7,41.7Z" style="fill:#285b4c"/><path d="M113.6,12.6A210.1,210.1,0,0,0,97.3,29,205.5,205.5,0,0,0,82.7,47.4a88.2,88.2,0,0,1,9.2-15A89.5,89.5,0,0,1,113.6,12.6Z" style="fill:#6ab3b9"/><path d="M74.7,49.8h-.4c-2.6-.7-14.5-4.2-19.8-16.1l-.4-1a31.4,31.4,0,0,1-1.6-5.8c-.1-1-.2-1.9-.2-2.8a25.7,25.7,0,0,1,.4-6.8l.9-3.4A28.4,28.4,0,0,1,60,3c1.7.3,13.6,2.4,19.7,13a23.4,23.4,0,0,1,2.9,8A30.4,30.4,0,0,1,74.7,49.8Z" style="fill:#6ab3b9"/><path d="M74.3,49.7c-2.4-.6-14.5-4.1-19.8-16.1a31,31,0,0,1,15.8-5.5c.7,2.5,1.4,5.3,2.1,8.3A98.9,98.9,0,0,1,74.3,49.7Z" style="fill:#9be3bb;opacity:0.5700000000000001"/><path d="M74.7,49.8h-.4c-1.3-7.1-2.5-14.2-3.7-21.3a17.8,17.8,0,0,1,5.8-3.2A23.5,23.5,0,0,1,82.6,24,30.4,30.4,0,0,1,74.7,49.8Z" style="fill:#9be3bb;opacity:0.5700000000000001"/><path d="M68,20.3a25.6,25.6,0,0,0-15.3-3.1l.9-3.4a15.4,15.4,0,0,1,4.9-.2A19.3,19.3,0,0,1,66.2,16Z" style="fill:#9be3bb;opacity:0.5700000000000001"/><path d="M69.5,24.6a29.2,29.2,0,0,0-9-.1,30.9,30.9,0,0,0-8,2.3c-.1-1-.2-1.9-.2-2.8a24,24,0,0,1,8.8-1.9,21.3,21.3,0,0,1,7.4,1A13,13,0,0,0,69.5,24.6Z" style="fill:#9be3bb;opacity:0.5700000000000001"/><path d="M60.6,4.2a204.1,204.1,0,0,1,7.9,21.7,186.3,186.3,0,0,1,5.7,22.8A87.2,87.2,0,0,0,72,31.2,86.4,86.4,0,0,0,60.6,4.2Z" style="fill:#9be3bb"/></g></g></g></g></svg>