<svg xmlns="http://www.w3.org/2000/svg" viewBox="0 0 101.1 73.4"><g id="Layer_2" data-name="Layer 2"><g id="Layer_1-2" data-name="Layer 1"><path d="M47.5,71.9a107.4,107.4,0,0,1-11.1-.4h-.6c-2-.3-4.3-.6-6.1-1.8a4.9,4.9,0,0,1-2.2-3l-1.7-.8A23.1,23.1,0,0,1,20.7,62a16.5,16.5,0,0,1-2.6-3.2,17.2,17.2,0,0,1-7.8-2.6,11.8,11.8,0,0,1-5-7.5c-.6-3.4,0-6.6.6-9.7v-.8c.6-2.8,1.2-5.7.6-8.3-.3-1.1-1.2-3.9-3.7-4.7a1.9,1.9,0,0,1-1.4-1.7,2,2,0,0,1,1-2,15.7,15.7,0,0,1,7-1.7h.8c1.1.1,2.7.1,3.8,1.5a6.5,6.5,0,0,1,.8,1.7l.6,2.3a19.7,19.7,0,0,1,.7,2.6c.5,1.7,1,3.6,1.6,5.3a7.7,7.7,0,0,0,.7,1.6c1.1-1.3,2.2-2.6,3.4-3.8A70.5,70.5,0,0,0,27,25a4,4,0,0,1-.1-4.1,5,5,0,0,1,2.2-1.8h.2l1.2-.6a12.7,12.7,0,0,1,4.7-5.9A14.1,14.1,0,0,1,43,10.6a1.4,1.4,0,0,1-.2-.6,5.3,5.3,0,0,1,.3-4.9,11,11,0,0,1,2.5-2.7,5.7,5.7,0,0,1,1.3-.8h1.2a5.7,5.7,0,0,1,1.3.8,11,11,0,0,1,2.5,2.7,5.3,5.3,0,0,1,.4,4.9l-.3.6a14.1,14.1,0,0,1,7.8,1.9,12.7,12.7,0,0,1,4.7,5.9,3.4,3.4,0,0,1,1.2.6h.2a5.2,5.2,0,0,1,2.3,1.8A4.3,4.3,0,0,1,68,25a57.2,57.2,0,0,0,5.2,6l.7.8c-1-4.2,1.6-8.7,4.9-11.2A12.6,12.6,0,0,1,85,18.2a20.7,20.7,0,0,1,4-.4h1.2a11.6,11.6,0,0,1,4.9,2,11.3,11.3,0,0,1,3.8,5.7c1.2,3.7.8,8.2-1.1,12.7a24.4,24.4,0,0,1-7.1,9.4c-1.2.9-2.4,1.6-3.6,2.4a26.4,26.4,0,0,0-4.7,3.3,15.5,15.5,0,0,0-1.3,1.7,3.6,3.6,0,0,1-.4.9,4.2,4.2,0,0,1-.6,1.4,3.3,3.3,0,0,1-3,1.9h-.4A16.1,16.1,0,0,1,74.3,62a23.1,23.1,0,0,1-5.1,3.9l-1.7.8a4.9,4.9,0,0,1-2.2,3c-1.8,1.2-4.1,1.5-6.1,1.8h-.6A107.4,107.4,0,0,1,47.5,71.9Zm31.6-33a10.4,10.4,0,0,0,.4,1,18.5,18.5,0,0,1,1.3,7l.8-.4,1.5-.9a36.9,36.9,0,0,0,4.8-3.4,13.5,13.5,0,0,0,5.2-8.4,11,11,0,0,0-.4-5.4c-.6-2.1-1.4-3.4-2.6-4a4.8,4.8,0,0,0-1.8-.4,9.7,9.7,0,0,0-2.8.5,8.3,8.3,0,0,0-3.8,2.7,5.1,5.1,0,0,0-.8,4,3.6,3.6,0,0,0,1.6,2.6,2,2,0,0,1,.7,2.5,3.6,3.6,0,0,1-3.3,2.1h-.4Z" style="fill:#a7bfee"/><path d="M47.5,3l1,.6a8.8,8.8,0,0,1,2.1,2.3,4.1,4.1,0,0,1,.3,3.6,14.2,14.2,0,0,0-.8,1.8,2,2,0,0,0-.4.8H51c2.7,0,5.7.2,8,1.7a11.1,11.1,0,0,1,4.3,5.9,6.4,6.4,0,0,1,1.9.8,4.3,4.3,0,0,1,1.7,1.3,2.8,2.8,0,0,1-.7,3.2A40.5,40.5,0,0,0,72.1,32c1.2,1.3,2.4,2.7,3.5,4.1a.1.1,0,0,1,.1-.1l1.2-1.4h.2a5.4,5.4,0,0,1-1.5-2.2c-1.5-3.8,1-8.2,4.1-10.5a12.1,12.1,0,0,1,5.5-2.2l3.8-.3h1a8.9,8.9,0,0,1,4.2,1.7A11.2,11.2,0,0,1,97.5,26c1.2,3.9.4,8.1-1.1,11.7a20.8,20.8,0,0,1-6.7,8.8c-2.6,2.1-5.9,3.5-8.3,5.9a7.8,7.8,0,0,0-1.6,2c-.4.7-.6,1.5-1,2.3a1.9,1.9,0,0,1-1.7,1.1H77a2.5,2.5,0,0,1-.9-.4A24.8,24.8,0,0,1,73.3,61a24.1,24.1,0,0,1-4.8,3.6l-2.4,1.1a3.3,3.3,0,0,1-1.6,2.8c-1.7,1.1-4.1,1.3-6,1.5a97,97,0,0,1-11,.4A93.9,93.9,0,0,1,36.6,70c-2-.2-4.4-.4-6.1-1.5a3.3,3.3,0,0,1-1.6-2.8l-2.4-1.1A23.5,23.5,0,0,1,21.8,61a19.9,19.9,0,0,1-2.9-3.6,16.7,16.7,0,0,1-7.8-2.5,9.8,9.8,0,0,1-4.3-6.5,21.5,21.5,0,0,1,.6-9.1c.6-3.2,1.4-6.5.6-9.8s-2.1-4.9-4.6-5.7a.5.5,0,0,1-.1-.9,12.2,12.2,0,0,1,6.2-1.6h.7a3.3,3.3,0,0,1,2.7.9,5.9,5.9,0,0,1,.6,1.4l.6,2.1c.7,2.6,1.4,5.3,2.3,8a6.7,6.7,0,0,0,2.3,3.4A40.1,40.1,0,0,1,23,32a44.9,44.9,0,0,0,5.8-7.1,2.8,2.8,0,0,1-.7-3.2,4.3,4.3,0,0,1,1.7-1.3,6.4,6.4,0,0,1,1.9-.8A11.1,11.1,0,0,1,36,13.7c2.3-1.5,5.3-1.7,8-1.7h1.3l-.3-.8a14.2,14.2,0,0,1-.8-1.8,3.8,3.8,0,0,1,.2-3.6,11,11,0,0,1,2.1-2.3l1-.6M79.9,36.9l-.9-.2c-.6.7-1.1,1.4-1.7,2a7.5,7.5,0,0,1,.8,1.8,16.1,16.1,0,0,1,.9,9.2,46.2,46.2,0,0,1,4.8-2.8,34.5,34.5,0,0,0,5-3.5c3-2.5,5.2-5.5,5.8-9.4a14,14,0,0,0-.4-6.1c-.6-1.9-1.6-3.9-3.4-4.8a5.7,5.7,0,0,0-2.5-.6,11.4,11.4,0,0,0-3.3.6,9.1,9.1,0,0,0-4.5,3.2c-1.9,2.7-1.7,6.8,1.2,8.8.2.1.2.3.1.6a2,2,0,0,1-1.9,1.2M47.5,0a3.1,3.1,0,0,0-1.3.3l-1.5.9a13.1,13.1,0,0,0-2.8,3.1A6.2,6.2,0,0,0,41,9.2a14.1,14.1,0,0,0-6.6,2,14.7,14.7,0,0,0-5,6l-.8.4h-.2a6.9,6.9,0,0,0-2.8,2.5,5.4,5.4,0,0,0-.4,4.6A52.7,52.7,0,0,1,20.8,30L19,32c-.5-1.5-.9-3-1.3-4.5s-.5-1.8-.8-2.7l-.2-.7-.4-1.3v-.2a6.7,6.7,0,0,0-1.1-2.3c-1.4-1.8-3.6-1.9-4.8-2H9.5a16,16,0,0,0-7.7,1.9A3.6,3.6,0,0,0,0,23.6a3.7,3.7,0,0,0,2.4,3.1c1.8.5,2.5,2.7,2.7,3.6s0,4.9-.5,7.6l-.2.8c-.6,3.2-1.2,6.7-.5,10.2a12.5,12.5,0,0,0,5.6,8.5,18.4,18.4,0,0,0,7.7,2.9l2.4,2.8a23.2,23.2,0,0,0,5.5,4.1l1.2.6A6.2,6.2,0,0,0,28.9,71a14.5,14.5,0,0,0,6.7,1.9h.6a112.5,112.5,0,0,0,11.3.4A112.5,112.5,0,0,0,58.8,73h.6A14.5,14.5,0,0,0,66.1,71a5.8,5.8,0,0,0,2.6-3.2l1.2-.6a23.2,23.2,0,0,0,5.5-4.1,22,22,0,0,0,2-2.3,5,5,0,0,0,4-2.7,4,4,0,0,0,.7-1.5,2.4,2.4,0,0,1,.3-.7,6.7,6.7,0,0,1,1.1-1.4,21.4,21.4,0,0,1,4.4-3.1,41.7,41.7,0,0,0,3.7-2.6,25.6,25.6,0,0,0,7.6-9.9,20.3,20.3,0,0,0,1.1-13.8,13.6,13.6,0,0,0-4.2-6.4,14.4,14.4,0,0,0-5.8-2.3H89a22.7,22.7,0,0,0-4.2.4A14.3,14.3,0,0,0,72.4,27.9a25.1,25.1,0,0,1-2.6-3.1,5.4,5.4,0,0,0-.3-4.6,7.7,7.7,0,0,0-2.9-2.5h-.1l-.9-.4a14.7,14.7,0,0,0-5-6,14.1,14.1,0,0,0-6.5-2,6.6,6.6,0,0,0-1-4.9,13.1,13.1,0,0,0-2.8-3.1L48.8.3A3.1,3.1,0,0,0,47.5,0ZM81.1,39.8a5.6,5.6,0,0,0,3.5-2.9,3.3,3.3,0,0,0-1.3-4.3,3.1,3.1,0,0,1-1-1.7,4.3,4.3,0,0,1,.6-2.8A5.8,5.8,0,0,1,86,26a6.8,6.8,0,0,1,2.3-.5,2.1,2.1,0,0,1,1.2.3c.7.3,1.3,1.4,1.8,3a9.7,9.7,0,0,1,.3,4.8A11.7,11.7,0,0,1,86.9,41a27.1,27.1,0,0,1-4.6,3.3.1.1,0,0,1-.1.1,23.7,23.7,0,0,0-1.1-4.6Z" style="fill:#502390"/><path d="M18.7,52.1a19.8,19.8,0,0,1,.3-4.2c.6-3,1.8-6.1,1.4-9.1,0-.2-.3-.2-.4,0l-1.2,4.9a33.6,33.6,0,0,0-1.3,4.8,14.1,14.1,0,0,0,.1,4.1c.2,1.1.7,3.1,1.7,3.5s.3,0,.3-.1a5.5,5.5,0,0,0-.6-1.8A7.6,7.6,0,0,1,18.7,52.1Z" style="fill:#ffc74e"/><path d="M65,21.9l-.8-.8a4.8,4.8,0,0,1-.9-1.1c-.5-1-.8-1.9-1.3-2.9a.2.2,0,0,0-.3.1c.4,1.4.8,4.4,2.4,5.2-1.9.8-4.1.1-6-.3a8.8,8.8,0,0,0-3.6-.3,11.6,11.6,0,0,0-3.2.8c-2.2.7-4.4,1.5-6.7.6a19.9,19.9,0,0,0-3.4-1.3,12.2,12.2,0,0,0-3.8.1,27.1,27.1,0,0,1-4.1.9,7.7,7.7,0,0,1-2.7-.4c.8-.2,1.5-1.2,1.9-1.9s.6-1.5,1-2.2A15,15,0,0,1,35,16.1c0-.1-.1-.2-.2-.1l-1.3,1.4-1.2,1.7c-.7,1-1.2,2.5-2.5,2.8h-.2c-.2,0-.3.2-.2.4,1.2,1.7,3.8,1.7,5.7,1.4a23.6,23.6,0,0,1,4.5-.8,9.4,9.4,0,0,1,4,1.3,8.2,8.2,0,0,0,3.5.8,9.9,9.9,0,0,0,3.4-.8c1.2-.3,2.3-.8,3.5-1a10.3,10.3,0,0,1,4.3.2c2.3.6,5.4,1.2,7.1-1.1C65.5,22.2,65.3,21.8,65,21.9Z" style="fill:#ffc74e"/><path d="M49.5,12.5a6.7,6.7,0,0,0-2,0,12.3,12.3,0,0,0-2,.2c-.1,0-.2.1-.1.2a3.5,3.5,0,0,0,4.1-.2C49.6,12.7,49.6,12.5,49.5,12.5Z" style="fill:#ffc74e"/><path d="M65.5,65.8a29.7,29.7,0,0,0-4.3.8l-4.4.7c-3,.2-6.1.6-9,.5s-8.5.3-17.6-2.3a.2.2,0,0,0-.1.3,9.8,9.8,0,0,0,3.7,1.8A68.2,68.2,0,0,0,48.1,69a51.2,51.2,0,0,0,13.2-1.1A14.3,14.3,0,0,0,65.5,66C65.6,65.9,65.6,65.7,65.5,65.8Z" style="fill:#ffc74e"/><path d="M77.7,50.4a5.3,5.3,0,0,0-1.9,2.5,4.5,4.5,0,0,0-.3,3.2.2.2,0,0,0,.3,0,28.6,28.6,0,0,1,.7-2.8c.4-.9,1-1.7,1.5-2.6A.2.2,0,0,0,77.7,50.4Z" style="fill:#ffc74e"/><path d="M11.9,21.7a10.3,10.3,0,0,0-3.9.2,9.3,9.3,0,0,0-3.8,1c-.1.1-.1.3,0,.3a9,9,0,0,0,4,.3,13.2,13.2,0,0,0,3.9-.6A.7.7,0,0,0,11.9,21.7Z" style="fill:#ffc74e"/><path d="M76.3,37.8a3.4,3.4,0,0,1-.6-1.2c0-.1-.2-.1-.2,0a1.1,1.1,0,0,0,0,1.1c.1.3.4.8.8.7S76.4,38,76.3,37.8Z" style="fill:#ffc74e"/><path d="M11.4,29.5a3.5,3.5,0,0,0-1-2.1c-.1-.1-.3,0-.3.2s0,1.4.1,2.1a3.1,3.1,0,0,0,.6,1.9h.4A2.6,2.6,0,0,0,11.4,29.5Z" style="fill:#fff"/><path d="M12.9,41a6.2,6.2,0,0,0-.2-1.9c-.2-.4-.9-.5-1,0a7.5,7.5,0,0,0-.2,2.1,3.9,3.9,0,0,0,.4,1.8c.2.4.7.3.9-.1A4,4,0,0,0,12.9,41Z" style="fill:#fff"/><path d="M38.4,16.6a.4.4,0,0,0-.5-.3,2.3,2.3,0,0,0-1.1,1.1,3.4,3.4,0,0,0-.2,1.4l.3.2a2,2,0,0,0,1.1-.9A2.1,2.1,0,0,0,38.4,16.6Z" style="fill:#fff"/><path d="M41.4,13.8h-.2a.1.1,0,0,0-.1-.1h-.5l-.2.3c-.1.2,0,.3.1.3s.4.2.6.2a.6.6,0,0,0,.5-.5C41.6,14,41.5,13.8,41.4,13.8Z" style="fill:#fff"/><path d="M47,7.6A2.3,2.3,0,0,0,46.6,6h-.4c-.7.4-.5,1.4-.4,2.1s.5,1.5,1,1A1.6,1.6,0,0,0,47,7.6Z" style="fill:#fff"/><path d="M68.5,32.6c-.4-1.5-1.9-2.7-3.1-3.5s-.5.1-.4.4a7.3,7.3,0,0,0,3.1,3.4C68.3,33,68.5,32.8,68.5,32.6Z" style="fill:#fff"/><path d="M81.7,22.1a3,3,0,0,0-2.8,2.5c0,.1.1.3.3.2l1.4-1.1A8.1,8.1,0,0,0,82,22.5C82.1,22.3,81.9,22.1,81.7,22.1Z" style="fill:#fff"/><path d="M96.8,26.2a.3.3,0,0,0-.6.2c0,.4.1.8.5.9h0c.1.1.3,0,.4-.2h0A.7.7,0,0,0,96.8,26.2Z" style="fill:#fff"/><path d="M69.7,57.5a.4.4,0,0,0-.6-.4h0c-.4,0-.7.3-1.1.6l-.4.5-.2.3v.2a.3.3,0,0,0,.3.5h.5l.8-.4C69.3,58.5,69.8,58,69.7,57.5Z" style="fill:#fff"/><path d="M63.8,45.5A6.2,6.2,0,0,0,62,41.2c-1.5-1.4-2.7-1.4-3-1.3,0-3.2-1.9-6-4.5-8.2a12.1,12.1,0,0,0-14.6,0c-2.5,1.9-4.5,5-4.4,8.2-.3-.1-1.6-.1-3,1.3a6.3,6.3,0,0,0-1.9,4.3,5.1,5.1,0,0,0,4.3,4.8,7.9,7.9,0,0,0,.1,4.8,11.1,11.1,0,0,0,3.1,4.8c3.4,3.1,12.7,4.8,18.2,0a9.6,9.6,0,0,0,3.1-4.8,8.7,8.7,0,0,0,.2-4.8A5,5,0,0,0,63.8,45.5Z" style="fill:#fff2be"/><path d="M55.1,50.5c-.1-.5-.9-.5-1.3-.5a6,6,0,0,0-3.5.4,5.1,5.1,0,0,0-2.7,3.4l-.7.5a4.9,4.9,0,0,0-1.3,1.2c.1-.4.9-2.5,1-3.1s.7-2.6,1-3.9a38.9,38.9,0,0,1,4.1-5,.1.1,0,0,0,.1.1.5.5,0,0,0,.5,0l.3-.3a.9.9,0,0,0-.1-.5l-.3-.3h-.4c-.2.1-.3.2-.3.4a.3.3,0,0,0,0,.4c0,.1,0,.1.1.1a19.2,19.2,0,0,0-3.8,4.3,32.5,32.5,0,0,0,.7-8.2.7.7,0,0,0,0-1.3.7.7,0,0,0-.4,1.3h0c-.3,2.7-.4,5.5-.9,8.2s-.7,3-1,4.5-.1.2-.2.4,0-.3-.1-.4a15.1,15.1,0,0,0,.1-3,22.5,22.5,0,0,0-.6-3.6,13.3,13.3,0,0,0-1-2.8h0l.2-.3h0v-.2a.3.3,0,0,0-.1-.2q-.2-.3-.3-.3a.4.4,0,0,0-.5,0h-.3a.3.3,0,0,0-.1.2v.2h0a.4.4,0,0,0,.1.3h.1c0,.1.1.1.2.1h.4a.1.1,0,0,1,.1-.1,28.6,28.6,0,0,1,.7,2.8,13.3,13.3,0,0,1,.5,3.4,16.2,16.2,0,0,1,.1,2.2l-.3-.6-.6-.8h0a3.5,3.5,0,0,0-.3-2,5.7,5.7,0,0,0-1.1-1.6,5.4,5.4,0,0,0-2-1c-.6-.1-1.5-.3-2,.1s0,1.1.2,1.6a10,10,0,0,0,1.2,1.9c.8.8,2.3,1.7,3.5,1.1l.6.8a11.3,11.3,0,0,1,.8,1.9,39.6,39.6,0,0,1-1.3,4.6,24.7,24.7,0,0,0-1,2.9c-.1.2.6.5.6.3s1.1-2.6,1.5-4a6.4,6.4,0,0,1,2-2l.4-.3h.1c2.5,1.2,5.3-.1,6.7-2.3C54.7,51.6,55.3,50.9,55.1,50.5Z" style="fill:#5b8f3b"/><path d="M57.3,39.3c-.2-.2-.4-.1-.6-.2l-.4-.3.2-.3c0-.1.1-.2.1-.3s-.1-.4-.2-.4-.9.4-1.3-.1,0-.5-.3-.6-.3.2-.4.3-.2.9-.3,1.3-.7.8-1.2,1.1a2.7,2.7,0,0,0-1.4,2,1.5,1.5,0,0,0,.6,1.3.9.9,0,0,0,.9.4,1.6,1.6,0,0,0,1.4-1.1,5.2,5.2,0,0,1,.6-1.3,1.7,1.7,0,0,1,1.4-.9C56.8,40.1,57.6,39.9,57.3,39.3Z" style="fill:#33b2e2"/><path d="M50.4,32.7c-.3-.1-.4.1-.6.1a.5.5,0,0,1-.5,0c0-.1-.1-.2-.1-.3a.6.6,0,0,0-.1-.4c-.1-.1-.2-.2-.4-.1s-.5.9-1,.6-.3-.4-.6-.2a.4.4,0,0,0-.2.4c0,.5.4.9.5,1.3s-.1,1-.3,1.5a2.8,2.8,0,0,0,.1,2.5,1.7,1.7,0,0,0,1.3.7,1,1,0,0,0,.9-.2,2,2,0,0,0,.5-1.8c-.1-.4-.3-.9-.4-1.4a2.1,2.1,0,0,1,.7-1.5C50.4,33.6,51,32.9,50.4,32.7Z" style="fill:#33b2e2"/><path d="M42.8,35.9c-.2,0-.3.2-.4.4s-.4.2-.5.1-.1-.1-.2-.2-.1-.2-.2-.2a.4.4,0,0,0-.5,0c-.4.3,0,1-.6,1s-.5-.1-.6.1a.3.3,0,0,0,0,.5c.3.4.8.6,1.1.9a2,2,0,0,1,.4,1.5,2.7,2.7,0,0,0,1.3,2.1,1.4,1.4,0,0,0,1.4,0,.7.7,0,0,0,.7-.6,1.5,1.5,0,0,0-.4-1.7,5.4,5.4,0,0,1-.9-1.2,1.8,1.8,0,0,1-.2-1.6C43.3,36.7,43.4,35.8,42.8,35.9Z" style="fill:#33b2e2"/><path d="M54.5,50.7a17.4,17.4,0,0,0-6.1,3h0c1-.5,2-1.1,3-1.5l3.1-1.4Z" style="fill:#3e731c"/><path d="M44.1,49.4a8.2,8.2,0,0,0-1.7-2A10,10,0,0,0,40,45.8s-.1.1,0,.1l2.1,1.6,2,2Z" style="fill:#3e731c"/><path d="M24.9,46.9a1,1,0,0,0-1.6,0c-.2.1-.2.2-.3.3a1.1,1.1,0,0,0,.3,1.3,1,1,0,0,0,1.6,0c.2-.1.2-.2.3-.3a1.1,1.1,0,0,0-.3-1.3Z" style="fill:#fff2be"/><path d="M32.9,52.3a1.2,1.2,0,0,0-.9-.4.9.9,0,0,0-.8.4c-.2.1-.2.2-.3.3A1.3,1.3,0,0,0,32,54.3a1.2,1.2,0,0,0,.9-.4l.2-.3a.9.9,0,0,0,.1-.5A1.1,1.1,0,0,0,32.9,52.3Z" style="fill:#fff2be"/><path d="M35.5,62.3a1.3,1.3,0,0,0-.9-.4,1.2,1.2,0,0,0-.8.4.5.5,0,0,0-.2.4.8.8,0,0,0-.2.4,2.5,2.5,0,0,0,.4.9,1.1,1.1,0,0,0,.8.3,1.4,1.4,0,0,0,.9-.3.8.8,0,0,0,.2-.4.9.9,0,0,0,.1-.5A1.1,1.1,0,0,0,35.5,62.3Z" style="fill:#fff2be"/><path d="M27.7,37.6a1.1,1.1,0,0,0-.8-.3,1.4,1.4,0,0,0-.9.3.8.8,0,0,0-.2.4.9.9,0,0,0-.1.5,1.1,1.1,0,0,0,.3.8,1.5,1.5,0,0,0,.9.4,1.2,1.2,0,0,0,.8-.4l.3-.4c0-.1.1-.3.1-.4A2.5,2.5,0,0,0,27.7,37.6Z" style="fill:#fff2be"/><path d="M29.7,28.4a1.3,1.3,0,0,0-.9-.4,1.2,1.2,0,0,0-.8.4.5.5,0,0,0-.2.4.8.8,0,0,0-.2.4,2.5,2.5,0,0,0,.4.9,1.1,1.1,0,0,0,.8.3,1.4,1.4,0,0,0,.9-.3.8.8,0,0,0,.2-.4.7.7,0,0,0,.1-.5A1.1,1.1,0,0,0,29.7,28.4Z" style="fill:#fff2be"/><path d="M36.7,31a1.4,1.4,0,0,0-.9-.3,1.1,1.1,0,0,0-.8.3l-.3.4c0,.2-.1.3-.1.5a1.4,1.4,0,0,0,1.2,1.2,1.5,1.5,0,0,0,.9-.4.5.5,0,0,0,.2-.4.6.6,0,0,0,.1-.4A1.4,1.4,0,0,0,36.7,31Z" style="fill:#fff2be"/><path d="M41.3,24.6a1.3,1.3,0,0,0-.9-.4,1.2,1.2,0,0,0-.8.4.5.5,0,0,0-.2.4.8.8,0,0,0-.2.4,3.6,3.6,0,0,0,.4.9,1.1,1.1,0,0,0,.8.3,1.2,1.2,0,0,0,.9-.3.8.8,0,0,0,.2-.4.9.9,0,0,0,.1-.5A1.1,1.1,0,0,0,41.3,24.6Z" style="fill:#fff2be"/><path d="M55.3,25.9a1.8,1.8,0,0,0-.9-.4,1.2,1.2,0,0,0-.8.4l-.3.4v.4a1.1,1.1,0,0,0,.4.9,1.1,1.1,0,0,0,.8.3,1.6,1.6,0,0,0,.9-.3.8.8,0,0,0,.2-.4.7.7,0,0,0,.1-.5A1.1,1.1,0,0,0,55.3,25.9Z" style="fill:#fff2be"/><path d="M61.3,33.4a1.1,1.1,0,0,0-.8-.3,1.6,1.6,0,0,0-.9.3.5.5,0,0,0-.2.4.6.6,0,0,0-.1.4,1.2,1.2,0,0,0,.3.9,1.6,1.6,0,0,0,.9.3,1.1,1.1,0,0,0,.8-.3l.3-.4a.7.7,0,0,0,.1-.5A.9.9,0,0,0,61.3,33.4Z" style="fill:#fff2be"/><path d="M65.2,25.1a1.8,1.8,0,0,0-.9-.4,1.2,1.2,0,0,0-.8.4c-.2.1-.2.2-.3.4a.6.6,0,0,0-.1.4,1,1,0,0,0,.4.9,1.1,1.1,0,0,0,.8.3,1.6,1.6,0,0,0,.9-.3.5.5,0,0,0,.2-.4.7.7,0,0,0,.1-.5A1.1,1.1,0,0,0,65.2,25.1Z" style="fill:#fff2be"/><path d="M69.1,38.2a.9.9,0,0,0-.8-.4,1.1,1.1,0,0,0-.9.4c-.1.1-.2.2-.2.3a.9.9,0,0,0-.1.5,1.1,1.1,0,0,0,.3.8,1.1,1.1,0,0,0,.9.4.9.9,0,0,0,.8-.4l.3-.3c0-.2.1-.3.1-.5A2,2,0,0,0,69.1,38.2Z" style="fill:#fff2be"/><path d="M76.8,43.2a1.2,1.2,0,0,0-.9-.4.9.9,0,0,0-.8.4l-.3.3a.9.9,0,0,0-.1.5,1.2,1.2,0,0,0,.4.9,1.1,1.1,0,0,0,.8.3,1.6,1.6,0,0,0,.9-.3c.1-.2.2-.3.2-.4a.9.9,0,0,0,.1-.5A1.1,1.1,0,0,0,76.8,43.2Z" style="fill:#fff2be"/><path d="M67.8,46.6a1.2,1.2,0,0,0-1.6,0c-.2.1-.2.3-.3.4a1.1,1.1,0,0,0,.3,1.3,1,1,0,0,0,1.6,0c.2-.1.2-.2.3-.4a.6.6,0,0,0,.1-.4A1.2,1.2,0,0,0,67.8,46.6Z" style="fill:#fff2be"/><path d="M64.5,55.6a1.2,1.2,0,0,0-1.6,0c-.2.1-.2.2-.3.4a.6.6,0,0,0-.1.4,1,1,0,0,0,.4.9,1.2,1.2,0,0,0,1.6,0c.2-.1.2-.2.3-.4a.7.7,0,0,0,.1-.5A.9.9,0,0,0,64.5,55.6Z" style="fill:#fff2be"/><path d="M48.9,64.4a1.6,1.6,0,0,0-.9-.3,1.1,1.1,0,0,0-.8.3l-.3.4a1.1,1.1,0,0,0,.3,1.3,1.2,1.2,0,0,0,.8.4,1.8,1.8,0,0,0,.9-.4.5.5,0,0,0,.2-.4.6.6,0,0,0,.1-.4A1.6,1.6,0,0,0,48.9,64.4Z" style="fill:#fff2be"/><path d="M73.5,52.8a1.1,1.1,0,0,0-.8-.3,1.4,1.4,0,0,0-.9.3.8.8,0,0,0-.2.4.9.9,0,0,0-.1.5,1.1,1.1,0,0,0,.3.8,1.5,1.5,0,0,0,.9.4,1.2,1.2,0,0,0,.8-.4l.3-.4c0-.1.1-.3.1-.4A1.8,1.8,0,0,0,73.5,52.8Z" style="fill:#fff2be"/><path d="M62.7,62.9a.9.9,0,0,0-.8-.4,1.1,1.1,0,0,0-.9.4c-.1.1-.2.2-.2.3a.9.9,0,0,0-.1.5,1.1,1.1,0,0,0,.3.8,1,1,0,0,0,.9.4.9.9,0,0,0,.8-.4l.3-.3c0-.2.1-.3.1-.5A2,2,0,0,0,62.7,62.9Z" style="fill:#fff2be"/><path d="M26.4,56.4a1.3,1.3,0,0,0-1.2-.3l-.6.4a1.5,1.5,0,0,0-.4.9.8.8,0,0,0,.2.4.5.5,0,0,0,.2.4,1,1,0,0,0,.9.4,1.6,1.6,0,0,0,1.2-1A1.4,1.4,0,0,0,26.4,56.4Z" style="fill:#fff2be"/></g></g></svg>