<svg xmlns="http://www.w3.org/2000/svg" viewBox="0 0 125.5 209.7"><g style="isolation:isolate"><g id="Layer_2" data-name="Layer 2"><g id="Layer_1-2" data-name="Layer 1"><path d="M100.6,77.3a18.7,18.7,0,0,0-1.3-10.2c-2.5-5.8-6.7-10.9-11.1-15.3a102.7,102.7,0,0,0-7.8-7l-.5-.7-3.7-4.4a16.8,16.8,0,0,1-3.5-9.1c-.4-3.5-.8-6.9.7-10.2s4-6,6.4-8.6A.6.6,0,1,0,79,11c-2.9,2.3-5.8,4.9-7.6,8.2l-.4.7-.3-.7c-.8-2.1-1.9-4.1-2.2-6.4a.4.4,0,0,0-.8,0,14.3,14.3,0,0,0,1,6.5,28.3,28.3,0,0,1,1.1,3.1c.1.1.1.3.2.5a23.4,23.4,0,0,0-.5,7.5A20.4,20.4,0,0,0,71,37.8a40.8,40.8,0,0,0-14.5-6.3c-6.7-1.2-13.6.5-19.7,3.5a56.5,56.5,0,0,0-9.1,5.5,40.1,40.1,0,0,0-3.9,3c-1.4,1.2-2.6,2.6-4,3.9s.1.6.4.4,2.6-1.4,3.8-2.3,2.6-1.6,3.8-2.5l1.7-1.1a14.8,14.8,0,0,0-1,3.6,42.5,42.5,0,0,0-.6,8c0,1.4,0,2.9.1,4.3s-.2,2.8.7,3.5a.4.4,0,0,0,.5,0c.7-.7.5-1.9.6-2.8s0-2.6.1-3.9a38.3,38.3,0,0,1,.8-6.7l.3.8a24.4,24.4,0,0,0,7.7,8.6c.4.3,1-.4.6-.7A26.1,26.1,0,0,1,33,48.5a6.6,6.6,0,0,1-.6-5.3c.3-.9.8-1.7,1.1-2.6a27.2,27.2,0,0,1,2.4-2.4c5.1-2.6,10.8-4.3,16.7-3.8S64.1,37.6,69,40.9A98,98,0,0,1,83.3,52.3,57.4,57.4,0,0,1,94.7,66.4,16.3,16.3,0,0,1,97,75.5c-.3,3.4-1.4,6.8-2.1,10.2-1.6,6.9-3.3,13.8-4.9,20.7s-2.9,13.5-5,20.1c-.8,2.5-1.8,5-2.8,7.5a62.6,62.6,0,0,0,.2-7.5,51.8,51.8,0,0,0-1.2-10.4c0-.5-.8-.3-.8.1-.1,3.4-.4,6.9-.7,10.3s-.9,6.8-1.5,10.1-1.5,6.7-2.4,10c-.4,1.6-.9,3.2-1.3,4.8s-.3,1.5-.5,2.3a59.2,59.2,0,0,0-2.9,13.4,2.6,2.6,0,0,0,2.6,2.6,2.8,2.8,0,0,0,2.7-2.6c.5-6.4,2.6-12.5,5-18.4s5.2-12.2,7-18.5a18.2,18.2,0,0,0,.7-2.5L90,125a35.8,35.8,0,0,1,2.6-6.4,57.4,57.4,0,0,1,3.2-5.3,21.1,21.1,0,0,1,1.9-2.3,26.5,26.5,0,0,1,2.1-2.6.3.3,0,0,0-.4-.5,13.2,13.2,0,0,0-2.9,1.5,25.2,25.2,0,0,0-2.5,2.1l-1.1,1.2c1.9-8.2,3.6-16.4,5.4-24.6C99.1,84.5,100.1,81,100.6,77.3Z" style="fill:#28575c"/><path d="M53.6,5.9a51.6,51.6,0,0,1,2.3,9.4,11,11,0,0,1-.4,5.1,8.9,8.9,0,0,1-1.4,2.5h1a8.2,8.2,0,0,1,4.4,1.1A10.3,10.3,0,0,1,63,28.8a35.3,35.3,0,0,1,2.4,8,11.1,11.1,0,0,1-3,1.2,50.8,50.8,0,0,1-9.5,1.5H51.8v.2a18.9,18.9,0,0,1-.5,2.3c-.9,2.7-2.1,5.4-3.2,8A31.1,31.1,0,0,1,43,46.4a13.9,13.9,0,0,1-3.7-5,11.6,11.6,0,0,1-.2-6.4c.2-.5.3-1,.5-1.4a29.8,29.8,0,0,1-2,2.9A9,9,0,0,1,32.7,40H30.2a15.7,15.7,0,0,1-7.7-3.1,16.3,16.3,0,0,1,4.9-7.2l1.5-1-1.1-1A18.5,18.5,0,0,1,25.3,24a41.1,41.1,0,0,1-3.4-8.4,30.3,30.3,0,0,1,8.9-2h1.8a17.5,17.5,0,0,1,4,.5,8.7,8.7,0,0,1,3.5,2,12.8,12.8,0,0,1,1.1-2.4c1.4-2.2,3.9-3.6,6.3-4.9l6.1-2.8m0-3a2.7,2.7,0,0,0-1.2.3l-.5.2C50,4.2,48,5.1,46.1,6.1S40.7,9,38.9,11.7l-1.5-.5a14.3,14.3,0,0,0-4.8-.7h-2a35.8,35.8,0,0,0-9.8,2.2A3.1,3.1,0,0,0,19,16.6a56,56,0,0,0,3.7,8.9,16.1,16.1,0,0,0,1.8,2.8A18.3,18.3,0,0,0,19.7,36a3,3,0,0,0,1,3.3A19.5,19.5,0,0,0,29.8,43h1.7l1.7-.2a7.7,7.7,0,0,0,3.1-1.2c.1.2.1.5.2.7A14.8,14.8,0,0,0,41,48.6a29,29,0,0,0,5.5,3.9,3,3,0,0,0,1.6.5H49a3,3,0,0,0,1.8-1.7l.9-2a59,59,0,0,0,2.5-6.3.9.9,0,0,1,.1-.5,44.8,44.8,0,0,0,8.9-1.5,14.5,14.5,0,0,0,3.9-1.7,2.9,2.9,0,0,0,1.2-3,44.4,44.4,0,0,0-2.5-8.6c-.9-2-2.2-4.6-4.6-6.2a11.2,11.2,0,0,0-2.5-1.1,19.6,19.6,0,0,0,.2-5.3A45.8,45.8,0,0,0,56.4,5a2.6,2.6,0,0,0-1.6-1.8,2.7,2.7,0,0,0-1.2-.3Z" style="fill:#c2331d"/><path d="M76.2,23.4a45.4,45.4,0,0,1,7.7,6,11.8,11.8,0,0,1,2.9,4.1,9,9,0,0,1,.4,2.8l.3-.2a8.4,8.4,0,0,1,4.7-2.3h.5a10.9,10.9,0,0,1,5.2,1.6,34.9,34.9,0,0,1,6.8,4.8,8.8,8.8,0,0,1-1.6,2.8,43.3,43.3,0,0,1-6.4,7.1l-.8.7h0A10.6,10.6,0,0,1,97,53c1,2.7,1.7,5.6,2.5,8.3a47.3,47.3,0,0,1-5.2.4H93.2A11.9,11.9,0,0,1,87.3,60a10.6,10.6,0,0,1-4.2-4.9c-.2-.4-.3-.9-.5-1.3a20,20,0,0,1,.2,3.5,9,9,0,0,1-1.6,5.8,15.6,15.6,0,0,1-2,1.6,16.6,16.6,0,0,1-7.9,2.4,16.5,16.5,0,0,1-.6-8.8,15.4,15.4,0,0,1,.5-1.7H69.7a16.4,16.4,0,0,1-4.3-1.3,44,44,0,0,1-7.9-4.4,33.3,33.3,0,0,1,5.8-7.2,15.5,15.5,0,0,1,4.8-3.2,7.5,7.5,0,0,1,3.3-.7h.7a7.2,7.2,0,0,1-.7-2.5c-.3-2.7.7-5.3,1.9-7.8s1.9-4,2.9-6m0-3h-.7A3.2,3.2,0,0,0,73.6,22l-.3.5-2.8,5.7c-1.2,2.6-2.4,5.6-2.1,8.9l-1.5.5a20.2,20.2,0,0,0-5.7,3.8,34.2,34.2,0,0,0-6.3,7.9,3,3,0,0,0,1,4A49,49,0,0,0,64.3,58a19.8,19.8,0,0,0,3.2,1.1,19.6,19.6,0,0,0,1,9,3.1,3.1,0,0,0,2.8,2h.1a19.5,19.5,0,0,0,9.4-2.9,9.7,9.7,0,0,0,2.7-2.1,11.8,11.8,0,0,0,1.6-2.9l.6.4a16.9,16.9,0,0,0,7.4,2.1h1.2a49.1,49.1,0,0,0,5.5-.4,3,3,0,0,0,2.5-3.8c-.2-.7-.3-1.4-.5-2-.6-2.2-1.2-4.4-2-6.5l-.2-.5a43.6,43.6,0,0,0,6-6.8,11.8,11.8,0,0,0,2-3.7,3,3,0,0,0-.9-3.1,40.7,40.7,0,0,0-7.4-5.1,13.2,13.2,0,0,0-6.6-2h-.8a9,9,0,0,0-2.7.7A17.2,17.2,0,0,0,86,27.2a52.1,52.1,0,0,0-8.1-6.3,3.4,3.4,0,0,0-1.7-.5Z" style="fill:#c2331d"/><path d="M111,61.7a40.2,40.2,0,0,1,.8,8.5,9,9,0,0,1-.9,4.3,6.2,6.2,0,0,1-1.6,2h.3a7.1,7.1,0,0,1,4.3,1.6,8.9,8.9,0,0,1,2.4,4.6,30,30,0,0,1,1.1,7.3,11.9,11.9,0,0,1-2.7.7,41.9,41.9,0,0,1-5,.3l-3.5-.2h-.9a16.7,16.7,0,0,1-.8,2c-1.1,2.2-2.5,4.4-3.8,6.5a47.3,47.3,0,0,1-4-3.7,11.4,11.4,0,0,1-2.5-4.9,9.9,9.9,0,0,1,.6-5.6l.6-1.1a15.1,15.1,0,0,1-2.1,2.3,8.2,8.2,0,0,1-4.7,2.4h-.3a6.3,6.3,0,0,1-1.9-.3,13.4,13.4,0,0,1-6.2-3.6,14,14,0,0,1,5.1-5.7l1.4-.7-.8-1a16.2,16.2,0,0,1-1.7-3.5,39.6,39.6,0,0,1-2-7.7,26.2,26.2,0,0,1,6.2-.7h1.9a11.7,11.7,0,0,1,4.9,1.1,8.6,8.6,0,0,1,2.9,2.1,11.8,11.8,0,0,1,1.1-1.9c1.6-1.8,3.9-2.7,6.1-3.5l5.7-1.7m0-3h-1.3l-5.3,1.7a17.2,17.2,0,0,0-7,3.8l-.9-.5a17.2,17.2,0,0,0-6-1.3H88.4a32.5,32.5,0,0,0-6.9.8,2.9,2.9,0,0,0-2.2,3.4A42.1,42.1,0,0,0,81.4,75a15.4,15.4,0,0,0,1,2.4,16.2,16.2,0,0,0-4.9,6.1,2.9,2.9,0,0,0,.5,3.4,16.5,16.5,0,0,0,7.6,4.4,9.3,9.3,0,0,0,2.7.4h.4a6.6,6.6,0,0,0,2.5-.5.3.3,0,0,1,.1.2,14.2,14.2,0,0,0,3.1,6.1,33.5,33.5,0,0,0,4.4,4.1,2.6,2.6,0,0,0,1.9.7h.5a3.4,3.4,0,0,0,2.1-1.4l.9-1.6a45.4,45.4,0,0,0,3-5.3h2.5a30.8,30.8,0,0,0,5.3-.4,8.6,8.6,0,0,0,3.7-1,2.9,2.9,0,0,0,1.7-2.7,34.3,34.3,0,0,0-1.2-7.9,11.2,11.2,0,0,0-3.3-6.1,11.8,11.8,0,0,0-1.8-1.3,15.2,15.2,0,0,0,.7-4.3,44,44,0,0,0-.8-9.1,3,3,0,0,0-1.4-2,3,3,0,0,0-1.6-.5Z" style="fill:#c2331d"/><path d="M65.7,3a2.7,2.7,0,0,1,1.7,1,15.6,15.6,0,0,1,3.3,3.5,6.1,6.1,0,0,1,1.1,3.9,4.2,4.2,0,0,1-1.4,2.7,5,5,0,0,1-2.8,1.2h-.5a4.1,4.1,0,0,1-3-1.2,4.2,4.2,0,0,1-1-1.7,8.5,8.5,0,0,1,.1-5,9.6,9.6,0,0,1,1.1-2.8c.3-.6.6-1.5,1.3-1.6h.1m0-3h-.5a4.9,4.9,0,0,0-3.5,3c0,.1,0,.2-.1.2a18.1,18.1,0,0,0-1.3,3.4,10.9,10.9,0,0,0,0,6.7,7.5,7.5,0,0,0,1.6,2.9,7.4,7.4,0,0,0,5.2,2.1h.8a8.1,8.1,0,0,0,4.5-2,7.2,7.2,0,0,0,2.4-4.6,8.7,8.7,0,0,0-1.6-5.8,20,20,0,0,0-3.9-4.3h-.2A5.4,5.4,0,0,0,65.7,0Z" style="fill:#c2331d"/><path d="M87.7,5c.5,0,1.1.1,1.3.5s-.2,2.3-.4,3.1a11.3,11.3,0,0,1-3.3,5.7,7.2,7.2,0,0,1-2.5,1.8,5.7,5.7,0,0,1-1.8.3,5.3,5.3,0,0,1-4.2-2,4.8,4.8,0,0,1,.1-6.1,7.7,7.7,0,0,1,4.5-2.4,21.3,21.3,0,0,1,4.4-.7L87.7,5m0-3-1.8.2h-.3a28.9,28.9,0,0,0-5,.8,10.7,10.7,0,0,0-6,3.3,8.1,8.1,0,0,0-.2,10A8.5,8.5,0,0,0,81,19.4a8.7,8.7,0,0,0,2.8-.5,10.3,10.3,0,0,0,3.6-2.4,15,15,0,0,0,4.1-7.1V9.1c.4-1.3.9-3.3,0-5A4,4,0,0,0,87.7,2Z" style="fill:#c2331d"/><path d="M29.2,59.2a5.1,5.1,0,0,1,3.3,1.3,8.4,8.4,0,0,1,2.2,3.9,11,11,0,0,1,0,5.1,13.4,13.4,0,0,1-1.2,3c-.4,1-1.3,3.2-2.6,3.2h0c-1.2,0-2.4-1.7-3.1-2.6a14.6,14.6,0,0,1-2.9-4.4,8.5,8.5,0,0,1-.6-3.1,8.3,8.3,0,0,1,.9-3.9,4.9,4.9,0,0,1,3.1-2.4h.9m0-3H27.7a8,8,0,0,0-5.1,3.9,10.5,10.5,0,0,0-1.3,5.4,10.7,10.7,0,0,0,.8,4.1,17.8,17.8,0,0,0,3.4,5.4l.3.3c.9,1.3,2.6,3.3,5.1,3.3h.2c2.9-.1,4.3-3.2,5-4.6v-.3a15.9,15.9,0,0,0,1.4-3.5,14.7,14.7,0,0,0,0-6.6,10.1,10.1,0,0,0-3.1-5.4,8.2,8.2,0,0,0-5.3-2.1Z" style="fill:#c2331d"/><path d="M42.3,52.9a5.4,5.4,0,0,1,2.8.8A8.5,8.5,0,0,1,48.7,58a14,14,0,0,1,.9,2.9c.2.6.7,1.9.4,2.5s-.9.5-1.5.5H47.1l-2.5-.2a10,10,0,0,1-4.5-1.5A5.8,5.8,0,0,1,37.6,58a5.1,5.1,0,0,1,2.1-4.4,5.9,5.9,0,0,1,2.6-.7m0-3a7.6,7.6,0,0,0-4.2,1.2,7.9,7.9,0,0,0-3.5,7.1,8.7,8.7,0,0,0,3.8,6.5,12.1,12.1,0,0,0,5.8,2l2.9.2h1.4a4.4,4.4,0,0,0,4.2-2.1,5.9,5.9,0,0,0-.1-4.2c0-.2,0-.3-.1-.4a15.1,15.1,0,0,0-1.1-3.4,10.6,10.6,0,0,0-4.8-5.7,8.2,8.2,0,0,0-4.3-1.2Z" style="fill:#c2331d"/><path d="M16.1,42.4h1.1a6.7,6.7,0,0,1,3.1,1,5.2,5.2,0,0,1,2,4.5,7,7,0,0,1-2.1,4.5A12.6,12.6,0,0,1,16,55.2a19.5,19.5,0,0,1-7.1,1.4h-1a18.5,18.5,0,0,1-4.1-.7c-1.3-.4-.7-1.7-.3-2.7a21.1,21.1,0,0,1,2-4.3A14,14,0,0,1,8.8,45a11.6,11.6,0,0,1,7.3-2.6m0-3a15.3,15.3,0,0,0-9.2,3.2,21,21,0,0,0-4,4.7,28.4,28.4,0,0,0-2.3,5c0,.1-.1.2-.1.3a5.2,5.2,0,0,0-.1,4.1,4.4,4.4,0,0,0,2.5,2.1,21.8,21.8,0,0,0,4.8.8H8.9A20.7,20.7,0,0,0,17.1,58a15.6,15.6,0,0,0,5.3-3.4,10.2,10.2,0,0,0,2.9-6.4,8.3,8.3,0,0,0-3.2-7.1,9.3,9.3,0,0,0-4.6-1.6Z" style="fill:#c2331d"/><path d="M21.9,15.6a30.3,30.3,0,0,1,8.9-2,18.7,18.7,0,0,1,5.8.4,8.2,8.2,0,0,1,4.6,3.3,9.5,9.5,0,0,1,1.4,4.3,31.5,31.5,0,0,1,.4,5.3c-2.3,2.2-5.6,3-8.8,3.1a8.2,8.2,0,0,1-4.4-.7,7.8,7.8,0,0,1-2-1.6A18.5,18.5,0,0,1,25.3,24,41.1,41.1,0,0,1,21.9,15.6Z" style="fill:#fc8086"/><path d="M44.4,27.5a15,15,0,0,1,10-4.7,8.7,8.7,0,0,1,5.1,1.1A10.3,10.3,0,0,1,63,28.8a35.3,35.3,0,0,1,2.4,8,11.1,11.1,0,0,1-3,1.2,50.8,50.8,0,0,1-9.5,1.5,5.7,5.7,0,0,1-2.9-.3,6.3,6.3,0,0,1-2.5-2.1C45.6,34.4,45,30.7,44.4,27.5Z" style="fill:#fc8086"/><g style="opacity:0.4;mix-blend-mode:multiply"><path d="M36.9,25.1l-1.9.2-2-.4a9.7,9.7,0,0,1-3.4-1.6,16.6,16.6,0,0,1-5.1-5.8c-.1-.2-.2-.1-.2.1a15.7,15.7,0,0,0,5.1,6.3A9.9,9.9,0,0,0,33,25.6c1.2.3,2.8.6,4-.2S37.1,25.1,36.9,25.1Z" style="fill:#fc8086"/><path d="M36.9,20.9a23.8,23.8,0,0,0-3-1.8A23.6,23.6,0,0,0,27,17.2c-.1,0-.1.2,0,.2a20.2,20.2,0,0,1,6.4,2.2,16.7,16.7,0,0,1,2.8,1.8l1.1,1a5.2,5.2,0,0,0,1,1.1c.2.1.5,0,.5-.2A5,5,0,0,0,36.9,20.9Z" style="fill:#fc8086"/><path d="M39.4,20.3a9.4,9.4,0,0,0-.9-1.2,9.1,9.1,0,0,0-2.4-2c-.2-.1-.3.1-.2.2a8.5,8.5,0,0,1,2.2,2,10.1,10.1,0,0,1,.9,1.3,3.2,3.2,0,0,0,.8,1.2c0,.1.2,0,.2-.1A2.5,2.5,0,0,0,39.4,20.3Z" style="fill:#fc8086"/><path d="M37.1,23.5,35.7,23l-1.4-.5a10.1,10.1,0,0,1-2.6-1.6c-.1-.1-.3.1-.2.2a10.6,10.6,0,0,0,2.6,1.7,3.5,3.5,0,0,0,1.4.6,4.2,4.2,0,0,0,1.5.4C37.1,23.7,37.2,23.6,37.1,23.5Z" style="fill:#fc8086"/><path d="M35.4,27.4l-1.4.2H32.6a9.3,9.3,0,0,1-2.9-.5c-.1-.1-.2.1-.1.1a7.4,7.4,0,0,0,2.9.8h1.6a3.7,3.7,0,0,0,1.4-.4C35.6,27.6,35.6,27.4,35.4,27.4Z" style="fill:#fc8086"/><path d="M60.8,36.5c-2.7.2-5.6.8-8.2-.1a8.7,8.7,0,0,1-3-1.6,26.2,26.2,0,0,1-2.2-2.5c0-.1-.1,0-.1.1a6.1,6.1,0,0,0,1.8,2.8,9.2,9.2,0,0,0,3,1.8,12.2,12.2,0,0,0,4.2.6,13.3,13.3,0,0,0,4.5-.8C61,36.7,61,36.5,60.8,36.5Z" style="fill:#fc8086"/><path d="M59.3,27.4a10.9,10.9,0,0,0-3.7-1.9l-2.1-.2a3.4,3.4,0,0,0-2,.3c-.1.1-.1.2,0,.2h1.8a7.8,7.8,0,0,1,2.2.3,7.9,7.9,0,0,1,3.7,2c2.1,1.8,3.3,4.4,4.4,6.9.1.2.3.1.3-.1C62.9,32.1,61.6,29.3,59.3,27.4Z" style="fill:#fc8086"/><path d="M59.6,33.1a8.4,8.4,0,0,0-2.3-1.2l-2.4-1.1a33.5,33.5,0,0,0-5.4-1.6s-.1.1,0,.1l5.1,1.9L57,32.3a12.8,12.8,0,0,0,2.4,1.1C59.6,33.4,59.7,33.2,59.6,33.1Z" style="fill:#fc8086"/><path d="M56.3,34.4,54.6,34,53,33.5a12.4,12.4,0,0,1-3-1.6.1.1,0,1,0-.1.2A11.2,11.2,0,0,0,52.8,34l1.8.5a4.7,4.7,0,0,0,1.7.1C56.4,34.6,56.4,34.4,56.3,34.4Z" style="fill:#fc8086"/><path d="M58.1,29.4l-1.2-.8L55.6,28l-1.4-.4a3.3,3.3,0,0,0-1.4-.1c-.1,0-.1.1-.1.2l.7.2.7.2,1.3.4,1.2.6.7.3.6.3C58,29.7,58.2,29.6,58.1,29.4Z" style="fill:#fc8086"/></g><path d="M43.4,28a15.1,15.1,0,0,0,9.1-3.5,10.2,10.2,0,0,0,3-4.1,11,11,0,0,0,.4-5.1,51.6,51.6,0,0,0-2.3-9.4L47.5,8.7c-2.4,1.3-4.9,2.7-6.3,4.9A11.5,11.5,0,0,0,39.7,19a13.1,13.1,0,0,0,1.9,7.5A8.4,8.4,0,0,0,43.4,28Z" style="fill:#fd989f"/><path d="M42.3,29.3A15.3,15.3,0,0,0,39.1,35a11.6,11.6,0,0,0,.2,6.4,13.9,13.9,0,0,0,3.7,5A31.1,31.1,0,0,0,48.1,50c1.1-2.6,2.3-5.3,3.2-8a18.9,18.9,0,0,0,.5-2.3,8.8,8.8,0,0,0-2.7-7A15.6,15.6,0,0,0,42.3,29.3Z" style="fill:#fd989f"/><path d="M22.5,36.9a16.3,16.3,0,0,1,4.9-7.2,11.8,11.8,0,0,1,4-2.1,9.6,9.6,0,0,1,5.3.2,18,18,0,0,1,4.8,2.4,31.5,31.5,0,0,1-3.9,6.3A9,9,0,0,1,32.7,40a7,7,0,0,1-2.5,0A15.7,15.7,0,0,1,22.5,36.9Z" style="fill:#fd989f"/><g style="opacity:0.4;mix-blend-mode:multiply"><path d="M50.1,9.4a15.8,15.8,0,0,0-2.6,1.3c-.8.6-1.6,1.1-2.4,1.8s-1.3,1.3-1.9,2.1a4.6,4.6,0,0,0-1,2.6c0,.2.3.2.4.1A10.5,10.5,0,0,1,43.9,15a17.1,17.1,0,0,1,1.8-2,28.9,28.9,0,0,1,4.5-3.3A.2.2,0,0,0,50.1,9.4Z" style="fill:#fd989f"/><path d="M53.9,12.8c0-.1-.2-.1-.2,0a13,13,0,0,1-.4,4.8,19.5,19.5,0,0,1-.8,2.2,5.4,5.4,0,0,1-.5,1.1,3.2,3.2,0,0,0-.3.9c0,.2.1.3.2.2a3.3,3.3,0,0,0,1.2-1.9,11.3,11.3,0,0,0,.8-2.4A13.4,13.4,0,0,0,53.9,12.8Z" style="fill:#fd989f"/><path d="M50.6,13.4a14.9,14.9,0,0,0-1.5,2l-1.4,2.2a13,13,0,0,0-1.8,4.6.2.2,0,0,0,.4.1c.7-1.5,1.2-3.1,2-4.6l1.2-2.1a9.2,9.2,0,0,0,1.3-2.1Z" style="fill:#fd989f"/><path d="M47.6,13.9A5.7,5.7,0,0,0,46.5,15a2.7,2.7,0,0,0-.9,1.2,5.7,5.7,0,0,0-.8,1.3,3.7,3.7,0,0,0-.4,1.5c0,.1.2.1.2,0a.7.7,0,0,0,.3-.6l.3-.7c.2-.5.5-.9.7-1.3l.9-1.2,1-1.1C47.9,14,47.7,13.9,47.6,13.9Z" style="fill:#fd989f"/><path d="M51.2,16.2l-.9,2.7-.5,1.2-.3.7c-.1.2-.3.3-.3.6s.1.2.2.1l.5-.4.4-.6a6.9,6.9,0,0,0,.5-1.3,17.4,17.4,0,0,0,.7-2.9C51.5,16.1,51.2,16,51.2,16.2Z" style="fill:#fd989f"/><path d="M37.8,33.7a14.2,14.2,0,0,1-4.5,3.2,14.3,14.3,0,0,1-5.4.9c-.2,0-.2.2,0,.3a8.6,8.6,0,0,0,2.8.2,9.6,9.6,0,0,0,2.9-.8A8.7,8.7,0,0,0,38,33.9C38.1,33.8,37.9,33.6,37.8,33.7Z" style="fill:#fd989f"/><path d="M30,30.1a3.7,3.7,0,0,0-1.4.7,11,11,0,0,0-1.4.9l-1.1,1.2a3.5,3.5,0,0,0-.8,1.3c-.1.2.1.3.2.2s.6-.9.9-1.2l1.1-1.1,1.3-1a4.6,4.6,0,0,0,1.3-.8C30.2,30.3,30.1,30.1,30,30.1Z" style="fill:#fd989f"/><path d="M35.6,32a3.6,3.6,0,0,0-2,.4l-1.9.8a11.2,11.2,0,0,0-3.3,2.4c-.1.1,0,.3.1.2a16.8,16.8,0,0,1,3.4-2l1.9-.8a5.6,5.6,0,0,0,1.8-.7C35.7,32.2,35.7,32,35.6,32Z" style="fill:#fd989f"/><path d="M35.1,33.9l-.8.4-.8.5-1.7.9c-.1,0,0,.2.1.2l1.7-.8.9-.5.7-.5C35.3,34,35.2,33.9,35.1,33.9Z" style="fill:#fd989f"/><path d="M33.1,30.9a9,9,0,0,0-2.2.6A9.3,9.3,0,0,0,29,32.6c-.1.1,0,.3.2.2l2-.9,2-.8C33.4,31.1,33.3,30.8,33.1,30.9Z" style="fill:#fd989f"/><path d="M43.8,44.5a15.3,15.3,0,0,1-2.3-4.6,12.6,12.6,0,0,1-.4-2.8c-.1-.9-.1-1.8-.2-2.7s-.1-.1-.1,0a9.5,9.5,0,0,0-.2,2.9,13.6,13.6,0,0,0,.3,2.9,9.1,9.1,0,0,0,2.7,4.5C43.7,44.8,43.9,44.6,43.8,44.5Z" style="fill:#fd989f"/><path d="M49.5,41.2a1.5,1.5,0,0,0-.3-1.1h-.1a4.1,4.1,0,0,0-.1,1.1c0,.4-.1.8-.1,1.2a3.6,3.6,0,0,0-.2,1.1,5.3,5.3,0,0,0-.3,1.2c-.1.2.2.3.3.1a2.6,2.6,0,0,0,.5-1.2l.3-1.2Z" style="fill:#fd989f"/><path d="M45.2,39.2c-.1-.7-.3-1.3-.4-2a15.2,15.2,0,0,0-.3-2.1c0-.1-.2,0-.2.1a18.1,18.1,0,0,0,.4,4,12.5,12.5,0,0,0,1.1,3.9c.1.1.2.1.2,0A27,27,0,0,0,45.2,39.2Z" style="fill:#fd989f"/><path d="M43.2,39.6a.9.9,0,0,0-.1-.5c-.1-.3-.1-.6-.2-.9s-.1-1.4-.2-2a.2.2,0,0,0-.3,0,14.8,14.8,0,0,0,.1,2.1c.1.3.1.6.2,1a3.6,3.6,0,0,0,.4.9c.1.1.2,0,.2-.1S43.2,39.8,43.2,39.6Z" style="fill:#fd989f"/><path d="M47.4,38.8c-.1-.2-.1-.5-.2-.7a1.4,1.4,0,0,0-.2-.7c0-.2-.2-.2-.2,0a1.7,1.7,0,0,0,.1.7v.7c0,.3.1.5.1.8v.3c0,.2,0,.3.1.4s.1.1.2,0,.1-.2.1-.4V38.8Z" style="fill:#fd989f"/></g><path d="M48.5,24.3a4.4,4.4,0,0,0-1.6-.2,4.9,4.9,0,0,0-2.1.8,12.3,12.3,0,0,0,.2-2,2.7,2.7,0,0,0-.8-1.9,1.7,1.7,0,0,0-1.4-.2,5.9,5.9,0,0,0-1.4.6,9.7,9.7,0,0,0-3.2,4,9.4,9.4,0,0,0-.7,5c.1.4.1.8.4,1a1.3,1.3,0,0,0,1.3.3l1.6-.4a3,3,0,0,0,1.7,2.2,3.2,3.2,0,0,0,2.5-.3,6.9,6.9,0,0,0,2.6-2.5A11.5,11.5,0,0,0,49,28a3.4,3.4,0,0,0,.4-2A2.1,2.1,0,0,0,48.5,24.3Z" style="fill:#fd646f"/><path d="M44.8,25c-.5,0-1,.6-1.3,1a6.1,6.1,0,0,0-1.2,1.6,8,8,0,0,0-.8,1.6,3,3,0,0,0-.4,1,2.7,2.7,0,0,0,0,.9h.3c.2-.1.3-.4.4-.7a3,3,0,0,1,.4-.8A8,8,0,0,1,43,28a5.6,5.6,0,0,1,1-1.5l.5-.8a1.6,1.6,0,0,0,.4-.7Z" style="fill:#fd646f;opacity:0.4;mix-blend-mode:multiply"/><g style="opacity:0.4;mix-blend-mode:multiply"><path d="M43.5,23.5a6.4,6.4,0,0,0-.2-.7l-.3-.7a.3.3,0,0,0-.4.2c.1.2.1.4.2.6s.1.4.1.7.1.4.1.6v.3h.1v.2h.2l.2-.3v-1Z" style="fill:#fd646f"/><path d="M40.8,29c-.1-.2-.2-.1-.4-.1H38.6c-.2-.1-.3.2-.1.3a2,2,0,0,0,1.1.3h.5c.2-.1.5-.2.6-.4h-.1C40.7,29.2,40.8,29.1,40.8,29Z" style="fill:#fd646f"/><path d="M41.3,27.3h-.8l-.7-.3c-.1-.1-.2,0-.3.1a.4.4,0,0,0,.1.3l.8.4h.9c.1,0,.1,0,.1-.1S41.4,27.3,41.3,27.3Z" style="fill:#fd646f"/><path d="M42,25.2l-.4-.6a1.2,1.2,0,0,0-.5-.5,1,1,0,0,0-.5-.4c-.1-.1-.3,0-.2.2l.4.5.4.5.3.5.5.6a.1.1,0,0,0,.1-.1A.8.8,0,0,0,42,25.2Z" style="fill:#fd646f"/><path d="M43.6,32.3c0-.1-.1-.1-.1-.2s-.1-.1-.1-.2l-.3-.5a3.6,3.6,0,0,1-.4-.9.2.2,0,1,0-.3.1,5.6,5.6,0,0,0,.4,1.2l.3.5c.1.1.4.4.5.3s.1-.1.1-.2Z" style="fill:#fd646f"/><path d="M45,30.5l-.3-.2-.4-.3-.4-.4c-.1-.1-.2-.1-.2-.2l-.3-.2a.1.1,0,0,0-.1.1v.2l.2.3.4.5.4.4.3.2H45c.1,0,.2-.1.1-.2S45,30.6,45,30.5Z" style="fill:#fd646f"/><path d="M46.5,28.3l-.3-.2-.6-.2-1.4-.3c-.2,0-.2.4,0,.4l1.2.5.7.2c.1,0,.4.1.6,0h.1Z" style="fill:#fd646f"/><path d="M47.3,26.3a2,2,0,0,0-1.1-.3H45c-.1,0-.2.3-.1.4h2.3C47.5,26.8,47.5,26.4,47.3,26.3Z" style="fill:#fd646f"/></g><path d="M57.5,50.8a33.3,33.3,0,0,1,5.8-7.2,15.5,15.5,0,0,1,4.8-3.2,7.7,7.7,0,0,1,5.6-.3,8.7,8.7,0,0,1,3.8,2.5,26,26,0,0,1,3.6,3.8,13.8,13.8,0,0,1-4.9,8,9.3,9.3,0,0,1-4,2.2,7,7,0,0,1-2.5-.1,16.4,16.4,0,0,1-4.3-1.3A44,44,0,0,1,57.5,50.8Z" style="fill:#fc8086"/><path d="M82.6,46a14.1,14.1,0,0,1,4.9-9.9,8.4,8.4,0,0,1,4.7-2.3c2-.2,3.9.7,5.7,1.6a34.9,34.9,0,0,1,6.8,4.8,8.8,8.8,0,0,1-1.6,2.8,43.3,43.3,0,0,1-6.4,7.1,7.2,7.2,0,0,1-2.4,1.6,6.5,6.5,0,0,1-3.4-.1C87.8,50.7,85.1,48.1,82.6,46Z" style="fill:#fc8086"/><g style="opacity:0.4;mix-blend-mode:multiply"><path d="M75.2,48.8l-1.4,1.3A8.7,8.7,0,0,1,72,51.2a15.3,15.3,0,0,1-3.7.8,16.6,16.6,0,0,1-7.6-1.4c-.1,0-.2.1,0,.2a15.3,15.3,0,0,0,7.9,1.8,12.4,12.4,0,0,0,3.8-.9,5,5,0,0,0,3-2.7C75.5,48.9,75.3,48.7,75.2,48.8Z" style="fill:#fc8086"/><path d="M72.5,45.6a13.3,13.3,0,0,0-3.4.5,21.8,21.8,0,0,0-6.5,2.7c-.1.1,0,.3.1.2a20.4,20.4,0,0,1,6.4-2.3,16.6,16.6,0,0,1,3.2-.3h1.5c.5,0,1,.3,1.5.2a.3.3,0,0,0,.2-.5C74.8,45.6,73.4,45.6,72.5,45.6Z" style="fill:#fc8086"/><path d="M74.2,43.5l-1.5-.4a8.6,8.6,0,0,0-3.2,0c-.1,0-.1.2.1.2a10.2,10.2,0,0,1,3,.3L74,44a3.4,3.4,0,0,0,1.4.5c.1,0,.2-.1.1-.2A3.5,3.5,0,0,0,74.2,43.5Z" style="fill:#fc8086"/><path d="M74.3,47.5A3.5,3.5,0,0,0,73,48l-1.5.4a10.3,10.3,0,0,1-3,.4c-.1,0-.1.2,0,.2a10.8,10.8,0,0,0,3.1-.2l1.5-.4c.4-.2,1-.3,1.3-.7S74.5,47.4,74.3,47.5Z" style="fill:#fc8086"/><path d="M75.5,51.6a3.2,3.2,0,0,0-1,1l-1.1.9a13,13,0,0,1-2.6,1.4c-.1,0-.1.1,0,.1a7.7,7.7,0,0,0,2.8-1.2l1.2-.9a5.4,5.4,0,0,0,.9-1.2C75.7,51.6,75.6,51.5,75.5,51.6Z" style="fill:#fc8086"/><path d="M101,42.8c-2,1.9-3.9,4.1-6.5,5.1a9.2,9.2,0,0,1-3.3.6,32.3,32.3,0,0,1-3.3-.6.1.1,0,0,0-.1.1A5.6,5.6,0,0,0,91,49.1a8.3,8.3,0,0,0,3.5-.5,10.7,10.7,0,0,0,3.7-2.2,12.4,12.4,0,0,0,3-3.4C101.3,42.9,101.1,42.7,101,42.8Z" style="fill:#fc8086"/><path d="M94.1,36.7a9.7,9.7,0,0,0-4.1.8l-1.7,1.1a3.6,3.6,0,0,0-1.4,1.6c0,.1.1.2.1.1a8.8,8.8,0,0,0,1.5-1.2A8.6,8.6,0,0,1,90.4,38a9,9,0,0,1,4-.8,20.6,20.6,0,0,1,7.9,2.7c.1.1.2-.2.1-.2A15,15,0,0,0,94.1,36.7Z" style="fill:#fc8086"/><path d="M97.9,40.9a11.1,11.1,0,0,0-2.5.5l-2.6.7a25.7,25.7,0,0,0-5.2,2.1h.1a50.8,50.8,0,0,1,5.1-1.7l2.6-.7a11.1,11.1,0,0,0,2.6-.7C98.1,41.2,98.1,41,97.9,40.9Z" style="fill:#fc8086"/><path d="M96.1,44l-1.5.7a4.4,4.4,0,0,1-1.6.6,9.2,9.2,0,0,1-3.3.6.2.2,0,0,0,0,.3,10.5,10.5,0,0,0,3.5-.4,11.5,11.5,0,0,0,1.7-.6,12.1,12.1,0,0,0,1.4-1A.2.2,0,0,0,96.1,44Z" style="fill:#fc8086"/><path d="M94.4,39a3.4,3.4,0,0,0-1.4.1l-1.4.4-1.3.5c-.4.2-1,.4-1.2.8s0,.2.1.1l.6-.2.7-.2,1.2-.5,1.4-.4h.7l.6-.2Q94.7,39.2,94.4,39Z" style="fill:#fc8086"/></g><path d="M82.1,47.1A15.1,15.1,0,0,0,87,38.7a10.2,10.2,0,0,0-.2-5.2,11.8,11.8,0,0,0-2.9-4.1,45.4,45.4,0,0,0-7.7-6c-1,2-2,4-2.9,6s-2.2,5.1-1.9,7.8a11.4,11.4,0,0,0,2.2,5.2,12.8,12.8,0,0,0,6.2,4.5A9,9,0,0,0,82.1,47.1Z" style="fill:#fd989f"/><path d="M82.1,48.7a12.7,12.7,0,0,0,1,6.4A10.6,10.6,0,0,0,87.3,60a11.9,11.9,0,0,0,5.9,1.7,33.3,33.3,0,0,0,6.3-.4C98.7,58.6,98,55.7,97,53a10.6,10.6,0,0,0-1.1-2.1,8.2,8.2,0,0,0-6.4-3.7A14.5,14.5,0,0,0,82.1,48.7Z" style="fill:#fd989f"/><path d="M71.3,67.1a16.5,16.5,0,0,1-.6-8.8,10.5,10.5,0,0,1,1.7-4.1,10.4,10.4,0,0,1,4.3-3.1A16.1,16.1,0,0,1,81.9,50a25.6,25.6,0,0,1,.9,7.3,9,9,0,0,1-1.6,5.8,15.6,15.6,0,0,1-2,1.6A16.6,16.6,0,0,1,71.3,67.1Z" style="fill:#fd989f"/><g style="opacity:0.4;mix-blend-mode:multiply"><path d="M75.7,28.4A12.3,12.3,0,0,0,74.5,31a13.7,13.7,0,0,0-.7,2.9,12.7,12.7,0,0,0-.2,2.8,3.9,3.9,0,0,0,.7,2.6c.2.2.5.1.4-.1s-.3-1.7-.4-2.6a24.5,24.5,0,0,1,.2-2.7,32.9,32.9,0,0,1,1.4-5.4A.1.1,0,1,0,75.7,28.4Z" style="fill:#fd989f"/><path d="M80.8,28.6c-.1-.1-.2.1-.1.2a14.8,14.8,0,0,1,2.6,3.9,19.5,19.5,0,0,1,.8,2.2l.3,1.2a1.9,1.9,0,0,0,.3,1c.1.1.3.1.3-.1s-.1-1.6-.3-2.2a9.9,9.9,0,0,0-.9-2.4A14,14,0,0,0,80.8,28.6Z" style="fill:#fd989f"/><path d="M78.6,31.2a9.7,9.7,0,0,0,.1,2.4l.3,2.6a10.7,10.7,0,0,0,1.4,4.7c.1.2.5.1.4-.1s-1-3.2-1.3-4.8a19,19,0,0,1-.3-2.5,10,10,0,0,0-.4-2.4C78.8,31,78.6,31.1,78.6,31.2Z" style="fill:#fd989f"/><path d="M76.6,33.4a8,8,0,0,0-.3,1.5,9.2,9.2,0,0,0,.1,1.6,3.2,3.2,0,0,0,.3,1.4,3.8,3.8,0,0,0,.5,1.5.2.2,0,0,0,.3-.1,6.4,6.4,0,0,0-.2-.7,2.4,2.4,0,0,1-.2-.8l-.3-1.4a7.5,7.5,0,0,1,0-1.5,6.5,6.5,0,0,0,0-1.4C76.8,33.3,76.6,33.3,76.6,33.4Z" style="fill:#fd989f"/><path d="M80.8,33c.3.8.6,1.7,1,2.6l.3,1.3c.1.2.1.5.2.7a1.7,1.7,0,0,0,.1.7c.1.1.3.1.3,0a1.7,1.7,0,0,0,.1-.7v-.7c-.1-.5-.3-1-.4-1.4l-1.3-2.7C81,32.7,80.7,32.8,80.8,33Z" style="fill:#fd989f"/><path d="M81.3,55a13,13,0,0,1-5.2,9.4c-.1.1,0,.3.1.2A7.8,7.8,0,0,0,78.6,63a10.8,10.8,0,0,0,1.8-2.4A9,9,0,0,0,81.5,55C81.5,54.9,81.3,54.9,81.3,55Z" style="fill:#fd989f"/><path d="M73,57.1a3.2,3.2,0,0,0-.8,1.4,8.3,8.3,0,0,0-.4,1.5,8.8,8.8,0,0,0-.2,1.6,4.1,4.1,0,0,0,.2,1.6c0,.2.3.1.3,0s-.1-1-.1-1.5.1-1.1.2-1.6a8.3,8.3,0,0,1,.4-1.5,3.9,3.9,0,0,0,.5-1.4C73.2,57.1,73,57,73,57.1Z" style="fill:#fd989f"/><path d="M78.5,55.1a3.5,3.5,0,0,0-1.3,1.4,11.4,11.4,0,0,0-1,1.9,10.8,10.8,0,0,0-1.1,4c0,.1.1.2.2,0a27.9,27.9,0,0,1,1.4-3.7,9.5,9.5,0,0,1,1-1.7,6.1,6.1,0,0,0,.9-1.8C78.7,55.1,78.6,55,78.5,55.1Z" style="fill:#fd989f"/><path d="M79.3,56.8a3,3,0,0,0-.4.8,3.6,3.6,0,0,1-.4.9,13.4,13.4,0,0,1-.7,1.8c0,.1.1.2.2.1l.9-1.7.3-.9a1.6,1.6,0,0,0,.3-.9C79.5,56.8,79.4,56.7,79.3,56.8Z" style="fill:#fd989f"/><path d="M75.8,55.7l-1.3,1.8a9,9,0,0,0-.8,2.1c0,.2.2.2.3.1l.9-2,1.2-1.9C76.2,55.7,75.9,55.6,75.8,55.7Z" style="fill:#fd989f"/><path d="M92.7,59.7a14.8,14.8,0,0,1-4.6-2.1A19.9,19.9,0,0,1,86,55.7c-.7-.7-1.2-1.5-1.9-2.1a.1.1,0,0,0-.1.1,10.4,10.4,0,0,0,1.7,2.4,10,10,0,0,0,2.1,2A8.4,8.4,0,0,0,92.6,60C92.8,60,92.8,59.7,92.7,59.7Z" style="fill:#fd989f"/><path d="M95.1,53.6a1.8,1.8,0,0,0-.9-.8h-.1a3.3,3.3,0,0,0,.6,1l.6.9.6,1.1a7.6,7.6,0,0,0,.4,1.1c.2.1.4.1.5-.1a2.8,2.8,0,0,0-.4-1.3l-.6-1.1Z" style="fill:#fd989f"/><path d="M90.4,54.7,89,53.4l-1.6-1.5c-.1,0-.2.1-.1.2A15.3,15.3,0,0,0,90.1,55a12.7,12.7,0,0,0,3.3,2.4c.1,0,.2-.1.1-.2A18.9,18.9,0,0,0,90.4,54.7Z" style="fill:#fd989f"/><path d="M89.2,56.2l-.4-.3-.7-.6-1.4-1.4c-.2-.2-.4,0-.3.1a10.7,10.7,0,0,0,1.4,1.6,2.7,2.7,0,0,0,.8.7l.8.5c.1,0,.2-.2.1-.2Z" style="fill:#fd989f"/><path d="M91.9,53c-.2-.1-.3-.3-.5-.5l-.6-.4c-.2-.1-.3.1-.2.2s.3.3.5.5l.5.5.5.6c.1,0,.1.1.2.2l.3.3a.2.2,0,0,0,.2-.2c0-.1-.1-.2-.2-.3s-.1-.2-.2-.3Z" style="fill:#fd989f"/></g><path d="M83.8,41a2.5,2.5,0,0,0-1.4.8,5.6,5.6,0,0,0-1.1,2,10.4,10.4,0,0,0-1.2-1.7,2.3,2.3,0,0,0-1.7-1,1.7,1.7,0,0,0-1.3.7,6.1,6.1,0,0,0-.7,1.4,8.5,8.5,0,0,0,0,5A8.7,8.7,0,0,0,79,52.6a1.2,1.2,0,0,0,.9.5,1.2,1.2,0,0,0,1.2-.6,6.4,6.4,0,0,0,1-1.3,2.7,2.7,0,0,0,2.7.7,3.2,3.2,0,0,0,1.8-1.8,8.5,8.5,0,0,0,.5-3.6,15.9,15.9,0,0,0-.6-3,5.6,5.6,0,0,0-.9-1.7A2.3,2.3,0,0,0,83.8,41Z" style="fill:#fd646f"/><path d="M81.3,43.8a2.4,2.4,0,0,0-.4,1.6,13.4,13.4,0,0,0,.1,2,11.3,11.3,0,0,0,.3,1.8,3.6,3.6,0,0,0,.4.9,1.4,1.4,0,0,0,.5.8c.1.1.2,0,.2-.1a1.1,1.1,0,0,0-.1-.8,4.4,4.4,0,0,0-.2-1c-.1-.5-.3-1.1-.4-1.7s-.1-1.2-.1-1.8-.1-.6-.1-.9a1.9,1.9,0,0,0-.1-.8Z" style="fill:#fd646f;opacity:0.4;mix-blend-mode:multiply"/><g style="opacity:0.4;mix-blend-mode:multiply"><path d="M79.3,43.5l-.5-.5-.7-.3c-.2-.1-.4.2-.2.4l.6.4.4.4.5.4a.2.2,0,0,0,.2.2.1.1,0,0,0,.1.1h.2a.1.1,0,0,0,.1-.1v-.3c-.1-.1-.2-.2-.2-.3S79.5,43.6,79.3,43.5Z" style="fill:#fd646f"/><path d="M80.6,49.4l-.3.2-.3.3-.3.4h-.1l-.2.2-.4.2c-.2.1-.1.5.1.4a1.6,1.6,0,0,0,1-.5.8.8,0,0,0,.4-.4c.1-.2.3-.4.2-.6h0C80.7,49.7,80.8,49.5,80.6,49.4Z" style="fill:#fd646f"/><path d="M80,47.8h-.3l-.4.2-.7.2c-.1,0-.2.1-.2.3h.3l.8-.2a.5.5,0,0,0,.4-.2h.2a.3.3,0,0,0,.1-.2c.1-.1.1-.2,0-.2S80.1,47.8,80,47.8Z" style="fill:#fd646f"/><path d="M79.2,45.7l-.6-.2H77.2c-.2,0-.2.3-.1.3l.7.2h.6l.6.2a.9.9,0,0,0,.7.1h.1A1.5,1.5,0,0,0,79.2,45.7Z" style="fill:#fd646f"/><path d="M84.9,50.3h-.4l-.5-.2-.9-.5c-.2-.1-.4.1-.2.3l1.1.7.6.2c.1,0,.4.1.5-.1v-.2Z" style="fill:#fd646f"/><path d="M84.8,48H82.9c-.1.1-.1.1-.1.2h.5l.6.2h1.2a.1.1,0,0,1,.1-.1c0-.1,0-.2-.1-.2Z" style="fill:#fd646f"/><path d="M84.7,45.3h-.3l-.7.2-1.2.6c-.2.2,0,.4.2.4l1.3-.5.6-.2a.5.5,0,0,0,.5-.3v-.2Z" style="fill:#fd646f"/><path d="M84.1,43.3a2.1,2.1,0,0,0-1.1.4l-.4.4-.3.3a.1.1,0,0,1-.1.1c-.1.2-.1.4.1.4l.5-.3.5-.3.5-.3.5-.3C84.5,43.5,84.3,43.3,84.1,43.3Z" style="fill:#fd646f"/></g><path d="M82.2,66.2a27.7,27.7,0,0,1,8.1-.6,11.7,11.7,0,0,1,4.9,1.1,6.3,6.3,0,0,1,3.6,3.4,8.7,8.7,0,0,1,.7,3.9,35.5,35.5,0,0,1-.3,4.6,12,12,0,0,1-8.1,1.7A8.2,8.2,0,0,1,87.4,79a5.7,5.7,0,0,1-1.5-1.6,16.2,16.2,0,0,1-1.7-3.5A39.6,39.6,0,0,1,82.2,66.2Z" style="fill:#fc8086"/><path d="M100.4,79.3a12.7,12.7,0,0,1,9.2-2.8,7.1,7.1,0,0,1,4.3,1.6,8.9,8.9,0,0,1,2.4,4.6,30,30,0,0,1,1.1,7.3,11.9,11.9,0,0,1-2.7.7,40.3,40.3,0,0,1-8.5.1,6.1,6.1,0,0,1-2.4-.6,5.3,5.3,0,0,1-2-2.2C100.5,85.4,100.5,82.2,100.4,79.3Z" style="fill:#fc8086"/><g style="opacity:0.4;mix-blend-mode:multiply"><path d="M94.1,76.3H92.4l-1.7-.5A13.1,13.1,0,0,1,88,73.8a13.8,13.8,0,0,1-3.7-5.7c-.1-.1-.2,0-.2.1a13.3,13.3,0,0,0,3.7,6.1,8.7,8.7,0,0,0,2.8,1.9c1.1.5,2.5.9,3.5.4S94.3,76.3,94.1,76.3Z" style="fill:#fc8086"/><path d="M94.6,72.6a15.5,15.5,0,0,0-2.4-1.9,18.3,18.3,0,0,0-5.7-2.5c-.1,0-.1.2,0,.2a17.7,17.7,0,0,1,5.3,2.7L94,73l.8,1a4.1,4.1,0,0,0,.7,1.1c.2.1.5,0,.5-.2A4,4,0,0,0,94.6,72.6Z" style="fill:#fc8086"/><path d="M96.9,72.5a5.4,5.4,0,0,0-.7-1.3,11.2,11.2,0,0,0-1.8-2c-.1-.1-.2.1-.1.2a10,10,0,0,1,1.6,2l.6,1.2c.2.4.2.9.5,1.2s.2.1.2,0A1.9,1.9,0,0,0,96.9,72.5Z" style="fill:#fc8086"/><path d="M94.5,74.9l-1.1-.5-1.2-.7A8.7,8.7,0,0,1,90.1,72c-.1-.1-.2,0-.1.1A7.3,7.3,0,0,0,92,74l1.1.7a2.8,2.8,0,0,0,1.3.4C94.5,75.1,94.6,75,94.5,74.9Z" style="fill:#fc8086"/><path d="M92.5,78.1H91.3L90,77.9a7.5,7.5,0,0,1-2.4-.8.1.1,0,0,0-.1.1,8.6,8.6,0,0,0,2.4,1.1l1.4.2a3,3,0,0,0,1.3-.2C92.7,78.3,92.7,78.1,92.5,78.1Z" style="fill:#fc8086"/><path d="M113.4,89.2c-2.3-.1-4.9-.1-7.1-1.1a8.4,8.4,0,0,1-2.4-1.8,15,15,0,0,1-1.5-2.5c-.1,0-.2,0-.2.1a5.7,5.7,0,0,0,1.3,2.7,6.8,6.8,0,0,0,2.4,2,13.6,13.6,0,0,0,3.6,1,12.8,12.8,0,0,0,3.9-.2C113.6,89.4,113.6,89.2,113.4,89.2Z" style="fill:#fc8086"/><path d="M113.3,81.1a10.2,10.2,0,0,0-3-2.1l-1.8-.5a2.8,2.8,0,0,0-1.8.1c-.1,0-.1.1,0,.2l1.6.2a4.5,4.5,0,0,1,1.9.5,7.5,7.5,0,0,1,2.9,2.1c1.6,1.9,2.3,4.3,3,6.6,0,.2.2.1.2,0A14.1,14.1,0,0,0,113.3,81.1Z" style="fill:#fc8086"/><path d="M112.8,86.1a7.9,7.9,0,0,0-1.8-1.4l-2-1.2a35.5,35.5,0,0,0-4.4-2.1h-.1l4.2,2.3,2,1.3a13.2,13.2,0,0,0,2,1.2C112.8,86.4,112.9,86.2,112.8,86.1Z" style="fill:#fc8086"/><path d="M109.8,86.8a5.9,5.9,0,0,0-1.4-.6l-1.3-.6a10.8,10.8,0,0,1-2.4-1.8c-.1-.1-.3.1-.2.2a9.1,9.1,0,0,0,2.4,2l1.4.7,1.5.3C109.9,87,109.9,86.8,109.8,86.8Z" style="fill:#fc8086"/><path d="M112,82.7a2.3,2.3,0,0,0-.9-.8l-1.1-.7-1.2-.6a2.3,2.3,0,0,0-1.2-.2c-.1,0-.1.1,0,.1l.5.3.5.2,1.1.6,1.1.6.5.4.5.3A.2.2,0,0,0,112,82.7Z" style="fill:#fc8086"/></g><path d="M99.4,79.6a12.1,12.1,0,0,0,8.3-1.9,8.2,8.2,0,0,0,3.2-3.2,9,9,0,0,0,.9-4.3,40.2,40.2,0,0,0-.8-8.5l-5.7,1.7c-2.2.8-4.5,1.7-6.1,3.5a9.6,9.6,0,0,0-1.9,4.5,11.1,11.1,0,0,0,.8,6.7A4.7,4.7,0,0,0,99.4,79.6Z" style="fill:#fd989f"/><path d="M98.3,80.7a12.4,12.4,0,0,0-3.5,4.4,9.9,9.9,0,0,0-.6,5.6,11.4,11.4,0,0,0,2.5,4.9,47.3,47.3,0,0,0,4,3.7c1.3-2.1,2.7-4.3,3.8-6.5a16.7,16.7,0,0,0,.8-2,7.8,7.8,0,0,0-1.6-6.4A11.4,11.4,0,0,0,98.3,80.7Z" style="fill:#fd989f"/><path d="M80.2,84.8a14,14,0,0,1,5.1-5.7A8.2,8.2,0,0,1,89,77.8a8.4,8.4,0,0,1,4.6.8,17,17,0,0,1,3.9,2.7,33.7,33.7,0,0,1-4.2,5,8.2,8.2,0,0,1-4.7,2.4,7.8,7.8,0,0,1-2.2-.3A13.4,13.4,0,0,1,80.2,84.8Z" style="fill:#fd989f"/><g style="opacity:0.4;mix-blend-mode:multiply"><path d="M107.5,64.3l-2.4.8-2.3,1.3L100.9,68a3.7,3.7,0,0,0-1.2,2.1.2.2,0,0,0,.3.1c.5-.6.9-1.3,1.4-1.8a9,9,0,0,1,1.9-1.5,22.2,22.2,0,0,1,4.3-2.3A.2.2,0,0,0,107.5,64.3Z" style="fill:#fd989f"/><path d="M110.4,67.7c0-.1-.2-.1-.2,0a11.6,11.6,0,0,1-.9,4.1l-.9,1.8-.6.9a3.5,3.5,0,0,0-.5.8c0,.1.2.2.3.2s.9-1.1,1.2-1.6a12.4,12.4,0,0,0,1-2A11.6,11.6,0,0,0,110.4,67.7Z" style="fill:#fd989f"/><path d="M107.5,67.9a7.5,7.5,0,0,0-1.6,1.5,11.5,11.5,0,0,0-1.4,1.7,12.2,12.2,0,0,0-2.2,3.8c-.1.2.2.3.3.1s1.4-2.5,2.3-3.7.9-1.1,1.4-1.7a10.1,10.1,0,0,0,1.3-1.6C107.6,67.9,107.5,67.8,107.5,67.9Z" style="fill:#fd989f"/><path d="M104.8,67.9l-1.1.8-1,.9-.7,1.1a2,2,0,0,0-.6,1.2c0,.1.1.2.2.1l.3-.5.4-.6a8.6,8.6,0,0,1,.7-1l.9-1a3.9,3.9,0,0,0,1-.8C105,68,104.9,67.9,104.8,67.9Z" style="fill:#fd989f"/><path d="M107.6,70.3a24,24,0,0,1-1.1,2.3l-.6,1-.3.5-.4.5a.2.2,0,0,0,.2.2l.5-.4.4-.4.7-1.1a25,25,0,0,0,.9-2.5A.2.2,0,0,0,107.6,70.3Z" style="fill:#fd989f"/><path d="M93.8,83.9a11.7,11.7,0,0,1-4.3,2.2,11.1,11.1,0,0,1-4.8.1c-.1,0-.2.2-.1.2a5.7,5.7,0,0,0,2.5.6,10.9,10.9,0,0,0,2.6-.3A8.6,8.6,0,0,0,94,84.1C94.1,84,93.9,83.8,93.8,83.9Z" style="fill:#fd989f"/><path d="M87.5,79.8a2.8,2.8,0,0,0-1.3.4l-1.3.6-1.1.9a3.1,3.1,0,0,0-.9,1.1c-.1.1.1.2.2.1A7.6,7.6,0,0,0,84,82l1.1-.8,1.2-.7,1.3-.5S87.6,79.8,87.5,79.8Z" style="fill:#fd989f"/><path d="M92.1,82.1a3.2,3.2,0,0,0-1.7.1l-1.8.5a11,11,0,0,0-3.2,1.7c-.1,0,0,.2.1.1l3.2-1.3,1.7-.4,1.7-.4A.2.2,0,0,0,92.1,82.1Z" style="fill:#fd989f"/><path d="M91.5,83.7c-.3,0-.5.2-.8.3l-.8.3-1.5.6c-.1,0-.1.1,0,.1l1.6-.4.8-.3.8-.4C91.6,83.8,91.6,83.7,91.5,83.7Z" style="fill:#fd989f"/><path d="M90.1,80.8a6.9,6.9,0,0,0-2,.3l-1.8.7c-.1.1,0,.3.2.2l1.8-.5,1.8-.4C90.3,81,90.3,80.8,90.1,80.8Z" style="fill:#fd989f"/><path d="M97.7,94a11,11,0,0,1-1.4-4.2,21.8,21.8,0,0,1-.1-2.5,19.4,19.4,0,0,0,.2-2.4c0-.1-.1-.1-.1,0a10.1,10.1,0,0,0-.5,2.5,10.5,10.5,0,0,0-.1,2.5,7.5,7.5,0,0,0,1.8,4.2C97.5,94.2,97.7,94.1,97.7,94Z" style="fill:#fd989f"/><path d="M103.1,91.9a3.1,3.1,0,0,0-.1-1c-.1-.1-.1-.1-.1,0s-.2.6-.3.9-.1.7-.2,1a3.6,3.6,0,0,1-.4.9,10.4,10.4,0,0,1-.4,1c0,.2.2.3.3.2a1.7,1.7,0,0,0,.6-1,10.4,10.4,0,0,0,.4-1C103,92.6,103,92.2,103.1,91.9Z" style="fill:#fd989f"/><path d="M99.6,89.6a10.9,10.9,0,0,1-.1-1.8V86h-.2a13.7,13.7,0,0,0-.2,3.5,14.2,14.2,0,0,0,.5,3.6c0,.1.2,0,.2-.1S99.6,90.7,99.6,89.6Z" style="fill:#fd989f"/><path d="M97.8,89.7v-.4a2.8,2.8,0,0,1-.1-.9c0-.6.1-1.2.1-1.8s-.2-.2-.3,0a11,11,0,0,0-.2,1.8c0,.3.1.6.1.9a2.9,2.9,0,0,0,.2.9c.1,0,.2,0,.2-.1Z" style="fill:#fd989f"/><path d="M101.5,89.5v-.6c0-.3-.1-.5-.1-.7s-.2-.1-.2,0-.1.4-.1.7v.6a1.3,1.3,0,0,1-.1.6v.6h.2l.2-.3v-.3A2,2,0,0,0,101.5,89.5Z" style="fill:#fd989f"/></g><path d="M104.3,77.1a2.3,2.3,0,0,0-1.4-.4,4.1,4.1,0,0,0-1.9.4c.1-.5.3-1.1.4-1.7a2,2,0,0,0-.4-1.7,1.8,1.8,0,0,0-1.3-.4,2.8,2.8,0,0,0-1.2.4,8,8,0,0,0-3.3,3A8.2,8.2,0,0,0,94,81a1.3,1.3,0,0,0,.2.9,1.5,1.5,0,0,0,1.1.4,3.9,3.9,0,0,0,1.5-.2A2.2,2.2,0,0,0,98,84.3a2.6,2.6,0,0,0,2.1.1,7,7,0,0,0,2.6-1.9,17.7,17.7,0,0,0,1.6-2.2,4.4,4.4,0,0,0,.6-1.6A2.1,2.1,0,0,0,104.3,77.1Z" style="fill:#fd646f"/><path d="M101,77.2c-.5-.1-1,.4-1.3.7l-1.2,1.2a6.7,6.7,0,0,0-.9,1.4,2.5,2.5,0,0,0-.4.7c-.1.3-.3.5-.2.8h.2a1,1,0,0,0,.5-.6,4.3,4.3,0,0,0,.4-.7l1-1.3a5.2,5.2,0,0,1,1-1.1l.6-.6c.1-.2.3-.3.3-.6Z" style="fill:#fd646f;opacity:0.4;mix-blend-mode:multiply"/><g style="opacity:0.4;mix-blend-mode:multiply"><path d="M100,75.7v-.6a1.4,1.4,0,0,1-.2-.6.2.2,0,0,0-.4.1,1.3,1.3,0,0,1,.1.6v1.5h.1a.1.1,0,0,0,.1.1l.2-.3c0-.1.1-.2.1-.3Z" style="fill:#fd646f"/><path d="M97,80.1H95.1c-.1-.1-.3.1-.1.3a1.9,1.9,0,0,0,.9.3h.5c.1-.1.4-.1.5-.3h-.1C96.9,80.3,97,80.3,97,80.1Z" style="fill:#fd646f"/><path d="M97.7,78.8H97l-.6-.4h-.2c-.1,0-.1.2,0,.2l.6.5h.8l.2-.2Z" style="fill:#fd646f"/><path d="M98.5,77c-.1-.2-.1-.4-.2-.5a36947544534939.6,36947544534939.6,0,0,0-.8-1c-.1-.1-.3,0-.2.2l.3.4a1.4,1.4,0,0,0,.2.6l.3.5.3.5h.2A1.3,1.3,0,0,0,98.5,77Z" style="fill:#fd646f"/><path d="M99,83.4V83c-.1-.1-.1-.3-.2-.4a2.9,2.9,0,0,1-.2-.9.1.1,0,1,0-.3,0,3.6,3.6,0,0,0,.2,1.1c.1.2.1.4.2.5s.3.4.4.3h0Z" style="fill:#fd646f"/><path d="M100.4,82v-.2a.8.8,0,0,1-.4-.4l-.3-.3v-.2c-.1-.1-.1-.2-.2-.2s-.1,0-.1,0V81c0,.1.1.1.1.2l.3.5.4.4c0,.1.1.1.2.2h.1a.1.1,0,0,1,.1.1l.2-.2Z" style="fill:#fd646f"/><path d="M102.1,80.3l-.3-.2-.5-.3-1.1-.4c-.2,0-.3.3-.1.3l1,.6.5.2.6.2v-.4Z" style="fill:#fd646f"/><path d="M103,78.6l-.9-.4h-1c-.2,0-.3.2-.2.3l.5.2h1.5C103.1,79.1,103.2,78.8,103,78.6Z" style="fill:#fd646f"/></g><path d="M63.2,7.4a8.5,8.5,0,0,0-.1,5,4.2,4.2,0,0,0,1,1.7,4.1,4.1,0,0,0,3.5,1.2,5,5,0,0,0,2.8-1.2,4.2,4.2,0,0,0,1.4-2.7,6.1,6.1,0,0,0-1.1-3.9A15.6,15.6,0,0,0,67.4,4c-.4-.4-1.1-1.1-1.8-1s-1,1-1.3,1.6A9.6,9.6,0,0,0,63.2,7.4Z" style="fill:#fd989f"/><path d="M67.9,13.4a15.3,15.3,0,0,1-1.4-2.1,4.5,4.5,0,0,1-.3-2.6,5,5,0,0,0-.3-2.4,7,7,0,0,1-.3-1.4c-.1-.4.1-.8.1-1.2s-.2-.2-.3-.1-.3,1.6-.1,2.2.3,1,.4,1.4a4.8,4.8,0,0,1,0,1.7,4.3,4.3,0,0,0,.3,2.5,5.1,5.1,0,0,0,1.7,2.1C67.8,13.6,68,13.5,67.9,13.4Z" style="fill:#fd989f;opacity:0.4;mix-blend-mode:multiply"/><path d="M64.6,5.9c.1-.2-.1-.3-.1-.1a6.1,6.1,0,0,0-.8,2.6V9.8a5.7,5.7,0,0,0,.4,1.4h.2L64,9.8V8.5A7.6,7.6,0,0,1,64.6,5.9Z" style="fill:#fd989f;opacity:0.4;mix-blend-mode:multiply"/><path d="M69.8,8.9a5.9,5.9,0,0,0-.6-1.4,10.6,10.6,0,0,0-1.9-2.3c-.1-.1-.3,0-.2.1s1.1,1.6,1.6,2.4l.5,1.2c0,.3.1.5.1.7s.1.4.2.6a.2.2,0,0,0,.3,0A1.9,1.9,0,0,0,69.8,8.9Z" style="fill:#fd989f;opacity:0.4;mix-blend-mode:multiply"/><path d="M81.4,5.9a7.7,7.7,0,0,0-4.5,2.4,4.8,4.8,0,0,0-.1,6.1,5.3,5.3,0,0,0,6,1.7,7.2,7.2,0,0,0,2.5-1.8,11.3,11.3,0,0,0,3.3-5.7c.2-.8.8-2.4.4-3.1s-2.4-.4-3.2-.3A21.3,21.3,0,0,0,81.4,5.9Z" style="fill:#fd989f"/><path d="M88.7,5.5a5.1,5.1,0,0,0-3.1,1.1c-.5.4-.9,1-1.4,1.4a6.2,6.2,0,0,1-1.6,1,10.3,10.3,0,0,0-3,1.4,3.3,3.3,0,0,0-1.5,2.8c0,.3.4.3.4.1a5,5,0,0,1,2-2.7,25.2,25.2,0,0,1,2.9-1.2,12.1,12.1,0,0,0,2.5-2.1,7.1,7.1,0,0,1,1.4-1l1.5-.6C88.9,5.6,88.8,5.5,88.7,5.5Z" style="fill:#fd989f;opacity:0.4;mix-blend-mode:multiply"/><path d="M84.4,6.1a12.4,12.4,0,0,0-3.9,1L79,8a3.5,3.5,0,0,0-1.1,1.3c-.1.1.1.2.2.1a15,15,0,0,1,1.3-1.1l1.4-.8a16.9,16.9,0,0,1,3.6-1.2C84.6,6.3,84.5,6.1,84.4,6.1Z" style="fill:#fd989f;opacity:0.4;mix-blend-mode:multiply"/><path d="M87.1,8.8a14.3,14.3,0,0,1-1.6,2.4,9.4,9.4,0,0,1-1,1l-.6.4-.5.5a.2.2,0,0,0,.2.2l.6-.3.6-.5,1.1-1a11,11,0,0,0,1.5-2.6C87.4,8.8,87.1,8.6,87.1,8.8Z" style="fill:#fd989f;opacity:0.4;mix-blend-mode:multiply"/><path d="M27.8,73.1a14.6,14.6,0,0,1-2.9-4.4,8.5,8.5,0,0,1-.6-3.1,8.3,8.3,0,0,1,.9-3.9,4.9,4.9,0,0,1,3.1-2.4,4.9,4.9,0,0,1,4.2,1.2,8.4,8.4,0,0,1,2.2,3.9,11,11,0,0,1,0,5.1,13.4,13.4,0,0,1-1.2,3c-.4,1-1.3,3.2-2.6,3.2S28.5,74,27.8,73.1Z" style="fill:#fd989f"/><path d="M31.3,73.9a6.3,6.3,0,0,1-1.2-3.2,10.3,10.3,0,0,0,.1-1.8,4.7,4.7,0,0,0-.3-1.7c-.3-1.2-.7-2.3-.9-3.4V62.1c.1-.5.4-1,.5-1.5s-.2-.4-.4-.3a3.6,3.6,0,0,0-1,3A28.3,28.3,0,0,0,29,67a6.5,6.5,0,0,1,.4,2.1v2a5.6,5.6,0,0,0,1.7,3C31.2,74.2,31.4,74.1,31.3,73.9Z" style="fill:#fd989f;opacity:0.4;mix-blend-mode:multiply"/><path d="M27.8,70.3a10.9,10.9,0,0,0-.8-1.5l-.6-1.6a11.4,11.4,0,0,1-.5-3.3c0-.1-.2-.1-.2,0a6.9,6.9,0,0,0,.3,3.5,7.1,7.1,0,0,0,1.6,3.1C27.7,70.6,27.9,70.4,27.8,70.3Z" style="fill:#fd989f;opacity:0.4;mix-blend-mode:multiply"/><path d="M33,66.7a7.5,7.5,0,0,0-1-3.2c-.1-.2-.4-.1-.3.1a9,9,0,0,1,.9,3.3v1.5l-.3,1.7c0,.1.2.1.3,0a6.2,6.2,0,0,0,.4-1.6A5.4,5.4,0,0,0,33,66.7Z" style="fill:#fd989f;opacity:0.4;mix-blend-mode:multiply"/><path d="M44.6,63.7a10,10,0,0,1-4.5-1.5A5.8,5.8,0,0,1,37.6,58a5.1,5.1,0,0,1,2.1-4.4,5.5,5.5,0,0,1,5.4.1A8.5,8.5,0,0,1,48.7,58a14,14,0,0,1,.9,2.9c.2.6.7,1.9.4,2.5s-1.8.5-2.4.5A15.1,15.1,0,0,1,44.6,63.7Z" style="fill:#fd989f"/><path d="M49.4,63l-.7-.3-.8-.2L46.6,62a2.4,2.4,0,0,1-1.1-.6,4.5,4.5,0,0,1-.6-1.2,7.7,7.7,0,0,0-1.7-1.9A3.7,3.7,0,0,1,42,55.9c-.1-.3-.4-.2-.4,0a3.6,3.6,0,0,0,.8,2.7c.5.8,1.4,1.3,1.8,2.2a5.4,5.4,0,0,0,.7,1.3,2.4,2.4,0,0,0,1.1.6l1.5.4.9.2h.9C49.5,63.4,49.5,63.1,49.4,63Z" style="fill:#fd989f;opacity:0.4;mix-blend-mode:multiply"/><path d="M44,62l-.5-.2h-.4l-.8-.4a4.4,4.4,0,0,1-1.5-1.2c-.1-.1-.4.1-.2.2A3.8,3.8,0,0,0,42,61.7l.9.4.5.2h.5A.4.4,0,0,0,44,62Z" style="fill:#fd989f;opacity:0.4;mix-blend-mode:multiply"/><path d="M47.5,59.1l-.7-1.2a11.2,11.2,0,0,0-1.8-2c-.1-.1-.3.1-.2.3a15.6,15.6,0,0,1,1.6,2l.7,1.1.6,1c.1.1.2.1.2,0A2.8,2.8,0,0,0,47.5,59.1Z" style="fill:#fd989f;opacity:0.4;mix-blend-mode:multiply"/><path d="M5.5,48.9A14,14,0,0,1,8.8,45a11.5,11.5,0,0,1,8.4-2.5,6.7,6.7,0,0,1,3.1,1,5.2,5.2,0,0,1,2,4.5,7,7,0,0,1-2.1,4.5A12.6,12.6,0,0,1,16,55.2a19,19,0,0,1-8.1,1.4,18.5,18.5,0,0,1-4.1-.7c-1.3-.4-.7-1.7-.3-2.7A21.1,21.1,0,0,1,5.5,48.9Z" style="fill:#fd989f"/><path d="M17.9,44.8a9.1,9.1,0,0,0-4.6.7,6.6,6.6,0,0,0-1.7,1.2,11.8,11.8,0,0,0-1.3,1.8c-1,1.2-2.6,1.7-3.8,2.7s-2.4,2.1-2.3,3.5a.2.2,0,0,0,.4.1c.4-.6.6-1.2,1-1.8a8,8,0,0,1,1.7-1.5,19.4,19.4,0,0,0,3.3-2.3,13,13,0,0,0,1-1.5,6.1,6.1,0,0,1,1.7-1.5A9.3,9.3,0,0,1,17.9,45C18.1,45,18.1,44.8,17.9,44.8Z" style="fill:#fd989f;opacity:0.4;mix-blend-mode:multiply"/><path d="M19,50.9a56.9,56.9,0,0,1-5.6,2.6,31.2,31.2,0,0,1-6.1,1.1c-.2,0-.2.2,0,.2a19.1,19.1,0,0,0,6.3-.8,13.9,13.9,0,0,0,5.5-2.9A.1.1,0,1,0,19,50.9Z" style="fill:#fd989f;opacity:0.4;mix-blend-mode:multiply"/><path d="M16.4,48.4l-1.2.9-1.3,1a16.7,16.7,0,0,1-2.8,1.8c-.2.1-.1.4.1.3a13.5,13.5,0,0,0,2.9-1.6l1.3-1.1,1.1-1.2C16.6,48.4,16.5,48.3,16.4,48.4Z" style="fill:#fd989f;opacity:0.4;mix-blend-mode:multiply"/><path d="M9.4,45.6l-.4.3-.5.5-.8.9a3.6,3.6,0,0,0-.7,1,3.9,3.9,0,0,0-.6,1.1c0,.1.1.2.2.1s.4-.7.7-1a6.1,6.1,0,0,1,.7-1l.7-.9c.2-.1.3-.3.4-.4l.4-.5C9.6,45.7,9.5,45.6,9.4,45.6Z" style="fill:#fd989f;opacity:0.4;mix-blend-mode:multiply"/><path d="M113.8,123.7a12.4,12.4,0,0,1,2.7.3,8.6,8.6,0,0,1,4.3,2l.8,1,.3.5a8.9,8.9,0,0,1,.3,5.8v.2a14.2,14.2,0,0,1-.5,1.6,18.2,18.2,0,0,1-1.6,3.1l-1.2,1.7h0a30,30,0,0,1-4.1,4.6l-.8.6-1,.9h0c-1.2,1.1-2.4,2-3.7,3l-.5.4a1.7,1.7,0,0,1-.1.7c0,.2-.1.4-.1.6l-.3.9a12.8,12.8,0,0,1-1.9,3.4v.2l-.5.6a19.9,19.9,0,0,1-2.8,3l-.8.7c-1.1,1-2.3,1.9-3.5,2.8l-1,.6a33.8,33.8,0,0,1-4.1,2.4l-.3.2L92,166a16.4,16.4,0,0,1-4.9,1H85.9l-2-.2c0-.5.1-1,.1-1.5l-2.6,1.6h-1l-2.5.6h0a8.8,8.8,0,0,1-2.7.6,65.9,65.9,0,0,1,4.6-15.1,20,20,0,0,1,1-2.1c.7-1.6,1.6-3.2,2.4-4.7l1.4-2.2,1.2-1.9a63.6,63.6,0,0,1,4.6-5.7l1.5-1.6h0a45.4,45.4,0,0,1,5.2-4.5l1.6-1.2a53.9,53.9,0,0,1,5.2-3l.7-.3,1.1-.4a20.5,20.5,0,0,1,5.5-1.6l1.8-.2h.8m0-3h-.9l-2.2.2a26.7,26.7,0,0,0-6.2,1.8l-1.2.5h-.1l-.6.3a44,44,0,0,0-5.6,3.1L95.3,128a41.1,41.1,0,0,0-5.5,4.8h-.1l-1.5,1.6a54.9,54.9,0,0,0-4.8,6l-1.4,2c-.4.8-.9,1.5-1.4,2.3a45.2,45.2,0,0,0-2.5,4.9L77,151.9a70.5,70.5,0,0,0-4.8,15.8,3.1,3.1,0,0,0,3,3.5h.1a16.7,16.7,0,0,0,3.5-.7h.4a5.9,5.9,0,0,1,1.7-.4h.6a2.8,2.8,0,0,0,1.3-.3l.7.2,2.3.2h1.5a18.1,18.1,0,0,0,5.7-1.2,4.2,4.2,0,0,0,1.4-.6l.5-.2,4.4-2.6.9-.6h.1l3.8-2.9a3,3,0,0,0,.8-.8,25.8,25.8,0,0,0,3.2-3.4l.4-.5h.1l.2-.2a17.8,17.8,0,0,0,2.2-4l.4-1.2a4.3,4.3,0,0,0,.1-.5l3.2-2.6h.2l.5-.5.5-.4.8-.7a37.7,37.7,0,0,0,4.4-4.8c0-.1.1-.1.1-.2a12.7,12.7,0,0,0,1.3-1.9,18.5,18.5,0,0,0,1.9-3.7l.6-1.8c0-.1.1-.2.1-.4a11.6,11.6,0,0,0-.5-7.7,5.6,5.6,0,0,0-.5-.8,9.1,9.1,0,0,0-1.3-1.6,12.2,12.2,0,0,0-5.7-2.8,17.6,17.6,0,0,0-3.3-.3Z" style="fill:#28575c"/><path d="M56.6,119.6a10,10,0,0,1,6.4,2.9l.4.4.9,1a23,23,0,0,1,3.3,5.4,15.4,15.4,0,0,1,.8,1.9c.5,1.3.9,2.7,1.3,4l.6,2.5c.2.7.3,1.4.5,2.2s.8,4.5,1,6.8A17.9,17.9,0,0,1,72,149c.2,2.3.2,4.6.2,6.8h0c0,.9-.1,1.9-.1,2.8a71.7,71.7,0,0,1-1,8.1h-4l-1.7-1.6v.9l-2.8,1.4-.8.5h-.2l-1.9.8-1.8-1.4h-.1l-1.1.2H55.2a20.5,20.5,0,0,1-3.1-1.3,5.2,5.2,0,0,1-1.3-.6,26.5,26.5,0,0,1-4.2-2.6l-1-.8-.7-.6-1.6-1.5-.7-.8a12.7,12.7,0,0,1-1.3-1.9h0a3.6,3.6,0,0,1-.4-.9,4.2,4.2,0,0,1-.4-1.6,2,2,0,0,1,.4-1.3,2.2,2.2,0,0,1,.5-.8l.4-.2a2.7,2.7,0,0,1,1.3-.2h1.2l1,.2.7.3-.5-.9-.5-.9c-.7-1.6-1.4-3.2-2-4.9v-.2a6.4,6.4,0,0,0-.2-.7,21,21,0,0,1-.9-4.2v-1.3a7.6,7.6,0,0,1,2.3-5l.6-.4h.2a5.5,5.5,0,0,1,3.1-.8h.7a19.4,19.4,0,0,1-.1-5.9,5.8,5.8,0,0,1,.4-1.8,1.9,1.9,0,0,1,.2-.7,9.6,9.6,0,0,1,4.1-5l1.7-.7,1.2-.2h.4m0-3H56l-1.7.3a13,13,0,0,0-2.5,1,12.7,12.7,0,0,0-5.4,6.6l-.3.8a15.5,15.5,0,0,0-.5,2.3,20.6,20.6,0,0,0-.2,3.6l-1.9.8-.4.2-1,.8a9.9,9.9,0,0,0-3.3,7v1.6h0a20.3,20.3,0,0,0,1,4.9l.3.8h.1l.9,2.4c-.3.1-.5.1-.7.3l-.8.5a4.6,4.6,0,0,0-1.4,1.7,6.4,6.4,0,0,0-.7,2.7,8.4,8.4,0,0,0,1.2,3.9h0l1.6,2.3.8.9h.1l1.7,1.7H43l.2.2.5.4,1.2.9a26.6,26.6,0,0,0,4.5,2.9l1.4.7,3.5,1.4,1.7.2h1.2l.7.5a2.8,2.8,0,0,0,1.8.6h.6a14.9,14.9,0,0,0,2.6-1l.3-.2.5-.2.3-.2h.2l1.3-.7a4.2,4.2,0,0,0,1.6.4h1.5c.1,0,.1,0,.1-.1h2.4a3,3,0,0,0,2.9-2.4,75.8,75.8,0,0,0,1.1-8.5c0-.9.1-1.8.1-2.8v-.2c0-2.4,0-4.8-.2-7.1a19.4,19.4,0,0,0-.2-2.4,55.2,55.2,0,0,0-1.1-7.1,15.5,15.5,0,0,0-.5-2.3l-.6-2.6c-.5-1.5-.9-2.9-1.4-4.2l-.8-2.1a24.4,24.4,0,0,0-3.8-6.1l-1-1.2-.3-.2-.2-.2a.1.1,0,0,0-.1-.1,12.3,12.3,0,0,0-8.4-3.7Z" style="fill:#28575c"/><path d="M122.2,133.3v.2a14.2,14.2,0,0,1-.5,1.6,18.2,18.2,0,0,1-1.6,3.1l-1.2,1.7h0a30,30,0,0,1-4.1,4.6l-.8.6-1,.9h0c-1.2,1.1-2.4,2-3.7,3l-1.9,1.4c-2,1.5-4.1,2.9-6.3,4.3l-2.2,1.4h0l-1.9,1.2-5.1,3.1a16.4,16.4,0,0,1-2.2,1.4l-8.2,5.1h-1l-2.5.6h0a8.8,8.8,0,0,1-2.7.6,65.9,65.9,0,0,1,4.6-15.1,20,20,0,0,1,1-2.1c.7-1.6,1.6-3.2,2.4-4.7l1.4-2.2,1.2-1.9a63.6,63.6,0,0,1,4.6-5.7l1.5-1.6h0a45.4,45.4,0,0,1,5.2-4.5l1.6-1.2a53.9,53.9,0,0,1,5.2-3l.7-.3,1.1-.4a20.5,20.5,0,0,1,5.5-1.6l1.8-.2a13.4,13.4,0,0,1,3.5.3,8.6,8.6,0,0,1,4.3,2l.8,1,.3.5A8.9,8.9,0,0,1,122.2,133.3Z" style="fill:#008556"/><path d="M115.2,131.9l6.7-4.4-.3-.5-.8-1-7.2,4.8v-.4c0-.4-.1-.9-.1-1.3a28.5,28.5,0,0,1-.3-2.9c-.1-.8-.1-1.7-.2-2.5l-1.8.2c0,1.2.1,2.4.2,3.7s.3,2.2.4,3.4a3.1,3.1,0,0,1,.1,1l-3.7,2.6a58.5,58.5,0,0,1-2.5-9.1l-1.1.4-.7.3a75.6,75.6,0,0,0,2.7,9.6l-4.6,3.7a61.8,61.8,0,0,1-3.3-10.3l-1.6,1.2a62.7,62.7,0,0,0,3.3,10.1v.2L95.6,145a50.9,50.9,0,0,1-3.7-10.1l-1.5,1.6a51.8,51.8,0,0,0,3.8,9.9,56.6,56.6,0,0,0-4.2,4.3l-.3-.2a48.4,48.4,0,0,1-3.9-8.3l-1.2,1.9a38.2,38.2,0,0,0,4,8.1c-1.4,1.6-2.8,3.3-4.1,5.1a36.8,36.8,0,0,1-3-5,8.3,8.3,0,0,1-.7-1.3,20,20,0,0,0-1,2.1v.2a31.9,31.9,0,0,0,3.5,5.5,80.7,80.7,0,0,0-5.5,8.8l2.5-.6a62,62,0,0,1,4.4-6.9,16.2,16.2,0,0,0,4.8,1.7,16.4,16.4,0,0,0,2.2-1.4l-1.1-.2-3-.9a9.6,9.6,0,0,1-1.8-.7c1.3-1.8,2.8-3.6,4.3-5.3a66.4,66.4,0,0,0,8.6,2.8h0l2.2-1.4a64.9,64.9,0,0,1-9.5-2.9c1.4-1.5,2.8-3,4.3-4.4,3.9.9,7.7,1.9,11.5,3l1.9-1.4c-3.9-1.2-7.8-2.2-11.7-3.2l4-3.5c2.1,1.5,4.8,2.1,7.2,2.7l4.2,1h0l1-.9.8-.6-4.9-1.1-3.8-1.1a11.1,11.1,0,0,1-3-1.2l4.5-3.7a114.4,114.4,0,0,0,11.3,2.5h0l1.2-1.7c-3.5-.6-7-1.3-10.5-2.2l2.7-2,.9-.6,8.5,1.7a14.2,14.2,0,0,0,.5-1.6v-.2Z" style="fill:#008556;opacity:0.4;mix-blend-mode:multiply"/><path d="M108.6,150.1c0,.2-.1.4-.1.6l-.3.9a12.8,12.8,0,0,1-1.9,3.4v.2l-.5.6a19.9,19.9,0,0,1-2.8,3l-.8.7c-1.1,1-2.3,1.9-3.5,2.8l-1,.6a33.8,33.8,0,0,1-4.1,2.4l-.3.2L92,166a16.4,16.4,0,0,1-4.9,1H85.9l-2-.2a29,29,0,0,1,1.4-7.7,5.6,5.6,0,0,1,.4-1.2,14.8,14.8,0,0,1,1.2-2.9l1-2,.6-.9a23.4,23.4,0,0,1,2.4-3.1,4.6,4.6,0,0,1,.7-.7,17,17,0,0,1,4.2-3.3l.8-.4a16.1,16.1,0,0,1,3.3-1.2l1.4-.3h2.5a6.1,6.1,0,0,1,3.1,1.3l.4.4.2.3A6.3,6.3,0,0,1,108.6,150.1Z" style="fill:#3d9c70"/><path d="M103,149.1l5.2,2.5.3-.9-4.8-2.3,3.8-3.3-.2-.3-.4-.4c-1.3,1-2.5,2.1-3.7,3.2-.4-1.5-.7-3.1-1-4.6h-.9a47,47,0,0,0,1.2,5.1h0l-3.1,3a32.7,32.7,0,0,1-2.8-6.7l-.8.4a35.6,35.6,0,0,0,2.9,7l-.5.5a33.3,33.3,0,0,0-2.5,2.8c-1.5-2.3-2.8-4.6-4.1-7a4.6,4.6,0,0,0-.7.7c1.3,2.4,2.7,4.7,4.1,7l-2.5,3h-.1l-.3-.5a4.3,4.3,0,0,1-.4-.7,4.1,4.1,0,0,1-.7-1.1l-1.5-2.6c-.3-.6-.7-1.3-1-2l-.6.9,1.1,2.2,1.8,2.9.9,1.4.2.3c-1,1.1-2,2.3-2.9,3.5a30,30,0,0,1-3.3-5.4,5.6,5.6,0,0,0-.4,1.2,30.6,30.6,0,0,0,3,4.9l-2.4,3h1.2l1.9-2.3,3,1.3,1.2-.5-3.5-1.6,2.8-3.5c1.7.9,3.4,1.8,5.1,2.5l1-.6c-1.9-.8-3.7-1.7-5.4-2.6l.3-.4,2.3-2.7a29.9,29.9,0,0,0,6.3,2.9l.8-.7a31.5,31.5,0,0,1-6.5-2.9l2.8-3.1a34.5,34.5,0,0,0,6.5,3l.5-.6V155a30.7,30.7,0,0,1-6.4-2.9Z" style="fill:#3d9c70;opacity:0.4;mix-blend-mode:multiply"/><path d="M72.2,155.8h0c0,.9-.1,1.9-.1,2.8a71.7,71.7,0,0,1-1,8.1h-.6a6.1,6.1,0,0,0-1.9,0H67.1c-1.8-1.6-3.4-3.2-5-4.9h0l-1.7-2a66.3,66.3,0,0,1-4.9-6.9l-1.1-2h0c-1.1-2.1-2.1-4.2-3-6.4-.2-.7-.5-1.3-.7-2h0a55,55,0,0,1-1.6-5.8l-.3-1.7v-.3a19.5,19.5,0,0,1-.2-6.8,5.8,5.8,0,0,1,.4-1.8,1.9,1.9,0,0,1,.2-.7,9.6,9.6,0,0,1,4.1-5l1.7-.7,1.2-.2a10,10,0,0,1,6.8,2.9l.4.4.9,1a23,23,0,0,1,3.3,5.4,15.4,15.4,0,0,1,.8,1.9c.5,1.3.9,2.7,1.3,4l.6,2.5c.2.7.3,1.4.5,2.2s.8,4.5,1,6.8A17.9,17.9,0,0,1,72,149C72.2,151.3,72.2,153.6,72.2,155.8Z" style="fill:#008556"/><path d="M72.2,155.9c-1.2,1.2-2.3,2.5-3.5,3.8-.5-2.2-1.1-4.3-1.7-6.4l.2-.2L72,149a17.9,17.9,0,0,0-.2-2.3l-5.4,4.7-1.5-5a73.5,73.5,0,0,1,5.9-6.5c-.2-.8-.3-1.5-.5-2.2-2.1,2.1-4.1,4.3-6.1,6.6-.5-1.7-1.1-3.4-1.7-5.1a91.5,91.5,0,0,1,5.9-8,15.4,15.4,0,0,0-.8-1.9,86.1,86.1,0,0,0-5.8,7.7l-1.9-5.1c1.4-2.7,2.9-5.3,4.4-8l-.9-1-.4-.4c-1.4,2.4-2.7,4.8-4,7.2a7.8,7.8,0,0,0-.5-1.4c-1.1-2.8-2.3-5.6-3.5-8.5l-1.7.7c1.3,3.1,2.6,6.2,3.8,9.3a64.6,64.6,0,0,0-8.1-3.6,5.8,5.8,0,0,0-.4,1.8,63.1,63.1,0,0,1,9.5,4.5l2,5.4c-3.8-1.2-7.5-2.2-11.3-3.1v.3l.3,1.7c4,.9,7.9,2,11.7,3.2.5,1.6,1.1,3.1,1.6,4.7a57.4,57.4,0,0,0-11.7-2.1c.2.7.5,1.3.7,2a57.5,57.5,0,0,1,11.7,2.2c.5,1.8,1.1,3.5,1.6,5.3A87.7,87.7,0,0,0,54.4,151l1.1,2a65.3,65.3,0,0,1,9.8,1.1c.6,2.1,1.2,4.3,1.7,6.4h-.1l-1.5-.2-2.8-.3H60.4l1.7,2h.7l2.9.3,1.8.3c.4,1.4.7,2.8,1.1,4.3a6.1,6.1,0,0,1,1.9,0l-1.2-5c.9-1,1.8-2.1,2.8-3.1S72.2,156.8,72.2,155.9Z" style="fill:#008556;opacity:0.4;mix-blend-mode:multiply"/><path d="M65.4,166.1l-2.8,1.4-.8.5h-.2l-1.9.8a45.3,45.3,0,0,1-6.2-5.4l-.9-.9a52.1,52.1,0,0,1-4.1-5.2l-.6-.9a33.8,33.8,0,0,1-2.4-4.1l-.5-.9c-.7-1.6-1.4-3.2-2-4.9v-.2a6.4,6.4,0,0,0-.2-.7,21,21,0,0,1-.9-4.2v-1.3a7.6,7.6,0,0,1,2.3-5l.6-.4h.2a6.6,6.6,0,0,1,5-.6l1.7.6.8.5,2.1,1.4a12.9,12.9,0,0,1,1.7,1.6l.7.7a29.8,29.8,0,0,1,3,4,4.1,4.1,0,0,1,.5.9,22.2,22.2,0,0,1,2,4.1,4.9,4.9,0,0,1,.4,1.1c.1.4.3.7.4,1.1a49,49,0,0,1,1.3,5.5,6.8,6.8,0,0,1,.2,1.4h0A54.9,54.9,0,0,1,65.4,166.1Z" style="fill:#3d9c70"/><path d="M64.7,157h0a6.8,6.8,0,0,0-.2-1.4c-1.5,2.2-2.9,4.4-4.2,6.7-.8-1.7-1.5-3.3-2.3-4.9q2.3-4.3,4.8-8.4a4.9,4.9,0,0,0-.4-1.1c-1.7,2.8-3.4,5.6-4.9,8.4v-.2c-.6-1.3-1.3-2.5-2-3.7h.1c1.5-2.9,3.2-5.8,4.9-8.5a4.1,4.1,0,0,0-.5-.9c-1.8,2.8-3.4,5.6-5,8.5-.6-1.2-1.3-2.4-2-3.6a.1.1,0,0,1,.1-.1c1.2-3,2.5-5.9,3.9-8.8l-.7-.7-3.9,8.6-2.1-3.6a.5.5,0,0,0-.2-.4h.1a71.6,71.6,0,0,1,2.3-7.5l-.8-.5c-.9,2.4-1.6,4.7-2.3,7.1-.2-.4-.5-.8-.7-1.3s-2.5-3.9-3.7-5.8h-.2l-.6.4,4.5,7.2c-2.2-.7-4.5-1.3-6.8-1.8v.9c2.6.6,5.1,1.3,7.6,2.1l2.1,3.5a52,52,0,0,0-8.8-1.4,6.4,6.4,0,0,1,.2.7v.2a66.5,66.5,0,0,1,9.1,1.6c.7,1.2,1.4,2.4,2,3.6-3-.2-6-.3-9.1-.3l.5.9a91,91,0,0,1,9.1.4c.7,1.3,1.4,2.6,2,3.9a63.2,63.2,0,0,0-8.7-.2l.6.9a61.8,61.8,0,0,1,8.6.3l2.4,5H52.6l.9.9,6.4.2c.6,1.4,1.3,2.8,1.9,4.3l.8-.5c-.6-1.4-1.2-2.8-1.9-4.2h.1A66.5,66.5,0,0,1,64.7,157Z" style="fill:#3d9c70;opacity:0.4;mix-blend-mode:multiply"/><path d="M59.2,167.2l-1.4.4-1.1.2a2.6,2.6,0,0,1-1.5,0,20.5,20.5,0,0,1-3.1-1.3,5.2,5.2,0,0,1-1.3-.6,21.9,21.9,0,0,1-4.1-2.6l-1.1-.8-.7-.6-1.6-1.5-.7-.8a12.7,12.7,0,0,1-1.3-1.9h0a3.6,3.6,0,0,1-.4-.9,4.2,4.2,0,0,1-.4-1.6,2,2,0,0,1,.4-1.3,2.2,2.2,0,0,1,.5-.8l.4-.2a3.2,3.2,0,0,1,1.7-.2h.8l1,.2a16.6,16.6,0,0,1,3.3,1.6,2.7,2.7,0,0,1,.8.7l1,.7,1.4,1.2a3,3,0,0,0,.8.8,33.3,33.3,0,0,1,2.5,2.8l.8,1A37.1,37.1,0,0,1,59.2,167.2Z" style="fill:#5aa981"/><path d="M55.5,165.2a18.6,18.6,0,0,1,.4-3.4l-.8-1c-.2,1.2-.4,2.4-.5,3.5l-2.3-2.1h-.1c.1-1.3.2-2.7.4-4.1a3,3,0,0,1-.8-.8,29.8,29.8,0,0,0-.4,4.2l-2.3-1.9.3-4.2a2.7,2.7,0,0,0-.8-.7c-.2,1.4-.3,2.8-.4,4.2L46.1,157v-.2c-.3-1.3-.5-2.5-.7-3.8l-1-.2.6,3.3-1.2-1-2.3-2a2.2,2.2,0,0,0-.5.8l3.1,2.6-3.1.3a3.6,3.6,0,0,0,.4.9,24.8,24.8,0,0,1,3.8-.2l2,1.6-4.5.5.7.8,4.9-.4,2.5,2-5.1.5,1.1.8a40.7,40.7,0,0,1,5-.3l2.4,2.1-3.3.8a5.2,5.2,0,0,0,1.3.6l2.8-.6,1.8,1.9,1.1-.2C57,166.8,56.3,165.9,55.5,165.2Z" style="fill:#5aa981;opacity:0.4;mix-blend-mode:multiply"/><polygon points="97.3 164.2 94.5 177.3 92.2 187.4 91.8 189.6 88 206.7 54.7 206.7 53.4 200.8 50.7 188.5 50.3 186.6 45.4 164.2 97.3 164.2" style="fill:#e57225"/><polygon points="95.8 171.1 60.4 171.1 94.3 177.9 95.8 171.1" style="fill:#ffeb81"/><path d="M92.2,187.4l-.4,2.2a6.3,6.3,0,0,0-8.6-1.2c-1.5,1.1-2.8,2.5-4.7,2.9a6.9,6.9,0,0,1-4.8-1.1c-1.3-.8-2.7-2.3-4.4-2.1s-2.7,1.5-3.9,2.4a6.5,6.5,0,0,1-4.7,1c-1.8-.4-3.3-1.6-4.9-2.6a5,5,0,0,0-5.1-.4l-.4-1.9a6,6,0,0,1,5.1,0c2,.9,3.6,2.7,5.8,3.1s3.5-1.1,5.1-2.3a5.2,5.2,0,0,1,4.5-1c1.8.5,3.1,1.9,4.7,2.7s4.3-.3,6.1-1.8a8.4,8.4,0,0,1,5.5-1.9A7.4,7.4,0,0,1,92.2,187.4Z" style="fill:#ffeb81"/><path d="M77.1,182.4a1.4,1.4,0,1,0,0,2.8A1.4,1.4,0,0,0,77.1,182.4Z" style="fill:#ffeb81"/><path d="M62.5,182.9a1.4,1.4,0,0,0,0,2.8A1.4,1.4,0,0,0,62.5,182.9Z" style="fill:#ffeb81"/><path d="M56.5,195.5a1.4,1.4,0,0,0,0,2.8A1.4,1.4,0,0,0,56.5,195.5Z" style="fill:#ffeb81"/><path d="M69.9,194.9a1.4,1.4,0,0,0,0,2.8A1.4,1.4,0,0,0,69.9,194.9Z" style="fill:#ffeb81"/><path d="M84.8,194.8a1.4,1.4,0,0,0,0,2.8A1.4,1.4,0,0,0,84.8,194.8Z" style="fill:#ffeb81"/><path d="M94.5,177.3l-2.3,10.1-.4,2.2L88,206.7H54.7l-1.3-5.9a67.3,67.3,0,0,0,20.2-6A53.9,53.9,0,0,0,94.5,177.3Z" style="fill:#e57225;opacity:0.4;mix-blend-mode:multiply"/><path d="M97.3,164.2h0m0,0-1.5,6.9h0l-1.5,6.8h0l-2.1,9.5-.4,2.2L88,206.7H54.7l-1.3-5.9-2.7-12.3-.4-1.9-4.9-22.4H97.3m0-3H45.4a3.3,3.3,0,0,0-2.4,1.2,3.1,3.1,0,0,0-.5,2.5l4.9,22.4.4,1.8,2.7,12.4,1.3,5.8a3,3,0,0,0,2.9,2.4H88a3,3,0,0,0,2.9-2.4l3.8-17.1.5-2.2,2-9.3h.1l1.4-6.8v-.2l1.4-6.6a1.9,1.9,0,0,0,.1-.8,3,3,0,0,0-3-3Zm0,6Z" style="fill:#6a3417"/></g></g></g></svg>