<svg xmlns="http://www.w3.org/2000/svg" viewBox="0 0 75.7 75.7"><g id="Layer_2" data-name="Layer 2"><g id="Layer_1-2" data-name="Layer 1"><circle cx="37.8" cy="37.8" r="34.8" style="fill:#98d9e4"/><path d="M34.5,19.2a2.4,2.4,0,0,0-2.3-2.8S9.8,19.6,3,37.3v.5a34.8,34.8,0,0,0,9,23.4C13,50.9,17.2,31.5,34.5,19.2Z" style="fill:#e05555"/><path d="M35.2,11.1a43.8,43.8,0,0,0-7-6.7,34.2,34.2,0,0,0-11.6,5.8A52.8,52.8,0,0,1,34,14.5,2.5,2.5,0,0,0,35.2,11.1Z" style="fill:#e05555"/><path d="M41.6,10.9a2.5,2.5,0,0,0,1.2,3.5A48,48,0,0,1,59,10.2,35.4,35.4,0,0,0,48.1,4.5,49.6,49.6,0,0,0,41.6,10.9Z" style="fill:#e05555"/><path d="M39.3,13.3a31.9,31.9,0,0,1,3.4-10A39.1,39.1,0,0,0,37.8,3l-3.7.2a42.3,42.3,0,0,0,2.9,9C37.7,14.5,39.3,13.3,39.3,13.3Z" style="fill:#e05555"/><path d="M72.2,31.8C63.5,17.9,44.3,15.3,44.3,15.3c-2.6.2-2.1,3.1-2.1,3.1,16.9,12,21.7,30.7,23,41a34.5,34.5,0,0,0,7.5-21.6A39.4,39.4,0,0,0,72.2,31.8Z" style="fill:#e05555"/><path d="M48.5,47.9A80.5,80.5,0,0,0,40,19.7H36.1s-14.2,27-6.5,52.1a36.8,36.8,0,0,0,8.2,1,35.3,35.3,0,0,0,9.9-1.4A94.9,94.9,0,0,0,48.5,47.9Z" style="fill:#e05555"/><ellipse cx="38.3" cy="15.9" rx="6.4" ry="5.5" style="fill:#fcd54d"/><path d="M40.7,60.8A34.8,34.8,0,0,1,5.9,25.9,14.8,14.8,0,0,1,6,23.8,34.8,34.8,0,1,0,72.6,40,34.9,34.9,0,0,1,40.7,60.8Z" style="opacity:0.1"/><circle cx="51.3" cy="19.5" r="6.7" style="fill:#fff;opacity:0.1"/><path d="M37.8,3h2.7A34.7,34.7,0,0,1,49,4.8l.7.3.8.3.7.2.9.4.5.3.9.4L54,7l1,.5.4.2,1,.6.3.2,1,.7h.2l1.1.8h0A34.7,34.7,0,0,1,72.2,31.8h0a7.8,7.8,0,0,0,.2,1.4v.2a5.3,5.3,0,0,1,.1,1.3.9.9,0,0,1,.1.5v1a9.2,9.2,0,0,1,.1,1.6h0a9.1,9.1,0,0,1-.1,1.7V40h0a4.5,4.5,0,0,1-.1,1.1v.6c-.1.3-.1.7-.2,1a2,2,0,0,1-.1.7c0,.3-.1.6-.1.9s-.1.5-.2.7a1.9,1.9,0,0,1-.2.8c0,.3-.1.5-.1.8a.4.4,0,0,0-.1.3,17.2,17.2,0,0,1-.7,2.1c0,.1-.1.3-.1.4a10.4,10.4,0,0,1-.4,1c-.1.2-.1.3-.2.4a4.9,4.9,0,0,1-.4,1.1c0,.1-.1.2-.1.3L69,53.4h0l-1.2,2.1h0a10.5,10.5,0,0,1-.8,1.1.4.4,0,0,1-.1.3l-.7,1c-.1.1-.2.2-.2.3l-.8,1c-.1.1-.2.2-.2.3l-.8.9-.3.4-.8.8-.3.4-.8.7c-.1.2-.3.3-.4.4l-.8.7c-.1.2-.3.3-.4.4l-.8.7a1,1,0,0,0-.5.4l-.8.5-.6.4L57,67l-.6.4-.8.4-.7.4a2,2,0,0,1-.8.4l-.6.4-.8.4-.8.3-.7.4-.8.3-.8.3-.8.2-.8.3-.8.2-.8.2-.9.2h-.8l-.9.2H33.4l-1.7-.3h-.9l-1.2-.3h0a33.9,33.9,0,0,1-9.8-4.1,33.6,33.6,0,0,1-9.5-8.5l-.3-.3L9.4,58a1,1,0,0,0-.4-.5,3.5,3.5,0,0,0-.5-.8l-.3-.6L8,55.9l-.3-.6a2.1,2.1,0,0,0-.4-.6,3,3,0,0,0-.4-.8l-.3-.7-.4-.7-.3-.8L5.6,51l-.3-.8L5,49.5l-.3-.9c-.1-.2-.1-.5-.2-.7L4.2,47a1.9,1.9,0,0,0-.2-.7,2.9,2.9,0,0,0-.2-.9,4.3,4.3,0,0,0-.1-.5v-.3c-.1-.3-.1-.6-.2-.9s-.1-.5-.1-.7a3.4,3.4,0,0,1-.1-1,1.7,1.7,0,0,1-.1-.7,4.5,4.5,0,0,1-.1-1.1,1.3,1.3,0,0,0-.1-.6V37.8H3V36a.6.6,0,0,0,.1-.4,6.6,6.6,0,0,1,.1-1.4v-.4a6.8,6.8,0,0,0,.2-1.4c0-.1.1-.2.1-.3l.3-1.5v-.2a12.4,12.4,0,0,1,.4-1.6h0l.5-1.7h0c.4-1.1.8-2.2,1.3-3.3H6A34.3,34.3,0,0,1,17.9,9.3h0l1.3-.9h.1a5.7,5.7,0,0,1,1.3-.8h.1L22,6.8h.1l1.4-.7h.1A6.1,6.1,0,0,1,25,5.4h.1l1.5-.5h0l1.6-.5h0a29.4,29.4,0,0,1,5.9-1.2h3.7m0-3h-4a39.4,39.4,0,0,0-6.5,1.3h0L25.6,2,24,2.6l-1.7.7h0l-1.6.7h0l-1.5.8h-.1l-1.4.8h-.1l-1.4.9h-.1A39,39,0,0,0,3.2,22.6c-.5,1.2-1,2.4-1.4,3.6s-.3,1.2-.5,1.8h0a8.5,8.5,0,0,0-.4,1.7V30L.5,31.6h0v.2a8.8,8.8,0,0,0-.2,1.6H.2v.3c0,.5-.1,1-.1,1.5h0v.4A11.5,11.5,0,0,0,0,37.8H0v1.8a.9.9,0,0,1,.1.5v.2a4.9,4.9,0,0,0,.1,1.2v.7h0c0,.4.1.7.1,1s.1.4.1.6v.2H.6c0,.3.1.6.1.9s.1.2.1.3a.8.8,0,0,0,.1.4h0c.1.4.1.7.2,1a2.4,2.4,0,0,1,.2.8l.3.9.3.9.3.8.3.9.3.8.3.8.4.8.4.9a2.5,2.5,0,0,0,.4.7,5.9,5.9,0,0,0,.4.8l.4.6v.2h.1l.3.5a.3.3,0,0,1,.1.2l.3.5H6v.2l.5.6.3.5H7v.2l.5.7.2.2V61a37.7,37.7,0,0,0,10.3,9.2,37.2,37.2,0,0,0,10.7,4.4H29l1.2.3h1l1.8.3h.5l1.7.2h9.3l.8-.2h1l.8-.2h1l.8-.3.7-.2h.3l.7-.2.8-.3h.1l.8-.3.8-.3h.1l.8-.3.8-.4.8-.4.8-.5.7-.4.9-.5.6-.4.9-.6.6-.4.8-.6.6-.5.8-.7.5-.4.8-.8.5-.4.8-.8c.1-.1.2-.3.4-.4h0l.8-.9.3-.3h.1l.8-1,.2-.3h.1l.8-1a.3.3,0,0,1,.1-.2h.1l.8-1.2h.2l.8-1.3h0a23.9,23.9,0,0,0,1.2-2.2v-.2l.6-1.2v-.3l.5-1.1c.1-.1.1-.3.2-.4h0c.1-.3.3-.7.4-1.1s.1-.2.1-.3V50l.7-2.2h0a.4.4,0,0,1,.1-.3c0-.2.1-.4.1-.6v-.2h0a3.1,3.1,0,0,1,.2-.8c0-.2.1-.4.1-.7h0c.1-.3.1-.6.2-.9s.1-.5.1-.8a3.4,3.4,0,0,0,.1-1,2.2,2.2,0,0,0,.1-.8,4.1,4.1,0,0,0,.1-1.1h0v-.5a12.8,12.8,0,0,0,.1-1.9,10.3,10.3,0,0,0-.1-1.7V34.8c0-.1-.1-.3-.1-.4s-.1-.9-.1-1.4h-.1a7.7,7.7,0,0,0-.2-1.5h0A37.4,37.4,0,0,0,60.8,7.8l-1.2-.9h-.2L58.3,6h-.1L58,5.8a4.1,4.1,0,0,1-1.1-.7l-.4-.2-1.1-.6L55,4.1h-.1l-1-.5-.5-.2h-.1l-1-.4-.5-.2h-.3l-.8-.3h-.8A39.6,39.6,0,0,0,40.7.1H37.8Z" style="fill:#c2331d"/></g></g></svg>