<svg xmlns="http://www.w3.org/2000/svg" viewBox="0 0 217.6 409.3"><g style="isolation:isolate"><g id="Layer_2" data-name="Layer 2"><g id="Layer_1-2" data-name="Layer 1"><path d="M129.3,172.9h3.1c15.6.3,27.8,3.5,27.8,7.4v.4l-8,64.8h0c0,4.1-10.2,7.4-22.8,7.4s-22.7-3.3-22.7-7.4h0l-3-24.5-5-40.3v-.4c0-1.8,2.7-3.5,7.3-4.8l3-.8,6.9-1.1c2.7-.3,5.7-.6,8.8-.7h4.8m0-3h-4.9l-9.1.7a61.5,61.5,0,0,0-7.1,1.2l-3.3.8c-2.3.7-9.4,2.7-9.4,7.7v.8l5,40.3,3,24.3c.3,7.1,13.1,10.2,25.7,10.2s25.5-3.1,25.7-10.2l8.1-64.6v-.8c0-9-23.5-10.3-30.7-10.4Z" style="fill:#6a3417"/><polygon points="160.2 180.4 160.1 180.8 152.1 245.6 106.6 245.6 103.6 221.1 98.6 180.8 98.5 180.4 160.2 180.4" style="fill:#e57225"/><path d="M160.2,180.4v.4c-.8,3.4-10.7,6.1-23.8,6.8-2.2.2-4.6.2-7,.2s-7.5-.2-10.9-.5a74.5,74.5,0,0,1-9.3-1.3c-6.1-1.3-10-3.1-10.5-5.2v-.4c0-1.8,2.7-3.5,7.3-4.8l3-.8,6.9-1.1c2.7-.3,5.7-.6,8.8-.7h7.9C148,173.3,160.2,176.5,160.2,180.4Z" style="fill:#f2c366"/><path d="M155.1,180.4c0,.9-1.2,1.8-3.4,2.6-4.5,1.6-12.8,2.6-22.4,2.6s-17.8-1-22.3-2.6c-2.2-.8-3.4-1.7-3.4-2.6,0-2.9,11.5-5.3,25.7-5.3S155.1,177.5,155.1,180.4Z" style="fill:#c67640"/><path d="M151.7,183c-3.5,1.2-9.5,2.2-16.5,2.5H124.1c-7.3-.3-13.5-1.2-17.1-2.5,3.4-1.2,9-2.1,15.6-2.4l2.7-.2h8.5C141.4,180.7,147.9,181.7,151.7,183Z" style="fill:#4f400a"/><ellipse cx="129.3" cy="245.6" rx="22.7" ry="7.4" style="fill:#e57225"/><path d="M129.6,208.1c5-4.7,8-11.7,7.1-18.4a15.5,15.5,0,0,0-.4-2.1,18.1,18.1,0,0,0-3.9-7.2,15.4,15.4,0,0,0-8.9-5c-2.2-.4-4.4-.2-6.5-1a4.2,4.2,0,0,1-1.3-.7l-6.9,1.1a2.9,2.9,0,0,1-.8,1.4,1.5,1.5,0,0,0-.6,1,.7.7,0,0,1-1.2.1,1.8,1.8,0,0,1-.4-1.4v-.3c-4.6,1.3-7.3,3-7.3,4.8v.4l5,40.3.5.4a15.3,15.3,0,0,1,2.6,20c6.2-2.3,13.1-5.1,15.9-11.1s-1-16.1-8.3-18.1c-2.2-.6-4.5-.6-6.6-1.2s-4.2-2.3-4.4-4.6,1.9-4.4,4.3-4.9,4.7.5,6.8,1.7A23.8,23.8,0,0,1,126.2,226a13,13,0,0,0,5.3-14A14.1,14.1,0,0,0,129.6,208.1Zm-24.5-19.6a2.5,2.5,0,0,1-1.8.4,1.8,1.8,0,0,1-.7-2.5,1.8,1.8,0,0,1,2.5-.4A1.7,1.7,0,0,1,105.1,188.5Zm12.2,10.7c-2.9-1.3-6-2.5-8-4.9s-2.5-6.3-.2-8.3v-.2c2.7-2.1,6.6-.6,9.2,1.5l.5.4a31,31,0,0,1,10.3,19.8C126.4,203.7,121.7,201.1,117.3,199.2Zm13.3-20.6a8.7,8.7,0,0,0,1.8-5.6h-7.9A23.3,23.3,0,0,1,130.6,178.6Z" style="fill:#d29db2;opacity:0.19;mix-blend-mode:multiply"/><path d="M207.6,152.2a49.2,49.2,0,0,1-16.2-2.7,6.6,6.6,0,0,1-2.7-1.5c-.9-1-1.8-3-.8-6.5l.9-2.5c.8-2.4,1.6-4.7,1.3-6.9s-2.2-3.7-3.8-3.7a1.5,1.5,0,0,0-1.1.4c-1.1.9-1.2,2.8-1.2,4.5V143a1.6,1.6,0,0,1-.8,1.4,5,5,0,0,1-2.4.6,6,6,0,0,1-4.3-2.2,8.9,8.9,0,0,1-2.3-6.5,20.5,20.5,0,0,1,1.8-6.1,21.6,21.6,0,0,0,1.5-5,10.1,10.1,0,0,0-1.3-6.4,5,5,0,0,0-3.8-2.6h-.4c-2,.4-3,3.1-3.3,3.9a16.8,16.8,0,0,0,4.7,17.2,1.7,1.7,0,0,1,.4,1.7,1.6,1.6,0,0,1-1.4.9h0c-4,0-13.6-.9-15.4-8.2a.8.8,0,0,1-.1-.4l-.8.2H156l-2.1-.5a15.3,15.3,0,0,1-5.8-3c-5.5-4.5-8-11.6-9-15.5l-.3-1.3a35.4,35.4,0,0,1-.9-5.9,20.3,20.3,0,0,1,.3-6.1,18.3,18.3,0,0,1,2-5.4c2.3-3.7,5.6-4.8,8.5-5.8s4.5-1.4,6-3.3a33.3,33.3,0,0,0,2.4-3.2l.5-.7c2.8-4,5.5-7.8,11.8-9.5a23.1,23.1,0,0,1,4.6-.5c7.6,0,14.8,4.5,17.3,11.1a1.6,1.6,0,0,1-.2,1.5,1.7,1.7,0,0,1-1.2.5h-.2q-3-.3-6-.3a52.6,52.6,0,0,0-8.9.7,14.1,14.1,0,0,0-6.4,2.3,5.6,5.6,0,0,0-1.4,1.6,7,7,0,0,0-.6,1.9l1.8-.6,3.1-1A83.6,83.6,0,0,1,183,85.2a33.4,33.4,0,0,1,6.2-.6,22.6,22.6,0,0,1,13,3.7c5.4,3.8,8.8,12.2,5.1,18.5a1.4,1.4,0,0,1-1.2.7H206a1.4,1.4,0,0,1-1.1-.5,18.9,18.9,0,0,0-2-2,17.1,17.1,0,0,1,2.1,2.6,13.5,13.5,0,0,1,1.6,11.6,11.2,11.2,0,0,1,2.2,3.3,12.4,12.4,0,0,1,.2,10.8h.1a1.6,1.6,0,0,1,.5,1.1,21.5,21.5,0,0,0,6.1,14.6,1.5,1.5,0,0,1,.3,1.6,1.4,1.4,0,0,1-1.2,1,58.1,58.1,0,0,1-7.2.5Zm-8-22.3c-.9,0-1.6.4-1.6.6a2.8,2.8,0,0,0,.9.6,19.8,19.8,0,0,0,4.1,1.4l-.5-.5a8,8,0,0,0-1.9-1.8A1.5,1.5,0,0,0,199.6,129.9Zm-41.9-23.1-1.4.2a6.2,6.2,0,0,0-2.7,1.3,6.1,6.1,0,0,0-1.2,1.6,8.2,8.2,0,0,0-1.1,4.2,9.2,9.2,0,0,0,1.9,5.6l1.2,1.5.7.8a19.8,19.8,0,0,1,2.4,3.5,36.2,36.2,0,0,1,1.7-3.5,23.9,23.9,0,0,1,1.3-2.1c1.8-3.1,3.6-6.1,3.1-8.9a2.4,2.4,0,0,1-.2-.8,5.8,5.8,0,0,0-5.3-3.4Zm27.3,9a6.8,6.8,0,0,0,2.7.5,44.5,44.5,0,0,0,4.7-.5l3.4-.5a18.4,18.4,0,0,0-4.7-.6A17.4,17.4,0,0,0,185,115.8Zm-11.1-12,.2.2h.2l.2-.2a.4.4,0,0,0,.1-.3l-.4-.2h-.3Zm8.2-.9a27.1,27.1,0,0,0,5.5-.8,25.9,25.9,0,0,1,6.3-1h1a20.2,20.2,0,0,0-4.3-.5,18.5,18.5,0,0,0-8.8,2.2ZM157,99.4h.9c-.1,0-.1-.1-.1-.2s-.2-.2-.3-.2Zm2.7-7.6a2,2,0,0,0-.1.7c.1.2.2.2.3.3h.2a.8.8,0,0,0,.5-.5.8.8,0,0,0,0-.7l-.3-.2h-.2A.5.5,0,0,1,159.7,91.8Z" style="fill:#2f4d08"/><path d="M174,72.3c6.7,0,13.5,3.9,15.9,10.1-2.1-.2-4.1-.3-6.2-.3a69.9,69.9,0,0,0-9.2.7,14.6,14.6,0,0,0-7,2.6,7,7,0,0,0-1.8,2,5.4,5.4,0,0,0-.5,4.6l3.5-1c4.8-1.6,9.5-3.4,14.5-4.3a30.5,30.5,0,0,1,6-.6,21.3,21.3,0,0,1,12.1,3.4c5.2,3.6,7.9,11.1,4.7,16.5a20.3,20.3,0,0,0-15.4-6.8,19.6,19.6,0,0,0-12.5,4.3,9.7,9.7,0,0,0,4,.9c3.8,0,7.9-1.8,11.8-1.8h.5c7.7.3,13.6,9.6,10.6,16.7a18.3,18.3,0,0,0-13.9-6.1,17.8,17.8,0,0,0-9,2.4,6.9,6.9,0,0,0,5.6,2.2c3.2,0,6.8-1.1,10.1-1.1H199c7.5.6,12.3,10.6,8.1,16.8-2.4-.7-3.6-3.2-5.6-4.7a4.1,4.1,0,0,0-1.9-.5c-1.9,0-3.8,1.3-2.9,2.8a3,3,0,0,0,1.6,1.3,21.6,21.6,0,0,0,9.1,2h.7a23.6,23.6,0,0,0,6.5,15.7,54.9,54.9,0,0,1-7,.5,48.8,48.8,0,0,1-15.7-2.6,5.5,5.5,0,0,1-2.1-1.2c-1.2-1.2-1-3.3-.5-4.9,1-3.3,2.8-6.6,2.3-10.1s-2.9-5-5.3-5a2.9,2.9,0,0,0-2.1.8c-1.5,1.3-1.7,3.6-1.7,5.6s.1,6.5.1,9.7a3.7,3.7,0,0,1-1.7.5c-2.8,0-5.4-3.8-5.1-7.1s2.8-7.2,3.3-11a10.6,10.6,0,0,0-1.6-7.4,6.2,6.2,0,0,0-5-3.3h-.7c-2.3.5-3.7,2.7-4.4,5a18.2,18.2,0,0,0,5.1,18.7c-5.6-.1-12.6-1.6-14-7.1a7.7,7.7,0,0,1,.1-4,16.6,16.6,0,0,1,1.9-4.6c2.3-4,5.3-7.9,4.5-12a3.6,3.6,0,0,0-.2-1c-1-2.7-3.8-4.2-6.7-4.4h-.4l-1.7.2a7.8,7.8,0,0,0-3.4,1.7,9,9,0,0,0-1.5,1.9,9.6,9.6,0,0,0-1.3,5,10.8,10.8,0,0,0,2.2,6.5,16.3,16.3,0,0,0,1.7,2c0,.1.1.2.2.3,1.5,1.8,2.8,3.6,2.8,5.3a4.1,4.1,0,0,1-.5,1.8l-1.9-.4a13.2,13.2,0,0,1-5.2-2.8c-4.3-3.4-7.1-9.1-8.5-14.7a5,5,0,0,1-.4-1.3,34.3,34.3,0,0,1-.8-5.6,18.2,18.2,0,0,1,.3-5.7,15.8,15.8,0,0,1,1.8-5c3.6-5.9,10.4-4.1,14.4-8.9.9-1.1,1.7-2.2,2.4-3.2,3-4.2,5.3-8,11.5-9.6a14.2,14.2,0,0,1,4.2-.5m-13.9,22a2,2,0,0,0,1.9-1.5,2,2,0,0,0-1.4-2.8h-.3a2,2,0,0,0-1.3.6.5.5,0,0,0-.5.3,2.5,2.5,0,0,0,.6,3.3,2,2,0,0,0,1,.2m-3,3.6h-.3a1.4,1.4,0,0,0-1.1.7,1.3,1.3,0,0,0-.1.6,1.6,1.6,0,0,0,.3,1.3,1.5,1.5,0,0,0,.6.5l1.2.3a1.6,1.6,0,0,0,1.5-.9,1.9,1.9,0,0,0-1.7-2.5h-.3a.1.1,0,0,0-.1.1m17.2,7.7a2,2,0,0,0,1.8-2.2,1.9,1.9,0,0,0-1.9-1.5h-.4a1.7,1.7,0,0,0-1.2,1.1v.2h0a2.9,2.9,0,0,0,0,1.3.7.7,0,0,0,.5.4,3.1,3.1,0,0,0,1.3.6h0M174,69.3a20.7,20.7,0,0,0-5,.6c-6.9,1.8-9.8,6-12.6,10.1l-.5.6-2.3,3.1c-1.3,1.6-3.1,2.1-5.3,2.9s-6.8,2.2-9.3,6.4a17.4,17.4,0,0,0-2.3,6,22.4,22.4,0,0,0-.3,6.4,36,36,0,0,0,.9,6.1c.1.5.3,1,.4,1.4,1,4,3.6,11.5,9.5,16.2a16.2,16.2,0,0,0,6.3,3.4l2.3.5h.1c1.9,5.2,7.8,8.3,16.5,8.4h.1a2.7,2.7,0,0,0,1.2-.3,10.6,10.6,0,0,0,1.8,2.7,7.5,7.5,0,0,0,5.4,2.7,6.8,6.8,0,0,0,3.1-.8,3.2,3.2,0,0,0,1.6-2.7v-9.7c0-.8,0-2.8.6-3.4h.2a3.1,3.1,0,0,1,2.3,2.4c.3,1.9-.5,4-1.3,6.2a19.8,19.8,0,0,0-.8,2.6c-1.3,4.2-.1,6.6,1.1,7.9a8.6,8.6,0,0,0,3.3,1.9,49.2,49.2,0,0,0,16.7,2.8,47.4,47.4,0,0,0,7.5-.6,2.9,2.9,0,0,0,2.4-2,3.3,3.3,0,0,0-.7-3,19.9,19.9,0,0,1-5.7-13.6,2.3,2.3,0,0,0-.4-1.4,14,14,0,0,0-.6-11.3,11.9,11.9,0,0,0-1.8-2.9,15.1,15.1,0,0,0-1-10.2,2.5,2.5,0,0,0,1.3-1.2c4.2-7.2.4-16.2-5.5-20.4a22.1,22.1,0,0,0-10.3-3.8,3.1,3.1,0,0,0-.1-1.9c-2.8-7.2-10.5-12.1-18.7-12.1Zm-4.2,18.1a13.8,13.8,0,0,1,4.6-1.5l-3.6,1.2-1,.3Zm-12.5,35a7.6,7.6,0,0,0-1.1-1.4h-.3l-.3-.4a10,10,0,0,1-2.8-6.2,6.8,6.8,0,0,1,.9-3.5,9.4,9.4,0,0,1,.9-1.2,5.4,5.4,0,0,1,2-1H158c1.6.1,3.4.9,3.9,2.4s.1.4.2.5h0c.4,2.3-1.2,5-2.9,7.9l-1.3,2.1-.6,1.2ZM173,134.7a15.6,15.6,0,0,1-2.8-14.1c.5-1.6,1.4-2.8,2.2-2.9h.1a3.7,3.7,0,0,1,2.5,1.8,8.8,8.8,0,0,1,1.2,5.5,17.6,17.6,0,0,1-1.5,4.6,38.1,38.1,0,0,0-1.7,5.1Z" style="fill:#163233"/><path d="M152.9,85.2a7.6,7.6,0,0,0-2.2,2.5c-.1.4.2.5.5.5-7.4,15-12.1,30.9-15.2,47.3-1.7,9.2-2.8,18.5-4,27.7,0,.4-.1.8-.1,1.2-.5-13.9-2.4-27.8-3.5-41.7-.9-11.7-.3-23,.5-34.7a110.9,110.9,0,0,0,0-16.3c-.2-2.7-.7-5.3-1.1-7.9s-.4-2.7-.7-4-1-3.9-1.1-4.3h.4a.1.1,0,0,0,.1-.1c0-.4.1-.4-.3-.6s-.5,0-.7.1-.3,2.5-.1,4.1a70,70,0,0,1,1.1,8,129.7,129.7,0,0,1-.1,18.7c-.9,11.4-2.3,22.6-1.9,34.1s1.8,23.7,2.7,35.6c-3.5-8.5-7.3-17.3-12.2-24.9a29.6,29.6,0,0,0-5.8-6.9c-.1-21.7,4.4-43.3,5.1-65,.5-14.4.4-29.1-.4-43.5,0-.2-1,0-1,.3-.4,12.8.3,25.6.1,38.4a309.5,309.5,0,0,1-3.3,39.6,223.5,223.5,0,0,0-2.5,28.6,17.5,17.5,0,0,0-3.5-2c-7.5-13.1-17.3-27.4-31.8-30.8-.4-.1-2.6.6-1.8,1a53.7,53.7,0,0,1,20.8,16.4,108.8,108.8,0,0,1,8,12,15.1,15.1,0,0,0-3.7-.2c-.5,0-1.4.8-.4.9a17.9,17.9,0,0,1,5.3,1.2c2.2,3.8,4.3,7.7,6.4,11.6l.9,1.8a97.4,97.4,0,0,0,5.6,27.9c2.2,5.9,5.6,11,8.4,16.6l.6,1.2a22.1,22.1,0,0,1,1.6,5.4h2.9a22.6,22.6,0,0,0-1.1-4.3,6.9,6.9,0,0,0-.5-1.3c-1.9-4.5-5-8.5-7.1-12.9a90.6,90.6,0,0,1-7.6-27,290.2,290.2,0,0,1,16,39.8c.5,1.4.9,2.8,1.3,4.2v.9a1.3,1.3,0,0,0-.1.6h8.4c-.2-.8-.5-1.5-.7-2.3a.7.7,0,0,0-.5-.4c-.1-.4-.1-.9-.2-1.3a7.7,7.7,0,0,0-.2-1.5c-.3-2.3-.7-4.5-1.2-6.7a9.4,9.4,0,0,1-.4-1.6c.2-2.3.5-4.5.9-6.7,1.3-9.3,2.9-18.6,4.6-27.8,3.3-17.5,8.1-35.1,16.8-50.8C155.6,84.7,153.4,84.7,152.9,85.2Zm-46.8,39,1,.9v.9A16.2,16.2,0,0,0,106.1,124.2Zm3.3,6c0-.9-.1-1.7-.1-2.6,4.4,5.6,7.3,13,10.1,19.1a183.9,183.9,0,0,1,7.2,17.8c.5,1.4.9,2.7,1.3,4v2.9A277.1,277.1,0,0,0,109.4,130.2Z" style="fill:#314f0a"/><path d="M169.9,93.4,168.7,91l-3.5,1a5.4,5.4,0,0,1,.5-4.6,30.7,30.7,0,0,0-5.8-4.2,8,8,0,0,0-1.6-.8c-.7,1-1.5,2.1-2.4,3.2-4,4.8-10.8,3-14.4,8.9a15.8,15.8,0,0,0-1.8,5,7.1,7.1,0,0,1,4.2,1.4,23.6,23.6,0,0,1,7.2,8.2,9,9,0,0,1,1.5-1.9,7.8,7.8,0,0,1,3.4-1.7,23.5,23.5,0,0,0-8.4-6.9,22.1,22.1,0,0,0-5.7-1.7c-.3-2,1.5-3.8,3.5-4.2h.2a7.7,7.7,0,0,1,5.4,1.6,15.4,15.4,0,0,1,4.6,4.9,1.3,1.3,0,0,1,.1-.6,1.2,1.2,0,0,1,1.4-.6.1.1,0,0,1,.1-.1,1.9,1.9,0,0,1,2,2.5c-.4,1-1.7,1.1-2.7.6.5,1.1.9,2.1,1.3,3.2l.3,1.2c2.9.2,5.7,1.7,6.7,4.4a3.6,3.6,0,0,1,.2,1C169.4,105.7,172,99.4,169.9,93.4Zm-7.9-.6a2,2,0,0,1-2.9,1.3,2.5,2.5,0,0,1-.6-3.3.5.5,0,0,1,.5-.3,1.5,1.5,0,0,1,1.6-.5A2,2,0,0,1,162,92.8Zm-3.4,34.5a7.4,7.4,0,0,0,1.8-3.9c0-.2.1-.4.1-.7A16.6,16.6,0,0,0,158.6,127.3Zm-1.9.9c0-1.7-1.3-3.5-2.8-5.3v.6a2.9,2.9,0,0,1-.2-.9,16.3,16.3,0,0,1-1.7-2,10.8,10.8,0,0,1-2.2-6.5,25.9,25.9,0,0,0-9-8.1l-1.4-.8a34.3,34.3,0,0,0,.8,5.6,5,5,0,0,0,.4,1.3c2.4-.8,5.2,1.8,6.4,4.3a27,27,0,0,1,1.4,4,27.9,27.9,0,0,1,.7,6.4,13.2,13.2,0,0,0,5.2,2.8,10.9,10.9,0,0,0,.1-1.8h0A2.6,2.6,0,0,0,156.7,128.2Z" style="fill:#4e7d0e;opacity:0.32;mix-blend-mode:multiply"/><path d="M124.6,122.7h-.4a1.6,1.6,0,0,1-1-1.1,12.8,12.8,0,0,0-5.9-7.9,1.3,1.3,0,0,1-.6-.7,5.7,5.7,0,0,1,1-5.6,9.5,9.5,0,0,1,2-2l1.5-1.2.9-.6a8.4,8.4,0,0,0,2.3-2.3,3.2,3.2,0,0,0,.3-1.4c0-.7-.3-1.7-1.1-1.7h0a3.8,3.8,0,0,0-1.3.4,15.5,15.5,0,0,0-7,7.9l-.6,2.2a1.5,1.5,0,0,1-1.2,1.1h-.9a6.2,6.2,0,0,1-5.3-7.1c.5-3.3,3.1-5.8,5-7.6l6.3-5.9c1.9-1.8,3.9-4.3,3-6.3a2.9,2.9,0,0,0-2.7-1.3,4,4,0,0,0-2.2.6c-1.9,1.1-3.1,3.1-4.4,5.6l-7,13.2a1.8,1.8,0,0,1-1,.7h-.4a1.1,1.1,0,0,1-.7-.3c-3.9-2.4-5.8-7.6-4.5-12.7s3.4-7.4,7.5-10.9a40.2,40.2,0,0,1,12.9-7.3,9.8,9.8,0,0,0,3.1-1.4,1.6,1.6,0,0,0,.8-1.3.9.9,0,0,0-.4-.8,4.6,4.6,0,0,0-3.4-1.1h-1.1a27.7,27.7,0,0,0-6.6,2,27.2,27.2,0,0,0-15.2,19,1.4,1.4,0,0,1-.9,1.1h-.5a1.7,1.7,0,0,1-1-.3,14.1,14.1,0,0,1-3.8-4.9A18,18,0,0,1,91,66.4L92,65a20.7,20.7,0,0,1,9.6-7.6c5.7-2.4,12.3-2.7,17.3-2.7h2.9a26.5,26.5,0,0,0,8-1.6,46.3,46.3,0,0,1,4.8-1.4,14.7,14.7,0,0,1,4.2-.5h.8a24.9,24.9,0,0,1,9.8,2.5,30.2,30.2,0,0,1,3.6,1.8,28.4,28.4,0,0,1,6.2,4.5,17.9,17.9,0,0,1,4.4,6.5c3.1,8.8-2.9,17.5-9.3,22.6a22.5,22.5,0,0,1-.1,8.2,8.5,8.5,0,0,1-3,5.2,5,5,0,0,1-2.7.8h-.4a11.3,11.3,0,0,1-1.9,6.1,8.1,8.1,0,0,1-6.2,3.3,5.7,5.7,0,0,1-2.2-.4,1.2,1.2,0,0,1-.8-.9,1.3,1.3,0,0,1,.1-1.2,21.4,21.4,0,0,0,2.1-15.9,16.3,16.3,0,0,0-1.3-3.7c-.9-2-2.8-3.6-4.1-3.6a1.6,1.6,0,0,0-.9.3c-.9.7-1.2,2.3-1.3,3.7a30.1,30.1,0,0,0-.2,6,8.9,8.9,0,0,0,1.4,4.6l1.3,1.6a10.9,10.9,0,0,1,2.3,3.3c1.6,3.9-.7,7.9-3.1,10.1a21.8,21.8,0,0,1-4.3,3.2,29.9,29.9,0,0,0-3.4,2.5A1.8,1.8,0,0,1,124.6,122.7Zm7.5-48.1-1.1.2a.5.5,0,0,0-.3.5c-.2,1.1,1.6,2.1,3.1,3a25.9,25.9,0,0,1,9.9,9,23.2,23.2,0,0,0-8.3-11.6A5.9,5.9,0,0,0,132.1,74.6Zm-7.5,5.5c0,.2,0,.5.7.9l.3.3c.1-.1.1-.3.1-.6a1.3,1.3,0,0,0-.5-.7h-.3c-.1,0-.3,0-.3.2Zm11.3-10.9a25.1,25.1,0,0,1,4.6,1.6,23.8,23.8,0,0,1,7.5,5.6,14.8,14.8,0,0,0-5.5-7.4,7.2,7.2,0,0,0-3.8-1.4h-.8A3.1,3.1,0,0,0,135.9,69.2Z" style="fill:#3b7e82"/><path d="M138.8,52.7h.7a25.4,25.4,0,0,1,9.3,2.3,36.5,36.5,0,0,1,3.4,1.8,26.2,26.2,0,0,1,6,4.3,15.6,15.6,0,0,1,3.9,5.9c2.9,7.9-2.6,16.4-9.4,21.5a20.3,20.3,0,0,1,0,8.5,7.2,7.2,0,0,1-2.4,4.3,3.7,3.7,0,0,1-1.8.5,2.6,2.6,0,0,1-1.8-.6h0c0,2.5-.3,5.2-1.8,7.2a6.2,6.2,0,0,1-4.9,2.7,4.5,4.5,0,0,1-1.6-.3,23.3,23.3,0,0,0,2.3-17,25.8,25.8,0,0,0-1.4-3.9c-1.1-2.2-3.3-4.5-5.5-4.5a2.7,2.7,0,0,0-1.7.6c-1.5,1-1.8,3-2,4.7a33.2,33.2,0,0,0-.2,6.3,10.1,10.1,0,0,0,1.7,5.3c1,1.6,2.7,2.9,3.4,4.7s-.4,6.3-2.7,8.4-5.3,3.6-7.7,5.7a13.7,13.7,0,0,0-6.5-8.9,4.2,4.2,0,0,1,.8-4.1,9.8,9.8,0,0,1,1.7-1.8l2.4-1.7a9.9,9.9,0,0,0,2.7-2.7,4.4,4.4,0,0,0,.5-2.2c-.1-1.6-1-3.1-2.5-3.2h-.1a4.2,4.2,0,0,0-1.9.6,16.6,16.6,0,0,0-7.8,8.7,16.8,16.8,0,0,0-.7,2.4h-.6a4.1,4.1,0,0,1-3.6-3,4,4,0,0,1-.2-2.4c.4-2.7,2.5-4.8,4.5-6.7l6.3-5.9c2.2-2.1,4.7-5.2,3.3-8a4.2,4.2,0,0,0-4-2.2,6.4,6.4,0,0,0-3,.8c-2.3,1.4-3.7,3.9-4.9,6.2l-7.1,13.2c-3.5-2.3-4.8-7.1-3.8-11.1s3.9-7.4,7-10.1A40.9,40.9,0,0,1,119.6,72a13.9,13.9,0,0,0,3.5-1.6,3.3,3.3,0,0,0,1.4-2.4c.1-2.4-2.7-3.5-5.3-3.5h-1.3a24.8,24.8,0,0,0-7,2.2,28.7,28.7,0,0,0-16,20,12.4,12.4,0,0,1-3.5-4.4,16.9,16.9,0,0,1,.9-15.3l.9-1.3a20.6,20.6,0,0,1,9-7.1c5.1-2.1,11-2.5,16.7-2.5h2.9c5,0,8.4-2,13.1-3.1a17.2,17.2,0,0,1,3.9-.4M151.6,85a42.9,42.9,0,0,0-1.5-7.3c-1.3-4-3.3-7.6-6.8-10a8.2,8.2,0,0,0-4.6-1.6h-1.1c-1.9.4-3.7,2.3-3.4,4.3a16.3,16.3,0,0,1,5.7,1.7,22.4,22.4,0,0,1,8.8,7.4,23.5,23.5,0,0,1,2.9,5.4m-5.4,12a24.6,24.6,0,0,0-10-22.5,6.8,6.8,0,0,0-4.1-1.4,3.3,3.3,0,0,0-2,.5,2.3,2.3,0,0,0-.9,1.4c-.4,2.2,2,3.6,3.9,4.6a26.3,26.3,0,0,1,10,9.6,27.7,27.7,0,0,1,3.1,7.8M125.6,82.8a1.6,1.6,0,0,0,1.2-.6,2.7,2.7,0,0,0-.7-3.5h-.3a1.5,1.5,0,0,0-.9-.2,1.8,1.8,0,0,0-1.8,1.3h0a2.4,2.4,0,0,0,1.4,2.5,1.4,1.4,0,0,0,1.1.5m13.2-33.1a24,24,0,0,0-4.6.5,46.3,46.3,0,0,0-4.8,1.4,22,22,0,0,1-7.6,1.6h-2.9c-5.2,0-11.9.3-17.9,2.8a23,23,0,0,0-10.3,8.1,9.9,9.9,0,0,0-.9,1.5,19.7,19.7,0,0,0-1.1,18.1A15.5,15.5,0,0,0,93,89.2a3.1,3.1,0,0,0,1.9.6,1.8,1.8,0,0,0,1-.2,2,2,0,0,0,1.2-.8c-1.2,5.6.9,11.3,5.3,14a2.7,2.7,0,0,0,1.5.5h.8a2.4,2.4,0,0,0,1.1-.6,7.8,7.8,0,0,0,.4,3.7,7,7,0,0,0,6.4,5h1.3a2.5,2.5,0,0,0,.9-.4,7.5,7.5,0,0,0,.5,2.6,2.8,2.8,0,0,0,1.3,1.5,11.5,11.5,0,0,1,5.1,6.9,2.8,2.8,0,0,0,2,2.2l.9.2a3.2,3.2,0,0,0,2-.8c1-.8,2.1-1.5,3.3-2.3a27.3,27.3,0,0,0,4.4-3.4,14,14,0,0,0,3-4,6.5,6.5,0,0,0,2.7.5,9.3,9.3,0,0,0,7.4-3.9,12.6,12.6,0,0,0,2.1-5.5,6.6,6.6,0,0,0,2.6-1.1,9.4,9.4,0,0,0,3.5-6,21.5,21.5,0,0,0,.3-8c6.6-5.4,12.4-14.5,9.1-23.7a18.4,18.4,0,0,0-4.7-7A40,40,0,0,0,150,52.3a27.9,27.9,0,0,0-10.4-2.6ZM98.3,85.4a25.8,25.8,0,0,1,13.8-15.9,25.2,25.2,0,0,1,6.3-1.9h.8a4.6,4.6,0,0,1,2.1.5h-.1a13.9,13.9,0,0,1-2.5,1.2,40.9,40.9,0,0,0-13.5,7.6,25.7,25.7,0,0,0-6.9,8.6ZM134.7,77h-.2l-1-.5a3.1,3.1,0,0,1,1,.5Zm-8.8,2.6ZM110,95.2l3.6-6.7c1.2-2.3,2.3-4.1,3.8-5a3.7,3.7,0,0,1,1.5-.4c.5,0,1.2.2,1.3.5s-.6,2.6-2.7,4.5l-6.3,6L110,95.2Zm27.5,10.2a13.1,13.1,0,0,0-2.3-3.2l-1.2-1.5a9.5,9.5,0,0,1-1.2-3.8,36.3,36.3,0,0,1,.3-5.7c.2-2,.5-2.5.7-2.6h0a4.5,4.5,0,0,1,2.7,2.7,12.6,12.6,0,0,1,1.3,3.4,19.5,19.5,0,0,1-.3,10.7Zm-19.8-.4a13,13,0,0,1,5.3-5.1h.2a3.5,3.5,0,0,1-.1.6,8.3,8.3,0,0,1-1.9,1.8l-.9.6-1.6,1.2-1,.9Z" style="fill:#163233"/><path d="M133.1,79.6c-1.9-1-4.3-2.4-3.9-4.6a2.3,2.3,0,0,1,.9-1.4,61.4,61.4,0,0,1-5.9-2.5l-1.1-.7a13.9,13.9,0,0,1-3.5,1.6,40.9,40.9,0,0,0-12.5,7.1c-3.1,2.7-6,6-7,10.1s.3,8.8,3.8,11.1L111,87.1c1.2-2.3,2.6-4.8,4.9-6.2s5.8-1,7,1.4-1.1,5.9-3.3,8l-6.3,5.9c-2,1.9-4.1,4-4.5,6.7a4,4,0,0,0,.2,2.4,13.5,13.5,0,0,1,4.9.6,16.6,16.6,0,0,1,7.8-8.7,4.7,4.7,0,0,1,2-.6c1.5.1,2.4,1.6,2.5,3.2a14.1,14.1,0,0,1,3.7-2.7,33.2,33.2,0,0,1,.2-6.3c.2-1.7.5-3.7,2-4.7s5.8,1.1,7.2,3.9a25.8,25.8,0,0,1,1.4,3.9,5.4,5.4,0,0,0,1.5-1.5,6.2,6.2,0,0,0,.9-3.2A26.3,26.3,0,0,0,133.1,79.6Zm-6.3,2.6a1.5,1.5,0,0,1-2.3.1,2.4,2.4,0,0,1-1.4-2.5h0a1.9,1.9,0,0,1,2.7-1.1h.3A2.7,2.7,0,0,1,126.8,82.2ZM123,104.7l-2.4,1.7a9.8,9.8,0,0,0-1.7,1.8,17.2,17.2,0,0,1,3.4,3.2A12.8,12.8,0,0,1,123,104.7Zm16.9-32.5a46.7,46.7,0,0,0,3.1,8.1c.6,1.1,1.6,2.3,2.9,2.1a3.2,3.2,0,0,0,2-1.6,8.3,8.3,0,0,0,.8-1.2A22.4,22.4,0,0,0,139.9,72.2Zm12.5-5.4c-3-5.7-7-12.2-12.9-14.1a18.3,18.3,0,0,0-4.6.4c-4.9,1.2-8.3,3.2-13.4,3.1s-13.4.1-19.3,2.5a68.5,68.5,0,0,1-9,7.1l-.9,1.3a16.9,16.9,0,0,0-.9,15.3,165.6,165.6,0,0,1,10.7-15.6c2-2.4,5.6-5,7.8-2.8a3.5,3.5,0,0,1,1,2.8,24.8,24.8,0,0,1,7-2.2h.6a6.5,6.5,0,0,1-.2-3.1c.9-4.6,7-6.6,11.3-4.8s6.6,5.5,8.3,9.5a7.6,7.6,0,0,1,5.4,1.5c3.5,2.4,5.5,6,6.8,10l2-2.9a9.5,9.5,0,0,0,1.7-3.5A8.2,8.2,0,0,0,152.4,66.8ZM112.1,63h-.3a.8.8,0,0,1-.8.3,2,2,0,0,1-1-3.1,1.8,1.8,0,1,1,2.1,2.7Zm40.1-6.2a36.5,36.5,0,0,0-3.4-1.8A72.7,72.7,0,0,1,155,66.7a28,28,0,0,0,3.2-5.6A26.2,26.2,0,0,0,152.2,56.8Z" style="fill:#4e7d0e;opacity:0.32;mix-blend-mode:multiply"/><path d="M73.1,223.3a1.1,1.1,0,0,1-.8-.3c-8.9-6-12-18.9-6.9-28.3l.3-.6c1.2-2.1,2.5-4.5,1.5-5.9a2.2,2.2,0,0,0-1.8-.8,3.7,3.7,0,0,0-2.5.9c-1.5,1.4-2.1,3.7-2.4,5.8v1c-.4,2.2-.7,4.6-2,6.7a1.7,1.7,0,0,1-1.3.7h0a1.7,1.7,0,0,1-1.3-.7c-2-3.5-3.8-7-5.6-10.6-2.6-5.5-5.1-11.9-2.8-17.9s8.3-8.9,14-11.7a56.3,56.3,0,0,0,7.3-3.9,5.2,5.2,0,0,0,1.7-1.6,3.3,3.3,0,0,0-.8-3.8,6.2,6.2,0,0,0-4.1-1.4h-.6c-5,.3-9,4.4-11.5,7.7l-3,4.5a45.4,45.4,0,0,1-6.3,8.3,1.2,1.2,0,0,1-1,.4h0a1.5,1.5,0,0,1-1.1-.4,31,31,0,0,1-8.3-17.9,20.1,20.1,0,0,1,.1-5.5,13.9,13.9,0,0,1,3.1-7.2c2.6-2.8,6.4-4.3,11.4-4.4h4.1l3.8.5a53.6,53.6,0,0,0,6.9.6,17.5,17.5,0,0,0,4-.4,4.9,4.9,0,0,0,2.7-1.4c.7-1,.2-2.6-.6-3.5a7.6,7.6,0,0,0-4.3-2.3,20.5,20.5,0,0,0-6.1-.9h-.9a23,23,0,0,0-6.3,1A25.4,25.4,0,0,0,41.2,136a32.7,32.7,0,0,0-3,3.5l-.8.5a4.1,4.1,0,0,1-1.9.4,8.1,8.1,0,0,1-6.8-4.7,1.4,1.4,0,0,1-.2-.6q-1.5-4,.6-9.9l.9-2a30.9,30.9,0,0,1,3.6-6.4,30.5,30.5,0,0,1,4.3-5.2,41.4,41.4,0,0,1,4.6-3.9,35.5,35.5,0,0,1,9-4.8,22.4,22.4,0,0,1,3.4-1.1l.9-.2a60.1,60.1,0,0,1,10.5-1.3h2a20.6,20.6,0,0,1,5.4.6,23.5,23.5,0,0,1,8.3,4.8c2.6,2.1,5.1,4.4,7.5,6.6s3,2.9,4.5,4.2,2.3,1.7,3,1.7a4.1,4.1,0,0,0,2-.9,13,13,0,0,1,5.4-2.3,9.3,9.3,0,0,1,2.3-.2,18,18,0,0,1,9.9,3.3,17.2,17.2,0,0,1,6.6,11,11.2,11.2,0,0,1-1.4,7.3,20.2,20.2,0,0,1,6.2,12.2c.9,7.1-1.9,14.8-7.3,20.5a13.8,13.8,0,0,1,1.5,3.6,15.5,15.5,0,0,1-6.4,17,1.1,1.1,0,0,1-.8.3,1.3,1.3,0,0,1-.8-.3l-.4-.4a14.3,14.3,0,0,1-1.3,4.6c-3.3,7-10.9,10.2-18.3,12.9h-.5a1.4,1.4,0,0,1-1.2-.6,1.4,1.4,0,0,1,0-1.7,15.4,15.4,0,0,0-2.6-19.9,5.8,5.8,0,0,0-3.1-1.3,1.6,1.6,0,0,0-1,.2c-1.7,1.1-.4,4.6.7,6.4,1.9,3.5,7.9,14.2,2.3,21.4-1.9,2.4-4.7,3.8-7.4,5.2s-5.9,3-6.9,5.7a1.6,1.6,0,0,1-.9.9ZM96,163.2H94.9c-1.7.3-3.6,2-3.5,3.8s2,3.1,3.8,3.6a15.1,15.1,0,0,0,3.7.7l3.5.7a15.7,15.7,0,0,1,9.9,8.7,16.4,16.4,0,0,1,1.3,4.3,25,25,0,0,0-12.2-20.2A11.6,11.6,0,0,0,96,163.2Zm3.8-18.3a3.3,3.3,0,0,0-2.4.8,3.3,3.3,0,0,0-1.2,2.5,6.3,6.3,0,0,0,1.4,4.6c1.9,2.2,4.8,3.5,7.6,4.7l.7.3a38.8,38.8,0,0,1,10,5.8,31.7,31.7,0,0,0-9.9-15.9A10.7,10.7,0,0,0,99.8,144.9ZM84.9,161.6a1.1,1.1,0,0,0-1,.7,1.2,1.2,0,0,0,.2,1h.8l.6-.7c0-.1.1-.3,0-.5s-.2-.5-.3-.5Zm5.9-15.8-.4.2v.3H91v-.4ZM79.4,131.4H79a7.1,7.1,0,0,0-1.1,1.7l-.2.3h-.1a1.5,1.5,0,0,0,.2,1.6,1.9,1.9,0,0,0,1.3.5h.6a2.4,2.4,0,0,0,1.4-1.8,2,2,0,0,0-.4-1.5c0-.2-.1-.2-.1-.2A1.6,1.6,0,0,0,79.4,131.4Zm15.1.4-.2.3a1.3,1.3,0,0,0-.1.6c.2-.2.4-.5.3-.7Zm8.4-3.4a4.8,4.8,0,0,0,2.6,2.2,14.1,14.1,0,0,0,4.1.7l2.5.2A25.1,25.1,0,0,0,102.9,128.4Z" style="fill:#3b7e82"/><path d="M68.3,101.8a16.7,16.7,0,0,1,5,.6,22.7,22.7,0,0,1,7.8,4.5c4.2,3.3,7.9,7.2,11.9,10.7,1.8,1.6,3,2.1,4,2.1s3.5-2.5,7.7-3.3h2a15.5,15.5,0,0,1,9,3.1c5.3,3.8,8.3,12.1,4.1,17.2a25.1,25.1,0,0,0-18.5-9.9c-.6,2.3,1.5,4.5,3.7,5.3s4.7.7,7,1.1c7.6,1.1,13.5,8.1,14.5,15.7s-2.3,14.9-7.7,20.1a13,13,0,0,1,2,4.3,14.2,14.2,0,0,1-5.8,15.3,26.2,26.2,0,0,0-12.9-24.9,13.2,13.2,0,0,0-6.1-1.9H94.7c-2.6.5-5,2.8-4.8,5.4s2.5,4.2,4.9,5,4.8.7,7.2,1.3c8,2.1,12.7,12.3,9.1,19.8s-10.6,9.6-17.4,12.1c4.7-6.5,3.4-16.7-2.8-21.8a6.7,6.7,0,0,0-4.1-1.7,3.3,3.3,0,0,0-1.7.4c-2.7,1.7-1.5,5.7.1,8.5,3.4,6.1,6.7,14.1,2.4,19.7s-12.3,5.4-14.5,11.3c-8.2-5.6-11.2-17.7-6.4-26.4,1.4-2.5,3.4-5.6,1.7-8.1a3.4,3.4,0,0,0-3-1.4,4.9,4.9,0,0,0-3.5,1.3c-1.8,1.7-2.5,4.2-2.9,6.7s-.6,5-1.9,7.1c-2-3.4-3.8-6.9-5.5-10.4-2.6-5.3-4.8-11.3-2.8-16.8,3.1-8.1,13.5-10,20.7-14.8a6.6,6.6,0,0,0,2.2-2.2,4.6,4.6,0,0,0-1.1-5.6,7.4,7.4,0,0,0-5.1-1.8h-.7c-5.2.3-9.5,4.2-12.6,8.3s-5.4,9-9.1,12.6a29,29,0,0,1-7.9-16.9,18.1,18.1,0,0,1,.1-5.2,12.6,12.6,0,0,1,2.7-6.4c2.6-2.8,6.4-3.8,10.3-3.9h3.9l3.8.5a56.7,56.7,0,0,0,7.1.6,20.9,20.9,0,0,0,4.3-.4,5.6,5.6,0,0,0,3.6-2.1,4.5,4.5,0,0,0-.6-5.3,9.9,9.9,0,0,0-5.1-2.8,23.7,23.7,0,0,0-6.5-.9h-.9a25.3,25.3,0,0,0-6.7,1,27.3,27.3,0,0,0-11,6.2,22.4,22.4,0,0,0-3.2,3.7,4,4,0,0,1-1.5.3,6.4,6.4,0,0,1-5.4-3.9l-.2-.4c-1-2.9-.4-6,.7-8.9.2-.6.5-1.3.7-2a41.6,41.6,0,0,1,3.5-6.1,38.4,38.4,0,0,1,4.2-5,39.1,39.1,0,0,1,4.4-3.7,35.6,35.6,0,0,1,8.6-4.6l3.3-1.1.9-.2a56.9,56.9,0,0,1,10.2-1.2h1.9m10.8,35.3a2.5,2.5,0,0,0,1.2-.2,4,4,0,0,0,2.3-3,3.9,3.9,0,0,0-.6-2.6l-.3-.4a3.4,3.4,0,0,0-2.3-1h-.7c-1.2.3-2.2,2.4-2.2,2.4l-.2.4a2.9,2.9,0,0,0,.4,3.3,3.1,3.1,0,0,0,2.4,1m14.7-1.6a.8.8,0,0,0,.7-.4,2.4,2.4,0,0,1,.6-1.2,2.5,2.5,0,0,0,.9-2,1.6,1.6,0,0,0-1.4-1.6h-.1a1.8,1.8,0,0,0-1.6,1.2,3.7,3.7,0,0,0-.2,2.1,2.2,2.2,0,0,0,.4,1.6.9.9,0,0,0,.7.3m24.5,32.7A33,33,0,0,0,107,146.6a11.5,11.5,0,0,0-7.2-3.2,4.9,4.9,0,0,0-3.3,1.1c-2.7,2.2-2.2,6.7,0,9.3s5.6,4,8.8,5.3c4.9,2.1,9.9,5,13,9.1M90.5,147.9a1.9,1.9,0,0,0,1.4-.4,1.9,1.9,0,0,0,0-2.8,1.5,1.5,0,0,0-1.1-.4,1.8,1.8,0,0,0-1.6.9,2,2,0,0,0,.7,2.7h.6m-5.9,17a1.7,1.7,0,0,0,1.2-.4l.8-.8a2.3,2.3,0,0,0-.8-3.4l-.9-.2a2.6,2.6,0,0,0-2.4,1.7,2.3,2.3,0,0,0,.7,2.6,2.4,2.4,0,0,0,1.4.5M68.3,98.8H66.2a62.6,62.6,0,0,0-10.7,1.3l-1,.2L51,101.5a38.6,38.6,0,0,0-9.4,5,43.3,43.3,0,0,0-4.7,4,46.9,46.9,0,0,0-4.6,5.4,42.8,42.8,0,0,0-3.7,6.6l-.9,2.2c-1.5,4.3-1.7,7.8-.6,10.9a2.5,2.5,0,0,0,.2.7,9.9,9.9,0,0,0,7.1,5.5,14.3,14.3,0,0,0-2.1,6,23,23,0,0,0-.1,5.9,32.9,32.9,0,0,0,8.7,18.7,2.9,2.9,0,0,0,2.2.9h0a3.2,3.2,0,0,0,2.1-.8,22.5,22.5,0,0,0,2.1-2.4,16.9,16.9,0,0,0-1.3,2.7c-2.5,6.5.1,13.3,2.9,19.1,1.7,3.6,3.6,7.2,5.6,10.6a3,3,0,0,0,2.6,1.5h0a3,3,0,0,0,2.6-1.4,18.8,18.8,0,0,0,2.1-7.3c.1-.3.1-.6.2-.9.3-1.8.7-3.9,1.9-5a2.5,2.5,0,0,1,1.5-.5H66c.4.7-.8,3-1.6,4.3l-.3.7c-5.5,10-2.1,23.9,7.3,30.3a3.4,3.4,0,0,0,1.7.5l.9-.2a2.7,2.7,0,0,0,1.9-1.8c.8-2.2,3.3-3.4,6.2-4.9s5.8-2.9,7.9-5.6a13.2,13.2,0,0,0,2.1-4.3,2.9,2.9,0,0,0,1.6.4,1.8,1.8,0,0,0,1-.2c7.7-2.8,15.6-6.2,19.1-13.6a12.8,12.8,0,0,0,1.1-3.1h.1a3,3,0,0,0,1.6-.5,17.2,17.2,0,0,0,7.1-18.7,18.8,18.8,0,0,0-1.2-3,26.9,26.9,0,0,0,7-20.9,22.2,22.2,0,0,0-5.9-12.3,13.2,13.2,0,0,0,1.1-7.2,18.2,18.2,0,0,0-7.3-12,18.6,18.6,0,0,0-10.7-3.6l-2.5.2a15.6,15.6,0,0,0-6,2.5,4,4,0,0,1-1.2.7,5.3,5.3,0,0,1-2-1.3l-4.5-4.2c-2.4-2.2-4.9-4.6-7.6-6.7a26,26,0,0,0-8.8-5,19.6,19.6,0,0,0-5.8-.7ZM44.5,135.3a22.9,22.9,0,0,1,7.5-3.7,20.8,20.8,0,0,1,6-.9h.8a21.8,21.8,0,0,1,5.7.8,8,8,0,0,1,3.6,1.8,1.7,1.7,0,0,1,.4,1.7c0,.2-.4.5-1.8.8a13.7,13.7,0,0,1-3.6.4,50.5,50.5,0,0,1-6.7-.6l-3.9-.5H48.2a15,15,0,0,0-3.7.4ZM79,134.1l.3-.4c0-.2.2-.4.3-.6v.4c0,.3-.2.6-.4.6H79Zm34,25.6a43.8,43.8,0,0,0-6.5-3.3l-.7-.3c-2.8-1.2-5.4-2.3-7-4.2a5.3,5.3,0,0,1-1.2-3.5,2.7,2.7,0,0,1,.8-1.6,1.9,1.9,0,0,1,1.4-.4c1.4,0,3.5,1,5.3,2.4a31.5,31.5,0,0,1,7.9,10.9Zm-63.9,8c.9-1.2,1.7-2.5,2.6-3.8s1.9-3,2.9-4.4c2.3-3.1,6-6.8,10.4-7.1h.5a4,4,0,0,1,3,1c.6.5.9,1.5.6,1.9s-1,1-1.3,1.2a75.9,75.9,0,0,1-7,3.8c-4.3,2-8.6,4.1-11.7,7.4Zm59,5.6a13.8,13.8,0,0,0-5.4-2.7l-3.6-.6-3.4-.7c-1.5-.5-2.7-1.5-2.8-2.3a2.8,2.8,0,0,1,2.3-2.2H96a9.5,9.5,0,0,1,4.6,1.5,22.1,22.1,0,0,1,7.5,7.1ZM86.6,184.9h.2a4.4,4.4,0,0,1,2.2,1c4.4,3.6,5.7,10.4,3.5,15.6-.8-5.2-3.5-10-4.7-12.2s-1.4-4.1-1.2-4.4Z" style="fill:#163233"/><path d="M48.6,145.5a32.3,32.3,0,0,1-.3-7.6c-3.9.1-7.7,1.1-10.3,3.9a12.6,12.6,0,0,0-2.7,6.4,30.3,30.3,0,0,0,10.4,1.2c1-.1,2.3-.3,2.8-1.2A3.6,3.6,0,0,0,48.6,145.5Zm31.3-36.7c-4.3-1.6-8.5-.4-12.4,1.4a23.8,23.8,0,0,0,.1-8.4H66.4A56.9,56.9,0,0,0,56.2,103c0,.2.1.3.1.4a2.4,2.4,0,0,1-1.6,2.7,2,2,0,0,1-2.7-1.8,35.6,35.6,0,0,0-8.6,4.6,17.4,17.4,0,0,1,1.1,1.8,15.7,15.7,0,0,1-5.5,1.9,38.4,38.4,0,0,0-4.2,5,2.7,2.7,0,0,1,1.2,2.2c-.1,1.2-1.2,2.1-2.3,2.8l-2.4,1.1c-.2.7-.5,1.4-.7,2-1.1,2.9-1.7,6-.7,8.9l.2.4a25,25,0,0,1,3.5-2.1,6,6,0,0,1,4.3-.6,3.4,3.4,0,0,1,2.3,2.6,27.3,27.3,0,0,1,11-6.2c1.3-1.7,3.1-3,5-2.3a3.1,3.1,0,0,1,1.7,1.3,23.1,23.1,0,0,1,7.4.8,9.9,9.9,0,0,1,5.1,2.8,4.5,4.5,0,0,1,.6,5.3,5.6,5.6,0,0,1-3.6,2.1c-3.7.8-7.6.3-11.4-.2a39.4,39.4,0,0,1-3.9,6.1c4.6.1,9.3.1,13.5-1.7s7.7-5.9,7.3-10.4-4.4-8.3-4.4-12.9l2.8-2a11.9,11.9,0,0,1,4.8,15.2h.2l.2-.4s1-2.1,2.2-2.4a3.1,3.1,0,0,1,3,.9l.3.4a12.6,12.6,0,0,0,6.2-8.8A13.2,13.2,0,0,0,79.9,108.8ZM38.2,121.4a.9.9,0,0,1-.6-.3,2.4,2.4,0,0,1-.2-.8,1.7,1.7,0,0,1,.1-.7.4.4,0,0,1,.3-.4,2.6,2.6,0,0,1,1.4-1.1,2,2,0,0,1,2.6,1.5C42.1,121.6,39.6,122.2,38.2,121.4Zm17.7,3.5c-1.3.4-3.1-.3-3.3-1.8h0c-.5-2.2,4.1-4.4,5.2-1.3A2.5,2.5,0,0,1,55.9,124.9Zm11.7-9a2,2,0,0,1-2.5,1.7,1.9,1.9,0,0,1-1.6-1.9.4.4,0,0,1-.1-.3,2,2,0,0,1,2.4-2A2.2,2.2,0,0,1,67.6,115.9Z" style="fill:#4e7d0e;opacity:0.32;mix-blend-mode:multiply"/><path d="M116.4,95.1a1.7,1.7,0,0,1-1.2-.5A14.5,14.5,0,0,0,103.7,89a12.4,12.4,0,0,0-3.3.4h-.3a8.6,8.6,0,0,1-2.4.4h-.9a5.5,5.5,0,0,1-3.5-2.5c-3.7-4.9-3.5-12.3.5-19.7a67.4,67.4,0,0,1,3.8-6.4,49.9,49.9,0,0,0,5.5-10.1c.2-.9.8-2.9-.1-3.8a1.3,1.3,0,0,0-1-.4c-1.3,0-3.2,1.3-4.6,3.1A162.2,162.2,0,0,0,79.8,78.4a1.3,1.3,0,0,1-.8.8h-.5l-.7-.2c-6.1-3.2-7.5-11.5-5.2-17.4S80,51.5,84.7,48.1l2.2-1.6c4-2.8,8-5.7,10.9-9.5a5.8,5.8,0,0,0,1.1-3.7c-.1-.3-.2-.5-.5-.6H96.9C88.8,34.2,83,41.6,77.7,49L70.2,59.8a1.7,1.7,0,0,1-1.3.7l-.8-.3C63,57,62.5,49.5,65.3,44.4s7.6-8,11.9-10.7l10.4-6.5c2.3-1.5,3.4-2.8,3.1-3.9a2.6,2.6,0,0,0-2.5-1.7,10.2,10.2,0,0,0-4.4,1.6A61.1,61.1,0,0,0,68.9,35.6a1.6,1.6,0,0,1-1.1.5h-.3a1.7,1.7,0,0,1-1.1-.9c-2.2-5.7.2-11.8,2.7-16C73.9,11,80.7,5.4,88.2,3.4a20.8,20.8,0,0,1,5.5-.7,21.4,21.4,0,0,1,5,.6,27.7,27.7,0,0,1,8.4,3.6l2.3,1.6c2.2,1.5,4.3,3,6.7,3l1.8-.2c2.6-.8,4.6-2.5,6.8-4.3s5.8-4.9,10.2-5.4h1.9a17,17,0,0,1,13.7,7,16.8,16.8,0,0,1,0,18.7c0,.1-.1.1-.2.2a12.7,12.7,0,0,1,2.7,2.5c4.5,5.7,1.6,14-2.7,19.9a1.3,1.3,0,0,1-1.2.6h-.3a6.6,6.6,0,0,1,.6,3.2,9.1,9.1,0,0,1-2,4.3l-4.1,5.9a4.8,4.8,0,0,1-3.1,2.3h-.5a3.4,3.4,0,0,1-2.4-1.1,17,17,0,0,1,1,3.2v.3a9,9,0,0,1-.8,6.8c-1.9,2.9-5.3,3.5-8.3,4a24.7,24.7,0,0,0-2.9.6,12.4,12.4,0,0,0-8.5,13.4A1.5,1.5,0,0,1,117,95Zm3.9-55.4c-2.7,0-5.8,1.5-6.4,4.3s2.2,6.4,5.2,8,3.1,1.4,4.8,2.1a28.8,28.8,0,0,1,6.2,2.8,18.1,18.1,0,0,1,4.6,4.1c-.9-2.1-1.5-4.3-2.2-6.4s-1-3.2-1.6-4.7c-1.3-3.5-3.7-8-7.8-9.7A8.2,8.2,0,0,0,120.3,39.7Zm9.6-6.9h.7c5.8.3,10.1,4.2,13.5,9.1a35.5,35.5,0,0,0-4.8-6.7c-3.4-3.6-7.9-5.8-11.9-5.8l-2.1.2a2.9,2.9,0,0,0-1.7.8c-.1.1-.2.3,0,.8a3,3,0,0,0,1.6,1.5l2,.2h2.7ZM117,30c0,.1.1.1.2.1h.1c.1,0,.1-.1.1-.3h-.2v.2A.1.1,0,0,0,117,30Zm16.4-9.3c-1.5,0-3.1.5-3.3,1.5a1,1,0,0,0,.2.9c.6.8,2.4,1.5,4.1,1.6h2.9a41.4,41.4,0,0,1,9.3,1,22.9,22.9,0,0,0-12.7-5.1Zm-34-2.1a2.8,2.8,0,0,0-1.8.6.4.4,0,0,1,.1.3,1.9,1.9,0,0,0,1,1.8h.6a1.9,1.9,0,0,0,1.3-.5,18.7,18.7,0,0,1-.7-2.2h-.5Zm23.4.9a1.8,1.8,0,0,0-1.1.3.4.4,0,0,0-.1.3v.2a1.3,1.3,0,0,0,1,1.1h.2a1.6,1.6,0,0,0,1.4-1.2c0-.3-.1-.3-.1-.4a2.2,2.2,0,0,0-1.2-.3Z" style="fill:#6ab3b9"/><path d="M136.8,3a15.2,15.2,0,0,1,12.4,6.4,15.1,15.1,0,0,1,.1,16.9A24.1,24.1,0,0,0,134,19.2h-.6c-2.1,0-4.4.7-4.8,2.7s3,4.1,5.7,4.3c6.2.3,13.7-.3,17.5,4.6s1.2,12.8-2.7,18.1c-2.3-5.2-4.8-10.6-8.7-14.7s-8.2-6.3-13-6.3a9.9,9.9,0,0,0-2.4.3,3.6,3.6,0,0,0-2.7,1.4c-1,1.7.5,3.9,2.4,4.5a10.1,10.1,0,0,0,2.5.3h3.3c7.6.4,12.5,8,16.1,14.7a9,9,0,0,1,1.3,4.5,9.5,9.5,0,0,1-1.7,3.5L142,63a3.7,3.7,0,0,1-2,1.7h-.3c-1.1,0-2-1.2-2.6-2.2-2.2-4.1-3.1-8.8-4.8-13.1s-4.3-8.8-8.6-10.5a8,8,0,0,0-3.4-.7c-3.5,0-7.2,2-7.9,5.5s2.4,7.7,5.9,9.6,7.6,2.7,11,4.9a16.6,16.6,0,0,1,7.5,10.4.4.4,0,0,1,.1.3,7.5,7.5,0,0,1-.6,5.7c-2,3.2-6.6,2.9-10.3,3.9a13.9,13.9,0,0,0-9.6,15.1,16.4,16.4,0,0,0-12.7-6.1,14.7,14.7,0,0,0-3.6.4,10.3,10.3,0,0,1-2.4.5h-.6a4.2,4.2,0,0,1-2.6-1.9c-3.8-5.1-2.4-12.5.6-18.1s7.3-10.7,9.4-16.7c.6-1.8.9-4.1-.4-5.4a2.9,2.9,0,0,0-2.1-.8c-2,0-4.4,1.8-5.8,3.7A153.9,153.9,0,0,0,78.5,77.8c-5.2-2.8-6.6-10-4.5-15.5s6.8-9.6,11.6-13S95.4,42.6,99,37.9c1.5-2,2.3-5.5,0-6.6l-1.2-.2-1.1.2c-8.9,1.5-15,9.5-20.2,16.9L68.9,59c-4.3-2.8-4.8-9.3-2.3-13.9S73.7,37.7,78,35l10.4-6.5c2-1.3,4.3-3.2,3.8-5.5s-2.2-2.9-4-2.9h-.1a10.1,10.1,0,0,0-5,1.8A62.4,62.4,0,0,0,67.8,34.6c-1.9-4.8-.1-10.2,2.6-14.6C74.5,13,80.8,7,88.6,4.9a17.9,17.9,0,0,1,5.1-.7,23.1,23.1,0,0,1,4.6.5,28.3,28.3,0,0,1,8,3.5c3.2,2,6.1,4.8,9.8,4.8a8.3,8.3,0,0,0,2.2-.3c6.3-1.8,9.6-8.7,16.8-9.6h1.7M99.3,22.9a3.2,3.2,0,0,0,2.9-1.8c-.4-1.2-.7-2.3-1-3.4a2.2,2.2,0,0,0-1.1-.5h-.7c-1.5,0-3.6.7-3.2,2.4a3.4,3.4,0,0,0,2,3.2l1.1.2m23.5,0a2.8,2.8,0,0,0,2.8-2.5c.3-1.7-1.2-2.4-2.7-2.4h-.2a2.6,2.6,0,0,0-2.2.9,1.6,1.6,0,0,0-.3,1.6,2.7,2.7,0,0,0,2.2,2.4h.4m-5.6,8.7h.2a1.7,1.7,0,0,0,1.4-2.1,1.6,1.6,0,0,0-1.6-1.3h-.5a1.8,1.8,0,0,0-1,.9.7.7,0,0,0-.4.6,1.9,1.9,0,0,0,1.9,1.8m-11.9,14a.7.7,0,0,0,.6-.3h.3a1.8,1.8,0,0,0,.8-2.6,1.5,1.5,0,0,0-1.4-.8,1.8,1.8,0,0,0-1.5.7,2,2,0,0,0,1,3.1h.2M136.8,0h-2.1c-4.8.6-8.1,3.3-11,5.7s-3.9,3.4-6.2,4a3.4,3.4,0,0,1-1.4.2c-1.9,0-3.7-1.3-5.9-2.8l-2.3-1.6A31,31,0,0,0,99,1.8a23.3,23.3,0,0,0-5.3-.6,23.9,23.9,0,0,0-5.9.8c-7.9,2.1-15,7.9-20,16.4C64,24.8,63,30.8,65,35.7a3.2,3.2,0,0,0,2.3,1.9h.5a3.4,3.4,0,0,0,2.3-1A56.3,56.3,0,0,1,84.6,24.5a7.4,7.4,0,0,1,3.5-1.4h0a1.5,1.5,0,0,1,1.2.5h0s-.1.8-2.5,2.3L76.4,32.4c-4.2,2.7-9.5,6-12.4,11.3s-2.7,14,3.3,17.8a3.3,3.3,0,0,0,1.6.5,3,3,0,0,0,2.4-1.2c0,.1-.1.3-.1.4-2.6,6.6-1,15.6,5.9,19.2a2.3,2.3,0,0,0,1.4.4l.9-.2a3,3,0,0,0,1.8-1.5A153.9,153.9,0,0,1,98.6,50.9c1.2-1.6,2.7-2.5,3.3-2.5a3.2,3.2,0,0,1-.3,2.2c-1.1,3.4-3.1,6.5-5.3,9.8s-2.7,4.2-3.9,6.5c-4.2,7.9-4.3,15.9-.3,21.3a7.4,7.4,0,0,0,4.4,3.1h1.2a10.8,10.8,0,0,0,2.8-.5h.3a13.6,13.6,0,0,1,2.9-.3,13,13,0,0,1,10.3,5,3.2,3.2,0,0,0,2.4,1.1,2.5,2.5,0,0,0,1.2-.2,2.9,2.9,0,0,0,1.7-3.3,10.9,10.9,0,0,1,7.5-11.7l2.8-.5c3.1-.6,7-1.2,9.2-4.7s1.7-4.8,1-7.9v-.6h.7a6.4,6.4,0,0,0,4.1-2.9c1.4-2,2.7-4,4.1-5.9a11.1,11.1,0,0,0,2.3-5,9.7,9.7,0,0,0-.2-2.4l.9-.7c4.5-6.3,7.6-15.3,2.6-21.7a11.1,11.1,0,0,0-1.8-1.9,18.4,18.4,0,0,0-.7-19.4A18.2,18.2,0,0,0,136.8,0Zm-5,22.5a3.5,3.5,0,0,1,1.6-.3h.4a20.8,20.8,0,0,1,5.5,1.2h-4.8a7.4,7.4,0,0,1-2.7-.7Zm-6.4,8.6h.2l1.8-.2a13.5,13.5,0,0,1,2.8.4h-3l-1.6-.2Zm-48,21L79,49.9c5-7.2,10.6-14.4,18.2-15.7h.2a4.8,4.8,0,0,1-.8,1.9c-2.7,3.6-6.5,6.3-10.5,9.1l-2.3,1.7a58.4,58.4,0,0,0-6.4,5.2Zm53.9,3.8-.4-.3a34,34,0,0,0-6.5-2.9l-4.6-2c-2.6-1.4-4.9-4.1-4.4-6.4s2.8-3.1,4.9-3.1a7.2,7.2,0,0,1,2.2.4c3.6,1.5,5.8,5.6,7,8.8.6,1.5,1.1,3,1.6,4.6a2.9,2.9,0,0,1,.2.9Z" style="fill:#2e5b1d"/><path d="M5.4,129.4l-.6-.2a1.5,1.5,0,0,1-.8-1.7,24.3,24.3,0,0,0-.9-13.1c-.1-.4-.3-.7-.4-1.1a13.9,13.9,0,0,1-1.2-5.5c.3-4.4,4.4-7.3,8.1-8.6a47.4,47.4,0,0,1,12.9-1.9c4.4-.2,8.5-.4,12.3-1.8,1.1-.4,1.8-.9,1.9-1.3s-1.3-1.7-2.8-2.1a30.9,30.9,0,0,0-8-1.1A31.9,31.9,0,0,0,6.7,97.4l-.9.3-.7-.2a1.4,1.4,0,0,1-.8-1.4,14.9,14.9,0,0,1,9.5-12.9,16.8,16.8,0,0,1,6-1c4,0,8,1.1,11.9,2.2s7.5,2.2,11,2.2a18.7,18.7,0,0,0,3.5-.4c-2-4.5-6.9-7.1-11.2-7.7a16.9,16.9,0,0,0-3.3-.3,40,40,0,0,0-13,2.7h-.4a1.5,1.5,0,0,1-1-.4,1.4,1.4,0,0,1-.5-1.5c1.5-6.6,8.3-11.8,15.5-11.8a12.6,12.6,0,0,1,4.7.8h.3a1.5,1.5,0,0,1,.3-1.8c4.6-4.1,10-8.4,16.3-8.4h1.5c6,.7,11.2,5.3,15.6,13.7A24.9,24.9,0,0,1,73.9,81a23.5,23.5,0,0,1-.8,7.7l3.6-.3A13.5,13.5,0,0,1,84,90.3a14.9,14.9,0,0,1,7,14.4,10.5,10.5,0,0,1-.6,2.4,14,14,0,0,1-12.9,9.2h0A10.1,10.1,0,0,1,75,116a1.5,1.5,0,0,1-1.1-.9,1.6,1.6,0,0,1,.2-1.5,6.4,6.4,0,0,0,.8-1.4A10.3,10.3,0,0,0,73,100.5l-1.5.7a16.3,16.3,0,0,0,1.1,5.5,16.8,16.8,0,0,1,1.1,7.1c0,.3-.1.6-.1.9-1.1,5.1-5.9,8.4-10.2,9.4a22.5,22.5,0,0,1-4.6.4,46.6,46.6,0,0,1-9.6-1.2,1.4,1.4,0,0,1-1.1-1.1,1.4,1.4,0,0,1,.4-1.5l1.6-1.4a42,42,0,0,0,5.6-7,7.9,7.9,0,0,0,1.3-5.2,1.7,1.7,0,0,0-.9-1.1,1.3,1.3,0,0,0-.8-.3c-1.3,0-3,1.4-4.2,3.2a25.5,25.5,0,0,0-3.6,11.5v1.7a5.2,5.2,0,0,1-1,3.7,4,4,0,0,1-3.1,1.2H42.2a33,33,0,0,1-16.3-6.7,1.7,1.7,0,0,1-.6-1.4,1.6,1.6,0,0,1,1-1.1,22.5,22.5,0,0,1,4.2-1.3,16.6,16.6,0,0,0,5.3-1.9h.1a4.9,4.9,0,0,0,2.1-4.2,1.8,1.8,0,0,0-.9-1.7,2.1,2.1,0,0,0-1.2-.3h-.2l-1.9.3a18.1,18.1,0,0,0-11,8.5,1.3,1.3,0,0,1-.8.7A35.6,35.6,0,0,0,6.6,128.8,1.4,1.4,0,0,1,5.4,129.4Zm50-28.4v.2a1.6,1.6,0,0,0,1.1.5h.1a1,1,0,0,0,.8-.5.5.5,0,0,0,.2-.6c0-.4-.1-.7-.8-.7s-1.5.5-1.5.7v.4Zm12-5.8v.4a.8.8,0,0,0,.3.7H68a.5.5,0,0,0,.5-.4.7.7,0,0,0-.4-.9h-.3A.4.4,0,0,0,67.4,95.2ZM41,95.5h1.3v-.4l-.5-.2h0a.9.9,0,0,0-.7.3.1.1,0,0,1-.1.1Zm17.8-14a.9.9,0,0,0-.6.8.8.8,0,0,0,.2.6h.3c.4-.1.9-.5.8-.9s-.1-.3-.3-.4A.5.5,0,0,1,58.8,81.5ZM39,69a42.8,42.8,0,0,1,5.7,3.7c3.2,2.4,6.2,4.6,9.8,4.6h.9c.2-.2.2-1-.3-1.9a13.5,13.5,0,0,0-11.9-7.1,14.1,14.1,0,0,0-4.1.7Z" style="fill:#6ab3b9"/><path d="M53.9,59.5h1.4c6.7.7,11.3,6.9,14.4,12.9a22.8,22.8,0,0,1,2.7,8.7,22.2,22.2,0,0,1-1.5,9.5,23.2,23.2,0,0,1,5.8-.8,13,13,0,0,1,6.6,1.7,13.4,13.4,0,0,1,6.2,12.9,16,16,0,0,1-.5,2.1,12.6,12.6,0,0,1-11.5,8.2,8.3,8.3,0,0,1-2.2-.3,8.6,8.6,0,0,0,1-1.6,12,12,0,0,0-3-14.2l-3.2,1.5c-.7,4.5,2.6,8.9,2.1,13.4,0,.3-.1.6-.1.8-.8,4.1-4.8,7.2-9,8.2a20.9,20.9,0,0,1-4.3.4,49.4,49.4,0,0,1-9.3-1.2c.6-.4,1.1-1,1.7-1.5a44,44,0,0,0,5.7-7.2c1.7-2.7,2.7-6.9-.1-8.5a4.2,4.2,0,0,0-1.5-.4c-2.1,0-4.2,2-5.4,3.9A26.6,26.6,0,0,0,46,120.3v1.8a4,4,0,0,1-.6,2.7,2.9,2.9,0,0,1-2,.7h-1A31.7,31.7,0,0,1,26.8,119c3.2-1.3,6.9-1.4,9.8-3.3h.1c2.9-1.9,4.1-6.9,1.1-8.5a3.7,3.7,0,0,0-1.8-.5h-.3a8.3,8.3,0,0,0-2.2.3,19.4,19.4,0,0,0-12,9.3A36.5,36.5,0,0,0,5.4,127.9a25.6,25.6,0,0,0-.9-14c-.7-2-1.6-4-1.5-6,.3-3.6,3.7-6.1,7.1-7.3,8.1-2.7,17.2-.8,25.3-3.7,1.1-.5,2.4-1.2,2.7-2.4s-1.8-3.3-3.8-3.9a34,34,0,0,0-8.4-1.1A33.1,33.1,0,0,0,5.8,96.2a13.6,13.6,0,0,1,8.5-11.6,15.1,15.1,0,0,1,5.5-.9c7.5,0,15.4,4.4,22.9,4.4a16.1,16.1,0,0,0,5.4-.9C46.6,81.6,41,77.8,35.3,77a21.9,21.9,0,0,0-3.6-.3,39.2,39.2,0,0,0-13.4,2.8c1.4-6.3,7.7-10.7,14-10.7a12.3,12.3,0,0,1,4.2.7c6.4,2.3,11.1,9.3,18,9.3h0a3,3,0,0,0,1.9-.5c1-.9.7-2.5.1-3.7a15.3,15.3,0,0,0-13.3-7.9,14.4,14.4,0,0,0-4.6.8c4.4-3.9,9.6-8,15.3-8m4.7,25h.3A2.3,2.3,0,0,0,61,82.1a2,2,0,0,0-1.3-1.8c0-.2-.2-.4-.6-.4h0a2.5,2.5,0,0,0-2.4,2.3,2,2,0,0,0,1.9,2.3M41.8,97.2c1.1,0,2.1-.5,2.1-1.8a1.4,1.4,0,0,0-.3-.9,1.9,1.9,0,0,0-1.8-1h-.2a2.1,2.1,0,0,0-1.6.8.3.3,0,0,0-.3.3,1.1,1.1,0,0,0-.2.7,1.1,1.1,0,0,0,0,.8.8.8,0,0,0,.5.5,3.1,3.1,0,0,0,1,.5h.8m26.2.6a2.2,2.2,0,0,0,2-1.4,2.4,2.4,0,0,0-1.4-2.8h-.8a1.8,1.8,0,0,0-1.9,1.6v.3a2.2,2.2,0,0,0,1.2,2.3H68m-11.4,5.4h.2a2.5,2.5,0,0,0,2.4-2.9,2.1,2.1,0,0,0-2.3-1.9c-1.4,0-3,1-3,2.3h0c-.1,1.4,1.4,2.4,2.7,2.4M53.9,56.5h0c-6.8,0-12.5,4.5-17.3,8.8a2.2,2.2,0,0,0-.7.9,14.7,14.7,0,0,0-3.6-.4c-8,0-15.3,5.6-17,13a3.1,3.1,0,0,0,.4,2.3l-2.4.7A16.4,16.4,0,0,0,2.8,96a2.8,2.8,0,0,0,1.6,2.8,2.3,2.3,0,0,0,1.4.4h.3C3,101,.3,103.8,0,107.6a14.2,14.2,0,0,0,1.3,6.3,10.4,10.4,0,0,1,.4,1,22.4,22.4,0,0,1,.8,12.3,3,3,0,0,0,1.7,3.4,2.7,2.7,0,0,0,1.2.3,3,3,0,0,0,2.4-1.2,34.6,34.6,0,0,1,14.7-10.6,2.9,2.9,0,0,0,1.6-1.3,3.1,3.1,0,0,0-.2.8,2.9,2.9,0,0,0,1.1,2.8,35.5,35.5,0,0,0,17,7h1.4a5,5,0,0,0,5.3-3.8h.2a58.3,58.3,0,0,0,9.9,1.2,18.9,18.9,0,0,0,4.9-.5c4.1-.9,8.6-3.7,10.6-8.1h.3a14.3,14.3,0,0,0,2.9.3,15.4,15.4,0,0,0,14.3-10.3,11,11,0,0,0,.6-2.6A16.1,16.1,0,0,0,84.8,89a15.8,15.8,0,0,0-8.1-2.1H75a21.4,21.4,0,0,0,.4-6.1,24.8,24.8,0,0,0-3.1-9.7c-4.6-9-10.2-13.9-16.7-14.6ZM43.1,69.7h.1a12.2,12.2,0,0,1,10.5,6.1c-2.7-.3-5.3-2.2-8.1-4.3l-2.5-1.8ZM23.5,80.9a31.9,31.9,0,0,1,8.2-1.2l3.1.2a14.2,14.2,0,0,1,9,5.1H42.7c-3.3,0-6.9-1-10.6-2.1a82.9,82.9,0,0,0-8.6-2.1ZM8.2,98.2a29.9,29.9,0,0,1,17.7-5.7,27.3,27.3,0,0,1,7.6,1l1.1.4-.3.2c-3.6,1.3-7.6,1.5-11.9,1.7s-8.9.5-13.3,2l-.9.4Zm66.2,9.5c-.1-.5-.3-1-.4-1.5s-.6-2.1-.8-3.1a8.8,8.8,0,0,1,1.2,4.6ZM49.3,117.9a24,24,0,0,1,3.1-8.2c1-1.6,2.3-2.5,2.9-2.5h.1s.1,0,.1.2a6.7,6.7,0,0,1-1.1,4,39.8,39.8,0,0,1-5.1,6.4Zm-24.9-.6a16.9,16.9,0,0,1,9.8-7.4l1.5-.2h.6c.1,0,.2.1.2.5a3.5,3.5,0,0,1-1.5,2.9h0a13.5,13.5,0,0,1-4.9,1.7,27.8,27.8,0,0,0-4.4,1.4,2.6,2.6,0,0,0-1.3,1Z" style="fill:#2e5b1d"/><ellipse cx="128.9" cy="300.2" rx="36.7" ry="6.6" style="fill:none;stroke:#2e2c42;stroke-miterlimit:10;stroke-width:2.5414600000000003px"/><ellipse cx="128.9" cy="399.7" rx="45.8" ry="8.3" style="fill:none;stroke:#2e2c42;stroke-miterlimit:10;stroke-width:2.5414600000000003px"/><line x1="161.2" y1="231" x2="174.2" y2="400.8" style="fill:none;stroke:#2e2c42;stroke-miterlimit:10;stroke-width:2.5414600000000003px"/><line x1="84.5" y1="400.8" x2="98.6" y2="231" style="fill:none;stroke:#2e2c42;stroke-miterlimit:10;stroke-width:2.5414600000000003px"/><path d="M157.3,227.7c2.4.8,3.7,1.7,3.7,2.7,0,3.1-14.2,5.7-31.7,5.7s-31.7-2.6-31.7-5.7c0-1,1.3-1.9,3.7-2.7" style="fill:none;stroke:#2e2c42;stroke-linecap:round;stroke-linejoin:round;stroke-width:2.5414600000000003px"/><line x1="129.3" y1="236.1" x2="129.3" y2="408" style="fill:none;stroke:#2e2c42;stroke-linecap:round;stroke-linejoin:round;stroke-width:2.5414600000000003px"/><line x1="137.3" y1="236.1" x2="137.9" y2="390.4" style="fill:none;stroke:#2e2c42;stroke-linecap:round;stroke-linejoin:round;stroke-width:2.5414600000000003px"/><line x1="129.3" y1="236.1" x2="129.3" y2="408" style="fill:none;stroke:#2e2c42;stroke-linecap:round;stroke-linejoin:round;stroke-width:2.5414600000000003px"/><line x1="129.3" y1="236.1" x2="129.3" y2="408" style="fill:none;stroke:#2e2c42;stroke-linecap:round;stroke-linejoin:round;stroke-width:2.5414600000000003px"/></g></g></g></svg>