<svg xmlns="http://www.w3.org/2000/svg" viewBox="0 0 241.6 265.7"><g id="Layer_2" data-name="Layer 2"><g id="Layer_1-2" data-name="Layer 1"><path d="M3,254.6c9.3-5.1,19.9-11.1,29.6-15.1H207.9a9,9,0,0,1,4.6,1.2c8,4.5,18.1,9.4,26.1,13.8C166.4,257.6,78.8,255,3,254.6Z" style="fill:#d8a960"/><path d="M86.7,240c.7,2.4,3.8,2.1,5.2,3.5h0c5.9,3.1,12.2-2.7,18.5-1h0c4.4-.2,8.9,1,13.3-.1,1.8-.5,2.4-2.6,4.2-2.9s.6,1,.3,1.4c-5.7,6.9-16,1.6-23.4,2.9s-9.6,3-16.7-1.4C87.3,242.4,85,238.8,86.7,240Zm99.4,4.1c5.3,2.1,11.9,4.3,16.8.3.5-.4,6-4.8,4-4.8-10.3,11.2-14.6,3.3-26.2,2.8-4.6-.8-10.6,1.7-13.9-2.1-.3-1.1-1.2-.8-.6.3C170.3,245.2,180,241.9,186.1,244.1Zm-29.7-3.5h0c.8.1,1.5,1,2.1,1.4,7.5,5.4,9,9.1,19.3,6.3,4.1-1.7,7.6,1.5,11.5,2.2,7.2,2.6,26.7,2,24.5-9-.8,0-.1,1.8-.7,2.3-.1,2-2.5,2.9-4,4s-1.9.5-2.5,1.3c-2.2.4-5,.3-7,1.3h0c-8.5,1.2-16.8-6.9-25.1-2.8-.2.2-.6,0-.8.3s-3.1.7-4.4,0c-2.8-1.3-5.4-2.2-7.5-4.5h.1a17.2,17.2,0,0,0-3.5-2.5c-.6,0-3.1-2.4-2.4-.7Zm-75.5,2.8c2.5,2.5,5.1,6.3,9,7s7.3,1.6,10.4,0c7.4-.6,15.1-1.3,22.6-1.2s9.3-1,12.9-7.5a9.1,9.1,0,0,0,.7-1.4h0c0-1-.5-.7-1-.3a4.2,4.2,0,0,0-1,1.7c0,.6-.5.7-.7,1.1a1.5,1.5,0,0,1-.4.8c-1.6.5-2.3,2.3-3.8,3-9.8,3-20.8.2-30.8,3.1-5.5,1.7-11.6-.5-15.5-4.5-1.4-1.4-2.6-3.5-3.9-4.8s-2.2-1.2-.7.2A30.1,30.1,0,0,1,80.9,243.4Zm157.7,15.3v4H3v-8.1H37.8c9.1-.6,20.1-1.1,33.3-1.7-2.9-3.4-8.2-2.8-12.1-1.9-6,1.2-11.8.4-17.7-.7-4.2-1.5-9.2-1.4-13-3.4a2,2,0,0,1-2.1-.4c-.9-.5-3.8-.8-4.2-1.6,11.5,1.4,23,6.2,35,4.6,3.9-.2,8-.7,11.9,0s3.3,3.2,2.8,5.1h5.7c1-.3,1.2-1.3,0-4.2h0c-.3-.5-.4-1-.7-1.4-5.8-6.8-20.7,1.3-29.8-1.9-3.5-.7-6.8-1.9-10.3-2.4-1.5,0-2.6-1.2-4-1.3s-8.3.7-6.1-1.3h0c1.3-1,4.9,0,6.6.3s3.4,0,4.8,1.1h0c1.8.4,3.9.5,5.6,1.3h0c.5.4,1.2-.1,1.7.4a13,13,0,0,1,2.1.4c3.4-.2,6.7,1.5,10.1.6s5.1-.7,7.6-1.1,5-1.3,7.5-.6c.8.7,1.9.3,2.7.9a10.8,10.8,0,0,1,3.5,9.2h55.4c.2-.9,1.1-1.5,1.3-2.5h0c2-3.9,5.1-8.1,10.1-8.7,3.2.1,6.7-.3,9.4,1.4h0c2.3,1.4,4.2,3.9,6.6,5.2s7.1,4,12.3,4.6h24.4c6.3-.3,12.2-.5,16.6,0h0c.3-2.2,4.6-9.6,6.9-8.5-2.9,1.8-4.6,4.8-5.9,7.7-.3.4,0,.6.5.8h6.6a4.5,4.5,0,0,1,.3-1.1h0c.5-1.8,1.7-5,4.1-4.8a.9.9,0,0,1-.3.5c-2.3.9-2.8,3.4-3.6,5.3h15.1v1.3A13.8,13.8,0,0,1,238.6,258.7Zm-81.7-4.1c-6.6-4.4-11.6-10.1-16.6,0Zm-22,0h4.8c5.1-11.8,11.4-4.5,19.1-.4.1.1.4.3.3.4h7.6c-3.9-2-7.2-4.9-10.6-7.7C146.9,240.9,139,245.4,134.9,254.6Zm-89.1-14c.2,0,.4.2.6.4h0c.6.5,1.1.4,1.7.6h0c.8.4,1.7.3,2.5.8h0c5.2,3.7,12.1.8,17-2.1.9-2.9-10,5.6-14.7,2.5h0c-.1-.2-.3-.2-.5-.1s-1.9-1.6-3-1.7-1.2.1-1.7-.4a5.9,5.9,0,0,0-1.4-.6C45.3,239.2,44.4,239.7,45.8,240.6Z" style="fill:#ce894a"/><path d="M127.9,239.4h80a9,9,0,0,1,4.6,1.2c8,4.5,18.1,9.4,26.1,13.8h-.1v1.3a13.8,13.8,0,0,1,.1,2.9v4H3v-8.1c7.4-4,15.5-8.6,23.4-12.3,0-.1.1-.1.1-.2h0a1.4,1.4,0,0,1,.9-.3l5.2-2.3h95.3m0-3H32.6l-1.2.2-4.9,2.2a4,4,0,0,0-1.8.8h-.1c-6.3,3-12.6,6.4-18.6,9.7l-4.4,2.4A3.2,3.2,0,0,0,0,254.6v8.1a2.9,2.9,0,0,0,3,3H238.6a3,3,0,0,0,3-3v-3.9a18.5,18.5,0,0,0-.1-3.3v-.2h0a3,3,0,0,0-1.5-3.3l-11.7-6.2c-4.9-2.5-9.9-5.1-14.3-7.6a12.1,12.1,0,0,0-6.1-1.6h-80Z" style="fill:#a8662f"/><rect x="32.5" y="144.8" width="3.2" height="95.64" rx="1.6" style="fill:#5d3524"/><rect x="205.9" y="144.8" width="3.2" height="95.64" rx="1.6" style="fill:#5d3524"/><rect x="19.7" y="142.8" width="3.7" height="109.55" rx="1.8" style="fill:#5d3524"/><rect x="218.3" y="142.8" width="3.7" height="109.55" rx="1.8" style="fill:#5d3524"/><path d="M3.3,135.6c6.2-4.3,13.6-7.4,20.2-11.3,3.3-1.4,6.2-4.4,9.9-4.4H207.7c2.8,0,1.8-.3,4.4,1.1l18.2,9.9,7.2,3.9c.3.2.8.2.8.7C160.4,136.7,81.2,136.6,3.3,135.6Z" style="fill:#d8a960"/><path d="M124.6,120.6c3.7,1.7,11.9,4.1,17,7.1,3.4,1.4,5.3,5.9,9.3,5.6a38.6,38.6,0,0,0,13.7-3.6c4.2-1.2,9.7-3.1,5.6-8.1-2.2-5.1,4,2.8,1.7,5.3s-5.4,2.7-7.7,4.1a32.4,32.4,0,0,1-9,2.8,28.8,28.8,0,0,1-5.9.3c-.3-.3-.7,0-1-.3h0c-.2-.2-.5-.1-.7-.4a2.6,2.6,0,0,1-1.1-.7h0c-1.8-2.8-5.3-3.9-7.9-5.6s-8-2.6-11.5-4.5C126.2,122,125.1,121.6,124.6,120.6Zm-63.2-.3,1,.6h0c3.9,1.4,9.4,2.2,13.1-.7.7-.3-.7-.2-1-.3-3.2,2.4-7.7,1.9-11.4.6C63.1,120,60.5,119.5,61.4,120.3Zm155.8,7.9h0c3.1,2,7.2,1.8,10.8,2.1,1.4-1.6-5.8-1.1-6.7-2s-1.7-.3-2.4-.7a16.4,16.4,0,0,1-3.5-1.8c-.9-.2-1.5-1.1-2.5-1.4a6.2,6.2,0,0,1-3.8-3.1c-.5-.8-2.3-2.4-1.1-.3C209.5,124.7,214.1,126,217.2,128.2Zm-69.3-6.3c1.6,1.6,3.8,3.1,5.9,2.1h0c3.8-2,2.6-7,1.1-2.4-2.6,2.7-3.6,1.5-6.3,0S144.4,119.2,147.9,121.9Zm-10.7-.7c2.6,2.5,6.3,3.1,9,5.6,4.2,3.8,10.6,3.4,15.4.5s-1.4-13.6,1-2.9c-2.2,2.8-6.2,3.2-9.5,4.2s-4.3-2.3-6.6-2.7c-2.5-2.3-6.2-2.9-9-5a.2.2,0,0,0-.1-.3c-1.4-.8-1.9-.9-.6.6Zm101.4,18.7v3.7H3v-8.1H26.6a7.5,7.5,0,0,1-2.8-1.8h0c-2.2-.6-4.3-1.8-6.5-1.9s-3.2-.5-4.4.1c-3.3.8-5.4-.7-.6-.6.5-.4,1.9-.3,2.8-.3h0c3.2-.1,8.2,1,10.7,2.8h0a11.9,11.9,0,0,0,4.8,1.7h14l5.3-.2v.2l.3-.2a27.5,27.5,0,0,1,4.1.2h.2c-1.8-.9,10.8-6.9-.6-10.4-5.9-.9-11.5,1.5-17.2,1.8h0c-3.5,1-7-.4-10.3-1.2a9.1,9.1,0,0,0-2.3-.3c-.3-.6-1.3.1-1.5-.5s1.4-.2,2.1-.1c11,3.7,19.1-1.6,29.6-.3,7.1,1,5.4,8.3.3,11h65.7c-10.9-2.1-21.4-6.8-32.7-4.5h0a86.2,86.2,0,0,1-22.1,2.6c-4.1.2-3.7-4.6-.2-5s8.6.6,13-.3h0a6.5,6.5,0,0,1,3.8-1.1,45.3,45.3,0,0,1,6.9-2.8c8.4-5.5,18.6-4.6,28.2-4.5a3.2,3.2,0,0,1,1.4.1c-.7.5-1.4,0-2.1.6s-1.5.3-2.1.6-2.6.9-3.9,1.4h.1c-2.5,1.5-5.4.8-8,1.4s-4,2.5-1.5,3.3a10.6,10.6,0,0,0,5-.1c10-3.1,19.6,2.1,27.6,7.8-3.3.6-7.8-5-11.6-5.4-6.6-5.9-21.9,3-22.8-4,1.2-4.4,10-2.4,13.7-4.7-18.2-1.4-28.2,11.2-47.1,9.4-1.8.3-1.7,1.6.2,1.6,14.5.2,29.4-6.6,43.4-.2,2.2,0,4.2.9,6.3,1.5h0c.8.3,1.8-.2,2.4.8h0c.3.3.8,0,1.1.4h-.1c.3.3.8,0,1.1.3s1.6.2.7,1h46c-2-1.3,3.7-2.9,4.5-3s1.6-.9,2.4-1.1a10.1,10.1,0,0,1,2.5-1.4c3-3.5,4.6-9.4,10.5-9.6,2.1.2,5.4-1.8,7.2-.5h-.1c.6.4,1.3-.1,1.8.3h0c1.1.6,2.6,0,3.4,1.2a21.7,21.7,0,0,1,11.2,6.9,91.6,91.6,0,0,0,13.6,5.9H224c.5.2.9-.1,1.4,0s1.7,1,.7,1.3h5.8c2.1-.2,3.7-.5,4.9,0h1.8v4.4Zm-29.5-4.4c-.9-.5-2.1-.6-2.7-1.4-7.8-3.3-18-8.5-23.7,1.1l-.4.3Zm14.2,0-.6-.4h0c-13.4-1.9-22.8-19.1-37.7-12.4-9.6,5.9-.3,7-17.4,12.8h14.6c-.8-1,2.6-3.6,3.3-4.5h0c4.4-4.7,11.7-3.3,16.6.1,1,.3,2.5.4,3.1,1.4s6.4,1.8,5,3ZM32.9,121.3c1.5,1.5,3.4,2.8,5.5,2.7,19.3-4.2,26.1,6.3,42.7-1.3,1.5,0,6.9-3.8,2.8-2.4s-10.5,4.9-16.6,4.6c-.3-.6-.9,0-1.5-.2s-2-.2-3-.3-4.3-.9-6.4-1.7h0c-6-3.5-12.8,1.8-19.1.3h0c-1.2-.6-2.6-.7-3.5-1.7s-.9-1-1.4-1.4S32.6,120.9,32.9,121.3ZM9.5,132Zm41.8-1.7c-5.6-4.9-14.9.7-21.5-.1-.7-.7-1.9.2-2.7-.4s-4.1,0-5.5-.5-2.2.2-2.8-.3-2.4-.5-3.7-.4c.2.7.2.7,1,.6,7.2.7,14.3,3.2,21.3.8,4.3-.3,10.1-1.6,13.5,1.3,1,1.9-1.2,3.3-1,4h.4C51.8,133.8,52.6,132.2,51.3,130.3ZM192,133.1c-.7-.2-3.7,2.1-2.4,2,4.1-1.7,5.1-2.9,9.5.1C204.1,135.5,193.5,131,192,133.1Z" style="fill:#ce894a"/><path d="M192.6,119.5a2.4,2.4,0,0,1,1.5.4h15.2c.9,0,.9.1,2.8,1.1l15.4,8.4a.9.9,0,0,1,.6.4l2.2,1.1,7.2,3.9c.3.2.7.2.8.7h.3v8.1H3v-8.1h.4l6.1-3.7c0-.1.2-.2.5-.3l5.1-2.7v-.2h.5l7.2-3.9.5-.2c.1-.1.2-.1.2-.2,3-1.2,5.6-3.8,8.7-4.3H156.1a.1.1,0,0,1,.1.1h6a.5.5,0,0,1,.4-.3c.2,0,.3.1.5.3H190a12.7,12.7,0,0,1,2.6-.4m0-3h0a13.6,13.6,0,0,0-3,.4H164.1a3.1,3.1,0,0,0-1.5-.3,3.2,3.2,0,0,0-1.4.3H32.4l-1.1.2a.1.1,0,0,0-.1.1,20,20,0,0,0-5.9,2.7l-2.9,1.6-.3.2a2.4,2.4,0,0,0-1.1.6l-6.2,3.3a3.1,3.1,0,0,0-2,1.1l-3.9,2a3.2,3.2,0,0,0-1.3.8c-2,1.1-3.6,2-5.1,3a3.1,3.1,0,0,0-2.5,3v8.1a3,3,0,0,0,3,3H238.6a3,3,0,0,0,3-3v-8.1a3,3,0,0,0-1.7-2.7,2.8,2.8,0,0,0-1-.6h-.1l-3-1.6-4.1-2.2-1.3-.7-.5-.3-1.2-.7-3.2-1.7-12-6.5-.9-.5a5.9,5.9,0,0,0-3.3-1H194.9a5.9,5.9,0,0,0-2.3-.4Z" style="fill:#a8662f"/><path d="M16.2,143c.4-1.4-.1-3.2.4-4.7h0a4.1,4.1,0,0,1,.7-1.1c-.1,0,.2-.3.3-.4h0c.3-.4.4-.8.8-1.1h-.1c.2-.3.4-.8.8-1s.2-.3.3-.4h0c.2-.4.3-.8.7-1a2.6,2.6,0,0,1,.7-1.1l.3-.3h0a4.1,4.1,0,0,1,.7-1.1h0a2.8,2.8,0,0,1,.8-1.1c-.2,0,.1-.3.2-.4h0c.3-.3.4-.7.8-1s.6-1.1,1-1.4a3.6,3.6,0,0,1,.7-1c-.1,0,.2-.3.3-.4h0c.3-.4.4-.9.7-1s.4-.8.8-1,.2-.4.3-.4h0c.2-.4.3-.8.7-1s.2-.4.3-.4h0c.3-.4.4-.9.7-1s.6-1.1,1.1-1.5h-.1c.3-.4.4-.8.8-1.1h0c.2-.4.3-.9.7-1.1l.3-.4a3.5,3.5,0,0,1,.8-1c-.2,0,.1-.3.2-.4h0c.3-.3.4-.7.8-1s.2-.3.3-.4h0c.2-.4.3-.8.7-1s.3-.8.7-1,.3-.4.3-.4.4-.8.8-1,.1-.3.2-.4h0c.3-.3.4-.7.8-1s.6-1.2,1-1.4a2,2,0,0,1,.8-1c-.2,0,.1-.4.2-.4h0c.3-.4.4-.8.8-1s.2-.4.3-.4h0c.2-.4.3-.9.7-1a2.6,2.6,0,0,1,.7-1.1l.3-.3h0c.3-.4.4-.8.8-1.1l.3-.3h0a4.1,4.1,0,0,1,.7-1.1c.3-.3.7-1.1,1-1.3a2.8,2.8,0,0,1,.8-1.1c-.2,0,.1-.3.3-.4h-.1c.3-.3.4-.7.8-1s.2-.3.3-.4h0a6.1,6.1,0,0,1,.7-1c.3-.3.7-1.1,1-1.4s.4-.8.8-1,.2-.3.3-.4h0a6.1,6.1,0,0,1,.7-1c-.1,0,.2-.3.3-.4h0a21.5,21.5,0,0,1,1.8-2.4c.2-.3.3-.8.7-1s.2-.3.3-.4h0a3.6,3.6,0,0,1,.7-1l.3-.4h0c.3-.4.4-.9.8-1s.3-.8.7-1,.2-.5.3-.4a2.6,2.6,0,0,1,.7-1c-.1,0,.2-.4.3-.4h0c.3-.3.4-.8.8-1s.2-.4.3-.4h0a3.6,3.6,0,0,1,.7-1h0a2.6,2.6,0,0,1,.7-1.1c-.1.1.3-.4.3-.3a2.8,2.8,0,0,1,.8-1.1c-.1.1.1-.3.3-.3h-.1c.3-.4.4-.8.8-1.1l.3-.3h0a4.1,4.1,0,0,1,.7-1.1h0a2.8,2.8,0,0,1,.8-1.1c-.2.1.2-.4.2-.3s.4-.8.8-1.1l.3-.4h0a4.1,4.1,0,0,1,.7-1.1l.3-.3h0c.3-.4.4-.8.8-1.1H67a2.3,2.3,0,0,1,.8-1.1c-.2.1.2-.4.3-.3a2.6,2.6,0,0,1,.7-1.1c-.1.1.3-.4.3-.3a2.8,2.8,0,0,1,.8-1.1c-.1,0,.1-.3.2-.4h0c.3-.3.4-.7.8-1s.2-.3.3-.4h0a6.1,6.1,0,0,1,.7-1c.3-.3.7-1.2,1-1.4s.4-.8.8-1,.2-.3.3-.4h0a6.1,6.1,0,0,1,.7-1c-.1,0,.2-.3.3-.4h0c.3-.3.4-.7.8-1s.2-.3.2-.4h0c.3-.4.4-.8.8-1s.3-.8.7-1,.3-.4.3-.4.4-.8.8-1,.1-.3.2-.4h0c.3-.3.4-.7.8-1s.2-.3.3-.4h0a6.1,6.1,0,0,1,.7-1c.3-.3.7-1.2,1-1.4s.4-.8.8-1,.2-.4.3-.4.3-.8.7-1,.2-.3.3-.4h0c.3-.3.4-.8.8-1s.1-.3.2-.4h0c.3-.3.4-.7.8-1h0c.2-.4.3-.8.7-1s.3-.5.3-.4a2,2,0,0,1,.8-1c-.2,0,.2-.4.2-.4s.4-.8.8-1,.2-.4.3-.4h0a3.6,3.6,0,0,1,.7-1c-.1,0,.2-.3.3-.4h0c.3-.3.4-.8.8-1a3.6,3.6,0,0,1,1-1.4c.2-.4.3-.8.7-1s.3-.5.3-.4a2,2,0,0,1,.8-1c-.1,0,.1-.4.3-.4h-.1c.3-.3.4-.8.8-1s.2-.4.3-.4h0a3.6,3.6,0,0,1,.7-1l.3-.4h0c.3-.4.4-.9.7-1s.4-.8.8-1,.2-.5.3-.4a2.6,2.6,0,0,1,.7-1c-.1,0,.2-.4.3-.4h0c.3-.4.4-.8.8-1s.2-.4.3-.4h0c.2-.3.3-.8.7-1s.2-.4.3-.4h0c.3-.3.4-.8.7-1l.3-.4c.6-.8,1.2-1.7,1.8-2.4a2,2,0,0,1,.8-1c0-.5.6-1.1,1-1.4s.2-.4.3-.4h0a3.6,3.6,0,0,1,.7-1c-.1,0,.2-.4.3-.4h0c.3-.3.4-.8.8-1s.2-.3.3-.4h-.1c.3-.3.5-.8.8-1a20.4,20.4,0,0,1,2.1-2.8c.2-.4.3-.8.7-1s.3-.5.3-.4.4-.8.8-1,.2-.4.2-.4.4-.8.8-1,.2-.4.3-.4-.2-2.2.3-2.8,0-1.2.4-1.3.1-1.1.4-1a2.7,2.7,0,0,1,.7-.8c-.1-.1.5-.3.6-.3h0a5,5,0,0,1,3.4,0c.8,1.8-.4,4.9.8,6.9h-.1c.3.2.7.6.7.7a7.9,7.9,0,0,1,1.4,1.8c0-.1.5.4.3.3a4.9,4.9,0,0,1,1.1,1.4h0c.2.2.7.5.6.7a5.2,5.2,0,0,1,1.5,1.8c.4.1.7.8,1.1,1.3h0l.3.4.3.3a7.6,7.6,0,0,1,1.1,1.4h0a6.1,6.1,0,0,1,1.4,1.7h0c.1.1.3.2.3.4s.5.4.3.4a5.8,5.8,0,0,1,1.4,1.7c.1-.1.5.4.3.4a2.8,2.8,0,0,1,1.1,1.3c.1-.1.5.4.3.4a5.5,5.5,0,0,1,1.2,1.4c0-.1.4.4.2.3a8.1,8.1,0,0,1,1.2,1.4h-.1a8.6,8.6,0,0,1,1.5,1.7h0l.3.4c0-.1.4.4.3.3a7.9,7.9,0,0,1,1.4,1.8h0a5.8,5.8,0,0,1,1.4,1.7c.4.2.7.9,1.1,1.4h0c.2.2.7.5.6.7s.5.7.8,1h0l.3.4c0-.1.4.4.3.4a4.7,4.7,0,0,1,1.1,1.3s.4.4.3.4a7.5,7.5,0,0,1,1.4,1.7c.4.2.7.9,1.1,1.4h0c.2.2.7.5.6.7a4.9,4.9,0,0,1,1.1,1.4c0-.1.4.4.3.4s.5.6.8,1h0l.3.4c0-.2.4.4.3.3s.5.7.8,1h0l.3.4c0-.1.4.4.3.3s.7,1,1.1,1.4h0c.1,0,.4.4.3.4a8.5,8.5,0,0,1,1.1,1.4h0c.1.1.4.4.3.4a7.6,7.6,0,0,1,1.1,1.4h0c.1,0,.4.4.3.3a13.4,13.4,0,0,1,1.1,1.4h0c.2.3.7.6.6.8a3.5,3.5,0,0,1,1.1,1.3c0-.1.4.4.3.4a5.3,5.3,0,0,1,1.1,1.4c0-.1.4.4.3.3a7.6,7.6,0,0,1,1.1,1.4c0-.1.4.4.2.4s.6.6.8,1h0c.2.2.7.5.6.7s.6.7.8,1h0c.2.3.7.6.6.7a3.6,3.6,0,0,1,1.1,1.4c.1-.1.5.4.3.4s.5.7.8,1h0c.1.1.3.2.3.4s.5.4.3.3.5.7.8,1h0c.1.1.3.2.3.4s.5.4.3.4.5.6.8,1h0c.1.1.3.2.3.4s.5.4.3.3.5.7.8,1h0l.3.4.3.3c.4.3.5.7.8,1h0l.3.4c0-.1.5.4.3.4s.5.7.8,1h0l.3.4.3.3c.4.2.5.7.8,1h0c.1.3.7.6.6.8s.5.6.8,1h-.1c.2.3.7.6.7.8s.5.7.7,1h0c.2.2.7.6.6.7s.6.7.8,1h0a8.6,8.6,0,0,1,1.4,1.8h0c.2.2.7.5.6.7s.5.7.8,1h0a8.6,8.6,0,0,1,1.4,1.8h0a8.6,8.6,0,0,1,1.4,1.8h0a6.1,6.1,0,0,1,1.4,1.7h0c.1.1.4.4.3.4a7.6,7.6,0,0,1,1.1,1.4h0c.1,0,.4.4.3.3s.6,1,1.1,1.4h-.1c.2.1.5.4.4.4a7.6,7.6,0,0,1,1.1,1.4c0-.1.4.4.2.3s.7,1,1.1,1.4h0c.2,0,.4.4.3.4a14.4,14.4,0,0,1,2.2,2.7h0c.1.1.3.2.3.4s.5.4.3.4.5.6.8,1h0c.2.3.7.6.6.8s.5.7.8,1h0c.2.2.7.6.6.7s.5.7.8,1h0c.1.3.7.6.6.8s.5.7.8,1h-.1a4.7,4.7,0,0,1,1.4,1.7h0a8.6,8.6,0,0,1,1.4,1.8h0l.3.3a7.6,7.6,0,0,1,1.1,1.4h0c.1,0,.4.4.3.4a5.3,5.3,0,0,1,1.1,1.4c0-.1.4.4.3.3s.7,1,1.1,1.4h0c.1,0,.4.4.3.4s.5.6.8,1h0c.1.2.6.5.6.7s.5.7.8,1h-.1c.2.3.7.6.6.7a2.4,2.4,0,0,1,.8,1h0c.2.3.7.6.6.8a3,3,0,0,1,1.1,1.4c.4.1.8.8,1.1,1.3h0c.1.1.4.4.3.4a7.6,7.6,0,0,1,1.1,1.4h0l.3.3c.4.6,1.2,1.2,1.4,1.8a17.1,17.1,0,0,1,1.1,1.4h0c.1.1.4.4.3.4s.5.7.7,1h0a.8.8,0,0,1,.4.4c0-.1.4.4.2.4s.5.6.8,1h0l.4.4c0-.2.4.4.2.3s.5.7.8,1h0c.2.3.7.6.6.7s.5.7.8,1h0c.2.3.7.7.6.8a13.3,13.3,0,0,1,.4,6.9h0c-.8,1-1.7.6-2.7.4h0c-.2-.2-.5-.1-.7-.4h.1c-.5-.6-.1-.8.3-1a20.6,20.6,0,0,0,0-4.3c-.4-.2-.5-.7-.8-1h.1a4.7,4.7,0,0,1-1.4-1.7h0c-.1-.1-.4-.4-.3-.4a7.6,7.6,0,0,1-1.1-1.4c-.1.1-.4-.4-.3-.3a7.6,7.6,0,0,1-1.1-1.4s-.4-.4-.3-.4-.5-.7-.8-1h0l-.3-.4-.3-.3c-.4-.3-.5-.7-.8-1h0a8.3,8.3,0,0,1-1.3-1.8h0c-.1,0-.4-.4-.3-.3s-1.2-1.1-1.4-1.8h0c-.5-.4-.7-1-1.1-1.4h0l-.3-.3c-.4-.3-.5-.7-.8-1h0c-.2-.3-.7-.6-.6-.8s-.5-.7-.8-1h0c-.1-.2-.7-.5-.6-.7-26.1-34.1-54.1-67.6-79.7-101.5,24.9,33.2,49.8,67,74,100.9-.9.8-2.1.5-3,.3s-.4-.4-.3-.4a3.5,3.5,0,0,1-.8-1l-.3-.4c-.4-.2-.5-.7-.7-1s-.5-.6-.8-1h0c0-.1-.3-.4-.2-.4s-.5-.7-.8-1h0c-.1-.1-.4-.4-.3-.4a6.1,6.1,0,0,1-.7-1h0c-.1-.1-.4-.4-.3-.4s-.5-.7-.8-1-.4-.5-.2-.4a2.8,2.8,0,0,1-.8-1.1c-.3-.1-.4-.6-.7-1h0l-.3-.3c-.4-.3-.5-.7-.8-1.1h.1c-.2-.1-.4-.5-.3-.4s-.5-.7-.8-1.1h0l-.3-.4a2.6,2.6,0,0,1-.7-1.1c-.4-.1-.5-.6-.7-1h0l-.3-.3c-.4-.3-.5-.7-.8-1.1h0l-.3-.3a4.1,4.1,0,0,1-.7-1.1c-.1.1-.4-.4-.3-.4s-.5-.6-.7-1-.5-.6-.8-1h0l-.3-.4a3.6,3.6,0,0,1-.7-1h0c-.1,0-.4-.4-.3-.4s-.5-.6-.7-1-.5-.4-.3-.4a2,2,0,0,1-.8-1h.1c-.4-.3-.5-.7-.8-1h0c-.1-.1-.4-.4-.3-.4a3.6,3.6,0,0,1-.7-1h0c-.1-.1-.4-.4-.3-.4s-.5-.7-.8-1-.4-.6-.7-1h0l-.3-.4a6.1,6.1,0,0,1-.7-1h0c-.1-.1-.4-.4-.3-.4a3,3,0,0,1-.7-1c-.1,0-.5-.5-.3-.4a2.8,2.8,0,0,1-.8-1.1h0a10.5,10.5,0,0,1-.7-1.1h0l-.3-.3a4.1,4.1,0,0,1-.7-1.1h0l-.3-.4c-.4-.3-.5-.7-.8-1.1s-.4-.6-.7-1h0c-.1,0-.4-.4-.3-.4a2.6,2.6,0,0,1-.7-1h0c-.1,0-.4-.4-.3-.4s-.5-.6-.8-1-.4-.4-.2-.4a2,2,0,0,1-.8-1h0c-.3-.3-.4-.7-.7-1h0c-.1-.1-.4-.4-.3-.4s-.5-.7-.7-1h0c-.5-.4-.6-.9-1.1-1.4s-.4-.6-.7-1h0c-.1-.1-.4-.4-.3-.4a6.1,6.1,0,0,1-.7-1h0c-.1-.1-.4-.4-.3-.4s-.5-.7-.8-1-.7-1.1-1-1.4a6.1,6.1,0,0,1-.7-1h0c-.1-.1-.4-.4-.3-.4s-.5-.7-.8-1.1h.1c-.2-.1-.5-.5-.3-.4a2.8,2.8,0,0,1-.8-1.1c-.3-.1-.4-.6-.7-1h0l-.3-.3a4.1,4.1,0,0,1-.7-1.1h0l-.3-.3c-.4-.3-.5-.7-.8-1.1s-.4-.4-.2-.3a2.1,2.1,0,0,1-.8-1.1h0a3.6,3.6,0,0,1-.7-1h0c-.1,0-.4-.4-.3-.4s-.5-.6-.8-1h.1c-.2,0-.5-.4-.3-.4a2,2,0,0,1-.8-1c-.3-.2-.4-.6-.7-1h0c-.1-.1-.4-.4-.3-.4a3,3,0,0,1-.7-1h0c-.2-.1-.4-.4-.3-.4s-.5-.7-.8-1-.4-.4-.2-.4-.6-.7-.8-1h0a6.1,6.1,0,0,1-.7-1h0c-.1-.1-.4-.4-.3-.4s-.5-.7-.8-1-.4-.5-.2-.4a2.8,2.8,0,0,1-.8-1.1c-.3-.1-.5-.6-.7-1h0c-.1,0-.4-.4-.3-.3s-.5-.7-.8-1.1h.1c-.2-.1-.4-.5-.3-.4a2.8,2.8,0,0,1-.8-1.1c0,.1-.4-.4-.3-.3a2.6,2.6,0,0,1-.7-1.1h0a4.1,4.1,0,0,1-.7-1.1h0c-.1,0-.4-.4-.3-.4s-.5-.6-.8-1h0c-.1,0-.4-.4-.2-.4a2,2,0,0,1-.8-1c-.4-.1-.5-.6-.7-1h0c-.1-.1-.4-.4-.3-.4s-.5-.7-.8-1h0c-.1,0-.4-.4-.2-.4s-.6-.7-.8-1-.4-.4-.3-.4a7.5,7.5,0,0,1-1.5-2h0c0-.1-.3-.4-.2-.4s-.5-.7-.8-1h0c-.1-.1-.4-.4-.3-.4s-.5-.7-.7-1-.5-.5-.3-.4-.5-.7-.8-1h.1c-.4-.3-.5-.7-.8-1h0c-.1-.1-.4-.4-.3-.4a4.1,4.1,0,0,1-.7-1.1c-.1.1-.4-.4-.3-.3a2.6,2.6,0,0,1-.7-1.1c-.4-.1-.5-.6-.8-1h0c-.1,0-.3-.4-.3-.3a10.5,10.5,0,0,1-.7-1.1h0l-.3-.3a2.6,2.6,0,0,1-.7-1.1c-.4-.2-.7-1-1-1.4s-.5-.7-.8-1h0c-.1,0-.4-.4-.3-.4a2.6,2.6,0,0,1-.7-1c-.4-.2-.5-.6-.7-1s-.4-.4-.3-.4-.5-.7-.8-1-.4-.5-.2-.4a2.3,2.3,0,0,1-.8-1.1h.1a2.8,2.8,0,0,1-.8-1.1h0a3.6,3.6,0,0,1-.7-1h0c-.1,0-.4-.4-.3-.4s-1.1,0-1.5.4l-.3.4h0c-.3.4-.4.8-.7,1a3.5,3.5,0,0,1-.8,1h.1a2.8,2.8,0,0,1-.8,1.1c.1-.1-.1.3-.2.3a3.1,3.1,0,0,1-.8,1.1h.1c-.3.4-.4.8-.8,1a2.6,2.6,0,0,1-.7,1.1c-.3.3-.6,1-1,1.4h0c-.3.4-.3.7-.7,1h0a6.1,6.1,0,0,1-.7,1h0a4.1,4.1,0,0,1-.7,1.1h0a4.1,4.1,0,0,1-.7,1.1c.1,0-.2.3-.3.4h0c-.3.4-.4.8-.7,1a2.8,2.8,0,0,1-.8,1.1l-.9,1.4h0a3.9,3.9,0,0,1-.8,1h.1l-.8,1h0a2.6,2.6,0,0,1-.7,1.1h0a2.6,2.6,0,0,1-.7,1.1c.1,0-.2.3-.3.4h0c-.2.4-.3.8-.7,1a4.1,4.1,0,0,1-.7,1.1h0a4.1,4.1,0,0,1-.7,1.1c.1,0-.2.3-.3.4h0c-.3.4-.3.7-.7,1h0a6.1,6.1,0,0,1-.7,1h0a2.8,2.8,0,0,1-.8,1.1h.1a2.8,2.8,0,0,1-.8,1.1c.1,0-.1.3-.3.4h.1l-.8,1h0a2.6,2.6,0,0,1-.7,1.1c-.3.3-.6,1-1,1.4h0c-.2.4-.3.8-.7,1a6.1,6.1,0,0,1-.7,1h0a4.1,4.1,0,0,1-.7,1.1l-.3.4c-.3.4-.3.7-.7,1h0c-.3.3-.4.7-.7,1h0a2.8,2.8,0,0,1-.8,1.1l-.9,1.4h0c-.3.4-.4.8-.8,1s-.3.8-.7,1h0a2.6,2.6,0,0,1-.7,1.1l-.3.3h0c-.2.5-.3.9-.7,1.1a7.2,7.2,0,0,1-1.4,2c.1,0-.2.4-.3.4h0c-.3.5-.3.8-.7,1.1h0a10.5,10.5,0,0,1-.7,1.1h0c-.2.3-.4.8-.8,1a3.3,3.3,0,0,1-.6,1,2.3,2.3,0,0,1-.8,1.1c.2-.1-.2.4-.3.4a3,3,0,0,1-.7,1h0c-.2.4-.3.8-.7,1s-.2.4-.3.4h0c-.2.4-.3.8-.7,1a4.1,4.1,0,0,1-.7,1.1h0a3.6,3.6,0,0,1-.7,1h0c-.2.4-.3.8-.8,1s-.2.5-.2.4a4.1,4.1,0,0,1-.7,1.1h0a2.8,2.8,0,0,1-.8,1.1c.1,0-.1.3-.2.4h0a3.9,3.9,0,0,1-.8,1h.1c-.3.4-.4.8-.8,1.1h0a2.6,2.6,0,0,1-.7,1.1l-.3.4h0c-.3.4-.3.7-.7,1h0a6.1,6.1,0,0,1-.7,1h0a4.1,4.1,0,0,1-.7,1.1h0a4.1,4.1,0,0,1-.7,1.1c.1,0-.2.3-.3.4h0c-.3.3-.4.7-.7,1h0a2,2,0,0,1-.8,1h.1a2.8,2.8,0,0,1-.8,1.1c.1-.1-.1.3-.3.4h0a4.1,4.1,0,0,1-.7,1.1h0a3,3,0,0,1-.7,1c.1,0-.2.3-.3.4h0c-.3.4-.3.7-.7,1h0a4.1,4.1,0,0,1-.7,1.1h0a4.1,4.1,0,0,1-.7,1.1h0a2,2,0,0,1-.8,1c.2,0-.1.4-.2.4h0a10.1,10.1,0,0,1-1.5,2.1l-.3.4h.1c-.3.4-.4.8-.8,1a6.1,6.1,0,0,1-.7,1h0c-.2.4-.3.8-.7,1h0a2.6,2.6,0,0,1-.7,1.1l-.3.3a4.1,4.1,0,0,1-.7,1.1,7.1,7.1,0,0,1-1,1.4h0c-.3.4-.4.8-.7,1s-.4.8-.8,1.1-.2.3-.3.3h0a2.1,2.1,0,0,1-.7,1.1h0a6.1,6.1,0,0,1-.7,1,7.1,7.1,0,0,1-1,1.4h0c-.3.4-.4.8-.7,1a4.1,4.1,0,0,1-.7,1.1c-.3.3-.6,1.1-1,1.4h0c-.3.3-.4.7-.8,1h.1c-.3.4-.4.8-.8,1.1s-.2.3-.3.3h0c-.2.4-.3.9-.7,1a4.1,4.1,0,0,1-.7,1.1h0c-.2.4-.3.8-.7,1s-.2.4-.3.4h0a10.1,10.1,0,0,1-1.5,2.1c.1-.1-.1.3-.3.3h.1a10.5,10.5,0,0,1-.8,1.1h0a3,3,0,0,1-.7,1c.1,0-.2.3-.3.4h0c-.1.1-.4.8-.4.6s-2.8.4-2-.6h0c.3-.5.3-.7.7-1h0a2.3,2.3,0,0,1,.7-1.1,6.1,6.1,0,0,1,.7-1h0a4.1,4.1,0,0,1,.7-1.1h0a4.1,4.1,0,0,1,.7-1.1h0a3.6,3.6,0,0,1,.7-1c8.4-14.1,19-27.2,28.1-40.8-9.7,13.6-19.3,27.7-29.9,40.7l-.3.4h0c-.3.3-.4.7-.8,1s-.7,1.2-1,1.4a8.4,8.4,0,0,1-1.8,2.4c.1,0-.2.3-.3.4h0c-.4.5-.6,1.2-1,1.4s-.4.8-.8,1.1-.2.4-.3.3a2.6,2.6,0,0,1-.7,1.1c.1-.1-.3.4-.3.3a2.8,2.8,0,0,1-.8,1.1c.2-.1-.2.4-.2.3s-.4.8-.8,1.1-.2.3-.3.3h0c-.7.8-.8,1.8-1.8,2.4s-.2.4-.3.4-.3.8-.7,1-.2.4-.3.4h0c-.3.3-.4.8-.8,1s-.2.4-.3.4a10.8,10.8,0,0,1-1.8,2.4c.2-.1-.2.4-.3.4a7.6,7.6,0,0,1-1.3,1.7h0c-.3.3-.4.8-.8,1s-.2.4-.3.4h0c-.2.3-.4.8-.8,1-2,6.1,2.3,4.6-.2,6.3h0C16.7,144.7,16.6,144.6,16.2,143Z" style="fill:#5d3524"/></g></g></svg>