<svg xmlns="http://www.w3.org/2000/svg" viewBox="0 0 108.8 130.8"><g style="isolation:isolate"><g id="Layer_2" data-name="Layer 2"><g id="Layer_1-2" data-name="Layer 1"><g id="toy_1" data-name="toy 1"><path d="M54.4,100.9a47.1,47.1,0,0,1-11.2-1.4,40.4,40.4,0,0,1-10.9-4.1A47.5,47.5,0,0,1,15.4,80.8,45.5,45.5,0,0,1,9.3,69.3,48.1,48.1,0,0,1,6.4,52.8a36.7,36.7,0,0,1,.5-6.9,42.8,42.8,0,0,1,4.4-14.1A46.8,46.8,0,0,1,27.2,13.2,45.1,45.1,0,0,1,42,6.4a46.4,46.4,0,0,1,24.9,0,45.1,45.1,0,0,1,14.8,6.8,48,48,0,0,1,16,18.7A45.7,45.7,0,0,1,102,46.2a42.3,42.3,0,0,1,.5,6.6,47.2,47.2,0,0,1-3,16.8,51.4,51.4,0,0,1-6.2,11.5A49.1,49.1,0,0,1,76.2,95.7a50.9,50.9,0,0,1-11.1,4A46.2,46.2,0,0,1,54.4,100.9Zm0-81.2a35.9,35.9,0,0,0-9.9,1.4,30.7,30.7,0,0,0-8.9,3.8A36.9,36.9,0,0,0,21.7,39a33.5,33.5,0,0,0-3.4,8.8A31.2,31.2,0,0,0,17,57.1a35.2,35.2,0,0,0,1.5,10.3A38.9,38.9,0,0,0,22.1,76,37.3,37.3,0,0,0,36,89.7a37.6,37.6,0,0,0,18.4,4.9,37.6,37.6,0,0,0,18-4.7A37.1,37.1,0,0,0,86.5,76.2a36.2,36.2,0,0,0,3.8-8.5,36.7,36.7,0,0,0,1.5-10.6A33.9,33.9,0,0,0,90.7,48a35.8,35.8,0,0,0-3.5-8.9A36.5,36.5,0,0,0,73.3,24.9a33.2,33.2,0,0,0-8.9-3.8A36.6,36.6,0,0,0,54.4,19.7Z" style="fill:#e05555"/><path d="M54.4,6.2A48.4,48.4,0,0,1,66.5,7.8a45.5,45.5,0,0,1,14.3,6.6A44.8,44.8,0,0,1,96.3,32.6a40.3,40.3,0,0,1,4.2,13.8,33.9,33.9,0,0,1,.5,6.4,46.6,46.6,0,0,1-2.9,16.3,49.5,49.5,0,0,1-6,11.1A47.1,47.1,0,0,1,75.5,94.3a39.1,39.1,0,0,1-10.7,3.9,44.2,44.2,0,0,1-10.4,1.2,47.7,47.7,0,0,1-10.8-1.3,37.5,37.5,0,0,1-10.6-4A46.7,46.7,0,0,1,16.6,79.9a42.3,42.3,0,0,1-5.9-11.1,47.2,47.2,0,0,1-2.8-16,36.7,36.7,0,0,1,.5-6.6,44.2,44.2,0,0,1,4.2-13.8,47.2,47.2,0,0,1,15.5-18A45.5,45.5,0,0,1,42.4,7.8a47,47,0,0,1,12-1.6m0,89.9a36.6,36.6,0,0,0,10-1.4,39.4,39.4,0,0,0,8.8-3.5A38.3,38.3,0,0,0,87.8,77a33.9,33.9,0,0,0,3.9-8.9,36.1,36.1,0,0,0,1.6-11,36.9,36.9,0,0,0-1.2-9.5,36.7,36.7,0,0,0-3.6-9.2A37.3,37.3,0,0,0,74.1,23.6a34.9,34.9,0,0,0-9.3-4,39.6,39.6,0,0,0-10.4-1.4,38.8,38.8,0,0,0-10.3,1.4,33.5,33.5,0,0,0-9.3,4A38.8,38.8,0,0,0,20.4,38.2a38.2,38.2,0,0,0-3.6,9.2,34.4,34.4,0,0,0-1.3,9.7,38.1,38.1,0,0,0,1.6,10.8,31.3,31.3,0,0,0,3.8,8.8A37.3,37.3,0,0,0,35.3,91,37.4,37.4,0,0,0,44,94.7a39.6,39.6,0,0,0,10.4,1.4m0-92.9A49.4,49.4,0,0,0,41.6,4.9,48.4,48.4,0,0,0,26.3,12,49.5,49.5,0,0,0,9.9,31.1,48.1,48.1,0,0,0,5.4,45.8a37.1,37.1,0,0,0-.5,7,48.7,48.7,0,0,0,3,17,46.9,46.9,0,0,0,6.3,11.9A49.7,49.7,0,0,0,31.6,96.8,45.6,45.6,0,0,0,42.9,101a49.6,49.6,0,0,0,11.5,1.4,45,45,0,0,0,11.1-1.3A44.6,44.6,0,0,0,76.9,97,49.9,49.9,0,0,0,94.5,82a51,51,0,0,0,6.4-11.9A47.4,47.4,0,0,0,104,52.8a34.4,34.4,0,0,0-.6-6.8A43.2,43.2,0,0,0,99,31.3,48,48,0,0,0,82.5,12,46.9,46.9,0,0,0,67.3,4.9,49.6,49.6,0,0,0,54.4,3.2Zm0,89.9a36.3,36.3,0,0,1-9.5-1.3,32.3,32.3,0,0,1-8.1-3.4h0A35.1,35.1,0,0,1,23.5,75.2h-.1A32.3,32.3,0,0,1,20,67.1a34.1,34.1,0,0,1-1.5-10,31.4,31.4,0,0,1,1.2-8.9h0A34.2,34.2,0,0,1,23,39.7,35.2,35.2,0,0,1,36.3,26.2h0a34.1,34.1,0,0,1,8.6-3.6h0a36.9,36.9,0,0,1,9.5-1.3,35.7,35.7,0,0,1,9.5,1.3H64a32,32,0,0,1,8.5,3.6A34.3,34.3,0,0,1,85.8,39.8a30.9,30.9,0,0,1,3.4,8.5h0a31,31,0,0,1,1.1,8.7,34,34,0,0,1-1.4,10.2,37,37,0,0,1-3.6,8.1h-.1A35.4,35.4,0,0,1,71.7,88.6a35,35,0,0,1-8.1,3.2h0a35.2,35.2,0,0,1-9.2,1.3Z" style="fill:#e57225"/><path d="M15,78.3a1.5,1.5,0,0,1-1.4-1l-2.5-5.9a2.4,2.4,0,0,1,0-1.2,1.8,1.8,0,0,1,.9-.8L93.3,36.1h.6a1.5,1.5,0,0,1,1.4,1l2.4,5.9a1.3,1.3,0,0,1,0,1.2,1.5,1.5,0,0,1-.8.8L15.5,78.2Z" style="fill:#ddab88"/><path d="M93.9,37.5l2.5,6L15,76.8l-2.5-6L93.9,37.5m0-3-1.1.2L11.4,68a3.1,3.1,0,0,0-1.6,1.6,2.7,2.7,0,0,0-.1,2.3l2.5,6A3,3,0,0,0,15,79.8l1.1-.3L97.5,46.3a3.1,3.1,0,0,0,1.6-1.6,3,3,0,0,0,0-2.3l-2.4-6a3,3,0,0,0-2.8-1.9Z" style="fill:#924f28"/><path d="M8.9,123.6a1.6,1.6,0,0,1-1.3-.8,1.4,1.4,0,0,1,.1-1.5L21,101.9l3.5-5.1,27-39.4a1.3,1.3,0,0,1,1.2-.6h3.2a1.3,1.3,0,0,1,1.3.8,1.4,1.4,0,0,1,0,1.5l-.2.2L29.1,100.1l-3.5,5.1L13.4,123a1.6,1.6,0,0,1-1.3.6Z" style="fill:#f9d4bb"/><path d="M55.9,58.3v.2l-1.6,2.3L27.9,99.3l-3.6,5L12.1,122.1H8.9l13.4-19.4,3.4-5L52.6,58.5v-.2h3.2m0-3H52.7a3.1,3.1,0,0,0-2.5,1.3v.2L23.2,96l-3.4,5L6.5,120.4a3,3,0,0,0,2.4,4.7h3.2a3.1,3.1,0,0,0,2.5-1.3L26.8,106l3.5-5L56.6,62.5l1.6-2.3.2-.3a2.7,2.7,0,0,0,.1-3,2.9,2.9,0,0,0-2.6-1.6Zm0,6Z" style="fill:#924f28"/><path d="M96.2,123.6A1.4,1.4,0,0,1,95,123L83,105.4l-3.5-5L51.3,59.3v-.2a1.6,1.6,0,0,1-.1-1.5,1.6,1.6,0,0,1,1.3-.8h3.2a1.6,1.6,0,0,1,1.3.6L84.1,97.1l3.4,5,13.1,19.2a1.2,1.2,0,0,1,.1,1.5,1.3,1.3,0,0,1-1.3.8Z" style="fill:#f9d4bb"/><path d="M55.6,58.3l.2.2,27,39.4,3.5,5.1,13.1,19.1H96.2l-12-17.5-3.5-5.1L54.2,60.8l-1.6-2.3-.2-.2h3.2m0-3H52.4a2.9,2.9,0,0,0-2.6,1.6,2.9,2.9,0,0,0,.1,3l.2.2,1.6,2.4,26.5,38.7,3.6,5.1,11.9,17.5a3.1,3.1,0,0,0,2.5,1.3h3.2a3.2,3.2,0,0,0,2.7-1.6,3.1,3.1,0,0,0-.2-3.1L88.8,101.3l-3.5-5.1L58.2,56.8v-.2a3,3,0,0,0-2.5-1.3Z" style="fill:#924f28"/><path d="M54.4,107.3a52.9,52.9,0,1,1,52.9-52.9A52.9,52.9,0,0,1,54.4,107.3Zm0-99.5a45.1,45.1,0,1,0,45.1,45A45.1,45.1,0,0,0,54.4,7.8Z" style="fill:#ffeb81"/><path d="M54.4,3A51.4,51.4,0,1,1,3,54.4,51.4,51.4,0,0,1,54.4,3m0,96.4A46.6,46.6,0,1,0,7.9,52.8,46.6,46.6,0,0,0,54.4,99.4M54.4,0a54.4,54.4,0,1,0,54.4,54.4A54.5,54.5,0,0,0,54.4,0Zm0,96.4A43.6,43.6,0,1,1,98,52.8,43.6,43.6,0,0,1,54.4,96.4Z" style="fill:#ffaa5a"/><path d="M54,4.2a51.4,51.4,0,0,1,47.8,70.3A51.4,51.4,0,1,0,6.6,35.6,51.4,51.4,0,0,1,54,4.2Z" style="fill:#def;mix-blend-mode:multiply"/><g style="opacity:0.30000000000000004;mix-blend-mode:multiply"><path d="M55.2,104.3A51.5,51.5,0,0,1,3.7,52.9a53.2,53.2,0,0,1,4-20,51.4,51.4,0,1,0,94.1,41.5A51.3,51.3,0,0,1,55.2,104.3Z" style="fill:#d0e0f0"/></g><path d="M84.2,106.1H84a1.4,1.4,0,0,1-1-.7l-3.5-5a1.5,1.5,0,0,1,.3-2.1,16.6,16.6,0,0,0,2.1-1.6,1.6,1.6,0,0,1,.9-.3H83a1.6,1.6,0,0,1,1.1.7l3.4,5a1.6,1.6,0,0,1-.3,2.1l-1,.8a3.9,3.9,0,0,0-1,.8A1.7,1.7,0,0,1,84.2,106.1Zm-59.9-.3-.8-.2-2.2-1.8a1.4,1.4,0,0,1-.3-1.9l3.5-5.1a1.3,1.3,0,0,1,1-.6h.2a1.7,1.7,0,0,1,1,.3l2,1.5a1.5,1.5,0,0,1,.4,2.1l-3.5,5.1A1.6,1.6,0,0,1,24.3,105.8Z" style="fill:#f9d4bb"/><path d="M25.7,97.7l2.2,1.6-3.6,5a15.6,15.6,0,0,1-2-1.6l3.4-5m57.1.2,3.5,5.1-2.1,1.6-3.5-5.1a16.6,16.6,0,0,0,2.1-1.6M25.7,94.7h-.4A3.2,3.2,0,0,0,23.2,96l-3.4,5a2.8,2.8,0,0,0,.5,3.9,13.3,13.3,0,0,0,2.4,1.9,2.5,2.5,0,0,0,1.6.5,2.9,2.9,0,0,0,2.5-1.3l3.5-5a3,3,0,0,0-.7-4.2l-2-1.5a3.1,3.1,0,0,0-1.9-.6Zm57.1.2a2.8,2.8,0,0,0-1.9.7l-2,1.5a3,3,0,0,0-.7,4.1l3.6,5.1a3.1,3.1,0,0,0,2,1.3h.4a2.6,2.6,0,0,0,1.9-.7l1-.7,1.1-.9a3.1,3.1,0,0,0,.6-4l-3.5-5.1a2.8,2.8,0,0,0-2-1.2Z" style="fill:#924f28"/><path d="M100.5,46.4a40.3,40.3,0,0,0-4.2-13.8A44.8,44.8,0,0,0,80.8,14.4,45.5,45.5,0,0,0,66.5,7.8,48.4,48.4,0,0,0,54.4,6.2a47,47,0,0,0-12,1.6,45.5,45.5,0,0,0-14.3,6.6,47.2,47.2,0,0,0-15.5,18A44.2,44.2,0,0,0,8.4,46.2a36.7,36.7,0,0,0-.5,6.6,47.2,47.2,0,0,0,2.8,16,42.3,42.3,0,0,0,5.9,11.1A46.7,46.7,0,0,0,33,94.1a37.5,37.5,0,0,0,10.6,4,47.7,47.7,0,0,0,10.8,1.3,44.2,44.2,0,0,0,10.4-1.2,39.1,39.1,0,0,0,10.7-3.9A47.1,47.1,0,0,0,92.1,80.2a49.5,49.5,0,0,0,6-11.1A46.6,46.6,0,0,0,101,52.8,33.9,33.9,0,0,0,100.5,46.4ZM87.8,77A38.3,38.3,0,0,1,73.2,91.2a39.4,39.4,0,0,1-8.8,3.5,36.6,36.6,0,0,1-10,1.4A39.6,39.6,0,0,1,44,94.7,37.4,37.4,0,0,1,35.3,91,37.3,37.3,0,0,1,20.9,76.7a31.3,31.3,0,0,1-3.8-8.8,38.1,38.1,0,0,1-1.6-10.8,34.4,34.4,0,0,1,1.3-9.7,38.2,38.2,0,0,1,3.6-9.2A38.8,38.8,0,0,1,34.8,23.6a33.5,33.5,0,0,1,9.3-4,38.8,38.8,0,0,1,10.3-1.4,39.6,39.6,0,0,1,10.4,1.4,34.9,34.9,0,0,1,9.3,4A37.3,37.3,0,0,1,88.5,38.4a36.7,36.7,0,0,1,3.6,9.2,36.9,36.9,0,0,1,1.2,9.5,36.1,36.1,0,0,1-1.6,11A33.9,33.9,0,0,1,87.8,77Z" style="fill:#ffaa5a"/><path d="M15.5,57.1a34.4,34.4,0,0,1,1.3-9.7L8.4,46.2a36.7,36.7,0,0,0-.5,6.6,47.2,47.2,0,0,0,2.8,16l6.4-.9A38.1,38.1,0,0,1,15.5,57.1ZM28.1,14.4a47.2,47.2,0,0,0-15.5,18l7.8,5.8A38.8,38.8,0,0,1,34.8,23.6ZM20.9,76.7l-4.3,3.2A46.7,46.7,0,0,0,33,94.1L35.3,91A37.3,37.3,0,0,1,20.9,76.7Zm43.5,18a36.6,36.6,0,0,1-10,1.4A39.6,39.6,0,0,1,44,94.7l-.4,3.4a47.7,47.7,0,0,0,10.8,1.3,44.2,44.2,0,0,0,10.4-1.2ZM54.4,6.2a47,47,0,0,0-12,1.6l1.7,11.8a38.8,38.8,0,0,1,10.3-1.4,39.6,39.6,0,0,1,10.4,1.4L66.5,7.8A48.4,48.4,0,0,0,54.4,6.2ZM87.8,77A38.3,38.3,0,0,1,73.2,91.2l2.3,3.1A47.1,47.1,0,0,0,92.1,80.2Zm-7-62.6-6.7,9.2A37.3,37.3,0,0,1,88.5,38.4l7.8-5.8A44.8,44.8,0,0,0,80.8,14.4Zm19.7,32-8.4,1.2a36.9,36.9,0,0,1,1.2,9.5,36.1,36.1,0,0,1-1.6,11l6.4,1A46.6,46.6,0,0,0,101,52.8,33.9,33.9,0,0,0,100.5,46.4Z" style="fill:#98d9e4"/><path d="M58.7,58.5a5.4,5.4,0,0,0-3.6-5.1l-6.9,2.8a5.9,5.9,0,0,0-.5,2.3,5.7,5.7,0,0,0,1.9,4.1l9-3.7C58.6,58.8,58.7,58.6,58.7,58.5Z" style="fill:#929da8;opacity:0.30000000000000004;mix-blend-mode:multiply"/><path d="M52.6,58.5l-3,4.3a5.4,5.4,0,0,0,2.1,1.6l2.5-3.6,1.6-2.3v-.2H52.7Z" style="fill:#a7b5c2;opacity:0.30000000000000004;mix-blend-mode:multiply"/><path d="M55.8,58.5l-.2-.2H52.4l.2.2,1.6,2.3,2.5,3.7A4.8,4.8,0,0,0,58.9,63Z" style="fill:#a7b5c2;opacity:0.30000000000000004;mix-blend-mode:multiply"/><path d="M54.4,64.1a7,7,0,1,1,7-7A7,7,0,0,1,54.4,64.1Z" style="fill:#f9d4bb"/><path d="M54.4,51.6a5.5,5.5,0,0,1,5.5,5.5,5.4,5.4,0,0,1-5.5,5.5,5.5,5.5,0,0,1-5.5-5.5,5.5,5.5,0,0,1,5.5-5.5m0-3a8.5,8.5,0,1,0,8.5,8.5,8.5,8.5,0,0,0-8.5-8.5Z" style="fill:#924f28"/><path d="M54.4,60.6A3.5,3.5,0,0,1,51,57.1a3.4,3.4,0,0,1,3.4-3.4,3.5,3.5,0,0,1,3.5,3.4A3.5,3.5,0,0,1,54.4,60.6Z" style="fill:#a7b5c2;opacity:0.30000000000000004;mix-blend-mode:multiply"/><path d="M54.4,58.6a1.5,1.5,0,0,1-1.5-1.5,1.5,1.5,0,0,1,1.5-1.5,1.5,1.5,0,0,1,1.5,1.5A1.4,1.4,0,0,1,54.4,58.6Z" style="fill:#a7b5c2;opacity:0.30000000000000004;mix-blend-mode:multiply"/><path d="M8.9,129.3a5.7,5.7,0,0,1-5.7-5.6A5.8,5.8,0,0,1,8.9,118H99.5a5.8,5.8,0,0,1,5.7,5.7,5.7,5.7,0,0,1-5.7,5.6Z" style="fill:#e05555"/><path d="M99.5,119.5a4.2,4.2,0,0,1,4.2,4.2,4.1,4.1,0,0,1-4.2,4.1H8.9a4.1,4.1,0,0,1-4.2-4.1,4.2,4.2,0,0,1,4.2-4.2H99.5m0-3H8.9a7.2,7.2,0,1,0,0,14.3H99.5a7.2,7.2,0,1,0,0-14.3Z" style="fill:#c2331d"/><g style="opacity:0.30000000000000004;mix-blend-mode:multiply"><path d="M18,43.7A30.4,30.4,0,0,0,15.3,51,35.1,35.1,0,0,0,14,60.8a37.9,37.9,0,0,0,1.5,10.7A39,39,0,0,0,33.2,94.2a40.6,40.6,0,0,0,10.4,3.9,47.7,47.7,0,0,0,10.8,1.3,34,34,0,0,0,4.5-.3,27,27,0,0,0,3.9-.8,35.9,35.9,0,0,0,8.8-3.5A38.6,38.6,0,0,0,86.3,80.6a35,35,0,0,0,3-6.5A15.9,15.9,0,0,1,87.8,77,38.3,38.3,0,0,1,73.2,91.2a39.4,39.4,0,0,1-8.8,3.5,36.6,36.6,0,0,1-10,1.4A39.6,39.6,0,0,1,44,94.7,37.4,37.4,0,0,1,35.3,91,37.3,37.3,0,0,1,20.9,76.7a31.3,31.3,0,0,1-3.8-8.8,38.1,38.1,0,0,1-1.6-10.8,34.4,34.4,0,0,1,1.3-9.7A22.9,22.9,0,0,1,18,43.7Z" style="fill:#b3a7c2"/><path d="M100.5,46.4a40.3,40.3,0,0,0-4.2-13.8A44.8,44.8,0,0,0,80.8,14.4,45.5,45.5,0,0,0,66.5,7.8,48.4,48.4,0,0,0,54.4,6.2a47,47,0,0,0-12,1.6,45.5,45.5,0,0,0-14.3,6.6,47.2,47.2,0,0,0-15.5,18c-.5,1-.8,2-1.2,3A46.2,46.2,0,0,1,26.5,18a43.2,43.2,0,0,1,14.3-6.5A44.2,44.2,0,0,1,52.9,9.9,44.2,44.2,0,0,1,65,11.5,44.1,44.1,0,0,1,79.3,18,46.4,46.4,0,0,1,94.8,36.2,42.5,42.5,0,0,1,98.9,50a33.9,33.9,0,0,1,.6,6.4,45.1,45.1,0,0,1-2.8,15.7c.5-1,1-2,1.4-3A46.6,46.6,0,0,0,101,52.8,33.9,33.9,0,0,0,100.5,46.4Z" style="fill:#b3a7c2"/></g></g></g></g></g></svg>