<svg xmlns="http://www.w3.org/2000/svg" viewBox="0 0 444 181.6"><g style="isolation:isolate"><g id="Layer_2" data-name="Layer 2"><g id="Layer_1-2" data-name="Layer 1"><path d="M442.3,86.3a15,15,0,0,0-.2-2,16.4,16.4,0,0,0-.4-2.5c-.4-2.1-1-4.8-1.6-6.9s-.6-1.8-1-2.8-.4-1.1-.7-1.7l-1.3-2.9-.3-.6-1-1.9-.4-.6a2.5,2.5,0,0,0-.4-.7h0a.3.3,0,0,1-.1-.2.1.1,0,0,0-.1-.1c0-.1-.3-.5-.6-1.1l-.6-.9-.4-.6-.4-.6-.6-.8-1-1.3a18.3,18.3,0,0,0-1.3-1.6l-.5-.6-.2-.2L427.7,54a13.7,13.7,0,0,0-1.7-1.7,70.8,70.8,0,0,0-7.9-6.6,58,58,0,0,0-5.9-3.6,77.2,77.2,0,0,0-10.1-4.6l-1.2-.4-2.6-.9-1.5-.4-2.6-.6-.8-.3-3.3-.7h-.3a26.3,26.3,0,0,0-3.9-.6L196.7,15.8l-1.3-.7-1.6-.8h-.2l-1.9-1-1.8-.8-2-.9-1.8-.7L184,10l-1.8-.7-2.3-.7h-.4l-1.3-.4-2.7-.8h-.4l-1-.2L170,6.1h-.1l-4.4-.8a97,97,0,0,0-13.1-.8l-27.6.3h-5.3l-2.1.2h-1.8l-3.5.5-1.2.2h-.4l-2.2.4-1.6.4h-.1l-2.1.5-1.7.5-2.2.6h-.4l-1.1.4-3.4,1.2-.9.3h-.3l-2.4,1-1.4.6-2.2,1.1-1.2.6-2.4,1.2h-.2l-.8.5a33.7,33.7,0,0,0-3.2,1.9l-.7.4h-.1l-2.4,1.6-.4.2c-3.1.9-6.1,1.9-9.1,3s-6.1,2.2-9,3.5-5.8,2.5-8.6,3.8-5.5,2.8-8,4.3A105.5,105.5,0,0,0,26.9,45.2c-1.7,1.4-3.4,2.9-4.9,4.4l-2.8,2.7c-2,2.1-3.5,3.9-4.3,4.9L13,59.6A62.8,62.8,0,0,0,6.5,70.5,52.3,52.3,0,0,0,2.2,84.2a33.9,33.9,0,0,0-.6,5c-.1,1.4-.1,2.9-.1,4.4a49,49,0,0,0,.7,6.7,52,52,0,0,0,2.7,10.1,36.8,36.8,0,0,0,1.5,3.5l.6,1.3a5.4,5.4,0,0,0,.6,1.1,53.3,53.3,0,0,0,5.1,8.2A92.3,92.3,0,0,0,19,132a64.2,64.2,0,0,0,5.9,5.7l.9.7,2.9,2.4,2.3,1.7a26.8,26.8,0,0,0,2.3,1.7l1.7,1.1c2.5,1.7,5.3,3.4,7.8,4.9l1.4.8,4.1,2.2,1.6.8,2.4,1.1a123.5,123.5,0,0,0,12.8,5.4l7.9,2.8,1.7.5h.5l1.4.4.4.2,1.7.4,1.7.5,2,.5,1.1.7.2.2.9.5,2.7,1.5.3.2.9.5,2.7,1.4.3.2,1,.4c.9.4,1.8.9,2.7,1.2l.3.2,1.1.4,2.8,1.1h.3l1.1.4a19.9,19.9,0,0,0,2.6.9l.6.2,1.1.4,3,.8h.3l1.1.2,4.5,1,4.4.7,1.8.3h1.1l1.5.2h8.8l27.4-.3h.2l3.4-.2h1l2.4-.2h1.3l2.3-.3h1.2l2.9-.5h.4l3.3-.7.9-.3h.3l2.1-.6,1.3-.3,2-.6h.2l1.1-.4,2.3-.8h.2l.8-.2,2.8-1.2.9-.4h.4l1.7-.8,1.4-.7,1.6-.8h.2l1.2-.6,1.7-1h.2l1-.6,184-21.9h.4l5.5-.8.9-.2,1-.2,1.9-.4c1.9-.5,4.2-1.1,7.4-2.2l3.3-1.3a38.2,38.2,0,0,0,5.1-2.3,56.2,56.2,0,0,0,7.9-4.6l3.7-2.8a53.9,53.9,0,0,0,11-12c.5-.8,1.1-1.6,1.5-2.4a7.5,7.5,0,0,0,.7-1.2l1.2-2.3a50.6,50.6,0,0,0,4.6-14.3c.1-.6.2-1.3.3-2.2a24,24,0,0,0,.3-2.8A47.1,47.1,0,0,0,442.3,86.3Z" style="fill:#f59393;stroke:#ff9592;stroke-miterlimit:10;stroke-width:3px"/><path d="M442.3,83.3a15,15,0,0,0-.2-2,16.4,16.4,0,0,0-.4-2.5c-.4-2.1-1-4.8-1.6-6.9s-.6-1.8-1-2.8-.4-1.1-.7-1.7l-1.3-2.9-.3-.6-1-1.9-.4-.6a2.5,2.5,0,0,0-.4-.7h0a.3.3,0,0,1-.1-.2.1.1,0,0,0-.1-.1c0-.1-.3-.5-.6-1.1l-.6-.9-.4-.6-.4-.6-.6-.8-1-1.3a18.3,18.3,0,0,0-1.3-1.6l-.5-.6-.2-.2L427.7,51a13.7,13.7,0,0,0-1.7-1.7,70.8,70.8,0,0,0-7.9-6.6,58,58,0,0,0-5.9-3.6,77.2,77.2,0,0,0-10.1-4.6l-1.2-.4-2.6-.9-1.5-.4-2.6-.6-.8-.3-3.3-.7h-.3a26.3,26.3,0,0,0-3.9-.6L196.7,12.8l-1.3-.7-1.6-.8h-.2l-1.9-1-1.8-.8-2-.9-1.8-.7L184,7l-1.8-.7-2.3-.7h-.4l-1.3-.4-2.7-.8h-.4l-1-.2L170,3.1h-.1l-4.4-.8a97,97,0,0,0-13.1-.8l-27.6.3h-5.3l-2.1.2h-1.8l-3.5.5-1.2.2h-.4l-2.2.4-1.6.4h-.1l-2.1.5-1.7.5-2.2.6h-.4l-1.1.4L95.7,7.3l-.9.3h-.3l-2.4,1-1.4.6-2.2,1.1-1.2.6-2.4,1.2h-.2l-.8.5a33.7,33.7,0,0,0-3.2,1.9l-.7.4h-.1l-2.4,1.6-.4.2c-3.1.9-6.1,1.9-9.1,3s-6.1,2.2-9,3.5-5.8,2.5-8.6,3.8-5.5,2.8-8,4.3A105.5,105.5,0,0,0,26.9,42.2c-1.7,1.4-3.4,2.9-4.9,4.4l-2.8,2.7c-2,2.1-3.5,3.9-4.3,4.9L13,56.6A62.8,62.8,0,0,0,6.5,67.5,52.3,52.3,0,0,0,2.2,81.2a33.9,33.9,0,0,0-.6,5c-.1,1.4-.1,2.9-.1,4.4a49,49,0,0,0,.7,6.7,52,52,0,0,0,2.7,10.1,36.8,36.8,0,0,0,1.5,3.5l.6,1.3a5.4,5.4,0,0,0,.6,1.1,53.3,53.3,0,0,0,5.1,8.2A92.3,92.3,0,0,0,19,129a64.2,64.2,0,0,0,5.9,5.7l.9.7,2.9,2.4,2.3,1.7a26.8,26.8,0,0,0,2.3,1.7l1.7,1.1c2.5,1.7,5.3,3.4,7.8,4.9l1.4.8,4.1,2.2,1.6.8,2.4,1.1a123.5,123.5,0,0,0,12.8,5.4l7.9,2.8,1.7.5h.5l1.4.4.4.2,1.7.4,1.7.5,2,.5,1.1.7.2.2.9.5,2.7,1.5.3.2.9.5,2.7,1.4.3.2,1,.4c.9.4,1.8.9,2.7,1.2l.3.2,1.1.4,2.8,1.1h.3l1.1.4a19.9,19.9,0,0,0,2.6.9l.6.2,1.1.4,3,.8h.3l1.1.2,4.5,1,4.4.7,1.8.3h1.1l1.5.2h8.8l27.4-.3h.2l3.4-.2h1l2.4-.2h1.3l2.3-.3h1.2l2.9-.5h.4l3.3-.7.9-.3h.3l2.1-.6,1.3-.3,2-.6h.2l1.1-.4,2.3-.8h.2l.8-.2,2.8-1.2.9-.4h.4l1.7-.8,1.4-.7,1.6-.8h.2l1.2-.6,1.7-1h.2l1-.6,184-21.9h.4l5.5-.8.9-.2,1-.2,1.9-.4c1.9-.5,4.2-1.1,7.4-2.2l3.3-1.3a38.2,38.2,0,0,0,5.1-2.3,56.2,56.2,0,0,0,7.9-4.6l3.7-2.8a53.9,53.9,0,0,0,11-12c.5-.8,1.1-1.6,1.5-2.4a7.5,7.5,0,0,0,.7-1.2l1.2-2.3a50.6,50.6,0,0,0,4.6-14.3c.1-.6.2-1.3.3-2.2a24,24,0,0,0,.3-2.8A47.1,47.1,0,0,0,442.3,83.3Z" style="fill:#ffe9ed;stroke:#ff9592;stroke-miterlimit:10;stroke-width:3px"/><path d="M387.6,42.9l-2.8-.3L193,24.5a76.7,76.7,0,0,0-25.3-9.6,71.7,71.7,0,0,0-15.2-1.4l-19.7.2h-6.9A73.5,73.5,0,0,0,82.4,28l-1.4.4A153,153,0,0,0,48.3,42C33.5,50.5,26.7,58.8,24.1,61.9a48.6,48.6,0,0,0-6.8,10.7A45.3,45.3,0,0,0,14,83.3a34.5,34.5,0,0,0,0,12,42.8,42.8,0,0,0,4.1,12.3,60.5,60.5,0,0,0,4.3,6.9,76.5,76.5,0,0,0,5.4,6.4,54.2,54.2,0,0,0,4.9,4.6,83.6,83.6,0,0,0,7.3,5.7c2.9,2,7,4.5,10.2,6.4s5,2.6,7.3,3.7a159.9,159.9,0,0,0,19.2,7.5c3,1,6.9,2.1,10.6,3a76.3,76.3,0,0,0,28.9,11.9,78.9,78.9,0,0,0,15.2,1.4h.1l27.4-.3a74.2,74.2,0,0,0,38.8-11.6L384.3,131h.1l5.1-.8,2.9-.7a60.1,60.1,0,0,0,9.3-2.9,51.3,51.3,0,0,0,13.5-7.9,40.5,40.5,0,0,0,14.8-25,39.2,39.2,0,0,0,.4-9.4,29.1,29.1,0,0,0-.4-3.1c-.4-1.8-1-4.2-1.5-6a39,39,0,0,0-2.3-5.7c-.4-.9-1.2-2.1-1.6-2.9s-1.5-2.5-3.9-5.4a50.4,50.4,0,0,0-14.2-11.6,55.8,55.8,0,0,0-8.4-3.8l-4.4-1.4ZM25.5,81.9h0l.4-.5Zm22.3,4.9a7.4,7.4,0,0,1,.4,1.4A7.4,7.4,0,0,0,47.8,86.8Zm-25,0h0l.3-.8h0Zm0,.3h0ZM140.1,15.2l-1.9-.4,1.9.4a77.1,77.1,0,0,1,33.1,15A77.1,77.1,0,0,0,140.1,15.2Zm62,91.5h0c0-.2.1-.4.1-.6h0C202.2,106.4,202.1,106.5,202.1,106.7Zm-1.4,5.6h0c.1-.2.1-.4.2-.5v.2C200.8,112.2,200.8,112.3,200.7,112.3Zm-1.7,5.4h0c0-.2.1-.3.1-.5h0C199.1,117.5,199,117.6,199,117.7Zm-4.7,10.1h0l.2-.3h-.1C194.4,127.7,194.4,127.7,194.3,127.8Zm.6-52.3c-.1-.3-.1-.6-.2-.9S194.8,75.2,194.9,75.5Zm-.8-3.1a5.6,5.6,0,0,0-.4-1.2A5.6,5.6,0,0,1,194.1,72.4Zm2.7,19.5a74.4,74.4,0,0,1-.9,10.5h0a74.4,74.4,0,0,0,.9-10.5,63.4,63.4,0,0,0-.4-7.6A63.4,63.4,0,0,1,196.8,91.9Zm-16.1,43.3-.4.5Zm-1,1.2-.5.5Zm-1.1,1.1c-.2.2-.3.4-.5.5S178.4,137.7,178.6,137.5Zm-1.1,1.2-.5.4Zm-1.2,1.2-.4.3Zm-1.4,1.3h0Zm-1.3,1.1-.5.4Zm-1.3,1-.4.4Zm-1.2,1-.5.4Zm-1.2,1-.6.4Zm-1.3.9-.6.4Zm-1.3.9-.6.4Zm-1.3.8-.6.4Zm-1.4.8-.6.4Zm-1.3.8-.7.4Zm-1.4.8-.6.3Zm-1.5.7-.5.3Zm-1.4.8-.6.2Zm-1.6.7-.4.2Zm-1.9.8h0Zm-1.4.6-.6.2Zm-1.5.5-.7.2Zm-1.5.5-.7.2Zm-1.6.5-.6.2Zm-1.5.4-.7.2Zm-1.5.4-.7.2Zm36.3-23.5-.5.6Zm-1,1.3c-.2.1-.3.3-.5.5S181.6,134.1,181.8,134Zm2.6-3.5h.1c0-.1.1-.1.1-.2l-.4.5C184.3,130.7,184.3,130.6,184.4,130.5Zm-.7,1-.4.5Zm1.8-2.6-.3.5Zm1.8-2.7-.4.5Zm-.9,1.3-.3.6Zm1.7-2.7-.2.3Zm1.8-3.4-.3.5ZM189,123l-.2.4Zm2.1-4.2h0v.1Zm-.5,1.1-.3.6Zm.6-1.5h0Zm.7-1.6-.3.7Zm.4-.9a1.4,1.4,0,0,1,.2-.6l-.3.7Zm.7-2.2a2.4,2.4,0,0,1-.2.8A2.4,2.4,0,0,0,193,113.7Zm.9-2.7a.3.3,0,0,0,.1-.2l-.2.5A.4.4,0,0,0,193.9,111Zm-.3,1.2-.3.7Zm.4-1.6Zm.5-1.6c-.1.2-.1.5-.2.7S194.4,109.2,194.5,109Zm.3-1.2c0-.2.1-.3.1-.5a4.3,4.3,0,0,1-.1.5Zm.5-2.1a6.4,6.4,0,0,0-.2.7A6.4,6.4,0,0,1,195.3,105.7Zm.3-1.7c0,.2-.1.4-.1.6S195.6,104.2,195.6,104Zm-57.1,53.7h0Zm6.4-1.1-.7.2Zm-1.6.3-.7.2Zm-1.6.3-.7.2Zm-1.6.3h0Zm-14.6.5h0Zm1.7.1h0Zm1.7.1h0Zm1.7,0h0Zm1.8,0h0Zm2.2-.1h0Zm1.6-.1h0Zm52.2-21.2Zm3.1-4.3v0Zm5.3-9.6.2-.4Zm3.2-8ZM184.8,41.3c0-.1-.1-.2-.1-.3S184.8,41.2,184.8,41.3Zm-2.3-2.7c-2.3-2.4-4.8-4.7-7.3-6.9C177.7,33.9,180.2,36.2,182.5,38.6Zm-2.8,7-.3-.3ZM126.6,20.7h0Zm-7.1.3h0Zm2.2-.2h0Zm2.7-.1h0Zm.3,137.3h0Zm21.9,5.3ZM127.8,13.9h0Zm10.4.9-1.9-.2Zm-2.5-.3-1.4-.2Zm-2.1-.3h0Zm-2-.1h0Zm-1.9-.2h0Zm9.3,8a71.6,71.6,0,0,1,22.1,8.3A71.6,71.6,0,0,0,139,21.9l-2.2-.4,2.2.4Zm28.8,12.7-.8-.7Zm-2.8-2a29,29,0,0,0-2.9-1.9A29,29,0,0,1,165,32.6ZM129.3,20.8h0Zm2.4.1,2.2.3Zm2.5.3,2,.3ZM37.5,77.7a13.4,13.4,0,0,1,4.1,1.5,13.4,13.4,0,0,0-4.1-1.5,13,13,0,0,0-5.2.1A13,13,0,0,1,37.5,77.7ZM26.4,80.9l.9-.8Zm-1,1h0l-.6.8h0Zm-1.2,1.7h0l.5-.8h0Zm-.5,1h0l.4-.8h0Zm-.1.2h0a3.6,3.6,0,0,0-.4.9h0A3.6,3.6,0,0,1,23.6,84.8Zm118.5,79.4-1.2.2Zm-8.9.8h0Zm7-.6-1,.2Zm-1.7.3h0Zm-1.8.1h0Zm-1.8.2h0Zm9.8-1.3,1.3-.3Zm-2.1.4,1.7-.3Z" style="fill:#fff"/><path d="M387.6,42.9l-2.8-.3L166.5,22c37.2,7.1,62.5,42.9,56.6,80a65.7,65.7,0,0,1-57.3,55l218.5-26h.1l5.1-.8,2.9-.7a60.1,60.1,0,0,0,9.3-2.9,51.3,51.3,0,0,0,13.5-7.9,40.5,40.5,0,0,0,14.8-25,39.2,39.2,0,0,0,.4-9.4,29.1,29.1,0,0,0-.4-3.1c-.4-1.8-1-4.2-1.5-6a39,39,0,0,0-2.3-5.7c-.4-.9-1.2-2.1-1.6-2.9s-1.5-2.5-3.9-5.4a50.4,50.4,0,0,0-14.2-11.6,55.8,55.8,0,0,0-8.4-3.8l-4.4-1.4Z" style="fill:#fea8b6;opacity:0.48"/><path d="M383.7,46,253,33.7l9.1,108.2,120.2-14.3h.8l4.4-.7,2.2-.4c2.1-.6,4.4-1.2,8.1-2.6a49.5,49.5,0,0,0,11.9-7,42.2,42.2,0,0,0,6.3-6.4h0a37.5,37.5,0,0,0,7.5-17.1,42.2,42.2,0,0,0,.3-8.9c-.1-1.2-.2-2.2-.3-2.9s-1-4.1-1.5-5.7a35.5,35.5,0,0,0-2.2-5.5l-1-1.8-.6-1h.1a50.1,50.1,0,0,0-3.6-5A48.6,48.6,0,0,0,401.8,52a60.2,60.2,0,0,0-7.4-3.3l-3.7-1.2-5.5-1.3Z" style="fill:#fb7f99"/><path d="M263.5,35.1a53.3,53.3,0,0,0-10.5-1l9.1,107.8,7-.8a52,52,0,0,0,39.3-42.6C313.1,69.1,293,40.7,263.5,35.1Z" style="fill:#fbabbc"/><ellipse cx="374.7" cy="62.9" rx="17.1" ry="9.1" style="fill:#b85858"/><path d="M373.6,56.3c1.7,1.1.6,3-2.4,4.3s-6.7,1.2-8.3.1-.6-3.1,2.4-4.3S372,55.2,373.6,56.3Z" style="fill:#cf6363"/><ellipse cx="334.2" cy="114.8" rx="18.3" ry="9.7" style="fill:#b85858"/><path d="M333.1,107.7c1.7,1.2.6,3.3-2.6,4.6s-7.2,1.3-8.9.1-.6-3.3,2.6-4.6S331.3,106.5,333.1,107.7Z" style="fill:#cf6363"/><ellipse cx="339.6" cy="84" rx="16" ry="8.5" style="fill:#b85858"/><ellipse cx="333.6" cy="79.9" rx="5.8" ry="2.6" transform="translate(-9 63.4) rotate(-10.7)" style="fill:#cf6363"/><ellipse cx="324.6" cy="56.3" rx="14.2" ry="7.6" style="fill:#b85858"/><path d="M323.8,50.8c1.3.9.4,2.5-2,3.5s-5.6,1-6.9.1-.5-2.6,2-3.6S322.4,49.8,323.8,50.8Z" style="fill:#cf6363"/><ellipse cx="392.9" cy="94.6" rx="16" ry="8.5" style="fill:#b85858"/><path d="M391.9,88.4c1.6,1,.6,2.8-2.2,4s-6.3,1.1-7.8.1-.5-2.9,2.3-4S390.4,87.3,391.9,88.4Z" style="fill:#cf6363"/><ellipse cx="253.6" cy="88" rx="53.4" ry="55" transform="translate(8.4 197.4) rotate(-43.2)" style="fill:#fb97ac"/><path d="M140.1,15.2c41.2,7.8,69.2,47.4,62.6,88.5s-45.3,67.9-86.5,60S47,116.3,53.6,75.3,98.9,7.3,140.1,15.2ZM139,21.9c-37.4-7.1-72.6,17.4-78.6,54.7s19.5,73.3,56.9,80.4,72.6-17.3,78.6-54.6S176.4,29.1,139,21.9" style="fill:#b8cc64;opacity:0.61"/><path d="M37.5,77.7A13.5,13.5,0,0,1,48.3,93a12.6,12.6,0,0,1-14.9,10.4A13.5,13.5,0,0,1,22.6,88.1,12.6,12.6,0,0,1,37.5,77.7Z" style="fill:#b8cc64"/><path d="M139,21.9a69.8,69.8,0,0,0-19.8-.9c-9.3,1-15.7,2.2-18,2.6-4,.8-11.5,2.2-20.2,4.8A153,153,0,0,0,48.3,42C33.5,50.5,26.7,58.8,24.1,61.9a48.6,48.6,0,0,0-6.8,10.7A45.3,45.3,0,0,0,14,83.3a34.5,34.5,0,0,0,0,12,42.8,42.8,0,0,0,4.1,12.3,60.5,60.5,0,0,0,4.3,6.9,76.5,76.5,0,0,0,5.4,6.4,54.2,54.2,0,0,0,4.9,4.6,83.6,83.6,0,0,0,7.3,5.7c2.9,2,7,4.5,10.2,6.4s5,2.6,7.3,3.7a159.9,159.9,0,0,0,19.2,7.5c4.4,1.4,10.5,3,15.1,4.2l8.1,1.7c4.8.9,11.4,1.8,16.4,2.5l8.7.8a66.2,66.2,0,0,0,70.9-55.6C201.9,65.1,176.4,29.1,139,21.9ZM48.3,93a12.6,12.6,0,0,1-14.9,10.4A13.5,13.5,0,0,1,22.6,88.1,12.6,12.6,0,0,1,37.5,77.7,13.5,13.5,0,0,1,48.3,93Z" style="fill:#c9d987;opacity:0.61"/><path d="M39.6,103a6.8,6.8,0,0,1-2-.2A13.5,13.5,0,0,1,26.8,87.6a12.6,12.6,0,0,1,8.7-10.1A12.6,12.6,0,0,0,22.6,88.1a13.5,13.5,0,0,0,10.8,15.3A12.9,12.9,0,0,0,39.6,103Z" style="fill:#f4ffc9"/><path d="M139,21.9a69.8,69.8,0,0,0-19.8-.9l-8.3,1,4-.4a67,67,0,0,1,19.9.9c37.4,7.1,62.9,43.1,56.9,80.4a66.1,66.1,0,0,1-54.8,55,66.1,66.1,0,0,0,59-55.5C201.9,65.1,176.4,29.1,139,21.9Z" style="fill:#f4ffc9;opacity:0.61"/><path d="M167.7,14.9a71.7,71.7,0,0,0-15.2-1.4l-27.6.3a78.9,78.9,0,0,1,15.2,1.4c41.2,7.8,69.2,47.4,62.6,88.5a72.8,72.8,0,0,1-71.3,61.4l27.5-.3c35.1-.5,65.6-25.5,71.3-61.5C236.8,62.3,208.8,22.7,167.7,14.9Z" style="fill:#b8cc64;opacity:0.8300000000000001"/><path d="M204.2,103.3c6.6-41-21.4-80.6-62.6-88.4a66.4,66.4,0,0,0-8.8-1.2h-7.9a78.9,78.9,0,0,1,15.2,1.4c41.2,7.8,69.2,47.4,62.6,88.5a72.5,72.5,0,0,1-57.2,59.8A72.6,72.6,0,0,0,204.2,103.3Z" style="fill:#f4ffc9;opacity:0.61"/><ellipse cx="69.7" cy="125.4" rx="13.4" ry="32.9" transform="translate(-70.8 154.5) rotate(-72.7)" style="fill:#f4ffc9;opacity:0.41000000000000003"/><ellipse cx="128.7" cy="145" rx="7.4" ry="18.1" transform="translate(-30.6 255.6) rotate(-83.2)" style="fill:#f4ffc9;opacity:0.41000000000000003"/><ellipse cx="272.6" cy="126.9" rx="50" ry="10.9" transform="translate(-10.3 24.9) rotate(-5.1)" style="fill:#fea8b6;opacity:0.55;mix-blend-mode:overlay"/><ellipse cx="368.3" cy="117.1" rx="29.4" ry="7.6" transform="translate(-8.6 31.4) rotate(-4.8)" style="fill:#fea8b6;opacity:0.55;mix-blend-mode:overlay"/></g></g></g></svg>