<svg xmlns="http://www.w3.org/2000/svg" viewBox="0 0 228.8 175.2"><g id="Layer_2" data-name="Layer 2"><g id="Layer_1-2" data-name="Layer 1"><path d="M219.6,35.1a5.6,5.6,0,0,0-1.6,1.8,22.1,22.1,0,0,1-2.4,2.6c-4.2,3.9-8.2,5.3-14.6,7.2s-14.5,3.2-21.9,4.5-11.5,1.8-19,2.5c-12.7,1.4-25.5,2.2-38.3,2.6-18,.5-36-.3-54-1.5a190.1,190.1,0,0,1-22.2-2.9,126.6,126.6,0,0,1-19.3-4.8,60.1,60.1,0,0,1-14-6.5l-.3-.2-1.3-1L9,37.9a2.3,2.3,0,0,0-1.2-.8,2.7,2.7,0,0,0-2.9.4c0,1.3.1,2.5.2,3.8,4.2,4,9.8,6.8,15.5,9a103.5,103.5,0,0,0,17.5,5.1c4.1.9,8.1,1.6,12.2,2.3.4,15.1,1.1,30.3,1.7,45.4.1,2.6.2,5.2.4,7.8v.2l-1.4.3a145.9,145.9,0,0,0-14.3,4.2c-6.9,2.4-13.9,5.2-19.5,9.7C7,133.8,5.3,144.2,15.9,153.2a56.4,56.4,0,0,0,12.5,7.6A85.7,85.7,0,0,0,47,167.4c5.3,1.3,10.5,2.7,15.9,3.5a44.2,44.2,0,0,0,7.3,1,3.7,3.7,0,0,0,.1,1.1,2,2,0,0,0,.6,1.5,3.1,3.1,0,0,0,2.8.6,2.1,2.1,0,0,0,1.4-1.5,7.1,7.1,0,0,0,.2-2.5v-.2h0a.6.6,0,0,0-.1-.4c-.2-2.8-.4-5.5-.4-8.3-.3-9.7-.3-19.4-.4-29.2-.1-6.8-.3-13.7-.5-20.5,10.8-1.4,21.6-2.2,33.8-2.6,8.7-.2,17.3-.4,26-.1l12.7.7c0,1,0,2,1,2.5a4,4,0,0,0,2.4.4,2,2,0,0,0,1.3-1.4c0-.3.1-.7.1-1a175.5,175.5,0,0,1,19.2,2.9c10.3,2.1,19.9,4.4,27.8,8.2,5.1,2.5,7.3,3.6,10.9,7.5l.2.3a17.7,17.7,0,0,1,1.6,2.2c.4.5.6,1.1,1.2,1.5h.2a3.7,3.7,0,0,0-.1,1.1,3.1,3.1,0,0,0,.7,1.8,2.9,2.9,0,0,0,3.2.4,2.4,2.4,0,0,0,1.2-1.7,2.4,2.4,0,0,0,1.4-2.1,28.3,28.3,0,0,1-.2-2.9c0-2.5-.1-5-.1-7.5-.1-9,.7-17.9,1.1-26.8.7-11.3,1.1-22.6,1.3-33.9.1-4.9.3-9.7.4-14.6a58.6,58.6,0,0,0,.1-5.9l-.2-.4c.4-.6.9-1.1,1.3-1.6l.2-.3a8.6,8.6,0,0,0,.1-1.6,16.2,16.2,0,0,0,.1-2.2A3,3,0,0,0,219.6,35.1ZM59.4,58.9l8.5.8c-.3,16.2.1,32.4.6,48.6-3.6.5-7.2,1-10.8,1.7,0-1.4-.1-2.8-.2-4.2-.1-4-.2-8.1-.4-12.1-.5-9.2-.9-18.3-1.1-27.4l-.3-6.7V58.4ZM66,166.5c-3.7-.6-7.3-1.3-11-2.2s-9.5-2.3-14.2-3.8-15.6-6.5-19.5-9.6-7.9-7.6-7.1-12.7,6.4-10.5,15.1-14.4a127.7,127.7,0,0,1,20.4-7l2.1-.5a1.8,1.8,0,0,0,1.3,1.9c1.7.3,3.2-.2,3.8-1.8l.3-1.3,9.6-1.6,1.8-.3c.3,12.2.6,24.4.6,36.7l.3,13.7c.1,1.1.1,2.2.2,3.4A25.4,25.4,0,0,1,66,166.5ZM214.7,87c-.3,5.3-.5,10.5-.8,15.8s-.8,13.4-.8,20.1c0,1.1,0,2.3.1,3.4s-.3-.3-.4-.4c-7.3-8.1-22.7-12.7-33.6-15.2a236,236,0,0,0-24.9-4.4c-7.8-.8-15.7-1.3-23.5-1.5-5.5-.1-11.1,0-16.6.1-12.4.2-24.7.8-37,2.2l-3.3.5c-.1-1.9-.1-3.7-.2-5.6-.2-7.5-.3-15.1-.4-22.6s-.1-12.9,0-19.3l18.9.9c10.7.4,21.3.5,32,.2,8.7-.4,17.4-.9,26-1.6L166.3,58c8.8-1,17.4-2.5,26-4.2s16.9-3.5,23.7-8.1C215.6,59.5,215.3,73.3,214.7,87Z" style="fill:#4a403d"/><path d="M3,28.2c.1,2,.2,6,.2,7.7A1.4,1.4,0,0,0,3.8,37C17.7,48.3,36.5,52,55,54.5a424.9,424.9,0,0,0,104.5,1.3c22.8-2.5,54.9-8.7,65.6-20.8a.9.9,0,0,0,.3-.6c.2-2.7.3-4.6.4-7.4a.2.2,0,0,0-.2-.2c-31.2,9-65.5,10.5-98.1,11.2-41.4.9-84,2-123.3-10.6A1,1,0,0,0,3,28.2Z" style="fill:#cc782f"/><ellipse cx="114.4" cy="27.9" rx="111.4" ry="24.9" transform="translate(-0.2 0.7) rotate(-0.4)" style="fill:#ffba61;stroke:#a8662f;stroke-miterlimit:10;stroke-width:3px"/><path d="M117.5,3c60,0,108.2,10.7,108.3,24.2v.9c-.1,2.2-.2,4-.4,6.3a.9.9,0,0,1-.3.6c-10.7,12.1-42.8,18.3-65.6,20.8a410,410,0,0,1-47,2.6A424,424,0,0,1,55,54.5C36.5,52,17.7,48.3,3.8,37a1.4,1.4,0,0,1-.6-1.1c0-1.4-.1-4.4-.1-6.5a1.9,1.9,0,0,1-.1-.8C2.9,14.9,52.7,3.4,114.2,3h3.3m0-3h-3.3C60.9.3,15.4,9,3.5,21.1A10.7,10.7,0,0,0,0,28.7a3.8,3.8,0,0,0,.1,1c0,2.1.1,4.9.1,6.2a4.9,4.9,0,0,0,1.7,3.4C16.9,51.6,37,55.1,54.6,57.5a428.8,428.8,0,0,0,57.9,3.9,438.2,438.2,0,0,0,47.3-2.6c16.1-1.8,54.8-7.4,67.6-21.8a4,4,0,0,0,1-2.4c.2-2.3.3-4,.4-6.2V27.2c0-8.3-11.5-15.1-34-20.1C174.2,2.5,146.8,0,117.5,0Z" style="fill:#75411a"/></g></g></svg>