<svg xmlns="http://www.w3.org/2000/svg" xmlns:xlink="http://www.w3.org/1999/xlink" viewBox="0 0 104.8 304.3"><defs><clipPath id="clip-path" transform="translate(0 0)"><path d="M104.8,65.1V63l-1.7.3c-1,.2-23.7,4.6-42.8,31.3L59,96.2l-.3.6a6.1,6.1,0,0,0-.7,1,4.3,4.3,0,0,1-.4.7,4.1,4.1,0,0,0-.5.9l-.4.7a3,3,0,0,0-.4.8,2.5,2.5,0,0,0-.4.7l-.3.8a2.5,2.5,0,0,0-.4.7l-.3.7c-.1.3-.1.5-.2.8h-.1A332.3,332.3,0,0,1,61,67.1a14.5,14.5,0,0,0,12.1,6.3h4.3l1.7-.4C95.3,68.4,93.7,8.5,93.4,1.7V0L91.6.3h-.5a1.8,1.8,0,0,0-2.4.3l-.6.5h0C81.6,3.3,67.2,9.3,53.5,25.5a2.7,2.7,0,0,1-.7.8l-.8,1-.9,1.3-.6.7-1.7,2.2a30.2,30.2,0,0,0-2.1,3.3l-.3.4a4.1,4.1,0,0,1-.7,1.1.4.4,0,0,1-.1.3c-.2.4-.5.8-.7,1.3h0a10.1,10.1,0,0,0-.7,1.5h0l-.6,1.4h0c-1.9,4.8-2,8.9-.4,12.4a6.7,6.7,0,0,0,.6,1.2l.3.4.5.7.4.5.4.5.6.6.3.3.7.6.3.2.8.6h.2l.9.6h.1a25.5,25.5,0,0,0,8.6,2.9,308.5,308.5,0,0,0-6.7,36.7A438.5,438.5,0,0,0,47.9,153l-2.6.2a237.7,237.7,0,0,0-9.1-46.5h1.2l.7-.2h.2A21.8,21.8,0,0,0,47,102h.1a3,3,0,0,0,.8-.8l.2-.2.7-.8.2-.2.5-.8.3-.4.4-.8.2-.3h.1a.8.8,0,0,1,.2-.5c0-.2.1-.3.1-.5a1.4,1.4,0,0,0,.2-.6l.2-.5a1.3,1.3,0,0,1,.1-.6.7.7,0,0,1,.1-.5v-.7a.9.9,0,0,0,.1-.5V91.8a1.5,1.5,0,0,0-.1-.7v-.6c0-.2-.1-.5-.1-.7s-.1-.4-.1-.6a6.4,6.4,0,0,0-.2-.7c0-.2-.1-.5-.1-.7a1.9,1.9,0,0,1-.2-.7,1.4,1.4,0,0,1-.2-.6l-.3-.8A6.4,6.4,0,0,1,50,85l-.4-.8c-.1-.2-.1-.4-.2-.6l-.5-.9-.3-.6a4.1,4.1,0,0,0-.5-.9l-.3-.6-.6-1-.3-.6a4.4,4.4,0,0,0-.8-1.1l-.2-.5-1.2-1.6C26.2,49.9,4.3,45,2.1,44.6H1.9L.2,44.3V46c-.1.9-.1,3-.2,5.7-.2,16.8.6,61.6,14.5,65.2h.1l1.6.4h4.3l1.8-.2h.1a14.3,14.3,0,0,0,10.4-6.4l.2-.2c0-.1.1-.2.1-.3a227.6,227.6,0,0,1,8.2,43c-6,.7-9.9,1.9-9.9,3.2s7,3.4,16.5,3.9h13l4.1-.3c7.7-.6,12.9-2,12.9-3.6s-4.7-2.7-11.7-3.4a211.5,211.5,0,0,1,5.6-24l.2.3c0,.1.1.1.1.2a14.6,14.6,0,0,0,13.5,6.5h3.1l1.7-.4C106.4,131.6,105,73.4,104.8,65.1Zm-42.6,88c-2.4-.2-4.9-.2-7.6-.2H51.9c0-9,.3-23,1.8-39.1v.3l.2.5a1.4,1.4,0,0,0,.2.6c0,.2.1.3.1.5a.8.8,0,0,1,.2.5h.1l.2.3c.1.3.3.5.4.8l.3.4.5.7c.1.2.2.2.2.3l.7.8.2.2.8.8h.1a22.2,22.2,0,0,0,8.8,4.2h2A259.1,259.1,0,0,0,62.2,153.1Z" style="fill:none"/></clipPath></defs><g id="Layer_2" data-name="Layer 2"><g id="Layer_1-2" data-name="Layer 1"><path d="M55,203.6h0a24.8,24.8,0,0,1-24.8-24.8V157.5a2.9,2.9,0,0,1,2.9-3H76.9a2.9,2.9,0,0,1,2.9,3v21.3A24.8,24.8,0,0,1,55,203.6Z" transform="translate(0 0)" style="fill:#e57225"/><path d="M79.8,178.8v-1.4c-18.6,16.2-37.7,8.9-49.6.9v.5A24.8,24.8,0,0,0,55,203.6h0A24.8,24.8,0,0,0,79.8,178.8Z" transform="translate(0 0)" style="fill:#060707;opacity:0.11"/><path d="M79.1,156.5c0,2.6-10.8,4.6-24.2,4.6s-24.2-2-24.2-4.6,10.8-4.6,24.2-4.6S79.1,154,79.1,156.5Z" transform="translate(0 0)" style="fill:#e57225"/><path d="M77.9,156.8c0,2.2-10.4,4-23.3,4s-23.2-1.8-23.2-4,10.4-3.9,23.2-3.9S77.9,154.6,77.9,156.8Z" transform="translate(0 0)" style="fill:#451926"/><path d="M54.9,151.9c9.7,0,18.1,1.1,21.9,2.6h.1a2.9,2.9,0,0,1,2.9,3v21.3h0a25.4,25.4,0,0,1-2.7,11.3,21.1,21.1,0,0,1-2.6,4l-1,1.2A25,25,0,0,1,60,203.1a27.3,27.3,0,0,1-5,.5,24.9,24.9,0,0,1-14.9-4.9l-2.7-2.4a24.6,24.6,0,0,1-7.2-17.5V157.5a3,3,0,0,1,2.8-3c3.8-1.5,12.2-2.6,21.9-2.6m0-3c-9.5,0-18.1,1-22.6,2.7a5.9,5.9,0,0,0-5.1,5.9v21.3a27.6,27.6,0,0,0,8.1,19.6,36.5,36.5,0,0,0,3,2.7A27.9,27.9,0,0,0,55,206.6a26,26,0,0,0,5.6-.6,27.3,27.3,0,0,0,15.1-8.7,6.9,6.9,0,0,0,1.1-1.3,22.7,22.7,0,0,0,3-4.6,27.5,27.5,0,0,0,3-12.6V157.5a5.8,5.8,0,0,0-5.3-5.9c-4.6-1.7-13.1-2.7-22.6-2.7Z" transform="translate(0 0)" style="fill:#6a3417"/><path d="M36,168.8a1.8,1.8,0,0,1-1.8,1.8,1.8,1.8,0,1,1,0-3.6A1.8,1.8,0,0,1,36,168.8Z" transform="translate(0 0)" style="fill:#e4e4e4"/><path d="M56.9,168.8a1.8,1.8,0,0,1-1.9,1.8,1.8,1.8,0,0,1,0-3.6A1.8,1.8,0,0,1,56.9,168.8Z" transform="translate(0 0)" style="fill:#e4e4e4"/><path d="M36,187a1.8,1.8,0,0,1-1.8,1.8,1.8,1.8,0,0,1-1.9-1.8,1.9,1.9,0,1,1,3.7,0Z" transform="translate(0 0)" style="fill:#e4e4e4"/><path d="M77.7,187a1.8,1.8,0,0,1-1.9,1.8A1.8,1.8,0,0,1,74,187a1.9,1.9,0,1,1,3.7,0Z" transform="translate(0 0)" style="fill:#e4e4e4"/><path d="M56.9,187a1.8,1.8,0,0,1-1.9,1.8,1.8,1.8,0,0,1-1.8-1.8,1.9,1.9,0,1,1,3.7,0Z" transform="translate(0 0)" style="fill:#e4e4e4"/><path d="M77.7,168.8a1.8,1.8,0,0,1-1.9,1.8,1.8,1.8,0,0,1,0-3.6A1.8,1.8,0,0,1,77.7,168.8Z" transform="translate(0 0)" style="fill:#e4e4e4"/><path d="M45.1,177.9a1.9,1.9,0,0,1-1.9,1.8,1.8,1.8,0,0,1-1.8-1.8,1.8,1.8,0,0,1,1.8-1.9A1.9,1.9,0,0,1,45.1,177.9Z" transform="translate(0 0)" style="fill:#e4e4e4"/><path d="M67.8,177.9a1.8,1.8,0,0,1-1.8,1.8,1.8,1.8,0,0,1-1.9-1.8A1.8,1.8,0,0,1,66,176,1.8,1.8,0,0,1,67.8,177.9Z" transform="translate(0 0)" style="fill:#e4e4e4"/><path d="M45.1,194.7a1.9,1.9,0,0,1-1.9,1.9,1.8,1.8,0,0,1-1.8-1.9,1.8,1.8,0,0,1,1.8-1.8A1.9,1.9,0,0,1,45.1,194.7Z" transform="translate(0 0)" style="fill:#e4e4e4"/><path d="M67.8,194.7a1.8,1.8,0,0,1-1.8,1.9,1.8,1.8,0,0,1-1.9-1.9,1.8,1.8,0,0,1,1.9-1.8A1.8,1.8,0,0,1,67.8,194.7Z" transform="translate(0 0)" style="fill:#e4e4e4"/><g style="clip-path:url(#clip-path)"><path d="M103.3,64.8S80.4,69,61.4,95.5c-17.6,24.5,5.7,28.4,9.3,28.8a230.4,230.4,0,0,0-9.8,50,.5.5,0,0,0,.5.5h0a.5.5,0,0,0,.5-.4,231.9,231.9,0,0,1,9.5-49.1c1.1,3,5.6,12.3,18.6,8.9C105.5,130.2,103.3,64.8,103.3,64.8Z" transform="translate(0 0)" style="fill:none;stroke:#2e5b1d;stroke-miterlimit:10;stroke-width:3px"/><path d="M60.4,63.1c1.5,3.6,6.3,11.2,18.3,8.1,15.5-4,13.2-69.4,13.2-69.4l-1.3.3a.8.8,0,0,0-.2-.4.5.5,0,0,0-.7,0l-.8.9c-6.9,2.1-24,9.1-38.8,29.8-18.9,26.3,9.3,28.9,9.7,28.9a291.5,291.5,0,0,0-7.1,38,433.8,433.8,0,0,0-3.2,64.5.5.5,0,0,0,.5.5h0a.6.6,0,0,0,.5-.6C50.5,163,48.5,110.6,60.4,63.1Z" transform="translate(0 0)" style="fill:none;stroke:#2e5b1d;stroke-miterlimit:10;stroke-width:3px"/><path d="M43.5,76.7C24.5,50.2,1.7,46,1.7,46s-2.3,65.4,13.2,69.4c13,3.4,17.5-5.9,18.6-8.9A233,233,0,0,1,43,155.6a.5.5,0,0,0,.5.5h0a.6.6,0,0,0,.5-.6,230.4,230.4,0,0,0-9.8-50C37.8,105.1,61.1,101.2,43.5,76.7Z" transform="translate(0 0)" style="fill:none;stroke:#2e5b1d;stroke-miterlimit:10;stroke-width:3px"/><path d="M103.3,64.8S80.4,69,61.4,95.5s9.7,28.8,9.7,28.8,3.4,13.9,18.9,9.9S103.3,64.8,103.3,64.8Z" transform="translate(0 0)" style="fill:#507125;stroke:#2e5b1d;stroke-miterlimit:10;stroke-width:3px"/><path d="M73.7,120.8s4.4,8.5,11.3,7.8c18.4-1.9,14-58.3,14-58.3S77.4,85.1,67.9,98.6,66.2,121.2,73.7,120.8Z" transform="translate(0 0)" style="fill:#7e9e6c"/><path d="M101.2,67.8C65,108.6,61.4,174.3,61.4,174.3" transform="translate(0 0)" style="fill:none;stroke:#537342;stroke-linecap:round;stroke-linejoin:round"/><path d="M73.7,118.4s8,4.2,14,0-14.6,0-14.6,0" transform="translate(0 0)" style="fill:#507125"/><path d="M76.1,110.2s15.2,2.6,16.6-2.3S76.1,110.2,76.1,110.2Z" transform="translate(0 0)" style="fill:#507125"/><path d="M79.1,102.9s14.7-1.7,14.9-5.8S79.1,102.9,79.1,102.9Z" transform="translate(0 0)" style="fill:#507125"/><path d="M86.4,90.7s10-.8,9.8-4.1S86.4,90.7,86.4,90.7Z" transform="translate(0 0)" style="fill:#507125"/><path d="M73.1,116.6s-9.8-6.2-6.3-9.3S73.1,116.6,73.1,116.6Z" transform="translate(0 0)" style="fill:#507125"/><path d="M76.1,108.5s-7.6-12-3.8-12.4S76.1,108.5,76.1,108.5Z" transform="translate(0 0)" style="fill:#507125"/><path d="M80.7,99.5s-5-12.3-1.6-11.3S80.7,99.5,80.7,99.5Z" transform="translate(0 0)" style="fill:#507125"/><path d="M84.4,90.7s.7-7.7,2-7.7S84.4,90.7,84.4,90.7Z" transform="translate(0 0)" style="fill:#507125"/><path d="M91.9,1.8S69,5.9,50.1,32.4s9.7,28.9,9.7,28.9,3.4,13.9,18.9,9.9S91.9,1.8,91.9,1.8Z" transform="translate(0 0)" style="fill:#507125;stroke:#2e5b1d;stroke-miterlimit:10;stroke-width:3px"/><path d="M62.3,57.8s4.4,8.4,11.4,7.7c18.3-1.8,14-58.2,14-58.2S66.1,22.1,56.5,35.5,54.9,58.1,62.3,57.8Z" transform="translate(0 0)" style="fill:#7e9e6c"/><path d="M90.1,2.1C45.1,46,50,163.8,50,163.8" transform="translate(0 0)" style="fill:none;stroke:#537342;stroke-linecap:round;stroke-linejoin:round"/><path d="M62.3,55.4s8,4.1,14.1,0-14.7,0-14.7,0" transform="translate(0 0)" style="fill:#507125"/><path d="M64.7,47.2s15.2,2.6,16.7-2.4S64.7,47.2,64.7,47.2Z" transform="translate(0 0)" style="fill:#507125"/><path d="M67.8,39.9s14.7-1.7,14.9-5.8S67.8,39.9,67.8,39.9Z" transform="translate(0 0)" style="fill:#507125"/><path d="M75.1,27.7s10-.9,9.8-4.2S75.1,27.7,75.1,27.7Z" transform="translate(0 0)" style="fill:#507125"/><path d="M61.7,53.5s-9.7-6.2-6.2-9.3S61.7,53.5,61.7,53.5Z" transform="translate(0 0)" style="fill:#507125"/><path d="M64.7,45.5s-7.5-12-3.7-12.4S64.7,45.5,64.7,45.5Z" transform="translate(0 0)" style="fill:#507125"/><path d="M69.4,36.5s-5-12.4-1.6-11.3S69.4,36.5,69.4,36.5Z" transform="translate(0 0)" style="fill:#507125"/><path d="M73.1,27.7s.6-7.7,2-7.7S73.1,27.7,73.1,27.7Z" transform="translate(0 0)" style="fill:#507125"/><path d="M1.7,46s22.8,4.2,41.8,30.7-9.7,28.9-9.7,28.9-3.4,13.8-18.9,9.8S1.7,46,1.7,46Z" transform="translate(0 0)" style="fill:#507125;stroke:#2e5b1d;stroke-miterlimit:10;stroke-width:3px"/><path d="M31.2,102s-4.3,8.5-11.3,7.8c-18.4-1.9-14-58.3-14-58.3S27.5,66.4,37,79.8,38.7,102.4,31.2,102Z" transform="translate(0 0)" style="fill:#7e9e6c"/><path d="M3.7,49C39.9,89.8,43.5,155.6,43.5,155.6" transform="translate(0 0)" style="fill:none;stroke:#537342;stroke-linecap:round;stroke-linejoin:round"/><path d="M31.2,99.6s-8,4.2-14,0,14.7,0,14.7,0" transform="translate(0 0)" style="fill:#507125"/><path d="M28.8,91.5s-15.1,2.6-16.6-2.4S28.8,91.5,28.8,91.5Z" transform="translate(0 0)" style="fill:#507125"/><path d="M25.8,84.2s-14.7-1.7-14.9-5.9S25.8,84.2,25.8,84.2Z" transform="translate(0 0)" style="fill:#507125"/><path d="M18.5,71.9s-10-.8-9.8-4.1S18.5,71.9,18.5,71.9Z" transform="translate(0 0)" style="fill:#507125"/><path d="M31.9,97.8s9.7-6.2,6.2-9.3S31.9,97.8,31.9,97.8Z" transform="translate(0 0)" style="fill:#507125"/><path d="M28.8,89.7s7.6-11.9,3.8-12.4S28.8,89.7,28.8,89.7Z" transform="translate(0 0)" style="fill:#507125"/><path d="M24.2,80.7s5-12.3,1.6-11.3S24.2,80.7,24.2,80.7Z" transform="translate(0 0)" style="fill:#507125"/><path d="M20.5,71.9s-.7-7.6-2-7.6S20.5,71.9,20.5,71.9Z" transform="translate(0 0)" style="fill:#507125"/></g><path d="M82.7,163.4c-.1,3.5-12.8,5.4-25.9,5.5H53.9c-13.1-.1-25.8-2-25.9-5.5" transform="translate(0 0)" style="fill:none;stroke:#131313;stroke-linecap:round;stroke-linejoin:round;stroke-width:3px"/><path d="M53.9,168.9c0,1.4-20.7,103-29.3,132.8a1.5,1.5,0,0,1-2.9-.5L28,163.4" transform="translate(0 0)" style="fill:none;stroke:#131313;stroke-linecap:round;stroke-linejoin:round;stroke-width:3px"/><path d="M56.9,168.9c0,1.4,20.7,103,29.4,132.8a1.5,1.5,0,0,0,2.9-.5L82.8,163.4" transform="translate(0 0)" style="fill:none;stroke:#131313;stroke-linecap:round;stroke-linejoin:round;stroke-width:3px"/></g></g></svg>