<svg xmlns="http://www.w3.org/2000/svg" viewBox="0 0 101.4 210.1"><g id="Layer_2" data-name="Layer 2"><g id="Layer_1-2" data-name="Layer 1"><g id="plant"><path d="M58.9,148.5a1.6,1.6,0,0,1-1.3-.6,1.9,1.9,0,0,1-.5-1.4c1.4-26-16.9-106.4-42.3-142a2.3,2.3,0,0,1-.4-1.4,2,2,0,0,1,.8-1.2,1.5,1.5,0,0,1,1.1-.4,1.9,1.9,0,0,1,1.6.8C33.3,23.9,44.3,58.7,49.5,77.5c7.7,28,12.2,55.2,11.4,69.2a1.9,1.9,0,0,1-1.9,1.8Z" style="fill:#bfbf8a"/><path d="M16.3,3a.5.5,0,0,1,.4.2C32,24.6,42.9,59.2,48.1,77.9c7.6,27.9,12.1,54.8,11.3,68.7a.4.4,0,0,1-.4.4h0a.4.4,0,0,1-.4-.4C60,120.4,41.6,39.5,16,3.7c-.1-.2-.1-.5.1-.6h.2m0-3a3.6,3.6,0,0,0-2,.6A3.6,3.6,0,0,0,13,2.9a2.8,2.8,0,0,0,.6,2.5C28.7,26.6,39.5,61,44.5,79.5c7.4,26.9,11.8,53.8,11.1,66.9a3.4,3.4,0,0,0,.9,2.5,3,3,0,0,0,2.3,1.1H59a3.4,3.4,0,0,0,3.4-3.2c.8-14.2-3.7-41.5-11.4-69.7C45.8,58.2,34.7,23.2,19.1,1.4A3.4,3.4,0,0,0,16.3,0Z" style="fill:#6c6120"/><path d="M52,146.8a1.9,1.9,0,0,1-2-1.9A146.9,146.9,0,0,1,65,80.4c7.7-15.5,18-29.9,31.6-43.9A2.4,2.4,0,0,1,98,36a2.1,2.1,0,0,1,1.3.5,1.8,1.8,0,0,1,.6,1.3,1.8,1.8,0,0,1-.6,1.4C69.3,70.1,54,105.7,53.9,144.9a1.9,1.9,0,0,1-1.9,1.9Z" style="fill:#bfbf8a"/><path d="M98,37.5h.3a.6.6,0,0,1,0,.6C68,69.3,52.5,105.3,52.4,144.9a.4.4,0,0,1-.4.4h0a.5.5,0,0,1-.5-.4A144.1,144.1,0,0,1,66.4,81.1,168.2,168.2,0,0,1,97.7,37.6c0-.1.2-.1.3-.1m0-3a3.3,3.3,0,0,0-2.5,1C81.8,49.6,71.4,64.1,63.7,79.8a146.9,146.9,0,0,0-15.2,65.1,3.5,3.5,0,0,0,6.9,0c.1-38.8,15.3-74,45-104.6a3.5,3.5,0,0,0,1-2.5,3.4,3.4,0,0,0-1.1-2.4,3.2,3.2,0,0,0-2.3-.9Z" style="fill:#6c6120"/><path d="M63.1,146.8a1.8,1.8,0,0,1-1.7-2c1.9-31.6-16.2-51.6-58.6-65a2.3,2.3,0,0,1-1.1-.9,2,2,0,0,1-.1-1.5,1.8,1.8,0,0,1,1.8-1.3H4c21.3,6.7,36.5,15,46.4,25.3S66.3,127.3,65.2,145a1.9,1.9,0,0,1-1.9,1.8Z" style="fill:#bfbf8a"/><path d="M3.4,77.6h.1c21.1,6.6,36.1,14.8,45.8,25s15.4,25,14.4,42.3a.4.4,0,0,1-.4.4h0a.4.4,0,0,1-.4-.4C64.8,112.5,46.4,92,3.3,78.4c-.2-.1-.4-.3-.3-.5s.2-.3.4-.3m0-3A3.2,3.2,0,0,0,.2,77a3.4,3.4,0,0,0,2.2,4.3C44,94.4,61.7,113.9,59.9,144.7a3.4,3.4,0,0,0,3.2,3.6h.2a3.4,3.4,0,0,0,3.4-3.2c1.1-18.2-3.9-32.8-15.2-44.6S26,81.5,4.4,74.7Z" style="fill:#6c6120"/><path d="M46.2,74.1H46c-10.7-1.5-19-6.3-24.6-14.1-8.8-12.2-11-31.8-6.5-56.7a1.2,1.2,0,0,1,.7-1.1l.7-.2h.6C32.6,8.5,46.5,23.9,51.4,40.4c3.7,12.2,2.4,23.6-3.9,33A1.7,1.7,0,0,1,46.2,74.1Z" style="fill:#928e31"/><path d="M16.3,3.4c25.4,10.5,46.1,45,29.9,69.2C15.9,68.1,10.1,38,16.3,3.4m0-3a2.3,2.3,0,0,0-1.4.4,2.7,2.7,0,0,0-1.5,2.1c-4.6,25.3-2.2,45.3,6.8,57.8C26,68.9,34.7,73.9,45.8,75.5h.4a3,3,0,0,0,2.5-1.4c6.6-9.7,8-21.6,4.2-34.3C47.8,23.1,33.5,7.3,17.5.6L16.3.4Z" style="fill:#6c6120"/><path d="M61.7,96.6h-.9a1.3,1.3,0,0,1-1.3-.9c-4.3-9.3-3.8-19.8,1.4-30.2,7-14,21.7-25.7,36.7-29.1H98a1.6,1.6,0,0,1,.9.3,1.4,1.4,0,0,1,.6,1.2c.2,22.8-4.7,39.9-14.2,49.5C79.2,93.5,71.3,96.6,61.7,96.6Z" style="fill:#928e31"/><path d="M98,37.9c.3,31.4-9.2,57.2-36.3,57.2h-.9C50,71.1,73.7,43.4,98,37.9m0-3h-.7C81.9,38.4,66.7,50.5,59.6,64.9c-5.4,10.8-5.9,21.6-1.5,31.4a2.9,2.9,0,0,0,2.7,1.8h.9c10,0,18.3-3.2,24.6-9.7,9.8-9.9,14.9-27.3,14.7-50.6a3.1,3.1,0,0,0-1.2-2.3,3,3,0,0,0-1.8-.6Z" style="fill:#6c6120"/><path d="M59,147h0a.4.4,0,0,1-.4-.4C60,120.4,41.6,39.5,16,3.7c-.1-.2-.1-.5.1-.6s.4-.1.6.1C32,24.6,42.9,59.2,48.1,77.9c7.6,27.9,12.1,54.8,11.3,68.7A.4.4,0,0,1,59,147Z" style="fill:#bfbf8a"/><path d="M52,145.3h0a.5.5,0,0,1-.5-.4A144.1,144.1,0,0,1,66.4,81.1,168.2,168.2,0,0,1,97.7,37.6c.1-.2.4-.2.6,0a.6.6,0,0,1,0,.6C68,69.3,52.5,105.3,52.4,144.9A.4.4,0,0,1,52,145.3Z" style="fill:#bfbf8a"/><path d="M45.6,122C23.4,122,9.6,98.3,2,78.5a2,2,0,0,1,.1-1.3,1.4,1.4,0,0,1,1.1-.7,57.1,57.1,0,0,1,7.3-.5c14.7,0,30.5,6.4,40,16.5,7,7.3,10.4,16,10,25.2a1.8,1.8,0,0,1-.9,1.3,36.4,36.4,0,0,1-14,3Z" style="fill:#928e31"/><path d="M10.5,77.5c23.2,0,49.6,16.3,48.5,40.1a34.2,34.2,0,0,1-13.4,2.9c-18.8,0-32.9-18.2-42.2-42.5a41.7,41.7,0,0,1,7.1-.5m0-3A60.3,60.3,0,0,0,3,75,3.4,3.4,0,0,0,.8,76.5a3.3,3.3,0,0,0-.2,2.6c11.2,29,26.7,44.4,45,44.4a38.6,38.6,0,0,0,14.5-3.1,3.2,3.2,0,0,0,1.9-2.7c.4-9.6-3.2-18.6-10.4-26.3C41.6,81,25.9,74.5,10.5,74.5Z" style="fill:#6c6120"/><path d="M63.3,145.3h0a.4.4,0,0,1-.4-.4C64.8,112.5,46.4,92,3.3,78.4c-.2-.1-.4-.3-.3-.5s.3-.4.5-.3c21.1,6.6,36.1,14.8,45.8,25s15.4,25,14.4,42.3A.4.4,0,0,1,63.3,145.3Z" style="fill:#bfbf8a"/><path d="M46.2,208.6a1.3,1.3,0,0,1-1-.4c-8.4-6.9-15.1-36.2-15.5-52.6a2.1,2.1,0,0,1,.4-1.1,1.5,1.5,0,0,1,1.1-.4H84.4a1.2,1.2,0,0,1,1,.4,1.6,1.6,0,0,1,.5,1.1c-.4,16.4-7.1,45.7-15.5,52.6a1.3,1.3,0,0,1-1,.4Z" style="fill:#e57225"/><path d="M84.4,155.6h0m0,0c-.5,17.3-7.4,45.2-15,51.5H46.2c-7.6-6.3-14.6-34.2-15-51.5H84.4m0-3H31.2a2.7,2.7,0,0,0-2.1.9,2.9,2.9,0,0,0-.9,2.1c.4,16.5,7,46.3,16,53.8a3.7,3.7,0,0,0,2,.7H69.4a3.7,3.7,0,0,0,2-.7c8.9-7.5,15.5-37.2,16-53.6v-.2a3,3,0,0,0-3-3Zm0,6Z" style="fill:#6a3417"/><rect x="24" y="141.3" width="67.6" height="17.24" rx="1.5" style="fill:#e57225"/><path d="M90.1,142.8V157H25.5V142.8H90.1m0-3H25.5a2.9,2.9,0,0,0-3,3V157a2.9,2.9,0,0,0,3,3H90.1a3,3,0,0,0,3-3V142.8a3,3,0,0,0-3-3Z" style="fill:#6a3417"/><path d="M84.3,157.4h-53a.4.4,0,1,1,0-.8h53a.4.4,0,1,1,0,.8Z" style="fill:#c96d4c"/><path d="M29,26.1h0c-.3,0-.5-.2-.4-.4L29,11.2a.4.4,0,0,1,.8,0l-.4,14.5A.4.4,0,0,1,29,26.1Z" style="fill:#bfbf8a"/><path d="M37.2,45.9H37L14.3,35.2a.4.4,0,1,1,.4-.8L37.4,45.1a.5.5,0,0,1,.2.6Z" style="fill:#bfbf8a"/><path d="M39.3,51.6h-.2L14.9,39.5a.4.4,0,1,1,.3-.7l24.3,12a.5.5,0,0,1,.2.6Z" style="fill:#bfbf8a"/><path d="M43.7,98.4l-.4-.2L33.1,82.7c-.2-.2-.1-.4.1-.6a.7.7,0,0,1,.6.1L44,97.7a.4.4,0,0,1-.1.6Z" style="fill:#bfbf8a"/><path d="M9.4,91.7c-.2,0-.4-.1-.4-.3a.4.4,0,0,1,.3-.5l19-3.3c.2-.1.4.1.5.3s-.1.5-.4.5l-19,3.3Z" style="fill:#bfbf8a"/><path d="M11.4,95.5a.5.5,0,0,1-.4-.3.5.5,0,0,1,.4-.5l21.5-4.5a.3.3,0,0,1,.5.3c.1.2-.1.4-.3.5L11.5,95.5Z" style="fill:#bfbf8a"/><path d="M29.4,115.9c-.2,0-.3-.1-.4-.3s0-.4.3-.5l23.6-8a.5.5,0,0,1,.5.3.3.3,0,0,1-.3.5l-23.6,8Z" style="fill:#bfbf8a"/><path d="M64.2,87.2c-.2,0-.4-.1-.4-.3L60.9,68.2a.4.4,0,0,1,.4-.4c.2-.1.4.1.4.3l2.9,18.6c0,.3-.1.5-.4.5Z" style="fill:#bfbf8a"/><path d="M71.4,73c-.2,0-.3-.1-.4-.3a.4.4,0,0,1,.3-.5l23.8-7.9a.3.3,0,0,1,.5.3.4.4,0,0,1-.2.5L71.5,73Z" style="fill:#bfbf8a"/><path d="M74.6,67.7c-.2,0-.3-.1-.4-.3a.3.3,0,0,1,.3-.5l21.6-7.2c.2,0,.5.1.5.3s0,.5-.2.5L74.7,67.7Z" style="fill:#bfbf8a"/><path d="M81.8,57.2h-.1a.5.5,0,0,1-.3-.5l2.1-13.2a.5.5,0,0,1,.5-.4c.2.1.4.3.3.5L82.2,56.8A.4.4,0,0,1,81.8,57.2Z" style="fill:#bfbf8a"/></g></g></g></svg>