<svg xmlns="http://www.w3.org/2000/svg" viewBox="0 0 53.3 59.2"><g style="isolation:isolate"><g id="Layer_2" data-name="Layer 2"><g id="Layer_1-2" data-name="Layer 1"><path d="M10.6,53.3c-.1,1-.2,2.3.8,2.8a2.3,2.3,0,0,0,1.6-.2l10.3-3.2.4-.2h.1a.6.6,0,0,0,0-.6,7.4,7.4,0,0,0-3-3.8,57.8,57.8,0,0,0-10.5-6.6,35,35,0,0,1,.5,10.7C10.7,52.5,10.7,52.9,10.6,53.3Z" style="fill:#fcd54d"/><g style="opacity:0.48;mix-blend-mode:multiply"><path d="M11.4,56.1a2.3,2.3,0,0,0,1.6-.2l10.3-3.2.4-.2v-.4A3.2,3.2,0,0,0,22,50.2L17.8,48c-2.1-.9-3.7-3-6-2.9,1.3,1.8,2.3,4.4,4,5.8a1.8,1.8,0,0,1,.9,1.3c0,.6-.6,1-1.2,1.2l-2,1a1.9,1.9,0,0,1-1.6.3c-.7-.2-.9-1-1-1.7s-.1-.6-.1-.9-.1.8-.2,1.2S10.4,55.6,11.4,56.1Z" style="fill:#a77344"/></g><path d="M10.3,41.4A57.8,57.8,0,0,1,20.8,48a7.4,7.4,0,0,1,3,3.8.6.6,0,0,1,0,.6h-.1l-.4.2L13,55.9a2.3,2.3,0,0,1-1.1.3h-.5c-1-.5-.9-1.8-.8-2.8s.1-.8.2-1.2a35,35,0,0,0-.5-10.7m0-3a3,3,0,0,0-1.8.6,3,3,0,0,0-1.1,2.9,32.9,32.9,0,0,1,.4,9.9c-.1.3-.1.7-.2,1-.5,4,1.4,5.5,2.6,6a4.7,4.7,0,0,0,1.7.4,5.9,5.9,0,0,0,2-.4l9.5-3,.8-.2a4.3,4.3,0,0,0,1.6-1l.5-.6a3.6,3.6,0,0,0,.5-2.9c-.6-2.5-2.4-4.1-4.2-5.5a69,69,0,0,0-10.9-6.9,3.2,3.2,0,0,0-1.4-.3Z" style="fill:#ffaa5a"/><path d="M47,3a2.8,2.8,0,0,1,1.3.3,3.1,3.1,0,0,1,1.6,1.6,4.7,4.7,0,0,1,0,3.7c-.7,1.9-2.3,3.3-3.7,4.8a73.6,73.6,0,0,0-7.8,9.7,21.1,21.1,0,0,0-3.9,6.8c-1,3.6-.1,7.5,1.3,10.9.6,1.4,1.2,2.8,1.9,4.2s1.5,3.4,2.1,5.1a3,3,0,0,0,.4,1v.3c.1.2.1.4.2.6h0v.5h0v.5c-.1.1-.1.3-.2.4s-1.6,1.2-2.7,1.2h-.6a37.7,37.7,0,0,1-18.7-6.6A46.8,46.8,0,0,1,4.6,33.7c-1.2-1.9-2.3-4.5-1-6.3a2.1,2.1,0,0,1,.4-.6c.1,0,.1,0,.1-.1l.5-.3h.1l.6-.3a7.3,7.3,0,0,1,2.5-.4H9l1.3.2h.1a16.5,16.5,0,0,1,3.2.7h1l1.2.3H16l1.3.2h.2l1.2.2h1.5a14.8,14.8,0,0,0,8.2-3.8,24.6,24.6,0,0,0,3.8-4.1,31.5,31.5,0,0,0,2.2-2.9l.9-1.1,6.5-8.8.4-.5.6-.8.7-.8.3-.2.4-.4h.3A4.4,4.4,0,0,1,47,3m0-3a8.3,8.3,0,0,0-4.2,1.3h-.1l-.4.3-.4.4h-.1l-.4.3-.9.9-.7,1-.4.5L36.1,9.4l-3.2,4.3-.4.5-.5.6-2.1,2.9a41.8,41.8,0,0,1-3.4,3.6A11.7,11.7,0,0,1,20,24.4H16.4l-1.1-.2h-1l-3.4-.7h-.1l-1.5-.2H7.8a10.6,10.6,0,0,0-3.7.6l-.8.5c-.1,0-.2,0-.2.1H2.9l-.7.6-.3.2a3.9,3.9,0,0,0-.8,1c-1.2,1.8-2,4.9.9,9.6A51.9,51.9,0,0,0,16.5,50.6a41.4,41.4,0,0,0,20.2,7.1h.8c3.2,0,4.7-1.5,5.4-2.8a8.3,8.3,0,0,0,.4-1.2v-.3a2.2,2.2,0,0,0,.1-.8v-.3a1.9,1.9,0,0,0-.1-.8h0a1.9,1.9,0,0,0-.2-.7.9.9,0,0,0-.1-.5l-.3-1.1c-.7-1.8-1.4-3.5-2.3-5.3v-.2c-.6-1.3-1.2-2.6-1.7-3.9q-2.2-5.4-1.2-9a20.9,20.9,0,0,1,3.4-5.9,75.2,75.2,0,0,1,7.6-9.3l.4-.5a14.5,14.5,0,0,0,3.9-5.4,7.5,7.5,0,0,0-.1-5.9A5.7,5.7,0,0,0,49.5.5,7,7,0,0,0,47,0Z" style="fill:#e84e2c"/><path d="M4.6,33.7A46.8,46.8,0,0,0,18.2,48.1a37.7,37.7,0,0,0,18.7,6.6c1.2,0,2.7-.1,3.3-1.2a1.9,1.9,0,0,0,.2-1.5c-.1-.2-.1-.4-.2-.6v-.3a3,3,0,0,1-.4-1c-.6-1.7-1.4-3.4-2.1-5.1s-1.3-2.8-1.9-4.2c-1.4-3.4-2.3-7.3-1.3-10.9a21.1,21.1,0,0,1,3.9-6.8,73.6,73.6,0,0,1,7.8-9.7c1.4-1.5,3-2.9,3.7-4.8a4.7,4.7,0,0,0,0-3.7,3.1,3.1,0,0,0-1.6-1.6,4,4,0,0,0-3.8.5h-.3L42.8,5.4l-.6.8-.4.5-6.5,8.8-.9,1.1a31.5,31.5,0,0,1-2.2,2.9,24.6,24.6,0,0,1-3.8,4.1,14.8,14.8,0,0,1-8.2,3.8c-3.8.2-7.5-1.5-11.3-1.8H7.8a7.3,7.3,0,0,0-2.5.4l-.6.3a2.9,2.9,0,0,0-1.1,1.1C2.3,29.2,3.4,31.8,4.6,33.7Z" style="fill:#ff8d3d"/><g style="mix-blend-mode:multiply"><path d="M4.8,27.8a14.8,14.8,0,0,0,3,7.2,29.4,29.4,0,0,1,16-4.5,5.1,5.1,0,0,0,2.5-.4,5.4,5.4,0,0,0,1.2-.9L44.8,10.6a9,9,0,0,0,2-2.8,3.1,3.1,0,0,0-.4-3.2,2.7,2.7,0,0,0-2-.7,7.5,7.5,0,0,0-1.6,1.5l-.6.8-.4.5-6.5,8.8-.9,1.1a31.5,31.5,0,0,1-2.2,2.9,24.6,24.6,0,0,1-3.8,4.1,14.8,14.8,0,0,1-8.2,3.8c-4.2.3-8.2-1.9-12.4-1.8a7.3,7.3,0,0,0-2.5.4l-.6.3A3.8,3.8,0,0,0,4.8,27.8Z" style="fill:#e0ad76"/></g><path d="M4.6,33.7A46.8,46.8,0,0,0,18.2,48.1a37.7,37.7,0,0,0,18.7,6.6c1.2,0,2.7-.1,3.3-1.2a3,3,0,0,0,0-2.1,7.5,7.5,0,0,1-2.1.2A31.8,31.8,0,0,1,22.5,47,48.5,48.5,0,0,1,10,36.5a19.3,19.3,0,0,1-4.4-7A10.2,10.2,0,0,1,5.3,26a3.3,3.3,0,0,0-1.7,1.4C2.3,29.2,3.4,31.8,4.6,33.7Z" style="fill:#e57225"/><path d="M10.3,37A37.3,37.3,0,0,0,36.7,52.7a9.5,9.5,0,0,0,2.4-.1,3.1,3.1,0,0,0,1.3-.6c-.1-.2-.1-.4-.2-.6v-.3a3,3,0,0,1-.4-1,2.6,2.6,0,0,1-1.1.7,7,7,0,0,1-2.5,0A47,47,0,0,1,10.3,37Z" style="fill:#ffaa5a"/><path d="M8.9,25.6c1.6.4,3.1,1,4.7,1.5,3.5,1,7.3,1.9,10.7.8s6-3.8,8.5-6.4l8.1-8.7a19.6,19.6,0,0,0,4.2-5.7,2.4,2.4,0,0,0,0-2.6,1.3,1.3,0,0,0-.9-.5L42.8,5.4l-.6.8-.4.5-6.5,8.8-.9,1.1a31.5,31.5,0,0,1-2.2,2.9,24.6,24.6,0,0,1-3.8,4.1,14.8,14.8,0,0,1-8.2,3.8C16.4,27.6,12.7,25.9,8.9,25.6Z" style="fill:#e57225"/><path d="M33.6,37.8A15.8,15.8,0,0,0,37.7,45c-.7-1.4-1.3-2.8-1.9-4.2-1.4-3.4-2.3-7.3-1.3-10.9a21.1,21.1,0,0,1,3.9-6.8,73.6,73.6,0,0,1,7.8-9.7c1.4-1.5,3-2.9,3.7-4.8a4.7,4.7,0,0,0,0-3.7,6.1,6.1,0,0,1-.1,1.4,9.1,9.1,0,0,1-2.4,4l-7.5,8.8a35.6,35.6,0,0,0-5.5,8A17.1,17.1,0,0,0,33.6,37.8Z" style="fill:#ffaa5a"/></g></g></g></svg>