<svg xmlns="http://www.w3.org/2000/svg" viewBox="0 0 92.9 72.7"><g id="Layer_2" data-name="Layer 2"><g id="Layer_1-2" data-name="Layer 1"><path d="M86.9,6.3c-2.4-.8-3.5-3.8-7.2-3.2a7.1,7.1,0,0,0-5.1,3.4,17.7,17.7,0,0,0-1.8,7.4c.1,3.6.7,12.7,0,15.6s-2.2,7.4-7.4,6.6S56,28.7,44.3,30.9c-9.4,1.8-11.9,11.9-15.6,18.8s-9.3,11-16.1,11.9-8-2.1-9.4-.8,4,7.3,16.5,6.5,15.8-5.7,17.9-6.1,12.8,2.6,22.9.1,17.9-8.9,20.1-20.9S79,22.8,79.5,18.1s5.6-4.6,5.6-4.6c4,.3,4.5-.9,4.8-2.8A3.9,3.9,0,0,0,86.9,6.3Z" style="fill:#0ea1ad"/><g style="opacity:0.08"><path d="M53.2,41.3c12,4.1,13-5.1,12.2-5.2-5.3-.8-9.4-7.4-21.1-5.2a14.1,14.1,0,0,0-8.8,5.8c.2,1-.4,2.7.5,3.9C40.7,47.3,48.1,39.6,53.2,41.3Z" style="fill:#fff"/></g><path d="M76.7,4.5s-1.8.8-3,4.6-.5,11.9-.3,14.7c.7,10.9-5.2,12.7-5.2,12.7s7.8-1.9,6.6-12.8a29.2,29.2,0,0,1,2-13C77.7,8.7,75.7,7.9,76.7,4.5Z" style="fill:#fff;opacity:0.08"/><g style="opacity:0.08"><path d="M22.1,60.3c8.6-4.8,9.6-17,13.5-23.7A47,47,0,0,0,33,40.7c-.9,2-1.8,4.1-2.8,5.9l-1.5,3.1c-3.7,6.9-9.3,11-16.1,11.9a16.6,16.6,0,0,1-4.4.1l.5.2C11.3,63,16.3,63.6,22.1,60.3Z" style="fill:#fff"/></g><path d="M46.2,36.6c3.2.4,3.9-4.1,5.7-1.8s2.7,3.3,4.2.5a6.6,6.6,0,0,0,.7-3.2,20.9,20.9,0,0,0-12.5-1.2l-.8.2C43.7,33.5,44,36.3,46.2,36.6Z" style="fill:#ff8e18"/><path d="M60.5,61.3c10.2-2.5,17.9-8.9,20.1-20.9a41.1,41.1,0,0,0,.7-9.4h0s.1,13.7-10.5,20.8-25.9,4.8-26.6,4.4,0,2.2.5,5.7A45.2,45.2,0,0,0,60.5,61.3Z" style="fill:#ff8e18"/><path d="M60.8,60c-5.7,1.4-11.5,1-15.9.5-.2-1.7-.4-3.2-.5-4.2h-.2c-.2-.1,0,2.2.5,5.7a45.2,45.2,0,0,0,15.8-.6c10.2-2.5,17.9-8.9,20.1-20.9a4.3,4.3,0,0,0,.2-1.1C78.6,51.2,70.8,57.4,60.8,60Z" style="fill:#f77d1e"/><path d="M81,37.9v0Z" style="fill:#f4df8b"/><path d="M51.6,61.9l.8-.2c-.4-.6-.2-3.4-.1-4.7h-.9C51.2,60.8,51.6,61.9,51.6,61.9Z" style="fill:#f77d1e"/><path d="M55.4,61.6l.8-.2c-.3-.6-.2-3.3-.1-4.6h-.9C55,60.5,55.4,61.6,55.4,61.6Z" style="fill:#f77d1e"/><path d="M59.8,61l.8-.2c-.4-.6-.2-3.4-.1-4.7l-.9.2C59.4,59.9,59.8,61,59.8,61Z" style="fill:#f77d1e"/><path d="M75.5,51.7,76,51a9.5,9.5,0,0,1-1.8-2l-.6.6A10.4,10.4,0,0,0,75.5,51.7Z" style="fill:#f77d1e"/><path d="M78.2,47.9a5.9,5.9,0,0,1-1.9-1.4l-.5.7a7.6,7.6,0,0,0,2,1.4Z" style="fill:#f77d1e"/><path d="M79.5,44.8a6.3,6.3,0,0,1-1.5-1,1.6,1.6,0,0,0-.4.7,7.1,7.1,0,0,0,1.5,1Z" style="fill:#f77d1e"/><path d="M80.4,41.3a2.4,2.4,0,0,1-1.1-.4l-.3.8a3.8,3.8,0,0,0,1.2.4Z" style="fill:#f77d1e"/><path d="M80.9,38.4v-.5a.9.9,0,0,1-.1.5Z" style="fill:#efd47c"/><path d="M81.1,37.6h0c-.1,0-.1,0-.1.1Z" style="fill:#efd47c"/><path d="M81.1,37.6h-.7a1.9,1.9,0,0,0-.2.7l.7.2a.9.9,0,0,0,.1-.5v-.2C81,37.6,81,37.6,81.1,37.6Z" style="fill:#f77d1e"/><path d="M43.4,48s-3.8-.3-6.3,10.6.8,10.8,2.7,11,8.1.6,9-1.3S49.1,48,43.4,48Z" style="fill:#2bc8cc"/><rect x="43.1" y="46.7" width="0.9" height="2.54" rx="0.4" style="fill:#00848f"/><rect x="45.5" y="48" width="0.9" height="2.54" rx="0.4" transform="translate(30.8 -16.4) rotate(30)" style="fill:#00848f"/><rect x="40.5" y="48.1" width="0.9" height="2.54" rx="0.4" transform="translate(-19.2 27.1) rotate(-30)" style="fill:#00848f"/><path d="M68.6,47.6s-3.8-.3-6.2,10.6.7,10.9,2.6,11,8.1.6,9-1.3S74.3,47.6,68.6,47.6Z" style="fill:#2bc8cc"/><rect x="68.3" y="46.3" width="0.9" height="2.54" rx="0.4" style="fill:#00848f"/><rect x="70.8" y="47.7" width="0.9" height="2.54" rx="0.4" transform="translate(34 -29) rotate(30)" style="fill:#00848f"/><rect x="65.7" y="47.8" width="0.9" height="2.54" rx="0.4" transform="translate(-15.7 39.6) rotate(-30)" style="fill:#00848f"/><path d="M46.8,48.8a.5.5,0,0,0-.2-.6c-.2-.1-.5-.1-.6.1l-.4.8A3.2,3.2,0,0,0,43.9,48v-.9a.4.4,0,0,0-.8,0V48a3.7,3.7,0,0,0-1.8,1.1l-.4-.7c-.1-.2-.4-.2-.6-.1a.5.5,0,0,0-.2.6l.6.9c-1.2,1.4-2.5,4-3.6,8.8-2.4,10.9.8,10.8,2.7,11s8.1.6,9-1.3.5-13.8-2.6-18.5Z" style="fill:none;stroke:#00848f;stroke-miterlimit:10;stroke-width:2px"/><path d="M71.4,49.5l.6-1.1c.1-.2,0-.4-.2-.6s-.4,0-.6.2l-.4.7a3.1,3.1,0,0,0-1.6-1v-.9a.5.5,0,0,0-.5-.5h0a.5.5,0,0,0-.4.5v.9a3,3,0,0,0-1.8,1.1l-.4-.7a.5.5,0,0,0-.6-.2c-.2.2-.3.4-.1.6l.5.9c-1.2,1.5-2.5,4.1-3.5,8.8-2.5,10.9.7,10.9,2.6,11s8.1.6,9-1.3S74.5,54.2,71.4,49.5Z" style="fill:none;stroke:#00848f;stroke-miterlimit:10;stroke-width:2px"/><ellipse cx="80.3" cy="6.8" rx="1.3" ry="1.4" style="fill:#002d30"/><path d="M78.4,5.1a1.1,1.1,0,0,1,1-.9c.9,0,1.2.5.5.7a2.5,2.5,0,0,0-1.2.7C78.6,5.7,78.3,5.4,78.4,5.1Z" style="fill:#002d30"/><ellipse cx="87.5" cy="8.8" rx="0.3" ry="0.3" style="fill:#002d30"/><path d="M87.4,12.5H86c-2.2-.5-2.5-1.7-2.5-1.7s.1-.4.2-.4.4,0,.4.2.3.9,2,1.2l1.3.2,1.7-.2h.4c.1.2.1.4-.1.5s-.5.2-2,.3Z" style="fill:#002d30"/><path d="M80.6,3c3,0,4.1,2.6,6.3,3.3a3.9,3.9,0,0,1,3,4.4c-.2,1.7-.7,2.9-3.7,2.9H85c-.6,0-5,.1-5.5,4.6s1.4,7,1.8,12.9h0v3.5c0,.5-.1,1-.1,1.5v.3a5.7,5.7,0,0,0-.1,1.3H81v.5h0v.2h0l-.3,1.9a25.1,25.1,0,0,1-7.3,14.2v.2h0l.6,3.6h0c0,.2.1.4.1.7h0c.1.7.1,1.4.2,2h0v.8a.9.9,0,0,0,.1.5v3.2c0,.1-.1.1-.1.2v.5h0v.7h0c0,.1,0,.2-.1.2h0c0,.1,0,.2-.1.2s-3.3,1.5-5.6,1.5L65,69.2c-1.7-.1-4.5-.1-3.2-8.3l-1.3.4-2,.4h-.7l-1.3.2H49.1v1.4a.4.4,0,0,1,.1.3v1.6a.4.4,0,0,0-.1.3v1h0v.4h0v.3h0V68h0v.2c-.6,1.1-3.3,1.4-5.7,1.4H39.8c-1.7-.1-4.4-.1-3.2-8-2.2,1.4-6.2,5.1-16.9,5.7H17.5c-10.9,0-15.6-5.5-14.3-6.6a1,1,0,0,1,.8-.4c.8,0,1.9.9,4.2,1.3h3.2l1.2-.2c6.8-.9,12.4-5,16.1-11.9l.8-1.5a.8.8,0,0,1,.2-.4,3.7,3.7,0,0,1,.5-1.1c.9-1.9,1.8-3.9,2.8-5.9h0a2.1,2.1,0,0,0,.4-.7l.3-.5.7-1.1h0l1.2-1.8a.1.1,0,0,1-.1.1l.3-.4.5-.6.9-1,.4-.3a1.9,1.9,0,0,1,.7-.6,1,1,0,0,1,.5-.4,1.8,1.8,0,0,1,.7-.5l.5-.3.8-.5.5-.2.9-.4.5-.2.8-.2h0l.8-.2,2-.3h6.8l.7.2.7.2.7.2.6.3.7.2h.3c3.4,1.5,5.8,3.5,8.6,3.9h1.1c4.3,0,5.6-4,6.3-6.7s.1-12,0-15.6a17.7,17.7,0,0,1,1.8-7.4,7.1,7.1,0,0,1,5.1-3.4h.9M35.5,36.8h0M80.6,0H79.3a10.4,10.4,0,0,0-7.4,5A22.1,22.1,0,0,0,69.8,14c0,.7.1,1.6.1,2.6.2,3.6.4,10.2,0,12.2-1,4-2.3,4.4-3.4,4.4h-.7a13.8,13.8,0,0,1-4.1-1.8l-3.5-1.8h-.6l-.7-.3-.7-.3h0l-.8-.3-.7-.2h-.2l-.7-.2H46l-2.3.4-.9.2h-.3l-.7.2h-.6l-1.2.4-.6.3-1,.6-.6.4-.9.6h-.1l-.4.3a6,6,0,0,0-.8.8h-.1l-.4.3L34,33.8l-.4.5v.2h0l-.3.3-1.4,2h0L31.1,38l-.3.5a5.6,5.6,0,0,1-.4.8c0,.1,0,.1-.1.1h0c-.8,1.5-1.5,3.1-2.2,4.6l-.6,1.3a5.4,5.4,0,0,0-.5,1.1h-.1v.3a9.1,9.1,0,0,0-.7,1.4c-3.3,5.9-8.1,9.5-13.9,10.4H8.7A6.9,6.9,0,0,1,6.4,58,8.4,8.4,0,0,0,4,57.4a4.3,4.3,0,0,0-2.8,1.1,4,4,0,0,0-.9,4.4c1.4,3.7,7.8,7.5,17.2,7.5h2.4a35.3,35.3,0,0,0,13.5-3.2,7.4,7.4,0,0,0,1.4,3.4,6.4,6.4,0,0,0,4.7,2.1h3.6c3.2,0,7-.3,8.4-3.1l.3-.7v-.2c0-.1.1-.2.1-.3v-.2c.1-.1.1-.2.1-.4h0a.9.9,0,0,1,.1-.5h0v-.6h0v-1h4.6l1.5-.2h.2A8.4,8.4,0,0,0,60,70.1a6,6,0,0,0,4.7,2.1H65l3.4.2c3.1,0,6.9-.4,8.3-3.1l.3-.7v-.2c.1-.1.1-.2.1-.4h.1v-.6a.6.6,0,0,0,.1-.4h0V66h.1V63.5h0v-.6h0V61.1h0c-.1-.8-.1-1.5-.2-2.2h0a1.5,1.5,0,0,1-.1-.7h0c-.1-.9-.3-1.7-.4-2.5a29,29,0,0,0,7-14.6l.3-2v-.7h0V38h0v-.2c.1-.4.1-.8.2-1.2v-.3h0c0-.5.1-1.1.1-1.6h0V30.8h-.1a43,43,0,0,0-1.1-7.5,19.4,19.4,0,0,1-.6-4.8,2.2,2.2,0,0,1,2.4-1.9h1.3c4.1,0,6.2-1.9,6.6-5.6a6.8,6.8,0,0,0-5.1-7.6,6.1,6.1,0,0,1-1.2-.9A9.3,9.3,0,0,0,80.6,0Z" style="fill:#217e93"/></g></g></svg>