<svg id="Layer_1" data-name="Layer 1" xmlns="http://www.w3.org/2000/svg" xmlns:xlink="http://www.w3.org/1999/xlink" viewBox="0 0 309.5 35.5"><defs><clipPath id="clip-path"><path d="M112.3,14.7A10.9,10.9,0,0,0,101.5,3.9H3.6V31.4h9.7L41,21.4V18.1h71.3Z" style="fill:none"/></clipPath></defs><g id="Layer_2" data-name="Layer 2"><g id="Layer_1-2" data-name="Layer 1-2"><rect x="108.9" y="12.5" width="9.7" height="18.85" style="fill:#613629"/><rect x="267.2" y="12.5" width="9.7" height="18.85" style="fill:#613629"/><path d="M294.5,3.9H87.6A10.8,10.8,0,0,0,76.8,14.7h0v3.4H305.3V14.7A10.9,10.9,0,0,0,294.5,3.9Z" style="fill:#9b452b"/><path d="M290.5,5.9H90.7c-5.7,0-10.4,2.5-10.4,5.7v1.8H300.9V11.6C300.9,8.4,296.2,5.9,290.5,5.9Z" style="fill:#cd8f2c"/><path d="M294.5,3.9a10.9,10.9,0,0,1,10.8,10.8v3.4H276.9V31.4h-9.7V18.1H118.6V31.4h-9.7V18.1H76.8V14.7A10.8,10.8,0,0,1,87.6,3.9H294.5m0-3H87.6A13.8,13.8,0,0,0,73.8,14.7h0v3.4a2.8,2.8,0,0,0,2.8,3h29.3V31.4a2.9,2.9,0,0,0,3,3h9.7a3,3,0,0,0,3-3V21.1H264.2V31.4a2.9,2.9,0,0,0,3,3h9.7a3.1,3.1,0,0,0,3-3V21.1h25.4a3,3,0,0,0,3-3V14.7A13.8,13.8,0,0,0,294.5.9Z" style="fill:#6a3417"/><g style="clip-path:url(#clip-path)"><polygon points="13.3 12.5 3.6 12.5 3.6 31.3 13.3 31.3 41 21.3 41 12.5 13.3 12.5" style="fill:#613629"/><path d="M101.5,3.9H-105.4a10.8,10.8,0,0,0-10.8,10.8h0v3.4H112.3V14.7A10.9,10.9,0,0,0,101.5,3.9Z" style="fill:#9b452b"/><path d="M97.5,5.9H-102.3c-5.7,0-10.4,2.5-10.4,5.7v1.8H107.9V11.6C107.9,8.4,103.2,5.9,97.5,5.9Z" style="fill:#cd8f2c"/></g><path d="M101.5,3.9a10.9,10.9,0,0,1,10.8,10.8h0v3.4H41v3.3l-27.7,10H3.6V3.9h97.9m0-3H3.6a2.9,2.9,0,0,0-3,2.8V31.4a2.9,2.9,0,0,0,3,3h9.7l1-.2L42,24.2a3.2,3.2,0,0,0,2-2.8v-.3h68.3a3,3,0,0,0,3-3V14.7A13.8,13.8,0,0,0,101.5.9Z" style="fill:#6a3417"/></g></g></svg>