<svg id="Layer_1" data-name="Layer 1" xmlns="http://www.w3.org/2000/svg" viewBox="0 0 327.5 268.5"><g id="Layer_2" data-name="Layer 2"><g id="Layer_1-2" data-name="Layer 1-2"><path d="M216.9,90.8H221c28.1,1.4,32.5,8.1,33,11.1h0a.4.4,0,0,1,.1.5h0v.4h0v.2h0s-1.9,4.1-10.2,4.1h-.3a39.1,39.1,0,0,1-8.9-1.3h0l-6.2-.9,1.8,55.2a66.2,66.2,0,0,0,17.6,2.5,61,61,0,0,0,18.1-2.7,78.8,78.8,0,0,0,14.3-9.1l1.2-.7c2.3-1.2,6.9-3.5,9.7-3.5l1.3.2c2.8,1.5,30.7,60.7,30.7,60.7s7,12.5-14.4,17.4h0c-10.1,5.3-30.2,13.3-59.1,13.3a175.7,175.7,0,0,1-39.5-4.8c-56-13-81-39.1-88-47.8a9.3,9.3,0,0,1-1.9-6.6c1-10,6.5-38.9,36.7-65.6l2-1.6h-.1S182.7,90.4,217,90.4m8.8,68.3-1.4-54.3L213,103.2s-30.7,2.7-39.1,14.9c0,0,21.1,29.7,51.9,40.6m.7-54-1.9-.3,1.9.3M174.7,206.3c3.1-10.7,10.6-34.7,19.9-47.5,0,0-18.9-13.4-31.4-31.3h0S140,153.6,134.7,180c0,0,13.8,14,40,26.3M259,175h0l17.2,48.5c16-2.3,25.9-6.8,29.8-8.8l1.8-1-24-49.1c-5.4,3.4-17.8,8-24.8,10.4m-3,49.9h4.7l-14-47.3s-29.2-2.8-41.4-11.3c-9.4,14.1-17.5,42.5-18.3,45.4a199.6,199.6,0,0,0,35.3,10A191.4,191.4,0,0,0,256,225M216.9,87.8c-35.1,0-59.1,21.3-60.1,22.2h-.2l-1.7,1.4c-30.6,27-36.6,56.2-37.7,67.5a12.7,12.7,0,0,0,2.6,8.8c3.6,4.5,11.8,13.5,26.3,22.9,17.6,11.6,38.9,20.3,63.3,26a188,188,0,0,0,40.2,4.8c29.5,0,50.2-8.4,60.1-13.4q13.2-3.1,16.5-10.8c2.3-5.2,0-10-.4-10.9s-7.3-15.3-14.3-29.7c-15.1-30.9-16.5-31.6-17.8-32.2a4.6,4.6,0,0,0-2.6-.6c-2.5,0-6.2,1.3-10.9,3.8a5.2,5.2,0,0,0-1.9,1.1,72.1,72.1,0,0,1-13.5,8.6,60.8,60.8,0,0,1-17,2.5,73.8,73.8,0,0,1-14.7-1.8l-1.6-49.4,2.3.4h.2a50.6,50.6,0,0,0,9.4,1.3h.4c9.9,0,12.6-5.2,12.9-5.8l.2-.5h0c.1-.1.1-.3.1-.6h0c.1-.3.2-.5.1-.7h0c0-.3-.1-.6-.1-.9v-.4c-1-5.3-8.2-11.9-35.7-13.2L217,88Zm-39.3,30.7c7.6-7.7,27.5-11.1,35.3-11.9l8.5.9,1.2,47.2C199.4,144.9,182.4,124.7,177.6,118.5ZM138,179c4.5-19.8,19.2-39.4,25-46.6,9.9,13,22.4,23.2,27.5,27.1-7.8,12-14.1,30.5-17.6,42.6C153.5,192.5,141.6,182.3,138,179Zm124.8-2.1c6.8-2.5,14.5-5.4,19.7-8.1l21.3,43.6c-3.6,1.9-12.2,5.6-25.6,7.8Zm-72.2,32.9c2.2-7.4,8.4-27.3,15.7-39.5,11.6,6.4,31.7,9.2,38.1,9.9l12.3,41.7H256a194.3,194.3,0,0,1-33.1-3.2A218,218,0,0,1,190.6,209.8Z" style="fill:#6a3417"/><path d="M280.2,151.2s9.3-5.4,12.2-4,30.7,60.7,30.7,60.7,7,12.5-14.4,17.4c0,0,3.6-7.1.8-14.2S280.2,151.2,280.2,151.2Z" style="fill:#e69c57"/><path d="M173.8,118.5s40.9,57.7,92.1,41.8c0,0-11,13.2-29.3,10.5s-48.7-19.9-48.7-19.9L162,121.5v-4.1Z" style="fill:#874c28"/><path d="M212.9,103.6s-30.7,2.7-39.1,14.9l-6.9.3,12-12.8S209.5,100,212.9,103.6Z" style="fill:#9a5732"/><path d="M158.8,112.2S184.5,89.1,221,90.9s33,12.5,33,12.5-3.2,6.9-19.4,2.8S216.6,87.3,158.8,112.2Z" style="fill:#e69c57"/><path d="M134.7,180s30.6,31,87.6,41.6,85.5-7.9,85.5-7.9-15.7,22.6-70.6,18.5-107.4-41.2-112.1-48V180Z" style="fill:#9a5732"/><path d="M163.2,127.5S140,153.6,134.7,180l-7.4,1.1-2.2-13.5,34.6-46.8Z" style="fill:#874c28"/><path d="M122.1,186c7,8.7,32,34.8,88,47.8,57.5,13.4,93.8-5.2,103.5-11.2a7.4,7.4,0,0,0,3.4-5.2c.2-2,.3-4.3-.8-5.5L287,152.7a4.3,4.3,0,0,0-5.8-2.1,2.7,2.7,0,0,0-1,.6c-8.6,7-29.7,20.7-56.8,13.2-35.7-9.7-56.5-45.6-56.5-45.6s20.8-17.4,46-15.2,27.5,4.9,31.5,2.2c2-1.4,1.6-3.2.8-4.7a6.7,6.7,0,0,0-4.3-3.4c-9.7-2.8-51.4-12.7-84,16.1-30.2,26.7-35.7,55.6-36.7,65.6A9.3,9.3,0,0,0,122.1,186Zm147.6,38.8L254,176.7s22.1-7.2,29.8-12.1l24,49.1S289.6,224.8,269.7,224.8Zm-86.9-10.6c4.4-25.7,22.5-48,22.5-48,12.2,8.5,41.4,11.3,41.4,11.3l14.2,47.9c-39.9,9.3-78.1-11.2-78.1-11.2Zm-55.5-33.1c6.1-33.1,33.1-57.8,33.1-57.8,12.3,20,34.2,35.5,34.2,35.5-12.3,16.9-21.3,53.1-21.3,53.1-22.5-8-46-30.8-46-30.8Z" style="fill:#bd743e"/><path d="M205.3,166.2l-3.4-1.6s-18.5,25-19.1,49.6l4.1-2.3S195.3,181.1,205.3,166.2Z" style="fill:#874c28"/><polygon points="259 175 276.2 223.5 269.7 224.8 254 176.7 259 175" style="fill:#874c28"/><path d="M224.3,104.8l1.4,57.5a3.4,3.4,0,0,0,4.6,0l-1.9-57Z" style="fill:#bd743e"/><path d="M230.9,102.5h13.4a31.3,31.3,0,0,0,9.7-.6,1.9,1.9,0,0,1,0,1.5s-3.2,6.9-19.4,2.8l-4.2-1.3Z" style="fill:#bd743e;opacity:0.41999998688697815;isolation:isolate"/><path d="M158,183.7c-.2-.2,27.2-23.5,37.7-21.5s4.8,13.1-4.5,14.1-33.8,10.9-34.4,10.7S158,183.7,158,183.7Z" style="fill:#874c28"/><polygon points="178.4 164.6 202.3 167.6 239.1 173.4 203.3 183.7 178.4 164.6" style="fill:#874c28"/><path d="M147.4,187.5c-15.8,0-31.8-6.5-53.5-21.6-24-16.7-40.3-52.7-47.9-72.7C36.8,69,29.5,57.3,21.1,52.8a25.2,25.2,0,0,0-4.7-2.2C10.2,47.8,4.8,45.3,2.8,33.7c-2.5-14.5,10.7-20,10.9-20H14C14.5,13.6,65.5,6,87.6,3a71.4,71.4,0,0,1,11.2-.9c14.7,0,21,6.6,33,22.8,4.4,6,9.6,16.4,15.6,28.4,13.9,28.1,32.9,66.4,56.3,74.3a48.7,48.7,0,0,0,15.1,2.4c12,0,24.2-3.8,35.9-7.5s21-6.5,30.3-6.5a27.5,27.5,0,0,1,14.9,3.7c7.9,4.5,12.7,10.3,14,17,2.1,10.1-4.4,18.7-4.6,19a1.6,1.6,0,0,1-.8.5c-3.3,1-80.3,23.4-88.4,23.4h-.4c-3-.3-5.8-2.3-9.1-4.6s-9.2-6.5-15.6-6.7h-.2c-4.8,0-9.5,3.3-14.9,7.2s-14.4,10.2-25.4,11.6c-2.3.3-4.7.4-7.1.5Z" style="fill:#fff5c0"/><path d="M98.8,3.5c13.8,0,19.7,5.9,31.8,22.2,14.8,20,38.6,91.8,72.6,103.2a49,49,0,0,0,15.6,2.5c23.3,0,47.1-14,66.2-14a25.7,25.7,0,0,1,14.1,3.5c24.3,13.9,9,33.8,9,33.8s-80,23.3-88,23.3h-.3c-6.3-.6-13.1-11.1-24.8-11.3h-.2c-11.6,0-20.9,16.3-40.5,18.8-2.2.3-4.5.4-6.9.5-17.2,0-33.8-8.2-52.7-21.4-21.4-14.9-37.6-46.4-47.3-72s-17-36.5-25.6-41.1S6.6,46.9,4.3,33.4s9.9-18.3,9.9-18.3S65.5,7.4,87.8,4.4a68.9,68.9,0,0,1,11-.9m0-3a73,73,0,0,0-11.4.9C65.3,4.4,14.3,12,13.8,12.1l-.7.2c-5,2-13.9,9.1-11.8,21.6s8.1,15.2,14.5,18l4.5,2.2c8.2,4.4,15.2,15.8,24.3,39.6,7.6,20.2,24.1,56.5,48.4,73.4,22,15.3,38.3,21.9,54.4,21.9,2.5-.1,4.9-.2,7.3-.5,11.3-1.5,19.5-7.3,26.1-11.9s9.6-6.9,14-6.9h.2c5.9.1,10.6,3.5,14.8,6.4s6.4,4.6,9.8,4.9h.5c8.2,0,80.6-21,88.8-23.4a3.8,3.8,0,0,0,1.6-1.1c.3-.4,7.1-9.4,4.9-20.2-1.4-7.2-6.4-13.2-14.8-18a29.2,29.2,0,0,0-15.6-3.9c-9.5,0-19.8,3.2-30.7,6.6s-23.7,7.4-35.5,7.4a48.9,48.9,0,0,1-14.6-2.3c-22.9-7.7-41.7-45.7-55.5-73.5-6-12.1-11.2-22.6-15.7-28.7C120.7,7.3,114.1.5,98.8.5Z" style="fill:#ffaa5a"/><path d="M117.8,99.2a36.2,36.2,0,0,0-7.3.4c-4.7.9-7.8,2.9-9,6a53.9,53.9,0,0,0-9.4-20.3,32.4,32.4,0,0,0-5.9-5.8c6.9-4.9,19.9-4.8,21.4-4.8a33.4,33.4,0,0,1,4.5,6.8A48.4,48.4,0,0,1,117.8,99.2Z" style="fill:none"/><path d="M139.5,95.2a73,73,0,0,0-8.1.1c-5.8.4-10.2,1.7-13,3.7a47.1,47.1,0,0,0-5.8-17.9,33,33,0,0,0-4.4-6.6c8.5-5.6,19.5-4.4,20.7-4.3a31.3,31.3,0,0,1,5.2,7.3A36.7,36.7,0,0,1,139.5,95.2Z" style="fill:none"/><path d="M124.2,105.5c2.9,3.1,6.5,7.8,7.5,13.2a32,32,0,0,0-6.7,1.4c-4.5,1.6-7.6,3.9-9.1,6.9-1.5-5.1-5.1-10.2-7.9-13.7a55.6,55.6,0,0,0-6.2-6.6c.9-3.4,3.9-5.5,8.8-6.4a26.5,26.5,0,0,1,7.4-.4A33.1,33.1,0,0,1,124.2,105.5Z" style="fill:none"/><path d="M105.5,24.6a33.8,33.8,0,0,1,8.7,17.6,31.4,31.4,0,0,0-7.5,0c-4,.3-9.5,1.4-13.6,4.6-.8-7.5-4.9-14.1-8.2-18.3a43.9,43.9,0,0,0-7-7.3c7.4-3.6,12.6-3.9,15.7-3.5a9.9,9.9,0,0,1,5,1.6h.3A21.2,21.2,0,0,1,105.5,24.6Z" style="fill:none"/><path d="M84.4,28.9c3.3,4.2,7.3,10.7,8,18.2a27.2,27.2,0,0,0-7-.6,32.8,32.8,0,0,0-15.3,3.6A39,39,0,0,0,61,31.3a28.3,28.3,0,0,0-6.7-6.2c3.5-3.6,9.4-4.4,13.8-4.5a39,39,0,0,1,9.1.8A42.6,42.6,0,0,1,84.4,28.9Z" style="fill:none"/><path d="M120.8,50.2a42.6,42.6,0,0,1,7.9,19.3,26.6,26.6,0,0,0-6.9,0,30.2,30.2,0,0,0-13.9,4.3,46.8,46.8,0,0,0-8.7-20.2,26.7,26.7,0,0,0-5.9-6.2c4.1-3.2,9.5-4.3,13.4-4.6a33,33,0,0,1,7.7.1A34.3,34.3,0,0,1,120.8,50.2Z" style="fill:none"/><path d="M98.7,54.1a45.9,45.9,0,0,1,8.6,20,42.3,42.3,0,0,0-7.9.4c-4.1.6-9.6,1.7-13.5,4.4-.7-7.4-4.9-14.6-8.3-19.5a54.6,54.6,0,0,0-7.2-8.7,32.8,32.8,0,0,1,15-3.6,29.7,29.7,0,0,1,7.3.7A29.9,29.9,0,0,1,98.7,54.1Z" style="fill:none"/><path d="M146.3,102.4c3.2,3.5,7.2,8.8,8.8,14.4a29.6,29.6,0,0,0-7.3-1.5,24.8,24.8,0,0,0-15.5,3.1c-1-5.4-4.7-10.2-7.6-13.4a38.6,38.6,0,0,0-6-5.4c6.3-4.6,19.7-3.8,21-3.7A50.7,50.7,0,0,1,146.3,102.4Z" style="fill:none"/><path d="M162.2,140.5c-2.7.5-15.5,2.9-17.8,7.2-4.2-1.3-7-2.3-7.5-2.5-7.4-9.2-18.8-16.3-20.6-17.4,1.5-3.8,5.7-5.9,8.9-7a23.1,23.1,0,0,1,6.8-1.5,111.8,111.8,0,0,1,12.5,6.2C150.4,128.9,158.3,134.3,162.2,140.5Z" style="fill:none"/><path d="M182.5,135.9c-2.9,0-14.8.3-19.7,4.4-3.9-6.4-11.9-11.9-18-15.4a84,84,0,0,0-12-6,24.4,24.4,0,0,1,14.9-3,24.7,24.7,0,0,1,7.7,1.7C156.1,117.9,177.2,128.5,182.5,135.9Z" style="fill:none"/><path d="M85.7,79.9h.2l.3-.3a32.4,32.4,0,0,1,5.9,5.8,53.9,53.9,0,0,1,9.4,20.3,1.1,1.1,0,0,0-.3.8H101c-2.4-10.2-6.4-16.8-9.4-20.6S86,80.2,85.5,80h.2Z" style="fill:#ffaa5a"/><path d="M54,25.5v-.2l.2-.2A28.7,28.7,0,0,1,61,31.3a39,39,0,0,1,9.1,18.8l-.3.2h-.3a37.7,37.7,0,0,0-8.9-18.5,32.2,32.2,0,0,0-6.9-6.4H54Z" style="fill:#ffaa5a"/><path d="M144.8,148.5v-.2c.1-.2.1-.3.2-.4,1.8.6,3.9,1.2,6.1,1.7,7.5,2,18.5,4.1,27.7,3.3v.6l-4.5.2c-8.2,0-17-1.8-23.4-3.4l-6.5-1.8h.4Z" style="fill:#ffaa5a"/><path d="M41,13.1l-3.3-1.5,1.3-.2,2.3,1.1A30,30,0,0,1,53.9,24.6c-.1,0-.1.1-.2.2h-.4A28.9,28.9,0,0,0,41,13.1Z" style="fill:#ffaa5a"/><path d="M101.4,107.1h.3v-.3h.1a55.6,55.6,0,0,1,6.2,6.6c2.8,3.5,6.4,8.6,7.9,13.7l-.3.6h-.2c-2.5-9.5-13-19.5-14.1-20.5Z" style="fill:#ffaa5a"/><path d="M116.1,128.3v-.5c1.8,1.1,13.2,8.2,20.6,17.4.5.2,3.3,1.2,7.5,2.5h-2l-5.9-2h-.1c-7.6-9.5-19.6-16.8-20.6-17.4h.4Z" style="fill:#ffaa5a"/><path d="M70,50.9h.1l.3-.2a54.6,54.6,0,0,1,7.2,8.7c3.4,4.9,7.6,12.1,8.3,19.5l-.3.3h-.3c-.7-7.4-4.8-14.6-8.2-19.4a69.1,69.1,0,0,0-7.3-8.9Z" style="fill:#ffaa5a"/><path d="M124.7,105c2.9,3.2,6.6,8,7.6,13.4l-.3.2h-.3c-1-5.4-4.6-10.1-7.5-13.2a33.1,33.1,0,0,0-6.2-5.6h.4l.3-.3A39.2,39.2,0,0,1,124.7,105Z" style="fill:#ffaa5a"/><path d="M162.8,140.3a.2.2,0,0,0-.2.2h-.4c-3.9-6.2-11.8-11.6-17.7-15a111.8,111.8,0,0,0-12.5-6.2h.2l.6-.3a84,84,0,0,1,12,6C150.9,128.4,158.9,133.9,162.8,140.3Z" style="fill:#ffaa5a"/><path d="M118.4,99l-.3.3h-.3a48.3,48.3,0,0,0-5.7-17.8,33.4,33.4,0,0,0-4.5-6.8h.3l.3-.2a33,33,0,0,1,4.4,6.6A47.1,47.1,0,0,1,118.4,99Z" style="fill:#ffaa5a"/><path d="M99.2,53.6a46.8,46.8,0,0,1,8.7,20.2l-.3.3h-.3a45.9,45.9,0,0,0-8.6-20,29.9,29.9,0,0,0-6-6.3H93l.3-.3A26.3,26.3,0,0,1,99.2,53.6Z" style="fill:#ffaa5a"/><path d="M162.9,141.1h0l.6-.5c4.2.6,23.6,3.4,27.5,7.9l-.4.4c-4.1-4.6-26.7-7.6-27.9-7.7h.2Z" style="fill:#ffaa5a"/><path d="M76.8,20.7c-3.7-7.1-8.7-10.2-12.3-11.6a9.6,9.6,0,0,0-3-1l1.7-.2,1.5.5c3.8,1.5,9.1,4.8,12.8,12.3Z" style="fill:#ffaa5a"/><path d="M84.9,28.5c3.3,4.2,7.4,10.8,8.2,18.3l-.4.3h-.3c-.7-7.5-4.7-14-8-18.2a42.6,42.6,0,0,0-7.2-7.5h.3l.4-.2A43.9,43.9,0,0,1,84.9,28.5Z" style="fill:#ffaa5a"/><path d="M114.2,42.2a33.8,33.8,0,0,0-8.7-17.6,23.4,23.4,0,0,0-6.6-5.1h.2l.6-.3a27.7,27.7,0,0,1,6.2,5.1,33.5,33.5,0,0,1,8.9,17.9Z" style="fill:#ffaa5a"/><path d="M182.8,135.9h-.3c-5.3-7.4-26.4-18-27.1-18.3h.3l.3-.3c1.3.6,6.3,3.2,11.6,6.4,8,4.8,13.1,8.8,15.4,11.9A.5.5,0,0,0,182.8,135.9Z" style="fill:#ffaa5a"/><path d="M139.5,95.2a36.7,36.7,0,0,0-5.4-17.7,31.3,31.3,0,0,0-5.2-7.3h.4l.3-.2a36.1,36.1,0,0,1,5.1,7.2c2.3,4.1,5.2,10.5,5.4,17.8l-.4.3Z" style="fill:#ffaa5a"/><path d="M128.7,69.5a42.6,42.6,0,0,0-7.9-19.3,34.3,34.3,0,0,0-6.4-7.3h.4l.3-.3a38.7,38.7,0,0,1,6.2,7.2,42.1,42.1,0,0,1,8.1,19.5l-.4.3Z" style="fill:#ffaa5a"/><path d="M183.4,136.5v-.2c.1-.1.1-.3.2-.4,2.1.4,12.1,2.3,18.7,7.1l-.4.6c-7.1-5.3-18.3-7-18.8-7.1Z" style="fill:#ffaa5a"/><path d="M155.1,116.8c-1.6-5.6-5.6-10.9-8.8-14.4a50.7,50.7,0,0,0-6.6-6.5h.3l.3-.3a49.1,49.1,0,0,1,6.5,6.4c3.2,3.5,7.2,8.9,8.9,14.5-.1.2-.2.3-.2.4Z" style="fill:#ffaa5a"/><path d="M98.3,18.3a26.2,26.2,0,0,0-9-11.8,13.1,13.1,0,0,0-2.7-1.9l1-.2,2.1,1.5a27.1,27.1,0,0,1,9.4,12.7H99Z" style="fill:#ffaa5a"/><path d="M296.2,150.9c.9-5.2,1.2-12.7-3.3-19s-13.2-9.2-19.3-9.9a44.4,44.4,0,0,0-13.6.4l3.9-1.2a40.1,40.1,0,0,1,9.8.1c6.3.7,14.8,3.1,19.8,10.2a20,20,0,0,1,3.7,10,27.7,27.7,0,0,1-.4,9.5,30.2,30.2,0,0,1-2.3,7.6l-.8.2A32.9,32.9,0,0,0,296.2,150.9Z" style="fill:#ffaa5a"/><path d="M272.6,162.4c5-7,5.8-14.6,2.2-22.5s-10.2-12.4-19.7-13.5a28.3,28.3,0,0,0-7.7-.1l2.6-.8a22.4,22.4,0,0,1,5.2.2,26.1,26.1,0,0,1,11.2,3.7,21.5,21.5,0,0,1,9,10.3,22.3,22.3,0,0,1,2,13.2,24.7,24.7,0,0,1-6.1,12.3l-1.2.3A17.9,17.9,0,0,0,272.6,162.4Z" style="fill:#ffaa5a"/><path d="M219.6,133a46.6,46.6,0,0,1,13.9-.9,26.9,26.9,0,0,1,11.2,3.2,19.2,19.2,0,0,1,8.7,9.5c4.4,10.2,3,17.7,1.1,22.1a16.3,16.3,0,0,1-1.9,3.4l-1,.3a26.5,26.5,0,0,0,2.3-3.9c1.8-4.4,3.2-11.7-1.1-21.6-3.2-7.3-9.7-11.5-19.4-12.4a45.4,45.4,0,0,0-13.7.9Z" style="fill:#ffaa5a"/><path d="M53.9,24.6A14.8,14.8,0,0,1,60.2,21a30.7,30.7,0,0,1,7.9-1.1,41.4,41.4,0,0,1,8.7.8h.7c7.6-3.7,13-4.1,16.3-3.7a11.7,11.7,0,0,1,4.5,1.3l.7.4h.1a48,48,0,0,1,18.1-4.3h4.4l.6.7a27.7,27.7,0,0,0-5-.1,46.6,46.6,0,0,0-17.5,4.1l-.6.3h-.5a9.9,9.9,0,0,0-5-1.6c-3.1-.4-8.3-.1-15.7,3.5l-.4.2h-.3a39,39,0,0,0-9.1-.8c-4.4.1-10.3.9-13.8,4.5l-.2.2h-.3c-1.2-.1-17-1.6-19.9,5.3l-.6-.3A7.9,7.9,0,0,1,38,26.4a24.6,24.6,0,0,1,6.9-1.6,60.3,60.3,0,0,1,8.5,0h.4C53.8,24.7,53.8,24.6,53.9,24.6Z" style="fill:#ffaa5a"/><path d="M70.1,50.1a32.8,32.8,0,0,1,15.3-3.6,27.2,27.2,0,0,1,7,.6h.3l.4-.3c4.1-3.2,9.6-4.3,13.6-4.6a31.4,31.4,0,0,1,7.5,0h.6a36,36,0,0,1,17.6-5.7,25.5,25.5,0,0,1,4.8.1,1,1,0,0,1,.4.7,29.9,29.9,0,0,0-5.2-.1,35.9,35.9,0,0,0-17.3,5.4l-.3.3h-.4a33,33,0,0,0-7.7-.1c-3.9.3-9.3,1.4-13.4,4.6l-.3.3h-.3a29.7,29.7,0,0,0-7.3-.7,32.8,32.8,0,0,0-15,3.6l-.3.2h-.3c-1.7,0-19.4-.6-23.3,4.9l-.6-.4c1.8-2.5,6.4-4.2,13.7-4.9a65.5,65.5,0,0,1,9.9-.2h.6Z" style="fill:#ffaa5a"/><path d="M85.9,78.9c3.9-2.7,9.4-3.8,13.5-4.4a42.3,42.3,0,0,1,7.9-.4h.3l.3-.3a30.2,30.2,0,0,1,13.9-4.3,26.6,26.6,0,0,1,6.9,0h.3l.4-.3a33.1,33.1,0,0,1,17.3-6.3,15.6,15.6,0,0,1,3.7-.2l.4.6-4.1.2a33.8,33.8,0,0,0-17.1,6.4l-.3.2h-.4c-1.2-.1-12.2-1.3-20.7,4.3l-.3.2h-.3c-1.5,0-14.5-.1-21.4,4.8l-.3.3h-.4c-1.2-.2-18.2-1.9-23.2,4.3l-.5-.4c2.3-2.8,7-4.5,14-4.8a50.1,50.1,0,0,1,9.5.2h.6Z" style="fill:#ffaa5a"/><path d="M101.5,105.6c1.2-3.1,4.3-5.1,9-6a36.2,36.2,0,0,1,7.3-.4h.3l.3-.3c2.8-2,7.2-3.3,13-3.7a73,73,0,0,1,8.1-.1h.2l.4-.3a34.3,34.3,0,0,1,18.5-6.1,29,29,0,0,1,5.9.1l.5.7a32.7,32.7,0,0,0-6.3-.2,36,36,0,0,0-18.4,6.1l-.3.3h-.3c-1.3-.1-14.7-.9-21,3.7l-.3.3H118a26.5,26.5,0,0,0-7.4.4c-4.9.9-7.9,3-8.8,6.4h-.1v.3h-.4A46.8,46.8,0,0,0,90.9,108a20.6,20.6,0,0,0-7.4,3,8.3,8.3,0,0,0-3.9,5.7H79a8.8,8.8,0,0,1,4.2-6.3,22.4,22.4,0,0,1,7.6-3,50.9,50.9,0,0,1,10.2-1.3h.2Z" style="fill:#ffaa5a"/><path d="M115.6,127.6l.3-.6c1.5-3,4.6-5.3,9.1-6.9a32,32,0,0,1,6.7-1.4h.3l.3-.2a24.8,24.8,0,0,1,15.5-3.1,29.6,29.6,0,0,1,7.3,1.5h.4c0-.1.1-.2.2-.4a18.1,18.1,0,0,1,6.6-5.1,26.4,26.4,0,0,1,8.2-2.3,37.2,37.2,0,0,1,7.4-.4,1.2,1.2,0,0,1,.5.7,34,34,0,0,0-7.8.3c-4.6.7-10.8,2.5-14.5,7.5l-.3.3v.2h-.3a24.7,24.7,0,0,0-7.7-1.7,24.4,24.4,0,0,0-14.9,3l-.6.3H132a23.1,23.1,0,0,0-6.8,1.5c-3.2,1.1-7.4,3.2-8.9,7v.5h-.3a42.9,42.9,0,0,0-9.4,1,17.5,17.5,0,0,0-6.7,2.7,6.9,6.9,0,0,0-3.5,5.2h-.7a8.2,8.2,0,0,1,3.8-5.7,18.4,18.4,0,0,1,6.9-2.7,36.7,36.7,0,0,1,9.2-1.1Z" style="fill:#ffaa5a"/><path d="M144.4,147.8h0c2.3-4.3,15.1-6.7,17.8-7.2h.4l.2-.2c4.9-4.1,16.8-4.4,19.7-4.4h.4a.5.5,0,0,1,.2-.4c1-1.9,4.9-3.7,11.4-5.3,2.8-.8,5.6-1.3,7.6-1.7l1.1.4h.1c-6.3,1-18.1,3.7-19.7,6.9-.1.1-.1.3-.2.4v.2h-.3c-.6,0-14.2,0-19.6,4l-.6.5h-.2c-.9.1-15.3,2.5-17.6,6.8l-.2.4v.2h-.3a23.1,23.1,0,0,0-7.8.8c-5.5,1.4-8.9,4.2-10.3,8.6l-.7-.2c1.5-4.5,5.2-7.6,10.8-9.1a24.6,24.6,0,0,1,5.9-.8Z" style="fill:#ffaa5a"/><path d="M208.9,139.3c9.1-2.9,19.9,12.7,41.9,11.4,16.6-1,46.2-13.6,59.5-19.6,6.8,11.8-2.2,23.6-2.2,23.6s-82,23.9-88.3,23.3a13.1,13.1,0,0,1-3.2-1C211.6,165.7,201.9,141.6,208.9,139.3Z" style="fill:#ffeb81;opacity:0.30000001192092896;isolation:isolate"/><path d="M14.5,15.1l5.1-.8h0s18.8,4.8,35.7,39.2,68.1,79.8,81.9,80c10.2.2,43.8-4.2,62.6-6l3.7,1.4a49.6,49.6,0,0,0,15.7,2.5,4.4,4.4,0,0,1,.6,1.6s-17.1,2.5-20.9,7.8-47.3,37.5-82.7,17.1S54,88.8,54,88.8s-28-70-36.6-70.7a14.6,14.6,0,0,1-5.7-1.5A19.1,19.1,0,0,1,14.5,15.1Z" style="fill:#ffeb81;opacity:0.30000001192092896;isolation:isolate"/><path d="M147.4,187.5c-15.8,0-31.8-6.5-53.5-21.6-24-16.7-40.3-52.7-47.9-72.7C36.8,69,29.5,57.3,21.1,52.8a25.2,25.2,0,0,0-4.7-2.2C10.2,47.8,4.8,45.3,2.8,33.7c-2.5-14.5,10.7-20,10.9-20h.6c.5,0,14.4.7,27.5,24.6l7.1,13.8c15.2,29.8,43.4,85.2,72.2,98.1a73.6,73.6,0,0,0,29.8,6.7h0c21.3,0,34-10.6,35.3-11.8,4.2-3.6,12.5-7.3,20.5-7.3s15.5,2.5,20.4,14.1c3.3,7.8,4,14.3,1.9,19.3a15.3,15.3,0,0,1-8.6,8.3h-.7c-3-.3-5.8-2.3-9.1-4.6s-9.2-6.5-15.6-6.7h-.2c-4.8,0-9.5,3.3-14.9,7.2s-14.4,10.2-25.4,11.6C152.2,187.3,149.8,187.4,147.4,187.5Z" style="fill:#ffeb81"/><path d="M14.2,15.1s13.5.4,26.3,23.9,45.4,97,80,112.5a76.1,76.1,0,0,0,30.4,6.8c18.6,0,31.6-8,36.3-12.1a32.5,32.5,0,0,1,19.5-7c7.3,0,14.8,3.3,19.1,13.2,6.8,16.2.3,23-6,25.6-6.3-.6-13.2-11.1-24.8-11.3h-.2c-11.6,0-20.9,16.3-40.5,18.8-2.2.3-4.5.4-6.9.5-17.2,0-33.8-8.2-52.7-21.4-21.4-14.9-37.6-46.4-47.3-72s-17-36.5-25.6-41.1S6.6,46.9,4.3,33.4s9.9-18.3,9.9-18.3m0-3-1.1.2c-5,2-13.9,9.1-11.8,21.6s8.1,15.2,14.5,18l4.5,2.2c8.2,4.4,15.2,15.8,24.3,39.6,7.6,20.2,24.1,56.5,48.4,73.4,22,15.3,38.3,21.9,54.4,21.9,2.5-.1,4.9-.2,7.3-.5,11.3-1.5,19.5-7.3,26.1-11.9s9.6-6.9,14-6.9h.2c5.9.1,10.6,3.5,14.8,6.4s6.3,4.6,9.7,4.9h.3l1.1-.2c4.6-1.9,7.9-5,9.5-9.1s1.6-12.3-1.9-20.5-11.9-15-21.8-15a35.3,35.3,0,0,0-21.5,7.7c-1.3,1.2-13.6,11.4-34.3,11.4a74,74,0,0,1-29.2-6.6C93.4,136,65.3,80.9,50.2,51.3c-2.7-5.5-5.1-10.2-7.1-13.8C29.6,12.8,14.9,12.1,14.3,12.1Z" style="fill:#ffaa5a"/><path d="M64,128.2l6.8,10.1s33.4,47,78.2,47a67.3,67.3,0,0,0,19-2.9,71.6,71.6,0,0,0,15.1-9.6l1.5-.8c2.4-1.3,7.2-3.6,10-3.6a3.2,3.2,0,0,1,1.4.3c3,1.5,32.4,63.9,32.4,63.9s7.4,13.2-15.2,18.5h0c-10.7,5.5-31.9,13.9-62.3,13.9a197.2,197.2,0,0,1-41.8-4.9C50,246.3,23.7,218.8,16.3,209.6a9.8,9.8,0,0,1-2-7c1-10.5,6.9-41.1,38.7-69.2,1.3-1.2,4-3.3,4-3.3l7-1.9M71.8,231c3.3-11.3,11.1-36.6,21-50.1,0,0-19.9-14.2-33.2-33.1h0s-24.5,27.4-30,55.3c0,0,14.5,14.8,42.2,27.8m88.9-33h.1L178.9,249c16.9-2.4,27.4-7.1,31.4-9.2l1.9-1.1L187,187c-5.8,3.6-18.9,8.4-26.3,11m-3.1,52.6h4.9l-14.7-49.9s-30.8-3-43.7-12c-10,15-18.5,44.9-19.4,48A219.9,219.9,0,0,0,122,247.2a213.5,213.5,0,0,0,35.6,3.4M64,125.2h-.8l-6.9,1.9-1.1.5L51,131.2c-32.2,28.4-38.5,59.2-39.7,71.1a12.2,12.2,0,0,0,2.7,9.1c3.8,4.8,12.4,14.2,27.7,24.2,18.6,12.2,41,21.4,66.8,27.4a196.4,196.4,0,0,0,42.4,5c31.1,0,52.9-8.7,63.3-14.1,9.2-2.2,15-6,17.3-11.2a13.4,13.4,0,0,0-.4-11.4c-.5-1-7.6-16.2-15.1-31.4-15.9-32.5-17.4-33.3-18.7-33.9a4.9,4.9,0,0,0-2.7-.6c-2.6,0-6.4,1.3-11.2,3.9a11.9,11.9,0,0,0-2.2,1.2,68.1,68.1,0,0,1-14.3,9.1,63.6,63.6,0,0,1-17.9,2.7c-22.2,0-41.5-12.3-53.8-22.7a140.3,140.3,0,0,1-21.9-23l-6.8-10.1A3,3,0,0,0,64,125.2Zm-31.1,77c4.7-21.1,20.5-42,26.6-49.5,10.5,13.9,23.8,24.8,29.2,28.9-8.3,12.6-15,32.3-18.7,45.2C49.3,216.6,36.6,205.6,32.9,202.2Zm131.7-2.4a216.7,216.7,0,0,0,21.1-8.6l22.6,46.3c-3.8,2-13,6-27.4,8.3l-16.3-46ZM88.4,234.7c2.3-7.7,8.9-29,16.6-42,12.4,6.9,33.8,9.8,40.5,10.6l13,44.3h-.9a196.7,196.7,0,0,1-35-3.4,214.1,214.1,0,0,1-34.2-9.5Z" style="fill:#6a3417"/><path d="M183.1,172.8s9.8-5.7,12.9-4.1,32.4,63.9,32.4,63.9,7.4,13.2-15.2,18.5c0,0,3.8-7.6.9-15S183.1,172.8,183.1,172.8Z" style="fill:#e69c57"/><path d="M70.8,138.3s43.2,60.9,97.3,44.1c0,0-11.7,14-31,11.1s-51.4-20.9-51.4-20.9L58.4,141.5,57,130.1l7-1.9Z" style="fill:#874c28"/><path d="M29.6,203.2s32.3,32.8,92.4,44,90.2-8.4,90.2-8.4-16.5,23.8-74.4,19.5S24.4,214.8,19.5,207.6v-4.4Z" style="fill:#9a5732"/><path d="M59.6,147.9s-24.5,27.4-30,55.3l-7.8,1.2-2.3-14.3L56,140.8Z" style="fill:#874c28"/><path d="M16.3,209.6c7.4,9.2,33.7,36.7,92.8,50.5,60.7,14,99-5.6,109.3-12a7.7,7.7,0,0,0,3.5-5.4c.3-2.1.4-4.6-.7-5.9l-30.9-62.4a4.5,4.5,0,0,0-6.2-2.2,2.1,2.1,0,0,0-1,.6c-9.1,7.4-31.4,21.8-59.9,14-37.6-10.3-59.6-48.1-59.6-48.1L57,130.1s-2.7,2.1-4,3.3c-31.8,28.1-37.7,58.7-38.7,69.2A9.8,9.8,0,0,0,16.3,209.6Zm155.8,40.9-16.6-50.7s23.3-7.6,31.5-12.8l25.2,51.8S193.1,250.5,172.1,250.5ZM80.4,239.3c4.6-27.1,23.7-50.7,23.7-50.7,12.9,9,43.7,12,43.7,12l14.9,50.6C120.7,260.9,80.4,239.3,80.4,239.3ZM21.8,204.4c6.5-35,34.9-61,34.9-61,13,21.1,36.1,37.5,36.1,37.5-13,17.7-22.5,55.9-22.5,55.9C46.6,228.4,21.8,204.4,21.8,204.4Z" style="fill:#bd743e"/><path d="M104.1,188.6l-3.6-1.6S81,213.4,80.4,239.3l4.3-2.5S93.6,204.4,104.1,188.6Z" style="fill:#874c28"/><polygon points="160.8 198 178.9 249.2 172.1 250.5 155.5 199.8 160.8 198" style="fill:#874c28"/></g></g></svg>