<svg xmlns="http://www.w3.org/2000/svg" viewBox="0 0 100.2 143.8"><g id="Layer_2" data-name="Layer 2"><g id="Layer_1-2" data-name="Layer 1"><path d="M79.8,84.6H30.5c-4.6,0-8.4-2.6-8.8-6L17.7,31c-.3-3.8,3.7-7,8.9-7H83.8c5.1,0,9.1,3.2,8.8,7l-4,47.6C88.3,82,84.4,84.6,79.8,84.6Z" style="fill:#e57225"/><polygon points="18 35.1 92.3 35.1 92.5 31.9 17.8 31.9 18 35.1" style="fill:#c25b28"/><polygon points="91.5 43.7 91.8 40.5 18.5 40.5 18.8 43.7 91.5 43.7" style="fill:#c25b28"/><polygon points="90.1 60.9 90.4 57.7 19.9 57.7 20.2 60.9 90.1 60.9" style="fill:#c25b28"/><polygon points="90.8 52.3 91.1 49.1 19.2 49.1 19.5 52.3 90.8 52.3" style="fill:#c25b28"/><path d="M19.3,49.7l2.4,28.9c.4,3.4,4.2,6,8.8,6H79.8c4.6,0,8.5-2.6,8.8-6L91,50C60.5,67.4,32.4,56.8,19.3,49.7Z" style="fill:#060707;opacity:0.11"/><path d="M79.8,84.6H30.5c-4.6,0-8.4-2.6-8.8-6L17.7,31c-.3-3.8,3.7-7,8.9-7H83.8c5.1,0,9.1,3.2,8.8,7l-4,47.6C88.3,82,84.4,84.6,79.8,84.6Z" style="fill:none;stroke:#6a3417;stroke-miterlimit:10;stroke-width:3px"/><path d="M81.8,86.6H28.5c-9.3,0-16.9-5.7-16.9-12.8H98.7C98.7,80.9,91.1,86.6,81.8,86.6Z" style="fill:#ad5224;stroke:#6a3417;stroke-miterlimit:10;stroke-width:3px"/><path d="M71.7,86.6H38.6c-5.7,0-10.4-5.7-10.4-12.8H82.1C82.1,80.9,77.4,86.6,71.7,86.6Z" style="fill:#e57225;stroke:#6a3417;stroke-miterlimit:10;stroke-width:3px"/><path d="M22.4,29.6c-8.1-5.1-13.4,3.1-8.7,7,1.5,1.2,3.6,1.1,5.4-.4a3.4,3.4,0,0,0-.2-5.1c-1.8-1.3-3.4-.4-3.8.8s1.7,3.2,2.6,1.8c-1.2,1.2-2.6-.4-2.2-1.6s5.6-.1,3.7,2.9-3.4,2.6-5.1,1.2a4,4,0,0,1-.2-5.9c2.8-3.3,10.2-1.6,12.6,7.1,1.3,4.5.8,7.1-.2,11.5.5.6,2.3,1.4,2.8,1.9,1-7.4.4-16.8-6.7-21.2Z" style="fill:#2c4215;fill-rule:evenodd"/><path d="M21.9,103.6c1.4-2.9,4.5-.9,4.3,1.5a3.9,3.9,0,0,1-6.1,2.6c-2.8-1.9-4-7.6,3.1-13.5a44.3,44.3,0,0,0,6.6-6.4c2-2.7,3.2-7.7,4.3-11,1.6-11.6-5.8-22.4-.2-28.7s10.6.6,9,4.5a4,4,0,0,1-2.3,2.1c-4.9,1.7-5-5.8-.9-4.9-3.5-.3-2.5,4.6.2,4.2s2.9-4,.7-5.8a4.2,4.2,0,0,0-3.6-.9c-1.8.5-3.5,2.2-4.1,5.6-1.2,6.7,4.4,15.9,1.9,25.7A32.6,32.6,0,0,1,31,88.1c-2.2,3.4-4.7,4.9-7,6.8-5.4,4.2-5.9,10.6-3.2,12s4,.4,4.3-1.9-1.4-3-3.2-1.4Z" style="fill:#2c4215;fill-rule:evenodd"/><path d="M33.1,61.6C30.3,53.7,19.5,46.7,13,55.1c-2.8,3.6-3.8,9.5,1.3,12.1,7.2,3.6,10.9-5.9,7-8.5s-4.4,1.1-3.9,2.7a1.6,1.6,0,0,0,2.4,1,1.4,1.4,0,0,1-1.9-1.2A1.9,1.9,0,0,1,21,59.4c3,2.4-.3,10.6-6.4,7.2-10.1-5.5,5.7-26.3,17.2-5.7,1.3,2.3,2.4,8.7,3,11.6-.6-3.7-1.1-7.3-1.7-10.9Z" style="fill:#2c4215;fill-rule:evenodd"/><path d="M28,51.5l1.4-1.1c2.3,4.9,2.9,8.6,4.2,13.3-1.5-3.9-3.1-8.9-5.6-12.2Z" style="fill:#2c4215;fill-rule:evenodd"/><path d="M24.9,50.2c3.9,3.8,6.5.8,3.6-3.2-1,1-2.6,2.2-3.6,3.2Z" style="fill:#4b6632;fill-rule:evenodd"/><path d="M27.3,49.9h.2c-1.4-6.9-3.6-6.1-8.3-10.7,3.7,4.7,1.3,8.6,8.1,10.8Z" style="fill:#5e7d40;fill-rule:evenodd"/><path d="M23.5,50c-3.2-.7-3.7-2.6-3.8-5.4a12.9,12.9,0,0,0-1-4.8c1.6,3.5,3.1,6.7,4.8,10.2Z" style="fill:#5e7d40;fill-rule:evenodd"/><path d="M19.1,39.6c3.4,3.6,3.7,7.1,8.3,10.3a4,4,0,0,1-5.3-.7c-2.5-2.6-1.1-6.6-3-9.6Z" style="fill:#8bab6c;fill-rule:evenodd"/><path d="M27.6,49.5a5.6,5.6,0,0,0,.6-7.1c-1.7-2.6-5.6-1.8-7.4-3.8,4.3,6.3,5.9,6.7,6.8,10.9Z" style="fill:#5e7d40;fill-rule:evenodd"/><path d="M27.5,49.8c-4.8-4.6-4-6.3-7.8-11.3,1.8,1.8,12.3,4.7,7.8,11.3Z" style="fill:#7b995c;fill-rule:evenodd"/><path d="M21.5,47.6c-.7-1.4-.6-3.3-1.6-6.5,3,5.2,1.8,6.5,5.3,9.1-1.7-.4-3-1-3.7-2.6Z" style="fill:#9bb87f;fill-rule:evenodd"/><path d="M20.9,39.6c4.1,3.8,5.2,3.5,5.6,8.3-2.1-2.1-3.9-5.8-5.6-8.3Z" style="fill:#8bab6c;fill-rule:evenodd"/><path d="M19.1,85.3c6.3-1.6,3.1-9.1-2-9.6a10.4,10.4,0,0,1,.6-1.6c5.3,1.4,8.6,9.8,1.4,11.2Z" style="fill:#2c4215;fill-rule:evenodd"/><path d="M13.7,76.2c5.3,1.2,5.8-2.7,1.4-4.5-.4,1.3-1.1,3.2-1.4,4.5Z" style="fill:#4b6632;fill-rule:evenodd"/><path d="M15.6,74.7v-.2c-4.8-5-6.2-3.2-12.6-4.7,5.5,2.1,5.6,6.6,12.5,4.9Z" style="fill:#5e7d40;fill-rule:evenodd"/><path d="M12.4,76.8c-3.1,1.1-4.5-.3-6-2.6A12.6,12.6,0,0,0,3,70.7l9.4,6.1Z" style="fill:#5e7d40;fill-rule:evenodd"/><path d="M3.2,70.4c4.9,1.2,6.9,4,12.4,4.3a4.1,4.1,0,0,1-4.8,2.2c-3.5-.9-4.4-5-7.6-6.5Z" style="fill:#8bab6c;fill-rule:evenodd"/><path d="M15.6,74.2A5.5,5.5,0,0,0,12.4,68c-2.8-1.4-5.7,1.3-8.2.6,6.9,3.1,8.4,2.5,11.4,5.6Z" style="fill:#5e7d40;fill-rule:evenodd"/><path d="M15.7,74.5C9.2,73.2,9,71.3,3.2,69.1c2.4.6,12.8-2.5,12.5,5.4Z" style="fill:#7b995c;fill-rule:evenodd"/><path d="M9.5,75.8c-1.3-.8-2.3-2.5-4.8-4.6C10,74,9.6,75.7,14,76c-1.7.6-3.1.8-4.5-.2Z" style="fill:#9bb87f;fill-rule:evenodd"/><path d="M4.8,69.4c5.4,1.1,6.2.2,9,4.1-2.8-.7-6.3-2.9-9-4.1Z" style="fill:#8bab6c;fill-rule:evenodd"/><path d="M25.9,77.6c7.7-2.4,12.6-8,13.1-15.2-.2-.9-1.5-6.4-2.4-9.2,2.2,8.4.5,19.5-10.7,24.4Z" style="fill:#2c4215;fill-rule:evenodd"/><path d="M44.6,69.7c1-3.7,3.3-3.1,5.6-3.8l-.4.3c1.5-.2,2.2.5,3.5.6l-.4.2a6.7,6.7,0,0,1,3,2.2,14.8,14.8,0,0,1-2.5,2.5c.2,0,.3.2.4.3s-1.1,1.1-3.8.9l.5.5c-1.9-.7-4.8-.6-5.9-3.7Z" style="fill:#5e7d40;fill-rule:evenodd"/><path d="M48,72.7a4.6,4.6,0,0,1-3.4-3h.3l5.3-.2c-.3.6-3.1.1-1,1.4a7.8,7.8,0,0,0,3.3.9c-1.8.5-2.9.8-4.4.4s-.6.1-.1.5Z" style="fill:#779657;fill-rule:evenodd"/><path d="M43.4,69.7c2.9-.1,6.6-.4,9.5-.4-3.1.4-6.8.7-9.5.8v-.4Z" style="fill:#2c4215;fill-rule:evenodd"/><path d="M55.2,68.7a8.8,8.8,0,0,0-3.1-1.5l.5-.2a7.2,7.2,0,0,0-3.5-.3l.3-.4a5,5,0,0,0-2.2,1.1c1.2.1,2.6.2,3.4,1.2a1.1,1.1,0,0,0-.3-1.2,15.9,15.9,0,0,1,4.9,1.3Z" style="fill:#779657;fill-rule:evenodd"/><path d="M41.8,67.8c2.3,3.1.4,4.6-.4,6.8a4.3,4.3,0,0,1-.1-.5c-.7,1.3-1.7,1.4-2.6,2.5a.9.9,0,0,0,.1-.5,6.5,6.5,0,0,1-3.5,1,10.2,10.2,0,0,1-.5-3.5l-.5.2c1.1-1-.2-1.6,1.6-3.6h-.7c1.8-1.1,3.4-3.5,6.6-2.5Z" style="fill:#5e7d40;fill-rule:evenodd"/><path d="M37.3,68.7a4.8,4.8,0,0,1,4.5-.9l-.2.3-3.1,4.3c-.3-.6,1.8-2.5-.5-1.6a6.8,6.8,0,0,0-2.7,2c.7-1.7,1.1-2.7,2.4-3.6s.3-.6-.4-.5Z" style="fill:#779657;fill-rule:evenodd"/><path d="M42.5,67c-1.6,2.3-3.8,5.4-5.5,7.6,1.6-2.6,3.6-5.7,5.2-7.9l.3.3Z" style="fill:#2c4215;fill-rule:evenodd"/><path d="M36.1,76.9a9,9,0,0,0,3.1-1.5c-.1.1-.1.3-.2.4a6.4,6.4,0,0,0,2.4-2.5v.5a3.9,3.9,0,0,0,.5-2.5c-.8.9-1.8,2-3,2a1.2,1.2,0,0,0,1.1.5,17.3,17.3,0,0,1-4,3.1Z" style="fill:#779657;fill-rule:evenodd"/><path d="M36.7,51c5.8,12.9,7.9,18.7,7.8,28.9-.5-7.2-1.7-12.7-6.7-22.5-.2-2.1-.8-4.3-1.1-6.4Z" style="fill:#2c4215;fill-rule:evenodd"/><path d="M44.3,75.2c3.8.6,3.4,3,4.4,5.2-.1-.2-.3-.3-.4-.4.4,1.5-.2,2.2-.1,3.6l-.3-.4A6.2,6.2,0,0,1,46,86.4a14.4,14.4,0,0,1-2.7-2.2l-.3.4c.1-1.4-1.2-1-1.3-3.7l-.4.6c.5-2,0-4.9,3-6.3Z" style="fill:#5e7d40;fill-rule:evenodd"/><path d="M41.7,78.9a4.5,4.5,0,0,1,2.6-3.7v.3l.8,5.2c-.6-.2-.4-3-1.5-.8a6.4,6.4,0,0,0-.5,3.3c-.7-1.7-1.2-2.7-.9-4.2s-.1-.6-.5-.1Z" style="fill:#779657;fill-rule:evenodd"/><path d="M44.2,74c.4,2.8,1.1,6.6,1.4,9.4-.7-3-1.4-6.6-1.8-9.4Z" style="fill:#2c4215;fill-rule:evenodd"/><path d="M46.5,85.7a9.2,9.2,0,0,0,1.1-3.3c.1.2.2.3.2.5a5.8,5.8,0,0,0,0-3.5l.4.2a4,4,0,0,0-1.3-2.1c0,1.2.1,2.7-.9,3.5a1.1,1.1,0,0,0,1.2-.3,18.9,18.9,0,0,1-.7,5Z" style="fill:#779657;fill-rule:evenodd"/><path d="M39.7,82.4c-.2,3.2,3.4,3,4.4.9A3.8,3.8,0,0,0,40.2,78c-3.4.3-7.3,4.6-4.1,13.2a41.1,41.1,0,0,1,2.6,8.9c.4,3.3-1.1,8.3-1.7,11.6-4.5,10.9-16.2,16.6-14.5,24.9,1.3,6.3,9.5,4.7,10,.5a3.8,3.8,0,0,0-.9-2.9c-3.4-3.9-7.3,2.6-3.2,3.8-3.2-1.5,0-5.2,2.2-3.6s.6,5-2.3,5.5a3.9,3.9,0,0,1-3.5-1.1c-1.3-1.3-2-3.6-.8-6.9,2.3-6.4,11.8-11.6,14.4-21.3a33.7,33.7,0,0,0,1.5-10.2c-.2-4.1-1.6-6.5-2.8-9.3-2.5-6.3.2-12.2,3.3-12.1s3.6,1.7,2.8,3.9-2.8,1.9-3.5-.5Z" style="fill:#2c4215;fill-rule:evenodd"/><path d="M42.1,79.2c-4.9-1.3-5.6,4.9-2.4,7.3l-1,.8c-3-3-2-10,3.4-8.1Z" style="fill:#2c4215;fill-rule:evenodd"/><path d="M28.5,124.5c-6.3,5.5-19.2,6.1-20.6-4.4-.7-4.5,1.4-10.1,7-9.8,8.1.4,6.6,10.5,1.9,10.8-3,.2-3.3-3.1-2-4.3a1.7,1.7,0,0,1,2.6.4,1.3,1.3,0,0,0-2.2.1,1.8,1.8,0,0,0,1.8,3c3.7-.5,4.9-9.2-2.1-9.4-11.4-.2-8.1,25.7,12.1,13.5,2.3-1.3,6.4-6.3,8.4-8.5l-6.9,8.6Z" style="fill:#2c4215;fill-rule:evenodd"/><path d="M19.1,130.7c.1.6.5,1,.6,1.6,4.5-3.1,6.8-6,10.3-9.5-3.2,2.8-7.1,6.2-10.9,7.9Z" style="fill:#2c4215;fill-rule:evenodd"/><path d="M23.9,116.2c6.2.7,11.4-1.7,14-6.7.1-.7.9-5,1.2-7.3-1.1,6.7-5.8,14-15.2,14Z" style="fill:#2c4215;fill-rule:evenodd"/><path d="M19.9,94c-9.6.3-10.1-9.3-4-10.4,1.8-.3,3.6.8,4.4,3a3.3,3.3,0,0,1-2.7,4.3,2.3,2.3,0,0,1-2.9-2.6c.3-2,3.1-1.9,3.1-.2-.4-1.6-2.5-.9-2.6.3-.4,2.8,4.7,2.8,4.6-.7-.1-1.8-1.6-3.9-3.8-3.5s-3.6,2.7-3.2,5c.9,4.2,8.2,6.4,14.6.1,3.3-3.3,4.2-5.8,5.5-10.2.7-.2,2.7,0,3.4-.2-2.8,7-8,14.8-16.4,15.1Z" style="fill:#2c4215;fill-rule:evenodd"/><path d="M42.2,87.4c-3.1-2.8-5-.4-2.7,2.5a32,32,0,0,0,2.7-2.5Z" style="fill:#4b6632;fill-rule:evenodd"/><path d="M40.4,87.7h-.2c1.3,5.2,2.9,4.5,6.7,8-2.9-3.5-1.2-6.6-6.5-8.1Z" style="fill:#5e7d40;fill-rule:evenodd"/><path d="M43.3,87.5c2.5.4,2.9,1.9,3,4a11.3,11.3,0,0,0,1,3.7l-4-7.7Z" style="fill:#5e7d40;fill-rule:evenodd"/><path d="M47,95.4c-2.8-2.7-3.1-5.4-6.7-7.7a3.1,3.1,0,0,1,4.1.4c2,1.9,1,5,2.6,7.3Z" style="fill:#8bab6c;fill-rule:evenodd"/><path d="M40.2,88a4.2,4.2,0,0,0-.3,5.4c1.4,2,4.3,1.3,5.8,2.8-3.5-4.7-4.7-5-5.5-8.2Z" style="fill:#5e7d40;fill-rule:evenodd"/><path d="M40.2,87.7c3.9,3.4,3.3,4.8,6.3,8.5-1.4-1.3-9.5-3.3-6.3-8.5Z" style="fill:#7b995c;fill-rule:evenodd"/><path d="M44.9,89.3c.6,1,.6,2.5,1.4,4.9-2.5-3.9-1.5-4.9-4.3-6.8a3.7,3.7,0,0,1,2.9,1.9Z" style="fill:#9bb87f;fill-rule:evenodd"/><path d="M45.6,95.4c-3.3-2.8-4.1-2.5-4.5-6.2,1.6,1.5,3.1,4.3,4.5,6.2Z" style="fill:#8bab6c;fill-rule:evenodd"/><path d="M15.7,130.3c5.3-1.4,6,2.5,1.6,4.5-.4-1.3-1.2-3.2-1.6-4.5Z" style="fill:#4b6632;fill-rule:evenodd"/><path d="M17.7,131.7c0,.1.1.2.1.3-4.7,5.1-6.1,3.4-12.6,5.1,5.6-2.3,5.4-6.8,12.5-5.4Z" style="fill:#5e7d40;fill-rule:evenodd"/><path d="M14.4,129.8c-3.1-1.1-4.5.4-5.9,2.7a12,12,0,0,1-3.4,3.7c3.2-2.2,6.1-4.3,9.3-6.4Z" style="fill:#5e7d40;fill-rule:evenodd"/><path d="M5.4,136.6c4.8-1.5,6.8-4.4,12.3-4.9a4,4,0,0,0-4.9-2c-3.5,1-4.3,5.2-7.4,6.9Z" style="fill:#8bab6c;fill-rule:evenodd"/><path d="M17.7,132.2a5.7,5.7,0,0,1-3,6.5c-2.8,1.4-5.7-1.2-8.3-.4,6.9-3.3,8.4-2.9,11.3-6.1Z" style="fill:#5e7d40;fill-rule:evenodd"/><path d="M17.8,131.9c-6.5,1.6-6.7,3.5-12.4,5.9,2.4-.6,13,2,12.4-5.9Z" style="fill:#7b995c;fill-rule:evenodd"/><path d="M11.5,130.8c-1.3.9-2.2,2.6-4.6,4.9,5.2-3,4.7-4.8,9.1-5.2-1.7-.5-3.1-.7-4.5.3Z" style="fill:#9bb87f;fill-rule:evenodd"/><path d="M7,137.5c5.4-1.3,6.2-.5,8.9-4.5-2.8.8-6.2,3.2-8.9,4.5Z" style="fill:#8bab6c;fill-rule:evenodd"/><path d="M39.6,116.4c1.9-2.3,3.3-1.2,5.2-1l-.4.2c1.1.3,1.3,1,2.3,1.4h-.4a4.1,4.1,0,0,1,1.4,2.4,6.9,6.9,0,0,1-2.5,1,.4.4,0,0,1,.2.4c-.9-.7-1.1.4-2.9-.6a4.3,4.3,0,0,0,.1.5c-1.1-1-3.2-1.8-3-4.4Z" style="fill:#5e7d40;fill-rule:evenodd"/><path d="M41.1,119.6a3.5,3.5,0,0,1-1.5-3.2h.2l3.8,1.5c-.4.3-2.2-.9-1.1.7a6.2,6.2,0,0,0,2,1.6,5.6,5.6,0,0,1-3.2-1.1c-.6-.5-.4-.1-.2.4Z" style="fill:#779657;fill-rule:evenodd"/><path d="M38.8,116c2,.8,4.8,1.8,6.8,2.7-2.3-.7-5-1.6-7-2.4l.2-.3Z" style="fill:#2c4215;fill-rule:evenodd"/><path d="M47.4,119a6,6,0,0,0-1.7-2.1h.4a4.4,4.4,0,0,0-2.4-1.3l.4-.2a3.5,3.5,0,0,0-2,.1,3.6,3.6,0,0,1,2.1,1.9,1,1,0,0,0,.2-.9,10.6,10.6,0,0,1,3,2.4Z" style="fill:#779657;fill-rule:evenodd"/><path d="M38.2,114.2c.7,2.9-1.2,3.4-2.4,4.7s.1-.3.1-.4-1.6.5-2.6.9.2-.2.2-.3a4.8,4.8,0,0,1-2.8-.3,9.2,9.2,0,0,1,.8-2.7c-.2.1-.3,0-.4,0s.3-1.2,2.2-2l-.5-.2c1.5-.2,3.4-1.4,5.4.3Z" style="fill:#5e7d40;fill-rule:evenodd"/><path d="M34.7,113.4a3.9,3.9,0,0,1,3.5.8h-.3l-3.4,2.1c-.1-.5,2-1.1.1-1.3a6.6,6.6,0,0,0-2.5.6,5,5,0,0,1,2.7-1.8c.9-.2.4-.3-.1-.5Z" style="fill:#779657;fill-rule:evenodd"/><path d="M39,113.8l-6.3,3.8c1.9-1.4,4.3-3,6.1-4.1l.2.3Z" style="fill:#2c4215;fill-rule:evenodd"/><path d="M31.3,118.9a7.6,7.6,0,0,0,2.7-.2l-.3.3a5.8,5.8,0,0,0,2.5-1.1v.4a4.1,4.1,0,0,0,1.1-1.6c-.9.4-1.9.9-2.8.5a1,1,0,0,0,.6.7,15.3,15.3,0,0,1-3.8,1Z" style="fill:#779657;fill-rule:evenodd"/><path d="M39.8,100.7c.1,10.9-.2,15.7-3.5,22.9,1.9-5.3,2.8-9.5,2.3-18,.5-1.5.7-3.3,1.2-4.9Z" style="fill:#2c4215;fill-rule:evenodd"/><path d="M37.7,120.2c2.5,1.6,1.5,3.2,1.5,5,0-.1-.1-.2-.2-.4s-.8,1.5-1.2,2.5V127a5.1,5.1,0,0,1-2.3,1.6,7,7,0,0,1-1.3-2.4c-.1.2-.2.2-.3.3s-.6-1.1.2-3l-.5.2c1-1.2,1.5-3.4,4.1-3.5Z" style="fill:#5e7d40;fill-rule:evenodd"/><path d="M34.7,122a3.6,3.6,0,0,1,3-1.8v.2l-1,4c-.4-.4.6-2.3-.9-1.1a6.4,6.4,0,0,0-1.4,2.2,5.8,5.8,0,0,1,.8-3.3c.5-.7,0-.4-.4-.2Z" style="fill:#779657;fill-rule:evenodd"/><path d="M38,119.4c-.6,2.1-1.3,4.9-2,7,.5-2.3,1.1-5.1,1.7-7.2l.3.2Z" style="fill:#2c4215;fill-rule:evenodd"/><path d="M36,128.3a8.4,8.4,0,0,0,1.8-2v.4a5.3,5.3,0,0,0,1.1-2.5l.2.3a3.4,3.4,0,0,0-.3-1.9,4,4,0,0,1-1.7,2.3.9.9,0,0,0,.9.1,13.2,13.2,0,0,1-2,3.3Z" style="fill:#779657;fill-rule:evenodd"/><path d="M58.2,55.7c-2-2.4-4.5.2-3.7,2.5s4.6,3.1,6.5,1,2-8.3-6.3-12.3a46.5,46.5,0,0,1-8-4.7c-2.6-2.1-4.9-6.6-6.7-9.5-4.3-10.9.2-23.2-6.8-28-5.3-3.6-10.1,3.2-7.6,6.5a3.7,3.7,0,0,0,2.7,1.5c5.2.5,3.5-6.8-.3-4.9,3.3-1.2,3.6,3.8.9,4.1S25,8.7,26.7,6.4A4.3,4.3,0,0,1,30,4.7c1.9,0,4,1.2,5.4,4.4,2.8,6.2-.5,16.6,4.3,25.4a30.6,30.6,0,0,0,6,8.3c3,2.8,5.7,3.7,8.4,4.9,6.2,2.8,8.3,8.9,6,11s-3.8,1.3-4.7-.9.7-3.3,2.8-2.1Z" style="fill:#2c4215;fill-rule:evenodd"/><path d="M49,22.9c3.8,3.4,7.2-1.9,5.4-5.4l1.2-.3C57,21.2,53,27,49,22.9Z" style="fill:#2c4215;fill-rule:evenodd"/><path d="M41.6,20.3c-3.1,5.4-3.1,11.1.5,15.5.6.4,4.2,2.9,6.1,4-5.6-3.7-10.4-10.9-6.6-19.5Z" style="fill:#2c4215;fill-rule:evenodd"/><path d="M75.5,19.7c8.7,3.9,4.8,12.8-1.1,11.1a4.1,4.1,0,0,1-2.6-4.7,3.3,3.3,0,0,1,4.3-2.7,2.4,2.4,0,0,1,1.5,3.7c-1.2,1.7-3.6.3-3-1.2-.3,1.6,1.9,1.9,2.5.9s-2.9-4.7-4.4-1.5-.3,4.3,1.8,4.9a4.2,4.2,0,0,0,5.1-3.1c1.2-4.1-4.4-9.3-13-6.6-4.4,1.4-6.3,3.3-9.4,6.6-.8-.1-2.4-1.2-3.2-1.3,5.7-5,13.9-9.6,21.5-6.1Z" style="fill:#2c4215;fill-rule:evenodd"/><path d="M25.7,9.7c3.4-4.4,6.3-1.8,4.1,2.5-1.2-.8-3-1.7-4.1-2.5Z" style="fill:#4b6632;fill-rule:evenodd"/><path d="M28.1,9.5l.3.2c-.5,6.9-2.7,6.4-6.7,11.8,3-5.2,0-8.7,6.4-12Z" style="fill:#5e7d40;fill-rule:evenodd"/><path d="M24.3,10.1c-3,1.1-3.2,3.1-2.8,5.8a13.4,13.4,0,0,1-.4,4.9l3.2-10.7Z" style="fill:#5e7d40;fill-rule:evenodd"/><path d="M21.5,21c2.9-4.1,2.7-7.7,6.7-11.5A4,4,0,0,0,23.1,11c-2.1,3-.1,6.7-1.6,10Z" style="fill:#8bab6c;fill-rule:evenodd"/><path d="M28.5,9.9a5.7,5.7,0,0,1,1.7,6.9c-1.3,2.9-5.3,2.7-6.8,4.9,3.3-6.9,4.8-7.5,5.1-11.8Z" style="fill:#5e7d40;fill-rule:evenodd"/><path d="M28.4,9.6c-4.1,5.3-3.1,6.9-6.1,12.3,1.5-2,11.4-6.4,6.1-12.3Z" style="fill:#7b995c;fill-rule:evenodd"/><path d="M22.7,12.7c-.4,1.5-.1,3.4-.6,6.6,2.2-5.5.8-6.6,4-9.7-1.6.7-2.9,1.4-3.4,3.1Z" style="fill:#9bb87f;fill-rule:evenodd"/><path d="M23.3,20.7c3.5-4.4,4.6-4.2,4.3-9.1-1.7,2.4-2.9,6.4-4.3,9.1Z" style="fill:#8bab6c;fill-rule:evenodd"/><path d="M52.5,31.7c-.9-9.6,11-8.9,14.4-2.1L68.7,28c-4.5-6.7-18-7-16.2,3.7Z" style="fill:#2c4215;fill-rule:evenodd"/><path d="M67.9,34.6c-4.4-6.8.7-9.5,5.5-4.3l-5.5,4.3Z" style="fill:#4b6632;fill-rule:evenodd"/><path d="M68.9,31.2c.1-.1.3-.2.3-.3,9.3,4.2,7.6,6.9,12.9,15.1-5.7-6.6-12-4.4-13.2-14.8Z" style="fill:#5e7d40;fill-rule:evenodd"/><path d="M67.7,36.6c0,4.8,2.6,6.1,6.5,7a20.7,20.7,0,0,1,6.6,2.9L67.7,36.6Z" style="fill:#5e7d40;fill-rule:evenodd"/><path d="M81.2,46c-4.1-6-9.1-7.5-12.3-14.9a5.9,5.9,0,0,0-.5,7.7c3,4.5,9.2,3.6,12.8,7.2Z" style="fill:#8bab6c;fill-rule:evenodd"/><path d="M69.7,30.9a8.2,8.2,0,0,1,10.2,1.2c3.3,3.3,1,8.6,3.3,11.7-7.7-8-7.8-10.4-13.5-12.9Z" style="fill:#5e7d40;fill-rule:evenodd"/><path d="M69.1,30.9c5.1,8.3,7.9,7.7,13.8,14.5-1.9-3-3-18.9-13.8-14.5Z" style="fill:#7b995c;fill-rule:evenodd"/><path d="M70.5,40.2c1.8,1.4,4.6,1.9,8.8,4.2-6.5-5.9-8.7-4.5-11.3-10.3.1,2.5.5,4.6,2.5,6.1Z" style="fill:#9bb87f;fill-rule:evenodd"/><path d="M81.7,43.4c-4.1-7-3.4-8.4-10.2-10.4,2.4,3.5,7.2,7.2,10.2,10.4Z" style="fill:#8bab6c;fill-rule:evenodd"/><path d="M52,17.1c2.1,5.8,6.1,4,5.1-1.4-1.5.5-3.7.9-5.1,1.4Z" style="fill:#4b6632;fill-rule:evenodd"/><path d="M54.5,18.1h.3c1.8-7.5-.7-7.8-3.2-14.7,1.4,6.4-2.8,9.2,2.9,14.8Z" style="fill:#5e7d40;fill-rule:evenodd"/><path d="M50.7,16.2c-2.9-2.1-2.5-4.3-1.2-7.1a14.1,14.1,0,0,0,1.2-5.3V16.2Z" style="fill:#5e7d40;fill-rule:evenodd"/><path d="M51.2,3.7c1.8,5.3.4,9,3.4,14.4a4.4,4.4,0,0,1-4.9-3.3c-1.3-3.8,2-7.2,1.5-11.1Z" style="fill:#8bab6c;fill-rule:evenodd"/><path d="M55,17.7A6.1,6.1,0,0,0,59,11c-.4-3.5-4.7-4.6-5.5-7.4,1.2,8.3,2.6,9.5,1.5,14.1Z" style="fill:#5e7d40;fill-rule:evenodd"/><path d="M54.8,18.1c-2.7-7-1-8.3-2.4-15.1.9,2.6,10,10.6,2.4,15.1Z" style="fill:#7b995c;fill-rule:evenodd"/><path d="M49.8,12.9c0-1.7,1-3.6,1.5-7.2.6,6.6-1.3,7.3,1,11.6-1.5-1.2-2.5-2.4-2.5-4.4Z" style="fill:#9bb87f;fill-rule:evenodd"/><path d="M53,4.6c2.3,5.8,3.6,6,1.6,11-1-3-1-7.6-1.6-11Z" style="fill:#8bab6c;fill-rule:evenodd"/><path d="M46.7,47.7c-4-3.8-6.5-.8-3.6,3.2,1-1,2.6-2.2,3.6-3.2Z" style="fill:#4b6632;fill-rule:evenodd"/><path d="M44.3,48H44c1.5,6.9,3.6,6.1,8.4,10.8-3.7-4.8-1.3-8.7-8.1-10.9Z" style="fill:#5e7d40;fill-rule:evenodd"/><path d="M48.1,47.9c3.2.7,3.7,2.6,3.7,5.4a15.3,15.3,0,0,0,1.1,4.8c-1.7-3.5-3.1-6.7-4.8-10.2Z" style="fill:#5e7d40;fill-rule:evenodd"/><path d="M52.5,58.3C49,54.7,48.7,51.2,44.2,48a4.1,4.1,0,0,1,5.3.7c2.5,2.6,1.1,6.6,3,9.6Z" style="fill:#8bab6c;fill-rule:evenodd"/><path d="M44,48.4a5.7,5.7,0,0,0-.7,7.1c1.8,2.7,5.7,1.8,7.5,3.8C46.5,53,44.9,52.6,44,48.4Z" style="fill:#5e7d40;fill-rule:evenodd"/><path d="M44,48.1c4.9,4.6,4.1,6.3,7.8,11.3-1.7-1.8-12.2-4.7-7.8-11.3Z" style="fill:#7b995c;fill-rule:evenodd"/><path d="M50.1,50.3c.7,1.4.6,3.3,1.6,6.5-3-5.2-1.8-6.5-5.4-9,1.7.4,3,.9,3.8,2.5Z" style="fill:#9bb87f;fill-rule:evenodd"/><path d="M50.7,58.3c-4.1-3.8-5.2-3.5-5.6-8.3,2.1,2.1,3.9,5.8,5.6,8.3Z" style="fill:#8bab6c;fill-rule:evenodd"/><path d="M35.1,34.5c1.3,2.7-.4,3.6-1.3,5.2a.9.9,0,0,0,.1-.5c-.8.9-1.5.9-2.3,1.6v-.4a4.8,4.8,0,0,1-2.8.3A8.2,8.2,0,0,1,29,38h-.4c.9-.6,0-1.3,1.7-2.5h-.5c1.4-.6,3-2.2,5.3-1Z" style="fill:#5e7d40;fill-rule:evenodd"/><path d="M31.5,34.6a3.8,3.8,0,0,1,3.6-.1l-.2.2L32,37.6c-.2-.5,1.7-1.7-.2-1.3a4.5,4.5,0,0,0-2.3,1.1A5.2,5.2,0,0,1,31.7,35c.8-.4.3-.4-.2-.4Z" style="fill:#779657;fill-rule:evenodd"/><path d="M35.7,34l-5.2,5.1c1.6-1.8,3.5-3.9,5-5.4.1.1.2.2.2.3Z" style="fill:#2c4215;fill-rule:evenodd"/><path d="M29.5,40.7a6.6,6.6,0,0,0,2.6-.8.5.5,0,0,0-.2.4A7.1,7.1,0,0,0,34,38.6c0,.2,0,.3.1.4a4.2,4.2,0,0,0,.7-1.8c-.8.6-1.6,1.3-2.6,1.1a1,1,0,0,0,.8.5,13.5,13.5,0,0,1-3.5,1.9Z" style="fill:#779657;fill-rule:evenodd"/><path d="M37.6,34.1c-2.9-.5-2.6-2.4-3.3-4l.3.2c-.2-1.1.3-1.7.2-2.7l.2.3a5,5,0,0,1,1.5-2.4,11.2,11.2,0,0,1,2.1,1.7l.2-.3c-.1,1.1.9.8.9,2.8l.4-.4c-.4,1.6-.1,3.8-2.5,4.8Z" style="fill:#5e7d40;fill-rule:evenodd"/><path d="M39.7,31.3a3.3,3.3,0,0,1-2.1,2.8v-.2l-.5-4.1c.5.2.3,2.4,1.2.7a5.8,5.8,0,0,0,.5-2.6c.4,1.4.8,2.2.5,3.3s.1.5.4.1Z" style="fill:#779657;fill-rule:evenodd"/><path d="M37.7,35c-.3-2.2-.7-5-.9-7.2.5,2.3.9,5.1,1.2,7.2Z" style="fill:#2c4215;fill-rule:evenodd"/><path d="M36.2,26a6.6,6.6,0,0,0-1,2.5c-.1-.1-.1-.3-.2-.4a6,6,0,0,0,0,2.7l-.3-.2a3.8,3.8,0,0,0,1,1.7c0-.9,0-2.1.7-2.7s-.5-.1-.9.3a11.3,11.3,0,0,1,.7-3.9Z" style="fill:#779657;fill-rule:evenodd"/><path d="M49.3,41.1c-10-4.3-14.2-6.5-19.5-12.4,4.1,3.8,7.6,6.3,15.5,9.3,1.2,1.1,2.7,2,4,3.1Z" style="fill:#2c4215;fill-rule:evenodd"/><path d="M32.4,31.3c-2.5,1.6-3.6,0-5.3-.7h.5c-1-.7-1-1.4-1.8-2.1h.3a5.1,5.1,0,0,1-.5-2.8,8.2,8.2,0,0,1,2.7-.2.6.6,0,0,1-.1-.4c.7.9,1.2-.1,2.6,1.4v-.5c.8,1.4,2.5,2.8,1.6,5.2Z" style="fill:#5e7d40;fill-rule:evenodd"/><path d="M31.9,27.8a3.7,3.7,0,0,1,.5,3.5l-.2-.2L29,28.5c.5-.2,1.8,1.6,1.3-.3A6.4,6.4,0,0,0,28.9,26a6.4,6.4,0,0,1,2.7,2c.4.8.4.3.3-.2Z" style="fill:#779657;fill-rule:evenodd"/><path d="M33,31.9c-1.7-1.4-4-3.2-5.6-4.7,1.9,1.4,4.2,3.1,5.8,4.5l-.2.2Z" style="fill:#2c4215;fill-rule:evenodd"/><path d="M25.7,26.4a9.3,9.3,0,0,0,1,2.5l-.4-.2a5.7,5.7,0,0,0,1.9,2h-.4a3.6,3.6,0,0,0,1.9.5c-.6-.7-1.5-1.5-1.4-2.5s-.4.4-.4.8a12.2,12.2,0,0,1-2.2-3.2Z" style="fill:#779657;fill-rule:evenodd"/><path d="M83.3,27.3C75.6,25,68.4,26.9,64,32.6c-.3.9-2.3,6.2-3.2,9,3-8.2,10.6-16.4,22.5-14.3Z" style="fill:#2c4215;fill-rule:evenodd"/><path d="M63.5,23.4c-3,2.5-4.6.7-6.8.1h.5c-1.4-.7-1.5-1.6-2.6-2.4H55a6.7,6.7,0,0,1-1.2-3.5,13.6,13.6,0,0,1,3.5-.7.4.4,0,0,1-.2-.4c1,1,1.5-.3,3.6,1.3a1.3,1.3,0,0,0-.1-.6c1.2,1.6,3.7,3.1,2.9,6.3Z" style="fill:#5e7d40;fill-rule:evenodd"/><path d="M62.3,19a4.7,4.7,0,0,1,1.2,4.4l-.3-.2-4.5-2.7c.5-.4,2.6,1.6,1.6-.7a7.6,7.6,0,0,0-2.2-2.5c1.8.6,2.8.9,3.8,2.1s.6.3.4-.4Z" style="fill:#779657;fill-rule:evenodd"/><path d="M64.4,24.1c-2.4-1.5-5.7-3.4-8-5,2.7,1.4,5.9,3.2,8.3,4.7-.1,0-.3.3-.3.3Z" style="fill:#2c4215;fill-rule:evenodd"/><path d="M54,18.3a9.6,9.6,0,0,0,1.8,3h-.5A7.1,7.1,0,0,0,58,23.4h-.5a4.2,4.2,0,0,0,2.5.4c-.9-.8-2.1-1.7-2.1-2.9a1.1,1.1,0,0,0-.5,1.1A19.4,19.4,0,0,1,54,18.3Z" style="fill:#779657;fill-rule:evenodd"/><path d="M64.7,26.5c-.1-3.8,2.3-4,4.2-5.4l-.3.5c1.4-.7,2.2-.2,3.5-.6l-.3.3a6.3,6.3,0,0,1,3.5,1.2,9.6,9.6,0,0,1-1.6,3.2.4.4,0,0,1,.5.1c-1.4.2-.7,1.4-3.3,2.1l.6.3c-2-.1-4.7,1-6.8-1.7Z" style="fill:#5e7d40;fill-rule:evenodd"/><path d="M69,28.3a4.7,4.7,0,0,1-4.3-1.8h.4L70,24.6c-.1.6-2.9,1-.5,1.6a7.8,7.8,0,0,0,3.4-.1c-1.6,1-2.4,1.6-4,1.7s-.6.3.1.5Z" style="fill:#779657;fill-rule:evenodd"/><path d="M63.6,26.9c2.7-1,6.2-2.4,8.9-3.3-2.8,1.3-6.2,2.7-8.8,3.7a2.3,2.3,0,0,0-.1-.4Z" style="fill:#2c4215;fill-rule:evenodd"/><path d="M74.6,22.2a8.8,8.8,0,0,0-3.5-.4l.4-.3a7,7,0,0,0-3.4.7c.1-.1.1-.3.2-.4a4.2,4.2,0,0,0-1.8,1.7c1.1-.2,2.6-.6,3.6.1s-.1-.7-.6-1a15.2,15.2,0,0,1,5.1-.4Z" style="fill:#779657;fill-rule:evenodd"/><path d="M59.6,43.3c2.3-13.9,3.8-19.9,9.7-28.3-3.6,6.3-5.7,11.5-7.1,22.4-.9,1.9-1.7,4.1-2.6,5.9Z" style="fill:#2c4215;fill-rule:evenodd"/><path d="M66.7,19c-2.8-2.6-1.1-4.4-.7-6.7,0,.2.1.3.1.5.6-1.4,1.5-1.7,2.1-2.9a.9.9,0,0,1,.1.5,6.7,6.7,0,0,1,3.3-1.6,9.6,9.6,0,0,1,1,3.4l.5-.3c-.9,1.2.5,1.5-1,3.8l.7-.2c-1.5,1.4-2.8,4-6.1,3.5Z" style="fill:#5e7d40;fill-rule:evenodd"/><path d="M71,17.4A4.6,4.6,0,0,1,66.7,19l.2-.2L69.2,14c.4.5-1.4,2.7.8,1.5a7.5,7.5,0,0,0,2.3-2.4c-.4,1.8-.6,2.8-1.7,3.9s-.2.7.4.4Z" style="fill:#779657;fill-rule:evenodd"/><path d="M66.2,20c1.2-2.5,2.8-6,4.1-8.5-1.1,2.9-2.6,6.3-3.8,8.8,0-.1-.3-.2-.3-.3Z" style="fill:#2c4215;fill-rule:evenodd"/><path d="M70.8,9.1A10.3,10.3,0,0,0,68,11.2a1.1,1.1,0,0,0,.1-.5,6.9,6.9,0,0,0-1.9,2.9c-.1-.1-.1-.3-.2-.4a4.1,4.1,0,0,0-.1,2.5c.7-1,1.4-2.3,2.7-2.5a1.2,1.2,0,0,0-1.2-.3,18.3,18.3,0,0,1,3.4-3.8Z" style="fill:#779657;fill-rule:evenodd"/><path d="M30.1,3.7a5.7,5.7,0,0,1,3.1,1c5.8,4,3.7,13.1,5.2,22.4h.2l.2-.3c-.1.6.2.8.5,1.2a15.9,15.9,0,0,1,2.3-7.8c-3.8,8.6,1,15.8,6.6,19.5-1.9-1.1-5.5-3.6-6.1-4a12.3,12.3,0,0,1-2.4-4.5h0a.4.4,0,0,1-.1.3h0a6.9,6.9,0,0,0,.4,1l2.5,4.2L45.3,38c1.2,1.1,2.7,2,4,3.1l-5.7-2.5a18.7,18.7,0,0,0,3.1,3.6,46.5,46.5,0,0,0,8,4.7c8.3,4,8.6,9.8,6.3,12.3a4.3,4.3,0,0,1-3.1,1.4,3.5,3.5,0,0,1-3.4-2.4c-.6-1.6.5-3.5,2-3.5a2.4,2.4,0,0,1,1.7,1,3.4,3.4,0,0,0-1.2-.4,1.8,1.8,0,0,0-1.6,2.5A2.7,2.7,0,0,0,58,59.5a3,3,0,0,0,2.1-.8c2.3-2.1.2-8.2-6-11-2.7-1.2-5.4-2.1-8.4-4.9a24.5,24.5,0,0,1-4.2-5.3,45.9,45.9,0,0,1-5.9-3.4l-.5.5c1.3,2.6-.4,3.5-1.3,5.1a.9.9,0,0,0,.1-.5c-.8.9-1.5.9-2.3,1.6s.1-.3.1-.4a4.6,4.6,0,0,1-1.9.4h-.7a29.9,29.9,0,0,1,.3,7.9,3.8,3.8,0,0,1,.2,2.3A44.7,44.7,0,0,1,32,57.5c-.5-3.7-.3-6.9,1.9-9.4a5.1,5.1,0,0,1,8,.1c-.2-1.3.4-2.2,1.5-2.2a4.6,4.6,0,0,1,2.8,1.3h.1a4.4,4.4,0,0,1,2.5.8c2.6.8,3,2.7,3,5.2a15.3,15.3,0,0,0,1.1,4.8L51.4,55a8.1,8.1,0,0,0,1.1,3.3c-.6-.7-1.2-1.3-1.7-2a15.3,15.3,0,0,0,1.6,2.6l-2.3-2.1,1.7,2.6A5.6,5.6,0,0,0,50,58.2l.8,1.1c-1.8-2-5.7-1.1-7.5-3.8a6.5,6.5,0,0,1-.8-2.2,4,4,0,0,1-1.9,1.4,3.6,3.6,0,0,1-1.4.2h-.8c2.6,6,4.3,10.4,5.2,14.8h1c1.1-3.6,3.4-3,5.6-3.7l-.4.3h.6c1.1,0,1.8.5,2.9.6l-.4.2a6.7,6.7,0,0,1,3,2.2,14.8,14.8,0,0,1-2.5,2.5c.2,0,.3.2.4.3h-.3c-1,0-1,1-3,1H50l.5.5c-.7-.3-1.6-.4-2.5-.7H46.9l-.3-.2h-.1l-.4-.3H46l-.3-.3h-.2l-.2-.3c-.1,0-.1-.1-.1-.2l-.3-.3v-.2a.4.4,0,0,0-.1-.3h-1a30.3,30.3,0,0,1,.6,4.2c0,.3.1.6.1.9,3.7.7,3.3,3,4.3,5.2-.1-.2-.3-.3-.4-.4.4,1.5-.2,2.2-.1,3.6l-.3-.4A6.2,6.2,0,0,1,46,86.4a14,14,0,0,1-2.6-2.1h-.2l-.2.2h0a3.3,3.3,0,0,1-1.4.4c-1,0-2-.8-1.9-2.5.4,1.2,1.1,1.7,1.8,1.7a1.6,1.6,0,0,0,1.2-.6,3.3,3.3,0,0,1-1-2.6l-.4.6.3-2.2-.8-.3c-3.5.1-3.9,4.9-1.4,7.2h.3a3.3,3.3,0,0,1,2.1,1H42a3.5,3.5,0,0,1,1.8.5c2,.6,2.4,2,2.5,3.9a11.3,11.3,0,0,0,1,3.7l-1.2-2.4a5.1,5.1,0,0,0,.9,2.6,8.7,8.7,0,0,1-1.3-1.5,8.4,8.4,0,0,0,1.2,1.9l-1.8-1.5a18.2,18.2,0,0,0,1.4,1.9,8.3,8.3,0,0,0-1.5-.9l.7.9c-1.5-1.5-4.4-.8-5.8-2.8a4.1,4.1,0,0,1-.6-3.8,3,3,0,0,1-.7-2.5,6,6,0,0,1-1.2-6.2c-1.4,2.2-1.9,6.1-.3,10.2s2.6,5.2,2.8,9.3c0,.9,0,1.9-.1,3,0,5.3-.1,9.1-.9,12.7l.7.2a3.2,3.2,0,0,1,2.5-1.3c.9,0,1.7.3,2.7.4l-.4.2c1.1.3,1.3,1,2.3,1.4h-.4a4.1,4.1,0,0,1,1.4,2.4,6.9,6.9,0,0,1-2.5,1,.4.4,0,0,1,.2.4.7.7,0,0,0-.6-.2h-.9a2.4,2.4,0,0,1-1.4-.5,4.3,4.3,0,0,0,.1.5l-1.5-1.2h-.3c0-.1,0-.1-.1-.1l-.2-.2h-.1v-.2h-.1a.8.8,0,0,1-.2-.4h-.1v-.4a.4.4,0,0,1-.1-.3h-.1v-.7l-.8-.3a22.3,22.3,0,0,1-.9,3.2c0,.2-.1.4-.1.6,2.4,1.6,1.4,3.2,1.4,5,0-.1-.1-.2-.2-.4s-.8,1.5-1.2,2.5V127a5.1,5.1,0,0,1-2.3,1.6,7,7,0,0,1-1.3-2.4c-.1.2-.2.2-.3.3s-.6-1.1.2-3l-.5.2c.4-.5.7-1.1,1.1-1.7h0l.2-.3H35v-.2c.1,0,.1,0,.1-.1s.2-.1.2-.2h.1l.3-.2h1.6a28.7,28.7,0,0,0,1.1-6.1l-.3.2c.6,2.8-1.2,3.3-2.4,4.6s.1-.3.1-.4-1.4.5-2.1.8c-3.7,4.7-8.3,8.4-9.8,12.6s-.5,5.6.8,6.9a3.8,3.8,0,0,0,2.8,1.1h.7c2.9-.5,4.7-3.7,2.3-5.5a1.9,1.9,0,0,0-1.2-.4c-1.9,0-3.6,2.8-1,4-3.1-1-1.6-5.1.9-5.1a3.2,3.2,0,0,1,2.3,1.3,3.8,3.8,0,0,1,.9,2.9c-.3,2.2-2.6,3.7-5,3.7a4.9,4.9,0,0,1-5-4.2c-.7-3.3.7-6.2,3-9.1a42.8,42.8,0,0,1-5.4,4.5c-.1.9-.9,1.8-2.4,2.6a5.4,5.4,0,0,1-3,4.1,4.1,4.1,0,0,1-1.9.4c-1.8,0-3.6-1-5.3-1l-1.1.2,1.2-.6H5.4a25.1,25.1,0,0,0,2.8-1.3l-3,.6a8.1,8.1,0,0,0,2.6-1.5,13.3,13.3,0,0,1-2.4,1A8.6,8.6,0,0,0,8,134.2l-2.9,2a12,12,0,0,0,3.4-3.7c1.1-1.8,2.2-3.1,4-3.1l1.2.2h.4a3.3,3.3,0,0,1,2.2.6l1.4-.2a3.6,3.6,0,0,1,1.9.5,29.5,29.5,0,0,0,6.2-4.2,17.3,17.3,0,0,1-8,2.1c-4.8,0-9.1-2.4-9.9-8.3-.7-4.4,1.3-9.8,6.6-9.8h.4c8.1.4,6.6,10.5,1.9,10.8h-.3c-2.7,0-2.9-3.1-1.7-4.3a1.7,1.7,0,0,1,1.2-.5,1.7,1.7,0,0,1,1.4.9,1.5,1.5,0,0,0-1.1-.6,1.2,1.2,0,0,0-1.1.7,1.8,1.8,0,0,0,1.3,3.1H17c3.7-.5,4.9-9.2-2.1-9.4h-.2c-9,0-8.6,16.8,2.6,16.8,2.7,0,5.9-1,9.7-3.3a29.3,29.3,0,0,0,5.3-5c.1-.1.1-.2.2-.2l-1.8-.4a9.2,9.2,0,0,1,.8-2.7h-.4c.6-.2.6-.6.9-1a15,15,0,0,1-6,1.2H23.9c8.1,0,12.7-5.5,14.5-11.2a16.9,16.9,0,0,0,.3-4.9,41.1,41.1,0,0,0-2.6-8.9c-3.2-8.6.7-12.9,4.1-13.2h.3a3.1,3.1,0,0,1,1.3.3v-.5a.4.4,0,0,1,.1-.3v-.2l.3-.4c0-.1,0-.1.1-.1l.2-.4h.1l.3-.3h.1l.4-.3H44a49.4,49.4,0,0,0-1.8-7.9c-.2.1-.3.3-.4.4,2.3,3.1.4,4.5-.4,6.7a4.3,4.3,0,0,1-.1-.5c-.7,1.3-1.7,1.4-2.6,2.5a.9.9,0,0,0,.1-.5,6.9,6.9,0,0,1-3.4,1h-.1v-.4a16.2,16.2,0,0,1-.4,1.9c0,.1-.1.3-.1.4h1.6a34,34,0,0,1-5.2,9v.2c-2.2,3.4-4.7,4.9-7,6.8-5.4,4.2-5.9,10.6-3.2,12a2.4,2.4,0,0,0,1.5.4,2.6,2.6,0,0,0,2.8-2.3,1.7,1.7,0,0,0-1.6-2.1,2.5,2.5,0,0,0-1.6.7,2.2,2.2,0,0,1,1.9-1.4,2.7,2.7,0,0,1,2.4,2.9,3.7,3.7,0,0,1-3.8,3.3,3.9,3.9,0,0,1-2.3-.7c-2.8-1.9-4-7.6,3.1-13.5l1.6-1.3A15.3,15.3,0,0,1,19.9,94h-.5c-9.1,0-9.5-9.3-3.5-10.4h.6a3.8,3.8,0,0,1,3,1.7c5.5-1.8,2.8-8.4-1.8-9.4a3.4,3.4,0,0,1-2.2.6H14.3A3.9,3.9,0,0,1,12,77h-.3l-1.3.2c-1.7,0-2.8-1.2-4-3A12.6,12.6,0,0,0,3,70.7l2.9,1.9a8.2,8.2,0,0,0-2.7-2.2l2.5.8a15.9,15.9,0,0,0-2.6-1.4,17.7,17.7,0,0,0,2.9.5L3.2,69.1H5.4l-1.2-.5h.9c1.8,0,3.6-1.1,5.6-1.1a3.5,3.5,0,0,1,1.7.4,5.4,5.4,0,0,1,3.2,3.9A4.5,4.5,0,0,1,18,74.2c5,1.6,8,9.4,1.5,11a6.4,6.4,0,0,1,.8,1.4,3.3,3.3,0,0,1-2.7,4.3h-.5a2.2,2.2,0,0,1-2.4-2.6,1.6,1.6,0,0,1,1.7-1.5,1.3,1.3,0,0,1,1.4,1.3,1.1,1.1,0,0,0-1.1-1,1.6,1.6,0,0,0-1.5,1.3c-.2,1.3.9,2,2,2a2.4,2.4,0,0,0,2.6-2.7c-.1-1.7-1.4-3.6-3.3-3.6H16c-2.4.3-3.6,2.7-3.2,5s2.9,4,6.1,4,5.6-1.1,8.5-3.9,4.2-5.8,5.5-10.2h.5c.2-.8.5-1.6.7-2.3a27.5,27.5,0,0,0,.2-4.1,20.5,20.5,0,0,1-8.4,4.9,18.5,18.5,0,0,0,8.3-6.8l-.3-2.9a31.1,31.1,0,0,0-2.1-7C28.2,54.3,24.1,52,20.5,52c-7.6,0-12.8,10.9-5.9,14.6a6.3,6.3,0,0,0,2.8.8c4.3,0,6.1-6,3.6-8a2.4,2.4,0,0,0-1.3-.5,2.1,2.1,0,0,0-1.8,2.3,1.4,1.4,0,0,0,1.3,1.3h.6a1.5,1.5,0,0,1-.9.2,1.5,1.5,0,0,1-1.5-1.2,2.6,2.6,0,0,1,2.3-3.2,2.7,2.7,0,0,1,1.6.5c3.3,2.2,1.2,9.3-3.9,9.3a7.5,7.5,0,0,1-3.1-.8c-5.1-2.6-4.1-8.5-1.3-12.1a9,9,0,0,1,7.2-3.8c4.4,0,8.9,3.2,11.5,7.3a42,42,0,0,0-3.4-6.7h-.2a4.7,4.7,0,0,1-2.7-1.3h-.2a4.1,4.1,0,0,1-2.4-.8c-2.6-.8-3-2.6-3.1-5.2a12.9,12.9,0,0,0-1-4.8L20.2,43a9.7,9.7,0,0,0-1.1-3.4l1.6,2a8.3,8.3,0,0,0-1.5-2.5l2.2,2a22.6,22.6,0,0,0-1.7-2.6,6.2,6.2,0,0,0,1.9,1.2,10.5,10.5,0,0,1-.8-1.1c1.5,1.7,4.5,1.3,6.5,2.8a16.6,16.6,0,0,0-.8-4c-1.6-6-5.7-8.7-9-8.7a4.7,4.7,0,0,0-3.6,1.6,4,4,0,0,0,.2,5.9,2.8,2.8,0,0,0,1.9.7A4.3,4.3,0,0,0,19.2,35a2.6,2.6,0,0,0-2.1-4,1.8,1.8,0,0,0-1.6,1.1,1.5,1.5,0,0,0,1.3,2,1.2,1.2,0,0,0,.9-.4,1.4,1.4,0,0,1-1.1.6,1.7,1.7,0,0,1-1.5-2.4,2.2,2.2,0,0,1,2-1.4,3.2,3.2,0,0,1,1.8.6,3.4,3.4,0,0,1,.2,5.1A5.1,5.1,0,0,1,16,37.4a4,4,0,0,1-2.3-.8c-3.6-3.1-1.3-8.6,3.7-8.6a9.7,9.7,0,0,1,5,1.6,15,15,0,0,1,6.4,9.6c.1-.3.1-.7.2-1.2h-.4c.9-.6,0-1.3,1.7-2.5h-.5l1.7-.9h.4c0-.1,0-.1.1-.1h2.8l.6-.5-2.6-2.2-.5-.4a3.7,3.7,0,0,1-2,.7c-1.2,0-2-.9-3.2-1.4h.5c-1-.7-1-1.4-1.8-2.1h.3a5.1,5.1,0,0,1-.5-2.8,6.5,6.5,0,0,1,1.9-.2h.8a.6.6,0,0,1-.1-.4c.7.9,1.2-.1,2.6,1.4v-.5l1.1,1.7H32c0,.1.1.2.1.3h.1c0,.1,0,.1.1.2v.2c.1,0,.1.1.1.2h.1a.6.6,0,0,0,.1.4h0v.8h0v.3c-.1.1-.1.1-.1.2V31a28.5,28.5,0,0,0,5.1,3.5v-.4c-2.9-.6-2.6-2.4-3.3-4l.3.2c-.2-1.1.3-1.7.2-2.7l.2.3a5,5,0,0,1,1.5-2.4l.6.4c-.7-6.3.2-12.5-1.7-16.8S31.9,4.7,30,4.7h0a4.2,4.2,0,0,0-4.1,4.5h.2A4.3,4.3,0,0,1,29,7.4h.5c2.1.2,3,3.8.8,4.9a5.2,5.2,0,0,1-.1,4.4c-1.3,2.9-5.3,2.7-6.8,4.9l.6-1.2a6.6,6.6,0,0,0-1.7,1.4c.6-1,1-1.9,1.4-2.7l-2,2.3a13.1,13.1,0,0,0,1.2-2.8A14.2,14.2,0,0,1,21.5,21a8.3,8.3,0,0,0,.6-3.5c-.3,1.1-.7,2.2-1,3.3a13.4,13.4,0,0,0,.4-4.9c-.4-2.5-.2-4.4,2.2-5.6l1.2-.8c-.2-2.7,2.1-5.8,5.2-5.8m.1,7.4a2.4,2.4,0,0,0,.1-2.8,3.9,3.9,0,0,1-.1,2.8M40.5,36a10.9,10.9,0,0,0-.8-1.5,9.1,9.1,0,0,1-.7-1.4h-.2l-.2.2a.1.1,0,0,0-.1.1l-.3.2h-.3v.7A21,21,0,0,0,40.5,36M35.2,69.2c2.6-5,2.7-11,1.4-16,.9,2.8,2.2,8.3,2.4,9.2a17.5,17.5,0,0,1-1.8,6.4h.2l.3-.2h.1l.3-.2h.6l.5-.2h2.3A2.2,2.2,0,0,1,42,67a78.4,78.4,0,0,0-4.2-9.6c-.1-1.1-.4-2.3-.6-3.5a3.3,3.3,0,0,1-.4-2.2c0-.2-.1-.4-.1-.7s.1.3.2.4A2.2,2.2,0,0,1,39,49.7h.4c-3,0-2.2,4.2.2,4.2h.3c2.9-.4,2.9-4,.7-5.8a4.2,4.2,0,0,0-2.6-1H37c-1.8.5-3.5,2.2-4.1,5.6s1.5,10.2,2.3,16.3M38,114l.6-.3c.1-1.3.1-2.7.1-4.2l-.3,1.1a13.3,13.3,0,0,1-1.1,3H38m-3.3-.5h1.5l.8-1.6a3.6,3.6,0,0,1,.2-1,13.5,13.5,0,0,1-2.5,2.8M30.1.7h0a8.1,8.1,0,0,0-5.9,2.7A8.8,8.8,0,0,0,22,7.8h0c-4.3,2.3-3.8,6.5-3.5,8.4a13.8,13.8,0,0,1-.3,3.9,2.9,2.9,0,0,0,1.1,3,3,3,0,0,0,.8.8h.2l.4.3a2.5,2.5,0,0,0,1.6.5h.4a1.3,1.3,0,0,0-.1.6,2.2,2.2,0,0,0-.1.8A10.7,10.7,0,0,0,17.4,25h0a8.3,8.3,0,0,0-8,5.4,7.6,7.6,0,0,0,2.4,8.5,6.3,6.3,0,0,0,3.9,1.5.9.9,0,0,1,.1.5,9.5,9.5,0,0,1,.9,3.8,13.4,13.4,0,0,0,.7,3.9,12.5,12.5,0,0,0-6.7,4.6A13.2,13.2,0,0,0,7.9,63.7l.4,1.2-1.4.4-1.8.4H4.2a3.2,3.2,0,0,0-1.9.7,2.9,2.9,0,0,0-1.9,2,.7.7,0,0,0-.1.5c-.1,0-.1.1-.1.2a2,2,0,0,0-.1,1.1,2.8,2.8,0,0,0,1.1,3,10.1,10.1,0,0,1,2.7,2.8c1,1.4,2.9,4.3,6.5,4.3L12,80a7.2,7.2,0,0,0,2.9-.6h.6a6.1,6.1,0,0,0,2.4-.4,3.7,3.7,0,0,1,1.7,2.3,6.8,6.8,0,0,0-3.1-.8l-1.2.2a7.7,7.7,0,0,0-6.4,8.2c.3,3.4,3,7,8,7.9a11.6,11.6,0,0,0-2,6.8,8.8,8.8,0,0,0,1,3.7H14.5a9.1,9.1,0,0,0-7,3,13.3,13.3,0,0,0-2.6,10.3,12,12,0,0,0,3.5,7.3A12.5,12.5,0,0,0,5.9,131a10.2,10.2,0,0,1-2.7,2.9,3.1,3.1,0,0,0-1,3,5,5,0,0,0,.2,1.2v.2a.9.9,0,0,0,.1.5,2.9,2.9,0,0,0,2,1.9,3,3,0,0,0,1.8.6H7.5l1.7.4a13.6,13.6,0,0,0,3.6.6,6.2,6.2,0,0,0,3.3-.8,8.5,8.5,0,0,0,3.6-3.4,8,8,0,0,0,7.8,5.9c4.1,0,7.6-2.7,8-6.3a7,7,0,0,0-1.7-5.3,5.9,5.9,0,0,0-4.5-2.3h-.8a30.7,30.7,0,0,1,2.4-2.9,3.4,3.4,0,0,0,1,1.6c0,.1.1.1.2.2a8,8,0,0,0,.9,1.4,2.9,2.9,0,0,0,2.5,1.3h.9a9.2,9.2,0,0,0,2.4-1.3,3.5,3.5,0,0,0,1.9-1.9l.2-.3.3-.5a3.3,3.3,0,0,0,1-2.3c0-.3.1-.6.1-.9v-.5h2.2l.9.2a3,3,0,0,0,2-.8l.2-.2,1.6-.7a3.2,3.2,0,0,0,1.5-3.3,8,8,0,0,0-1.1-2.5,3.1,3.1,0,0,0-1.6-2.1l-.3-.2-.5-.4a3.2,3.2,0,0,0-2.2-1.3h-.8a7.4,7.4,0,0,0-1.7-.3,75,75,0,0,0,.3-8.5c.1-1.1.1-2.2.1-3.2l-.3-2.2,1,.2a2.9,2.9,0,0,0,2.1.9h.8a3.4,3.4,0,0,0,2.1-.8l.3-.4H49l.6-.9a3.1,3.1,0,0,0,.5-3.1,8.1,8.1,0,0,1-.8-2.7,8.1,8.1,0,0,0-.7-3.3,8,8,0,0,0,1.5-2.1,3.1,3.1,0,0,0,1-2.6,3.5,3.5,0,0,0,.1-.7c.1-.2.1-.5.2-.8a3.2,3.2,0,0,0,.1-2.7,3.6,3.6,0,0,1-.4-1.1,16.6,16.6,0,0,0-.6-1.6,3.7,3.7,0,0,0,2-.7L54,75a2.8,2.8,0,0,0,2.5-1.8.5.5,0,0,0,.2-.4A14.3,14.3,0,0,0,58.2,71a2.9,2.9,0,0,0,.1-3.6,13.1,13.1,0,0,0-2.4-2.3,3.1,3.1,0,0,0-2.5-1.3l-.7-.2-.8-.2a2.6,2.6,0,0,0-1.7-.5h-.9l-1.2.3a8.6,8.6,0,0,0-2.8.8l-1.6-4.5a13.8,13.8,0,0,0,3,1.1,6.1,6.1,0,0,1,1.9.6,2.6,2.6,0,0,0,2.2,1h1a3.4,3.4,0,0,0,1.7-.5,6.2,6.2,0,0,0,4.4,1.7,7,7,0,0,0,5.3-2.4A7.8,7.8,0,0,0,65,54.1c-.4-2.3-2.2-6.6-9-9.9l-3.9-2a3.1,3.1,0,0,0-.9-3.4l-.3-.3a3.8,3.8,0,0,0-1-1.2c-1.7-1-9.5-6.8-5.6-15.8A3,3,0,0,0,43,17.6a3.5,3.5,0,0,0-1.4-.3l-.9.2c-.3-5.9-.8-11.9-5.8-15.2A7.9,7.9,0,0,0,30.1.7Zm-2,21.5A8.4,8.4,0,0,0,32.9,18a7.3,7.3,0,0,0,.7-2.4c.1,1.1.1,2.3.1,3.5s.1,3.1.2,4.7l-.5.7A3.5,3.5,0,0,0,31,23.1l-1.1-.3a2.7,2.7,0,0,0-1.7-.6Zm-5.5,14,.2-.3.3.8a.1.1,0,0,0-.1-.1.8.8,0,0,0-.4-.4Zm11.8,6.4a3.2,3.2,0,0,0,2.1-1.5,4.3,4.3,0,0,0,.4-.7,5.6,5.6,0,0,0,1-1.4l1.5.8a33.4,33.4,0,0,0,2.5,3.4l-1.2.6a7.2,7.2,0,0,0-2.9-.6,7.9,7.9,0,0,0-5.3,2.1V43.6a2.7,2.7,0,0,0,1-.6h.4l.5-.3Zm20.4,9.5c0-.2-.1-.4-.1-.6l.6.4-.5.2ZM19,55.2l1.5-.2c3,0,6,2.6,8.7,7.4.3.5.9,2,1.7,6.1a7.7,7.7,0,0,1,.2,1.5,15.7,15.7,0,0,1-6.4,4.8,1,1,0,0,0-.5.4,10.9,10.9,0,0,0-4.1-3.3,3.1,3.1,0,0,0-.9-1.1,8.5,8.5,0,0,0,6.2-6.1c1.1-3.4.1-6.8-2.4-8.5a6,6,0,0,0-3.3-1Zm7.2,25.4.6-.2,2.9-1c-1.1,3.5-1.9,5.3-4.4,7.7a9.4,9.4,0,0,1-2,1.6,4.4,4.4,0,0,0,.1-2,6.8,6.8,0,0,0,2.8-5.5v-.6ZM23.9,99.2a11.7,11.7,0,0,1,1.9-2l1.2-.8a27.3,27.3,0,0,0,5.8-5.6c.2.4.3,1,.5,1.5a35.5,35.5,0,0,1,2.4,8.2,13.1,13.1,0,0,1-.2,3.8c-.9,2.8-3.8,8.9-11.6,8.9h-.6a10.8,10.8,0,0,0-.8-1.9,6.7,6.7,0,0,0,6.6-6,5.5,5.5,0,0,0-5.2-6.2Zm-7.4,24.9H17a7.2,7.2,0,0,0,6.1-5h4.7a.7.7,0,0,0,.1.5,15.6,15.6,0,0,1-2.4,2.2c-3.1,1.8-5.9,2.8-8.2,2.8a5.7,5.7,0,0,1-4.2-1.7,5.8,5.8,0,0,0,3.4,1.1Z" style="fill:#28575c"/><path d="M52.4,3a15.3,15.3,0,0,0,1.3,2.1,7.7,7.7,0,0,1-.2-1.5c.8,2.8,5.1,3.9,5.5,7.4a5.8,5.8,0,0,1-1.8,5.3v.2a1.4,1.4,0,0,0,1,.3h.2a3.5,3.5,0,0,1,2.3.9,1.3,1.3,0,0,0-.1-.6L62.3,19h0l.3.3a.1.1,0,0,0,.1.1c0,.1.1.2.2.3H63a20.6,20.6,0,0,1,3.5-1.2c-2.5-2.5-.9-4.2-.5-6.5,0,.2.1.3.1.5.6-1.4,1.5-1.7,2.1-2.9a.9.9,0,0,1,.1.5,6.7,6.7,0,0,1,3.3-1.6,9.6,9.6,0,0,1,1,3.4l.5-.3c-.9,1.2.5,1.5-1,3.8l.7-.2c-.6.6-1.1,1.3-1.8,1.9h0a.1.1,0,0,1-.1.1.2.2,0,0,1-.2.2c0,.1-.1.1-.1.2l-.3.2h-.1l-.3.2c-.1,0-.1,0-.1.1h0a13,13,0,0,1,5.7,1.2c3.9,1.8,5.3,4.6,5,7a14,14,0,0,1,2.8.6,13.3,13.3,0,0,0-2.8-.3,5,5,0,0,1-2.7,3.6,9.1,9.1,0,0,1,2.1,1.5c3.3,3.3,1,8.6,3.3,11.7l-1.4-1.4a13.8,13.8,0,0,0,1.1,3,32,32,0,0,0-3.1-3.2A35,35,0,0,0,82.1,46a17.1,17.1,0,0,0-3.3-2.9A13.7,13.7,0,0,1,81.2,46a12,12,0,0,0-4.4-2.5l4,3a20.7,20.7,0,0,0-6.6-2.9c-3.5-.9-6.1-2-6.4-5.9a5.5,5.5,0,0,1-.4-4,6.1,6.1,0,0,1-.7-1.4,24.9,24.9,0,0,0-5.9,9.3c.9-2.8,2.9-8.1,3.2-9a23.9,23.9,0,0,1,2.2-2.3,3.3,3.3,0,0,1,.3-1.5,10.5,10.5,0,0,0-1.7-1.9l-.7.2a71,71,0,0,0-1.9,10.3c-.9,1.9-1.7,4.1-2.6,5.9,1.2-7.6,2.3-12.8,3.9-17.3a9.3,9.3,0,0,0-3.1-1.3h-.8l-2.4,2.5a29.3,29.3,0,0,1-2.8-1.2c-1.3,1.1-2.1,3.1-1.9,5.8-.7-4.5,1.2-7.1,4.1-8l.2-.2h.3a5.9,5.9,0,0,1-1.8-1.7,4.2,4.2,0,0,1-3.5,2.7A3.9,3.9,0,0,1,49,22.9,4,4,0,0,0,51.4,24a3.7,3.7,0,0,0,3.3-2.9h0a.6.6,0,0,1,.1-.4c-.9-.2-1.8-1.1-2.6-2.8A5,5,0,0,1,50,15.7c-2.1-2-1.7-4-.5-6.6a14.1,14.1,0,0,0,1.2-5.3V7.6a8.4,8.4,0,0,0,.5-3.9,11.1,11.1,0,0,1,.7,2.9,9.7,9.7,0,0,0-.3-3.3c.5,1.2.9,2.2,1.3,3A26.7,26.7,0,0,0,52.4,3m4.8,13.8h0m7.7,7.9c.6-2.1,2.4-2.4,4-3.6l-.3.5c1.4-.7,2.2-.2,3.5-.6l-.3.3a6.3,6.3,0,0,1,3.5,1.2l-.3.8h1.1a2.4,2.4,0,0,1,1.8,3h1.8c.4-3.2-2.9-6.8-8.4-6.8a17.1,17.1,0,0,0-4.7.8h-.2a38.9,38.9,0,0,0-1.6,4.1h.1m-.5-1.1,1.3-2.8a10.2,10.2,0,0,0-2.1,1v1c0,.1-.1.2-.1.3l.9.5m-.3.7a.4.4,0,0,0,.1-.3l-.8-.5-.5.4,1.2.4m9.6,1.4h.5c-.8.1-.9.6-1.4,1.1l1.7-.4a1.3,1.3,0,0,1,.1-.6v.6h2.8c.5-1.4-.9-2.6-2.4-2.6h-.2a6.5,6.5,0,0,1-1.1,1.9m-9.5.9h.2a.1.1,0,0,0-.1-.1.1.1,0,0,1-.1.1m12,1.2a2,2,0,0,1-1.1-.3l-2.5.8a4.2,4.2,0,0,0,.9,1.4h.7a8.6,8.6,0,0,1,2.7.5,4.3,4.3,0,0,0,2.7-3h-2a1.7,1.7,0,0,1-1.4.7m-.3-.4.8-.2-1,.2h.2m-3.2,2.2a2.7,2.7,0,0,1-.6-1l-.4.2,1,.8M52.4,0h-.8l-.5.2h-.3l-1,.5a3.3,3.3,0,0,0-2.1,2.6,11.9,11.9,0,0,1-.9,4.4c-.9,1.8-2.8,6,.9,9.7A8.8,8.8,0,0,0,50,20h0a1.8,1.8,0,0,0-1-.2A3,3,0,0,0,46.8,25a7.8,7.8,0,0,0,3,1.9,11.6,11.6,0,0,0-.2,5.3,2.9,2.9,0,0,0,2.9,2.5h.4a3,3,0,0,0,2.6-3.3,10.3,10.3,0,0,1,.1-1.7,2,2,0,0,0,1.1.3h.5a2.8,2.8,0,0,0,2.2-1c-1,3.8-1.8,8-2.8,13.7a3.1,3.1,0,0,0,2,3.4h1a3.2,3.2,0,0,0,2.7-1.6l.3-.7a3,3,0,0,0,1-1.4A29.2,29.2,0,0,1,65,39.5c1.3,5.3,6.1,6.4,8.6,7a17.4,17.4,0,0,1,5.6,2.6,3.2,3.2,0,0,0,1.6.4,2.8,2.8,0,0,0,1.8-.6,1.8,1.8,0,0,0,1.2-.5l.4-.3a.9.9,0,0,0,.5-.3A3.1,3.1,0,0,0,85.9,45a3,3,0,0,0-.3-2.9,7.1,7.1,0,0,1-.6-3.6c-.2-2.5-.3-5.6-2.6-8.2h.9a3.1,3.1,0,0,0,3-2.3,3,3,0,0,0-2.1-3.5l-.9-.3c-.6-3-3-5.6-6.6-7.3l-1.1-.4a3.2,3.2,0,0,0,.1-1.7,9.2,9.2,0,0,0,.1-1.6,2.9,2.9,0,0,0-.3-3.1l-.3-.3a20.4,20.4,0,0,0-.9-2.2,3,3,0,0,0-2.7-1.8h-.5A11.5,11.5,0,0,0,68,6.9a3.3,3.3,0,0,0-2.4,1.5c0,.2-.2.3-.4.6l-.6.6A3.3,3.3,0,0,0,63,11.8a10.3,10.3,0,0,1-.3,1.2c-.1.4-.3,1-.4,1.6l-.5-.3a9.2,9.2,0,0,0,.2-3.7c-.4-3.1-2.5-4.9-4-6.2a8.9,8.9,0,0,1-1.7-1.7,2.9,2.9,0,0,0-1.9-2,3.7,3.7,0,0,0-2-.7ZM68.9,24.1Z" style="fill:#28575c"/><path d="M26.5,70.8c2-1.2,2.4-4.4,2.6-6.5-3.2,3-6,5-10.6,5.9,2.5.9,5.5,2.1,8,.6Z" style="fill:#507125;fill-rule:evenodd"/><path d="M21.6,69.8C16.4,66.3,11.3,62,5,61.1c6.9-1.6,13.3,2.1,20.1,6.2-.9.4-2.6,2-3.5,2.5Z" style="fill:#6c9433;fill-rule:evenodd"/><path d="M23.3,45.8c.2,6.8,2.7,13.8,4.5,20.3-.9.3-3.5.6-4.4.9-1-6.6-3.2-15.1-.1-21.2Z" style="fill:#6c9433;fill-rule:evenodd"/><path d="M21.5,51.8a1.9,1.9,0,0,0-.6,2l1.8-.7c0-.9-.3-.9-1.2-1.3Z" style="fill:#dd8099;fill-rule:evenodd"/><path d="M12.8,54.3c-.2-1.2.9-.3,1.2-1.2s3.3-2.2,4.5,1.9c-3.3,1.3-3,1.4-5.7-.7Z" style="fill:#dd8099;fill-rule:evenodd"/><path d="M13.3,54.5c2-.3,1.4-.7,2.5-2.8v3.7l-2.5-.9Z" style="fill:#c64f64;fill-rule:evenodd"/><path d="M16.8,51.5c2.2-2.4,2.5-1.4,1.4,1l-1.4-1Z" style="fill:#dd8099;fill-rule:evenodd"/><path d="M15,55.1c.8-4.6,1-5.3,4.9-2.1-1.3,1.9-2.6,2.7-4.9,2.1Z" style="fill:#c64f64;fill-rule:evenodd"/><path d="M15,55c.3-2.1.6-3.3,1.1-3.8s1,3.1.5,3.8Z" style="fill:#dd8099;fill-rule:evenodd"/><path d="M16.1,51.2c1.2.4,1,3,.9,3.9H16c.6-.3,1-3,.1-3.9Z" style="fill:#edaac2;fill-rule:evenodd"/><path d="M18.6,50.1a25.1,25.1,0,0,1,3,3.4c-2.2,1.6-1.3,1.1-3.8,1.9-.5-.9-.5-1.4-.2-1.6s.1-1.1.6-1.8a3,3,0,0,0,.4-1.9Z" style="fill:#edaac2;fill-rule:evenodd"/><path d="M17.6,54.9c-.3-.6-.2-.9,0-1.1s.1-1.1.6-1.8a3,3,0,0,0,.4-1.9,1.5,1.5,0,0,1,0,1.6c-.2.5-.5.7-.3,1.3s.2.3,0,.6a.9.9,0,0,0-.2,1.1l-.5.2Z" style="fill:#fdd2e1;fill-rule:evenodd"/><path d="M19,69.9c-3.6-.7-5.1-4.1-5.5-7.4s-.6-7.1-.7-8.3c5.6,1.9,4.2-.3,7.1-.4a14.6,14.6,0,0,1,5.5,1.6,8.1,8.1,0,0,1,3.8,7.9c-.1,3.7-6.9,7.1-10.2,6.6Z" style="fill:#fdd2e1;fill-rule:evenodd"/><path d="M19,69.9l-1.4-.5L14.1,58.2c3.1-.2,4.8,3.3,6.7,5.7s3.5-1.4,7.3,2c-2.1,2.5-6.6,4.4-9.1,4Z" style="fill:#edaac2;fill-rule:evenodd"/><path d="M12.8,54.2c5.6,1.9,4.2-.3,7.1-.4h1l-.5.5c-.7-.5-6.7,3.4-7.6-.2Z" style="fill:#f9f0f3;fill-rule:evenodd"/><path d="M12.9,58.2c-1,5.9,2.1,13.8,9.6,11.3-3.6.2-3.1-4.1-4-6.5s-2.8-5.6-5.6-4.8Z" style="fill:#fdd2e1;fill-rule:evenodd"/><path d="M12.9,58.2c-.7,4,.5,8.8,3.7,10.8a11.2,11.2,0,0,1-3-10.9Z" style="fill:#f9f0f3;fill-rule:evenodd"/><path d="M26.2,67.6c-.1-1.5-.6-1.7-1.9-2.7a10.4,10.4,0,0,1-4-5.5c-.5-1.6-1-4.7.6-5.8s1.9-.9.6-1.8a10,10,0,0,1,5.9,4c3.3,4,2.8,9.6-1.2,11.8Z" style="fill:#fdd2e1;fill-rule:evenodd"/><path d="M26.2,67.6c-.1-1.5-.6-1.7-1.9-2.7l-.7-.5c4.5-2.7,3.8-8.1.8-11.4a11.5,11.5,0,0,1,3,2.8c3.3,4,2.8,9.6-1.2,11.8Z" style="fill:#edaac2;fill-rule:evenodd"/><path d="M23.3,64.1a9,9,0,0,1-2.9-4.4c-.5-1.6-1.1-4.9.5-6.1s1.9-.9.6-1.8h.4a1.1,1.1,0,0,1,.2,2.1c-3.1,2.2-.7,7.7,1.2,10.2Z" style="fill:#f9f0f3;fill-rule:evenodd"/><path d="M17.1,69.3c7.5.8,13.8-6.4,10.1-13.7a.2.2,0,0,1,.2.2c3.3,4,2.8,9.6-1.2,11.8h0a13,13,0,0,1-3.7,1.9h0a6.6,6.6,0,0,1-5.4-.2Z" style="fill:#dd8099;fill-rule:evenodd"/><path d="M37.1,55.5c-10.6.6-5.4,10-15.7,13.2-3.7,1.1-7.1-2.9-12-4.3,5.7,4.3,7.7,8.3,15.4,4.9,9.7-4.2,2.9-10.6,12.3-13.8Z" style="fill:#6c9433;fill-rule:evenodd"/><path d="M37.9,93.6c1.1,2.1-.1,5-1.1,6.9a19.5,19.5,0,0,0-6.2-10.3c2.6.4,5.9.9,7.3,3.4Z" style="fill:#507125;fill-rule:evenodd"/><path d="M33.1,92.1c-6.2.4-12.8,1.6-18.7-.8,5.1,4.9,12.6,4.8,20.5,4.6-.6-.8-1.2-3-1.8-3.8Z" style="fill:#6c9433;fill-rule:evenodd"/><path d="M22.6,113.7c3.6-5.8,9.3-10.6,14.1-15.4-.6-.7-2.8-2.3-3.4-3-4.2,5.3-10.3,11.6-10.7,18.4Z" style="fill:#6c9433;fill-rule:evenodd"/><path d="M24,107.6a2.5,2.5,0,0,1,.5-2.1l1.3,1.6c-.5.7-.7.6-1.8.5Z" style="fill:#dd8099;fill-rule:evenodd"/><path d="M17.8,101.1c-.8.9.6.7.4,1.7s1.8,3.5,4.8.5c-2.1-2.7-1.9-2.6-5.2-2.2Z" style="fill:#dd8099;fill-rule:evenodd"/><path d="M18.4,101.2c1.5,1.3.7,1.3.7,3.7l1.8-3.2-2.5-.5Z" style="fill:#c64f64;fill-rule:evenodd"/><path d="M19.8,105.5c.7,3.2,1.5,2.5,1.7-.1Z" style="fill:#dd8099;fill-rule:evenodd"/><path d="M20,101.5c-1.5,4.4-1.7,5.1,3.3,4.3-.2-2.3-1-3.6-3.3-4.3Z" style="fill:#c64f64;fill-rule:evenodd"/><path d="M20,101.6c-.7,2-1.1,3.2-.9,3.8s2.4-2.2,2.3-3.1l-1.4-.7Z" style="fill:#dd8099;fill-rule:evenodd"/><path d="M19.1,105.4c1.2.3,2.4-2,2.8-2.9l-1-.5c.4.6-.6,3.1-1.8,3.4Z" style="fill:#edaac2;fill-rule:evenodd"/><path d="M20.7,107.6c.6.1,3.7-1.2,4.3-1.4-1.1-2.5-.6-1.7-2.4-3.5-.8.4-1,.9-.9,1.3s-.5,1-.4,1.8a3,3,0,0,1-.6,1.8Z" style="fill:#edaac2;fill-rule:evenodd"/><path d="M22.2,102.9c-.5.4-.6.8-.5,1.1s-.5,1-.4,1.8a3,3,0,0,1-.6,1.8,1.5,1.5,0,0,0,.8-1.4c.1-.5,0-.8.4-1.2s.3-.2.3-.6-.1-.7.4-1l-.4-.5Z" style="fill:#fdd2e1;fill-rule:evenodd"/><path d="M30.9,90.7c-3.4-1.2-6.5.9-8.4,3.6s-4.1,5.9-4.8,6.9c5.8,1.1,3.5,2.3,6,3.9a15.7,15.7,0,0,0,5.5,1.3c3.6-.1,5.8-2.1,7.3-4.9s-2.4-9.7-5.6-10.8Z" style="fill:#fdd2e1;fill-rule:evenodd"/><path d="M30.9,90.7a4,4,0,0,0-1.5-.3l-8.6,8c2.7,1.7,5.8-.5,8.6-1.6s2.4,2.9,7.4,1.9c-.5-3.3-3.5-7.1-5.9-8Z" style="fill:#edaac2;fill-rule:evenodd"/><path d="M17.7,101.2c5.8,1.1,3.5,2.3,6,3.9l.9.4-.2-.7c-.9.1-4.1-6.3-6.7-3.6Z" style="fill:#f9f0f3;fill-rule:evenodd"/><path d="M19.7,97.8c2.1-5.7,8.8-11,14-5-3-2-4.7,2-6.7,3.6s-5.2,3.4-7.3,1.4Z" style="fill:#fdd2e1;fill-rule:evenodd"/><path d="M19.7,97.8c1.4-3.8,4.9-7.5,8.7-7.6a11.5,11.5,0,0,0-8.1,8l-.6-.4Z" style="fill:#f9f0f3;fill-rule:evenodd"/><path d="M36,96.2c-.8,1.3-1.4,1.2-2.9,1.4s-4.4.9-6.3,2.8-3.1,3.6-2.4,5.3,1.2,1.8-.4,1.9a11.1,11.1,0,0,0,7.2-.5c4.8-1.9,7.2-7,4.8-10.9Z" style="fill:#fdd2e1;fill-rule:evenodd"/><path d="M36,96.2c-.8,1.3-1.4,1.2-2.9,1.4l-.9.2c2.6,4.5-.7,8.8-5,10.2a13.7,13.7,0,0,0,4-.9c4.8-1.9,7.2-7,4.8-10.9Z" style="fill:#edaac2;fill-rule:evenodd"/><path d="M31.8,97.8a9.9,9.9,0,0,0-4.8,2.4c-1.2,1.2-3.4,3.7-2.6,5.5s1.2,1.8-.4,1.9l.4.2a1.1,1.1,0,0,0,1.2-1.7c-1.6-3.5,3.2-7.1,6.2-8.3Z" style="fill:#f9f0f3;fill-rule:evenodd"/><path d="M29,90.2c6.9,3.1,8.8,12.5,1.9,17h.3c4.8-1.9,7.2-7,4.8-10.9h0a15.6,15.6,0,0,0-2.3-3.4h0A6.9,6.9,0,0,0,29,90.2Z" style="fill:#dd8099;fill-rule:evenodd"/><path d="M39.5,112.1c-9-5.7.3-11.3-7.1-19.2-2.7-2.9-7.6-1-12.6-2.3,7.2-.8,10.9-3.3,15.9,3.5,6.2,8.4-2.8,10.6,3.8,18Z" style="fill:#6c9433;fill-rule:evenodd"/><path d="M40.3,78.9c.7-6.2-.6-12.2-8.3-13.6S15.8,74.2,20.1,81.5c5.1,8.8,19.2,6.2,20.2-2.6Z" style="fill:#edaac2;fill-rule:evenodd"/><path d="M24,83.9c-.5-1.6-.7-2,.8-2.1-3.2-3.9-2.8-4.7.1-8.8-6.3,1-2.7,7.7-.9,10.9Z" style="fill:#dd8099;fill-rule:evenodd"/><path d="M27.1,76.5c-.6-1.3-1.4-2.3-3-1.7a2.7,2.7,0,0,0-1.7,3.4c.5,2.4,6.8,3,4.7-1.7Z" style="fill:#c64f64;fill-rule:evenodd"/><path d="M20.9,75.7c-1.4,5.5.3,7.1,2.9,8.5-1.6-3.2-1.6-5.8-2.9-8.5Z" style="fill:#dd8099;fill-rule:evenodd"/><path d="M22.5,72.4c-1.3.8-2.7,2.9-2.6,7.3s.2,4.8,2.2,7.3,4.8,3.4,8.7,3.4c1.4,0,2.5-.6,2.4-2s-4.4-1-10.7-5.2c-3.2-2.2-1.4-7.5-.8-8.5s5.7-4.5,7.4-5.6a50.8,50.8,0,0,0-6.6,3.3Z" style="fill:#f9f0f3;fill-rule:evenodd"/><path d="M32.5,87.2c-1.4-1-5-.7-10-4a3.8,3.8,0,0,1-1.6-2.4c1.4,7.4,5.8,8.6,11.6,6.4Z" style="fill:#fdd2e1;fill-rule:evenodd"/><path d="M26,68.2c2.3-1.3,3.6-.8,5.3-.4-3.3,1.2-4.7,2.5-7.8,4.8.3-1.9.7-3.3,2.5-4.4Z" style="fill:#fdd2e1;fill-rule:evenodd"/><path d="M22.8,72.8c4-.3,6.2,2.2,7.3,7.5A20.5,20.5,0,0,0,36.2,75c-1-2.9-1.2-3.7-2.7-5.5-3.5-4.2-7.7.9-10.7,3.3Z" style="fill:#fdd2e1;fill-rule:evenodd"/><path d="M25.3,78c1.5-1.2-.3-3-1.4-1.5S24,79,25.3,78Z" style="fill:#8e2437;fill-rule:evenodd"/><path d="M27.6,77.9c-1.6.9-3.8,1.2-3.8-.6s2.6-1.4,1.6.1.2.6.4.3.4-1.9-1.1-2a1.2,1.2,0,0,0-1.3,1.5c.2,1.6,1.7,2.7,4.6,1.5l-.4-.8Z" style="fill:#fdd2e1;fill-rule:evenodd"/><path d="M24.8,71.6c2.2-1,5.3-2.6,7.8-.8s2.3,3.1,2.3,5.3l1.7-2.2c-5.3-7.9-5.2-7.2-11.8-2.3Z" style="fill:#edaac2;fill-rule:evenodd"/><path d="M22.4,76.5c2.4-3.1,4.2-1.9,5.2,1.4a8.2,8.2,0,0,0-.1-3.1c-1.3-.8-1.7-1.1-3.2-.9a6.1,6.1,0,0,0-1.9,2.6Z" style="fill:#edaac2;fill-rule:evenodd"/><path d="M26.6,73.8c2.1,1.2,3,3.5,3.3,6.4-3.7,1.5-6.1,2-7.7-1.8,2.1,1.5,5.1,1.9,5.3-1.3a6.8,6.8,0,0,0-.9-3.3Z" style="fill:#dd8099;fill-rule:evenodd"/><path d="M27.3,74.2c1.6,2,1.9,3.4,2.7,5.9,0-1.8-.8-4.8-2.7-5.9Z" style="fill:#f9f0f3;fill-rule:evenodd"/><path d="M22.8,79.9a7.9,7.9,0,0,0,7.3,4.8,6.4,6.4,0,0,0,7.2-6.1c-.3-1.4-.6-2.8-.8-4.3-3.3,3.9-8.8,9.6-13.7,5.6Z" style="fill:#fdd2e1;fill-rule:evenodd"/><path d="M22.9,81c1.8,1.6,5.6.4,8-.8s3.8-3.3,5.4-5.1l-.5-.6c-4.1,5.9-11.5,8.8-13,4.6-.9-2.4.6-4.4,2.4-6a1,1,0,0,1-.7.1c-2.1,1.9-4.2,5.3-1.6,7.8Z" style="fill:#f9f0f3;fill-rule:evenodd"/><path d="M20.6,75.1c.5-1.9.5-2.9,2.3-4.1s3.2-.6,4.7-1.6c3.6-2.6,4.9-2.1,8.6,1.2a9.8,9.8,0,0,1,3.1,4.9,30.1,30.1,0,0,1,.3,6.3c0,1.6-.1,3.1-1,.7s-3.2-10.3-5.4-12.9a9.5,9.5,0,0,0-2-1.5c-2.1-.2-9.2,5.9-10.6,7Z" style="fill:#f9f0f3;fill-rule:evenodd"/><path d="M27.4,74.3c-1.5-.9-4.1-1.7-5.3.7s.9,7.1,2.4,9.3c-1.2-.9-1.9-1.2-2.6-2.8-3.4-7.1,3.1-11.9,5.5-7.2Z" style="fill:#fdd2e1;fill-rule:evenodd"/><path d="M55.7,48.3c-2.2-.9-3.2-3.9-3.6-6,3.6,2.4,6.7,3.9,11.3,4.1-2.2,1.3-5,3-7.7,1.9Z" style="fill:#507125;fill-rule:evenodd"/><path d="M60.3,46.4c4.6-4.2,8.9-9.4,15-11.3-7.1-.4-12.8,4.3-18.8,9.5,1,.3,2.9,1.5,3.8,1.8Z" style="fill:#6c9433;fill-rule:evenodd"/><path d="M54.7,23.1c.9,6.7-.4,14-1.1,20.8h4.5c-.1-6.7.6-15.4-3.4-20.9Z" style="fill:#6c9433;fill-rule:evenodd"/><path d="M57.5,28.7a2.1,2.1,0,0,1,.9,1.9,11.8,11.8,0,0,0-2-.4c-.1-.9.2-.9,1.1-1.5Z" style="fill:#dd8099;fill-rule:evenodd"/><path d="M66.4,29.8c0-1.3-.9-.2-1.4-1.1s-3.6-1.6-4,2.7c3.4.7,3.1.8,5.4-1.6Z" style="fill:#dd8099;fill-rule:evenodd"/><path d="M66,30c-2.1,0-1.5-.5-3-2.3.2,1.2.5,2.4.7,3.6L66,30Z" style="fill:#c64f64;fill-rule:evenodd"/><path d="M62.1,27.6c-2.6-2-2.7-.9-1.2,1.2l1.2-1.2Z" style="fill:#dd8099;fill-rule:evenodd"/><path d="M64.4,30.8c-1.5-4.3-1.8-4.9-5.2-1.1,1.6,1.6,3,2.1,5.2,1.1Z" style="fill:#c64f64;fill-rule:evenodd"/><path d="M64.4,30.8c-.7-2-1.1-3.2-1.8-3.5s-.4,3.2.3,3.8l1.5-.3Z" style="fill:#dd8099;fill-rule:evenodd"/><path d="M62.6,27.3c-1,.5-.5,3-.2,4l1.1-.3c-.7-.2-1.6-2.7-.9-3.7Z" style="fill:#edaac2;fill-rule:evenodd"/><path d="M60,26.6c-.5.2-2,3.3-2.3,3.8,2.4,1.2,1.4.9,4,1.2.4-.9.2-1.4-.1-1.6s-.3-1.1-.8-1.7a2.7,2.7,0,0,1-.8-1.7Z" style="fill:#edaac2;fill-rule:evenodd"/><path d="M61.9,31.1c.1-.6,0-.9-.3-1.1s-.3-1.1-.8-1.7a2.7,2.7,0,0,1-.8-1.7,1.9,1.9,0,0,0,.3,1.6c.3.4.6.6.5,1.1a.5.5,0,0,0,.1.6c.4.4.5.6.4,1.1Z" style="fill:#fdd2e1;fill-rule:evenodd"/><path d="M62.9,46.1c3.4-1.2,4.4-4.8,4.2-8.2s-.6-7.1-.7-8.3c-5.2,2.8-4.1.4-7.1.9a13.7,13.7,0,0,0-5,2.4c-2.7,2.4-3.2,5.3-2.6,8.4s8,5.9,11.2,4.8Z" style="fill:#fdd2e1;fill-rule:evenodd"/><path d="M62.9,46.1a6.1,6.1,0,0,0,1.4-.7l1.5-11.6c-3.1.3-4.2,4-5.6,6.7s-3.7-.7-6.9,3.2c2.4,2.2,7.2,3.3,9.6,2.4Z" style="fill:#edaac2;fill-rule:evenodd"/><path d="M66.4,29.6c-5.2,2.8-4.1.4-7.1.9l-.9.2.6.4c.6-.7,7.1,2.3,7.4-1.5Z" style="fill:#f9f0f3;fill-rule:evenodd"/><path d="M67,33.5c2,5.7.2,14.1-7.6,12.8,3.6-.4,2.4-4.5,2.9-7.1s1.9-5.9,4.7-5.7Z" style="fill:#fdd2e1;fill-rule:evenodd"/><path d="M67,33.5c1.4,3.9,1,8.9-1.8,11.4a11.5,11.5,0,0,0,1.1-11.3Z" style="fill:#f9f0f3;fill-rule:evenodd"/><path d="M55.5,45.1c-.2-1.5.3-1.8,1.4-3s2.8-3.4,3-6.1.2-4.7-1.5-5.6-2.1-.6-.9-1.7c-2.4.8-4,2.8-5.2,5-2.6,4.4-1.1,9.9,3.2,11.4Z" style="fill:#fdd2e1;fill-rule:evenodd"/><path d="M55.5,45.1c-.2-1.5.3-1.8,1.4-3l.5-.6c-4.8-1.9-5-7.3-2.6-11.1a13.7,13.7,0,0,0-2.5,3.3c-2.6,4.4-1.1,9.9,3.2,11.4Z" style="fill:#edaac2;fill-rule:evenodd"/><path d="M57.7,41.2a10,10,0,0,0,2.2-4.9c.2-1.7.2-5-1.5-5.9s-2.1-.6-.9-1.7h-.4c-.8.5-1,1.5.1,2,3.4,1.8,2,7.5.5,10.4Z" style="fill:#f9f0f3;fill-rule:evenodd"/><path d="M64.7,45.3c-7.3,2-14.7-4.1-12.3-11.9,0,.1-.1.2-.1.3-2.6,4.4-1.1,9.9,3.2,11.4h0a13.6,13.6,0,0,0,3.9,1.2h0a6.8,6.8,0,0,0,5.3-1Z" style="fill:#dd8099;fill-rule:evenodd"/><path d="M42.6,35c10.6-1.2,7,8.9,17.7,10.3,3.9.6,6.6-4,11.2-6.2-5,5.2-6.3,9.5-14.4,7.4C46.9,44,52.5,36.5,42.6,35Z" style="fill:#6c9433;fill-rule:evenodd"/><path d="M72.1,24.9c-.5,2.3,1.6,4.8,3.1,6.3-.1-4.4.3-7.8,2.7-11.8-2.4,1.2-5.3,2.7-5.8,5.5Z" style="fill:#507125;fill-rule:evenodd"/><path d="M76.1,22c6-1.6,12.7-2.5,17.6-6.5-3.4,6.1-10.5,8.4-18.1,10.7.3-1,.2-3.2.5-4.2Z" style="fill:#6c9433;fill-rule:evenodd"/><path d="M92.8,39.3c-5.2-4.4-12.1-7.2-18.2-10.2.4-.9,2-3.1,2.4-4,5.5,3.7,13.3,7.8,15.8,14.2Z" style="fill:#6c9433;fill-rule:evenodd"/><path d="M89.6,33.9a2.4,2.4,0,0,0-1.1-1.8c-.1.5-.6,1.5-.7,1.9s.8.3,1.8-.1Z" style="fill:#dd8099;fill-rule:evenodd"/><path d="M93.5,25.8c1,.6-.4.9.1,1.7s-.6,3.9-4.4,2c1.2-3.2,1-3.1,4.3-3.7Z" style="fill:#dd8099;fill-rule:evenodd"/><path d="M93,26.1c-1.1,1.7-.4,1.5.4,3.7l-2.7-2.5L93,26.1Z" style="fill:#c64f64;fill-rule:evenodd"/><path d="M93,30.6c.2,3.3-.7,2.8-1.7.4l1.7-.4Z" style="fill:#dd8099;fill-rule:evenodd"/><path d="M91.5,26.9c2.8,3.6,3.2,4.2-1.8,5.1-.5-2.3-.2-3.8,1.8-5.1Z" style="fill:#c64f64;fill-rule:evenodd"/><path d="M91.5,27c1.3,1.6,2.1,2.6,2,3.3s-2.9-1.3-3.1-2.2L91.5,27Z" style="fill:#dd8099;fill-rule:evenodd"/><path d="M93.5,30.3c-1,.6-2.8-1.2-3.5-1.9a6,6,0,0,0,.8-.8c-.2.7,1.5,2.8,2.7,2.7Z" style="fill:#edaac2;fill-rule:evenodd"/><path d="M92.7,32.9c-.4.3-3.9,0-4.5,0,.3-2.7,0-1.7,1.1-4.1,1,.2,1.4.6,1.4.9s.7.8.9,1.6a3.6,3.6,0,0,0,1.1,1.6Z" style="fill:#edaac2;fill-rule:evenodd"/><path d="M89.8,28.9c.7.2.9.5.9.8s.7.8.9,1.6a3.6,3.6,0,0,0,1.1,1.6,1.7,1.7,0,0,1-1.2-1.1c-.2-.5-.2-.8-.7-1s-.4-.1-.4-.5-.2-.6-.8-.8l.2-.6Z" style="fill:#fdd2e1;fill-rule:evenodd"/><path d="M77.8,20c2.8-2.2,6.4-1.1,9.1.8s5.7,4.4,6.7,5.1c-5.2,2.9-2.6,3.3-4.5,5.5a14.7,14.7,0,0,1-4.9,3c-3.3,1-6.1-.2-8.4-2.4s-.7-9.9,2-12Z" style="fill:#fdd2e1;fill-rule:evenodd"/><path d="M77.8,20a5.7,5.7,0,0,1,1.3-.8l10.7,5c-2,2.4-5.7,1.3-8.7,1.1s-1.4,3.5-6.5,4.1c-.5-3.2,1.2-7.8,3.2-9.4Z" style="fill:#edaac2;fill-rule:evenodd"/><path d="M93.6,25.9c-5.2,2.9-2.6,3.3-4.5,5.5a4.6,4.6,0,0,0-.7.7v-.7c.9-.2,2-7.3,5.3-5.5Z" style="fill:#f9f0f3;fill-rule:evenodd"/><path d="M90.6,23.3c-3.8-4.7-11.8-7.7-14.9-.4,2.3-2.9,5.1.4,7.5,1.3s6.1,1.6,7.4-.9Z" style="fill:#fdd2e1;fill-rule:evenodd"/><path d="M90.6,23.3c-2.5-3.2-7-5.6-10.6-4.6a11.5,11.5,0,0,1,10.2,5.2l.4-.6Z" style="fill:#f9f0f3;fill-rule:evenodd"/><path d="M74.6,26.8c1.2,1,1.7.7,3.3.4a11.6,11.6,0,0,1,6.8.7c1.5.8,4.1,2.5,3.9,4.4s-.6,2,1,1.6a10.3,10.3,0,0,1-7,1.8c-5.2-.3-9-4.4-8-8.9Z" style="fill:#fdd2e1;fill-rule:evenodd"/><path d="M74.6,26.8c1.2,1,1.7.7,3.3.4h.9c-1.1,5.1,3.4,8.2,7.9,8.2a18.4,18.4,0,0,1-4.1.4c-5.2-.3-9-4.4-8-8.9Z" style="fill:#edaac2;fill-rule:evenodd"/><path d="M79.2,27.1a9.6,9.6,0,0,1,5.2.7c1.6.8,4.4,2.5,4.2,4.5s-.6,2,1,1.6l-.4.3c-.8.4-1.7,0-1.6-1.2.4-3.8-5.2-5.7-8.4-5.9Z" style="fill:#f9f0f3;fill-rule:evenodd"/><path d="M79.5,18.9c-5.6,5.1-4.6,14.6,3.4,16.8h-.3c-5.2-.3-9-4.4-8-8.9h0a17.4,17.4,0,0,1,1.1-3.9h0a7.1,7.1,0,0,1,3.8-4Z" style="fill:#dd8099;fill-rule:evenodd"/><path d="M76.3,43.1c6.7-8.3-3.8-10.7.7-20.5,1.7-3.6,7-3.4,11.3-6.1-7.1,1.4-11.4.2-14,8.2-3.3,10,6,9.3,2,18.4Z" style="fill:#6c9433;fill-rule:evenodd"/><path d="M37.2,23.3c2.4-5.6,6.6-10.1,14-7.6s9.6,15.8,2.2,20S33.6,31.5,37.2,23.3Z" style="fill:#edaac2;fill-rule:evenodd"/><path d="M48.8,35.8c1.2-1.1,1.6-1.4.4-2.2,4.7-1.7,4.7-2.6,4.3-7.6,4.9,3.9-1.5,8-4.7,9.8Z" style="fill:#dd8099;fill-rule:evenodd"/><path d="M49.8,27.9c1.2-.9,2.4-1.4,3.5,0a2.8,2.8,0,0,1-.2,3.8c-1.7,1.9-7.4-.8-3.3-3.8Z" style="fill:#c64f64;fill-rule:evenodd"/><path d="M55.6,30.3c-1.5,5.4-3.8,6-6.8,5.9,3.1-2,4.3-4.2,6.8-5.9Z" style="fill:#dd8099;fill-rule:evenodd"/><path d="M55.9,26.6c.7,1.3.8,3.9-1.5,7.6s-2.5,4.1-5.5,5.3-5.8.6-9.2-1.4c-1.2-.7-1.9-1.8-1.1-2.9s4.3,1.3,11.9.7c3.8-.3,4.9-5.7,4.9-6.9s-2.7-6.8-3.6-8.6a73.6,73.6,0,0,1,4.1,6.2Z" style="fill:#f9f0f3;fill-rule:evenodd"/><path d="M39.8,34.5c1.7-.2,4.7,1.8,10.7,1.4a4.2,4.2,0,0,0,2.6-1.2c-5,5.7-9.4,4.5-13.3-.2Z" style="fill:#fdd2e1;fill-rule:evenodd"/><path d="M54.9,21.3c-1.4-2.4-2.7-2.5-4.4-3,2.3,2.6,2.8,4.5,4.4,8,.7-1.8,1-3.2,0-5Z" style="fill:#fdd2e1;fill-rule:evenodd"/><path d="M55.4,26.8c-3.4-2.2-6.5-1.1-10.1,2.9A22.6,22.6,0,0,1,42.7,22c2.3-2,2.9-2.6,5-3.4,5.2-1.9,6.3,4.6,7.7,8.2Z" style="fill:#fdd2e1;fill-rule:evenodd"/><path d="M50.6,30c-.6-1.7,1.8-2.4,2-.5s-1.4,2.1-2,.5Z" style="fill:#8e2437;fill-rule:evenodd"/><path d="M48.7,28.8c.9,1.6,2.7,3,3.5,1.4s-1.5-2.5-1.4-.7-.4.4-.5,0,.7-1.8,2-1.1a1.2,1.2,0,0,1,.4,1.9c-1,1.4-2.8,1.5-4.8-1l.8-.5Z" style="fill:#fdd2e1;fill-rule:evenodd"/><path d="M54.3,24.8c-1.5-2-3.4-4.9-6.4-4.6s-3.6,1.5-4.7,3.5l-.3-2.8c8.5-4.2,8-3.7,11.4,3.9Z" style="fill:#edaac2;fill-rule:evenodd"/><path d="M53.9,30.3c-.5-3.9-2.7-3.8-5.2-1.4a7.4,7.4,0,0,1,1.6-2.7c1.6,0,2-.1,3.2.8a6.3,6.3,0,0,1,.4,3.3Z" style="fill:#edaac2;fill-rule:evenodd"/><path d="M51.5,25.8c-2.4-.1-4.3,1.5-6,3.9,2.5,3.1,4.4,4.8,7.6,2.2-2.6.3-5.4-.8-3.9-3.7a6.6,6.6,0,0,1,2.3-2.4Z" style="fill:#dd8099;fill-rule:evenodd"/><path d="M50.8,25.8c-2.4.9-3.3,2-5.3,3.8.9-1.6,3.1-3.8,5.3-3.8Z" style="fill:#f9f0f3;fill-rule:evenodd"/><path d="M51.8,33c-2.8,2-5.7,1.9-8.6.5a6.5,6.5,0,0,1-3.3-8.9l2.9-3.3c.9,5,2.8,12.7,9,11.7Z" style="fill:#fdd2e1;fill-rule:evenodd"/><path d="M51.2,33.8c-2.3.6-5-2.3-6.5-4.6s-1.7-4.8-2.2-7.1l.7-.3c.7,7.1,5.6,13.4,9.1,10.5,1.9-1.7,1.6-4.1.8-6.4l.6.5c.9,2.6,1,6.6-2.5,7.4Z" style="fill:#f9f0f3;fill-rule:evenodd"/><path d="M56.1,29.9c.5-1.9,1.1-2.7.1-4.7s-2.5-2.1-3.2-3.7c-1.9-4.1-3.3-4.3-8.1-3.3A10.6,10.6,0,0,0,39.7,21c-.9.8-2.4,3.5-3.4,5.2s-1.5,2.8.6,1.2,7.9-7.3,11.1-8.5a5.1,5.1,0,0,1,2.4-.3c2,.8,5.1,9.6,5.7,11.3Z" style="fill:#f9f0f3;fill-rule:evenodd"/><path d="M50.6,25.8c1.8,0,4.5.6,4.3,3.3s-4.3,5.6-6.7,6.9a6.2,6.2,0,0,0,3.6-1.2c6.5-4.5,3.3-11.9-1.2-9Z" style="fill:#fdd2e1;fill-rule:evenodd"/><path d="M47.5,43.6c.7-6.1-.7-12.1-8.3-13.5S23,39,27.3,46.3c5.1,8.8,19.2,6.2,20.2-2.7Z" style="fill:#edaac2;fill-rule:evenodd"/><path d="M31.2,48.7c-.5-1.6-.7-2,.8-2.1-3.2-3.9-2.8-4.7.1-8.8-6.3,1-2.8,7.7-.9,10.9Z" style="fill:#dd8099;fill-rule:evenodd"/><path d="M34.3,41.3c-.6-1.3-1.4-2.3-3-1.7A2.7,2.7,0,0,0,29.6,43c.5,2.4,6.8,3,4.7-1.7Z" style="fill:#c64f64;fill-rule:evenodd"/><path d="M28.1,40.5c-1.4,5.4.3,7.1,2.9,8.5-1.6-3.2-1.6-5.8-2.9-8.5Z" style="fill:#dd8099;fill-rule:evenodd"/><path d="M29.7,37.2c-1.3.8-2.7,2.9-2.6,7.3s.2,4.8,2.2,7.3,4.8,3.4,8.6,3.4c1.5,0,2.6-.6,2.5-2s-4.4-1-10.7-5.3c-3.2-2.1-1.4-7.4-.8-8.4s5.7-4.5,7.4-5.6a50.8,50.8,0,0,0-6.6,3.3Z" style="fill:#f9f0f3;fill-rule:evenodd"/><path d="M39.7,52c-1.4-1-5-.7-10-4.1a3.6,3.6,0,0,1-1.6-2.3c1.4,7.4,5.8,8.6,11.6,6.4Z" style="fill:#fdd2e1;fill-rule:evenodd"/><path d="M33.2,33c2.3-1.3,3.6-.8,5.3-.4-3.3,1.1-4.7,2.5-7.8,4.8.3-1.9.7-3.3,2.5-4.4Z" style="fill:#fdd2e1;fill-rule:evenodd"/><path d="M30,37.6c4-.3,6.2,2.2,7.3,7.5a22,22,0,0,0,6.1-5.3c-1-2.9-1.2-3.7-2.7-5.5-3.5-4.2-7.7.9-10.7,3.3Z" style="fill:#fdd2e1;fill-rule:evenodd"/><path d="M32.5,42.7c1.5-1.1-.3-2.9-1.4-1.4s.1,2.5,1.4,1.4Z" style="fill:#8e2437;fill-rule:evenodd"/><path d="M34.8,42.7c-1.6.9-3.8,1.2-3.8-.6s2.6-1.4,1.6.1.2.6.4.3.4-1.9-1.1-2A1.2,1.2,0,0,0,30.6,42c.2,1.6,1.7,2.7,4.6,1.5l-.4-.8Z" style="fill:#fdd2e1;fill-rule:evenodd"/><path d="M32,36.4c2.2-1,5.3-2.6,7.8-.8s2.3,3.1,2.3,5.3l1.7-2.2c-5.3-7.9-5.2-7.2-11.8-2.3Z" style="fill:#edaac2;fill-rule:evenodd"/><path d="M29.6,41.3c2.4-3.1,4.2-1.9,5.2,1.4a8.2,8.2,0,0,0-.1-3.1c-1.3-.8-1.7-1.1-3.2-.9a6.1,6.1,0,0,0-1.9,2.6Z" style="fill:#edaac2;fill-rule:evenodd"/><path d="M33.8,38.6c2.1,1.2,3,3.5,3.3,6.4-3.7,1.5-6.1,2-7.7-1.8,2.1,1.5,5.1,1.9,5.3-1.3a6.8,6.8,0,0,0-.9-3.3Z" style="fill:#dd8099;fill-rule:evenodd"/><path d="M34.5,39c1.6,2,1.9,3.4,2.7,5.9,0-1.8-.8-4.8-2.7-5.9Z" style="fill:#f9f0f3;fill-rule:evenodd"/><path d="M30,44.7a7.9,7.9,0,0,0,7.2,4.8c4,.3,7.2-2.4,7.3-6.1l-.9-4.3C40.4,43,34.9,48.7,30,44.7Z" style="fill:#fdd2e1;fill-rule:evenodd"/><path d="M30.1,45.7c1.8,1.7,5.6.5,7.9-.8s3.9-3.2,5.5-5l-.5-.6c-4.1,5.8-11.5,8.8-13,4.6-.9-2.4.6-4.4,2.4-6a1.2,1.2,0,0,1-.8.1c-2,1.9-4.1,5.3-1.5,7.7Z" style="fill:#f9f0f3;fill-rule:evenodd"/><path d="M27.8,39.9c.5-1.9.5-2.9,2.3-4.1s3.2-.6,4.7-1.6c3.6-2.6,4.9-2.1,8.6,1.2a10.6,10.6,0,0,1,3.1,4.9,30.1,30.1,0,0,1,.3,6.3c0,1.6-.1,3.1-1.1.7S42.6,37,40.4,34.4a9.5,9.5,0,0,0-2-1.5c-2.1-.2-9.2,5.9-10.6,7Z" style="fill:#f9f0f3;fill-rule:evenodd"/><path d="M34.6,39.1c-1.5-.9-4.1-1.7-5.3.7s.9,7.1,2.4,9.3c-1.2-.9-1.9-1.2-2.6-2.8-3.4-7.1,3.1-11.9,5.5-7.2Z" style="fill:#fdd2e1;fill-rule:evenodd"/><path d="M23.3,45.8a44.5,44.5,0,0,0,.9,7.1h.4l.5.4.3.2.4.4.3.3.5.4c0,.1.1.2.2.3l.4.5h0a.2.2,0,0,1,.2.2h0a8.8,8.8,0,0,1,2.1,4.6c1.2-2.5,2.8-4.6,7.6-4.9-6.6,2.2-5.2,6.1-7.2,9.6h.3l1.8.2c7.7,1.4,9,7.4,8.3,13.6a6.7,6.7,0,0,1-.7,2.4v.5c0,1,0,2-.3,2s-.3-.3-.6-.9a11,11,0,0,1-7.1,3.9h.3l.4.2h.2a1.9,1.9,0,0,1,.7,1.2,1.7,1.7,0,0,1-1.6,1.9h.1c2.4.4,5,1.1,6.2,3.3a6.4,6.4,0,0,1-.1,4.7c1.2,5.3-3.7,7.9,1.7,13.8-4.1-2.6-4.4-5.2-4.2-8a9.7,9.7,0,0,1-4.1,3h-.3l-.6.2H30l-.7.2H29l-.6.2H27a33.5,33.5,0,0,0-4.4,5.7,17,17,0,0,1,1.7-6H24a1.7,1.7,0,0,1,0-1,18.1,18.1,0,0,1-3.2,1h0c-.3,0-.6-.5-.9-1.6a.9.9,0,0,1-.7-.6h-.1v-.2h0v-.4a1.6,1.6,0,0,1-.9-1.9c.2-1-1.1-.8-.5-1.6h0L19.9,98a.2.2,0,0,0-.2-.2l.3-.7h.1a.8.8,0,0,1,.2-.5c0-.1.1-.1.1-.2l.3-.6a.1.1,0,0,0,.1-.1l.3-.5h.1a14.6,14.6,0,0,1-6.8-3.7,22,22,0,0,0,8.5,1.4h.3c.2-.2.4-.3.5-.5h.1l.5-.4h.2l.4-.3h.3a20.5,20.5,0,0,1-5.4-.5c2.3-.2,4.2-.7,5.9-.9A7.8,7.8,0,0,1,22.1,87,8,8,0,0,1,20,81.3a10.5,10.5,0,0,1,.6-10.4l-1.1-.3c-3.8-.2-6-3.1-10.1-6.2a24.3,24.3,0,0,1,4.9,2.2h-.1c0-.1-.1-.1-.1-.2a.8.8,0,0,1-.2-.4v-.2l-.2-.5V65c-.1-.2-.1-.4-.2-.6s0-.1-.1-.2h0A22.1,22.1,0,0,0,5,61.1a12.4,12.4,0,0,1,3.3-.4,16.7,16.7,0,0,1,4.4.6h0v-.7h0V59a.3.3,0,0,0,.1-.2,1.3,1.3,0,0,1,.1-.6c0-.1.1-.1.2-.1-.1-1.7-.2-3.3-.3-3.9h0c-.1-1,.9-.2,1.2-1.1a1.7,1.7,0,0,1,1.6-1.3h.1c.1-.1.1-.1.1-.2a.1.1,0,0,0,.1-.1H16a.1.1,0,0,1,.1-.1h1c.7-.7,1.1-1,1.4-1h.1a11.7,11.7,0,0,1,2.3,2.5c.2-.3.4-.7.6-.8h.3a13.7,13.7,0,0,1,1.5-6m0-3a2.9,2.9,0,0,0-2.7,1.6,14.5,14.5,0,0,0-1.1,2.9h-1a4.9,4.9,0,0,0-2.6,1l-1.1.5a.9.9,0,0,0-.5.3.2.2,0,0,0-.2.2A4.1,4.1,0,0,0,11.7,51a3.4,3.4,0,0,0-1.9,3.3h0v.4a23.7,23.7,0,0,0,.1,2.4,4.3,4.3,0,0,0-.1.5H8.3a13.3,13.3,0,0,0-4,.5A2.9,2.9,0,0,0,4.6,64l1.8.4a3,3,0,0,0,1.2,2.4l2.8,2.3a19.4,19.4,0,0,0,6,3.9,12.9,12.9,0,0,0,.6,9.1,11.4,11.4,0,0,0,1.9,5.7,3.1,3.1,0,0,0-1.7,1.3l-1.7-.5-1.1-.3a3,3,0,0,0-2.1,5.2A16.7,16.7,0,0,0,17,96.6h-.1a4.3,4.3,0,0,1-.1.5,15.8,15.8,0,0,1-1.4,2l-.2.3h0a3.3,3.3,0,0,0,0,3.8,4.4,4.4,0,0,0,1.1,2.9.3.3,0,0,0,.1.2,1.4,1.4,0,0,0,.2.6l.8.9a3.8,3.8,0,0,0,2.6,2.5h.1a15.7,15.7,0,0,0-.5,3,3.1,3.1,0,0,0,2.1,3.1h.9a2.9,2.9,0,0,0,2.5-1.4,38.8,38.8,0,0,1,3.3-4.4h1.7l.8-.2h1.4l.8-.4a12.1,12.1,0,0,0,4.8,5.2,2.9,2.9,0,0,0,1.6.4,2.9,2.9,0,0,0,2.3-1,3,3,0,0,0-.1-4c-2.2-2.5-1.9-3.5-1.3-5.9a14.2,14.2,0,0,0,.5-5.7c.7-2.5.6-4.6-.4-6.3a8.3,8.3,0,0,0-4.2-3.7,18.9,18.9,0,0,0,2.8-1.7h.2c3.1,0,3.3-3.3,3.3-4.8a9.6,9.6,0,0,0,.7-2.8C44.6,67.8,38.6,64,34,62.7c.6-2.2,1-3.3,4.1-4.3a3,3,0,0,0,2-3.4,3.1,3.1,0,0,0-2.9-2.5H37a12.6,12.6,0,0,0-6.7,2.1l-.5-.7h-.1l-.2-.3h-.1c-.1-.2-.3-.3-.4-.4l-.2-.3h-.1l-.5-.6-.3-.2h0l-.6-.5-.4-.3a28,28,0,0,1-.6-5.5,3.2,3.2,0,0,0-2.4-2.8Z" style="fill:#c64f64"/><path d="M47.2,15a12.5,12.5,0,0,1,4,.7c5.5,1.9,7.9,8.2,6.8,13.4l.2.4A17,17,0,0,1,60,26.6h.2a3.1,3.1,0,0,1,1.5.7h1.1a.1.1,0,0,1,.1.1.1.1,0,0,1,.1.1c.1.1.1.1.1.2h.4a1.6,1.6,0,0,1,1.5,1,.7.7,0,0,0,.8.4h.1c.3,0,.5.1.5.5h0c.1.7.2,2.2.4,3.9H67a2.5,2.5,0,0,1,.2.7c.1.1.1.1.1.2s.1.3.1.5.1.1.1.2.1.5.1.7h0c0,.2.1.4.1.6h0a16.8,16.8,0,0,1,6.7-1.5h.9a22.3,22.3,0,0,0-7.6,4.4h0a.3.3,0,0,1-.1.2,1.3,1.3,0,0,1-.1.6v.2c0,.2-.1.3-.1.5a.3.3,0,0,1-.1.2,4.3,4.3,0,0,1-.1.5c-.1.1-.1.1-.1.2a.3.3,0,0,1-.1.2,29.8,29.8,0,0,1,4.5-3.1c-3.6,3.8-5.3,7-8.9,7.8a10.7,10.7,0,0,1-5.1,1.7,5.7,5.7,0,0,1-1.8-.3,5.9,5.9,0,0,1-3-3.7c-2-1.5-2.6-3.5-3.5-5.2h-.3l-1.3.4a15.3,15.3,0,0,1-.1,3.7,6.6,6.6,0,0,1-.7,2.5v.5c0,1,0,2-.3,2s-.3-.3-.6-.9a11,11,0,0,1-7.1,3.9h.3l.4.2h.2a1.9,1.9,0,0,1,.7,1.2c.1,1.4-1,2-2.5,2h-.3c-3.7,0-6.3-.8-8.3-3.4a8,8,0,0,1-2.1-5.7c-3.7-6.8,2.3-16,10-16.2a8.6,8.6,0,0,1-.6-2.3,2,2,0,0,1-.9.5c-.4,0,.1-.9.6-1.9a.5.5,0,0,0,.2-.4,8.6,8.6,0,0,1,.7-2.5c2-4.5,5-8.3,10-8.3M51,38.5h0M47.2,12c-5.5,0-9.8,3.4-12.8,10.1a12.9,12.9,0,0,0-.8,2.8,8.4,8.4,0,0,0-1.1,3,15,15,0,0,0-7.4,6.5,13.3,13.3,0,0,0-.9,12.5,11.4,11.4,0,0,0,2.7,6.8c3.2,4,7.4,4.5,10.7,4.5H38a5.9,5.9,0,0,0,4.2-1.7,4.7,4.7,0,0,0,1.2-3.1,17.5,17.5,0,0,0,2.9-1.8h.2c3.1,0,3.3-3.3,3.3-4.9a.8.8,0,0,0,.2-.5c.1.1.2.1.2.2a8.5,8.5,0,0,0,4.4,4.7,7.1,7.1,0,0,0,2.9.5,12.9,12.9,0,0,0,6.2-1.9c3.4-.9,5.4-3.3,7.6-5.8a29.1,29.1,0,0,1,2.4-2.7,3.3,3.3,0,0,0,.8-2.5l1.7-.7a3.2,3.2,0,0,0,2.1-3.3,3.1,3.1,0,0,0-2.8-2.6H74.4a17.4,17.4,0,0,0-4.5.6h0c-.1-.2-.1-.4-.2-.5s-.2-1.8-.3-2.3v-.5h0a3.3,3.3,0,0,0-2.4-3,4.6,4.6,0,0,0-2.7-1.5c0-.1-.1-.1-.2-.2l-.5-.2-1.3-.2a4.2,4.2,0,0,0-1.4-.6,13.5,13.5,0,0,0-8.8-10.7,15,15,0,0,0-4.9-.9Z" style="fill:#c64f64"/><path d="M93.7,15.5h0m0,0A15.5,15.5,0,0,1,88.4,21c0,.1,0,.1.1.1s.3.3.4.4H89c.2.1.3.3.5.5h.2l.3.4h.2l.4.6a.3.3,0,0,0-.1.2l3.1,2.4h0c.8.6-.5.8,0,1.6a1.8,1.8,0,0,1-.2,2.2h0c.1.1.1.1.1.2h0v.2h0a1,1,0,0,1-.5.8c.1,1.1-.1,1.7-.3,1.8H89.3a2.6,2.6,0,0,1,.3,1h0l-.3.2a15.9,15.9,0,0,1,3.5,5.2,51.3,51.3,0,0,0-5.9-4.1h-.4l-.6.2H82.6a9.5,9.5,0,0,1-4.8-1.6c1,2.6,1.6,5.2-1.5,9,3.2-7.4-2.2-8.3-2.7-13.7a5.9,5.9,0,0,1-1.5-4.5c.4-2.4,2.7-3.9,4.8-5,2.6-2.7,6.3-2.4,11.4-3.4a21.3,21.3,0,0,1-5,2.1h.4l.5.2h.2l.5.2H85l.7.3h.2a23.1,23.1,0,0,0,7.8-4m0-3h0a2.5,2.5,0,0,0-1.9.7l-1.5,1.1a3.2,3.2,0,0,0-2-.8h-.6l-3.6.6c-3.3.5-6.4.9-9,3.4s-5.3,3-6,6.9a8.1,8.1,0,0,0,1.6,6.1A14.5,14.5,0,0,0,73,35.8c1.3,2,1.9,3,.5,6.1a2.9,2.9,0,0,0,1.2,3.7,3,3,0,0,0,1.6.5A3,3,0,0,0,78.6,45a12.6,12.6,0,0,0,3-6.4h4.8a29.2,29.2,0,0,1,4.5,3.2,3.7,3.7,0,0,0,1.9.7,2.8,2.8,0,0,0,1.8-.6,3,3,0,0,0,1-3.5,11.6,11.6,0,0,0-1.4-2.7h.1A3.7,3.7,0,0,0,96,32.2a2.5,2.5,0,0,0,.4-1.1,1.3,1.3,0,0,0,.1-.6h0v-.3a4.4,4.4,0,0,0,.2-3,3.4,3.4,0,0,0-1.2-3.6.1.1,0,0,1-.1-.1l-.3-.2-1.9-1.5c-.1-.1-.1-.3-.3-.4h0A17.4,17.4,0,0,0,96.3,17a3.7,3.7,0,0,0,.4-1.5,2.9,2.9,0,0,0-3-3Zm0,6Z" style="fill:#c64f64"/></g></g></svg>