<svg xmlns="http://www.w3.org/2000/svg" xmlns:xlink="http://www.w3.org/1999/xlink" viewBox="0 0 214.2 108.3"><defs><clipPath id="clip-path"><path d="M39.2,29.8l-1,.7a20.1,20.1,0,0,1-3.6,2c-3.2,1.3-7,2.4-8.6,4.2a4.5,4.5,0,0,0-1.2,2.5c-.5,1.5-.9,3.1,1,4.5s1.7.9,2.1,1.5a2.1,2.1,0,0,1,.5,1.2c.8,3,5.9,5.9,12.8,7.2a5.3,5.3,0,0,1,1.9.5l.7.6c2.1,2.5,8.7,4.7,14.5,5.8a92,92,0,0,0,14.2,1.6,35.6,35.6,0,0,1,4.7.5c3.8.7,7,1.8,11.1,2.3a42.5,42.5,0,0,0,12.4-.5,12.6,12.6,0,0,1,2.8-.4,9.7,9.7,0,0,1,2.4.1,107.5,107.5,0,0,0,15,.2c3.9-.2,7.7-.7,11.6-1a22.9,22.9,0,0,1,5.2.5,65.8,65.8,0,0,0,16.6-.1c5.3-.8,10.4-1.9,13.5-3.8a4.2,4.2,0,0,1,1.5-.8,12.5,12.5,0,0,1,3-.5c4.9-.6,9.3-1.8,12.2-3.5s4.4-3.8,3.6-5.9c-.1-.4-.3-.7-.2-1.1a1.8,1.8,0,0,1,.4-.9c1.6-2.4,2.1-5.2-1.4-7.4-1.5-.9-1.1-2.3-2.4-3.4a15.7,15.7,0,0,0-5.8-2.8l-1.2-.5a1.9,1.9,0,0,1-.8-.7c-1.2-1.8-4.4-3.3-8.4-4.2a64.9,64.9,0,0,0-12.9-1.7h-2.8l-2.8-.7a70.6,70.6,0,0,0-13.1-2.6,68.1,68.1,0,0,0-10.1-.2c-3.4.3-5,.7-8.6,0a110.2,110.2,0,0,0-38,0,26.1,26.1,0,0,0-3.2.6,24.4,24.4,0,0,1-3.1.6H69.6c-3.6-.1-7.2-.1-10.7.1-6.3.5-12,1.8-16,3.8Z" style="fill:none"/></clipPath></defs><g style="isolation:isolate"><g id="Layer_2" data-name="Layer 2"><g id="Layer_1-2" data-name="Layer 1"><g id="Nest"><g id="Nest-2" data-name="Nest"><path d="M88.7,104.3a34.1,34.1,0,0,1-5.5-.5,37.2,37.2,0,0,1-8.9-3,37,37,0,0,0-5-1.9,18.6,18.6,0,0,0-4.9-.8h-.5a75.2,75.2,0,0,1-17.7-3.4c-7.1-2.4-15.7-7.2-18.6-13.4h0a2.8,2.8,0,0,0-.5-.8l-1.6-.7h-.2c-9-3-15.5-9.6-16.5-16.9v-.5a6.1,6.1,0,0,0-.4-1.7,10.2,10.2,0,0,0-1.3-1.8L6,57.6c-2.8-3.7-2-8-1.5-11.2a17.7,17.7,0,0,1,1.7-5.9c1.8-3.4,5.2-5.8,8.5-8.1l2.5-1.9a18.2,18.2,0,0,0,4.2-4.1,20.9,20.9,0,0,1,1.4-1.7,43.8,43.8,0,0,1,3.9-3.6l.7-.7a39.2,39.2,0,0,1,20.5-8.9,55.4,55.4,0,0,1,9.6-.6h6l2.6-.2a8,8,0,0,0,2.6-.9l.8-.4L72,8.7l1.6-.5A75.2,75.2,0,0,1,98.5,4a77,77,0,0,1,22.7,3.4,10.5,10.5,0,0,0,3.7.7,16.3,16.3,0,0,0,3.6-.5l2.6-.4a34.8,34.8,0,0,1,5.7-.4,43.4,43.4,0,0,1,7.1.6A52.9,52.9,0,0,1,160.4,13h.3a10.7,10.7,0,0,0,2.7,1.2,12.7,12.7,0,0,0,2.8.3h.4A46.7,46.7,0,0,1,183,18c5.4,2.4,9.4,6.1,11,10.1v.2a3.6,3.6,0,0,0,.5.9l1,.6h.2a20.7,20.7,0,0,1,7.6,6.7,12.8,12.8,0,0,1,1.4,4,7.6,7.6,0,0,0,1.3,3.3c4,4.4,4.6,10.3,1.9,17.7v.2a5.6,5.6,0,0,0-.4,1.5,8.9,8.9,0,0,0,.2,1.5v.5c.9,5-.9,10.2-5,14.4s-9.4,6.8-15.8,8.3h-.5a8.5,8.5,0,0,0-2.7,1,3.7,3.7,0,0,0-1.3,1.2l-.3.3c-4.3,4.9-11.2,7.3-17.3,9.1a41.5,41.5,0,0,1-11.8,1.6,42.3,42.3,0,0,1-9.4-1l-.9-.2a13.4,13.4,0,0,0-3.9-.7h-.9l-6.4,1c-2.6.5-5.2,1-7.9,1.3a64,64,0,0,1-8.8.6,84,84,0,0,1-10-.7h-.2l-1.9-.2h-.5a13.6,13.6,0,0,0-2.5.7l-.5.2a30.1,30.1,0,0,1-10.5,1.9Z" style="fill:#e28a49"/><path d="M98.5,5.5a72.6,72.6,0,0,1,22.3,3.4,13.5,13.5,0,0,0,4.1.7,46.3,46.3,0,0,0,6.4-.9,33.1,33.1,0,0,1,5.5-.4,38.2,38.2,0,0,1,6.8.6,53.6,53.6,0,0,1,16.1,5.4,13,13,0,0,0,3.4,1.5,19.5,19.5,0,0,0,3.4.3,44.3,44.3,0,0,1,15.9,3.3c4.7,2.1,8.6,5.4,10.2,9.2a5.3,5.3,0,0,0,.8,1.7l1.6.9a19.3,19.3,0,0,1,7,6.2c1.5,2.4,1,5.5,2.9,7.5,4.2,4.7,3.6,10.8,1.6,16.2a5.6,5.6,0,0,0-.6,2.1,6.6,6.6,0,0,0,.3,2.4c.8,4.5-.9,9.3-4.5,13.1a31.6,31.6,0,0,1-15.2,7.9,10.2,10.2,0,0,0-3.6,1.2,8.1,8.1,0,0,0-1.9,1.8c-3.9,4.4-10.1,6.8-16.6,8.6A39.3,39.3,0,0,1,153,99.8a38.8,38.8,0,0,1-9-1,23.6,23.6,0,0,0-5.2-.9h-1.1c-4.8.7-9.5,1.7-14.3,2.3a61.1,61.1,0,0,1-8.6.6,80.7,80.7,0,0,1-9.8-.7,16,16,0,0,0-2.3-.3H102a13.3,13.3,0,0,0-3.4,1,26.8,26.8,0,0,1-9.9,1.8,32.7,32.7,0,0,1-5.3-.5c-5.1-.9-8.9-3.3-13.6-4.9a22,22,0,0,0-5.8-.8,77.6,77.6,0,0,1-17.4-3.3c-7-2.4-15-7.1-17.6-12.6a3.1,3.1,0,0,0-.9-1.4,7,7,0,0,0-2.3-1.1c-8.4-2.7-14.6-8.9-15.5-15.6a12.8,12.8,0,0,0-.5-2.7c-.6-1.2-1.8-2.1-2.6-3.2-2.3-3-1.8-6.7-1.2-10a17.3,17.3,0,0,1,1.5-5.5c2.1-3.9,6.8-6.5,10.6-9.5a21.5,21.5,0,0,0,4.6-4.4,6.1,6.1,0,0,1,1.2-1.5c1.4-1.5,3-2.9,4.5-4.3,5-4.4,12-7.4,19.7-8.6a73,73,0,0,1,9.4-.5h6l2.8-.2a11.5,11.5,0,0,0,3.8-1.4c1.2-.5,2.7-.8,4-1.3A73.5,73.5,0,0,1,98.5,5.5m0-3v0A76.2,76.2,0,0,0,73,6.8l-1.4.4-2.7.9-.9.5a5.8,5.8,0,0,1-2.1.7l-2.4.2h-6a57.8,57.8,0,0,0-9.8.6c-8.3,1.2-15.9,4.5-21.3,9.3l-.7.6-4,3.8-1.5,1.8a20.2,20.2,0,0,1-3.9,3.8l-2.5,1.8c-3.4,2.5-7,5-8.9,8.7A18.5,18.5,0,0,0,3,46.2c-.5,3.2-1.3,8.1,1.8,12.3l1.1,1.3A5.4,5.4,0,0,1,7,61.2a8.6,8.6,0,0,1,.3,1.3V63c1.1,7.9,8,14.9,17.6,18.1h.2l1,.3V82c3.1,6.6,12,11.6,19.4,14.1a74.5,74.5,0,0,0,18.1,3.5h.5a21.1,21.1,0,0,1,4.6.7,47.8,47.8,0,0,1,4.8,1.9,45.1,45.1,0,0,0,9.2,3.1,37.9,37.9,0,0,0,5.8.5,30.3,30.3,0,0,0,11-2l.6-.2a6.3,6.3,0,0,1,2-.6h.4l1.7.2h.2a70.1,70.1,0,0,0,10.2.8,68,68,0,0,0,9-.6c2.7-.3,5.4-.8,8-1.3l6.3-1h.7a16.9,16.9,0,0,1,3.6.6l.9.2a44.4,44.4,0,0,0,9.7,1.1,44.9,44.9,0,0,0,12.2-1.7c6.4-1.8,13.5-4.4,18-9.5l.3-.4.9-.9a9.9,9.9,0,0,1,2.4-.7h.4c6.8-1.6,12.7-4.7,16.6-8.8s6.4-10.2,5.3-15.7a.9.9,0,0,0-.1-.5c0-.4-.1-.8-.1-1.1a9.7,9.7,0,0,1,.3-1.1h.1c3.6-10,.8-16-2.2-19.3a5.3,5.3,0,0,1-.9-2.6,12.5,12.5,0,0,0-1.7-4.5,21.6,21.6,0,0,0-8.2-7.3h-.1l-.6-.3-.2-.3v-.3c-1.8-4.4-6.1-8.3-11.8-10.9a50.2,50.2,0,0,0-17-3.5h-.3l-2.5-.2a8.6,8.6,0,0,1-2.4-1.1l-.3-.2a55.9,55.9,0,0,0-17-5.7,45.9,45.9,0,0,0-7.3-.6,38.1,38.1,0,0,0-5.9.4l-2.6.4a15.5,15.5,0,0,1-3.4.5,9.9,9.9,0,0,1-3.2-.6A77.1,77.1,0,0,0,98.5,2.5Z" style="fill:#c16c33"/><path d="M78,71.9c-7-1.4-14.5-1.7-21.7-2.9a71.9,71.9,0,0,1-17.5-4.9,38,38,0,0,1-11.7-7.8,24.3,24.3,0,0,1-3.8-4.8c-1-1.9-1.5-4-2.8-5.8s-2.9-1.8-3.4-.5c-1.8,4.2,2,9.4,5.2,12.8a42.5,42.5,0,0,0,13.5,9,81.7,81.7,0,0,0,19.4,5.4c3.9.6,7.8,1,11.7,1.3s7.8.5,11.5-.1C79.6,73.4,79,72.1,78,71.9Z" style="fill:#f2a966"/><path d="M165.5,77.2c-5.3,1.2-10.1,3.3-15.6,4.4a79.7,79.7,0,0,1-14.7,1.5,111.4,111.4,0,0,1-15.3-1.2h-.2a11.2,11.2,0,0,0-2.7-.3l-6.2-1.1c-2.9-.6-5.9-1-8.8-1.7s-1.5,1.7-.2,2.1l5,1.5c-1.6.2-3.2.2-4.8.3a141.4,141.4,0,0,1-17.2-.7,129.5,129.5,0,0,1-16.7-3c-2.6-.6-5.2-1.3-7.7-2.1a67.3,67.3,0,0,0-8-2.3c-1.7-.4-1.5,1.3-.8,1.9s4.6,2.3,6.9,3.2,5.3,1.8,8.1,2.5a114.8,114.8,0,0,0,16.9,3.2,114.7,114.7,0,0,0,17.6.8,90.8,90.8,0,0,0,15.7-1.4l3.4.6a104.6,104.6,0,0,0,17.7,1.2,77.9,77.9,0,0,0,16.1-2c4.8-1.1,10.2-2.7,12.8-5.9C167.3,78,166.4,77,165.5,77.2Z" style="fill:#f2a966"/><path d="M199.1,53.9c-3.8,2.8-6.7,6.1-10.6,8.8a52.8,52.8,0,0,1-12.1,6.1,77.6,77.6,0,0,1-16.2,3.3l-6.4.8-1.8.4c-.6.3-1,.7-1,1.2l.2.4.4.2c3.8,1.2,8.6.5,12.6.2a75.6,75.6,0,0,0,16.6-3.7,52,52,0,0,0,12.4-6.5,30.9,30.9,0,0,0,4.9-4.6,10.1,10.1,0,0,0,1.7-2.5,7.2,7.2,0,0,0,.8-3.2C200.6,54.4,199.8,53.4,199.1,53.9Z" style="fill:#f2a966"/><path d="M114.6,92.7c-3.3.1-6.7,1-10,1.4a62.5,62.5,0,0,1-8.7.6,81.3,81.3,0,0,1-16.4-1.1,91.3,91.3,0,0,1-14.1-3.8c1.8,0,3.5.1,5.3,0s5.8-.1,7.9-1.1-.1-1.8-1.1-1.9a31.7,31.7,0,0,0-6.9-.2H62.4l-5.7-.6-7.9-4c-1-.5-2,.2-1.5,1a10.7,10.7,0,0,0,1.4,1.6l-1.8-.4A53.8,53.8,0,0,1,24.8,72.4c-1-.8-2.4,0-1.8.9C27.2,80,36.4,84.6,45.7,87.1A61.5,61.5,0,0,0,55.2,89a55.4,55.4,0,0,0,6.7,3,80.5,80.5,0,0,0,17.8,4.8A94.4,94.4,0,0,0,98.1,98c3.2-.2,6.4-.5,9.5-1s6.4-1,8.5-2.5S115.6,92.7,114.6,92.7Z" style="fill:#f2a966"/><path d="M164.9,87.6c-2.1.3-3.8,1.5-5.5,2.3a32.5,32.5,0,0,1-4.3,1.8,43.8,43.8,0,0,1-8.3,2,64.2,64.2,0,0,1-9.9.6c-3.5,0-7.4-.7-11-.3-1.2.2-.5,1.4.2,1.7,6.7,2.9,16.3,2.5,23.6,1.3a45.4,45.4,0,0,0,9.9-2.9c2.7-1.1,6.7-2.9,6.6-5.5A1.1,1.1,0,0,0,164.9,87.6Z" style="fill:#f2a966"/><path d="M199,66.7c-.1-.3-.8-1.1-1.4-.7a5.7,5.7,0,0,0-1.3,1.4,16.7,16.7,0,0,1-1.2,1.6l-2.3,2.7a27.6,27.6,0,0,1-5.7,5,33.5,33.5,0,0,1-16.6,4.6c-.9,0-1.2.7-1,1.2a2.3,2.3,0,0,0,2,1.2,31.1,31.1,0,0,0,19.3-4.6,19.2,19.2,0,0,0,6.1-5.5,11.5,11.5,0,0,0,1.7-3.3C198.9,69.2,199.4,67.9,199,66.7Z" style="fill:#a8662f;opacity:0.30000000000000004;mix-blend-mode:multiply"/><path d="M51.7,66a54.9,54.9,0,0,0-7,.5H37.9a49.7,49.7,0,0,1-12.7-2.2,48,48,0,0,1-9.5-4.2c-3.5-2.1-6.5-4.7-9.9-6.8-.9-.6-2.5-.3-2.3.6.8,3.4,4.6,6.4,8,8.6A48.3,48.3,0,0,0,23.7,68a58,58,0,0,0,15.1,2.3,62,62,0,0,0,8.6-.5c1.7-.2,4.7-.6,5.9-1.7S53,66.1,51.7,66Z" style="fill:#a8662f;opacity:0.30000000000000004;mix-blend-mode:multiply"/><path d="M89.2,78.6a87.8,87.8,0,0,1-12.6,2.5,74.5,74.5,0,0,1-12.5,0,70,70,0,0,1-12.9-1.6,44.9,44.9,0,0,1-14.8-6.4c-1.3-.8-2.5.1-1.9,1.1,2.2,3.4,7.3,5.8,11.8,7.3a58,58,0,0,0,16.2,2.9,95,95,0,0,0,16,0c4.3-.4,9.6-1.3,12.3-4C91.4,79.8,90.3,78.3,89.2,78.6Z" style="fill:#a8662f;opacity:0.30000000000000004;mix-blend-mode:multiply"/><path d="M149.6,79.6c-2.9,1-5.1,2.9-7.6,4.3a41.4,41.4,0,0,1-5.9,3.1,51.6,51.6,0,0,1-13.2,3.8c-10.1,1.7-21.2.3-30.8-2.6-2.1-.7-2.1,1.4-.7,2.1A46.3,46.3,0,0,0,107,94.8a64.6,64.6,0,0,0,18.1-.4A55.2,55.2,0,0,0,139.9,90a42.5,42.5,0,0,0,6.3-3.5c2.2-1.5,4.9-3.3,5.2-5.6A1.4,1.4,0,0,0,149.6,79.6Z" style="fill:#a8662f;opacity:0.30000000000000004;mix-blend-mode:multiply"/><path d="M186.3,77.2h.2l-.9.6L183.7,79c-1.2.8-2.3,1.7-3.5,2.4a28.4,28.4,0,0,1-7.5,3.3,35.4,35.4,0,0,1-9.3,1.3c-3.3,0-6.4-.5-9.6-.6s-1.5,1.5-.4,2.1c3.1,1.9,8,2.1,11.8,2.1a40.3,40.3,0,0,0,10.5-1.5,39.4,39.4,0,0,0,8.1-3.4c2.5-1.5,5.3-3.4,6-5.8S187.7,76.3,186.3,77.2Z" style="fill:#a8662f;opacity:0.30000000000000004;mix-blend-mode:multiply"/><path d="M139.9,94.4a30.6,30.6,0,0,0-5.9,1.7l-5.6,1.4a64.5,64.5,0,0,1-11.7,1.4,68.1,68.1,0,0,1-11.9-.5l-5.7-.9a58.8,58.8,0,0,0-7.3-1.4c-1.5,0-1.7,1-1.1,1.7s3.7,2,5.7,2.6a46.9,46.9,0,0,0,6.5,1.4,80.5,80.5,0,0,0,13.9.9,72,72,0,0,0,13.1-1.5,62.3,62.3,0,0,0,6.2-1.5c2.3-.7,5.4-1.5,6.9-3.1S141.4,94.2,139.9,94.4Z" style="fill:#a8662f;opacity:0.30000000000000004;mix-blend-mode:multiply"/><path d="M97.1,100.4H94.9a15.3,15.3,0,0,1-3,.3,44.2,44.2,0,0,1-6.3-.2c-3.8-.5-7.5-1.4-11.2-2.2A16.6,16.6,0,0,0,79.6,97c1-.5-.1-1.9-1.2-2-4.1-.1-8,.5-12.1.4A64.5,64.5,0,0,1,54.7,94c-7.5-1.6-15.4-4.6-21.2-8.5-1.4-.9-2.4.4-1.3,1.3A39.9,39.9,0,0,0,44,94.1a54.6,54.6,0,0,0,11.5,3.4,80,80,0,0,0,12.1,1.2h2.9c.1.4.5,1.3.9,1.2l2.7,1,1.8.7,3.4,1q3.2.8,6.3,1.2a35.3,35.3,0,0,0,13.4-.7C101.4,102.5,99,100.1,97.1,100.4Z" style="fill:#a8662f;opacity:0.30000000000000004;mix-blend-mode:multiply"/><path d="M177,90a35.5,35.5,0,0,1-12.1,6.2,47.2,47.2,0,0,1-7.5,1.4c-3.2.4-6.9.2-9.9,1.1-1,.3,0,1.6.7,1.8,6.3,1.6,13.8.5,19.8-1.2a33.3,33.3,0,0,0,7-2.9,15.6,15.6,0,0,0,5.4-4.7C181.2,90.5,178.3,89,177,90Z" style="fill:#a8662f;opacity:0.30000000000000004;mix-blend-mode:multiply"/><path d="M29,43.4a22.8,22.8,0,0,0-1.7-3,14.8,14.8,0,0,1-1.5-3.1c-.9-2.2-2-5-1.3-7.3a12.7,12.7,0,0,1,5.3-6.5c2-1.3,4.5-2.2,6.2-3.7s.4-.4.2-.6l-.5-.2a14.4,14.4,0,0,0-6.5,1.1A20,20,0,0,0,23,23.8c-1.9,1.6-2.5,4.4-4.8,5.6C13.3,31.9,8.8,35,6.3,39a10.3,10.3,0,0,0-1.5,8.6c.8,3.1,3.5,5.4,6.4,7.6a21.1,21.1,0,0,0,5.1,2.9,14.4,14.4,0,0,0,5.9,1.1c1-.1.8-1.2,0-1.5L20,56.9l-2.3-1.2a18.5,18.5,0,0,1-4-3.3c-2.9-2.8-4.7-6.1-4-9.6a6,6,0,0,1,1-2.5c1.8-3.3,4.7-5.5,8.5-7.5a15,15,0,0,0,2.4,5.9,13.2,13.2,0,0,0,2.8,3,11.8,11.8,0,0,0,3.7,2.4A.7.7,0,0,0,29,43.4Z" style="fill:#a8662f;opacity:0.30000000000000004;mix-blend-mode:multiply"/><path d="M210.4,50.5a16.9,16.9,0,0,0-2.2-3.9,24.3,24.3,0,0,0-2.9-2.6,12.4,12.4,0,0,0,.5-4.7c-.5-4.9-5.5-9.9-12.6-10.3-2-.1-1.5,1.7-.3,2.3,2.9,1.2,5.2,2.6,6.4,4.9a8.7,8.7,0,0,1,.6,6.5,19.7,19.7,0,0,1-3.3,6.2c-.7.9-1.5,1.8-2.2,2.8a4.6,4.6,0,0,0-1.1,2.6c-.2.7,1.3,1.7,2.2,1.2a18.7,18.7,0,0,0,7.8-7.4l.6-1v.2a12.5,12.5,0,0,1,1.5,3.6,11.3,11.3,0,0,1-.2,6.8,15.9,15.9,0,0,1-4,5.8,31.1,31.1,0,0,1-2.8,2.3,11.2,11.2,0,0,0-2.6,2.2c-.3.6.4,1.6,1.4,1.5,3.4-.1,6.6-2.2,8.7-4a16.1,16.1,0,0,0,4.6-6.9A12.5,12.5,0,0,0,210.4,50.5Z" style="fill:#f2a966"/><path d="M34.5,78.8a2.4,2.4,0,0,0-.9-.8l-1.2-.4h-.3l-.6-.2-1.3-.2-2-.4a29.1,29.1,0,0,1-3.9-1.2,19.5,19.5,0,0,1-6-3.4,16.7,16.7,0,0,1-3.7-4.8,11.5,11.5,0,0,1-1.1-3.1c-.3-1.4-.1-2.8-1.4-3.9s-2.2-1.1-3-.4a2.8,2.8,0,0,0-1.2,2.3A6.1,6.1,0,0,0,8,64.2a10.9,10.9,0,0,0,1.1,3.9,17.5,17.5,0,0,0,5,6.3A27.8,27.8,0,0,0,22.4,79a35.9,35.9,0,0,0,4.7,1.2,20.9,20.9,0,0,0,6.6.1A.9.9,0,0,0,34.5,78.8Z" style="fill:#f2a966"/><path d="M208.5,64.1a.8.8,0,0,0-1.2-.2,6.4,6.4,0,0,0-1.3,2.9,26.6,26.6,0,0,1-1.6,3.9,18,18,0,0,1-4.7,6.4,24.9,24.9,0,0,1-6.8,4.4l-4,1.6a25.8,25.8,0,0,0-3.9,1.4c-1,.4-.2,1.7.8,1.7,6.7.1,13.2-3.4,17.3-7a21,21,0,0,0,5.2-6.8C209.6,69.9,210.1,66.6,208.5,64.1Z" style="fill:#f2a966"/><path d="M176.7,23.3c-.8-4.6-9.6-8-14.8-9.7A46.3,46.3,0,0,0,143,11.2c-1.7.2-.3,2,.8,2.2a74.3,74.3,0,0,1,17.8,3.9c4.9,1.9,8.9,5,13.8,6.9C176.3,24.5,176.8,23.9,176.7,23.3Z" style="fill:#a8662f;opacity:0.30000000000000004;mix-blend-mode:multiply"/><path d="M69.1,13.2c-7.5-.9-16.1,1.1-22.5,3.7-4.6,1.8-10.7,4.9-10.5,9.2.1.4.7,1.4,1.5,1.1,5.2-2.3,8.6-6,14.2-7.9a48.2,48.2,0,0,1,10.1-2.5c2.7-.5,5.6-.7,8.2-1.6S70,13.3,69.1,13.2Z" style="fill:#a8662f;opacity:0.30000000000000004;mix-blend-mode:multiply"/><path d="M109.1,20.1c-6.2-3.2-16-3.6-23.3-3.7S70,16.6,63.6,19c-1.3.5.1,2,1.2,2,7.4-.4,14.5-1.4,22-1.2s14.5,2,21.9,2.6C110.9,22.6,110.3,20.7,109.1,20.1Z" style="fill:#a8662f;opacity:0.30000000000000004;mix-blend-mode:multiply"/><path d="M115.2,12.7A46.7,46.7,0,0,0,94.1,8.8c-2.3.1-.5,2.3.9,2.5a70.7,70.7,0,0,1,16.1,4.3c5.2,2.1,9,6.1,14.5,7.7a.9.9,0,0,0,1.2-.3C128.8,18.9,119.3,14.5,115.2,12.7Z" style="fill:#a8662f;opacity:0.30000000000000004;mix-blend-mode:multiply"/><path d="M161,21.4c-6-4.7-20.2-6.6-28-3.3-1.6.7,0,2.5,1.5,2.6,4,.2,7.9-.3,11.9,0s9.4,1.5,14.1,2.3C161.8,23.2,161.6,21.8,161,21.4Z" style="fill:#a8662f;opacity:0.30000000000000004;mix-blend-mode:multiply"/><path d="M191.9,23.9c-.5-4.5-9.7-7.2-14.6-8.3-7-1.5-17.1-2.2-23.7.2-1.4.5.4,2.2,1.4,2.2,7.6.4,14.7-.8,22.3,1,5.2,1.3,9,3.8,13.8,5.5A.5.5,0,0,0,191.9,23.9Z" style="fill:#f2a966"/><path d="M146.6,7.7c-6.9-1.9-14.9-.9-21.6,1s-14.6,5-17.8,9.3c-.6.8.8,2.4,2.1,2,5.6-1.9,10-5.2,15.5-7.3,7.1-2.7,14-3.2,22-3.1C148.1,9.6,147.3,8,146.6,7.7Z" style="fill:#f2a966"/><path d="M117.6,7A80.2,80.2,0,0,0,98,4.7c-6.1.1-14.7.3-19.8,3-1.4.8.8,2.4,2,2.3,5.5-.3,10.6-1.8,16.1-2.1a89.7,89.7,0,0,1,21.4,1.4C119.9,9.7,119.2,7.4,117.6,7Z" style="fill:#f2a966"/><path d="M86.8,17.5c-3.6-4-11.4-5.6-17.5-6.6S52.9,9.5,45.9,12.1c-1,.4-.2,1.8.9,1.8,7-.4,13.8-.9,20.8.1s12.1,3.6,18.5,4.7C87.1,18.8,87.2,18,86.8,17.5Z" style="fill:#f2a966"/></g><path d="M93.1,66.6l-4.9-.2A61.4,61.4,0,0,1,81,65l-4.1-1a27.3,27.3,0,0,0-4.1-.3h-.4A105.1,105.1,0,0,1,58,62c-2.8-.6-12.2-2.7-15.4-6.3h0l-.2-.2L41,55.1h-.1c-7.6-1.4-13-4.6-13.9-8.2v-.3c0-.2-.1-.3-.1-.4l-1-.6-.9-.6c-2.8-2.1-2-4.7-1.6-6.2a6.8,6.8,0,0,1,1.6-3c1.5-1.7,4.3-2.7,7-3.8l2.1-.8a14.4,14.4,0,0,0,3.3-1.8l1.2-.8,3.1-1.6.6-.3a48.8,48.8,0,0,1,16.6-3.9l6.4-.2h8.4l2.2-.4.6-.2,2-.4,1.3-.2a105.2,105.2,0,0,1,19.1-1.7,110.6,110.6,0,0,1,19.5,1.7,12.9,12.9,0,0,0,3.3.4l2.9-.2,2-.2h4q3.1,0,6.3.3a69,69,0,0,1,13.4,2.6h.3a19.5,19.5,0,0,0,2.3.6h2.6a67.5,67.5,0,0,1,13.3,1.7c2.6.7,7.3,2.2,9.3,4.8h0l.2.2.8.3h.1a17.4,17.4,0,0,1,6.4,3.2,5,5,0,0,1,1.4,2.2,2.4,2.4,0,0,0,.8,1.1,6.5,6.5,0,0,1,3.2,4,7.1,7.1,0,0,1-1.3,5.4l-.2.3v.4c1,2.8-.5,5.6-4.2,7.7A36.2,36.2,0,0,1,172.4,60h-.3a10.7,10.7,0,0,0-2.3.4,3.1,3.1,0,0,0-1,.5h-.2c-3.6,2.2-9.1,3.3-14.1,4a51,51,0,0,1-8.9.7,53.2,53.2,0,0,1-8.1-.6h-.8l-3.4-.3h-.7l-5.2.5-6.4.5-6.1.2c-3.1,0-6.1-.2-9.1-.4h-2.3a6.9,6.9,0,0,0-2,.3H101A39.4,39.4,0,0,1,93.1,66.6Z" style="fill:#c16c33"/><path d="M98.8,21.2A108,108,0,0,1,118,22.9a17.8,17.8,0,0,0,3.6.4c1.5,0,2.9-.2,5-.4h3.9c2.1,0,4.2.1,6.2.3a70.6,70.6,0,0,1,13.1,2.6l2.8.7h2.8a64.9,64.9,0,0,1,12.9,1.7c4,.9,7.2,2.4,8.4,4.2a1.9,1.9,0,0,0,.8.7l1.2.5a15.7,15.7,0,0,1,5.8,2.8c1.3,1.1.9,2.5,2.4,3.4,3.5,2.2,3,5,1.4,7.4a1.8,1.8,0,0,0-.4.9c-.1.4.1.7.2,1.1.8,2.1-.6,4.2-3.6,5.9s-7.3,2.9-12.2,3.5a12.5,12.5,0,0,0-3,.5,4.2,4.2,0,0,0-1.5.8c-3.1,1.9-8.2,3-13.5,3.8a61.5,61.5,0,0,1-8.7.6,67,67,0,0,1-7.9-.5,32.9,32.9,0,0,0-4.4-.5h-.8c-3.9.3-7.7.8-11.6,1l-6,.2c-3,0-6-.2-9-.4h-2.4a12.6,12.6,0,0,0-2.8.4,37,37,0,0,1-7.6.7l-4.8-.2c-4.1-.5-7.3-1.6-11.1-2.3a35.6,35.6,0,0,0-4.7-.5,92,92,0,0,1-14.2-1.6c-5.8-1.1-12.4-3.3-14.5-5.8l-.7-.6a5.3,5.3,0,0,0-1.9-.5c-6.9-1.3-12-4.2-12.8-7.2a2.1,2.1,0,0,0-.5-1.2c-.4-.6-1.4-1-2.1-1.5s-1.5-3-1-4.5A4.5,4.5,0,0,1,26,36.7c1.6-1.8,5.4-2.9,8.6-4.2a20.1,20.1,0,0,0,3.6-2l1-.7L42.9,28c4-2,9.7-3.3,16-3.8l6.3-.2h8.5a24.4,24.4,0,0,0,3.1-.6,26.1,26.1,0,0,1,3.2-.6,102.7,102.7,0,0,1,18.8-1.7m0-3h0A100.6,100.6,0,0,0,79.4,20l-1.2.2-2.1.3-.7.2-1.9.4H65.2l-6.6.2c-6.6.5-12.7,1.9-17.1,4.1l-.5.2-3.3,1.7-1.3.9a11.9,11.9,0,0,1-3,1.6l-2,.8c-2.9,1.1-5.8,2.3-7.6,4.1a7.2,7.2,0,0,0-1.9,3.7c-.4,1.4-1.5,5.1,2.1,7.8l1.1.7.4.2v.2c1.2,4.2,6.8,7.7,15.1,9.3h.2l.7.2c3.5,3.9,12.5,6,16.2,6.8a108.4,108.4,0,0,0,14.6,1.6h.4a22.9,22.9,0,0,1,3.9.3l4,.9A48.3,48.3,0,0,0,88,67.9l5.1.2a42.5,42.5,0,0,0,8.2-.7h.5a5.7,5.7,0,0,1,1.8-.3h2.1c3,.2,6.1.4,9.2.4l6.2-.2,6.5-.5,5.1-.5h.6l3.2.3h.8a56.9,56.9,0,0,0,8.3.6,55.3,55.3,0,0,0,9.2-.7c5.1-.7,10.8-1.8,14.6-4.2h.2l.6-.4,2-.3h.4A36.8,36.8,0,0,0,186,57.7c4.2-2.4,6.1-5.8,5.1-9.2a8.6,8.6,0,0,0,1.3-6.2,8.2,8.2,0,0,0-3.9-5c-.1-.1-.1-.3-.2-.4a6.3,6.3,0,0,0-1.8-2.7,21.2,21.2,0,0,0-6.9-3.5h-.5c-2.1-2.9-6.6-4.5-10-5.4a71.9,71.9,0,0,0-13.6-1.7H153l-2.1-.5h-.2A81,81,0,0,0,137,20.1c-2.2-.2-4.3-.3-6.5-.3h-4.1l-2.1.2-2.7.2a16,16,0,0,1-3-.3,105.7,105.7,0,0,0-19.8-1.8Z" style="fill:#f9c193"/><g style="clip-path:url(#clip-path)"><g style="mix-blend-mode:multiply"><path d="M46.6,40.8l-.9.6a16.9,16.9,0,0,1-3.3,1.7c-2.8,1.2-6.2,2.2-7.7,3.8a4.9,4.9,0,0,0-1,2.2c-.4,1.3-.8,2.8.9,4a15.6,15.6,0,0,1,1.9,1.4,2.1,2.1,0,0,1,.4,1c.7,2.7,5.2,5.3,11.4,6.4l1.7.5a1.7,1.7,0,0,1,.6.6c2,2.2,7.8,4.1,13,5.1a85.1,85.1,0,0,0,12.6,1.5,28.5,28.5,0,0,1,4.2.4c3.4.6,6.3,1.6,10,2a36.4,36.4,0,0,0,11-.4l2.5-.4h2.2a85.5,85.5,0,0,0,13.4.2l10.3-.8a23.7,23.7,0,0,1,4.6.3,49.6,49.6,0,0,0,14.9-.1c4.7-.7,9.2-1.6,12-3.3a2.7,2.7,0,0,1,1.3-.7,10,10,0,0,1,2.7-.5,30,30,0,0,0,10.9-3.1c2.6-1.5,3.9-3.4,3.2-5.3a2.9,2.9,0,0,1-.2-.9,1.2,1.2,0,0,1,.4-.8c1.4-2.2,1.9-4.7-1.3-6.6-1.3-.8-1-2.1-2.1-3a15.7,15.7,0,0,0-5.2-2.6l-1.1-.4a1.7,1.7,0,0,1-.6-.6c-1.2-1.6-4-3-7.5-3.8a60.2,60.2,0,0,0-11.6-1.5h-2.5l-2.5-.6a56.4,56.4,0,0,0-11.7-2.3,52.9,52.9,0,0,0-8.9-.2c-3.1.2-4.6.6-7.7,0a97.1,97.1,0,0,0-34,0l-2.8.5a20.2,20.2,0,0,1-2.8.5,22.8,22.8,0,0,1-3.7,0c-3.2,0-6.4-.1-9.5.2a41.9,41.9,0,0,0-14.3,3.3Z" style="fill:#8d8d8d"/></g></g><path d="M98.5,3a75.8,75.8,0,0,1,23,3.5,11.1,11.1,0,0,0,3.4.6,16.3,16.3,0,0,0,3.5-.5l2.6-.4a36,36,0,0,1,5.8-.4,43.7,43.7,0,0,1,7.2.6,53.9,53.9,0,0,1,16.8,5.7h.3a9.7,9.7,0,0,0,2.6,1.1,9.5,9.5,0,0,0,2.5.3h.4a49,49,0,0,1,16.8,3.5l2.1,1c2.7,1.2,5.1,2.7,6,4.6a14.8,14.8,0,0,1,3.4,5V28a1.1,1.1,0,0,1,.2.5l.7.4h.2l1.8,1c4.5,1.8,7.5,5.6,7.9,9.3a4.9,4.9,0,0,1,0,1.7,5.6,5.6,0,0,0,.9,2.2,13.7,13.7,0,0,1,3.5,7l.2.3a12.5,12.5,0,0,1,.2,8.1,12,12,0,0,1-2,3.9,5.1,5.1,0,0,0-.2.9v.7h.1c1.6,2.5,1.1,5.8-.2,8.3a1.4,1.4,0,0,0-.2.6,19.8,19.8,0,0,1-4.7,7.4c-3.8,4-9.6,7.1-16.3,8.6h-.5a9.6,9.6,0,0,0-2.4.8,5,5,0,0,0-1.1,1l-.2.3c-4.5,5.1-11.5,7.6-17.8,9.4a44.2,44.2,0,0,1-12.1,1.7,43.4,43.4,0,0,1-9.6-1l-.9-.3a17.7,17.7,0,0,0-3.7-.6H138l-6.3,1c-2.6.5-5.3,1-8,1.3a65.4,65.4,0,0,1-8.9.6,84.2,84.2,0,0,1-10.1-.7h-.2l-1.8-.2h-.4a6.6,6.6,0,0,0-2.2.6l-.6.3a31.4,31.4,0,0,1-10.8,1.9,36.6,36.6,0,0,1-5.7-.5,38.9,38.9,0,0,1-9.1-3.1L69,99.8a22.1,22.1,0,0,0-4.7-.7h-.5a74.6,74.6,0,0,1-18-3.5c-7.2-2.4-16-7.4-19.1-13.8v-.2c0-.2-.1-.4-.2-.4a3.3,3.3,0,0,0-1.2-.5H25a28.4,28.4,0,0,1-9.7-5.3l-1.2-.9a17.5,17.5,0,0,1-5-6.3A10.9,10.9,0,0,1,8,64.2a2.8,2.8,0,0,1-.1-.9.4.4,0,0,0-.1-.3v-.6A10.6,10.6,0,0,0,7.5,61a7.1,7.1,0,0,0-1.2-1.5,6.9,6.9,0,0,1-1.1-1.3c-3-4-2.2-8.8-1.7-11.9A19.4,19.4,0,0,1,5.3,40c1.9-3.6,5.4-6,8.8-8.4l2.5-1.9a16.5,16.5,0,0,0,4-3.9c.5-.6.9-1.2,1.5-1.8s2.6-2.5,3.9-3.7l.8-.6c5.3-4.8,12.7-8,21-9.2a55.9,55.9,0,0,1,9.7-.6h6L66,9.8A6.5,6.5,0,0,0,68.2,9l.9-.4,2.6-.9,1.5-.4A75.5,75.5,0,0,1,98.5,3m0-3h0A78.9,78.9,0,0,0,72.2,4.4l-1.3.4a22.2,22.2,0,0,0-3,1.1l-1,.4a2.6,2.6,0,0,1-1.4.5l-2,.2h-6a76.7,76.7,0,0,0-10.2.6c-8.8,1.3-16.8,4.8-22.5,9.9l-.8.7c-1.3,1.2-2.8,2.5-4.1,3.9s-1.2,1.3-1.7,2a13.7,13.7,0,0,1-3.4,3.4l-2.4,1.7c-3.5,2.5-7.5,5.3-9.7,9.5A23.3,23.3,0,0,0,.5,45.8C0,49.2-1,55,2.8,60a10,10,0,0,0,1.3,1.5l.6.7c0,.2.1.4.1.6a1.3,1.3,0,0,0,.1.6v.3c0,.3.1.5.1.9a15.7,15.7,0,0,0,1.3,4.7,21.8,21.8,0,0,0,5.9,7.5l1.2.8h.1a32,32,0,0,0,10.6,5.8h.2c4.5,8.9,16.8,13.7,20.6,15a78.6,78.6,0,0,0,18.7,3.6h.5a14.7,14.7,0,0,1,4,.6l4.6,1.8a45.1,45.1,0,0,0,9.8,3.2,31.8,31.8,0,0,0,6.2.6,35.4,35.4,0,0,0,11.9-2.1l.6-.3,1.4-.4h.1l1.4.2h.2a73.1,73.1,0,0,0,10.5.8,72.6,72.6,0,0,0,9.3-.6l8.1-1.3c2.1-.4,4.2-.8,6.2-1h.4a13.2,13.2,0,0,1,3,.6h.1l.9.2a49,49,0,0,0,10.2,1.1,45.7,45.7,0,0,0,12.9-1.8c6.7-1.9,14.2-4.6,19.2-10.3l.3-.3h0l.4-.5,1.5-.3.5-.2a35.9,35.9,0,0,0,17.8-9.4,22.3,22.3,0,0,0,5.2-8.3c.1-.2.2-.3.2-.4a12.1,12.1,0,0,0,.6-10.3,20.9,20.9,0,0,0,1.9-4,15.8,15.8,0,0,0-.3-10.1h-.1a16.6,16.6,0,0,0-4.1-8l-.2-.6a9.7,9.7,0,0,0,0-1.7c-.5-5-4.3-9.5-9.6-11.7l-1.6-.9a17.4,17.4,0,0,0-3.6-5.5c-1.2-2.1-3.6-3.9-7.2-5.5l-2.2-1a50.7,50.7,0,0,0-17.9-3.8h-.3l-2-.2a7.1,7.1,0,0,1-1.9-.8l-.3-.2a59.8,59.8,0,0,0-17.7-6,50.9,50.9,0,0,0-7.7-.6,62.6,62.6,0,0,0-6.3.4l-2.7.5a19.7,19.7,0,0,1-2.9.4,8.5,8.5,0,0,1-2.5-.5A81.8,81.8,0,0,0,98.5,0Z" style="fill:#75411a"/></g></g></g></g></svg>