<svg xmlns="http://www.w3.org/2000/svg" viewBox="0 0 38.8 84.3"><g style="isolation:isolate"><g id="Layer_2" data-name="Layer 2"><g id="Layer_1-2" data-name="Layer 1"><g id="clean_1" data-name="clean 1"><path d="M17.3,8.5h.5l2.5.2h1.5v7.2H17.3V8.5m0-2A2.1,2.1,0,0,0,16,7a2,2,0,0,0-.7,1.5v7.4a2,2,0,0,0,2,2h4.5a2,2,0,0,0,2-2V8.7a2.3,2.3,0,0,0-.7-1.5,2.1,2.1,0,0,0-1.3-.5H20.3a8.2,8.2,0,0,1-2.1-.2h-.9Z" style="fill:#c3bf4f"/><path d="M21.8,8.7v7.2H17.3V8.5h.5l2.5.2Z" style="fill:#9be3bb"/><path d="M28.4,26.7a6.5,6.5,0,0,1-.4,1.9H10.6a4.6,4.6,0,0,1-.5-2,4.2,4.2,0,0,1,3.3-4.2H25.3A4.3,4.3,0,0,1,28.4,26.7Z" style="fill:#9be3bb"/><path d="M26.3,18.7v1.6a2.9,2.9,0,0,1-1,2.2H13.4a2.9,2.9,0,0,1-1-2.2V18.7a2.8,2.8,0,0,1,2.9-2.8h8.1A2.8,2.8,0,0,1,26.3,18.7Z" style="fill:#f1f2b6"/><path d="M23.4,15.9a2.8,2.8,0,0,1,2.9,2.8v1.6a2.9,2.9,0,0,1-1,2.2,4.3,4.3,0,0,1,3.1,4.2,6.5,6.5,0,0,1-.4,1.9H10.6a4.6,4.6,0,0,1-.5-2,4.2,4.2,0,0,1,3.3-4.2,2.9,2.9,0,0,1-1-2.2V18.7a2.8,2.8,0,0,1,2.9-2.8h8.1m0-2H15.3a4.8,4.8,0,0,0-4.9,4.8v1.6a5.1,5.1,0,0,0,.2,1.3,6.5,6.5,0,0,0-2.5,5.1,6.7,6.7,0,0,0,.8,3,1.9,1.9,0,0,0,1.7,1H28a1.8,1.8,0,0,0,1.7-1.1,5.8,5.8,0,0,0,.7-2.8,6.2,6.2,0,0,0-2.3-4.9,7.7,7.7,0,0,0,.2-1.5V18.7a4.8,4.8,0,0,0-4.9-4.8Z" style="fill:#c3bf4f"/><path d="M36.8,43.8V73a9.3,9.3,0,0,1-9.3,9.3H12.1A9.3,9.3,0,0,1,2.8,73V45.9l2.2.2H6.1l3,.2h4.7A98.4,98.4,0,0,0,36.8,43.8Z" style="fill:#f1f2b6"/><path d="M36.8,39.9v3.9a98.4,98.4,0,0,1-23,2.7H9.1l-3-.2H5l-2.2-.2v-6a9.3,9.3,0,0,1,7.8-9.2H28A9.3,9.3,0,0,1,36.8,39.9Z" style="fill:#f1f2b6"/><path d="M4.1,10.5H3.5a2.2,2.2,0,0,1-1.1-.5A3,3,0,0,1,1,7.6,3.2,3.2,0,0,1,2,5,11.7,11.7,0,0,1,14.4,2.5a6.7,6.7,0,0,0,2.8.6h.2a6.9,6.9,0,0,0,3.1-.9,6.4,6.4,0,0,1,2.2-1L24,1a4.1,4.1,0,0,1,2.4.8,2.9,2.9,0,0,1,1.1,2,3.5,3.5,0,0,1-.6,2.4,8,8,0,0,1-5,2.5H20.3l-2.6-.2h-.6l-1.8-.4-2-.4-2.8-.3-1.8.2a2.3,2.3,0,0,0-1.5,1A3.9,3.9,0,0,1,4.1,10.5Z" style="fill:#c3bf4f"/><path d="M24,2a3.7,3.7,0,0,1,1.8.5,2.2,2.2,0,0,1,.3,3,6.4,6.4,0,0,1-4.3,2.2H20.3l-2.5-.2h-.5l-3.8-.8a15.3,15.3,0,0,0-3-.3l-2,.2A3.2,3.2,0,0,0,6.4,8,2.9,2.9,0,0,1,4.1,9.5H3.7A.9.9,0,0,1,3,9.1a2.2,2.2,0,0,1-.3-3.4,10.5,10.5,0,0,1,7.5-3,9.9,9.9,0,0,1,3.8.7,7.1,7.1,0,0,0,3.2.7h.3A8.9,8.9,0,0,0,21,3a8.2,8.2,0,0,1,1.9-.9H24m0-2h0L22.4.2A13.3,13.3,0,0,0,20,1.3a5.2,5.2,0,0,1-2.6.8h-.2a6.4,6.4,0,0,1-2.4-.5A11.8,11.8,0,0,0,10.2.7,12.7,12.7,0,0,0,1.3,4.3,4.3,4.3,0,0,0,0,7.7a4,4,0,0,0,1.9,3.1,3.5,3.5,0,0,0,1.4.6h.8a5,5,0,0,0,4-2.4,1.2,1.2,0,0,1,.8-.5l1.6-.2,2.6.3,2,.4,1.8.4h.6l2.8.2h1.8a8.5,8.5,0,0,0,5.5-2.9,3.9,3.9,0,0,0,.9-3.1A3.9,3.9,0,0,0,27,1a4.7,4.7,0,0,0-3-1Z" style="fill:#928e31"/><path d="M36.8,43.8V64.9c-1.6.7-3.3,1.3-5.1,1.9a48.3,48.3,0,0,1-28.9-.4V45.9l2.2.2H6.1l3,.2h4.7A98.4,98.4,0,0,0,36.8,43.8Z" style="fill:#9be3bb"/><path d="M17.5,57.8A2,2,0,0,0,20.1,59a2.1,2.1,0,0,0,1.2-2.6,2.2,2.2,0,0,0-2.6-1.2A2.1,2.1,0,0,0,17.5,57.8Z" style="fill:#9be3bb"/><path d="M17.9,17.9c-.2,2.2-.4,4.3-.7,6.5s-.8,4.1-1.4,6.2A63.1,63.1,0,0,1,9.1,46.4a66.8,66.8,0,0,1-6.3,8.5v-15a9.3,9.3,0,0,1,7.8-9.2,4.6,4.6,0,0,1-.5-2,4.2,4.2,0,0,1,3.3-4.2,2.9,2.9,0,0,1-1-2.2V20.7a2.8,2.8,0,0,1,2.9-2.8h2V10.5l-3.8-.8a14,14,0,0,0-5-.1A3.2,3.2,0,0,0,6.4,11a2.7,2.7,0,0,1-2.7,1.4.9.9,0,0,1-.7-.3,2.2,2.2,0,0,1-.3-3.4A10.6,10.6,0,0,1,14,6.4a8,8,0,0,0,3.4.7h.1c.1,1.2.3,2.3.3,3.5A59.3,59.3,0,0,1,17.9,17.9Z" style="fill:#fff;opacity:0.14902;mix-blend-mode:overlay"/><path d="M36.8,51.9V73a9.3,9.3,0,0,1-9.3,9.3H18A45.3,45.3,0,0,0,31.7,66.8,47,47,0,0,0,36.8,51.9Z" style="opacity:0.101961;mix-blend-mode:overlay"/><path d="M27.5,30.6H28a9.3,9.3,0,0,1,8.8,9.3V73a9.3,9.3,0,0,1-9.3,9.3H12.1A9.3,9.3,0,0,1,2.8,73V39.9a9.3,9.3,0,0,1,7.8-9.2H27.5m0-2H10.3A11.3,11.3,0,0,0,.8,39.9V73A11.4,11.4,0,0,0,12.1,84.3H27.5A11.3,11.3,0,0,0,38.8,73V39.9A11.3,11.3,0,0,0,28,28.6Z" style="fill:#c3bf4f"/><path d="M14.7,51.5l-.5.4-.3.2-.3-.6a3.5,3.5,0,0,0-1.1-1.3,1,1,0,0,0-1.5.2,3.2,3.2,0,0,0-.6,2.3A4.1,4.1,0,0,0,11.9,55c-.1.3-.1.6-.3.8a6.6,6.6,0,0,1-2-2.4,3.4,3.4,0,0,1,.9-3.7,2,2,0,0,1,2.3-.3,2.9,2.9,0,0,1,1.2,1Z" style="fill:#983824"/><path d="M11.9,55a4.1,4.1,0,0,1-1.5-2.3,3.2,3.2,0,0,1,.6-2.3,1,1,0,0,1,1.5-.2,3.5,3.5,0,0,1,1.1,1.3l.3.6L13,53a3.3,3.3,0,0,0-.6,1c-.1.1-.1.1-.1.2h0A5.9,5.9,0,0,0,11.9,55Z" style="fill:#e29a64"/><path d="M25.8,52.1l-.8-.6a4.9,4.9,0,0,1,1.6-1.9,2,2,0,0,1,3,.6,3.5,3.5,0,0,1-.1,4.1,11.4,11.4,0,0,1-1.6,1.5,1.4,1.4,0,0,1-.2-.7A5.9,5.9,0,0,0,29,53.3a3,3,0,0,0-.3-2.9,1.1,1.1,0,0,0-1.5-.3c-.2.2-.4.3-.5.5A6,6,0,0,0,25.8,52.1Z" style="fill:#ac462c"/><path d="M25.8,52.1a6,6,0,0,1,.9-1.5c.1-.2.3-.3.5-.5a1.1,1.1,0,0,1,1.5.3,3,3,0,0,1,.3,2.9,5.9,5.9,0,0,1-1.3,1.8c-.1-.1-.1-.3-.3-.5h0a3.1,3.1,0,0,0-.5-1,4.1,4.1,0,0,0-1-1.3C25.8,52.2,25.8,52.2,25.8,52.1Z" style="fill:#f0bd88"/><path d="M27.4,54.6l-.8-.8a3,3,0,0,0-2-.8,1.8,1.8,0,0,0-1.2.5,5.1,5.1,0,0,0-1.2,2,16.7,16.7,0,0,0-.8,3c-.1.4-.1.9-.2,1.3h-.1a2,2,0,0,0-1.4-.6c-.1-1.4-.2-2.8-.4-4.2a.8.8,0,0,0,.8-.1,1.3,1.3,0,0,0,.7-.6,3.5,3.5,0,0,0,.8-2.4,4.7,4.7,0,0,0-.4-1.6,7.6,7.6,0,0,1,3.6,1.1H25l.8.6c0,.1,0,.1.1.2a4.1,4.1,0,0,1,1,1.3A3.1,3.1,0,0,1,27.4,54.6Z" style="fill:#ed793e"/><path d="M19.3,55c.2,1.4.3,2.8.4,4.2a1.6,1.6,0,0,0-.9.3c-.2.1-.3.3-.5.3a17.6,17.6,0,0,0-1.4-4.6,3.5,3.5,0,0,0-1.5-1.7,2.1,2.1,0,0,0-2.6.3l-.5.4c0-.1,0-.1.1-.2a3.3,3.3,0,0,1,.6-1l.9-.9.3-.2.5-.4h.1a8.1,8.1,0,0,1,2.1-1l.3,1.2A5.3,5.3,0,0,0,18.5,54a3.9,3.9,0,0,0,.8,1Z" style="fill:#cc5d33"/><path d="M21.1,47.4a.1.1,0,0,1,.1-.1Z" style="fill:#943623"/><path d="M12.3,54.2Z" style="fill:#cc5d33"/><path d="M28.9,60a6.9,6.9,0,0,1-.2-1.3,3.2,3.2,0,0,1-.3-.9c-.2-.7-.3-1.3-.5-2a1.4,1.4,0,0,1-.2-.7c-.1-.1-.1-.3-.3-.5h0l-.8-.8a3,3,0,0,0-2-.8,1.8,1.8,0,0,0-1.2.5,5.1,5.1,0,0,0-1.2,2,16.7,16.7,0,0,0-.8,3c-.1.4-.1.9-.2,1.3h-.1a2,2,0,0,0-1.4-.6,1.6,1.6,0,0,0-.9.3c-.2.1-.3.3-.5.3a17.6,17.6,0,0,0-1.4-4.6,3.5,3.5,0,0,0-1.5-1.7,2.1,2.1,0,0,0-2.6.3l-.5.4h0a5.9,5.9,0,0,0-.4.8c-.1.3-.1.6-.3.8h0a10.5,10.5,0,0,0-.4,1.7,23.3,23.3,0,0,1-.5,2.8,2.5,2.5,0,0,0-.1,1.2h0a1.3,1.3,0,0,0,.1.6,4.5,4.5,0,0,0,2,2.5,8.6,8.6,0,0,0,2.4,1.1h.2a11.5,11.5,0,0,0,2.6.3h1.3a4,4,0,0,1,1.1,0c0-.1.1-.1.2,0h1.3a12.7,12.7,0,0,0,2.8-.3h.3a8.3,8.3,0,0,0,2.9-1.6l.5-.6a2.9,2.9,0,0,0,.8-1.9A2.2,2.2,0,0,0,28.9,60Z" style="fill:#f0bd88"/><path d="M27.4,54.6Z" style="fill:#ed793e"/><polygon points="19.9 51.7 19.9 51.8 19.9 51.8 19.9 51.7" style="fill:#943623"/><path d="M19.1,48.2h0Z" style="fill:#fcfcfc"/><path d="M22.4,62c-.2-.1-.2,0-.2.1a1.6,1.6,0,0,1-.7.7,1.1,1.1,0,0,1-1.5-.6c0-.1,0-.1-.1-.2h-.2c-.1.1-.1.1-.1.2a1.1,1.1,0,0,1-1.5.6,1,1,0,0,1-.7-.7c0-.1-.1-.2-.2-.1s-.1.1-.1.2.1.2.1.3a1.3,1.3,0,0,0,1,.7,1.6,1.6,0,0,0,1.6-.7,1.5,1.5,0,0,0,1.6.7,1.3,1.3,0,0,0,1-.7c0-.1.1-.2.1-.3S22.5,62,22.4,62Z" style="fill:#ca743f"/><path d="M20.7,60A4.9,4.9,0,0,0,19,60q-.9.2-.3.9a.1.1,0,0,0,.1.1,1.2,1.2,0,0,0,1,.6h.1a1.5,1.5,0,0,0,1-.7C21.2,60.5,21.2,60.2,20.7,60Z" style="fill:#58393a"/><path d="M16.6,58a.8.8,0,0,0-1.2-.2,1.3,1.3,0,0,0,0,1.8.9.9,0,0,0,1.3-.1,2.5,2.5,0,0,0,.2-.7A1,1,0,0,0,16.6,58Z" style="fill:#58393a"/><path d="M24.2,58.2a1,1,0,0,0-1.5-.3,1.4,1.4,0,0,0,0,1.5.8.8,0,0,0,1.4,0,1.4,1.4,0,0,0,.2-.7A.7.7,0,0,0,24.2,58.2Z" style="fill:#58393a"/><path d="M21.2,50.3a11.3,11.3,0,0,1-.3-1.8c0-.4.2-.7.2-1.1a.1.1,0,0,1,.1-.1h0c.1-.5-.1-.8-.6-.7s-.7.4-1,.8a2.2,2.2,0,0,0-.5.8H19v-.2a.5.5,0,0,0-.8-.5,1.7,1.7,0,0,0-.6.6,4.5,4.5,0,0,0-.7,2.5l.3,1.2A5.3,5.3,0,0,0,18.5,54a3.9,3.9,0,0,0,.8,1h0a.8.8,0,0,0,.8-.1,1.3,1.3,0,0,0,.7-.6,3.5,3.5,0,0,0,.8-2.4A4.7,4.7,0,0,0,21.2,50.3Zm-1.3,1.5Z" style="fill:#ed793e"/><path d="M20.8,46.6c.3,0,.5.3.4.7h0a.1.1,0,0,0-.1.1c0,.4-.2.7-.2,1.1a11.3,11.3,0,0,0,.3,1.8h0c.1,0,.1.1.1.2a3.5,3.5,0,0,1,.3,1.4,3.5,3.5,0,0,0-.3-1.4c0-.1,0-.2-.1-.2a7.6,7.6,0,0,1,3.6,1.1H25a4.9,4.9,0,0,1,1.6-1.9,2,2,0,0,1,1.3-.4,2,2,0,0,1,1.7,1,3.5,3.5,0,0,1-.1,4.1,11.4,11.4,0,0,1-1.6,1.5c.2.7.3,1.3.5,2a3.2,3.2,0,0,0,.3.9,6.9,6.9,0,0,0,.2,1.3,2.2,2.2,0,0,1,.2,1.6,2.9,2.9,0,0,1-.8,1.9l-.5.6a8.3,8.3,0,0,1-2.9,1.6h-.3a12.7,12.7,0,0,1-2.8.3H20.5a.1.1,0,0,0-.1-.1H17.9a11.5,11.5,0,0,1-2.6-.3h-.2a8.6,8.6,0,0,1-2.4-1.1,4.5,4.5,0,0,1-2-2.5,1.3,1.3,0,0,1-.1-.6h0a2.5,2.5,0,0,1,.1-1.2,23.3,23.3,0,0,0,.5-2.8,10.5,10.5,0,0,1,.4-1.7h0a6.6,6.6,0,0,1-2-2.4,3.4,3.4,0,0,1,.9-3.7,1.8,1.8,0,0,1,1.3-.5,1.6,1.6,0,0,1,1,.2,2.9,2.9,0,0,1,1.2,1l.7,1.1h.1a8.1,8.1,0,0,1,2.1-1,4.5,4.5,0,0,1,.7-2.5,1.7,1.7,0,0,1,.6-.6h.3c.3,0,.5.2.5.6v.2h.1a2.2,2.2,0,0,1,.5-.8c.3-.4.5-.7,1-.8h.2m0-2h-.6a3.7,3.7,0,0,0-1.4.6h-.3a2.2,2.2,0,0,0-1.3.4,2.9,2.9,0,0,0-1.3,1.2,5.3,5.3,0,0,0-.8,1.7,7.1,7.1,0,0,0-1.4-1,4.1,4.1,0,0,0-1.9-.4,3.7,3.7,0,0,0-2.6,1,5.3,5.3,0,0,0-1.4,5.9,8.4,8.4,0,0,0,1.6,2.4,1.9,1.9,0,0,0-.1.8c-.2.8-.3,1.7-.5,2.6a3.4,3.4,0,0,0-.2,1.9,2.5,2.5,0,0,0,.2,1,6.9,6.9,0,0,0,2.8,3.6,9.7,9.7,0,0,0,2.9,1.3h.4a10.3,10.3,0,0,0,3,.4h4a10.6,10.6,0,0,0,3.1-.4h.5a9.1,9.1,0,0,0,3.6-2l.2-.2v-.2a1.2,1.2,0,0,0,.5-.5,5.2,5.2,0,0,0,1.2-2.8,5.1,5.1,0,0,0-.1-2.2c-.1-.1-.1-.1-.1-.2s-.1-.3-.1-.5-.1-.4-.2-.5a1.3,1.3,0,0,0-.1-.6v-.2c0-.2,0-.3-.1-.4a1.9,1.9,0,0,0-.2-.8l.9-1a5.4,5.4,0,0,0,.3-6.4,4.2,4.2,0,0,0-3.4-1.9,4,4,0,0,0-2.4.7,5.8,5.8,0,0,0-1.2,1l-1.4-.4h0a1.4,1.4,0,0,0,.2-.6h0v-.2h0a2.2,2.2,0,0,0-.4-2,2.3,2.3,0,0,0-1.9-1Z" style="fill:#928e31"/></g></g></g></g></svg>