<svg id="Layer_1" data-name="Layer 1" xmlns="http://www.w3.org/2000/svg" xmlns:xlink="http://www.w3.org/1999/xlink" viewBox="0 0 187.5 213.5"><defs><clipPath id="clip-path"><path d="M164.5,109.9h-9.2c-6.2,0-12.2,1.3-16,3.5l-9.2,5.2c-1.9,1-5.8.4-5.8-.9V98.5c-.4,2.8-11.9,5-27,5.5a39.5,39.5,0,0,1-11.8-3.1l-1.4-.8a13.3,13.3,0,0,0-1.4-1.9,9.5,9.5,0,0,0-8.9-2.6,7.2,7.2,0,0,1-2.1-1.2l-.4-.4c-2.5-1.7-2.6.5-4.5-1.3a10.3,10.3,0,0,0-6.4-2.5,1.5,1.5,0,0,0-1,1.2h0c-2-4.7-5.2-3.4-5.8-3.1a.4.4,0,0,0-.1.3,33.5,33.5,0,0,1,1.1,5.5c.6,5.3,2.1,36.3,3.1,56.7h0c-.1.6-2.5,24.2-10.3,39.6a48.5,48.5,0,0,1-2.9,4.9h0l-1,1.7h0l-5,8c-1.3,1.9,3.1,3.6,7.3,2.8a115.9,115.9,0,0,1,40.7.1c22.1,3.9,18.9-4.2,37.8-1.3,9.7,1.5,21.8,1.4,31.4,1.1,6.4-.3,8.9-3.8,4-5.6l-11.5-4.4h0c-19.9-5-18-58.1,0-70.3,10.5-7.2,16.8-12,20.2-14.7C170,111.5,167.9,109.9,164.5,109.9Z" style="fill:none"/></clipPath><clipPath id="clip-path-2"><path d="M4,83.9c.4-6,3.5-12.1,12.6-16.3,0,0-9.8-29.6,24.6-28.6,0,0-3.7-30.7,33.8-36.3s48,26.2,48,26.2,22.1-13.6,38.3,2,8,35.2,8,35.2,20.9,21-2.2,35.5c-18.8,11.9-111.7,5.6-144.7,2.9A19.8,19.8,0,0,1,4,83.9Z" style="fill:none"/></clipPath><clipPath id="clip-path-3"><path d="M114.1,109.6c.2-2.5,1.4-5,5.2-6.7,0,0-4.1-12.1,10-11.7,0,0-1.5-12.5,13.8-14.8s19.6,10.7,19.6,10.7,9.1-5.6,15.7.8a13.7,13.7,0,0,1,3.3,14.4s8.5,8.6-.9,14.5c-7.7,4.9-45.7,2.3-59.2,1.2A8.3,8.3,0,0,1,114.1,109.6Z" style="fill:none"/></clipPath></defs><g id="Layer_2" data-name="Layer 2"><g id="Layer_1-2" data-name="Layer 1-2"><path d="M44.5,195.4l-1,1.7A5.9,5.9,0,0,1,44.5,195.4Z" style="fill:#966735"/><path d="M97.2,210.6a80.4,80.4,0,0,1-11-1.1,111.8,111.8,0,0,0-20.8-1.9,89.5,89.5,0,0,0-19.3,1.8l-2.5.2c-2.4,0-5.5-.7-6.5-2.6a2.6,2.6,0,0,1,.1-2.7c1.8-2.8,3.4-5.4,4.9-7.9h.1l1-1.7h.1a44.8,44.8,0,0,0,2.8-4.7c7.4-14.7,9.9-37.4,10.1-39-.9-18.8-2.5-51.2-3.1-56.5A31.2,31.2,0,0,0,52,89.2h0a1.6,1.6,0,0,1,.9-1.9,5,5,0,0,1,2.4-.6,5.3,5.3,0,0,1,4.4,2.5l.5-.2h.6a11.5,11.5,0,0,1,7,2.9c.3.3.5.3.5.3h1.1a4.5,4.5,0,0,1,2.7,1l.6.5,1.3.7h1.9a10.2,10.2,0,0,1,7.9,3.3,8.6,8.6,0,0,1,1.4,1.8l1,.5a35.1,35.1,0,0,0,11.1,3c16.5-.5,24.7-3,25.5-4.3a1.6,1.6,0,0,1,1.5-1.2h.1a1.5,1.5,0,0,1,1.4,1.5v18.8a5.7,5.7,0,0,0,1.8.3,4.7,4.7,0,0,0,1.7-.3l9.2-5.2c4.1-2.4,10.3-3.7,16.8-3.7h9.2c2.9,0,5.2,1,5.8,2.7a2.7,2.7,0,0,1-1,2.9c-3.4,2.7-9.6,7.5-20.3,14.7s-15.6,31.9-12.6,49c1.1,6.1,4.1,16.7,12.2,18.7h.2l11.5,4.3c3.5,1.3,3.6,3.4,3.4,4.2-.4,2.4-3.5,4.1-7.9,4.3l-10.7.2h0a164.4,164.4,0,0,1-21-1.3,44.9,44.9,0,0,0-7.3-.6,27.9,27.9,0,0,0-9.1,1.4A37.2,37.2,0,0,1,97.2,210.6Z" style="fill:#924f28"/><path d="M55.3,87.9c1.3,0,2.9.7,4.1,3.5h0a1.5,1.5,0,0,1,1-1.2h.5a9.3,9.3,0,0,1,5.9,2.5,2.1,2.1,0,0,0,1.5.7h1.1a4.4,4.4,0,0,1,1.9.7l.4.4a7.2,7.2,0,0,0,2.1,1.2l2.1-.2a8.8,8.8,0,0,1,6.8,2.8,13.3,13.3,0,0,1,1.4,1.9l1.4.8a39.5,39.5,0,0,0,11.8,3.1c15.1-.5,26.6-2.7,27-5.5v19.2c0,.9,1.6,1.4,3.3,1.4a5.3,5.3,0,0,0,2.5-.5l9.2-5.2c3.8-2.2,9.8-3.5,16-3.5h9.2c3.4,0,5.5,1.6,3.9,2.9-3.4,2.7-9.7,7.5-20.2,14.7-18,12.2-19.9,65.3,0,70.3h0l11.5,4.4c4.9,1.8,2.4,5.3-4,5.6l-10.6.2a144.3,144.3,0,0,1-20.8-1.3,47.4,47.4,0,0,0-7.5-.6c-8.4,0-10.8,3-19.6,3A63.7,63.7,0,0,1,86.5,208a115,115,0,0,0-21.1-1.9,107.5,107.5,0,0,0-19.6,1.8l-2.2.2c-3.3,0-6.1-1.4-5.1-3l5-8h0l1-1.7h0a48.5,48.5,0,0,0,2.9-4.9c7.8-15.4,10.2-39,10.3-39.6h0c-1-20.4-2.5-51.4-3.1-56.7a34.7,34.7,0,0,0-1.1-5.6.4.4,0,0,1,.1-.3,3.3,3.3,0,0,1,1.7-.4m0-3h0a6.5,6.5,0,0,0-3.1.8,3.2,3.2,0,0,0-1.7,3.5c.1,0,.1.1.1.2a27.7,27.7,0,0,1,1,5c.4,4,1.5,24,3.1,56.4-.3,2.3-2.8,24.2-10,38.3a41.7,41.7,0,0,1-2.6,4.6H42c0,.1-.1.1-.1.2a14,14,0,0,1-1,1.6v.2c-1.5,2.5-3.1,5-4.9,7.8a3.9,3.9,0,0,0-.1,4.3c1.3,2.4,4.9,3.3,7.8,3.3l2.7-.2a102.1,102.1,0,0,1,19.1-1.8,118.6,118.6,0,0,1,20.6,1.8,69.8,69.8,0,0,0,11.2,1.2,36.5,36.5,0,0,0,10.9-1.7,28.2,28.2,0,0,1,8.7-1.3,42.5,42.5,0,0,1,7.1.6,166.4,166.4,0,0,0,21.2,1.3l10.8-.2c5.2-.3,8.8-2.4,9.3-5.5.2-1,.3-4.2-4.4-5.9l-11.4-4.3-.5-.2c-5.2-1.3-9.3-7.7-11-17.5-2.9-16.6,1.6-40.4,12-47.5s16.9-12,20.3-14.8a3.8,3.8,0,0,0,1.5-4.5c-.8-2.3-3.6-3.7-7.2-3.7h-9.2c-6.8,0-13.2,1.4-17.5,3.9l-9.2,5.2h-1.3V98.5a3,3,0,0,0-2.8-3h-.2a3.2,3.2,0,0,0-2.8,1.9c-1.5,1-9.1,3.1-24.1,3.6a29.9,29.9,0,0,1-10.6-2.9l-.6-.2A8.3,8.3,0,0,0,85,96.1a12.2,12.2,0,0,0-9-3.7H74.3l-.7-.4-.6-.5a5.9,5.9,0,0,0-3.6-1.3h-.7A13.2,13.2,0,0,0,60.9,87h-.6a6.9,6.9,0,0,0-5-2.3Z" style="fill:#6a3417"/><path d="M124.3,98.4h0c-.4,2.8-11.9,5-27,5.5a39.4,39.4,0,0,1-11.8-3l-1.4-.8a13.3,13.3,0,0,0-1.4-1.9,9.5,9.5,0,0,0-8.9-2.6,7.2,7.2,0,0,1-2.1-1.2l-.4-.4a144.3,144.3,0,0,1,20.8-1.3C109.9,92.7,124.3,95.2,124.3,98.4Z" style="fill:#ce894a;stroke:#6a3417;stroke-miterlimit:10;stroke-width:3px"/><g style="opacity:0.6499999761581421"><path d="M59.4,99.4c2.1,4,5.9,11.5,7.2,15.6a66.5,66.5,0,0,1,2.8,12.5,66.9,66.9,0,0,1-1.3,25.2c-1,4.2-2.4,8.4-3.8,12.6s-2.9,8.3-4.4,12.4l-4.4,12.5-4.7,12.5c1.3-4.2,2.6-8.4,3.8-12.6l4-12.5c1.3-4.1,2.7-8.3,4-12.5a111.6,111.6,0,0,0,3.7-12.5,75.7,75.7,0,0,0,1.8-25.1,75.2,75.2,0,0,0-2.3-12.4C64.7,111,61.2,103.5,59.4,99.4Z" style="fill:#75411a"/></g><g style="opacity:0.6499999761581421"><path d="M88.3,105.5a37.5,37.5,0,0,1,4.5,22c-.6,7.5-3.1,14.8-6.3,22s-7,14.4-10.6,21.6c-1.8,3.5-3.5,7.1-5,10.7a19.9,19.9,0,0,0-1.7,10.9,13.4,13.4,0,0,0,2.4,5.3l1.1,1.2a6.9,6.9,0,0,0,1.3,1.1,10.1,10.1,0,0,0,3.4,1.8l2.1.4h2.2l1-.2.5-.2h.5l1.6-.9a10.4,10.4,0,0,0,2.4-2.3,13.5,13.5,0,0,0,1.5-2.6,47.5,47.5,0,0,0,5-21.9,20.3,20.3,0,0,0-.8-5.5,12.4,12.4,0,0,0-3.4-5,3.8,3.8,0,0,0-1.5-.9,2.5,2.5,0,0,0-1.7-.1,2.9,2.9,0,0,0-1.4.8,2.7,2.7,0,0,0-.9,1.2,45.3,45.3,0,0,0-2.7,5.4c-2.8,7.2-3,14.6-3.3,22h-.8a43.4,43.4,0,0,0,6.1-9.8,33.8,33.8,0,0,0,2.5-10.3h.2c-2.6.7-3.9,2.6-2.8,4.1-1.1-1.5,0-3.4,2.7-4.2h.1a33.3,33.3,0,0,1-2.2,10.4,42.8,42.8,0,0,1-5.8,9.9l-.9,1.1v-1.2c.1-3.7.1-7.4.5-11.1a50.3,50.3,0,0,1,.9-5.6,34.7,34.7,0,0,1,1.6-5.5,33.2,33.2,0,0,1,2.5-5.4l1-1.4a4.3,4.3,0,0,1,2.1-1.1,5.8,5.8,0,0,1,3.2.1,7.6,7.6,0,0,1,1.9,1.2,12.2,12.2,0,0,1,3.6,5.3,26.2,26.2,0,0,1,.9,5.6,47.3,47.3,0,0,1-4.9,22.1,6.1,6.1,0,0,0-.7,1.4l-.9,1.4a15.4,15.4,0,0,1-2.6,2.5l-2,1.1h-.5l-.6.2-1.4.3a12.2,12.2,0,0,1-5.7-.4,12,12,0,0,1-3.9-2l-.7-.6-.7-.7a6.9,6.9,0,0,1-1.1-1.3,11.5,11.5,0,0,1-2.5-5.5c-.7-3.7.3-7.5,1.8-11.1a107.3,107.3,0,0,1,5-10.9c3.6-7.1,7.6-14.2,10.9-21.4a92.7,92.7,0,0,0,4.3-11,52.8,52.8,0,0,0,2.4-11A37.2,37.2,0,0,0,88.3,105.5Z" style="fill:#75411a"/></g><g style="opacity:0.6499999761581421"><path d="M116.8,103.1c-1.5,3.9-2.8,7.7-3.9,11.5s-2.1,7.8-2.8,11.6a117.4,117.4,0,0,0-1.6,11.7c-.3,3.9-.5,7.8-.5,11.7a115,115,0,0,0,.8,11.7,91,91,0,0,0,2.1,11.6,52.9,52.9,0,0,0,4.7,11.3,39.3,39.3,0,0,0,8.9,10.6L126,196a8.3,8.3,0,0,0,1.5,1.1l1.7,1.2.8.5.9.6,1.9,1,1.9.9a7.8,7.8,0,0,0,2.2.3h.9l.6-.4a1.3,1.3,0,0,0,.2-1.2c-.1-.4-.3-.9-.4-1.4l-.8-2.9-1.8-5.8c-2.3-7.7-4.8-15.4-6.7-23.1-.5-1.9-.9-3.9-1.4-5.8l-.6-2.9c-.2-1-.3-2-.5-3l-.4-2.9-.4-2.9-.2-1.5v-1.4l-.2-3v-8.9l.2-2.9.2-1.5c.1-.5.1-.9.2-1.4v-2.9a6.3,6.3,0,0,0-1-2.7,7.2,7.2,0,0,0-2.5-2.4h1.2a14.9,14.9,0,0,0-5.3,7.3,31.5,31.5,0,0,0-1.6,8.1c-.6,5.4-1.2,10.8-1.3,16.2a56.2,56.2,0,0,0,.3,8.2l.3,2v1l.2,1,.3,2,.5,2,.2,1,.4,1.1.6,2,.7,1.9.4,1,.5,1,.9,2,1.1,1.9.5,1,.7.9,1.2,2h-.8c.5-3.2,1-6.5,1.2-9.8a81.7,81.7,0,0,0,0-9.9,93.2,93.2,0,0,0-3.3-19.7,88,88,0,0,1,3.8,19.7,81.8,81.8,0,0,1,.2,9.9c-.2,3.3-.5,6.6-1,9.9l-.2,1.1-.7-1.1-1.3-1.9-.7-.9-.5-1-1.1-2-1-2-.5-.9-.4-1-.8-2-.6-2.1-.4-1-.2-1-.5-2-.4-2-.2-1-.2-1.1-.2-2a56.3,56.3,0,0,1-.4-8.2A126.3,126.3,0,0,1,115,136a31.5,31.5,0,0,1,1.6-8.1,15.7,15.7,0,0,1,5.5-7.7l.5-.5.7.4a7.5,7.5,0,0,1,2.9,2.7,6.5,6.5,0,0,1,1.1,2.9q0,3-.3,6l-.3,2.9v8.7a131.7,131.7,0,0,0,3.8,23.3c1.9,7.7,4.3,15.4,6.6,23.1l1.8,5.8.8,2.9c.1.5.3.9.4,1.4a2.1,2.1,0,0,1-.4,1.7l-1.2.7a5.1,5.1,0,0,1-1.7.3,10.5,10.5,0,0,1-3-.5l-2.2-1-1.9-1.1-.9-.5-.9-.6-1.7-1.1-1.6-1.3-1.5-1.2a42,42,0,0,1-9-10.7,54.2,54.2,0,0,1-4.6-11.5,79.2,79.2,0,0,1-1.9-11.7c-.4-3.9-.6-7.8-.7-11.7a114.6,114.6,0,0,1,.6-11.7c.5-3.9,1.1-7.8,1.9-11.7s1.8-7.7,3-11.6S115.2,106.9,116.8,103.1Z" style="fill:#75411a"/></g><g style="clip-path:url(#clip-path)"><path d="M94.5,139.3h0a29.2,29.2,0,0,1,29.2,29.1v42.2H65.4V168.4A29.1,29.1,0,0,1,94.5,139.3Z" style="fill:#6a3417"/></g><g style="clip-path:url(#clip-path-2)"><path d="M4,83.9c.4-6,3.5-12.1,12.6-16.3,0,0-9.8-29.6,24.6-28.6,0,0-3.7-30.7,33.8-36.3s48,26.2,48,26.2,22.1-13.6,38.3,2,8,35.2,8,35.2,20.9,21-2.2,35.5c-18.8,11.9-111.7,5.6-144.7,2.9A19.8,19.8,0,0,1,4,83.9Z" style="fill:#6b8a00;stroke:#365511;stroke-linecap:round;stroke-linejoin:round;stroke-width:3px"/><path d="M168-7.5c1,6.1-.7,13-8.8,19.1,0,0,15.9,27.9-17.9,34.2,0,0,10.2,30.2-25.3,43.9S63.5,73.3,63.5,73.3,44.8,91.8,25.6,79.4,10.2,45.6,10.2,45.6-14.6,28.7,4.8,9.2c15.9-16,108.1-29.3,140.9-33.6A19.9,19.9,0,0,1,168-7.5Z" style="fill:#8fa129"/></g><path d="M4,83.9c.4-6,3.5-12.1,12.6-16.3,0,0-9.8-29.6,24.6-28.6,0,0-3.7-30.7,33.8-36.3s48,26.2,48,26.2,22.1-13.6,38.3,2,8,35.2,8,35.2,20.9,21-2.2,35.5c-18.8,11.9-111.7,5.6-144.7,2.9A19.8,19.8,0,0,1,4,83.9Z" style="fill:none;stroke:#365511;stroke-linecap:round;stroke-linejoin:round;stroke-width:3px"/><path d="M78.1,28.7h.5l.2-.2h.1c.1-.1.1-.1.1-.2h.1c0-.1.1-.1.1-.2h.1c0-.1,0-.1.1-.2h0v-.2c0-.1,0-.1.1-.2v-.2h.1c0-.2,0-.3.1-.4.6-3.3-2.6-5.7-5.6-5.6,1.2-1.2,2.7-3.4.1-4.1s-3.2,1.4-3.4,3.3v-.3h-.2a.1.1,0,0,0-.1-.1h0v-.2c-.1,0-.1,0-.1-.1h-.2v-.2H70c0-.1-.1-.1-.1-.2h0c-1.8-1.8-4.5-2.9-6.8-1.6s1.6,5.3,3.5,6.1c-3.4.1-10.1,4.1-7.3,8.3s10.1.6,11.8-3a7.1,7.1,0,0,0,5.8,1.5h.8c0-.1,0-.1.1-.1h.4Z" style="fill:#ffeb81"/><path d="M95.6,37.1h.2c.1,0,.1,0,.1-.1H96c0-.1.1-.1.1-.2s.1,0,.1-.1h.2c0-.1,0-.1.1-.1h0c0-.1,0-.1.1-.1v-.2h.1a.4.4,0,0,0,.1-.3c.5-2.5-1.8-4.2-4.1-4.1.9-1,2-2.6.1-3.1s-2.4,1-2.5,2.5c-.1-.1-.1-.1-.1-.2h-.4V29.5h0a.1.1,0,0,0-.1-.1h-.2a4.1,4.1,0,0,0-5-1.4c-2.9,1.6,1.1,3.9,2.5,4.5-2.5.1-7.4,3.1-5.3,6.1s7.4.4,8.6-2.2a5.2,5.2,0,0,0,4.3,1.1h.9c-.1,0-.1-.1-.1-.2S95.5,37.1,95.6,37.1Z" style="fill:#ffeb81"/><g style="clip-path:url(#clip-path-3)"><path d="M114.1,109.6c.2-2.5,1.4-5,5.2-6.7,0,0-4.1-12.1,10-11.7,0,0-1.5-12.5,13.8-14.8s19.6,10.7,19.6,10.7,9.1-5.6,15.7.8a13.7,13.7,0,0,1,3.3,14.4s8.5,8.6-.9,14.5c-7.7,4.9-45.7,2.3-59.2,1.2A8.3,8.3,0,0,1,114.1,109.6Z" style="fill:#6b8a00;stroke:#365511;stroke-linecap:round;stroke-linejoin:round;stroke-width:3px"/><path d="M181.1,72.2c.4,2.5-.3,5.3-3.6,7.8,0,0,6.5,11.4-7.3,14,0,0,4.2,12.3-10.3,17.9s-21.5-6.7-21.5-6.7-7.6,7.6-15.5,2.5a13.9,13.9,0,0,1-6.2-13.8S106.5,87,114.5,79c6.5-6.5,44.1-11.9,57.5-13.7A8.2,8.2,0,0,1,181.1,72.2Z" style="fill:#8fa129"/></g><path d="M114.1,109.6c.2-2.5,1.4-5,5.2-6.7,0,0-4.1-12.1,10-11.7,0,0-1.5-12.5,13.8-14.8s19.6,10.7,19.6,10.7,9.1-5.6,15.7.8a13.7,13.7,0,0,1,3.3,14.4s8.5,8.6-.9,14.5c-7.7,4.9-45.7,2.3-59.2,1.2A8.3,8.3,0,0,1,114.1,109.6Z" style="fill:none;stroke:#365511;stroke-linecap:round;stroke-linejoin:round;stroke-width:3px"/></g></g></svg>