<svg xmlns="http://www.w3.org/2000/svg" viewBox="0 0 65.9 47.5"><g style="isolation:isolate"><g id="Layer_2" data-name="Layer 2"><g id="Layer_1-2" data-name="Layer 1"><g id="na_bird_nest" data-name="na_bird nest"><path d="M15.2,13.9C9.4,16,4.6,19.6,5.6,26.1c.8,4.9,5.5,9.8,9.6,12.2s13.5,5.2,19.1,5.1c7.9-.3,18-4.6,22.8-9.3s5.8-12,.2-17c-3.9-3.6-13-4.8-18-5.3s-16.7-.5-24.1,2.1" style="fill:#d8a960"/><path d="M23.6,15.8c-6.6.8-12.7,3.2-13.5,6.3-1.7,7,13.2,9.4,20.8,9.6,14.1.3,25.4-4.1,25.4-9.2S42.2,15.3,36.7,15a89.4,89.4,0,0,0-13.1.8" style="fill:#793420;opacity:0.5;mix-blend-mode:multiply"/><path d="M10.5,38.7a11.6,11.6,0,0,1,6.4.5.5.5,0,0,0,.4-.2c0-.2-.1-.4-.2-.4a12.7,12.7,0,0,0-6.7-.5c-.2,0-.3.2-.2.4S10.4,38.7,10.5,38.7Z" style="fill:#d8a960"/><path d="M9.6,37.4a15.2,15.2,0,0,0,5-1.9c.3-.2,0-.7-.3-.5a13.7,13.7,0,0,1-4.9,1.8C9,36.9,9.2,37.5,9.6,37.4Z" style="fill:#d8a960"/><path d="M43.3,41.4a28.6,28.6,0,0,1,7.7-.6.3.3,0,0,0,0-.6,29,29,0,0,0-7.8.6C42.8,40.9,42.9,41.5,43.3,41.4Z" style="fill:#d8a960"/><path d="M51.8,37.6a9.2,9.2,0,0,0,3.7-.5A5.6,5.6,0,0,0,58.6,35c.1-.1,0-.3-.1-.4s-.3,0-.4.1a5.7,5.7,0,0,1-2.8,1.8,8.3,8.3,0,0,1-3.5.5A.3.3,0,1,0,51.8,37.6Z" style="fill:#d8a960"/><path d="M16.9,41.7a11,11,0,0,0,4.4.7A8.1,8.1,0,0,0,25.6,41c.1-.1.2-.2.1-.4s-.3-.2-.4-.1a7.3,7.3,0,0,1-4,1.3,10,10,0,0,1-4.2-.7c-.2,0-.4.1-.4.2S16.7,41.6,16.9,41.7Z" style="fill:#d8a960"/><path d="M3,27.2A6.9,6.9,0,0,0,5.9,31a10.5,10.5,0,0,0,4.7,1.8.3.3,0,0,0,0-.6,11.2,11.2,0,0,1-4.3-1.6A5.8,5.8,0,0,1,3.6,27C3.5,26.6,2.9,26.8,3,27.2Z" style="fill:#d8a960"/><path d="M39.3,43.1a11,11,0,0,0,5.1-.5,12.7,12.7,0,0,0,4.9-2.5,6.4,6.4,0,0,0,2-2c.2-.4-.3-.7-.5-.3A11,11,0,0,1,46.9,41a15.7,15.7,0,0,1-5.2,1.6,8.1,8.1,0,0,1-2.2,0C39.1,42.5,39,43.1,39.3,43.1Z" style="fill:#d8a960"/><path d="M29.1,42.8a9.7,9.7,0,0,0,4,1.5,13.5,13.5,0,0,0,4.9-.1,7.2,7.2,0,0,0,4.4-2.8c.2-.3-.3-.6-.5-.3a6.2,6.2,0,0,1-3.5,2.4,12.9,12.9,0,0,1-4.8.3,10.6,10.6,0,0,1-4.2-1.5C29.1,42.1,28.8,42.6,29.1,42.8Z" style="fill:#d8a960"/><path d="M11.9,35.8A7.2,7.2,0,0,0,14.7,39a11.7,11.7,0,0,0,4.4,1.6,6.4,6.4,0,0,0,5.3-1.2.3.3,0,0,0-.5-.4A5.3,5.3,0,0,1,20,40.1a9.8,9.8,0,0,1-4.4-1.3,6.4,6.4,0,0,1-3.1-3.2C12.4,35.2,11.8,35.4,11.9,35.8Z" style="fill:#d8a960"/><path d="M19.6,39.7c.7,2.8,3.9,3.6,6.4,3.7a15,15,0,0,0,3.7-.4,8.1,8.1,0,0,0,2.9-1.2c.3-.2,0-.7-.3-.5a8.3,8.3,0,0,1-3.4,1.3,14.8,14.8,0,0,1-4.2.1c-1.9-.3-4.1-1.1-4.6-3.1A.3.3,0,1,0,19.6,39.7Z" style="fill:#d8a960"/><path d="M6.7,23.4c-1.9,2.4-1.7,5.7-.3,8.4s4.1,4.6,7.1,4.2a8,8,0,0,0,1.5-.3c.3-.2.2-.7-.2-.6a5.3,5.3,0,0,1-4.1-.1,7,7,0,0,1-3.2-2.7c-1.6-2.3-2.2-5.6-.7-8l.4-.5a.3.3,0,0,0,0-.4Z" style="fill:#d8a960"/><path d="M10.3,16.6c3-2.6,6.9-3.8,10.6-5.1.3-.2.2-.7-.2-.6C17,12.3,13,13.5,9.9,16.2,9.6,16.5,10.1,16.9,10.3,16.6Z" style="fill:#d8a960"/><path d="M20.3,13.2a27.8,27.8,0,0,1,11.7-3,38.6,38.6,0,0,1,12.2,1.6,36.3,36.3,0,0,1,9.9,4.3c.3.2.6-.4.3-.6a40.1,40.1,0,0,0-11.1-4.6A39.3,39.3,0,0,0,31,9.7a28.2,28.2,0,0,0-11,3C19.7,12.9,20,13.4,20.3,13.2Z" style="fill:#d8a960"/><path d="M12.3,15a26.1,26.1,0,0,0-5.1,2.2A9.1,9.1,0,0,0,5.1,19,5.4,5.4,0,0,0,4,21.7a5.9,5.9,0,0,0,1.2,4.9,9.8,9.8,0,0,0,4.3,3.1,9.5,9.5,0,0,0,2.9.7.3.3,0,1,0,0-.6,10.2,10.2,0,0,1-5-1.9,7,7,0,0,1-2.8-4,5.7,5.7,0,0,1,1.4-5,10.6,10.6,0,0,1,4.7-2.7l1.7-.6C12.8,15.5,12.7,14.9,12.3,15Z" style="fill:#d8a960"/><path d="M53.5,15.9A26.9,26.9,0,0,1,59.1,18a5,5,0,0,1,1.2.8l1,1.2a5.4,5.4,0,0,1,.9,2.4,6.1,6.1,0,0,1-1.4,4.5,13.7,13.7,0,0,1-4.1,3.5,16.8,16.8,0,0,1-3,1.5c-.4.1-.2.7.1.6a16.6,16.6,0,0,0,4.7-2.6A12.3,12.3,0,0,0,62.1,26a6.2,6.2,0,0,0,.5-4.8,7.9,7.9,0,0,0-1.5-2.5A13.8,13.8,0,0,0,58.6,17a46.6,46.6,0,0,0-4.9-1.6A.3.3,0,1,0,53.5,15.9Z" style="fill:#d8a960"/><path d="M57.1,17c-3.9-3.5-13-4.8-18-5.3s-16.7-.5-24.2,2.1C9.1,15.9,4.4,19.5,5.4,26c.7,4.9,5.5,9.8,9.5,12.2A39.6,39.6,0,0,0,34,43.3c8-.3,18.1-4.5,22.8-9.3s5.9-11.9.3-17M30.7,31.6C23,31.4,8.2,29,9.9,22.1c.8-3.2,6.9-5.6,13.5-6.4a88.3,88.3,0,0,1,13-.8c5.5.3,19.6,2,19.6,7.5s-11.2,9.5-25.3,9.2" style="fill:#d8a960"/><path d="M22.1,38.3a35,35,0,0,0,6.2-2.9l4.8-3.3.3-.2c.2-.2,0-.5-.2-.4a40.7,40.7,0,0,1-4.8,3.3,33.6,33.6,0,0,1-6,3H22C21.8,38,21.9,38.4,22.1,38.3Z" style="fill:#ce894a;opacity:0.5;mix-blend-mode:multiply"/><path d="M21,37a28,28,0,0,0,8.9-5c.2-.2,0-.5-.2-.3a28.3,28.3,0,0,1-8.8,4.9C20.6,36.7,20.7,37.1,21,37Z" style="fill:#ce894a;opacity:0.5;mix-blend-mode:multiply"/><path d="M20.1,35.2a12.4,12.4,0,0,0,4.2-1.5,23,23,0,0,0,3.3-2.1c.2-.1-.1-.4-.3-.3a22,22,0,0,1-3.2,2.1A15.3,15.3,0,0,1,20,34.8C19.7,34.9,19.8,35.2,20.1,35.2Z" style="fill:#ce894a;opacity:0.5;mix-blend-mode:multiply"/><path d="M27.7,35.6a16.9,16.9,0,0,0,4.8,2.5,13.9,13.9,0,0,0,6.7.5c.2,0,.1-.4-.1-.4a13,13,0,0,1-6.5-.5,18.9,18.9,0,0,1-4.7-2.4C27.6,35.1,27.4,35.5,27.7,35.6Z" style="fill:#ce894a;opacity:0.5;mix-blend-mode:multiply"/><path d="M29.9,34.4a22.2,22.2,0,0,0,4.8,2,24.3,24.3,0,0,0,5.3.8h.6a.2.2,0,1,0,0-.4,15.4,15.4,0,0,1-5.2-.6,16.1,16.1,0,0,1-5-1.9l-.3-.2C29.9,33.9,29.7,34.2,29.9,34.4Z" style="fill:#ce894a;opacity:0.5;mix-blend-mode:multiply"/><path d="M31.3,33.2A25.5,25.5,0,0,0,36.6,35a24.2,24.2,0,0,0,5.4.7c.2,0,.2-.4,0-.4a22.5,22.5,0,0,1-5.2-.7,25.2,25.2,0,0,1-5.3-1.7C31.3,32.8,31.1,33.1,31.3,33.2Z" style="fill:#ce894a;opacity:0.5;mix-blend-mode:multiply"/><path d="M24.6,42a16.7,16.7,0,0,0,6.7-4.4c.2-.1-.1-.4-.3-.2a16.6,16.6,0,0,1-6.5,4.2C24.3,41.7,24.4,42.1,24.6,42Z" style="fill:#ce894a;opacity:0.5;mix-blend-mode:multiply"/><path d="M27.3,42.7a18.5,18.5,0,0,0,3.4-2.3l1.4-1.2a4.4,4.4,0,0,0,.9-1.1c.2-.3-.2-.5-.3-.2a4.1,4.1,0,0,1-.9,1l-1.4,1.2a14.6,14.6,0,0,1-3.3,2.2C26.9,42.5,27.1,42.8,27.3,42.7Z" style="fill:#ce894a;opacity:0.5;mix-blend-mode:multiply"/><path d="M29.7,43.2a11.5,11.5,0,0,0,2.9-2,12.8,12.8,0,0,0,2-2.6c.1-.2-.2-.4-.3-.2a11.2,11.2,0,0,1-1.9,2.4,8,8,0,0,1-2.8,2C29.4,42.9,29.5,43.3,29.7,43.2Z" style="fill:#ce894a;opacity:0.5;mix-blend-mode:multiply"/><path d="M39.2,38.6A17,17,0,0,0,46,29.8c.1-.2-.3-.3-.4-.1A16.4,16.4,0,0,1,39,38.2C38.8,38.4,39,38.7,39.2,38.6Z" style="fill:#ce894a;opacity:0.5;mix-blend-mode:multiply"/><path d="M43.5,37.2a12.1,12.1,0,0,0,3.4-4,14.2,14.2,0,0,0,1.7-4,.2.2,0,0,0-.4-.2,14,14,0,0,1-1.6,4,11.3,11.3,0,0,1-3.3,3.9C43.1,37,43.3,37.4,43.5,37.2Z" style="fill:#ce894a;opacity:0.5;mix-blend-mode:multiply"/><path d="M47.1,36.4c2.8-2,3.9-5.6,4.7-8.8.1-.3-.3-.4-.4-.1a25.7,25.7,0,0,1-1.5,4.7,10.5,10.5,0,0,1-3,3.9C46.7,36.2,46.9,36.6,47.1,36.4Z" style="fill:#ce894a;opacity:0.5;mix-blend-mode:multiply"/><path d="M17.3,29.8a10.5,10.5,0,0,0,1,2.8,6.1,6.1,0,0,0,.5,1.2l.3.5a19.2,19.2,0,0,0,2.3,3.5,21.1,21.1,0,0,0,3.8,3.5c.2.2.4-.2.2-.3a21.3,21.3,0,0,1-4.5-4.5,21.6,21.6,0,0,1-1.8-3l-.3-.8-.5-1.1a12.7,12.7,0,0,1-.6-1.8A.2.2,0,1,0,17.3,29.8Z" style="fill:#ce894a;opacity:0.5;mix-blend-mode:multiply"/><path d="M15.6,29.2a18,18,0,0,0,1,4.6,17.2,17.2,0,0,0,2.8,4.7,15.9,15.9,0,0,0,3.9,3.4c.3.1.5-.2.2-.4a15.8,15.8,0,0,1-6.8-8.6,15.1,15.1,0,0,1-.7-3.7C16,29,15.6,29,15.6,29.2Z" style="fill:#ce894a;opacity:0.5;mix-blend-mode:multiply"/><path d="M13.7,28.2a14.5,14.5,0,0,0,3,9.2,11.1,11.1,0,0,0,3.1,3c.2.1.4-.2.2-.3a13.7,13.7,0,0,1-5.7-9,26.4,26.4,0,0,1-.2-2.9A.2.2,0,1,0,13.7,28.2Z" style="fill:#ce894a;opacity:0.5;mix-blend-mode:multiply"/><path d="M11.8,35.8a6.2,6.2,0,0,0,3.6-1.6c.2-.1-.1-.4-.3-.2a6.5,6.5,0,0,1-3.3,1.4C11.6,35.4,11.6,35.8,11.8,35.8Z" style="fill:#ce894a;opacity:0.5;mix-blend-mode:multiply"/><path d="M10,34.2a7.6,7.6,0,0,0,4.6-1.4c.2-.1,0-.5-.2-.3A7.6,7.6,0,0,1,10,33.8C9.8,33.8,9.8,34.2,10,34.2Z" style="fill:#ce894a;opacity:0.5;mix-blend-mode:multiply"/><path d="M8.7,32.6a11.9,11.9,0,0,0,3.2-.3A4.1,4.1,0,0,0,14.4,31c.2-.2-.2-.4-.3-.2l-1,.7-1.4.4a7.7,7.7,0,0,1-3,.3A.2.2,0,1,0,8.7,32.6Z" style="fill:#ce894a;opacity:0.5;mix-blend-mode:multiply"/><path d="M7.4,30.1a3.8,3.8,0,0,1,.9-2.7,10.4,10.4,0,0,1,2.3-2.8.2.2,0,0,0-.3-.3,13.2,13.2,0,0,0-2.4,2.9A4.5,4.5,0,0,0,7,30.1.2.2,0,1,0,7.4,30.1Z" style="fill:#ce894a;opacity:0.5;mix-blend-mode:multiply"/><path d="M6.2,27.6a6.7,6.7,0,0,1,1.6-2.4,7.8,7.8,0,0,1,2.4-1.6c.2-.1.1-.5-.1-.4a7.4,7.4,0,0,0-2.5,1.7,5.6,5.6,0,0,0-1.7,2.6C5.8,27.7,6.2,27.8,6.2,27.6Z" style="fill:#ce894a;opacity:0.5;mix-blend-mode:multiply"/><path d="M5.6,25.1A8.6,8.6,0,0,1,10.2,22c.2,0,.1-.4-.1-.4a8.1,8.1,0,0,0-4.8,3.3C5.2,25.1,5.5,25.4,5.6,25.1Z" style="fill:#ce894a;opacity:0.5;mix-blend-mode:multiply"/><path d="M50.8,30.9h1.6l2.1.6a7,7,0,0,1,2,.8,3.4,3.4,0,0,1,1.2.9c.1.2.5,0,.3-.2a2.3,2.3,0,0,0-1.2-1,7.2,7.2,0,0,0-2-.9l-2.2-.5a5.5,5.5,0,0,0-1.8-.2C50.6,30.5,50.6,30.9,50.8,30.9Z" style="fill:#ce894a;opacity:0.5;mix-blend-mode:multiply"/><path d="M50.4,32.1a19.7,19.7,0,0,1,3.5.6,7.4,7.4,0,0,1,2.8,1.4c.2.2.5-.1.3-.2a6.7,6.7,0,0,0-2.9-1.5,16.1,16.1,0,0,0-3.7-.7A.2.2,0,1,0,50.4,32.1Z" style="fill:#ce894a;opacity:0.5;mix-blend-mode:multiply"/><path d="M49.9,33.2a7.4,7.4,0,0,1,3,.8,9.7,9.7,0,0,1,2.4,1.5c.2.1.5-.1.3-.3a10.4,10.4,0,0,0-2.5-1.5,7.3,7.3,0,0,0-3.2-.9C49.7,32.7,49.7,33.1,49.9,33.2Z" style="fill:#ce894a;opacity:0.5;mix-blend-mode:multiply"/><path d="M55.7,20.8a5.7,5.7,0,0,1,2.6.1,3.8,3.8,0,0,1,2.2,1.3c.2.2.5,0,.4-.2a4.7,4.7,0,0,0-2.4-1.5,7.5,7.5,0,0,0-3-.1C55.3,20.4,55.4,20.8,55.7,20.8Z" style="fill:#ce894a;opacity:0.5;mix-blend-mode:multiply"/><path d="M55.7,21.9c1.8-.1,4.2.3,5.1,2.1.1.2.4,0,.3-.2-1-2-3.4-2.4-5.4-2.3C55.5,21.5,55.5,21.9,55.7,21.9Z" style="fill:#ce894a;opacity:0.5;mix-blend-mode:multiply"/><path d="M55.8,23.5c1.9,0,4.2.4,5.1,2.2.1.2.4,0,.3-.2-1-2-3.4-2.4-5.4-2.4C55.6,23.1,55.6,23.5,55.8,23.5Z" style="fill:#ce894a;opacity:0.5;mix-blend-mode:multiply"/><path d="M35.5,34.6A20,20,0,0,0,37.9,33a9.8,9.8,0,0,0,1.8-1.7.2.2,0,1,0-.3-.3l-1.7,1.7-2.4,1.6C35,34.4,35.2,34.7,35.5,34.6Z" style="fill:#ce894a;opacity:0.5;mix-blend-mode:multiply"/><path d="M37.1,35.1a11.8,11.8,0,0,0,2.8-2.2A6.4,6.4,0,0,0,41.2,31c.1-.2-.2-.4-.3-.2a5.9,5.9,0,0,1-1.3,1.8,9,9,0,0,1-2.7,2.1C36.6,34.8,36.8,35.2,37.1,35.1Z" style="fill:#ce894a;opacity:0.5;mix-blend-mode:multiply"/><path d="M37.4,43.1a26.6,26.6,0,0,1,5.8-3,18.2,18.2,0,0,1,6.5-1.2h.8c.2,0,.2-.4,0-.4a28.4,28.4,0,0,0-6.5,1,21.3,21.3,0,0,0-5.9,2.8l-.9.6C37,42.9,37.2,43.3,37.4,43.1Z" style="fill:#ce894a;opacity:0.5;mix-blend-mode:multiply"/><path d="M35.1,43.1,40.2,40A23.9,23.9,0,0,1,46,37.8a10.3,10.3,0,0,1,5.5.2c.2.1.3-.3.1-.3-3.9-1.4-8.2.2-11.6,2a53.3,53.3,0,0,0-5.1,3.1C34.7,42.9,34.9,43.3,35.1,43.1Z" style="fill:#ce894a;opacity:0.5;mix-blend-mode:multiply"/><path d="M32.7,43.3a31.5,31.5,0,0,1,10.4-5.9,14.9,14.9,0,0,1,10.2-.2c.2.1.3-.2.1-.3-3.8-1.6-8-.9-11.7.5a34.2,34.2,0,0,0-9.3,5.7C32.2,43.2,32.5,43.5,32.7,43.3Z" style="fill:#ce894a;opacity:0.5;mix-blend-mode:multiply"/><path d="M55.5,31.6a6.3,6.3,0,0,0,.8-4.8,3,3,0,0,0-1.2-1.9h-.4c-.1.1,0,.3.1.4a.2.2,0,0,0,.3-.3c-.1,0-.1,0-.1-.1h0c.1.1-.1.3-.2.3h.1a.1.1,0,0,0,.1.1h.1c.1,0,.1.1.2.2l.3.4a4.6,4.6,0,0,1,.2,3.8,4.4,4.4,0,0,1-.6,1.6C55.1,31.6,55.4,31.8,55.5,31.6Z" style="fill:#ce894a;opacity:0.5;mix-blend-mode:multiply"/><path d="M56.4,31.9c1.8-2.2,2.3-6.5-.7-7.9-.2-.1-.4.3-.2.4,2.7,1.2,2.3,5.2.6,7.2C56,31.8,56.3,32.1,56.4,31.9Z" style="fill:#ce894a;opacity:0.5;mix-blend-mode:multiply"/><path d="M57.4,32.5a7,7,0,0,0,2.4-5.7A3.4,3.4,0,0,0,58.7,25a11.3,11.3,0,0,0-1.8-1.2,2.1,2.1,0,0,1-1-.6c-.2-.1-.4.2-.2.4l2,1.2a2.9,2.9,0,0,1,1.5,1.4,4.2,4.2,0,0,1,0,2.7,7.5,7.5,0,0,1-1.6,2.9l-.4.5C57,32.4,57.3,32.7,57.4,32.5Z" style="fill:#ce894a;opacity:0.5;mix-blend-mode:multiply"/><path d="M7.7,30.3a2.7,2.7,0,0,1,.8-.7l1.5-.8a6.3,6.3,0,0,1,3.8-.4c.3,0,.4-.3.1-.4a6.8,6.8,0,0,0-4,.4,8.3,8.3,0,0,0-1.6.9,2.4,2.4,0,0,0-.9.8C7.2,30.4,7.6,30.6,7.7,30.3Z" style="fill:#ce894a;opacity:0.5;mix-blend-mode:multiply"/><path d="M7.8,28.8a5.6,5.6,0,0,1,4.6-1.6c.2.1.3-.3.1-.3a5.8,5.8,0,0,0-5,1.6A.2.2,0,1,0,7.8,28.8Z" style="fill:#ce894a;opacity:0.5;mix-blend-mode:multiply"/><path d="M8.9,26.8a5,5,0,0,1,2-.8c.2,0,.1-.4-.1-.4a4.9,4.9,0,0,0-2.1.8C8.5,26.6,8.7,26.9,8.9,26.8Z" style="fill:#ce894a;opacity:0.5;mix-blend-mode:multiply"/><path d="M8.8,17.8c2.8-1.7,6.5-1.6,9.7-1.1.2,0,.4-.4.1-.4-3.3-.5-7.1-.6-10,1.1C8.3,17.6,8.5,17.9,8.8,17.8Z" style="fill:#ce894a;opacity:0.5;mix-blend-mode:multiply"/><path d="M11,16a12,12,0,0,1,4.6-.7,10.6,10.6,0,0,1,2.5.2,4,4,0,0,1,1.9.7c.3.1.5-.2.2-.3a5.4,5.4,0,0,0-1.9-.8,11.4,11.4,0,0,0-2.6-.2,13,13,0,0,0-4.8.7C10.6,15.7,10.7,16.1,11,16Z" style="fill:#ce894a;opacity:0.5;mix-blend-mode:multiply"/><path d="M12.7,16.2c-.8,1.1-2.3,2.4-1.8,4s.4.1.3-.1a2.2,2.2,0,0,1,.5-1.9L13,16.5A.2.2,0,0,0,12.7,16.2Z" style="fill:#ce894a;opacity:0.5;mix-blend-mode:multiply"/><path d="M13.9,16.3A6.5,6.5,0,0,0,12.3,18c-.2.4-.8,1.3-.1,1.6s.4-.2.2-.3v-.4a4.1,4.1,0,0,1,.5-.9,4,4,0,0,1,1.3-1.3C14.3,16.5,14.1,16.2,13.9,16.3Z" style="fill:#ce894a;opacity:0.5;mix-blend-mode:multiply"/><path d="M15.3,16a4.3,4.3,0,0,0-2,2.9c0,.2.4.2.4,0a3.7,3.7,0,0,1,.7-1.4,3.2,3.2,0,0,1,1.1-1.2C15.7,16.2,15.5,15.8,15.3,16Z" style="fill:#ce894a;opacity:0.5;mix-blend-mode:multiply"/><path d="M47.8,16.8a16.6,16.6,0,0,1,3.7-.9l2-.2c.4.1,1,.1,1.3.4s.5-.2.3-.3a2.3,2.3,0,0,0-1.4-.4,6.6,6.6,0,0,0-2,.1,13.7,13.7,0,0,0-4,.9C47.5,16.5,47.6,16.9,47.8,16.8Z" style="fill:#ce894a;opacity:0.5;mix-blend-mode:multiply"/><path d="M49.1,17.4a16.6,16.6,0,0,1,3.7-.9h2.1c.3,0,.9,0,1.1.2a.2.2,0,0,0,.3-.3A1.9,1.9,0,0,0,55,16a7.4,7.4,0,0,0-2.1.1A17,17,0,0,0,49,17C48.7,17.1,48.8,17.4,49.1,17.4Z" style="fill:#ce894a;opacity:0.5;mix-blend-mode:multiply"/><path d="M50.7,18.1l1.5-.4,1.9-.2h1.8l1.2.2c.3.1.4-.3.1-.4l-1.3-.2H54.1a8.8,8.8,0,0,0-3.6.6C50.3,17.9,50.5,18.2,50.7,18.1Z" style="fill:#ce894a;opacity:0.5;mix-blend-mode:multiply"/><path d="M39.9,12.4a9.9,9.9,0,0,1,2.8,1.9,5.7,5.7,0,0,1,1.1,1.1l.7.8c.1.2.5,0,.3-.2a2.7,2.7,0,0,0-.7-.8A6.3,6.3,0,0,0,43,14a9.8,9.8,0,0,0-3-2C39.7,11.9,39.6,12.3,39.9,12.4Z" style="fill:#ce894a;opacity:0.5;mix-blend-mode:multiply"/><path d="M42.2,12.5a6.7,6.7,0,0,1,2.5,1.9c.7.7,1.3,1.5,2,2.1a.2.2,0,0,0,.3-.3,13.1,13.1,0,0,1-2-2.1,8.2,8.2,0,0,0-2.6-2A.2.2,0,0,0,42.2,12.5Z" style="fill:#ce894a;opacity:0.5;mix-blend-mode:multiply"/><path d="M44.5,12.7a5.7,5.7,0,0,1,2,1.8,22.6,22.6,0,0,0,1.3,2,.2.2,0,1,0,.3-.3c-.5-.6-.9-1.4-1.4-2.1a7,7,0,0,0-2-1.8C44.4,12.2,44.2,12.6,44.5,12.7Z" style="fill:#ce894a;opacity:0.5;mix-blend-mode:multiply"/><path d="M26.9,15.5a23.1,23.1,0,0,1,8.3-3.4c.2,0,.1-.4-.1-.4a23.8,23.8,0,0,0-8.4,3.5C26.5,15.3,26.7,15.7,26.9,15.5Z" style="fill:#ce894a;opacity:0.5;mix-blend-mode:multiply"/><path d="M24.5,15.8c2.1-1.7,4.4-3.5,7.3-3.8.2,0,.2-.4,0-.4-3,.3-5.4,2.1-7.6,3.9A.2.2,0,0,0,24.5,15.8Z" style="fill:#ce894a;opacity:0.5;mix-blend-mode:multiply"/><path d="M22.2,16.1a14.8,14.8,0,0,1,3-2.6,11.3,11.3,0,0,1,4.1-1.6c.2-.1.1-.5-.1-.4A12.8,12.8,0,0,0,25,13.2a13,13,0,0,0-3.1,2.6A.2.2,0,0,0,22.2,16.1Z" style="fill:#ce894a;opacity:0.5;mix-blend-mode:multiply"/><path d="M30.9,13.6c1.5,0,2.7,1,3.8,1.8s.4-.2.2-.3-2.5-1.9-4-1.9S30.7,13.6,30.9,13.6Z" style="fill:#ce894a;opacity:0.5;mix-blend-mode:multiply"/><path d="M32.1,12.9c1.7.4,2.7,1.9,4.2,2.4s.4-.3.1-.4a7.6,7.6,0,0,1-1.9-1.2,6.3,6.3,0,0,0-2.3-1.2C32,12.5,31.9,12.9,32.1,12.9Z" style="fill:#ce894a;opacity:0.5;mix-blend-mode:multiply"/><path d="M33.7,12.2a10.4,10.4,0,0,1,4.1,3.1.2.2,0,1,0,.3-.3,10.7,10.7,0,0,0-4.2-3.1C33.6,11.8,33.4,12.1,33.7,12.2Z" style="fill:#ce894a;opacity:0.5;mix-blend-mode:multiply"/><path d="M25.9,18.8c-5,.6-9.5,2.4-10.1,4.8-1.4,5.2,9.9,7.1,15.7,7.2,10.6.3,19.1-3,19.1-6.9S40,18.4,35.8,18.2a64.7,64.7,0,0,0-9.9.6" style="fill:#793420;opacity:0.5;mix-blend-mode:multiply"/><path d="M33.5,9.6a40.6,40.6,0,0,1,9.8,1.3,39.9,39.9,0,0,1,8.9,3.4A25.6,25.6,0,0,1,55.9,16l2.7,1a13.8,13.8,0,0,1,2.5,1.7,7.9,7.9,0,0,1,1.5,2.5,6.2,6.2,0,0,1-.5,4.8A9.1,9.1,0,0,1,61,27.6a14.3,14.3,0,0,1-3,5.5h0a.2.2,0,0,1-.1.3c-.1,0-.1,0-.1-.1l-.7.8-1.4,1.2a.2.2,0,0,1-.2.2h-.1a13.3,13.3,0,0,1-1.9,1.4,5.8,5.8,0,0,0,1.8-.4,5.7,5.7,0,0,0,2.8-1.8h.4c.1.1.2.3.1.4a5.6,5.6,0,0,1-3.1,2.1,10.5,10.5,0,0,1-3,.5l-1.5.8a6.9,6.9,0,0,1-1.7,1.7H51a.3.3,0,0,1,0,.6H48.4a14.4,14.4,0,0,1-4,1.8,11.5,11.5,0,0,1-3.7.6h-.2a7.7,7.7,0,0,1-2.5,1,11.5,11.5,0,0,1-2.6.3l-2.3-.2a15,15,0,0,1-3.4-1.1h-.2l-3.1.3H26a8.7,8.7,0,0,1-4.4-1.1h-.9a9.9,9.9,0,0,1-3.8-.7c-.2-.1-.3-.2-.2-.4s.1-.2.3-.2h.1a8.6,8.6,0,0,0,3.6.7h.1l-.9-1.1h-.8A11.7,11.7,0,0,1,14.7,39l-.7-.5H13l-2.5.2h0c-.2,0-.3-.1-.3-.2s0-.4.2-.4l2.7-.2h.2a6.4,6.4,0,0,1-1-1.3,13.8,13.8,0,0,1-2.7.8H9.5a.3.3,0,0,1-.1-.6,11.1,11.1,0,0,0,2.6-.7l-.2-.2a8,8,0,0,1-5.4-4.1c-.1-.2-.1-.4-.2-.6L5.9,31A6.9,6.9,0,0,1,3,27.2c0-.2.1-.4.3-.4s.3.1.3.2a5.5,5.5,0,0,0,2.2,3.2,8,8,0,0,1-.4-3.4l-.2-.2A5.9,5.9,0,0,1,4,21.7,5.4,5.4,0,0,1,5.1,19a9.1,9.1,0,0,1,2.1-1.8,15.8,15.8,0,0,1,3.5-1.6c3-2.3,6.6-3.4,10-4.7h.1a.3.3,0,0,1,.1.6c-2.2.8-4.5,1.6-6.6,2.6l.6-.3a41.6,41.6,0,0,1,5.6-1.4A29.6,29.6,0,0,1,31,9.7h2.5M22.8,12.1c2-.3,4.1-.4,6-.5h4l6.3.2,3.2.4h.1l2,.3h.3l.2.2,3.5.7a23,23,0,0,0-4.2-1.4,38.5,38.5,0,0,0-10.7-1.6H32a31.4,31.4,0,0,0-9.2,1.9M5.4,25.8a9.1,9.1,0,0,1,3.8-9A8.5,8.5,0,0,0,6,18.9a5.7,5.7,0,0,0-1.4,5,4.6,4.6,0,0,0,.8,1.9m55.8.5a5.5,5.5,0,0,0,1-3.9,5.4,5.4,0,0,0-.9-2.4l-1-1.2a5,5,0,0,0-1.2-.8l-1.7-.8a11.1,11.1,0,0,1,3.2,4.5l.3.3c.1.1,0,.2-.1.2a8.1,8.1,0,0,1,.4,4.1m-53.6,5A13.7,13.7,0,0,1,6,28.1a8.8,8.8,0,0,0,.6,2.7l1,.5m3.2,3.8-.9-1h0a10.7,10.7,0,0,1-1.4-1.6h0c-.1-.1-.1-.2-.2-.2l-1.2-.6a2.1,2.1,0,0,0,.4.6A7,7,0,0,0,10.7,35h.1M14.5,38l-.9-.6.6.5h.3m3.4,1.8-1.8-.9-.7-.2h.2l2.3,1m29.4.4h.9l1.3-1-2.2,1m-6,2.4h.4A15.7,15.7,0,0,0,46.9,41l.3-.2-1.9.2-3.5,1.1a1.2,1.2,0,0,1-.5.5m-19.5-.9h1l-.9-.3-1.1-.4a3.9,3.9,0,0,0,1,.8m4.5,1.1h.8l-3.2-.8-1.2.3,2,.5h1.6m14-.2h0m-3,.6h-.1l-2.9.3H32.6c0,.1,0,.1-.1.1H31.4l2.2.5h1.8a10.3,10.3,0,0,0,3-.4l.9-.4h0c-.2,0-.2-.2-.1-.3l-1.7.2a.1.1,0,0,1-.1.1.1.1,0,0,1-.1.1M33.5,6.6H30.7a31.5,31.5,0,0,0-8.2,1.7,3.4,3.4,0,0,0-1.7-.5,2,2,0,0,0-1.1.2l-1.5.5a36.4,36.4,0,0,0-8.9,4.3,21,21,0,0,0-3.7,1.8,10.1,10.1,0,0,0-2.9,2.5A10.5,10.5,0,0,0,1,21.1a8.7,8.7,0,0,0,.1,3.6L.7,25a3.5,3.5,0,0,0-.6,2.8,8.9,8.9,0,0,0,3.7,5.4,13.1,13.1,0,0,0,2.5,3.2,3.1,3.1,0,0,0-.1,1,3.5,3.5,0,0,0,1.2,2.3,3.3,3.3,0,0,0,3.1,2H13l.7.4a3.7,3.7,0,0,0,2.1,2.6,13,13,0,0,0,4.9.9H21a14.2,14.2,0,0,0,4.9,1h.5l2.6-.2a17.9,17.9,0,0,0,3.7,1.1l2.7.2a12.4,12.4,0,0,0,3.3-.4,10.6,10.6,0,0,0,2.5-.9,15.3,15.3,0,0,0,4.1-.7,20,20,0,0,0,4-1.7H51a3.3,3.3,0,0,0,3.3-3.3h0a8,8,0,0,0,2.1-.5A8.6,8.6,0,0,0,61,36.8a3,3,0,0,0,.6-2.6c-.1-.2-.1-.4-.2-.6A15.3,15.3,0,0,0,63.7,29a6.5,6.5,0,0,0,1-1.5,8.7,8.7,0,0,0,.7-7.2,8.7,8.7,0,0,0-2.2-3.7,13.8,13.8,0,0,0-3.3-2.3,19,19,0,0,0-2.8-1,15.9,15.9,0,0,0-3.7-1.7A37.4,37.4,0,0,0,44.1,8,43.5,43.5,0,0,0,33.5,6.6Z" style="fill:#75411a"/><path d="M26.6,10.7c-1,5.7,1.4,10.9,5,11.6s7.8-3.3,8.9-9-1.3-11-5-11.7S27.7,4.9,26.6,10.7Z" style="fill:#dfcfcf;stroke:#8d8d8d;stroke-miterlimit:10;stroke-width:3px"/><path d="M16.7,22c2.2,6.2,7.5,9.9,11.5,8.4s5.6-7.7,3.4-13.8S24,6.7,20.1,8.1,14.4,15.8,16.7,22Z" style="fill:#fff;stroke:#ddab88;stroke-linecap:round;stroke-linejoin:round;stroke-width:3px"/><path d="M34.8,19.2c-1,5.7,1.4,11,5,11.7s7.8-3.4,8.9-9.1-1.3-11-5-11.7S35.9,13.5,34.8,19.2Z" style="fill:#fff;stroke:#ddab88;stroke-linecap:round;stroke-linejoin:round;stroke-width:3px"/></g></g></g></g></svg>