<svg xmlns="http://www.w3.org/2000/svg" viewBox="0 0 315.4 189.9"><g id="Layer_2" data-name="Layer 2"><g id="Layer_1-2" data-name="Layer 1"><path d="M272.6,119.3c4.9-2.4,10-5,15.5-4.7s11.1,4.9,10.2,10.2c-66.2,36-147.2,34.8-220.1,16.2-18.4-4.6-40.3-15.9-50.1-25.1,0,0,7.3-7.2,11.7-7a30.7,30.7,0,0,1,13.5,4c32.7,18.9,69.9,22.5,107.6,23.7S238.2,135.5,272.6,119.3Z" style="fill:#bc5b5b"/><path d="M272.1,130.8l-27.6,7.8,1.7,4,10.4,25.7,26-10.9,2.8-1.2S272.4,131.8,272.1,130.8Z" style="fill:#ff9592"/><polygon points="144.8 145.7 144.3 150.3 141.4 178.5 167.2 179.9 171.5 180.1 175.8 147.2 144.8 145.7" style="fill:#ff9592"/><polygon points="52.2 121.9 49.8 125 31.5 148.5 57.8 160.1 63.1 162.4 79.2 135.2 52.2 121.9" style="fill:#ff9592"/><path d="M305.8,143.4a13.4,13.4,0,0,0-5.2-1.4c-6.3-.3-12.1,2.7-17.8,5.4-39.3,18.5-84.3,21.3-127.8,19.9s-85.7-5.6-123.2-27.2a35.3,35.3,0,0,0-15.5-4.6c-3.6-.1-8.9,4.1-11.6,6.5L3,143.5c11.1,10.6,36.2,23.5,57.3,28.8,83.5,21.3,176.2,22.6,252-18.5C313,149.4,309.9,145.4,305.8,143.4Z" style="fill:#e05555"/><path d="M39.6,108.8h.2a30.7,30.7,0,0,1,13.5,4c32.7,18.9,69.9,22.5,107.6,23.7l16.3.3c32.8,0,65.9-3.8,95.4-17.6,4.7-2.2,9.6-4.8,14.7-4.8h.8c5.4.2,11.1,4.9,10.2,10.2a219.8,219.8,0,0,1-23.6,11.1l6.4,12.3,1.7-.8c5.4-2.5,11-5.4,16.9-5.4h.9a13.4,13.4,0,0,1,5.2,1.4c4.1,2,7.2,6,6.5,10.4-43.3,23.5-92,33.1-141.5,33.1-37.1,0-74.7-5.4-110.5-14.6C39.2,167,14.1,154.1,3,143.5L4.7,142c2.6-2.4,7.9-6.5,11.5-6.5h.1a35.3,35.3,0,0,1,15.5,4.6c1.4.9,2.9,1.6,4.3,2.4L47,128.6c-7.8-4.1-14.5-8.6-18.9-12.7,0,0,7.1-7.1,11.5-7.1m103,58,1.5-14.4A405.4,405.4,0,0,1,78.2,141l-2.2-.5-8.8,14.9c24.1,7.4,49.6,10.1,75.4,11.4m31.1.8c26.6,0,53.5-2.2,78.9-9.1l-5.5-13.6a286.2,286.2,0,0,1-72.2,8.9l-1.8,13.8h.6M39.6,105.8h0c-5.3,0-12.3,6.6-13.6,8a2.7,2.7,0,0,0-.9,2.1,3.2,3.2,0,0,0,1,2.2,88.8,88.8,0,0,0,16.3,11.5l-7.1,9.1-2-1.2a38.6,38.6,0,0,0-16.9-5h-.2q-5.2,0-13.5,7.2L.9,141.4a3.1,3.1,0,0,0-.9,2.2,2.7,2.7,0,0,0,.9,2.1c11.9,11.2,37.6,24.2,58.6,29.5,38.3,9.8,75.7,14.7,111.3,14.7,53.9,0,102-11.3,142.9-33.5a2.7,2.7,0,0,0,1.5-2.1c.9-5.3-2.3-10.8-8.1-13.6a16,16,0,0,0-6.4-1.7h-1c-6.1,0-11.6,2.6-16.8,5.1l-.4.2-3.7-6.9a211.9,211.9,0,0,0,20.9-9.9,2.9,2.9,0,0,0,1.5-2.2,10.3,10.3,0,0,0-2.3-8.3,14.7,14.7,0,0,0-10.7-5.4h-.9c-5.4,0-10.2,2.3-14.8,4.5l-1.2.5c-25.1,11.9-55,17.4-94.1,17.4l-16.2-.3c-33.7-1.1-72.5-3.9-106.2-23.3a33.6,33.6,0,0,0-15-4.4Zm32.2,47.8,5.7-9.6a424.7,424.7,0,0,0,63.3,11.1l-.9,8.5c-19.6-1-44.2-3.2-68.1-10Zm105.8,3.2a288.5,288.5,0,0,0,67.7-8.3l3.2,7.9c-20.7,5.3-44.3,8-72,8.2l1.1-7.8Z" style="fill:#781f1a"/><path d="M271.4,134.7c-7.7-15.7-19.2-27.5-31.9-39.6-6.1-5.8-9.5-10.9-13.1-18.5-1.8-3.9-2.8-23.4,1.6-23.1s10,5.1,14.9,8.1,10.1,5.7,13.8,2.7,2.7-5.6,2.4-8.8c-.9-7.9-4.6-15.2-6.8-22.9s-2.4-16.8,2.8-22.9A54,54,0,0,0,243.4,5l-1.9,9.1a1.2,1.2,0,0,1-1.2,1H240a1.2,1.2,0,0,1-.9-1.5L241,4.4A58.4,58.4,0,0,0,228.5,3l.4,10.8a1.2,1.2,0,0,1-1.1,1.3h-.1a1.2,1.2,0,0,1-1.2-1.2L226,3a62.8,62.8,0,0,0-11.4,1.7l2.1,9.6a1.1,1.1,0,0,1-.9,1.5h-.3a1.3,1.3,0,0,1-1.2-1l-2.1-9.5a50.4,50.4,0,0,0-10.5,4.3l3.7,7.7a1.2,1.2,0,0,1-.6,1.6l-.5.2a1.2,1.2,0,0,1-1.1-.7L199.6,11l-1.1.6a42.9,42.9,0,0,0-7.5,6l4.8,6a1.3,1.3,0,0,1-.1,1.8,1.3,1.3,0,0,1-.8.3,1.4,1.4,0,0,1-1-.5l-4.7-5.9a57.2,57.2,0,0,0-6.8,8.6l5.8,3.7a1.3,1.3,0,0,1,.4,1.8,1.2,1.2,0,0,1-1,.5l-.7-.2L181.1,30a46.3,46.3,0,0,0-4.2,9l6.9,2a1.2,1.2,0,0,1,.8,1.5,1.1,1.1,0,0,1-1.2.9h-.3L176,41.3a55.5,55.5,0,0,0-2.2,9.8l7.5.4a1.2,1.2,0,0,1,1.2,1.3,1.2,1.2,0,0,1-1.2,1.1h-.1l-7.7-.3a51.7,51.7,0,0,0,0,8.8,120.1,120.1,0,0,1-54.3,2.4c-6.6-1.3-13.3-3.2-20.1-3s-13.9,3-17.2,9-.6,15,6,16.5a142.4,142.4,0,0,0-36.3,42.5c-.7,1.3-1.4,2.6-2,3.9A63.7,63.7,0,0,1,68,142.5c25.9-22.3,59.4-36.2,93.5-36.4s68.6,14.1,90.9,40l21-7.3C272.7,137.5,272.1,136.1,271.4,134.7Z" style="fill:#d48c5c"/><path d="M213,105.8a42.5,42.5,0,0,1-5.3,7.3c.3-2.9.5-5.7.8-8.6.1-1.3.3-2.8,1.3-3.7a2.4,2.4,0,0,1,2.3-.4,2.6,2.6,0,0,1,1.7,1.5C214.2,103.2,213.6,104.6,213,105.8Z" style="fill:#f7bf88"/><path d="M197.4,99.6a42.4,42.4,0,0,1-4.4,7.8c-.1-2.9-.1-5.7-.2-8.6,0-1.4.1-2.9,1-3.8a2.6,2.6,0,0,1,2.2-.7,2.7,2.7,0,0,1,1.9,1.4A4.9,4.9,0,0,1,197.4,99.6Z" style="fill:#f7bf88"/><path d="M181.1,96.1a50.9,50.9,0,0,1-3.4,8.4l-1.2-8.6c-.2-1.3-.4-2.8.4-3.9a2.4,2.4,0,0,1,2.1-.9,2.3,2.3,0,0,1,2,1.1C181.8,93.4,181.5,94.8,181.1,96.1Z" style="fill:#f7bf88"/><path d="M164.8,95.7a50.9,50.9,0,0,1-3.4,8.4c-.4-2.9-.8-5.8-1.3-8.6-.1-1.3-.3-2.8.5-3.9a2.8,2.8,0,0,1,2.1-1,2.7,2.7,0,0,1,2,1.2C165.5,92.9,165.2,94.4,164.8,95.7Z" style="fill:#f7bf88"/><path d="M146.9,94.1a45.2,45.2,0,0,1-.3,9l-4.2-7.6c-.6-1.2-1.3-2.5-.9-3.8a2.8,2.8,0,0,1,1.6-1.6,2.6,2.6,0,0,1,2.3.3A5.1,5.1,0,0,1,146.9,94.1Z" style="fill:#f7bf88"/><path d="M131,96.5a45.2,45.2,0,0,1-.3,9l-4.1-7.6c-.7-1.2-1.4-2.5-1-3.8a2.9,2.9,0,0,1,1.7-1.7,2.5,2.5,0,0,1,2.2.4C130.6,93.6,130.9,95.1,131,96.5Z" style="fill:#f7bf88"/><path d="M114.9,99.9a37.8,37.8,0,0,1,.8,8.9l-5-7c-.8-1.1-1.6-2.4-1.3-3.7a2.5,2.5,0,0,1,3.7-1.7C114.3,97.1,114.7,98.5,114.9,99.9Z" style="fill:#f7bf88"/><circle cx="245.9" cy="40.3" r="3.6" transform="translate(166.7 276.6) rotate(-80.8)" style="fill:#f7bf88"/><circle cx="245.9" cy="41" r="2.5" transform="translate(166 277.1) rotate(-80.8)" style="fill:#fdcda2"/><path d="M93.6,37.4c4.3,5.6,8.1,11.9,9.7,18.8s.9,14.6-3.1,20.4a75.5,75.5,0,0,1-11.9-40A1.9,1.9,0,0,1,91.1,35,8.2,8.2,0,0,1,93.6,37.4Z" style="fill:#ffeb81"/><path d="M100,72.6c-.8-3.6-3-8.1-3.6-9.7C92,52.1,86.8,39,90,34.9c0-.1.1-.1.1-.2H90c-2.3-1.2-6.4,1-8,3.5a2.7,2.7,0,0,0-.6,1c-.9,2.9-.2,5.9.5,8.8,1.6,6.2,3.2,12.3,5.1,18.3,1,2.9,2,5.8,3.1,8.7s1.5,3.5,3.1,4.4,5.2-.1,6.6-2.2S100.4,74.5,100,72.6Z" style="fill:#ffaa5a"/><path d="M188.6,65.9l-49,2.7c-13.8.6-28,1.2-40.8-4.3-.8,5,2.4,9.9,6.5,12.4a28.5,28.5,0,0,0,3.5,1.7,38.7,38.7,0,0,0,10.8,3,122.1,122.1,0,0,0,29.6-.2c9.7-1.2,19.1-4.6,28.9-4.3,4.8.1,11,1,15.7-.6a3.6,3.6,0,0,0,2.4-3.2c.2-2.5.4-5.2.6-7.6Z" style="fill:#ffaa5a"/><path d="M179.7,63.9l-5.9-.6c.3-1.6.5-3.1.8-4.7a232.7,232.7,0,0,0-55.3-3l-3.3.2c-4.7.4-9.6.9-13.6,3.4-1.8,1-3.6,2.8-3.5,4.9s3.4,4.7,6.3,5.5c10.9,3.1,22.4,3.5,33.7,3s22.5-2.2,33.9-3c8.1-.6,18.1,1.4,24-4.1Z" style="fill:#ffeb81"/><path d="M215.7,27.2l-.6-3.6a3.4,3.4,0,0,0-3.3-2.8h-2.7a3.1,3.1,0,0,0-3,3.2l.4,6.7Z" style="fill:#f2b47d"/><ellipse cx="211" cy="28.8" rx="5" ry="5.5" style="fill:#bf784f"/><path d="M253.6,132.5a50.2,50.2,0,0,1-8.2,3.7l5.1-7.1c.8-1,1.7-2.2,3-2.4a2.5,2.5,0,0,1,2.2.8,2.3,2.3,0,0,1,.6,2.2C256.1,131,254.8,131.9,253.6,132.5Z" style="fill:#f7bf88"/><path d="M241.9,121.4a54.6,54.6,0,0,1-7.1,5.6l3.2-8.1c.5-1.3,1.1-2.6,2.3-3.1a2.4,2.4,0,0,1,2.3.2,2.7,2.7,0,0,1,1.2,2A5.3,5.3,0,0,1,241.9,121.4Z" style="fill:#f7bf88"/><path d="M227.7,112.1a47.1,47.1,0,0,1-5.9,6.8c.6-2.9,1.1-5.7,1.6-8.6.3-1.3.6-2.7,1.7-3.5a2.7,2.7,0,0,1,2.3-.2,2.5,2.5,0,0,1,1.6,1.7C229.3,109.6,228.5,111,227.7,112.1Z" style="fill:#f7bf88"/><path d="M99.4,105.2a45.1,45.1,0,0,1,1.7,8.9l-5.7-6.5c-.9-1.1-1.8-2.2-1.7-3.6a2.6,2.6,0,0,1,1.3-1.9,2.3,2.3,0,0,1,2.3-.1C98.5,102.5,99,104,99.4,105.2Z" style="fill:#f7bf88"/><path d="M85,112.4a44.7,44.7,0,0,1,2.6,8.6l-6.3-5.9c-1-.9-2.1-2-2.1-3.3a2.8,2.8,0,0,1,1-2.1,2.7,2.7,0,0,1,2.3-.3C83.8,109.8,84.5,111.2,85,112.4Z" style="fill:#f7bf88"/><path d="M71.8,120.9a43.1,43.1,0,0,1,3.9,8.1l-7.2-4.8c-1.1-.8-2.3-1.7-2.5-3a2.3,2.3,0,0,1,.7-2.2,2.2,2.2,0,0,1,2.2-.7C70.2,118.5,71.1,119.7,71.8,120.9Z" style="fill:#f7bf88"/><path d="M228.5,3A58.4,58.4,0,0,1,241,4.4l-1.9,9.2a1.2,1.2,0,0,0,.9,1.5h.3a1.2,1.2,0,0,0,1.2-1L243.4,5a54,54,0,0,1,11.7,4.7c-5.2,6.1-4.9,15.2-2.8,22.9s5.9,15,6.8,22.9c.3,3.2,0,6.8-2.4,8.8a5.5,5.5,0,0,1-3.7,1.2c-3.3,0-7.2-2.1-10.1-3.9-4.9-3-10.2-7.8-14.9-8.1h-.1c-4.2,0-3.3,19.3-1.5,23.1,3.6,7.6,7,12.7,13.1,18.5,12.7,12.1,24.2,23.9,31.9,39.6.7,1.4,1.3,2.8,2,4.1l-21,7.3c-22.2-25.7-56.4-40-90.3-40h-.6c-34.1.2-67.6,14.1-93.5,36.4a63.7,63.7,0,0,0-18.4-8.8c.6-1.3,1.3-2.6,2-3.9A142.4,142.4,0,0,1,87.9,87.3c-6.6-1.5-9.3-10.6-6-16.5a15.6,15.6,0,0,1,4.9-5.3c-1.9-5.7-3.4-11.6-4.9-17.5-.7-2.9-1.4-5.9-.5-8.8a2.7,2.7,0,0,1,.6-1,8.9,8.9,0,0,1,6.6-3.8,2.2,2.2,0,0,1,1.4.3h.2l.9.2a8.2,8.2,0,0,1,2.5,2.4c4.3,5.6,8.1,11.9,9.7,18.8a17,17,0,0,1,.4,2.2c3.8-1.8,8.1-2.3,12.3-2.6l3.3-.2c4.9-.3,9.9-.5,14.8-.5a233.9,233.9,0,0,1,39.2,3.3c0-1.6.1-3.2.2-4.8l7.7.3h.1a1.2,1.2,0,0,0,1.2-1.1,1.2,1.2,0,0,0-1.2-1.3l-7.5-.4a55.5,55.5,0,0,1,2.2-9.8l7.1,2.1h.3a1.1,1.1,0,0,0,1.2-.9,1.2,1.2,0,0,0-.8-1.5l-6.9-2a46.3,46.3,0,0,1,4.2-9l5.8,3.7.7.2a1.2,1.2,0,0,0,1-.5,1.3,1.3,0,0,0-.4-1.8l-5.8-3.7a57.2,57.2,0,0,1,6.8-8.6l4.7,5.9a1.4,1.4,0,0,0,1,.5,1.3,1.3,0,0,0,.8-.3,1.3,1.3,0,0,0,.1-1.8l-4.8-6a42.9,42.9,0,0,1,7.5-6l1.1-.6,3.6,7.5a1.2,1.2,0,0,0,1.1.7l.5-.2a1.2,1.2,0,0,0,.6-1.6l-3.7-7.7a50.4,50.4,0,0,1,10.5-4.3l2.1,9.5a1.3,1.3,0,0,0,1.2,1h.3a1.1,1.1,0,0,0,.9-1.5l-2.1-9.6A62.8,62.8,0,0,1,226,3l.5,10.9a1.2,1.2,0,0,0,1.2,1.2h.1a1.2,1.2,0,0,0,1.1-1.3L228.5,3m0-3a3.1,3.1,0,0,0-1.3.3A2.1,2.1,0,0,0,226,0h-.1a53.4,53.4,0,0,0-12,1.7,2.3,2.3,0,0,0-1.2.6h-1.3a54.1,54.1,0,0,0-11.1,4.6,2.2,2.2,0,0,0-1,.9,2.8,2.8,0,0,0-1.3.4l-1.1.7a52.7,52.7,0,0,0-8,6.3,2.6,2.6,0,0,0-.7,1.1,2.9,2.9,0,0,0-1.2.7,68.5,68.5,0,0,0-7.1,9,2.8,2.8,0,0,0-.4,1.3,4.3,4.3,0,0,0-1,.9,75.3,75.3,0,0,0-4.5,9.5,2.9,2.9,0,0,0-.1,1.3,2.4,2.4,0,0,0-.7,1.2,59.3,59.3,0,0,0-2.4,10.3,5.3,5.3,0,0,0,.1,1.3,5,5,0,0,0-.4,1.3c0,.5-.1,1.1-.1,1.6a232.7,232.7,0,0,0-36.3-2.8c-5,0-10,.2-15,.5l-3.4.2a51.2,51.2,0,0,0-9.8,1.6c-1.6-6.1-4.7-12.1-9.9-18.8a11.7,11.7,0,0,0-3.4-3.2l-1.4-.5a5.8,5.8,0,0,0-2.6-.5,11.9,11.9,0,0,0-9.1,5.1,7.6,7.6,0,0,0-.9,1.8c-1.3,3.7-.3,7.6.4,10.5,1.3,5.1,2.7,10.4,4.3,15.6a18.3,18.3,0,0,0-4,4.9A15.3,15.3,0,0,0,78.9,83a12.8,12.8,0,0,0,3.6,4.9A143.6,143.6,0,0,0,49,128.4q-1.1,1.8-2.1,3.9a3.1,3.1,0,0,0-.1,2.5,2.9,2.9,0,0,0,1.9,1.7A63.7,63.7,0,0,1,66.3,145a3.4,3.4,0,0,0,1.7.5,3.7,3.7,0,0,0,2-.7c26.1-22.5,59.5-35.5,91.5-35.7h.6c34.1,0,67,14.6,88,39a2.9,2.9,0,0,0,2.3,1h.9l8.3-2.9,12.7-4.4a3,3,0,0,0,1.8-1.7,3.3,3.3,0,0,0,0-2.4c-.7-1.6-1.4-2.9-2-4.2-8-16.3-19.9-28.5-32.5-40.5-5.7-5.4-8.9-10-12.5-17.5-1.3-2.9-1.7-15.3-.4-18.8,2.4.6,5.4,2.7,8.3,4.7l4.3,2.9c3.4,2,7.7,4.3,11.7,4.3a8.3,8.3,0,0,0,5.6-1.9c2.8-2.4,4-6.3,3.5-11.4s-2.5-10.6-4.2-15.5c-1-2.6-1.9-5.3-2.7-7.9s-3.1-13.9,2.2-20.1a3.2,3.2,0,0,0,.7-2.5,3.2,3.2,0,0,0-1.5-2.1,58.5,58.5,0,0,0-12.4-5h-1.3l-1.2-.5A58.1,58.1,0,0,0,228.5,0Z" style="fill:#75411a"/><path d="M88.6,34.4a2.2,2.2,0,0,1,1.4.3h.2l.9.2a8.2,8.2,0,0,1,2.5,2.4c4.3,5.6,8.1,11.9,9.7,18.8a17,17,0,0,1,.4,2.2c3.8-1.8,8.1-2.3,12.3-2.6l3.3-.2c5-.3,9.9-.5,14.9-.5a237.9,237.9,0,0,1,40.4,3.5c-.3,1.6-.5,3.1-.8,4.7l5.9.6,17.1,1.6c-.2,2.4-.4,5.1-.6,7.6a3.6,3.6,0,0,1-2.4,3.2,23.4,23.4,0,0,1-7.1.9c-3,0-6-.3-8.6-.3H177c-9.4,0-18.5,3.2-27.8,4.3a114.8,114.8,0,0,1-15.4,1,136.7,136.7,0,0,1-14.2-.8,38.7,38.7,0,0,1-10.8-3,28.5,28.5,0,0,1-3.5-1.7,15.9,15.9,0,0,1-3.4-3,16.9,16.9,0,0,1-1.7,2.9v-.2l-.3.8a6.2,6.2,0,0,1-4.7,2.7,4.1,4.1,0,0,1-1.9-.5c-1.6-.9-2.4-2.7-3.1-4.4S88,69.2,87,66.3c-1.9-6-3.5-12.1-5.1-18.3-.7-2.9-1.4-5.9-.5-8.8a2.7,2.7,0,0,1,.6-1,8.9,8.9,0,0,1,6.6-3.8m0-3a11.9,11.9,0,0,0-9.1,5.1,7.6,7.6,0,0,0-.9,1.8c-1.3,3.7-.3,7.6.4,10.5v.3c1.5,6,3.1,12.2,5.1,18.2.9,2.9,2,5.8,3.1,8.7s1.8,4.6,4.5,6a6.3,6.3,0,0,0,3.3.9,9.1,9.1,0,0,0,7.2-4.1h0l.3-.3,1.2.7a32.2,32.2,0,0,0,3.7,2,46.4,46.4,0,0,0,11.7,3.2c5.1.5,9.8.8,14.6.8a121.9,121.9,0,0,0,15.8-1c3.7-.5,7.5-1.3,11.1-2,5.6-1.2,10.9-2.3,16.3-2.3h4.3l5.4.2a23.7,23.7,0,0,0,8.1-1.1,6.5,6.5,0,0,0,4.4-5.7,28.3,28.3,0,0,0,.2-2.9c.1-1.6.2-3.2.4-4.7a2.9,2.9,0,0,0-.6-2.2,2.9,2.9,0,0,0-2.1-1.1l-8.3-.8-8.8-.8-2.7-.3.2-1.5a2.9,2.9,0,0,0-2.4-3.4,232.9,232.9,0,0,0-40.9-3.6c-5,0-10.1.2-15.1.5l-3.4.2a51.2,51.2,0,0,0-9.8,1.6c-1.6-6.1-4.7-12.1-9.9-18.8a11.7,11.7,0,0,0-3.4-3.2l-1.4-.5a5.8,5.8,0,0,0-2.6-.5Z" style="fill:#ff8d3d"/></g></g></svg>