<svg xmlns="http://www.w3.org/2000/svg" viewBox="0 0 224 229.5"><g style="isolation:isolate"><g id="Layer_2" data-name="Layer 2"><g id="Layer_1-2" data-name="Layer 1"><path d="M112.8,45c14.4-31.9,22.6-24.3,22.6-24.3l67.9,16.1c-.9,2-1.9,3.9-2.8,5.9-18.8,38.8-39,84.1-56.8,111.9-13.4,20.9-29.3,54-53.9,61.8-9.7,3.1-31.1-8.4-38.5-10-18.7-4.1-32.2-11.8-36.8-19.3C55.3,156.1,98.4,76.9,112.8,45Z" style="fill:#ac538c"/><path d="M162.5,103.2a68.9,68.9,0,0,1-40.1-7.3A61.4,61.4,0,0,1,98.1,74.4c6.3-11.6,11.3-21.8,14.7-29.4,14.4-31.9,22.6-24.3,22.6-24.3l67.9,16.1c-.9,2-1.9,3.9-2.8,5.9-9.1,18.7-18.4,39-27.7,58A45.6,45.6,0,0,1,162.5,103.2Z" style="fill:#e8a4d2;opacity:0.30000000000000004;mix-blend-mode:screen"/><path d="M21.4,154.5c30.6-29.2,64.4-87,79.9-127.1,13.4-34.8,29.8-28.1,34.1-6.7,0,0-8.2-7.6-22.6,24.3S58.7,154.3,17.9,185.3c-3.7,1.5-6.7,1.9-7.4-1.4-3.4-15.5-4.9-18.7-4.9-18.7C8.5,163.1,13.9,161.7,21.4,154.5Z" style="fill:#84205c"/><path d="M128.8,6.7c-2.8-1.2-5.7-1.5-8-.2a23,23,0,0,0-7,6.9c-4.5,6.4-7.6,14.1-10.9,21.6-4.2,9.7-8,17.9-12.3,27.4C80,85.9,53.5,126.3,40.4,141.2c-10.1,11.6-20.3,22.7-32.7,30.9a43.3,43.3,0,0,0-2.1-6.9,114.2,114.2,0,0,0,15.8-12.6C52,123.3,85.8,67.5,101.3,27.4,111,2.2,122.3-1.2,129.4,7Z" style="fill:#e8a4d2"/><path d="M96.2,228c-3.7,0-8.3-.6-8.9-3.3-3-13.7,1-32.9,2.3-38.4v-.2a1.2,1.2,0,0,1,.6-1,25.5,25.5,0,0,1,3.4-2,46,46,0,0,0,12.2-8.6c30.5-29.1,64.4-87.2,79.5-126.6,6.3-16.3,14.1-25.3,21.9-25.3s12.8,7.3,15.2,18.9a1.7,1.7,0,0,1-.1.7c-.2,1-28.8,93.2-111.9,181.9C107.7,227.1,100.2,228,96.2,228Z" style="fill:#84205c"/><path d="M207.3,24.1c6.3,0,11.5,7,13.7,17.7,0,0-27.7,91.8-111.6,181.2-2,2.3-8.1,3.5-13.2,3.5s-7.1-.7-7.4-2.2c-3.4-15.4,2.4-38,2.3-38h0c3-2.1,8.3-3.5,15.9-10.7,30.5-29.2,64.4-86.9,79.8-127.1,6.7-17.4,14.2-24.4,20.5-24.4m0-3v0h0c-6,0-14.9,4.6-23.3,26.3-15.1,39.2-48.8,97.1-79.1,126A46.3,46.3,0,0,1,93,181.8a28.7,28.7,0,0,0-3.6,2.1,3,3,0,0,0-1.2,1.9v.2c-1.6,7.2-5.2,25.4-2.2,39,.6,2.9,4.1,4.5,10.3,4.5,1.2,0,11.5-.2,15.4-4.4a555.4,555.4,0,0,0,87.7-124.8c17.4-34,24.3-56.7,24.6-57.6a3.8,3.8,0,0,0,0-1.5c-2.5-12.4-8.9-20.1-16.6-20.1Z" style="fill:#5e1441"/><path d="M212.7,27c-2.7.1-4.7.4-6.8,2-7,5.1-16.5,27.2-22.6,40.7-20,44.4-52,91.5-66,105.2a144.4,144.4,0,0,1-21.4,17.8L90.5,196c.2-5.7.7-9.7.6-9.7,3-2.1,8.3-3.5,15.9-10.7,30.5-29.2,64.4-86.9,79.8-127.1,9.3-24.1,20.1-28.3,27.2-21.4Z" style="fill:#e8a4d2"/><path d="M92.5,227.4c-18.7,0-89-18.1-89.8-29C2,189,1.6,178.2,1.5,171.1c0-3.3.9-5.3,3.1-7a3.7,3.7,0,0,1,2.5-1.2,3.5,3.5,0,0,1,2.3.9v.2l.3.2h.1l.2.2.2.2c0,.1.1.2.2.3v.2l.2.2.2.3.3.6v.2a10.1,10.1,0,0,1,.7,1.5v.3l.2.5-1.4.6,1.4-.5.2.3.3.9v.5l.3,1.1.3,1.1L14,174l.3,1.4c3,13.8,12,20,37,25.5,9.9,2.1,17.9,3.8,23.3,3.8h0c6.8,0,10-2.4,12.9-10a18.3,18.3,0,0,0,.9-3.9,23.4,23.4,0,0,1,1-4c0-.1.1-.2.2-.3v-.2h.1l1.2.9-1.1-1,.3-.2a4.2,4.2,0,0,1,3-1.2,5.1,5.1,0,0,1,3,1c3.3,2,3.7,11.1,3.9,23.7,0,4.7.1,8,.2,10.2a17.9,17.9,0,0,1,0,3.6v.2a1.7,1.7,0,0,1-.1.7c-.3,3.3-5.6,3.3-7.7,3.3Z" style="fill:#e8a4d2"/><path d="M7.1,164.4a1.9,1.9,0,0,1,1.3.6h.3v.2H9v.2l.2.2v.2a.3.3,0,0,1,.1.2l.2.2v.2l.2.3v.2l.6,1.4a.4.4,0,0,1,.1.3c.1.1.1.3.2.4v.4c.1.1.1.3.2.4s.1.3.1.5.1.3.2.5a4.3,4.3,0,0,1,.1.5c.1.1.1.3.2.5s.1.4.2.6a4.3,4.3,0,0,1,.1.5c.1.2.1.5.2.7s.1.3.1.5l.3,1.3c3.4,15.5,14.4,21.4,38.1,26.6,10.8,2.4,18.3,3.9,23.7,3.9,7.7,0,11.2-3,14.3-11,1-2.7,1-5.6,1.9-7.8h.4a3.1,3.1,0,0,1,2-.8,4.3,4.3,0,0,1,2.2.7c2.9,1.8,3.1,13.7,3.2,22.5s.3,12.9.2,13.7v.8c-.2,1.4-2.5,2-6.3,2-21.1,0-87.7-19.1-88.3-27.6C3.4,188.2,3.1,177,3,171.1c0-3.1.8-4.6,2.6-5.9a2.1,2.1,0,0,1,1.5-.8m0-3h0A5,5,0,0,0,3.6,163C1,164.9,0,167.4,0,171.1c.1,7.1.5,18,1.2,27.4.2,3.4,4.1,6.5,12.9,10.4a205.9,205.9,0,0,0,25.7,9.3c17.7,5.3,40.9,10.7,52.7,10.7,2.1,0,8.7,0,9.2-4.7a1.3,1.3,0,0,0,.1-.6v-.2a20.7,20.7,0,0,0,0-3.8c-.1-2.2-.2-5.6-.2-10.2-.2-15.5-.9-22.7-4.6-25a7.1,7.1,0,0,0-3.8-1.2,6.1,6.1,0,0,0-4,1.5h-.3l-.2.2h0v.2h-.2a1.6,1.6,0,0,0-.4.7,20,20,0,0,0-1.1,4.2,20.1,20.1,0,0,1-.8,3.7c-2.7,7-5.3,9-11.5,9s-13.2-1.6-23-3.8C27,194,18.6,188.3,15.7,175l-.3-1.3v-.4h0c-.1-.3-.1-.5-.2-.8V172h0a1.4,1.4,0,0,1-.2-.6l-.2-.6a4.3,4.3,0,0,0-.1-.5c-.1-.2-.1-.4-.2-.6s-.1-.3-.2-.4a4.3,4.3,0,0,0-.1-.5l-.2-.4h0l-.2-.4a.4.4,0,0,0-.1-.3h0c-.3-.5-.5-1.1-.7-1.5h-.1c0-.1,0-.2-.1-.2l-.2-.4-2.6,1.5,2.6-1.5a.4.4,0,0,1-.1-.3l-.3-.3v-.3l-.2-.2-.2-.3-.2-.2-.3-.3-.2-.2-.3-.3h-.3a4.7,4.7,0,0,0-3.1-1.2Z" style="fill:#5e1441"/><path d="M121.7,3c6.4,0,11.6,7,13.7,17.7l58.3,13.8c.1-.1.1-.3.2-.4l.3-.4.6-.8.3-.4.5-.8.3-.3.7-1,.3-.3.6-.6.3-.3.7-.8c.1,0,.1-.1.2-.2l.6-.5.3-.3.6-.4a.2.2,0,0,1,.2-.2l.8-.6h.2l.6-.4h.2l.7-.4h.2l.7-.3h.2l.6-.2h.2l.7-.2h3.3a.1.1,0,0,0,.1.1h.9l.5.2c.1,0,.2,0,.2.1l.6.2a.1.1,0,0,1,.1.1l.7.3c0,.1.1.1.2.1s.3.2.4.4h.2l.6.5c.1,0,.1,0,.1.1l.6.4h0c3.2,3,5.7,8.2,7,14.7,0,0-27.7,91.8-111.6,181.2-2,2.3-8.1,3.5-13.2,3.5a19.3,19.3,0,0,1-5.1-.6c-22.4-.7-86.3-19.2-86.9-27.6C3.4,188.2,3.1,177,3,171.1c0-3.1.8-4.6,2.6-5.9l.9-.7a102.3,102.3,0,0,0,14.9-11.9C52,123.3,85.8,67.5,101.3,27.4l.8-2.1.2-.5c.3-.6.5-1.2.7-1.7a.4.4,0,0,0,.1-.3L104,21a.8.8,0,0,1,.2-.4,10.1,10.1,0,0,1,.7-1.5c0-.1.1-.2.1-.3l.9-1.6c0-.1.1-.2.1-.3l.8-1.3v-.3l.9-1.4h.1l.8-1.3v-.2l1.8-2.4c.1-.1.1-.1.1-.2l1.8-2c.1,0,.1,0,.1-.1L114.4,6h.1a21.1,21.1,0,0,1,2.7-1.8h0A11.4,11.4,0,0,1,121.7,3m0-3h0a12.5,12.5,0,0,0-5.8,1.5,15.2,15.2,0,0,0-3.3,2.1h0l-2.1,1.9h-.1l-2,2.2V8a24.8,24.8,0,0,0-1.9,2.6l-.2.2h0l-.8,1.3v.2l-1,1.5V14h0c-.3.4-.5.9-.8,1.4h-.1v.2l-.9,1.7v.2h-.1l-.7,1.5h-.1v.3l-.9,1.9v.2h0c-.3.5-.5,1.1-.8,1.7l-.2.6-.8,2.1C83.9,64,50.4,120.7,19.4,150.4A100.7,100.7,0,0,1,5.5,161.6l-.4.3A4.2,4.2,0,0,0,3.6,163C1,164.9,0,167.4,0,171.1c.1,7.1.5,18,1.2,27.4.1,2.2.6,8.1,37.4,19.3,16.9,5.2,39.5,10.6,52.1,11.1a22.5,22.5,0,0,0,5.5.6c1.2,0,11.5-.2,15.4-4.4a555.4,555.4,0,0,0,87.7-124.8c17.4-34,24.3-56.7,24.6-57.6a3.8,3.8,0,0,0,0-1.5c-1.4-7.1-4.1-12.6-7.7-16.1,0-.1,0-.1-.1-.2H216l-.6-.5h-.1l-.8-.6-.2-.2-.7-.4h-.2l-.8-.5h-.2l-.7-.3h-.3l-.8-.3h-.1l-1-.3H205l-1,.2h-.3l-.7.2h-.3l-.9.4h-.2l-.8.4-.3.2-.7.5h-.3l-.9.7a.2.2,0,0,0-.2.2h-.1l-.6.5-.4.3-.7.7h0l-.2.2a3,3,0,0,0-.8.8l-.3.3h-.1a1.8,1.8,0,0,0-.5.7h-.1l-.3.3-.8,1-.2.3h-.1l-.6.8-.3.4L138,18.2C135.2,6.9,129.1,0,121.7,0Z" style="fill:#5e1441"/></g></g></g></svg>