<svg xmlns="http://www.w3.org/2000/svg" xmlns:xlink="http://www.w3.org/1999/xlink" viewBox="0 0 118.3 75.9"><defs><clipPath id="clip-path"><path d="M10.1,14.7c0,5.4,21.9,9.7,49,9.7s49.1-4.3,49.1-9.7-22-9.8-49.1-9.8S10.1,9.3,10.1,14.7Z" style="fill:none"/></clipPath></defs><g style="isolation:isolate"><g id="Layer_2" data-name="Layer 2"><g id="Layer_1-2" data-name="Layer 1"><g id="clean_4" data-name="clean 4"><path d="M3,15.3,6.5,29.7v.4l.3,1.3v.5L7.5,34l.2.7.2,1,.2.8,3.2,13.1.4,1.7.7,2.7.4,1.8h0l.3,1.1v.3c0,2.9,2.1,5.5,5.9,7.8l1.3.8a52.4,52.4,0,0,0,12.6,4.5l1.2.3a94.7,94.7,0,0,0,11.8,1.8H47a108.6,108.6,0,0,0,11.5.4h1.2a107.9,107.9,0,0,0,11.6-.7h1.1A94.4,94.4,0,0,0,84.3,70l1.2-.3a51.9,51.9,0,0,0,12.6-4.8l1.4-.8c3-2,4.9-4.2,5.5-6.5h0l.5-1.8.4-1.8.6-2.7.5-1.7,3.1-13.1.2-.8.3-1V34l.5-2.1.2-.5.3-1.3v-.4l3.5-14.4-6.1.4h-1.5l-15.1.9H91.1l-2.3.2-12.6.8H74.7l-14.8.9H58.4l-14.8-.9H42.1l-14.9-1H25.7l-15.1-.9H9.1Z" style="fill:#c96833"/><g style="opacity:0.30000000000000004;mix-blend-mode:multiply"><path d="M98.1,64.9l1.4-.8,9.7-48.4h-1.5Z" style="fill:#633319;mix-blend-mode:multiply"/><path d="M84.3,70l1.2-.3,7.1-53H91.1Z" style="fill:#633319;mix-blend-mode:multiply"/><path d="M71.3,72.2h1.1l3.8-54.3H74.7Z" style="fill:#633319;mix-blend-mode:multiply"/><path d="M58.4,18.8V72.9h1.2l.2-54.1H58.4Z" style="fill:#633319;mix-blend-mode:multiply"/><path d="M42.1,17.8l3.8,54.6H47L43.6,17.9Z" style="fill:#633319;mix-blend-mode:multiply"/><path d="M25.7,16.7l7.2,53.6,1.2.3L27.2,16.8Z" style="fill:#633319;mix-blend-mode:multiply"/><path d="M9.1,15.7,19,65l1.3.8-9.7-50Z" style="fill:#633319;mix-blend-mode:multiply"/></g><path d="M20.3,65.8a52.4,52.4,0,0,0,12.6,4.5l1.2.3a94.7,94.7,0,0,0,11.8,1.8H47a108.6,108.6,0,0,0,11.5.4h1.2a107.9,107.9,0,0,0,11.6-.7h1.1A94.4,94.4,0,0,0,84.3,70l1.2-.3a51.9,51.9,0,0,0,12.6-4.8l1.4-.8c3-2,4.9-4.2,5.5-6.5h0l.5-1.8.4-1.8.6-2.7.5-1.7,3.1-13.1.2-.8.3-1V34l.5-2.1.2-.5.3-1.3v-.4l3.5-14.4-6.1.4h-1.5l-15.1.9H91.1l-2.3.2C98,43.6,71.4,81.5,25.9,67.5Z" style="fill:#c96833;opacity:0.30000000000000004;mix-blend-mode:multiply"/><g style="opacity:0.30000000000000004;mix-blend-mode:multiply"><path d="M113.1,31.4v0Z" style="fill:#633319"/><path d="M7,31.9,7.5,34l.2.7.2,1,.2.8c35.9,9.8,65.9,9.8,102,0l.2-.8.3-1V34l.5-2.1C74.2,42.6,43.8,42.5,7,31.9Z" style="fill:#633319"/></g><path d="M6.6,30.1l.3,1.3v.5L7.5,34l.2.7c36.2,10,66.4,10.1,102.9,0V34l.5-2.1.2-.5.3-1.3C74.3,41,43.7,40.9,6.6,30.1Z" style="fill:#ebaa50"/><path d="M59.1,29C30.5,29,1.5,24.3,1.5,15.3S30.5,1.5,59.1,1.5s57.7,4.7,57.7,13.8S87.8,29,59.1,29Z" style="fill:#f4c37d"/><path d="M59.1,3c31,0,56.2,5.5,56.2,12.3S90.1,27.5,59.1,27.5,3,22,3,15.3,28.1,3,59.1,3m0-3C37.2,0,0,3.2,0,15.3S37.2,30.5,59.1,30.5s59.2-3.2,59.2-15.2S81.1,0,59.1,0Z" style="fill:#924f28"/><g style="clip-path:url(#clip-path)"><path d="M10.1,14.7c0,5.4,21.9,9.7,49,9.7s49.1-4.3,49.1-9.7-22-9.8-49.1-9.8S10.1,9.3,10.1,14.7Z" style="fill:#c95800"/><path d="M59.1,4.9c18.4,0,34.3,2,42.8,5a215.6,215.6,0,0,0-27-1.6c-27.1,0-49,4.4-49,9.7,0,1.8,2.3,3.4,6.3,4.8-13.3-1.7-22.1-4.7-22.1-8.1C10.1,9.3,32,4.9,59.1,4.9Z" style="opacity:0.30000000000000004;mix-blend-mode:multiply"/><path d="M59.1,25.4q-11.2,0-21.3-.9c-9.6-1-17.3-2.4-22.3-4.3a15.7,15.7,0,0,1-2.9-1.3,1.1,1.1,0,0,1-.5-.9.9.9,0,0,1,.5-.8c7.3-4,25.6-6.6,46.5-6.6,7.1,0,13.8.3,19.9.9A113.4,113.4,0,0,1,100.2,15a27.2,27.2,0,0,1,5.5,2.2.9.9,0,0,1,.5.8,1.1,1.1,0,0,1-.5.9C98.4,22.9,80.1,25.4,59.1,25.4Z" style="fill:#98d9e4"/><path d="M59.1,11.6c7.1,0,13.8.3,19.8.9a109.5,109.5,0,0,1,21,3.5,28.3,28.3,0,0,1,5.3,2c-6.9,3.8-24.9,6.4-46.1,6.4-7.6,0-14.8-.3-21.2-.9-9.4-.9-17.2-2.4-22.1-4.3A9.6,9.6,0,0,1,13.1,18c6.9-3.7,24.9-6.4,46-6.4m0-2c-21.1,0-39.5,2.6-47,6.7a1.9,1.9,0,0,0-1,1.7,2.1,2.1,0,0,0,1,1.8,18.1,18.1,0,0,0,3.1,1.3c5,1.9,12.9,3.4,22.6,4.4,6.6.6,13.8.9,21.3.9,21.2,0,39.6-2.6,47-6.6a2,2,0,0,0,1.1-1.8,1.8,1.8,0,0,0-1.1-1.7,28.4,28.4,0,0,0-5.6-2.2,107.1,107.1,0,0,0-21.4-3.6c-6.2-.6-12.9-.9-20-.9Z" style="fill:#5576b4"/><path d="M67,15.3c-19.9,0-37.1,2.4-44.7,5.8A34.8,34.8,0,0,1,13.1,18c6.9-3.7,24.9-6.3,46-6.3s39.2,2.6,46.1,6.3l-1.3.7C94.9,16.6,81.7,15.3,67,15.3Z" style="fill:#9cabe6;opacity:0.4;mix-blend-mode:multiply"/><path d="M37.9,23.5l7.7.5c4.3.3,8.8.4,13.5.4a196.1,196.1,0,0,0,28.3-1.8h.1c8-1.1,14.2-2.7,17.7-4.6a28.3,28.3,0,0,0-5.3-2c-3,2.7-10.8,3.8-20.2,2.8C60.8,16.9,48.1,17.5,37.9,23.5Z" style="fill:#6ab3b9"/><path d="M45.6,24c4.3.3,8.8.4,13.5.4a196.1,196.1,0,0,0,28.3-1.8c-5.5-.6-10.2-1.7-19.6-1.7S50.6,22.3,45.6,24Z" style="fill:#fff;opacity:0.44;mix-blend-mode:screen"/><path d="M13.1,18a9.6,9.6,0,0,0,2.7,1.2,6.7,6.7,0,0,0,3.2-.6c6.6-3.6,13.4-5.4,38.3-5.2,9.3.1,17.1-.1,21.6-.9-6-.6-12.7-.9-19.8-.9C38,11.6,20,14.3,13.1,18Z" style="fill:#fff;opacity:0.2"/></g><path d="M59.1,3c31,0,56.2,5.5,56.2,12.3a3.3,3.3,0,0,1-.4,1.3l-3.1,13.1v.4l-.3,1.3-.2.5-.5,2.1v.7l-.3,1-.2.8L107,49.6l-.5,1.7-.6,2.7-.4,1.8-.5,1.8h0c-.6,2.3-2.5,4.5-5.5,6.5l-1.4.8a51.9,51.9,0,0,1-12.6,4.8l-1.2.3a94.4,94.4,0,0,1-11.9,2.1H71.3a107.9,107.9,0,0,1-11.6.7H58c-3.8,0-7.5-.1-11-.4H45.9a94.7,94.7,0,0,1-11.8-1.8l-1.2-.3a52.4,52.4,0,0,1-12.6-4.5L19,65c-3.8-2.3-5.9-4.9-5.9-7.8v-.3l-.3-1.1h0L12.4,54l-.7-2.7-.4-1.7L8.1,36.5l-.2-.8-.2-1L7.5,34,7,31.9v-.5l-.3-1.3v-.4L3.3,16.6A3.5,3.5,0,0,1,3,15.3H3C3,8.5,28.1,3,59.1,3m0-3C37.2,0,.1,3.2,0,15.2H0a5.9,5.9,0,0,0,.5,2.2L3.6,30.4v.5L4,32v.6l.5,2.1.2.7.2,1,.2.8L8.4,50.3,8.8,52l.7,2.7.4,1.7h0l.2.7c0,2.7,1.3,6.7,7.3,10.4l1.5.9a54,54,0,0,0,13.3,4.7h0l1.3.3c3.7.8,7.8,1.4,12.1,1.9h1.1c3.8.3,7.6.4,11.3.4h1.9a114.8,114.8,0,0,0,11.7-.7h1.2A101.2,101.2,0,0,0,84.9,73l1.3-.4a50.7,50.7,0,0,0,13.4-5.1l1.5-.9c3.6-2.3,5.9-5,6.7-7.9a.6.6,0,0,0,.1-.4l.5-1.8.4-1.8.7-2.7.4-1.7L113,37.2l.2-.8.3-1,.2-.8.4-2,.2-.6.3-1.2v-.4l3.1-12.8a6.8,6.8,0,0,0,.5-2.3C118.3,3.2,81.1,0,59.1,0Z" style="fill:#6a3417"/><path d="M54,51.8c-.1.2-.4.3-.5.4l-.3.2-.3-.6a4.5,4.5,0,0,0-1.1-1.3,1,1,0,0,0-1.5.3,2.5,2.5,0,0,0-.5,2.2,4,4,0,0,0,1.4,2.4c-.1.2-.1.5-.3.7a7.8,7.8,0,0,1-2-2.4,3.4,3.4,0,0,1,.9-3.7,2,2,0,0,1,2.3-.3,3.2,3.2,0,0,1,1.2,1.1A3.6,3.6,0,0,1,54,51.8Z" style="fill:#983824"/><path d="M51.2,55.4A4,4,0,0,1,49.8,53a2.5,2.5,0,0,1,.5-2.2,1,1,0,0,1,1.5-.3,4.5,4.5,0,0,1,1.1,1.3l.3.6-.9.9-.6,1c0,.1-.1.1-.1.2h0C51.4,54.8,51.4,55.1,51.2,55.4Z" style="fill:#e29a64"/><path d="M65.1,52.4a1.6,1.6,0,0,1-.8-.6,5.8,5.8,0,0,1,1.6-1.9,2,2,0,0,1,3,.6,3.4,3.4,0,0,1-.1,4.1,12.1,12.1,0,0,1-1.6,1.6,2.5,2.5,0,0,1-.2-.7,7.5,7.5,0,0,0,1.3-1.8,3.2,3.2,0,0,0-.3-3,1.1,1.1,0,0,0-1.5-.2l-.5.4A6,6,0,0,0,65.1,52.4Z" style="fill:#ac462c"/><path d="M65.1,52.4a6,6,0,0,1,.9-1.5l.5-.4a1.1,1.1,0,0,1,1.5.2,3.2,3.2,0,0,1,.3,3A7.5,7.5,0,0,1,67,55.5c-.1-.2-.1-.4-.3-.5h0a10.4,10.4,0,0,0-.4-1,6.9,6.9,0,0,0-1.1-1.3C65.1,52.6,65.1,52.5,65.1,52.4Z" style="fill:#f0bd88"/><path d="M66.7,54.9a6,6,0,0,0-.8-.8,3.6,3.6,0,0,0-2-.8,2.6,2.6,0,0,0-1.2.5,5.9,5.9,0,0,0-1.2,2,16.7,16.7,0,0,0-.8,3,6.8,6.8,0,0,1-.2,1.4c0-.1,0-.1-.1-.1a2,2,0,0,0-1.4-.6c-.1-1.4-.2-2.7-.4-4.1a1.1,1.1,0,0,0,.8-.1l.7-.6a3.5,3.5,0,0,0,.8-2.4,8.6,8.6,0,0,0-.3-1.7,7.6,7.6,0,0,1,3.5,1.1h.2a1.6,1.6,0,0,0,.8.6c0,.1,0,.2.1.2a6.9,6.9,0,0,1,1.1,1.3A10.4,10.4,0,0,1,66.7,54.9Z" style="fill:#ed793e"/><path d="M58.6,55.4c.2,1.4.3,2.7.4,4.1a3.2,3.2,0,0,0-.9.3l-.5.4a19.5,19.5,0,0,0-1.4-4.7,3.5,3.5,0,0,0-1.5-1.7,2.1,2.1,0,0,0-2.6.3l-.5.4c0-.1.1-.1.1-.2l.6-1,.9-.9.3-.2c.1-.1.4-.2.5-.4h.1a7.8,7.8,0,0,1,2.1-.9l.3,1.2a7.6,7.6,0,0,0,1.3,2.3,3.4,3.4,0,0,0,.8.9Z" style="fill:#cc5d33"/><path d="M60.5,47.7c-.1,0-.1,0,0-.1Z" style="fill:#943623"/><path d="M51.6,54.5Z" style="fill:#cc5d33"/><path d="M68.3,60.3a5.3,5.3,0,0,1-.3-1.2,3.8,3.8,0,0,1-.3-1c-.2-.6-.3-1.3-.5-1.9a2.5,2.5,0,0,1-.2-.7c-.1-.2-.1-.4-.3-.5h0a6,6,0,0,0-.8-.8,3.6,3.6,0,0,0-2-.8,2.6,2.6,0,0,0-1.2.5,5.9,5.9,0,0,0-1.2,2,16.7,16.7,0,0,0-.8,3,6.8,6.8,0,0,1-.2,1.4c0-.1,0-.1-.1-.1a2,2,0,0,0-1.4-.6,3.2,3.2,0,0,0-.9.3l-.5.4a19.5,19.5,0,0,0-1.4-4.7,3.5,3.5,0,0,0-1.5-1.7,2.1,2.1,0,0,0-2.6.3l-.5.4h0c-.2.3-.2.6-.4.9s-.1.5-.3.7v.2l-.4,1.6a14.7,14.7,0,0,1-.5,2.9,2,2,0,0,0-.1,1.1h0a1.3,1.3,0,0,0,.1.6,5.7,5.7,0,0,0,2,2.6,12.8,12.8,0,0,0,2.4,1.1h.2a11.5,11.5,0,0,0,2.6.3h1.3a2.1,2.1,0,0,1,1.1-.1h1.6a12.6,12.6,0,0,0,2.7-.4h.3a6.4,6.4,0,0,0,2.9-1.6l.5-.6a2.9,2.9,0,0,0,.8-1.9A2.9,2.9,0,0,0,68.3,60.3Z" style="fill:#f0bd88"/><path d="M66.7,54.9h0Z" style="fill:#ed793e"/><polygon points="59.2 52.1 59.2 52.1 59.2 52.1 59.2 52.1" style="fill:#943623"/><path d="M58.4,48.5h0Z" style="fill:#fcfcfc"/><path d="M61.7,62.3c-.1,0-.2,0-.2.1a1.4,1.4,0,0,1-.7.8,1.2,1.2,0,0,1-1.5-.7c0-.1,0-.1-.1-.1h0c0-.1,0-.1-.1-.1s-.1,0-.1.1h0c-.1,0-.1,0-.1.1a1.2,1.2,0,0,1-1.5.7,1.4,1.4,0,0,1-.7-.8c0-.1-.1-.1-.2-.1s-.1.1-.1.2.1.2.1.3a1.4,1.4,0,0,0,1,.8,1.9,1.9,0,0,0,1.6-.7,1.9,1.9,0,0,0,1.6.7,1.4,1.4,0,0,0,1-.8c0-.1.1-.2.1-.3S61.8,62.3,61.7,62.3Z" style="fill:#ca743f"/><path d="M60,60.4a3.3,3.3,0,0,0-1.7-.1q-.9.2-.3.9h.1a1.5,1.5,0,0,0,1,.7c0-.1.1-.1.2-.1a1.6,1.6,0,0,0,.9-.7C60.5,60.8,60.5,60.5,60,60.4Z" style="fill:#58393a"/><path d="M55.9,58.3a.8.8,0,0,0-1.2-.1,1.2,1.2,0,0,0,0,1.7.9.9,0,0,0,1.3-.1,1.9,1.9,0,0,0,.2-.7A1,1,0,0,0,55.9,58.3Z" style="fill:#58393a"/><path d="M63.5,58.5a.8.8,0,0,0-1.4-.2,1.2,1.2,0,0,0-.1,1.5.8.8,0,0,0,1.4-.1,1.4,1.4,0,0,0,.2-.6A1.3,1.3,0,0,0,63.5,58.5Z" style="fill:#58393a"/><path d="M60.6,50.6a5.3,5.3,0,0,1-.4-1.8,4.5,4.5,0,0,1,.3-1.1c-.1,0-.1,0,0-.1h0q.2-.7-.6-.6a2.3,2.3,0,0,0-1,.7,5.6,5.6,0,0,0-.5.8h-.1v-.3a.5.5,0,0,0-.8-.4,1,1,0,0,0-.6.5,4.6,4.6,0,0,0-.7,2.6l.3,1.2a7.6,7.6,0,0,0,1.3,2.3,3.4,3.4,0,0,0,.8.9h0a1.1,1.1,0,0,0,.8-.1l.7-.6a3.5,3.5,0,0,0,.8-2.4A8.6,8.6,0,0,0,60.6,50.6Zm-1.4,1.5Z" style="fill:#ed793e"/><path d="M60.1,47c.3,0,.5.2.4.6h0c-.1.1-.1.1,0,.1a4.5,4.5,0,0,0-.3,1.1,5.3,5.3,0,0,0,.4,1.8h0v.2a4,4,0,0,1,.3,1.5,4,4,0,0,0-.3-1.5v-.2a7.6,7.6,0,0,1,3.5,1.1h.2a5.8,5.8,0,0,1,1.6-1.9,2,2,0,0,1,1.3-.4,2,2,0,0,1,1.7,1,3.4,3.4,0,0,1-.1,4.1,12.1,12.1,0,0,1-1.6,1.6c.2.6.3,1.3.5,1.9a3.8,3.8,0,0,0,.3,1,5.3,5.3,0,0,0,.3,1.2,2.9,2.9,0,0,1,.1,1.6,2.9,2.9,0,0,1-.8,1.9l-.5.6A6.4,6.4,0,0,1,64.2,66h-.3a12.6,12.6,0,0,1-2.7.4h-4a11.5,11.5,0,0,1-2.6-.3h-.2A12.8,12.8,0,0,1,52,65.1a5.7,5.7,0,0,1-2-2.6,1.3,1.3,0,0,1-.1-.6h0a2,2,0,0,1,.1-1.1,14.7,14.7,0,0,0,.5-2.9l.4-1.6v-.2a7.8,7.8,0,0,1-2-2.4,3.4,3.4,0,0,1,.9-3.7,2.4,2.4,0,0,1,1.4-.5l.9.2a3.2,3.2,0,0,1,1.2,1.1,3.6,3.6,0,0,1,.7,1h.1a7.8,7.8,0,0,1,2.1-.9,4.6,4.6,0,0,1,.7-2.6,1,1,0,0,1,.6-.5h.3a.5.5,0,0,1,.5.5v.3h.1a5.6,5.6,0,0,1,.5-.8,2.3,2.3,0,0,1,1-.7h.2m0-2h-.6a2.6,2.6,0,0,0-1.4.7h-.3l-1.3.3a4.9,4.9,0,0,0-1.3,1.2,14.2,14.2,0,0,0-.8,1.8A4.9,4.9,0,0,0,53,47.9a3.9,3.9,0,0,0-1.8-.4,4.3,4.3,0,0,0-2.7,1,5.4,5.4,0,0,0-1.4,6,7.9,7.9,0,0,0,1.6,2.3c0,.3-.1.6-.1.9s-.3,1.7-.5,2.5a3.6,3.6,0,0,0-.2,1.9,3.1,3.1,0,0,0,.2,1.1,7.2,7.2,0,0,0,2.8,3.5,9.8,9.8,0,0,0,2.9,1.4h.4l3,.3h4a17.5,17.5,0,0,0,3.2-.4h.4a9.1,9.1,0,0,0,3.6-2l.2-.2h.2l.4-.6a4.9,4.9,0,0,0,1.2-2.8,4.6,4.6,0,0,0-.1-2.1.4.4,0,0,1-.1-.3,4.3,4.3,0,0,1-.1-.5c-.1-.2-.1-.4-.2-.5a1.3,1.3,0,0,0-.1-.6.3.3,0,0,0-.1-.2.6.6,0,0,0-.1-.4,2.4,2.4,0,0,0-.2-.8,4.3,4.3,0,0,0,.9-1,5.4,5.4,0,0,0,.3-6.4,4.2,4.2,0,0,0-3.4-1.9,4.8,4.8,0,0,0-2.4.7l-1.2,1.1-1.4-.5h.1c0-.2.1-.4.1-.6h.1A2.4,2.4,0,0,0,60.1,45Z" style="fill:#6a3417"/></g></g></g></g></svg>