<svg xmlns="http://www.w3.org/2000/svg" viewBox="0 0 29.9 20.8"><g id="Layer_2" data-name="Layer 2"><g id="Layer_1-2" data-name="Layer 1"><g id="food_4" data-name="food 4"><path d="M3.8,14.7A3.3,3.3,0,0,1,1,13.4a2.7,2.7,0,0,1-.2-2.9,5.8,5.8,0,0,0,.5-1.4A6.2,6.2,0,0,1,2.6,6.7,6.2,6.2,0,0,1,5.9,5h.5l1.1-.2A4.3,4.3,0,0,0,8.6,3.6l.2-.2A7.2,7.2,0,0,1,12.1.8,4.1,4.1,0,0,1,13.7.5a4.3,4.3,0,0,1,2.7,1,4.2,4.2,0,0,1,1.1,3.9,7.8,7.8,0,0,1-1.8,3.5,10.9,10.9,0,0,1-2.2,1.8,4.4,4.4,0,0,1-1.5.5,8.4,8.4,0,0,0-3.8,1.5l-.2.2a8.7,8.7,0,0,1-3.3,1.7Z" style="fill:#fada9d"/><path d="M13.7,1a3.6,3.6,0,0,1,2.4.9A4.1,4.1,0,0,1,17,5.3a6.7,6.7,0,0,1-1.7,3.2,6.8,6.8,0,0,1-2,1.8,3.3,3.3,0,0,1-1.4.4,9.9,9.9,0,0,0-4,1.6l-.3.3a7.1,7.1,0,0,1-3,1.5H3.8a2.9,2.9,0,0,1-2.4-1.1,2.3,2.3,0,0,1-.1-2.4,8.8,8.8,0,0,0,.5-1.5A4.8,4.8,0,0,1,3,7,5.1,5.1,0,0,1,6,5.5a8.6,8.6,0,0,0,1.7-.3A5.3,5.3,0,0,0,9.2,3.7a6.9,6.9,0,0,1,3.1-2.5L13.7,1m0-1h0A4.7,4.7,0,0,0,12,.3,6.9,6.9,0,0,0,8.4,3.1l-.2.2a4.5,4.5,0,0,1-.9,1l-.9.2H5.9A5.9,5.9,0,0,0,2.3,6.3,7.6,7.6,0,0,0,.8,8.9a5.7,5.7,0,0,1-.4,1.4,3.2,3.2,0,0,0,.2,3.4,3.8,3.8,0,0,0,3.2,1.5h1a8.8,8.8,0,0,0,3.5-1.7l.2-.2a8.2,8.2,0,0,1,3.6-1.5l1.6-.5a8.5,8.5,0,0,0,2.3-2,9,9,0,0,0,2-3.7,5,5,0,0,0-1.2-4.3A4.3,4.3,0,0,0,13.7,0Z" style="fill:#a86d39"/><path d="M13.5,3.7c-.2.3,0,.6.1.8s.5.7.9.7.6-.2.8-.4,1-1.4.7-1.7h0a3.9,3.9,0,0,0-2.1.3h-.1C13.7,3.4,13.5,3.5,13.5,3.7Z" style="fill:#d18d4a"/><path d="M13.8,3.3l-.3.3c-.1.3.1.5.2.7s.4.6.8.6a1.2,1.2,0,0,0,.8-.4c.2-.2.8-1.1.7-1.4h0a3.9,3.9,0,0,0-2.1.3Z" style="fill:#db9b53"/><path d="M14.9,8.2a1.6,1.6,0,0,1-.8.6.8.8,0,0,1-.9-.3.8.8,0,0,1,0-.8,1.7,1.7,0,0,1,.6-.6c.3-.3,1.8-1.5,2.2-.9S15.3,7.9,14.9,8.2Z" style="fill:#d18d4a"/><path d="M14.9,7.9l-.8.5a.7.7,0,0,1-.8-.2.6.6,0,0,1,.1-.7,1.2,1.2,0,0,1,.5-.5c.3-.2,1.8-1.3,2.1-.9S15.2,7.6,14.9,7.9Z" style="fill:#db9b53"/><path d="M12.7,6.9a1.1,1.1,0,0,1-1.1.3,1.5,1.5,0,0,1-.8-1.1,1,1,0,0,1-.2-.9,1.2,1.2,0,0,1,.5-.5c.3-.2.5-.4.8-.4a1.1,1.1,0,0,1,.9.6,2.1,2.1,0,0,1,.6,1A1.4,1.4,0,0,1,12.7,6.9Z" style="fill:#d18d4a"/><path d="M12.6,6.6a1.3,1.3,0,0,1-1,.3,2.3,2.3,0,0,1-.8-.9,1.4,1.4,0,0,1-.1-.9l.5-.5.7-.3a1.1,1.1,0,0,1,.9.5c.1.2.5.6.5.9A3.1,3.1,0,0,1,12.6,6.6Z" style="fill:#db9b53"/><path d="M11.9,3.5l-1,.4h-.5a.3.3,0,0,1,0-.4c0-.1.1-.2.2-.3a3.1,3.1,0,0,1,2-1.1h.8c.6.2.5.6,0,.8Z" style="fill:#d18d4a"/><path d="M11.9,3.3a3.2,3.2,0,0,1-.9.3h-.4c-.1,0-.1-.2-.1-.3l.3-.3A3.1,3.1,0,0,1,12.6,2a.8.8,0,0,1,.7,0c.6.1.5.4.1.6Z" style="fill:#db9b53"/><path d="M9.2,9.9a.8.8,0,0,0,.2.8,1,1,0,0,0,.9-.1l1.3-.4a3.6,3.6,0,0,0,1.1-.4c.1-.2.2-.4,0-.6h0a1.2,1.2,0,0,0-1,0H10.6l-.8.2h0C9.5,9.6,9.3,9.7,9.2,9.9Z" style="fill:#d18d4a"/><path d="M9.8,9.4c-.2.1-.3.3-.4.4a.8.8,0,0,0,.1.7,1,1,0,0,0,.9,0l1.2-.4a3,3,0,0,0,1-.4c.2-.2.2-.3.1-.5h0a1.2,1.2,0,0,0-1,0H10.6l-.8.2Z" style="fill:#db9b53"/><path d="M9.6,8.6H9a1.8,1.8,0,0,1-.7-.5c-.2-.3-.4-.5-.4-.8a.8.8,0,0,1,.2-.6l.5-.5L9,6.1h.5l.2.3a8.6,8.6,0,0,1,1,1.6C10.8,8.5,10,8.5,9.6,8.6Z" style="fill:#d18d4a"/><path d="M9.6,8.4H9L8.4,8A1.3,1.3,0,0,1,8,7.3a1.4,1.4,0,0,1,.2-.6l.5-.4L9,6.1h.5l.2.3a4.2,4.2,0,0,1,.9,1.4C10.7,8.3,10,8.4,9.6,8.4Z" style="fill:#db9b53"/><path d="M8.9,5.5H8.7a.1.1,0,0,1-.2,0c-.1-.1,0-.3,0-.3l.6-.9A.7.7,0,0,1,9.6,4a.5.5,0,0,1,.5.7A5,5,0,0,1,8.9,5.5Z" style="fill:#db9b53"/><path d="M7.2,10.6l-.6.2c-.4,0-.7-.4-.9-.7A1.7,1.7,0,0,1,5.4,9c0-.3.2-.4.3-.6l.7-.6A.9.9,0,0,1,7,7.5c.3.1.4.3.5.6l.4.9a2.6,2.6,0,0,1,.3.8C8.2,10.3,7.5,10.4,7.2,10.6Z" style="fill:#d18d4a"/><path d="M7.1,10.3l-.5.2a.8.8,0,0,1-.8-.7c-.2-.3-.4-.6-.3-.9a.9.9,0,0,1,.3-.6l.6-.5A.9.9,0,0,1,7,7.5a1,1,0,0,1,.4.5l.4.8a1.9,1.9,0,0,1,.3.8C8.1,10,7.4,10.2,7.1,10.3Z" style="fill:#db9b53"/><path d="M5.6,7.4l-.4.3H4.6a.4.4,0,0,1-.3-.4.7.7,0,0,1,.2-.6,1.5,1.5,0,0,1,1.3-.5L6.9,6c.3-.1.6-.1.7.2s-.1.4-.2.5l-.8.2A2.4,2.4,0,0,0,5.6,7.4Z" style="fill:#db9b53"/><path d="M5.2,12.3a.6.6,0,0,0,.4.7.8.8,0,0,0,.8-.3l1.1-.8c.2-.1.6-.3.5-.6H8c-.3-.3-1.7.4-2.1.5l-.2.2A1,1,0,0,0,5.2,12.3Z" style="fill:#d18d4a"/><path d="M5.7,11.9a.3.3,0,0,0-.3.3.4.4,0,0,0,.3.6l.8-.3,1-.7c.2-.2.5-.3.5-.6s-1.7.4-2.1.5Z" style="fill:#db9b53"/><path d="M4.3,11.7a1,1,0,0,1-.8-.5,2,2,0,0,1-.4-.8,5.3,5.3,0,0,1-.3-1.2,1.5,1.5,0,0,1,.6-.9,1.1,1.1,0,0,1,1.1.3,2,2,0,0,1,.4.8c.2.4.6,1.1.5,1.5A1.5,1.5,0,0,1,4.3,11.7Z" style="fill:#d18d4a"/><path d="M4.3,11.4a.8.8,0,0,1-.7-.4,3,3,0,0,1-.4-.8,2,2,0,0,1-.3-1.1c.1-.3.3-.7.6-.8a1.2,1.2,0,0,1,1,.2,2,2,0,0,1,.4.8c.1.4.5,1,.4,1.4S4.6,11.5,4.3,11.4Z" style="fill:#db9b53"/><path d="M2,12.1a.5.5,0,0,0-.2.6,1,1,0,0,0,.6.5,2.9,2.9,0,0,0,1.6.4h.6c.1-.1,0-.2,0-.3l-.4-.3-1.5-.7a.9.9,0,0,0-.7-.1Z" style="fill:#d18d4a"/><path d="M2,12.1c-.2.1-.2.4-.1.6a1,1,0,0,0,.5.4,2.8,2.8,0,0,0,1.5.4c.2,0,.6,0,.7-.2h0l-.4-.3-1.5-.7A.9.9,0,0,0,2,12.1Z" style="fill:#db9b53"/><path d="M1.7,10.9a.7.7,0,0,1,.1-.6L2,9.6s0-.2.1-.2.2.1.2.3.5,1,.3,1.3S1.8,11.2,1.7,10.9Z" style="fill:#db9b53"/><path d="M18.2,16.9c.1,1.8,2.5,3.1,5.4,2.8s4-1.2,4.6-2.6h0a2.1,2.1,0,0,0,.1-1.1c-.1-1.8-2.4-3-5.1-2.9H23C20.2,13.4,18,15,18.2,16.9Z" style="fill:#c16131"/><path d="M23.2,13.1h0c2.3-.1,4.3.7,4.9,2.1s.8,0,.8.3a1.4,1.4,0,0,1-.6.9,1.7,1.7,0,0,1-.1.7h0A5.7,5.7,0,0,1,24,19.2c-2.6.2-4.9-1-5-2.6S20.7,13.4,23.2,13.1Z" style="fill:#cf743d"/><path d="M21.7,13.8c-.2.1-.4.1-.5.3a.5.5,0,0,0-.3.5.6.6,0,0,0,.6.5,1.4,1.4,0,0,0,.9-.1l1.6-.3h.7c.2,0,.5.1.7-.1s-1.9-.8-2.2-.8A3.8,3.8,0,0,0,21.7,13.8Z" style="fill:#daa385"/><path d="M26.6,14.8l-.2.2h-.2l-.3-.2c-.2-.2,0-.4.2-.4S26.8,14.6,26.6,14.8Z" style="fill:#daa385"/><path d="M23.6,13.1h2.5l.5.2c0,.1.1.1.2.2l.5.3a.1.1,0,0,1,.1.1c.2.1.3.3.4.4v.2l.2.3h.2c.3,0,.6,0,.6.3a1.4,1.4,0,0,1-.6.9h0c0,.2-.1.3-.1.5h0c-.6,1.4-2.4,2.4-4.6,2.6h-.7c-2.5,0-4.6-1.3-4.7-2.9s2-3.5,4.8-3.8h.6m0-1h-.7c-3.4.3-5.9,2.4-5.7,4.9s2.6,3.8,5.7,3.8h.7a6.5,6.5,0,0,0,5.5-3.2c.1-.2.1-.4.2-.6a2.5,2.5,0,0,0,.6-1.5,1.3,1.3,0,0,0-1.2-1.2h-.1l-.6-.6h-.1l-.6-.4H27l-.5-.3h-.4l-.5-.2h-2Z" style="fill:#924f28"/></g></g></g></svg>