<svg xmlns="http://www.w3.org/2000/svg" xmlns:xlink="http://www.w3.org/1999/xlink" viewBox="0 0 57.1 77.1"><defs><clipPath id="clip-path"><polygon points="10 52.9 13 9.5 41.9 9.5 38.9 52.9 10 52.9" style="fill:#31aabf"/></clipPath></defs><g style="isolation:isolate"><g id="Layer_2" data-name="Layer 2"><g id="Layer_1-2" data-name="Layer 1"><polygon points="37.6 57.3 55.5 57.3 52.5 14.5 34.6 14.5 37.6 57.3" style="fill:#af7553;stroke:#924f28;stroke-miterlimit:10;stroke-width:3px"/><polygon points="51.6 3 10 3 6.1 59.4 47.6 59.4 51.6 3" style="fill:#a3541a"/><polygon points="48.7 3 7.1 3 3.2 59.4 44.8 59.4 48.7 3" style="fill:#ce894a"/><polygon points="8.2 54.5 11.5 7.8 43.7 7.8 40.4 54.5 8.2 54.5" style="fill:#fff0dd"/><polygon points="10 52.9 13 9.5 41.9 9.5 38.9 52.9 10 52.9" style="fill:#31aabf"/><g style="clip-path:url(#clip-path)"><path d="M27.5,41s1.7-.4,2.1.1-.3,1.6-.6,1.7-1.2-.5-1.2-.5Z" style="fill:#eba87f"/><path d="M10.6,64a44.9,44.9,0,0,0,.3,12.6s.6.1.6,0,1.5-10.4,1.7-12S10.6,64,10.6,64Z" style="fill:#ffc393"/><path d="M16.1,63.8c-.4,5.7,2.1,12.4,2.1,12.4l1-.4s-.8-9.1-.3-12.3S16.1,63.8,16.1,63.8Z" style="fill:#ffc393"/><path d="M20.1,63.7a4.8,4.8,0,0,1-3.4,1.6,6.8,6.8,0,0,1-2-.2h-.3l.2-.9,1.3-11.3V51.7h.6l3.2-.7s0,.5-.1,1.4v2.5a74.9,74.9,0,0,0,.3,8.3C20,63.3,20.1,63.5,20.1,63.7Z" style="fill:#795094"/><path d="M20.1,63.7A5.4,5.4,0,0,1,14.4,65l.2-.9a7,7,0,0,0,5.4-1C20,63.3,20.1,63.5,20.1,63.7Z" style="fill:#4d2f82"/><g style="opacity:0.30000000000000004;mix-blend-mode:screen"><path d="M20,63.1a74.9,74.9,0,0,1-.3-8.3c-.4-.7-.7-1-1.2-.6s-1.8,8.4-1.8,11.1a4.8,4.8,0,0,0,3.4-1.6C20.1,63.5,20,63.3,20,63.1Z" style="fill:#795094"/></g><path d="M16.6,51.5h0v2.6s-.2.9-.4,2.3h0c-.4,2.3-.9,6-1.2,8.2,0,.2-.1.3-.1.4v.4a5.6,5.6,0,0,1-3.8.2,5.5,5.5,0,0,1-2.2-1.2,2.8,2.8,0,0,0,.1-.8c.4-2,1.2-7.4,1.4-8.8a27.7,27.7,0,0,0-.1-4c-.1-1-.2-1.8-.2-1.8Z" style="fill:#795094"/><path d="M19.7,52.3a18,18,0,0,1-3.2.5h-.6c-2.1,0-4.4-.5-5.8-1.9s-.2-1.8-.2-1.8l6.7,2.4h0l3.2-.7S19.8,51.4,19.7,52.3Z" style="fill:#4d2f82;opacity:0.2;mix-blend-mode:multiply"/><path d="M14.8,64.7a2.2,2.2,0,0,0-.1.8,5.7,5.7,0,0,1-6-1,2.8,2.8,0,0,0,.1-.8A6.3,6.3,0,0,0,14.8,64.7Z" style="fill:#4d2f82"/><path d="M21.7,38c.5,2.9.6,4.9,5.2,3.4.5.5,0,1.5-.9,2-3.8,2.2-7,.9-7.9-.2s2.3-5.7,2.3-5.7Z" style="fill:#eba87f"/><path d="M22.6,37.9c-.1.3-.4.5-.6.7a4.4,4.4,0,0,1-2.3.5v-1l-1.5-7.5.5-.5C20.9,31.8,22.1,34.5,22.6,37.9Z" style="fill:#c9cb43"/><path d="M22,38.6a4.4,4.4,0,0,1-2.3.5v-1c-.3-2.7-.5-6.3-.5-6.3S21.6,36.3,22,38.6Z" style="fill:#c9cb43;opacity:0.4;mix-blend-mode:multiply"/><path d="M20.2,51.2a5.4,5.4,0,0,1-2.3.7h-.2a12.7,12.7,0,0,1-3.4,0,4.8,4.8,0,0,1-2.2-.5A3.8,3.8,0,0,1,9.8,49a48.7,48.7,0,0,0,2-7.4c.1-.5.1-1.1.2-1.8.5-3.4,1.2-8.5,1.2-8.5l1.2-1.6,3.8.6a11,11,0,0,1,2.5,7c0,.8,0,3.1-.1,5.6,0,.7-.1,1.4-.1,2C20.4,48.2,20.2,51.2,20.2,51.2Z" style="fill:#c9cb43"/><path d="M20.5,44.9c-1.4.2-7.1,1.3-8.4,6.5A3.8,3.8,0,0,1,9.8,49a48.7,48.7,0,0,0,2-7.4c.1-.5.1-1.1.2-1.8l1.6,1.4,7,1.7C20.6,43.6,20.5,44.3,20.5,44.9Z" style="fill:#c9cb43;opacity:0.4;mix-blend-mode:multiply"/><g style="opacity:0.4;mix-blend-mode:multiply"><path d="M18.2,47.7a40.6,40.6,0,0,0-.3,4.2h-.2c0-.9.2-2.4.3-4.2s.6-5.9.6-8.1a31.8,31.8,0,0,0-1.3-8.8v-.3h.1v.3a31.3,31.3,0,0,1,1.3,8.8C18.8,41.8,18.5,44.9,18.2,47.7Z" style="fill:#c9cb43"/></g><path d="M10.8,41.5c1.1,1.3,5.8-3,5.2-3.8S10,39.3,10.8,41.5Z" style="fill:#809c2d"/><path d="M25.5,41.9c-1.9,1.7-6.2,3-9.6,2.4s-3.6-1.5-4.1-3.4l-.3-2.2,1.4-1.9,1.2-1.7a3.2,3.2,0,0,0,.1,1.3,5.5,5.5,0,0,0,1,2.3,6.5,6.5,0,0,0,2.6,2.2,8.1,8.1,0,0,0,7.2.2S25.6,41.4,25.5,41.9Z" style="fill:#ffc393"/><path d="M15.2,38.7a3.8,3.8,0,0,0-3.4,2.2l-.3-2.2,1.4-1.9,1.3-.4A5.5,5.5,0,0,0,15.2,38.7Z" style="fill:#eba87f"/><path d="M15.7,25.1a25.3,25.3,0,0,1-.8,3.8S17,31.2,17.5,31s1-2.3,1-2.3Z" style="fill:#eba87f"/><polygon points="19.2 75.8 20.5 76.2 19.7 76.8 18.6 76.8 18.1 76.3 18.3 75.7 19.2 75.8" style="fill:#ffc393"/><polygon points="11.8 75.8 13.2 76.2 12.3 76.8 11.3 76.8 10.8 76.3 11 75.7 11.8 75.8" style="fill:#ffc393"/><path d="M16,37.7a3.5,3.5,0,0,0-2.2.2,5,5,0,0,0-3,3.6c-1.3-2.6,0-8.1,1-9.4a10.9,10.9,0,0,1,2.6-2.4l.4,3.6v1.3A17.5,17.5,0,0,1,16,37.7Z" style="fill:#c9cb43"/><path d="M17.5,31l-.9,1a24,24,0,0,1-2.4-2.2,2.3,2.3,0,0,1,.7-1.1A30.3,30.3,0,0,1,17.5,31Z" style="fill:#e3e657"/><path d="M17.5,30.7l1,.9a4.6,4.6,0,0,0,.4-1.5c0-.2-.8-.8-.8-.8Z" style="fill:#e3e657"/><path d="M16,37.7a3.5,3.5,0,0,0-2.2.2c-.3-2.8,0-4.8,1-4.6v1.3A17.5,17.5,0,0,1,16,37.7Z" style="fill:#c9cb43;opacity:0.2;mix-blend-mode:screen"/><path d="M15.3,17.4s3.9-2.2,4.6-2.2,2.6.9,2.9,1.6,0,7.2,0,7.2l-2.1,1.4-4.4-1.9Z" style="fill:#ffc393"/><path d="M21.8,30.1c-.6.3-4.6-1.2-5.3-2.4A14.5,14.5,0,0,1,15,23.1L14.5,21a7.6,7.6,0,0,1-.3-3.1c.3-.7,1.8-.7,1.8-.2,0,3.5.6,5.7,1.1,5.9s5.4-.1,5.7-.1A4.7,4.7,0,0,1,24,25.4a2.2,2.2,0,0,1,.3,1C24.3,27.5,22.5,29.8,21.8,30.1Z" style="fill:#fff0dd"/><path d="M21.8,30.1c-.6.3-4.6-1.2-5.3-2.4A14.5,14.5,0,0,1,15,23.1L14.5,21c.5,1.4,2,5.5,2.9,6.2s5.7.1,6.4-.6a1.6,1.6,0,0,0,.2-1.2,2.2,2.2,0,0,1,.3,1C24.3,27.5,22.5,29.8,21.8,30.1Z" style="fill:#f5e5c4;opacity:0.5;mix-blend-mode:multiply"/><path d="M15.6,22.6c-.3-.8-1.4-.6-1.8-.2a2.7,2.7,0,0,0,.8,2.6C15.2,25.5,16.5,25,15.6,22.6Z" style="fill:#ffc393"/><path d="M20.1,26.5l-.7-.2a1,1,0,0,1-.4-.5c-.1-.1-.1-.3-.2-.4s.3-.1.3-.2-.9-.3-.9,0,.1.2.3.2a.9.9,0,0,0,.3.6,1.2,1.2,0,0,0,.5.5h.8l.7-.2Z" style="fill:#ed8869"/><path d="M17.6,21.7a3,3,0,0,1,1.7-.5v.3A8.1,8.1,0,0,0,17.6,21.7Z" style="fill:#272f44"/><path d="M20.8,21.5a1.5,1.5,0,0,1,1.2-.4v.3Z" style="fill:#272f44"/><path d="M20.5,20.9c0,.1-.3,1.1.1,1.5s1.5.4,1.4,1.3-1.9,1.2-2.5-.1S20.5,20.9,20.5,20.9Z" style="fill:#ffc393"/><path d="M20.5,20.9v.9a.7.7,0,0,0,.4.6l.7.3c.2.1.3.1.4.3a.5.5,0,0,1,.3.5v.2c0,.1-.1.2-.1.3h-.1v.2l-.2.2h-.9a1.2,1.2,0,0,1-.9-.3,1,1,0,0,1-.5-.7,2.9,2.9,0,0,0,1.4.7,1.3,1.3,0,0,0,.8-.2h.1c0-.1,0-.1.1-.1h0v-.4c-.1-.3-.3-.4-.5-.6l-.8-.3a1.1,1.1,0,0,1-.3-.8C20.4,21.5,20.5,21.2,20.5,20.9Z" style="fill:#e0875e"/><path d="M18.8,21.9c-.1.3-.3.5-.5.5s-.3-.3-.3-.6.3-.5.5-.5S18.8,21.6,18.8,21.9Z" style="fill:#272f44"/><path d="M21.6,21.9a.5.5,0,0,1-.4.5c-.2,0-.3-.3-.2-.6a.5.5,0,0,1,.4-.5C21.6,21.3,21.7,21.6,21.6,21.9Z" style="fill:#272f44"/><path d="M17.3,20.8c.3.4,2.5-.6,2.7-.9s-.1-.9-.3-1.2-2.3.9-2.5,1S17.2,20.7,17.3,20.8Z" style="fill:#fff0dd"/><path d="M21.3,18.7a1.9,1.9,0,0,0-.2,1.3,3.3,3.3,0,0,0,2,.4,1.2,1.2,0,0,0,.3-1.1C23.3,19,21.5,18.6,21.3,18.7Z" style="fill:#fff0dd"/><path d="M15.6,54c-1.4-.5-4.2,2.7-4.7,11.7a5.6,5.6,0,0,0,3.8-.2,2.2,2.2,0,0,1,.1-.8c.3-2.2.8-5.9,1.2-8.2h0C16.1,55.1,16,54.2,15.6,54Z" style="fill:#795094;opacity:0.4;mix-blend-mode:screen"/><path d="M18.1,76.3v.6s2.5.4,3.2,0-.5-1.1-.9-1l-1,.7Z" style="fill:#4387b2"/><path d="M10.8,76.3v.6s2.5.4,3.2,0-.5-1.1-.9-1l-1,.7Z" style="fill:#4387b2"/><path d="M25,41.1a6.6,6.6,0,0,1,2-.7c.5.1,1.6,1.7,1.6,1.9a.4.4,0,0,1-.2.4l-1.7-1.6-1.8.4Z" style="fill:#ffc393"/><path d="M27.2,41.1c.1.1,1.6,1.5,1.2,2s-2.3-2-2.3-2A.7.7,0,0,1,27.2,41.1Z" style="fill:#ffc393"/><path d="M25.5,41.9a1,1,0,0,0,.8.2s1.3,1.2,1.6.8-1.4-1.7-1.6-1.8a4.3,4.3,0,0,0-1.1.4Z" style="fill:#ffc393"/><path d="M31.7,73.2v.7h-.5c-.2,0-.9-4.8-1.8-8.1a8.8,8.8,0,0,1-.5-1.5s3.1-1,3.3-.1S31.9,71.1,31.7,73.2Z" style="fill:#eba87f"/><path d="M31.7,73.2v.7h-.5c-.2,0-.9-4.8-1.8-8.1C30.5,66.5,31.4,71.2,31.7,73.2Z" style="fill:#ffc393"/><path d="M34.7,63.9s-.1,1.4-.5,4.1a31.6,31.6,0,0,1-1.9,6.1h-.4L31,65.5v-1Z" style="fill:#ffc393"/><path d="M34.7,63.9s-.1,1.4-.5,4.1a31.6,31.6,0,0,1-1.9,6.1h0a26.5,26.5,0,0,0,1.2-5.3c.2-2.9-.9-4.2-2.5-3.3v-1Z" style="fill:#eba87f"/><path d="M32.2,31.6a.3.3,0,0,0-.1.2l-.9,2.7-.8,2.3a1.5,1.5,0,0,1-1.2.5l-.6-.3a21.4,21.4,0,0,1,1.1-3.1A4.1,4.1,0,0,1,32.2,31.6Z" style="fill:#6dbfae"/><path d="M28.2,37.8a15.3,15.3,0,0,1-5.4,6.6c0,.2.3.4.3.4s3.6-.1,5.4-2.9a42.8,42.8,0,0,0,2.3-4Z" style="fill:#ffc393"/><path d="M29.5,37.4a5,5,0,0,0-1.3-.7,1,1,0,0,0,.7,1.8C30.5,38.8,29.5,37.4,29.5,37.4Z" style="fill:#b3e6db"/><path d="M32.6,30.4v2l.6-.4.5.2,1.1-.9V28.7Z" style="fill:#eba87f"/><path d="M39.4,42.2c0,.9-1.4,10.2-1.8,13.8a61.8,61.8,0,0,1-1.7,8.2,31.4,31.4,0,0,1-4,.5c-1.8.2-3.7.1-4.1-.5.2-3.6-1.9-9-.3-20.2a22.3,22.3,0,0,1,.4-2.3S39.5,41.3,39.4,42.2Z" style="fill:#996250"/><path d="M39.4,42.2c0,.9-1.4,10.2-1.8,13.8a61.8,61.8,0,0,1-1.7,8.2,31.4,31.4,0,0,1-4,.5c.2-2.5,1.4-10.7.4-16.1s-2.5-5.8-4.8-4.6a22.3,22.3,0,0,1,.4-2.3S39.5,41.3,39.4,42.2Z" style="fill:#996250;opacity:0.4;mix-blend-mode:multiply"/><path d="M38.7,38.3a28.7,28.7,0,0,1-.4,3.4c-.3,1.1-5.3,1.8-7.8,1.6s-3.1-1.2-2.9-2.2a.3.3,0,0,0,.1-.2c.4-.8,1-2.3,1.5-3.6s.3-1,.5-1.4a7,7,0,0,1,.6-1.7,4.5,4.5,0,0,1,1.8-2.4h0l1.1.2.7.3,1.9-.9a7.6,7.6,0,0,1,2.9,1.1,2.7,2.7,0,0,1,.2,1.1v2.8C38.8,37,38.8,37.7,38.7,38.3Z" style="fill:#6dbfae"/><path d="M38.3,41.7c-.3,1.1-5.3,1.8-7.8,1.6s-3.1-1.2-2.9-2.2c.9,1.4,7.3.2,8-.3s1.3-5.2,1.3-5.2a7,7,0,0,1,2,.8C38.7,38.6,38.4,41,38.3,41.7Z" style="fill:#6dbfae;opacity:0.4;mix-blend-mode:multiply"/><path d="M40.4,37.5a4.4,4.4,0,0,1-1.7.8,4.4,4.4,0,0,1-1.9.3,32,32,0,0,1,0-4.5h0a1.6,1.6,0,0,1,1.9-1.5,2.1,2.1,0,0,1,.8,1A9.3,9.3,0,0,1,40.4,37.5Z" style="fill:#6dbfae"/><polygon points="38.1 42.6 37.7 44.9 38.7 44.9 39.1 42.3 38.1 42.6" style="fill:#c2622d"/><path d="M39.5,33.5h-.6l-2.1.5a22.4,22.4,0,0,1-5.6.4l-.9-.3-.6-.3a4.1,4.1,0,0,1,2.5-2.3.3.3,0,0,0-.1.2l1.1.2.7.3,1.9-.9a7.6,7.6,0,0,1,2.9,1.1A2.1,2.1,0,0,1,39.5,33.5Z" style="fill:#6dbfae;opacity:0.30000000000000004;mix-blend-mode:screen"/><path d="M34.6,45.3c-.9-5.3,1.9-12.8,2.7-13.5-1.3.5-3.2,4.3-3.8,9a30.9,30.9,0,0,0-.6,5.4Z" style="fill:#6dbfae;opacity:0.30000000000000004;mix-blend-mode:multiply"/><path d="M38.6,55.3a2.4,2.4,0,0,1-1.2,1.4,14,14,0,0,1-5.6.9h-.5c-1.1-.9-.9-9.7.5-11.1l.4-.4a6.5,6.5,0,0,1,3.4-1.4h2l1.3.4a32.1,32.1,0,0,1-.1,4.1C38.7,51.1,38.7,54.7,38.6,55.3Z" style="fill:#d6753f"/><path d="M38.6,55.3a2.4,2.4,0,0,1-1.2,1.4,14,14,0,0,1-5.6.9c1.6-2.7,1.3-11.2,1.3-11.2l2.5-1.8h2l1.3.4a32.1,32.1,0,0,1-.1,4.1C38.7,51.1,38.7,54.7,38.6,55.3Z" style="fill:#d6753f;opacity:0.4;mix-blend-mode:multiply"/><path d="M36.3,51.8c-2.4,1.4-2.8-4.6-2.9-5.1h0c0-.4-.3-.7-1.2-.7,1.6-1.4,3.6-1.3,4.5-1.5h0c.6,0,1.6.3,1.8,1a.3.3,0,0,1,.1.2C38.6,46.8,38.7,50.3,36.3,51.8Z" style="fill:#e68a57"/><path d="M36.3,51.8c-2.4,1.4-2.8-4.6-2.9-5.1,1.6.4,3.6-.4,5.1-1.2a.3.3,0,0,1,.1.2C38.6,46.8,38.7,50.3,36.3,51.8Z" style="fill:#d6753f"/><path d="M36.3,50.6c-.1.3-.3.5-.4.4s-.3-.2-.2-.5a.4.4,0,0,1,.4-.4C36.3,50.1,36.3,50.4,36.3,50.6Z" style="fill:#f7d683"/><path d="M23.1,44.3a4.7,4.7,0,0,0-1.6.2c-.2.1-.3.9-.1,1s.4.1.5,0,.3-.6.4-.7l.9-.3C23.3,44.4,23.1,44.3,23.1,44.3Z" style="fill:#ffc393"/><path d="M31.7,74.4v.4h-.3v-.2l-.3.2h-1l.4-.4a1.1,1.1,0,0,1,.6,0v-.6h.8v.4h-.1Z" style="fill:#522b3c"/><path d="M32.4,74.3v.5h-.2v-.2l-.3.2h-1l.4-.4a.5.5,0,0,1,.5,0h.1v-.6h.9Z" style="fill:#80435e"/><path d="M39.5,28.9c-.9,2.1-4.1,2.2-6.3,1a2.7,2.7,0,0,1-.8-.7c-1.7-2.1-2.6-6.8-2.6-6.8s-2-1.5-1.8-2.3,1.9-.5,1.9-.5-.4-3.9,1.3-4.2S35.3,18,35.3,18s.7-1.2,1.3-.8.6,2.6.6,2.6h0s.7-.9,1.5-.5.9,3-.2,4.7C40.2,24.3,40.5,26.7,39.5,28.9Z" style="fill:#fff0dd"/><path d="M39.5,28.9c-.9,2.1-4.1,2.2-6.3,1a2.7,2.7,0,0,1-.8-.7l-.6-1.1,4.3-4.4c1.2,1.9,2.2.1,2.6-1.2s.4-3.8-1.5-2.7c0,0,.7-.9,1.5-.5s.9,3-.2,4.7C40.2,24.3,40.5,26.7,39.5,28.9Z" style="fill:#f5e5c4;opacity:0.5;mix-blend-mode:multiply"/><path d="M30.3,21.5c-1.4,1-1.3,3.3-1.5,4s-.8,1-.9,2.2a2.7,2.7,0,0,0,2.8,3.2c2.2.1,4.4-.7,4.6-3.8s.1-5.4-1.7-6A3.7,3.7,0,0,0,30.3,21.5Z" style="fill:#ffc393"/><path d="M32.2,22.4a4.4,4.4,0,0,0,1.6.6A3.4,3.4,0,0,0,32.2,22.4Z" style="fill:#fff0dd"/><path d="M30.4,22.5c.1.1-1.2.7-1.3.5S30.3,22.3,30.4,22.5Z" style="fill:#fff0dd"/><path d="M31.9,25.3a.8.8,0,0,1,1.1.2C32.8,24.6,31.7,25,31.9,25.3Z" style="fill:#272f44"/><path d="M29.7,25.3s-.3-.4-.7.2S29.8,25,29.7,25.3Z" style="fill:#272f44"/><path d="M32.6,27.9q-.6-.3-.6-.6c-.1.2,0,.3,0,.3l-.3.3-.4.3-.4.2h.5l.4-.2.3-.3Z" style="fill:#ed8869"/><polygon points="35.8 24.8 35.8 24.9 34 25.4 34 25.2 35.8 24.8" style="fill:#bf648d"/><path d="M36.7,27.9c-1.3.7-2.1-.6-2-1.7v-.3c.3-1.1.9-2.2.4-3.7.4.1,1.6,2.2,2,3.9S37.2,27.6,36.7,27.9Z" style="fill:#fff0dd"/><path d="M32.7,23.5a1.7,1.7,0,0,0-1.6,1.6,1.5,1.5,0,0,0,1.4,1.7,1.7,1.7,0,0,0,1.6-1.7A1.4,1.4,0,0,0,32.7,23.5Zm-.2,3.1a1.3,1.3,0,0,1-1.2-1.5,1.5,1.5,0,0,1,1.4-1.5A1.4,1.4,0,0,1,34,25.1,1.6,1.6,0,0,1,32.5,26.6Z" style="fill:#bf648d"/><path d="M34,25.1a1.6,1.6,0,0,1-1.5,1.5,1.3,1.3,0,0,1-1.2-1.5,1.5,1.5,0,0,1,1.4-1.5A1.4,1.4,0,0,1,34,25.1Z" style="fill:#78daff;opacity:0.30000000000000004"/><path d="M29.2,23.5c-.6,0-1.1.7-1.2,1.6s.4,1.7,1,1.7,1.1-.7,1.2-1.7S29.8,23.5,29.2,23.5ZM29,26.6c-.6,0-.9-.6-.9-1.5s.6-1.5,1.1-1.5.9.7.9,1.5S29.5,26.6,29,26.6Z" style="fill:#bf648d"/><path d="M30.1,25.1c-.1.9-.6,1.5-1.1,1.5s-.9-.6-.9-1.5.6-1.5,1.1-1.5S30.1,24.3,30.1,25.1Z" style="fill:#78daff;opacity:0.30000000000000004"/><path d="M30.1,25.1c.4-.3,1-.2,1.1,0v.2s-.4-.5-1.1,0Z" style="fill:#bf648d"/><path d="M30.3,26.2l-.4.2a.1.1,0,0,0-.1.1v.2l.3.2h-.3v-.2c-.1-.1-.1-.3,0-.3s.1-.2.2-.3Z" style="fill:#e0875e"/><path d="M36.7,27.9c-1.3.7-2.1-.6-2-1.7.1.7.6.9,1.2.9s1.2-.2,1.2-1C37.3,26.9,37.2,27.6,36.7,27.9Z" style="fill:#f5e5c4;opacity:0.5;mix-blend-mode:multiply"/><path d="M33.2,32a2.2,2.2,0,0,0,1.6-1.3s1.2.1,1.2.7a2,2,0,0,1-1.9,1.7C32.8,33.1,33.2,32,33.2,32Z" style="fill:#b3e6db"/><path d="M33.2,32s-.7,1.1-1.3.7.6-1.7.6-1.7S32.6,31.9,33.2,32Z" style="fill:#b3e6db"/><path d="M38,39.2l.2,1.4-4.3,2v.9s5.7-.1,6.8-2-.3-3.4-.3-3.4Z" style="fill:#ffc393"/><path d="M36.8,38.1s-1.1,2.3,2,1,1.6-1.9,1.6-1.9A4.7,4.7,0,0,1,36.8,38.1Z" style="fill:#b3e6db"/><path d="M36.8,31.4c-1.7.6-3.4,6.5-4.1,10.6-.3,2.1-.9,4.6-.8,4.8h1.2a75,75,0,0,1,1.2-7.7c.8-3.5,1.7-7.1,3.5-7.4C37.9,31.4,36.8,31.4,36.8,31.4Z" style="fill:#d6753f"/><path d="M33.9,42.6l-1.5-.5c-.2.1-.1.5-.1.5a.4.4,0,0,0-.2.3c.1.2.2.2.2.2s-.2.3-.1.5a.3.3,0,0,0,.1.2s.2.3.3.3l1.2-.6Z" style="fill:#ffc393"/><path d="M22.4,44.6l-.8.5c-.2.2.1.4.4.1s.5,0,.8-.1a.4.4,0,0,0,.3-.4v-.2Z" style="fill:#ffc393"/></g><path d="M51.6,3l-4,56.4H3.2L7.1,3H51.6m3.2-3H4.3L4.1,2.8.2,59.2,0,62.4H50.4l.2-2.8,4-56.4L54.8,0Z" style="fill:#924f28"/><g id="_2" data-name="2"><polygon points="12.7 9.5 42 9.5 39 53 9.7 53 12.7 9.5" style="fill:#c6c03a;fill-rule:evenodd"/><path d="M17.7,11.8H36.6a2.5,2.5,0,0,1,2.6,2.7L36.9,48a3,3,0,0,1-3,2.7H15A2.5,2.5,0,0,1,12.4,48l2.4-33.5a2.9,2.9,0,0,1,2.9-2.7Z" style="fill:#d1cc60;fill-rule:evenodd"/><path d="M26.6,17.1c6.2,0,10.7,7,10.1,15.6S30.6,48.2,24.5,48.2s-10.7-7-10.1-15.5,6.1-15.6,12.2-15.6Z" style="fill:#876e66;fill-rule:evenodd"/><path d="M29.9,39.4c-.6-1.3-2.2-1.4-1.6.5a3.7,3.7,0,0,0,1.9,1.8,7.5,7.5,0,0,0,1.2-2.1c.5-1.6-1.2-2.4-1.5-.2Z" style="fill:#c5979c;fill-rule:evenodd"/><path d="M36.3,35.6a5.9,5.9,0,0,1-4.8.9C28.2,35.6,23,26.1,23,26.1l3.4.6c2.3-2.4,3.3-3.3,6.5-4V20.1c2.5,2.9,4,7.4,3.7,12.6-.1,1-.3,1.9-.4,2.9Z" style="fill:#838956;fill-rule:evenodd"/><path d="M36.3,35.6a5.9,5.9,0,0,1-4.8.9,8.9,8.9,0,0,1-3.4-2.8A7,7,0,0,1,30,29.1a6.2,6.2,0,0,1,6.4-1.3,19.9,19.9,0,0,1,.3,4.9c-.1,1-.3,1.9-.4,2.9Z" style="fill:#fee283;fill-rule:evenodd"/><path d="M31.6,24.2a2.2,2.2,0,0,0-.7,3,2.1,2.1,0,0,0,2.9.5,2.1,2.1,0,0,0,.7-2.9,2.1,2.1,0,0,0-2.9-.6Z" style="fill:#fff;fill-rule:evenodd"/><path d="M27.9,26.8a2.2,2.2,0,0,0-.7,3,2.1,2.1,0,0,0,2.9.5,2.2,2.2,0,0,0,.7-3,2.1,2.1,0,0,0-2.9-.5Z" style="fill:#fff;fill-rule:evenodd"/><path d="M27.8,27.9a1.5,1.5,0,0,0-.5,2,1.3,1.3,0,0,0,1.9.3,1.4,1.4,0,0,0,.5-1.9,1.3,1.3,0,0,0-1.9-.4Z" style="fill:#231915;fill-rule:evenodd"/><path d="M31.6,25.1a1.5,1.5,0,0,0-.5,2,1.3,1.3,0,0,0,1.9.3,1.4,1.4,0,0,0,.5-1.9,1.3,1.3,0,0,0-1.9-.4Z" style="fill:#231915;fill-rule:evenodd"/><path d="M32.3,27.8l-.8-.3H31c.1,0-.3.6-.3,1v.4l1.4.8Z" style="fill:#f49c00;fill-rule:evenodd"/><path d="M19.5,46.5a6,6,0,0,0,2.9-.8c2.9-1.8,6.3-12,6.3-12l-3,1.5c-2.5-1.6-3.6-2.1-6.7-1.9l-.7-3.4c-1.5,3.1-3,5.7-3.4,9.1a14.2,14.2,0,0,0,4.6,7.5Z" style="fill:#ea5b3d;fill-rule:evenodd"/><path d="M19.5,46.5a6,6,0,0,0,2.9-.8,10.1,10.1,0,0,0,2.7-3.6,5.6,5.6,0,0,0-2.4-3.7c-2.6-1.4-5.4-.4-7.4,1.7a12.9,12.9,0,0,0,4.2,6.4Z" style="fill:#fbd9d9;fill-rule:evenodd"/><path d="M20.4,34.3a2,2,0,0,1,1.2,2.6,2.4,2.4,0,0,1-2.7,1.3,2,2,0,0,1-1.1-2.6,2.2,2.2,0,0,1,2.6-1.3Z" style="fill:#fff;fill-rule:evenodd"/><path d="M20.7,34.6a1.2,1.2,0,0,1,.8,1.6,1.6,1.6,0,0,1-1.8.9,1.2,1.2,0,0,1-.7-1.7,1.3,1.3,0,0,1,1.7-.8Z" style="fill:#231915;fill-rule:evenodd"/><path d="M24.3,35.7a1.9,1.9,0,0,1,1.1,2.5,2,2,0,0,1-2.6,1.3A1.8,1.8,0,0,1,21.7,37a2.1,2.1,0,0,1,2.6-1.3Z" style="fill:#fff;fill-rule:evenodd"/><path d="M24.5,35.8a1.2,1.2,0,0,1,.7,1.7,1.4,1.4,0,0,1-1.7.9,1.4,1.4,0,0,1-.8-1.7,1.6,1.6,0,0,1,1.8-.9Z" style="fill:#231915;fill-rule:evenodd"/><path d="M20.4,37.8l.6-.4.5-.2c-.1,0,.3.5.4.9v.3l-1.2,1.1Z" style="fill:#f49c00;fill-rule:evenodd"/><path d="M26.4,14l-.3-.2a.4.4,0,0,0-.1.3s.3,1.1-1.9,3.4a.2.2,0,0,0-.2.2,3.5,3.5,0,0,0-2-.4,4.5,4.5,0,0,0-2.2.9,3.5,3.5,0,0,0,1.9.3,4.7,4.7,0,0,0,1.7-.4,13.4,13.4,0,0,1-3,2.1l-1.1-.6a5.9,5.9,0,0,0-2.4.3,2.4,2.4,0,0,0,2.8.8l-2,1a4,4,0,0,0-1.2-.4c-1-.3-1.4.1-1.4.1a1.6,1.6,0,0,0,.8.5c.3.2.9.1,1.4.1l-1.2.5a.1.1,0,0,1-.1.1H14.4a4.4,4.4,0,0,0-2.3,1,3.6,3.6,0,0,0,1.8.3,4.2,4.2,0,0,0,2-1H16c-.2.1-.3.3-.5.5a3.5,3.5,0,0,0-.4,1.7c2.2-1.1,2.5-2.4,2.5-2.9L19.7,21a3.5,3.5,0,0,0-.7,3.2s1.6-1.3,1.6-2.5V20.5a24.4,24.4,0,0,0,3.1-2.2L22.6,20a8.2,8.2,0,0,0-.4,3.4A4.8,4.8,0,0,0,24.4,20a3,3,0,0,0-.3-2c0-.1.1-.2.2-.3,2.4-2.4,2.1-3.7,2.1-3.7Z" style="fill:#d98c87"/><path d="M24.8,12.5c0-.1.1-.2.2-.1s.2.1.1.2-.5,1.1,1.5,3.4v.2a3.9,3.9,0,0,1,2.1-.4,4.5,4.5,0,0,1,2.1.9,4.1,4.1,0,0,1-2,.3,4.7,4.7,0,0,1-1.7-.4A14.6,14.6,0,0,0,30,18.7l1.2-.6a5.6,5.6,0,0,1,2.3.3,2.7,2.7,0,0,1-2.9.8l1.9,1.1a2.3,2.3,0,0,1,1.2-.5c1.1-.3,1.4.1,1.4.1a2.1,2.1,0,0,1-.8.6,7.5,7.5,0,0,1-1.5,0l1.1.5h1.7a3.8,3.8,0,0,1,2.1,1,4,4,0,0,1-1.8.3,3.8,3.8,0,0,1-1.9-1h0l.3.5c.4.5.2,1.7.2,1.7-2-1.1-2.2-2.4-2.2-2.9l-1.9-1.1a3.1,3.1,0,0,1,.3,3.2s-1.4-1.3-1.3-2.5a5,5,0,0,1,.3-1.2,16,16,0,0,1-2.8-2.2,17.8,17.8,0,0,1,.8,1.8,7.7,7.7,0,0,1-.1,3.3,4.3,4.3,0,0,1-1.8-3.4,4,4,0,0,1,.7-2l-.2-.3c-2.1-2.4-1.5-3.7-1.5-3.7Z" style="fill:#fff46f"/><path d="M20.9,29c-.3-1.2-1.7-1.5-1.4.2A2.7,2.7,0,0,0,20.8,31a6.6,6.6,0,0,0,1.3-1.6c.7-1.3-.6-2.2-1.2-.4Z" style="fill:#c5979c;fill-rule:evenodd"/><path d="M29.4,32.6s-.1-.1,0-.1a.1.1,0,0,1,.1-.1l.6.4v-.9h.2V33h0a.1.1,0,0,1-.1.1Z" style="fill:#fef5d7;fill-rule:evenodd"/><path d="M31,32c-.1,0-.1-.1,0-.1h.1l.6.4v-1h.1a.1.1,0,0,1,.1.1v1.1h-.1Z" style="fill:#fef5d7;fill-rule:evenodd"/><path d="M32.4,30.8c-.1,0-.1-.1,0-.1h.1l.6.4v-1h.1a.1.1,0,0,1,.1.1v1.1h-.1Z" style="fill:#fef5d7;fill-rule:evenodd"/><path d="M34.4,29.5v-.2h.1l.7.4v-.9c0-.1,0-.1.1-.1h0v1.1h0c0,.1-.1.1-.1,0Z" style="fill:#fef5d7;fill-rule:evenodd"/><path d="M30.7,34.3s-.1-.1,0-.1.1-.1.1,0l.6.4v-1h.1a.1.1,0,0,1,.1.1v1.1h-.1Z" style="fill:#fef5d7;fill-rule:evenodd"/><path d="M32.5,33h0a.1.1,0,0,1,.1-.1l.7.4v-.9h.1v1.1h0a.1.1,0,0,1-.1.1Z" style="fill:#fef5d7;fill-rule:evenodd"/><path d="M34.3,31.9h.1l.6.4v-.9h.2v1.1H35Z" style="fill:#fef5d7;fill-rule:evenodd"/><path d="M32.7,35.1h.1l.7.4v-1h.1v1h-.1Z" style="fill:#fef5d7;fill-rule:evenodd"/><path d="M34.6,34.2V34h.1l.6.4v-.9a.1.1,0,0,1,.1-.1c.1,0,.1,0,.1.1v1.1h0s-.1.1-.1,0Z" style="fill:#fef5d7;fill-rule:evenodd"/><path d="M18.1,39.8h.2l-.2.8.9-.3h.1c0,.1,0,.1-.1.2l-1,.3h-.2Zm-.8,2.1h.2l-.2.8.9-.3h.2c0,.1-.1.1-.1.2l-1.1.3h0c-.1,0-.1,0-.1-.1Zm1.8.8a.1.1,0,0,1,.2,0l-.2.8.9-.3h.1l-1.1.4h-.1ZM20.2,44h.1a.1.1,0,0,1,.1.1l-.2.8.9-.3a.1.1,0,0,1,0,.2l-1,.3H20Zm2.1-1.3a.1.1,0,0,1,.2,0l-.2.8.9-.3h.1c0,.1,0,.2-.1.2l-1,.3h-.1s-.1,0,0-.1Zm-1.4-.9H21c.1,0,.1,0,.1.1l-.2.8.9-.4h.1a.1.1,0,0,1-.1.1l-1,.4h-.1s-.1-.1,0-.1Zm-1.4-1h.2l-.2.8.9-.3h.1l-1.1.4h-.1Z" style="fill:#fef9f8;fill-rule:evenodd"/></g></g></g></g></svg>