<svg xmlns="http://www.w3.org/2000/svg" viewBox="0 0 55.7 25.3"><g id="Layer_2" data-name="Layer 2"><g id="Layer_1-2" data-name="Layer 1"><path d="M54,11.5c0-1-.9-1.5-2-2l-.6-.3A3.2,3.2,0,0,1,50,7.8a2,2,0,0,0-.8-.8,6.6,6.6,0,0,0-2.9-.8,2.1,2.1,0,0,1-1.7-.9l-1-1C41.8,3,39.1,4,37.1,3.1a25.9,25.9,0,0,0-2.9-1.4,6,6,0,0,0-3.5.5l-1.3.3a11.4,11.4,0,0,1-3.5,0l-1.3-.3a6,6,0,0,0-3.5-.5,15.7,15.7,0,0,0-2.9,1.4c-2,.9-4.8-.1-6.5,1.2a4.7,4.7,0,0,0-1,1A1.9,1.9,0,0,1,9,6.2,4.4,4.4,0,0,0,5.2,8,2.9,2.9,0,0,1,4.1,9.1l-.9.4c-1,.5-1.9,1-1.9,2s1,1.8.9,2.7-.3,1.1-.2,1.7a2.1,2.1,0,0,0,.6,1,8.3,8.3,0,0,0,2.7,1.2,4.7,4.7,0,0,1,1.2.7,8.1,8.1,0,0,1,1.2,1.4c1.5,1.7,4,1.7,6.4,1.8a11.8,11.8,0,0,1,3.9.8,18.7,18.7,0,0,0,4,1.3,20.7,20.7,0,0,0,5-.2h1.3a20.7,20.7,0,0,0,5,.2,18.7,18.7,0,0,0,4-1.3,11.7,11.7,0,0,1,3.8-.8c2.5-.1,5-.1,6.5-1.8a8.1,8.1,0,0,1,1.2-1.4,4.7,4.7,0,0,1,1.2-.7,7.7,7.7,0,0,0,2.6-1.2,1.7,1.7,0,0,0,.7-1c.1-.6-.2-1.1-.2-1.7S53.9,12.5,54,11.5Z" style="fill:#a7bfee"/><path d="M53.8,13.4c.1-1,1.2-1.9.8-3s-1.4-1.3-2.4-1.7-1.6-1.2-2.3-2-2-1-3.4-1.2A2.5,2.5,0,0,1,44.8,5a6.3,6.3,0,0,0-1.2-1.1A5.5,5.5,0,0,0,40,2.8a6.5,6.5,0,0,1-2-.2l-2-.8A6.5,6.5,0,0,0,32.3,1c-1.4.2-2.6.7-4,.9a9.9,9.9,0,0,1-4.2-.5,5.6,5.6,0,0,0-4.2.3l-1.7,1a4.7,4.7,0,0,1-2.4.5H14a3.7,3.7,0,0,0-2.1.6L10,5.4a5.3,5.3,0,0,1-2.2.8A4.1,4.1,0,0,0,5,7.7,6,6,0,0,1,2.9,9.1c-.7.4-1.4.7-1.7,1.3a1.9,1.9,0,0,0,.1,1.9,6.1,6.1,0,0,1,.5,1.2,5,5,0,0,1-.3,1.3,2,2,0,0,0,0,2.1,3.8,3.8,0,0,0,2,1,9.2,9.2,0,0,1,2.3.9c.7.5,1.1,1.1,1.7,1.6a5.7,5.7,0,0,0,2.1,1.3,10.9,10.9,0,0,0,3.1.3,11.9,11.9,0,0,1,3.3.4,24.6,24.6,0,0,1,2.9.9,11.2,11.2,0,0,0,6,.9l2.3-.3,2.2.2a20.6,20.6,0,0,0,3.5.2,14.7,14.7,0,0,0,6.5-1.2,6.1,6.1,0,0,1,2.4-.7,15.9,15.9,0,0,0,3.7-.6A5.7,5.7,0,0,0,48.3,20a4.9,4.9,0,0,1,1.5-1.3l1.5-.6a4.3,4.3,0,0,0,2.5-1.5C54.4,15.6,53.7,14.5,53.8,13.4ZM53.2,12a3.3,3.3,0,0,0-.4,1.4,4.5,4.5,0,0,0,.1,1.6,1.4,1.4,0,0,1-.3,1.5l-1.2.8a9.7,9.7,0,0,0-3.1,1.3,20,20,0,0,0-1.4,1.6,5.6,5.6,0,0,1-1.7.9c-2.5.9-3.4.2-6.3,1a17.4,17.4,0,0,1-5.1,1.2,10.8,10.8,0,0,1-3.1-.1,18.4,18.4,0,0,0-3.3-.3c-1.1,0-2.1.3-3.2.4a9.5,9.5,0,0,1-2.9-.2c-1.8-.4-3.5-1.2-5.3-1.6l-2.7-.4a9.9,9.9,0,0,1-3-.2c-1.8-.4-2.5-1.8-3.7-2.7a5.6,5.6,0,0,0-1.9-.9,5.3,5.3,0,0,1-2.2-.8c-.6-.6,0-1.5.2-2.1a2.4,2.4,0,0,0-.3-2c-.3-.7-.7-1.5.1-2.1A13.9,13.9,0,0,1,4.6,9.2C5.4,8.7,6,7.5,7,7.3c6-1.7,5.1-3,7.3-3.1s3.4,0,4.6-.7S20.8,2.2,22,2.1s2.7.6,4,.8a9.2,9.2,0,0,0,3.7-.3A15.9,15.9,0,0,1,33.5,2c1.3.1,2.3,1,3.5,1.4a23,23,0,0,0,3.9.5c1.4.1,1.9.9,2.8,1.6A5.2,5.2,0,0,0,47,6.6a2.6,2.6,0,0,1,1.7.5,4.8,4.8,0,0,1,.9,1.1,5.4,5.4,0,0,0,2.5,1.6,1.9,1.9,0,0,1,1.3.7C53.8,10.9,53.4,11.5,53.2,12Z" style="fill:#ffc74e"/><path d="M7.3,6.5C5.9,6.7,5.1,8,4.1,8.7S1.5,9.8,1.4,10.8h.3c.5-.9,2-1.3,2.9-2L7.4,6.6Z" style="fill:#ffe983"/><path d="M23.6,23.6a9,9,0,0,1-4-.9,17.9,17.9,0,0,0-3.5-1,27.3,27.3,0,0,0-4-.5,8.1,8.1,0,0,1-2.2-.1,10.1,10.1,0,0,1-1.8-.9H8a3.2,3.2,0,0,0,2.5,1.4H13l2.6.4,2.1.4a12.1,12.1,0,0,1,2,.9l1.7.5,2.2-.2Z" style="fill:#ffe983"/><path d="M38,11.9c-.8-1.5-2.4-2.3-4.2-2.9a23.7,23.7,0,0,0-8-.6,18.6,18.6,0,0,0-5.7,1.5c-1.6.9-2.8,2.5-2.3,4s2.4,2.6,4.3,3a22.3,22.3,0,0,0,7.3.5,17,17,0,0,0,6.8-1.6C38,14.9,38.9,13.5,38,11.9Zm-1.4,2.7c-1.3,1.1-3.5,1.5-5.3,1.9a26.4,26.4,0,0,1-6.3.2,8.8,8.8,0,0,1-5.4-1.8c-1.3-1.3-1-2.9.7-3.9S25,9.4,27.2,9.2h3.4c.4,0,.8.4,1.2.4s2.8.3,3.8,1.1S38.1,13.3,36.6,14.6Z" style="fill:#ffc74e"/><path d="M33.6,9.5a24.9,24.9,0,0,0-11.2,0c-1.9.5-4,1.7-4,3.5s2,3,3.8,3.5a26.5,26.5,0,0,0,11.5-.1c1.8-.5,4-1.8,4-3.4S35.6,10.1,33.6,9.5Z" style="fill:#fff"/><path d="M37.1,14.6c-.2.1-.2.2-.3.3l-.4.4c-.1.1,0,.2.1.1l.5-.3c.1-.1.3-.2.3-.4Z" style="fill:#ffe983"/><path d="M53.1,16.7l-1.6.9-1.8.6c-1,.4-1.9.9-2.1,1.7s.1.2.2.1,1.8-1.4,3-1.7,2.2-.7,2.3-1.5Z" style="fill:#ffe983"/><path d="M16.8,16a14.5,14.5,0,0,0-3.6.8,38.8,38.8,0,0,0-3.6,1.5c-.1.1,0,.2.1.1l3.8-1.2,3.4-1C17,16.1,16.9,16,16.8,16Z" style="fill:#5576b4"/><path d="M13.6,13.8a14.9,14.9,0,0,0-8.1,0h0a43.8,43.8,0,0,1,8.1.1C13.7,14,13.7,13.8,13.6,13.8Z" style="fill:#5576b4"/><path d="M15.8,10.2A15,15,0,0,0,8.5,9.1c-.1,0-.1.1,0,.1l3.7.4,3.5.7A.1.1,0,0,0,15.8,10.2Z" style="fill:#5576b4"/><path d="M21.3,8.1a8.3,8.3,0,0,0-1.1-1.5L19,5.3c-.2-.1-.4,0-.3.1a8.8,8.8,0,0,0,1.2,1.5,3.4,3.4,0,0,0,1.2,1.2Z" style="fill:#5576b4"/><path d="M27.2,4.3a4.2,4.2,0,0,0-1,3c0,.1.2.1.2,0a24.9,24.9,0,0,1,1.1-2.9C27.6,4.2,27.3,4.2,27.2,4.3Z" style="fill:#5576b4"/><path d="M33.9,4.9a8,8,0,0,0-2.5,2.7c0,.1.1.2.2.1a15.2,15.2,0,0,0,2.5-2.6C34.2,5,34,4.9,33.9,4.9Z" style="fill:#5576b4"/><path d="M41,6.8a7.5,7.5,0,0,0-2.6.4,10.1,10.1,0,0,0-2.3,1.2c-.1.1,0,.2.1.1l2.4-.9L41,7.1C41.3,7,41.2,6.8,41,6.8Z" style="fill:#5576b4"/><path d="M46.3,10.4a21.7,21.7,0,0,0-7.2.3c-.2,0-.2.2,0,.2l3.6-.2h3.5C46.3,10.5,46.4,10.4,46.3,10.4Z" style="fill:#5576b4"/><path d="M46.7,15.2a10.1,10.1,0,0,0-3.6-1,16.1,16.1,0,0,0-3.8-.1c-.1,0-.1.1,0,.1l3.8.4c1.2.2,2.4.6,3.5.7S46.8,15.2,46.7,15.2Z" style="fill:#5576b4"/><path d="M40,18.1A7.2,7.2,0,0,0,38.1,17a8.1,8.1,0,0,0-2.2-.7c-.1-.1-.1.1-.1.1l2.1,1a8.4,8.4,0,0,0,2,.8C40,18.3,40.1,18.1,40,18.1Z" style="fill:#5576b4"/><path d="M22.6,18.3a5.1,5.1,0,0,0-1.8,2.1c-.1.1.1.1.2,0l1.8-2Z" style="fill:#5576b4"/><path d="M30.4,19.1c0-.2-.3-.2-.3-.1a2,2,0,0,0-.2,1.3c-.1.1.2.2.3,0A2.5,2.5,0,0,0,30.4,19.1Z" style="fill:#5576b4"/><path d="M13.6,6.9A4.1,4.1,0,0,0,12,6.6c-.3,0-.5.5-.2.6l1.5.5c.3,0,.9.2,1.1-.1S13.9,7,13.6,6.9Z" style="fill:#fff"/><path d="M17.4,8.5h0a.3.3,0,0,0-.3-.3.4.4,0,0,0-.6.2c-.1.2-.1.4.2.5H17l.4-.3Z" style="fill:#fff"/><path d="M36.3,20.5v-.3l-.3-.3c-.1-.1-.3,0-.4.1s-.1.2-.1.3v.6h0l.2.2c0,.1.3.1.3,0l.2-.2h0C36.4,20.7,36.4,20.6,36.3,20.5Z" style="fill:#fff"/><path d="M33,1a6.1,6.1,0,0,1,3,.8l2,.8a6.5,6.5,0,0,0,2,.2,5.5,5.5,0,0,1,3.6,1.1A6.3,6.3,0,0,1,44.8,5a2.5,2.5,0,0,0,1.7.5c1.4.2,2.5.3,3.4,1.2s1.1,1.6,2.3,2,2.1.8,2.4,1.7-.7,2-.8,3,.6,2.2,0,3.2a4.3,4.3,0,0,1-2.5,1.5l-1.5.6A4.9,4.9,0,0,0,48.3,20a5.7,5.7,0,0,1-2.8,1.8,15.9,15.9,0,0,1-3.7.6,6.1,6.1,0,0,0-2.4.7A15.8,15.8,0,0,1,33,24.3h-.1a20.6,20.6,0,0,1-3.5-.2l-1.9-.2h-.4l-2.2.3H23.7a15.8,15.8,0,0,1-4.8-1,24.6,24.6,0,0,0-2.9-.9,11.9,11.9,0,0,0-3.3-.4,10.9,10.9,0,0,1-3.1-.3,5.7,5.7,0,0,1-2.1-1.3c-.6-.5-1-1.1-1.7-1.6a9.2,9.2,0,0,0-2.3-.9,3.8,3.8,0,0,1-2-1,2,2,0,0,1,0-2.1,5,5,0,0,0,.3-1.3,6.1,6.1,0,0,0-.5-1.2,1.9,1.9,0,0,1-.1-1.9c.3-.6,1-.9,1.7-1.3A6,6,0,0,0,5,7.7,4.1,4.1,0,0,1,7.8,6.2,5.3,5.3,0,0,0,10,5.4l1.9-1.5A3.7,3.7,0,0,1,14,3.3h1.8a4.7,4.7,0,0,0,2.4-.5l1.7-1a5.3,5.3,0,0,1,2.4-.6l1.8.3a12.8,12.8,0,0,0,3.3.6h.9c1.4-.2,2.6-.7,4-.9H33m0-1h-.8a10.5,10.5,0,0,0-2.4.6L28.1.9h-.7A11.8,11.8,0,0,1,24.9.6L24.4.4,22.3.1a6.4,6.4,0,0,0-2.8.7l-.9.5-.9.5a3.6,3.6,0,0,1-1.9.4H13.9a5.7,5.7,0,0,0-2.5.7L10.1,4l-.7.5a3.6,3.6,0,0,1-1.7.7A5.3,5.3,0,0,0,4.2,7.1,4.3,4.3,0,0,1,2.4,8.2a4.7,4.7,0,0,0-2,1.7,2.9,2.9,0,0,0,0,2.9V13c.1.2.3.4.3.6a2.5,2.5,0,0,1-.2.7v.2a3,3,0,0,0,.2,2.9,3.9,3.9,0,0,0,2.5,1.5h.3a3.8,3.8,0,0,1,1.7.6l1,.9.6.7a6.8,6.8,0,0,0,2.6,1.5,11.9,11.9,0,0,0,3.2.3h.1a12.1,12.1,0,0,1,3,.3l2.2.7.7.3a17.8,17.8,0,0,0,5.1,1h1.4l2.1-.3h.3l1.4.2h.3a23.6,23.6,0,0,0,3.7.2H33A16.2,16.2,0,0,0,39.8,24l2.1-.6a17.6,17.6,0,0,0,3.9-.6,6.7,6.7,0,0,0,3.3-2.2l1.1-1,1.2-.4h.3a5.3,5.3,0,0,0,2.9-1.9,3.8,3.8,0,0,0,.3-2.7c0-.4-.1-.7-.1-1l.4-.8a3.7,3.7,0,0,0,.4-2.6c-.5-1.3-1.8-1.8-2.9-2.2h-.2a2.8,2.8,0,0,1-1.3-1.1L50.6,6a5.7,5.7,0,0,0-4-1.5,1.4,1.4,0,0,1-1.1-.3l-.6-.5-.6-.6A7.5,7.5,0,0,0,40,1.8h-.2a4.1,4.1,0,0,1-1.6-.2l-1.3-.5L36.5.9A7.6,7.6,0,0,0,33,0Z" style="fill:#502390"/></g></g></svg>