<svg xmlns="http://www.w3.org/2000/svg" xmlns:xlink="http://www.w3.org/1999/xlink" viewBox="0 0 317.7 254.9"><defs><radialGradient id="radial-gradient" cx="60.24" cy="295.02" r="5.4" gradientTransform="matrix(-0.21, 0.98, -0.98, -0.21, 432.04, 218.25)" gradientUnits="userSpaceOnUse"><stop offset="0.34" stop-color="#ffc200"/><stop offset="0.42" stop-color="#fbbf00"/><stop offset="0.5" stop-color="#eeb500"/><stop offset="0.58" stop-color="#d9a500"/><stop offset="0.67" stop-color="#bb8e00"/><stop offset="0.76" stop-color="#947100"/><stop offset="0.85" stop-color="#654d00"/><stop offset="0.93" stop-color="#2e2300"/><stop offset="1"/></radialGradient><linearGradient id="linear-gradient" x1="53.67" y1="295.14" x2="57.3" y2="295.14" gradientTransform="translate(140.5 -85.1) rotate(13.4)" gradientUnits="userSpaceOnUse"><stop offset="0" stop-color="#fff"/><stop offset="0.01" stop-color="#f6f6f6"/><stop offset="0.03" stop-color="#c8c8c8"/><stop offset="0.07" stop-color="#9d9d9d"/><stop offset="0.1" stop-color="#777"/><stop offset="0.14" stop-color="#575757"/><stop offset="0.18" stop-color="#3b3b3b"/><stop offset="0.22" stop-color="#252525"/><stop offset="0.28" stop-color="#141414"/><stop offset="0.34" stop-color="#090909"/><stop offset="0.44" stop-color="#020202"/><stop offset="0.7"/></linearGradient><radialGradient id="radial-gradient-2" cx="121.56" cy="310.17" r="5.4" gradientTransform="matrix(0.97, 0.23, -0.23, 0.97, 140.71, -85.13)" xlink:href="#radial-gradient"/><linearGradient id="linear-gradient-2" x1="114.99" y1="310.29" x2="118.62" y2="310.29" xlink:href="#linear-gradient"/></defs><g style="isolation:isolate"><g id="Layer_2" data-name="Layer 2"><g id="Layer_1-2" data-name="Layer 1"><path d="M158.9,189c-41.4,0-80.2-1.6-109.5-4.6a283.7,283.7,0,0,1-33.5-4.9c-10.2-2.4-14.4-5-14.4-8.9s4.2-6.5,14.4-9a283.7,283.7,0,0,1,33.5-4.9c29.3-2.9,68.1-4.5,109.5-4.5s80.2,1.6,109.4,4.5a283.7,283.7,0,0,1,33.5,4.9c10.2,2.5,14.4,5.1,14.4,9s-4.2,6.5-14.4,8.9a283.7,283.7,0,0,1-33.5,4.9C239.1,187.4,200.2,189,158.9,189ZM8.2,170.6c2.5,1.4,11.9,5.1,45.7,8.3,28.6,2.6,65.9,4.1,105,4.1s76.3-1.5,104.9-4.1c33.9-3.2,43.3-6.9,45.7-8.3-2.4-1.5-11.8-5.2-45.7-8.3-28.6-2.7-65.8-4.1-104.9-4.1s-76.4,1.4-105,4.1C20.1,165.4,10.7,169.1,8.2,170.6Z" style="fill:#fcfcfc"/><path d="M158.9,190.5c-41.4,0-80.3-1.6-109.6-4.6-14.4-1.4-25.7-3.1-33.7-5S0,176.5,0,170.6s7.5-8.5,15.6-10.4,19.3-3.6,33.7-5c29.3-2.9,68.2-4.5,109.6-4.5s80.3,1.6,109.6,4.5c14.3,1.4,25.7,3.1,33.6,5s15.6,4.5,15.6,10.4-7.5,8.4-15.6,10.3-19.3,3.6-33.6,5C239.2,188.9,200.2,190.5,158.9,190.5Zm0-36.8c-41.3,0-80.1,1.6-109.3,4.5-14.3,1.4-25.5,3.1-33.3,4.9C4.6,165.9,3,168.4,3,170.6s1.6,4.7,13.3,7.4c7.8,1.9,19,3.5,33.3,5,29.2,2.9,68,4.5,109.3,4.5s80.1-1.6,109.3-4.5c14.2-1.5,25.4-3.1,33.2-5,11.7-2.7,13.3-5.3,13.3-7.4s-1.6-4.7-13.3-7.5a276.9,276.9,0,0,0-33.2-4.9C239,155.3,200.1,153.7,158.9,153.7Zm0,30.8c-39.2,0-76.5-1.5-105.1-4.2-33-3-43.2-6.6-46.4-8.4l-2.2-1.3,2.2-1.3c3.2-1.9,13.4-5.4,46.4-8.5,28.6-2.7,65.9-4.1,105.1-4.1s76.4,1.4,105,4.1c33,3.1,43.2,6.6,46.4,8.5l2.2,1.3-2.2,1.3c-3.2,1.8-13.4,5.4-46.4,8.4C235.3,183,198,184.5,158.9,184.5ZM12,170.6c4.9,1.6,16.3,4.4,42.1,6.8,28.5,2.6,65.7,4.1,104.8,4.1s76.2-1.5,104.8-4.1c25.7-2.4,37.1-5.2,42-6.8-4.9-1.7-16.3-4.4-42-6.8-28.6-2.7-65.8-4.1-104.8-4.1s-76.3,1.4-104.8,4.1C28.3,166.2,16.9,168.9,12,170.6Z" style="fill:#a7bfee"/><path d="M164.6,3a1.1,1.1,0,0,1,1.1,1.1c.2,7.7.4,15.4.5,23.1.1,13.5-1.6,26.9-1.9,40.4-.1,3.3-.1,6.5,0,9.8a3.4,3.4,0,0,1,1.2.9,1.2,1.2,0,0,1,0,1.6,3.9,3.9,0,0,1-1,.8c.2,2.4.5,4.7.8,7,1,6,2.8,12.2.9,18.2l.3.8a5.3,5.3,0,0,1-1,4.3,5.4,5.4,0,0,1-1.5,1.5l2.7,10.3c4.7,17.6,10,35.2,16.8,52.1a1,1,0,0,1-1.1,1.4,1.1,1.1,0,0,1-1.1-.8c-1.9-4.8-3.7-9.7-5.5-14.6-5.4-15.6-9.8-31.6-13.9-47.6h-.2a3.2,3.2,0,0,1-2-.6h-.1a1.2,1.2,0,0,1-.8-.4,77.6,77.6,0,0,0-4.9,6.8c-4.3,6.5-7.9,13.2-12,19.8S132.4,152.1,128,159a1.2,1.2,0,0,1-.9.5,1.1,1.1,0,0,1-1-1.7c2.5-4,5.5-7.8,8.2-11.7,8.7-11.9,14.7-25.7,24.1-37a1.3,1.3,0,0,0,.1-.6c0-.5.1-.9.1-1.3-4.4-3-2-9.1-1-13.3l2.1-8.1a28.3,28.3,0,0,0,1.3-5l-.3-.3a2.4,2.4,0,0,1,.5-3.5.9.9,0,0,1,.7-.3h.1c-.4-10.7.7-21.5,1.4-32.2.8-13.5.3-26.9.1-40.4A1,1,0,0,1,164.6,3M159,104.5a1.6,1.6,0,0,1,.6-.8,2,2,0,0,1,1.3-.4l.9.2.5.2h.7a3.2,3.2,0,0,1,1.4.3,23.7,23.7,0,0,0-.1-8.8c-.5-3.5-1.3-7.1-1.7-10.6V84c-.1.2-.1.4-.2.6-.6,2.5-1.3,4.9-1.9,7.4s-1.3,4.9-1.9,7.4-.6,3.6.4,5.1m4.4,5.6.6-1a5.6,5.6,0,0,0,.4-1.2.6.6,0,0,0-.1-.4h0v-.2a.4.4,0,0,0-.1-.3h0l-.2-.3h-.1l-.2-.2a1.7,1.7,0,0,1,.1.7,5.8,5.8,0,0,1-.5,2.6c0,.2.1.3.1.5M164.6,0V0a4.2,4.2,0,0,0-3,1.2,4,4,0,0,0-1.1,3c0,2,0,4.1.1,6.2.2,11.1.5,22.6-.2,33.9-.2,2.1-.3,4.2-.5,6.3-.5,8-1.1,16.1-.9,24.3a5.5,5.5,0,0,0-1.8,3.1,5.3,5.3,0,0,0,.6,3.5l-.6,2.1a5.7,5.7,0,0,1-.4,1.4l-.7,2.8-1.4,5.4-.3,1.3c-1.1,3.8-2.7,9.7.9,13.8-5.2,6.4-9.4,13.5-13.5,20.4-3.1,5.2-6.3,10.7-9.9,15.7l-2.3,3.2c-2,2.8-4.1,5.6-6.1,8.6a4,4,0,0,0-.2,4.1,4.5,4.5,0,0,0,3.8,2.2,3.9,3.9,0,0,0,3.4-1.9c2-3.1,4.2-6.1,6.4-9.1s5.2-7.2,7.6-11l4.8-8.1c2.3-3.9,4.6-7.9,7.1-11.6,1-1.6,2.1-3.1,3.1-4.6,3.6,13.9,8,29.9,13.5,45.7,1.8,5,3.6,10,5.5,14.8a4.1,4.1,0,0,0,3.9,2.6,4.4,4.4,0,0,0,3.5-1.8,4,4,0,0,0,.4-3.7c-5.9-14.6-11-30.6-16.7-51.8-.8-3-1.6-6-2.2-8.5l.6-.8a8,8,0,0,0,1.4-6.8h0c1.3-5.2.4-10.3-.5-15.2l-.6-3.4a41.2,41.2,0,0,1-.6-5.2v-.2a4.1,4.1,0,0,0-.1-5.4l-.4-.5c-.1-2.6-.1-5.3,0-8.2.1-5.7.5-11.4.9-17,.5-7.7,1-15.6,1-23.5-.1-5.3-.2-10.7-.3-15.9-.1-2.4-.1-4.8-.2-7.3a4,4,0,0,0-4.1-4Zm-3.1,100.3V100a2.9,2.9,0,0,0,.2-.9,6.2,6.2,0,0,1,.1,1.3Z" style="fill:#75411a"/><path d="M183.5,174.9c-6.8-16.9-12.1-34.5-16.8-52.1L164,112.5a5.4,5.4,0,0,0,1.5-1.5,5.3,5.3,0,0,0,1-4.3l-.3-.8c1.9-6,.1-12.2-.9-18.2-.3-2.3-.6-4.6-.8-7a3.9,3.9,0,0,0,1-.8,1.2,1.2,0,0,0,0-1.6,3.4,3.4,0,0,0-1.2-.9c-.1-3.3-.1-6.5,0-9.8.3-13.5,2-26.9,1.9-40.4-.1-7.7-.3-15.4-.5-23.1,0-1.5-2.3-1.5-2.2,0,.2,13.5.7,26.9-.1,40.4-.7,10.7-1.8,21.5-1.4,32.2h-.1a.9.9,0,0,0-.7.3,2.4,2.4,0,0,0-.5,3.5l.3.3a28.3,28.3,0,0,1-1.3,5l-2.1,8.1c-1,4.2-3.4,10.3,1,13.3,0,.4-.1.8-.1,1.3a1.3,1.3,0,0,1-.1.6c-9.4,11.3-15.4,25.1-24.1,37-2.7,3.9-5.7,7.7-8.2,11.7A1.1,1.1,0,0,0,128,159c4.4-6.9,9.6-13.2,13.9-20.1s7.7-13.3,12-19.8a77.6,77.6,0,0,1,4.9-6.8,1,1,0,0,0,.9.4,2.9,2.9,0,0,0,2.1.6h.1c4.1,16,8.5,32,13.9,47.6,1.8,4.9,3.6,9.8,5.5,14.6C181.8,176.9,184,176.3,183.5,174.9ZM164,109.1l-.6,1c0-.2-.1-.3-.1-.5a5.8,5.8,0,0,0,.5-2.6,1.7,1.7,0,0,0-.1-.7l.2.2h.1l.2.3h0a.4.4,0,0,1,.1.3v.2h0a.6.6,0,0,1,.1.4A5.6,5.6,0,0,1,164,109.1Zm-5.4-9.7c.6-2.5,1.3-5,1.9-7.4s1.3-4.9,1.9-7.4c.1-.2.1-.4.2-.6v.6c.4,3.5,1.2,7.1,1.7,10.6a23.7,23.7,0,0,1,.1,8.8,3.2,3.2,0,0,0-1.4-.3h-.7l-.5-.2a2.2,2.2,0,0,0-2.2.2,1.6,1.6,0,0,0-.6.8C158,103,158.2,101,158.6,99.4Z" style="fill:#ff8c54"/><path d="M169.6,133.1l-1.6,2.7.3,1.1,1.6-2.7Z" style="fill:#0065dd;opacity:0.25;mix-blend-mode:multiply"/><path d="M172.3,142.4a9.3,9.3,0,0,1-.4-1.3l-1.3,3.7c.1.4.3.8.4,1.2Z" style="fill:#0065dd;opacity:0.25;mix-blend-mode:multiply"/><path d="M173.3,145.6l-1.3,3.6a5.6,5.6,0,0,0,.4,1.2l1.2-3.6Z" style="fill:#0065dd;opacity:0.25;mix-blend-mode:multiply"/><path d="M176.7,156.3a7.6,7.6,0,0,1-.4-1.1l-1.3,3.2a4.9,4.9,0,0,0,.4,1.1Z" style="fill:#0065dd;opacity:0.25;mix-blend-mode:multiply"/><path d="M178.4,161.3l-1.3,3,.3,1.1,1.4-3A4.9,4.9,0,0,1,178.4,161.3Z" style="fill:#0065dd;opacity:0.25;mix-blend-mode:multiply"/><path d="M168.1,128l-.3-1.2-1.4,3.5.3,1.2Z" style="fill:#0065dd;opacity:0.25;mix-blend-mode:multiply"/><path d="M178.9,169.4a10.4,10.4,0,0,1,.4,1l1.4-2.7-.3-.9Z" style="fill:#0065dd;opacity:0.25;mix-blend-mode:multiply"/><path d="M129.7,152.5a22.1,22.1,0,0,0,.7,3l.5-.8-.6-3Z" style="fill:#0065dd;opacity:0.25;mix-blend-mode:multiply"/><path d="M135.8,144c.1,1.2.3,2.3.4,3.3l.6-.9c-.1-1.2-.2-2.4-.3-3.4A8.6,8.6,0,0,1,135.8,144Z" style="fill:#0065dd;opacity:0.25;mix-blend-mode:multiply"/><path d="M139.3,138.7l-.6,1,.3,3.6a8.6,8.6,0,0,0,.7-1Z" style="fill:#0065dd;opacity:0.25;mix-blend-mode:multiply"/><path d="M141.5,135l.3,4h.1l.6-1-.3-4A4.1,4.1,0,0,1,141.5,135Z" style="fill:#0065dd;opacity:0.25;mix-blend-mode:multiply"/><path d="M133.7,147.1l-.8,1c.1,1.1.1,2.3.3,3.4l.7-.9C133.8,149.5,133.7,148.2,133.7,147.1Z" style="fill:#0065dd;opacity:0.25;mix-blend-mode:multiply"/><path d="M154.2,118.6l-.5-3.3-.6.9.5,3.3.3-.4Z" style="fill:#0065dd;opacity:0.25;mix-blend-mode:multiply"/><path d="M165.7,118.8l-1.5,3.2.3,1.1,1.5-3.2Z" style="fill:#0065dd;opacity:0.25;mix-blend-mode:multiply"/><path d="M145.6,128.3a4.1,4.1,0,0,0-.7,1.1l.2,4.1a4.1,4.1,0,0,0,.7-1.1Z" style="fill:#0065dd;opacity:0.25;mix-blend-mode:multiply"/><path d="M149.5,121.8l-.5,5.1.9-1.4.4-5.1Z" style="fill:#0065dd;opacity:0.25;mix-blend-mode:multiply"/><path d="M158.8,112.3a1,1,0,0,0,.9.4,2.9,2.9,0,0,0,2.1.6h.1a3.6,3.6,0,0,1,.2,1c.1-.5-.3-1,1.9-1.8a5.4,5.4,0,0,0,1.5-1.5,7.5,7.5,0,0,0,.7-1.2c-.1.1-5.7,4-4,1.3s.1-7.4.1-7.4c.9,8.8-1.4,6.7-1.4,6.7,2-3.4-1.9-5.9-1.9-5.9,1.4,2.3-.4,2.7-.4,2.7s-.1.8-.1,1.3a1.3,1.3,0,0,1-.1.6C160.4,108.9,158.8,112.3,158.8,112.3Z" style="fill:#0065dd;opacity:0.25;mix-blend-mode:multiply"/><path d="M183.5,174.9c-6.8-16.9-12.1-34.5-16.8-52.1L164,112.5a5.4,5.4,0,0,0,1.5-1.5,5.3,5.3,0,0,0,1-4.3l-.3-.8c1.9-6,.1-12.2-.9-18.2-.3-2.3-.6-4.6-.8-7a3.9,3.9,0,0,0,1-.8,1.2,1.2,0,0,0,0-1.6,3.4,3.4,0,0,0-1.2-.9c-.1-3.3-.1-6.5,0-9.8.3-13.5,2-26.9,1.9-40.4-.1-7.7-.3-15.4-.5-23.1,0-1.5-2.3-1.5-2.2,0,.2,13.5.7,26.9-.1,40.4-.7,10.7-1.8,21.5-1.4,32.2h-.1a.9.9,0,0,0-.7.3,2.4,2.4,0,0,0-.5,3.5l.3.3a28.3,28.3,0,0,1-1.3,5l-2.1,8.1c-1,4.2-3.4,10.3,1,13.3,0,.4-.1.8-.1,1.3a1.3,1.3,0,0,1-.1.6c-9.4,11.3-15.4,25.1-24.1,37-2.7,3.9-5.7,7.7-8.2,11.7A1.1,1.1,0,0,0,128,159c4.4-6.9,9.6-13.2,13.9-20.1s7.7-13.3,12-19.8a77.6,77.6,0,0,1,4.9-6.8,1,1,0,0,0,.9.4,2.9,2.9,0,0,0,2.1.6h.1c4.1,16,8.5,32,13.9,47.6,1.8,4.9,3.6,9.8,5.5,14.6C181.8,176.9,184,176.3,183.5,174.9ZM164,109.1l-.6,1c0-.2-.1-.3-.1-.5a5.8,5.8,0,0,0,.5-2.6,1.7,1.7,0,0,0-.1-.7l.2.2h.1l.2.3h0a.4.4,0,0,1,.1.3v.2h0a.6.6,0,0,1,.1.4A5.6,5.6,0,0,1,164,109.1Zm-5.4-9.7c.6-2.5,1.3-5,1.9-7.4s1.3-4.9,1.9-7.4c.1-.2.1-.4.2-.6v.6c.4,3.5,1.2,7.1,1.7,10.6a23.7,23.7,0,0,1,.1,8.8,3.2,3.2,0,0,0-1.4-.3h-.7l-.5-.2a2.2,2.2,0,0,0-2.2.2,1.6,1.6,0,0,0-.6.8C158,103,158.2,101,158.6,99.4Z" style="fill:#0065dd;opacity:0.25;mix-blend-mode:multiply"/><path d="M162.3,81s-1.1-3.8,1-4l-1.4-.3a.9.9,0,0,0-.7.3,2.4,2.4,0,0,0-.5,3.5l.3.3a28.3,28.3,0,0,1-1.3,5l-2.1,8.1c-.7,2.7-1.9,6.2-1.5,9.2C156.3,102.5,161.3,81.1,162.3,81Z" style="fill:#0065dd;opacity:0.25;mix-blend-mode:multiply"/><path d="M158.3,102.4l-1.7,2.4c.1.3.3.5.4.8l1.5-2.1C158.4,103.1,158.4,102.8,158.3,102.4Z" style="fill:#0065dd;opacity:0.25;mix-blend-mode:multiply"/><path d="M164.2,71.9,162,69.5v1.1l2.2,2.4Z" style="fill:#0065dd;opacity:0.25;mix-blend-mode:multiply"/><path d="M164.3,68.4V67l-2.1-3.5a5.7,5.7,0,0,0-.1,1.3Z" style="fill:#0065dd;opacity:0.25;mix-blend-mode:multiply"/><path d="M165.3,49.4v-1l-2-2.5a4.1,4.1,0,0,0-.1,1.1Z" style="fill:#0065dd;opacity:0.25;mix-blend-mode:multiply"/><path d="M162.2,83.2v2.7l.3-1.3c.1-.2.1-.4.2-.6v.6a5.9,5.9,0,0,1,.2,1.4V84.7l2.2,1.5c0-.3-.1-.6-.1-1Z" style="fill:#0065dd;opacity:0.25;mix-blend-mode:multiply"/><path d="M163.3,89.3l2.7,2.1a4.3,4.3,0,0,1-.2-1.1l-2.7-2.1A3.6,3.6,0,0,1,163.3,89.3Z" style="fill:#0065dd;opacity:0.25;mix-blend-mode:multiply"/><path d="M166.2,28.3V27.2h0l-2.4-2.4v1.1Z" style="fill:#0065dd;opacity:0.25;mix-blend-mode:multiply"/><path d="M164.7,58.9l-2.1-3.4c0,.4-.1.9-.1,1.3l2.1,3.4A5.7,5.7,0,0,1,164.7,58.9Z" style="fill:#0065dd;opacity:0.25;mix-blend-mode:multiply"/><path d="M166,16.5l-2.3-2.4v1.2l2.3,2.4Z" style="fill:#0065dd;opacity:0.25;mix-blend-mode:multiply"/><path d="M165.9,38.9l-2.2-2.4v1.1l2.1,2.4A4.1,4.1,0,0,0,165.9,38.9Z" style="fill:#0065dd;opacity:0.25;mix-blend-mode:multiply"/><path d="M164.7,100.9v1l2.1,1.7c0-.3.1-.6.1-.9Z" style="fill:#0065dd;opacity:0.25;mix-blend-mode:multiply"/><path d="M164.6,97.5l2.4,2.9V99.2l-2.5-3.1C164.5,96.5,164.6,97,164.6,97.5Z" style="fill:#0065dd;opacity:0.25;mix-blend-mode:multiply"/><path d="M163.8,92.2a3.6,3.6,0,0,1,.2,1.1l2.6,2c0-.4-.1-.7-.1-1.1Z" style="fill:#0065dd;opacity:0.25;mix-blend-mode:multiply"/><path d="M183.2,178.2s3.1.7,4.2-1.7a1.4,1.4,0,0,0-1.5-1.2s-1.4,2.4-2.8,1.8S183.2,178.2,183.2,178.2Z" style="fill:#ff8c54"/><path d="M187.4,176.5s-1.4.7-1.5-1.2A1.3,1.3,0,0,1,187.4,176.5Z" style="fill:#0065dd;opacity:0.25;mix-blend-mode:multiply"/><path d="M183.7,178.1a.3.3,0,0,1,.1.2h.5l-.2-.3a1.4,1.4,0,0,1,.4-1.1l-.7.3A2.8,2.8,0,0,0,183.7,178.1Z" style="fill:#0065dd;opacity:0.25;mix-blend-mode:multiply"/><path d="M185.6,178.1h.4a2.9,2.9,0,0,1-.5-2.1l-.4.5A2.8,2.8,0,0,0,185.6,178.1Z" style="fill:#0065dd;opacity:0.25;mix-blend-mode:multiply"/><path d="M126.3,158.1s-2.6-1.8-4.5,0a1.2,1.2,0,0,0,.9,1.5s2.2-1.6,3.3-.6S126.3,158.1,126.3,158.1Z" style="fill:#ff8c54"/><path d="M121.8,158.1s1.5-.2.9,1.5A1.2,1.2,0,0,1,121.8,158.1Z" style="fill:#0065dd;opacity:0.25;mix-blend-mode:multiply"/><path d="M125.8,158v-.2l-.4-.2v.3a1.6,1.6,0,0,1-.8.9h.7A1.2,1.2,0,0,0,125.8,158Z" style="fill:#0065dd;opacity:0.25;mix-blend-mode:multiply"/><path d="M124.1,157.3h-.5c.4.7-.1,1.6-.3,2l.6-.3A2.5,2.5,0,0,0,124.1,157.3Z" style="fill:#0065dd;opacity:0.25;mix-blend-mode:multiply"/><path d="M188.4,214.6a1.4,1.4,0,0,1-1.3-.7,1.5,1.5,0,0,1,0-1.6,2.5,2.5,0,0,0,0-2.2c-.6-1.1-2.6-3-10-3.5s-18.8-4.4-19.3-10.6,6.4-9.4,20.1-12.9c-.2-2.6-.1-6.3,1.4-8.1a3.8,3.8,0,0,1,1.3-.9c-12.9-1.6-30.5-3-48.2-4a8,8,0,0,1,.9,5.8c0,.2-.1.6-.1.7a1.7,1.7,0,0,1-.4,1.7,1.9,1.9,0,0,1-1.6.7,6.5,6.5,0,0,1-2.7-.9,1.4,1.4,0,0,1-.8-1.3c-.1-4.3-4.6-5-13.1-5.8s-20.4-2.1-29.8-10.4c-3.9-3.6-3.8-6.8-3-8.8,3.8-10.2,32.8-15.8,51.3-15.8,8.5,0,19.2,1.1,21.4,6.4,1.1,2.6,1.1,4.9-.2,6.8-2.3,3.6-8.8,5.4-19,5.4-4.8,0-8.6-.4-8.7-.4a1.5,1.5,0,0,1-1.4-1.5,1.5,1.5,0,0,1,1.3-1.5c7-1.2,17.6-4.1,19.1-6.6q.2-.3,0-.3c-.3-.4-3.1-1.6-11.7-1.6-14,0-34.5,3.1-43.1,8.1-2.3,1.3-3.3,2.6-3,3.8,1.3,4.7,17.3,10.4,29.1,10.4h5.6c-.1-2.1,0-4.9,1.4-6.5a4,4,0,0,1,2.8-1.4h.2a3.4,3.4,0,0,1,2.8,1.3c1.7,1.7,2,5,2.1,6.9,20.1.9,70.4,5.3,76.7,10.5a3,3,0,0,1,1.3,3.3c-1,3.2-9.9,5.5-18.4,7,10.6,2,21.9,6,22.5,10a2.5,2.5,0,0,1-.7,2.1c-2.4,2.8-11.7,3.8-17,3.8h0c-5.1,0-11.4-.7-12-4.3a4.7,4.7,0,0,1,.7-3.8,4.8,4.8,0,0,1,3.7-1.4,14.7,14.7,0,0,1,3.9.7,1.6,1.6,0,0,1,1,1.7,1.5,1.5,0,0,1-1.5,1.2h-.8c.7.5,2.6,1.4,6.1,1.4a32.8,32.8,0,0,0,6.5-.8,7.7,7.7,0,0,0,2.8-.9c-1.9-2.2-16.2-6.4-28.5-6.4h-2.3c-7.2.4-11.6,3.4-11.6,6s4.2,5.1,13.4,5.5,14.2,2.4,15.9,6-1.1,7-1.2,7.1a1.4,1.4,0,0,1-1.2.6Zm-4.6-40.1c1.3,1,2.1,3.3,2.3,6.8l3.1-.6c7.1-1.3,9.6-2.3,10.5-2.8C197.9,176.7,192.1,175.6,183.8,174.5Z" style="fill:#f9f9f9"/><path d="M133.1,137.5c10.2,0,18.4,1.7,20,5.5,3.7,8.6-8.8,10.1-17.8,10.1-4.8,0-8.6-.4-8.6-.4s22.2-3.9,20.4-8.9c-.7-1.8-6-2.6-13.2-2.6-13.8,0-34.7,3-43.9,8.3-13.3,7.7,12.2,17,26.9,17h7.3c-.3-1.8-.9-7.8,2.5-8h.2c3.8,0,3.4,8.1,3.4,8.1,24.2,1.1,71.8,5.8,77.3,10.3s-28.6,9.4-28.6,9.4h.6c12.1,0,32.2,5.9,32.8,10,.4,2.3-8.6,4.1-16.2,4.1-5.4,0-10.1-.9-10.5-3.1s1.1-3.4,2.9-3.4a11.7,11.7,0,0,1,3.4.6h-.1c-4.4,0-3.1,4.5,5.4,4.5a37.5,37.5,0,0,0,6.8-.8c13.9-2.9-10.2-10.3-26-10.3h-2.4c-15.6.8-19.5,13.5,1.8,14.5s13.6,10.7,13.6,10.7h-2.7s4-6.9-11.2-8-33.1-12.2,2.3-20.8c-.2-2-.7-8.8,2.2-9h.1c2.5,0,2.8,5.3,2.8,7.8l4.9-.9c48.5-8.8-65.1-14-65.1-14,10.2.9,7.1,7.1,7.3,8.7s-.1.6-.5.6a6.2,6.2,0,0,1-2-.7c-.3-12.2-26-1.8-43.4-17.4-13.7-12.3,22.7-21.9,47.3-21.9m-4.4,29c0-.9,0-5.6-1.6-6h-.2c-1.5,0-.9,5.9-.9,5.9h2.7M181,183.9l2.3-.5c0-1.9-.2-5.3-1.3-5.8h-.2c-1,0-.9,5-.8,6.3m-47.9-49.4v0c-16.2,0-48.2,4.9-52.7,16.7-1,2.5-1.2,6.4,3.4,10.5,9.7,8.7,21.8,9.9,30.6,10.7s11.7,1.6,11.8,4.5a2.9,2.9,0,0,0,1.5,2.5,8,8,0,0,0,3.5,1.1,3.3,3.3,0,0,0,3.5-3.9v-.5a12.2,12.2,0,0,0,0-4.3l25,1.7,17.6,1.7a14.6,14.6,0,0,0-1,6.8c-14,3.7-20.6,8.3-20.1,14.1s12.4,11.3,20.7,12,8.6,2.3,8.8,2.7,0,.7,0,.8a2.9,2.9,0,0,0,2.6,4.5h2.7a3,3,0,0,0,2.4-1.1,8.9,8.9,0,0,0,1.4-8.7,8.5,8.5,0,0,0-2.6-3.1h3.9c5,0,15.2-.9,18.2-4.3a4.4,4.4,0,0,0,1-3.3c-.3-1.3-.8-4.9-14.2-8.9l-2.8-.8c9.5-2.2,12.1-4.3,12.8-6.7.3-.8.6-2.9-1.7-4.8s-4.4-3.7-33.2-7.1c-13.8-1.7-30.4-3.1-43.1-3.7-.4-5-2.3-7-4-7.8l6.1.2c10.9,0,17.6-2,20.2-6,1.1-1.7,2.1-4.4.4-8.3s-9.7-7.3-22.8-7.3Zm-16.2,29A59.7,59.7,0,0,1,99,160.2c-7.1-2.5-9.4-5-9.7-6s.6-1.2,2.2-2.1c8.4-4.9,28.6-7.9,42.4-7.9a47.2,47.2,0,0,1,9,.7c-3,1.6-9.8,3.6-16.7,4.8a3.1,3.1,0,0,0-2.5,3.1,3.2,3.2,0,0,0,2,2.7,5.4,5.4,0,0,0-3,1.9c-1.3,1.5-1.7,3.8-1.7,5.9h-4.1Zm70.5,16a20.5,20.5,0,0,0-.7-3.1l8.3,1.5a46.8,46.8,0,0,1-6.1,1.3l-1.5.3Zm-3.3-.3Zm-.3,20.8a54.4,54.4,0,0,0-6.2-.6c-8.8-.4-11.9-2.9-11.9-4s3.5-4.2,10.2-4.5h2.2a66.4,66.4,0,0,1,7.7.5,5.5,5.5,0,0,0-2,1.5c-.8.9-1.5,2.4-1.1,5a5.1,5.1,0,0,0,1.1,2.2Zm10.9-4.3.3-.7a3.3,3.3,0,0,0-.5-2.2,61.3,61.3,0,0,1,8.3,2.5,28,28,0,0,1-5.5.6l-2.6-.2Z" style="fill:#a7bfee"/><path d="M129.7,176.8c-4.2,0-7.7.6-7.7,1.3v6.2h15.4v-6.2C137.4,177.4,133.9,176.8,129.7,176.8Z" style="fill:#fffade"/><path d="M110.3,219.1s-12.1-20.3,4-32.1,34-7.3,40.6,2.5S154,217,154,217,153.4,210.4,110.3,219.1Z" style="fill:#fffade"/><path d="M129.2,176.8c-4.2,0-7.7.6-7.7,1.3v6.2h15.4v-6.2C136.9,177.4,133.4,176.8,129.2,176.8Z" style="fill:#ce2e4d"/><path d="M128.3,176.8c-3.8.1-6.8.6-6.8,1.3v6.2h5.8a31.3,31.3,0,0,1-1.6-4.9C125.3,177.1,128.2,176.8,128.3,176.8Z" style="fill:#0065dd;opacity:0.25;mix-blend-mode:multiply"/><path d="M109.5,219.7A125.4,125.4,0,0,0,154,217S154,197.1,109.5,219.7Z" style="fill:#db0000"/><path d="M125.7,211.6a6.4,6.4,0,0,1,9.5.2c3.4,3.6,3.2,10.1-3.3,11S122.1,215.5,125.7,211.6Z" style="fill:#ffaa5a"/><path d="M131.4,220.3a1,1,0,0,1-.7-.4l-.6-.8-.6-.2h-1a1.3,1.3,0,0,1-1.2-.6,1.1,1.1,0,0,1,0-1.3l.5-.9a.5.5,0,0,0,.1-.6l-.4-.9a1.4,1.4,0,0,1,.2-1.4,1.4,1.4,0,0,1,1.2-.4l1,.3c.2,0,.5,0,.6-.2l.8-.7a1.3,1.3,0,0,1,1.3-.2,1.2,1.2,0,0,1,.8,1.1v1a.5.5,0,0,0,.3.5l.9.6a1.3,1.3,0,0,1,.6,1.1,1.2,1.2,0,0,1-.8,1.1l-1,.4a.5.5,0,0,0-.3.5l-.3,1a1.2,1.2,0,0,1-.9.9Zm-1.5-2a1.3,1.3,0,0,1,.7.4l.6.8c.2.2.4.3.6.2a.6.6,0,0,0,.5-.5l.2-1a1.4,1.4,0,0,1,.8-.9l1-.4a.5.5,0,0,0,.3-.5c.1-.2-.1-.5-.3-.6l-.9-.5a1.3,1.3,0,0,1-.6-1v-1.1a.5.5,0,0,0-.3-.5.8.8,0,0,0-.7.1l-.8.7a1.1,1.1,0,0,1-1.1.3l-1-.3-.6.2a.6.6,0,0,0-.1.7l.4,1a1.4,1.4,0,0,1-.1,1.1l-.6.9a.9.9,0,0,0,0,.7.9.9,0,0,0,.6.3h1.1C129.6,218.2,129.7,218.2,129.9,218.3Z" style="fill:#ffeea6"/><circle cx="130.9" cy="215.8" r="5.4" transform="translate(-88 341.4) rotate(-88.6)" style="mix-blend-mode:screen;fill:url(#radial-gradient)"/><path d="M136.5,218.2c-.6,2.7-4.3,4.4-7,3.7s-5-4.9-4.4-7.6,4.4-4.5,7.1-3.9S137.2,215.6,136.5,218.2Z" style="fill:#fcd54d;opacity:0.31;mix-blend-mode:color-dodge"/><path d="M129.2,209.7a7,7,0,0,0-3.5,1.9c-2.3,2.4-1.8,6.6.5,9.1C124.2,214.4,126.9,211.2,129.2,209.7Z" style="mix-blend-mode:screen;fill:url(#linear-gradient)"/><path d="M136.1,216.3c-.2.1-.5-.5-.6-1.1s0-1.2.3-1.3.5.5.6,1.2S136.3,216.3,136.1,216.3Z" style="fill:#fff"/><path d="M109.5,219.7s-12.2-20.4,3.9-32.3,34.1-7.5,40.6,2.4,0,27.2,0,27.2S152.5,210.9,109.5,219.7Z" style="fill:#ffaebe"/><path d="M153.8,195.2c-1,2.2-6.9,1.4-13.3-1.6s-10.6-7.2-9.6-9.4,7-1.4,13.4,1.6S154.9,193.1,153.8,195.2Z" style="fill:#e8a4d2;opacity:0.39;mix-blend-mode:screen"/><path d="M129.7,176.8c4.2,0,7.7.6,7.7,1.3v2c7.6.7,14.1,4.3,17.5,9.4,6.5,9.8-.9,27.5-.9,27.5h0a120.1,120.1,0,0,1-17.3,2.9,6,6,0,0,1-4.8,2.9h-1a6,6,0,0,1-4.7-2.2h-2.6a106.3,106.3,0,0,1-14.1-.8s-12.2-20.4,3.9-32.3a42.3,42.3,0,0,1,8.1-4.7v-4.6H125l4.2-.2h.5m0-3h-.5l-4.5.2h-3.8l-.3.2h-.2l-.4.3-.3.2-.4.4-.3.5a3,3,0,0,0-.5,1.6v2.7a44.7,44.7,0,0,0-6.9,4.1c-7.5,5.6-10.7,13.7-9.2,23.5a37,37,0,0,0,4.5,12.8,2.6,2.6,0,0,0,2.1,1.4,91.6,91.6,0,0,0,14.6.9h1.1a8.9,8.9,0,0,0,6.2,2.4h1.4a10,10,0,0,0,6.1-3.1,140.6,140.6,0,0,0,16-2.7,3.3,3.3,0,0,0,2.4-1.9c.3-.7,7.9-19.3.6-30.3-3.6-5.3-9.8-9.1-17.1-10.4-.4-2.5-3.6-3.6-10.6-3.6Z" style="fill:#84205c"/><path d="M189.5,212.5h-1l-3.2.2h-3.5v5.9h15.3v-5.9C197.1,213,193.7,212.5,189.5,212.5Z" style="fill:#fffade"/><path d="M168.8,247s-8-10.2,0-20.8,21.4-11.7,32-8.3,17.5,16.5,5.5,30.2C206.3,248.1,182.8,237.3,168.8,247Z" style="fill:#fffade"/><path d="M188.9,212.5c-4.2,0-7.6.6-7.6,1.3V220h15.3v-6.2C196.6,213.1,193.2,212.5,188.9,212.5Z" style="fill:#ce2e4d"/><path d="M188,212.5c-3.8.1-6.7.6-6.7,1.3V220H187a42.2,42.2,0,0,1-1.6-5C185,212.8,188,212.5,188,212.5Z" style="fill:#0065dd;opacity:0.25;mix-blend-mode:multiply"/><path d="M176.1,242.3l-8.1,5.3a317.5,317.5,0,0,0,38.3.5l-1-10.8Z" style="fill:#db0000"/><path d="M181.9,240.6a6.1,6.1,0,0,1,9.4.2c3.5,3.6,3.2,10.1-3.3,11S178.2,244.4,181.9,240.6Z" style="fill:#ffaa5a"/><path d="M187.5,249.3c-.2-.1-.5-.2-.6-.4l-.7-.8a.4.4,0,0,0-.5-.2h-1.1a1.4,1.4,0,0,1-1.2-.6,1.7,1.7,0,0,1,0-1.4l.6-.9a.5.5,0,0,0,0-.5l-.4-1a1.3,1.3,0,0,1,1.5-1.7l1,.2a.4.4,0,0,0,.5-.1l.8-.7a1.3,1.3,0,0,1,1.3-.2,1.2,1.2,0,0,1,.8,1.1v1a.5.5,0,0,0,.3.5l.9.5a1.2,1.2,0,0,1,.6,1.2,1.2,1.2,0,0,1-.8,1.1l-.9.4a.4.4,0,0,0-.4.4l-.2,1a1.3,1.3,0,0,1-1,1Zm-1.5-2.1a1.2,1.2,0,0,1,.7.5l.7.8.6.2a.7.7,0,0,0,.4-.5l.3-1a1.1,1.1,0,0,1,.7-.9l1-.4a.7.7,0,0,0,.4-.6.5.5,0,0,0-.3-.5l-.9-.6a1,1,0,0,1-.6-1v-1a.7.7,0,0,0-.4-.5c-.2-.1-.5-.1-.6.1l-.8.7a1.7,1.7,0,0,1-1.2.3l-1-.3c-.2-.1-.4,0-.6.2a.5.5,0,0,0-.1.6l.4,1a1.1,1.1,0,0,1-.1,1.2l-.5.9a.6.6,0,0,0,0,.6.6.6,0,0,0,.6.3H186Z" style="fill:#ffeea6"/><path d="M192.3,246a5.4,5.4,0,1,1-4-6.5A5.4,5.4,0,0,1,192.3,246Z" style="mix-blend-mode:screen;fill:url(#radial-gradient-2)"/><path d="M192.7,247.2c-.7,2.6-4.3,4.3-7.1,3.7s-5-5-4.4-7.6,4.4-4.6,7.2-3.9S193.3,244.5,192.7,247.2Z" style="fill:#fcd54d;opacity:0.31;mix-blend-mode:color-dodge"/><path d="M185.3,238.6a6.5,6.5,0,0,0-3.4,2c-2.3,2.4-1.8,6.6.4,9.1C180.4,243.3,183,240.1,185.3,238.6Z" style="mix-blend-mode:screen;fill:url(#linear-gradient-2)"/><path d="M192.2,245.3c-.2,0-.4-.5-.5-1.2s0-1.2.2-1.2.5.5.6,1.1S192.5,245.2,192.2,245.3Z" style="fill:#fff"/><path d="M168,247.6s-8.1-10.3,0-21.1,21.4-11.9,31.9-8.5,18.4,16.3,6.4,30.1C206.3,248.1,182,237.7,168,247.6Z" style="fill:#ffaebe"/><path d="M209.3,231.9c-1.4,1.9-6.3.8-11-2.4s-7.5-7.5-6.2-9.4,6.3-.9,11,2.3S210.6,229.9,209.3,231.9Z" style="fill:#e8a4d2;opacity:0.39;mix-blend-mode:screen"/><path d="M189.5,212.5c4.2,0,7.6.5,7.6,1.2v3.2l3.7,1c10.6,3.4,17.5,16.5,5.5,30.2-4.7.3-9.1.4-13.3.4-.7,1.6-2.3,2.9-5,3.3h-1a6.4,6.4,0,0,1-4.7-2.2h-.1l-.5-.7h-.1l-.3-.5c-8.1-.3-13.3-.7-13.3-.7s-8.1-10.3,0-21.1a25.1,25.1,0,0,1,13.3-9.3v-3.4h3.5l4.1-.2h.6m0-3h-.6l-4.5.2h-3.7l-.3.2h-.3l-.3.2-.3.3-.5.4-.3.5a2.9,2.9,0,0,0-.4,1.6V215a27.9,27.9,0,0,0-12.7,9.7,20.4,20.4,0,0,0,0,24.7,2.6,2.6,0,0,0,2.1,1.1c.2.1,4.7.5,12,.7l.2.3h.2a.1.1,0,0,0,.1.1,9.1,9.1,0,0,0,6.8,3.1h1.5a9.9,9.9,0,0,0,6.2-3.3l11.8-.4a3,3,0,0,0,2.1-1c6-6.9,8.3-14.6,6.4-21.6A19.8,19.8,0,0,0,201.7,215l-1.6-.5v-.8c0-3.1-3.5-3.6-4.8-3.8a33,33,0,0,0-5.8-.4Z" style="fill:#84205c"/><path d="M126.7,160.5s.9-2.2-.8-1.9a1.5,1.5,0,0,1,2.1-1.4C129.9,157.8,128.7,161.4,126.7,160.5Z" style="fill:#ff8c54"/><path d="M127.9,157.5h.6l-.5-.3h-.2c-.7.2-1.1,1-1.3,1.4h0l.3.2A2.7,2.7,0,0,1,127.9,157.5Z" style="fill:#0065dd;opacity:0.25;mix-blend-mode:multiply"/><path d="M129,158.7a3.7,3.7,0,0,0-2.1.9c0,.2-.1.4-.1.6a3.5,3.5,0,0,1,2.1-1.1C128.9,158.9,129,158.8,129,158.7Z" style="fill:#0065dd;opacity:0.25;mix-blend-mode:multiply"/><path d="M127.9,158.8c0-1.6-1.7-1.1-1.7-1.1a1.7,1.7,0,0,0-.3.9c1.7-.3.8,1.9.8,1.9h0A2.2,2.2,0,0,0,127.9,158.8Z" style="fill:#0065dd;opacity:0.25;mix-blend-mode:multiply"/><path d="M181.7,177.6s1-2.4-.7-2c0,0,.2-2.2,2.1-1.6S183.8,178.6,181.7,177.6Z" style="fill:#ff8c54"/><path d="M183,174.4h.6a1,1,0,0,0-.5-.4h-.3a3.3,3.3,0,0,0-1.2,1.5h0l.3.2C182,175.6,182.4,174.6,183,174.4Z" style="fill:#0065dd;opacity:0.25;mix-blend-mode:multiply"/><path d="M184.1,175.6a4,4,0,0,0-2.1,1c0,.2-.1.4-.1.6a3.3,3.3,0,0,1,2.1-1.1A.9.9,0,0,1,184.1,175.6Z" style="fill:#0065dd;opacity:0.25;mix-blend-mode:multiply"/><path d="M183,175.7c0-1.6-1.7-1.1-1.7-1.1a1.9,1.9,0,0,0-.3,1c1.7-.4.7,2,.7,2h.1A2.4,2.4,0,0,0,183,175.7Z" style="fill:#0065dd;opacity:0.25;mix-blend-mode:multiply"/><path d="M316.2,170.3h-7l.3.3c-2.4,1.4-11.8,5.1-45.7,8.2-28.6,2.7-65.8,4.2-104.9,4.2s-76.4-1.5-105-4.2c-33.8-3.1-43.2-6.8-45.7-8.2l.4-.3H1.5v.3c0,3.9,4.2,6.5,14.4,8.9a287,287,0,0,0,33.5,4.9c29.3,3,68.1,4.6,109.5,4.6s80.2-1.6,109.4-4.6a283.7,283.7,0,0,0,33.5-4.9c10.2-2.4,14.4-5,14.4-8.9Z" style="fill:#fcfcfc"/><path d="M312.1,170.3h-7l.6.3c-4.8,1.6-16.2,4.4-42,6.8-28.5,2.6-65.8,4.1-104.8,4.1S82.6,180,54.1,177.4c-25.8-2.4-37.2-5.2-42.1-6.8l.6-.3h-7l-.4.3,2.2,1.3c3.2,1.8,13.4,5.4,46.4,8.4,28.6,2.7,65.9,4.2,105.1,4.2s76.4-1.5,105-4.2c33-3,43.2-6.6,46.4-8.4l2.2-1.3Zm0,0h-7l.6.3c-4.8,1.6-16.2,4.4-42,6.8-28.5,2.6-65.8,4.1-104.8,4.1S82.6,180,54.1,177.4c-25.8-2.4-37.2-5.2-42.1-6.8l.6-.3h-7l-.4.3,2.2,1.3c3.2,1.8,13.4,5.4,46.4,8.4,28.6,2.7,65.9,4.2,105.1,4.2s76.4-1.5,105-4.2c33-3,43.2-6.6,46.4-8.4l2.2-1.3Zm5.6,0h-3v.3c0,2.1-1.5,4.7-13.3,7.4-7.8,1.9-19,3.5-33.2,4.9-29.2,3-68.1,4.6-109.3,4.6s-80.1-1.6-109.3-4.6c-14.3-1.4-25.5-3-33.3-4.9C4.6,175.3,3,172.7,3,170.6v-.3H0v.3c0,5.8,7.5,8.4,15.6,10.3s19.3,3.6,33.7,5c29.3,3,68.2,4.6,109.6,4.6s80.3-1.6,109.6-4.6c14.3-1.4,25.7-3.1,33.6-5s15.6-4.5,15.6-10.3Zm-263.9,10c28.6,2.7,65.9,4.2,105.1,4.2s76.4-1.5,105-4.2c33-3,43.2-6.6,46.4-8.4l2.2-1.3-.4-.3h-7l.6.3c-4.8,1.6-16.2,4.4-42,6.8-28.5,2.6-65.8,4.1-104.8,4.1S82.6,180,54.1,177.4c-25.8-2.4-37.2-5.2-42.1-6.8l.6-.3h-7l-.4.3,2.2,1.3C10.6,173.7,20.8,177.3,53.8,180.3Z" style="fill:#a7bfee"/></g></g></g></svg>