<svg xmlns="http://www.w3.org/2000/svg" viewBox="0 0 42.9 38.2"><g id="Layer_2" data-name="Layer 2"><g id="Layer_1-2" data-name="Layer 1"><path d="M32.7,5.6a7.5,7.5,0,0,0-2-1A4.6,4.6,0,0,1,29,3.2a3.9,3.9,0,0,0-3.4-1.3l-2.5.4a4.3,4.3,0,0,1-1.6.1h-.2c-.9-.1-1.5-.7-2.4-.7-4.3-.4-4.7.6-5.5.7h-.3a4.5,4.5,0,0,1-1.6-.1L9,1.9A4.1,4.1,0,0,0,5.6,3.2,4.6,4.6,0,0,1,3.9,4.6a7.5,7.5,0,0,0-2,1c-.8.8-1.2,2-.3,2.9a13.4,13.4,0,0,1,1.8,2.9,29.9,29.9,0,0,1,1,3.2c.4,2.2.3,4.4.6,6.6A7,7,0,0,0,7.9,26a13.5,13.5,0,0,0,2.6,1.5,6.7,6.7,0,0,1,1.4.9c.1.1-1.6.1-2.2.7s-.3.9-.1,1.5a1.1,1.1,0,0,1-.1.8,2.9,2.9,0,0,1-.2.9c-.2,1.2.6,1.6,1.6,2s1.4,1.8,2.4,2.3,1.7,0,2.5-.3a3.7,3.7,0,0,1,1.8.2h.2c2.7.6,2.9.4,3.5.1s1.3-1.9,2.5-2.3,1.8-.8,1.5-2a2.9,2.9,0,0,0-.2-.9,1.1,1.1,0,0,1,.1-.8c.2-.6.1-.9-.4-1.2a4.9,4.9,0,0,0-2.3-.6l.2-.4a6.7,6.7,0,0,1,1.4-.9A11.7,11.7,0,0,0,26.8,26a7.3,7.3,0,0,0,2.8-4.8c.4-2.2.2-4.4.7-6.6a16.8,16.8,0,0,1,.9-3.2,19.5,19.5,0,0,1,1.6-2.8A2.1,2.1,0,0,0,32.7,5.6Z" style="fill:#a7bfee"/><path d="M32.4,6.1c-.7-.8-2.1-1.2-2.9-1.7s-1.4-1.7-2.6-2a14.7,14.7,0,0,0-4.2.5c-.7.2-1.2-.2-1.9-.3s-1.3-.6-1.9-.7a6.5,6.5,0,0,0-3.4.1c-1.7.4-3.5.9-5.1.5s-2.5-.8-3.6,0-1,.7-1.5,1.1S4.5,4.7,3.9,5A3.3,3.3,0,0,0,1.7,6.6c-.6.8-.2,1.5.7,1.6s2.5-.3,3.8.2h.2a5.4,5.4,0,0,0,3.3.6c1.4-.2,2.8-1.1,4.2-1s2.3,1.2,3.6,1.5a6.8,6.8,0,0,0,3.7-.3,6.4,6.4,0,0,1,3.6-.6c1.1.2,2,.6,3.1.7h.5a4.1,4.1,0,0,0,4.3-1.7C33.2,7.2,32.8,6.6,32.4,6.1Z" style="fill:#fff"/><path d="M29.8,6.7a2.3,2.3,0,0,0-1.8.9c0-.1-.1-.2-.1-.3a3,3,0,0,0-2.6-1.2.8.8,0,0,0,.2-.5,3.9,3.9,0,0,0,.6-1.1c0-.2-.2-.4-.4-.3a2.8,2.8,0,0,0-.8,1.1,1.9,1.9,0,0,0-.3.9H23.5c-1.9.1-3.5-.8-5.4-.9H16.8a1.7,1.7,0,0,0,.1-.7c.1-.3.3-.6.1-1h-.2c-.4.2-.4.7-.5,1.1v.8L15,5.8a21.7,21.7,0,0,1-3.6.1,6,6,0,0,0-2.6.5,6.6,6.6,0,0,0-1.2-3c0-.1-.2,0-.2.1a5.8,5.8,0,0,0,.4,1.9l.3,1.2A4.1,4.1,0,0,0,7,7.3l-.5-.5A1,1,0,0,0,6,6.4c-.1-.2-.3-.2-.5-.3s-.3,0-.2.1a1,1,0,0,0,.4.5l.4.5.4.6c-.1.2-.3.4-.3.6h.2a5.4,5.4,0,0,0,3.3.6c1.4-.2,2.8-1.1,4.2-1s2.3,1.2,3.6,1.5a6.8,6.8,0,0,0,3.7-.3,6.4,6.4,0,0,1,3.6-.6c1.1.2,2,.6,3.1.7a2.8,2.8,0,0,0,.3-1.3l.7-.5a1.8,1.8,0,0,0,.9-.6C29.9,6.9,29.9,6.7,29.8,6.7Z" style="fill:#fff2be"/><path d="M12.9,27.1c-2.4-1.6-3.2-4.9-3.5-7.6s-.3-6.3-.7-9.5H8.6c-.1,1.8-.1,3.6-.1,5.4a45.2,45.2,0,0,0,.2,5.2,8.9,8.9,0,0,0,4.1,6.6C12.9,27.3,13,27.2,12.9,27.1Z" style="fill:#5576b4"/><path d="M18,11.3h0c-.2,2.5-.2,5-.2,7.5s-.3,4.9-.4,7.4c0,.2.2.2.3,0a25.9,25.9,0,0,0,.9-7.4A38,38,0,0,0,18,11.3Z" style="fill:#5576b4"/><path d="M26.2,10.8c0-.1-.2-.2-.3,0-.5,3-.6,6-1.1,9a17.1,17.1,0,0,1-1.3,3.8,11.9,11.9,0,0,1-2.3,3.1.2.2,0,0,0,.1.3c2.5-1,3.7-3.9,4.2-6.3A35.6,35.6,0,0,0,26,16C26.1,14.3,26.2,12.5,26.2,10.8Z" style="fill:#5576b4"/><path d="M22,29.3l-2.1,1a8.5,8.5,0,0,1-2.3.3,22.5,22.5,0,0,1-5.1-1.3c-.1,0-.1.1-.1.2a7.5,7.5,0,0,0,5.3,1.8c1.5,0,3.6-.4,4.4-1.9Z" style="fill:#5576b4"/><path d="M13.8,31.1a6.4,6.4,0,0,0-.8,1.4c-.2.5-.5.9-.7,1.5s.1.1.1,0a3.2,3.2,0,0,0,1-1.3,3.2,3.2,0,0,0,.6-1.5C14,31.1,13.9,31,13.8,31.1Z" style="fill:#5576b4"/><path d="M16.5,32.4c0-.2-.2-.1-.3,0a5.3,5.3,0,0,0-.2,2.5c0,.1.2.2.2,0A5.4,5.4,0,0,0,16.5,32.4Z" style="fill:#5576b4"/><path d="M21,34.4a21.3,21.3,0,0,0-.8-2.7c-.1-.2-.3-.1-.3.1a4.3,4.3,0,0,0,.8,2.7C20.8,34.7,21,34.6,21,34.4Z" style="fill:#5576b4"/><path d="M23.5,31.1l-.5-.4a.9.9,0,0,0-.5-.3c-.1-.1-.2,0-.2.1l.5.5.5.3Z" style="fill:#5576b4"/><path d="M11.5,30.1s-.2.1-.2.2l-.3.2-.5.6c-.1.2.2.3.3.2l.5-.5c.1-.1.2-.2.2-.3s.2-.1.2-.3S11.7,30,11.5,30.1Z" style="fill:#5576b4"/><path d="M29.6,3.2a4.7,4.7,0,0,0-3-1.8c-1.4-.2-2.7.4-4.1.6s-2.8-.7-4.3-.9a8.6,8.6,0,0,0-4.2.4,14.1,14.1,0,0,1-2.2.6,9.5,9.5,0,0,1-2.3-.5,4.6,4.6,0,0,0-3.6.7A23.4,23.4,0,0,1,2.8,4.7c-.8.5-1.6,1.1-1.7,2a1.3,1.3,0,0,0,.4,1.6c.9.7,2.1.4,3.1.4a6,6,0,0,1,2.2.4,9.5,9.5,0,0,0,1.8.6A8.7,8.7,0,0,0,12.1,9a4.8,4.8,0,0,1,1.8-.4,5.3,5.3,0,0,1,2,.7,5.2,5.2,0,0,0,3.6.9C20.9,9.9,22,9,23.4,8.9s2.7.7,4,1,5.5.1,6.1-2.4S30.9,4.5,29.6,3.2Zm1.8,5.5a5,5,0,0,1-3.6.4,18.9,18.9,0,0,0-3.4-.9,5.6,5.6,0,0,0-3.1.4,5.3,5.3,0,0,1-3.5.6c-1.1-.3-2-1.1-3.1-1.4s-4.5,1.6-6.9.8L5.9,8H2.3a.9.9,0,0,1-.6-.4C1.7,7.5.9,6.4,4.2,5c.9-.3,1.4-1.3,2.1-1.8a3.1,3.1,0,0,1,3.3-.5,6.7,6.7,0,0,0,3.2.4c1.2-.2,2.3-.8,3.5-.9a7.8,7.8,0,0,1,3.7.6,6,6,0,0,0,3.5.1c1.2-.2,2.4-.7,3.6-.3s1.7,1.3,2.5,1.9A18.3,18.3,0,0,1,32,5.8C33.1,6.7,32.4,8.1,31.4,8.7Z" style="fill:#ffc74e"/><path d="M21.2,8.9l-2.6.5a5.5,5.5,0,0,1-2.5-.7A6.7,6.7,0,0,0,14.3,8a2.3,2.3,0,0,0-1.6.3h.1c1.6-.4,3,.8,4.4,1.2a5.1,5.1,0,0,0,4-.7Z" style="fill:#ffe983"/><path d="M29.8,9.4a7.9,7.9,0,0,1-2.2-.1l-2.1-.6c-.1-.1-.2.1-.1.1s3.2,1.7,4.4.7Z" style="fill:#ffe983"/><path d="M29.9,4.1l-.3-.3-.3-.4c-.1,0-.2,0-.2.1a1.3,1.3,0,0,0,.3.5c.1.1.2.3.4.2S29.9,4.2,29.9,4.1Z" style="fill:#ffe983"/><path d="M4.7,4A14.6,14.6,0,0,0,2.2,5.3,2,2,0,0,0,1.2,7c0,.1.1.2.2.1S3.7,5,4.8,4.1Z" style="fill:#ffe983"/><path d="M22.6,28.7a26.7,26.7,0,0,0-2.6.9,24,24,0,0,1-2.8.3,13.1,13.1,0,0,1-5-1.5h-.1a6.5,6.5,0,0,0,5,2.1,9.2,9.2,0,0,0,2.9-.4,7.5,7.5,0,0,0,2.7-1.3C22.8,28.8,22.7,28.7,22.6,28.7Z" style="fill:#ffc74e"/><path d="M15.6,29.9a21.3,21.3,0,0,1-2.7-.8c-.1,0-.1.1,0,.1a2.9,2.9,0,0,0,2.7.9Z" style="fill:#ffe983"/><path d="M25.5,32.7a2.9,2.9,0,0,1-.2-.9,6.6,6.6,0,0,1,.1-1.4c.2-1.2-1.8-1.6-2.8-1.6l.7.2a3.1,3.1,0,0,1,1.5.8c.3.6,0,1.1,0,1.7a5.3,5.3,0,0,1,.1,1.3c0,.7-.4.9-1,1.1s-2.3,2.8-4.3,2.6-1.7-.5-2.6-.6a11.7,11.7,0,0,0-2.7.4c-1.1.2-1.5-.8-2-1.5a2.2,2.2,0,0,0-1.5-1c-.7-.2-1.3-.3-1.2-1.1a9.4,9.4,0,0,1,.4-1.6c0-.5-.3-1.3.1-1.8a3.7,3.7,0,0,1,1.4-.7l.5-.2c-.8-.3-2.3,0-2.6.9s.1,1.2,0,1.8-.5,1.2-.4,1.8.9,1.3,1.8,1.5,1.3,1.5,2.1,2.2,2.1,0,3.2-.1,2.4.6,3.6.7A3.3,3.3,0,0,0,22.4,36l1.2-1.2c.4-.3,1-.4,1.4-.8A1.5,1.5,0,0,0,25.5,32.7Z" style="fill:#ffc74e"/><path d="M10.9,28.5a1.7,1.7,0,0,0-1.2.5.9.9,0,0,0-.1,1h0c-.1-.8.7-1.1,1.3-1.4Z" style="fill:#ffe983"/><path d="M25.2,32.7h-.1a1.2,1.2,0,0,1-.6,1.1l-.9.4a2,2,0,0,0-1.1,1.3h0a8.7,8.7,0,0,1,1.1-.9l1-.5A1.2,1.2,0,0,0,25.2,32.7Z" style="fill:#ffe983"/><path d="M41.9,10.2c0-.1-.1-.2-.3-.2s-2.4-.7-3.5-1.1a4.5,4.5,0,0,0-2.3-.3l-.7.2c-1.9.7-2.8,2.9-4.8,3.3-.1,0-.1.1-.1.2s-.8,1.5-.1,1.8,1.2-.2,1.6-.4a9.5,9.5,0,0,0,1.7-1c.9-.7,1.7-2,2.9-2.1h.6c1,.3,1.8,1,2.8,1a5.8,5.8,0,0,0-1.1,3.1,2.9,2.9,0,0,1-.6,2.2l-.8.5-1.1.3A8.3,8.3,0,0,0,32.7,19c-1,.7-1.8,1.8-2.9,2.1s-.5-.4-.7-.3H29c-.6.4-.6,1.4-.8,2s.1.3.2.3a5.4,5.4,0,0,0,3.3-.8A4.5,4.5,0,0,0,33,21.3c.4-.5.9-1.4,1.6-1.3s1.4,1.3,2.1.6a1.4,1.4,0,0,0,.2-1.6,3.6,3.6,0,0,0,2-.6,3.5,3.5,0,0,0,1.6-1.8,11.9,11.9,0,0,0,.5-3.2,5.9,5.9,0,0,1,.5-1.9A2.8,2.8,0,0,0,41.9,10.2Z" style="fill:#a7bfee"/><path d="M30.3,11.7a1.9,1.9,0,0,0-1,1.6c0,.5.4,1.1.9.8h0c-1.1-.2-.3-1.7.2-2.2Z" style="fill:#5576b4"/><path d="M29.3,21.2a1.4,1.4,0,0,0-1.2,2.2c.1.1.1,0,.1,0a1.7,1.7,0,0,1,1.1-2.1Z" style="fill:#5576b4"/><path d="M41.9,10.2c0-.1-.1-.2-.3-.2s-2.4-.7-3.5-1.1a4.5,4.5,0,0,0-2.3-.3,3.1,3.1,0,0,0,.5,2h.6c1,.3,1.8,1,2.8,1a5.8,5.8,0,0,0-1.1,3.1,2.9,2.9,0,0,1-.6,2.2l-.8.5a1.2,1.2,0,0,0,.4.8,2,2,0,0,0,1.3.2,3.5,3.5,0,0,0,1.6-1.8,11.9,11.9,0,0,0,.5-3.2,5.9,5.9,0,0,1,.5-1.9A2.8,2.8,0,0,0,41.9,10.2Z" style="fill:#ffc74e"/><path d="M40.3,10.3A21.8,21.8,0,0,0,38,9.4c-.5-.2-1-.5-1.5-.3s-.1,0,0,.1,2.5,1.5,3.7,1.2Z" style="fill:#ffe983"/><path d="M41.4,10.4H41c-.1,0-.1.2,0,.2h.4Z" style="fill:#ffe983"/><path d="M40.2,13.3a.2.2,0,0,0-.3,0l-.3,2a14.5,14.5,0,0,1-.9,2.2c0,.1.1.2.2.1A5.2,5.2,0,0,0,40.2,13.3Z" style="fill:#ffe983"/><path d="M37.8,18.7l-1,.2h-.1c.2.7.1,1.5-.7,1.4s-1-.3-1.5-.3a1.4,1.4,0,0,0-1.2.6l-1.9,1.9c-.8.9-1.8,1.8-3.1,1.4s-.2,0-.2.1c-1.1,2.4-4,2.7-5.7,4.5h.1l3.7-2a4.7,4.7,0,0,0,2.2-2.4,2.6,2.6,0,0,0,2.6-.8A19,19,0,0,0,33.4,21c0-.1.1-.2.3-.2s.8-.3,1.4-.1a1.7,1.7,0,0,0,1.4.2,1.2,1.2,0,0,0,.5-1.8c.3-.1.6-.1.8-.3S37.8,18.7,37.8,18.7Z" style="fill:#5576b4"/><path d="M12,28.5l-.2-.3h-.1a4.2,4.2,0,0,0-2.1-1.6,10.2,10.2,0,0,1-2.1-1L7,24.9,6.3,24C5,21.4,5.2,18.3,4.8,15.5H4.7A13.6,13.6,0,0,0,4.8,20a13,13,0,0,0,.9,3.9A4.7,4.7,0,0,0,8,26.4l.7.3.5.2,1.5.7H11l.4.4.3.4C11.8,28.8,12,28.7,12,28.5Z" style="fill:#5576b4"/><path d="M5.9,12.2A5,5,0,0,0,4.3,9.6c-.2,0-.3.1-.3.2s.7,1.9,1,2.9a12.5,12.5,0,0,0,1,2.7h.2A4.5,4.5,0,0,0,5.9,12.2Z" style="fill:#fff"/><path d="M7.1,19.6a5,5,0,0,0-.2-1.2c0-.4-.7-.4-.6,0a2.7,2.7,0,0,0,.2,1.3c.1.3.2.7.5.8a.1.1,0,0,0,.1-.1C7.3,20.2,7.2,19.9,7.1,19.6Z" style="fill:#fff"/><path d="M8.3,23.5c-.1,0-.2,0-.2.1s.1.3.3.3h.1C8.5,23.7,8.4,23.6,8.3,23.5Z" style="fill:#fff"/><path d="M32.7,11.6l-.9.4-.4.3-.3.3c-.1.1,0,.2.1.3a1.7,1.7,0,0,0,1-.3,1.6,1.6,0,0,0,.7-.9Z" style="fill:#fff"/><path d="M34.5,9.8h-.3L34,10a.4.4,0,0,0-.1.3v.2h.4l.2-.2c.1,0,.1-.1.1-.2h0C34.8,9.9,34.7,9.8,34.5,9.8Z" style="fill:#fff"/><path d="M35.1,18.9a.3.3,0,0,0-.3-.3h-.5a.8.8,0,0,0-.2.4c.1.2.2.3.4.3l.5-.2A.2.2,0,0,0,35.1,18.9Z" style="fill:#fff"/><path d="M16.9,1h1.3c1.3.2,2.5.9,3.8.9h.5a22.5,22.5,0,0,1,3.6-.6h.5a4.7,4.7,0,0,1,3,1.8c1.3,1.3,4.4,1.7,3.9,4.3a2.9,2.9,0,0,1-1,1.6c-.4.6-1,1.7-1.3,2.3s-.1.3-.1.4c1.5-.7,2.4-2.4,4-3l.7-.2h.7a4.5,4.5,0,0,1,1.6.3c.9.3,1.8,1.2,2.9,1.2h.7l.2.2a2.8,2.8,0,0,1-.4,1.3,5.9,5.9,0,0,0-.5,1.9,11.9,11.9,0,0,1-.5,3.2,3.5,3.5,0,0,1-1.6,1.8,2.9,2.9,0,0,1-1.3.5.8.8,0,0,1-.6.2,1.2,1.2,0,0,1-.5,1.8h-.4a2.9,2.9,0,0,1-1-.3l-.8-.2a.9.9,0,0,0-.6.3c-.2,0-.3.1-.3.2A19,19,0,0,1,31,23.5a2.8,2.8,0,0,1-2,.9h-.6l-.2.3a5,5,0,0,1-2,2.1c-1.1.7-2.4,1.2-3.6,1.9h0c.1,0,.1,0,.1.1h.1c1,.1,2.7.5,2.6,1.6a6.6,6.6,0,0,0-.1,1.4,2.9,2.9,0,0,0,.2.9A1.5,1.5,0,0,1,25,34c-.4.4-1,.5-1.4.8L22.4,36A3.5,3.5,0,0,1,20,37.2h-.3c-1.1-.1-2.2-.7-3.3-.7h-.3a17,17,0,0,1-2.2.4,1.9,1.9,0,0,1-1-.3c-.8-.7-1-1.9-2.1-2.2S9,34,9,32.9s.3-1.2.4-1.8-.2-1.2,0-1.8,1.1-1,1.9-1h.2a.1.1,0,0,1-.1-.1l-.4-.4a.1.1,0,0,1-.1-.1l-.4-.2-1-.5H9.2l-.5-.2L8,26.4a4.7,4.7,0,0,1-2.3-2.5A13,13,0,0,1,4.8,20a15.3,15.3,0,0,1-.2-3.7,8.8,8.8,0,0,0-.2-1.7,29.9,29.9,0,0,0-1-3.2A13.4,13.4,0,0,0,1.6,8.5c-.2-.1-.2-.3-.3-.4a1.4,1.4,0,0,1-.2-1.4c.1-.9.9-1.5,1.7-2A23.4,23.4,0,0,0,5.9,2.3a4.6,4.6,0,0,1,2.5-.8H9.5a8.6,8.6,0,0,0,2.3.5h0A14.1,14.1,0,0,0,14,1.5,9.8,9.8,0,0,1,16.9,1M30.4,14.1h0c0,.2-.1.3-.1.5-.5,2.1-.3,4.3-.7,6.5h.2c1.1-.3,1.9-1.4,2.9-2.1a8.3,8.3,0,0,1,3.4-1.3l1.1-.3.8-.5a2.9,2.9,0,0,0,.6-2.2,5.8,5.8,0,0,1,1.1-3.1h-.1c-.9,0-1.7-.7-2.7-1h-.6c-1.2.1-2,1.4-2.9,2.1a9.5,9.5,0,0,1-1.7,1,2.5,2.5,0,0,1-1.3.4M34,20.2h.9l-.3-.2h-.1l-.5.2m-5.1,3.9a3.9,3.9,0,0,0,2.5-1.5h.1a5.5,5.5,0,0,1-2.5.7,2,2,0,0,1-.4.8h.3M16.9,0a9.5,9.5,0,0,0-3.2.6h-.3l-1.6.4h0A8,8,0,0,1,10.3.8H9.7L8.4.5a4.7,4.7,0,0,0-3,1,6.3,6.3,0,0,0-1.2,1A13.3,13.3,0,0,1,2.3,3.9,3.7,3.7,0,0,0,.1,6.5,2.5,2.5,0,0,0,.4,8.6l.5.6a22.2,22.2,0,0,1,1.6,2.5,21.2,21.2,0,0,1,.9,3.1c.1.4.1.9.2,1.5a16.2,16.2,0,0,0,.2,3.9,12.3,12.3,0,0,0,1,4.1,5.5,5.5,0,0,0,2.8,3l.7.3.6.3h.2a2.3,2.3,0,0,0-.7,2.5V31a4.3,4.3,0,0,0-.1.5A3.2,3.2,0,0,0,8,32.9c0,1.8,1.5,2.2,2.3,2.4h.2c.3,0,.4.2.8.8a4.4,4.4,0,0,0,.9,1.1,2.7,2.7,0,0,0,1.7.6l1.5-.2.8-.2h.2l1.5.3,1.7.4H20a4.3,4.3,0,0,0,3.1-1.5l.3-.3a6,6,0,0,1,.8-.8l.5-.2,1-.6a2.7,2.7,0,0,0,.8-2.3.9.9,0,0,1-.1-.5c-.1-.1-.1-.2-.1-.4v-.5c.1-.1.1-.3.1-.6a1.8,1.8,0,0,0-.4-1.4l-.9-.7,1.7-.9a7,7,0,0,0,2.1-2.1H29a4.5,4.5,0,0,0,2.7-1.1,33.3,33.3,0,0,0,2.4-2.6h.1a.1.1,0,0,0,.1-.1h.4a2.9,2.9,0,0,0,1.4.4l.7-.2A1.9,1.9,0,0,0,38,20.7a2.9,2.9,0,0,0,.2-.9l1.2-.5a5.5,5.5,0,0,0,2-2.3,8.6,8.6,0,0,0,.5-2.7,2.2,2.2,0,0,1,.1-.8,4.7,4.7,0,0,1,.4-1.6,2.9,2.9,0,0,0,.5-1.7A1.3,1.3,0,0,0,41.7,9H41a3,3,0,0,1-1.4-.5,3.5,3.5,0,0,0-1.2-.7,5.8,5.8,0,0,0-1.9-.3h-.8l-.9.3h-.5a.4.4,0,0,0,.1-.3C35,5.2,33,4.1,31.7,3.4a5.6,5.6,0,0,1-1.4-.9h-.1a5.6,5.6,0,0,0-3.5-2h-.6L23.7.7,22.4,1H22A7.2,7.2,0,0,1,20.1.6L18.4.1ZM31.2,15l.8-.3h.1a8.2,8.2,0,0,0,2-1.2l.8-.7c.5-.5,1-1.1,1.5-1.1h.3l.9.4.6.3a8.6,8.6,0,0,0-.6,2.3v.2a2.6,2.6,0,0,1-.3,1.4l-.5.3-.9.2a9.3,9.3,0,0,0-3.7,1.5l-1.3,1h-.1c0-.4.1-.7.1-1a17.6,17.6,0,0,1,.3-3.3Z" style="fill:#502390"/></g></g></svg>