<svg xmlns="http://www.w3.org/2000/svg" viewBox="0 0 72 58.7"><g id="Layer_2" data-name="Layer 2"><g id="Layer_1-2" data-name="Layer 1"><path d="M24.1,49.9c-.1-4-.1-8-.2-12.1,0-.7-1.2-.7-1.2.1L23,49.6l-3.8-.4c-.7-.1-.6,1.1.1,1.1l2.7.3-.4.2-2,.9c-.7.4,0,1.3.6,1l1.9-.9,1.2-.6a20.6,20.6,0,0,1-.3,2.6c-.1.7,1,1,1.1.3a23.1,23.1,0,0,0,.3-3.7A.5.5,0,0,0,24.1,49.9Z" style="fill:#e08d63"/><path d="M52.8,30.2c0,1.3,1.5,2.3,2.4,1.2,3.5-4.1,7.4-9.6,5.4-15.1-.7-1.9-3.6-1.8-4.7,0-2.1,4.4-2.1,9.3-3.1,13.9Z" style="fill:#c64f64"/><path d="M53.8,29.7c-1,.9-.7,2.8.8,2.8,5.9-.2,13.3-1.2,16.2-6.8,1-2-1.2-4.3-3.4-3.8-5.2,1.5-9.2,5.1-13.6,7.8Z" style="fill:#c64f64"/><path d="M53,29.9c-.6,1.5.8,3.2,2.3,2.4C61.1,28.9,68,24,67.9,16.8c-.1-2.5-3.5-3.7-5.4-2C58,19.1,56,24.8,53,29.9Z" style="fill:#fb7f99"/><path d="M7.2,9.3A19.6,19.6,0,0,1,8.9,6.1a12.8,12.8,0,0,1,2.6-2.6,12.4,12.4,0,0,1,3.4-1.8l1.8-.5C23.8.1,30.6,3.7,35,8.8l1.4,1.7c3.2,4.1,5.5,9,9,13l1.7,1.6C50,27.6,53.3,29,57,27.7l.8-.5h.3c.9.1,1.1,1,.9,1.7s-.1.2-.1.3A20,20,0,0,1,57,31.4l-1.5,1.3c-4.5,4.5-9.9,8.8-16.5,10l-2.5.3c-11.7,1.1-24-4.1-28.7-15.8a24.2,24.2,0,0,1-1.2-3.5A22.2,22.2,0,0,1,7.2,9.3Z" style="fill:#fbabbc"/><path d="M11.5,22.7a20.2,20.2,0,0,1,8.5.7,11.9,11.9,0,0,1,3.8,1.7,10.3,10.3,0,0,1,2.7,2.8,18.5,18.5,0,0,0,6.2,4.8,14.8,14.8,0,0,0,7.4,2.1c1.3,0,2.9-.3,4.2.2s1.2,1.8,1.2,2.9a6.4,6.4,0,0,1-.6,2.8,22.8,22.8,0,0,1-5.9,2l-2.5.3c-11.7,1.1-24-4.1-28.7-15.8l-1-2.7C7.8,23.3,9.9,22.9,11.5,22.7Z" style="fill:#ffdce5"/><path d="M30.2,18.5a15.2,15.2,0,0,1-3.6,3.1A22.2,22.2,0,0,1,23.4,23c6.4,4,14.5,7.8,21.5,4.2,2.7-1.5,2.1-5.6-.7-6.9C39.6,18.7,34.9,18.6,30.2,18.5Z" style="fill:#c64f64"/><path d="M26.6,21.6l-3,1.4c3.1,7,7.7,14.2,15.5,15.4,3.3.4,5.4-3.7,3.8-6.6-3.7-5.2-8.7-8.7-13.6-12.3A17.8,17.8,0,0,1,26.6,21.6Z" style="fill:#c64f64"/><path d="M30,18.7a13.1,13.1,0,0,1-3.4,2.9l-2.7,1.3C29.6,30,35.6,36,45.2,34.8c3.7-.6,4.8-5.8,2-8.4C41.5,21.7,36.5,21.2,30,18.7Z" style="fill:#fb7f99"/><path d="M1.1,8c.2.4.8.5,1.1.6L5,9.5l1.1.4a7.3,7.3,0,0,0,3.6.7c1.9-.2,2.4-3.1.6-4A7,7,0,0,0,6.8,6l-2,.2a20.5,20.5,0,0,0-2.4.5C1.9,6.8.7,7.3,1.1,8Z" style="fill:#1d262d"/><path d="M31.7,53.1,31.4,41c0-.7-1.1-.7-1.1.1.1,3.9.1,7.8.2,11.7l-3.7-.4c-.7-.1-.7,1,0,1.1l2.7.3-.3.2-2,.9c-.7.4-.1,1.3.6,1l1.8-.9,1.2-.6a11.5,11.5,0,0,1-.3,2.6c-.1.7,1,1,1.2.3a23.1,23.1,0,0,0,.3-3.7A.9.9,0,0,0,31.7,53.1Z" style="fill:#e08d63"/><path d="M17.5,4.1c4.3,1.1,2.7,7.8-1.7,6.8S13.1,3,17.5,4.1Z" style="fill:#fff"/><path d="M17.2,5.3c2.8.7,1.7,5.1-1.1,4.4S14.4,4.6,17.2,5.3Z" style="fill:#1d262d"/><path d="M16,5.9a.9.9,0,0,0,0,1.7C17.1,7.5,17,5.8,16,5.9Z" style="fill:#fff"/><path d="M19.4,1C25.5,1,31.2,4.3,35,8.8l1.4,1.7c2.3,2.9,4.1,6.2,6.2,9.3l1.6.5a4.3,4.3,0,0,1,2.4,4.3l.5.5a11,11,0,0,0,6.1,3c.6-4,.9-8.1,2.7-11.8a3,3,0,0,1,2.5-1.4,2.4,2.4,0,0,1,2.2,1.4.8.8,0,0,1,.1.4,16.2,16.2,0,0,1,1.8-1.9,3.4,3.4,0,0,1,2.1-.8,3.1,3.1,0,0,1,3.3,2.8,10.1,10.1,0,0,1-1.3,5.4l.8-.3H68c2,0,3.7,2.1,2.8,3.9-2.7,5.2-9.3,6.4-14.9,6.7l-.4.3a40,40,0,0,1-10.6,8h0l-1.3.6h-.2l-1.2.4-.4.2-1,.3h-.4l-1.4.3-2.5.3h-5c.1,3.3.1,6.7.2,10a.9.9,0,0,1,.3.5,23.1,23.1,0,0,1-.3,3.7.5.5,0,0,1-.5.4.7.7,0,0,1-.7-.7,11.5,11.5,0,0,0,.3-2.6l-1.2.6-1.8.9h-.3c-.5,0-.9-.8-.3-1.1l2-.9.3-.2-2.7-.3c-.7-.1-.7-1.1-.1-1.1h.1l3.7.4c0-3.3-.1-6.5-.2-9.8A27.1,27.1,0,0,1,24,41.7c0,2.8.1,5.5.1,8.2a.5.5,0,0,1,.3.5,23.1,23.1,0,0,1-.3,3.7.5.5,0,0,1-.5.4.6.6,0,0,1-.6-.7,20.6,20.6,0,0,0,.3-2.6l-1.2.6-1.9.9h-.3c-.5,0-.9-.8-.3-1.1l2-.9.4-.2-2.7-.3c-.7,0-.8-1.1-.1-1.1h0l3.8.4c-.1-2.8-.1-5.5-.2-8.3-6.6-2.4-12.2-7-15-14.1l-.6-1.6a1.7,1.7,0,0,0-.2-.5,1.4,1.4,0,0,0-.2-.6h0a2.4,2.4,0,0,0-.2-.8,21.5,21.5,0,0,1,.3-13.5l-.8-.3L5,9.5H5L2.2,8.6c-.3-.1-.9-.2-1.1-.6s.8-1.2,1.3-1.3a20.5,20.5,0,0,1,2.4-.5l2-.2H7a6.2,6.2,0,0,1,1.9.2h0a12.8,12.8,0,0,1,2.6-2.6,12.4,12.4,0,0,1,3.4-1.8l1.8-.5L19.4,1m0-1L16.6.2l-2,.5a13.3,13.3,0,0,0-3.7,2A10.9,10.9,0,0,0,8.5,5.1H6.8l-2.2.3H3.9a6.2,6.2,0,0,0-1.8.3c-.7.3-1.7.7-2,1.5A1.5,1.5,0,0,0,.2,8.5a2,2,0,0,0,1.5,1h.2l2.8.9,1,.3A23.7,23.7,0,0,0,5.6,24a.4.4,0,0,1,.1.3h0l.2.5c0,.2.1.3.1.4v.4c.1.1.1.2.2.4l.6,1.6A25.5,25.5,0,0,0,21.8,42v1.7c0,1.6,0,3.2.1,4.8l-1.6-.2H19.2a1.5,1.5,0,0,0-1.5,1.4,1.8,1.8,0,0,0,1,1.6,1.3,1.3,0,0,0-.3,1.3,1.5,1.5,0,0,0,1.5,1.3l.8-.2,1.3-.7h.1a1.7,1.7,0,0,1-.1.7,1.4,1.4,0,0,0,.3,1.3,1.6,1.6,0,0,0,1.3.6,1.6,1.6,0,0,0,1.5-1.2c.1-.4.1-.9.2-1.3a1.7,1.7,0,0,0,.9,1.4,1.4,1.4,0,0,0-.3,1.3A1.8,1.8,0,0,0,27.5,57l.7-.2,1.4-.7h.1c0,.2-.1.5-.1.7a1.4,1.4,0,0,0,.3,1.3,1.6,1.6,0,0,0,1.3.6,1.4,1.4,0,0,0,1.4-1.2,16.7,16.7,0,0,0,.4-3.9,1.6,1.6,0,0,0-.3-.9c-.1-1.9-.1-3.7-.1-5.6s-.1-2-.1-3h4.1l2.6-.3,1.5-.4h.4l1.1-.3h.4l1.2-.5h.1l1.5-.6a42.1,42.1,0,0,0,10.8-8.1h.1c5.3-.3,12.4-1.5,15.4-7.2a3.7,3.7,0,0,0-.2-3.4,4.3,4.3,0,0,0-3.2-2,10.8,10.8,0,0,0,.6-4A4.1,4.1,0,0,0,64.6,13a4.8,4.8,0,0,0-2.8,1h0l-.9.9a3.3,3.3,0,0,0-2.5-1.1,3.7,3.7,0,0,0-3.3,1.9H55c-1.6,3.3-2,6.8-2.5,10.1,0,.4-.1.7-.1,1a10.1,10.1,0,0,1-4.7-2.6h-.1a5.2,5.2,0,0,0-3-4.8h-.1L43.2,19l-2-3.2c-1.3-2-2.6-4-4-5.9L35.7,8.1C31.4,3.1,25.3,0,19.4,0Zm5.7,49.5c0-2-.1-4-.1-6.1V43a31.2,31.2,0,0,0,4.4.9v3.3c.1,1.5.1,3,.1,4.4H26.7a1.4,1.4,0,0,0-1.4,1,12.7,12.7,0,0,0,.1-2,1.6,1.6,0,0,0-.3-.9Z" style="fill:#c64f64"/></g></g></svg>