<svg xmlns="http://www.w3.org/2000/svg" viewBox="0 0 193 156.1"><g id="Layer_2" data-name="Layer 2"><g id="Layer_1-2" data-name="Layer 1"><path d="M19.6,139.4c-20.9-15.6-22.7-73-1.7-105.9S71.6-4.2,95.7,11.9,121.1,39.3,158.8,60s43.2,66.2,6.1,79.4S50,162.1,19.6,139.4Z" style="fill:#ffaa5a"/><path d="M96.9,115.5c-62.1-.3-83.5-22.6-93.4-36.6-2.4,25.7,3.3,51,16.1,60.5,30.4,22.7,108.2,13.3,145.3,0,27.1-9.7,31.4-36.4,17.2-58.3C170.1,93.9,148.4,115.7,96.9,115.5Z" style="fill:#ff8d3d"/><path d="M121.7,78.9C87.9,82.4,65.2,67.4,65.2,64.2s10,2.2,11.7,0-7.8-13.7-.7-10.5,12.9,9.4,23.2,9.5,11.7-12.1,14.5-8.5,3.2,10.5,9.6,10.1,17.7-7.6,18.8-4.4-12,7.8-7.9,8.2,17.8-2.1,16.6.5S140.1,77,121.7,78.9Z" style="fill:#ff8d3d"/><path d="M126.5,107.6C114.9,87.5,94.4,72.6,84.7,70c-13.1-3.5-20.4-17.5-20-38.4.2-9.9-2.9-21.7-8.9-27.3l-3.3.9c6,4.4,9.3,16.2,9.1,26.3-.3,22.2,7.7,37.1,22.1,40.9,8.2,2.2,28.5,16.2,40,36.3,7.7,13.4,9.9,26.9,6.6,39.6l3.3-.6C136.6,134.7,134.2,121.1,126.5,107.6Z" style="fill:#ffeb81"/><path d="M142.7,67.5c12.3-1,21.8-.9,29.4,2-1.5-1.4-3.2-2.7-4.9-4-7-1.4-15.2-1.3-24.8-.5s-13.7-8.1-19.3-20.4A161.3,161.3,0,0,0,114,26.5c-2.7-2.5-5.4-5-8.6-7.6,7,9.1,11.3,18.6,14.9,26.6C126.1,58.4,130.6,68.5,142.7,67.5Z" style="fill:#ffeb81"/><path d="M142.3,113.9l12.7-1.8c16.3-2.1,27.4-3.6,35-7.7a16.3,16.3,0,0,0-.3-3.1c-7.1,4.5-18.2,6-35.1,8.3l-12.9,1.7c-33.3,4.8-53.5,17.5-64.6,27.2a80.7,80.7,0,0,0-12.7,14.1l3.5.2C76,141.6,97,120.4,142.3,113.9Z" style="fill:#ffeb81"/><path d="M67.2,3a51.3,51.3,0,0,1,28.5,8.9,106.9,106.9,0,0,1,9.7,7h0l2.2,1.9.3.2,1.9,1.6.2.2c12.6,11.1,20.2,21.4,48.8,37.2a71.6,71.6,0,0,1,8.4,5.5h0a62.6,62.6,0,0,1,14.9,15.6h0a54.5,54.5,0,0,1,3.5,6.2h0c.6,1.4,1.2,2.8,1.7,4.2h.1c.5,1.4.9,2.8,1.3,4.2h0a33.8,33.8,0,0,1,.9,4.1v.2c0,.3.1.7.1,1h0a7.7,7.7,0,0,1,.2,1.5h0c0,.5.1,1,.1,1.5h0v2.2h0v2a.3.3,0,0,1-.1.2c0,.6-.1,1.2-.1,1.8a.3.3,0,0,1-.1.2,6.9,6.9,0,0,1-.3,2h0a11.6,11.6,0,0,1-.4,1.8v.2l-.6,1.9h0l-.6,1.7c0,.1-.1.2-.1.3a35.4,35.4,0,0,1-1.6,3.4l-.2.4-.9,1.5h-.1c-.3.5-.7,1-1,1.6l-.3.3a14.7,14.7,0,0,1-1,1.3c-.1.1-.1.2-.2.2l-1.3,1.5-.3.3-1.2,1.2-.2.2-1.5,1.3-.4.3-1.3,1-.4.3-1.7,1.2-.3.2-1.6.9-.5.3-1.9,1h-.3l-1.8.8-.6.3-2.2.8a208.4,208.4,0,0,1-26.9,7.4l-4.8,1-2.4.4-9.9,1.7-2.6.4-5.1.6a43.5,43.5,0,0,1-5.2.6l-5.2.6-2.6.2-5.2.3-2.7.2-5.2.2H71.7c-5.1-.2-10-.5-14.8-1.1l-4.7-.7A94.8,94.8,0,0,1,41.1,149L37,147.8l-5.8-2-3.6-1.6-5-2.7-3-2.1-1.1-.8-.3-.3-.7-.7-.4-.3-.7-.7-.3-.4-.8-.9c-.1,0-.1-.1-.2-.2l-.9-1.2-.3-.3-.6-.9-.3-.5-.6-.9-.3-.4-.6-1.1-.2-.3-.8-1.5h0a6.1,6.1,0,0,1-.7-1.4c-.1-.2-.2-.3-.2-.5a5.4,5.4,0,0,1-.5-1.1l-.2-.5a5,5,0,0,1-.5-1.3l-.2-.4-.6-1.6h0L7,119.2c0-.1-.1-.2-.1-.3l-.5-1.5a.9.9,0,0,0-.1-.5,7.4,7.4,0,0,0-.4-1.4.9.9,0,0,0-.1-.5c-.1-.5-.3-1.1-.4-1.7v-.2c-.3-1.3-.6-2.6-.8-4a.4.4,0,0,1-.1-.3L4.2,107v-.4l-.3-1.8v-.3c-.2-1.4-.4-2.9-.5-4.4h0c-.1-.7-.1-1.4-.2-2.1v-.3c0-.7-.1-1.4-.1-2v-.3C3,93.2,3,90.9,3,88.5H3a16.2,16.2,0,0,1,.1-2.2V86c.1-2.4.2-4.7.4-7.1h0C5.1,62.6,9.8,46.2,17.9,33.5,27.6,18.4,39.8,9.2,52.5,5.2h0l1.2-.3,1.4-.4A50.1,50.1,0,0,1,67.2,3M3.5,78.9h0M67.2,0V0A51.8,51.8,0,0,0,54.3,1.6L52.9,2l-1.2.4C37.5,6.7,25,17,15.4,31.9,7.5,44.3,2.2,60.8.6,78.6H.5C.3,81,.2,83.5.1,85.9v.2A17,17,0,0,0,0,88.3H0c0,2.4,0,4.7.1,7.1h0a14.8,14.8,0,0,1,.1,2.1h0v.2c0,.7.1,1.4.1,2.1h0c.1,1.5.3,3,.5,4.5v.2h0l.3,1.9v.4a11,11,0,0,0,.2,1.8h.1v.2c.3,1.4.5,2.8.8,4.2h.1c.1.6.3,1.2.4,1.8v.3H3a8.3,8.3,0,0,1,.4,1.5l.2.5.4,1.6h.1v.2a14.6,14.6,0,0,0,.7,1.9h0l.6,1.7v.3h.1a5,5,0,0,0,.5,1.3c.1.2.1.4.2.5a6.9,6.9,0,0,1,.5,1.3h.1l.2.3c.2.6.5,1.1.7,1.6h0l.9,1.6v.3h.1l.6,1.1.3.5a6.1,6.1,0,0,1,.7,1h0l.3.5.7,1h.1l.2.2a6.4,6.4,0,0,0,1,1.3l.2.2h0l.9.9.3.4h0l.8.8.4.4.8.7h.1l.3.3,1.2.9A36.2,36.2,0,0,0,21,144a52.5,52.5,0,0,0,5.3,2.9l3.7,1.6,6.1,2.2,4.3,1.2a109.2,109.2,0,0,0,11.4,2.3l4.7.7c4.8.5,9.8.9,15.1,1.1H87.2l5.3-.2,2.7-.2,5.2-.3,2.7-.3,5.3-.5,5.2-.6,5.2-.7,2.5-.3,10-1.7,2.5-.5,4.8-1a220.5,220.5,0,0,0,27.3-7.4l2.3-.9.6-.3,2-.9h.3l2.1-1.1.4-.2h.1l1.6-1h.1l.3-.2,1.8-1.2.3-.3h.2l1.4-1.2h.1l.3-.3,1.6-1.4.2-.2h.1l1.3-1.2h.1l.2-.3,1.4-1.5v-.2h.1A17.1,17.1,0,0,0,186,128h.1l.2-.3,1.2-1.7h0a12.8,12.8,0,0,0,1-1.7.5.5,0,0,0,.2-.4,25.3,25.3,0,0,0,1.8-3.7v-.4a13.4,13.4,0,0,0,.7-1.8h0l.6-2v-.2h0c.2-.7.3-1.3.5-1.9v-.2q.2-.9.3-2.1h0a12.3,12.3,0,0,0,.2-2h0v-.2a14.8,14.8,0,0,0,.1-2.1h0v-2.1h0c0-.5-.1-1-.1-1.6h0c-.1-.6-.1-1.1-.2-1.6h0c0-.3-.1-.7-.1-1h-.1a35.8,35.8,0,0,0-.9-4.5h0c-.4-1.5-.9-3-1.4-4.5h0c-.6-1.6-1.2-3-1.9-4.5h0a60.2,60.2,0,0,0-3.7-6.5A65.5,65.5,0,0,0,169,63.1a66.3,66.3,0,0,0-8.8-5.7c-22.1-12.2-31.4-21.1-40.4-29.6L112,20.6l-.2-.2h-.1l-1.9-1.6h-.2l-2.3-1.9a119.3,119.3,0,0,0-9.9-7.2A54.1,54.1,0,0,0,67.2,0Z" style="fill:#e84e2c"/></g></g></svg>