<svg xmlns="http://www.w3.org/2000/svg" viewBox="0 0 72.8 72.4"><g style="isolation:isolate"><g id="Layer_2" data-name="Layer 2"><g id="Layer_1-2" data-name="Layer 1"><path d="M11.8,51.5c1.5-2.9,4.3-5.2,7.5-5.4a10.3,10.3,0,0,1,.2,3.9l-.3,2.9a2.4,2.4,0,0,1-.3,1.2,2.7,2.7,0,0,1-.8.7C15.9,55.9,10.2,54.8,11.8,51.5Z" style="fill:#7f776b"/><path d="M58.2,48.5A8.6,8.6,0,0,1,61.7,53a.9.9,0,0,1,.1.5l-.4.3a20.6,20.6,0,0,1-5.5,3.3c-.3.1-.7.3-1,.1l-.5-.5a16.6,16.6,0,0,1-1.9-4.3,8.7,8.7,0,0,1-.5-2.2,6.3,6.3,0,0,1,.4-2.7c.3-.8.4-1.1,1.2-1A11.2,11.2,0,0,1,58.2,48.5Z" style="fill:#a8a094;stroke:#7f776b;stroke-miterlimit:10"/><path d="M19.2,25.6a32.9,32.9,0,0,1-.9-4.3,4.2,4.2,0,0,0-.4,1A63.4,63.4,0,0,1,14,28.9a26.1,26.1,0,0,0-3.1,8,7.7,7.7,0,0,0-.1,4.5A4.5,4.5,0,0,0,14,44.6,5.4,5.4,0,0,0,18.8,43a10,10,0,0,0,1.9-3.1C21.4,35.3,20.4,30,19.2,25.6Z" style="fill:#eddfbc"/><path d="M18.8,43A5.4,5.4,0,0,1,14,44.6a4.5,4.5,0,0,1-3.2-3.2,7.7,7.7,0,0,1,.1-4.5,26.1,26.1,0,0,1,3.1-8,63.4,63.4,0,0,0,3.9-6.6,4.2,4.2,0,0,1,.4-1l-.6-3.7a6.2,6.2,0,0,0-.9-2.8,1.9,1.9,0,0,0-2.3-.7c-2.6.8-5.3,3.6-6.9,5.6a18.1,18.1,0,0,0-1.9,2.9c-2.2,5,.2,11.1-1.4,16.3-.4,1.6-1.3,3.2-1.1,4.8s2.1,4,4.3,4.7a25.6,25.6,0,0,0,3.6.7,9,9,0,0,0,4.5-.5c2.6-1.4,4.3-4.6,4.9-7.4a5.1,5.1,0,0,0,.2-1.3A10,10,0,0,1,18.8,43Z" style="fill:#beb8ae;stroke:#7f776b;stroke-miterlimit:10"/><path d="M6.6,48.1a.3.3,0,0,1-.1-.2,2.4,2.4,0,0,1-.3-1.2c-.1-.1,0-.2.1-.2a.2.2,0,0,1,.2.2l.3,1.1a.2.2,0,0,1-.1.3Zm-.5-2.8a.2.2,0,0,1-.2-.2c0-.5-.1-1.1-.1-1.6s.1-.2.2-.2.2,0,.2.1h0c0,.5.1,1,.1,1.6a.2.2,0,0,1-.2.2Zm0-3.3h0a.2.2,0,0,1-.2-.2l.3-1.7c0-.1.1-.1.2-.1a.2.2,0,0,1,.2.2,9,9,0,0,0-.3,1.6A.2.2,0,0,1,6.1,42Zm.7-3.2H6.7c-.1-.1-.2-.2-.1-.3h0A8.8,8.8,0,0,1,7.1,37a.2.2,0,0,1,.2-.2c.1.1.2.2.1.3s-.3,1-.4,1.5H6.9A.3.3,0,0,1,6.8,38.8Zm1-3.1H7.7a.4.4,0,0,1-.1-.3l.6-1.5c0-.1.1-.2.2-.1s.2.1.1.2L8,35.5C7.9,35.6,7.9,35.7,7.8,35.7ZM9,32.6H8.9c-.1-.1-.2-.2-.1-.3l.6-1.5h.3a.4.4,0,0,1,.1.3,10.1,10.1,0,0,1-.7,1.5A.1.1,0,0,1,9,32.6Zm1.3-3h-.1a.4.4,0,0,1-.1-.3l.7-1.5h.3a.4.4,0,0,1,.1.3,10.1,10.1,0,0,0-.7,1.5Zm1.4-3h-.1c-.1,0-.1-.1,0-.2l.7-1.5h.3a.4.4,0,0,1,.1.3c-.3.5-.5,1-.8,1.4S11.8,26.6,11.7,26.6Zm1.6-2.8h-.1c-.1,0-.1-.1,0-.2a6.4,6.4,0,0,1,.8-1.4c.1-.1.2-.2.3-.1a.2.2,0,0,1,0,.3c-.3.4-.5.9-.8,1.4ZM15,21h-.1c-.1,0-.1-.1,0-.2l.9-1.4c0-.1.2-.1.3,0a.1.1,0,0,1,0,.2l-.9,1.4Z" style="fill:#9b9286"/><path d="M21.9,42.4a27.3,27.3,0,0,0,3.6,8.9A21.1,21.1,0,0,0,32,58.4a10.6,10.6,0,0,0,9.3,1.1,11.7,11.7,0,0,0,5.3-4.8,13,13,0,0,0,2.1-5,22.9,22.9,0,0,0-.1-3.7A42.7,42.7,0,0,0,47,37.2a16,16,0,0,0-4.9-7.3,15.3,15.3,0,0,0-4-2.1c-2.9-1.2-6.2-1.9-9.2-1C22.9,28.5,21,37,21.9,42.4Z" style="fill:#a8a094"/><path d="M38.7,58.9c-1.3-3.1-3.1-5.4-3.8-8.8S33.6,41,30.4,37.4c-1.3-1.6-6.6-5.6-8.9-4.1h0c-1.5.5-1.9,5.7-2.4,6.9A24,24,0,0,0,18,42.6c-1.8,4.2-.6,8.4.8,12.4a16.4,16.4,0,0,1,.8,6.6c-.1,1.9-.6,4.1.7,5.6s2.6,1.5,4,1.7,4.3.4,6.5.5,5.8-.1,7.6-2.2a6.3,6.3,0,0,0,1.3-3.5A11.5,11.5,0,0,0,38.7,58.9Z" style="fill:#beb8ae;stroke:#7f776b;stroke-miterlimit:10"/><path d="M21.7,45.2v.2c-.1.4-.1.7-.2,1S21.6,45.6,21.7,45.2Z" style="fill:#beb8ae"/><path d="M21.8,54.9c-.2-1.1-.4-2.1-.5-3.2C21.4,52.8,21.6,53.8,21.8,54.9Z" style="fill:#beb8ae"/><path d="M36.3,56.6a8.9,8.9,0,0,0-1.4,7.1A5.3,5.3,0,0,0,38,67.6l.7-.8c.2-1.2,0-2,.2-3.2a56.7,56.7,0,0,0,.9-12.3c0-1.1-.6-.2-.8.2A53,53,0,0,1,36.3,56.6Z" style="fill:#aaa397;opacity:0.65;mix-blend-mode:multiply"/><path d="M41.3,43a24.2,24.2,0,0,1-.6,4.6c-.7,3-2.5,5.7-3.8,8.5s-1.8,6.4-.3,9.1a8.1,8.1,0,0,0,5.9,3.6,17,17,0,0,0,7.1-.6c1.6-.5,3.2-1.1,4.1-2.4a7,7,0,0,0,.9-3.5c.4-5.4.9-11.1-.8-16.4a31.5,31.5,0,0,0-2-4.7l-3.1-6.8a2.4,2.4,0,0,0-.9-1.1c-1.4-.9-5.3.1-6.2,1.5S41.4,40.8,41.3,43Z" style="fill:#beb8ae;stroke:#7f776b;stroke-miterlimit:10"/><path d="M38,66.7h-.2l-.4-.5a.2.2,0,0,1,0-.3h.3l.4.5a.2.2,0,0,1,0,.3Zm-1.2-2c-.1,0-.2,0-.2-.1a4.7,4.7,0,0,1-.3-1.7c0-.1,0-.2.1-.2a.2.2,0,0,1,.2.2l.3,1.6c.1.1,0,.2-.1.2Zm-.2-3.2h-.1c-.1,0-.2-.1-.1-.3a12.4,12.4,0,0,1,.4-1.6c0-.1.1-.1.2-.1l.2.3a8.8,8.8,0,0,0-.5,1.5A.3.3,0,0,1,36.6,61.5Zm1-3.1h0c-.1-.1-.2-.2-.1-.3l.8-1.4c0-.1.2-.2.2-.1s.2.2.1.3l-.8,1.4C37.8,58.4,37.7,58.4,37.6,58.4Zm1.7-2.8h-.1c-.1,0-.1-.1-.1-.2s.6-1,.9-1.5h.2c.1,0,.1.1.1.2l-.8,1.5Zm1.6-2.9h-.1a.4.4,0,0,1-.1-.3,10.1,10.1,0,0,0,.7-1.5c0-.1.1-.1.2-.1s.2.2.1.3l-.6,1.5Zm1.2-3.1h0a.2.2,0,0,1-.2-.2h0c.2-.5.3-1.1.5-1.6h.2a.2.2,0,0,1,.2.2c-.2.5-.3,1.1-.5,1.6h0C42.3,49.6,42.2,49.6,42.1,49.6Zm.8-3.1h0l-.2-.3a7.6,7.6,0,0,0,.3-1.6c0-.1.1-.2.3-.1s.1.1.1.2l-.3,1.6A.2.2,0,0,1,42.9,46.5Zm.5-3.3h0a.2.2,0,0,1-.2-.2c.1-.5.1-1.1.2-1.6a.2.2,0,0,1,.2-.2c.1,0,.1.1.1.2a8.6,8.6,0,0,1-.1,1.6A.2.2,0,0,1,43.4,43.2Z" style="fill:#9b9286"/><path d="M57.6,40.2a6.7,6.7,0,0,0,1.3-4.4,11.5,11.5,0,0,0-1.2-5.7c-2.5-5.6-8.6-8.7-12.6-13.3,1.3,6.9,2.9,13.7,4.6,20.5a22.7,22.7,0,0,0,1.6,4.6A6.1,6.1,0,0,0,57.6,40.2Z" style="fill:#eddfbc"/><path d="M66.6,35.8c-.8-5.3-1.8-10.7-4.5-15.4a14.3,14.3,0,0,0-2.4-3.1c-1.9-1.8-4.5-2.7-6.9-3.9a14.8,14.8,0,0,1-3.9-2.6c-.6-.6-1.5-2.4-2.5-2.5-3-.2-1.7,6.5-1.4,7.9s.1.4.1.6c4,4.6,10.1,7.7,12.6,13.3a11.5,11.5,0,0,1,1.2,5.7,6.7,6.7,0,0,1-1.3,4.4,6.1,6.1,0,0,1-6.3,1.7,5.4,5.4,0,0,0,.5,1.1,8,8,0,0,0,4.5,3.8,8.6,8.6,0,0,0,4.5,0,7.9,7.9,0,0,0,4.1-2C67.2,42.6,67,39,66.6,35.8Z" style="fill:#beb8ae;stroke:#7f776b;stroke-miterlimit:10"/><path d="M51.8,30.8a8.8,8.8,0,0,0,1-2.7,18.3,18.3,0,0,0,.1-6.6,31.1,31.1,0,0,0-.6-4.4A17.6,17.6,0,0,0,45,6.4a18.3,18.3,0,0,0-5.7-2.6h.5A19.8,19.8,0,0,0,28,4a14.9,14.9,0,0,0-5.6,3.2A16.1,16.1,0,0,0,20,10c-3.6,4.8-4.8,9.4-3.7,15.3A20.5,20.5,0,0,0,19.6,34c2.4,3.4,7.2,5.7,11.2,6.2a23.3,23.3,0,0,0,11.1-1.3A18.9,18.9,0,0,0,51.8,30.8Z" style="fill:#b7b1a9"/><path d="M28.2,29.2l-.4.6a10.6,10.6,0,0,0-1.1,6.1,16,16,0,0,0,.5,2.1c.8,2.4,3,3.7,4.2,5.9s1.5,3.4,2.8,4.7,6.4,1.6,8.8-.4S46.9,43,47.9,40a5.1,5.1,0,0,0,.4-3.4c-.7-1.9-3.6-2.5-5.4-2.5a7.5,7.5,0,0,0,.5-2.6,4,4,0,0,0-1.8-3.3C37.7,25.5,31.2,25,28.2,29.2Z" style="fill:#eddfbc"/><path d="M38,40.8a.2.2,0,0,1-.2-.2c0-.1,0-.2.2-.4s2.5-3,3.3-4.8c.1-.3.3-.5.4-.8a2.1,2.1,0,0,1,.4-.6,1.9,1.9,0,0,1,1.3-.1h.5l1.4.2c.1.1.2.2.2.3h-.3l-1.3-.3H42.3l-.3.5-.3.8c-.9,1.8-1.8,3.7-3.4,4.9h0c0,.2-.1.2-.2.3Z" style="fill:#9b9286"/><path d="M36.1,39.3h-.2a.4.4,0,0,1,.1-.3,5.2,5.2,0,0,1,3.9-.4.4.4,0,0,1,.1.3c0,.1-.1.1-.2.1a4.5,4.5,0,0,0-3.6.4Z" style="fill:#9b9286"/><path d="M40.3,36.9h-.1a5.2,5.2,0,0,0-5-.4c-.1,0-.2,0-.2-.1s0-.2,0-.3a5.8,5.8,0,0,1,5.4.5c.1,0,.1.1,0,.2A.1.1,0,0,1,40.3,36.9Z" style="fill:#9b9286"/><path d="M8.6,50.7a4.4,4.4,0,0,1,2.3-.2,8.5,8.5,0,0,1,2.6,1.1c1.4-.8,2.8-1.3,4,0a4.2,4.2,0,0,1,.9,1.4l1,1.8a8.7,8.7,0,0,1,.2,8.7,9.5,9.5,0,0,1-6.7,5,5.3,5.3,0,0,1-2.8-.1,8.6,8.6,0,0,1-3.4-1.8,11.5,11.5,0,0,1-3.5-5.2c-.5-1.8,0-3.7.4-5.5A22.3,22.3,0,0,0,4,53.6a3,3,0,0,1,.8-2.2A2.4,2.4,0,0,1,7.5,51h.7Z" style="fill:#beb8ae;stroke:#7f776b;stroke-miterlimit:10"/><path d="M51.7,59.9c-.4-2.6.1-6.7,3.7-6.2a5.3,5.3,0,0,1,1.9-3.1,3.2,3.2,0,0,1,3.5-.2,3.2,3.2,0,0,1,3.7-1.8,6.2,6.2,0,0,1,3.6,3.8A17,17,0,0,1,69.8,59c.1,2.7-.1,6.4-2.2,8s-6.1,3.2-11,1.1C53.7,66.8,52.1,62.6,51.7,59.9Z" style="fill:#beb8ae;stroke:#7f776b;stroke-miterlimit:10"/><path d="M17.8,55.8A3.8,3.8,0,0,0,16,53a4.8,4.8,0,0,0-2-.4h-.7a2.3,2.3,0,0,0-1,.4v.2a1.6,1.6,0,0,0-1.6-1.3,2.2,2.2,0,0,0-1.1.1l-1,.4-.3.3a.4.4,0,0,0-.1.3,1.9,1.9,0,0,0-1.8-.7,2.2,2.2,0,0,0-1.3.9,3.2,3.2,0,0,0-.7,2.6,2.2,2.2,0,0,0,1.7,2H7a1.9,1.9,0,0,0,1.4-1.2h.2a3.6,3.6,0,0,0,2.1,1.1,2.9,2.9,0,0,0,2.2-.9.3.3,0,0,1,.1-.2.9.9,0,0,0,.3.6l.4.2a3.8,3.8,0,0,0,3.3-.2l.6-.5a.6.6,0,0,0,.1-.4A1.7,1.7,0,0,0,17.8,55.8Z" style="fill:#fff2dc"/><path d="M6.7,62.5A7.5,7.5,0,0,0,8.9,65a6.7,6.7,0,0,0,2.9,1.2,4.7,4.7,0,0,0,3.2-1,4.6,4.6,0,0,0,2.4-4.4,2.4,2.4,0,0,0-.6-1.1,2.8,2.8,0,0,0-2-.6C12.6,58.9,4.2,58,6.7,62.5Z" style="fill:#a8a094"/><path d="M58.8,65.5a8.4,8.4,0,0,0,3.1,1.2,5.5,5.5,0,0,0,3.1-.3,4.5,4.5,0,0,0,2.4-2.3c.9-1.5,1.2-3.6.1-5a2.3,2.3,0,0,0-1-.7,3.1,3.1,0,0,0-2.1.3C62.4,59.6,54.5,62.6,58.8,65.5Z" style="fill:#a8a094"/><path d="M66.4,51.2a2,2,0,0,0-1.5-.4h-1a2.6,2.6,0,0,0-1.5,1.6c0,.1,0,.1-.1.2a1.7,1.7,0,0,0-1.5-.7H60a3.3,3.3,0,0,0-3,3.1h0a2.6,2.6,0,0,0-1.8-.2,4.5,4.5,0,0,0-1.4.6c-1.5,1-1.7,3.6-.6,5l.6.5a3.6,3.6,0,0,0,2.5.1,3.5,3.5,0,0,0,2.3-2V59h.3a6.8,6.8,0,0,0,3.6-.8c.8-.6,1.7-1.9,1.5-2.8h.2a12.5,12.5,0,0,0,1.9-.3.1.1,0,0,1,.1-.1,2,2,0,0,0,1.1-1.1A2.1,2.1,0,0,0,66.4,51.2Z" style="fill:#fff2dc"/><ellipse cx="25.3" cy="25.7" rx="1.6" ry="2.2" style="fill:#2d2727"/><ellipse cx="42.9" cy="23.6" rx="1.6" ry="2.2" style="fill:#2d2727"/><path d="M15.9,26.1a5,5,0,0,0-.2-1.2V23.8a17.7,17.7,0,0,1,0-2.3,16.2,16.2,0,0,1,.1-2.2,18.5,18.5,0,0,1,.4-2.3l.3-1.2a1.4,1.4,0,0,1,.2-.6c0-.2.1-.4.1-.6h-.1a2.3,2.3,0,0,0-.4,1,7.6,7.6,0,0,1-.4,1.1,14.2,14.2,0,0,0-.5,2.2,17.9,17.9,0,0,0-.2,2.3,8.6,8.6,0,0,0,.2,2.3c0,.4.2.9.2,1.3l.3,1.3Z" style="fill:#9b9286"/><path d="M50.3,12.1a10,10,0,0,1,1,2.9,24.5,24.5,0,0,1,.8,2.9,25.6,25.6,0,0,0,.5,2.7l.3,2.2c.1.4.1.9.2,1.4h.1c0-.4-.1-.9-.1-1.3s-.1-1.4-.1-2.1a11.7,11.7,0,0,0-.4-2.7,24.5,24.5,0,0,0-.8-2.9,17.3,17.3,0,0,0-1.4-3.1Z" style="fill:#9b9286"/><path d="M33.6,7.3h-.2a3.1,3.1,0,0,1-.2-.8.4.4,0,0,1,.1-.3l.3.2a3.1,3.1,0,0,0,.2.8.2.2,0,0,1-.2.2Z" style="fill:#9b9286"/><path d="M35.1,23.1h0a.2.2,0,0,1-.2-.2V21.3c0-.1.1-.1.2-.1h0c.1,0,.2,0,.2.1v1.6C35.3,23.1,35.2,23.1,35.1,23.1Zm0-3.2h-.2V18.2a.2.2,0,0,1,.2-.2c.1,0,.2,0,.2.1v1.6c0,.2-.1.2-.2.2ZM35,16.8l-.2-.2c0-.6-.1-1.1-.1-1.6a.2.2,0,0,1,.2-.2c.1,0,.2,0,.2.2s.1,1,.1,1.5-.1.2-.2.3Zm-.3-3.2-.2-.2a10,10,0,0,0-.2-1.6.2.2,0,0,1,.4,0c.1.5.1,1,.2,1.6l-.2.2Zm-.5-3.2H34a7.6,7.6,0,0,0-.3-1.6.2.2,0,0,1,.2-.2h.2l.3,1.6c0,.1,0,.2-.1.2Z" style="fill:#9b9286"/><path d="M35,25.5h0a.2.2,0,0,1-.2-.2v-.8a.2.2,0,0,1,.4,0v.9C35.2,25.5,35.1,25.5,35,25.5Z" style="fill:#9b9286"/><path d="M58.7,46.8h-.6c-.1,0-.2-.1-.1-.2a.2.2,0,0,1,.2-.2,2.6,2.6,0,0,0,1.5-.1l.3.2a.2.2,0,0,1-.2.2Zm2.6-.8h-.2c-.1-.1,0-.2.1-.3a5.7,5.7,0,0,0,1.1-1.1.2.2,0,1,1,.3.3L61.4,46Zm2.1-2.4h-.1a.4.4,0,0,1-.1-.3l.6-1.5c0-.1.1-.2.2-.1s.2.1.1.2a5.2,5.2,0,0,1-.6,1.6Zm.8-3.2h0a.2.2,0,0,1-.2-.2,1.7,1.7,0,0,0,.1-.7,2.8,2.8,0,0,0-.1-.9.2.2,0,0,1,.4,0v1.6C64.4,40.4,64.3,40.4,64.2,40.4ZM64,37.2a.3.3,0,0,1-.1-.2l-.3-1.6c-.1-.1,0-.2.1-.2s.2,0,.3.1a13.7,13.7,0,0,1,.2,1.6c.1.1,0,.2-.1.3Zm-.6-3.3h-.2l-.3-1.6c0-.1.1-.2.2-.3a.2.2,0,0,1,.2.2l.3,1.6c.1.1,0,.2-.1.2Zm-.6-3.2h-.2l-.3-1.7c0-.1,0-.2.1-.2l.3.2.3,1.6a.2.2,0,0,1-.2.2Zm-.7-3.2v-.6l-.3-1.1c0-.1,0-.3.1-.3H62l.3,1.3v.4c.1.1,0,.2-.1.2Zm-.9-3.1H61a6.4,6.4,0,0,0-.8-1.4c-.1-.1,0-.2,0-.3s.2,0,.3.1l.9,1.4a.4.4,0,0,1-.1.3Zm-1.9-2.7h-.1L58,20.5c-.1,0-.1-.2,0-.2s.2-.1.2-.1l1.3,1.2s0,.2-.1.2Zm-2.5-2.1a.1.1,0,0,1-.1-.1l-1.4-.9s-.1-.2,0-.2a.2.2,0,0,1,.3-.1l1.3.9a.4.4,0,0,1,.1.3Zm-2.7-1.8c-.1,0-.1,0-.1-.1l-1.4-.8a.4.4,0,0,1-.1-.3h.3l1.4.9a.2.2,0,0,1,0,.3Z" style="fill:#9b9286"/><path d="M52.9,21.5a31.1,31.1,0,0,0-.6-4.4A17.6,17.6,0,0,0,45,6.4a18.3,18.3,0,0,0-5.7-2.6h.5A19.8,19.8,0,0,0,28,4a14.9,14.9,0,0,0-5.6,3.2A16.1,16.1,0,0,0,20,10c-3.6,4.8-4.8,9.4-3.7,15.3A20.5,20.5,0,0,0,19.6,34a16.8,16.8,0,0,0,8.5,5.6c1,1.5,2.4,2.6,3.3,4.3s1.5,3.4,2.8,4.7,6.4,1.6,8.8-.4S46.9,43,47.9,40a5.1,5.1,0,0,0,.4-3.4l-.6-1a18.3,18.3,0,0,0,4.1-4.8,8.8,8.8,0,0,0,1-2.7A18.3,18.3,0,0,0,52.9,21.5Z" style="fill:none;stroke:#7f776b;stroke-linecap:round;stroke-linejoin:round"/><path d="M34.2,3a21,21,0,0,1,5.6.8h-.5A18.3,18.3,0,0,1,45,6.4a17,17,0,0,1,5.2,5.5,13.5,13.5,0,0,0,2.6,1.5c2.4,1.2,5,2.1,6.9,3.9a14.3,14.3,0,0,1,2.4,3.1c2.7,4.7,3.7,10.1,4.5,15.4.4,3.2.6,6.8-1.7,9a7.9,7.9,0,0,1-4.1,2,10.7,10.7,0,0,1-2.5.3,6.4,6.4,0,0,1-2-.3,6.6,6.6,0,0,1-2.8-1.6l.3.7c.1.2.1.5.2.7a10.7,10.7,0,0,1,4.2,1.9,9.5,9.5,0,0,1,1.9,1.6,1.1,1.1,0,0,1,.7.3,3,3,0,0,1,2.9-1.8h.8a6.2,6.2,0,0,1,3.6,3.8A17,17,0,0,1,69.8,59c.1,2.7-.1,6.4-2.2,8a9.3,9.3,0,0,1-6,2.3,12.9,12.9,0,0,1-5-1.2,6.3,6.3,0,0,1-2.8-2.6.4.4,0,0,1-.1.3c-.9,1.3-2.5,1.9-4.1,2.4a23.4,23.4,0,0,1-5.3.8l-1.8-.2a8.6,8.6,0,0,1-4.1-1.6l-.4.4h0c-1.6,1.5-4,1.8-6.4,1.8h-.8c-2.2-.1-4.3-.2-6.5-.5s-3.1-.5-4-1.7a5,5,0,0,1-.9-3.4,9.2,9.2,0,0,1-6.5,4.7H11.6a3.9,3.9,0,0,1-1.5-.2,8.6,8.6,0,0,1-3.4-1.8,11.5,11.5,0,0,1-3.5-5.2c-.5-1.8,0-3.7.4-5.5A22.3,22.3,0,0,0,4,53.6a3,3,0,0,1,.8-2.2,2.3,2.3,0,0,1,1.6-.6l1.1.2h.7l.4-.3a4,4,0,0,1,1.5-.3h.8l1.3.4a10.2,10.2,0,0,1,1.3-1.8H11.1a25.6,25.6,0,0,1-3.6-.7l-.8-.3H6.5a5.4,5.4,0,0,1-3.3-4.3c-.2-1.6.7-3.2,1.1-4.8,1.6-5.2-.8-11.3,1.4-16.3a18.1,18.1,0,0,1,1.9-2.9c1.6-2,4.3-4.8,6.9-5.6h.8a1.7,1.7,0,0,1,1.4.6h.1a.5.5,0,0,1,.2.4A21.2,21.2,0,0,1,20,10a16.1,16.1,0,0,1,2.4-2.8A14.9,14.9,0,0,1,28,4a18.7,18.7,0,0,1,6.2-1M49.4,36c-.1-.6-.3-1.1-.4-1.6s-.2.1-.2.2l.6,1.4M34.2,0h0A21.8,21.8,0,0,0,27,1.2,15.9,15.9,0,0,0,20.4,5a16,16,0,0,0-2.8,3.2A23.1,23.1,0,0,0,15.7,11h-.4l-1.6.2c-3.4,1.1-6.5,4.2-8.4,6.6A16.6,16.6,0,0,0,3,21.4c-1.5,3.3-1.3,6.9-1.2,10.1a20.3,20.3,0,0,1-.4,6.6l-.3,1.1a9.9,9.9,0,0,0-.9,4.7,7.7,7.7,0,0,0,2.6,5.2c0,.1-.1.1-.1.2A5.6,5.6,0,0,0,1,53.4a11.3,11.3,0,0,1-.3,1.8v.2a12.7,12.7,0,0,0-.4,6.8,14,14,0,0,0,4.5,6.7,11.3,11.3,0,0,0,4.5,2.5l2.3.2h1.8a12,12,0,0,0,4.8-2c1.9,1.9,4.5,2.2,5.8,2.4s4.5.4,6.7.5h.9a13.3,13.3,0,0,0,7.1-1.6,12.6,12.6,0,0,0,3.3,1l2.3.2a24.3,24.3,0,0,0,6.1-.9,14.4,14.4,0,0,0,3.2-1.3,8.1,8.1,0,0,0,1.8,1,14.8,14.8,0,0,0,6.2,1.5,12.6,12.6,0,0,0,7.8-2.9c2.5-1.9,3.6-5.3,3.4-10.4a18.9,18.9,0,0,0-1.9-7.8,9.7,9.7,0,0,0-3.6-4.5c3.3-3.6,2.6-8.9,2.2-11.3-.7-5.5-1.8-11.4-4.8-16.5a17.2,17.2,0,0,0-2.9-3.8,21.2,21.2,0,0,0-6.2-3.7l-1.5-.7-1.7-.9a20,20,0,0,0-5.7-5.9,24.5,24.5,0,0,0-5.1-2.6l-1-.4A23,23,0,0,0,34.2,0Z" style="fill:#7f776b"/><path d="M26.2,24.8a.4.4,0,0,1-.4.4.5.5,0,0,1-.5-.4.5.5,0,0,1,.5-.5A.5.5,0,0,1,26.2,24.8Z" style="fill:#fceddb"/><circle cx="25.1" cy="25.6" r="0.2" style="fill:#fceddb"/><path d="M43.1,22.5a.5.5,0,1,1-.6-.3A.5.5,0,0,1,43.1,22.5Z" style="fill:#fceddb"/><path d="M43.7,23.1c0,.1-.1.3-.2.3s-.3,0-.3-.2a.2.2,0,0,1,.2-.2C43.5,22.9,43.6,23,43.7,23.1Z" style="fill:#fceddb"/></g></g></g></svg>