<svg xmlns="http://www.w3.org/2000/svg" viewBox="0 0 127.3 148.2"><g id="Layer_2" data-name="Layer 2"><g id="Layer_1-2" data-name="Layer 1"><g id="food_3_2" data-name="food 3_2"><path d="M43.1,44.3c.5,0,.8.3.7.7s-.3,3.3.2,4.5a15.7,15.7,0,0,1,3-.5h4.1a9.2,9.2,0,0,1,2.5.9h0l.8.6h0a.3.3,0,0,0,.1.2s2.7,3.1-1.1,6.1-7.5,2.9-11.2,2.9a11.8,11.8,0,0,1-3.7-.4,3.5,3.5,0,0,1-1.9-5.2h0c.1-.1.2-.2.2-.3h0a8.5,8.5,0,0,1,1.9-1.9,13.1,13.1,0,0,1,3.7-2h.5c-1.2-2.3-1-5-.4-5.3l.6-.2m0-3h0a4.2,4.2,0,0,0-2.1.6c-1.8,1.1-2.2,3.7-1.8,6.1l-2.4,1.5a15.2,15.2,0,0,0-2.5,2.6l-.3.5h0a7,7,0,0,0-.5,5.8,6.7,6.7,0,0,0,4.1,3.8,18.5,18.5,0,0,0,4.6.5c4.2,0,9.9-.9,13.1-3.5a7.9,7.9,0,0,0,3.1-5.4A7.3,7.3,0,0,0,56.9,49a.1.1,0,0,0-.1-.1c-.1-.1-.1-.2-.2-.2a6.1,6.1,0,0,0-1.5-1.3h0a8.2,8.2,0,0,0-3.2-1.2H46.6a.6.6,0,0,0,.1-.4,3.5,3.5,0,0,0-.7-3,3.8,3.8,0,0,0-2.9-1.3Z" style="fill:#3f1c0b"/><path d="M44.3,50.3s-1.8-3.5-.5-5.3-.6-.9-1.3-.5-.9,3.8,1,6.2C44.2,51.2,44.6,50.7,44.3,50.3Z" style="fill:#572406"/><path d="M54.5,50.8s2.7,3.1-1.1,6.1-12.3,3.4-14.9,2.5-4-4.3.2-7.5S52.1,47.7,54.5,50.8Z" style="fill:#71350e"/><path d="M41.6,57.4a.4.4,0,0,1,.2.5c0,.1-.1.2-.3.2h-.1c-3-1-4.4-2.5-5-3.6a2.5,2.5,0,0,0,.4-.7C37.2,54.7,38.3,56.4,41.6,57.4Z" style="fill:#572406"/><path d="M43.6,55.8c.1.1.2.3,0,.4a.2.2,0,0,1-.2.2h-.2A16.8,16.8,0,0,1,39,51.6l.6-.4A18.9,18.9,0,0,0,43.6,55.8Z" style="fill:#572406"/><path d="M45.8,55.7h-.5a21,21,0,0,1-2.9-5.8l.7-.2a16.5,16.5,0,0,0,2.7,5.5A.4.4,0,0,1,45.8,55.7Z" style="fill:#572406"/><path d="M47.1,54.3a.3.3,0,0,1-.3.3h0a.4.4,0,0,1-.4-.3,39.8,39.8,0,0,0-.1-5.2H47A40.9,40.9,0,0,1,47.1,54.3Z" style="fill:#572406"/><path d="M49.6,53.9h-.2c-.2-.1-.2-.3-.2-.5a13.2,13.2,0,0,0,1-4.4h.9a20.8,20.8,0,0,1-1.2,4.6Z" style="fill:#572406"/><path d="M52.3,54.1c0,.1-.1.1-.2.1h-.3a.4.4,0,0,1,.1-.5A4.5,4.5,0,0,0,53.6,50l.8.6A5,5,0,0,1,52.3,54.1Z" style="fill:#572406"/><path d="M49.5,69.7a2.6,2.6,0,0,1-2.2-1.3h-.8c-3.7,0-8.1-2.3-9.1-8.8v-.2c-.2-3.5,2.5-6.5,7-7.7a13.7,13.7,0,0,1,3.9-.6,8.8,8.8,0,0,1,4.9,1.3c.5.3,3,2.1,3,6.5,0,2.8-.5,5.8-4.2,7.9a3.6,3.6,0,0,1-.8,2.1A2.3,2.3,0,0,1,49.5,69.7Z" style="fill:#f58b31"/><path d="M48.3,52.7a7.4,7.4,0,0,1,4.1,1S54.7,55,54.7,59c0,2.4-.3,5.2-4.1,7,.1,1.2-.4,2.2-1.1,2.2s-1-.4-1.5-1.4l-1.5.2c-3.1,0-6.7-1.8-7.6-7.6-.2-2.9,2.5-5.2,5.9-6.2a16.3,16.3,0,0,1,3.5-.5m0-3h0a16.5,16.5,0,0,0-4.3.6c-5.2,1.4-8.4,5.1-8.1,9.3v.3C37.1,67.3,42.1,70,46.5,70h.1a4,4,0,0,0,2.9,1.2A3.6,3.6,0,0,0,52.3,70a5.1,5.1,0,0,0,1.1-2.2c4.3-2.8,4.3-6.9,4.3-8.8,0-5.1-2.9-7.3-3.7-7.8a10.8,10.8,0,0,0-5.7-1.5Z" style="fill:#a8662f"/><path d="M44.8,53.2c4.9-1.3,7.6.5,7.6.5a5.1,5.1,0,0,1,1.5,1.7c-.7-.7-2.3-1.7-5.4-1.5S40.9,56.8,41,60s1.8,6.5,7.7,6.1c.1.7.4,1.9,1.3,1.9s-1.2.3-2-1.2c-3.3.7-8.1-.6-9.1-7.4C38.7,56.5,41.4,54.2,44.8,53.2Z" style="fill:#e67922"/><path d="M92.4,46.2c.6,0,1.1.3.8.9s-1.3,3-1.2,4.3a15.4,15.4,0,0,1,3,.4h0a19.8,19.8,0,0,1,3.2,1.1l.6.3h0a7.2,7.2,0,0,1,2.1,1.6h0a4.7,4.7,0,0,1,.6.9h0v.2s1.5,3.8-3,5.5a11.2,11.2,0,0,1-3.8.6c-4.4,0-9.5-1.7-11.1-2.9a3.6,3.6,0,0,1-.2-5.6h.1l.3-.3h0A8.2,8.2,0,0,1,86.2,52a13.2,13.2,0,0,1,4.2-.7h.5c-.5-2.5.6-5,1.2-5.1h.3m0-3h-.9c-2.1.5-3.2,2.8-3.6,5.3a10.7,10.7,0,0,0-2.7.7A10.9,10.9,0,0,0,82,50.9l-.5.4h0a6.8,6.8,0,0,0-2.3,5.3,6.5,6.5,0,0,0,2.7,4.9c2.2,1.7,7.9,3.5,12.9,3.5a14.4,14.4,0,0,0,4.9-.8,7.6,7.6,0,0,0,4.6-4.1,7.5,7.5,0,0,0,.1-5.2h0a.4.4,0,0,1-.1-.3,16.3,16.3,0,0,0-1.1-1.7h0a9.7,9.7,0,0,0-2.7-2.1l-.4-.2a.1.1,0,0,0-.1-.1l-.5-.2a15.5,15.5,0,0,0-3.8-1.3h-.1c.1-.1.1-.3.2-.4a3.6,3.6,0,0,0,0-3.5,3.7,3.7,0,0,0-3.4-1.8Z" style="fill:#3f1c0b"/><path d="M92.1,52.3s-.7-4,1.1-5.2-.3-1.1-1.1-.9-2,3.3-.9,6.2C91.7,53.1,92.2,52.7,92.1,52.3Z" style="fill:#572406"/><path d="M101.6,55.9s1.5,3.8-3,5.5-12.8-.7-14.9-2.3-2.4-5.3,2.5-7.1S100.3,52.2,101.6,55.9Z" style="fill:#71350e"/><path d="M87.3,58.2a.3.3,0,0,1,0,.5h-.4c-2.6-1.9-3.4-3.8-3.6-5a1.7,1.7,0,0,1,.6-.6C83.9,54.2,84.5,56.2,87.3,58.2Z" style="fill:#572406"/><path d="M89.7,57.2a.4.4,0,0,1-.1.5h-.3c-.1,0-.2,0-.2-.1a19.1,19.1,0,0,1-2.5-5.7l.7-.2A16.7,16.7,0,0,0,89.7,57.2Z" style="fill:#572406"/><path d="M91.8,57.8h-.3l-.2-.2a21.5,21.5,0,0,1-.9-6.4H91c.1,1.4.2,4.5.9,6.1S91.9,57.8,91.8,57.8Z" style="fill:#572406"/><path d="M93.5,56.9c-.1.2-.3.3-.4.2H93a.5.5,0,0,1-.2-.4c.7-2.1,1.2-4,1.5-5H95A46.6,46.6,0,0,1,93.5,56.9Z" style="fill:#572406"/><path d="M95.9,57.3h-.1a.2.2,0,0,1-.1-.4,13,13,0,0,0,2.4-4l.7.4a13.7,13.7,0,0,1-2.5,4Z" style="fill:#572406"/><path d="M98.5,58.4h-.2l-.3-.2c0-.2,0-.4.2-.4a4.4,4.4,0,0,0,2.7-3,4.7,4.7,0,0,1,.6.9A5.1,5.1,0,0,1,98.5,58.4Z" style="fill:#572406"/><path d="M91.6,72.4c-.5,0-1.7-.2-2.4-2a8.9,8.9,0,0,1-5-3.2A10.7,10.7,0,0,1,82.5,59h.1c.8-3.2,4.1-5.2,8.4-5.2h.7c5.5.3,7.8,3,8.1,3.4s2.2,2.9.8,7.1c-.8,2.6-2.3,5.4-6.4,6.2A2.8,2.8,0,0,1,91.6,72.4Z" style="fill:#f58b31"/><path d="M91,55.2h.6c5.1.3,7.1,2.8,7.1,2.8s1.7,2,.5,5.8-1.9,4.8-6.1,5.3c-.3,1.1-.9,1.8-1.5,1.8s-1-.5-1.2-1.8C87.1,68.7,83,66,84,59.2c.7-2.7,3.7-4,7-4m0-3h0c-5.1,0-8.8,2.4-9.9,6.3v.3c-.8,4.6.6,7.6,1.9,9.3a10.9,10.9,0,0,0,5.1,3.6,4,4,0,0,0,3.5,2.2,4.1,4.1,0,0,0,3.6-2.2c5-1.3,6.3-5.2,6.9-7a9.1,9.1,0,0,0-1.1-8.6c-.5-.6-3.2-3.6-9.2-3.9Z" style="fill:#a8662f"/><path d="M91.6,55.2c5.1.3,7.1,2.8,7.1,2.8a4.3,4.3,0,0,1,.8,2.1c-.4-.9-1.6-2.3-4.6-3.2s-8.1.4-9,3.5-.4,6.8,5.4,8.2c-.2.7-.2,1.9.7,2.3s-1.3-.2-1.6-1.8C87.1,68.7,83,66,84,59.2,84.8,56.4,88.1,55,91.6,55.2Z" style="fill:#e67922"/><path d="M88.2,90.8l1.1.2h.5a6.9,6.9,0,0,1,2.3,1.3,12.2,12.2,0,0,1,2.8,3.1h0c.1.2.2.3.2.5a6.9,6.9,0,0,1,4.4-1.9h.6c.6.6.6,1.4-.1,1.4l-.9-.2a6.6,6.6,0,0,0-3.4,1.5,13.9,13.9,0,0,1,1.2,2.8h0a14.8,14.8,0,0,1,.9,3.3,1.7,1.7,0,0,0,.1.7h-.1a5.5,5.5,0,0,1-.2,2.6h0l-.4.9h0l-.2.3a4,4,0,0,1-3.1,1.6,4.7,4.7,0,0,1-3-1.2c-3.9-2.8-6.4-11.1-6.2-13.8a3.4,3.4,0,0,1,3.5-3.3m9.4,15.5h0M88.2,87.8h0a6.4,6.4,0,0,0-6.5,6.1c-.3,3.7,2.6,12.9,7.4,16.4a7.8,7.8,0,0,0,4.8,1.8,6.9,6.9,0,0,0,5.5-2.8h.1l.2-.3a3.9,3.9,0,0,0,.7-1.6.4.4,0,0,0,.1-.3,11.5,11.5,0,0,0,.4-3.3.6.6,0,0,0-.1-.4v-.2a1.5,1.5,0,0,0-.1-.6,18.9,18.9,0,0,0-.9-3.8h.4a3.6,3.6,0,0,0,3.1-2.3,4.2,4.2,0,0,0-1-4.2,3.9,3.9,0,0,0-2.8-1,8.7,8.7,0,0,0-3.6.8,11.9,11.9,0,0,0-2-1.9,11.4,11.4,0,0,0-3.2-1.8H90l-1.8-.2Z" style="fill:#3f1c0b"/><path d="M95,97.4s3-2.6,5-1.8.7-.8.1-1.4-3.8.1-5.7,2.6C94.1,97.6,94.7,97.8,95,97.4Z" style="fill:#572406"/><path d="M97,107.5s-2.3,3.3-6.1.4-6.4-11.1-6.2-13.8,3.2-4.9,7.4-1.7S99.5,104.4,97,107.5Z" style="fill:#71350e"/><path d="M87.4,96.6c0,.2-.2.4-.4.3l-.3-.2h0c.2-3.2,1.3-4.9,2.2-5.7l.9.2C89,91.7,87.6,93.2,87.4,96.6Z" style="fill:#572406"/><path d="M89.5,98.1c-.1.2-.3.3-.4.2s-.2-.1-.2-.2v-.3a22.2,22.2,0,0,1,3.5-5.2c.1.2.3.3.5.5A20.2,20.2,0,0,0,89.5,98.1Z" style="fill:#572406"/><path d="M90.1,100.2v-.5a18.9,18.9,0,0,1,4.9-4.2l.3.6a21.3,21.3,0,0,0-4.6,4C90.5,100.3,90.3,100.3,90.1,100.2Z" style="fill:#572406"/><path d="M91.8,101.1c-.1.1-.3,0-.4-.2h0c0-.2.1-.4.3-.4a46.5,46.5,0,0,0,5-1.5,2.5,2.5,0,0,1,.2.7A41,41,0,0,1,91.8,101.1Z" style="fill:#572406"/><path d="M92.8,103.4h0c0-.2.2-.4.4-.3a15.6,15.6,0,0,0,4.5-.1c.1.3.1.5.2.8a18.8,18.8,0,0,1-4.8,0Z" style="fill:#572406"/><path d="M93.3,106.2V106a.2.2,0,0,1,0-.3c.1-.2.3-.2.5-.1a4.3,4.3,0,0,0,3.9.7l-.4.9A4.8,4.8,0,0,1,93.3,106.2Z" style="fill:#572406"/><path d="M86.5,111.6a7.8,7.8,0,0,1-5.7-2.5h-.6a2.5,2.5,0,0,1-2.6-1.5,2.7,2.7,0,0,1,.6-2.8,9.2,9.2,0,0,1-.1-5.9,10.4,10.4,0,0,1,6.1-5.8h.1a5.8,5.8,0,0,1,1.9-.3c2.8,0,5.5,2,7.4,5.2,2.7,4.8,1.7,8.3,1.5,8.7s-1.3,3.4-5.6,4.5A9,9,0,0,1,86.5,111.6Z" style="fill:#f58b31"/><path d="M86.2,94.2c2.3,0,4.6,1.9,6.1,4.5,2.5,4.4,1.4,7.4,1.4,7.4s-.7,2.6-4.6,3.6a10.9,10.9,0,0,1-2.6.4,6.4,6.4,0,0,1-5.1-2.7,2.5,2.5,0,0,1-1.2.2c-1.3,0-2-.9-.3-2.5-1.4-2.9-1.4-7.9,4.9-10.7l1.4-.2m0-3h0a8.5,8.5,0,0,0-2.3.4h-.3a12.3,12.3,0,0,0-6.9,6.7,10.1,10.1,0,0,0-.2,6.2,3.7,3.7,0,0,0-.3,3.5,4,4,0,0,0,4,2.5h.1a8.8,8.8,0,0,0,6.2,2.5,15.3,15.3,0,0,0,3.4-.5c5-1.3,6.4-4.7,6.7-5.6s1.3-4.6-1.7-9.8c-2.1-3.7-5.4-6-8.7-6Z" style="fill:#a8662f"/><path d="M92.3,98.7c2.5,4.4,1.4,7.4,1.4,7.4a4.1,4.1,0,0,1-1.3,1.9c.6-.9,1.1-2.6.2-5.7s-4.7-6.5-7.8-5.7-5.9,3.4-4,9c-.7.3-1.7.9-1.5,1.8s-.6-1.1.6-2.3c-1.4-2.9-1.4-7.9,4.9-10.7C87.6,93.5,90.5,95.6,92.3,98.7Z" style="fill:#e67922"/><path d="M74.3,104.6h1.6a6,6,0,0,1,2.3,1.3,12.2,12.2,0,0,1,2.8,3.1h0l.3.4a7.2,7.2,0,0,1,4.3-1.9l.7.2c.5.6.5,1.3-.2,1.4l-.9-.2a6.6,6.6,0,0,0-3.4,1.5,23.9,23.9,0,0,1,1.3,2.8h0a13.2,13.2,0,0,1,.8,3.3,1.1,1.1,0,0,0,.1.6h0a7.7,7.7,0,0,1-.3,2.7h0a1.5,1.5,0,0,1-.4.9h0l-.2.3a4,4,0,0,1-3.1,1.6,4.8,4.8,0,0,1-3-1.2c-3.9-2.9-6.4-11.1-6.2-13.8a3.5,3.5,0,0,1,3.5-3.3m9.4,15.5h0m-9.4-18.5h0a6.5,6.5,0,0,0-6.5,6.1c-.2,3.7,2.6,12.9,7.4,16.4a8,8,0,0,0,4.8,1.8,7.2,7.2,0,0,0,5.5-2.8h.1l.2-.3a6,6,0,0,0,.8-1.6.4.4,0,0,1,.1-.3,16.9,16.9,0,0,0,.3-3.3.9.9,0,0,0-.1-.5h0v-.6a19.5,19.5,0,0,0-1-3.8h.4a3.6,3.6,0,0,0,3.1-2.3,4.2,4.2,0,0,0-1-4.2,3.9,3.9,0,0,0-2.8-1.1,9,9,0,0,0-3.6.9,11.9,11.9,0,0,0-2-1.9,11.4,11.4,0,0,0-3.2-1.8h-.6l-1.9-.2Z" style="fill:#3f1c0b"/><path d="M81.1,111.2s3-2.7,5-1.8.7-.8.2-1.4-3.9.1-5.8,2.5C80.2,111.4,80.8,111.6,81.1,111.2Z" style="fill:#572406"/><path d="M83.1,121.3s-2.3,3.3-6.1.4-6.4-11.1-6.2-13.8,3.2-4.9,7.4-1.7S85.6,118.1,83.1,121.3Z" style="fill:#71350e"/><path d="M73.5,110.4c0,.2-.2.3-.4.3l-.3-.2h0c.2-3.2,1.4-4.9,2.3-5.7l.8.2C75.1,105.5,73.7,107,73.5,110.4Z" style="fill:#572406"/><path d="M75.6,111.9c0,.2-.2.2-.4.2l-.2-.2v-.3a22.2,22.2,0,0,1,3.5-5.2l.5.5A20.2,20.2,0,0,0,75.6,111.9Z" style="fill:#572406"/><path d="M76.3,114a.2.2,0,0,1-.2-.2.4.4,0,0,1,.1-.3c1-1.6,3.6-3.4,4.8-4.2l.3.6c-1.1.8-3.6,2.5-4.6,4A.2.2,0,0,1,76.3,114Z" style="fill:#572406"/><path d="M78,114.9c-.2.1-.4,0-.4-.2h-.1c0-.2.1-.4.3-.4a40.3,40.3,0,0,0,5-1.5l.3.7Z" style="fill:#572406"/><path d="M78.9,117.2V117a.3.3,0,0,1,.4-.2,13,13,0,0,0,4.6-.2,1.9,1.9,0,0,0,.1.8,12.6,12.6,0,0,1-4.8,0Z" style="fill:#572406"/><path d="M79.4,119.9a.1.1,0,0,1-.1-.1c-.1-.1,0-.2,0-.3s.3-.2.5-.1a4.3,4.3,0,0,0,3.9.7,1.5,1.5,0,0,1-.4.9A4.6,4.6,0,0,1,79.4,119.9Z" style="fill:#572406"/><path d="M72.6,125.4a7.5,7.5,0,0,1-5.6-2.5h-.7a2.8,2.8,0,0,1-2.6-1.5,2.7,2.7,0,0,1,.6-2.8,8.6,8.6,0,0,1,0-5.9c.6-1.8,2.2-4.2,6-5.8a.1.1,0,0,1,.1-.1,6.3,6.3,0,0,1,1.9-.3c2.8,0,5.6,2,7.4,5.2,2.7,4.8,1.7,8.2,1.5,8.7s-1.3,3.4-5.6,4.5A12.5,12.5,0,0,1,72.6,125.4Z" style="fill:#f58b31"/><path d="M72.3,108c2.4,0,4.6,1.9,6.1,4.5,2.5,4.4,1.4,7.4,1.4,7.4s-.7,2.6-4.5,3.6a12.6,12.6,0,0,1-2.7.4,6.4,6.4,0,0,1-5.1-2.7l-1.2.2c-1.3,0-2-.9-.3-2.5-1.4-2.9-1.4-7.9,4.9-10.7l1.4-.2m0-3h0a5.9,5.9,0,0,0-2.3.4h-.3c-4.3,1.9-6.1,4.7-6.8,6.7a10.1,10.1,0,0,0-.3,6.2,4.1,4.1,0,0,0-.3,3.5,4,4,0,0,0,4,2.5h.1a8.8,8.8,0,0,0,6.2,2.5,15.3,15.3,0,0,0,3.4-.5c5-1.3,6.4-4.7,6.7-5.6S84,116.2,81,111s-5.4-6-8.7-6Z" style="fill:#a8662f"/><path d="M78.4,112.5c2.5,4.4,1.4,7.4,1.4,7.4a4.3,4.3,0,0,1-1.2,1.9c.5-.9,1-2.6.1-5.7s-4.7-6.5-7.8-5.7-5.9,3.4-4,9c-.6.3-1.7.9-1.5,1.8s-.6-1.1.6-2.3c-1.4-2.9-1.4-7.9,4.9-10.7C73.7,107.3,76.6,109.4,78.4,112.5Z" style="fill:#e67922"/><path d="M102.4,103.8H104a11,11,0,0,1,2.3,1.3,14.9,14.9,0,0,1,2.8,3.2h0l.3.4a7.2,7.2,0,0,1,4.3-1.9l.7.2c.5.5.5,1.3-.2,1.4l-.9-.2a6.6,6.6,0,0,0-3.4,1.5,23.9,23.9,0,0,1,1.3,2.8h0a13.2,13.2,0,0,1,.8,3.3,1.3,1.3,0,0,1,.1.6h0a5.9,5.9,0,0,1-.3,2.7h0a1.5,1.5,0,0,1-.4.9h0l-.2.2a4,4,0,0,1-3.1,1.6,5.3,5.3,0,0,1-3-1.1c-3.9-2.9-6.4-11.1-6.2-13.8a3.4,3.4,0,0,1,3.5-3.3m9.4,15.5h0m-9.4-18.5h0a6.5,6.5,0,0,0-6.5,6.1c-.2,3.6,2.6,12.9,7.4,16.4a7.8,7.8,0,0,0,4.8,1.7,7.2,7.2,0,0,0,5.5-2.7c.1-.1.1-.1.1-.2l.2-.2a8,8,0,0,0,.8-1.6.4.4,0,0,1,.1-.3,11.6,11.6,0,0,0,.3-3.3v-.5H115v-.6a19.5,19.5,0,0,0-1-3.8h.4a3.6,3.6,0,0,0,3.1-2.3,4.2,4.2,0,0,0-1-4.2,3.7,3.7,0,0,0-2.8-1.1,9,9,0,0,0-3.6.9,8.9,8.9,0,0,0-2-1.9,11.4,11.4,0,0,0-3.2-1.8l-.5-.2h-.1l-1.9-.2Z" style="fill:#3f1c0b"/><path d="M109.2,110.4s3-2.7,5-1.8.7-.9.2-1.4-3.9.1-5.8,2.5C108.3,110.5,108.9,110.8,109.2,110.4Z" style="fill:#572406"/><path d="M111.2,120.4s-2.2,3.3-6.1.5-6.4-11.1-6.2-13.8,3.2-5,7.4-1.8S113.7,117.3,111.2,120.4Z" style="fill:#71350e"/><path d="M101.6,109.6a.3.3,0,0,1-.3.3c-.2,0-.3-.1-.3-.2v-.2a8.5,8.5,0,0,1,2.3-5.7l.8.2C103.2,104.6,101.8,106.1,101.6,109.6Z" style="fill:#572406"/><path d="M103.8,111.1a.4.4,0,0,1-.5.1l-.2-.2v-.2a20.1,20.1,0,0,1,3.5-5.2l.5.5A16.6,16.6,0,0,0,103.8,111.1Z" style="fill:#572406"/><path d="M104.4,113.2l-.2-.2a.4.4,0,0,1,.1-.3c1-1.6,3.6-3.4,4.8-4.2a2.1,2.1,0,0,0,.4.6c-1.2.8-3.7,2.5-4.7,4S104.5,113.3,104.4,113.2Z" style="fill:#572406"/><path d="M106.1,114.1c-.2.1-.4,0-.4-.2h0a.4.4,0,0,1,.2-.5,43.8,43.8,0,0,0,5-1.4l.3.7Z" style="fill:#572406"/><path d="M107,116.4v-.2c.1-.2.2-.3.4-.3a11.3,11.3,0,0,0,4.6-.1c.1.4,0,.5.1.8a12.6,12.6,0,0,1-4.8,0Z" style="fill:#572406"/><path d="M107.5,119.1h-.1c-.1-.1,0-.3,0-.4h.5a4.7,4.7,0,0,0,3.9.7,1.5,1.5,0,0,1-.4.9A4.6,4.6,0,0,1,107.5,119.1Z" style="fill:#572406"/><path d="M100.7,124.6a7.6,7.6,0,0,1-5.6-2.6h-.7a2.8,2.8,0,0,1-2.6-1.5,2.7,2.7,0,0,1,.6-2.8,8.5,8.5,0,0,1,0-5.9c.6-1.8,2.2-4.2,6-5.9h.1a6.3,6.3,0,0,1,1.9-.3c2.8,0,5.6,1.9,7.4,5.2s1.7,8.2,1.6,8.6-1.4,3.5-5.7,4.6A11.7,11.7,0,0,1,100.7,124.6Z" style="fill:#f58b31"/><path d="M100.4,107.2c2.4,0,4.6,1.8,6.1,4.4,2.5,4.4,1.4,7.5,1.4,7.5s-.7,2.6-4.5,3.6a12.6,12.6,0,0,1-2.7.4,6.4,6.4,0,0,1-5.1-2.7l-1.2.2c-1.3,0-1.9-.9-.3-2.5-1.4-3-1.3-8,4.9-10.7l1.4-.2m0-3h0a5.9,5.9,0,0,0-2.3.4h-.3c-4.3,1.9-6.1,4.6-6.8,6.6a10.4,10.4,0,0,0-.3,6.3,4.1,4.1,0,0,0-.3,3.5,4.2,4.2,0,0,0,4,2.5h.1a9.2,9.2,0,0,0,6.2,2.5,15.3,15.3,0,0,0,3.4-.5c5-1.3,6.4-4.7,6.7-5.6s1.3-4.6-1.7-9.8-5.4-6-8.7-6Z" style="fill:#a8662f"/><path d="M106.5,111.6c2.5,4.4,1.4,7.5,1.4,7.5a3.8,3.8,0,0,1-1.2,1.8c.5-.8,1-2.5.1-5.6s-4.7-6.6-7.8-5.7-5.9,3.4-4,9c-.6.2-1.7.8-1.5,1.8s-.6-1.2.6-2.3c-1.4-3-1.3-8,4.9-10.7C101.8,106.5,104.8,108.5,106.5,111.6Z" style="fill:#e67922"/><path d="M51.3,67.3A4.3,4.3,0,0,1,55,69.5c2.8,4,2.5,12.6,1.4,15.1a3.5,3.5,0,0,1-3.2,2.2,4,4,0,0,1-2.2-.7h0l-.3-.3h0a8.3,8.3,0,0,1-1.8-1.9A11.4,11.4,0,0,1,47.3,80h0l-.2-.5a8.4,8.4,0,0,1-3,.6,3.3,3.3,0,0,1-2.3-.6c-.3-.6-.1-1.3.4-1.3h.2a3.2,3.2,0,0,0,2,.6,8.5,8.5,0,0,0,2.5-.5,15.3,15.3,0,0,1-.3-3h0a16.9,16.9,0,0,1,.3-3.3c0-.3.1-.4.1-.7h0a7.6,7.6,0,0,1,1.1-2.4h0l.7-.8H49a4.4,4.4,0,0,1,2.3-.7m0-3h0a7.8,7.8,0,0,0-4,1.2H47a10,10,0,0,0-1.4,1.5,9.8,9.8,0,0,0-1.4,3.1.6.6,0,0,0-.1.4c0,.1-.1.1-.1.2a.9.9,0,0,1-.1.5,26,26,0,0,0-.3,4h-.4l-1-.2a3.4,3.4,0,0,0-2.9,1.7,4.1,4.1,0,0,0-.2,3.9c1,2,3.5,2.3,5,2.3h1a13.6,13.6,0,0,0,1.3,2.4,10.5,10.5,0,0,0,2.4,2.7l.5.4h.1a6.8,6.8,0,0,0,3.8,1.2,6.5,6.5,0,0,0,6-4.1c1.4-3.4,1.7-13-1.7-17.9a7.5,7.5,0,0,0-6.2-3.5Z" style="fill:#3f1c0b"/><path d="M47.7,78.1s-3.6,1.6-5.3.2-.9.5-.6,1.2,3.7,1.2,6.3-.5C48.7,78.3,48.2,77.9,47.7,78.1Z" style="fill:#572406"/><path d="M49,68s3.3-2.4,6,1.5,2.5,12.6,1.4,15.1-4.6,3.6-7.5-.7S45.7,70.1,49,68Z" style="fill:#71350e"/><path d="M54.7,81.3c0-.1.2-.2.4-.2s.2.2.2.4h0c-1.2,2.9-2.8,4.2-3.9,4.7a1.8,1.8,0,0,1-.7-.5C51.6,85.5,53.4,84.5,54.7,81.3Z" style="fill:#572406"/><path d="M53.1,79.2a.4.4,0,0,1,.5,0,.4.4,0,0,1,.1.3v.2a20,20,0,0,1-4.9,3.8,2.1,2.1,0,0,0-.4-.6A17.3,17.3,0,0,0,53.1,79.2Z" style="fill:#572406"/><path d="M53.2,77a.4.4,0,0,1,.1.3c0,.1,0,.2-.1.2A20.8,20.8,0,0,1,47.3,80a1.4,1.4,0,0,1-.2-.7c1.4-.4,4.2-1.2,5.6-2.3Z" style="fill:#572406"/><path d="M51.9,75.6c.2,0,.3.2.3.4h0c0,.2-.2.3-.4.3-2.1-.2-4.1-.2-5.1-.2a2.2,2.2,0,0,1-.1-.8Z" style="fill:#572406"/><path d="M51.7,73.2h0c-.1.2-.3.2-.5.2a13,13,0,0,0-4.3-1.4c0-.4.1-.5.1-.8a14.5,14.5,0,0,1,4.5,1.5C51.7,72.9,51.7,73,51.7,73.2Z" style="fill:#572406"/><path d="M52.2,70.4v.2a.4.4,0,0,1-.1.3c-.2.1-.4.1-.5-.1a4.6,4.6,0,0,0-3.5-1.9l.7-.8A5,5,0,0,1,52.2,70.4Z" style="fill:#572406"/><path d="M56.4,85.7c-3.5,0-6.3-3-7.2-7.6s1-8.2,1.3-8.7,2-2.5,6-2.5h.8c2.7.2,5.7.9,7.6,4.7a3.1,3.1,0,0,1,2.5,2.1c.2.5.2,1.7-1.3,2.8a9,9,0,0,1-1.9,5.6c-1.2,1.5-3.4,3.3-7.6,3.6h-.2Z" style="fill:#f58b31"/><path d="M56.5,68.4h.7c2.4.2,5.1.7,6.7,4.6h0c2,0,3.2,1.4.6,2.7.4,3.2-1.3,7.9-8,8.5-3,0-5.1-2.9-5.8-6.4s1-7.5,1-7.5,1.3-1.9,4.8-1.9m0-3h0a8.9,8.9,0,0,0-7.2,3.1c-.4.6-2.7,4-1.6,9.9s4.5,8.8,8.7,8.8h.3c4.7-.4,7.3-2.5,8.6-4.1a9.8,9.8,0,0,0,2.2-5.9,4,4,0,0,0,1.4-3.8,4.3,4.3,0,0,0-3-3.1,9.5,9.5,0,0,0-8.5-4.9Z" style="fill:#a8662f"/><path d="M50.7,77.8c-1-5,1-7.5,1-7.5A4.6,4.6,0,0,1,53.5,69c-.7.6-1.8,2.1-1.9,5.3s2.3,7.7,5.6,7.9,6.6-1.4,6.6-7.3c.7,0,1.9-.2,2-1.2.4.5.2,1.3-1.3,2,.4,3.2-1.3,7.9-8,8.5C53.5,84.2,51.4,81.3,50.7,77.8Z" style="fill:#e67922"/><path d="M21.4,98.4a.5.5,0,0,1,.5.4c-.3,1.5,1.3,3.1,2.2,3.9a22.7,22.7,0,0,1,2.5-1.8h0a14.6,14.6,0,0,1,3-1.6l.6-.2h0l2.3-.3h.4l1,.2h.2s3.8,1.5,1.8,5.9-9.4,8.7-12.1,9.1h-.6a3.5,3.5,0,0,1-3.5-3.9h0v-.4h0a10.8,10.8,0,0,1,.8-2.6,14.2,14.2,0,0,1,2.4-3.4h0l.4-.3c-2.1-1.5-3.1-4-2.8-4.5a1.2,1.2,0,0,1,.9-.6m0-3A4.2,4.2,0,0,0,18,97.3c-1.1,1.8-.3,4.3,1.2,6.3a10,10,0,0,0-1.4,2.4,9.3,9.3,0,0,0-1,3.5,1.3,1.3,0,0,0-.1.6h0a6.9,6.9,0,0,0,1.9,5,6.6,6.6,0,0,0,4.6,1.9h1c3.7-.5,12.1-5.3,14.5-10.8a7.7,7.7,0,0,0,.3-6.1,6.9,6.9,0,0,0-3.6-3.7.1.1,0,0,1-.1-.1H35a6.5,6.5,0,0,0-2-.4h-.5a10.1,10.1,0,0,0-2.9.4h-.4c-.1,0-.1,0-.1.1l-.6.2A22.3,22.3,0,0,0,25,98.3h-.1c0-.1-.1-.3-.1-.4a3.5,3.5,0,0,0-3.4-2.6Z" style="fill:#3f1c0b"/><path d="M24.8,103.3s-3.3-2.3-2.9-4.5c-.2-.6-1-.5-1.4.2s1,3.7,3.8,5C25.1,104.2,25.2,103.5,24.8,103.3Z" style="fill:#572406"/><path d="M34.1,99.1s3.8,1.5,1.8,5.9-9.4,8.7-12.1,9.1-5.5-2.1-3.3-6.9S30.6,97.4,34.1,99.1Z" style="fill:#71350e"/><path d="M25.7,110.9c.1-.1.3.1.4.3l-.2.3h-.1c-3.2.5-5.1-.3-6.1-1v-.8C20.5,110.4,22.3,111.4,25.7,110.9Z" style="fill:#572406"/><path d="M26.6,108.5c.2,0,.3.2.3.4l-.2.2a.1.1,0,0,1-.2,0,19.9,19.9,0,0,1-5.8-2.2l.3-.6A21,21,0,0,0,26.6,108.5Z" style="fill:#572406"/><path d="M28.6,107.4l-.2.2h-.3c-1.8-.7-4.1-2.8-5.2-3.8a1.2,1.2,0,0,0,.5-.5,21.6,21.6,0,0,0,5,3.7C28.5,107,28.6,107.2,28.6,107.4Z" style="fill:#572406"/><path d="M29.1,105.5a.4.4,0,0,1-.1.5h-.1c-.1.1-.3,0-.4-.2L26,101.3l.6-.4C27.1,101.8,28.1,103.5,29.1,105.5Z" style="fill:#572406"/><path d="M31.1,104.1H31c-.2.1-.4-.1-.4-.3a12.7,12.7,0,0,0-1.1-4.4l.7-.3a13.4,13.4,0,0,1,1.1,4.7C31.3,103.9,31.2,104,31.1,104.1Z" style="fill:#572406"/><path d="M33.7,103.1h-.5c-.1-.1-.2-.3-.1-.4a4.7,4.7,0,0,0-.2-4l1,.2A5,5,0,0,1,33.7,103.1Z" style="fill:#572406"/><path d="M31,119.5c-2.1,0-5.3-.8-8.1-4.7h-.1c-1.7-3-.7-7,2.8-10.2s6.4-3.4,7.6-3.4h.5c.6,0,3.7.5,5.7,4.4s2.1,5.4-.2,8.9a3.4,3.4,0,0,1,0,2.8,2.3,2.3,0,0,1-2,1.2,4.2,4.2,0,0,1-1.5-.4A8.9,8.9,0,0,1,31,119.5Z" style="fill:#f58b31"/><path d="M33.2,102.6h.3s2.7.2,4.5,3.7,2.1,4.7-.5,8.1c.8,1.2.7,2.6-.3,2.6a3,3,0,0,1-1.6-.7A7.2,7.2,0,0,1,31,118c-2.2,0-4.7-1.1-6.9-4.1s-.1-5.9,2.5-8.2,5.7-3.1,6.6-3.1m0-3h0a13.1,13.1,0,0,0-8.6,3.8c-4,3.7-5.2,8.4-3.1,12l.2.3c3.2,4.4,6.8,5.3,9.3,5.3a11.4,11.4,0,0,0,4.8-1.2l1.4.2a3.8,3.8,0,0,0,3.3-2,4.6,4.6,0,0,0,.4-3.3c2.5-4.4.6-8.1-.2-9.8-2.3-4.5-5.9-5.1-6.9-5.2Z" style="fill:#a8662f"/><path d="M26.6,105.7c3.7-3.5,6.9-3.1,6.9-3.1a4.8,4.8,0,0,1,2.1.9c-.9-.4-2.7-.5-5.5,1.1s-5.4,6-3.9,8.8,4.6,5.1,9.7,1.9c.4.6,1.2,1.5,2.1,1.1s-1,.8-2.4-.1c-2.6,2.1-7.5,3.1-11.5-2.4C22.6,111.3,24,108,26.6,105.7Z" style="fill:#e67922"/><path d="M46.6,117.1c.2,0,.4.2.5.5s1.2,3.1,2.2,3.9a22.3,22.3,0,0,1,2.4-1.9h.1l3-1.5.6-.2h0a6,6,0,0,1,2.2-.4h.5l.9.2h.3s3.7,1.6,1.8,6-9.5,8.6-12.1,9h-.6a3.4,3.4,0,0,1-3.5-3.8h0v-.4h0a7.2,7.2,0,0,1,.8-2.5,12.5,12.5,0,0,1,2.4-3.4h0l.4-.4c-2.1-1.5-3.2-4-2.8-4.5a1.1,1.1,0,0,1,.9-.6m0-3a4.1,4.1,0,0,0-3.4,2c-1.2,1.7-.3,4.2,1.2,6.2a15.8,15.8,0,0,0-1.5,2.4,12.4,12.4,0,0,0-1,3.5v.6h0a6.9,6.9,0,0,0,1.8,5,6.7,6.7,0,0,0,4.7,1.9h1c3.6-.6,12.1-5.4,14.4-10.8a8.1,8.1,0,0,0,.4-6.2,7,7,0,0,0-3.7-3.7h-.1l-.2-.2-2-.4h-.6a9.5,9.5,0,0,0-2.8.4l-.4.2h-.2l-.5.2a12.9,12.9,0,0,0-3.5,1.8H50v-.4a3.7,3.7,0,0,0-3.4-2.6Z" style="fill:#3f1c0b"/><path d="M50,122s-3.3-2.3-2.9-4.4-1-.5-1.4.1,1,3.8,3.7,5C50.3,122.9,50.4,122.3,50,122Z" style="fill:#572406"/><path d="M59.3,117.8s3.7,1.6,1.8,6-9.5,8.6-12.1,9-5.6-2.1-3.3-6.8S55.7,116.1,59.3,117.8Z" style="fill:#71350e"/><path d="M50.8,129.6c.2,0,.4.1.4.3s0,.3-.2.3,0,.1-.1.1c-3.1.5-5-.2-6-.9v-.9C45.6,129.2,47.4,130.2,50.8,129.6Z" style="fill:#572406"/><path d="M51.8,127.2c.2,0,.3.2.3.4s-.1.2-.2.2h-.2a19,19,0,0,1-5.9-2.3l.4-.6A18,18,0,0,0,51.8,127.2Z" style="fill:#572406"/><path d="M53.7,126.2h-.1a.2.2,0,0,1-.3,0c-1.8-.6-4.1-2.7-5.2-3.7l.5-.5a18.3,18.3,0,0,0,4.9,3.6A.4.4,0,0,1,53.7,126.2Z" style="fill:#572406"/><path d="M54.3,124.3a.4.4,0,0,1-.2.4h0c-.2.1-.4.1-.5-.1-.9-2-1.9-3.6-2.4-4.6l.6-.4C52.3,120.5,53.3,122.3,54.3,124.3Z" style="fill:#572406"/><path d="M56.3,122.8h-.2a.3.3,0,0,1-.3-.3,14.9,14.9,0,0,0-1.2-4.5l.8-.2a13.8,13.8,0,0,1,1,4.6C56.4,122.7,56.4,122.8,56.3,122.8Z" style="fill:#572406"/><path d="M58.8,121.8c0,.1,0,.1-.1.1h-.3a.4.4,0,0,1-.2-.5,4.8,4.8,0,0,0-.1-4l.9.2A4.6,4.6,0,0,1,58.8,121.8Z" style="fill:#572406"/><path d="M56.1,138.2c-2.1,0-5.2-.8-8-4.7H48c-1.8-3-.7-7,2.7-10.1s6.5-3.4,7.7-3.4h.5c.6.1,3.6.6,5.6,4.5,1.3,2.4,2.2,5.3-.1,8.9a3.2,3.2,0,0,1,0,2.7,2.2,2.2,0,0,1-2.1,1.2,2.7,2.7,0,0,1-1.4-.4A9.2,9.2,0,0,1,56.1,138.2Z" style="fill:#f58b31"/><path d="M58.4,121.4h.3s2.7.1,4.5,3.7,2,4.7-.5,8c.7,1.3.7,2.6-.4,2.6a3.3,3.3,0,0,1-1.5-.6,7.8,7.8,0,0,1-4.7,1.6c-2.2,0-4.6-1-6.8-4s-.2-5.9,2.5-8.3,5.6-3,6.6-3m0-3h0c-1.4,0-4.9.3-8.7,3.8s-5.2,8.3-3,12c0,.1.1.1.2.2,3.2,4.4,6.8,5.3,9.2,5.3a10.4,10.4,0,0,0,4.9-1.2l1.3.2a3.8,3.8,0,0,0,3.4-1.9,4.6,4.6,0,0,0,.3-3.3,9.6,9.6,0,0,0-.1-9.8c-2.4-4.6-6-5.2-6.9-5.3Z" style="fill:#a8662f"/><path d="M51.8,124.4c3.7-3.4,6.9-3,6.9-3a4.2,4.2,0,0,1,2.1.8c-1-.3-2.8-.5-5.5,1.1s-5.4,6-3.9,8.9,4.6,5,9.6,1.9c.4.6,1.2,1.5,2.1,1.1s-1,.8-2.3-.1c-2.6,2-7.5,3-11.5-2.4C47.8,130.1,49.1,126.8,51.8,124.4Z" style="fill:#e67922"/><path d="M46.7,100.1a5.6,5.6,0,0,1,2.6.7c4.3,2.3,8,10,8.3,12.7a3.6,3.6,0,0,1-3.7,3.9h-.8a6.9,6.9,0,0,1-2.5-.9,13.5,13.5,0,0,1-3.3-2.7h0l-.3-.4a7,7,0,0,1-4.3,2.6h-.4c-.6-.4-.7-1.2-.1-1.4h.5c1.4,0,2.8-1.2,3.6-2a23.3,23.3,0,0,1-1.7-2.6h0a21.2,21.2,0,0,1-1.4-3.1c0-.3-.1-.4-.1-.6h0a6.4,6.4,0,0,1-.2-2.7h0a1.7,1.7,0,0,1,.3-1h0v-.2a3.9,3.9,0,0,1,3.4-2.2m0-3h0a7,7,0,0,0-6.1,3.8h0c-.1.1-.1.1-.1.2a6.6,6.6,0,0,0-.6,2h0a10,10,0,0,0,.2,3.4c0,.1.1.3.1.4v.2c.1.1.1.3.2.5a27.5,27.5,0,0,0,1.5,3.6h-.3a3.6,3.6,0,0,0-2.7,2.7,3.9,3.9,0,0,0,1.6,4,3.5,3.5,0,0,0,2.2.7,8.3,8.3,0,0,0,4.2-1.5,12.1,12.1,0,0,0,5.6,2.9h1.4a6.5,6.5,0,0,0,6.7-7.1c-.4-3.7-4.6-12.4-9.9-15.1a8.9,8.9,0,0,0-4-1.1Z" style="fill:#3f1c0b"/><path d="M46.9,111.8s-2.5,3.2-4.7,2.6c-.6.2-.5,1,.1,1.4s3.8-.7,5.3-3.4C47.8,111.6,47.1,111.4,46.9,111.8Z" style="fill:#572406"/><path d="M43.3,102.3s1.7-3.7,6-1.5,8,10,8.3,12.7-2.4,5.4-7,2.9S41.3,105.7,43.3,102.3Z" style="fill:#71350e"/><path d="M54.5,111.5c0-.2.1-.4.3-.4s.3,0,.4.2h0a8.5,8.5,0,0,1-1.3,6h-.8C53.7,116.6,54.8,114.9,54.5,111.5Z" style="fill:#572406"/><path d="M52.2,110.3c0-.2.2-.3.4-.2a.2.2,0,0,1,.2.2.1.1,0,0,1,0,.2,19.3,19.3,0,0,1-2.6,5.7l-.6-.4A17.4,17.4,0,0,0,52.2,110.3Z" style="fill:#572406"/><path d="M51.2,108.3l.2.2v.3a20.1,20.1,0,0,1-4.1,4.9l-.4-.5a23.2,23.2,0,0,0,3.9-4.7A.4.4,0,0,1,51.2,108.3Z" style="fill:#572406"/><path d="M49.4,107.7c.2-.1.4,0,.4.2h.1c0,.2-.1.4-.2.4a44.9,44.9,0,0,0-4.7,2.2l-.4-.6A48.8,48.8,0,0,1,49.4,107.7Z" style="fill:#572406"/><path d="M48.1,105.6v.2a.3.3,0,0,1-.3.3,14.5,14.5,0,0,0-4.5.8,6.4,6.4,0,0,0-.2-.7,12.4,12.4,0,0,1,4.7-.8Z" style="fill:#572406"/><path d="M47.2,103h.2a.4.4,0,0,1-.1.3c0,.2-.2.3-.4.2a4.3,4.3,0,0,0-4-.1,1.7,1.7,0,0,1,.3-1A4.6,4.6,0,0,1,47.2,103Z" style="fill:#572406"/><path d="M55.4,115.2c-2.5,0-5.2-1.5-7.2-4.1-3.4-4.2-3-7.8-2.9-8.3a7.6,7.6,0,0,1,4.8-5.3,10.8,10.8,0,0,1,4.2-1.1A8,8,0,0,1,59,98.1l1.3-.2a2.5,2.5,0,0,1,2.3,1.3,3,3,0,0,1-.3,2.7,8.7,8.7,0,0,1,1,5.9,10.7,10.7,0,0,1-5,6.7h-.2A5.2,5.2,0,0,1,55.4,115.2Z" style="fill:#f58b31"/><path d="M54.3,97.9a7.1,7.1,0,0,1,4.5,1.9,4.2,4.2,0,0,1,1.5-.4c1,0,1.5.8.3,2.5,1.9,2.7,2.6,7.6-3.2,11.3a4.6,4.6,0,0,1-2,.5,8,8,0,0,1-6-3.5c-3.2-4-2.6-7.1-2.6-7.1s.3-2.7,3.9-4.3a10.6,10.6,0,0,1,3.6-.9m0-3h0a11.3,11.3,0,0,0-4.8,1.2,9,9,0,0,0-5.7,6.5c-.1.8-.5,4.8,3.2,9.5,2.4,2.9,5.4,4.6,8.4,4.6a8.1,8.1,0,0,0,3.4-.8l.3-.2a12.5,12.5,0,0,0,5.7-7.6,10.2,10.2,0,0,0-.8-6.2,4,4,0,0,0-.1-3.3,3.8,3.8,0,0,0-3.6-2.2h-1a9.5,9.5,0,0,0-5-1.6Z" style="fill:#a8662f"/><path d="M49.4,110.2c-3.2-4-2.6-7.1-2.6-7.1a4.8,4.8,0,0,1,.9-2.1c-.3,1-.6,2.8.8,5.6s5.7,5.8,8.6,4.4,5.3-4.2,2.5-9.5c.6-.3,1.6-1.1,1.2-2s.8,1.1-.2,2.4c1.9,2.7,2.6,7.6-3.2,11.3C54.8,114.5,51.6,113,49.4,110.2Z" style="fill:#e67922"/><path d="M73.2,64.3a5.6,5.6,0,0,1,2.6.7c4.3,2.3,8,10,8.3,12.7a3.6,3.6,0,0,1-3.7,3.9h-.9a7.2,7.2,0,0,1-2.4-.9,11.9,11.9,0,0,1-3.3-2.7h0l-.3-.4a7,7,0,0,1-4.3,2.6h-.4c-.6-.4-.7-1.2-.1-1.4h.5c1.4,0,2.8-1.2,3.6-2a23.3,23.3,0,0,1-1.7-2.6h0A14.1,14.1,0,0,1,69.7,71c0-.3-.1-.4-.1-.7h0a5.9,5.9,0,0,1-.2-2.6h0a1.7,1.7,0,0,1,.3-1h0c0-.1,0-.2.1-.2a3.9,3.9,0,0,1,3.4-2.2m0-3h0a7,7,0,0,0-6.1,3.8h0c-.1,0-.1.1-.2.2a11.7,11.7,0,0,0-.5,2h0a10.2,10.2,0,0,0,.2,3.4.6.6,0,0,0,.1.4h0c.1.2.1.4.2.6a18.9,18.9,0,0,0,1.6,3.6h-.4a3.6,3.6,0,0,0-2.7,2.7,3.9,3.9,0,0,0,1.6,4,3.5,3.5,0,0,0,2.2.7,7.7,7.7,0,0,0,4.1-1.5,13.8,13.8,0,0,0,2.3,1.6A13.1,13.1,0,0,0,79,84.5h1.4a6.9,6.9,0,0,0,5-2.1,7.2,7.2,0,0,0,1.7-5.1c-.4-3.6-4.6-12.3-9.9-15a8.9,8.9,0,0,0-4-1.1Z" style="fill:#3f1c0b"/><path d="M73.4,76s-2.5,3.2-4.7,2.6c-.6.2-.5,1,.1,1.4s3.8-.7,5.2-3.4C74.3,75.8,73.6,75.6,73.4,76Z" style="fill:#572406"/><path d="M69.8,66.5s1.7-3.7,6-1.5,8,10,8.3,12.7-2.4,5.4-7,2.9S67.8,69.9,69.8,66.5Z" style="fill:#71350e"/><path d="M81,75.7c0-.2.1-.4.3-.4s.3,0,.3.2h.1a8.5,8.5,0,0,1-1.3,6h-.9C80.2,80.8,81.3,79.1,81,75.7Z" style="fill:#572406"/><path d="M78.7,74.5c0-.2.2-.3.4-.2a.2.2,0,0,1,.2.2v.2a19.3,19.3,0,0,1-2.6,5.7l-.6-.4A17.4,17.4,0,0,0,78.7,74.5Z" style="fill:#572406"/><path d="M77.7,72.5c.1.1.2.1.2.2V73a20.1,20.1,0,0,1-4.1,4.9l-.4-.5a23.2,23.2,0,0,0,3.9-4.7A.4.4,0,0,1,77.7,72.5Z" style="fill:#572406"/><path d="M75.9,71.9c.2-.1.4,0,.4.1h0c.1.1,0,.3-.1.4a44.9,44.9,0,0,0-4.7,2.2l-.4-.6A39.7,39.7,0,0,1,75.9,71.9Z" style="fill:#572406"/><path d="M74.6,69.8h0c0,.2-.1.4-.3.4a14.5,14.5,0,0,0-4.5.8c-.1-.3-.1-.5-.2-.8a15.5,15.5,0,0,1,4.7-.7Z" style="fill:#572406"/><path d="M73.7,67.2h.1a.2.2,0,0,1,0,.3.3.3,0,0,1-.4.2,4.3,4.3,0,0,0-4-.1,1.7,1.7,0,0,1,.3-1A4.6,4.6,0,0,1,73.7,67.2Z" style="fill:#572406"/><path d="M81.9,79.4c-2.5,0-5.2-1.5-7.2-4.1-3.4-4.2-3-7.8-2.9-8.3s.7-3.6,4.8-5.4a10.8,10.8,0,0,1,4.2-1,8,8,0,0,1,4.7,1.7l1.2-.2a2.6,2.6,0,0,1,2.4,1.3,3,3,0,0,1-.3,2.7,8.7,8.7,0,0,1,1,5.9c-.4,1.8-1.5,4.4-5.1,6.6,0,.1,0,.1-.1.1A5.2,5.2,0,0,1,81.9,79.4Z" style="fill:#f58b31"/><path d="M80.8,62.1A7.1,7.1,0,0,1,85.3,64a4.3,4.3,0,0,1,1.4-.4c1.1,0,1.6.8.4,2.5,1.9,2.7,2.6,7.6-3.2,11.3a4.6,4.6,0,0,1-2,.5c-2.2,0-4.4-1.4-6.1-3.5-3.1-4-2.5-7.1-2.5-7.1s.3-2.7,3.9-4.3a10.6,10.6,0,0,1,3.6-.9m0-3h0A11.3,11.3,0,0,0,76,60.3a9,9,0,0,0-5.7,6.5c-.1.8-.5,4.8,3.2,9.5,2.4,2.9,5.4,4.6,8.4,4.6a8.1,8.1,0,0,0,3.4-.8l.3-.2a12.3,12.3,0,0,0,5.7-7.7,9.9,9.9,0,0,0-.8-6.1,4.4,4.4,0,0,0-.1-3.3,3.8,3.8,0,0,0-3.7-2.2h-.9a9.5,9.5,0,0,0-5-1.6Z" style="fill:#a8662f"/><path d="M75.8,74.4c-3.1-4-2.5-7.1-2.5-7.1a4.8,4.8,0,0,1,.9-2.1c-.3,1-.6,2.8.8,5.6s5.6,5.8,8.6,4.4,5.3-4.2,2.5-9.5c.6-.3,1.6-1.1,1.2-2s.8,1.1-.2,2.4c1.9,2.7,2.6,7.6-3.2,11.3C81.3,78.7,78.1,77.2,75.8,74.4Z" style="fill:#e67922"/><path d="M96.2,72.7a1.1,1.1,0,0,1,.7.3c.5.4.3,3.1-1.3,5.1l.5.3h0a15,15,0,0,1,3.4,2.5,8.6,8.6,0,0,1,1.5,2.2h0c0,.1.1.2.1.4h0a3.5,3.5,0,0,1-2.7,4.9h-1c-3.3,0-10.4-1.7-13.3-5s-.1-6.1-.1-6.1l.2-.2h0l.9-.5h0a6.7,6.7,0,0,1,2.6-.5h.7l3.3.6h.1a20,20,0,0,1,2.9,1c.6-1.1,1.6-3.1.9-4.4a.5.5,0,0,1,.6-.6m0-3a3.6,3.6,0,0,0-2.6,1.1,3.5,3.5,0,0,0-1,2.6v.4h-.1a20.1,20.1,0,0,0-3.9-.7H87.4a10.7,10.7,0,0,0-3.3.7h0a6.4,6.4,0,0,0-1.8,1H82a7.4,7.4,0,0,0-2.3,4.7,7.8,7.8,0,0,0,2.1,5.7c3.8,4.3,12.1,6,15.6,6h1.5a6.7,6.7,0,0,0,4.6-3,6.9,6.9,0,0,0,.5-5.8h-.1c0-.2-.1-.3-.2-.5a8.3,8.3,0,0,0-2-3A12.9,12.9,0,0,0,99.6,77c.8-2.3.9-5-.8-6.3a3.7,3.7,0,0,0-2.6-1Z" style="fill:#3f1c0b"/><path d="M94.2,78.4s2.4-3.2,1.4-5.1.8-.8,1.3-.3.3,3.9-2,5.9C94.1,79.3,93.8,78.8,94.2,78.4Z" style="fill:#572406"/><path d="M84,77.3s-3.1,2.5.1,6.1,11.6,5.4,14.3,5,4.6-3.6,1.1-7.5S86.9,74.5,84,77.3Z" style="fill:#71350e"/><path d="M95.7,85.9c-.2,0-.4.2-.3.4s.1.3.2.3h.2a8.9,8.9,0,0,0,5.5-2.7l-.3-.8C100.5,83.9,99.1,85.4,95.7,85.9Z" style="fill:#572406"/><path d="M94,83.9c-.2.1-.2.3-.1.5h.4a19.6,19.6,0,0,0,4.9-3.9l-.5-.5A16,16,0,0,1,94,83.9Z" style="fill:#572406"/><path d="M91.8,83.5h.5a19.3,19.3,0,0,0,3.8-5.1l-.6-.3c-.7,1.2-2.2,3.8-3.6,4.9S91.7,83.3,91.8,83.5Z" style="fill:#572406"/><path d="M90.8,81.9c-.1.2.1.3.2.4h.1a.3.3,0,0,0,.3-.3c.4-2.2.8-4.1,1-5.1l-.7-.2C91.5,77.7,91.1,79.7,90.8,81.9Z" style="fill:#572406"/><path d="M88.4,81.1h.2c.2,0,.3-.2.2-.4a15.8,15.8,0,0,1-.3-4.6h-.8a15.4,15.4,0,0,0,.5,4.8Z" style="fill:#572406"/><path d="M85.6,80.9h.5c.2-.1.2-.3.1-.5a4.2,4.2,0,0,1-1.1-3.8l-.9.5A5.1,5.1,0,0,0,85.6,80.9Z" style="fill:#572406"/><path d="M86.2,96.7a2.5,2.5,0,0,1-1.8-.8,4.5,4.5,0,0,1-.6-2.4c-3.2-2.7-3.2-5.7-2.8-8.4.7-4.4,3.5-5.8,4.1-6a7.2,7.2,0,0,1,3.1-.6,14.7,14.7,0,0,1,5.6,1.3c4.2,2,6.5,5.5,5.7,8.9h0c-2.3,6.6-7,7.3-8.9,7.3h0a8.5,8.5,0,0,1-2.3-.3A3.2,3.2,0,0,1,86.2,96.7Z" style="fill:#f58b31"/><path d="M88.2,80a12.3,12.3,0,0,1,5,1.2c3.2,1.5,5.5,4.2,4.8,7.1-1.6,4.8-4.7,6.3-7.4,6.3a8.2,8.2,0,0,1-2.8-.5,2.3,2.3,0,0,1-1.6,1.1c-.8,0-1.1-1.1-.8-2.3-3.4-2.5-3.3-5.2-2.9-7.6s3.2-4.8,3.2-4.8a5.5,5.5,0,0,1,2.5-.5m0-3a8.8,8.8,0,0,0-3.7.7c-.9.4-4.1,2-5,7.1a9.6,9.6,0,0,0,2.8,9.4,4.6,4.6,0,0,0,1,2.6,3.7,3.7,0,0,0,2.9,1.4,3.9,3.9,0,0,0,2.5-.8,5.8,5.8,0,0,0,1.9.2c2.2,0,7.8-.8,10.3-8.3V89c.9-4.1-1.7-8.3-6.6-10.5A14.5,14.5,0,0,0,88.2,77Z" style="fill:#a8662f"/><path d="M93.2,81.2c-4.6-2.1-7.5-.7-7.5-.7a4.4,4.4,0,0,0-1.8,1.4c.8-.6,2.5-1.3,5.6-.6s7,4,6.4,7.2-2.9,6.2-8.6,4.8c-.2.6-.7,1.7-1.7,1.6s1.2.5,2.2-.8c3.1,1.2,8.1.7,10.2-5.8C98.7,85.4,96.4,82.7,93.2,81.2Z" style="fill:#e67922"/><path d="M66.1,82.6c.6,0,2.3,2,2.6,4.5h.5a13.1,13.1,0,0,1,3.8-.6h.4a9.2,9.2,0,0,1,2.6.5h0l.4.2h0a3.5,3.5,0,0,1,1.5,5.4c-1.5,2.1-8.3,6.6-13.1,6.6h-.6c-4.7-.3-4.4-4.3-4.4-4.3s.1-.2.1-.3h0a3.6,3.6,0,0,1,.2-1h0a7.3,7.3,0,0,1,1.6-2.1h0l.5-.4a14.6,14.6,0,0,1,2.7-2h0l2.8-1.3c-.3-1.2-1-3.3-2.4-3.8s0-1,.7-1.1h.1m0-3h-.3a4.1,4.1,0,0,0-3.5,2.6,3.4,3.4,0,0,0,.9,3.7l.3.3h-.1a20.2,20.2,0,0,0-3.2,2.3l-.4.4h-.1l-.3.3a10.1,10.1,0,0,0-2,2.9h0a4.1,4.1,0,0,0-.5,1.9v.3h-.1a7.6,7.6,0,0,0,1.7,5A7.6,7.6,0,0,0,64,102h.8c6,0,13.5-5.1,15.5-7.8a6.6,6.6,0,0,0-2.6-9.9h0l-.6-.3a12.1,12.1,0,0,0-3.6-.7H73l-2.2.2c-1.1-2.2-2.8-4-4.7-4Z" style="fill:#3f1c0b"/><path d="M67.9,88.4s-.5-4-2.6-4.7c-.5-.4,0-1,.7-1.1s2.9,2.6,2.8,5.6C68.5,89.1,67.9,88.9,67.9,88.4Z" style="fill:#572406"/><path d="M59.8,94.7s-.3,4,4.4,4.3,12.1-4.3,13.7-6.5.7-5.8-4.5-6.1S60,90.7,59.8,94.7Z" style="fill:#71350e"/><path d="M74.2,92.7c-.1.1-.1.3.1.5h.4c2-2.6,2.2-4.6,2.1-5.8l-.8-.4C76.2,87.9,76.3,89.9,74.2,92.7Z" style="fill:#572406"/><path d="M71.6,92.4c0,.2.1.4.3.4s.1.1.2,0a.2.2,0,0,0,.2-.2,18.1,18.1,0,0,0,.7-6.2h-.7A16.9,16.9,0,0,1,71.6,92.4Z" style="fill:#572406"/><path d="M69.8,93.6H70c.1-.1.2-.2.2-.3a20.3,20.3,0,0,0-1-6.3l-.6.2a19.5,19.5,0,0,1,.9,6.1A.3.3,0,0,0,69.8,93.6Z" style="fill:#572406"/><path d="M67.9,93.2a.2.2,0,0,0,.4.1h.1a.4.4,0,0,0,0-.5c-1.2-1.7-2.3-3.4-2.8-4.3l-.7.3C65.5,89.8,66.6,91.4,67.9,93.2Z" style="fill:#572406"/><path d="M65.7,94.3h.1c.1-.1,0-.3-.1-.4a13.3,13.3,0,0,1-3.4-3.1l-.6.5a13.1,13.1,0,0,0,3.6,3.1A.3.3,0,0,0,65.7,94.3Z" style="fill:#572406"/><path d="M63.5,96.1h.2c.1-.1.2-.2.2-.3s-.1-.3-.3-.4a4.4,4.4,0,0,1-3.5-2,3.6,3.6,0,0,0-.2,1A4.7,4.7,0,0,0,63.5,96.1Z" style="fill:#572406"/><path d="M73.5,107.7a3.4,3.4,0,0,1-2.4-1.3h-.9c-3.7,0-5.6-2-7-4-2.6-3.7-1.6-6.6-1.3-7.2s1.6-3.7,6.7-5.5a10.8,10.8,0,0,1,4.2-.8,6.9,6.9,0,0,1,6.1,3v.2a10.6,10.6,0,0,1,.8,8.3,8.6,8.6,0,0,1-3.9,4.5,3,3,0,0,1-.7,2A2.1,2.1,0,0,1,73.5,107.7Z" style="fill:#f58b31"/><path d="M72.8,90.4a5.4,5.4,0,0,1,4.8,2.3c3,6.1-.2,10-3.2,11.3.2,1.5-.3,2.2-.9,2.2s-1.2-.6-1.7-1.4H70.2c-3.1,0-4.6-1.7-5.8-3.4-2.3-3.3-1.1-5.7-1.1-5.7s1.1-3,5.8-4.7a10.1,10.1,0,0,1,3.7-.7m0-3a16,16,0,0,0-4.7.8c-5.6,2.1-7.3,5.7-7.6,6.5S59,99,61.9,103.2a9.9,9.9,0,0,0,8.3,4.7h.3a4.7,4.7,0,0,0,3,1.3,3.7,3.7,0,0,0,2.8-1.3,4.1,4.1,0,0,0,1-2.1,9.9,9.9,0,0,0,3.9-4.9,11.8,11.8,0,0,0-.9-9.5c0-.1-.1-.2-.1-.3a8.4,8.4,0,0,0-7.4-3.7Z" style="fill:#a8662f"/><path d="M69.1,91.1c-4.7,1.7-5.8,4.7-5.8,4.7a3.9,3.9,0,0,0-.3,2.3c.2-1.1.9-2.7,3.6-4.4s7.8-2,9.6.7,2.3,6.4-2.8,9.4c.3.6.7,1.8,0,2.3s1.2-.5,1-2.1c3-1.3,6.2-5.2,3.2-11.3C76,90.2,72.5,89.8,69.1,91.1Z" style="fill:#e67922"/><path d="M30,114.3c.7,0,2.4,2,2.7,4.5h.5a12.9,12.9,0,0,1,3.7-.6h.5a9.2,9.2,0,0,1,2.6.5h0l.3.2h.1a3.5,3.5,0,0,1,1.5,5.4c-1.6,2.1-8.4,6.5-13.2,6.5h-.5c-4.8-.3-4.4-4.3-4.4-4.3v-.3h0a3.8,3.8,0,0,1,.3-1h0a8.6,8.6,0,0,1,1.5-2.2h0l.5-.4a20,20,0,0,1,2.8-2h0l2.8-1.3c-.3-1.2-1-3.3-2.4-3.8s0-1.1.7-1.1h0m0-3h-.3a3.9,3.9,0,0,0-3.4,2.6,3.3,3.3,0,0,0,.9,3.7l.3.3h-.1a20.2,20.2,0,0,0-3.2,2.3l-.5.4a.1.1,0,0,1-.1.1l-.3.3a11.6,11.6,0,0,0-1.9,2.8,7.6,7.6,0,0,0-.6,2v.3h0a7,7,0,0,0,1.6,4.9,7.6,7.6,0,0,0,5.6,2.6h.7c6,0,13.6-5.1,15.6-7.7a7.1,7.1,0,0,0,1.1-5.5,6.7,6.7,0,0,0-3.7-4.4h-.1l-.5-.3a13.5,13.5,0,0,0-3.6-.7h-.6a8.6,8.6,0,0,0-2.2.2c-1-2.2-2.7-4-4.7-4Z" style="fill:#3f1c0b"/><path d="M31.8,120.1s-.5-4-2.5-4.7c-.5-.4,0-1.1.7-1.1s2.9,2.6,2.7,5.6C32.5,120.8,31.9,120.6,31.8,120.1Z" style="fill:#572406"/><path d="M23.8,126.4s-.4,4,4.4,4.3,12.1-4.3,13.7-6.5.7-5.8-4.5-6.1S23.9,122.4,23.8,126.4Z" style="fill:#71350e"/><path d="M38.2,124.4a.3.3,0,0,0,0,.4h.5c1.9-2.6,2.2-4.6,2-5.8l-.7-.4C40.2,119.6,40.2,121.6,38.2,124.4Z" style="fill:#572406"/><path d="M35.6,124.1c-.1.2,0,.4.2.4h.3c.1-.1.1-.1.1-.2a22.4,22.4,0,0,0,.8-6.2h-.7A23.7,23.7,0,0,1,35.6,124.1Z" style="fill:#572406"/><path d="M33.7,125.3H34a.4.4,0,0,0,.1-.3,20.4,20.4,0,0,0-.9-6.3l-.7.2c.4,1.3,1.2,4.3.9,6A.4.4,0,0,0,33.7,125.3Z" style="fill:#572406"/><path d="M31.8,124.9c.2.2.4.2.5.1h0c.2-.1.2-.3.1-.5s-2.3-3.4-2.9-4.3l-.6.3C29.5,121.5,30.5,123.1,31.8,124.9Z" style="fill:#572406"/><path d="M29.6,126h.1a.3.3,0,0,0-.1-.5,13.2,13.2,0,0,1-3.4-3l-.6.5a13.8,13.8,0,0,0,3.7,3.1Z" style="fill:#572406"/><path d="M27.5,127.8h.2l.2-.3a.4.4,0,0,0-.3-.4,4.4,4.4,0,0,1-3.5-2,3.8,3.8,0,0,0-.3,1A5.2,5.2,0,0,0,27.5,127.8Z" style="fill:#572406"/><path d="M37.5,139.3a3.1,3.1,0,0,1-2.4-1.2h-.9c-3.7,0-5.6-2-7.1-4.1s-1.5-6.5-1.3-7.1,1.7-3.7,6.8-5.6a12.2,12.2,0,0,1,4.1-.7,6.8,6.8,0,0,1,6.1,3v.2c1.9,3.7,1.5,6.6.8,8.3a8.4,8.4,0,0,1-3.8,4.5,4,4,0,0,1-.7,2A2.3,2.3,0,0,1,37.5,139.3Z" style="fill:#f58b31"/><path d="M36.7,122.1a5.4,5.4,0,0,1,4.9,2.3c3,6.1-.2,10-3.2,11.3.1,1.5-.3,2.1-.9,2.1s-1.2-.5-1.7-1.3H34.2c-3.1,0-4.6-1.7-5.8-3.4-2.3-3.3-1.2-5.7-1.2-5.7s1.1-3,5.9-4.7a9.6,9.6,0,0,1,3.6-.7m0-3a14.8,14.8,0,0,0-4.6.8c-5.6,2.1-7.4,5.7-7.7,6.5s-1.4,4.3,1.5,8.5a9.7,9.7,0,0,0,8.3,4.7h.3a4.4,4.4,0,0,0,3,1.2,3.6,3.6,0,0,0,2.8-1.2,5.1,5.1,0,0,0,1-2.1,10.2,10.2,0,0,0,3.8-4.9c.8-2,1.2-5.3-.8-9.5l-.2-.3a8.4,8.4,0,0,0-7.4-3.7Z" style="fill:#a8662f"/><path d="M33.1,122.8c-4.8,1.7-5.9,4.7-5.9,4.7a4.3,4.3,0,0,0-.2,2.2c.1-1,.8-2.6,3.5-4.3s7.8-2,9.7.7,2.3,6.4-2.9,9.4c.4.6.8,1.7.1,2.3s1.1-.5,1-2.1c3-1.3,6.2-5.2,3.2-11.3C40,121.9,36.5,121.5,33.1,122.8Z" style="fill:#e67922"/><path d="M17.3,73.8c1.1,0,3.5.5,4.1,4.1S18.1,90.3,16.1,92a3.7,3.7,0,0,1-2.4,1,3.6,3.6,0,0,1-3.1-2h-.1c0-.1-.1-.2-.1-.4h0a7.3,7.3,0,0,1-.8-2.5,15.2,15.2,0,0,1,.2-4.2h0a.9.9,0,0,0,.1-.5c-2.5-.1-4.7-1.7-4.7-2.3s.3-1,.7-1h.4c.6,1.4,2.7,2,3.9,2.1a23.3,23.3,0,0,1,1.1-2.8h0A27.5,27.5,0,0,1,13,76.5l.4-.5h0a6.3,6.3,0,0,1,2.1-1.7h0a3.6,3.6,0,0,1,.9-.4h.9m0-3H15.9a6.2,6.2,0,0,0-1.9.7h0a10.5,10.5,0,0,0-2.7,2.2l-.3.3h0a1,1,0,0,0-.4.5,17.9,17.9,0,0,0-2,3.4H8.5L8.2,78a3.3,3.3,0,0,0-2.3-.9,3.8,3.8,0,0,0-3.7,4c0,2.1,2,3.7,4.4,4.6a13.1,13.1,0,0,0,0,2.8A12,12,0,0,0,7.7,92l.3.5H8A6.8,6.8,0,0,0,13.7,96a6.7,6.7,0,0,0,4.4-1.7c2.7-2.4,7.2-11,6.3-16.9s-4.2-6.6-7.1-6.6Z" style="fill:#3f1c0b"/><path d="M11.1,82.4s-4-.2-4.8-2.2c-.5-.4-1.1.1-1.1.9S8,83.7,11,83.3C11.8,83,11.6,82.4,11.1,82.4Z" style="fill:#572406"/><path d="M16.7,73.9s4-.8,4.7,4S18.1,90.3,16.1,92s-5.8,1.3-6.5-3.9S12.8,74.3,16.7,73.9Z" style="fill:#71350e"/><path d="M15.9,88.4c.2-.2.4-.2.5,0s.1.2.1.4-.1,0-.1.1a8.6,8.6,0,0,1-5.6,2.5,3,3,0,0,1-.4-.8C11.3,90.8,13.4,90.7,15.9,88.4Z" style="fill:#572406"/><path d="M15.5,85.8c.1-.1.3,0,.4.2v.3h-.2a17.6,17.6,0,0,1-6.1,1.3c0-.2-.1-.5-.1-.7A18.9,18.9,0,0,0,15.5,85.8Z" style="fill:#572406"/><path d="M16.5,83.9v.2l-.3.2c-1.8.4-4.9-.1-6.4-.4a6.4,6.4,0,0,0,.2-.7c1.4.3,4.4.8,6.1.4C16.3,83.6,16.5,83.7,16.5,83.9Z" style="fill:#572406"/><path d="M15.9,82a.4.4,0,0,1,.2.5h0a.4.4,0,0,1-.5.1L11,80.1l.3-.7C12.3,79.9,14,80.8,15.9,82Z" style="fill:#572406"/><path d="M16.9,79.7h-.1a.4.4,0,0,1-.5,0A15.7,15.7,0,0,0,13,76.6l.4-.6a11.9,11.9,0,0,1,3.4,3.4A.4.4,0,0,1,16.9,79.7Z" style="fill:#572406"/><path d="M18.5,77.4c0,.1,0,.2-.1.2a.2.2,0,0,1-.2.2c-.2.1-.4-.1-.4-.3a4.4,4.4,0,0,0-2.3-3.2,3.6,3.6,0,0,1,.9-.4A5,5,0,0,1,18.5,77.4Z" style="fill:#572406"/><path d="M20.3,94.1a11.6,11.6,0,0,1-4.6-1h-.1c-3.1-1.6-4.4-5.5-3.2-10s4.5-7,5-7.2a5,5,0,0,1,2.8-.7,9.6,9.6,0,0,1,4.4,1.3c2.4,1.4,4.8,3.4,4.7,7.6a2.9,2.9,0,0,1,1.4,3c-.1.5-.5,1.6-2.4,1.9A8.8,8.8,0,0,1,20.3,94.1Z" style="fill:#f58b31"/><path d="M20.2,76.7a8.2,8.2,0,0,1,3.7,1.1c2.1,1.2,4.3,2.9,3.9,7.1,1.8.9,2.3,2.7-.4,2.7h-.2a7.1,7.1,0,0,1-6.9,5,10.8,10.8,0,0,1-4-.9c-2.7-1.3-3.3-4.8-2.4-8.2s4.2-6.3,4.2-6.3a4.2,4.2,0,0,1,2.1-.5m0-3h0a8.4,8.4,0,0,0-3.5.8c-.8.4-4.2,2.5-5.7,8.2s.1,9.8,3.9,11.7h.3a14.2,14.2,0,0,0,5.1,1.1,10.2,10.2,0,0,0,9-5.3,3.8,3.8,0,0,0,2.9-2.9,4.2,4.2,0,0,0-1.4-4c-.3-5.2-3.8-7.2-5.4-8.2a10.3,10.3,0,0,0-5.2-1.5Z" style="fill:#a8662f"/><path d="M13.9,83.5c1.3-4.9,4.2-6.3,4.2-6.3a4.4,4.4,0,0,1,2.2-.5c-1,.3-2.5,1.1-4,4s-1.3,7.9,1.5,9.5,6.6,1.7,9.1-3.6c.7.3,1.9.6,2.4-.2s-.4,1.2-2.1,1.2c-1,3.1-4.6,6.6-10.9,4.1C13.6,90.4,13,86.9,13.9,83.5Z" style="fill:#e67922"/><path d="M40.4,75.4c.6,0,1,.4.8.9s-1.3,3.1-1.2,4.3l3,.4h0a16,16,0,0,1,3.3,1.1l.6.3h0A6.9,6.9,0,0,1,49,84h0l.6.8h0a.4.4,0,0,0,.1.3s1.5,3.7-2.9,5.5a13.1,13.1,0,0,1-4.1.6c-4.3,0-9.3-1.6-10.9-2.7a3.6,3.6,0,0,1-.2-5.6h0l.3-.2h0a9.9,9.9,0,0,1,2.3-1.3,13.7,13.7,0,0,1,4.2-.7h.5c-.5-2.6.6-5,1.2-5.2h.3m0-3h-.9c-2.1.5-3.3,2.8-3.6,5.3l-2.7.7A10.9,10.9,0,0,0,30,80.2l-.4.5h-.1A7,7,0,0,0,27.3,86,6.5,6.5,0,0,0,30,90.9c2.2,1.6,7.8,3.3,12.7,3.3a13.8,13.8,0,0,0,5.2-.9,7.4,7.4,0,0,0,4.5-4.1,7.5,7.5,0,0,0,.1-5.2h-.1c0-.1-.1-.2-.1-.3a8.2,8.2,0,0,0-1.1-1.7h0a9.7,9.7,0,0,0-2.7-2.1l-.4-.2H48l-.5-.3a21.1,21.1,0,0,0-3.8-1.2h-.1l.2-.4a3.4,3.4,0,0,0-.1-3.5,3.7,3.7,0,0,0-3.3-1.8Z" style="fill:#3f1c0b"/><path d="M40.1,81.5s-.7-3.9,1.1-5.2c.3-.6-.4-1-1.1-.9s-2,3.4-.9,6.2C39.7,82.3,40.2,82,40.1,81.5Z" style="fill:#572406"/><path d="M49.7,85.1s1.5,3.7-2.9,5.5-12.8-.5-15-2.1-2.5-5.4,2.4-7.2S48.3,81.3,49.7,85.1Z" style="fill:#71350e"/><path d="M35.4,87.5a.3.3,0,0,1,0,.5.2.2,0,0,1-.3.1H35c-2.6-1.9-3.5-3.7-3.7-5l.6-.5C32,83.6,32.5,85.5,35.4,87.5Z" style="fill:#572406"/><path d="M37.8,86.5c.1.1,0,.4-.1.5h-.5a20.3,20.3,0,0,1-2.6-5.7l.7-.2A18.7,18.7,0,0,0,37.8,86.5Z" style="fill:#572406"/><path d="M39.9,87.1h-.3l-.2-.2a18,18,0,0,1-1-6.3h.7a18.6,18.6,0,0,0,.9,6A.4.4,0,0,1,39.9,87.1Z" style="fill:#572406"/><path d="M41.6,86.1a.5.5,0,0,1-.5.3h0c-.2,0-.3-.2-.2-.4a36.9,36.9,0,0,0,1.4-5H43A41.9,41.9,0,0,1,41.6,86.1Z" style="fill:#572406"/><path d="M44,86.5h-.1a.2.2,0,0,1-.1-.4,12.3,12.3,0,0,0,2.3-4l.8.4a14.5,14.5,0,0,1-2.6,4Z" style="fill:#572406"/><path d="M46.6,87.6h-.2l-.3-.2c0-.2,0-.4.2-.5A4.5,4.5,0,0,0,49,84l.6.8A5.2,5.2,0,0,1,46.6,87.6Z" style="fill:#572406"/><path d="M39.9,101.7a2.6,2.6,0,0,1-2.5-2,8.8,8.8,0,0,1-5-3.1,10.6,10.6,0,0,1-1.8-8.2v-.2c.8-3.2,4.1-5.3,8.5-5.3h.6c5.4.3,7.8,3,8.1,3.3s2.2,3,.9,7.2c-.8,2.6-2.2,5.3-6.3,6.3A3.2,3.2,0,0,1,39.9,101.7Z" style="fill:#f58b31"/><path d="M39.2,84.4h.5c5.1.2,7,2.8,7,2.8s1.9,1.9.7,5.7c-.8,2.3-1.9,4.9-6.1,5.4-.2,1.1-.8,1.9-1.4,1.9s-1-.5-1.3-1.8c-3.3-.4-7.5-3.1-6.5-9.8.7-2.8,3.7-4.2,7.1-4.2m0-3h0c-5.1,0-9,2.5-10,6.4v.4c-.7,4.6.7,7.6,2,9.3a10.5,10.5,0,0,0,5.2,3.5,3.9,3.9,0,0,0,3.5,2.2,4.6,4.6,0,0,0,3.6-2.2,9.7,9.7,0,0,0,6.7-7.2c1.6-4.9-.6-7.9-1.1-8.5s-3.3-3.6-9.3-3.9Z" style="fill:#a8662f"/><path d="M39.7,84.4c5.1.2,7,2.8,7,2.8a4.4,4.4,0,0,1,1,2c-.5-.9-1.7-2.2-4.7-3s-8.1.4-9,3.6-.3,6.7,5.5,8.1c-.1.7-.2,1.9.7,2.2-.6.3-1.3-.1-1.6-1.7-3.3-.4-7.5-3.1-6.5-9.8C32.9,85.7,36.1,84.3,39.7,84.4Z" style="fill:#e67922"/><rect x="32.8" y="3.2" width="6.3" height="14.64" rx="3.2" transform="translate(54 43.5) rotate(-135)" style="fill:#8d8d8d;stroke:#575757;stroke-linecap:round;stroke-linejoin:round;stroke-width:3px"/><path d="M16.4,59.6c1.7-8.3-.8-16.1-2.3-23.9s-2.5-15.8,2.6-23.3S31.5,1.2,40.4,3.8s13.3,11,17.5,17.6c2.7,4.1,5.3,8.3,8,12.5s5.2,7.4,9.6,9.8c2.6,1.4-.4,5-3,3.6-7.6-4.1-11.2-11.1-15.2-17.4L50.4,19.1c-2.1-3.2-4.1-6.6-7.5-9.1A14.8,14.8,0,0,0,32.2,7.1,16.2,16.2,0,0,0,21.9,13c-5.4,6.5-4,14.6-2.7,21.2,1.6,8.3,4.1,16.6,2.4,25.3C21,62.1,15.9,62.2,16.4,59.6Z" style="fill:#b6a250"/><path d="M17.1,136.9c9.1,9,25.9,9,40,7.8a135.3,135.3,0,0,0,39.2-8.9h.1l1-.4h.1c1.6-.6,3.2-1.4,4.7-2.1a55.3,55.3,0,0,0,16.4-11.7,22.1,22.1,0,0,0,5.1-8.1,17.9,17.9,0,0,0,.1-8.9,56.7,56.7,0,0,0-4.1-12c-3.6-7.9-8.2-15.6-10.1-24-.1-.2-.1-.5-.2-.7s-2.3-1.4-3.3-.6-.9.9-.7,1.5.5,2.2.8,3.3a82.1,82.1,0,0,0,5.1,12.7c-2.2-.7-4.3-1.5-6.4-2.4a89.3,89.3,0,0,0-1-10.4c-.1-1.2-.3-2.3-.5-3.4s-2.9-.8-2.6.6l.3,1.7c.5,3.5.9,6.9,1.1,10.4l-1.6-.7a116.1,116.1,0,0,1-11.1-5.7c.7-3,1.3-6,1.7-9,.2-1.2.4-2.5.5-3.7v-.2c0-.7-.7-.9-1.4-.8a1.3,1.3,0,0,0-1.2,1l-.3,2.2h0a91,91,0,0,1-1.6,9.1,91.8,91.8,0,0,1-10.2-7,76.9,76.9,0,0,0,2.7-9,30.3,30.3,0,0,0,.6-3.2V54c0-.5-.4-.7-.9-.8a1.5,1.5,0,0,0-1.7,1c-.1.4-.1.8-.2,1.3a60,60,0,0,1-2.6,9.2,85.3,85.3,0,0,1-9.3-8.6c1.3-3,2.6-5.9,3.7-8.9a3,3,0,0,0,.4-.8l.9-.3,1.9-.6h.2c1.5-.5,1.9-1.8,1.4-2.6a1.3,1.3,0,0,0-.9-.7h0a1.7,1.7,0,0,0-1.2.1l-1.2.4-3.3,1-.9.3L23.2,57.6l-1.4.4-2.6.9h-.1a1.9,1.9,0,0,0-1.3,2.6h0l.4.4a.9.9,0,0,0-.4,1l1.8,4.6h0c.8,1.8,1.6,3.5,2.5,5.3h0A96.5,96.5,0,0,0,28,82.5c-2.6,3-5.3,6-8.2,8.8-.6-.9-1.2-1.8-1.7-2.7h0c-.4-.6-.7-1.2-1.1-1.7s-3.1-.1-2.4,1.1l2.2,3.6h0l1.1,1.6-3.4,3.1-4,3.5v-.2c-.2-.5-.9-.6-1.5-.4a4.3,4.3,0,0,0,.1-.5,1.4,1.4,0,0,0-1.2-1.5c-1.2-.2-2.8.3-2.9,1.6a8.8,8.8,0,0,0-.2,1.7H4.6c-.1,1.3-.2,2.5-.2,3.8A44.3,44.3,0,0,0,17.1,136.9Zm7-34.9c1.4,1.7,2.7,3.4,4.1,5-.9,1.1-1.9,2.1-2.9,3.2l-5,5c-1.7-2.3-3.3-4.7-4.8-7s-2.7-4.3-3.9-6.4c2.6-2.2,5.1-4.4,7.5-6.7ZM49.5,84.3a146.9,146.9,0,0,0,10.8,10c-2.3,4.1-4.8,8.2-7.4,12.3-3.3-3.1-6.4-6.2-9.4-9.4l-2-2.1C44.3,91.6,47,88,49.5,84.3Zm-9.6,9.1c-3.1-3.6-6.1-7.2-8.8-11a125.2,125.2,0,0,0,7.8-10.2c1.2,1.7,2.6,3.3,3.9,4.9s3.3,3.7,5,5.5C45.3,86.2,42.7,89.8,39.9,93.4Zm11-11.2c2.2-3.2,4.2-6.5,6.2-9.8A126.1,126.1,0,0,0,67,81.8c-1.8,3.4-3.6,6.9-5.5,10.3A124.1,124.1,0,0,1,50.9,82.2Zm18,1.2a128.3,128.3,0,0,0,12.5,9,116.4,116.4,0,0,1-4.8,10.9,129.4,129.4,0,0,1-13.3-9.7l1.3-2.4ZM83.6,93.7a102,102,0,0,0,15.6,7.5l1.2.5A74.5,74.5,0,0,1,96.2,114l-3.6-1.7c-3.9-1.9-7.7-3.9-11.3-6.1l-2.6-1.6C80.5,101,82.1,97.4,83.6,93.7Zm11.6,22.4a67,67,0,0,1-9.3,13.6A83.4,83.4,0,0,1,75.2,124c-1.9-1.2-3.8-2.4-5.6-3.7a126.8,126.8,0,0,0,7.8-13.2l.2-.4.4.2A122.7,122.7,0,0,0,95.2,116.1Zm-27.6,2.8c-3.6-2.7-7.1-5.5-10.5-8.5l-2.5-2.3c2.7-4,5.1-8.2,7.5-12.4a129.6,129.6,0,0,0,12.8,9.2l.7.5-1.3,2.3A106.9,106.9,0,0,1,67.6,118.9Zm-1.3,2c-2.4,3.5-4.9,7-7.7,10.4l-1.1-.8c-4.2-3-8.3-6.3-12.1-9.6,2.6-3.3,5.1-6.6,7.4-10a4.3,4.3,0,0,1,.4-.7l.7.6,5.3,4.5Zm-22.6-1.6c-2.9-2.6-5.7-5.3-8.3-8.1l-3.9-4.3c2.9-3.2,5.7-6.4,8.4-9.7,3.7,3.9,7.6,7.8,11.6,11.4-.5.9-1.1,1.7-1.6,2.5C47.9,113.9,45.9,116.6,43.7,119.3Zm-1.6,2a127.4,127.4,0,0,1-8.7,9.4A139.7,139.7,0,0,1,21.6,117c2.2-2.1,4.4-4.3,6.5-6.5l.9-.9.8-.8,1.9,2.1C35,114.5,38.5,117.9,42.1,121.3ZM29.4,84.4a115.7,115.7,0,0,0,8.9,11c-2.7,3.3-5.4,6.5-8.3,9.7a140.2,140.2,0,0,1-8.9-11.8C24,90.4,26.8,87.4,29.4,84.4Zm.4-25.5a106.3,106.3,0,0,0,7.6,11.3,123.9,123.9,0,0,1-7.7,10.2,101,101,0,0,1-7-12.4h0c-.8-1.9-1.6-3.8-2.3-5.7a.5.5,0,0,0-.2-.4l3-.9Zm14.8-.8a108.2,108.2,0,0,1-5.7,9.8,103.9,103.9,0,0,1-6.5-9.8L42.2,55Zm1.7,2.1c2.9,3.5,5.9,7,9,10.4-1.9,3.3-3.9,6.6-6.1,9.9-3.1-3.4-6.1-6.9-8.8-10.5C42.5,66.8,44.5,63.5,46.3,60.2Zm.6-6.6-1,2-1.1-1.4Zm10.4-3.3a80.2,80.2,0,0,0,5.3,6.3c-1.1,2.4-2.3,4.9-3.6,7.2s-1.5,3-2.3,4.5c-3.2-3.5-6.2-7-9.1-10.6.9-1.7,1.7-3.4,2.5-5.1Zm6.5,3.8a55.8,55.8,0,0,1-3.9-4.6l6.7-2.1C65.7,49.6,64.8,51.9,63.8,54.1Zm10.1,13c-1.1,2.8-2.4,5.6-3.7,8.3l-2.1,4.1c-3.4-3-6.6-6.1-9.7-9.4,2.2-3.8,4.2-7.7,6-11.6l2.1,2.2C68.9,62.9,71.3,65.1,73.9,67.1Zm12.7,8.8c-.4,1.7-.8,3.5-1.3,5.2s-1.9,6-3,9a108.9,108.9,0,0,1-12.2-8.9c2.1-4.1,4.2-8.3,5.9-12.4C79.4,71.3,82.9,73.7,86.6,75.9Zm15.7,7.8v2.9a62.7,62.7,0,0,1-1.4,12.8,103.6,103.6,0,0,1-16.4-7.9,123.9,123.9,0,0,0,4.4-14.3A127.4,127.4,0,0,0,102.3,83.7Zm17.2,20.6a92.5,92.5,0,0,1-16.1-4c0-.2.1-.4.1-.6a75.9,75.9,0,0,0,1.4-14.9c2.5,1,5.1,1.9,7.7,2.7l.3.6c1,2.1,2.1,4.2,3.1,6.4A46,46,0,0,1,119.5,104.3Zm-4.2,15.6A81.8,81.8,0,0,1,98.5,115a66.5,66.5,0,0,0,4.4-12.5,101.7,101.7,0,0,0,17.1,4.1v.3a13.5,13.5,0,0,1-1.5,8.7A25.2,25.2,0,0,1,115.3,119.9ZM88.1,130.7l2.5-3A69.3,69.3,0,0,0,97.5,117a81.5,81.5,0,0,0,15.9,4.8l-.8.7A60.9,60.9,0,0,1,96,132.4l-1.5.6Zm-6.8,6.6a47.7,47.7,0,0,0,5.2-4.8l4.7,1.8A103.4,103.4,0,0,1,81.3,137.3Zm-9.8,2.3c-3.8-2.2-7.4-4.5-10.9-7,1.4-1.7,2.8-3.5,4.1-5.3l3.6-5a95.6,95.6,0,0,0,15.9,9.2,61.3,61.3,0,0,1-8,7.1Zm-18.8,2.1q3.3-3.4,6.3-7.2c2.9,2,5.9,3.9,8.9,5.7a132.5,132.5,0,0,1-15.2,1.5Zm-7.1.2c-3.7-3.1-7.2-6.2-10.6-9.6,2.7-2.6,5.2-5.3,7.6-8.1l1.2-1.4c4.2,3.6,8.7,7.1,13.3,10.4-2.4,2.9-5,5.8-7.7,8.6Zm-18.2-2.7,5.8-5.1c2.7,2.6,5.5,5.2,8.4,7.7a58.8,58.8,0,0,1-9.4-1.1A33.7,33.7,0,0,1,27.4,139.2ZM13.3,124.7c2.2-1.9,4.3-3.9,6.4-5.9a153.6,153.6,0,0,0,11.9,13.7c-2,1.9-4.2,3.8-6.4,5.6a25.6,25.6,0,0,1-7.8-6.8A38,38,0,0,1,13.3,124.7ZM8.5,106v-2.6h1c.7,1.2,1.4,2.4,2.2,3.6a108.9,108.9,0,0,0,6.7,10l-6.2,5.6A43.6,43.6,0,0,1,8.5,106Z" style="fill:#f6d173"/><path d="M66.4,43.8C86.3,68,105.7,72.4,105.7,72.4a10.7,10.7,0,0,0,4.2-4.5,6.2,6.2,0,0,0,.6-1.7C82.8,58.9,74.8,40.9,74.8,40.9l-4.2,1.4Z" style="fill:#887a25"/><path d="M66.4,43.8C86.3,68,105.7,72.4,105.7,72.4a10.7,10.7,0,0,0,4.2-4.5,60.9,60.9,0,0,1-9.8-2.3,60.7,60.7,0,0,1-17.5-9.7c-5-3.9-9.3-8.4-12-13.6Z" style="fill:#7f6c1b"/><path d="M23.2,57.1C23.5,87.5,11,101.7,11,101.7a12.4,12.4,0,0,1-6.4-1.2,9,9,0,0,1-1.6-1c17.2-21.2,11.6-40,11.6-40l4.3-1.2Z" style="fill:#887a25"/><path d="M23.2,57.1C23.5,87.5,11,101.7,11,101.7a12.4,12.4,0,0,1-6.4-1.2,42.1,42.1,0,0,0,6.2-7.3,50.5,50.5,0,0,0,7.6-17.4,38.5,38.5,0,0,0,.5-17.5Z" style="fill:#7f6c1b"/><path d="M17.1,136.9c9.1,9,25.9,9,40,7.8a135.3,135.3,0,0,0,39.2-8.9h.1l1-.4h.1c1.6-.6,3.2-1.4,4.7-2.1a55.3,55.3,0,0,0,16.4-11.7,22.1,22.1,0,0,0,5.1-8.1,17.9,17.9,0,0,0,.1-8.9,56.7,56.7,0,0,0-4.1-12l-3.7,2a46,46,0,0,1,3.5,9.8,92.5,92.5,0,0,1-16.1-4c0-.2.1-.4.1-.6l-4.3,1.5,1.2.5A74.5,74.5,0,0,1,96.2,114l-3.6-1.7c-3.9-1.9-7.7-3.9-11.3-6.1l-3.3.7a122.7,122.7,0,0,0,17.2,9.2,67,67,0,0,1-9.3,13.6A83.4,83.4,0,0,1,75.2,124c-1.9-1.2-3.8-2.4-5.6-3.7a126.8,126.8,0,0,0,7.8-13.2l-3.1.6a106.9,106.9,0,0,1-6.7,11.2c-3.6-2.7-7.1-5.5-10.5-8.5l-3.2.4,5.3,4.5,7.1,5.6c-2.4,3.5-4.9,7-7.7,10.4l-1.1-.8c-4.2-3-8.3-6.3-12.1-9.6,2.6-3.3,5.1-6.6,7.4-10l-2.9.2c-2,2.8-4,5.5-6.2,8.2-2.9-2.6-5.7-5.3-8.3-8.1l-3.7-.3c3.3,3.6,6.8,7,10.4,10.4a127.4,127.4,0,0,1-8.7,9.4A139.7,139.7,0,0,1,21.6,117c2.2-2.1,4.4-4.3,6.5-6.5l-2.8-.3-5,5c-1.7-2.3-3.3-4.7-4.8-7L11.7,107a108.9,108.9,0,0,0,6.7,10l-6.2,5.6A43.6,43.6,0,0,1,8.5,106l-4.1-1.7A44.3,44.3,0,0,0,17.1,136.9Zm98.2-17A81.8,81.8,0,0,1,98.5,115a66.5,66.5,0,0,0,4.4-12.5,101.7,101.7,0,0,0,17.1,4.1v.3a13.5,13.5,0,0,1-1.5,8.7A25.2,25.2,0,0,1,115.3,119.9ZM88.1,130.7l2.5-3A69.3,69.3,0,0,0,97.5,117a81.5,81.5,0,0,0,15.9,4.8l-.8.7A60.9,60.9,0,0,1,96,132.4l-1.5.6Zm-6.8,6.6a47.7,47.7,0,0,0,5.2-4.8l4.7,1.8A103.4,103.4,0,0,1,81.3,137.3Zm-9.8,2.3c-3.8-2.2-7.4-4.5-10.9-7,1.4-1.7,2.8-3.5,4.1-5.3l3.6-5a95.6,95.6,0,0,0,15.9,9.2,61.3,61.3,0,0,1-8,7.1Zm-18.8,2.1q3.3-3.4,6.3-7.2c2.9,2,5.9,3.9,8.9,5.7a132.5,132.5,0,0,1-15.2,1.5Zm-7.1.2c-3.7-3.1-7.2-6.2-10.6-9.6,2.7-2.6,5.2-5.3,7.6-8.1l1.2-1.4c4.2,3.6,8.7,7.1,13.3,10.4-2.4,2.9-5,5.8-7.7,8.6Zm-18.2-2.7,5.8-5.1c2.7,2.6,5.5,5.2,8.4,7.7a58.8,58.8,0,0,1-9.4-1.1A33.7,33.7,0,0,1,27.4,139.2ZM13.3,124.7c2.2-1.9,4.3-3.9,6.4-5.9a153.6,153.6,0,0,0,11.9,13.7c-2,1.9-4.2,3.8-6.4,5.6a25.6,25.6,0,0,1-7.8-6.8A38,38,0,0,1,13.3,124.7Z" style="fill:#fdb049;opacity:0.68"/><path d="M34.9,3a17,17,0,0,1,5.5.8c9.5,2.8,13.3,11,17.5,17.6,2.7,4.1,5.3,8.3,8,12.5a34.2,34.2,0,0,0,6.6,7.8l2.3-.8s8,18,35.7,25.3a6.2,6.2,0,0,1-.6,1.7l-.3.6h0c1.9,8.4,6.5,16.1,10.1,24a56.7,56.7,0,0,1,4.1,12,17.9,17.9,0,0,1-.1,8.9,22.1,22.1,0,0,1-5.1,8.1,55.3,55.3,0,0,1-16.4,11.7c-1.5.7-3.1,1.5-4.7,2.1h-.1l-1,.4h-.1a135.3,135.3,0,0,1-39.2,8.9c-3.7.3-7.7.5-11.7.5-10.8,0-21.7-1.7-28.3-8.3A44.3,44.3,0,0,1,4.4,104.3c0-1.3.1-2.5.2-3.8h0a9,9,0,0,1-1.6-1c17.2-21.2,11.6-40,11.6-40l1.9-.5c1.4-8.1-.9-15.7-2.4-23.3s-2.5-15.8,2.6-23.3C20.4,6.9,27.7,3,34.9,3m-13,54.5,1.3-.4v.5h0L66.6,44h0a.2.2,0,0,0-.2-.2l.8-.3c-4.2-4-6.9-8.9-9.9-13.6L50.4,19.1c-2.1-3.2-4.1-6.6-7.5-9.1A15.4,15.4,0,0,0,34,6.9l-1.8.2A16.2,16.2,0,0,0,21.9,13c-5.4,6.5-4,14.6-2.7,21.2s3.7,15.3,2.7,23.3m53,7.2a60,60,0,0,0,2.6-9.2,107,107,0,0,1-8.1-8.3h-.1c-1.1,3-2.4,5.9-3.7,8.9a85.3,85.3,0,0,0,9.3,8.6M63.8,54.1c1-2.2,1.9-4.5,2.8-6.7l-6.7,2.1a55.8,55.8,0,0,0,3.9,4.6M56.7,68.3c.8-1.5,1.6-3,2.3-4.5s2.5-4.8,3.6-7.2a80.2,80.2,0,0,1-5.3-6.3l-7.2,2.3c-.8,1.7-1.6,3.4-2.5,5.1,2.9,3.6,5.9,7.1,9.1,10.6M45.9,55.6l1-2-2.1.6,1.1,1.4m-7,12.3a108.2,108.2,0,0,0,5.7-9.8L42.2,55l-9.8,3.1a103.9,103.9,0,0,0,6.5,9.8m48.3,5.5a91,91,0,0,0,1.6-9.1h0a91.2,91.2,0,0,1-9.1-6.9h0a76.9,76.9,0,0,1-2.7,9,91.8,91.8,0,0,0,10.2,7M68.1,79.5l2.1-4.1c1.3-2.7,2.6-5.5,3.7-8.3-2.6-2-5-4.2-7.4-6.4l-2.1-2.2c-1.8,3.9-3.8,7.8-6,11.6,3.1,3.3,6.3,6.4,9.7,9.4m-38.4.9a123.9,123.9,0,0,0,7.7-10.2,106.3,106.3,0,0,1-7.6-11.3L23.2,61h0c-.1,2.4-.3,4.8-.5,7h0a101,101,0,0,0,7,12.4m19.5.1c2.2-3.3,4.2-6.6,6.1-9.9-3.1-3.4-6.1-6.9-9-10.4-1.8,3.3-3.8,6.6-5.9,9.8,2.7,3.6,5.7,7.1,8.8,10.5m53,.7c-.2-3.5-.6-6.9-1.1-10.4h0a70.3,70.3,0,0,1-9.9-5h0c-.4,3-1,6-1.7,9a116.1,116.1,0,0,0,11.1,5.7l1.6.7M82.3,90.1q1.7-4.5,3-9c.5-1.7.9-3.5,1.3-5.2-3.7-2.2-7.2-4.6-10.6-7.1-1.7,4.1-3.8,8.3-5.9,12.4a108.9,108.9,0,0,0,12.2,8.9m29-5.4A82.1,82.1,0,0,1,106.2,72h0a1,1,0,0,0-.5.4l-1.8-.5h0a89.3,89.3,0,0,1,1,10.4c2.1.9,4.2,1.7,6.4,2.4M39.9,93.4c2.8-3.6,5.4-7.2,7.9-10.8-1.7-1.8-3.4-3.6-5-5.5s-2.7-3.2-3.9-4.9a125.2,125.2,0,0,1-7.8,10.2c2.7,3.8,5.7,7.4,8.8,11m21.6-1.3c1.9-3.4,3.7-6.9,5.5-10.3a126.1,126.1,0,0,1-9.9-9.4c-2,3.3-4,6.6-6.2,9.8a124.1,124.1,0,0,0,10.6,9.9m-41.7-.8c2.9-2.8,5.6-5.8,8.2-8.8a96.5,96.5,0,0,1-5.9-9.7h0a73.8,73.8,0,0,1-4,15.8h0c.5.9,1.1,1.8,1.7,2.7m81.1,8.1a62.7,62.7,0,0,0,1.4-12.8V83.7a127.4,127.4,0,0,1-13.4-6.5,123.9,123.9,0,0,1-4.4,14.3,103.6,103.6,0,0,0,16.4,7.9m-24.3,3.9a116.4,116.4,0,0,0,4.8-10.9,128.3,128.3,0,0,1-12.5-9l-4.3,7.8-1.3,2.4a129.4,129.4,0,0,0,13.3,9.7m-23.7,3.3c2.6-4.1,5.1-8.2,7.4-12.3a146.9,146.9,0,0,1-10.8-10c-2.5,3.7-5.2,7.3-8,10.8l2,2.1c3,3.2,6.1,6.3,9.4,9.4M30,105.1c2.9-3.2,5.6-6.4,8.3-9.7a115.7,115.7,0,0,1-8.9-11c-2.6,3-5.4,6-8.3,8.9A140.2,140.2,0,0,0,30,105.1m89.5-.8a46,46,0,0,0-3.5-9.8c-1-2.2-2.1-4.3-3.1-6.4l-.3-.6c-2.6-.8-5.2-1.7-7.7-2.7a75.9,75.9,0,0,1-1.4,14.9c0,.2-.1.4-.1.6a92.5,92.5,0,0,0,16.1,4m-105-8h0l3.4-3.1-1.1-1.6h0a41.4,41.4,0,0,1-2.3,4.7M96.2,114a74.5,74.5,0,0,0,4.2-12.3l-1.2-.5a102,102,0,0,1-15.6-7.5c-1.5,3.7-3.1,7.3-4.9,10.9l2.6,1.6c3.6,2.2,7.4,4.2,11.3,6.1l3.6,1.7m-75.9,1.2,5-5c1-1.1,2-2.1,2.9-3.2-1.4-1.6-2.7-3.3-4.1-5l-5-6.9c-2.4,2.3-4.9,4.5-7.5,6.7,1.2,2.1,2.5,4.3,3.9,6.4s3.1,4.7,4.8,7m47.3,3.7a106.9,106.9,0,0,0,6.7-11.2l1.3-2.3-.7-.5a129.6,129.6,0,0,1-12.8-9.2c-2.4,4.2-4.8,8.4-7.5,12.4l2.5,2.3c3.4,3,6.9,5.8,10.5,8.5m-23.9.4c2.2-2.7,4.2-5.4,6.2-8.2.5-.8,1.1-1.6,1.6-2.5-4-3.6-7.9-7.5-11.6-11.4-2.7,3.3-5.5,6.5-8.4,9.7l3.9,4.3c2.6,2.8,5.4,5.5,8.3,8.1m71.6.6a25.2,25.2,0,0,0,3.2-4.3,13.5,13.5,0,0,0,1.5-8.7v-.3a101.7,101.7,0,0,1-17.1-4.1A66.5,66.5,0,0,1,98.5,115a81.8,81.8,0,0,0,16.8,4.9M9,103.5H8.5V106a43.6,43.6,0,0,0,3.7,16.6l6.2-5.6a108.9,108.9,0,0,1-6.7-10c-.8-1.2-1.5-2.4-2.2-3.6H9m76.9,26.2a67,67,0,0,0,9.3-13.6A122.7,122.7,0,0,1,78,106.9l-.4-.2-.2.4a126.8,126.8,0,0,1-7.8,13.2c1.8,1.3,3.7,2.5,5.6,3.7a83.4,83.4,0,0,0,10.7,5.7m-52.5,1a127.4,127.4,0,0,0,8.7-9.4c-3.6-3.4-7.1-6.8-10.4-10.4l-1.9-2.1-.8.8-.9.9c-2.1,2.2-4.3,4.4-6.5,6.5a139.7,139.7,0,0,0,11.8,13.7m25.2.6c2.8-3.4,5.3-6.9,7.7-10.4l-7.1-5.6-5.3-4.5-.7-.6a4.3,4.3,0,0,0-.4.7c-2.3,3.4-4.8,6.7-7.4,10,3.8,3.3,7.9,6.6,12.1,9.6l1.1.8M94.5,133l1.5-.6a60.9,60.9,0,0,0,16.6-9.9l.8-.7A81.5,81.5,0,0,1,97.5,117a69.3,69.3,0,0,1-6.9,10.7l-2.5,3,6.4,2.3m-69.3,5.1c2.2-1.8,4.4-3.7,6.4-5.6a153.6,153.6,0,0,1-11.9-13.7c-2.1,2-4.2,4-6.4,5.9a38,38,0,0,0,4.1,6.6,25.6,25.6,0,0,0,7.8,6.8m46.3,1.5,4.7-1a61.3,61.3,0,0,0,8-7.1,95.6,95.6,0,0,1-15.9-9.2l-3.6,5c-1.3,1.8-2.7,3.6-4.1,5.3,3.5,2.5,7.1,4.8,10.9,7m-25.6,2.3h3.5c2.7-2.8,5.3-5.7,7.7-8.6-4.6-3.3-9.1-6.8-13.3-10.4l-1.2,1.4c-2.4,2.8-4.9,5.5-7.6,8.1,3.4,3.4,6.9,6.5,10.6,9.6h.3m35.4-4.6a103.4,103.4,0,0,0,9.9-3l-4.7-1.8a47.7,47.7,0,0,1-5.2,4.8m-39.7,4.5c-2.9-2.5-5.7-5.1-8.4-7.7l-5.8,5.1a33.7,33.7,0,0,0,4.8,1.5,58.8,58.8,0,0,0,9.4,1.1m11.1-.1h0a132.5,132.5,0,0,0,15.2-1.5c-3-1.8-6-3.7-8.9-5.7q-3,3.8-6.3,7.2M34.9,0A25.8,25.8,0,0,0,14.2,10.7c-5.8,8.4-4.6,17.6-3,25.5.2,1.4.5,2.8.8,4.2,1.2,5.5,2.4,10.8,1.8,16.2A2.8,2.8,0,0,0,12,58a2.7,2.7,0,0,0-.2,2.3C12,61,16.6,78,.7,97.6a2.9,2.9,0,0,0,.4,4.2c0,.1.2.2.4.3a14.8,14.8,0,0,0-.1,2.1A47.4,47.4,0,0,0,15,139.1c6.2,6.1,16.2,9.1,30.4,9.1,3.6,0,7.5-.1,12-.5a138.3,138.3,0,0,0,39.7-9l.6-.2.8-.3.4-.2,4.7-2.1a58.3,58.3,0,0,0,17.3-12.4,24.2,24.2,0,0,0,5.6-9.2,20.2,20.2,0,0,0,.3-10.4,57.8,57.8,0,0,0-4.4-12.6c-1-2.2-2.1-4.4-3.1-6.5-2.6-5.4-5.1-10.5-6.5-15.9a15.3,15.3,0,0,0,.7-2.1,3,3,0,0,0-2.2-3.5C85.5,56.5,77.6,39.8,77.5,39.6a2.9,2.9,0,0,0-2.7-1.7h-1l-.7.2a32.6,32.6,0,0,1-4.7-6L63,23.7c-.9-1.3-1.7-2.6-2.5-3.9l-1.7-2.7C55,10.8,50.6,3.7,41.2.9A21.8,21.8,0,0,0,34.9,0ZM25.2,53.8c0-5.5-1.1-10.7-2.2-15.8l-.9-4.3c-1.3-7-2.2-13.6,2.1-18.8A14,14,0,0,1,32.6,10H34a12,12,0,0,1,7.1,2.5c2.7,2,4.5,4.8,6.4,7.8l.4.6,3.7,5.8,3.2,4.9,1.5,2.4A73.2,73.2,0,0,0,62,42.3L29.8,52.4l-4.6,1.4Zm44,1.7,1.2-2.8c1.2,1.3,2.5,2.6,3.8,3.8s-.5,2-.8,3c-1.5-1.3-2.9-2.7-4.2-4Zm-17-.5,4-1.2L59,57.1c-.8,1.8-1.7,3.6-2.6,5.4a2.1,2.1,0,0,1-.4.6l-4.9-5.8A16.3,16.3,0,0,0,52.2,55ZM37,59.8l4-1.2c-.7,1.3-1.5,2.6-2.3,3.9-.6-.9-1.2-1.8-1.7-2.7ZM26.1,63.2l2.3-.7h.1c1.6,2.6,3.4,5.3,5.2,7.8l-3.7,5a85.8,85.8,0,0,1-4.2-7.8l.3-4.3Zm54.4,2.1.9-2.6,4.2,3c-.2,1-.3,1.9-.5,2.9l-4.6-3.3ZM62.1,69.6c1.1-2,2.2-4,3.2-6l5,4.4c-.8,1.9-1.8,3.9-2.8,6.1l-.3.5c-1.7-1.6-3.4-3.2-5.1-5Zm-18,.2,2.7-4.4c1.6,2,3.2,3.8,4.8,5.6l-2.8,4.6c-1.6-1.9-3.2-3.8-4.7-5.8Zm48.8,3.5.6-2.7,4.9,2.3c.1,1.2.3,2.3.4,3.5-2-1-4-2-5.9-3.1Zm-19,7.1c1.3-2.5,2.4-4.8,3.4-7,1.9,1.3,3.9,2.7,5.9,3.9-.3,1-.5,2-.8,3s-1.1,3.5-1.7,5.2c-2.3-1.6-4.6-3.3-6.8-5.1Zm-39,2.1c1.4-1.7,2.8-3.5,4.1-5.3L40.6,79,44,82.9l-4.2,5.7c-1.8-2-3.4-4.1-4.9-6.1Zm19.8-.6,2.9-4.6,5.6,5.2c-.9,1.7-1.7,3.4-2.6,4.9l-5.9-5.5ZM22.8,83.8a19.7,19.7,0,0,0,.7-2.6,4.1,4.1,0,0,1,.7,1.1l-1.4,1.5Zm65.4,6.3q1.5-4.2,2.7-8.4c2.7,1.4,5.5,2.8,8.4,4v.8a64,64,0,0,1-.7,8.8,77.6,77.6,0,0,1-10.4-5.2ZM67.1,92.9l.2-.2,1-1.9L69.8,88c2.6,2,5.3,3.8,7.9,5.6-.7,1.8-1.5,3.5-2.3,5.3-2.8-1.9-5.6-3.9-8.3-6Zm-21.6,2C47,93,48.5,91,49.9,89l6.6,6q-2.1,3.6-4.2,6.9l-6.6-6.7-.2-.3Zm61.3,3.4a70,70,0,0,0,1-9.2l2.7.9.4.7,2.4,5c.8,1.8,1.4,3.3,2,4.8-2.9-.6-5.7-1.4-8.5-2.2ZM24.9,93.6c1.5-1.4,2.9-2.9,4.3-4.4,1.6,2.1,3.3,4.2,5.2,6.3l-4.3,5-5.2-6.9Zm57.7,9.9c.9-1.8,1.7-3.7,2.5-5.5a112.6,112.6,0,0,0,11.7,5.5,49.7,49.7,0,0,1-2.2,6.5l-.7-.4c-3.8-1.8-7.5-3.9-11.1-6Zm-67.1-1.1,3.1-2.8c1.1,1.5,2.1,2.9,3.2,4.2l2.4,3.1-1.1,1.2-2.4,2.5a48.1,48.1,0,0,1-2.7-4.1c-.9-1.3-1.7-2.7-2.5-4.1Zm43,5.2c1.5-2.3,3-4.8,4.5-7.4,2.8,2.2,5.7,4.2,8.6,6.2-1.4,2.7-3,5.5-4.7,8.2-2.6-2-5.1-4.1-7.8-6.4l-.6-.6Zm-23-.7,4.5-5.2c2.4,2.4,4.9,4.9,7.6,7.4-.1.1-.1.2-.2.2-1.3,2-2.7,3.8-4,5.6-2-1.9-4-3.8-5.8-5.8l-2.1-2.2Zm67,6.4c.9-2.3,1.8-4.6,2.5-7a103,103,0,0,0,12.2,2.9,10.2,10.2,0,0,1-1.3,4.9,19.5,19.5,0,0,1-1.8,2.5,65.4,65.4,0,0,1-11.6-3.3Zm-28.8,6.2c1.8-2.8,3.5-5.7,5.1-8.6A135.6,135.6,0,0,0,91,117.5a56,56,0,0,1-5.9,8.5c-2.8-1.3-5.6-2.9-8.4-4.5l-3-2Zm-48.1-2.2,4.1-4.1c2.6,2.8,5.4,5.6,8.3,8.3-1.5,1.7-3,3.4-4.5,4.9-2.8-2.9-5.4-6-7.9-9.1Zm-12.1.2c-.4-1.2-.7-2.4-1-3.6l1.9,2.7-.9.9Zm36,3c1.5-1.9,2.9-3.8,4.3-5.8l3.4,2.9,5,4c-1.3,1.9-2.7,3.7-4.1,5.6-3-2.2-5.8-4.4-8.6-6.7Zm43.6,8.9a68.2,68.2,0,0,0,5.8-8.6,78.3,78.3,0,0,0,7.8,2.5,61.8,61.8,0,0,1-11.8,6.3l-.5.2-1.3-.4ZM17,125.3l2.4-2.1c2.5,3.1,5.1,6.2,7.9,9.2l-2.4,2a21.9,21.9,0,0,1-5.1-5,42.1,42.1,0,0,1-2.8-4.1ZM64.9,132l2.2-2.9,1.9-2.6a104.3,104.3,0,0,0,10.1,5.8,48.7,48.7,0,0,1-4.2,3.5l-2.9.6L64.9,132Zm-25.6.3c1.7-1.7,3.3-3.5,4.9-5.3,2.7,2.3,5.6,4.6,8.5,6.7-1.5,1.8-3,3.5-4.6,5.2H46.7c-2.6-2.1-5-4.3-7.4-6.6Z" style="fill:#a8662f"/><path d="M34.7,7.3a5,5,0,0,0,5.1,5H41a5.4,5.4,0,0,0,2-1h0l.6-.6a5.3,5.3,0,0,0,1.2-3.3,5,5,0,0,0-5-5h-.5a6,6,0,0,0-1.9.6l-.9.6a6,6,0,0,0-.8.8A5.1,5.1,0,0,0,34.7,7.3Z" style="fill:#cecece;stroke:#575757;stroke-linecap:round;stroke-linejoin:round;stroke-width:3px"/><path d="M37.4,2.9,42,11.7l1-.5h0l.6-.6L39.3,2.3A6,6,0,0,0,37.4,2.9Z" style="fill:#fff"/><path d="M35.7,4.3l4.3,8h1L36.5,3.5A6,6,0,0,0,35.7,4.3Z" style="fill:#fff"/><path d="M34.7,7.3a5,5,0,0,0,5.1,5H41a5.4,5.4,0,0,0,2-1h0l.6-.6a5.3,5.3,0,0,0,1.2-3.3,5,5,0,0,0-5-5h-.5a6,6,0,0,0-1.9.6l-.9.6a6,6,0,0,0-.8.8A5.1,5.1,0,0,0,34.7,7.3Z" style="fill:none;stroke:#575757;stroke-linecap:round;stroke-linejoin:round;stroke-width:3px"/></g></g></g></svg>