<svg xmlns="http://www.w3.org/2000/svg" viewBox="0 0 43.8 111.7"><g style="isolation:isolate"><g id="Layer_2" data-name="Layer 2"><g id="Layer_1-2" data-name="Layer 1"><path d="M21.8,3h1a2.8,2.8,0,0,1,1.9,2.2,2.7,2.7,0,0,1-1.4,2.6l-.4.2c0,1.5-.1,3.1-.1,4.5A30,30,0,0,1,31.5,22,34.3,34.3,0,0,1,36,32.8c.2.7.3,1.4.5,2.2l.6,2.4a83.9,83.9,0,0,1,1.6,11.2c.3,2.8.3,5.5.4,7.8-.1,4.2-.2,7.9-.6,11.7s-.9,6.3-1.6,9.4h.7A2.6,2.6,0,0,1,40,79.1a4.5,4.5,0,0,1,.7,2.5,21.8,21.8,0,0,1-.2,5.7A96.7,96.7,0,0,1,38.2,99a69.1,69.1,0,0,1-2.5,7.7,3.6,3.6,0,0,1-.7,1l-.3.3c-.2,0-.3-.1-.4-.4l-.2-.5a8.1,8.1,0,0,1,.1-2.2c.3-2.7.5-5.4.7-8.1s.2-2.5.2-3.8a17.2,17.2,0,0,0-.4-3.9l-.3-.8a2.5,2.5,0,0,0-.4-.7c-.2.6-.3,1.1-.5,1.6l-1,2.1a2.2,2.2,0,0,1-1.4,1.1,23.3,23.3,0,0,1-3.6.8l-1.9.2h-.9c0,.7-.1,1.3-.1,2s-.4,3.1-.5,4.6-.7,4.5-1.2,6.8l-.3,1v.2c-.1.3-.2.6-.6.6h0c-.4,0-.5-.3-.6-.6L21,107a43.4,43.4,0,0,1-1.1-6.1c-.3-2.5-.6-4.9-.8-7.4h-.2l-1.3-.2a24.3,24.3,0,0,1-4.7-.8l-1.2-.7c-.1,0-.1-.1-.1-.2a15.3,15.3,0,0,1-1.8-3.9,4.3,4.3,0,0,0-.4.7,6.5,6.5,0,0,0-.5,2.1A25.2,25.2,0,0,0,8.8,96c.2,1.9.4,3.7.5,5.6s.3,2.9.4,4.4v1.2a.8.8,0,0,1-.2.5q-.1.3-.3.3c-.1,0-.2,0-.3-.2a4.4,4.4,0,0,1-.8-1.1c-1-2.6-1.8-5.3-2.6-8.1S3.9,91.1,3.3,87.3A26.3,26.3,0,0,1,3,82.4a21.7,21.7,0,0,1,.4-2.5,4.7,4.7,0,0,1,.8-1.4,2.7,2.7,0,0,1,2.2-1h.5a100.7,100.7,0,0,1-1.7-11,117.5,117.5,0,0,1-.4-13.3A109.9,109.9,0,0,1,5.9,41.8c.4-2.3.9-4.7,1.5-6.9s.3-1.7.5-2.6A36.3,36.3,0,0,1,18.2,14.8a12.1,12.1,0,0,1,2.6-2H21c0-1.6,0-3.1-.1-4.6l-.3-.2A2.6,2.6,0,0,1,19.2,5a2.7,2.7,0,0,1,2.5-2h.1m0-3h-.2a5.6,5.6,0,0,0-5.3,4.4A5.5,5.5,0,0,0,18,9.7v1.4a11.9,11.9,0,0,0-1.8,1.5A40,40,0,0,0,5,31.6c-.2.8-.3,1.7-.5,2.4v.2c-.6,2.3-1.1,4.7-1.6,7.1A103.1,103.1,0,0,0,1.8,53.1a124.7,124.7,0,0,0,.4,13.7c.3,2.9.7,5.7,1.2,8.5a4.4,4.4,0,0,0-1.5,1.2A7,7,0,0,0,.6,78.9,17.5,17.5,0,0,0,0,82.3a26.1,26.1,0,0,0,.3,5.5c.6,4,1.4,7.9,2.3,11.6s1.7,5.6,2.8,8.4a5.2,5.2,0,0,0,1.2,1.9A3.3,3.3,0,0,0,9.2,111a3.4,3.4,0,0,0,3-2,4.3,4.3,0,0,0,.5-1.6h0v-1.6a24.5,24.5,0,0,1-.2-2.7c-.1-.6-.1-1.1-.2-1.7v-1.2c-.1-1.4-.3-2.9-.4-4.3v-.5H12a23.6,23.6,0,0,0,4.3.9c.2,1.5.3,2.9.5,4.4v.7c.3,2.2.7,4.4,1.1,6.3a10.3,10.3,0,0,1,.4,1.4h.1a3.5,3.5,0,0,0,3.4,2.7h0a3.4,3.4,0,0,0,3.4-2.6l.2-.4v-.3c.1-.3.1-.6.2-.9a56.8,56.8,0,0,0,1.3-7.1,12.3,12.3,0,0,1,.2-1.9,17.9,17.9,0,0,1,.2-2.3H28a16.2,16.2,0,0,0,4-.9v1.3c-.2,1.7-.3,3.4-.5,5.1l-.3,3v.3a8.1,8.1,0,0,0,0,2.7,5.8,5.8,0,0,0,.2,1,3.5,3.5,0,0,0,3.3,2.4,3.5,3.5,0,0,0,2.7-1.4,7,7,0,0,0,1.1-1.8,84.5,84.5,0,0,0,2.6-8.1,106.1,106.1,0,0,0,2.4-12,23.2,23.2,0,0,0,.2-6.4,10.3,10.3,0,0,0-1-3.7,6.3,6.3,0,0,0-2.3-2.3c.4-2.3.8-4.6,1-6.9s.6-7.5.7-12c-.1-3-.2-5.6-.4-8A78.2,78.2,0,0,0,40,36.7q-.3-1.1-.6-2.4a16,16,0,0,0-.5-2.1A36.5,36.5,0,0,0,34,20.4a32.6,32.6,0,0,0-8.2-9.3V9.7A5.6,5.6,0,0,0,27.6,5,5.4,5.4,0,0,0,23.5.2L21.8,0Z" style="fill:#781f1a"/><path d="M32.9,86.9l.3-1q1.2-3.7,2.7-7.5c.3-.8.8-.9,1.7-.9A2.6,2.6,0,0,1,40,79.1a4.5,4.5,0,0,1,.7,2.5,21.8,21.8,0,0,1-.2,5.7A96.7,96.7,0,0,1,38.2,99a69.1,69.1,0,0,1-2.5,7.7,3.6,3.6,0,0,1-.7,1c-.3.4-.6.4-.7-.1l-.2-.5a8.1,8.1,0,0,1,.1-2.2c.3-2.7.5-5.4.7-8.1s.2-2.5.2-3.8a17.2,17.2,0,0,0-.4-3.9l-.3-.8A2.3,2.3,0,0,0,33,87h-.1Z" style="fill:#ce3939"/><path d="M11,86.9h-.2a2.2,2.2,0,0,0-1.4,1.4,6.5,6.5,0,0,0-.5,2.1A25.2,25.2,0,0,0,8.8,96c.2,1.9.4,3.7.5,5.6s.3,2.9.4,4.4v1.2a.8.8,0,0,1-.2.5c-.1.3-.4.4-.6.1a4.4,4.4,0,0,1-.8-1.1c-1-2.6-1.8-5.3-2.6-8.1S3.9,91.1,3.3,87.3A26.3,26.3,0,0,1,3,82.4a21.7,21.7,0,0,1,.4-2.5,4.7,4.7,0,0,1,.8-1.4,2.7,2.7,0,0,1,3.1-.8.6.6,0,0,1,.5.5l1.6,3.9C9.9,83.7,10.5,85.3,11,86.9Z" style="fill:#ce3939"/><path d="M39.1,56.4c-.1,4.2-.2,7.9-.6,11.7a78.6,78.6,0,0,1-4.7,19.7,24.3,24.3,0,0,1-1.6,3.7c-.1.3-.3.4-.6.6a36.9,36.9,0,0,1-4.5,1.1,33.9,33.9,0,0,1-6.4.4,29.6,29.6,0,0,1-8.3-1.5,1.4,1.4,0,0,1-.9-.8A60.3,60.3,0,0,1,7,77.7,84.3,84.3,0,0,1,5.2,66.5a117.5,117.5,0,0,1-.4-13.3A109.9,109.9,0,0,1,5.9,41.8a60.1,60.1,0,0,1,5.2-16.9,32.4,32.4,0,0,1,5.5-8.3A16.1,16.1,0,0,1,21,12.8c1-.5.8-.6,1.9.1a18.3,18.3,0,0,1,4.3,3.6,38.1,38.1,0,0,1,6.2,9.7,63.9,63.9,0,0,1,3.7,11.2,83.9,83.9,0,0,1,1.6,11.2C39,51.4,39,54.1,39.1,56.4Z" style="fill:#f4bbb3"/><path d="M28.2,92.8l.3-1.2c.4-1.3.9-2.7,1.3-4.1a81.9,81.9,0,0,0,2.5-10.9c.4-2.3.8-4.5,1.1-6.8s.5-4.2.7-6.3.3-4,.3-6-.1-4.8-.2-7.2-.2-3.3-.4-4.9a88.5,88.5,0,0,0-1.5-10.5c-.1-.4-.1-.7-.2-1a.4.4,0,0,1,.1-.3c0-.1,0-.2.1-.2h.2a8.3,8.3,0,0,0,.4,1.5c.5,2.5.9,5,1.2,7.6s.6,6.3.7,9.6a71.2,71.2,0,0,1,0,8c-.2,3.2-.4,6.3-.8,9.5a111.8,111.8,0,0,1-3.2,16.1,39.6,39.6,0,0,1-2,6.1,3.6,3.6,0,0,1-.5.9Z" style="fill:#db9f9f"/><path d="M15.5,92.8a.5.5,0,0,1-.2-.4,42.9,42.9,0,0,1-1.9-5,92.4,92.4,0,0,1-2.1-9.1,70.6,70.6,0,0,1-1.5-9.2c-.3-2-.4-4.1-.6-6.1s-.3-5.9-.3-8.9.2-5.3.5-8,.5-4.6.8-7a51.7,51.7,0,0,1,1.1-5.4.4.4,0,0,0,.1-.3c.3,0,.3.2.3.3s-.1.7-.1,1.1a78.3,78.3,0,0,0-1.5,9.7c-.4,3.5-.6,7-.7,10.5s.1,4.8.3,7.2.4,4.6.6,6.9.8,5.4,1.3,8.1a107.4,107.4,0,0,0,2.7,11.2c.3,1.1.7,2.1,1,3.1l.3,1.1v.2Z" style="fill:#db9f9f"/><path d="M32.2,86a.5.5,0,0,1-.5.4.4.4,0,0,1-.4-.4c0-.3.1-.4.4-.5S32.1,85.7,32.2,86Z" style="fill:#db9f9f"/><path d="M12.1,86.4a.4.4,0,0,1-.4-.4.5.5,0,0,1,.4-.5c.3.1.5.2.5.5A.5.5,0,0,1,12.1,86.4Z" style="fill:#db9f9f"/><path d="M36.4,52.1a.5.5,0,0,1-.4.5.7.7,0,0,1-.4-.5.4.4,0,0,1,.8,0Z" style="fill:#db9f9f"/><path d="M36.1,63.4a.7.7,0,0,1,.5.4.5.5,0,0,1-.5.5.4.4,0,0,1-.4-.4C35.7,63.7,35.9,63.4,36.1,63.4Z" style="fill:#db9f9f"/><path d="M7.8,51.7a.5.5,0,0,1,.5.5.7.7,0,0,1-.5.4.7.7,0,0,1-.4-.5A.4.4,0,0,1,7.8,51.7Z" style="fill:#db9f9f"/><path d="M7.7,64.3a.5.5,0,0,1-.4-.5.4.4,0,0,1,.4-.4c.2,0,.4.3.4.5A.4.4,0,0,1,7.7,64.3Z" style="fill:#db9f9f"/><path d="M34.5,76.5a.5.5,0,1,1-.1-.9.5.5,0,0,1,.5.5A.4.4,0,0,1,34.5,76.5Z" style="fill:#db9f9f"/><path d="M9.4,76.5a.4.4,0,0,1-.4-.4c0-.3.2-.4.4-.5a.5.5,0,0,1,.4.5A.4.4,0,0,1,9.4,76.5Z" style="fill:#db9f9f"/><path d="M35.6,41.2a.4.4,0,0,1-.4.4c-.3,0-.5-.2-.4-.5a.4.4,0,0,1,.4-.4A.5.5,0,0,1,35.6,41.2Z" style="fill:#db9f9f"/><path d="M8.7,41.6a.5.5,0,1,1-.1-.9.5.5,0,0,1,.5.5A.4.4,0,0,1,8.7,41.6Z" style="fill:#db9f9f"/><path d="M21,12.7c0-1.6,0-3.1-.1-4.6l-.3-.2A2.6,2.6,0,0,1,19.2,5a2.7,2.7,0,0,1,2.5-2h1.1a2.8,2.8,0,0,1,1.9,2.2,2.7,2.7,0,0,1-1.4,2.6l-.4.2c0,1.5-.1,3.1-.1,4.5A30,30,0,0,1,31.5,22,34.3,34.3,0,0,1,36,32.8c.2.8.3,1.5.5,2.2s0,.5-.3.6h-.3A34.4,34.4,0,0,1,29,37.3l-3.6.3H20.3a52.9,52.9,0,0,1-8-.8c-1.5-.3-2.9-.8-4.4-1.2s-.2,0-.2-.1-.4-.2-.3-.6a25.6,25.6,0,0,1,.5-2.7A36.3,36.3,0,0,1,18.2,14.8a12.1,12.1,0,0,1,2.6-2Z" style="fill:#ce3939"/><path d="M22.6,21.3a36.4,36.4,0,0,1-6.2-.4l-2.1-.6c-.2,0-.3-.2-.4-.5s.1-.2.3-.2h.1a6.4,6.4,0,0,0,3,.8,32.5,32.5,0,0,0,4.4.3,26.4,26.4,0,0,0,6.2-.5,4.9,4.9,0,0,0,1.6-.5h.2a.2.2,0,0,1,.2.2c-.1.3-.2.5-.5.5a13.2,13.2,0,0,1-3,.7Z" style="fill:#b12424"/><path d="M21.9,22.3a.7.7,0,0,1,.5.4c0,.2-.2.4-.5.5a.5.5,0,0,1-.4-.5A.4.4,0,0,1,21.9,22.3Z" style="fill:#b12424"/><path d="M29.5,22.1a.5.5,0,0,1-.4.5.5.5,0,0,1-.5-.5.4.4,0,0,1,.4-.4A.5.5,0,0,1,29.5,22.1Z" style="fill:#b12424"/><path d="M15.2,22.1a.4.4,0,1,1-.8,0,.4.4,0,1,1,.8,0Z" style="fill:#b12424"/><path d="M22,93.5a31.7,31.7,0,0,1-4.4-.2,24.3,24.3,0,0,1-4.7-.8l-1.2-.7c-.1,0-.1-.1-.1-.2a16.3,16.3,0,0,1-2-4.7h0c0-.3,0-.4.3-.4a12,12,0,0,0,2,.3l8,.8a24.4,24.4,0,0,0,5.4-.1l7.2-.7,1.4-.2q.5-.1.3.3a15.5,15.5,0,0,1-.7,2.3l-1,2.1a2.2,2.2,0,0,1-1.4,1.1,23.3,23.3,0,0,1-3.6.8A25.4,25.4,0,0,1,22,93.5Z" style="fill:#f27a1d"/><path d="M18.9,88.8a27.5,27.5,0,0,1,.2-5c.1-1.1.3-2.2.5-3.3a4.4,4.4,0,0,1,.6-1.6,2,2,0,0,1,3.4,0,7,7,0,0,1,.8,2c.1,1.1.3,2.2.4,3.2a57.2,57.2,0,0,1,.2,5.8,30.3,30.3,0,0,0-.2,3.1,19.5,19.5,0,0,0-.2,2.5c-.2,1.5-.4,3.1-.5,4.6s-.7,4.5-1.2,6.8l-.3,1v.2c-.1.3-.2.6-.6.6s-.5-.3-.6-.6L21,107a43.4,43.4,0,0,1-1.1-6.1c-.3-2.5-.6-5-.8-7.5,0-.9-.1-1.9-.2-2.9Z" style="fill:#ce3939"/><path d="M21.9,45.9a9.9,9.9,0,0,1,10.2,9,10,10,0,0,1-7.9,10.7,10,10,0,0,1-9.9-3,9.6,9.6,0,0,1-2.6-7.2A9.9,9.9,0,0,1,20.1,46Z" style="fill:#ce3939"/><path d="M21.9,65.2a.6.6,0,0,1-.6-.6c0-.2.3-.4.6-.4h.5a.4.4,0,0,1,.1.5A.5.5,0,0,1,21.9,65.2Z" style="fill:#b12424"/><path d="M22.5,47.3c0,.2-.3.4-.6.4a.5.5,0,1,1,0-1Q22.5,46.8,22.5,47.3Z" style="fill:#b12424"/><path d="M15.9,49.8a.5.5,0,0,1-1,0,.6.6,0,0,1,.5-.6A.6.6,0,0,1,15.9,49.8Z" style="fill:#b12424"/><path d="M28,49.7a.4.4,0,0,1,.5-.4.5.5,0,0,1,.5.5.6.6,0,0,1-.6.5A.5.5,0,0,1,28,49.7Z" style="fill:#b12424"/><path d="M31,56.4a.5.5,0,0,1-.5-.5.7.7,0,0,1,.4-.5c.3,0,.5.3.6.5A.5.5,0,0,1,31,56.4Z" style="fill:#b12424"/><path d="M13.4,55.9a.5.5,0,0,1-.5.5.5.5,0,0,1-.5-.5.5.5,0,0,1,.5-.5A.5.5,0,0,1,13.4,55.9Z" style="fill:#b12424"/><path d="M15.7,61.9a.5.5,0,0,1,.5.5.5.5,0,0,1-1,0A.5.5,0,0,1,15.7,61.9Z" style="fill:#b12424"/><path d="M28.1,62.9a.5.5,0,1,1,.5-.5A.5.5,0,0,1,28.1,62.9Z" style="fill:#b12424"/><path d="M21.9,63.4a7.6,7.6,0,0,1-7.5-6.1,7.3,7.3,0,0,1,5.8-8.7,7.6,7.6,0,0,1,4.7.4,7.1,7.1,0,0,1,4.6,5.6,7.5,7.5,0,0,1-6.8,8.7Z" style="fill:#cbedf7"/><path d="M28.6,59.5,18.3,49.2a7.6,7.6,0,0,0-3.9,5l9,9A7.2,7.2,0,0,0,28.6,59.5Z" style="fill:#cbedf7;mix-blend-mode:screen"/></g></g></g></svg>