<svg xmlns="http://www.w3.org/2000/svg" viewBox="0 0 67.3 278.8"><g id="Layer_2" data-name="Layer 2"><g id="Layer_1-2" data-name="Layer 1"><path d="M13.7,113.1H11.9s3.7-6.1,8.2-12.1C29.2,88.6,32.4,88.7,34,88.7s4.7.1,14.8,11.8c4.9,5.7,9.1,11.5,9.1,11.5l-1.8.2c0-.1-4.2-5.8-9-11.5C37.8,90,34.5,89.3,33.9,89.3s-3.9.8-12.2,12C17.4,107.2,13.8,113.1,13.7,113.1Z" style="fill:#161616;stroke:#161616;stroke-miterlimit:10;stroke-width:2px"/><path d="M34.9,89.6c-4.1,0-7.5-1-7.5-2.3s3.4-2.4,7.5-2.4,7.5,1.1,7.5,2.4S39,89.6,34.9,89.6Zm0-3.8c-2.6,0-4.7.7-4.7,1.5s2.1,1.4,4.7,1.4,4.7-.6,4.7-1.4S37.5,85.8,34.9,85.8Z" style="fill:#ddb663"/><path d="M35.3,86.4c-.8,0-1.4-.2-1.4-.4L33.1,1.5c0-.3.6-.5,1.4-.5s1.4.2,1.4.4l.8,84.5c0,.3-.6.5-1.3.5Z" style="fill:#161616;stroke:#161616;stroke-miterlimit:10;stroke-width:2px"/><path d="M34.9,105.8c16.2,0,29.4,2.6,29.4,5.8s-2.1,25-29.4,25-29.4-21.9-29.4-25,13.2-5.8,29.4-5.8m0-3a117.6,117.6,0,0,0-21.3,1.8c-5.2,1-11.1,2.7-11.1,7,0,.3.4,28,32.4,28s32.4-27.7,32.4-28c0-4.3-5.9-6-11-7a119.7,119.7,0,0,0-21.4-1.8Z" style="fill:#924f28"/><path d="M64.3,111.6c0,3.1-2.1,25-29.4,25s-29.4-21.9-29.4-25,13.2-5.8,29.4-5.8S64.3,108.4,64.3,111.6Z" style="fill:#e57225"/><ellipse cx="34.9" cy="111.6" rx="29.4" ry="5.7" style="fill:#f9d9b7"/><ellipse cx="34.9" cy="111" rx="23.3" ry="4" style="fill:#af7553"/><path d="M8.8,256.6H8.3a3.1,3.1,0,0,1-2.6-2.4c-.1-.2-.1-.5-.2-.8a2.8,2.8,0,0,1-.9-1.6,4.4,4.4,0,0,1,.1-2,.7.7,0,0,0,.1-.5,6.2,6.2,0,0,0-.4-2.9c-.3-1.4-.7-3-.2-4.4a.8.8,0,0,1-.4-.4c-1.4-1.7-1.2-4.6-1.1-5.4l.3-2.4.9-6.2c-1-1.3-.7-3.1-.5-4.3s.1-.6.2-.9a8,8,0,0,0-.3-2.6,10,10,0,0,1-.2-1.6,6.8,6.8,0,0,1,.5-3.8H3.5a4.4,4.4,0,0,1-.9-3.5l.4-1.2a4,4,0,0,0,.3-1.7l-.3-.6a7.6,7.6,0,0,1-.7-1.3,5.7,5.7,0,0,1,.6-3.5,2.1,2.1,0,0,0,.4-1.3l-.3-.5-.5-.6c-1.5-2.3-.4-5.1.5-6.7a6.6,6.6,0,0,1-1.5-4.8,20.7,20.7,0,0,1,1.5-5l.2-.3a1.4,1.4,0,0,1,.2-.4l-.3-.3-.6-.7c-1.3-1.7-.7-3.7-.2-5.2l.3-1.1a14.8,14.8,0,0,0,0-4.2,9.9,9.9,0,0,1-.2-1.7,9.7,9.7,0,0,1,.7-5H2.9a1.4,1.4,0,0,1-1.1-.9c-.8-1.8,0-3.6.7-5s.9-2.1.6-2.5l-.2-.3a3.2,3.2,0,0,1-.8-1.3,3.5,3.5,0,0,1,.5-2.6l1.5-2.9a1.8,1.8,0,0,1-.5-.7,5,5,0,0,1-.1-4.6c.3-.6.6-1,.9-1.5l.8-1.2a3.5,3.5,0,0,1-1.6-2.3,5.1,5.1,0,0,1,.4-3.5A17.4,17.4,0,0,1,5.8,132l-.2-.2a1.6,1.6,0,0,1-.5-1.1,14.7,14.7,0,0,1,1.7-6.2H6.2a1.2,1.2,0,0,1-1.1-.7,1.2,1.2,0,0,1-.1-1.3,16.8,16.8,0,0,1,8-9h.7l.8.2a6,6,0,0,1,2.5,4.3,6.1,6.1,0,0,1-.7,3.8,9,9,0,0,1-.1,7,4.1,4.1,0,0,1,.4,3.6,4.5,4.5,0,0,1-1.5,2.4,9.4,9.4,0,0,1,.8,3.4,4.6,4.6,0,0,1-1.8,3.4,9.3,9.3,0,0,1,.7,3.3,7.1,7.1,0,0,1-1.4,4.3,9.4,9.4,0,0,1,.2,8.8,8.8,8.8,0,0,1,1.4,4.4,5,5,0,0,1-1.7,4.1,7.3,7.3,0,0,1,.9,3.5,7,7,0,0,1-1.4,4.1,10.8,10.8,0,0,1,1.1,3.6,5.8,5.8,0,0,1-1.2,4.1,12.5,12.5,0,0,1,1.2,8.9,1.3,1.3,0,0,1-.7.9,9.2,9.2,0,0,1-.5,7.1,10.5,10.5,0,0,1,1.3,4,5.7,5.7,0,0,1-1.2,4.3,9,9,0,0,1,1.2,3.7,4.9,4.9,0,0,1-1.7,4.1,7.8,7.8,0,0,1-.5,6.8,9.4,9.4,0,0,1,.8,7.5,13.8,13.8,0,0,1,2.1,4.2,6.2,6.2,0,0,1-1,4.7,6.6,6.6,0,0,1,.6,5.3,15.9,15.9,0,0,1,.1,7.2,1.7,1.7,0,0,1-1.5,1.2,6.2,6.2,0,0,1-.2,1.9A4.4,4.4,0,0,1,8.8,256.6Z" style="fill:#c3bf4f"/><path d="M13.7,114.8a4.7,4.7,0,0,1,.8,6.7,7.3,7.3,0,0,1,0,7.3c1.7,1.5.7,4.8-1.5,5.2a7.2,7.2,0,0,1,1.4,4,2.7,2.7,0,0,1-2.4,2.6h-.3a6.2,6.2,0,0,1-.1,8.4,8,8,0,0,1,.3,8.8,9.4,9.4,0,0,1,1.6,4.5c.1,1.6-.9,3.4-2.4,3.7a5.2,5.2,0,0,1-.2,7.7,10.3,10.3,0,0,1,1.5,4,3.6,3.6,0,0,1-1.7,3.6,11.3,11.3,0,0,1,1.8,8.9l-1.9-.3a7.4,7.4,0,0,1,.4,8.6,11.2,11.2,0,0,1,1.5,4.2,3.9,3.9,0,0,1-1.7,3.9,9.2,9.2,0,0,1,1.7,4.1c.1,1.5-.8,3.2-2.3,3.3a6.3,6.3,0,0,1-.2,7.5,7.8,7.8,0,0,1,.9,7.8,10.2,10.2,0,0,1,2.3,4.2c.3,1.6-.2,3.5-1.6,4.2a4.6,4.6,0,0,1,1.1,5.4,15,15,0,0,1,.2,7h0a2.9,2.9,0,0,1-1.8-.7,6.7,6.7,0,0,1,.1,3.7,2.8,2.8,0,0,1-2.4,2.1H8.5c-1.2-.1-2-1.9-1-2.7H7.1a1.2,1.2,0,0,1-1.1-.9,6.4,6.4,0,0,1,.3-2c.4-2.8-2.1-6.3,0-8.2-2-.1-2.4-3-2.1-5l.3-2.4c.3-2.3.6-4.7,1-7-1.3-.8-.6-2.8-.5-4.4s-.3-3.1-.4-4.6.1-3.3,1.3-4.2H5.6c-1.1,0-1.7-1.6-1.5-2.8s1-2.5.6-3.7-.8-1.2-.9-1.8,1.6-3.4.9-5a11,11,0,0,0-.9-1.4c-1.3-1.8-.1-4.3,1.1-6.1A4.8,4.8,0,0,1,3,188.7a17,17,0,0,1,1.6-4.8,1.9,1.9,0,0,0,.2-1.5c-.2-.6-.8-.9-1.1-1.4s-.1-3.3.4-5.1-.1-4.2-.2-6.3.1-4.6,1.8-5.9l-2.5-.6c-1.1-2.5,2.6-5.5,1.1-7.7-.2-.4-.6-.7-.7-1.2a2.7,2.7,0,0,1,.3-1.5l2.3-4.3H6.1c-1.6,0-2-2.5-1.2-3.9S7.1,141.7,7,140H6.8A2,2,0,0,1,5,138.5a5.1,5.1,0,0,1,.4-2.7,15.4,15.4,0,0,1,3.3-5.1H6.6a13,13,0,0,1,3.5-8.4,7.3,7.3,0,0,1-2.9.7H6.4a14.9,14.9,0,0,1,7.3-8.1m0-3a3.2,3.2,0,0,0-1.4.3,18.7,18.7,0,0,0-8.7,9.7,2.9,2.9,0,0,0,.2,2.7,2,2,0,0,0,.9.9,16.2,16.2,0,0,0-1.1,5.3,3.1,3.1,0,0,0,.3,1.3c-.5.9-.9,1.8-1.3,2.7a7.9,7.9,0,0,0-.5,4.5,4.8,4.8,0,0,0,1.2,2.2H3.2a11.2,11.2,0,0,0-1,1.6,6.3,6.3,0,0,0,.1,6.1h0l-1,2.1A4.5,4.5,0,0,0,.7,155a3.9,3.9,0,0,0,1,1.8l-.6,1.3c-.7,1.5-1.7,3.8-.7,6.2a3.1,3.1,0,0,0,.9,1.1,12.5,12.5,0,0,0-.4,4.4,11,11,0,0,0,.2,1.8,10.8,10.8,0,0,1,0,3.6,3.6,3.6,0,0,1-.2,1c-.6,1.6-1.4,4.3.4,6.7l.3.3A17.3,17.3,0,0,0,0,188.5a8.5,8.5,0,0,0,1.2,5c-.9,2-1.7,4.8.1,7.4a1.5,1.5,0,0,0,.4.6c0,.2-.1.3-.1.4a6.1,6.1,0,0,0-.7,4.4,7.8,7.8,0,0,0,.8,1.8c0,.1.1.1.1.2s-.2.6-.2.8a5.7,5.7,0,0,0-.4,1.4,6.1,6.1,0,0,0,.7,4.2,7.2,7.2,0,0,0-.3,3.6,11.1,11.1,0,0,1,.2,1.7,10.3,10.3,0,0,1,.3,2.2c-.1.3-.1.6-.2.8a7.8,7.8,0,0,0,.4,4.9c-.3,1.9-.5,3.8-.8,5.7v1.2L1.2,236c-.1,1.3-.3,4.3,1.3,6.5a11.8,11.8,0,0,0,.5,4.3,6.9,6.9,0,0,1,.3,2.3v.4a5.2,5.2,0,0,0-.2,2.6,3.5,3.5,0,0,0,1,2,4.3,4.3,0,0,0,.1.5,4.8,4.8,0,0,0,3.9,3.5h.7a5.6,5.6,0,0,0,5.3-4.2,7.9,7.9,0,0,0,.3-1.3,3,3,0,0,0,1.4-2,15.4,15.4,0,0,0,0-7.4,8,8,0,0,0-.4-5.3,7.4,7.4,0,0,0,.7-5.1,10.4,10.4,0,0,0-1.9-4.1,10.2,10.2,0,0,0-.7-7.3A9.4,9.4,0,0,0,14,215a6.6,6.6,0,0,0,1.5-4.6,8.3,8.3,0,0,0-1-3.5,7.1,7.1,0,0,0,1-4.6,11.2,11.2,0,0,0-1.1-3.8,10.3,10.3,0,0,0,.5-6.7,3.1,3.1,0,0,0,.5-1,14.3,14.3,0,0,0-1-9.1,7.2,7.2,0,0,0,1-4.4,11.5,11.5,0,0,0-.9-3.3,8.3,8.3,0,0,0,1.2-4.2,8.7,8.7,0,0,0-.6-3.2,6.4,6.4,0,0,0,1.4-4.5,10.2,10.2,0,0,0-1.2-4.4,11.2,11.2,0,0,0-.2-8.6,10.6,10.6,0,0,0,1.2-4.3,10.5,10.5,0,0,0-.5-3,6.2,6.2,0,0,0,1.6-3.7,7.5,7.5,0,0,0-.6-3.1,7,7,0,0,0,1.3-2.4,6.4,6.4,0,0,0-.2-4.1,9.9,9.9,0,0,0,0-6.8,7.1,7.1,0,0,0,.6-4.1,7.7,7.7,0,0,0-3.1-5.3,2.6,2.6,0,0,0-1.7-.5Z" style="fill:#6c9433"/><path d="M9.9,249.3c-.2,0-.3-.1-.4-.3C8,217.1,6.6,148.8,12.1,118.9a19.9,19.9,0,0,1,1.8-5.7,6.2,6.2,0,0,1,4.8-3.3c.2-.1.4.1.4.3l-.3.3a5.8,5.8,0,0,0-4.3,3.1,14.2,14.2,0,0,0-1.7,5.4c-5.5,29.9-4.1,98.1-2.6,130a.3.3,0,0,1-.3.3Z" style="fill:#269184;stroke:#259184;stroke-miterlimit:10"/><path d="M25.7,251.8a2.8,2.8,0,0,1-1.5-.4,4,4,0,0,1-1.3-1.3c-1.4-2.2-1.6-5-1.7-7.2l-.2-3.2a25.4,25.4,0,0,1,.1-5.5,11.5,11.5,0,0,1,.8-8.7,8.2,8.2,0,0,1-.4-6.7,9.1,9.1,0,0,1,.5-8.9c-1-1.8-.9-4-.7-6.1l.3-3.4c.1-1,.2-2.1.4-3.2v-.4a8.3,8.3,0,0,0,.1-2.2c0-.3-.1-.6-.1-.9s-.1-.5-.2-.7a10.7,10.7,0,0,1,1-6.1,7.8,7.8,0,0,1,0-7,6.7,6.7,0,0,1-.2-6.6l-.3-.3a5.7,5.7,0,0,1-.6-4.1,8.8,8.8,0,0,1,.5-1.5,5.1,5.1,0,0,0,.4-2.3,5.4,5.4,0,0,0-.3-1l-.3-.6a9.2,9.2,0,0,1,.8-7.4,12.2,12.2,0,0,1-.9-5.5v-1.7a35.3,35.3,0,0,1,.7-8.4,6.1,6.1,0,0,1-1.1-3.6,6.4,6.4,0,0,1,.7-2.7l-.5-.6a5,5,0,0,1-.5-3.6,5.8,5.8,0,0,1,1.3-2.6h0a3.5,3.5,0,0,1-.9-2.9,7.5,7.5,0,0,1,.5-1.6,1.3,1.3,0,0,1-.7-1.4A11.3,11.3,0,0,1,25,114a1.4,1.4,0,0,1,1-.4l.9.2a13.9,13.9,0,0,1,6,9.7,1.5,1.5,0,0,1-.4,1.1,6.4,6.4,0,0,1,.2.7,3.5,3.5,0,0,1-.8,2.9l-.6.5.4.6a7.7,7.7,0,0,1,1,1.8,4.2,4.2,0,0,1-.4,3.9l-.4.5a7,7,0,0,1-.4,5.8,7.9,7.9,0,0,1,1.1,8.8,8.2,8.2,0,0,1-.2,7.9,12.4,12.4,0,0,1,2,4.7,6.5,6.5,0,0,1-1.5,5.1,7.5,7.5,0,0,1,.2,7.4,7.4,7.4,0,0,1-.5,7.7,7.5,7.5,0,0,1-.3,7.9,9.8,9.8,0,0,1,.3,8.2,12,12,0,0,1,1,3.5,5.3,5.3,0,0,1-1.3,3.5,7.8,7.8,0,0,1-.7,7.8,11.7,11.7,0,0,1-.2,6.7,6.3,6.3,0,0,1,1.2,3.4,6.5,6.5,0,0,1-1,3.4,7.4,7.4,0,0,1,0,6.5,17.1,17.1,0,0,1,1.4,7.4,1.4,1.4,0,0,1-1.1,1.4h-.2a5.8,5.8,0,0,1-.3,2.2,5.5,5.5,0,0,1-1.8,2.2,5.8,5.8,0,0,1-.7,2.8,3.8,3.8,0,0,1-3.2,1.9Z" style="fill:#c3bf4f"/><path d="M26,115.1a11.8,11.8,0,0,1,5.4,8.5l-2.1-.8a5.6,5.6,0,0,1,1.9,2.7c.2,1-.6,2.3-1.5,2.3h-.3c.1,1.5,1.4,2.6,1.9,3.9s-.1,3.2-1.3,3.2h-.3a5,5,0,0,1-.2,6.7,6.6,6.6,0,0,1,1.4,8.7,6.8,6.8,0,0,1-.3,7.9,13,13,0,0,1,2.3,4.9c.3,1.8-.4,3.9-2.1,4.6a6.1,6.1,0,0,1,.5,7.7,5.7,5.7,0,0,1-.6,7.6,6,6,0,0,1-.2,7.9,7.8,7.8,0,0,1,.4,8.3,10.9,10.9,0,0,1,1.2,3.6,3,3,0,0,1-1.9,2.9,6.2,6.2,0,0,1-.3,8,9.3,9.3,0,0,1-.3,7.3,4.4,4.4,0,0,1,.2,6.3,6.1,6.1,0,0,1,.1,6.6,16.4,16.4,0,0,1,1.6,7.5l-1.5.4a3.7,3.7,0,0,1-1.9,4.6,6.1,6.1,0,0,1-.5,3,2.5,2.5,0,0,1-1.9,1.1,1,1,0,0,1-.7-.2,2,2,0,0,1-.8-.8c-1.2-1.9-1.4-4.2-1.5-6.5s-.1-2.1-.2-3.2a25.2,25.2,0,0,1,.1-5.5,9.7,9.7,0,0,1,1.1-8.6,6.6,6.6,0,0,1-.5-6.8,7.2,7.2,0,0,1,.7-8.7c-1.4-1.6-1.3-3.9-1.1-6l.3-3.4a31.1,31.1,0,0,1,.4-3.2,14.2,14.2,0,0,0,.2-2.9,11.3,11.3,0,0,0-.3-1.8,8.5,8.5,0,0,1,1.3-5.8,6.2,6.2,0,0,1,0-7.1,5.2,5.2,0,0,1,.2-6.9c-1.5-.2-2-2.2-1.6-3.6s1.1-3,.9-4.4a6.2,6.2,0,0,0-.7-1.9,7.5,7.5,0,0,1,1.2-6.8c-1.1-1.6-1.2-3.7-1.2-5.6v-1.7a28.3,28.3,0,0,1,.9-8.7,4.8,4.8,0,0,1,0-6.5c-1.3-.2-2-2-1.7-3.3a8.2,8.2,0,0,1,2.3-3.5h-.2a1.9,1.9,0,0,1-1.6-2.3,5,5,0,0,1,1.8-2.9h-.8a2.4,2.4,0,0,1-1.2-.3,9.8,9.8,0,0,1,2.9-6.4m0-3a3,3,0,0,0-2,.8,13,13,0,0,0-3.9,8.5,2.5,2.5,0,0,0,.4,1.7,3.6,3.6,0,0,0-.2,1,4.8,4.8,0,0,0,.6,3.3,8,8,0,0,0-1,2.3,6,6,0,0,0,.8,4.7h0a7.4,7.4,0,0,0-.5,2.5,8.4,8.4,0,0,0,1,3.9,38.2,38.2,0,0,0-.6,8.1v1.7a13.6,13.6,0,0,0,.8,5.4,10.1,10.1,0,0,0-.6,8l.3.7a2.1,2.1,0,0,1,.2.6,3.7,3.7,0,0,1-.4,1.6,15.4,15.4,0,0,1-.5,1.7,6.9,6.9,0,0,0,.7,4.9,8.6,8.6,0,0,0,.2,6.5,9.7,9.7,0,0,0,.1,6.9,10.6,10.6,0,0,0-.8,6.3c0,.3.1.6.1.8a2.5,2.5,0,0,1,.1.8,5,5,0,0,1-.1,1.7v.4c-.1,1.2-.2,2.3-.4,3.4l-.2,2.2v1.2a14.9,14.9,0,0,0,.5,6.1,10.4,10.4,0,0,0-.4,9.1,9.4,9.4,0,0,0,.3,6.6,12.7,12.7,0,0,0-.6,8.8,25.5,25.5,0,0,0-.1,5.5l.2,3.2c.1,2.4.3,5.3,2,7.9a3.9,3.9,0,0,0,1.8,1.8,4,4,0,0,0,2.2.6,5.4,5.4,0,0,0,4.5-2.6,8.4,8.4,0,0,0,.8-2.9,4.6,4.6,0,0,0,1.7-2.4,4.8,4.8,0,0,0,.5-1.7,3.1,3.1,0,0,0,1.3-2.4,19.1,19.1,0,0,0-1.3-7.5,9.4,9.4,0,0,0,.1-6.4,8.5,8.5,0,0,0,.8-3.5,8,8,0,0,0-1.1-3.7,12.6,12.6,0,0,0,.2-6.1,9.5,9.5,0,0,0,.8-7.9,6.7,6.7,0,0,0,1.1-3.7,12,12,0,0,0-.9-3.5,10.8,10.8,0,0,0-.2-8.1,9.1,9.1,0,0,0,.4-7.9,9.3,9.3,0,0,0,.4-7.8,9.5,9.5,0,0,0-.1-7.2,7.9,7.9,0,0,0,1.2-5.5,12.7,12.7,0,0,0-1.8-4.6,10,10,0,0,0,.2-7.8,9.6,9.6,0,0,0-1-9,9.6,9.6,0,0,0,.3-5.3h0a5.9,5.9,0,0,0,.5-5.3,11.4,11.4,0,0,0-.9-1.6,5.1,5.1,0,0,0,1-3.9h-.1a4.5,4.5,0,0,0,.3-1.6,14.6,14.6,0,0,0-6.7-10.7,3.4,3.4,0,0,0-1.7-.5Z" style="fill:#6c9433"/><path d="M25.8,241.6h0c-.2,0-.3-.2-.3-.4,1.8-21.8,2-81.6,2.1-104.2v-.2c0-8.1.1-17.3-2.9-25.4a2.2,2.2,0,0,0-1.8.8,2,2,0,0,0-.6,2c0,.2-.1.4-.3.4s-.3-.1-.4-.3a3,3,0,0,1,.8-2.6,3.1,3.1,0,0,1,2.5-1c.2.1.3.1.3.2,3.1,8.3,3.1,17.7,3.1,25.9v.2c-.1,22.6-.3,82.5-2.2,104.3A.3.3,0,0,1,25.8,241.6Z" style="fill:#269184;stroke:#259184;stroke-miterlimit:10"/><path d="M54.6,251.8a2.4,2.4,0,0,1-1.5-.4,4,4,0,0,1-1.3-1.3c-1.5-2.2-1.6-5-1.7-7.2l-.2-3.2a20.3,20.3,0,0,1,.1-5.5,10.6,10.6,0,0,1,.8-8.7,8.2,8.2,0,0,1-.5-6.7,9.1,9.1,0,0,1,.6-8.9c-1-1.8-.9-4-.7-6.1l.3-3.4c.1-1,.2-2.1.4-3.2v-.4a5.7,5.7,0,0,0,.2-2.2,2.9,2.9,0,0,0-.2-.9c0-.2-.1-.5-.1-.7a9.9,9.9,0,0,1,1-6.1,8.2,8.2,0,0,1-.1-7,6.7,6.7,0,0,1-.1-6.6l-.3-.3a5.3,5.3,0,0,1-.6-4.1c.1-.5.3-1,.4-1.5a5.3,5.3,0,0,0,.5-2.3l-.4-1a1.4,1.4,0,0,0-.2-.6,9.2,9.2,0,0,1,.8-7.4,12.2,12.2,0,0,1-.9-5.5v-1.7a34.6,34.6,0,0,1,.8-8.4,6.1,6.1,0,0,1-1.1-3.6,5.2,5.2,0,0,1,.7-2.7l-.5-.6a5,5,0,0,1-.6-3.6,7.2,7.2,0,0,1,1.4-2.6.1.1,0,0,1-.1-.1,3.9,3.9,0,0,1-.9-2.9,4.4,4.4,0,0,1,.6-1.6,1.6,1.6,0,0,1-.8-1.4,12,12,0,0,1,3.5-7.4,1.3,1.3,0,0,1,1-.4l.8.2a13.5,13.5,0,0,1,6,9.7,1.1,1.1,0,0,1-.3,1.1,1.5,1.5,0,0,1,.1.7,3.9,3.9,0,0,1-.7,2.9l-.6.5.4.6a14.5,14.5,0,0,1,1,1.8,4.5,4.5,0,0,1-.4,3.9l-.5.5a6.6,6.6,0,0,1-.3,5.8,7.9,7.9,0,0,1,1.1,8.8,8.8,8.8,0,0,1-.2,7.9,14.2,14.2,0,0,1,2,4.7,6.5,6.5,0,0,1-1.5,5.1,7.8,7.8,0,0,1,.2,7.4,7.4,7.4,0,0,1-.5,7.7,7.5,7.5,0,0,1-.3,7.9,9.4,9.4,0,0,1,.2,8.2,7.9,7.9,0,0,1,1,3.5,4.8,4.8,0,0,1-1.3,3.5,7.4,7.4,0,0,1-.7,7.8,10.9,10.9,0,0,1-.1,6.7,5.5,5.5,0,0,1,1.1,3.4,6.4,6.4,0,0,1-.9,3.4,8.2,8.2,0,0,1,0,6.5,20.7,20.7,0,0,1,1.4,7.4,1.4,1.4,0,0,1-1.1,1.4h-.2a6,6,0,0,1-.4,2.2,5.2,5.2,0,0,1-1.7,2.2,6,6,0,0,1-.8,2.8,3.5,3.5,0,0,1-3.1,1.9Z" style="fill:#c3bf4f"/><path d="M54.9,115.1a12.1,12.1,0,0,1,5.4,8.5l-2.2-.8a5.2,5.2,0,0,1,2,2.7,2,2,0,0,1-1.6,2.3h-.2c.1,1.5,1.3,2.6,1.9,3.9s-.1,3.2-1.3,3.2h-.4a5,5,0,0,1-.1,6.7,6.5,6.5,0,0,1,1.3,8.7,6.9,6.9,0,0,1-.2,7.9,13,13,0,0,1,2.3,4.9c.2,1.8-.5,3.9-2.1,4.6a6.1,6.1,0,0,1,.5,7.7,5.8,5.8,0,0,1-.6,7.6,6,6,0,0,1-.3,7.9,7.6,7.6,0,0,1,.4,8.3,7.7,7.7,0,0,1,1.2,3.6,2.8,2.8,0,0,1-1.8,2.9,6.3,6.3,0,0,1-.3,8,10.2,10.2,0,0,1-.3,7.3,4.3,4.3,0,0,1,.1,6.3,6.1,6.1,0,0,1,.2,6.6,17.8,17.8,0,0,1,1.6,7.5l-1.6.4a3.5,3.5,0,0,1-1.8,4.6,5.2,5.2,0,0,1-.6,3,2.2,2.2,0,0,1-1.8,1.1,1.2,1.2,0,0,1-.8-.2,2.7,2.7,0,0,1-.7-.8c-1.2-1.9-1.4-4.2-1.6-6.5s-.1-2.1-.1-3.2a16.9,16.9,0,0,1,.1-5.5,10,10,0,0,1,1-8.6,6.6,6.6,0,0,1-.5-6.8,7.2,7.2,0,0,1,.8-8.7c-1.4-1.6-1.3-3.9-1.1-6l.3-3.4a31.1,31.1,0,0,1,.4-3.2,14.2,14.2,0,0,0,.2-2.9l-.3-1.8a8,8,0,0,1,1.3-5.8,6.3,6.3,0,0,1-.1-7.1,5.1,5.1,0,0,1,.3-6.9c-1.5-.2-2-2.2-1.7-3.6s1.2-3,1-4.4-.5-1.3-.7-1.9a7.2,7.2,0,0,1,1.2-6.8c-1.2-1.6-1.2-3.7-1.2-5.6v-1.7a31.8,31.8,0,0,1,.9-8.7,4.9,4.9,0,0,1,.1-6.5c-1.4-.2-2-2-1.7-3.3a7.4,7.4,0,0,1,2.3-3.5h-.2a2.1,2.1,0,0,1-1.7-2.3,5.7,5.7,0,0,1,1.9-2.9h-.9a2.7,2.7,0,0,1-1.2-.3,10.4,10.4,0,0,1,3-6.4m0-3a3.4,3.4,0,0,0-2.1.8,12.9,12.9,0,0,0-3.8,8.5,2.5,2.5,0,0,0,.4,1.7,3.6,3.6,0,0,0-.2,1,5.4,5.4,0,0,0,.5,3.3,7.9,7.9,0,0,0-.9,2.3,6,6,0,0,0,.8,4.7h0a7.4,7.4,0,0,0-.5,2.5,7.3,7.3,0,0,0,1,3.9,38.6,38.6,0,0,0-.7,8.1v1.7a15.4,15.4,0,0,0,.7,5.4,10.6,10.6,0,0,0-.5,8l.3.7c0,.2.2.5.2.6a6.2,6.2,0,0,1-.4,1.6c-.2.5-.3,1.1-.5,1.7a6.9,6.9,0,0,0,.7,4.9,8.2,8.2,0,0,0,.2,6.5,9.2,9.2,0,0,0,.1,6.9,11.5,11.5,0,0,0-.9,6.3c.1.3.1.6.2.8s.1.6.1.8a5,5,0,0,1-.1,1.7v.4c-.2,1.2-.3,2.3-.4,3.4v1l-.2,2.4a12.1,12.1,0,0,0,.5,6.1,10.8,10.8,0,0,0-.5,9.1,10,10,0,0,0,.4,6.6,12.7,12.7,0,0,0-.7,8.8,25.3,25.3,0,0,0,0,5.5V243c.1,2.3.3,5.3,1.9,7.9a5.1,5.1,0,0,0,1.8,1.8,4.6,4.6,0,0,0,2.3.6,5.1,5.1,0,0,0,4.4-2.6,6.9,6.9,0,0,0,.9-2.9,6.1,6.1,0,0,0,1.7-2.4,8.4,8.4,0,0,0,.5-1.7,3.1,3.1,0,0,0,1.3-2.4,21.1,21.1,0,0,0-1.3-7.5,8.8,8.8,0,0,0,0-6.4,7.2,7.2,0,0,0,.8-3.5,7.9,7.9,0,0,0-1-3.7,14,14,0,0,0,.2-6.1,9.5,9.5,0,0,0,.8-7.9,5.9,5.9,0,0,0,1-3.7,9.5,9.5,0,0,0-.8-3.5,10.8,10.8,0,0,0-.2-8.1,9.1,9.1,0,0,0,.3-7.9,8.9,8.9,0,0,0,.4-7.8,9,9,0,0,0,0-7.2,7.9,7.9,0,0,0,1.1-5.5,11,11,0,0,0-1.7-4.6,10,10,0,0,0,.1-7.8,9.6,9.6,0,0,0-1-9,8.1,8.1,0,0,0,.3-5.3h0a5.6,5.6,0,0,0,.6-5.3,11.4,11.4,0,0,0-.9-1.6A5,5,0,0,0,63,125h0a3,3,0,0,0,.2-1.6,14.6,14.6,0,0,0-6.7-10.7,3,3,0,0,0-1.6-.5Z" style="fill:#6c9433"/><path d="M54.7,241.6h-.1a.4.4,0,0,1-.3-.4c1.9-21.8,2.1-81.7,2.2-104.2v-.2c0-8.1,0-17.3-3-25.4a2,2,0,0,0-1.7.8,2.3,2.3,0,0,0-.7,2c.1.2,0,.4-.2.4s-.4-.1-.4-.3a3,3,0,0,1,.8-2.6,3.1,3.1,0,0,1,2.5-1l.3.2c3.1,8.3,3.1,17.7,3,25.9v.2c0,22.5-.2,82.4-2.1,104.3A.3.3,0,0,1,54.7,241.6Z" style="fill:#269184;stroke:#259184;stroke-miterlimit:10"/><path d="M39.5,277.3H39a5.1,5.1,0,0,1-3.9-3.2,6.1,6.1,0,0,1-.4-2.6,3.4,3.4,0,0,1-.9-.8,3.6,3.6,0,0,1-.9-3.1,6.8,6.8,0,0,1,.7-2h0l-.5-.2a1.7,1.7,0,0,1-.6-1.2,13.7,13.7,0,0,1,.9-5.6,1.6,1.6,0,0,1-.7-.9,8.7,8.7,0,0,1,.9-5.9,1.6,1.6,0,0,1-.5-1.1,14.1,14.1,0,0,1,2.3-7.5,8.9,8.9,0,0,1,.7-8.5,4.9,4.9,0,0,1-.7-3.3V227a15.8,15.8,0,0,1,1.3-6.6,8.6,8.6,0,0,1,.5-9.1,5.9,5.9,0,0,1-1.2-4.4,9.5,9.5,0,0,1,1.2-3.7,5.3,5.3,0,0,1-1.6-4.6,9.1,9.1,0,0,1,1.3-3.7c-.2-.1-.3-.3-.4-.4a4.9,4.9,0,0,1-.7-4.4,13.4,13.4,0,0,1,.7-1.8,10.8,10.8,0,0,0,.7-1.8,8.5,8.5,0,0,1-.5-9.2l-.4-.5a5.8,5.8,0,0,1-.6-4.7c.2-.6.5-1.1.7-1.7a6.7,6.7,0,0,0,.8-2.4,7.6,7.6,0,0,1,.1-6.9,4.9,4.9,0,0,1-1.3-4,8.1,8.1,0,0,1,.7-2.2l-.5-.3a1.6,1.6,0,0,1-.5-1.1,10.6,10.6,0,0,1,1-4.6l-.8-.7a4.3,4.3,0,0,1-1-3.4,6.1,6.1,0,0,1,1.2-2.7l-.5-.5a4.9,4.9,0,0,1-.8-4.2c.3-.8.7-1.5,1-2.2a4.8,4.8,0,0,0,.9-2.1,7.7,7.7,0,0,1-.5-5.4,10.3,10.3,0,0,1,1.2-2.6H37a1.4,1.4,0,0,1-1.1-1.2,5.5,5.5,0,0,1,3.7-6,4.5,4.5,0,0,1,1.6-.3,5.8,5.8,0,0,1,5,3,3.9,3.9,0,0,1-.1,3.8h0a4.7,4.7,0,0,1,1.3,2.4,3.3,3.3,0,0,1-.7,2.8h0a6,6,0,0,1,.6,1.9,4.7,4.7,0,0,1-.5,3.1A7,7,0,0,1,48,138a7.4,7.4,0,0,1-.9,4.2l.5.8a8.6,8.6,0,0,1,1.3,2.3,4.4,4.4,0,0,1-.6,3.5l-.3.3a5.1,5.1,0,0,1,.8,2.8,5.7,5.7,0,0,1-1.3,3.8,11.7,11.7,0,0,1,1.8,4.1,5.9,5.9,0,0,1-1.3,4.6,5.9,5.9,0,0,1,.8,3.5,5.6,5.6,0,0,1-1.5,3.3,5.6,5.6,0,0,1,.9,3.1A5.9,5.9,0,0,1,47,178a9,9,0,0,1,1.8,4.1,5.7,5.7,0,0,1-1.1,4.5,7.1,7.1,0,0,1,1.3,3.6,6.7,6.7,0,0,1-1.2,4.4,6.7,6.7,0,0,1,.9,4.2A6.9,6.9,0,0,1,47,203a10.5,10.5,0,0,1,.5,6.8,1.8,1.8,0,0,1-.5.7,9.2,9.2,0,0,1-.6,6.1,6.8,6.8,0,0,1,1.2,4,6.9,6.9,0,0,1-1.2,3.8,7.9,7.9,0,0,1,.9,3.8,7.3,7.3,0,0,1-1.4,3.8,12.8,12.8,0,0,1,.5,7.5,1.8,1.8,0,0,1-.5.7,11,11,0,0,1-.1,7.8,8.9,8.9,0,0,1-.1,9.2,6.4,6.4,0,0,1,.9,3.4,6.5,6.5,0,0,1-1.2,3.6,13.9,13.9,0,0,0,.6,1.3,2.2,2.2,0,0,1,.5.8A5.1,5.1,0,0,1,47,271a3.4,3.4,0,0,1-2.4,1.8,7,7,0,0,1-.8,2A5.1,5.1,0,0,1,39.5,277.3Z" style="fill:#c3bf4f"/><path d="M41.2,119a4,4,0,0,1,3.6,2.1c.6,1.2.3,3.1-1.1,3.2A5.1,5.1,0,0,1,46,127a1.8,1.8,0,0,1-1.6,2.1h-.3c2,.8,2.4,4,.7,5.4a5.4,5.4,0,0,1,.5,7.5c.5,1.4,1.7,2.4,2.1,3.7s-.4,2.9-1.5,2.9l-.5-.2a4.5,4.5,0,0,1,.2,7.1,13,13,0,0,1,2.2,4.6c.2,1.6-.5,3.6-2.2,4.2,2.6,1.2,2.2,5.7-.6,6.5a4.7,4.7,0,0,1,.1,7.1,10.3,10.3,0,0,1,2.3,4.4c.2,1.6-.5,3.6-2.1,4.1a5.2,5.2,0,0,1,.6,8,5.8,5.8,0,0,1-.7,8.2,9.5,9.5,0,0,1,.8,6.8l-1.5-.7a6.9,6.9,0,0,1,0,8,5.3,5.3,0,0,1-.1,7.7,5.1,5.1,0,0,1-.3,7.3,10,10,0,0,1,.8,7.4l-1.5-.6a9.9,9.9,0,0,1,.7,9.7,7.2,7.2,0,0,1-.3,9,4.8,4.8,0,0,1-.1,6.7,9.9,9.9,0,0,0,1.5,3.1,3.5,3.5,0,0,1,.4,3.4,1.8,1.8,0,0,1-1.6,1,1.3,1.3,0,0,1-1.2-.7c1.1,2.2-.9,5.1-3.3,5.1h-.3c-2.5-.3-3.9-3.8-2.4-5.8h0a.8.8,0,0,1-.7.4,2.3,2.3,0,0,1-1.8-2.5c.3-1.5,1.4-2.8,1.2-4.3l-1.5.5a13.8,13.8,0,0,1,1.8-7.2,1.4,1.4,0,0,1-1.1.5h-.5a7.4,7.4,0,0,1,2.3-7,3.3,3.3,0,0,1-1.3.4h-.6a12.6,12.6,0,0,1,2.6-7.4,7.4,7.4,0,0,1,1-8.9c-1.2-.2-1.4-1.8-1.3-2.9s.1-2.9.1-4.3.3-4.9,1.6-6.8a6.8,6.8,0,0,1,.9-9.2,3.8,3.8,0,0,1-1.9-4,10.5,10.5,0,0,1,1.8-4.4,3.6,3.6,0,0,1-2.2-4,9.6,9.6,0,0,1,1.9-4.4h0c-1.6,0-2.3-2.2-1.8-3.7s1.5-3,1.5-4.6a7,7,0,0,1,.3-9.3c-1.8,0-2.4-2.4-1.8-4.1s1.6-3.2,1.4-5a6.4,6.4,0,0,1,.9-7c-1.4-.2-2.2-1.9-2-3.3a9.1,9.1,0,0,1,1.9-3.8H37.3A9.9,9.9,0,0,1,39,148h-.4c-1.3,0-2.3-1.6-2.1-3s1.4-2.7,2.5-3.7l-.7.2c-1.3,0-2.4-2.1-1.9-3.6s2-3.3,1.9-5.2a6.4,6.4,0,0,1,2.3-8.4l-3.2-.8a4,4,0,0,1,2.7-4.3l1.1-.2m0-3h0a6.4,6.4,0,0,0-2,.3,7.1,7.1,0,0,0-4.8,7.7,2.9,2.9,0,0,0,1,1.8,8.8,8.8,0,0,0-.5,1.5,9.5,9.5,0,0,0,.3,6,4.5,4.5,0,0,1-.6,1.2,14.5,14.5,0,0,0-1.1,2.5,6.4,6.4,0,0,0,.8,5.2,15.5,15.5,0,0,0-.8,2.3,6.1,6.1,0,0,0,1.4,4.7H35a15.4,15.4,0,0,0-.7,4.2,3.2,3.2,0,0,0,.7,1.9,8.3,8.3,0,0,0-.4,1.5,6.6,6.6,0,0,0,1.1,4.5,8.9,8.9,0,0,0,0,6.8,3.5,3.5,0,0,1-.6,1.6c-.2.6-.5,1.2-.7,1.9a6.7,6.7,0,0,0,.7,5.7,10.2,10.2,0,0,0,.5,9.3,4.2,4.2,0,0,1-.4,1c-.2.6-.5,1.3-.8,2a6.8,6.8,0,0,0,.8,5.4,9.1,9.1,0,0,0-1,3.3,7.4,7.4,0,0,0,1.3,5.1,11.5,11.5,0,0,0-.9,3.3,7.6,7.6,0,0,0,.9,4.5,10.1,10.1,0,0,0-.4,9.1,20.6,20.6,0,0,0-1.1,6.5v4.3a6.4,6.4,0,0,0,.5,3.3,10.5,10.5,0,0,0-.6,8.5,14.6,14.6,0,0,0-2.2,7.6,2.7,2.7,0,0,0,.3,1.2,9.8,9.8,0,0,0-.6,6.1,1.8,1.8,0,0,0,.4,1,15.8,15.8,0,0,0-.7,5.3,2.9,2.9,0,0,0,.8,1.9,5,5,0,0,0-.4,1.3,5.1,5.1,0,0,0,1.2,4.2l.6.6a7.4,7.4,0,0,0,.5,2.5,6.6,6.6,0,0,0,5.1,4.1h.7a6.5,6.5,0,0,0,5.5-3.2,4.8,4.8,0,0,0,.8-1.6,5.5,5.5,0,0,0,2.6-2.4c.6-1.2.9-3.3-.6-6a4.1,4.1,0,0,0-.5-.9c-.1-.1-.1-.3-.2-.4a7.9,7.9,0,0,0,1-3.7,7.7,7.7,0,0,0-.7-3.4,10.2,10.2,0,0,0,0-9.3,13.3,13.3,0,0,0,.2-7.4,1.4,1.4,0,0,0,.2-.6,13.5,13.5,0,0,0-.2-7.7,8.5,8.5,0,0,0,1.2-4,9,9,0,0,0-.7-3.7,8.4,8.4,0,0,0,1-3.9,8,8,0,0,0-1-4.1,9.7,9.7,0,0,0,.5-5.6,1.1,1.1,0,0,0,.3-.8,12.5,12.5,0,0,0-.2-6.9,7.9,7.9,0,0,0,1.5-4.2,8.1,8.1,0,0,0-.7-4.4,7.7,7.7,0,0,0,1-4.5,9.5,9.5,0,0,0-1-3.5,7.2,7.2,0,0,0,.8-4.8,9.2,9.2,0,0,0-1.5-3.8,7.8,7.8,0,0,0,.9-3.7,7.2,7.2,0,0,0-.6-2.9,6.6,6.6,0,0,0,1.2-3.4,7.6,7.6,0,0,0-.5-3.4,7.3,7.3,0,0,0,.9-5,10.7,10.7,0,0,0-1.4-3.9,7.1,7.1,0,0,0,1-3.9,7.5,7.5,0,0,0-.5-2.6,5.7,5.7,0,0,0,.5-4.4,15.2,15.2,0,0,0-1.4-2.6h-.1a8.5,8.5,0,0,0,.7-4.2,8.3,8.3,0,0,0-1-3.5,6.9,6.9,0,0,0,.3-3.2,9.4,9.4,0,0,0-.4-1.6,5.2,5.2,0,0,0,.5-3.2,7,7,0,0,0-1-2.3,5.8,5.8,0,0,0-.4-4.3,7.2,7.2,0,0,0-6.3-3.8Z" style="fill:#6c9433"/><path d="M39.2,269.1h0c-.2-.1-.3-.2-.3-.4,1.2-20.3,2.5-41.2,3-61.9.4-17.9.4-73.3-1.3-90.2a12.2,12.2,0,0,0-1.2-4.9c-.8-1.3-2.4-2.4-4-1.9a2.5,2.5,0,0,0-1.6,1.8,1.5,1.5,0,0,0,.5,1.6.4.4,0,0,1,0,.5c-.1.2-.3.2-.5.1a2.3,2.3,0,0,1-.6-2.4,3,3,0,0,1,2-2.3c1.9-.5,3.8.8,4.8,2.3a12,12,0,0,1,1.3,5.1c1.7,16.9,1.7,72.4,1.3,90.3-.5,20.7-1.8,41.7-3.1,61.9C39.5,268.9,39.4,269.1,39.2,269.1Z" style="fill:#269184;stroke:#259184;stroke-miterlimit:10"/></g></g></svg>