<svg xmlns="http://www.w3.org/2000/svg" viewBox="0 0 601.2 177"><g id="Layer_2" data-name="Layer 2"><g id="Layer_1-2" data-name="Layer 1"><path d="M135,149.2l-12.7,22a2.8,2.8,0,0,0,2.5,4.3H134a3.5,3.5,0,0,0,1.8-.5l33.9-25.8Z" style="fill:#ce894a;stroke:#75411a;stroke-miterlimit:10;stroke-width:3px"/><path d="M466.2,149.2l12.7,22a2.9,2.9,0,0,1-2.5,4.3h-9.3a3.4,3.4,0,0,1-1.7-.5l-33.9-25.8Z" style="fill:#ce894a;stroke:#75411a;stroke-miterlimit:10;stroke-width:3px"/><path d="M173.8,88.6l-5.1,5.2,1.6,1.3L134.9,131,64.6,82.3a24.5,24.5,0,0,1-3.5,2.9,31.3,31.3,0,0,1-25.8,9.1,31.5,31.5,0,0,1-15-56.8c1.2-1.2,29.8-25.7,31.2-26.7A31.6,31.6,0,0,1,73.9,1.5h.7A26.1,26.1,0,0,1,92.4,9.4c2.9,2.9,6.1,6,9.5,9.1,30.7,29,75.9,64.4,75.9,64.4l-4.9,5Z" style="fill:#b9e48e;stroke:#507125;stroke-miterlimit:10;stroke-width:3px"/><path d="M427.1,88.6l5.1,5.2-1.6,1.3L466,131l70.3-48.7a31.7,31.7,0,0,0,3.5,2.9,31.5,31.5,0,0,0,53.7-18.8,31.6,31.6,0,0,0-12.9-28.9c-1.2-1.2-29.8-25.7-31.2-26.7A31.6,31.6,0,0,0,527,1.5h-.6a26.4,26.4,0,0,0-17.9,7.9l-9.4,9.1c-30.8,29-75.9,64.4-75.9,64.4l4.8,5Z" style="fill:#b9e48e;stroke:#507125;stroke-miterlimit:10;stroke-width:3px"/><path d="M483.8,76.5h0l-10-22.8a13.7,13.7,0,0,0-12.5-8.2H139.7a13.7,13.7,0,0,0-12.5,8.2l-3.3,7.6a12.6,12.6,0,0,0-1.3,2.3L112.4,86.8v7a4.8,4.8,0,0,0,4.9,4.9H483.5a4.9,4.9,0,0,0,4.9-4.9v-7Z" style="fill:#d3f4ae;stroke:#507125;stroke-miterlimit:10;stroke-width:3px"/><path d="M599.5,69.1a40.7,40.7,0,0,0-73.8-20.6,30.8,30.8,0,0,1-3.7,4.4L499.3,75.6a46.9,46.9,0,0,1-33.2,13.8H135a46.9,46.9,0,0,1-33.1-13.8L79.1,52.9a39.1,39.1,0,0,1-3.7-4.4A40.7,40.7,0,1,0,59,109.3l28.4,28.4c1.2,1.2,2.2,2.4,3.3,3.6a19.1,19.1,0,0,0,4.4,4.1l.2.2a9.9,9.9,0,0,0,5.3,2.6l2.1.5a26.3,26.3,0,0,0,4.8.6H493.6a24.2,24.2,0,0,0,4.8-.6l2.2-.5a9.9,9.9,0,0,0,5.2-2.6l.3-.2a24.3,24.3,0,0,0,4.4-4.1l3.2-3.6,28.5-28.4a40.7,40.7,0,0,0,57.3-40.2Z" style="fill:#96b85c;stroke:#507125;stroke-miterlimit:10;stroke-width:3px"/><path d="M42.2,98.2A26.2,26.2,0,1,1,68.4,72.1,26.1,26.1,0,0,1,42.2,98.2Z" style="fill:#dfe590"/><path d="M42.2,80.8a8.7,8.7,0,1,1,8.7-8.7A8.7,8.7,0,0,1,42.2,80.8Z" style="fill:#6c9433"/><path d="M558.5,98.2a26.2,26.2,0,1,1,26.2-26.1A26.1,26.1,0,0,1,558.5,98.2Z" style="fill:#dfe590"/><path d="M558.5,80.8a8.7,8.7,0,1,1,8.7-8.7A8.7,8.7,0,0,1,558.5,80.8Z" style="fill:#6c9433"/><ellipse cx="165.6" cy="72.3" rx="7.6" ry="2.6" style="fill:none;stroke:#6c9433;stroke-miterlimit:10;stroke-width:3px"/><ellipse cx="255.6" cy="72.3" rx="7.6" ry="2.6" style="fill:none;stroke:#6c9433;stroke-miterlimit:10;stroke-width:3px"/><ellipse cx="210.6" cy="57.3" rx="6.7" ry="2.2" style="fill:none;stroke:#6c9433;stroke-miterlimit:10;stroke-width:3px"/><ellipse cx="345.6" cy="72.3" rx="7.6" ry="2.6" style="fill:none;stroke:#6c9433;stroke-miterlimit:10;stroke-width:3px"/><ellipse cx="300.6" cy="57.3" rx="6.7" ry="2.2" style="fill:none;stroke:#6c9433;stroke-miterlimit:10;stroke-width:3px"/><ellipse cx="345.6" cy="72.3" rx="7.6" ry="2.6" style="fill:none;stroke:#6c9433;stroke-miterlimit:10;stroke-width:3px"/><ellipse cx="435.6" cy="72.3" rx="7.6" ry="2.6" style="fill:none;stroke:#6c9433;stroke-miterlimit:10;stroke-width:3px"/><ellipse cx="390.6" cy="57.3" rx="6.7" ry="2.2" style="fill:none;stroke:#6c9433;stroke-miterlimit:10;stroke-width:3px"/><ellipse cx="435.6" cy="72.3" rx="7.6" ry="2.6" style="fill:none;stroke:#6c9433;stroke-miterlimit:10;stroke-width:3px"/></g></g></svg>