<svg xmlns="http://www.w3.org/2000/svg" viewBox="0 0 106.5 118.6"><g style="isolation:isolate"><g id="Layer_2" data-name="Layer 2"><g id="Layer_1-2" data-name="Layer 1"><path d="M36.6,117.1a9.8,9.8,0,0,1-9.8-9.6l-.4-21.1a6.8,6.8,0,0,0-3-5.6L5.9,69.2a9.6,9.6,0,0,1-4.3-9.4,9.9,9.9,0,0,1,6.5-8.1L28,44.9a6.4,6.4,0,0,0,4.2-4,1.4,1.4,0,0,1,1.4-.9h3.3a33.1,33.1,0,0,0,13.5-2.9,32.4,32.4,0,0,0,11.4-8.7,1.4,1.4,0,0,1,1.2-.6h0a1.7,1.7,0,0,1,1.2.6L68,33.6a6.9,6.9,0,0,0,5.5,2.7h.2l21.1-.8h.4a9.7,9.7,0,0,1,8,15.4L91.1,68.1a6.8,6.8,0,0,0-.8,6.3l7.3,19.8a9.7,9.7,0,0,1-1.1,8.9,9.9,9.9,0,0,1-8,4.3,10.5,10.5,0,0,1-3-.5l-20.1-6.2a6.4,6.4,0,0,0-2-.3,7.2,7.2,0,0,0-4.2,1.5L42.7,115A9.8,9.8,0,0,1,36.6,117.1Z" style="fill:#fcd54d"/><path d="M63,29.4l3.8,5.1a8.3,8.3,0,0,0,6.7,3.3h.3l21-.8h.4A8.3,8.3,0,0,1,102,50L89.9,67.3a8,8,0,0,0-1,7.6l6.3,17,1,2.8a8.3,8.3,0,0,1-7.7,11.2,6.9,6.9,0,0,1-2.5-.4L65.8,99.3a10,10,0,0,0-2.4-.4,9.1,9.1,0,0,0-5.2,1.8L41.7,113.8a7.6,7.6,0,0,1-5.1,1.8,8.3,8.3,0,0,1-8.3-8.2v-4.5l-.3-16.5a8.1,8.1,0,0,0-3.7-6.8L6.7,67.9A8.3,8.3,0,0,1,8.6,53.2l19.9-6.9a8.4,8.4,0,0,0,5.1-4.8h3.3a34,34,0,0,0,14.1-3,34.8,34.8,0,0,0,12-9.2m0-3a2.8,2.8,0,0,0-2.3,1.1,32.6,32.6,0,0,1-10.9,8.3,30.3,30.3,0,0,1-12.9,2.8H33.6a2.9,2.9,0,0,0-2.8,1.9,5.4,5.4,0,0,1-3.2,3.1l-20,6.8A11.3,11.3,0,0,0,.1,59.6,11,11,0,0,0,5,70.4L22.6,82.1a5.4,5.4,0,0,1,2.3,4.3l.3,16.6v4.5a11.2,11.2,0,0,0,11.3,11.1,11,11,0,0,0,7-2.4l16.5-13.1a5,5,0,0,1,3.3-1.2,4.5,4.5,0,0,1,1.6.3l20.1,6.2a12.7,12.7,0,0,0,3.4.5,11.2,11.2,0,0,0,9.2-4.9A11.3,11.3,0,0,0,99,93.6l-1-2.7-6.3-17a5.3,5.3,0,0,1,.6-4.9l12.1-17.2A11.3,11.3,0,0,0,95.2,34h-.5l-21,.8h-.2a5.2,5.2,0,0,1-4.3-2.1l-3.8-5.1A3.1,3.1,0,0,0,63,26.4Z" style="fill:#ff8d3d"/><path d="M46.8,79.5a17.9,17.9,0,1,0-7.4-24.3A17.9,17.9,0,0,0,46.8,79.5Z" style="fill:#ddab88;opacity:0.5;mix-blend-mode:multiply"/><path d="M50.1,73.4a11,11,0,1,0-4.6-14.9A10.9,10.9,0,0,0,50.1,73.4Z" style="fill:#ddab88;opacity:0.5;mix-blend-mode:multiply"/><path d="M86,105.5,65.8,99.3a8.3,8.3,0,0,0-7.6,1.4L41.7,113.8a8.3,8.3,0,0,1-13.4-6.4v-4.5c1,3.9,5,4.7,8.1,2.8s5.9-5.3,8.4-8.1c4.6-5,9.9-9.5,17.2-8.3s13.6,6.4,21.2,7.1a13.5,13.5,0,0,0,12.1-4.5l1,2.8A8.3,8.3,0,0,1,86,105.5Z" style="fill:#fcd54d;opacity:0.5;mix-blend-mode:multiply"/><path d="M28.4,30h4.8l3.7-.2a36.8,36.8,0,0,0,12.4-4h0a36.5,36.5,0,0,0,6.5-5.9l.4-.5a10,10,0,0,1,1.4-1.5h0l.5-.4.5-.3a2.8,2.8,0,0,1,2.2-.2,4.4,4.4,0,0,1,1.9,1.7c.8,1.3,1.7,2.5,2.6,3.7a4.8,4.8,0,0,1,.8,1.6,4,4,0,0,1-.9,2.5l-.3.5c-.6.9-1.3,1.7-1.9,2.5a34.8,34.8,0,0,1-12,9.2,34.6,34.6,0,0,1-17.4,2.8H32.5c-1.6-.2-3.5-.7-4.2-2.2a4.7,4.7,0,0,1-.3-1.7c-.1-.6-.1-1.2-.2-1.7a14.7,14.7,0,0,0-1-2.2,3,3,0,0,1-.2-2.3A2.3,2.3,0,0,1,28.4,30Z" style="fill:#efe0cb"/><path d="M58.5,13.9a11.6,11.6,0,0,1,.1,3.2l-.5.3-.5.4h0a10,10,0,0,0-1.4,1.5l-.4.5a36.5,36.5,0,0,1-6.5,5.9h0a36.1,36.1,0,0,1-12.4,4l-3.7.2H28.4a2.3,2.3,0,0,0-1.8,1.2,3,3,0,0,0,.2,2.3,14.7,14.7,0,0,1,1,2.2c.1.5.1,1.1.2,1.7a15.3,15.3,0,0,1-4,2.1,4.9,4.9,0,0,0-3.4-2.7v-.3A50.9,50.9,0,0,0,23.7,24c0-.4.1-.8.1-1.2v-2a32.9,32.9,0,0,1,1-6.8,10.1,10.1,0,0,1,1.1-3.2,5.6,5.6,0,0,1,1.6-2.1c3.3-3,6.1-2,10.4-3.4C40,4.6,42.1,3.5,44.3,3a4.7,4.7,0,0,1,2.5.5H47a16,16,0,0,1,2.5,1.8l1.6,1.4c.9,1,1.5,2.4,2.7,3.1h0c1,.5,2.1.6,3.1,1.2a.1.1,0,0,0,.1.1h0A4.3,4.3,0,0,1,58.5,13.9Z" style="fill:#68c6bf"/><path d="M24,39.5a3.6,3.6,0,0,1,.4,1.1,4.8,4.8,0,1,1-5.6-3.8h1.8A5.1,5.1,0,0,1,24,39.5Z" style="fill:#efe0cb"/><path d="M57,11.3c-4.4,3.7-7.8,8.8-13.1,11.5-3.5,1.8-7.2,1.9-11.1,1.7L23.7,24c0-.4.1-.8.1-1.2v-2l8.2.5c4.5.2,8.6.2,12.4-2.5s6.3-5.9,9.4-8.8c1,.5,2.1.6,3.1,1.2Z" style="fill:#8edbd3"/><path d="M49.5,5.4a36.4,36.4,0,0,1-16.5,8,32.4,32.4,0,0,1-8.2.6,10.1,10.1,0,0,1,1.1-3.2,26.4,26.4,0,0,0,5.6-.4A33.3,33.3,0,0,0,46.8,3.5,13.1,13.1,0,0,1,49.5,5.4Z" style="fill:#8edbd3"/><path d="M29.1,29.6a4.8,4.8,0,0,1-2.8-5.8,4.7,4.7,0,0,0,.2-1.6c-1.2-2.7-1-6.3,1.6-8.1a8.4,8.4,0,0,0-.1,6.6,6.6,6.6,0,0,1,.4,1.1,4.2,4.2,0,0,1-.4,2.5,5.5,5.5,0,0,0,1.1,5.3Z" style="fill:#18a29c"/><path d="M27.4,19.1a87.5,87.5,0,0,0,11.7,5.3,10.3,10.3,0,0,1-11.7-5.3Z" style="fill:#18a29c"/><path d="M28.1,27a14.4,14.4,0,0,1,8.7-1,8.1,8.1,0,0,1-8.7,1Z" style="fill:#18a29c"/><path d="M51.1,7.7a9.4,9.4,0,0,1-3.6,7.9,7.2,7.2,0,0,1-2.7,1.5l1.5-2.5c1.6-2.2,3.1-4.8,4.8-6.9Z" style="fill:#18a29c"/><path d="M44.8,3a5.3,5.3,0,0,1,2,.5H47l.2.2.4.2.3.2.4.2.2.2,1,.8h0l1.6,1.4c.9,1,1.5,2.4,2.7,3.1h0l2,.7,1.1.5H57a4.3,4.3,0,0,1,1.5,2.6,11.6,11.6,0,0,1,.1,3.2,3.3,3.3,0,0,1,1.4-.4l.8.2a4.4,4.4,0,0,1,1.9,1.7c.8,1.3,1.7,2.5,2.6,3.7a4.8,4.8,0,0,1,.8,1.6,4,4,0,0,1-.9,2.5l-.3.5c-.6.9-1.3,1.7-1.9,2.5a34.8,34.8,0,0,1-12,9.2,34,34,0,0,1-14.1,3,18.3,18.3,0,0,1-3.3-.2H32.5c-1.6-.2-3.5-.7-4.2-2.2a4.7,4.7,0,0,1-.3-1.7,15.3,15.3,0,0,1-4,2.1,3.6,3.6,0,0,0-1-1.4,5,5,0,0,1,1,1.4,3.6,3.6,0,0,1,.4,1.1,4.8,4.8,0,0,1-3.8,5.6h-.9A4.7,4.7,0,0,1,15,42.4a4.8,4.8,0,0,1,3.8-5.6h1.8a5.7,5.7,0,0,1,2.2,1.1l.2.2-.2-.2a5.7,5.7,0,0,0-2.2-1.1h0v-.3A50.9,50.9,0,0,0,23.7,24h0c0-.4.1-.8.1-1.2v-2a32.9,32.9,0,0,1,1-6.8h0a10.1,10.1,0,0,1,1.1-3.2h0a5.6,5.6,0,0,1,1.6-2.1c3.3-3,6.1-2,10.4-3.4C40,4.6,42.1,3.5,44.3,3h.5M58.4,17.2c0,.1-.1.1-.2.1h-.3a.2.2,0,0,1-.2.2.1.1,0,0,1-.1.1h0a.1.1,0,0,0,.1-.1.2.2,0,0,0,.2-.2h.3c.1,0,.2,0,.2-.1m-9.1,8.6h0l-1.8.8,1.8-.8h0a36.5,36.5,0,0,0,6.5-5.9l.2-.2-.2.2a36.5,36.5,0,0,1-6.5,5.9h0M26.5,31.9a2,2,0,0,1,.1-.7A2.3,2.3,0,0,1,28.4,30h0a2.3,2.3,0,0,0-1.8,1.2,2,2,0,0,0-.1.7M33.1,30h0m-6.2,3.7a.3.3,0,0,1-.1-.2c0-.1-.1-.3-.1-.4s.1.3.1.4a.3.3,0,0,0,.1.2m1,3.2a4.9,4.9,0,0,0-.1-1.2,3.7,3.7,0,0,0-.5-1.1,3.7,3.7,0,0,1,.5,1.1,4.9,4.9,0,0,1,.1,1.2M44.8,0H43.7a27.6,27.6,0,0,0-4.6,1.5L37,2.4a27.4,27.4,0,0,1-3.7.8,12.6,12.6,0,0,0-7.8,3.3,8.8,8.8,0,0,0-2.2,2.8h-.1a24.9,24.9,0,0,0-1.4,3.9h0a35.4,35.4,0,0,0-.9,7.3v2a4.5,4.5,0,0,1-.1,1.1h0a46.4,46.4,0,0,1-2.3,9.9.1.1,0,0,0-.1.1,7.6,7.6,0,0,0-6.2,9,7.7,7.7,0,0,0,7.6,6.4l1.4-.2a7.7,7.7,0,0,0,6.3-6.5,9.6,9.6,0,0,0,4.7,1.7h1.2a21.7,21.7,0,0,0,3.6.2,37.1,37.1,0,0,0,15.4-3.3,36.3,36.3,0,0,0,13-10,18.9,18.9,0,0,0,2-2.7,1,1,0,0,0,.4-.5A6.6,6.6,0,0,0,69,23.4a6.5,6.5,0,0,0-1.3-2.9l-2.5-3.6A8.1,8.1,0,0,0,61.7,14h-.1a1.3,1.3,0,0,1-.1-.6A7.6,7.6,0,0,0,58.9,9l-.2-.2h0c-.1,0-.1,0-.1-.1h-.1a8.5,8.5,0,0,0-1.7-.8l-.6-.2-.8-.3h-.1l-.8-1a15.5,15.5,0,0,0-1.3-1.7L51.5,3.1l-1.2-.9h-.1c0-.1-.1-.1-.2-.2l-.3-.2h-.2l-.3-.3a.5.5,0,0,1-.4-.2h-.7A8,8,0,0,0,44.8,0Z" style="fill:#5576b4"/></g></g></g></svg>