<svg id="courtain" xmlns="http://www.w3.org/2000/svg" xmlns:xlink="http://www.w3.org/1999/xlink" viewBox="0 0 202.9 652.6"><defs><clipPath id="clip-path"><path d="M164.1,538.6c-.4-58.8-7.4-147.9-11.1-239.8-1.7-44.7-2.9-88.5-3.8-127-.2-33.5-.3-64.6-.4-87.5-.3-58-.3-77.9-.3-80.7V3.4h0c0-.1,0-.1-2-.1,0-.8,0-.2-7.2.1h-18c-25.2-.6-96.4.1-96.4.1H1.5s3.9,132.8,9.1,184.6,13.1,97.7,22.3,134.1S53,385.5,63.4,405.9,83.8,440,93.5,448.7a48.5,48.5,0,0,0,15.3,9.9l9.9,85.2c-4.6,15.9-10.5,32.8-9.4,36.7s8.5,3.7,10.2,5.6-3.7,7.3-8.5,11.6S98.8,605.4,95.7,611s-3.5,13.3.5,15.2,9.7-1.9,17.4-3.6,13.7-1.2,14.4,1v.5c-.3,2.6-7.7,7.5-11.2,10.6s-3.1,4.6,1.8,5.1,8.8,0,16.5,2.4c5.2,1.6,5,4.5,6.8,6.5h0c.9.9,2.2,1.6,4.7,1.8,7.8.8,17.1,2.4,16.7-9.9S164.6,606.8,164.1,538.6Z" style="fill:none"/></clipPath><clipPath id="clip-path-2"><rect x="5.3" y="-59.4" width="178.9" height="684.95" style="fill:none"/></clipPath></defs><g id="r_courtain" data-name="r courtain"><g id="VC" style="opacity:0.699999988079071"><path d="M1.5,3.3s3.9,132.8,9.1,184.6S23.7,285.6,32.9,322,53,385.5,63.4,405.9,83.8,440,93.5,448.7s19.3,12.7,27.6,11.9,15.3-6,17.1-4.1-1.4,11.2-5.1,28.3-7,28.2-11.2,46.6-14,44.1-12.6,49.1,8.5,3.7,10.2,5.6-3.7,7.3-8.5,11.6S98.8,605.4,95.7,611s-3.5,13.3.5,15.2,9.7-1.9,17.4-3.6,14.7-1.2,14.5,1.5-7.7,7.5-11.2,10.6-3.1,4.6,1.8,5.1,8.8,0,16.5,2.4,3.6,7.6,11.5,8.3,17.1,2.4,16.7-9.9,1.2-33.8.7-102c-.4-58.8-7.4-147.9-11.1-239.8S148,118,147.3,72.7s-.7-68.3-.8-69.4,0,.6-24.3,0-97.3,0-97.3,0Z" style="fill:#ed9188;stroke:#e05353;stroke-miterlimit:10;stroke-width:3px;fill-rule:evenodd"/><path d="M119.5,586.1c4.6-43.2,14.1-86.4,18.7-129.6" style="fill:none;stroke:#e05353;stroke-miterlimit:10;stroke-width:3px"/><path d="M128.1,624.1c3.6-56.8,17.9-113.7,8.3-160.5S104,379.9,87.7,326.5s-25.8-123-30.1-174.4S54.5,36.3,55.7,3.3" style="fill:none;stroke:#e05353;stroke-miterlimit:10;stroke-width:3px"/><path d="M142,649.6c-4.6-72.9,16.8-145.7,6.7-202.2s-25.4-96.8-32.4-158.6S110.9,86.6,112.5,3.3" style="fill:none;stroke:#e05353;stroke-miterlimit:10;stroke-width:3px"/><path d="M138.2,456.5c-11.2-11.9-22.5-23.7-35.5-43.9a348.5,348.5,0,0,1-38.5-82.5C53.5,296.5,47,257.9,41.8,218S33,137.1,29.3,96" style="fill:none;stroke:#e05353;stroke-miterlimit:10;stroke-width:3px"/><path d="M149.9,399.8c-.5-126.3-.9-252.5-1.1-315.6s-.3-80.9-.3-80.9h-80c-16,0-16.3-.3-16.6,0a2.1,2.1,0,0,1-1.1,0s-.3,129.4-.1,157.2.3,27.9,2.7,28.2a95.4,95.4,0,0,1,11.1,1.7,68.7,68.7,0,0,1,11,4c3.3,1.6,6.5,3.1,8.9,4.6a14,14,0,0,1,5.1,5.7,12.5,12.5,0,0,1,.9,8.3,28.1,28.1,0,0,1-5,9.9c-2.4,3-5.3,5.4-8.1,8.4a56.1,56.1,0,0,0-6.8,9.2c-1.5,2.4-1.7,3.8-1.7,7.7s.3,10.8,3.6,15.8,9.4,8.1,16.1,12.7,13.9,10.7,19.5,14.5,9.8,5.7,11.8,8.6,2.2,7-.7,11.1-8.8,8.2-12.4,11.4-5.1,5.6-5.8,9.5a25.9,25.9,0,0,0,1.7,14.8c2.4,5.5,7.2,11.1,13.1,16.3s12.9,9.9,18.6,15.3a78.1,78.1,0,0,1,13.2,16c2.9,4.7,4.1,7.9,3.2,10.6s-4.1,4.9-7.2,8.2a47.6,47.6,0,0,0-8.1,11.8,30.5,30.5,0,0,0-2.5,10.3c-.2,2.8-.2,4.9-.1-.4s.3-18.4.4-29.2-.1-19.7-.2-28.5" style="fill:none;stroke:#734a35;stroke-miterlimit:10;stroke-width:3px"/><path d="M100.6,335.5c.6-16.1,1.3-32.2,1.9-48.3" style="fill:none;stroke:#734a35;stroke-miterlimit:10;stroke-width:3px"/><path d="M69.6,247.6c0-18.6-.1-37.4-.2-56.1" style="fill:none;stroke:#734a35;stroke-miterlimit:10;stroke-width:3px"/><path d="M102.5,287.2l-1.9,48a19.5,19.5,0,0,1,.3-3.4c.7-3.9,2.1-6.2,5.8-9.5s9.5-7.3,12.4-11.4,2.9-8.2.7-11.1-6.1-4.7-11.8-8.6C106.3,290.1,104.5,288.7,102.5,287.2Z" style="fill:#ed9188;stroke:#e05353;stroke-miterlimit:10;stroke-width:3px;fill-rule:evenodd"/><path d="M133,377c.1,8.8.3,17.6.2,28.4s-.3,23.9-.4,29.3-.1,3.2.1.4a30.5,30.5,0,0,1,2.5-10.3,47.6,47.6,0,0,1,8.1-11.8c3.1-3.3,6.2-5.5,7.2-8.2s-.3-5.9-3.2-10.6a78.1,78.1,0,0,0-13.2-16L133,377Z" style="fill:#ed9188;stroke:#e05353;stroke-miterlimit:10;stroke-width:3px;fill-rule:evenodd"/><path d="M70.5,240.5a56.1,56.1,0,0,1,6.8-9.2c2.8-3,5.7-5.4,8.1-8.4a28.1,28.1,0,0,0,5-9.9,12.5,12.5,0,0,0-.9-8.3,14,14,0,0,0-5.1-5.7c-2.4-1.5-5.6-3-8.9-4.6a43.9,43.9,0,0,0-6.1-2.5l.2,50.2A5.1,5.1,0,0,1,70.5,240.5Z" style="fill:#ed9188;stroke:#e05353;stroke-miterlimit:10;stroke-width:3px;fill-rule:evenodd"/><path d="M90.6,211.8V3.3" style="fill:none;stroke:#734a35;stroke-miterlimit:10;stroke-width:3px"/><path d="M121.3,305.4V3.3" style="fill:none;stroke:#734a35;stroke-miterlimit:10;stroke-width:3px"/><path d="M121.3,303.6V3.3H90.6V208.1a11.5,11.5,0,0,1,0,3.7c-.1.4-.1.8-.2,1.2a28.1,28.1,0,0,1-5,9.9c-2.4,3-5.3,5.4-8.1,8.4a56.1,56.1,0,0,0-6.8,9.2,5.1,5.1,0,0,0-.9,1.6h0c-.7,1.6-.8,3.1-.8,6.1s.3,10.8,3.6,15.8,9.4,8.1,16.1,12.7c4.7,3.2,9.6,7.2,14,10.5h0l4.6,3.4.9.6c5.7,3.9,9.8,5.7,11.8,8.6A7.5,7.5,0,0,1,121.3,303.6Z" style="fill:#ed9188;stroke:#e05353;stroke-miterlimit:10;stroke-width:3px;fill-rule:evenodd"/><path d="M90.6,208.1V3.3H68.5c-16,0-16.3-.3-16.6,0a2.1,2.1,0,0,1-1.1,0s-.3,129.4-.1,157.2.3,27.9,2.7,28.2a95.4,95.4,0,0,1,11.1,1.7l4.9,1.5c2.2.8,4.2,1.7,6.1,2.5a85.1,85.1,0,0,1,8.9,4.6,14,14,0,0,1,5.1,5.7A13.5,13.5,0,0,1,90.6,208.1Z" style="fill:#ed9188;stroke:#e05353;stroke-miterlimit:10;stroke-width:3px;fill-rule:evenodd"/><path d="M121.4,3.3h27.1c0,.1,0,18,.3,81s.8,189,1.2,252.8.5,65.2.5,66.1.1,1.2-.4-.4a42.3,42.3,0,0,0-4.2-9.5A103.3,103.3,0,0,0,135,379.5a136.7,136.7,0,0,0-11.2-10.3c-4.3-3.8-9.9-8.9-14.2-13.6s-7.4-9-8.6-14a22.2,22.2,0,0,1,1.5-14.8c2.1-4,5.8-6.5,9.6-9.5s7.6-6.7,9-9.7,0-5.4-.4-52.9.1-140.1.4-186.5.2-64.8.2-64.9Z" style="fill:#ed9188;stroke:#e05353;stroke-miterlimit:10;stroke-width:3px;fill-rule:evenodd"/><path d="M52.6,191.1a1.2,1.2,0,0,0,1.2-1.2h0a1.2,1.2,0,1,0-1.3,1.3Z" style="fill:#ed9188;stroke:#e05353;stroke-miterlimit:10;stroke-width:3px;fill-rule:evenodd"/><path d="M53,192.5c-.4-1.1-.5-.9-.6-.4l-.9,2.1-.8,4.3a34.7,34.7,0,0,0-.6,4.5c0,.9.2.8,1.1.8h3.4c.9,0,1.1-.1,1.1-.9a28.4,28.4,0,0,0-.9-4.5c-.5-2.1-1.4-4.7-1.8-5.9Z" style="fill:#ed9188;stroke:#e05353;stroke-miterlimit:10;stroke-width:3px;fill-rule:evenodd"/><path d="M62.7,192.8a1.2,1.2,0,0,0,1.3-1.1h0a1.3,1.3,0,0,0-1.3-1.3h0a1.3,1.3,0,0,0-1.2,1.3A1.2,1.2,0,0,0,62.7,192.8Z" style="fill:#ed9188;stroke:#e05353;stroke-miterlimit:10;stroke-width:3px;fill-rule:evenodd"/><path d="M63.2,194.3c-.5-1.2-.5-1-.7-.5a14.3,14.3,0,0,0-.8,2.2,31,31,0,0,0-.8,4.2,36.2,36.2,0,0,0-.6,4.6c-.1.8.1.8,1.1.8h3.3c.9,0,1.1-.1,1.1-1a21.4,21.4,0,0,0-.8-4.4C64.4,198.1,63.6,195.5,63.2,194.3Z" style="fill:#ed9188;stroke:#e05353;stroke-miterlimit:10;stroke-width:3px;fill-rule:evenodd"/><path d="M84.8,202.5a1.3,1.3,0,1,0-1.3-1.3A1.3,1.3,0,0,0,84.8,202.5Z" style="fill:#ed9188;stroke:#e05353;stroke-miterlimit:10;stroke-width:3px;fill-rule:evenodd"/><path d="M85.2,203.9c-.4-1.2-.5-1-.6-.5a14.3,14.3,0,0,0-.8,2.2c-.3,1.1-.6,2.6-.9,4.3a34.7,34.7,0,0,0-.6,4.5c0,.9.2.8,1.1.8h3.4c.9,0,1.1-.1,1.1-.9a35.8,35.8,0,0,0-.9-4.5c-.5-2.1-1.4-4.7-1.8-5.9Z" style="fill:#ed9188;stroke:#e05353;stroke-miterlimit:10;stroke-width:3px;fill-rule:evenodd"/><path d="M73.8,196.2a1.3,1.3,0,0,0,1.3-1.2,1.3,1.3,0,0,0-1.3-1.3h0a1.2,1.2,0,0,0-1.2,1.2h0A1.2,1.2,0,0,0,73.8,196.2Z" style="fill:#ed9188;stroke:#e05353;stroke-miterlimit:10;stroke-width:3px;fill-rule:evenodd"/><path d="M74.2,197.7c-.4-1.2-.4-1-.6-.5a14.3,14.3,0,0,0-.8,2.2c-.3,1.1-.6,2.6-.9,4.2s-.5,3.6-.6,4.5.2.9,1.1.9h3.4c.9,0,1.1-.1,1.1-1a31.1,31.1,0,0,0-.8-4.4A58,58,0,0,0,74.2,197.7Z" style="fill:#ed9188;stroke:#e05353;stroke-miterlimit:10;stroke-width:3px;fill-rule:evenodd"/><path d="M90.8,215.8a1.2,1.2,0,0,0,1.2-1.2h0a1.2,1.2,0,0,0-1.2-1.2,1.3,1.3,0,0,0-1.3,1.2,1.3,1.3,0,0,0,1.3,1.3Z" style="fill:#ed9188;stroke:#e05353;stroke-miterlimit:10;stroke-width:3px;fill-rule:evenodd"/><path d="M91.2,217.2c-.5-1.2-.5-.9-.7-.5a15.5,15.5,0,0,0-.8,2.3,31,31,0,0,0-.8,4.2c-.3,1.7-.6,3.6-.7,4.5s.2.9,1.2.9h3.4c.9-.1,1-.2,1-1a23.6,23.6,0,0,0-.8-4.5C92.4,221,91.6,218.4,91.2,217.2Z" style="fill:#ed9188;stroke:#e05353;stroke-miterlimit:10;stroke-width:3px;fill-rule:evenodd"/><path d="M73.1,239.4a1.2,1.2,0,0,0,1.3-1.1h0a1.3,1.3,0,0,0-1.3-1.3h0a1.2,1.2,0,0,0-1.2,1.2h0A1.2,1.2,0,0,0,73.1,239.4Z" style="fill:#ed9188;stroke:#e05353;stroke-miterlimit:10;stroke-width:3px;fill-rule:evenodd"/><path d="M73.5,240.9c-.4-1.2-.5-1-.6-.5a14.3,14.3,0,0,0-.8,2.2,31.5,31.5,0,0,0-.9,4.2,34.7,34.7,0,0,0-.6,4.5c0,.9.2.9,1.1.9h3.4c.9-.1,1.1-.2,1-1a23.6,23.6,0,0,0-.8-4.5c-.5-2-1.4-4.7-1.8-5.8Z" style="fill:#ed9188;stroke:#e05353;stroke-miterlimit:10;stroke-width:3px;fill-rule:evenodd"/><path d="M81.3,229.9a1.2,1.2,0,0,0,1.2-1.2h0a1.3,1.3,0,0,0-2.5-.1h0a1.3,1.3,0,0,0,1.3,1.3Z" style="fill:#ed9188;stroke:#e05353;stroke-miterlimit:10;stroke-width:3px;fill-rule:evenodd"/><path d="M81.7,231.3c-.4-1.2-.5-.9-.7-.4a18,18,0,0,0-.8,2.1l-.8,4.3a34.7,34.7,0,0,0-.6,4.5c-.1.9.2.8,1.1.8h3.4c.9,0,1.1-.1,1-.9a23.6,23.6,0,0,0-.8-4.5c-.5-2.1-1.4-4.7-1.8-5.9Z" style="fill:#ed9188;stroke:#e05353;stroke-miterlimit:10;stroke-width:3px;fill-rule:evenodd"/><path d="M69.5,262a1.3,1.3,0,1,0-1.3-1.3,1.3,1.3,0,0,0,1.3,1.3Z" style="fill:#ed9188;stroke:#e05353;stroke-miterlimit:10;stroke-width:3px;fill-rule:evenodd"/><path d="M69.9,263.4c-.5-1.2-.5-1-.7-.5a14.3,14.3,0,0,0-.8,2.2c-.2,1.1-.6,2.6-.8,4.3a34.7,34.7,0,0,0-.6,4.5c-.1.9.2.8,1.1.8h3.3c1,0,1.2-.1,1.1-.9a23.6,23.6,0,0,0-.8-4.5C71.1,267.2,70.3,264.6,69.9,263.4Z" style="fill:#ed9188;stroke:#e05353;stroke-miterlimit:10;stroke-width:3px;fill-rule:evenodd"/><path d="M79.2,272.3a1.3,1.3,0,0,0,1.3-1.2,1.3,1.3,0,0,0-1.3-1.3A1.2,1.2,0,0,0,78,271h0a1.2,1.2,0,0,0,1.2,1.2Z" style="fill:#ed9188;stroke:#e05353;stroke-miterlimit:10;stroke-width:3px;fill-rule:evenodd"/><path d="M79.6,273.7c-.4-1.1-.5-.9-.7-.4s-.4,1.1-.7,2.1-.6,2.7-.9,4.3a34.7,34.7,0,0,0-.6,4.5c0,.9.2.8,1.1.8h3.4c.9,0,1.1,0,1-.9a17.8,17.8,0,0,0-.8-4.5C80.9,277.6,80,274.9,79.6,273.7Z" style="fill:#ed9188;stroke:#e05353;stroke-miterlimit:10;stroke-width:3px;fill-rule:evenodd"/><path d="M90.4,279.7a1.2,1.2,0,0,0,0-2.4h0a1.2,1.2,0,0,0,0,2.4Z" style="fill:#ed9188;stroke:#e05353;stroke-miterlimit:10;stroke-width:3px;fill-rule:evenodd"/><path d="M90.8,281.2c-.5-1.2-.5-.9-.7-.5a14.3,14.3,0,0,0-.8,2.2,29.7,29.7,0,0,0-.8,4.3,33.2,33.2,0,0,0-.6,4.4c-.1,1,.2.9,1.1.9h3.3c.9,0,1.1-.1,1.1-1a21.4,21.4,0,0,0-.8-4.4C92,285,91.2,282.3,90.8,281.2Z" style="fill:#ed9188;stroke:#e05353;stroke-miterlimit:10;stroke-width:3px;fill-rule:evenodd"/><path d="M101.7,288.8a1.3,1.3,0,1,0-1.3-1.3,1.3,1.3,0,0,0,1.3,1.3Z" style="fill:#ed9188;stroke:#e05353;stroke-miterlimit:10;stroke-width:3px;fill-rule:evenodd"/><path d="M102,290.2c-.4-1.2-.4-1-.6-.5a14.3,14.3,0,0,0-.8,2.2c-.3,1.1-.6,2.6-.9,4.3s-.5,3.5-.6,4.5.2.8,1.1.8h3.4c.9,0,1.1-.1,1.1-.9a23.6,23.6,0,0,0-.8-4.5C103.3,294,102.5,291.4,102,290.2Z" style="fill:#ed9188;stroke:#e05353;stroke-miterlimit:10;stroke-width:3px;fill-rule:evenodd"/><path d="M112.4,296.5a1.2,1.2,0,1,0,0-2.4h0a1.2,1.2,0,0,0,0,2.4Z" style="fill:#ed9188;stroke:#e05353;stroke-miterlimit:10;stroke-width:3px;fill-rule:evenodd"/><path d="M112.8,298c-.4-1.2-.4-.9-.6-.5a14.3,14.3,0,0,0-.8,2.2c-.3,1.1-.6,2.6-.9,4.3a35.2,35.2,0,0,0-.6,4.5c0,.9.2.8,1.2.8h3.3c.9,0,1.1-.1,1.1-.9a35.4,35.4,0,0,0-.8-4.5C114.1,301.8,113.3,299.2,112.8,298Z" style="fill:#ed9188;stroke:#e05353;stroke-miterlimit:10;stroke-width:3px;fill-rule:evenodd"/><path d="M119.3,309.2a1.2,1.2,0,0,0,1.2-1.2h0a1.2,1.2,0,0,0-1.2-1.2h0a1.3,1.3,0,0,0-1.3,1.2A1.3,1.3,0,0,0,119.3,309.2Z" style="fill:#ed9188;stroke:#e05353;stroke-miterlimit:10;stroke-width:3px;fill-rule:evenodd"/><path d="M119.7,310.6c-.4-1.2-.5-.9-.7-.5a19.5,19.5,0,0,0-.8,2.2l-.8,4.3a34.7,34.7,0,0,0-.6,4.5c-.1.9.2.8,1.1.8s2.5.1,3.4,0,1.1-.1,1-.9a23.6,23.6,0,0,0-.8-4.5C121,314.4,120.1,311.8,119.7,310.6Z" style="fill:#ed9188;stroke:#e05353;stroke-miterlimit:10;stroke-width:3px;fill-rule:evenodd"/><path d="M109.9,321.8a1.3,1.3,0,0,0,1.3-1.2,1.3,1.3,0,0,0-1.3-1.3,1.2,1.2,0,0,0-1.2,1.2h0a1.2,1.2,0,0,0,1.2,1.2Z" style="fill:#ed9188;stroke:#e05353;stroke-miterlimit:10;stroke-width:3px;fill-rule:evenodd"/><path d="M110.3,323.2c-.4-1.1-.5-.9-.6-.4a18,18,0,0,0-.8,2.1c-.3,1.2-.6,2.7-.9,4.3s-.5,3.6-.6,4.5.2.8,1.1.8h3.4c.9,0,1.1,0,1-.9a17.8,17.8,0,0,0-.8-4.5A57.6,57.6,0,0,0,110.3,323.2Z" style="fill:#ed9188;stroke:#e05353;stroke-miterlimit:10;stroke-width:3px;fill-rule:evenodd"/><path d="M100.7,333.8a1.2,1.2,0,0,0,1.2-1.2h0a1.2,1.2,0,0,0-1.1-1.3h-.1a1.3,1.3,0,0,0-1.3,1.3,1.2,1.2,0,0,0,1.2,1.2Z" style="fill:#ed9188;stroke:#e05353;stroke-miterlimit:10;stroke-width:3px;fill-rule:evenodd"/><path d="M101.1,335.3c-.5-1.2-.5-1-.7-.5a14.3,14.3,0,0,0-.8,2.2,31,31,0,0,0-.8,4.2,35,35,0,0,0-.7,4.5c0,.9.2.9,1.1.9h3.4c.9-.1,1.1-.2,1.1-1a23.6,23.6,0,0,0-.8-4.5c-.6-2-1.4-4.7-1.8-5.8Z" style="fill:#ed9188;stroke:#e05353;stroke-miterlimit:10;stroke-width:3px;fill-rule:evenodd"/><path d="M105,353.1a1.3,1.3,0,0,0,1.3-1.3,1.3,1.3,0,0,0-1.3-1.2,1.3,1.3,0,0,0-1.2,1.2A1.3,1.3,0,0,0,105,353.1Z" style="fill:#ed9188;stroke:#e05353;stroke-miterlimit:10;stroke-width:3px;fill-rule:evenodd"/><path d="M105.4,354.5c-.4-1.2-.5-.9-.6-.4a14.3,14.3,0,0,0-.8,2.2,31.5,31.5,0,0,0-.9,4.2c-.2,1.7-.6,3.6-.6,4.5s.2.9,1.1.9H107c.9-.1,1.1-.2,1.1-1a35.8,35.8,0,0,0-.9-4.5c-.5-2.1-1.4-4.7-1.8-5.9Z" style="fill:#ed9188;stroke:#e05353;stroke-miterlimit:10;stroke-width:3px;fill-rule:evenodd"/><path d="M115.9,362.8a1.3,1.3,0,0,0,1.2-1.2,1.3,1.3,0,0,0-1.2-1.3,1.3,1.3,0,0,0-1.3,1.3A1.3,1.3,0,0,0,115.9,362.8Z" style="fill:#ed9188;stroke:#e05353;stroke-miterlimit:10;stroke-width:3px;fill-rule:evenodd"/><path d="M116.2,364.2c-.4-1.1-.5-.9-.6-.5a15.5,15.5,0,0,0-.8,2.3c-.3,1.1-.6,2.6-.9,4.2s-.5,3.6-.6,4.5.2.9,1.1.9h3.4c.9,0,1.1-.1,1.1-1a31.2,31.2,0,0,0-.9-4.4Q117.3,367.2,116.2,364.2Z" style="fill:#ed9188;stroke:#e05353;stroke-miterlimit:10;stroke-width:3px;fill-rule:evenodd"/><path d="M127,374.1a1.2,1.2,0,0,0,1.3-1.1h0a1.3,1.3,0,1,0-2.6,0,1.2,1.2,0,0,0,1.2,1.2Z" style="fill:#ed9188;stroke:#e05353;stroke-miterlimit:10;stroke-width:3px;fill-rule:evenodd"/><path d="M127.4,375.6c-.4-1.2-.5-1-.7-.5a15.9,15.9,0,0,0-.8,2.2l-.8,4.3a33.2,33.2,0,0,0-.6,4.4c-.1,1,.2.9,1.1.9H129c.9,0,1.1-.1,1-1a21.4,21.4,0,0,0-.8-4.4C128.7,379.4,127.8,376.7,127.4,375.6Z" style="fill:#ed9188;stroke:#e05353;stroke-miterlimit:10;stroke-width:3px;fill-rule:evenodd"/><path d="M147.1,399.8a1.2,1.2,0,0,0,1.2-1.2h0a1.2,1.2,0,0,0-1.2-1.2h0a1.2,1.2,0,0,0-1.3,1.1h0A1.3,1.3,0,0,0,147.1,399.8Z" style="fill:#ed9188;stroke:#e05353;stroke-miterlimit:10;stroke-width:3px;fill-rule:evenodd"/><path d="M147.5,401.2c-.5-1.2-.5-.9-.7-.5a14.3,14.3,0,0,0-.8,2.2c-.3,1.1-.5,2.6-.8,4.3a34.7,34.7,0,0,0-.6,4.5c-.1.9.2.8,1.1.8h3.4c.9,0,1-.1,1-.9a23.6,23.6,0,0,0-.8-4.5c-.5-2.1-1.4-4.7-1.8-5.9Z" style="fill:#ed9188;stroke:#e05353;stroke-miterlimit:10;stroke-width:3px;fill-rule:evenodd"/><path d="M134.9,430.1a1.3,1.3,0,0,0,1.3-1.2,1.3,1.3,0,0,0-1.3-1.3,1.2,1.2,0,0,0-1.2,1.2h0a1.2,1.2,0,0,0,1.2,1.2Z" style="fill:#ed9188;stroke:#e05353;stroke-miterlimit:10;stroke-width:3px;fill-rule:evenodd"/><path d="M135.3,431.5c-.4-1.1-.5-.9-.6-.4a18,18,0,0,0-.8,2.1c-.3,1.1-.6,2.6-.9,4.3s-.5,3.6-.6,4.5.2.8,1.1.8h3.4c.9,0,1.1-.1,1-.9a17.8,17.8,0,0,0-.8-4.5,57.6,57.6,0,0,0-1.8-5.9Z" style="fill:#ed9188;stroke:#e05353;stroke-miterlimit:10;stroke-width:3px;fill-rule:evenodd"/><path d="M137.4,385.5a1.3,1.3,0,1,0-1.3-1.3,1.3,1.3,0,0,0,1.3,1.3Z" style="fill:#ed9188;stroke:#e05353;stroke-miterlimit:10;stroke-width:3px;fill-rule:evenodd"/><path d="M137.8,386.9c-.4-1.2-.4-1-.6-.5a14.3,14.3,0,0,0-.8,2.2c-.3,1.1-.6,2.6-.9,4.3a33.1,33.1,0,0,0-.6,4.5c0,1,.2.8,1.2.8h3.3c.9,0,1.1-.1,1.1-.9a35.4,35.4,0,0,0-.8-4.5C139.1,390.7,138.3,388.1,137.8,386.9Z" style="fill:#ed9188;stroke:#e05353;stroke-miterlimit:10;stroke-width:3px;fill-rule:evenodd"/><path d="M141.4,418.8a1.3,1.3,0,0,0,1.3-1.3,1.2,1.2,0,0,0-1.2-1.2h-.1a1.2,1.2,0,0,0-1.2,1.2h0a1.2,1.2,0,0,0,1.1,1.3Z" style="fill:#ed9188;stroke:#e05353;stroke-miterlimit:10;stroke-width:3px;fill-rule:evenodd"/><path d="M141.8,420.2c-.4-1.2-.5-.9-.6-.5a19.5,19.5,0,0,0-.8,2.2c-.3,1.1-.6,2.6-.9,4.3a34.7,34.7,0,0,0-.6,4.5c0,.9.2.8,1.1.8h3.4c.9,0,1.1-.1,1.1-.9a35.8,35.8,0,0,0-.9-4.5C143.1,424,142.2,421.4,141.8,420.2Z" style="fill:#ed9188;stroke:#e05353;stroke-miterlimit:10;stroke-width:3px;fill-rule:evenodd"/></g><g id="VC-2"><path d="M1.5,3.3s3.9,132.8,9.1,184.6S23.7,285.6,32.9,322,53,385.5,63.4,405.9,83.8,440,93.5,448.7s19.3,12.7,27.6,11.9,15.3-6,17.1-4.1-1.4,11.2-5.1,28.3-7,28.2-11.2,46.6-14,44.1-12.6,49.1,8.5,3.7,10.2,5.6-3.7,7.3-8.5,11.6S98.8,605.4,95.7,611s-3.5,13.3.5,15.2,9.7-1.9,17.4-3.6,14.7-1.2,14.5,1.5-7.7,7.5-11.2,10.6-3.1,4.6,1.8,5.1,8.8,0,16.5,2.4,3.6,7.6,11.5,8.3,17.1,2.4,16.7-9.9,1.2-33.8.7-102c-.4-58.8-7.4-147.9-11.1-239.8S148,118,147.3,72.7s-.7-68.3-.8-69.4,0,.6-24.3,0-97.3,0-97.3,0Z" style="fill:none;stroke:#f99082;stroke-miterlimit:10;stroke-width:3px"/><path d="M119.5,586.1c4.6-43.2,14.1-86.4,18.7-129.6" style="fill:none;stroke:#f99082;stroke-miterlimit:10;stroke-width:3px"/><path d="M128.1,624.1c3.6-56.8,17.9-113.7,8.3-160.5S104,379.9,87.7,326.5s-25.8-123-30.1-174.4S54.5,36.3,55.7,3.3" style="fill:none;stroke:#f99082;stroke-miterlimit:10;stroke-width:3px"/><path d="M142,649.6c-4.6-72.9,16.8-145.7,6.7-202.2s-25.4-96.8-32.4-158.6S110.9,86.6,112.5,3.3" style="fill:none;stroke:#f99082;stroke-miterlimit:10;stroke-width:3px"/><path d="M138.2,456.5c-11.2-11.9-22.5-23.7-35.5-43.9a348.5,348.5,0,0,1-38.5-82.5C53.5,296.5,47,257.9,41.8,218S33,137.1,29.3,96" style="fill:none;stroke:#f99082;stroke-miterlimit:10;stroke-width:3px"/><path d="M149.9,399.8c-.5-126.3-.9-252.5-1.1-315.6s-.3-80.9-.3-80.9h-80c-16,0-16.3-.3-16.6,0a2.1,2.1,0,0,1-1.1,0s-.3,129.4-.1,157.2.3,27.9,2.7,28.2a95.4,95.4,0,0,1,11.1,1.7,68.7,68.7,0,0,1,11,4c3.3,1.6,6.5,3.1,8.9,4.6a14,14,0,0,1,5.1,5.7,12.5,12.5,0,0,1,.9,8.3,28.1,28.1,0,0,1-5,9.9c-2.4,3-5.3,5.4-8.1,8.4a56.1,56.1,0,0,0-6.8,9.2c-1.5,2.4-1.7,3.8-1.7,7.7s.3,10.8,3.6,15.8,9.4,8.1,16.1,12.7,13.9,10.7,19.5,14.5,9.8,5.7,11.8,8.6,2.2,7-.7,11.1-8.8,8.2-12.4,11.4-5.1,5.6-5.8,9.5a25.9,25.9,0,0,0,1.7,14.8c2.4,5.5,7.2,11.1,13.1,16.3s12.9,9.9,18.6,15.3a78.1,78.1,0,0,1,13.2,16c2.9,4.7,4.1,7.9,3.2,10.6s-4.1,4.9-7.2,8.2a47.6,47.6,0,0,0-8.1,11.8,30.5,30.5,0,0,0-2.5,10.3c-.2,2.8-.2,4.9-.1-.4s.3-18.4.4-29.2-.1-19.7-.2-28.5" style="fill:none;stroke:#734a35;stroke-miterlimit:10;stroke-width:3px"/><path d="M100.6,335.5c.6-16.1,1.3-32.2,1.9-48.3" style="fill:none;stroke:#734a35;stroke-miterlimit:10;stroke-width:3px"/><path d="M69.6,247.6c0-18.6-.1-37.4-.2-56.1" style="fill:none;stroke:#734a35;stroke-miterlimit:10;stroke-width:3px"/><path d="M102.5,287.2l-1.9,48a19.5,19.5,0,0,1,.3-3.4c.7-3.9,2.1-6.2,5.8-9.5s9.5-7.3,12.4-11.4,2.9-8.2.7-11.1-6.1-4.7-11.8-8.6C106.3,290.1,104.5,288.7,102.5,287.2Z" style="fill:none;stroke:#f99082;stroke-miterlimit:10;stroke-width:3px"/><path d="M133,377c.1,8.8.3,17.6.2,28.4s-.3,23.9-.4,29.3-.1,3.2.1.4a30.5,30.5,0,0,1,2.5-10.3,47.6,47.6,0,0,1,8.1-11.8c3.1-3.3,6.2-5.5,7.2-8.2s-.3-5.9-3.2-10.6a78.1,78.1,0,0,0-13.2-16L133,377Z" style="fill:none;stroke:#f99082;stroke-miterlimit:10;stroke-width:3px"/><path d="M70.5,240.5a56.1,56.1,0,0,1,6.8-9.2c2.8-3,5.7-5.4,8.1-8.4a28.1,28.1,0,0,0,5-9.9,12.5,12.5,0,0,0-.9-8.3,14,14,0,0,0-5.1-5.7c-2.4-1.5-5.6-3-8.9-4.6a43.9,43.9,0,0,0-6.1-2.5l.2,50.2A5.1,5.1,0,0,1,70.5,240.5Z" style="fill:none;stroke:#f99082;stroke-miterlimit:10;stroke-width:3px"/><path d="M90.6,211.8V3.3" style="fill:none;stroke:#734a35;stroke-miterlimit:10;stroke-width:3px"/><path d="M121.3,305.4V3.3" style="fill:none;stroke:#734a35;stroke-miterlimit:10;stroke-width:3px"/><path d="M121.3,303.6V3.3H90.6V208.1a11.5,11.5,0,0,1,0,3.7c-.1.4-.1.8-.2,1.2a28.1,28.1,0,0,1-5,9.9c-2.4,3-5.3,5.4-8.1,8.4a56.1,56.1,0,0,0-6.8,9.2,5.1,5.1,0,0,0-.9,1.6h0c-.7,1.6-.8,3.1-.8,6.1s.3,10.8,3.6,15.8,9.4,8.1,16.1,12.7c4.7,3.2,9.6,7.2,14,10.5h0l4.6,3.4.9.6c5.7,3.9,9.8,5.7,11.8,8.6A7.5,7.5,0,0,1,121.3,303.6Z" style="fill:none;stroke:#f99082;stroke-miterlimit:10;stroke-width:3px"/><path d="M90.6,208.1V3.3H68.5c-16,0-16.3-.3-16.6,0a2.1,2.1,0,0,1-1.1,0s-.3,129.4-.1,157.2.3,27.9,2.7,28.2a95.4,95.4,0,0,1,11.1,1.7l4.9,1.5c2.2.8,4.2,1.7,6.1,2.5a85.1,85.1,0,0,1,8.9,4.6,14,14,0,0,1,5.1,5.7A13.5,13.5,0,0,1,90.6,208.1Z" style="fill:none;stroke:#f99082;stroke-miterlimit:10;stroke-width:3px"/><path d="M121.4,3.3h27.1c0,.1,0,18,.3,81s.8,189,1.2,252.8.5,65.2.5,66.1.1,1.2-.4-.4a42.3,42.3,0,0,0-4.2-9.5A103.3,103.3,0,0,0,135,379.5a136.7,136.7,0,0,0-11.2-10.3c-4.3-3.8-9.9-8.9-14.2-13.6s-7.4-9-8.6-14a22.2,22.2,0,0,1,1.5-14.8c2.1-4,5.8-6.5,9.6-9.5s7.6-6.7,9-9.7,0-5.4-.4-52.9.1-140.1.4-186.5.2-64.8.2-64.9Z" style="fill:none;stroke:#f99082;stroke-miterlimit:10;stroke-width:3px"/><path d="M52.6,191.1a1.2,1.2,0,0,0,1.2-1.2h0a1.2,1.2,0,1,0-1.3,1.3Z" style="fill:none;stroke:#f99082;stroke-miterlimit:10;stroke-width:3px"/><path d="M53,192.5c-.4-1.1-.5-.9-.6-.4l-.9,2.1-.8,4.3a34.7,34.7,0,0,0-.6,4.5c0,.9.2.8,1.1.8h3.4c.9,0,1.1-.1,1.1-.9a28.4,28.4,0,0,0-.9-4.5c-.5-2.1-1.4-4.7-1.8-5.9Z" style="fill:none;stroke:#f99082;stroke-miterlimit:10;stroke-width:3px"/><path d="M62.7,192.8a1.2,1.2,0,0,0,1.3-1.1h0a1.3,1.3,0,0,0-1.3-1.3h0a1.3,1.3,0,0,0-1.2,1.3A1.2,1.2,0,0,0,62.7,192.8Z" style="fill:none;stroke:#f99082;stroke-miterlimit:10;stroke-width:3px"/><path d="M63.2,194.3c-.5-1.2-.5-1-.7-.5a14.3,14.3,0,0,0-.8,2.2,31,31,0,0,0-.8,4.2,36.2,36.2,0,0,0-.6,4.6c-.1.8.1.8,1.1.8h3.3c.9,0,1.1-.1,1.1-1a21.4,21.4,0,0,0-.8-4.4C64.4,198.1,63.6,195.5,63.2,194.3Z" style="fill:none;stroke:#f99082;stroke-miterlimit:10;stroke-width:3px"/><path d="M84.8,202.5a1.3,1.3,0,1,0-1.3-1.3A1.3,1.3,0,0,0,84.8,202.5Z" style="fill:none;stroke:#f99082;stroke-miterlimit:10;stroke-width:3px"/><path d="M85.2,203.9c-.4-1.2-.5-1-.6-.5a14.3,14.3,0,0,0-.8,2.2c-.3,1.1-.6,2.6-.9,4.3a34.7,34.7,0,0,0-.6,4.5c0,.9.2.8,1.1.8h3.4c.9,0,1.1-.1,1.1-.9a35.8,35.8,0,0,0-.9-4.5c-.5-2.1-1.4-4.7-1.8-5.9Z" style="fill:none;stroke:#f99082;stroke-miterlimit:10;stroke-width:3px"/><path d="M73.8,196.2a1.3,1.3,0,0,0,1.3-1.2,1.3,1.3,0,0,0-1.3-1.3h0a1.2,1.2,0,0,0-1.2,1.2h0A1.2,1.2,0,0,0,73.8,196.2Z" style="fill:none;stroke:#f99082;stroke-miterlimit:10;stroke-width:3px"/><path d="M74.2,197.7c-.4-1.2-.4-1-.6-.5a14.3,14.3,0,0,0-.8,2.2c-.3,1.1-.6,2.6-.9,4.2s-.5,3.6-.6,4.5.2.9,1.1.9h3.4c.9,0,1.1-.1,1.1-1a31.1,31.1,0,0,0-.8-4.4A58,58,0,0,0,74.2,197.7Z" style="fill:none;stroke:#f99082;stroke-miterlimit:10;stroke-width:3px"/><path d="M90.8,215.8a1.2,1.2,0,0,0,1.2-1.2h0a1.2,1.2,0,0,0-1.2-1.2,1.3,1.3,0,0,0-1.3,1.2,1.3,1.3,0,0,0,1.3,1.3Z" style="fill:none;stroke:#f99082;stroke-miterlimit:10;stroke-width:3px"/><path d="M91.2,217.2c-.5-1.2-.5-.9-.7-.5a15.5,15.5,0,0,0-.8,2.3,31,31,0,0,0-.8,4.2c-.3,1.7-.6,3.6-.7,4.5s.2.9,1.2.9h3.4c.9-.1,1-.2,1-1a23.6,23.6,0,0,0-.8-4.5C92.4,221,91.6,218.4,91.2,217.2Z" style="fill:none;stroke:#f99082;stroke-miterlimit:10;stroke-width:3px"/><path d="M73.1,239.4a1.2,1.2,0,0,0,1.3-1.1h0a1.3,1.3,0,0,0-1.3-1.3h0a1.2,1.2,0,0,0-1.2,1.2h0A1.2,1.2,0,0,0,73.1,239.4Z" style="fill:none;stroke:#f99082;stroke-miterlimit:10;stroke-width:3px"/><path d="M73.5,240.9c-.4-1.2-.5-1-.6-.5a14.3,14.3,0,0,0-.8,2.2,31.5,31.5,0,0,0-.9,4.2,34.7,34.7,0,0,0-.6,4.5c0,.9.2.9,1.1.9h3.4c.9-.1,1.1-.2,1-1a23.6,23.6,0,0,0-.8-4.5c-.5-2-1.4-4.7-1.8-5.8Z" style="fill:none;stroke:#f99082;stroke-miterlimit:10;stroke-width:3px"/><path d="M81.3,229.9a1.2,1.2,0,0,0,1.2-1.2h0a1.3,1.3,0,0,0-2.5-.1h0a1.3,1.3,0,0,0,1.3,1.3Z" style="fill:none;stroke:#f99082;stroke-miterlimit:10;stroke-width:3px"/><path d="M81.7,231.3c-.4-1.2-.5-.9-.7-.4a18,18,0,0,0-.8,2.1l-.8,4.3a34.7,34.7,0,0,0-.6,4.5c-.1.9.2.8,1.1.8h3.4c.9,0,1.1-.1,1-.9a23.6,23.6,0,0,0-.8-4.5c-.5-2.1-1.4-4.7-1.8-5.9Z" style="fill:none;stroke:#f99082;stroke-miterlimit:10;stroke-width:3px"/><path d="M69.5,262a1.3,1.3,0,1,0-1.3-1.3,1.3,1.3,0,0,0,1.3,1.3Z" style="fill:none;stroke:#f99082;stroke-miterlimit:10;stroke-width:3px"/><path d="M69.9,263.4c-.5-1.2-.5-1-.7-.5a14.3,14.3,0,0,0-.8,2.2c-.2,1.1-.6,2.6-.8,4.3a34.7,34.7,0,0,0-.6,4.5c-.1.9.2.8,1.1.8h3.3c1,0,1.2-.1,1.1-.9a23.6,23.6,0,0,0-.8-4.5C71.1,267.2,70.3,264.6,69.9,263.4Z" style="fill:none;stroke:#f99082;stroke-miterlimit:10;stroke-width:3px"/><path d="M79.2,272.3a1.3,1.3,0,0,0,1.3-1.2,1.3,1.3,0,0,0-1.3-1.3A1.2,1.2,0,0,0,78,271h0a1.2,1.2,0,0,0,1.2,1.2Z" style="fill:none;stroke:#f99082;stroke-miterlimit:10;stroke-width:3px"/><path d="M79.6,273.7c-.4-1.1-.5-.9-.7-.4s-.4,1.1-.7,2.1-.6,2.7-.9,4.3a34.7,34.7,0,0,0-.6,4.5c0,.9.2.8,1.1.8h3.4c.9,0,1.1,0,1-.9a17.8,17.8,0,0,0-.8-4.5C80.9,277.6,80,274.9,79.6,273.7Z" style="fill:none;stroke:#f99082;stroke-miterlimit:10;stroke-width:3px"/><path d="M90.4,279.7a1.2,1.2,0,0,0,0-2.4h0a1.2,1.2,0,0,0,0,2.4Z" style="fill:none;stroke:#f99082;stroke-miterlimit:10;stroke-width:3px"/><path d="M90.8,281.2c-.5-1.2-.5-.9-.7-.5a14.3,14.3,0,0,0-.8,2.2,29.7,29.7,0,0,0-.8,4.3,33.2,33.2,0,0,0-.6,4.4c-.1,1,.2.9,1.1.9h3.3c.9,0,1.1-.1,1.1-1a21.4,21.4,0,0,0-.8-4.4C92,285,91.2,282.3,90.8,281.2Z" style="fill:none;stroke:#f99082;stroke-miterlimit:10;stroke-width:3px"/><path d="M101.7,288.8a1.3,1.3,0,1,0-1.3-1.3,1.3,1.3,0,0,0,1.3,1.3Z" style="fill:none;stroke:#f99082;stroke-miterlimit:10;stroke-width:3px"/><path d="M102,290.2c-.4-1.2-.4-1-.6-.5a14.3,14.3,0,0,0-.8,2.2c-.3,1.1-.6,2.6-.9,4.3s-.5,3.5-.6,4.5.2.8,1.1.8h3.4c.9,0,1.1-.1,1.1-.9a23.6,23.6,0,0,0-.8-4.5C103.3,294,102.5,291.4,102,290.2Z" style="fill:none;stroke:#f99082;stroke-miterlimit:10;stroke-width:3px"/><path d="M112.4,296.5a1.2,1.2,0,1,0,0-2.4h0a1.2,1.2,0,0,0,0,2.4Z" style="fill:none;stroke:#f99082;stroke-miterlimit:10;stroke-width:3px"/><path d="M112.8,298c-.4-1.2-.4-.9-.6-.5a14.3,14.3,0,0,0-.8,2.2c-.3,1.1-.6,2.6-.9,4.3a35.2,35.2,0,0,0-.6,4.5c0,.9.2.8,1.2.8h3.3c.9,0,1.1-.1,1.1-.9a35.4,35.4,0,0,0-.8-4.5C114.1,301.8,113.3,299.2,112.8,298Z" style="fill:none;stroke:#f99082;stroke-miterlimit:10;stroke-width:3px"/><path d="M119.3,309.2a1.2,1.2,0,0,0,1.2-1.2h0a1.2,1.2,0,0,0-1.2-1.2h0a1.3,1.3,0,0,0-1.3,1.2A1.3,1.3,0,0,0,119.3,309.2Z" style="fill:none;stroke:#f99082;stroke-miterlimit:10;stroke-width:3px"/><path d="M119.7,310.6c-.4-1.2-.5-.9-.7-.5a19.5,19.5,0,0,0-.8,2.2l-.8,4.3a34.7,34.7,0,0,0-.6,4.5c-.1.9.2.8,1.1.8s2.5.1,3.4,0,1.1-.1,1-.9a23.6,23.6,0,0,0-.8-4.5C121,314.4,120.1,311.8,119.7,310.6Z" style="fill:none;stroke:#f99082;stroke-miterlimit:10;stroke-width:3px"/><path d="M109.9,321.8a1.3,1.3,0,0,0,1.3-1.2,1.3,1.3,0,0,0-1.3-1.3,1.2,1.2,0,0,0-1.2,1.2h0a1.2,1.2,0,0,0,1.2,1.2Z" style="fill:none;stroke:#f99082;stroke-miterlimit:10;stroke-width:3px"/><path d="M110.3,323.2c-.4-1.1-.5-.9-.6-.4a18,18,0,0,0-.8,2.1c-.3,1.2-.6,2.7-.9,4.3s-.5,3.6-.6,4.5.2.8,1.1.8h3.4c.9,0,1.1,0,1-.9a17.8,17.8,0,0,0-.8-4.5A57.6,57.6,0,0,0,110.3,323.2Z" style="fill:none;stroke:#f99082;stroke-miterlimit:10;stroke-width:3px"/><path d="M100.7,333.8a1.2,1.2,0,0,0,1.2-1.2h0a1.2,1.2,0,0,0-1.1-1.3h-.1a1.3,1.3,0,0,0-1.3,1.3,1.2,1.2,0,0,0,1.2,1.2Z" style="fill:none;stroke:#f99082;stroke-miterlimit:10;stroke-width:3px"/><path d="M101.1,335.3c-.5-1.2-.5-1-.7-.5a14.3,14.3,0,0,0-.8,2.2,31,31,0,0,0-.8,4.2,35,35,0,0,0-.7,4.5c0,.9.2.9,1.1.9h3.4c.9-.1,1.1-.2,1.1-1a23.6,23.6,0,0,0-.8-4.5c-.6-2-1.4-4.7-1.8-5.8Z" style="fill:none;stroke:#f99082;stroke-miterlimit:10;stroke-width:3px"/><path d="M105,353.1a1.3,1.3,0,0,0,1.3-1.3,1.3,1.3,0,0,0-1.3-1.2,1.3,1.3,0,0,0-1.2,1.2A1.3,1.3,0,0,0,105,353.1Z" style="fill:none;stroke:#f99082;stroke-miterlimit:10;stroke-width:3px"/><path d="M105.4,354.5c-.4-1.2-.5-.9-.6-.4a14.3,14.3,0,0,0-.8,2.2,31.5,31.5,0,0,0-.9,4.2c-.2,1.7-.6,3.6-.6,4.5s.2.9,1.1.9H107c.9-.1,1.1-.2,1.1-1a35.8,35.8,0,0,0-.9-4.5c-.5-2.1-1.4-4.7-1.8-5.9Z" style="fill:none;stroke:#f99082;stroke-miterlimit:10;stroke-width:3px"/><path d="M115.9,362.8a1.3,1.3,0,0,0,1.2-1.2,1.3,1.3,0,0,0-1.2-1.3,1.3,1.3,0,0,0-1.3,1.3A1.3,1.3,0,0,0,115.9,362.8Z" style="fill:none;stroke:#f99082;stroke-miterlimit:10;stroke-width:3px"/><path d="M116.2,364.2c-.4-1.1-.5-.9-.6-.5a15.5,15.5,0,0,0-.8,2.3c-.3,1.1-.6,2.6-.9,4.2s-.5,3.6-.6,4.5.2.9,1.1.9h3.4c.9,0,1.1-.1,1.1-1a31.2,31.2,0,0,0-.9-4.4Q117.3,367.2,116.2,364.2Z" style="fill:none;stroke:#f99082;stroke-miterlimit:10;stroke-width:3px"/><path d="M127,374.1a1.2,1.2,0,0,0,1.3-1.1h0a1.3,1.3,0,1,0-2.6,0,1.2,1.2,0,0,0,1.2,1.2Z" style="fill:none;stroke:#f99082;stroke-miterlimit:10;stroke-width:3px"/><path d="M127.4,375.6c-.4-1.2-.5-1-.7-.5a15.9,15.9,0,0,0-.8,2.2l-.8,4.3a33.2,33.2,0,0,0-.6,4.4c-.1,1,.2.9,1.1.9H129c.9,0,1.1-.1,1-1a21.4,21.4,0,0,0-.8-4.4C128.7,379.4,127.8,376.7,127.4,375.6Z" style="fill:none;stroke:#f99082;stroke-miterlimit:10;stroke-width:3px"/><path d="M147.1,399.8a1.2,1.2,0,0,0,1.2-1.2h0a1.2,1.2,0,0,0-1.2-1.2h0a1.2,1.2,0,0,0-1.3,1.1h0A1.3,1.3,0,0,0,147.1,399.8Z" style="fill:none;stroke:#f99082;stroke-miterlimit:10;stroke-width:3px"/><path d="M147.5,401.2c-.5-1.2-.5-.9-.7-.5a14.3,14.3,0,0,0-.8,2.2c-.3,1.1-.5,2.6-.8,4.3a34.7,34.7,0,0,0-.6,4.5c-.1.9.2.8,1.1.8h3.4c.9,0,1-.1,1-.9a23.6,23.6,0,0,0-.8-4.5c-.5-2.1-1.4-4.7-1.8-5.9Z" style="fill:none;stroke:#f99082;stroke-miterlimit:10;stroke-width:3px"/><path d="M134.9,430.1a1.3,1.3,0,0,0,1.3-1.2,1.3,1.3,0,0,0-1.3-1.3,1.2,1.2,0,0,0-1.2,1.2h0a1.2,1.2,0,0,0,1.2,1.2Z" style="fill:none;stroke:#f99082;stroke-miterlimit:10;stroke-width:3px"/><path d="M135.3,431.5c-.4-1.1-.5-.9-.6-.4a18,18,0,0,0-.8,2.1c-.3,1.1-.6,2.6-.9,4.3s-.5,3.6-.6,4.5.2.8,1.1.8h3.4c.9,0,1.1-.1,1-.9a17.8,17.8,0,0,0-.8-4.5,57.6,57.6,0,0,0-1.8-5.9Z" style="fill:none;stroke:#f99082;stroke-miterlimit:10;stroke-width:3px"/><path d="M137.4,385.5a1.3,1.3,0,1,0-1.3-1.3,1.3,1.3,0,0,0,1.3,1.3Z" style="fill:none;stroke:#f99082;stroke-miterlimit:10;stroke-width:3px"/><path d="M137.8,386.9c-.4-1.2-.4-1-.6-.5a14.3,14.3,0,0,0-.8,2.2c-.3,1.1-.6,2.6-.9,4.3a33.1,33.1,0,0,0-.6,4.5c0,1,.2.8,1.2.8h3.3c.9,0,1.1-.1,1.1-.9a35.4,35.4,0,0,0-.8-4.5C139.1,390.7,138.3,388.1,137.8,386.9Z" style="fill:none;stroke:#f99082;stroke-miterlimit:10;stroke-width:3px"/><path d="M141.4,418.8a1.3,1.3,0,0,0,1.3-1.3,1.2,1.2,0,0,0-1.2-1.2h-.1a1.2,1.2,0,0,0-1.2,1.2h0a1.2,1.2,0,0,0,1.1,1.3Z" style="fill:none;stroke:#f99082;stroke-miterlimit:10;stroke-width:3px"/><path d="M141.8,420.2c-.4-1.2-.5-.9-.6-.5a19.5,19.5,0,0,0-.8,2.2c-.3,1.1-.6,2.6-.9,4.3a34.7,34.7,0,0,0-.6,4.5c0,.9.2.8,1.1.8h3.4c.9,0,1.1-.1,1.1-.9a35.8,35.8,0,0,0-.9-4.5C143.1,424,142.2,421.4,141.8,420.2Z" style="fill:none;stroke:#f99082;stroke-miterlimit:10;stroke-width:3px"/></g><g style="clip-path:url(#clip-path)"><g style="clip-path:url(#clip-path-2)"><circle cx="141.5" cy="17.4" r="1.8" style="fill:#fff"/><circle cx="160" cy="41.5" r="1.8" style="fill:#fff"/><circle cx="199.6" cy="30.2" r="1.8" style="fill:#fff"/><circle cx="191" cy="2.4" r="1.8" style="fill:#fff"/><circle cx="141.5" cy="104" r="1.8" style="fill:#fff"/><circle cx="160" cy="128.1" r="1.8" style="fill:#fff"/><circle cx="172.6" cy="82.1" r="1.8" style="fill:#fff"/><circle cx="201.1" cy="60.7" r="1.8" style="fill:#fff"/><circle cx="199.6" cy="116.8" r="1.8" style="fill:#fff"/><circle cx="191" cy="89" r="1.8" style="fill:#fff"/><circle cx="140.1" cy="73.5" r="1.8" style="fill:#fff"/><circle cx="141.5" cy="190.6" r="1.8" style="fill:#fff"/><circle cx="160" cy="214.7" r="1.8" style="fill:#fff"/><circle cx="172.6" cy="168.7" r="1.8" style="fill:#fff"/><circle cx="201.1" cy="147.3" r="1.8" style="fill:#fff"/><circle cx="199.6" cy="203.4" r="1.8" style="fill:#fff"/><circle cx="191" cy="175.6" r="1.8" style="fill:#fff"/><circle cx="140.1" cy="160.1" r="1.8" style="fill:#fff"/><circle cx="141.5" cy="277.2" r="1.8" style="fill:#fff"/><circle cx="172.6" cy="255.3" r="1.8" style="fill:#fff"/><circle cx="201.1" cy="233.9" r="1.8" style="fill:#fff"/><circle cx="199.6" cy="290" r="1.8" style="fill:#fff"/><circle cx="191" cy="262.2" r="1.8" style="fill:#fff"/><circle cx="140.1" cy="246.7" r="1.8" style="fill:#fff"/><circle cx="141.5" cy="363.8" r="1.8" style="fill:#fff"/><circle cx="140.1" cy="333.3" r="1.8" style="fill:#fff"/><circle cx="113" cy="38.8" r="1.8" style="fill:#fff"/><circle cx="131.4" cy="45.7" r="1.8" style="fill:#fff"/><circle cx="22.3" cy="17.4" r="1.8" style="fill:#fff"/><circle cx="40.9" cy="41.5" r="1.8" style="fill:#fff"/><circle cx="80.5" cy="30.2" r="1.8" style="fill:#fff"/><circle cx="71.8" cy="2.4" r="1.8" style="fill:#fff"/><circle cx="113" cy="125.4" r="1.8" style="fill:#fff"/><circle cx="131.4" cy="132.3" r="1.8" style="fill:#fff"/><circle cx="22.3" cy="104" r="1.8" style="fill:#fff"/><circle cx="40.9" cy="128.1" r="1.8" style="fill:#fff"/><circle cx="131.4" cy="45.7" r="1.8" style="fill:#fff"/><circle cx="53.4" cy="82.1" r="1.8" style="fill:#fff"/><circle cx="81.9" cy="60.7" r="1.8" style="fill:#fff"/><circle cx="80.5" cy="116.8" r="1.8" style="fill:#fff"/><circle cx="71.8" cy="89" r="1.8" style="fill:#fff"/><circle cx="100.4" cy="84.8" r="1.8" style="fill:#fff"/><circle cx="20.9" cy="73.5" r="1.8" style="fill:#fff"/><circle cx="113" cy="212" r="1.8" style="fill:#fff"/><circle cx="131.4" cy="218.9" r="1.8" style="fill:#fff"/><circle cx="22.3" cy="190.6" r="1.8" style="fill:#fff"/><circle cx="40.9" cy="214.7" r="1.8" style="fill:#fff"/><circle cx="131.4" cy="132.3" r="1.8" style="fill:#fff"/><circle cx="53.4" cy="168.7" r="1.8" style="fill:#fff"/><circle cx="81.9" cy="147.3" r="1.8" style="fill:#fff"/><circle cx="80.5" cy="203.4" r="1.8" style="fill:#fff"/><circle cx="71.8" cy="175.6" r="1.8" style="fill:#fff"/><circle cx="100.4" cy="171.4" r="1.8" style="fill:#fff"/><circle cx="20.9" cy="160.1" r="1.8" style="fill:#fff"/><circle cx="113" cy="298.6" r="1.8" style="fill:#fff"/><circle cx="131.4" cy="305.5" r="1.8" style="fill:#fff"/><circle cx="22.3" cy="277.2" r="1.8" style="fill:#fff"/><circle cx="40.9" cy="301.3" r="1.8" style="fill:#fff"/><circle cx="131.4" cy="218.9" r="1.8" style="fill:#fff"/><circle cx="53.4" cy="255.3" r="1.8" style="fill:#fff"/><circle cx="81.9" cy="233.9" r="1.8" style="fill:#fff"/><circle cx="80.5" cy="290" r="1.8" style="fill:#fff"/><circle cx="71.8" cy="262.2" r="1.8" style="fill:#fff"/><circle cx="100.4" cy="258" r="1.8" style="fill:#fff"/><circle cx="20.9" cy="246.7" r="1.8" style="fill:#fff"/><circle cx="113" cy="385.2" r="1.8" style="fill:#fff"/><circle cx="131.4" cy="392.1" r="1.8" style="fill:#fff"/><circle cx="22.3" cy="363.8" r="1.8" style="fill:#fff"/><circle cx="40.9" cy="387.9" r="1.8" style="fill:#fff"/><circle cx="131.4" cy="305.5" r="1.8" style="fill:#fff"/><circle cx="53.4" cy="341.9" r="1.8" style="fill:#fff"/><circle cx="81.9" cy="320.5" r="1.8" style="fill:#fff"/><circle cx="80.5" cy="376.6" r="1.8" style="fill:#fff"/><circle cx="71.8" cy="348.8" r="1.8" style="fill:#fff"/><circle cx="100.4" cy="344.6" r="1.8" style="fill:#fff"/><circle cx="20.9" cy="333.3" r="1.8" style="fill:#fff"/><circle cx="113" cy="471.8" r="1.8" style="fill:#fff"/><circle cx="22.3" cy="450.4" r="1.8" style="fill:#fff"/><circle cx="40.9" cy="474.5" r="1.8" style="fill:#fff"/><circle cx="131.4" cy="392.1" r="1.8" style="fill:#fff"/><circle cx="53.4" cy="428.5" r="1.8" style="fill:#fff"/><circle cx="81.9" cy="407.1" r="1.8" style="fill:#fff"/><circle cx="80.5" cy="463.2" r="1.8" style="fill:#fff"/><circle cx="71.8" cy="435.4" r="1.8" style="fill:#fff"/><circle cx="100.4" cy="431.2" r="1.8" style="fill:#fff"/><circle cx="20.9" cy="419.9" r="1.8" style="fill:#fff"/><circle cx="113" cy="558.4" r="1.8" style="fill:#fff"/><circle cx="22.3" cy="537" r="1.8" style="fill:#fff"/><circle cx="40.9" cy="561.1" r="1.8" style="fill:#fff"/><circle cx="53.4" cy="515.1" r="1.8" style="fill:#fff"/><circle cx="81.9" cy="493.7" r="1.8" style="fill:#fff"/><circle cx="80.5" cy="549.8" r="1.8" style="fill:#fff"/><circle cx="71.8" cy="522" r="1.8" style="fill:#fff"/><circle cx="100.4" cy="517.8" r="1.8" style="fill:#fff"/><circle cx="20.9" cy="506.5" r="1.8" style="fill:#fff"/><circle cx="53.4" cy="601.7" r="1.8" style="fill:#fff"/><circle cx="81.9" cy="580.3" r="1.8" style="fill:#fff"/><circle cx="71.8" cy="608.6" r="1.8" style="fill:#fff"/><circle cx="100.4" cy="604.4" r="1.8" style="fill:#fff"/><circle cx="20.9" cy="593.1" r="1.8" style="fill:#fff"/><circle cx="12.2" cy="45.7" r="1.8" style="fill:#fff"/><circle cx="12.2" cy="132.3" r="1.8" style="fill:#fff"/><circle cx="12.2" cy="45.7" r="1.8" style="fill:#fff"/><circle cx="12.2" cy="218.9" r="1.8" style="fill:#fff"/><circle cx="12.2" cy="132.3" r="1.8" style="fill:#fff"/><circle cx="12.2" cy="305.5" r="1.8" style="fill:#fff"/><circle cx="12.2" cy="218.9" r="1.8" style="fill:#fff"/><circle cx="12.2" cy="392.1" r="1.8" style="fill:#fff"/><circle cx="12.2" cy="305.5" r="1.8" style="fill:#fff"/><circle cx="12.2" cy="478.7" r="1.8" style="fill:#fff"/><circle cx="12.2" cy="392.1" r="1.8" style="fill:#fff"/><circle cx="12.2" cy="565.3" r="1.8" style="fill:#fff"/><circle cx="12.2" cy="478.7" r="1.8" style="fill:#fff"/><circle cx="12.2" cy="565.3" r="1.8" style="fill:#fff"/></g></g></g></svg>