<svg xmlns="http://www.w3.org/2000/svg" viewBox="0 0 111.7 109.2"><g style="isolation:isolate"><g id="Layer_2" data-name="Layer 2"><g id="Layer_1-2" data-name="Layer 1"><g id="pillow"><g id="VC"><path d="M7.5,83.6A28.6,28.6,0,0,0,20,91.9c6.4,2.3,14.5,3,24.3,1.3,35.1-1.3,58.3-51.5,46.8-77.1A22.1,22.1,0,0,0,85.4,8h0c-4.1-3.7-9.7-6.1-17-6.5C34.9,3.2,5.3,32.7,1.9,61.4a49,49,0,0,0-.4,5.4A24.1,24.1,0,0,0,7.5,83.6Z" style="fill:#eef9e3;stroke:#96b85c;stroke-miterlimit:10;stroke-width:3px"/><path d="M7.5,83.6c7.8,10.5,19.7,17.5,23.5,19.6l.3.2.4.2h.5c6.9,3.5,16.3,5,28.2,3C95.7,105.5,119,54.7,107,29.2h-.1a15.1,15.1,0,0,0-1.1-2.2,28.6,28.6,0,0,0-2.1-2.9c-3-3.9-8.5-9.6-18.3-16a22.1,22.1,0,0,1,5.7,8.1c11.5,25.6-11.7,75.8-46.8,77.1-9.8,1.7-17.9,1-24.3-1.3A28.6,28.6,0,0,1,7.5,83.6Z" style="fill:#dcf2c7;stroke:#96b85c;stroke-miterlimit:10;stroke-width:3px"/><path d="M95.4,20.6c5.1,17.2-4.9,40.7-15.4,54.2C68,90.1,48.7,99.4,29.2,98.1c9.7,2,20,.5,29.3-3.3C77.4,87.2,90.4,69.2,95.7,50c2.5-9.5,3.8-20.2-.3-29.4Z" style="fill:#b9e48e"/><path d="M1.7,63.3a31.2,31.2,0,0,0,4,6.2c16,18,44.3,10.7,60.8-2.2S92,31.9,88.9,10.4c7.7,5.4,12.2,10.2,14.8,13.6a28.6,28.6,0,0,1,2.1,2.9,15.1,15.1,0,0,1,1.1,2.2h.1c12,25.5-11.3,76.3-46.6,77.6-11.9,2-21.3.5-28.2-3h-.5l-.4-.2-.3-.2c-3.8-2.1-15.7-9.1-23.5-19.6a24.1,24.1,0,0,1-6-16.8C1.5,65.7,1.6,64.5,1.7,63.3Z" style="fill:#96b85c;opacity:0.29;mix-blend-mode:multiply"/><path d="M7.5,83.6A28.6,28.6,0,0,0,20,91.9c6.4,2.3,14.5,3,24.3,1.3,35.1-1.3,58.3-51.5,46.8-77.1A22.1,22.1,0,0,0,85.4,8h0c-4.1-3.7-9.7-6.1-17-6.5C34.9,3.2,5.3,32.7,1.9,61.4a49,49,0,0,0-.4,5.4A24.1,24.1,0,0,0,7.5,83.6Z" style="fill:none;stroke:#96b85c;stroke-miterlimit:10;stroke-width:3px"/><path d="M107,29.2h-.1a15.1,15.1,0,0,0-1.1-2.2,28.6,28.6,0,0,0-2.1-2.9l-.5-.7-.2-.2-.4-.5-.3-.3-.4-.5-.3-.4-.4-.4-.4-.4-.4-.5-.4-.3-.5-.6-.4-.3-.7-.8-.5-.4-.7-.7-.5-.4-.6-.5c-.1-.2-.3-.3-.5-.5l-.6-.5-.6-.5a1.8,1.8,0,0,0-.7-.5l-.6-.5-.7-.6-.6-.5-.8-.6-.6-.4-1.5-1.1h0L85.4,8h0c-4.1-3.7-9.7-6.1-17-6.5C34.9,3.2,5.3,32.7,1.9,61.4a12.3,12.3,0,0,0-.2,1.9h0c0,.5-.1,1-.1,1.4s-.1,1.4-.1,2.1a24.1,24.1,0,0,0,6,16.8c7.8,10.5,19.7,17.5,23.5,19.6l.3.2.4.2h.5c6.9,3.5,16.3,5,28.2,3C95.7,105.5,119,54.7,107,29.2Z" style="fill:none;stroke:#6c9433;stroke-miterlimit:10;stroke-width:3px"/></g><path d="M40.5,50.5a14.2,14.2,0,0,1,5.3-10.1c3.9-3.1,9.5-2.9,12.1,1.7,4.3,7.5-3.8,18.7-12.3,15.9a6.9,6.9,0,0,1-4.4-3.9A7.3,7.3,0,0,1,40.5,50.5Z" style="fill:#b9e48e"/><path d="M56.8,35.4a273.1,273.1,0,0,1,16-22.7,29.9,29.9,0,0,0-16,22.7Z" style="fill:#b9e48e"/><path d="M60.8,36.5a36.2,36.2,0,0,0,14.3-6.4,15,15,0,0,0-14.3,6.4Z" style="fill:#b9e48e"/><path d="M39.3,60.3c-4.5,2.4-7.4,7.2-8.5,12.1a13.9,13.9,0,0,0-.3,5A46.4,46.4,0,0,0,33,73.2c2-4.1,4.6-8.7,6.3-12.9Z" style="fill:#b9e48e"/><path d="M41.1,41.2A12.6,12.6,0,0,0,29.3,31.1,70.8,70.8,0,0,0,41.1,41.2Z" style="fill:#b9e48e"/><path d="M38.9,42.1a9.7,9.7,0,0,0-10.5-5,15.6,15.6,0,0,0,10.5,5Z" style="fill:#b9e48e"/><path d="M57.5,57.5a2.9,2.9,0,0,1,1.3,1.1,23.9,23.9,0,0,0,2.7,4.3,14.8,14.8,0,0,0,5.7,4.5c-.4-3.1-6.1-11.7-9.7-9.9Z" style="fill:#b9e48e"/><path d="M47.3,35.6a3.8,3.8,0,0,0,4.1-4.4,3.7,3.7,0,0,0-4.1,4.4Z" style="fill:#b9e48e"/></g></g></g></g></svg>