<svg xmlns="http://www.w3.org/2000/svg" viewBox="0 0 338.3 251"><g id="Layer_2" data-name="Layer 2"><g id="Layer_1-2" data-name="Layer 1"><path d="M329.4,7.5a9.9,9.9,0,0,0-9.2-6H18a9.9,9.9,0,0,0-9.1,6L1.5,24.3v5A3.5,3.5,0,0,0,5,32.8H333.2a3.5,3.5,0,0,0,3.6-3.5v-5Z" style="fill:#eee8fb;stroke:#a8662f;stroke-miterlimit:10;stroke-width:3px"/><g id="VC"><rect x="93.9" y="109.5" width="148.8" height="129" style="fill:#a7bfee"/><rect x="93.9" y="119.5" width="148.8" height="106.77" style="fill:#5576b4;stroke:#335394;stroke-miterlimit:10;stroke-width:3px"/><path d="M316.2,30.4V239.2H243.1V194c0-39.1-32.4-70.8-72.4-70.8h-3c-39.9,0-72.3,31.7-72.3,70.8v45.2H22.2V30.4Z" style="fill:#ddd1f7"/><path d="M281,212H243.9a2.7,2.7,0,0,0-2.7,2.7v21.1a2.7,2.7,0,0,0,2.7,2.7H281a2.7,2.7,0,0,0,2.7-2.7V214.7A2.7,2.7,0,0,0,281,212Z" style="fill:#baa2ee"/><path d="M283.7,196.7v-.8a111.8,111.8,0,0,0-.9-12.9c-.2-1.8-1.6-3.1-3-2.9L243,185.7c-1.4.2-2.5,1.3-2.3,2.4.3,2.7.4,5.4.5,8.2v10.3a2.7,2.7,0,0,0,2.7,2.7H281a2.7,2.7,0,0,0,2.7-2.7v-9.9Z" style="fill:#baa2ee"/><path d="M242.7,183.6l36.6-6.6c1.4-.2,2.3-1.9,1.9-3.7l-.7-3.4-.4-1.6-.5-1.7h0a116.2,116.2,0,0,0-6.5-17.9,3,3,0,0,0-3.8-1.8L236,163.5a2.5,2.5,0,0,0-1.4,3.1,81.8,81.8,0,0,1,5.1,15.4C239.9,183.1,241.2,183.8,242.7,183.6Z" style="fill:#baa2ee"/><path d="M267.8,144.1a2.9,2.9,0,0,0,.7-4.2l-1.7-2.9-1.9-2.9h.1a114.8,114.8,0,0,0-11.7-15.1c-1.3-1.3-3.2-1.5-4.2-.5l-26.6,26c-1,1-1.2,2.6-.4,3.4a72.3,72.3,0,0,1,9.6,13.1c.6,1,2.1,1.2,3.4.6Z" style="fill:#baa2ee"/><path d="M246.2,112.2l-2.5-2.3-1.7-1.4-.9-.7h0a118.5,118.5,0,0,0-15.8-10.7c-1.6-1-3.5-.6-4.1.7l-17.3,32.9a2.5,2.5,0,0,0,.6,3.4,71.7,71.7,0,0,1,9.9,6.7l.8.7,2.5,2.1a2.3,2.3,0,0,0,3.3-.5l25.8-26.7A3,3,0,0,0,246.2,112.2Z" style="fill:#baa2ee"/><path d="M218.3,94.3a3.7,3.7,0,0,0-1.8-1.7l-3.2-1.4-3.1-1.3h0a116.4,116.4,0,0,0-18.3-5.4c-1.8-.3-3.5.6-3.7,2.1l-6.3,36.6c-.2,1.4.5,2.8,1.6,3a64.5,64.5,0,0,1,15.4,5,2,2,0,0,0,1.7-.1,3.2,3.2,0,0,0,1.4-1.4l16.3-33.4A2.2,2.2,0,0,0,218.3,94.3Z" style="fill:#baa2ee"/><path d="M182.1,83.1l-3.2-.3-3.2-.2h-.3l-6.2-.2-6.1.2h-.3l-3.3.2-3.2.3a3,3,0,0,0-2.9,3.1l5.2,36.8a2.4,2.4,0,0,0,2.5,2.3l2.1-.2h12l2.2.2c1.1.2,2.2-.9,2.4-2.3L185,86.2A3,3,0,0,0,182.1,83.1Z" style="fill:#baa2ee"/><path d="M150.3,86.7c-.3-1.5-1.9-2.4-3.8-2.1a113,113,0,0,0-18.6,5.5l.3-.2L125,91.2l-3.2,1.4a4.2,4.2,0,0,0-1.8,1.7,2.6,2.6,0,0,0,0,2.1l16.3,33.4a4.7,4.7,0,0,0,1.4,1.4l.9.2h.9a64.5,64.5,0,0,1,15.4-5,2.4,2.4,0,0,0,1.6-3Z" style="fill:#baa2ee"/><path d="M117.3,97.8a2.9,2.9,0,0,0-4.2-.7l-1.4.8-3.7,2.3-.8.4A111.7,111.7,0,0,0,96,108.9a39,39,0,0,0-3.8,3.3,3,3,0,0,0-.6,4.2l25.8,26.7a2.5,2.5,0,0,0,3.4.5l2.5-2.2a74,74,0,0,1,7-5.1l.4-.3,3.3-1.9a2.8,2.8,0,0,0,.6-3.4Z" style="fill:#baa2ee"/><path d="M89.4,118.6a3,3,0,0,0-4.2.5,100,100,0,0,0-11.7,15.1h0L71.6,137c-.6,1-1.1,2-1.7,2.9s-.6,3.5.7,4.2l32.8,17.6c1.3.6,2.8.4,3.3-.6a68.3,68.3,0,0,1,9.7-13.1c.8-.8.5-2.4-.5-3.4Z" style="fill:#baa2ee"/><path d="M102.4,163.5,69.2,146.9a3.1,3.1,0,0,0-3.9,1.8,116.2,116.2,0,0,0-6.8,19,2.2,2.2,0,0,1,.2-1.1l-.5,1.7-.4,1.6-.8,3.4c-.3,1.8.6,3.5,2,3.7l36.6,6.6h1.1a2.3,2.3,0,0,0,2.1-1.6,69.6,69.6,0,0,1,5.1-15.4A2.7,2.7,0,0,0,102.4,163.5Z" style="fill:#baa2ee"/><path d="M95.4,185.7l-36.8-5.6c-1.4-.2-2.8,1.1-3,2.9a111.7,111.7,0,0,0-.8,12.9v10.7h0a2.7,2.7,0,0,0,2.7,2.7H94.6a2.7,2.7,0,0,0,2.6-2.7h0V196.3a73.6,73.6,0,0,1,.6-8.2C97.9,187,96.8,185.9,95.4,185.7Z" style="fill:#baa2ee"/><path d="M94.6,212H57.4a2.7,2.7,0,0,0-2.7,2.7v21.1a2.7,2.7,0,0,0,2.7,2.7H94.6a2.7,2.7,0,0,0,2.6-2.7V214.7A2.7,2.7,0,0,0,94.6,212Z" style="fill:#baa2ee"/><path d="M281,212a2.7,2.7,0,0,1,2.7,2.7v21.1a2.7,2.7,0,0,1-2.7,2.7H243.9a2.7,2.7,0,0,1-2.7-2.7V214.7a2.7,2.7,0,0,1,2.7-2.7H281m0-3H243.9a5.6,5.6,0,0,0-5.7,5.7v21.1a5.7,5.7,0,0,0,5.7,5.7H281a5.7,5.7,0,0,0,5.7-5.7V214.7A5.6,5.6,0,0,0,281,209Z" style="fill:#a184e6"/><path d="M280.1,180.1a3.1,3.1,0,0,1,2.7,2.9,111.8,111.8,0,0,1,.9,12.9v10.7a2.7,2.7,0,0,1-2.7,2.7H243.9a2.7,2.7,0,0,1-2.7-2.7V196.3c-.1-2.8-.2-5.5-.5-8.2-.2-1.1.9-2.2,2.3-2.4l36.8-5.6h.3m0-3h-.8l-36.7,5.5c-3.1.5-5.3,3-4.9,5.8s.4,4.7.5,7.8v10.3a5.6,5.6,0,0,0,5.7,5.7H281a5.6,5.6,0,0,0,5.7-5.7V195.9a126.5,126.5,0,0,0-.9-13.2c-.4-3.2-2.8-5.6-5.7-5.6Z" style="fill:#a184e6"/><path d="M270.3,146.7a3.2,3.2,0,0,1,2.8,2,116.2,116.2,0,0,1,6.5,17.9h0l.5,1.7.4,1.6.7,3.4c.4,1.8-.5,3.5-1.9,3.7l-36.6,6.6h-.6a2.3,2.3,0,0,1-2.4-1.6,81.8,81.8,0,0,0-5.1-15.4,2.5,2.5,0,0,1,1.4-3.1l33.3-16.6,1-.2m9.3,19.9h0m-9.3-22.9a6,6,0,0,0-2.4.5l-33.2,16.7a5.3,5.3,0,0,0-2.9,6.9h0a65.1,65.1,0,0,1,4.9,14.7,5.3,5.3,0,0,0,5.4,4h1.1l36.6-6.5a5.9,5.9,0,0,0,3.5-2.3,6.7,6.7,0,0,0,.9-5h0l-.8-3.3-.4-1.7h0l-.5-1.6h0a114.2,114.2,0,0,0-6.7-18.3,6.2,6.2,0,0,0-5.5-3.8Z" style="fill:#a184e6"/><path d="M250.7,118a4,4,0,0,1,2.6,1.1A114.8,114.8,0,0,1,265,134.2h-.1l1.9,2.9,1.7,2.9a2.9,2.9,0,0,1-.7,4.2l-32.7,17.6a4,4,0,0,1-1.5.3,2.2,2.2,0,0,1-1.9-.9,72.3,72.3,0,0,0-9.6-13.1c-.8-.8-.6-2.4.4-3.4l26.6-26a2.3,2.3,0,0,1,1.6-.6m14.2,16.1h0M250.7,115h0a5,5,0,0,0-3.7,1.5l-26.6,26a5.5,5.5,0,0,0-.5,7.6,63.2,63.2,0,0,1,9.2,12.5,5.2,5.2,0,0,0,4.5,2.4,5.9,5.9,0,0,0,2.9-.7l32.7-17.6a4.9,4.9,0,0,0,2.6-3.2,6.6,6.6,0,0,0-.7-5.1l-.5-.9a23.9,23.9,0,0,0-1.3-2.1l-1.8-2.9h0a109.6,109.6,0,0,0-12.1-15.4,6.2,6.2,0,0,0-4.7-2.1Z" style="fill:#a184e6"/><path d="M223.5,96.6a3.1,3.1,0,0,1,1.8.5,118.5,118.5,0,0,1,15.8,10.7h0l.9.7,1.7,1.4,2.5,2.3a3,3,0,0,1,.6,4.2L221,143.1a3.2,3.2,0,0,1-2.1,1,1.7,1.7,0,0,1-1.2-.5l-2.5-2.1-.8-.7a71.7,71.7,0,0,0-9.9-6.7,2.5,2.5,0,0,1-.6-3.4l17.3-32.9a2.5,2.5,0,0,1,2.3-1.2m0-3a5.6,5.6,0,0,0-5,2.8l-17.3,32.9c-1.4,2.8-.7,5.9,1.7,7.3h.1a75.2,75.2,0,0,1,9.5,6.4h.1l.4.4.2.2,2.4,2a5.1,5.1,0,0,0,3.3,1.3,6.1,6.1,0,0,0,4.3-1.9L249,118.4a5,5,0,0,0,1.4-3.8,6.4,6.4,0,0,0-2.1-4.6h-.1l-2.6-2.2a6.9,6.9,0,0,0-1.3-1.1l-.4-.4-.3-.3-.6-.4c0-.1-.1-.1-.1-.2h-.1a115,115,0,0,0-16-10.8,6.6,6.6,0,0,0-3.3-.9Z" style="fill:#a184e6"/><path d="M191.1,84.6h.8A116.4,116.4,0,0,1,210.2,90h0l3.1,1.3,3.2,1.4a3.7,3.7,0,0,1,1.8,1.7,2.2,2.2,0,0,1,0,2.1L202,129.8a3.2,3.2,0,0,1-1.4,1.4l-1,.2h-.7a64.5,64.5,0,0,0-15.4-5c-1.1-.2-1.8-1.6-1.6-3l6.3-36.6a2.7,2.7,0,0,1,2.9-2.1m19.1,5.3h0m-19.1-8.3h0a5.7,5.7,0,0,0-5.9,4.6l-6.3,36.6a5.4,5.4,0,0,0,4.1,6.4,70.1,70.1,0,0,1,14.7,4.8,4.3,4.3,0,0,0,1.9.4,6.9,6.9,0,0,0,2.4-.5,6.6,6.6,0,0,0,2.7-2.8L221,97.7a5.4,5.4,0,0,0,0-4.8,6.5,6.5,0,0,0-3.3-3l-1-.5-2.2-1-3.2-1.2h0a108.6,108.6,0,0,0-18.8-5.5Z" style="fill:#a184e6"/><path d="M169.2,82.4l6.2.2h.3l3.2.2,3.2.3a3,3,0,0,1,2.9,3.1L179.8,123a2.5,2.5,0,0,1-2.2,2.3h-.2l-2.2-.2h-12l-2.1.2h-.2a2.6,2.6,0,0,1-2.3-2.3l-5.2-36.8a3,3,0,0,1,2.9-3.1l3.2-.3,3.3-.2h.3l6.1-.2m6.1.1h0m-12.2,0h0m6.1-3.1h-1.5l-4.7.2h-.5l-3.2.2H159l-3.1.3a7,7,0,0,0-4.4,2.5,5.4,5.4,0,0,0-1.1,4l5.3,36.8a5.5,5.5,0,0,0,5.2,4.9h16.7a5.5,5.5,0,0,0,5.2-4.9L188,86.6a5.4,5.4,0,0,0-1.1-4,7,7,0,0,0-4.4-2.5l-3.1-.3h-.3l-3.2-.2h-.4l-4.8-.2h-1.5Z" style="fill:#a184e6"/><path d="M147.3,84.6a2.8,2.8,0,0,1,3,2.1l6.2,36.6a2.4,2.4,0,0,1-1.6,3,64.5,64.5,0,0,0-15.4,5h-.9l-.9-.2a4.7,4.7,0,0,1-1.4-1.4L120,96.4a2.6,2.6,0,0,1,0-2.1,4.2,4.2,0,0,1,1.8-1.7l3.2-1.4,3.2-1.3-.3.2a113,113,0,0,1,18.6-5.5h.8m-19.1,5.3h0m19.1-8.3H146a116.3,116.3,0,0,0-18.9,5.5H127l-3.1,1.2-2.3,1-1,.5a6.5,6.5,0,0,0-3.3,3,5.7,5.7,0,0,0,0,4.8l16.3,33.4a6.9,6.9,0,0,0,2.8,2.8,4.6,4.6,0,0,0,2.1.5h.3a4.5,4.5,0,0,0,2-.4,66.5,66.5,0,0,1,14.7-4.8,5.4,5.4,0,0,0,4-6.4l-6.3-36.7a5.7,5.7,0,0,0-5.9-4.5Z" style="fill:#a184e6"/><path d="M114.9,96.6a2.7,2.7,0,0,1,2.4,1.2l17.3,32.9a2.8,2.8,0,0,1-.6,3.4l-3.3,1.9-.4.3a74,74,0,0,0-7,5.1l-2.5,2.2a2.1,2.1,0,0,1-1.3.5,3.2,3.2,0,0,1-2.1-1L91.6,116.4a3,3,0,0,1,.6-4.2,39,39,0,0,1,3.8-3.3,111.7,111.7,0,0,1,11.2-8.3l.8-.4,3.7-2.3,1.4-.8a3.1,3.1,0,0,1,1.8-.5m0-3a6.6,6.6,0,0,0-3.3.9l-1.4.8-3.8,2.3-.4.2-.4.3a106.7,106.7,0,0,0-11.5,8.5c-1.3,1-2.6,2.2-3.9,3.4h-.1a6.4,6.4,0,0,0-2.1,4.6,5.6,5.6,0,0,0,1.5,3.9l25.8,26.7a5.9,5.9,0,0,0,4.2,1.9,4.9,4.9,0,0,0,3.3-1.3l2.4-2a64.8,64.8,0,0,1,6.7-5h0l.5-.3,3-1.8h.1c2.4-1.4,3.1-4.5,1.7-7.2l-17.3-33a5.6,5.6,0,0,0-5-2.8Z" style="fill:#a184e6"/><path d="M87.7,118a2.7,2.7,0,0,1,1.7.6l26.5,26c1,1,1.3,2.6.5,3.4a68.3,68.3,0,0,0-9.7,13.1,1.9,1.9,0,0,1-1.8.9,4,4,0,0,1-1.5-.3L70.6,144.1c-1.3-.7-1.6-2.6-.7-4.2S71,138,71.6,137l1.9-2.9h0a100,100,0,0,1,11.7-15.1,3.8,3.8,0,0,1,2.5-1.1M73.5,134.1h0M87.7,115a6.4,6.4,0,0,0-4.7,2.1,109.1,109.1,0,0,0-12,15.4h0l-1.9,2.9a22.5,22.5,0,0,0-1.2,2.1l-.6.9a6.6,6.6,0,0,0-.7,5.1,4.9,4.9,0,0,0,2.6,3.2L102,164.3a5.9,5.9,0,0,0,2.9.7,5,5,0,0,0,4.4-2.4,77.2,77.2,0,0,1,9.2-12.6c2-2,1.8-5.3-.5-7.5l-26.5-26a5.2,5.2,0,0,0-3.8-1.5Z" style="fill:#a184e6"/><path d="M68.2,146.7l1,.2,33.2,16.6a2.7,2.7,0,0,1,1.5,3.1A69.6,69.6,0,0,0,98.8,182a2.3,2.3,0,0,1-2.1,1.6H95.6L59,177c-1.4-.2-2.3-1.9-2-3.7l.8-3.4.4-1.6.4-1.6a3.4,3.4,0,0,0-.1,1,116.2,116.2,0,0,1,6.8-19,3.3,3.3,0,0,1,2.9-2m-9.5,19.9h0m9.5-22.9a6.2,6.2,0,0,0-5.6,3.8,124.7,124.7,0,0,0-6.7,18.3h-.2l-.4,1.5h0l-.4,1.6-.8,3.4h0a6.8,6.8,0,0,0,.9,5,5.9,5.9,0,0,0,3.5,2.3l36.6,6.5h2a5.2,5.2,0,0,0,4.6-4,68.6,68.6,0,0,1,4.9-14.7h0a5.4,5.4,0,0,0-2.8-6.9L70.5,144.2a5.9,5.9,0,0,0-2.3-.5Z" style="fill:#a184e6"/><path d="M58.3,180.1h.3l36.8,5.6c1.4.2,2.5,1.3,2.4,2.4a73.6,73.6,0,0,0-.6,8.2v10.3h0a2.7,2.7,0,0,1-2.6,2.7H57.4a2.7,2.7,0,0,1-2.7-2.7h0V195.9a111.7,111.7,0,0,1,.8-12.9,3.1,3.1,0,0,1,2.7-2.9m0-3c-2.8,0-5.3,2.4-5.7,5.6a105.2,105.2,0,0,0-.8,13.2v.8h0v9.9a5.8,5.8,0,0,0,5.7,5.8H94.6a5.7,5.7,0,0,0,5.6-5.7V196.4a78.8,78.8,0,0,1,.5-7.9c.4-2.8-1.7-5.3-4.8-5.8l-36.8-5.5Z" style="fill:#a184e6"/><path d="M94.6,212a2.7,2.7,0,0,1,2.6,2.7v21.1a2.7,2.7,0,0,1-2.6,2.7H57.4a2.7,2.7,0,0,1-2.7-2.7V214.7a2.7,2.7,0,0,1,2.7-2.7H94.6m0-3H57.4a5.7,5.7,0,0,0-5.7,5.7v21.1a5.8,5.8,0,0,0,5.7,5.7H94.6a5.7,5.7,0,0,0,5.6-5.7V214.7a5.6,5.6,0,0,0-5.6-5.7Z" style="fill:#a184e6"/><path d="M21.8,58.7c2.2.3,6.1-1.1,8.3-1.7a26.7,26.7,0,0,0,4.2-1.5l1.4-.7c2-1.2,2.4-5.4,2.5-8.5V44.2c0-3.4-.2-5.4-1.3-6.6a1.5,1.5,0,0,0-.6-.5h-.1a6.2,6.2,0,0,0-2.3-.8L32.5,36l-3.3-.4-1.1-.2H25.8l-1,.2h-.9l-.7.2a6.6,6.6,0,0,0-2.6,1.4,6.7,6.7,0,0,0-1.2,2c0,.3-.1.6-.1,1v3.6c-.1,2.9,0,5.8.1,8.6S19.1,58.5,21.8,58.7Z" style="fill:#eee8fb"/><path d="M44.7,132v-2.2c-.2-4.2-.4-6.7-1.9-8.2s-2.7-1.7-5.4-2h-.2l-5.3-.5H29l-2.4.4h-.2l-1,.3a8.9,8.9,0,0,0-3.1,1.9,6.4,6.4,0,0,0-1.5,2.5,4.9,4.9,0,0,0-.1,1.2c0,1.6.1,3.1.1,4.7,0,3.6.2,7.3.4,10.8s-.2,7.5,3.2,7.7,7.6-1.6,10.4-2.4a38.2,38.2,0,0,0,5.3-2l1.7-1c2.5-1.5,2.9-6.9,2.9-10.7h0Z" style="fill:#eee8fb"/><path d="M52.4,164.2h0a.5.5,0,0,0-.2-.4l-.3-.6-.3-.3-.6-.4-.3-.2-1.2-.2c-3.4-.1-6.8.6-10.1.6s-7.9-.1-11.9-1.7l-1-.3H24.8c-2.5,1-3.9,5.1-4.5,8.9h0v.3c0,.5-.1,1-.1,1.5a.4.4,0,0,0-.1.3v3.4c.1.4.1.8.2,1.1l.3.3,2.6.5,1,.3,1.6.4,1.2.3,1.4.5,1.2.5,2.2.9c3.2,1.6,5.4,2.3,9,1.9s5.2-2.3,7.7-3.7,3.9-1.9,4.4-4.2a28.9,28.9,0,0,0-.1-8.8A2.7,2.7,0,0,0,52.4,164.2Z" style="fill:#eee8fb"/><path d="M231.9,53v.3a28,28,0,0,0,0,4.1v.3a10.6,10.6,0,0,0,.4,1.9h0a10.2,10.2,0,0,0,1,2.1c3.8,4.5,12.8,2.2,16.5-2.2a6.8,6.8,0,0,0,1.6-3.7c.1-2.5.7-7.6.3-12.3h0v-.3c0-.4-.1-.8-.1-1.2a2,2,0,0,1-.1-.7,5.2,5.2,0,0,1-.2-1.1c-.1-.3-.1-.5-.2-.8l-.3-.9a6.4,6.4,0,0,0-.2-.7l-.4-.9-.3-.6-.5-.7-.4-.5-.7-.6-.4-.3-.9-.5-.4-.2-1.7-.2-2.6-.2h-5.7a6.9,6.9,0,0,0-2,.3h-.3a4.8,4.8,0,0,0-3,2.1c-2.1,3.7,1,12.1.7,15.6C232,51.8,231.9,52.4,231.9,53Z" style="fill:#eee8fb"/><path d="M251.7,73.2a8.5,8.5,0,0,0-.6-1.7l-.6-1.1c-.1-.1-.2-.3-.4-.4l-.5-.6-.5-.3-.6-.4a1,1,0,0,0-.5-.4l-.7-.3-.6-.2-.7-.3-.6-.2-.9-.2H244l-1.4-.3c-10.3-2.1-21.5-1.1-31.5,2l-1,.3-.4.2-.8.2-.4.2-.8.3-.5.3-.9.3-.5.3-.8.4-.5.2-.8.5-.3.2-1.1.8h-.1l-.8.7h0c-1.5,1.7-1.4,3.6,2.6,5.6,5.5,2.6,13.2,2.6,19.1,2.3,3.6-.1,7.1-.7,10.7-.7s9.3.4,13.6-.2S252.4,77,251.7,73.2Z" style="fill:#eee8fb"/><path d="M255.7,71.9c2.1,3,8.3,2.7,11.6,3.2a85.8,85.8,0,0,0,18.3.8h1.7c2.9.5,5.5,1.4,8.4,1.3s8.1-.9,12.2-.9a17.9,17.9,0,0,0,4.8-.4c.1.2.2.2.4.2l1.1-.6,1.1-.4a1.3,1.3,0,0,0,.6-.7,6.1,6.1,0,0,0,2.6-5.9c-.3-3.1-1.7-5.7-2.6-8.6-.2-.5-.3-.9-.5-1.3s-1.1-3.6-1.7-5.4a11.9,11.9,0,0,0-1.6-3.2H312a2.3,2.3,0,0,0-.7-.7h-.1l-.7-.5h-.2l-.9-.3h-.1l-1-.2h-6c-5.1-.2-9.2,1.2-14.1,2h-.9a22.8,22.8,0,0,0-4.4.5c-2.9.3-5.9.5-8.8.9a58.6,58.6,0,0,1-14.5-.3l-1.7-.2h-.3a4.4,4.4,0,0,0-3,.9c-.2.1-.2.2-.3.4a.9.9,0,0,0-.3.6c0,4.1.2,7.7.5,11.8C254.6,66.8,254.2,69.9,255.7,71.9Z" style="fill:#eee8fb"/><path d="M50.8,224.4a1.9,1.9,0,0,0,.1-.8c.1-.6.1-1.2.2-1.9v-.8a26.1,26.1,0,0,0,0-2.8v-.2c0-.9-.1-1.8-.1-2.8a2.8,2.8,0,0,1-.1-.9l-.3-2.2a2.8,2.8,0,0,0-.1-.9,25.4,25.4,0,0,0-.4-2.9c-1-5.5-2.5-10.3-4.1-12.6s-6-2.3-8.7-3.8-2-1.9-4-1.6l-1.5.4-.4.2-1.2.6-.6.4-1.2.7-.7.5-.6.4h0a25.1,25.1,0,0,0-6.6,6.3c-1.2,2.1-.8,2.6-.3,4.8s.8,3.6,1.3,5.4c-.1,5.7.1,11.4.5,17,2.6,4.6,9.4,6.2,14.5,6.7l5.5.2a30.5,30.5,0,0,0,5.3-2,4.4,4.4,0,0,0,1.5-1.2,10.6,10.6,0,0,0,1.6-3.7h0a.4.4,0,0,0,.1-.3C50.6,225.8,50.7,225.2,50.8,224.4Z" style="fill:#eee8fb"/><path d="M74.4,65.6c8.6.6,16.8,0,25.4-.3,3.7-.1,7.9.2,9.6-2.1a2.7,2.7,0,0,0,.7-1.4l-.6-1.7c-1.7-3.7-4.4-7.3-9.3-8.5l-1.8.2a21,21,0,0,0-7.9.6,51.6,51.6,0,0,0-12.9,2.8c-3.5,1-6.7,2.4-8.4,4.3a.3.3,0,0,1,.1.2C66.7,62.3,67.3,65.2,74.4,65.6Z" style="fill:#eee8fb"/><path d="M112.1,55.5a33.8,33.8,0,0,0,1.3,4.2c1.5,4.7,3.9,4.1,8.8,4.3s7.1-.9,10.9-1.5,7.4-.7,11-1.1a42.8,42.8,0,0,1,11.3.2c1.5.2,2.5.4,3.8-.5s.2-.2.2-.3a.5.5,0,0,0,.3-.5c0-3.2-.1-6-.3-9.1s.2-4.3-.9-5.8a4.2,4.2,0,0,0-2.2-1.4h-.2l-1.4-.4h-.2a25.2,25.2,0,0,0-3.7-.5h-1.4a67,67,0,0,0-14.2-.7h-1.3c-2.2-.4-4.2-1.1-6.5-1s-6.3.6-9.4.7-4.3-.3-5.7.9h-.2a.1.1,0,0,0-.1.1h0l-.3.3a4.7,4.7,0,0,0-2,4.6c.2,2.3,1.3,4.4,2,6.7A4.2,4.2,0,0,0,112.1,55.5Z" style="fill:#eee8fb"/><path d="M125.2,66.8a78.4,78.4,0,0,0-13.7,0c-3.9.5-7.8.1-11.5,1.1a1.1,1.1,0,0,0-.7.9v.7a.8.8,0,0,0-.2.4A5.8,5.8,0,0,0,98,73.4c-.4,1.7-.3,3.3.6,3.5h0a4.7,4.7,0,0,0,2.9,2.6c2,.5,4.3-.2,6.4-.4h.6a89.6,89.6,0,0,0,11.5.4,38.6,38.6,0,0,0,9.1-.8,48.7,48.7,0,0,0,6.6-.4c.3,0,.5-.5.6-.8.2-2.5.3-6.9-1.8-8.7S127.8,67,125.2,66.8Z" style="fill:#eee8fb"/><path d="M286.1,134.9l2.3.4,1,.2,2.6.6,3,.5a110.3,110.3,0,0,0,11.5-.1h1.1a10.8,10.8,0,0,0,7.7-4.1h0v-.2a13.7,13.7,0,0,0,1.3-2c0-.1.1-.3.1-.4a20.4,20.4,0,0,0,.9-2.2v-.2a22.7,22.7,0,0,0,.6-2.5v-.5a24.5,24.5,0,0,0,.2-2.7h.1a41.7,41.7,0,0,0-.6-7.1c-.9-4.8-.4-7-4.3-8.9h0L312,105c-6.3-2.2-11.9-5.7-18.9-5.8-3.6-.1-7.9,1-11.4,1.9l-1.5.4-1.4.4h-.3l-1.4.6h-.2l-1.1.8a.1.1,0,0,0-.1.1h0l-.3.2a5.1,5.1,0,0,0-.8,3.7c-.7,2.6.3,7.2.3,8.9-.2,4.9-1.5,10.6-.2,15.5s4.1,2.7,8.3,2.8l2,.3Z" style="fill:#eee8fb"/><path d="M318.3,230.6h0v-.4c0-.4-.1-.9-.1-1.3a7.1,7.1,0,0,1-.1-1.4c-.2-5.3-1.3-10.7-1.1-16v-.6a46.1,46.1,0,0,0-.2-5.3c0-1.9.1-4.6-.6-6.1a1.8,1.8,0,0,0-.5-.7l-.3-.2-.4-.2h0c-1.6-.7-4.3.1-5.7.7-3,1.4-4.4,4.9-4.9,7.8a48.4,48.4,0,0,1-2.3,8.5c-1,2.6-1.5,5.2-2.7,7.7-2.4,5.4,0,7.8,4.5,10.2a47.6,47.6,0,0,0,7.1,3.3h0l.5.2a7.5,7.5,0,0,0,2.9.4h1.9a3.6,3.6,0,0,0,1.7-2.4c.1-.1.1-.2.2-.2h-.1A14.3,14.3,0,0,0,318.3,230.6Z" style="fill:#eee8fb"/><path d="M316.2,82.1l-1.6-.9-.7-.2-1.4-.5h-.8l-.6-.2h-2.2a56.1,56.1,0,0,1-5.8.1c-2.4-.2-4.9-1-7.4-.6a1.1,1.1,0,0,0-.7.3h-.3a1.7,1.7,0,0,0-.6.6.5.5,0,0,0-.2.4l-.2.3-.3.7v.3l-.6,2.2V85c0,.2-.1.3-.1.5h0c0,.7-.1,1.4-.1,2.1a11.1,11.1,0,0,0,.4,3.9v.2h0a1.4,1.4,0,0,0,.2.6c0,.1.1.1.1.2a6.9,6.9,0,0,0,5.8,4.1h.1c6.4,1.9,16.5.9,19.7-4.6S319.6,84,316.2,82.1Z" style="fill:#eee8fb"/><path d="M315.7,173.7l-1.2-.8-.5-.2-1-.5-.6-.2h-2c-1.4-.1-2.9.3-4.3.1s-3.5-1.1-5.3-.6c-.2,0-.3.1-.5.3s-.1,0-.2.2a.9.9,0,0,0-.4.6.5.5,0,0,0-.2.4l-.2.3a2.5,2.5,0,0,1-.2.7.4.4,0,0,1-.1.3c-.1.6-.2,1.4-.3,2.2a.9.9,0,0,0-.1.5v.5h0a14.8,14.8,0,0,0-.1,2.1,11.4,11.4,0,0,0,.3,3.9,2.4,2.4,0,0,0,.2.8v.2a5.6,5.6,0,0,0,4.2,4.1h.1c4.6,1.9,11.9.9,14.2-4.6S318.1,175.7,315.7,173.7Z" style="fill:#eee8fb"/><path d="M196.6,45.9l-1.5-.8-.7-.3-1.3-.4-.8-.2h-2.6c-1.8-.1-3.7.3-5.5.1s-4.6-1.1-6.9-.7l-.7.3h-.3l-.5.6a.8.8,0,0,0-.2.4c-.1.1-.2.2-.2.3l-.3.7c0,.1-.1.2-.1.3a13.2,13.2,0,0,0-.5,2.3v.4a1.1,1.1,0,0,0-.1.5h0a13.4,13.4,0,0,0-.1,2.1,13.9,13.9,0,0,0,.3,3.8c.1.1.1.1.1.2h0c.1.2.1.4.2.6v.2a6.5,6.5,0,0,0,5.5,4.1.1.1,0,0,0,.1.1c6,1.8,15.5.8,18.5-4.7S199.7,47.9,196.6,45.9Z" style="fill:#eee8fb"/><path d="M66,123.5a3.6,3.6,0,0,0-1.2-.8l-.5-.3-1-.5h-.6l-.4-.2H60.7a29.5,29.5,0,0,1-4.2.1c-1.7-.2-3.6-1-5.3-.6a.9.9,0,0,0-.6.3s-.1,0-.2.2a1.5,1.5,0,0,0-.4.6c-.1.1-.1.2-.2.4s-.1.2-.1.3a1.4,1.4,0,0,0-.2.7.4.4,0,0,0-.1.3,14.3,14.3,0,0,0-.4,2.2.9.9,0,0,1-.1.5v.5h0c0,.7-.1,1.4-.1,2.1a14.7,14.7,0,0,0,.3,3.9c.1.3.1.5.2.8s.1.1.1.2c.9,2.5,2.4,3.8,4.2,4.1h.1c4.6,1.9,11.9.9,14.2-4.6S68.4,125.4,66,123.5Z" style="fill:#eee8fb"/><path d="M40.2,114.8c3.6-.4,7.1-1.2,10.7-1.5s9.2-.2,13.5-1.1,4.7-4,3.7-7.8a6.5,6.5,0,0,0-2.6-3.9h0c-3.6-4.1-13.4-1.9-18.3-2.6-2.6-.5-5.2,0-7.7.3h-4c-4.5-.4-14-7.6-16.4-1.9s.4,10.7.4,16.3S35.8,115.3,40.2,114.8Z" style="fill:#eee8fb"/><path d="M75,69h-.1l-1.3-.5h-.4a18,18,0,0,0-2.2-.6l-.8-.2-1.8-.3h-.6l-2.3-.3h-.6L63,66.7H60.5c-10.8-.9-22.1-2-33-1H26.1c-2.4.4-3.9,1-4.3,2.5a1.4,1.4,0,0,0-.2.7c-.3,5.5-3.6,14.4-.7,19.6,1.3,2.2,3.3,2.9,5.6,3.4,4.7,1.2,10.7,1.4,15.7,1.5s11.7-1.6,17.6-1.9,10.9.6,16.3.7,5.8-.5,6.7-4.7-.4-11.9-3.2-15.2A12.7,12.7,0,0,0,75,69Z" style="fill:#eee8fb"/><path d="M317.3,142.2h-.1l-.8-.5-.3-.2-1.1-.3a35.4,35.4,0,0,0-8.6-.9c-3.3-.1-6.5,1-9.8,1.1s-6-.3-9-.4a3.1,3.1,0,0,0-2.8.8h0l-.3.5h-.1a1.4,1.4,0,0,1-.2.6h0c-.1.2-.1.5-.2.7v.2h0c-.5,2.6.3,7.4,1.8,9.5s7.4,3.3,10.6,3.6c5.9.5,12.2,1.2,18.2.6,1.8-.1,2.8-.5,3.1-1.6a.9.9,0,0,0,.1-.5c.2-3.4,2-9,.4-12.3A3.9,3.9,0,0,0,317.3,142.2Z" style="fill:#eee8fb"/><path d="M177.2,64.3h-.1l-.8-.5h-.2l-1.1-.4a35.7,35.7,0,0,0-8.7-.9c-3.3,0-6.4,1-9.7,1.2s-6-.4-9-.5h-2l-.4.2c0,.1,0,.1-.1.1l-.3.3h-.1a.5.5,0,0,0-.2.4.1.1,0,0,0-.1.1c-.1.2-.2.3-.2.5v.2a2.5,2.5,0,0,1-.2.7h0c-.5,2.6.2,7.4,1.8,9.6s7.3,3.2,10.5,3.5c6,.6,12.2,1.3,18.2.7,1.8-.2,2.9-.6,3.2-1.7v-.4c.1-3.5,2-9.1.3-12.4A3.9,3.9,0,0,0,177.2,64.3Z" style="fill:#eee8fb"/><path d="M288.6,96.6l1.2-.9c1.1-1.3,1.3-4.6.7-7.9a22.9,22.9,0,0,0-.7-2.8,16.9,16.9,0,0,0-1.1-2.7l-.3-.6-.2-.2a7.6,7.6,0,0,0-1.1-1.4H287l-.4-.3h-.2l-.3-.2h-1.9c-4.1.9-7.2,1.8-11.5,1.8H261c-2.8,0-7.5-.4-10.1.7h-.3c-2.9,1.4-3.4,3.5-4,6.4a6.4,6.4,0,0,0-.2.7c-.6,3.2-1.8,7.2,2,8.6,2,.7,4.4-.3,6.4-.6,3.9-.7,8-.4,12-.4h12.4C281.8,96.7,286,97.9,288.6,96.6Z" style="fill:#eee8fb"/><path d="M316.2,30.4V61c.9,2.5,2,4.9,2.3,7.6a6.3,6.3,0,0,1-2.3,5.7V82h0c3.4,1.9,5.3,5.3,2.7,9.9a9,9,0,0,1-2.7,2.8v12.7c1.2,1.6,1.2,3.6,1.8,7a41.7,41.7,0,0,1,.6,7.1h-.1a24.5,24.5,0,0,1-.2,2.7v.5a22.7,22.7,0,0,1-.6,2.5v.2a20.4,20.4,0,0,1-.9,2.2c0,.1-.1.3-.1.4l-.5.8v10.6h.2l.8.5h.1a3.9,3.9,0,0,1,.8,1c1.6,3.3-.2,8.9-.4,12.3a.9.9,0,0,1-.1.5c-.1.7-.6,1.1-1.4,1.3v16.9c2.1,2.1,3.2,5.3,1.4,9.5a7.4,7.4,0,0,1-1.4,2.2v13.6c.7,1.5.6,4.2.6,6.1a46.1,46.1,0,0,1,.2,5.3v.6c-.2,5.3.9,10.7,1.1,16a7.1,7.1,0,0,0,.1,1.4c0,.4.1.9.1,1.3v.4h0a14.3,14.3,0,0,1-.1,3.6h.1c-.1,0-.1.1-.2.2a3.6,3.6,0,0,1-1.7,2.4h-.2v2.4H243.1v-.9h-.4v.3H95.4v.7H22.2v-12l-.2-.3c-.4-5.6-.6-11.3-.5-17-.5-1.8-.9-3.6-1.3-5.4s-.9-2.7.3-4.8a13.1,13.1,0,0,1,1.7-2.2V177.1l-1.7-.3-.3-.3c-.1-.3-.1-.7-.2-1.1V172a.4.4,0,0,1,.1-.3c0-.5.1-1,.1-1.5v-.3h0a21,21,0,0,1,1.9-6.3V147.5c-1-1.4-.9-3.9-1-6.6s-.4-7.2-.4-10.8c0-1.6-.1-3.1-.1-4.7a4.9,4.9,0,0,1,.1-1.2,7.2,7.2,0,0,1,1.4-2.4v-6.6c-1.6-.5-2.7-1.3-2.7-2.7,0-5.6-2.4-11.6-.4-16.3A3.3,3.3,0,0,1,22.2,94V90a5.3,5.3,0,0,1-1.3-1.6c-2.9-5.2.4-14.1.7-19.6a1.4,1.4,0,0,1,.2-.7,2,2,0,0,1,.4-.8V58.7h-.4c-2.7-.2-2.3-3.1-2.4-6.2s-.2-5.7-.1-8.6V40.3c0-.4.1-.7.1-1a6.7,6.7,0,0,1,1.2-2l1.6-1.1V30.4h294M242.7,212.3l.4-.2v-2.9l-.4-.2v3.3M319.2,27.4H19.2v7.2l-.8.7A12.7,12.7,0,0,0,16.6,38l-.2.6v.6c0,.3-.1.6-.1,1v3.7c-.1,3,0,6,.1,8.7v1.2c0,2.1.1,5.7,2.8,7.3v5.3a.8.8,0,0,1-.2.5,5.8,5.8,0,0,0-.4,1.8,41.6,41.6,0,0,1-.8,5.2c-1,5.4-2.1,11.4.5,16l.9,1.3v.6A6.1,6.1,0,0,0,16.3,95c-1.6,3.8-1,7.9-.4,11.9a38.2,38.2,0,0,1,.6,5.6,5.2,5.2,0,0,0,2.7,4.6v3.6A10.1,10.1,0,0,0,18,123l-.2.6v.6a4.9,4.9,0,0,0-.1,1.2c0,1.6.1,3.1.1,4.7,0,3.8.2,7.5.4,11v1.4a16.6,16.6,0,0,0,1,5.9v10.3l-.2-.5-1.7,11.3v.2a11,11,0,0,0-.2,1.8h0v2.4h0v1.4h0a.4.4,0,0,0,.1.3,6.3,6.3,0,0,0,.2,1.6,3.5,3.5,0,0,0,1.9,2.2v16.9a10.2,10.2,0,0,0-1.3,1.8,6.6,6.6,0,0,0-.8,6.1c.1.3.1.6.2.9l.3,1.4.9,3.7c0,5.5.1,11.2.5,16.8v15.1H98.4v-.7H240.1v.7h79.1v-3.8a7.5,7.5,0,0,0,1.8-3.2l-2.6-.7v-.3l2.8.6a15.5,15.5,0,0,0,.3-3.3h0v-1.4h0c0-.5-.1-1-.1-1.4a6.2,6.2,0,0,1-.1-1.3c-.1-2.1-.3-4.3-.6-6.4a72.9,72.9,0,0,1-.5-9.2h.1V211a51.5,51.5,0,0,0-.2-5.5v-.7a17.6,17.6,0,0,0-.7-6.1V186.9a7.2,7.2,0,0,0,1.2-2.1c1.8-4.3,1.4-8.5-1.2-11.7V159a5.2,5.2,0,0,0,1.3-2,5.9,5.9,0,0,0,.2-1.3c.1-.9.3-2,.5-3.3.5-3.4,1.2-7.4-.4-10.5l-.2-.3v-.4l-1.4-1.3h-.1v-8.2l.2-.3c0-.1.1-.2.1-.4h.1a11.4,11.4,0,0,0,.9-2.6c.1,0,.1-.1.1-.2a11.4,11.4,0,0,0,.6-2.9,4.3,4.3,0,0,1,.1-.5c.1-1,.2-2,.2-2.9h0a41.4,41.4,0,0,0-.5-7.8,20.7,20.7,0,0,1-.4-2.2,13.7,13.7,0,0,0-1.4-5.1V96.2a9.7,9.7,0,0,0,2.3-2.7c2.8-4.9,1.9-9.8-2.3-13v-5a8.6,8.6,0,0,0,2.2-7.2,24.3,24.3,0,0,0-1.8-6.8l-.4-1V27.4Z" style="fill:#baa2ee"/></g><path d="M14.1,249.5v-3c0-4.4,3.3-8,7.3-8H316.7c4,0,7.2,3.6,7.2,8v3Z" style="fill:#75411a"/><path d="M145.7,249.5c-.3-4.2-.1-8.3.7-10.1l.6-.7,1.9-1.2,2.1.2c1.9.3,4.4,1.2,5.3,3.9s.2,5.2.2,7.9Z" style="fill:#ce894a;stroke:#a8662f;stroke-miterlimit:10;stroke-width:3px"/><path d="M295.6,249.5c-1.3-2.2-.8-8.1,0-10.1,2.1-5,6.3-2,9.5-1.7s9.8-.3,14.4,1.2c2.8.8,6.7,5.5,8,8.8a3.9,3.9,0,0,1,.4,1.8Z" style="fill:#ce894a;stroke:#a8662f;stroke-miterlimit:10;stroke-width:3px"/><path d="M290.9,249.5H267.7a3,3,0,0,1-1.1-2,18.4,18.4,0,0,1,0-6.2c.4-1.6,2-2.3,3.5-3s3.9-2.4,6.3-2.7a13.1,13.1,0,0,1,7.3,1.4,39.3,39.3,0,0,0,9.1,2.4l.2.2C293.6,241.5,293.1,246.9,290.9,249.5Z" style="fill:#ce894a;stroke:#a8662f;stroke-miterlimit:10;stroke-width:3px"/><path d="M248.6,249.5a34.1,34.1,0,0,1,.2-3.7,6.4,6.4,0,0,1,1.3-3.7c3-4.4,10.3-6.6,13.3-2.1,1.5,2.2,1.4,6.6,1.2,9.5Z" style="fill:#ce894a;stroke:#a8662f;stroke-miterlimit:10;stroke-width:3px"/><path d="M246.8,249.5H201c.1-3,.3-7.5.3-8.9a3.8,3.8,0,0,1,2-3.8.8.8,0,0,1,.4-.4l.8-.3.8-.3c.2-.1.2,0,.3,0a18.9,18.9,0,0,1,3.5-.2c2.9,0,5.8-.5,8.7-.6a38.2,38.2,0,0,1,5.9.9H225a70.4,70.4,0,0,1,13,.5c2.3.4,6.7.2,8.2,2.1s.6,3.3.6,4.8S246.9,247.4,246.8,249.5Z" style="fill:#ce894a;stroke:#a8662f;stroke-miterlimit:10;stroke-width:3px"/><path d="M199.2,249.5H170.6l-4.3-.7c-3.2-.8-6.6-1.9-7.3-6.3s.2-6.6,3.4-7.2,7.5-.2,11.1-.2,5.8-.6,8.7-.7,17-1.6,16.7,3.5S199.4,245.8,199.2,249.5Z" style="fill:#ce894a;stroke:#a8662f;stroke-miterlimit:10;stroke-width:3px"/><path d="M116.9,249.5l.3-6.8c.2-4.6.4-7.2,5-6.2a89.3,89.3,0,0,1,10.4-.7l3.5-.2a15.3,15.3,0,0,1,4.9.2l.4.2c1.2.5,1.2,1,1.7,2.4s.3,4.7.5,7.2.1,2.6.1,3.9Z" style="fill:#ce894a;stroke:#a8662f;stroke-miterlimit:10;stroke-width:3px"/><path d="M12.2,249.5c-.1-3-.1-7,1.1-9,2.6-4.7,8.9-2.4,11.6,2.2a10.3,10.3,0,0,1,1.1,3.9c0,.7.1,1.7.1,2.9Z" style="fill:#ce894a;stroke:#a8662f;stroke-miterlimit:10;stroke-width:3px"/><path d="M72.9,249.5H27.2c0-2.8.3-6.7.2-7.9a3.7,3.7,0,0,1,2-3.5,1,1,0,0,1,.5-.4l.8-.3.8-.3h.2a18.9,18.9,0,0,1,3.5-.2c2.9-.1,5.8-.6,8.7-.7a38,38,0,0,1,5.9.6h1.3a70.5,70.5,0,0,1,13,.2c2.3.3,6.7.1,8.2,1.8s.6,3,.6,4.3S73,247.3,72.9,249.5Z" style="fill:#ce894a;stroke:#a8662f;stroke-miterlimit:10;stroke-width:3px"/><path d="M110.8,249.5H76c0-3.2.5-6.7.3-9.9-.3-5.1,12.6-3.7,16.2-3.6s5.5.7,8.4.8,7.2-.4,10.7.2,3.8,3.5,3.3,7.2A6.5,6.5,0,0,1,110.8,249.5Z" style="fill:#ce894a;stroke:#a8662f;stroke-miterlimit:10;stroke-width:3px"/><path d="M332.7,23.8H312a47,47,0,0,0-7.5.1c-15.4,2.7-32.1,2.3-47.6,0a25.5,25.5,0,0,0-7.3-.1,26.1,26.1,0,0,1-7.4.5,1,1,0,0,1-.9-.5H181.1c-4.7.1-9.5,1.3-14,.2a.9.9,0,0,1-.6-.3h-51a1,1,0,0,1-1.2,1.2c-4.2-.6-8.3.3-12.4.3s-7.4-1.1-11.1-1.1a1.1,1.1,0,0,1-.9-.4H8.5c-1.6,0-2.9.9-2.9,2v3.7c0,1.4-.8,3.9.8,4.8a6.9,6.9,0,0,0,3.2.8c3.2.1,6.4-.2,9.5-.3l10-.2c8.1-.3,16.2-.8,24.3-.6s16.6.7,24.8.8c3.9.1,7.9.1,11.8.4s6.9.7,10.4.4a61.4,61.4,0,0,1,10.5.1,65.5,65.5,0,0,0,12.5-.3c4.1-.4,8.1-.5,12.3-.5,6.2,0,12.4.6,18.6.8,3.8.1,7.8.1,11.7-.1s8.3-.9,12.2,0a55.3,55.3,0,0,0,15.2-1.4c5.1-1,10.5-.8,15.7-.8a154.4,154.4,0,0,1,16.7.6c3,.3,5.9,1,8.9,1.4,4.8.6,9.6-.1,14.4,0,2.8.1,5.5.3,8.4.3H283c4.3,0,8.5-.1,12.8-.3s7.9-.6,12-.6,10.4.4,15.6,0c2.5-.2,5.1.1,7.6-.2a9.1,9.1,0,0,0,3.6-.9c1.6-.9,1-1.8,1-3.2V25.8C335.6,24.7,334.3,23.8,332.7,23.8Z" style="fill:#75411a"/><path d="M171.2,24.1c-2.3-.9-7.9-.3-10.4-.4H144c-10.4,0-20.5-.7-30.8-.3a17,17,0,0,0-6.1,1c-1,2.2-.7,4.9-.6,7.1l.3,2.9c1.6,1.5,4.1,2,8.5,2s9-.8,13.5-1.1,10.7-.2,16.2,0,9.3.7,14.1.8c2.5.1,10.7-1.1,13.2-1.1S174.7,25.6,171.2,24.1Z" style="fill:#ce894a;stroke:#a8662f;stroke-miterlimit:10;stroke-width:3px"/><path d="M240.1,35.9a7.5,7.5,0,0,0,3-.3,2.7,2.7,0,0,0,1.7-2.9c.1-1.6.1-3.2.1-4.8a3.9,3.9,0,0,0-.6-3,2.7,2.7,0,0,0-1-.8c-3.8-.8-8.7-.7-11.3-.9a215.7,215.7,0,0,0-29-.7c-8.1.3-16.3-.4-24.4,0a5.2,5.2,0,0,0-3.2,1.2c0,.1-.1.2-.1.3-.6,2.8-1.1,6.8.2,9.5a9,9,0,0,0,3.8,1.8c6.1,1.4,16.1-.4,19.8-.4q13.7-.1,27.3.3c3.7.1,7.7.7,11.6.9Z" style="fill:#ce894a;stroke:#a8662f;stroke-miterlimit:10;stroke-width:3px"/><path d="M336.3,33a12.9,12.9,0,0,0,.4-3.9V25.6a6,6,0,0,0-.1-2.3l-.5-.7c-2.1-.4-4.7.1-6.4.1-11.6.1-22.8.5-34.3,1.5s-24.5.4-36.8-.5c-3.6-.2-8.4-1.4-11.3,1.1a7.2,7.2,0,0,0-1.6,2.5c0,1,0,2,.1,3s.8,4.3,2.7,5.7a23.5,23.5,0,0,0,5.3,0c2.7-.1,5.5.3,8.3.4,5.7.2,11.5.3,17.3.2,7.9-.1,16-.8,24-1.2s16.4.2,24.6-.4c1.8-.1,4.7,0,7-.3A3.3,3.3,0,0,0,336.3,33Z" style="fill:#ce894a;stroke:#a8662f;stroke-miterlimit:10;stroke-width:3px"/><path d="M104.9,27.1a7.9,7.9,0,0,0-4.2-2.2c-2.8-1.2-7.1-1.3-10.4-1.6-26-2-52.5-.4-78.5-.2-8.5.1-12,1.5-9.5,6.1-.6,2.1-.8,4.5,1.4,5.8l2.8.2,8.3.3c5.3.2,10.7.1,16-.1a133.7,133.7,0,0,1,15.5-.1c17.5-.3,35,.5,52.5.7a21,21,0,0,0,5.6-.1,4.3,4.3,0,0,0,1.1-3A12.7,12.7,0,0,0,104.9,27.1Z" style="fill:#ce894a;stroke:#a8662f;stroke-miterlimit:10;stroke-width:3px"/></g></g></svg>