<svg xmlns="http://www.w3.org/2000/svg" width="85.8" height="86" viewBox="0 0 85.8 86"><g id="Layer_2" data-name="Layer 2"><g id="Layer_3" data-name="Layer 3"><g id="dog_toy_3" data-name="dog_toy 3"><path d="M7.8,60.1a11,11,0,0,0-3,1.2,1,1,0,0,1-.7-.1,1.8,1.8,0,0,0-.4-1,2.1,2.1,0,0,0-2.7.2h.1l-.3.3a2,2,0,0,0-.4,2.8l.4.3H2.3a.3.3,0,0,1-.1.2c-.1.1-.1.2-.2.2a.4.4,0,0,1-.1.3H1.8V66h.1a.4.4,0,0,0,.1.3h0l.3.3.3.3h.1l.2.2h2a.4.4,0,0,0-.1.3H4.6a.6.6,0,0,1-.1.4h0v.3h0a.3.3,0,0,1,.1.2v.2c.1,0,.1.1.1.2h.1l.2.3c.8.8,2.1.6,3.1-.3l.2-.3h0l.3-.5.5.2a7.8,7.8,0,0,0,1.7,1.2L9.9,59.8Z" style="fill:#cc411b"/><path d="M25.2,85h0a1.9,1.9,0,0,0,.1-2.6,1,1,0,0,0-.9-.4,1.3,1.3,0,0,1-.2-.9,11.3,11.3,0,0,0,1.2-2.9,9.8,9.8,0,0,0,.4-2.2L15.7,74.9a6,6,0,0,0,1.2,1.7,1.1,1.1,0,0,1,.2.8l-.4.2h0l-.2.2a2.3,2.3,0,0,0-.4,3.1l.3.2a.1.1,0,0,1,.1.1h1.9a.1.1,0,0,1,.1-.1h.2c-.1.1-.1.1-.1.2h-.1c0,.1-.1.2-.1.3a.1.1,0,0,1-.1.1.9.9,0,0,1-.1.5h0v.4h0V83h0c0,.1.1.2.1.3h.1l.2.3.3.2h2.3c.1-.1.2-.1.2-.2h.3a.6.6,0,0,0-.1.4h0a.4.4,0,0,0,0,.5h0a.4.4,0,0,0,.1.3h0l.3.4a2.1,2.1,0,0,0,2.9-.3Z" style="fill:#cc411b"/><path d="M23.9,77.6c-2.9,0-6.3-2-10.4-6.2l-.3-.4c-7.9-8.2-4.6-13-2.6-15.9a4.7,4.7,0,0,0,.6-.9c.2-.6.3-1.2.6-2a3.4,3.4,0,0,1-.3-2.8c1-3.6,6.4-6.2,8.1-7a33,33,0,0,1,9.1-2.1l2.9-.5C38.1,37,50.9,25.3,52.9,21.1a1.5,1.5,0,0,1,1.1-.8h.3a1.3,1.3,0,0,1,1,.4l9.1,9.4a1.8,1.8,0,0,1,.4,1.4,2,2,0,0,1-1.1,1.1c-4.8,1.4-13,11.6-18.6,20.5v.2h0a23.5,23.5,0,0,0-.6,2.9,33.8,33.8,0,0,1-2.3,9.1c-.9,1.9-4.1,8-8.2,8h-.5l-.3.2-2.2.8-1.6,1.1C27.8,76.4,26.2,77.6,23.9,77.6Z" style="fill:#f9d319"/><path d="M54.3,21.8l2.3,2.4,6.7,6.9c-6,1.8-15.2,14.4-19.4,21.2l-.3.3v.3h0c-.7,2.1-.9,7.6-2.9,11.8s-4.4,7.2-6.8,7.2a1.5,1.5,0,0,1-.9-.2l-.7.6-1.9.7c-2.1,1-3.7,3.1-6.5,3.1s-5-1.4-9.3-5.8l-.3-.3C6,61.4,11.2,57.4,12.7,54.7a13.4,13.4,0,0,1,.7-2.7.1.1,0,0,0-.1-.1c-1.9-2.8,2.6-6.2,6.9-8.1s9.8-1.9,11.9-2.6c6.8-2.9,20-14.8,22.2-19.4m0-3h-.5a3.3,3.3,0,0,0-2.3,1.7c-1.8,3.9-14.2,15.1-20.4,17.9l-2.6.4A30.5,30.5,0,0,0,19,41.1c-2.3,1-7.8,3.8-8.9,7.9a5.3,5.3,0,0,0,.1,3.3,9.3,9.3,0,0,0-.4,1.3,4.3,4.3,0,0,0-.4.7c-2,2.8-6.1,8.6,2.7,17.8l.3.3c4.5,4.6,8.1,6.7,11.5,6.7a10.4,10.4,0,0,0,6.2-2.4l1.3-.9a7.9,7.9,0,0,0,2.3-.9h.2c4.8,0,8.3-6.2,9.5-8.9a33.5,33.5,0,0,0,2.5-9.5,24.3,24.3,0,0,1,.5-2.6h0C51.8,45.2,59.9,35.3,64.2,34a3,3,0,0,0,2-2.1,3.1,3.1,0,0,0-.7-2.9l-6.8-6.9-2.3-2.4a2.9,2.9,0,0,0-2.1-.9Z" style="fill:#e57225"/><path d="M43.6,52.9v-.3l.3-.3c4.2-6.8,13.4-19.4,19.4-21.2l-6.7-6.9-2.3-2.4c-2.2,4.6-15.4,16.5-22.2,19.4-3.2,1-16.4,4.6-18.3,9.6a23.3,23.3,0,0,0-1.1,3.9C11.2,57.4,6,61.4,14.3,70l.3.3c9.6,9.9,12.1,4.4,15.8,2.7l1.9-.7a4.5,4.5,0,0,0,1.3-1.1C36,68.5,42.6,55.1,43.6,52.9Z" style="fill:#fcd54d"/><path d="M20.2,43.8c-4.3,1.9-8.8,5.3-6.9,8.1.1.1.2.2.2.3,2,2.4,4.7,1.5,8.1-1.9s6-5.4,8.4-7.3l2.1-1.8C30,41.9,24.5,41.9,20.2,43.8Z" style="fill:#ffeb81"/><path d="M40.7,64.7c2-4.2,2.2-9.7,2.9-11.8,0,0-5.8,6.9-9.4,10.3s-4.4,6.2-1.7,8.2S38.7,69,40.7,64.7Z" style="fill:#ffeb81"/><path d="M69.5,39a22.3,22.3,0,0,1-4.5-.8l-2.2-.6H60.5c-2.8-.1-6.2-.3-8.8-2.9S48.3,27.5,47.8,24a8.8,8.8,0,0,0-.2-1.7l-.3-2.1c-.6-3.5-1.3-7.1,1.2-9.5a5.1,5.1,0,0,1,3.9-1.6,6.1,6.1,0,0,1,4.3,1.6C60,8.2,63.6,5.9,67.8,5.5h2a8.7,8.7,0,0,1,4.1,1.1c1.2-2.8,2.2-5,4.1-5a2.4,2.4,0,0,1,2,1.1h1.1a3.1,3.1,0,0,1,3.1,2.1c.8,2.6-2.9,6-5,7.6a10.2,10.2,0,0,1,.8,4,20.5,20.5,0,0,1-5,11.9l.4.6c1,2.2.3,6-1.5,8.3a5.6,5.6,0,0,1-4.4,2Z" style="fill:#f9d319"/><path d="M78,3c.4,0,.9.4,1.4,1.4h0A4.7,4.7,0,0,1,81.1,4a1.6,1.6,0,0,1,1.7,1c.6,2-4.3,6.1-5.6,6.7h0a8.9,8.9,0,0,1,1.3,4.6c-.2,3.9-2,8.3-6,12.4h.4c2,0,2,4.8-.2,7.5a3.9,3.9,0,0,1-3.2,1.5c-2.1,0-4.6-1.1-6.4-1.3s-7.4.4-10.4-2.7S49.6,26,49.1,22.1s-1.9-8.1.4-10.4a4.2,4.2,0,0,1,2.9-1.1c1.8,0,3.6,1,3.8,2v.3c3.9-3.1,7.5-5.5,11.7-6h1.8a7.7,7.7,0,0,1,4.8,1.8h0C75.8,5.9,76.8,3,78,3m0-3c-2.4,0-3.7,2-4.9,4.5a8.7,8.7,0,0,0-3.2-.6H67.6c-4.1.4-7.7,2.4-10.9,4.8a8,8,0,0,0-4.3-1.2,7,7,0,0,0-5,2c-3,2.9-2.2,7.3-1.6,10.9l.3,2a8.8,8.8,0,0,1,.2,1.6c.5,3.7,1,8.2,4.3,11.5s7,3.3,9.9,3.4h2.1l2,.5a19.3,19.3,0,0,0,4.9.9A6.6,6.6,0,0,0,75,37.9c2.2-2.7,3-7,1.8-9.7a20.7,20.7,0,0,0,4.7-11.9,15.6,15.6,0,0,0-.5-3.6c2.4-2,5.6-5.4,4.6-8.6A4.5,4.5,0,0,0,81.1,1h-.5A3.7,3.7,0,0,0,78,0Z" style="fill:#e57225"/><path d="M78.5,16.2a8.9,8.9,0,0,0-1.3-4.6h0c1.3-.6,6.2-4.7,5.6-6.7s-3.1-.8-3.4-.6h0c-1.9-3.6-3.2.5-4.8,4.3h0a7.7,7.7,0,0,0-4.8-1.8H68c-4.2.5-7.8,2.9-11.7,6.1a10.5,10.5,0,0,0-.1,2.5,8.8,8.8,0,0,0,.3,2.1A12.8,12.8,0,0,0,60,24.3c4,3.9,7,7,10.1,5.9a6.7,6.7,0,0,0,2.4-1.6C76.5,24.5,78.3,20.1,78.5,16.2Z" style="fill:#fcd54d"/><path d="M72.7,36c2.3-2.8,2.2-8-.2-7.4s-5.4.2-5.7-1.4-.3-1.4-.6-2.2a8,8,0,0,0-1.7-3.3c-1.2-1.3-2.2-1.6-4.1-2.6l-1.3-.7c-2.8-1.6-2.3-3.4-2.9-5.8s-4.4-3.1-6.7-.9-.9,6.5-.4,10.4.6,8.4,3.6,11.4,7.4,2.2,10.4,2.7S70.4,38.9,72.7,36Z" style="fill:#ff8d3d"/><path d="M71.4,32.7a.5.5,0,0,0-.5-.4c-2.5.4-5.3-.8-7.9-2.6h0c.7-.9-1.6-2.2-1.7-2.7s-.1-.4-.2-.6a1.9,1.9,0,0,0-.5-1,5,5,0,0,0-1.2-.8.5.5,0,0,1-.4-.2c-.8-.4-2.2-2.4-2.9-2s-.7-1.1-1.1-1.7c-1.5-2.7-2-4.9-1.3-5.8a.5.5,0,0,0-.1-.7c-.2-.1-.5-.1-.6.1s-.6,3.7,1.2,6.9a22.2,22.2,0,0,0,1.5,2.3,16.2,16.2,0,0,0,.3,2,5.1,5.1,0,0,0,1.1,3.4c.9.9,2.2.7,3.1.8a9.5,9.5,0,0,0,1.8.4c2.8,2.2,6,3.6,9,3.2C71.3,33.2,71.5,33,71.4,32.7Z" style="fill:#af2d0e"/><ellipse cx="64.3" cy="15.1" rx="2.6" ry="1.7" transform="translate(7.8 49.3) rotate(-44.4)" style="fill:#252324"/><ellipse cx="70.1" cy="21" rx="2.6" ry="1.7" transform="translate(5.3 55) rotate(-44.4)" style="fill:#252324"/></g></g></g></svg>