<svg xmlns="http://www.w3.org/2000/svg" width="85.7" height="85.3" viewBox="0 0 85.7 85.3"><g id="Layer_2" data-name="Layer 2"><g id="Layer_3" data-name="Layer 3"><g id="dog_toy_4" data-name="dog_toy 4"><path d="M31.9,19.2c.1-.2.2-.3.2-.5h0l.2-.4c.9-3.5-1.4-5.3-2.9-6.2l-1.3-.5a6.9,6.9,0,0,0-1.5,6.8h0l.3.7C28.1,21.5,30.6,22.4,31.9,19.2Z" style="fill:#dfe590;stroke:#c3bf4f;stroke-miterlimit:10;stroke-width:2px"/><path d="M63.6,60.7h.3a3.1,3.1,0,0,0,1.1-.9c.7-1,1-2.4.1-3.1h0a2,2,0,0,0-.8-.4H62.7a5.1,5.1,0,0,0-3.6,3.4,1.5,1.5,0,0,0-.2.6A10.9,10.9,0,0,0,63.6,60.7Z" style="fill:#dfe590;stroke:#c3bf4f;stroke-miterlimit:10;stroke-width:2px"/><path d="M58.7,65.7l6-1a7.7,7.7,0,0,0,1.6-1.5c.8-1,1.2-2.4-1.3-3.5l-.6-.2-1.1-.4a5.4,5.4,0,0,0-4.2.5,4.9,4.9,0,0,0-1.7,3.5C57.4,65.2,58.7,65.7,58.7,65.7Z" style="fill:#dfe590;stroke:#c3bf4f;stroke-miterlimit:10;stroke-width:2px"/><path d="M67.8,83.3h-.6A4.3,4.3,0,0,1,66,81.7h0a2.8,2.8,0,0,1-.4-1.1h-.3a1,1,0,0,1-.7.4h-.1a1,1,0,0,1-.9-.8v-1l-1.2.4h-.2a.9.9,0,0,1-.8-.5,1.1,1.1,0,0,1-.1-1H61a.8.8,0,0,1-.8-.6.8.8,0,0,1,.2-1l.3-.4c-.2-.1-.3-.2-.3-.4a.9.9,0,0,1,.2-1.1A12.3,12.3,0,0,0,63,71a4.2,4.2,0,0,0,.6-1.4,1,1,0,0,1,1-.7h.2l10.4,2.9a.9.9,0,0,1,.7,1.1v1.3a9.3,9.3,0,0,0,1.2,3.9.9.9,0,0,1-.1,1.1.9.9,0,0,1-.7.4h-.4l-.5-.2h-.1a3.6,3.6,0,0,0,.5.9.9.9,0,0,1,0,1,1,1,0,0,1-.9.6h-.1a1,1,0,0,1-.1,1.2,1.1,1.1,0,0,1-.8.3h-.4a4.6,4.6,0,0,1-1.7-1.3c-.1.2-.4.3-.7.4h-.2a.8.8,0,0,1-.2.7,1.2,1.2,0,0,1-.8.4.1.1,0,0,0-.1-.1,1.5,1.5,0,0,1-1-.5,1.5,1.5,0,0,1-.5.6Z" style="fill:#dfe590"/><path d="M64.6,69.9l10.3,2.8v1.5a10.5,10.5,0,0,0,1.4,4.4l-.9-.5h0l-.5-.6V78h0v.5a5.1,5.1,0,0,1-1.4-1.9,18.1,18.1,0,0,0,1.4,4.2l-.9-.4h0a5.7,5.7,0,0,1-1.6-2.7,4.3,4.3,0,0,0,.2,1.7h0a8.6,8.6,0,0,0,1.3,2.8,6.6,6.6,0,0,1-2-1.9h0a5.3,5.3,0,0,1-.8-1.5,3.5,3.5,0,0,1,0,2.4,9.3,9.3,0,0,0-.7-1.3,2.7,2.7,0,0,0-.7-.8,9.1,9.1,0,0,0,.2,3.1s-.8-.2-1.4-2l-.3-1.7v-.2a13.8,13.8,0,0,0-.4,4,2.7,2.7,0,0,1-.9-1.1h0a4.3,4.3,0,0,1-.3-3.1,12.8,12.8,0,0,1-.9,1.4,5.7,5.7,0,0,1,.2-2,14.7,14.7,0,0,0-1.3,2.3,5.4,5.4,0,0,1,0-1.4,4.4,4.4,0,0,1,.3-1.5,7.4,7.4,0,0,1-1.6,1l-1.1.4,1.5-2.1h0a8.4,8.4,0,0,1-1.7.6h-.9a21.5,21.5,0,0,0,2.1-2.6h0l-.9.5h0l-1,.3a14,14,0,0,0,2.6-3.5,11.1,11.1,0,0,0,.7-1.6m0-2a2,2,0,0,0-1.9,1.4l-.5,1.2a12.9,12.9,0,0,1-2.3,3,2.1,2.1,0,0,0-.5,2.2,2.5,2.5,0,0,0-.2,1.9,1.9,1.9,0,0,0,1,1l.3.8a2,2,0,0,0,1.7.9h.5a1.9,1.9,0,0,0,1.7,1.5h.5l.2.4h0A6.3,6.3,0,0,0,66.6,84a2.7,2.7,0,0,0,1.2.3,1.8,1.8,0,0,0,1-.2l.2-.2a1.1,1.1,0,0,0,.7.2h.2a1.8,1.8,0,0,0,1.6-.8c.1-.1.2-.2.2-.3a4.5,4.5,0,0,0,1.4.9,1.1,1.1,0,0,0,.8.2,2,2,0,0,0,1.6-.7,1.8,1.8,0,0,0,.4-1l.8-.8a1.7,1.7,0,0,0,.2-1.2,2.4,2.4,0,0,0,.9-.6,2.1,2.1,0,0,0,.2-2.3,8.6,8.6,0,0,1-1.1-3.5V73a2,2,0,0,0-1.4-2.2L65.1,68Z" style="fill:#c3bf4f"/><path d="M9.4,16.9H9.2a.8.8,0,0,1-.7-.5L7.9,16a19.7,19.7,0,0,0-4.4-1.9,1,1,0,0,1-.7-.9,1,1,0,0,1,.7-1h.1l-1-.5a.9.9,0,0,1-.6-.9,1,1,0,0,1,.6-.9l.8-.2A1.5,1.5,0,0,1,3.3,9c.1-.1.1-.3.2-.4H3.4a1.1,1.1,0,0,1-.6-1,1.1,1.1,0,0,1,.7-.9l.8-.2h.4A.7.7,0,0,1,4.6,6a.9.9,0,0,1,.6-.9l1.3-.2H7.6V4.7a1.1,1.1,0,0,1,.9-.6H9.9V3.6a1.1,1.1,0,0,1-.1-1.1,1.1,1.1,0,0,1,.9-.5H11a3.1,3.1,0,0,1,1.3.8h0a1.6,1.6,0,0,1,.8-.6h.1a.9.9,0,0,1,.8.5l.3.4a.3.3,0,0,1,.1-.2l.7-.2h.4a1.1,1.1,0,0,1,.6,1,6.2,6.2,0,0,0,1.5,3.9,4.5,4.5,0,0,0,.6.8,1,1,0,0,1,.2.7.8.8,0,0,1-.3.7L10,16.7A.7.7,0,0,1,9.4,16.9Z" style="fill:#dfe590"/><path d="M10.7,3a3,3,0,0,1,1,.7h0a7.8,7.8,0,0,1,1.3,2,6.2,6.2,0,0,1-.1-1.3,4,4,0,0,1,.3-1.2l.9,1.7h0a1,1,0,0,1,.1.4,10.4,10.4,0,0,1,.4-1h0a1.7,1.7,0,0,1,.5-.6c-.2,1.6.9,3.5,1.7,4.6l.6.9L9.4,16a2.4,2.4,0,0,0-.9-.8,23.3,23.3,0,0,0-4.7-2.1l1-.2H6.3l-.2-.2a8.7,8.7,0,0,0-3.1-2h.7l1.6.2,1.5.3h.1a13.9,13.9,0,0,0-2.6-2h.9l2,.4h0c-.5-.7-3.4-2-3.4-2l.7-.2h.3A9,9,0,0,1,9.3,9.2C8.6,7.5,5.6,6,5.6,6h.9a2.5,2.5,0,0,1,1.2.2h0a7,7,0,0,1,2.6,1.5h0A9.6,9.6,0,0,0,8.6,5.1h1a3.9,3.9,0,0,1,2,1.8l-.2-.6h0a8.7,8.7,0,0,1-.5-2.2c.1-1-.2-1.2-.2-1.2m0-2A2.1,2.1,0,0,0,8.9,2.1a1.6,1.6,0,0,0-.2,1H8.5A1.9,1.9,0,0,0,7,3.9H6.5a4.1,4.1,0,0,0-1.6.3A1.8,1.8,0,0,0,3.6,5.7H3.1A1.9,1.9,0,0,0,1.8,7.6,2.3,2.3,0,0,0,2.2,9a2,2,0,0,0-.3,3.5,1.5,1.5,0,0,0-.1.7A1.9,1.9,0,0,0,3.2,15a27.8,27.8,0,0,1,4.2,1.8l.3.2a1.8,1.8,0,0,0,1.3.9h.4a1.8,1.8,0,0,0,1.2-.5l8.1-6.8a1.9,1.9,0,0,0,.7-1.4A1.8,1.8,0,0,0,19,7.9l-.6-.8a5.4,5.4,0,0,1-1.3-3.2,2.3,2.3,0,0,0-1.1-2l-.9-.2h-.5a2,2,0,0,0-1.4-.6h-.1l-.9.3-.9-.4Z" style="fill:#c3bf4f"/><path d="M75.8,59.4a8.6,8.6,0,0,0,2.6-.8,1.4,1.4,0,0,0-.2-.6,2.5,2.5,0,0,0-2.4-1.3l-1.3.3s-1.3,1.5-.1,2.2h1.4Z" style="fill:#dfe590;stroke:#c3bf4f;stroke-miterlimit:10;stroke-width:2px"/><path d="M81.7,65.6a3.6,3.6,0,0,0,.4-1.3,4.9,4.9,0,0,0-1.5-5.1A5.4,5.4,0,0,0,78.2,58a8.3,8.3,0,0,0-2.3.1l-1.2.5a1.7,1.7,0,0,0-.1.7,2.8,2.8,0,0,0,.1.9h.1a5.9,5.9,0,0,0,2,2.5,12.8,12.8,0,0,0,2.1,1.4Z" style="fill:#dfe590;stroke:#c3bf4f;stroke-miterlimit:10;stroke-width:2px"/><path d="M78.6,72.1c1.1-.1,2.6-1,3.7-4.1a3.6,3.6,0,0,0-.2-3.7c-.9-1.4-2.7-1.9-3.9-2.2H77c-.1.1-.1.4-.2.7V69c.1,1.6.1,2.9.1,2.9A3.7,3.7,0,0,0,78.6,72.1Z" style="fill:#dfe590;stroke:#c3bf4f;stroke-miterlimit:10;stroke-width:2px"/><path d="M78.5,72.2h.1c1.7-2.5.7-4.3-.4-5.3a3.8,3.8,0,0,0-1.1-.9l-.3.4a24.5,24.5,0,0,0-2.1,3l-.8,1.3-1,1.6a5.3,5.3,0,0,0,1.7,1.5C75.7,74.2,77.1,74.2,78.5,72.2Z" style="fill:#dfe590;stroke:#c3bf4f;stroke-miterlimit:10;stroke-width:2px"/><path d="M74.1,74l.5-.3a2.4,2.4,0,0,0,.7-3.5,3.5,3.5,0,0,0-.6-.9l-.4-.4c-1.5,0-6.3,2.7-6.3,2.7a10.3,10.3,0,0,0,1.1,1.5A3.9,3.9,0,0,0,74.1,74Z" style="fill:#dfe590;stroke:#c3bf4f;stroke-miterlimit:10;stroke-width:2px"/><path d="M75.2,59.8s4.9,2.3,2.4,6.9-3.2,3.9-5.9,3.6S72.3,59.4,75.2,59.8Z" style="fill:#dfe590;stroke:#c3bf4f;stroke-miterlimit:10;stroke-width:2px"/><path d="M24.1,25.9l.6-.8c1.3-2.6-1.9-2.8-4.3-2.7l-1.9.2h-.3l-5.5,1.6.6.7a7.1,7.1,0,0,0,1.8,1.5C16.3,27.1,21.6,28.7,24.1,25.9Z" style="fill:#dfe590;stroke:#c3bf4f;stroke-miterlimit:10;stroke-width:2px"/><path d="M19.7,24.1l.3-.2.2-.3a1.3,1.3,0,0,0,.2-1.2,5.9,5.9,0,0,0-.4-.8,5.7,5.7,0,0,0-1.3-1.4h-.1l-1.1-.9-1-.7-7.1-.6a6.6,6.6,0,0,0-.2.9,5.1,5.1,0,0,0,1.5,4.9A5.8,5.8,0,0,0,13.3,25,8.4,8.4,0,0,0,19.7,24.1Z" style="fill:#dfe590;stroke:#c3bf4f;stroke-miterlimit:10;stroke-width:2px"/><path d="M16.3,21.9a1.3,1.3,0,0,0,1.2-.9.3.3,0,0,1,.1-.2,4.3,4.3,0,0,0-.1-1.6,1.2,1.2,0,0,0-.1-.5s-.4-.9-1.1-2.2l-1-1.7-.6-.8c-.9-1.2-2.1-2.2-3.2-2.2l-.8.5a5.2,5.2,0,0,0-2,5.2,3.9,3.9,0,0,0,.5,1.3C10.6,21.5,14.4,22,16.3,21.9Z" style="fill:#dfe590;stroke:#c3bf4f;stroke-miterlimit:10;stroke-width:2px"/><path d="M15.7,17.5c.4,0,.6-.4.6-1a3.8,3.8,0,0,0,0-1.5,25.1,25.1,0,0,0-.4-2.7c-.2-1.4-.5-2.6-.5-2.6h-.6a3.4,3.4,0,0,0-4,2.6.1.1,0,0,0-.1.1c-.5,2.6,1.8,4.2,3.7,4.8Z" style="fill:#dfe590;stroke:#c3bf4f;stroke-miterlimit:10;stroke-width:2px"/><path d="M17.9,16.2l2.8-6-.8-.5c-1.1-.7-3.5-1.8-5.1-.1l-.3.3c-1,1.3-.4,2.6.4,3.7L16.3,15Z" style="fill:#dfe590;stroke:#c3bf4f;stroke-miterlimit:10;stroke-width:2px"/><path d="M23.4,24.9h.3l.6-6.1a10.9,10.9,0,0,0-5.7,1.3h-.1a3.9,3.9,0,0,0,0,1.2A3.3,3.3,0,0,0,20,23.9,6.5,6.5,0,0,0,23.4,24.9Z" style="fill:#dfe590;stroke:#c3bf4f;stroke-miterlimit:10;stroke-width:2px"/><path d="M25.6,25.9c1.5-.3,9.1-5.1,9.1-5.1s-.9-2.3-2.6-2.1h0c-1.4.1-3.4.8-4.7.2l-.5-.4h-.3a2.8,2.8,0,0,0-2.3.5,8,8,0,0,0-1.3,1,2.3,2.3,0,0,0-.7,1.5,2.4,2.4,0,0,0,0,1.2,4.5,4.5,0,0,0,1.1,2.3A2.3,2.3,0,0,0,25.6,25.9Z" style="fill:#dfe590;stroke:#c3bf4f;stroke-miterlimit:10;stroke-width:2px"/><path d="M19.2,11.4a2.6,2.6,0,0,0-2.4.7,5.1,5.1,0,0,0-1.7,6.3c1.3,2.7,4.4,3,4.8,2.5S20.2,11.4,19.2,11.4Z" style="fill:#dfe590;stroke:#c3bf4f;stroke-miterlimit:10;stroke-width:2px"/><path d="M24.3,10.9s-1.4-2.1-3.2-1.4-2.5,2-2.7,4,.8,6.8.5,7.6,3.5.7,4.1-1.2S25.7,15.3,24.3,10.9Z" style="fill:#dfe590;stroke:#c3bf4f;stroke-miterlimit:10;stroke-width:2px"/><path d="M28.8,11.3c.7.7,1.3,3.1.1,5.4S23,19.9,23,19.9s.2-9.4.9-9.5A4.8,4.8,0,0,1,28.8,11.3Z" style="fill:#dfe590;stroke:#c3bf4f;stroke-miterlimit:10;stroke-width:2px"/><path d="M32.1,29.6s9.6-3.3,10.6-6.2c0,0-.9-3.1-3-3.5a15.3,15.3,0,0,0-3.7-.1,7.1,7.1,0,0,0-2.2.6c-1.2.6-6.7,4.8-8,5.4h-.2s-.5,1,.8,2.3S31.3,29.9,32.1,29.6Z" style="fill:#dfe590;stroke:#c3bf4f;stroke-miterlimit:10;stroke-width:2px"/><path d="M39.5,32.8c1.1,0,10.6-3.1,11-5.9,0,0-1-2.6-2.4-3.2a11.1,11.1,0,0,0-4.9-.5h0a9.5,9.5,0,0,0-2.9.7c-2.7,1.3-7.2,4.9-8.1,5.6h-.1A3.8,3.8,0,0,0,33.6,32C34.7,32.6,38.3,32.9,39.5,32.8Z" style="fill:#dfe590;stroke:#c3bf4f;stroke-miterlimit:10;stroke-width:2px"/><path d="M45.9,36c2.3-.4,12.4-3,12.4-3a5.9,5.9,0,0,0-1.8-3.7,9,9,0,0,0-3.1-2.5,5,5,0,0,0-2.7-.2,24.8,24.8,0,0,0-7.6,2.8,60.9,60.9,0,0,1-5.2,3.4A17.4,17.4,0,0,1,39.7,34C40.3,34.6,43.6,36.4,45.9,36Z" style="fill:#dfe590;stroke:#c3bf4f;stroke-miterlimit:10;stroke-width:2px"/><path d="M53.3,39.8c3.2.4,11.8-.7,11.8-.7a5.8,5.8,0,0,0-.9-3.7,6.8,6.8,0,0,0-3-2.6,6.8,6.8,0,0,0-1.7-.7c-1.1-.3-6.1.3-7.4.8l-7.5,3h-.2l2.5,1.7A15,15,0,0,0,53.3,39.8Z" style="fill:#dfe590;stroke:#c3bf4f;stroke-miterlimit:10;stroke-width:2px"/><path d="M69.2,46.4a4.7,4.7,0,0,0,.4-4.5A4.2,4.2,0,0,0,68,39.8,10.9,10.9,0,0,0,62.4,38c-2.3-.3-8.7.9-10.4,1.7a20.9,20.9,0,0,1,1.4,1.7,18.3,18.3,0,0,0,5.3,4C60.5,46,69.2,46.4,69.2,46.4Z" style="fill:#dfe590;stroke:#c3bf4f;stroke-miterlimit:10;stroke-width:2px"/><path d="M73.1,53.6a3.5,3.5,0,0,0,.2-2.3,8,8,0,0,0-2-4.3,5.2,5.2,0,0,0-3.2-1.6c-3.8-.5-9.6-.3-10.5-.6a7.9,7.9,0,0,0,2.6,5.1C62.7,52.2,73.1,53.6,73.1,53.6Z" style="fill:#dfe590;stroke:#c3bf4f;stroke-miterlimit:10;stroke-width:2px"/><path d="M75.2,59.8s.6-3.7-.7-5.7c-.1-.1-.2-.3-.4-.4-1.7-1.7-3.7-1.2-8.2-2.1a23.2,23.2,0,0,1-5.7-1.7h0c0,.2.8,4.7,3,6S68.3,61.4,75.2,59.8Z" style="fill:#dfe590;stroke:#c3bf4f;stroke-miterlimit:10;stroke-width:2px"/><path d="M74.9,63a5.2,5.2,0,0,0,.3-3.2h0c-.6-1.2-5.5-1.2-6.5-1.8l-5.5-2.1h0a8.6,8.6,0,0,0,2.2,6l.6.5C68.9,64.6,72.6,65,74.9,63Z" style="fill:#dfe590;stroke:#c3bf4f;stroke-miterlimit:10;stroke-width:2px"/><path d="M68.6,63.4a12.8,12.8,0,0,1,3.4-1l2.9.6s-.8,6-2.7,8a5.1,5.1,0,0,1-4.6,1.8c-.8-.1-4.1-1.2-4.2-2.5S68.6,63.4,68.6,63.4Z" style="fill:#dfe590;stroke:#c3bf4f;stroke-miterlimit:10;stroke-width:2px"/><path d="M62.6,63.7c1.8-.8,3.1-1.9,4-1.8s2.8-.2,2.4,2.4a8.2,8.2,0,0,1-3.8,5.8c-1.9,1.1-2.9,1-4.6-.4a7.9,7.9,0,0,1-2-4Z" style="fill:#dfe590;stroke:#c3bf4f;stroke-miterlimit:10;stroke-width:2px"/><path d="M10.7,3a3,3,0,0,1,1,.7h0a7.8,7.8,0,0,1,1.3,2,6.2,6.2,0,0,1-.1-1.3,4,4,0,0,1,.3-1.2l.9,1.7h0a1,1,0,0,1,.1.4,10.4,10.4,0,0,1,.4-1h0a1.7,1.7,0,0,1,.5-.6c-.2,1.6.9,3.5,1.7,4.6l.3.4a5.8,5.8,0,0,1,2.8,1l.4.2.8-.4.8-.2a2.7,2.7,0,0,1,2,1.1,7,7,0,0,1,2-.3,4,4,0,0,1,2.9,1.2,2.9,2.9,0,0,1,.4.8h.2c1.5.9,3.8,2.7,2.9,6.2l-.2.4h.2a2.8,2.8,0,0,1,2.1,1.5l1.6-.4h1.6l2.1.2c1.8.4,2.7,2.7,3,3.4h1.9a9.6,9.6,0,0,1,3.5.6,6.2,6.2,0,0,1,2.3,2.9h1.2a5.7,5.7,0,0,1,1.8.3,9,9,0,0,1,3.1,2.5A6.5,6.5,0,0,1,58.2,32h1.3a6.8,6.8,0,0,1,1.7.7,6.8,6.8,0,0,1,3,2.6,6.5,6.5,0,0,1,.9,3.1A7,7,0,0,1,68,39.8a4.2,4.2,0,0,1,1.6,2.1,5,5,0,0,1,0,3.9A5.2,5.2,0,0,1,71.3,47a8,8,0,0,1,2,4.3,3.2,3.2,0,0,1,0,1.7,2.7,2.7,0,0,1,.8.7c.2.1.3.3.4.4a5.7,5.7,0,0,1,.8,2.7H76A2.3,2.3,0,0,1,78.2,58a5.4,5.4,0,0,1,2.4,1.2,4.9,4.9,0,0,1,1.5,5.1,3.6,3.6,0,0,1,.2,3.7c-1.1,3.1-2.6,4-3.7,4.1h-.1A3.5,3.5,0,0,1,75.8,74l-.9-.2v.4a10.5,10.5,0,0,0,1.4,4.4l-.9-.5h0l-.5-.6V78h0v.5a5.1,5.1,0,0,1-1.4-1.9,18.1,18.1,0,0,0,1.4,4.2l-.9-.4h0a5.7,5.7,0,0,1-1.6-2.7,4.3,4.3,0,0,0,.2,1.7h0a8.6,8.6,0,0,0,1.3,2.8,6.6,6.6,0,0,1-2-1.9h0a5.3,5.3,0,0,1-.8-1.5,3.5,3.5,0,0,1,0,2.4,9.3,9.3,0,0,0-.7-1.3,2.7,2.7,0,0,0-.7-.8,9.1,9.1,0,0,0,.2,3.1s-.8-.2-1.4-2l-.3-1.7v-.2a13.8,13.8,0,0,0-.4,4,2.7,2.7,0,0,1-.9-1.1h0a4.3,4.3,0,0,1-.3-3.1,12.8,12.8,0,0,1-.9,1.4,5.7,5.7,0,0,1,.2-2,14.7,14.7,0,0,0-1.3,2.3,5.4,5.4,0,0,1,0-1.4,4,4,0,0,1,.3-1.5,7.4,7.4,0,0,1-1.6,1l-1.1.4,1.5-2.1h0a8.4,8.4,0,0,1-1.7.6h-.9a21.5,21.5,0,0,0,2.1-2.6h0l-.9.5h0l-1,.3a14,14,0,0,0,2.6-3.5.3.3,0,0,0,.1-.2l-.4-.5h-.5a4.5,4.5,0,0,1-2.5-1.1,7.9,7.9,0,0,1-2-4h0a2.7,2.7,0,0,1-1.2-2.6,4.9,4.9,0,0,1,1.7-3.5,5.1,5.1,0,0,1,3.6-3.4h.5v-.2c-2.2-1.3-3-5.8-3-6h0a7.9,7.9,0,0,1-2.6-5.1,18.7,18.7,0,0,1-4.2-3.4A20.9,20.9,0,0,0,52,39.7h0a16.5,16.5,0,0,1-5.1-2L44.4,36h0a12.4,12.4,0,0,1-4.7-2,17.4,17.4,0,0,0-1.8-1.2h0a15,15,0,0,1-4.3-.8,3.8,3.8,0,0,1-1.5-2.4h-.8c-1.3,0-3.9-.5-4.9-1.5s-.8-2.3-.8-2.3h-.3l-1-.2-.2.2a5.6,5.6,0,0,1-4.3,1.6,13.3,13.3,0,0,1-4.7-1A7.1,7.1,0,0,1,13.3,25a5.8,5.8,0,0,1-2.6-1.3,5.1,5.1,0,0,1-1.5-4.9,3.9,3.9,0,0,1-.5-1.3,8.1,8.1,0,0,1,0-2.2H8.5a23.3,23.3,0,0,0-4.7-2.1l1-.2H6.3l-.2-.2a8.7,8.7,0,0,0-3.1-2h.7l1.6.2,1.5.3h.1a13.9,13.9,0,0,0-2.6-2h.9l2,.4h0c-.5-.7-3.4-2-3.4-2l.7-.2h.3A9,9,0,0,1,9.3,9.2C8.6,7.5,5.6,6,5.6,6h.9a2.5,2.5,0,0,1,1.2.2h0a7,7,0,0,1,2.6,1.5h0A9.6,9.6,0,0,0,8.6,5.1h1a3.9,3.9,0,0,1,2,1.8l-.2-.6h0a8.7,8.7,0,0,1-.5-2.2c.1-1-.2-1.2-.2-1.2m0-3A3.2,3.2,0,0,0,8,1.6c-.1.2-.1.4-.2.6a3.7,3.7,0,0,0-1.2.7H6.5a6.4,6.4,0,0,0-2,.3A3,3,0,0,0,2.8,4.8h0a3,3,0,0,0-2,2.8,3.4,3.4,0,0,0,.1,1A3.4,3.4,0,0,0,0,10.8a3.2,3.2,0,0,0,.8,2.1v.3A3,3,0,0,0,2.9,16l2.7,1c.1.4.1.7.2,1.1l.3,1.2a7.9,7.9,0,0,0,2.6,6.6,7.5,7.5,0,0,0,3,1.8,13.3,13.3,0,0,0,1.9,1.4,14.6,14.6,0,0,0,6.2,1.4,9.4,9.4,0,0,0,3.9-.7l.6.5c1.5,1.5,4,2.1,5.8,2.3a5.5,5.5,0,0,0,2,2,15.4,15.4,0,0,0,4.8,1.2l.9.5a13.5,13.5,0,0,0,5.4,2.5l2,1.3a17.8,17.8,0,0,0,5.1,2.3l.6.7a17.5,17.5,0,0,0,3.9,3.5,12.8,12.8,0,0,0,2.6,4.8A16.1,16.1,0,0,0,58.7,55a7.4,7.4,0,0,0-2.1,2.8,8,8,0,0,0-2.2,5.3,5.9,5.9,0,0,0,1.5,4.2,10.5,10.5,0,0,0,2.8,4.6l.8.6-.3.3a3,3,0,0,0-.9,2.8,3.3,3.3,0,0,0,0,2.4,2.8,2.8,0,0,0,1.1,1.3.9.9,0,0,0,.3.6A3.1,3.1,0,0,0,62,81.3a3,3,0,0,0,2.2,1.4h.1a4.9,4.9,0,0,0,1.8,2.1,2.6,2.6,0,0,0,1.7.5,3.1,3.1,0,0,0,1.3-.3h.8a3.2,3.2,0,0,0,1.9-.7l.8.4,1.3.3a2.8,2.8,0,0,0,2.3-1,3,3,0,0,0,.6-1.1l.8-.9a2.3,2.3,0,0,0,.3-1.1c.2-.2.5-.4.6-.6a2.7,2.7,0,0,0,.3-3.4,2,2,0,0,0-.4-.8,7,7,0,0,0,1.9-1.6c1.7-.6,3.5-2.1,4.8-5.6a6.7,6.7,0,0,0,.1-5.4A7.6,7.6,0,0,0,82.6,57a7.3,7.3,0,0,0-2.5-1.5A5.1,5.1,0,0,0,77.7,54a5.2,5.2,0,0,0-.7-1.5l-.6-.8c0-.3-.1-.7-.1-1A12.2,12.2,0,0,0,73.5,45l-.5-.5a9,9,0,0,0-.5-3.6,7.1,7.1,0,0,0-2.7-3.5,13.2,13.2,0,0,0-2-1.2,8.9,8.9,0,0,0-1-2.3,10.8,10.8,0,0,0-4.3-3.8l-2.2-.9h-.1a13.3,13.3,0,0,0-1.4-1.9,11.2,11.2,0,0,0-4.3-3.2,5,5,0,0,0-2.4-.6A6.3,6.3,0,0,0,49.4,21a11.7,11.7,0,0,0-4.8-.9h-.1A6.8,6.8,0,0,0,40.2,17a10.9,10.9,0,0,0-2.6-.3H35.5a8.2,8.2,0,0,0-4-7l-.6-.7a6.9,6.9,0,0,0-5-2.1H24.7a5.1,5.1,0,0,0-2.8-.9l-1.5.3a5.9,5.9,0,0,0-1.6-.7A4.6,4.6,0,0,1,18,4a2.8,2.8,0,0,0-1.5-2.9A2.7,2.7,0,0,0,15.1.7h-.3A3,3,0,0,0,13.2.2h-1L11.6.1Z" style="fill:#928e31"/></g></g></g></svg>