<svg xmlns="http://www.w3.org/2000/svg" width="84.9" height="85.8" viewBox="0 0 84.9 85.8"><g id="Layer_2" data-name="Layer 2"><g id="Layer_3" data-name="Layer 3"><g id="dog_toy_2" data-name="dog_toy 2"><path d="M5.3,84.3H4.6A4.5,4.5,0,0,1,2,81.8c-1.4-2.8.5-5.5,1.5-6.9v-.2l.2-.3c1-1.6,2.1-3.1,3.1-4.4l.2-.2a3.9,3.9,0,0,1,.8-1,2.3,2.3,0,0,1,1.8-.7h.1l3.3-3.5A73.1,73.1,0,0,1,35,49.9a73.8,73.8,0,0,1,7.8-3l4.6-1.4-2.1-1.8c-.9-.7-3.4-2.6-1.9-5.1a2.8,2.8,0,0,1,2.4-1.5l1.2.2,1.5.2c4.1,0,8.5-2.9,8.8-7.6.1-1.1.1-2.7,1.5-3.8a3.6,3.6,0,0,1,2.3-.8,7.9,7.9,0,0,1,3.4,1l.8.3,2,.2a7.5,7.5,0,0,0,7.2-4.7.4.4,0,0,1,.1-.3,4.6,4.6,0,0,0,.5-1c.7-1.4,1.7-3.6,4.5-3.6h.7c3.6,1.8,3.2,7.9,3,11.5h0v.7A23.6,23.6,0,0,1,69.7,47.2a23.4,23.4,0,0,1-6.2,1.9h-.1l-2.3.3-3.9.6A84.9,84.9,0,0,0,29.7,60,64.4,64.4,0,0,0,16.8,70,38.3,38.3,0,0,0,14,72.9h0v.3h0a4.2,4.2,0,0,1-.9,2.2l-.4.6-.5.6L10,79.9l-.2.3-.2.3c-.7,1.3-1.7,3-3.1,3.6A2.5,2.5,0,0,1,5.3,84.3Z" style="fill:#6c9433"/><path d="M79.6,18.7h.1c2.8,1.4,2.3,7.3,2,10.4v.2A21.9,21.9,0,0,1,69.1,45.8a24.6,24.6,0,0,1-5.8,1.9l-2.4.2-4,.7a86.4,86.4,0,0,0-28,10.1A71.3,71.3,0,0,0,15.7,68.9l-2.8,3-.2.2c0,.1,0,.1-.1.1v.2a2,2,0,0,0-.1.7,2.6,2.6,0,0,1-.6,1.5l-.4.6-.5.6c-.8,1-1.5,2.1-2.3,3.3l-.4.6c-.6,1.1-1.4,2.6-2.4,3H5a3.1,3.1,0,0,1-1.6-1.6c-1.1-2.1.4-4.1,1.3-5.4l.4-.6a41.5,41.5,0,0,1,3-4.3l.2-.3.6-.7a1,1,0,0,1,.8-.3h.7l.5-.4H11a34,34,0,0,1,3.2-3.4A63.7,63.7,0,0,1,28.4,54.9a60.4,60.4,0,0,1,7.2-3.6,72.1,72.1,0,0,1,7.7-3,77.6,77.6,0,0,1,7.9-2.2,20.1,20.1,0,0,1-4.9-3.5c-.9-.7-2.5-1.9-1.6-3.2a1.2,1.2,0,0,1,1.1-.8l.8.2,1.9.2c5.1,0,9.9-3.6,10.3-9,.1-1,.1-2,.9-2.7a2.4,2.4,0,0,1,1.4-.5A11.5,11.5,0,0,1,64.8,28a10.7,10.7,0,0,0,2.5.3,9,9,0,0,0,8.6-5.7c.9-1.4,1.3-3.9,3.7-3.9m0-3h0c-3.7,0-5.2,3-5.8,4.5a5.6,5.6,0,0,1-.5.8l-.3.6c-.8,2.6-3.5,3.7-5.7,3.7l-1.6-.2-.6-.2a9.8,9.8,0,0,0-4-1.1A5,5,0,0,0,57.8,25a6.4,6.4,0,0,0-2,4.8c-.3,3.8-3.9,6.2-7.3,6.2H47.3a4.1,4.1,0,0,0-5.2,2c-.8,1.4-1.6,4,2.2,6.9l-1.9.7a77.1,77.1,0,0,0-8,3,65.9,65.9,0,0,0-7.5,3.8A69.8,69.8,0,0,0,12.1,63.4L9,66.6a3.6,3.6,0,0,0-2.1,1.1,3.5,3.5,0,0,0-1,1.2l-.2.2a50.9,50.9,0,0,0-3.1,4.5l-.3.3v.2C1.1,75.6-1.2,78.8.7,82.5a5.6,5.6,0,0,0,3.6,3.2h1A4.7,4.7,0,0,0,7,85.5c2-.8,3.1-2.8,3.9-4.3l.2-.3.2-.2,2.1-3.1v-.2l.3-.3h.1l.2-.2.2-.4a6,6,0,0,0,1.2-2.8h0A28.4,28.4,0,0,1,17.9,71a61.9,61.9,0,0,1,12.6-9.7,78.9,78.9,0,0,1,27-9.8l3.8-.6,2.3-.3h.2a28.1,28.1,0,0,0,6.6-2.1A24.9,24.9,0,0,0,84.8,29.7v-1c.2-4,.6-10.5-3.8-12.7a2.8,2.8,0,0,0-1.3-.3Z" style="fill:#507125"/><path d="M57,40.9A19.6,19.6,0,0,1,38.8,28.8a18.7,18.7,0,0,1-1.4-6.1,14.2,14.2,0,0,1,.2-4.6A19.5,19.5,0,0,1,49.4,3,20.2,20.2,0,0,1,57,1.5,19.8,19.8,0,0,1,75.2,13.6a20.5,20.5,0,0,1,1.5,5.9,17,17,0,0,1-.2,4.5A19.4,19.4,0,0,1,64.6,39.4,19.8,19.8,0,0,1,57,40.9Z" style="fill:#b9e48e"/><path d="M57,3A18.2,18.2,0,0,1,73.8,14.2a18,18,0,0,1,1.4,5.4,19.7,19.7,0,0,1-.1,4.2A18.1,18.1,0,0,1,64,38a17.2,17.2,0,0,1-7,1.4A18.2,18.2,0,0,1,40.2,28.2a18.4,18.4,0,0,1-1.4-5.6,20.3,20.3,0,0,1,.2-4.3A18.3,18.3,0,0,1,50,4.4,19.4,19.4,0,0,1,57,3m0-3h0a22.5,22.5,0,0,0-8.1,1.6A21,21,0,0,0,36.1,17.9a16.1,16.1,0,0,0-.2,4.9,21.1,21.1,0,0,0,1.5,6.6A21.2,21.2,0,0,0,78,24.2a19.3,19.3,0,0,0,.2-4.8,22.4,22.4,0,0,0-1.6-6.3A21.1,21.1,0,0,0,57,0Z" style="fill:#507125"/><path d="M75.2,19.6a19.7,19.7,0,0,1-.1,4.2A13.3,13.3,0,0,0,70,17.7a8.9,8.9,0,0,0-10.4.8c-1.8,1.6-3.2,3.8-5,5.7a9.4,9.4,0,0,1-9.3,3,11.8,11.8,0,0,1-6-4.1l-.5-.5a20.3,20.3,0,0,1,.2-4.3,26.5,26.5,0,0,0,2.6,3.9c3.4,3.7,7.9,3.9,11.5.6s7.1-8.2,13.1-7.9A13.1,13.1,0,0,1,75.2,19.6Z" style="fill:#f1f2f2;stroke:#f1f2f2;stroke-miterlimit:10"/><path d="M57,3A18.2,18.2,0,0,1,73.8,14.2a18,18,0,0,1,1.4,5.4,19.7,19.7,0,0,1-.1,4.2A18.1,18.1,0,0,1,64,38a17.2,17.2,0,0,1-7,1.4A18.2,18.2,0,0,1,40.2,28.2a18.4,18.4,0,0,1-1.4-5.6,20.3,20.3,0,0,1,.2-4.3A18.3,18.3,0,0,1,50,4.4,19.4,19.4,0,0,1,57,3m0-3h0a22.5,22.5,0,0,0-8.1,1.6A21,21,0,0,0,36.1,17.9a16.1,16.1,0,0,0-.2,4.9,21.1,21.1,0,0,0,1.5,6.6A21.2,21.2,0,0,0,78,24.2a19.3,19.3,0,0,0,.2-4.8,22.4,22.4,0,0,0-1.6-6.3A21.1,21.1,0,0,0,57,0Z" style="fill:#507125"/></g></g></g></svg>