<svg xmlns="http://www.w3.org/2000/svg" width="85.9" height="85.9" viewBox="0 0 85.9 85.9"><g id="Layer_2" data-name="Layer 2"><g id="Layer_3" data-name="Layer 3"><g id="dog_toy_1" data-name="dog_toy 1"><circle cx="43" cy="43" r="41.5" style="fill:#9be3bb"/><path d="M43,3A40,40,0,1,1,3,43,40,40,0,0,1,43,3m0-3A43,43,0,1,0,85.9,43,43.1,43.1,0,0,0,43,0Z" style="fill:#3b7e82"/><circle cx="43" cy="43" r="35.4" transform="translate(-6.3 78.5) rotate(-80.8)" style="fill:#c6f4d8"/><circle cx="43" cy="43" r="24.9" transform="translate(-6.3 78.5) rotate(-80.8)" style="fill:#9be3bb"/><path d="M31.4,49.2s-.7-5.3,2.8-6.5,6.6-2.4,7.6-3.3,4.7-1,5.7.6.8,3.8,2.1,7.1,1.7,5.5-1.6,6.7-6.1-3.8-8.9-3.9S33.4,51.9,31.4,49.2Z" style="fill:#3b7e82"/><path d="M53,45.8a2.8,2.8,0,0,1-2.5-3.3,1.3,1.3,0,0,1,.6-1c1.2-.8,4-3.3,5.9-1.2S56,46,53,45.8Z" style="fill:#3b7e82"/><path d="M42.8,35.8a2.7,2.7,0,0,1-4.1-.8,1.4,1.4,0,0,1-.2-1.1c.4-1.4.8-5.1,3.6-4.9S45.1,33.9,42.8,35.8Z" style="fill:#3b7e82"/><path d="M36.5,38.5a2.7,2.7,0,0,1-3.9,1.1,1.6,1.6,0,0,1-.7-.9c-.3-1.4-1.4-4.8,1.1-5.7S37.7,35.9,36.5,38.5Z" style="fill:#3b7e82"/><path d="M49.4,38a2.8,2.8,0,0,1-2.7-1.6c-1-1.9,2.8-6.7,5.3-4.5S50.8,37.8,49.4,38Z" style="fill:#3b7e82"/></g></g></g></svg>