<svg xmlns="http://www.w3.org/2000/svg" xmlns:xlink="http://www.w3.org/1999/xlink" width="86.8" height="76.1" viewBox="0 0 86.8 76.1"><defs><clipPath id="clip-path"><path d="M45.8,25.4l-8.1.2a68.2,68.2,0,0,0-17.8,3.3c2.7,1.3,7.9,2.9,15.4,3.6h1.2c2.2.2,4.6.3,7,.3h.6c13.7,0,22-2.8,24.5-4.6C62.9,26.6,54.8,25.5,45.8,25.4Z" style="fill:none"/></clipPath></defs><g id="Layer_2" data-name="Layer 2"><g id="Layer_2-2" data-name="Layer 2"><g id="cat_food_3" data-name="cat_food 3"><path d="M78.7,63.1c-7.2,3.7-20.2,6.3-35.2,6.5-23,.2-41.8-5.4-42-12.6l.2,6.1S7,76.2,47.3,74.4c17.2-.8,26.7-3.3,31.9-5.8l-.5-5.5Z" style="fill:#84205c"/><path d="M85.3,63.2l-.5-7.7h0v.6c.1,2.6-2.1,4.9-6.1,7h0l.5,5.5C84.8,65.8,85.3,63.2,85.3,63.2Z" style="fill:#ac538c"/><path d="M84.8,55.5h0v.6c.1,2.6-2.1,4.9-6.1,7-7.2,3.7-20.2,6.3-35.2,6.5-23,.2-41.8-5.4-42-12.6l.2,6.1S7,76.2,47.3,74.4c17.2-.8,26.7-3.3,31.9-5.8s6.1-5.4,6.1-5.4Z" style="fill:none;stroke:#84205c;stroke-linecap:round;stroke-linejoin:round;stroke-width:3px"/><path d="M42,57.9c2.9,1.1,4.1-2.5,4.1-2.5l30-1.4a4.5,4.5,0,0,0-1.4,2.5l10.1-1c-1.2-6.8-19.6-12.1-42-11.9a106.9,106.9,0,0,0-27.6,3.6l24.5,7.4S39.1,56.8,42,57.9Z" style="fill:#e8a4d2"/><path d="M78.7,63.1c4-2.1,6.2-4.4,6.1-7v-.6l-10.1,1C74.4,58.1,75,60.5,78.7,63.1Z" style="fill:#e8a4d2"/><path d="M74.7,56.5A4.5,4.5,0,0,1,76.1,54l-30,1.4S44.9,59,42,57.9s-2.3-3.3-2.3-3.3L15.2,47.2C6.7,49.6,1.4,53.2,1.5,57c.2,7.2,19,12.8,42,12.6,15-.2,28-2.8,35.2-6.5C75,60.5,74.4,58.1,74.7,56.5Z" style="fill:#d174b4"/><path d="M84.8,55.5c-1.2-6.8-19.6-12.1-42-11.9a106.9,106.9,0,0,0-27.6,3.6C6.7,49.6,1.4,53.2,1.5,57c.2,7.2,19,12.8,42,12.6,15-.2,28-2.8,35.2-6.5,4-2.1,6.2-4.4,6.1-7Z" style="fill:none;stroke:#84205c;stroke-miterlimit:10;stroke-width:3px"/><path d="M33.9,15.7a60.9,60.9,0,0,0-12-13.5,3.1,3.1,0,0,0-4.8,1.1C14.6,8.9,12.1,16.9,13,21" style="fill:#3b7e82;stroke:#28575c;stroke-linejoin:round;stroke-width:3px"/><path d="M52.8,15.7a60.9,60.9,0,0,1,12-13.5,3.1,3.1,0,0,1,4.8,1.1c2.4,5.6,5,13.6,4.1,17.7" style="fill:#6ab3b9;stroke:#28575c;stroke-linejoin:round;stroke-width:3px"/><path d="M36.5,31.6c2.1.2,4.3.3,6.7.3h.3C41.1,31.9,38.7,31.8,36.5,31.6Z" style="fill:none"/><path d="M77.6,25.5v.2C76,16.3,56.2,13.5,44.1,13.4a104.5,104.5,0,0,0-10.7.6c2.7,1,6.5,2.7,6.5,2.7h4.4c15.5.1,28,3.6,27.8,7.8,0,1.1-.9,2.2-2.5,3.1-4.5,2.6-14.2,4.4-25.5,4.3h-.9c-2.4,0-4.6-.1-6.7-.3h-.7v.3a32.1,32.1,0,0,0-1.1,4.4c-.2,1-.4,2.2-.6,3.5-.7,6.1-.5,14.8,4.2,22.3l4.1.2c28,.3,38.3-9.9,38.3-9.9Z" style="fill:#98d9e4"/><path d="M34,39.8c.2-1.3.4-2.5.6-3.5a32.1,32.1,0,0,1,1.1-4.4v-.3h-.5c-6.7-.6-12.4-1.8-15.8-3.5s-3.9-2.5-3.8-3.9c.2-3.8,10.7-6.9,24.2-7.4,0,0-3.8-1.7-6.5-2.7C22,15.2,9.8,18.6,9.4,26.6L6.1,52.2s11.6,8.7,32.1,9.9C33.5,54.6,33.3,45.9,34,39.8Z" style="fill:#6ab3b9"/><path d="M44.3,17.7H39.9c-13.5.5-24,3.6-24.2,7.4-.1,1.4,1.3,2.8,3.8,3.9h.4a68.2,68.2,0,0,1,17.8-3.3l8.1-.2c9,.1,17.1,1.2,22.8,2.9l1,.3c1.6-.9,2.5-2,2.5-3.1C72.3,21.3,59.8,17.8,44.3,17.7Z" style="fill:#3b7e82"/><path d="M45.8,25.4l-8.1.2a68.2,68.2,0,0,0-17.8,3.3c2.7,1.3,7.9,2.9,15.4,3.6h1.2c2.2.2,4.6.3,7,.3h.6c13.7,0,22-2.8,24.5-4.6C62.9,26.6,54.8,25.5,45.8,25.4Z" style="fill:none"/><g style="clip-path:url(#clip-path)"><path d="M45.8,25.4l-8.1.2a68.2,68.2,0,0,0-17.8,3.3c2.7,1.3,7.9,2.9,15.4,3.6h1.2c2.2.2,4.6.3,7,.3h.6c13.7,0,22-2.8,24.5-4.6C62.9,26.6,54.8,25.5,45.8,25.4Z" style="fill:#f2e1c4"/><path d="M46,24.1l-8.5.2a83.7,83.7,0,0,0-18.7,2.5c2.9,1.1,8.3,2.4,16.2,2.9h1.2q3.6.3,7.5.3h.5c14.4,0,23.1-2.2,25.7-3.6A116.9,116.9,0,0,0,46,24.1Z" style="fill:#fcf7f0"/></g><path d="M72.1,25.5c.2-4.2-12.3-7.7-27.8-7.8H39.9c-13.5.5-24,3.6-24.2,7.4-.1,1.4,1.3,2.8,3.8,3.9h0c2.7,1.4,8.3,2.8,15.8,3.5h1.2c2.2.2,4.6.3,7,.3h.6c11.3.1,21-1.7,25.5-4.3h0C71.2,27.7,72.1,26.6,72.1,25.5Z" style="fill:none;stroke:#3b7e82;stroke-linecap:round;stroke-linejoin:round;stroke-width:2px"/><path d="M77.6,25.5v.2C76,16.3,56.2,13.5,44.1,13.4a104.5,104.5,0,0,0-10.7.6C22,15.2,9.8,18.6,9.4,26.6L6.1,52.2s11.6,8.7,32.1,9.9l4.1.2c28,.3,38.3-9.9,38.3-9.9Z" style="fill:none;stroke:#28575c;stroke-linejoin:round;stroke-width:3px"/></g></g></g></svg>