<svg xmlns="http://www.w3.org/2000/svg" width="85.1" height="85.5" viewBox="0 0 85.1 85.5"><g style="isolation:isolate"><g id="Layer_2" data-name="Layer 2"><g id="Layer_2-2" data-name="Layer 2"><g id="cat_food_1" data-name="cat_food 1"><path d="M81.1,30C75.1,56.5,44,53.7,39.5,57.7s5.6,7.4-.9,17.8c-2.3,3.6-3.6,5.2-5.2,6.4a2.3,2.3,0,0,1-3.7-1,46.6,46.6,0,0,1-3.3-10.7c-.6-3.3.9-7.6,2.5-11.1a2,2,0,0,0-.3-2.2h-.1a1.8,1.8,0,0,0-2.1-.2c-3.4,1.6-7.7,3.2-11.1,2.6A42.2,42.2,0,0,1,4.6,56.1a2.3,2.3,0,0,1-1.1-3.7c1.2-1.6,2.9-2.9,6.5-5.3,10.2-6.6,13.8,3.5,17.7-1.1s.8-35.6,27.2-41.9a49.5,49.5,0,0,1,21.6.2l1.3.4a4.8,4.8,0,0,1,1.6,1.2,4.2,4.2,0,0,1,.8,1.2,5,5,0,0,1,.4,1.3A48.8,48.8,0,0,1,81.1,30Z" style="fill:#5576b4"/><path d="M81.1,30C75.1,56.5,44,53.7,39.5,57.7s5.6,7.4-.9,17.8c-2.3,3.6-3.6,5.2-5.2,6.4a2.3,2.3,0,0,1-3.7-1,46.6,46.6,0,0,1-3.3-10.7c-.6-3.3.9-7.6,2.5-11.1a2,2,0,0,0-.3-2.2h-.1l50.9-51a4.2,4.2,0,0,1,.8,1.2,5,5,0,0,1,.4,1.3A48.8,48.8,0,0,1,81.1,30Z" style="fill:#cecece"/><path d="M80.2,7.1a5,5,0,0,1,.4,1.3A48.8,48.8,0,0,1,81.1,30C75.1,56.5,44,53.7,39.5,57.7s5.6,7.4-.9,17.8c-2.3,3.6-3.6,5.2-5.2,6.4a2.3,2.3,0,0,1-3.7-1c-.5-1-.9-2.2-1.4-3.4s1.8-2.5,3.1-4.4c6.5-10.4-3.7-13.9.9-17.8s35.5-1.2,41.6-27.7A48.9,48.9,0,0,0,73.4,6L73,4.7l-.8-1.2,4.3.8,1.3.4A4.3,4.3,0,0,1,80.2,7.1Z" style="fill:#cecece;mix-blend-mode:multiply"/><circle cx="62.5" cy="14.9" r="3.9" style="fill:#335394"/><path d="M35.9,39.2h0a1.4,1.4,0,0,1-1.3-1.5,50.1,50.1,0,0,1,5.2-17.9,1.3,1.3,0,0,1,1.9-.5h0a1.4,1.4,0,0,1,.5,1.8A48.5,48.5,0,0,0,37.3,38,1.4,1.4,0,0,1,35.9,39.2Z" style="fill:#335394"/><path d="M44.1,16.3h0a1.3,1.3,0,0,1-.2-2L45,13.1a1.4,1.4,0,0,1,2,.2h0a1.4,1.4,0,0,1-.2,1.8l-.9,1A1.4,1.4,0,0,1,44.1,16.3Z" style="fill:#335394"/><path d="M69.4,29.5c-7.7.9-14.9-4.1-15.2-4.3L55.7,23c.1,0,6.7,4.6,13.4,3.9Z" style="fill:#335394"/><path d="M69.3,36.7c-12.4.2-18.9-5.5-19.1-5.8L52,29l-.9.9.9-1a14.5,14.5,0,0,0,4.4,2.7,29.7,29.7,0,0,0,12.9,2.5Z" style="fill:#335394"/><path d="M64.7,3a60.9,60.9,0,0,1,9.3.8l2.5.5,1.3.4.7.4a4.7,4.7,0,0,1,1.4,1.4l.3.6a5,5,0,0,1,.4,1.3,52,52,0,0,1,1.1,18.4L81.1,30a28.2,28.2,0,0,1-8.4,14.9C61.2,55.5,42.9,54.7,39.5,57.7s-.4,4.3.7,7.5,1.3,5.7-1.6,10.3-3.6,5.2-5.2,6.4a2.5,2.5,0,0,1-1.6.6h-.1a2.3,2.3,0,0,1-2-1.6l-.9-2.1a1.4,1.4,0,0,0-.2-.6l-.3-.7h0a41.1,41.1,0,0,1-1.9-7.3c-.6-3.3.9-7.6,2.5-11.1a2,2,0,0,0-.3-2.2,2.1,2.1,0,0,0-1.3-.5,1.6,1.6,0,0,0-.9.3c-3,1.4-6.5,2.7-9.6,2.7H15.3A42.2,42.2,0,0,1,4.6,56.1a2.3,2.3,0,0,1-1.1-3.7c1.2-1.6,2.9-2.9,6.5-5.3a12.7,12.7,0,0,1,6.8-2.3c3.9,0,6.4,2.5,8.6,2.5A2.9,2.9,0,0,0,27.7,46c3.9-4.5.8-35.6,27.2-41.9A42.7,42.7,0,0,1,64.7,3m0-3A44.4,44.4,0,0,0,54.2,1.2C32.7,6.3,29,26.7,27,37.6c-.5,2.6-1.1,5.8-1.6,6.5s-.1.1-.1.2l-1.7-.7a14.9,14.9,0,0,0-6.8-1.8,15.6,15.6,0,0,0-8.5,2.8c-3.4,2.3-5.6,3.9-7.2,6.1a5.7,5.7,0,0,0-.9,4.7,5.5,5.5,0,0,0,3.2,3.5,57.5,57.5,0,0,0,11.5,3.4h1.9A23,23,0,0,0,25,60.6c-1.5,4-2.1,7.4-1.6,10.1a49.5,49.5,0,0,0,2,7.5v.3c.1.2.1.4.2.5v.3h.1a4.3,4.3,0,0,0,.1.5c.4.9.7,1.6.9,2.2a5.6,5.6,0,0,0,4.6,3.4h.3a5.4,5.4,0,0,0,3.4-1.2c2.2-1.6,3.8-3.8,5.9-7.2s3.5-8.6,1.9-12.9c-.3-.9-.7-1.7-1-2.4s-.6-1.3-.7-1.7.1-.1.2-.2,3.9-1.1,6.5-1.6c7.4-1.4,18.6-3.6,26.7-11.2A30.6,30.6,0,0,0,84,30.7c.3-1.1.5-2.3.7-3.4A56.2,56.2,0,0,0,83.5,7.7,8.4,8.4,0,0,0,83,6a3.6,3.6,0,0,0-.6-1.1,6.3,6.3,0,0,0-2.3-2.3l-1.2-.7-1.7-.5L74.6.9A56.9,56.9,0,0,0,64.7,0Z" style="fill:#335394"/></g></g></g></g></svg>