<svg xmlns="http://www.w3.org/2000/svg" width="86.5" height="84" viewBox="0 0 86.5 84"><g id="Layer_2" data-name="Layer 2"><g id="Layer_2-2" data-name="Layer 2"><g id="cat_food_4" data-name="cat_food 4"><path d="M78.5,71c-7.3,3.7-20.2,6.3-35.1,6.5C20.5,77.7,1.7,72.1,1.5,65l.2,6.1S7,84.1,47.1,82.3c17.2-.8,26.6-3.3,31.8-5.8L78.5,71Z" style="fill:#924f28"/><path d="M85,71.2l-.5-7.7h0a1.3,1.3,0,0,0,.1.6c0,2.5-2.2,4.9-6.1,6.9h0l.4,5.5C84.5,73.8,85,71.2,85,71.2Z" style="fill:#af7553"/><path d="M84.5,63.5h0a1.3,1.3,0,0,0,.1.6c0,2.5-2.2,4.9-6.1,6.9-7.3,3.7-20.2,6.3-35.1,6.5C20.5,77.7,1.7,72.1,1.5,65l.2,6.1S7,84.1,47.1,82.3c17.2-.8,26.6-3.3,31.8-5.8S85,71.2,85,71.2Z" style="fill:none;stroke:#6a3417;stroke-linecap:round;stroke-linejoin:round;stroke-width:3px"/><path d="M84.5,63.5C83.3,56.6,65,51.3,42.7,51.6,32,51.7,22.4,53,15.1,55.2l24.5,7.3s-.7,2.2,2.3,3.3,4-2.5,4-2.5l30-1.4a5.1,5.1,0,0,0-1.4,2.5c-.4,1.7.2,4,4,6.6,3.9-2,6.1-4.4,6.1-6.9A1.3,1.3,0,0,1,84.5,63.5Z" style="fill:#ddab88"/><path d="M74.5,64.4a5.1,5.1,0,0,1,1.4-2.5l-30,1.4s-1.1,3.6-4,2.5-2.3-3.3-2.3-3.3L15.1,55.2C6.7,57.6,1.4,61.1,1.5,65c.2,7.1,19,12.7,41.9,12.5,14.9-.2,27.8-2.8,35.1-6.5C74.7,68.4,74.1,66.1,74.5,64.4Z" style="fill:#af7553"/><path d="M84.5,63.5C83.3,56.6,65,51.3,42.7,51.6,32,51.7,22.4,53,15.1,55.2S1.4,61.1,1.5,65c.2,7.1,19,12.7,41.9,12.5,14.9-.2,27.8-2.8,35.1-6.5,3.9-2,6.1-4.4,6.1-6.9A1.3,1.3,0,0,1,84.5,63.5Z" style="fill:none;stroke:#6a3417;stroke-miterlimit:10;stroke-width:3px"/><path d="M43.2,70.6C24.7,70.6,5,66.4,5,58.5L4.7,13.9a1.5,1.5,0,0,1,.4-1.1,1.5,1.5,0,0,1,1.1-.4H9.4C16,8.6,28.8,6.2,43.2,6.2h.3c14.2,0,27,2.3,33.5,6h3.3a1.5,1.5,0,0,1,1.5,1.5l.3,44.5a6,6,0,0,1-1.9,4.1c-4.9,4.9-19.6,8.3-36.6,8.3Z" style="fill:#6ab3b9"/><path d="M43.5,7.7c14.6,0,27.1,2.4,33.1,6h3.7l.3,44.5c0,6-16.5,10.9-37,10.9h-.4c-20.3,0-36.7-4.7-36.7-10.7L6.2,13.9H9.8c6-3.7,18.7-6.2,33.4-6.2h.3m0-3h-.3C28.9,4.7,15.9,7.1,9,10.9H6.2a3.1,3.1,0,0,0-2.2.9,3,3,0,0,0-.8,2.1l.3,44.6c0,9.4,20.6,13.6,39.7,13.6h.4c17.7,0,32.4-3.5,37.7-8.7a7.4,7.4,0,0,0,2.3-5.2l-.3-44.5a3,3,0,0,0-3-3H77.4c-6.9-3.7-19.7-6-33.9-6Z" style="fill:#28575c"/><path d="M42.9,26.1c-18.5,0-38.2-4.3-38.2-12.2A5.6,5.6,0,0,1,6.5,9.8c4.9-4.9,19.6-8.3,36.6-8.3h.4C62,1.5,81.7,5.8,81.8,13.7a5.8,5.8,0,0,1-1.9,4.1C75,22.7,60.3,26,43.3,26.1Z" style="fill:#cecece"/><path d="M43.5,3C63.8,3,80.2,7.8,80.3,13.7s-16.5,10.8-37,10.9h-.4c-20.3,0-36.7-4.8-36.7-10.7S22.7,3.1,43.1,3h.4m0-3V0h-.4C25.5,0,10.7,3.5,5.5,8.7a7,7,0,0,0-2.3,5.2c0,9.4,20.6,13.7,39.7,13.7h.4C61,27.5,75.7,24.1,81,18.8a7.3,7.3,0,0,0,2.3-5.1C83.2,4.3,62.6,0,43.5,0Z" style="fill:#28575c"/><path d="M30.5,7.1a12.9,12.9,0,0,1,2.9.3c5.1,1.6,5.9,7.7-.9,8.5-2,.2-4.3.3-6.6.3-6.2,0-12.8-.7-13.4-1.9s-2.3-2.5.5-3.4S24.5,7.1,30.5,7.1m-5.1,7.5c3.2,0,8-.3,9-.8S35.4,8,30.9,8H30s-7.9.9-8.5,1.6-.2,4.4,1.4,4.8h2.5m5.1-9.5c-5.8,0-14.3,2.7-17.4,3.7l-.7.2a3.7,3.7,0,0,0-2.7,2.5,4.6,4.6,0,0,0,1.2,4c.6.9,2,1.7,5.9,2.2a81.7,81.7,0,0,0,9.1.5,46.1,46.1,0,0,0,6.8-.4c4.6-.5,6.5-3.1,6.7-5.4s-2-5.8-5.5-6.9a11.3,11.3,0,0,0-3.4-.4Zm-7.3,6.1c1.4-.4,4.5-.8,7-1.2h.7c1.1,0,1.5.4,1.7.7a2.7,2.7,0,0,1,.4,1.4,47.7,47.7,0,0,1-7.6.5H23.5a5.8,5.8,0,0,1-.3-1.4Z" style="fill:#575757"/><path d="M33.4,7.4C28.2,5.9,15.7,10.1,13,10.9s-.5,3.4-.5,3.4c.9,1.6,13.1,2.3,20,1.6S38.5,9,33.4,7.4Zm1,6.4c-1.3.7-10,1-11.5.7s-2.1-4-1.4-4.8S30,8.1,30,8.1C35.4,7.3,35.6,13.1,34.4,13.8Z" style="fill:#8d8d8d"/><path d="M72.8,52.3c-1.6.7-6.6-1.6-9.3-3.8-3.3,2.9-10.3,7.4-23,7.9a43.5,43.5,0,0,1-7.4-.3,28.7,28.7,0,0,1-14.4-5.9,3.1,3.1,0,0,1-1.4-2.4,3.7,3.7,0,0,1,2.4-3.6A50.2,50.2,0,0,1,34.8,40l4.8-.4a59.4,59.4,0,0,1,23,5.1c1.6-2.2,5.5-7.3,7-7.2s-1,7.7-1,7.7a35.2,35.2,0,0,1,2.5,2.6C72.6,49.5,74.1,51.7,72.8,52.3Z" style="fill:#5576b4"/><path d="M72.8,52.3c-1.6.7-6.6-1.6-9.3-3.8-3.3,2.9-10.3,7.4-23,7.9a43.5,43.5,0,0,1-7.4-.3,28.7,28.7,0,0,1-14.4-5.9,3.1,3.1,0,0,1-1.4-2.4H71.1C72.6,49.5,74.1,51.7,72.8,52.3Z" style="fill:#cecece"/></g></g></g></svg>