<svg xmlns="http://www.w3.org/2000/svg" width="87.2" height="85.8" viewBox="0 0 87.2 85.8"><g style="isolation:isolate"><g id="Layer_2" data-name="Layer 2"><g id="Layer_2-2" data-name="Layer 2"><g id="cat_food_2" data-name="cat_food 2"><ellipse cx="43.6" cy="71.8" rx="37.8" ry="11.2" style="fill:#baa2ee"/><ellipse cx="43.6" cy="70.6" rx="41.2" ry="11.4" style="fill:#f3ebfc"/><ellipse cx="43.6" cy="69.5" rx="41.2" ry="11.4" style="fill:#dcb8fe"/><ellipse cx="47.1" cy="70.7" rx="30.6" ry="7.9" style="fill:#baa2ee"/><path d="M43.6,58.3c22.4,0,40.6,5.1,40.6,11.2v1.1c0,2.7-3.5,5.2-9.3,7.1s-18.1,5.1-31.3,5.1-24.7-2-31.3-5.1S3,73.3,3,70.6V69.5c0-6.1,18.2-11.2,40.6-11.2m0-3C22.6,55.3,0,59.8,0,69.5v1.1c0,4.1,3.8,7.4,11.2,9.9s19.4,5.3,32.4,5.3,25.2-2,32.4-5.3,11.2-5.8,11.2-9.9V69.5c0-9.7-22.6-14.2-43.6-14.2Z" style="fill:#7850b3"/><path d="M79.4,7.1H77.9c-.1.2-.4.3-.6.4l-.6.4a6.7,6.7,0,0,0-1.4,1.5,6.7,6.7,0,0,1,1.4-1.5l.6-.4c.2-.1.5-.2.6-.4h0l-1.4.2a5,5,0,0,0-1.7-2.6A6.5,6.5,0,0,0,70.1,3l-1.2.2h-.7c0,.1-.1.1-.2.1H66.8l-.2.2h-.3l-.2.2h-.2c0,.1-.1.1-.1.2a4.4,4.4,0,0,0-1.4,4.4,6.5,6.5,0,0,1,.6,2.4c.2,2.6-1.6,4.7-3.5,6.7l2.1,1a24.6,24.6,0,0,1,3.2,1.9l2.1,1.5,1.8-2a12.3,12.3,0,0,1,6.1-3.1,11.3,11.3,0,0,0,1.8-.3h2c0-.1.1-.1.2-.2h.3c0-.1.1-.1.2-.2h.2l.3-.2.2-.2c0-.1.1-.1.2-.2l.2-.2.2-.2V15c.1-.1.2-.2.2-.3l.2-.2v-.2a.4.4,0,0,0,.1-.3l.2-.2a.4.4,0,0,1,.1-.3.4.4,0,0,1,.1-.3V13c0-.1.1-.2.1-.3v-.5a.4.4,0,0,0,.1-.3v-.3c-.1,0-.1-.1-.1-.2v-.3a4.5,4.5,0,0,0-2.4-3.2A7,7,0,0,0,79.4,7.1ZM70.6,3.9l.7.4-.7-.4h0Zm-1.7-.7h0l.3.2Zm2.7,13.9-.8.5-.4.2.4-.2.8-.5A11.9,11.9,0,0,1,74.2,16,11.9,11.9,0,0,0,71.6,17.1Zm8.9-7.6h0v0Zm-.4-1.3V8c-.1-.1-.1-.1-.1-.2s0,.1.1.2Zm-.3-.5V7.5c-.1,0-.1-.1-.2-.2s.1.2.2.2Z" style="fill:#fef4cf"/><path d="M68.6,19.4l1-1,1.2-.8A10.6,10.6,0,0,1,74.2,16l2.6-.7a5.9,5.9,0,0,0,3.7-3.7v-.3c0-.1.1-.2.1-.3V9.7c0-.1,0-.2-.1-.2V9a.4.4,0,0,0-.1-.3c0-.1,0-.2-.1-.2s-.1-.2-.1-.3V8c-.1-.1-.1-.2-.2-.2V7.5l-.3-.4a7,7,0,0,1,2,.8,4.5,4.5,0,0,1,2.4,3.2v.3c0,.1,0,.2.1.2v.3a.4.4,0,0,1-.1.3v.5c0,.1-.1.2-.1.3v.2a.4.4,0,0,0-.1.3.4.4,0,0,0-.1.3l-.2.2a.4.4,0,0,1-.1.3v.2l-.2.2c0,.1-.1.2-.2.3v.2l-.2.2-.2.2c-.1.1-.2.1-.2.2l-.2.2-.3.2h-.2c-.1.1-.2.1-.2.2h-.3c-.1.1-.2.1-.2.2h-2a11.3,11.3,0,0,1-1.8.3,12.3,12.3,0,0,0-6.1,3.1l-1.8,2-2.1-1.5A10.7,10.7,0,0,0,68.6,19.4Z" style="fill:#fcc373;mix-blend-mode:multiply;opacity:0.48"/><path d="M76.7,7.9A10.3,10.3,0,0,0,74.3,11a19.3,19.3,0,0,0-.1-2.4,6.8,6.8,0,0,0-3.6-4.7c-.5-.2-1.4-.3-1.7-.7h0L70.1,3a6.5,6.5,0,0,1,4.7,1.7,5,5,0,0,1,1.7,2.6l1.4-.2h0C77.6,7.4,77,7.6,76.7,7.9Z" style="fill:#fcc373;mix-blend-mode:multiply;opacity:0.48"/><path d="M79.7,7.5v.3c.1,0,.1.1.2.2v.2c0,.1.1.2.1.3s.1.1.1.2a.4.4,0,0,1,.1.3v.5c.1,0,.1.1.1.2V11c0,.1-.1.2-.1.3v.3a5.9,5.9,0,0,1-3.7,3.7l-2.6.7a10.6,10.6,0,0,0-3.4,1.6l-1.2.8-1,1a10.7,10.7,0,0,1-1.8,1.9,24.6,24.6,0,0,0-3.2-1.9l-2.1-1c1.9-2,3.7-4.1,3.5-6.7a6.5,6.5,0,0,0-.6-2.4,4.4,4.4,0,0,1,1.4-4.4c0-.1.1-.1.1-.2h.2l.2-.2h.3l.2-.2H68c.1,0,.2,0,.2-.1h.7c.3.4,1.2.5,1.7.7a6.8,6.8,0,0,1,3.6,4.7,19.3,19.3,0,0,1,.1,2.4,10.3,10.3,0,0,1,2.4-3.1c.3-.3.9-.5,1.2-.8h1.5Z" style="fill:#fef4cf"/><path d="M70.1,3a6.5,6.5,0,0,1,4.7,1.7,5,5,0,0,1,1.7,2.6l1.4-.2h0c-.1.2-.4.3-.6.4h0l-.6.4-.7.7a2.7,2.7,0,0,0-.7.8,2.7,2.7,0,0,1,.7-.8l.7-.7.6-.4h0c.2-.1.5-.2.6-.4h1.5a7,7,0,0,1,2,.8,4.5,4.5,0,0,1,2.4,3.2v.3c0,.1,0,.2.1.2v.3a.4.4,0,0,1-.1.3v.5c0,.1-.1.2-.1.3v.2a.4.4,0,0,0-.1.3.4.4,0,0,0-.1.3l-.2.2a.4.4,0,0,1-.1.3v.2l-.2.2c0,.1-.1.2-.2.3v.2l-.2.2-.2.2c-.1.1-.2.1-.2.2l-.2.2-.3.2h-.2c-.1.1-.2.1-.2.2h-.3c-.1.1-.2.1-.2.2h-2a11.3,11.3,0,0,1-1.8.3,12.3,12.3,0,0,0-6.1,3.1l-1.8,2-2.1-1.5a24.6,24.6,0,0,0-3.2-1.9l-2.1-1c1.9-2,3.7-4.1,3.5-6.7a6.5,6.5,0,0,0-.6-2.4,4.4,4.4,0,0,1,1.4-4.4c0-.1.1-.1.1-.2h.2l.2-.2h.3l.2-.2H68c.1,0,.2,0,.2-.1h.7L70.1,3m-.9.4-.3-.2h0l.3.2m1.4.5.7.4-.7-.4h0m9.2,3.8V7.5c-.1,0-.1-.1-.2-.2s.1.2.2.2v.2M80,8V8c-.1-.1-.1-.1-.1-.2s0,.1.1.2m.5,1.5h0v0m-8.9,7.6h0l-.8.5-.4.2.4-.2.8-.5h0A11.9,11.9,0,0,1,74.2,16a11.9,11.9,0,0,0-2.6,1.1M70.1,0h-.3L68.3.2H66.7l-.3.2h-.3l-.3.2h-.3l-.3.2-.3.2-.3.2c-.1,0-.1.1-.2.2l-.3.2-.2.2-.3.3a7.7,7.7,0,0,0-2.1,7.3l.3.8a4.4,4.4,0,0,1,.2,1c.1,1.3-1.2,2.9-2.7,4.3a3.2,3.2,0,0,0-.8,2.8,2.8,2.8,0,0,0,1.8,2.1l1.9.9h.1a18.7,18.7,0,0,1,2.8,1.6h0l1.5,1,.5.4a3,3,0,0,0,1.8.6,2.9,2.9,0,0,0,2.3-1l.2-.2A10.7,10.7,0,0,1,72.8,23a8.8,8.8,0,0,1,4.5-2.3h.6l1.3-.2h1.2l.4-.2h.4l.4-.2.3-.2.4-.2.4-.2.3-.2.3-.2.4-.3L84,18l.3-.2.3-.3c.1-.1.2-.2.2-.3l.3-.4.3-.3c.1-.1.1-.3.2-.4a.5.5,0,0,0,.2-.4.5.5,0,0,0,.2-.4.5.5,0,0,0,.2-.4l.2-.4c0-.1.1-.2.1-.4a.6.6,0,0,0,.1-.4.8.8,0,0,0,.1-.4.9.9,0,0,0,.1-.5v-.4a.9.9,0,0,0,.1-.5.6.6,0,0,0-.1-.4v-.9A8.1,8.1,0,0,0,83,5.3a9.8,9.8,0,0,0-3-1.1L78.5,4h-.3a5.5,5.5,0,0,0-1.4-1.7A9.7,9.7,0,0,0,70.1,0Z" style="fill:#b25c22"/><path d="M64.7,22c1.5.9,3.6,2.5,4.2,4.1s-1.4,3.4-2.7,4.9a9,9,0,0,0-1.7,3,18.7,18.7,0,0,0-1.1,7v2.8c0,.4-.1.7-.1,1.1a4.5,4.5,0,0,1-.1,1.1c0,.3-.1.7-.1,1s-.1.7-.2,1.1a3.6,3.6,0,0,1-.2,1,4.3,4.3,0,0,1-.2,1.1,3.6,3.6,0,0,0-.2,1L62,52.3a4.2,4.2,0,0,1-.4,1l-.3,1a10.4,10.4,0,0,1-.4,1c-.1.4-.3.7-.4,1.1a10.4,10.4,0,0,0-.4,1,3.1,3.1,0,0,0-.5,1,4.1,4.1,0,0,0-.5.9l-.6,1A30.4,30.4,0,0,1,41.6,74.1a26.7,26.7,0,0,1-14,.8,14,14,0,0,1-3.5-1,18.5,18.5,0,0,1-2.9-1.3,13.8,13.8,0,0,1-2.5-1.7c8.6-.7,16.3-5,22-10.7A48.9,48.9,0,0,0,52.3,41.5c1-3,1.8-6.3,3.6-9.1a22.4,22.4,0,0,1,3.4-4.2,13.4,13.4,0,0,0,2.3-2.5,3,3,0,0,0,.6-2,4.5,4.5,0,0,0-2-3.4l-1-.6a3.4,3.4,0,0,1-1.2-.4v-.2a15.8,15.8,0,0,1,4.7,1.8Z" style="fill:#c9784b"/><path d="M58,19.3v-.2H56.8l-.7.2c-1.9.5-2.3,2.1-3.3,3.3l-.6.8-.8.8-.9.6a2.2,2.2,0,0,1-.9.7c-2.7,1.6-5.8,2.1-8.9,2.9A43.8,43.8,0,0,0,20.3,39.2c-5.3,5.1-8.8,11.7-8.6,18.4a18,18,0,0,0,7,13.3c8.6-.7,16.3-5,22-10.7A48.9,48.9,0,0,0,52.3,41.5c1-3,1.8-6.3,3.6-9.1a22.4,22.4,0,0,1,3.4-4.2,13.4,13.4,0,0,0,2.3-2.5,3,3,0,0,0,.6-2,4.5,4.5,0,0,0-2-3.4l-1-.6A3.4,3.4,0,0,1,58,19.3Z" style="fill:#dd8c54"/><path d="M42.6,47.4a3,3,0,0,0,2-1.4,2.6,2.6,0,0,0,.1-2.1,2.6,2.6,0,0,1,1.5.7,2.1,2.1,0,0,1,.3,1.7,3.1,3.1,0,0,1-1.3,1.5,3,3,0,0,1-1.6.2A1.7,1.7,0,0,1,42.6,47.4Z" style="fill:#fcc373;mix-blend-mode:color-dodge;opacity:0.18"/><path d="M35.6,54.3a3.8,3.8,0,0,0,2.2-1.1,2.8,2.8,0,0,0,.4-2.3,2.6,2.6,0,0,1,1.5.9h0a2,2,0,0,1-.1,1.7A2.9,2.9,0,0,1,38.1,55a2.9,2.9,0,0,1-1.6,0A1.6,1.6,0,0,1,35.6,54.3Z" style="fill:#fcc373;mix-blend-mode:color-dodge;opacity:0.18"/><path d="M25.9,51a1.8,1.8,0,0,1-.5-.7,3.4,3.4,0,0,0,2.3-1.1,2.4,2.4,0,0,0,.6-2.1,2.3,2.3,0,0,1,1.4,1,2.4,2.4,0,0,1-.6,2.1,2.9,2.9,0,0,1-1.8,1A1.7,1.7,0,0,1,25.9,51Z" style="fill:#fcc373;mix-blend-mode:color-dodge;opacity:0.18"/><path d="M47,34.5a1.7,1.7,0,0,1,1.4.7l.2.2a2.1,2.1,0,0,1-.2,1.9,3.1,3.1,0,0,1-1.7,1.3,2.2,2.2,0,0,1-1.4,0,2.7,2.7,0,0,1-.8-.7,3.1,3.1,0,0,0,2.2-1.4A2.1,2.1,0,0,0,47,34.5Z" style="fill:#fcc373;mix-blend-mode:color-dodge;opacity:0.18"/><path d="M29.5,62.3a3.9,3.9,0,0,0,2.2-1.1,3.2,3.2,0,0,0,.5-2.3c.7.3,1.2.5,1.5,1.1a2.1,2.1,0,0,1-.4,2h-.2a.1.1,0,0,1-.1.1.1.1,0,0,1-.1.1h-.1a.1.1,0,0,0-.1.1H31.6a2,2,0,0,1-1.5-.2A1.2,1.2,0,0,1,29.5,62.3Z" style="fill:#fcc373;mix-blend-mode:color-dodge;opacity:0.18"/><path d="M33.3,42.1a3.6,3.6,0,0,0,2.2-1.3,3.2,3.2,0,0,0,.4-2.1,2.3,2.3,0,0,1,1.5,1,2.1,2.1,0,0,1-.2,1.9,2.6,2.6,0,0,1-1.7,1.2,1.9,1.9,0,0,1-1.5,0A1.6,1.6,0,0,1,33.3,42.1Z" style="fill:#fcc373;mix-blend-mode:color-dodge;opacity:0.18"/><path d="M22.8,60.2a2.3,2.3,0,0,1,1.4.9c0,.1.1.2.1.3a2.4,2.4,0,0,1-.5,2A3.1,3.1,0,0,1,22,64.5a2.1,2.1,0,0,1-1.5-.3l-.6-.6a3.2,3.2,0,0,0,2.3-1.1A2.4,2.4,0,0,0,22.8,60.2Z" style="fill:#fcc373;mix-blend-mode:color-dodge;opacity:0.18"/><path d="M58,21.1a.9.9,0,0,1,0,.7c0,.1-.1.2-.1.4a29.8,29.8,0,0,1-5.7,5.5c-4.6,3.2-10.1,4.7-15.1,7.6l-2.6,1.6c-1.2.8-2.9,2.2-4.4,2.5a2.3,2.3,0,0,1-1.6-.2,1.1,1.1,0,0,1-.6-1V38a3.7,3.7,0,0,1,1.8-2.3c3.5-2.3,8.7-3.6,12.8-5a39.3,39.3,0,0,0,6.6-3,19.3,19.3,0,0,0,6.7-5.6c.4-.5.9-1.3,1.6-1.2A1.1,1.1,0,0,1,58,21.1Z" style="fill:#fcc373;mix-blend-mode:color-dodge;opacity:0.18"/><path d="M26.7,40.6a1.5,1.5,0,0,1,.6,1.3,4.2,4.2,0,0,1-.4,1.5c-.8,1.5-1.8,2.9-2.8,4.4a30.7,30.7,0,0,0-4.5,9.5c-.3,1.3-.4,3.3-2.1,4a2.9,2.9,0,0,1-1.3,0,3.5,3.5,0,0,1-1.8-2,3.2,3.2,0,0,1-.3-1.4c-.5-4.7,2.7-10.8,6.2-14.5,1.2-1.2,2.9-2.9,4.8-3.1A2.1,2.1,0,0,1,26.7,40.6Z" style="fill:#fcc373;mix-blend-mode:color-dodge;opacity:0.18"/><path d="M58,19.1H56.8l-.7.2c-1.9.5-2.3,2.1-3.3,3.3l-.6.8-.8.8-.9.6a2.2,2.2,0,0,1-.9.7c-2.7,1.6-5.8,2.1-8.9,2.9A43.8,43.8,0,0,0,20.3,39.2c-5.3,5.1-8.8,11.7-8.6,18.4a18,18,0,0,0,7,13.3,13.8,13.8,0,0,0,2.5,1.7,18.5,18.5,0,0,0,2.9,1.3,14,14,0,0,0,3.5,1,26.7,26.7,0,0,0,14-.8A30.4,30.4,0,0,0,58.5,60.3l.6-1a4.1,4.1,0,0,1,.5-.9,3.1,3.1,0,0,1,.5-1,10.4,10.4,0,0,1,.4-1c.1-.4.3-.7.4-1.1a10.4,10.4,0,0,0,.4-1l.3-1a4.2,4.2,0,0,0,.4-1l.3-1.1a3.6,3.6,0,0,1,.2-1,4.3,4.3,0,0,0,.2-1.1,3.6,3.6,0,0,0,.2-1c.1-.4.1-.7.2-1.1s.1-.7.1-1a4.5,4.5,0,0,0,.1-1.1c0-.4.1-.7.1-1.1V41a18.7,18.7,0,0,1,1.1-7,9,9,0,0,1,1.7-3c1.3-1.5,3.6-2.7,2.7-4.9s-2.7-3.2-4.2-4.1l-2-1.1A15.8,15.8,0,0,0,58,19.1Zm3.1,7.3a1.8,1.8,0,0,0,.5-.7h0A1.8,1.8,0,0,1,61.1,26.4Zm-3.6,3.8a17.1,17.1,0,0,1,1.8-2l.6-.6-.6.6A17.1,17.1,0,0,0,57.5,30.2Zm-1.6,2.2-.6,1.1.6-1.1.7-1.1Zm2.3-13,.7.2h.3l1,.6-1-.6h-.3Z" style="fill:#eda38e;mix-blend-mode:overlay;opacity:0.19"/><path d="M57.1,19.1H58v.2h.2l.6.2-.6-.2H58v-.2a15.8,15.8,0,0,1,4.7,1.8l2,1.1c1.5.9,3.6,2.5,4.2,4.1s-1.4,3.4-2.7,4.9a9,9,0,0,0-1.7,3,18.7,18.7,0,0,0-1.1,7v2.8c0,.4-.1.7-.1,1.1a4.5,4.5,0,0,1-.1,1.1c0,.3-.1.7-.1,1s-.1.7-.2,1.1a3.6,3.6,0,0,1-.2,1,4.3,4.3,0,0,1-.2,1.1,3.6,3.6,0,0,0-.2,1L62,52.3a4.2,4.2,0,0,1-.4,1l-.3,1a10.4,10.4,0,0,1-.4,1c-.1.4-.3.7-.4,1.1a10.4,10.4,0,0,0-.4,1,3.1,3.1,0,0,0-.5,1,4.1,4.1,0,0,0-.5.9l-.6,1A30.4,30.4,0,0,1,41.6,74.1a24.9,24.9,0,0,1-8.5,1.4,26.4,26.4,0,0,1-5.5-.6,14,14,0,0,1-3.5-1,18.5,18.5,0,0,1-2.9-1.3,13.8,13.8,0,0,1-2.5-1.7c8.6-.7,16.3-5,22-10.7a40.2,40.2,0,0,0,3.4-3.8h0a40.2,40.2,0,0,1-3.4,3.8c-5.7,5.7-13.4,10-22,10.7a18,18,0,0,1-7-13.3c-.2-6.7,3.3-13.3,8.6-18.4A43.8,43.8,0,0,1,40.7,28.4c3.1-.8,6.2-1.3,8.9-2.9a2.2,2.2,0,0,0,.9-.7l.9-.6.8-.8.6-.8c1-1.2,1.4-2.8,3.3-3.3l.7-.2h.3m2.1.6,1,.6.8.7h0a4.2,4.2,0,0,1,1,1.7h0A4.2,4.2,0,0,0,61,21h0l-.8-.7-1-.6h0M61,26.5a11.4,11.4,0,0,1-1.1,1.1l-.6.6a17.1,17.1,0,0,0-1.8,2,11.2,11.2,0,0,0-1.6,2.2,39.3,39.3,0,0,0-3.2,8,39.3,39.3,0,0,1,3.2-8,11.2,11.2,0,0,1,1.6-2.2,17.1,17.1,0,0,1,1.8-2l.6-.6A11.4,11.4,0,0,0,61,26.5a2.1,2.1,0,0,0,.6-.8,3.1,3.1,0,0,0,.5-1,3.1,3.1,0,0,1-.5,1,2.1,2.1,0,0,1-.6.8M57.1,16.1h-.5a5.8,5.8,0,0,0-1.4.3A6.7,6.7,0,0,0,51,20l-.5.8-.5.6-.6.5-.6.5-.7.5A20.3,20.3,0,0,1,41.8,25l-1.9.4A46.7,46.7,0,0,0,18.2,37.1c-6.3,6-9.7,13.6-9.5,20.6a20.9,20.9,0,0,0,8.2,15.6,21.7,21.7,0,0,0,2.9,2h.1l.4.2A16.9,16.9,0,0,0,23,76.7a31.9,31.9,0,0,0,4,1.2,31.5,31.5,0,0,0,6.1.6A30.8,30.8,0,0,0,42.5,77,34,34,0,0,0,61.1,61.8l.6-1,.6-1.1a5.4,5.4,0,0,1,.5-1.1l.5-1.1c.1-.3.3-.7.4-1.1a3.6,3.6,0,0,0,.4-1.1,3.6,3.6,0,0,0,.4-1.1l.3-1.1a4.9,4.9,0,0,0,.4-1.1,5,5,0,0,0,.2-1.2l.3-1.1c.1-.4.1-.8.2-1.1s.1-.8.2-1.2.1-.8.1-1.1.1-.8.1-1.2.1-.8.1-1.1V41.1a17.1,17.1,0,0,1,.9-6.1,5.6,5.6,0,0,1,1.2-2l.8-.9c1.2-1.1,3.8-3.5,2.4-7.1s-4-4.6-5.3-5.5l-1.8-1.1h-.4a.1.1,0,0,0-.1-.1h-.2a15.4,15.4,0,0,0-5.6-1.9H57.1Z" style="fill:#b25c22"/></g></g></g></g></svg>