<svg xmlns="http://www.w3.org/2000/svg" width="85.3" height="86.3" viewBox="0 0 85.3 86.3"><g style="isolation:isolate"><g id="Layer_2" data-name="Layer 2"><g id="Layer_2-2" data-name="Layer 2"><g id="cat_clean_2" data-name="cat_clean 2"><line x1="9.4" y1="56.9" x2="9.4" y2="7.8" style="fill:#eef5ff"/><path d="M84.9,6.5a2.8,2.8,0,0,1-2.6,1.3h-.1a2.1,2.1,0,0,1-1.1-.4,2.8,2.8,0,0,1-.9-3.8,2.5,2.5,0,0,1,2-1.3h0a2.3,2.3,0,0,1,1.8.4A2.8,2.8,0,0,1,84.9,6.5Z" style="fill:#776457"/><path d="M84.9,6.5a2.8,2.8,0,0,1-2.6,1.3,3.2,3.2,0,0,0,2-1.3,2.8,2.8,0,0,0-.9-3.8,1.9,1.9,0,0,0-1.2-.4,2.3,2.3,0,0,1,1.8.4A2.8,2.8,0,0,1,84.9,6.5Z" style="fill:#776457;mix-blend-mode:multiply;opacity:0.2"/><path d="M12.6,61.6a4.7,4.7,0,0,1-4.7-4.7V7.8c0-.4.1-4.2,2.5-5.7a5.4,5.4,0,0,1,2.7-.6h2.6c5.8.4,9.1,1.7,9.9,4,2.9,8.2,4.3,25.5,4.9,38.6.1,2.3.2,4.5.3,6.5v1.8a9.2,9.2,0,0,1,.1,1.6c0,.7.1,2.7.1,2.7a4.8,4.8,0,0,1-1.4,3.4,4.7,4.7,0,0,1-3.3,1.4Z" style="fill:#a7bfee"/><path d="M13.1,3h2.2c.7.1,7.9.3,8.9,3,2.9,8.1,4.2,25.3,4.8,38.2.1,2.3.2,4.5.3,6.4v1.9a7.6,7.6,0,0,1,.1,1.5,24.4,24.4,0,0,0,.1,2.8,3.2,3.2,0,0,1-3.2,3.2H12.6a3.2,3.2,0,0,1-3.2-3.2V7.8s0-3.3,1.8-4.4A3.4,3.4,0,0,1,13.1,3m0-3h0A6.5,6.5,0,0,0,9.7.8C6.6,2.7,6.4,7,6.4,7.8V56.9a6.2,6.2,0,0,0,6.2,6.2H26.3a6.2,6.2,0,0,0,4.4-1.8,6.3,6.3,0,0,0,1.8-4.5V54h0a7.6,7.6,0,0,0-.1-1.5V50.6c-.1-2-.2-4.2-.3-6.5-.9-19.1-2.6-32.3-5-39C25.6,1.2,19.9.4,15.8.2H13.1Z" style="fill:#5576b4"/><path d="M29.5,56.9a3.2,3.2,0,0,1-3.2,3.2H12.6a3.2,3.2,0,0,1-3.2-3.2V7.8s0-3.3,1.8-4.4,1.7-.5,4.1-.3c.7.1,7.9.3,8.9,3,2.9,8.1,4.2,25.3,4.8,38.2.1,2.3.2,4.5.3,6.4v1.9a7.6,7.6,0,0,1,.1,1.5A24.4,24.4,0,0,0,29.5,56.9Z" style="fill:#a7bfee;mix-blend-mode:multiply;opacity:0.58"/><path d="M82.6,5a1.4,1.4,0,0,1-1.4,1.4H4.9A1.3,1.3,0,0,1,3.6,5a1.1,1.1,0,0,1,.1-.5,1.1,1.1,0,0,1,1.2-.8H81.2a1.3,1.3,0,0,1,1.3.8A4.3,4.3,0,0,0,82.6,5Z" style="fill:#9b836d"/><path d="M82.6,5a1.4,1.4,0,0,1-1.4,1.4H4.9A1.3,1.3,0,0,1,3.6,5a1.1,1.1,0,0,1,.1-.5,1.3,1.3,0,0,0,1.2.9H81.2a1.4,1.4,0,0,0,1.3-.9A4.3,4.3,0,0,0,82.6,5Z" style="fill:#9b836d;mix-blend-mode:multiply;opacity:0.2"/><rect x="9.4" y="44.3" width="57" height="6.45" style="fill:#a7bfee;mix-blend-mode:multiply;opacity:0.72"/><rect x="9.4" y="52.6" width="49.7" height="1.5" style="fill:#a7bfee;mix-blend-mode:multiply;opacity:0.72"/><path d="M20.1,84.8A4.9,4.9,0,0,1,15.2,80V77.3h0a6.6,6.6,0,0,0-.1-1.4V69.7c-.1-1.9-.1-4-.1-6.1-.3-26.6-.5-43.9-.5-52.7v-.8c.1-1.6.1-4.6-.7-5.4a1.1,1.1,0,0,0-.6-.2v-3H72.5a6.7,6.7,0,0,1,4.9,6.9V79.9a4.9,4.9,0,0,1-4.8,4.9Z" style="fill:#a7bfee"/><path d="M13.3,3H72.2s3.7.8,3.7,5.4V79.9a3.4,3.4,0,0,1-3.3,3.4H20.1a3.4,3.4,0,0,1-3.4-3.4V77.2c0-.5-.1-1-.1-1.5V71.1c0-2.3-.1-4.8-.1-7.5-.2-17.3-.5-41.3-.5-52.7,0-2.6.5-7.9-2.7-7.9m0-3V6a1.1,1.1,0,0,1-.7-.3c.5.7.5,3.3.4,4.4v.8c0,8.8.2,26,.5,52.7,0,2,0,3.8.1,5.6v6.5h0a6.6,6.6,0,0,1,.1,1.4V80a6.4,6.4,0,0,0,6.4,6.3H72.6a6.4,6.4,0,0,0,6.3-6.4V8.4c0-5.6-4-7.9-6.1-8.3H13.3Z" style="fill:#5576b4"/><path d="M75.9,67.9v6.5H16.7c-.1-1.8-.1-4-.1-6.5Z" style="fill:#5576b4"/><path d="M75.9,75.7H16.6c0,.5.1,1,.1,1.5H75.9Z" style="fill:#5576b4"/><path d="M5.6,5A2.8,2.8,0,0,1,2.8,7.8H2.1a2.8,2.8,0,0,1,0-5.4h.7A2.9,2.9,0,0,1,5.6,5Z" style="fill:#776457"/><path d="M5.6,5A2.8,2.8,0,0,1,2.8,7.8H2.1a2.8,2.8,0,0,0,0-5.4h.7A2.9,2.9,0,0,1,5.6,5Z" style="fill:#776457;mix-blend-mode:multiply;opacity:0.2"/><path d="M40.2,31.7s1.5-15.8,6.6-12.1S51,32.4,51,32.4s7.4-2.1,11.1-.1-2.4,9.1-8.1,8.8c0,0,4.7,5.5,2.7,10.7s-11.1-5.1-11.1-5.1-5,8.9-8.7,7.2-.7-11.5-.7-11.5-9.1-3.4-8.1-7C29.9,28.5,40.2,31.7,40.2,31.7Z" style="fill:#ffeb81;stroke:#ffaa5a;stroke-miterlimit:10;stroke-width:2px"/></g></g></g></g></svg>