<svg xmlns="http://www.w3.org/2000/svg" xmlns:xlink="http://www.w3.org/1999/xlink" width="86.2" height="86.4" viewBox="0 0 86.2 86.4"><defs><clipPath id="clip-path"><path d="M75.6,30.2V30a.1.1,0,0,0,.1-.1h0v-.2h-.1v-.2h-.1c0-.1-.1-.1-.1-.2h0c-.1,0-.1,0-.1-.1l-.2-.2-8.4-8.2c-.7-.6-2.9-1.2-5.1-1.3H24.9c-2.3.1-4.4.7-5.1,1.3l-8.4,8.2-.3.3h0l-.2.3h0v.2h0v.2h0c0,.1.1.1.1.2h0c.5.8,2.2,1.4,4.9,1.4H70.7c2.7,0,4.4-.6,4.9-1.4Z" style="fill:none"/></clipPath></defs><g style="isolation:isolate"><g id="Layer_2" data-name="Layer 2"><g id="Layer_2-2" data-name="Layer 2"><g id="cat_clean_3" data-name="cat_clean 3"><path d="M84.5,72.8c1.2-1.5-10.9-12.5-11.4-13.7s-4.5-1.9-7.8-1.9L65,55.7H55.5l-1,1.5H32.1l-.7-.7H20.5s-.2.7-.5.7c-3,.1-6,.9-6.9,1.9L2.3,70.8a2.2,2.2,0,0,0-.5.8,56.1,56.1,0,0,0-.1,8.2C.7,83.9,3.9,85,8,84.9H80.4c4.5-.6,4.4-2.2,4.1-5S84.6,75.1,84.5,72.8Z" style="fill:#af7553;stroke:#6a3417;stroke-miterlimit:10;stroke-width:3px"/><path d="M80.2,74.8h.2c3.7-.5,5.2-2.1,3.5-4L73.1,59.1c-1-1.1-4.5-1.9-7.8-1.9L65,55.7H55.5l-1,1.5H32.1l-.7-.7H20.5s-.2.7-.5.7c-3,.1-6,.9-6.9,1.9L2.3,70.8a2.2,2.2,0,0,0-.5.8c-.6,1.2.2,2.2,2.1,2.8a15.3,15.3,0,0,0,4.1.5H80.2Z" style="fill:#ddab88;stroke:#6a3417;stroke-miterlimit:10;stroke-width:3px"/><path d="M15.6,66.7C10.5,66.7,5.3,50,4.4,44.1v-.2c-2-.9-2.5-2.2-2.5-3a14.2,14.2,0,0,1-.2-2.6,4.3,4.3,0,0,1,.6-2.7c.1-.2.1-.3.2-.4s.2-.3.4-.4,1.2-5.6,2-6.4l.2-.2,7.3-5,.4-2.1a1.4,1.4,0,0,1-.5-.8c-1.2-5,2.8-14.5,3.6-16.3a4.2,4.2,0,0,1,3.8-2.5,3.9,3.9,0,0,1,2.7,1A53.1,53.1,0,0,1,33.9,15.8a1.4,1.4,0,0,1,.2,1.1H52.3a2,2,0,0,1,.2-1.1A53.4,53.4,0,0,1,64.1,2.5a3.9,3.9,0,0,1,2.7-1A4.3,4.3,0,0,1,70.6,4c.8,1.8,4.7,11.3,3.6,16.3a1.8,1.8,0,0,1-.6.9l.4,2,7.4,5.1.3.2c.8.9,1.8,5.3,1.9,6.3s.3.3.4.4.2.3.2.4v.2c0,.1.1.2.1.3a.6.6,0,0,1,.1.4.4.4,0,0,1,.1.3v.4h0a24.5,24.5,0,0,1,0,3.9A4.1,4.1,0,0,1,82,43.9v.2c-.9,5.9-6.1,22.6-11.2,22.6Z" style="fill:#335394"/><path d="M66.8,3a2.6,2.6,0,0,1,2.4,1.6c2.1,4.8,4.3,11.8,3.5,15.3l-1-.2,1,4.2.2.3,7.7,5.4c.4.4,1.5,5,1.6,5.4s-.1.2-.1.3l.3.4.3.4h.1c0,.1,0,.1.1.2s0,.1.1.1v.2c0,.1.1.1.1.2v.4h0a20.7,20.7,0,0,1,0,3.6c-.1.8-1,1.5-2.4,1.9a4.4,4.4,0,0,1-.2,1c-1,7.2-6.3,21.5-9.7,21.5H15.6c-3.3,0-8.6-14.4-9.7-21.5a4.5,4.5,0,0,1-.1-1.1c-1.5-.4-2.4-1.1-2.4-1.9a12.1,12.1,0,0,1-.2-2.5,3.6,3.6,0,0,1,.3-1.8h.1c0-.1.1-.2.1-.3s.2-.3.4-.4l.3-.4a.3.3,0,0,1-.1-.2c0-.4,1.2-5.2,1.7-5.7l7.6-5.2.2-.3.7-4.1h-.7c-.9-3.5,1.3-10.5,3.5-15.3A2.6,2.6,0,0,1,19.7,3a2.7,2.7,0,0,1,1.7.6,51.9,51.9,0,0,1,11.3,13l-1.1.2a10,10,0,0,1,1.2,1.6H53.1l1.7-1.6-1-.2a51.9,51.9,0,0,1,11.3-13A2.7,2.7,0,0,1,66.8,3m0-3h0a6.2,6.2,0,0,0-3.7,1.3A56.1,56.1,0,0,0,51.3,15a.5.5,0,0,0-.2.4H35.4l-.2-.4A54.4,54.4,0,0,0,23.3,1.3,5.9,5.9,0,0,0,19.7,0a5.7,5.7,0,0,0-5.2,3.4c-1.2,2.7-4.9,11.9-3.7,17.2a3.6,3.6,0,0,0,.4.9l-.2.8L4.3,27l-.5.3c-1,1.1-2,4.9-2.3,6.8-.1.1-.2.2-.2.3l-.3.4a6.3,6.3,0,0,0-.8,3.5A15.6,15.6,0,0,0,.4,41h0c0,.8.5,2.5,2.7,3.8a69.4,69.4,0,0,0,4,13.5c3.7,8.7,6.5,9.9,8.5,9.9H70.8c2.1,0,4.8-1.2,8.5-9.9a70.2,70.2,0,0,0,4.1-13.5A4.7,4.7,0,0,0,86,41.5a18.6,18.6,0,0,0,.1-4.2h0v-.6a4.3,4.3,0,0,1-.1-.5c-.1-.2-.1-.4-.2-.5s-.1-.3-.1-.4l-.2-.3-.3-.6-.2-.2c-.3-1.7-1.1-5.5-2.2-6.6l-.5-.4-6.9-4.8-.2-.7a1.8,1.8,0,0,0,.4-1C76.9,15.3,73.1,6.1,72,3.4A5.7,5.7,0,0,0,66.8,0Z" style="fill:#5576b4"/><path d="M70.8,65.2H15.6c-4.1,0-11.2-21.7-9.6-25l13.7,1.6c.8-1.7,3.5-2.9,6.1-2.9H60.7c2.6,0,5.3,1.2,6.1,2.9l13.7-1.7C82.1,43.4,75,65.2,70.8,65.2Z" style="fill:#5576b4"/><path d="M66.8,42.6c-.8-1-3.5-1.7-6.1-1.7H25.8c-2.6,0-5.3.7-6.1,1.7L6,41.7c-.7.7.1,3.3,1.5,6.1H79c1.4-2.8,2.1-5.4,1.5-6.2Z" style="fill:#7e8390;mix-blend-mode:multiply;opacity:0.30000000000000004"/><path d="M9.5,44.2c-4.3,0-7-1.2-7.1-3.3a15.1,15.1,0,0,1-.2-2.6c0-1.4.2-2.1.6-2.5h.1l10.9-8.3.2-.2h.4l.3-.2a.5.5,0,0,0,.4-.2h.4l.5-.2.5-.2h2.7l2.7-.2H64.6c3,0,6.7.7,8.1,2.1l10.7,7.9a.1.1,0,0,0,.1.1c1,1.1.6,5.7.6,5.7-.3,1.5-2,2.6-4.8,3H9.5Z" style="fill:#a7bfee"/><path d="M64.6,26.3c3.1,0,6.5.8,7.5,1.9l10.7,7.9c.5.6.4,4.3.3,4.8s-1.6,1.9-3.9,2.2H9.5c-3.8,0-6-1-6.1-2.4a12.1,12.1,0,0,1-.2-2.5h0a3.6,3.6,0,0,1,.3-1.8l10.9-8.3h0c.1-.1.1-.2.2-.2a.1.1,0,0,0,.1-.1h.2l.3-.2h.7a.1.1,0,0,0,.1-.1h3.3l2.6-.2H64.6m0-2H21.9l-2.9.2H15.1l-.2.2h-.2l-.4.2h-.1l-.3.2h-.1l-.3.2h-.2a.2.2,0,0,1-.2.2L2.3,34.9a.2.2,0,0,0-.2.2,4.4,4.4,0,0,0-.9,3.2,14.2,14.2,0,0,0,.2,2.6h0c.2,2.6,3.2,4.2,8.1,4.2H79.4c4.4-.5,5.4-2.6,5.7-3.7s.6-5-.9-6.6a.2.2,0,0,1-.2-.2L73.4,26.6c-2-1.8-6.4-2.3-8.8-2.3Z" style="fill:#5576b4"/><path d="M9.5,40.7c-4.3,0-7-1.4-7.1-3.5a2.4,2.4,0,0,1,.5-1.7l.4-.5L13.7,23.9c1.3-1.4,5.1-2.1,8.2-2.1H64.6c3,0,6,.6,7.5,1.6l.7.5L83.2,35l.4.5a.3.3,0,0,0,.1.2l.2.3v.2l.2.4v.8a.6.6,0,0,1-.1.4c0,.1,0,.1-.1.2a.4.4,0,0,1-.1.3.2.2,0,0,1-.2.2c0,.1-.1.2-.1.3a.2.2,0,0,0-.2.2.2.2,0,0,0-.2.2l-.3.2h-.2l-.3.2H80.2l-.3-1v1H9.5Z" style="fill:#e6deff"/><path d="M64.6,22.8a16,16,0,0,1,7,1.4l.5.4L82.4,35.7l.3.4a.1.1,0,0,1,.1.1l.2.2v.2c0,.1.1.1.1.2v.4h0v.2a.1.1,0,0,0-.1.1c0,.1,0,.2-.1.2s0,.1-.1.2a.1.1,0,0,1-.1.1c0,.1-.1.1-.1.2h-.4a.1.1,0,0,1-.1.1l-.3.2H80.1c0,.1-.1.1-.2.1H9.5c-3.8,0-6.1-1-6.1-2.4s.1-.7.3-1.1.2-.3.4-.4L14.4,24.6c1-1,4.3-1.8,7.5-1.8H64.6m0-2H21.9c-2.5,0-7.1.5-8.9,2.4L2.6,34.3l-.5.6a3.7,3.7,0,0,0-.7,2.4c.1,2.7,3.1,4.3,8.1,4.3H82.1l.4-.2h.2l.4-.2.3-.2.3-.3.3-.2.2-.3.3-.3c0-.1.1-.2.2-.3a.8.8,0,0,1,.2-.4c0-.1.1-.3.1-.4s.1-.3.1-.4v-.9a.4.4,0,0,0-.1-.3c0-.2-.1-.3-.1-.5s-.1-.2-.1-.3l-.3-.5a.3.3,0,0,1-.1-.2l-.5-.6L73.5,23.2l-.8-.6c-2-1.3-5.5-1.8-8.1-1.8Z" style="fill:#5576b4"/><path d="M76.4,34.4a1,1,0,0,1-1-.8.9.9,0,0,1,.7-1.2c.9-.3,1.3-.7,1.3-.8s-.1-.4-.3-.7l-9.3-10c-.5-.6-3-1.4-6-1.4H23.6a14.2,14.2,0,0,0-4.2.6h-.3a1.2,1.2,0,0,1-1-.7,1,1,0,0,1,.7-1.2,17.4,17.4,0,0,1,5.3-.8H62.3c2.8,0,6.3.6,7.5,1.9l9.3,10.1a2.8,2.8,0,0,1,.8,2.6c-.3.8-1,1.8-3.3,2.3Z" style="fill:#e6deff"/><path d="M62.3,18.4c2.9,0,5.9.7,6.7,1.6l9.3,10.1c1.4,1.4.5,2.7-1.9,3.3,2-.7,2.7-1.9,1.4-3.2l-9.3-10c-.8-1-3.8-1.7-6.7-1.7H23.6a15.8,15.8,0,0,0-4.5.6,18.3,18.3,0,0,1,5-.7H62.3m0-2H24.1a20.1,20.1,0,0,0-5.7.8,2.1,2.1,0,0,0-1.2,2.5,1.8,1.8,0,0,0,1.9,1.4h.5a17.5,17.5,0,0,1,4-.5H61.8c2.7,0,4.9.7,5.3,1.1l9,9.7h-.3a2,2,0,0,0-1.4,2.5,2.1,2.1,0,0,0,2,1.5h.4c2.7-.6,3.7-2,4-3a3.6,3.6,0,0,0-1-3.6l-9.3-10c-1.7-1.9-5.9-2.3-8.2-2.3Z" style="fill:#5576b4"/><path d="M80.6,29.6l-9.2-6.5c-1-1-4.2-1.7-7.3-1.7H22.4c-3.1,0-6.3.7-7.3,1.7L6,29.4c-.5.5-1.7,5.3-1.7,5.7s2.3,2.4,6,2.4H76.2c3.8,0,6-1.1,6-2.5S81,30,80.6,29.6Z" style="fill:#a7bfee"/><path d="M13,34.6a13.8,13.8,0,0,1-3.8-.4,4.3,4.3,0,0,1-2.5-1.9,2.1,2.1,0,0,1,0-1.9,3.6,3.6,0,0,1,.7-1l5.5-5.9.7-4.6c.1-.1.1-.3.3-.5s14.8-3.2,16.8-3.2,1.7.7,2.7,2.2H52.7l1.7-1.6a.9.9,0,0,1,.7-.3h.1c15.9,1.2,16.7,2.1,17,2.4a.8.8,0,0,1,.2.5l1.2,5.1,5.5,5.9a2.5,2.5,0,0,1,.7,2.7c-.4,1.3-2,2.1-4.3,2.4H13Z" style="fill:#e6deff"/><path d="M30.7,16.2c.8,0,2.1,2.2,2.1,2.2H53.1l2-1.9s15.5,1.2,16.4,2.1l1.2,5.3,5.6,6.2c1.5,1.6.2,3-3,3.4H13a11.6,11.6,0,0,1-3.5-.4c-1.6-.5-2.3-1.4-1.8-2.4a1.6,1.6,0,0,1,.4-.7l5.7-6.2.8-4.8c.8-.8,13.4-2.9,16.1-2.9h0m0-2h0c-1.6,0-5.8.6-9.1,1.1-7.4,1.3-8,2-8.5,2.4a3.7,3.7,0,0,0-.5,1.1L11.9,23,6.7,28.7a4.7,4.7,0,0,0-.9,1.2,3.4,3.4,0,0,0,0,2.8,4.5,4.5,0,0,0,3.1,2.4,12.4,12.4,0,0,0,4.1.5H75.6c3.5-.4,4.7-1.9,5.2-3a3.7,3.7,0,0,0-1-3.8L74.5,23l-1.1-4.8a1.9,1.9,0,0,0-.5-1c-.5-.6-1.4-1.5-17.7-2.7h-.1a2,2,0,0,0-1.4.6l-1.4,1.3H33.9c-1.6-2.2-2.7-2.2-3.2-2.2Z" style="fill:#5576b4"/><path d="M75.6,30.2V30a.1.1,0,0,0,.1-.1h0v-.2h-.1v-.2h-.1c0-.1-.1-.1-.1-.2h0c-.1,0-.1,0-.1-.1l-.2-.2-8.4-8.2c-.7-.6-2.9-1.2-5.1-1.3H24.9c-2.3.1-4.4.7-5.1,1.3l-8.4,8.2-.3.3h0l-.2.3h0v.2h0v.2h0c0,.1.1.1.1.2h0c.5.8,2.2,1.4,4.9,1.4H70.7c2.7,0,4.4-.6,4.9-1.4Z" style="fill:#5576b4"/><g style="clip-path:url(#clip-path)"><path d="M15.8,33.2l-2-.2a1.3,1.3,0,0,1-1.2-.8,1.6,1.6,0,0,1,.1-1.5A5.5,5.5,0,0,1,16.9,28l.2-.2a8.8,8.8,0,0,1,3-2.5,8.7,8.7,0,0,1,4.2-1.2l1.9.2h.7a20.2,20.2,0,0,0,4.6-.8l1-.3a6.5,6.5,0,0,1,2-.2l2.6.3,2.9.4h2.1a9.4,9.4,0,0,0,3.4-.7h.3a19.8,19.8,0,0,1,4.7-.7,17.7,17.7,0,0,1,4.6.7h.4a9,9,0,0,0,3.4.8l2.5-.2a13.7,13.7,0,0,1,2.9-.4,5.2,5.2,0,0,1,3,1.1h.2a5.2,5.2,0,0,1,2.1,2.1,8.4,8.4,0,0,0,1.5,1.9,6.4,6.4,0,0,0,1.8,1l1.3.6a1.5,1.5,0,0,1,.7,1.5,1.6,1.6,0,0,1-1.1,1.3,14.8,14.8,0,0,1-3.1.3Z" style="fill:#ffd387"/><path d="M50.5,23.8a11.4,11.4,0,0,1,4.1.7,13.7,13.7,0,0,0,4.3.9l2.7-.3,2.7-.3a3.8,3.8,0,0,1,2.4,1c1.8,1,1.2,1.7,3.4,3.7s2.4,1.3,3.3,1.9a10.1,10.1,0,0,1-2.7.3H15.8L14,31.5a4.2,4.2,0,0,1,3-2h.2c.8,0,1.3-1.8,3.5-2.9a8.6,8.6,0,0,1,3.6-1l1.7.2h.9a24.5,24.5,0,0,0,5.9-1.1,5,5,0,0,1,1.7-.2c1.4,0,2.8.4,5.3.6l2.3.2a14,14,0,0,0,4.2-.8,14.2,14.2,0,0,1,4.2-.7m0-3h0a18.1,18.1,0,0,0-5.1.8H45a9.3,9.3,0,0,1-2.9.6h-2l-2.8-.4a12.7,12.7,0,0,0-2.8-.3,9.9,9.9,0,0,0-2.4.3l-1,.2a18.1,18.1,0,0,1-4.2.8h-.5l-2.1-.2a11,11,0,0,0-8.2,4,7.3,7.3,0,0,0-4.6,3.3,2.8,2.8,0,0,0-.2,2.9,2.7,2.7,0,0,0,2.3,1.7l2.2.2H70.7a11.8,11.8,0,0,0,3.4-.4,2.9,2.9,0,0,0,2.3-2.4A3.2,3.2,0,0,0,75,28.8l-1.5-.7a3.2,3.2,0,0,1-1.3-.7,4.9,4.9,0,0,1-1.3-1.6,8.9,8.9,0,0,0-2.6-2.6h-.2a6.2,6.2,0,0,0-3.8-1.3l-3.2.4-2.2.2a7.9,7.9,0,0,1-3-.7h-.4a15.9,15.9,0,0,0-5-.8Z" style="fill:#ce894a"/><path d="M40.2,28.1c0,.1-.5.3-1,.3s-.9-.2-.9-.3.4-.4.9-.4S40.2,27.9,40.2,28.1Z" style="fill:#ffd387;mix-blend-mode:multiply;opacity:0.30000000000000004"/><ellipse cx="58.2" cy="28.4" rx="0.9" ry="0.3" style="fill:#ffd387;mix-blend-mode:multiply;opacity:0.30000000000000004"/><path d="M51.4,26.6c0,.2-.4.4-.9.4s-1-.2-1-.4.5-.3,1-.3S51.4,26.5,51.4,26.6Z" style="fill:#ffd387;mix-blend-mode:multiply;opacity:0.30000000000000004"/><path d="M65.5,27.4c0,.2-.4.3-1,.3s-.9-.1-.9-.3.4-.3.9-.3S65.5,27.3,65.5,27.4Z" style="fill:#ffd387;mix-blend-mode:multiply;opacity:0.30000000000000004"/><path d="M45.6,26.9c0,.1-.4.3-.9.3s-1-.2-1-.3.4-.4,1-.4S45.6,26.7,45.6,26.9Z" style="fill:#ffd387;mix-blend-mode:multiply;opacity:0.30000000000000004"/><path d="M28.2,28.8c0,.2-.4.3-.9.3s-1-.1-1-.3.4-.3,1-.3S28.2,28.6,28.2,28.8Z" style="fill:#ffd387;mix-blend-mode:multiply;opacity:0.30000000000000004"/><path d="M24.3,29.1c0,.2-.4.4-.9.4s-1-.2-1-.4.5-.3,1-.3S24.3,29,24.3,29.1Z" style="fill:#ffd387;mix-blend-mode:multiply;opacity:0.30000000000000004"/><path d="M38.1,30.4c0,.2-.5.3-1,.3s-.9-.1-.9-.3.4-.3.9-.3S38.1,30.2,38.1,30.4Z" style="fill:#ffd387;mix-blend-mode:multiply;opacity:0.30000000000000004"/><path d="M35.6,28.5c0,.1-.2.1-.3.1s-.3,0-.3-.1.1-.1.3-.1S35.6,28.4,35.6,28.5Z" style="fill:#fac47e;mix-blend-mode:multiply;opacity:0.5"/><path d="M56.4,29.3c0,.1-.1.2-.3.2s-.3-.1-.3-.2h.6Z" style="fill:#fac47e;mix-blend-mode:multiply;opacity:0.5"/><path d="M48.4,28.8l-.3.2c-.2,0-.3-.1-.3-.2h.6Z" style="fill:#fac47e;mix-blend-mode:multiply;opacity:0.5"/><path d="M47.8,25c0,.1-.2.1-.4.1s-.3,0-.3-.1.2-.1.3-.1S47.8,24.9,47.8,25Z" style="fill:#fac47e;mix-blend-mode:multiply;opacity:0.5"/><path d="M44.3,29.3c0,.1-.1.2-.3.2s-.3-.1-.3-.2h.6Z" style="fill:#fac47e;mix-blend-mode:multiply;opacity:0.5"/><path d="M59.9,29.3c0,.1-.1.2-.3.2l-.3-.2h.6Z" style="fill:#fac47e;mix-blend-mode:multiply;opacity:0.5"/><path d="M68.4,29.7c0,.1-.1.2-.3.2s-.3-.1-.3-.2h.6Z" style="fill:#fac47e;mix-blend-mode:multiply;opacity:0.5"/><path d="M61.6,25.8H61c0-.1.1-.1.3-.1S61.6,25.7,61.6,25.8Z" style="fill:#fac47e;mix-blend-mode:multiply;opacity:0.5"/><path d="M66.1,25.9c0,.1-.1.2-.3.2s-.3-.1-.3-.2h.6Z" style="fill:#fac47e;mix-blend-mode:multiply;opacity:0.5"/><path d="M25,29.7c0,.1-.2.2-.4.2s-.3-.1-.3-.2H25Z" style="fill:#fac47e;mix-blend-mode:multiply;opacity:0.5"/><path d="M36.4,25.5c0,.1-.2.2-.4.2s-.3-.1-.3-.2h.7Z" style="fill:#fac47e;mix-blend-mode:multiply;opacity:0.5"/><path d="M53.4,25.3h-.6c0-.1.1-.2.3-.2S53.4,25.2,53.4,25.3Z" style="fill:#fac47e;mix-blend-mode:multiply;opacity:0.5"/><path d="M40.9,27h-.6c0-.1.1-.2.3-.2S40.9,26.9,40.9,27Z" style="fill:#fac47e;mix-blend-mode:multiply;opacity:0.5"/><path d="M29.7,27.2h-.6c0-.1.1-.2.3-.2S29.7,27.1,29.7,27.2Z" style="fill:#fac47e;mix-blend-mode:multiply;opacity:0.5"/><path d="M19.3,30c0,.1-.2.1-.3.1s-.4,0-.4-.1.2-.1.4-.1S19.3,29.9,19.3,30Z" style="fill:#fac47e;mix-blend-mode:multiply;opacity:0.5"/><path d="M23.9,27.4c0,.1-.2.2-.3.2s-.4-.1-.4-.2h.7Z" style="fill:#fac47e;mix-blend-mode:multiply;opacity:0.5"/></g><path d="M43.1,61.4h0Z" style="fill:#fff"/><path d="M43.3,56.1l.5-.2c.2-.3.2-.8.5-.9h.6a.5.5,0,0,0,.5-.3c.4-.4.6-1.1.2-1.4a4.1,4.1,0,0,0-4.7,0c-.4.3-.2,1,.1,1.4s.3.3.5.3h.6c.3.1.4.6.6.9l.3.2Z" style="fill:#fff"/><path d="M40,58.7a5.1,5.1,0,0,1-1.7-.3,2.4,2.4,0,0,1-1.8-1.8,2.2,2.2,0,0,1,.4-1.8c.1-.3.4-.3.7-.2a.5.5,0,0,1,.1.7,1.5,1.5,0,0,0-.2,1.1,1.5,1.5,0,0,0,1.2,1,3.6,3.6,0,0,0,1.8.2h.1a4.2,4.2,0,0,0,2.2-1.1.5.5,0,0,1,.4-.3h0a.5.5,0,0,1,.5.3,4.3,4.3,0,0,0,2.1,1.1h.1a4,4,0,0,0,1.9-.2,1.5,1.5,0,0,0,1.2-1,1.3,1.3,0,0,0-.3-1.1.6.6,0,0,1,.2-.7c.2-.1.6-.1.7.2a2.6,2.6,0,0,1,.4,1.8,2.5,2.5,0,0,1-1.9,1.8,3.9,3.9,0,0,1-2.4.2h-.1a5.2,5.2,0,0,1-2.4-1.1,4.5,4.5,0,0,1-2.3,1.1H40Z" style="fill:#fff"/><path d="M52.2,50a2.3,2.3,0,0,0-1.8-1.5h-.6l-.7.2c-1,.4-2,1.7-1.2,2.7a2.8,2.8,0,0,0,1.5.8,2.5,2.5,0,0,0,1.7,0h.3A1.8,1.8,0,0,0,52.2,50Z" style="fill:#fff"/><path d="M38.7,49.8a2.8,2.8,0,0,0-1.4-1.2l-.6-.2h-.6A2.2,2.2,0,0,0,34.3,50a1.5,1.5,0,0,0,.8,2h.5a2.6,2.6,0,0,0,1.5,0,3.1,3.1,0,0,0,1.5-.8A1.6,1.6,0,0,0,38.7,49.8Z" style="fill:#fff"/><path d="M32.7,16.6a51.9,51.9,0,0,0-11.3-13,2.7,2.7,0,0,0-4.1,1c-2.2,4.8-4.4,11.8-3.5,15.3" style="fill:#e6deff;stroke:#5576b4;stroke-linecap:round;stroke-linejoin:round;stroke-width:2px"/><path d="M53.8,16.6a51.9,51.9,0,0,1,11.3-13,2.7,2.7,0,0,1,4.1,1c2.1,4.8,4.3,11.8,3.5,15.3" style="fill:#e6deff;stroke:#5576b4;stroke-linecap:round;stroke-linejoin:round;stroke-width:2px"/></g></g></g></g></svg>