<svg xmlns="http://www.w3.org/2000/svg" width="87.3" height="86.3" viewBox="0 0 87.3 86.3"><g id="Layer_2" data-name="Layer 2"><g id="Layer_2-2" data-name="Layer 2"><g id="cat_clean_4" data-name="cat_clean 4"><path d="M35.1,46.5l-3.2-.2L30,46.1l-2.3-.4-4.2-1.3a23.7,23.7,0,0,1-3.2-1.3l-.8-.3a24.3,24.3,0,0,0-8.1-2.4H9.6a1.6,1.6,0,0,1-1.4-.8A1.5,1.5,0,0,1,8.4,38l.2-.3a5.3,5.3,0,0,1,2.6-1.5,5.1,5.1,0,0,1,1.9-3.5,5,5,0,0,1,2.9-.9h.6a5.6,5.6,0,0,1,.9-1.7A5.6,5.6,0,0,1,21.6,28h.3a7,7,0,0,1,5.5,3,6.4,6.4,0,0,1,2-.3,7,7,0,0,1,2.5.5A6.7,6.7,0,0,1,35,34.3a4.4,4.4,0,0,1,1.6-.2,7.5,7.5,0,0,1,5.2,2,4.5,4.5,0,0,1,2.6-.8l1.3.2a6.3,6.3,0,0,1,2.7,1.6,5.1,5.1,0,0,1,1.5-.7h1a5.3,5.3,0,0,1,2.4.6,5.7,5.7,0,0,1,1.8,1.2,1.3,1.3,0,0,1,.5,1.3,1.2,1.2,0,0,1-.8,1.1l-1.8,1A39.7,39.7,0,0,1,44.9,45L41,46h-.4l-1,.2H35.1Z" style="fill:#e3f2f7"/><path d="M21.9,29.5A5.3,5.3,0,0,1,26.7,33a4.5,4.5,0,0,1,2.7-.8,4.3,4.3,0,0,1,1.9.4A4.8,4.8,0,0,1,34,36.2a5.8,5.8,0,0,1,2.6-.6,5.7,5.7,0,0,1,5.1,2.8,3,3,0,0,1,2.7-1.6h.9a6.3,6.3,0,0,1,3.2,2.6,2.2,2.2,0,0,1,1.7-1.6h.7a4.1,4.1,0,0,1,1.8.5,4.2,4.2,0,0,1,1.4.9l-1.8,1a49.5,49.5,0,0,1-7.9,3.4,22.2,22.2,0,0,1-3.7.9h-.4l-.7.2H35.1l-3-.2-1.9-.2L28,44.2A30.4,30.4,0,0,1,24,43a32,32,0,0,1-3.9-1.6,26.5,26.5,0,0,0-8.6-2.5H9.6c0-.1,0-.1.1-.2a3.1,3.1,0,0,1,2.4-1h.8A3.3,3.3,0,0,1,14,34a3.2,3.2,0,0,1,4,0,3.9,3.9,0,0,1,3.7-4.5h.2m0-3h-.4a7.3,7.3,0,0,0-5.2,2.8,5.3,5.3,0,0,0-.6,1,7,7,0,0,0-3.5,1.2,7.2,7.2,0,0,0-2.3,3.6,5.6,5.6,0,0,0-2.4,1.6l-.3.3a3.2,3.2,0,0,0-.3,3.3,3,3,0,0,0,2.7,1.6h1.7c2.6.1,5.1,1.2,7.6,2.3l.8.3A25.2,25.2,0,0,0,23,45.8a22.3,22.3,0,0,0,4.4,1.3l2.3.5,2.1.2,3.3.2h6.1a27.1,27.1,0,0,0,4.1-.9,43.4,43.4,0,0,0,8.4-3.7l1.4-.7.4-.3a2.8,2.8,0,0,0,1.6-2.3,3.2,3.2,0,0,0-1-2.6A12,12,0,0,0,54,35.6a7.5,7.5,0,0,0-3.1-.8l-1.3.2a1.9,1.9,0,0,0-1,.3A8.5,8.5,0,0,0,46.1,34l-1.7-.2a6.4,6.4,0,0,0-2.4.5,9.1,9.1,0,0,0-5.4-1.7h-.8a7.5,7.5,0,0,0-3.3-2.8,7.8,7.8,0,0,0-3.1-.6H28a8.5,8.5,0,0,0-6.1-2.8Z" style="fill:#98d9e4"/><path d="M44.4,43.6a22.2,22.2,0,0,1-3.7.9A9,9,0,0,1,38.8,43a4.3,4.3,0,0,1-6.3-1.3,4.5,4.5,0,0,1-4,1,4.7,4.7,0,0,1-3.2-2.8,4.2,4.2,0,0,1-5-.1c-1.4-1.3-1.1-3.9.6-4.6a5.2,5.2,0,0,1-.2-4.4,3.7,3.7,0,0,1,1.2-1.3A5.1,5.1,0,0,1,26.7,33,4.7,4.7,0,0,1,34,36.2a5.9,5.9,0,0,1,7.7,2.2,3.2,3.2,0,0,1,3.6-1.5,6.3,6.3,0,0,1,3.2,2.6,2.2,2.2,0,0,1,1.7-1.6,3.6,3.6,0,0,1,2.5.4,4.2,4.2,0,0,1,1.4.9l-1.8,1A49.5,49.5,0,0,1,44.4,43.6Z" style="fill:#e3f2f7"/><path d="M20.7,30.8a5.2,5.2,0,0,0,.2,4.4c-1.7.7-2,3.3-.6,4.6a4.2,4.2,0,0,0,5,.1,4.7,4.7,0,0,0,3.2,2.8,4.5,4.5,0,0,0,4-1A4.3,4.3,0,0,0,38.8,43a9,9,0,0,0,1.9,1.5h-.4l-.7.2H36.3a29.5,29.5,0,0,1-4.2-.1l-1.9-.2L28,44.2A30.4,30.4,0,0,1,24,43a32,32,0,0,1-3.9-1.6,26.5,26.5,0,0,0-8.6-2.5,6,6,0,0,0-1.9,0c0-.1,0-.1.1-.2a3.8,3.8,0,0,1,3.2-1A3.3,3.3,0,0,1,18,34a3.9,3.9,0,0,1,3.7-4.5h.2A3.7,3.7,0,0,0,20.7,30.8Z" style="fill:#bee2ee"/><path d="M65.3,84.8a3.7,3.7,0,0,1-2.7-1.6A20.9,20.9,0,0,1,60,78.7a12.7,12.7,0,0,1-.8-2.3,1.3,1.3,0,0,1,.2-1.2,1.6,1.6,0,0,1,.9-.7,32.9,32.9,0,0,0,3.7-1l1.9-.8.6-.2.8.2A1.5,1.5,0,0,1,68,74c0,1.4,0,2.8-.1,4.2v.5c-.1.8-.1,1.5-.2,2.3v1.1a2.8,2.8,0,0,1-.6,1.8,2.1,2.1,0,0,1-1.8.9Z" style="fill:#baa2ee"/><path d="M66.5,74h0m0,0c0,1.4,0,2.7-.1,4.1v.5a15,15,0,0,1-.2,2.2V82a1.5,1.5,0,0,1-.3,1,.9.9,0,0,1-.6.3,2.3,2.3,0,0,1-1.5-1,22.2,22.2,0,0,1-2.5-4.2,17.2,17.2,0,0,1-.7-2.1l3.9-1.1,2-.9m0-3h0a2.3,2.3,0,0,0-1.4.4l-1.6.7-3.5,1a2.6,2.6,0,0,0-1.9,1.3,3.1,3.1,0,0,0-.4,2.3,13.4,13.4,0,0,0,.9,2.6,23.9,23.9,0,0,0,2.8,4.8,5.2,5.2,0,0,0,3.9,2.2,3.6,3.6,0,0,0,3-1.5,4.4,4.4,0,0,0,.9-2.6V81.1c.1-.8.1-1.5.2-2.3v-.5c.1-1.4.1-2.8.1-4.1V74a3,3,0,0,0-3-3Zm0,6Z" style="fill:#7850b3"/><path d="M24.5,84.8a2.5,2.5,0,0,1-1.9-.9,3.3,3.3,0,0,1-.5-1.8,1.7,1.7,0,0,1-.1-.7V81c0-.8-.1-1.5-.1-2.3v-.5c0-1.5-.1-2.9-.1-4.4a1.4,1.4,0,0,1,.7-1.2,1.1,1.1,0,0,1,.8-.3h.5A45.9,45.9,0,0,0,29.6,74a1.3,1.3,0,0,1,1.1,1.7,17.1,17.1,0,0,1-.9,3,20.9,20.9,0,0,1-2.6,4.5,3.9,3.9,0,0,1-2.7,1.6Z" style="fill:#baa2ee"/><path d="M23.2,73.8a42.1,42.1,0,0,0,6.1,1.6,14.3,14.3,0,0,1-.9,2.7A21.8,21.8,0,0,1,26,82.3a2.5,2.5,0,0,1-1.5,1,.9.9,0,0,1-.7-.3,1.5,1.5,0,0,1-.2-1c-.1-.4,0-.9-.1-1.2s-.1-1.4-.1-2.2a4.3,4.3,0,0,1-.1-.5c0-1.4-.1-2.9-.1-4.3m0-3a3.4,3.4,0,0,0-1.7.5,3.1,3.1,0,0,0-1.3,2.5c0,1.5.1,3,.1,4.5a.9.9,0,0,1,.1.5c0,.8.1,1.5.1,2.3v.3a2.2,2.2,0,0,0,.1.8,4.4,4.4,0,0,0,.9,2.6,3.6,3.6,0,0,0,3,1.5,5.4,5.4,0,0,0,3.9-2.2,29.8,29.8,0,0,0,2.8-4.8,20.7,20.7,0,0,0,1-3.3,3,3,0,0,0-2.3-3.5A47.4,47.4,0,0,1,24.2,71a1.6,1.6,0,0,0-1-.2Z" style="fill:#7850b3"/><path d="M66.4,78.6a15,15,0,0,1-.2,2.2V82a1.5,1.5,0,0,1-.3,1c-.7.9-1.7-.2-2.1-.7a22.2,22.2,0,0,1-2.5-4.2l.6.2A13,13,0,0,0,66.4,78.6Z" style="fill:#e2d7ff"/><path d="M66.5,74c0,1.4,0,2.7-.1,4.1v.5a13,13,0,0,1-4.5-.3l-.6-.2a17.2,17.2,0,0,1-.7-2.1l3.9-1.1Z" style="fill:#baa2ee"/><path d="M27.8,78.3l.6-.2A21.8,21.8,0,0,1,26,82.3c-.5.5-1.5,1.6-2.2.7a1.5,1.5,0,0,1-.2-1c-.1-.4,0-.9-.1-1.2s-.1-1.4-.1-2.2A12.2,12.2,0,0,0,27.8,78.3Z" style="fill:#e2d7ff"/><path d="M28.4,78.1l-.6.2a12.2,12.2,0,0,1-4.4.3,4.3,4.3,0,0,1-.1-.5c0-1.4-.1-2.9-.1-4.3a42.1,42.1,0,0,0,6.1,1.6A14.3,14.3,0,0,1,28.4,78.1Z" style="fill:#baa2ee"/><path d="M54.8,12.6a13,13,0,0,1,3.6,2A17,17,0,0,1,62,18a4.7,4.7,0,0,1,1,1.6,2.7,2.7,0,0,1,.4,1.4h0a1.6,1.6,0,0,1-.3.9,1.3,1.3,0,0,1-.7.6l-1.1.2a8.3,8.3,0,0,1-3.1-.8,14.6,14.6,0,0,1-3.6-2A19.8,19.8,0,0,1,51,16.6,10.1,10.1,0,0,1,50,15a2.8,2.8,0,0,1-.4-1.5,1.4,1.4,0,0,1,.3-.9,1.3,1.3,0,0,1,.7-.6h1.1A8.3,8.3,0,0,1,54.8,12.6Z" style="fill:#e2d7ff"/><path d="M74,20.7l.3-6.3a22.5,22.5,0,0,0,0-2.6,2,2,0,0,0-.1-.7h0v-.2l-.3-1.3-.4-.9-.3-.5-.3-.2a.8.8,0,0,0-.4-.4.2.2,0,0,0-.2-.2l-1-.6h-.2l-.4-.2-1.1-.2H67.7l-1.1.2-.5.2-.4.2-1.2.7-.3.2h-.1c-.1.1-.3.2-.4.4a4.7,4.7,0,0,0-1,1L62,10l-.9,1.5L58.4,10a13.1,13.1,0,0,1,7.2-6.5c3.2-1.1,7.3-.4,9.6,2.3s2.3,7.7,2.1,11.6L76.7,31l-.6,13a17.1,17.1,0,0,0-3-.9Z" style="fill:#7850b3"/><path d="M61.2,12.8h.3a7.6,7.6,0,0,1,1.3,2.3,12.3,12.3,0,0,1,.8,3.8,4.6,4.6,0,0,1-.2,2,2.7,2.7,0,0,0-.4-1.4A4.7,4.7,0,0,0,62,18a17,17,0,0,0-3.6-3.4,13,13,0,0,0-3.6-2,8.3,8.3,0,0,0-3.1-.8h-.5l2-.8,2.5-.4a8.2,8.2,0,0,1,2.2.2h0A25.9,25.9,0,0,1,61.2,12.8Z" style="fill:#7850b3"/><path d="M61.7,12a.5.5,0,0,1-.2.9h-.3a25.9,25.9,0,0,0-3.3-1.9h-.2c-.6-.3,0-1.2.6-.9h.1l2.7,1.5Z" style="fill:#baa2ee"/><path d="M54.6,12.9a21.6,21.6,0,0,1,3.6,2,14.2,14.2,0,0,1,4.5,4.9,3.5,3.5,0,0,1,.3,1.3,1.9,1.9,0,0,1-.2.7.9.9,0,0,1-.6.4h-.9a7.1,7.1,0,0,1-2.9-.7,14.6,14.6,0,0,1-3.6-2,12.7,12.7,0,0,1-4.4-4.8,2.4,2.4,0,0,1-.4-1.3,1.4,1.4,0,0,1,.2-.7l.6-.4.9-.2A9.3,9.3,0,0,1,54.6,12.9Z" style="fill:#baa2ee"/><path d="M53,14.8l-.5-.5c-.1-.1-.4-.2-.5-.4s0-.3.2-.3a1.5,1.5,0,0,1,.7.3l.5.6C53.6,14.8,53.2,15,53,14.8Z" style="fill:#7850b3"/><path d="M52.5,15.5c.4.1,1.1.4,1.2.9s-.1.3-.2.2-.4-.2-.6-.3l-.6-.4C52.1,15.7,52.2,15.4,52.5,15.5Z" style="fill:#7850b3"/><path d="M56.6,16.2a3.5,3.5,0,0,1-1.3-.8c-.2-.1,0-.5.2-.4s1,.6,1.2,1S56.7,16.2,56.6,16.2Z" style="fill:#7850b3"/><path d="M55.3,16.8a1.9,1.9,0,0,1,.8.3,2.3,2.3,0,0,1,.7.7.2.2,0,0,1-.2.2h-.4l-.4-.2-.7-.5A.3.3,0,0,1,55.3,16.8Z" style="fill:#7850b3"/><path d="M55.9,18.9l.9.4a1.2,1.2,0,0,1,.6.6h-.1a1.5,1.5,0,0,1-.7-.3l-.8-.6C55.6,19,55.7,18.8,55.9,18.9Z" style="fill:#7850b3"/><path d="M59.7,18.4l-.5-.2a1,1,0,0,1-.5-.4c-.2-.2,0-.4.2-.3l.6.3.3.4C59.9,18.3,59.8,18.4,59.7,18.4Z" style="fill:#7850b3"/><path d="M59.1,19.4l.9.3c.2.2.5.3.5.6s0,.2-.1.2a1,1,0,0,1-.7-.4l-.7-.4C58.8,19.6,58.9,19.4,59.1,19.4Z" style="fill:#7850b3"/><path d="M68.6,3a8.5,8.5,0,0,1,6.6,2.8C78,9,77.5,13.5,77.3,17.4L76.7,31l-.6,13a17.1,17.1,0,0,0-3-.9L74,20.7l.3-6.3a22.5,22.5,0,0,0,0-2.6,2,2,0,0,0-.1-.7h0v-.2l-.3-1.3-.4-.9-.3-.5h0l-.3-.3a.8.8,0,0,0-.4-.4.2.2,0,0,0-.2-.2l-1-.6h-.2l-.4-.2-1.1-.2H67.7l-1.1.2-.5.2h0l-.4.2-1.2.7-.3.2h-.1c-.1.1-.3.2-.4.4a4.7,4.7,0,0,0-1,1L62,10l-.9,1.5.6.5a.5.5,0,0,1-.2.9h0a7.6,7.6,0,0,1,1.3,2.3,12.3,12.3,0,0,1,.8,3.8,4.6,4.6,0,0,1-.2,2h0a1.6,1.6,0,0,1-.3.9,1.3,1.3,0,0,1-.7.6l-1.1.2a8.3,8.3,0,0,1-3.1-.8,14.6,14.6,0,0,1-3.6-2A19.8,19.8,0,0,1,51,16.6,10.1,10.1,0,0,1,50,15a2.8,2.8,0,0,1-.4-1.5,1.4,1.4,0,0,1,.3-.9,1.3,1.3,0,0,1,.7-.6h.6l2-.8,2.5-.4h.6l1.6.2h-.2a.5.5,0,0,1,.3-1h.4a13.1,13.1,0,0,1,7.2-6.5,10.5,10.5,0,0,1,3-.5m0-3a12.3,12.3,0,0,0-3.9.6,16.4,16.4,0,0,0-8.1,6.5l-1,.6h-.1a14.5,14.5,0,0,0-3,.4L50.3,9l-.7.2a4.2,4.2,0,0,0-2.1,1.6,4.4,4.4,0,0,0-.9,2.7,6.6,6.6,0,0,0,.6,2.7,13.5,13.5,0,0,0,1.4,2.2,23,23,0,0,0,4.2,4,23.2,23.2,0,0,0,4.3,2.4,12.1,12.1,0,0,0,4.2,1,6.5,6.5,0,0,0,2.1-.4,5,5,0,0,0,2.2-1.6,6.3,6.3,0,0,0,.8-2.3,13.7,13.7,0,0,0,.2-2.8,16.3,16.3,0,0,0-1-4.6,9.1,9.1,0,0,0-.7-1.4,3.3,3.3,0,0,0-.1-1.4h.1l.8-.8.3-.3h.2l.8-.5h.5l.6-.2h1l.7.2H70l.5.3h.4c0,.1,0,.2.1.2v.2a1.9,1.9,0,0,1,.2.8v.2h0V12a17.6,17.6,0,0,1,0,2.3c0,1.4-.1,2.9-.2,4.3v2L70.1,43a2.9,2.9,0,0,0,2.4,3.1,11.7,11.7,0,0,1,2.5.7,2.3,2.3,0,0,0,1.1.2,3.3,3.3,0,0,0,1.7-.4,3.1,3.1,0,0,0,1.3-2.4v-.3l.6-12.8.2-4.3.4-9.3V16.4c.3-3.9.5-8.8-2.8-12.6A11.8,11.8,0,0,0,68.6,0Z" style="fill:#2d0861"/><path d="M48.9,78.6c-3.4,0-6.9-.2-10.1-.4a88.4,88.4,0,0,1-9.9-1.3,43.7,43.7,0,0,1-6.2-1.7,39.1,39.1,0,0,1-7.4-3.6c-6-3.8-6.8-9.4-7.8-15.3-.1-.5-.1-1-.2-1.6a40.2,40.2,0,0,0-2.2-7.5,1.5,1.5,0,0,1,.6-1.8l.4-.3h.8A8.3,8.3,0,0,1,9,44.2h4.2a31.1,31.1,0,0,1,4.6,1.5l.9.4,1.2.5,2.4,1.1A34.5,34.5,0,0,0,35,50.2l3.3-.2a34.2,34.2,0,0,0,8.1-1.7,50,50,0,0,0,7.9-3.7l.9-.5,3-1.5,2.1-1.1.9-.4.4-.2H62a30.5,30.5,0,0,1,4.3-1.4l1.2-.3h4.6l1.7.4,1.7.6.4.2h.4l.8.5,1.7,1,.4.3.8.7,1.4,1.4c0,.1,0,.1.1.2h0v.2l.6.8a3.2,3.2,0,0,1,.3.9,28.1,28.1,0,0,1-.8,6,45.7,45.7,0,0,1-2,7.1,35.2,35.2,0,0,1-3.4,7.3,22.5,22.5,0,0,1-9.1,8.8l-2.2.9-4,1.2a60.9,60.9,0,0,1-12.1,1.1Z" style="fill:#baa2ee"/><path d="M70.6,40.4h1.3l1.5.4,1.6.5h.3l.3.2.8.4,1.5,1,.4.2.7.6,1.2,1.3h.1a1,1,0,0,1,.1.3l.5.7a.1.1,0,0,0,.1.1,31.7,31.7,0,0,1-.7,5.7,59.8,59.8,0,0,1-2,6.9,31.9,31.9,0,0,1-3.3,7A20.4,20.4,0,0,1,66.5,74l-2,.9L60.6,76a56,56,0,0,1-11.7,1.1c-3.4,0-6.8-.2-10-.4a61.6,61.6,0,0,1-9.6-1.3,42.1,42.1,0,0,1-6.1-1.6,38.5,38.5,0,0,1-7.1-3.4c-5.9-3.8-6.3-9.6-7.3-15.9a37.5,37.5,0,0,0-2.3-7.9l.4-.2.4-.2h.1a6.1,6.1,0,0,1,1.8-.5h3.7a21.6,21.6,0,0,1,4.3,1.4h.5l.4.2,1.2.5,2.5,1.1A37.3,37.3,0,0,0,35,51.7l3.5-.2a35,35,0,0,0,8.4-1.8A59.2,59.2,0,0,0,55,46l3.9-2.1,2-1,.9-.4.4-.2h.4a28.3,28.3,0,0,1,4.1-1.4l1.1-.2h2.8m0-3H67.3l-1.3.3a30.7,30.7,0,0,0-4.6,1.5H61l-.4.2-.9.5-2.2,1-3,1.6-.9.5a57.8,57.8,0,0,1-7.7,3.6,31.9,31.9,0,0,1-7.7,1.6l-3.2.2a33.3,33.3,0,0,1-12.1-2.3l-2.4-1.1h-.4l-.8-.4h-.9a23.8,23.8,0,0,0-4.9-1.5H8.7a9.8,9.8,0,0,0-2.3.6l-.5.3H5.8l-.4.2-.5.3a3.1,3.1,0,0,0-1.2,3.7A29.8,29.8,0,0,1,5.8,55,7.8,7.8,0,0,1,6,56.6c1,5.9,2,12.1,8.5,16.3a36.6,36.6,0,0,0,7.7,3.7,59.8,59.8,0,0,0,6.4,1.8,92.3,92.3,0,0,0,10.1,1.3c3.2.2,6.7.4,10.2.4a56.6,56.6,0,0,0,12.4-1.2,25.8,25.8,0,0,0,4.2-1.2l2.4-1a24.6,24.6,0,0,0,9.7-9.3,38.2,38.2,0,0,0,3.6-7.6c.7-2.2,1.4-4.7,2-7.2a33,33,0,0,0,.8-6.4,2.7,2.7,0,0,0-.6-1.7l-.5-.9-.2-.2h0a.1.1,0,0,0-.1-.1h-.1A7.5,7.5,0,0,0,81,41.6l-.8-.7H80l-.3-.3a11.8,11.8,0,0,0-1.9-1.1l-.9-.5-.4-.2h-.3a.1.1,0,0,0-.1-.1l-1.9-.6-1.8-.4H70.6Z" style="fill:#7850b3"/><path d="M55,71.1a43,43,0,0,1-28.2-8.7,28.1,28.1,0,0,1-7.4-8.7,21.7,21.7,0,0,1-2.2-6.5h.4c0,.1,0,.1.1.1l.4.2,1.2.5,2.5,1.1a35,35,0,0,0,16.7,2.3,35,35,0,0,0,8.4-1.8A59.2,59.2,0,0,0,55,46l3.9-2.1,2-1,.9-.4.4-.2h.4a28.3,28.3,0,0,1,4.1-1.4l1.1-.2h2.7a3.4,3.4,0,0,1,1,0h.4l1.5.4,1.6.5h.3l.3.2.8.4,1.5,1,.4.2.7.6,1.2,1.3h.1a1,1,0,0,1,.1.3l.5.7a.1.1,0,0,0,.1.1,31.7,31.7,0,0,1-.7,5.7,59.8,59.8,0,0,1-2,6.9,31.9,31.9,0,0,1-3.3,7A50,50,0,0,1,55,71.1Z" style="fill:#e2d7ff"/><path d="M7.3,46.2h.1a6.1,6.1,0,0,1,1.8-.5h3.7a21.6,21.6,0,0,1,4.3,1.4,21.7,21.7,0,0,0,2.2,6.5,28.1,28.1,0,0,0,7.4,8.7A43,43,0,0,0,55,71.1a50,50,0,0,0,20-5.3A20.4,20.4,0,0,1,66.5,74l-2,.9L60.6,76c-7,1.5-14.8,1.1-21.7.7a61.6,61.6,0,0,1-9.6-1.3,42.1,42.1,0,0,1-6.1-1.6,38.5,38.5,0,0,1-7.1-3.4c-5.9-3.8-6.3-9.6-7.3-15.9a37.5,37.5,0,0,0-2.3-7.9l.4-.2Z" style="fill:#baa2ee"/><path d="M35,53.2a36.1,36.1,0,0,1-13.8-2.7l-2.5-1L17,48.7h-.3a21.9,21.9,0,0,0-4.1-1.3H9.4L8,47.5l-.4.2-.3.2a.1.1,0,0,0-.1.1h0l-.4.2a3.1,3.1,0,0,1-2,.7,3.5,3.5,0,0,1-2.4-1,3.9,3.9,0,0,1-.9-2.8A3.3,3.3,0,0,1,2.6,43a12.6,12.6,0,0,1,6.8-2.6h2.2A27.4,27.4,0,0,1,20.7,43l.8.4,3,1.2a28.5,28.5,0,0,0,3.9,1.1l2,.4,1.8.2,2.9.2h5.3l3.6-.8a43.8,43.8,0,0,0,7.6-3.3l1.8-1c4.6-2.5,9.8-5.3,15.8-5.7h1.2a14.3,14.3,0,0,1,2.9.3,14.6,14.6,0,0,1,3.4,1l1.8.8a17.8,17.8,0,0,1,6.9,6.2,3.6,3.6,0,0,1,.3,2.7,3.2,3.2,0,0,1-1.6,2,4.7,4.7,0,0,1-1.6.4,3.2,3.2,0,0,1-2.7-1.4c-.1-.1-.2-.2-.2-.3l-.4-.6h-.1L78,44.9l-.6-.5-.3-.2-1.5-.9-.6-.4h-.6L73,42.2l-1.4-.3H68.1l-1.1.2a25.4,25.4,0,0,0-3.9,1.3h0l-.3.2-.4.2-.8.3-2,1-3,1.6-.9.5a50.2,50.2,0,0,1-8.3,3.8A35.3,35.3,0,0,1,38.6,53Z" style="fill:#e8a4d2"/><path d="M70.4,36.6a12.4,12.4,0,0,1,2.7.3,17.1,17.1,0,0,1,3,.9l1.7.7a15.1,15.1,0,0,1,6.3,5.7,1.8,1.8,0,0,1-.7,2.5l-.9.3a1.8,1.8,0,0,1-1.5-.8.1.1,0,0,1-.1-.1l-.5-.7a1,1,0,0,0-.1-.3h-.1L79,43.8l-.7-.6-.4-.2-1.5-1-.8-.4-.3-.2H75l-1.6-.5-1.5-.4H67.8l-1.1.2a28.3,28.3,0,0,0-4.1,1.4h-.4l-.4.2-.9.4-2,1L55,46a59.2,59.2,0,0,1-8.1,3.7,35,35,0,0,1-8.4,1.8l-3.5.2a37.3,37.3,0,0,1-13.2-2.5l-2.5-1.1-1.2-.5-.4-.2h-.5a21.6,21.6,0,0,0-4.3-1.4H9.2a6.1,6.1,0,0,0-1.8.5H7.3l-.4.2-.4.2a.1.1,0,0,1-.1.1l-.3.2h.1a2,2,0,0,1-1.5.6,1.7,1.7,0,0,1-1.2-.6,1.9,1.9,0,0,1,0-2.6,11.4,11.4,0,0,1,6.1-2.3h1.9a26.5,26.5,0,0,1,8.6,2.5A32,32,0,0,0,24,46a30.4,30.4,0,0,0,4,1.2l2.2.4,1.9.2,3,.2h4.5l.7-.2h.4a22.2,22.2,0,0,0,3.7-.9,49.5,49.5,0,0,0,7.9-3.4l1.8-1c4.8-2.6,9.7-5.1,15.2-5.5h1.1m-7.8,5.6h0m7.8-8.6H69.1c-6.3.4-11.7,3.3-16.4,5.9l-.4.2-1.4.7a34.6,34.6,0,0,1-7.3,3.2l-3.4.8H35.1l-2.8-.2-1.6-.2-2-.3L25,43.2,22.2,42l-.9-.3a27.5,27.5,0,0,0-9.6-2.8H9.3a14.5,14.5,0,0,0-7.6,2.9A4.4,4.4,0,0,0,0,45a5.4,5.4,0,0,0,1.3,3.9,4.9,4.9,0,0,0,3.4,1.5,5.2,5.2,0,0,0,2.9-.9l.4-.3h.6l1-.3h2.7A18.8,18.8,0,0,1,16.1,50h.8l.8.4h.4a15.6,15.6,0,0,0,2.6,1.1A38.7,38.7,0,0,0,35,54.7l3.8-.2a37.7,37.7,0,0,0,9.1-2,55.1,55.1,0,0,0,8.5-3.9l.9-.5,3-1.5,1.9-1,.8-.4h.4c0-.1.1-.1.2-.1h.2a25.3,25.3,0,0,1,3.6-1.2l.9-.2h3.1l1.2.3,1.2.4h.5l.6.3,1.3.8.3.2h0a1,1,0,0,0,.5.4l.9,1H78l.3.5.3.4a4.8,4.8,0,0,0,6.2,1.4,4.2,4.2,0,0,0,2.3-2.9,5,5,0,0,0-.4-3.8,18.7,18.7,0,0,0-7.5-6.8,12.1,12.1,0,0,0-2-.9,24.7,24.7,0,0,0-3.6-1.1l-3.2-.3Z" style="fill:#ac538c"/><path d="M43.7,72.7c-4.9-.1-8.3-2.1-9.4-5.4a5.7,5.7,0,0,1-.1-2.2,7.9,7.9,0,0,1,.8-2.3c-.3-2.1-.2-5.4,1.8-7.5a2.1,2.1,0,0,1,1.1-.4H38a4.8,4.8,0,0,1,3.3,2.3c.2.1.3.3.4.4h4.1c.1-.1.2-.3.4-.4a5,5,0,0,1,3.3-2.3h.1a2.1,2.1,0,0,1,1.1.4c2.1,2.1,2.1,5.4,1.8,7.5a8.5,8.5,0,0,1,.8,2.2,5,5,0,0,1-.1,2.4c-1.6,4.6-7.1,5.3-9.4,5.3h-.1Z" style="fill:#ffaa5a"/><path d="M37.9,56.4c1.4.2,2.3,2,3.3,2.8l2.5-.2h.1l2.5.2c1-.8,1.9-2.6,3.3-2.8,1.7,1.6,1.7,4.5,1.4,6.7a6.5,6.5,0,0,1,.8,2.2,3.8,3.8,0,0,1,0,1.5c-1.1,3.3-5,4.3-8,4.5h-.1c-3-.2-6.9-1.2-8-4.5a3.8,3.8,0,0,1,0-1.5,6.5,6.5,0,0,1,.8-2.2c-.3-2.2-.3-5.1,1.4-6.7m0-3a2.7,2.7,0,0,0-2.1.9c-2.4,2.3-2.6,5.8-2.3,8.2a7.9,7.9,0,0,0-.8,2.3h0a6.1,6.1,0,0,0,.2,2.9c1.3,3.9,5.2,6.3,10.7,6.4h.2c5.5-.1,9.5-2.5,10.8-6.4a6.1,6.1,0,0,0,.2-2.9h0a7.9,7.9,0,0,0-.8-2.3c.3-2.4.1-5.9-2.3-8.2a2.7,2.7,0,0,0-2.1-.9h-.3A6.2,6.2,0,0,0,45.2,56H42.3a6.2,6.2,0,0,0-4.1-2.6Z" style="fill:#ff8d3d"/><path d="M43.7,70.1h0Z" style="fill:#51321d"/><path d="M43.8,67.8H44c.1-.2.1-.4.2-.4h.3c.1,0,.2,0,.2-.1s.3-.5.1-.6a1.7,1.7,0,0,0-2.1,0c-.2.1-.1.4.1.6s.1.1.2.1h.3c.1,0,.1.2.2.4h.3Z" style="fill:#51321d"/><path d="M42.3,69l-.7-.2a1.1,1.1,0,0,1-.9-.8.8.8,0,0,1,.2-.8c.1-.2.2-.2.4-.2s.2.3.1.4-.2.4-.1.5.3.4.4.4h.9c.3-.1.8-.3.9-.5a.3.3,0,0,1,.5,0c.1.2.6.4.9.5h.9c.1,0,.4-.2.4-.4s0-.3-.1-.5,0-.3.1-.4.3,0,.4.2a.8.8,0,0,1,.2.8,1.1,1.1,0,0,1-.9.8,2,2,0,0,1-1.1.1h0a2.1,2.1,0,0,1-1-.4,3,3,0,0,1-1.1.4h-.4Z" style="fill:#51321d"/><path d="M47.7,65.1a1,1,0,0,0-.8-.7h-.5c-.5.2-.9.8-.6,1.2l.7.4h.9A.6.6,0,0,0,47.7,65.1Z" style="fill:#51321d"/><path d="M41.7,65a.9.9,0,0,0-.6-.6h-.5a1,1,0,0,0-.8.7.6.6,0,0,0,.3.8H41l.7-.4C41.9,65.4,41.8,65.2,41.7,65Z" style="fill:#51321d"/><path d="M49.1,65.2a3.3,3.3,0,0,1,1.6-1.1" style="fill:none;stroke:#ff8d3d;stroke-linecap:round;stroke-linejoin:round;stroke-width:1.5px"/><path d="M49.2,66.1a3.1,3.1,0,0,1,1.9,0" style="fill:none;stroke:#ff8d3d;stroke-linecap:round;stroke-linejoin:round;stroke-width:1.5px"/><path d="M49.1,66.9a3.5,3.5,0,0,1,1.6.8" style="fill:none;stroke:#ff8d3d;stroke-linecap:round;stroke-linejoin:round;stroke-width:1.5px"/><path d="M38.4,65.2a3.3,3.3,0,0,0-1.6-1.1" style="fill:none;stroke:#ff8d3d;stroke-linecap:round;stroke-linejoin:round;stroke-width:1.5px"/><path d="M38.3,66.1a3.1,3.1,0,0,0-1.9,0" style="fill:none;stroke:#ff8d3d;stroke-linecap:round;stroke-linejoin:round;stroke-width:1.5px"/><path d="M38.4,66.9a3.5,3.5,0,0,0-1.6.8" style="fill:none;stroke:#ff8d3d;stroke-linecap:round;stroke-linejoin:round;stroke-width:1.5px"/></g></g></g></svg>