<svg xmlns="http://www.w3.org/2000/svg" width="41.56" height="40.8" viewBox="0 0 41.56 40.8">
  <g id="Layer_2" data-name="Layer 2">
    <g id="Layer_3" data-name="Layer 3">
      <g id="dog_food_2" data-name="dog_food 2">
        <g>
          <ellipse cx="20.78" cy="34.13" rx="18.01" ry="5.33" fill="#9be3bb"/>
          <ellipse cx="20.78" cy="33.56" rx="19.65" ry="5.41" fill="#f3ebfc"/>
          <ellipse cx="20.78" cy="33.04" rx="19.65" ry="5.41" fill="#cbf4db"/>
          <ellipse cx="20.78" cy="33.6" rx="14.57" ry="3.75" fill="#9be3bb"/>
          <path d="M20.78,27.71c10.68,0,19.35,2.39,19.35,5.33a1.09,1.09,0,0,1,0,.26,1.15,1.15,0,0,1,0,.26c0,1.29-1.66,2.47-4.43,3.39C32.55,38.4,27,39.37,20.78,39.37S9,38.4,5.85,37c-2.76-.92-4.42-2.1-4.42-3.39a2.28,2.28,0,0,1,0-.26,2.11,2.11,0,0,1,0-.26c0-2.94,8.66-5.33,19.35-5.33m0-1.43C10.77,26.28,0,28.4,0,33a2.17,2.17,0,0,0,0,.26,2.35,2.35,0,0,0,0,.26c0,1.94,1.79,3.53,5.33,4.73,3.47,1.57,9.24,2.51,15.45,2.51s12-.94,15.45-2.51c3.53-1.2,5.33-2.79,5.33-4.73,0-.08,0-.17,0-.26s0-.17,0-.26c0-4.64-10.77-6.76-20.78-6.76Z" fill="#72b75b"/>
        </g>
        <g>
          <g>
            <path d="M13.29,37a.74.74,0,0,1-.53-.23L7.08,32.09a.72.72,0,0,1-.16-.93A57.2,57.2,0,0,1,13.1,23a38.43,38.43,0,0,0,4.54-6c.83-1.28,1.62-2.48,2.5-3.6a46.35,46.35,0,0,1,3.35-3.81c.47-.49.84-.87,1.11-1.22s.61-.85,1.11-1.58c1.91-2.78,3.71-5.33,4.72-6a.69.69,0,0,1,.83.06l6.06,5a.78.78,0,0,1,.25.49.69.69,0,0,1-.16.52c-.18.22-4.4,5.27-6,7a39.08,39.08,0,0,0-3.73,5.47c-.52.84-1,1.71-1.58,2.54a20.39,20.39,0,0,1-3.37,3.77,17.41,17.41,0,0,0-3.3,3.76c-1,1.78-5.17,7.59-6.13,7.59Z" fill="#af7553"/>
            <path d="M30.81,1.43l.63.52L35.2,5.08l1.66,1.37s-4.37,5.24-6,7-3.46,5.1-5.38,8.11-5,4.6-6.69,7.54a40,40,0,0,1-5.51,7.24h0L11.71,35,9.14,32.88,7.53,31.54a56.5,56.5,0,0,1,6.08-8c3.05-3.12,4.83-6.77,7.1-9.65s3.66-4,4.45-5,4.33-6.55,5.65-7.38m0-1.43a1.37,1.37,0,0,0-.76.22c-1,.65-2.47,2.58-4.93,6.17-.48.7-.9,1.3-1.08,1.54s-.61.69-1.06,1.16A48.16,48.16,0,0,0,19.58,13c-.9,1.14-1.7,2.36-2.54,3.65a37.9,37.9,0,0,1-4.45,5.88,55.53,55.53,0,0,0-6.27,8.3,1.42,1.42,0,0,0,.3,1.85L8.23,34l2.56,2.13,1.48,1.22a1.45,1.45,0,0,0,1,.42c.63,0,.89,0,3.19-2.87A47.39,47.39,0,0,0,20,29.81a16.9,16.9,0,0,1,3.17-3.6,21.2,21.2,0,0,0,3.49-3.9c.53-.84,1.06-1.71,1.58-2.56a38.19,38.19,0,0,1,3.64-5.35c1.63-1.75,5.86-6.81,6-7a1.42,1.42,0,0,0,.32-1,1.45,1.45,0,0,0-.51-1L36.12,4,32.35.86,31.72.33A1.42,1.42,0,0,0,30.81,0Z" fill="#75411a"/>
          </g>
          <path d="M25.75,16.75c-.7,1.85-4.15,6.44-6.1,8.29a120.23,120.23,0,0,0-7.94,10l1.57,1.3a38,38,0,0,0,5.52-7.23c1.73-2.94,4.84-4.65,6.69-7.54s3.77-6.38,5.38-8.11,6-7,6-7L35.2,5.08a30.09,30.09,0,0,1-3.55,3.86A28.56,28.56,0,0,0,25.75,16.75Z" fill="#924f28"/>
          <path d="M20.71,13.84c-2.27,2.88-4.05,6.53-7.1,9.65a56.5,56.5,0,0,0-6.08,8.05l1.61,1.34c.89-1.1,2.08-2.63,3.14-4.2,2-3,2.54-4.18,4.28-6.08S19,18.82,21,15.85a44.93,44.93,0,0,1,5.42-6.67c1.29-1.3,3.39-4.93,5.06-7.23l-.63-.52C29.49,2.26,26,7.8,25.16,8.81S23,11,20.71,13.84Z" fill="#924f28"/>
          <path d="M26.38,9.18A44.93,44.93,0,0,0,21,15.85c-2,3-2.66,4.86-4.4,6.75s-2.28,3.12-4.28,6.08c-1.06,1.57-2.25,3.1-3.14,4.2L11.71,35a120.23,120.23,0,0,1,7.94-10c2-1.85,5.4-6.44,6.1-8.29a28.56,28.56,0,0,1,5.9-7.81A30.09,30.09,0,0,0,35.2,5.08L31.44,2C29.77,4.25,27.67,7.88,26.38,9.18Z" fill="#af7553"/>
        </g>
      </g>
    </g>
  </g>
</svg>
