<svg xmlns="http://www.w3.org/2000/svg" width="40.89" height="40.99" viewBox="0 0 40.89 40.99">
  <g id="Layer_2" data-name="Layer 2">
    <g id="Layer_3" data-name="Layer 3">
      <g id="dog_toy_3" data-name="dog_toy 3">
        <g>
          <g>
            <path d="M3.69,28.64a5.61,5.61,0,0,0-1.38.56A.53.53,0,0,1,2,29.14a.78.78,0,0,0-.2-.44,1,1,0,0,0-1.26.05h0l-.12.1a1,1,0,0,0-.17,1.37.7.7,0,0,0,.17.13l0,0,.16.05H.64a.89.89,0,0,0,.23,0h0l.21-.05h0l0,0a.44.44,0,0,0-.08.11.35.35,0,0,0-.05.08.67.67,0,0,0-.06.12.36.36,0,0,0,0,.09s0,.08,0,.11,0,.07,0,.1,0,.07,0,.11v.2s0,.07,0,.11,0,.06,0,.08a.61.61,0,0,0,.05.12s0,0,0,.06l.12.16.15.11.05,0,.12.05.06,0,.13,0H1.8l.2,0,.06,0L2.2,32l.07,0,.06,0s0,0,0,.06a.16.16,0,0,0,0,.07l0,.12,0,.06a1.16,1.16,0,0,0,0,.18v.18a.13.13,0,0,0,0,.06.5.5,0,0,0,0,.12s0,0,0,.06,0,.07,0,.1l0,.05a.71.71,0,0,0,.1.14A1.07,1.07,0,0,0,3.86,33l.1-.12H4a1.12,1.12,0,0,0,.16-.22.3.3,0,0,1,.25.11,3,3,0,0,0,.8.56l-.43-4.82A5.63,5.63,0,0,0,3.69,28.64Z" fill="#cc411b"/>
            <path d="M12,40.51h0a1,1,0,0,0,.08-1.27.72.72,0,0,0-.44-.2.59.59,0,0,1-.1-.43,5.38,5.38,0,0,0,.59-1.37,7.21,7.21,0,0,0,.19-1l-4.82-.54A3.25,3.25,0,0,0,8,36.5c.11.07.12.21.1.36A.91.91,0,0,0,8,37H8l-.12.11a1.05,1.05,0,0,0-.17,1.47l.14.11,0,0,.11,0,.06,0,.12,0H8.4l.18,0,.06,0,.12,0,.07,0,.06,0,0,.06,0,.07a1.47,1.47,0,0,0-.06.14.14.14,0,0,0,0,.06,1.94,1.94,0,0,0-.05.2v0a.86.86,0,0,0,0,.16s0,0,0,.07a.5.5,0,0,0,0,.12s0,0,0,.06a.43.43,0,0,0,0,.12s0,0,0,.06a.81.81,0,0,0,.12.14.44.44,0,0,0,.15.12l.06,0,.11,0,.09,0,.11,0h.2l.1,0,.1,0,.12,0,.09,0,.12,0,.08-.06.12-.07,0,0v0a.83.83,0,0,0-.06.21v0a.81.81,0,0,0,0,.22s0,0,0,.06a1.42,1.42,0,0,0,.05.16.17.17,0,0,0,0,.05.94.94,0,0,0,.12.18,1,1,0,0,0,1.38-.15Z" fill="#cc411b"/>
          </g>
          <g>
            <path d="M11.4,37c-1.42,0-3-.94-5-3l-.15-.16C2.52,29.9,4.1,27.63,5.05,26.27l.31-.45a9.56,9.56,0,0,1,.25-.94,1.85,1.85,0,0,1-.12-1.35c.47-1.69,3.06-3,3.84-3.32a16.13,16.13,0,0,1,4.34-1A11,11,0,0,0,15.09,19c3-1.29,9.16-6.87,10.11-8.88a.73.73,0,0,1,.53-.4h.12a.69.69,0,0,1,.51.21l4.31,4.46a.71.71,0,0,1,.18.68.69.69,0,0,1-.48.5c-2.33.7-6.23,5.56-8.87,9.78l-.06.08,0,.09a11.79,11.79,0,0,0-.25,1.37A16,16,0,0,1,20,31.15c-.42.9-2,3.83-3.89,3.83l-.25,0-.15.09a3.62,3.62,0,0,1-1,.4,7.2,7.2,0,0,0-.78.5A4.33,4.33,0,0,1,11.4,37Z" fill="#f9d319"/>
            <path d="M25.85,10.37,27,11.52l3.2,3.31c-2.88.87-7.24,6.84-9.27,10.08a.91.91,0,0,1-.11.16,1,1,0,0,1,0,.12h0c-.33,1-.4,3.63-1.35,5.65-.79,1.68-2.09,3.42-3.25,3.42a1,1,0,0,1-.4-.08,1.78,1.78,0,0,1-.36.25,3.31,3.31,0,0,1-.91.35c-1,.45-1.78,1.46-3.08,1.46-1,0-2.41-.64-4.46-2.74l-.15-.15c-3.92-4.12-1.46-6-.76-7.28.09-.42.22-.85.36-1.29l0-.06c-.92-1.3,1.23-2.94,3.27-3.85s4.67-.92,5.68-1.23c3.23-1.38,9.5-7,10.55-9.27m0-1.43-.24,0a1.45,1.45,0,0,0-1.06.8c-.87,1.87-6.79,7.22-9.74,8.53-.25.06-.75.13-1.23.19A16.51,16.51,0,0,0,9,19.56c-1.1.49-3.7,1.84-4.24,3.78a2.58,2.58,0,0,0,0,1.58c-.07.22-.12.42-.17.62s-.13.21-.21.32C3.53,27.19,1.6,30,5.76,34.34l.16.16C8,36.67,9.78,37.67,11.4,37.67a5,5,0,0,0,2.95-1.14,5.89,5.89,0,0,1,.63-.4,4.78,4.78,0,0,0,1.09-.44h.08c2.29,0,3.94-3,4.54-4.24a16.36,16.36,0,0,0,1.17-4.51c.08-.49.16-1,.23-1.25l0,0c2.59-4.13,6.43-8.85,8.46-9.46a1.44,1.44,0,0,0,.62-2.37L28,10.52,26.87,9.38a1.42,1.42,0,0,0-1-.44Z" fill="#e57225"/>
          </g>
          <g>
            <path d="M20.75,25.19a1,1,0,0,0,0-.12.91.91,0,0,0,.11-.16c2-3.24,6.39-9.21,9.27-10.08L27,11.52l-1.11-1.15c-1.05,2.23-7.32,7.89-10.55,9.27-1.54.44-7.84,2.18-8.72,4.58A12,12,0,0,0,6,26.07c-.7,1.29-3.16,3.16.76,7.28l.15.15c4.61,4.71,5.76,2.1,7.54,1.28a3.31,3.31,0,0,0,.91-.35,2.23,2.23,0,0,0,.61-.49C17.13,32.64,20.31,26.25,20.75,25.19Z" fill="#fcd54d"/>
            <path d="M9.62,20.87c-2,.91-4.19,2.55-3.27,3.85l.1.14c.92,1.14,2.23.72,3.83-.88,1.08-1.08,2.87-2.59,4-3.51.6-.5,1-.83,1-.83C14.29,20,11.66,20,9.62,20.87Z" fill="#ffeb81"/>
            <path d="M19.4,30.84c1-2,1-4.65,1.35-5.65,0,0-2.75,3.3-4.45,4.92s-2.11,3-.83,3.92S18.44,32.86,19.4,30.84Z" fill="#ffeb81"/>
          </g>
        </g>
        <g>
          <path d="M33.1,18.57A8.2,8.2,0,0,1,31,18.18a10.32,10.32,0,0,0-1-.25c-.32-.05-.7-.06-1.11-.08a5.67,5.67,0,0,1-4.22-1.39c-1.39-1.42-1.62-3.34-1.83-5,0-.27-.06-.54-.1-.8s-.1-.65-.16-1c-.29-1.68-.59-3.42.58-4.56A2.6,2.6,0,0,1,25,4.33a3.05,3.05,0,0,1,2,.76A10.72,10.72,0,0,1,32.31,2.6a7,7,0,0,1,.8,0h.15a4.27,4.27,0,0,1,2,.52c.56-1.34,1-2.37,1.95-2.37a1.27,1.27,0,0,1,1,.53,3.07,3.07,0,0,1,.53-.06,1.44,1.44,0,0,1,1.45,1c.4,1.24-1.38,2.87-2.39,3.63a4.5,4.5,0,0,1,.38,1.92,9.57,9.57,0,0,1-2.38,5.64,2.2,2.2,0,0,1,.19.3,4.22,4.22,0,0,1-.72,3.94,2.53,2.53,0,0,1-2.09.95Z" fill="#f9d319"/>
          <path d="M37.16,1.43c.2,0,.42.19.66.66h0a2.36,2.36,0,0,1,.82-.18.72.72,0,0,1,.77.51c.3.91-2,2.9-2.63,3.17l0,0a3.86,3.86,0,0,1,.61,2.15,9.15,9.15,0,0,1-2.83,5.92.52.52,0,0,1,.17,0c1,0,1,2.28-.08,3.57a1.85,1.85,0,0,1-1.54.68,21.36,21.36,0,0,1-3.05-.62c-1.41-.22-3.51.18-4.93-1.27s-1.47-3.59-1.73-5.43-.89-3.87.21-4.94A1.91,1.91,0,0,1,25,5.05c.86,0,1.68.47,1.8.94a1.16,1.16,0,0,1,0,.18c1.87-1.52,3.6-2.64,5.57-2.86a5.58,5.58,0,0,1,.72,0h.14a3.86,3.86,0,0,1,2.28.86h0c.57-1.32,1.05-2.71,1.62-2.71m0-1.43h0C36,0,35.38,1,34.84,2.13a5,5,0,0,0-1.56-.29h-.17a8.49,8.49,0,0,0-.88,0A10.82,10.82,0,0,0,27,4.19,4.09,4.09,0,0,0,25,3.62a3.37,3.37,0,0,0-2.38,1c-1.44,1.4-1.07,3.5-.78,5.19.06.32.11.65.16,1s.06.52.1.78c.2,1.73.46,3.87,2,5.46a6.38,6.38,0,0,0,4.7,1.61,9.45,9.45,0,0,1,1,.07,9.21,9.21,0,0,1,1,.23,8.85,8.85,0,0,0,2.31.41,3.25,3.25,0,0,0,2.65-1.21,5,5,0,0,0,.84-4.62,10.11,10.11,0,0,0,2.22-5.68,4.69,4.69,0,0,0-.24-1.71c1.17-.95,2.71-2.58,2.22-4.09A2.14,2.14,0,0,0,38.66.47h-.27A1.8,1.8,0,0,0,37.16,0Z" fill="#e57225"/>
        </g>
        <g>
          <path d="M37.38,7.7a3.86,3.86,0,0,0-.61-2.15l0,0c.59-.27,2.93-2.26,2.63-3.17S38,2,37.84,2.08h0c-.87-1.71-1.5.23-2.28,2.05h0a3.86,3.86,0,0,0-2.28-.86,8.12,8.12,0,0,0-.86,0c-2,.22-3.7,1.34-5.57,2.86a5.4,5.4,0,0,0,0,1.22,6.1,6.1,0,0,0,.12,1,6.11,6.11,0,0,0,1.7,3.2c1.89,1.9,3.33,3.33,4.81,2.83a2.81,2.81,0,0,0,1.14-.77A9.15,9.15,0,0,0,37.38,7.7Z" fill="#fcd54d"/>
          <path d="M34.64,17.17c1.1-1.37,1-3.84-.09-3.55S32,13.74,31.81,13c-.07-.32-.14-.68-.25-1.05a3.9,3.9,0,0,0-.81-1.56A5.69,5.69,0,0,0,28.8,9.11c-.2-.1-.41-.21-.65-.35C26.82,8,27.07,7.12,26.78,6c-.19-.73-2.09-1.47-3.18-.4s-.47,3.09-.21,4.94.31,4,1.73,5.43,3.52,1.05,4.93,1.27S33.54,18.55,34.64,17.17Z" fill="#ff8d3d"/>
          <path d="M34,15.6a.23.23,0,0,0-.26-.19A5.42,5.42,0,0,1,30,14.15h0c.33-.41-.79-1-.85-1.25s0-.21-.07-.32a1.2,1.2,0,0,0-.24-.46,1.61,1.61,0,0,0-.58-.37l-.2-.11c-.38-.21-1-1.14-1.35-.94a8.26,8.26,0,0,1-.51-.81c-.74-1.3-1-2.37-.64-2.79a.23.23,0,0,0-.35-.29c-.48.59-.26,1.79.59,3.3.2.35.44.71.69,1.08a7.82,7.82,0,0,0,.15,1,2.74,2.74,0,0,0,.52,1.62c.42.44,1,.31,1.47.38a6.85,6.85,0,0,0,.86.18,6.06,6.06,0,0,0,4.33,1.52A.23.23,0,0,0,34,15.6Z" fill="#af2d0e"/>
          <g>
            <ellipse cx="30.65" cy="7.2" rx="1.23" ry="0.82" transform="translate(3.71 23.49) rotate(-44.38)" fill="#252324"/>
            <ellipse cx="33.38" cy="9.99" rx="1.23" ry="0.82" transform="translate(2.53 26.2) rotate(-44.38)" fill="#252324"/>
          </g>
        </g>
      </g>
    </g>
  </g>
</svg>
