<svg xmlns="http://www.w3.org/2000/svg" width="42.26" height="42.57" viewBox="0 0 42.26 42.57">
  <g id="Layer_2" data-name="Layer 2">
    <g id="Layer_3" data-name="Layer 3">
      <g id="dog_toy_4" data-name="dog_toy 4">
        <g>
          <path d="M26.1,10.12a1.57,1.57,0,0,1-.1-.28h0c0-.05,0-.11,0-.17a2.44,2.44,0,0,1,1.38-2.93,3.56,3.56,0,0,1,.59-.26,3.26,3.26,0,0,1,.73,3.22v0a2.07,2.07,0,0,1-.15.34C27.92,11.2,26.72,11.63,26.1,10.12Z" fill="#dfe590" stroke="#c3bf4f" stroke-miterlimit="10" stroke-width="0.95"/>
          <path d="M11,29.86l-.12,0a1.25,1.25,0,0,1-.54-.43c-.36-.47-.48-1.15,0-1.49h0a.9.9,0,0,1,.38-.18,2.13,2.13,0,0,1,.39,0,2.21,2.21,0,0,1,.37,0,2.45,2.45,0,0,1,1.71,1.63,2.33,2.33,0,0,1,.1.29A4.9,4.9,0,0,1,11,29.86Z" fill="#dfe590" stroke="#c3bf4f" stroke-miterlimit="10" stroke-width="0.95"/>
          <path d="M13.36,32.27l-2.85-.49a3.43,3.43,0,0,1-.79-.7c-.4-.5-.58-1.17.63-1.69l.28-.11a4.58,4.58,0,0,1,.54-.16,2.34,2.34,0,0,1,2,.23A2.11,2.11,0,0,1,13.94,31,1.22,1.22,0,0,1,13.36,32.27Z" fill="#dfe590" stroke="#c3bf4f" stroke-miterlimit="10" stroke-width="0.95"/>
          <g>
            <path d="M9,40.66l-.13,0a.46.46,0,0,1-.34-.37,1.37,1.37,0,0,1-.37.26.65.65,0,0,1-.19,0,.51.51,0,0,1-.31-.11.49.49,0,0,1-.17-.41l-.1.06a2.63,2.63,0,0,1-1.26.5H6a.47.47,0,0,1-.36-.26.46.46,0,0,1,0-.44l.06-.12a.58.58,0,0,1-.44-.53c-.11-1,1.87-4.73,5.15-5.46h.11a.46.46,0,0,1,.27.09.5.5,0,0,1,.2.33,4.57,4.57,0,0,0,1,1.64c.39.47.59.71.43,1a.61.61,0,0,1-.12.16.72.72,0,0,1,.07.67.56.56,0,0,1-.54.32h0a1,1,0,0,1,0,.24c-.11.6-.64.91-1.21,1.24a3.52,3.52,0,0,0-1.2,1A.47.47,0,0,1,9,40.66Z" fill="#dfe590"/>
            <path d="M10.55,34.26c.12,1,1.75,2.43,1.44,2.43a3,3,0,0,1-.8-.38c.74.87,1,1.25.68,1.25a2.93,2.93,0,0,1-.91-.32c1.32,1.62-1,1.58-1.94,2.94a7.71,7.71,0,0,0-.14-1.68c-.08,0-.24,1.3-.89,1.59.14-.53.07-.71-.1-.71-.37,0-1.21.76-1.74.76H6.08c.57-1,.86-1.77.71-1.77s-.33.26-.75.88a.3.3,0,0,1-.18.09c-.56,0,1.23-4.31,4.69-5.07m0-.95a.75.75,0,0,0-.21,0c-3.42.75-5.67,4.63-5.52,6a1.09,1.09,0,0,0,.32.68,1,1,0,0,0,.08.57.93.93,0,0,0,.71.52.82.82,0,0,0,.22,0,2.42,2.42,0,0,0,1.14-.35.6.6,0,0,0,.08.08A1,1,0,0,0,8,41,.88.88,0,0,0,8.38,41l0,0a.92.92,0,0,0,.33.16.75.75,0,0,0,.26,0,1,1,0,0,0,.78-.41,3.26,3.26,0,0,1,1-.81,2.56,2.56,0,0,0,1.42-1.48,1,1,0,0,0,.61-1.34v0c.28-.6-.09-1.06-.49-1.54a4.73,4.73,0,0,1-.91-1.4,1,1,0,0,0-.39-.66,1,1,0,0,0-.55-.17Z" fill="#c3bf4f"/>
          </g>
          <g>
            <path d="M36.85,9a.47.47,0,0,1-.3-.1l-.84-.67C34.27,7.14,33,6.18,33,4.89A3,3,0,0,1,34,2.67a.48.48,0,0,1,.34-.14h.07a1,1,0,0,1,.27-.4A.47.47,0,0,1,35,2l.15,0a.46.46,0,0,1,.29.27A2.3,2.3,0,0,1,36,2a.42.42,0,0,1,.22-.05.48.48,0,0,1,.26.07.49.49,0,0,1,.21.43c0,.5.06.64.09.67a1.46,1.46,0,0,0,.7.11,4.49,4.49,0,0,1,1.24.16h.14c.71,0,1.12.2,1.23.61s-.1.75-.7,1.22a2.31,2.31,0,0,1,.59.4.44.44,0,0,0,.11.09.48.48,0,0,1,.12.77,1.92,1.92,0,0,1-.55.32.49.49,0,0,1,.27.26.48.48,0,0,1-.08.51.62.62,0,0,1-.25.14,5.83,5.83,0,0,0-2.35,1.15.47.47,0,0,1-.33.21Z" fill="#dfe590"/>
            <path d="M36.22,2.38h0m0,0c-.11,1.84,1.15,1,2.44,1.45h.21c.55,0,1.83.15-1,1.77a2.72,2.72,0,0,1,.69-.09c.82,0,1.07.48,1.32.6-.29.28-3,1.1-.39,1.11,0,0-2.21.68-2.64,1.35C34.46,6.62,32.05,5.3,34.36,3c.07.27.13.37.18.37s.27-.7.48-.88a5.21,5.21,0,0,0,.19.92,2.4,2.4,0,0,1,1-1m0-.95h0a.93.93,0,0,0-.44.11l-.25.15-.19-.1a1,1,0,0,0-.3,0,1,1,0,0,0-.63.23,1.42,1.42,0,0,0-.25.3,1,1,0,0,0-.46.25,3.35,3.35,0,0,0-1.2,2.59c.09,1.5,1.47,2.58,2.93,3.71l.84.67a.93.93,0,0,0,.6.21H37a1,1,0,0,0,.65-.42,6.59,6.59,0,0,1,2.1-.95,1.18,1.18,0,0,0,.45-.28,1,1,0,0,0,.2-.95.53.53,0,0,0,.14-.12.93.93,0,0,0,.28-.84,1,1,0,0,0-.47-.67l-.06,0-.13-.11a1.29,1.29,0,0,0,.39-1.28c-.11-.44-.5-1-1.68-1h-.08a5,5,0,0,0-1.3-.16h-.32a1.15,1.15,0,0,1,0-.2.49.49,0,0,0,0-.12,1,1,0,0,0-1-.95Zm0,1.91Z" fill="#c3bf4f"/>
          </g>
          <path d="M5.21,29.25a4.72,4.72,0,0,1-1.27-.37,1.38,1.38,0,0,1,.11-.27A1.1,1.1,0,0,1,5.2,28a1.94,1.94,0,0,1,.64.15s.61.69,0,1l-.1,0A1.15,1.15,0,0,1,5.21,29.25Z" fill="#dfe590" stroke="#c3bf4f" stroke-miterlimit="10" stroke-width="0.95"/>
          <path d="M2.37,32.19a3.26,3.26,0,0,1-.19-.61,2.4,2.4,0,0,1,1.87-3,2.28,2.28,0,0,1,1.12.05,2.24,2.24,0,0,1,.54.22,1.2,1.2,0,0,1,.06.32,1.61,1.61,0,0,1-.07.43h0a3,3,0,0,1-1,1.21,9.66,9.66,0,0,1-1,.65A11.7,11.7,0,0,1,2.37,32.19Z" fill="#dfe590" stroke="#c3bf4f" stroke-miterlimit="10" stroke-width="0.95"/>
          <path d="M3.87,35.31c-.53-.08-1.24-.49-1.79-1.94a1.86,1.86,0,0,1,.1-1.79,3,3,0,0,1,1.89-1,4,4,0,0,1,.58-.08,2.31,2.31,0,0,1,.06.37c0,.39,0,1,0,1.67,0,.45,0,.91,0,1.32,0,.76,0,1.34,0,1.34A1.4,1.4,0,0,1,3.87,35.31Z" fill="#dfe590" stroke="#c3bf4f" stroke-miterlimit="10" stroke-width="0.95"/>
          <path d="M3.9,35.34l0,0A1.8,1.8,0,0,1,4,32.76a2.64,2.64,0,0,1,.55-.41.91.91,0,0,1,.16.17c.23.29.63.88,1,1.45.14.21.28.42.39.61.28.43.47.75.47.75a2.37,2.37,0,0,1-.84.73C5.25,36.3,4.58,36.3,3.9,35.34Z" fill="#dfe590" stroke="#c3bf4f" stroke-miterlimit="10" stroke-width="0.95"/>
          <path d="M6,36.23l-.26-.17a1.14,1.14,0,0,1-.34-1.65A2.52,2.52,0,0,1,5.73,34l.18-.18a12.91,12.91,0,0,1,3,1.28,3.55,3.55,0,0,1-.51.69A1.88,1.88,0,0,1,6,36.23Z" fill="#dfe590" stroke="#c3bf4f" stroke-miterlimit="10" stroke-width="0.95"/>
          <path d="M5.49,29.45s-2.36,1.1-1.17,3.3c.91,1.68,1.55,1.84,2.84,1.69S6.87,29.24,5.49,29.45Z" fill="#dfe590" stroke="#c3bf4f" stroke-miterlimit="10" stroke-width="0.95"/>
          <path d="M29.85,13.32a1.84,1.84,0,0,1-.29-.42c-.66-1.21.89-1.33,2-1.27l.91.09.17,0,2.59.8s-.1.13-.27.31a3.65,3.65,0,0,1-.85.7C33.55,13.89,31,14.61,29.85,13.32Z" fill="#dfe590" stroke="#c3bf4f" stroke-miterlimit="10" stroke-width="0.95"/>
          <path d="M31.93,12.43l-.14-.11-.11-.12a.59.59,0,0,1-.1-.57,1.3,1.3,0,0,1,.19-.37,4,4,0,0,1,.62-.69l0,0a6,6,0,0,1,.54-.43c.27-.2.47-.32.47-.32l3.37-.33a2.68,2.68,0,0,1,.12.47,2.43,2.43,0,0,1-.74,2.31,2.79,2.79,0,0,1-1.21.62A3.92,3.92,0,0,1,31.93,12.43Z" fill="#dfe590" stroke="#c3bf4f" stroke-miterlimit="10" stroke-width="0.95"/>
          <path d="M33.56,11.37A.6.6,0,0,1,33,11l0-.08a1.79,1.79,0,0,1,0-.77A1.15,1.15,0,0,1,33,9.87s.19-.46.5-1A8.16,8.16,0,0,1,34,8c.08-.13.17-.25.26-.37.47-.61,1-1.09,1.57-1a2.54,2.54,0,0,1,.35.24,2.41,2.41,0,0,1,.73,3.1C36.25,11.22,34.46,11.41,33.56,11.37Z" fill="#dfe590" stroke="#c3bf4f" stroke-miterlimit="10" stroke-width="0.95"/>
          <path d="M33.81,9.28c-.17,0-.25-.16-.28-.44a3.64,3.64,0,0,1,0-.74c0-.41.11-.87.18-1.28.13-.69.27-1.25.27-1.25a1.51,1.51,0,0,1,.28,0,1.68,1.68,0,0,1,1.93,1.22s0,.06,0,.08c.27,1.2-.86,2-1.73,2.28A3.21,3.21,0,0,1,33.81,9.28Z" fill="#dfe590" stroke="#c3bf4f" stroke-miterlimit="10" stroke-width="0.95"/>
          <path d="M32.76,8.66l-1.3-2.84.35-.25a1.93,1.93,0,0,1,2.45,0l.13.15a1.36,1.36,0,0,1-.2,1.77,4.49,4.49,0,0,1-.66.65A7.38,7.38,0,0,1,32.76,8.66Z" fill="#dfe590" stroke="#c3bf4f" stroke-miterlimit="10" stroke-width="0.95"/>
          <path d="M30.17,12.82H30l-.29-2.91a4.85,4.85,0,0,1,2.7.62l.07,0a1.88,1.88,0,0,1,0,.56,1.61,1.61,0,0,1-.72,1.18A3.4,3.4,0,0,1,30.17,12.82Z" fill="#dfe590" stroke="#c3bf4f" stroke-miterlimit="10" stroke-width="0.95"/>
          <path d="M29.12,13.29a35.49,35.49,0,0,1-4.35-2.44s.44-1.07,1.22-1h0c.68.06,1.64.39,2.26.1a1.14,1.14,0,0,0,.23-.15.46.46,0,0,1,.15-.09,1.35,1.35,0,0,1,1.1.26,4.72,4.72,0,0,1,.62.47,1.36,1.36,0,0,1,.34.7,1.55,1.55,0,0,1,0,.57,2.37,2.37,0,0,1-.53,1.12A1.15,1.15,0,0,1,29.12,13.29Z" fill="#dfe590" stroke="#c3bf4f" stroke-miterlimit="10" stroke-width="0.95"/>
          <path d="M32.16,6.37a1.32,1.32,0,0,1,1.16.34,2.52,2.52,0,0,1,.81,3c-.62,1.28-2.13,1.45-2.3,1.17S31.66,6.37,32.16,6.37Z" fill="#dfe590" stroke="#c3bf4f" stroke-miterlimit="10" stroke-width="0.95"/>
          <path d="M29.75,6.13s.63-1,1.52-.64a1.88,1.88,0,0,1,1.25,1.92c.06,1-.34,3.21-.23,3.59,0,0-1.64.35-1.93-.57S29.08,8.26,29.75,6.13Z" fill="#dfe590" stroke="#c3bf4f" stroke-miterlimit="10" stroke-width="0.95"/>
          <path d="M27.6,6.34a2.49,2.49,0,0,0-.08,2.59c.59,1.1,2.84,1.5,2.84,1.5S30.25,6,29.92,5.9A2.25,2.25,0,0,0,27.6,6.34Z" fill="#dfe590" stroke="#c3bf4f" stroke-miterlimit="10" stroke-width="0.95"/>
          <path d="M26,15.07s-4.59-1.61-5.07-3c0,0,.45-1.48,1.45-1.68a5.53,5.53,0,0,1,1.72,0,3.1,3.1,0,0,1,1.07.3C25.76,11,28.4,13,29,13.26h0l.09,0h0s.25.48-.37,1.08A4.05,4.05,0,0,1,26,15.07Z" fill="#dfe590" stroke="#c3bf4f" stroke-miterlimit="10" stroke-width="0.95"/>
          <path d="M22.51,16.6c-.55,0-5.05-1.5-5.28-2.82,0,0,.5-1.25,1.15-1.54A5.08,5.08,0,0,1,20.71,12h0a4.54,4.54,0,0,1,1.38.36A23.18,23.18,0,0,1,26,15l.06,0a1.83,1.83,0,0,1-.72,1.11A7.72,7.72,0,0,1,22.51,16.6Z" fill="#dfe590" stroke="#c3bf4f" stroke-miterlimit="10" stroke-width="0.95"/>
          <path d="M19.44,18.1c-1.09-.19-5.92-1.42-5.92-1.42a2.77,2.77,0,0,1,.85-1.79,4.38,4.38,0,0,1,1.49-1.15,2.14,2.14,0,0,1,1.3-.13A12.62,12.62,0,0,1,20.78,15a29.51,29.51,0,0,0,2.48,1.61,7.44,7.44,0,0,0-.87.57A4.8,4.8,0,0,1,19.44,18.1Z" fill="#dfe590" stroke="#c3bf4f" stroke-miterlimit="10" stroke-width="0.95"/>
          <path d="M15.91,19.94a43.21,43.21,0,0,1-5.62-.35,2.91,2.91,0,0,1,.43-1.78,3.53,3.53,0,0,1,1.45-1.25,5.31,5.31,0,0,1,.81-.33,12,12,0,0,1,3.5.39c.58.2,2.93,1.19,3.57,1.44l.12,0s-.76.47-1.22.79A6.58,6.58,0,0,1,15.91,19.94Z" fill="#dfe590" stroke="#c3bf4f" stroke-miterlimit="10" stroke-width="0.95"/>
          <path d="M8.34,23.07a2.25,2.25,0,0,1-.21-2.15,2.09,2.09,0,0,1,.77-1A5.54,5.54,0,0,1,11.56,19a17,17,0,0,1,5,.81s-.47.52-.69.84a8.16,8.16,0,0,1-2.54,1.89A41.83,41.83,0,0,1,8.34,23.07Z" fill="#dfe590" stroke="#c3bf4f" stroke-miterlimit="10" stroke-width="0.95"/>
          <path d="M6.48,26.49a1.7,1.7,0,0,1-.11-1.09,4.31,4.31,0,0,1,1-2,2.49,2.49,0,0,1,1.51-.77c1.84-.25,4.61-.17,5-.28a3.74,3.74,0,0,1-1.25,2.41C11.42,25.81,6.48,26.49,6.48,26.49Z" fill="#dfe590" stroke="#c3bf4f" stroke-miterlimit="10" stroke-width="0.95"/>
          <path d="M5.49,29.45a4.62,4.62,0,0,1,.33-2.72,1,1,0,0,1,.16-.2c.85-.83,1.8-.56,3.94-1a10.14,10.14,0,0,0,2.7-.81h0c0,.1-.39,2.24-1.41,2.88S8.78,30.2,5.49,29.45Z" fill="#dfe590" stroke="#c3bf4f" stroke-miterlimit="10" stroke-width="0.95"/>
          <path d="M5.63,31a2.28,2.28,0,0,1-.14-1.5h0c.28-.59,2.59-.57,3.11-.84s2.35-.91,2.59-1h0a4.15,4.15,0,0,1-1.06,2.83l-.28.24C8.46,31.75,6.71,31.92,5.63,31Z" fill="#dfe590" stroke="#c3bf4f" stroke-miterlimit="10" stroke-width="0.95"/>
          <path d="M8.65,31.13A6.75,6.75,0,0,0,7,30.67c-.39,0-1.35.28-1.35.28S6,33.81,6.91,34.77a2.45,2.45,0,0,0,2.18.88c.42,0,2-.59,2-1.22S8.65,31.13,8.65,31.13Z" fill="#dfe590" stroke="#c3bf4f" stroke-miterlimit="10" stroke-width="0.95"/>
          <path d="M11.47,31.31c-.82-.4-1.44-.93-1.91-.89s-1.3-.07-1.11,1.18a3.8,3.8,0,0,0,1.79,2.75,1.56,1.56,0,0,0,2.17-.21,3.55,3.55,0,0,0,1-1.87Z" fill="#dfe590" stroke="#c3bf4f" stroke-miterlimit="10" stroke-width="0.95"/>
        </g>
        <path d="M36.22,1.43a.94.94,0,0,1,1,1,1.11,1.11,0,0,0,0,.26h.32a5,5,0,0,1,1.3.16h.08c1.18,0,1.57.52,1.68,1a1.29,1.29,0,0,1-.39,1.28l.13.11.06,0a1,1,0,0,1,.47.67.93.93,0,0,1-.28.84.53.53,0,0,1-.14.12,1,1,0,0,1-.21,1,.91.91,0,0,1-.44.27,7.06,7.06,0,0,0-2.09.94c0,.11,0,.21,0,.32a2.23,2.23,0,0,1-.2.6,2.89,2.89,0,0,1-.9,2.6,3.33,3.33,0,0,1-1.29.69,3.93,3.93,0,0,1-.86.69,5.9,5.9,0,0,1-2.5.57,3.19,3.19,0,0,1-2.24-.78,1.77,1.77,0,0,1-.55,1,4.46,4.46,0,0,1-2.69.85h0a2,2,0,0,1-.82,1,6.44,6.44,0,0,1-2.12.45,6,6,0,0,0-.72.48,6.15,6.15,0,0,1-2.34,1c-.18.12-.76.48-1.14.75a7,7,0,0,1-2.41,1,5.94,5.94,0,0,0-.56.68,9.49,9.49,0,0,1-1.93,1.64A4.21,4.21,0,0,1,13.07,25a6.52,6.52,0,0,1-1,2.47,3.12,3.12,0,0,1,1.49,1.64,2.58,2.58,0,0,1,.86,2,1.85,1.85,0,0,1-.59,1.52,4,4,0,0,1-1.1,2A3.61,3.61,0,0,1,12,35c.15.22.32.41.42.54.4.48.77.94.49,1.54v0a1,1,0,0,1-.61,1.34,2.56,2.56,0,0,1-1.42,1.48,3.26,3.26,0,0,0-1,.81,1,1,0,0,1-.78.41.75.75,0,0,1-.26,0,.92.92,0,0,1-.33-.16l0,0A.88.88,0,0,1,8,41a1,1,0,0,1-.62-.22.6.6,0,0,1-.08-.08,2.42,2.42,0,0,1-1.14.35.86.86,0,0,1-.22,0,.93.93,0,0,1-.71-.52A1,1,0,0,1,5.14,40a1.09,1.09,0,0,1-.32-.68,4.82,4.82,0,0,1,1-2.63l-.06,0h0l-.08,0a1.48,1.48,0,0,1-.49.08,2,2,0,0,1-1.6-.93c-.61-.16-1.39-.69-2-2.21a2.37,2.37,0,0,1,0-2.06,2.8,2.8,0,0,1,.91-2.66,3,3,0,0,1,1.14-.61A1.56,1.56,0,0,1,5,27.49a2.69,2.69,0,0,1,.39-1,1.94,1.94,0,0,1,.23-.29L5.87,26a2.44,2.44,0,0,1,0-.7A4.65,4.65,0,0,1,7,23a2.9,2.9,0,0,1,.59-.47,3,3,0,0,1,.1-1.8,2.59,2.59,0,0,1,.94-1.23,4.39,4.39,0,0,1,1.22-.62,3.48,3.48,0,0,1,.47-1.34A4,4,0,0,1,12,16.14a4.35,4.35,0,0,1,.9-.36,1.5,1.5,0,0,1,.42,0A4.32,4.32,0,0,1,14,14.57a4.52,4.52,0,0,1,1.66-1.26,2.48,2.48,0,0,1,1-.22l.31,0a2.91,2.91,0,0,1,1.16-1.3,5,5,0,0,1,1.89-.32l.61,0A2.52,2.52,0,0,1,22.32,10a5.42,5.42,0,0,1,1.08-.11,5.29,5.29,0,0,1,.8.06,4,4,0,0,1,.52.1,1.81,1.81,0,0,1,.7-.55A2.87,2.87,0,0,1,27,6.37,1.59,1.59,0,0,1,27.26,6,2.41,2.41,0,0,1,29,5.28a3.31,3.31,0,0,1,.79.1,1.77,1.77,0,0,1,1.11-.45,1.43,1.43,0,0,1,.56.11l.18.09a3.37,3.37,0,0,1,.85-.39,3.48,3.48,0,0,1,1.2-2.41,1,1,0,0,1,.46-.25,1.42,1.42,0,0,1,.25-.3A1,1,0,0,1,35,1.55a1,1,0,0,1,.3,0l.19.1.27-.16a1,1,0,0,1,.44-.1m0-1.43a2.39,2.39,0,0,0-.83.15,2.31,2.31,0,0,0-.37,0,2.4,2.4,0,0,0-1.58.59l-.19.18a2.64,2.64,0,0,0-.58.43,5.52,5.52,0,0,0-1.42,2.2l-.36,0a3,3,0,0,0-1.44.38,3.33,3.33,0,0,0-.46,0A3.84,3.84,0,0,0,26.26,5a2.57,2.57,0,0,0-.29.35,4.32,4.32,0,0,0-2,3.13,5.44,5.44,0,0,0-.57,0A7.56,7.56,0,0,0,22,8.56a3.51,3.51,0,0,0-2.17,1.5,6.18,6.18,0,0,0-2.26.44,3.51,3.51,0,0,0-1.39,1.19,4.17,4.17,0,0,0-1.1.3A5.9,5.9,0,0,0,13,13.62a6.79,6.79,0,0,0-.62.82,7,7,0,0,0-1,.43,5.35,5.35,0,0,0-2.22,2,5,5,0,0,0-.47,1,4.94,4.94,0,0,0-.84.51,4,4,0,0,0-1.44,1.91,4.79,4.79,0,0,0-.27,1.65L6,22.05A6.11,6.11,0,0,0,4.5,25c0,.12,0,.25,0,.37a2.43,2.43,0,0,0-.24.32,3.5,3.5,0,0,0-.31.58,2.72,2.72,0,0,0-1,.69,4.41,4.41,0,0,0-1.22.75A4.2,4.2,0,0,0,.22,31.24,3.9,3.9,0,0,0,.3,34,4.72,4.72,0,0,0,2.77,37a3.79,3.79,0,0,0,.92.74,3.76,3.76,0,0,0-.29,1.76,2.73,2.73,0,0,0,.32,1,2.33,2.33,0,0,0,.22.71,2.39,2.39,0,0,0,1.78,1.32,3.11,3.11,0,0,0,.43,0,3.39,3.39,0,0,0,1-.18,2.34,2.34,0,0,0,.79.13,1.51,1.51,0,0,0,.3,0l.07,0a2.5,2.5,0,0,0,.66.09,2.39,2.39,0,0,0,2-1,3.12,3.12,0,0,1,.6-.39,4.47,4.47,0,0,0,1.86-1.75,2.39,2.39,0,0,0,.71-.9,2.46,2.46,0,0,0,.22-1.3A2.48,2.48,0,0,0,14,35.27a5.23,5.23,0,0,0,1.13-2A3.47,3.47,0,0,0,15.85,31a4.07,4.07,0,0,0-1.11-2.78A4.63,4.63,0,0,0,13.92,27a8.43,8.43,0,0,0,.45-1.38,5.62,5.62,0,0,0,1.22-2.19,8.9,8.9,0,0,0,1.84-1.7l.16-.2A8.07,8.07,0,0,0,20,20.47c.27-.19.64-.42.89-.58a7.51,7.51,0,0,0,2.71-1.26,1.73,1.73,0,0,1,.26-.18,7,7,0,0,0,2.36-.6,3.09,3.09,0,0,0,1-.91,5.22,5.22,0,0,0,2.84-1.19l.06-.06a5.27,5.27,0,0,0,1.73.28,7.06,7.06,0,0,0,3.2-.76,4.63,4.63,0,0,0,.92-.68,4.35,4.35,0,0,0,1.49-.89,4.27,4.27,0,0,0,1.4-3.44A2.17,2.17,0,0,0,39,10a12.78,12.78,0,0,1,1.25-.47,2.46,2.46,0,0,0,1-.66,2.42,2.42,0,0,0,.63-1.42,2.38,2.38,0,0,0,.05-2.54,2.55,2.55,0,0,0,0-1.4,2.83,2.83,0,0,0-3-2c-.22-.05-.42-.08-.62-.11a2.41,2.41,0,0,0-.83-.94A2.33,2.33,0,0,0,36.22,0Z" fill="#928e31"/>
      </g>
    </g>
  </g>
</svg>
