<svg xmlns="http://www.w3.org/2000/svg" width="40.46" height="40.9" viewBox="0 0 40.46 40.9">
  <g id="Layer_2" data-name="Layer 2">
    <g id="Layer_3" data-name="Layer 3">
      <g id="dog_toy_2" data-name="dog_toy 2">
        <g>
          <path d="M2.54,40.18a1.24,1.24,0,0,1-.33,0A2,2,0,0,1,1,39c-.69-1.36.2-2.62.68-3.29l.17-.25c.48-.75,1-1.45,1.47-2.09l.08-.11a3.23,3.23,0,0,1,.39-.47,1.22,1.22,0,0,1,.88-.35h0a.07.07,0,0,1,0,0c.47-.54,1-1.1,1.57-1.67a33.19,33.19,0,0,1,6.91-5.18,35.86,35.86,0,0,1,3.5-1.77c1.22-.54,2.48-1,3.75-1.44.72-.24,1.45-.46,2.18-.66a9.88,9.88,0,0,1-1-.85c-.46-.33-1.64-1.24-.94-2.42a1.3,1.3,0,0,1,1.17-.72,1.83,1.83,0,0,1,.55.1,4.4,4.4,0,0,0,.73.06,4.1,4.1,0,0,0,4.2-3.62,2.23,2.23,0,0,1,.7-1.77,1.65,1.65,0,0,1,1.1-.38,4.32,4.32,0,0,1,1.63.44l.38.15a3.79,3.79,0,0,0,.94.11,3.55,3.55,0,0,0,3.42-2.23.37.37,0,0,1,.07-.14c.08-.14.16-.31.24-.48a2.35,2.35,0,0,1,2.12-1.73.9.9,0,0,1,.36.08c1.72.85,1.52,3.73,1.4,5.45v.06a.84.84,0,0,1,0,.27,11.15,11.15,0,0,1-6.47,8.43,11.36,11.36,0,0,1-2.95.93c-.43,0-.8.09-1.17.14-.63.08-1.25.18-1.85.29a39.77,39.77,0,0,0-13.1,4.75A30.67,30.67,0,0,0,8,33.33c-.47.46-.9.92-1.32,1.41a1.13,1.13,0,0,0,0,.14A2.15,2.15,0,0,1,6.25,36L6,36.25l-.22.29c-.36.48-.72,1-1.06,1.52l-.17.29a3.74,3.74,0,0,1-1.52,1.72A1.23,1.23,0,0,1,2.54,40.18Z" fill="#6c9433"/>
          <path d="M37.91,8.91h0c1.35.67,1.09,3.46,1,5L39,14a10.45,10.45,0,0,1-6.06,7.88,10.14,10.14,0,0,1-2.77.87L29,22.84c-.63.08-1.26.18-1.88.3A40,40,0,0,0,13.79,28,31.25,31.25,0,0,0,7.5,32.82c-.51.5-.94,1-1.35,1.45l-.09.1,0,.05v.08a3,3,0,0,0-.06.33,1.29,1.29,0,0,1-.26.7l-.22.29-.22.27c-.37.51-.74,1-1.09,1.58L4,38c-.29.51-.69,1.22-1.17,1.42a.58.58,0,0,1-.26.06l-.16,0a1.34,1.34,0,0,1-.77-.79c-.5-1,.18-1.93.63-2.56l.18-.28c.45-.69.93-1.38,1.43-2l.1-.13a2.45,2.45,0,0,1,.29-.35.5.5,0,0,1,.4-.17h.12a.54.54,0,0,0,.19,0,.62.62,0,0,0,.22-.19l0,0c.48-.56,1-1.1,1.53-1.63a32.64,32.64,0,0,1,6.76-5.07A35.68,35.68,0,0,1,17,24.43,37.26,37.26,0,0,1,20.63,23c1.24-.41,2.5-.76,3.79-1.06a8.88,8.88,0,0,1-2.35-1.67c-.42-.31-1.18-.87-.79-1.52a.6.6,0,0,1,.55-.36,1,1,0,0,1,.36.08,5.62,5.62,0,0,0,.92.08A4.77,4.77,0,0,0,28,14.27,1.59,1.59,0,0,1,28.46,13a1,1,0,0,1,.65-.23,5.65,5.65,0,0,1,1.77.56,5.21,5.21,0,0,0,1.18.14,4.24,4.24,0,0,0,4.09-2.7c.44-.7.64-1.87,1.76-1.87m0-1.43h0a3.06,3.06,0,0,0-2.77,2.14,3,3,0,0,1-.2.4,1.55,1.55,0,0,0-.14.29,2.84,2.84,0,0,1-2.74,1.74A3.84,3.84,0,0,1,31.3,12L31,11.85a5,5,0,0,0-1.91-.5,2.39,2.39,0,0,0-1.58.57,2.91,2.91,0,0,0-.94,2.29,3.37,3.37,0,0,1-3.48,2.92,3.43,3.43,0,0,1-.56,0,2.27,2.27,0,0,0-.72-.12,2,2,0,0,0-1.8,1.1c-.37.61-.74,1.9,1.09,3.28l-.94.3c-1.29.43-2.57.92-3.81,1.47S14,24.26,12.8,24.91a34.25,34.25,0,0,0-7,5.3c-.53.52-1,1-1.45,1.53a1.89,1.89,0,0,0-1,.53,3,3,0,0,0-.46.53L2.7,33c-.49.62-1,1.34-1.48,2.1l-.1.15-.06.09c-.52.73-1.61,2.27-.73,4A2.68,2.68,0,0,0,2,40.83a2.08,2.08,0,0,0,.5.07,2.06,2.06,0,0,0,.81-.17,4.34,4.34,0,0,0,1.86-2l.09-.16.06-.11c.34-.51.69-1,1-1.49l0-.06.12-.16,0,0,.22-.29a2.75,2.75,0,0,0,.54-1.33h0c.36-.42.74-.82,1.14-1.21a29.35,29.35,0,0,1,6-4.63,39,39,0,0,1,12.85-4.67c.58-.1,1.19-.2,1.82-.28.37-.05.73-.1,1.09-.13l.1,0a12.09,12.09,0,0,0,3.15-1,11.84,11.84,0,0,0,6.87-9,1.48,1.48,0,0,0,0-.47c.13-1.9.31-5-1.8-6a1.27,1.27,0,0,0-.6-.15Z" fill="#507125"/>
        </g>
        <g>
          <g>
            <path d="M27.17,19.51a9.36,9.36,0,0,1-8.67-5.78,9,9,0,0,1-.7-2.92,8.94,8.94,0,0,1,.09-2.19,9.39,9.39,0,0,1,18-2.12,9.53,9.53,0,0,1,.69,2.78,9.74,9.74,0,0,1-.06,2.16,9.45,9.45,0,0,1-5.69,7.34A9.35,9.35,0,0,1,27.17,19.51Z" fill="#b9e48e"/>
            <path d="M27.16,1.43a8.69,8.69,0,0,1,8,5.34,8.48,8.48,0,0,1,.63,2.57,8.9,8.9,0,0,1-.05,2,8.68,8.68,0,0,1-16.61,2.11,8.94,8.94,0,0,1-.64-2.69,8.51,8.51,0,0,1,.09-2A8.66,8.66,0,0,1,23.83,2.1a8.54,8.54,0,0,1,3.33-.67m0-1.43h0a10.13,10.13,0,0,0-10,8.51,10.29,10.29,0,0,0-.1,2.35A10.11,10.11,0,1,0,37.24,9.22a10.39,10.39,0,0,0-.74-3A10.09,10.09,0,0,0,27.16,0Z" fill="#507125"/>
          </g>
          <path d="M35.81,9.34a8.9,8.9,0,0,1-.05,2,6,6,0,0,0-2.42-2.91,4.25,4.25,0,0,0-5,.41c-.87.75-1.52,1.77-2.39,2.7A4.5,4.5,0,0,1,21.58,13a5.65,5.65,0,0,1-2.86-2l-.21-.26a8.51,8.51,0,0,1,.09-2,9.14,9.14,0,0,0,1.24,1.84,3.59,3.59,0,0,0,5.46.26C27.19,9.06,28.69,7,31.55,7.09A6.21,6.21,0,0,1,35.81,9.34Z" fill="#f1f2f2" stroke="#f1f2f2" stroke-miterlimit="10" stroke-width="0.48"/>
          <path d="M27.16,1.43a8.69,8.69,0,0,1,8,5.34,8.48,8.48,0,0,1,.63,2.57,8.9,8.9,0,0,1-.05,2,8.68,8.68,0,0,1-16.61,2.11,8.94,8.94,0,0,1-.64-2.69,8.51,8.51,0,0,1,.09-2A8.66,8.66,0,0,1,23.83,2.1a8.54,8.54,0,0,1,3.33-.67m0-1.43h0a10.13,10.13,0,0,0-10,8.51,10.29,10.29,0,0,0-.1,2.35A10.11,10.11,0,1,0,37.24,9.22a10.39,10.39,0,0,0-.74-3A10.09,10.09,0,0,0,27.16,0Z" fill="#507125"/>
        </g>
      </g>
    </g>
  </g>
</svg>
