<svg xmlns="http://www.w3.org/2000/svg" xmlns:xlink="http://www.w3.org/1999/xlink" width="41.37" height="31.75" viewBox="0 0 41.37 31.75">
  <defs>
    <clipPath id="clip-path">
      <ellipse cx="20.64" cy="5.97" rx="14.43" ry="3.65" fill="none"/>
    </clipPath>
  </defs>
  <g id="Layer_2" data-name="Layer 2">
    <g id="Layer_3" data-name="Layer 3">
      <g id="dog_food_4" data-name="dog_food 4">
        <g>
          <path d="M40.41,22h0a1.33,1.33,0,0,1,0,.28c0,1.2-1,2.34-2.92,3.31-3.45,1.78-9.65,3-16.76,3.09-11,.12-19.93-2.56-20-6L.8,25.58S3.33,31.81,22.52,31c8.22-.37,12.73-1.6,15.19-2.78,2.69-1.3,2.95-2.54,2.95-2.54Z" fill="#e57225"/>
          <path d="M40.41,22h0a1.33,1.33,0,0,1,0,.28c0,1.2-1,2.34-2.92,3.31-3.45,1.78-9.65,3-16.76,3.09-11,.12-19.93-2.56-20-6L.8,25.58S3.33,31.81,22.52,31c8.22-.37,12.73-1.6,15.19-2.78,2.69-1.3,2.95-2.54,2.95-2.54Z" fill="none" stroke="#e57225" stroke-linecap="round" stroke-linejoin="round" stroke-width="1.43"/>
          <g>
            <path d="M20,23.07c1.4.53,1.93-1.18,1.93-1.18l14.32-.68a2.4,2.4,0,0,0-.66,1.2L40.39,22c-.57-3.28-9.34-5.81-20-5.69A50.34,50.34,0,0,0,7.22,18l11.7,3.53S18.61,22.54,20,23.07Z" fill="#ffaa5a"/>
            <path d="M40.39,22l-4.79.45a2.4,2.4,0,0,1,.66-1.2l-14.32.68S21.41,23.6,20,23.07s-1.09-1.56-1.09-1.56L7.22,18c-4,1.17-6.56,2.85-6.5,4.68.09,3.42,9.06,6.1,20,6,7.11-.08,13.31-1.31,16.76-3.09,1.88-1,3-2.11,2.92-3.31A1.33,1.33,0,0,0,40.39,22Z" fill="#ff8d3d"/>
          </g>
          <path d="M40.39,22c-.57-3.28-9.34-5.81-20-5.69A50.34,50.34,0,0,0,7.22,18c-4,1.17-6.56,2.85-6.5,4.68.09,3.42,9.06,6.1,20,6,7.11-.08,13.31-1.31,16.76-3.09,1.88-1,3-2.11,2.92-3.31A1.33,1.33,0,0,0,40.39,22Z" fill="none" stroke="#e57225" stroke-miterlimit="10" stroke-width="1.43"/>
        </g>
        <g>
          <g>
            <g>
              <path d="M36.31,6.46a4.14,4.14,0,0,0-1.89-2.8C32.57,2.61,28.7,1.39,20.68,1.43S8.68,2.65,6.87,3.71A4.06,4.06,0,0,0,5.06,6.46L2.38,19.39A2,2,0,0,0,3.46,21.6a37.36,37.36,0,0,0,17.22,3.16c8.79-.26,10.76-.41,17.23-3.16A1.94,1.94,0,0,0,39,19.39Z" fill="#6c9433"/>
              <g clip-path="url(#clip-path)">
                <ellipse cx="20.64" cy="5.97" rx="14.43" ry="3.65" fill="#5576b4"/>
                <ellipse cx="20.64" cy="7.96" rx="14.43" ry="3.65" fill="#98d9e4" stroke="#5576b4" stroke-miterlimit="10" stroke-width="0.95"/>
              </g>
            </g>
            <g>
              <path d="M25.65,20.77s.25-2-1.08-2.47a11.56,11.56,0,0,1-2.88-1.25,1.88,1.88,0,0,0-2.18.22c-.36.59-.29,1.47-.79,2.72s-.66,2.07.6,2.56S21.63,21.08,22.7,21,24.89,21.81,25.65,20.77Z" fill="#f1f2f2"/>
              <path d="M17.42,19.48a1,1,0,0,0,.95-1.23.58.58,0,0,0-.24-.41c-.47-.32-1.53-1.23-2.25-.47S16.26,19.57,17.42,19.48Z" fill="#f1f2f2"/>
              <path d="M21.28,15.67a1,1,0,0,0,1.58-.28.58.58,0,0,0,.08-.44c-.14-.55-.33-1.94-1.38-1.85C20.73,13.18,20.4,15,21.28,15.67Z" fill="#f1f2f2"/>
              <path d="M23.7,16.7a1,1,0,0,0,1.49.42.59.59,0,0,0,.25-.35c.1-.53.53-1.82-.42-2.17C24.26,14.31,23.24,15.71,23.7,16.7Z" fill="#f1f2f2"/>
              <path d="M18.79,16.51a1,1,0,0,0,1-.62c.36-.71-1.07-2.55-2-1.69S18.23,16.46,18.79,16.51Z" fill="#f1f2f2"/>
            </g>
          </g>
          <path d="M20.27,1.43h.82c7.74,0,11.52,1.2,13.33,2.23a4.14,4.14,0,0,1,1.89,2.8L39,19.39a1.94,1.94,0,0,1-1.08,2.21c-6.47,2.75-8.44,2.9-17.23,3.16l-1.54,0A36.44,36.44,0,0,1,3.46,21.6a2,2,0,0,1-1.08-2.21L5.06,6.46A4.06,4.06,0,0,1,6.87,3.71c1.78-1,5.55-2.28,13.4-2.28M21.09,0h-.82C13.71,0,9,.83,6.15,2.47a5.51,5.51,0,0,0-2.49,3.7L1,19.1a3.41,3.41,0,0,0,1.87,3.8,38.25,38.25,0,0,0,16.29,3.31c.52,0,1.05,0,1.59,0,8.92-.27,11-.43,17.74-3.27a3.39,3.39,0,0,0,1.92-3.82L37.71,6.17a5.52,5.52,0,0,0-2.58-3.75C32.3.81,27.58,0,21.09,0Z" fill="#507125"/>
        </g>
      </g>
    </g>
  </g>
</svg>
