<svg xmlns="http://www.w3.org/2000/svg" width="41.29" height="40.4" viewBox="0 0 41.29 40.4">
  <g style="isolation: isolate">
    <g id="Layer_2" data-name="Layer 2">
      <g id="Layer_3" data-name="Layer 3">
        <g id="dog_clean_4" data-name="dog_clean 4">
          <g>
            <g>
              <path d="M14.88,16.71a.7.7,0,0,1-.57-.29,3.85,3.85,0,0,1-.62-3.21,3.39,3.39,0,0,1,1.42-1.91,5,5,0,0,1,1.38-3.86,4.64,4.64,0,0,1,3.39-1.5h.36a2.86,2.86,0,0,1,2.1-1.9A3.68,3.68,0,0,1,25.48.79,4.74,4.74,0,0,1,26.3.71a3.77,3.77,0,0,1,3.5,2.35,3.52,3.52,0,0,1,1.14-.2,3,3,0,0,1,1.81.59,3.47,3.47,0,0,1,1.47,3.31,3,3,0,0,1,1.37,2.4,4.3,4.3,0,0,1,3,2.51,4.11,4.11,0,0,1-.72,4.86.74.74,0,0,1-.47.18Z" fill="#98d9e4"/>
              <path d="M26.3,1.43A3.26,3.26,0,0,1,29.38,4a3.16,3.16,0,0,1,1.56-.45A2.31,2.31,0,0,1,32.33,4,2.72,2.72,0,0,1,33.41,7.1a2.32,2.32,0,0,1,1.41,2.66h0A3.58,3.58,0,0,1,37.94,12a3.43,3.43,0,0,1-.54,4H14.88a3.11,3.11,0,0,1-.5-2.57,2.49,2.49,0,0,1,1.49-1.71A4.42,4.42,0,0,1,17,7.93a4,4,0,0,1,2.88-1.28,3.12,3.12,0,0,1,.9.12A2.21,2.21,0,0,1,23,4.69h0a3.11,3.11,0,0,1,2.58-3.2,4.41,4.41,0,0,1,.7-.06M26.3,0h0a6.17,6.17,0,0,0-.94.08,4.32,4.32,0,0,0-3.64,3.4,3.5,3.5,0,0,0-1.95,1.74A5.34,5.34,0,0,0,16,6.94a5.73,5.73,0,0,0-1.6,4A4.13,4.13,0,0,0,13,13a4.55,4.55,0,0,0,.73,3.86,1.44,1.44,0,0,0,1.14.56H37.4a1.42,1.42,0,0,0,.94-.35,4.82,4.82,0,0,0,.9-5.69,5.07,5.07,0,0,0-3-2.78A3.8,3.8,0,0,0,35,6.42a4.13,4.13,0,0,0-1.79-3.54,3.72,3.72,0,0,0-2.23-.73,4.69,4.69,0,0,0-.77.07A4.4,4.4,0,0,0,26.3,0Z" fill="#5576b4"/>
            </g>
            <path d="M25.15,3.41A1.9,1.9,0,0,0,23.9,6c.38.83,1.81.42,2,0,.24-.59-.38-1.08.24-1.74S25.88,3.13,25.15,3.41Z" fill="#fff"/>
            <path d="M17.62,9.73c-.78,0-1.52,1.93-.87,3.41.41.94,1.62,1.51,2.12.62.68-1.2-.75-.91-.83-2.11S18.61,9.76,17.62,9.73Z" fill="#fff"/>
          </g>
          <g>
            <g>
              <path d="M3.07,19.75a.47.47,0,0,1-.17,0,2.27,2.27,0,0,1-1.57-2.44A3.15,3.15,0,0,1,3,14.61,3.91,3.91,0,0,1,3.09,12a3.71,3.71,0,0,1,2.43-2.2A3.43,3.43,0,0,1,7.85,7.4a3.77,3.77,0,0,1,1.36-.26,3.61,3.61,0,0,1,2.49,1,4.2,4.2,0,0,1,1.75-.39,4,4,0,0,1,1.87.47,3.77,3.77,0,0,1,1.83,2.15,3.06,3.06,0,0,1,.71-.09,2.76,2.76,0,0,1,1.49.44,2.62,2.62,0,0,1,1.18,1.74,3.57,3.57,0,0,1,1-.16,2.83,2.83,0,0,1,1,.2,3.53,3.53,0,0,1,2.16,2.7A2.14,2.14,0,0,1,26,16.31a2.59,2.59,0,0,1-.82,3.33.77.77,0,0,1-.39.11Z" fill="#98d9e4"/>
              <path d="M9.21,7.85A2.75,2.75,0,0,1,11.53,9a3.52,3.52,0,0,1,1.92-.59A3.37,3.37,0,0,1,15,8.83a3.13,3.13,0,0,1,1.64,2.5A2.4,2.4,0,0,1,17.86,11,2.1,2.1,0,0,1,19,11.3a2.27,2.27,0,0,1,.88,2.25A3.26,3.26,0,0,1,21.54,13a2,2,0,0,1,.78.15,2.76,2.76,0,0,1,1.75,2.61,1.49,1.49,0,0,1,1.25.84A1.88,1.88,0,0,1,24.76,19H3.07a1.55,1.55,0,0,1-1-1.71A2.52,2.52,0,0,1,4,15a3,3,0,0,1-.19-2.76,3.14,3.14,0,0,1,2.4-1.87S6.09,8.83,8.1,8.06a3.24,3.24,0,0,1,1.11-.21m0-1.43a4.57,4.57,0,0,0-1.62.31A4.32,4.32,0,0,0,4.94,9.21a4.41,4.41,0,0,0-2.52,2.51,4.7,4.7,0,0,0-.25,2.57,3.79,3.79,0,0,0-1.55,3,3,3,0,0,0,2.1,3.17,1.41,1.41,0,0,0,.35,0H24.76a1.42,1.42,0,0,0,.77-.23A3.28,3.28,0,0,0,26.62,16a2.72,2.72,0,0,0-1.25-1.33,4.15,4.15,0,0,0-2.51-2.87,3.44,3.44,0,0,0-1.32-.25,3,3,0,0,0-.52,0,3.31,3.31,0,0,0-1.28-1.51,3.44,3.44,0,0,0-1.88-.56l-.27,0a4.48,4.48,0,0,0-1.93-2A4.68,4.68,0,0,0,13.45,7a5,5,0,0,0-1.61.28,4.41,4.41,0,0,0-2.63-.87Z" fill="#5576b4"/>
            </g>
            <path d="M8.07,9.68a1.8,1.8,0,0,0-1.19,2.43c.37.79,1.72.4,1.88,0s-.36-1,.23-1.64S8.76,9.42,8.07,9.68Z" fill="#fff"/>
            <path d="M3.51,16.85a1.22,1.22,0,0,0-.8,1.65c.25.54,1.16.27,1.27,0s-.24-.69.16-1.12S4,16.67,3.51,16.85Z" fill="#fff"/>
          </g>
          <g>
            <g>
              <path d="M21.17,18.58a.72.72,0,0,1-.64-.4,2.62,2.62,0,0,1,.28-2.58,2.45,2.45,0,0,1,1.63-1.06A2.74,2.74,0,0,1,24.09,13a2.54,2.54,0,0,1,.86-.14,3.52,3.52,0,0,1,1.5.37,2.84,2.84,0,0,1,2-.81,2.79,2.79,0,0,1,.64.07A2.9,2.9,0,0,1,31.12,14a3.14,3.14,0,0,1,.64-.07,2.57,2.57,0,0,1,1.65.58,2.89,2.89,0,0,1,.64,3.74.71.71,0,0,1-.58.31Z" fill="#98d9e4"/>
              <path d="M28.42,13.16a2.18,2.18,0,0,1,.49.06,2.16,2.16,0,0,1,1.78,1.69,2.51,2.51,0,0,1,1.07-.25,1.83,1.83,0,0,1,1.19.42,2.16,2.16,0,0,1,.52,2.78H21.17A1.91,1.91,0,0,1,21.39,16a1.66,1.66,0,0,1,1.37-.77H23a2,2,0,0,1,2-1.65,2.92,2.92,0,0,1,1.64.59,2.29,2.29,0,0,1,1.83-1m0-1.42a3.48,3.48,0,0,0-2.1.69A4,4,0,0,0,25,12.17a3.37,3.37,0,0,0-1.09.18A3.41,3.41,0,0,0,22,13.92a3.15,3.15,0,0,0-1.75,1.28,3.34,3.34,0,0,0-.33,3.3,1.44,1.44,0,0,0,1.28.79h12.3a1.45,1.45,0,0,0,1.17-.61,3.58,3.58,0,0,0-.78-4.7,3.25,3.25,0,0,0-2.1-.75h-.28a3.72,3.72,0,0,0-2.26-1.42,3.68,3.68,0,0,0-.8-.08Z" fill="#5576b4"/>
            </g>
            <path d="M24.18,15.37a1.12,1.12,0,0,0-.74,1.51c.23.49,1.07.25,1.17,0s-.23-.63.14-1S24.61,15.21,24.18,15.37Z" fill="#fff"/>
          </g>
          <path d="M36.78,17.58a7.36,7.36,0,0,1,1,.06c2.91.47,2.56,3.39.25,3.39-.5,0-1,0-1.47,0a10.82,10.82,0,0,0-1.59,3c-.93,2.65-1,6.15-3.29,9.42l-.23.3h0s0,4.64-.27,5.11a.08.08,0,0,1-.07,0c-.48,0-2.35-3-2.35-3h0c-2.41,1.12-5.4,1.12-8.11,1.12s-5.71,0-8.12-1.12h0s-1.87,3-2.34,3a.08.08,0,0,1-.08,0c-.3-.47-.27-5.11-.27-5.11h0l-.22-.3c-2.27-3.27-2.37-6.77-3.3-9.42a10.82,10.82,0,0,0-1.59-3c-.48,0-1,0-1.47,0C1,21,.6,18.11,3.51,17.64a7.36,7.36,0,0,1,1-.06c3.44,0,10.37,1.73,16.14,1.73s12.69-1.73,16.13-1.73m0-1.43a48.16,48.16,0,0,0-6.31.71,68,68,0,0,1-9.82,1,68,68,0,0,1-9.83-1,48.16,48.16,0,0,0-6.31-.71,7.54,7.54,0,0,0-1.23.08C.87,16.62-.1,18.31,0,19.72a3.09,3.09,0,0,0,3.25,2.74H4a10.33,10.33,0,0,1,1,2.1,26,26,0,0,1,.69,2.59,19.26,19.26,0,0,0,2.75,7.12c0,4.62.29,5.09.49,5.41a1.5,1.5,0,0,0,1.29.71c.56,0,1.14,0,2.92-2.71a24.53,24.53,0,0,0,7.54.79,24.47,24.47,0,0,0,7.53-.79C30,40.4,30.54,40.4,31.11,40.4a1.52,1.52,0,0,0,1.28-.71c.2-.32.5-.79.49-5.41a19.29,19.29,0,0,0,2.76-7.12,23.6,23.6,0,0,1,.68-2.59,10.33,10.33,0,0,1,1-2.1H38a3.08,3.08,0,0,0,3.25-2.74c.12-1.41-.86-3.1-3.27-3.49a7.54,7.54,0,0,0-1.23-.08Z" fill="#335394"/>
          <g>
            <path d="M9.84,33.82s0,4.64.27,5.11,2.42-3,2.42-3Z" fill="#5576b4"/>
            <path d="M31.45,33.82s0,4.64-.27,5.11-2.42-3-2.42-3Z" fill="#5576b4"/>
            <g>
              <path d="M20.65,20.32H4.05A9.12,9.12,0,0,1,6.32,24.1c.93,2.65,1,6.15,3.3,9.42,2.46,3.53,7,3.53,11,3.53s8.56,0,11-3.53C34,30.25,34,26.75,35,24.1a9.12,9.12,0,0,1,2.27-3.78Z" fill="#a7bfee"/>
              <path d="M6,20.32a7.43,7.43,0,0,1,1.87,4.14c.54,3,1.38,5.72,2.61,7a16.67,16.67,0,0,1-1-6c0-3.72-.84-5.18-.84-5.18Z" fill="#fff" opacity="0.3" style="mix-blend-mode: screen"/>
              <path d="M35.27,20.32a7.43,7.43,0,0,0-1.87,4.14c-.54,3-1.38,5.72-2.61,7a16.67,16.67,0,0,0,1-6c0-3.72.84-5.18.84-5.18Z" fill="#fff" opacity="0.3" style="mix-blend-mode: screen"/>
            </g>
            <path d="M37.78,17.64c-2.9-.47-10.73,1.67-17.13,1.67S6.42,17.17,3.51,17.64,1,21,3.26,21c5.17,0,9.36,2,17.39,2S32.86,21,38,21C40.34,21,40.69,18.11,37.78,17.64Z" fill="#a7bfee"/>
            <g opacity="0.5" style="mix-blend-mode: multiply">
              <path d="M20.65,23.77A53,53,0,0,1,9.88,22.58a34.38,34.38,0,0,0-6.62-.84A2.38,2.38,0,0,1,.72,19.66c-.09-1.13.7-2.4,2.68-2.72a7.12,7.12,0,0,1,1.11-.08,47.67,47.67,0,0,1,6.21.71,68.92,68.92,0,0,0,9.93,1,69.06,69.06,0,0,0,9.93-1,47.37,47.37,0,0,1,6.2-.71,7,7,0,0,1,1.11.08c2,.32,2.77,1.59,2.68,2.72A2.38,2.38,0,0,1,38,21.74a34.19,34.19,0,0,0-6.61.84A53.07,53.07,0,0,1,20.65,23.77Z" fill="#a7bfee"/>
              <path d="M36.78,17.58a7.36,7.36,0,0,1,1,.06c2.91.47,2.56,3.39.25,3.39-5.17,0-9.36,2-17.38,2S8.43,21,3.26,21C1,21,.6,18.11,3.51,17.64a7.36,7.36,0,0,1,1-.06c3.44,0,10.37,1.73,16.14,1.73s12.69-1.73,16.13-1.73m0-1.43a48.16,48.16,0,0,0-6.31.71,68,68,0,0,1-9.82,1,68,68,0,0,1-9.83-1,48.16,48.16,0,0,0-6.31-.71,7.54,7.54,0,0,0-1.23.08C.87,16.62-.1,18.31,0,19.72a3.09,3.09,0,0,0,3.25,2.74,34,34,0,0,1,6.48.82,54.17,54.17,0,0,0,10.91,1.2,54.14,54.14,0,0,0,10.9-1.2A34,34,0,0,1,38,22.46a3.08,3.08,0,0,0,3.25-2.74c.12-1.41-.86-3.1-3.27-3.49a7.54,7.54,0,0,0-1.23-.08Z" fill="#335394"/>
            </g>
          </g>
          <g>
            <path d="M16.46,31.51s-.21-1.68.91-2.08a9.84,9.84,0,0,0,2.43-1.06c.31-.29,1.53-.31,1.83.19s.25,1.24.67,2.29.56,1.75-.51,2.16S19.85,31.77,19,31.74,17.1,32.39,16.46,31.51Z" fill="#f1f2f2"/>
            <path d="M23.4,30.42a.87.87,0,0,1-.8-1,.47.47,0,0,1,.2-.34c.39-.27,1.29-1,1.9-.39S24.37,30.49,23.4,30.42Z" fill="#f1f2f2"/>
            <path d="M20.15,27.21A.89.89,0,0,1,18.81,27a.48.48,0,0,1-.06-.37c.11-.46.27-1.63,1.16-1.55C20.61,25.11,20.88,26.6,20.15,27.21Z" fill="#f1f2f2"/>
            <path d="M18.11,28.08a.86.86,0,0,1-1.26.35.51.51,0,0,1-.21-.29c-.09-.45-.45-1.53.35-1.83C17.63,26.07,18.49,27.24,18.11,28.08Z" fill="#f1f2f2"/>
            <path d="M22.24,27.92a.88.88,0,0,1-.87-.52c-.3-.61.91-2.16,1.71-1.43S22.72,27.87,22.24,27.92Z" fill="#f1f2f2"/>
          </g>
        </g>
      </g>
    </g>
  </g>
</svg>
