<svg xmlns="http://www.w3.org/2000/svg" width="40.94" height="40.94" viewBox="0 0 40.94 40.94">
  <g id="Layer_2" data-name="Layer 2">
    <g id="Layer_3" data-name="Layer 3">
      <g id="dog_toy_1" data-name="dog_toy 1">
        <g>
          <path d="M20.47,40.23A19.76,19.76,0,1,1,40.23,20.47,19.78,19.78,0,0,1,20.47,40.23Z" fill="#9be3bb"/>
          <path d="M20.47,1.43a19,19,0,1,1-19,19,19,19,0,0,1,19-19m0-1.43A20.47,20.47,0,1,0,40.94,20.47,20.49,20.49,0,0,0,20.47,0Z" fill="#3b7e82"/>
        </g>
        <circle cx="20.47" cy="20.47" r="16.89" transform="translate(-3.01 37.4) rotate(-80.78)" fill="#c6f4d8"/>
        <circle cx="20.47" cy="20.47" r="11.87" fill="#9be3bb"/>
        <g>
          <path d="M14.94,23.43s-.31-2.5,1.36-3.09a14.56,14.56,0,0,0,3.6-1.57c.46-.43,2.26-.46,2.72.28s.37,1.84,1,3.4.82,2.59-.76,3.2S20,23.81,18.63,23.76,15.89,24.73,14.94,23.43Z" fill="#3b7e82"/>
          <path d="M25.23,21.81a1.3,1.3,0,0,1-1.18-1.54.75.75,0,0,1,.3-.51c.58-.39,1.91-1.54,2.82-.58C27.89,20,26.68,21.92,25.23,21.81Z" fill="#3b7e82"/>
          <path d="M20.41,17.05a1.31,1.31,0,0,1-2-.36.73.73,0,0,1-.09-.54c.17-.69.4-2.43,1.72-2.31C21.1,13.93,21.5,16.14,20.41,17.05Z" fill="#3b7e82"/>
          <path d="M17.39,18.34a1.28,1.28,0,0,1-1.87.52.74.74,0,0,1-.31-.44c-.13-.66-.66-2.27.53-2.71C16.68,15.35,18,17.1,17.39,18.34Z" fill="#3b7e82"/>
          <path d="M23.52,18.1a1.29,1.29,0,0,1-1.29-.78c-.44-.89,1.35-3.19,2.54-2.11S24.22,18,23.52,18.1Z" fill="#3b7e82"/>
        </g>
      </g>
    </g>
  </g>
</svg>
