<svg xmlns="http://www.w3.org/2000/svg" xmlns:xlink="http://www.w3.org/1999/xlink" width="40.65" height="40.67" viewBox="0 0 40.65 40.67">
  <defs>
    <clipPath id="clip-path" transform="translate(0.06)">
      <path d="M35.86,6.58a3.15,3.15,0,0,1-1.74-.88,3.73,3.73,0,0,1-.43-.63c-.51-1-.19-1.53-1.27-2.53a3.93,3.93,0,0,0-6,.59c-1.59,1.91.41,3.73-.42,6a10.63,10.63,0,0,1-2,2.92h0c-.69.79-1.42,1.53-2,2.08s-1,.94-1,.94l-7.4,7.54-.59.59h0c-.28.27-.63.61-1,.95A9.24,9.24,0,0,1,9.55,26c-1.11.3-5.28-2-7.14.52s-.55,3.78.44,4.84a3.13,3.13,0,0,0,.66.53c1.08.69,2.55,1,2.79,1.4a2.71,2.71,0,0,1,.33,1.2A4,4,0,0,0,7.15,37a5.64,5.64,0,0,0,3.1,2.21,3.18,3.18,0,0,0,2.26-.37c2.37-1.31,2.21-2.95,2.13-3.68s-.48-2.58-.14-3.16a33,33,0,0,1,4-4.85c1-1,2.15-2.21,3.54-3.51s2.48-2.36,3.6-3.46c3.42-3.33,6-6,6.76-6,1,0,3.46.19,4.43-.26A4.52,4.52,0,0,0,38,13.18h0a3.66,3.66,0,0,0,1-4C38.38,7.23,37,6.91,35.86,6.58Z" fill="none"/>
    </clipPath>
  </defs>
  <g id="Layer_2" data-name="Layer 2">
    <g id="Layer_3" data-name="Layer 3">
      <g id="dog_food_1" data-name="dog_food 1">
        <g>
          <path d="M10.89,40a3.44,3.44,0,0,1-.78-.08A6.36,6.36,0,0,1,6.58,37.4,3.71,3.71,0,0,1,5.93,35c0-.16,0-.32,0-.48a1.92,1.92,0,0,0-.23-.9l-.81-.32a10.79,10.79,0,0,1-1.74-.82,3.89,3.89,0,0,1-.8-.65l-.19-.2c-1-1-2.47-2.6-.3-5.55a3.77,3.77,0,0,1,3.25-1.48A12.86,12.86,0,0,1,8,25a7.06,7.06,0,0,0,1.3.24c.15,0,.68-.22,2.27-1.66.37-.34.72-.67,1-.94l.58-.57,7.4-7.55s.44-.4,1-1,1.24-1.21,2-2v0a9.18,9.18,0,0,0,1.83-2.67,4.19,4.19,0,0,0,0-2.43,4,4,0,0,1,.58-3.78,4.79,4.79,0,0,1,3.76-2A4.86,4.86,0,0,1,32.9,2a3.43,3.43,0,0,1,1.15,2,3.3,3.3,0,0,0,.27.76,3.65,3.65,0,0,0,.35.52A2.65,2.65,0,0,0,36,5.89c1.29.35,2.92.8,3.59,3a4.33,4.33,0,0,1-1.16,4.77l0,0a5.38,5.38,0,0,1-1.32.85,7.1,7.1,0,0,1-2.76.37c-.5,0-1,0-1.37,0h-.61c-.54.17-3.08,2.65-5.32,4.85l-.93.9c-1.13,1.1-2.34,2.28-3.61,3.47S20.06,26.5,19,27.6a34.23,34.23,0,0,0-3.91,4.71,8.23,8.23,0,0,0,.15,2.14c0,.23.07.43.09.59.08.69.34,2.83-2.5,4.39A4,4,0,0,1,10.89,40Z" transform="translate(0.06)" fill="#fff0c5"/>
          <path d="M29.65,1.43a4.22,4.22,0,0,1,2.77,1.11c1.08,1,.76,1.58,1.27,2.53a3.73,3.73,0,0,0,.43.63,3.15,3.15,0,0,0,1.74.88c1.18.33,2.52.65,3.08,2.55a3.66,3.66,0,0,1-1,4h0a4.52,4.52,0,0,1-1.14.74,6.82,6.82,0,0,1-2.46.31c-.79,0-1.54,0-2-.05h0c-.72,0-3.34,2.63-6.75,6-1.12,1.1-2.33,2.27-3.6,3.46s-2.57,2.48-3.54,3.51a33,33,0,0,0-4,4.85c-.34.58.05,2.42.14,3.16s.24,2.37-2.13,3.68a3.3,3.3,0,0,1-1.62.44,3.39,3.39,0,0,1-.64-.07A5.64,5.64,0,0,1,7.15,37a4,4,0,0,1-.52-2.5,2.71,2.71,0,0,0-.33-1.2c-.24-.42-1.71-.71-2.79-1.4a3.13,3.13,0,0,1-.66-.53c-1-1.06-2.37-2.2-.44-4.84A3.13,3.13,0,0,1,5.09,25.3c1.62,0,3.36.7,4.21.7a1,1,0,0,0,.25,0,9.24,9.24,0,0,0,2.5-1.83c.38-.34.73-.68,1-.95h0l.59-.59,7.4-7.54s.41-.37,1-.94,1.3-1.29,2-2.08h0a10.63,10.63,0,0,0,2-2.92c.83-2.26-1.17-4.08.42-6a4.11,4.11,0,0,1,3.21-1.7m0-1.43a5.47,5.47,0,0,0-4.31,2.22,4.67,4.67,0,0,0-.73,4.38,3.47,3.47,0,0,1,.07,2A8.7,8.7,0,0,1,23,11.06l0,0c-.71.81-1.43,1.53-1.91,2s-.94.88-1,.9a.46.46,0,0,0-.07.07l-7.4,7.54s-.21.23-.54.54l0,0c-.27.26-.61.59-1,.92a10.52,10.52,0,0,1-1.87,1.47,9.54,9.54,0,0,1-1.05-.22,13.37,13.37,0,0,0-3.08-.47,4.5,4.5,0,0,0-3.83,1.77c-2.52,3.44-.65,5.41.36,6.47l.18.19a4.9,4.9,0,0,0,.94.77A10.32,10.32,0,0,0,4.61,34l.54.23a2.6,2.6,0,0,1,0,.36c0,.16,0,.31,0,.46A4.37,4.37,0,0,0,6,37.83a7.09,7.09,0,0,0,4,2.74,4.05,4.05,0,0,0,.92.1,4.74,4.74,0,0,0,2.31-.62A4.86,4.86,0,0,0,16.06,35c0-.16,0-.37-.09-.6a10.19,10.19,0,0,1-.17-1.78,36,36,0,0,1,3.74-4.48c1-1.08,2.19-2.24,3.48-3.45s2.56-2.44,3.62-3.47l.92-.9a55.61,55.61,0,0,1,5.05-4.65H33l1.39,0a7.58,7.58,0,0,0,3.06-.43,6,6,0,0,0,1.49-1h0a.08.08,0,0,0,0,0,5,5,0,0,0,1.35-5.48,4.88,4.88,0,0,0-4-3.5l-.09,0a2.58,2.58,0,0,1-1-.41A2,2,0,0,1,35,4.4a2.32,2.32,0,0,1-.22-.61,4.17,4.17,0,0,0-1.36-2.3A5.58,5.58,0,0,0,29.65,0Z" transform="translate(0.06)" fill="#ddab88"/>
        </g>
        <g clip-path="url(#clip-path)">
          <path d="M35.86,6.58a3.15,3.15,0,0,1-1.74-.88,3.73,3.73,0,0,1-.43-.63c-.51-1-.19-1.53-1.27-2.53a3.93,3.93,0,0,0-6,.59c-1.59,1.91.41,3.73-.42,6a10.63,10.63,0,0,1-2,2.92h0c-.69.79-1.42,1.53-2,2.08s-1,.94-1,.94l-7.4,7.54-.59.59h0c-.28.27-.63.61-1,.95A9.24,9.24,0,0,1,9.55,26c-1.11.3-5.28-2-7.14.52s-.55,3.78.44,4.84a3.13,3.13,0,0,0,.66.53c1.08.69,2.55,1,2.79,1.4a2.71,2.71,0,0,1,.33,1.2A4,4,0,0,0,7.15,37a5.64,5.64,0,0,0,3.1,2.21,3.18,3.18,0,0,0,2.26-.37c2.37-1.31,2.21-2.95,2.13-3.68s-.48-2.58-.14-3.16a33,33,0,0,1,4-4.85c1-1,2.15-2.21,3.54-3.51s2.48-2.36,3.6-3.46c3.42-3.33,6-6,6.76-6,1,0,3.46.19,4.43-.26A4.52,4.52,0,0,0,38,13.18h0a3.66,3.66,0,0,0,1-4C38.38,7.23,37,6.91,35.86,6.58Z" transform="translate(0.06)" fill="#e1cc8c"/>
          <path d="M33.26,6.14a3.1,3.1,0,0,1-1.68-.85,3.57,3.57,0,0,1-.42-.62c-.49-.92-.18-1.47-1.23-2.44a3.8,3.8,0,0,0-5.79.57c-1.53,1.85.4,3.61-.4,5.8a10.17,10.17,0,0,1-1.91,2.82h0c-.66.76-1.38,1.48-1.92,2s-1,.9-1,.9l-7.17,7.31s-.22.23-.57.57h0c-.27.26-.61.59-1,.92a9,9,0,0,1-2.42,1.77c-1.07.29-5.11-1.93-6.9.5s-.54,3.66.42,4.69a3.26,3.26,0,0,0,.64.51c1.05.67,2.47.95,2.7,1.35A2.56,2.56,0,0,1,5,33.13a3.86,3.86,0,0,0,.51,2.42,5.55,5.55,0,0,0,3,2.14,3.12,3.12,0,0,0,2.18-.36c2.31-1.27,2.15-2.86,2.07-3.57s-.46-2.49-.14-3.06A33,33,0,0,1,16.46,26c.94-1,2.08-2.14,3.43-3.4s2.39-2.28,3.48-3.34c3.31-3.23,5.84-5.78,6.54-5.77.92,0,3.35.18,4.29-.25a4.38,4.38,0,0,0,1.11-.72h0a3.5,3.5,0,0,0,.93-3.91C35.7,6.76,34.41,6.46,33.26,6.14Z" transform="translate(0.06)" fill="#fff0c5"/>
        </g>
      </g>
    </g>
  </g>
</svg>
