<svg xmlns="http://www.w3.org/2000/svg" width="40.63" height="40.8" viewBox="0 0 40.63 40.8">
  <g id="Layer_2" data-name="Layer 2">
    <g id="Layer_3" data-name="Layer 3">
      <g id="dog_clean_2" data-name="dog_clean 2">
        <g>
          <g>
            <path d="M27,40.09a2.53,2.53,0,0,1-2.39-1.71L17.18,16.6a2.54,2.54,0,0,1,1.57-3.22l.2-.07L17.67,9.56a.7.7,0,0,1-.05-.18s0-.14,0-.18,0-.19,0-.2l.71-.11-.71,0s0-.11,0-.13a1.22,1.22,0,0,0,0-.17s0-.13,0-.14l.06-.17.09-.19.09-.14.1-.14.13-.14.16-.14.11-.08a2,2,0,0,1,.32-.17l.18-.06L17.76,3.88A1.49,1.49,0,0,1,18.68,2L22.2.79a1.61,1.61,0,0,1,.48-.08,1.49,1.49,0,0,1,1.4,1L25.21,5l.08,0a1.72,1.72,0,0,1,.6-.1,1.85,1.85,0,0,1,1.75,1.25L28.92,9.9l.2-.06a2.51,2.51,0,0,1,3.21,1.57l7.45,21.78a2.52,2.52,0,0,1-1.33,3.12l-.25.1L27.84,40a2.51,2.51,0,0,1-.81.14Z" fill="#cdf5f9"/>
            <path d="M22.68,1.43a.77.77,0,0,1,.73.52l1.36,4,.75-.26a1.15,1.15,0,0,1,.37-.06A1.14,1.14,0,0,1,27,6.38l.66,1.92.86,2.51.87-.3a2,2,0,0,1,.59-.1,1.81,1.81,0,0,1,1.71,1.23l3.5,10.23,4,11.55a1.81,1.81,0,0,1-1,2.24l-.18.07-.87.3-9.49,3.24a1.7,1.7,0,0,1-.59.1,1.8,1.8,0,0,1-1.71-1.23l-4-11.55L17.86,16.36A1.8,1.8,0,0,1,19,14.06l.87-.3L19,11.25l-.66-1.92,0-.11s0,0,0,0,0,0,0-.07v0a.13.13,0,0,1,0-.06V8.89s0,0,0-.06V8.78s0,0,0-.06v0a.19.19,0,0,1,0-.07v0l0-.07v0l0-.07v0l.05-.07h0l.06-.08h0l.07-.07h0a.46.46,0,0,1,.07-.07h0L18.79,8h0l.19-.1.07,0,.75-.26-1.36-4a.75.75,0,0,1,.47-1l3.53-1.21a.67.67,0,0,1,.24,0m5.72,28.2a5.32,5.32,0,0,0,1.3-.2,5.32,5.32,0,0,1-1.3.2M22.68,0h0A2.16,2.16,0,0,0,22,.12l-3.52,1.2a2.2,2.2,0,0,0-1.37,2.79L18,6.82h0L17.81,7l-.18.16-.16.17a1.82,1.82,0,0,0-.14.19,1.32,1.32,0,0,0-.13.2l0,0-.08.16a.49.49,0,0,0,0,.07A1.16,1.16,0,0,0,17,8.1l0,.07c0,.05,0,.1-.05.16a.37.37,0,0,1,0,.09l0,.14s0,.08,0,.11a.57.57,0,0,0,0,.13.49.49,0,0,0,0,.12v.13s0,.1,0,.13,0,.07,0,.12l0,.16,0,.08a1.82,1.82,0,0,0,.07.25l.66,1.92.41,1.2a3.25,3.25,0,0,0-1.56,3.92L20,27.06,24,38.61A3.25,3.25,0,0,0,27,40.8a3.46,3.46,0,0,0,1.06-.17l9.48-3.25.88-.3.3-.12a3.24,3.24,0,0,0,1.72-4l-4-11.55L33,11.18A3.25,3.25,0,0,0,29.94,9a3.43,3.43,0,0,0-.56,0L29,7.84l-.66-1.92a2.56,2.56,0,0,0-2.42-1.74h-.21l-.92-2.71A2.21,2.21,0,0,0,22.68,0Z" fill="#5576b4"/>
          </g>
          <path d="M22.44,1.47,18.91,2.68a.75.75,0,0,0-.47,1l1.36,4,5-1.7L23.41,2A.77.77,0,0,0,22.44,1.47Z" fill="#6ab3b9"/>
          <path d="M20.13,3.7c-.51.17-.72.88-.48,1.59s.85,1.14,1.35,1,.72-.88.48-1.59S20.63,3.52,20.13,3.7Z" fill="#28575c"/>
          <path d="M25.52,5.67l-.75.26-5,1.7-.75.26-.07,0h0l-.19.1h0l-.09.06h0a.46.46,0,0,0-.07.07h0l-.07.07h0l-.06.08h0l-.05.07v0l0,.07v0l0,.07v0a.19.19,0,0,0,0,.07v0s0,0,0,.06v.05s0,0,0,.06V9a.13.13,0,0,0,0,.06v0s0,0,0,.07,0,0,0,0l0,.11L19,11.25l.89-.31L27.62,8.3,27,6.38A1.14,1.14,0,0,0,25.52,5.67Z" fill="#cdf5f9"/>
          <path d="M27.62,8.3l-7.73,2.64-.89.31.86,2.51.94-.32.06.14-.06-.14,7.68-2.63Z" fill="#98d9e4"/>
          <path d="M33.52,22.43A5.57,5.57,0,0,1,30,29.33l-.3.1a5.32,5.32,0,0,1-1.3.2h-.83l-.17,0-.09,0-.16,0h-.1l-.16,0-.1,0-.15,0-.1,0-.15-.05-.1,0-.14-.06-.11,0-.13-.06-.11-.05L25.67,29l-.1-.06-.13-.06-.1-.07-.12-.07-.1-.07L25,28.63l-.1-.08-.11-.08-.1-.08-.1-.08-.1-.09-.1-.09-.1-.09-.09-.1-.09-.09-.09-.1-.09-.11a.39.39,0,0,1-.08-.1l-.09-.11-.08-.1-.08-.12-.07-.1L23.45,27l-.06-.1-.08-.14s0-.07,0-.1l-.08-.15,0-.1-.08-.17,0-.09a.3.3,0,0,1,0-.1l-1.64.56,4,11.55a1.8,1.8,0,0,0,2.3,1.13L37.1,36l.87-.3.18-.07a1.81,1.81,0,0,0,1-2.24l-4-11.55Z" fill="#98d9e4"/>
          <path d="M29.35,10.51l-.87.3L20.8,13.44l.06.14-.06-.14-.94.32-.87.3a1.8,1.8,0,0,0-1.13,2.3l3.49,10.23L23,26a.3.3,0,0,0,0,.1l0,.09.08.17,0,.1.08.15s0,.07,0,.1l.08.14.06.1.08.13.07.1.08.12.08.1.09.11a.39.39,0,0,0,.08.1l.09.11.09.1.09.09.09.1.1.09.1.09.1.09.1.08.1.08.11.08.1.08.12.07.1.07.12.07.1.07.13.06.1.06.13.06.11.05.13.06.11,0,.14.06.1,0,.15.05.1,0,.15,0,.1,0,.16,0h.1l.16,0,.09,0,.17,0h.83a5.32,5.32,0,0,0,1.3-.2l.3-.1a5.57,5.57,0,0,0,3.52-6.9l1.63-.56-3.5-10.23A1.81,1.81,0,0,0,29.35,10.51Z" fill="#cdf5f9"/>
          <g>
            <circle cx="26.05" cy="15.82" r="0.93" fill="#781f1a"/>
            <circle cx="22.98" cy="22.19" r="0.93" fill="#781f1a"/>
            <circle cx="22.76" cy="18.08" r="0.93" fill="#781f1a"/>
            <circle cx="26.6" cy="20.01" r="4.13" fill="#d98885"/>
            <circle cx="25.86" cy="17.85" r="0.93" fill="#781f1a"/>
            <circle cx="24.63" cy="21.17" r="0.93" fill="#781f1a"/>
            <circle cx="28.34" cy="20.35" r="0.93" fill="#781f1a"/>
            <circle cx="29.46" cy="17.18" r="0.93" fill="#781f1a"/>
            <circle cx="30.7" cy="21.21" r="0.93" fill="#781f1a"/>
            <circle cx="26.8" cy="24.15" r="0.93" fill="#781f1a"/>
          </g>
          <g>
            <circle cx="26.73" cy="19.98" r="5.57" fill="none" stroke="#96b85c" stroke-miterlimit="10" stroke-width="0.95"/>
            <line x1="29.7" y1="15.27" x2="23.77" y2="24.69" fill="none" stroke="#96b85c" stroke-miterlimit="10" stroke-width="0.95"/>
          </g>
        </g>
        <g>
          <path d="M7.92,10.23A.71.71,0,0,1,7.37,10L6,8.35A.72.72,0,0,1,6.38,7.2l7.78-2,.18,0a.71.71,0,0,1,.35,1.34L8.27,10.14A.73.73,0,0,1,7.92,10.23Z" fill="#a7bfee"/>
          <path d="M14.34,5.9,7.92,9.52,6.56,7.89l7.78-2m0-1.43a1.39,1.39,0,0,0-.35,0l-7.78,2a1.43,1.43,0,0,0-1,.94,1.45,1.45,0,0,0,.26,1.36l1.36,1.62a1.42,1.42,0,0,0,1.1.51,1.46,1.46,0,0,0,.7-.18L15,7.14a1.42,1.42,0,0,0-.7-2.67Zm0,2.86h0Z" fill="#5576b4"/>
        </g>
        <g>
          <path d="M8.49,18.49a.76.76,0,0,1-.41-.13L5.15,16.27a.71.71,0,0,1,0-1.16l9.77-7A.83.83,0,0,1,15.34,8a.68.68,0,0,1,.51.22.71.71,0,0,1,.06.93l-6.85,9A.7.7,0,0,1,8.49,18.49Z" fill="#a7bfee"/>
          <path d="M15.34,8.73l-6.85,9L5.56,15.69l9.78-7m0-1.43a1.41,1.41,0,0,0-.83.26l-9.78,7a1.42,1.42,0,0,0,0,2.32l2.94,2.09a1.43,1.43,0,0,0,2-.3l6.85-9A1.42,1.42,0,0,0,15.34,7.3Zm0,2.86h0Z" fill="#5576b4"/>
        </g>
        <g>
          <path id="_315703984" data-name=" 315703984" d="M16.38,34.79a.52.52,0,0,1-.09.73,1.45,1.45,0,0,1-2-.26l-.59-.76a.52.52,0,0,1,.83-.63l.58.75a.41.41,0,0,0,.57.07.51.51,0,0,1,.72.1Z" fill="#e57225" fill-rule="evenodd"/>
          <path id="_315703744" data-name=" 315703744" d="M8.8,24.89a.52.52,0,0,1-.09.73.44.44,0,0,0-.17.33.62.62,0,0,0,.12.44l.5.62a.52.52,0,0,1-.07.73.53.53,0,0,1-.73-.07l-.5-.62a1.67,1.67,0,0,1-.34-1.22,1.46,1.46,0,0,1,.56-1A.49.49,0,0,1,8.8,24.89Z" fill="#e57225" fill-rule="evenodd"/>
          <path id="_315703888" data-name=" 315703888" d="M12.22,35.93l1,1.31a.52.52,0,0,1-.09.73.53.53,0,0,1-.73-.1l-1-1.3a.53.53,0,0,1,.1-.73A.53.53,0,0,1,12.22,35.93Z" fill="#e57225" fill-rule="evenodd"/>
          <path id="_315704248" data-name=" 315704248" d="M5.62,27.43l1,1.26a.52.52,0,0,1-.09.73.51.51,0,0,1-.73-.09l-1-1.26a.52.52,0,0,1,.09-.73A.53.53,0,0,1,5.62,27.43Z" fill="#e57225" fill-rule="evenodd"/>
          <path id="_315703936" data-name=" 315703936" d="M8.89,36.8l1,1.23a1.45,1.45,0,0,1-.26,2A.52.52,0,1,1,9,39.23.41.41,0,0,0,9,38.67l-1-1.24a.52.52,0,0,1,.09-.73.53.53,0,0,1,.73.1Z" fill="#e57225" fill-rule="evenodd"/>
          <path id="_315704176" data-name=" 315704176" d="M4.05,30.55,5,31.71a.54.54,0,0,1-.09.74.52.52,0,0,1-.73-.1l-.9-1.16a.42.42,0,0,0-.57-.08A.52.52,0,0,1,1.93,31a.53.53,0,0,1,.1-.73,1.46,1.46,0,0,1,2,.26Z" fill="#e57225" fill-rule="evenodd"/>
          <path id="_315704464" data-name=" 315704464" d="M5,37.93a.52.52,0,0,1,.11.38l-.28,2a.52.52,0,1,1-1-.14l.28-2a.51.51,0,0,1,.58-.44.48.48,0,0,1,.34.2Z" fill="#ffaa5a" fill-rule="evenodd"/>
          <path id="_315703816" data-name=" 315703816" d="M2.9,35.17a.54.54,0,0,1,.11.39.52.52,0,0,1-.59.44l-2-.27a.52.52,0,1,1,.14-1l2,.27a.59.59,0,0,1,.34.2Z" fill="#ffaa5a" fill-rule="evenodd"/>
          <path id="_315704128" data-name=" 315704128" d="M6.89,36.26a.52.52,0,0,1,.1.42,2.64,2.64,0,0,1-1,1.55,2.54,2.54,0,0,1-1.39.53,2.59,2.59,0,1,1,0-5.16.51.51,0,0,1,.48.54l1.49,1.93a.48.48,0,0,1,.31.19Z" fill="#e57225" fill-rule="evenodd"/>
          <path id="_315703696" data-name=" 315703696" d="M14.22,28.59A4.83,4.83,0,0,1,14,34.27a6.84,6.84,0,0,1-2.16,2l-.12.06a5.92,5.92,0,0,1-3.13.76H8.51a4.65,4.65,0,0,1-1.92-.54l0,0h0a4.26,4.26,0,0,1-1.2-1,3.84,3.84,0,0,1-.69-1.42h0s0,0,0,0a4.59,4.59,0,0,1,0-2,.24.24,0,0,1,0-.08,5.89,5.89,0,0,1,1.52-2.85l.08-.1c.22-.21.45-.42.69-.61a7,7,0,0,1,1.74-1h0a4.83,4.83,0,0,1,5.57,1.19Z" fill="#ffaa5a" stroke="#e57225" stroke-miterlimit="10" stroke-width="1.43" fill-rule="evenodd"/>
          <path id="_315703216" data-name=" 315703216" d="M13.63,29.05a3.28,3.28,0,0,1,.27.38L6.24,35.37,5.94,35a3.39,3.39,0,0,1-.27-.39l7.65-5.93A2.59,2.59,0,0,1,13.63,29.05Z" fill="#ff8d3d" fill-rule="evenodd"/>
        </g>
      </g>
    </g>
  </g>
</svg>
