<svg xmlns="http://www.w3.org/2000/svg" width="40.81" height="40.76" viewBox="0 0 40.81 40.76">
  <g id="Layer_2" data-name="Layer 2">
    <g id="Layer_3" data-name="Layer 3">
      <g id="dog_clean_3" data-name="dog_clean 3">
        <g>
          <g>
            <circle cx="12.92" cy="12.55" r="4.11" fill="#fcd2d8" stroke="#d98885" stroke-miterlimit="10" stroke-width="1.43"/>
            <path d="M13.32,10.05A1.93,1.93,0,0,1,15.25,12" fill="none" stroke="#fff" stroke-linecap="round" stroke-linejoin="round" stroke-width="1.43"/>
          </g>
          <g>
            <g>
              <path d="M4.85,40a4.13,4.13,0,1,1,0-8.26H6.3a7,7,0,0,1,0-.79,6.81,6.81,0,0,1,13.62,0,7,7,0,0,1-.05.79h3.1a4.13,4.13,0,0,1,0,8.26Z" fill="#fcd2d8"/>
              <path d="M13.06,24.82a6.09,6.09,0,0,1,6.09,6.09A6.31,6.31,0,0,1,19,32.42h4a3.42,3.42,0,1,1,0,6.83H4.85a3.42,3.42,0,1,1,0-6.83H7.16A6.31,6.31,0,0,1,7,30.91a6.09,6.09,0,0,1,6.09-6.09m0-1.43a7.53,7.53,0,0,0-7.52,7.52V31H4.85a4.85,4.85,0,1,0,0,9.69H22.92a4.85,4.85,0,0,0,0-9.69H20.58v-.08a7.53,7.53,0,0,0-7.52-7.52Z" fill="#d98885"/>
            </g>
            <path d="M13.74,26.6A3.29,3.29,0,0,1,17,29.89" fill="none" stroke="#fff" stroke-linecap="round" stroke-linejoin="round" stroke-width="1.43"/>
          </g>
        </g>
        <g>
          <path d="M30.2,1.43a5.71,5.71,0,0,1,2.44.5,3.57,3.57,0,0,1,1.68,1.51,2.37,2.37,0,0,1,0,2.21A2.79,2.79,0,0,1,31.84,6.9l-.32,0a5.1,5.1,0,0,1-.95-.16V8.66a3.74,3.74,0,0,1,2.59,2.44h.12A5.16,5.16,0,0,1,38.41,16l.13,2.66.59,12.19.25,5.23a3.09,3.09,0,0,1-3.08,3.23H22.36a3.09,3.09,0,0,1-3.08-3.28l.32-5,.79-12.32.18-2.82a5.17,5.17,0,0,1,5-4.84h0a3.52,3.52,0,0,1,1.63-2A3.69,3.69,0,0,1,28,8.68V6a9.69,9.69,0,0,0-1.86-.18,9.46,9.46,0,0,0-4.05.9.85.85,0,0,1-.31.09h-.08a.57.57,0,0,1-.28-.27l-.6-.89a.41.41,0,0,1,.09-.56,19.47,19.47,0,0,1,6.35-3.19,10.79,10.79,0,0,1,3-.48M30.2,0h0a12,12,0,0,0-3.38.53A21,21,0,0,0,20,4a1.85,1.85,0,0,0-.4,2.5c.19.29.39.58.58.88a2,2,0,0,0,1.1.85,1.43,1.43,0,0,0,.46.07A2.09,2.09,0,0,0,22.65,8a8.12,8.12,0,0,1,3.45-.76h.43v.46l-.07,0a4.93,4.93,0,0,0-1.91,2,6.57,6.57,0,0,0-5.41,6.07L19,18.63,18.18,31l-.32,5a4.5,4.5,0,0,0,4.5,4.8H36.3A4.51,4.51,0,0,0,40.8,36l-.25-5.23L40,18.61,39.84,16a6.59,6.59,0,0,0-5.75-6.23,5.13,5.13,0,0,0-1.25-1.48,3.91,3.91,0,0,0,2.78-1.9,3.82,3.82,0,0,0,0-3.57A5,5,0,0,0,33.24.63a7.16,7.16,0,0,0-3-.63Z" fill="#924f28"/>
          <g>
            <g>
              <rect x="27.96" y="5.24" width="2.61" height="3.78" fill="#a16306"/>
              <g>
                <path d="M33.41,12a4,4,0,0,0-2.84-3.33,4.56,4.56,0,0,0-3.4.37,3.45,3.45,0,0,0-1.76,2.84A60.77,60.77,0,0,1,33.41,12Z" fill="#e39b2f"/>
                <path d="M20.78,5.66a.41.41,0,0,1,.09-.56,19.47,19.47,0,0,1,6.35-3.19,7.77,7.77,0,0,1,5.42,0,3.57,3.57,0,0,1,1.68,1.51,2.37,2.37,0,0,1,0,2.21,2.93,2.93,0,0,1-2.85,1.23,22,22,0,0,1-3.18-.78,9.54,9.54,0,0,0-6.29.64.69.69,0,0,1-.39.08.57.57,0,0,1-.28-.27Z" fill="#e39b2f"/>
              </g>
            </g>
            <path d="M22.36,39.33H36.3a3.09,3.09,0,0,0,3.08-3.23l-.25-5.23-.59-12.19L38.41,16a5.16,5.16,0,0,0-5.13-4.92h-.11l-7.42,0h-.22a5.17,5.17,0,0,0-5,4.84l-.18,2.82L19.6,31l-.32,5A3.09,3.09,0,0,0,22.36,39.33Z" fill="#ffc163"/>
            <path d="M19.6,31q9.76.2,19.53-.17l-.59-12.19c-6,.25-12.1.36-18.15,0Z" fill="#a7bfee"/>
          </g>
          <g>
            <path d="M24.49,28.06s-.27-2.18,1.19-2.7A12.66,12.66,0,0,0,28.83,24a2.05,2.05,0,0,1,2.38.25c.39.64.32,1.61.86,3s.73,2.27-.66,2.81-2.52-1.62-3.69-1.66S25.32,29.2,24.49,28.06Z" fill="#5576b4"/>
            <path d="M33.49,26.65a1.15,1.15,0,0,1-1-1.36.65.65,0,0,1,.26-.44c.51-.35,1.67-1.35,2.47-.51C35.82,25,34.76,26.74,33.49,26.65Z" fill="#5576b4"/>
            <path d="M29.28,22.48a1.17,1.17,0,0,1-1.74-.31.68.68,0,0,1-.08-.48c.15-.6.36-2.12,1.51-2C29.88,19.75,30.23,21.68,29.28,22.48Z" fill="#5576b4"/>
            <path d="M26.63,23.61a1.12,1.12,0,0,1-1.63.45.64.64,0,0,1-.27-.38c-.12-.58-.58-2,.46-2.38C26,21,27.12,22.52,26.63,23.61Z" fill="#5576b4"/>
            <path d="M32,23.39a1.12,1.12,0,0,1-1.13-.67c-.39-.78,1.18-2.8,2.22-1.86S32.61,23.33,32,23.39Z" fill="#5576b4"/>
          </g>
        </g>
      </g>
    </g>
  </g>
</svg>
