<svg xmlns="http://www.w3.org/2000/svg" width="41.07" height="40.74" viewBox="0 0 41.07 40.74">
  <g id="Layer_2" data-name="Layer 2">
    <g id="Layer_3" data-name="Layer 3">
      <g id="dog_clean_1" data-name="dog_clean 1">
        <path d="M17.24,1.43h.1a.45.45,0,0,1,.36.47l1.73,3.33A4.58,4.58,0,0,1,21,5.87l.28.18-.64-1.22a.44.44,0,0,1-.24-.49A.46.46,0,0,1,20.85,4H21a.45.45,0,0,1,.35.48l1.24,2.37,2.1,1.35-.4-.76A.43.43,0,0,1,24,7a.46.46,0,0,1,.45-.34l.11,0a.44.44,0,0,1,.35.47l1,1.92L28,10.39l-.2-.37a.44.44,0,0,1-.24-.49A.46.46,0,0,1,28,9.19h.11a.45.45,0,0,1,.35.48l.8,1.53,1.93,1.24a.42.42,0,0,1-.06-.33.46.46,0,0,1,.45-.34h.11a.45.45,0,0,1,.35.48l.58,1.1,5.44,3.51a3.09,3.09,0,0,1,1.39,1.85h0v.09a2.34,2.34,0,0,1,0,.79l.08,1.34h0a2.6,2.6,0,0,1-.92,2.25l-7.84,7.63a4.59,4.59,0,0,1-3.08,1.08,4.9,4.9,0,0,1-2.67-.75L18.36,26.8,6.91,38.4a3.25,3.25,0,0,1-2.14.91A1.63,1.63,0,0,1,4,39.13L1.94,38a1,1,0,0,1-.49-1.08h0l.07-1.5h0a1.83,1.83,0,0,1,.68-1.51L12.76,23.2,8,20.14a2.92,2.92,0,0,1-1.45-2.37h0l-.07-2.09h0a2.65,2.65,0,0,1,.91-1.84l2.71-2.63-.48-.93a.44.44,0,0,1-.25-.48.45.45,0,0,1,.45-.34h.11a.44.44,0,0,1,.36.47l.37.72,2-1.91-.58-1.1a.44.44,0,0,1,.21-.83h.1a.45.45,0,0,1,.36.48l.47.9,2-2-.67-1.3a.42.42,0,0,1-.25-.48.46.46,0,0,1,.45-.34h.11a.45.45,0,0,1,.35.48l.62,1.18a4.89,4.89,0,0,1,2.49-.64h.22L17,2.25a.42.42,0,0,1-.24-.48.45.45,0,0,1,.45-.34m0-1.43h0a1.89,1.89,0,0,0-1.85,1.44,1.82,1.82,0,0,0,.29,1.47,2.31,2.31,0,0,0-.52-.19,2,2,0,0,0-.42-.05A1.88,1.88,0,0,0,12.9,4.11a1.83,1.83,0,0,0,.3,1.51,1.81,1.81,0,0,0-.52-.2,1.92,1.92,0,0,0-.41,0,1.87,1.87,0,0,0-1.84,1.44,1.81,1.81,0,0,0,.21,1.37,2.23,2.23,0,0,0-.39-.13,2,2,0,0,0-.42,0A1.88,1.88,0,0,0,8,9.45,1.84,1.84,0,0,0,8.3,11L6.42,12.78a4.12,4.12,0,0,0-1.34,2.57,1.47,1.47,0,0,0,0,.36l.07,2.1a2.13,2.13,0,0,0,0,.25,4.37,4.37,0,0,0,2.1,3.28l3.26,2.11L1.17,32.91a3.26,3.26,0,0,0-1.1,2.54L0,36.87v0a2.38,2.38,0,0,0,1.24,2.37l2.06,1.13a3.06,3.06,0,0,0,1.46.35,4.71,4.71,0,0,0,3.13-1.3L18.56,28.63l5.78,3.73a6.51,6.51,0,0,0,3.45,1,6.11,6.11,0,0,0,4-1.44l0,0,7.82-7.61a4,4,0,0,0,1.36-3.42L41,19.64a4.3,4.3,0,0,0-.06-1h0a1.53,1.53,0,0,0-.13-.53,4.57,4.57,0,0,0-1.93-2.43l-5.12-3.3-.28-.53A1.87,1.87,0,0,0,32,10.4a1.88,1.88,0,0,0-1.19.11l-.46-.3-.5-1a1.88,1.88,0,0,0-1.44-1.44,1.84,1.84,0,0,0-.41,0,1.92,1.92,0,0,0-1,.29l0,0L26.3,6.69a1.85,1.85,0,0,0-1.43-1.45,2,2,0,0,0-.42,0,1.92,1.92,0,0,0-1,.29L22.7,4.07a1.88,1.88,0,0,0-1.44-1.45,1.84,1.84,0,0,0-.41-.05,1.87,1.87,0,0,0-1,.31l-.72-1.39A1.88,1.88,0,0,0,17.65.05a1.92,1.92,0,0,0-.41,0Z" fill="#7f1c81"/>
        <g>
          <g>
            <path d="M39.63,20.94h0l-.13-2.22s-.42.31-.73.57a4.21,4.21,0,0,0-.6-.48l-17.1-11a5,5,0,0,0-5.75.33l-7.17,7-1.68.57.07,2.09h0A2.92,2.92,0,0,0,8,20.14l5.84,3.76L2.59,35.3,2.67,35l-1.16.47-.07,1.5h0A1,1,0,0,0,1.94,38L4,39.13a2.8,2.8,0,0,0,2.92-.73L18.36,26.8l6.76,4.35a5,5,0,0,0,5.75-.33l7.84-7.63A2.6,2.6,0,0,0,39.63,20.94Z" fill="#ac53b0"/>
            <g>
              <path d="M25.05,29.22l-17.11-11a2.66,2.66,0,0,1-.54-4.39l7.85-7.63A5,5,0,0,1,21,5.87l17.1,11a2.65,2.65,0,0,1,.54,4.38L30.8,28.89A5,5,0,0,1,25.05,29.22Z" fill="#e2a4ef"/>
              <path d="M4.06,37.26,2,36.13c-.75-.41-.67-1.41.18-2.22L14.57,21.36a2.78,2.78,0,0,1,2.91-.73l2.06,1.13c.75.41.67,1.41-.18,2.22L7,36.53A2.8,2.8,0,0,1,4.06,37.26Z" fill="#e2a4ef"/>
            </g>
            <path d="M25.09,27.18,10.56,17.62C9.09,16.66,8.82,15,10,14l6.26-6.1A4.15,4.15,0,0,1,21,7.77l14.54,9.56c1.47,1,1.73,2.6.58,3.63l-6.26,6.1A4.14,4.14,0,0,1,25.09,27.18Z" fill="#fff69f"/>
          </g>
          <path d="M6.07,35.76a1.64,1.64,0,0,1-2-.08c-.7-.47-.95-1.19-.56-1.61A1.76,1.76,0,0,1,5.6,34,1.21,1.21,0,0,1,6.07,35.76Z" fill="#ac53b0"/>
          <g>
            <g>
              <g>
                <path d="M35,19.12a.35.35,0,0,1-.24-.19l-3.39-6.48A.36.36,0,0,1,31.5,12a.39.39,0,0,1,.51.17l3.39,6.48a.35.35,0,0,1-.18.48A.39.39,0,0,1,35,19.12Z" fill="#3f3d39"/>
                <path d="M32.08,12.32a.46.46,0,0,1-.56.33.44.44,0,0,1-.35-.53.48.48,0,0,1,.56-.33A.45.45,0,0,1,32.08,12.32Z" fill="#827c6c"/>
              </g>
              <g>
                <path d="M32.47,21.79a.35.35,0,0,1-.25-.19l-3.38-6.48a.35.35,0,0,1,.17-.48.39.39,0,0,1,.51.17l3.38,6.48a.35.35,0,0,1-.17.48A.39.39,0,0,1,32.47,21.79Z" fill="#3f3d39"/>
                <path d="M29.59,15a.47.47,0,0,1-.56.32.44.44,0,0,1-.35-.53.47.47,0,0,1,.91.21Z" fill="#827c6c"/>
              </g>
              <g>
                <path d="M30,24.5a.4.4,0,0,1-.24-.2l-3.39-6.48a.36.36,0,0,1,.17-.48.4.4,0,0,1,.51.17L30.43,24a.35.35,0,0,1-.18.48A.39.39,0,0,1,30,24.5Z" fill="#3f3d39"/>
                <path d="M27.11,17.7a.48.48,0,0,1-.56.33.45.45,0,0,1-.35-.53.46.46,0,0,1,.56-.33A.44.44,0,0,1,27.11,17.7Z" fill="#827c6c"/>
              </g>
              <g>
                <path d="M27.56,27.13a.43.43,0,0,1-.25-.19l-3.38-6.49A.35.35,0,0,1,24.1,20a.39.39,0,0,1,.51.16L28,26.63a.34.34,0,0,1-.17.48A.46.46,0,0,1,27.56,27.13Z" fill="#3f3d39"/>
                <path d="M24.68,20.33a.46.46,0,0,1-.56.33.44.44,0,0,1-.35-.53.46.46,0,0,1,.56-.33A.44.44,0,0,1,24.68,20.33Z" fill="#827c6c"/>
              </g>
            </g>
            <g>
              <g>
                <path d="M27.79,14a.35.35,0,0,1-.24-.19L24.16,7.29a.36.36,0,0,1,.17-.48.39.39,0,0,1,.51.17l3.39,6.48a.35.35,0,0,1-.18.48A.39.39,0,0,1,27.79,14Z" fill="#3f3d39"/>
                <path d="M24.91,7.17a.47.47,0,0,1-.56.32A.44.44,0,0,1,24,7a.47.47,0,0,1,.56-.32A.44.44,0,0,1,24.91,7.17Z" fill="#827c6c"/>
              </g>
              <g>
                <path d="M25.3,16.64a.39.39,0,0,1-.25-.2L21.67,10a.35.35,0,0,1,.17-.48.39.39,0,0,1,.51.17l3.38,6.48a.35.35,0,0,1-.17.48A.39.39,0,0,1,25.3,16.64Z" fill="#3f3d39"/>
                <path d="M22.42,9.84a.48.48,0,0,1-.56.33.44.44,0,1,1,.2-.86A.45.45,0,0,1,22.42,9.84Z" fill="#827c6c"/>
              </g>
              <g>
                <path d="M22.82,19.34a.41.41,0,0,1-.24-.19l-3.39-6.49a.35.35,0,0,1,.18-.48.39.39,0,0,1,.5.17l3.39,6.48a.35.35,0,0,1-.18.48A.39.39,0,0,1,22.82,19.34Z" fill="#3f3d39"/>
                <path d="M19.94,12.54a.48.48,0,0,1-.56.33.45.45,0,0,1-.35-.53.46.46,0,0,1,.56-.33A.44.44,0,0,1,19.94,12.54Z" fill="#827c6c"/>
              </g>
              <g>
                <path d="M20.39,22a.39.39,0,0,1-.25-.19L16.76,15.3a.35.35,0,0,1,.17-.48.39.39,0,0,1,.51.16l3.38,6.49a.34.34,0,0,1-.17.48A.39.39,0,0,1,20.39,22Z" fill="#3f3d39"/>
                <path d="M17.51,15.17a.46.46,0,0,1-.56.33A.44.44,0,0,1,16.6,15a.46.46,0,0,1,.56-.33A.45.45,0,0,1,17.51,15.17Z" fill="#827c6c"/>
              </g>
            </g>
            <g>
              <g>
                <path d="M20.58,8.77a.37.37,0,0,1-.25-.19L17,2.09a.34.34,0,0,1,.17-.47.39.39,0,0,1,.51.16L21,8.27a.34.34,0,0,1-.17.47A.4.4,0,0,1,20.58,8.77Z" fill="#3f3d39"/>
                <path d="M17.7,2a.47.47,0,0,1-.56.33.44.44,0,0,1-.35-.53.47.47,0,0,1,.91.2Z" fill="#827c6c"/>
              </g>
              <g>
                <path d="M18.08,11.44a.35.35,0,0,1-.24-.19L14.45,4.76a.35.35,0,0,1,.17-.47.39.39,0,0,1,.51.16l3.39,6.49a.35.35,0,0,1-.18.48A.46.46,0,0,1,18.08,11.44Z" fill="#3f3d39"/>
                <path d="M15.2,4.64a.46.46,0,0,1-.56.33.44.44,0,0,1-.35-.53.47.47,0,0,1,.56-.33A.45.45,0,0,1,15.2,4.64Z" fill="#827c6c"/>
              </g>
              <g>
                <path d="M15.61,14.14a.35.35,0,0,1-.25-.19L12,7.47A.35.35,0,0,1,12.15,7a.39.39,0,0,1,.51.16L16,13.64a.35.35,0,0,1-.17.48A.39.39,0,0,1,15.61,14.14Z" fill="#3f3d39"/>
                <path d="M12.73,7.34a.46.46,0,0,1-.56.33.44.44,0,0,1-.35-.53.47.47,0,0,1,.91.2Z" fill="#827c6c"/>
              </g>
              <g>
                <path d="M13.18,16.78a.41.41,0,0,1-.25-.19L9.55,10.1a.34.34,0,0,1,.17-.48.4.4,0,0,1,.51.17l3.38,6.48a.35.35,0,0,1-.17.48A.4.4,0,0,1,13.18,16.78Z" fill="#3f3d39"/>
                <path d="M10.29,10a.46.46,0,0,1-.55.33.45.45,0,0,1-.36-.53.46.46,0,0,1,.56-.33A.44.44,0,0,1,10.29,10Z" fill="#827c6c"/>
              </g>
            </g>
            <g>
              <g>
                <path d="M31.38,16.53a.37.37,0,0,1-.25-.19L27.75,9.86a.35.35,0,0,1,.17-.48.39.39,0,0,1,.51.16L31.81,16a.34.34,0,0,1-.17.48A.39.39,0,0,1,31.38,16.53Z" fill="#3f3d39"/>
                <path d="M28.5,9.73a.46.46,0,0,1-.56.33.44.44,0,0,1-.35-.53.46.46,0,0,1,.56-.33A.45.45,0,0,1,28.5,9.73Z" fill="#827c6c"/>
              </g>
              <g>
                <path d="M28.89,19.2a.35.35,0,0,1-.25-.19l-3.38-6.48a.34.34,0,0,1,.17-.48.39.39,0,0,1,.51.17l3.38,6.48a.36.36,0,0,1-.17.48A.39.39,0,0,1,28.89,19.2Z" fill="#3f3d39"/>
                <path d="M26,12.4a.47.47,0,0,1-.91-.2.48.48,0,0,1,.56-.33A.45.45,0,0,1,26,12.4Z" fill="#827c6c"/>
              </g>
              <g>
                <path d="M26.41,21.9a.39.39,0,0,1-.25-.19l-3.38-6.48a.36.36,0,0,1,.17-.48.39.39,0,0,1,.51.17l3.38,6.48a.34.34,0,0,1-.17.48A.39.39,0,0,1,26.41,21.9Z" fill="#3f3d39"/>
                <path d="M23.53,15.11a.47.47,0,0,1-.56.32.44.44,0,0,1-.35-.53.46.46,0,0,1,.56-.32A.44.44,0,0,1,23.53,15.11Z" fill="#827c6c"/>
              </g>
              <g>
                <path d="M24,24.54a.4.4,0,0,1-.25-.19l-3.38-6.49a.35.35,0,0,1,.17-.48.4.4,0,0,1,.51.17L24.41,24a.34.34,0,0,1-.17.47A.39.39,0,0,1,24,24.54Z" fill="#3f3d39"/>
                <path d="M21.1,17.74a.47.47,0,0,1-.56.33.44.44,0,0,1-.35-.53.46.46,0,0,1,.55-.33A.45.45,0,0,1,21.1,17.74Z" fill="#827c6c"/>
              </g>
            </g>
            <g>
              <g>
                <path d="M24.19,11.34a.39.39,0,0,1-.25-.19L20.56,4.67a.35.35,0,0,1,.17-.48.39.39,0,0,1,.51.16l3.38,6.49a.34.34,0,0,1-.17.48A.39.39,0,0,1,24.19,11.34Z" fill="#3f3d39"/>
                <path d="M21.31,4.54a.46.46,0,0,1-.56.33.44.44,0,0,1-.35-.53A.47.47,0,0,1,21,4,.45.45,0,0,1,21.31,4.54Z" fill="#827c6c"/>
              </g>
              <g>
                <path d="M21.7,14a.35.35,0,0,1-.25-.19L18.07,7.34a.34.34,0,0,1,.17-.48.39.39,0,0,1,.51.17l3.38,6.48A.36.36,0,0,1,22,14,.39.39,0,0,1,21.7,14Z" fill="#3f3d39"/>
                <path d="M18.81,7.22A.47.47,0,0,1,17.9,7a.47.47,0,0,1,.56-.32A.44.44,0,0,1,18.81,7.22Z" fill="#827c6c"/>
              </g>
              <g>
                <path d="M19.22,16.72a.44.44,0,0,1-.25-.2L15.59,10a.36.36,0,0,1,.17-.48.39.39,0,0,1,.51.17l3.38,6.48a.34.34,0,0,1-.17.48A.39.39,0,0,1,19.22,16.72Z" fill="#3f3d39"/>
                <path d="M16.34,9.92a.47.47,0,0,1-.56.32.43.43,0,0,1-.35-.52A.46.46,0,0,1,16,9.39.44.44,0,0,1,16.34,9.92Z" fill="#827c6c"/>
              </g>
              <g>
                <path d="M16.79,19.35a.4.4,0,0,1-.25-.19l-3.38-6.49a.34.34,0,0,1,.17-.47.39.39,0,0,1,.51.16l3.38,6.49a.35.35,0,0,1-.17.48A.46.46,0,0,1,16.79,19.35Z" fill="#3f3d39"/>
                <path d="M13.91,12.55a.47.47,0,0,1-.56.33.44.44,0,0,1-.35-.53.46.46,0,0,1,.55-.33A.45.45,0,0,1,13.91,12.55Z" fill="#827c6c"/>
              </g>
            </g>
          </g>
        </g>
      </g>
    </g>
  </g>
</svg>
