<svg xmlns="http://www.w3.org/2000/svg" width="41.37" height="34.92" viewBox="0 0 41.37 34.92">
  <g id="Layer_2" data-name="Layer 2">
    <g id="Layer_3" data-name="Layer 3">
      <g id="dog_food_3" data-name="dog_food 3">
        <g>
          <path d="M40.41,25.13h0a1.41,1.41,0,0,1,0,.28c0,1.21-1,2.34-2.92,3.31-3.45,1.79-9.65,3-16.76,3.09-11,.12-19.93-2.56-20-6L.8,28.76S3.33,35,22.52,34.12c8.22-.36,12.73-1.59,15.19-2.78,2.69-1.3,2.95-2.54,2.95-2.54Z" fill="#e57225"/>
          <path d="M40.41,25.13h0a1.41,1.41,0,0,1,0,.28c0,1.21-1,2.34-2.92,3.31-3.45,1.79-9.65,3-16.76,3.09-11,.12-19.93-2.56-20-6L.8,28.76S3.33,35,22.52,34.12c8.22-.36,12.73-1.59,15.19-2.78,2.69-1.3,2.95-2.54,2.95-2.54Z" fill="none" stroke="#e57225" stroke-linecap="round" stroke-linejoin="round" stroke-width="1.43"/>
          <g>
            <path d="M20,26.24c1.4.54,1.93-1.18,1.93-1.18l14.32-.67a2.4,2.4,0,0,0-.66,1.19l4.79-.45c-.57-3.28-9.34-5.8-20-5.69A50.76,50.76,0,0,0,7.22,21.15l11.7,3.53S18.61,25.71,20,26.24Z" fill="#ffaa5a"/>
            <path d="M40.39,25.13l-4.79.45a2.4,2.4,0,0,1,.66-1.19l-14.32.67s-.53,1.72-1.93,1.18-1.09-1.56-1.09-1.56L7.22,21.15C3.18,22.33.66,24,.72,25.84c.09,3.41,9.06,6.09,20,6,7.11-.07,13.31-1.3,16.76-3.09,1.88-1,3-2.1,2.92-3.31A1.41,1.41,0,0,0,40.39,25.13Z" fill="#ff8d3d"/>
          </g>
          <path d="M40.39,25.13c-.57-3.28-9.34-5.8-20-5.69A50.76,50.76,0,0,0,7.22,21.15C3.18,22.33.66,24,.72,25.84c.09,3.41,9.06,6.09,20,6,7.11-.07,13.31-1.3,16.76-3.09,1.88-1,3-2.1,2.92-3.31A1.41,1.41,0,0,0,40.39,25.13Z" fill="none" stroke="#e57225" stroke-miterlimit="10" stroke-width="1.43"/>
        </g>
        <g>
          <g>
            <g>
              <path d="M36.31,9.64a4.1,4.1,0,0,0-1.89-2.8c-1.85-1-5.72-2.28-13.74-2.24S8.68,5.82,6.87,6.88A4.06,4.06,0,0,0,5.06,9.63L2.38,22.57a2,2,0,0,0,1.08,2.21,37.49,37.49,0,0,0,17.22,3.16c8.79-.27,10.76-.41,17.23-3.16A2,2,0,0,0,39,22.57Z" fill="#5576b4"/>
              <ellipse cx="20.64" cy="9.14" rx="14.43" ry="3.65" fill="#3f434c"/>
              <path d="M33,11s-.67-1.33-1.18-1.4a3.52,3.52,0,0,0-1.34.31,14.21,14.21,0,0,0-1.57-3c.18-.35.3-.67.22-.79A16.93,16.93,0,0,0,27.52,4.1a.89.89,0,0,0-.68,0c0-.35-.13-.8-.17-1.21-.06-.6-.67-.77-1.55-.92-.62-.11-1.33.69-1.69,1.18h0c-.05-.38-.17-.76-.44-.85a11.84,11.84,0,0,0-2.41-.32,1.51,1.51,0,0,0-1.08.65c-.36-.36-.8-.78-.91-.93s-1.23-.27-1.64-.1c-.19.08-.3.68-.37,1.32a4,4,0,0,0-2.35-.6c-1,.32-2.23,1.9-2.08,2.22a3.87,3.87,0,0,0,.63.77,14.84,14.84,0,0,0-1.26,1,2.7,2.7,0,0,0-2.4.27,2,2,0,0,0-.58,2,5.74,5.74,0,0,0,0,1.27,6.6,6.6,0,0,1-.77,1c.41.18,3.4,1.88,12.84,2a42,42,0,0,0,9.8-1h0A14.46,14.46,0,0,0,33,11Z" fill="#8f603f"/>
              <path d="M17.31,4.23s-.76,1-.6,1.26a6.17,6.17,0,0,0,2.77.81c.26-.19.92-1.28.69-1.6S17.91,3.63,17.31,4.23Z" fill="#a36e4a"/>
              <path d="M21.63,7.13a.44.44,0,0,0-.54.06c-.45.4-1.27,1.24-1,1.66a5.1,5.1,0,0,0,2.37,1.37c.32,0,1.05-1.81.89-2A14.81,14.81,0,0,0,21.63,7.13Z" fill="#a36e4a"/>
              <path d="M15.47,7.44a.34.34,0,0,0-.39.08c-.4.36-1.32,1.28-1,1.89a2.63,2.63,0,0,0,1.66,1.21c.33.06,1.13-1.62,1.23-2.13S15.94,7.62,15.47,7.44Z" fill="#a36e4a"/>
              <path d="M23.52,4.81a.31.31,0,0,0-.35-.11c-.32.11-.9.36-.88.61s.78,1.86,1.15,1.75.87-.68.84-1A4.74,4.74,0,0,0,23.52,4.81Z" fill="#a36e4a"/>
            </g>
            <g>
              <path d="M15.72,23.93s-.25-2,1.08-2.47a11.56,11.56,0,0,0,2.88-1.25,1.88,1.88,0,0,1,2.18.22c.36.59.29,1.47.79,2.72s.66,2.07-.6,2.56-2.31-1.47-3.38-1.51S16.48,25,15.72,23.93Z" fill="#f1f2f2"/>
              <path d="M24,22.64A1,1,0,0,1,23,21.41a.58.58,0,0,1,.24-.41c.47-.31,1.53-1.23,2.25-.47S25.11,22.73,24,22.64Z" fill="#f1f2f2"/>
              <path d="M20.09,18.83a1,1,0,0,1-1.58-.28.58.58,0,0,1-.08-.44c.14-.55.33-1.94,1.38-1.85C20.64,16.34,21,18.11,20.09,18.83Z" fill="#f1f2f2"/>
              <path d="M17.67,19.86a1,1,0,0,1-1.49.42.59.59,0,0,1-.25-.35c-.1-.53-.53-1.82.42-2.17C17.11,17.47,18.13,18.87,17.67,19.86Z" fill="#f1f2f2"/>
              <path d="M22.58,19.67a1,1,0,0,1-1-.62c-.36-.71,1.07-2.55,2-1.69S23.14,19.62,22.58,19.67Z" fill="#f1f2f2"/>
            </g>
          </g>
          <path d="M17.76,1.43c.37,0,.72.06.82.22s.55.57.91.93a1.58,1.58,0,0,1,1.05-.65h0A11.84,11.84,0,0,1,23,2.25c.27.09.39.47.44.85h0c.34-.46,1-1.19,1.58-1.19h.11c.88.15,1.49.32,1.55.92,0,.41.15.86.17,1.21a1.63,1.63,0,0,1,.36,0,.53.53,0,0,1,.32.09,5.83,5.83,0,0,1,.78,1,17.43,17.43,0,0,1,6.12,1.79,4.1,4.1,0,0,1,1.89,2.8L39,22.57a2,2,0,0,1-1.08,2.21c-6.47,2.75-8.44,2.89-17.23,3.16l-1.54,0A36.59,36.59,0,0,1,3.46,24.78a2,2,0,0,1-1.08-2.21L5.06,9.63A4.06,4.06,0,0,1,6.87,6.88a16.48,16.48,0,0,1,5.76-1.76,3.64,3.64,0,0,1-.49-.63c-.15-.32,1.11-1.9,2.08-2.22a1,1,0,0,1,.31,0,5.53,5.53,0,0,1,2,.65c.07-.64.18-1.24.37-1.32a2.63,2.63,0,0,1,.82-.12m0-1.43h0A3.81,3.81,0,0,0,16.4.23a1.64,1.64,0,0,0-.81.72A4.27,4.27,0,0,0,14.54.8a2.35,2.35,0,0,0-.77.11,5.87,5.87,0,0,0-2.9,2.75,1.82,1.82,0,0,0-.12.35,15.7,15.7,0,0,0-4.6,1.64A5.49,5.49,0,0,0,3.66,9.34L1,22.28a3.39,3.39,0,0,0,1.87,3.79,38.25,38.25,0,0,0,16.29,3.32l1.59,0c8.92-.27,11-.42,17.74-3.27a3.37,3.37,0,0,0,1.92-3.81L37.71,9.35a5.57,5.57,0,0,0-2.58-3.76,18.51,18.51,0,0,0-6-1.87A4.4,4.4,0,0,0,28.41,3a1.65,1.65,0,0,0-.31-.2V2.71C27.92,1,26.13.65,25.36.52a2,2,0,0,0-.35,0A2.56,2.56,0,0,0,23.59,1L23.42.89A13.63,13.63,0,0,0,20.64.5h-.1a2.13,2.13,0,0,0-.89.19A2.38,2.38,0,0,0,17.76,0Z" fill="#335394"/>
        </g>
      </g>
    </g>
  </g>
</svg>
