<svg xmlns="http://www.w3.org/2000/svg" viewBox="0 0 93.36 138.32"><g style="isolation:isolate"><g id="Layer_2" data-name="Layer 2"><g id="Layer_1-2" data-name="Layer 1"><g id="Props"><g id="na_potted_plant_1" data-name="na_potted plant 1"><path d="M26.22,72.26H60.46A5.51,5.51,0,0,1,66,77.77v36.54a22.63,22.63,0,0,1-22.63,22.63h0a22.63,22.63,0,0,1-22.63-22.63V77.77A5.51,5.51,0,0,1,26.22,72.26Z" fill="#e57225"/><path d="M23.73,119.68c1.74-.32,3.37,1.86,1,2.84S22,120,23.73,119.68Z" fill="#fff"/><path d="M29.17,121.43c2-.22,3.49,2.18,1.2,2.29S27.21,121.65,29.17,121.43Z" fill="#fff"/><path d="M37.56,121.1c2.4-.43,3.92,3.6,1.2,3.7S35.17,121.54,37.56,121.1Z" fill="#fff"/><path d="M45.41,123.61s-1.42-1.86.65-2,3.7,1.74,1.63,2.28S45.41,123.61,45.41,123.61Z" fill="#fff"/><path d="M53.69,122c1.52-.76,5.66.87,3.16,2.18S52.16,122.73,53.69,122Z" fill="#fff"/><path d="M63,121.32c1.74,0,2.83,3.05-.22,3.27S60.55,121.32,63,121.32Z" fill="#fff"/><path d="M26.34,92.45c2.94-.22,3.71,2.94.76,3.38S23.4,92.67,26.34,92.45Z" fill="#fff"/><path d="M34.73,92.45c2.94-.11,4.25,2.94,1.53,3S31.79,92.56,34.73,92.45Z" fill="#fff"/><path d="M44,93.1c2.62.22,2.94,3.71.22,3.27S41.38,92.88,44,93.1Z" fill="#fff"/><path d="M51.73,95.06s-.44-1.41,1.63-1.41S57,94.74,55.1,95.94,51.73,95.06,51.73,95.06Z" fill="#fff"/><path d="M60.66,95.28s.11-2.07,1.85-2,3.7,2.94.44,2.94S60.66,95.28,60.66,95.28Z" fill="#fff"/><path d="M21.36,82.44l-.65-.27v1.76l1.59.71a15.08,15.08,0,0,0,3.51,1.11,16.65,16.65,0,0,0,3.73.19c2.47-.12,4.91-.64,7.37-1a25.77,25.77,0,0,1,3.73-.24,17.81,17.81,0,0,1,3.63.49,47.93,47.93,0,0,0,7.66,1.64,22.75,22.75,0,0,0,7.76-1.13c2.11-.63,4.17-1.4,6.28-2V82c-1.43.41-2.85.88-4.22,1.33a32.49,32.49,0,0,1-7.56,1.84,14.73,14.73,0,0,1-3.75-.15c-1.25-.21-2.48-.55-3.7-.88a24.11,24.11,0,0,0-7.54-1c-2.48.13-4.92.64-7.39,1a16.69,16.69,0,0,1-7.14-.29A32.86,32.86,0,0,1,21.36,82.44Z" fill="#fff"/><path d="M61.75,130.22a33,33,0,0,1-7.56,1.84,15.2,15.2,0,0,1-3.75-.15c-1.25-.22-2.48-.55-3.7-.88A24.11,24.11,0,0,0,39.2,130c-2.48.13-4.92.65-7.39,1a17.19,17.19,0,0,1-7-.25,17.69,17.69,0,0,0,2,2,17.5,17.5,0,0,0,2.71.06c2.47-.13,4.91-.64,7.37-.95a24.43,24.43,0,0,1,3.73-.24,17.14,17.14,0,0,1,3.63.49,46.84,46.84,0,0,0,7.66,1.63,22.51,22.51,0,0,0,7.76-1.13l.48-.15A17.32,17.32,0,0,0,62.42,130Z" fill="#fff"/><path d="M59.22,126.78a30.2,30.2,0,0,1-7-.7,22.87,22.87,0,0,0-6.8-.39c-2.31.31-4.51,1.12-6.8,1.53-4.65.81-9.1-1-13.64-1.64a20.29,20.29,0,0,0-3.2-.15c.1.26.2.52.31.78h.72c4.64.14,9,2.16,13.71,2a33.06,33.06,0,0,0,6.81-1.32,18,18,0,0,1,3.57-.54,20,20,0,0,1,3.46.22c2.32.33,4.61.87,6.95,1a17.89,17.89,0,0,0,6.79-1.09l.47-.17c.14-.33.27-.67.4-1A21.54,21.54,0,0,1,59.22,126.78Z" fill="#fff"/><path d="M59.09,88.88a27.37,27.37,0,0,1-7.15.78,47.51,47.51,0,0,1-6.79-1.28,25.33,25.33,0,0,0-6.84-.52c-2.33.15-4.65.51-7,.69a26.2,26.2,0,0,1-7-.35c-1.23-.23-2.45-.52-3.66-.82v.84c.84.21,1.69.41,2.54.59a26.67,26.67,0,0,0,6.84.63c2.34-.1,4.65-.46,7-.66A25.35,25.35,0,0,1,44,89c2.24.42,4.43,1.07,6.7,1.37a22.62,22.62,0,0,0,7-.38c2.75-.51,5.49-1.08,8.23-1.65v-.87Z" fill="#fff"/><ellipse cx="43.16" cy="74.87" rx="22.18" ry="5.72" fill="#e57225"/><ellipse cx="43.16" cy="74.15" rx="21.18" ry="3.63" fill="#451724"/><path d="M41.81,75.24a5.56,5.56,0,0,1,.13-1.57c.1-.53.2-1,.31-1.57.24-1,.52-2.07.82-3.1a57.87,57.87,0,0,1,2.17-6A38.23,38.23,0,0,1,52.1,52a19.83,19.83,0,0,1,5.28-4.17A15.17,15.17,0,0,1,64.07,46a12.28,12.28,0,0,1,6.85,1.8,17.26,17.26,0,0,1,4.91,4.87,30.72,30.72,0,0,1,3.06,5.91,47.81,47.81,0,0,1,2,6.2,82.34,82.34,0,0,1,2.18,12.69,103.29,103.29,0,0,1,.48,12.8c-.06,2.13-.17,4.26-.39,6.38a27.8,27.8,0,0,1-1.2,6.27,17.62,17.62,0,0,0,.32-3.15c0-1.05.05-2.11,0-3.16,0-2.11-.1-4.21-.26-6.31Q81.69,84,80.75,77.76a94.23,94.23,0,0,0-2.61-12.23,48.9,48.9,0,0,0-2-5.83,27.56,27.56,0,0,0-2.82-5.32,14.11,14.11,0,0,0-4-4.06,9.59,9.59,0,0,0-5.24-1.45,12.15,12.15,0,0,0-5.51,1.29,19,19,0,0,0-4.8,3.45,40.9,40.9,0,0,0-7.21,10c-1,1.84-1.89,3.74-2.72,5.68-.42,1-.8,1.95-1.17,2.94-.18.49-.36,1-.52,1.49A5.25,5.25,0,0,0,41.81,75.24Z" fill="#0e653d"/><path d="M81.21,44.66a31.37,31.37,0,0,0-4.38-10.24,17.15,17.15,0,0,0-8.21-6.74,18.69,18.69,0,0,0-10.54-.37,30.58,30.58,0,0,0-5.15,1.63,18.58,18.58,0,0,0-4.5,2.78,21.26,21.26,0,0,0-6.07,8.66A39.7,39.7,0,0,0,39.83,51a74.11,74.11,0,0,0-.28,11.16,99,99,0,0,0,1.14,11.22,65.46,65.46,0,0,1-2.41-11.11,62.35,62.35,0,0,1-.45-11.44A39,39,0,0,1,40.1,39.49a23.17,23.17,0,0,1,6.72-9.72A20.79,20.79,0,0,1,52,26.68,27.77,27.77,0,0,1,57.6,25a20.06,20.06,0,0,1,11.73.89,17.84,17.84,0,0,1,8.52,7.9A27.92,27.92,0,0,1,81.21,44.66Z" fill="#0e653d"/><path d="M15.41,41.46a56.29,56.29,0,0,1,7.09-5.67,43.47,43.47,0,0,1,8.05-4.39,22,22,0,0,1,4.52-1.34,13.18,13.18,0,0,1,4.93,0,8.56,8.56,0,0,1,2.43.92,7.24,7.24,0,0,1,2.06,1.71A14.22,14.22,0,0,1,46.85,37c2,6,2.23,12.17,2.24,18.22a112.54,112.54,0,0,1-1.58,18.06c0-6-.09-12-.4-18-.19-3-.38-6-.79-8.89a41,41,0,0,0-1.86-8.52,12.1,12.1,0,0,0-1.87-3.59,5,5,0,0,0-1.37-1.18,7.11,7.11,0,0,0-1.76-.7c-2.55-.64-5.48,0-8.23.86a50.57,50.57,0,0,0-8.09,3.6C20.5,38.25,17.94,39.81,15.41,41.46Z" fill="#0e653d"/><path d="M14.9,87a117.18,117.18,0,0,1,4.68-16,76.21,76.21,0,0,1,3.3-7.74A38.4,38.4,0,0,1,27.38,56a15.89,15.89,0,0,1,3.24-3.09,7.29,7.29,0,0,1,4.65-1.45,7.62,7.62,0,0,1,4.46,2,10.93,10.93,0,0,1,2.64,3.79,17.59,17.59,0,0,1,1.28,4.23,26.89,26.89,0,0,1,.44,4.27,32.06,32.06,0,0,1-.86,8.41c-.24-2.8-.5-5.55-.95-8.24a29.6,29.6,0,0,0-2.16-7.63,10.1,10.1,0,0,0-2.09-3,4.91,4.91,0,0,0-2.93-1.44,5.15,5.15,0,0,0-3.17,1A13.9,13.9,0,0,0,29.1,57.4c-3.42,4.08-5.87,9.12-8.15,14.12S16.73,81.75,14.9,87Z" fill="#0e653d"/><path d="M72.44,50.89l8.65-6.4-.08.2a29,29,0,0,0-4.68-11.41A18.27,18.27,0,0,0,72,29a14.86,14.86,0,0,0-5.55-2.36,19.23,19.23,0,0,0-6.06-.2,32.23,32.23,0,0,0-6,1.43,19,19,0,0,0-9.53,7.08.86.86,0,0,1-1.19.2.92.92,0,0,1-.22-.22v0a7.65,7.65,0,0,0-1.16-1.4,5.77,5.77,0,0,0-1.49-.93,8.34,8.34,0,0,0-3.6-.62,21,21,0,0,0-7.52,1.94,51.06,51.06,0,0,0-7,3.81,71.5,71.5,0,0,0-6.53,4.68l.08-1.7c4.71,4.6,9.45,9.17,14.13,13.81a1.28,1.28,0,0,1,0,1.81h0a31.35,31.35,0,0,0-4.81,6.86,74,74,0,0,0-3.69,7.79c-1.11,2.67-2.12,5.39-3,8.14s-1.8,5.52-2.56,8.29l-1.91-1.62,5.8-2.65a1.4,1.4,0,0,1,1.85.69,1.47,1.47,0,0,1,.13.57v0l.06,20.8v9.1c0,.41,0,.82,0,1.22a21.53,21.53,0,0,0,2.7,9.25,1.48,1.48,0,0,1-.56,2,1.39,1.39,0,0,1-.76.19h-.05l-1.76,0,1.34-2,.28.72-1.37-.9a21.06,21.06,0,0,1,2.25.12,1.37,1.37,0,0,1,1.07.64l0,0a21.63,21.63,0,0,0,3.82,4.56h0a1.45,1.45,0,0,1-1,2.52,14.45,14.45,0,0,1-3.82-.55l1.51-2.3a16.41,16.41,0,0,0,1.85,1.88l-.79-.34a15.38,15.38,0,0,0,3.11,0,1.3,1.3,0,0,1,.91.24l0,0a21.27,21.27,0,0,0,23.48.87h0a1.34,1.34,0,0,1,.53-.18,30.09,30.09,0,0,0,4.75-1.08l-.5.28a16,16,0,0,0,2.09-2.26l1.46,2.05c-1.36.45-2.79.86-4.18,1.29a1.3,1.3,0,0,1-1.24-2.21l0,0A21.15,21.15,0,0,0,61,126.37a1.31,1.31,0,0,1,.7-.51h.05l1.21-.34c.4-.12.8-.23,1.22-.38l-.76.7.37-.93,1.64,1.63-2.35.78a1.26,1.26,0,0,1-1.59-.8,1.24,1.24,0,0,1,.1-1l0-.08.88-1.58,0,0a1.33,1.33,0,0,1,.69-.59c.19-.07.22-.13.22-.11a.29.29,0,0,0,0-.21l0,0a1.22,1.22,0,0,1,0-.92,21.46,21.46,0,0,0,1.47-7.08l.07-7.64L65,91.87v0a1,1,0,0,1,1-1,.93.93,0,0,1,.55.18l15.94,11.18-1.22.41a17.92,17.92,0,0,0,.56-3.16c.12-1.11.2-2.22.26-3.34.12-2.23.15-4.48.12-6.72A118.69,118.69,0,0,0,81.26,76a79.35,79.35,0,0,0-2.69-13.21,43.1,43.1,0,0,0-2.4-6.29A22.43,22.43,0,0,0,72.44,50.89Zm0,0a22.61,22.61,0,0,1,4,5.48,42,42,0,0,1,2.66,6.26,81.18,81.18,0,0,1,3.09,13.23A123.1,123.1,0,0,1,83.47,89.4c.09,2.27.12,4.55.07,6.82,0,1.14-.1,2.29-.2,3.43a19.46,19.46,0,0,1-.57,3.5.78.78,0,0,1-1,.54.62.62,0,0,1-.22-.1l0,0L65.42,92.67l1.52-.8.14,15.35.06,7.7a24,24,0,0,1-1.5,7.9l0-1a2.76,2.76,0,0,1,.07,2.26,2.59,2.59,0,0,1-.74,1,3.26,3.26,0,0,1-.92.51l.7-.62-1,1.77-1.45-1.88,2.21-.74.06,0a1.26,1.26,0,0,1,1.58,1.65l-.42,1.09a1.17,1.17,0,0,1-.69.67l-.07,0c-.41.16-.87.28-1.31.41l-1.34.39.75-.52a24.2,24.2,0,0,1-3.9,4.43L58,130c1.35-.42,2.68-.82,4-1.27a1.32,1.32,0,0,1,1.48,2h0a19.46,19.46,0,0,1-2.41,2.64,1.38,1.38,0,0,1-.48.28h0a32.3,32.3,0,0,1-5.18,1.21l.53-.19a24,24,0,0,1-26.54-.84l.93.26a18.93,18.93,0,0,1-3.61,0,1.44,1.44,0,0,1-.78-.33h0a19.87,19.87,0,0,1-2.19-2.21,1.43,1.43,0,0,1,1.49-2.3h0a11.77,11.77,0,0,0,3.06.42l-1,2.52a24.26,24.26,0,0,1-4.37-5.16l1.09.68c-.64,0-1.28-.11-1.92-.09h0a1.45,1.45,0,0,1-1.37-.9l-.33-.85v0a1.43,1.43,0,0,1,.8-1.85,1.21,1.21,0,0,1,.56-.1l2,0-1.37,2.21a23.75,23.75,0,0,1-3.11-10.54c0-.46,0-.93,0-1.39v-9.1l.06-20.8,2,1.27-5.81,2.62h0a1.38,1.38,0,0,1-1.82-.69,1.34,1.34,0,0,1-.07-.94c.8-2.87,1.7-5.66,2.66-8.45s2-5.56,3.15-8.28a78,78,0,0,1,3.86-8,33.67,33.67,0,0,1,5.3-7.41v1.82c-4.68-4.64-9.29-9.33-13.93-14l0,0a1.12,1.12,0,0,1,0-1.58.43.43,0,0,1,.1-.09,73.1,73.1,0,0,1,6.84-4.73A54.05,54.05,0,0,1,28.94,32a22.79,22.79,0,0,1,8.27-2,10.11,10.11,0,0,1,4.37.85,7.18,7.18,0,0,1,1.94,1.28A9.06,9.06,0,0,1,44.94,34l-1.42,0A20.72,20.72,0,0,1,54,26.42a32.78,32.78,0,0,1,6.28-1.32,20.27,20.27,0,0,1,6.45.4,15.89,15.89,0,0,1,5.86,2.69A19.24,19.24,0,0,1,77,32.83a27,27,0,0,1,2.87,5.67,29.54,29.54,0,0,1,1.58,6.13.21.21,0,0,1-.09.2Z" fill="#0e653d"/><path d="M77.86,28.1c.42-2.07,3.79-1.26,6.55-.22-1.26-3.91-3.51-7-6.11-7.9-7.07-2.56-12,4-12,4-7.48-1.79-12.2.88-14.13,4.51,1.87-1.32,3.94-2.33,4.76-1.11,1.26,1.89-3.47,4.76-5.71,6a7.14,7.14,0,0,0,.7,2.4c1.16,2.33,3.56,3.46,6.3,4,.19-2.5,1-7.05,4.48-7.35,4.31-.38-1,3.7-1.44,7.8,3,.28,6,.21,8.07.53a9.15,9.15,0,0,1,4,2c.42-1.52,1.09-2.9,2.14-2.48s.85,2.76.31,4.76A34,34,0,0,1,79,49.14c5.41-4.17,7-10.82,6.36-16.75C82.2,31.81,77.37,30.51,77.86,28.1ZM69.32,38.84c-2.58.1-.12-5.83,1.79-4.83S71.91,38.75,69.32,38.84ZM72,22.61c.43-3,9-.94,8.33.76S71.55,25.56,72,22.61Zm10.83,19c-1.29,1.54-4.76-2.44-3.08-2.59S84.1,40,82.81,41.56ZM77.73,34c2-2,7.43.39,6.17,2.32S75.69,36,77.73,34Z" fill="#3b783a"/><path d="M85.37,32.39c-3.17-.58-8-1.88-7.51-4.29.42-2.07,3.79-1.26,6.55-.22-1.26-3.91-3.51-7-6.11-7.9-7.07-2.56-12,4-12,4l-.08,0c5.28,2.87,13,9.72,12.83,25.22C84.42,45,86,38.32,85.37,32.39Zm-2.56,9.17c-1.29,1.54-4.76-2.44-3.08-2.59S84.1,40,82.81,41.56ZM72,22.61c.43-3,9-.94,8.33.76S71.55,25.56,72,22.61ZM77.73,34c2-2,7.43.39,6.17,2.32S75.69,36,77.73,34Z" fill="#3b783a" opacity="0.3" style="mix-blend-mode:multiply"/><path d="M28.39,33.61s1.79-3.58-.9-6.26c-1.52-1.53-6.15-2.64-11.25-1.3a4.58,4.58,0,0,1,2.15,2c.78,2.27-2.42,2.34-3.83.32a4.52,4.52,0,0,0-1.36-1.25A20.08,20.08,0,0,0,5,34.32l-.17.26c3.25-.94,6.56-.38,7.82.83,2,1.88-2.65,1.25-6.08,1.56a10.37,10.37,0,0,0-3.59,1.17,20.88,20.88,0,0,0-1.42,7.54c.88-.68,1.91-1.24,2.28-.44.54,1.14-1.28,2.61-2.14,3.22a29.3,29.3,0,0,0,2.94,10l2.14-1.61s.81-.08,3.55-.13a2.83,2.83,0,0,0,.61-2.68c-.55-2.88-2.34-5.77-.16-5.53s3.81,5,2.76,8.17h2.37A15.61,15.61,0,0,0,23.54,54c-.77-1.94-2.06-5.8-.32-6.15,1.45-.29,2.36,2.35,2.84,4.4,4.71-3.63,8.71-8.87,9.13-13.14C35.9,31.82,28.39,33.61,28.39,33.61ZM3.88,52.88c-1.72-.23,2-4.13,2.65-3S5.6,53.12,3.88,52.88Zm14.27-2.65c-2.73-.15-3.12-6-.93-6.86S20.88,50.39,18.15,50.23Zm10-3.35c-1.71.31-4.6-4.92-2.49-5.23S29.85,46.57,28.13,46.88Zm5.62-9.05c-1.33,1.72-7.25,1.41-6.47-.62S35.07,36.12,33.75,37.83Z" fill="#3b783a"/><path d="M28.68,33.55a43.59,43.59,0,0,0-15.29,8.57,29.66,29.66,0,0,0-8.9,16.14l.11.21,2.14-1.61s.81-.08,3.55-.13a2.83,2.83,0,0,0,.61-2.68c-.55-2.88-2.34-5.77-.16-5.53s3.81,5,2.76,8.17h2.37A15.61,15.61,0,0,0,23.54,54c-.77-1.94-2.06-5.8-.32-6.15,1.45-.29,2.36,2.35,2.84,4.4,4.71-3.63,8.71-8.87,9.13-13.14C35.82,32.68,30.05,33.31,28.68,33.55ZM18.15,50.23c-2.73-.15-3.12-6-.93-6.86S20.88,50.39,18.15,50.23Zm10-3.35c-1.71.31-4.6-4.92-2.49-5.23S29.85,46.57,28.13,46.88Zm5.62-9.05c-1.33,1.72-7.25,1.41-6.47-.62S35.07,36.12,33.75,37.83Z" fill="#3b783a" opacity="0.3" style="mix-blend-mode:multiply"/><path d="M61.16,13a6.38,6.38,0,0,0-2.5-1.14c-2.9-.58-9.29.72-8.42-2,.61-1.95,6.09-2.81,9.92-1.6a5.5,5.5,0,0,0-2.47-2.94C52.86,3,45.73,9,45.73,9S46.82,3.3,44,2.14C41.9,1.27,29.37-.71,27.37,12.62c-.86,5.72,1.45,10.62,4.36,14.34.84-1.86,2.43-4.48,4.71-4.2,2.76.35-1.12,3.51-3,6.18a35.21,35.21,0,0,0,7.1,5.83l1.83-3.83a26.09,26.09,0,0,0,4.93-1,18.23,18.23,0,0,0-1.41-4.44C44.72,23.34,41.52,20,43.55,20s5.22,3.82,6.42,9.07A30,30,0,0,0,56,25.94C59.83,23.38,61.4,17.78,61.16,13Zm-29.23,6c-1.54-2.12,4.23-4.33,5.22-2.41S33.48,21.17,31.93,19.06Zm-2-8.64s-.22-2.4,4.36-3S39.92,11.51,29.9,10.42Zm25.71,9.87c-1.6,2.47-7-1.74-4.5-3.34S57.21,17.82,55.61,20.29Z" fill="#0e653d"/><path d="M61.16,13a6.38,6.38,0,0,0-2.5-1.14c-2.9-.58-9.29.72-8.42-2,.61-1.95,6.09-2.81,9.92-1.6a5.5,5.5,0,0,0-2.47-2.94C52.86,3,45.73,9,45.73,9v0c-7.42,11.53-6.43,21.5-5.52,25.65l.31.19,1.83-3.83a26.09,26.09,0,0,0,4.93-1,18.23,18.23,0,0,0-1.41-4.44C44.72,23.34,41.52,20,43.55,20s5.22,3.82,6.42,9.07A30,30,0,0,0,56,25.94C59.83,23.38,61.4,17.78,61.16,13Zm-5.55,7.28c-1.6,2.47-7-1.74-4.5-3.34S57.21,17.82,55.61,20.29Z" fill="#0e653d" opacity="0.44" style="mix-blend-mode:multiply"/><path d="M32.06,75c-2.87-7.68-8.93-3.72-8.93-3.72s-4.14-5.14-9.06-2a8.45,8.45,0,0,1,4.75,1.3c2.48,2-1.17,2.58-3.77,1.33a7.29,7.29,0,0,0-3.33-.54,18.08,18.08,0,0,0-1.6,2.24A15.16,15.16,0,0,0,8,80.18c1.57-.41,3.29-.53,4.17.45C13.56,82.17,10,83.55,8,84.19c.79,8,5.4,15.23,5.4,15.23l1.26,2.37s0-4.41,2.95-5.58l.23-.1c-1-1.56-2.91-4.79-1.69-5,1.07-.14,2.41,2.33,3.2,4a44.45,44.45,0,0,0,6.62-6,12.6,12.6,0,0,0-2.94-3.31c-2.33-1.66-1-4.19,1.45-3.87,1.22.17,2.62,2.4,3.7,4.57C31.22,82.74,33.34,78.41,32.06,75ZM9.8,89.75c-1.33-.54,1.74-4.18,2.22-3S11.13,90.28,9.8,89.75Zm1.37-13.91c1.15-1.8,6.69-1.63,6-.18S10,77.63,11.17,75.84ZM21.5,89.62c-1.51,1.25-4.75-2.86-3.23-4.11S23,88.37,21.5,89.62Zm7.91-11.75c-1.67,1.37-4.16-3-2.55-3.71S31.07,76.5,29.41,77.87Z" fill="#8eb882"/><path d="M17.65,96.21l.23-.1c-1-1.56-2.91-4.79-1.69-5,1.07-.14,2.41,2.33,3.2,4a44.45,44.45,0,0,0,6.62-6,12.6,12.6,0,0,0-2.94-3.31c-2.33-1.66-1-4.19,1.45-3.87,1.22.17,2.62,2.4,3.7,4.57,3-3.87,5.12-8.2,3.84-11.61-2.87-7.68-8.93-3.72-8.93-3.72l-.19-.21C9.62,83.3,14.7,101.79,14.7,101.79S14.66,97.38,17.65,96.21Zm9.21-22c1.61-.75,4.21,2.34,2.55,3.71S25.25,74.9,26.86,74.16ZM18.27,85.51c1.51-1.25,4.74,2.86,3.23,4.11S16.75,86.76,18.27,85.51Z" fill="#8eb882" opacity="0.55" style="mix-blend-mode:multiply"/><path d="M72.57,71.14A24.21,24.21,0,0,0,67,67.91c-4.67-1.86-4.26-5.86.29-5.26A10.68,10.68,0,0,1,71.85,65a14.16,14.16,0,0,0-3.93-7.24c-5.67-5.05-13.2,1.46-13.2,1.46s-3-8.15-10.17-4.9c-3.21,1.46-5.38,4.33-6.66,8,2.07-1.92,4.83-3.73,7-2.58,3.1,1.61-4,5.15-8.19,7.61a34.25,34.25,0,0,0-.26,3.57c1.13-.7,2.23-1.08,2.69-.31s-1,2.42-2.61,3.68c.09,1.29.23,2.61.44,3.93.58,3.74,2.85,7.11,5.54,9.91.92-2.31,3-6.11,6.56-5.72,4,.43-1.72,4.65-4.41,7.76a48.52,48.52,0,0,0,8.81,6.1l1.87-3.82s1-.39,2.44-1.11c-.93-1.1-2-2.85,0-2.9a3.16,3.16,0,0,1,2.75,1.46,41.82,41.82,0,0,0,4.31-2.76A9.34,9.34,0,0,0,64,85c-1.93-3.4-7.86-5.14-5.31-6.82,2.26-1.49,7.58.7,8.54,7A15.9,15.9,0,0,0,70,81.92,21.41,21.41,0,0,0,72.57,71.14ZM49.16,67.46c-.54,2.14-6.23,3.94-5.37,1.46S49.7,65.32,49.16,67.46ZM46.54,78.62C44,80,42,82.25,40.68,82c-2.91-.67,3.4-10.2,9.23-7.5C53.13,76,49.69,77,46.54,78.62ZM58.1,63c-2.34-.55,2.53-4.82,3.95-3.35S60.45,63.5,58.1,63Zm10.37,12.1c-2,1.24-9.4-2.59-7.7-4.71S70.49,73.81,68.47,75.05Z" fill="#0e653d"/><path d="M53.51,96.25l1.23-2.51c2.65-11.43,1.12-26.76,0-34.58l-.05,0s-3-8.15-10.17-4.9c-3.21,1.46-5.38,4.33-6.66,8,2.07-1.92,4.83-3.73,7-2.58,3.1,1.61-4,5.15-8.19,7.61a34.25,34.25,0,0,0-.26,3.57c1.13-.7,2.23-1.08,2.69-.31s-1,2.42-2.61,3.68c.09,1.29.23,2.61.44,3.93.58,3.74,2.85,7.11,5.54,9.91.92-2.31,3-6.11,6.56-5.72,4,.43-1.72,4.65-4.41,7.76A48.52,48.52,0,0,0,53.51,96.25ZM49.16,67.46c-.54,2.14-6.23,3.94-5.37,1.46S49.7,65.32,49.16,67.46ZM46.54,78.62C44,80,42,82.25,40.68,82c-2.91-.67,3.4-10.2,9.23-7.5C53.13,76,49.69,77,46.54,78.62Z" fill="#0e653d" opacity="0.44" style="mix-blend-mode:multiply"/><path d="M53.9,46.26c1,.2,2,1.3,2.86,2.59a16.65,16.65,0,0,0-.82-6.34c-1.56-.56-3.4-1-4.54-.5-1.86.79-1.42-3.29,2-3.75-5.82-6.67-10.31.08-10.31.08s-5.41-2.14-8.35,4.13a8.51,8.51,0,0,0-.51,1.4c.88-1.43,2.12-2.55,3.75-1.86,3.19,1.35-2.1,2.45-3.72,5.64,1,3.52,4.74,6.32,8.29,8.25,0-1.76.23-5.24,2.73-5.88,2.88-.75-.47,3.55-1.24,6.65a39.44,39.44,0,0,0,5.55,2.23c2.6.76,2.91,4.47,2.91,4.47l.87-2.09A35.9,35.9,0,0,0,56.23,53a11.69,11.69,0,0,0-3.31-3.34C50.64,48.33,51.18,45.71,53.9,46.26ZM39,50.11C36.47,49,40.61,44.3,42.14,46S41.45,51.24,39,50.11Zm8.46-12.35c1.36.33.55,2.29-.87,2.23S46.06,37.43,47.42,37.76Zm.93,19.07c-1.53-.17-.44-3.65.54-3.11S49.87,57,48.35,56.83Zm4.41-3.44c1.2-.54,3.05.71,1.85,1.31S51.56,53.94,52.76,53.39Z" fill="#8eb882"/><path d="M43.12,38.31v0s-5.41-2.14-8.35,4.13a8.51,8.51,0,0,0-.51,1.4c.88-1.43,2.12-2.55,3.75-1.86,3.19,1.35-2.1,2.45-3.72,5.64,1,3.52,4.74,6.32,8.29,8.25,0-1.76.23-5.24,2.73-5.88,2.88-.75-.47,3.55-1.24,6.65a39.44,39.44,0,0,0,5.55,2.23c2.6.76,2.91,4.47,2.91,4.47C53.3,51.76,46.54,42.3,43.12,38.31ZM39,50.11C36.47,49,40.61,44.3,42.14,46S41.45,51.24,39,50.11Zm9.39,6.72c-1.53-.17-.44-3.65.54-3.11S49.87,57,48.35,56.83Z" fill="#8eb882" opacity="0.39" style="mix-blend-mode:multiply"/><path d="M86,102.56c1.6-.79,2.82,1.88,3.56,4.27,1.95-2.88,2.83-6,2.1-8.2-2-6.06-8.92-6-8.92-6-2.7-5.93-7-7.69-10.38-7.09,1.86.56,3.61,1.42,3.22,2.6-.6,1.83-5,.17-7-.69a6,6,0,0,0-1.24,1.72c-.95,2-.46,4.18.58,6.31,1.77-1.17,5.25-3,7.25-.84,2.5,2.69-3,1.28-6,3.1,1.38,2.15,3,4.14,3.85,5.68a7.64,7.64,0,0,1,.75,3.7c1.23-.52,2.51-.78,2.78.14s-1.41,2-3,2.68a29.28,29.28,0,0,1-1.05,4.34c5.61,1.44,10.88-1,14.5-4.47C85.73,107.39,84.08,103.49,86,102.56Zm-11.63-.1c-1.41-1.68,3.84-3.12,4.16-1.33S75.74,104.13,74.32,102.46Zm12.24-6.69c2.2-1.25,5.31,5.52,3.82,6S84.36,97,86.56,95.77Zm-7,17.11c-1.71-.06-.85-4.45.12-3.41S81.24,112.94,79.54,112.88ZM82,105.52c2.39.32,3.61,5.17,1.67,5.33S79.58,105.2,82,105.52Z" fill="#8eb882"/><path d="M87,109.82c-1.26-2.43-2.91-6.33-1-7.26,1.6-.79,2.82,1.88,3.56,4.27,1.95-2.88,2.83-6,2.1-8.2-2-6.06-8.92-6-8.92-6l0-.06c.83,5,.27,13.74-10.17,21.71C78.1,115.73,83.37,113.33,87,109.82Zm-7.45,3.06c-1.71-.06-.85-4.45.12-3.41S81.24,112.94,79.54,112.88Zm7-17.11c2.2-1.25,5.31,5.52,3.82,6S84.36,97,86.56,95.77ZM82,105.52c2.39.32,3.61,5.17,1.67,5.33S79.58,105.2,82,105.52Z" fill="#3b783a" opacity="0.3" style="mix-blend-mode:multiply"/><path d="M10.9,54.05c-.55-2.88-2.34-5.77-.16-5.53s3.81,5,2.76,8.17h2.37A15.61,15.61,0,0,0,23.54,54c-.77-1.94-2.06-5.8-.32-6.15,1.45-.29,2.36,2.35,2.84,4.4,4.71-3.63,8.71-8.87,9.13-13.14a10,10,0,0,0,0-1.2c0-.13,0-.23,0-.35a6.69,6.69,0,0,0-.08-.68c0-.12,0-.23-.08-.35s-.1-.36-.16-.52l-.14-.3a2.82,2.82,0,0,0-.23-.42,2.07,2.07,0,0,0-.17-.24,2.46,2.46,0,0,0-.29-.34,1.7,1.7,0,0,0-.19-.19,2.4,2.4,0,0,0-.37-.28l-.18-.13a3.23,3.23,0,0,0-.49-.25l-.11,0a4.7,4.7,0,0,0-.63-.22l-.12,0-.52-.11-.21,0a3,3,0,0,0-.42,0H30l-.33,0h-.19l-.28,0-.17,0-.2,0-.14,0h0l-.29.06s1.79-3.58-.9-6.26c-1.52-1.53-6.15-2.64-11.25-1.3a4.58,4.58,0,0,1,2.15,2c.78,2.27-2.42,2.34-3.83.32a4.52,4.52,0,0,0-1.36-1.25A20.08,20.08,0,0,0,5,34.32l-.17.26c3.25-.94,6.56-.38,7.82.83,2,1.88-2.65,1.25-6.08,1.56a10.37,10.37,0,0,0-3.59,1.17,20.88,20.88,0,0,0-1.42,7.54c.88-.68,1.91-1.24,2.28-.44.54,1.14-1.28,2.61-2.14,3.22a29.47,29.47,0,0,0,2.83,9.8h0l.11.2,2.14-1.61s.81-.08,3.55-.13A2.83,2.83,0,0,0,10.9,54.05Zm7.25-3.82c-2.73-.15-3.12-6-.93-6.86S20.88,50.39,18.15,50.23Zm10-3.35c-1.71.31-4.6-4.92-2.49-5.23S29.85,46.57,28.13,46.88Zm5.62-9.05c-1.33,1.72-7.25,1.41-6.47-.62S35.07,36.12,33.75,37.83Zm-27.22,12c.63,1.09-.93,3.28-2.65,3S5.91,48.75,6.53,49.84Z" fill="#3b783a" stroke="#02513d" stroke-miterlimit="10" stroke-width="3"/><path d="M36.44,22.76c2.76.35-1.12,3.51-3,6.18a35.94,35.94,0,0,0,6.79,5.64h0l0,0,.18.11,0,0,.06,0,1.83-3.83a23,23,0,0,0,2.94-.47c.6-.13,1.27-.3,2-.51a23.11,23.11,0,0,0-.95-3.41,9.93,9.93,0,0,0-.46-1,25.51,25.51,0,0,0-1.46-2.24l-.32-.46c-.14-.21-.28-.4-.4-.6a4.41,4.41,0,0,1-.8-1.66c0-.35.15-.56.65-.56,1.17,0,2.92,1.49,4.36,3.89A18,18,0,0,1,50,29.07c.78-.3,1.59-.66,2.41-1.05a3.7,3.7,0,0,0-.25.43c1.87-1.32,3.94-2.33,4.76-1.11,1.26,1.89-3.47,4.76-5.71,6a7.14,7.14,0,0,0,.7,2.4c1.16,2.33,3.56,3.46,6.3,4,.19-2.5,1-7.05,4.48-7.35,4.31-.38-1,3.7-1.44,7.8,3,.28,6,.21,8.07.53a9.15,9.15,0,0,1,4,2c.42-1.52,1.09-2.9,2.14-2.48s.85,2.76.31,4.76A34.87,34.87,0,0,1,79,49.14c5.41-4.17,7-10.82,6.36-16.75-3.17-.58-8-1.88-7.51-4.29.42-2.07,3.79-1.26,6.55-.22-1.26-3.91-3.51-7-6.11-7.9-7.07-2.56-12,4-12,4l-.08,0h0a16.24,16.24,0,0,0-7.95-.11A17.12,17.12,0,0,0,61.16,13a7.93,7.93,0,0,0-1.34-.77,5.61,5.61,0,0,0-1.16-.37c-2.9-.58-9.29.72-8.42-2,.23-.73,1.14-1.31,2.4-1.68A12.25,12.25,0,0,1,54,7.85l.74-.1c.51,0,1-.08,1.56-.08a13.36,13.36,0,0,1,3.87.56,5.5,5.5,0,0,0-2.47-2.94C52.86,3,45.73,9,45.73,9v0h0c.06-.34,1-5.66-1.75-6.79C41.9,1.27,29.37-.71,27.37,12.62c-.86,5.72,1.45,10.62,4.36,14.34C32.57,25.1,34.16,22.48,36.44,22.76ZM69.32,38.84c-2.58.1-.12-5.83,1.79-4.83S71.91,38.75,69.32,38.84Zm13.49,2.72c-1.29,1.54-4.76-2.44-3.08-2.59S84.1,40,82.81,41.56Zm1.09-5.29C82.64,38.2,75.69,36,77.73,34S85.16,34.34,83.9,36.27Zm-3.59-12.9c-.67,1.71-8.76,2.19-8.33-.76S81,21.67,80.31,23.37ZM51.11,17a3.24,3.24,0,0,1,2-.5,3.62,3.62,0,0,1,2.16.94,2.58,2.58,0,0,1,.53.71,2.23,2.23,0,0,1,.16.4,2.11,2.11,0,0,1-.08,1.33,2.54,2.54,0,0,1-.24.46C54,22.76,48.64,18.55,51.11,17ZM34.26,7.37c4.57-.66,5.66,4.14-4.36,3.05C29.9,10.42,29.68,8,34.26,7.37Zm2.89,9.28c1,1.91-3.67,4.52-5.22,2.41S36.16,14.73,37.15,16.65Z" fill="#3b783a" stroke="#02513d" stroke-miterlimit="10" stroke-width="3"/><path d="M23.13,71.28l-.06-.07c-.52-.59-4.41-4.86-9-2a8.45,8.45,0,0,1,4.75,1.3c2.48,2-1.17,2.58-3.77,1.33a7.29,7.29,0,0,0-3.33-.54,18.08,18.08,0,0,0-1.6,2.24A15.16,15.16,0,0,0,8,80.18c1.57-.41,3.29-.53,4.17.45C13.56,82.17,10,83.55,8,84.19c.79,8,5.4,15.23,5.4,15.23l1.26,2.37s0-4.41,2.95-5.58l.23-.1c-1-1.56-2.91-4.79-1.69-5,1.07-.14,2.41,2.33,3.2,4a44.45,44.45,0,0,0,6.62-6,12.6,12.6,0,0,0-2.94-3.31c-2.33-1.66-1-4.19,1.45-3.87,1.22.17,2.62,2.4,3.7,4.57,3-3.87,5.12-8.2,3.84-11.61C29.19,67.32,23.13,71.28,23.13,71.28ZM9.8,89.75c-1.33-.54,1.74-4.18,2.22-3S11.13,90.28,9.8,89.75Zm1.37-13.91c1.15-1.8,6.69-1.63,6-.18S10,77.63,11.17,75.84ZM21.5,89.62c-1.51,1.25-4.75-2.86-3.23-4.11S23,88.37,21.5,89.62Zm7.91-11.75c-1.67,1.37-4.16-3-2.55-3.71S31.07,76.5,29.41,77.87Z" fill="#3b783a" stroke="#02513d" stroke-miterlimit="10" stroke-width="3"/><path d="M58.69,78.22c2.26-1.49,7.58.7,8.54,7A15.9,15.9,0,0,0,70,81.92a21.41,21.41,0,0,0,2.56-10.78A24.21,24.21,0,0,0,67,67.91c-4.67-1.86-4.26-5.86.29-5.26A10.68,10.68,0,0,1,71.85,65a14.16,14.16,0,0,0-3.93-7.24c-5.67-5.05-13.2,1.46-13.2,1.46s-.07-.19-.21-.49A36.45,36.45,0,0,0,56.23,53a11.69,11.69,0,0,0-3.31-3.34c-2.28-1.3-1.74-3.92,1-3.37,1,.2,2,1.3,2.86,2.59a16.65,16.65,0,0,0-.82-6.34c-1.56-.56-3.4-1-4.54-.5-1.86.79-1.42-3.29,2-3.75-5.62-6.44-10-.38-10.3.05h0v0s-5.41-2.14-8.35,4.13a8.51,8.51,0,0,0-.51,1.4c.88-1.43,2.12-2.55,3.75-1.86,3.19,1.35-2.1,2.45-3.72,5.64,1,3.42,4.52,6.15,8,8.07a14.37,14.37,0,0,0-4.36,6.58c2.07-1.92,4.83-3.73,7-2.58,3.1,1.61-4,5.15-8.19,7.61a34.25,34.25,0,0,0-.26,3.57c1.13-.7,2.23-1.08,2.69-.31s-1,2.42-2.61,3.68c.09,1.29.23,2.61.44,3.93.58,3.74,2.85,7.11,5.54,9.91.92-2.31,3-6.11,6.56-5.72,4,.43-1.72,4.65-4.41,7.76a48.52,48.52,0,0,0,8.81,6.1l1.87-3.82s1-.39,2.44-1.11c-.93-1.1-2-2.85,0-2.9a3.16,3.16,0,0,1,2.75,1.46,41.82,41.82,0,0,0,4.31-2.76A9.34,9.34,0,0,0,64,85C62.07,81.64,56.14,79.9,58.69,78.22ZM52.76,53.39c1.2-.54,3.05.71,1.85,1.31S51.56,53.94,52.76,53.39ZM47.42,37.76c1.36.33.55,2.29-.87,2.23S46.06,37.43,47.42,37.76ZM39,50.11C36.47,49,40.61,44.3,42.14,46S41.45,51.24,39,50.11Zm3.61,5.38c0-1.85.41-4.88,2.73-5.47,2.12-.55.86,1.64-.26,4.08-.16.06-.32.12-.49.2A11,11,0,0,0,42.57,55.49Zm1.22,13.43c.86-2.48,5.91-3.6,5.37-1.46S42.93,71.4,43.79,68.92Zm2.75,9.7C44,80,42,82.25,40.68,82c-2.91-.67,3.4-10.2,9.23-7.5C53.13,76,49.69,77,46.54,78.62Zm21.93-3.57c-2,1.24-9.4-2.59-7.7-4.71S70.49,73.81,68.47,75.05ZM62.05,59.6c1.43,1.46-1.6,3.9-3.95,3.35S60.63,58.13,62.05,59.6Z" fill="#3b783a" stroke="#02513d" stroke-miterlimit="10" stroke-width="3"/><path d="M91.61,98.63c-2-6.06-8.92-6-8.92-6l0-.06h0c-2.7-5.88-6.93-7.63-10.35-7,1.86.56,3.61,1.42,3.22,2.6-.6,1.83-5,.17-7-.69a6,6,0,0,0-1.24,1.72c-.95,2-.46,4.18.58,6.31,1.77-1.17,5.25-3,7.25-.84,2.5,2.69-3,1.28-6,3.1,1.38,2.15,3,4.14,3.85,5.68a7.64,7.64,0,0,1,.75,3.7c1.23-.52,2.51-.78,2.78.14s-1.41,2-3,2.68a29.28,29.28,0,0,1-1.05,4.34c5.61,1.44,10.88-1,14.5-4.47-1.26-2.43-2.91-6.33-1-7.26,1.6-.79,2.82,1.88,3.56,4.27C91.46,104,92.34,100.85,91.61,98.63Zm-17.29,3.83c-1.41-1.68,3.84-3.12,4.16-1.33S75.74,104.13,74.32,102.46Zm5.22,10.42c-1.71-.06-.85-4.45.12-3.41S81.24,112.94,79.54,112.88Zm4.1-2c-1.94.17-4.06-5.65-1.67-5.33S85.58,110.69,83.64,110.85Zm6.74-9.11c-1.48.44-6-4.71-3.82-6S91.87,101.29,90.38,101.74Z" fill="#3b783a" stroke="#02513d" stroke-miterlimit="10" stroke-width="3"/></g></g></g></g></g></svg>