<svg xmlns="http://www.w3.org/2000/svg" viewBox="0 0 35.7 46"><g style="isolation:isolate"><g id="Layer_2" data-name="Layer 2"><g id="Layer_1-2" data-name="Layer 1"><g id="Props"><g id="fu_kitchen_utensil_cofee_maker" data-name="fu_kitchen utensil_cofee maker"><rect x="3.9" y="28.2" width="20.7" height="14.89" style="fill:#580f08"/><rect x="5.8" y="34.8" width="17.2" height="7.59" rx="0.3" style="fill:#723016"/><g style="mix-blend-mode:multiply"><path d="M22.9,34.8v7.1a.3.3,0,0,1-.3.3H5.8l.3.2H22.7c.2,0,.3-.2.3-.4V35.1C23,35,22.9,34.9,22.9,34.8Z" style="fill:#ccc"/></g><path d="M16.3,38.8a1.8,1.8,0,0,1-1.9,1.9,1.8,1.8,0,0,1-1.5-.7c0-.1-.1-.1-.2-.2a3,3,0,0,1-.2-1,2,2,0,0,1,1.9-1.9l.9.2.3.2A2,2,0,0,1,16.3,38.8Z" style="fill:#55210c"/><path d="M16,38.5a2,2,0,0,1-1.9,1.9,1.6,1.6,0,0,1-1.2-.4c0-.1-.1-.1-.2-.2l1,.2a1.9,1.9,0,0,0,1.9-1.9,1.7,1.7,0,0,0-.3-1l.3.2A2.1,2.1,0,0,1,16,38.5Z" style="fill:#3b1708"/><path d="M14.1,37.8a.6.6,0,0,1-.8.8.6.6,0,0,1,.8-.8Z" style="fill:#672817"/><ellipse cx="14.3" cy="31.6" rx="5.8" ry="2.6" style="fill:#ef9c12"/><path d="M18.8,32.1l.3.6-.8.5-.8.2-.9.3-2.3.2H12.4l-1.8-.5h-.3L10,33l-.6-.3a1.5,1.5,0,0,0,.4-1.1.9.9,0,0,0-.1-.5c0-.2-.1-.3-.3-.5l.9-.5.5-.2,2.5-.5h1l2,.2.9.2h.5l.6.2.8.5a1.5,1.5,0,0,0-.3.7.4.4,0,0,0-.1.3C18.7,31.8,18.8,31.9,18.8,32.1Z" style="fill:#ffc847"/><path d="M9.5,31.6c0,.2-.1.4-.3.4a.4.4,0,0,1-.4-.4.4.4,0,0,1,.4-.3A.3.3,0,0,1,9.5,31.6Z" style="fill:#f5c05d"/><path d="M9.2,31.5a.1.1,0,0,1-.1.1c-.1,0-.2,0-.2-.1s.1-.1.2-.1A.1.1,0,0,1,9.2,31.5Z" style="fill:#ffdb87"/><path d="M19.7,31.6c0,.2-.1.4-.3.4a.4.4,0,0,1-.4-.4.4.4,0,0,1,.4-.3A.3.3,0,0,1,19.7,31.6Z" style="fill:#f5c05d"/><path d="M19.4,31.5a.1.1,0,0,1-.1.1c-.1,0-.2,0-.2-.1s.1-.1.2-.1A.1.1,0,0,1,19.4,31.5Z" style="fill:#ffdb87"/><path d="M27.6,45H1v-.5a1.1,1.1,0,0,1,1.1-1.1H26.5a1.1,1.1,0,0,1,1.1,1.1Z" style="fill:#ba4426"/><path d="M26.2,43.1H2.4a.3.3,0,0,0-.3.3H26.5A.3.3,0,0,0,26.2,43.1Z" style="fill:#9e3a20"/><path d="M27.6,28.2H1v-.5a1.1,1.1,0,0,1,1.1-1.1H26.5a1.1,1.1,0,0,1,1.1,1.1Z" style="fill:#ba4426"/><path d="M2.6,26.1H25.9a.5.5,0,0,1,.5.5v0a0,0,0,0,1,0,0H2.1a0,0,0,0,1,0,0v0A.5.5,0,0,1,2.6,26.1Z" style="fill:#9e3a20"/><path d="M25.9,26.1a.6.6,0,0,1,.6.5h0a1.1,1.1,0,0,1,1.1,1.1v.5h-3V43.1h1.6a.3.3,0,0,1,.3.3h0a1.1,1.1,0,0,1,1.1,1.1V45H1v-.5a1.1,1.1,0,0,1,1.1-1.1h0a.3.3,0,0,1,.3-.3H3.9V28.2H1v-.5a1.1,1.1,0,0,1,1.1-1.1h0a.5.5,0,0,1,.5-.5H25.9m0-1H2.6a1.3,1.3,0,0,0-1.2.6,2.2,2.2,0,0,0-1.4,2v.5a.9.9,0,0,0,1,1H2.9V42.1H2.4a1.3,1.3,0,0,0-.9.4,2,2,0,0,0-1.5,2V45a.9.9,0,0,0,1,1H27.6a1,1,0,0,0,1-1v-.5a2.2,2.2,0,0,0-1.5-2,1.5,1.5,0,0,0-.9-.4h-.6V29.2h2a1,1,0,0,0,1-1v-.5a2.2,2.2,0,0,0-1.4-2,1.5,1.5,0,0,0-1.3-.6Z" style="fill:#6a3417"/><path d="M25.3,13.2H2.7a.6.6,0,0,1-.6-.6h0a.7.7,0,0,1,.6-.7H25.3a.7.7,0,0,1,.7.7h0A.7.7,0,0,1,25.3,13.2Z" style="fill:#e5e5e5"/><path d="M24.2,13.2a2.8,2.8,0,0,1-.1.6H4a2.8,2.8,0,0,1-.1-.6Z" style="fill:#e6e6e6;mix-blend-mode:multiply"/><polygon points="16.2 9 18.7 7 33.1 7 33.1 7.7 18.7 7.7 16.2 9.8 12 9.8 12 9 16.2 9" style="fill:#ced2d3"/><polygon points="18.7 7.6 33.1 7.6 33.1 7.7 18.7 7.7 16.2 9.8 12 9.8 12 9.6 16.2 9.6 18.7 7.6" style="fill:#e5e5e5;mix-blend-mode:multiply"/><path d="M15.4,7.8H12.9c.7,0,.7,1.2,0,1.2h2.5A.6.6,0,0,1,15.4,7.8Z" style="fill:#b8bcbd"/><path d="M15.2,7.8h-.4a.6.6,0,1,0,0,1.2h.4C14.5,9,14.5,7.8,15.2,7.8Z" style="fill:#e5e5e5;mix-blend-mode:multiply"/><path d="M15.4,7.3v.5H12.9V7.3c0-.2.4-.4.9-.4h.6C14.9,6.9,15.4,7.1,15.4,7.3Z" style="fill:#e5e5e5"/><path d="M15.1,7.3v.5h-.5V7.3c0-.1-.2-.3-.6-.4h.7Z" style="fill:#e5e5e5;mix-blend-mode:multiply"/><path d="M32.6,4.9H28.9c.8,0,.8,1.4,0,1.4h3.7C31.8,6.3,31.8,4.9,32.6,4.9Z" style="fill:#480109"/><rect x="28.4" y="6.2" width="4.7" height="0.76" style="fill:#580f08"/><ellipse cx="30.8" cy="3.1" rx="4" ry="2.1" style="fill:#580f08"/><g style="mix-blend-mode:multiply"><path d="M32,5.1c1.1-.4,1.9-1.1,1.9-2S32.5,1,30.8,1h-.5c1.5.2,2.6,1.1,2.6,2.1s-.8,1.6-1.9,2a.7.7,0,0,0,.1,1.1h.5V7h1V6.2h-.5A.7.7,0,0,1,32,5.1Z" style="fill:#ccc"/></g><rect x="12.2" y="9" width="0.7" height="0.73" transform="translate(25.2 18.8) rotate(180)" style="fill:#e5e5e5;mix-blend-mode:multiply"/><rect x="11.8" y="11.2" width="4.7" height="0.78" transform="translate(28.2 23.1) rotate(180)" style="fill:#e5e5e5"/><rect x="12.2" y="11.2" width="0.8" height="0.78" transform="translate(25.3 23.1) rotate(180)" style="fill:#e5e5e5;mix-blend-mode:multiply"/><rect x="13.7" y="9.8" width="1" height="1.38" style="fill:#b8bcbd"/><rect x="14.3" y="9.8" width="0.3" height="1.38" style="fill:#e5e5e5;mix-blend-mode:multiply"/><path d="M24.2,13.2a2.8,2.8,0,0,1-.1.6c-.4,1.9-1.8,8.3-3.7,8.3H7.7c-1.9,0-3.3-6.4-3.7-8.3a2.8,2.8,0,0,1-.1-.6Z" style="fill:#ced2d3"/><path d="M22.4,23.9H5.7v-.2a.7.7,0,0,1,.7-.7H21.7a.7.7,0,0,1,.7.7Z" style="fill:#b2aaaa"/><path d="M21.3,23H6.8v-.5a.4.4,0,0,1,.4-.4H20.9a.4.4,0,0,1,.4.4Z" style="fill:#9b9292"/><path d="M24,25.1H4.6v-.7a.5.5,0,0,1,.5-.5H23.4a.6.6,0,0,1,.6.5Z" style="fill:#e5e5e5"/><g style="mix-blend-mode:multiply"><path d="M14.1,20.9a34.6,34.6,0,0,1-8.2-.8c.5,1.2,1.1,2,1.8,2H20.4c.7,0,1.3-.8,1.9-2A35.7,35.7,0,0,1,14.1,20.9Z" style="fill:#e6e6e6"/></g><path d="M4,13.8a31.3,31.3,0,0,0,1.8,6.3h0c.1.2.2.3.2.4H6l.3.5h.1l.2.3a.1.1,0,0,0,.1.1c.1.1.2.2.2.3H7l.3.2H7.2a.4.4,0,0,0-.4.4V23H6.4a.7.7,0,0,0-.7.7v.2H5.1a.5.5,0,0,0-.5.5v.7H23.9v-.7a.5.5,0,0,0-.5-.5h-1v-.2a.7.7,0,0,0-.7-.7h-.4v-.5a.5.5,0,0,0-.5-.4h0l.3-.2h0l.3-.3h.1l.2-.3h.1c.1-.1.1-.3.2-.4h0a.5.5,0,0,0,.2-.4h0a26.7,26.7,0,0,0,1.9-6.3,2.8,2.8,0,0,0,.1-.6H3.9A2.8,2.8,0,0,0,4,13.8Z" style="fill:#e5e5e5;mix-blend-mode:multiply"/><path d="M30.8,1h.3c2,.1,3.6,1,3.6,2.1s-1,1.6-2.4,2a.6.6,0,0,0,.1,1.1h.7V7h0v.6H18.7L16.2,9.8H14.7v1.4h1.8v.7h8.8a.7.7,0,0,1,.7.7.7.7,0,0,1-.7.6H24.2a2.8,2.8,0,0,1-.1.6,26.7,26.7,0,0,1-1.9,6.3h.1c-.1.2-.2.3-.2.4H22l-.2.4h-.1l-.2.3a.1.1,0,0,1-.1.1l-.3.3h0l-.3.2h.1a.4.4,0,0,1,.4.4V23h.4a.7.7,0,0,1,.7.7v.2h1a.6.6,0,0,1,.6.5v.7H4.6v-.7a.5.5,0,0,1,.5-.5h.6v-.2a.7.7,0,0,1,.7-.7h.4v-.5a.4.4,0,0,1,.4-.4h.1c-.1,0-.1,0-.1-.1H6.9c0-.1-.1-.2-.2-.3a.1.1,0,0,1-.1-.1l-.2-.3H6.3L6,20.5H6c0-.1-.1-.2-.2-.4h0A31.3,31.3,0,0,1,4,13.8a2.8,2.8,0,0,1-.1-.6H2.7a.6.6,0,0,1-.6-.6.7.7,0,0,1,.6-.7h9.1v-.7h1.9V9.8H12V9h.9c.7,0,.7-1.2,0-1.2V7.3c0-.2.4-.4.9-.4h.6c.5,0,1,.2,1,.4v.5h0a.6.6,0,0,0,0,1.2h.8l2.5-2h9.7V6.2h.7a.6.6,0,0,0,.1-1.1c-1.4-.4-2.4-1.1-2.4-2S28.6,1,30.8,1h0m0-1h0c-2.9,0-5,1.3-5,3.1a3,3,0,0,0,1.8,2.5l-.2.4H18.7l-.7.2L16.4,7.6V7.3c0-.6-.5-1.3-1.9-1.4h-.9c-1.2.1-1.7.8-1.7,1.4V8A1.1,1.1,0,0,0,11,9v.8a.7.7,0,0,0,.2.6,1,1,0,0,0-.4.5H2.7a1.7,1.7,0,0,0-1.6,1.7,1.6,1.6,0,0,0,1.6,1.6H3a38.5,38.5,0,0,0,1.9,6.3h0l.3.4.3.5h0l.3.4h.1a1.3,1.3,0,0,0-1,.9,1.4,1.4,0,0,0-1.3,1.4v.7a1,1,0,0,0,1,1H23.9a1.1,1.1,0,0,0,1.1-1v-.7a1.6,1.6,0,0,0-1.6-1.5h-.2a1.4,1.4,0,0,0-1-.8h.1c.1-.1.2-.2.2-.3v-.2l.3-.5.3-.4h0A29.6,29.6,0,0,0,25,14.2h.3A1.7,1.7,0,0,0,27,12.6a1.8,1.8,0,0,0-1.7-1.7H17.4a.9.9,0,0,0-.3-.5L19,8.7H33.1a.9.9,0,0,0,1-1h0V7.1h0V6.2a1.1,1.1,0,0,0-.2-.6,3,3,0,0,0,1.8-2.5c0-1.7-1.9-3-4.6-3.1h-.3Z" style="fill:#314d77"/></g></g></g></g></g></svg>