<svg xmlns="http://www.w3.org/2000/svg" viewBox="0 0 14.7 49.3"><g id="Layer_2" data-name="Layer 2"><g id="Layer_1-2" data-name="Layer 1"><g id="Props"><g id="fu_book_10" data-name="fu_book 10"><g id="fu_book_11" data-name="fu_book 11"><path d="M13,1.5l-1.6-.2a27.5,27.5,0,0,0-8.1,0l-1.6.2a.8.8,0,0,0-.7.8V47a.8.8,0,0,0,.7.8l1.6.2a27.5,27.5,0,0,0,8.1,0l1.6-.2a.8.8,0,0,0,.7-.8V2.3A.8.8,0,0,0,13,1.5Z" style="fill:#ffe76b"/><path d="M10.5,39.6V8.7c-3,2.5-6.3,0-6.3,0V39.6S6.9,36.7,10.5,39.6Z" style="fill:#e8a4d2"/><path d="M9.8,5.8c0,1-1.2,1.9-2.6,1.9S4.6,6.8,4.6,5.8s1.2-2,2.6-2S9.8,4.7,9.8,5.8Z" style="fill:#e8a4d2"/><path d="M9.8,42.3c0,1.1-1.2,1.9-2.6,1.9s-2.6-.8-2.6-1.9,1.2-1.9,2.6-1.9S9.8,41.2,9.8,42.3Z" style="fill:#e8a4d2"/></g><path d="M7.3,1a27.3,27.3,0,0,1,4.1.3l1.6.2a.8.8,0,0,1,.7.8V47a.8.8,0,0,1-.7.8l-1.6.2a27.3,27.3,0,0,1-4.1.3,26.9,26.9,0,0,1-4-.3l-1.6-.2A.8.8,0,0,1,1,47V2.3a.8.8,0,0,1,.7-.8l1.6-.2a26.9,26.9,0,0,1,4-.3m0-1A28.3,28.3,0,0,0,3.2.3L1.6.5A1.8,1.8,0,0,0,0,2.3V47a1.8,1.8,0,0,0,1.6,1.8l1.6.2a28.3,28.3,0,0,0,4.1.3,28.6,28.6,0,0,0,4.2-.3l1.6-.2A1.8,1.8,0,0,0,14.7,47V2.3A1.8,1.8,0,0,0,13.1.5L11.5.3A28.6,28.6,0,0,0,7.3,0Z" style="fill:#f5753c"/></g></g></g></g></svg>