<svg xmlns="http://www.w3.org/2000/svg" viewBox="0 0 76.9 264.4"><g id="Layer_2" data-name="Layer 2"><g id="Layer_1-2" data-name="Layer 1"><g id="Props"><g id="na_hanging_plant_2" data-name="na_hanging plant 2"><path d="M30.2,203.5a5.8,5.8,0,1,1,5.8-5.7A5.8,5.8,0,0,1,30.2,203.5Z" style="fill:#ffeb81"/><path d="M30.2,192.5a5.3,5.3,0,1,1,0,10.5,5.3,5.3,0,0,1,0-10.5m0-1a6.3,6.3,0,1,0,6.3,6.3,6.3,6.3,0,0,0-6.3-6.3Z" style="fill:#ffeb81"/><path d="M18.3,257.8a1.2,1.2,0,0,1-.9-.5,1,1,0,0,1-.1-.9c0-.3.2-.5.5-.7,9.4-5.5,7.4-23.8,5-32.7-2.8-10.6,3.1-22.4,3.4-22.9a1.1,1.1,0,0,1,1-.6h.5a.7.7,0,0,1,.5.6,1.4,1.4,0,0,1,0,.9c-.1.1-5.9,11.5-3.2,21.3s4.5,29.1-6.1,35.3Z" style="fill:#ffeb81"/><path d="M27.2,200h.3a.7.7,0,0,1,.2.9c0,.1-5.9,11.7-3.2,21.6s4.5,28.7-5.8,34.7h-.4a.5.5,0,0,1-.5-.3.5.5,0,0,1,.2-.8c9.7-5.7,7.7-24.3,5.3-33.4s3.1-22,3.3-22.5a.7.7,0,0,1,.6-.3m0-1h0a1.8,1.8,0,0,0-1.5.8c-.2.5-6.3,12.5-3.4,23.3,2.4,8.8,4.4,26.8-4.8,32.2a1.8,1.8,0,0,0-.7,1,1.3,1.3,0,0,0,.2,1.2,1.4,1.4,0,0,0,1.3.8,1.5,1.5,0,0,0,.9-.2c10.8-6.3,9-25.5,6.2-35.9s3.2-20.8,3.2-20.9a1.3,1.3,0,0,0,.1-1.2,1.6,1.6,0,0,0-.8-1Z" style="fill:#ffeb81"/><path d="M28.7,263.9a.8.8,0,0,1-.6-.2,1.1,1.1,0,0,1-.4-1.5c8.5-13.7,4-28.7,1.3-37.7-.2-.9-.5-1.7-.7-2.4-2.6-9.3.4-21.1.6-21.6a1.1,1.1,0,0,1,1-.9h.3c.3.1.6.2.7.5a1,1,0,0,1,.1.9c-.1.4-3,11.8-.5,20.3l.6,2.2v.3c2.8,9.3,7.4,24.9-1.6,39.5A1.2,1.2,0,0,1,28.7,263.9Z" style="fill:#ffeb81"/><path d="M29.9,200.1h.2a.6.6,0,0,1,.4.7c0,.1-3,11.9-.5,20.7.2.7.4,1.5.7,2.4,2.8,9.2,7.4,24.7-1.5,39.1a.5.5,0,0,1-.5.3h-.4a.6.6,0,0,1-.2-.8c8.6-14,4.1-29.1,1.4-38.1-.2-.9-.5-1.7-.7-2.5-2.6-9.1.4-20.8.5-21.3a.7.7,0,0,1,.6-.5m0-1h0a1.6,1.6,0,0,0-1.5,1.3c-.2.5-3.2,12.5-.6,21.8.2.8.5,1.6.7,2.4,2.7,8.9,7.2,23.8-1.2,37.3a1.5,1.5,0,0,0-.2,1.3,1.7,1.7,0,0,0,.7,1l.9.2a1.6,1.6,0,0,0,1.3-.8c9.2-14.7,4.5-30.5,1.7-39.9v-.2c-.2-.8-.5-1.5-.7-2.2-2.3-8.4.5-19.6.6-20.1a1.3,1.3,0,0,0-.2-1.2,1.4,1.4,0,0,0-1-.8Z" style="fill:#ffeb81"/><path d="M43,257.6a1,1,0,0,1-.7-.2c-8.4-6.3-8.2-26.7-6.3-36.2s-4.2-20.2-4.3-20.3a1.1,1.1,0,0,1-.1-.8,1.3,1.3,0,0,1,.6-.7h.5a1.1,1.1,0,0,1,1,.6c.3.5,6.4,12.4,4.5,21.7s-2.1,28.3,5.5,34a1.1,1.1,0,0,1,.2,1.6A1,1,0,0,1,43,257.6Z" style="fill:#ffeb81"/><path d="M32.7,199.8l.6.3c.2.5,6.3,12.3,4.4,21.4s-2.1,28.7,5.7,34.5a.6.6,0,0,1,.1.9c-.1.2-.3.2-.5.2h-.4c-8.2-6.1-8-26.3-6.1-35.7s-4.3-20.5-4.3-20.6a.5.5,0,0,1,.2-.8h.3m0-1a.8.8,0,0,0-.7.2,1.4,1.4,0,0,0-.8.9,1.5,1.5,0,0,0,.1,1.3c0,.1,5.9,11.5,4.2,19.9S32.9,251,42,257.8a1.9,1.9,0,0,0,1,.3,1.6,1.6,0,0,0,1.3-.6,1.7,1.7,0,0,0-.3-2.3c-7.4-5.5-7.1-24.8-5.3-33.5s-4.3-21.5-4.6-22a1.4,1.4,0,0,0-1.4-.9Z" style="fill:#ffeb81"/><path d="M48.9,253.6a.9.9,0,0,1-.7-.3c-.5-.4-11.7-10.1-9.6-22.4s-4.8-31.3-5.1-32.2a1.1,1.1,0,0,1,0-.8,1.3,1.3,0,0,1,.7-.6h.3a1.2,1.2,0,0,1,1.1.7c.3.9,7.3,21.4,5.2,33.3s8.7,20.2,8.8,20.3a1.1,1.1,0,0,1,.1,1.6A.9.9,0,0,1,48.9,253.6Z" style="fill:#ffeb81"/><path d="M34.5,197.8a.5.5,0,0,1,.6.4c.3.8,7.2,21.2,5.2,33s8.9,20.7,9,20.8a.6.6,0,0,1,.1.9l-.5.2-.4-.2C48,252.5,37,243,39.1,231S34,198.8,34,198.6a.6.6,0,0,1,.3-.8h.2m0-1H34a1.4,1.4,0,0,0-.9.8,1.7,1.7,0,0,0-.1,1.2c.1.2,7,20.8,5.1,32s9.3,22.4,9.7,22.8a1.5,1.5,0,0,0,1.1.4,1.4,1.4,0,0,0,1.2-.6,1.6,1.6,0,0,0,.4-1.2,1.4,1.4,0,0,0-.6-1.1c-.1,0-10.4-9.1-8.6-19.8s-4.9-32.7-5.2-33.5a1.6,1.6,0,0,0-1.6-1.1Z" style="fill:#ffeb81"/><path d="M32.9,262.6a1.1,1.1,0,0,1-.9-.5c-6.5-8.9-2.7-32.1,0-41.2s-1.4-19.1-1.5-19.2a1.1,1.1,0,0,1,.7-1.4h.4a1.2,1.2,0,0,1,1.1.7c.1.5,4.1,11.8,1.4,20.6s-6,31.5-.3,39.3a1.1,1.1,0,0,1-.3,1.6Z" style="fill:#ffeb81"/><path d="M31.6,200.7a.7.7,0,0,1,.6.4c.1.5,4.1,11.5,1.5,20.3s-6.1,31.7-.3,39.7a.7.7,0,0,1-.1.9h-.4l-.5-.2c-6.4-8.9-2.6-31.8.1-40.9s-1.4-19.4-1.5-19.5a.7.7,0,0,1,.4-.8h.2m0-1h-.5a1.6,1.6,0,0,0-1,2.1c0,.1,3.8,10.8,1.4,18.8-2.8,9.7-6.6,32.5.1,41.7a1.5,1.5,0,0,0,1.3.7,1.4,1.4,0,0,0,.9-.3,1.4,1.4,0,0,0,.7-1.1,1.4,1.4,0,0,0-.3-1.2c-5.5-7.6-2.4-29.4.4-38.8s-1.3-20.4-1.5-20.9a1.5,1.5,0,0,0-1.5-1.1Z" style="fill:#ffeb81"/><path d="M5.8,139.6H4c0-.1,3.7-7.6,8.2-15,9.1-15.3,12.3-15.2,13.9-15.2s4.7.1,14.8,14.6c4.9,7.1,9.1,14.3,9.1,14.3l-1.8.2c-.1-.1-4.2-7.2-9.1-14.2C29.9,110.9,26.6,110,26,110s-3.9,1-12.2,14.9C9.5,132.2,5.9,139.5,5.8,139.6Z" style="fill:#161616"/><path d="M6.6,140l-3.8-.2.2-.4c0-.1,3.7-7.6,8.2-15,9.3-15.6,12.6-15.5,14.9-15.5s5.4.1,15.7,14.9c5,7.1,9.1,14.3,9.2,14.3l.2.4-3.8.3-.2-.3c-.4-.8-4.4-7.6-9-14.2C30.6,113.4,27.1,111,26,110.5s-4.4,3.1-11.2,14.4c-4.3,7.2-7.8,14.5-8,14.8Zm-1.8-.5h0Zm21.6-29.2Z" style="fill:#161616"/><path d="M27,110.4c-4.1,0-7.5-1.3-7.5-2.9s3.4-2.9,7.5-2.9,7.6,1.3,7.6,2.9S31.2,110.4,27,110.4Zm0-4.7c-2.6,0-4.7.8-4.7,1.8s2.1,1.8,4.7,1.8,4.8-.8,4.8-1.8S29.6,105.7,27,105.7Z" style="fill:#ddb663"/><path d="M27.4,106.4c-.8,0-1.4-.2-1.4-.5L25.2,1c0-.3.6-.6,1.4-.6S28,.6,28,.9l.8,104.9c0,.3-.6.6-1.3.6Z" style="fill:#161616"/><path d="M27.4,106.8c-1.3,0-2.3-.4-2.4-.9L24.2,1c0-.5,1-1,2.3-1l1.7.2c.5.2.8.4.8.7l.8,104.9c0,.5-1,1-2.3,1Zm0-.8v0h.4L27,.9h-.8l.8,105Z" style="fill:#161616"/><path d="M75.9,182.3a9,9,0,0,0-6-3.8c1.5-3.2,0-8.3-3.1-9.9,2.2-4.9-1.4-11.9-6-11.9,1.1-4-.8-7.7-4.5-8.4,1.8-3.2.6-8.1-2.5-9.3,3.2-3.9-2.1-11.9-7.6-10-.6-5.3-10.9-7.7-14.2-2.3a9.6,9.6,0,0,0-3.7-1.3,8.5,8.5,0,0,0-11.1-1.2,10.7,10.7,0,0,0-7,2.7c-8.1-2.6-13.9,10.6-5.8,14.7-8.2,3.6-3.9,18,4.9,18.4-3.3,3.5-1.4,10.4,4.4,12.7-1.6,1.8-2.3,5.5.3,9-5.9,1.5-7.3,9-3.1,13.9-6.3,5,1,15.7,7.9,12.5-3.9,5.1-.7,15,7.1,13.7s11.7-11.2,5.2-15.5A7.4,7.4,0,0,0,34,197a8.1,8.1,0,0,0,4.7-11.5,9.8,9.8,0,0,0,4-3.8c-3.6,10.1,13.5,16.8,16.6,5.9C61.4,202,81.6,194.1,75.9,182.3Z" style="fill:#2d5b1d"/><path d="M39,140.7h.2a5.4,5.4,0,0,1-1.6-3.4c-.1-2.1-2.9-5.6-5.9-2.7s-.4,6.6,2.1,6.5S37.3,140.1,39,140.7Z" style="fill:#70815b"/><path d="M14.7,139.2a.2.2,0,0,0,.1-.3,7.5,7.5,0,0,1-2-4.3c-.1-2.8-3.7-7.4-7.6-3.6s-.7,8.6,2.6,8.5S12.4,138.3,14.7,139.2Z" style="fill:#6c9133"/><path d="M37.8,139.1c0,.2.2.2.2,0a7.6,7.6,0,0,1,2.8-3.9c2.4-1.5,4.6-6.9-.7-8.4s-7.8,3.7-6,6.5S37.4,136.7,37.8,139.1Z" style="fill:#798b65"/><path d="M21.3,138.2c0,.2.2.2.2.1a7.2,7.2,0,0,1,2.8-3.9c2.4-1.5,4.5-7-.7-8.5s-7.8,3.8-6,6.5S20.8,135.9,21.3,138.2Z" style="fill:#6c9133"/><path d="M43.1,139.1c-.1.1,0,.2.1.2a5.6,5.6,0,0,1,3.6-.4c2.1.5,6.3-1,4.5-4.7s-6.1-2.6-6.8-.2S44.2,137.7,43.1,139.1Z" style="fill:#798b65"/><path d="M4.4,139s-1.8,58.3,24.3,58.3,21.9-58.8,21.9-58.8Z" style="fill:#d68582"/><path d="M28.7,198.8a17,17,0,0,1-12.8-5.6c-14.1-14.5-13-52.6-13-54.2v-1.5l49-.5v1.4c.1,1.7,2.6,40.3-10.9,54.9A16.6,16.6,0,0,1,28.7,198.8ZM5.9,140.5c0,7.1.4,38.6,12.2,50.7a14.2,14.2,0,0,0,10.6,4.6A13.5,13.5,0,0,0,39,191.2c11.3-12.1,10.5-44.1,10.1-51.2Z" style="fill:#a95350"/><path d="M54.7,175.7c.1-.1.3,0,.2.1a9.7,9.7,0,0,0,.9,5.7c1.7,2.8,1.1,9.8-5.3,8.6s-6.3-8.2-2.9-10.2S52.9,178,54.7,175.7Z" style="fill:#6c9133"/><path d="M38.1,137.8h0c.1,0,10,4.2,11.1,21.6.6,8.9,4.7,16.2,12.2,21.6a.2.2,0,0,1,0,.3c-.1.1-.2.2-.3.1a28.2,28.2,0,0,1-12.4-22c-1.1-17-10.7-21.1-10.8-21.2a.2.2,0,0,1-.1-.3C37.8,137.8,37.9,137.7,38.1,137.8Z" style="fill:#5a7244"/><path d="M48.1,154.4c.1-.1.3,0,.2.1a8.3,8.3,0,0,0-.5,5.2c.8,2.9-1.3,8.9-6.6,6.4s-3.7-8.7-.3-9.6S46,156,48.1,154.4Z" style="fill:#6c9133"/><path d="M43,142.1c.1-.1.2,0,.2.1a6.4,6.4,0,0,0-.5,4.3c.7,2.4-1.1,7.4-5.5,5.3s-3-7.2-.2-8S41.3,143.5,43,142.1Z" style="fill:#6c9133"/><path d="M49.5,164.2c-.2-.1-.2-.3,0-.3a8.6,8.6,0,0,0,5.2-2.3c2.3-2.4,9.2-3.7,9.7,2.8s-6.2,8.2-9,5.5S52.1,165.3,49.5,164.2Z" style="fill:#6c9133"/><path d="M48.2,153.5c-.1,0-.1-.2,0-.2a6.1,6.1,0,0,0,3.7-1.1c1.7-1.5,6.3-1.8,6.2,2.5s-4.7,5.1-6.4,3.1S49.9,154.4,48.2,153.5Z" style="fill:#6c9133"/><path d="M44.2,143.7c-.1-.1-.1-.2,0-.2a5.7,5.7,0,0,0,3.7-1.2c1.7-1.4,6.4-1.8,6.2,2.6s-4.7,5-6.4,3S45.9,144.6,44.2,143.7Z" style="fill:#6c9133"/><path d="M49.8,166.1c.1-.1.3,0,.2.1a6.9,6.9,0,0,0,.3,4.4c1.2,2.3.3,7.6-4.5,6.2s-4.4-6.6-1.7-7.9S48.3,167.8,49.8,166.1Z" style="fill:#6c9133"/><path d="M60.5,181c-.1-.2,0-.3.1-.3a9,9,0,0,0,5.7.7c3.2-.9,9.8,1.6,6.9,7.4s-9.6,3.9-10.6.1S62.2,183.3,60.5,181Z" style="fill:#6c9133"/><path d="M56.1,176.5c-.2,0-.2-.2-.1-.2a7,7,0,0,0,3.4-2.8c1.2-2.3,6-4.6,7.7,0s-2.9,7.4-5.5,6S58.3,176.7,56.1,176.5Z" style="fill:#6c9133"/><path d="M24.6,207.6l-.2-.2c-4.4-4.9-2.5-10.4-.3-16.8,1.6-4.8,3.5-10.3,3-16.3a47.8,47.8,0,0,0-4.6-16.2c-1.8-3.8-3.2-7.1-3.1-11.4a11.1,11.1,0,0,1,8.4-10.8c.2-.1.4.1.5.3a.5.5,0,0,1-.3.4c-.3,0-7.6,1.6-7.9,10.1-.1,4.1,1.3,7.4,3,11.1a47.4,47.4,0,0,1,4.7,16.4c.5,6.2-1.4,11.7-3.1,16.6s-3.9,11.6.2,16.2a.4.4,0,0,1,0,.5Z" style="fill:#5a7244"/><path d="M24.1,193.7c-.1-.1-.3-.1-.3.1a6.1,6.1,0,0,1-.4,4.3c-1.1,2.3-.4,7.6,4.5,6.4s4.4-6.6,1.8-7.9S25.5,195.3,24.1,193.7Z" style="fill:#6c9133"/><path d="M27.1,182.3c-.1-.1-.3,0-.2.2a8.2,8.2,0,0,1,.1,5c-1,2.8.6,8.8,5.9,6.7s4.3-8.1,1-9.3S29,184.1,27.1,182.3Z" style="fill:#6c9133"/><path d="M23.9,160.1c-.2-.1-.3.1-.2.2a8,8,0,0,1,2.7,4.3c.5,2.9,4.9,7.3,8.5,2.8s-.4-9.2-3.8-8.6S26.4,160.6,23.9,160.1Z" style="fill:#6c9133"/><path d="M27.3,172.5c-.1,0-.2.1-.1.3a8.7,8.7,0,0,1,2.8,4.9c.4,3.3,5.1,8.4,9.4,3.5s-.1-10.3-3.9-9.7S30.1,173.2,27.3,172.5Z" style="fill:#6c9133"/><path d="M20.2,147.1c-.2,0-.3.2-.2.3a8.5,8.5,0,0,1,2.8,4.9c.4,3.3,5.2,8.4,9.4,3.6s0-10.3-3.9-9.8S22.9,147.9,20.2,147.1Z" style="fill:#6c9133"/><path d="M26,185.1c.1-.1,0-.3-.2-.2a9,9,0,0,1-5.8-.2c-3.2-1.4-10.3.1-8.2,6.4s9.1,5.5,10.7,1.8S23.8,187.2,26,185.1Z" style="fill:#6c9133"/><path d="M21.9,156.2c0-.2-.2-.3-.3-.2a8.6,8.6,0,0,1-5.2,2.8c-3.4.5-8.7,5.3-3.7,9.8s10.6,0,10.1-4S21.1,159,21.9,156.2Z" style="fill:#6c9133"/><path d="M20.1,144c.2-.2,0-.4-.1-.3a11.3,11.3,0,0,1-7.1,0c-3.8-1.6-12.2.5-9.5,8s11.2,6.2,12.9,1.7S17.7,146.5,20.1,144Z" style="fill:#6c9133"/><path d="M22.4,197.9c.1-.1.1-.2-.1-.2a6.6,6.6,0,0,1-4.3-.3c-2.3-1.1-7.6-.2-6.3,4.6s6.7,4.3,8,1.6S20.8,199.4,22.4,197.9Z" style="fill:#6c9133"/><path d="M26.8,171.8c.1-.2,0-.3-.1-.2a8,8,0,0,1-5,.9c-2.9-.6-8.6,1.9-5.7,6.9s8.7,2.9,9.4-.5S25.4,173.9,26.8,171.8Z" style="fill:#6c9133"/><path d="M23.1,204.1c-.1-.1-.3-.1-.3.1a8.1,8.1,0,0,1-1.5,5.5c-2,2.7-2.1,9.7,4.4,9.1s7.1-7.5,4-9.8S24.6,206.6,23.1,204.1Z" style="fill:#6c9133"/><path d="M34.1,133.4c1.9,0,3.4,2.3,3.5,3.8a5.4,5.4,0,0,0,1.6,3.4H39a3.2,3.2,0,0,0-1.4-.2c-1.1,0-2.2.4-3.8.5h-.2c-2.4,0-4.8-3.6-1.9-6.5a3.3,3.3,0,0,1,2.4-1.1m0-2h0a5.3,5.3,0,0,0-3.8,1.7,5.9,5.9,0,0,0-1.5,6.5,5.5,5.5,0,0,0,4.8,3.4h.3l2.3-.3,1.4-.2h1.5a2.1,2.1,0,0,0,1.9-1.2,2.1,2.1,0,0,0-.4-2.3,3.7,3.7,0,0,1-1-2.1c-.1-2.4-2.3-5.7-5.5-5.7Z" style="fill:#3e5127"/><path d="M17,127.2c4.4,0,5.6,5.5,4.6,8.3a8.2,8.2,0,0,0,.2,5.9l-.2.2h-.1c-2.2-2.1-4.5-1.8-8-3s-5.2-8.5,1.1-10.9a5.7,5.7,0,0,1,2.4-.5m0-2a8.9,8.9,0,0,0-3.1.6c-3.6,1.4-5.7,4.3-5.6,7.8a7.4,7.4,0,0,0,4.5,6.9c1.4.5,2.5.7,3.6,1a6.9,6.9,0,0,1,3.7,1.5,2.2,2.2,0,0,0,1.5.6,2.1,2.1,0,0,0,1.8-.9,2,2,0,0,0,.2-2,7.3,7.3,0,0,1-.1-4.5,9.6,9.6,0,0,0-1.2-8.2,6.2,6.2,0,0,0-5.3-2.8Z" style="fill:#51663a"/><path d="M8.2,129.6c2.6,0,4.5,3,4.6,5a7.5,7.5,0,0,0,2,4.3c.1.1.1.3-.1.3-2.5-.9-4.1.2-7.1.3-5.4-.2-5.7-9.2.6-9.9m0-2c-8.3.3-9.4,14-.1,13.9,2.2-.1,4-1.1,5.9-.5a2.1,2.1,0,0,0,2.7-1.2c.8-2.2-1.9-2.9-1.9-5.4s-2.8-6.8-6.6-6.8Z" style="fill:#2d5b1d"/><path d="M38.4,126.5l1.7.3c5.3,1.5,3.1,6.9.7,8.4a7.6,7.6,0,0,0-2.8,3.9h-.2c-.4-2.4-2.1-3.3-3.7-5.8s.2-6.8,4.3-6.8m0-2a7,7,0,0,0-6.1,3.6,6.2,6.2,0,0,0,.1,6.3l1.8,2.4a5.2,5.2,0,0,1,1.6,2.7,2.1,2.1,0,0,0,2.1,1.7,2,2,0,0,0,2-1.5,5.6,5.6,0,0,1,2-2.8,8,8,0,0,0,3.4-7.3c-.2-1.3-1.1-3.7-4.6-4.7a10.1,10.1,0,0,0-2.3-.4Z" style="fill:#51663a"/><path d="M21.8,125.7c6.4,0,5.9,6.5,2.5,8.7s-2.4,3-2.9,4c-.7-2.4-2.1-3.5-3.8-6s.2-6.7,4.2-6.7m0-2c-6.7,0-8.9,8.2-4.1,12.2,1.9,1.6,1.1,4.3,3.7,4.5s1.7-2.9,4-4.3c5.2-3.3,4.6-12.4-3.6-12.4Z" style="fill:#2d5b1d"/><path d="M47.8,131.8a3.9,3.9,0,0,1,3.5,2.4c1.6,3.2-1.4,4.8-3.5,4.8h-1l-1.2-.2a5,5,0,0,0-2.4.6h-.1a.1.1,0,0,1,0-.2c1.1-1.4.8-2.9,1.4-5.1a3.4,3.4,0,0,1,3.3-2.2m0-2a5.3,5.3,0,0,0-5.2,3.7,13.9,13.9,0,0,0-.5,2.3,3.5,3.5,0,0,1-.6,2.1,2.1,2.1,0,0,0,1.6,3.4h.5l.4-.2a5.3,5.3,0,0,1,1.6-.4h.7l1.5.2a6.2,6.2,0,0,0,5.2-2.7,4.7,4.7,0,0,0,.1-5,6,6,0,0,0-5.3-3.5Z" style="fill:#51663a"/><path d="M54.8,175.6c.3,1.2-.4,3.7,1,5.9s1.2,8.7-3.8,8.7c-6.8.2-8.6-8-4.4-10.3s5.3-2,7.2-4.3m0-2c-2.1.4-2.6,2.5-5,3-14.8,4.9-.9,23.1,7.8,12.4a9,9,0,0,0-.1-8.6c-1.8-2.8,1.1-6.2-2.7-6.8Z" style="fill:#2d5b1d"/><path d="M48.2,154.4c.1,1-1.2,3.1-.4,5.3s-2.3,8.9-6.6,6.4-3.7-8.7-.3-9.6,5.2-.5,7.3-2.1m0-2c-1.8.3-2.3,1.4-4.6,1.5-15.4,1.2-4.9,21.7,4.7,12.4a8.7,8.7,0,0,0,1.4-7.1c-.8-3,2.6-6.2-1.5-6.8Z" style="fill:#2d5b1d"/><path d="M43.1,142.1c.1.8-1,2.6-.4,4.4s-1.9,7.4-5.5,5.3-3-7.2-.2-8,4.3-.4,6.1-1.7m0-2c-1.6.2-1.9,1.2-3.9,1.3-13.2.9-4.4,19,4.2,10.8a7.3,7.3,0,0,0,1.2-6.2c-.5-2.6,2.3-5.3-1.5-5.9Z" style="fill:#2d5b1d"/><path d="M59.7,159.6c7.3,0,5.3,12.2-1.1,11.5-4.5,0-5.7-5.9-9.1-6.9-.2-.1-.2-.3,0-.3,3.2.3,6.3-4.5,10.2-4.3m0-2a9.3,9.3,0,0,0-6.4,2.6c-2.2,2.4-5.2.6-5.9,3.6s3.1,2.5,4.2,4.8,3.9,4.7,7,4.5c9.6.4,10.7-15.6,1.1-15.5Z" style="fill:#2d5b1d"/><path d="M54.8,151.2c5.1-.2,3.8,8-.6,7.6s-3.7-4.3-6-5.3c-.1,0-.1-.2,0-.2,2,.5,4.3-2.2,6.6-2.1m0-2a6.6,6.6,0,0,0-4.2,1.4c-1.7,1.3-3.8,0-4.4,2.3s1.7,2.2,2.5,4.1,2.9,4,5.5,3.8c6.8.4,8.5-11.6.6-11.6Z" style="fill:#2d5b1d"/><path d="M50.9,141.4c5-.2,3.7,8-.7,7.6s-3.7-4.4-6-5.3c-.1-.1-.1-.2,0-.2,2,.4,4.3-2.2,6.7-2.1m0-2a6.9,6.9,0,0,0-4.3,1.4c-1.7,1.3-3.8,0-4.4,2.3s1.7,2.2,2.6,4.1,2.9,3.9,5.4,3.8c6.9.4,8.5-11.7.7-11.6Z" style="fill:#2d5b1d"/><path d="M42.3,131.5c5,.5,4.5,8,.2,7.9-2.4-.2-3.9-1.5-6-1-.1,0-.1-.1,0-.2a5.7,5.7,0,0,0,2-3.2c.3-1.5,1.9-3.5,3.8-3.5m0-2c-2.8,0-5.3,2.7-5.8,5.1s-2.7,2.4-1.9,4.4a2.2,2.2,0,0,0,2.9,1.3c11.8,4.9,14-9.4,4.8-10.8Z" style="fill:#2d5b1d"/><path d="M49.9,166.1c.2.9-.5,2.7.4,4.5s.4,6.4-3.1,6.4c-5.2.1-6.6-6.5-3.1-8.1s4.3-1.2,5.8-2.8m0-2c-1.7.1-2,1.6-4,2-12.5,3-1.9,19.2,5.8,10.5a7.4,7.4,0,0,0,.4-6.9c-1-2.4,1.2-5.3-2.2-5.6Z" style="fill:#2d5b1d"/><path d="M60.6,180.7c1.7,1.1,4.9,1,7.1.5s8,2.5,5.5,7.6-9.1,4.7-10.6.1-.4-5.6-2.1-7.9a.2.2,0,0,1,.1-.3m0-2a2.2,2.2,0,0,0-1.7,3.5c1.4,2,1,4.6,1.8,7.2a7.2,7.2,0,0,0,7.1,5c10.4-.8,10.9-15.3-.1-15.2-1.2,0-2,.4-3.2.4s-2.6-.8-3.9-.9Z" style="fill:#2d5b1d"/><path d="M63.8,170.8c6.4.9,3.6,11.3-2.2,8.7-2.4-1.4-3.3-2.8-5.5-3-.2,0-.2-.2-.1-.2,2.7-.6,4.2-5.7,7.8-5.5m0-2c-4.7-.1-5.6,4.3-8.5,5.6a2.2,2.2,0,0,0,.5,4.1c2.4.4,4.5,3.6,7.4,3.4,7.9.3,8.3-12.9.6-13.1Z" style="fill:#2d5b1d"/><path d="M24,193.6c1.5,1.7,3.1,1.7,5.7,3s2.1,8.2-3.2,8.1c-3.6,0-4.1-4.5-3.1-6.6s.4-3.6.6-4.5m0-2c-3.4.3-1.3,3.3-2.3,5.6a7.7,7.7,0,0,0,.2,6.9c7.7,8.9,18.4-7.2,6.1-10.4-2.1-.4-2.3-1.9-4-2.1Z" style="fill:#2d5b1d"/><path d="M27,182.3c2,1.7,3.9,1.5,6.9,2.6s4.4,7.2-1,9.3-7.3-3.4-5.9-6.7-.1-4.2,0-5.2m0-2c-3.9.5-.9,3.7-1.9,6.5a8.6,8.6,0,0,0,1,7.3c9.1,9.4,20.1-9.7,5.4-12-2.3-.2-2.7-1.5-4.5-1.8Z" style="fill:#2d5b1d"/><path d="M31.7,158.8c3.2,0,6.6,4.4,3.2,8.6s-7.9.8-8.5-2.8a8,8,0,0,0-2.7-4.3c-.1-.1,0-.3.2-.2,2.6.6,4.6-1,7.8-1.3m0-2c-2.4,0-4.5,1.3-6.6,1.4s-2.8-.2-3.3,1.3,2.2,2.6,2.6,5.4,3.5,6.4,7.1,6.4c8.2-.3,9.4-14.1.2-14.5Z" style="fill:#2d5b1d"/><path d="M36,171.4c3.7,0,7.4,5.2,3.4,9.8s-8.9.5-9.4-3.5a8.7,8.7,0,0,0-2.8-4.9c-.2-.2,0-.3.1-.3,3,.8,5.1-.8,8.7-1.1m0-2c-3,0-5.5,1.8-8.2,1.2a2.1,2.1,0,0,0-2.5,1.3c-.8,2.6,2.4,2.9,2.7,6.1s3.5,7.3,7.6,7.3c9-.4,10.4-15.4.4-15.9Z" style="fill:#2d5b1d"/><path d="M28.8,146c3.7,0,7.4,5.2,3.4,9.9s-8.9.4-9.4-3.6a8.5,8.5,0,0,0-2.8-4.9c-.1-.1,0-.3.2-.3,2.9.8,5-.8,8.6-1.1m0-2c-2.9,0-5.4,1.8-8.1,1.2a2.2,2.2,0,0,0-2.6,1.3c-.8,2.6,2.4,2.9,2.7,6.1s3.5,7.3,7.6,7.3c9-.4,10.4-15.3.4-15.9Z" style="fill:#2d5b1d"/><path d="M17.4,184.2c2-.1,3.7,1.2,5.6,1.1s3.2-.8,3-.2c-2.2,2.1-2,4.4-3.5,7.8s-9.1,3.8-10.7-1.8,2.3-6.9,5.6-6.9m0-2c-5.6.3-9.4,3.4-7.5,9.8,3.4,9.3,14.9,6.4,15.7-1.9a7.7,7.7,0,0,1,1.8-3.6,2.1,2.1,0,0,0-1.5-3.6.8.8,0,0,0-.7.1c-2.7,1-5.1-.8-7.8-.8Z" style="fill:#2d5b1d"/><path d="M21.7,156c-.3,2.8.4,4.9,1.1,8.6s-6.4,7.9-10.1,4,.3-9.3,3.7-9.8,4.3-2,5.3-2.8m0-2c-2.2.2-2.5,2.5-5.5,2.9a9.3,9.3,0,0,0-7.3,5.9c-1.8,3.4,3.3,10,8.2,9.6s9.3-6.6,7-11.6c-1.3-2.6,1.3-6.4-2.4-6.8Z" style="fill:#2d5b1d"/><path d="M10.1,143.2c2.2-.1,4.1,1.2,6.1,1.1s4.3-1.1,3.9-.3c-3.6,3.4-2,13.3-9.8,13-2.7,0-5.5-1.5-6.9-5.3-2.1-6,2.7-8.5,6.7-8.5m0-2c-5.6,0-11.3,4.1-8.5,11.4s13.9,8.7,16.7,1.3c1.3-3.1,1.2-6.4,3.4-8.6a2.2,2.2,0,0,0-1.8-3.6c-3.1,1.4-6.5-.2-9.8-.5Z" style="fill:#2d5b1d"/><path d="M15.9,197c1.7-.1,3,1.1,4.6.9s2.1-.5,1.9,0-1.5,3.2-2.7,5.7-6.9,2.6-8-1.6,1.8-5,4.2-5m0-2c-9.4-.2-7.4,13,.4,12.6,3.6,0,5.5-2.9,6.3-5.9s2.5-2.6,1.7-4.7-2.3-1.1-4-1.1-2.7-1.1-4.4-.9Z" style="fill:#2d5b1d"/><path d="M26.7,171.5a.2.2,0,0,1,.1.3c-1.4,2.1-.8,4-1.4,7.1s-7.2,4.8-9.4.5,1.8-7,4.8-7,4.7,0,5.9-.9m0-2c-1.8.6-3.6,1.5-5.9.9-4.7.2-9.9,3.9-6.5,10s11.8,4.9,13-1.1c.6-2.3.1-4.8,1.2-6.4a2.2,2.2,0,0,0-1.8-3.4Z" style="fill:#2d5b1d"/><path d="M22.9,204c1.7,2.4,3.8,2.9,6.8,5s1.9,10-4.7,9.8-5.6-6.5-3.7-9.1,1.3-4.5,1.6-5.7m0-2c-3.5.5-1.1,3.9-3.2,6.5a9.5,9.5,0,0,0-.8,8.9c8.1,10.9,22.8-5.8,8.9-11.9-2.4-.8-2.7-3.2-4.9-3.5Z" style="fill:#2d5b1d"/><path d="M20.4,141.8c-.1.1,0,.3.2.2a9.2,9.2,0,0,1,5.9-1.6c3.6.4,10.2-3.2,6.2-8.9s-10.8-2.7-11.3,1.5S21.9,139.1,20.4,141.8Z" style="fill:#6c9133"/><path d="M36.6,138.4c-.1,0-.2-.1-.1-.2a5.7,5.7,0,0,0,2-3.2c.4-2.2,3.7-5.5,6.4-2.1s-.3,6.9-2.9,6.5S38.5,138,36.6,138.4Z" style="fill:#6c9133"/><path d="M21.5,141.6c.1.1.3,0,.3-.2a8.2,8.2,0,0,1-.2-5.9c1.2-3.3-.7-10.3-7-7.8s-4.9,9.5-1.1,10.9S19.3,139.5,21.5,141.6Z" style="fill:#798b65"/><path d="M27.2,128.3c8.9,1.2,8.8,11.9-.1,12.1a10,10,0,0,0-6.5,1.6c-.2.1-.3-.1-.2-.2,2.3-4.4-1.6-13.1,6.8-13.5m0-2c-3.8,0-7.3,2.9-7.7,6.4s.4,5.7-.9,8.1a2.2,2.2,0,0,0,1.9,3.2c1.7-.2,2.7-1.7,5.2-1.7s7.6-.9,9.5-4.4-2.4-12.1-8-11.6Z" style="fill:#2d5b1d"/></g></g></g></g></svg>