<svg xmlns="http://www.w3.org/2000/svg" viewBox="0 0 79.28 242.25"><g id="Layer_2" data-name="Layer 2"><g id="Layer_1-2" data-name="Layer 1"><g id="Props"><g id="na_potted_plant_7" data-name="na_potted plant 7"><path d="M41.54,231.89h0a2.71,2.71,0,0,1-2.82-2.33L27.88,145.82a1.5,1.5,0,1,1,3-.38l10.69,82.72,11.38-82.73a1.5,1.5,0,1,1,3,.41L44.37,229.58A2.73,2.73,0,0,1,41.54,231.89Z" fill="#131313"/><path d="M41.77,129.14h2.51l1.77,0c11.17.33,21.24,2,21.3,4.94l0,.34-7.37,48.44H24l-7.52-48.44-.06-.34c.07-3.17,11.57-4.83,23.63-5h1.72m0-3H40a102.32,102.32,0,0,0-16.81,1.41c-4.5.85-9.67,2.36-9.76,6.51v.27l0,.27,0,.34L21,183.38l.39,2.54H62.51l.39-2.55,7.37-48.44,0-.37,0-.24v-.23c-.09-4.49-6.46-5.84-8.87-6.34a93.56,93.56,0,0,0-15.34-1.55l-1.82,0H41.77Z" fill="#3a1810"/><polygon points="59.93 182.93 24 182.93 16.42 134.15 67.35 134.15 59.93 182.93" fill="#8f4f28"/><path d="M67.35,134.15c-.08,3.22-11.9,4.89-24.14,5h-2.7c-12.23-.11-24-1.78-24.09-5s11.57-4.84,23.63-5h4.23l1.77,0C57.22,129.53,67.29,131.18,67.35,134.15Z" fill="#ac7553"/><path d="M41.77,129.14h2.51l1.77,0c11.17.33,21.24,2,21.3,5-.08,3.22-11.9,4.89-24.14,5h-2.7c-12.23-.11-24-1.78-24.09-5s11.57-4.84,23.63-5h1.72m0-3H40a103.47,103.47,0,0,0-16.83,1.42c-4.5.85-9.67,2.36-9.76,6.52v.11c.08,4.19,5.35,5.71,9.93,6.56a103.59,103.59,0,0,0,17.13,1.39h2.73a105.28,105.28,0,0,0,17.18-1.38c4.59-.85,9.86-2.37,10-6.56v-.12c-.09-4.49-6.46-5.83-8.86-6.34a94.67,94.67,0,0,0-15.35-1.55l-1.84,0H41.77Z" fill="#3a1810"/><path d="M66.35,106.74h.07c6.58.35,6,7.41,2.7,11.33-4.27,5.46-10.92,10-17.91,10.65h0a5.74,5.74,0,0,1-3.69-1.29A4.8,4.8,0,0,1,46.26,126h0c-1,0-.55-3.69-.36-4.36,1.77-8.66,12-14.91,20.46-14.91m0-3c-9.6,0-21.29,7-23.4,17.31h0c-.2,1-.86,4.66.6,6.59a3.53,3.53,0,0,0,.6.62,7.86,7.86,0,0,0,1.43,1.47,8.64,8.64,0,0,0,5.61,2h.15l.16,0c7.3-.72,14.75-5.11,20-11.74,2.88-3.44,3.85-8.21,2.38-11.61-.69-1.61-2.56-4.36-7.25-4.61h-.23Z" fill="#173f3f"/><path d="M29.8,116.75h0m0,0,0,0h0m0,0h0m-.86-2.88-.18,0-.18.08,1.09,2.66,1,3,.16,0,.09,0h0l.08,0h0l-.07-.18-1.39-3.55-.58-1.9Z" fill="#173f3f"/><path d="M13.06,97.58a27.34,27.34,0,0,1,13.5,4,10.56,10.56,0,0,1,5.33,7c.54,2.58.93,7.3-2.12,8.22a21.28,21.28,0,0,1-7.19,1.32h-.06c-3.92,0-7.6-1.81-10.91-3.76l-.19-.13,0,0h0l-.09-.06,0,0-.21-.14,0,0-.14-.09h0l0,0H11a24.1,24.1,0,0,1-4.06-3.28c-5.36-5.43-3.62-12,4.24-12.94h.08l.72-.07h0q.58,0,1.17,0m-2,16.36,0,0,0,0m0,0h0m0,0h0l0,0,0,0m0,0h0m.06,0h0m1.9-19.45c-.45,0-.9,0-1.34,0l.11,1.93-.18-1.93-.73.08h-.05L11.06,97l-.26-2.25c-4.76.55-8.22,2.93-9.49,6.54s0,8,3.46,11.49a26.8,26.8,0,0,0,4.52,3.66l0,0,.07,0,0,0h.05l0,0h0l.05,0h0l.22.14h0l.11.07.08,0,0,0,.05,0c3.5,2.07,7.72,4.18,12.43,4.18h.14a23.86,23.86,0,0,0,8.1-1.49c3.82-1.23,5.34-5.58,4.06-11.67a13.47,13.47,0,0,0-6.76-9,30.22,30.22,0,0,0-15-4.36Z" fill="#173f3f"/><path d="M6.9,110.63h0l0,0,0,0m0,0h0" fill="#173f3f"/><path d="M68.39,44.55a5.44,5.44,0,0,1,4.22,1.7c4.24,5.54-4.55,16.48-8.21,20.81a38.35,38.35,0,0,1-7.24,6.09c-2,1.45-4.1,3.14-6.64,3.27h-.23a5.15,5.15,0,0,1-2.67-.64,2.89,2.89,0,0,1-.84-.76c0,.31.21,1.11-.16,1.2a.2.2,0,0,1-.21-.19c0-.4,0-.8-.06-1.2,0,0,0,0,0,0a36.88,36.88,0,0,1-.34-4.7,22.2,22.2,0,0,1,.63-5.43A24.7,24.7,0,0,1,59.18,47.58c2.4-1.23,6.05-3,9.21-3M46.71,73.8a1.67,1.67,0,0,1-.08-.2v.15l.07,0M68.39,41.55h0c-3.53,0-7.17,1.61-10.58,3.36l-.07,0-.06,0A27.77,27.77,0,0,0,43.7,64a25.18,25.18,0,0,0-.7,6.09,38.57,38.57,0,0,0,.37,5.09c0,.27,0,.58,0,.87a3.2,3.2,0,0,0,3.21,3.15H47l.35-.09a2.18,2.18,0,0,0,.29-.09,8.9,8.9,0,0,0,2.66.38h.38c3.28-.17,5.83-2.06,7.88-3.57l.33-.24a41.4,41.4,0,0,0,7.74-6.53l0,0,0,0c3.52-4.17,14.22-16.84,8.3-24.57l-.08-.1-.08-.09a8.41,8.41,0,0,0-6.44-2.69Z" fill="#173f3f"/><path d="M70.39,84.62c2.86,0,5.33,1,5.85,4.25.31,2.74-1.17,5.44-3,7.37-2.42,2.34-5.56,3.74-8.46,5.39-3.43,1.72-8.38,5.59-12.73,5.59A6,6,0,0,1,48.35,106a.28.28,0,0,1-.29.23.27.27,0,0,1-.25-.14c-1.48-2.09-.64-4.95.1-7.19,2.5-6.24,8.24-10.92,14.6-12.85a31.79,31.79,0,0,1,7.88-1.44m0-3a33.44,33.44,0,0,0-8.52,1.51l-.16,0h-.07a25.71,25.71,0,0,0-16.51,14.6l0,.09,0,.09c-.73,2.22-2.1,6.35.24,9.77a3.25,3.25,0,0,0,2.57,1.5,9.05,9.05,0,0,0,4.17,1c4,0,8.07-2.4,11.31-4.33,1-.61,2-1.18,2.77-1.58l.07,0,.07,0,1.93-1.06a31.41,31.41,0,0,0,7.12-4.76l0,0,0,0c2.8-2.94,4.18-6.51,3.81-9.78v-.12c-.32-2-1.82-6.79-8.81-6.79Z" fill="#173f3f"/><path d="M13.25,42a18.85,18.85,0,0,1,7.2,1.45h0a20.1,20.1,0,0,1,4.95,3.33c3.64,3,6.79,6.68,7.62,11.48,0,.29.1.68.13,1.07.2.33,0,.76,0,1.13a5.86,5.86,0,0,1-.44,2.12.32.32,0,0,1-.29.21A4.32,4.32,0,0,1,28.73,65c-3.13,0-6.72-3.17-9.27-4.75C14.67,57,8.31,56.16,4.36,51.7c-2.95-3.4-.7-7,2.93-8.61a16.35,16.35,0,0,1,6-1.09m0-3a19.29,19.29,0,0,0-7.06,1.3l-.05,0,0,0A9.83,9.83,0,0,0,.18,46.84a7.7,7.7,0,0,0,1.91,6.83C5,56.9,8.61,58.45,12.14,59.94a35,35,0,0,1,5.65,2.8l.05,0,.05,0c.52.33,1.14.76,1.8,1.22,2.54,1.77,5.7,4,9,4a7.11,7.11,0,0,0,5.76-2.92,3.22,3.22,0,0,0,1-1.27,8.62,8.62,0,0,0,.7-3.17l0-.31h0a4.07,4.07,0,0,0-.08-1.66,9,9,0,0,0-.13-.91c-.82-4.81-3.65-9.14-8.63-13.27a22.23,22.23,0,0,0-5.73-3.8l-.26-.11h0A21.89,21.89,0,0,0,13.25,39Z" fill="#173f3f"/><path d="M71.73,26.68c.27,0,.55,0,.83,0,3.63,1.5,1.07,6.1-1,7.89a.34.34,0,0,1-.06.06h0l0,.06c-1.38,1.18-2.84,2.27-4.3,3.35-3.77,2.53-8.13,4.07-12.25,6-2.34.89-4.77,1.7-6.57,3.52A16.3,16.3,0,0,0,45,52.47h0a1,1,0,0,1-.07.15,28.09,28.09,0,0,0-1.41,3.52.32.32,0,0,1-.32.22h-.12a.36.36,0,0,1-.2-.45c.12-.32.23-.64.32-1a20.34,20.34,0,0,1,1.65-4.7c.07-.19.13-.37.2-.54,1.9-5.16,5.56-9.55,9.43-13.38l.08-.08h0l0,0,.11-.1.3-.28h0l0,0,.05-.05h0a49.92,49.92,0,0,1,4.28-3.54c3.53-2.39,7.91-5.49,12.35-5.49m0-3c-5.19,0-9.87,3.18-13.63,5.73l-.09.07v-.64l-4.19,3.95H52V34.3l-.45.3V35c-3.16,3.21-7.21,7.89-9.34,13.67a3,3,0,0,0-.11.32,16.55,16.55,0,0,0-1.47,4c-.1.38-.2.75-.32,1.12s-.17.55-.26.78v0l0,0A3.36,3.36,0,0,0,42,59.13l.07,0h0a3.2,3.2,0,0,0,.68.16,3,3,0,0,0,.43,0,3.33,3.33,0,0,0,3.16-2.24l0,0v0a20.65,20.65,0,0,1,.83-2.17l.52-1.13a13.22,13.22,0,0,1,2.67-4l0,0,0,0a13.28,13.28,0,0,1,4.89-2.59l.61-.23.1,0,.09,0c1.07-.5,2.2-1,3.29-1.45a56.92,56.92,0,0,0,9.37-4.75l0,0,.05,0C70.45,39.36,72,38.24,73.39,37l.08-.08.08-.07h0c1.82-1.61,4.27-5.15,3.72-8.51A5.62,5.62,0,0,0,73.7,24l-.42-.18-.45,0c-.36,0-.73-.05-1.1-.05Z" fill="#173f3f"/><path d="M58.31,3c4.22,0,6.46,5.36,3.75,14.1-1.89,7.44-4.61,15.21-10.5,20.44-1.28,1.12-3,2.45-4.74,2.45a3.28,3.28,0,0,1-1.06-.18,3.4,3.4,0,0,1-.72-.35.48.48,0,0,1-.29.21c.16.19.93,1,.38,1h-.08a2.22,2.22,0,0,1-.83-.56l-.17-.17c0,.26.07.52.1.77a29.8,29.8,0,0,1-.25,9c-.15.86-.34,1.73-.57,2.58a18.12,18.12,0,0,1-.86,2.37c-.27,1.28-.67,3.11-2,3.5l-.15,0h-.08a1.83,1.83,0,0,1-.33,0h-.18l-.1,0C33.67,57.19,28.17,45,25.34,40,24.06,37.23,23,34.15,23.6,31.1a8.32,8.32,0,0,1,2.65-4.59,7.43,7.43,0,0,1,4.91-1.86,8.08,8.08,0,0,1,3.17.66,13.24,13.24,0,0,1,6.29,5.13,20.17,20.17,0,0,1,.62-5.55,54.53,54.53,0,0,1,7.4-15C52.17,5.14,55.64,3,58.31,3M44.06,38.86v0s0,0,0,0l-.14-.09.12.14M58.31,0h0C54.39,0,50.1,2.9,46.23,8.15l0,0,0,0A57.49,57.49,0,0,0,38.37,24h0a15.74,15.74,0,0,0-2.92-1.49,10.91,10.91,0,0,0-4.29-.88,10.43,10.43,0,0,0-6.89,2.61,11.32,11.32,0,0,0-3.61,6.21v.06c-.78,4,.64,7.85,2,10.7l.05.11.06.11c.42.73.9,1.64,1.46,2.69,4.45,8.39,9,16,15,17l.07,0,.13,0h.55a4.65,4.65,0,0,0,.75,0h.09l.08,0H41l.37-.09c2.86-.85,3.65-3.79,4-5.45A21.54,21.54,0,0,0,46.21,53a27.59,27.59,0,0,0,.64-2.88,32.09,32.09,0,0,0,.5-7.19c2.5-.2,4.61-1.79,6.19-3.18C60.18,33.9,63,25.43,65,17.91c2-6.34,1.69-11.63-.72-14.9a7.2,7.2,0,0,0-5.92-3Z" fill="#173f3f"/><path d="M27.58,68.83c2.42,0,5.24,1.38,7.1,2.28a18.16,18.16,0,0,1,7.47,7.78h0l.09.16,0-.06c3.41,5.34,5.92,21.65-3.57,21.65h-.23c-3.06-.24-4.7-3.15-6-5.57-.92-1.64-1.91-3.23-2.89-4.84-2.65-4.55-10-15-5.39-19.74a4,4,0,0,1,3.47-1.66m0-3h0a6.91,6.91,0,0,0-5.78,2.73c-5.43,5.86.51,15.61,4.07,21.45.39.64.75,1.22,1,1.73v0l0,0,.55.9c.77,1.26,1.57,2.56,2.29,3.85,1.36,2.49,3.66,6.71,8.39,7.09h.47A8.68,8.68,0,0,0,46.58,99c3.35-6.11,1.19-16.76-1.78-21.52a21.11,21.11,0,0,0-8.72-9l0,0,0,0c-2.14-1-5.32-2.58-8.41-2.58Z" fill="#173f3f"/><path d="M51.21,128.72a5.78,5.78,0,0,1-3.71-1.29h0A4.8,4.8,0,0,1,46.26,126c-1,0-.56-3.69-.37-4.36,1.77-8.68,12-15,20.53-14.91,6.58.35,6,7.41,2.7,11.33C64.85,123.53,58.2,128,51.21,128.72Z" fill="#154729"/><path d="M22.58,118.08c-3.94,0-7.65-1.8-11-3.76l-.19-.13,0,0-.11-.07,0,0-.23-.15.05,0-.14-.09,0,0-.1-.06,0,0,0,0H11a24.2,24.2,0,0,1-4.06-3.28l0,0c-5.4-5.44-3.66-12.07,4.21-13h.08l.72-.07h0a26.78,26.78,0,0,1,14.67,3.92,10.56,10.56,0,0,1,5.33,7c.54,2.58.94,7.33-2.15,8.23l.06,0A21.22,21.22,0,0,1,22.58,118.08Z" fill="#154729"/><path d="M72.61,46.25c-3.34-3.68-9.81-.53-13.43,1.33A24.7,24.7,0,0,0,46.63,64.69,22.2,22.2,0,0,0,46,70.12a36.88,36.88,0,0,0,.34,4.7s0,0,0,0c0,.4.06.8.06,1.2a.2.2,0,0,0,.21.19c.37-.09.12-.89.16-1.2a2.89,2.89,0,0,0,.84.76,5.3,5.3,0,0,0,2.9.63c2.54-.13,4.66-1.82,6.64-3.27a38.35,38.35,0,0,0,7.24-6.09C68.06,62.73,76.85,51.79,72.61,46.25ZM46.71,73.8l-.07,0V73.6Z" fill="#154729"/><path d="M76.24,88.87c-1-6.41-9.44-4-13.73-2.81-6.36,1.93-12.1,6.61-14.6,12.85-.74,2.24-1.58,5.1-.1,7.19a.29.29,0,0,0,.54-.09c4.93,3.73,12-2.14,16.42-4.38,2.9-1.65,6-3,8.46-5.39C75.07,94.31,76.55,91.61,76.24,88.87Z" fill="#4a8932"/><path d="M33,58.26c-.83-4.8-4-8.47-7.62-11.48a20.1,20.1,0,0,0-4.95-3.33h0a17.82,17.82,0,0,0-13.16-.36c-3.63,1.6-5.88,5.21-2.93,8.61,4,4.46,10.31,5.34,15.1,8.55,3.66,2.26,9.48,7.82,13,2.54a.32.32,0,0,0,.29-.21,5.86,5.86,0,0,0,.44-2.12c-.05-.37.18-.8,0-1.13C33.12,58.94,33.06,58.55,33,58.26Z" fill="#4a8932"/><path d="M72.56,26.72c-4.72-.42-9.44,2.92-13.18,5.45a49.92,49.92,0,0,0-4.28,3.54h0l-.05.05,0,0h0l-.3.28-.11.1,0,0h0l-.08.08C50.6,40.13,46.94,44.52,45,49.68c-.07.17-.13.35-.2.54a20.34,20.34,0,0,0-1.65,4.7c-.09.33-.2.65-.32,1a.36.36,0,0,0,.2.45h.06a.33.33,0,0,0,.38-.21,28.09,28.09,0,0,1,1.41-3.52,1,1,0,0,0,.07-.15h0a16.3,16.3,0,0,1,3.31-4.9c1.8-1.82,4.23-2.63,6.57-3.52,4.12-1.89,8.48-3.43,12.25-6,1.46-1.08,2.92-2.17,4.3-3.35l0-.06h0a.34.34,0,0,0,.06-.06C73.63,32.82,76.19,28.22,72.56,26.72Z" fill="#6ab0b6"/><path d="M67.31,38l0,0Z" fill="#008b00"/><path d="M65.14,39.36l0,0Z" fill="#008b00"/><path d="M48.64,9.93a54.53,54.53,0,0,0-7.4,15,20.17,20.17,0,0,0-.62,5.55,14.8,14.8,0,0,0,3,9l.45.49.17.17a2.22,2.22,0,0,0,.83.56c.71.08-.13-.77-.3-1a.48.48,0,0,0,.29-.21,3.4,3.4,0,0,0,.72.35c2.07.73,4.26-.92,5.8-2.27,5.89-5.23,8.61-13,10.5-20.44C66.47,2.83,57.74-2.43,48.64,9.93ZM44.07,38.84v0L44,38.72l.13.09S44.08,38.83,44.07,38.84Z" fill="#6ab0b6"/><path d="M41.11,138.14c-1.28-.1-.32-3.5-.35-4.44.3-2.52.58-5,.82-7.57.72-7.28,0-14.6,0-21.9.2.14.16-.24.18-.35.18-.07.1-.33.11-.47-.1-2-.13-4-.16-6-.08-5,.23-9.92.35-14.88v0c.12-3.28.25-6.57.38-9.85.48.06.27-.9.36-1.21a68.09,68.09,0,0,0,0-7.56v0c.67-13.8.78-27.86,4.68-41.22h0c2.26-6.79,5-16,12.29-18.87.23-.06.72-.26.79.08,0,.15-.15.21-.28.18a2.94,2.94,0,0,0-.6.16h0a11.39,11.39,0,0,0-5.13,4.56h0C52,12.61,50.65,17,49.32,21.34c-3.18,10.39-4.09,21.29-4.43,32.1-.34,9.33-.75,18.65-1.08,28V81.3c-.45,11.45-.72,22.92-.28,34.38a94.7,94.7,0,0,1-1,17.24c-.22,1.56-.3,3.15-.67,4.68A.71.71,0,0,1,41.11,138.14Z" fill="#003d28"/><path d="M41.45,137a.85.85,0,0,1-.09-1.25.41.41,0,0,0,0,.09c1.37-3.05,2.48-6.26,4.36-9.07a.35.35,0,0,1-.05.08l.27-.42h0l0-.08,0,0c4.56-7.79,12.12-14,21-16,.51,0,2.72-.84,2.76-.26,0,.15-.17.18-.3.16h-.1a8.62,8.62,0,0,0-1,.21h0c-10.74,2.8-18.56,10.54-23.09,20.48v0l0,.09v0c-.61,1.35-1.17,2.72-1.71,4.09C43.16,135.9,42.64,137.65,41.45,137Z" fill="#003d28"/><path d="M42.86,139.15H40.51a2.79,2.79,0,0,1-.06-2.09l.09-.25c.14-.58.11-1.5.59-1.89a.75.75,0,0,1,.48-.19.71.71,0,0,1,.42-.55.78.78,0,0,1,.37,0,.83.83,0,0,1,.36.16.77.77,0,0,1,.27.74,10.56,10.56,0,0,0,0,1.11v.18A9.56,9.56,0,0,1,42.86,139.15Z" fill="#003d28"/><path d="M43.21,139.15H41.76a.64.64,0,0,1-.11-.3c0-.27-.07-.55-.1-.82s-.09-.72-.14-1.08-.09-.72-.14-1.07-.09-.65-.14-1c-.09-.63-.19-1.26-.29-1.89l0-.18c-.21-1.24-.46-2.48-.76-3.7A31.59,31.59,0,0,0,37.4,122l0-.06s0,0,0-.08-.12-.21-.17-.32a32.78,32.78,0,0,0-5.24-7.09,36,36,0,0,0-14.56-9.15,44.76,44.76,0,0,0-12.45-2.21c-.63-.41,2-.3,2.33-.29a39.77,39.77,0,0,1,24.95,10.39,32.15,32.15,0,0,1,9.23,14.65c.12.44.24.88.35,1.33.06.25.11.5.17.75q.35,1.55.6,3.09v0c.07.43.15.87.22,1.3.09.63.18,1.26.26,1.89,0,0,0,.09,0,.14.1.74.19,1.49.29,2.24A.75.75,0,0,1,43.21,139.15Z" fill="#003d28"/><path d="M41.92,127.38a.49.49,0,0,1-.43-.52c.07-1.1.17-2.19.28-3.29A40.37,40.37,0,0,1,51,99.46l0,0c5.5-6.56,13.72-13.29,22.69-13.25h-.05a9.89,9.89,0,0,1,1.33.18.19.19,0,0,1,.2.21.21.21,0,0,1-.22.17,41.16,41.16,0,0,0-6.38,1.63l.09,0c-11.67,4.48-20.44,15-24.09,26.79A52.9,52.9,0,0,0,42.44,127,.47.47,0,0,1,41.92,127.38Z" fill="#003d28"/><path d="M41.81,102.15a56.68,56.68,0,0,1,8.65-35l-.05.08.55-.88h0l0-.07a.35.35,0,0,1,0,.08,57.63,57.63,0,0,1,4.14-5.68l0,0,.07-.08h0l.06-.07h0l.26-.32h0l0-.06h0l.07-.09h0l.17-.21h0c3.83-4.36,7.92-9.11,13.4-11.32.26,0,.29.4,0,.41a28.81,28.81,0,0,0-4.68,3.64l0,0c-15.74,14.65-20.94,28.79-22.7,49.68Z" fill="#003d28"/><path d="M43.72,81.89a98.46,98.46,0,0,0-.94-10.27c.08-1.72.12-3.44.11-5.16a107.29,107.29,0,0,1,1.44,13.38c0,.67.07,1.35.1,2a.37.37,0,0,1-.34.37A.37.37,0,0,1,43.72,81.89Z" fill="#003d28"/><path d="M40.24,58.59c-.05-1.6-.09-3.19-.15-4.79l.33,1.28,0,.85v0h0c0,.67,0,1.35-.08,2h0V58h0v0h0v0h0l0,.68Z" fill="#003d28"/><path d="M39.63,56.14c-.13-.47-.25-1-.39-1.42.08-1,.17-2.07.26-3.11,0,.13.08.26.11.39,0,1.49.08,3,.1,4.47C39.68,56.36,39.66,56.25,39.63,56.14Z" fill="#003d28"/><path d="M38.64,52.59c-.28-1-.57-1.92-.87-2.87,0-.26-.09-2.29-.54-1.69-.16-.48-.32-1-.49-1.44.07-1.07.12-2.15.23-3.22.83,2.41,1.58,4.84,2.27,7.29-.11,1-.19,2.05-.27,3.08Z" fill="#003d28"/><path d="M36.45,45.76a65.59,65.59,0,0,0-7.26-15.15,30.43,30.43,0,0,0-2.81-3.69c-.25-.25.2-.6.38-.28,5,4.28,8,10.24,10.08,16.38-.11,1-.17,2.1-.24,3.16Z" fill="#003d28"/><path d="M43.43,83.13A55.51,55.51,0,0,0,39.4,73l0,0c-2.53-4.73-6.24-8.67-10.1-12.35A64.66,64.66,0,0,0,6.8,46.89a.15.15,0,0,1-.07-.29h0a34.55,34.55,0,0,1,9.74,3.08h0a46,46,0,0,1,9.62,6.22L26,55.84a91.57,91.57,0,0,1,8.66,8.29l-.06-.07a38,38,0,0,1,6.8,10.17,76.73,76.73,0,0,1,3.05,8.58A.54.54,0,0,1,43.43,83.13Z" fill="#003d28"/><path d="M43.84,53.41a18.4,18.4,0,0,1,2.27-5l0,0,0,0h0a48.71,48.71,0,0,1,7.8-8.81l0,0A74,74,0,0,1,59.68,35h0l.06,0h0l.54-.4h0a57.42,57.42,0,0,1,10.65-5.85.09.09,0,0,1,.07.16c-1.49.68-3,1.39-4.4,2.17h0A58.25,58.25,0,0,0,46.11,50.25h0l-.24.37,0,0c-.59.93-1.11,1.9-1.66,2.85A.2.2,0,0,1,43.84,53.41Z" fill="#003d28"/><path d="M44.15,40.68c0-.25-.06-.51-.1-.77a23.13,23.13,0,0,0-3.43-9.47,13.24,13.24,0,0,0-6.29-5.13,7.54,7.54,0,0,0-8.09,1.2A8.37,8.37,0,0,0,23.6,31.1c-.59,3,.46,6.13,1.74,8.87,2.83,5,8.33,17.22,14.28,18.16l.1,0a2.83,2.83,0,0,0,.51,0h.08l.15,0c1.34-.39,1.74-2.22,2-3.5a18.12,18.12,0,0,0,.86-2.37c.23-.85.42-1.72.57-2.58A29.8,29.8,0,0,0,44.15,40.68Z" fill="#72b45b"/><path d="M38.41,100.64c-3.06-.24-4.7-3.15-6-5.57-.92-1.64-1.91-3.23-2.89-4.84-2.65-4.55-10-15-5.39-19.74,2.38-3.37,7.66-.79,10.57.62a18.16,18.16,0,0,1,7.47,7.78h0l.09.16,0-.06C45.64,84.37,48.17,100.91,38.41,100.64Z" fill="#72b45b"/><path d="M42.54,115.19c-2.31-10.85-5.07-21.78-10.46-31.57l0,0,0-.07h0a44.86,44.86,0,0,0-7.81-10.73h0a.1.1,0,0,1-.05,0h0c-.07-.28.29-.11.4,0a35.34,35.34,0,0,1,8.08,9.35c6.43,10,9.46,21.83,10.81,33.58-.2.46-.42.92-.63,1.37C42.79,116.48,42.67,115.83,42.54,115.19Z" fill="#003d28"/><path d="M43.22,78.67c-.06-.79-.12-1.57-.19-2.35v0a126.61,126.61,0,0,0-2.87-15.93h0l0-.05h0l0-.08v0l-.06-.25v0c0-.07,0-.14,0-.21v0h0c-2.68-11.71-7.78-22.7-13.69-33.1v0a.86.86,0,0,0-.07-.1.14.14,0,0,1-.06-.23c.16-.13.35.07.47.17,2.81,3.16,4.46,7.16,6.39,10.87a83.05,83.05,0,0,1,7,19,154.91,154.91,0,0,1,3.41,20c.06.68.12,1.36.16,2a.24.24,0,0,1-.23.25A.23.23,0,0,1,43.22,78.67Z" fill="#003d28"/><path d="M41.76,147.75H40.52c-9.28-.09-24.89-1.05-25-6.47A1.49,1.49,0,0,1,17,139.74h0a1.5,1.5,0,0,1,1.5,1.47c.44,1.14,7.36,3.39,22,3.53h2.61c14.7-.13,21.63-2.39,22.08-3.57a1.47,1.47,0,0,1,1.49-1.45h0a1.51,1.51,0,0,1,1.46,1.55c-.12,5.43-15.75,6.39-25,6.47Z" fill="#131313"/><path d="M12.6,242.25a3,3,0,0,1-.51,0,2.83,2.83,0,0,1-2.37-3l5.81-98.07a1.48,1.48,0,0,1,1.59-1.41,1.5,1.5,0,0,1,1.4,1.59l-5.73,96.81c16.09-55.54,25.88-89.86,26.26-92a1.5,1.5,0,0,1,3,.13c0,.46,0,1.69-26.73,93.95A2.81,2.81,0,0,1,12.6,242.25Z" fill="#131313"/><path d="M71.25,242.25a2.8,2.8,0,0,1-2.72-2.06C41.8,147.93,41.8,146.71,41.8,146.24a1.5,1.5,0,0,1,3-.13c.38,2.17,10.17,36.5,26.26,92l-5.73-96.81a1.5,1.5,0,0,1,1.4-1.59,1.48,1.48,0,0,1,1.59,1.41l5.81,98.07a2.83,2.83,0,0,1-2.37,3A2.92,2.92,0,0,1,71.25,242.25Zm-26.45-96h0Z" fill="#131313"/></g></g></g></g></svg>