<svg xmlns="http://www.w3.org/2000/svg" viewBox="0 0 310.11 112.35"><g style="isolation:isolate"><g id="Layer_2" data-name="Layer 2"><g id="Layer_1-2" data-name="Layer 1"><g id="Props"><g id="fu_hanging_deco_1" data-name="fu_hanging deco 1"><circle cx="4.81" cy="4.81" r="4.81" fill="#606060"/><path d="M4.81,4.81s152.59,90.61,304.53,0" fill="none" stroke="#161616" stroke-miterlimit="10" stroke-width="3"/><line x1="32.36" y1="56.09" x2="32.36" y2="18.14" fill="none" stroke="#161616" stroke-miterlimit="10" stroke-width="3"/><polygon points="34.42 41.05 41.52 55.43 57.39 57.74 45.9 68.94 48.62 84.75 34.42 77.28 20.22 84.75 22.93 68.94 11.44 57.74 27.32 55.43 34.42 41.05" fill="#ff8955" opacity="0.2" style="mix-blend-mode:multiply"/><path d="M46.56,84.47a1.45,1.45,0,0,1-.7-.17l-13.5-7.1L18.85,84.3a1.44,1.44,0,0,1-.69.17,1.48,1.48,0,0,1-1.48-1.75l2.58-15L8.33,57a1.5,1.5,0,0,1,.83-2.56l15.1-2.2L31,38.6a1.5,1.5,0,0,1,2.69,0l6.75,13.68,15.1,2.2A1.5,1.5,0,0,1,56.38,57L45.46,67.68l2.57,15a1.5,1.5,0,0,1-.59,1.47A1.49,1.49,0,0,1,46.56,84.47Z" fill="#ffeb81"/><path d="M32.36,39.27l7.1,14.38L55.33,56,43.84,67.16,46.56,83l-14.2-7.46L18.16,83l2.71-15.81L9.38,56l15.88-2.31,7.1-14.38m0-3a3,3,0,0,0-2.69,1.67l-6.41,13L9,53a3,3,0,0,0-1.66,5.12l10.35,10.1L15.2,82.47a3,3,0,0,0,4.35,3.16l12.81-6.74,12.8,6.74a3,3,0,0,0,1.4.34,3,3,0,0,0,2.95-3.5L47.07,68.21l10.36-10.1A3,3,0,0,0,55.76,53L41.45,50.91l-6.4-13a3,3,0,0,0-2.69-1.67Z" fill="#ffaa5a"/><polygon points="46.56 82.97 43.84 67.16 55.33 55.96 39.46 53.66 32.36 39.27 32.36 75.5 46.56 82.97" fill="#ff8955" opacity="0.2" style="mix-blend-mode:multiply"/><line x1="70.17" y1="47.37" x2="70.17" y2="31.7" fill="none" stroke="#161616" stroke-miterlimit="10" stroke-width="3"/><polygon points="71.46 39.87 75.45 47.95 84.37 49.25 77.92 55.54 79.44 64.42 71.46 60.23 63.48 64.42 65.01 55.54 58.55 49.25 67.47 47.95 71.46 39.87" fill="#ff8955" opacity="0.2" style="mix-blend-mode:multiply"/><path d="M77.91,64.69a1.82,1.82,0,0,1-.83-.2L70.3,60.92l-6.77,3.57a1.85,1.85,0,0,1-.83.2,1.77,1.77,0,0,1-1.36-.63,1.8,1.8,0,0,1-.4-1.46l1.3-7.54-5.48-5.34a1.78,1.78,0,0,1,1-3l7.58-1.1,3.39-6.86a1.77,1.77,0,0,1,3.19,0l3.39,6.86,7.57,1.1a1.78,1.78,0,0,1,1,3l-5.48,5.34,1.3,7.55a1.81,1.81,0,0,1-.4,1.45A1.79,1.79,0,0,1,77.91,64.69Z" fill="#ffaa5a"/><path d="M70.3,39.22a.3.3,0,0,1,.26.16l3.67,7.44a.27.27,0,0,0,.21.15l8.21,1.2a.28.28,0,0,1,.15.48l-5.93,5.79a.28.28,0,0,0-.09.25l1.41,8.17a.29.29,0,0,1-.28.33.28.28,0,0,1-.13,0L70.44,59.3a.35.35,0,0,0-.14,0,.31.31,0,0,0-.13,0l-7.34,3.86a.31.31,0,0,1-.13,0,.29.29,0,0,1-.28-.33l1.4-8.17a.25.25,0,0,0-.08-.25L57.8,48.65a.28.28,0,0,1,.16-.48L66.17,47a.27.27,0,0,0,.21-.15l3.67-7.44a.28.28,0,0,1,.25-.16m0-3a3.27,3.27,0,0,0-2.94,1.83l-3,6.16-6.79,1a3.28,3.28,0,0,0-1.82,5.6l4.92,4.79-1.17,6.76a3.28,3.28,0,0,0,4.77,3.46l6.07-3.19,6.08,3.19a3.28,3.28,0,0,0,4.76-3.46L80,55.59,84.9,50.8a3.28,3.28,0,0,0-1.82-5.6l-6.79-1-3-6.16a3.27,3.27,0,0,0-3-1.83Z" fill="#d8833d"/><polygon points="78.28 63.43 76.76 54.54 83.22 48.25 74.29 46.95 70.3 38.87 70.3 59.23 78.28 63.43" fill="#ff8955" opacity="0.2" style="mix-blend-mode:multiply"/><line x1="106.19" y1="77.82" x2="106.19" y2="39.87" fill="none" stroke="#161616" stroke-miterlimit="10" stroke-width="3"/><polygon points="108.25 62.77 115.35 77.16 131.23 79.47 119.74 90.67 122.45 106.48 108.25 99.01 94.05 106.48 96.76 90.67 85.28 79.47 101.15 77.16 108.25 62.77" fill="#ff8955" opacity="0.2" style="mix-blend-mode:multiply"/><path d="M120.39,106.2a1.45,1.45,0,0,1-.7-.17l-13.5-7.1L92.69,106a1.45,1.45,0,0,1-.7.17,1.49,1.49,0,0,1-.88-.28,1.53,1.53,0,0,1-.6-1.47l2.58-15L82.17,78.77a1.5,1.5,0,0,1-.38-1.54,1.48,1.48,0,0,1,1.21-1L98.09,74l6.76-13.68a1.49,1.49,0,0,1,1.34-.83,1.51,1.51,0,0,1,1.35.83L114.29,74l15.09,2.2a1.47,1.47,0,0,1,1.21,1,1.51,1.51,0,0,1-.37,1.54L119.29,89.41l2.58,15a1.49,1.49,0,0,1-1.48,1.75Z" fill="#ffeb81"/><path d="M106.19,61l7.1,14.38,15.88,2.31-11.49,11.2,2.71,15.81-14.2-7.47L92,104.7,94.7,88.89,83.21,77.69l15.88-2.31L106.19,61m0-3a3,3,0,0,0-2.69,1.67l-6.4,13L82.78,74.72a3,3,0,0,0-1.66,5.12l10.36,10.1L89,104.2a3,3,0,0,0,4.36,3.16l12.8-6.74L119,107.36a3,3,0,0,0,1.39.34,3,3,0,0,0,3-3.5L120.9,89.94l10.36-10.1a3,3,0,0,0-1.66-5.12l-14.32-2.08-6.4-13A3,3,0,0,0,106.19,58Z" fill="#ffaa5a"/><polygon points="120.39 104.7 117.68 88.89 129.17 77.69 113.29 75.39 106.19 61 106.19 97.23 120.39 104.7" fill="#ff8955" opacity="0.2" style="mix-blend-mode:multiply"/><line x1="144" y1="60.58" x2="144" y2="44.9" fill="none" stroke="#161616" stroke-miterlimit="10" stroke-width="3"/><polygon points="145.3 53.07 149.29 61.16 158.21 62.45 151.75 68.75 153.28 77.63 145.3 73.44 137.32 77.63 138.84 68.75 132.39 62.45 141.31 61.16 145.3 53.07" fill="#ff8955" opacity="0.2" style="mix-blend-mode:multiply"/><path d="M151.74,77.9a1.76,1.76,0,0,1-.83-.21l-6.77-3.56-6.77,3.56a1.77,1.77,0,0,1-2.2-.43,1.75,1.75,0,0,1-.39-1.44l1.29-7.55-5.48-5.34a1.78,1.78,0,0,1,1-3l7.57-1.1,3.39-6.87a1.79,1.79,0,0,1,3.2,0l3.39,6.87,7.57,1.1a1.78,1.78,0,0,1,1,3l-5.48,5.34,1.29,7.54a1.79,1.79,0,0,1-1.76,2.09Z" fill="#ffaa5a"/><path d="M144.14,52.43a.27.27,0,0,1,.25.16L148.06,60a.28.28,0,0,0,.22.16l8.2,1.19a.28.28,0,0,1,.16.48l-5.94,5.79a.27.27,0,0,0-.08.25l1.4,8.18a.28.28,0,0,1-.28.33l-.13,0-7.34-3.86a.22.22,0,0,0-.13,0,.2.2,0,0,0-.13,0l-7.34,3.86-.13,0a.28.28,0,0,1-.28-.33l1.4-8.18a.29.29,0,0,0-.08-.25l-5.94-5.79a.28.28,0,0,1,.16-.48l8.2-1.19a.28.28,0,0,0,.22-.16l3.67-7.43a.27.27,0,0,1,.25-.16m0-3a3.25,3.25,0,0,0-2.94,1.83l-3,6.16-6.8,1a3.29,3.29,0,0,0-1.82,5.6l4.92,4.79-1.16,6.77a3.29,3.29,0,0,0,3.24,3.84,3.23,3.23,0,0,0,1.52-.38l6.08-3.19L150.22,79a3.23,3.23,0,0,0,1.52.38A3.29,3.29,0,0,0,155,75.56l-1.16-6.77L158.73,64a3.28,3.28,0,0,0-1.81-5.6l-6.8-1-3-6.16a3.25,3.25,0,0,0-2.94-1.83Z" fill="#d8833d"/><polygon points="152.12 76.63 150.59 67.75 157.05 61.45 148.13 60.16 144.14 52.07 144.14 72.44 152.12 76.63" fill="#ff8955" opacity="0.2" style="mix-blend-mode:multiply"/><line x1="180.03" y1="82.46" x2="180.03" y2="44.51" fill="none" stroke="#161616" stroke-miterlimit="10" stroke-width="3"/><polygon points="182.09 67.42 189.19 81.81 205.06 84.11 193.58 95.31 196.29 111.12 182.09 103.66 167.89 111.12 170.6 95.31 159.11 84.11 174.99 81.81 182.09 67.42" fill="#ff8955" opacity="0.2" style="mix-blend-mode:multiply"/><path d="M194.23,110.85a1.46,1.46,0,0,1-.7-.18l-13.5-7.1-13.5,7.1a1.46,1.46,0,0,1-.7.18,1.51,1.51,0,0,1-1.48-1.76l2.58-15L156,83.41a1.5,1.5,0,0,1,.84-2.56l15.09-2.19L178.68,65a1.49,1.49,0,0,1,1.35-.84h0a1.48,1.48,0,0,1,1.34.84l6.75,13.68,15.1,2.19a1.5,1.5,0,0,1,.83,2.56L193.13,94.06l2.58,15a1.53,1.53,0,0,1-.6,1.47A1.5,1.5,0,0,1,194.23,110.85Z" fill="#ffeb81"/><path d="M180,65.64,187.13,80,203,82.33l-11.48,11.2,2.71,15.82L180,101.88l-14.2,7.47,2.71-15.82-11.49-11.2L172.93,80,180,65.64m0-3a3,3,0,0,0-2.69,1.67l-6.4,13-14.32,2.08A3,3,0,0,0,155,84.48l10.36,10.1-2.45,14.26a3,3,0,0,0,1.19,2.93,3,3,0,0,0,1.77.58,3,3,0,0,0,1.39-.35L180,105.27l12.8,6.73a3,3,0,0,0,1.4.35,3,3,0,0,0,3-3.51l-2.44-14.26,10.36-10.1a3,3,0,0,0-1.66-5.11l-14.32-2.08-6.4-13A3,3,0,0,0,180,62.64Z" fill="#ffaa5a"/><polygon points="194.23 109.34 191.51 93.53 203 82.33 187.13 80.03 180.03 65.64 180.03 101.88 194.23 109.34" fill="#ff8955" opacity="0.2" style="mix-blend-mode:multiply"/><line x1="217.84" y1="55.4" x2="217.84" y2="39.72" fill="none" stroke="#161616" stroke-miterlimit="10" stroke-width="3"/><polygon points="219.13 47.89 223.12 55.98 232.04 57.27 225.59 63.56 227.11 72.45 219.13 68.25 211.15 72.45 212.68 63.56 206.22 57.27 215.14 55.98 219.13 47.89" fill="#ff8955" opacity="0.2" style="mix-blend-mode:multiply"/><path d="M225.58,72.72a1.73,1.73,0,0,1-.83-.21L218,69l-6.78,3.56a1.71,1.71,0,0,1-.83.21,1.77,1.77,0,0,1-1.36-.64,1.79,1.79,0,0,1-.4-1.44l1.3-7.55-5.48-5.34a1.78,1.78,0,0,1,1-3l7.57-1.1,3.39-6.87a1.78,1.78,0,0,1,3.19,0L223,53.61l7.58,1.1a1.78,1.78,0,0,1,1,3L226,63.09l1.3,7.54a1.8,1.8,0,0,1-1.76,2.09Z" fill="#ffaa5a"/><path d="M218,47.25a.27.27,0,0,1,.25.16l3.67,7.43a.26.26,0,0,0,.21.16l8.21,1.19a.28.28,0,0,1,.16.48l-5.94,5.79a.27.27,0,0,0-.08.25l1.4,8.18a.29.29,0,0,1-.28.33.31.31,0,0,1-.13,0l-7.34-3.87a.31.31,0,0,0-.13,0,.35.35,0,0,0-.14,0l-7.34,3.87a.28.28,0,0,1-.13,0,.29.29,0,0,1-.28-.33l1.41-8.18a.3.3,0,0,0-.09-.25l-5.94-5.79a.28.28,0,0,1,.16-.48L213.84,55a.26.26,0,0,0,.21-.16l3.67-7.43a.27.27,0,0,1,.26-.16m0-3A3.27,3.27,0,0,0,215,46.08l-3,6.16-6.79,1a3.29,3.29,0,0,0-1.82,5.6l4.92,4.79-1.16,6.77a3.28,3.28,0,0,0,4.76,3.46L218,70.65l6.07,3.19a3.27,3.27,0,0,0,4-.79,3.23,3.23,0,0,0,.72-2.67l-1.16-6.77,4.92-4.79a3.29,3.29,0,0,0-1.82-5.6l-6.79-1-3-6.16A3.27,3.27,0,0,0,218,44.25Z" fill="#d8833d"/><polygon points="225.96 71.45 224.43 62.57 230.89 56.27 221.97 54.98 217.98 46.89 217.98 67.26 225.96 71.45" fill="#ff8955" opacity="0.2" style="mix-blend-mode:multiply"/><line x1="253.86" y1="68.13" x2="253.86" y2="30.18" fill="none" stroke="#161616" stroke-miterlimit="10" stroke-width="3"/><polygon points="255.92 53.09 263.02 67.47 278.9 69.78 267.41 80.98 270.12 96.79 255.92 89.32 241.72 96.79 244.44 80.98 232.95 69.78 248.82 67.47 255.92 53.09" fill="#ff8955" opacity="0.2" style="mix-blend-mode:multiply"/><path d="M239.66,96.51a1.49,1.49,0,0,1-.88-.28,1.53,1.53,0,0,1-.6-1.47l2.58-15L229.84,69.08a1.5,1.5,0,0,1,.83-2.56l15.1-2.2,6.75-13.68a1.49,1.49,0,0,1,1.34-.83h0a1.5,1.5,0,0,1,1.35.83L262,64.32l15.1,2.2a1.5,1.5,0,0,1,.83,2.56L267,79.72l2.58,15a1.5,1.5,0,0,1-.59,1.47,1.54,1.54,0,0,1-.89.28,1.41,1.41,0,0,1-.69-.17l-13.51-7.1-13.5,7.1A1.45,1.45,0,0,1,239.66,96.51Z" fill="#ffeb81"/><path d="M253.86,51.31,261,65.7,276.84,68,265.35,79.2,268.06,95l-14.2-7.46L239.66,95l2.72-15.81L230.89,68l15.87-2.3,7.1-14.39m0-3A3,3,0,0,0,251.17,50l-6.4,13L230.46,65a3,3,0,0,0-2.43,2,3,3,0,0,0,.76,3.07l10.36,10.1-2.44,14.26a3,3,0,0,0,4.35,3.16l12.8-6.73,12.81,6.73A3,3,0,0,0,271,94.51l-2.45-14.26,10.36-10.1A3,3,0,0,0,277.27,65L263,63l-6.41-13a3,3,0,0,0-2.69-1.67Z" fill="#ffaa5a"/><polygon points="268.06 95.01 265.35 79.2 276.84 68 260.96 65.7 253.86 51.31 253.86 87.55 268.06 95.01" fill="#ff8955" opacity="0.2" style="mix-blend-mode:multiply"/><line x1="291.67" y1="31.01" x2="291.67" y2="15.33" fill="none" stroke="#161616" stroke-miterlimit="10" stroke-width="3"/><polygon points="292.97 23.5 296.96 31.59 305.88 32.88 299.42 39.17 300.95 48.06 292.97 43.87 284.99 48.06 286.51 39.17 280.06 32.88 288.98 31.59 292.97 23.5" fill="#ff8955" opacity="0.2" style="mix-blend-mode:multiply"/><path d="M299.42,48.33a1.71,1.71,0,0,1-.83-.21l-6.78-3.56L285,48.12a1.73,1.73,0,0,1-.83.21,1.78,1.78,0,0,1-1.76-2.08l1.29-7.55-5.48-5.34a1.78,1.78,0,0,1,1-3l7.58-1.1,3.38-6.87a1.79,1.79,0,0,1,3.2,0l3.39,6.87,7.57,1.1a1.78,1.78,0,0,1,1,3l-5.48,5.34,1.29,7.54a1.79,1.79,0,0,1-1.75,2.09Z" fill="#ffaa5a"/><path d="M291.81,22.86a.27.27,0,0,1,.25.16l3.68,7.43a.26.26,0,0,0,.21.16l8.21,1.19a.28.28,0,0,1,.15.48l-5.94,5.79a.33.33,0,0,0-.08.25l1.4,8.18a.28.28,0,0,1-.27.33.35.35,0,0,1-.14,0l-7.34-3.86a.2.2,0,0,0-.13,0,.22.22,0,0,0-.13,0l-7.34,3.86a.31.31,0,0,1-.13,0,.28.28,0,0,1-.28-.33l1.4-8.18a.27.27,0,0,0-.08-.25l-5.94-5.79a.28.28,0,0,1,.16-.48l8.2-1.19a.27.27,0,0,0,.22-.16L291.56,23a.27.27,0,0,1,.25-.16m0-3a3.25,3.25,0,0,0-2.94,1.83l-3,6.16-6.79,1a3.29,3.29,0,0,0-1.82,5.6l4.91,4.79L281,46a3.28,3.28,0,0,0,4.77,3.46l6.07-3.19,6.08,3.19A3.28,3.28,0,0,0,302.65,46l-1.16-6.77,4.92-4.79a3.29,3.29,0,0,0-1.82-5.6l-6.8-1-3-6.16a3.25,3.25,0,0,0-2.94-1.83Z" fill="#d8833d"/><polygon points="299.79 47.06 298.27 38.18 304.72 31.88 295.8 30.59 291.81 22.5 291.81 42.87 299.79 47.06" fill="#ff8955" opacity="0.2" style="mix-blend-mode:multiply"/></g></g></g></g></g></svg>