<svg xmlns="http://www.w3.org/2000/svg" viewBox="0 0 14.7 43.8"><g id="Layer_2" data-name="Layer 2"><g id="Layer_1-2" data-name="Layer 1"><g id="Props"><g id="fu_book_4" data-name="fu_book 4"><path d="M13,1.5l-1.6-.2a27.5,27.5,0,0,0-8.1,0l-1.6.2a.8.8,0,0,0-.7.8V41.5a.8.8,0,0,0,.7.8l1.6.2a27.5,27.5,0,0,0,8.1,0l1.6-.2a.8.8,0,0,0,.7-.8V2.3A.8.8,0,0,0,13,1.5Z" style="fill:#e8a4d2"/><path d="M13,1.5l-1.6-.2a27.5,27.5,0,0,0-8.1,0l-1.6.2a.8.8,0,0,0-.7.8V6.7a.8.8,0,0,1,.7-.8l1.6-.2a27.5,27.5,0,0,1,8.1,0l1.6.2a.8.8,0,0,1,.7.8V2.3A.8.8,0,0,0,13,1.5Z" style="fill:#00a6e7"/><path d="M1.7,42.3l1.6.2a27.5,27.5,0,0,0,8.1,0l1.6-.2a.8.8,0,0,0,.7-.8V37.1a.8.8,0,0,1-.7.8l-1.6.3a36.6,36.6,0,0,1-8.1,0l-1.6-.3a.8.8,0,0,1-.7-.8v4.4A.8.8,0,0,0,1.7,42.3Z" style="fill:#00a6e7"/><path d="M10.7,22.2c0,6.3-1.6,11.4-3.5,11.4S3.8,28.5,3.8,22.2,5.4,10.8,7.2,10.8,10.7,15.9,10.7,22.2Z" style="fill:#ffe76b"/><path d="M7.3,1a27.3,27.3,0,0,1,4.1.3l1.6.2h.3a.8.8,0,0,1,.4.7h0V41.5h0a.8.8,0,0,1-.7.8l-1.4.2h-.2a27.3,27.3,0,0,1-4.1.3,26.9,26.9,0,0,1-4-.3l-1.6-.2a.8.8,0,0,1-.7-.8V2.1a.3.3,0,0,0,.1-.2h.1l.2-.2h.3l1.6-.2a26.9,26.9,0,0,1,4-.3m0-1A28.3,28.3,0,0,0,3.2.3L1.6.5,1,.7l-.5.4-.2.3a.5.5,0,0,0-.2.4.7.7,0,0,0-.1.5V41.5a1.8,1.8,0,0,0,1.6,1.8l1.6.2a28.3,28.3,0,0,0,4.1.3,28.6,28.6,0,0,0,4.2-.3h.2l1.4-.2a1.8,1.8,0,0,0,1.6-1.8V2.3a1.9,1.9,0,0,0-1-1.6L13.1.5,11.5.3A28.6,28.6,0,0,0,7.3,0Z" style="fill:#84205c"/></g></g></g></g></svg>