<svg xmlns="http://www.w3.org/2000/svg" viewBox="0 0 145.1 52.96"><g id="Layer_2" data-name="Layer 2"><g id="Layer_1-2" data-name="Layer 1"><g id="Props"><g id="fu_dishes_rack" data-name="fu_dishes rack"><path d="M104.6,10.34l-.2,24.91H43V10.35H40.78V46.52A6.45,6.45,0,0,0,47.23,53H100a6.46,6.46,0,0,0,6.44-6.35l.36-36.24Zm-.23,27.12-.11,7.93a5.46,5.46,0,0,1-5.44,5.37H48.43A5.45,5.45,0,0,1,43,45.31V37.46Z" fill="#e2c6a0"/><path d="M105.49,18.35a2.58,2.58,0,0,1-2.59-2.58V11.38H44.47v4.39a2.59,2.59,0,0,1-5.17,0V11.38H13.63A6.52,6.52,0,0,1,2,10.43L1.84,10A6.27,6.27,0,0,1,1.5,8a6.38,6.38,0,0,1,.34-2L2,5.68l0,0a6.52,6.52,0,0,1,11.66-1H131.48a6.47,6.47,0,0,1,5.59-3.18,7,7,0,0,1,1.37.14,6.53,6.53,0,0,1-1.37,12.92,6.47,6.47,0,0,1-5.59-3.18H108.07v4.39A2.58,2.58,0,0,1,105.49,18.35Z" fill="#924f28"/><path d="M8,3A5,5,0,0,1,12.7,6.18H132.4A5,5,0,0,1,137.07,3a5.63,5.63,0,0,1,1.07.11,5,5,0,1,1-5.74,6.77H106.57v5.89a1.09,1.09,0,0,1-2.17,0V9.88H43v5.89a1.08,1.08,0,0,1-1.09,1.08h0a1.08,1.08,0,0,1-1.08-1.08V9.88H12.7a5,5,0,0,1-9.34,0l-.09-.3A4.94,4.94,0,0,1,3,8a5,5,0,0,1,.27-1.55l.09-.3A5,5,0,0,1,8,3m129-3a8,8,0,0,0-6.39,3.18H14.42A8,8,0,0,0,.57,5.07l0,.11,0,.11-.1.3A8,8,0,0,0,0,8a7.92,7.92,0,0,0,.42,2.48l.08.26,0,.11,0,.11a8,8,0,0,0,13.86,1.89H37.8v2.89a4.09,4.09,0,0,0,8.17,0V12.88H101.4v2.89a4.09,4.09,0,0,0,8.17,0V12.88h21.11a8,8,0,0,0,12.63.21A8,8,0,0,0,138.75.17,8.7,8.7,0,0,0,137.07,0Z" fill="#6a3417"/></g></g></g></g></svg>