<svg xmlns="http://www.w3.org/2000/svg" viewBox="0 0 152.21 131.52"><g id="Layer_2" data-name="Layer 2"><g id="Layer_1-2" data-name="Layer 1"><g id="Props"><g id="fu_cat_house_1" data-name="fu_cat house 1"><g id="cat_house_1" data-name="cat house 1"><g id="VC_inside"><path d="M119.68,22.43a28.36,28.36,0,0,0-.34-8.37c-1-5.65-5.2-9.95-7.63-12a1.94,1.94,0,0,0-2.95.54,24,24,0,0,0-3.16,11.33,68.94,68.94,0,0,0-63.37,2.22C43,10.5,40.47,5.17,38.86,2.45a1.93,1.93,0,0,0-3-.45c-2.37,2.16-6.41,6.59-7.26,12.27a25.47,25.47,0,0,0,.48,10.9C12.27,39.52,1.5,60.63,1.5,81.51,1.5,118.28,34.9,130,76.1,130s74.61-11.74,74.61-48.51C150.71,59.26,138.47,36.74,119.68,22.43Z" fill="#f5753c"/><path d="M76.1,131.52c-49.78,0-76.1-17.3-76.1-50C0,60.82,10.23,39.63,27.42,24.66A28.26,28.26,0,0,1,27.15,14C28.08,7.9,32.39,3.17,34.89.9A3.44,3.44,0,0,1,37.71,0a3.4,3.4,0,0,1,2.44,1.65,25.58,25.58,0,0,1,3.71,11.86,70.3,70.3,0,0,1,60.35-1.93,27.29,27.29,0,0,1,3.24-9.78,3.41,3.41,0,0,1,5.23-.95c2.57,2.19,7,6.79,8.14,12.9a30.63,30.63,0,0,1,.44,8c19.11,14.87,31,37.69,31,59.76C152.21,114.22,125.89,131.52,76.1,131.52ZM37.2,3a.42.42,0,0,0-.29.11c-2.2,2-6,6.15-6.79,11.38a24.29,24.29,0,0,0,.43,10.24l.29.95-.75.63C13.13,40.76,3,61.4,3,81.51c0,31.19,24.6,47,73.1,47s73.11-15.82,73.11-47c0-21.41-11.66-43.59-30.44-57.89l-.68-.52.1-.85a27.14,27.14,0,0,0-.32-7.92c-1-5.2-4.88-9.23-7.14-11.17a.41.41,0,0,0-.36-.09.4.4,0,0,0-.29.21,22.59,22.59,0,0,0-3,10.59l0,2.38-2.16-1a67.47,67.47,0,0,0-62,2.17l-2.61,1.44.4-3c.71-5.17-1.68-10.17-3.17-12.69A.47.47,0,0,0,37.26,3Z" fill="#f64a0e"/><path d="M131.73,83.1c0,26.26-23.86,34.65-53.3,34.65S25.14,109.36,25.14,83.1,49,30,78.43,30,131.73,56.83,131.73,83.1Z" fill="#7c5a4d"/></g><path d="M131.73,83.1c0,26.26-23.86,34.65-53.3,34.65S25.14,109.36,25.14,83.1c0-7.48,23.86,13.46,53.29,13.46S131.73,74.12,131.73,83.1Z" fill="#f7efbe"/><g id="VC_outline"><path d="M78.43,119.25c-35.84,0-54.79-12.5-54.79-36.15,0-25.75,23.43-54.56,54.79-54.56s54.8,28.81,54.8,54.56C133.23,106.75,114.28,119.25,78.43,119.25Zm0-87.71c-29.64,0-51.79,27.22-51.79,51.56,0,22,17.43,33.15,51.79,33.15s51.8-11.15,51.8-33.15C130.23,58.76,108.08,31.54,78.43,31.54Z" fill="#f64a0e"/></g></g></g></g></g></g></svg>