<svg xmlns="http://www.w3.org/2000/svg" xmlns:xlink="http://www.w3.org/1999/xlink" width="673.51" height="264.51" viewBox="0 0 673.51 264.51"><defs><clipPath id="clip-path"><path d="M592.36,151.65a3.89,3.89,0,0,0-2.47-.9,5.51,5.51,0,0,0-.7.06A83.9,83.9,0,0,1,574,152.13c-16.47,0-33.72-4.22-50.4-8.3-17.31-4.23-35.19-8.59-52.93-8.59-18.74,0-35.09,5-49.92,15.16a263.72,263.72,0,0,0-167.55,0c-14.83-10.19-31.18-15.16-49.92-15.16-17.74,0-35.63,4.36-52.92,8.59-16.69,4.08-33.95,8.3-50.41,8.3a83.12,83.12,0,0,1-15.18-1.32,5.36,5.36,0,0,0-.69-.06,3.87,3.87,0,0,0-3.86,3.87v70a3.86,3.86,0,0,0,5.49,3.51,82.22,82.22,0,0,1,35.33-7.42c15.79,0,32.08,3.59,47.83,7.06,16.16,3.56,32.87,7.24,49.5,7.24A90.47,90.47,0,0,0,254,228.21a3.85,3.85,0,0,0,2.36-3.56v-7.91H417.59v7.91a3.86,3.86,0,0,0,2.37,3.56A90.35,90.35,0,0,0,455.6,235h0c16.64,0,33.35-3.68,49.51-7.24,15.75-3.47,32-7.06,47.82-7.06a82.22,82.22,0,0,1,35.33,7.42,3.87,3.87,0,0,0,5.49-3.51v-70A3.86,3.86,0,0,0,592.36,151.65Z" fill="none"/></clipPath><symbol id="New_Symbol_42" data-name="New Symbol 42" viewBox="0 0 513.08 66.13"><path d="M430.85,43.69a1.37,1.37,0,1,1,1.93.13A1.37,1.37,0,0,1,430.85,43.69Z" fill="#eca4a6"/><path d="M487.11,50.78a1.93,1.93,0,1,1-2.67.58A1.93,1.93,0,0,1,487.11,50.78Z" fill="#e7c585"/><path d="M438.52,66.13a1.11,1.11,0,0,1-.11-1.56,1.09,1.09,0,0,1,1.55-.11,1.11,1.11,0,0,1,.11,1.56" fill="#e7c585"/><path d="M506.71,36.58a1.93,1.93,0,1,1-2.38-1.32A1.92,1.92,0,0,1,506.71,36.58Z" fill="silver"/><path d="M486.7,61.66a5,5,0,0,1,6.35,3.18" fill="#eca4a6"/><path d="M478.81,38.25a1.93,1.93,0,1,1,2.59.86A1.93,1.93,0,0,1,478.81,38.25Z" fill="silver"/><path d="M461.34,62.24a1.37,1.37,0,1,1,1.31-1.42A1.36,1.36,0,0,1,461.34,62.24Z" fill="#c9e8e4"/><path d="M475.79,3.82a5,5,0,1,1-3.18,6.35A5,5,0,0,1,475.79,3.82Z" fill="silver"/><path d="M428.25,13.42a1.1,1.1,0,1,1-1.28-.89A1.1,1.1,0,0,1,428.25,13.42Z" fill="#c9e8e4"/><path d="M500.13,8.39a1.11,1.11,0,1,1-1.29-.89A1.11,1.11,0,0,1,500.13,8.39Z" fill="#e7c585"/><path d="M456.86,4.35a1.37,1.37,0,1,1,1.61,1.08A1.38,1.38,0,0,1,456.86,4.35Z" fill="#eca4a6"/><path d="M474.21,51.27a1.37,1.37,0,0,1,.9,2.59,1.37,1.37,0,0,1-.9-2.59Z" fill="silver"/><path d="M443.71,35.08a1.93,1.93,0,1,1,.46-2.69A1.93,1.93,0,0,1,443.71,35.08Z" fill="#eca4a6"/><path d="M440.6,14.35a1.1,1.1,0,0,1,.48-1.48,1.1,1.1,0,1,1-.48,1.48Z" fill="silver"/><path d="M432.6,59.23a1.93,1.93,0,1,1-.73,2.63A1.92,1.92,0,0,1,432.6,59.23Z" fill="#c9e8e4"/><path d="M467.54,13.69a1.94,1.94,0,0,1-2.46,1.18,1.93,1.93,0,1,1,2.46-1.18Z" fill="#c9e8e4"/><path d="M503,53.16a1.93,1.93,0,1,1-2.7-.36A1.92,1.92,0,0,1,503,53.16Z" fill="#c9e8e4"/><path d="M450.1,54.69A5,5,0,1,1,452,47.85,5,5,0,0,1,450.1,54.69Z" fill="#c9e8e4"/><path d="M510.52,28.07a5,5,0,1,1,1.91-6.85A5,5,0,0,1,510.52,28.07Z" fill="#e7c585"/><path d="M430.47,35.51a5,5,0,1,1,5-5A5,5,0,0,1,430.47,35.51Z" fill="#eca4a6"/><path d="M483.36,22.49a1.37,1.37,0,1,1,1.52,1.19A1.36,1.36,0,0,1,483.36,22.49Z" fill="#eca4a6"/><path d="M460.33,37.13a1.93,1.93,0,1,1-1.7,2.13A1.92,1.92,0,0,1,460.33,37.13Z" fill="#c9e8e4"/><path d="M454,21.92a1.37,1.37,0,1,1-1.82-2.05A1.37,1.37,0,0,1,454,21.92Z" fill="silver"/><path d="M474.79,27.7a1.93,1.93,0,1,1-1.34-2.37A1.93,1.93,0,0,1,474.79,27.7Z" fill="#eca4a6"/><path d="M490,40.56a1.1,1.1,0,1,1-1.54.26A1.1,1.1,0,0,1,490,40.56Z" fill="#c9e8e4"/><path d="M496.56,18.52a1.1,1.1,0,1,1,.08,1.56A1.11,1.11,0,0,1,496.56,18.52Z" fill="silver"/><path d="M292.34,43.69a1.37,1.37,0,1,1,1.93.13A1.36,1.36,0,0,1,292.34,43.69Z" fill="#eca4a6"/><path d="M348.59,50.78a1.93,1.93,0,1,1-2.66.58A1.93,1.93,0,0,1,348.59,50.78Z" fill="#e7c585"/><path d="M300,66.13a1.11,1.11,0,1,1,1.56-.11" fill="#e7c585"/><path d="M400.38,61.22a1.37,1.37,0,0,1-1.55-1.16A1.35,1.35,0,0,1,400,58.52a1.36,1.36,0,1,1,.39,2.7Z" fill="#eca4a6"/><path d="M380.87,61.89a1.93,1.93,0,1,1-1,2.54A1.92,1.92,0,0,1,380.87,61.89Z" fill="#eca4a6"/><path d="M402,36a5,5,0,1,1-6.22-3.44A5,5,0,0,1,402,36Z" fill="#e7c585"/><path d="M368.2,36.58a1.93,1.93,0,1,1-2.39-1.32A1.93,1.93,0,0,1,368.2,36.58Z" fill="silver"/><path d="M382.43,8.58a1.11,1.11,0,1,1,.94-1.25A1.11,1.11,0,0,1,382.43,8.58Z" fill="silver"/><path d="M348.18,61.66a5,5,0,0,1,6.36,3.18" fill="#eca4a6"/><path d="M410.53,45.78a1.93,1.93,0,1,1,1.22-2.44A1.93,1.93,0,0,1,410.53,45.78Z" fill="#c9e8e4"/><path d="M340.3,38.25a1.93,1.93,0,1,1,2.58.86A1.92,1.92,0,0,1,340.3,38.25Z" fill="silver"/><path d="M406.66,16a1.1,1.1,0,0,1,1.39.7,1.11,1.11,0,1,1-1.39-.7Z" fill="#e7c585"/><path d="M322.83,62.24a1.37,1.37,0,1,1,1.31-1.42A1.37,1.37,0,0,1,322.83,62.24Z" fill="#c9e8e4"/><path d="M373.11,49.21a5,5,0,1,1-3.18,6.35A5,5,0,0,1,373.11,49.21Z" fill="silver"/><path d="M337.28,3.82a5,5,0,1,1-3.18,6.35A5,5,0,0,1,337.28,3.82Z" fill="silver"/><path d="M289.74,13.42a1.1,1.1,0,1,1-1.28-.89A1.1,1.1,0,0,1,289.74,13.42Z" fill="#c9e8e4"/><path d="M361.61,8.39a1.1,1.1,0,1,1-1.28-.89A1.1,1.1,0,0,1,361.61,8.39Z" fill="#e7c585"/><path d="M318.35,4.35A1.37,1.37,0,1,1,320,5.43,1.37,1.37,0,0,1,318.35,4.35Z" fill="#eca4a6"/><path d="M387.44,46.36a1.93,1.93,0,1,1,2.5-1.08A1.93,1.93,0,0,1,387.44,46.36Z" fill="#eca4a6"/><path d="M335.7,51.27a1.37,1.37,0,1,1-.85,1.74A1.37,1.37,0,0,1,335.7,51.27Z" fill="silver"/><path d="M391.68,21a1.37,1.37,0,0,1,1.74.85,1.37,1.37,0,1,1-2.59.89A1.37,1.37,0,0,1,391.68,21Z" fill="silver"/><path d="M305.19,35.08a1.93,1.93,0,1,1,.47-2.69A1.94,1.94,0,0,1,305.19,35.08Z" fill="#eca4a6"/><path d="M418,57.11a1.37,1.37,0,1,1-.22-1.92A1.36,1.36,0,0,1,418,57.11Z" fill="silver"/><path d="M302.08,14.35a1.1,1.1,0,1,1,1.49.49A1.11,1.11,0,0,1,302.08,14.35Z" fill="silver"/><path d="M294.08,59.23a1.93,1.93,0,0,1,2.63.74,1.93,1.93,0,0,1-3.36,1.89A1.94,1.94,0,0,1,294.08,59.23Z" fill="#c9e8e4"/><path d="M329,13.69a1.93,1.93,0,1,1-1.18-2.46A1.93,1.93,0,0,1,329,13.69Z" fill="#c9e8e4"/><path d="M364.46,53.16a1.93,1.93,0,1,1-2.7-.36A1.94,1.94,0,0,1,364.46,53.16Z" fill="#c9e8e4"/><circle cx="416.91" cy="30.5" r="1.37" transform="translate(28.81 185.81) rotate(-26)" fill="#eca4a6"/><path d="M311.59,54.69a5,5,0,1,1,1.9-6.84A5,5,0,0,1,311.59,54.69Z" fill="#c9e8e4"/><path d="M372,28.07a5,5,0,1,1,1.9-6.85A5,5,0,0,1,372,28.07Z" fill="#e7c585"/><path d="M292,35.51a5,5,0,1,1,5-5A5,5,0,0,1,292,35.51Z" fill="#eca4a6"/><path d="M344.85,22.49a1.37,1.37,0,1,1,1.52,1.19A1.37,1.37,0,0,1,344.85,22.49Z" fill="#eca4a6"/><path d="M321.82,37.13a1.93,1.93,0,1,1-1.7,2.13A1.93,1.93,0,0,1,321.82,37.13Z" fill="#c9e8e4"/><path d="M315.51,21.92a1.37,1.37,0,1,1,.12-1.93A1.37,1.37,0,0,1,315.51,21.92Z" fill="silver"/><path d="M336.27,27.7a1.93,1.93,0,1,1-1.33-2.37A1.92,1.92,0,0,1,336.27,27.7Z" fill="#eca4a6"/><path d="M351.49,40.56a1.1,1.1,0,0,1,.26,1.54,1.12,1.12,0,0,1-1.54.26,1.1,1.1,0,1,1,1.28-1.8Z" fill="#c9e8e4"/><path d="M377.42,33.66a1.93,1.93,0,1,1,2.08,1.76A1.92,1.92,0,0,1,377.42,33.66Z" fill="#c9e8e4"/><path d="M396.14.49a1.37,1.37,0,1,1-1.93-.17A1.38,1.38,0,0,1,396.14.49Z" fill="#eca4a6"/><path d="M358.05,18.52a1.1,1.1,0,1,1,.07,1.56A1.11,1.11,0,0,1,358.05,18.52Z" fill="silver"/><path d="M153.83,43.69a1.37,1.37,0,1,1,1.93.13A1.36,1.36,0,0,1,153.83,43.69Z" fill="#eca4a6"/><path d="M210.08,50.78a1.93,1.93,0,1,1-2.67.58A1.93,1.93,0,0,1,210.08,50.78Z" fill="#e7c585"/><path d="M161.49,66.13a1.11,1.11,0,1,1,1.56-.11" fill="#e7c585"/><path d="M261.86,61.22a1.36,1.36,0,0,1-.38-2.7,1.36,1.36,0,1,1,.38,2.7Z" fill="#eca4a6"/><path d="M242.36,61.89a1.93,1.93,0,1,1-1,2.54A1.93,1.93,0,0,1,242.36,61.89Z" fill="#eca4a6"/><path d="M263.47,36a5,5,0,1,1-6.22-3.44A5,5,0,0,1,263.47,36Z" fill="#e7c585"/><path d="M229.69,36.58a1.93,1.93,0,1,1-2.39-1.32A1.93,1.93,0,0,1,229.69,36.58Z" fill="silver"/><path d="M243.91,8.58a1.11,1.11,0,1,1,1-1.25A1.12,1.12,0,0,1,243.91,8.58Z" fill="silver"/><path d="M209.67,61.66A5,5,0,0,1,216,64.84" fill="#eca4a6"/><path d="M272,45.78a1.93,1.93,0,1,1,1.22-2.44A1.93,1.93,0,0,1,272,45.78Z" fill="#c9e8e4"/><path d="M201.78,38.25a1.93,1.93,0,1,1,2.59.86A1.94,1.94,0,0,1,201.78,38.25Z" fill="silver"/><path d="M268.14,16a1.11,1.11,0,1,1-.7,1.39A1.11,1.11,0,0,1,268.14,16Z" fill="#e7c585"/><path d="M184.32,62.24a1.37,1.37,0,1,1-.12-2.73,1.38,1.38,0,0,1,1.43,1.31A1.36,1.36,0,0,1,184.32,62.24Z" fill="#c9e8e4"/><path d="M234.6,49.21a5,5,0,1,1-3.18,6.35A5,5,0,0,1,234.6,49.21Z" fill="silver"/><path d="M198.77,3.82a5,5,0,1,1-3.18,6.35A5,5,0,0,1,198.77,3.82Z" fill="silver"/><path d="M151.23,13.42a1.11,1.11,0,1,1-1.29-.89A1.1,1.1,0,0,1,151.23,13.42Z" fill="#c9e8e4"/><path d="M223.1,8.39a1.1,1.1,0,1,1-1.28-.89A1.1,1.1,0,0,1,223.1,8.39Z" fill="#e7c585"/><path d="M179.83,4.35a1.37,1.37,0,1,1,1.61,1.08A1.38,1.38,0,0,1,179.83,4.35Z" fill="#eca4a6"/><path d="M248.92,46.36a1.93,1.93,0,1,1,2.51-1.08A1.94,1.94,0,0,1,248.92,46.36Z" fill="#eca4a6"/><path d="M197.18,51.27a1.37,1.37,0,1,1,.9,2.59,1.37,1.37,0,0,1-.9-2.59Z" fill="silver"/><path d="M253.16,21a1.37,1.37,0,0,1,.9,2.59,1.37,1.37,0,0,1-.9-2.59Z" fill="silver"/><path d="M166.68,35.08a1.93,1.93,0,1,1,.47-2.69A1.94,1.94,0,0,1,166.68,35.08Z" fill="#eca4a6"/><path d="M279.47,57.11a1.37,1.37,0,1,1-.23-1.92A1.37,1.37,0,0,1,279.47,57.11Z" fill="silver"/><path d="M163.57,14.35a1.1,1.1,0,1,1,1.49.49A1.1,1.1,0,0,1,163.57,14.35Z" fill="silver"/><path d="M155.57,59.23a1.93,1.93,0,1,1-.73,2.63A1.93,1.93,0,0,1,155.57,59.23Z" fill="#c9e8e4"/><path d="M190.51,13.69a1.93,1.93,0,1,1-1.18-2.46A1.93,1.93,0,0,1,190.51,13.69Z" fill="#c9e8e4"/><path d="M226,53.16a1.93,1.93,0,0,1-3.06,2.35A1.93,1.93,0,1,1,226,53.16Z" fill="#c9e8e4"/><circle cx="278.39" cy="30.5" r="1.37" transform="translate(14.8 125.1) rotate(-26)" fill="#eca4a6"/><path d="M173.08,54.69a5,5,0,1,1,1.9-6.84A5,5,0,0,1,173.08,54.69Z" fill="#c9e8e4"/><path d="M233.5,28.07a5,5,0,1,1,1.9-6.85A5,5,0,0,1,233.5,28.07Z" fill="#e7c585"/><path d="M153.44,35.51a5,5,0,1,1,5-5A5,5,0,0,1,153.44,35.51Z" fill="#eca4a6"/><path d="M206.34,22.49a1.37,1.37,0,1,1,1.52,1.19A1.36,1.36,0,0,1,206.34,22.49Z" fill="#eca4a6"/><path d="M183.3,37.13a1.93,1.93,0,1,1-1.69,2.13A1.91,1.91,0,0,1,183.3,37.13Z" fill="#c9e8e4"/><path d="M177,21.92a1.37,1.37,0,1,1,.11-1.93A1.35,1.35,0,0,1,177,21.92Z" fill="silver"/><path d="M197.76,27.7a1.93,1.93,0,1,1-1.34-2.37A1.93,1.93,0,0,1,197.76,27.7Z" fill="#eca4a6"/><path d="M213,40.56a1.11,1.11,0,1,1-1.54.26A1.1,1.1,0,0,1,213,40.56Z" fill="#c9e8e4"/><path d="M238.9,33.66A1.93,1.93,0,1,1,241,35.42,1.93,1.93,0,0,1,238.9,33.66Z" fill="#c9e8e4"/><path d="M257.62.49A1.37,1.37,0,1,1,255.7.32,1.35,1.35,0,0,1,257.62.49Z" fill="#eca4a6"/><path d="M219.54,18.52a1.1,1.1,0,1,1,.07,1.56A1.11,1.11,0,0,1,219.54,18.52Z" fill="silver"/><path d="M15.32,43.69a1.36,1.36,0,1,1,1.93.13A1.36,1.36,0,0,1,15.32,43.69Z" fill="#eca4a6"/><path d="M71.57,50.78a1.93,1.93,0,1,1-2.67.58A1.95,1.95,0,0,1,71.57,50.78Z" fill="#e7c585"/><path d="M23,66.13a1.11,1.11,0,0,1-.11-1.56A1.11,1.11,0,0,1,24.54,66" fill="#e7c585"/><path d="M123.35,61.22a1.36,1.36,0,1,1,1.16-1.54A1.35,1.35,0,0,1,123.35,61.22Z" fill="#eca4a6"/><path d="M103.85,61.89a1.93,1.93,0,1,1-1,2.54A1.93,1.93,0,0,1,103.85,61.89Z" fill="#eca4a6"/><path d="M125,36a5,5,0,1,1-6.21-3.44A5,5,0,0,1,125,36Z" fill="#e7c585"/><path d="M91.17,36.58a1.93,1.93,0,1,1-2.38-1.32A1.92,1.92,0,0,1,91.17,36.58Z" fill="silver"/><path d="M105.4,8.58a1.1,1.1,0,0,1-1.24-1,1.1,1.1,0,1,1,2.18-.3A1.1,1.1,0,0,1,105.4,8.58Z" fill="silver"/><path d="M71.16,61.66a5,5,0,0,1,6.35,3.18" fill="#eca4a6"/><path d="M133.51,45.78a1.93,1.93,0,1,1,1.22-2.44A1.92,1.92,0,0,1,133.51,45.78Z" fill="#c9e8e4"/><path d="M63.27,38.25a1.93,1.93,0,1,1,2.59.86A1.94,1.94,0,0,1,63.27,38.25Z" fill="silver"/><path d="M129.63,16a1.11,1.11,0,1,1-.7,1.39A1.1,1.1,0,0,1,129.63,16Z" fill="#e7c585"/><path d="M45.8,62.24a1.37,1.37,0,1,1,1.31-1.42A1.36,1.36,0,0,1,45.8,62.24Z" fill="#c9e8e4"/><path d="M96.09,49.21a5,5,0,1,1-3.18,6.35A5,5,0,0,1,96.09,49.21Z" fill="silver"/><path d="M60.26,3.82a5,5,0,1,1-3.19,6.35A5,5,0,0,1,60.26,3.82Z" fill="silver"/><path d="M12.71,13.42a1.1,1.1,0,1,1-1.28-.89A1.1,1.1,0,0,1,12.71,13.42Z" fill="#c9e8e4"/><path d="M84.59,8.39A1.11,1.11,0,1,1,83.3,7.5,1.1,1.1,0,0,1,84.59,8.39Z" fill="#e7c585"/><path d="M41.32,4.35a1.37,1.37,0,1,1,1.61,1.08A1.38,1.38,0,0,1,41.32,4.35Z" fill="#eca4a6"/><path d="M110.41,46.36a1.93,1.93,0,1,1,2.51-1.08A1.94,1.94,0,0,1,110.41,46.36Z" fill="#eca4a6"/><path d="M58.67,51.27A1.37,1.37,0,1,1,57.83,53,1.37,1.37,0,0,1,58.67,51.27Z" fill="silver"/><path d="M114.65,21a1.37,1.37,0,0,1,.9,2.59,1.37,1.37,0,1,1-.9-2.59Z" fill="silver"/><path d="M28.17,35.08a1.93,1.93,0,1,1,.46-2.69A1.94,1.94,0,0,1,28.17,35.08Z" fill="#eca4a6"/><path d="M141,57.11a1.36,1.36,0,0,1-1.92.23,1.37,1.37,0,1,1,1.92-.23Z" fill="silver"/><path d="M25.06,14.35a1.1,1.1,0,0,1,2-1,1.1,1.1,0,1,1-2,1Z" fill="silver"/><path d="M17.06,59.23a1.93,1.93,0,1,1-.73,2.63A1.94,1.94,0,0,1,17.06,59.23Z" fill="#c9e8e4"/><path d="M52,13.69a1.94,1.94,0,0,1-2.46,1.18A1.93,1.93,0,1,1,52,13.69Z" fill="#c9e8e4"/><path d="M87.43,53.16a1.93,1.93,0,1,1-2.7-.36A1.92,1.92,0,0,1,87.43,53.16Z" fill="#c9e8e4"/><circle cx="139.88" cy="30.5" r="1.37" transform="translate(0.78 64.39) rotate(-26)" fill="#eca4a6"/><path d="M34.56,54.69a5,5,0,1,1,1.91-6.84A5,5,0,0,1,34.56,54.69Z" fill="#c9e8e4"/><path d="M95,28.07a5,5,0,1,1,1.91-6.85A5,5,0,0,1,95,28.07Z" fill="#e7c585"/><path d="M14.93,35.51a5,5,0,1,1,5-5A5,5,0,0,1,14.93,35.51Z" fill="#eca4a6"/><path d="M67.82,22.49a1.37,1.37,0,1,1,1.52,1.19A1.36,1.36,0,0,1,67.82,22.49Z" fill="#eca4a6"/><path d="M44.79,37.13a1.93,1.93,0,1,1-1.7,2.13A1.93,1.93,0,0,1,44.79,37.13Z" fill="#c9e8e4"/><path d="M38.49,21.92A1.37,1.37,0,1,1,38.6,20,1.37,1.37,0,0,1,38.49,21.92Z" fill="silver"/><path d="M59.25,27.7a1.93,1.93,0,1,1-1.34-2.37A1.93,1.93,0,0,1,59.25,27.7Z" fill="#eca4a6"/><path d="M74.46,40.56a1.1,1.1,0,0,1,.26,1.54,1.1,1.1,0,1,1-1.8-1.28A1.1,1.1,0,0,1,74.46,40.56Z" fill="#c9e8e4"/><path d="M100.39,33.66a1.93,1.93,0,1,1,2.08,1.76A1.93,1.93,0,0,1,100.39,33.66Z" fill="#c9e8e4"/><path d="M119.11.49A1.37,1.37,0,1,1,117,2.25a1.38,1.38,0,0,1,.17-1.93A1.37,1.37,0,0,1,119.11.49Z" fill="#eca4a6"/><path d="M81,18.52a1.1,1.1,0,1,1,.08,1.56A1.11,1.11,0,0,1,81,18.52Z" fill="silver"/><path d="M2.44,57.11a1.36,1.36,0,0,1-1.92.23,1.37,1.37,0,1,1,1.92-.23Z" fill="silver"/><circle cx="1.37" cy="30.5" r="1.37" transform="translate(-13.23 3.69) rotate(-26)" fill="#eca4a6"/></symbol></defs><g id="Layer_2" data-name="Layer 2"><g id="Layer_1-2" data-name="Layer 1"><g id="Props"><g id="fu_big_sofa" data-name="fu_big sofa"><path d="M108.13,263h0a7,7,0,0,1-6.61-9.24l7.93-23.37a7,7,0,0,1,6.62-4.74h4.63A7,7,0,0,1,126.85,236l-12.56,23.38A7,7,0,0,1,108.13,263Z" fill="#e69d56"/><path d="M108.13,264.51a8.49,8.49,0,0,1-8-11.22L108,229.91a8.48,8.48,0,0,1,8-5.75h4.63a8.48,8.48,0,0,1,7.47,12.5L115.61,260A8.51,8.51,0,0,1,108.13,264.51Zm7.94-37.35a5.49,5.49,0,0,0-5.2,3.72l-7.93,23.38a5.49,5.49,0,0,0,5.19,7.25,5.47,5.47,0,0,0,4.83-2.89l12.57-23.38a5.48,5.48,0,0,0-4.83-8.08Z" fill="#773822"/><path d="M565.86,263h0a7,7,0,0,0,6.61-9.24l-7.93-23.37a7,7,0,0,0-6.62-4.74h-4.63A7,7,0,0,0,547.14,236l12.56,23.38A7,7,0,0,0,565.86,263Z" fill="#e69d56"/><path d="M565.86,264.51a8.49,8.49,0,0,1-7.48-4.47l-12.56-23.38a8.48,8.48,0,0,1,7.47-12.5h4.63a8.48,8.48,0,0,1,8,5.75l7.93,23.38a8.49,8.49,0,0,1-8,11.22Zm-12.57-37.35a5.48,5.48,0,0,0-4.83,8.08L561,258.62a5.48,5.48,0,0,0,9.29.59,5.4,5.4,0,0,0,.73-4.95l-7.93-23.38a5.49,5.49,0,0,0-5.2-3.72Z" fill="#773822"/><path d="M252.54,159.87H83.63c0-27.45-9.6-53.62-19.26-79.78C55.87,59,71.57,35.3,97.62,28.2A1084.25,1084.25,0,0,1,240.86,5.74C246.88,77.93,252.54,118.41,252.54,159.87Z" fill="#d0f9ff"/><path d="M254,161.37H82.13v-1.5c0-27.37-9.74-53.75-19.16-79.26a34.32,34.32,0,0,1,1.46-28.39c5.94-12,18.2-21.49,32.79-25.46A1088.41,1088.41,0,0,1,240.72,4.25l1.5-.14.13,1.51c1.9,22.75,3.77,42.45,5.42,59.83,3.64,38.29,6.27,66,6.27,94.42Zm-168.92-3H251c-.09-27.8-2.69-55.1-6.25-92.64-1.62-17-3.45-36.23-5.3-58.36A1085.44,1085.44,0,0,0,98,29.67C84.23,33.41,72.68,42.34,67.12,53.56a31.39,31.39,0,0,0-1.36,26C75.12,104.87,84.78,131,85.12,158.37Z" fill="#3b7e80"/><path d="M421,159.87H252.07c0-41.46-5.7-81.94-11.75-154.08a1083.85,1083.85,0,0,1,192.34,0C426.64,77.93,421,118.41,421,159.87Z" fill="#d0f9ff"/><path d="M422.47,161.37H250.57v-1.5c0-28.31-2.64-55.91-6.29-94.12-1.66-17.38-3.55-37.08-5.46-59.84l-.12-1.48,1.48-.14a1087.84,1087.84,0,0,1,192.61,0l1.49.13-.13,1.49c-1.9,22.82-3.77,42.56-5.43,60-3.63,38.16-6.25,65.73-6.25,94Zm-168.91-3H419.48c.09-27.9,2.68-55.23,6.25-92.8,1.62-17,3.45-36.29,5.31-58.47a1085.66,1085.66,0,0,0-189.1.05c1.86,22.11,3.7,41.32,5.32,58.32C250.86,103.08,253.47,130.44,253.56,158.37Z" fill="#3b7e80"/><path d="M589.89,159.87H421c0-41.46,5.67-81.94,11.69-154.13A1084.51,1084.51,0,0,1,575.9,28.2c26,7.1,41.74,30.84,33.24,51.89C599.48,106.25,589.89,132.42,589.89,159.87Z" fill="#d0f9ff"/><path d="M591.39,161.37H419.47v-1.5c0-28.43,2.63-56.07,6.27-94.32,1.65-17.41,3.52-37.14,5.42-59.93l.13-1.51,1.5.14A1087,1087,0,0,1,576.23,26.74c14.66,4,26.92,13.51,32.85,25.48a34.29,34.29,0,0,1,1.45,28.43c-9.4,25.47-19.14,51.85-19.14,79.22Zm-168.91-3H588.4c.34-27.36,10-53.5,19.34-78.8a31.39,31.39,0,0,0-1.34-26c-5.57-11.22-17.11-20.15-30.9-23.91A1086.4,1086.4,0,0,0,434,7.37c-1.86,22.18-3.69,41.43-5.31,58.46C425.16,103.33,422.57,130.6,422.48,158.37Z" fill="#3b7e80"/><path d="M244.91,159.87H89.53c0-22.12-8.82-43.2-17.71-64.28C64,78.63,78.44,59.5,102.4,53.78a1129,1129,0,0,1,131.76-18.1C239.7,93.85,244.91,126.47,244.91,159.87Z" fill="#98d9e4"/><path d="M414.19,159.87H258.81c0-33.4-5.24-66-10.81-124.15a1137.17,1137.17,0,0,1,176.93,0C419.4,93.85,414.19,126.47,414.19,159.87Z" fill="#98d9e4"/><path d="M584,159.87H428.61c0-33.4,5.21-66,10.74-124.19a1129.44,1129.44,0,0,1,131.77,18.1c24,5.72,38.4,24.85,30.58,41.81C592.81,116.67,584,137.75,584,159.87Z" fill="#98d9e4"/><path d="M254,161.37H82.13v-1.5c0-27.37-9.74-53.75-19.16-79.26a34.32,34.32,0,0,1,1.46-28.39c5.94-12,18.2-21.49,32.79-25.46A1088.41,1088.41,0,0,1,240.72,4.25l1.5-.14.13,1.51c1.9,22.75,3.77,42.45,5.42,59.83,3.64,38.29,6.27,66,6.27,94.42Zm-168.92-3H251c-.09-27.8-2.69-55.1-6.25-92.64-1.62-17-3.45-36.23-5.3-58.36A1085.44,1085.44,0,0,0,98,29.67C84.23,33.41,72.68,42.34,67.12,53.56a31.39,31.39,0,0,0-1.36,26C75.12,104.87,84.78,131,85.12,158.37Z" fill="#3b7e80"/><path d="M422.47,161.37H250.57v-1.5c0-28.31-2.64-55.91-6.29-94.12-1.66-17.38-3.55-37.08-5.46-59.84l-.12-1.48,1.48-.14a1087.84,1087.84,0,0,1,192.61,0l1.49.13-.13,1.49c-1.9,22.82-3.77,42.56-5.43,60-3.63,38.16-6.25,65.73-6.25,94Zm-168.91-3H419.48c.09-27.9,2.68-55.23,6.25-92.8,1.62-17,3.45-36.29,5.31-58.47a1085.66,1085.66,0,0,0-189.1.05c1.86,22.11,3.7,41.32,5.32,58.32C250.86,103.08,253.47,130.44,253.56,158.37Z" fill="#3b7e80"/><path d="M591.39,161.37H419.47v-1.5c0-28.43,2.63-56.07,6.27-94.32,1.65-17.41,3.52-37.14,5.42-59.93l.13-1.51,1.5.14A1087,1087,0,0,1,576.23,26.74c14.66,4,26.92,13.51,32.85,25.48a34.29,34.29,0,0,1,1.45,28.43c-9.4,25.47-19.14,51.85-19.14,79.22Zm-168.91-3H588.4c.34-27.36,10-53.5,19.34-78.8a31.39,31.39,0,0,0-1.34-26c-5.57-11.22-17.11-20.15-30.9-23.91A1086.4,1086.4,0,0,0,434,7.37c-1.86,22.18-3.69,41.43-5.31,58.46C425.16,103.33,422.57,130.6,422.48,158.37Z" fill="#3b7e80"/><path d="M593.75,154.61v48.66H80.24V154.61a3.87,3.87,0,0,1,3.86-3.86,4,4,0,0,1,.69.06A84,84,0,0,0,100,152.12c16.47,0,33.72-4.22,50.41-8.29,17.29-4.23,35.18-8.6,52.92-8.6,18.74,0,35.09,5,49.93,15.17a263.69,263.69,0,0,1,167.54,0c14.83-10.19,31.18-15.17,49.92-15.17,17.74,0,35.62,4.37,52.93,8.6,16.68,4.07,33.94,8.29,50.4,8.29a83.92,83.92,0,0,0,15.17-1.31,4.14,4.14,0,0,1,.7-.06,3.87,3.87,0,0,1,3.86,3.86Z" fill="#fff9db"/><path d="M593.32,150.49a5.37,5.37,0,0,0-3.43-1.24,6.89,6.89,0,0,0-1,.08A82.27,82.27,0,0,1,574,150.62c-16.29,0-33.45-4.19-50-8.25-17.38-4.25-35.35-8.64-53.28-8.64-18.79,0-35.2,4.91-50.15,15a265.23,265.23,0,0,0-167.08,0c-15-10.1-31.37-15-50.16-15-17.94,0-35.91,4.39-53.31,8.65-16.59,4.05-33.75,8.24-50,8.24A82.44,82.44,0,0,1,85,149.33a6,6,0,0,0-.93-.08,5.36,5.36,0,0,0-5.36,5.36v48.66h3V154.61a2.37,2.37,0,0,1,2.36-2.36c.15,0,.3,0,.42,0A85.12,85.12,0,0,0,100,153.62c16.63,0,34-4.23,50.76-8.34,17.2-4.2,35-8.55,52.57-8.55,18.42,0,34.48,4.88,49.08,14.9l.61.43.71-.24a262.24,262.24,0,0,1,166.59,0l.71.24.62-.43c14.6-10,30.65-14.9,49.07-14.9,17.57,0,35.36,4.35,52.57,8.55,16.77,4.1,34.11,8.34,50.76,8.34a85.75,85.75,0,0,0,15.41-1.33l.41,0a2.43,2.43,0,0,1,1.56.54,2.35,2.35,0,0,1,.85,1.81v48.66h3V154.61A5.36,5.36,0,0,0,593.32,150.49Z" fill="#3b7e80"/><g clip-path="url(#clip-path)"><use width="513.08" height="66.13" transform="translate(76.44 121.39)" xlink:href="#New_Symbol_42"/></g><path d="M592.36,169.35a10.3,10.3,0,0,0-2.47-.28l-.7,0c-4.84.27-9.8.4-15.17.4-16.47,0-33.72-1.29-50.4-2.53-17.31-1.3-35.19-2.63-52.93-2.63-18.73,0-35.07,1.53-49.9,4.64a842,842,0,0,0-167.59,0c-14.83-3.11-31.17-4.64-49.9-4.64-17.74,0-35.63,1.33-52.92,2.63-16.69,1.24-33.95,2.53-50.41,2.53-5.37,0-10.34-.13-15.18-.4l-.69,0a10.18,10.18,0,0,0-2.47.28c-.88.22-1.39.55-1.39.9v56.3c0,.4.67.78,1.79,1a10.48,10.48,0,0,0,2.07.19,12.28,12.28,0,0,0,1.63-.11,249.8,249.8,0,0,1,35.33-2.27c15.79,0,32.08,1.1,47.83,2.16,16.16,1.09,32.87,2.22,49.5,2.22A280,280,0,0,0,254,227.64c1.43-.19,2.36-.61,2.36-1.09v-2.42H417.59v2.42c0,.48.94.9,2.37,1.09a279.65,279.65,0,0,0,35.64,2.09h0c16.64,0,33.35-1.13,49.51-2.22,15.75-1.06,32-2.16,47.82-2.16a249.8,249.8,0,0,1,35.33,2.27,12.28,12.28,0,0,0,1.63.11,10.48,10.48,0,0,0,2.07-.19c1.12-.21,1.79-.59,1.79-1v-56.3C593.75,169.9,593.24,169.57,592.36,169.35Z" fill="#a6ebf2"/><path d="M455.6,231.23a280.92,280.92,0,0,1-35.83-2.1c-3-.39-3.68-1.62-3.68-2.58v-.92H257.9v.92c0,1-.64,2.19-3.67,2.58a281.2,281.2,0,0,1-35.84,2.1c-16.67,0-33.39-1.13-49.57-2.22-15.74-1.06-32-2.16-47.76-2.16a248.29,248.29,0,0,0-35.12,2.26,13.67,13.67,0,0,1-4.2-.09c-2.48-.49-3-1.61-3-2.47v-56.3c0-.64.33-1.8,2.52-2.36a13.27,13.27,0,0,1,3.61-.3c4.81.27,9.75.4,15.1.4,16.4,0,33.61-1.28,50.26-2.53,17.34-1.29,35.23-2.63,53.07-2.63,18.7,0,35,1.51,50,4.63a842.4,842.4,0,0,1,167.43,0c14.93-3.12,31.28-4.63,50-4.63,17.83,0,35.73,1.34,53,2.63C540.39,166.7,557.61,168,574,168c5.33,0,10.27-.13,15.09-.4a13.2,13.2,0,0,1,3.62.3c2.19.56,2.52,1.72,2.52,2.36v56.3c0,.86-.52,2-3,2.47a13.67,13.67,0,0,1-4.2.09,248.19,248.19,0,0,0-35.12-2.26c-15.76,0-32,1.1-47.72,2.16C489,230.1,472.28,231.23,455.6,231.23Zm-36.51-5.3a6.06,6.06,0,0,0,1.06.22,276.66,276.66,0,0,0,35.45,2.08c16.57,0,33.24-1.12,49.36-2.21,15.81-1.07,32.11-2.17,48-2.17a251.13,251.13,0,0,1,35.54,2.29,10.63,10.63,0,0,0,3.2-.07c.25,0,.44-.1.58-.14V170.87l-.26-.07h0a10,10,0,0,0-2.72-.21c-4.87.27-9.86.4-15.25.4-16.52,0-33.8-1.29-50.51-2.54-17.26-1.29-35.11-2.62-52.82-2.62-18.58,0-34.81,1.51-49.59,4.61l-.23.05-.23,0a839,839,0,0,0-167.29,0l-.23,0-.23-.05c-14.78-3.1-31-4.61-49.59-4.61-17.73,0-35.56,1.33-52.81,2.62-16.74,1.25-34,2.54-50.52,2.54-5.41,0-10.4-.13-15.26-.4a10,10,0,0,0-2.71.21l-.26.08v55.05l.57.14a10.72,10.72,0,0,0,3.21.07,251.13,251.13,0,0,1,35.54-2.29c15.87,0,32.17,1.1,47.93,2.17,16.16,1.09,32.83,2.21,49.4,2.21a277,277,0,0,0,35.46-2.08,5.9,5.9,0,0,0,1.05-.22v-3.3H419.09Z" fill="#3b7e80"/><path d="M238,208.21a3.85,3.85,0,0,1-3.86-3.86V168l10.56-17.16A3.86,3.86,0,0,1,248.6,147h7.21a3.86,3.86,0,0,1,3.86,3.86l-10.56,17.43v36.09a3.86,3.86,0,0,1-3.87,3.86Z" fill="#7ac7e0"/><path d="M427.94,208.21a3.85,3.85,0,0,1-3.86-3.86V168.26l-10.57-17.43a3.86,3.86,0,0,1,3.86-3.86h7.22a3.86,3.86,0,0,1,3.86,3.86L439,168.26v36.09a3.85,3.85,0,0,1-3.86,3.86Z" fill="#7ac7e0"/><path d="M652.21,150l-10.51,66.3a19.07,19.07,0,0,1-18.83,16.08h-39l-.1-77.72a3.91,3.91,0,0,1,1.34-2.94l27.27-23.84a23.7,23.7,0,0,1,15.82-6,24.1,24.1,0,0,1,17,7A24.63,24.63,0,0,1,652.21,150Z" fill="#66c0ca"/><path d="M622.87,233.85H582.35l-.1-79.21a5.43,5.43,0,0,1,1.85-4.08l27.27-23.84a25.23,25.23,0,0,1,16.81-6.37,25.66,25.66,0,0,1,18,7.38,26.07,26.07,0,0,1,7.48,22.47h0L643.18,216.5A20.48,20.48,0,0,1,622.87,233.85Zm-37.52-3h37.52A17.49,17.49,0,0,0,640.22,216l10.51-66.28a23.05,23.05,0,0,0-6.64-19.88,22.63,22.63,0,0,0-15.91-6.52A22.26,22.26,0,0,0,613.35,129l-27.27,23.85a2.4,2.4,0,0,0-.83,1.81Z" fill="#3b7e80"/><path d="M88,154.64l-.19,77.71H48.86A19.06,19.06,0,0,1,30,216.27L19.51,150a24.54,24.54,0,0,1,24-28.12,23.73,23.73,0,0,1,15.83,6l27.26,23.83A4,4,0,0,1,88,154.64Z" fill="#66c0ca"/><path d="M89.28,233.85H48.86A20.49,20.49,0,0,1,28.54,216.5L18,150.21a26,26,0,0,1,25.51-29.86,25.26,25.26,0,0,1,16.83,6.38l27.25,23.83a5.42,5.42,0,0,1,1.85,4.09ZM43.54,123.35A23,23,0,0,0,21,149.73L31.51,216a17.49,17.49,0,0,0,17.35,14.82H86.28l.19-76.21a2.42,2.42,0,0,0-.83-1.83L58.38,129A22.24,22.24,0,0,0,43.54,123.35Z" fill="#3b7e80"/><path d="M75.85,165l.54-.75.55-.75.55-.75L78,162l.55-.75c.19-.25.36-.5.54-.75l.55-.75c.19-.25.37-.5.55-.76l.54-.74c.19-.25.37-.5.55-.76s.37-.49.55-.75.36-.5.54-.75.37-.5.55-.75A37.81,37.81,0,0,0,33.1,100.16l-.8.47-.81.47c-.27.15-.54.3-.8.46l-.8.47-.81.47-.8.47c-.27.15-.54.3-.8.47l-.81.46-.8.47-.8.47c-.27.15-.54.3-.81.47l-.8.46-.8.47-.8.47a40.73,40.73,0,1,0,53.44,59Z" fill="#66c0ca"/><path d="M42.24,184.21a42.23,42.23,0,0,1-21.14-78.8l.56-.32.25-.15.58-.34.22-.13.53-.31.27-.15c.17-.11.38-.22.58-.34l.23-.13c.15-.1.34-.2.53-.31l.26-.16.6-.34.21-.13.56-.32.24-.14.59-.35.22-.12c.17-.11.37-.22.58-.34l.22-.13.57-.33.23-.14.57-.33.24-.13.55-.33.25-.14.55-.32.25-.15.58-.34.23-.13a39.3,39.3,0,0,1,51.79,57.28l-.08.11c-.15.22-.3.43-.46.64l0,.06-.5.69-.08.11c-.15.22-.3.43-.46.64l-.08.1c-.15.22-.31.44-.47.65l-.08.11c-.15.22-.31.43-.46.64l-.09.12c-.15.21-.31.43-.47.63l-.08.12c-.15.21-.3.43-.46.63l-.09.13c-.15.21-.3.42-.46.62l-.09.13-.45.62-.09.13c-.15.21-.3.42-.46.62l-.09.13-.45.62-.12.17-.43.58-.08.12-.45.62L77,166l-.45.62A42.41,42.41,0,0,1,42.24,184.21ZM52.78,96.13a36.28,36.28,0,0,0-18.9,5.31l-.27.16c-.18.1-.36.2-.53.31l-.3.17c-.17.1-.34.19-.5.3l-.3.17q-.26.14-.51.3l-.27.15-.53.31-.28.17a5.39,5.39,0,0,0-.52.3l-.27.15-.54.32-.26.15-.54.32-.29.16-.51.3-.26.15-.55.32-.31.18-.49.29-.27.15-.54.32-.3.17-.5.29-.26.16-.54.31-.29.17-.51.3a39.23,39.23,0,1,0,51.44,56.87l.43-.58.14-.2c.14-.18.28-.38.42-.57l.1-.15c.16-.2.29-.38.41-.56l.14-.19.43-.58.12-.17.43-.59.11-.16c.16-.21.3-.4.43-.59l.12-.16.43-.58.12-.17.43-.59.11-.16c.17-.22.31-.41.44-.6l.11-.15.44-.61.11-.14.45-.62.09-.13c.17-.22.31-.41.45-.61l.1-.14.47-.65.07-.1c.17-.22.31-.41.44-.61l.11-.14A36.3,36.3,0,0,0,52.78,96.13Z" fill="#3b7e80"/><path d="M651,106.34l-1.51-.88c-.49-.3-1-.59-1.5-.87s-1-.6-1.51-.88-1-.59-1.51-.88-1-.59-1.5-.87-1-.6-1.51-.88-1-.59-1.51-.88a37.8,37.8,0,0,0-49.79,55.19c.33.47.67.94,1,1.4s.68,1,1,1.41.67,1,1,1.41.67.94,1,1.4.67,1,1,1.41.68,1,1,1.41.67.94,1,1.41A40.73,40.73,0,1,0,651,106.34Z" fill="#66c0ca"/><path d="M631.27,184.21a42.32,42.32,0,0,1-34.65-18.12c-.32-.42-.68-.91-1-1.4s-.68-.92-1-1.41-.68-.91-1-1.41-.68-.91-1-1.4-.68-.92-1-1.41-.68-.91-1-1.41-.68-.91-1-1.41a38.84,38.84,0,0,1-8.05-23.79,39.31,39.31,0,0,1,59.86-33.52c.47.26,1,.56,1.5.87s1,.56,1.51.88,1,.56,1.51.88,1,.56,1.5.87,1,.56,1.51.88,1,.56,1.51.88,1,.55,1.48.86a42.24,42.24,0,0,1-20.51,79.16ZM620.73,96.13a36.29,36.29,0,0,0-28.86,58.35c.36.51.69,1,1,1.4s.68,1,1,1.41.69,1,1,1.41.68,1,1,1.4.69,1,1,1.41.68,1,1,1.41.69,1,1,1.4a39.23,39.23,0,1,0,51.25-56.67l0,0c-.48-.29-1-.57-1.46-.84s-1-.61-1.5-.88-1-.61-1.51-.88-1-.6-1.51-.87-1-.61-1.5-.88-1-.61-1.51-.88-1-.6-1.5-.87A36.26,36.26,0,0,0,620.73,96.13Z" fill="#3b7e80"/><path d="M42.24,182.71A40.75,40.75,0,1,1,83,142,40.79,40.79,0,0,1,42.24,182.71Z" fill="#96d7e2"/><path d="M42.24,184.21A42.25,42.25,0,1,1,84.49,142,42.3,42.3,0,0,1,42.24,184.21Zm0-81.49A39.25,39.25,0,1,0,81.49,142,39.28,39.28,0,0,0,42.24,102.72Z" fill="#3b7e80"/><path d="M42.24,168.11A26.15,26.15,0,1,1,68.39,142,26.18,26.18,0,0,1,42.24,168.11Z" fill="#fff9db"/><path d="M42.24,150.65A8.69,8.69,0,1,1,50.93,142,8.7,8.7,0,0,1,42.24,150.65Z" fill="#7ac7e0"/><path d="M631.27,182.71A40.75,40.75,0,1,1,672,142,40.8,40.8,0,0,1,631.27,182.71Z" fill="#96d7e2"/><path d="M631.27,184.21A42.25,42.25,0,1,1,673.51,142,42.3,42.3,0,0,1,631.27,184.21Zm0-81.49A39.25,39.25,0,1,0,670.51,142,39.29,39.29,0,0,0,631.27,102.72Z" fill="#3b7e80"/><path d="M631.27,168.11A26.15,26.15,0,1,1,657.42,142,26.18,26.18,0,0,1,631.27,168.11Z" fill="#fff9db"/><path d="M631.27,150.65A8.69,8.69,0,1,1,640,142,8.7,8.7,0,0,1,631.27,150.65Z" fill="#7ac7e0"/><path d="M94.38,238a14.49,14.49,0,0,1,0-29H579.61a14.49,14.49,0,0,1,0,29Z" fill="#fff2b1"/><path d="M579.61,239.49H94.38a16,16,0,0,1,0-32H579.61a16,16,0,0,1,0,32Zm-485.23-29a13,13,0,0,0,0,26H579.61a13,13,0,0,0,0-26Z" fill="#cca476"/></g></g></g></g></svg>