<svg xmlns="http://www.w3.org/2000/svg" xmlns:xlink="http://www.w3.org/1999/xlink" width="165.7" height="651.28" viewBox="0 0 165.7 651.28"><defs><symbol id="New_Symbol_45" data-name="New Symbol 45" viewBox="0 0 102.96 257.37"><path d="M99,4A1.26,1.26,0,0,1,99,1.5,1.26,1.26,0,0,1,99,4Z" fill="#ff966c" fill-rule="evenodd"/><path d="M98.57,5.44c1.19-3.22,2.87,9.49,2.91,10.48s-.19.84-1.11.84c-1.17-.3-4.53.89-4.45-.93,0-2.13,1.91-8.38,2.65-10.39Z" fill="#ff966c" fill-rule="evenodd"/><path d="M88.83,5.75a1.24,1.24,0,0,1,0-2.48,1.24,1.24,0,0,1,0,2.48Z" fill="#ff966c" fill-rule="evenodd"/><path d="M88.41,7.21c1.19-3.36,2.89,9.51,2.91,10.48s-.19.84-1.11.84c-1.21-.37-4.5.89-4.41-1,0-2.06,1.88-8.39,2.61-10.35Z" fill="#ff966c" fill-rule="evenodd"/><path d="M66.74,15.39a1.26,1.26,0,0,1,0-2.52,1.26,1.26,0,0,1,0,2.52Z" fill="#ff966c" fill-rule="evenodd"/><path d="M66.36,16.81c1.19-3.22,2.87,9.49,2.91,10.48s-.19.84-1.11.84c-1.17-.31-4.53.88-4.45-.93,0-2.13,1.91-8.38,2.65-10.39Z" fill="#ff966c" fill-rule="evenodd"/><path d="M77.74,9.15a1.24,1.24,0,0,1,0-2.47,1.24,1.24,0,0,1,0,2.47Z" fill="#ff966c" fill-rule="evenodd"/><path d="M77.32,10.61c1.17-3.41,2.9,9.47,2.92,10.44s-.19.89-1.12.84c-1.16-.3-4.5.93-4.41-.92,0-2.08,1.87-8.43,2.61-10.36Z" fill="#ff966c" fill-rule="evenodd"/><path d="M60.79,28.75a1.26,1.26,0,0,1,0-2.52,1.26,1.26,0,0,1,0,2.52Z" fill="#ff966c" fill-rule="evenodd"/><path d="M60.41,30.16c1.17-3.31,2.88,9.46,2.92,10.49s-.2.84-1.12.84c-1.15-.29-4.5.85-4.44-.93,0-2.1,1.89-8.4,2.64-10.4Z" fill="#ff966c" fill-rule="evenodd"/><path d="M78.44,52.33a1.24,1.24,0,0,1,0-2.48,1.24,1.24,0,0,1,0,2.48Z" fill="#ff966c" fill-rule="evenodd"/><path d="M78.05,53.79c1.19-3.3,2.9,9.48,2.92,10.48s-.2.84-1.12.84c-1.2-.37-4.52.89-4.41-1,0-2.06,1.88-8.39,2.61-10.35Z" fill="#ff966c" fill-rule="evenodd"/><path d="M70.27,42.82a1.27,1.27,0,0,1,0-2.53,1.27,1.27,0,0,1,0,2.53Z" fill="#ff966c" fill-rule="evenodd"/><path d="M69.88,44.23c1.19-3.22,2.88,9.49,2.92,10.49s-.19.84-1.11.84c-1.17-.31-4.53.88-4.45-.93,0-2.14,1.9-8.39,2.64-10.4Z" fill="#ff966c" fill-rule="evenodd"/><path d="M82.08,74.89a1.26,1.26,0,0,1,0-2.52,1.26,1.26,0,0,1,0,2.52Z" fill="#ff966c" fill-rule="evenodd"/><path d="M81.69,76.3c1.2-3.18,2.89,9.48,2.92,10.49s-.19.84-1.11.84c-1.2-.3-4.54.87-4.45-.93,0-2.14,1.91-8.38,2.64-10.4Z" fill="#ff966c" fill-rule="evenodd"/><path d="M72.38,85.24a1.26,1.26,0,0,1,0-2.52,1.26,1.26,0,0,1,0,2.52Z" fill="#ff966c" fill-rule="evenodd"/><path d="M72,86.65c1.21-3.23,2.91,9.5,2.92,10.49s-.19.84-1.11.84c-1.16-.3-4.51.88-4.41-.93,0-2.14,1.86-8.38,2.6-10.4Z" fill="#ff966c" fill-rule="evenodd"/><path d="M61.22,92.67a1.24,1.24,0,0,1,0-2.48,1.24,1.24,0,0,1,0,2.48Z" fill="#ff966c" fill-rule="evenodd"/><path d="M60.79,94.13c1.19-3.29,2.9,9.45,2.92,10.44s-.19.89-1.11.84c-1.21-.3-4.5.93-4.41-.93,0-2.06,1.88-8.42,2.6-10.35Z" fill="#ff966c" fill-rule="evenodd"/><path d="M49.91,101.7a1.27,1.27,0,0,1,0-2.53,1.27,1.27,0,0,1,0,2.53Z" fill="#ff966c" fill-rule="evenodd"/><path d="M49.52,103.11c1.13-3.4,2.92,9.53,2.92,10.49s-.19.84-1.12.84c-1.2-.29-4.47.85-4.44-.93,0-2.13,1.9-8.42,2.64-10.4Z" fill="#ff966c" fill-rule="evenodd"/><path d="M39.13,109.48a1.24,1.24,0,0,1,0-2.48,1.24,1.24,0,0,1,0,2.48Z" fill="#ff966c" fill-rule="evenodd"/><path d="M38.75,110.94c1.1-3.32,2.93,9.51,2.87,10.49s-.19.84-1.11.84c-1.14-.29-4.48.83-4.41-.93,0-2.12,1.83-8.4,2.65-10.4Z" fill="#ff966c" fill-rule="evenodd"/><path d="M32.27,122.13a1.26,1.26,0,0,1,0-2.52,1.26,1.26,0,0,1,0,2.52Z" fill="#ff966c" fill-rule="evenodd"/><path d="M31.88,123.55c1.17-3.31,2.88,9.46,2.92,10.48s-.19.84-1.11.84c-1.17-.29-4.52.87-4.45-.93,0-2.13,1.9-8.41,2.64-10.39Z" fill="#ff966c" fill-rule="evenodd"/><path d="M41.66,134.74a1.26,1.26,0,0,1,0-2.52,1.26,1.26,0,0,1,0,2.52Z" fill="#ff966c" fill-rule="evenodd"/><path d="M41.24,136.16c1.21-3.18,2.89,9.46,2.91,10.48s-.19.84-1.11.84c-1.19-.3-4.49.88-4.41-.93,0-2.13,1.89-8.42,2.61-10.39Z" fill="#ff966c" fill-rule="evenodd"/><path d="M50.9,146.73a1.24,1.24,0,0,1,0-2.48,1.24,1.24,0,0,1,0,2.48Z" fill="#ff966c" fill-rule="evenodd"/><path d="M50.52,148.19c1.18-3.3,2.9,9.48,2.91,10.48s-.19.84-1.11.84c-1.22-.36-4.48.89-4.45-1,0-2.09,1.91-8.37,2.65-10.35Z" fill="#ff966c" fill-rule="evenodd"/><path d="M46.53,166a1.24,1.24,0,0,1,0-2.48,1.24,1.24,0,0,1,0,2.48Z" fill="#ff966c" fill-rule="evenodd"/><path d="M46.15,167.47C47.32,164.14,49,177,49.06,178s-.19.84-1.11.84c-1.16-.29-4.5.84-4.45-.93,0-2.1,1.9-8.39,2.65-10.4Z" fill="#ff966c" fill-rule="evenodd"/><path d="M35.72,175.75a1.26,1.26,0,0,1,0-2.52,1.26,1.26,0,0,1,0,2.52Z" fill="#ff966c" fill-rule="evenodd"/><path d="M35.33,177.16c1.2-3.22,2.89,9.49,2.92,10.49s-.19.84-1.11.84c-1.22-.3-4.49.87-4.45-.93,0-2.13,1.91-8.42,2.64-10.4Z" fill="#ff966c" fill-rule="evenodd"/><path d="M24.56,187.07a1.26,1.26,0,0,1,0-2.52,1.26,1.26,0,0,1,0,2.52Z" fill="#ff966c" fill-rule="evenodd"/><path d="M24.18,188.49c1.16-3.31,2.87,9.48,2.91,10.48s-.19.84-1.11.84c-1.17-.3-4.53.89-4.45-.93,0-2.13,1.91-8.41,2.65-10.39Z" fill="#ff966c" fill-rule="evenodd"/><path d="M4.47,212.73a1.26,1.26,0,0,1,0-2.52,1.26,1.26,0,0,1,0,2.52Z" fill="#ff966c" fill-rule="evenodd"/><path d="M4.08,214.15C5.21,210.73,7,223.67,7,224.63s-.2.84-1.12.84c-1.19-.28-4.46.83-4.44-.93,0-2.1,1.89-8.4,2.64-10.39Z" fill="#ff966c" fill-rule="evenodd"/><path d="M16.66,243a1.26,1.26,0,0,1,0-2.52,1.26,1.26,0,0,1,0,2.52Z" fill="#ff966c" fill-rule="evenodd"/><path d="M16.24,244.45c1.21-3.18,2.88,9.47,2.91,10.48s-.19.84-1.11.84c-1.19-.3-4.49.88-4.41-.93,0-2.14,1.88-8.38,2.61-10.39Z" fill="#ff966c" fill-rule="evenodd"/><path d="M14.13,198.4a1.26,1.26,0,0,1,0-2.52,1.26,1.26,0,0,1,0,2.52Z" fill="#ff966c" fill-rule="evenodd"/><path d="M13.75,199.81c1-3.44,2.94,9.58,2.87,10.49s-.19.84-1.11.84c-1.15-.3-4.49.86-4.41-.93,0-2.14,1.87-8.42,2.65-10.4Z" fill="#ff966c" fill-rule="evenodd"/><path d="M10.14,231.71a1.26,1.26,0,0,1,0-2.52,1.26,1.26,0,0,1,0,2.52Z" fill="#ff966c" fill-rule="evenodd"/><path d="M9.76,233.12c1.2-3.17,2.89,9.47,2.91,10.49s-.19.84-1.11.84c-1.21-.3-4.48.87-4.45-.93,0-2.14,1.91-8.38,2.65-10.4Z" fill="#ff966c" fill-rule="evenodd"/><path d="M102.35,11.22c-.56-1.92-.55-4.65-1.48-6.45C102.34,3.26,101.69,0,99,0s-3.36,3.34-1.84,4.83c-.83,1.67-1,4.15-1.8,6.16-1,3.73-2,7.9,2.74,7.29C104,18.94,103.24,16.31,102.35,11.22ZM99,2.52A.24.24,0,1,1,99,3,.24.24,0,0,1,99,2.52ZM97.48,15.28a44,44,0,0,1,1.46-6.09c.36,1.82.76,4.33,1,6.07C99.13,15.27,98.24,15.29,97.48,15.28Z" fill="#be4023"/><path d="M90.72,6.51c1.45-1.51.83-4.8-1.89-4.74S85.43,5.08,87,6.56c-.83,1.65-1,4.12-1.82,6.16-1.82,6.45-1,7.82,5.28,7.31,3.85,0,2-4.47,1.76-7.09C91.64,11,91.63,8.29,90.72,6.51ZM88.83,4.25c.3,0,.3.5,0,.52A.26.26,0,1,1,88.83,4.25ZM87.33,17a43.22,43.22,0,0,1,1.45-6.13c.35,1.82.81,4.55,1,6.12C89,17,88.12,17,87.33,17Z" fill="#be4023"/><path d="M75.75,23.44c2-.17,6.37.82,6-2.45-.56-2.53-.57-8.09-2.18-11,1.54-1.48,1-4.85-1.82-4.79S74.35,8.47,75.89,10c-.82,1.66-1,4.13-1.82,6.17C73.21,19,72.29,23.75,75.75,23.44Zm.52-3a39.25,39.25,0,0,1,1.43-6.14c.35,1.85.79,4.43,1,6.11ZM77.74,7.65c.34,0,.29.51,0,.53A.27.27,0,0,1,77.74,7.65Z" fill="#be4023"/><path d="M59.89,43c5.7.61,5.3-1.74,4.37-6.64-.56-2-.57-5-1.55-6.88A3,3,0,0,0,63,29.1a3.42,3.42,0,0,0,2.82.55c5.87.64,5.23-1.87,4.33-6.88-.57-2-.56-4.78-1.52-6.62,1.48-1.51.83-4.82-1.91-4.78s-3.41,3.36-1.85,4.84c-.81,1.68-1,4.2-1.79,6.15-.26.95-.52,1.93-.69,2.85a2.56,2.56,0,0,0-1.62-.48c-2.8,0-3.39,3.34-1.84,4.83-.81,1.66-1,4.13-1.79,6.12C56.16,39.48,55.06,43.51,59.89,43Zm-.57-3a43.29,43.29,0,0,1,1.46-6.12c.36,1.83.76,4.33,1,6.1C61,40,60.05,40,59.32,40Zm5.95-13.36a43.67,43.67,0,0,1,1.46-6.09c.37,1.85.75,4.3,1,6.07C66.93,26.64,66,26.66,65.27,26.65Zm1.47-12.76c.59.11-.09.78-.23.26A.23.23,0,0,1,66.74,13.89ZM60.79,27.25a.24.24,0,1,1,0,.48A.24.24,0,0,1,60.79,27.25Z" fill="#be4023"/><path d="M78.44,48.35c-2.75,0-3.37,3.34-1.83,4.8-.83,1.65-.94,4.07-1.81,6.15-1.83,6.48-1,7.82,5.28,7.31,3.88.3,1.87-5.41,1.75-7.09-.47-1.86-.6-4.62-1.49-6.42C81.83,51.61,81.19,48.31,78.44,48.35Zm0,2.48a.26.26,0,0,1,0,.52C78.14,51.36,78.15,50.84,78.44,50.83ZM77,63.61a41.29,41.29,0,0,1,1.45-6.13c.34,1.82.81,4.55,1,6.12C78.66,63.58,77.76,63.6,77,63.61Z" fill="#be4023"/><path d="M69.36,57.08c6,.57,5.19-1.78,4.33-6.9-.56-2-.55-4.76-1.51-6.6,1.48-1.52.83-4.82-1.91-4.79s-3.36,3.34-1.84,4.83c-.83,1.68-1,4.18-1.8,6.16C65.59,53.52,64.6,57.68,69.36,57.08Zm-.56-3A45.55,45.55,0,0,1,70.25,48c.37,1.85.76,4.29,1,6.07C70.45,54.07,69.56,54.09,68.8,54.07Zm1.47-12.75a.26.26,0,0,1,.27.26C70.39,42.07,69.65,41.45,70.27,41.32Z" fill="#be4023"/><path d="M83.91,75.71c1.58-1.47,1-4.88-1.83-4.84s-3.36,3.34-1.84,4.82c-.83,1.69-1,4.21-1.8,6.17-1,3.75-2,7.88,2.75,7.29,1.88,0,5.31.36,4.92-2.43C85.47,83.88,85.6,78.66,83.91,75.71Zm-1.83-2.32a.24.24,0,1,1,0,.48A.24.24,0,0,1,82.08,73.39ZM80.61,86.14a44,44,0,0,1,1.45-6.08c.36,1.8.81,4.44,1,6.07C82.27,86.14,81.36,86.15,80.61,86.14Z" fill="#be4023"/><path d="M74.27,86c1.45-1.51.81-4.81-1.89-4.77S69,84.55,70.51,86c-.83,1.67-1,4.17-1.81,6.17-1,3.54-2,7.94,2.75,7.29,6.3.71,5-2.38,4.32-7.1C75.17,90.41,75.17,87.76,74.27,86Zm-1.89-2.25a.24.24,0,0,1,0,.48A.24.24,0,1,1,72.38,83.74ZM70.9,96.49a40.76,40.76,0,0,1,1.43-6.12c.36,1.69.85,4.72,1,6.11C72.54,96.49,71.67,96.51,70.9,96.49Z" fill="#be4023"/><path d="M63,93.49c1.55-1.47,1-4.85-1.81-4.8s-3.4,3.31-1.86,4.79c-.82,1.65-1,4.11-1.82,6.16-.69,2.36-2,7.74,1.68,7.32,2-.17,6.37.82,6-2.45C64.67,102,64.64,96.41,63,93.49Zm-1.81-2.32c.33,0,.29.51,0,.52A.26.26,0,1,1,61.22,91.17ZM59.72,104a42.2,42.2,0,0,1,1.45-6.14c.35,1.84.8,4.45,1,6.1Z" fill="#be4023"/><path d="M49,116c6.19.69,5.08-2.29,4.28-7-.51-2.12-.64-4.75-1.48-6.46,1.46-1.52.85-4.81-1.91-4.77s-3.35,3.33-1.84,4.82c-.84,1.67-1,4.15-1.8,6.17C45.09,112.59,44.57,116.69,49,116Zm-.58-3a44.5,44.5,0,0,1,1.46-6.14c.35,1.89.8,4.49,1,6.13C50.1,112.94,49.19,113,48.44,113Zm1.47-12.75a.24.24,0,1,1,0,.47A.24.24,0,1,1,49.91,100.2Z" fill="#be4023"/><path d="M35.73,129.75c-.53-1.88-.56-4.92-1.56-6.87a2.56,2.56,0,0,0,.6-.95c.29,1.37,1.26,2.2,3.44,1.86,5.61.6,5.31-1.7,4.4-6.61-.59-2-.62-5-1.6-6.93,1.47-1.49.83-4.79-1.88-4.75s-3.4,3.33-1.84,4.8c-.87,1.66-1,4.08-1.84,6.16a21.6,21.6,0,0,0-.71,3.27,2.48,2.48,0,0,0-2.47-1.62c-2.76,0-3.34,3.31-1.85,4.81-.82,1.68-1,4.21-1.79,6.18-1.05,3.74-2,7.88,2.73,7.29C37.06,137,36.67,134.65,35.73,129.75Zm1.92-9a39.49,39.49,0,0,1,1.44-6.15c.37,1.81.8,4.36,1,6.14C39.32,120.78,38.39,120.79,37.65,120.78ZM39.13,108c.29,0,.33.52,0,.52A.26.26,0,1,1,39.13,108Zm-6.86,12.65a.24.24,0,1,1,0,.48A.24.24,0,0,1,32.27,120.63Zm0,6.65c.38,1.89.75,4.3,1,6.1-.79,0-1.68,0-2.44,0A46.22,46.22,0,0,1,32.25,127.28Z" fill="#be4023"/><path d="M45.65,146.58c-.63-2.84-.49-8.06-2.18-11,1.56-1.47.94-4.89-1.81-4.85s-3.4,3.32-1.87,4.82c-.82,1.69-1,4.27-1.8,6.17-.85,3.22-2.21,8,2.74,7.29C42.62,149,46.05,149.37,45.65,146.58Zm-4-13.34c.26,0,.33.47,0,.48A.24.24,0,1,1,41.66,133.24ZM40.17,146a42.82,42.82,0,0,1,1.44-6.13c.35,1.86.8,4.42,1,6.11C41.82,146,40.92,146,40.17,146Z" fill="#be4023"/><path d="M50.9,142.75c-2.79-.06-3.37,3.4-1.77,4.85-.83,1.86-1.39,4.69-1.87,6.1-1.85,6.59-1,7.76,5.27,7.31,4.74.44,1.16-10.29.17-13.42C54.32,146.14,53.72,142.71,50.9,142.75Zm0,2.48a.26.26,0,1,1,0,.52A.26.26,0,0,1,50.9,145.23ZM49.43,158a42.74,42.74,0,0,1,1.46-6.1c.35,1.77.82,4.53,1,6.09C51.12,158,50.22,158,49.43,158Z" fill="#be4023"/><path d="M48.43,166.78c1.49-1.49.86-4.78-1.9-4.74s-3.36,3.33-1.83,4.8c-.82,1.67-1,4.15-1.81,6.15-1.16,4-1.75,8,2.74,7.33,5.54.58,5.35-1.56,4.4-6.46C49.47,171.79,49.44,168.72,48.43,166.78Zm-1.9-2.27a.29.29,0,0,1,.27.27C46.69,165.41,45.92,164.65,46.53,164.51Zm-1.47,12.81a42,42,0,0,1,1.46-6.12c.37,1.83.76,4.35,1,6.1C46.72,177.31,45.79,177.33,45.06,177.32Z" fill="#be4023"/><path d="M37.56,176.57c1.57-1.48.94-4.88-1.84-4.84s-3.36,3.34-1.83,4.82c-.85,1.67-1,4.12-1.81,6.17-1.17,3.93-1.72,8,2.75,7.29,1.88,0,5.31.36,4.92-2.43C39.13,184.84,39.23,179.51,37.56,176.57Zm-1.84-2.32a.24.24,0,1,1,0,.48A.24.24,0,0,1,35.72,174.25ZM34.25,187a45.66,45.66,0,0,1,1.45-6.09c.35,1.8.81,4.44,1,6.08C35.91,187,35,187,34.25,187Z" fill="#be4023"/><path d="M26.47,187.82c1.47-1.52.86-4.81-1.91-4.77s-3.4,3.34-1.85,4.83c-.83,1.66-.93,4.11-1.79,6.16-1,3.72-2,7.9,2.74,7.29,5.85.56,5.24-1.64,4.36-6.68C27.47,192.7,27.45,189.73,26.47,187.82Zm-1.91-2.25a.24.24,0,0,1,0,.48C24.27,186.07,24.24,185.56,24.56,185.57Zm-1.47,12.76a45.76,45.76,0,0,1,1.45-6.1c.37,1.86.76,4.31,1,6.08C24.74,198.32,23.85,198.34,23.09,198.33Z" fill="#be4023"/><path d="M7.87,219.93c-.52-2.14-.65-4.75-1.49-6.46,1.46-1.52.85-4.8-1.91-4.76S1.12,212,2.63,213.52c-.81,1.67-1,4.16-1.8,6.14-1.14,4-1.78,8,2.75,7.33C9.78,227.67,8.66,224.68,7.87,219.93Zm-3.4-8.7a.24.24,0,1,1,0,.48A.24.24,0,0,1,4.47,211.23ZM3,224a44,44,0,0,1,1.47-6.14c.35,1.89.8,4.46,1,6.13C4.66,224,3.71,224,3,224Z" fill="#be4023"/><path d="M18.47,243.86c1.55-1.47.94-4.89-1.81-4.85s-3.4,3.33-1.87,4.82c-.83,1.68-1,4.2-1.81,6.17-.84,3.23-2.2,8,2.75,7.29,1.89,0,5.32.37,4.92-2.43C20,252,20.15,246.81,18.47,243.86Zm-1.81-2.33a.23.23,0,0,1,.23.26C16.71,242.32,16,241.6,16.66,241.53Zm-1.49,12.76a40.63,40.63,0,0,1,1.45-6.12c.34,1.86.79,4.41,1,6.1C16.82,254.28,15.92,254.3,15.17,254.29Z" fill="#be4023"/><path d="M13.21,212.66c5.9.58,5.2-1.78,4.36-6.8C17,203.92,17,201,16,199.13c1.44-1.52.83-4.79-1.89-4.75s-3.39,3.32-1.86,4.81c-.83,1.64-.88,4-1.82,6.17C9.47,208.89,8.48,213.3,13.21,212.66Zm-.56-3a38.69,38.69,0,0,1,1.44-6.1c.36,1.8.81,4.35,1,6.09C14.31,209.65,13.43,209.66,12.65,209.65Zm1.48-12.75a.24.24,0,0,1,0,.48A.24.24,0,1,1,14.13,196.9Z" fill="#be4023"/><path d="M14.17,243.54c-.64-2.85-.5-8.07-2.19-11,1.57-1.48.94-4.88-1.84-4.84S6.78,231,8.31,232.51c-.83,1.68-1,4.2-1.81,6.16-1.17,3.92-1.73,8,2.75,7.3C11.14,246,14.56,246.33,14.17,243.54Zm-4-13.33a.26.26,0,0,1,.27.26C10.26,231,9.53,230.34,10.14,230.21ZM8.67,243a45.55,45.55,0,0,1,1.47-6.11c.34,1.85.79,4.44,1,6.1C10.33,243,9.42,243,8.67,243Z" fill="#be4023"/></symbol></defs><g id="Layer_2" data-name="Layer 2"><g id="Layer_1-2" data-name="Layer 1"><g id="Props"><g id="fu_curtain_left" data-name="fu_curtain left"><path d="M164.15,2s-3.87,132.84-9.09,184.64-13,97.68-22.31,134.13-20,63.52-30.41,83.92-20.4,34-30.14,42.77-19.29,12.65-27.57,11.9-15.3-6-17.18-4.11,1.46,11.15,5.18,28.31,7,28.14,11.13,46.54,14.05,44.14,12.59,49.19-8.48,3.62-10.12,5.57,3.7,7.26,8.45,11.59S66.86,604.19,70,609.77s3.52,13.31-.43,15.21-9.74-1.9-17.41-3.62-14.69-1.2-14.5,1.46,7.67,7.52,11.2,10.66,3.11,4.6-1.88,5.08-8.78,0-16.45,2.35-3.63,7.65-11.49,8.36-17.1,2.36-16.68-9.94-1.24-33.83-.74-102C2,478.54,9,389.47,12.65,297.5s5-180.75,5.71-226.09S19.13,3.19,19.17,2s0,.62,24.31,0,97.36,0,97.36,0Z" fill="#ff966c" fill-rule="evenodd"/><path d="M12.12,651.28c-3.17,0-6.17-.55-8.33-2.56s-3.1-5.09-3-9.44C1,634.77.86,628.9.66,620c-.33-14.86-.88-39.73-.57-82.69.26-34.05,2.65-77.22,5.43-127.21,2-36.35,4.11-73.93,5.63-112.68,3.72-94.9,5.11-186.81,5.71-226,.57-35.58.72-57.39.78-65.61,0-2.3,0-3.57,0-3.83A1.84,1.84,0,0,1,18.23.53C18.84,0,19.47,0,20.86.15c2.21.19,8.07.72,22.58.35,24.06-.62,96.68,0,97.41,0H165.7l0,1.54c0,1.33-3.93,133.49-9.09,184.75-5.06,50.33-12.79,96.78-22.36,134.35-8.21,32.25-18.48,60.59-30.52,84.23-10.05,19.67-20,33.8-30.48,43.21-9.87,8.84-19.79,13.08-28.71,12.28a40.34,40.34,0,0,1-11.29-3.1c-1.7-.66-4-1.56-4.7-1.42-.57,1.14.84,6.92,2.34,13,.93,3.77,2.08,8.46,3.25,13.86,2,9,3.77,16.26,5.69,23.92,1.71,6.83,3.48,13.89,5.44,22.62,1.69,7.46,4.39,16.37,6.79,24.24,4.32,14.23,6.72,22.44,5.78,25.68-1.17,4.1-5.18,4.87-7.82,5.37a8.28,8.28,0,0,0-2.56.73c0,.61.79,2.71,8.28,9.54a54.23,54.23,0,0,0,5.63,4.31c3.83,2.7,7.79,5.49,10,9.39,2.42,4.34,3.26,9.7,2.11,13.33a6.36,6.36,0,0,1-3.19,4c-3.09,1.53-6.84.21-11.18-1.31a65.2,65.2,0,0,0-7.22-2.21c-7.18-1.57-12-.89-12.66-.07.25,1.32,4.61,4.73,7,6.58,1.39,1.09,2.69,2.12,3.72,3,1.66,1.49,3.28,3.27,2.67,5.11s-3.08,2.36-5.4,2.59c-1.32.13-2.57.19-3.77.25a45.24,45.24,0,0,0-12.39,2,6.75,6.75,0,0,0-4.67,3.88c-1,1.93-2.23,4.1-7.13,4.54l-1.21.12C16,651.07,14.05,651.28,12.12,651.28ZM20.65,3.14c0,.63,0,1.52,0,2.66-.06,8.22-.21,30.05-.78,65.63-.6,39.26-2,131.2-5.71,226.13-1.52,38.78-3.61,76.37-5.63,112.72-2.78,50-5.18,93.09-5.43,127.08-.31,42.9.24,67.75.57,82.59.2,8.94.33,14.84.17,19.43-.11,3.43.54,5.77,2,7.15,2.47,2.31,7.21,1.83,11.79,1.37l1.23-.12c3.31-.3,3.86-1.32,4.78-3a9.6,9.6,0,0,1,6.41-5.31,47.68,47.68,0,0,1,13.13-2.17c1.22-.06,2.38-.12,3.63-.24a8.27,8.27,0,0,0,2.74-.57,8.18,8.18,0,0,0-1.72-1.91c-.95-.84-2.22-1.84-3.57-2.89-4.77-3.74-7.91-6.37-8.12-8.76a2.93,2.93,0,0,1,1.06-2.47c2.67-2.31,9.88-1.76,15.25-.58A66.51,66.51,0,0,1,60,622.2c3.85,1.35,6.88,2.42,8.86,1.44a3.39,3.39,0,0,0,1.65-2.17c.91-2.86.14-7.37-1.87-11-1.84-3.3-5.52-5.89-9.07-8.39a56.89,56.89,0,0,1-5.92-4.56c-7.23-6.58-11-10.93-8.58-13.67.94-1.11,2.58-1.42,4.31-1.75,2.93-.56,4.89-1.09,5.51-3.26.74-2.55-2.57-13.44-5.77-24C46.73,547,44,538,42.3,530.43c-2-8.69-3.73-15.73-5.43-22.54-1.93-7.69-3.75-14.95-5.71-24-1.16-5.37-2.31-10-3.23-13.79-2.42-9.87-3.42-13.95-1.56-15.88,1.66-1.68,4.28-.66,7.91.76a38.32,38.32,0,0,0,10.48,2.9c8.06.72,17.21-3.25,26.44-11.53,10.18-9.15,19.93-23,29.8-42.34,12-23.43,22.14-51.56,30.29-83.6,9.53-37.42,17.24-83.73,22.28-133.91,4.85-48.15,8.58-168,9-183H140.84c-.74,0-73.31-.62-97.32,0C29,3.87,23.16,3.36,20.65,3.14ZM47.37,585.83Z" fill="#be4023"/><path d="M44.74,585c-2.31-21.44-5.89-43.28-9.35-64.41-3.5-21.36-7.12-43.45-9.43-65.2l3-.32c2.31,21.67,5.92,43.71,9.41,65,3.47,21.16,7,43,9.37,64.57Z" fill="#be4023"/><path d="M36.14,622.91C35,604.84,32.7,586.59,30.5,569c-4.78-38.46-9.3-74.78-2.72-106.92,5.44-26.59,15.15-50,25.43-74.82,8-19.27,16.25-39.2,23.31-62.37,13.49-44.22,24.72-109.31,30-174.11,4.49-54.23,2.89-122,2-148.68l3-.1c.9,26.69,2.5,94.64-2,149C107,182.19,98.91,261.7,79.39,325.72,72.28,349,64,369,56,388.36c-10.22,24.67-19.88,48-25.26,74.27-6.48,31.66-2,67.75,2.76,106,2.2,17.69,4.47,36,5.65,54.14Z" fill="#be4023"/><path d="M25.15,648.44l-3-.19c2.18-33.9-1.29-67.58-4.64-100.14-3.8-37-7.4-71.9-2-102.24,4.08-22.94,9.1-43.45,14-63.29,7.36-30.09,14.31-58.51,18.43-95.15C53.07,241.34,54.35,145.32,51.72,2l3-.05c2.64,143.43,1.34,239.58-3.85,285.79-4.14,36.83-11.44,66.68-18.5,95.53-4.84,19.79-9.85,40.26-13.91,63.11-5.32,29.93-1.75,64.64,2,101.4C23.86,580.49,27.34,614.29,25.15,648.44Z" fill="#be4023"/><path d="M28.54,456.28l-2.18-2.07.24-.24c11-11.53,22.3-23.46,35.17-43.46a353,353,0,0,0,38.33-82.14c9.15-28.85,16-63.33,22.26-111.79,5.25-40.93,9.14-84,12.58-122l3,.27c-3.43,38-7.33,81.12-12.58,122.1-6.27,48.65-13.17,83.29-22.38,112.31A355.92,355.92,0,0,1,64.3,412.13c-13,20.24-24.47,32.27-35.53,43.91Z" fill="#be4023"/><path d="M33,438.22c-.4,0-1.43-.16-1.52-1.7,0-.47-.08-1.47-.17-2.56a29.64,29.64,0,0,0-2.4-9.77,46.59,46.59,0,0,0-7.79-11.45c-.93-1-1.87-1.89-2.79-2.76-2.12-2-3.95-3.75-4.73-5.94s-.34-4.65.69-7.08L15.44,82.9c.23-62.39.23-80.73.23-80.9V.5H97.16c7.88,0,11.93-.06,14.1-.08s2.73,0,3.13.16l.08,0L116.39,0l0,2c0,1.3.26,129.81.11,157.24-.12,28.1-.12,29.19-4.07,29.7-.6.09-1.39.19-2.29.3a83,83,0,0,0-8.6,1.39,62.14,62.14,0,0,0-10.78,3.9A66.4,66.4,0,0,0,82.16,199a12.65,12.65,0,0,0-4.66,5,11.23,11.23,0,0,0-.73,7.35,25,25,0,0,0,4.73,9.31,58.52,58.52,0,0,0,4.55,4.82c1.13,1.1,2.29,2.25,3.44,3.5a60.81,60.81,0,0,1,7.05,9.41c1.64,2.87,1.89,4.57,1.85,8.56,0,4.66-.49,11.45-3.85,16.56-2.67,4.1-7.06,6.95-12.14,10.26-1.41.91-2.88,1.87-4.37,2.89-3.37,2.32-6.89,5-10.29,7.65s-6.43,4.95-9.23,6.86c-1.9,1.31-3.62,2.38-5.15,3.32-3,1.83-5.07,3.15-6.28,4.85-1.88,2.6-1.61,6.1.72,9.36,2,2.81,5.56,5.71,8.71,8.28,1.26,1,2.46,2,3.49,2.93,3.91,3.46,5.48,6.06,6.24,10.32a27.44,27.44,0,0,1-1.79,15.63c-2.34,5.31-7,11.12-13.5,16.82-2.66,2.34-5.57,4.62-8.39,6.83s-5.73,4.48-8.4,6.83c-.11,8.45-.22,17.21-.15,27.8,0,11.15.33,24.72.42,29.17l.06,2.73c0,.11,0,.24,0,.39v.11h0c0,.67-.28,1.58-1.42,1.63ZM16.87,398.59a6.25,6.25,0,0,0-.43,4.44c.54,1.52,2.13,3,4,4.78.9.85,1.92,1.81,2.92,2.88A51.17,51.17,0,0,1,31.21,422c-.09-5.5-.18-12-.2-17.82-.06-9.42,0-17.39.11-25a81.48,81.48,0,0,0-11.67,14.53,35.12,35.12,0,0,0-2.15,3.85v1ZM18.67,3.5c0,5.45,0,26.72-.23,79.42L17.32,391.5a83.33,83.33,0,0,1,13-15.69c3.23-3,6.87-5.87,10.38-8.62,2.78-2.18,5.67-4.43,8.26-6.71,6.17-5.42,10.57-10.87,12.73-15.76a24.35,24.35,0,0,0,1.58-13.91c-.63-3.58-1.86-5.59-5.27-8.61-1-.88-2.16-1.83-3.4-2.84-3.29-2.69-7-5.74-9.25-8.87-3.12-4.35-3.39-9.16-.72-12.85,1.55-2.19,4-3.71,7.14-5.65,1.5-.92,3.19-2,5-3.24,2.73-1.87,5.82-4.25,9.1-6.77,3.43-2.64,7-5.37,10.42-7.74,1.52-1,3-2,4.44-2.94,4.79-3.12,8.93-5.81,11.26-9.39,2.93-4.45,3.32-10.66,3.36-14.94,0-3.76-.18-4.81-1.45-7a58.22,58.22,0,0,0-6.66-8.89c-1.1-1.19-2.23-2.3-3.33-3.38a59.72,59.72,0,0,1-4.79-5.09,27.78,27.78,0,0,1-5.32-10.52,14.17,14.17,0,0,1,1-9.29,15.44,15.44,0,0,1,5.7-6.22,68.88,68.88,0,0,1,9.06-4.76,63.32,63.32,0,0,1,11.33-4.08,82.64,82.64,0,0,1,8.93-1.46c.86-.11,1.63-.2,2.24-.29a3.29,3.29,0,0,0,.5-.09c.83-1,.92-10.78,1-26.66.14-25.83-.08-141.44-.11-155.76l-.11-.05c-.3,0-1,0-2,0-2.18,0-6.24.08-14.14.08Zm94.42-.2.06,0Z" fill="#734a35"/><rect x="62.67" y="285.94" width="3" height="48.3" transform="translate(-12.51 2.85) rotate(-2.32)" fill="#734a35"/><rect x="68.12" y="216.82" width="56.09" height="3" transform="translate(-122.56 313.56) rotate(-89.76)" fill="#734a35"/><path d="M63.19,286l2,48c.68-11.45-12.6-16.11-18.56-24.29-8.33-12.83,8.18-16,16.61-23.66Z" fill="#ff966c" fill-rule="evenodd"/><path d="M63.65,334c.61-11.07-12.89-15.57-18.29-23.51-7.67-11.08,3-16.47,11.45-21.74,2.25-1.53,5.45-4,7.76-5.7l2.07,50.8ZM61.8,288.87c-4.38,3.69-11.54,6.69-14.72,10.52-5.61,10.29,11,16.83,16.13,23.86Z" fill="#be4023"/><path d="M32.66,375.71c-.32,15-.1,44.38.27,57.69.12,5.39.12,3.23-.11.44-.13-7.24-5.11-16.47-10.59-22.12-3.1-3.32-6.25-5.48-7.2-8.18-1.82-7.94,10.56-21,17.63-27.83Z" fill="#ff966c" fill-rule="evenodd"/><path d="M33,438.22c-1.68.13-1.57-2.41-1.69-4.26a29.64,29.64,0,0,0-2.4-9.77c-6.1-15.52-22.92-16.05-12-32,1.92-3.8,10.68-14.43,17.31-20-.4,17.57-.16,48.87.29,64.4h0C34.46,437.28,34.16,438.22,33,438.22Zm-1.89-59c-26.73,30.11-11.62,19.94.09,42.8C31,408.59,30.92,391.76,31.12,379.22Z" fill="#be4023"/><path d="M95.25,239.2c-3.1-5.89-10.3-12.36-14.92-17.56-13.25-17.29,0-25.34,16-31l-.19,50.21c-.23-.53-.5-1.06-.84-1.68Z" fill="#ff966c" fill-rule="evenodd"/><path d="M97.56,248c-3.84-11.2-10.32-16.87-18.4-25.46-14.6-19.46,1-28.05,18.63-34Zm-2.79-55.2c-14.63,5.56-25,12.37-13.27,27.87,4.09,4.74,9.79,9.52,13.11,14.75Z" fill="#be4023"/><rect x="73.58" y="2" width="3" height="208.54" fill="#734a35"/><rect x="42.9" y="2" width="3" height="302.14" fill="#734a35"/><path d="M44.4,302.37V2H75.08V206.86a13.63,13.63,0,0,0,.23,4.87c2.5,11.5,16.42,18.76,20.78,29.15v0a30.52,30.52,0,0,1-2.8,21.9c-3.22,5-9.4,8.14-16.11,12.74-4.64,3.19-9.54,7.12-14,10.49h0c-6.48,6.09-17.66,8.71-18.79,16.41Z" fill="#ff966c" fill-rule="evenodd"/><path d="M45.89,302.49l-3-.12V.5H76.58l0,206.56a12.52,12.52,0,0,0,.22,4.38c2,9.56,12.82,16,17.81,24v-2l2.88,6.79a31.82,31.82,0,0,1-2.93,23.31c-6.14,8.31-18.38,13.28-26.47,20.55-3.19,2.43-6.35,4.91-9.6,7.14C53.83,294.93,46.71,296.77,45.89,302.49Zm0-299V296.18c3.16-2.95,7.9-5.18,11.81-8,6.17-4.44,12.41-9.63,18.63-13.92,12.27-7.59,19.71-12.41,19-27.26.25-7.37-3.44-9.94-8.11-15.92-5.7-5.6-12.68-12.3-13.69-20.34a15.83,15.83,0,0,1,0-4V3.5Z" fill="#be4023"/><path d="M75.08,206.86V2H97.16c16.07,0,16.34-.23,16.68,0a1.69,1.69,0,0,0,1.08,0s.27,129.48.11,157.22-.34,27.91-2.76,28.22-6.94.75-11,1.73a49.46,49.46,0,0,0-5,1.5c-2.15.75-4.14,1.64-6.1,2.48a67.75,67.75,0,0,0-8.85,4.64,14,14,0,0,0-5.18,5.62,12.51,12.51,0,0,0-1.07,3.45Z" fill="#ff966c" fill-rule="evenodd"/><path d="M76.56,207.09l-3-.23V.5H97.16c7.88,0,11.93-.06,14.1-.08s2.73,0,3.13.16l.08,0L116.39,0l0,2c0,1.3.26,129.81.11,157.24-.12,28.1-.12,29.19-4.07,29.7-.6.09-1.39.19-2.29.3a83,83,0,0,0-8.6,1.39c-1.81.47-3.38.95-4.77,1.46-1.87.65-3.63,1.41-5.33,2.15l-.69.3A65.69,65.69,0,0,0,82.16,199a12.65,12.65,0,0,0-4.66,5A11,11,0,0,0,76.56,207.09Zm0-203.59V200a17.87,17.87,0,0,1,3.91-3.43,68.88,68.88,0,0,1,9.06-4.76l.73-.32c1.75-.75,3.56-1.53,5.5-2.22,1.47-.53,3.14-1,5.08-1.54a83.74,83.74,0,0,1,9-1.46c.86-.11,1.63-.2,2.24-.29a3.29,3.29,0,0,0,.5-.09c.83-1,.92-10.78,1-26.66.14-25.83-.08-141.44-.11-155.76l-.11-.05c-.3,0-1,0-2,0-2.18,0-6.24.08-14.14.08Zm36.51-.2.06,0Z" fill="#be4023"/><path d="M44.32,2c-5,0-22.1,0-27.15,0,0,0,0,18-.27,81,0,70.48-1.73,265.34-1.34,318.55,3.41-12.48,16.1-24.92,26.31-33.67C49.75,360.67,62,351,64.72,340.37,69.07,320.32,52,319.23,44.63,306.3c.31-60.45.51-246.88-.31-304.3Z" fill="#ff966c" fill-rule="evenodd"/><path d="M15.23,404.22c-1.63-.05-1.67-1.54-1.55-2.44.93-89.66,1.71-317.72,2-400.41A2.13,2.13,0,0,1,17.75.48c.56,0,1.67,0,3.91,0,2.53,0,19.68,0,21.72,0L43.5.21,45.9.7c.43,71.83,1,229.53.11,305,7.65,12.77,24.55,13.75,20.17,35-4.44,15.5-23.47,26.8-34.38,38.59-5,5-13.47,16.11-14.75,22.53C16.72,402.91,16.37,404.24,15.23,404.22ZM18.67,3.49c-.28,92.94-1.1,290.79-1.86,390.87,5.9-11.06,15-19.71,24.06-27.56C48.73,359.7,61,349.69,63.27,340c4.29-18.88-13-20.22-20-33.09-.84-2-.8-3.53-.54-12.14,2-73.64.09-219.45.18-291.29Z" fill="#be4023"/><use width="102.96" height="257.37" transform="translate(14.13 185.81)" xlink:href="#New_Symbol_45"/></g></g></g></g></svg>