<svg xmlns="http://www.w3.org/2000/svg" viewBox="0 0 74.53 55.06"><g style="isolation:isolate"><g id="Layer_2" data-name="Layer 2"><g id="Layer_1-2" data-name="Layer 1"><g id="Props"><g id="fu_kitchen_utensil_plate" data-name="fu_kitchen utensil_plate"><circle cx="27.53" cy="27.53" r="24.53" transform="translate(-5.94 47.43) rotate(-75.73)" fill="#f5f5f5"/><path d="M27.53,47.62A20.09,20.09,0,1,1,47.62,27.53,20.11,20.11,0,0,1,27.53,47.62Zm0-39.76A19.68,19.68,0,1,0,47.21,27.53,19.69,19.69,0,0,0,27.53,7.86Z" fill="#238eae"/><g style="mix-blend-mode:multiply"><path d="M44.75,10.06A24.53,24.53,0,0,1,10.06,44.75,24.53,24.53,0,1,0,44.75,10.06Z" fill="#e6e6e6"/></g><circle cx="27.53" cy="27.53" r="14.49" transform="translate(-3.62 50.89) rotate(-81.86)" fill="#e6e6e6"/><g style="mix-blend-mode:multiply"><path d="M13.48,28A14.49,14.49,0,0,1,38,17.51,14.49,14.49,0,1,0,17.51,38,14.45,14.45,0,0,1,13.48,28Z" fill="#e6e6e6"/></g><path d="M27.53,3a24.47,24.47,0,0,1,17.25,7.09l0,0,0,0c.2.19.39.4.58.6l.24.25c.19.21.38.42.56.64l.22.25.53.67.21.26.49.69a2.83,2.83,0,0,1,.2.28c.16.23.31.47.46.71l.19.29.42.73c.06.1.12.2.17.3q.21.38.39.75c.06.1.11.21.16.31.12.25.24.51.35.76l.15.34c.11.25.21.5.31.76s.09.24.14.36.17.51.26.76.09.26.13.39.15.5.22.76.08.27.11.41.12.51.18.76.07.29.1.43.1.53.14.79.06.28.08.43.07.53.1.8l.06.43.06.84c0,.14,0,.28,0,.41,0,.42,0,.85,0,1.27a24.45,24.45,0,0,1-1.92,9.55,23.65,23.65,0,0,1-1,2.15,24.55,24.55,0,0,1-9.87,9.87,24,24,0,0,1-5.57,2.19l-1.18.28a25.18,25.18,0,0,1-4.95.49h0c-.43,0-.85,0-1.27,0-.14,0-.27,0-.41,0L25,51.94l-.43-.06-.8-.1-.43-.08-.79-.14-.43-.1c-.26-.06-.51-.11-.76-.18L21,51.17,20.2,51l-.39-.13-.76-.26-.36-.14-.76-.31L17.6,50c-.26-.11-.52-.22-.77-.35l-.31-.16c-.25-.13-.51-.25-.75-.39l-.29-.16-.74-.44a2.61,2.61,0,0,1-.28-.17l-.72-.47-.27-.19c-.24-.17-.47-.33-.7-.51l-.25-.19-.68-.54-.25-.22c-.22-.18-.43-.37-.64-.56l-.25-.24c-.2-.19-.41-.38-.6-.58l0,0,0,0A24.53,24.53,0,0,1,27.53,3m0-3A27.53,27.53,0,0,0,7.85,46.78l.07.08.07.06c.21.22.43.43.65.63l.08.08.2.19.72.63.07.06.21.18.76.61.07.05.21.17.79.57.08,0,.22.16c.26.18.54.35.81.52l.08.06.23.14c.27.17.55.33.83.49l.08.05.25.14c.27.15.55.29.83.43l.1,0,.26.13.84.39.11,0,.28.12.81.32.05,0,.11,0,.29.11.78.27.08,0,.11,0,.32.11L20,54l.11,0,.13,0,.34.1.72.17.13,0,.13,0,.36.08.76.14.12,0,.13,0c.11,0,.23,0,.35.06l.76.1.14,0,.13,0,.36,0,.82.07h.24l.34,0c.46,0,.93,0,1.39,0h0a27.86,27.86,0,0,0,5.55-.55l1.33-.31A27.56,27.56,0,0,0,51.74,40.66c.42-.78.81-1.59,1.16-2.41a27.3,27.3,0,0,0,2.16-10.72c0-.47,0-1,0-1.42l0-.34v-.24c0-.27,0-.55-.07-.82s0-.24,0-.36l0-.13,0-.13c0-.26-.06-.52-.1-.77s0-.24-.06-.35l0-.13,0-.12c0-.26-.09-.51-.14-.76s0-.24-.08-.36l0-.13,0-.12c0-.24-.11-.49-.17-.73a3.37,3.37,0,0,0-.1-.34l0-.12,0-.11c-.07-.25-.14-.5-.22-.75s-.07-.21-.11-.32l0-.11,0-.09c-.09-.25-.17-.51-.27-.77l-.11-.3,0-.1,0-.06c-.1-.27-.21-.53-.32-.8l-.12-.28,0-.09c-.13-.3-.25-.58-.39-.86,0-.09-.09-.17-.13-.26l0-.09c-.14-.28-.28-.56-.43-.84l-.15-.25,0-.09c-.16-.28-.31-.55-.48-.82l-.15-.24,0-.08c-.17-.27-.34-.54-.52-.8l-.16-.23-.06-.08L49.52,11l-.17-.21-.06-.08q-.28-.37-.6-.75l-.18-.21-.06-.07-.63-.72-.19-.2-.08-.08c-.21-.22-.42-.45-.65-.67l0,0-.07-.07A27.39,27.39,0,0,0,27.53,0Z" fill="#314d77"/><circle cx="55.62" cy="36.15" r="15.92" transform="translate(12.1 86.22) rotate(-82.03)" fill="#f5f5f5"/><path d="M55.62,49.18a13,13,0,1,1,13-13A13,13,0,0,1,55.62,49.18Zm0-25.79A12.76,12.76,0,1,0,68.38,36.15,12.77,12.77,0,0,0,55.62,23.39Z" fill="#238eae"/><g style="mix-blend-mode:multiply"><path d="M66.79,24.81A15.92,15.92,0,0,1,44.28,47.32,15.92,15.92,0,1,0,66.79,24.81Z" fill="#e6e6e6"/></g><circle cx="55.62" cy="36.15" r="9.4" transform="translate(11.78 85.93) rotate(-81.65)" fill="#e6e6e6"/><g style="mix-blend-mode:multiply"><path d="M46.5,36.43a9.4,9.4,0,0,1,15.91-6.78A9.4,9.4,0,1,0,49.12,42.94,9.37,9.37,0,0,1,46.5,36.43Z" fill="#e6e6e6"/></g><path d="M55.62,20.23a15.91,15.91,0,0,1,11.2,4.61l0,0,0,0c.23.22.44.47.65.7s.27.28.39.43.39.51.59.77.23.3.33.46.35.55.52.83.2.32.29.48.29.59.43.89l.25.51c.13.31.23.62.34.93s.14.36.2.54.18.66.26,1c0,.18.1.36.14.55.07.36.12.73.17,1.1,0,.16.05.32.07.48a14.89,14.89,0,0,1,.08,1.64A15.91,15.91,0,0,1,55.62,52.06,14.89,14.89,0,0,1,54,52l-.48-.07c-.37,0-.74-.1-1.1-.17l-.55-.14c-.33-.08-.67-.16-1-.26l-.53-.2c-.32-.11-.63-.21-.94-.34l-.51-.25c-.3-.14-.6-.27-.89-.43l-.47-.29c-.29-.17-.57-.33-.84-.52s-.3-.22-.46-.33-.52-.38-.77-.59-.28-.26-.43-.39-.48-.42-.7-.65l0,0,0,0A15.92,15.92,0,0,1,55.62,20.23m0-3A18.91,18.91,0,0,0,42.05,49.32l.09.1.1.09c.21.22.44.42.67.62l.11.11.11.1c.13.12.26.24.4.35s.53.42.79.61l.13.09.12.09a4.13,4.13,0,0,0,.42.31c.28.19.57.37.86.54l.13.08.13.07a3.35,3.35,0,0,0,.45.27q.44.24.9.45l.15.07.13.06c.16.08.31.16.48.23l.94.36.17,0,.13.05a4.4,4.4,0,0,0,.51.18c.36.12.7.2,1,.27l.17,0,.13,0,.52.13c.43.08.84.14,1.2.19h.11l.1,0,.48.07c.64.06,1.29.09,1.94.09A18.93,18.93,0,0,0,74.53,36.15c0-.65,0-1.3-.09-1.94,0-.16,0-.32-.07-.48l0-.1v-.11c0-.36-.11-.77-.19-1.2,0-.18-.09-.35-.13-.52l0-.13,0-.17c-.07-.3-.15-.64-.27-1a4.4,4.4,0,0,0-.18-.51l0-.14-.06-.16c-.11-.32-.22-.63-.35-.94s-.15-.33-.23-.49l-.06-.13L72.66,28c-.14-.3-.28-.6-.44-.89a4.25,4.25,0,0,0-.27-.46l-.07-.12-.08-.13c-.17-.29-.35-.58-.54-.86A4.13,4.13,0,0,0,71,25.1L70.86,25l-.09-.13c-.19-.26-.39-.53-.61-.79a4.4,4.4,0,0,0-.35-.39l-.1-.12-.1-.11c-.21-.23-.41-.46-.63-.67l-.09-.1-.1-.09a18.79,18.79,0,0,0-13.17-5.35Z" fill="#314d77"/></g></g></g></g></g></svg>