<svg xmlns="http://www.w3.org/2000/svg" viewBox="0 0 206.48 293.62"><g style="isolation:isolate"><g id="Layer_2" data-name="Layer 2"><g id="Layer_1-2" data-name="Layer 1"><g id="Props"><g id="fu_plant_shelf" data-name="fu_plant shelf"><g style="mix-blend-mode:overlay"><path d="M192.24,243.43h5.39a3.49,3.49,0,0,0,3.49-3.49h-1.07a7.24,7.24,0,0,0,1.07-3.78h0a7.27,7.27,0,0,0-7.28-7.27h-5.41l-25.94-99.15h3.43a3.49,3.49,0,0,0,3.49-3.49h-1.07a7.18,7.18,0,0,0,1.07-3.78h0a7.28,7.28,0,0,0-7.27-7.28h-3.46L132.74,16.05h4.85a3.49,3.49,0,0,0,3.49-3.49H140a7.21,7.21,0,0,0,1.07-3.79h0a7.27,7.27,0,0,0-7.27-7.27H72.67a7.28,7.28,0,0,0-7.28,7.27h0a7.3,7.3,0,0,0,1.07,3.79H65.39a3.5,3.5,0,0,0,3.49,3.49h4.85L47.79,115.19H44.34a7.27,7.27,0,0,0-7.27,7.28h0a7.18,7.18,0,0,0,1.07,3.78H37.07a3.49,3.49,0,0,0,3.49,3.49H44L18.05,228.89H12.63a7.26,7.26,0,0,0-6.2,11.05H5.36a3.49,3.49,0,0,0,3.49,3.49h5.39L1.5,292.12h15l12.73-48.69H177.2l12.74,48.69h15ZM143.65,115.19H62.83L88.77,16.05h28.94ZM59,129.74h88.44l25.94,99.15H33.08Z" fill="#af7553"/></g><polygon points="90.71 8.64 16.54 292.13 1.5 292.13 76.63 4.96 79.47 5.71 81.65 6.28 85.88 7.38 90.71 8.64" fill="#c69c6d"/><polygon points="90.71 8.64 16.54 292.13 11.37 292.13 85.88 7.38 90.71 8.64" fill="#a67c52"/><polygon points="81.65 6.28 6.86 292.13 4.53 292.13 79.47 5.71 81.65 6.28" fill="#d3a97f"/><polygon points="204.98 292.13 189.94 292.13 115.77 8.64 120.6 7.38 124.83 6.28 127 5.71 129.84 4.96 204.98 292.13" fill="#c69c6d"/><polygon points="195.1 292.13 189.94 292.13 115.77 8.64 120.6 7.38 195.1 292.13" fill="#a67c52"/><polygon points="201.94 292.13 199.62 292.13 124.83 6.28 127 5.71 201.94 292.13" fill="#d3a97f"/><path d="M16.54,293.62H1.5a1.49,1.49,0,0,1-1.45-1.88L75.18,4.58A1.5,1.5,0,0,1,77,3.51L91.09,7.19a1.48,1.48,0,0,1,.91.7A1.51,1.51,0,0,1,92.16,9L18,292.5A1.51,1.51,0,0,1,16.54,293.62Zm-13.1-3H15.38L88.87,9.72,85.5,8.83h0l-7.79-2Z" fill="#6a3417"/><path d="M205,293.62h-15a1.5,1.5,0,0,1-1.45-1.12L114.32,9a1.51,1.51,0,0,1,.16-1.14,1.48,1.48,0,0,1,.91-.7l14.07-3.68a1.5,1.5,0,0,1,1.83,1.07l75.14,287.16a1.5,1.5,0,0,1-1.45,1.88Zm-13.88-3H203L128.77,6.79,117.6,9.72Z" fill="#6a3417"/><rect x="95.97" y="-29.07" width="14.55" height="75.69" rx="7.27" transform="translate(112.01 -94.47) rotate(90)" fill="#c69c6d"/><path d="M65.39,12.56h75.69a3.49,3.49,0,0,1-3.49,3.49H68.88A3.5,3.5,0,0,1,65.39,12.56Z" fill="#a67c52"/><rect x="95.97" y="56.29" width="14.55" height="132.34" rx="7.27" transform="translate(225.71 19.23) rotate(90)" fill="#c69c6d"/><path d="M101.49,61.82h0A3.49,3.49,0,0,1,105,65.31V190.68a3.49,3.49,0,0,1-3.49,3.49h0a0,0,0,0,1,0,0V61.82a0,0,0,0,1,0,0Z" transform="translate(231.23 24.76) rotate(90)" fill="#a67c52"/><rect x="95.97" y="138.28" width="14.55" height="195.76" rx="7.27" transform="translate(339.4 132.92) rotate(90)" fill="#c69c6d"/><path d="M5.36,239.94H201.12a3.49,3.49,0,0,1-3.49,3.49H8.85A3.49,3.49,0,0,1,5.36,239.94Z" fill="#a67c52"/><path d="M137.59,17.55H68.88a5,5,0,0,1-5-5,1.49,1.49,0,0,1,.44-1.06A8.76,8.76,0,0,1,72.67,0h61.14a8.78,8.78,0,0,1,8.77,8.77,9,9,0,0,1-.43,2.73,1.48,1.48,0,0,1,.43,1.06A5,5,0,0,1,137.59,17.55ZM67.32,13.79a2,2,0,0,0,1.56.76h68.71a2,2,0,0,0,1.57-.76,1.44,1.44,0,0,1-.45-.5,1.5,1.5,0,0,1,0-1.52,5.7,5.7,0,0,0,.85-3A5.78,5.78,0,0,0,133.81,3H72.67a5.76,5.76,0,0,0-4.93,8.77,1.48,1.48,0,0,1,0,1.52A1.54,1.54,0,0,1,67.32,13.79Z" fill="#6a3417"/><path d="M165.92,131.24H40.56a5,5,0,0,1-5-5,1.5,1.5,0,0,1,.43-1.06,9,9,0,0,1-.43-2.72,8.78,8.78,0,0,1,8.77-8.78h117.8a8.78,8.78,0,0,1,8.77,8.78,8.66,8.66,0,0,1-.44,2.72,1.51,1.51,0,0,1,.44,1.06A5,5,0,0,1,165.92,131.24ZM39,127.48a2,2,0,0,0,1.57.76H165.92a2,2,0,0,0,1.56-.76,1.67,1.67,0,0,1-.45-.5,1.51,1.51,0,0,1,0-1.51,5.77,5.77,0,0,0-4.92-8.78H44.34a5.77,5.77,0,0,0-4.92,8.78,1.51,1.51,0,0,1,0,1.51A1.48,1.48,0,0,1,39,127.48Z" fill="#6a3417"/><path d="M197.63,244.93H8.85a5,5,0,0,1-5-5,1.48,1.48,0,0,1,.44-1.05,8.76,8.76,0,0,1,8.33-11.5H193.84a8.76,8.76,0,0,1,8.34,11.5,1.48,1.48,0,0,1,.44,1.05A5,5,0,0,1,197.63,244.93ZM7.29,241.18a2,2,0,0,0,1.56.75H197.63a2,2,0,0,0,1.56-.75,1.54,1.54,0,0,1-.45-.5,1.48,1.48,0,0,1,0-1.52,5.79,5.79,0,0,0,.85-3h0a5.78,5.78,0,0,0-5.78-5.77H12.63a5.76,5.76,0,0,0-4.92,8.77,1.5,1.5,0,0,1,0,1.52A1.54,1.54,0,0,1,7.29,241.18Z" fill="#6a3417"/></g></g></g></g></g></svg>