<svg xmlns="http://www.w3.org/2000/svg" viewBox="0 0 195.1 242.93"><g id="Layer_2" data-name="Layer 2"><g id="Layer_1-2" data-name="Layer 1"><g id="Props"><g id="fu_kitchen_stove" data-name="fu_kitchen stove"><path d="M11.43,241.43a4.66,4.66,0,0,1,0-9.31H23a4.66,4.66,0,0,1,0,9.31Z" fill="#0c4a7b"/><path d="M23,233.62a3.16,3.16,0,0,1,0,6.31H11.43a3.16,3.16,0,0,1,0-6.31H23m0-3H11.43a6.16,6.16,0,0,0,0,12.31H23a6.16,6.16,0,0,0,0-12.31Z" fill="#134160"/><path d="M173.12,241.43a4.66,4.66,0,0,1,0-9.31h11.57a4.66,4.66,0,0,1,0,9.31Z" fill="#0c4a7b"/><path d="M184.69,233.62a3.16,3.16,0,0,1,0,6.31H173.12a3.16,3.16,0,0,1,0-6.31h11.57m0-3H173.12a6.16,6.16,0,0,0,0,12.31h11.57a6.16,6.16,0,0,0,0-12.31Z" fill="#134160"/><path d="M3.63,28.32,10.54,9a8.53,8.53,0,0,1,8-5.64h158a8.51,8.51,0,0,1,8,5.64l6.92,19.36Z" fill="#d1c1ff"/><path d="M176.56,4.82a7,7,0,0,1,6.59,4.65l6.2,17.35H5.76L12,9.47a7,7,0,0,1,6.6-4.65h158m0-3h-158A10,10,0,0,0,9.13,8.46L1.5,29.82H193.61L186,8.46a10,10,0,0,0-9.42-6.64Z" fill="#134160"/><rect x="1.5" y="71.53" width="192.11" height="165.58" rx="10" fill="#d1c1ff"/><path d="M183.6,238.61H11.5A11.51,11.51,0,0,1,0,227.11V81.53A11.51,11.51,0,0,1,11.5,70H183.6a11.51,11.51,0,0,1,11.5,11.5V227.11A11.51,11.51,0,0,1,183.6,238.61ZM11.5,73A8.51,8.51,0,0,0,3,81.53V227.11a8.51,8.51,0,0,0,8.5,8.5H183.6a8.51,8.51,0,0,0,8.5-8.5V81.53a8.51,8.51,0,0,0-8.5-8.5Z" fill="#7850b3"/><rect x="4.03" y="41.86" width="187.04" height="28.55" rx="10" fill="#d1c1ff"/><path d="M181.07,71.91H14a11.51,11.51,0,0,1-11.5-11.5V51.86A11.51,11.51,0,0,1,14,40.36h167a11.51,11.51,0,0,1,11.5,11.5v8.55A11.51,11.51,0,0,1,181.07,71.91ZM14,43.36a8.51,8.51,0,0,0-8.5,8.5v8.55a8.51,8.51,0,0,0,8.5,8.5h167a8.51,8.51,0,0,0,8.5-8.5V51.86a8.51,8.51,0,0,0-8.5-8.5Z" fill="#7850b3"/><rect x="3" y="61.88" width="189.1" height="162.58" rx="3.5" fill="#1d6798"/><path d="M188.61,63.38a2,2,0,0,1,2,2V221a2,2,0,0,1-2,2H6.5a2,2,0,0,1-2-2V65.38a2,2,0,0,1,2-2H188.61m0-3H6.5a5,5,0,0,0-5,5V221a5,5,0,0,0,5,5H188.61a5,5,0,0,0,5-5V65.38a5,5,0,0,0-5-5Z" fill="#134160"/><path d="M188.61,226H6.5a4.92,4.92,0,0,1-5-4.83V70.84A4.92,4.92,0,0,1,6.5,66H188.61a4.92,4.92,0,0,1,5,4.83V221.13A4.92,4.92,0,0,1,188.61,226Z" fill="#0c4a7b"/><path d="M188.61,63.38a2,2,0,0,1,2,2V221a2,2,0,0,1-2,2H6.5a2,2,0,0,1-2-2V65.38a2,2,0,0,1,2-2H188.61m0-3H6.5a5,5,0,0,0-5,5V221a5,5,0,0,0,5,5H188.61a5,5,0,0,0,5-5V65.38a5,5,0,0,0-5-5Z" fill="#134160"/><rect x="3" y="28.22" width="189.1" height="25.55" rx="3.5" fill="#1d6798"/><path d="M188.61,29.72a2,2,0,0,1,2,2V50.28a2,2,0,0,1-2,2H6.5a2,2,0,0,1-2-2V31.72a2,2,0,0,1,2-2H188.61m0-3H6.5a5,5,0,0,0-5,5V50.28a5,5,0,0,0,5,5H188.61a5,5,0,0,0,5-5V31.72a5,5,0,0,0-5-5Z" fill="#134160"/><path d="M188.61,55.28H6.5c-2.76,0-5-1.82-5-4.06V36.16c0-2.25,2.24-4.06,5-4.06H188.61c2.76,0,5,1.81,5,4.06V51.22C193.61,53.46,191.37,55.28,188.61,55.28Z" fill="#0c4a7b"/><path d="M188.61,29.72a2,2,0,0,1,2,2V50.28a2,2,0,0,1-2,2H6.5a2,2,0,0,1-2-2V31.72a2,2,0,0,1,2-2H188.61m0-3H6.5a5,5,0,0,0-5,5V50.28a5,5,0,0,0,5,5H188.61a5,5,0,0,0,5-5V31.72a5,5,0,0,0-5-5Z" fill="#134160"/><rect x="11.32" y="74.95" width="172.46" height="134.95" rx="10.72" fill="#d1c1ff"/><path d="M173.06,211.4H22A12.23,12.23,0,0,1,9.82,199.18V85.66A12.23,12.23,0,0,1,22,73.45h151a12.23,12.23,0,0,1,12.22,12.21V199.18A12.23,12.23,0,0,1,173.06,211.4ZM22,76.45a9.23,9.23,0,0,0-9.22,9.21V199.18A9.24,9.24,0,0,0,22,208.4h151a9.23,9.23,0,0,0,9.22-9.22V85.66a9.22,9.22,0,0,0-9.22-9.21Z" fill="#7850b3"/><rect x="19.13" y="121.16" width="156.86" height="70.95" rx="5" fill="#85bce1"/><path d="M171,193.61H24.13a6.51,6.51,0,0,1-6.5-6.5v-61a6.51,6.51,0,0,1,6.5-6.5H171a6.51,6.51,0,0,1,6.5,6.5v61A6.51,6.51,0,0,1,171,193.61Zm-146.87-71a3.51,3.51,0,0,0-3.5,3.5v61a3.51,3.51,0,0,0,3.5,3.5H171a3.5,3.5,0,0,0,3.5-3.5v-61a3.5,3.5,0,0,0-3.5-3.5Z" fill="#134160"/><rect x="49.08" y="121.16" width="96.98" height="65.09" fill="#457188"/><path d="M30.43,108.2v3.14a3.07,3.07,0,0,0,6.14,0V108.2Z" fill="#6e89b6"/><path d="M159.61,108.2v3.14a3.07,3.07,0,0,0,6.14,0V108.2Z" fill="#6e89b6"/><path d="M183.78,103.24V85.66A10.71,10.71,0,0,0,173.06,75H22A10.71,10.71,0,0,0,11.32,85.66v17.58Z" fill="#eae5ff"/><path d="M185.28,104.74H9.82V85.66A12.23,12.23,0,0,1,22,73.45h151a12.23,12.23,0,0,1,12.22,12.21Zm-172.46-3H182.28V85.66a9.22,9.22,0,0,0-9.22-9.21H22a9.23,9.23,0,0,0-9.22,9.21Z" fill="#7850b3"/><path d="M171.44,108.14a2,2,0,0,1-1.95,2H27a2,2,0,0,1-2-2h0a2,2,0,0,1,2-2H169.49a2,2,0,0,1,1.95,2Z" fill="#fff"/><path d="M169.49,111.59H27a3.45,3.45,0,1,1,0-6.9H169.49a3.45,3.45,0,0,1,0,6.9ZM27,107.69a.45.45,0,1,0,0,.9H169.49a.45.45,0,1,0,0-.9Z" fill="#a4bceb"/><rect x="72.89" y="84.19" width="45.77" height="11.85" fill="#0c4a7b"/><path d="M118.16,84.69V95.54H73.39V84.69h44.77m1-1H72.39V96.54h46.77V83.69Z" fill="#134160"/><rect x="74.12" y="85.41" width="43.32" height="9.41" fill="#47c8ae"/><circle cx="46.33" cy="89.92" r="8.91" fill="#566472"/><path d="M46.33,99.33a9.39,9.39,0,0,1-9.39-9l0-.52H55.74l0,.52A9.39,9.39,0,0,1,46.33,99.33Z" fill="#0c4a7b"/><path d="M55.22,90.35a8.9,8.9,0,0,1-17.78,0H55.22m1.05-1H36.39l0,1.05a9.9,9.9,0,0,0,19.78,0l.05-1.05Z" fill="#134160"/><path d="M52.08,89.92a5.75,5.75,0,1,0-5.75,5.75A5.75,5.75,0,0,0,52.08,89.92Z" fill="#eef2f2"/><circle cx="143.71" cy="89.92" r="8.91" fill="#566472"/><path d="M143.71,99.33a9.39,9.39,0,0,1-9.39-9l0-.52h18.83l0,.52A9.39,9.39,0,0,1,143.71,99.33Z" fill="#0c4a7b"/><path d="M152.6,90.35a8.9,8.9,0,0,1-17.78,0H152.6m1-1H133.77l0,1.05a9.9,9.9,0,0,0,19.77,0l0-1.05Z" fill="#134160"/><path d="M149.37,89.92a5.75,5.75,0,1,0-5.75,5.75A5.75,5.75,0,0,0,149.37,89.92Z" fill="#eef2f2"/><path d="M50.59,41A10.5,10.5,0,1,0,40.1,51.53,10.49,10.49,0,0,0,50.59,41Z" fill="#566472"/><path d="M40.1,52a11,11,0,0,1-11-10.47l0-.52h22l0,.52A11,11,0,0,1,40.1,52Z" fill="#0c4a7b"/><path d="M50.57,41.54a10.48,10.48,0,0,1-20.94,0H50.57m1-1h-23l.05,1.05a11.48,11.48,0,0,0,22.94,0l0-1.05Z" fill="#134160"/><path d="M46.87,41A6.77,6.77,0,1,0,40.1,47.8,6.77,6.77,0,0,0,46.87,41Z" fill="#eef2f2"/><path d="M86.8,41a10.5,10.5,0,1,0-10.5,10.5A10.5,10.5,0,0,0,86.8,41Z" fill="#566472"/><path d="M76.3,52a11,11,0,0,1-11-10.47l0-.52h22l0,.52A11,11,0,0,1,76.3,52Z" fill="#0c4a7b"/><path d="M86.77,41.54a10.48,10.48,0,0,1-20.94,0H86.77m1-1h-23l0,1.05a11.48,11.48,0,0,0,22.94,0l0-1.05Z" fill="#134160"/><path d="M83.07,41A6.77,6.77,0,1,0,76.3,47.8,6.77,6.77,0,0,0,83.07,41Z" fill="#eef2f2"/><path d="M123,41a10.5,10.5,0,1,0-10.49,10.5A10.49,10.49,0,0,0,123,41Z" fill="#566472"/><path d="M112.51,52a11,11,0,0,1-11-10.47l0-.52h22l0,.52A11,11,0,0,1,112.51,52Z" fill="#0c4a7b"/><path d="M123,41.54a10.48,10.48,0,0,1-20.94,0H123m1-1H101l.05,1.05a11.48,11.48,0,0,0,22.94,0l0-1.05Z" fill="#134160"/><path d="M119.28,41a6.77,6.77,0,1,0-6.77,6.77A6.77,6.77,0,0,0,119.28,41Z" fill="#eef2f2"/><path d="M159.21,41a10.5,10.5,0,1,0-10.5,10.5A10.5,10.5,0,0,0,159.21,41Z" fill="#566472"/><path d="M148.71,52a11,11,0,0,1-11-10.47l0-.52h22l0,.52A11,11,0,0,1,148.71,52Z" fill="#0c4a7b"/><path d="M159.18,41.54a10.48,10.48,0,0,1-20.94,0h20.94m1-1h-23l.05,1.05a11.48,11.48,0,0,0,22.94,0l0-1.05Z" fill="#134160"/><path d="M155.48,41a6.77,6.77,0,1,0-6.77,6.77A6.77,6.77,0,0,0,155.48,41Z" fill="#eef2f2"/><ellipse cx="53.55" cy="12.22" rx="33.72" ry="10.22" fill="#134160"/><ellipse cx="141.55" cy="12.22" rx="33.72" ry="10.22" fill="#134160"/><path d="M53.55,19c-11.14,0-32.21-1.83-32.21-8.73S42.41,1.5,53.55,1.5s32.22,1.82,32.22,8.72S64.7,19,53.55,19Z" fill="#fff"/><path d="M53.55,3c17,0,30.72,3.23,30.72,7.22s-13.75,7.23-30.72,7.23-30.71-3.24-30.71-7.23S36.59,3,53.55,3m0-3C47.92,0,19.84.49,19.84,10.22S47.92,20.45,53.55,20.45,87.27,20,87.27,10.22,59.18,0,53.55,0Z" fill="#134160"/><path d="M141.55,19c-11.14,0-32.21-1.83-32.21-8.73S130.41,1.5,141.55,1.5s32.22,1.82,32.22,8.72S152.7,19,141.55,19Z" fill="#fff"/><path d="M141.55,3c17,0,30.72,3.23,30.72,7.22s-13.75,7.23-30.72,7.23-30.71-3.24-30.71-7.23S124.59,3,141.55,3m0-3c-5.63,0-33.71.49-33.71,10.22s28.08,10.23,33.71,10.23,33.72-.5,33.72-10.23S147.18,0,141.55,0Z" fill="#134160"/><ellipse cx="53.55" cy="9.22" rx="21.83" ry="5.13" fill="#fff"/><path d="M53.55,15.86c-8.66,0-23.33-1.4-23.33-6.64S44.89,2.59,53.55,2.59,76.88,4,76.88,9.22,62.22,15.86,53.55,15.86ZM33.25,9.22c.75,1.31,8.15,3.64,20.3,3.64S73.1,10.53,73.86,9.22c-.76-1.3-8.16-3.63-20.31-3.63S34,7.92,33.25,9.22Z" fill="#134160"/><ellipse cx="141.55" cy="9.22" rx="21.83" ry="5.13" fill="#fff"/><path d="M141.55,15.86c-8.66,0-23.33-1.4-23.33-6.64s14.67-6.63,23.33-6.63S164.88,4,164.88,9.22,150.22,15.86,141.55,15.86Zm-20.3-6.64c.75,1.31,8.15,3.64,20.3,3.64s19.55-2.33,20.31-3.64c-.76-1.3-8.16-3.63-20.31-3.63S122,7.92,121.25,9.22Z" fill="#134160"/></g></g></g></g></svg>