<svg xmlns="http://www.w3.org/2000/svg" viewBox="0 0 69.88 141.84"><g id="Layer_2" data-name="Layer 2"><g id="Layer_1-2" data-name="Layer 1"><g id="Props"><g id="na_potted_plant_10" data-name="na_potted plant 10"><path d="M35.24,86.13A30.24,30.24,0,0,1,1.51,55.25a31.69,31.69,0,0,1,24.66,7.46C33,68.59,35.07,77.14,35.24,86.13Z" fill="#72b75b" stroke="#2d5b1d" stroke-linecap="round" stroke-linejoin="round" stroke-width="3"/><path d="M6.07,59.29A75.1,75.1,0,0,1,33,85.12" fill="#beef63" stroke="#2d5b1d" stroke-linecap="round" stroke-linejoin="round" stroke-width="2"/><path d="M30.11,88.2A30.24,30.24,0,0,0,63.84,57.33a31.64,31.64,0,0,0-24.66,7.45C32.39,70.66,30.28,79.22,30.11,88.2Z" fill="#72b75b" stroke="#2d5b1d" stroke-linecap="round" stroke-linejoin="round" stroke-width="3"/><path d="M59.27,61.36A75.27,75.27,0,0,0,32.39,87.19" fill="#beef63" stroke="#2d5b1d" stroke-linecap="round" stroke-linejoin="round" stroke-width="2"/><path d="M33.73,89.37a6.72,6.72,0,0,1-1.68-.24,5.14,5.14,0,0,0-1-.16H31a1.58,1.58,0,0,1-1.56-1.24,117.29,117.29,0,0,1,2.7-51.46,1.52,1.52,0,0,1,1.45-1.09l.31,0a13.27,13.27,0,0,1,2.07.67,10.34,10.34,0,0,0,1.6.53,1.5,1.5,0,0,1,1.13,1.9c-5.18,17.28-6.3,33.86-3.33,49.28a1.46,1.46,0,0,1-.29,1.21,1.5,1.5,0,0,1-1.11.57Z" fill="#ffaa5a"/><path d="M33.57,36.68c1.36.29,2.31.91,3.67,1.19-4.86,16.22-6.56,33.38-3.36,50h-.15c-.95,0-1.73-.41-2.68-.41H30.9a115.47,115.47,0,0,1,2.67-50.79m0-3a3,3,0,0,0-2.88,2.19A118.71,118.71,0,0,0,27.94,88a3,3,0,0,0,3,2.49H31a3.92,3.92,0,0,1,.68.12,8.12,8.12,0,0,0,2,.29H34a3,3,0,0,0,2.81-3.57C33.9,72.13,35,55.78,40.12,38.73a3,3,0,0,0-2.26-3.79,7.79,7.79,0,0,1-1.36-.46,14.07,14.07,0,0,0-2.31-.73,2.7,2.7,0,0,0-.63-.07Z" fill="#924f28"/><path d="M47.31,45.71a3.42,3.42,0,0,1-3.1.14,10,10,0,0,1-2.68-1.8,2.78,2.78,0,0,1-1.23,4.67,3.89,3.89,0,0,1-3.65-1.27,6.3,6.3,0,0,1-.79-7.52c1.55-2.46,6.08-4.2,8.84-2.91C47.3,38.25,50.7,43.51,47.31,45.71Z" fill="#ffeb81" stroke="#ffaa5a" stroke-linecap="round" stroke-linejoin="round" stroke-width="3"/><path d="M21.29,44.18a3.44,3.44,0,0,0,3.11.14,10,10,0,0,0,2.67-1.8,2.79,2.79,0,0,0,1.24,4.67A3.88,3.88,0,0,0,32,45.92a6.29,6.29,0,0,0,.8-7.52c-1.55-2.47-6.09-4.2-8.84-2.91S17.91,42,21.29,44.18Z" fill="#ffeb81" stroke="#ffaa5a" stroke-linecap="round" stroke-linejoin="round" stroke-width="3"/><path d="M49,24.31c.52-8.4-2.23-16.95-8.28-22.81A24.22,24.22,0,0,0,26.76,21.23,35.23,35.23,0,0,0,49,24.31Z" fill="#ffb3c7" stroke="#84205c" stroke-linecap="round" stroke-linejoin="round" stroke-width="3"/><path d="M41.58,41.31c-5.65,2-12.22.16-16.65-3.86s-6.81-10-7.22-15.94S19.14,9.53,21.39,4a40.27,40.27,0,0,1,20.45,33.1C41.89,38.4,41.5,40,41.58,41.31Z" fill="#ff839e" stroke="#84205c" stroke-linecap="round" stroke-linejoin="round" stroke-width="3"/><path d="M56.87,10.65a36.15,36.15,0,0,0-29,28.73c4.79,3.75,11.16,4.18,16.84,2A21.85,21.85,0,0,0,57,28.64C59.19,23,58.68,16.45,56.87,10.65Z" fill="#ff839e" stroke="#84205c" stroke-linecap="round" stroke-linejoin="round" stroke-width="3"/><path d="M50.59,140.34H20.21a5.61,5.61,0,0,1-5.54-4.68L8.07,96.85H62l-5.8,38.7A5.61,5.61,0,0,1,50.59,140.34Z" fill="#ffeb81" stroke="#ffaa5a" stroke-linecap="round" stroke-linejoin="round" stroke-width="3"/><path d="M60.08,100.2H9.83a7.91,7.91,0,0,1-7.48-5.28,12.27,12.27,0,0,1,0-8.24A7.91,7.91,0,0,1,9.83,81.4H60.08a7.88,7.88,0,0,1,7.13,4.46,11,11,0,0,1,0,9.88A7.88,7.88,0,0,1,60.08,100.2Z" fill="#ac5350" stroke="#781f1a" stroke-linecap="round" stroke-linejoin="round" stroke-width="3"/></g></g></g></g></svg>