<svg xmlns="http://www.w3.org/2000/svg" viewBox="0 0 120 96.01"><g id="Layer_2" data-name="Layer 2"><g id="Layer_1-2" data-name="Layer 1"><g id="Props"><g id="to_train"><polygon points="57.08 36.35 52.56 8.06 8.4 8.06 8.4 43.47 8.4 50.76 52.56 50.76 57.08 50.76 57.08 36.35" fill="#ea413d"/><polygon points="52.56 50.76 8.4 50.76 8.4 78.89 12.71 78.89 57.08 78.89 57.08 65.17 57.08 50.76 52.56 50.76" fill="#b7281d"/><rect x="75.57" y="25.28" width="13.06" height="11.07" fill="#00649e"/><rect x="75.57" y="14" width="13.06" height="6.77" fill="#00649e"/><rect x="75.57" y="20.77" width="13.06" height="4.51" fill="#ea413d"/><path d="M90.14,37.85H74.07V12.5H90.14Zm-13.07-3H87.14V15.5H77.07Z" fill="#3a39ff"/><rect x="71.66" y="36.35" width="26.39" height="14.41" fill="#ea413d"/><rect x="71.66" y="50.76" width="26.39" height="14.41" fill="#b7281d"/><rect x="57.08" y="36.35" width="14.59" height="14.41" fill="#20ae76"/><rect x="57.08" y="50.76" width="14.59" height="14.41" fill="#18855a"/><polygon points="46.14 13.18 15.96 13.18 15.96 36.35 49.65 36.35 46.14 13.18" fill="#d6eaff"/><rect x="61.52" y="25.28" width="2.85" height="11.07" fill="#ffeb81"/><rect x="64.37" y="25.28" width="2.85" height="11.07" fill="#ffaa5a"/><path d="M67.22,37.85h-5.7a1.5,1.5,0,0,1-1.5-1.5V25.28a1.5,1.5,0,0,1,1.5-1.5h5.7a1.5,1.5,0,0,1,1.5,1.5V36.35A1.5,1.5,0,0,1,67.22,37.85Zm-4.2-3h2.7V26.78H63Z" fill="#ffaa5a"/><path d="M98.05,36.35V65.16a4.26,4.26,0,0,0,3.24-1.94V38.29A4.26,4.26,0,0,0,98.05,36.35Z" fill="#00649e"/><path d="M101.29,38.29V63.22c1.93-2.49,3.23-7.13,3.23-12.46S103.22,40.78,101.29,38.29Z" fill="#5698d8"/><path d="M30.44,1.5c-7,0-13.33,1.09-17.59,2.81h35.2C43.79,2.59,37.43,1.5,30.44,1.5Z" fill="#ffeb81"/><path d="M8.35,7.12H52.56a12.19,12.19,0,0,0-4.51-2.81H12.85A12.14,12.14,0,0,0,8.35,7.12Z" fill="#ffaa5a"/><path d="M52.56,8.62H8.35A1.49,1.49,0,0,1,7.23,6.13a13.37,13.37,0,0,1,5-3.21C16.89,1.06,23.5,0,30.44,0S44,1.06,48.62,2.92h0a13.58,13.58,0,0,1,5.06,3.21,1.5,1.5,0,0,1-1.12,2.49Zm-38.95-3H47.29C43,4,36.91,3,30.44,3S17.86,4,13.61,5.62Z" fill="#ffaa5a"/><path d="M57.08,80.39H8.4a1.5,1.5,0,0,1-1.5-1.5V8.06a1.5,1.5,0,0,1,1.5-1.5H52.56A1.5,1.5,0,0,1,54,7.82l4.32,27H98.05a5.6,5.6,0,0,1,4.42,2.52h0c2.22,2.87,3.55,7.87,3.55,13.38s-1.33,10.52-3.55,13.39a5.67,5.67,0,0,1-4.27,2.52H58.58V78.89A1.5,1.5,0,0,1,57.08,80.39Zm-47.18-3H55.58V65.17a1.5,1.5,0,0,1,1.5-1.5h41a3,3,0,0,0,2-1.36C101.9,60,103,55.55,103,50.75s-1.12-9.22-2.92-11.54a3,3,0,0,0-2-1.36h-41a1.5,1.5,0,0,1-1.48-1.27l-4.32-27H9.9Z" fill="#b7281d"/><polygon points="98.05 78.89 98.05 72.03 7.88 72.03 6.5 78.89 98.05 78.89" fill="#00649e"/><polygon points="113.87 80.99 108.11 72.03 98.05 72.03 98.05 80.99 98.05 86.25 117.26 86.25 113.87 80.99" fill="#00649e"/><polygon points="103.7 65.17 98.05 65.17 8.4 65.17 8.38 72.06 98.05 72.03 108.11 72.03 103.7 65.17" fill="#5698d8"/><path d="M120,87.75H96.55V80.39H4.66l2-9.86h.23V63.67h97.62Zm-20.45-3h15L102.88,66.67h-93v6.86H9.11l-.78,3.86H99.55Z" fill="#3a39ff"/><path d="M25.67,64.5a16.13,16.13,0,0,0-22,5.89,16.06,16.06,0,0,0,5.89,22A16.09,16.09,0,1,0,25.67,64.5Zm.65,15.37a8.7,8.7,0,0,1-1.05,3,8.54,8.54,0,0,1-2.05,2.38,8.75,8.75,0,0,1-2.51,1.45,8.58,8.58,0,0,1-6.19,0,8.94,8.94,0,0,1-1.33-.6A10.57,10.57,0,0,1,12,85.23a8.66,8.66,0,0,1-2.92-4.52,8.45,8.45,0,0,1-.19-.84A8.7,8.7,0,0,1,8.9,77,9,9,0,0,1,10,74a8.69,8.69,0,0,1,2-2.38,8.7,8.7,0,0,1,8.71-1.45,9.64,9.64,0,0,1,1.31.6,9.74,9.74,0,0,1,1.19.84A8.81,8.81,0,0,1,26.33,77,8.44,8.44,0,0,1,26.32,79.87Z" fill="#ffeb81"/><path d="M23.22,71.62A9.74,9.74,0,0,0,22,70.78a9.64,9.64,0,0,0-1.31-.6A8.83,8.83,0,0,0,12,71.63,8.69,8.69,0,0,0,10,74,9,9,0,0,0,8.9,77a8.7,8.7,0,0,0,0,2.88,8.45,8.45,0,0,0,.19.84A8.66,8.66,0,0,0,12,85.23a10.57,10.57,0,0,0,1.19.84,8.94,8.94,0,0,0,1.33.6,8.58,8.58,0,0,0,6.19,0,8.75,8.75,0,0,0,2.51-1.45,8.54,8.54,0,0,0,2.05-2.38,8.7,8.7,0,0,0,1.05-3,8.44,8.44,0,0,0,0-2.88A8.81,8.81,0,0,0,23.22,71.62Z" fill="#b7281d"/><path d="M57.45,69.38a13.46,13.46,0,1,0,4.94,18.39A13.53,13.53,0,0,0,57.45,69.38ZM58,82.25a7.62,7.62,0,0,1-.88,2.49,7.34,7.34,0,0,1-1.72,2A7.43,7.43,0,0,1,48.11,88,8.47,8.47,0,0,1,47,87.44a7.91,7.91,0,0,1-1-.7A7.32,7.32,0,0,1,43.55,83c-.06-.24-.11-.48-.15-.71a7.22,7.22,0,0,1,0-2.41,7.13,7.13,0,0,1,.89-2.49,7,7,0,0,1,1.71-2,7.38,7.38,0,0,1,2.11-1.21,7.09,7.09,0,0,1,5.18,0,6.88,6.88,0,0,1,1.11.5,8.72,8.72,0,0,1,1,.7A7.39,7.39,0,0,1,58,79.83,7.56,7.56,0,0,1,58,82.25Z" fill="#ffeb81"/><path d="M55.4,75.34a8.72,8.72,0,0,0-1-.7,6.88,6.88,0,0,0-1.11-.5,7.09,7.09,0,0,0-5.18,0A7.38,7.38,0,0,0,46,75.35a7,7,0,0,0-1.71,2,7.13,7.13,0,0,0-.89,2.49,7.22,7.22,0,0,0,0,2.41c0,.23.09.47.15.71A7.32,7.32,0,0,0,46,86.74a7.91,7.91,0,0,0,1,.7,8.47,8.47,0,0,0,1.11.51,7.43,7.43,0,0,0,7.29-1.22,7.34,7.34,0,0,0,1.72-2A7.48,7.48,0,0,0,58,79.83,7.39,7.39,0,0,0,55.4,75.34Z" fill="#b7281d"/><path d="M88.29,69.38a13.52,13.52,0,0,0-18.43,4.93A13.47,13.47,0,0,0,74.8,92.7,13.47,13.47,0,1,0,88.29,69.38Zm.55,12.87A7.42,7.42,0,0,1,88,84.74a7.61,7.61,0,0,1-3.81,3.2A7.2,7.2,0,0,1,79,88a8.47,8.47,0,0,1-1.11-.51,8.78,8.78,0,0,1-1-.7A7.31,7.31,0,0,1,74.39,83c-.06-.24-.11-.48-.15-.71a7.49,7.49,0,0,1,0-2.41,7.79,7.79,0,0,1,.89-2.49,7.24,7.24,0,0,1,1.72-2A7.46,7.46,0,0,1,79,74.14a7.12,7.12,0,0,1,5.19,0,6.74,6.74,0,0,1,1.1.5,8,8,0,0,1,1,.7,7.39,7.39,0,0,1,2.6,4.49A7.56,7.56,0,0,1,88.84,82.25Z" fill="#ffeb81"/><path d="M86.24,75.34a8,8,0,0,0-1-.7,6.74,6.74,0,0,0-1.1-.5,7.12,7.12,0,0,0-5.19,0,7.46,7.46,0,0,0-2.1,1.21,7.24,7.24,0,0,0-1.72,2,7.79,7.79,0,0,0-.89,2.49,7.49,7.49,0,0,0,0,2.41c0,.23.09.47.15.71a7.31,7.31,0,0,0,2.45,3.78,8.78,8.78,0,0,0,1,.7A8.47,8.47,0,0,0,79,88a7.2,7.2,0,0,0,5.19,0A7.61,7.61,0,0,0,88,84.74a7.42,7.42,0,0,0,.89-2.49,7.56,7.56,0,0,0,0-2.42A7.39,7.39,0,0,0,86.24,75.34Z" fill="#b7281d"/><path d="M17.6,96a17.68,17.68,0,0,1-8.79-2.36,17.57,17.57,0,0,1-6.44-24A17.63,17.63,0,0,1,26.42,63.2h0A17.58,17.58,0,0,1,17.6,96Zm0-32.16A14.65,14.65,0,0,0,5,71.14a14.54,14.54,0,0,0,5.34,19.91,14.61,14.61,0,0,0,20-5.34A14.58,14.58,0,0,0,24.92,65.8h0A14.61,14.61,0,0,0,17.63,63.85Z" fill="#ffaa5a"/><path d="M50.7,96a15.07,15.07,0,0,1-7.49-2,15,15,0,0,1-5.49-20.44A15,15,0,0,1,58.2,68.08h0a15,15,0,0,1,5.49,20.44A15.06,15.06,0,0,1,50.7,96Zm0-26.93a12,12,0,0,0-10.39,6A12,12,0,0,0,50.7,93a12.05,12.05,0,0,0,10.39-6A12,12,0,0,0,50.71,69.08Z" fill="#ffaa5a"/><path d="M81.53,96a15,15,0,0,1-7.48-2,15,15,0,0,1-5.48-20.44A15,15,0,0,1,89,68.08h0a15,15,0,0,1,5.49,20.44A15.06,15.06,0,0,1,81.53,96Zm0-26.93a12,12,0,0,0-10.39,6A12,12,0,0,0,81.53,93a12.06,12.06,0,0,0,10.4-6A12,12,0,0,0,81.55,69.08Z" fill="#ffaa5a"/></g></g></g></g></svg>