<svg xmlns="http://www.w3.org/2000/svg" viewBox="0 0 73.9 29"><g style="isolation:isolate"><g id="Layer_2" data-name="Layer 2"><g id="Layer_1-2" data-name="Layer 1"><g id="Props"><g id="fu_kitchen_utensil_pan_1" data-name="fu_kitchen utensil_pan 1"><path d="M36.9,2.6H12.6C13.7,8.7,19.4,23,24.5,23H49.4c5,0,10.8-14.3,11.9-20.4Z" style="fill:#8eaad1"/><path d="M46.6,2.6C46.4,9.1,39.2,23,34.2,23H49.4c5,0,10.8-14.3,11.9-20.4Z" style="fill:#e6e6e6;mix-blend-mode:multiply"/><path d="M63.4,2.6H11.3a.9.9,0,0,1-.8-.8h0a.9.9,0,0,1,.8-.8H63.4a.8.8,0,0,1,.8.8h0A.8.8,0,0,1,63.4,2.6Z" style="fill:#a4c3d7"/><path d="M53.4,28H20a.8.8,0,0,1-.8-.8h0a.8.8,0,0,1,.8-.7H53.4a.8.8,0,0,1,.8.7h0A.8.8,0,0,1,53.4,28Z" style="fill:#8eaad1"/><polygon points="49.1 23 52.1 26.5 21.5 26.5 24.5 23 49.1 23" style="fill:#6787b5"/><path d="M38.1,11.6a.7.7,0,1,1-.7-.7A.7.7,0,0,1,38.1,11.6Zm-3.3-.2a.7.7,0,0,0-.6.7.6.6,0,0,0,.6.6.7.7,0,0,0,.7-.6A.7.7,0,0,0,34.8,11.4Zm-2,1.5a.7.7,0,1,0,.7.7A.7.7,0,0,0,32.8,12.9Zm4.6,0a.7.7,0,1,0,.7.7A.7.7,0,0,0,37.4,12.9Zm0,2.6a.7.7,0,0,0-.7.7.7.7,0,0,0,1.4,0A.7.7,0,0,0,37.4,15.5Zm0,2.1a.7.7,0,1,0,.7.7A.7.7,0,0,0,37.4,17.6ZM32,15.1a.7.7,0,0,0-.7.6.7.7,0,0,0,.7.7.7.7,0,0,0,.6-.7A.6.6,0,0,0,32,15.1Zm2.7-.7a.7.7,0,0,0-.7.7.7.7,0,0,0,1.4,0A.7.7,0,0,0,34.7,14.4Zm-2.2,2.8a.7.7,0,0,0-.7.7.7.7,0,0,0,1.4,0A.7.7,0,0,0,32.5,17.2Zm2.3,1.7a.6.6,0,0,0-.8.3.7.7,0,0,0,.5.8.6.6,0,0,0,.8-.4C35.4,19.3,35.2,19,34.8,18.9Zm2.6.5c-.4,0-.7.2-.7.6a.7.7,0,0,0,1.4,0C38.1,19.6,37.8,19.4,37.4,19.4Zm0,1.9c-.4,0-.7.2-.7.5s.3.5.7.5.7-.2.7-.5S37.8,21.3,37.4,21.3Zm-2.1-4.7a.6.6,0,0,0-.8.4.7.7,0,0,0,.4.8.8.8,0,0,0,.9-.4A.9.9,0,0,0,35.3,16.6Zm0,4.3a.6.6,0,0,0-.8.4.7.7,0,0,0,.4.8.8.8,0,0,0,.9-.4A.9.9,0,0,0,35.3,20.9ZM32.8,20a.7.7,0,0,0-.8.4c-.1.3.1.6.5.8a.7.7,0,0,0,.8-.4A.7.7,0,0,0,32.8,20Zm6.9-8.1a.7.7,0,0,0,.7.7.7.7,0,0,0,.6-.7.6.6,0,0,0-.6-.6A.7.7,0,0,0,39.7,11.9Zm1.8,1.8a.7.7,0,0,0,.7.7.7.7,0,0,0,0-1.4A.7.7,0,0,0,41.5,13.7Zm.4,2a.7.7,0,1,0,.7-.7A.7.7,0,0,0,41.9,15.7Zm-2.2-1a.7.7,0,0,0,.6.7.7.7,0,0,0,.7-.7.7.7,0,0,0-.7-.6A.6.6,0,0,0,39.7,14.7ZM41.2,18a.7.7,0,0,0,.7.6.6.6,0,0,0,.6-.6.7.7,0,0,0-.6-.7A.7.7,0,0,0,41.2,18Zm-2.1,1.6a.6.6,0,0,0,.9.3.6.6,0,0,0,.4-.7.6.6,0,0,0-.8-.4A.9.9,0,0,0,39.1,19.6Zm.1-2.2a.7.7,0,0,0,.8.4.7.7,0,0,0,.5-.8.7.7,0,0,0-.8-.4A.7.7,0,0,0,39.2,17.4Zm-.3,4.3a.7.7,0,0,0,.8.4.7.7,0,0,0,.5-.8c-.1-.3-.4-.4-.8-.3S38.8,21.4,38.9,21.7Zm2.6-1.1a.6.6,0,0,0,.8.3c.4-.1.6-.4.5-.7a.7.7,0,0,0-.8-.4A.7.7,0,0,0,41.5,20.6Z" style="fill:#3e4a52"/><path d="M56.6,11.5c-.2.4-.5.6-.7.5a.7.7,0,0,1-.2-.8c.1-.4.4-.6.7-.5A.7.7,0,0,1,56.6,11.5Zm-2.1-1c-.3-.1-.6.2-.7.5a.7.7,0,0,0,.2.8c.3.1.6-.1.7-.5A.7.7,0,0,0,54.5,10.5Zm-1.9,1c-.2-.1-.5.1-.7.5a.6.6,0,0,0,.3.8.7.7,0,0,0,.6-.5C53,11.9,52.9,11.6,52.6,11.5Zm3.1,1.1c-.3-.1-.6.1-.7.5a.5.5,0,0,0,.2.8c.2.1.5-.1.7-.5A.7.7,0,0,0,55.7,12.6ZM54.8,15c-.3-.1-.6.1-.7.5s-.1.7.2.8.5-.1.7-.5A.7.7,0,0,0,54.8,15ZM54,17c-.2-.1-.5.1-.7.5a.7.7,0,0,0,.2.8c.3.1.6-.1.7-.5S54.3,17.1,54,17Zm-2.7-3.7c-.2-.1-.5.1-.6.4s-.1.7.2.8.5-.1.6-.4S51.6,13.4,51.3,13.3Zm2,.1c-.2-.1-.5.1-.6.4a.6.6,0,0,0,.2.7c.2.1.5-.1.7-.4A.5.5,0,0,0,53.3,13.4Zm-2.4,2c-.2-.1-.5.1-.6.5s-.1.7.2.7.5-.1.6-.4S51.2,15.5,50.9,15.4Zm1,2.1a.5.5,0,0,0-.7.2.8.8,0,0,0,.1.8.4.4,0,0,0,.6-.1A.7.7,0,0,0,51.9,17.5Zm1.5,1.1a.6.6,0,0,0-.6.4.5.5,0,0,0,.2.8c.2.1.5-.1.6-.4A.6.6,0,0,0,53.4,18.6Zm-.7,1.8c-.1-.1-.4.1-.6.3a.6.6,0,0,0,0,.6c.1.1.4,0,.5-.3A.5.5,0,0,0,52.7,20.4Zm.3-4.9a.5.5,0,0,0-.7.2.6.6,0,0,0,0,.8.5.5,0,0,0,.7-.1A.7.7,0,0,0,53,15.5Zm-1.5,4.1a.5.5,0,0,0-.7.1.7.7,0,0,0,0,.9.5.5,0,0,0,.7-.2A.6.6,0,0,0,51.5,19.6Zm-1.4-1.5c-.1-.2-.4-.1-.6.2a.6.6,0,0,0,0,.8c.2.2.5.1.7-.2A.6.6,0,0,0,50.1,18.1Zm7.1-6c-.2.4-.1.7.1.8s.5-.2.6-.5.1-.7-.1-.8S57.3,11.8,57.2,12.1Zm-1,2.6c-.1.3-.1.6.1.7s.4-.2.5-.5.1-.6-.1-.7S56.4,14.4,56.2,14.7Zm-1.4,2.4a.3.3,0,0,0,.3.5.8.8,0,0,0,.5-.7c.1-.3,0-.5-.3-.4S54.9,16.8,54.8,17.1Z" style="fill:#3e4a52"/><g style="opacity:0.5"><path d="M20.3,4.1H16.8c0,6.5,5.1,14.1,8.6,16.5C24,18.3,21,14.1,20.3,4.1Z" style="fill:#ffe89f"/></g><path d="M17.9,11.2a.6.6,0,0,1,.7.4c.1.4,0,.7-.2.8s-.6-.1-.7-.5S17.7,11.2,17.9,11.2Zm1.7.6a.6.6,0,0,0,.7.4c.2-.1.3-.4.2-.8s-.5-.5-.7-.4S19.5,11.4,19.6,11.8Zm1.9.9c.1.4.4.6.6.5a.5.5,0,0,0,.2-.8c-.1-.4-.4-.6-.6-.5A.5.5,0,0,0,21.5,12.7Zm-3.1,1.1c.2.4.5.6.7.5s.3-.4.2-.8a.6.6,0,0,0-.7-.4C18.4,13.1,18.3,13.5,18.4,13.8Zm.9,2.4c.1.4.4.6.7.5s.3-.4.2-.8a.8.8,0,0,0-.7-.5A.7.7,0,0,0,19.3,16.2Zm.8,2c.1.4.4.6.6.5s.4-.4.2-.8a.7.7,0,0,0-.6-.5A.5.5,0,0,0,20.1,18.2Zm2.6-3.7a1,1,0,0,0,.7.5.5.5,0,0,0,.2-.8c-.1-.4-.4-.6-.6-.5S22.6,14.1,22.7,14.5Zm-2,0a.6.6,0,0,0,.7.5.7.7,0,0,0,.2-.8c-.1-.3-.4-.5-.6-.4A.5.5,0,0,0,20.7,14.5Zm2.4,2.1c.2.4.5.6.7.5a.5.5,0,0,0,.2-.8c-.1-.4-.4-.6-.6-.5A.6.6,0,0,0,23.1,16.6Zm-.8,2.2a.5.5,0,0,0,.7.2.9.9,0,0,0,.1-.9.5.5,0,0,0-.7-.1A.8.8,0,0,0,22.3,18.8Zm-1.7,1c.2.3.5.5.7.4a.6.6,0,0,0,.2-.7c-.1-.3-.4-.5-.6-.4A.5.5,0,0,0,20.6,19.8Zm1,1.7c.2.2.5.3.6.2s.1-.3-.1-.6-.4-.3-.5-.2S21.5,21.2,21.6,21.5Zm-.3-4.7a.4.4,0,0,0,.6.2.7.7,0,0,0,.1-.9.5.5,0,0,0-.7-.1A.6.6,0,0,0,21.3,16.8Zm1.5,4c.2.3.5.4.6.2a.6.6,0,0,0,.1-.8c-.2-.3-.5-.4-.7-.2A.6.6,0,0,0,22.8,20.8Zm1.3-1.4a.5.5,0,0,0,.7.1.6.6,0,0,0,0-.8.5.5,0,0,0-.7-.2A.7.7,0,0,0,24.1,19.4ZM16.5,12a.6.6,0,0,0-.1.8c.1.4.4.6.6.5s.3-.4.1-.8A.7.7,0,0,0,16.5,12Zm1,2.6a.6.6,0,0,0,0,.7c.1.4.3.6.5.5a.8.8,0,0,0,.1-.7C17.9,14.8,17.7,14.6,17.5,14.6Zm1.4,2.3c-.2-.1-.3.2-.2.5a.6.6,0,0,0,.5.6c.2,0,.3-.2.3-.5S19.2,16.9,18.9,16.9Z" style="fill:#3e4a52"/><path d="M59.5,4.3a13.9,13.9,0,0,0-1.7,2,2.7,2.7,0,0,0-.2,1.9c.2.3.7.2.9,0a22,22,0,0,0,2-3Z" style="fill:#6787b5"/><path d="M59.5,4.3h0l.8.8s-1.5,2.6-1.9,3.1a.9.9,0,0,1-.7.1.8.8,0,0,0,.8-.1,22,22,0,0,0,2-3Z" style="fill:#ccc;mix-blend-mode:multiply"/><path d="M57.7,8.3a2.7,2.7,0,0,1,.2-1.9,13.9,13.9,0,0,1,1.7-2h-.1a13.9,13.9,0,0,0-1.7,2,2.7,2.7,0,0,0-.2,1.9Z" style="fill:#ffe89f;opacity:0.30000000000000004"/><path d="M59.5,4.3c.5-.5,4.7-2,12.4-2,.7,0,1,.6,1,1.3s-7.1,2-8.6,2a12.9,12.9,0,0,1-3.8-.4Z" style="fill:#a4c3d7"/><path d="M59.5,4.3c.5-.5,4.7-2,12.4-2,.7,0,1,.6,1,1.3s-7.1,2-8.6,2a12.9,12.9,0,0,1-3.8-.4Z" style="fill:#93b7cf"/><path d="M64.4,5.5A10.3,10.3,0,0,1,60.6,5c-.4-.2-.5-.3-1-.9s-.1.1-.1.2l1,.9a12.9,12.9,0,0,0,3.8.4c1.3,0,7.2-.2,8.4-1.5C71.3,5.3,65.7,5.5,64.4,5.5Z" style="fill:#ccc;mix-blend-mode:multiply"/><path d="M71.8,2.6c.6,0,.9.7.9,1.3v.2c.1-.2.2-.3.2-.5s-.3-1.3-1-1.3c-7.7,0-11.9,1.5-12.4,2h.1C60.7,3.8,64.8,2.6,71.8,2.6Z" style="fill:#ffe89f;opacity:0.30000000000000004"/><path d="M14.4,4.3a13.9,13.9,0,0,1,1.7,2,2.7,2.7,0,0,1,.2,1.9c-.2.3-.7.2-.9,0a22,22,0,0,1-2-3Z" style="fill:#6787b5"/><path d="M14.4,4.3h0l-.8.8a26.2,26.2,0,0,0,1.9,3.1.8.8,0,0,0,.7.1c-.3.1-.7.1-.8-.1a22,22,0,0,1-2-3Z" style="fill:#ccc;mix-blend-mode:multiply"/><path d="M16.2,8.3A2.7,2.7,0,0,0,16,6.4a13.9,13.9,0,0,0-1.7-2h.1a13.9,13.9,0,0,1,1.7,2,2.7,2.7,0,0,1,.2,1.9h-.1Z" style="fill:#ffe89f;opacity:0.30000000000000004"/><path d="M14.4,4.3c-.5-.5-4.7-2-12.5-2-.6,0-.9.6-.9,1.3s7.1,2,8.6,2a12.9,12.9,0,0,0,3.8-.4Z" style="fill:#a4c3d7"/><path d="M14.4,4.3c-.5-.5-4.7-2-12.5-2-.6,0-.9.6-.9,1.3s7.1,2,8.6,2a12.9,12.9,0,0,0,3.8-.4Z" style="fill:#93b7cf"/><path d="M9.5,5.5A10.3,10.3,0,0,0,13.3,5c.4-.2.5-.3.9-.9l.2.2-1,.9a12.9,12.9,0,0,1-3.8.4c-1.3,0-7.3-.2-8.4-1.5C2.6,5.3,8.2,5.5,9.5,5.5Z" style="fill:#ccc;mix-blend-mode:multiply"/><path d="M2.1,2.6c-.7,0-.9.7-.9,1.3v.2c-.1-.2-.2-.3-.2-.5s.3-1.3.9-1.3c7.8,0,12,1.5,12.5,2h-.1C13.1,3.8,9.1,2.6,2.1,2.6Z" style="fill:#ffe89f;opacity:0.30000000000000004"/><path d="M63.5,1c1,0,.9,1.6,0,1.6H61.3c-.1.3-.1.6-.2,1A37.5,37.5,0,0,1,71.9,2.3H72c.8,0,1.2,1.2.7,1.8h0c-1.4,1.1-3.3,1.1-4.9,1.3l-3.7.2a11.3,11.3,0,0,1-3.4-.4C58.7,12.1,54,23,49.3,23h-.2l3,3.5h1.3a.8.8,0,1,1,0,1.5H20a.8.8,0,0,1,0-1.5h1.5l3-3.5c-4.4,0-9.4-10.9-11.3-17.8a11.8,11.8,0,0,1-3.4.4L6.1,5.4c-1.6-.2-3.5-.2-4.9-1.3h0c-.5-.6-.1-1.8.7-1.8h0A38.4,38.4,0,0,1,12.8,3.6a4.4,4.4,0,0,1-.2-1H11.3a.8.8,0,0,1,0-1.6H63.5m9.1,3.1h0M1.2,4.1h0m71.5,0h0M1.2,4.1h0M63.5,0H11.3A1.6,1.6,0,0,0,9.8.9a1.4,1.4,0,0,0-.3.9,48.6,48.6,0,0,0-7.6-.5h0A2,2,0,0,0,.2,2.4,2.4,2.4,0,0,0,.3,4.6H.5l.2.2A8.8,8.8,0,0,0,5.1,6.3H6l3.8.2a11.4,11.4,0,0,0,2.7-.2C14,11.2,18,21.3,22.7,23.6L21,25.5H20a1.8,1.8,0,0,0-1.5.8,2.1,2.1,0,0,0,0,1.9A1.8,1.8,0,0,0,20,29H53.4a1.7,1.7,0,0,0,1.8-1.8,1.7,1.7,0,0,0-1.8-1.7h-.8L51,23.6c5.3-2.1,9.3-13.8,10.4-17.2a10.6,10.6,0,0,0,2.7.2l3.8-.2h.9a9.1,9.1,0,0,0,4.4-1.4l.2-.2h.2a2.2,2.2,0,0,0,0-2.2A1.7,1.7,0,0,0,72,1.3h-.1a58.8,58.8,0,0,0-6.7.4A1.7,1.7,0,0,0,63.5,0Z" style="fill:#314d77"/></g></g></g></g></g></svg>