<svg xmlns="http://www.w3.org/2000/svg" viewBox="0 0 537.66 212.98"><g id="Layer_2" data-name="Layer 2"><g id="Layer_1-2" data-name="Layer 1"><g id="Props"><g id="fu_carpet"><path d="M199.23,211.48a424.2,424.2,0,0,1-76-6.62C99.94,200.61,79,194.51,60.93,186.73c-18.28-7.88-32.7-17.13-42.86-27.49C7.07,148,1.5,136,1.5,123.46V90.65c0-12.54,5.57-24.58,16.57-35.78C28.23,44.51,42.65,35.26,60.93,27.38c18-7.78,39-13.88,62.34-18.13a424.19,424.19,0,0,1,76-6.63h139.2a424.08,424.08,0,0,1,75.95,6.63c23.34,4.25,44.31,10.35,62.35,18.13,18.28,7.88,32.7,17.13,42.86,27.49,11,11.2,16.57,23.24,16.57,35.78v32.81c0,12.54-5.58,24.57-16.57,35.78-10.16,10.36-24.58,19.61-42.86,27.49-18,7.78-39,13.88-62.35,18.13a424.09,424.09,0,0,1-75.95,6.62Z" fill="#c48b67"/><path d="M338.43,4.12a422.92,422.92,0,0,1,75.68,6.6c23.23,4.24,44.09,10.3,62,18,18.1,7.81,32.36,17,42.39,27.17,10.71,10.91,16.14,22.6,16.14,34.73v32.81c0,12.13-5.43,23.82-16.14,34.73-10,10.22-24.29,19.36-42.39,27.16-17.93,7.73-38.79,13.8-62,18A423.85,423.85,0,0,1,338.43,210H199.23a424,424,0,0,1-75.69-6.59c-23.22-4.24-44.09-10.31-62-18-18.1-7.8-32.36-16.94-42.38-27.16C8.43,147.28,3,135.59,3,123.46V90.65C3,78.52,8.43,66.83,19.14,55.92c10-10.22,24.28-19.36,42.38-27.17,17.93-7.73,38.8-13.79,62-18a423,423,0,0,1,75.69-6.6h139.2m0-3H199.23A426.29,426.29,0,0,0,123,7.77C99.56,12,78.47,18.18,60.33,26,41.87,34,27.29,43.32,17,53.82,5.72,65.31,0,77.7,0,90.65v32.81c0,12.94,5.72,25.34,17,36.83,10.29,10.5,24.87,19.86,43.33,27.82,18.14,7.82,39.23,13.95,62.67,18.23A426.3,426.3,0,0,0,199.23,213h139.2a426.19,426.19,0,0,0,76.22-6.64c23.45-4.28,44.53-10.41,62.67-18.23,18.46-8,33-17.32,43.34-27.82,11.28-11.49,17-23.89,17-36.83V90.65c0-13-5.72-25.34-17-36.83C510.36,43.32,495.78,34,477.32,26c-18.14-7.82-39.22-14-62.67-18.23a426.18,426.18,0,0,0-76.22-6.65Z" fill="#97623d"/><path d="M199.23,203.62a421.08,421.08,0,0,1-75.35-6.57c-23.09-4.21-43.82-10.23-61.62-17.91s-31.94-16.71-41.79-26.75C10.12,141.83,4.87,130.59,4.87,119V86.16c0-11.63,5.25-22.87,15.6-33.43,9.86-10,23.92-19,41.79-26.75s38.53-13.7,61.62-17.91A421.08,421.08,0,0,1,199.23,1.5h139.2a421.16,421.16,0,0,1,75.35,6.57C436.86,12.28,457.59,18.3,475.39,26s31.94,16.71,41.79,26.75c10.36,10.55,15.6,21.8,15.6,33.43V119c0,11.63-5.24,22.87-15.6,33.43-9.85,10-23.91,19-41.79,26.75s-38.53,13.7-61.61,17.91a421.08,421.08,0,0,1-75.35,6.57Z" fill="#f6e6d0"/><path d="M338.43,3a419.92,419.92,0,0,1,75.08,6.54c23,4.19,43.59,10.18,61.29,17.82s31.6,16.52,41.31,26.42c10.07,10.27,15.17,21.16,15.17,32.38V119c0,11.22-5.1,22.11-15.17,32.38-9.71,9.9-23.61,18.79-41.31,26.42s-38.32,13.63-61.29,17.82a419.92,419.92,0,0,1-75.08,6.54H199.23a419.92,419.92,0,0,1-75.08-6.54c-23-4.19-43.6-10.19-61.29-17.82s-31.6-16.52-41.32-26.42C11.48,141.07,6.37,130.18,6.37,119V86.16c0-11.22,5.11-22.11,15.17-32.38C31.26,43.88,45.16,35,62.86,27.36s38.32-13.63,61.29-17.82A419.92,419.92,0,0,1,199.23,3h139.2m0-3H199.23a423.17,423.17,0,0,0-75.62,6.59c-23.2,4.23-44,10.29-61.94,18C43.61,32.39,29.39,41.5,19.4,51.68c-10.64,10.85-16,22.44-16,34.48V119c0,12,5.39,23.63,16,34.48,10,10.18,24.21,19.29,42.27,27.08,17.91,7.72,38.74,13.78,61.94,18a423.17,423.17,0,0,0,75.62,6.59h139.2a423.17,423.17,0,0,0,75.62-6.59c23.19-4.23,44-10.29,61.94-18s32.27-16.9,42.26-27.08c10.64-10.85,16-22.45,16-34.48V86.16c0-12-5.39-23.63-16-34.48C508.26,41.5,494,32.39,476,24.6s-38.75-13.78-61.94-18A423.17,423.17,0,0,0,338.43,0Z" fill="#c48b67"/><path d="M531.29,86.16V119c0,11.22-5.11,22.11-15.18,32.38-9.71,9.9-23.62,18.79-41.31,26.42s-38.32,13.63-61.29,17.81a419.15,419.15,0,0,1-75.08,6.55H199.23a419.18,419.18,0,0,1-75.09-6.55c-23-4.18-43.59-10.18-61.29-17.81s-31.59-16.52-41.3-26.42C11.48,141.07,6.37,130.18,6.37,119V86.16c0-11.22,5.11-22.12,15.18-32.38,9.71-9.9,23.61-18.79,41.3-26.43s38.33-13.62,61.29-17.81A420.11,420.11,0,0,1,199.23,3h139.2a420.08,420.08,0,0,1,75.08,6.54c23,4.19,43.59,10.18,61.29,17.81s31.6,16.53,41.31,26.43C526.18,64,531.29,74.94,531.29,86.16ZM488.91,119V86.16c0-35.84-67.37-64.89-150.48-64.89H199.23c-83.11,0-150.49,29.05-150.49,64.89V119c0,35.84,67.38,64.89,150.49,64.89h139.2C421.54,183.85,488.91,154.8,488.91,119Z" fill="#fff"/><path d="M488.91,86.16V119c0,35.84-67.37,64.89-150.48,64.89H199.23c-83.11,0-150.49-29-150.49-64.89V86.16c0-35.84,67.38-64.89,150.49-64.89h139.2C421.54,21.27,488.91,50.32,488.91,86.16Z" fill="#fff"/><path d="M48.74,86.16c0-35.84,67.38-64.89,150.49-64.89h139.2c83.11,0,150.48,29.05,150.48,64.89V119c0,35.84-67.37,64.89-150.48,64.89H199.23c-83.11,0-150.49-29-150.49-64.89V86.16Zm-42.37,0V119c0,11.22,5.11,22.11,15.17,32.38,9.72,9.9,23.62,18.79,41.32,26.42s38.32,13.63,61.29,17.82a419.92,419.92,0,0,0,75.08,6.54h139.2a419.92,419.92,0,0,0,75.08-6.54c23-4.19,43.59-10.19,61.29-17.82s31.6-16.52,41.31-26.42c10.07-10.27,15.17-21.16,15.17-32.38V86.16c0-11.22-5.1-22.11-15.17-32.38C506.4,43.88,492.5,35,474.8,27.36S436.48,13.73,413.51,9.54A419.92,419.92,0,0,0,338.43,3H199.23a419.92,419.92,0,0,0-75.08,6.54c-23,4.19-43.6,10.18-61.29,17.82S31.26,43.88,21.54,53.78C11.48,64.05,6.37,74.94,6.37,86.16Z" fill="#f6e6d0"/><path d="M446.07,103.7c-52.44,6.13-88.34,1.59-123-2.8-49.23-6.24-100.14-12.68-201.19,11.64l-2.58-2c103-24.79,155-18.21,205.26-11.85,35.58,4.51,69.17,8.76,120.17,2.8Z" fill="#dae0c0"/><path d="M321.92,100.33c-30.7,2.07-54.08,11-78.84,20.47-26.73,10.22-57,21.81-101.7,26.55l-1.27-2.21c43.4-4.62,71.9-15.51,99.46-26,25.35-9.69,49.3-18.85,81.53-21Z" fill="#dae0c0"/><path d="M395,106.19c-20.44,12.36-41.34,13.62-61.55,14.83-3,.18-6.19.37-9.26.6l-.89-2.26c3.15-.23,6.34-.42,9.42-.6,20-1.2,38.85-2.34,58-13.9Z" fill="#dae0c0"/><path d="M271.69,93.29,271,95.56c-47.76-2.77-70.35-16.64-88.49-27.78C170.11,60.19,159.43,53.62,144.26,53l.53-2.27c17.58.77,28.91,7.72,42,15.78C204.38,77.25,226.22,90.66,271.69,93.29Z" fill="#dae0c0"/><path d="M223,84.48l-4.67,1.07c-11.41-9.23-7.81-16.35-5.18-21.55,1.57-3.12,2.82-5.58.46-7.44l4.66-1.1c3.29,2.62,1.79,5.59,0,9C215.7,69.61,212.48,76,223,84.48Z" fill="#dae0c0"/><path d="M451.58,90.49a23.07,23.07,0,0,1-3.25,11.66l-5.14-.55c8.63-14.95-1.05-32.24-25.9-46.23l4.2-1.39C441.07,65,451.58,78,451.58,90.49Z" fill="#dae0c0"/><path d="M206.47,96.67c-1.85,7.09-16.17,15.67-31.28,18.73l-2.25-2.07c13.42-2.72,26.63-10.62,28.26-16.91Z" fill="#dae0c0"/><path d="M273.33,93.37l-2,2.11C259.43,93.39,249.8,89,245.56,83.79l5-.75C254.31,87.66,262.82,91.52,273.33,93.37Z" fill="#dae0c0"/><path d="M159.93,113.27a14.6,14.6,0,0,0-4.83,3.16,2,2,0,0,0-.72,2c1.1,3.46,13,4,19.19,2C189.47,115.63,173.76,107.66,159.93,113.27Z" fill="#80a958"/><path d="M156.48,115.17a2.62,2.62,0,0,0-1.43.8c-.83.8-1.49,1.66-1.19,2.55s1.62,1.83,3.53,2.39a26,26,0,0,0,6.75.87c1,0,3.2,0,3.41-.55,0-.09-.09-.18-.23-.24a5.46,5.46,0,0,0-2.17-.32h-.26c-.69,0-1.38.08-2.08.06-.41,0-.89-.07-1-.24s.18-.31.46-.43a17.92,17.92,0,0,1,1.92-.68,4.68,4.68,0,0,0,.88-.32c.22-.14.3-.34.07-.48a2,2,0,0,0-.75-.15c-1.45-.08-2.72.46-4.17.49a2.36,2.36,0,0,1-.38,0c-.36-.07-.36-.3-.24-.46.45-.58,1.66-1,2.42-1.49.2-.14.36-.28.38-.44s-.14-.33-.47-.4a2.76,2.76,0,0,0-1.49.19c-.85.32-1.55.71-2.48,1a1.53,1.53,0,0,1-.94,0,.26.26,0,0,1-.16-.15.39.39,0,0,1-.07-.23c.06-.17.13-.33.18-.49a.5.5,0,0,0,0-.12h0a1.88,1.88,0,0,0,.37-.87.26.26,0,0,0-.19-.26A1.3,1.3,0,0,0,156.48,115.17Z"/><path d="M234.83,79a4.73,4.73,0,0,1,.78-3.92A4.78,4.78,0,0,1,238,73.29c6.07-2.52,16.67.32,18.59,3.72C262.45,85.29,237.74,87.43,234.83,79Z" fill="#80a958"/><path d="M234.86,76.51c-.4-.3-.15-.75,0-1.05a5.34,5.34,0,0,1,2.82-2.41,16.52,16.52,0,0,1,6.46-1A26,26,0,0,1,251,73.24c.82.26,2.65.87,2,1.4a1.17,1.17,0,0,1-.55.13,5.63,5.63,0,0,1-2.23-.34l-.21-.08c-.53-.21-1-.45-1.6-.63a2.38,2.38,0,0,0-1.18-.08.33.33,0,0,0-.26.47,3.66,3.66,0,0,0,.55,1.1c.12.16.26.33.23.51s-.25.35-.65.4a2.67,2.67,0,0,1-.85-.08c-1.29-.34-1.53-1.13-2.66-1.56a1.13,1.13,0,0,0-.34-.09,1,1,0,0,0-.88.31c-.5.59-.11,1.26-.26,1.89a.69.69,0,0,1-.34.46,1.83,1.83,0,0,1-1,.2,1,1,0,0,1-.94-.57,6.55,6.55,0,0,0-.53-1.5.79.79,0,0,0-.7-.3,1.21,1.21,0,0,0-.35.07,2.2,2.2,0,0,0-.41.18c-.19.15-.37.3-.58.44l-.16.11h0a4.67,4.67,0,0,1-1,.82,1.37,1.37,0,0,1-.55.16A1.13,1.13,0,0,1,234.86,76.51Z"/><path d="M155.23,62.64a3.91,3.91,0,0,0,1-.94c.8-1.16.85-2.41,1.42-3.6a15.1,15.1,0,0,1,2.51-3.61,80.35,80.35,0,0,1,7-6.07,13.77,13.77,0,0,0,2.69-2.8,4.52,4.52,0,0,0,.74-3.15c-.27-1.79-1.64-3.58-3.87-5.1-3.83-2.62-10.2-4.39-17.1-5.12a74.48,74.48,0,0,0-22.86,1.44c-6.74,1.47-14.28,3-18.23,5.94a29.16,29.16,0,0,0-2.92,2.64c-3,3-6.13,6.12-5.59,9.43.51,3.13,4.51,5.91,9,8.29a52.12,52.12,0,0,0,18,5.38c2.45.33,5,.57,7.53.72,5.55.32,11.69,0,16.37-1.51A15.58,15.58,0,0,0,155.23,62.64Z" fill="#ff5a23"/><path d="M134,38.08c-2.76.7-3.94,2.14-4.11,3.5-.12,1,.12,2-1,2.82s-3.27,1.24-4.81,1.91a6.6,6.6,0,0,0-1,.55c-.48.31-1,.6-1.56.9a2.41,2.41,0,0,0-1.32,1.47c-.32,1.75,3.54,3.25,3.54,5,0,1-1.22,1.91-1.88,2.87s-.52,2.17,1.47,2.71a9.78,9.78,0,0,0,6-.58,5.78,5.78,0,0,0,2.57-2.56,3.5,3.5,0,0,1,1.09-1.22c1.85-1.21,6.29-1.45,7.71-2.76,1.2-1.12-.43-2.38-1.24-3.56a3,3,0,0,1,.29-3.84c1.58-1.86,5.31-3.63,4.13-5.54C142.79,38.1,137.54,37.2,134,38.08Z"/><path d="M126.73,51.69c-.8-.29-.9-.8-.23-1.14a3.78,3.78,0,0,1,2.66-.1c.8.29.9.8.23,1.14A3.78,3.78,0,0,1,126.73,51.69Z" fill="#b9992b"/><path d="M127.85,48.75c-.8-.29-.9-.8-.23-1.14a3.78,3.78,0,0,1,2.66-.1c.8.29.9.8.23,1.14A3.78,3.78,0,0,1,127.85,48.75Z" fill="#b9992b"/><path d="M132,46.75c-.8-.29-.9-.81-.23-1.15a3.78,3.78,0,0,1,2.66-.1c.8.29.9.8.23,1.15A3.9,3.9,0,0,1,132,46.75Z" fill="#b9992b"/><path d="M128.26,54.53c-.8-.29-.9-.8-.23-1.15a3.84,3.84,0,0,1,2.66-.1c.8.29.9.81.23,1.15A3.78,3.78,0,0,1,128.26,54.53Z" fill="#b9992b"/><path d="M133,50.52c-.8-.29-.9-.8-.23-1.14a3.78,3.78,0,0,1,2.66-.1c.8.29.9.8.23,1.14A3.78,3.78,0,0,1,133,50.52Z" fill="#b9992b"/><path d="M203,35.1c-9.23,2.87-15.7,7.8-17.57,13.37a9.67,9.67,0,0,0,1.68,9.38c2.37,3,6.87,5.75,12.63,7.18,6.35,1.58,13.52,1.48,20.18,1s13.27-1.28,20.1-1c4.8.21,9.67,1,14.34.6a33,33,0,0,0,14.43-4.86c4.67-2.71,8.86-5.74,10.92-9.26s1.78-7.62-2-11a23.87,23.87,0,0,0-9.12-4.62c-10.47-3-23-1.51-34.42-3l1,.1C224,31.43,212.18,32.22,203,35.1Z" fill="#ff5a23"/><path d="M240.74,46.16a40.73,40.73,0,0,1-5.06.24,34.89,34.89,0,0,1-6.83-1.2l-.64-.15c-.53-.12-1.05-.26-1.56-.4a14.71,14.71,0,0,0-6.25-.29c-2.89.53-4.59,1.86-7,2.74-2.72,1-6.26,1.35-9.27,2.15-1.08.28-2.2.73-2.06,1.29.07.28.46.52.89.73,3,1.43,7.92,1.68,12.23,1.33a22.83,22.83,0,0,1,3.41-.14A16.9,16.9,0,0,1,223.82,54c2.71,1,6.77,1.7,9.77.84,2.22-.65,3.2-2,5.51-2.53a25.53,25.53,0,0,1,6.6-.29,27.43,27.43,0,0,0,8-.72c2.33-.67,3.83-2,2.86-3.19a6.49,6.49,0,0,0-3.23-1.51C249.55,45.66,245,45.81,240.74,46.16Z"/><path d="M229.6,52.18c-.76-.27-.86-.77-.22-1.1a3.65,3.65,0,0,1,2.55-.09c.76.28.86.77.22,1.1A3.65,3.65,0,0,1,229.6,52.18Z" fill="#b9992b"/><path d="M236.58,50.57c-.76-.27-.86-.77-.22-1.1a3.65,3.65,0,0,1,2.55-.09c.77.28.87.77.22,1.1A3.65,3.65,0,0,1,236.58,50.57Z" fill="#b9992b"/><path d="M230.43,49.3c-.76-.28-.86-.77-.22-1.1a3.65,3.65,0,0,1,2.55-.1c.77.28.87.77.22,1.1A3.7,3.7,0,0,1,230.43,49.3Z" fill="#b9992b"/><path d="M223.16,51.78c-.77-.27-.87-.77-.22-1.1a3.62,3.62,0,0,1,2.54-.09c.77.28.87.77.23,1.1A3.65,3.65,0,0,1,223.16,51.78Z" fill="#b9992b"/><path d="M224.29,48.45c-.77-.28-.87-.77-.22-1.1a3.64,3.64,0,0,1,2.55-.1c.76.28.86.77.22,1.1A3.71,3.71,0,0,1,224.29,48.45Z" fill="#b9992b"/><path d="M219.31,49.86c-.77-.28-.87-.77-.23-1.1a3.65,3.65,0,0,1,2.55-.09c.77.27.87.77.22,1.1A3.62,3.62,0,0,1,219.31,49.86Z" fill="#b9992b"/><path d="M104.61,100.06c-9.29-.63-17.86,1.88-22.42,5.29-5.28,1.76-8.54,4.51-9.32,7.36-1,3.43,1.34,7,5.14,10.08,4,3.3,9.77,6.3,17.17,8.35a79.27,79.27,0,0,0,25.13,2.57,33.51,33.51,0,0,0,10.92-2.26c17.67-7.83,10.47-16.77,5.86-19-3.27-1.57-7.59-3.77-10.74-5.43C120.52,104,113.78,100.69,104.61,100.06Z" fill="#ff5a23"/><path d="M98.81,110.45c-3.45-.15-6.15,1-7,2.3a1.92,1.92,0,0,0-.33,1.08,6.24,6.24,0,0,1-.31,1.94c-.24.77.14,1.59,1.16,2.23,1.41.9,3.76,1.43,5.64,2.15a10.8,10.8,0,0,1,5,3.57,5.26,5.26,0,0,0,2.77,2.52,10.18,10.18,0,0,0,5,.29c1.61-.33,2.7-1.09,2.66-1.86,0-.6-.66-1.16-1-1.73a1,1,0,0,1,.4-1.72c.59-.3,1.52-.45,2.13-.75,1.41-.68.55-1.8-1-2.45-2.94-1.28-8-1.7-9.61-3.35-1.24-1.24-.13-2.83-3-3.77A9.5,9.5,0,0,0,98.81,110.45Z"/><path d="M105.66,118.8c-.37-.43.15-.9,1.14-1.06a3.08,3.08,0,0,1,2.46.5c.36.43-.15.9-1.15,1.06A3.07,3.07,0,0,1,105.66,118.8Z" fill="#b9992b"/><path d="M101.72,116.69c-.37-.43.15-.9,1.14-1.06a3.08,3.08,0,0,1,2.46.5c.36.42-.15.9-1.15,1.05A3,3,0,0,1,101.72,116.69Z" fill="#b9992b"/><path d="M101.18,117.79c.22.45-.44.89-1.48,1s-2-.19-2.27-.64.44-.88,1.48-1S101,117.35,101.18,117.79Z" fill="#b9992b"/><path d="M103.48,120.14a3.9,3.9,0,0,1,2.7.08c.7.35.62.87-.18,1.17a3.93,3.93,0,0,1-2.71-.08C102.6,121,102.68,120.44,103.48,120.14Z" fill="#b9992b"/><path d="M96.35,115.64c-.36-.43.15-.9,1.15-1.06a3.11,3.11,0,0,1,2.46.5c.36.43-.15.9-1.15,1.06A3.11,3.11,0,0,1,96.35,115.64Z" fill="#b9992b"/><path d="M110.8,142a12.4,12.4,0,0,0-4.51,9.11c-.26,7.08,6.12,14.78,19.22,18.39,11.58,3.19,27.64,2,40.53,3.52,3,.12,6.09.19,9.13.21a94.26,94.26,0,0,0,10.42-.41,57.47,57.47,0,0,0,8-1.5c16.74-4.34,25.31-14.61,19.71-23.59-3.67-5.89-13.69-11.24-26.27-12.42-6-.57-12.08-.19-18.14-.39-6.85-.22-13.59-1.18-20.43-1.47C133.58,132.83,117.81,135.86,110.8,142Z" fill="#ff6738"/><path d="M169.44,147.5a80.79,80.79,0,0,0-10.78,1.81,24.41,24.41,0,0,1-3.82.54c-4.77.2-9.34-1.82-13.93-1.22a10.26,10.26,0,0,0-4.16,1.46c-1.68,1.07-2.51,2.43-2.09,3.74a3.34,3.34,0,0,0,1,1.44c.31.27.63.53.89.8a11.71,11.71,0,0,0,4.1,2.58,37.6,37.6,0,0,0,11.63,2.26,35.57,35.57,0,0,0,5.06,0c4.44-.38,8.31-1.88,12.83-1.8,3.68.06,7.11,1.18,10.76,1a12.29,12.29,0,0,0,5.88-1.67c2.11-1.34,2.29-3.46-.58-4.51-2.17-.78-5.53-.81-7.16-1.84-1.48-.93-.79-2.29-2-3.3C175.64,147.61,172.27,147.32,169.44,147.5Z"/><path d="M151.2,156c-.76-.24-.94-.7-.39-1a3.41,3.41,0,0,1,2.38-.17c.77.24.94.7.39,1A3.4,3.4,0,0,1,151.2,156Z" fill="#b9992b"/><path d="M159.31,156.61c-.77-.24-.94-.7-.39-1a3.35,3.35,0,0,1,2.38-.17c.76.24.94.7.39,1A3.41,3.41,0,0,1,159.31,156.61Z" fill="#b9992b"/><path d="M155.48,154.28c-.77-.23-.94-.69-.39-1a3.35,3.35,0,0,1,2.38-.17c.77.24.94.7.39,1A3.35,3.35,0,0,1,155.48,154.28Z" fill="#b9992b"/><path d="M163.77,154.22c-.76-.23-.94-.69-.39-1a3.38,3.38,0,0,1,2.39-.17c.76.24.93.7.38,1A3.35,3.35,0,0,1,163.77,154.22Z" fill="#b9992b"/><path d="M165.53,156.91c-.77-.24-.94-.7-.39-1a3.4,3.4,0,0,1,2.38-.17c.76.24.94.7.39,1A3.35,3.35,0,0,1,165.53,156.91Z" fill="#b9992b"/><path d="M169.7,155.09c-.77-.24-.94-.7-.39-1a3.35,3.35,0,0,1,2.38-.16c.77.23.94.69.39,1A3.35,3.35,0,0,1,169.7,155.09Z" fill="#b9992b"/><path d="M287.25,120.09c5-8.74,24.86-15.49,45.85-13.55,8.34.77,16.43,2.65,22.07,5.53s8.6,6.78,7,10.3c-1.75,3.94-8.57,6.91-12.23,10.54-4,4-4.17,8.8-9.5,12.49-5.65,3.92-17.13,6-28.08,5.08-14.16-1.18-25.38-6.91-29.09-13s.17-12.85,4.69-18.55Z" fill="#ff5a23"/><path d="M326.63,119.74a49.53,49.53,0,0,0-8.19,1.32c-6.53,1.69-9.44,5.19-11.23,8.2a10.43,10.43,0,0,0-1.36,5.63c0,1.23,1.44,3.94,5.11,4.05a5.41,5.41,0,0,0,4.62-1.95c.66-1,1-2.07,2.86-2.7,2.18-.74,5.73-.53,7.48-1.46s.54-2.27-.81-3.29-2.83-2.26-1.55-3.3c.88-.72,2.66-1.12,4.14-1.58,2.3-.72,5.6-1.79,5.72-3.14s-2.8-1.88-5.47-1.85C327.51,119.68,327.06,119.7,326.63,119.74Z"/><path d="M311.65,128.9a3.11,3.11,0,0,1,2.29.27c.46.35.18.79-.63,1a3.11,3.11,0,0,1-2.29-.27C310.56,129.54,310.84,129.1,311.65,128.9Z" fill="#b9992b"/><path d="M310.89,132a3.1,3.1,0,0,1,2.29.27c.46.34.19.79-.62,1a3.21,3.21,0,0,1-2.29-.27C309.81,132.64,310.09,132.2,310.89,132Z" fill="#b9992b"/><path d="M316.7,130.64a3.14,3.14,0,0,1,2.3.27c.46.34.18.78-.63,1a3.16,3.16,0,0,1-2.29-.26C315.62,131.28,315.9,130.84,316.7,130.64Z" fill="#b9992b"/><path d="M313.2,125.85a3.16,3.16,0,0,1,2.29.26c.46.35.18.79-.62,1a3.11,3.11,0,0,1-2.29-.27C312.12,126.49,312.4,126.05,313.2,125.85Z" fill="#b9992b"/><path d="M317,127.77a3.11,3.11,0,0,1,2.29.27c.46.35.18.79-.63,1a3.21,3.21,0,0,1-2.29-.27C315.91,128.41,316.19,128,317,127.77Z" fill="#b9992b"/><path d="M318.57,125a3.16,3.16,0,0,1,2.29.26c.46.35.18.79-.62,1A3.1,3.1,0,0,1,318,126C317.49,125.61,317.77,125.16,318.57,125Z" fill="#b9992b"/><path d="M422.55,33.26c-3.06,0-6.14-.08-9.19-.19-10.84-.39-21.73-1.78-32.64-.91C360.21,33.8,347.16,44.24,353,52.71c3,4.41,10.07,8,15.88,11.74,5.18,3.36,10.88,7,20.46,8.09,11.45,1.33,24.14-.49,34.75-2.34,10.26-1.8,19.7-4.6,26.49-8.4C462,55.4,465.25,45.15,453,38.52a45.57,45.57,0,0,0-16.88-4.65C431.68,33.43,427.12,33.33,422.55,33.26Z" fill="#ff5a23"/><path d="M404.28,43.29c-2.2.56-4.34,1.16-6.37,1.84a38.19,38.19,0,0,0-9.17,4.26,12.69,12.69,0,0,0-3,2.7c-1.09,1.43-2.06,3.22.31,4.51a13.33,13.33,0,0,0,8.27.8c3.72-.85,5.2-2.87,9.32-3.44s8.91.08,12.09-1.42c1.13-.54,1.68-1.25,1.61-2-.08-1-1.39-1.72-1.76-2.64s1.07-1.56,2.64-2.11a28.63,28.63,0,0,0,3.69-1.52c1-.51,2.08-1.16,2.06-1.85s-1.67-1.28-3.25-1.49c-3.9-.51-8.22.44-11.61,1.18C407.5,42.51,405.87,42.88,404.28,43.29Z"/><path d="M399.08,47.52c1,0,1.8.34,1.8.77s-.81.78-1.8.78-1.81-.35-1.81-.78S398.08,47.52,399.08,47.52Z" fill="#b9992b"/><ellipse cx="395.3" cy="50.8" rx="1.8" ry="0.78" fill="#b9992b"/><ellipse cx="401.1" cy="51.48" rx="1.8" ry="0.78" fill="#b9992b"/><ellipse cx="404.15" cy="46.37" rx="1.8" ry="0.78" fill="#b9992b"/><ellipse cx="406.34" cy="49.61" rx="1.8" ry="0.78" fill="#b9992b"/><path d="M410,45.84c1,0,1.8.35,1.8.78s-.8.77-1.8.77-1.8-.34-1.8-.77S409,45.84,410,45.84Z" fill="#b9992b"/><path d="M194,129.31a19.75,19.75,0,0,1-4,1.5,9,9,0,0,1-4.38.22c-1.13-.27-1.75-.84-1.83-1.4a2.16,2.16,0,0,1,.78-1.62,13.93,13.93,0,0,1,4.31-2.92c.8-.38,1.74-.88,1.2-1.33l-.17-.09a9.19,9.19,0,0,1-1.87.41,4.41,4.41,0,0,1-2.45-.33.66.66,0,0,1-.3-.76c.28-1.23,2.37-2.26,4.77-2.94s5.15-1.09,7.7-1.66a6.35,6.35,0,0,0,2.41-.87c.49-.4.25-1-.73-1.18-1.57-.28-3.1.67-4.79.56-1.22-.08-1.87-.74-1.57-1.26a4.49,4.49,0,0,1,2.19-1.26,67.57,67.57,0,0,1,16.84-3.65c1.16-.12,2.65-.37,2.54-.88s-1.84-.65-3-.5a9.36,9.36,0,0,1-3.56.09c-1.47-.46-.38-1.47,1-2,4.49-1.56,10.71-1.64,16.39-2,1.29-.1,2.88-.35,2.92-.92s-2.12-.9-3.65-.76-3.37.36-4.47-.12c-1.29-.56-.19-1.54,1.26-2,5.81-2,14.61-.75,21.47-2,.48-.08,1-.21,1.13-.43s-.21-.42-.62-.55a13,13,0,0,0-4.64,0c-1.55.17-3.7.07-4.06-.6-.13-.24,0-.49.26-.7,1-.91,3.52-1.28,5.79-1.51,12.92-1.36,27-2,39.82-.43-3,2.73-6.23,6.29-10.34,8.73a17.07,17.07,0,0,1-7,2.45,5.79,5.79,0,0,1-1.44,0c-1.52-.23-1.17-1.18-.6-1.83s.66-1.65-.92-1.76a4.44,4.44,0,0,0-1.22.1,6,6,0,0,0-2.8,1.4c-1.95,1.63-3.09,3.41-4.76,5.1a16.15,16.15,0,0,1-7.56,4.32,5.41,5.41,0,0,1-2.67.17,1.46,1.46,0,0,1-.8-.53c-1-1.24.09-2.59.44-3.89a.68.68,0,0,0-.31-.87,4.36,4.36,0,0,0-4.36.77c-3.82,3.18-2.69,7.33-8,10.09a6.58,6.58,0,0,1-2.68.77c-2,.11-3.59-.79-3.84-1.66s.33-1.72.29-2.59a.86.86,0,0,0-.5-.76,4.6,4.6,0,0,0-2.86-.09,3.93,3.93,0,0,0-1.79,1.1c-2.21,2.27-2.35,4.85-4.81,7.07a6.52,6.52,0,0,1-3.37,1.62c-1.59.28-3.79,0-4.28-.7-.3-.44.1-.91.1-1.37s-.79-1-1.83-.91a2.71,2.71,0,0,0-1,.3,7.37,7.37,0,0,0-2.76,2.74,16.45,16.45,0,0,1-4.88,4.16,7.72,7.72,0,0,1-5.1,1.1c-1.25-.24-1.79-.92-1.61-1.5s.92-1.11,1.65-1.61Z" fill="#80a958"/><path d="M305.27,32.2c-2.9.64-4.4,2.08-4.75,3.48-.66,2.65,2,5.22,4.68,7.63l.56.33A47.56,47.56,0,0,0,294.49,42a8.25,8.25,0,0,0-2.89.27c-1.26.47-.86,1.35-.07,2,4.06,3.23,14.78,4.36,17.39,7.86.15.2.26.41.14.62-.42.71-2.87.58-4.44.28a29.84,29.84,0,0,0-6.35-.7c-2.2.07-4.48.72-4.72,1.66-.19.74.85,1.43,1.93,2a55.17,55.17,0,0,0,14.73,5c3.24.67,6.93,1.26,8.68,2.61.25.18.45.4.33.61-.27.48-1.84.51-3,.38-2-.23-4-.59-6-.66s-4.41.19-5.5,1c-1.54,1.08.08,2.48,1.95,3.45a45.77,45.77,0,0,0,12.44,4.06c3.46.66,7.34,1.12,9.87,2.33,1.12.54,1.74,1.5.33,1.87a5.74,5.74,0,0,1-1.47.14c-2.06,0-4-.41-6.07-.47s-4.52.39-4.71,1.28c-.1.49.54,1,1.21,1.36,4.76,2.87,12,4.94,20,5.7,3.27.32,6.87.46,9.36,1.43.59.23,1.12.52,1.23.86.35,1.06-3.12,1.52-5.53,1.28s-5.17-.71-7.14-.06c-1.65.54-1.7,1.66-.67,2.44a15,15,0,0,0,4.58,1.78A73.42,73.42,0,0,0,351.76,95c4.45.51,9.25.39,13.56,1.1,1.17.19,2.45.55,2.5,1.09.08.78-2.32,1.12-4.11,1s-3.84-.35-5.26.14-1.34,1.36-.46,2a12,12,0,0,0,3.87,1.35,137.8,137.8,0,0,0,31.19,3.81c3.38.25,4.79-.42,9.29-.22-5.64-5.44-6-16.27-13.43-21.5a6.55,6.55,0,0,0-4.2-1.24c-1.93.14-2.74,1.15-2.88,2a4.69,4.69,0,0,0,1.4,4c.68.74,1.59,1.46,1.74,2.26s-.81,1.7-2.61,1.88a7.33,7.33,0,0,1-4.86-1.35c-5.87-4.27-2.83-9.83-6.88-14.47a8.65,8.65,0,0,0-7.42-2.29c-2.22.4-2.95,1.62-2.77,2.66s1,2.07.55,3.09-2.74,2-5,1.67a4.71,4.71,0,0,1-2.38-1.05c-3-2.48-.77-5.45.39-8.19a10.86,10.86,0,0,0,.8-6,4.29,4.29,0,0,0-2.7-3.53c-2-.92-5.92-1.16-7.72-.16-1.53.84-.88,2-.89,3.12s-1.77,2.41-4.16,2.11a4.05,4.05,0,0,1-1.85-.68c-1.5-1.07-.84-2.44,0-3.65a47.42,47.42,0,0,1,5.08-6.35c1.92-2,4.06-4.41,1.39-6.27a5.31,5.31,0,0,0-2-.81,10.81,10.81,0,0,0-5.9.86A10,10,0,0,0,332.12,54a3.37,3.37,0,0,1-1.8,1.41c-1.82.57-4.56-.15-5.12-1.08s.37-1.91,1.36-2.77a43.92,43.92,0,0,1,7.57-5.18,21,21,0,0,0,4.75-3c1.09-1.13,1.19-2.53-.57-3.49s-5-1.24-7.63-.87a12.27,12.27,0,0,0-6.06,2.38,4.18,4.18,0,0,1-1.64,1c-1.75.53-4.29-.13-5-1s-.17-1.81.12-2.72c.56-1.73.18-3.61-2.17-5S308.89,31.41,305.27,32.2Z" fill="#80a958"/><path d="M395.79,75.08a2.74,2.74,0,0,0-1.44.72c-.83.83-.5,1.8.4,2.61a16,16,0,0,0,3.69,2.17l6.33,3.08a.49.49,0,0,1-.06.22,20.32,20.32,0,0,1-4.32-.17c-1.45-.1-3.31.07-3.66.69s.77,1,1.82,1.37a41.91,41.91,0,0,0,9.67,1.67,16.3,16.3,0,0,1,3.49.41c1,.31,1.47,1,.58,1.36-1,.42-2.84.06-4.08.36-1,.24-1.25.87-.78,1.33a6.08,6.08,0,0,0,2.46,1,40.53,40.53,0,0,0,9.49,1.19c2,0,4.09-.09,6.1.06s4,.61,4.79,1.43l-9.56-.23c-.84,0-1.92,0-2.15.38-.13.18.06.37.27.54,1.72,1.38,5.13,2.19,8.55,2.71,5.18.78,14.71.61,20.15.31,1.06-1.11,1-1.46,1.12-3A16,16,0,0,0,440,85.11a6.34,6.34,0,0,0-2.78-.73c-1.78,0-3,.87-2.87,1.64s1,1.47,1.35,2.22a.56.56,0,0,1,0,.64,3.42,3.42,0,0,1-2.5.54,6.43,6.43,0,0,1-2.47-.73c-4.66-2.39-2.88-6.3-7.6-8.68a9.35,9.35,0,0,0-6.06-.7c-2.14.66-1.38,2.07-1.3,3.2a.66.66,0,0,1-.55.74,3.65,3.65,0,0,1-2.42-.29c-1.92-.9-2.24-2.22-3.18-3.38-1.76-2.15-6-3.88-11.12-4.49A8.81,8.81,0,0,0,395.79,75.08Zm8.86,8.19-.88-.58A1.73,1.73,0,0,1,404.65,83.27Z" fill="#80a958"/><path d="M412.75,104.82c-6.36,1.55-19,4.48-24.71,6.44-2.22.76-4.5,1.62-5,2.86a.73.73,0,0,0,.15.8c.79.91,3.19.92,5,.66,4-.57,6.83-2.07,10.57-2.88,1-.22,2.41-.34,2.89.17.25.26.06.57-.41.77-6.86,3-17.08,4.28-23.37,7.48-1.51.77-2.81,1.7-2.47,2.75.18.58.95,1.11,2.19,1.35,2.32.46,4.49-.3,6.64-.74s5.43-.26,5.35.82c0,.34-.42.66-1,.88-4.39,1.66-10.05,2.43-15.28,3.51-4.88,1-9.72,2.43-11.67,4.6-.65.72-.94,1.58.88,2.16a9,9,0,0,0,3,.34c3.17-.11,5.5-1.15,8.46-1.46a3.36,3.36,0,0,1,2.27.31c.27.24.22.52,0,.77-2.7,2.59-10.22,3-16.32,3.85a57,57,0,0,0-12.41,3.09c-1.38.53-2.17,1.32-2,2.11.35,1.71,4.41,2.07,7.58,1.79a21.16,21.16,0,0,1,4.78-.18,3.24,3.24,0,0,1,1.58.55c.71.6-.23,1.15-1.24,1.53-7.63,2.88-21.37.82-28.26,4-1.6.74-2.65,1.88-.83,2.74a7.23,7.23,0,0,0,2.2.54,36.47,36.47,0,0,0,6-.3c.71-.07,1.17.32.61.52a37.16,37.16,0,0,1-11,1.92c-3.81-.13-7.57-.71-11.37-.52a9.52,9.52,0,0,0-4.55,1.05c-.62.45-.68,1,0,1.44,1.41.87,4.65.48,6.51.93,1.56.37,1.47,1.36-.07,1.76h0c-6.52,1.65-14.43,2.53-19.26,5-1.93,1-3.23,2.58-.3,3.48a11.57,11.57,0,0,0,4.55.3,69.21,69.21,0,0,0,13.18-2.83,5,5,0,0,1,1.72-.23c1.64.08,1.81.85,1.48,1.42s-.95,1.18-.1,1.7a4.73,4.73,0,0,0,2.28.49,11,11,0,0,0,4-.85,15.22,15.22,0,0,0,6.66-4.42c.87-1.16,1.44-2.5,3.76-3.19A3.36,3.36,0,0,1,337,164a1.23,1.23,0,0,1,.72.4c.72.88-.32,2,1.57,2.66a7.16,7.16,0,0,0,2.72.3,10.84,10.84,0,0,0,4.67-1.38c3.93-2.11,6.2-4.79,6.36-7.49,0-.44.83-.79,1.85-.8h0c1.15,0,2.05.39,2,.89a4.55,4.55,0,0,0,1.1,2.88,3.15,3.15,0,0,0,1.54,1.22,9,9,0,0,0,4.47.17,8.74,8.74,0,0,0,3.32-1.42c2.54-1.77,3.24-3.93,3-6-.19-1.51-.83-3.07.67-4.46a3,3,0,0,1,1.6-.66c2.2-.33,3.68.85,3.93,1.79s.46,2.31,3.13,2.51a5.77,5.77,0,0,0,3.89-.92c3.54-3.13,2.77-6.68,2.49-10.09a2.05,2.05,0,0,1,1.41-2.42,5.54,5.54,0,0,1,3.19-.29c2.69.58.7,2.5,3.71,3.12a8,8,0,0,0,3,0,5.56,5.56,0,0,0,3.55-2c2.18-2.75,1-5.77-.34-8.63-.64-1.41-1.27-2.91.17-4.23a2.38,2.38,0,0,1,1.07-.54,4.28,4.28,0,0,1,4,1.11c.65.79,1,1.75,3,2a7.47,7.47,0,0,0,2.85-.19,4.06,4.06,0,0,0,2.84-2.17,5.47,5.47,0,0,0,.12-4.83c-1-2.16-3.31-4.3-2.34-6.46a1.25,1.25,0,0,1,.7-.68,3,3,0,0,1,1.1-.17c4.2,0,2.56,2.64,6.16,3.06a6.92,6.92,0,0,0,2.28-.12,5,5,0,0,0,3.05-1.87c3.23-4.07-.52-9.64-6-13.25Z" fill="#80a958"/><path d="M440.39,103.56c-3.1,1.71-8.62,3.83-9.68,5.93-.25.5,0,1.2,1.16,1.3a4.91,4.91,0,0,0,1.15-.08,14.17,14.17,0,0,0,4.72-1.51,3.31,3.31,0,0,1,1.57-.59,1.81,1.81,0,0,1,1.68.62c.14.34-.17.69-.54,1-1.58,1.34-4.32,2.34-6.67,3.45s-4.45,2.48-4.24,4a1,1,0,0,0,.79.81,5.53,5.53,0,0,0,3.11-.3,19.94,19.94,0,0,0,3.43-1.52,3.57,3.57,0,0,1,2.36-.57c.67.14.79.53.73.85-.79,3.69-13.32,5.24-14.27,8.92-.2.76.4,1.67,2.07,1.93a8.29,8.29,0,0,0,3.68-.38c1-.35,1.88-.8,2.93-1.14a3.51,3.51,0,0,1,1.06-.19c1.23,0,1.38.79.89,1.28-1.65,1.66-5.38,2.72-8.7,3.82s-6.64,2.53-6.8,4.34c0,.49.22,1,1.1,1.35,1.52.54,3.65.13,5.33-.4l.35-.05a4.8,4.8,0,0,1,1.07,0c.66.1.83.46.76.76-.24,1-1.77,1.79-3.56,2.38s-3.86,1-5.74,1.52a26.82,26.82,0,0,0-5.73,2.28c-.79.43-1.5.92-1.66,1.46s.42,1.17,1.6,1.38A13.62,13.62,0,0,0,418,146c1.23-.12,2.84-.06,3.32.44.3.31,0,.67-.35,1-1.72,1.33-5.26,2-8.49,2.55s-6.68,1.42-7.78,2.86c-.46.61-.26,1.41,1.06,1.71a10.87,10.87,0,0,0,3.67-.14,6.58,6.58,0,0,1,3.52.21.69.69,0,0,1,.39.56c.05.74-1.21,1.39-2.69,1.77s-3.18.56-4.78.84a24.94,24.94,0,0,0-6.87,2.12c-.57.29-1.12.62-1.16,1-.1.92,2.64,1.39,4.75,1.25.91-.06,2.16-.1,2.44.28.09.12,0,.24,0,.36-1.23,2.35-8.22,3.58-8.92,6-.11.37,0,.79.61,1.05a7.48,7.48,0,0,0,3.89-.08c6-1.37,10.77-3.72,13.11-6.47,2,.29,1.6,1.49,1.94,2.12.45.81,1.78,1.7,4,1.43a4.2,4.2,0,0,0,2.18-.82c1.68-1.43,2.38-3.07,2-4.66a18.76,18.76,0,0,1-.81-2.62c-.07-.88.4-1.82,1.86-2.44a4.59,4.59,0,0,1,1.71-.36c1.64,0,2.49,1,2.58,1.57a1.39,1.39,0,0,0,.7.88c1.84,1.15,4.89.2,5.93-.81,2.84-2.74-.37-5.89-1.54-8.8-.16-.42.3-.86,1.22-1a2.91,2.91,0,0,1,2.71.84,2.74,2.74,0,0,0,2.09,1.31,4.9,4.9,0,0,0,2.33-.26,2,2,0,0,0,1.46-1.74,5.75,5.75,0,0,0-2.08-4.81,21.45,21.45,0,0,1-2.46-2.37,1.68,1.68,0,0,1-.26-1.88c.2-.34,1.16-.47,1.76-.23a8.61,8.61,0,0,1,1.29.63A16.5,16.5,0,0,0,444.6,141a3.3,3.3,0,0,0,2.49.61,4.7,4.7,0,0,0,1.49-.38c2.2-1,2.17-2.53,1.64-3.87a12.35,12.35,0,0,0-3.91-4.87c-.83-.65-1.79-1.33-1.31-2.11a2.47,2.47,0,0,1,2-.76,4.56,4.56,0,0,1,3.13,1.16,4.36,4.36,0,0,0,3.25.68,1.71,1.71,0,0,0,.92-.59c1.14-1.38.58-2.93-.67-4.3a42.29,42.29,0,0,0-4.79-3.89c-.62-.49-1.23-1-.94-1.59a1.81,1.81,0,0,1,1.39-.71,5.63,5.63,0,0,1,3.66,1,5.12,5.12,0,0,0,3.72.53,1.21,1.21,0,0,0,.62-.54c.87-1.46-.1-3-1.63-4.38s-3.62-2.59-5.2-3.93c-.51-.44-1-.91-.72-1.41a2,2,0,0,1,1.56-.67,5.09,5.09,0,0,1,3.07,1,4.33,4.33,0,0,0,3.35.44.83.83,0,0,0,.43-.47c.72-1.6-.17-3.29-1.9-4.74-1.34-1.12-7.6-3.56-9.6-4.48Z" fill="#80a958"/><path d="M279.59,75.74a23.52,23.52,0,0,0-3.73-.82,9.82,9.82,0,0,0-4,.28c-1,.37-1.46,1-1.35,1.55a3,3,0,0,0,1.4,1.6c2.3,1.56,5.91,2.67,9.6,3.61,1.9.49,4.08,1.1,4.2,2.05a.27.27,0,0,1-.15.29,2,2,0,0,1-.85.11c-1.27,0-2.46-.25-3.7-.37a7.82,7.82,0,0,0-3.56.31c-.68.31-.83.79-.57,1.2a3.68,3.68,0,0,0,1.56,1.08c4.24,1.91,11.11,2.25,15.95,3.88.69.23,1.35.7.67.94a2.63,2.63,0,0,1-.91.09c-1.59,0-3-.38-4.59-.53s-3.56.07-4,.72,1.11,1.33,2.54,1.73a211.74,211.74,0,0,0,27,5.25l12.73,1.79-4.67-2.23c-2.37-1.13-3.55-2.72-3.16-4.24.3-1.16,1.46-2.24,2.31-3.36s1.4-2.34.46-3.44a3.36,3.36,0,0,0-2.07-1,7.06,7.06,0,0,0-4.34.77c-1,.58-1.56,1.29-2.55,1.88a3.41,3.41,0,0,1-1.07.42,4.23,4.23,0,0,1-2.55-.34,1.28,1.28,0,0,1-.77-1.16c0-1.45,1.93-2.74,3-4.1a4,4,0,0,0,1-3,1.93,1.93,0,0,0-1.19-1.63,7.73,7.73,0,0,0-5.68,0c-.85.47-1.08,1.14-2.18,1.5a5,5,0,0,1-3.73-.33c-1.09-.55-.73-2,.39-3.17s2.89-2.21,3.29-3.44c.34-1-.36-2.12-1.89-2.93a2.41,2.41,0,0,0-.72-.26,3.53,3.53,0,0,0-1.45.08c-1.79.44-2.21,1.45-3.18,2.23a2.64,2.64,0,0,1-1.37.58,4,4,0,0,1-1.71-.2c-1.64-.55-1.61-1.62-1.2-2.5,1.31-2.78,4.92-5.46,3.88-8.26a1.77,1.77,0,0,0-1.29-1.13,6.1,6.1,0,0,0-4.49.69c-.93.66-1.18,1.46-2.05,2.14a2.37,2.37,0,0,1-1.06-3c.34-1,1.05-2,1.05-3.09s-.84-2.26-2.37-3.17a5.55,5.55,0,0,0-3.3-.78,3.59,3.59,0,0,0-1.93.75c-1.88,1.48-1.15,3.3-.3,4.95.17.34.23.8-.51.94a3.22,3.22,0,0,1-1,0c-1.74-.25-3-1.16-4.78-1.06a3.84,3.84,0,0,0-2.18.76c-1.68,1.34-.35,3,1.9,4.22,2.1,1.09,5.13,2.1,5.05,3.51,0,.12-.06.25-.29.32a1.88,1.88,0,0,1-.63,0c-2.18-.21-3.72-1.47-5.85-1.19a2.1,2.1,0,0,0-1.67.87,1.19,1.19,0,0,0,.26,1.17,8.2,8.2,0,0,0,3.31,2.57c2.39,1.14,5.83,2,6.83,3.49.13.19.21.41,0,.57a3,3,0,0,1-2.17,0,14.21,14.21,0,0,0-1.81-.71Z" fill="#80a958"/><path d="M86.52,91.53c25.42-.27,51,3.38,71,10.13Z" fill="#008383"/><path d="M104.19,87.27a44.92,44.92,0,0,1,8.74,1.46A95.24,95.24,0,0,0,123,91.05c-.32-.52-.64-1-1-1.56-.17-.28-.34-.58.37-.82a4.37,4.37,0,0,1,1.89-.12c6.79.84,10.77,3.7,16.33,5.52a2.56,2.56,0,0,0,1.08.16c.6-.07.64-.42.83-.68a4,4,0,0,1,2.76-.72,11.39,11.39,0,0,1,3.16.56c7,2.14,9,6.23,14.27,9.07-6.36.94-13,1.59-19.63,1.91a30.34,30.34,0,0,1-8.26-.41,1.58,1.58,0,0,1-1-.53c-.29-.55.9-.84,1.92-1l4.13-.77c.55-.1,1.19-.25,1.19-.51s-.26-.31-.56-.41a10.49,10.49,0,0,0-4.51-.19c-.55.08-1.12.14-1.69.19-3.9.35-7.78,1-11.77,1a11.74,11.74,0,0,1-2.55-.19c-.78-.17-1.4-.52-1.32-.89s.37-.47.76-.65c1.47-.7,3.86-1,4.89-1.87.14-.11.26-.25.15-.37a1.58,1.58,0,0,0-.85-.26c-6.07-.79-12.43.82-18.77.74a11.13,11.13,0,0,1-4.46-.73c-.61-.31-.91-.72-.69-1.11.55-1,3.48-1,4.69-1.73.17-.11.31-.24.26-.37s-.81-.34-1.4-.37c-3.67-.21-7.39,0-11.1,0A43.39,43.39,0,0,1,81.44,93c-1.41-.36-2.77-.91-2.09-1.79a3.57,3.57,0,0,1,1.7-.95,29.28,29.28,0,0,1,9.52-.94c3.11.12,6.13.5,9.18.78a4.59,4.59,0,0,0,1.8-.09c.85-.33,0-1-.82-1.24-.54-.17-1-.41-1.07-.7-.21-.63,1.28-.84,2.49-.86Q103.19,87.23,104.19,87.27Z" fill="#80a958"/><path d="M92.74,56.41c-1.6.09-2.61.78-2.12,1.44.32.43.52.82-.33,1.07a3.56,3.56,0,0,1-2.37-.19,14.08,14.08,0,0,0-7-2,7.42,7.42,0,0,0-3.11.57c-1.37.65-.92,1.39-.12,2,2.11,1.59,6.37,2.36,9.8,3.42a2.31,2.31,0,0,1,1,.55c.45.5-.22.77-1,.92a33.62,33.62,0,0,1-4.33.25c-1.7.1-3.64.62-3,1.45a2.42,2.42,0,0,0,1.09.6c5.37,1.68,13.09.5,18.86,1.81,1.12.25,2.22.65,1.91,1.3a2.36,2.36,0,0,1-1.65.85c-2.48.5-5.14-.06-7.62.29a3.74,3.74,0,0,0-1.5.47c-1,.72.61,1.5,2.24,1.86,5.41,1.17,11.95.48,17.91.92a4.9,4.9,0,0,1,1.35.26c1.48.54.29,1.36-1.16,1.62-1.22.22-2.6.21-3.86.38s-2.53.64-2.32,1.21c.08.23.41.44.79.62,2.08,1,5.47,1.24,8.56,1.15s6.09-.49,9.19-.55a11.18,11.18,0,0,1,4.29.52c.49.22.8.51.77.81-.08.78-2,1.09-3.58,1.08-1.41,0-2.83-.17-4.21,0a3.28,3.28,0,0,0-1.32.32c-.52.32-.17.77.32,1.09,1.78,1.17,5.15,1.73,8.38,1.81s6.45-.22,9.66-.42a19.87,19.87,0,0,1,3.45,0l1.28.36c.85.24.72.83,0,1.14a9.71,9.71,0,0,1-2.74.5l-4.24.38a18.34,18.34,0,0,0-3.5.54c-1,.31-1.72.88-1.35,1.39.48.68,2.41.91,4,1a97.24,97.24,0,0,0,13.7-.73c3-.32,6.42-.66,9.12,0a2.21,2.21,0,0,1,1.12.52c.43.57-1.12,1-2.4,1.26l-4.94.9a4.16,4.16,0,0,0-2,.69c-.5.56.8,1.11,2,1.42a50.78,50.78,0,0,0,16.7,1.15c3.53-.33,6.87-1,10.45-1.23a11.28,11.28,0,0,1,2.68.1c.82.17,1.46.56,1.26.95-.35.64-2.38.69-3.9.77-1.77.1-3.7.6-3.79,1.37-.07.51.74,1,1.77,1.26a18.31,18.31,0,0,0,3.43.41c12.27.66,24.6-.83,36.26-2.62-.64.06.35-.1,3.16-.6L204.5,85.24A13,13,0,0,0,197.88,83a7.07,7.07,0,0,0-3.83.67c-1.35.84-.25,1.75,1,2.44s2.61,1.25,2.73,2.1c.06.42-.33.85-1.14,1.09a5.52,5.52,0,0,1-3.41-.24,9.62,9.62,0,0,1-2.94-1.58c-4.36-3.66-7.38-8.26-16.2-10.1a14.63,14.63,0,0,0-1.94-.27c-4.09-.24-5.37,1.56-4.66,2.91.62,1.18,2.26,2.23,2.55,3.44a.66.66,0,0,1-.35.72c-.91.59-2.72.34-3.84,0-3.3-1.17-4-3.18-5.07-5A18.47,18.47,0,0,0,156.12,74a13.51,13.51,0,0,0-7.82-2.93,9,9,0,0,0-5.22,1c-2.23,1.56,1.69,3.38.75,5.07a1.35,1.35,0,0,1-.76.6,6.23,6.23,0,0,1-3.28-.11c-3-.83-4.35-2.43-4.84-4s-.36-3.1-1.32-4.58a6.07,6.07,0,0,0-3.89-2.39c-2.05-.47-5-.26-6.08.64s0,2.2-2.12,2.79a6.14,6.14,0,0,1-4.2-.39c-2.12-1.25-.92-2.65-1-4-.12-1.72-2.5-3.38-6-4.19a5.18,5.18,0,0,0-1.77-.17,2.72,2.72,0,0,0-1.49.65,6.46,6.46,0,0,0-2,2.59,4.4,4.4,0,0,1-3.21-.82,2.3,2.3,0,0,1-.57-1.73,4.84,4.84,0,0,0-2-3.63,11.83,11.83,0,0,0-6.44-2.05Z" fill="#80a958"/><path d="M254.9,114.18c-.9.39-6.45,2.56-3.94,3.07,1.07.21,6.92-.7,6,.42a.76.76,0,0,1-.27.2c-7.1,2.77-18.14,7.14-20.29,8.45-1.16.7-2.2,1.52-1.66,2.41a3.39,3.39,0,0,0,2.71,1c2.89,0,3.77-2,6.84-1.74a1.83,1.83,0,0,1,1.31.48c.22.37-.38.7-1,1-3.31,1.53-7.4,2.69-10.89,4.14s-6.49,3.3-6.61,5.39c0,.36.24.82,1.07.88a3.58,3.58,0,0,0,1-.11c2.86-.62,4.57-2,7.48-2.55a2.88,2.88,0,0,1,1.9.1c.48.26.47.64,0,.91-3,1.85-6.78,3.39-10,5.16-3,1.63-5.45,3.53-5.77,5.6a1.42,1.42,0,0,0,1,1.65,4.23,4.23,0,0,0,1.78.36,4.83,4.83,0,0,0,2.94-1.09,11.74,11.74,0,0,1,3.39-1.37,4.57,4.57,0,0,1,2.37-.09c.62.23.51.66.29,1-1.34,2.17-4.26,4.09-6.16,6.18s-2.62,4.61.27,6.48a3.4,3.4,0,0,0,2.57.48c1.06-.16,1.76-.6,1.9-1.08a3.23,3.23,0,0,1,3.7-1.71c.68.14,1.1.44,1.2.77.5,1.51,0,3,0,4.56s.88,3.37,4,4.43a13,13,0,0,0,4.2.64c4.07,0,5.84-1.5,6-2.9a6.24,6.24,0,0,0-.85-2.87,10.41,10.41,0,0,1-.86-5.08c0-.3.39-.59,1-.74a3.18,3.18,0,0,1,1.92.22c1.69.67,2.82,1.58,5,2a9,9,0,0,0,2.23.2c2.34-.1,3.09-1,3.21-1.82.39-2.58-7.6-5.47-10.39-9.19-.59-.79,1.53-1.46,3.08-1h0a4.73,4.73,0,0,1,2,1.33,9.58,9.58,0,0,0,6.5,2,4,4,0,0,0,1.45-.28c.55-.29.35-.72.1-1.07a18.67,18.67,0,0,0-6.32-5.27c-3.14-1.74-7.38-3.58-6.47-5.75a1.81,1.81,0,0,1,1.38-1,5.91,5.91,0,0,1,2.37.07c2.11.46,3.1,1.48,4.42,2.33,1.51,1,4.55,1.81,6.78.83,1-.44,1.35-1.08,1.07-1.68a14.72,14.72,0,0,0-5.24-6.6,9.61,9.61,0,0,1-3.05-3.2c-.36-.67-.59-1.47.54-2.05a3.91,3.91,0,0,1,1.68-.36,2.92,2.92,0,0,1,2.48,1c.71.87.95,1.82,2.52,2.51a6.19,6.19,0,0,0,2.72.47c2.17-.1,2.89-1.09,3.2-1.93,1.36-3.61-4.41-6.55-2.39-10.78a2.23,2.23,0,0,1,.51-.19c1.73-.43,2.9,2.12,3.83,2.62a4.92,4.92,0,0,0,3.45.38,2.09,2.09,0,0,0,1.6-2.21c0-.94-.89-1.88-1.52-2.77a22.9,22.9,0,0,1-1.93-3.6,12.49,12.49,0,0,1-1.1-5.7A95.45,95.45,0,0,0,254.9,114.18Z" fill="#80a958"/></g></g></g></g></svg>