<svg xmlns="http://www.w3.org/2000/svg" viewBox="0 0 13.8 54.3"><g id="Layer_2" data-name="Layer 2"><g id="Layer_1-2" data-name="Layer 1"><g id="Props"><g id="fu_kitchen_utensil_stir_1" data-name="fu_kitchen utensil_stir 1"><path d="M11.8,45.1c-.5-.3-.9-.6-.9-1s.4-.7.9-.6.9.2.9-.3-.5-.4-.9-.6-1.3-.5-1.4-1.2.6-.6,1.1-.6.5-.2.6-.5-.3-.6-.6-.6-.1-.1-.2-.2a5.3,5.3,0,0,1-1.9-1.8,16.1,16.1,0,0,1-1.5-2.2h-2s-2,3.5-3.7,4.2a.5.5,0,0,0-.5.6c.2.9,1.6,0,1.6,1.1s-2.2,1.2-2.2,1.8,1.8-.5,1.8.9S1,45.3,1,46.2a.5.5,0,0,0,.5.4c.4,0,.9-.5,1.1-.5s.3.2.3.6-1.4,1.5-1.3,2.6a.3.3,0,0,0,.3.3c.4,0,1.1-1,1.5-1a.7.7,0,0,1,.5.4c0,.1.1.2.1.3s-.7,1.6-.7,2.2.1.2.2.3a.7.7,0,0,0,.5.3c.4-.3,1.1-1.8,1.6-1.8s.8-.1.8,1.7v.5c.1.3.2.7.5.8s.5-.8.5-1.3h0c0-1.8,0-1.7.8-1.7s.5.3.8.7l.8,1.1c.1,0,.7-.1.7-.6A5.3,5.3,0,0,0,10,50a2.5,2.5,0,0,1-.2-.7.7.7,0,0,1,.6-.7l.3.2c.4.3.9.8,1.2.8a.3.3,0,0,0,.3-.3c.1-.8-.5-1.2-.9-1.7a1.8,1.8,0,0,1-.4-.9c0-.4,0-.6.2-.6l.5.2.7.3c.2,0,.5-.2.5-.4S12.3,45.4,11.8,45.1ZM7.1,46H6.9a1.7,1.7,0,0,1-1-.3,1.6,1.6,0,0,1-.8-1.4,1.8,1.8,0,0,1,1.8-1.8h.4a1.8,1.8,0,0,1,1.4,1.8A1.8,1.8,0,0,1,7.1,46Z" style="fill:#dd8f54"/><path d="M4.9,23.4H9V6.1H4.7V23.3Z" style="fill:#607185"/><path d="M8.8,6.1V2.8A1.8,1.8,0,0,0,7.6,1.1H6.7A1.8,1.8,0,0,0,5,2.8V6.1Zm-2-4.3H7a.9.9,0,0,1,.9,1,.9.9,0,0,1-.9.9H6.8a1.1,1.1,0,0,1-.9-1A.9.9,0,0,1,6.8,1.8Z" style="fill:#dd8f54"/><path d="M8.8,23.4H5l.5,13.8c0,.2.3.4.7.5H7.6c.4-.1.6-.3.6-.5Z" style="fill:#dd8f54"/><path d="M11.8,45.1c-.5-.3-.9-.6-.9-1s.4-.7.9-.6.9.2.9-.3-.5-.4-.9-.6-1.3-.5-1.4-1.2.6-.6,1.1-.6.5-.2.6-.5-.3-.6-.6-.6-.1-.1-.2-.2a5.3,5.3,0,0,1-1.9-1.8,16.1,16.1,0,0,1-1.5-2.2h-2s-2,3.5-3.7,4.2a.5.5,0,0,0-.5.6c.2.9,1.6,0,1.6,1.1s-2.2,1.2-2.2,1.8,1.8-.5,1.8.9S1,45.3,1,46.2a.5.5,0,0,0,.5.4c.4,0,.9-.5,1.1-.5s.3.2.3.6-1.4,1.5-1.3,2.6a.3.3,0,0,0,.3.3c.4,0,1.1-1,1.5-1a.7.7,0,0,1,.5.4c0,.1.1.2.1.3s-.7,1.6-.7,2.2.1.2.2.3a.7.7,0,0,0,.5.3c.4-.3,1.1-1.8,1.6-1.8s.8-.1.8,1.7v.5c.1.3.2.7.5.8s.5-.8.5-1.3h0c0-1.8,0-1.7.8-1.7s.5.3.8.7l.8,1.1c.1,0,.7-.1.7-.6A5.3,5.3,0,0,0,10,50a2.5,2.5,0,0,1-.2-.7.7.7,0,0,1,.6-.7l.3.2c.4.3.9.8,1.2.8a.3.3,0,0,0,.3-.3c.1-.8-.5-1.2-.9-1.7a1.8,1.8,0,0,1-.4-.9c0-.4,0-.6.2-.6l.5.2.7.3c.2,0,.5-.2.5-.4S12.3,45.4,11.8,45.1ZM7.1,46H6.9a1.7,1.7,0,0,1-1-.3,1.6,1.6,0,0,1-.8-1.4,1.8,1.8,0,0,1,1.8-1.8h.4a1.8,1.8,0,0,1,1.4,1.8A1.8,1.8,0,0,1,7.1,46Z" style="fill:#dd8f54"/><path d="M4.9,23.4H9V6.1H4.7V23.3Z" style="fill:#607185"/><path d="M8.8,6.1V2.8A1.8,1.8,0,0,0,7.6,1.1H6.7A1.8,1.8,0,0,0,5,2.8V6.1Zm-2-4.3H7a.9.9,0,0,1,.9,1,.9.9,0,0,1-.9.9H6.8a1.1,1.1,0,0,1-.9-1A.9.9,0,0,1,6.8,1.8Z" style="fill:#dd8f54"/><path d="M8.8,23.4H5l.5,13.8c0,.2.3.4.7.5H7.6c.4-.1.6-.3.6-.5Z" style="fill:#dd8f54"/><path d="M7,1h.6A1.8,1.8,0,0,1,8.8,2.8V6.1H9V23.3H8.8L8.3,36.1a7.6,7.6,0,0,0,1.1,1.6,5.3,5.3,0,0,0,1.9,1.8c.1.1.2.1.2.2s.7.2.6.6-.3.4-.6.5-1.1-.1-1.1.6.7.9,1.4,1.2.9.3.9.6a.4.4,0,0,1-.4.4h-.9c-.3,0-.5.1-.5.6s.4.7.9,1,1,.6,1,1.1-.3.4-.5.4l-.7-.3-.5-.2c-.2,0-.2.2-.2.6a1.8,1.8,0,0,0,.4.9c.4.5,1,.9.9,1.7a.3.3,0,0,1-.3.3c-.3,0-.8-.5-1.2-.8l-.3-.2a.7.7,0,0,0-.6.7,2.5,2.5,0,0,0,.2.7,5.3,5.3,0,0,1,.5,1.5c0,.4-.5.6-.6.6H9.8L9,51c-.3-.4-.6-.7-.8-.7H8.1c-.7,0-.7,0-.7,1.7h0c0,.5-.1,1.2-.5,1.3s-.4-.5-.5-.8V52c0-1.7,0-1.7-.7-1.7H5.6c-.5,0-1.2,1.5-1.6,1.8H3.9a.5.5,0,0,1-.4-.3c-.1-.1-.2-.2-.2-.3s.7-1.6.7-2.2-.1-.2-.1-.3a.7.7,0,0,0-.5-.4c-.4,0-1.1,1-1.5,1a.3.3,0,0,1-.3-.3c-.1-1.1,1.3-1.5,1.3-2.6s0-.6-.3-.6-.7.5-1.1.5a.5.5,0,0,1-.5-.4c0-.9,1.8-1.3,1.9-2.1s-.2-.6-.6-.6H1.5c-.3,0-.4-.1-.4-.4s2.2-.6,2.2-1.8-1.4-.2-1.6-1.1a.5.5,0,0,1,.5-.6c1.3-.5,2.6-2.5,3.3-3.6L5,23.4H4.7V6.1H5V2.8A1.8,1.8,0,0,1,6.7,1H7M6.9,3.8H7a.9.9,0,0,0,.9-.9.9.9,0,0,0-.9-1H6.8a.9.9,0,0,0-.9,1,1.1,1.1,0,0,0,.9,1h.1M6.9,46h.2a1.8,1.8,0,0,0,1.6-1.7,1.8,1.8,0,0,0-1.4-1.8H6.9a1.8,1.8,0,0,0-1.8,1.8,1.6,1.6,0,0,0,.8,1.4,1.7,1.7,0,0,0,1,.3M7,0H6.7A2.8,2.8,0,0,0,4,2.8V5.5a.7.7,0,0,0-.3.6V23.3A1.5,1.5,0,0,0,4,24l.5,11.9a7.9,7.9,0,0,1-2.6,2.8C.5,39.2.6,40.2.7,40.6a1.4,1.4,0,0,0,1,1H1.6c-.6.2-1.5.5-1.5,1.5a1.2,1.2,0,0,0,1,1.3A2,2,0,0,0,0,46.2a1.3,1.3,0,0,0,1.2,1.3,2.9,2.9,0,0,0-.6,1.9,1.3,1.3,0,0,0,1.3,1.2l.7-.2a2.3,2.3,0,0,0-.3,1.1,1.3,1.3,0,0,0,.4,1,2,2,0,0,0,1.2.6l.6-.2a4.5,4.5,0,0,0,.9-1h0v.6c.2,1.2.9,1.6,1.3,1.6h.4c1-.2,1.3-1.3,1.3-2.2h0a4.4,4.4,0,0,0,.8,1l.7.2a1.7,1.7,0,0,0,1.6-1.6,4.5,4.5,0,0,0-.3-1.1l.7.2a1.3,1.3,0,0,0,1.3-1.2,2.5,2.5,0,0,0-.7-1.9,1.4,1.4,0,0,0,1.3-1.3,2.3,2.3,0,0,0-1.1-1.7,1.2,1.2,0,0,0,1-1.3c0-1-.9-1.3-1.5-1.5h-.1a1.6,1.6,0,0,0,1-1c.1-.4.2-1.4-1.2-1.9h-.1a5.5,5.5,0,0,1-1.6-1.6l-.9-1.2L9.8,24a1.4,1.4,0,0,0,.2-.7V6.1a1.1,1.1,0,0,0-.2-.6V2.8A2.8,2.8,0,0,0,8,.2L7.1,0ZM6.9,45H6.4a.9.9,0,0,1-.3-.6.8.8,0,0,1,.8-.8h.2a.9.9,0,0,1,.6.8A.8.8,0,0,1,7,45Z" style="fill:#924f28"/></g></g></g></g></svg>