<svg xmlns="http://www.w3.org/2000/svg" viewBox="0 0 23.6 24.7"><g style="isolation:isolate"><g id="Layer_2" data-name="Layer 2"><g id="Layer_1-2" data-name="Layer 1"><g id="Props"><g id="fu_kitchen_utensil_mug" data-name="fu_kitchen utensil_mug"><path d="M16.3,4.2c-.2-.2-.3-.5-.6-.5a22,22,0,0,0,.1-2.3.5.5,0,0,0-.5-.4H1.4a.4.4,0,0,0-.4.4,131.7,131.7,0,0,0,.8,14.7c.5,3.1.9,7.6,2.8,7.6h7.7c1.5,0,2-3.5,2.4-6.5.2,0,.3-.4.5-.5s7.2,1.5,7.4-6.6S17.1,4.9,16.3,4.2Zm4.8,6.3c-.3,3.3-2.9,6.2-5.7,4.4-.2-.1-.1-.4-.3-.5.3-2.6.5-5.6.6-8.2,0-.2,0-.5.1-.5C20.3,5.5,21.3,7.4,21.1,10.5Z" style="fill:#c94545"/><path d="M20.5,5.3c-1.6-1.1-4.1-.7-4.4-1s-.4-.1-.4-.2a5.6,5.6,0,0,0-.1.7v.8c.1-.2.2-.1.3-.1s2.9-.1,4.1,1a4.6,4.6,0,0,1,1.3,4,7,7,0,0,1-2.6,4.6,3.9,3.9,0,0,1-3.4,0c-.2-.1-.2-.3-.3-.4h0c-.1.4,0,.7-.1,1.1a6,6,0,0,0-.2,1.2c0,.2.1.1.2,0s.3-.4.6-.4a9.6,9.6,0,0,0,3.9-.4,5.8,5.8,0,0,0,3-5.6C22.4,6.3,22,6.3,20.5,5.3Z" style="fill:#c94545"/><g style="mix-blend-mode:multiply"><path d="M3.3,21.2c-.4-1.5-.8-3.4-1.1-5.1A128.9,128.9,0,0,1,1.4,1.3H1.2A134,134,0,0,0,2,16c.3,1.7.6,3.5,1,5s.9,2.4,1,2.4H4A9.2,9.2,0,0,1,3.3,21.2Z" style="fill:#ccc"/></g><g style="mix-blend-mode:multiply"><path d="M13.5,21.2a38.4,38.4,0,0,0,1-5.1c.7-4.7.8-12.7.9-14.8h.2A134,134,0,0,1,14.8,16c-.3,1.7-.7,3.5-1.1,5s-.8,2.4-.9,2.4h0A19.7,19.7,0,0,0,13.5,21.2Z" style="fill:#ccc"/></g><path d="M11.9,1.3H14c-.2,25.1-4.3,22.1-3.8,21.2C11.9,18.3,11.8,6.4,11.9,1.3Z" style="fill:#e6e6e6;mix-blend-mode:multiply"/><path d="M15.3,1a.5.5,0,0,1,.5.4,22,22,0,0,1-.1,2.3h.1c.2,0,.3.3.5.5s4.1-.5,5.6,2.2c0,.1.1.2.1.3a7.7,7.7,0,0,1,.6,3.4c-.2,6-3.8,6.7-5.9,6.7H15.2c-.2.1-.3.5-.5.5-.4,3-.9,6.5-2.4,6.5H4.6c-1.9,0-2.3-4.5-2.8-7.6A131.7,131.7,0,0,1,1,1.4.4.4,0,0,1,1.4,1H15.3m1.8,14.4c2.1,0,3.8-2.3,4-4.9s-.8-4.9-4.9-4.9h-.4c-.1,0-.1.3-.1.5-.1,2.6-.3,5.6-.6,8.2.2.1.1.4.3.5a3,3,0,0,0,1.7.5M15.3,0H1.4A1.3,1.3,0,0,0,.4.4a1.3,1.3,0,0,0-.4,1A112.9,112.9,0,0,0,.9,16.3c0,.3.1.7.1,1.1.6,3.6,1.1,7.3,3.6,7.3h7.7c2.3,0,2.9-3.5,3.4-7h1c4.3,0,6.7-2.8,6.9-7.7a8.6,8.6,0,0,0-.7-3.8.8.8,0,0,0-.2-.4c-1.3-2.3-3.8-2.4-5.2-2.5h-.6c0-.1-.1-.1-.2-.2a13.6,13.6,0,0,0,.1-1.8,1.6,1.6,0,0,0-.5-1,1.2,1.2,0,0,0-1-.4Zm.9,14.2c.2-2,.4-4.6.5-7.5a3.6,3.6,0,0,1,2.8.9,3.5,3.5,0,0,1,.6,2.8c-.2,2.2-1.6,4-3,4a1.5,1.5,0,0,1-.9-.2Z" style="fill:#5c1612"/></g></g></g></g></g></svg>