<svg xmlns="http://www.w3.org/2000/svg" viewBox="0 0 53.5 17.3"><g style="isolation:isolate"><g id="Layer_2" data-name="Layer 2"><g id="Layer_1-2" data-name="Layer 1"><g id="Props"><g id="fu_book_5" data-name="fu_book 5"><path d="M22,1H52.5a11.7,11.7,0,0,0,0,15.3H22A11.5,11.5,0,0,1,22,1Z" style="fill:#ffefe1"/><path d="M2.8,2.5A2.7,2.7,0,0,1,5.3,1H23.9a11.7,11.7,0,0,0,0,15.3H5.3a2.9,2.9,0,0,1-2.5-1.4A11.6,11.6,0,0,1,2.8,2.5Z" style="fill:#ffa4c6"/><path d="M40.3,9.2v3.6a.6.6,0,0,1-.9.5l-.9-.8h-.7l-.9.8a.6.6,0,0,1-.9-.5V9.2Z" style="fill:#8383f2"/><g style="mix-blend-mode:multiply"><path d="M34.6,13.6H27.2a.3.3,0,0,1-.3-.3.3.3,0,0,1,.3-.3h7.4a.3.3,0,0,1,.3.3A.3.3,0,0,1,34.6,13.6Z" style="fill:#ebebeb"/></g><g style="mix-blend-mode:multiply"><path d="M31.7,9.4H24.3a.3.3,0,0,1-.3-.3.5.5,0,0,1,.3-.3h7.4c.1,0,.2.2.2.3S31.8,9.4,31.7,9.4Z" style="fill:#ebebeb"/></g><g style="mix-blend-mode:multiply"><path d="M47,9.4H41.8a.3.3,0,0,1-.3-.3l.3-.3H47c.1,0,.2.2.2.3S47.1,9.4,47,9.4Z" style="fill:#ebebeb"/></g><g style="mix-blend-mode:multiply"><path d="M46.5,5.6H37.2a.3.3,0,0,1-.3-.3c0-.1.1-.2.3-.2h9.3l.2.2C46.7,5.5,46.6,5.6,46.5,5.6Z" style="fill:#ebebeb"/></g><g style="mix-blend-mode:multiply"><path d="M33.3,5.6H28.4a.3.3,0,0,1-.3-.3c0-.1.1-.2.3-.2h4.9l.3.2A.3.3,0,0,1,33.3,5.6Z" style="fill:#ebebeb"/></g><g style="mix-blend-mode:multiply"><path d="M48,13.6H42.4a.3.3,0,0,1-.3-.3.3.3,0,0,1,.3-.3H48a.3.3,0,0,1,.3.3A.3.3,0,0,1,48,13.6Z" style="fill:#ebebeb"/></g><path d="M16.4,5.1H5.1a.6.6,0,0,0-.6.3,7.7,7.7,0,0,0,0,6.6.5.5,0,0,0,.5.3H16.3c.5,0,.8-.4.6-.8a7.6,7.6,0,0,1,0-5.6A.5.5,0,0,0,16.4,5.1Z" style="fill:#8383f2"/><path d="M52.5,1h0m0,0a11.7,11.7,0,0,0,0,15.3H5.3a2.9,2.9,0,0,1-2.5-1.4,11.6,11.6,0,0,1,0-12.4A2.7,2.7,0,0,1,5.3,1H52.5m0-1H5.3A4.2,4.2,0,0,0,1.9,1.9a13.1,13.1,0,0,0,0,13.5,4.2,4.2,0,0,0,3.4,1.9H52.5a1.1,1.1,0,0,0,1-.6,1.2,1.2,0,0,0-.2-1,10.6,10.6,0,0,1,0-14,1.4,1.4,0,0,0,.2-.7.9.9,0,0,0-1-1Zm0,2Z" style="fill:#84205c"/></g></g></g></g></g></svg>