<svg xmlns="http://www.w3.org/2000/svg" viewBox="0 0 590.4 513.7"><g id="Layer_2" data-name="Layer 2"><g id="Layer_1-2" data-name="Layer 1"><g id="Props"><g id="fu_cat_house_4" data-name="fu_cat house 4"><g id="fu_cat_house" data-name="fu_cat house"><rect x="571.1" width="5.1" height="165.14" style="fill:#59433b"/><rect x="511.1" width="5.1" height="165.14" style="fill:#59433b"/><rect x="17.3" y="345.4" width="15.8" height="46.35" rx="4.8" style="fill:#e1cc8c"/><path d="M28.3,393.3H22.1a6.4,6.4,0,0,1-6.3-6.4V350.2a6.3,6.3,0,0,1,6.3-6.3h6.2a6.3,6.3,0,0,1,6.3,6.3v36.7A6.4,6.4,0,0,1,28.3,393.3Zm-6.2-46.4a3.3,3.3,0,0,0-3.3,3.3v36.7a3.4,3.4,0,0,0,3.3,3.4h6.2a3.4,3.4,0,0,0,3.3-3.4V350.2a3.3,3.3,0,0,0-3.3-3.3Z" style="fill:#6a3417"/><rect x="7" y="355" width="36.5" height="13.07" rx="6.5" style="fill:#924f28"/><path d="M36.9,369.5H13.5a8,8,0,0,1,0-16H36.9a8,8,0,0,1,0,16Zm-23.4-13a5,5,0,0,0,0,10H36.9a5,5,0,0,0,0-10Z" style="fill:#6a3417"/><rect x="92.3" y="345.4" width="15.8" height="46.35" rx="4.8" style="fill:#e1cc8c"/><path d="M103.3,393.3H97.1a6.4,6.4,0,0,1-6.3-6.4V350.2a6.3,6.3,0,0,1,6.3-6.3h6.2a6.3,6.3,0,0,1,6.3,6.3v36.7A6.4,6.4,0,0,1,103.3,393.3Zm-6.2-46.4a3.3,3.3,0,0,0-3.3,3.3v36.7a3.4,3.4,0,0,0,3.3,3.4h6.2a3.4,3.4,0,0,0,3.3-3.4V350.2a3.3,3.3,0,0,0-3.3-3.3Z" style="fill:#6a3417"/><rect x="82" y="355" width="36.5" height="13.07" rx="6.5" style="fill:#924f28"/><path d="M111.9,369.5H88.5a8,8,0,0,1,0-16h23.4a8,8,0,0,1,0,16Zm-23.4-13a5,5,0,0,0,0,10h23.4a5,5,0,0,0,0-10Z" style="fill:#6a3417"/><path d="M8.3,347.3H119.8a2,2,0,0,0,1.4-.6l14.5-16.2A9.2,9.2,0,0,1,139,313a9.2,9.2,0,0,1,8.4,4.4l10.8-12.1a9.2,9.2,0,1,1,11.7-13.1l10.9-12.1a8.9,8.9,0,0,1-5.3-7.7,9.2,9.2,0,0,1,17-5.4l10.8-12.1a9,9,0,0,1-5.3-7.7,9.3,9.3,0,0,1,8.6-9.8,9.1,9.1,0,0,1,8.4,4.5l10.9-12.1a9.2,9.2,0,0,1,3.3-17.5,8.9,8.9,0,0,1,8.4,4.4l10.8-12.1a9.3,9.3,0,0,1-5.3-7.8,9.1,9.1,0,0,1,8.6-9.7,8.9,8.9,0,0,1,8.4,4.4l20.7-23.1.9-.8h0a6.7,6.7,0,0,1,4.7-1.9h90.1a6.7,6.7,0,0,1,6.8,6.8h0a6.8,6.8,0,0,1-6.8,6.8H290.1a10.4,10.4,0,0,0-7.7,3.4L125.3,358.2a6.9,6.9,0,0,1-5.4,2.6H8.3a6.8,6.8,0,1,1,0-13.5Z" style="fill:#924f28"/><path d="M119.9,362.3H8.3a8.3,8.3,0,1,1,0-16.5H120.1l13.2-14.8a10.8,10.8,0,0,1-1.8-15.8,10.9,10.9,0,0,1,7.4-3.6,10.5,10.5,0,0,1,8.6,3.6l8.4-9.4a10.7,10.7,0,0,1,5.5-19.4,10.4,10.4,0,0,1,8.6,3.6l8.4-9.4a10.8,10.8,0,0,1-1.8-15.8,10.9,10.9,0,0,1,7.4-3.6,10.8,10.8,0,0,1,8.6,3.6l8.4-9.4a10.6,10.6,0,0,1-1.8-15.8,10.9,10.9,0,0,1,7.3-3.6,10.7,10.7,0,0,1,8.6,3.6l8.4-9.4a10.7,10.7,0,0,1,5.6-19.3,10.7,10.7,0,0,1,8.6,3.5l8.4-9.4a10.6,10.6,0,0,1-4.5-8,10.3,10.3,0,0,1,2.7-7.7,10.1,10.1,0,0,1,7.3-3.6,10.6,10.6,0,0,1,8.6,3.5l19.5-21.7a4.3,4.3,0,0,1,1-.9,8.1,8.1,0,0,1,5.7-2.3h90.1a8.3,8.3,0,0,1,0,16.6H290.1a8.8,8.8,0,0,0-6.5,2.9L126.4,359.2A8,8,0,0,1,119.9,362.3ZM8.3,348.8A5.3,5.3,0,0,0,3,354.1a5.2,5.2,0,0,0,5.3,5.2H119.9a5.2,5.2,0,0,0,4.2-2h.1L281.3,181.6a12,12,0,0,1,8.8-3.9h86.4a5.3,5.3,0,0,0,0-10.6H286.4a5.1,5.1,0,0,0-3.7,1.5h-.2l-.6.6-22,24.6-1-1.8a7.7,7.7,0,0,0-7.1-3.6,7.6,7.6,0,0,0-7.2,8.1,7.8,7.8,0,0,0,4.5,6.5l1.8.9-13.5,15.1-1.1-1.8a7.9,7.9,0,0,0-7-3.7,7.7,7.7,0,0,0-7.2,8.2,7.5,7.5,0,0,0,4.4,6.5l1.8.8-13.5,15.2-1-1.8a8,8,0,0,0-7.1-3.7,8.4,8.4,0,0,0-5.3,2.6,8.1,8.1,0,0,0-1.9,5.6,7.8,7.8,0,0,0,4.5,6.5l1.8.8-13.5,15.2-1.1-1.8a7.6,7.6,0,0,0-12.3-1.1,7.3,7.3,0,0,0-1.9,5.6,7.5,7.5,0,0,0,4.4,6.5l1.8.8-13.5,15.1-1-1.7a7.7,7.7,0,1,0-9.8,11l1.8.8-13.5,15.1-1.1-1.7a7.6,7.6,0,0,0-12.3-1.1,7.1,7.1,0,0,0-1.9,5.6,7.5,7.5,0,0,0,4.4,6.5l1.8.8-15.8,17.7a3.3,3.3,0,0,1-2.5,1.1Z" style="fill:#6a3417"/><path d="M376.8,89.3l-6.1-8.5a10.1,10.1,0,0,0-8.1-4.2H298.7a10.1,10.1,0,0,0-8.1,4.2l-6.1,8.5a5.2,5.2,0,0,0-.9,2.9v4a5,5,0,0,0,5,5h84.1a5,5,0,0,0,5-5v-4A5.2,5.2,0,0,0,376.8,89.3Z" style="fill:#ffc9a4"/><path d="M372.7,102.7H288.6a6.5,6.5,0,0,1-6.5-6.5v-4a6.6,6.6,0,0,1,1.2-3.8l6.1-8.5a11.4,11.4,0,0,1,9.3-4.8h63.9a11.4,11.4,0,0,1,9.3,4.8l6.1,8.5a6.6,6.6,0,0,1,1.2,3.8v4A6.5,6.5,0,0,1,372.7,102.7Zm-74-24.6a8.4,8.4,0,0,0-6.9,3.6l-6,8.5a3.1,3.1,0,0,0-.7,2v4a3.5,3.5,0,0,0,3.5,3.5h84.1a3.5,3.5,0,0,0,3.5-3.5v-4a3.1,3.1,0,0,0-.7-2l-6-8.5a8.4,8.4,0,0,0-6.9-3.6Z" style="fill:#924f28"/><rect x="283.6" y="89.8" width="94.1" height="82.5" rx="7" transform="translate(661.3 262.1) rotate(-180)" style="fill:#ddab88"/><path d="M370.7,173.8H290.6a8.5,8.5,0,0,1-8.5-8.5V96.8a8.5,8.5,0,0,1,8.5-8.5h80.1a8.5,8.5,0,0,1,8.5,8.5v68.5A8.5,8.5,0,0,1,370.7,173.8ZM290.6,91.3a5.5,5.5,0,0,0-5.5,5.5v68.5a5.5,5.5,0,0,0,5.5,5.5h80.1a5.5,5.5,0,0,0,5.5-5.5V96.8a5.5,5.5,0,0,0-5.5-5.5Z" style="fill:#924f28"/><circle cx="330.6" cy="131" r="24.2" style="fill:#59433b"/><path d="M292.1,167.8h0a3.1,3.1,0,0,0,3.1-3.1v-66a3.1,3.1,0,0,0-3.1-3.1h0a3.1,3.1,0,0,0-3.2,3.1v66A3.1,3.1,0,0,0,292.1,167.8Z" style="fill:#f4e2d5"/><path d="M119.4,253.4l-6.1-8.5a10,10,0,0,0-8.1-4.2H20.3a10.1,10.1,0,0,0-8.2,4.2l-6,8.5a4.6,4.6,0,0,0-1,2.9v4a5,5,0,0,0,5,5H115.4a5,5,0,0,0,5-5v-4A5.3,5.3,0,0,0,119.4,253.4Z" style="fill:#ffc9a4"/><path d="M115.4,266.8H10.1a6.5,6.5,0,0,1-6.5-6.5v-4a6.3,6.3,0,0,1,1.2-3.7l6.1-8.6a11.7,11.7,0,0,1,9.4-4.8h84.9a11.7,11.7,0,0,1,9.4,4.8l6,8.6a6.4,6.4,0,0,1,1.3,3.7v4A6.6,6.6,0,0,1,115.4,266.8ZM20.3,242.2a8.4,8.4,0,0,0-6.9,3.6l-6.1,8.5a3.1,3.1,0,0,0-.7,2v4a3.5,3.5,0,0,0,3.5,3.5H115.4a3.5,3.5,0,0,0,3.5-3.5v-4a3.7,3.7,0,0,0-.7-2h0l-6.1-8.5a8.7,8.7,0,0,0-6.9-3.6Z" style="fill:#924f28"/><rect x="5.1" y="253" width="115.2" height="101.04" rx="8.6" transform="translate(125.5 607.1) rotate(180)" style="fill:#ddab88"/><path d="M111.8,355.6H13.7A10.2,10.2,0,0,1,3.6,345.5V261.6a10.2,10.2,0,0,1,10.1-10.1h98.1a10.2,10.2,0,0,1,10.1,10.1v83.9A10.2,10.2,0,0,1,111.8,355.6ZM13.7,254.5a7.1,7.1,0,0,0-7.1,7.1v83.9a7.1,7.1,0,0,0,7.1,7.1h98.1a7.1,7.1,0,0,0,7.1-7.1V261.6a7.1,7.1,0,0,0-7.1-7.1Z" style="fill:#924f28"/><circle cx="62.7" cy="303.5" r="29.6" style="fill:#59433b"/><path d="M13.8,348.9h0a3.2,3.2,0,0,0,3.2-3.2V262.3a3.1,3.1,0,0,0-3.2-3.1h0a3.1,3.1,0,0,0-3.1,3.1v83.4A3.1,3.1,0,0,0,13.8,348.9Z" style="fill:#f4e2d5"/><path d="M583.9,210.7H501.6a1.6,1.6,0,0,1-1.1-.5l-10.7-11.9a6.8,6.8,0,0,0-2.4-12.9,6.5,6.5,0,0,0-6.2,3.2l-8-8.9a6.8,6.8,0,0,0,3.9-5.7,6.8,6.8,0,0,0-12.6-4l-8-8.9a6.9,6.9,0,0,0,4-5.7,6.8,6.8,0,0,0-12.6-4l-8-8.9a6.8,6.8,0,0,0,3.9-5.7,6.7,6.7,0,0,0-6.3-7.2,7,7,0,0,0-6.3,3.2l-8-8.9a6.8,6.8,0,1,0-8.6-9.7l-8-8.9a6.5,6.5,0,0,0,3.9-5.7,6.7,6.7,0,0,0-6.3-7.2,7,7,0,0,0-6.3,3.2l-15.2-17-.6-.6h0a5.5,5.5,0,0,0-3.5-1.4H312a5,5,0,0,0-5,5h0a5,5,0,0,0,5,5h63.8a7.7,7.7,0,0,1,5.7,2.5l116,129.6a5.1,5.1,0,0,0,4,2h82.4a5.1,5.1,0,0,0,5-5A5,5,0,0,0,583.9,210.7Z" style="fill:#924f28"/><path d="M583.9,222.2H501.5a6.7,6.7,0,0,1-5.2-2.5L380.4,90.1a6.3,6.3,0,0,0-4.6-2H312a6.5,6.5,0,0,1,0-13h66.6a6.2,6.2,0,0,1,4.4,1.8,2.7,2.7,0,0,1,.8.7l14.1,15.7a7.8,7.8,0,0,1,6.4-2.4,8.3,8.3,0,0,1,7.7,8.8,8.1,8.1,0,0,1-3.1,5.9l5.6,6.3a8.3,8.3,0,0,1,12.1.4,8.2,8.2,0,0,1,2.1,6,8.4,8.4,0,0,1-3.1,5.9l5.6,6.3a7.8,7.8,0,0,1,6.4-2.4,8,8,0,0,1,5.7,2.8,8.6,8.6,0,0,1,2,6,8.1,8.1,0,0,1-3.1,5.9l5.6,6.3a8.1,8.1,0,0,1,6.4-2.4,8.4,8.4,0,0,1,7.8,8.8,8.2,8.2,0,0,1-3.2,5.9l5.7,6.3a7.8,7.8,0,0,1,6.4-2.4,8.3,8.3,0,0,1,7.7,8.8,8.4,8.4,0,0,1-3.1,5.9l5.6,6.3a8.3,8.3,0,0,1,12.1.4,7.7,7.7,0,0,1,2,6,8.1,8.1,0,0,1-3.1,5.9l9.5,10.6h82.3a6.5,6.5,0,0,1,0,13ZM375.8,85.1a9.2,9.2,0,0,1,6.8,3L498.7,217.8a3.5,3.5,0,0,0,2.8,1.4h82.4a3.5,3.5,0,0,0,3.5-3.5,3.5,3.5,0,0,0-3.5-3.5H501.6a2.9,2.9,0,0,1-2.2-1l-12-13.4,1.8-.9a5.3,5.3,0,0,0,3.1-4.4,5.3,5.3,0,0,0-1.4-3.8,5,5,0,0,0-3.6-1.8,5.1,5.1,0,0,0-4.8,2.5l-1.1,1.7-10.7-11.9,1.9-.9a5.3,5.3,0,0,0-1.9-10,5.3,5.3,0,0,0-4.9,2.5l-1,1.7-10.7-11.9,1.8-.9a5.3,5.3,0,0,0,3.1-4.4,5.4,5.4,0,0,0-5-5.6,5.1,5.1,0,0,0-4.8,2.5l-1.1,1.7L437.4,142l1.9-.9a5.2,5.2,0,0,0,1.7-8.2,5,5,0,0,0-3.6-1.8,5.3,5.3,0,0,0-4.9,2.5l-1,1.7-10.7-11.9,1.8-.9a5.3,5.3,0,0,0,3.1-4.4,5.2,5.2,0,0,0-1.3-3.8,5.5,5.5,0,0,0-3.7-1.8,5.2,5.2,0,0,0-4.8,2.5l-1.1,1.8-10.7-12,1.9-.8a5.5,5.5,0,0,0,3-4.5,5.3,5.3,0,0,0-4.9-5.6,5.4,5.4,0,0,0-4.9,2.5l-1,1.8L381.6,79.6l-.4-.3-.2-.2a3.5,3.5,0,0,0-2.4-1H312a3.5,3.5,0,0,0-3.5,3.5,3.5,3.5,0,0,0,3.5,3.5Z" style="fill:#6a3417"/><path d="M365.5,6.6H326.3a9.7,9.7,0,0,0-8.1,4.2l-6.1,8.5a4.8,4.8,0,0,0-.9,2.9v4a5,5,0,0,0,5,5h59.4a5,5,0,0,0,5-5v-4a4.8,4.8,0,0,0-.9-2.9l-6.1-8.5A9.8,9.8,0,0,0,365.5,6.6Z" style="fill:#ffc9a4"/><path d="M375.6,32.7H316.2a6.5,6.5,0,0,1-6.5-6.5v-4a6.4,6.4,0,0,1,1.2-3.8l6-8.5a11.7,11.7,0,0,1,9.4-4.8h39.2a11.4,11.4,0,0,1,9.3,4.8l6.1,8.5a6.4,6.4,0,0,1,1.2,3.8v4A6.5,6.5,0,0,1,375.6,32.7ZM326.3,8.1a8.6,8.6,0,0,0-6.9,3.5l-6.1,8.6a3.6,3.6,0,0,0-.6,2v4a3.5,3.5,0,0,0,3.5,3.5h59.4a3.5,3.5,0,0,0,3.5-3.5v-4a3.6,3.6,0,0,0-.6-2l-6.1-8.6a8.6,8.6,0,0,0-6.9-3.5Z" style="fill:#924f28"/><path d="M585.3,142.3l-6.1-8.5a10.1,10.1,0,0,0-8.1-4.2H516.3a10,10,0,0,0-8.1,4.2l-6.1,8.5a5.3,5.3,0,0,0-1,2.9v4a5,5,0,0,0,5,5h75.1a5,5,0,0,0,5-5v-4A5.2,5.2,0,0,0,585.3,142.3Z" style="fill:#ffc9a4"/><path d="M581.2,155.7H506.1a6.6,6.6,0,0,1-6.5-6.5v-4a6.7,6.7,0,0,1,1.3-3.8l6-8.5a11.7,11.7,0,0,1,9.4-4.8h54.8a11.4,11.4,0,0,1,9.3,4.8l6.1,8.5a6.6,6.6,0,0,1,1.2,3.8v4A6.5,6.5,0,0,1,581.2,155.7Zm-64.9-24.6a8.3,8.3,0,0,0-6.9,3.6l-6.1,8.5a3.7,3.7,0,0,0-.7,2v4a3.5,3.5,0,0,0,3.5,3.5h75.1a3.5,3.5,0,0,0,3.5-3.5v-4a3.6,3.6,0,0,0-.6-2l-6.1-8.5a8.4,8.4,0,0,0-6.9-3.6Z" style="fill:#924f28"/><rect x="311.2" y="20.6" width="69.5" height="60.91" rx="5.2" style="fill:#ddab88"/><path d="M375.4,83H316.3a6.7,6.7,0,0,1-6.6-6.7V25.8a6.7,6.7,0,0,1,6.6-6.7h59.1a6.7,6.7,0,0,1,6.7,6.7V76.3A6.7,6.7,0,0,1,375.4,83ZM316.3,22.1a3.6,3.6,0,0,0-3.6,3.7V76.3a3.7,3.7,0,0,0,3.6,3.7h59.1a3.7,3.7,0,0,0,3.7-3.7V25.8a3.6,3.6,0,0,0-3.7-3.7Z" style="fill:#924f28"/><circle cx="345.9" cy="51" r="17.9" style="fill:#59433b"/><path d="M374.4,78.2h0a2.3,2.3,0,0,1-2.3-2.3V27.2a2.3,2.3,0,0,1,2.3-2.3h0a2.3,2.3,0,0,1,2.3,2.3V75.9A2.3,2.3,0,0,1,374.4,78.2Z" style="fill:#f4e2d5"/><rect x="501.1" y="141.1" width="85.1" height="74.59" rx="6.3" style="fill:#ddab88"/><path d="M579.9,217.2H507.5a7.9,7.9,0,0,1-7.9-7.9V147.4a7.9,7.9,0,0,1,7.9-7.8h72.4a7.8,7.8,0,0,1,7.8,7.8v61.9A7.8,7.8,0,0,1,579.9,217.2Zm-72.4-74.6a4.9,4.9,0,0,0-4.9,4.8v61.9a4.9,4.9,0,0,0,4.9,4.9h72.4a4.9,4.9,0,0,0,4.8-4.9V147.4a4.9,4.9,0,0,0-4.8-4.8Z" style="fill:#924f28"/><circle cx="543.7" cy="178.4" r="21.9" style="fill:#59433b"/><rect x="577.5" y="145.7" width="4.6" height="66.19" rx="0.4" style="fill:#f4e2d5"/></g><g id="fu_hanging"><rect x="363.3" y="178.8" width="0.8" height="224.71" style="fill:#152933"/><rect x="362.3" y="177.8" width="2.8" height="226.71" style="fill:#152933"/><rect x="334.4" y="178.4" width="0.8" height="308.58" style="fill:#152933"/><rect x="333.4" y="177.4" width="2.8" height="310.58" style="fill:#152933"/><circle cx="363.8" cy="416.2" r="15.5" style="fill:#ff966c"/><path d="M363.8,433.3a17.1,17.1,0,1,1,0-34.1,17.1,17.1,0,0,1,0,34.1Zm0-31.1a14.1,14.1,0,1,0,14,14A14.1,14.1,0,0,0,363.8,402.2Z" style="fill:#be4023"/><circle cx="363.8" cy="368.6" r="12.4" style="fill:#ff966c"/><path d="M363.8,382.5a13.9,13.9,0,1,1,13.8-13.9A13.9,13.9,0,0,1,363.8,382.5Zm0-24.8a10.9,10.9,0,1,0,10.8,10.9A10.9,10.9,0,0,0,363.8,357.7Z" style="fill:#be4023"/><path d="M348.3,490.3a14.6,14.6,0,0,1-5-1.5c-2.4-1-5.4-2.3-8.5-2.3s-6,1.3-8.5,2.3a13.5,13.5,0,0,1-4.9,1.5c-2.4,0-3.6-1.8-3.6-5.3s1.2-5.3,3.6-5.3a13.5,13.5,0,0,1,4.9,1.5c2.5,1,5.5,2.3,8.5,2.3s6.1-1.3,8.5-2.3a14.6,14.6,0,0,1,5-1.5c2.4,0,3.6,1.7,3.6,5.3S350.7,490.3,348.3,490.3Z" style="fill:#e2a4ef"/><path d="M348.3,481.2c1.3,0,2.1.9,2.1,3.8s-.8,3.8-2.1,3.8-7.7-3.8-13.5-3.8-10.7,3.8-13.4,3.8-2.1-1-2.1-3.8.8-3.8,2.1-3.8,7.7,3.8,13.4,3.8,10.8-3.8,13.5-3.8m0-3h0a14.5,14.5,0,0,0-5.6,1.6c-2.4,1-5.1,2.2-7.9,2.2s-5.5-1.2-7.9-2.2a14.1,14.1,0,0,0-5.5-1.6c-1.5,0-5.1.6-5.1,6.8s3.6,6.8,5.1,6.8,3.5-.8,5.5-1.6a19.9,19.9,0,0,1,7.9-2.2,19.4,19.4,0,0,1,7.9,2.2c2.1.8,3.8,1.6,5.6,1.6s5.1-.7,5.1-6.8-3.6-6.8-5.1-6.8Z" style="fill:#b667c9"/><path d="M348.3,480.3a14.6,14.6,0,0,1-5-1.5,21,21,0,0,0-8.5-2.3c-3,0-6,1.2-8.5,2.3a13.5,13.5,0,0,1-4.9,1.5c-2.4,0-3.6-1.8-3.6-5.3s1.2-5.4,3.6-5.4a13.5,13.5,0,0,1,4.9,1.5c2.5,1.1,5.5,2.4,8.5,2.4s6.1-1.3,8.5-2.4a14.6,14.6,0,0,1,5-1.5q3.6,0,3.6,5.4C351.9,478.5,350.7,480.3,348.3,480.3Z" style="fill:#e2a4ef"/><path d="M348.3,471.1c1.3,0,2.1,1,2.1,3.9s-.8,3.8-2.1,3.8-7.7-3.8-13.5-3.8-10.7,3.8-13.4,3.8-2.1-1-2.1-3.8.8-3.9,2.1-3.9,7.7,3.9,13.4,3.9,10.8-3.9,13.5-3.9m0-3h0c-1.8,0-3.5.8-5.6,1.7s-5.1,2.2-7.9,2.2-5.5-1.2-7.9-2.2a14.4,14.4,0,0,0-5.5-1.7c-1.5,0-5.1.7-5.1,6.9s3.6,6.8,5.1,6.8,3.5-.8,5.5-1.6a19.9,19.9,0,0,1,7.9-2.2,19.4,19.4,0,0,1,7.9,2.2c2.1.8,3.8,1.6,5.6,1.6s5.1-.7,5.1-6.8-3.6-6.9-5.1-6.9Z" style="fill:#b667c9"/><path d="M348.3,470.3a14.6,14.6,0,0,1-5-1.5c-2.4-1.1-5.4-2.4-8.5-2.4s-6,1.3-8.5,2.4a13.5,13.5,0,0,1-4.9,1.5q-3.6,0-3.6-5.4c0-3.5,1.2-5.3,3.6-5.3a13.5,13.5,0,0,1,4.9,1.5c2.5,1.1,5.5,2.3,8.5,2.3a21,21,0,0,0,8.5-2.3,14.6,14.6,0,0,1,5-1.5c2.4,0,3.6,1.8,3.6,5.3S350.7,470.3,348.3,470.3Z" style="fill:#e2a4ef"/><path d="M348.3,461.1c1.3,0,2.1,1,2.1,3.8s-.8,3.9-2.1,3.9-7.7-3.9-13.5-3.9-10.7,3.9-13.4,3.9-2.1-1-2.1-3.9.8-3.8,2.1-3.8,7.7,3.8,13.4,3.8,10.8-3.8,13.5-3.8m0-3h0c-1.8,0-3.5.8-5.6,1.7s-5.1,2.1-7.9,2.1-5.5-1.1-7.9-2.1a14.4,14.4,0,0,0-5.5-1.7c-1.5,0-5.1.7-5.1,6.8s3.6,6.9,5.1,6.9a14.4,14.4,0,0,0,5.5-1.7c2.4-1,5.2-2.2,7.9-2.2s5.5,1.2,7.9,2.2,3.8,1.7,5.6,1.7,5.1-.7,5.1-6.9-3.6-6.8-5.1-6.8Z" style="fill:#b667c9"/><path d="M348.3,460.2a12.6,12.6,0,0,1-5-1.5c-2.4-1-5.4-2.3-8.5-2.3s-6,1.3-8.5,2.3a11.8,11.8,0,0,1-4.9,1.5c-2.4,0-3.6-1.7-3.6-5.3s1.2-5.3,3.6-5.3a13.5,13.5,0,0,1,4.9,1.5c2.5,1.1,5.5,2.3,8.5,2.3a21,21,0,0,0,8.5-2.3,14.6,14.6,0,0,1,5-1.5c2.4,0,3.6,1.8,3.6,5.3S350.7,460.2,348.3,460.2Z" style="fill:#e2a4ef"/><path d="M348.3,451.1c1.3,0,2.1,1,2.1,3.8s-.8,3.8-2.1,3.8-7.7-3.8-13.5-3.8-10.7,3.8-13.4,3.8-2.1-.9-2.1-3.8.8-3.8,2.1-3.8,7.7,3.8,13.4,3.8,10.8-3.8,13.5-3.8m0-3h0c-1.8,0-3.5.8-5.6,1.6a19.4,19.4,0,0,1-7.9,2.2,19.9,19.9,0,0,1-7.9-2.2c-2-.8-3.8-1.6-5.5-1.6s-5.1.7-5.1,6.8,3.6,6.8,5.1,6.8a14.1,14.1,0,0,0,5.5-1.6c2.4-1,5.2-2.2,7.9-2.2s5.5,1.2,7.9,2.2a14.5,14.5,0,0,0,5.6,1.6c1.5,0,5.1-.6,5.1-6.8s-3.6-6.8-5.1-6.8Z" style="fill:#b667c9"/><path d="M348.3,450.2a14.6,14.6,0,0,1-5-1.5c-2.4-1-5.4-2.3-8.5-2.3s-6,1.3-8.5,2.3a13.5,13.5,0,0,1-4.9,1.5c-2.4,0-3.6-1.8-3.6-5.3s1.2-5.3,3.6-5.3a13.5,13.5,0,0,1,4.9,1.5c2.5,1,5.5,2.3,8.5,2.3s6.1-1.3,8.5-2.3a14.6,14.6,0,0,1,5-1.5c2.4,0,3.6,1.8,3.6,5.3S350.7,450.2,348.3,450.2Z" style="fill:#e2a4ef"/><path d="M348.3,441.1c1.3,0,2.1,1,2.1,3.8s-.8,3.8-2.1,3.8-7.7-3.8-13.5-3.8-10.7,3.8-13.4,3.8-2.1-.9-2.1-3.8.8-3.8,2.1-3.8,7.7,3.8,13.4,3.8,10.8-3.8,13.5-3.8m0-3h0c-1.8,0-3.5.8-5.6,1.6a19.4,19.4,0,0,1-7.9,2.2,19.9,19.9,0,0,1-7.9-2.2c-2-.8-3.8-1.6-5.5-1.6s-5.1.7-5.1,6.8,3.6,6.8,5.1,6.8a14.1,14.1,0,0,0,5.5-1.6c2.4-1,5.2-2.2,7.9-2.2s5.5,1.2,7.9,2.2a14.5,14.5,0,0,0,5.6,1.6c1.5,0,5.1-.6,5.1-6.8s-3.6-6.8-5.1-6.8Z" style="fill:#b667c9"/><path d="M348.3,440.2a14.6,14.6,0,0,1-5-1.5c-2.4-1-5.4-2.3-8.5-2.3s-6,1.3-8.5,2.3a13.5,13.5,0,0,1-4.9,1.5c-2.4,0-3.6-1.8-3.6-5.3s1.2-5.3,3.6-5.3a13.5,13.5,0,0,1,4.9,1.5c2.5,1,5.5,2.3,8.5,2.3s6.1-1.3,8.5-2.3a14.6,14.6,0,0,1,5-1.5c2.4,0,3.6,1.8,3.6,5.3S350.7,440.2,348.3,440.2Z" style="fill:#e2a4ef"/><path d="M348.3,431.1c1.3,0,2.1.9,2.1,3.8s-.8,3.8-2.1,3.8-7.7-3.8-13.5-3.8-10.7,3.8-13.4,3.8-2.1-.9-2.1-3.8.8-3.8,2.1-3.8,7.7,3.8,13.4,3.8,10.8-3.8,13.5-3.8m0-3h0a14.5,14.5,0,0,0-5.6,1.6c-2.4,1-5.1,2.2-7.9,2.2s-5.5-1.2-7.9-2.2a14.1,14.1,0,0,0-5.5-1.6c-1.5,0-5.1.7-5.1,6.8s3.6,6.8,5.1,6.8a14.1,14.1,0,0,0,5.5-1.6c2.4-1,5.2-2.2,7.9-2.2s5.5,1.2,7.9,2.2a14.5,14.5,0,0,0,5.6,1.6c1.5,0,5.1-.6,5.1-6.8s-3.6-6.8-5.1-6.8Z" style="fill:#b667c9"/><path d="M334.8,512.2c-4.9,0-7.9-1-9.3-3.2s-.2-7.8,2.4-13.7,5.4-12.8,5.4-20.3h3c0,7.5,3.1,14.5,5.5,20.3s4.5,10.5,2.4,13.7S339.8,512.2,334.8,512.2Z" style="fill:#e2a4ef"/><path d="M334.8,475c0,19.7,19.8,35.7,0,35.7s0-16,0-35.7m3,0h-6c0,7.1-2.9,14.1-5.3,19.7s-4.8,11.3-2.3,15.2,7.2,3.8,10.6,3.8,8.4-.4,10.7-3.8.4-8.9-2.3-15.2-5.4-12.6-5.4-19.7Z" style="fill:#b667c9"/><rect x="306" y="179.6" width="0.8" height="124.42" style="fill:#152933"/><rect x="305" y="178.6" width="2.8" height="126.42" style="fill:#152933"/><path d="M306.5,308.8a7.6,7.6,0,1,1,7.6-7.5A7.6,7.6,0,0,1,306.5,308.8Z" style="fill:#e2a4ef"/><path d="M306.5,295.2a6.1,6.1,0,1,1,0,12.1,6.1,6.1,0,1,1,0-12.1m0-3a9.1,9.1,0,1,0,9.1,9.1,9.1,9.1,0,0,0-9.1-9.1Z" style="fill:#b667c9"/><path d="M306.5,289a7.6,7.6,0,1,1,7.6-7.6A7.6,7.6,0,0,1,306.5,289Z" style="fill:#e2a4ef"/><path d="M306.5,275.4a6.1,6.1,0,1,1-6.1,6,6,6,0,0,1,6.1-6m0-3a9.1,9.1,0,1,0,9.1,9,9,9,0,0,0-9.1-9Z" style="fill:#b667c9"/><circle cx="306.5" cy="261.6" r="7.6" style="fill:#e2a4ef"/><path d="M306.5,255.6a6.1,6.1,0,1,1-6.1,6,6,6,0,0,1,6.1-6m0-3a9.1,9.1,0,1,0,9.1,9,9,9,0,0,0-9.1-9Z" style="fill:#b667c9"/><path d="M306.5,249.4a7.6,7.6,0,1,1,7.6-7.6A7.6,7.6,0,0,1,306.5,249.4Z" style="fill:#e2a4ef"/><path d="M306.5,235.8a6.1,6.1,0,1,1-6.1,6,6,6,0,0,1,6.1-6m0-3a9.1,9.1,0,1,0,9.1,9,9,9,0,0,0-9.1-9Z" style="fill:#b667c9"/></g></g></g></g></g></svg>