<svg xmlns="http://www.w3.org/2000/svg" viewBox="0 0 103.5 711.2"><g id="Layer_2" data-name="Layer 2"><g id="Layer_1-2" data-name="Layer 1"><g id="Props"><g id="fu_separator_right" data-name="fu_separator right"><path d="M66.7,708,1.5,614.1V1.5H72.9V709.2l-5-1.3C67.9,708.2,66.9,708.2,66.7,708Z" style="fill:#a4bceb"/><path d="M74.4,711.2l-6.3-1.7a2.6,2.6,0,0,1-2.6-.6h-.1L0,614.6V0H74.4Zm-7.2-5,4.2,1.1V3H3V613.7Z" style="fill:#5576b1"/><path d="M74.4,664.2l-6.5-1.6c-1,0-1.4-.7-2.1-1.9l-.4-.5,1-.7-1,.6L0,572.8V2.6H74.4Zm-5.6-4.3,2.6.7V5.4H3V571.9l64.9,86.6.5.8Zm-2.2-.5Z" style="fill:#5576b1"/><rect x="70.6" y="1.5" width="28.7" height="708.08" rx="1" transform="translate(169.9 711.1) rotate(-180)" style="fill:#d6eaff"/><path d="M98.2,711.1H71.6a2.6,2.6,0,0,1-2.5-2.6V2.5A2.5,2.5,0,0,1,71.6,0H98.2a2.6,2.6,0,0,1,2.6,2.5v706A2.6,2.6,0,0,1,98.2,711.1Zm-26.1-3H97.8V3H72.1Z" style="fill:#5576b1"/><rect x="67.9" y="674.7" width="34.1" height="34.85" style="fill:#a4bceb"/><path d="M103.5,711.1H66.4V673.2h37.1Zm-34.1-3h31.1V676.2H69.4Z" style="fill:#5576b1"/><path d="M71.9,660.7H98a4,4,0,0,1,4,4v10a0,0,0,0,1,0,0H67.9a0,0,0,0,1,0,0v-10A4,4,0,0,1,71.9,660.7Z" style="fill:#a4bceb"/><path d="M103.5,676.2H66.4V664.7a5.5,5.5,0,0,1,5.5-5.5H98a5.5,5.5,0,0,1,5.5,5.5Zm-34.1-3h31.1v-8.5a2.5,2.5,0,0,0-2.5-2.5H71.9a2.5,2.5,0,0,0-2.5,2.5Z" style="fill:#5576b1"/></g></g></g></g></svg>