<svg xmlns="http://www.w3.org/2000/svg" viewBox="0 0 226.5 278.7"><g id="Layer_2" data-name="Layer 2"><g id="Layer_1-2" data-name="Layer 1"><g id="Props"><g id="fu_bird_house" data-name="fu_bird house"><path d="M71.7,130c-7.2,0-13.1-2.4-13.1-5.3s5.9-5.3,13.1-5.3,13.2,2.4,13.2,5.3S79,130,71.7,130Zm0-8.6c-4.5,0-8.1,1.5-8.1,3.3s3.6,3.3,8.1,3.3,8.2-1.5,8.2-3.3S76.3,121.4,71.7,121.4Z" style="fill:#ffce61"/><path d="M71.7,120c6.5,0,11.7,2.1,11.7,4.7s-5.2,4.7-11.7,4.7-11.6-2.1-11.6-4.7,5.2-4.7,11.6-4.7m0,8.6c5.4,0,9.7-1.8,9.7-3.9s-4.3-3.9-9.7-3.9-9.6,1.7-9.6,3.9,4.3,3.9,9.6,3.9m0-9.8c-8.1,0-14.6,2.6-14.6,5.9s6.5,5.9,14.6,5.9,14.7-2.7,14.7-5.9-6.5-5.9-14.7-5.9Zm0,8.6c-3.6,0-6.6-1.2-6.6-2.7s3-2.7,6.6-2.7,6.7,1.2,6.7,2.7-3,2.7-6.7,2.7Z" style="fill:#d38d2f"/><rect x="70.7" y="0.4" width="2" height="120.26"/><rect x="69.7" width="4" height="121.06"/><path d="M223.1,277.2H36.9a2,2,0,0,1-1.8-1.2h0a2,2,0,0,1,1.8-2.6H223.1a1.9,1.9,0,0,1,1.9,2.2h0A2,2,0,0,1,223.1,277.2Z" style="fill:#af7553"/><path d="M223.1,278.7H36.9a3.5,3.5,0,0,1-3.2-2.2,3.6,3.6,0,0,1,.4-3.2,3.5,3.5,0,0,1,2.8-1.4H223.1a3.4,3.4,0,0,1,2.6,1.2,3.6,3.6,0,0,1,.8,2.7A3.4,3.4,0,0,1,223.1,278.7ZM36.9,274.9c-.1,0-.3.1-.3.2s-.1.2-.1.4l.4.2H223.1c.2,0,.4-.1.4-.3s0-.3-.1-.4H36.9Z" style="fill:#924f28"/><path d="M35.1,271.9a1.5,1.5,0,0,1-1.4-1l-22.8-61a1.7,1.7,0,0,1,.2-1.4l59.7-79.9A1.6,1.6,0,0,1,72,128a2,2,0,0,1,1.2.6l59.6,79.9a1.4,1.4,0,0,1,.2,1.4l-22.8,61a1.5,1.5,0,0,1-1.4,1Z" style="fill:#ffeb81"/><path d="M72,129.5l59.6,79.9-22.8,61H35.1l-22.8-61L72,129.5m0-3a3,3,0,0,0-2.4,1.2L9.9,207.6a3.1,3.1,0,0,0-.4,2.8l22.8,61a3,3,0,0,0,2.8,2h73.7a2.9,2.9,0,0,0,2.8-2l22.8-61a3.1,3.1,0,0,0-.4-2.8L74.4,127.7a3.3,3.3,0,0,0-2.4-1.2Z" style="fill:#ffaa5a"/><path d="M11.5,218.1l56.2-75.2a5,5,0,0,1,8,0l56.5,75.7a5,5,0,0,0,6.7,1.2l1-.7a5,5,0,0,0,1.4-7.2L75.7,124a5,5,0,0,0-8,0L2.5,211.3a5,5,0,0,0,1.1,7.1l1,.7A4.9,4.9,0,0,0,11.5,218.1Z" style="fill:#6ab3b9"/><path d="M136.2,222.1a6.4,6.4,0,0,1-5.2-2.6L74.5,143.8a3.5,3.5,0,0,0-2.8-1.4h0a3.5,3.5,0,0,0-2.8,1.4L12.7,219a6.5,6.5,0,0,1-9,1.3l-1-.7a6.1,6.1,0,0,1-2.6-4.3,6.3,6.3,0,0,1,1.2-4.9l65.2-87.3a6.6,6.6,0,0,1,5.2-2.6h0a6.5,6.5,0,0,1,5.2,2.6L142.5,211a6.7,6.7,0,0,1-1.7,9.4l-1.1.7A6.4,6.4,0,0,1,136.2,222.1ZM71.7,139.4h0a6.2,6.2,0,0,1,5.2,2.6l56.5,75.7a3.5,3.5,0,0,0,4.7.8l1-.6a3.6,3.6,0,0,0,1.6-2.4,3.7,3.7,0,0,0-.6-2.7L74.5,124.9a3.4,3.4,0,0,0-2.8-1.4h0a3.5,3.5,0,0,0-2.8,1.4L3.7,212.2a3.7,3.7,0,0,0-.7,2.7,3.9,3.9,0,0,0,1.5,2.3l1,.7a3.5,3.5,0,0,0,4.8-.7L66.5,142A6.2,6.2,0,0,1,71.7,139.4Z" style="fill:#28575c"/><path d="M93.8,214.8A21.9,21.9,0,1,0,72,236.7,21.9,21.9,0,0,0,93.8,214.8Z" style="fill:#756557"/><path d="M72.1,165l-.3.3-.3-.3a7.3,7.3,0,0,0-6.2-2.2,6.2,6.2,0,0,0-4.4,3.1,6.7,6.7,0,0,0-.7,3.1,8.8,8.8,0,0,0,1.9,5.2,31.5,31.5,0,0,0,9.9,8.5c4.1-2.4,8.3-5.2,10.2-8a10.3,10.3,0,0,0,2-5.3,8,8,0,0,0-.7-3.4,7.5,7.5,0,0,0-5-3.5A8,8,0,0,0,72.1,165Z" style="fill:#fff"/><path d="M72,184.5l-.7-.5c-4.4-2.5-8.5-6-10.5-8.9a10.9,10.9,0,0,1-2.1-6.1,8.5,8.5,0,0,1,.9-3.8,7.8,7.8,0,0,1,5.4-3.9,8.4,8.4,0,0,1,6.8,2,9.2,9.2,0,0,1,7-2.3,8.8,8.8,0,0,1,6,4.3,8.6,8.6,0,0,1,.9,4,12.5,12.5,0,0,1-2.2,6.3c-2.1,3-6.6,6-10.7,8.4Zm-5.6-20.3h-.9a4.3,4.3,0,0,0-3.2,2.3,5,5,0,0,0-.6,2.4,8.5,8.5,0,0,0,1.6,4.4c1.6,2.4,5.1,5.4,8.7,7.6,3.5-2.1,7.4-4.7,9-7.1a9.1,9.1,0,0,0,1.7-4.5,5.1,5.1,0,0,0-.6-2.7,5.6,5.6,0,0,0-3.8-2.7,6.5,6.5,0,0,0-5.2,2.1l-1.3,1.3-1.3-1.3A6.2,6.2,0,0,0,66.4,164.2Z" style="fill:#ee9cf5"/></g></g></g></g></svg>