<svg xmlns="http://www.w3.org/2000/svg" viewBox="0 0 172.9 249.4"><g style="isolation:isolate"><g id="Layer_2" data-name="Layer 2"><g id="Layer_1-2" data-name="Layer 1"><g id="Props"><g id="fu_lamp_1" data-name="fu_lamp 1"><path d="M88.5,0H88c-1.1,0-1.9.3-1.9.7v151h0V155h4.1V.7C90.2.4,89.5.1,88.5,0Z" style="fill:#152933"/><path d="M32,130.2c0-6.9,24.4-12.6,54.4-12.6s54.5,5.7,54.5,12.6S116.5,145,86.4,145,32,137.1,32,130.2Z" style="fill:#573e39"/><path d="M86.4,145c30.1,0,54.5-7.9,54.5-14.8,0-1.9-1.9-3.8-5.2-5.4-1.2,1.4-2.7,1.5-4.5.9-5.2-1.8-32-7.5-59.8-5-.7.1-1.8-1.5-1.6-2.5-21.9,1.7-37.8,6.4-37.8,12S56.4,145,86.4,145Z" style="fill:#54281e"/><path d="M96.1,170.6l-5.2-1.1-4-.3c-4.4-.1-9.8.2-13.2,3.3-1.1,3.9-1.8,9.7-1.8,18.2-.1,22.5,6.5,26.6,14.5,26.6s14.6-4,14.6-26.6c0-8.4-.7-14.1-1.8-18A8.5,8.5,0,0,0,96.1,170.6Z" style="fill:#ffd059"/><path d="M96.1,170.6l-5.2-1.1-4-.3c-4.4-.1-9.8.2-13.2,3.3-1.1,3.9-1.8,9.7-1.8,18.2-.1,20.4,5.3,25.6,12.3,26.4-1.8-2.3-1.9-5.4-1.9-8.6-.1-7-1.9-14.8.9-21.5a9.4,9.4,0,0,1,2.7-3.8,12.6,12.6,0,0,1,5.9-2c2.8-.5,5.8-1.1,8.7-1.4a45.7,45.7,0,0,0-1.3-7.1A8.5,8.5,0,0,0,96.1,170.6Z" style="fill:#edb749"/><path d="M73.8,172.7h0C74,172.9,73.9,172.9,73.8,172.7Z" style="fill:#70372d"/><path d="M64.6,146.5a6.9,6.9,0,0,1,5.6,4.4c3.2,7.9,2.8,16.9,2.8,16.9v4l.8.9c0-.4,6.9-2.1,12.4-2.1s12.7,2.2,12.7,2.2l.2-.4a13.7,13.7,0,0,0,.3-3.7s-.3-10.2,3.8-18.4a6.9,6.9,0,0,1,5.3-3.9c14.4-1.9,24.2-5.6,24.2-9.8,0-6.2-20.8-11.2-46.5-11.2s-46.5,5-46.5,11.2C39.7,140.9,49.8,144.6,64.6,146.5Z" style="fill:#844d42"/><path d="M64.6,146.5a6.9,6.9,0,0,1,5.6,4.4c3.2,7.9,2.8,16.9,2.8,16.9v4l.8.9c0-.4,6.9-2.1,12.4-2.1a13.8,13.8,0,0,1-2.7-1.4,6.2,6.2,0,0,1-2.4-2.9,15.5,15.5,0,0,1-.7-4.8,40.2,40.2,0,0,0-.6-6.9,27.9,27.9,0,0,0-5.6-13.5,10.1,10.1,0,0,1-2.6-7.4c.7-5.6,6.6-7.7,12.7-8.3-24.8.2-44.6,5.1-44.6,11.2C39.7,140.9,49.8,144.6,64.6,146.5Z" style="fill:#753f34"/><g style="opacity:0.7000000000000001"><path d="M1.5,185c0-2,0-4.2.2-6.5s.1-2,.2-3a84.6,84.6,0,0,1,2.7-16.1,39.3,39.3,0,0,1,1.9-5.8h0c2.6-6.9,6.6-13.1,12.5-17.5l1.9-1.3.4-.3c3.7-3,9.9-5.6,17.9-7.7l2.5-.6a118.4,118.4,0,0,1,13.6-2.5l3.4-.5c4.2-.5,8.7-.9,13.3-1.1h3.1l10.3-.2h8.1c4,.1,7.8.4,11.6.7l3.1.3c5,.5,9.7,1.1,14.1,1.9l2.6.5c10.2,2.1,18.3,4.9,23.2,8.2l.6.5.5.3,1.2.8a42,42,0,0,1,13.5,15.6,37.3,37.3,0,0,1,1.6,3.5c3.9,8.9,5.4,18.8,5.8,27.1.1,2.1.1,4,.1,5.8v.9a3.4,3.4,0,0,0-.1,1c0,1-.1,1.9-.1,2.9a71.8,71.8,0,0,1-5.8,22.6,3,3,0,0,1-.4,1l-.7,1.5c-3.3,6.8-7.6,12.7-12.8,16.8l-2.3,1.7-.6.4c-4.4,3.1-11.6,5.8-20.7,7.9l-4.1.8a180,180,0,0,1-25.1,3l-6.7.3H85.4A209.9,209.9,0,0,1,57,246.1c-3.3-.4-6.6-.9-9.6-1.5a104.6,104.6,0,0,1-17.2-4.7L27,238.5a27.6,27.6,0,0,1-6.2-3.9,31.3,31.3,0,0,1-8.2-8.4L11.1,224a64.6,64.6,0,0,1-7.2-18.1.7.7,0,0,1-.1-.5,16,16,0,0,1-.5-2.1c-.4-2-.8-4-1-5.9a77.7,77.7,0,0,1-.8-9.5Z" style="fill:#ff9e3d"/></g><path d="M3.8,205.4a.7.7,0,0,0,.1.5H4l2.5-1.1a153.9,153.9,0,0,0,13.8-7.5l2.1-1.3c5.3-3.3,10.5-6.8,15.5-10.2l1-.8,2.1-1.4a180.2,180.2,0,0,0,19.6-16.3l2.2-2.1a143.1,143.1,0,0,0,18.5-22.4l.9-1.2,1.6-2.5c3.5-5.6,6.7-11.4,9.7-17.3H90.6c-2.6,5-5.3,10-8.3,14.7L80.7,139a135.7,135.7,0,0,1-17.6,22.4l-1.8,1.8-2.1,2.1a191.6,191.6,0,0,1-19.6,16.2l-2.1,1.4c-5.4,3.8-11,7.4-16.6,10.8l-2.1,1.2-3.6,2.2c-3.3,1.9-6.7,3.7-10.2,5.3l-1.7.9Z" style="fill:#cc783f"/><path d="M1.7,178.5c0-1,.1-2,.2-3l3.2-2A29,29,0,0,1,8,171.6l2.2-1.6A184.2,184.2,0,0,0,25,158.4l2.1-1.9a181.9,181.9,0,0,0,17.1-18l1.7-2.1c3.3-4.1,6.4-8.4,9.4-12.7l3.4-.5c-1.2,1.9-2.5,3.8-3.8,5.6q-3.7,5.3-7.8,10.2a16.3,16.3,0,0,1-1.7,2A186,186,0,0,1,28,159.1l-2,1.8a185.8,185.8,0,0,1-14.9,11.6L8.9,174Z" style="fill:#cc783f"/><path d="M100.8,238l5.1-1.4,3.6-1.2a112.3,112.3,0,0,0,16.4-7l2.8-1.5.5-.3,2.6-1.5,1.2-.8a107.1,107.1,0,0,0,18.3-14.5c.6-.7,1.3-1.3,2-2a95.8,95.8,0,0,0,13.8-18.5l1.2-2.2a65.4,65.4,0,0,0,3-5.9c.1,2.1.1,4,.1,5.8l-.8,1.5-1.2,2.2a96.2,96.2,0,0,1-13.8,18.4l-2,2.1a114.2,114.2,0,0,1-17.1,13.9l-2.1,1.3-2.1,1.3-.4.2a111,111,0,0,1-19.1,9l-3.5,1.3-7.8,2.3A1.3,1.3,0,0,1,100.8,238Z" style="fill:#cc783f"/><path d="M80.2,231.8l9.3-3.5,3.1-1.2,6.8-3,6.2-3,3.2-1.7,4-2.3a22.6,22.6,0,0,0,2.6-1.6,116.1,116.1,0,0,0,20.5-15.7l1.8-1.8a104.4,104.4,0,0,0,9.7-11.4,78.5,78.5,0,0,0,4.9-7.8l1.2-2.2a124,124,0,0,0,5.8-12.9,119.5,119.5,0,0,0,4.6-13.1,37.3,37.3,0,0,1,1.6,3.5c-1.3,4.2-2.9,8.4-4.5,12.5a123,123,0,0,1-5.5,11.6l-1.3,2.2a101.7,101.7,0,0,1-14.3,19l-1.8,1.8c-2.5,2.5-5.1,4.8-7.9,7.1a120.7,120.7,0,0,1-12.4,8.8l-2.6,1.6-4.7,2.7-5.7,3c-3.1,1.5-6.1,2.9-9.3,4.2l-3.1,1.3c-3.8,1.6-7.6,3-11.5,4.3C79.3,234.8,78.6,232.3,80.2,231.8Z" style="fill:#cc783f"/><path d="M27,238.5l4-1.7,1.8-.8,2.3-1,.4-.2,15.7-7.1,2.6-1.2,2.9-1.3,8.6-4,7-3.3,2.7-1.3,2.8-1.4a197.9,197.9,0,0,0,17.8-10.5l2.6-1.8a132.6,132.6,0,0,0,20-16.6l1.8-1.8a113.6,113.6,0,0,0,7.7-9.2,112,112,0,0,0,7.8-11.6l1.3-2.3a121.7,121.7,0,0,0,11.3-28l.6.5.5.3,1.2.8a120.1,120.1,0,0,1-6.6,18.2,95.5,95.5,0,0,1-5.1,10.1l-1.3,2.3a124,124,0,0,1-15.5,20.5l-1.7,1.8a123.1,123.1,0,0,1-15.3,13.5l-4.6,3.2-2.7,1.8c-5.9,3.7-13,7.6-20.6,11.5l-2.6,1.4-3.2,1.6-7.6,3.7-7.3,3.5-2.6,1.2-15.2,7-.5.2-2.7,1.2-.9.4-4.2,1.8Z" style="fill:#cc783f"/><path d="M11.1,224l5.6-1.8,2.7-.9c5.2-1.9,10.2-3.9,15.2-6.2h.3l2.5-1.2a170.1,170.1,0,0,0,17.8-9.7l2.2-1.4a171.9,171.9,0,0,0,19.9-14.9l2.4-2.1a164,164,0,0,0,18.6-19.6L100,164a159.6,159.6,0,0,0,15.7-24.5l1.3-2.6c1.9-4,3.7-8,5.3-12.2l2.6.5a147,147,0,0,1-6.2,14.1c-.5.9-.9,1.8-1.4,2.6-2.4,4.6-5,9.1-7.8,13.4s-5.1,7.3-7.8,10.8l-1.6,2a171.5,171.5,0,0,1-18.6,19.5l-2.4,2.1a176.9,176.9,0,0,1-19.7,14.7l-2.3,1.5a189.2,189.2,0,0,1-17.7,9.7l-2.5,1.2c-5.1,2.4-10.3,4.5-15.5,6.4l-2.7,1-6.1,2Z" style="fill:#cc783f"/><path d="M2.3,197.4c.8,1.7,1.8,3.4,2.7,5l1.5,2.4a101.9,101.9,0,0,0,12.9,16.5l2,1.9q3,3,6.3,5.7l4.3,3.4c1.1.9,2.3,1.7,3.5,2.5l1.3.9,1.2.8c2.6,1.6,5.3,3.2,8.1,4.6h.2A93.1,93.1,0,0,0,57,246.1c-3.3-.4-6.6-.9-9.6-1.5a103.1,103.1,0,0,1-9.8-5.5l-2.3-1.4L32.8,236c-2.4-1.7-4.7-3.4-6.9-5.3a88,88,0,0,1-7.2-6.5,18.9,18.9,0,0,1-2-2A100.4,100.4,0,0,1,4,205.9c-.1-.2-.2-.3-.2-.5a16,16,0,0,1-.5-2.1C2.9,201.3,2.5,199.3,2.3,197.4Z" style="fill:#cc783f"/><path d="M4.6,159.4l1.9-5.8h0c.2,5.6,1.8,11.1,3.7,16.4l.9,2.5,1.5,3.9a110,110,0,0,0,8.3,17.3,18.2,18.2,0,0,0,1.5,2.3l2.1,3.3a104.5,104.5,0,0,0,12.9,14.5l2,1.8a110.2,110.2,0,0,0,9.2,7.4l3.9,2.7,1.3.8,2.5,1.6c2.2,1.4,4.5,2.7,6.8,4,5.2,2.8,13,6.4,20.7,9.6,2.5,1.1,5.1,2.1,7.5,3l7.4,2.8-6.7.3-7.5-3-7.4-3.3a206.4,206.4,0,0,1-23.4-12.2l-2.5-1.6-2.4-1.6-3.7-2.5L41.7,221l-4.8-4.2-2-1.8a107.4,107.4,0,0,1-14.6-17.7l-1.5-2.4A103.2,103.2,0,0,1,11,179.3L8.9,174,8,171.6A67.2,67.2,0,0,1,4.6,159.4Z" style="fill:#cc783f"/><path d="M19,136.1l1.9-1.3.4-.3a118.8,118.8,0,0,0,5.8,22l.9,2.6a122,122,0,0,0,11.6,22.4l1.4,2.1c1,1.5,2.1,2.9,3.2,4.4a115.4,115.4,0,0,0,13.2,14.7l2,1.7A142.1,142.1,0,0,0,75,216.6l2,1.3,4.2,2.7,5.6,3.3,5.8,3.2,1.5.8,1.4.7c4.6,2.4,9.3,4.6,14,6.8l3.3,1.5,6,2.7,4.8,2.1,3.9,1.7c.2,0,.3.2.4.3l-4.1.8-4.8-2-5.1-2.3-4.6-2-3.4-1.6c-4.6-2.2-9.1-4.4-13.5-6.7a26.9,26.9,0,0,1-2.9-1.6c-2.7-1.4-5.3-2.9-7.8-4.4s-3.5-2.1-5.2-3.2l-2.1-1.4-2.1-1.4L67,214.1a113.4,113.4,0,0,1-9.9-8.2l-1.9-1.8A123.7,123.7,0,0,1,38.9,185l-1.4-2.1a111.9,111.9,0,0,1-9.4-17,53.2,53.2,0,0,1-2.1-5l-1-2.5A122.4,122.4,0,0,1,19,136.1Z" style="fill:#cc783f"/><path d="M39.2,126.8l2.5-.6q1.9,5.1,4.2,10.2l1.2,2.6a186.4,186.4,0,0,0,14.2,24.2l1.5,2a191.4,191.4,0,0,0,16.9,20.5l1.8,1.9a219.3,219.3,0,0,0,16.7,15.3l2.1,1.7c4.9,3.9,9.9,7.5,15.1,10.9l2.4,1.6c3.6,2.2,7.3,4.4,11,6.4l3,1.6,2.6,1.3,2.9,1.4a97.5,97.5,0,0,0,10.5,4.5l3.7,1.4-2.3,1.7-3.1-1.2-5.2-2.1c-3-1.3-6.1-2.7-9-4.2l-1.4-.6-1.3-.7-7.7-4.1-6.3-3.8-2.4-1.6c-5.2-3.3-10.3-6.9-15.2-10.7l-2-1.7a210.7,210.7,0,0,1-16.5-15l-1.8-1.9a209.9,209.9,0,0,1-16.7-20.5,14.3,14.3,0,0,1-1.4-2l-.6-.9A184.2,184.2,0,0,1,45.4,141l-1.2-2.5C42.3,134.4,40.5,130.4,39.2,126.8Z" style="fill:#cc783f"/><path d="M72,122.1h3.1l.2.4c2.3,4.8,4.6,9.5,7,14.1l1.5,2.7A168.6,168.6,0,0,0,100,164l1.7,2.1c2.2,2.8,4.6,5.5,7.1,8.1s7.3,7,11.2,10.3l1.9,1.6c5.1,4.2,10.4,8.1,15.8,11.9a16.4,16.4,0,0,1,2.2,1.4c4.4,2.9,8.9,5.7,13.4,8.4l2.3,1.3,1.1.7c2.9,1.6,5.8,3.2,8.7,4.6a3,3,0,0,1-.4,1l-.7,1.5c-3.6-1.7-7.2-3.7-10.7-5.7l-2.3-1.4c-4.6-2.7-9-5.7-13.2-8.6l-2.2-1.4-1.8-1.3c-4.8-3.4-9.5-6.9-13.9-10.6l-2-1.6a155.6,155.6,0,0,1-18.1-18.2l-1.8-2c-2.7-3.4-5.3-6.9-7.7-10.5s-5.8-9.2-8.4-14L80.7,139C78.1,134.1,74.4,127.2,72,122.1Z" style="fill:#cc783f"/><path d="M105.1,122.5l3.1.3c2.7,4.8,5.7,9.5,8.8,14.1l1.7,2.4a191.6,191.6,0,0,0,18.1,22.1l1.9,1.9a169.2,169.2,0,0,0,14.8,13.3l2,1.6c3.7,2.8,7.4,5.5,11.4,8l1.4.9,2.3,1.4.7.4c0,1-.1,1.9-.1,2.9l-1.8-1.1-2.3-1.4c-4.4-2.8-8.7-5.7-12.9-8.9l-1.9-1.6a169.3,169.3,0,0,1-14.9-13.2l-1.9-1.9a189.4,189.4,0,0,1-18.2-21.8l-.3-.4-1.3-2A177.9,177.9,0,0,1,105.1,122.5Z" style="fill:#cc783f"/><path d="M25.5,231.9c0-5.9,26-11.4,60.9-11.4s61.6,5.1,61.6,10.9-26.6,13.4-61.6,13.4S25.5,237.7,25.5,231.9Z" style="fill:#6a3417"/><path d="M32,232.1c0-4.6,24.4-8.2,54.4-8.2s54.5,3.6,54.5,8.2-24.4,9.6-54.5,9.6S32,236.6,32,232.1Z" style="fill:#ffbd52"/><path d="M83,241.7c-2.2-1.2-3.3-3.2-3.7-6.3s.4-10.3.5-11.5c-26.9.5-47.8,4-47.8,8.2S54.5,241.3,83,241.7Z" style="fill:#f5a845"/><g style="opacity:0.36;mix-blend-mode:multiply"><path d="M1.5,187.9a77.7,77.7,0,0,0,.8,9.5c.2,1.9.6,3.9,1,5.9a16,16,0,0,0,.5,2.1.7.7,0,0,0,.1.5A64.6,64.6,0,0,0,11.1,224l1.5,2.2a33.1,33.1,0,0,0,7.7,8.1,15.9,15.9,0,0,1,2.9-13.4c3.6-4.7,9.4-7.1,14.9-8.6a130.1,130.1,0,0,1,18.7-3l9.2-1.1c3.6-.4,7.3-1,10.1-3.6s4.5-7.1,5.6-11a109.3,109.3,0,0,1,3.7-11,47.1,47.1,0,0,1,14.1-18.1c11.6-9.5,26.2-12.9,41-12a83.2,83.2,0,0,1,26.8,6.3,38,38,0,0,0-1.8-4.7,37.3,37.3,0,0,0-1.6-3.5A42,42,0,0,0,150.4,135l-1.2-.8-.5-.3-.6-.5c-4.9-3.3-13-6.1-23.2-8.2l-2.6-.5c-4.4-.8-9.1-1.4-14.1-1.9l-3.1-.3c-3.8-.3-7.6-.6-11.6-.7H85.4l-10.3.2H72c-4.6.2-9.1.6-13.3,1.1l-3.4.5a118.4,118.4,0,0,0-13.6,2.5l-2.5.6c-8,2.1-14.2,4.7-17.9,7.7l-.4.3L19,136.1c-5.9,4.4-9.9,10.6-12.5,17.5h0a39.3,39.3,0,0,0-1.9,5.8,84.6,84.6,0,0,0-2.7,16.1c-.1,1-.2,2-.2,3s-.2,4.5-.2,6.5Z" style="fill:#ff9d3b"/></g><g style="opacity:0.43;mix-blend-mode:overlay"><path d="M102.3,215a5.6,5.6,0,0,0-2.9,2.3A1.8,1.8,0,0,0,101,220c7.1.3,14.3.5,21.4,1.1a106.1,106.1,0,0,1,14.8,2.4c2.6.6,14,3,12.8,6.8-.6,1.9.1,1.8,1.5,1.1s5.8-4.2,6-7-.4-2.4-2.5-3.9c-5.5-3.7-13-4.7-19.4-5.5-10.8-1.4-22.1-.9-33-.1Z" style="fill:#ffd9c4"/></g><g style="opacity:0.43;mix-blend-mode:overlay"><path d="M19.3,230a6.4,6.4,0,0,0,1.7,3.8,8.1,8.1,0,0,0,4.7,2.3c1,0,1-1.4.1-1.6-2.5-1.1-2.1-3.8-.1-5.2s3.5-1.2,4.7-2.4a.9.9,0,0,0,.1-1c-.8-1.4-3.6-.5-4.8-.1a18,18,0,0,0-5.4,2.6,1.5,1.5,0,0,0-.6.5A3.6,3.6,0,0,0,19.3,230Z" style="fill:#ffd9c4"/></g><path d="M85.4,249.4a217.3,217.3,0,0,1-28.6-1.8c-3.4-.4-6.7-.9-9.7-1.5a97.5,97.5,0,0,1-17.4-4.8l-3.3-1.4a31.8,31.8,0,0,1-6.5-4l-.5-.4-1.1-.8h-.1l-1-.9h-.1l-.9-.9h-.1l-1-1H15l-.9-1-.2-.3-.7-.8-.3-.4-.3-.3-.3-.5a9.4,9.4,0,0,1-.9-1.2l-1.6-2.3a65.7,65.7,0,0,1-7.4-18.5c0-.2-.1-.4-.1-.6l-.5-2.1c-.4-2-.7-4-1-6s-.7-6.5-.8-9.7V185c0-2.2.1-4.4.2-6.5s.1-2.1.2-3.2a12.3,12.3,0,0,1,.2-1.9A86.2,86.2,0,0,1,3.1,159c.6-2,1.2-3.9,1.9-5.7H5v-.2a42.2,42.2,0,0,1,10.7-16.4l2.3-1.8,1.9-1.3.4-.3c3.7-3,10.1-5.8,18.4-8l2.5-.6c4.2-1,8.9-1.8,13.8-2.5l3.4-.5c4.5-.5,9-.9,13.4-1.1h1.5l.2,1.5v-1.5h1.6c5.1-.2,10.5-.3,15.6-.2h2.9c4,.1,7.9.4,11.6.7l3.1.3c5.1.5,9.9,1.2,14.3,2l2.6.5c10.5,2.1,18.7,5,23.8,8.4l.6.4.4.4a5,5,0,0,1,1.2.8,42.4,42.4,0,0,1,14,16.1,39.7,39.7,0,0,1,1.7,3.6,31.1,31.1,0,0,1,1.2,3c.1.4.3.7.4,1.1v.3c.1.1.1.3.2.4l1,3.2h-.1a86.4,86.4,0,0,1,3.1,19.7h0c.1,1.9.1,3.9.1,5.8v1.1a2.8,2.8,0,0,0-.1.9c0,.9-.1,1.8-.2,2.9a70.7,70.7,0,0,1-5.8,23.1c-.1.4-.3.7-.4,1.1l-.8,1.5c-3.5,7.2-8,13.2-13.1,17.3l-2.5,1.8-.6.4c-4.5,3.1-11.8,5.9-21.1,8l-4.3.9a183.4,183.4,0,0,1-25.2,3l-6.7.3ZM21.2,233.1h.2l.3.2h.1a24.1,24.1,0,0,0,5.9,3.7l3.1,1.3a92.3,92.3,0,0,0,16.9,4.6l9.5,1.6a231,231,0,0,0,28.2,1.7H92l6.6-.3a198.3,198.3,0,0,0,24.9-2.9l4.1-.9c9-2,15.9-4.7,20.1-7.6h.1l.5-.3,2.3-1.7c4.8-3.8,9-9.4,12.3-16.2a10.1,10.1,0,0,0,.7-1.5l.5-.9a74.7,74.7,0,0,0,5.6-22.2c0-1.1.1-2,.1-2.8a2.8,2.8,0,0,1,.1-.9v-1c0-1.9,0-3.8-.1-5.7h0a82.8,82.8,0,0,0-3.9-22l-.4-1.1a2.5,2.5,0,0,0-.2-.7l-1.1-2.8c-.5-1.2-1.1-2.3-1.6-3.4a40.3,40.3,0,0,0-13.1-15.1l-1.1-.7h-.2c-.1-.2-.3-.2-.4-.3l-.5-.4c-4.7-3.2-12.6-5.9-22.7-8l-2.5-.5c-4.4-.8-9.1-1.4-14.1-1.9l-3.1-.3c-3.6-.3-7.5-.6-11.4-.7H90.6c-5-.1-10.3,0-15.5.2h-3c-4.4.3-8.9.7-13.2,1.2l-3.4.4c-4.8.7-9.4,1.6-13.5,2.5l-2.4.6c-7.9,2.1-13.9,4.7-17.4,7.5l-.5.4-1.8,1.2L17.8,139A38.4,38.4,0,0,0,8,153.9H8l-.2.3c-.6,1.8-1.3,3.7-1.8,5.6a90.8,90.8,0,0,0-2.5,13.9c0,.6-.1,1.2-.1,1.9s-.2,2-.2,3S3,182.8,3,185v2.8a74.5,74.5,0,0,0,.8,9.4c.2,1.9.6,3.9.9,5.8l.5,2.1a.9.9,0,0,1,.1.5,65.4,65.4,0,0,0,7.1,17.6,19.1,19.1,0,0,0,1.4,2.1l.9,1.2.3.4.2.4.3.3.6.7.3.4.8.8h.1l.8.9-.9,1.2,1.1-1.1a6,6,0,0,0,.8.8h.1l.9.8-.8,1.2.9-1.2,1,.7Zm-2.4,1.2h0Z" style="fill:#6a3417"/></g></g></g></g></g></svg>