<svg xmlns="http://www.w3.org/2000/svg" viewBox="0 0 278.27 203.73"><g id="Layer_2" data-name="Layer 2"><g id="Layer_1-2" data-name="Layer 1"><g id="Props"><g id="fu_kitchen_exhaust" data-name="fu_kitchen exhaust"><rect x="86.71" y="1.5" width="104.84" height="138.49" fill="#84d5d2"/><path d="M193.05,141.49H85.21V0H193.05Zm-104.84-3H190.05V3H88.21Z" fill="#7fc9c9"/><rect x="1.5" y="143.09" width="275.27" height="25.26" rx="1.5" fill="#1d6798"/><path d="M275.27,144.59v22.26H3V144.59H275.27m0-3H3a3,3,0,0,0-3,3v22.26a3,3,0,0,0,3,3H275.27a3,3,0,0,0,3-3V144.59a3,3,0,0,0-3-3Z" fill="#134160"/><rect x="86.71" y="120.87" width="104.84" height="19.12" fill="#b3eeef"/><path d="M193.05,141.49H85.21V119.37H193.05Zm-104.84-3H190.05V122.37H88.21Z" fill="#7fc9c9"/><rect x="17.68" y="177.71" width="242.91" height="9.91" rx="1.5" fill="#1d6798"/><path d="M259.09,179.21v6.9H19.18v-6.9H259.09m0-3H19.18a3,3,0,0,0-3,3v6.9a3,3,0,0,0,3,3H259.09a3,3,0,0,0,3-3v-6.9a3,3,0,0,0-3-3Z" fill="#134160"/><path d="M39.6,202.23a1.5,1.5,0,0,1-1.5-1.5V189H241.7v11.69a1.5,1.5,0,0,1-1.5,1.5Z" fill="#1d6798"/><path d="M240.2,190.54v10.19H39.6V190.54H240.2m3-3H36.6v13.19a3,3,0,0,0,3,3H240.2a3,3,0,0,0,3-3V187.54Z" fill="#134160"/><rect x="16.18" y="171.21" width="245.91" height="6.45" rx="1.69" fill="#b3eeef"/><path d="M260.4,179.16H17.87A3.19,3.19,0,0,1,14.68,176V172.9a3.19,3.19,0,0,1,3.19-3.19H260.4a3.19,3.19,0,0,1,3.19,3.19V176A3.19,3.19,0,0,1,260.4,179.16ZM17.87,172.71a.18.18,0,0,0-.19.19V176a.19.19,0,0,0,.19.19H260.4a.2.2,0,0,0,.19-.19V172.9a.19.19,0,0,0-.19-.19Z" fill="#7fc9c9"/><rect x="36.6" y="187.54" width="206.6" height="3.38" rx="1.69" fill="#b3eeef"/><path d="M241.51,192.42H38.29a3.19,3.19,0,1,1,0-6.38H241.51a3.19,3.19,0,0,1,0,6.38ZM38.29,189a.2.2,0,0,0-.19.19.19.19,0,0,0,.19.19H241.51a.18.18,0,0,0,.19-.19.19.19,0,0,0-.19-.19Z" fill="#7fc9c9"/><rect x="139.13" y="176.21" width="4.01" height="16.05" fill="#fff9db"/><rect x="146.94" y="176.21" width="4.01" height="16.05" fill="#fff9db"/><rect x="154.73" y="176.21" width="4.01" height="16.05" fill="#fff9db"/><rect x="209.3" y="176.21" width="4.01" height="16.05" fill="#fff9db"/><rect x="217.1" y="176.21" width="4.01" height="16.05" fill="#fff9db"/><rect x="224.9" y="176.21" width="4.01" height="16.05" fill="#fff9db"/></g></g></g></g></svg>