<svg xmlns="http://www.w3.org/2000/svg" viewBox="0 0 300.09 196.28"><g id="Layer_2" data-name="Layer 2"><g id="Layer_1-2" data-name="Layer 1"><g id="Props"><g id="fu_yellow_couch" data-name="fu_yellow couch"><path d="M45.67,121.11,32.58,143l-4,6.73c-7.51.45-10.3-5-10.3-5s1.53-3.06,3.64-7.31c4.58-9.25,11.91-24.14,12.24-25.56Z" fill="#a8662f"/><path d="M32.58,143l-4,6.73c-7.51.45-10.3-5-10.3-5s1.53-3.06,3.64-7.31C24.65,139.7,28.48,142.25,32.58,143Z" fill="#471c0e"/><path d="M26.15,151.14a5.86,5.86,0,0,1-1-.09A12.21,12.21,0,0,1,20,148.82a5.92,5.92,0,0,1-1.74-7.37c.62-1.24,1.42-2.86,2.33-4.7,3.12-6.28,7.37-14.91,10-20.38a5.9,5.9,0,0,1,9.05-2.08l4,3.24A6,6,0,0,1,45,125.18L31.21,148.24A5.93,5.93,0,0,1,26.15,151.14ZM35.86,116a3,3,0,0,0-.66.08,2.88,2.88,0,0,0-2,1.59c-2.6,5.49-6.86,14.14-10,20.43-.91,1.84-1.71,3.46-2.33,4.7a2.92,2.92,0,0,0,.85,3.64,9.37,9.37,0,0,0,3.9,1.68,2.93,2.93,0,0,0,3-1.39l13.77-23.07a2.93,2.93,0,0,0-.68-3.77l-4-3.24A2.94,2.94,0,0,0,35.86,116Z" fill="#471c0e"/><path d="M142.59,162.42l-7.62,24-2.47,7.77c-7.21,2.16-11.17-2.52-11.17-2.52s.68-2.85,1.63-6.95c2.32-9.94,6.3-27.18,6.3-28.68Z" fill="#a8662f"/><path d="M123,184.74a66.4,66.4,0,0,0,12,1.7l-2.47,7.77c-7.21,2.16-11.17-2.52-11.17-2.52S122,188.84,123,184.74Z" fill="#471c0e"/><path d="M128.81,196.28a12.09,12.09,0,0,1-6-1.54,5.14,5.14,0,0,1-2.44-5.66l1.09-4.68c1.46-6.24,4.1-17.66,5.44-24a5.19,5.19,0,0,1,7.31-3.6l6.09,2.9a5.2,5.2,0,0,1,2.71,6.25l-8.47,26.69a5.15,5.15,0,0,1-4.29,3.58C129.78,196.25,129.28,196.28,128.81,196.28Zm3.2-37a2,2,0,0,0-1,.23,2.13,2.13,0,0,0-1.17,1.5c-1.34,6.39-4,17.83-5.46,24.08l-1.09,4.68a2.16,2.16,0,0,0,1,2.37,9.17,9.17,0,0,0,5.63,1.08,2.12,2.12,0,0,0,1.77-1.5L140.19,165a2.19,2.19,0,0,0-1.14-2.63L133,159.48A2.26,2.26,0,0,0,132,159.27Z" fill="#471c0e"/><path d="M277,141c-2.1,7.23-8.19,8-8.19,8l-4.63-4.83c-7-7.29-19.7-20.36-21-21.18l12.58-7.74,16.88,20.48Z" fill="#a8662f"/><path d="M277,141c-2.1,7.23-8.19,8-8.19,8l-4.63-4.83c3.2-2.42,6.68-5.48,8.49-8.44Z" fill="#471c0e"/><path d="M269.67,150.09a4.45,4.45,0,0,1-3.21-1.36l-3.39-3.53c-6-6.19-14-14.44-18.18-18.59a4.43,4.43,0,0,1,.79-6.94l7.12-4.38a4.45,4.45,0,0,1,5.75,1l18.52,22.48a4.32,4.32,0,0,1,.68,4.5,12.18,12.18,0,0,1-6.31,6.49A4.39,4.39,0,0,1,269.67,150.09Zm-14.55-32.46a1.44,1.44,0,0,0-.75.21l-7.12,4.38a1.43,1.43,0,0,0-.26,2.25c4.24,4.18,12.26,12.44,18.24,18.64l3.4,3.54a1.43,1.43,0,0,0,1.6.32A9.25,9.25,0,0,0,275,142a1.4,1.4,0,0,0-.24-1.4l-18.53-22.49A1.43,1.43,0,0,0,255.12,117.63Z" fill="#471c0e"/><path d="M218.66,8.1S196,3,190.48,2s-13-2.7-16.2-.8-4.66,7.56-4.66,7.56l23.88,1.82Z" fill="#e1952f"/><path d="M172.14,170.1a117.57,117.57,0,0,1-12.69-.69l-.82-.1-1.51-.18-1.29-.17-1.2-.18c-.73-.11-1.54-.24-2.34-.38l-.64-.1c-2.43-.43-4.88-.93-7.27-1.5-1.61-.38-3.23-.8-4.81-1.24C89.46,151.63,31,130.29,17.3,112.18c-7.15-9.44-9.5-14.5-8.66-18.71.92-4.6,5.5-7.48,12.89-11.8,7.1-4.15,26.75-13.79,55.89-13.79A136.33,136.33,0,0,1,95.6,69.11a31.86,31.86,0,0,0,4.14.27c29.89,0,54.25-43,54.49-43.42.57-.91,13.15-20.79,22.46-23.81a17.74,17.74,0,0,1,5.38-.65c6,0,15.18,1.53,25.79,3.31,12,2,25.71,4.3,39.62,5.27,8.87.62,16.44.84,22.53,1,15.91.46,23.89.69,27,7,1.2,2.4,1.75,8.2,1.53,15.91,0,.4,0,.8,0,1.21l0,.61c0,.71-.07,1.45-.11,2.21l0,.3c0,.75-.1,1.49-.16,2.26l-.08,1c-.23,2.79-.55,5.68-1,8.59l-.08.57q-.27,1.93-.6,4l-.21,1.24c-.17,1-.34,2-.53,3L295.32,61,295,62.69c-.46,2.18-.92,4.18-1.4,6.13l-.24,1c-.21.83-.43,1.65-.65,2.47l-.1.4c-.45,1.64-.93,3.33-1.45,5v0c-1.36,4.49-2.91,8.88-4.59,13-.05.14-.12.3-.19.47-.53,1.3-1.05,2.54-1.59,3.76-.61,1.38-1.25,2.77-1.9,4.12l-1.4-.55,1.35.64s-.48,1-.53,1.09c-1.7,3.45-3.55,6.81-5.49,10-.1.15-.2.32-.31.48a104.16,104.16,0,0,1-7.33,10.35l-.27.33,0,0c-1.92,2.36-3.95,4.7-6,6.94l-.06.07c-1.54,1.66-3.12,3.29-4.73,4.86l-.93.91-1.17,1.11-.39.37c-.53.5-1.07,1-1.62,1.49-.32.3-.65.6-1,.89-.66.6-1.33,1.18-2,1.76l-.55.46-.64.55-.06.05c-.66.55-1.33,1.1-2,1.63s-1.24,1-1.87,1.48c-.31.25-.63.5-1,.74l-1.19.9c-1.59,1.19-3.21,2.34-4.83,3.43l-1.72,1.15c-1.45,1-3,1.9-4.47,2.8l-.23.14c-1,.6-2,1.18-3,1.75l-1.28.7-.79.43c-1.54.82-3.12,1.62-4.69,2.38l-.4.19c-1.22.58-2.47,1.15-3.72,1.69l-.14.06c-.69.31-1.47.64-2.25,1l-.55.22c-2.17.88-4.37,1.7-6.54,2.43l-.37.13c-1.35.45-2.72.88-4.1,1.29l-.07,0c-3.26,1-6.6,1.77-9.92,2.43h0l-.14,0c-1.23.25-2.47.47-3.71.68l-.39-1.46.24,1.48c-.93.15-1.85.29-2.79.42l-.94.12A114.16,114.16,0,0,1,172.14,170.1Z" fill="#ffeb81"/><path d="M182.07,3c12.48,0,38.77,6.73,65.3,8.58,30.82,2.14,44.49-.55,48.3,7.15,1,2,1.59,7.54,1.37,15.21,0,.39,0,.78,0,1.18l0,.6c0,.72-.06,1.45-.11,2.19,0,.11,0,.21,0,.32,0,.73-.1,1.47-.15,2.23,0,.32-.06.64-.08,1-.23,2.68-.54,5.53-.95,8.51,0,.18-.05.36-.07.55-.18,1.29-.38,2.6-.6,3.94-.07.4-.13.81-.2,1.22q-.26,1.49-.54,3l-.06.33c-.11.59-.23,1.17-.34,1.76,0,0,0,0,0,.07l-.18.87c0,.24-.09.47-.14.71-.42,2-.88,4-1.39,6.07l-.24,1c-.2.81-.42,1.63-.64,2.45,0,.12-.06.25-.1.38q-.66,2.48-1.43,5h0c-1.31,4.31-2.82,8.66-4.56,13l-.21.54c-.5,1.22-1,2.44-1.56,3.65-.6,1.37-1.22,2.73-1.87,4.08l-.05.1c-.13.28-.27.56-.41.84a1.86,1.86,0,0,1-.1.2c-1.65,3.36-3.46,6.66-5.44,9.86l-.33.53a101.24,101.24,0,0,1-7.2,10.15l-.27.33,0,0q-2.88,3.54-6,6.89l0,0c-1.52,1.65-3.09,3.27-4.7,4.84l-.92.9-1.16,1.11-.37.35-1.61,1.48-1,.88c-.66.59-1.33,1.17-2,1.74l-.52.45-.64.54-.08.06c-.65.55-1.3,1.09-2,1.61s-1.23,1-1.85,1.46c-.32.25-.63.5-.95.73l-1.19.9q-2.34,1.76-4.77,3.39L236.28,149c-1.46.95-2.93,1.88-4.43,2.77l-.24.15c-1,.58-2,1.16-3,1.72-.32.18-.64.36-1,.53h0l-.26.15-.81.43c-1.53.82-3.08,1.6-4.64,2.36l-.38.18c-1.22.58-2.45,1.14-3.68,1.68h0l-.06,0-2.32,1-.54.22c-2.14.86-4.31,1.67-6.51,2.41h0l-.33.11c-1.33.45-2.67.87-4,1.27l-.08,0h0q-4.82,1.41-9.78,2.4l-.12,0c-1.22.24-2.45.46-3.68.67l-.14,0c-.91.15-1.83.29-2.75.41h0l-.93.13a113.62,113.62,0,0,1-27,.24l-.81-.09q-.75-.07-1.5-.18h-.05l-.61-.08-.62-.08-1-.15h-.09l-2.39-.38-.62-.11q-3.57-.63-7.19-1.48c-1.58-.38-3.17-.78-4.76-1.23C88.18,149.72,31.74,128.75,18.49,111.27S8.19,91.2,22.29,83c11.43-6.68,30.62-13.59,55.13-13.59a133.47,133.47,0,0,1,18,1.22,33.65,33.65,0,0,0,4.34.29c31.12,0,55.8-44.2,55.8-44.2S168.25,6.46,177.15,3.58A16.64,16.64,0,0,1,182.07,3m0-3h0a19.55,19.55,0,0,0-5.85.72C166.57,3.86,154.36,22.93,153,25.1l-.08.13c-.24.42-24.2,42.66-53.18,42.66a28.87,28.87,0,0,1-3.94-.27,139.33,139.33,0,0,0-18.38-1.24c-29.5,0-49.44,9.79-56.65,14-6.71,3.92-12.51,7.3-13.6,12.8s2.46,11.37,8.93,19.9c17.56,23.18,98.64,47.13,123.07,53.92,1.6.45,3.23.87,4.87,1.26,2.41.57,4.89,1.08,7.36,1.52l.67.11,2.41.39h.09l1.06.15.27,0,.36.05.33,0,.28,0H157l1.52.18.81.1a121,121,0,0,0,12.86.7,115.19,115.19,0,0,0,14.87-1h.11l.81-.11h0c.91-.13,1.86-.27,2.82-.43h.06l.1,0c1.22-.19,2.49-.42,3.76-.68l.18,0c3.35-.66,6.71-1.49,10-2.45l0,0h0c1.39-.41,2.78-.84,4.12-1.29l.3-.1.13-.05c2.2-.74,4.42-1.56,6.59-2.44l.29-.12.26-.11c.79-.32,1.56-.65,2.33-1l.1,0,.11-.05c1.21-.53,2.44-1.09,3.65-1.67l.43-.2c1.57-.76,3.18-1.57,4.74-2.41l.8-.43.29-.16,1-.54c1-.59,2.08-1.18,3.06-1.76l.24-.15h0c1.51-.9,3-1.86,4.53-2.84l1.74-1.16c1.62-1.1,3.27-2.27,4.88-3.47.4-.3.81-.6,1.22-.92s.65-.49,1-.76c.6-.46,1.24-1,1.87-1.47s1.3-1.06,1.95-1.6l.18-.15.61-.52.56-.47c.66-.56,1.34-1.16,2-1.76l1-.91c.53-.48,1.09-1,1.63-1.51l.39-.37,1.18-1.11.95-.93c1.6-1.58,3.21-3.23,4.75-4.9l.09-.09c2.09-2.26,4.13-4.61,6.06-7l.06-.07h0l.12-.15.15-.18a106.46,106.46,0,0,0,7.4-10.44l.36-.57c1.94-3.15,3.81-6.54,5.55-10.06,0-.08.09-.17.13-.26l.13-.26c.08-.18.17-.36.26-.54l0-.09q1-2.13,1.94-4.21c.52-1.16,1-2.38,1.58-3.73l0-.07c.07-.17.14-.33.2-.5,1.7-4.2,3.25-8.61,4.62-13.13l0-.06h0c.52-1.7,1-3.41,1.46-5.07l0-.2,0-.16c.23-.86.45-1.69.66-2.52l0-.14.21-.87c.49-2,.95-4,1.41-6.16l.15-.74.17-.85s0-.06,0-.09h0c.12-.6.23-1.18.35-1.77l0-.19,0-.14q.29-1.56.54-3.06l.18-1.06,0-.18c.22-1.36.43-2.7.61-4,0-.18.05-.37.07-.57.41-2.94.73-5.85,1-8.66l0-.45,0-.52c.07-.8.12-1.55.16-2.29v-.16l0-.19c0-.74.08-1.49.11-2.22,0-.15,0-.34,0-.52v-.08c0-.42,0-.83,0-1.23.13-4.67.09-13-1.68-16.62-3.51-7.09-11.8-7.33-28.31-7.81-6.07-.17-13.63-.39-22.47-1-13.84-1-27.46-3.24-39.47-5.25C197.44,1.54,188.22,0,182.07,0Z" fill="#ffaa5a"/><path d="M127.09,133.41l-.84,0c-4.64-.14-18.15-5.17-35.24-11.55-21.23-7.91-47.65-17.76-62.47-19.91C7.43,98.86,3.11,97.12,1.85,94.59c-.83-1.65.06-3.29.49-4.09.66-1.22,2.1-2.68,5.23-2.68a15.46,15.46,0,0,1,4.86.92c2.53.57,36.31,8.12,42.87,10.43,1.61.56,6.29,2.12,12.21,4.1,19.75,6.58,52.79,17.6,58.18,20.29.86.43,2.85.94,7.5.94,6.64,0,15.83-1,24.72-2,7.9-.85,15.36-1.66,20.19-1.66,12,0,45.39-12.76,60.69-19.9,11.18-5.21,16.29-11.77,21.69-18.71,1-1.34,2.1-2.69,3.21-4.06,6.29-7.73,23.25-55.59,25.39-62.1a23.53,23.53,0,0,0-5.71-1.39c-1.61-.25-7.38-.3-14.06-.35-9.59-.07-21.54-.17-27.83-.92-10.54-1.26-62.64-8.65-63.16-8.73a1.5,1.5,0,0,1,.21-3h0c1.54,0,37.85.6,47.45,3.16,9.42,2.52,36.75,3.18,46.48,3.22,6.65,0,20.06,1,23.24,4.53a2.9,2.9,0,0,1,.81,2.26c-.25,2.62-21.31,71.28-38.82,84.84-16.84,13-58.45,29-83,29-.7,0-1.39,0-2.06,0-1.7-.06-3.4-.09-5.06-.09a133.56,133.56,0,0,0-27.78,3.08A68.51,68.51,0,0,1,127.09,133.41Z" fill="#ff8d3d"/><path d="M178.53,3.25s37.55.57,47.08,3.11,37,3.23,46.87,3.27S295.35,11.5,295,14.78s-21.61,70.91-38.25,83.79c-16.19,12.53-57.34,28.65-82.07,28.65-.68,0-1.35,0-2,0-1.77-.06-3.47-.09-5.11-.09-20.45,0-31.26,4.82-40.51,4.82h-.8c-10.16-.32-71.16-27.62-97.53-31.46s-27-5.69-25.1-9.23a4.11,4.11,0,0,1,3.91-1.89,13.91,13.91,0,0,1,4.43.87s36.14,8,42.8,10.39S118,121.41,125,124.91c1.58.78,4.48,1.09,8.17,1.09,12.71,0,34.82-3.61,44.91-3.61,13,0,47.67-13.66,61.33-20s18.43-14.59,25.42-23.18,25.74-62.43,25.9-63.38-3-1.91-7.15-2.55-31.3,0-42-1.27-63.12-8.72-63.12-8.72m0-3a3,3,0,0,0-.42,6c.52.07,52.63,7.47,63.19,8.73,6.38.76,18.37.86,28,.93,6.07,0,12.34.1,13.84.33a32.62,32.62,0,0,1,4.05.83c-3.45,10.22-18.95,53.21-24.67,60.24-1.12,1.38-2.19,2.75-3.23,4.08-5.52,7.09-10.28,13.21-21.13,18.27-15.2,7.1-48.26,19.76-60.06,19.76-4.91,0-12.41.81-20.35,1.67-8.85,1-18,1.94-24.56,1.94-4.76,0-6.36-.54-6.82-.78-5.07-2.53-32.79-11.84-58.38-20.37-5.92-2-10.6-3.54-12.19-4.1C49.23,95.45,16,88,12.85,87.3a16.94,16.94,0,0,0-5.28-1c-4.08,0-5.86,2.18-6.55,3.47-.51.94-1.69,3.13-.51,5.48,1.56,3.12,5.78,4.94,27.82,8.14,14.66,2.13,41,12,62.15,19.84,19.69,7.34,31.06,11.5,35.72,11.64l.89,0c4,0,8.19-.82,13-1.77a132.08,132.08,0,0,1,27.49-3c1.64,0,3.32,0,5,.09.69,0,1.4,0,2.12,0,24.82,0,66.88-16.1,83.91-29.28,7.45-5.76,16.26-21.5,26.2-46.77,7.08-18,13-36.65,13.19-39.1a4.42,4.42,0,0,0-1.19-3.42c-4.33-4.79-22.31-5-24.34-5-13.45-.06-37.87-1-46.1-3.17C216.61.86,180.12.27,178.57.25Z" fill="#a8662f"/><path d="M122.57,81.57C167.15,97.29,203,94.72,221.58,56,198.46,75.51,163.76,82.15,122.57,81.57Z" fill="#e87b2a"/></g></g></g></g></svg>