<svg xmlns="http://www.w3.org/2000/svg" viewBox="0 0 109.35 93.15"><g id="Layer_2" data-name="Layer 2"><g id="Layer_1-2" data-name="Layer 1"><g id="Props"><g id="fu_kitchen_utensil" data-name="fu_kitchen utensil"><path d="M50.37,78a1.58,1.58,0,0,1-.52-.09l-4.48-1.64a1.48,1.48,0,0,1-.86-.82l-5.3-12.25a1.47,1.47,0,0,1,0-1.18l2-4.68L19.27,6.71a2.6,2.6,0,0,1,0-2,2.62,2.62,0,0,1,1.41-1.46l3.52-1.52a2.57,2.57,0,0,1,1-.22,2.64,2.64,0,0,1,2.43,1.59l22.07,51,4.18,1.55a1.5,1.5,0,0,1,.85.81l5.3,12.25a1.47,1.47,0,0,1,0,1.18l-1.84,4.38a1.5,1.5,0,0,1-1.38.92h0a1.63,1.63,0,0,1-.31,0,1.51,1.51,0,0,1-.9,1.38l-2,.86a1.37,1.37,0,0,1-.59.13,1.55,1.55,0,0,1-.56-.11,1.47,1.47,0,0,1-.65-.5A1.51,1.51,0,0,1,50.37,78Z" fill="#56548c"/><path d="M25.22,3a1.15,1.15,0,0,1,1.05.69L48.6,55.26,53.37,57l5.31,12.25-1.85,4.38L51.49,61.33l-2,.87L55,75.14,53,76,47.47,63.07,45,64.13l5.34,12.34-4.48-1.64L40.58,62.58l2.23-5.28L20.65,6.12a1.15,1.15,0,0,1,.59-1.5l3.53-1.53A1.2,1.2,0,0,1,25.22,3m0-3a4,4,0,0,0-1.64.34L20.05,1.87A4.14,4.14,0,0,0,17.9,7.31l21.65,50-1.73,4.1a3,3,0,0,0,0,2.36L43.13,76a3,3,0,0,0,1.72,1.62l4.49,1.65a3.06,3.06,0,0,0,1,.18,3,3,0,0,0,1.79-.59A3.14,3.14,0,0,0,53,79a3.1,3.1,0,0,0,1.19-.25l2-.87a3,3,0,0,0,1.46-1.34,3,3,0,0,0,1.93-1.72l1.84-4.38a3,3,0,0,0,0-2.35l-5.3-12.25a3,3,0,0,0-1.71-1.62l-3.58-1.34L29,2.5A4.13,4.13,0,0,0,25.22,0Z" fill="#502390"/><path d="M56.06,78a4.72,4.72,0,0,1-3.33-8L92.47,30.16a4.71,4.71,0,1,1,6.67,6.66L59.4,76.56A4.71,4.71,0,0,1,56.06,78Z" fill="#56548c"/><path d="M95.8,30.28a3.21,3.21,0,0,1,2.28,5.48L58.34,75.5A3.21,3.21,0,0,1,53.79,71L93.53,31.22a3.19,3.19,0,0,1,2.27-.94m0-3a6.13,6.13,0,0,0-4.39,1.82L51.67,68.84a6.22,6.22,0,0,0,8.79,8.79L100.2,37.89a6.22,6.22,0,0,0-4.4-10.61Z" fill="#502390"/><path d="M100.61,44.1H8.74l8.65,39.22a10.62,10.62,0,0,0,10.37,8.33H81.59A10.61,10.61,0,0,0,92,83.32Z" fill="#ec827d"/><path d="M81.59,93.15H27.76a12.19,12.19,0,0,1-11.83-9.51l-9.06-41h95.61l-9.06,41A12.19,12.19,0,0,1,81.59,93.15Zm-71-47.55L18.86,83a9.17,9.17,0,0,0,8.9,7.15H81.59A9.19,9.19,0,0,0,90.5,83l8.25-37.4Z" fill="#781f1a"/><path d="M105.2,46.75H4.15a2.66,2.66,0,0,1,0-5.31H105.2a2.66,2.66,0,0,1,0,5.31Z" fill="#ec827d"/><path d="M105.2,48.25H4.15a4.16,4.16,0,0,1,0-8.31H105.2a4.16,4.16,0,0,1,0,8.31Zm-101-5.31a1.16,1.16,0,0,0,0,2.31H105.2a1.16,1.16,0,0,0,0-2.31Z" fill="#781f1a"/></g></g></g></g></svg>