<svg xmlns="http://www.w3.org/2000/svg" viewBox="0 0 19.3 50.6"><g id="Layer_2" data-name="Layer 2"><g id="Layer_1-2" data-name="Layer 1"><g id="Props"><g id="fu_book_2" data-name="fu_book 2"><rect x="1" y="1" width="17.3" height="48.6" rx="1.3" style="fill:#17e5bb"/><path d="M17,1H2.3A1.3,1.3,0,0,0,1,2.3V6.1H18.3V2.3A1.3,1.3,0,0,0,17,1Z" style="fill:#00a6e7"/><path d="M1,44.4v3.9a1.3,1.3,0,0,0,1.3,1.3H17a1.3,1.3,0,0,0,1.3-1.3V44.4Z" style="fill:#00a6e7"/><rect x="4.8" y="10.8" width="9.7" height="29.08" rx="2.8" style="fill:#00a6e7"/><path d="M17,1a1.3,1.3,0,0,1,1.3,1.3v46A1.3,1.3,0,0,1,17,49.6H2.3A1.3,1.3,0,0,1,1,48.3V2.3A1.3,1.3,0,0,1,2.3,1H17m0-1H2.3A2.3,2.3,0,0,0,0,2.3v46a2.3,2.3,0,0,0,2.3,2.3H17a2.3,2.3,0,0,0,2.3-2.3V2.3A2.3,2.3,0,0,0,17,0Z" style="fill:#457cd1"/></g></g></g></g></svg>