<svg xmlns="http://www.w3.org/2000/svg" viewBox="0 0 93.6 109.91"><g id="Layer_2" data-name="Layer 2"><g id="Layer_1-2" data-name="Layer 1"><g id="Props"><g id="to_teddy_bear" data-name="to_teddy bear"><path d="M78.14,74.49c2.72-13.37-8.88-22.43-25-24.71s-30.66,3-33.38,16.42S29.82,82.78,45.94,85.07,75.41,87.86,78.14,74.49Z" fill="#457cd1"/><path d="M78.14,74.49c2.72-13.37-8.88-22.43-25-24.71s-30.66,3-33.38,16.42S29.82,82.78,45.94,85.07,75.41,87.86,78.14,74.49Z" fill="#457cd1"/><path d="M60.05,87.84a105.11,105.11,0,0,1-14.32-1.28C35.17,85.06,24.49,83.07,20,76.77c-2-2.91-2.64-6.56-1.76-10.87C21,52.77,35,45.7,53.34,48.29c10.69,1.52,19,5.77,23.37,12a18.32,18.32,0,0,1,2.9,14.53h0C77.52,85,69.88,87.84,60.05,87.84ZM46.28,50.79c-11.7,0-22.79,4.56-25.06,15.71C20.5,70,20.92,72.81,22.5,75c3.75,5.32,14.17,7.2,23.65,8.55,18,2.56,28.23,1.82,30.52-9.4A15.15,15.15,0,0,0,74.26,62c-3.84-5.44-11.62-9.35-21.34-10.73A47.71,47.71,0,0,0,46.28,50.79Z" fill="#3a39ff"/><path d="M81.9,101.51l-8.58-20-4.67.9A13.63,13.63,0,0,0,70.85,79l-46-6.53a12.26,12.26,0,0,0,1,4.67l-4.47-2.36L8,92.66l16.32,6L36.55,87.11A31.23,31.23,0,0,0,45,89.54a32.88,32.88,0,0,0,9.35,0l6.91,15.31Z" fill="#154da4"/><path d="M32.91,14.91A8.55,8.55,0,0,1,42.4,8.28a7.45,7.45,0,0,1,6,4.79,29,29,0,0,1,6.9-1.26A13.75,13.75,0,0,0,43.75,1.65,15.86,15.86,0,0,0,26.15,14a13.64,13.64,0,0,0,5,13.69A27.22,27.22,0,0,1,35,21.78,7.36,7.36,0,0,1,32.91,14.91Z" fill="#e2a4ef"/><path d="M42.4,8.28a8.55,8.55,0,0,0-9.49,6.63A7.36,7.36,0,0,0,35,21.78a29,29,0,0,1,13.38-8.71A7.45,7.45,0,0,0,42.4,8.28Z" fill="#aee6ee"/><path d="M91.8,23.27A13.71,13.71,0,0,0,80.07,6.81a15.9,15.9,0,0,0-14.85,6.27,25.9,25.9,0,0,1,6.2,2.9,8.59,8.59,0,0,1,7.3-2.54A7.39,7.39,0,0,1,85,22.31a8.41,8.41,0,0,1-4,5.5,23.63,23.63,0,0,1,1.49,6.61A15.66,15.66,0,0,0,91.8,23.27Z" fill="#e2a4ef"/><path d="M81.08,27.81a8.41,8.41,0,0,0,4-5.5,7.39,7.39,0,0,0-6.32-8.87A8.59,8.59,0,0,0,71.42,16,24.44,24.44,0,0,1,81.08,27.81Z" fill="#aee6ee"/><path d="M31.74,30l-1.46-1.12a15.15,15.15,0,0,1-5.6-15.18A17.39,17.39,0,0,1,44,.17h0A15.32,15.32,0,0,1,56.77,11.44l.46,1.77-1.83.1a27.84,27.84,0,0,0-19.23,9.45,25.84,25.84,0,0,0-3.63,5.54ZM41.6,3a14.36,14.36,0,0,0-14,11.25,12.21,12.21,0,0,0,3.14,11A28.52,28.52,0,0,1,33.9,20.8,30.37,30.37,0,0,1,48,11.64a30.77,30.77,0,0,1,5.31-1.15,12.39,12.39,0,0,0-9.75-7.35h0A12.75,12.75,0,0,0,41.6,3Z" fill="#ac53b0"/><path d="M81.24,36.63l-.17-2.09a22.05,22.05,0,0,0-1.4-6.2,22.79,22.79,0,0,0-9.06-11.1,24.62,24.62,0,0,0-5.85-2.73l-2-.64L64,12.18A17.36,17.36,0,0,1,80.28,5.32h0a15.39,15.39,0,0,1,10.56,6.36,15.16,15.16,0,0,1,2.43,11.89A17.16,17.16,0,0,1,83.16,35.8ZM67.78,12.41a27.3,27.3,0,0,1,4.46,2.31A25.75,25.75,0,0,1,82.48,27.27a24.75,24.75,0,0,1,1.31,4.84A14,14,0,0,0,90.33,23a12.15,12.15,0,0,0-1.94-9.56,12.41,12.41,0,0,0-8.53-5.12h0A14.47,14.47,0,0,0,67.78,12.41Z" fill="#ac53b0"/><path d="M82.83,38.1C80.32,50.4,66.41,58.69,51.74,56.61s-24.52-13.75-22-26S46.15,10,60.82,12.05,85.34,25.79,82.83,38.1Z" fill="#ef54aa"/><path d="M56.23,58.42a34.08,34.08,0,0,1-4.7-.33c-8.23-1.17-15.4-5.31-19.67-11.38a21,21,0,0,1-3.6-16.45c2.65-13,17.35-21.89,32.77-19.7,8.22,1.17,15.39,5.32,19.67,11.38A21,21,0,0,1,84.3,38.4h0C81.91,50.11,69.83,58.42,56.23,58.42Zm.06-45.19c-12.19,0-23,7.31-25.09,17.63A18,18,0,0,0,34.31,45c3.8,5.39,10.23,9.09,17.64,10.14,13.86,2,27.06-5.8,29.41-17.32h0a18.08,18.08,0,0,0-3.11-14.13C74.45,18.28,68,14.59,60.61,13.54A30.1,30.1,0,0,0,56.29,13.23Z" fill="#c12d85"/><path d="M66.07,43.8c-1.09,5.32-7.07,8.92-13.36,8S42.2,45.89,43.29,40.56s7.06-8.92,13.35-8S67.15,38.47,66.07,43.8Z" fill="#ffeb81"/><path d="M59,41a4.27,4.27,0,0,1-4.74,3.31,3.69,3.69,0,0,1-3.16-4.43,4.26,4.26,0,0,1,4.74-3.32A3.7,3.7,0,0,1,59,41Z" fill="#1c1c1c"/><path d="M50.19,29.59a4.28,4.28,0,0,1-4.74,3.32,3.69,3.69,0,0,1-3.16-4.44A4.27,4.27,0,0,1,47,25.15,3.7,3.7,0,0,1,50.19,29.59Z" fill="#1c1c1c"/><path d="M46.58,28.24A1.4,1.4,0,0,1,45,29.32a1.2,1.2,0,0,1-1-1.44,1.4,1.4,0,0,1,1.55-1.08A1.2,1.2,0,0,1,46.58,28.24Z" fill="#c9e4ff"/><path d="M71.71,33.11A4.27,4.27,0,0,1,67,36.43,3.7,3.7,0,0,1,63.81,32a4.28,4.28,0,0,1,4.74-3.32A3.7,3.7,0,0,1,71.71,33.11Z" fill="#1c1c1c"/><path d="M68.1,31.76a1.38,1.38,0,0,1-1.54,1.08,1.2,1.2,0,0,1-1-1.44,1.38,1.38,0,0,1,1.54-1.08A1.2,1.2,0,0,1,68.1,31.76Z" fill="#c9e4ff"/><path d="M27.21,54.56a14.55,14.55,0,0,0-8.35,9.11A12.9,12.9,0,0,0,28,80.37a14.26,14.26,0,0,0,5.84.27c3.24-.53,3.54-4.75,1.46-8.3-1.19-2-2.37-4.22-3.48-6.57A82.47,82.47,0,0,1,27.21,54.56Z" fill="#e2a4ef"/><path d="M75.7,61.45A12.45,12.45,0,0,1,80,72.34,14.85,14.85,0,0,1,64.78,85.6a13.84,13.84,0,0,1-5.62-1.36c-2.85-1.39-1.46-5.46,1.91-8.23C63,74.43,65,72.67,67,70.76A98.12,98.12,0,0,0,75.7,61.45Z" fill="#e2a4ef"/><path d="M31.49,82.32a15.64,15.64,0,0,1-3.91-.5A14.38,14.38,0,0,1,17.44,63.2a16.13,16.13,0,0,1,9.21-10l1.53-.62.47,1.59a82.08,82.08,0,0,0,4.47,11c1.05,2.22,2.2,4.39,3.42,6.46,1.61,2.74,2,5.78,1,7.93A4.57,4.57,0,0,1,34,82.12,16.82,16.82,0,0,1,31.49,82.32ZM26.31,56.66a13,13,0,0,0-6,7.47,11.59,11.59,0,0,0,.79,9.22,11.4,11.4,0,0,0,7.25,5.57,12.74,12.74,0,0,0,5.22.24,1.55,1.55,0,0,0,1.25-.92C35.37,77,35,74.92,34,73.1c-1.26-2.14-2.45-4.39-3.54-6.69A96.62,96.62,0,0,1,26.31,56.66Z" fill="#ac53b0"/><path d="M65.2,87.1h-.47a15.35,15.35,0,0,1-6.22-1.51,4.06,4.06,0,0,1-2.35-3.26c-.28-2.34,1.28-5.28,4-7.48,2-1.61,3.92-3.35,5.8-5.17a97.78,97.78,0,0,0,8.6-9.16l1-1.22,1.19,1a14,14,0,0,1,4.8,12.17A16.38,16.38,0,0,1,65.2,87.1ZM75.83,63.66A112.38,112.38,0,0,1,68,71.84c-1.94,1.87-4,3.67-6,5.33s-3,3.7-2.88,4.81a1.07,1.07,0,0,0,.68.91,12.15,12.15,0,0,0,5,1.21A13.35,13.35,0,0,0,78.48,72.21,11.14,11.14,0,0,0,75.83,63.66Z" fill="#ac53b0"/><path d="M27.68,78.72c4.34,7.76,2.53,17.06-4.06,20.77s-15.43.43-19.77-7.33S1.33,75.09,7.91,71.38,23.34,71,27.68,78.72Z" fill="#ef54aa"/><path d="M26,82.52c3,5.34,1.37,11.94-3.6,14.74S11,98,8,92.66,6.6,80.72,11.56,77.92,23,77.18,26,82.52Z" fill="#aee6ee"/><path d="M65.69,84.12c-7.17,6.12-9.14,15.4-4.4,20.72s14.4,4.66,21.57-1.47S92,88,87.26,82.65,72.86,78,65.69,84.12Z" fill="#ef54aa"/><path d="M65.8,88.17c-4.93,4.22-6,10.89-2.44,14.91s10.48,3.85,15.41-.36,6-10.89,2.45-14.91S70.73,84,65.8,88.17Z" fill="#aee6ee"/><path d="M17.71,102.52a14.77,14.77,0,0,1-4.07-.58,18.77,18.77,0,0,1-11.1-9C-2.2,84.42-.12,74.19,7.17,70.08h0a14,14,0,0,1,10.72-1.15A18.8,18.8,0,0,1,29,78c4.74,8.46,2.66,18.7-4.63,22.81A13.48,13.48,0,0,1,17.71,102.52ZM13.82,71.36a10.48,10.48,0,0,0-5.17,1.33h0C2.79,76,1.23,84.39,5.16,91.42a15.81,15.81,0,0,0,9.29,7.64,11,11,0,0,0,8.44-.88c5.85-3.3,7.41-11.7,3.48-18.73a15.75,15.75,0,0,0-9.29-7.63A11.88,11.88,0,0,0,13.82,71.36Z" fill="#c12d85"/><path d="M70.09,109.91a13,13,0,0,1-9.92-4.07,12.19,12.19,0,0,1-2.93-9.14c.34-5,3.06-10,7.47-13.73,7.78-6.64,18.39-7.23,23.66-1.32h0a12.15,12.15,0,0,1,2.94,9.14c-.34,4.95-3.06,9.95-7.47,13.73A21.62,21.62,0,0,1,70.09,109.91Zm8.37-29.37a18.62,18.62,0,0,0-11.8,4.72c-3.74,3.2-6.15,7.55-6.42,11.64a9.18,9.18,0,0,0,2.17,6.94c4.2,4.71,12.93,4,19.48-1.61C85.63,99,88,94.68,88.31,90.59a9.18,9.18,0,0,0-2.17-6.94h0A10,10,0,0,0,78.46,80.54Z" fill="#c12d85"/></g></g></g></g></svg>