<svg xmlns="http://www.w3.org/2000/svg" xmlns:xlink="http://www.w3.org/1999/xlink" width="575.1" height="251.99" viewBox="0 0 575.1 251.99"><defs><clipPath id="clip-path" transform="translate(2.12 10.92)"><path d="M557.49,6a10,10,0,0,0-9.16-6H19.38a10,10,0,0,0-9.16,6L2.85,22.76v5a3.53,3.53,0,0,0,3.53,3.53h555a3.53,3.53,0,0,0,3.53-3.53v-5Z" fill="none"/></clipPath><clipPath id="clip-path-2" transform="translate(2.12 10.92)"><rect x="-7.98" y="78.88" width="171.75" height="118.81" rx="10" transform="translate(216.19 60.39) rotate(90)" fill="none"/></clipPath><clipPath id="clip-path-3" transform="translate(2.12 10.92)"><rect x="129.33" y="78.88" width="171.75" height="118.81" rx="10" transform="translate(353.49 -76.91) rotate(90)" fill="none"/></clipPath><clipPath id="clip-path-4" transform="translate(2.12 10.92)"><rect x="266.63" y="78.88" width="171.75" height="118.81" rx="10" transform="translate(490.79 -214.22) rotate(90)" fill="none"/></clipPath><clipPath id="clip-path-5" transform="translate(2.12 10.92)"><rect x="403.93" y="78.88" width="171.75" height="118.81" rx="10" transform="translate(628.09 -351.52) rotate(90)" fill="none"/></clipPath><symbol id="New_Symbol_44" data-name="New Symbol 44" viewBox="0 0 575.1 53.82"><path d="M540.61,3.82a3,3,0,1,1,3.7,2.05A3,3,0,0,1,540.61,3.82Z" fill="#b9bfd6"/><path d="M537.88,28.22a.81.81,0,0,1,.07-1.15.82.82,0,0,1,1.15.07.81.81,0,1,1-1.22,1.08Z" fill="#262626"/><path d="M571.4,32.45a1.15,1.15,0,1,1-1.59.34A1.15,1.15,0,0,1,571.4,32.45Z" fill="#b9bfd6"/><path d="M543.37,41.52a.65.65,0,0,1-.93.07.66.66,0,0,1,.87-1A.65.65,0,0,1,543.37,41.52Z" fill="#b9bfd6"/><path d="M535.21,45.73a1.15,1.15,0,1,1-.58,1.52A1.15,1.15,0,0,1,535.21,45.73Z" fill="#262626"/><path d="M573.05,44.61a3,3,0,1,1,1.89-3.79A3,3,0,0,1,573.05,44.61Z" fill="#262626"/><path d="M550.64,53a.82.82,0,0,1,1.43-.79.82.82,0,1,1-1.43.79Z" fill="#262626"/><path d="M553.38,4.77a.82.82,0,0,1,.64-1,.83.83,0,0,1,1,.65.82.82,0,0,1-.65,1A.8.8,0,0,1,553.38,4.77Z" fill="#262626"/><path d="M545.54,23.09a1.16,1.16,0,0,1-1.61-.28,1.15,1.15,0,1,1,1.61.28Z" fill="#262626"/><path d="M540.83,52.19a3,3,0,1,1,4,1.3A3,3,0,0,1,540.83,52.19Z" fill="#b9bfd6"/><path d="M537.65,23.34a3,3,0,1,1,3-3A3,3,0,0,1,537.65,23.34Z" fill="#262626"/><path d="M569.17,15.58a.82.82,0,1,1,1.62-.19.82.82,0,0,1-.71.9A.81.81,0,0,1,569.17,15.58Z" fill="#262626"/><path d="M564.06,18.69a1.16,1.16,0,0,1-1.42.8,1.15,1.15,0,0,1,.62-2.22A1.16,1.16,0,0,1,564.06,18.69Z" fill="#262626"/><path d="M458.06,3.82a3,3,0,1,1,3.7,2.05A3,3,0,0,1,458.06,3.82Z" fill="#b9bfd6"/><path d="M455.33,28.22a.81.81,0,0,1,.07-1.15.82.82,0,0,1,1.15.07.81.81,0,1,1-1.22,1.08Z" fill="#262626"/><path d="M488.85,32.45a1.15,1.15,0,1,1-1.59.34A1.15,1.15,0,0,1,488.85,32.45Z" fill="#b9bfd6"/><path d="M460.82,41.52a.65.65,0,0,1-.93.07.66.66,0,0,1,.87-1A.65.65,0,0,1,460.82,41.52Z" fill="#b9bfd6"/><path d="M519.71,38.67a.82.82,0,0,1-.92-.69.82.82,0,1,1,1.62-.23A.82.82,0,0,1,519.71,38.67Z" fill="#262626"/><path d="M508.09,39.06a1.15,1.15,0,1,1-.58,1.52A1.15,1.15,0,0,1,508.09,39.06Z" fill="#262626"/><path d="M452.66,45.73a1.15,1.15,0,1,1-.58,1.52A1.15,1.15,0,0,1,452.66,45.73Z" fill="#262626"/><path d="M520.67,23.64A3,3,0,1,1,517,21.58,3,3,0,0,1,520.67,23.64Z" fill="#b9bfd6"/><path d="M490.5,44.61a3,3,0,1,1,1.89-3.79A3,3,0,0,1,490.5,44.61Z" fill="#262626"/><path d="M503.67.74a.82.82,0,1,1-.95-.65A.81.81,0,0,1,503.67.74Z" fill="#262626"/><path d="M523.46,11.7a.65.65,0,0,1,.83.42.67.67,0,0,1-.42.83.66.66,0,0,1-.83-.42A.65.65,0,0,1,523.46,11.7Z" fill="#b9bfd6"/><path d="M496.61,7.18a.66.66,0,1,1-.76-.53A.64.64,0,0,1,496.61,7.18Z" fill="#b9bfd6"/><path d="M468.09,53a.81.81,0,0,1,.32-1.11.8.8,0,0,1,1.1.32.81.81,0,1,1-1.42.79Z" fill="#262626"/><path d="M470.83,4.77a.82.82,0,0,1,.64-1,.83.83,0,0,1,1,.65.82.82,0,0,1-.65,1A.8.8,0,0,1,470.83,4.77Z" fill="#262626"/><path d="M512,29.81a1.15,1.15,0,1,1,1.49-.64A1.14,1.14,0,0,1,512,29.81Z" fill="#262626"/><path d="M463,23.09a1.16,1.16,0,0,1-1.61-.28,1.15,1.15,0,1,1,1.61.28Z" fill="#262626"/><path d="M458.27,52.19a3,3,0,1,1,4,1.3A3,3,0,0,1,458.27,52.19Z" fill="#b9bfd6"/><circle cx="529.56" cy="20.36" r="0.82" transform="translate(44.65 234.17) rotate(-26)" fill="#262626"/><path d="M502.81,18.91a3,3,0,1,1,1.13-4.08A3,3,0,0,1,502.81,18.91Z" fill="#b9bfd6"/><path d="M455.1,23.34a3,3,0,1,1,3-3A3,3,0,0,1,455.1,23.34Z" fill="#262626"/><path d="M486.62,15.58a.82.82,0,1,1,1.62-.19.82.82,0,0,1-.71.9A.81.81,0,0,1,486.62,15.58Z" fill="#262626"/><path d="M481.51,18.69a1.15,1.15,0,1,1-.8-1.42A1.16,1.16,0,0,1,481.51,18.69Z" fill="#262626"/><path d="M517.19,2.47a.82.82,0,1,1-1.15-.1A.82.82,0,0,1,517.19,2.47Z" fill="#262626"/><path d="M375.51,3.82a3,3,0,1,1,3.7,2.05A3,3,0,0,1,375.51,3.82Z" fill="#b9bfd6"/><path d="M372.78,28.22a.81.81,0,0,1,.07-1.15.81.81,0,1,1,1.08,1.22A.81.81,0,0,1,372.78,28.22Z" fill="#262626"/><path d="M406.3,32.45a1.15,1.15,0,1,1-1.59.34A1.16,1.16,0,0,1,406.3,32.45Z" fill="#b9bfd6"/><path d="M378.27,41.52a.65.65,0,0,1-.93.07.66.66,0,0,1-.06-.93.65.65,0,0,1,.92-.06A.64.64,0,0,1,378.27,41.52Z" fill="#b9bfd6"/><path d="M437.16,38.67a.82.82,0,0,1-.92-.69.83.83,0,0,1,.69-.93.81.81,0,0,1,.92.7A.81.81,0,0,1,437.16,38.67Z" fill="#262626"/><path d="M425.54,39.06a1.15,1.15,0,1,1-.58,1.52A1.15,1.15,0,0,1,425.54,39.06Z" fill="#262626"/><path d="M370.11,45.73a1.15,1.15,0,1,1-.58,1.52A1.15,1.15,0,0,1,370.11,45.73Z" fill="#262626"/><path d="M438.12,23.64a3,3,0,1,1-3.71-2.06A3,3,0,0,1,438.12,23.64Z" fill="#b9bfd6"/><path d="M408,44.61a3,3,0,1,1,1.89-3.79A3,3,0,0,1,408,44.61Z" fill="#262626"/><path d="M421.12.74a.82.82,0,0,1-1.61.3.82.82,0,0,1,1.61-.3Z" fill="#262626"/><path d="M440.9,11.7a.66.66,0,0,1,.84.42.67.67,0,0,1-.42.83.66.66,0,0,1-.83-.42A.65.65,0,0,1,440.9,11.7Z" fill="#b9bfd6"/><path d="M414.06,7.18a.65.65,0,0,1-.53.76.66.66,0,1,1-.23-1.29A.65.65,0,0,1,414.06,7.18Z" fill="#b9bfd6"/><path d="M385.54,53a.81.81,0,0,1,.32-1.11.8.8,0,0,1,1.1.32.81.81,0,1,1-1.42.79Z" fill="#262626"/><path d="M388.27,4.77a.82.82,0,1,1,1.61-.31.82.82,0,0,1-1.61.31Z" fill="#262626"/><path d="M429.45,29.81a1.15,1.15,0,1,1,1.49-.64A1.14,1.14,0,0,1,429.45,29.81Z" fill="#262626"/><path d="M380.43,23.09a1.15,1.15,0,1,1-1.32-1.88,1.14,1.14,0,0,1,1.6.27A1.16,1.16,0,0,1,380.43,23.09Z" fill="#262626"/><path d="M375.72,52.19a3,3,0,1,1,4,1.3A3,3,0,0,1,375.72,52.19Z" fill="#b9bfd6"/><circle cx="447.01" cy="20.36" r="0.82" transform="translate(36.3 197.98) rotate(-26)" fill="#262626"/><path d="M420.26,18.91a3,3,0,1,1,1.13-4.08A3,3,0,0,1,420.26,18.91Z" fill="#b9bfd6"/><path d="M372.54,23.34a3,3,0,1,1,3-3A3,3,0,0,1,372.54,23.34Z" fill="#262626"/><path d="M404.07,15.58a.82.82,0,1,1,.9.71A.8.8,0,0,1,404.07,15.58Z" fill="#262626"/><path d="M399,18.69a1.15,1.15,0,1,1-.8-1.42A1.16,1.16,0,0,1,399,18.69Z" fill="#262626"/><path d="M434.64,2.47a.82.82,0,0,1-.11,1.15.81.81,0,0,1-1-1.25A.82.82,0,0,1,434.64,2.47Z" fill="#262626"/><path d="M293,3.82a3,3,0,1,1,3.7,2.05A3,3,0,0,1,293,3.82Z" fill="#b9bfd6"/><path d="M290.22,28.22a.82.82,0,0,1,1.23-1.08.82.82,0,0,1-1.23,1.08Z" fill="#262626"/><path d="M323.75,32.45a1.15,1.15,0,1,1-1.59.34A1.15,1.15,0,0,1,323.75,32.45Z" fill="#b9bfd6"/><path d="M295.72,41.52a.65.65,0,0,1-.93.07.67.67,0,0,1-.07-.93.66.66,0,0,1,.93-.06A.64.64,0,0,1,295.72,41.52Z" fill="#b9bfd6"/><path d="M354.61,38.67a.82.82,0,0,1-.92-.69.83.83,0,0,1,.69-.93.81.81,0,0,1,.92.7A.81.81,0,0,1,354.61,38.67Z" fill="#262626"/><path d="M343,39.06a1.15,1.15,0,1,1-.58,1.52A1.15,1.15,0,0,1,343,39.06Z" fill="#262626"/><path d="M287.56,45.73a1.15,1.15,0,1,1-.58,1.52A1.15,1.15,0,0,1,287.56,45.73Z" fill="#262626"/><path d="M355.57,23.64a3,3,0,1,1-3.71-2.06A3,3,0,0,1,355.57,23.64Z" fill="#b9bfd6"/><path d="M325.4,44.61a3,3,0,1,1,1.89-3.79A3,3,0,0,1,325.4,44.61Z" fill="#262626"/><path d="M338.57.74A.82.82,0,0,1,337,1a.82.82,0,0,1,1.61-.3Z" fill="#262626"/><path d="M358.35,11.7a.66.66,0,0,1,.84.42.67.67,0,0,1-.42.83.66.66,0,0,1-.83-.42A.65.65,0,0,1,358.35,11.7Z" fill="#b9bfd6"/><path d="M331.51,7.18a.65.65,0,0,1-.53.76.66.66,0,1,1,.53-.76Z" fill="#b9bfd6"/><path d="M303,53a.81.81,0,0,1,.32-1.11.8.8,0,0,1,1.1.32A.81.81,0,1,1,303,53Z" fill="#262626"/><path d="M305.72,4.77a.83.83,0,0,1,.65-1,.82.82,0,0,1,.95.65.8.8,0,0,1-.64,1A.82.82,0,0,1,305.72,4.77Z" fill="#262626"/><path d="M346.9,29.81a1.15,1.15,0,1,1,1.49-.64A1.14,1.14,0,0,1,346.9,29.81Z" fill="#262626"/><path d="M297.88,23.09a1.15,1.15,0,1,1-1.32-1.88,1.14,1.14,0,0,1,1.6.27A1.16,1.16,0,0,1,297.88,23.09Z" fill="#262626"/><path d="M293.17,52.19a3,3,0,1,1,4,1.3A3,3,0,0,1,293.17,52.19Z" fill="#b9bfd6"/><circle cx="364.46" cy="20.36" r="0.82" transform="translate(27.95 161.8) rotate(-26)" fill="#262626"/><path d="M337.71,18.91a3,3,0,1,1,1.13-4.08A3,3,0,0,1,337.71,18.91Z" fill="#b9bfd6"/><path d="M290,23.34a3,3,0,1,1,3-3A3,3,0,0,1,290,23.34Z" fill="#262626"/><path d="M321.52,15.58a.81.81,0,0,1,.71-.91.83.83,0,0,1,.91.72.82.82,0,0,1-.72.9A.8.8,0,0,1,321.52,15.58Z" fill="#262626"/><path d="M316.41,18.69a1.15,1.15,0,1,1-.8-1.42A1.16,1.16,0,0,1,316.41,18.69Z" fill="#262626"/><path d="M352.09,2.47a.82.82,0,1,1-1.15-.1A.82.82,0,0,1,352.09,2.47Z" fill="#262626"/><path d="M210.41,3.82a3,3,0,1,1,3.7,2.05A3,3,0,0,1,210.41,3.82Z" fill="#b9bfd6"/><path d="M207.67,28.22a.82.82,0,0,1,1.23-1.08.82.82,0,0,1-1.23,1.08Z" fill="#262626"/><path d="M241.2,32.45a1.15,1.15,0,1,1-1.59.34A1.15,1.15,0,0,1,241.2,32.45Z" fill="#b9bfd6"/><path d="M213.17,41.52a.65.65,0,0,1-.93.07.67.67,0,0,1-.07-.93.66.66,0,0,1,.93-.06A.64.64,0,0,1,213.17,41.52Z" fill="#b9bfd6"/><path d="M272.06,38.67a.81.81,0,0,1-.92-.69.83.83,0,0,1,.69-.93.81.81,0,0,1,.92.7A.81.81,0,0,1,272.06,38.67Z" fill="#262626"/><path d="M260.44,39.06a1.15,1.15,0,1,1-.58,1.52A1.15,1.15,0,0,1,260.44,39.06Z" fill="#262626"/><path d="M205,45.73a1.15,1.15,0,0,1,1.52.58,1.16,1.16,0,0,1-.59,1.52,1.15,1.15,0,0,1-.93-2.1Z" fill="#262626"/><path d="M273,23.64a3,3,0,1,1-3.71-2.06A3,3,0,0,1,273,23.64Z" fill="#b9bfd6"/><path d="M242.84,44.61a3,3,0,1,1,1.9-3.79A3,3,0,0,1,242.84,44.61Z" fill="#262626"/><path d="M256,.74a.8.8,0,0,1-.65,1A.81.81,0,1,1,256,.74Z" fill="#262626"/><path d="M275.8,11.7a.65.65,0,0,1,.83.42.66.66,0,0,1-.41.83.68.68,0,0,1-.84-.42A.66.66,0,0,1,275.8,11.7Z" fill="#b9bfd6"/><path d="M249,7.18a.65.65,0,0,1-.53.76.66.66,0,1,1,.53-.76Z" fill="#b9bfd6"/><path d="M220.43,53a.83.83,0,0,1,.32-1.11.82.82,0,1,1,.79,1.43A.83.83,0,0,1,220.43,53Z" fill="#262626"/><path d="M223.17,4.77a.81.81,0,1,1,1.6-.31.8.8,0,0,1-.64,1A.82.82,0,0,1,223.17,4.77Z" fill="#262626"/><path d="M264.35,29.81a1.15,1.15,0,1,1,1.49-.64A1.14,1.14,0,0,1,264.35,29.81Z" fill="#262626"/><path d="M215.33,23.09A1.15,1.15,0,1,1,214,21.21a1.14,1.14,0,0,1,1.6.27A1.16,1.16,0,0,1,215.33,23.09Z" fill="#262626"/><path d="M210.62,52.19a3,3,0,1,1,4,1.3A3,3,0,0,1,210.62,52.19Z" fill="#b9bfd6"/><circle cx="281.91" cy="20.36" r="0.82" transform="translate(19.6 125.62) rotate(-26)" fill="#262626"/><path d="M255.15,18.91a3,3,0,1,1,1.14-4.08A3,3,0,0,1,255.15,18.91Z" fill="#b9bfd6"/><path d="M207.44,23.34a3,3,0,1,1,3-3A3,3,0,0,1,207.44,23.34Z" fill="#262626"/><path d="M239,15.58a.81.81,0,0,1,.71-.91.83.83,0,0,1,.91.72.82.82,0,0,1-.72.9A.8.8,0,0,1,239,15.58Z" fill="#262626"/><path d="M233.86,18.69a1.15,1.15,0,1,1-.8-1.42A1.16,1.16,0,0,1,233.86,18.69Z" fill="#262626"/><path d="M269.53,2.47a.81.81,0,0,1-.1,1.15.82.82,0,0,1-1.15-.1.82.82,0,0,1,1.25-1Z" fill="#262626"/><path d="M127.85,3.82a3,3,0,1,1,3.71,2.05A3,3,0,0,1,127.85,3.82Z" fill="#b9bfd6"/><path d="M125.12,28.22a.82.82,0,0,1,1.23-1.08.82.82,0,0,1-1.23,1.08Z" fill="#262626"/><path d="M158.65,32.45a1.15,1.15,0,1,1-1.59.34A1.15,1.15,0,0,1,158.65,32.45Z" fill="#b9bfd6"/><path d="M130.62,41.52a.65.65,0,0,1-.93.07.66.66,0,1,1,.86-1A.64.64,0,0,1,130.62,41.52Z" fill="#b9bfd6"/><path d="M189.51,38.67a.82.82,0,1,1,.69-.92A.81.81,0,0,1,189.51,38.67Z" fill="#262626"/><path d="M177.89,39.06a1.15,1.15,0,0,1,1.52.58,1.17,1.17,0,0,1-.58,1.52,1.15,1.15,0,0,1-.94-2.1Z" fill="#262626"/><path d="M122.46,45.73a1.14,1.14,0,0,1,1.51.58,1.15,1.15,0,0,1-.58,1.52,1.14,1.14,0,0,1-1.51-.58A1.15,1.15,0,0,1,122.46,45.73Z" fill="#262626"/><path d="M190.46,23.64a3,3,0,1,1-3.7-2.06A3,3,0,0,1,190.46,23.64Z" fill="#b9bfd6"/><path d="M160.29,44.61a3,3,0,1,1,1.9-3.79A3,3,0,0,1,160.29,44.61Z" fill="#262626"/><path d="M173.46.74a.81.81,0,1,1-1-.65A.81.81,0,0,1,173.46.74Z" fill="#262626"/><path d="M193.25,11.7a.65.65,0,0,1,.83.42.66.66,0,0,1-.41.83.68.68,0,0,1-.84-.42A.66.66,0,0,1,193.25,11.7Z" fill="#b9bfd6"/><path d="M166.41,7.18a.66.66,0,1,1-.77-.53A.66.66,0,0,1,166.41,7.18Z" fill="#b9bfd6"/><path d="M137.88,53a.83.83,0,0,1,.32-1.11.82.82,0,1,1,.79,1.43A.83.83,0,0,1,137.88,53Z" fill="#262626"/><path d="M140.62,4.77a.81.81,0,1,1,1.6-.31.8.8,0,0,1-.64,1A.82.82,0,0,1,140.62,4.77Z" fill="#262626"/><path d="M181.8,29.81a1.15,1.15,0,1,1,1.49-.64A1.16,1.16,0,0,1,181.8,29.81Z" fill="#262626"/><path d="M132.78,23.09a1.15,1.15,0,0,1-1.32-1.88,1.14,1.14,0,0,1,1.6.27A1.16,1.16,0,0,1,132.78,23.09Z" fill="#262626"/><path d="M128.07,52.19a3,3,0,1,1,4,1.3A3,3,0,0,1,128.07,52.19Z" fill="#b9bfd6"/><circle cx="199.36" cy="20.36" r="0.82" transform="translate(11.25 89.44) rotate(-26)" fill="#262626"/><path d="M172.6,18.91a3,3,0,1,1,1.14-4.08A3,3,0,0,1,172.6,18.91Z" fill="#b9bfd6"/><path d="M124.89,23.34a3,3,0,1,1,3-3A3,3,0,0,1,124.89,23.34Z" fill="#262626"/><path d="M156.42,15.58a.81.81,0,1,1,1.61-.19.81.81,0,1,1-1.61.19Z" fill="#262626"/><path d="M151.31,18.69a1.15,1.15,0,1,1-.8-1.42A1.16,1.16,0,0,1,151.31,18.69Z" fill="#262626"/><path d="M187,2.47a.81.81,0,0,1-.1,1.15.82.82,0,0,1-1.15-.1.82.82,0,0,1,1.25-1Z" fill="#262626"/><path d="M45.3,3.82A3,3,0,1,1,49,5.87,3,3,0,0,1,45.3,3.82Z" fill="#b9bfd6"/><path d="M42.57,28.22a.82.82,0,1,1,1.15.07A.81.81,0,0,1,42.57,28.22Z" fill="#262626"/><path d="M76.1,32.45a1.15,1.15,0,1,1-1.59.34A1.15,1.15,0,0,1,76.1,32.45Z" fill="#b9bfd6"/><path d="M48.07,41.52a.66.66,0,0,1-1-.86A.66.66,0,0,1,48,40.6.64.64,0,0,1,48.07,41.52Z" fill="#b9bfd6"/><path d="M107,38.67a.82.82,0,1,1,.69-.92A.81.81,0,0,1,107,38.67Z" fill="#262626"/><path d="M95.34,39.06a1.14,1.14,0,0,1,1.51.58,1.15,1.15,0,0,1-.58,1.52,1.14,1.14,0,0,1-1.51-.58A1.15,1.15,0,0,1,95.34,39.06Z" fill="#262626"/><path d="M39.9,45.73a1.15,1.15,0,1,1-.58,1.52A1.17,1.17,0,0,1,39.9,45.73Z" fill="#262626"/><path d="M107.91,23.64a3,3,0,1,1-3.7-2.06A3,3,0,0,1,107.91,23.64Z" fill="#b9bfd6"/><path d="M77.74,44.61a3,3,0,1,1,1.9-3.79A3,3,0,0,1,77.74,44.61Z" fill="#262626"/><path d="M90.91.74a.81.81,0,1,1-1-.65A.81.81,0,0,1,90.91.74Z" fill="#262626"/><path d="M110.7,11.7a.65.65,0,0,1,.83.42.65.65,0,0,1-.42.83.67.67,0,0,1-.83-.42A.66.66,0,0,1,110.7,11.7Z" fill="#b9bfd6"/><path d="M83.86,7.18a.66.66,0,1,1-.77-.53A.66.66,0,0,1,83.86,7.18Z" fill="#b9bfd6"/><path d="M55.33,53a.83.83,0,0,1,.32-1.11.81.81,0,0,1,1.11.32.82.82,0,0,1-.32,1.11A.83.83,0,0,1,55.33,53Z" fill="#262626"/><path d="M58.07,4.77a.81.81,0,1,1,1.6-.31.8.8,0,0,1-.64,1A.82.82,0,0,1,58.07,4.77Z" fill="#262626"/><path d="M99.25,29.81a1.15,1.15,0,1,1,1.49-.64A1.16,1.16,0,0,1,99.25,29.81Z" fill="#262626"/><path d="M50.23,23.09a1.15,1.15,0,1,1,.28-1.61A1.15,1.15,0,0,1,50.23,23.09Z" fill="#262626"/><path d="M45.52,52.19a3,3,0,1,1,4,1.3A3,3,0,0,1,45.52,52.19Z" fill="#b9bfd6"/><circle cx="116.81" cy="20.36" r="0.82" transform="translate(2.9 53.26) rotate(-26)" fill="#262626"/><path d="M90.05,18.91a3,3,0,1,1,1.14-4.08A3,3,0,0,1,90.05,18.91Z" fill="#b9bfd6"/><path d="M42.34,23.34a3,3,0,1,1,3-3A3,3,0,0,1,42.34,23.34Z" fill="#262626"/><path d="M73.87,15.58a.81.81,0,1,1,1.61-.19.81.81,0,1,1-1.61.19Z" fill="#262626"/><path d="M68.75,18.69A1.15,1.15,0,1,1,68,17.27,1.15,1.15,0,0,1,68.75,18.69Z" fill="#262626"/><path d="M104.43,2.47a.81.81,0,0,1-.1,1.15.82.82,0,1,1,.1-1.15Z" fill="#262626"/><path d="M24.41,38.67a.82.82,0,1,1,.69-.92A.81.81,0,0,1,24.41,38.67Z" fill="#262626"/><path d="M12.79,39.06a1.15,1.15,0,1,1-.59,1.52A1.16,1.16,0,0,1,12.79,39.06Z" fill="#262626"/><path d="M25.36,23.64a3,3,0,1,1-3.7-2.06A3,3,0,0,1,25.36,23.64Z" fill="#b9bfd6"/><path d="M8.36.74A.81.81,0,1,1,7.41.09.81.81,0,0,1,8.36.74Z" fill="#262626"/><path d="M28.15,11.7a.65.65,0,0,1,.83.42.65.65,0,0,1-.42.83.67.67,0,0,1-.83-.42A.66.66,0,0,1,28.15,11.7Z" fill="#b9bfd6"/><path d="M1.31,7.18a.66.66,0,1,1-.77-.53A.66.66,0,0,1,1.31,7.18Z" fill="#b9bfd6"/><path d="M16.7,29.81a1.15,1.15,0,1,1,1.49-.64A1.16,1.16,0,0,1,16.7,29.81Z" fill="#262626"/><circle cx="34.26" cy="20.36" r="0.82" transform="translate(-5.46 17.08) rotate(-26)" fill="#262626"/><path d="M7.5,18.91a3,3,0,1,1,1.14-4.08A3,3,0,0,1,7.5,18.91Z" fill="#b9bfd6"/><path d="M21.88,2.47a.81.81,0,0,1-.1,1.15.82.82,0,1,1,.1-1.15Z" fill="#262626"/></symbol><symbol id="New_Symbol_43" data-name="New Symbol 43" viewBox="0 0 121.53 179.17"><path d="M102.32,13.3a.83.83,0,1,1-.82-.82A.82.82,0,0,1,102.32,13.3Z" fill="#262626"/><path d="M76.8,19.52a.66.66,0,1,1-.57.75A.66.66,0,0,1,76.8,19.52Z" fill="#b9bfd6"/><path d="M56.13,30a.67.67,0,1,1-.56.75A.66.66,0,0,1,56.13,30Z" fill="#b9bfd6"/><path d="M49.15.1a1.16,1.16,0,1,1-.59,1.54A1.16,1.16,0,0,1,49.15.1Z" fill="#262626"/><path d="M116.85,28.28a3,3,0,1,1,1.92-3.82A3,3,0,0,1,116.85,28.28Z" fill="#b9bfd6"/><path d="M54.52,18.72a.82.82,0,1,1,0-1.16A.82.82,0,0,1,54.52,18.72Z" fill="#262626"/><path d="M73.49,27a1.16,1.16,0,1,1,1.44,1.83A1.16,1.16,0,0,1,73.49,27Z" fill="#b9bfd6"/><path d="M93.3,27.57a.66.66,0,1,1-.82,1,.66.66,0,0,1,.82-1Z" fill="#262626"/><path d="M64.73,7.46a.82.82,0,0,1,1.44-.8.82.82,0,0,1-1.44.8Z" fill="#262626"/><path d="M107.82,10.79a1.16,1.16,0,1,1,.63,1.52A1.17,1.17,0,0,1,107.82,10.79Z" fill="#262626"/><path d="M54.82,6.62a3,3,0,1,1,4.07,1.32A3,3,0,0,1,54.82,6.62Z" fill="#b9bfd6"/><path d="M84,21.75a1.16,1.16,0,1,1,1.57.51A1.16,1.16,0,0,1,84,21.75Z" fill="#262626"/><path d="M102.32,96.69a.83.83,0,1,1-.82-.83A.82.82,0,0,1,102.32,96.69Z" fill="#262626"/><path d="M54.6,41.16a3,3,0,1,1,3.74,2.07A3,3,0,0,1,54.6,41.16Z" fill="#b9bfd6"/><path d="M76.8,102.9a.67.67,0,1,1,.18,1.32.67.67,0,0,1-.18-1.32Z" fill="#b9bfd6"/><path d="M56.13,113.4a.66.66,0,1,1-.56.75A.66.66,0,0,1,56.13,113.4Z" fill="#b9bfd6"/><path d="M51.84,65.8a.83.83,0,0,1,1.24-1.09A.83.83,0,0,1,53,65.88.82.82,0,0,1,51.84,65.8Z" fill="#262626"/><path d="M85.7,70.07a1.16,1.16,0,1,1-1.6.35A1.16,1.16,0,0,1,85.7,70.07Z" fill="#b9bfd6"/><path d="M57.39,79.24a.67.67,0,0,1-.94.07.67.67,0,0,1-.06-.94.65.65,0,0,1,.93-.07A.67.67,0,0,1,57.39,79.24Z" fill="#b9bfd6"/><path d="M116.88,76.36a.83.83,0,1,1,.7-.94A.84.84,0,0,1,116.88,76.36Z" fill="#262626"/><path d="M105.14,76.75a1.16,1.16,0,1,1-.59,1.54A1.16,1.16,0,0,1,105.14,76.75Z" fill="#262626"/><path d="M49.15,83.49A1.16,1.16,0,1,1,48.56,85,1.16,1.16,0,0,1,49.15,83.49Z" fill="#262626"/><path d="M117.84,61.17a3,3,0,1,1-3.74-2.07A3,3,0,0,1,117.84,61.17Z" fill="#b9bfd6"/><path d="M116.85,111.67a3,3,0,1,1,1.92-3.83A3,3,0,0,1,116.85,111.67Z" fill="#b9bfd6"/><path d="M87.37,82.36a3,3,0,1,1,1.91-3.83A3,3,0,0,1,87.37,82.36Z" fill="#262626"/><path d="M54.52,102.11a.82.82,0,0,1-1.16,0,.82.82,0,1,1,1.16,0Z" fill="#262626"/><path d="M73.49,110.4A1.16,1.16,0,1,1,73.3,112,1.16,1.16,0,0,1,73.49,110.4Z" fill="#b9bfd6"/><path d="M93.3,111a.66.66,0,1,1-.82,1,.66.66,0,1,1,.82-1Z" fill="#262626"/><path d="M100.67,38.05a.82.82,0,0,1-1.62.29.82.82,0,1,1,1.62-.29Z" fill="#262626"/><path d="M120.66,49.11a.66.66,0,1,1-.42.84A.66.66,0,0,1,120.66,49.11Z" fill="#b9bfd6"/><path d="M93.54,44.55a.66.66,0,0,1-.53.77.67.67,0,1,1,.53-.77Z" fill="#b9bfd6"/><path d="M64.73,90.85a.83.83,0,0,1,.32-1.12.82.82,0,1,1-.32,1.12Z" fill="#262626"/><path d="M67.5,42.11a.82.82,0,1,1,1,.65A.81.81,0,0,1,67.5,42.11Z" fill="#262626"/><path d="M109.09,67.41a1.16,1.16,0,1,1,1.51-.65A1.17,1.17,0,0,1,109.09,67.41Z" fill="#262626"/><path d="M59.58,60.61a1.16,1.16,0,1,1-1.34-1.9,1.17,1.17,0,0,1,1.62.29A1.15,1.15,0,0,1,59.58,60.61Z" fill="#262626"/><path d="M107.82,94.18a1.16,1.16,0,0,1,2.15.89,1.16,1.16,0,1,1-2.15-.89Z" fill="#262626"/><path d="M54.82,90a3,3,0,1,1,4.07,1.31A3,3,0,0,1,54.82,90Z" fill="#b9bfd6"/><path d="M84,105.14a1.16,1.16,0,0,1,.51-1.56,1.16,1.16,0,1,1-.51,1.56Z" fill="#262626"/><path d="M99.8,56.39A3,3,0,1,1,101,52.27,3,3,0,0,1,99.8,56.39Z" fill="#b9bfd6"/><path d="M51.61,60.88a3,3,0,1,1,3-3A3,3,0,0,1,51.61,60.88Z" fill="#262626"/><path d="M83.45,53a.83.83,0,1,1,.92.72A.82.82,0,0,1,83.45,53Z" fill="#262626"/><path d="M78.29,56.17a1.16,1.16,0,1,1-.81-1.43A1.16,1.16,0,0,1,78.29,56.17Z" fill="#262626"/><path d="M114.33,39.79a.83.83,0,1,1-1.16-.1A.82.82,0,0,1,114.33,39.79Z" fill="#262626"/><path d="M54.6,124.54a3,3,0,1,1,3.74,2.07A3,3,0,0,1,54.6,124.54Z" fill="#b9bfd6"/><path d="M51.84,149.19a.83.83,0,1,1,1.16.07A.83.83,0,0,1,51.84,149.19Z" fill="#262626"/><path d="M85.7,153.46a1.16,1.16,0,1,1-1.6.35A1.15,1.15,0,0,1,85.7,153.46Z" fill="#b9bfd6"/><path d="M57.39,162.63a.67.67,0,0,1-.94.06.66.66,0,0,1-.06-.93.65.65,0,0,1,.93-.07A.67.67,0,0,1,57.39,162.63Z" fill="#b9bfd6"/><path d="M116.88,159.74a.82.82,0,1,1,.7-.93A.82.82,0,0,1,116.88,159.74Z" fill="#262626"/><path d="M105.14,160.14a1.16,1.16,0,1,1-.59,1.53A1.16,1.16,0,0,1,105.14,160.14Z" fill="#262626"/><path d="M49.15,166.88a1.15,1.15,0,0,1,1.53.58,1.16,1.16,0,1,1-2.12.95A1.15,1.15,0,0,1,49.15,166.88Z" fill="#262626"/><path d="M117.84,144.56a3,3,0,1,1-3.74-2.08A3,3,0,0,1,117.84,144.56Z" fill="#b9bfd6"/><path d="M87.37,165.74a3,3,0,1,1,1.91-3.82A3,3,0,0,1,87.37,165.74Z" fill="#262626"/><path d="M100.67,121.43a.82.82,0,1,1-1-.66A.82.82,0,0,1,100.67,121.43Z" fill="#262626"/><path d="M120.66,132.5a.66.66,0,1,1-.42.84A.66.66,0,0,1,120.66,132.5Z" fill="#b9bfd6"/><path d="M93.54,127.93a.66.66,0,0,1-.53.78.68.68,0,0,1-.78-.54.67.67,0,0,1,.54-.77A.65.65,0,0,1,93.54,127.93Z" fill="#b9bfd6"/><path d="M64.73,174.23a.82.82,0,1,1,1.12.33A.82.82,0,0,1,64.73,174.23Z" fill="#262626"/><path d="M67.5,125.5a.82.82,0,1,1,1,.65A.81.81,0,0,1,67.5,125.5Z" fill="#262626"/><path d="M109.09,150.79a1.15,1.15,0,0,1-.65-1.51,1.16,1.16,0,0,1,2.16.86A1.16,1.16,0,0,1,109.09,150.79Z" fill="#262626"/><path d="M59.58,144a1.16,1.16,0,1,1,.28-1.62A1.17,1.17,0,0,1,59.58,144Z" fill="#262626"/><path d="M107.82,177.57a1.16,1.16,0,1,1,.63,1.51A1.15,1.15,0,0,1,107.82,177.57Z" fill="#262626"/><path d="M54.82,173.4a3,3,0,1,1,4.07,1.31A3,3,0,0,1,54.82,173.4Z" fill="#b9bfd6"/><path d="M99.8,139.78a3,3,0,1,1,1.15-4.12A3,3,0,0,1,99.8,139.78Z" fill="#b9bfd6"/><path d="M51.61,144.26a3,3,0,1,1,3-3A3,3,0,0,1,51.61,144.26Z" fill="#262626"/><path d="M83.45,136.42a.83.83,0,1,1,1.64-.19.83.83,0,0,1-1.64.19Z" fill="#262626"/><path d="M78.29,139.56a1.16,1.16,0,1,1-.81-1.43A1.16,1.16,0,0,1,78.29,139.56Z" fill="#262626"/><path d="M114.33,123.18a.82.82,0,0,1-.11,1.16.83.83,0,0,1-1.16-.1.82.82,0,0,1,.11-1.16A.81.81,0,0,1,114.33,123.18Z" fill="#262626"/><path d="M18.93,13.3a.82.82,0,1,1-.82-.82A.82.82,0,0,1,18.93,13.3Z" fill="#262626"/><path d="M33.47,28.28a3,3,0,1,1,1.91-3.82A3,3,0,0,1,33.47,28.28Z" fill="#b9bfd6"/><path d="M9.92,27.57a.68.68,0,0,1,.1.94.67.67,0,1,1-.1-.94Z" fill="#262626"/><path d="M41.9,27.28a.82.82,0,1,1,1.12.33A.82.82,0,0,1,41.9,27.28Z" fill="#262626"/><path d="M24.43,10.79a1.16,1.16,0,1,1,.63,1.52A1.17,1.17,0,0,1,24.43,10.79Z" fill="#262626"/><path d="M.66,21.75a1.16,1.16,0,1,1,1.56.51A1.16,1.16,0,0,1,.66,21.75Z" fill="#262626"/><path d="M18.93,96.69a.82.82,0,0,1-1.64,0,.82.82,0,1,1,1.64,0Z" fill="#262626"/><path d="M2.32,70.07a1.16,1.16,0,1,1-1.61.35A1.16,1.16,0,0,1,2.32,70.07Z" fill="#b9bfd6"/><path d="M33.49,76.36a.82.82,0,0,1-.93-.7.83.83,0,0,1,.7-.94.83.83,0,0,1,.23,1.64Z" fill="#262626"/><path d="M21.75,76.75a1.16,1.16,0,1,1,.95,2.12,1.16,1.16,0,0,1-.95-2.12Z" fill="#262626"/><path d="M34.46,61.17a3,3,0,1,1-3.75-2.07A3,3,0,0,1,34.46,61.17Z" fill="#b9bfd6"/><path d="M33.47,111.67a3,3,0,1,1,1.91-3.83A3,3,0,0,1,33.47,111.67Z" fill="#b9bfd6"/><path d="M4,82.36A3,3,0,1,1,5.9,78.53,3,3,0,0,1,4,82.36Z" fill="#262626"/><path d="M9.92,111a.67.67,0,0,1,.1.93.66.66,0,0,1-.93.11.67.67,0,0,1-.11-.94A.68.68,0,0,1,9.92,111Z" fill="#262626"/><path d="M17.28,38.05a.81.81,0,0,1-.66,1,.82.82,0,0,1-1-.66.84.84,0,0,1,.66-1A.83.83,0,0,1,17.28,38.05Z" fill="#262626"/><path d="M37.27,49.11a.66.66,0,1,1-.42.84A.67.67,0,0,1,37.27,49.11Z" fill="#b9bfd6"/><path d="M10.16,44.55a.67.67,0,0,1-.54.77A.67.67,0,0,1,9.38,44,.68.68,0,0,1,10.16,44.55Z" fill="#b9bfd6"/><path d="M41.9,110.67a.82.82,0,0,1,.32-1.12.83.83,0,0,1,1.12.32.82.82,0,1,1-1.44.8Z" fill="#262626"/><path d="M25.7,67.41a1.18,1.18,0,0,1-.65-1.51,1.16,1.16,0,1,1,2.16.86A1.17,1.17,0,0,1,25.7,67.41Z" fill="#262626"/><path d="M24.43,94.18a1.16,1.16,0,1,1,.63,1.52A1.17,1.17,0,0,1,24.43,94.18Z" fill="#262626"/><path d="M.66,105.14a1.16,1.16,0,1,1,2.06-1.06,1.16,1.16,0,0,1-2.06,1.06Z" fill="#262626"/><circle cx="43.44" cy="57.86" r="0.82" transform="translate(-20.96 24.89) rotate(-26)" fill="#262626"/><path d="M16.41,56.39a3,3,0,1,1,1.15-4.12A3,3,0,0,1,16.41,56.39Z" fill="#b9bfd6"/><path d="M.06,53a.83.83,0,0,1,1.64-.19A.83.83,0,0,1,.06,53Z" fill="#262626"/><path d="M30.94,39.79a.82.82,0,1,1-1.16-.1A.82.82,0,0,1,30.94,39.79Z" fill="#262626"/><path d="M2.32,153.46a1.16,1.16,0,1,1-1.61.35A1.16,1.16,0,0,1,2.32,153.46Z" fill="#b9bfd6"/><path d="M33.49,159.74a.82.82,0,0,1-.93-.7.82.82,0,0,1,1.63-.23A.82.82,0,0,1,33.49,159.74Z" fill="#262626"/><path d="M21.75,160.14a1.16,1.16,0,1,1,.95,2.12,1.16,1.16,0,0,1-.95-2.12Z" fill="#262626"/><path d="M34.46,144.56a3,3,0,1,1-3.75-2.08A3,3,0,0,1,34.46,144.56Z" fill="#b9bfd6"/><path d="M4,165.74a3,3,0,1,1,1.92-3.82A3,3,0,0,1,4,165.74Z" fill="#262626"/><path d="M17.28,121.43a.81.81,0,0,1-.66,1,.82.82,0,1,1-.3-1.62A.82.82,0,0,1,17.28,121.43Z" fill="#262626"/><path d="M37.27,132.5a.66.66,0,0,1,.42,1.26.66.66,0,1,1-.42-1.26Z" fill="#b9bfd6"/><path d="M10.16,127.93a.68.68,0,0,1-.54.78.67.67,0,0,1-.77-.54.65.65,0,0,1,.53-.77A.66.66,0,0,1,10.16,127.93Z" fill="#b9bfd6"/><path d="M25.7,150.79a1.16,1.16,0,1,1,1.51-.65A1.16,1.16,0,0,1,25.7,150.79Z" fill="#262626"/><path d="M24.43,177.57a1.16,1.16,0,1,1,.63,1.51A1.16,1.16,0,0,1,24.43,177.57Z" fill="#262626"/><circle cx="43.44" cy="141.25" r="0.82" transform="translate(-57.51 33.33) rotate(-26)" fill="#262626"/><path d="M16.41,139.78a3,3,0,1,1,1.15-4.12A3,3,0,0,1,16.41,139.78Z" fill="#b9bfd6"/><path d="M.06,136.42a.84.84,0,0,1,.72-.92.83.83,0,0,1,.92.73.82.82,0,0,1-.72.91A.84.84,0,0,1,.06,136.42Z" fill="#262626"/><path d="M30.94,123.18a.82.82,0,0,1-.1,1.16.83.83,0,0,1-1.16-.1.82.82,0,0,1,.1-1.16A.81.81,0,0,1,30.94,123.18Z" fill="#262626"/></symbol></defs><g id="Layer_2" data-name="Layer 2"><g id="Layer_1-2" data-name="Layer 1"><g id="Props"><g id="fu_kitchen_counter" data-name="fu_kitchen counter"><path d="M6.38,29.84a2,2,0,0,1-2-2V23.07L11.59,6.58A8.5,8.5,0,0,1,19.38,1.5h529a8.49,8.49,0,0,1,7.78,5.08l7.25,16.49v4.74a2,2,0,0,1-2,2Z" transform="translate(2.12 10.92)" fill="#fff"/><path d="M548.33,3a7,7,0,0,1,6.41,4.18l7.12,16.21v4.42a.53.53,0,0,1-.53.53H6.38a.52.52,0,0,1-.53-.53V23.39L13,7.18A7,7,0,0,1,19.38,3h529m0-3H19.38a10,10,0,0,0-9.16,6L2.85,22.76v5a3.53,3.53,0,0,0,3.53,3.53h555a3.53,3.53,0,0,0,3.53-3.53v-5L557.49,6a10,10,0,0,0-9.16-6Z" transform="translate(2.12 10.92)" fill="#134160"/><g clip-path="url(#clip-path)"><use width="575.1" height="53.82" xlink:href="#New_Symbol_44"/></g><path d="M548.33,3a7,7,0,0,1,6.41,4.18l7.12,16.21v4.42a.53.53,0,0,1-.53.53H6.38a.52.52,0,0,1-.53-.53V23.39L13,7.18A7,7,0,0,1,19.38,3h529m0-3H19.38a10,10,0,0,0-9.16,6L2.85,22.76v5a3.53,3.53,0,0,0,3.53,3.53h555a3.53,3.53,0,0,0,3.53-3.53v-5L557.49,6a10,10,0,0,0-9.16-6Z" transform="translate(2.12 10.92)" fill="#134160"/><polygon points="423.28 47.92 285.97 47.92 148.67 47.92 11.37 47.92 11.37 250.49 148.67 250.49 285.97 250.49 423.28 250.49 560.58 250.49 560.58 47.92 423.28 47.92" fill="#d1c1ff" stroke="#7850b3" stroke-miterlimit="10" stroke-width="3"/><rect x="-7.98" y="78.88" width="171.75" height="118.81" rx="10" transform="translate(218.31 71.31) rotate(90)" fill="#fff" stroke="#7850b3" stroke-miterlimit="10" stroke-width="3"/><g clip-path="url(#clip-path-2)"><use width="121.53" height="179.17" transform="translate(21.29 58.2)" xlink:href="#New_Symbol_43"/></g><rect x="-7.98" y="78.88" width="171.75" height="118.81" rx="10" transform="translate(218.31 71.31) rotate(90)" fill="none" stroke="#7850b3" stroke-miterlimit="10" stroke-width="3"/><rect x="129.33" y="78.88" width="171.75" height="118.81" rx="10" transform="translate(355.61 -65.99) rotate(90)" fill="#fff" stroke="#7850b3" stroke-miterlimit="10" stroke-width="3"/><g clip-path="url(#clip-path-3)"><use width="121.53" height="179.17" transform="translate(158.6 58.2)" xlink:href="#New_Symbol_43"/></g><rect x="129.33" y="78.88" width="171.75" height="118.81" rx="10" transform="translate(355.61 -65.99) rotate(90)" fill="none" stroke="#7850b3" stroke-miterlimit="10" stroke-width="3"/><rect x="266.63" y="78.88" width="171.75" height="118.81" rx="10" transform="translate(492.91 -203.3) rotate(90)" fill="#fff" stroke="#7850b3" stroke-miterlimit="10" stroke-width="3"/><g clip-path="url(#clip-path-4)"><use width="121.53" height="179.17" transform="translate(295.9 58.2)" xlink:href="#New_Symbol_43"/></g><rect x="266.63" y="78.88" width="171.75" height="118.81" rx="10" transform="translate(492.91 -203.3) rotate(90)" fill="none" stroke="#7850b3" stroke-miterlimit="10" stroke-width="3"/><rect x="403.93" y="78.88" width="171.75" height="118.81" rx="10" transform="translate(630.22 -340.6) rotate(90)" fill="#fff" stroke="#7850b3" stroke-miterlimit="10" stroke-width="3"/><g clip-path="url(#clip-path-5)"><use width="121.53" height="179.17" transform="translate(433.2 58.2)" xlink:href="#New_Symbol_43"/></g><rect x="403.93" y="78.88" width="171.75" height="118.81" rx="10" transform="translate(630.22 -340.6) rotate(90)" fill="none" stroke="#7850b3" stroke-miterlimit="10" stroke-width="3"/><path d="M9.25,34.52A7.75,7.75,0,1,1,9.25,19H558.46a7.75,7.75,0,1,1,0,15.49Z" transform="translate(2.12 10.92)" fill="#1d6798"/><path d="M558.46,20.53a6.25,6.25,0,1,1,0,12.49H9.25a6.25,6.25,0,1,1,0-12.49H558.46m0-3H9.25A9.25,9.25,0,1,0,9.25,36H558.46a9.25,9.25,0,1,0,0-18.49Z" transform="translate(2.12 10.92)" fill="#134160"/></g></g></g></g></svg>