<svg xmlns="http://www.w3.org/2000/svg" viewBox="0 0 36.1 40.2"><g id="Layer_2" data-name="Layer 2"><g id="Layer_1-2" data-name="Layer 1"><g id="Props"><g id="fu_kitchen_utensil_ketle_1" data-name="fu_kitchen utensil_ketle 1"><path d="M25,39.2H4.6v-.3L6.3,26a.8.8,0,0,1,.2-.4.9.9,0,0,1,.6-.3H22.5l.5.2a.9.9,0,0,1,.3.5L25,39Z" style="fill:#750f15"/><path d="M9.4,26.2,8.5,38.8a8.7,8.7,0,0,1-3.9.1L6.3,26a.8.8,0,0,1,.2-.4C7.3,25.4,9,25.4,9.4,26.2Z" style="fill:#8c2b29"/><path d="M9.4,26.2a4.8,4.8,0,0,1,5.4.2V38.8a14.9,14.9,0,0,1-6.3,0Z" style="fill:#c94545"/><path d="M14.8,26.4a5.2,5.2,0,0,1,5.6-.2l1,12.7a20.8,20.8,0,0,1-6.6-.1Z" style="fill:#aa3535"/><path d="M25,39a10.9,10.9,0,0,1-3.6-.1l-1-12.7a2.7,2.7,0,0,1,2.6-.7.9.9,0,0,1,.3.5Z" style="fill:#8c2b29"/><path d="M4.3,7.6,6,21.3c0,.2.1.3.2.5s.4.3.6.3H22.7a.6.6,0,0,0,.6-.3.5.5,0,0,0,.3-.5L25.3,7.6Z" style="fill:#750f15"/><path d="M4.3,7.6,6,21.3c0,.2.1.3.2.5s2.6.1,3-.7L8.3,7.6Z" style="fill:#8c2b29"/><path d="M8.2,7.6l1,13.5c2.2,1.1,3.5,1,5.6-.2V7.6Z" style="fill:#c94545"/><path d="M14.8,7.6V20.9c2.2,1.2,3.5,1.3,5.8.2l1-13.5Z" style="fill:#aa3535"/><path d="M21.6,7.6l-1,13.5a2.7,2.7,0,0,0,2.7.7.5.5,0,0,0,.3-.5L25.3,7.6Z" style="fill:#8c2b29"/><path d="M22.2,24.6H7.4a.7.7,0,0,1-.3.7H22.5C22.2,25.2,22.2,24.9,22.2,24.6Z" style="fill:#8c2b29"/><path d="M4.3,7.6c.1.6.8,6.9.8,6.9C2.3,9.5,1.9,8.7,1,8.4H1l1.5-.8Z" style="fill:#91121a"/><polygon points="25.3 7.5 2.6 7.6 2.5 7.6 25.3 7.6 25.3 7.5" style="fill:#5c5c5c"/><rect x="8.2" y="7.4" width="6.6" height="0.21" style="fill:#f5f5f5"/><rect x="4.3" y="7.4" width="4" height="0.21" style="fill:#cecece"/><path d="M4.3,7.4H4c-1.2,0-1.2.1-1.4.2H4.3Z" style="fill:#ababab"/><rect x="14.8" y="7.4" width="6.8" height="0.21" style="fill:#dedede"/><rect x="21.6" y="7.4" width="3.7" height="0.21" style="fill:#cecece"/><polygon points="16 5 14.8 5 13.6 5 3.6 7.4 14.8 7.4 25.3 7.4 16 5" style="fill:#ababab"/><polygon points="3.6 7.4 5 7.1 4.3 7.4 3.6 7.4" style="fill:#999"/><polygon points="13.6 5 5 7.1 4.3 7.4 8.2 7.4 14 5 13.6 5" style="fill:#bfbfbf"/><polygon points="8.2 7.4 14 5 14.8 5 14.8 7.4 8.2 7.4" style="fill:#e0e0e0"/><polygon points="14.8 7.4 14.8 5 15.8 5 21.6 7.4 14.8 7.4" style="fill:#c7c7c7"/><polygon points="15.8 5 16 5 25.3 7.4 21.6 7.4 15.8 5" style="fill:#b3b3b3"/><polygon points="16.2 1.6 14.8 1 13.4 1.6 13 1.6 13.6 5 13.9 5 14.8 5 15.7 5 16 5 16.6 1.6 16.2 1.6" style="fill:#314d77"/><polygon points="12.8 29 11.8 29.5 10.9 28.9 11 27.7 12 27.2 12.9 27.9 12.8 29" style="fill:#8c8c8c"/><polygon points="12.6 29 11.6 29.5 10.7 28.9 10.8 27.7 11.8 27.2 12.7 27.9 12.6 29" style="fill:#cecece"/><circle cx="11.7" cy="28.4" r="0.9" style="fill:#eaeaea"/><path d="M12.2,28.4a.6.6,0,0,1-.6.6.7.7,0,0,1-.7-.6c0-.4.3-.6.7-.6A.6.6,0,0,1,12.2,28.4Z" style="fill:#cdcdcd"/><path d="M11.8,28.3a.4.4,0,0,1-.4.4c-.2,0-.3-.2-.3-.4a.3.3,0,0,1,.3-.3C11.6,28,11.8,28.1,11.8,28.3Z" style="fill:#eee"/><path d="M11.8,28.3a.4.4,0,0,1-.4.4c-.2,0-.3-.2-.3-.4a.3.3,0,0,1,.3-.3C11.6,28,11.8,28.1,11.8,28.3Z" style="fill:#828282"/><polygon points="11.8 27.2 12 27.2 12.9 27.9 12.7 27.9 11.8 27.2" style="fill:#afafaf"/><polygon points="11.6 29.5 11.8 29.5 12.8 29 12.6 29 11.6 29.5" style="fill:#acacac"/><polygon points="22.2 22 21.6 22 17.2 22 13.3 22 8.9 22 7.4 22 6.6 22 6.6 24.6 7.4 24.6 8.9 24.6 13.3 24.6 17.2 24.6 21.6 24.6 22.2 24.6 23 24.6 23 22 22.2 22" style="fill:gray"/><path d="M28.3,7.4a27.2,27.2,0,0,1,3.1-.3c.3.2,3.6,4.1,3.7,4.7s-4.6,13.4-5.2,14.1a20.3,20.3,0,0,1-4.2.6,6.6,6.6,0,0,1-.5-2.5c.4-.4.9.2,1.3.2a2.6,2.6,0,0,0,1.8-.4c.1-.1,5-11.9,2-12.5a4.7,4.7,0,0,0-2,.2.4.4,0,0,1-.4-.3Z" style="fill:#314d77"/><g style="opacity:0.2"><path d="M28.1,11.5v-.2l.4-3.7a14.2,14.2,0,0,1,3.1-.3l-.2-.2a27.2,27.2,0,0,0-3.1.3l-.4,3.8C27.9,11.3,28,11.4,28.1,11.5Z" style="fill:#ffe89f;stroke:#aa3535;stroke-miterlimit:10"/><path d="M25.4,24.1c.4-.3.9.3,1.3.3s1.2,0,1.7-.5S33.1,13,30.8,11.5c1.9,2-2.5,12.2-2.5,12.3a2.6,2.6,0,0,1-1.8.4c-.4,0-.9-.6-1.3-.2a6.6,6.6,0,0,0,.5,2.5h.1A5.7,5.7,0,0,1,25.4,24.1Z" style="fill:#ffe89f;stroke:#aa3535;stroke-miterlimit:10"/></g><polygon points="28.3 7.4 25.3 7.4 25.3 8 25.3 8 24.9 11.1 27.9 11.1 28.3 7.9 28.3 7.4" style="fill:#dedede"/><path d="M14.8,1l1.4.6h.4L16,5h0l9.3,2.4h3l2.9-.3h.4a30.8,30.8,0,0,1,3.5,4.5c.1.9-4.6,13.4-5.2,14.1a30.5,30.5,0,0,1-4.1.6h-.1a6.6,6.6,0,0,1-.5-2.5h.3l1,.3h0a2.6,2.6,0,0,0,1.8-.4h.1c.1-.1.1-.1.1-.2h.1c.1-.1.1-.1.1-.2s.1-.1.1-.2h0a.3.3,0,0,0,.1-.2c0-.1.1-.1.1-.2s0-.2.1-.2v-.2a.4.4,0,0,0,.1-.3c.1,0,.1-.1.1-.2a.3.3,0,0,0,.1-.2c0-.1.1-.1.1-.2a.4.4,0,0,1,.1-.3v-.2l.2-.3h0l.6-1.9h0a.6.6,0,0,0,.1-.4.3.3,0,0,0,.1-.2.4.4,0,0,1,.1-.3v-.2a.4.4,0,0,0,.1-.3c0-.1,0-.2.1-.2V14.8c0-.1.1-.1.1-.2v-.5a.4.4,0,0,1,.1-.3h0v-.3h0V13h0v-.3h-.1a1.9,1.9,0,0,0-.2-.7h-.1a.6.6,0,0,0-.6-.3c0-.1-.2-.1-.3-.1l-1.7.3H28a.1.1,0,0,1-.1-.1h-3L25.3,8h0L23.6,21.3a.5.5,0,0,1-.3.5.5.5,0,0,1-.4.2H23v2.6h-.8c0,.3,0,.6.3.7h0l.5.2a.9.9,0,0,1,.3.5L25,39v.2H4.6v-.3L6.3,26a.8.8,0,0,1,.2-.4.9.9,0,0,1,.6-.3h0a.7.7,0,0,0,.3-.7H6.6V22h.1l-.5-.2c-.1-.2-.2-.3-.2-.5l-.9-6.8h0C2.3,9.5,1.9,8.7,1,8.4H1l1.5-.8h.1c.1-.1.2-.2,1-.2L5,7.1,13.6,5h0L13,1.6h.4L14.8,1M3.7,7.4h0m.6.3h0M14.8,0h-.4L13.2.6H13a.9.9,0,0,0-.8.4.8.8,0,0,0-.2.8l.4,2.5L4.8,6.1l-1.3.3a2.4,2.4,0,0,0-1.4.3,8.7,8.7,0,0,0-1.7.9,1,1,0,0,0-.4,1,1.1,1.1,0,0,0,.8.8c.4.1,1.1,1.4,2.8,4.4l.6,1L5,21.4a3,3,0,0,0,.4,1c.1.1.2.1.2.2v2c0,.1.1.3.1.4a3.6,3.6,0,0,0-.4.9L3.6,38.7V39a1.9,1.9,0,0,0,.2.8.9.9,0,0,0,.8.4H25a.9.9,0,0,0,.8-.4A1.9,1.9,0,0,0,26,39h0l-1.7-13a3.6,3.6,0,0,0-.4-.9c0-.1.1-.3.1-.4v-2h0a2.3,2.3,0,0,0,.6-1.2l1.2-9.3h1.6a.5.5,0,0,0,.5.3h.6l1.5-.2h.1c.1,0,.1.1.2.4h0v.2h0v1.1h-.1v.5a.4.4,0,0,0-.1.3v.7h-.1v.4h-.1V17h0v.3h-.1a8.2,8.2,0,0,1-.6,1.9h0v.3h-.1v.3h0v.3h-.1v1.2h-.1v.2h0v.2H26.5a1.7,1.7,0,0,0-1-.3,1.4,1.4,0,0,0-.9.3,1.3,1.3,0,0,0-.4,1.2s.3,2.5,1,3h.6c.4,0,4.3-.3,4.9-1s5.6-13.4,5.4-14.8-3.2-4.5-3.7-5.1h-.2l-.3-.3h-.7l-2.9.3H25.4L17.2,4.3l.4-2.5a.8.8,0,0,0-.2-.8.9.9,0,0,0-.8-.4h-.2L15.2.1Z" style="fill:#5c1612"/></g></g></g></g></svg>