<svg xmlns="http://www.w3.org/2000/svg" viewBox="0 0 112.3 194.39"><g style="isolation:isolate"><g id="Layer_2" data-name="Layer 2"><g id="Layer_1-2" data-name="Layer 1"><g id="Props"><g id="na_potted_plant_8" data-name="na_potted plant 8"><path d="M65.22,3c.13,0,.27.16.41.51.49,1.2,1.21,8.36,1.89,17.43l.09,1.14c.06.77.11,1.55.17,2.34.08,1.19.17,2.39.25,3.62,0,.81.11,1.63.16,2.45.08,1.22.16,2.44.23,3.66v.15c.18,2.88.34,5.77.49,8.56L69,44.07c.08,1.59.16,3.15.22,4.65,0,.37,0,.75,0,1.12q.09,2,.15,3.81a44.15,44.15,0,0,1,2.81-9C79.88,28.18,86,16.23,88,9.47c0,0,.67,43.22-1.18,55.05-1.5,9.49-.38,16.91-1.19,21.57,5.37-6,8.8-8.27,12.69-17.44A218.33,218.33,0,0,0,107.17,43s6.77,26.33-4,46.81S79.36,112.62,78,118.45c-.09.39-.17.77-.24,1.15l1.67.26.27,0c1.12.18,2.18.38,3.16.6l.18,0c.48.1,1,.21,1.39.32h0c.47.11.92.24,1.34.36l.08,0,1.14.36.08,0c.38.13.74.26,1.08.4h.11a4.14,4.14,0,0,1,2.31.7,4.34,4.34,0,0,1,1.11,1.11,4.74,4.74,0,0,1,.38.7,4.13,4.13,0,0,1,.32,1.61v30.1h0c0,.67,0,1.33-.06,2,0,.2,0,.4,0,.59,0,.48-.08.95-.13,1.42,0,.2,0,.41-.08.61-.06.48-.13,1-.22,1.41l-.09.53c-.1.54-.22,1.08-.35,1.61,0,.09,0,.18,0,.26a35.11,35.11,0,0,1-2.84,7.57h0a33.6,33.6,0,0,1-1.71,3h0c-.62,1-1.28,1.89-2,2.78-.45.58-.92,1.15-1.41,1.69s-1.2,1.28-1.83,1.89a1.8,1.8,0,0,0-.2.19c-.64.6-1.29,1.17-2,1.72l-.06.05c-.67.54-1.36,1.05-2.06,1.55l-.17.11c-.69.48-1.41.93-2.14,1.36l-.34.2c-.74.42-1.48.82-2.25,1.19l-.1,0c-.74.35-1.49.67-2.26,1l-.39.15c-.77.29-1.55.56-2.34.79l-.47.14c-.82.23-1.65.44-2.5.61a35,35,0,0,1-7.07.72h0c-.56,0-1.11,0-1.66,0-.18,0-.35,0-.52,0L54,191.23l-.58-.06L52.34,191l-.55-.08-1.28-.23-.31-.06c-.52-.11-1-.23-1.55-.36l-.43-.11-1.12-.32-.53-.17-1-.34-.53-.19c-.36-.13-.71-.27-1.07-.42l-.4-.16c-.48-.21-1-.42-1.42-.65l-.28-.13-1.12-.58-.46-.25-.92-.53-.47-.29-.91-.58-.41-.27q-.64-.44-1.26-.9h0c-.6-.45-1.18-.92-1.75-1.41l-.42-.37c-.56-.49-1.11-1-1.64-1.53a33.51,33.51,0,0,1-2.27-2.49c-.71-.87-1.39-1.77-2-2.7a35,35,0,0,1-6-19.64v-30.1s0,0,0-.07a4.54,4.54,0,0,1,.07-.75,3.4,3.4,0,0,1,.12-.38c0-.13.07-.26.12-.38a3.8,3.8,0,0,1,.26-.49,1.28,1.28,0,0,1,.11-.2,3.64,3.64,0,0,1,.43-.54l.05-.06a4.11,4.11,0,0,1,2.81-1.24h0c.34-.14.71-.27,1.1-.41h0c.38-.13.78-.26,1.19-.38l.07,0c.84-.24,1.77-.48,2.78-.7l.14,0c1-.22,2.06-.42,3.2-.61l.23,0q1.7-.28,3.57-.51l.31,0,1-.11c-.32-1.15-.67-2.39-1-3.76-.15-.6-.32-1.17-.48-1.73-4.76-4.31-15.29-8.54-25.65-26.14-12.92-22-9-52.39-9-52.39A269.15,269.15,0,0,0,15.13,63.13c5.17,10.58,9,12.32,15.7,19.59a104,104,0,0,1,0-10.59,172.29,172.29,0,0,0-2.37-34.48c-1-5.41-2.37-20.29-2.37-21.81A19.55,19.55,0,0,1,33.9,29.19c.71,4.91,5.15,17.73,8.93,31.21C41,44.58,38,16.05,40.48,16.05a.4.4,0,0,1,.15,0,4.29,4.29,0,0,1,.5.29l.13.1a5.06,5.06,0,0,1,.43.39l.06.06a7.12,7.12,0,0,1,.46.57l.12.17c.13.19.25.39.38.6a1,1,0,0,1,.08.14c.15.26.29.53.44.83l.1.22c.12.25.23.51.35.78l.09.23c.14.34.27.69.41,1.05l.09.26c.1.3.21.62.31.95,0,.1.07.21.11.31.12.41.25.82.37,1.25l.07.25c.1.37.2.75.31,1.13l.09.39c.12.46.24.93.35,1.42,0,.05,0,.11,0,.16l.3,1.36c0,.15.07.29.1.44.1.47.2.95.29,1.43a.75.75,0,0,0,0,.16l.3,1.62.09.48c.09.47.17.94.25,1.41,0,.11,0,.21.05.31.1.56.19,1.13.28,1.7,0,.17.06.33.08.5.08.47.15.94.22,1.42l.06.4c.09.59.18,1.18.26,1.78l.06.45c.07.49.14,1,.2,1.48l.06.46.24,1.81c0,.14,0,.27.05.41L49,46.76l.06.51.21,1.83,0,.27L49.51,51c0,.16,0,.32.05.48.07.62.13,1.24.19,1.85h0c.07.63.13,1.25.19,1.87,0,.14,0,.27,0,.41l.15,1.67,0,.18c.06.61.11,1.21.16,1.81l0,.34c0,.54.1,1.07.14,1.6,0,.07,0,.13,0,.2,0,.59.09,1.16.14,1.73a2.83,2.83,0,0,1,0,.29v0c.27-1.29.55-2.54.82-3.77V52.49c0-.56,0-1.12,0-1.68v-.38c0-.64,0-1.28,0-1.92V48.3c0-.55,0-1.1,0-1.65v-.57l0-1.7v-.17q0-.93,0-1.83c0-.18,0-.36,0-.53l0-1.48V40c0-.59,0-1.17,0-1.75,0-.17,0-.35,0-.52,0-.46,0-.92,0-1.38,0-.15,0-.3,0-.45,0-.57,0-1.13,0-1.69,0-.15,0-.3,0-.45,0-.44,0-.88,0-1.31,0-.15,0-.31,0-.46,0-.54,0-1.08.07-1.6,0-.11,0-.22,0-.33,0-.42.05-.85.07-1.26,0-.16,0-.32,0-.47,0-.5.06-1,.09-1.47,0-.05,0-.09,0-.14l.09-1.3,0-.39c0-.41.06-.8.1-1.19a.86.86,0,0,1,0-.16c0-.43.08-.84.11-1.23,0-.12,0-.23,0-.34,0-.32.07-.63.1-.93l0-.24c0-.35.09-.69.14-1,0-.08,0-.16,0-.25,0-.26.07-.5.12-.74l0-.21c0-.29.11-.55.16-.8,0-.05,0-.1,0-.15s.09-.38.14-.55a1.09,1.09,0,0,1,0-.17c.06-.19.12-.37.18-.53l0-.06a2.15,2.15,0,0,1,.17-.34l.06-.09a.71.71,0,0,1,.21-.24l2,23.66c1.44-8.76,1.44-23.33,1.44-23.33s1.78,7.06,3.71,16.31c.19-2.13.35-4.29.61-6.68.12-1.08.26-2.21.42-3.41l.24-1.83c.08-.62.16-1.24.23-1.86C63.36,12.9,63.92,7,64.54,4.41A4.19,4.19,0,0,1,65,3.17c.08-.11.16-.17.24-.17m0-3h0A3.27,3.27,0,0,0,62.5,1.48a6.76,6.76,0,0,0-.88,2.24c-.5,2.14-.93,5.9-1.43,10.27,0,.22,0,.45-.07.68a3,3,0,0,0-2.64-1.59,2.22,2.22,0,0,0-.37,0,2.9,2.9,0,0,0-1.11.36,3.46,3.46,0,0,0-.73-.46,3,3,0,0,0-3,.34,3.88,3.88,0,0,0-.89,1l-.15.23a6.82,6.82,0,0,0-.34.66c0,.05,0,.11-.07.17q-.13.33-.27.78l-.05.17,0,.05q-.09.33-.18.69l0,.18c-.06.28-.12.58-.18.91l0,.16v.08c0,.25-.09.52-.13.81v.07l0,.19c-.05.35-.1.71-.15,1.09v.24c0,.32-.08.64-.11,1l0,.35q-.06.62-.12,1.26v.18c0,.39-.07.8-.1,1.21l0,.4-.09,1.33v.14c0,.44-.06.9-.08,1.36l-.24-1v0l0-.14-.36-1.46-.1-.39c-.11-.42-.21-.81-.32-1.2l0-.09-.05-.18c-.12-.45-.26-.89-.39-1.31l-.09-.28,0-.07c-.11-.35-.23-.69-.34-1l0-.09L47,20.5q-.22-.62-.45-1.17l-.07-.18,0-.07c-.14-.32-.27-.62-.4-.9l0-.06-.09-.2c-.18-.37-.35-.7-.53-1a1,1,0,0,0-.1-.17c-.16-.28-.33-.55-.5-.79l-.16-.23a9.68,9.68,0,0,0-.69-.85l-.14-.14a7.11,7.11,0,0,0-.7-.63l-.25-.18a5.37,5.37,0,0,0-1.07-.61,3.3,3.3,0,0,0-1.31-.27h0A3.33,3.33,0,0,0,38,14.2c-.79.88-1.84,2.05-1.2,14a22.54,22.54,0,0,0-9-14.85,3.09,3.09,0,0,0-1.61-.46,3,3,0,0,0-1.44.37,3,3,0,0,0-1.56,2.63c0,1.63,1.37,16.73,2.42,22.36A167.19,167.19,0,0,1,27.86,72c-.06,1.13-.1,2.25-.12,3.34a41.53,41.53,0,0,1-9.91-13.5A270.62,270.62,0,0,1,6.42,34.23a3,3,0,0,0-2.84-2l-.3,0a3,3,0,0,0-2.67,2.6C.44,36.09-3.29,66.53,10,89.1A69.76,69.76,0,0,0,32.29,113c1.27.89,2.4,1.69,3.31,2.43.07.26.14.52.21.8s.08.3.13.46l-1.51.23-.25,0c-1.18.2-2.3.41-3.34.64l-.08,0H30.7c-1.08.24-2.08.49-3,.75l-.06,0-1.33.42-.82.3a7.06,7.06,0,0,0-4.29,2.1l-.15.17a8,8,0,0,0-.68.86c-.08.13-.15.26-.22.4a5.71,5.71,0,0,0-.41.79,5.65,5.65,0,0,0-.21.61v0a6.14,6.14,0,0,0-.19.67,8.08,8.08,0,0,0-.13,1.15c0,.07,0,.16,0,.26v30.1a37.9,37.9,0,0,0,6.51,21.31c.68,1,1.42,2,2.2,2.94s1.6,1.84,2.46,2.7c.52.52,1.08,1.05,1.78,1.66l.46.4c.7.6,1.29,1.08,1.88,1.51l0,0c.42.32.87.63,1.37,1l.31.2.13.09,1,.63.52.32,1,.57.11.06.39.21c.4.22.81.43,1.22.63l.08,0,.22.11c.49.23,1,.47,1.55.7l.3.12.13.05c.39.16.77.32,1.16.46l.53.19c.4.15.76.27,1.13.39l.58.18c.4.12.81.24,1.21.34l.14,0,.33.09c.57.15,1.14.28,1.69.39l.24.05h.09c.46.09.93.18,1.39.25l.46.07.13,0,1.19.15.63.06,1.23.1h.16l.41,0c.65,0,1.24,0,1.8,0a37.88,37.88,0,0,0,7.67-.78c.84-.17,1.7-.38,2.71-.67l.14,0,.37-.1c.87-.26,1.72-.55,2.55-.86l.29-.11.13-.06c.89-.34,1.7-.69,2.46-1.05l.1-.05c.78-.37,1.58-.79,2.45-1.29l0,0,.32-.18c.81-.48,1.6-1,2.32-1.47l.15-.11c.81-.56,1.57-1.13,2.27-1.7l.06,0c.71-.58,1.4-1.2,2.13-1.88l.22-.21c.72-.7,1.37-1.37,2-2s1-1.16,1.53-1.84a35.8,35.8,0,0,0,2.16-3c.67-1,1.29-2.13,1.86-3.23h0a38.09,38.09,0,0,0,3.08-8.22l0-.2v-.07c.14-.59.27-1.18.38-1.77l.09-.53c.1-.54.18-1,.24-1.56v-.07c0-.2.06-.4.08-.6.06-.51.1-1,.14-1.54v-.19c0-.15,0-.3,0-.45,0-.76.06-1.45.06-2.13V126.17a7.12,7.12,0,0,0-6.63-7.11l-.71-.25-.08,0c-.4-.13-.82-.27-1.27-.4l-.09,0c-.45-.13-.93-.27-1.44-.39s-1-.24-1.5-.35l-.06,0-.12,0-1.28-.27c.9-.86,2.17-1.83,3.55-2.89a64.85,64.85,0,0,0,20-23.17c11.2-21.26,4.56-47.84,4.27-49A3,3,0,0,0,107.19,40h0a3,3,0,0,0-2.89,2.22,221.35,221.35,0,0,1-8.73,25.22A35,35,0,0,1,89,78.09,79.6,79.6,0,0,1,89.77,65C91.65,53,91,11.2,91,9.43A3,3,0,0,0,88.4,6.5l-.41,0a3,3,0,0,0-2.87,2.14c-1.44,4.78-5.22,12.74-10,22.82l-3.43,7.24c-.08-1.51-.17-3-.26-4.56V34c-.08-1.23-.16-2.45-.23-3.67-.06-.83-.11-1.65-.17-2.47-.08-1.22-.16-2.43-.25-3.62-.06-.8-.11-1.58-.17-2.35l-.09-1.15C69.29,4.52,68.67,3,68.4,2.37A3.4,3.4,0,0,0,65.22,0Z" fill="#2d5b1d"/><path d="M45.81,75.81S44.28,61.1,43.33,53.16c-.9-7.55-2-34.48-2-34.48s4.4,12.84,5.07,18.48S52,77.72,51.9,78.06s-4.29,5.86-4.29,5.86L45.7,82.34Z" fill="#3b783a"/><path d="M43.18,129.45s-1.84-4-4.47-14-6.31-12.79-6.83-28.78S32,55.88,30.4,43.89,25.14,17.5,28.82,20.3s14.2,42,15.25,50.38c0,0-7.17-56.16-3.44-54.6C49,19.58,51.7,79.34,51.7,79.34S50.43,18.45,54,15.75L58.46,68.3a39.33,39.33,0,0,1,.07-20c2.89-11.2,2.37-16.4,3.68-26s2.1-22,3.42-18.79,4.21,48.77,3.94,60c0,0,2.11-12.8,6.05-21.19S86.68,17,86.68,17s-.39,55.11-1.18,64.7-8.12,37.4-12,46.91C73.5,128.65,43.71,128.65,43.18,129.45Z" fill="#488b45"/><path d="M35.67,43.24l9.47,33.69L43.78,57.22,42.32,37.38l-1.13-18,2,4.95a28,28,0,0,1,1.68,6.3l5.61,38.45.62-.54c-1.24-17.4-4.34-49.88-10.42-52.43-3.73-1.56,3.44,54.6,3.44,54.6-.63-5-4.59-20.82-8.47-33.44Z" fill="#edd776"/><path d="M54,15.75c-2.62,2-2.67,34.58-2.5,52.32l1.71-1.5,9-15.55L60.51,38.48a86.35,86.35,0,0,1-2,9.81,41.65,41.65,0,0,0-1.17,6.93Z" fill="#edd776"/><path d="M53.25,63.19s-.79-17.47-.56-23.89.67-15,.67-15l4.4,37.53Z" fill="#488b45"/><path d="M69.57,63.48c.27-11.2-2.63-56.77-3.94-60S63.52,12.7,62.21,22.3s-.79,14.79-3.68,26a41.41,41.41,0,0,0-1.26,12.22L56.9,58.1c-.12,10.23-.1,23.47.33,32.45.67,14.2,5.24,37.52,5.24,37.52l-.11.63,8.84,0,.39-19.17,9-70.31-.84-6c-1.46,3.33-2.92,6.57-4.09,9.07C71.68,50.68,69.57,63.48,69.57,63.48Z" fill="#3b783a" opacity="0.52" style="mix-blend-mode:multiply"/><path d="M79.71,33.22c-1.46,3.33-2.92,6.57-4.09,9.07-3.94,8.39-6.05,21.19-6.05,21.19.27-11.2-2.63-56.77-3.94-60S63.52,12.7,62.21,22.3s-.79,14.79-3.68,26a41.41,41.41,0,0,0-1.26,12.22L56.9,58.1c0,3.31-.06,6.94-.06,10.64l4.63-24.37s1.92-20.51,2.6-23.67.45-10.93,1.35-9.57,2.14,22.31,2.14,27.27.11,18,.22,24.67,1,28.06,1.13,36.63-1.58,21.18-1.58,21.18l-2.81,3.72-3.43-4.08c.78,4.53,1.38,7.55,1.38,7.55l-.11.63,8.84,0,.39-19.17,9-70.31Z" fill="#edd776"/><path d="M28.82,20.3s4.85,8.33,8.23,24.78,9.47,23.67,10.37,41.25,2,36.51,2,36.51-3.37-25-17.57-36.17c0,0-.68-40.24-2.26-51.28S28.82,20.3,28.82,20.3Z" fill="#3b783a"/><path d="M48.6,108.16c-.36-6.46-.79-14.27-1.18-21.83a69.68,69.68,0,0,0-1.49-11.39A24.07,24.07,0,0,0,40.85,90.8a84.45,84.45,0,0,0-9.11-10.69c.1,4,.14,6.56.14,6.56,7.62,6,12.12,16,14.65,23.91Z" fill="#3b783a" opacity="0.52" style="mix-blend-mode:multiply"/><path d="M37.81,64.88c1.47.79,2.48,8.45.34,8.34S36.35,64.09,37.81,64.88Z" fill="#fae99c" opacity="0.73"/><path d="M40.63,80.54c1.46.68,1.91,6,.22,6.42S39.16,79.86,40.63,80.54Z" fill="#fae99c" opacity="0.73"/><path d="M36,79.75c1.69.23,2.93,7,1.12,7.44S34.32,79.53,36,79.75Z" fill="#fae99c" opacity="0.73"/><path d="M66.21,128.88s-.41-48.36,3.36-65.4S83.12,19.21,86.68,17c0,0,1.31,35.25-.49,42.69S85.51,87,85.51,87,76,99,73.79,104.58s-2.34,23.63-2.34,23.63Z" fill="#3b783a"/><path d="M71.45,128.21s.09-18,2.34-23.63S85.51,87,85.51,87s-.18-3.23-.28-7.57c-9.75,4.87-15.43,12.85-18.7,21.15-.43,15.07-.32,28.3-.32,28.3Z" fill="#3b783a" opacity="0.52" style="mix-blend-mode:multiply"/><path d="M32,91.73s-1.86-5.91-1.18-19.6a172.29,172.29,0,0,0-2.37-34.48c-1-5.41-2.37-20.29-2.37-21.81A19.55,19.55,0,0,1,33.9,29.19c1.35,9.3,16.06,47,14.37,63.73,0,0-5.58-19.1-7.44-30.6s-8.11-35-12-39.89c0,0,4.9,23.84,5.07,37.53S32,91.73,32,91.73Z" fill="#fae99c"/><path d="M66.8,105.71s-2.25-44.63,5.41-61.08S86,16.23,88,9.47c0,0,.67,43.22-1.18,55.05S87.14,85,84.61,89c0,0-1.35-18.59-.17-29.24s1.35-39.22,1.35-39.22S74.3,43.9,71.09,58.27,66.8,105.71,66.8,105.71Z" fill="#fae99c"/><path d="M57.33,191.39h0a35.12,35.12,0,0,1-35.12-35.12v-30.1a4.12,4.12,0,0,1,4.12-4.12h62a4.11,4.11,0,0,1,4.12,4.12v30.1A35.11,35.11,0,0,1,57.33,191.39Z" fill="#e57225"/><path d="M92.44,156.27v-1.9c-26.38,22.9-53.32,12.61-70.23,1.21v.69a35.12,35.12,0,0,0,35.12,35.12h0A35.11,35.11,0,0,0,92.44,156.27Z" fill="#060707" opacity="0.11"/><path d="M91.47,124.84c0,3.61-15.34,6.54-34.25,6.54S23,128.45,23,124.84s15.34-6.55,34.26-6.55S91.47,121.22,91.47,124.84Z" fill="#e57225"/><path d="M89.69,125.31c0,3.11-14.72,5.63-32.87,5.63S24,128.42,24,125.31s14.71-5.63,32.86-5.63S89.69,122.2,89.69,125.31Z" fill="#451926"/><path d="M57.22,118.29c13.69,0,25.51,1.54,31,3.76h.11a4.11,4.11,0,0,1,4.12,4.12v30.1h0A35,35,0,0,1,84.88,178c-.45.58-.92,1.15-1.41,1.69a35.1,35.1,0,0,1-47.15,4.7,35.41,35.41,0,0,1-3.82-3.31,35,35,0,0,1-10.29-24.83v-30.1a4.12,4.12,0,0,1,4-4.11c5.47-2.23,17.3-3.77,31-3.77m0-3c-13.46,0-25.52,1.46-31.71,3.82a7.08,7.08,0,0,0-6.3,7.06v30.1A38.11,38.11,0,0,0,85.7,181.72c.5-.56,1-1.16,1.53-1.84a37.95,37.95,0,0,0,8.21-23.61v-30.1a7.13,7.13,0,0,0-6.63-7.11c-6.22-2.33-18.22-3.77-31.59-3.77Z" fill="#6a3417"/><path d="M49.27,126.81s.76-19-11.06-35.09S21.93,77.06,15.13,63.13A269.15,269.15,0,0,1,3.58,35.19s-3.92,30.44,9,52.39,26.1,23.11,28,29.54a41.28,41.28,0,0,1,1.77,11.79Z" fill="#fae99c"/><path d="M49.28,126.93A52.66,52.66,0,0,0,38.83,96.69c-11-14.94-20.9-19.92-27.23-32.87S4.72,43.18,4.72,43.18,2.15,68.3,15.7,87.45c12.16,17.18,24.4,23.15,26.2,29.14a33.2,33.2,0,0,1,1,12.29Z" fill="#478b44"/><path d="M9.78,71.11c1.47.23,3.72,4.74,2,5.3S8.32,70.89,9.78,71.11Z" fill="#fae99c" opacity="0.73"/><path d="M70.34,127.77A49,49,0,0,1,78,95.93C88.3,80.72,92.85,81.51,98.31,68.65A220.52,220.52,0,0,0,107.17,43s6.77,26.33-4,46.81S79.36,112.62,78,118.45A31.89,31.89,0,0,0,77.38,129Z" fill="#fae99c"/><path d="M70.09,129.05a46.2,46.2,0,0,1,7.8-28.7c9.54-14.16,18.93-19.46,24-31.43s4.91-18.77,4.91-18.77S111.72,71.94,100,90c-10.48,16.23-22.09,22.64-23.32,28.06A26.08,26.08,0,0,0,76.89,129Z" fill="#478b44"/><path d="M87,92c1,1.35-3.71,6.76-5.07,6.34C79.28,97.51,86,90.64,87,92Z" fill="#fae99c" opacity="0.73"/><path d="M88.75,95.54c.84.5-1.52,3.29-3.21,3.21S87.9,95,88.75,95.54Z" fill="#fae99c" opacity="0.73"/><path d="M91.54,98.5c.93,1.18-2.28,5.15-4.82,5.15S90.61,97.31,91.54,98.5Z" fill="#fae99c" opacity="0.73"/><path d="M99,77.28c.59.93-1.69,4.06-2.88,3.47S98.38,76.35,99,77.28Z" fill="#fae99c" opacity="0.73"/><path d="M100,79.56c.68.85-.85,3.89-2.11,3.47S99.31,78.72,100,79.56Z" fill="#fae99c" opacity="0.73"/><path d="M101.51,82c.42.85-.59,3.89-2.11,4S101.09,81.17,101.51,82Z" fill="#fae99c" opacity="0.73"/><path d="M12.94,70.27c1.1,0,5,4.48,3.38,5.41S11.84,70.27,12.94,70.27Z" fill="#fae99c" opacity="0.73"/><path d="M7.43,59.1c.93.2,3.4,4.67,1.88,5.17S6.5,58.91,7.43,59.1Z" fill="#fae99c" opacity="0.73"/><path d="M23.33,81.88c2-.08,5.62,4.6,4.11,5.88S21.34,82,23.33,81.88Z" fill="#fae99c" opacity="0.73"/><path d="M35.16,102.76c2-.08,5.62,4.6,4.11,5.87S33.17,102.84,35.16,102.76Z" fill="#fae99c" opacity="0.73"/><path d="M18,85.22c1.54-.12,5.9,5.35,3.65,5.75S16.47,85.33,18,85.22Z" fill="#fae99c" opacity="0.73"/><path d="M22.8,86.68c1.19-.09,4.57,4.15,2.83,4.46S21.61,86.77,22.8,86.68Z" fill="#fae99c" opacity="0.73"/><path d="M83.87,32.06c1.21.75-.18,6.6-2.23,6.6S82.67,31.32,83.87,32.06Z" fill="#fae99c" opacity="0.73"/><path d="M78.52,44.41c1.36,1.35-.34,5.63-2.25,6.19S77.17,43.05,78.52,44.41Z" fill="#fae99c" opacity="0.73"/><path d="M73.85,65.58c1.51,1.17.37,5.63-1.46,6.43S72.34,64.4,73.85,65.58Z" fill="#fae99c" opacity="0.73"/><path d="M82,67.38c1.51,1.17.38,5.63-1.45,6.43S80.45,66.21,82,67.38Z" fill="#fae99c" opacity="0.73"/><path d="M82.41,44.84c1.52,1.17.38,5.63-1.45,6.43S80.9,43.67,82.41,44.84Z" fill="#fae99c" opacity="0.73"/><path d="M78,63.77c1.51,1.17.37,5.64-1.46,6.43S76.51,62.6,78,63.77Z" fill="#fae99c" opacity="0.73"/><path d="M46.21,86.85c2.93-18.48,7.66-37.18,9.46-45.52s1.8-25.25,1.8-25.25,9.92,39.44,8.34,54.09-3.6,32.46-3.15,40.8,7.69,18.29,7.69,18.29-19.19.41-20.09.64S43.44,104.32,46.21,86.85Z" fill="#fae99c"/><path d="M68.54,129.3c-2.19-3.65-7.27-12.72-7.8-18.9-.67-7.89,5.07-37.41,3.38-49.8C62.81,51,58.49,26.11,58.49,26.11s0,14-2.48,24.79S46.54,86.18,47.56,103a177.18,177.18,0,0,0,3.75,26.84C54.58,129.63,64.45,129.39,68.54,129.3Z" fill="#478b44"/><path d="M53.19,120.43c1.35.68,3.21,6.59.68,7.1S51.84,119.76,53.19,120.43Z" fill="#fae99c" opacity="0.73"/><path d="M62.32,121.45c1.35.67,3.21,6.59.68,7.09S61,120.77,62.32,121.45Z" fill="#fae99c" opacity="0.73"/><path d="M56.08,106.07c1.17.58,2.78,5.7.59,6.14S54.91,105.48,56.08,106.07Z" fill="#fae99c" opacity="0.73"/><path d="M59.54,90.65c1,.89,1.08,6.25-1.15,6.06S58.58,89.77,59.54,90.65Z" fill="#fae99c" opacity="0.73"/><path d="M51.69,106.14c1.4.85,2.89,7.38.12,7.7S50.3,105.3,51.69,106.14Z" fill="#fae99c" opacity="0.73"/><path d="M52.67,91c1,.89,1.08,6.25-1.15,6.06S51.71,90.11,52.67,91Z" fill="#fae99c" opacity="0.73"/><path d="M57.42,122c1.46.22,2.7,6,.9,6.42S56,121.78,57.42,122Z" fill="#fae99c" opacity="0.73"/><path d="M56.18,70.06c1.46.34.34,7.44-1.69,7.33S54.71,69.72,56.18,70.06Z" fill="#fae99c" opacity="0.73"/><path d="M57.87,78.63C59,80,58,85.72,56.18,85.27S56.74,77.27,57.87,78.63Z" fill="#fae99c" opacity="0.73"/><path d="M104.57,69.58c.6.77-.09,3.94-1.63,4.12S104,68.81,104.57,69.58Z" fill="#fae99c" opacity="0.73"/><path d="M106.32,63.33c.45.46.25,2.56-.73,2.78S105.88,62.88,106.32,63.33Z" fill="#fae99c" opacity="0.73"/><path d="M62.15,71c1.13,1.35.11,7.1-1.69,6.65S61,69.61,62.15,71Z" fill="#fae99c" opacity="0.73"/><path d="M59.78,55.86c1.13,1.36.12,7.1-1.69,6.65S58.66,54.51,59.78,55.86Z" fill="#fae99c" opacity="0.73"/></g></g></g></g></g></svg>