<svg xmlns="http://www.w3.org/2000/svg" viewBox="0 0 451.4 180.03"><g style="isolation:isolate"><g id="Layer_2" data-name="Layer 2"><g id="Layer_1-2" data-name="Layer 1"><g id="Props"><g id="fu_table"><path d="M210.36,108.35l2.13,62.84a7.29,7.29,0,0,0,6.27,7,50.4,50.4,0,0,0,8,.35,29.31,29.31,0,0,0,4.37-.39,7.28,7.28,0,0,0,6-6.75l3.73-62.84a7.29,7.29,0,0,0-7.27-7.71H217.64A7.29,7.29,0,0,0,210.36,108.35Z" fill="#b57c48"/><path d="M226.4,106.39c.59,7.67,1.22,25.49.44,66.08a5.15,5.15,0,0,0,6.69,5.06l.13-.05a5.1,5.1,0,0,0,3.36-4.55L241,106.3a5.18,5.18,0,0,0-5.17-5.48h-4.24A5.17,5.17,0,0,0,226.4,106.39Z" fill="#d99b65"/><path d="M30.62,44l2.19,74.41a7.27,7.27,0,0,0,6.2,7,46.61,46.61,0,0,0,8,.39,27,27,0,0,0,4.41-.43,7.3,7.3,0,0,0,6-6.79l3.82-74.4a7.28,7.28,0,0,0-7.27-7.65h-16A7.28,7.28,0,0,0,30.62,44Z" fill="#b57c48"/><path d="M46.54,42c.62,8.73,1.44,29.93.58,77.68a5.11,5.11,0,0,0,6.75,5l.19-.07a5.1,5.1,0,0,0,3.23-4.52l4-78.18a5.14,5.14,0,0,0-5.14-5.42H51.68A5.15,5.15,0,0,0,46.54,42Z" fill="#d99b65"/><path d="M390,44l2.19,74.41a7.27,7.27,0,0,0,6.2,7,46.61,46.61,0,0,0,8,.39,27.2,27.2,0,0,0,4.42-.43,7.29,7.29,0,0,0,6-6.79l3.82-74.4a7.27,7.27,0,0,0-7.27-7.65h-16A7.28,7.28,0,0,0,390,44Z" fill="#b57c48"/><path d="M406,42c.63,8.73,1.44,29.93.58,77.68a5.12,5.12,0,0,0,6.75,5l.19-.07a5.08,5.08,0,0,0,3.23-4.52l4-78.18a5.16,5.16,0,0,0-5.15-5.42H411.1A5.15,5.15,0,0,0,406,42Z" fill="#d99b65"/><path d="M225,180a48.85,48.85,0,0,1-6.44-.38,8.75,8.75,0,0,1-7.56-8.41l-2.13-62.84a8.78,8.78,0,0,1,8.77-9.08h15.93a8.77,8.77,0,0,1,8.76,9.3l-3.72,62.84a8.73,8.73,0,0,1-7.28,8.14,27.07,27.07,0,0,1-4.62.41Zm-13.14-71.74L214,171.14a5.76,5.76,0,0,0,5,5.53,48.29,48.29,0,0,0,7.71.34,26.75,26.75,0,0,0,4.14-.37,5.75,5.75,0,0,0,4.8-5.35l3.72-62.85a5.77,5.77,0,0,0-5.77-6.12H217.64a5.79,5.79,0,0,0-5.78,6Z" fill="#754c29"/><path d="M45.29,127.27a44.42,44.42,0,0,1-6.5-.42,8.78,8.78,0,0,1-7.48-8.43L29.12,44a8.78,8.78,0,0,1,8.78-9h16a8.77,8.77,0,0,1,8.77,9.23l-3.82,74.4a8.77,8.77,0,0,1-7.18,8.19,28.4,28.4,0,0,1-4.69.45ZM37.9,38a5.77,5.77,0,0,0-5.78,6l2.19,74.4a5.77,5.77,0,0,0,4.92,5.55,46,46,0,0,0,7.74.37,26.41,26.41,0,0,0,4.17-.4,5.79,5.79,0,0,0,4.73-5.39l3.82-74.4A5.78,5.78,0,0,0,53.92,38Z" fill="#754c29"/><path d="M404.71,127.27a44.42,44.42,0,0,1-6.5-.42,8.78,8.78,0,0,1-7.48-8.43L388.54,44a8.78,8.78,0,0,1,8.78-9h16a8.77,8.77,0,0,1,8.77,9.23l-3.82,74.4a8.77,8.77,0,0,1-7.18,8.19,28.32,28.32,0,0,1-4.69.45ZM397.32,38a5.77,5.77,0,0,0-5.78,6l2.19,74.4a5.77,5.77,0,0,0,4.92,5.55,46,46,0,0,0,7.74.37,26.41,26.41,0,0,0,4.17-.4,5.79,5.79,0,0,0,4.73-5.39l3.82-74.4A5.78,5.78,0,0,0,413.34,38Z" fill="#754c29"/><path d="M446.78,46.83c-17.82-21.6-110-38-221.08-38S22.44,25.23,4.63,46.83H1.55V59.34c0,.27-.05.55-.05.82s0,.55.05.82v.41h0C4.77,86,103.89,105.83,225.7,105.83c123.82,0,224.2-20.45,224.2-45.67V46.83Z" fill="#f28e45"/><path d="M225.7,107.33c-58.93,0-114.63-4.62-156.83-13-29.4-5.84-64.7-16-68.53-31.45H.08l0-1.83c0-.35,0-.62,0-.89a8.08,8.08,0,0,1,.05-.85v-14H3.94c19.5-22.09,112.34-38,221.76-38S428,23.24,447.47,45.33h3.93V60.16c0,16.65-36.36,27.55-66.86,33.76C342.09,102.57,285.68,107.33,225.7,107.33ZM3.05,61.06l0,.13C4.5,72.28,28.7,83.29,69.45,91.38c42,8.35,97.51,13,156.25,13,59.79,0,116-4.74,158.24-13.34,41-8.35,64.46-19.59,64.46-30.83V48.33h-2.33l-.45-.55C428,26.4,333.43,10.28,225.7,10.28S23.42,26.4,5.79,47.78l-.46.55H3.05V59.57a5.85,5.85,0,0,0,0,.59,5.65,5.65,0,0,0,0,.59Z" fill="#f28e45"/><path d="M449.9,47.17c0,25.23-100.38,45.68-224.2,45.68S1.5,72.4,1.5,47.17,101.88,1.5,225.7,1.5,449.9,22,449.9,47.17Z" fill="#f7efbe"/><path d="M225.7,94.35c-60,0-116.39-4.77-158.83-13.41C36.36,74.72,0,63.82,0,47.17S36.36,19.62,66.87,13.41C109.31,4.76,165.72,0,225.7,0S342.09,4.76,384.54,13.41C415,19.62,451.4,30.52,451.4,47.17S415,74.72,384.54,80.94C342.09,89.58,285.68,94.35,225.7,94.35ZM225.7,3c-59.79,0-116,4.74-158.23,13.35C26.5,24.69,3,35.93,3,47.17S26.5,69.65,67.47,78c42.25,8.61,98.44,13.35,158.23,13.35s116-4.74,158.24-13.35c41-8.35,64.46-19.58,64.46-30.83s-23.49-22.48-64.46-30.82C341.69,7.74,285.49,3,225.7,3Z" fill="#f28e45"/><g opacity="0.4"><path d="M218,1.52q-15.53.08-30.49.56C149.54,11.35,9.22,49.45.48,52.51c1.5,2.63,4.14,5.18,7.73,7.65C79.24,42,148,21,218,1.52Z" fill="#fff"/></g><g opacity="0.4"><path d="M260.12,92.22q10.62-4.12,21.17-8.32c28.43-11.27,56.9-22.43,86.59-32.54C389,44.18,410.34,37.3,431.71,30.41c-9.27-4.78-22.34-9.17-38.51-13-76.08,21.81-150,46.4-220,74.29,16.06.75,32.77,1.15,49.94,1.15Q242.05,92.85,260.12,92.22Z" fill="#fff"/></g><g style="mix-blend-mode:screen"><path d="M225.7,90.25C104,90.25,5,70.5,1.6,45.87a9.61,9.61,0,0,0-.1,1.3c0,25.23,100.38,45.68,224.2,45.68S449.9,72.4,449.9,47.17a9.58,9.58,0,0,0-.09-1.3C446.43,70.5,347.39,90.25,225.7,90.25Z" fill="#b57c48"/></g><path d="M225.7,94.35c-60,0-116.39-4.77-158.83-13.41C36.36,74.72,0,63.82,0,47.17S36.36,19.62,66.87,13.41C109.31,4.76,165.72,0,225.7,0S342.09,4.76,384.54,13.41C415,19.62,451.4,30.52,451.4,47.17S415,74.72,384.54,80.94C342.09,89.58,285.68,94.35,225.7,94.35ZM225.7,3c-59.79,0-116,4.74-158.23,13.35C26.5,24.69,3,35.93,3,47.17S26.5,69.65,67.47,78c42.25,8.61,98.44,13.35,158.23,13.35s116-4.74,158.24-13.35c41-8.35,64.46-19.58,64.46-30.83s-23.49-22.48-64.46-30.82C341.69,7.74,285.49,3,225.7,3Z" fill="#f28e45"/></g></g></g></g></g></svg>