<svg xmlns="http://www.w3.org/2000/svg" viewBox="0 0 75.14 86.78"><g id="Layer_2" data-name="Layer 2"><g id="Layer_1-2" data-name="Layer 1"><g id="Props"><g id="na_potted_plant_3" data-name="na_potted plant 3"><path d="M6.12,54.55,9.23,68.31l.15.69.92,4.08a14.65,14.65,0,0,0,1,2.93,7.51,7.51,0,0,0,.36.76A15.53,15.53,0,0,0,19,83.83q.42.19.84.36a15.49,15.49,0,0,0,5.73,1.09H54a15.62,15.62,0,0,0,5.68-1.07c.3-.12.58-.24.87-.38a15.32,15.32,0,0,0,5.67-4.45c.2-.23.38-.48.55-.72A15.66,15.66,0,0,0,69.28,73l.42-2,.15-.67,3.43-15.76Z" fill="#ffaa5a" stroke="#e87e25" stroke-miterlimit="10" stroke-width="3"/><path d="M14.75,70.24a60.53,60.53,0,0,0,1.82,7.25q-2.65-.67-5.28-1.48a7.51,7.51,0,0,0,.36.76c1.7.51,3.42,1,5.14,1.41.33,1,.68,1.94,1.05,2.9s.75,1.84,1.16,2.75q.42.19.84.36a61.11,61.11,0,0,1-2.34-5.83c1.37.33,2.74.64,4.12.92q3,.6,6,1c.15.58.3,1.18.46,1.75.31,1.08.63,2.15,1,3.22h.66q-.76-2.43-1.43-4.87a113.56,113.56,0,0,0,11.64,1q.09,1.92.24,3.84h.61c0-.62-.09-1.23-.12-1.85s-.07-1.31-.1-2q3.51.11,7,0c1.11,0,2.22-.08,3.33-.15-.4,1.32-.83,2.63-1.27,3.94h.66c.33-1,.66-1.93,1-2.9.11-.37.21-.73.32-1.09q4.95-.32,9.85-1.07c-.54,1.35-1.12,2.68-1.75,4,.3-.12.58-.24.87-.38.34-.71.66-1.44,1-2.18.21-.51.42-1,.62-1.54,1.37-.22,2.73-.46,4.08-.73.2-.23.38-.48.55-.72-1.45.29-2.92.56-4.38.8a60.27,60.27,0,0,0,2.31-7.66c1.67-.24,3.35-.52,5-.82l.15-.67q-2.5.47-5,.84c.24-1.12.46-2.24.64-3.37a59.81,59.81,0,0,0,.64-13.23H65.5a60.37,60.37,0,0,1,0,6.86,60.24,60.24,0,0,1-1.36,9.83c-1.75.25-3.51.48-5.27.67s-3.35.31-5,.42c.31-1.43.6-2.86.85-4.31a108.75,108.75,0,0,0,1.46-13.47h-.62q-.15,3.53-.55,7a108.78,108.78,0,0,1-1.77,10.79c-4.29.27-8.6.35-12.9.24,0-1.56,0-3.11.08-4.67.15-4.48.5-9,1-13.4h-.62c-.26,2.2-.48,4.41-.64,6.62-.3,3.8-.45,7.62-.47,11.43-2.92-.09-5.84-.26-8.74-.53-1.57-.15-3.14-.33-4.71-.53-.62-3.42-1.09-6.88-1.39-10.34q-.29-3.33-.36-6.65h-.63A112.21,112.21,0,0,0,25,67.62c.18,1.29.4,2.57.63,3.84q-5.21-.69-10.35-1.76a58.66,58.66,0,0,1-.92-9,57.83,57.83,0,0,1,.16-6.18h-.62a59.19,59.19,0,0,0,.35,12.55c.1.83.23,1.65.38,2.47q-2.7-.57-5.39-1.26l.15.69Q12.05,69.68,14.75,70.24Zm37,10.42c.76-2.54,1.41-5.1,2-7.69q5.18-.34,10.3-1.07-.42,1.81-1,3.6c-.41,1.37-.88,2.73-1.4,4.06-.94.15-1.89.29-2.84.41C56.48,80.28,54.12,80.5,51.75,80.66ZM40.34,73.24c2.14.06,4.28.08,6.41,0S51,73.14,53.1,73c-.23,1-.47,2.07-.73,3.11-.39,1.53-.82,3.06-1.27,4.58-3.53.21-7.07.26-10.59.14C40.39,78.31,40.34,75.77,40.34,73.24ZM27.12,75.78c-.27-1.19-.51-2.39-.74-3.6Q33,73,39.71,73.24c0,1.13,0,2.27,0,3.41,0,1.39.08,2.78.15,4.17q-3.45-.13-6.87-.46c-1.64-.16-3.28-.37-4.92-.61C27.74,78.43,27.41,77.11,27.12,75.78ZM15.4,70.37c1.09.23,2.18.45,3.27.64,2.35.43,4.71.79,7.08,1.1.48,2.53,1,5,1.68,7.55q-5.12-.76-10.15-2c-.3-.93-.59-1.85-.84-2.79C16,73.39,15.69,71.89,15.4,70.37Z" fill="#ffeb81"/><path d="M39.7,59.89c18.54,0,33.58-2.39,33.58-5.34v10c0,2.95-15,5.34-33.58,5.34S6.12,67.49,6.12,64.54v-10C6.12,57.5,21.15,59.89,39.7,59.89Z" fill="#781f1a"/><path d="M6.12,54.55c0,2.59,11.57,4.74,26.93,5.23,2.15.07,4.37.11,6.64.11,2.44,0,4.81,0,7.09-.12,15.14-.52,26.5-2.66,26.5-5.22,0-2-7.23-3.83-17.83-4.73-4.7-.39-10.06-.62-15.76-.62-2.49,0-4.92,0-7.25.13l-1.76.07c-.95,0-1.9.09-2.82.15C15.15,50.31,6.12,52.26,6.12,54.55Z" fill="#ac5350"/><path d="M47.44,18.21c-6.55,0-10-4.92-10-7.56A2.62,2.62,0,0,1,38,9a2.14,2.14,0,0,1,1.49-.82,2.42,2.42,0,0,1,.47-.82,2.08,2.08,0,0,1,1.57-.7,3.52,3.52,0,0,1,2,.77,2,2,0,0,1,1.87-1.13A3.2,3.2,0,0,1,47.86,8a2.32,2.32,0,0,1,1.48-.55A2.18,2.18,0,0,1,51,8.24a3.78,3.78,0,0,1,.72,1.66,6.35,6.35,0,0,1,1.63-.25,2.51,2.51,0,0,1,2.34,1.16,2.32,2.32,0,0,1,.21,1.75l.28.24L55,14.38c-.52.67-1,1.34-1.59,2L53,16l.44.39-.35.39-.1.08c-.25.18-.51.35-.77.51l-.28.17-.2.06a15.29,15.29,0,0,1-3.29.57C48.08,18.19,47.75,18.21,47.44,18.21Z" fill="#ffeb81"/><path d="M45.38,7.84c.74,0,1.7,1.42,2.28,3.07.61-1.44,1.2-2,1.68-2,.79,0,1.26,1.61.9,3.43a5.16,5.16,0,0,1,3.14-1.19c.95,0,1.55.48.77,1.84h0c-.63.81-1.24,1.63-1.9,2.41v0c-.08.1-.17.19-.25.28-.24.18-.49.33-.75.49a13.58,13.58,0,0,1-3,.51q-.44,0-.87,0c-7.33,0-9.91-7-7.69-7a2.28,2.28,0,0,1,1.1.39C40.67,8.7,41,8.2,41.5,8.2c.85,0,2.23,1.34,2.83,2.31.09-1.93.51-2.67,1.05-2.67m0-3h0a3.51,3.51,0,0,0-2.19.73A4.21,4.21,0,0,0,41.5,5.2h0a3.56,3.56,0,0,0-2.7,1.21,3.79,3.79,0,0,0-.39.53,3.54,3.54,0,0,0-1.62,1.19A4,4,0,0,0,36,10.65c0,3.78,4.36,9,11.46,9,.36,0,.73,0,1.09,0a16,16,0,0,0,3.6-.62l.38-.12.34-.21.11-.06a10.76,10.76,0,0,0,.9-.6l.21-.17.18-.2.28-.3L53,16l1.56,1.31c.58-.68,1.11-1.38,1.63-2.06l.35-.45,1.72-2.23L57.51,12A3.68,3.68,0,0,0,57,10.06a4,4,0,0,0-3.64-1.91h0a4.4,4.4,0,0,0-.62,0,4.42,4.42,0,0,0-.58-.91,3.7,3.7,0,0,0-2.84-1.37,3.79,3.79,0,0,0-1.12.16,4,4,0,0,0-2.84-1.23Z" fill="#ffaa5a"/><path d="M26.42,29.55c1.61,0,3.39-.48,4.24-2,.41-.63.77-1.82.13-2.38.12-4.94-.08-10.11-2.56-14.52a11.81,11.81,0,0,0-4.65-5.75c-3.65-2.53-8.35-4-12.79-3.21C2.93,3.52-1.07,14,3.31,20.71c2.18,3.47,6.24,4.73,9.87,6.08A31.18,31.18,0,0,0,26.42,29.55Z" fill="#4a8c32" stroke="#2d5b1d" stroke-miterlimit="10" stroke-width="3"/><path d="M21.74,26.14c.45-.07,1.34,0,1.44-.52,0-.27-.42-.33-.48-.06a3.38,3.38,0,0,1-.54.09h0a9.91,9.91,0,0,1-1.09,0h0a22.76,22.76,0,0,1-8-2.2l.05,0c-3-1.65-7.42-3-7.54-7-.11-.4.15-1.11-.34-1.26a.33.33,0,0,0-.37.27A5.82,5.82,0,0,0,7,21C11.35,23.89,16.4,26.18,21.74,26.14Z" fill="#2d5b1d"/><path d="M26,8.37a15.49,15.49,0,0,0,.88-1.78c.32-.09.18-.6-.14-.5a.57.57,0,0,0-.33.39v0c-.2.39-.36.79-.54,1.19-.1-.31-.39-3.45-.86-2.38C25.24,5.78,25.22,8.82,26,8.37Z" fill="#beef63"/><path d="M18.87,4.18A13.06,13.06,0,0,0,19.57,2c.19,0,.18-.23.16-.37-.48-.73-.82,1.7-1,2l0-.08h0a27,27,0,0,0-.9-2.67.18.18,0,0,0-.2-.1.18.18,0,0,0-.12.21c.19.56.38,1.13.55,1.7C18.19,3.11,18.26,4.52,18.87,4.18Z" fill="#beef63"/><path d="M12.45,3.17c.15-.76-.4-1.6-.55-2.37h0c-.17-.3-.61,0-.4.28.18.53.33,1.06.49,1.59-.77-.55-1.57-1.06-2.38-1.54a.17.17,0,0,0-.23,0,.19.19,0,0,0,0,.25c.59.42,1.19.82,1.79,1.23C11.57,2.82,12.06,3.52,12.45,3.17Z" fill="#beef63"/><path d="M7.63,5.86C8.9,5.64,6.41,3.58,6,3.31c-.33-.1-.29.48,0,.42A13.55,13.55,0,0,1,7.46,5.39c-.73,0-1.45-.22-2.18-.29a.2.2,0,0,0-.21.14.19.19,0,0,0,.13.23A12.68,12.68,0,0,0,7.63,5.86Z" fill="#beef63"/><path d="M1.89,11.71l.53-.2h0c.54-.25,1.18-.14,1.71-.38.32-.27,0-.56-.31-.67s-2.44-1.55-2.4-.8h0v0h0a.17.17,0,0,0,.2.08l.28.13h0c.6.3,1.17.63,1.74,1C3.32,10.78.8,11.45,1.89,11.71Z" fill="#beef63"/><path d="M2.5,20.6c1.08-2,2.2-3.63-1-2.25h0c-.19.22.13.52.33.32a10,10,0,0,1,1.31-.31,4.37,4.37,0,0,1-.23.49l0,0c-.28.53-.55,1.05-.8,1.58a.23.23,0,0,0,.1.29A.23.23,0,0,0,2.5,20.6Z" fill="#beef63"/><path d="M7.92,26c.06-.63.95-3.83-.27-3.47-.7.56-1.25,1.32-2,1.82a.19.19,0,0,0-.17.19c.22.73,1.9-1.31,2.29-1.54a23.59,23.59,0,0,1-.39,2.89A.28.28,0,0,0,7.92,26Z" fill="#beef63"/><path d="M13.82,28.48c0-3.39-.54-4.68-2.24-.81h0v0h0a3.9,3.9,0,0,1-.19.35h0a.16.16,0,1,0,.22.23A18,18,0,0,1,13,25.91h0l0,0h0l0,0a11.62,11.62,0,0,1,.13,1.31h0c.12.43-.16,1.45.36,1.57A.28.28,0,0,0,13.82,28.48Z" fill="#beef63"/><path d="M18.93,30.42a.25.25,0,0,0,.22-.29c-.09-.5-.17-1-.26-1.51-.32-2.32-1.26-.05-1.9.7h0a.22.22,0,0,0,0,.32c.43.4,1-1.21,1.37-1.47.13.67.22,1.36.33,2A.26.26,0,0,0,18.93,30.42Z" fill="#beef63"/><path d="M9.63,12c.64-.14,2.89-.55,1.43-1.33-.57-.23-1.37-.68-1.93-.23l0,0h0c-.41.28.15.86.45.46a3.08,3.08,0,0,1,1,.32c-.34.23-1.23.17-1.25.65A.24.24,0,0,0,9.63,12Z" fill="#beef63"/><path d="M9.07,19.27C12.22,18.11,12,17.41,8.78,17a.1.1,0,0,0-.15.1c.1.19.41.09.59.16h0a7.71,7.71,0,0,1,1.62.54h0l.09.06C10.83,18.25,7.89,19,9.07,19.27Z" fill="#beef63"/><path d="M19.41,12.13c.68-.32-.08-1.28-.15-1.8-.18-.3-.44.17-.22.31a6.9,6.9,0,0,1,.25,1.07h0a5.52,5.52,0,0,1-1.42-.53C16.66,11.33,19.09,12.37,19.41,12.13Z" fill="#beef63"/><path d="M18.87,19.67c1-.08.44-.72,0-1.11s-.79-1-1.36-1.2c-.28,0-.28.44,0,.44.45.44.86.91,1.31,1.36-.56,0-1.12,0-1.68,0a.22.22,0,0,0,0,.43C17.67,19.62,18.27,19.68,18.87,19.67Z" fill="#beef63"/><path d="M24.9,16.69c.4-.18.14-.7.15-1v0c0-.27,0-.83-.41-.6-.22.29,0,.72,0,1.06-.4-.11-1.26-.82-1.57-.43a.22.22,0,0,0,.12.3C23.74,16.19,24.28,16.77,24.9,16.69Z" fill="#beef63"/><path d="M21.32,24.1a.49.49,0,0,0,.3-.16h0c.25-.15,0-.37-.1-.53s-.33-.63-.63-.73h0a.16.16,0,0,0-.16.12h0a.16.16,0,0,0,.07.18h0a5,5,0,0,1,.38.52l0,0,.15.23a5.35,5.35,0,0,1-1.59-.5C18.59,23.45,21,24.19,21.32,24.1Z" fill="#beef63"/><path d="M24,31.49c-.1,5,1.59,9.76,2.84,14.54S29.4,56.1,33.05,59.78c4.41.15,9.34.14,13.73,0,1-1.2,2.38-2.15,3-3.67,6.82-6.8,13.94-15.31,12.68-25.61-1.64-8.71-9.09-15.6-17.59-17.56-6-.86-12.82.6-17.13,5C24.27,21.53,24,26.77,24,31.49Z" fill="#2d5b1d" stroke="#1c3d10" stroke-miterlimit="10" stroke-width="3"/><path d="M56.6,21.16l.36.39C56.84,21.41,56.72,21.29,56.6,21.16Z" fill="#2d5b1d"/><path d="M35.79,59.46c1-.75-.61-2.23-.83-3.13a42.61,42.61,0,0,1-2.41-6.56c-1.77-8.38-4.32-20.63-.12-28.46h0c.09-.12.17-.25.27-.36a.31.31,0,0,0,.14-.09h0a.27.27,0,0,0,0-.39h0a.2.2,0,0,1,.06.07h0a.16.16,0,0,0-.06-.08h0a.3.3,0,0,0-.43.08C27.21,27.84,29,44,31.48,52.2,32,53.38,34.4,60.35,35.79,59.46Z" fill="#004e30"/><path d="M51.75,33.09c.82-.2,1.42-1.08,2.27-1.16a.25.25,0,0,0,.18-.18c-.12-1-1.74.49-2.18.68.11-.37,1.68-4.65.46-3.56-.32,1.11-.56,2.24-.93,3.33h0a1,1,0,0,0-.09.69h0A.26.26,0,0,0,51.75,33.09Z" fill="#beef63"/><path d="M41.24,22.65c.24-.94.22-2,.38-3a.27.27,0,1,0-.53-.06h0c-.07.69-.16,1.39-.27,2.08-.31-.75-.65-1.48-1-2.19a.33.33,0,0,0-.59.3c.33.77.69,1.53,1.06,2.29v0C40.41,22.46,40.8,23.15,41.24,22.65Z" fill="#beef63"/><path d="M49.42,20.24c.3-.28.57-.58.88-.85a.24.24,0,0,0,.19-.41c-.51-.1-.88.69-1.31.92C49,19,49,18.12,48.87,17.24a.24.24,0,0,0-.23-.2c-.31,0-.22.36-.21.57h0c0,.07,0,.14,0,.22h0C48.57,18.39,48.38,20.89,49.42,20.24Z" fill="#beef63"/><path d="M55.87,20.58a.61.61,0,0,0,.16-.09h0c.48-.34.91-.73,1.38-1.06a.17.17,0,0,0,.17-.16c-.06-.66-1.36.74-1.71.83a2.44,2.44,0,0,1,0-.27v0c.09-1,.15-2,.16-3a.25.25,0,0,0-.25-.24.25.25,0,0,0-.24.24c0,.71-.06,1.43-.1,2.14C55.47,19.45,55.09,20.63,55.87,20.58Z" fill="#beef63"/><path d="M36,15.2a.47.47,0,0,0,0-.35v0h0a15.69,15.69,0,0,1-.27-1.67.14.14,0,0,0-.14-.12c-.3.11-.05.84-.12,1.13-.31-.36-.52-1.38-1-1.34a.27.27,0,0,0-.14.34C34.58,13.58,35.32,16,36,15.2Z" fill="#beef63"/><path d="M29.11,31.11c2.41-.33-.23-2-1-2.65a.39.39,0,0,0-.55.07c-.38.67,1.19,1.23,1.54,1.74a11.63,11.63,0,0,1-1.67-.13.42.42,0,0,0-.46.35C27,31.26,28.56,31.05,29.11,31.11Z" fill="#beef63"/><path d="M54.88,45.54c.28-.68-1.5-1.11-1.94-1.47.53-.14,1-.33,1.56-.5.49.13.43-.68,0-.49-.61.38-3.46.47-1.89,1.46l1.81,1.12A.35.35,0,0,0,54.88,45.54Z" fill="#beef63"/><path d="M44.2,52.14a.35.35,0,0,0-.13-.48,6.4,6.4,0,0,1-1.61-1.22c.46-.17,1.21,0,1.52-.37a.24.24,0,0,0-.36-.26c-.91.17-2.55,0-1.37,1.31C42.65,51.46,43.71,52.7,44.2,52.14Z" fill="#beef63"/><path d="M42.63,35.27c.2-.25.38-.52.58-.76.9-.22,0-1.41-.45-.59-.2.24-.36.51-.54.75-.27-.47-.14-1.76-.76-1.83-.56.19-.07,1-.07,1.4C41.44,34.85,41.92,36,42.63,35.27Z" fill="#beef63"/><path d="M34.17,42.11c.92-.12-.12-1-.36-1.31l0,0a17.28,17.28,0,0,0-1.36-1.47h0a1.18,1.18,0,0,0-.28-.2c-.33-.18-.52.4-.14.45l0,0h0A20.8,20.8,0,0,1,34,41.69a15.72,15.72,0,0,1-2.62-.5C30.3,41.58,33.9,42.13,34.17,42.11Z" fill="#beef63"/><path d="M60.34,36.71a.29.29,0,0,0-.05-.4c-.45-.33-.91-.63-1.36-1,.31-.13,1,0,1-.47a.24.24,0,0,0-.32-.16c-.37.15-.78.15-1.14.28-.45.36.21.8.5,1S59.87,37.06,60.34,36.71Z" fill="#beef63"/><path d="M25.33,41.14c2.93-1.07,1.14-2-.64-2.86-.44-.11-.45.64,0,.55l.39.23,0,0c.41.29.83.59,1.22.9-.27.45-1.35.51-1.28,1.06A.26.26,0,0,0,25.33,41.14Z" fill="#beef63"/><path d="M23.29,27.9c.77-.15,2.89-.52,1.39-1.44-.3-.14-1.51-1.36-1.62-.79a.18.18,0,0,0,.13.15l.11.06,0,0c.26.18.49.39.73.59l0,0,.65.59a10,10,0,0,1-1.44.45.23.23,0,0,0-.16.24A.24.24,0,0,0,23.29,27.9Z" fill="#beef63"/><path d="M27.93,19.84c.72-.31-.89-1.88-1-2.46a.42.42,0,0,0-.17-.29h0c-.44-.32-.79.48-.33.66.25.45.5.9.78,1.33-.62-.25-1.25-.49-1.89-.69a.22.22,0,0,0-.27.13c0,.5.83.48,1.16.72C26.78,19.4,27.33,19.93,27.93,19.84Z" fill="#beef63"/><path d="M51.69,56.05a.28.28,0,0,0,.05-.38,12.44,12.44,0,0,1-1.49-2.19c.64,0,1.28,0,1.92,0,.54.36.72-.69.08-.52s-3.22-.57-2.33,1a14.27,14.27,0,0,0,1.39,2A.28.28,0,0,0,51.69,56.05Z" fill="#beef63"/><path d="M30.56,57.88c.49-.47,3.35-1.82,1.82-2.42h0c-.49-.08-2.11-1-2.24-.28a.28.28,0,0,0,.3.28h0a9.19,9.19,0,0,1,1.66.54c-.6.5-1.26.93-1.89,1.39a.32.32,0,0,0-.06.44A.32.32,0,0,0,30.56,57.88Z" fill="#beef63"/><path d="M39.7,59.89c18.54,0,33.58-2.39,33.58-5.34v10c0,2.95-15,5.34-33.58,5.34S6.12,67.49,6.12,64.54v-10C6.12,57.5,21.15,59.89,39.7,59.89Z" fill="none" stroke="#5c1612" stroke-miterlimit="10" stroke-width="3"/><path d="M27.86,49.55c-12.71.76-21.74,2.71-21.74,5,0,2.59,11.57,4.74,26.93,5.23,2.15.07,4.37.11,6.64.11,2.44,0,4.81,0,7.09-.12,15.14-.52,26.5-2.66,26.5-5.22,0-2-7.23-3.83-17.83-4.73" fill="none" stroke="#5c1612" stroke-miterlimit="10" stroke-width="3"/></g></g></g></g></svg>