<svg xmlns="http://www.w3.org/2000/svg" viewBox="0 0 17.4 67.1"><g style="isolation:isolate"><g id="Layer_2" data-name="Layer 2"><g id="Layer_1-2" data-name="Layer 1"><g id="Props"><g id="fu_kitchen_utensil_spatula" data-name="fu_kitchen utensil_spatula"><path d="M16,50.5a13.9,13.9,0,0,0-.6-1.3,36.1,36.1,0,0,0-2.5-3l-.9-1c-1.3-2-1.9-4.7-3.3-4.7h0c-1.4,0-2.1,2.7-3.4,4.7s-3.5,3.5-3.9,5.3A17.1,17.1,0,0,0,1,54.7c0,4,.6,8.8,1.7,10.6a1.4,1.4,0,0,0,1,.8h10C15.9,66.1,17,55,16,50.5ZM5.4,60.5c-.4,0-.9-2.3-1-5s.1-5.1.5-5.1.9,2.2,1,5S5.8,60.4,5.4,60.5Zm3.3.9c-.3,0-.6-2.8-.6-6.2s.3-6.3.6-6.3.6,2.8.6,6.3S9,61.4,8.7,61.4Zm4.2-5.9c-.1,2.7-.5,5-.9,5s-.7-2.3-.5-5.1.5-5,.9-5S13.1,52.7,12.9,55.5Z" style="fill:#dd8f54"/><g style="mix-blend-mode:multiply"><path d="M12,45.2l.9,1c-1.4.6-5,.2-7.6,2.4S2.9,53.8,1,54.7a17.1,17.1,0,0,1,.4-4.2c.4-1.8,3.1-4,3.9-5.3s2-4.7,3.4-4.7h0C10.1,40.5,10.7,43.2,12,45.2Z" style="fill:#c3d0e8"/></g><path d="M10.8,25H6.5a.1.1,0,0,1-.1-.1V6.5H11V24.9C11,25,10.9,25,10.8,25Z" style="fill:#607185"/><path d="M8.8,1H8.6A1.8,1.8,0,0,0,6.7,2.9V6.5h4V2.9A1.9,1.9,0,0,0,8.8,1ZM8.7,4H8.6a1,1,0,0,1-1-1,1.1,1.1,0,0,1,1-1.1h.2a1.1,1.1,0,0,1,.9,1.1,1,1,0,0,1-.9,1A.1.1,0,0,0,8.7,4Z" style="fill:#dd8f54"/><polygon points="10.7 25 10.1 43.2 7.2 43.2 6.7 25 10.7 25" style="fill:#dd8f54"/><path d="M8.8,1a1.9,1.9,0,0,1,1.9,1.9V6.5H11V24.9c0,.1-.1.1-.2.1h-.1l-.5,16.7c.6,1,1.1,2.3,1.8,3.5l.9,1a36.1,36.1,0,0,1,2.5,3,13.9,13.9,0,0,1,.6,1.3c1,4.5-.1,15.6-2.3,15.6H3.7a1.4,1.4,0,0,1-1-.8C1.6,63.5,1,58.7,1,54.7a17.1,17.1,0,0,1,.4-4.2c.4-1.8,3.1-4,3.9-5.3s1.3-2.5,1.9-3.5L6.7,25H6.5a.1.1,0,0,1-.1-.1V6.5h.3V2.9A1.8,1.8,0,0,1,8.6,1h.2M8.7,4a.1.1,0,0,1,.1-.1,1,1,0,0,0,.9-1,1.1,1.1,0,0,0-.9-1.1H8.6a1.1,1.1,0,0,0-1,1.1,1,1,0,0,0,1,1h.1m0,57.4c.3,0,.6-2.8.6-6.2s-.3-6.3-.6-6.3-.6,2.8-.6,6.3.3,6.2.6,6.2m3.3-.9c.4,0,.8-2.3.9-5s-.1-5.1-.5-5.1h0c-.4,0-.8,2.2-.9,5s.1,5,.5,5.1h0m-6.6,0h0c.4-.1.6-2.3.5-5.1s-.5-5-1-5h0c-.4,0-.6,2.3-.5,5.1s.6,5,1,5M8.8,0H8.6A2.9,2.9,0,0,0,5.7,2.9V5.8a.9.9,0,0,0-.3.7V24.9a.9.9,0,0,0,.3.7l.5,15.9c-.2.3-.4.8-.7,1.2a17.4,17.4,0,0,1-1,1.9L3.2,46.2a11.7,11.7,0,0,0-2.8,4A26.8,26.8,0,0,0,0,54.7c0,4,.6,9.1,1.9,11.1a2,2,0,0,0,1.8,1.3h10a1.9,1.9,0,0,0,1.5-.9c2-2.5,2.7-11.8,1.7-16a4,4,0,0,0-.7-1.5,16.9,16.9,0,0,0-2-2.5l-.6-.6a6.1,6.1,0,0,1-.7-1,11.8,11.8,0,0,1-1.1-1.9,13.4,13.4,0,0,0-.6-1.2l.5-15.9a.9.9,0,0,0,.3-.7V6.5a.9.9,0,0,0-.3-.7V2.9A2.9,2.9,0,0,0,8.8,0ZM8.7,3H8.6a.1.1,0,0,1,.1-.1h0Z" style="fill:#924f28"/></g></g></g></g></g></svg>