<svg xmlns="http://www.w3.org/2000/svg" viewBox="0 0 73.5 61"><g id="Layer_2" data-name="Layer 2"><g id="Layer_1-2" data-name="Layer 1"><g id="na_bird_1" data-name="na_bird 1"><path d="M49.7,51.1c-.1-4.1-.1-8.1-.1-12.1a.6.6,0,1,1,1.1,0c0,3.9.1,7.8.1,11.7a23.5,23.5,0,0,1,3.7-.5c.8-.1.7,1,0,1.1l-2.6.4h.3l2,.9a.6.6,0,0,1-.5,1l-1.9-.8-1.2-.6a10.9,10.9,0,0,0,.3,2.6.6.6,0,0,1-1.1.3,22,22,0,0,1-.4-3.6A.5.5,0,0,1,49.7,51.1Z" style="fill:#fcd54d"/><path d="M20.4,32.2c-1.1-4.6-1.2-9.5-3.6-13.8-1.1-1.8-3.9-1.7-4.6.2-1.9,5.5,2.2,10.9,5.8,14.9.9,1,2.4,0,2.4-1.2Z" style="fill:#ff8d3d"/><path d="M19.4,31.7c-4.5-2.5-8.6-6-13.9-7.4-2.2-.3-4.3,2-3.2,4,3.1,5.5,10.5,6.2,16.4,6.2,1.5,0,1.7-1.9.7-2.8Z" style="fill:#ff8d3d"/><path d="M20.2,31.9c-3.1-5-5.4-10.7-9.9-14.8-2.1-1.6-5.4-.4-5.4,2.2C5,26.5,12.1,31.2,18,34.4c1.5.7,2.8-1,2.2-2.5Z" style="fill:#ffaa5a"/><path d="M65.3,10a16.5,16.5,0,0,0-1.8-3.2,11,11,0,0,0-2.7-2.6,13.5,13.5,0,0,0-3.4-1.7l-1.8-.4c-7.1-.9-13.8,2.9-18,8.2L36.2,12c-3.1,4.2-5.2,9.2-8.6,13.3L26,26.9c-2.8,2.6-6.2,4.2-9.8,2.9l-.9-.4H15c-.9.1-1.1,1-.8,1.7a.4.4,0,0,0,.1.3l2,2.1,1.4,1.3c4.7,4.3,10.3,8.5,16.9,9.5l2.5.2c11.7.8,23.9-4.8,28.2-16.7a35.8,35.8,0,0,0,1.1-3.5A21.3,21.3,0,0,0,65.3,10Z" style="fill:#fcd54d"/><path d="M61.5,23.5a22.8,22.8,0,0,0-8.6.9,14.1,14.1,0,0,0-3.7,1.8,12,12,0,0,0-2.6,2.9,18.3,18.3,0,0,1-6,5,17,17,0,0,1-7.3,2.4c-1.4,0-3-.3-4.3.2s-1.1,1.9-1.1,3a8.9,8.9,0,0,0,.7,2.8,24.5,24.5,0,0,0,6,1.8l2.5.2c11.7.8,23.9-4.8,28.2-16.7l.9-2.6C65.1,23.9,63.1,23.6,61.5,23.5Z" style="fill:#ffeb81"/><path d="M42.6,19.8a13.6,13.6,0,0,0,3.8,3l3.1,1.4c-6.2,4.2-14.2,8.1-21.3,4.8-2.7-1.4-2.2-5.6.5-6.9C33.2,20.3,37.9,20,42.6,19.8Z" style="fill:#ff8d3d"/><path d="M46.4,22.8a19.4,19.4,0,0,0,3,1.3c-2.9,7.1-7.3,14.4-15,15.9-3.3.5-5.6-3.6-4-6.5,3.4-5.3,8.4-8.9,13.1-12.7A13.7,13.7,0,0,0,46.4,22.8Z" style="fill:#ff8d3d"/><path d="M42.8,20.1a15.4,15.4,0,0,0,3.6,2.7A15.1,15.1,0,0,0,49,24c-5.4,7.3-11.2,13.5-20.8,12.6-3.8-.6-5-5.7-2.3-8.4C31.5,23.4,36.4,22.7,42.8,20.1Z" style="fill:#ffaa5a"/><path d="M70,7.2l-2.4-.4-2-.2a6.8,6.8,0,0,0-3.4.8,2.1,2.1,0,0,0,.7,3.9,7.6,7.6,0,0,0,3.6-.8l1.1-.4,2.7-1c.3-.1.9-.2,1.1-.6S70.5,7.3,70,7.2Z" style="fill:#1d262d"/><path d="M42.2,54.5c0-4-.1-8.1-.1-12.1a.6.6,0,0,1,1.1,0c0,3.9.1,7.8.1,11.7l3.8-.5c.7-.1.7,1,0,1.1l-2.7.4h.4l2,.9a.6.6,0,0,1-.6,1l-1.9-.8-1.2-.6a20.2,20.2,0,0,0,.4,2.6c.1.8-1,1.1-1.1.3a20.8,20.8,0,0,1-.5-3.6A.5.5,0,0,1,42.2,54.5Z" style="fill:#fcd54d"/><path d="M54.9,5.1c-4.3,1.2-2.4,7.9,1.9,6.7S59.2,3.9,54.9,5.1Z" style="fill:#fff"/><path d="M55.3,6.2c-2.8.8-1.6,5.1,1.2,4.4S58,5.5,55.3,6.2Z" style="fill:#1d262d"/><path d="M56.5,6.8a.9.9,0,0,1,0,1.7A.9.9,0,0,1,56.5,6.8Z" style="fill:#fff"/><path d="M53.5,2h2.1l1.8.4a13.5,13.5,0,0,1,3.4,1.7,11,11,0,0,1,2.7,2.6h.1l2-.3h0l2,.2,2.4.4c.5.1,1.8.6,1.4,1.3s-.8.5-1.1.6l-2.7,1h0l-1.1.4-.8.3a22.2,22.2,0,0,1,.7,13.5,3.1,3.1,0,0,0-.2.8h0l-.2.5c-.1.2-.1.4-.2.6a8.8,8.8,0,0,1-.5,1.5A24.8,24.8,0,0,1,50.7,42.4c0,2.8.1,5.5.1,8.3a23.5,23.5,0,0,1,3.7-.5h.1c.7,0,.6,1-.1,1.1l-2.6.4h.3l2,.9a.6.6,0,0,1-.3,1.1h-.2l-1.9-.8-1.2-.6a10.9,10.9,0,0,0,.3,2.6.6.6,0,0,1-.6.7.5.5,0,0,1-.5-.4,22,22,0,0,1-.4-3.6.5.5,0,0,1,.3-.5c0-2.8-.1-5.5-.1-8.3a35,35,0,0,1-6.4,1.5c.1,3.3.1,6.6.1,9.8l3.8-.5h.1c.6,0,.6,1-.1,1.1l-2.7.4h.4l2,.9c.6.3.2,1.1-.3,1.1h-.3l-1.9-.8-1.2-.6a20.2,20.2,0,0,0,.4,2.6.6.6,0,0,1-.6.7c-.3,0-.5-.1-.5-.4a20.8,20.8,0,0,1-.5-3.6.5.5,0,0,1,.3-.5c0-3.4-.1-6.7-.1-10.1l-3.1.2H37.1l-2.5-.2L33.2,44h-.4l-1.1-.3h-.4l-1.1-.4c-.1,0-.2,0-.2-.1l-1.4-.5h0a42.1,42.1,0,0,1-10.9-7.7l-.3-.3c-5.6-.1-12.3-1.1-15.1-6.2-1-1.9.7-4,2.8-4h.4l.9.3a10.8,10.8,0,0,1-1.5-5.3,3.1,3.1,0,0,1,3.3-2.9,3.3,3.3,0,0,1,2.1.7l1.8,1.8a.4.4,0,0,1,.1-.3,2.2,2.2,0,0,1,2.2-1.5,2.6,2.6,0,0,1,2.4,1.3c2,3.7,2.4,7.8,3.1,11.7A11.4,11.4,0,0,0,26,26.9l.5-.4a4.1,4.1,0,0,1,2.2-4.4l1.6-.6c2-3.1,3.7-6.5,5.9-9.5l1.4-1.7C41.3,5.5,47.1,2,53.5,2m0-2h0C47,0,40.5,3.4,36.1,9l-1.5,1.9c-1.4,1.9-2.7,4-3.9,6s-1.1,2-1.7,3l-1,.3h-.2a6.3,6.3,0,0,0-3.4,5.3,10.1,10.1,0,0,1-2.9,2,29.6,29.6,0,0,0-2.9-10.2h-.1a4.7,4.7,0,0,0-4.1-2.2,4.4,4.4,0,0,0-2.5.8l-.3-.3h-.1a5.5,5.5,0,0,0-3.3-1.1,5,5,0,0,0-5.3,4.9h0a12.6,12.6,0,0,0,.5,3.3A5.3,5.3,0,0,0,.7,24.8a4.3,4.3,0,0,0-.2,4.4h0c3.4,5.9,10.6,7,16.1,7.2a41.5,41.5,0,0,0,11.2,7.8l1.5.6h.2l1.2.4h.5a2,2,0,0,0,1.1.3h.4l1.6.2a11.2,11.2,0,0,0,2.7.3h3.1v1.9c.1,1.8.1,3.6.1,5.3a2.7,2.7,0,0,0-.3,1.2,27,27,0,0,0,.5,4.1A2.6,2.6,0,0,0,42.9,61a2.5,2.5,0,0,0,2-.9,1.8,1.8,0,0,0,.5-1.1l1.1.2A2.7,2.7,0,0,0,49,57.3a2.8,2.8,0,0,0,1.3.3,2.5,2.5,0,0,0,2.1-1,3.7,3.7,0,0,0,.5-1.1,1.9,1.9,0,0,0,1,.3,2.8,2.8,0,0,0,2.6-2.1,2,2,0,0,0-.1-1.3,2.6,2.6,0,0,0,.7-1.9,2.5,2.5,0,0,0-2.5-2.3H52.8c0-1.2,0-2.5-.1-3.7v-1A26.2,26.2,0,0,0,67.1,28.5l.6-1.6c.1-.2.1-.3.2-.4v-.4c0-.1.1-.3.1-.4l.3-1h0A25.5,25.5,0,0,0,68.2,12h0L71,11h.1a2.8,2.8,0,0,0,2.1-1.5,2.4,2.4,0,0,0,.1-2.2,3.9,3.9,0,0,0-2.7-2l-2-.3h-.7l-2.3-.2H64.4L62,2.6a15,15,0,0,0-4-2L55.9.2,53.5,0ZM45.3,46l2.3-.5c0,1.6,0,3.3.1,4.9a2.7,2.7,0,0,0-.3,1.2H45.3V46Z" style="fill:#ff8d3d"/></g></g></g></svg>