<svg xmlns="http://www.w3.org/2000/svg" viewBox="0 0 101.45 296.3"><g style="isolation:isolate"><g id="Layer_2" data-name="Layer 2"><g id="Layer_1-2" data-name="Layer 1"><g id="Props"><g id="na_potted_plant_9" data-name="na_potted plant 9"><path d="M54.43,296.3c-16.26,0-47-2-47-9.55s30.76-9.54,47-9.54,47,2,47,9.54S70.69,296.3,54.43,296.3Zm0-16.55c-29.2,0-44.48,4.56-44.48,7s15.28,7,44.48,7,44.48-4.56,44.48-7S83.63,279.75,54.43,279.75Z" fill="#2e2c42"/><path d="M54.43,195.14c-13.13,0-38-1.65-38-7.91s24.83-7.9,38-7.9,38,1.65,38,7.9S67.56,195.14,54.43,195.14Zm0-13.27c-22.65,0-35.1,3.49-35.42,5.37.32,1.86,12.77,5.36,35.42,5.36s35.08-3.49,35.42-5.37C89.51,185.36,77.07,181.87,54.43,181.87Z" fill="#2e2c42"/><rect x="91.94" y="117.75" width="2.54" height="170.32" transform="translate(-15.25 7.72) rotate(-4.39)" fill="#2e2c42"/><rect x="-68.1" y="201.64" width="170.41" height="2.54" transform="translate(-186.53 203.12) rotate(-85.24)" fill="#2e2c42"/><path d="M75.55,142.24l0-.1c0-.08.06-.17.1-.26l0-.07c.09-.26.2-.56.31-.9,0-.06,0-.12.07-.19l.12-.37.07-.2c0-.15.11-.31.16-.48l0-.13.48-1.45a1.21,1.21,0,0,1,.05-.18c.07-.2.13-.41.2-.62l.08-.24.21-.68.06-.18c.19-.6.38-1.23.58-1.89l.06-.2.24-.82c0-.08,0-.16.07-.23.08-.29.17-.57.25-.86l.06-.22c.21-.71.42-1.46.62-2.22,0-.08,0-.15.07-.23.08-.31.16-.62.25-.94,0-.09,0-.18.07-.27.09-.33.17-.66.26-1,0-.07,0-.14,0-.2.21-.81.41-1.64.61-2.47l.06-.26.24-1,.06-.3.24-1.06c0-.07,0-.14.05-.21l.54-2.61a2.56,2.56,0,0,1,0-.27c.06-.35.13-.69.19-1l.06-.32c.07-.36.13-.73.19-1.09,0-.07,0-.14,0-.22.15-.87.28-1.75.4-2.63a2.89,2.89,0,0,0,0-.29c0-.34.09-.68.14-1,0-.12,0-.23,0-.34l.12-1.06a1.79,1.79,0,0,1,0-.23c0-.43.09-.87.12-1.3h0c.73-8.64-.29-16.35-5.3-19.25-1.9-2.13-11.59-3.75-23.27-3.75-12,0-21.82,1.7-23.4,3.89-5.2,3.27-5.92,11.94-4.84,21.31h0v0c.05.43.11.86.16,1.3,0,0,0,.09,0,.13l.18,1.28v.06c.27,1.85.6,3.7,1,5.52V120a168.19,168.19,0,0,0,4.7,17.72h0l.75,2.28v0c.07.21.14.4.2.59l0,0c.06.17.11.34.16.49l0,.07c.12.33.21.62.3.85v0a2.34,2.34,0,0,1,.09.24l0,.09.06.16v0l.07.18s19.89,5.08,41.05,0v-.12l.07-.19v0C75.49,142.39,75.52,142.32,75.55,142.24Z" fill="#451926"/><ellipse cx="54.78" cy="90.9" rx="23.62" ry="4.51" fill="#e57225"/><path d="M78,90.11A3.72,3.72,0,0,0,75.34,89h-41a3.7,3.7,0,0,0-2.62,1.08c-14,7.81,2.58,52.73,2.58,52.73s19.89,5.08,41.05,0v-.12C76.32,140.11,91.48,97.82,78,90.11Z" fill="#e57225"/><path d="M26.54,111.59c1.69,14.73,7.79,31.2,7.79,31.2s19.89,5.08,41.05,0v-.12c.59-1.6,6.74-18.77,8-33.28C64.1,127.78,42,120.8,26.54,111.59Z" fill="#060707" opacity="0.11"/><ellipse cx="54.51" cy="91.23" rx="22.66" ry="3.88" fill="#451926"/><path d="M54.78,89.39c12.48,0,19.85,1.81,21.08,2.79a2.83,2.83,0,0,0,.69.55c4.09,2.38,4.33,10.24,3.81,16.41v0c0,.41-.07.82-.11,1.23l0,.12v.1c0,.34-.07.68-.11,1l0,.33c0,.32-.09.65-.13,1v.1l0,.18c-.11.83-.25,1.69-.39,2.55l0,.09,0,.12-.18,1-.06.32c-.06.34-.12.68-.19,1l0,.12,0,.14c-.17.86-.34,1.71-.52,2.55l0,.1,0,.11c-.08.34-.15.69-.23,1l-.07.3c-.07.33-.15.66-.23,1l0,.08,0,.17q-.28,1.23-.6,2.43l0,.19c-.08.33-.17.65-.26,1l-.06.22c-.08.31-.17.62-.25.93l0,.08,0,.14c-.2.75-.41,1.48-.61,2.2l0,.15v.05l-.26.88-.05.19-.24.81,0,.12,0,.08c-.2.65-.39,1.27-.58,1.86l0,.17-.21.67,0,.09,0,.14-.2.61,0,.1,0,.08c-.16.51-.32,1-.47,1.43l0,.08,0,.05-.16.47-.07.2-.12.36,0,.08,0,.1c0,.11-.08.21-.11.31a84.19,84.19,0,0,1-17.74,1.81,96.21,96.21,0,0,1-18.73-1.83l0-.07-.16-.47,0-.05-.19-.57v0l-.75-2.25a167.83,167.83,0,0,1-4.61-17.4l-2.94.59,2.93-.64c-.37-1.85-.69-3.66-.94-5.36l-3,.43,3-.5c-.06-.41-.12-.82-.17-1.22l0-.14c-.06-.42-.11-.84-.16-1.28-1.12-9.78.11-16.32,3.46-18.42a3.15,3.15,0,0,0,.74-.67c1.3-1,8.66-2.77,21.06-2.77m0-3c-12,0-21.82,1.7-23.4,3.89-5.2,3.27-5.92,11.94-4.84,21.31h0v0c.05.43.11.86.16,1.3,0,0,0,.09,0,.13l.18,1.28v.06c.27,1.85.6,3.7,1,5.52V120a168.19,168.19,0,0,0,4.7,17.72h0l.75,2.28v0c.07.21.14.4.2.59l0,0c.06.17.11.34.16.49l0,.07c.12.33.21.62.3.85v0a2.34,2.34,0,0,1,.09.24l0,.09.06.16v0l.07.18a93.58,93.58,0,0,0,21,2.26,86.47,86.47,0,0,0,20-2.26v-.12l.07-.19v0c0-.07,0-.14.08-.22l0-.1c0-.08.06-.17.1-.26l0-.07c.09-.26.2-.56.31-.9,0-.06,0-.12.07-.19l.12-.37.07-.2c0-.15.11-.31.16-.48l0-.13.48-1.45a1.21,1.21,0,0,1,.05-.18c.07-.2.13-.41.2-.62l.08-.24.21-.68.06-.18c.19-.6.38-1.23.58-1.89l.06-.2.24-.82c0-.08,0-.16.07-.23.08-.29.17-.57.25-.86l.06-.22c.21-.71.42-1.46.62-2.22,0-.08,0-.15.07-.23.08-.31.16-.62.25-.94,0-.09,0-.18.07-.27.09-.33.17-.66.26-1,0-.07,0-.14,0-.2.21-.81.41-1.64.61-2.47l.06-.26.24-1,.06-.3.24-1.06c0-.07,0-.14.05-.21l.54-2.61a2.56,2.56,0,0,1,0-.27c.06-.35.13-.69.19-1l.06-.32c.07-.36.13-.73.19-1.09,0-.07,0-.14,0-.22.15-.87.28-1.75.4-2.63a2.89,2.89,0,0,0,0-.29c0-.34.09-.68.14-1,0-.12,0-.23,0-.34l.12-1.06a1.79,1.79,0,0,1,0-.23c0-.43.09-.87.12-1.3h0c.73-8.64-.29-16.35-5.3-19.25-1.9-2.13-11.59-3.75-23.27-3.75Z" fill="#603913"/><path d="M74.31,47a16,16,0,0,1,2.17.15c7,1,9.16,8.22,9.16,8.22-2.33-5.13-6.73-7.33-10-7.33-.21,0-.42,0-.62,0a29.2,29.2,0,0,0-7,1.12c-2.35.82-3.07,1.23-5.42,4s-4,7.15-5.21,10.93-4.19,14.51-5.11,18.6-1.43,8.48-1.43,8.48l-2-.1c.3-2.66,6-23.2,6.7-26.3s4.94-11.51,7.09-13.45A19,19,0,0,1,74.31,47m0-3a21.83,21.83,0,0,0-13.74,5.12c-2.77,2.5-7.27,11.65-8,15-.24,1.1-1.25,4.91-2.33,8.93C47.77,82.37,46,89.05,45.81,90.78a3,3,0,0,0,.69,2.29,3,3,0,0,0,2.14,1.06l2,.1h.15a3,3,0,0,0,3-2.65s.5-4.29,1.38-8.17,3.78-14.47,5-18.33c1.09-3.36,2.6-7.52,4.64-9.91s2.3-2.47,4.12-3.1a20.55,20.55,0,0,1,5.2-.87l1.15-.1.34,0c2.27,0,5.5,1.74,7.24,5.57a3,3,0,0,0,2.73,1.76,2.9,2.9,0,0,0,1-.19,3,3,0,0,0,1.84-3.65c-.11-.37-2.76-9.06-11.61-10.35a18.61,18.61,0,0,0-2.6-.18Z" fill="#013729"/><path d="M61.84,13.68c2.59,0,5.08,2.63,6.34,5.27a7.91,7.91,0,0,0-6.5-4.15c-.27,0-.54,0-.82,0-5.25,0-10.68,5.2-12.2,9.54-1.6,4.58.2,29.14.26,32.84s3.43,35.8,3.43,35.8L49,93.37s-1-12.53-1.09-16.32-.56-18.12-.64-22.11-.62-19.76-.47-22.44.14-7.92,1.2-9.67,3.11-4.93,5.35-6.07S58.52,14,61.47,13.7a2.36,2.36,0,0,1,.37,0M68.18,19a4.39,4.39,0,0,1,.3.71c-.09-.23-.19-.47-.3-.71m-6.34-8.27h0q-.33,0-.66,0C57.92,11,55,12.55,52.6,13.77l-.61.31c-2.85,1.46-5.11,4.8-6.56,7.19-1.18,2-1.4,5.33-1.56,9.54,0,.56,0,1.08-.07,1.52-.11,2,.1,9.44.33,17.61.06,2.19.11,4,.14,5.06,0,1.86.16,5.88.29,10.13.16,4.89.31,10,.35,12C45,81,46,93.1,46,93.62a3,3,0,0,0,1.11,2.08,2.94,2.94,0,0,0,1.88.67l.39,0,3.34-.44a3,3,0,0,0,2.6-3.28C54.4,83.73,52,60,51.92,57.09c0-.85-.11-2.59-.23-5-.35-6.5-1.26-23.77-.2-26.79,1.19-3.42,5.64-7.54,9.37-7.54a4.36,4.36,0,0,1,.51,0,4.94,4.94,0,0,1,4.12,2.49c.07.16.14.31.2.47a3,3,0,0,0,2.79,1.91,3.11,3.11,0,0,0,1-.16,3,3,0,0,0,1.88-3.71,6.72,6.72,0,0,0-.48-1.17c-1.54-3.21-4.82-6.94-9-6.94Z" fill="#013729"/><path d="M32.88,37.69s1.91-4.5,9.88-2.66,13.61,24,13.75,29.59,3,28.65,3,29.27l-2.86.61a13.86,13.86,0,0,0,.56-8c-1-4.69-1-13.69-1.4-18.08s-1.1-10.21-2.22-13.59S48.27,40,46.44,38.3a12.34,12.34,0,0,0-5.83-3.06C39,34.93,35.06,35.85,32.88,37.69Z" fill="#6fa463"/><path d="M7.72,43.51c6-9.48,9.3-12,15.73-13.83s12.68,1.09,12.86,3.88-2.51,4.83-2.51,4.83,6.05-4.11,8.48,1.11,2.54,10.82-4,15S13.14,63.26,3.14,63.88C3.14,63.88,1.76,53,7.72,43.51Z" fill="#0e613b"/><path d="M4.22,61.49s-.38-7.22,2.5-12.94S17.51,30.44,24.09,30.77s5.22,8.48,5.22,8.48S40,36.08,39,43.8,26.23,56.16,21,57.2,4.41,62.77,4.22,61.49Z" fill="#fff" opacity="0.14" style="mix-blend-mode:overlay"/><path d="M40,53.22a21.11,21.11,0,0,0-.56-3.35,43,43,0,0,0-2.35-5.66,27.82,27.82,0,0,1-1.53-6.1c.65-.18,1.31-.34,2-.5a.48.48,0,0,0,.3-.73,9.88,9.88,0,0,0-4.06,1.51,7.65,7.65,0,0,0,1.3-1.34l-.75.2a.37.37,0,0,0-.19-.08c-1.84-.33-2.77-2.15-3.85-3.48A7.05,7.05,0,0,0,26,31.16q-2.25-.45-4.53-.84c-.57.2-1.11.41-1.64.64,2,.35,4,.7,6,1.11a6.61,6.61,0,0,1,2.65,1,9,9,0,0,1,1.75,1.95,8.27,8.27,0,0,0,2.69,2.64,23,23,0,0,0-2.53,1,64.68,64.68,0,0,0-10-2.77,16.48,16.48,0,0,0-5.1.29c-1,.23-1.93.54-2.92.68h0c-.26.32-.52.65-.78,1h.1a13.12,13.12,0,0,0,2.77-.51,16.62,16.62,0,0,1,5.06-.59c.56,0,1.12.09,1.67.16a15.69,15.69,0,0,1-3.28,2.2,13.9,13.9,0,0,1-4.81,1.32c-1.26.14-2.51.33-3.76.57l-.73,1.12c1.78-.37,3.58-.65,5.4-.87a14.88,14.88,0,0,0,8.36-4.16,23.21,23.21,0,0,1,2.34.51,30.2,30.2,0,0,1,4.63,1.61l-.65.38a37.78,37.78,0,0,0-3.6,2.81c-1.24,1-2.52,2.05-3.83,3-.62.46-1.26.91-1.9,1.35a.49.49,0,0,0-.22,0,21.86,21.86,0,0,1-5.77,0A13.21,13.21,0,0,0,8,46.65a20,20,0,0,0-2.41,1c-.16.39-.31.78-.46,1.16l.23-.07c.87-.33,1.69-.79,2.57-1.09,1.8-.64,3.73-.19,5.56,0a22.7,22.7,0,0,0,4.28.13q-2.21,1.43-4.5,2.72a16,16,0,0,0-3.66,2.6,5.22,5.22,0,0,0-.39.43.45.45,0,0,0-.36-.16,11.26,11.26,0,0,0-5.32,1.37q-.1.6-.18,1.17A10.53,10.53,0,0,1,8.6,54.34C8,55.19,7.46,56.12,6.92,57c-1.27,2.14-2.55,4.27-3.83,6.41,0,.29.05.45.05.45.34,0,.7,0,1.07-.08l1.94-3.25A11.05,11.05,0,0,1,6,63.63c.32,0,.64-.07,1-.12a10.26,10.26,0,0,0,0-4.13l0,0,.35-.57a35.25,35.25,0,0,1,2.6-4.12,7.75,7.75,0,0,1,.81-.9c-.1,2.51.17,5,.17,7.51,0,.56,0,1.12-.06,1.68l.93-.17c0-.47.05-.93.05-1.4,0-2.78-.35-5.55-.13-8.33a.19.19,0,0,0,0-.08,18.24,18.24,0,0,1,1.66-1.09c1.28-.75,2.56-1.49,3.82-2.26a48.11,48.11,0,0,1-.15,12.11l1-.21a48.7,48.7,0,0,0,.07-12.42v0C19,48.41,20,47.73,21,47c1.26-.9,2.5-1.84,3.7-2.82L25,44c-.12,1.34-.27,2.68-.3,4-.05,2,.14,4.11.18,6.16,0,1.87,0,3.73-.15,5.59l.94-.27c.11-1.65.15-3.3.13-5,0-2.1-.19-4.19-.19-6.29,0-1.7.25-3.39.38-5.09.76-.63,1.51-1.26,2.3-1.85a19.32,19.32,0,0,1,6.39-2.93c.2,1.18.41,2.36.7,3.53l0,0a37.22,37.22,0,0,0-6.74,16.66l1-.32A36.3,36.3,0,0,1,35.71,43c.11.38.24.75.38,1.12.72,1.86,1.78,3.56,2.35,5.49a19.78,19.78,0,0,1,.72,4.25C39.46,53.66,39.75,53.44,40,53.22Z" fill="#297552"/><path d="M97.5,60c-1.83-5.89-3.26-7.72-6.43-9.59s-6.91-1.21-7.4.25a3.56,3.56,0,0,0,.66,2.93s-2.65-3-4.68-.61-2.88,5.41,0,8.54,12.16,8.24,17.41,10A18.87,18.87,0,0,0,97.5,60Z" fill="#0e613b"/><path d="M97.5,60c-1.83-5.89-3.26-7.72-6.43-9.59s-6.91-1.21-7.4.25a3.56,3.56,0,0,0,.66,2.93s-2.65-3-4.68-.61-2.88,5.41,0,8.54,12.16,8.24,17.41,10A18.87,18.87,0,0,0,97.5,60Z" fill="#0e613b"/><path d="M96.25,70.34a30.73,30.73,0,0,1-7.18-3.89c-3.19-2.45-9.78-4.34-9.73-7.66s1.94-5.42,6.64-3.68c0,0-2.71-3.52.61-4.29s4.91,1.79,6.9,4.75a16.46,16.46,0,0,1,2.76,8.69A53.17,53.17,0,0,1,96.25,70.34Z" fill="#fff" opacity="0.14" style="mix-blend-mode:overlay"/><path d="M95.28,63.46A6.07,6.07,0,0,1,93,62.82a12.31,12.31,0,0,0-1.55-3.25,8.27,8.27,0,0,0-.65-.79c1.27.12,2.54-.08,3.82.06a14.2,14.2,0,0,1,2.68.61c-.06-.18-.11-.36-.17-.53a16.81,16.81,0,0,0-2.29-.52c-1.47-.19-3,.12-4.44-.13a.17.17,0,0,0-.1,0,23,23,0,0,0-2-1.65l5.59,0c.79,0,1.61-.05,2.41,0-.07-.16-.13-.31-.2-.46-.66,0-1.33,0-2,0l-6.42,0a16,16,0,0,1-3.07-2.73c1.82.17,3.41-.75,5.09-1.36a13.18,13.18,0,0,1,2.91-.65L92.08,51a13.35,13.35,0,0,0-1.88.39c-1.92.58-3.76,1.9-5.85,1.51h-.09a.33.33,0,0,0-.39-.14,4.55,4.55,0,0,0,.46.78,5.39,5.39,0,0,0-.68-.63.36.36,0,0,0,0,.09,4.63,4.63,0,0,0-1.34,2.08,14.18,14.18,0,0,1-.61,1.52,6.58,6.58,0,0,1-1.28,1.6,15.25,15.25,0,0,0-1.7,2l.29.43a16.33,16.33,0,0,1,1.87-2.24A6.82,6.82,0,0,0,82.45,56a5.67,5.67,0,0,1,1.35-2.49A10.39,10.39,0,0,0,85.21,55a.2.2,0,0,0,0,.14c0,.63.08,1.27.09,1.91A4.31,4.31,0,0,1,84.69,59a13.61,13.61,0,0,0-1,3.55c-.09.68-.15,1.36-.19,2l.43.29c0-.76.11-1.51.22-2.27a14.06,14.06,0,0,1,1.13-3.9,6.56,6.56,0,0,0,.31-3.32c.44.37.89.72,1.36,1.07a.21.21,0,0,0,.19.15,22.1,22.1,0,0,1,3.07,2.55q.18.2.33.39a24.94,24.94,0,0,0-.4,3.24,18,18,0,0,1-1.12,3.64,7.48,7.48,0,0,0-.29,1.29l.42.23a7.66,7.66,0,0,1,.32-1.4,19.37,19.37,0,0,0,1.08-3.39c.15-1,.16-2.09.35-3.12A20.6,20.6,0,0,1,92.72,64c.21.53.45,1,.69,1.57,0,0,0,0,0,0a15.17,15.17,0,0,0-.53,4.18l.48.21a12.29,12.29,0,0,1,.4-3.77c.47.94,1,1.87,1.52,2.78.44.75.92,1.52,1.32,2.32l.49.16s.06-.14.15-.42c-.2-.41-.42-.81-.65-1.21a57,57,0,0,1-2.8-5.15,12.52,12.52,0,0,1-.5-1.25,6.13,6.13,0,0,0,1.57.4,7.67,7.67,0,0,1,2.37.82l1,.54V64.7l-.78-.42A8.44,8.44,0,0,0,95.28,63.46Z" fill="#297553"/><path d="M91.43,28.25C87.36,18.54,84.65,15.66,79,13S67,12.06,66.42,14.63,68,19.49,68,19.49s-5-4.75-8-.27-4,9.66,1.39,14.5,22,12,31.19,14.15C92.55,47.87,95.5,38,91.43,28.25Z" fill="#0e613b"/><path d="M91.43,28.25C87.36,18.54,84.65,15.66,79,13S67,12.06,66.42,14.63,68,19.49,68,19.49s-5-4.75-8-.27-4,9.66,1.39,14.5,22,12,31.19,14.15C92.55,47.87,95.5,38,91.43,28.25Z" fill="#013729"/><path d="M91,46a52,52,0,0,1-12.82-5.44C72.33,37,60.83,34.8,60.38,29.15s2.42-9.51,10.68-7.32c0,0-5.17-5.55.35-7.39s8.62,2.24,12.49,7S89.15,30.62,90,35.7A89.58,89.58,0,0,1,91,46Z" fill="#fff" opacity="0.14" style="mix-blend-mode:overlay"/><path d="M88.21,34.52a10.65,10.65,0,0,1-3.92-.73,21.47,21.47,0,0,0-3.15-5.28,16.24,16.24,0,0,0-1.25-1.24c2.18,0,4.32-.53,6.5-.51a24,24,0,0,1,4.66.61l-.37-.87a26.94,26.94,0,0,0-4-.52c-2.53-.09-5,.68-7.56.49a.57.57,0,0,0-.18,0A38.2,38.2,0,0,0,75.28,24l9.48-.93c1.34-.14,2.72-.36,4.09-.4l-.4-.75c-1.13.06-2.27.21-3.38.32L74.15,23.34A27.74,27.74,0,0,1,68.5,19.2c3.11,0,5.68-1.81,8.43-3.12a21.39,21.39,0,0,1,4.84-1.57c-.32-.2-.66-.4-1-.59a22.88,22.88,0,0,0-3.11,1c-3.17,1.29-6.09,3.83-9.7,3.5a.29.29,0,0,0-.16,0h0a.6.6,0,0,0-.68-.17,7,7,0,0,0,.9,1.25,10.5,10.5,0,0,0-1.24-1,.58.58,0,0,0-.06.17,7.7,7.7,0,0,0-1.94,3.74,24.33,24.33,0,0,1-.8,2.68,11.34,11.34,0,0,1-1.91,2.94,25.42,25.42,0,0,0-2.56,3.67c.17.22.36.45.56.67a26.72,26.72,0,0,1,2.82-4.1,11.75,11.75,0,0,0,2.32-4.44c.43-1.55.75-3.27,1.9-4.45a17.68,17.68,0,0,0,2.64,2.41.3.3,0,0,0,0,.23c.15,1.08.33,2.16.46,3.24a7.69,7.69,0,0,1-.64,3.4,22.67,22.67,0,0,0-1,6.18c0,1.16,0,2.33,0,3.5l.79.42c0-1.3-.06-2.59,0-3.89a23.34,23.34,0,0,1,1.3-6.82c.67-1.91.28-3.75,0-5.69.81.56,1.64,1.09,2.48,1.6a.37.37,0,0,0,.36.22A39.37,39.37,0,0,1,79,28.05c.22.2.42.4.62.61a42.93,42.93,0,0,0-.16,5.56c0,2.24-.81,4.22-1.31,6.37a12.27,12.27,0,0,0-.29,2.24l.76.32a12.53,12.53,0,0,1,.31-2.42,32.71,32.71,0,0,0,1.29-5.95c.08-1.78-.07-3.57.1-5.34A36.12,36.12,0,0,1,84,35.85c.45.86.93,1.71,1.43,2.54a.24.24,0,0,0,0,.08,25.82,25.82,0,0,0-.24,7.18l.85.29A21.27,21.27,0,0,1,86,39.47q1.44,2.28,3,4.47c.88,1.21,1.82,2.43,2.62,3.72l.86.21s.08-.26.19-.74c-.41-.67-.85-1.32-1.31-2-1.93-2.72-3.92-5.38-5.58-8.29-.38-.66-.72-1.35-1.06-2a10.74,10.74,0,0,0,2.74.42,13,13,0,0,1,4.16,1c.61.24,1.2.51,1.8.76,0-.29,0-.59-.08-.89L92,35.56A13.22,13.22,0,0,0,88.21,34.52Z" fill="#0e643d"/><path d="M35.36,86.41c-2.69-10.08-.81-18.45,4.31-22.1s11.85-.21,12.65,2.79c0,0,1.35-6.43,11-4.29s11.32,10.73,9.16,20.38-12.93,25.31-17.23,26.6S38.05,96.49,35.36,86.41Z" fill="#013729"/><path d="M54.34,108.43a24.81,24.81,0,0,1-9.05-7.72c-3.93-5.46-8.12-12.92-7.46-20.84s.46-10.42,5.11-12,9.19,1.81,9.19,1.81S57,65,61.74,64.7,68.9,69.24,69,75.12a36.14,36.14,0,0,1-3.53,17.52c-3,6.24-5,9.61-6.43,11.4A39.58,39.58,0,0,1,54.34,108.43Z" fill="#fff" opacity="0.14" style="mix-blend-mode:overlay"/><path d="M71.17,76.51c-.77-.84-1.42-1.78-2.13-2.68a20.6,20.6,0,0,0-9.47-6.76A20.29,20.29,0,0,0,53,66l-.1,0a.57.57,0,0,0-.08-.13,5.08,5.08,0,0,0-.52,1.25,3.3,3.3,0,0,0-.5-1,.11.11,0,0,0,0,.08c0,.14,0,.27,0,.4a18.71,18.71,0,0,0-11.42,1.77,21.11,21.11,0,0,0-4.9,3.61l-.91.85c-.09.46-.18.94-.25,1.42.44-.36.87-.73,1.29-1.12a23.48,23.48,0,0,1,4.5-3.57,18,18,0,0,1,5.18-1.94,17.61,17.61,0,0,1,6.31-.13.43.43,0,0,0,.28,0c.07.76.14,1.52.2,2.28h-.05c-1.84.09-3.08,1.53-4,3a16.16,16.16,0,0,1-1.51,2.23,5.46,5.46,0,0,1-2.64,1.5A16.35,16.35,0,0,0,38.82,79a43.32,43.32,0,0,0-4.22,3.9q.09.56.21,1.11L35,83.9a50.13,50.13,0,0,1,4-3.75,14.9,14.9,0,0,1,4.89-2.76,9,9,0,0,0,2.57-1.08,6.68,6.68,0,0,0,1.57-1.7c1-1.51,2-3.92,4.14-4a.42.42,0,0,0,.12,0c.11,1.49.2,3,.26,4.49s.09,2.89.11,4.34c0,1.08,0,2.16,0,3.24A9.69,9.69,0,0,0,48,85.13c-1.46,1.42-2.26,3.29-3.29,5-1.31,2.18-3.29,3.57-5.29,5l.5.78c.52-.36,1-.72,1.52-1.08a14.88,14.88,0,0,0,3.36-3.17c1.16-1.58,1.85-3.44,3-5a8.85,8.85,0,0,1,4.88-3.14c0,.06,0,.11,0,.17a39.73,39.73,0,0,0,.81,4,23.71,23.71,0,0,1,.52,4.37c0,.37,0,.74,0,1.11l-.05,0a10.73,10.73,0,0,0-5.24,6.7A12.52,12.52,0,0,1,47,104.36a3,3,0,0,1-.22.28l.65.65c.15-.18.29-.35.42-.53a11.66,11.66,0,0,0,1.65-4,11.55,11.55,0,0,1,1.71-3.9,9.64,9.64,0,0,1,2.88-2.59c.05,2.21.07,4.43.11,6.64.05,3,.11,6,.16,8.95a2.21,2.21,0,0,0,.9-.06,1.3,1.3,0,0,0,.25-.1c-.1-5.52-.18-11-.3-16.58,0-1.11-.08-2.21-.2-3.31A16,16,0,0,1,61.5,96c.8,1.42,1.16,3.2,2.5,4.25l.18.13c.18-.25.35-.51.52-.77a4.53,4.53,0,0,1-1.36-1.86,20.64,20.64,0,0,0-1.14-2.37,16.81,16.81,0,0,0-7.32-6.72c-.22-1.33-.59-2.62-.85-3.94-.53-2.79-.29-5.74-.38-8.57,0-.61,0-1.21-.08-1.81a38.62,38.62,0,0,1,8.72,5.72,20,20,0,0,1,3.48,4.19c1.07,1.75,1.79,3.68,3,5.33.3.4.62.79,1,1.16l.42-.91c-.2-.23-.39-.47-.58-.71-1.24-1.65-2-3.58-3-5.33a24.28,24.28,0,0,0-7.66-7.47,56,56,0,0,0-5.39-3c-.11-2.15-.28-4.29-.49-6.43a19.68,19.68,0,0,1,10.89,3.39,18.86,18.86,0,0,1,4.2,3.87c.73.9,1.38,1.86,2.14,2.73A21.42,21.42,0,0,0,72.41,79l.74.63c0-.38.08-.74.11-1.11A23.09,23.09,0,0,1,71.17,76.51Z" fill="#0e643d"/><path d="M25.43,14.13C28.23,7,33,2.92,37.59,3s7.07,5,6.23,7.16c0,0,3.6-3.21,8.37,2.28s2,11.24-3.48,16S30.07,37.7,27,36.58,22.62,21.24,25.43,14.13Z" fill="#013729"/><path d="M27,35.36a18.17,18.17,0,0,1-2-8.48c.07-4.93.85-11.15,4.69-15.52S34.54,5.42,38,6.52s4.62,5.06,4.62,5.06,4.95-.63,7.83,1.26,2.23,5.8-.27,9.3a26.57,26.57,0,0,1-9.71,8.78,47.93,47.93,0,0,1-8.75,3.9A28.55,28.55,0,0,1,27,35.36Z" fill="#fff" opacity="0.14" style="mix-blend-mode:overlay"/><path d="M50.82,23.91c-.08-.84-.06-1.67-.08-2.51a15,15,0,0,0-6-11.62l-.07,0a.41.41,0,0,0,0-.11,3.89,3.89,0,0,0-.85.52A2.46,2.46,0,0,0,44,9.32l0,0-.15.25A13.63,13.63,0,0,0,36.3,5.69a15.87,15.87,0,0,0-4.46,0l-.9.11c-.26.23-.52.47-.77.73.41,0,.83,0,1.24-.1a17.47,17.47,0,0,1,4.21-.14,12.85,12.85,0,0,1,3.89,1.11,12.53,12.53,0,0,1,3.77,2.68.37.37,0,0,0,.19.09c-.29.48-.58,1-.88,1.43l0,0a3.9,3.9,0,0,0-3.65,0,10.67,10.67,0,0,1-1.87.66,4,4,0,0,1-2.2-.26,12.13,12.13,0,0,0-4.18-.67,31.07,31.07,0,0,0-4.18.46l-.36.74.14,0a38.08,38.08,0,0,1,4-.49,10.89,10.89,0,0,1,4.09.51,6.45,6.45,0,0,0,2,.48A4.7,4.7,0,0,0,38,12.67c1.27-.44,2.89-1.44,4.2-.57,0,0,0,0,.08,0-.59.93-1.19,1.85-1.8,2.75s-1.21,1.75-1.83,2.61c-.46.64-.94,1.27-1.38,1.93a7.16,7.16,0,0,0-3.82-.54,16.68,16.68,0,0,0-4.13,1.52A12.86,12.86,0,0,1,24,21c0,.22,0,.45-.05.67l1.37,0a10.9,10.9,0,0,0,3.36-.4c1.37-.42,2.58-1.22,4-1.61a6.5,6.5,0,0,1,4.24.27l-.06.11a29.34,29.34,0,0,0-1.28,2.72A16.82,16.82,0,0,1,34,25.63l-.46.67h0a7.87,7.87,0,0,0-6,1.66,9.31,9.31,0,0,1-3,1.84l-.25.07c0,.22.06.44.1.66l.48-.13a8.71,8.71,0,0,0,2.72-1.64,8.37,8.37,0,0,1,2.7-1.55,6.9,6.9,0,0,1,2.82-.27c-.93,1.32-1.89,2.63-2.83,3.95l-3.8,5.34a1.63,1.63,0,0,0,.55.36l.2.05c2.35-3.29,4.71-6.58,7-9.89.47-.67.92-1.34,1.32-2a11.59,11.59,0,0,1,1.09,6.48c-.14,1.19-.7,2.4-.38,3.59a1.42,1.42,0,0,1,0,.16l.65-.22A3.38,3.38,0,0,1,37,33a16.6,16.6,0,0,0,.36-1.89A12.37,12.37,0,0,0,35.93,24c.44-.88.79-1.8,1.21-2.69a40.26,40.26,0,0,1,3.51-5.21L41.4,15A28.26,28.26,0,0,1,44,22.14a14.46,14.46,0,0,1,.23,4c-.13,1.5-.55,2.94-.54,4.45,0,.37,0,.74.05,1.1l.64-.35c0-.22,0-.45,0-.67a44.85,44.85,0,0,1,.54-4.46,18,18,0,0,0-1.25-7.73,41.44,41.44,0,0,0-1.85-4.14c.87-1.31,1.7-2.65,2.51-4a14.43,14.43,0,0,1,4.93,6.74,14.06,14.06,0,0,1,.79,4.11c0,.85,0,1.7.07,2.54a14.54,14.54,0,0,0,.34,2.18c.05.23.11.46.17.69l.55-.6A16.48,16.48,0,0,1,50.82,23.91Z" fill="#0e643d"/><path d="M86.93,49.25a8.28,8.28,0,0,1,4.14,1.15c.36.21.69.42,1,.64h0a5.3,5.3,0,0,1,.54.39h0a10.82,10.82,0,0,1,3.48,4.71h0c.07.15.13.3.2.46h0c.28.69.56,1.45.85,2.32h0c.06.16.11.33.16.5v0c.06.18.12.35.17.54a16.09,16.09,0,0,1,.71,4.71h0v.52h0a20.15,20.15,0,0,1-1,5.85h0l0,.07c0,.09-.06.17-.08.22l0,0,0,.09-.49-.16h0c-1-.35-2.07-.8-3.23-1.32h0l-.48-.21h0c-1.19-.54-2.43-1.16-3.66-1.81h0l-.42-.23h0c-1.69-.91-3.34-1.88-4.8-2.84h0l-.14-.09-.28-.19h0a23,23,0,0,1-3.89-3.1,10.2,10.2,0,0,1-.69-.84h0l-.29-.42h0c-1.65-2.66-.78-5.16,1-7.27A2.31,2.31,0,0,1,81.47,52a4,4,0,0,1,2.44,1.15l.07.06.14.13,0,.06.09.09,0,0,0,0-.11-.16,0-.06-.1-.16s0-.06-.06-.1l-.09-.19-.06-.11h0a3,3,0,0,1-.21-2.15c.28-.83,1.59-1.4,3.26-1.4m0-3c-2.72,0-4.88,1-5.81,2.79a5.39,5.39,0,0,0-3.78,2c-3.94,4.74-2.44,8.79-1.2,10.78l.38.57,0,0a12.11,12.11,0,0,0,.91,1.13A25.6,25.6,0,0,0,81.77,67l.11.08.26.17,0,0,0,0,.09.06c1.52,1,3.25,2,5,3l.44.23.11.06c1.22.65,2.43,1.25,3.6,1.79l.1.05.5.23.12.05c1.15.51,2.22.95,3.19,1.3l.17.06.54.19a2.83,2.83,0,0,0,.95.16,3,3,0,0,0,2.79-1.92l0-.11,0-.07.1-.28,0-.08a22.56,22.56,0,0,0,1.15-6.76c0-.19,0-.4,0-.61s0-.13,0-.2a19.58,19.58,0,0,0-.84-5.37l-.13-.39,0-.18v0l-.05-.16L100,58c-.31-.92-.61-1.75-.93-2.52-.07-.18-.14-.35-.22-.52h0a13.82,13.82,0,0,0-4.41-5.88l0,0-.63-.45c-.38-.26-.76-.5-1.18-.74a11.31,11.31,0,0,0-5.66-1.57Z" fill="#013729"/><path d="M73,11.67A14.21,14.21,0,0,1,79,13c.64.3,1.24.61,1.81.92h0c.34.19.67.38,1,.58h0a18.53,18.53,0,0,1,6.68,7.43h0l.4.75h0c.82,1.56,1.67,3.38,2.58,5.56a28.11,28.11,0,0,1,2,7.89h0c0,.29.06.59.08.88h0a34,34,0,0,1-.75,10.1h0c-.11.48-.19.74-.19.74l-.86-.21h0C90,47.23,88,46.64,86,45.94h0l-.84-.29h0c-2.1-.74-4.3-1.59-6.5-2.5l0,0c-7.09-3-14.06-6.58-17.22-9.41a16.06,16.06,0,0,1-1.3-1.32h0c-3.91-4.46-2.87-9.11-.09-13.18a3.87,3.87,0,0,1,3.3-1.92,6.71,6.71,0,0,1,3.5,1.23h0l.46.33.13.09.25.2.11.09.16.14,0,0,.07.06h0a7.33,7.33,0,0,1-.9-1.25h0a5.12,5.12,0,0,1-.69-3.61c.39-1.66,3.12-3,6.55-3m0-3C68,8.67,64.23,10.79,63.5,14c0,.12,0,.24-.07.35h-.16a6.91,6.91,0,0,0-5.78,3.23c-4.08,6-4,12,.31,16.85A19.49,19.49,0,0,0,59.36,36c3.16,2.83,9.92,6.55,18.06,9.94l0,0c2.26.94,4.5,1.8,6.66,2.56l.87.3c2.19.75,4.2,1.35,6,1.79.31.08.62.16.92.22a2.56,2.56,0,0,0,.67.08,3,3,0,0,0,2.88-2.15s.09-.32.23-.9a37.48,37.48,0,0,0,.82-11v0l-.09-1h0a31.08,31.08,0,0,0-2.19-8.73c-1-2.26-1.83-4.16-2.7-5.8-.14-.28-.29-.55-.43-.81A21.48,21.48,0,0,0,83.35,12l0,0c-.34-.21-.7-.42-1.1-.64h0c-.64-.35-1.29-.68-2-1A17.2,17.2,0,0,0,73,8.67Z" fill="#013729"/><path d="M37.45,3h.14A6.72,6.72,0,0,1,44,9.32h0a1.1,1.1,0,0,1,0,.18c0,.08,0,.17,0,.25a2.77,2.77,0,0,1-.12.41l0,0,0,0A.48.48,0,0,1,44,10a.1.1,0,0,1,0,0l.19-.12.08,0,.25-.12.07,0h0a4.67,4.67,0,0,1,1.91-.41c1.46,0,3.41.68,5.61,3.21,4,4.57,2.7,9.33-1,13.54h0l-.55.6h0c-.6.62-1.24,1.24-1.93,1.84C46,30.8,41.3,33.12,36.94,34.71h0l-.28.09-.51.18a.19.19,0,0,1,0,.08,9.48,9.48,0,0,1,3.07-.47,16,16,0,0,1,3.56.44c7.31,1.69,12.66,20.5,13.61,27.89a9.7,9.7,0,0,1,3.35-.54,17.09,17.09,0,0,1,3.64.43c8.09,1.79,10.54,8.06,9.89,15.68h0c0,.37-.07.73-.11,1.11h0c-.15,1.17-.36,2.37-.63,3.58C71.44,88,68.21,94.36,64.7,99.64l-.2.3c-3.44,5.14-7.1,9.22-9.21,9.85a2,2,0,0,1-.43.07H54.7c-1.86,0-4.82-2.1-7.89-5.23h0c-4.8-4.9-9.88-12.33-11.45-18.23-.22-.8-.39-1.59-.55-2.37h0q-.12-.55-.21-1.11h0a28.3,28.3,0,0,1-.22-8.75h0c0-.13.05-.26.07-.39.06-.33.11-.66.18-1v0h0a13.52,13.52,0,0,1,5-8.45,8.43,8.43,0,0,1,5-1.57,9.15,9.15,0,0,1,7.18,3.32h0a1.55,1.55,0,0,1,.12.22,2.82,2.82,0,0,1,.18.29,3.16,3.16,0,0,1,.2.53l0-.08v0a1.89,1.89,0,0,1,.06-.21l0-.07c0-.09.07-.18.11-.29l.06-.12a3.59,3.59,0,0,1,.17-.34.31.31,0,0,1,.05-.1h0a6.35,6.35,0,0,1,2.43-2.43,50.18,50.18,0,0,0-1.68-8.57C52.46,51.48,48.27,40,46.44,38.3a12.34,12.34,0,0,0-5.83-3.06,3.69,3.69,0,0,0-.71-.06,12.41,12.41,0,0,0-4.19.91,7.93,7.93,0,0,1-.61,1h0a7.83,7.83,0,0,1-1.29,1.34l.08,0,0,0,.18-.11.11-.06.25-.14.15-.08.32-.16.19-.09.39-.17.2-.08.46-.17.21-.07L37,37l.11,0a4.81,4.81,0,0,1,.76-.12h0l.52,0a4.08,4.08,0,0,1,3.9,2.65c2.19,4.71,2.48,9.72-2.27,13.7v0l-.31.23-.44.35-.11.08h0l-.86.6C34.37,57,26,59.64,17.85,61.52h0l-.15,0-.8.18h0c-1.78.4-3.54.75-5.24,1.05h0l-.93.17c-1.68.28-3.28.51-4.77.68H6c-.6.07-1.18.13-1.74.17-.37,0-.73.06-1.07.08h0v0s0-.19,0-.41v0h0A35.53,35.53,0,0,1,5.58,47.64h0a28,28,0,0,1,2.14-4.13c.29-.47.58-.92.86-1.35h0L8.67,42,9,41.53,9.31,41h0c.78-1.17,1.53-2.21,2.24-3.14h0a.76.76,0,0,1,.08-.11l.42-.54c.1-.11.19-.24.28-.35h0A19.28,19.28,0,0,1,19.79,31h0l.09,0c.49-.21,1-.41,1.5-.59l.05,0h0c.64-.23,1.31-.44,2-.64l.73-.17a41.71,41.71,0,0,1-.23-7.8h0a25.75,25.75,0,0,1,1.48-7.58c.22-.56.46-1.1.71-1.63h0l.36-.74h0a20.94,20.94,0,0,1,3.68-5.25h0l.22-.21.52-.49,0,0h0A9.94,9.94,0,0,1,37.45,3m0-3a12.86,12.86,0,0,0-8.4,3.45l-.11.09-.06.06-.57.54-.06.05L28,4.4l-.1.11a23.78,23.78,0,0,0-4.06,5.79l-.06.1c-.13.27-.27.55-.4.83l-.06.16c-.28.6-.51,1.12-.71,1.64A29.22,29.22,0,0,0,21,21.5v0h0a46.61,46.61,0,0,0,0,5.79l-.4.13-.12,0-.12.05c-.54.19-1.07.4-1.59.62l-.16.07-.17.08a22.49,22.49,0,0,0-8.25,6.55L10,35l-.2.26-.1.12c-.16.2-.31.38-.45.58l-.09.1-.09.12c-.68.9-1.39,1.9-2.16,3l-.11.15-.22.34-.12.17L6.4,40l-.25.37,0,0-.06.09-.06.1-.82,1.29a30.75,30.75,0,0,0-2.36,4.57A38.61,38.61,0,0,0,.1,63.68c0,.29,0,.46,0,.52a3,3,0,0,0,3,2.68h.18l1.14-.09,1.83-.18c1.54-.17,3.2-.41,4.94-.71l1-.16c1.74-.32,3.53-.67,5.34-1.07h0l.66-.15.16,0,.07,0,.08,0C28,62.28,36,59.49,39.91,57c.31-.2.58-.39.83-.57l.17-.12.17-.12.49-.39.07,0,.3-.24.23-.21a12.57,12.57,0,0,0,4.61-10c1.39,3.29,3,7.5,4,10.44a39.25,39.25,0,0,1,1.32,6.27l0,0a13.1,13.1,0,0,0-7.39-2.37,11.48,11.48,0,0,0-6.7,2.13A16.34,16.34,0,0,0,31.73,72a.94.94,0,0,0,0,.16.43.43,0,0,0,0,.12c-.08.35-.13.69-.18,1l0,.12-.06.36a1,1,0,0,1,0,.17,31.66,31.66,0,0,0,.24,9.37.59.59,0,0,1,0,.13c.07.4.15.8.23,1.2,0,.07,0,.13,0,.2.18.87.36,1.62.55,2.34,1.8,6.75,7.43,14.68,12.21,19.56,4,4.07,7.36,6.13,10,6.13h.36a5.42,5.42,0,0,0,1.08-.19c3.75-1.12,8.41-7.41,10.85-11.06l.07-.09.14-.22c4.11-6.19,7.19-12.72,8.25-17.45.29-1.33.52-2.63.67-3.88,0-.41.09-.81.13-1.22a1.69,1.69,0,0,0,0-.23c.79-10.1-3.55-16.71-12.25-18.64a20.36,20.36,0,0,0-4.29-.5c-.31,0-.61,0-.91,0-1.44-7.14-5.39-21.09-12.23-25.86a27.08,27.08,0,0,0,4.09-2.86,27.89,27.89,0,0,0,2.14-2c.22-.22.42-.45.63-.68a1.83,1.83,0,0,1,.13-.16C58.63,22,59,15.65,54.46,10.47,52,7.66,49.36,6.23,46.58,6.23h-.21A10.6,10.6,0,0,0,44.28,3a9.39,9.39,0,0,0-6.64-3Z" fill="#013729"/><path d="M54.81,124.38c-1.34,0-33-.08-33-6.94,0-2.09,2.62-3.21,4.58-3.87A1.27,1.27,0,0,1,27.2,116c-2.14.72-2.7,1.29-2.82,1.47.91,1.61,11.61,4.39,30.43,4.39s29.52-2.78,30.44-4.39c-.13-.18-.69-.76-2.88-1.49a1.27,1.27,0,1,1,.8-2.41c2,.66,4.65,1.78,4.65,3.89C87.82,124.3,56.16,124.38,54.81,124.38Zm30.47-6.88h0Z" fill="#2e2c42"/><path d="M54.81,296.3A1.27,1.27,0,0,1,53.54,295V123.11a1.27,1.27,0,1,1,2.54,0V295A1.27,1.27,0,0,1,54.81,296.3Z" fill="#2e2c42"/><path d="M63.4,278.67a1.26,1.26,0,0,1-1.27-1.26l-.62-154.29a1.28,1.28,0,0,1,1.27-1.28h0a1.27,1.27,0,0,1,1.27,1.27l.62,154.29a1.27,1.27,0,0,1-1.27,1.27Z" fill="#2e2c42"/><path d="M54.81,296.3A1.27,1.27,0,0,1,53.54,295V123.11a1.27,1.27,0,1,1,2.54,0V295A1.27,1.27,0,0,1,54.81,296.3Z" fill="#2e2c42"/><path d="M54.81,296.3A1.27,1.27,0,0,1,53.54,295V123.11a1.27,1.27,0,1,1,2.54,0V295A1.27,1.27,0,0,1,54.81,296.3Z" fill="#2e2c42"/></g></g></g></g></g></svg>