<svg xmlns="http://www.w3.org/2000/svg" viewBox="0 0 84.6 73.6"><g id="Layer_2" data-name="Layer 2"><g id="Layer_1-2" data-name="Layer 1"><path d="M26.6,53.1a8.2,8.2,0,0,1-4.7-1.4c-2.7-2.1-3.3-5.8-2.9-8.5a24.1,24.1,0,0,1,.7-3.5,57.9,57.9,0,0,1,2.8-8.3l.6-1.5,2.4-5.3.7-1.5.5-.9,2.7-5.1.3-.5.7-1.1c1.3-2,2.6-3.8,3.9-5.5a1.8,1.8,0,0,0,.5-.7l1.1-1.2H36a19,19,0,0,1,8-5.9l.8-.3a10.7,10.7,0,0,1,2.5-.3,9.1,9.1,0,0,1,6.1,2.3,10.1,10.1,0,0,1,3,7.7c-.4,6.1-3.5,12.5-6,17.6-3.9,8.2-7.8,14-12.2,18.4s-7.5,5.6-11.3,5.6Z" style="fill:#c7804c"/><path d="M47.3,3a7.2,7.2,0,0,1,5,1.9,8.4,8.4,0,0,1,2.6,6.5c-.3,5.8-3.3,11.9-5.8,17.1s-7,12.9-12,18c-2.7,2.7-6.3,5.1-10.2,5.1h-.3a6.5,6.5,0,0,1-3.8-1.1c-2.1-1.6-2.7-4.5-2.3-7.1a19.1,19.1,0,0,1,.6-3.3,66.2,66.2,0,0,1,2.8-8.2c.1-.1.1-.3.2-.5h0a3.6,3.6,0,0,0,.4-.9l2.4-5.3c.2-.3.3-.7.5-1a.8.8,0,0,1,.2-.4l.4-.9,2.7-5,.3-.5.7-1.1a52.2,52.2,0,0,1,3.8-5.4l.5-.6L37.1,9h0c2.1-2.4,4.6-4.6,7.3-5.5l.8-.2A7.6,7.6,0,0,1,47.3,3m0-3h0a10.1,10.1,0,0,0-2.9.4,1.6,1.6,0,0,0-.9.3c-2.9.9-5.8,3.1-8.7,6.3h0L33.7,8.4l-.6.7a61.3,61.3,0,0,0-3.9,5.6,4.1,4.1,0,0,0-.7,1.1,2.1,2.1,0,0,0-.4.6c-.9,1.6-1.9,3.3-2.8,5.1v.2l-.3.8v.4h-.1l-.4.9q-1.2,2.6-2.4,5.4a3.6,3.6,0,0,0-.4.9h-.1v.5a58.1,58.1,0,0,0-2.9,8.6c-.3,1.2-.5,2.4-.7,3.5-.6,4.1.8,7.9,3.5,10a9.3,9.3,0,0,0,5.6,1.7h.3q6.3,0,12.3-6c4.6-4.6,8.5-10.5,12.6-18.8,2.5-5.3,5.7-11.8,6.1-18.2a11.4,11.4,0,0,0-3.5-8.9A10.8,10.8,0,0,0,47.3,0Z" style="fill:#924f28"/><path d="M54.9,11.4c-.3,5.8-3.3,11.9-5.8,17.1s-7,12.9-12,18c-2.8,2.8-6.4,5.2-10.5,5.1a6.5,6.5,0,0,1-3.8-1.1c-2.1-1.6-2.7-4.5-2.3-7.1a19.1,19.1,0,0,1,.6-3.3,6.1,6.1,0,0,0,3.8,3.7c2.4.8,5-.4,7-1.8C40,36.6,44.8,27.8,48.8,19A39.4,39.4,0,0,0,52,9.7a15.5,15.5,0,0,0,.3-4.8A8.4,8.4,0,0,1,54.9,11.4Z" style="fill:#c0743d"/><path d="M44.4,3.5a20.3,20.3,0,0,1-1.5,8,3.6,3.6,0,0,1-.4,1.1,1.4,1.4,0,0,1-.2.6c-.4.9-.7,1.8-1.2,2.7s-1,2.1-1.6,3.2L39,20c-.1.1-.1.3-.2.4a38.1,38.1,0,0,1-2.9,4.1l-.5.6-.3.3a1.2,1.2,0,0,1-.5.5,17.6,17.6,0,0,1-5.8,4.3,9.2,9.2,0,0,1-2.3.9l-1,.3a4.8,4.8,0,0,1-1.2,0h-.2a3.6,3.6,0,0,0,.4-.9l2.4-5.3c.2-.3.3-.7.5-1a.8.8,0,0,1,.2-.4l.4-.9,2.7-5,.3-.5.7-1.1a52.2,52.2,0,0,1,3.8-5.4l.5-.6L37.1,9h0C39.2,6.6,41.7,4.4,44.4,3.5Z" style="fill:#db9869;opacity:0.46"/><path d="M34.3,36.4a14.3,14.3,0,0,0-10.4-4.5c.1-.1.1-.3.2-.5h0a3.6,3.6,0,0,0,.4-.9,8.2,8.2,0,0,1,4.3-.3C33,31.3,34.2,36.2,34.3,36.4Z" style="fill:#db9869"/><path d="M34.3,36.4a14.3,14.3,0,0,0-10.4-4.5c.1-.1.1-.3.2-.5h1.4A10.3,10.3,0,0,1,34.3,36.4Z" style="fill:#c0743d"/><path d="M38.2,28.7a17.6,17.6,0,0,0-3.6-2.8,15.3,15.3,0,0,0-7.2-1.7.8.8,0,0,1,.2-.4l.4-.9c3.9-1.4,6.4-.1,7.9,1.6A11.5,11.5,0,0,1,38.2,28.7Z" style="fill:#db9869"/><path d="M38.2,28.7a17.6,17.6,0,0,0-3.6-2.8,15.3,15.3,0,0,0-7.2-1.7.8.8,0,0,1,.2-.4,10.1,10.1,0,0,1,7.5,1.6A12,12,0,0,1,38.2,28.7Z" style="fill:#c0743d"/><path d="M41,22.3a18.6,18.6,0,0,0-2.2-1.9,14.2,14.2,0,0,0-8.1-2.5l.3-.5.7-1.1c4.1-1.1,6.5.8,7.8,2.8A9.9,9.9,0,0,1,41,22.3Z" style="fill:#db9869"/><path d="M41,22.3a18.6,18.6,0,0,0-2.2-1.9,14.2,14.2,0,0,0-8.1-2.5l.3-.5A9.8,9.8,0,0,1,39,20,10,10,0,0,1,41,22.3Z" style="fill:#c0743d"/><path d="M44.9,15.3a12.6,12.6,0,0,0-2.6-2.1,14.1,14.1,0,0,0-6.8-2.3l.5-.6L37.1,9a6.4,6.4,0,0,1,5.8,2.5A13.4,13.4,0,0,1,44.9,15.3Z" style="fill:#db9869"/><path d="M44.9,15.3a12.6,12.6,0,0,0-2.6-2.1,14.1,14.1,0,0,0-6.8-2.3l.5-.6a9.9,9.9,0,0,1,6.5,2.3A14.1,14.1,0,0,1,44.9,15.3Z" style="fill:#c0743d"/><path d="M26.2,40c-.8,0-.7,1.2.1,1.2S26.9,40,26.2,40Z" style="fill:#aa602b"/><path d="M28,37.6c-.8,0-.7,1.2.1,1.2S28.8,37.6,28,37.6Z" style="fill:#aa602b"/><path d="M28.8,39.7c-1,0-.8,1.6.2,1.6S29.8,39.7,28.8,39.7Z" style="fill:#aa602b"/><path d="M36.8,31.9c-1,0-.8,1.5.2,1.5S37.8,31.9,36.8,31.9Z" style="fill:#aa602b"/><path d="M41.7,26.3c-1,0-.8,1.6.2,1.6S42.7,26.3,41.7,26.3Z" style="fill:#aa602b"/><path d="M43.8,17.6c-1.1,0-.9,1.5.1,1.5S44.7,17.6,43.8,17.6Z" style="fill:#aa602b"/><path d="M40,15.7c-1,0-.9,1.6.1,1.6S41,15.7,40,15.7Z" style="fill:#aa602b"/><path d="M47.8,9.8c-1,0-.8,1.6.2,1.6S48.8,9.8,47.8,9.8Z" style="fill:#aa602b"/><path d="M43.8,7.1c-1.1,0-.9,1.5.1,1.5S44.7,7.1,43.8,7.1Z" style="fill:#aa602b"/><path d="M42.4,55.8a10.6,10.6,0,0,1-3.1-.4A9,9,0,0,1,34.9,53c-2.4-2.6-2.1-6.4-1.1-9,.4-1.1.9-2.1,1.4-3.2A54.3,54.3,0,0,1,40,33.2l.9-1.3,3.6-4.6L45.6,26l.6-.7c1.3-1.6,2.6-3,3.9-4.4l.5-.4.9-.9a42.9,42.9,0,0,1,5.2-4.5,1.8,1.8,0,0,1,.7-.5,7.1,7.1,0,0,1,1.4-1h0c3.4-2.3,6.6-3.7,9.4-3.9h1.1a9.6,9.6,0,0,1,8,3.9,9.5,9.5,0,0,1,1.4,8.2c-1.6,5.9-6.2,11.4-9.9,15.8C63,44.5,57.7,49.3,52.3,52.6A19.5,19.5,0,0,1,42.4,55.8Z" style="fill:#c7804c"/><path d="M69.3,11a8.1,8.1,0,0,1,6.8,3.3,7.8,7.8,0,0,1,1.2,6.9c-1.6,5.6-6,10.9-9.7,15.3S57.7,47.6,51.5,51.3a17.6,17.6,0,0,1-9.1,3,12.4,12.4,0,0,1-2.7-.3A8.3,8.3,0,0,1,36,52c-1.8-2-1.7-5.1-.8-7.5a20.2,20.2,0,0,1,1.4-3,53.1,53.1,0,0,1,4.6-7.4l.3-.4h0l.6-.9,3.6-4.6.7-.8.3-.4.7-.8c1.2-1.4,2.5-2.9,3.8-4.2l.4-.5,1-.9a41.8,41.8,0,0,1,5-4.3l.6-.5,1.5-1h0c2.7-1.9,5.7-3.5,8.7-3.7h.9m0-3H68.1a22.2,22.2,0,0,0-10.2,4.2h0l-1.4,1.1a1.8,1.8,0,0,0-.7.5,56.2,56.2,0,0,0-5.3,4.6l-1,.9-.4.5a42.8,42.8,0,0,0-4,4.4h-.2a1.8,1.8,0,0,1-.5.7l-.2.2v.2l-.7.9L39.7,31l-.6.9h0l-.2.2v.3a50.9,50.9,0,0,0-4.9,7.7,31.1,31.1,0,0,0-1.5,3.3c-1.5,3.9-1,8,1.4,10.6A9.9,9.9,0,0,0,39,56.9a12.2,12.2,0,0,0,3.4.4c3.3,0,6.9-1.2,10.7-3.4,5.6-3.4,10.9-8.3,16.8-15.5,3.8-4.6,8.5-10.2,10.3-16.4A11,11,0,0,0,69.3,8Z" style="fill:#924f28"/><path d="M77.3,21.2c-1.6,5.6-6,10.9-9.7,15.3S57.7,47.6,51.5,51.3C48.1,53.4,43.8,55,39.7,54A8.3,8.3,0,0,1,36,52c-1.8-2-1.7-5.1-.8-7.5a20.2,20.2,0,0,1,1.4-3,6.2,6.2,0,0,0,3,4.5c2.3,1.2,5.2.7,7.6-.2,9.3-3.4,16.3-11,22.2-18.7a36.9,36.9,0,0,0,5.4-8.3,17.8,17.8,0,0,0,1.3-4.5A7.8,7.8,0,0,1,77.3,21.2Z" style="fill:#c0743d"/><path d="M68.4,11.1a24.9,24.9,0,0,1-3.3,7.5l-.7.9-.3.5-1.8,2.4-2.4,2.8-.7.7-.3.4a39,39,0,0,1-3.8,3.3l-.7.5a.5.5,0,0,1-.4.2l-.5.4a19.9,19.9,0,0,1-6.9,2.9,11.5,11.5,0,0,1-2.6.3,1.7,1.7,0,0,1-1,0l-1.3-.2h-.2l.6-.9,3.6-4.6.7-.8.3-.4.7-.8c1.2-1.4,2.5-2.9,3.8-4.2l.4-.5,1-.9a41.8,41.8,0,0,1,5-4.3l.6-.5,1.5-1h0C62.4,12.9,65.4,11.3,68.4,11.1Z" style="fill:#db9869;opacity:0.46"/><path d="M50.8,40.9a15.1,15.1,0,0,0-9.6-6.8l.3-.4h0l.6-.9a8.7,8.7,0,0,1,4.5.8C50.6,35.6,50.8,40.7,50.8,40.9Z" style="fill:#db9869"/><path d="M50.8,40.9a15.1,15.1,0,0,0-9.6-6.8l.3-.4h.2l1.3.2A10.8,10.8,0,0,1,50.8,40.9Z" style="fill:#c0743d"/><path d="M56.4,34.2a14.6,14.6,0,0,0-2.9-3.5,16,16,0,0,0-7.1-3.3l.3-.4.7-.8c4.2-.4,6.5,1.4,7.7,3.4A9.6,9.6,0,0,1,56.4,34.2Z" style="fill:#db9869"/><path d="M56.4,34.2a14.6,14.6,0,0,0-2.9-3.5,16,16,0,0,0-7.1-3.3l.3-.4A11.4,11.4,0,0,1,54,30.3,10.1,10.1,0,0,1,56.4,34.2Z" style="fill:#c0743d"/><path d="M60.7,28.7a15,15,0,0,0-1.8-2.4A15.5,15.5,0,0,0,51.2,22l.4-.5,1-.9a7.2,7.2,0,0,1,7.3,4.6A8.9,8.9,0,0,1,60.7,28.7Z" style="fill:#db9869"/><path d="M60.7,28.7a15,15,0,0,0-1.8-2.4A15.5,15.5,0,0,0,51.2,22l.4-.5a11,11,0,0,1,7.6,4.4A8.1,8.1,0,0,1,60.7,28.7Z" style="fill:#c0743d"/><path d="M66.2,22.7A19.4,19.4,0,0,0,64.1,20a16.1,16.1,0,0,0-6.5-3.7l.6-.5,1.5-1a6.7,6.7,0,0,1,5.4,3.8A11.1,11.1,0,0,1,66.2,22.7Z" style="fill:#db9869"/><path d="M66.2,22.7A19.4,19.4,0,0,0,64.1,20a16.1,16.1,0,0,0-6.5-3.7l.6-.5a10.4,10.4,0,0,1,6.2,3.7A9.6,9.6,0,0,1,66.2,22.7Z" style="fill:#c0743d"/><path d="M41.7,42.5c-.8-.2-.9,1-.1,1.2S42.5,42.7,41.7,42.5Z" style="fill:#aa602b"/><path d="M44.1,40.6c-.8-.2-.9,1-.1,1.2S44.9,40.8,44.1,40.6Z" style="fill:#aa602b"/><path d="M44.5,42.8c-1-.2-1.2,1.4-.2,1.6S45.5,43.1,44.5,42.8Z" style="fill:#aa602b"/><path d="M54.4,37c-1-.2-1.2,1.3-.2,1.6S55.4,37.3,54.4,37Z" style="fill:#aa602b"/><path d="M60.6,32.7c-1-.2-1.2,1.4-.2,1.6S61.6,33,60.6,32.7Z" style="fill:#aa602b"/><path d="M64.6,24.7c-1-.3-1.2,1.3-.2,1.5S65.6,24.9,64.6,24.7Z" style="fill:#aa602b"/><path d="M61.1,22c-1-.2-1.2,1.3-.2,1.5S62.1,22.2,61.1,22Z" style="fill:#aa602b"/><path d="M70.4,18c-1-.2-1.2,1.3-.2,1.6S71.4,18.2,70.4,18Z" style="fill:#aa602b"/><path d="M66.9,14.4c-1.1-.2-1.2,1.3-.2,1.5S67.9,14.6,66.9,14.4Z" style="fill:#aa602b"/><path d="M46.4,72.1a303.2,303.2,0,0,1-31-1.7,6.6,6.6,0,0,1-6.4-6L6.3,37a2.5,2.5,0,0,1,.4-1.2,1.6,1.6,0,0,1,1.1-.5l67.9,1.6a1.2,1.2,0,0,1,1.1.5,1.5,1.5,0,0,1,.4,1.1l-2.3,25a8.4,8.4,0,0,1-8.5,7.8h-.1l-5.9.4C55.9,72,51.1,72.1,46.4,72.1Z" style="fill:#ed9630"/><path d="M7.8,36.8l67.9,1.6-2.3,25a7.1,7.1,0,0,1-7,6.4h-.2l-5.9.4c-4.5.3-9.2.4-13.9.4a299.8,299.8,0,0,1-30.9-1.7,5.2,5.2,0,0,1-5-4.7l-2-21-.7-6.4m0-3a3.2,3.2,0,0,0-2.2,1,3.2,3.2,0,0,0-.7,2.3l.6,6.4,2,21a8.1,8.1,0,0,0,7.8,7.4,303.6,303.6,0,0,0,31.1,1.7c4.8,0,9.5-.1,14.1-.4l5.8-.4h.1a9.9,9.9,0,0,0,10-9.2l2.3-25a2.7,2.7,0,0,0-.8-2.2,2.5,2.5,0,0,0-2.1-1L7.9,33.8Z" style="fill:#a8662f"/><path d="M75.7,38.4l-2.3,25a7,7,0,0,1-7.2,6.4l-5.9.4a17.4,17.4,0,0,0,1.4-2.7,13.2,13.2,0,0,0,1-8.5c-1-3.9-4.2-6.8-7.8-8.7s-10.2-3.4-15.5-4.1-12.1-1.3-18.2-1.8L8.5,43.2l-.7-6.4Z" style="fill:#e08627"/><path d="M19.2,43.6a48.5,48.5,0,0,1-6.6.2,1.3,1.3,0,0,0-.1,2.5,57.7,57.7,0,0,0,7.2-.1C21.4,46,20.8,43.5,19.2,43.6Z" style="fill:#fdb049"/><path d="M19.2,48.9a48.5,48.5,0,0,1-6.6.1c-1.6-.1-1.8,2.5-.1,2.5a43.3,43.3,0,0,0,7.2-.1C21.4,51.2,20.8,48.7,19.2,48.9Z" style="fill:#fdb049"/><path d="M19.8,54.1a48.5,48.5,0,0,1-6.6.1c-1.6-.1-1.8,2.5-.1,2.5a43.3,43.3,0,0,0,7.2-.1C22,56.4,21.5,53.9,19.8,54.1Z" style="fill:#fdb049"/><path d="M20,59.3a48.5,48.5,0,0,1-6.6.1c-1.6-.1-1.8,2.5-.1,2.5a43.3,43.3,0,0,0,7.2-.1C22.2,61.6,21.7,59.1,20,59.3Z" style="fill:#fdb049"/><path d="M20.2,63.8a28.1,28.1,0,0,1-5.8,0c-1.5-.1-1.6,2.5-.1,2.6a34.3,34.3,0,0,0,6.4-.1C22.1,66.2,21.6,63.7,20.2,63.8Z" style="fill:#fdb049"/><path d="M64.8,43.6a47.1,47.1,0,0,0,6.5.2,1.3,1.3,0,1,1,.2,2.5,57.7,57.7,0,0,1-7.2-.1C62.6,46,63.1,43.5,64.8,43.6Z" style="fill:#fdb049"/><path d="M64.8,48.9a47,47,0,0,0,6.5.1c1.7-.1,1.9,2.5.2,2.5a43.3,43.3,0,0,1-7.2-.1C62.6,51.2,63.1,48.7,64.8,48.9Z" style="fill:#fdb049"/><path d="M64.2,54.1a46.8,46.8,0,0,0,6.5.1c1.7-.1,1.9,2.5.2,2.5a44.6,44.6,0,0,1-7.3-.1C62,56.4,62.5,53.9,64.2,54.1Z" style="fill:#fdb049"/><path d="M64,59.3a46.8,46.8,0,0,0,6.5.1c1.7-.1,1.9,2.5.2,2.5a44.6,44.6,0,0,1-7.3-.1C61.8,61.6,62.3,59.1,64,59.3Z" style="fill:#fdb049"/><path d="M64,64.4a33.5,33.5,0,0,0,5.5.1c1.3-.2,1.4,2.4.1,2.5a41.4,41.4,0,0,1-6.1,0C62.1,66.8,62.6,64.3,64,64.4Z" style="fill:#fdb049"/><path d="M32.5,44a46.6,46.6,0,0,1-6.5-.2,1.3,1.3,0,0,0-.4,2.5,60.2,60.2,0,0,0,7.3.3C34.6,46.5,34.2,44,32.5,44Z" style="fill:#fdb049"/><path d="M32.4,49.2a47.5,47.5,0,0,1-6.5-.2,1.3,1.3,0,1,0-.3,2.5,57.8,57.8,0,0,0,7.2.3C34.5,51.7,34.1,49.2,32.4,49.2Z" style="fill:#fdb049"/><path d="M32.4,54.4a48.5,48.5,0,0,1-6.6-.2,1.3,1.3,0,1,0-.3,2.5,43.4,43.4,0,0,0,7.2.3C34.4,56.9,34,54.4,32.4,54.4Z" style="fill:#fdb049"/><path d="M32.3,59.7q-3.3,0-6.6-.3a1.3,1.3,0,0,0-.3,2.6,57.7,57.7,0,0,0,7.2.2C34.3,62.1,33.9,59.6,32.3,59.7Z" style="fill:#fdb049"/><path d="M45.5,44a48.5,48.5,0,0,1-6.6-.2,1.3,1.3,0,1,0-.3,2.5,57.8,57.8,0,0,0,7.2.3C47.5,46.5,47.1,44,45.5,44Z" style="fill:#fdb049"/><path d="M45.4,49.2a48.5,48.5,0,0,1-6.6-.2,1.3,1.3,0,0,0-.3,2.5,57.8,57.8,0,0,0,7.2.3C47.4,51.7,47,49.2,45.4,49.2Z" style="fill:#fdb049"/><path d="M45.3,54.4a48.5,48.5,0,0,1-6.6-.2c-1.6-.2-2,2.4-.3,2.5a44.1,44.1,0,0,0,7.3.3C47.3,56.9,46.9,54.4,45.3,54.4Z" style="fill:#fdb049"/><path d="M45.2,59.7q-3.3,0-6.6-.3c-1.6-.2-1.9,2.4-.3,2.6a58.8,58.8,0,0,0,7.3.2C47.2,62.1,46.8,59.6,45.2,59.7Z" style="fill:#fdb049"/><path d="M58.6,44a48.5,48.5,0,0,1-6.6-.2,1.3,1.3,0,1,0-.3,2.5,57.8,57.8,0,0,0,7.2.3C60.6,46.5,60.2,44,58.6,44Z" style="fill:#fdb049"/><path d="M58.5,49.2a48.5,48.5,0,0,1-6.6-.2,1.3,1.3,0,0,0-.3,2.5,57.8,57.8,0,0,0,7.2.3C60.5,51.7,60.1,49.2,58.5,49.2Z" style="fill:#fdb049"/><path d="M58.4,54.4a48.5,48.5,0,0,1-6.6-.2c-1.6-.2-1.9,2.4-.3,2.5a44.1,44.1,0,0,0,7.3.3C60.4,56.9,60,54.4,58.4,54.4Z" style="fill:#fdb049"/><path d="M58.3,59.7q-3.3,0-6.6-.3c-1.6-.2-1.9,2.4-.3,2.6a58.8,58.8,0,0,0,7.3.2C60.3,62.1,59.9,59.6,58.3,59.7Z" style="fill:#fdb049"/><path d="M32.3,64.6a48.5,48.5,0,0,1-6.6-.2,1.3,1.3,0,0,0-.3,2.5,57.8,57.8,0,0,0,7.2.3C34.3,67.1,33.9,64.6,32.3,64.6Z" style="fill:#fdb049"/><path d="M45.2,64.6a48.5,48.5,0,0,1-6.6-.2,1.3,1.3,0,0,0-.3,2.5,58.6,58.6,0,0,0,7.3.3C47.2,67.1,46.8,64.6,45.2,64.6Z" style="fill:#fdb049"/><path d="M58.3,64.6a48.5,48.5,0,0,1-6.6-.2,1.3,1.3,0,0,0-.3,2.5,58.6,58.6,0,0,0,7.3.3C60.3,67.1,59.9,64.6,58.3,64.6Z" style="fill:#fdb049"/><path d="M5.6,43.6a4.1,4.1,0,0,1-4.1-4.1V36.9a3.4,3.4,0,0,1,.1-1,4.3,4.3,0,0,1,4-3.1H79a4.1,4.1,0,0,1,3.9,2.9,5,5,0,0,1,.2,1.2v2.6A4.1,4.1,0,0,1,79,43.6Z" style="fill:#fdb049"/><path d="M79,34.3a2.8,2.8,0,0,1,2.5,1.9c0,.2.1.5.1.7v2.6A2.6,2.6,0,0,1,79,42.1H5.6A2.6,2.6,0,0,1,3,39.5V36.9a1.3,1.3,0,0,1,.1-.6,2.6,2.6,0,0,1,2.5-2H79m0-3H5.6A5.6,5.6,0,0,0,.2,35.5,5.9,5.9,0,0,0,0,36.9v2.6a5.6,5.6,0,0,0,5.6,5.6H79a5.6,5.6,0,0,0,5.6-5.6V36.9a4.5,4.5,0,0,0-.3-1.6,5.5,5.5,0,0,0-5.3-4Z" style="fill:#ce894a"/><path d="M81.6,36.9v2.6A2.6,2.6,0,0,1,79,42.1H5.6A2.6,2.6,0,0,1,3,39.5V36.9a1.3,1.3,0,0,1,.1-.6l1.5.8a11.9,11.9,0,0,0,4.9.7c22.2-.5,44.3-.4,66.5.2a9.3,9.3,0,0,0,4.1-.6,4.1,4.1,0,0,0,1.4-1.2C81.5,36.4,81.6,36.7,81.6,36.9Z" style="fill:#ed9630;opacity:0.4"/><path d="M42.3,65.5a1.2,1.2,0,0,1-1-.4l-2.6-2.3-.9-.8-3.2-3.1-2.4-2.4c-1-.9-2-2-3-3l-.9-.9c-1-1.1-2.1-2.2-3.1-3.4l-2.3-2.5-1.8-2.1c-.6-.9-1.3-1.7-1.9-2.5l-.8-.9a72.5,72.5,0,0,1-4.3-6.6,1.6,1.6,0,0,1,0-1.5,1.7,1.7,0,0,1,1.3-.7H71.1a1.3,1.3,0,0,1,1.3.9,1.5,1.5,0,0,1-.1,1.6c-.1,0-4.6,5.5-11.6,13l-2.2,2.4-7.3,7.4L48.8,60l-5.5,5.1A1.4,1.4,0,0,1,42.3,65.5Z" style="fill:#fde7d3"/><path d="M71.1,33.9s-4.5,5.5-11.5,13l-2.2,2.4-7.2,7.3-2.4,2.3L42.3,64l-2.6-2.3-.9-.8-3.2-3.1-2.4-2.3-3-3.1-.8-.9-3.1-3.3c-.8-.8-1.5-1.7-2.2-2.5l-1.8-2.1-1.9-2.4-.8-.9a63.3,63.3,0,0,1-4.2-6.4H71.1m0-3H15.4a3.2,3.2,0,0,0-2.6,1.5,3.2,3.2,0,0,0,0,3,56.1,56.1,0,0,0,4.5,6.7,8.6,8.6,0,0,1,.7,1l2,2.4,1.8,2.2,2.3,2.5c.9,1.1,2,2.2,3.1,3.4l.9.9,3,3.1,2.4,2.3,3.3,3.2.9.8,2.6,2.4a2.7,2.7,0,0,0,2,.7,3.1,3.1,0,0,0,2-.7l5.5-5.2,2.5-2.4c2.4-2.3,4.8-4.8,7.3-7.4l2.2-2.4c7-7.5,11.4-12.9,11.6-13.1a2.9,2.9,0,0,0,.4-3.2,3,3,0,0,0-2.7-1.7Zm0,6Z" style="fill:#ddab88"/><path d="M71.1,33.9s-4.5,5.5-11.5,13l-2.2,2.4-7.2,7.3-2.4,2.3L42.3,64l-2.6-2.3-.9-.8-3.2-3.1-2.4-2.3-3-3.1-.8-.9-3.1-3.3c-.8-.8-1.5-1.7-2.2-2.5l-1.8-2.1,3.1,1.2,3,.9,1.1.3a40.2,40.2,0,0,0,5,1h.7l1.8.2h2.4l2.3-.3a17.1,17.1,0,0,0,3-.9A24.8,24.8,0,0,0,50.3,43a17.1,17.1,0,0,0,2.6-2.1,34.2,34.2,0,0,0,4.3-4.2l2.4-2.8Z" style="fill:#f7dbc3"/><path d="M50.2,56.6l-2.4,2.3-2.4-2-.4-.4a1,1,0,0,1-.5-.4l-3.3-2.8L38.7,51a38.3,38.3,0,0,1-2.9-2.8l-.9-.9-.4-.3-2.7-2.7-2.3-2.4c-1.3-1.3-2.6-2.8-3.9-4.2l-.8-.9a34.7,34.7,0,0,1-2.5-2.9h4.3l.6.7c.1.1.2.2.2.3l.9.8c1.2,1.5,2.6,2.9,3.9,4.3l2.3,2.4,2.9,2.8.9.9,1.1,1,1.9,1.8,2.4,2.2,3.2,2.8,1,.8Z" style="fill:#9fbaf3"/><path d="M59.6,46.9l-2.2,2.4-2.1-1.9-.9-.8-2.8-2.4L50.3,43l-1.1-1-3.4-3.1-.9-.8-2.3-2.2-2.1-2h4.4l.2-.2.2.2,1.8,1.7.9.9,3.6,3.2,1.3,1.2,1.1,1,2.7,2.4.9.8Z" style="fill:#9fbaf3"/><path d="M62.3,33.9l-7,6.9L54,41.9l-2.4,2.3-7.9,6.9-2.5,2.2-5.6,4.5-2.4-2.3L38.7,51l2.6-2.1,3.4-3L49.2,42l2.4-2.3c2-1.9,4.1-3.8,6-5.8Z" style="fill:#9fbaf3;opacity:0.61"/><path d="M44.9,33.9l-2.3,2c-2.6,2.2-5.3,4.4-8.1,6.5l-2.7,1.9L29.5,46l-3.2,2.2c-.8-.8-1.5-1.7-2.2-2.5l1.3-.9,4.1-2.9L32.2,40c2.6-2,5.2-4,7.7-6.1l.3-.3.3.3Z" style="fill:#9fbaf3;opacity:0.61"/><g style="opacity:0.58"><path d="M50.3,33.9,48,36.5l-2.2,2.4q-3.6,3.8-7.5,7.2L37,47.2l-1.2,1c-1.8,1.5-3.7,2.9-5.6,4.2l-.8-.9c1.9-1.3,3.7-2.7,5.5-4.2l.3-.3a19.2,19.2,0,0,0,2.2-1.8,100.1,100.1,0,0,0,7.5-7.1c.8-.8,1.5-1.7,2.2-2.5a12.9,12.9,0,0,0,1.6-1.7Z" style="fill:#fff"/><path d="M30.6,33.9l-2.3,1.8-2.7,2c-1.7,1.2-3.4,2.4-5.2,3.5l-.8-.9c1.8-1.1,3.5-2.3,5.2-3.5l2.6-1.9,1.3-1Z" style="fill:#fff"/><path d="M67.2,33.9l-3,3.7q-3.2,3.8-6.6,7.5c-.8.8-1.5,1.6-2.3,2.3-2.4,2.5-4.9,4.9-7.4,7.3l-2.5,2.2c-1.9,1.6-3.8,3.3-5.7,4.8l-.9-.8,3.8-3.1,1.9-1.7,2.4-2.2c2.6-2.4,5.1-4.8,7.5-7.3l2.3-2.3c3.1-3.4,6.1-6.8,9-10.4Z" style="fill:#fff"/></g></g></g></svg>