<svg xmlns="http://www.w3.org/2000/svg" viewBox="0 0 28.4 25.7"><g id="Layer_2" data-name="Layer 2"><g id="Layer_1-2" data-name="Layer 1"><g id="Props"><g id="fo_cat_food_can_2" data-name="fo_cat food can 2"><path d="M14.2,25.2C7.9,25.2.6,23.9.6,20.2V5.6A2.1,2.1,0,0,1,.9,4.5,1.5,1.5,0,0,1,2,4.1h.8C5.2,2.8,9.4,2,14.1,2h.2c4.6,0,8.8.8,11.2,2h.8a1.5,1.5,0,0,1,1.5,1.5V20.1a2.8,2.8,0,0,1-.9,2.1c-2.2,2.2-8.2,3-12.7,3Z" style="fill:#ea413d;stroke:#b71d1d;stroke-miterlimit:10"/><path d="M14.1,10.6C7.8,10.6.5,9.3.5,5.6a3.3,3.3,0,0,1,.9-2.1C3.6,1.3,9.6.5,14.1.5h.1c6.3,0,13.6,1.3,13.6,5a2.5,2.5,0,0,1-.9,2c-2.2,2.3-8.2,3.1-12.7,3.1Z" style="fill:#fff;stroke:#a4bceb;stroke-miterlimit:10"/><path d="M10.9,3.5c-1.7-.6-5.8.8-6.7,1.1s-.1,1.1-.1,1.1,4.3.8,6.5.5S12.6,4,10.9,3.5Zm.3,2a11.4,11.4,0,0,1-3.7.3A1.5,1.5,0,0,1,7,4.2a16.6,16.6,0,0,1,2.8-.5C11.6,3.4,11.7,5.3,11.2,5.5Z" style="fill:#9da0b2"/><path d="M6.1,17.5a1.1,1.1,0,0,1,.3-2A17.4,17.4,0,0,1,13,14a19.4,19.4,0,0,1,8.5,2.2s-2.1,3.1-8.2,3.3A10.1,10.1,0,0,1,6.1,17.5Z" style="fill:#ffeb81"/><path d="M20.3,16s1.9-2.7,2.5-2.7-.3,2.5-.3,2.5,2.1,2,1.3,2.4S19.8,16.7,20.3,16Z" style="fill:#ffeb81"/></g></g></g></g></svg>