<svg xmlns="http://www.w3.org/2000/svg" viewBox="0 0 128.82 47.23"><g id="Layer_2" data-name="Layer 2"><g id="Layer_1-2" data-name="Layer 1"><g id="Props"><g id="fo_cat_food_bowl" data-name="fo_cat food bowl"><g id="VC_fo_bowl_matt" data-name="VC_fo_bowl matt"><path d="M117.38,36.57c-11.13,3.13-30.85,5-53.28,4.64C29.47,40.64,1.49,34.92,1.59,28.44L1.5,34S8.74,46,69.41,45.73c26-.1,40.39-2.11,48.31-4.18l-.34-5Z" fill="#84205c"/><path d="M127.32,37,127,30h-.07a2,2,0,0,1,.06.54c0,2.28-3.55,4.35-9.61,6.05h0l.34,5C126.37,39.29,127.32,37,127.32,37Z" fill="#ac538c"/><path d="M67.73,47.23C8.44,47.23.53,35.27.22,34.75A1.51,1.51,0,0,1,0,34l.09-5.54a1.5,1.5,0,0,1,1.5-1.47h0a1.49,1.49,0,0,1,1.47,1.52h0c0,1.35,3.55,4.36,17,7.11,11.72,2.4,27.35,3.87,44,4.14,21.63.36,41.38-1.35,52.86-4.58,8.24-2.32,8.51-4.41,8.51-4.64a.62.62,0,0,0,0-.18,1.5,1.5,0,0,1,1.42-1.83,1.54,1.54,0,0,1,1.61,1.43l.32,7a1.5,1.5,0,0,1-.11.63c-.29.72-1.91,3.21-10.61,5.49-10.41,2.72-26.79,4.14-48.68,4.23ZM3,33.45c1.64,1.66,13.18,11,66.4,10.78,27-.1,40.94-2.3,47.93-4.13,5.9-1.55,7.89-3.07,8.46-3.63l-.08-1.75a27.88,27.88,0,0,1-7.93,3.3c-11.74,3.3-31.83,5.06-53.72,4.69-21.47-.35-51.63-3.29-61-9.87Z" fill="#84205c"/><path d="M62.45,30.61a5.49,5.49,0,0,0,6.25-2.1L114,28.27a5.08,5.08,0,0,0-2.23,2.22L126.93,30c-1.39-6.26-28.78-11.68-62.44-12.24A263,263,0,0,0,22.71,20l36.5,7.54S58.11,29.5,62.45,30.61Z" fill="#e8a4d2"/><path d="M117.38,36.57c6.06-1.7,9.58-3.77,9.61-6.05a2,2,0,0,0-.06-.54l-15.17.51C111.18,32,111.89,34.11,117.38,36.57Z" fill="#e8a4d2"/><path d="M111.76,30.49A5.08,5.08,0,0,1,114,28.27l-45.29.24a5.49,5.49,0,0,1-6.25,2.1c-4.34-1.11-3.24-3-3.24-3L22.71,20C9.81,22,1.65,25,1.59,28.44c-.1,6.48,27.88,12.2,62.51,12.77,22.43.38,42.15-1.51,53.28-4.64C111.89,34.11,111.18,32,111.76,30.49Z" fill="#ac538c"/><path d="M69.72,42.76c-1.86,0-3.75,0-5.65,0-25.8-.42-64.14-4.59-64-14.3.08-4.33,7.61-7.65,22.39-9.87a266.65,266.65,0,0,1,42-2.3c30.37.5,62.07,5.27,63.89,13.41h0a3.41,3.41,0,0,1,.09.89c-.05,3-3.55,5.47-10.7,7.48C107.07,41,89.38,42.76,69.72,42.76ZM58.92,19.19a252,252,0,0,0-36,2.32c-15.64,2.35-19.81,5.57-19.84,7s3.54,4.35,17,7.11c11.72,2.4,27.35,3.87,44,4.14,21.62.36,41.38-1.35,52.86-4.58,8.24-2.32,8.51-4.41,8.51-4.64a.62.62,0,0,0,0-.18h0c-.92-4.12-23.18-10.43-61-11.06C62.6,19.21,60.75,19.19,58.92,19.19Z" fill="#84205c"/></g><g id="VC_fo_food_bowl" data-name="VC_fo_food bowl"><path d="M51.46,11.66c-1.24-1.15-6.57-3.3-15.83-3.45a54,54,0,0,0-6.37.25L28.5,14a51.36,51.36,0,0,0,7,.56C44.78,14.73,50.18,12.76,51.46,11.66Z" fill="none"/><path d="M56.87,10.75l-.1.09C55.7,4.94,43.24,3.13,35.72,3a56,56,0,0,0-11.28.93l5.25,1.29-.43,3.23a54,54,0,0,1,6.37-.25c9.26.15,14.59,2.3,15.83,3.45-1.28,1.1-6.68,3.07-15.94,2.91a51.36,51.36,0,0,1-7-.56l-.07.57a13,13,0,0,0-1.2,2.12,13.82,13.82,0,0,0-.82,2.22c-1.17,4.16-.82,10.41,9.08,14.62h0c17.47.34,23.67-6,23.67-6Z" fill="#e2a4ef"/><path d="M36.88,34.05H35.53l-.24,0c-10.6-4.51-10.42-11.47-9.37-15.22a16.67,16.67,0,0,1,.85-2.29A14.22,14.22,0,0,1,28,14.39l.13-1,.5.08a52.49,52.49,0,0,0,7,.55c8.14.14,13.22-1.4,15.06-2.43-1.8-1.09-6.84-2.8-15-2.93A53.5,53.5,0,0,0,29.31,9L28.67,9l.47-3.42-7-1.72,2.21-.44a56.51,56.51,0,0,1,11.38-.94c2,0,18.82.51,21.32,7.41l.19-.18,2.51,18-.18.18C59.31,28.17,53.34,34.05,36.88,34.05Zm-1.29-1c15.4.26,22-4.7,23.09-5.67L56.5,11.75l-.06.06-.17-.89c-1-5.6-13.4-7.29-20.56-7.41a59,59,0,0,0-8.8.52l3.34.82-.41,3.06a52.06,52.06,0,0,1,5.8-.2c9.11.15,14.75,2.27,16.16,3.58l.42.38-.43.36c-1.46,1.26-7.17,3.19-16.28,3a53.11,53.11,0,0,1-6.58-.49l0,.19-.07.11a13.37,13.37,0,0,0-1.15,2,14.54,14.54,0,0,0-.79,2.14C25.71,23.23,26.28,29,35.59,33Z" fill="#e2a4ef"/><path d="M26.41,18.92a13.82,13.82,0,0,1,.82-2.22,13,13,0,0,1,1.2-2.12L28.5,14c-5-.75-7.93-2.07-8.81-2.88.95-.82,4.18-2.12,9.57-2.67l.43-3.23L24.44,3.94C19,5,14.37,7.15,14.3,11l-1.55,16s8.38,6.2,22.74,6.49C25.59,29.33,25.24,23.08,26.41,18.92Z" fill="#ac53b0"/><path d="M49.69,12.58c-.77-.26-.36.31-.92.36-1,.09-.61-.31-1.29-.64-1.12-.54-1.6.29-2.73.15-.06-.8.07-1.86-.72-2.42a5.12,5.12,0,0,0-2.9-.41c-.74.18-.76.47-1.37,1,.15-1.61-1.15-1.87-2.62-1.49-.38.67-.35,2-1.65,1.2-1.14-.73-.29-2-2.22-1.53,0,.34-.07.73-.05,1.07-1.27-.56-1.06.7-1.12,1.42-.92-.21-.78-.91-1.86-.89s-1.28.46-1.38,1.33c-1.2.2-1.75-.55-2.94-.43-1,.11-2.06.91-1.53,1.87h-.53a50.92,50.92,0,0,0,11.85,1.44c5.92.1,11.16-.6,14.37-1.76A1.22,1.22,0,0,0,49.69,12.58Z" fill="#e2c6a0"/><path d="M35.87,5a60.51,60.51,0,0,0-7.18.3C22.53,6,18.21,7.57,18.18,9.51c0,1.4,2.17,2.69,5.68,3.62h.53c-.53-1,.5-1.76,1.53-1.87,1.19-.12,1.74.63,2.94.43h0c.1-.86.27-1.29,1.38-1.32s.94.68,1.86.89c.06-.72-.15-2,1.12-1.42,0-.34.07-.73.05-1.07,1.93-.45,1.08.8,2.22,1.53,1.3.82,1.27-.53,1.65-1.2,1.47-.38,2.77-.12,2.62,1.49.61-.49.63-.78,1.37-1A5.12,5.12,0,0,1,44,10c.79.56.66,1.62.72,2.42,1.13.14,1.61-.69,2.73-.15.68.33.3.73,1.29.64.56,0,.15-.62.92-.36a1.22,1.22,0,0,1,.39.23c2.08-.75,3.31-1.68,3.32-2.72C53.45,7.46,45.6,5.19,35.87,5Z" fill="#7f1c81"/><path d="M34.8,3h.92c7.52.12,20,1.93,21.05,7.83l.1-.09,2.34,16.82s-5.88,6-22.34,6H35.49c-14.36-.29-22.74-6.49-22.74-6.49L14.3,11c.07-3.89,4.71-6,10.14-7.1A56,56,0,0,1,34.8,3m0-3h0A59.1,59.1,0,0,0,23.85,1C13.72,3,11.42,7.44,11.31,10.86L9.77,26.76a3,3,0,0,0,1.2,2.7c.37.27,9.32,6.77,24.46,7.08h1.44c17.22,0,23.79-6.18,24.48-6.88a3,3,0,0,0,.83-2.52L59.84,10.33a3.06,3.06,0,0,0-.41-1.14C56.64,1,40.74.09,35.76,0Z" fill="#7f1c81"/></g><g id="VC_fo_water_bowl" data-name="VC_fo_water bowl"><path d="M111.44,11.91l-.1.09C110.2,6.28,98,4.71,90.7,4.71a59.29,59.29,0,0,0-6.5.37c1.65.6,4,1.66,4,1.66q1.29-.06,2.64-.06c9.49,0,17.17,2.08,17.17,4.65,0,.67-.52,1.31-1.46,1.88C104,14.82,98.09,15.94,91.22,16H90.7c-1.49,0-2.86-.06-4.13-.15l-.32,0h-.09l0,.18a22.25,22.25,0,0,0-.55,2.67c-.1.63-.18,1.35-.24,2.14-.27,3.74.09,9,3.17,13.6.82.05,1.66.07,2.52.08,17,0,23-6.21,23-6.21Z" fill="#98d9e4"/><path d="M85.33,20.8c.06-.79.14-1.51.24-2.14A22.25,22.25,0,0,1,86.12,16l0-.18-.31,0a31.53,31.53,0,0,1-9.72-2.07c-1.53-.69-2.42-1.51-2.42-2.38C73.71,9,80,7.08,88.24,6.74c0,0-2.39-1.06-4-1.66-6.91.79-14.24,3-14.24,7.8L68.7,28.51S76,33.73,88.5,34.4C85.42,29.82,85.06,24.54,85.33,20.8Z" fill="#6ab3b9"/><path d="M90.88,6.68q-1.35,0-2.64.06C80,7.08,73.71,9,73.71,11.33c0,.87.89,1.69,2.42,2.38l.27-.1a39.67,39.67,0,0,1,10.73-2c1.58-.12,3.23-.18,4.93-.18A52.48,52.48,0,0,1,106,13l.6.17c.94-.57,1.46-1.21,1.46-1.88C108.05,8.76,100.37,6.68,90.88,6.68Z" fill="#3b7e82"/><path d="M92.32,11.39c-1.78,0-3.51.06-5.15.18a43.26,43.26,0,0,0-11.22,2,31.28,31.28,0,0,0,9.87,2.17l.33,0h.09l.34,0c1.44.09,3,.15,4.5.15h.36c8.68-.07,13.89-1.85,15.43-2.94A57.23,57.23,0,0,0,92.32,11.39Z" fill="#5576b4"/><path d="M91.2,36H91c-.84,0-1.72,0-2.59-.08C75.63,35.22,68.14,30,67.83,29.73a1.5,1.5,0,0,1-.62-1.34l1.25-15.57C68.51,8,74,4.73,84,3.59a59.21,59.21,0,0,1,6.66-.38h0c3.32,0,19.48.39,21.92,7.79a1.5,1.5,0,0,1,.3.68L115.47,28a1.5,1.5,0,0,1-.39,1.26C114.82,29.58,108.54,36,91.2,36ZM70.27,27.73a40.76,40.76,0,0,0,18.31,5.18c.8,0,1.61.06,2.44.07h.18c13.23,0,19.44-3.94,21.18-5.3l-2.33-14.91a1.48,1.48,0,0,1-.18-.47c-.8-4-10.24-6.09-19.16-6.09h0a58.8,58.8,0,0,0-6.33.36c-8.08.92-12.91,3.28-12.91,6.31a.49.49,0,0,1,0,.12Z" fill="#28575c"/></g></g></g></g></g></svg>