<svg xmlns="http://www.w3.org/2000/svg" viewBox="0 0 44.1 51.4"><g style="isolation:isolate"><g id="Layer_2" data-name="Layer 2"><g id="Layer_1-2" data-name="Layer 1"><g id="Props"><g id="fo_food_stock" data-name="fo_food stock"><path d="M37.3,31a44.2,44.2,0,0,0,1.1-12.6,2,2,0,0,0,1.1-.3,5.6,5.6,0,0,0,3.2-3,5.8,5.8,0,0,0,.1-4.3,5.8,5.8,0,0,0-4.9-3.6,8.3,8.3,0,0,0-.4-1.5,6.5,6.5,0,0,0-6-4.1,6.7,6.7,0,0,0-2.4.4,6.7,6.7,0,0,0-1.8,1.1A6.4,6.4,0,0,0,22.6,1a5.7,5.7,0,0,0-2.2.4,5.9,5.9,0,0,0-3.8,4.7,8.6,8.6,0,0,0-2.7-.5,8.1,8.1,0,0,0-3.1.6,8.3,8.3,0,0,0-4.6,4.4A8.6,8.6,0,0,0,6,17.1c.1.1.1.2.2.4h0A8.2,8.2,0,0,0,1.5,28.1a8.4,8.4,0,0,0,7.7,5.3,7.1,7.1,0,0,0,2.8-.6,19.6,19.6,0,0,0,4.8,3.4,43.4,43.4,0,0,0,5,2l1.1.4.3.5L25,42.3a59.1,59.1,0,0,0,4.1,6.1,4.7,4.7,0,0,0,2.4,1.9h.8a7.9,7.9,0,0,0,2.2-.5L39.2,48c1-.4,2.7-1.1,3.3-2.8a4.9,4.9,0,0,0-.3-3.6C40.7,38,39.1,34.5,37.3,31ZM23.2,34.7h-.1c-1.6-.6-3.1-1.1-4.6-1.8l.8-.2A5.5,5.5,0,0,0,22.2,30h.1A3.9,3.9,0,0,1,23.2,34.7Zm-.5-7.1v-.8a3.9,3.9,0,0,0,2.7,1.1,4,4,0,0,0,1.5-.3l1-.6a9.9,9.9,0,0,1,.2,1.7,1.4,1.4,0,0,1-1.4,1.6,1.6,1.6,0,0,1-.9-.3Zm11.1,1.8a1.8,1.8,0,0,1-1.1,1.3h-.6a1.7,1.7,0,0,1-1.7-1.6,34.7,34.7,0,0,0-.8-5.5,6.3,6.3,0,0,0,1.9-.3,5.9,5.9,0,0,0,3.2-3.2A35.5,35.5,0,0,1,33.8,29.4Z" style="fill:#7cac42"/><path d="M29.7,44.2a15.9,15.9,0,0,0,1.5,2.1,3.2,3.2,0,0,0,2.3.9,1.9,1.9,0,0,0,1.9-1.4c.2-.7-.3-1.5-.7-2.2a30.3,30.3,0,0,0-6.3-7.5,3.7,3.7,0,0,0-1.6-.9c-2.9-.8-.9,2.4-.3,3.4S28.6,42.3,29.7,44.2Z" style="fill:#231f20;mix-blend-mode:screen"/><path d="M38.4,44.3l.5.7a1.1,1.1,0,0,0,1.3-.3,1.8,1.8,0,0,0,.3-1.3,11.2,11.2,0,0,0-.5-1.3c-1.3-2.6-2.5-5.3-3.8-8-.4-.8-1-2-2.1-1.7s-.7,1.3-.5,1.9c.8,2.2,2,4.3,3,6.4Z" style="fill:#f1f2f2;mix-blend-mode:multiply"/><path d="M28.8,20.1a5.6,5.6,0,0,0,4-1.4,3.1,3.1,0,0,0,.4-3.9,1.7,1.7,0,0,0-1.6-.5c-.7.1-1,.8-1.5,1.3a9.4,9.4,0,0,1-2.8,1.5c-1,.5-2,1.2-2.1,2.3s0,.9.3,1,.5-.1.8-.2A10.5,10.5,0,0,1,28.8,20.1Z" style="fill:#f1f2f2;mix-blend-mode:multiply"/><path d="M33.5,9.8a4.8,4.8,0,0,0,.9-1.9,2.4,2.4,0,0,0-1.8-2.4,3.3,3.3,0,0,0-3,.8,1.7,1.7,0,0,0-.8,1.8c.1.6.6,1,.9,1.5s.2,1.1.4,1.6a1.8,1.8,0,0,0,1.4,1.1c.5,0,1.3-.1,1.5-.7v-.8A3.1,3.1,0,0,1,33.5,9.8Z" style="fill:#f1f2f2;mix-blend-mode:multiply"/><path d="M7.7,21.2c1.1.4,1.6,2.1,1,3.8s-2,2.8-3.1,2.5-1.6-2.1-1-3.8S6.5,20.8,7.7,21.2Z" style="fill:#231f20;mix-blend-mode:screen"/><path d="M11.8,9.7c1.1.3,1.6,2,1,3.8s-1.9,2.8-3.1,2.4-1.5-2-1-3.8S10.7,9.3,11.8,9.7Z" style="fill:#231f20;mix-blend-mode:screen"/><path d="M22.8,1a5.5,5.5,0,0,1,4.5,2.1,5.6,5.6,0,0,1,4-1.5c3.1,0,6.3,2.2,6.6,5.6,6.5.4,7.1,10.2.5,11.2A44.2,44.2,0,0,1,37.3,31c1.8,3.5,3.4,7,4.9,10.6s-.3,5.6-3,6.4-5.2,2.4-6.8,2.4h-.1c-3.9-.3-7.3-8.7-9.4-11.8-3.7-1.3-8.2-2.9-10.9-5.8a8.9,8.9,0,0,1-3,.6C.9,33.4-2.7,21.1,6.2,17.5h0C3.5,12,8.2,5.6,13.9,5.6a6.5,6.5,0,0,1,2.7.5A6.1,6.1,0,0,1,22.8,1m9.3,29.8a1.7,1.7,0,0,0,1.7-1.4,35.5,35.5,0,0,0,.9-9.2,5.7,5.7,0,0,1-5.1,3.5c.9,2-.2,7,2.5,7.1h0m-5.4-.5c1.7,0,1.5-2.1,1.2-3.3a3.9,3.9,0,0,1-5.2-.2v.8c1.3.9,2.4,2.4,4,2.7m-3.6,4.4h.1a3.8,3.8,0,0,0-1-4.7,5.7,5.7,0,0,1-3.7,2.9,36.6,36.6,0,0,0,4.6,1.8M22.8,0V0a7.4,7.4,0,0,0-7,4.8l-1.9-.2A9.7,9.7,0,0,0,5.8,9.3,8.8,8.8,0,0,0,4.9,17,8.7,8.7,0,0,0,.2,26.7,9.2,9.2,0,0,0,9,34.4a8.4,8.4,0,0,0,2.7-.4c2.9,2.7,7.3,4.3,10.6,5.5A25,25,0,0,1,23.7,42c2.2,4.1,5,9.1,8.6,9.4h.1c1.2,0,3.3-.9,5.2-1.7l1.9-.8a5.3,5.3,0,0,0,3.6-7.7c-1.4-3.5-3-6.9-4.7-10.3a51,51,0,0,0,1.1-11.7,6.5,6.5,0,0,0,4.6-6.7,6.6,6.6,0,0,0-5.4-6.2C38,2.7,34.5.6,31.3.6a7.4,7.4,0,0,0-3.9,1.1A6.7,6.7,0,0,0,22.8,0Zm3,28.8,1.3-.2a3.5,3.5,0,0,1-.1.7h-.2a1.9,1.9,0,0,1-1-.5ZM21,32.9l1.3-1.2a2.7,2.7,0,0,1,.2,1.8L21,32.9Z" style="fill:#02513d"/></g></g></g></g></g></svg>