<svg xmlns="http://www.w3.org/2000/svg" viewBox="0 0 123.4 154.6"><g style="isolation:isolate"><g id="Layer_2" data-name="Layer 2"><g id="Layer_1-2" data-name="Layer 1"><path d="M39.6,12.9h.1a3.4,3.4,0,0,0-.2,1.4v.4a16.2,16.2,0,0,0,.1,2.2c.1,0,.1.1.1.2a3.8,3.8,0,0,0-.1,1.8c.4,2.4,3,3.2,4.9,3.4a45.8,45.8,0,0,0,11.1-.1c2.1-.2,4.4-.7,6.4-1.1l1.8-.6h0a7.4,7.4,0,0,0,2.1-1.3l.3-.2a3.8,3.8,0,0,0,1-2.1,1.9,1.9,0,0,0,.1-.8c-.1-.2-.1-.4-.2-.6v-.2a1.4,1.4,0,0,0,.2-1.1.5.5,0,0,0-.2-.4l-.3-.4a1.4,1.4,0,0,1-.3-1,4.4,4.4,0,0,1,.2-1,2.6,2.6,0,0,0-.4-2.1.1.1,0,0,1-.1-.1h0c1.7-1.7-.7-4.3-2.6-5A29.3,29.3,0,0,0,54.1,3l-2.6.2c-5,.3-10.4,2-11.7,3.1a4.3,4.3,0,0,0-1.5,2.1,4,4,0,0,0,.6,3.5A3.6,3.6,0,0,0,39.6,12.9Z" style="fill:#ffa4b6"/><path d="M39.6,16.9a13.8,13.8,0,0,0,5.8,1.4,33.9,33.9,0,0,0,7.8-.2,50,50,0,0,0,9.9-2.3c1.2-.5,3.1-.8,3.9-2l-.3-.4a1.4,1.4,0,0,1-.3-1c-.8.8-9.2,3-11.5,3.3a42,42,0,0,1-8.5.5c-5.5-.3-6.8-1.5-6.9-1.5A16.2,16.2,0,0,0,39.6,16.9Z" style="fill:#d4465a"/><path d="M38.9,11.9h0a3.6,3.6,0,0,0,1.6,1.4c5.7,2.2,19.3-.4,24.3-3.1a5.2,5.2,0,0,0,1.3-1.1h0c1.7-1.7-.7-4.3-2.6-5A24.7,24.7,0,0,0,54.1,3H54s10.2.6,11.4,3.6c.6,1.4-2,2.5-2.8,2.7S56.9,11.1,51.5,12a30.6,30.6,0,0,1-8,0c-5.1-.6-5.1-3.6-5.2-3.6A4,4,0,0,0,38.9,11.9Z" style="fill:#f48096"/><path d="M39.6,18.9c.4,2.4,3,3.2,4.9,3.4a45.8,45.8,0,0,0,11.1-.1c2.1-.2,4.4-.7,6.4-1.1l1.8-.6h0a8.4,8.4,0,0,0,2.1-1.3l.3-.2a3.8,3.8,0,0,0,1-2.1c0-.2.1-.5.1-.8a1.4,1.4,0,0,0-.2-.6h0c-.1-.2-.3.4-.4.6-.7,2.5-4.5,3.5-6.7,4.1a42,42,0,0,1-7.1,1.1c-11,1.1-13.3-2.5-13.3-2.4Z" style="fill:#f48096"/><path d="M60.4,17.6c.4-.6,1-.6,1.6-.7h1.9c.2,0,.2.2.1.4s-2.6,1.9-3.5.9A.5.5,0,0,1,60.4,17.6Z" style="fill:#f48096"/><path d="M56.5,18.8l.7-.4a1.1,1.1,0,0,1,.8.2.8.8,0,0,1,.2.8.7.7,0,0,1-.7.4.8.8,0,0,1-.8,0A.6.6,0,0,1,56.5,18.8Z" style="fill:#f48096"/><path d="M51.7,19.7a1.4,1.4,0,0,1,1.6-.5.7.7,0,0,1,.3,1.2,1.4,1.4,0,0,1-1.9-.1C51.5,20.2,51.5,19.9,51.7,19.7Z" style="fill:#f48096"/><path d="M47.5,8.4a2.2,2.2,0,0,1,1.4,0A.7.7,0,0,1,49,9.6c-.5.4-2.1.5-2.2-.5S47.2,8.5,47.5,8.4Z" style="fill:#f48096"/><path d="M43.9,6.9A3.7,3.7,0,0,1,46,6.6a.9.9,0,0,1,.3,1.6,2.3,2.3,0,0,1-2.4.1A.7.7,0,0,1,43.9,6.9Z" style="fill:#f48096"/><path d="M43.3,9.5l.6-.3h.6c.4.1.9.5.8,1s-1.2.8-1.9.6A.8.8,0,0,1,43.3,9.5Z" style="fill:#f48096"/><path d="M39.9,8a.6.6,0,0,1,.3-.7.2.2,0,0,1,.2-.2l.6-.2a1.2,1.2,0,0,1,1,.3.9.9,0,0,1,.3.7c-.1.2-.2.5-.4.6s-.5.2-.8.3h-.5l-.3-.2A.7.7,0,0,1,39.9,8Z" style="fill:#f48096"/><path d="M61.8,12a3.3,3.3,0,0,1,1.3-.4c.5,0,1.1.4,1,1s-1.3,1.1-1.9,1S61.2,12.4,61.8,12Z" style="fill:#f48096"/><path d="M58.4,13.2l.4.2a.6.6,0,0,1,0,.8l-.3.2a.6.6,0,0,1-.8-.5A.6.6,0,0,1,58.4,13.2Z" style="fill:#f48096"/><path d="M44.9,15.2c.3-.4.8-.3,1.3-.2s1,0,.8.5-.7.3-1,.3-.9.1-1.1-.3S44.8,15.2,44.9,15.2Z" style="fill:#f48096"/><path d="M46.7,19.5h.8a.9.9,0,0,1,.6.3c.2.1.1.4,0,.5a.8.8,0,0,1-.8.3h-.7C46.4,20,46.4,19.5,46.7,19.5Z" style="fill:#f48096"/><path d="M43.9,19a.7.7,0,0,1,.6-.4c.2.1.4.1.5.3a.4.4,0,0,1-.1.6.5.5,0,0,1-.6.1C44.1,19.6,43.9,19.3,43.9,19Z" style="fill:#f48096"/><path d="M45.2,20.6c0-.2.1-.3.3-.4H46c.2.2.3.4.1.6a.6.6,0,0,1-.7.2A.4.4,0,0,1,45.2,20.6Z" style="fill:#f48096"/><path d="M42.2,19c.2,0,.5,0,.6.2a.6.6,0,0,1,0,.6.5.5,0,0,1-.4.2H42A.5.5,0,0,1,42.2,19Z" style="fill:#f48096"/><path d="M40.6,14.3a.4.4,0,0,1,.5-.3l.4.2a.3.3,0,0,1,.1.5.6.6,0,0,1-.8.2A.5.5,0,0,1,40.6,14.3Z" style="fill:#f48096"/><path d="M54.7,14c.3.1.3.6,0,.8s-1.1.2-1.1-.4S54.3,13.8,54.7,14Z" style="fill:#f48096"/><path d="M64.8,11.1a.7.7,0,0,1,.5-.4.4.4,0,0,1,.6.5.6.6,0,0,1-.5.6c-.1.1-.4,0-.5-.1A.5.5,0,0,1,64.8,11.1Z" style="fill:#f48096"/><path d="M55.3,19.7a.4.4,0,0,1,.7.4.5.5,0,0,1-.9.2C54.9,20.1,55,19.8,55.3,19.7Z" style="fill:#f48096"/><path d="M55.9,3a23.3,23.3,0,0,1,7.6,1.2c1.9.7,4.3,3.3,2.6,5h0a.1.1,0,0,0,.1.1,2.6,2.6,0,0,1,.4,2.1,4.4,4.4,0,0,0-.2,1,1.4,1.4,0,0,0,.3,1l.3.4a.5.5,0,0,1,.2.4,1.4,1.4,0,0,1-.2,1.1v.2h0a1.4,1.4,0,0,1,.2.6,1.9,1.9,0,0,1-.1.8,3.8,3.8,0,0,1-1,2.1l-.3.2a7.4,7.4,0,0,1-2.1,1.3h0l-1.8.6c-2,.4-4.3.9-6.4,1.1s-4.3.4-6.3.4a39.9,39.9,0,0,1-4.8-.3c-1.9-.2-4.5-1-4.9-3.4a3.8,3.8,0,0,1,.1-1.8c0-.1,0-.2-.1-.2a16.2,16.2,0,0,1-.1-2.2v-.4a3.4,3.4,0,0,1,.2-1.4h-.1l-.7-.9h0a4,4,0,0,1-.6-3.5,4.3,4.3,0,0,1,1.5-2.1c1.3-1.1,6.7-2.8,11.7-3.1L54.1,3h1.8m0-3H54L51.3.2C46.2.5,40,2.3,37.9,4a6.7,6.7,0,0,0-2.4,3.4,6.9,6.9,0,0,0,.9,6.2h0c0,.1.1.1.1.2v.6h0v.3a20.9,20.9,0,0,0,.1,2.4,9.6,9.6,0,0,0,0,2.4c.6,3.1,3.3,5.3,7.6,5.8a42.4,42.4,0,0,0,5.1.3,56.4,56.4,0,0,0,6.6-.4A61.9,61.9,0,0,0,62.7,24l2.3-.7h.1a7.5,7.5,0,0,0,2.8-1.8l.4-.2a6.9,6.9,0,0,0,1.9-3.8,7.6,7.6,0,0,0,.1-1.5,1.7,1.7,0,0,1-.1-.7,3,3,0,0,0-.1-1.6,4.7,4.7,0,0,0-.6-1.5,7.1,7.1,0,0,0,0-2.9,5.3,5.3,0,0,0,0-2.5c-.5-2.6-3-4.5-5-5.3A23.5,23.5,0,0,0,55.9,0Z" style="fill:#e75c78"/><circle cx="102.3" cy="63.3" r="1.5" style="fill:#a7bfee"/><path d="M102.3,63.3h0m0-3a3,3,0,0,0-3,3,3.1,3.1,0,0,0,3,3,3,3,0,0,0,3-3,3.1,3.1,0,0,0-.9-2.2,3,3,0,0,0-2.1-.8Z" style="fill:#5576b4"/><path d="M62.6,153.1a81.4,81.4,0,0,1-10.8-.8h-.6a41.7,41.7,0,0,1-11.1-3c-6.4-2.9-13.1-8.8-10.9-15.9a8,8,0,0,1,2.7-4,7.1,7.1,0,0,1,3.1-1.4,7.6,7.6,0,0,0,1.6-.6c.7-.4,1.1-1.5,1.6-2.5a1.4,1.4,0,0,1,.2-.6,20.5,20.5,0,0,1,2.6-4.3c2.3-2.9,5.1-4.4,8.6-5.8a2.9,2.9,0,0,0,2.1-2.6,45.4,45.4,0,0,0,.9-5.7A76.1,76.1,0,0,0,52.8,94c-.1-1.1-.6-4.3-1-6.8-.1-1-.3-1.9-.4-2.6a79.5,79.5,0,0,1-19.7-2.7,97.6,97.6,0,0,1-12.9-4.3A35.1,35.1,0,0,1,8,71,19.5,19.5,0,0,1,1.8,60.4a12.1,12.1,0,0,1,.3-6.6A9.4,9.4,0,0,1,6.6,49a40.3,40.3,0,0,1,12.6-4.3c4.7-.9,9.4-1.5,13.8-2s9.7-1,14.5-1.2l7.2-.2h.8a54.4,54.4,0,0,1,5.7.3h1a54.4,54.4,0,0,1,5.7-.3h.7l7.3.2c4.8.2,9.6.6,14.5,1.2s9,1.1,13.8,2A41.2,41.2,0,0,1,116.8,49a9.4,9.4,0,0,1,4.5,4.8,12.1,12.1,0,0,1,.3,6.6A19.5,19.5,0,0,1,115.4,71a36.4,36.4,0,0,1-10.8,6.6,97.6,97.6,0,0,1-12.9,4.3,88.9,88.9,0,0,1-20.6,2.4c0,2.2-.2,5.4-.4,8.7v1a76.1,76.1,0,0,0,.2,11.8,45.4,45.4,0,0,0,.9,5.7,2.9,2.9,0,0,0,2.1,2.6c3.5,1.4,6.3,2.9,8.6,5.8a20.5,20.5,0,0,1,2.6,4.3c.1.2.1.4.2.6s.9,2.1,1.6,2.5a5.9,5.9,0,0,0,1.6.6,7.1,7.1,0,0,1,3.1,1.4,8.6,8.6,0,0,1,2.7,4c2.1,7.1-4.5,13-10.9,15.9a49.5,49.5,0,0,1-9.1,2.6l-1.8.3A43.4,43.4,0,0,1,62.6,153.1Z" style="fill:#a7bfee"/><path d="M67.9,42.8h.7l7.2.2c4.8.3,9.7.6,14.4,1.2s9.2,1.1,13.7,2a40.9,40.9,0,0,1,12.2,4.1,8.4,8.4,0,0,1,3.8,4.1,10.4,10.4,0,0,1,.2,5.8,18.3,18.3,0,0,1-5.7,9.7A35.7,35.7,0,0,1,104,76.2a93.1,93.1,0,0,1-12.6,4.2,91.4,91.4,0,0,1-21,2.4h-.9c.3,2.1-.3,9.1-.4,11.1a80.1,80.1,0,0,0,.2,12,55.8,55.8,0,0,0,.9,5.9,4.4,4.4,0,0,0,3.1,3.7c3.1,1.3,5.8,2.7,7.9,5.3a18.5,18.5,0,0,1,2.4,4c.6,1.4,1.1,3,2.4,3.8s3.2.7,4.6,1.8a6.8,6.8,0,0,1,2.1,3.4c2,6.5-4.9,11.7-10,14-3.4,1.5-7,2.1-10.7,2.9a44,44,0,0,1-9.4.9,76.4,76.4,0,0,1-11.2-.9,39.4,39.4,0,0,1-10.7-2.9c-5.1-2.3-12-7.5-10.1-14a7.7,7.7,0,0,1,2.2-3.4c1.4-1.1,3.1-.9,4.6-1.8s1.8-2.4,2.4-3.8a18.5,18.5,0,0,1,2.4-4c2.1-2.6,4.8-4,7.9-5.3a4.4,4.4,0,0,0,3.1-3.7,55.8,55.8,0,0,0,.9-5.9,80.1,80.1,0,0,0,.2-12c-.2-2-1.4-9.2-1.6-10.8H52a79.6,79.6,0,0,1-20-2.7,93.1,93.1,0,0,1-12.6-4.2A35.7,35.7,0,0,1,9,69.9a18.3,18.3,0,0,1-5.7-9.7,10.4,10.4,0,0,1,.2-5.8,8.4,8.4,0,0,1,3.8-4.1,40.9,40.9,0,0,1,12.2-4.1c4.5-.9,9.1-1.5,13.6-2s9.6-.9,14.5-1.2l7.2-.2h.7c2.1,0,4.1.1,6.2.3s4.1-.3,6.2-.3m0-3a54.9,54.9,0,0,0-5.8.3h-.8a56.3,56.3,0,0,0-5.8-.3h-.8l-7.3.2L32.8,41.2c-4.2.5-9.1,1.1-13.9,2A43.5,43.5,0,0,0,5.8,47.7,11.3,11.3,0,0,0,.7,53.3a13.9,13.9,0,0,0-.4,7.4A21.6,21.6,0,0,0,6.9,72.1,37.7,37.7,0,0,0,18.2,79a95.6,95.6,0,0,0,13.1,4.3,87.4,87.4,0,0,0,18.8,2.8c.1.4.1.8.2,1.3.4,2.4.9,5.6,1,6.7a72,72,0,0,1-.2,11.5c-.2,2.1-.5,3.9-.8,5.5s-.5,1.3-1.3,1.6a21.8,21.8,0,0,0-9.2,6.3,20.9,20.9,0,0,0-2.8,4.6c-.1.2-.1.4-.2.6s-.7,1.7-1,1.8a4.8,4.8,0,0,1-1.2.5,8.8,8.8,0,0,0-3.7,1.6,10,10,0,0,0-3.1,4.8c-2.5,8,4.8,14.5,11.7,17.7A41,41,0,0,0,51,153.7h.6a78.6,78.6,0,0,0,11,.9,46.1,46.1,0,0,0,10.1-1l1.8-.4a47.1,47.1,0,0,0,9.4-2.6c6.9-3.2,14.2-9.7,11.7-17.7a9.5,9.5,0,0,0-3.2-4.8,8,8,0,0,0-3.6-1.6,4.8,4.8,0,0,1-1.2-.5c-.3-.1-.8-1.2-1-1.8a1.4,1.4,0,0,1-.2-.6,20.9,20.9,0,0,0-2.8-4.6,21.8,21.8,0,0,0-9.2-6.3c-.8-.3-1-.5-1.3-1.6s-.6-3.4-.8-5.5a72,72,0,0,1-.2-11.5v-1c.2-2.9.3-5.4.4-7.3a84.5,84.5,0,0,0,19.5-2.5,90,90,0,0,0,13-4.3,37,37,0,0,0,11.4-6.9,21.6,21.6,0,0,0,6.6-11.4,13.9,13.9,0,0,0-.4-7.4,11.3,11.3,0,0,0-5.1-5.6,43.5,43.5,0,0,0-13.1-4.5c-4.8-.9-9.7-1.5-13.9-2L76,40l-7.3-.2Z" style="fill:#5576b4"/><path d="M118.3,59.3a70.4,70.4,0,0,1-20.9,7.4,177.9,177.9,0,0,1-23,2.6c-15.8.9-31.7.4-47.3-2.9A107.9,107.9,0,0,1,14.4,63c-3.3-1-7.2-2.3-9.4-5,0-.1-.6-1-1.2-.7s.5,4.9,5.3,10.1c2.6,2.9,6,4.8,9.4,6.5a74.1,74.1,0,0,0,24.4,7.3,133,133,0,0,0,55.4-4.6c8.3-2.5,17.7-8,20.9-16.7C119.3,59.4,118.7,59.1,118.3,59.3Z" style="fill:#a7bfee;opacity:0.5;mix-blend-mode:multiply"/><path d="M58.8,92.7a40,40,0,0,0-1.3-6.9.4.4,0,0,0-.7.1c.1,2.4-.1,4.8-.1,7.2s-.1,4.6-.3,6.9a65.5,65.5,0,0,1-1,7.4,22.6,22.6,0,0,1-1.4,5.7,8.4,8.4,0,0,1-4.1,3.8,11.2,11.2,0,0,0-4.4,3,11,11,0,0,0-2.4,4.2c-.3,1.4-.6,3.3,0,4.6s.4.1.5-.1a26.4,26.4,0,0,1,.2-2.8,11.7,11.7,0,0,1,1-2.6,8.9,8.9,0,0,1,3.8-3.9c1.7-.9,3.6-1.4,5.2-2.6a8.9,8.9,0,0,0,2.9-4.2,43.8,43.8,0,0,0,2.2-13A51.2,51.2,0,0,0,58.8,92.7Z" style="fill:#a7bfee;opacity:0.5;mix-blend-mode:multiply"/><path d="M83.3,127.5c-.7.3-5.6,4.3-19.6,4.7a84.5,84.5,0,0,1-12.3-.6c-3.8-.4-7.5-1-10.7-3.1-.1-.1-.2.1-.1.2,2.5,2.7,5.6,3.6,9.1,4.5s9.4,1.2,13.9,1.2a53.1,53.1,0,0,0,11.9-1.5,16.6,16.6,0,0,0,4.8-1.9,7.6,7.6,0,0,0,3.2-3.2C83.6,127.6,83.4,127.5,83.3,127.5Z" style="fill:#a7bfee;opacity:0.5;mix-blend-mode:multiply"/><path d="M92.2,133.4c-.1-.4-.4-.4-.5,0a14.9,14.9,0,0,1-3.4,4.5,16.8,16.8,0,0,1-5.6,3,72.9,72.9,0,0,1-13.1,2.9c-8.9,1.1-18.2.9-26.8-1.8-3.9-1.2-9.9-3.9-9.8-8.9.1-.3-.4-.3-.5,0-1.4,4,2.1,7.6,5.4,9.4s9.5,3.3,14.5,3.9A66.7,66.7,0,0,0,82.8,143a18.1,18.1,0,0,0,6.6-3.8C90.9,137.8,92.4,135.6,92.2,133.4Z" style="fill:#a7bfee;opacity:0.5;mix-blend-mode:multiply"/><path d="M87.3,52.6h0a5,5,0,0,1,.4,1.3.6.6,0,0,0,.1.4,7.6,7.6,0,0,1,.1,2.1v.3a4.2,4.2,0,0,1,.4,1.8c0,2.4-2.5,3.6-4.4,4.1A49.5,49.5,0,0,1,73,64.3a47.1,47.1,0,0,1-6.5-.2,6.3,6.3,0,0,1-1.9-.3h0a9.2,9.2,0,0,1-2.3-.9l-.2-.2a3,3,0,0,1-1.4-1.9,1.9,1.9,0,0,1-.2-.8,1.3,1.3,0,0,1,.1-.6v-.2a2,2,0,0,1-.3-1.1c0-.1.1-.3.1-.4s.2-.3.2-.4a1.6,1.6,0,0,0,.2-1.1c0-.3-.2-.5-.3-.9a2.2,2.2,0,0,1,0-2.1l.2-.2h0c-2-1.4,0-4.3,1.7-5.3a25.8,25.8,0,0,1,9.1-2.6l2.7-.3c4.9-.4,10.5.5,12,1.4a4.6,4.6,0,0,1,1.7,1.7,4,4,0,0,1,0,3.7A2.7,2.7,0,0,1,87.3,52.6Z" style="fill:#ffe983"/><path d="M87.9,56.5a13.8,13.8,0,0,1-5.5,2.4,33.1,33.1,0,0,1-7.7.9,45.2,45.2,0,0,1-10.1-.7c-1.3-.3-3.2-.4-4.2-1.4s.2-.3.2-.4a1.6,1.6,0,0,0,.2-1.1c.9.7,9.6,1.5,11.9,1.6a42.4,42.4,0,0,0,8.4-.9c5.5-1.1,6.6-2.5,6.7-2.5A7.6,7.6,0,0,1,87.9,56.5Z" style="fill:#fff2be"/><path d="M87.9,51.6h0a3.1,3.1,0,0,1-1.4,1.6c-5.3,3.1-19.1,2.6-24.4.7a4.8,4.8,0,0,1-1.4-.9h0c-2-1.4,0-4.3,1.7-5.3a22.1,22.1,0,0,1,9.1-2.6h.1s-9.9,2.2-10.7,5.3c-.4,1.5,2.4,2.2,3.2,2.3a101.9,101.9,0,0,0,11.3.8,31,31,0,0,0,8-1.2c5-1.4,4.5-4.3,4.5-4.4A4,4,0,0,1,87.9,51.6Z" style="fill:#ffc74e"/><path d="M88.3,58.6c0,2.4-2.5,3.6-4.4,4.1A49.5,49.5,0,0,1,73,64.3a47.1,47.1,0,0,1-6.5-.2,6.3,6.3,0,0,1-1.9-.3h0a9.2,9.2,0,0,1-2.3-.9l-.2-.2a3,3,0,0,1-1.4-1.9,3.1,3.1,0,0,0-.2-.8,1.3,1.3,0,0,1,.1-.6h0c0-.2.4.4.4.5,1.2,2.4,5,2.8,7.4,3a41.9,41.9,0,0,0,7.1.1c11-.7,12.7-4.6,12.8-4.5Z" style="fill:#ffc74e"/><path d="M67.5,60.4c-.5-.5-1-.4-1.7-.4l-1.8.2c-.2.1-.2.3-.1.5s2.9,1.5,3.7.3A.5.5,0,0,0,67.5,60.4Z" style="fill:#ffc74e"/><path d="M71.6,61.1a.8.8,0,0,0-.8-.3c-.3,0-.5,0-.7.3a.8.8,0,0,0-.1.8.9.9,0,0,0,.7.3.8.8,0,0,0,.8-.1A.6.6,0,0,0,71.6,61.1Z" style="fill:#ffc74e"/><path d="M76.4,61.2a1.4,1.4,0,0,0-1.6-.3.7.7,0,0,0-.1,1.3,1.4,1.4,0,0,0,1.8-.4A.4.4,0,0,0,76.4,61.2Z" style="fill:#ffc74e"/><path d="M78.8,49.4a2,2,0,0,0-1.3.2.7.7,0,0,0,.1,1.2c.6.3,2.1.1,2-.8S79.2,49.4,78.8,49.4Z" style="fill:#ffc74e"/><path d="M82.2,47.3a3.1,3.1,0,0,0-2.1.1A.9.9,0,0,0,80,49a2.5,2.5,0,0,0,2.5-.3A.8.8,0,0,0,82.2,47.3Z" style="fill:#ffc74e"/><path d="M83.2,49.8H82c-.4.1-.9.5-.7,1s1.4.6,2,.3A.8.8,0,0,0,83.2,49.8Z" style="fill:#ffc74e"/><path d="M86.3,47.9a.8.8,0,0,0-.3-.7l-.3-.2H85l-.8.4a1,1,0,0,0,.2,1.4h.8l.6-.2.2-.2A.5.5,0,0,0,86.3,47.9Z" style="fill:#ffc74e"/><path d="M65.3,55.1A2,2,0,0,0,64,55a.9.9,0,0,0-.9,1c.2.8,1.4.9,2.1.8A.9.9,0,0,0,65.3,55.1Z" style="fill:#ffc74e"/><path d="M68.9,55.8a.5.5,0,0,0-.4.2.5.5,0,0,0,.1.8l.3.2a.7.7,0,0,0,.8-.7C69.7,56,69.2,55.6,68.9,55.8Z" style="fill:#ffc74e"/><path d="M82.5,55.7c-.4-.4-.9-.1-1.3,0s-1,.2-.8.6.8.2,1.1.2.9-.1,1-.5S82.6,55.7,82.5,55.7Z" style="fill:#ffc74e"/><path d="M81.4,60.2h-.8a.9.9,0,0,0-.6.4.5.5,0,0,0,.1.6c.2.2.5.1.8.1h.3l.3-.2a.1.1,0,0,1,.1-.1C81.8,60.7,81.7,60.2,81.4,60.2Z" style="fill:#ffc74e"/><path d="M84,59.4a.4.4,0,0,0-.6-.3.5.5,0,0,0-.5.3.5.5,0,0,0,.2.6.6.6,0,0,0,.6,0A.4.4,0,0,0,84,59.4Z" style="fill:#ffc74e"/><path d="M83.1,61.1a.5.5,0,0,0-.5-.3l-.4.2c-.2.1-.2.3-.1.5a.8.8,0,0,0,.8.1C83.1,61.5,83.1,61.3,83.1,61.1Z" style="fill:#ffc74e"/><path d="M85.8,59.1c-.3,0-.5,0-.6.3a.3.3,0,0,0,.1.5c.1.1.2.2.4.1H86A.4.4,0,0,0,85.8,59.1Z" style="fill:#ffc74e"/><path d="M86.6,54.2c-.1-.2-.3-.4-.5-.3l-.4.3a.3.3,0,0,0,0,.5c.2.3.5.2.8.1S86.7,54.4,86.6,54.2Z" style="fill:#ffc74e"/><path d="M72.6,56c-.3.2-.2.6.1.8s1.1,0,1.1-.5S73,55.8,72.6,56Z" style="fill:#ffc74e"/><path d="M62.2,54.7a1,1,0,0,0-.5-.4.6.6,0,0,0-.6.7c.1.3.3.4.6.5s.4-.1.5-.2A.6.6,0,0,0,62.2,54.7Z" style="fill:#ffc74e"/><path d="M72.9,61.7c-.3-.1-.7.2-.6.5a.5.5,0,0,0,.9.1C73.4,62,73.2,61.8,72.9,61.7Z" style="fill:#ffc74e"/><path d="M76.8,44.7c4.2,0,8.2.7,9.4,1.5a4.6,4.6,0,0,1,1.7,1.7,4,4,0,0,1,0,3.7h0a4.7,4.7,0,0,1-.6.9h0a5,5,0,0,1,.4,1.3.6.6,0,0,0,.1.4,7.6,7.6,0,0,1,.1,2.1v.3a4.2,4.2,0,0,1,.4,1.8c0,2.4-2.5,3.6-4.4,4.1A49.5,49.5,0,0,1,73,64.3H71.1l-4.6-.2a6.3,6.3,0,0,1-1.9-.3h0a9.2,9.2,0,0,1-2.3-.9l-.2-.2a3,3,0,0,1-1.4-1.9,1.9,1.9,0,0,1-.2-.8,1.3,1.3,0,0,1,.1-.6h0v-.2a2,2,0,0,1-.3-1.1c0-.1.1-.3.1-.4s.2-.3.2-.4a1.6,1.6,0,0,0,.2-1.1c0-.3-.2-.5-.3-.9a2.2,2.2,0,0,1,0-2.1l.2-.2h0c-2-1.4,0-4.3,1.7-5.3a22.1,22.1,0,0,1,9.1-2.6l2.7-.3h2.6m0-3H73.9l-2.8.3a26.1,26.1,0,0,0-10.1,3,8.2,8.2,0,0,0-4.2,6,5.3,5.3,0,0,0,.5,2.5,6.4,6.4,0,0,0,.4,2.8,4.7,4.7,0,0,0-.4,1.6,4.4,4.4,0,0,0,.2,1.6v.7l.3,1.5a8.4,8.4,0,0,0,2.5,3.4l.4.2a9.7,9.7,0,0,0,3.1,1.3h.1a10,10,0,0,0,2.4.4l4.8.2h2a50.8,50.8,0,0,0,11.6-1.7c4.2-1.2,6.5-3.7,6.6-6.9a8.5,8.5,0,0,0-.3-2.3,14.2,14.2,0,0,0-.3-2.4v-.3h0c0-.2-.1-.4-.1-.6s0-.1.1-.2a7.1,7.1,0,0,0-.1-6.2,7,7,0,0,0-2.9-3c-2.1-1.3-7.1-1.9-10.9-1.9Z" style="fill:#ffaa5a"/><path d="M38,54.4a.1.1,0,0,1-.1.1,2.2,2.2,0,0,1,0,1.4v.4a9.7,9.7,0,0,1-.6,2.1.1.1,0,0,1-.1.1,5.6,5.6,0,0,1-.1,1.9c-.8,2.3-3.6,2.6-5.5,2.5a45.5,45.5,0,0,1-10.9-2,63.2,63.2,0,0,1-6.1-2.2,7,7,0,0,1-1.7-.9h0A7.4,7.4,0,0,1,11,56.2a.3.3,0,0,0-.1-.2,3.3,3.3,0,0,1-.7-2.3,2.5,2.5,0,0,1,.1-.8.8.8,0,0,1,.2-.5c0-.1.1-.2.1-.3a1.7,1.7,0,0,1,0-1l.3-.4.3-.4a1.1,1.1,0,0,0,.5-.9c.1-.3,0-.5,0-1a2.6,2.6,0,0,1,.8-2h.1c-1.4-2.1,1.4-4.2,3.4-4.5a24.9,24.9,0,0,1,9.4.4l2.6.5c4.9,1.2,9.9,3.9,11,5.2a4.6,4.6,0,0,1,1.1,2.2,4.2,4.2,0,0,1-1.2,3.5A3.5,3.5,0,0,1,38,54.4Z" style="fill:#ffe983"/><path d="M37.3,58.4a14.4,14.4,0,0,1-5.9.4,32.1,32.1,0,0,1-7.6-1.6,42.7,42.7,0,0,1-9.4-3.9c-1.1-.6-2.9-1.3-3.5-2.6l.3-.4a1.1,1.1,0,0,0,.5-.9c.7.9,8.6,4.5,10.8,5.2a34,34,0,0,0,8.3,1.9c5.5.7,7-.2,7.1-.2A9.7,9.7,0,0,1,37.3,58.4Z" style="fill:#fff2be"/><path d="M38.9,53.7h0a4.2,4.2,0,0,1-1.8,1.1c-6,1.2-19-3.7-23.4-7.2a9.1,9.1,0,0,1-1.1-1.2h0c-1.4-2.1,1.4-4.2,3.4-4.5a21.7,21.7,0,0,1,9.4.4h.1s-10.1-1.1-11.8,1.6,1.6,2.9,2.3,3.2a75.4,75.4,0,0,0,10.5,4.4,29.8,29.8,0,0,0,7.9,1.4c5.1.3,5.7-2.7,5.7-2.7A4.2,4.2,0,0,1,38.9,53.7Z" style="fill:#ffc74e"/><path d="M37.1,60.4c-.8,2.3-3.6,2.6-5.5,2.5a45.5,45.5,0,0,1-10.9-2,63.2,63.2,0,0,1-6.1-2.2,7,7,0,0,1-1.7-.9h0A10,10,0,0,1,11,56.2a.3.3,0,0,0-.1-.2,3.3,3.3,0,0,1-.7-2.3,2.8,2.8,0,0,1,.1-.8.8.8,0,0,1,.2-.5h0c.1-.2.3.4.3.6.3,2.6,3.8,4.2,6,5.2a37.8,37.8,0,0,0,6.7,2.3c10.7,2.9,13.5-.2,13.5-.1Z" style="fill:#ffc74e"/><path d="M16.8,55.5c-.3-.6-.9-.7-1.5-.9l-1.8-.4a.3.3,0,0,0-.2.4c.5,1,2.2,2.4,3.3,1.5A.4.4,0,0,0,16.8,55.5Z" style="fill:#ffc74e"/><path d="M20.4,57.4c-.1-.3-.4-.4-.6-.5a.8.8,0,0,0-.8.1.5.5,0,0,0-.3.7c0,.3.3.4.5.6a1.1,1.1,0,0,0,.8.1A.7.7,0,0,0,20.4,57.4Z" style="fill:#ffc74e"/><path d="M25,59.1a1.8,1.8,0,0,0-1.5-.8.7.7,0,0,0-.5,1.2c.4.4,1.4.7,1.8.2A.4.4,0,0,0,25,59.1Z" style="fill:#ffc74e"/><path d="M31,48.7a2,2,0,0,0-1.3-.2.6.6,0,0,0-.3,1.1c.4.5,1.9.8,2.2-.1S31.4,48.8,31,48.7Z" style="fill:#ffc74e"/><path d="M34.8,47.8a2.7,2.7,0,0,0-1.9-.6.9.9,0,0,0-.7,1.5,2.4,2.4,0,0,0,2.4.5A.8.8,0,0,0,34.8,47.8Z" style="fill:#ffc74e"/><path d="M35,50.5a1.3,1.3,0,0,0-.6-.4h-.5a.9.9,0,0,0-1,.8c.1.9,1.1,1,1.7.9A.7.7,0,0,0,35,50.5Z" style="fill:#ffc74e"/><path d="M38.6,49.6a.8.8,0,0,0-.1-.8l-.2-.2c-.2-.1-.4-.3-.6-.3s-.7-.1-1,.1a1,1,0,0,0-.4.7,1,1,0,0,0,.2.7,1.3,1.3,0,0,0,.8.3.5.5,0,0,0,.5,0h.3A.7.7,0,0,0,38.6,49.6Z" style="fill:#ffc74e"/><path d="M16.4,49.8a3.1,3.1,0,0,0-1.3-.6A.9.9,0,0,0,14,50c-.1.8,1,1.3,1.7,1.4S16.9,50.3,16.4,49.8Z" style="fill:#ffc74e"/><path d="M19.5,51.6h-.4a.4.4,0,0,0-.2.7c.1.2.2.2.3.3s.8,0,.9-.3S19.9,51.5,19.5,51.6Z" style="fill:#ffc74e"/><path d="M32.5,55.8c-.3-.4-.8-.4-1.3-.4s-1-.1-.9.3.6.5,1,.6.8.1,1.1-.2A.4.4,0,0,0,32.5,55.8Z" style="fill:#ffc74e"/><path d="M29.9,59.7h-.7a.8.8,0,0,0-.7.2.3.3,0,0,0-.1.5.9.9,0,0,0,.8.4h.6c0-.1.1-.1.1-.2S30.2,59.9,29.9,59.7Z" style="fill:#ffc74e"/><path d="M32.8,59.8a.5.5,0,0,0-.5-.5c-.3,0-.4,0-.6.2s-.2.4,0,.6.3.2.6.2A.5.5,0,0,0,32.8,59.8Z" style="fill:#ffc74e"/><path d="M31.3,61.1c0-.2-.2-.3-.3-.4s-.4,0-.5,0a.4.4,0,0,0-.2.5.5.5,0,0,0,.7.3C31.2,61.5,31.3,61.3,31.3,61.1Z" style="fill:#ffc74e"/><path d="M34.5,60.1a.6.6,0,0,0-.7.1.3.3,0,0,0,0,.5c.1.1.1.2.3.2s.3,0,.4,0A.4.4,0,0,0,34.5,60.1Z" style="fill:#ffc74e"/><path d="M36.9,55.7a.7.7,0,0,0-.5-.4H36c-.3.1-.3.3-.2.5a.5.5,0,0,0,.7.3C36.8,56.2,36.9,55.9,36.9,55.7Z" style="fill:#ffc74e"/><path d="M23,53c-.3,0-.4.5-.2.7s1.1.4,1.2-.1S23.4,52.9,23,53Z" style="fill:#ffc74e"/><path d="M13.6,48.4a1,1,0,0,0-.4-.5c-.4-.2-.8,0-.8.4a.8.8,0,0,0,.4.7.6.6,0,0,0,.6,0A1.4,1.4,0,0,0,13.6,48.4Z" style="fill:#ffc74e"/><path d="M21.5,58.5c-.3-.2-.8-.1-.8.3a.5.5,0,0,0,.9.3A.4.4,0,0,0,21.5,58.5Z" style="fill:#ffc74e"/><path d="M19.5,41.6a26.2,26.2,0,0,1,5.9.7l2.6.5c4.9,1.2,9.9,3.9,11,5.2a4.6,4.6,0,0,1,1.1,2.2,4.2,4.2,0,0,1-1.2,3.5h0l-.9.7a.1.1,0,0,1-.1.1,2.2,2.2,0,0,1,0,1.4v.4a9.7,9.7,0,0,1-.6,2.1.1.1,0,0,1-.1.1,5.6,5.6,0,0,1-.1,1.9c-.8,2-3.1,2.5-4.9,2.5h-.6a45.5,45.5,0,0,1-10.9-2,63.2,63.2,0,0,1-6.1-2.2,7,7,0,0,1-1.7-.9h0A7.4,7.4,0,0,1,11,56.2a.3.3,0,0,0-.1-.2,3.3,3.3,0,0,1-.7-2.3,2.5,2.5,0,0,1,.1-.8.8.8,0,0,1,.2-.5h0c0-.1.1-.2.1-.3a1.7,1.7,0,0,1,0-1l.3-.4.3-.4a1.1,1.1,0,0,0,.5-.9c.1-.3,0-.5,0-1a2.6,2.6,0,0,1,.8-2h.1c-1.4-2.1,1.4-4.2,3.4-4.5l3.5-.3m0-3-4,.3c-2.1.4-4.9,2-5.9,4.4a5.2,5.2,0,0,0-.3,2.5,5.9,5.9,0,0,0-.6,2.8A4.2,4.2,0,0,0,7.8,50a4.1,4.1,0,0,0-.3,1.6c0,.2-.1.4-.1.6a3.9,3.9,0,0,0-.2,1.5,6.1,6.1,0,0,0,1.2,4l.3.4a13.6,13.6,0,0,0,2.5,2.2h.1a15.1,15.1,0,0,0,2.2,1.1,65.4,65.4,0,0,0,6.4,2.3,49.5,49.5,0,0,0,11.6,2.1h.7c3.8,0,6.7-1.6,7.7-4.5a7.8,7.8,0,0,0,.4-2.2,14.8,14.8,0,0,0,.5-2.4v-.3h0c0-.2.1-.4.1-.6h.1a7.2,7.2,0,0,0,2-6A8,8,0,0,0,41.3,46c-1.9-2.1-7.6-4.9-12.6-6.1L26,39.3a32.1,32.1,0,0,0-6.5-.7Z" style="fill:#ffaa5a"/><path d="M67.2,34a.1.1,0,0,1-.1.1,3.2,3.2,0,0,1,.3,1.4v.4a7.4,7.4,0,0,1,0,2.1.3.3,0,0,0-.1.2,4.5,4.5,0,0,1,.2,1.9c-.3,2.4-2.9,3.3-4.7,3.6a45.9,45.9,0,0,1-11.1.5c-2.1-.1-4.4-.5-6.4-.8l-1.9-.5h0a7.8,7.8,0,0,1-2.2-1.2l-.2-.2a4.1,4.1,0,0,1-1.2-2c0-.3-.1-.6-.1-.9a.9.9,0,0,0,.1-.5.4.4,0,0,0,.1-.3,1.2,1.2,0,0,1-.2-1c0-.2.1-.3.2-.5s.1-.2.2-.4a1.1,1.1,0,0,0,.3-1,3.7,3.7,0,0,0-.2-.9,2.3,2.3,0,0,1,.3-2.1v-.2h0c-1.8-1.6.5-4.3,2.3-5.1A24.3,24.3,0,0,1,52.2,25h2.7c5,.1,10.4,1.6,11.8,2.7a4.1,4.1,0,0,1,1.6,1.9,4.5,4.5,0,0,1-.4,3.6Z" style="fill:#ffe983"/><path d="M67.4,38a13.6,13.6,0,0,1-5.8,1.8,33.1,33.1,0,0,1-7.7.1,48.7,48.7,0,0,1-10-1.7c-1.3-.4-3.1-.7-4-1.9s.1-.2.2-.4a1.1,1.1,0,0,0,.3-1c.8.8,9.4,2.5,11.7,2.8a48.2,48.2,0,0,0,8.5,0c5.5-.6,6.7-1.8,6.8-1.8A7.4,7.4,0,0,1,67.4,38Z" style="fill:#fff2be"/><path d="M67.9,33.1h0a3.3,3.3,0,0,1-1.6,1.5c-5.6,2.5-19.3.5-24.4-1.9a5.3,5.3,0,0,1-1.3-1h0c-1.8-1.6.5-4.3,2.3-5.1A22.4,22.4,0,0,1,52.2,25h.1s-10.1,1.1-11.2,4.2c-.5,1.4,2.2,2.4,3,2.5a88.2,88.2,0,0,0,11.1,2.1,36.7,36.7,0,0,0,8.1-.4c5.1-.9,4.9-3.9,5-3.9A4.5,4.5,0,0,1,67.9,33.1Z" style="fill:#ffc74e"/><path d="M67.5,40.1c-.3,2.4-2.9,3.3-4.7,3.6a45.9,45.9,0,0,1-11.1.5c-2.1-.1-4.4-.5-6.4-.8l-1.9-.5h0a7.8,7.8,0,0,1-2.2-1.2l-.2-.2a4.1,4.1,0,0,1-1.2-2,3.4,3.4,0,0,0-.1-.9,4.3,4.3,0,0,1,.1-.5h0c.1-.2.4.4.5.5.8,2.5,4.6,3.3,6.9,3.8a42.7,42.7,0,0,0,7.1.7c11.1.6,13.2-3.1,13.2-3Z" style="fill:#ffc74e"/><path d="M46.7,39.8a1.8,1.8,0,0,0-1.7-.6,5.4,5.4,0,0,0-1.8,0c-.2.1-.3.3-.1.5s2.6,1.8,3.5.7A.5.5,0,0,0,46.7,39.8Z" style="fill:#ffc74e"/><path d="M50.6,40.8a.9.9,0,0,0-.7-.3,1.1,1.1,0,0,0-.8.2.8.8,0,0,0-.1.8c.1.3.4.3.6.4a1.4,1.4,0,0,0,.9,0A.8.8,0,0,0,50.6,40.8Z" style="fill:#ffc74e"/><path d="M55.5,41.5a1.8,1.8,0,0,0-1.7-.5.8.8,0,0,0-.2,1.3c.5.3,1.5.4,1.9-.2A.5.5,0,0,0,55.5,41.5Z" style="fill:#ffc74e"/><path d="M59.1,30a2.2,2.2,0,0,0-1.4.1c-.5.2-.4.8,0,1.1s2.1.4,2.1-.5A.8.8,0,0,0,59.1,30Z" style="fill:#ffc74e"/><path d="M62.6,28.3a2.8,2.8,0,0,0-2-.2.9.9,0,0,0-.3,1.6,2.3,2.3,0,0,0,2.4,0A.8.8,0,0,0,62.6,28.3Z" style="fill:#ffc74e"/><path d="M63.3,30.9l-.6-.2h-.5c-.5.1-1,.5-.8,1s1.2.7,1.9.4S63.8,31.1,63.3,30.9Z" style="fill:#ffc74e"/><path d="M66.7,29.2a1.1,1.1,0,0,0-.3-.7l-.2-.2a.9.9,0,0,0-.7-.1c-.3,0-.7,0-.9.3a.9.9,0,0,0-.3.7,1,1,0,0,0,.4.7h1.6A.9.9,0,0,0,66.7,29.2Z" style="fill:#ffc74e"/><path d="M45,34.3a3.1,3.1,0,0,0-1.3-.3c-.5,0-1.1.4-1,1s1.4,1,2,.9S45.7,34.6,45,34.3Z" style="fill:#ffc74e"/><path d="M48.5,35.3l-.4.2a.6.6,0,0,0,0,.8l.3.2a.6.6,0,0,0,.8-.5C49.2,35.6,48.9,35.2,48.5,35.3Z" style="fill:#ffc74e"/><path d="M62,36.6c-.3-.3-.8-.2-1.3-.1s-1,.1-.8.5.7.3,1.1.3a1.2,1.2,0,0,0,1.1-.4A.4.4,0,0,0,62,36.6Z" style="fill:#ffc74e"/><path d="M60.4,41h-.7a.9.9,0,0,0-.7.3.3.3,0,0,0,.1.5.6.6,0,0,0,.8.2h.3l.3-.2h.1A.4.4,0,0,0,60.4,41Z" style="fill:#ffc74e"/><path d="M63.2,40.4a.5.5,0,0,0-.6-.3.5.5,0,0,0-.5.3.5.5,0,0,0,.1.6.6.6,0,0,0,.6,0C63.1,41,63.2,40.7,63.2,40.4Z" style="fill:#ffc74e"/><path d="M62,42a.4.4,0,0,0-.4-.3h-.4c-.2.2-.3.4-.1.6a.5.5,0,0,0,.7.1A.4.4,0,0,0,62,42Z" style="fill:#ffc74e"/><path d="M64.9,40.3a.7.7,0,0,0-.6.3.3.3,0,0,0,.1.5.5.5,0,0,0,.4.2h.3A.5.5,0,0,0,64.9,40.3Z" style="fill:#ffc74e"/><path d="M66.3,35.6c-.1-.3-.3-.4-.5-.3a.5.5,0,0,0-.4.2.3.3,0,0,0-.1.5.6.6,0,0,0,.8.2A.5.5,0,0,0,66.3,35.6Z" style="fill:#ffc74e"/><path d="M52.2,35.9a.5.5,0,0,0,0,.8c.3.3,1.1.2,1.1-.4S52.6,35.7,52.2,35.9Z" style="fill:#ffc74e"/><path d="M42,33.5a1,1,0,0,0-.5-.4.5.5,0,0,0-.7.6,1,1,0,0,0,.5.6.5.5,0,0,0,.6-.2A.6.6,0,0,0,42,33.5Z" style="fill:#ffc74e"/><path d="M51.9,41.6c-.3-.1-.8.1-.7.5a.5.5,0,0,0,.9.1C52.3,42,52.1,41.7,51.9,41.6Z" style="fill:#ffc74e"/><path d="M53.7,24.9h1.2c5,.1,10.4,1.6,11.8,2.7a4.1,4.1,0,0,1,1.6,1.9,4.5,4.5,0,0,1-.4,3.6h-.1l-.6.8a.1.1,0,0,1-.1.1,3.2,3.2,0,0,1,.3,1.4v.4a7.4,7.4,0,0,1,0,2.1.3.3,0,0,0-.1.2,4.5,4.5,0,0,1,.2,1.9c-.3,2.4-2.9,3.3-4.7,3.6a43.4,43.4,0,0,1-7.1.6h-4c-2.1-.1-4.4-.5-6.4-.8l-1.9-.5h0a7.8,7.8,0,0,1-2.2-1.2l-.2-.2a4.1,4.1,0,0,1-1.2-2c0-.3-.1-.6-.1-.9a4.3,4.3,0,0,1,.1-.5h0a.4.4,0,0,0,.1-.3,1.2,1.2,0,0,1-.2-1c0-.2.1-.3.2-.5s.1-.2.2-.4a1.1,1.1,0,0,0,.3-1,3.7,3.7,0,0,0-.2-.9,2.3,2.3,0,0,1,.3-2.1v-.2h0c-1.8-1.6.5-4.3,2.3-5.1A22.4,22.4,0,0,1,52.2,25h1.5m0-3H52.1a23.1,23.1,0,0,0-10.3,1.9A8.1,8.1,0,0,0,37,29.4a5.2,5.2,0,0,0,.2,2.5,7,7,0,0,0,.1,2.9,4.7,4.7,0,0,0-.6,1.5,8.1,8.1,0,0,0,.1,1.6c0,.3-.1.5-.1.7a7.7,7.7,0,0,0,.2,1.5A6.9,6.9,0,0,0,39,43.8l.3.2a12.4,12.4,0,0,0,3,1.7h.1a8.6,8.6,0,0,0,2.3.6,53.4,53.4,0,0,0,6.8.9h4.2a46.8,46.8,0,0,0,7.6-.6c4.2-.7,6.8-3,7.2-6.2a6,6,0,0,0-.1-2.3,9.6,9.6,0,0,0,0-2.4v-.3h0v-.8h0a7.2,7.2,0,0,0,.5-6.2,6.7,6.7,0,0,0-2.5-3.3C66.2,23.5,60,22,54.9,21.9Z" style="fill:#ffaa5a"/><path d="M109.2,30.6h-.1a3.5,3.5,0,0,1,.5,1.3.8.8,0,0,1,.1.4,16.6,16.6,0,0,1,.3,2.2v.2a3.1,3.1,0,0,1,.5,1.8c.1,2.3-2.4,3.7-4.2,4.3a44.7,44.7,0,0,1-10.8,2c-2.1.2-4.4.2-6.5.2L87,42.9h-.1a9.2,9.2,0,0,1-2.3-.9h-.2A4,4,0,0,1,82.9,40c-.1-.2-.1-.5-.2-.8v-.6c.1-.1.1-.1.1-.2a1.8,1.8,0,0,1-.4-1,4.3,4.3,0,0,1,.1-.5.8.8,0,0,0,.2-.4,2.6,2.6,0,0,0,.2-1.1,3.9,3.9,0,0,1-.4-.9,2.6,2.6,0,0,1-.1-2.1h.2c-2.1-1.4-.2-4.4,1.5-5.4A26.9,26.9,0,0,1,93,23.8l2.7-.4c4.9-.6,10.5.1,12.1.9a4.2,4.2,0,0,1,1.8,1.7,4.1,4.1,0,0,1,.1,3.6A4.7,4.7,0,0,1,109.2,30.6Z" style="fill:#ffe983"/><path d="M110,34.6a15.8,15.8,0,0,1-5.4,2.5,33.5,33.5,0,0,1-7.7,1.3,38.7,38.7,0,0,1-10.1-.3c-1.4-.2-3.2-.2-4.3-1.2a.8.8,0,0,0,.2-.4,2.6,2.6,0,0,0,.2-1.1c.9.7,9.6,1.1,11.9,1a41.4,41.4,0,0,0,8.4-1.2c5.3-1.4,6.4-2.7,6.5-2.8A16.6,16.6,0,0,1,110,34.6Z" style="fill:#fff2be"/><path d="M109.7,29.6h0a3.1,3.1,0,0,1-1.3,1.7c-5.1,3.3-19,3.4-24.4,1.7a8.8,8.8,0,0,1-1.4-.7h0c-2.1-1.4-.2-4.4,1.5-5.4A24.6,24.6,0,0,1,93,23.8h.1c0,.1-9.8,2.7-10.4,5.8-.3,1.5,2.5,2.1,3.3,2.1a88.9,88.9,0,0,0,11.3.4,32.4,32.4,0,0,0,8-1.6c4.8-1.6,4.3-4.5,4.3-4.5A4.1,4.1,0,0,1,109.7,29.6Z" style="fill:#ffc74e"/><path d="M110.4,36.6c.1,2.3-2.4,3.7-4.2,4.3a44.7,44.7,0,0,1-10.8,2c-2.1.2-4.4.2-6.5.2L87,42.9h-.1a9.2,9.2,0,0,1-2.3-.9h-.2A4,4,0,0,1,82.9,40a3.1,3.1,0,0,0-.2-.8v-.6h0c.1-.2.5.4.5.5,1.3,2.4,5.1,2.5,7.5,2.7a33.5,33.5,0,0,0,7.1-.3c11-1.1,12.6-5.1,12.6-5Z" style="fill:#ffc74e"/><path d="M89.7,39.3c-.5-.5-1-.4-1.7-.3a5.7,5.7,0,0,0-1.8.3.2.2,0,0,0,0,.4c.8.8,2.9,1.4,3.6.3A.6.6,0,0,0,89.7,39.3Z" style="fill:#ffc74e"/><path d="M93.8,39.8a1.1,1.1,0,0,0-.8-.2.7.7,0,0,0-.7.3.6.6,0,0,0,0,.8.9.9,0,0,0,.7.3,1.1,1.1,0,0,0,.8-.2A.7.7,0,0,0,93.8,39.8Z" style="fill:#ffc74e"/><path d="M98.7,39.7a1.7,1.7,0,0,0-1.7-.2.7.7,0,0,0,0,1.3,1.6,1.6,0,0,0,1.8-.5A.4.4,0,0,0,98.7,39.7Z" style="fill:#ffc74e"/><path d="M100.6,27.8a2.2,2.2,0,0,0-1.4.3.7.7,0,0,0,.2,1.2c.6.3,2.1,0,2-.9A.8.8,0,0,0,100.6,27.8Z" style="fill:#ffc74e"/><path d="M103.8,25.6a3.4,3.4,0,0,0-2,.1,1,1,0,0,0-.1,1.7,2.8,2.8,0,0,0,2.5-.4A.8.8,0,0,0,103.8,25.6Z" style="fill:#ffc74e"/><path d="M104.9,28h-1.2c-.4.2-.8.7-.6,1.1s1.4.6,1.9.2A.8.8,0,0,0,104.9,28Z" style="fill:#ffc74e"/><path d="M108,25.9a.8.8,0,0,0-.4-.6l-.2-.2a1.1,1.1,0,0,0-.8,0,.9.9,0,0,0-.8.4,1.1,1.1,0,0,0-.2.8l.5.5c.3.2.5.1.8.1l.6-.2.2-.2A.9.9,0,0,0,108,25.9Z" style="fill:#ffc74e"/><path d="M87.3,34.1H85.9a1,1,0,0,0-.8,1.1c.3.8,1.5.9,2.2.7S88,34.4,87.3,34.1Z" style="fill:#ffc74e"/><path d="M90.9,34.6l-.4.3a.6.6,0,0,0,.1.8H91c.4.2.8-.3.7-.6S91.2,34.4,90.9,34.6Z" style="fill:#ffc74e"/><path d="M104.5,33.9c-.4-.3-.9,0-1.4.1s-.9.2-.6.7.7.1,1,.1.9-.2,1.1-.6A.4.4,0,0,0,104.5,33.9Z" style="fill:#ffc74e"/><path d="M103.5,38.5c-.1,0-.2-.1-.3,0h-.4a.5.5,0,0,0-.6.4.4.4,0,0,0,.1.5,1,1,0,0,0,.9.1h.3c0-.1.1-.1.2-.2h.1C104,38.9,103.9,38.5,103.5,38.5Z" style="fill:#ffc74e"/><path d="M106.2,37.5a.5.5,0,0,0-.6-.2.5.5,0,0,0-.5.3.5.5,0,0,0,.2.6h.6A.5.5,0,0,0,106.2,37.5Z" style="fill:#ffc74e"/><path d="M105.3,39.3a.5.5,0,0,0-.5-.3.5.5,0,0,0-.4.2.4.4,0,0,0,0,.6.6.6,0,0,0,.8,0A.4.4,0,0,0,105.3,39.3Z" style="fill:#ffc74e"/><path d="M107.9,37.2a.7.7,0,0,0-.6.3c0,.2,0,.4.2.5s.2.2.4.1h.3A.4.4,0,0,0,107.9,37.2Z" style="fill:#ffc74e"/><path d="M108.6,32.2c-.1-.1-.4-.3-.6-.2l-.4.3a.3.3,0,0,0,0,.5.6.6,0,0,0,.8.1A.7.7,0,0,0,108.6,32.2Z" style="fill:#ffc74e"/><path d="M94.7,34.7a.5.5,0,0,0,0,.8c.4.2,1.2,0,1.1-.6S95,34.5,94.7,34.7Z" style="fill:#ffc74e"/><path d="M84.2,33.9a.8.8,0,0,0-.6-.4c-.3,0-.7.3-.5.7s.3.4.6.5a.5.5,0,0,0,.5-.3A.4.4,0,0,0,84.2,33.9Z" style="fill:#ffc74e"/><path d="M95.2,40.4c-.3-.1-.7.2-.6.5s.7.4.9.1S95.5,40.4,95.2,40.4Z" style="fill:#ffc74e"/><path d="M99.9,23.2c3.6,0,6.8.5,7.9,1.1a4.2,4.2,0,0,1,1.8,1.7,4.1,4.1,0,0,1,.1,3.6h0a4.1,4.1,0,0,1-.5.9h-.1a3.5,3.5,0,0,1,.5,1.3.8.8,0,0,1,.1.4,16.6,16.6,0,0,1,.3,2.2v.2a3.1,3.1,0,0,1,.5,1.8c.1,2.3-2.4,3.7-4.2,4.3a44.7,44.7,0,0,1-10.8,2,33.1,33.1,0,0,1-4.4.2H88.9L87,42.9h-.1a9.2,9.2,0,0,1-2.3-.9h-.2A4,4,0,0,1,82.9,40c-.1-.2-.1-.5-.2-.8v-.6h0c.1-.1.1-.1.1-.2a1.8,1.8,0,0,1-.4-1,4.3,4.3,0,0,1,.1-.5.8.8,0,0,0,.2-.4,2.6,2.6,0,0,0,.2-1.1,3.9,3.9,0,0,1-.4-.9,2.6,2.6,0,0,1-.1-2.1h.2c-2.1-1.4-.2-4.4,1.5-5.4A24.6,24.6,0,0,1,93,23.8l2.7-.4,4.2-.2m0-3a33.3,33.3,0,0,0-4.6.3l-2.8.4a25.1,25.1,0,0,0-10,3.4,7.9,7.9,0,0,0-3.8,6.2,3.9,3.9,0,0,0,.5,2.4,8.4,8.4,0,0,0,.5,2.9,4.1,4.1,0,0,0-.3,1.6,4.5,4.5,0,0,0,.3,1.6,1.3,1.3,0,0,0,.1.6,4,4,0,0,0,.3,1.5,6.7,6.7,0,0,0,2.7,3.3l.3.2a13.3,13.3,0,0,0,3.2,1.2h.1a9.9,9.9,0,0,0,2.4.3H91l4.6-.2a51.6,51.6,0,0,0,11.6-2.2c4-1.3,6.3-4,6.2-7.2a6.6,6.6,0,0,0-.4-2.3,8.6,8.6,0,0,0-.4-2.4v-.2h0c-.1-.2-.1-.4-.2-.6s.1-.1.1-.2a7.1,7.1,0,0,0-.3-6.2,7.6,7.6,0,0,0-3-2.9c-2-1-6.3-1.4-9.3-1.4Z" style="fill:#ffaa5a"/><path d="M87.9,16.9a.1.1,0,0,1-.1.1,2.2,2.2,0,0,1,.2,1.4v.4a7.5,7.5,0,0,1-.2,2.1c0,.1,0,.1-.1.2a4.2,4.2,0,0,1,.1,1.9c-.4,2.3-3.1,3.1-5,3.3a51.6,51.6,0,0,1-11.1-.4,46.6,46.6,0,0,1-6.3-1.2l-1.8-.6h-.1a6.3,6.3,0,0,1-2-1.3.2.2,0,0,1-.2-.2,3.3,3.3,0,0,1-1.1-2.1v-.8a1.4,1.4,0,0,1,.2-.6c0-.1,0-.2.1-.2a1.4,1.4,0,0,1-.2-1.1c.1-.2.1-.3.2-.4l.3-.4a1.6,1.6,0,0,0,.4-1A3.7,3.7,0,0,0,61,15a2.2,2.2,0,0,1,.4-2.1h.2c-1.7-1.8.8-4.2,2.6-4.9a27.2,27.2,0,0,1,9.4-1l2.7.2c5,.4,10.3,2.3,11.6,3.4a4.3,4.3,0,0,1,1.4,2,4.2,4.2,0,0,1-.6,3.6Z" style="fill:#ffe983"/><path d="M87.8,20.9A15.5,15.5,0,0,1,82,22.3a39.4,39.4,0,0,1-7.7-.5,38.5,38.5,0,0,1-9.9-2.4c-1.2-.5-3.1-.9-3.9-2.1l.3-.4a1.6,1.6,0,0,0,.4-1c.7.8,9.1,3.1,11.4,3.6a42.5,42.5,0,0,0,8.5.6c5.5-.2,6.8-1.3,6.9-1.3A7.5,7.5,0,0,1,87.8,20.9Z" style="fill:#fff2be"/><path d="M88.7,16h0A4.6,4.6,0,0,1,87,17.4c-5.7,2.1-19.3-.8-24.2-3.6a4.6,4.6,0,0,1-1.2-1h0c-1.7-1.8.8-4.2,2.6-4.9a23.5,23.5,0,0,1,9.4-1h.1s-10.1.5-11.5,3.4,2,2.6,2.8,2.8a98.6,98.6,0,0,0,11,2.8,36.4,36.4,0,0,0,8.1.2c5.1-.5,5.2-3.5,5.2-3.6A4.2,4.2,0,0,1,88.7,16Z" style="fill:#ffc74e"/><path d="M87.8,23c-.4,2.3-3.1,3.1-5,3.3a51.6,51.6,0,0,1-11.1-.4,46.6,46.6,0,0,1-6.3-1.2l-1.8-.6h-.1a6.9,6.9,0,0,1-2-1.3.2.2,0,0,1-.2-.2,3.3,3.3,0,0,1-1.1-2.1c.1-.2,0-.5,0-.8a1.4,1.4,0,0,1,.2-.6h0c.1-.2.3.4.3.6.7,2.5,4.5,3.5,6.7,4.2a42.3,42.3,0,0,0,7.1,1.3c10.9,1.3,13.3-2.3,13.3-2.2Z" style="fill:#ffc74e"/><path d="M67,21.2c-.3-.6-.9-.6-1.6-.7a5.5,5.5,0,0,0-1.8-.1c-.2,0-.2.3-.1.4s2.5,2,3.5,1A.4.4,0,0,0,67,21.2Z" style="fill:#ffc74e"/><path d="M70.9,22.5c-.1-.2-.4-.3-.7-.4a1.2,1.2,0,0,0-.8.2.7.7,0,0,0-.2.7c.1.3.4.4.7.5a.8.8,0,0,0,.8,0A.6.6,0,0,0,70.9,22.5Z" style="fill:#ffc74e"/><path d="M75.7,23.5a1.7,1.7,0,0,0-1.6-.6.7.7,0,0,0-.3,1.3c.4.3,1.5.5,1.9-.1S75.9,23.7,75.7,23.5Z" style="fill:#ffc74e"/><path d="M80.1,12.3a2.2,2.2,0,0,0-1.4,0,.7.7,0,0,0-.1,1.1c.5.5,2.1.6,2.2-.4S80.5,12.4,80.1,12.3Z" style="fill:#ffc74e"/><path d="M83.8,10.8a3.7,3.7,0,0,0-2.1-.3c-.7.2-1,1.2-.4,1.6a2.5,2.5,0,0,0,2.5.2A.9.9,0,0,0,83.8,10.8Z" style="fill:#ffc74e"/><path d="M84.3,13.5a.9.9,0,0,0-.6-.3h-.6c-.4.1-.9.4-.8.9s1.2.9,1.8.6S84.8,13.7,84.3,13.5Z" style="fill:#ffc74e"/><path d="M87.7,12.1a.8.8,0,0,0-.2-.8l-.2-.2-.7-.2a1.4,1.4,0,0,0-.9.3.9.9,0,0,0-.3.7,1.1,1.1,0,0,0,.3.7l.8.2h.8A.7.7,0,0,0,87.7,12.1Z" style="fill:#ffc74e"/><path d="M65.8,15.6a2.2,2.2,0,0,0-1.3-.4c-.6,0-1.1.4-1,.9s1.2,1.2,1.9,1.1S66.4,16,65.8,15.6Z" style="fill:#ffc74e"/><path d="M69.2,16.9h-.4a.5.5,0,0,0-.1.8l.3.3c.4.2.8-.2.9-.5S69.6,16.7,69.2,16.9Z" style="fill:#ffc74e"/><path d="M82.6,19.1c-.3-.4-.8-.2-1.3-.2s-1,0-.8.5.7.3,1,.3.9.1,1.1-.3A.2.2,0,0,0,82.6,19.1Z" style="fill:#ffc74e"/><path d="M80.7,23.4H80a.9.9,0,0,0-.7.3c-.2.1-.1.4,0,.5a1.1,1.1,0,0,0,.8.3h.7C81,23.9,81,23.4,80.7,23.4Z" style="fill:#ffc74e"/><path d="M83.5,23a.6.6,0,0,0-1.1-.1c-.2.1-.1.4.1.6h.6A.7.7,0,0,0,83.5,23Z" style="fill:#ffc74e"/><path d="M82.2,24.5a.3.3,0,0,0-.3-.3.4.4,0,0,0-.5.1.4.4,0,0,0-.2.5.6.6,0,0,0,.8.2A.4.4,0,0,0,82.2,24.5Z" style="fill:#ffc74e"/><path d="M85.3,23c-.3,0-.6,0-.7.2a.6.6,0,0,0,0,.6c.1.1.2.2.4.1h.4A.5.5,0,0,0,85.3,23Z" style="fill:#ffc74e"/><path d="M87,18.4a.5.5,0,0,0-.6-.4l-.4.2a.3.3,0,0,0-.1.5.6.6,0,0,0,.8.2C86.9,18.9,87,18.6,87,18.4Z" style="fill:#ffc74e"/><path d="M72.9,17.7a.4.4,0,0,0-.1.8c.3.3,1.1.3,1.1-.3S73.2,17.6,72.9,17.7Z" style="fill:#ffc74e"/><path d="M62.8,14.7a.8.8,0,0,0-.5-.5c-.3-.1-.7.2-.6.5a1,1,0,0,0,.4.7c.2,0,.5,0,.6-.2A.4.4,0,0,0,62.8,14.7Z" style="fill:#ffc74e"/><path d="M72.1,23.4c-.2-.2-.7.1-.7.4a.5.5,0,0,0,.9.2C72.5,23.8,72.4,23.5,72.1,23.4Z" style="fill:#ffc74e"/><path d="M71.2,6.7h2.4l2.7.2c5,.4,10.3,2.3,11.6,3.4a4.3,4.3,0,0,1,1.4,2,4.2,4.2,0,0,1-.6,3.6h-.1a2.7,2.7,0,0,1-.7.8.1.1,0,0,1-.1.1,2.2,2.2,0,0,1,.2,1.4v.4a7.5,7.5,0,0,1-.2,2.1c0,.1,0,.1-.1.2a4.2,4.2,0,0,1,.1,1.9c-.4,2.3-3.1,3.1-5,3.3H78.9a62.3,62.3,0,0,1-7.2-.5,46.6,46.6,0,0,1-6.3-1.2l-1.8-.6h-.1a6.3,6.3,0,0,1-2-1.3.2.2,0,0,1-.2-.2,3.3,3.3,0,0,1-1.1-2.1v-.8a1.4,1.4,0,0,1,.2-.6h0c0-.1,0-.2.1-.2a1.4,1.4,0,0,1-.2-1.1c.1-.2.1-.3.2-.4l.3-.4a1.6,1.6,0,0,0,.4-1A3.7,3.7,0,0,0,61,15a2.2,2.2,0,0,1,.4-2.1h.2c-1.7-1.8.8-4.2,2.6-4.9a20.1,20.1,0,0,1,7-1.1m0-3A22.2,22.2,0,0,0,63.3,5a8.2,8.2,0,0,0-5.2,5.2,4.3,4.3,0,0,0,.1,2.5,7.4,7.4,0,0,0-.2,2.9,3.4,3.4,0,0,0-.6,1.5,4.2,4.2,0,0,0-.1,1.6c0,.2-.1.4-.1.6a9.2,9.2,0,0,0,.1,1.6,6.5,6.5,0,0,0,1.8,3.7l.3.3a12.1,12.1,0,0,0,2.9,1.9h.1l2.3.8a59.5,59.5,0,0,0,6.7,1.3,54.1,54.1,0,0,0,7.5.5,29.5,29.5,0,0,0,4.2-.2c4.3-.4,7.1-2.5,7.7-5.6a8.9,8.9,0,0,0,0-2.3,11.4,11.4,0,0,0,.2-2.5v-.2h0v-.6c.1-.1.1-.1.1-.2h0a7.3,7.3,0,0,0,1.1-6.2,7.6,7.6,0,0,0-2.4-3.4C87.7,6.3,81.6,4.4,76.5,4l-2.7-.2Z" style="fill:#ffaa5a"/><path d="M113,49.1a.1.1,0,0,1-.1.1,3.1,3.1,0,0,1,.6,1.3.6.6,0,0,0,.1.4,15.2,15.2,0,0,1,.3,2.1v.2a4.9,4.9,0,0,1,.5,1.8c.2,2.4-2.2,3.8-4,4.5a48.4,48.4,0,0,1-10.8,2.4,46.8,46.8,0,0,1-6.4.4h-2a9,9,0,0,1-2.3-.8h-.3a3.8,3.8,0,0,1-1.5-1.8,1.9,1.9,0,0,1-.2-.8.6.6,0,0,1,0-.6v-.2a1.8,1.8,0,0,1-.4-1,.7.7,0,0,1,.1-.5c0-.1.1-.3.1-.4a1.5,1.5,0,0,0,.1-1.1c0-.3-.2-.5-.4-.9a2.6,2.6,0,0,1-.1-2.1.1.1,0,0,0,.1-.1h0c-2.1-1.4-.3-4.4,1.4-5.5A24,24,0,0,1,96.6,43l2.6-.5c4.9-.9,10.5-.4,12.1.3a4.4,4.4,0,0,1,1.9,1.6,4.3,4.3,0,0,1,.3,3.7A4.7,4.7,0,0,1,113,49.1Z" style="fill:#ffa4b6"/><path d="M113.9,53a14.9,14.9,0,0,1-5.3,2.8,33,33,0,0,1-7.6,1.5,42,42,0,0,1-10.1.2c-1.4-.2-3.3-.1-4.3-1.1s.1-.3.1-.4a1.5,1.5,0,0,0,.1-1.1c1,.6,9.7.7,12,.6a40.4,40.4,0,0,0,8.4-1.6c5.3-1.5,6.3-3,6.4-3A15.2,15.2,0,0,1,113.9,53Z" style="fill:#d4465a"/><path d="M113.5,48.1h0a3.7,3.7,0,0,1-1.3,1.7c-5,3.5-18.9,4.1-24.3,2.7l-1.5-.7h0c-2.1-1.4-.3-4.4,1.4-5.5A21.3,21.3,0,0,1,96.6,43a.1.1,0,0,0,.1-.1c0,.1-9.7,3-10.2,6.2-.3,1.5,2.5,2,3.4,2a108.4,108.4,0,0,0,11.3-.1,26.8,26.8,0,0,0,7.8-1.8c4.9-1.8,4.2-4.7,4.2-4.8A4.3,4.3,0,0,1,113.5,48.1Z" style="fill:#f48096"/><path d="M114.4,55c.2,2.4-2.2,3.8-4,4.5a48.4,48.4,0,0,1-10.8,2.4,46.8,46.8,0,0,1-6.4.4h-2a9,9,0,0,1-2.3-.8h-.3a3.8,3.8,0,0,1-1.5-1.8c0-.2-.2-.5-.2-.8a.6.6,0,0,1,0-.6h0c0-.2.4.3.5.5,1.3,2.3,5.2,2.3,7.5,2.4a33.5,33.5,0,0,0,7.1-.6c11-1.5,12.4-5.5,12.4-5.4Z" style="fill:#f48096"/><path d="M93.9,58.5a2.8,2.8,0,0,0-1.8-.3,4.8,4.8,0,0,0-1.7.5c-.2,0-.2.3-.1.4s3,1.3,3.7.1A.6.6,0,0,0,93.9,58.5Z" style="fill:#f48096"/><path d="M98,58.9a.7.7,0,0,0-.8-.2c-.3,0-.6,0-.7.3a.6.6,0,0,0,0,.8.8.8,0,0,0,.7.3,1.1,1.1,0,0,0,.8-.2A.7.7,0,0,0,98,58.9Z" style="fill:#f48096"/><path d="M102.8,58.6a1.6,1.6,0,0,0-1.6-.2.7.7,0,0,0,0,1.3,1.4,1.4,0,0,0,1.8-.5A.5.5,0,0,0,102.8,58.6Z" style="fill:#f48096"/><path d="M104.2,46.6a2.2,2.2,0,0,0-1.3.4.7.7,0,0,0,.2,1.1c.6.3,2.2,0,2-.9A.9.9,0,0,0,104.2,46.6Z" style="fill:#f48096"/><path d="M107.4,44.3a3.5,3.5,0,0,0-2,.2.9.9,0,0,0,0,1.7,2.6,2.6,0,0,0,2.4-.5A.8.8,0,0,0,107.4,44.3Z" style="fill:#f48096"/><path d="M108.6,46.7h-1.2a.9.9,0,0,0-.5,1.2c.4.7,1.3.5,1.9.1A.8.8,0,0,0,108.6,46.7Z" style="fill:#f48096"/><path d="M111.6,44.5a.8.8,0,0,0-.4-.7h-.3a.8.8,0,0,0-.7,0,1.2,1.2,0,0,0-.8.4,1.1,1.1,0,0,0-.1.8.7.7,0,0,0,.5.6c.2.1.5,0,.8,0l.5-.2.2-.2A.9.9,0,0,0,111.6,44.5Z" style="fill:#f48096"/><path d="M91.2,53.4a2.9,2.9,0,0,0-1.3,0c-.5.1-1,.6-.8,1.1s1.5.8,2.2.6S91.9,53.7,91.2,53.4Z" style="fill:#f48096"/><path d="M94.8,53.8l-.3.3a.6.6,0,0,0,.1.8H95c.4.1.7-.3.7-.7A.7.7,0,0,0,94.8,53.8Z" style="fill:#f48096"/><path d="M108.4,52.6c-.4-.3-.9,0-1.3.1s-1,.3-.7.7.8.2,1.1.1.9-.2,1-.6A.4.4,0,0,0,108.4,52.6Z" style="fill:#f48096"/><path d="M107.6,57.2h-.7c-.3.1-.5.2-.6.5s0,.4.1.5a1,1,0,0,0,.9,0h.3l.2-.2a.1.1,0,0,0,.1-.1C108.1,57.6,108,57.2,107.6,57.2Z" style="fill:#f48096"/><path d="M110.2,56.1a.4.4,0,0,0-.6-.2,1,1,0,0,0-.5.4.5.5,0,0,0,.3.5.6.6,0,0,0,.6,0A.5.5,0,0,0,110.2,56.1Z" style="fill:#f48096"/><path d="M109.4,57.9l-.4-.2-.5.2c-.1.2-.2.4,0,.5a.8.8,0,0,0,.8.1A.7.7,0,0,0,109.4,57.9Z" style="fill:#f48096"/><path d="M112,55.7a.5.5,0,0,0-.6.4.3.3,0,0,0,.1.5h.5l.3-.2A.5.5,0,0,0,112,55.7Z" style="fill:#f48096"/><path d="M112.4,50.8a.5.5,0,0,0-.6-.2c-.1.1-.3.1-.3.3s-.1.4,0,.5a.6.6,0,0,0,.8,0C112.5,51.3,112.5,51,112.4,50.8Z" style="fill:#f48096"/><path d="M98.6,53.7a.5.5,0,0,0,.1.8c.4.2,1.2,0,1.1-.6S98.9,53.5,98.6,53.7Z" style="fill:#f48096"/><path d="M88.1,53.3a.5.5,0,0,0-.5-.3.5.5,0,0,0-.6.7c.2.2.4.4.6.4s.5-.1.6-.2A.7.7,0,0,0,88.1,53.3Z" style="fill:#f48096"/><path d="M99.4,59.4c-.4-.1-.8.2-.6.6s.7.4.9,0S99.6,59.4,99.4,59.4Z" style="fill:#f48096"/><path d="M104.9,42a21.1,21.1,0,0,1,6.4.8,4.4,4.4,0,0,1,1.9,1.6,4.3,4.3,0,0,1,.3,3.7h0l-.5.9a.1.1,0,0,1-.1.1,3.1,3.1,0,0,1,.6,1.3.6.6,0,0,0,.1.4,15.2,15.2,0,0,1,.3,2.1v.2a4.9,4.9,0,0,1,.5,1.8c.2,2.4-2.2,3.8-4,4.5a48.4,48.4,0,0,1-10.8,2.4,46.8,46.8,0,0,1-6.4.4h-2a9,9,0,0,1-2.3-.8h-.3a3.8,3.8,0,0,1-1.5-1.8,1.9,1.9,0,0,1-.2-.8.6.6,0,0,1,0-.6h0v-.2a1.8,1.8,0,0,1-.4-1,.7.7,0,0,1,.1-.5c0-.1.1-.3.1-.4a1.5,1.5,0,0,0,.1-1.1c0-.3-.2-.5-.4-.9a2.6,2.6,0,0,1-.1-2.1.1.1,0,0,0,.1-.1h0c-2.1-1.4-.3-4.4,1.4-5.5A21.3,21.3,0,0,1,96.6,43l2.6-.5a27.5,27.5,0,0,1,5.7-.5m0-3a39.9,39.9,0,0,0-6.2.5L96,40c-4.3.9-7.1,1.9-9.9,3.8s-3.7,3.7-3.6,6.3a4.8,4.8,0,0,0,.6,2.4,8.3,8.3,0,0,0,.6,2.9,7.8,7.8,0,0,0-.2,1.6,4.5,4.5,0,0,0,.3,1.6c0,.2.1.4.1.6a8.3,8.3,0,0,0,.4,1.5,7.9,7.9,0,0,0,2.8,3.2l.4.2a10.3,10.3,0,0,0,3.1,1h.1a9.3,9.3,0,0,0,2.3.2h.2a44.4,44.4,0,0,0,6.8-.4,52.9,52.9,0,0,0,11.5-2.6c4-1.5,6.1-4.2,5.9-7.4a5.9,5.9,0,0,0-.5-2.3,15,15,0,0,0-.4-2.4v-.3h0a1.4,1.4,0,0,0-.2-.6c.1-.1.1-.1.1-.2a6.8,6.8,0,0,0-.6-6.2,7.1,7.1,0,0,0-3.1-2.8c-2.1-1-6.5-1.1-7.7-1.1Z" style="fill:#e75c78"/><path d="M39.3,51.1a.1.1,0,0,1,.1.1,2.9,2.9,0,0,0-.5,1.3.6.6,0,0,0-.1.4,7.1,7.1,0,0,0-.4,2.1v.2a4.9,4.9,0,0,0-.5,1.8c-.2,2.4,2.2,3.8,4,4.4a45.7,45.7,0,0,0,10.8,2.5,47.3,47.3,0,0,0,6.5.4h1.9a9.7,9.7,0,0,0,2.4-.8h.2a3.8,3.8,0,0,0,1.5-1.8l.3-.8v-.6a.4.4,0,0,0-.1-.3,1.1,1.1,0,0,0,.4-.9c.1-.2,0-.4,0-.5s-.2-.3-.2-.5a1.2,1.2,0,0,1-.1-1l.4-.9a2.2,2.2,0,0,0,.1-2.1c0-.1-.1-.1-.1-.2h0c2.1-1.3.3-4.3-1.4-5.4a26,26,0,0,0-8.8-3.4l-2.6-.5c-4.9-.8-10.5-.4-12.1.4a4.4,4.4,0,0,0-1.9,1.6,4.5,4.5,0,0,0-.3,3.6A11.7,11.7,0,0,0,39.3,51.1Z" style="fill:#ffa4b6"/><path d="M38.4,55a15.8,15.8,0,0,0,5.3,2.8,39.3,39.3,0,0,0,7.6,1.5,43.1,43.1,0,0,0,10.2.1c1.3-.1,3.2-.1,4.3-1s-.2-.3-.2-.5a1.2,1.2,0,0,1-.1-1c-1,.6-9.7.7-12,.5a40.9,40.9,0,0,1-8.3-1.5c-5.3-1.6-6.3-3-6.4-3A7.1,7.1,0,0,0,38.4,55Z" style="fill:#d4465a"/><path d="M38.8,50h0a3.7,3.7,0,0,0,1.3,1.7c5,3.5,18.9,4.1,24.3,2.7l1.5-.8h0c2.1-1.3.3-4.3-1.4-5.4a22.8,22.8,0,0,0-8.8-3.4h-.1c0,.1,9.7,3,10.3,6.2.2,1.5-2.6,2-3.4,2A110.4,110.4,0,0,1,51.1,53a36.6,36.6,0,0,1-7.8-1.8c-4.8-1.8-4.1-4.8-4.2-4.8A4.5,4.5,0,0,0,38.8,50Z" style="fill:#f48096"/><path d="M37.9,57c-.2,2.4,2.2,3.8,4,4.4a45.7,45.7,0,0,0,10.8,2.5,47.3,47.3,0,0,0,6.5.4h1.9a8.5,8.5,0,0,0,2.4-.8h.2a3.8,3.8,0,0,0,1.5-1.8l.3-.8v-.6h0c-.1-.2-.5.3-.5.5-1.3,2.2-5.2,2.3-7.6,2.4a56.7,56.7,0,0,1-7.1-.6C39.3,60.9,38,56.9,37.9,57Z" style="fill:#f48096"/><path d="M58.5,60.5c.5-.5,1-.4,1.7-.3l1.8.4c.2.1.2.3,0,.5s-2.9,1.3-3.6,0S58.3,60.7,58.5,60.5Z" style="fill:#f48096"/><path d="M54.4,60.8a1.1,1.1,0,0,1,.8-.2.9.9,0,0,1,.7.4.9.9,0,0,1,0,.7c-.2.3-.5.3-.8.4a1.2,1.2,0,0,1-.8-.2A.7.7,0,0,1,54.4,60.8Z" style="fill:#f48096"/><path d="M49.5,60.5a1.7,1.7,0,0,1,1.7-.1.8.8,0,0,1,0,1.3c-.5.2-1.6.1-1.8-.5A.5.5,0,0,1,49.5,60.5Z" style="fill:#f48096"/><path d="M48.1,48.6a2.8,2.8,0,0,1,1.3.3.7.7,0,0,1-.2,1.2c-.6.3-2.1,0-2-.9S47.7,48.6,48.1,48.6Z" style="fill:#f48096"/><path d="M44.9,46.3a3.1,3.1,0,0,1,2.1.2.9.9,0,0,1-.1,1.6,2.6,2.6,0,0,1-2.4-.4A.8.8,0,0,1,44.9,46.3Z" style="fill:#f48096"/><path d="M43.7,48.7h1.2c.4.2.8.7.6,1.1s-1.4.5-2,.1A.7.7,0,0,1,43.7,48.7Z" style="fill:#f48096"/><path d="M40.7,46.5a.8.8,0,0,1,.5-.7h.9c.3.1.7.2.8.5a.8.8,0,0,1-.3,1.3h-.8c-.2-.1-.4-.1-.6-.3s-.1-.1-.2-.2A.5.5,0,0,1,40.7,46.5Z" style="fill:#f48096"/><path d="M61.1,55.4a3.3,3.3,0,0,1,1.4,0,.9.9,0,0,1,.7,1.1c-.3.8-1.5.8-2.1.6S60.4,55.7,61.1,55.4Z" style="fill:#f48096"/><path d="M57.5,55.8c.1.1.2.1.3.3a.4.4,0,0,1-.1.7.5.5,0,0,1-.4.2c-.4.1-.7-.4-.7-.7S57.2,55.6,57.5,55.8Z" style="fill:#f48096"/><path d="M43.9,54.6c.5-.3.9-.1,1.4.1s.9.3.6.7-.7.1-1.1.1a1.3,1.3,0,0,1-1-.6C43.8,54.8,43.8,54.6,43.9,54.6Z" style="fill:#f48096"/><path d="M44.7,59.2H45l.4.2a.9.9,0,0,1,.6.4.4.4,0,0,1-.1.5,1,1,0,0,1-.9.1h-.2l-.3-.2c0-.1,0-.1-.1-.2S44.4,59.2,44.7,59.2Z" style="fill:#f48096"/><path d="M42.1,58.1a.5.5,0,0,1,.6-.2.5.5,0,0,1,.5.3.4.4,0,0,1-.3.6.6.6,0,0,1-.6,0A.6.6,0,0,1,42.1,58.1Z" style="fill:#f48096"/><path d="M42.9,59.9a.4.4,0,0,1,.5-.2.5.5,0,0,1,.4.2.3.3,0,0,1,0,.5.6.6,0,0,1-.8,0A.4.4,0,0,1,42.9,59.9Z" style="fill:#f48096"/><path d="M40.4,57.7c.2,0,.5.1.5.4a.3.3,0,0,1-.1.5c-.1,0-.3.1-.4,0H40A.5.5,0,0,1,40.4,57.7Z" style="fill:#f48096"/><path d="M39.9,52.7c.1-.1.4-.3.6-.2l.4.3a.5.5,0,0,1-.1.6c-.2.2-.5.1-.8,0A.6.6,0,0,1,39.9,52.7Z" style="fill:#f48096"/><path d="M53.7,55.7c.3.2.2.6-.1.8s-1.1-.1-1.1-.6S53.4,55.5,53.7,55.7Z" style="fill:#f48096"/><path d="M64.2,55.3c.1-.2.4-.3.6-.4s.7.4.5.7-.3.4-.6.5a.5.5,0,0,1-.5-.3A.4.4,0,0,1,64.2,55.3Z" style="fill:#f48096"/><path d="M53,61.3a.6.6,0,0,1,.6.7.6.6,0,0,1-1-.1C52.5,61.7,52.7,61.4,53,61.3Z" style="fill:#f48096"/><path d="M47.5,44a35.2,35.2,0,0,1,5.6.4l2.6.5a22.8,22.8,0,0,1,8.8,3.4c1.7,1.1,3.5,4.1,1.4,5.4h0c0,.1.1.1.1.2a2.2,2.2,0,0,1-.1,2.1l-.4.9a1.2,1.2,0,0,0,.1,1c0,.2.1.3.2.5s.1.3,0,.5a1.1,1.1,0,0,1-.4.9.4.4,0,0,1,.1.3h0v.6l-.3.8a3.8,3.8,0,0,1-1.5,1.8h-.2a9.7,9.7,0,0,1-2.4.8H59.2a47.3,47.3,0,0,1-6.5-.4,45.7,45.7,0,0,1-10.8-2.5c-1.8-.6-4.2-2-4-4.4a4.9,4.9,0,0,1,.5-1.8V55a7.1,7.1,0,0,1,.4-2.1.6.6,0,0,1,.1-.4,2.9,2.9,0,0,1,.5-1.3.1.1,0,0,0-.1-.1,3,3,0,0,1-.4-1h-.1a4.5,4.5,0,0,1,.3-3.6A4.4,4.4,0,0,1,41,44.8c1-.5,3.5-.8,6.5-.8m0-3h0c-1.3,0-5.6.1-7.8,1.1a7,7,0,0,0-3.1,2.8A6.8,6.8,0,0,0,36,51h0v.2c-.1.1-.1.4-.2.6h0v.3a12.5,12.5,0,0,0-.5,2.4,5.9,5.9,0,0,0-.5,2.2c-.2,3.2,2,6,6,7.4a46.1,46.1,0,0,0,11.4,2.7,62.3,62.3,0,0,0,6.8.4h.2l2.3-.2h.1A12.1,12.1,0,0,0,64.9,66l.4-.2A6.6,6.6,0,0,0,68,62.6a5.7,5.7,0,0,0,.4-1.4,1.7,1.7,0,0,0,.1-.7,4,4,0,0,0,.3-1.5,3.3,3.3,0,0,0-.2-1.7,5.8,5.8,0,0,0,.6-2.8,6.1,6.1,0,0,0,.7-2.4,8.3,8.3,0,0,0-3.7-6.3A24.2,24.2,0,0,0,56.4,42l-2.8-.5a30.2,30.2,0,0,0-6.1-.5Z" style="fill:#e75c78"/><path d="M65.5,34.7h.1a3.2,3.2,0,0,0-.3,1.4v.4a7.8,7.8,0,0,0,.2,2.1v.2a6.2,6.2,0,0,0-.1,1.9c.4,2.3,3.1,3.1,5,3.3A45.9,45.9,0,0,0,81.5,44a46.2,46.2,0,0,0,6.3-1.1l1.9-.6h0A5.7,5.7,0,0,0,91.8,41c.1,0,.1-.1.2-.2a4,4,0,0,0,1.1-2v-.9c0-.2-.1-.4-.1-.6s-.1-.1-.1-.2A2,2,0,0,0,93,36a.8.8,0,0,0-.2-.4c0-.1-.1-.2-.2-.4a1.6,1.6,0,0,1-.4-1,3.7,3.7,0,0,1,.2-.9,2.2,2.2,0,0,0-.4-2.1h-.1c1.7-1.8-.7-4.3-2.6-5A24.3,24.3,0,0,0,80,24.9H77.3c-5,.3-10.3,2.1-11.7,3.2a4.3,4.3,0,0,0-1.4,2,4.2,4.2,0,0,0,.5,3.6Z" style="fill:#ffa4b6"/><path d="M65.5,38.7a13.8,13.8,0,0,0,5.8,1.4,33.1,33.1,0,0,0,7.7-.2,43.9,43.9,0,0,0,9.9-2.3c1.3-.4,3.1-.8,3.9-2s-.1-.2-.2-.4a1.6,1.6,0,0,1-.4-1c-.7.8-9.2,3-11.4,3.3a43.4,43.4,0,0,1-8.6.5c-5.5-.3-6.8-1.4-6.9-1.4A7.8,7.8,0,0,0,65.5,38.7Z" style="fill:#d4465a"/><path d="M64.7,33.8h0a3.9,3.9,0,0,0,1.7,1.4c5.7,2.2,19.3-.4,24.3-3.1l1.2-1h0c1.7-1.8-.7-4.3-2.6-5A21.1,21.1,0,0,0,80,24.9h-.1s10.1.6,11.4,3.6c.6,1.4-2.1,2.5-2.9,2.7a91.4,91.4,0,0,1-11,2.6,31.4,31.4,0,0,1-8.1,0c-5.1-.6-5.1-3.6-5.1-3.6A4.2,4.2,0,0,0,64.7,33.8Z" style="fill:#f48096"/><path d="M65.4,40.8c.4,2.3,3.1,3.1,5,3.3A45.9,45.9,0,0,0,81.5,44a46.2,46.2,0,0,0,6.3-1.1l1.9-.6h0A7.4,7.4,0,0,0,91.8,41c.1,0,.1-.1.2-.2a4,4,0,0,0,1.1-2c-.1-.2,0-.6,0-.9a1.3,1.3,0,0,0-.1-.6h0c-.1-.1-.4.5-.4.6-.8,2.5-4.5,3.5-6.8,4.1a42.4,42.4,0,0,1-7,1.1c-11.1,1.1-13.3-2.5-13.4-2.4Z" style="fill:#f48096"/><path d="M86.2,39.4c.4-.6,1-.6,1.7-.7a5.4,5.4,0,0,1,1.8,0c.2,0,.2.2.1.4s-2.5,1.9-3.5.9A.5.5,0,0,1,86.2,39.4Z" style="fill:#f48096"/><path d="M82.3,40.6a1.1,1.1,0,0,1,.8-.3.6.6,0,0,1,.7.1.6.6,0,0,1,.2.8c-.1.3-.4.4-.6.5s-.6.1-.8-.1A.7.7,0,0,1,82.3,40.6Z" style="fill:#f48096"/><path d="M77.5,41.5a1.7,1.7,0,0,1,1.6-.5.7.7,0,0,1,.3,1.2c-.4.4-1.5.5-1.8,0S77.4,41.7,77.5,41.5Z" style="fill:#f48096"/><path d="M73.4,30.2h1.3a.7.7,0,0,1,.1,1.2c-.5.4-2.1.5-2.1-.4A.8.8,0,0,1,73.4,30.2Z" style="fill:#f48096"/><path d="M69.7,28.7a3.7,3.7,0,0,1,2.1-.3c.7.2,1,1.2.4,1.6a2.5,2.5,0,0,1-2.5.1A.8.8,0,0,1,69.7,28.7Z" style="fill:#f48096"/><path d="M69.2,31.3l.5-.2c.2,0,.4-.1.6,0s1,.4.8.9-1.2.8-1.8.6A.8.8,0,0,1,69.2,31.3Z" style="fill:#f48096"/><path d="M65.7,29.9a1.1,1.1,0,0,1,.3-.8l.2-.2.7-.2a1.4,1.4,0,0,1,.9.3.9.9,0,0,1,.3.7.8.8,0,0,1-.4.7l-.7.2h-.8A.8.8,0,0,1,65.7,29.9Z" style="fill:#f48096"/><path d="M87.6,33.8a3.1,3.1,0,0,1,1.3-.3.8.8,0,0,1,1,.9c-.1.8-1.2,1.1-1.9,1.1A1,1,0,0,1,87.6,33.8Z" style="fill:#f48096"/><path d="M84.2,35l.4.2a.6.6,0,0,1,.1.8l-.4.2a.6.6,0,0,1-.8-.5C83.5,35.3,83.8,34.9,84.2,35Z" style="fill:#f48096"/><path d="M70.7,37a1.4,1.4,0,0,1,1.4-.2c.2,0,1,.1.8.5s-.7.3-1.1.3-.8.1-1.1-.3S70.6,37.1,70.7,37Z" style="fill:#f48096"/><path d="M72.5,41.3h.8a.9.9,0,0,1,.7.3.5.5,0,0,1,0,.5,1,1,0,0,1-.9.3h-.3c-.1,0-.2,0-.2-.1h-.2A.4.4,0,0,1,72.5,41.3Z" style="fill:#f48096"/><path d="M69.8,40.9c0-.3.3-.4.5-.4a1.1,1.1,0,0,1,.6.2.6.6,0,0,1-.1.6.5.5,0,0,1-.6.1C69.9,41.4,69.7,41.1,69.8,40.9Z" style="fill:#f48096"/><path d="M71,42.4c0-.2.2-.3.4-.3s.3,0,.4.1a.4.4,0,0,1,.2.5.6.6,0,0,1-.8.2A.8.8,0,0,1,71,42.4Z" style="fill:#f48096"/><path d="M68,40.8c.2,0,.5,0,.6.3s.2.4,0,.5a.5.5,0,0,1-.4.2h-.3A.5.5,0,0,1,68,40.8Z" style="fill:#f48096"/><path d="M66.4,36.1a.5.5,0,0,1,.5-.3l.5.2a.6.6,0,0,1,0,.6c-.1.2-.5.2-.7.1S66.3,36.4,66.4,36.1Z" style="fill:#f48096"/><path d="M80.5,35.8c.4.1.3.6.1.8s-1.1.2-1.2-.3S80.1,35.6,80.5,35.8Z" style="fill:#f48096"/><path d="M90.6,32.9a1,1,0,0,1,.5-.4.6.6,0,0,1,.7.5,1,1,0,0,1-.5.6c-.2.1-.5.1-.6-.1A.7.7,0,0,1,90.6,32.9Z" style="fill:#f48096"/><path d="M81.1,41.5c.3-.2.8.1.7.4s-.6.6-.9.2S80.9,41.6,81.1,41.5Z" style="fill:#f48096"/><path d="M81.7,24.8a20.6,20.6,0,0,1,7.6,1.3c1.9.7,4.3,3.2,2.6,5H92a2.2,2.2,0,0,1,.4,2.1,3.7,3.7,0,0,0-.2.9,1.6,1.6,0,0,0,.4,1c.1.2.2.3.2.4a.8.8,0,0,1,.2.4,2,2,0,0,1-.1,1.1c0,.1,0,.2.1.2h0a1.3,1.3,0,0,1,.1.6v.9a4,4,0,0,1-1.1,2c-.1.1-.1.2-.2.2a5.7,5.7,0,0,1-2.1,1.3h0l-1.9.6A46.2,46.2,0,0,1,81.5,44a47.8,47.8,0,0,1-6.4.4l-4.7-.3c-1.9-.2-4.6-1-5-3.3a6.2,6.2,0,0,1,.1-1.9v-.2a7.8,7.8,0,0,1-.2-2.1v-.4a3.2,3.2,0,0,1,.3-1.4h-.1l-.7-.9h-.1a4.2,4.2,0,0,1-.5-3.6,4.3,4.3,0,0,1,1.4-2c1.4-1.1,6.7-2.9,11.7-3.2h4.4m0-3H77.1c-5.1.3-11.2,2.1-13.4,3.8a7.6,7.6,0,0,0-2.4,3.5,7.1,7.1,0,0,0,.9,6.1h0c.1,0,.1,0,.1.1v.6h0v.2a11.4,11.4,0,0,0,.2,2.5,4.5,4.5,0,0,0,0,2.3c.5,3.2,3.3,5.3,7.5,5.8a43.6,43.6,0,0,0,5.1.3,59.2,59.2,0,0,0,6.7-.4,65,65,0,0,0,6.7-1.2l2.3-.7a.1.1,0,0,0,.1-.1,9.2,9.2,0,0,0,2.9-1.7l.3-.3A6.6,6.6,0,0,0,96,39.2a7.6,7.6,0,0,0,.1-1.5,1.3,1.3,0,0,0-.1-.6,4.3,4.3,0,0,0,0-1.6,4.4,4.4,0,0,0-.6-1.6,7.2,7.2,0,0,0-.1-2.9,4.8,4.8,0,0,0,.1-2.4,8,8,0,0,0-5-5.3,24.5,24.5,0,0,0-8.7-1.5Z" style="fill:#e75c78"/><path d="M21.8,30.1h.1a2.6,2.6,0,0,0-.6,1.3c0,.1-.1.2-.1.4a7.1,7.1,0,0,0-.3,2.1v.2a4.3,4.3,0,0,0-.6,1.8c-.1,2.3,2.3,3.7,4.1,4.4a43.5,43.5,0,0,0,10.8,2.5,44.9,44.9,0,0,0,6.4.4l1.9-.2h.1a6.2,6.2,0,0,0,2.3-.7l.3-.2a4.1,4.1,0,0,0,1.5-1.7,3.1,3.1,0,0,0,.2-.8v-.9a1.5,1.5,0,0,0,.4-1c0-.2,0-.3-.1-.4s-.1-.3-.2-.5a2.2,2.2,0,0,1-.1-1.1,2.9,2.9,0,0,0,.4-.8,2.6,2.6,0,0,0,.2-2.1v-.2h-.1c2.2-1.3.4-4.3-1.3-5.4a26.9,26.9,0,0,0-8.8-3.4l-2.6-.5c-5-.8-10.6-.4-12.2.4a4.7,4.7,0,0,0-1.8,1.6,3.8,3.8,0,0,0-.3,3.6A5.4,5.4,0,0,0,21.8,30.1Z" style="fill:#ffa4b6"/><path d="M20.9,34a12.7,12.7,0,0,0,5.3,2.7,32.1,32.1,0,0,0,7.6,1.6,42.3,42.3,0,0,0,10.1.1c1.4-.1,3.2-.1,4.3-1s-.1-.3-.2-.5a2.2,2.2,0,0,1-.1-1.1c-.9.7-9.6.8-11.9.6a40.6,40.6,0,0,1-8.4-1.5c-5.3-1.6-6.3-3-6.4-3A7.1,7.1,0,0,0,20.9,34Z" style="fill:#d4465a"/><path d="M21.3,29h0a3.2,3.2,0,0,0,1.2,1.8c5.1,3.5,18.9,4.1,24.4,2.6l1.5-.7h-.1c2.2-1.3.4-4.3-1.3-5.4a24.2,24.2,0,0,0-8.8-3.4h-.1s9.7,3,10.2,6.2c.3,1.5-2.5,1.9-3.4,2A108.4,108.4,0,0,1,33.6,32a31.4,31.4,0,0,1-7.9-1.9c-4.8-1.8-4.1-4.7-4.1-4.7A3.8,3.8,0,0,0,21.3,29Z" style="fill:#f48096"/><path d="M20.3,36c-.1,2.3,2.3,3.7,4.1,4.4a43.5,43.5,0,0,0,10.8,2.5,44.9,44.9,0,0,0,6.4.4l1.9-.2h.1a8.8,8.8,0,0,0,2.3-.7l.3-.2a4.1,4.1,0,0,0,1.5-1.7,3.1,3.1,0,0,1,.2-.8q.1-.5,0-.6h0c0-.2-.4.3-.5.4-1.3,2.3-5.2,2.4-7.5,2.4a41.7,41.7,0,0,1-7.1-.5c-11-1.5-12.4-5.5-12.4-5.5A.1.1,0,0,1,20.3,36Z" style="fill:#f48096"/><path d="M40.9,39.5a1.7,1.7,0,0,1,1.7-.3l1.8.4a.2.2,0,0,1,.1.4c-.9.8-3,1.3-3.7.1A.5.5,0,0,1,40.9,39.5Z" style="fill:#f48096"/><path d="M36.8,39.8a1.1,1.1,0,0,1,.8-.2.9.9,0,0,1,.7.3.6.6,0,0,1,0,.8c-.2.3-.4.3-.7.3a.8.8,0,0,1-.8-.2A.7.7,0,0,1,36.8,39.8Z" style="fill:#f48096"/><path d="M32,39.5c.3-.4,1.2-.3,1.6-.1a.7.7,0,0,1,0,1.3c-.5.2-1.6.1-1.8-.5S31.8,39.7,32,39.5Z" style="fill:#f48096"/><path d="M30.5,27.6a2.5,2.5,0,0,1,1.3.3.7.7,0,0,1-.1,1.2c-.6.3-2.2,0-2-1S30.2,27.6,30.5,27.6Z" style="fill:#f48096"/><path d="M27.4,25.3a2.8,2.8,0,0,1,2,.2.9.9,0,0,1,0,1.6,2.3,2.3,0,0,1-2.4-.5C26.4,26.2,26.7,25.4,27.4,25.3Z" style="fill:#f48096"/><path d="M26.2,27.7a.7.7,0,0,1,.6-.1h.5c.4.2.9.6.6,1.1s-1.4.5-1.9.1S25.6,27.8,26.2,27.7Z" style="fill:#f48096"/><path d="M23.2,25.5a.8.8,0,0,1,.4-.7h.2a1.1,1.1,0,0,1,.8-.1,1.4,1.4,0,0,1,.8.5,1.1,1.1,0,0,1,.1.8.8.8,0,0,1-.5.5,1.1,1.1,0,0,1-.8,0l-.5-.2a.2.2,0,0,1-.2-.2A.5.5,0,0,1,23.2,25.5Z" style="fill:#f48096"/><path d="M43.5,34.4a2.2,2.2,0,0,1,1.4,0c.5.1,1,.6.8,1.1s-1.5.8-2.2.6A1,1,0,0,1,43.5,34.4Z" style="fill:#f48096"/><path d="M40,34.8l.3.2a.6.6,0,0,1-.1.8l-.4.2a.6.6,0,1,1,.2-1.2Z" style="fill:#f48096"/><path d="M26.4,33.5a1.5,1.5,0,0,1,1.3.2c.2,0,1,.3.7.7s-.8.1-1.1,0-.9-.1-1-.6A.4.4,0,0,1,26.4,33.5Z" style="fill:#f48096"/><path d="M27.1,38.1h.4l.4.2c.3,0,.4.1.6.4a.4.4,0,0,1-.2.5.8.8,0,0,1-.8.1l-.3-.2H27c-.1-.1-.1-.1-.1-.2A.4.4,0,0,1,27.1,38.1Z" style="fill:#f48096"/><path d="M24.5,37.1c.2-.3.4-.3.7-.3a.8.8,0,0,1,.4.4.4.4,0,0,1-.2.6.7.7,0,0,1-.6-.1C24.6,37.6,24.4,37.3,24.5,37.1Z" style="fill:#f48096"/><path d="M25.4,38.9c0-.2.2-.3.4-.3l.5.2a.5.5,0,0,1-.1.6.5.5,0,0,1-.7,0C25.3,39.3,25.3,39.1,25.4,38.9Z" style="fill:#f48096"/><path d="M22.8,36.7a.6.6,0,0,1,.6.3.7.7,0,0,1-.1.5c-.2.1-.3.2-.5.1l-.3-.2C22.1,37.2,22.4,36.6,22.8,36.7Z" style="fill:#f48096"/><path d="M22.4,31.7a.4.4,0,0,1,.6-.2l.3.3c.2.2.1.4,0,.6a.8.8,0,0,1-.8,0A.5.5,0,0,1,22.4,31.7Z" style="fill:#f48096"/><path d="M36.2,34.7c.3.2.2.6-.2.8s-1.1-.1-1-.6S35.8,34.4,36.2,34.7Z" style="fill:#f48096"/><path d="M46.7,34.2a.9.9,0,0,1,.5-.3c.4,0,.7.4.5.7s-.3.4-.6.5a.5.5,0,0,1-.5-.3A.5.5,0,0,1,46.7,34.2Z" style="fill:#f48096"/><path d="M35.4,40.3c.3,0,.7.3.6.6a.5.5,0,0,1-.9,0A.5.5,0,0,1,35.4,40.3Z" style="fill:#f48096"/><path d="M29.9,23a37.3,37.3,0,0,1,5.7.4l2.6.5A24.2,24.2,0,0,1,47,27.3c1.7,1.1,3.5,4.1,1.3,5.4h.1v.2a2.6,2.6,0,0,1-.2,2.1,2.9,2.9,0,0,1-.4.8,2.2,2.2,0,0,0,.1,1.1c.1.2.2.3.2.5s.1.2.1.4a1.5,1.5,0,0,1-.4,1v.3h0q.1.1,0,.6a3.1,3.1,0,0,1-.2.8,4.1,4.1,0,0,1-1.5,1.7l-.3.2a6.2,6.2,0,0,1-2.3.7h-.1l-1.7.2h-.2a44.9,44.9,0,0,1-6.4-.4,43.5,43.5,0,0,1-10.8-2.5c-1.8-.7-4.2-2.1-4.1-4.4a4.3,4.3,0,0,1,.6-1.8V34a7.1,7.1,0,0,1,.3-2.1c0-.2.1-.3.1-.4a2.6,2.6,0,0,1,.6-1.3h-.1a4.7,4.7,0,0,1-.5-1h0a3.8,3.8,0,0,1,.3-3.6,4.7,4.7,0,0,1,1.8-1.6c1-.5,3.6-.8,6.5-.8m0-3h0c-1.2,0-5.6,0-7.7,1.1A7.2,7.2,0,0,0,19,23.8a7.1,7.1,0,0,0-.5,6.2h0c0,.2-.1.4-.1.6h0v.3a7.3,7.3,0,0,0-.4,2.3,11.2,11.2,0,0,0-.6,2.3c-.2,3.2,2,5.9,6,7.4a51.9,51.9,0,0,0,11.5,2.7l6.8.4h.2l2.2-.2h.1A10.1,10.1,0,0,0,47.3,45l.4-.2a6.8,6.8,0,0,0,2.8-3.2,5.7,5.7,0,0,0,.4-1.4,1.5,1.5,0,0,1,.1-.7,4.1,4.1,0,0,0,.3-1.6,5,5,0,0,0-.3-1.6,5.8,5.8,0,0,0,.7-2.8,4.8,4.8,0,0,0,.6-2.4,8.3,8.3,0,0,0-3.6-6.3A24.7,24.7,0,0,0,38.8,21l-2.7-.6a40.4,40.4,0,0,0-6.2-.4Z" style="fill:#e75c78"/><path d="M117.8,53.6c-.4-.6-.7-.4-.6.2.8,4.3-6.1,5.7-8.9,6.4s-7.6,1.4-11.4,2.1a190.7,190.7,0,0,1-23.8,2.8,166.2,166.2,0,0,1-23.4-.2c-7.9-.6-16-1.2-23.9-2.5a62.7,62.7,0,0,1-12.1-2.9c-2.9-1.2-7.5-3.1-7.8-6.6-.1-.6-.4-.8-.5-.3-1.3,7.3,8.2,10.6,13.3,11.8,8.4,2,19,3.1,27.5,3.9,17.6,1.6,34.4,1.3,51.7-2.1a93,93,0,0,0,14.9-3.8C116.2,61.1,119.8,57.6,117.8,53.6Z" style="fill:#c8e9f9"/><path d="M72.9,120.3a1.3,1.3,0,0,1-1.3-.8c-1.6-2.8-1.8-6.3-1.9-9.6,0-1.6,0-3.2.1-4.8v-4.4c0-1.4-.1-2.8-.2-4l-.3.2a3.4,3.4,0,0,1-1.6.4c-2.6,0-3.8-3.3-4.2-4.7s-.7-2.5-.9-3.8h-.1a19.1,19.1,0,0,1-3,5.5c-.9,1.1-3.1,3.5-5.6,3.5a3.6,3.6,0,0,1-3-1.5c-2.3-2.9-.5-6.7,2.4-9.2-1.8-.2-3.6-.6-5.5-1a48.6,48.6,0,0,1-6.1-1.9c-2.4-1-4-2.3-4.8-4a5.6,5.6,0,0,1,.8-6.4A7.6,7.6,0,0,1,43,71.9h.2A27.3,27.3,0,0,1,55,75a20,20,0,0,1,6.3,4.9l1.4-.2a4,4,0,0,1,1.5.3c1.8-1.8,5.6-5.6,8.3-6.9a19.9,19.9,0,0,1,8.7-2.3h1.9a6.4,6.4,0,0,1,4.7,3.4,6.9,6.9,0,0,1-.2,6.1c-2.1,3.9-7,5.1-10.5,6l-3.7.8a33.8,33.8,0,0,1,2.5,3.6V91c1.9,3.3,3.8,6.8,4.3,10.8A1.3,1.3,0,0,1,80,103a1.7,1.7,0,0,1-1.2.5h-.1a1.6,1.6,0,0,1-.9.3,1.5,1.5,0,0,1-1.4-.9l-1.5-3.3c.1,2.2,0,4.5-.1,6.7a18.5,18.5,0,0,0-.1,2.3,43.3,43.3,0,0,0,0,5.1,15.9,15.9,0,0,0,.7,4.1,1.7,1.7,0,0,1-.1,1.4,1.6,1.6,0,0,1-1.3.6h0A1.3,1.3,0,0,1,72.9,120.3Zm8.2-44.1H79.7a19.1,19.1,0,0,0-5.1,1.3,28.9,28.9,0,0,0-7.1,4.7h.2l2.3-.2a36.3,36.3,0,0,0,6.4-1.3,19.4,19.4,0,0,0,5.1-2A3.3,3.3,0,0,0,82.9,77c0-.1,0-.2-.2-.4A2.5,2.5,0,0,0,81.1,76.2ZM42.7,77.9c.8.6,3.1,1.7,7.1,2.8L55.9,82h1.4a23.8,23.8,0,0,0-6-2.8A26.8,26.8,0,0,0,46,78.1h-.3l-2.3-.2Z" style="fill:#e8a4d2"/><path d="M81.2,72.3h1.7c3.5.6,5,4.2,3.3,7.3S80,84.1,76.7,85a50.5,50.5,0,0,1-6.6,1.1H70c2.1,1.2,3.6,3.9,4.7,5.7s3.7,6.5,4.1,10.2h0l-1-1.6v1.9h0c-1.4-3-2.8-6-4.4-8.9a17.5,17.5,0,0,0-1.8-2.9l.3.7A26.2,26.2,0,0,1,73.3,99c.2,3.2,0,6.4-.1,9.6a43.4,43.4,0,0,0,0,5.1,16.4,16.4,0,0,0,.8,4.6h0l-1-1.1a8.6,8.6,0,0,1-.1,1.6h0c-1.5-2.6-1.6-6-1.7-8.9s.2-6.1.1-9.2a29.9,29.9,0,0,0-.9-7.9,7.5,7.5,0,0,0-.5-1.6c.4,1.6.2,3.5-1.4,4.4l-.8.2c-1.5,0-2.4-2.4-2.8-3.6A21.8,21.8,0,0,1,64,87a2.7,2.7,0,0,1-1.2.3,2.8,2.8,0,0,1-1.3-.3,19.2,19.2,0,0,1-3.2,6.4c-.9,1.2-2.7,2.9-4.4,2.9a2,2,0,0,1-1.8-.9c-1.9-2.4.4-5.6,2.2-7.2A32,32,0,0,1,57.4,86l-2.3-.2a42.7,42.7,0,0,1-7-1.2c-2-.5-3.9-1.1-5.9-1.8a7.5,7.5,0,0,1-4-3.2,4.2,4.2,0,0,1,.6-4.7A5.9,5.9,0,0,1,43,73.4h.2a25.6,25.6,0,0,1,11.1,3,15.2,15.2,0,0,1,6.5,5.5,2.6,2.6,0,0,1,1.9-.7,3,3,0,0,1,1.8.6c.2-.2,5.5-5.7,8.6-7.3a18.8,18.8,0,0,1,8.1-2.2M65.7,83.9l4.5-.3a31.1,31.1,0,0,0,6.6-1.4A17.6,17.6,0,0,0,82.3,80c1.3-.8,2.9-2.8,1.6-4.3a3.6,3.6,0,0,0-2.8-1H79.5A21.2,21.2,0,0,0,74,76.2a34.6,34.6,0,0,0-8.7,6,6.1,6.1,0,0,1,.4,1.7m-6,0h0a2.4,2.4,0,0,1,.5-1.4,22.1,22.1,0,0,0-8.5-4.6,33.9,33.9,0,0,0-5.5-1.3,17,17,0,0,0-2.8-.3,3.3,3.3,0,0,0-2.3.7c-2.1,2.3,7.2,4.8,8.3,5.1a45.6,45.6,0,0,0,6.2,1.3l4.1.5m7.7,9.9h.2c1.1-.8.1-3.2-.3-4.1a14.1,14.1,0,0,0-1.8-2.9,1.3,1.3,0,0,0-.6-.5c.2,1.1.3,2.2.6,3.3a10.4,10.4,0,0,0,.8,2.5l.6,1.3c.2.2.3.5.5.5m-13.2.7c1.2,0,3.6-2.9,4.1-3.5s1.5-2.6,2.2-3.9l-.7.4a22.9,22.9,0,0,0-2.9,1.8c-1.1.9-3.9,3.1-3.3,4.8a.7.7,0,0,0,.6.4m27-25.2a21,21,0,0,0-9.4,2.5c-2.6,1.3-6,4.5-8,6.5H61.9a19.7,19.7,0,0,0-6.2-4.6,29.2,29.2,0,0,0-12.5-3.3H43a8.8,8.8,0,0,0-6.4,2.4,7.2,7.2,0,0,0-1.1,8.1c1,2.1,2.9,3.6,5.6,4.7a57.9,57.9,0,0,0,6.3,1.9l2.9.7c-2,2.7-2.8,6.2-.6,9a5.3,5.3,0,0,0,4.2,2.1c3,0,5.5-2.5,6.7-4a13.7,13.7,0,0,0,1.5-2.1c1,3.6,3.1,5.6,5.6,5.6h.6V105c-.1,1.6-.1,3.3-.1,5,.1,3.4.3,7.1,2,10.2a3.2,3.2,0,0,0,2.7,1.6,3.5,3.5,0,0,0,1.8-.5,3.6,3.6,0,0,0,1.8-1.2,3.1,3.1,0,0,0,.3-2.8,13,13,0,0,1-.6-3.7,40,40,0,0,1,0-4.9,17.7,17.7,0,0,1,.1-2.3v-1.5a2.8,2.8,0,0,0,1.5.4,2.8,2.8,0,0,0,1.3-.3,3,3,0,0,0,2.7-3.4c-.5-4.3-2.5-7.9-4.5-11.3v-.2L76,88.2l1.4-.3c3.6-.9,9.1-2.3,11.5-6.8a7.8,7.8,0,0,0,.2-7.4,7.7,7.7,0,0,0-5.7-4.3ZM72.9,80.1,75.1,79a16.9,16.9,0,0,1,4.8-1.2h.4A18.2,18.2,0,0,1,76,79.3h-.1l-3,.7Z" style="fill:#ac538c"/></g></g></g></svg>