<svg xmlns="http://www.w3.org/2000/svg" viewBox="0 0 97 47.4"><g style="isolation:isolate"><g id="Layer_2" data-name="Layer 2"><g id="Layer_1-2" data-name="Layer 1"><path d="M48.2,46.9c-21.6,0-36.6-4.2-39-10.9l-.7-1.7c-1.2-3-2.8-7.2-2.8-9.3,0-5.9,21.6-9.3,42.5-9.3S90.7,19.1,90.7,25c0,2.5-2.1,8-3.4,11.1C84.2,43.3,71.5,46.9,48.2,46.9Z" style="fill:#e05555"/><path d="M48.2,16.2c23.2,0,42,3.9,42,8.8,0,2.4-2.3,8.3-3.4,10.9-2.9,7-15.4,10.5-38.6,10.5S11.8,41.8,9.6,35.9C8.7,33.2,6.2,27.4,6.2,25c0-4.9,18.8-8.8,42-8.8m0-1c-21.3,0-43,3.3-43,9.8,0,2.2,1.7,6.4,2.9,9.5a16.2,16.2,0,0,0,.6,1.7c2.6,7,17.4,11.2,39.5,11.2,23.8,0,36.4-3.5,39.6-11.2,1.3-3.1,3.4-8.7,3.4-11.2,0-6.5-21.6-9.8-43-9.8Z" style="fill:#781f1a"/><line x1="15.1" y1="27.3" x2="16.7" y2="39.9" style="fill:none;stroke:#ec7670;stroke-linecap:round;stroke-linejoin:round;stroke-width:0.9921000000000001px"/><line x1="22.5" y1="29" x2="23.8" y2="42.2" style="fill:none;stroke:#ec7670;stroke-linecap:round;stroke-linejoin:round;stroke-width:0.9921000000000001px"/><path d="M34.6,30c-.1.5-1.1,13.7-1.1,13.7" style="fill:none;stroke:#ec7670;stroke-linecap:round;stroke-linejoin:round;stroke-width:0.9921000000000001px"/><line x1="46.2" y1="30.2" x2="44.8" y2="44.9" style="fill:none;stroke:#ec7670;stroke-linecap:round;stroke-linejoin:round;stroke-width:0.9921000000000001px"/><line x1="58.1" y1="30.2" x2="55.8" y2="44.2" style="fill:none;stroke:#ec7670;stroke-linecap:round;stroke-linejoin:round;stroke-width:0.9921000000000001px"/><line x1="69.1" y1="31.5" x2="66.5" y2="42.8" style="fill:none;stroke:#ec7670;stroke-linecap:round;stroke-linejoin:round;stroke-width:0.9921000000000001px"/><line x1="78.8" y1="29.2" x2="76" y2="41.9" style="fill:none;stroke:#ec7670;stroke-linecap:round;stroke-linejoin:round;stroke-width:0.9921000000000001px"/><path d="M86.3,25.7c0,.4-3.5,12.8-3.5,12.8" style="fill:none;stroke:#ec7670;stroke-linecap:round;stroke-linejoin:round;stroke-width:0.9921000000000001px"/><line x1="9" y1="24.8" x2="11.3" y2="36.5" style="fill:none;stroke:#ec7670;stroke-linecap:round;stroke-linejoin:round;stroke-width:0.9921000000000001px"/><path d="M33,35.8H32a6.6,6.6,0,0,1-4.9-3.4c-.3-.5-.6-1-.9-1.1h-.1a8.3,8.3,0,0,0-2.4.7,22.1,22.1,0,0,1-6.6,1.4,8.4,8.4,0,0,1-2.9-.5c-3.3-1.5-3.4-3.4-3.4-4.7a1.9,1.9,0,0,0-.1-.8h-.1l-1.1.2a20.3,20.3,0,0,1-2.9.4,5.8,5.8,0,0,1-5.5-3.7A4,4,0,0,1,1,20.1c2.1-3.4,9.5-3.8,11.4-3.8C22.3,6.1,34.4.5,46.5.5l3.6.2C68.6,2.5,74.6,8.2,79,12.3c1.9,1.8,3.4,3.2,5.5,3.9l1.4.2a18.7,18.7,0,0,0,3.2-.4l3.2-.3c2.5,0,3.8,1.1,4.1,3.3a5.4,5.4,0,0,1-1.1,4.4c-1.7,2.2-5.2,2.6-7.7,2.8s-2,.6-2.3,1.5a4.6,4.6,0,0,1-2.4,2.8,11,11,0,0,1-4.3.8,24.8,24.8,0,0,1-4.1-.4l-1.6-.2h-.2a6.1,6.1,0,0,0-1.3.9,15,15,0,0,1-6.5,3.1H63.6c-2.6,0-3.7-1.8-4.4-2.9s-.5-.9-.6-.9-.6.4-1,.8a11,11,0,0,1-8.4,3.4h-.4c-4.1-.1-5-1.2-5.7-2.5s-.5-1-1.3-1.1h-.3c-1,0-2.1.8-3.2,1.7S35.1,35.8,33,35.8Z" style="fill:#ffc776"/><path d="M46.5,1l3.5.2C76.6,3.8,77.2,14.4,84.3,16.7l1.6.2c2,0,4.4-.7,6.4-.7s3.3.6,3.6,2.9c.7,5.4-4.4,6.3-8.3,6.6s-1.5,2.5-5,4.3a9,9,0,0,1-4,.8c-2.4,0-4.7-.6-5.7-.6h-.2c-1.3.2-3,3.1-7.9,4H63.6c-3.6,0-3.9-3.8-5-3.8h-.1c-1.2.2-2.8,4.2-9.3,4.2h-.4c-6.8-.2-4-3.2-7-3.6h-.3c-2.6,0-4.9,4.2-8.5,4.2h-.9c-4.3-.7-4.5-4.1-5.8-4.4h-.2c-1.4,0-5.4,2.1-9,2.1a6.2,6.2,0,0,1-2.7-.5c-4.2-1.8-2.7-4.4-3.3-5.3s-.2-.2-.5-.2a35.6,35.6,0,0,1-4,.6A5.4,5.4,0,0,1,1.5,24c-2.8-5.9,6.7-7.2,11.2-7.2C23.3,5.7,35.8,1,46.5,1m0-1h0C34.3,0,22.1,5.6,12.2,15.8c-2.6.1-9.5.6-11.6,4a4.6,4.6,0,0,0,0,4.6c1.3,2.6,3.3,4,6,4a21.9,21.9,0,0,0,3-.4l.7-.2v.3c.1,1.3.1,3.5,3.7,5.1a7.5,7.5,0,0,0,3.1.6,23.4,23.4,0,0,0,6.8-1.4,7.5,7.5,0,0,1,2.2-.7l.6.9a7,7,0,0,0,5.2,3.6H33c2.3,0,4-1.4,5.6-2.6s2-1.6,2.9-1.6h.2c.6.1.7.2,1,.8s1.7,2.6,6.1,2.8h.4a11.1,11.1,0,0,0,8.7-3.5l.6-.6.3.5c.7,1.2,1.9,3.2,4.8,3.2l1.4-.2A14.9,14.9,0,0,0,71.7,32l1.1-.8h.1l1.6.2a23.7,23.7,0,0,0,4.1.4,10,10,0,0,0,4.5-.9,5,5,0,0,0,2.7-3.1c.3-.8.4-1,1.8-1.1s6.2-.7,8.1-2.9A5.7,5.7,0,0,0,96.9,19c-.3-2.5-1.9-3.8-4.6-3.8l-3.3.3a17.6,17.6,0,0,1-3.1.4l-1.3-.2c-2-.6-3.4-2-5.3-3.8C74.9,7.7,68.8,2,50.1.2L46.5,0Z" style="fill:#ff8d3d"/><path d="M30.5,6.8s5.8-3.5,8.2-2.6S30.5,6.8,30.5,6.8Z" style="fill:#dc5c20;opacity:0.33;mix-blend-mode:multiply"/><path d="M35.2,11.2s5.8-5.7,8-4.9S35.2,11.2,35.2,11.2Z" style="fill:#dc5c20;opacity:0.33;mix-blend-mode:multiply"/><path d="M45.3,13s.8-6.9,2.9-6.5S45.3,13,45.3,13Z" style="fill:#dc5c20;opacity:0.33;mix-blend-mode:multiply"/><path d="M54.6,14.5c-.3-.2-3.9-7.5-2-7.9s2,8.4,2,8.4" style="fill:#dc5c20;opacity:0.33;mix-blend-mode:multiply"/><path d="M63.2,14.2C56,8.7,56.4,7.8,57.9,6.5S63.2,14.2,63.2,14.2Z" style="fill:#dc5c20;opacity:0.33;mix-blend-mode:multiply"/><path d="M68.8,11c-7.2-3.2-7.3-5.1-6.4-5.8S68.8,11,68.8,11Z" style="fill:#dc5c20;opacity:0.33;mix-blend-mode:multiply"/><path d="M12.7,16.8s32,21.4,71.6-.1" style="fill:none;stroke:#d86e2e;stroke-miterlimit:10;stroke-width:0.992126px;opacity:0.33;mix-blend-mode:multiply"/></g></g></g></svg>