<svg xmlns="http://www.w3.org/2000/svg" viewBox="0 0 15 58.3"><g id="Layer_2" data-name="Layer 2"><g id="Layer_1-2" data-name="Layer 1"><g id="Props"><g id="fu_book_3" data-name="fu_book 3"><rect x="1" y="1" width="13" height="56.27" rx="1.6" style="fill:#8383f2"/><path d="M9.7,51.8a2.2,2.2,0,1,1-2.2-2.2A2.2,2.2,0,0,1,9.7,51.8Z" style="fill:#ffe76b"/><path d="M9.7,6.5a2.2,2.2,0,1,1-4.4,0A2.2,2.2,0,0,1,7.5,4.3,2.2,2.2,0,0,1,9.7,6.5Z" style="fill:#ffe76b"/><path d="M9.3,11.3H5.7a1.8,1.8,0,0,1-1.9,1.9V45.1A1.8,1.8,0,0,1,5.7,47H9.3a1.8,1.8,0,0,1,1.9-1.9V13.2A1.8,1.8,0,0,1,9.3,11.3Z" style="fill:#ffa4c6"/><path d="M12.4,1A1.6,1.6,0,0,1,14,2.6V55.7a1.6,1.6,0,0,1-1.6,1.6H2.6A1.6,1.6,0,0,1,1,55.7V2.6A1.6,1.6,0,0,1,2.6,1h9.8m0-1H2.6A2.6,2.6,0,0,0,0,2.6V55.7a2.6,2.6,0,0,0,2.6,2.6h9.8A2.6,2.6,0,0,0,15,55.7V2.6A2.6,2.6,0,0,0,12.4,0Z" style="fill:#7850b3"/></g></g></g></g></svg>