<svg xmlns="http://www.w3.org/2000/svg" viewBox="0 0 42.5 12.9"><g style="isolation:isolate"><g id="Layer_2" data-name="Layer 2"><g id="Layer_1-2" data-name="Layer 1"><g id="Props"><g id="fu_book_6" data-name="fu_book 6"><path d="M25,1H1A7.7,7.7,0,0,1,1,11.9H25A7.7,7.7,0,0,0,25,1Z" style="fill:#f2d14e"/><path d="M22.3,1.6H1a6.8,6.8,0,0,1,0,9.7H22.3A6.8,6.8,0,0,0,22.3,1.6Z" style="fill:#ffefe1"/><path d="M40.1,2a2.6,2.6,0,0,0-2-1H23.5a7.7,7.7,0,0,1,0,10.9H38.1a2.6,2.6,0,0,0,2-1A7.7,7.7,0,0,0,40.1,2Z" style="fill:#e8a4d2"/><path d="M28.5,1h-5a7.7,7.7,0,0,1,0,10.9h5A7.7,7.7,0,0,0,28.5,1Z" style="fill:#ffe76b"/><path d="M40.1,10.9a7.7,7.7,0,0,0,0-8.9,2.6,2.6,0,0,0-2-1H36.3a7.7,7.7,0,0,1,0,10.9h1.8A2.6,2.6,0,0,0,40.1,10.9Z" style="fill:#ffe76b"/><path d="M9.9,6.6V9.2a.4.4,0,0,0,.7.3l.7-.5h.6l.7.5a.4.4,0,0,0,.7-.3V6.6Z" style="fill:#e8a4d2"/><g style="mix-blend-mode:multiply"><path d="M20.9,10H15.1a.3.3,0,0,1-.3-.3c0-.1.1-.2.3-.2h5.8c.2,0,.3.1.3.2A.3.3,0,0,1,20.9,10Z" style="fill:#ebebeb"/></g><g style="mix-blend-mode:multiply"><path d="M23.2,7H17.4c-.2,0-.3-.1-.3-.2a.3.3,0,0,1,.3-.3h5.8a.3.3,0,0,1,.3.3C23.5,6.9,23.3,7,23.2,7Z" style="fill:#ebebeb"/></g><g style="mix-blend-mode:multiply"><path d="M13.1,4.4H5.8a.3.3,0,0,1-.3-.3.3.3,0,0,1,.3-.3h7.3a.3.3,0,0,1,.3.3A.5.5,0,0,1,13.1,4.4Z" style="fill:#ebebeb"/></g><g style="mix-blend-mode:multiply"><path d="M9,10H4.6a.3.3,0,0,1-.3-.3c0-.1.1-.2.3-.2H9l.3.2A.3.3,0,0,1,9,10Z" style="fill:#ebebeb"/></g><path d="M38.1,1a2.6,2.6,0,0,1,2,1,8.2,8.2,0,0,1,1.4,4.5,4.5,4.5,0,0,1-.1,1.1,7.9,7.9,0,0,1-1.3,3.3,2.2,2.2,0,0,1-.9.7,2,2,0,0,1-1.1.3H1l.5-.6H1A6.8,6.8,0,0,0,1,1.6h.5L1,1H38.1m0-1H1A.9.9,0,0,0,.1.6a1.7,1.7,0,0,0-.1.7,1,1,0,0,0,.3,1A5.9,5.9,0,0,1,2,6.5,5.8,5.8,0,0,1,.3,10.6a1,1,0,0,0-.3,1,1.7,1.7,0,0,0,.1.7.9.9,0,0,0,.9.6H38.1a3.2,3.2,0,0,0,1.6-.4,2.5,2.5,0,0,0,1.2-1.1,8.2,8.2,0,0,0,1.5-3.6,6.2,6.2,0,0,0,.1-1.3,8.1,8.1,0,0,0-1.6-5A3.2,3.2,0,0,0,38.1,0Z" style="fill:#f5753c"/></g></g></g></g></g></svg>