<svg xmlns="http://www.w3.org/2000/svg" viewBox="0 0 271.53 247.16"><g style="isolation:isolate"><g id="Layer_2" data-name="Layer 2"><g id="Layer_1-2" data-name="Layer 1"><g id="Props"><g id="fu_barbeque_stand" data-name="fu_barbeque stand"><path d="M236.45,232.51l-5.86-.27c.1-3.68.66-27.33,1-50.9.55-41.29-.12-47.83-.34-48.85-1.16-5-9-6.16-11.69-6.16H146.91c-.1,0-9.86-.61-16.49,1.56-3.65,1.2-4.73,12.37-4.66,17.28v87.22H119.9V145.26c0-2.39,0-21.85,9.1-24.83,7.23-2.37,17.08-1.85,18.13-1.79h72.36c1.49,0,14.71.23,17.34,11.63.33,1.42,1.19,5.19.59,51C237.11,205,236.54,228.8,236.45,232.51Z" fill="#995a3a"/><path d="M236.45,234h-.07l-5.86-.27a1.51,1.51,0,0,1-1.43-1.54c.1-3.69.66-27.37,1-50.88.56-42.19-.16-47.82-.31-48.52-.95-4.12-8.3-5-10.22-5H146.81c-.1,0-9.56-.6-15.92,1.49-2.12.7-3.72,9.23-3.63,15.83v87.24a1.5,1.5,0,0,1-1.5,1.5H119.9a1.5,1.5,0,0,1-1.5-1.5V145.26c-.05-3.79.22-23,10.14-26.26,7.48-2.45,17.55-1.93,18.68-1.86h72.36c2,0,15.87.45,18.71,12.8.37,1.6,1.24,5.35.63,51.34-.31,23.59-.88,47.53-1,51.27a1.54,1.54,0,0,1-.48,1.06A1.56,1.56,0,0,1,236.45,234Zm-4.32-3.2,2.86.13c.16-6.61.65-28.29.93-49.7.6-45.63-.27-49.39-.55-50.63-2.37-10.28-14.54-10.47-15.87-10.47H147.13c-1.16-.07-10.7-.57-17.66,1.71-6.57,2.16-8.17,15.72-8.07,23.4v85.63h2.86V145.23c0-.21-.07-16.88,5.7-18.77,6.93-2.28,17-1.64,17.06-1.63H219.5c3.22,0,11.8,1.31,13.18,7.32.3,1.39.91,8.9.38,49.21C232.77,202.77,232.29,224.32,232.13,230.81Z" fill="#5b2710"/><path d="M251.58,183.47H104.89a1.72,1.72,0,0,1-.9-3.17l18.47-11.49a1.68,1.68,0,0,1,.9-.26H233.45a1.7,1.7,0,0,1,.92.27l18.12,11.49a1.71,1.71,0,0,1-.91,3.16Zm-140.7-3.42H245.69L233,172H123.85Z" fill="#af7553"/><path d="M251.58,185H104.89A3.21,3.21,0,0,1,103.2,179l18.47-11.49a3.14,3.14,0,0,1,1.69-.49H233.45a3.28,3.28,0,0,1,1.72.5L253.3,179a3.22,3.22,0,0,1-1.72,5.93ZM123.36,170.05a.17.17,0,0,0-.1,0l-18.48,11.5a.21.21,0,0,0-.09.23.22.22,0,0,0,.2.16H251.58a.21.21,0,0,0,.2-.16.2.2,0,0,0-.09-.23l-18.13-11.49a.15.15,0,0,0-.11,0Zm122.33,11.5H110.88a1.5,1.5,0,0,1-.79-2.78l13-8.07a1.48,1.48,0,0,1,.79-.23H233a1.45,1.45,0,0,1,.81.24l12.73,8.07a1.5,1.5,0,0,1-.8,2.77Zm-129.56-3H240.52l-8-5.08H124.28Z" fill="#6a3417"/><circle cx="234.29" cy="218.42" r="18.13" transform="translate(-32.12 396.26) rotate(-76.72)" fill="#050505"/><circle cx="234.29" cy="218.42" r="12.19" fill="#9e4132"/><rect x="97.89" y="17.91" width="158.87" height="101.34" rx="5" fill="#a95350"/><path d="M251.76,120.76H102.89a6.51,6.51,0,0,1-6.5-6.5V22.91a6.51,6.51,0,0,1,6.5-6.5H251.76a6.51,6.51,0,0,1,6.5,6.5v91.35A6.51,6.51,0,0,1,251.76,120.76ZM102.89,19.41a3.5,3.5,0,0,0-3.5,3.5v91.35a3.5,3.5,0,0,0,3.5,3.5H251.76a3.5,3.5,0,0,0,3.5-3.5V22.91a3.5,3.5,0,0,0-3.5-3.5Z" fill="#781f19"/><path d="M228.42,34.23c.15,13.69-2.62,28.05-11.39,38.56-5.59,6.68-13.22,11.34-21.07,15.12A159.52,159.52,0,0,1,162.6,99.33c-20.51,4.7-41.82,6.33-62.81,6.88-.62,0-1.25,0-1.9,0v8.07a5,5,0,0,0,5,5H251.76a5,5,0,0,0,5-5V22.91a5,5,0,0,0-5-5H227A109,109,0,0,1,228.42,34.23Z" fill="#843e4e"/><path d="M251.76,120.76H102.89a6.51,6.51,0,0,1-6.5-6.5v-9.63l1.56.06c.61,0,1.22,0,1.8,0,25.17-.66,45-2.84,62.51-6.85a157,157,0,0,0,33.05-11.31c9.41-4.52,15.95-9.2,20.57-14.73,9.34-11.18,11.16-26.6,11-37.57h0a106.7,106.7,0,0,0-1.39-16.1l-.29-1.74h26.52a6.51,6.51,0,0,1,6.5,6.5v91.35A6.51,6.51,0,0,1,251.76,120.76Zm-152.37-13v6.54a3.5,3.5,0,0,0,3.5,3.5H251.76a3.5,3.5,0,0,0,3.5-3.5V22.91a3.5,3.5,0,0,0-3.5-3.5h-23a110.38,110.38,0,0,1,1.16,14.81h0c.18,16.45-3.89,30.12-11.74,39.53-4.9,5.86-11.76,10.79-21.57,15.51a161.13,161.13,0,0,1-33.68,11.53c-17.67,4-37.73,6.25-63.11,6.92Z" fill="#781f19"/><rect x="93.57" y="65.36" width="165.59" height="6.14" rx="3" fill="#af7553"/><path d="M256.16,73H96.57a4.51,4.51,0,0,1-4.5-4.5v-.14a4.51,4.51,0,0,1,4.5-4.5H256.16a4.51,4.51,0,0,1,4.5,4.5v.14A4.51,4.51,0,0,1,256.16,73ZM96.57,66.86a1.5,1.5,0,0,0-1.5,1.5v.14a1.5,1.5,0,0,0,1.5,1.5H256.16a1.5,1.5,0,0,0,1.5-1.5v-.14a1.5,1.5,0,0,0-1.5-1.5Z" fill="#6a3417"/><path d="M97.89,112H256.76a0,0,0,0,1,0,0v2.24a5,5,0,0,1-5,5H102.89a5,5,0,0,1-5-5V112A0,0,0,0,1,97.89,112Z" fill="#781f19"/><path d="M199.26,15.87c-1.33-.79-4.54-.48-6.1-.63a2.06,2.06,0,0,1-1-.27,2.06,2.06,0,0,1-.65-1.1,20.44,20.44,0,0,1-1-5.86c0-1.59,0-3.45-1.25-4.41a4.78,4.78,0,0,0-3-.63l-9,.11-9-.11a4.78,4.78,0,0,0-3,.63c-1.26,1-1.23,2.82-1.25,4.41a20.44,20.44,0,0,1-1,5.86,2,2,0,0,1-.66,1.1,2,2,0,0,1-1,.27c-1.56.15-4.77-.16-6.11.63-1.6.94-.4,2.12,1.11,2.14l6.64,0a2.79,2.79,0,0,0,2-.48,2.84,2.84,0,0,0,.57-2.22c-.06-1.84-.12-3.69-.17-5.53,0-1.23,0-2.65.94-3.45A4.17,4.17,0,0,1,169,5.7L177,5.4l.34,0,.34,0,8,.3a4.17,4.17,0,0,1,2.59.68c.94.8,1,2.22.94,3.45-.06,1.84-.11,3.69-.17,5.53a2.8,2.8,0,0,0,.57,2.22,2.79,2.79,0,0,0,2,.48l6.64,0C199.67,18,200.86,16.81,199.26,15.87Z" fill="#af7553"/><path d="M163.31,19.57h-.2l-6.64,0a3.26,3.26,0,0,1-3.27-2.1,2.48,2.48,0,0,1,1.42-2.84c1.29-.75,3.32-.77,5.11-.78.62,0,1.21,0,1.61,0l.27,0a3.07,3.07,0,0,0,.11-.31A18.84,18.84,0,0,0,162.63,8V7.74c0-1.68.06-4,1.84-5.33a6.15,6.15,0,0,1,3.9-.94l9,.11,8.94-.11a6.16,6.16,0,0,1,3.9.94C192,3.76,192,6.06,192,7.73V8a18.89,18.89,0,0,0,.9,5.43c.06.16.09.26.12.32l.26,0c.4,0,1,0,1.62,0,1.79,0,3.82,0,5.11.78h0a2.48,2.48,0,0,1,1.42,2.84,3.28,3.28,0,0,1-3.28,2.1l-6.64,0a4.18,4.18,0,0,1-3-.88,4.25,4.25,0,0,1-1.05-3.36l.17-5.54c0-.6.06-1.85-.41-2.25a3.28,3.28,0,0,0-1.68-.33l-8.24-.31-8.23.31a3.34,3.34,0,0,0-1.69.33c-.46.4-.42,1.65-.41,2.25l.18,5.54a4.25,4.25,0,0,1-1,3.36A4,4,0,0,1,163.31,19.57Zm-.71-3h.54a2.25,2.25,0,0,0,1-.09,2.42,2.42,0,0,0,.08-1.06V15.3a2.7,2.7,0,0,1-.83.9A2.8,2.8,0,0,1,162.6,16.56Zm27.88-1.26v.11c0,.79.05,1,.09,1.07a2.44,2.44,0,0,0,.94.08h.54a2.8,2.8,0,0,1-.74-.36A2.7,2.7,0,0,1,190.48,15.3Z" fill="#6a3417"/><path d="M166.45,3a3.57,3.57,0,0,0,0,1.38l.36,2.41a1.66,1.66,0,0,0,.51,1.14,1.37,1.37,0,0,0,.82.2,19.52,19.52,0,0,0,3.32-.3A40.51,40.51,0,0,1,184,8.06c1,.18,2.3.32,2.92-.52a2.72,2.72,0,0,0,.33-1.85c-.05-1-.1-1.89-.16-2.84a1.4,1.4,0,0,0-.15-.67,1.2,1.2,0,0,0-.61-.42,8.44,8.44,0,0,0-3.78-.09,66.38,66.38,0,0,1-8.58,0c-1.44,0-2.88-.05-4.33,0C168.63,1.81,166.79,1.65,166.45,3Z" fill="#9e4132"/><path d="M187.27,5.68c-.05-.94-.1-1.88-.16-2.83a1.38,1.38,0,0,0-.15-.67,1.2,1.2,0,0,0-.61-.42,4.34,4.34,0,0,0-1.47-.26c0,.78.08,1.55.13,2.33a2.88,2.88,0,0,1-.33,1.86c-.63.83-1.9.69-2.93.51a40.82,40.82,0,0,0-12.53-.28c-.82.11-1.63.25-2.46.29,0,.18.06.35.08.52a1.66,1.66,0,0,0,.51,1.15,1.54,1.54,0,0,0,.82.2,20.59,20.59,0,0,0,3.32-.3A40.82,40.82,0,0,1,184,8.05c1,.19,2.3.33,2.92-.51A2.74,2.74,0,0,0,187.27,5.68Z" fill="#722a26"/><g opacity="0.19"><path d="M167.11,4.13a.38.38,0,0,0,.13.29.43.43,0,0,0,.27.06l11.91-.22a3.91,3.91,0,0,0,2.17-.46.66.66,0,0,0,.23-.24.49.49,0,0,0-.33-.6,1.37,1.37,0,0,0-.75,0,23.4,23.4,0,0,1-8.29.36C171.45,3.14,167,1.93,167.11,4.13Z" fill="#fff"/></g><path d="M163.31,19.57h-.2l-6.64,0a3.26,3.26,0,0,1-3.27-2.1,2.48,2.48,0,0,1,1.42-2.84c1.29-.75,3.32-.77,5.11-.78.62,0,1.21,0,1.61,0l.27,0a3.07,3.07,0,0,0,.11-.31A18.9,18.9,0,0,0,162.63,8V7.74c0-1.68.06-4,1.84-5.33a4.16,4.16,0,0,1,.76-.46C166.05.35,168.1.3,169.15.27l.43,0c1.56-.09,3.13-.07,4.45,0l1.55,0a50.09,50.09,0,0,0,6.84-.09l.39,0,.57-.06V0H185a5.32,5.32,0,0,1,.73.07l.18,0a5.1,5.1,0,0,1,.77.19l.17,0a2.67,2.67,0,0,1,1.35,1c.05.08.09.16.13.24a4.56,4.56,0,0,1,1.82.8C192,3.76,192,6.06,192,7.74V8a18.89,18.89,0,0,0,.9,5.43c.06.16.09.26.12.32l.26,0c.4,0,1,0,1.62,0,1.79,0,3.82,0,5.11.78h0a2.48,2.48,0,0,1,1.42,2.84,3.28,3.28,0,0,1-3.28,2.1l-6.64,0a4.18,4.18,0,0,1-3-.88,4.25,4.25,0,0,1-1.05-3.36l.17-5.54c0-.21,0-.51,0-.82-1.27,1-3.08.72-3.91.57a39,39,0,0,0-12.06-.26l-.55.07a16.32,16.32,0,0,1-3,.24,3.36,3.36,0,0,1-1.15-.2c0,.15,0,.29,0,.4l.18,5.54a4.25,4.25,0,0,1-1,3.36A4,4,0,0,1,163.31,19.57Zm-.71-3h.54a2.25,2.25,0,0,0,1-.09,2.42,2.42,0,0,0,.08-1.06V15.3a2.7,2.7,0,0,1-.83.9A2.8,2.8,0,0,1,162.6,16.56Zm27.88-1.26v.11c0,.79.05,1,.09,1.07a2.44,2.44,0,0,0,.94.08h.54a2.86,2.86,0,0,1-.75-.36A2.77,2.77,0,0,1,190.48,15.3ZM176.87,5.92a41.92,41.92,0,0,1,7.41.66c1.14.2,1.42.09,1.48,0a2.11,2.11,0,0,0,0-.45l-.16-3.07-.2,0V3h-.11v0a2.85,2.85,0,0,0-.4,0h-.1a15.07,15.07,0,0,0-1.7.12l-.4,0a54.86,54.86,0,0,1-7.24.1l-1.54,0c-1.26,0-2.74,0-4.2,0l-.52,0a5.68,5.68,0,0,0-1.34.14l-.06.42,0,0,.47,2.71a.17.17,0,0,0,0,.07,14.55,14.55,0,0,0,2.39-.22l.56-.08A43.46,43.46,0,0,1,176.87,5.92Zm9-2.73Z" fill="#6a3417"/><polygon points="112.1 242.85 97.69 242.85 99.99 228.44 110.07 228.44 112.1 242.85" fill="#050505"/><polygon points="130.57 236.51 116.16 236.51 118.46 222.1 128.54 222.1 130.57 236.51" fill="#050505"/><path d="M254.37,130.27c-3.45-11.4-20.78-11.64-22.74-11.63H136.71a118.13,118.13,0,0,0-13.35.23v-.32l-115.47.71L101,147.57v84.81h7.69V145.16c-.09-4.91,1.33-16.08,6.12-17.28,8.69-2.17,21.5-1.56,21.63-1.56h95.25c3.54,0,13.81,1.12,15.33,6.16.29,1,1.16,7.56.45,48.85-.41,23.57-1.14,47.22-1.27,50.9l7.68.27c.13-3.71.87-27.56,1.28-51.25C255.94,135.46,254.8,131.69,254.37,130.27Z" fill="#af7553"/><path d="M253.87,234h-.05l-7.68-.27a1.5,1.5,0,0,1-1.45-1.55c.13-3.68.86-27.33,1.27-50.88.73-42.14-.2-47.72-.39-48.42-1.15-3.78-10-5.06-13.89-5.06H136.35c-.13,0-12.8-.58-21.18,1.52-3.25.81-5.1,9.75-5,15.8v87.24a1.5,1.5,0,0,1-1.5,1.5H101a1.51,1.51,0,0,1-1.5-1.5v-83.7l-92-28a1.5,1.5,0,0,1,.43-2.93l115.48-.71a1.49,1.49,0,0,1,.84.25,121.2,121.2,0,0,1,12.58-.16h94.85c2.08,0,20.41.25,24.18,12.7h0c.49,1.62,1.63,5.41.84,51.44-.41,23.6-1.15,47.54-1.28,51.28a1.52,1.52,0,0,1-.48,1A1.5,1.5,0,0,1,253.87,234Zm-6.13-3.21,4.68.16c.21-6.57.85-28.29,1.23-49.73.78-45.57-.34-49.3-.71-50.52h0c-3.14-10.37-19.46-10.55-21.3-10.57H136.71a117.58,117.58,0,0,0-13.23.22,1.47,1.47,0,0,1-1-.31l-104.67.65,83.65,25.44a1.49,1.49,0,0,1,1.06,1.43v83.31h4.69V145.23c-.08-4.42,1.09-17.26,7.26-18.8,8.94-2.24,21.94-1.61,22.07-1.61h95.13c.19,0,14.65.08,16.81,7.23.39,1.4,1.21,8.95.51,49.3C248.58,202.78,248,224.28,247.74,230.8Z" fill="#6a3417"/><polygon points="1.5 119.26 97.89 119.26 97.89 113.77 1.5 115.64 1.5 119.26" fill="#843e4e"/><path d="M97.89,120.76H1.5a1.5,1.5,0,0,1-1.5-1.5v-3.62a1.49,1.49,0,0,1,1.47-1.5l96.39-1.87a1.45,1.45,0,0,1,1.08.43,1.49,1.49,0,0,1,.45,1.07v5.49A1.5,1.5,0,0,1,97.89,120.76ZM3,117.76H96.39V115.3L3,117.11Z" fill="#781f19"/><polygon points="1.5 115.64 33.44 102.27 97.89 102.27 97.89 113.77 1.5 115.64" fill="#a95350"/><path d="M1.5,117.14a1.5,1.5,0,0,1-.58-2.89l31.94-13.36a1.43,1.43,0,0,1,.58-.12H97.89a1.5,1.5,0,0,1,1.5,1.5v11.5a1.5,1.5,0,0,1-1.47,1.5L1.53,117.14Zm32.24-13.37L9.33,114l87.06-1.69v-8.53Z" fill="#781f19"/><path d="M198,53c0,3.7-8.62,6.7-19.26,6.7s-19.25-3-19.25-6.7,8.62-6.7,19.25-6.7S198,49.3,198,53Z" fill="#af7553"/><path d="M178.76,61.2C168.45,61.2,158,58.39,158,53s10.44-8.2,20.75-8.2,20.76,2.82,20.76,8.2S189.08,61.2,178.76,61.2Zm0-13.4C167.92,47.8,161,50.88,161,53s6.91,5.2,17.75,5.2,17.76-3.08,17.76-5.2S189.6,47.8,178.76,47.8Z" fill="#6a3417"/><g opacity="0.35" style="mix-blend-mode:multiply"><path d="M195.17,49.7a2.68,2.68,0,0,1,.47,1.45c0,3.7-8.63,6.7-19.26,6.7-7.1,0-13.31-1.34-16.64-3.33,1.91,3,9.59,5.25,18.79,5.25,10.64,0,19.26-3,19.26-6.7C197.79,51.84,196.83,50.69,195.17,49.7Z" fill="#252728"/></g><g opacity="0.19"><path d="M163.86,54a3.85,3.85,0,0,0,3.15-.84c.91-.66,1.66-1.52,2.57-2.18,2.74-2,6.42-1.91,9.82-1.85a.66.66,0,0,0,.57-.18c.22-.3-.17-.67-.52-.8a7.89,7.89,0,0,0-3.59-.16q-3.86.45-7.65,1.24A10.31,10.31,0,0,0,163.78,51C162.68,51.87,161.75,53.43,163.86,54Z" fill="#fff"/></g><circle cx="250.78" cy="226.41" r="20.75" transform="translate(-12.88 437.68) rotate(-80.78)" fill="#050505"/><path d="M264.73,226.41a13.95,13.95,0,1,1-14-13.95A14,14,0,0,1,264.73,226.41Z" fill="#9e4132"/></g></g></g></g></g></svg>