<svg xmlns="http://www.w3.org/2000/svg" viewBox="0 0 39.3 30.1"><g id="Layer_2" data-name="Layer 2"><g id="Layer_1-2" data-name="Layer 1"><path d="M16.8,2c8.1,0,14.7.8,14.7,1.8h0l-.6,3a7.3,7.3,0,0,1,5.9,4.2c2.4,6.1-4,9-8.9,9l.4-1.8c2.9-.2,6.5-1.2,7.3-3.9a5.1,5.1,0,0,0-1.9-4.6,7.6,7.6,0,0,0-3.2-1.1l-.6,2.6-2,8.8-1.4,6.2c0,.8-3.2,1.5-7.6,1.7H14.2c-4.1-.2-7.2-.9-7.2-1.7L2,3.9v0H2C2,2.8,8.6,2,16.8,2m0-2A106.9,106.9,0,0,0,6.1.5C2.9.9,0,1.5,0,3.8V4H0V5.9H.4L5,26.5c.2,1.6,1.5,3.1,9.1,3.5H19c7.9-.3,9.4-1.9,9.5-3.5l1-4.4c3.1-.4,6.7-1.7,8.6-4.5a7.2,7.2,0,0,0,.5-7.2,8.4,8.4,0,0,0-5.2-4.9h.1V4.1h0V3.8c0-2.3-2.8-2.9-6-3.3S20.8,0,16.8,0ZM30.9,15.8l.9-4,.2-.7.6.4a2.9,2.9,0,0,1,1,2.4c-.2.9-1.3,1.5-2.7,1.9Z" style="fill:#5576b4"/><path d="M16.8,5.6C8.9,5.6,2.4,4.9,2,3.9L7,26.3c0,.8,3.1,1.5,7.2,1.7h4.7c4.4-.2,7.6-.9,7.6-1.7l1.4-6.2,2-8.8.6-2.6.4-1.8.6-3C31.1,4.9,24.7,5.6,16.8,5.6Z" style="fill:#ccdddf"/><path d="M27.9,20.1l.4-1.8c2.9-.2,6.5-1.2,7.3-3.9a5.1,5.1,0,0,0-1.9-4.6,7.6,7.6,0,0,0-3.2-1.1l.4-1.8a7.3,7.3,0,0,1,5.9,4.2C39.2,17.2,32.8,20.1,27.9,20.1Z" style="fill:#cf858f"/><path d="M31.5,3.8h0c-.4,1-6.8,1.7-14.7,1.7S2.4,4.9,2,3.9H2C2,2.8,8.6,2,16.8,2S31.5,2.8,31.5,3.8Z" style="fill:#aec3c4"/><path d="M16.8,2.5a95.7,95.7,0,0,1,9.9.4c3,.4,4,.7,4.3.9s-1.3.6-4.3.9a93.1,93.1,0,0,1-9.9.5,93.1,93.1,0,0,1-9.9-.5c-3-.3-4-.7-4.3-.9s1.3-.5,4.3-.9a95.7,95.7,0,0,1,9.9-.4Zm0-.5C8.6,2,2,2.8,2,3.8H2c.4,1,6.9,1.7,14.8,1.7s14.3-.7,14.7-1.7h0c0-1-6.6-1.8-14.7-1.8Z" style="fill:#cf858f"/><path d="M31.5,3.8h0Z" style="fill:#ccdddf"/><path d="M23.7,19.1c-.1,2.6.3,7.1-3.2,7.3-.5.2-1.6-.3-1.8.1s-.1,1-.1,1.5H14.5a7.1,7.1,0,0,1-.1-1.4c-4.6-.2-4.2-2.7-4.5-6.6.3-1.1-.7-3.8,1.3-3.6s.5,2.2.6,3.2a19.7,19.7,0,0,0,.2,4.2c.1,1,1.3,1.2,2.1,1.1s.2-.1.1-.1c.2-3.2-1.7-11.2,2-12.5s3.4,5.6,3.2,8.4c0,.7-.9,4.1-.3,4.2,4.5.8,2-5.6,2.7-8a1,1,0,0,1,1.2-.4C24,17,23.5,18.3,23.7,19.1Z" style="fill:#7c9b79"/><path d="M23.9,17.5c-.2-.6-.6-1.4-1.4-1.3a1.6,1.6,0,0,0-1.2,1.7,10.5,10.5,0,0,0,.1,2.5,5.7,5.7,0,0,1,0,2.9,1.3,1.3,0,0,1-.8,1.1,2.2,2.2,0,0,1-1.4.2c.3-1.2.5-2.4.7-3.6a25.5,25.5,0,0,0,.2-3.9,7.3,7.3,0,0,0-.6-3.2A3.8,3.8,0,0,0,17.1,12a2.3,2.3,0,0,0-2.6,1.2,10.9,10.9,0,0,0-1,3.2,13.7,13.7,0,0,0-.1,3.5c.1,1.4.2,2.8.4,4.1a1.7,1.7,0,0,1,.1.7l-1.1-.3-.5-.3a1.1,1.1,0,0,1-.2-.6,11.1,11.1,0,0,1-.1-2.6,24.5,24.5,0,0,0,.2-2.7c-.1-.7-.2-1.6-.9-1.9s-1.2.5-1.5,1.1a5.9,5.9,0,0,0-.4,2.3,5,5,0,0,1,.2,1.2c.1.4.1.9.2,1.3a6.3,6.3,0,0,0,.3,2.4,3,3,0,0,0,1.5,1.8,6.5,6.5,0,0,0,2.7.5c0,.4-.1.7-.1,1.1h.6V26.5a9.9,9.9,0,0,0-.2-1.7c-.3-1.2-.4-2.3-.6-3.5a18.3,18.3,0,0,1,.5-6.6c.3-1,.8-2.1,1.9-2.2h0a3.6,3.6,0,0,0-.9,2.2,14.2,14.2,0,0,0-.4,3.6,16.1,16.1,0,0,0,0,3.8c.1,1.3.5,2.5.6,3.7a17.7,17.7,0,0,1,.1,2.3h.5a4.3,4.3,0,0,0,0-1.6,21.1,21.1,0,0,0-.5-3.5,24.1,24.1,0,0,1,0-7.1,10.6,10.6,0,0,1,.4-1.9,2.7,2.7,0,0,1,.7-1.2A8.7,8.7,0,0,1,18,18.3c-.1,2.4-.5,4.8-.8,7.2a11.1,11.1,0,0,0-.1,2.6h.6a9.7,9.7,0,0,1,.1-2.4c.1-1.2.3-2.4.4-3.6a22.3,22.3,0,0,0,.2-6.8,7.3,7.3,0,0,0-.8-2.5A2.8,2.8,0,0,1,18.8,14a5.3,5.3,0,0,1,.7,3,21.7,21.7,0,0,1-.1,3.6c-.3,2.5-1.2,4.9-1,7.4h.5a7.1,7.1,0,0,1,.1-1.4c1.5.2,3.5.3,4.2-1.3a7.8,7.8,0,0,0,.7-2.5,24.5,24.5,0,0,0,.2-2.7A5.7,5.7,0,0,0,23.9,17.5Zm-4.7,7.6a2.6,2.6,0,0,0,1.9-.3,3,3,0,0,0,1-1.9c.2-1.6-.4-3.1-.3-4.7a2,2,0,0,1,.3-1.1A.6.6,0,0,1,23,17a3.1,3.1,0,0,1,.6,2.1,19.5,19.5,0,0,1-.2,2.5,10.7,10.7,0,0,1-.3,2.5,6.1,6.1,0,0,1-.5,1.2,1.6,1.6,0,0,1-1.1.7,7,7,0,0,1-2.5.1C19.1,25.8,19.1,25.4,19.2,25.1Zm-8.9-2.8V21.1L10,20a5.3,5.3,0,0,1,.2-2.2,2.6,2.6,0,0,1,.5-.9c.4-.3.7.2.8.5a9.7,9.7,0,0,1,.1,2.4,21.1,21.1,0,0,0-.2,2.5,3.3,3.3,0,0,0,.5,2.2,3.9,3.9,0,0,0,1.1.6,2,2,0,0,0,1.1.1c0,.3.1.6.1.9v.3A8.5,8.5,0,0,1,12,26a2.4,2.4,0,0,1-1.3-1.5A7.8,7.8,0,0,1,10.3,22.3Z" style="fill:#bacf8c"/><path d="M11,19.1c0-.1-.2-.1-.3,0v0c-.1-.1-.4,0-.3.2l.2.3c.1.2.3.1.3,0l.2-.4Z" style="fill:#51684e"/><path d="M11.5,21.7c-.1-.1-.2-.2-.3,0v0a.1.1,0,1,0-.2.1c0,.2.1.3.1.4s.3.1.4,0v-.4A.1.1,0,0,0,11.5,21.7Z" style="fill:#51684e"/><path d="M11.2,24.2h-.3v0c-.1-.1-.4,0-.3.2l.2.3c.1.2.3.2.3,0l.2-.4Z" style="fill:#51684e"/><path d="M22.6,17.4h-.3v0c-.1-.1-.3,0-.2.2l.2.3c.1.2.3.1.3,0l.2-.4Z" style="fill:#51684e"/><path d="M23.8,20.1c-.1-.1-.2-.2-.3-.1v.1a.1.1,0,1,0-.2.1.5.5,0,0,0,.2.4c0,.1.2.1.3-.1l.2-.3Z" style="fill:#51684e"/><path d="M22.5,23.1c0-.1-.2-.2-.3,0v0c0-.2-.3,0-.2.1s.1.3.2.4.3.1.3,0l.2-.4Z" style="fill:#51684e"/><path d="M21.3,25.5c0-.1-.2-.1-.3,0v.2h0c-.1-.2-.4-.1-.3.1l.2.4c.1.1.3.1.3-.1l.2-.3Z" style="fill:#51684e"/><path d="M19.1,13.7h-.2v.2h-.1c-.1-.2-.4-.1-.3.1l.2.3c.1.2.3.2.3,0l.2-.4Z" style="fill:#51684e"/><path d="M19.8,17.8c0-.2-.2-.2-.2-.1v.1c-.1-.2-.3,0-.3.1a.8.8,0,0,1,.2.4c.1.1.3.1.3-.1l.2-.3Z" style="fill:#51684e"/><path d="M19.4,21.5a.2.2,0,0,0-.3,0v0c-.1-.1-.3,0-.2.2s.1.2.2.3.2.2.3,0l.2-.4Z" style="fill:#51684e"/><path d="M18.6,25.4c0-.1-.2-.2-.3,0v0a.1.1,0,1,0-.2.1c.1.2.1.3.2.4s.3.1.3,0l.2-.4Z" style="fill:#51684e"/><path d="M17.1,25c0-.2-.2-.2-.2-.1v.2h-.1c-.1-.2-.3-.1-.3.1a.5.5,0,0,1,.2.4c.1.1.3.1.3-.1l.2-.3Z" style="fill:#51684e"/><path d="M17,21.2h-.2v0c-.1-.1-.4,0-.3.2l.2.3c.1.2.3.2.3,0l.2-.4Z" style="fill:#51684e"/><path d="M17.1,16.1c0-.1-.2-.2-.2,0v0c-.1-.2-.3,0-.3.1s.2.3.2.4.3.1.3,0l.2-.4Z" style="fill:#51684e"/><path d="M15.7,26.7h-.3v0c-.1-.1-.3,0-.2.2s.1.2.2.3.2.1.3,0l.2-.4Z" style="fill:#51684e"/><path d="M15.3,23.6c0-.1-.2-.1-.2,0v0c-.1-.1-.4,0-.3.2l.2.3c.1.2.3.2.3,0l.2-.4Z" style="fill:#51684e"/><path d="M14.2,19.2H14v.2h-.1c-.1-.2-.3-.1-.2.1s.1.2.1.3a.2.2,0,0,0,.4,0v-.4S14.3,19.3,14.2,19.2Z" style="fill:#51684e"/><path d="M14.6,15.9h-.3v0c-.1-.1-.4,0-.3.2l.2.3c.1.2.3.1.3,0l.2-.4Z" style="fill:#51684e"/><path d="M15.8,12.9c0-.2-.2-.2-.2-.1V13h-.1c-.1-.2-.3-.1-.2.1s.1.2.1.4a.2.2,0,0,0,.4-.1V13C15.8,12.9,15.9,12.9,15.8,12.9Z" style="fill:#51684e"/><path d="M17.4,19.8c0-.2-.2-.2-.3-.1h0c-.2.3-.7.3-.8,0s-.4,0-.3.2S17.5,20.1,17.4,19.8Z" style="fill:#2d4729"/><path d="M16.1,18.5a.6.6,0,0,1-.9-.1.2.2,0,0,0-.3.1c0,.1-.2.1-.2.2s0,.2.1.2h.5c-.1.1-.1.2,0,.2s.2-.1.3-.2a1,1,0,0,0,.7-.2C16.5,18.6,16.3,18.4,16.1,18.5Z" style="fill:#2d4729"/><path d="M17.4,18.5c.3.2.8.2.9-.1a.2.2,0,0,1,.3.1l.2.2c.1.1,0,.2-.1.2h-.4c0,.1.1.2,0,.2s-.3-.1-.3-.2a1.1,1.1,0,0,1-.8-.2C17.1,18.6,17.3,18.4,17.4,18.5Z" style="fill:#2d4729"/><path d="M15.3,19.6c0,.1-.2.2-.5.2s-.4-.1-.4-.2.2-.2.4-.2S15.3,19.5,15.3,19.6Z" style="fill:#cf858f"/><path d="M19.1,19.6l-.4.2c-.3,0-.5-.1-.5-.2s.2-.2.5-.2S19.1,19.5,19.1,19.6Z" style="fill:#cf858f"/><path d="M12.6,10.8a3.6,3.6,0,0,1-.2,1c-.1.4-.3.8-.4,1.2h-.2l-1.7-.5c-.4-.1-.8-.3-.9-.6a1,1,0,0,1,.1-.9.8.8,0,0,1,.8-.2l.7.2h.1a1.2,1.2,0,0,1,.2-1,.8.8,0,0,1,1-.2A1.1,1.1,0,0,1,12.6,10.8Z" style="fill:#cf858f"/><path d="M17.9,8.7A1.7,1.7,0,0,0,16.3,7a35.4,35.4,0,0,1-8.6-.2H7.1a2.5,2.5,0,0,0-1.2.2,1.8,1.8,0,0,0-.7,1,1.7,1.7,0,0,0,.1,1.2,1.4,1.4,0,0,0,1,.7,47.6,47.6,0,0,0,10,.5A1.7,1.7,0,0,0,17.9,8.7Z" style="fill:#fff;opacity:0.30000000000000004"/><path d="M26,8a1.8,1.8,0,0,0-.7-1A2.7,2.7,0,0,0,24,6.8h-.3L21,7.1a1.6,1.6,0,0,0-1.6,1.6A1.7,1.7,0,0,0,21,10.3a25.8,25.8,0,0,0,3.9-.4,1.1,1.1,0,0,0,.9-.7A1.3,1.3,0,0,0,26,8Z" style="fill:#fff;opacity:0.30000000000000004"/></g></g></svg>