<svg xmlns="http://www.w3.org/2000/svg" viewBox="0 0 173.01 91.7"><g style="isolation:isolate"><g id="Layer_2" data-name="Layer 2"><g id="Layer_1-2" data-name="Layer 1"><g id="Props"><g id="fu_cat_litter" data-name="fu_cat litter"><path d="M15,90.2H157c10.17,0,16.16-23.11,12.12-27.94L143,36.64c-1.81-2.16-8.16-3.82-14.29-3.82H43.23c-6.12,0-12.47,1.66-14.28,3.82L2.87,35.44c-1,1.14-.11,47.91-.13,49C2.68,87.71,7.24,90.2,15,90.2Z" fill="#457cd1"/><path d="M21.5,50.42S75.75,68.1,94.57,69.89c43.7,4.14,69.29,1.73,69.29,1.73,7-.74,9.76-5.45,5.87-10.11l-25.68-27c-1.8-1.58-14.72,1.65-42.74-3.86C86.51,27.69,44.67,6.67,44.67,6.67,37,4.77,29.23,4.72,27.55,6.74L2.17,33.53c-.88,1.06-.67,5.09-.55,6.21C2.1,44.15,9.87,48.68,21.5,50.42Z" fill="#154da4"/><g opacity="0.3" style="mix-blend-mode:multiply"><path d="M19.24,49.08S73.49,66.77,92.31,68.56c43.7,4.14,69.28,1.73,69.28,1.73,7-.74,9.77-5.46,5.88-10.11L142.66,34.07a2.7,2.7,0,0,1,1.39.4l25.68,27c3.89,4.66,1.15,9.37-5.87,10.11,0,0-25.59,2.41-69.29-1.73C75.75,68.1,21.5,50.42,21.5,50.42c-6.79-1-12.21-3-15.68-5.33A44.1,44.1,0,0,0,19.24,49.08Z" fill="#8b98a2"/></g><path d="M21.5,46.69S75.75,64.38,94.57,66.16c43.7,4.15,69.29,1.74,69.29,1.74,7-.74,9.42-2.16,5.53-6.82L144.05,30.75c-1.8-1.58-14.72,1.65-42.74-3.87C86.51,24,44.67,3,44.67,3,37,1.05,29.23,1,27.55,3L2.74,32.71C-1.62,37.93,6.9,44.52,21.5,46.69Z" fill="#154da4"/><g opacity="0.2"><path d="M20.06,45.48S74.31,63.16,93.13,65c43.69,4.14,69.28,1.73,69.28,1.73,7-.74,9.42-2.15,5.53-6.81l-24.56-29.4a1.55,1.55,0,0,1,.67.28l25.34,30.33c3.89,4.66,1.49,6.08-5.53,6.82,0,0-25.59,2.41-69.29-1.74C75.75,64.38,21.5,46.69,21.5,46.69,13.36,45.48,7.22,42.88,4,39.92,7.49,42.36,13,44.43,20.06,45.48Z" fill="#def0ff"/></g><g opacity="0.3"><path d="M2.74,32.71,27.55,3c1.68-2,9.4-2,17.12-.07,0,0,41.84,21,56.64,23.93,28,5.52,40.94,2.29,42.74,3.87l25.34,30.33a12.11,12.11,0,0,1,1.25,1.79c-.2-.28-.36-.54-.62-.85L144.68,31.68c-1.8-1.58-14.71,1.65-42.74-3.86C87.14,24.91,45.3,3.88,45.3,3.88,37.58,2,29.87,1.93,28.18,4L3.37,33.65a4.28,4.28,0,0,0-.21,5.44C1.35,37,1,34.75,2.74,32.71Z" fill="#def0ff"/></g><path d="M22.42,43.68c1.19.36,2.5.77,3.81,1.13,0,0,50.89,17.1,68.41,18.77,40.76,3.88,64,2.09,64,2.09,1-.18,1.91-.36,2.74-.54,4.65-1,6.32-2.5,3.22-6.2L142.73,32.42c-1.67-1.49-16.27.18-42.43-5C86.54,24.73,43.75,4.35,43.75,4.35c-7.21-1.79-10.66-1.07-12.27.84L8.36,32.89C5.56,36.53,11,40.1,22.42,43.68Z" fill="#3267b2"/><g opacity="0.2" style="mix-blend-mode:multiply"><path d="M31.5,5.17c1-1.19,2.72-1.91,5.64-1.85V48.38c-6.55-2.1-10.93-3.57-10.93-3.57-13.91-4-20.94-7.94-17.85-11.94Z" fill="#154da4"/></g><g opacity="0.2" style="mix-blend-mode:multiply"><path d="M142.41,32.28c.09,0,.28.07.33.12L164.59,59c3.63,4.35.64,5.62-5.93,6.73,0,0-5.66.43-16.25.4Z" fill="#838e97"/></g><path d="M22.42,43.68c1.19.36,2.5.77,3.81,1.13,0,0,50.89,17.1,68.41,18.77,40.76,3.88,64,2.09,64,2.09,1-.18,1.91-.36,2.74-.54-1.49-3.51-3.93-4.53-5.54-4.53-2,0-4.89-6.49-7.57-8.34a11.43,11.43,0,0,0-6.49-1.85c-.84,0-1.38-3.63-4.71-5s-9.18-1.08-10.79-.24-5.24,1.13-9.29,0-9.6-.48-11.44.42S97,46.18,94,45.17s-5.61-2.56-9.78-1.61-8.46,1.37-11,.66-7.93-2.63-10.79-2.51-6.55,1.37-11.32,0-5.66-2.38-10.9-2.26-6,0-8.58.65S25.46,41,22.42,43.68Z" fill="#fff3b6"/><g opacity="0.3" style="mix-blend-mode:multiply"><path d="M129.83,53.21c0,.25.85.46,1.9.46s1.91-.21,1.91-.46-.85-.45-1.91-.45S129.83,53,129.83,53.21Z" fill="#e3a869"/></g><g opacity="0.3" style="mix-blend-mode:multiply"><ellipse cx="131.98" cy="62.12" rx="1.9" ry="0.45" fill="#e3a869"/></g><g opacity="0.3" style="mix-blend-mode:multiply"><path d="M140.51,59.17c0,.25.85.46,1.9.46s1.9-.21,1.9-.46-.85-.45-1.9-.45S140.51,58.92,140.51,59.17Z" fill="#e3a869"/></g><g opacity="0.3" style="mix-blend-mode:multiply"><ellipse cx="99.34" cy="50.15" rx="1.9" ry="0.45" fill="#e3a869"/></g><g opacity="0.3" style="mix-blend-mode:multiply"><path d="M76.32,47.06c0,.25.85.46,1.9.46s1.9-.21,1.9-.46-.85-.45-1.9-.45S76.32,46.81,76.32,47.06Z" fill="#e3a869"/></g><g opacity="0.3" style="mix-blend-mode:multiply"><path d="M58,46.15c0,.26.85.46,1.9.46s1.9-.2,1.9-.46-.85-.45-1.9-.45S58,45.9,58,46.15Z" fill="#e3a869"/></g><g opacity="0.3" style="mix-blend-mode:multiply"><path d="M42.18,46.29c0,.25.85.45,1.9.45s1.9-.2,1.9-.45-.85-.46-1.9-.46S42.18,46,42.18,46.29Z" fill="#e3a869"/></g><g opacity="0.3" style="mix-blend-mode:multiply"><ellipse cx="62.55" cy="52.34" rx="1.9" ry="0.45" fill="#e3a869"/></g><g opacity="0.3" style="mix-blend-mode:multiply"><path d="M39.25,42.18c0,.25.85.46,1.9.46s1.91-.21,1.91-.46-.86-.45-1.91-.45S39.25,41.93,39.25,42.18Z" fill="#e3a869"/></g><g opacity="0.3" style="mix-blend-mode:multiply"><ellipse cx="106.82" cy="56.13" rx="1.9" ry="0.45" fill="#e3a869"/></g><g opacity="0.3" style="mix-blend-mode:multiply"><ellipse cx="86.73" cy="56.13" rx="1.9" ry="0.45" fill="#e3a869"/></g><g opacity="0.3" style="mix-blend-mode:multiply"><path d="M106,61.67c0,.25.85.45,1.9.45s1.9-.2,1.9-.45-.85-.45-1.9-.45S106,61.42,106,61.67Z" fill="#e3a869"/></g><g opacity="0.3" style="mix-blend-mode:multiply"><path d="M116.75,53.85c0,.09.3.16.67.16s.68-.07.68-.16-.3-.16-.68-.16S116.75,53.76,116.75,53.85Z" fill="#e3a869"/></g><g opacity="0.3" style="mix-blend-mode:multiply"><path d="M135.66,57.83c0,.09.3.17.68.17s.67-.08.67-.17-.3-.16-.67-.16S135.66,57.75,135.66,57.83Z" fill="#e3a869"/></g><g opacity="0.3" style="mix-blend-mode:multiply"><path d="M109.12,51.57c0,.09.3.16.67.16s.68-.07.68-.16-.3-.16-.68-.16S109.12,51.48,109.12,51.57Z" fill="#e3a869"/></g><g opacity="0.3" style="mix-blend-mode:multiply"><path d="M135,48.23c0,.09.3.16.67.16s.68-.07.68-.16-.31-.16-.68-.16S135,48.14,135,48.23Z" fill="#e3a869"/></g><g opacity="0.3" style="mix-blend-mode:multiply"><path d="M120,48.23c0,.09.3.16.67.16s.68-.07.68-.16-.3-.16-.68-.16S120,48.14,120,48.23Z" fill="#e3a869"/></g><g opacity="0.3" style="mix-blend-mode:multiply"><path d="M90.74,51.89c0,.09.3.16.68.16s.67-.07.67-.16-.3-.16-.67-.16S90.74,51.8,90.74,51.89Z" fill="#e3a869"/></g><g opacity="0.3" style="mix-blend-mode:multiply"><path d="M83.21,46.45c0,.09.3.16.68.16s.67-.07.67-.16-.3-.16-.67-.16S83.21,46.36,83.21,46.45Z" fill="#e3a869"/></g><g opacity="0.3" style="mix-blend-mode:multiply"><path d="M82.68,50.44c0,.09.3.16.67.16s.68-.07.68-.16-.31-.16-.68-.16S82.68,50.35,82.68,50.44Z" fill="#e3a869"/></g><g opacity="0.3" style="mix-blend-mode:multiply"><path d="M72,48.71c0,.09.3.16.67.16s.68-.07.68-.16-.3-.16-.68-.16S72,48.62,72,48.71Z" fill="#e3a869"/></g><g opacity="0.3" style="mix-blend-mode:multiply"><path d="M59,48.71c0,.09.3.16.68.16s.67-.07.67-.16-.3-.16-.67-.16S59,48.62,59,48.71Z" fill="#e3a869"/></g><g opacity="0.3" style="mix-blend-mode:multiply"><path d="M77.54,56.42c0,.09.31.16.68.16s.68-.07.68-.16-.31-.16-.68-.16S77.54,56.33,77.54,56.42Z" fill="#e3a869"/></g><g opacity="0.3" style="mix-blend-mode:multiply"><path d="M38.88,44.77c0,.09.31.17.68.17s.67-.08.67-.17-.3-.16-.67-.16S38.88,44.69,38.88,44.77Z" fill="#e3a869"/></g><g opacity="0.3" style="mix-blend-mode:multiply"><path d="M47.88,43.59c0,.09.31.17.68.17s.67-.08.67-.17-.3-.16-.67-.16S47.88,43.51,47.88,43.59Z" fill="#e3a869"/></g><g opacity="0.3" style="mix-blend-mode:multiply"><path d="M63.5,45.41c0,.09.3.16.67.16s.68-.07.68-.16-.31-.16-.68-.16S63.5,45.32,63.5,45.41Z" fill="#e3a869"/></g><g opacity="0.3" style="mix-blend-mode:multiply"><path d="M79.82,53.69c0,.09.31.16.68.16s.67-.07.67-.16-.3-.16-.67-.16S79.82,53.6,79.82,53.69Z" fill="#e3a869"/></g><g opacity="0.3" style="mix-blend-mode:multiply"><path d="M96.77,58.16c0,.09.3.16.67.16s.68-.07.68-.16-.31-.16-.68-.16S96.77,58.07,96.77,58.16Z" fill="#e3a869"/></g><g opacity="0.3" style="mix-blend-mode:multiply"><path d="M94.5,55.51c0,.09.3.16.67.16s.68-.07.68-.16-.3-.16-.68-.16S94.5,55.42,94.5,55.51Z" fill="#e3a869"/></g><g opacity="0.3" style="mix-blend-mode:multiply"><path d="M118.1,56.9c0,.09.3.17.68.17s.67-.08.67-.17-.3-.16-.67-.16S118.1,56.81,118.1,56.9Z" fill="#e3a869"/></g><g opacity="0.3" style="mix-blend-mode:multiply"><path d="M151.32,62.58c0,.09.31.16.68.16s.68-.07.68-.16-.31-.16-.68-.16S151.32,62.49,151.32,62.58Z" fill="#e3a869"/></g><g opacity="0.3" style="mix-blend-mode:multiply"><path d="M67.25,55.67c0,.09.3.16.68.16s.67-.07.67-.16-.3-.16-.67-.16S67.25,55.59,67.25,55.67Z" fill="#e3a869"/></g><g opacity="0.3" style="mix-blend-mode:multiply"><path d="M107.21,48.39c0,.09.31.16.68.16s.68-.07.68-.16-.31-.16-.68-.16S107.21,48.3,107.21,48.39Z" fill="#e3a869"/></g><g opacity="0.3" style="mix-blend-mode:multiply"><path d="M125,61.51c0,.09.31.16.68.16s.67-.07.67-.16-.3-.16-.67-.16S125,61.42,125,61.51Z" fill="#e3a869"/></g><g opacity="0.3" style="mix-blend-mode:multiply"><path d="M125.22,56.74c0,.09.31.16.68.16s.68-.07.68-.16-.31-.16-.68-.16S125.22,56.65,125.22,56.74Z" fill="#e3a869"/></g><g opacity="0.3" style="mix-blend-mode:multiply"><path d="M138.16,56.58c0,.09.31.16.68.16s.68-.07.68-.16-.31-.16-.68-.16S138.16,56.49,138.16,56.58Z" fill="#e3a869"/></g><g opacity="0.3" style="mix-blend-mode:multiply"><path d="M145.65,56.42c0,.09.3.16.67.16s.68-.07.68-.16-.31-.16-.68-.16S145.65,56.33,145.65,56.42Z" fill="#e3a869"/></g><g opacity="0.3" style="mix-blend-mode:multiply"><path d="M111.81,58.72c0,.09.31.16.68.16s.67-.07.67-.16-.3-.16-.67-.16S111.81,58.63,111.81,58.72Z" fill="#e3a869"/></g><g opacity="0.3" style="mix-blend-mode:multiply"><path d="M127,48.71c0,.09.3.16.68.16s.67-.07.67-.16-.3-.16-.67-.16S127,48.62,127,48.71Z" fill="#e3a869"/></g><g opacity="0.3" style="mix-blend-mode:multiply"><path d="M142.41,52.6c0,.09.3.16.68.16s.67-.07.67-.16-.3-.16-.67-.16S142.41,52.51,142.41,52.6Z" fill="#e3a869"/></g><g opacity="0.2" style="mix-blend-mode:multiply"><path d="M94.64,63.58C77.12,61.91,26.23,44.81,26.23,44.81c-1.31-.36-2.62-.77-3.81-1.13a11.18,11.18,0,0,1,3.12-1.9,26,26,0,0,0,6.38,3.79c8.94,3.74,6.58,0,14.06,3.3s7.17,3.27,15.85,2.7,9.82,2.8,18,7.15,8.09,2.23,15.35.91,8.88-1.29,14,0S121.8,64.05,127,63.31s9-3.23,16.1-1.8c3.54.71,7.09-1.91,8-6.06,1.74,2.42,3.41,5.15,4.73,5.15,1.61,0,4,1,5.54,4.53-.83.18-1.73.36-2.74.54C158.64,65.67,135.4,67.46,94.64,63.58Z" fill="#e3a869"/></g><path d="M157,91.7H15c-5.61,0-9.92-1.25-12.14-3.51a5.31,5.31,0,0,1-1.62-3.83c0-.18,0-1.45,0-3.45C1.08,72.5.8,53,1,42.35A6.48,6.48,0,0,1,.13,39.9a24.69,24.69,0,0,1,0-4.72,6,6,0,0,1,.18-1A4.08,4.08,0,0,1,1,32.64a7.78,7.78,0,0,1,.63-.89l24.8-29.7C28.85-.88,37.77-.3,45,1.49l.31.12,2.28,1.13c9.52,4.7,41.53,20.22,54,22.67a164.17,164.17,0,0,0,36.49,3.36c4.17-.05,5.9-.07,6.95.85l.16.17,25.34,30.33.32.4,0,0a2.43,2.43,0,0,1,.2.25l.22.31a7.09,7.09,0,0,1,1.36,6.63h0a6,6,0,0,1-.9,1.67C171,78.69,165.47,91.7,157,91.7ZM3.32,34.5a3.94,3.94,0,0,0-.11.38,3,3,0,0,0-.1.57,22,22,0,0,0,0,4.13,3.67,3.67,0,0,0,.62,1.55l.25.38V42c-.18,10.48.12,31.12.23,38.9,0,2.08,0,3.38,0,3.54A2.3,2.3,0,0,0,5,86.09c1.6,1.63,5.34,2.61,10,2.61H157c6.39,0,11.37-12,11.85-20l0-.51.34-.38a3.3,3.3,0,0,0,.66-1.11,4.27,4.27,0,0,0-1-3.86l-.35-.47-.29-.36L143.07,31.91a31,31,0,0,0-4.95-.14A165.87,165.87,0,0,1,101,28.35C88.21,25.83,55.89,10.17,46.29,5.43L44.15,4.37C35.54,2.27,29.52,3,28.7,4L3.89,33.67a5.41,5.41,0,0,0-.36.52Z" fill="#154da4"/><path d="M142.78,73.81c-11.8,0-28.2-.52-48.35-2.43C75.92,69.62,24.69,53,21.16,51.88c-12-1.81-20.45-6.62-21-12-.06-.57-.56-5.6.89-7.34l2.3,1.93,0,0c-.36.58-.43,3.3-.24,5.12.35,3.24,7,7.62,18.62,9.35L22,49c.54.18,54.31,17.66,72.75,19.41,43.06,4.08,68.74,1.75,69,1.73,3.1-.33,5.38-1.55,6.07-3.25.52-1.29.09-2.85-1.21-4.41l2.3-1.92c2.05,2.44,2.65,5.09,1.69,7.45-1.13,2.8-4.25,4.66-8.55,5.11C163.87,73.13,156.36,73.81,142.78,73.81Z" fill="#154da4"/></g></g></g></g></g></svg>