<svg xmlns="http://www.w3.org/2000/svg" viewBox="0 0 41.1 33.6"><g id="Layer_2" data-name="Layer 2"><g id="Layer_1-2" data-name="Layer 1"><path d="M16.9,1c7.4,0,13.6.7,15.4,1.5s.5.4.5.6-.4.5-1.1.7h0a5.7,5.7,0,0,0-1.8,2.6,5.9,5.9,0,0,0-.2,1.4,9,9,0,0,1,5.4-2.2h.4A4.7,4.7,0,0,1,40.1,10a6.6,6.6,0,0,1-1,3.7A7.6,7.6,0,0,1,36,16.2c-1.3.7-2.6,1.3-3.9,2.1a3.3,3.3,0,0,0-1.3,1.3,1.5,1.5,0,0,0-.4.9.1.1,0,0,1,.1.1,1,1,0,0,1,.8,1.6,1.5,1.5,0,0,1-1.3.7,1.6,1.6,0,0,1-1.2-.6h0a12,12,0,0,1-5.2,5l2.6,2.6.6.7h0c0,1.2-4.4,2.1-9.9,2.1s-10-.9-10-2.1l.8-.8,2.5-2.5a11.9,11.9,0,0,1-5.9-6.8c-1-2.9.5-11.5-.4-14A6.5,6.5,0,0,0,2.2,3.8h0a3.4,3.4,0,0,1-1-.4c-.1-.1-.2-.2-.2-.3H1c0-.1.1-.2.2-.3S9,1,16.9,1m13,16.4c1.3-1.3,3.2-2,4.7-2.8s2.7-1.4,3.2-2.8A3.1,3.1,0,0,0,37,8.2a3.3,3.3,0,0,0-1.9-.6c-2,0-4,1.7-5.4,2.9v1c.1,2,.2,4.1.2,5.9M16.9,0C10.5,0,2.3.5.6,2A1.4,1.4,0,0,0,0,3.1a1.4,1.4,0,0,0,.5,1,2.3,2.3,0,0,0,1.2.6A5.1,5.1,0,0,1,3,6.8a27.6,27.6,0,0,1,.1,6c-.2,3.2-.3,6.2.2,7.9a13.8,13.8,0,0,0,5.3,6.8L7,29l-.8.8a1.1,1.1,0,0,0-.3.7c0,2.9,8.4,3.1,11,3.1s9.8-.2,10.8-2.5c.1,0,.1-.1.1-.2a.8.8,0,0,0-.2-1h0l-.7-.7-1.6-1.6A13.4,13.4,0,0,0,29,23.7l1,.2a2.5,2.5,0,0,0,2.2-1.2,2.1,2.1,0,0,0,.1-1.9l-.7-.8,1.1-.9a13.6,13.6,0,0,1,2.4-1.3l1.4-.7A10.3,10.3,0,0,0,40,14.3,8.6,8.6,0,0,0,41.1,10a5.8,5.8,0,0,0-5.6-5.4h-.4a8.7,8.7,0,0,0-3.6.9l.7-.8c.6-.2,1.6-.6,1.6-1.6a1.5,1.5,0,0,0-1-1.4C30.5.5,23.2,0,16.9,0ZM30.7,11c1.1-1,2.9-2.4,4.4-2.4a2,2,0,0,1,1.3.4,2.1,2.1,0,0,1,.4,2.5c-.3,1-1.4,1.5-2.5,2.1h-.1l-1.1.5-2.2,1.2c0-.9-.1-1.7-.1-2.6s-.1-.9-.1-1.3v-.4Z" style="fill:#335394"/><path d="M26.8,30.5Z" style="fill:#b3cccf"/><path d="M29.9,6.4a5.7,5.7,0,0,1,1.8-2.6c-2.4.8-8.1,1.3-14.8,1.3S4.6,4.6,2.2,3.8A6.5,6.5,0,0,1,3.9,6.4c.9,2.5-.6,11.1.4,14a11.9,11.9,0,0,0,5.9,6.8L7.7,29.7l-.8.8c0,1.2,4.5,2.1,10,2.1s9.9-.9,9.9-2.1h0l-.6-.7-2.6-2.6a12,12,0,0,0,5.2-5,18.7,18.7,0,0,0,1.1-4.8c0-1.8-.1-3.9-.2-5.9V7.8A5.9,5.9,0,0,1,29.9,6.4Z" style="fill:#b3cccf"/><path d="M39.1,13.7A7.6,7.6,0,0,1,36,16.2c-1.3.7-2.6,1.3-3.9,2.1a3.3,3.3,0,0,0-1.3,1.3,1.5,1.5,0,0,0-.4.9.1.1,0,0,1,.1.1,1,1,0,0,1,.8,1.6,1.5,1.5,0,0,1-2.5.1h0a18.7,18.7,0,0,0,1.1-4.8c1.3-1.3,3.2-2,4.7-2.8s2.7-1.4,3.2-2.8A3.1,3.1,0,0,0,37,8.2c-2.4-1.8-5.5.7-7.3,2.3V7.8c1.7-1.3,3.6-2.4,5.8-2.2A4.7,4.7,0,0,1,40.1,10,6.6,6.6,0,0,1,39.1,13.7Z" style="fill:#fde8df"/><path d="M32.8,3.1c0,.2-.4.5-1.1.7-2.4.8-8.1,1.3-14.8,1.3S4.6,4.6,2.2,3.8C1.4,3.6,1,3.3,1,3.1S8.1,1,16.9,1,32.8,1.9,32.8,3.1Z" style="fill:#97aeaf"/><path d="M16.9,1C8.1,1,1,1.9,1,3.1s.4.5,1.2.7c2.4.8,8.1,1.3,14.7,1.3s12.4-.5,14.8-1.3c.7-.2,1.1-.5,1.1-.7S25.7,1,16.9,1ZM31.5,3.3c-2.4.8-8.2,1.3-14.6,1.3S4.7,4.1,2.3,3.3l-.6-.2a12.9,12.9,0,0,1,4.6-1,82.1,82.1,0,0,1,10.6-.6,83.8,83.8,0,0,1,10.7.6,12.9,12.9,0,0,1,4.6,1Z" style="fill:#2d0861"/><path d="M29.7,11.5l-1.6.7A4.9,4.9,0,0,0,27,13.6a8.7,8.7,0,0,0-.7,1.7v.2h0a2.4,2.4,0,0,0,.3,2c.2.2-.1.4-.3.2a3.7,3.7,0,0,1-.4-1.5l-.3.5a7.6,7.6,0,0,1-2.4,2.3c-.2.1-.3-.2-.1-.3l.9-.7a4.5,4.5,0,0,1-2.3,0c-.2-.1-.2-.4.1-.3a3.5,3.5,0,0,0,2.8-.3h.1l.7-1.1a7.7,7.7,0,0,0,.7-1.6,11.1,11.1,0,0,1,.7-1.6l.6-.8a11,11,0,0,1-4,.5h-.2a10.5,10.5,0,0,0-2.8,1.4A50.7,50.7,0,0,0,16,18l-.3.3c0,.4-.1.8-.1,1.2a5.6,5.6,0,0,1-.4,1.2c0,.1-.2.1-.2.1v-.2a2.7,2.7,0,0,0,.3-1.2,2.5,2.5,0,0,0,.1-.8A12.4,12.4,0,0,1,11.1,21c-.2.1-.3-.3-.1-.3a9.7,9.7,0,0,0,2.9-1.4l1.5-1.2h0l1.7-1.5h-.2a5.8,5.8,0,0,1-2.6-.6c-.2-.1,0-.4.2-.3a5.3,5.3,0,0,0,1.5.5,3.8,3.8,0,0,0,1.5,0,4.6,4.6,0,0,0,.7-.7,16.5,16.5,0,0,1,4.4-2.8,4.4,4.4,0,0,1-1.6-.6H19.6a13,13,0,0,0-5.2,1h-.2c0-.1,0-.2.1-.2l1.4-.5a14.8,14.8,0,0,1,4.7-.5l-.5-.4a.2.2,0,0,1,.3-.3l.9.8h.1l.7.4,1.3.3h2.4a28,28,0,0,0,4.1-1.3Z" style="fill:#936f6f"/><path d="M12.1,11.4s1.4,2.8,2.3,1.6S12.1,11.4,12.1,11.4Z" style="fill:#7c9b79"/><path d="M12.3,14.1s3.1.2,2.5-1.2S12.3,14.1,12.3,14.1Z" style="fill:#7c9b79"/><path d="M12.5,14.9s1.6,2.6,2.4,1.3S12.5,14.9,12.5,14.9Z" style="fill:#7c9b79"/><path d="M13,17.9s3.1-.1,2.4-1.4S13,17.9,13,17.9Z" style="fill:#7c9b79"/><path d="M15.6,13.6s-1.8,2.5-.3,2.7S15.6,13.6,15.6,13.6Z" style="fill:#7c9b79"/><path d="M14.8,22.6s1.9-2.5.4-2.7S14.8,22.6,14.8,22.6Z" style="fill:#7c9b79"/><path d="M17,22.1s-.5-3.1-1.7-2.2S17,22.1,17,22.1Z" style="fill:#7c9b79"/><path d="M9.5,21.4s3,.6,2.6-.8S9.5,21.4,9.5,21.4Z" style="fill:#7c9b79"/><path d="M9.9,19.2s1.8,2.5,2.4,1.2S9.9,19.2,9.9,19.2Z" style="fill:#7c9b79"/><path d="M12,17.3s.2,3.2,1.5,2.3S12,17.3,12,17.3Z" style="fill:#7c9b79"/><path d="M18.9,9s.3,3.1,1.6,2.3S18.9,9,18.9,9Z" style="fill:#7c9b79"/><path d="M16.9,14.4s2.6-1.7,1.3-2.4S16.9,14.4,16.9,14.4Z" style="fill:#7c9b79"/><path d="M21.6,20.7s3-1,1.9-2S21.6,20.7,21.6,20.7Z" style="fill:#7c9b79"/><path d="M19.6,16.8s1.6,2.7,2.4,1.4S19.6,16.8,19.6,16.8Z" style="fill:#7c9b79"/><path d="M21.3,15.5s-.6,3.1.8,2.7S21.3,15.5,21.3,15.5Z" style="fill:#7c9b79"/><path d="M27.5,19.9s0-3.2-1.3-2.5S27.5,19.9,27.5,19.9Z" style="fill:#7c9b79"/><path d="M25.4,19.9s2.3-2.1.9-2.6S25.4,19.9,25.4,19.9Z" style="fill:#7c9b79"/><path d="M24.1,14.9s-1.6-2.7-2.4-1.4S24.1,14.9,24.1,14.9Z" style="fill:#7c9b79"/><path d="M22.4,16s.8-3.1-.7-2.7S22.4,16,22.4,16Z" style="fill:#7c9b79"/><path d="M27.5,11.2a2.4,2.4,0,0,1-1.8,1.4A2.3,2.3,0,0,1,23.3,11c-.2-.5-.3-1.2-.8-1.5l-.4-.3c.8-.1.6-.7.9-1.1A1.4,1.4,0,0,1,24.4,8a1.8,1.8,0,0,1,1,1.1,1.2,1.2,0,0,0-.8.5,1,1,0,0,0,.5,1.5A2.9,2.9,0,0,0,27.5,11.2Z" style="fill:#fde8df"/><path d="M28.2,11a3.4,3.4,0,0,1-3.1.1,1,1,0,0,1-.5-1.5,1.7,1.7,0,0,1,1.6-.5C27.1,9.4,27.4,10.5,28.2,11Z" style="fill:#f0bbc1"/><path d="M23.7,8.9c-.1.2-.4.1-.6.1h.4a.2.2,0,0,0,.2-.2Z" style="fill:#936f6f"/><path d="M18.2,23c-.1-3.6-3.8-.2-7.4-4.6-1.6-2.1-1.3-4.9-1.2-7.3s-3.7-2.6-3.9,0-.2,5.7,1.1,8.2A11,11,0,0,0,12,24.1C13.8,24.8,18.3,26.2,18.2,23Z" style="fill:#fff;opacity:0.30000000000000004"/><path d="M27.6,12.1a1.9,1.9,0,0,0-.9-1.2,2.5,2.5,0,0,0-1.5-.2,2,2,0,0,0-1.4,2.4.4.4,0,0,1,.1.3,17.1,17.1,0,0,1,0,3.2v.2a2,2,0,0,0,.2,1.5,1.9,1.9,0,0,0,1.1.9,2,2,0,0,0,2.4-1.4A18.2,18.2,0,0,0,27.6,12.1Z" style="fill:#fff;opacity:0.30000000000000004"/></g></g></svg>