<svg xmlns="http://www.w3.org/2000/svg" viewBox="0 0 32.9 30.1"><g id="Layer_2" data-name="Layer 2"><g id="Layer_1-2" data-name="Layer 1"><path d="M13.1,2c6.1,0,11.1.6,11.1,1.4h0l-.5,1.7-.3,1.2A4.1,4.1,0,0,1,25.5,5l1.4-.2a3.7,3.7,0,0,1,3.5,1.8A5.7,5.7,0,0,1,30,12c-1.2,1.8-3.3,2.7-5.1,3.7s-4.2,2.4-3.7,4.7a.8.8,0,0,1-.8.9c-.2,0-.5-.1-.5-.4v.5l-.2,1V23l-.9,3.7q0,.4-1.2.9a20.8,20.8,0,0,1-3.4.5h-.7l-2.5-.2L9,27.6l-.7-.3c-.4-.2-.5-.4-.5-.6l-.3-1L7.1,24l-.8-3.2h0L6,19.6l-.5-2.2-.3-1.1h0L4.6,14l-.4-1.7L3.5,9.5,3.1,7.9,2.5,5.2,2,3.5H2C2,2.6,7,2,13.1,2m9.7,8.7h-.4V11L22,12.4l-1,3.9-.2.9h0a7.3,7.3,0,0,1,1.8-1.7,31.4,31.4,0,0,1,3.1-1.8,10.7,10.7,0,0,0,2.8-1.9c1.2-1.4,1.8-4.8-.5-5.5H26.8a2.6,2.6,0,0,0-1.7.5,3.7,3.7,0,0,0-1.5,3.2c.1.5-.4.8-.8.8M13.1,0A63.4,63.4,0,0,0,5,.4C3,.7,0,1,0,3.4v.5h0L.5,5.7l.7,2.7L1.6,10l.7,2.8.4,1.6.6,2.4.2,1.1.6,2.2.2,1.1h.1l.7,3.2.5,1.7.2.9a2.7,2.7,0,0,0,1.5,2l1.1.5,1.9.4,2.8.2h.8a18.9,18.9,0,0,0,3.9-.6c1.9-.6,2.5-1.6,2.6-2.5l.9-3.5v-.4a2.3,2.3,0,0,0,1.2-.8,2.5,2.5,0,0,0,.5-2.2c-.1-.9,1.3-1.8,2.7-2.6l.9-.5a11.6,11.6,0,0,0,5-3.9,7.8,7.8,0,0,0,.5-7.4,5.6,5.6,0,0,0-5.3-2.9h-.8C25.7,1,23,.6,21.2.4A64.4,64.4,0,0,0,13.1,0ZM24.8,11.9l.2-.2a2.9,2.9,0,0,0,.6-2.2c-.1-.2.3-1,.7-1.2h1.2a3.3,3.3,0,0,1-.5,2.2,7.7,7.7,0,0,1-2,1.3Z" style="fill:#781f1a"/><path d="M24.2,3.4h0c-.4.7-5.2,1.2-11.1,1.2S2.4,4.2,2,3.5H2C2,2.6,7,2,13.1,2S24.2,2.6,24.2,3.4Z" style="fill:#96a56d"/><path d="M13.1,2C7,2,2,2.6,2,3.4H2c.4.7,5.2,1.2,11.1,1.2s10.7-.5,11.1-1.2h0C24.2,2.6,19.2,2,13.1,2Zm7.3,1.9a52.5,52.5,0,0,1-7.3.4,52.5,52.5,0,0,1-7.3-.4,20.5,20.5,0,0,1-3.1-.5,10.3,10.3,0,0,1,3.1-.6c2-.2,4.6-.3,7.3-.3s5.3.1,7.3.3a10.3,10.3,0,0,1,3.1.6A20.5,20.5,0,0,1,20.4,3.9Z" style="fill:#7c9b79"/><path d="M17.1,4.7h-8L7.2,4.5,3.8,4.1c-1-.2-1.7-.4-1.8-.6l.5,1.7.6,2.7.4,1.6.7,2.8L4.6,14l.6,2.3h0l.3,1.1L6,19.6l.3,1.1h0L7.1,24l.4,1.7.3,1c0,.2.1.4.5.6l.7.3,1.6.3,2.5.2h.7a20.8,20.8,0,0,0,3.4-.5q1.2-.5,1.2-.9l.9-3.7v-.6l.2-1v-.5l.6-2.5.3-1.2h0l.2-.9,1-3.9.3-1.4v-.9l.2-.6.4-1.6.3-1.5.3-1.2.5-1.7C23.9,4,21,4.5,17.1,4.7Z" style="fill:#dc6e77"/><path d="M30,12c-1.2,1.8-3.3,2.7-5.1,3.7s-4.2,2.4-3.7,4.7-1.1,1.2-1.3.5l.9-3.7a7.3,7.3,0,0,1,1.8-1.7,31.4,31.4,0,0,1,3.1-1.8,10.7,10.7,0,0,0,2.8-1.9c1.2-1.4,1.8-4.8-.5-5.5a3.7,3.7,0,0,0-2.9.4,3.7,3.7,0,0,0-1.5,3.2.8.8,0,0,1-1.2.7l1-4.2A4.1,4.1,0,0,1,25.5,5c1.7-.5,4.1-.1,4.9,1.6A5.7,5.7,0,0,1,30,12Z" style="fill:#7c9b79"/><path d="M17.1,4.7,15.6,7.1,14.3,4.7H11.9L10.5,7.1,9.1,4.7,7.2,4.5c.6,1.2,1.3,2.3,1.9,3.4h-3l-.4-.2L3.9,4.5c-.1-.1-.1-.2-.1-.4S2.1,3.7,2,3.5l.5,1.7L4,7.9H3.1l.4,1.6H9.1v.2c-.4.8-.9,1.6-1.4,2.4s-.2.2-.3.2H4.2L4.6,14h2L5.2,16.3l.3,1.1L6,19.6l.3,1.1h0c.9,1.6,1.9,3.2,2.8,4.9H7.5l.3,1c0,.2.1.4.5.6h.8c0,.1-.1.2-.1.3l1.6.3c.8-1.4,1.7-2.8,2.5-4.3v.2l1.4,2.4a.5.5,0,0,1,0,.5c-.3.4-.5.9-.8,1.4a20.8,20.8,0,0,0,3.4-.5l-.5-.9a.5.5,0,0,1,0-.5l1.8-3.1a.5.5,0,0,1,.5-.3h.4v-.4l.2-1v-.2h-.9c-.1,0-.3,0-.3-.2l-1.5-2.5h3.4l.3-1.2h0l.2-.9-1.8-3V13c.5-.9,1-1.8,1.6-2.7L22,12.4l.3-1.4v-.9l-.3-.6h.5l.4-1.6h-.9l.7-1.3.8-1.3h0l.5-1.7C23.9,4,21,4.5,17.1,4.7Zm-4,1.2a7.5,7.5,0,0,0,.7,1.2,10,10,0,0,0,.8,1.4c.1.2.1.3,0,.4a33.7,33.7,0,0,1-1.9,3.2l-.2.2H9.4C10.6,10.2,11.8,8,13.1,5.9ZM7,16.4l1.3-2.2c.1-.2.2-.2.4-.2h4l1.5,2.6H6.8C6.9,16.6,7,16.5,7,16.4Zm5.1,5.8-1.6,2.7L6.8,18.4H9.9a.2.2,0,0,1,.2.2c.7,1.1,1.3,2.2,1.9,3.3S12.1,22.1,12.1,22.2Zm5-.4c.1.1.2.3.1.4l-1.6,2.7-3.7-6.5h3a.5.5,0,0,1,.4.2Zm2.3-5H16.3l-.3-.2-1.9-3.3V13l1.5-2.7Zm-1.2-5.3a4.3,4.3,0,0,1-.4-.7L16.7,8.9c-.1-.1-.1-.2,0-.4l1.8-3.2c.1-.2.3-.2.5-.2h2.9C20.7,7.2,19.5,9.4,18.2,11.5Z" style="fill:#f7a4b4"/><path d="M10.8,14.5,8.7,7.1A1.6,1.6,0,0,0,6.8,5.9a1.7,1.7,0,0,0-1.2,2l2.1,7.5a1.5,1.5,0,0,0,1.9,1.1A1.7,1.7,0,0,0,10.8,14.5Z" style="fill:#fff;opacity:0.30000000000000004"/><path d="M14.2,8.2c-.3-.9-.5-2.1-1.7-2a1.6,1.6,0,0,0-1.6,1.6c.1,1,.3,2.4,1.5,2.7A1.6,1.6,0,0,0,14.2,8.2Z" style="fill:#fff;opacity:0.30000000000000004"/></g></g></svg>