<svg xmlns="http://www.w3.org/2000/svg" viewBox="0 0 19.5 32.2"><g id="Layer_2" data-name="Layer 2"><g id="Layer_1-2" data-name="Layer 1"><g id="Props"><g id="fu_dishes_soap_1" data-name="fu_dishes soap 1"><rect x="6.8" y="1" width="5.3" height="15.09" style="fill:#57386d"/><rect x="1" y="9.2" width="17.5" height="21.92" style="fill:#57386d"/><rect x="1" y="9.2" width="17.5" height="7.83" style="fill:#6a4c83"/><rect x="1" y="22.3" width="17.5" height="2.22" style="fill:#6a4c83"/><path d="M12.2,1V9.2h6.3v22H1V9.2H6.8V1h5.4m0-1H6.8a1,1,0,0,0-1,1V8.2H1a1,1,0,0,0-1,1v22a1,1,0,0,0,1,1H18.5a1.1,1.1,0,0,0,1-1V9.2a1.1,1.1,0,0,0-1-1H13.2V1a1,1,0,0,0-1-1Z" style="fill:#502390"/></g></g></g></g></svg>