<svg xmlns="http://www.w3.org/2000/svg" xmlns:xlink="http://www.w3.org/1999/xlink" viewBox="0 0 317.6 376.1"><defs><clipPath id="clip-path"><path d="M297.8,280.3l-26,54.3c0,2.7-23.8,5.1-58.8,6.3-16.1.5-34.5.9-54.2.9-62.4,0-113-3.3-113-7.2L29.1,297.5l-7.7-17.2Z" style="fill:#e5c6ac"/></clipPath><clipPath id="clip-path-2"><path d="M246.1,126.2c0,1-4.1,1.9-11.3,2.7-12.9,1.4-35.6,2.4-62.2,2.6H148.2c-26-.3-48.1-1.2-60.8-2.6-7.2-.8-11.3-1.7-11.3-2.7,0-2.7,32.4-5,74.4-5.3h19.7C212.9,121.2,246.1,123.5,246.1,126.2Z" style="fill:none"/></clipPath><clipPath id="clip-path-3"><path d="M225.9,49.9c0,.7-3.2,1.3-8.9,1.8-11.7,1.2-33.3,1.9-58.2,1.9s-46.5-.7-58.1-1.9c-5.8-.5-9-1.1-9-1.8s30-3.7,67.1-3.7S225.9,47.9,225.9,49.9Z" style="fill:none"/></clipPath></defs><g style="isolation:isolate"><g id="Layer_2" data-name="Layer 2"><g id="Layer_1-2" data-name="Layer 1"><path d="M158.8,257.7c86.1,0,155.8,4.6,155.8,10.2h0v14.5c0,1.5-7.3,3.1-20,4.6l-22.8,47.6c0,2.7-23.8,5.1-58.8,6.3-16.1.5-34.5.9-54.2.9-62.4,0-113-3.3-113-7.2L29.1,297.5l-4.7-10.3C10.8,285.6,3,284,3,282.4V267.9H3c0-5.6,69.8-10.2,155.8-10.2m0-3c-41.7,0-80.9,1.1-110.4,3-14.4.9-25.7,2-33.6,3.3a64.8,64.8,0,0,0-9.6,2c-1.4.5-5.2,1.7-5.2,4.9v14.5c0,3.3,3.8,4.4,8,5.3a137.1,137.1,0,0,0,14.4,2.2l4,8.8,16.5,36.8c.6,2.7,4.4,3.8,11.4,4.9s14,1.6,24.4,2.3c21.4,1.3,49.9,2.1,80.1,2.1,18.8,0,37.6-.4,54.3-.9s32.4-1.5,42.8-2.6q7.9-.9,12.3-1.8c2.2-.5,5.8-1.3,6.5-4l21.9-45.7c5.7-.7,10.2-1.4,13.4-2.1s7.6-2,7.6-5.3V267.9c0-3.2-3.8-4.4-5.2-4.9a64.8,64.8,0,0,0-9.6-2c-7.9-1.3-19.2-2.4-33.6-3.3-29.5-1.9-68.7-3-110.4-3Z" style="fill:#a8662f"/><path d="M297.8,280.3l-26,54.3c0,2.7-23.8,5.1-58.8,6.3-16.1.5-34.5.9-54.2.9-62.4,0-113-3.3-113-7.2L29.1,297.5l-7.7-17.2Z" style="fill:#e5c6ac"/><g style="clip-path:url(#clip-path)"><path d="M182.3,333.4c-.9,23.6-11.1,42.7-22.7,42.7s-21.9-19.1-22.7-42.7,9.3-42.7,22.7-42.7S183.1,309.8,182.3,333.4Z" style="fill:#eed2b7"/><g style="opacity:0.65;mix-blend-mode:multiply"><path d="M174.3,333.4c-.4,15.3-7,27.7-14.7,27.7s-14.4-12.4-14.7-27.7,6.2-27.7,14.7-27.7S174.6,318.1,174.3,333.4Z" style="fill:#d1b99a"/></g><path d="M174.3,336.1c-.4,13.8-7,25-14.7,25s-14.4-11.2-14.7-25,6.2-25.1,14.7-25.1S174.6,322.2,174.3,336.1Z" style="fill:#e5c6ac"/><path d="M139.7,333.4c.8,23.6-8.1,42.7-19.8,42.6s-23.1-19.2-25.6-42.8,6.4-42.6,19.8-42.6S138.9,309.8,139.7,333.4Z" style="fill:#eed2b7"/><path d="M97.8,333.2c2.4,23.6-5.2,42.7-16.9,42.6s-24.4-19.4-28.4-43,3.5-42.6,16.9-42.5S95.5,309.6,97.8,333.2Z" style="fill:#eed2b7"/><path d="M55.2,332.9c4,23.6-2.3,42.6-13.9,42.5S15.5,355.9,9.8,332.3s.7-42.7,14.1-42.5S51.2,309.2,55.2,332.9Z" style="fill:#eed2b7"/><g style="opacity:0.65;mix-blend-mode:multiply"><path d="M131.7,333.4c.7,15.3-5,27.7-12.8,27.6s-15.2-12.4-16.6-27.7,4.3-27.7,12.8-27.7S131,318.1,131.7,333.4Z" style="fill:#d1b99a"/></g><g style="opacity:0.65;mix-blend-mode:multiply"><path d="M89.5,333.2c1.7,15.3-3.2,27.6-11,27.6s-16-12.6-18.5-27.9,2.5-27.7,11-27.6S87.8,317.9,89.5,333.2Z" style="fill:#d1b99a"/></g><g style="opacity:0.65;mix-blend-mode:multiply"><path d="M45.7,332.8c2.8,15.3-1.2,27.6-9,27.5s-17-12.6-20.5-27.9.6-27.7,9.1-27.6S42.9,317.4,45.7,332.8Z" style="fill:#d1b99a"/></g><path d="M131.7,336c.7,13.9-5,25.1-12.8,25s-15.2-11.3-16.6-25.1,4.3-25,12.8-25S131,322.2,131.7,336Z" style="fill:#e5c6ac"/><path d="M89.5,335.8c1.7,13.9-3.2,25.1-11,25s-16-11.3-18.5-25.2,2.5-25,11-25S87.8,322,89.5,335.8Z" style="fill:#e5c6ac"/><path d="M45.7,335.5c2.8,13.8-1.2,25-9,24.9s-17-11.4-20.5-25.3.6-25,9.1-24.9S42.9,321.6,45.7,335.5Z" style="fill:#e5c6ac"/><path d="M309.3,332.3c-5.6,23.6-19.7,42.9-31.4,43.1S260,356.5,264,332.9s17.9-42.9,31.3-43.1S315,308.6,309.3,332.3Z" style="fill:#eed2b7"/><path d="M267.4,332.8c-4,23.6-16.8,42.9-28.5,43s-19.2-19-16.8-42.6,15.1-42.8,28.5-42.9S271.5,309.2,267.4,332.8Z" style="fill:#eed2b7"/><path d="M224.8,333.2c-2.4,23.6-13.9,42.8-25.6,42.8s-20.5-19-19.7-42.6,12.2-42.7,25.5-42.8S227.3,309.6,224.8,333.2Z" style="fill:#eed2b7"/><g style="opacity:0.65;mix-blend-mode:multiply"><path d="M301.3,332.4c-3.4,15.3-12.6,27.9-20.3,28s-11.8-12.3-9.1-27.6,11.9-27.9,20.4-28S304.8,317,301.3,332.4Z" style="fill:#d1b99a"/></g><g style="opacity:0.65;mix-blend-mode:multiply"><path d="M259.1,332.9c-2.4,15.3-10.7,27.8-18.5,27.9s-12.7-12.3-10.9-27.6,10-27.8,18.4-27.9S261.5,317.6,259.1,332.9Z" style="fill:#d1b99a"/></g><g style="opacity:0.65;mix-blend-mode:multiply"><path d="M215.3,333.3c-1.4,15.3-8.8,27.7-16.6,27.7s-13.5-12.3-12.8-27.6,8-27.7,16.5-27.8S216.6,318,215.3,333.3Z" style="fill:#d1b99a"/></g><path d="M301.3,335.1c-3.4,13.9-12.6,25.2-20.3,25.3s-11.8-11.1-9.1-24.9,11.9-25.2,20.4-25.3S304.8,321.2,301.3,335.1Z" style="fill:#e5c6ac"/><path d="M259.1,335.6c-2.4,13.8-10.7,25.1-18.5,25.2s-12.7-11.1-10.9-25,10-25.1,18.4-25.2S261.5,321.7,259.1,335.6Z" style="fill:#e5c6ac"/><path d="M215.3,335.9c-1.4,13.8-8.8,25.1-16.6,25.1s-13.5-11.1-12.8-25,8-25.1,16.5-25.1S216.6,322.1,215.3,335.9Z" style="fill:#e5c6ac"/></g><g style="opacity:0.85;mix-blend-mode:multiply"><path d="M297.8,280.3l-26,54.3c0,2.7-23.8,5.1-58.8,6.3-53.7-25.1-145.7-38.7-183.9-43.4l-7.7-17.2Z" style="fill:#d1b99a"/></g><path d="M158.8,257.7c86.1,0,155.8,4.6,155.8,10.2h0v14.5c0,4.6-69.5,10.3-155.6,10.3S3,287,3,282.4V267.9H3c0-5.6,69.8-10.2,155.8-10.2m0-3c-41.7,0-80.9,1.1-110.4,3-14.4.9-25.7,2-33.6,3.3a64.8,64.8,0,0,0-9.6,2c-1.4.5-5.2,1.7-5.2,4.9v14.5c0,3.4,3.3,4.8,14.8,6.5,8.1,1.2,19.7,2.4,33.7,3.4,31.3,2.2,70.5,3.4,110.5,3.4s79.2-1.2,110.3-3.4c14-1,25.6-2.2,33.5-3.4,11.5-1.7,14.8-3.1,14.8-6.5V267.9c0-3.2-3.8-4.4-5.2-4.9a64.8,64.8,0,0,0-9.6-2c-7.9-1.3-19.2-2.4-33.6-3.3-29.5-1.9-68.7-3-110.4-3Z" style="fill:#a8662f"/><path d="M3,267.9v14.5c0,4.6,69.9,10.3,156,10.3s155.6-5.7,155.6-10.3V267.9Z" style="fill:#e5c6ac"/><ellipse cx="158.8" cy="267.9" rx="155.8" ry="10.2" style="fill:#ffe6d2"/><path d="M297.8,267.9c0,1.3-6.9,2.5-18.8,3.5-24.1,2.1-68.9,3.5-120.2,3.5s-96.4-1.4-120.4-3.5c-11.8-1-18.6-2.2-18.6-3.5,0-3.8,62.2-6.9,139-6.9S297.8,264.1,297.8,267.9Z" style="fill:#ddb99b"/><path d="M279,271.4c-24.1,2.1-68.9,3.5-120.2,3.5s-96.4-1.4-120.4-3.5c24.1-2.1,68.8-3.5,120.1-3.5S255,269.3,279,271.4Z" style="fill:#98d9e4"/><path d="M175,171c-2.3.2-5.7,3.9-8.4,8.1h-.9l-3.4.3h-5.8l-3.3-.3-2.2-.2c-2.7-4.1-6.2-7.7-8.4-7.9-4.6-.4,16.2,0,16.2,0S179.6,170.6,175,171Z" style="fill:#d1b99a;mix-blend-mode:multiply"/><path d="M215.6,133.5h1.9a4.8,4.8,0,0,1-.2,1.3h21.6c-4.4,9.3-11.4,16.3-19.5,21.7-11.5,7.8-25.2,12.2-36.8,14.6l-6.2,1.1-4.3.7h-.5a16.6,16.6,0,0,0-2.3,2.3h0l-.5.6h-.1l-.4.5-.2.2-.3.4c0,.1-.1.2-.2.4l-.2.2-.4.5v.2l-.4.6h0l-.5.7v.2l-.4.6c0,.1-.1.2-.1.3l-.3.5-.2.4-.2.4-.2.4-.2.4c-.1.1-.1.3-.2.4l-.2.4c0,.1-.1.3-.1.4l-.2.3c0,.2-.1.3-.1.4s-.1.3-.2.4-.1.2-.1.4v.3c0,.1-.1.2-.1.4s-.1.2-.1.3a.4.4,0,0,1-.1.3v.3a.4.4,0,0,1-.1.3v1.6l.3.7c2,4.1,20.3,14.3,22,32.3s-23.7,22.4-23.7,22.4,10.4,16.1,10.4,21.5h0v.5h0a.8.8,0,0,1-.2.4c-.4.9-1.7,1.6-3.5,2.1l-1.2.3a39.7,39.7,0,0,1-8,.7c-6.2,0-12.5-1.2-12.9-3.5s4.9-13.1,8.2-18.5h0l2.2-3.6-1.7-.4c-5.6-1.3-23.4-6.8-22-22,1.7-18,20-28.2,22.1-32.3a.4.4,0,0,1,.1-.3h0c.7-2.2-1.2-6.7-3.8-10.8a39.7,39.7,0,0,0-5-6l-4.2-.6-6.2-1.2c-16.3-3.4-36.9-10.6-49.3-26a47,47,0,0,1-6-9.6h1.2l-.3-.7h21.6a4.8,4.8,0,0,1-.2-1.3h2a5.9,5.9,0,0,0,.2,1.3H215.4c.1-.8.2-1.3.2-1.3m23.3,1.3h0m-23.3-4.3a3,3,0,0,0-2.1.8l-.4.5h-106a1,1,0,0,1-.4-.5,3.4,3.4,0,0,0-2.1-.8h-2a3.4,3.4,0,0,0-2.4,1.3h-19a3.3,3.3,0,0,0-2.1.9,2.7,2.7,0,0,0-1.4,1.2,3.3,3.3,0,0,0-.2,2.9A50.2,50.2,0,0,0,84,147c13.1,16.3,35,23.7,51,27,2,.5,4.1.8,6.3,1.2l3.3.5a34.9,34.9,0,0,1,3.9,4.9c2.8,4.4,3.5,7.3,3.4,8.1a26.9,26.9,0,0,1-3.8,3.7c-6.4,5.7-17.1,15.2-18.5,29.6s14.3,22.4,22,24.6v.2h-.1c-9.3,15.4-8.7,19-8.4,20.4.9,5.2,10.3,6,15.8,6a44.2,44.2,0,0,0,8.6-.8l1.4-.3c2.8-.8,4.5-2,5.4-3.5a5,5,0,0,0,.4-1.3h0a1.8,1.8,0,0,0,.1-.6v-.6c0-4.6-5.3-14.1-8.6-19.5a44.6,44.6,0,0,0,9.1-3.7c9.2-5,13.6-12.2,12.8-20.9-1.3-14.4-12.1-23.9-18.5-29.6a34.2,34.2,0,0,1-3.8-3.7h0v-.2h0v-.2h.1v-.2h.1v-.2h0v-.2h.1c0-.1,0-.2.1-.2v-.2h.1c0-.1.1-.2.1-.3h.1v-.2h.1c0-.1,0-.1.1-.2v-.2h0V184h0l.2-.2a.4.4,0,0,1,.1-.3h.1v-.4l.3-.4h0v-.2h0a2.1,2.1,0,0,0,.4-.6h.1l.4-.7a1.6,1.6,0,0,0,.4-.7h.1l.3-.5h.2l.2-.2h.1l.2-.3h.2l.3-.4v-.2l.5-.5h0l1.3-1.5,4-.6q3.2-.4,6.3-1.2c15.1-3.1,27.9-8.2,37.9-15s16.2-13.9,20.5-22.8a3.2,3.2,0,0,0,.3-1.4,3,3,0,0,0-3-3H220a3.6,3.6,0,0,0-2.4-1.3Z" style="fill:#a8662f"/><path d="M161.3,244.7s11.2,17.3,10.4,22.1c-.2,1.3-2.2,2.2-4.9,2.8-7.4,1.6-20.3.6-20.9-2.8s4.9-13.1,8.2-18.5l2.2-3.6-1.7-.4c-5.6-1.3-23.4-6.8-22-22,1.7-18,20-28.2,22.1-32.3a.4.4,0,0,1,.1-.3c1.5-4.4-7.7-18.3-12.2-18.7s16.2,0,16.2,0,20.8-.4,16.2,0-14.1,15-12,19,20.3,14.3,22,32.3S161.3,244.7,161.3,244.7Z" style="fill:#c1a687"/><g style="opacity:0.35000000000000003;mix-blend-mode:multiply"><path d="M161.3,244.7s11.2,17.3,10.4,22.1c-.2,1.3-2.2,2.2-4.9,2.8,3.3-11.6-6.7-18.3-12.7-21.3l2.2-3.6-1.7-.4c4.3-2.9,10.2-9.5,11.7-24.2,1.4-12.5-5-23.1-11.5-30.4.7-2.2-1.2-6.7-3.8-10.8s-6.2-7.7-8.4-7.9c-4.6-.4,16.2,0,16.2,0s20.8-.4,16.2,0c-2.3.2-5.7,3.9-8.4,8.1S161.9,188,163,190c2,4.1,20.3,14.3,22,32.3S161.3,244.7,161.3,244.7Z" style="fill:#d1b99a"/></g><path d="M237.9,135.5c-10.4,22.1-35.9,31.5-55.3,35.6l-6.2,1.1-4.3.7c-2.5.4-4.8.6-6.7.8l-3.4.3h-5.8l-3.4-.3c-3-.3-6.7-.7-11-1.4l-6.2-1.2c-16.3-3.4-36.9-10.6-49.3-26a47,47,0,0,1-6-9.6Z" style="fill:#d1b99a"/><g style="opacity:0.35000000000000003;mix-blend-mode:multiply"><path d="M215.6,133.5s-.1.5-.2,1.3-2,7-7,13.2-14.1,14.6-31,23.6l6.1-1.1c14-8.2,22-15.8,26.5-21.4s6.9-12,7.3-14.3a4.8,4.8,0,0,0,.2-1.3Zm-25.8,1.4c0,.2-1.5,17.5-26.9,38.4l3.4-.3c23.9-20.5,25.4-37.1,25.4-37.9ZM158,135l.9,38.4h2l-1-38.5Zm-27.7-.1-1.9.2c.1.8,1.5,17.4,25.4,37.9l3.4.3C131.9,152.4,130.3,135.1,130.3,134.9ZM111.7,148c-4.9-6.2-6.5-11-6.9-13.2a5.9,5.9,0,0,1-.2-1.3h-2a4.8,4.8,0,0,0,.2,1.3c.4,2.3,1.9,7.5,7.3,14.3s12.5,13.2,26.5,21.4l6.2,1.1C125.9,162.6,116.7,154.1,111.7,148Z" style="fill:#d1b99a"/></g><g style="mix-blend-mode:multiply"><path d="M238.9,134.8c-12.5,26.4-46.4,34.8-65.8,37.5-12.9-25.8-70.8-27.8-85.8-27.8a49.9,49.9,0,0,1-6.1-9.7Z" style="fill:#d1b99a"/></g><path d="M161.1,117.5c52.6,0,95.2,3.9,95.2,8.7v6.9c0,4.9-42.6,8.8-95.2,8.8s-95.2-3.9-95.2-8.8v-6.9c0-4.8,42.6-8.7,95.2-8.7m0-3c-25.5,0-49.5.9-67.6,2.6a173.4,173.4,0,0,0-20.8,2.8c-4.7,1-9.8,2.5-9.8,6.3v6.9c0,3.9,5.1,5.3,9.8,6.4a196.8,196.8,0,0,0,20.8,2.8c18.1,1.6,42.1,2.6,67.6,2.6s49.5-1,67.6-2.6a198,198,0,0,0,20.7-2.8c4.8-1.1,9.9-2.5,9.9-6.4v-6.9c0-3.8-5.1-5.3-9.9-6.3a174.2,174.2,0,0,0-20.7-2.8c-18.1-1.7-42.1-2.6-67.6-2.6Z" style="fill:#a8662f"/><path d="M218.7,126.2c-16-1.1-36-1.8-57.6-1.8s-41.6.7-57.6,1.8H65.9v6.9c0,4.9,42.6,8.8,95.2,8.8s95.2-3.9,95.2-8.8v-6.9Z" style="fill:#e2c7aa"/><path d="M161.1,135.9c-25.5,0-49.4-.9-67.4-2.5-28.8-2.7-28.8-5.8-28.8-7.2s0-4.5,28.8-7.1c18-1.7,41.9-2.6,67.4-2.6s49.4.9,67.4,2.6c28.8,2.6,28.8,5.8,28.8,7.1s0,4.5-28.8,7.2C210.5,135,186.5,135.9,161.1,135.9Z" style="fill:#f0d7af"/><path d="M161.1,117.5c52.6,0,95.2,3.9,95.2,8.7s-42.6,8.7-95.2,8.7-95.2-3.9-95.2-8.7,42.6-8.7,95.2-8.7m0-2c-25.5,0-49.5.9-67.5,2.6a174.2,174.2,0,0,0-20.7,2.8c-5.4,1.2-9,2.5-9,5.3s3.6,4.2,9,5.4a198,198,0,0,0,20.7,2.8c18,1.6,42,2.5,67.5,2.5s49.4-.9,67.5-2.5a191.7,191.7,0,0,0,20.6-2.8c5.5-1.2,9.1-2.6,9.1-5.4s-3.6-4.1-9.1-5.3a169,169,0,0,0-20.6-2.8c-18.1-1.7-42-2.6-67.5-2.6Z" style="fill:#ce894a"/><g style="clip-path:url(#clip-path-2)"><path d="M246.1,126.2c0,1-4.1,1.9-11.3,2.7-12.9,1.4-35.6,2.4-62.2,2.6H148.2c-26-.3-48.1-1.2-60.8-2.6-7.2-.8-11.3-1.7-11.3-2.7,0-2.7,32.4-5,74.4-5.3h19.7C212.9,121.2,246.1,123.5,246.1,126.2Z" style="fill:#d1b99a"/><path d="M161.1,132.6H148.2c-25.8-.3-47.9-1.2-60.9-2.6a1.1,1.1,0,0,1-.9-1,1,1,0,0,1,.9-1c13.3-1.5,37-2.4,63.2-2.6h19.7c27,.2,51.1,1.2,64.7,2.7a1,1,0,0,1,.9,1,1.1,1.1,0,0,1-.9,1c-13.1,1.4-36.4,2.4-62.3,2.6Z" style="fill:#98d9e4"/><path d="M161.1,126.2h9.1c27.7.2,51.4,1.2,64.6,2.7-12.9,1.4-35.6,2.4-62.2,2.6H148.2c-26-.3-48.1-1.2-60.8-2.6,13-1.4,36.1-2.4,63.1-2.6h10.6m0-2H150.5c-26.3.2-49.9,1.1-63.3,2.6a2,2,0,0,0,0,4c13,1.4,35.2,2.3,60.9,2.6h24.5c26-.2,49.3-1.2,62.4-2.6a2,2,0,0,0,0-4c-13.6-1.5-37.8-2.5-64.7-2.7Z" style="fill:#6ab3b9"/></g><path d="M213.5,55.6h1.9a7.7,7.7,0,0,1-.4,2.2h7.4l-.9,2.2-.3.6-.7,1.6-.3.6-1,1.9a.1.1,0,0,0-.1.1L218,66.8l-.4.5-.9,1.3-.4.6-1.1,1.5-.2.2-1.3,1.7-.4.4-1,1.2-.5.4-1.2,1.3-.3.2-1.5,1.5-.4.3-1.1,1-.5.4-1.3,1-.3.3-1.7,1.2-.4.3-1.2.9-.6.3a5.7,5.7,0,0,1-1.3.8l-.4.3-1.7,1-.4.2-1.3.7-.6.3-1.2.7-.5.2-1.7.8-.5.2-1.2.6-.7.2-1.1.5-.6.3-1.6.6-.6.2-1.1.4-.8.2-.9.3-.8.3H182l-1.7.5H180l-1.7.5H178l-1.7.5h-.1l-4.6,1h-.2l-2.4.4h0l-5.3.8v.5h0a4.1,4.1,0,0,0-.1,1.1h0c0,.8-.1,1.5-.1,2.3h0c0,.8.1,1.5.1,2.3h0c.1.7.1,1.5.2,2.2s.1.1.1.2l.3,1.7h0c.1.6.3,1.2.4,1.7h0a54.7,54.7,0,0,0,4.1,9.4c.8,1.6,1.7,3.4,2.6,5.6a4.9,4.9,0,0,1,.4,3.5,3.4,3.4,0,0,1-.7,1.5H146.6a4.9,4.9,0,0,1-.3-5c.9-2.2,1.8-4,2.6-5.6,2.2-4.2,3.8-7.2,4.7-12h0a5,5,0,0,1,.2-1.2,30,30,0,0,0,.3-4.3c0-1.4-.1-2.8-.2-4.1l-1-.2a94.7,94.7,0,0,1-11.3-1.9,71.9,71.9,0,0,1-7.9-2.1c-12.8-4-27.4-11.6-36.2-26h0a56.8,56.8,0,0,1-4-8.2h7.4a17.2,17.2,0,0,1-.4-2.2h2a9.3,9.3,0,0,0,.4,2.3h23.5a2.6,2.6,0,0,1-.1-.7h1.9a7.3,7.3,0,0,1,.2.8h27.5v-.7h1.9v.8h29.8a4.5,4.5,0,0,0,.1-.8h1.9a2.6,2.6,0,0,1-.1.7H213a15.5,15.5,0,0,0,.5-2.3m8.9,2.3h0m-8.9-5.3a2.7,2.7,0,0,0-2.1.9,4.2,4.2,0,0,0-.9,1.4H191.6a3.6,3.6,0,0,0-1.7-.7h-2.2a2.6,2.6,0,0,0-2,.8H159.9a3.2,3.2,0,0,0-2.1-.8h-2a3.2,3.2,0,0,0-1.9.7H130.3a2.8,2.8,0,0,0-2.1-.8h-2.1a2.9,2.9,0,0,0-1.7.7h-19a3.1,3.1,0,0,0-2.9-2.3h-2a3,3,0,0,0-2.9,2.2H93.5A3.1,3.1,0,0,0,91,56.2a3.5,3.5,0,0,0-.3,2.8A50.3,50.3,0,0,0,95,67.7c7.6,12.4,20.7,21.9,37.8,27.3,2.6.8,5.4,1.5,8.2,2.2s6.7,1.3,10.1,1.8v1.4a23.8,23.8,0,0,1-.3,3.9,3.6,3.6,0,0,1-.2,1c-.7,4.1-2,6.7-3.9,10.3l-.4,1c-.9,1.7-1.8,3.5-2.8,5.7a7.9,7.9,0,0,0,.6,7.9,3.1,3.1,0,0,0,2.5,1.3h24.5a3.1,3.1,0,0,0,2.4-1.3,7.1,7.1,0,0,0,1.1-2.5,7.9,7.9,0,0,0-.5-5.4c-1-2.3-2-4.2-2.7-5.7l-.5-1a40.9,40.9,0,0,1-3.4-7.9,12.4,12.4,0,0,0-.4-1.6h0l-.3-1.6h0a13.6,13.6,0,0,1-.2-2c0-.8-.1-1.5-.1-2.2a7.1,7.1,0,0,1,.1-1.4l2.9-.4h.1l2.4-.4h.2l4.7-1.1h.1l1.8-.5h.3l1.7-.5h.3l1.7-.5h.4l.7-.3h.1l1-.3.8-.3,1.1-.4h.6l1.7-.7h.6l1.2-.5.7-.3,1.3-.6h.1l.4-.2,1.7-.8.3-.2h.2l1.3-.6.6-.3,1.4-.8h.4l1.8-1.1h.4l1.4-.9.5-.3,1.3-.9h.2l.3-.3L207,83l.2-.2h.1l1.4-1,.5-.5,1.2-1,.2-.2a.2.2,0,0,0,.2-.2l1.6-1.5c.1-.1.2-.1.2-.2h.1l1.3-1.3.5-.5,1.1-1.2v-.2l.3-.3,1.4-1.7v-.2h.1l1.2-1.6.3-.5h.1l.9-1.5h.2a.5.5,0,0,1,.2-.4,11.3,11.3,0,0,0,1.2-2.1h.1l1.1-2a.8.8,0,0,1,.2-.4v-.2l.8-1.7h0c.1-.2.2-.3.2-.5l1-2.2a3.7,3.7,0,0,0,.2-1.2,3,3,0,0,0-3-3h-4.1a3,3,0,0,0-2.8-2.2Z" style="fill:#a8662f"/><path d="M171,128.5H146.6a4.9,4.9,0,0,1-.3-5c.9-2.2,1.8-4,2.6-5.6,2.2-4.2,3.8-7.2,4.7-12a5,5,0,0,1,.2-1.2c1.1-7.5-1.1-17.2-1.1-17.2H165s-2.3,9.7-1.2,17.2c.9,5.5,2.6,8.6,4.9,13.2.8,1.6,1.7,3.4,2.6,5.6A4.6,4.6,0,0,1,171,128.5Z" style="fill:#c1a687"/><g style="opacity:0.35000000000000003;mix-blend-mode:multiply"><path d="M171,128.5h-9.1c.6-11.9-4.1-18.9-8.3-22.7a5,5,0,0,1,.2-1.2,30,30,0,0,0,.3-4.3,70.5,70.5,0,0,0-1.4-12.9H165a62.4,62.4,0,0,0-1.5,12.6,34.4,34.4,0,0,0,.3,4.6c.9,5.5,2.6,8.6,4.9,13.2.8,1.6,1.7,3.4,2.6,5.6A4.6,4.6,0,0,1,171,128.5Z" style="fill:#d1b99a"/></g><path d="M165,87.5a62.4,62.4,0,0,0-1.5,12.6h-1.2l-3.4.4h-3.3l-1.5-.2a70.5,70.5,0,0,0-1.4-12.9Z" style="fill:#d1b99a;mix-blend-mode:multiply"/><path d="M222.4,57.9c-7.7,19.8-25.2,29.5-40.2,34.2a66.5,66.5,0,0,1-7.9,2.1c-1.9.5-3.7.8-5.3,1.1l-5.9.9-3.5.3h-3.2l-3.5-.4a94.7,94.7,0,0,1-11.3-1.9,71.9,71.9,0,0,1-7.9-2.1c-12.8-4-27.4-11.6-36.2-26a56.8,56.8,0,0,1-4-8.2Z" style="fill:#d1b99a"/><g style="opacity:0.35000000000000003;mix-blend-mode:multiply"><path d="M141.6,94.2a71.9,71.9,0,0,1-7.9-2.1c-13.5-7.9-21.3-15.4-25.7-20.9s-6.5-10.6-7.1-13.3a17.2,17.2,0,0,1-.4-2.2h2a9.3,9.3,0,0,0,.4,2.3c.7,2.5,2.4,6.8,6.8,12.2S124.1,85.1,141.6,94.2Z" style="fill:#d1b99a"/><path d="M156.4,96.5l-3.5-.4c-22.5-18.9-26-34.6-26.5-38.2a2.6,2.6,0,0,1-.1-.7h1.9a7.3,7.3,0,0,1,.2.8C129.1,61.8,133.2,77.8,156.4,96.5Z" style="fill:#d1b99a"/><path d="M215.4,55.7a7.7,7.7,0,0,1-.4,2.2c-.6,2.7-2.3,7.4-7.1,13.3s-12.2,13-25.7,20.9a66.5,66.5,0,0,1-7.9,2.1c17.5-9.1,27-17.8,32-24.1A35.1,35.1,0,0,0,213,57.9a15.5,15.5,0,0,0,.5-2.3Z" style="fill:#d1b99a"/><path d="M189.6,57.2a2.6,2.6,0,0,1-.1.7c-.5,3.6-4,19.3-26.4,38.3l-3.5.3c23.2-18.8,27.3-34.7,28-38.6a4.5,4.5,0,0,0,.1-.8Z" style="fill:#d1b99a"/><path d="M157.1,96.5h-.2l-1-38.6v-.7h1.9v.8l1,38.7h-1.7Z" style="fill:#d1b99a"/></g><g style="mix-blend-mode:multiply"><path d="M222.4,57.9C212.3,84.1,184.9,92.6,169,95.3c-10-27.9-61.3-29.5-71.5-29.2a56.8,56.8,0,0,1-4-8.2Z" style="fill:#d1b99a"/></g><path d="M158.8,42.6c43,0,77.8,3.3,77.8,7.3v5.8c0,4-34.8,7.2-77.8,7.2S81,59.7,81,55.7V49.9c0-4,34.8-7.3,77.8-7.3m0-3c-20.9,0-40.5.8-55.3,2.2-7.3.7-13,1.5-17,2.3S78,46.3,78,49.9v5.8c0,3.6,4.4,4.8,8.5,5.7a146.2,146.2,0,0,0,17,2.4c14.8,1.4,34.4,2.1,55.3,2.1s40.5-.7,55.3-2.1a151.9,151.9,0,0,0,17.1-2.4c4.1-.9,8.4-2.1,8.4-5.7V49.9c0-3.6-4.3-4.8-8.4-5.8s-9.8-1.6-17.1-2.3c-14.8-1.4-34.4-2.2-55.3-2.2Z" style="fill:#a8662f"/><path d="M205.9,49.9c-13.1-.9-29.4-1.5-47.1-1.5s-34,.6-47.1,1.5H81v5.8c0,4,34.8,7.2,77.8,7.2s77.8-3.2,77.8-7.2V49.9Z" style="fill:#e2c7aa"/><path d="M158.8,58.2c-20.8,0-40.4-.8-55.1-2.2C80,53.8,80,51.2,80,49.9s0-3.9,23.7-6.1c14.7-1.4,34.3-2.2,55.1-2.2s40.4.8,55.1,2.2c23.7,2.2,23.7,4.8,23.7,6.1s0,3.9-23.7,6.1C199.2,57.4,179.6,58.2,158.8,58.2Z" style="fill:#f0d7af"/><path d="M158.8,42.6c43,0,77.8,3.3,77.8,7.3s-34.8,7.3-77.8,7.3S81,53.9,81,49.9s34.8-7.3,77.8-7.3m0-2c-20.8,0-40.4.8-55.2,2.2a151.2,151.2,0,0,0-16.9,2.3c-4.6,1-7.7,2.2-7.7,4.8s3.1,3.8,7.7,4.8A130.7,130.7,0,0,0,103.6,57c14.8,1.4,34.4,2.2,55.2,2.2s40.5-.8,55.2-2.2a130.7,130.7,0,0,0,16.9-2.3c4.7-1,7.7-2.2,7.7-4.8s-3-3.8-7.7-4.8A151.2,151.2,0,0,0,214,42.8c-14.7-1.4-34.3-2.2-55.2-2.2Z" style="fill:#ce894a"/><g style="clip-path:url(#clip-path-3)"><path d="M225.9,49.9c0,.7-3.2,1.3-8.9,1.8-11.7,1.2-33.3,1.9-58.2,1.9s-46.5-.7-58.1-1.9c-5.8-.5-9-1.1-9-1.8s30-3.7,67.1-3.7S225.9,47.9,225.9,49.9Z" style="fill:#d1b99a"/><path d="M158.8,54.6c-23.9,0-46.3-.7-58.2-1.9a.9.9,0,0,1-.9-1,1.1,1.1,0,0,1,.9-1c11.9-1.1,34.3-1.8,58.2-1.8s46.3.7,58.2,1.8a1.1,1.1,0,0,1,1,1,.9.9,0,0,1-1,1C205.1,53.9,182.8,54.6,158.8,54.6Z" style="fill:#98d9e4"/><path d="M158.8,49.9c24.9,0,46.5.7,58.2,1.8-11.7,1.2-33.3,1.9-58.2,1.9s-46.5-.7-58.1-1.9c11.6-1.1,33.3-1.8,58.1-1.8m0-2c-24,0-46.3.7-58.3,1.9a1.9,1.9,0,0,0-1.8,1.9,1.9,1.9,0,0,0,1.8,2c12,1.2,34.3,1.9,58.3,1.9s46.3-.7,58.3-1.9a2,2,0,0,0,1.9-2,2,2,0,0,0-1.9-1.9c-12-1.2-34.3-1.9-58.3-1.9Z" style="fill:#6ab3b9"/></g><path d="M251.9,268.5l1-129.4a12.4,12.4,0,0,0-7.8-11.7c-4.1-1.6-9.3-3.1-13.9,1,0,0,7.3-1.8,7.1,4.8s-.2,118.6-.3,134.7" style="fill:none;stroke:#6ab3b9;stroke-linecap:round;stroke-linejoin:round;stroke-width:5px"/><path d="M217.2,267.9l1-128.8a12.4,12.4,0,0,0-7.8-11.7c-4.1-1.6-9.3-3.1-13.8,1,0,0,7.2-1.8,7,4.8s-.2,118.5-.2,134.7" style="fill:none;stroke:#6ab3b9;stroke-linecap:round;stroke-linejoin:round;stroke-width:5px"/><path d="M84.2,268.4c0-14.7,0-129-.2-135.2s7.1-4.8,7.1-4.8c-4.6-4.1-9.8-2.6-13.9-1a12.4,12.4,0,0,0-7.8,11.7l1,129.6" style="fill:none;stroke:#6ab3b9;stroke-linecap:round;stroke-linejoin:round;stroke-width:5px"/><path d="M123.2,268.2c0-15.4,0-128.9-.2-135s7.1-4.8,7.1-4.8c-4.6-4.1-9.8-2.6-13.9-1a12.4,12.4,0,0,0-7.8,11.7l1,129.2" style="fill:none;stroke:#6ab3b9;stroke-linecap:round;stroke-linejoin:round;stroke-width:5px"/><path d="M231.2,128.4s7.3-1.8,7.1,4.8S238,270,238,270h13.8l1.1-130.9a12.4,12.4,0,0,0-7.8-11.7C241,125.8,235.8,124.3,231.2,128.4Z" style="fill:#98d9e4"/><path d="M240.6,135V258.4c.2.7,1.1,16.3,1.5-.9.1-4.6,2.2-84,2.2-84s1.9-5.8,1.9-.4v71.3s2.5,7.9,2.7-9.4,1.4-89,1.3-91.7-3-6.5-4,1.3-1.1-2.7-1.4-7.3S240.6,126.7,240.6,135Z" style="fill:#bbedf2"/><path d="M196.6,128.4s7.2-1.8,7,4.8-.2,136.8-.2,136.8h13.8l1-130.9a12.4,12.4,0,0,0-7.8-11.7C206.3,125.8,201.1,124.3,196.6,128.4Z" style="fill:#98d9e4"/><path d="M205.9,135V258.4c.3.7,1.2,16.3,1.6-.9.1-4.6,2.2-84,2.2-84s1.8-5.8,1.8-.4v71.3s2.5,7.9,2.7-9.4,1.5-89,1.4-91.7-3.1-6.5-4.1,1.3-1.1-2.7-1.4-7.3S205.9,126.7,205.9,135Z" style="fill:#bbedf2"/><path d="M91.1,128.4s-7.3-1.8-7.1,4.8.2,136.8.2,136.8H70.4l-1-130.9a12.4,12.4,0,0,1,7.8-11.7C81.3,125.8,86.5,124.3,91.1,128.4Z" style="fill:#98d9e4"/><path d="M81.7,135V258.4c-.3.7-1.1,16.3-1.5-.9-.1-4.6-2.2-84-2.2-84s-1.9-5.8-1.9-.4v71.3s-2.5,7.9-2.7-9.4-1.5-89-1.3-91.7,3-6.5,4,1.3,1.1-2.7,1.4-7.3S81.7,126.7,81.7,135Z" style="fill:#bbedf2"/><path d="M130.1,128.4s-7.3-1.8-7.1,4.8.2,136.8.2,136.8H109.4l-1-130.9a12.4,12.4,0,0,1,7.8-11.7C120.3,125.8,125.5,124.3,130.1,128.4Z" style="fill:#98d9e4"/><path d="M120.7,135V258.4c-.3.7-1.1,16.3-1.5-.9-.1-4.6-2.2-84-2.2-84s-1.9-5.8-1.9-.4v71.3s-2.5,7.9-2.7-9.4-1.5-89-1.3-91.7,3-6.5,4,1.3,1.1-2.7,1.4-7.3S120.7,126.7,120.7,135Z" style="fill:#bbedf2"/><path d="M98,125.5c-.1-11.6-.8-62.4-.8-68s10.1-5.4,10.1-5.4c-6.5-6.8-18.8-2.6-21.1.7s-.5,61.1-.1,72.9" style="fill:none;stroke:#6ab3b9;stroke-linecap:round;stroke-linejoin:round;stroke-width:5px"/><path d="M234.2,126.2c.4-10.7,2.5-69.4-.1-73.4s-14.6-7.5-21.1-.7c0,0,10.1-1.4,10.1,5.4s-.6,57.4-.8,68.3" style="fill:none;stroke:#6ab3b9;stroke-linecap:round;stroke-linejoin:round;stroke-width:5px"/><path d="M107.3,52.1s-10.1-1.4-10.1,5.4.8,71.4.8,71.4H86.2s-2.9-71.7,0-76.1S100.8,45.3,107.3,52.1Z" style="fill:#98d9e4"/><path d="M94.6,57.9s2.9,62.3,1.3,62.4S93.1,97.4,93,92.9s-2.4-.2-2.1,3.7,1.6,28.4,0,29.4-2.3-5.4-2.2-12.8-.1-41.8,0-45,2.5-.6,2.6,7.9S92.9,80.2,93,75,91.8,46,94.6,57.9Z" style="fill:#bbedf2"/><path d="M213,52.1s10.1-1.4,10.1,5.4-.8,71.4-.8,71.4h11.8s2.9-71.7,0-76.1S219.5,45.3,213,52.1Z" style="fill:#98d9e4"/><path d="M225.8,57.9s-2.9,62.3-1.4,62.4,2.9-22.9,3-27.4,2.4-.2,2,3.7-1.6,28.4,0,29.4,2.3-5.4,2.2-12.8.2-41.8,0-45-2.4-.6-2.6,7.9-1.6,4.1-1.6-1.1S228.5,46,225.8,57.9Z" style="fill:#bbedf2"/><g style="opacity:0.35000000000000003;mix-blend-mode:multiply"><path d="M159.3,48.1a8.6,8.6,0,0,0,0-9c-1.1-2-3.4-3.2-5-4.8,1.1-3,2.4-5.3,3.9-5.5,4.9-.5,8,23.3,8,23.3h-9.4a4.4,4.4,0,0,1,.6-1.6C158,49.6,158.7,48.9,159.3,48.1Z" style="fill:#d1b99a"/></g><path d="M153,14.7c1.5,0,2.2,1.4,2.5,2.1a3.1,3.1,0,0,1,3-2h1.2a3.3,3.3,0,0,1,1.9,2,2.9,2.9,0,0,1,2.6-2.2h.5a4.5,4.5,0,0,1,3,2.2s.9-2.2,2.7-2.2a3,3,0,0,1,2,.8h.5a2.4,2.4,0,0,1,1.6.8h0a16.1,16.1,0,0,1-1.8,6.9l-.8,1.5-.2.3-.9,1.2c-.1.1-.2.2-.2.3a11.4,11.4,0,0,1-1.1,1.1c0,.1-.1.1-.1.2l-2.5,1.9h-.2l-1.2.7h-.1l-1.2.6h-.8a1.5,1.5,0,0,1,.5,1h0a.1.1,0,0,0-.1.1h-.2l-1.2.7h-.1l-.2.2h0c0,.1-.1.1-.1.2s0,.1-.1.2a5.4,5.4,0,0,0,.6,2.8h0c.3.5.5,1.1.8,1.6a5.1,5.1,0,0,1,.5,2.2h0a7.4,7.4,0,0,1-.5,2.5,2.7,2.7,0,0,1,1.9.9c.3.3.6,5.1.6,5.4H163a.1.1,0,0,1-.1.1h-4.3c-4.9,0-7.1-.8-7.2-1.1h0v-.2h0a4.3,4.3,0,0,0,.1-.5h0v-.3h0v-.3h0a3.4,3.4,0,0,0,.1-1h0a.4.4,0,0,1,.1-.3h0v-.3h0v-.2c0-.1.1-.1.1-.2v-.5h0a.4.4,0,0,0,.1-.3h0V44h.1a2.7,2.7,0,0,1,1.9-.9,5.4,5.4,0,0,1-.4-3.7c0-.1.1-.1.1-.2s0-.2.1-.2.1-.3.1-.5a.1.1,0,0,0,.1-.1,2.5,2.5,0,0,1,.4-.7h0c.6-1.3,1.2-3,1-3.8h-.1c-.1-.1-.2-.2-.2-.3h-.1l-.3-.2h-.2c0-.1,0-.1-.1-.1h-.9a.1.1,0,0,0-.1-.1h0a1.6,1.6,0,0,1,.3-.8h-.3l-1.3-.5h-.1l-1.2-.6h-.2l-1.2-.8h-.2l-1.1-.8c0-.1-.1-.1-.1-.2l-1.1-1c0-.1-.1-.1-.1-.2l-1-1.2h-.1a15.4,15.4,0,0,1-3-9.3h.1a2.1,2.1,0,0,1,1.5-.7h.2l.4.2h0a3.1,3.1,0,0,1,2-.9c1.8,0,2.7,2.2,2.7,2.2a4.3,4.3,0,0,1,3.3-2.2h.2m0-3h-.4a6.6,6.6,0,0,0-2.9.8,5.6,5.6,0,0,0-5.6-.1,5,5,0,0,0-3.9,2h0l-.3.5a1.4,1.4,0,0,0-.2.6c-.4,1.3-.2,6.8,3.5,11.9v.2l1.1,1.3h.1a.3.3,0,0,0,.1.2l1.3,1.3h.1l1.3,1c.1.1.2.1.2.2l1.5.9h.2l1.3.6a5.3,5.3,0,0,0,1.2,1.4h.4l-.5,1.1h-.1c-.1.2-.1.4-.2.6l-.2.3h0a1.7,1.7,0,0,0-.2.5,1.4,1.4,0,0,0-.2.6c0,.1-.1.2-.1.3a7.8,7.8,0,0,0-.2,2.6l-.8.8a3.7,3.7,0,0,0-.5,1.1H149v.3h-.1V44h-.1v1.3h0v.3l3,.4-3-.3a4.1,4.1,0,0,1-.1,1.1h0v.3h0v.3a1.3,1.3,0,0,1-.1.6h0v.4h0v.2h0a2,2,0,0,0,.1.7c.3,1.1.9,3.4,10.1,3.4h8.6l.3-.2.3-.3h.1a3.7,3.7,0,0,0,.7-1.2c0-.1.1-.2.1-.3s.2-.7-.1-3.7-.4-3.5-1-4.3l-.8-.8v-.7a7.4,7.4,0,0,0-.9-3.6l-.6-1.4a.1.1,0,0,0-.1-.1.4.4,0,0,0-.1-.3h.2l.6-.5a.1.1,0,0,0,.1-.1,2.5,2.5,0,0,0,.8-1.2h0l1.5-.8.2-.2a13,13,0,0,0,2.9-2.2l.2-.2a8.6,8.6,0,0,0,1.3-1.4l.2-.3,1.1-1.5.2-.3h0a16.2,16.2,0,0,0,1-1.8c1.3-2.7,2.7-7.5,1.8-9.4v-.3a5.1,5.1,0,0,0-3.9-2.3,5.5,5.5,0,0,0-2.8-.7,4.8,4.8,0,0,0-2.9.9,6.9,6.9,0,0,0-2.3-.9h-1a5,5,0,0,0-2.7.7l-.7-.3-.6-.2h-1.7a5.7,5.7,0,0,0-2.9.7,5,5,0,0,0-2.6-.8Z" style="fill:#a8662f"/><path d="M167.7,17a4.5,4.5,0,0,0-3-2.2h-.4c-1.8-.1-2.5,1.6-2.7,2.2a3.1,3.1,0,0,0-3.1-2.2,3.1,3.1,0,0,0-3,2,2.8,2.8,0,0,0-2.7-2,4.3,4.3,0,0,0-3.3,2.2s-1.6-4-4.7-1.3a19.2,19.2,0,0,0,.5,3.9c.4,1.2,2,.8,3.3.8l6.6-.2a5.2,5.2,0,0,0,.3-1.6,5.2,5.2,0,0,0,.3,1.6l6.7.2a8.4,8.4,0,0,0,2.8-.1h3.3c1.4,0,3,.4,3.4-.8a19.2,19.2,0,0,0,.5-3.9C169.3,13,167.7,17,167.7,17Z" style="fill:#c1a687"/><path d="M145.3,16.3a2.2,2.2,0,0,1,2.1-1.3c1.5.1,2.4,3,2.4,2.9s1.1-2.5,2.9-2.9,3,2.6,3,2.6-.5-2.2,2.3-2.7,3.7,2.6,3.7,2.6.3-2.7,2.7-2.7,2.7,3.5,2.7,3.4l.4-.6s1-2.8,2.8-2.7,1.7,3.9,1.7,3.9a19.4,19.4,0,0,1-6.1,1.1c-3.1-.1-6.9,0-9.5-.3s-9.6-.2-10-.6A17.1,17.1,0,0,1,145.3,16.3Z" style="fill:#d1b99a;opacity:0.5;mix-blend-mode:multiply"/><path d="M146.2,17.6H172s-1.5,2.4-1.8,2.4-20.9.4-21.3,0Z" style="fill:#98d9e4"/><path d="M165.8,49.3c-.1.3-3.3,1.1-7.2,1.1s-7.1-.8-7.2-1.1.3-5.1.6-5.4a2.7,2.7,0,0,1,1.9-.9,5.4,5.4,0,0,1-.4-3.7c0-.1.1-.1.1-.2s0-.2.1-.2.1-.3.1-.5a.1.1,0,0,0,.1-.1,2.5,2.5,0,0,1,.4-.7h0c.6-1.3,1.2-3,1-3.8h-.1c-.1-.1-.2-.2-.2-.3h-.1l-.3-.2h-.2c0-.1,0-.1-.1-.1h-.9a.1.1,0,0,0-.1-.1h0c-.1-.2.2-1,1.1-1.4s7.4-.5,8.4,0,1.2,1.2,1.1,1.4h0a.1.1,0,0,0-.1.1h-.2l-1.2.7h-.1l-.2.2h0c0,.1-.1.1-.1.2s0,.1-.1.2a5.4,5.4,0,0,0,.6,2.8h0c.3.5.5,1.1.8,1.6a5.1,5.1,0,0,1,.5,2.2h0a7.4,7.4,0,0,1-.5,2.5,2.7,2.7,0,0,1,1.9.9C165.5,44.2,165.8,49,165.8,49.3Z" style="fill:#c1a687"/><path d="M135.9,48.6a109.1,109.1,0,0,1,.4-14c.3-2.9.6-5.7,1-8.6a56.2,56.2,0,0,1,.9-5.7c.2-.7.5-1.5.7-2.3s.7-2.4,1-3.7.7-1.9,1.7-2a1.8,1.8,0,0,1,1.7,1,6.7,6.7,0,0,1,.5,1.9c.3,1.4.5,2.9.7,4.3a4.2,4.2,0,0,0,1.4,3.2,1.8,1.8,0,0,0,2.1-.2c.6-.8.2-1.7.1-2.5s.5-1.8,1.2-1.5.5.3.6.5c1.2,1.8,1.2,4,1.4,6.1a10,10,0,0,0,1.3,3.9,1.1,1.1,0,0,0,1.8,0c.2-.2.4-1.3.7-1.4a2,2,0,0,1,2,.8c.5.6.8.2,1,.9v.2h0a.1.1,0,0,1,.1.1v-.2c.2-.7.5-.3,1-.9a2,2,0,0,1,2-.8l.7.4c.5.6,1.4,1.6,1.8,1a10,10,0,0,0,1.3-3.9c.2-2.1.2-4.3,1.4-6.1.1-.2.3-.5.6-.5s1.3.7,1.2,1.5-.5,1.7.1,2.5a1.8,1.8,0,0,0,2.1.2,4.2,4.2,0,0,0,1.4-3.2l.6-4.3a4.7,4.7,0,0,1,.6-1.9,1.8,1.8,0,0,1,1.7-1c1,.1,1.5,1.4,1.8,2.4.6,2.5,1.2,5,1.6,7.5s.9,8.6,1,9.2a24.4,24.4,0,0,1,.1,2.7c0,2.1.2,4.2.2,6.4s.1,5,.2,7.5m9,1.5A366,366,0,0,0,185.5,9c-.4-2.8-1-6-4.9-6.3a6.8,6.8,0,0,0-2,.2,23.1,23.1,0,0,0-17.4,20.2l-.2-1.3-1.1,1a20.5,20.5,0,0,0,.5-2.4l3-13.4c.1-.4.2-.9-.1-1.2a.9.9,0,0,0-1.4,0,11.1,11.1,0,0,0,.2-1.9,2,2,0,0,0-.2-1.1.9.9,0,0,0-1.3-.1c-.5.2-.7.6-1,1.1a9.5,9.5,0,0,0-1,3.5V5c-.1-.5-.1-1.1-.6-1.2a1,1,0,0,0-1,.4c-1.2,1.3-1.2,3.2-1.1,5a75.1,75.1,0,0,0,1.5,11.6H157c-.5,0-.8.5-.9,1a1.4,1.4,0,0,0,.1.9l-.9-.8-.2,1.3A23.1,23.1,0,0,0,137.6,2.9a5.8,5.8,0,0,0-1.9-.2c-3.9.3-4.5,3.5-4.9,6.3a364.2,364.2,0,0,0-3.1,40.3m30.5-22.2c-.1,0-.1.1-.1.2v-.2Z" style="fill:none;stroke:#6ab3b9;stroke-linecap:round;stroke-linejoin:round;stroke-width:5px"/><path d="M161,21.8l.2,1.3A23.1,23.1,0,0,1,178.6,2.9a6.8,6.8,0,0,1,2-.2c3.9.3,4.5,3.5,4.9,6.3a391.9,391.9,0,0,1,3.1,43.3c0,.3-7.3-.6-7.8-.7a2,2,0,0,1-.8-.4,1.7,1.7,0,0,1-.4-1.2c-.1-2.5-.2-7-.2-9.5s-.2-4.3-.2-6.4a24.4,24.4,0,0,0-.1-2.7c-.1-.6-.5-6.8-1-9.2s-1-5-1.6-7.5c-.3-1-.8-2.3-1.8-2.4a1.8,1.8,0,0,0-1.7,1,4.7,4.7,0,0,0-.6,1.9l-.6,4.3a4.2,4.2,0,0,1-1.4,3.2,1.8,1.8,0,0,1-2.1-.2c-.6-.8-.2-1.7-.1-2.5s-.5-1.8-1.2-1.5-.5.3-.6.5c-1.2,1.8-1.2,4-1.4,6.1a10,10,0,0,1-1.3,3.9,1.1,1.1,0,0,1-1.8,0l-.7-.4a2,2,0,0,0-2,.8,6.1,6.1,0,0,0-1.1,2.1C158.2,27.8,157.6,24.4,161,21.8Z" style="fill:#98d9e4"/><path d="M175.5,5.1a7.7,7.7,0,0,1,4.2-1A4.8,4.8,0,0,1,183,6.2a8.4,8.4,0,0,1,1.4,3.7,3.7,3.7,0,0,1-.2,2.1,1.7,1.7,0,0,1-1.6,1.2,2.3,2.3,0,0,1-1.6-1.3,18,18,0,0,0-.8-2.1c-.2-.4-.5-.8-.9-.7a.9.9,0,0,0-.6,1.1c.1.5.3.9.4,1.3a1.7,1.7,0,0,1,.1,1.4,1,1,0,0,1-1.2.4,2,2,0,0,1-.4-.8c-.1-1,0-2.2-.6-3a2.2,2.2,0,0,0-2.2-.6,3.6,3.6,0,0,0-1.9,1.3,6,6,0,0,0-1.7,3.8,6.5,6.5,0,0,1-.4,1.9c-.3.6-1.2,1-1.7.6s-.3-1.8-1.1-2.1-1,.2-1.3.7a14.5,14.5,0,0,0-3,7.9,2.3,2.3,0,0,1-.2,1.2,1,1,0,0,1-.9.7c-.4,0-.7-.4-.8-.8a2.4,2.4,0,0,1,0-1.2c1.1-6,4.9-11.2,9.6-15A37.1,37.1,0,0,1,175.5,5.1Z" style="fill:#bbedf2"/><path d="M155.3,21.8l-.2,1.3A23.1,23.1,0,0,0,137.6,2.9a5.8,5.8,0,0,0-1.9-.2c-3.9.3-4.5,3.5-4.9,6.3a391.9,391.9,0,0,0-3.1,43.3l8.2-.7a137.9,137.9,0,0,1,.4-17c.3-2.9.6-5.7,1-8.6a56.2,56.2,0,0,1,.9-5.7c.2-.7.5-1.5.7-2.3s.7-2.4,1-3.7.7-1.9,1.7-2a1.8,1.8,0,0,1,1.7,1,6.7,6.7,0,0,1,.5,1.9l.7,4.3a4.2,4.2,0,0,0,1.4,3.2,1.8,1.8,0,0,0,2.1-.2c.6-.8.2-1.7.1-2.5s.5-1.8,1.2-1.5.5.3.6.5c1.2,1.8,1.2,4,1.4,6.1a10,10,0,0,0,1.3,3.9,1.1,1.1,0,0,0,1.8,0l.7-.4a2,2,0,0,1,2,.8,8.4,8.4,0,0,1,1.1,2.1C158.1,27.8,158.7,24.4,155.3,21.8Z" style="fill:#98d9e4"/><path d="M140.7,5.1a7.2,7.2,0,0,0-4.1-1,4.8,4.8,0,0,0-3.3,2.1,7.3,7.3,0,0,0-1.4,3.7,3.7,3.7,0,0,0,.2,2.1,1.7,1.7,0,0,0,1.6,1.2,2.3,2.3,0,0,0,1.6-1.3,18,18,0,0,1,.8-2.1c.1-.4.5-.8.9-.7a.9.9,0,0,1,.6,1.1c-.1.5-.3.9-.4,1.3a1.7,1.7,0,0,0-.1,1.4,1,1,0,0,0,1.2.4,1.1,1.1,0,0,0,.3-.8c.2-1,0-2.2.7-3a2.2,2.2,0,0,1,2.2-.6,4.1,4.1,0,0,1,1.9,1.3,6,6,0,0,1,1.7,3.8,6.5,6.5,0,0,0,.4,1.9,1.2,1.2,0,0,0,1.7.6c.6-.5.3-1.8,1-2.1a1.2,1.2,0,0,1,1.4.7,14.5,14.5,0,0,1,3,7.9,2.3,2.3,0,0,0,.2,1.2,1,1,0,0,0,.9.7c.4,0,.7-.4.8-.8a2.4,2.4,0,0,0,0-1.2c-1.1-6-4.9-11.2-9.6-15A30.7,30.7,0,0,0,140.7,5.1Z" style="fill:#bbedf2"/><path d="M156.4,23.2a2.7,2.7,0,0,1-.3-1.5c.1-.5.4-1,.9-1a.8.8,0,0,1,.6,1.1,77.8,77.8,0,0,1-1.7-12.6c-.1-1.8-.1-3.7,1.1-5a1,1,0,0,1,1-.4c.5.1.5.7.6,1.2V9.9a10.6,10.6,0,0,1,1-6.1c.3-.5.5-.9,1-1.1a.9.9,0,0,1,1.3.1,2,2,0,0,1,.2,1.1,25.7,25.7,0,0,1-.6,4,4.1,4.1,0,0,1,.2-1.9c.4-.5,1.3-.7,1.6-.2s.2.8.1,1.2l-3,13.4-1.2,5.8a18,18,0,0,1-.6,2.2C157.4,28,156.8,24.4,156.4,23.2Z" style="fill:#98d9e4"/><path d="M157,12.8a6.1,6.1,0,0,1,0-3c.2-.3.5-.7.9-.6s.6.8.5,1.3,0,1.2.5,1.4a19.7,19.7,0,0,1,0-4.2c.1-.5.2-1,.7-1.1s.8.6.7,1.1-.2,1.1.1,1.5a1.7,1.7,0,0,1,0-1.2c.1-.4.6-.7.9-.5s.3.8.2,1.2L160,15.3c-.3,1.1-.5,2.2-.8,3.3a10.9,10.9,0,0,1-.8,3.1,31.1,31.1,0,0,1-.7-4.4C157.4,15.8,157.2,14.3,157,12.8Z" style="fill:#bbedf2"/><path d="M172.7,23.2c-5.2,10.7-20.1,12.2-27.1,2.5a15.4,15.4,0,0,1-3-9.3h.1a1.9,1.9,0,0,1,1.7-.7c.6.1.9.7,1.1.7a3.8,3.8,0,0,1,2.1.1c1,.6,1.1,1.9,1.2,1.9s1-2.2,3.2-2.1,3,2.3,3.1,2.4.4-2.2,2.7-2.7a2,2,0,0,1,1.5,0c2.2.5,2.5,2.8,2.7,2.7a4.1,4.1,0,0,1,3.1-2.4l1.2.2.5.3c.9.6,1.3,1.7,1.4,1.6s.3-1.3,1.3-1.9a3.8,3.8,0,0,1,2.1-.1c.1,0,.5-.6,1.1-.7a2.2,2.2,0,0,1,1.8.8h0A16.1,16.1,0,0,1,172.7,23.2Z" style="fill:#c1a687"/><path d="M172.7,23.2a16.1,16.1,0,0,1-4.6,5.7c-6.6,5.1-17,4.4-22.4-3.1h-.1a15.4,15.4,0,0,1-3-9.3h.1c.3-.3.8,2.1.8,2.1s.7-1.8,1.7-1.8,2.4,4.3,2.4,4.3,1.4-4.1,3.6-4.5,3.9,3.4,3.9,3.4a3.8,3.8,0,0,1,3.4-3.8c2.1-.2,3.2,2,3.9,3.9,1-3.3,2.8-3.7,3.9-3.5h0c.2,0,.3.1.5.3a13.2,13.2,0,0,1,2.3,3.3c0-.2.6-3.4,1.8-3.6s1.7.9,2.2,1.6c1-1.8,1.3-1.6,1.4-1.6h0A16.1,16.1,0,0,1,172.7,23.2Z" style="fill:#d1b99a;opacity:0.5;mix-blend-mode:multiply"/><path d="M173.1,18a21.3,21.3,0,0,1-1.3,5.1h0a20.3,20.3,0,0,1-2.5,4.5l-1.2,1.3c-6.6,5.1-17,4.4-22.4-3.1a15.6,15.6,0,0,1-2.1-7.1,13.7,13.7,0,0,0,.6,3h0a13.7,13.7,0,0,0,7.6,8.6h0a16,16,0,0,0,3.9,1.1,20.6,20.6,0,0,1-5.6-4.6,6.6,6.6,0,0,1-1.2-1.7h-.1a10.3,10.3,0,0,1-1.2-4.3c.3,5.5,6.2,9.1,8.8,10.4h0l1.3.6c-.1-.1-1.3-1.4-2.1-6.2v-.2c-.1-.7-.2-1.6-.3-2.5h0a23.3,23.3,0,0,1-.2-2.9c.1,1.5.7,8.3,3.2,11.2h0l.7.7a5.6,5.6,0,0,0,1.1-1.4h0c1-1.6,2.4-4.8,2.3-10.7a27,27,0,0,1-.4,7.5h0a10.5,10.5,0,0,1-1.9,4.3,10.9,10.9,0,0,0,2-.8h0a13.3,13.3,0,0,0,7-11,15.3,15.3,0,0,1-.7,3.9h0c-.8,2.7-2.6,6-6.3,7.4a9.4,9.4,0,0,0,5.2-2.4h0c1.9-1.6,4-4.4,5.3-9.1h0A12.1,12.1,0,0,0,173.1,18Z" style="fill:#d1b99a;opacity:0.5;mix-blend-mode:multiply"/><path d="M155.1,19.9c.1,1.3.7,8.4,3.2,11.3-1.5-.8-2.3-3.4-2.7-5.5v-.2c-.2-1.4-.3-2.6-.3-2.6A26.6,26.6,0,0,1,155.1,19.9Z" style="fill:#d1b99a;opacity:0.5;mix-blend-mode:multiply"/><path d="M162,27.3h0c-.7,2.6-1.8,3.1-1.9,3.1,1-1.6,2.4-4.8,2.3-10.7A27,27,0,0,1,162,27.3Z" style="fill:#d1b99a;opacity:0.5;mix-blend-mode:multiply"/><path d="M168.4,23.9c-2.1,5.8-6.1,6.9-6.3,7a13.3,13.3,0,0,0,7-11,15.3,15.3,0,0,1-.7,3.9Z" style="fill:#d1b99a;opacity:0.5;mix-blend-mode:multiply"/><path d="M172.6,19.8a20,20,0,0,1-.8,3.3h0a13.7,13.7,0,0,1-2.5,4.5,4.6,4.6,0,0,1-2,1.3h0C169.2,27.3,171.3,24.5,172.6,19.8Z" style="fill:#d1b99a;opacity:0.5;mix-blend-mode:multiply"/><path d="M151.8,30.3c-.4-.1-6.7-2.2-7.6-8.6A13.7,13.7,0,0,0,151.8,30.3Z" style="fill:#d1b99a;opacity:0.5;mix-blend-mode:multiply"/><path d="M148.8,25.1a10.3,10.3,0,0,1-1.2-4.3c.3,5.5,6.2,9.1,8.8,10.4a14.6,14.6,0,0,1-7.5-6.1Z" style="fill:#d1b99a;opacity:0.5;mix-blend-mode:multiply"/><path d="M156.9,30.5a38.7,38.7,0,0,1-1.8-9.2S155,26.8,156.9,30.5Z" style="fill:#ff8c4a;opacity:0.53;mix-blend-mode:screen"/><path d="M148.6,24.5s1.2,3.1,5.6,6A11.2,11.2,0,0,1,148.6,24.5Z" style="fill:#ff8c4a;opacity:0.53;mix-blend-mode:screen"/><path d="M161.6,28.9a20.8,20.8,0,0,0,.9-7.9S163.4,26.4,161.6,28.9Z" style="fill:#ff8c4a;opacity:0.53;mix-blend-mode:screen"/><path d="M164.9,29.6a12.5,12.5,0,0,0,3.8-6.8S168.3,27.7,164.9,29.6Z" style="fill:#ff8c4a;opacity:0.53;mix-blend-mode:screen"/><path d="M142.9,16.1a6.8,6.8,0,0,0,.7,2c0-.1.8-1.7,1.6-1.8S143.9,14.9,142.9,16.1Z" style="fill:#ff8c4a;opacity:0.53;mix-blend-mode:screen"/><path d="M146,16.2c-.7.2,1,2.3,1.5,4.2,0,0,1.2-1.4,1.1-2.2A2,2,0,0,0,146,16.2Z" style="fill:#ff8c4a;opacity:0.53;mix-blend-mode:screen"/><path d="M151.5,16.1a5.2,5.2,0,0,1,3.6,3.6,3.5,3.5,0,0,0-1-2.6A5.2,5.2,0,0,0,151.5,16.1Z" style="fill:#ff8c4a;opacity:0.53;mix-blend-mode:screen"/><path d="M155.4,18.3s.3-1.8,2.8-2.3,3.6,2.4,3.6,2.4a3.4,3.4,0,0,0-3.2-2.7C156,15.6,155.4,18.3,155.4,18.3Z" style="fill:#ff8c4a;opacity:0.53;mix-blend-mode:screen"/><path d="M162,18.5l.4,1.2s.6-2.5,2.4-3.2-1-.3-1.9.7S162,18.5,162,18.5Z" style="fill:#ff8c4a;opacity:0.53;mix-blend-mode:screen"/><path d="M168.3,18.3a11.9,11.9,0,0,0,.8,1.6s.3-2.4,1.2-3.3S168.8,15.7,168.3,18.3Z" style="fill:#ff8c4a;opacity:0.53;mix-blend-mode:screen"/><path d="M173.1,18s-.7-1.4-1.4-1.7a1.1,1.1,0,0,1,1.2-.7c1-.1,1.2.6,1.1.7Z" style="fill:#ff8c4a;opacity:0.53;mix-blend-mode:screen"/><path d="M163.9,32.3h0a.1.1,0,0,0-.1.1h-.2l-1.2.7h-.1l-.2.2h0c0,.1-.1.1-.1.2s0,.1-.1.2a5.4,5.4,0,0,0,.6,2.8,4.6,4.6,0,0,0-2.8-2.3h-1.2a6,6,0,0,0-4.2,3.4c.6-1.3,1.2-3,1-3.8h-.1c-.1-.1-.2-.2-.2-.3h-.1l-.3-.2h-.2c0-.1,0-.1-.1-.1h-.9a.1.1,0,0,0-.1-.1h0A19.6,19.6,0,0,0,163.9,32.3Z" style="fill:#d1b99a;opacity:0.5;mix-blend-mode:multiply"/><path d="M163.8,40.5a7.4,7.4,0,0,1-.5,2.5,6.7,6.7,0,0,1-4.4,1.8H158a5.3,5.3,0,0,1-4-1.7h-.1a5.4,5.4,0,0,1-.4-3.7c-.9,4.1,9.7,5,10.3,1.5Z" style="fill:#d1b99a;opacity:0.5;mix-blend-mode:multiply"/><path d="M165.8,49.3h-.1c-.3.3-3.3,1.1-7.1,1.1s-7.1-.8-7.2-1.1.2-3.3.4-4.8h0c.1-.3.1-.6.2-.6s2.2,1.9,4.7,2.2h.5c3.7.3,8-.5,8-2.2C165.5,44.2,165.8,49,165.8,49.3Z" style="fill:#d1b99a;opacity:0.5;mix-blend-mode:multiply"/><path d="M163.9,32.3h-.3l-1.2.7h-.1l-.2.2h0a3.6,3.6,0,0,1-2.4.9h-1.2a12.8,12.8,0,0,1-3.9-1.2h-.2c0-.1,0-.1-.1-.1h-.9a.1.1,0,0,0-.1-.1h0A19.6,19.6,0,0,0,163.9,32.3Z" style="fill:#d1b99a;opacity:0.5;mix-blend-mode:multiply"/><path d="M163.3,43a6.7,6.7,0,0,1-4.4,1.8H158a5.3,5.3,0,0,1-4-1.7h-.1C155.9,45,161,44.8,163.3,43Z" style="fill:#d1b99a;opacity:0.5;mix-blend-mode:multiply"/><path d="M165.7,49.3c-.3.3-3.3,1.1-7.1,1.1s-7.1-.8-7.2-1.1.2-3.3.4-4.8h0c.2-.6.2,1.3,4.9,1.6h.5c4.2.5,3.5,3.4,5.3,3.8s1.8-4,2.4-5.1S165.7,47.9,165.7,49.3Z" style="fill:#d1b99a;opacity:0.5;mix-blend-mode:multiply"/><path d="M163.9,32.3h0a.1.1,0,0,0-.1.1h-.2l-1.2.7h-.1l-.2.2h0c0,.1-.1.1-.1.2s0,.1-.1.2a5.4,5.4,0,0,0,.6,2.8,4.6,4.6,0,0,0-2.8-2.3h-1.2a6,6,0,0,0-4.2,3.4c.6-1.3,1.2-3,1-3.8h-.1c-.1-.1-.2-.2-.2-.3h-.1l-.3-.2h-.2c0-.1,0-.1-.1-.1h-.9a.1.1,0,0,0-.1-.1h0A19.6,19.6,0,0,0,163.9,32.3Z" style="fill:#d1b99a;opacity:0.5;mix-blend-mode:multiply"/><path d="M163.8,40.5a7.4,7.4,0,0,1-.5,2.5,6.7,6.7,0,0,1-4.4,1.8H158a5.3,5.3,0,0,1-4-1.7h-.1a5.4,5.4,0,0,1-.4-3.7c-.9,4.1,9.7,5,10.3,1.5Z" style="fill:#d1b99a;opacity:0.5;mix-blend-mode:multiply"/><path d="M144.2,15.5h.2c.6.1.9.7,1.1.7h1a2.3,2.3,0,0,1,1.1.2c1,.6,1.1,1.9,1.2,1.9h0c.2,0,.9-2.1,2.9-2.1h.3c2.1.2,3,2.3,3.1,2.4h0c.2,0,.5-2.2,2.7-2.7h1.5a3.8,3.8,0,0,1,2.6,2.7h.1a4.1,4.1,0,0,1,3.1-2.4h.2l1,.2.5.3a6.5,6.5,0,0,1,1.4,1.6h0c.2,0,.3-1.3,1.3-1.9a2,2,0,0,1,1-.2h1.1c.1,0,.5-.6,1.1-.7h.2a2.4,2.4,0,0,1,1.6.8h0a16.1,16.1,0,0,1-1.8,6.9,15.8,15.8,0,0,1-14.4,9,15.5,15.5,0,0,1-12.7-6.5,15.4,15.4,0,0,1-3-9.3h.1a2.1,2.1,0,0,1,1.5-.7m0-3a5.2,5.2,0,0,0-4,2h0l-.3.5a1.4,1.4,0,0,0-.2.6c-.4,1.3-.2,6.8,3.5,11.9a18.3,18.3,0,0,0,15.1,7.7,18.8,18.8,0,0,0,17.1-10.7c1.3-2.7,2.7-7.5,1.8-9.4v-.3a5.2,5.2,0,0,0-4.2-2.3h-.6a3.4,3.4,0,0,0-1.5.6h-.3a5,5,0,0,0-2.4.6h-.2l-.6-.3a6.5,6.5,0,0,0-2-.4h-.4a5.6,5.6,0,0,0-2.6.7,6,6,0,0,0-2.3-1,5.7,5.7,0,0,0-3,0,5.5,5.5,0,0,0-2.2,1,5.9,5.9,0,0,0-2.6-.7h-.5a4.8,4.8,0,0,0-2.6.7.1.1,0,0,0-.1-.1,5.4,5.4,0,0,0-2.5-.6h-.2a3.4,3.4,0,0,0-1.5-.6Z" style="fill:#a8662f"/><path d="M134.8,267.6a5.9,5.9,0,0,1-6,6,6,6,0,0,1-6-6,6,6,0,0,1,6-6A6,6,0,0,1,134.8,267.6Z" style="fill:#98d9e4"/><circle cx="127.7" cy="265.9" r="3.4" style="fill:#bbedf2"/><path d="M107.9,261.9a6,6,0,1,1-6-6.1A6,6,0,0,1,107.9,261.9Z" style="fill:#98d9e4"/><circle cx="100.7" cy="260.1" r="3.4" style="fill:#bbedf2"/><circle cx="109.9" cy="267" r="5" style="fill:#98d9e4"/><path d="M111.8,265.5a2.9,2.9,0,1,1-2.8-2.8A2.9,2.9,0,0,1,111.8,265.5Z" style="fill:#bbedf2"/><circle cx="144.6" cy="274.1" r="5" style="fill:#98d9e4"/><path d="M146.4,272.6a2.7,2.7,0,0,1-2.8,2.8,2.8,2.8,0,1,1,0-5.6A2.7,2.7,0,0,1,146.4,272.6Z" style="fill:#bbedf2"/><path d="M183.9,266.3a3.9,3.9,0,1,1-3.8-3.9A3.9,3.9,0,0,1,183.9,266.3Z" style="fill:#98d9e4"/><path d="M181.5,265.2a2.2,2.2,0,0,1-4.4,0,2.2,2.2,0,0,1,4.4,0Z" style="fill:#bbedf2"/><circle cx="225.2" cy="261.5" r="3.9" style="fill:#98d9e4"/><path d="M226.6,260.3a2.2,2.2,0,0,1-2.2,2.2,2.1,2.1,0,0,1-2.1-2.2,2.1,2.1,0,0,1,2.1-2.1A2.1,2.1,0,0,1,226.6,260.3Z" style="fill:#bbedf2"/><circle cx="194" cy="259.9" r="5.6" style="fill:#98d9e4"/><path d="M196.1,258.2a3.2,3.2,0,1,1-3.1-3.1A3.1,3.1,0,0,1,196.1,258.2Z" style="fill:#bbedf2"/><path d="M86,265a3.7,3.7,0,0,1-3.7,3.7,3.7,3.7,0,0,1,0-7.4A3.7,3.7,0,0,1,86,265Z" style="fill:#98d9e4"/><circle cx="81.6" cy="263.9" r="2.1" style="fill:#bbedf2"/><path d="M256.8,265a3.7,3.7,0,1,1-3.7-3.7A3.8,3.8,0,0,1,256.8,265Z" style="fill:#98d9e4"/><path d="M254.5,263.9a2.1,2.1,0,0,1-2.1,2.1,2.1,2.1,0,0,1-2.1-2.1,2.2,2.2,0,0,1,2.1-2.1A2.1,2.1,0,0,1,254.5,263.9Z" style="fill:#bbedf2"/><path d="M211.8,270.7a3.7,3.7,0,0,1-3.7,3.7,3.6,3.6,0,0,1-3.7-3.7,3.7,3.7,0,0,1,3.7-3.7A3.8,3.8,0,0,1,211.8,270.7Z" style="fill:#98d9e4"/><circle cx="207.4" cy="269.7" r="2.1" style="fill:#bbedf2"/></g></g></g></svg>