<svg xmlns="http://www.w3.org/2000/svg" viewBox="0 0 185.06 10.5"><g style="isolation:isolate"><g id="Layer_2" data-name="Layer 2"><g id="Layer_1-2" data-name="Layer 1"><g id="Props"><g id="fu_kitchen_shelf_2" data-name="fu_kitchen shelf 2"><path d="M181.17,9H3.9C2.57,9,1.5,7.32,1.5,5.25h0C1.5,3.18,2.57,1.5,3.9,1.5H181.17c1.32,0,2.39,1.68,2.39,3.75h0C183.56,7.32,182.49,9,181.17,9Z" fill="#af7553"/><path d="M181.17,10.5H3.9C1.71,10.5,0,8.19,0,5.25S1.71,0,3.9,0H181.17c2.18,0,3.89,2.31,3.89,5.25S183.35,10.5,181.17,10.5ZM3.9,3C3.67,3,3,3.8,3,5.25s.67,2.25.9,2.25H181.17c.22,0,.89-.8.89-2.25S181.39,3,181.17,3Z" fill="#6a3417"/><g opacity="0.2"><rect x="3.98" y="3.01" width="177.45" height="1.17" fill="#ffe89f"/></g><g style="mix-blend-mode:multiply"><rect x="1.5" y="7.8" width="182.06" height="1.2" fill="#e6e6e6"/></g></g></g></g></g></g></svg>