<svg xmlns="http://www.w3.org/2000/svg" viewBox="0 0 46.1 44.4"><g style="isolation:isolate"><g id="Layer_2" data-name="Layer 2"><g id="Layer_1-2" data-name="Layer 1"><g id="Props"><g id="fu_kitchen_utensil_ketle_2" data-name="fu_kitchen utensil_ketle 2"><path d="M14.9,17.3v5.6a.6.6,0,0,0,.3.6l.2.2L16.6,22l-1-1.2a1.9,1.9,0,0,1-.2-.8V17.3a.2.2,0,0,0-.2-.2H15C14.9,17.1,14.9,17.2,14.9,17.3Z" style="fill:#c8c2b6"/><path d="M39.3,17.3v5.5a1.2,1.2,0,0,1-.4.8h-.2L37.5,22l.9-1.2a1.4,1.4,0,0,0,.3-.9V17.3a.2.2,0,0,1,.2-.2h.2A.2.2,0,0,1,39.3,17.3Z" style="fill:#c8c2b6"/><path d="M37.3,21.8H16.8c-.9,0-12.5,21.6-5.5,21.6H42.9C49.8,43.4,38.3,21.8,37.3,21.8Z" style="fill:#a44"/><path d="M37.3,21.8H16.8c-.9,0-12.5,21.6-5.5,21.6H42.9C49.8,43.4,38.3,21.8,37.3,21.8Z" style="fill:#a44"/><g style="opacity:0.30000000000000004"><path d="M18.3,23.2c-.6,0-6.2,9.7-6.5,14.6-.1,1.7.5,2.8,1.9,2.8s1.2-1.9,1.2-2.3C15.1,29.4,19.5,23.2,18.3,23.2Z" style="fill:#ffe89f"/></g><g style="mix-blend-mode:multiply"><path d="M37.3,21.8H33.4c3,4.7,10.4,20.2,4.5,20.2H9.3a1.9,1.9,0,0,0,2,1.4H42.9C49.8,43.4,38.3,21.8,37.3,21.8Z" style="fill:#e6e6e6"/></g><path d="M37.1,21.8h-20v-.2a.5.5,0,0,1,.5-.3H36.5a.5.5,0,0,1,.5.3Z" style="fill:#454440"/><path d="M33.1,16.8a19.7,19.7,0,0,0-6-.7,20,20,0,0,0-6.1.7c-1.6.7-5,3.3-3.5,4.5H36.6C38.1,20.1,34.7,17.5,33.1,16.8Z" style="fill:#a44"/><g style="opacity:0.30000000000000004"><path d="M24.7,16.9c-4.6-.1-6.7,3.2-5.6,3.5s.7.2,1.1-.8A6.3,6.3,0,0,1,24.7,16.9Z" style="fill:#ffe89f"/></g><g style="mix-blend-mode:multiply"><path d="M33.1,16.8a13.3,13.3,0,0,0-3-.6l1.1.3c1.6.7,5,3.3,3.5,4.5H17.3c0,.1.1.2.2.3H36.6C38.1,20.1,34.7,17.5,33.1,16.8Z" style="fill:#e6e6e6"/></g><path d="M1,17.2a13.4,13.4,0,0,1,2.7,3.1c.7,1.5.3,5.3,1.3,8.1s4.3,5.2,5.8,5.2L13.6,27a8.2,8.2,0,0,1-4.5-2.2C7,22.1,7.3,18.9,4,16.6Z" style="fill:#a44"/><g style="opacity:0.30000000000000004"><path d="M11.5,30.6,13,27.1a5.6,5.6,0,0,1-4-1.2c-2.1-2.2-1.9-6.6-5.2-8.8H3.4c2,1.6,2.3,6,4,9.5A9.3,9.3,0,0,0,11.5,30.6Z" style="fill:#ffe89f"/></g><g style="mix-blend-mode:multiply"><path d="M10.9,32.2c-1.5,0-4.2-1.7-5.3-4.8s-.3-5.7-1.4-7.9A14.1,14.1,0,0,0,1.8,17l-.8.2a13.4,13.4,0,0,1,2.7,3.1c.7,1.5.3,5.3,1.3,8.1s4.3,5.2,5.8,5.2L13.6,27h-.4Z" style="fill:#e6e6e6"/></g><rect x="15.4" y="18" width="0.2" height="1.13" style="fill:#a6a197"/><rect x="38.5" y="18" width="0.2" height="1.13" style="fill:#a6a197"/><path d="M27.1,16.1h3.5l1.2.3H32l1.1.3c1.6.7,5,3.3,3.5,4.5h-.1a.5.5,0,0,1,.5.3v.2h.4l.9-1.1a1.4,1.4,0,0,0,.3-.9v-.8h-.2V18h.2v-.7a.2.2,0,0,1,.2-.2h.2a.2.2,0,0,1,.2.2v5.5a1.2,1.2,0,0,1-.4.8h-.2c3.2,5.3,9.8,19.7,4.2,19.7H9.9l-.3-.3c0-.1,0-.1-.1-.2s-.1-.2-.2-.4h0c-.7-1.7.1-5,1.4-8.4-1.5-.1-4.6-2.1-5.7-5.2s-.6-6.6-1.3-8.1A13.4,13.4,0,0,0,1,17.2l.8-.2L4,16.6c3.3,2.3,3,5.5,5.1,8.2a8.5,8.5,0,0,0,4.1,2.1h.4l1.8-3.3h0l-.2-.2a.6.6,0,0,1-.3-.6V17.3c0-.1,0-.2.1-.2h.2a.2.2,0,0,1,.2.2V18h.2v1.1h-.2V20a1.9,1.9,0,0,0,.2.8l1,1.1h.5v-.2a.5.5,0,0,1,.5-.3h-.1c-.1-.1-.2-.2-.2-.3h0c-.7-1.3,2.2-3.6,3.7-4.2a20,20,0,0,1,6.1-.7m0-1c-3,0-5,.2-6.4.8a9.5,9.5,0,0,0-4.1,3.3h0V18a1.4,1.4,0,0,0-.2-.6h0a1.3,1.3,0,0,0-1.2-1.2H15a1.2,1.2,0,0,0-1.1,1.2v5.6a3,3,0,0,0,.2,1l-1,2a7,7,0,0,1-3.2-1.7,15.1,15.1,0,0,1-1.6-3.1,9.8,9.8,0,0,0-3.8-5.3L4,15.6H3.7l-2.1.5H.8A1.1,1.1,0,0,0,0,17a1.1,1.1,0,0,0,.4,1,9.9,9.9,0,0,1,2.4,2.8,11.9,11.9,0,0,1,.4,2.7,19.6,19.6,0,0,0,.9,5.3,9.6,9.6,0,0,0,5.3,5.5c-1.3,3.6-1.6,6.3-1.1,8h.1l.3.6c0,.1.1.1.1.2l.5.4a.2.2,0,0,0,.2.2l.6.3H42.9a2.7,2.7,0,0,0,2.6-1.5c2.3-3.9-3.3-15.1-5.5-19a2,2,0,0,0,.3-1.1V17.3a1.3,1.3,0,0,0-1.2-1.2h-.2a1.3,1.3,0,0,0-1.2,1.2h0a1.4,1.4,0,0,0-.2.6v1.1h0a9.4,9.4,0,0,0-4.1-3.3l-1.2-.4H32l-1.3-.2H27.1Z" style="fill:#781f1a"/><path d="M41.4,13.4v.3a10.4,10.4,0,0,1-.7,2.8,4.6,4.6,0,0,1-.3.9v2.9a.5.5,0,0,1-.4.5h-.3a.5.5,0,0,1-.4-.5V17.6a7.7,7.7,0,0,1,.2-1.5,7.4,7.4,0,0,0,.3-2.4,9.4,9.4,0,0,0-4.6-8.6c-2.7-1.7-8.1-1.8-8.1-1.8H27s-5.3.1-8.1,1.8a9.6,9.6,0,0,0-4.6,8.6,11.9,11.9,0,0,0,.3,2.4,8,8,0,0,1,.3,1.5v2.7a.5.5,0,0,1-.4.5h-.3c-.3,0-.4-.2-.4-.5V17.4a2.3,2.3,0,0,0-.3-.9,10.4,10.4,0,0,1-.7-2.8v-.3c0-2.6,0-7,5.5-10.6C20.3,1.5,24.7,1,27,1s6.8.5,8.9,1.8C41.4,6.4,41.4,10.8,41.4,13.4Z" style="fill:#556784"/><g style="mix-blend-mode:multiply"><path d="M39.2,5.7c2.1,2.8,2,5.7,2,7.7s-1,3.5-1,4v2.7a.4.4,0,0,1-.4.4h-.3c-.1,0-.2,0-.2-.1a.4.4,0,0,0,.4.4H40a.5.5,0,0,0,.4-.5V17.7c0-.6,1-2.7,1-4.1S41.5,8.6,39.2,5.7Z" style="fill:#b3b3b3"/><path d="M35,4.8C32.2,3.1,26.9,3,26.9,3s-5.4.1-8.2,1.8a9.6,9.6,0,0,0-4.6,8.6c0,2,.6,2.7.6,4v2.7a.4.4,0,0,1-.4.4H14c-.1,0-.2,0-.2-.1a.4.4,0,0,0,.4.4h.3a.5.5,0,0,0,.4-.5V17.6c0-1.2-.6-1.9-.6-3.9a9.5,9.5,0,0,1,4.6-8.6c2.8-1.7,8.2-1.8,8.2-1.8s5.3.1,8.1,1.8a11.6,11.6,0,0,1,2.6,2.2A11.6,11.6,0,0,0,35,4.8Z" style="fill:#b3b3b3"/></g><g style="opacity:0.30000000000000004"><path d="M14,20.5V17.9c0-.6-1.1-2.7-1.1-4.1S12.7,6.7,18.5,3c2.6-1.7,8.8-1.9,8.8-1.9s6.1.2,8.8,1.9l1.3.9c-.4-.4-1-.7-1.5-1.1C33.2,1.1,27.1,1,27.1,1s-6.2.1-8.9,1.8c-5.7,3.7-5.5,8.1-5.5,10.8s1.1,3.5,1.1,4.1v2.6c0,.2.1.4.2.4Z" style="fill:#ffe89f"/><path d="M39.5,20.5V17.8c0-1.3.6-1.9.6-3.9A9.7,9.7,0,0,0,36.4,6a9.6,9.6,0,0,1,3.4,7.7c0,2-.5,2.7-.5,3.9v2.7c0,.2.1.4.2.4Z" style="fill:#ffe89f"/></g><path d="M24,17.6V16.1a14.9,14.9,0,0,0-.2-2.1l-.5-.7a3,3,0,0,1-.6-1.5h0v-.2a1.9,1.9,0,0,1,1.9-1.6h5.1a1.9,1.9,0,0,1,1.9,1.6h.1v.2a3,3,0,0,1-.6,1.5l-.5.7a14.9,14.9,0,0,0-.2,2.1v1.5Z" style="fill:#556784"/><path d="M27.7,1a15.2,15.2,0,0,1,9.7,2.9h-.2a13.4,13.4,0,0,1,2.1,2h-.1c2.6,3.5,2.4,6.3,2,9.2-.2,1-.7,1.9-.8,2.8v2.6c0,.4-.3.5-.6.5h-.3c-.1,0-.2-.1-.2-.3h0a14.3,14.3,0,0,1,.3-4.6,10.4,10.4,0,0,0-2.4-9.3C35,4.4,31.1,3.3,27.1,3.3s-9,1.4-11,4.4a10.3,10.3,0,0,0-1.7,7.5,11.4,11.4,0,0,1,.5,2.4v2.7c0,.4-.3.5-.6.5H14c-.1,0-.2-.1-.2-.3h0c-.1-.2,0-2.7-.1-3a12.7,12.7,0,0,1-.9-5.8c-.2-3.9,3.8-9.5,9.5-10.1A31.9,31.9,0,0,1,27.7,1m9.7,2.9h0m1.8,1.8h0M27.7,0V0a37.4,37.4,0,0,0-5.5.5c-6,.6-10.6,6.5-10.4,11.1a12.7,12.7,0,0,0,1,6.1v3.1a1.5,1.5,0,0,0,.8.8h.7a1.7,1.7,0,0,0,1.2-.5,1.5,1.5,0,0,0,.4-1V17.6a11.3,11.3,0,0,0-.3-1.8c-.1-.2-.1-.5-.2-.7a9.4,9.4,0,0,1,1.5-6.8c1.6-2.5,5.5-4,10.2-4s7.5,1.1,9.3,3a9.3,9.3,0,0,1,2.2,8.4,15.8,15.8,0,0,0-.3,4.7.6.6,0,0,0,.1.4,1.1,1.1,0,0,0,.7.8h.7a1.7,1.7,0,0,0,1.2-.5,1.5,1.5,0,0,0,.4-1V17.8a7.9,7.9,0,0,1,.3-1.3,5.8,5.8,0,0,0,.5-1.4h0c.4-3.1.5-6.2-2.2-10h0l-.2-.2L38.2,3.3,38,3.1h0C35.3,1,32,0,27.7,0Z" style="fill:#314d77"/><path d="M29.8,9.9a1.9,1.9,0,0,1,1.9,1.6c.3,1-.6,1.7-1,2.5a10.8,10.8,0,0,0-.2,3.6H24a14.5,14.5,0,0,0-.2-3.6c-.4-.8-1.3-1.5-1-2.5a1.9,1.9,0,0,1,1.9-1.6h5.1m0-1H24.7a2.8,2.8,0,0,0-2.9,2.4,2.8,2.8,0,0,0,.7,2.5l.3.5a10.8,10.8,0,0,1,.2,3.1h0a1.1,1.1,0,0,0,.3.8,1.1,1.1,0,0,0,.7.3h6.5a1.1,1.1,0,0,0,.7-.3,1.1,1.1,0,0,0,.3-.8h0a8,8,0,0,1,.2-3.1c0-.1.2-.3.3-.5a2.8,2.8,0,0,0,.7-2.5,2.8,2.8,0,0,0-2.9-2.4Z" style="fill:#314d77"/></g></g></g></g></g></svg>