<svg xmlns="http://www.w3.org/2000/svg" viewBox="0 0 108.3 104.3"><g style="isolation:isolate"><g id="Layer_2" data-name="Layer 2"><g id="Layer_1-2" data-name="Layer 1"><path d="M95.4,29.2h0c-4.6-5.9-10.6-10.8-17.6-13.1a18.9,18.9,0,0,0-3.4-.9L72,14.7a45.9,45.9,0,0,0-7.3-.6H62.5a63.6,63.6,0,0,0-25.8,7.2A63.4,63.4,0,0,0,17.3,40l-1.2,1.8a40.4,40.4,0,0,0-3.2,6.6,15.5,15.5,0,0,0-.8,2.3,18.9,18.9,0,0,0-.9,3.4c-2.4,10.5,1.3,21.9,6.9,31s13,15.7,18.6,17.2c7.3,1.9,14.2-1.4,18.4-6.5h0c.3-.4,5.8-9.7-2.4-15a36.9,36.9,0,0,1-3.4-2.5c-8.6-6.9-16.5-19,2.7-29.9s25.3,1.4,27,12.1a29.2,29.2,0,0,1,.5,5c.4,9.7,11.2,9.7,11.7,9.7h.1c6.5-1,12.9-5.3,14.9-12.5S104.2,40.5,95.4,29.2ZM50.6,45.9c-8.4,4.8-12.6,3.6-14.4-.3-4-8.8,6.2-14.1,6.2-14.1s9.8-6.1,15.3,1.8C60.1,36.9,59.1,41.1,50.6,45.9Z" style="fill:#f5a45e"/><path d="M70.5,1.7c13,2,3.9,13.5,3.9,13.5L72,14.7c.9-1.3,4.1-6.6-2.6-7.6s-5.2,5.6-4.7,7H62.5S57.4-.3,70.5,1.7Z" style="fill:#f5a45e"/><path d="M69.4,7.1c6.7,1,3.5,6.3,2.6,7.6a45.9,45.9,0,0,0-7.3-.6C64.2,12.7,62.6,6,69.4,7.1Z" style="fill:#a7bfee"/><path d="M91.2,75.1a17.1,17.1,0,0,1-10.3-1.3c-5.6-2.7-5.8-8.2-6.6-13.4-.4-2.8-.9-5.5-2.6-7.6-4.5-5.7-10.9-5.9-18.1-1.7s-10.4,9.7-7.7,16.5A14.7,14.7,0,0,0,50.2,73c4.3,3.6,9.7,6.5,9.1,13.2a17.3,17.3,0,0,1-4.2,9.5c.3-.4,5.8-9.7-2.4-15a36.9,36.9,0,0,1-3.4-2.5c-8.6-6.9-16.5-19,2.7-29.9s25.3,1.4,27,12.1a29.2,29.2,0,0,1,.5,5C79.9,75.1,90.7,75.1,91.2,75.1Z" style="fill:#ec8e48"/><path d="M51.2,46.8c-8.5,4.9-12.6,3.6-14.4-.3-4-8.7,6.2-14.1,6.2-14.1s9.8-6,15.2,1.9C60.7,37.8,59.6,42,51.2,46.8Z" style="fill:#ec8e48"/><path d="M50.6,45.9c-8.4,4.8-12.6,3.6-14.4-.3-4-8.7,6.2-14.1,6.2-14.1s9.8-6.1,15.3,1.8C60.1,36.9,59.1,41.1,50.6,45.9Z" style="fill:#efe0cb"/><path d="M46.8,39.2c-4.4,2.5-7,1.3-7.2-1v-.5c.4-2.1,4-4.1,4-4.1s3.6-2.1,5.6-1.3l.4.2C51.5,33.8,51.2,36.6,46.8,39.2Z" style="fill:#a7bfee"/><path d="M17.3,40h0l-1.2,1.8c-1-1.1-5.9-5.9-8.4.5s3.6,6.2,5.2,6.1a15.5,15.5,0,0,0-.8,2.3s-14.5,2-9.6-10.2S17.3,40,17.3,40Z" style="fill:#f5a45e"/><path d="M7.7,42.3c2.5-6.4,7.4-1.6,8.4-.5a40.4,40.4,0,0,0-3.2,6.6C11.3,48.5,5.2,48.6,7.7,42.3Z" style="fill:#a7bfee"/><path d="M29.9,37.1a3.7,3.7,0,0,1,3.3,4,3.6,3.6,0,0,1-4,3.2A3.5,3.5,0,0,1,26,40.4,3.6,3.6,0,0,1,29.9,37.1Z" style="fill:#6a3417"/><path d="M31.2,39.1a1.1,1.1,0,0,1-1.3,1.1,1.2,1.2,0,0,1-1.1-1.3,1.2,1.2,0,1,1,2.4.2Z" style="fill:#fff;opacity:0.5;mix-blend-mode:soft-light"/><path d="M53.6,23.6a3.6,3.6,0,0,0,6.6,3.1,3.6,3.6,0,1,0-6.6-3.1Z" style="fill:#6a3417"/><path d="M54.7,25.7a1.1,1.1,0,0,0,1.6-.6,1.2,1.2,0,0,0-.6-1.6,1.2,1.2,0,0,0-1.6.6A1.1,1.1,0,0,0,54.7,25.7Z" style="fill:#fff;opacity:0.5;mix-blend-mode:soft-light"/><path d="M49.2,32.3c-.2,1.2-1.4,2.8-3.9,4.2s-4.4,1.7-5.7,1.2c.4-2.1,4-4.1,4-4.1S47.2,31.5,49.2,32.3Z" style="fill:#263044;opacity:0.5;mix-blend-mode:soft-light"/><path d="M59.3,86.2a17.3,17.3,0,0,1-4.2,9.5h0c-4.2,5.1-11.1,8.4-18.4,6.5-5.6-1.5-13-8.3-18.6-17.2a26.6,26.6,0,0,0,6,3.2,19.5,19.5,0,0,0,4.6,1.2,19.6,19.6,0,0,0,13-2.4,17,17,0,0,0,7.6-8.9c.1-.4.3-.8.4-1.2a18.3,18.3,0,0,0,.5-4C54.5,76.6,59.9,79.5,59.3,86.2Z" style="fill:#263044;opacity:0.5;mix-blend-mode:soft-light"/><path d="M106.2,62.6c-2,7.2-8.4,11.5-14.9,12.5h-.1a17.1,17.1,0,0,1-10.3-1.3c-5.6-2.7-5.8-8.2-6.6-13.4a10.6,10.6,0,0,0,4.7,0l1.8-.4a20.7,20.7,0,0,0,10.5-7.7,25.2,25.2,0,0,0,4.6-11.5,26.3,26.3,0,0,0,.3-5.6,41.1,41.1,0,0,0-.8-6C104.2,40.5,108.3,55.3,106.2,62.6Z" style="fill:#263044;opacity:0.5;mix-blend-mode:soft-light"/><path d="M95.4,29.2h0c-4.6-5.9-10.6-10.8-17.6-13.1a18.9,18.9,0,0,0-3.4-.9h0S83.5,3.7,70.5,1.7s-8,12.4-8,12.4h0a63.6,63.6,0,0,0-25.8,7.2A63.4,63.4,0,0,0,17.3,40h0s-9.9-11.8-14.8.5,9.6,10.2,9.6,10.2.1-.3.2-.5-.2.3-.2.5a18.9,18.9,0,0,0-.9,3.4c-2.4,10.5,1.3,21.9,6.9,31s13,15.7,18.6,17.2c7.3,1.9,14.2-1.4,18.4-6.5h0a17.3,17.3,0,0,0,4.2-9.5c.6-6.7-4.8-9.6-9.1-13.2a14.7,14.7,0,0,1-4.3-5.4c-2.7-6.8.5-12.4,7.7-16.5s13.6-4,18.1,1.7c1.7,2.1,2.2,4.8,2.6,7.6.8,5.2,1,10.7,6.6,13.4a17.1,17.1,0,0,0,10.3,1.3h.1c6.5-1,12.9-5.3,14.9-12.5S104.2,40.5,95.4,29.2Z" style="fill:none;stroke:#a8662f;stroke-linecap:round;stroke-linejoin:round;stroke-width:3px"/></g></g></g></svg>