<svg xmlns="http://www.w3.org/2000/svg" viewBox="0 0 141 114.2"><g style="isolation:isolate"><g id="Layer_2" data-name="Layer 2"><g id="Layer_1-2" data-name="Layer 1"><path d="M128.7,68.1a20.3,20.3,0,0,1,3-3.2c3.7-3.4,8.9-9,7.6-19.6a22.9,22.9,0,0,0-.7-3.4c-1.5-5.7-5.2-13-11.2-16.9h0a26.6,26.6,0,0,0-6.3-4.2,13.3,13.3,0,0,0-2.4-1.1,36.1,36.1,0,0,0-26.3,0,.1.1,0,0,0-.1.1.6.6,0,0,1-.7-.3h0C89.1,9.2,75.8-.6,57.6,1.9s-25.9,15-23.4,25.2a4.3,4.3,0,0,0,.1.5h-.7a34.9,34.9,0,0,0-17.7,2.6l-1.6.7C8,34.1,3.1,39.3,1.8,46.6a24.5,24.5,0,0,0-.2,2.7h0a29.9,29.9,0,0,0,.5,8.1C5.4,74.4,23,78.7,22.9,81.1v.4c-.2,9.8,5.1,25,20.4,29.3s31.1.6,37.6-8.4A2.4,2.4,0,0,1,84,102c23.7,16,60.8-7.8,44.6-32.3A1.5,1.5,0,0,1,128.7,68.1Z" style="fill:#fff4ed"/><path d="M95.2,50.9c2.6,10.5-6.3,20.4-19.9,22.2S48.5,67.9,45.9,57.5c-1.7-6.7,1.4-13.2,7.4-17.5h0a28.9,28.9,0,0,1,12.6-4.8c13.4-1.8,26.4,5,29.2,15.2A.9.9,0,0,1,95.2,50.9Z" style="fill:#fcd54d;stroke:#ffaa5a;stroke-miterlimit:10;stroke-width:3px"/><path d="M28.1,71.8a40.4,40.4,0,0,1,7.5-7.4,34.6,34.6,0,0,1,4.5-2.9c1.3-.7,3.2-1.2,4.2-2.3s-.1-.9-.5-.9-3.3,1.2-4.6,2a35.8,35.8,0,0,0-4.5,3.1,32.7,32.7,0,0,0-7.3,8,.4.4,0,0,0,.7.4Z" style="fill:#f6e1d8"/><path d="M33.9,28.3a34.8,34.8,0,0,1,9,4.6,41.2,41.2,0,0,1,4,3.3c.9.8,2,2.3,3.3,2.4s.6-.2.6-.6-2.1-2.4-3.2-3.3a49.7,49.7,0,0,0-4.4-3.2,27.7,27.7,0,0,0-9.1-4.1c-.6-.1-.7.7-.2.9Z" style="fill:#f6e1d8"/><path d="M82.4,34.8a72.9,72.9,0,0,1,4.9-7.4l3-3.4a23.4,23.4,0,0,0,3.2-3.1c.4-.5-.3-1.4-1-1.1a13.8,13.8,0,0,0-3.3,3.1c-1,1.1-2,2.3-2.9,3.5a32.3,32.3,0,0,0-4.7,8c-.2.4.5.7.8.4Z" style="fill:#f6e1d8"/><path d="M99.1,54.3a63.7,63.7,0,0,1,9.4,2.9l4.3,1.7c1.3.5,2.7,1.3,4,1.2a.6.6,0,0,0,.4-1c-1.1-1.1-2.7-1.4-4.1-1.9l-4.6-1.6a75.8,75.8,0,0,0-9.4-2.3c-.6-.1-.6.8,0,1Z" style="fill:#f6e1d8"/><path d="M73.7,76.1A43.7,43.7,0,0,0,75.1,84a17.5,17.5,0,0,0,1.2,3.2,6.6,6.6,0,0,0,2.1,3.1.6.6,0,0,0,.9-.5c-.2-1.1-1.1-2.1-1.6-3.2a21.3,21.3,0,0,1-1.4-3.5c-.6-2.4-1.2-4.8-1.7-7.1-.1-.6-1-.5-.9.1Z" style="fill:#f6e1d8"/><path d="M95.2,50.9c2.6,10.5-6.3,20.4-19.9,22.2S48.5,67.9,45.9,57.5c-1.7-6.7,1.4-13.2,7.4-17.5a13.3,13.3,0,0,0-1.7,8.1,16.3,16.3,0,0,0,5.7,10.7A27.9,27.9,0,0,0,62,62c3.9,2.3,8.2,4.4,12.4,3.7,2.2-.4,4.1-1.6,6.3-2s2.8-.3,4.1-.6a11.4,11.4,0,0,0,5.1-3.5,20.6,20.6,0,0,0,5.2-9.2A.9.9,0,0,1,95.2,50.9Z" style="fill:#c4460b;opacity:0.2;mix-blend-mode:multiply"/><path d="M138.6,41.9a22.9,22.9,0,0,1,.7,3.4c1.3,10.6-3.9,16.2-7.6,19.6L129,66.5l.2.3-1,.6.5.7a1.5,1.5,0,0,0-.1,1.6C144.8,94.2,107.7,118,84,102a2.4,2.4,0,0,0-3.1.4c-6.5,9-21.8,12.9-37.6,8.4S22.7,91.3,22.9,81.5c0-.1.1-.1.1-.2h-.1v-.2C23,78.7,5.4,74.4,2.1,57.4a29.9,29.9,0,0,1-.5-8.1h0a24.5,24.5,0,0,1,.2-2.7C3.1,39.3,8,34.1,14.3,30.9a17.5,17.5,0,0,0-2.3,5,21.9,21.9,0,0,0-.3,12.7c2.5,9,10.9,16.8,20.4,18.9-4.4,4.5-3.6,12.4.6,17.9s10.9,8.7,17.7,10.1c10,2.1,21.5-.2,26-8.3,4.3,4.9,11.5,7.1,17.8,6.4A26.9,26.9,0,0,0,110,85.2c6.8-6.9,10.4-17.9,4.8-26.8,7.3-.7,12-7.3,13.2-14.1s-.9-14.9-5.3-21.4l-1.6-2.1a26.6,26.6,0,0,1,6.3,4.2h0C133.4,28.9,137.1,36.2,138.6,41.9Z" style="fill:#b8836e;opacity:0.2;mix-blend-mode:multiply"/><path d="M128.7,68.1a20.3,20.3,0,0,1,3-3.2c3.7-3.4,8.9-9,7.6-19.6a22.9,22.9,0,0,0-.7-3.4c-1.5-5.7-5.2-13-11.2-16.9h0a26.6,26.6,0,0,0-6.3-4.2,13.3,13.3,0,0,0-2.4-1.1,36.1,36.1,0,0,0-26.3,0,.1.1,0,0,0-.1.1.6.6,0,0,1-.7-.3h0C89.1,9.2,75.8-.6,57.6,1.9s-25.9,15-23.4,25.2c0,.1.1.3.1.4h-.2c-.2,0-.4,0-.4.2h-.1a34.9,34.9,0,0,0-17.7,2.6l-1.6.7C8,34.1,3.1,39.3,1.8,46.6a24.5,24.5,0,0,0-.2,2.7h0a29.9,29.9,0,0,0,.5,8.1C5.4,74.4,23,78.7,22.9,81.1v.4c-.2,9.8,5.1,25,20.4,29.3s31.1.6,37.6-8.4A2.4,2.4,0,0,1,84,102c23.7,16,60.8-7.8,44.6-32.3A1.5,1.5,0,0,1,128.7,68.1Z" style="fill:none;stroke:#ddab88;stroke-miterlimit:10;stroke-width:3px"/></g></g></g></svg>