<svg xmlns="http://www.w3.org/2000/svg" xmlns:xlink="http://www.w3.org/1999/xlink" viewBox="0 0 404.4 296.3"><defs><clipPath id="clip-path" transform="translate(1.3)"><path d="M397.9,151.3c-.7,8.4-1.5,51.6-2.4,58.9a19.5,19.5,0,0,1-4.1,9.8l-.2.3c-30.6,37.8-121.7,51.2-190.4,51.2h-.2c-41.2,0-81.8-4.5-114.4-12.5-36.3-9.1-62.4-22.4-75.6-38.7h0a19.9,19.9,0,0,1-4.1-10.2L4,151.3h.4l3-.7a56,56,0,0,1,10.9-1.1H79.6a58,58,0,0,1,11.1,1.1l3.2.8a22,22,0,0,0,11.4,0l3.1-.8a59.7,59.7,0,0,1,11.1-1.1h61.4a58,58,0,0,1,11.1,1.1,34.5,34.5,0,0,1,8.4,2.7l.5.2.5-.3a40.3,40.3,0,0,1,8.3-2.6,58.8,58.8,0,0,1,11.1-1.1h61.3a57.2,57.2,0,0,1,11.1,1.1l3.3.8a19.1,19.1,0,0,0,11.1,0l3.4-.8a57.2,57.2,0,0,1,11.1-1.1h61.3a57.8,57.8,0,0,1,11,1.1l2.8.7Z" style="fill:none"/></clipPath></defs><g id="Layer_2" data-name="Layer 2"><g id="Layer_1-2" data-name="Layer 1"><g style="clip-path:url(#clip-path)"><path d="M81.9,249.8H30.3c-11.1,0-17.7-2.7-21.5-14.7S.2,178.8.2,149c0-10.2,7.6-14.7,18.6-14.7H70.4c11.1,0,20.7,6.6,21.5,14.7l8.6,86.1C101.3,243.2,92.9,249.8,81.9,249.8Z" transform="translate(1.3)" style="fill:#ffaa5a;stroke:#e84e2c;stroke-miterlimit:10;stroke-width:3px"/><path d="M97.9,260H52.4c-9.8,0-15.7-2.7-19-14.7s-7.6-56.3-7.6-86.1c0-10.2,6.7-14.7,16.4-14.7H87.8c9.8,0,18.3,6.6,19,14.7l7.5,86.1C115,253.4,107.7,260,97.9,260Z" transform="translate(1.3)" style="fill:#ffaa5a;stroke:#e84e2c;stroke-miterlimit:10;stroke-width:3px"/><path d="M128.3,275.4H86.6c-9,0-14.4-2.7-17.4-14.7s-6.9-56.2-6.9-86.1c0-10.2,6-14.7,15-14.7H119c9,0,16.8,6.6,17.4,14.7l6.9,86.1C144,268.8,137.3,275.4,128.3,275.4Z" transform="translate(1.3)" style="fill:#ffaa5a;stroke:#e84e2c;stroke-miterlimit:10;stroke-width:3px"/><path d="M158.9,285.6H124.5c-7.4,0-11.8-3.1-14.4-17.1s-5.7-65.7-5.7-100.6c0-11.9,5.1-17.1,12.4-17.1h34.5c7.3,0,13.8,7.6,14.3,17.1l5.7,100.6C171.8,277.9,166.3,285.6,158.9,285.6Z" transform="translate(1.3)" style="fill:#ffaa5a;stroke:#e84e2c;stroke-miterlimit:10;stroke-width:3px"/><path d="M236.1,159.9H212.2c-5.2,0-9.7,7.7-10,17.2l-1.1,27.3L200,177.1c-.4-9.5-4.8-17.2-10-17.2H166.1c-5.2,0-8.7,5.3-8.7,17.2,0,34.8,2.2,86.5,4,100.5s4.8,17.2,10,17.2h23.9c2.3,0,4.3-1.5,5.8-3.9,1.5,2.4,3.5,3.9,5.7,3.9h24c5.1,0,8.2-3.1,10-17.2s3.9-65.7,3.9-100.5C244.7,165.2,241.3,159.9,236.1,159.9Z" transform="translate(1.3)" style="fill:#ffaa5a;stroke:#e84e2c;stroke-miterlimit:10;stroke-width:3px"/><path d="M320,249.8h51.6c11,0,17.7-2.7,21.5-14.7s8.5-56.3,8.5-86.1c0-10.2-7.5-14.7-18.6-14.7H331.5c-11.1,0-20.7,6.6-21.5,14.7l-8.6,86.1C300.6,243.2,308.9,249.8,320,249.8Z" transform="translate(1.3)" style="fill:#ffaa5a;stroke:#e84e2c;stroke-miterlimit:10;stroke-width:3px"/><path d="M304,260h45.5c9.8,0,15.7-2.7,19-14.7S376,189,376,159.2c0-10.2-6.6-14.7-16.4-14.7H314.1c-9.8,0-18.3,6.6-19,14.7l-7.6,86.1C286.8,253.4,294.2,260,304,260Z" transform="translate(1.3)" style="fill:#ffaa5a;stroke:#e84e2c;stroke-miterlimit:10;stroke-width:3px"/><path d="M273.6,275.4h41.7c8.9,0,14.3-2.7,17.4-14.7s6.9-56.2,6.9-86.1c0-10.2-6.1-14.7-15-14.7H282.8c-8.9,0-16.7,6.6-17.4,14.7l-6.9,86.1C257.9,268.8,264.6,275.4,273.6,275.4Z" transform="translate(1.3)" style="fill:#ffaa5a;stroke:#e84e2c;stroke-miterlimit:10;stroke-width:3px"/><path d="M243,285.6h34.4c7.4,0,11.8-3.1,14.3-17.1s5.7-65.7,5.7-100.6c0-11.9-5-17.1-12.4-17.1H250.6c-7.4,0-13.8,7.6-14.3,17.1l-5.7,100.6C230,277.9,235.6,285.6,243,285.6Z" transform="translate(1.3)" style="fill:#ffaa5a;stroke:#e84e2c;stroke-miterlimit:10;stroke-width:3px"/><path d="M165.8,159.9h23.9c5.2,0,9.6,7.7,10,17.2l1.1,27.3,1.1-27.3c.3-9.5,4.8-17.2,10-17.2h23.9c5.2,0,8.6,5.3,8.6,17.2,0,34.8-2.2,86.5-3.9,100.5s-4.9,17.2-10,17.2h-24c-2.2,0-4.2-1.5-5.7-3.9-1.5,2.4-3.5,3.9-5.8,3.9H171.1c-5.2,0-8.3-3.1-10-17.2s-4-65.7-4-100.5C157.1,165.2,160.6,159.9,165.8,159.9Z" transform="translate(1.3)" style="fill:#ffaa5a;stroke:#e84e2c;stroke-miterlimit:10;stroke-width:3px"/></g><path d="M383.4,149.4a57.8,57.8,0,0,1,11,1.1l2.8.7h.7c-.7,8.4-1.5,51.6-2.4,58.9a19.5,19.5,0,0,1-4.1,9.8l-.2.3c-30.6,37.8-121.7,51.2-190.4,51.2h-.2c-41.2,0-81.8-4.5-114.4-12.5-36.3-9.1-62.4-22.4-75.6-38.7h0a19.9,19.9,0,0,1-4.1-10.2L4,151.3h.4l3-.7a56,56,0,0,1,10.9-1.1H79.6a58,58,0,0,1,11.1,1.1l3.2.8a20.7,20.7,0,0,0,11.4,0l3.1-.8a59.7,59.7,0,0,1,11.1-1.1h61.4a58,58,0,0,1,11.1,1.1,34.5,34.5,0,0,1,8.4,2.7l.5.2.5-.3a40.3,40.3,0,0,1,8.3-2.6,58.8,58.8,0,0,1,11.1-1.1h61.3a57.2,57.2,0,0,1,11.1,1.1l3.3.8a21.6,21.6,0,0,0,5.6.8,17,17,0,0,0,5.5-.8l3.4-.8a57.2,57.2,0,0,1,11.1-1.1h61.3m0-3H322.1a55.9,55.9,0,0,0-11.7,1.2,21.1,21.1,0,0,0-3.6.9,18.9,18.9,0,0,1-4.7.6,14.9,14.9,0,0,1-4.7-.7l-3.5-.8a57.6,57.6,0,0,0-11.8-1.2H220.8a57.4,57.4,0,0,0-11.7,1.2,39.3,39.3,0,0,0-8.2,2.5,40.3,40.3,0,0,0-8.3-2.5,57.4,57.4,0,0,0-11.7-1.2H119.5a58.1,58.1,0,0,0-11.7,1.2l-3.3.8a16.6,16.6,0,0,1-4.9.7,15.5,15.5,0,0,1-4.8-.7l-3.5-.8a57.4,57.4,0,0,0-11.7-1.2H18.3a54.7,54.7,0,0,0-11.5,1.2l-3,.6-.6.2L.9,149v2.4l2.5,58.8h0a22.2,22.2,0,0,0,4.8,11.7h0c13.6,16.8,40.2,30.5,77.2,39.7,32.7,8.1,73.6,12.6,115.1,12.6h.2c38.7,0,77.8-4.1,110.2-11.5,40.3-9.2,68.1-23,82.5-40.8l.3-.3a24.2,24.2,0,0,0,4.7-11.3c.5-4.3,1-19.5,1.4-34.2.4-10.9.7-21.3,1-24.9l.2-2.4-2.4-.7-.9-.2-2.8-.6a56.4,56.4,0,0,0-11.6-1.2Z" transform="translate(1.3)" style="fill:#e84e2c"/><path d="M388.5,145.2a18.4,18.4,0,0,1-11.2,21.5c-49.7,19.6-112.3,35.7-166.1,37.1h-.1q-10.2.3-20.4,0c-53.8-1.3-116.4-17.5-166.2-37.1a18.4,18.4,0,0,1-11.1-21.5C33.3,62.7,117.3,8.9,200.9,10,284.6,8.9,368.6,62.7,388.5,145.2Z" transform="translate(1.3)" style="fill:#edcebe"/><path d="M356.4,109.5c1.8,5.3-2.2,10.6-9.3,12.6-41.2,11.6-93,21-137.7,21.8h0c-5.7.2-11.3.2-17,0-44.5-.8-96.5-10.2-137.7-21.8-7.1-1.9-11-7.3-9.2-12.6,16.5-48.4,86.1-80,155.4-79.4S339.9,61.1,356.4,109.5Z" transform="translate(1.3)" style="fill:#ffeee3"/><path d="M200.6,212.5l-10.2-.2c-49.1-1.2-112.3-15.3-169-37.7A27.1,27.1,0,0,1,5.1,143.2C15,102.2,41,65.3,78.4,39.3A212.1,212.1,0,0,1,200.9,1.5,212.1,212.1,0,0,1,323.5,39.3c37.3,26,63.4,62.9,73.3,103.9h0a27.1,27.1,0,0,1-16.4,31.4C323,197.3,261.5,211,211.6,212.3h-.5Zm-2.2-194c-83.2,0-159,55-176.8,128.7a10.1,10.1,0,0,0,6.1,11.6c54.9,21.7,115.9,35.3,163.2,36.5,6.2.2,12.5.2,19.2,0h1.8c47.2-1.4,107.8-15,162.3-36.5a9.9,9.9,0,0,0,6-11.6c-18-74.4-95-129.8-179.2-128.7h-2.6Z" transform="translate(1.3)" style="fill:#ddab88;stroke:#924f28;stroke-miterlimit:10;stroke-width:3px"/><path d="M218.6,207.6l-3.5.2h0Z" transform="translate(1.3)" style="fill:#f9e6a0"/><path d="M283.8,106.5a4.4,4.4,0,0,1,4.4-4.4h0a4.4,4.4,0,0,1,4.4,4.4h0a4.4,4.4,0,0,1-4.4,4.3h0a4.4,4.4,0,0,1-4.4-4.3Z" transform="translate(1.3)" style="fill:#ffc6b0"/><polygon points="289.5 127.6 291.8 107 289.5 86.4 287.1 107 289.5 127.6" style="fill:#ffc6b0"/><polygon points="268.5 107 289.5 109.3 310.4 107 289.5 104.7 268.5 107" style="fill:#ffc6b0"/><path d="M109.3,106.5a4.4,4.4,0,0,1,4.3-4.4h0a4.4,4.4,0,0,1,4.4,4.4h0a4.4,4.4,0,0,1-4.4,4.3h0a4.3,4.3,0,0,1-4.3-4.3Z" transform="translate(1.3)" style="fill:#ffc6b0"/><polygon points="114.9 127.6 117.2 107 114.9 86.4 112.6 107 114.9 127.6" style="fill:#ffc6b0"/><polygon points="93.9 107 114.9 109.3 135.9 107 114.9 104.7 93.9 107" style="fill:#ffc6b0"/><path d="M387.7,179.2c-53.6,64.9-320.8,65-374.4,0-6.5-8-9.9-16.9-9.2-26.7l.5-.3h.1l3.1-.7a54,54,0,0,1,10.1-1H79.2a56.2,56.2,0,0,1,10.3,1,39.4,39.4,0,0,1,9.7,3.3,39.4,39.4,0,0,1,9.7-3.3,55.4,55.4,0,0,1,10.3-1h61.3a56.2,56.2,0,0,1,10.3,1,39.4,39.4,0,0,1,9.7,3.3,39.4,39.4,0,0,1,9.7-3.3,55.1,55.1,0,0,1,10.2-1h61.4a54.3,54.3,0,0,1,10.2,1,38,38,0,0,1,9.7,3.3,40.9,40.9,0,0,1,9.7-3.3,56.2,56.2,0,0,1,10.3-1H383a55.1,55.1,0,0,1,10.2,1l3,.7h.2l.6.3C397.6,162.3,394.2,171.2,387.7,179.2Z" transform="translate(1.3)" style="fill:#f49782"/><path d="M373,175.1c-49.5,42-295.6,42-344.9,0-6-5.1-9.1-10.8-8.6-17.2l.5-.2h.1l2.9-.4a66.4,66.4,0,0,1,9.3-.7H88.7a72.2,72.2,0,0,1,9.6.7,43.8,43.8,0,0,1,8.8,2.1,49.8,49.8,0,0,1,9-2.1,69.4,69.4,0,0,1,9.5-.7H182a72.2,72.2,0,0,1,9.6.7,46.7,46.7,0,0,1,8.9,2.1,46.7,46.7,0,0,1,8.9-2.1,69.4,69.4,0,0,1,9.5-.7h56.5a69.1,69.1,0,0,1,9.4.7,47.8,47.8,0,0,1,9,2.1,44.9,44.9,0,0,1,8.9-2.1,69.4,69.4,0,0,1,9.5-.7h56.5a67.6,67.6,0,0,1,9.3.7l2.8.4h.2l.6.2C382.1,164.3,379,170,373,175.1Z" transform="translate(1.3)" style="fill:#ffc6b0"/><path d="M200.4,230.4h-.2c-41.1,0-81.6-4.4-114-12.3-36-8.7-61.9-21.7-74.8-37.3C4.2,172,.9,162.4,1.6,152.3a2.3,2.3,0,0,1,1.3-2l.5-.3.9-.3,3-.7a61.4,61.4,0,0,1,10.6-1H79.2A63.8,63.8,0,0,1,90,149a49.7,49.7,0,0,1,9.2,3,47.3,47.3,0,0,1,9.2-3,63.8,63.8,0,0,1,10.8-1h61.3a63.8,63.8,0,0,1,10.8,1,52.3,52.3,0,0,1,9.2,3,52.3,52.3,0,0,1,9.2-3,63.6,63.6,0,0,1,10.7-1h61.4a61.7,61.7,0,0,1,10.7,1,45.2,45.2,0,0,1,9.2,3,41.4,41.4,0,0,1,9.2-3,63.8,63.8,0,0,1,10.8-1H383a63.6,63.6,0,0,1,10.7,1l2.9.7.8.2.6.3a2.4,2.4,0,0,1,1.5,2.1q.9,15.3-9.9,28.5h0C359.4,217.4,268.9,230.4,200.4,230.4ZM6.5,154.3c-.1,8.2,2.8,16,8.8,23.3,23.9,29,96.5,47.8,184.9,47.8h.3c88.6,0,161.3-18.7,185.3-47.8,5.9-7.2,8.8-15,8.8-23.2l-1.9-.5a52.3,52.3,0,0,0-9.7-.9H321.7a52.5,52.5,0,0,0-9.8.9,32.9,32.9,0,0,0-9,3.2,2.7,2.7,0,0,1-2.3-.1,40.1,40.1,0,0,0-9.1-3.1,50.7,50.7,0,0,0-9.7-.9H220.4a53.3,53.3,0,0,0-9.8.9,36.6,36.6,0,0,0-9,3.2,2.7,2.7,0,0,1-2.3-.1,37.8,37.8,0,0,0-9-3.1,52.5,52.5,0,0,0-9.8-.9H119.2a51.8,51.8,0,0,0-9.8.9,34.6,34.6,0,0,0-9.1,3.2A2.7,2.7,0,0,1,98,157a37.8,37.8,0,0,0-9-3.1,51.8,51.8,0,0,0-9.8-.9H17.9a50.4,50.4,0,0,0-9.6.9Zm381.2,24.9Z" transform="translate(1.3)" style="fill:#ff8773;stroke:#e84e2c;stroke-miterlimit:10;stroke-width:3px"/><ellipse cx="121.8" cy="174.7" rx="10.7" ry="3.7" style="fill:#ffc6b0;stroke:#fff;stroke-miterlimit:10;stroke-width:3px"/><ellipse cx="281.8" cy="174.7" rx="10.7" ry="3.7" style="fill:#ffc6b0;stroke:#fff;stroke-miterlimit:10;stroke-width:3px"/><ellipse cx="201.8" cy="190.7" rx="10.7" ry="3.7" style="fill:#ffc6b0;stroke:#fff;stroke-miterlimit:10;stroke-width:3px"/><path d="M196.5,76.5a4.4,4.4,0,0,1,4.4-4.4h0a4.4,4.4,0,0,1,4.4,4.4h0a4.4,4.4,0,0,1-4.4,4.3h0a4.4,4.4,0,0,1-4.4-4.3Z" transform="translate(1.3)" style="fill:#ffc6b0"/><polygon points="202.2 97.6 204.5 77 202.2 56.4 199.9 77 202.2 97.6" style="fill:#ffc6b0"/><polygon points="181.2 77 202.2 79.3 223.2 77 202.2 74.7 181.2 77" style="fill:#ffc6b0"/></g></g></svg>