<svg xmlns="http://www.w3.org/2000/svg" viewBox="0 0 171.29 36.75"><g style="isolation:isolate"><g id="Layer_2" data-name="Layer 2"><g id="Layer_1-2" data-name="Layer 1"><g id="Props"><g id="fu_shelf_2" data-name="fu_shelf 2"><path d="M131.13,16.63V35.25h13.79s-1.26-12.82,7.21-18.62Z" fill="#e79175"/><path d="M152.13,16.63h-4.56c-8.47,5.8-7.21,18.62-7.21,18.62h4.56S143.66,22.43,152.13,16.63Z" fill="#ffad8e"/><g style="mix-blend-mode:color"><path d="M152.13,16.63h-21V35.25h13.79S143.66,22.43,152.13,16.63Z" fill="#af7553"/></g><g opacity="0.6" style="mix-blend-mode:multiply"><path d="M152.13,16.63h-21V35.25h13.79S143.66,22.43,152.13,16.63Z" fill="#af7553"/></g><path d="M144.92,36.75H129.63V15.13H157l-4,2.74c-7.62,5.22-6.58,17.11-6.57,17.23l.16,1.65Zm-12.29-3h10.72c0-3.22.43-10.42,4.89-15.62H132.63Z" fill="#924f28"/><path d="M40.16,16.63V35.25H26.37s1.26-12.82-7.21-18.62Z" fill="#e79175"/><path d="M19.16,16.63h4.56c8.47,5.8,7.21,18.62,7.21,18.62H26.37S27.63,22.43,19.16,16.63Z" fill="#ffad8e"/><g style="mix-blend-mode:color"><path d="M23.72,16.63H19.16c8.47,5.8,7.21,18.62,7.21,18.62H40.16V16.63Z" fill="#af7553"/></g><g opacity="0.6" style="mix-blend-mode:multiply"><path d="M23.72,16.63H19.16c8.47,5.8,7.21,18.62,7.21,18.62H40.16V16.63Z" fill="#af7553"/></g><path d="M41.67,36.75h-17l.16-1.65c0-.12,1.05-12-6.57-17.23l-4-2.74H41.67Zm-13.73-3H38.67V18.13H23.06C27.52,23.33,28,30.53,27.94,33.75Z" fill="#924f28"/><rect x="1.5" y="1.5" width="168.29" height="15.13" rx="2.21" fill="#ffc8ad"/><g opacity="0.5" style="mix-blend-mode:multiply"><path d="M3.71,16.63H167.58a2.19,2.19,0,0,0,1.14-.32C144.35,14.46,23.84,5.22,2.23,2.08A2.2,2.2,0,0,0,1.5,3.71V14.42A2.21,2.21,0,0,0,3.71,16.63Z" fill="#ffc8ad"/></g><g style="mix-blend-mode:color"><path d="M167.58,1.5H3.71a2.18,2.18,0,0,0-1.48.58h0a2.29,2.29,0,0,0-.52.7s0,0,0,0a2.2,2.2,0,0,0-.13.36.24.24,0,0,1,0,.08,2.31,2.31,0,0,0-.05.46V14.42a2.21,2.21,0,0,0,2.21,2.21H167.58a2,2,0,0,0,.56-.08l.09,0a2.18,2.18,0,0,0,1.56-2.1V3.71A2.21,2.21,0,0,0,167.58,1.5Z" fill="#af7553"/></g><g opacity="0.6" style="mix-blend-mode:multiply"><path d="M167.58,1.5H3.71a2.18,2.18,0,0,0-1.48.58h0a2.29,2.29,0,0,0-.52.7s0,0,0,0a2.2,2.2,0,0,0-.13.36.24.24,0,0,1,0,.08,2.31,2.31,0,0,0-.05.46V14.42a2.21,2.21,0,0,0,2.21,2.21H167.58a2,2,0,0,0,.56-.08l.09,0a2.18,2.18,0,0,0,1.56-2.1V3.71A2.21,2.21,0,0,0,167.58,1.5Z" fill="#af7553"/></g><path d="M167.58,18.13H3.71A3.72,3.72,0,0,1,0,14.42V3.71a4.13,4.13,0,0,1,.08-.78l.05-.18a4.08,4.08,0,0,1,.2-.56l.06-.11A3.7,3.7,0,0,1,3.71,0H167.58a3.71,3.71,0,0,1,3.71,3.71V14.42A3.7,3.7,0,0,1,168.68,18l-.13,0A3.93,3.93,0,0,1,167.58,18.13ZM3,3.62a.28.28,0,0,0,0,.09V14.42a.71.71,0,0,0,.71.71H167.58l.18,0a.71.71,0,0,0,.53-.68V3.71a.71.71,0,0,0-.71-.71H3.71a.66.66,0,0,0-.47.19.87.87,0,0,0-.17.22l0,0a.29.29,0,0,0,0,.09Z" fill="#924f28"/></g></g></g></g></g></svg>