<svg xmlns="http://www.w3.org/2000/svg" viewBox="0 0 61.02 69.95"><g id="Layer_2" data-name="Layer 2"><g id="Layer_1-2" data-name="Layer 1"><g id="Props"><g id="na_potted_plant_1" data-name="na_potted plant 1"><path d="M26.62,49.73s-3.17-35.94,24.45-48c0,0-10.58,47.55-12.67,51.89C38.4,53.64,34.3,55.5,26.62,49.73Z" fill="#6c9433"/><path d="M51.07,1.75S37,21.15,32.12,53c0,0,3.52,1.62,6.28.69C38.4,53.64,42.66,41.32,51.07,1.75Z" fill="#517125"/><path d="M42.48,39.72a.25.25,0,0,0,.17-.3.25.25,0,0,0-.31-.18l-7.66,2.12c.72-3,1.5-5.75,2.32-8.41l8-4a.26.26,0,0,0,.11-.34.25.25,0,0,0-.33-.11l-7.62,3.78c1.18-3.75,2.45-7.21,3.71-10.33l7.26-6.05a.24.24,0,0,0,0-.35.25.25,0,0,0-.35,0L41.32,21a105.57,105.57,0,0,1,10-19.09.25.25,0,0,0-.4-.29A105.86,105.86,0,0,0,40.75,21.07l-2.44-9.94a.25.25,0,0,0-.48.12l2.6,10.6c-1.26,3.12-2.51,6.56-3.69,10.29L31.57,21.76a.25.25,0,0,0-.44.22l5.4,10.84c-.83,2.66-1.61,5.47-2.33,8.41l-6.4-7.54a.26.26,0,0,0-.35,0,.24.24,0,0,0,0,.35l6.64,7.82c-.62,2.6-1.19,5.31-1.69,8.12l-5.6-6.63a.24.24,0,0,0-.35,0,.23.23,0,0,0,0,.34l5.87,7c-.13.76-.26,1.54-.39,2.32a.25.25,0,0,0,.19.28h0a.24.24,0,0,0,.28-.2c.12-.77.25-1.54.38-2.29L40.38,48a.25.25,0,0,0,.15-.32.23.23,0,0,0-.31-.15l-7.38,2.64c.5-2.85,1.08-5.6,1.71-8.23Z" fill="#d5e9c0"/><path d="M32.74,50.9S24,25.6,1.68,25.79c0,0,21.54,29,24.27,31.32C26,57.11,29.28,57.13,32.74,50.9Z" fill="#517125"/><path d="M1.68,25.79s15.43,8.87,28.31,29c0,0-1.89,2.17-4,2.37C26,57.11,19.34,50.05,1.68,25.79Z" fill="#6c9433"/><path d="M19,48.91a.18.18,0,0,1-.21-.15.2.2,0,0,1,.16-.21l5.82-.88c-1.37-1.78-2.75-3.45-4.11-5L14,42.4a.17.17,0,0,1-.17-.19A.19.19,0,0,1,14,42l6.3.26c-1.93-2.18-3.83-4.14-5.63-5.88l-6.75-1.9a.19.19,0,0,1-.13-.23A.19.19,0,0,1,8,34.16l6.08,1.71A77.29,77.29,0,0,0,1.59,26a.17.17,0,0,1-.06-.25.18.18,0,0,1,.25-.07A78.37,78.37,0,0,1,14.52,35.76l-1.36-7.47a.18.18,0,0,1,.15-.21.17.17,0,0,1,.21.14l1.45,8c1.79,1.73,3.68,3.68,5.6,5.86l.37-8.6a.18.18,0,0,1,.36,0l-.38,9c1.37,1.55,2.75,3.22,4.12,5l2.06-7a.19.19,0,0,1,.23-.12.18.18,0,0,1,.12.23l-2.13,7.3c1.21,1.57,2.41,3.24,3.6,5l1.79-6.19a.19.19,0,0,1,.22-.13.19.19,0,0,1,.13.23l-1.87,6.49,1,1.45a.2.2,0,0,1,0,.25h0a.18.18,0,0,1-.25-.06c-.31-.48-.63-1-.95-1.43l-6,.46a.19.19,0,1,1,0-.37l5.8-.44Q26.86,50.39,25,48Z" fill="#d5e9c0"/><path d="M32.57,51s7-22.59,26.79-23c0,0-18.26,26.21-20.62,28.32C38.74,56.28,35.79,56.38,32.57,51Z" fill="#517125"/><path d="M59.36,28S46,36.21,35.1,54.29a6.67,6.67,0,0,0,3.64,2S44.4,49.86,59.36,28Z" fill="#6c9433"/><path d="M44.68,48.85a.16.16,0,0,0,.18-.14.15.15,0,0,0-.14-.18l-5.17-.63q1.76-2.41,3.5-4.52L48.93,43a.16.16,0,1,0,0-.32L43.34,43c1.66-2,3.28-3.76,4.83-5.34l5.91-1.86a.17.17,0,0,0,.11-.2.16.16,0,0,0-.21-.11L48.65,37.2a68.58,68.58,0,0,1,10.8-9.1.17.17,0,0,0,0-.23.16.16,0,0,0-.22-.05,69.75,69.75,0,0,0-11,9.29l1-6.64a.15.15,0,0,0-.13-.18.16.16,0,0,0-.19.13L47.9,37.5c-1.54,1.58-3.16,3.35-4.8,5.32l-.55-7.58a.17.17,0,0,0-.33,0l.58,7.92Q41,45.3,39.29,47.7l-2-6.17a.16.16,0,0,0-.2-.1.17.17,0,0,0-.11.2L39.05,48c-1,1.42-2,2.93-3,4.51l-1.74-5.43a.16.16,0,0,0-.2-.1.16.16,0,0,0-.11.2l1.83,5.68c-.27.44-.55.87-.81,1.32a.15.15,0,0,0,0,.21h0a.16.16,0,0,0,.22,0l.8-1.3,5.32.25a.17.17,0,0,0,.17-.16.16.16,0,0,0-.16-.16l-5.13-.24q1.53-2.42,3.09-4.57Z" fill="#d5e9c0"/><path d="M43.71,49.53S48.43,37.78,59,38.41c0,0-10.86,13.19-12.21,14.21C46.77,52.62,45.19,52.55,43.71,49.53Z" fill="#6c9433"/><path d="M59,38.41a44.06,44.06,0,0,0-14.06,13,3.53,3.53,0,0,0,1.85,1.21S50.06,49.45,59,38.41Z" fill="#517125"/><path d="M50.26,48.92a.09.09,0,1,0,0-.17l-2.73-.56c.69-.81,1.38-1.56,2.06-2.26l3.15,0a.09.09,0,0,0,.09-.09.09.09,0,0,0-.08-.08l-3,0c1-1,1.91-1.87,2.8-2.64l3.24-.74a.09.09,0,0,0,.06-.11.09.09,0,0,0-.1-.06l-2.92.66A37.91,37.91,0,0,1,59,38.48a.08.08,0,0,0,0-.11.1.1,0,0,0-.12,0,37.78,37.78,0,0,0-6.26,4.48l.82-3.5a.09.09,0,0,0-.17,0L52.46,43c-.89.78-1.83,1.65-2.79,2.64l0-4.07a.08.08,0,0,0-.08-.09.09.09,0,0,0-.09.09l0,4.24c-.68.7-1.37,1.46-2.06,2.27l-.8-3.38c0-.05-.06-.08-.11-.06a.08.08,0,0,0-.06.1l.83,3.5c-.61.71-1.22,1.47-1.82,2.27l-.7-3a.08.08,0,0,0-.1-.06.07.07,0,0,0-.06.1l.73,3.11c-.17.22-.33.44-.49.67a.08.08,0,0,0,0,.11h0a.08.08,0,0,0,.12,0l.48-.66,2.82.36a.08.08,0,0,0,.1-.07.09.09,0,0,0-.07-.1l-2.73-.35c.61-.81,1.23-1.58,1.84-2.3Z" fill="#d5e9c0"/><path d="M21.64,49.72S17.42,39.25,8,39.8c0,0,9.69,11.77,10.9,12.68C18.91,52.48,20.31,52.42,21.64,49.72Z" fill="#6c9433"/><path d="M8,39.8A39.4,39.4,0,0,1,20.56,51.4a3.13,3.13,0,0,1-1.65,1.08S16,49.65,8,39.8Z" fill="#517125"/><path d="M15.79,49.18a.08.08,0,0,1-.09-.06.07.07,0,0,1,.06-.09l2.44-.5c-.62-.72-1.23-1.39-1.84-2l-2.81,0a.08.08,0,0,1-.08-.08.09.09,0,0,1,.08-.08l2.66,0c-.86-.88-1.7-1.67-2.5-2.36l-2.88-.66a.08.08,0,1,1,0-.15l2.6.6A33.07,33.07,0,0,0,8,39.87a.09.09,0,0,1,0-.1.08.08,0,0,1,.11,0,32.94,32.94,0,0,1,5.58,4l-.73-3.12a.08.08,0,0,1,.06-.09.07.07,0,0,1,.09.06l.78,3.32c.79.69,1.63,1.47,2.49,2.35l0-3.63a.08.08,0,0,1,.08-.08.08.08,0,0,1,.07.08l0,3.79c.6.62,1.22,1.3,1.84,2l.71-3a.08.08,0,0,1,.1,0,.08.08,0,0,1,.06.09l-.75,3.12c.54.64,1.09,1.31,1.62,2L20.69,48a.09.09,0,0,1,.09-.06.09.09,0,0,1,.06.1l-.65,2.77.43.59a.08.08,0,0,1,0,.11h0a.06.06,0,0,1-.1,0c-.15-.19-.29-.39-.43-.58l-2.52.32c-.05,0-.08,0-.09-.07a.08.08,0,0,1,.07-.08L20,50.72c-.54-.73-1.09-1.41-1.64-2.06Z" fill="#d5e9c0"/><path d="M25.41,58.61,25,58.26a25.23,25.23,0,0,1-2.67-3,1.7,1.7,0,0,1-1.11-1.37l-.5-.61-.09.06a2.59,2.59,0,0,1-.31.19l-.1.06A3.13,3.13,0,0,1,19,54l-.55,0L18,53.68a9.74,9.74,0,0,1-1.2-1.2,1.54,1.54,0,0,1-.74-.81q-.19-.24-.42-.48L15,50.48l-.11-.07-.52-.35-.09-.4-1.61-1.87-.24-.21a1.47,1.47,0,0,1-.31-.44c-.65-.76-1.36-1.61-2.13-2.54a1.56,1.56,0,0,1-.63-.76C8.68,43,7.94,42.1,7.16,41.13a1.58,1.58,0,0,1,1.3-2.84h.6c-.6-.79-1.21-1.6-1.84-2.45a1.63,1.63,0,0,1-.72-.68,1.57,1.57,0,0,1-.19-.55Q3.82,31.25.93,27.3l-.1-.06a1.72,1.72,0,0,1-.78-1,1.73,1.73,0,0,1,.18-1.28,1.7,1.7,0,0,1,2.25-.63,28.52,28.52,0,0,1,10.75,2.28,1.68,1.68,0,0,1,1.46.67,32.92,32.92,0,0,1,6.84,4.57,1.74,1.74,0,0,1,.83.5,1.68,1.68,0,0,1,.34.56,40,40,0,0,1,3.08,3.26c.08-.51.16-1,.25-1.53a1.76,1.76,0,0,1,.39-2,57.12,57.12,0,0,1,3.2-10.47,1.72,1.72,0,0,1,.07-.78,1.74,1.74,0,0,1,.68-.9,42.74,42.74,0,0,1,6-9.49,1.77,1.77,0,0,1,1.24-1.42,37.93,37.93,0,0,1,12-8.74l0-.05A1.73,1.73,0,0,1,52.08.33a1.74,1.74,0,0,1,.41,2.43L52.34,3c-.91,4.24-1.8,8.33-2.66,12.19a1.68,1.68,0,0,1,.08.71,1.69,1.69,0,0,1-.47,1c-.9,4-1.79,7.86-2.64,11.46a1.78,1.78,0,0,1-.35,1.45c0,.19-.09.38-.14.57.54-.33,1.08-.65,1.62-.94a1.93,1.93,0,0,1,.35-.35,1.84,1.84,0,0,1,1-.33,25.61,25.61,0,0,1,9.44-2.28,1.66,1.66,0,0,1,1.67,2.86l-.06,0q-2.41,3.54-4.52,6.54a1.54,1.54,0,0,1-.16.5,1.6,1.6,0,0,1-.66.68l-.13.19a14.31,14.31,0,0,1,3.82-.42,1.58,1.58,0,0,1,1.85.79l.28.56-.18.65a1.52,1.52,0,0,1-.67.86c-.87,1.07-1.68,2.07-2.44,3l-.56.92-.26.07c-.86,1-1.64,2-2.36,2.82a1.55,1.55,0,0,1-.53.63l-1.91,2.21a1.59,1.59,0,0,1-.6.76l-.16.11-.72.8c-.14.17-.29.34-.44.5l0,.33-.53.44a1.34,1.34,0,0,1-.28.18,12.6,12.6,0,0,1-1.31,1.31l-.44.33-.56,0a3.22,3.22,0,0,1-1.29-.41l-.1-.05-.35-.22-.26-.19,0,0-.45-.39L44,52.7l-.11-.09h0c-.06,0-.11-.11-.16-.16l-.7.93a1.69,1.69,0,0,1-.53,1,1.75,1.75,0,0,1-.48.3,21.56,21.56,0,0,1-2.27,2.69l-.41.37-.56,0a4.9,4.9,0,0,1-1.92-.46l-.18-.08a6,6,0,0,1-.56-.29c-.18-.1-.34-.21-.5-.31a11,11,0,0,1-1-.76,1.48,1.48,0,0,1-.29-.12l-.21-.14a1.72,1.72,0,0,1-.5-.58c-.46-.12-.87-.25-1.21-.37a1.59,1.59,0,0,1-.38,0c-.13.17-.27.33-.4.49a1.66,1.66,0,0,1-.59.89l-.13.09,0,0-.1.06a1.39,1.39,0,0,1-.26.1,12,12,0,0,1-1.08.89c-.21.15-.39.27-.58.38a6.45,6.45,0,0,1-.61.34l-.17.08a5.3,5.3,0,0,1-2.11.58Zm1.35-3.28.8,1.28-.67-1.34.39-.21.37-.25a9,9,0,0,0,1.14-1l.24-.26a14.83,14.83,0,0,0,1.34-1.7l.71-1L33,51.7a12.06,12.06,0,0,0,1.86.55l.34.07,0,0,0,0,.09,0,.33.36.37.41.26.26a8.15,8.15,0,0,0,.94.75l.34.21.35.18.1,0,.18.07c.34-.4.89-1.08,1.77-2.23l.3-.4,1.25-1.65,1.11-1.47L44.08,47l0,.06L49,40.26q1.7-2.38,3.69-5.23l.29-.41c1.07-1.53,2.19-3.15,3.39-4.89a22.36,22.36,0,0,0-6.31,2l-.4.2a24.94,24.94,0,0,0-4.91,3.29l-3.54,3,1.11-4.51c.39-1.57.79-3.24,1.22-5l.13-.55c.92-3.85,1.87-8,2.84-12.31l.14-.63c.76-3.4,1.55-7,2.34-10.71a34.92,34.92,0,0,0-9.52,7.49l-.42.48a40,40,0,0,0-6.19,9.85l-.39.88A54,54,0,0,0,29.21,34l-.13.64c-.32,1.78-.58,3.62-.76,5.48l-.38,4L25.61,40.8a39.64,39.64,0,0,0-5.13-5.89l-.5-.45a29.38,29.38,0,0,0-7.07-4.74l-.44-.2a25.09,25.09,0,0,0-7.72-2.07L9.07,33.3l.28.38q2.38,3.2,4.41,5.85l3,4-4.74-1.68c-.2-.07-.39-.14-.59-.19l.29.35h0l.32.39c.95,1.15,1.8,2.16,2.56,3.06l.09.1c.81,1,1.53,1.79,2.14,2.49l.11.11.9,1,.75.85.12.12c.17.2.32.36.45.5a1.82,1.82,0,0,0,.18-.19l.08-.1.18-.22L20.8,48.6l1.63,2,1.56,2,.27.32C25.37,54.28,26,55,26.43,55.47Zm19.38-4.8a3.6,3.6,0,0,0,.32.3l.62-.68.14-.15.82-.93,1-1.16.35-.4c.63-.72,1.36-1.57,2.17-2.52l.11-.13c.85-1,1.8-2.13,2.86-3.41l.32-.4.72-.87a10.84,10.84,0,0,0-1.56.49l-.16.06a12.87,12.87,0,0,0-2.8,1.6L44.29,47.4l.89,1.69A6,6,0,0,0,46,50.37Zm2.34-.86h0Zm2-2.24Zm-30.69-14v0ZM8.32,33.07h0Zm42.13-2.43v0Zm-18-9.33h0Zm14.75-6.55h0Z" fill="#2d5b1d"/><path d="M18.21,64.37l1.1,5A.72.72,0,0,0,20,70h.51a.73.73,0,0,0,.7-.58l1-5a.71.71,0,0,0-.7-.85H18.9A.71.71,0,0,0,18.21,64.37Z" fill="#994325"/><g opacity="0.5"><path d="M21.47,63.5H18.9a.71.71,0,0,0-.69.87l.41,1.89a1.08,1.08,0,0,1,.84-.56c.8,0,1.45,1.33,1.45,3a5.41,5.41,0,0,1-.14,1.24.71.71,0,0,0,.45-.53l1-5A.71.71,0,0,0,21.47,63.5Z" fill="#832f18"/></g><path d="M46,64.37l-1.1,5a.74.74,0,0,1-.7.56h-.51a.71.71,0,0,1-.7-.58l-1-5a.72.72,0,0,1,.7-.85h2.57A.71.71,0,0,1,46,64.37Z" fill="#994325"/><g opacity="0.5"><path d="M42.77,63.5h2.57a.71.71,0,0,1,.7.87l-.42,1.89a1.05,1.05,0,0,0-.84-.56c-.79,0-1.44,1.33-1.44,3a6,6,0,0,0,.13,1.24.7.7,0,0,1-.44-.53l-1-5A.72.72,0,0,1,42.77,63.5Z" fill="#832f18"/></g><path d="M52.61,48.49l-1.92,12A2.55,2.55,0,0,1,49.94,62c-1.39,1.56-5.36,3.86-16.69,4.05H31.76c-17.27-.29-17.44-5.48-17.44-5.48l-1.8-11.29-.12-.75,12.24.82a118,118,0,0,0,15.73,0Z" fill="#c49537"/><g opacity="0.5"><path d="M49.94,62c-1.39,1.56-5.36,3.86-16.69,4.05H31.76c-17.27-.29-17.44-5.48-17.44-5.48l-1.8-11.29C15.16,54.6,24.13,66.88,49.94,62Z" fill="#8c6013"/></g><path d="M33.25,67.52h-3v0C14.43,66.92,12.94,62,12.83,60.7l-2.2-13.83,14.11.94a115,115,0,0,0,15.53,0l14.11-.94-2.2,13.84A4.19,4.19,0,0,1,51.06,63c-1.68,1.89-5.87,4.15-16.31,4.52v0Zm-.75-3h.72c11.4-.19,14.7-2.55,15.6-3.55a1.89,1.89,0,0,0,.36-.55l0-.15,0,0,1.63-10.18-10.36.69a117.77,117.77,0,0,1-15.94,0l-10.35-.69,1.64,10.27c.11.3,1.81,3.89,16,4.13h.71Z" fill="#924f28"/></g></g></g></g></svg>