<svg xmlns="http://www.w3.org/2000/svg" viewBox="0 0 179.73 101.73"><g id="Layer_2" data-name="Layer 2"><g id="Layer_1-2" data-name="Layer 1"><g id="Props"><g id="VC_fu_round_cushion" data-name="VC_fu_round cushion"><path d="M164.72,18.82a0,0,0,0,0,0,0c-3-9.67-35-17.29-74.17-17.29H89.2C50.06,1.5,18,9.12,15,18.79a0,0,0,0,0,0,0c-6.4,8-28,39.39,2,66.43h0c7.2,8.56,37,15,72.58,15h.44c35.62,0,65.37-6.42,72.57-15h0C192.69,58.21,171.12,26.82,164.72,18.82Z" fill="#ac5350"/><path d="M90.09,101.73h-.44c-35.49,0-65.65-6.3-73.58-15.34l0,0C2.84,74.47-2.25,60.42.91,44.6c2.44-12.25,9.39-22.21,12.6-26.3v-.14l.21-.2C18.09,6.17,54.8,0,89.2,0h1.34C125,0,161.69,6.17,166,18l.19.19v.11c3.21,4.09,10.17,14.06,12.62,26.32,3.15,15.82-1.94,29.87-15.14,41.76l0,0C155.72,95.44,125.57,101.73,90.09,101.73Zm-.22-3h.22c34.34,0,64.38-6.07,71.43-14.45l.45-.53h.14c28.14-25.84,8.24-55.49,1.44-64l-.33-.42v-.27C160.49,11.31,132.11,3,90.54,3H89.2c-41.58,0-70,8.31-72.69,16.07v.27l-.36.45c-6.83,8.56-26.62,38.16,1.47,64h.12l.48.53c7,8.38,37.09,14.45,71.43,14.45Z" fill="#781f1a"/><path d="M89.2,26.57h1.33c15.3,0,27.7-2.83,27.7-6.32s-12.4-6.33-27.7-6.33H89.2c-15.29,0-27.69,2.83-27.69,6.33S73.91,26.57,89.2,26.57Z" fill="#781f1a"/><path d="M90.53,27.57H89.2c-11.53,0-28.69-1.95-28.69-7.32s17.16-7.33,28.69-7.33h1.33c11.54,0,28.7,1.95,28.7,7.33S102.07,27.57,90.53,27.57Zm-.67-2h.67c16.3,0,26.7-3.15,26.7-5.32s-10.4-5.33-26.7-5.33H89.2c-16.29,0-26.69,3.16-26.69,5.33s10.4,5.32,26.69,5.32Z" fill="#781f1a"/><path d="M89.2,30.46h1.34c27.62,0,42.54-5.25,42.54-10.22a3.94,3.94,0,0,0-1.68-2.88C126.8,13.44,112.79,10,90.54,10H89.2c-22.26,0-36.27,3.41-40.87,7.33a3.94,3.94,0,0,0-1.68,2.88C46.65,25.21,61.57,30.46,89.2,30.46Zm38.81-13c1.59.92,2.44,1.89,2.44,2.83,0,4.18-16.63,8.83-40.58,8.92-24-.09-40.59-4.74-40.59-8.92,0-.94.85-1.91,2.45-2.83,5.44-3.21,19.59-6,38.14-6.08S122.56,14.2,128,17.41Zm3.7,3.27a2.12,2.12,0,0,0,0-.44,2.71,2.71,0,0,0-.08-.55,1.58,1.58,0,0,1,.11.55A1.62,1.62,0,0,1,131.71,20.68Zm-83.65-1a2.71,2.71,0,0,0-.08.55,2.12,2.12,0,0,0,0,.44,1.62,1.62,0,0,1-.07-.44A1.85,1.85,0,0,1,48.06,19.69Z" fill="#781f1a"/><path d="M90.54,31.46H89.2c-25.64,0-43.55-4.61-43.55-11.22a4.89,4.89,0,0,1,2-3.65C53.16,11.93,69.07,9,89.2,9h1.34c20.12,0,36,2.9,41.51,7.56a4.87,4.87,0,0,1,2,3.65C134.08,26.85,116.17,31.46,90.54,31.46Zm-.68-19.13c-19.14.07-32.69,3-37.62,5.94-1.82,1.05-2,1.77-2,2,0,2.64,14,7.83,39.59,7.92,25.61-.09,39.58-5.28,39.58-7.92,0-.2-.14-.92-1.95-2h0C122.56,15.36,109,12.4,89.86,12.33ZM47.75,20.79a5.54,5.54,0,0,0,2.7,2.63,4.57,4.57,0,0,1-2.13-2.76Zm83.67-.13a4.65,4.65,0,0,1-2.13,2.76,5.64,5.64,0,0,0,2.7-2.63Zm-1.63-3.25a4.2,4.2,0,0,1,1.61,2.3l.53-.15a4.34,4.34,0,0,0-1.17-1.44A9.05,9.05,0,0,0,129.79,17.41Zm-82,2.15.54.15a4.13,4.13,0,0,1,1.6-2.3,10,10,0,0,0-1,.71A4.37,4.37,0,0,0,47.8,19.56Z" fill="#781f1a"/><path d="M60.3,86.14c-3-14.6.14-29.59,4.9-43.45.24-.72-.89-1-1.14-.31-1.45,4.07-2.75,8.19-3.8,12.38-3.57,14.3-4.12,30.06,2.59,43.56.38.78,1.51.09,1.15-.68A54,54,0,0,1,60.3,86.14Z" fill="#781f1a"/><path d="M63.36,99.66a1.58,1.58,0,0,1-1.41-.9c-6-12-6.89-27.31-2.66-44.24A130.18,130.18,0,0,1,63.12,42a1.61,1.61,0,0,1,2.07-1,1.51,1.51,0,0,1,1,2c-5.83,17-7.38,30.64-4.86,42.92h0a53,53,0,0,0,3.63,11.28,1.72,1.72,0,0,1-.84,2.28A1.63,1.63,0,0,1,63.36,99.66Z" fill="#781f1a"/><path d="M24.05,36.28a45.31,45.31,0,0,0-5.64,9.53C13.24,57.6,12.74,71.67,18,83.49c.29.65,1.41.18,1.15-.48a52.49,52.49,0,0,1-2.82-10.22A47.39,47.39,0,0,1,25,36.86C25.49,36.27,24.5,35.71,24.05,36.28Z" fill="#781f1a"/><path d="M18.53,84.8a1.5,1.5,0,0,1-1.4-.9C11.9,72.24,12,57.85,17.49,45.41a46.39,46.39,0,0,1,5.77-9.74,1.65,1.65,0,0,1,2.3-.28,1.44,1.44,0,0,1,.28,2.07,46.63,46.63,0,0,0-8.48,35.16,49.92,49.92,0,0,0,2.77,10,1.56,1.56,0,0,1-.92,2A1.66,1.66,0,0,1,18.53,84.8Z" fill="#781f1a"/><path d="M165.37,20.24h-.86c0,4.73-7.25,9-19.15,12.3v-.37c-13.43,3.88-33.31,6.34-55.49,6.39s-42.06-2.51-55.5-6.39v.37C22.48,29.28,15.22,25,15.22,20.24h-.85C14.37,31,47.24,39.42,89.2,39.42h1.34C132.5,39.42,165.37,31,165.37,20.24Z" fill="#781f1a"/><path d="M90.54,40.42H89.2c-43.23,0-75.83-8.67-75.83-20.18v-1h2.85v1c0,3.86,6.23,7.83,17.15,11v-.38l1.28.37c13.83,4,34,6.31,55.22,6.35s41.38-2.36,55.21-6.35l1.28-.37v.38c10.92-3.15,17.15-7.12,17.15-11v-1h2.86v1C166.37,31.75,133.77,40.42,90.54,40.42Z" fill="#781f1a"/><path d="M115.68,42.38c-.26-.71-1.39-.41-1.14.31,4.75,13.86,7.88,28.85,4.89,43.45a53.4,53.4,0,0,1-3.7,11.5c-.36.77.77,1.46,1.16.68,6.7-13.5,6.16-29.26,2.58-43.56C118.43,50.57,117.12,46.45,115.68,42.38Z" fill="#781f1a"/><path d="M116.37,99.66a1.63,1.63,0,0,1-.71-.16,1.72,1.72,0,0,1-.84-2.28,52.29,52.29,0,0,0,3.63-11.28C121,73.66,119.42,60,113.59,43a1.51,1.51,0,0,1,1-2,1.62,1.62,0,0,1,2.08,1h0c1.6,4.5,2.85,8.58,3.82,12.48,4.23,16.93,3.31,32.22-2.66,44.24A1.57,1.57,0,0,1,116.37,99.66Z" fill="#781f1a"/><path d="M161.33,45.81a45.78,45.78,0,0,0-5.65-9.53c-.44-.57-1.44,0-1,.58a47.39,47.39,0,0,1,8.67,35.93A51.12,51.12,0,0,1,160.54,83c-.26.66.86,1.13,1.15.48C167,71.67,166.49,57.6,161.33,45.81Z" fill="#781f1a"/><path d="M161.2,84.8a1.77,1.77,0,0,1-.67-.13,1.57,1.57,0,0,1-.92-2,49.89,49.89,0,0,0,2.76-10,46.63,46.63,0,0,0-8.48-35.16,1.45,1.45,0,0,1,.28-2.07,1.65,1.65,0,0,1,2.3.28,46.39,46.39,0,0,1,5.77,9.74c5.45,12.44,5.59,26.83.36,38.49A1.51,1.51,0,0,1,161.2,84.8Z" fill="#781f1a"/></g></g></g></g></svg>