<svg xmlns="http://www.w3.org/2000/svg" xmlns:xlink="http://www.w3.org/1999/xlink" viewBox="0 0 235.5 244.5"><defs><clipPath id="clip-path"><path d="M167.8,36.5v118c0,1.4,3.5,2.6,8,2.6s7.9-1.2,7.9-2.6V36.5Z" style="fill:none"/></clipPath><clipPath id="clip-path-2"><path d="M72.7,80.6h0a49.5,49.5,0,0,1,49.5,49.5v33.8a0,0,0,0,1,0,0H23.3a0,0,0,0,1,0,0V130.1A49.5,49.5,0,0,1,72.7,80.6Z" style="fill:none"/></clipPath></defs><g style="isolation:isolate"><g id="Layer_2" data-name="Layer 2"><g id="Layer_1-2" data-name="Layer 1"><g id="Props"><g id="to_cat_ree" data-name="to_cat ree"><g id="VC"><path d="M5.7,238.4a4.2,4.2,0,0,1-4.2-4.2v-10a4.4,4.4,0,0,1,.8-2.5l5.9-8.2a10.5,10.5,0,0,1,8.6-4.5H204.2a10.7,10.7,0,0,1,8.7,4.5l5.9,8.2a4.3,4.3,0,0,1,.7,2.5v10a4.2,4.2,0,0,1-4.2,4.2Z" style="fill:#dfe590"/><path d="M204.2,210.5a9.1,9.1,0,0,1,7.5,3.8l5.8,8.3a2.4,2.4,0,0,1,.5,1.6v9.9a2.7,2.7,0,0,1-2.7,2.8H5.7A2.7,2.7,0,0,1,3,234.1v-9.9a3,3,0,0,1,.5-1.6l5.9-8.3a9,9,0,0,1,7.4-3.8H204.2m0-3H16.8a12.2,12.2,0,0,0-9.9,5.1l-5.8,8.3A5.5,5.5,0,0,0,0,224.2v9.9a5.8,5.8,0,0,0,5.7,5.8H215.3a5.7,5.7,0,0,0,5.7-5.8v-9.9a5.4,5.4,0,0,0-1-3.3l-5.9-8.3a12.1,12.1,0,0,0-9.9-5.1Z" style="fill:#6c6120"/></g><rect x="37.3" y="169.2" width="16" height="44.89" style="fill:#cecece"/><path d="M54.8,215.6h-19V167.7h19Zm-16-3h13V170.7h-13Z" style="fill:#8d8d8d"/><g style="mix-blend-mode:multiply"><path d="M41.6,169.2c3.5,5.5,5.8,5.8,5.8,16.6,0,12.7-3.2,23.6-7.8,28.3H53.3V169.2Z" style="fill:#cecece"/></g><path d="M57.2,216.9H33.4a2.7,2.7,0,0,1,2.7-2.8H54.4a2.7,2.7,0,0,1,2.8,2.8Z" style="fill:#6d9e7a"/><path d="M58.7,218.4H31.9v-1.5a4.2,4.2,0,0,1,4.2-4.3H54.4a4.3,4.3,0,0,1,4.3,4.3Z" style="fill:#8d8d8d"/><rect x="167.8" y="169.2" width="16" height="44.89" style="fill:#cecece"/><path d="M185.2,215.6H166.3V167.7h18.9Zm-15.9-3h12.9V170.7H169.3Z" style="fill:#8d8d8d"/><g style="mix-blend-mode:multiply"><path d="M172.1,169.2c3.5,5.5,5.8,5.8,5.8,16.6,0,12.7-3.2,23.6-7.8,28.3h13.6V169.2Z" style="fill:#cecece"/></g><path d="M187.7,216.9H163.8a2.8,2.8,0,0,1,2.8-2.8h18.3a2.8,2.8,0,0,1,2.8,2.8Z" style="fill:#6d9e7a"/><path d="M189.2,218.4H162.3v-1.5a4.3,4.3,0,0,1,4.3-4.3h18.3a4.3,4.3,0,0,1,4.3,4.3Z" style="fill:#8d8d8d"/><g style="opacity:0.2;mix-blend-mode:multiply"><rect x="167.8" y="180.3" width="16" height="9.07"/></g><g style="opacity:0.2;mix-blend-mode:multiply"><rect x="37.3" y="180.3" width="16" height="9.07"/></g><g id="VC-2" data-name="VC"><path d="M9.2,243a7.8,7.8,0,0,1-7.7-7.8A13.5,13.5,0,0,1,15,221.7H206.1a13.5,13.5,0,0,1,13.4,13.5,7.7,7.7,0,0,1-7.7,7.8Z" style="fill:#dfe590"/><path d="M206.1,223.2a11.9,11.9,0,0,1,11.9,12,6.3,6.3,0,0,1-6.2,6.3H9.2A6.3,6.3,0,0,1,3,235.2a12,12,0,0,1,12-12H206.1m0-3H15a15,15,0,0,0-15,15,9.3,9.3,0,0,0,9.2,9.3H211.8a9.3,9.3,0,0,0,9.2-9.3,15,15,0,0,0-14.9-15Z" style="fill:#6c6120"/><path d="M3,235.2a6.3,6.3,0,0,0,6.2,6.3H211.8a6.3,6.3,0,0,0,6.2-6.3H3Z" style="fill:#c3bf4f"/></g><g id="VC-3" data-name="VC"><path d="M13,179a4.2,4.2,0,0,1-4.2-4.2v-10a4.6,4.6,0,0,1,.8-2.5l5.9-8.2a10.5,10.5,0,0,1,8.6-4.5H196.9a10.7,10.7,0,0,1,8.7,4.5l5.8,8.2a3.9,3.9,0,0,1,.8,2.5v10A4.2,4.2,0,0,1,208,179Z" style="fill:#dfe590"/><path d="M196.9,151.1a9.4,9.4,0,0,1,7.5,3.9l5.8,8.2a2.4,2.4,0,0,1,.5,1.6v10a2.7,2.7,0,0,1-2.7,2.7H13a2.7,2.7,0,0,1-2.7-2.7v-10a3,3,0,0,1,.5-1.6l5.9-8.2a9.2,9.2,0,0,1,7.4-3.9H196.9m0-3H24.1a12.2,12.2,0,0,0-9.9,5.1l-5.8,8.3a5.7,5.7,0,0,0-1.1,3.3v10a5.8,5.8,0,0,0,5.7,5.7H208a5.7,5.7,0,0,0,5.7-5.7v-10a5.6,5.6,0,0,0-1-3.3l-5.9-8.3a12.2,12.2,0,0,0-9.9-5.1Z" style="fill:#6c6120"/><path d="M18.5,181.8a9.7,9.7,0,1,1,0-19.4h184a9.7,9.7,0,1,1,0,19.4Z" style="fill:#dfe590"/><path d="M202.5,163.9a8.2,8.2,0,1,1,0,16.4H18.5a8.2,8.2,0,0,1,0-16.4h184m0-3H18.5a11.2,11.2,0,1,0,0,22.4h184a11.2,11.2,0,1,0,0-22.4Z" style="fill:#6c6120"/><path d="M202.5,173.9H18.5a8.1,8.1,0,0,1-7.5-5,6.6,6.6,0,0,0-.7,3.2,8.2,8.2,0,0,0,8.2,8.2h184a8.2,8.2,0,0,0,8.2-8.2,7.9,7.9,0,0,0-.6-3.2A8.4,8.4,0,0,1,202.5,173.9Z" style="fill:#c3bf4f"/></g><rect x="64.7" y="30.7" width="16" height="53.99" style="fill:#cecece"/><g style="mix-blend-mode:multiply"><path d="M69.1,30.7c3.5,5.5,5.8,14.9,5.8,25.7,0,12.7-3.2,23.6-7.8,28.2H80.7V30.7Z" style="fill:#cecece"/></g><path d="M82.2,86.2h-19v-57h19Zm-16-3h13v-51h-13Z" style="fill:#8d8d8d"/><g style="opacity:0.2;mix-blend-mode:multiply"><rect x="64.7" y="34.5" width="16" height="9.07"/></g><g style="clip-path:url(#clip-path)"><rect x="167.8" y="37.4" width="16" height="130.53" style="fill:#cecece"/><path d="M185.2,169.5H166.3V35.9h18.9Zm-15.9-3h12.9V38.9H169.3Z" style="fill:#8d8d8d"/><g style="mix-blend-mode:multiply"><path d="M172.1,37.4c3.5,13.3,5.8,36.2,5.8,62.2,0,30.7-3.2,57-7.8,68.4h13.6V37.4Z" style="fill:#cecece"/></g></g><path d="M175.8,158.6c-4.8,0-9.5-1.3-9.5-4.1V35h18.9V154.5C185.2,157.3,180.5,158.6,175.8,158.6Zm-6.5-4.3c.5.5,2.8,1.3,6.5,1.3s5.9-.8,6.4-1.3V38H169.3Z" style="fill:#8d8d8d"/><g style="opacity:0.2;mix-blend-mode:multiply"><rect x="167.8" y="46.7" width="16" height="21.94"/></g><rect x="216.3" y="41.3" width="3.4" height="72.14" style="fill:#cecece"/><path d="M221.2,114.9h-6.4V39.8h6.4Zm-3.4-3h.4V42.8h-.4Z" style="fill:#8d8d8d"/><g id="VC-4" data-name="VC"><g id="VC-5" data-name="VC"><g style="clip-path:url(#clip-path-2)"><path d="M26.8,165.4a5,5,0,0,1-5-5.1V130.1a51,51,0,1,1,101.9,0v35.3Z" style="fill:#dfe590"/><path d="M72.7,80.6a49.5,49.5,0,0,1,49.5,49.5v33.8H26.8a3.5,3.5,0,0,1-3.5-3.6V130.1A49.5,49.5,0,0,1,72.7,80.6h0m0-3a52.5,52.5,0,0,0-52.4,52.5v30.2a6.6,6.6,0,0,0,6.5,6.6h98.4V130.1A52.6,52.6,0,0,0,72.7,77.6Z" style="fill:#6c6120"/><path d="M120.3,97.1a3.4,3.4,0,0,0-6.5,1.3v53.8a3.4,3.4,0,0,1-3.4,3.4H27.9a3.4,3.4,0,0,0-3.4,3.4v1.5a3.4,3.4,0,0,0,3.4,3.4h90.9a3.4,3.4,0,0,0,3.4-3.4V106.9A26.3,26.3,0,0,0,120.3,97.1Z" style="fill:#c3bf4f"/><path d="M86.7,153.3c12.8,0,22-12.9,17.4-24.9-7-18-18.4-29.9-31.4-29.9s-24.4,11.9-31.3,29.9c-4.6,12,4.5,24.9,17.4,24.9Z" style="fill:#c3bf4f"/><path d="M86.7,154.8H58.8a19.9,19.9,0,0,1-16.6-8.7A19.2,19.2,0,0,1,40,127.9C47.4,108.6,59.6,97,72.7,97s25.4,11.6,32.8,30.9a19.7,19.7,0,0,1-2.2,18.2A20.1,20.1,0,0,1,86.7,154.8ZM72.7,100c-11.8,0-23,10.8-29.9,29a16.3,16.3,0,0,0,1.9,15.4,17.1,17.1,0,0,0,14.1,7.4H86.7a17.3,17.3,0,0,0,14.1-7.4,16.6,16.6,0,0,0,1.9-15.4C95.7,110.8,84.5,100,72.7,100Z" style="fill:#6c6120"/><g style="mix-blend-mode:multiply"><path d="M48.7,139.2c7-18.1,18.4-29.9,31.4-29.9,7.3,0,14.1,3.8,19.9,10.3-6.9-13-16.6-21.1-27.3-21.1-13,0-24.4,11.9-31.3,29.9a18.1,18.1,0,0,0,6.7,21.5A17.9,17.9,0,0,1,48.7,139.2Z" style="fill:#928e31"/></g><path d="M86.7,154.8H58.8a19.9,19.9,0,0,1-16.6-8.7A19.2,19.2,0,0,1,40,127.9C47.4,108.6,59.6,97,72.7,97s25.4,11.6,32.8,30.9a19.7,19.7,0,0,1-2.2,18.2A20.1,20.1,0,0,1,86.7,154.8ZM72.7,100c-11.8,0-23,10.8-29.9,29a16.3,16.3,0,0,0,1.9,15.4,17.1,17.1,0,0,0,14.1,7.4H86.7a17.3,17.3,0,0,0,14.1-7.4,16.6,16.6,0,0,0,1.9-15.4C95.7,110.8,84.5,100,72.7,100Z" style="fill:#6c6120"/></g><path d="M72.7,80.6a49.5,49.5,0,0,1,49.5,49.5v29.3a4.5,4.5,0,0,1-4.4,4.5H27.7a4.4,4.4,0,0,1-4.4-4.5V130.1A49.5,49.5,0,0,1,72.7,80.6h0m0-3a52.5,52.5,0,0,0-52.4,52.5v29.3a7.5,7.5,0,0,0,7.4,7.5h90.1a7.5,7.5,0,0,0,7.4-7.5V130.1A52.6,52.6,0,0,0,72.7,77.6Z" style="fill:#6c6120"/></g><g id="VC-6" data-name="VC"><path d="M121.8,41.9a4.3,4.3,0,0,1-4.3-4.3V27.7a4.4,4.4,0,0,1,.8-2.5l5.9-8.2a10.6,10.6,0,0,1,8.6-4.5h85.9a10.7,10.7,0,0,1,8.7,4.5l5.9,8.2a4.3,4.3,0,0,1,.7,2.5v9.9a4.2,4.2,0,0,1-4.2,4.3Z" style="fill:#dfe590"/><path d="M218.7,14a9.1,9.1,0,0,1,7.5,3.8l5.8,8.3a2.2,2.2,0,0,1,.5,1.6v9.9a2.8,2.8,0,0,1-2.7,2.8h-108a2.8,2.8,0,0,1-2.8-2.8V27.7a2.8,2.8,0,0,1,.5-1.6l5.9-8.3a9.1,9.1,0,0,1,7.4-3.8h85.9m0-3H132.8a11.9,11.9,0,0,0-9.8,5.1l-5.9,8.2a6,6,0,0,0-1.1,3.4v9.9a5.8,5.8,0,0,0,5.8,5.8h108a5.7,5.7,0,0,0,5.7-5.8V27.7a5.9,5.9,0,0,0-1-3.4l-5.9-8.2a12.1,12.1,0,0,0-9.9-5.1Z" style="fill:#6c6120"/><path d="M128.9,48.2a11.5,11.5,0,0,1,0-22.9h93.7a11.5,11.5,0,0,1,0,22.9Z" style="fill:#dfe590"/><path d="M222.6,26.8a10,10,0,0,1,0,19.9H128.9a10,10,0,0,1,0-19.9h93.7m0-3H128.9a13,13,0,0,0,0,25.9h93.7a13,13,0,0,0,0-25.9Z" style="fill:#6c6120"/><path d="M222.6,41.3H128.9a10,10,0,0,1-9.5-7.3,8.4,8.4,0,0,0-.4,2.7,9.9,9.9,0,0,0,9.9,10h93.7a9.9,9.9,0,0,0,9.9-10,8.4,8.4,0,0,0-.4-2.7A10,10,0,0,1,222.6,41.3Z" style="fill:#c3bf4f"/></g><g id="VC-7" data-name="VC"><path d="M33.2,29.2V27.4a3.1,3.1,0,0,1-.1-1C33,12.7,50.8,1.5,72.7,1.5s39.8,11.2,39.8,24.9c0,.4-.1.7-.1,1v1.8Z" style="fill:#dfe590"/><path d="M72.7,3C93.8,3,111,13.5,111,26.4c0,.4-.1.9-.1,1.3H34.6c0-.4-.1-.9-.1-1.3C34.5,13.5,51.6,3,72.7,3m0-3C62,0,51.8,2.6,44.1,7.3S31.5,19.1,31.5,26.4a4.1,4.1,0,0,0,.1,1.2v.3l.2,2.8h81.8l.2-2.8a.4.4,0,0,0,.1-.3c0-.3.1-.7.1-1.2,0-7.3-4.5-14.1-12.7-19.1S83.5,0,72.7,0Z" style="fill:#6c6120"/><path d="M77.2,3.2c11.7,4,19.5,11.6,19.5,20.4,0,.4-.1.8-.1,1.2h-62c0,.5-.1,1.1-.1,1.6s.1.9.1,1.3h76.3c0-.4.1-.9.1-1.3C111,14.4,96.2,4.5,77.2,3.2Z" style="fill:#c3bf4f"/><path d="M72.7,35.7A258.1,258.1,0,0,1,44,34.2c-7.1-.9-16.8-2.1-16.8-9.4A5.9,5.9,0,0,1,37.6,21c3.7,1.3,16.3,2.8,35.1,2.8s31.4-1.5,35.1-2.8a5.9,5.9,0,0,1,4.5-2.1,6,6,0,0,1,6,5.9c0,7.3-9.8,8.5-16.8,9.4A261.5,261.5,0,0,1,72.7,35.7Zm33.7-10.9ZM39,24.8Zm67.4,0ZM39,24.8Z" style="fill:#c3bf4f"/><path d="M72.7,37.2a262,262,0,0,1-28.9-1.5c-7.2-.9-18.1-2.3-18.1-10.9a7.4,7.4,0,0,1,7.4-7.4,7.8,7.8,0,0,1,5.4,2.3c3.6,1.1,15.7,2.6,34.2,2.6s30.6-1.5,34.3-2.6a7.4,7.4,0,0,1,12.8,5.1c0,8.6-10.9,10-18.2,10.9A260.7,260.7,0,0,1,72.7,37.2ZM33.1,20.4a4.4,4.4,0,0,0-4.4,4.4c0,5.5,7.3,6.9,15.5,7.9a254.3,254.3,0,0,0,28.5,1.5,256.2,256.2,0,0,0,28.6-1.5c8.1-1,15.5-2.4,15.5-7.9a4.5,4.5,0,0,0-4.5-4.4A4.2,4.2,0,0,0,109,22l-.3.3h-.4c-4.3,1.5-17.9,2.9-35.6,2.9s-31.2-1.4-35.6-2.9h-.4l-.2-.3A4.6,4.6,0,0,0,33.1,20.4Zm73.3,5.9a1.5,1.5,0,0,1-1.5-1.5h0a1.5,1.5,0,0,1,1.5-1.5,1.5,1.5,0,0,1,1.5,1.5h0A1.5,1.5,0,0,1,106.4,26.3ZM39,26.3a1.5,1.5,0,0,1-1.5-1.5h0a1.5,1.5,0,1,1,3,0h0A1.5,1.5,0,0,1,39,26.3Z" style="fill:#6c6120"/></g></g><g id="VC-8" data-name="VC"><path d="M228.7,115.7a10.5,10.5,0,0,1-20.9,0,10.5,10.5,0,0,1,20.9,0Z" style="fill:#dfe590"/><g style="mix-blend-mode:multiply"><path d="M225.5,108.5a11.1,11.1,0,0,1,.2,1.7,10.3,10.3,0,0,1-10.5,10.1,10.6,10.6,0,0,1-7.3-2.9,10.5,10.5,0,0,0,20.8-1.7A10.2,10.2,0,0,0,225.5,108.5Z" style="fill:#dfe590"/></g><path d="M218.2,127.3h-2.7l.3-1.5-.4,1.5-.5-.2h-.6l-.4-.2-.6-.2-.4-.2-.6-.3h-.2l-.4-.3h-.2l-.3-.3a11.5,11.5,0,0,1-4.9-9.4,11.7,11.7,0,0,1,11.9-11.5,11.9,11.9,0,0,1,11.7,9.1c.1.4.1.7.2,1.1h0c0,.4.1.8.1,1.2A11.8,11.8,0,0,1,218.2,127.3Zm-5.3-4.7h.1l.6.3h.1l.5.3h.3l.4.2h3.3a8.8,8.8,0,0,0,9-8.6,2.2,2.2,0,0,0-.1-.8v-.2c0-.2-.1-.4-.1-.7h0a8.9,8.9,0,0,0-8.8-6.7,8.7,8.7,0,0,0-8.9,8.5A8.3,8.3,0,0,0,212.9,122.6Z" style="fill:#6c6120"/></g></g></g></g></g></g></svg>