<svg xmlns="http://www.w3.org/2000/svg" viewBox="0 0 164.3 206"><g id="Layer_2" data-name="Layer 2"><g id="Layer_1-2" data-name="Layer 1"><g id="Props"><g id="fu_drawer_2" data-name="fu_drawer 2"><path d="M13.4,204.5h4.2a2.1,2.1,0,0,0,2.1-1.9l.6-5.7a2.1,2.1,0,0,0-2.1-2.3H12.8a2.1,2.1,0,0,0-2.1,2.3l.6,5.7A2.1,2.1,0,0,0,13.4,204.5Z" style="fill:#928e31"/><path d="M17.6,206H13.4a3.7,3.7,0,0,1-3.6-3.2L9.2,197a3.3,3.3,0,0,1,.9-2.7,3.6,3.6,0,0,1,2.7-1.2h5.4a3.6,3.6,0,0,1,2.7,1.2,3.3,3.3,0,0,1,.9,2.7l-.6,5.8A3.6,3.6,0,0,1,17.6,206Zm-4.8-9.9c-.2,0-.4.1-.4.2s-.2.2-.2.4l.6,5.8a.6.6,0,0,0,.6.5h4.2a.6.6,0,0,0,.6-.5l.6-5.8a1,1,0,0,0-.1-.4l-.5-.2Z" style="fill:#6c6120"/><path d="M19.8,179H11.2a2.1,2.1,0,0,0-2.1,2.3l1,10a2.1,2.1,0,0,0,2.1,1.8h6.6a2.1,2.1,0,0,0,2.1-1.8l1-10A2.1,2.1,0,0,0,19.8,179Z" style="fill:#928e31"/><path d="M18.8,194.6H12.2a3.6,3.6,0,0,1-3.6-3.2l-1-9.9a3.6,3.6,0,0,1,3.6-4h8.6a3.6,3.6,0,0,1,3.6,4l-1,9.9A3.7,3.7,0,0,1,18.8,194.6Zm-7.6-14.1a.6.6,0,0,0-.5.2,2,2,0,0,0-.1.5l1,9.9a.6.6,0,0,0,.6.5h6.6a.6.6,0,0,0,.6-.5l1-9.9c.1-.3-.1-.4-.1-.5a.6.6,0,0,0-.5-.2Z" style="fill:#6c6120"/><path d="M146.7,204.5h4.2a2.1,2.1,0,0,0,2.1-1.9l.6-5.7a2.1,2.1,0,0,0-2.1-2.3h-5.4a2.1,2.1,0,0,0-2.1,2.3l.6,5.7A2.1,2.1,0,0,0,146.7,204.5Z" style="fill:#928e31"/><path d="M150.9,206h-4.2a3.7,3.7,0,0,1-3.6-3.2l-.6-5.8a3.7,3.7,0,0,1,.9-2.7,3.6,3.6,0,0,1,2.7-1.2h5.4a3.6,3.6,0,0,1,2.7,1.2,3.3,3.3,0,0,1,.9,2.7l-.6,5.8A3.6,3.6,0,0,1,150.9,206Zm-4.8-9.9c-.2,0-.4.1-.4.2s-.2.2-.2.4l.6,5.8a.6.6,0,0,0,.6.5h4.2a.6.6,0,0,0,.6-.5l.6-5.8a1,1,0,0,0-.1-.4.6.6,0,0,0-.5-.2Z" style="fill:#6c6120"/><path d="M153.1,179h-8.6a2.1,2.1,0,0,0-2.1,2.3l1,10a2.1,2.1,0,0,0,2.1,1.8h6.6a2.1,2.1,0,0,0,2.1-1.8l1-10A2,2,0,0,0,153.1,179Z" style="fill:#928e31"/><path d="M152.1,194.6h-6.6a3.7,3.7,0,0,1-3.6-3.2l-1-9.9a3.6,3.6,0,0,1,3.6-4h8.6a3.4,3.4,0,0,1,2.7,1.2,3.5,3.5,0,0,1,.9,2.8l-1,9.9A3.6,3.6,0,0,1,152.1,194.6Zm-7.6-14.1-.5.2a2,2,0,0,0-.1.5l1,9.9a.6.6,0,0,0,.6.5h6.6a.6.6,0,0,0,.6-.5l1-9.9a.4.4,0,0,0-.1-.5.6.6,0,0,0-.5-.2Z" style="fill:#6c6120"/><path d="M143.5,2.9h0a1.4,1.4,0,0,1-1.4,1.4H22.2a1.4,1.4,0,0,1-1.4-1.4h0a1.4,1.4,0,0,0-1.4-1.4H13.3a3.1,3.1,0,0,0-2.2.9L2.4,11.1a3.1,3.1,0,0,0-.9,2.2V167.4c0,2.8,36.1,5,80.7,5s80.6-2.2,80.6-5V13.3a3.1,3.1,0,0,0-.9-2.2l-8.7-8.7a3.1,3.1,0,0,0-2.2-.9h-6A1.5,1.5,0,0,0,143.5,2.9Z" style="fill:#f5f79a"/><path d="M82.2,173.9c-21.6,0-41.9-.5-57.2-1.4-25-1.6-25-3.4-25-5.1V13.3A4.7,4.7,0,0,1,1.4,10L10,1.4A4.7,4.7,0,0,1,13.3,0h6.1a3,3,0,0,1,2.9,2.8H142A3,3,0,0,1,145,0h6a4.7,4.7,0,0,1,3.3,1.4L163,10a5.1,5.1,0,0,1,1.3,3.3V167.4c0,1.7,0,3.5-25,5.1C124,173.4,103.7,173.9,82.2,173.9ZM3,166.8c4,1.8,32.7,4.1,79.2,4.1s75.1-2.3,79.1-4.1V13.3a1.6,1.6,0,0,0-.5-1.1l-8.6-8.7A2.1,2.1,0,0,0,151,3h-6a2.8,2.8,0,0,1-2.9,2.8H22.2A2.8,2.8,0,0,1,19.3,3h-6a1.6,1.6,0,0,0-1.1.5L3.5,12.2A1.6,1.6,0,0,0,3,13.3Z" style="fill:#43561f"/><g id="VC"><path d="M154.1,13.4h0a1.5,1.5,0,0,1-1.5,1.5H11.7a1.5,1.5,0,0,1-1.4-1.5h0A1.5,1.5,0,0,0,8.8,12H2.9a1.4,1.4,0,0,0-1.4,1.4V178c0,2.7,36.1,4.9,80.7,4.9s80.6-2.2,80.6-4.9V13.4a1.4,1.4,0,0,0-1.4-1.4h-5.9A1.4,1.4,0,0,0,154.1,13.4Z" style="fill:#96b85c"/><path d="M82.2,184.4c-21.6,0-41.9-.5-57.2-1.4-25-1.6-25-3.4-25-5V13.4a2.9,2.9,0,0,1,2.9-2.9H8.8a3.1,3.1,0,0,1,3,2.9H152.6a2.9,2.9,0,0,1,2.9-2.9h5.9a2.9,2.9,0,0,1,2.9,2.9V178c0,1.6,0,3.4-25,5C124,183.9,103.7,184.4,82.2,184.4ZM3,177.4c4,1.7,32.7,4,79.2,4s75.1-2.3,79.1-4V13.5h-5.7a3.1,3.1,0,0,1-3,2.9H11.7a2.9,2.9,0,0,1-2.9-2.9H3Z" style="fill:#2d5b1d"/></g><rect x="130.8" y="78.8" width="18.3" height="35.16" style="fill:#1e5941"/><path d="M150.6,115.5H129.3V77.3h21.3Zm-18.3-3h15.3V80.3H132.3Z" style="fill:#1a423a"/><rect x="130.8" y="129.8" width="18.3" height="35.16" style="fill:#1e5941"/><path d="M150.6,166.5H129.3V128.3h21.3Zm-18.3-3h15.3V131.3H132.3Z" style="fill:#1a423a"/><rect x="130.8" y="26.3" width="18.3" height="35.16" style="fill:#1e5941"/><path d="M150.6,63H129.3V24.8h21.3Zm-18.3-3h15.3V27.8H132.3Z" style="fill:#1a423a"/><g id="VC" data-name="VC"><path d="M10.3,26.3V66.6H154.1V26.3ZM138.9,52.2a5.8,5.8,0,0,1-5.7-5.7,5.7,5.7,0,1,1,11.4,0A5.8,5.8,0,0,1,138.9,52.2Z" style="fill:#beef63"/><path d="M155.6,68.1H8.8V24.8H155.6Zm-143.8-3H152.6V27.8H11.8ZM138.9,53.7a7.2,7.2,0,1,1,7.2-7.2A7.2,7.2,0,0,1,138.9,53.7Zm0-11.4a4.2,4.2,0,1,0,4.2,4.2A4.2,4.2,0,0,0,138.9,42.3Z" style="fill:#6c9433"/></g><g id="VC" data-name="VC"><path d="M10.3,76.3v40.3H154.1V76.3Zm128.6,25.8a5.7,5.7,0,0,1-5.7-5.7,5.7,5.7,0,1,1,11.4,0A5.7,5.7,0,0,1,138.9,102.1Z" style="fill:#beef63"/><path d="M155.6,118.1H8.8V74.8H155.6Zm-143.8-3H152.6V77.8H11.8Zm127.1-11.5a7.2,7.2,0,1,1,7.2-7.2A7.2,7.2,0,0,1,138.9,103.6Zm0-11.4a4.2,4.2,0,1,0,4.2,4.2A4.2,4.2,0,0,0,138.9,92.2Z" style="fill:#6c9433"/></g><g id="VC" data-name="VC"><path d="M10.3,127.2v40.4H154.1V127.2Zm128.6,25.9a5.7,5.7,0,1,1,5.7-5.7A5.8,5.8,0,0,1,138.9,153.1Z" style="fill:#beef63"/><path d="M155.6,169.1H8.8V125.7H155.6Zm-143.8-3H152.6V128.7H11.8Zm127.1-11.5a7.2,7.2,0,1,1,7.2-7.2A7.2,7.2,0,0,1,138.9,154.6Zm0-11.4a4.2,4.2,0,1,0,4.2,4.2A4.2,4.2,0,0,0,138.9,143.2Z" style="fill:#6c9433"/></g></g></g></g></g></svg>