<svg xmlns="http://www.w3.org/2000/svg" viewBox="0 0 133.6 301.6"><g style="isolation:isolate"><g id="Layer_2" data-name="Layer 2"><g id="Layer_1-2" data-name="Layer 1"><g id="Props"><g id="fu_drawer_1" data-name="fu_drawer 1"><path d="M32,269.9H27.2a1.1,1.1,0,0,1-1.2-1.1l-1-40.7h9.4l-1.2,40.7A1.1,1.1,0,0,1,32,269.9Z" style="fill:#96b85c"/><path d="M32,271.4H27.2a2.6,2.6,0,0,1-2.7-2.6l-1.1-42.2H35.9l-1.2,42.2A2.6,2.6,0,0,1,32,271.4Zm-4.5-3h4.2l1.1-38.8H26.5Z" style="fill:#2d5b1d"/><rect x="25.9" y="221.3" width="7.4" height="2.54" style="fill:#3b2200"/><path d="M33.3,224.7H25.9a.9.9,0,0,1-.9-.9v-2.5a.9.9,0,0,1,.9-.9h7.4a.9.9,0,0,1,.9.9v2.5A.9.9,0,0,1,33.3,224.7Zm-6.5-1.8h5.6v-.8H26.8Z" style="fill:#4a2300"/><rect x="24.2" y="223.3" width="10.8" height="6.34" style="fill:#beef63"/><path d="M36.5,231.1H22.7v-9.3H36.5Zm-10.8-3h7.8v-3.3H25.7Z" style="fill:#6c9433"/><polygon points="27 269.1 25.9 230.2 27 230.2 27 269.1" style="fill:#dfe590"/><path d="M22.9,218.1V221H25A2.7,2.7,0,0,1,22.9,218.1Z" style="fill:#dfe590"/><path d="M25,224.2v4.4h2.5S25.6,228.7,25,224.2Z" style="fill:#dfe590"/><path d="M106.5,269.9h-4.9a1.2,1.2,0,0,1-1.2-1.1l-1-40.7h9.4l-1.2,40.7A1.1,1.1,0,0,1,106.5,269.9Z" style="fill:#96b85c"/><path d="M106.5,271.4h-4.9a2.6,2.6,0,0,1-2.7-2.6l-1-42.2h12.4l-1.2,42.2A2.6,2.6,0,0,1,106.5,271.4Zm-4.6-3h4.3l1.1-38.8H101Z" style="fill:#2d5b1d"/><rect x="100.3" y="221.3" width="7.4" height="2.54" style="fill:#3b2200"/><path d="M107.7,224.7h-7.4a.9.9,0,0,1-.8-.9v-2.5a.9.9,0,0,1,.8-.9h7.4a.9.9,0,0,1,.9.9v2.5A.9.9,0,0,1,107.7,224.7Zm-6.5-1.8h5.6v-.8h-5.6Z" style="fill:#4a2300"/><rect x="98.6" y="223.3" width="10.8" height="6.34" style="fill:#beef63"/><path d="M111,231.1H97.1v-9.3H111Zm-10.9-3H108v-3.3h-7.9Z" style="fill:#6c9433"/><polygon points="101.4 269.1 100.4 230.2 101.4 230.2 101.4 269.1" style="fill:#dfe590"/><path d="M97.3,218.1V221h2.1A2.7,2.7,0,0,1,97.3,218.1Z" style="fill:#dfe590"/><path d="M99.4,224.2v4.4H102S100.1,228.7,99.4,224.2Z" style="fill:#dfe590"/><path d="M35.9,222H23.3a1.2,1.2,0,0,1-1.2-1.2v-7.6h15v7.6A1.2,1.2,0,0,1,35.9,222Z" style="fill:#96b85c"/><path d="M35.9,223.5H23.3a2.7,2.7,0,0,1-2.7-2.7v-9.1h18v9.1A2.7,2.7,0,0,1,35.9,223.5Zm-12.3-3h12v-5.8h-12Z" style="fill:#2d5b1d"/><path d="M110.4,222H97.7a1.2,1.2,0,0,1-1.2-1.2v-7.6h15v7.6A1.1,1.1,0,0,1,110.4,222Z" style="fill:#96b85c"/><path d="M110.4,223.5H97.7a2.7,2.7,0,0,1-2.7-2.7v-9.1h18v9.1A2.7,2.7,0,0,1,110.4,223.5Zm-12.4-3h12v-5.8H98Z" style="fill:#2d5b1d"/><g style="opacity:0.4;mix-blend-mode:multiply"><path d="M21,220.8a2.3,2.3,0,0,0,2.1,2.3v7.6h.8l1,38.1a2.2,2.2,0,0,0,2.3,2.2H32a2.2,2.2,0,0,0,2.3-2.2l1.1-38.1h.7v-7.6a2.3,2.3,0,0,0,2.1-2.3v-8.7H21Z" style="fill:#6bacdd"/></g><g style="opacity:0.4;mix-blend-mode:multiply"><path d="M95.4,212.1v8.7a2.3,2.3,0,0,0,2.1,2.3v7.6h.9l.9,38.1a2.2,2.2,0,0,0,2.3,2.2h4.9a2.3,2.3,0,0,0,2.3-2.2l1-38.1h.8v-7.6a2.4,2.4,0,0,0,2.1-2.3v-8.7Z" style="fill:#6bacdd"/></g><path d="M22.6,300.1H16.5a1.4,1.4,0,0,1-1.5-1.5L13.7,247H25.6l-1.5,51.6A1.4,1.4,0,0,1,22.6,300.1Z" style="fill:#96b85c"/><path d="M22.6,301.6H16.5a2.9,2.9,0,0,1-3-2.9l-1.4-53.2h15l-1.5,53.2A2.9,2.9,0,0,1,22.6,301.6Zm-7.4-53.1,1.3,50.1h6.1l1.5-50.1Z" style="fill:#2d5b1d"/><rect x="14.9" y="238.3" width="9.4" height="3.23" style="fill:#3b2200"/><path d="M24.2,242.4H14.9a.9.9,0,0,1-.9-.9v-3.2a.9.9,0,0,1,.9-.9h9.3a.9.9,0,0,1,.9.9v3.2A.9.9,0,0,1,24.2,242.4Zm-8.5-1.7h7.6v-1.5H15.7Z" style="fill:#4a2300"/><g id="VC"><rect x="12.7" y="240.8" width="13.8" height="8.05" style="fill:#beef63"/><path d="M27.9,250.4H11.2V239.3H27.9Zm-13.7-3H24.9v-5.1H14.2Z" style="fill:#6c9433"/></g><polygon points="16.2 299.1 14.9 249.7 16.2 249.7 16.2 299.1" style="fill:#dfe590"/><path d="M11,234.3V238h2.7A3.4,3.4,0,0,1,11,234.3Z" style="fill:#dfe590"/><path d="M13.7,242v5.6H17S14.5,247.7,13.7,242Z" style="fill:#dfe590"/><path d="M117.2,300.1H111a1.5,1.5,0,0,1-1.5-1.5L108.2,247h11.9l-1.4,51.6A1.5,1.5,0,0,1,117.2,300.1Z" style="fill:#96b85c"/><path d="M117.2,301.6H111a2.9,2.9,0,0,1-3-2.9l-1.3-53.2h15l-1.5,53.2A3.1,3.1,0,0,1,117.2,301.6Zm-7.4-53.1,1.2,50.1h6.2l1.4-50.1Z" style="fill:#2d5b1d"/><rect x="109.4" y="238.3" width="9.4" height="3.23" style="fill:#3b2200"/><path d="M118.8,242.4h-9.4a.9.9,0,0,1-.9-.9v-3.2a.9.9,0,0,1,.9-.9h9.4a.9.9,0,0,1,.8.9v3.2A.9.9,0,0,1,118.8,242.4Zm-8.5-1.7h7.6v-1.5h-7.6Z" style="fill:#4a2300"/><g id="VC" data-name="VC"><rect x="107.2" y="240.8" width="13.8" height="8.05" style="fill:#beef63"/><path d="M122.5,250.4H105.7V239.3h16.8Zm-13.8-3h10.8v-5.1H108.7Z" style="fill:#6c9433"/></g><polygon points="110.8 299.1 109.4 249.7 110.8 249.7 110.8 299.1" style="fill:#dfe590"/><path d="M105.6,234.3V238h2.6S105.6,237.6,105.6,234.3Z" style="fill:#dfe590"/><path d="M108.2,242l.2,5.6h3.1S109.1,247.7,108.2,242Z" style="fill:#dfe590"/><path d="M27.6,239.3H11.5a1.5,1.5,0,0,1-1.5-1.5v-9.7H29.1v9.7A1.5,1.5,0,0,1,27.6,239.3Z" style="fill:#96b85c"/><path d="M27.6,240.8H11.5a3,3,0,0,1-3-3V226.6H30.6v11.2A3.1,3.1,0,0,1,27.6,240.8ZM11.5,229.6v8.2H27.6v-8.2Z" style="fill:#2d5b1d"/><path d="M122.1,239.3H106a1.5,1.5,0,0,1-1.5-1.5v-9.7h19.1v9.7A1.5,1.5,0,0,1,122.1,239.3Z" style="fill:#96b85c"/><path d="M122.1,240.8H106a3.1,3.1,0,0,1-3-3V226.6h22.1v11.2A3,3,0,0,1,122.1,240.8ZM106,229.6v8.2h16.1v-8.2Z" style="fill:#2d5b1d"/><g id="VC-3" data-name="VC"><polygon points="123.8 236.6 9.9 236.6 7.6 8.1 126 8.1 123.8 236.6" style="fill:#beef63"/><path d="M125.2,238.1H8.4L6.1,6.6H127.5Zm-113.9-3h111L124.5,9.6H9.1Z" style="fill:#6c9433"/></g><g id="VC-4" data-name="VC"><path d="M114.8,21.8a.9.9,0,0,0-.5-.9h0a1.2,1.2,0,0,0-.8-.4H20.1a1,1,0,0,0-.7.4h0a.9.9,0,0,0-.6.9V71.9a.8.8,0,0,0,.2.5,1.4,1.4,0,0,0-.2.6v50.1a.9.9,0,0,0,.5.8,1.1,1.1,0,0,0-.5.9v50.1a1,1,0,0,0,.6.9h0a1,1,0,0,0-.6.9v50.1a1,1,0,0,0,.6.9h0a.9.9,0,0,0,.7.3h93.4a1.1,1.1,0,0,0,.8-.3h0a1.1,1.1,0,0,0,.5-.9V176.7a1.1,1.1,0,0,0-.5-.9h0a1.1,1.1,0,0,0,.5-.9V124.8a1.1,1.1,0,0,0-.5-.9.9.9,0,0,0,.5-.8V73a.7.7,0,0,0-.2-.6c.2-.1.2-.3.2-.5Z" style="fill:#beef63"/><path d="M113.5,229.5H20.1a2.3,2.3,0,0,1-1.6-.6,2.5,2.5,0,0,1-1.2-2.1V176.7a2.9,2.9,0,0,1,.2-.9,2.9,2.9,0,0,1-.2-.9V124.8a1.5,1.5,0,0,1,.2-.9,1.1,1.1,0,0,1-.2-.8V73a1.3,1.3,0,0,1,.1-.6,1.1,1.1,0,0,1-.1-.5V21.8a2.4,2.4,0,0,1,1.1-2.1,2.8,2.8,0,0,1,1.7-.7h93.4a2.3,2.3,0,0,1,1.7.7,2.4,2.4,0,0,1,1.1,2.1V123.1a1.9,1.9,0,0,1-.1.8,2.8,2.8,0,0,1,.1.9v50.1a4.1,4.1,0,0,0,0,1.8v50.1a2.6,2.6,0,0,1-1.1,2.1h-.1l-.2.3h-.1A2.8,2.8,0,0,1,113.5,229.5Zm-93.1-3h92.9V177.1l-1-1.4,1-1.2V125.1l-2.3-1.2,2.3-1.2V73.2l-.5-.8.5-.7V22.1h-93V71.7l.5.7-.5.8v49.5l2.4,1.2-2.4,1.2v49.4l.2.3.9,1.1L20.3,177v49.4Z" style="fill:#6c9433"/></g><path d="M66.4,201.6,22.9,179.2h0l-3-2.7a.3.3,0,0,0-.4.2v50.1a.3.3,0,0,0,.4.2l3-2.7h0L66.4,202C66.6,201.9,66.6,201.6,66.4,201.6Z" style="fill:#fdffbd"/><path d="M19.8,228h-.5a1.2,1.2,0,0,1-.8-1.1V176.7a1.2,1.2,0,0,1,.8-1.1,1.3,1.3,0,0,1,1.3.2l2.9,2.6,43.4,22.3a1.1,1.1,0,0,1,.6,1.1,1.1,1.1,0,0,1-.6,1L23.5,225.1l-2.9,2.6A1.1,1.1,0,0,1,19.8,228Zm.7-49.6v46.7l2-1.7,42.1-21.6L22.4,180h-.2Zm-1.2-1.1Z" style="fill:#6c9433"/><path d="M66.9,201.7l43.8-22.5h.1l2.8-2.6a.2.2,0,0,0-.1-.4H20.1a.2.2,0,0,0-.1.4l2.9,2.6h0l43.8,22.5Z" style="fill:#fdffbd"/><path d="M66.8,202.7h-.6L22.4,180h-.2l-2.9-2.6A1.1,1.1,0,0,1,19,176a1.2,1.2,0,0,1,1.1-.8h93.4a1.1,1.1,0,0,1,1.1.8,1.1,1.1,0,0,1-.3,1.3l-3.1,2.8L67.4,202.6ZM23.5,178.4l43.3,22.2,43.4-22.2,1.3-1.2H22.2Z" style="fill:#6c9433"/><path d="M66.7,201.8,22.9,224.3h0L20,226.9a.2.2,0,0,0,.1.4h93.4a.2.2,0,0,0,.1-.4l-2.8-2.6h-.1L66.9,201.8Z" style="fill:#b3d16b"/><path d="M113.5,228.3H20.1a1.2,1.2,0,0,1-1.1-.8,1.1,1.1,0,0,1,.3-1.3l3.2-2.8,43.7-22.5a1.3,1.3,0,0,1,1.2,0l43.9,22.5v.2l2.9,2.6a1.1,1.1,0,0,1,.3,1.3A1.1,1.1,0,0,1,113.5,228.3Zm-91.3-2h89.3l-1.3-1.2L66.8,202.9,23.5,225.1Z" style="fill:#6c9433"/><path d="M110.7,179.2,67.2,201.6c-.2,0-.2.3,0,.4l43.5,22.3h.1l2.9,2.7c.2.1.4,0,.4-.2V176.7c0-.2-.2-.3-.4-.2l-2.9,2.7Z" style="fill:#dfe590"/><path d="M113.9,228a1.6,1.6,0,0,1-.9-.3l-2.8-2.6L66.7,202.8a1.1,1.1,0,0,1-.6-1,1.1,1.1,0,0,1,.6-1.1l43.5-22.3,2.8-2.6a1.4,1.4,0,0,1,1.4-.2,1.2,1.2,0,0,1,.7,1.1v50.1a1.2,1.2,0,0,1-.7,1.1ZM69,201.8l42.3,21.6v.2l1.7,1.5V178.4l-1.9,1.7h0Zm45.4-24.5Z" style="fill:#6c9433"/><rect x="22.9" y="179.2" width="87.8" height="45.1" style="fill:#dfe590"/><path d="M111.7,225.3H21.9V178.2h89.8Zm-87.8-2h85.8V180.2H23.9Z" style="fill:#6c9433"/><path d="M108.7,183v39.3H30.2L108.7,183m2-3.8-2.3,1.8L25.2,222.5l-2.3,1.8h87.8V179.2Z" style="fill:#cda77a"/><rect x="25.3" y="181" width="83.1" height="41.6" style="fill:#fff"/><path d="M109.9,224H23.8V179.5h86.1Zm-83.1-3h80.1V182.5H26.8Z" style="fill:#e2c6a0"/><path d="M31.8,218.3a17.5,17.5,0,0,1-6.5,2.4v.8l3.3-.9a33.2,33.2,0,0,1,7.7-1.8c4.8-.3,11.7.7,15.7-2.8-2.9-1.7-6.9-1.6-10-1.5l-8.2.3a80.3,80.3,0,0,1-8.5,0v1.8a27.8,27.8,0,0,0,6.4.6C32.3,217.2,32,218.1,31.8,218.3Z" style="fill:#dfe590"/><path d="M69.5,218c-4.7.7-9.4,1.7-14.1,2.5s-9.3,1.5-14,2H65.8c5.8-1.6,11.6-3.7,17.5-5.1,3.3-.8,7.1-1.4,10-3.2s-.9-2.7-2.4-3a42.3,42.3,0,0,0-5-.5c-5.3-.3-10.6-1.2-15.9-1.6s-13.1-.7-19.7-1.1-13-1.3-19.6-1.8l-5.4-.4v3l4.5.2,19.9,1.6,17.4,1c3.8.2,8,.5,11,3.1.1.2.1.5-.1.6C75.8,217.4,72.3,217.6,69.5,218Z" style="fill:#dfe590"/><path d="M34.9,183.6c5.2-1.1,10.5-1.9,15.8-2.6H25.3v4.5A70.9,70.9,0,0,0,34.9,183.6Z" style="fill:#dfe590"/><path d="M57.1,181l-11.4,1.5c-6,.8-11.8,2.6-17.7,3.4l-2.7.3v1.6c13.6-.7,27.2-2.7,40.8-3.9,8.3-.8,16.6-.6,24.9-1.3,5.8-.4,11.6-1.2,17.4-1.4V181Z" style="fill:#dfe590"/><path d="M89.8,183.7c-8.3.5-16.6.5-25,1.2-13.2,1.3-26.3,3.1-39.5,3.9v4c4-.1,8.3-1.3,11.4-1.7,8.5-1.2,17.2.5,25.7-.3,15.4-1.3,30.6-4,46-5.3v-3.4C102.2,182.3,96,183.3,89.8,183.7Z" style="fill:#dfe590"/><path d="M85.3,194.8h23.1v-5.6c-9.8.7-19.7,1.5-28.7,5.2A21.1,21.1,0,0,0,85.3,194.8Z" style="fill:#dfe590"/><path d="M99,195.7H86.3c-2.6-.1-5.8.3-8.2-1a.4.4,0,0,1,0-.8c9.5-4,20-4.9,30.3-5.7v-1.9c-6.1.5-12.2,1.2-18.2,2-10.5,1.3-21.2,3.4-31.9,3.5-5.3.1-10.6-.3-15.9-.3a61.3,61.3,0,0,0-9.5,1,58.2,58.2,0,0,1-7.6,1V196c4.9.5,9.8,1.1,14.7,1.3,9.1.3,18.2.5,27.3,1.3s18.1,1.6,27.3.8c3.8-.3,7.6-.8,11.3-1.3l2.5-.4v-1.9Z" style="fill:#dfe590"/><path d="M97.9,200.2a148.7,148.7,0,0,1-28.3-.2c-9.4-.9-18.9-1.2-28.4-1.5-5.3-.2-10.6-.9-15.9-1.4v5.4l6.1-.6a64.7,64.7,0,0,1,13.2.1c9.4.7,18.8,2,28.3,1.9s18.2-.6,27.2-.4c2.6.1,5.4.3,8.3.3v-4.7C104.8,199.7,101.1,199.9,97.9,200.2Z" style="fill:#dfe590"/><path d="M94.8,214.5c-2.5,2.2-6.5,2.8-9.6,3.6-5.1,1.2-10,2.9-15.1,4.4h17a49.6,49.6,0,0,1,7.9-3c2.5-.9,6.6-2.2,4.6-5.6-.8-1.3-1.4-2.7-2.2-4s4-2.6,4.8-2.7l6.2-.4v-1.9l-6.7-.2c-9.2-.3-18.4.3-27.5.4s-20.3-1.4-30.6-2.1a81.8,81.8,0,0,0-14,.2l-4.3.4v1.1l2.9.2c3.4.2,6.7.7,10,1,7.3.7,14.5,1.1,21.8,1.4s15.3,1.1,22.9,2.1c3.3.4,6.9.1,10.1,1.3C94.4,211.2,96.7,212.9,94.8,214.5Z" style="fill:#dfe590"/><path d="M107.3,216.4a10,10,0,0,1,1.1-3.8v-4.7l-6.2.4c-.2.1-4.2.8-4,1.1l.8,1.5a41,41,0,0,1,2.2,4.1c.9,2.4-2.2,4-3.9,4.8s-5.3,1.7-7.8,2.7h13A8,8,0,0,0,107.3,216.4Z" style="fill:#dfe590"/><path d="M106.1,221.2a7,7,0,0,1-1.7,1.3h4v-6.9C108,217.5,107.8,219.7,106.1,221.2Z" style="fill:#dfe590"/><path d="M57.5,219.2l14-2.4c.9-.2,6.7-1.3,4.1-2.5a17.7,17.7,0,0,0-6.4-1.6c-10.2-.8-20.5-1.2-30.8-2-4.4-.4-8.7-.7-13.1-.9v4h4.6l8.2-.2c4.7-.3,11-1.1,15,1.9.2.2.4.5.1.8-3.9,4-10.8,3-15.9,3.3s-7.3,1.6-11,2.6l-1,.2h7.8c2.9-.1,5.8-.4,8.8-.7C47.2,221.2,52.3,220.1,57.5,219.2Z" style="fill:#dfe590"/><path d="M25.3,217.8v1.8a21.3,21.3,0,0,0,4.3-1.3A29.8,29.8,0,0,1,25.3,217.8Z" style="fill:#dfe590"/><g id="VC-5" data-name="VC"><path d="M72.8,190.3c0,3.8-2.7,6.8-6,6.8s-6-3-6-6.8,2.7-6.8,6-6.8S72.8,186.5,72.8,190.3Z" style="fill:#beef63"/><path d="M66.8,198.6c-4.1,0-7.5-3.7-7.5-8.3s3.4-8.3,7.5-8.3,7.5,3.7,7.5,8.3S70.9,198.6,66.8,198.6Zm0-13.6c-2.4,0-4.5,2.4-4.5,5.3s2.1,5.3,4.5,5.3,4.5-2.4,4.5-5.3S69.3,185,66.8,185Z" style="fill:#6c9433"/></g><path d="M74.3,193.4a7.6,7.6,0,0,1-7.5,7.6,7.6,7.6,0,0,1,0-15.2A7.6,7.6,0,0,1,74.3,193.4Z" style="fill:#1e5941"/><path d="M66.8,202.5a9.1,9.1,0,1,1,9-9.1A9,9,0,0,1,66.8,202.5Zm0-15.2a6,6,0,0,0-5.9,6.1,6,6,0,0,0,5.9,6.1,6,6,0,0,0,6-6.1A6.1,6.1,0,0,0,66.8,187.3Z" style="fill:#1a423a"/><g id="VC-6" data-name="VC"><path d="M74.3,195a7.4,7.4,0,0,1-7.5,7.2,7.3,7.3,0,0,1-7.4-7.2,7.4,7.4,0,0,1,7.4-7.3A7.4,7.4,0,0,1,74.3,195Z" style="fill:#beef63"/><path d="M66.8,203.8a8.8,8.8,0,1,1,9-8.8A8.9,8.9,0,0,1,66.8,203.8Zm0-14.6a5.8,5.8,0,1,0,0,11.6,5.8,5.8,0,1,0,0-11.6Z" style="fill:#6c9433"/></g><g style="opacity:0.5;mix-blend-mode:screen"><path d="M66.8,192.9a1.9,1.9,0,0,1-2,2,1.9,1.9,0,0,1-1.9-2,2,2,0,1,1,3.9,0Z" style="fill:#e0ffc4"/></g><g style="opacity:0.5;mix-blend-mode:screen"><path d="M63.2,195.3a.7.7,0,0,1-.6.7.7.7,0,0,1,0-1.4A.7.7,0,0,1,63.2,195.3Z" style="fill:#e0ffc4"/></g><path d="M27.4,212.7V182.1H62.9s-32-1.1-33.3,5.4S27.4,212.7,27.4,212.7Z" style="fill:#dfe590"/><path d="M66.4,149.6,22.9,127.3h0l-3-2.7a.3.3,0,0,0-.4.2v50.1a.3.3,0,0,0,.4.2l3-2.7h0L66.4,150C66.6,150,66.6,149.7,66.4,149.6Z" style="fill:#fdffbd"/><path d="M19.8,176.1h-.5a1.2,1.2,0,0,1-.8-1.1V124.8a1.2,1.2,0,0,1,.8-1.1,1.3,1.3,0,0,1,1.3.2l2.9,2.6,43.4,22.2a1.4,1.4,0,0,1,.6,1.1,1.1,1.1,0,0,1-.6,1.1L23.5,173.2l-2.9,2.6A1.1,1.1,0,0,1,19.8,176.1Zm.7-49.6v46.7l2-1.7,42.1-21.7L22.4,128.1h-.2ZM66,149.2Z" style="fill:#6c9433"/><path d="M66.9,149.8l43.8-22.5h.1l2.8-2.6a.2.2,0,0,0-.1-.4H20.1a.2.2,0,0,0-.1.4l2.9,2.6h0l43.8,22.5Z" style="fill:#fdffbd"/><path d="M66.8,150.8h-.6L22.4,128.1h-.2l-2.9-2.6a1.1,1.1,0,0,1-.3-1.3,1.2,1.2,0,0,1,1.1-.8h93.4a1.1,1.1,0,0,1,1.1.8,1.1,1.1,0,0,1-.3,1.3l-3.1,2.8L67.4,150.7ZM23.5,126.5l43.3,22.2,43.4-22.2,1.3-1.2H22.2Z" style="fill:#6c9433"/><path d="M66.7,149.9,22.9,172.4h0L20,175a.2.2,0,0,0,.1.4h93.4a.2.2,0,0,0,.1-.4l-2.8-2.6h-.1L66.9,149.9Z" style="fill:#b3d16b"/><path d="M113.5,176.4H20.1a1.2,1.2,0,0,1-1.1-.8,1.1,1.1,0,0,1,.3-1.3l3.2-2.8L66.3,149a1.1,1.1,0,0,1,1.1,0l43.9,22.5v.2l2.9,2.6a1.1,1.1,0,0,1,.3,1.3A1.1,1.1,0,0,1,113.5,176.4Zm-91.3-2h89.3l-1.3-1.2L66.8,151,23.5,173.2Zm45-23.6Z" style="fill:#6c9433"/><path d="M110.7,127.3,67.2,149.6c-.2.1-.2.4,0,.4l43.5,22.4h.1l2.9,2.7c.2.1.4,0,.4-.2V124.8c0-.2-.2-.3-.4-.2l-2.9,2.7Z" style="fill:#dfe590"/><path d="M113.9,176.1l-.9-.3-2.8-2.6L66.7,150.9a1.1,1.1,0,0,1-.6-1.1,1.1,1.1,0,0,1,.6-1l43.5-22.3,2.8-2.6a1.4,1.4,0,0,1,1.4-.2,1.2,1.2,0,0,1,.7,1.1v50.1a1.2,1.2,0,0,1-.7,1.1ZM69,149.8l42.3,21.7v.2l1.7,1.5V126.5l-1.9,1.7Zm45.4-24.4Z" style="fill:#6c9433"/><g id="VC-7" data-name="VC"><rect x="22.9" y="127.3" width="87.8" height="45.09" style="fill:#dfe590"/><path d="M111.7,173.4H21.9V126.3h89.8Zm-87.8-2h85.8V128.3H23.9Z" style="fill:#6c9433"/></g><path d="M108.7,131.1v39.3H30.2l78.5-39.3m2-3.8-2.3,1.7L25.2,170.6l-2.3,1.8h87.8V127.3Z" style="fill:#cda77a"/><rect x="25.3" y="129" width="83.1" height="41.6" style="fill:#fff"/><path d="M109.9,172.1H23.8V127.5h86.1Zm-83.1-3h80.1V130.5H26.8Z" style="fill:#e2c6a0"/><path d="M31.8,166.4a17.5,17.5,0,0,1-6.5,2.4v.8l3.3-.9a33.2,33.2,0,0,1,7.7-1.8c4.8-.3,11.7.7,15.7-2.8-2.9-1.8-6.9-1.6-10-1.5l-8.2.3a80.3,80.3,0,0,1-8.5,0v1.8a27.8,27.8,0,0,0,6.4.6C32.3,165.3,32,166.2,31.8,166.4Z" style="fill:#dfe590"/><path d="M69.5,166.1c-4.7.7-9.4,1.7-14.1,2.5s-9.3,1.5-14,2H65.8c5.8-1.6,11.6-3.7,17.5-5.1,3.3-.8,7.1-1.4,10-3.2s-.9-2.7-2.4-3a42.3,42.3,0,0,0-5-.5c-5.3-.3-10.6-1.2-15.9-1.6s-13.1-.7-19.7-1.1-13-1.3-19.6-1.8l-5.4-.4v3l4.5.2,19.9,1.6,17.4,1c3.8.2,8,.5,11,3.1.1.2.1.5-.1.6C75.8,165.5,72.3,165.7,69.5,166.1Z" style="fill:#dfe590"/><path d="M34.9,131.7c5.2-1.1,10.5-1.9,15.8-2.6H25.3v4.6A70.9,70.9,0,0,0,34.9,131.7Z" style="fill:#dfe590"/><path d="M57.1,129l-11.4,1.6c-6,.8-11.8,2.6-17.7,3.4l-2.7.3v1.6c13.6-.7,27.2-2.7,40.8-3.9,8.3-.8,16.6-.6,24.9-1.3,5.8-.4,11.6-1.2,17.4-1.4V129Z" style="fill:#dfe590"/><path d="M89.8,131.8c-8.3.5-16.6.5-25,1.2-13.2,1.2-26.3,3.1-39.5,3.9v4c4-.2,8.3-1.3,11.4-1.7,8.5-1.2,17.2.5,25.7-.3,15.4-1.3,30.6-4,46-5.3v-3.4C102.2,130.4,96,131.4,89.8,131.8Z" style="fill:#dfe590"/><path d="M85.3,142.9h23.1v-5.6c-9.8.7-19.7,1.5-28.7,5.2A21.1,21.1,0,0,0,85.3,142.9Z" style="fill:#dfe590"/><path d="M99,143.8H86.3c-2.6,0-5.8.4-8.2-.9a.4.4,0,0,1,0-.8c9.5-4,20-4.9,30.3-5.7v-1.9c-6.1.5-12.2,1.2-18.2,2-10.5,1.3-21.2,3.4-31.9,3.5-5.3.1-10.6-.3-15.9-.3a61.3,61.3,0,0,0-9.5,1,58.2,58.2,0,0,1-7.6,1v2.4c4.9.5,9.8,1.1,14.7,1.3,9.1.3,18.2.5,27.3,1.3s18.1,1.6,27.3.8c3.8-.3,7.6-.8,11.3-1.3l2.5-.4v-1.9Z" style="fill:#dfe590"/><path d="M97.9,148.3a148.7,148.7,0,0,1-28.3-.2c-9.4-.9-18.9-1.2-28.4-1.5-5.3-.3-10.6-.9-15.9-1.4v5.3l6.1-.5a64.7,64.7,0,0,1,13.2.1c9.4.7,18.8,1.9,28.3,1.9s18.2-.6,27.2-.4c2.6.1,5.4.3,8.3.3v-4.8C104.8,147.8,101.1,148,97.9,148.3Z" style="fill:#dfe590"/><path d="M94.8,162.6c-2.5,2.2-6.5,2.8-9.6,3.6-5.1,1.2-10,2.9-15.1,4.4h17a49.6,49.6,0,0,1,7.9-3c2.5-.9,6.6-2.2,4.6-5.6-.8-1.3-1.4-2.7-2.2-4s4-2.6,4.8-2.7l6.2-.4V153l-6.7-.2c-9.2-.3-18.4.3-27.5.4s-20.3-1.4-30.6-2.1a81.8,81.8,0,0,0-14,.2l-4.3.4v1.1l2.9.2c3.4.2,6.7.7,10,1,7.3.7,14.5,1.1,21.8,1.4s15.3,1.1,22.9,2.1c3.3.4,6.9.1,10.1,1.3C94.4,159.3,96.7,161,94.8,162.6Z" style="fill:#dfe590"/><path d="M107.3,164.5a10,10,0,0,1,1.1-3.8V156l-6.2.4c-.2.1-4.2.8-4,1.1L99,159a32.3,32.3,0,0,1,2.2,4.1c.9,2.4-2.2,4-3.9,4.8s-5.3,1.7-7.8,2.7h13A8,8,0,0,0,107.3,164.5Z" style="fill:#dfe590"/><path d="M106.1,169.3a7,7,0,0,1-1.7,1.3h4v-6.9C108,165.6,107.8,167.8,106.1,169.3Z" style="fill:#dfe590"/><path d="M57.5,167.3l14-2.4c.9-.2,6.7-1.3,4.1-2.5a17.7,17.7,0,0,0-6.4-1.6c-10.2-.8-20.5-1.2-30.8-2-4.4-.4-8.7-.7-13.1-.9v4h4.6l8.2-.2c4.7-.3,11-1.2,15,1.9.2.2.4.5.1.8-3.9,4-10.8,3-15.9,3.3s-7.3,1.6-11,2.6l-1,.2h7.8c2.9-.1,5.8-.4,8.8-.7C47.2,169.3,52.3,168.2,57.5,167.3Z" style="fill:#dfe590"/><path d="M25.3,165.9v1.8a21.3,21.3,0,0,0,4.3-1.3A29.8,29.8,0,0,1,25.3,165.9Z" style="fill:#dfe590"/><g id="VC-8" data-name="VC"><path d="M72.8,138.4c0,3.7-2.7,6.8-6,6.8s-6-3.1-6-6.8,2.7-6.8,6-6.8S72.8,134.6,72.8,138.4Z" style="fill:#beef63"/><path d="M66.8,146.7c-4.1,0-7.5-3.7-7.5-8.3s3.4-8.3,7.5-8.3,7.5,3.7,7.5,8.3S70.9,146.7,66.8,146.7Zm0-13.6c-2.4,0-4.5,2.4-4.5,5.3s2.1,5.3,4.5,5.3,4.5-2.4,4.5-5.3S69.3,133.1,66.8,133.1Z" style="fill:#6c9433"/></g><path d="M74.3,141.5a7.6,7.6,0,0,1-7.5,7.6,7.6,7.6,0,0,1,0-15.2A7.6,7.6,0,0,1,74.3,141.5Z" style="fill:#1e5941"/><path d="M66.8,150.6a9.1,9.1,0,1,1,9-9.1A9,9,0,0,1,66.8,150.6Zm0-15.2a6,6,0,0,0-5.9,6.1,6,6,0,0,0,5.9,6.1,6,6,0,0,0,6-6.1A6.1,6.1,0,0,0,66.8,135.4Z" style="fill:#1a423a"/><g id="VC-9" data-name="VC"><path d="M74.3,143.1a7.4,7.4,0,0,1-7.5,7.2,7.3,7.3,0,0,1-7.4-7.2,7.4,7.4,0,0,1,7.4-7.3A7.4,7.4,0,0,1,74.3,143.1Z" style="fill:#beef63"/><path d="M66.8,151.8a8.8,8.8,0,1,1,9-8.7A8.8,8.8,0,0,1,66.8,151.8Zm0-14.5a5.8,5.8,0,0,0-5.9,5.8,5.7,5.7,0,0,0,5.9,5.7,5.8,5.8,0,0,0,6-5.7A5.9,5.9,0,0,0,66.8,137.3Z" style="fill:#6c9433"/></g><g style="opacity:0.5;mix-blend-mode:screen"><path d="M66.8,141a2,2,0,1,1-2-2A2,2,0,0,1,66.8,141Z" style="fill:#e0ffc4"/></g><g style="opacity:0.5;mix-blend-mode:screen"><path d="M63.2,143.4a.7.7,0,0,1-.6.7.7.7,0,1,1,0-1.4A.7.7,0,0,1,63.2,143.4Z" style="fill:#e0ffc4"/></g><path d="M27.4,160.8V130.2H62.9s-32-1.1-33.3,5.4S27.4,160.8,27.4,160.8Z" style="fill:#dfe590"/><path d="M66.4,97.8,22.9,75.5h0l-3-2.7a.3.3,0,0,0-.4.2v50.1a.2.2,0,0,0,.4.1l3-2.6h0L66.4,98.2A.2.2,0,0,0,66.4,97.8Z" style="fill:#fdffbd"/><path d="M19.8,124.3h-.5a1.2,1.2,0,0,1-.8-1.1V73a1.2,1.2,0,0,1,.8-1.1,1.3,1.3,0,0,1,1.3.2l2.9,2.6L66.9,96.9a1.4,1.4,0,0,1,.6,1.1,1.1,1.1,0,0,1-.6,1.1L23.5,121.4,20.6,124A1.1,1.1,0,0,1,19.8,124.3Zm.7-49.6v46.6l2-1.6L64.6,98,22.4,76.3h-.2ZM66,97.3Z" style="fill:#6c9433"/><path d="M66.9,98l43.8-22.5h.1l2.8-2.6c.2-.2.1-.4-.1-.4H20.1c-.2,0-.3.2-.1.4l2.9,2.6h0L66.7,98Z" style="fill:#fdffbd"/><path d="M66.8,99h-.6L22.4,76.3h-.2l-2.9-2.6a1.1,1.1,0,0,1-.3-1.3,1.2,1.2,0,0,1,1.1-.8h93.4a1.2,1.2,0,0,1,.8,2.1l-3.1,2.8L67.4,98.9ZM23.5,74.7,66.8,96.9l43.4-22.2,1.3-1.2H22.2Z" style="fill:#6c9433"/><path d="M66.7,98.1,22.9,120.6h0L20,123.2a.2.2,0,0,0,.1.4h93.4a.2.2,0,0,0,.1-.4l-2.8-2.6h-.1L66.9,98.1Z" style="fill:#b3d16b"/><path d="M113.5,124.6H20.1a1.2,1.2,0,0,1-1.1-.8,1.2,1.2,0,0,1,.3-1.4l3.2-2.7L66.2,97.2a1.3,1.3,0,0,1,1.2,0l43.9,22.5h.1l2.9,2.6a1.2,1.2,0,0,1,.3,1.4A1.1,1.1,0,0,1,113.5,124.6Zm-91.3-2h89.3l-1.3-1.2L66.8,99.2,23.5,121.4Z" style="fill:#6c9433"/><path d="M110.7,75.5,67.2,97.8a.2.2,0,0,0,0,.4l43.5,22.4h.1l2.9,2.6c.2.2.4.1.4-.1V73c0-.2-.2-.3-.4-.2l-2.9,2.7Z" style="fill:#dfe590"/><path d="M113.9,124.3a1.6,1.6,0,0,1-.9-.3l-2.8-2.6L66.7,99.1a1.1,1.1,0,0,1-.6-1.1,1.4,1.4,0,0,1,.6-1.1l43.5-22.2,2.8-2.6a1.4,1.4,0,0,1,1.4-.2,1.2,1.2,0,0,1,.7,1.1v50.1a1.2,1.2,0,0,1-.7,1.1ZM69,98l42.3,21.7h.1l1.7,1.5V74.7l-1.9,1.7h0Zm-1.3-.7Z" style="fill:#6c9433"/><g id="VC-10" data-name="VC"><rect x="22.9" y="75.5" width="87.8" height="45.09" style="fill:#dfe590"/><path d="M111.7,121.6H21.9V74.5h89.8Zm-87.8-2h85.8V76.5H23.9Z" style="fill:#6c9433"/></g><g style="mix-blend-mode:multiply"><path d="M108.7,79.3v39.3H30.2l78.5-39.3m2-3.8-2.3,1.7L25.2,118.8l-2.3,1.8h87.8V75.5Z" style="fill:#cda77a"/></g><rect x="25.3" y="77.2" width="83.1" height="41.6" style="fill:#fff"/><path d="M109.9,120.3H23.8V75.7h86.1Zm-83.1-3h80.1V78.7H26.8Z" style="fill:#e2c6a0"/><path d="M31.8,114.5a16,16,0,0,1-6.5,2.5v.8l3.3-1a39.1,39.1,0,0,1,7.7-1.7c4.8-.3,11.7.7,15.7-2.8-2.9-1.8-6.9-1.6-10-1.5l-8.2.3a80.3,80.3,0,0,1-8.5,0v1.8a27.6,27.6,0,0,0,6.4.5C32.3,113.5,32,114.4,31.8,114.5Z" style="fill:#dfe590"/><path d="M69.5,114.3c-4.7.6-9.4,1.7-14.1,2.5s-9.3,1.5-14,2H65.8c5.8-1.6,11.6-3.7,17.5-5.1,3.3-.8,7.1-1.4,10-3.2s-.9-2.8-2.4-3a42.3,42.3,0,0,0-5-.5c-5.3-.3-10.6-1.2-15.9-1.6s-13.1-.7-19.7-1.1-13-1.3-19.6-1.9l-5.4-.3v3a33.1,33.1,0,0,1,4.5.2l19.9,1.6,17.4,1c3.8.2,8,.5,11,3.1a.5.5,0,0,1-.1.6C75.8,113.7,72.3,113.9,69.5,114.3Z" style="fill:#dfe590"/><path d="M34.9,79.9c5.2-1.2,10.5-1.9,15.8-2.6H25.3v4.6A70.9,70.9,0,0,0,34.9,79.9Z" style="fill:#dfe590"/><path d="M57.1,77.2,45.7,78.8c-6,.8-11.8,2.6-17.7,3.4l-2.7.3v1.6c13.6-.8,27.2-2.7,40.8-4,8.3-.7,16.6-.5,24.9-1.2,5.8-.5,11.6-1.3,17.4-1.5v-.2Z" style="fill:#dfe590"/><path d="M89.8,79.9c-8.3.6-16.6.5-25,1.3-13.2,1.2-26.3,3.1-39.5,3.9v4c4-.2,8.3-1.3,11.4-1.7,8.5-1.2,17.2.4,25.7-.3,15.4-1.3,30.6-4.1,46-5.4V78.4C102.2,78.6,96,79.6,89.8,79.9Z" style="fill:#dfe590"/><path d="M85.3,91.1h23.1V85.5c-9.8.7-19.7,1.6-28.7,5.2A21.2,21.2,0,0,0,85.3,91.1Z" style="fill:#dfe590"/><path d="M99,92H86.3c-2.6,0-5.8.4-8.2-.9a.4.4,0,0,1,0-.8c9.5-4.1,20-4.9,30.3-5.7v-2c-6.1.5-12.2,1.3-18.2,2C79.7,86,69,88.1,58.3,88.2c-5.3.1-10.6-.3-15.9-.3a61.3,61.3,0,0,0-9.5,1c-2.3.3-5,.8-7.6,1v2.4c4.9.5,9.8,1.1,14.7,1.3,9.1.3,18.2.5,27.3,1.3s18.1,1.6,27.3.8l11.3-1.3,2.5-.4V92.1C105.2,92,102.1,91.9,99,92Z" style="fill:#dfe590"/><path d="M97.9,96.5a140.9,140.9,0,0,1-28.3-.3c-9.4-.8-18.9-1.1-28.4-1.5-5.3-.2-10.6-.8-15.9-1.3v5.3l6.1-.6a83.1,83.1,0,0,1,13.2.1c9.4.8,18.8,2,28.3,2s18.2-.6,27.2-.4c2.6.1,5.4.3,8.3.3V95.3C104.8,96,101.1,96.2,97.9,96.5Z" style="fill:#dfe590"/><path d="M94.8,110.8c-2.5,2.1-6.5,2.8-9.6,3.6-5.1,1.2-10,2.9-15.1,4.4h17a49.6,49.6,0,0,1,7.9-3c2.5-1,6.6-2.2,4.6-5.6-.8-1.3-1.4-2.7-2.2-4s4-2.7,4.8-2.7l6.2-.4v-1.9l-6.7-.2c-9.2-.3-18.4.3-27.5.3s-20.3-1.3-30.6-2a81.8,81.8,0,0,0-14,.2l-4.3.4V101l2.9.2c3.4.2,6.7.6,10,1,7.3.7,14.5,1.1,21.8,1.4s15.3,1.1,22.9,2c3.3.4,6.9.1,10.1,1.3C94.4,107.5,96.7,109.2,94.8,110.8Z" style="fill:#dfe590"/><path d="M107.3,112.7a10,10,0,0,1,1.1-3.8v-4.7l-6.2.4c-.2,0-4.2.8-4,1.1l.8,1.5a32.3,32.3,0,0,1,2.2,4.1c.9,2.4-2.2,4-3.9,4.7s-5.3,1.8-7.8,2.8h13A8,8,0,0,0,107.3,112.7Z" style="fill:#dfe590"/><path d="M106.1,117.5a10.9,10.9,0,0,1-1.7,1.3h4v-6.9C108,113.8,107.8,116,106.1,117.5Z" style="fill:#dfe590"/><path d="M57.5,115.5l14-2.4c.9-.2,6.7-1.3,4.1-2.5a17.7,17.7,0,0,0-6.4-1.6c-10.2-.8-20.5-1.3-30.8-2.1l-13.1-.8V110a23.6,23.6,0,0,0,4.6.1h8.2c4.7-.3,11-1.2,15,1.9.2.2.4.5.1.8-3.9,4-10.8,3-15.9,3.3s-7.3,1.6-11,2.6l-1,.2h7.8l8.8-.7C47.2,117.5,52.3,116.4,57.5,115.5Z" style="fill:#dfe590"/><path d="M25.3,114.1v1.8a16.6,16.6,0,0,0,4.3-1.4A20.2,20.2,0,0,1,25.3,114.1Z" style="fill:#dfe590"/><g id="VC-11" data-name="VC"><path d="M72.8,86.6c0,3.7-2.7,6.8-6,6.8s-6-3.1-6-6.8,2.7-6.8,6-6.8S72.8,82.8,72.8,86.6Z" style="fill:#beef63"/><path d="M66.8,94.9c-4.1,0-7.5-3.7-7.5-8.3s3.4-8.3,7.5-8.3,7.5,3.7,7.5,8.3S70.9,94.9,66.8,94.9Zm0-13.6c-2.4,0-4.5,2.3-4.5,5.3s2.1,5.3,4.5,5.3,4.5-2.4,4.5-5.3S69.3,81.3,66.8,81.3Z" style="fill:#6c9433"/></g><path d="M74.3,89.7a7.6,7.6,0,0,1-7.5,7.6,7.6,7.6,0,0,1,0-15.2A7.6,7.6,0,0,1,74.3,89.7Z" style="fill:#1e5941"/><path d="M66.8,98.8a9.1,9.1,0,1,1,9-9.1A9,9,0,0,1,66.8,98.8Zm0-15.2a6,6,0,0,0-5.9,6.1,6,6,0,0,0,5.9,6.1,6.1,6.1,0,0,0,6-6.1A6,6,0,0,0,66.8,83.6Z" style="fill:#1a423a"/><g id="VC-12" data-name="VC"><path d="M74.3,91.3a7.4,7.4,0,0,1-7.5,7.2,7.3,7.3,0,0,1-7.4-7.2A7.4,7.4,0,0,1,66.8,84,7.4,7.4,0,0,1,74.3,91.3Z" style="fill:#beef63"/><path d="M66.8,100a8.8,8.8,0,1,1,9-8.7A8.8,8.8,0,0,1,66.8,100Zm0-14.5a5.8,5.8,0,1,0,0,11.5,5.8,5.8,0,1,0,0-11.5Z" style="fill:#6c9433"/></g><g style="opacity:0.5;mix-blend-mode:screen"><path d="M66.8,89.2a2,2,0,1,1-2-2A2,2,0,0,1,66.8,89.2Z" style="fill:#e0ffc4"/></g><g style="opacity:0.5;mix-blend-mode:screen"><path d="M63.2,91.6a.7.7,0,0,1-.6.7.7.7,0,1,1,0-1.4A.7.7,0,0,1,63.2,91.6Z" style="fill:#e0ffc4"/></g><path d="M27.4,108.9V78.4H62.9s-32-1.1-33.3,5.3S27.4,108.9,27.4,108.9Z" style="fill:#dfe590"/><path d="M66.4,46.6,22.9,24.3h0l-3-2.6a.3.3,0,0,0-.4.2V71.9c0,.1.3.2.4.1l3-2.6h0L66.4,47A.2.2,0,0,0,66.4,46.6Z" style="fill:#fdffbd"/><path d="M19.8,73.1h-.5a1.3,1.3,0,0,1-.8-1.1V21.8a1.1,1.1,0,0,1,.8-1.1,1.1,1.1,0,0,1,1.3.2l2.9,2.5L66.9,45.7a1.3,1.3,0,0,1,0,2.2L23.5,70.2l-2.9,2.6A1.1,1.1,0,0,1,19.8,73.1Zm.7-49.6V70.1l2-1.7L64.6,46.8,22.4,25.1h-.2ZM66,47.5Zm0-1.4Z" style="fill:#6c9433"/><path d="M66.9,46.8l43.8-22.5h.1l2.8-2.5c.2-.2.1-.4-.1-.4H20.1c-.2,0-.3.2-.1.4l2.9,2.5h0L66.7,46.8Z" style="fill:#fdffbd"/><path d="M66.8,47.8l-.6-.2L22.4,25.1h-.2l-2.9-2.6a1.1,1.1,0,0,1-.3-1.3,1.2,1.2,0,0,1,1.1-.8h93.4a1.1,1.1,0,0,1,1.1.7,1.2,1.2,0,0,1-.3,1.4l-3.1,2.8L67.4,47.6Zm-.3-1.9Zm-43-22.5L66.8,45.7l43.4-22.3,1.3-1.1H22.2Z" style="fill:#6c9433"/><path d="M66.7,46.9,22.9,69.3h0L20,72a.2.2,0,0,0,.1.4h93.4a.2.2,0,0,0,.1-.4l-2.8-2.6c-.1,0-.1,0-.1-.1L66.9,46.9C66.8,46.8,66.8,46.8,66.7,46.9Z" style="fill:#b3d16b"/><path d="M113.5,73.4H20.1a1.3,1.3,0,0,1-1.1-.8,1.2,1.2,0,0,1,.3-1.4l3.2-2.8L66.3,46a1.1,1.1,0,0,1,1.1,0l43.9,22.5h.1l2.9,2.6a1.2,1.2,0,0,1,.3,1.4A1.2,1.2,0,0,1,113.5,73.4Zm-91.3-2h89.3l-1.3-1.2L66.8,47.9,23.5,70.2Zm45-23.6Z" style="fill:#6c9433"/><path d="M110.7,24.3,67.2,46.6a.2.2,0,0,0,0,.4l43.5,22.3c0,.1,0,.1.1.1l2.9,2.6c.2.1.4,0,.4-.1V21.8c0-.2-.2-.3-.4-.2l-2.9,2.6Z" style="fill:#dfe590"/><path d="M113.9,73.1a1.6,1.6,0,0,1-.9-.3l-2.8-2.6L66.7,47.9a1.3,1.3,0,0,1,0-2.2l43.5-22.3,2.8-2.5a1.2,1.2,0,0,1,1.4-.2,1.1,1.1,0,0,1,.7,1.1V71.9a1.4,1.4,0,0,1-.7,1.1Zm.5-1.8ZM69,46.8l42.3,21.7h.1l1.7,1.5V23.5l-1.9,1.7h0Z" style="fill:#6c9433"/><g id="VC-13" data-name="VC"><rect x="22.9" y="24.3" width="87.8" height="45.09" style="fill:#dfe590"/><path d="M111.7,70.4H21.9V23.3h89.8Zm-87.8-2h85.8V25.3H23.9Z" style="fill:#6c9433"/></g><g style="mix-blend-mode:multiply"><path d="M108.7,28.1V67.4H30.2l78.5-39.3m2-3.8L108.4,26,25.2,67.6l-2.3,1.8h87.8V24.3Z" style="fill:#cda77a"/></g><rect x="25.3" y="26" width="83.1" height="41.6" style="fill:#fff"/><path d="M109.9,69.1H23.8V24.5h86.1Zm-83.1-3h80.1V27.5H26.8Z" style="fill:#e2c6a0"/><path d="M31.8,63.3a16,16,0,0,1-6.5,2.5v.7l3.3-.9a28.7,28.7,0,0,1,7.7-1.7c4.8-.3,11.7.6,15.7-2.8-2.9-1.8-6.9-1.6-10-1.5l-8.2.3a81,81,0,0,1-8.5-.1v1.9a27.6,27.6,0,0,0,6.4.5C32.3,62.2,32,63.1,31.8,63.3Z" style="fill:#dfe590"/><path d="M69.5,63.1c-4.7.6-9.4,1.6-14.1,2.5s-9.3,1.5-14,2H65.8c5.8-1.6,11.6-3.8,17.5-5.2,3.3-.7,7.1-1.4,10-3.2s-.9-2.7-2.4-2.9a42.3,42.3,0,0,0-5-.5c-5.3-.3-10.6-1.2-15.9-1.7S56.9,53.5,50.3,53s-13-1.2-19.6-1.8l-5.4-.4v3.1h4.5l19.9,1.7,17.4,1c3.8.2,8,.5,11,3.1a.5.5,0,0,1-.1.6C75.8,62.5,72.3,62.7,69.5,63.1Z" style="fill:#dfe590"/><path d="M34.9,28.7a140.6,140.6,0,0,1,15.8-2.6H25.3v4.6C28.7,30.3,32.3,29.2,34.9,28.7Z" style="fill:#dfe590"/><path d="M57.1,26,45.7,27.6c-6,.8-11.8,2.6-17.7,3.3l-2.7.4v1.6c13.6-.8,27.2-2.7,40.8-4,8.3-.7,16.6-.6,24.9-1.2,5.8-.5,11.6-1.3,17.4-1.5V26Z" style="fill:#dfe590"/><path d="M89.8,28.7c-8.3.5-16.6.5-25,1.3-13.2,1.2-26.3,3.1-39.5,3.9v4c4-.2,8.3-1.3,11.4-1.8,8.5-1.2,17.2.5,25.7-.2,15.4-1.4,30.6-4.1,46-5.4V27.2C102.2,27.4,96,28.3,89.8,28.7Z" style="fill:#dfe590"/><path d="M85.3,39.9h23.1V34.3c-9.8.7-19.7,1.6-28.7,5.2A21.2,21.2,0,0,0,85.3,39.9Z" style="fill:#dfe590"/><path d="M99,40.7c-4.3.1-8.5.2-12.7.1-2.6,0-5.8.4-8.2-.9a.4.4,0,0,1,0-.8c9.5-4.1,20-4.9,30.3-5.7v-2c-6.1.5-12.2,1.2-18.2,2C79.7,34.8,69,36.9,58.3,37c-5.3,0-10.6-.4-15.9-.3a61.3,61.3,0,0,0-9.5,1c-2.3.3-5,.8-7.6.9v2.5c4.9.5,9.8,1.1,14.7,1.2,9.1.4,18.2.6,27.3,1.4s18.1,1.5,27.3.7c3.8-.3,7.6-.7,11.3-1.3l2.5-.3V40.9Z" style="fill:#dfe590"/><path d="M97.9,45.3A140.9,140.9,0,0,1,69.6,45c-9.4-.9-18.9-1.1-28.4-1.5-5.3-.2-10.6-.8-15.9-1.4v5.4l6.1-.6a83.1,83.1,0,0,1,13.2.1c9.4.8,18.8,2,28.3,2s18.2-.6,27.2-.4c2.6,0,5.4.3,8.3.3V44.1C104.8,44.8,101.1,44.9,97.9,45.3Z" style="fill:#dfe590"/><path d="M94.8,59.6c-2.5,2.1-6.5,2.8-9.6,3.6-5.1,1.2-10,2.9-15.1,4.4h17A61.8,61.8,0,0,1,95,64.5c2.5-.9,6.6-2.2,4.6-5.5-.8-1.3-1.4-2.7-2.2-4s4-2.7,4.8-2.7l6.2-.4V50l-6.7-.3c-9.2-.2-18.4.4-27.5.4s-20.3-1.3-30.6-2a81.8,81.8,0,0,0-14,.1,31.3,31.3,0,0,1-4.3.4v1.2l2.9.2c3.4.2,6.7.6,10,1,7.3.7,14.5,1.1,21.8,1.4s15.3,1.1,22.9,2c3.3.4,6.9.1,10.1,1.3C94.4,56.3,96.7,58,94.8,59.6Z" style="fill:#dfe590"/><path d="M107.3,61.5a10,10,0,0,1,1.1-3.8V53l-6.2.4c-.2,0-4.2.8-4,1L99,56a32.3,32.3,0,0,1,2.2,4.1c.9,2.4-2.2,4-3.9,4.7s-5.3,1.8-7.8,2.8h13A8,8,0,0,0,107.3,61.5Z" style="fill:#dfe590"/><path d="M106.1,66.3a10.9,10.9,0,0,1-1.7,1.3h4v-7C108,62.6,107.8,64.8,106.1,66.3Z" style="fill:#dfe590"/><path d="M57.5,64.3l14-2.5c.9-.1,6.7-1.2,4.1-2.5a19.9,19.9,0,0,0-6.4-1.5C59,57,48.7,56.5,38.4,55.7l-13.1-.8v3.9a35.3,35.3,0,0,0,4.6.1c2.7,0,5.5,0,8.2-.2,4.7-.2,11-1.1,15,2,.2.2.4.5.1.8-3.9,4-10.8,3-15.9,3.3s-7.3,1.6-11,2.5l-1,.3h7.8l8.8-.7C47.2,66.3,52.3,65.2,57.5,64.3Z" style="fill:#dfe590"/><path d="M25.3,62.9v1.7a16.4,16.4,0,0,0,4.3-1.3A20.2,20.2,0,0,1,25.3,62.9Z" style="fill:#dfe590"/><g id="VC-14" data-name="VC"><path d="M72.8,35.4c0,3.7-2.7,6.8-6,6.8s-6-3.1-6-6.8,2.7-6.9,6-6.9S72.8,31.6,72.8,35.4Z" style="fill:#beef63"/><path d="M66.8,43.7c-4.1,0-7.5-3.8-7.5-8.3S62.7,27,66.8,27s7.5,3.8,7.5,8.4S70.9,43.7,66.8,43.7Zm0-13.7c-2.4,0-4.5,2.4-4.5,5.4s2.1,5.3,4.5,5.3,4.5-2.4,4.5-5.3S69.3,30,66.8,30Z" style="fill:#6c9433"/></g><path d="M74.3,38.5A7.5,7.5,0,0,1,66.8,46a7.4,7.4,0,0,1-7.4-7.5,7.5,7.5,0,0,1,7.4-7.6A7.6,7.6,0,0,1,74.3,38.5Z" style="fill:#1e5941"/><path d="M66.8,47.5a9.1,9.1,0,0,1,0-18.1,9.1,9.1,0,0,1,0,18.1Zm0-15.1a6.1,6.1,0,0,0,0,12.1,6.1,6.1,0,0,0,0-12.1Z" style="fill:#1a423a"/><g id="VC-15" data-name="VC"><path d="M74.3,40a7.4,7.4,0,0,1-7.5,7.3A7.3,7.3,0,1,1,74.3,40Z" style="fill:#beef63"/><path d="M66.8,48.8a8.8,8.8,0,1,1,9-8.8A8.8,8.8,0,0,1,66.8,48.8Zm0-14.5a5.8,5.8,0,1,0,0,11.5,5.8,5.8,0,1,0,0-11.5Z" style="fill:#6c9433"/></g><g style="opacity:0.5;mix-blend-mode:screen"><path d="M66.8,38a2,2,0,1,1-2-2A2,2,0,0,1,66.8,38Z" style="fill:#e0ffc4"/></g><g style="opacity:0.5;mix-blend-mode:screen"><path d="M63.2,40.4a.7.7,0,0,1-.6.7.7.7,0,1,1,0-1.4A.7.7,0,0,1,63.2,40.4Z" style="fill:#e0ffc4"/></g><path d="M27.4,57.7V27.2H62.9s-32-1.1-33.3,5.3S27.4,57.7,27.4,57.7Z" style="fill:#dfe590"/><polygon points="19.8 10.3 10 10.3 11.8 126.3 11.8 11.8 19.8 10.3" style="fill:#dfe590"/><path d="M128.4,14.7H5.3A3.7,3.7,0,0,1,1.5,11V8.3a.2.2,0,0,1,.2-.2H131.9a.2.2,0,0,1,.2.2V11A3.7,3.7,0,0,1,128.4,14.7Z" style="fill:#96b85c"/><path d="M128.4,16.2H5.3A5.2,5.2,0,0,1,0,11V8.4A1.8,1.8,0,0,1,1.7,6.6H131.9a1.7,1.7,0,0,1,1.7,1.8V11A5.2,5.2,0,0,1,128.4,16.2ZM3,9.6V11a2.2,2.2,0,0,0,2.3,2.2H128.4a2.2,2.2,0,0,0,2.2-2.2V9.6Z" style="fill:#2d5b1d"/><g id="VC-16" data-name="VC"><path d="M131.5,8.1H2.1c-.2,0-.3-.2-.2-.4l5-4.3a7.3,7.3,0,0,1,4.9-1.9h110a7.8,7.8,0,0,1,5,1.9l4.9,4.3C131.8,7.9,131.7,8.1,131.5,8.1Z" style="fill:#f5f79a"/></g><path d="M131.5,9.6H2.1A1.6,1.6,0,0,1,.5,8.5,1.6,1.6,0,0,1,1,6.6L5.9,2.3A8.6,8.6,0,0,1,11.8,0h110a9,9,0,0,1,6,2.3l4.9,4.3a1.7,1.7,0,0,1,.4,1.9A1.5,1.5,0,0,1,131.5,9.6Zm-126-3H128.2l-2.4-2.1a5.9,5.9,0,0,0-4-1.5H11.8a6,6,0,0,0-4,1.5Z" style="fill:#43561f"/></g></g></g></g></g></svg>