<svg xmlns="http://www.w3.org/2000/svg" width="87.2" height="85.6" viewBox="0 0 87.2 85.6"><g id="Layer_2" data-name="Layer 2"><g id="Layer_3" data-name="Layer 3"><g id="dog_food_2" data-name="dog_food 2"><ellipse cx="43.6" cy="71.6" rx="37.8" ry="11.2" style="fill:#9be3bb"/><ellipse cx="43.6" cy="70.4" rx="41.2" ry="11.4" style="fill:#f3ebfc"/><ellipse cx="43.6" cy="69.3" rx="41.2" ry="11.4" style="fill:#cbf4db"/><ellipse cx="43.6" cy="70.5" rx="30.6" ry="7.9" style="fill:#9be3bb"/><path d="M43.6,58.2c22.4,0,40.6,5,40.6,11.2v1c0,2.7-3.5,5.2-9.3,7.2s-18.1,5-31.3,5-24.7-2-31.3-5S3,73.1,3,70.4v-1c0-6.2,18.2-11.2,40.6-11.2m0-3C22.6,55.2,0,59.6,0,69.4v1c0,4.1,3.8,7.5,11.2,10s19.4,5.2,32.4,5.2S68.8,83.7,76,80.4s11.2-5.9,11.2-10v-1c0-9.8-22.6-14.2-43.6-14.2Z" style="fill:#72b75b"/><path d="M27.9,77.7a1.5,1.5,0,0,1-1.1-.4L14.9,67.4a1.6,1.6,0,0,1-.4-2c.3-.4,6.6-10.5,13-17.1,3.9-4,6.7-8.4,9.5-12.6s3.4-5.2,5.3-7.6,5.3-6.2,7-8a23,23,0,0,0,2.3-2.5c.5-.6,1.3-1.9,2.4-3.4,4-5.8,7.7-11.1,9.9-12.5l.8-.2a1.6,1.6,0,0,1,.9.3L78.3,12.4a1.7,1.7,0,0,1,.6,1,1.5,1.5,0,0,1-.4,1.1c-.4.5-9.2,11.1-12.6,14.7s-5,6.9-7.8,11.5L54.8,46a41.6,41.6,0,0,1-7.1,7.9c-2.7,2.5-5.2,4.9-6.9,7.9a97.5,97.5,0,0,1-7.4,10.5c-4.3,5.4-4.8,5.4-5.5,5.4Z" style="fill:#af7553"/><path d="M64.7,3,66,4.1l7.9,6.6,3.5,2.8s-9.2,11-12.6,14.7-7.3,10.7-11.3,17S43.1,54.9,39.5,61,28.3,76.2,27.9,76.2h0l-3.3-2.7L19.2,69l-3.4-2.8s6.4-10.3,12.8-16.9S38.7,35.1,43.5,29.1s7.6-8.5,9.3-10.6S61.9,4.7,64.7,3m0-3a3,3,0,0,0-1.6.5c-2.2,1.3-5.2,5.4-10.4,12.9l-2.2,3.2-2.3,2.5c-1.7,1.8-4,4.2-7.1,8.1a87,87,0,0,0-5.3,7.7C33,39,30.2,43.4,26.4,47.2c-6.5,6.7-12.9,17-13.1,17.4a2.9,2.9,0,0,0,.6,3.9l3.4,2.8,5.4,4.5,3.1,2.6a3,3,0,0,0,2.1.8c1.3,0,1.9,0,6.7-6a98.9,98.9,0,0,0,7.5-10.6c1.6-2.9,4-5.2,6.6-7.6A38.6,38.6,0,0,0,56,46.8c1.2-1.7,2.3-3.6,3.4-5.4,2.7-4.5,5.3-8.8,7.6-11.2S79.3,15.9,79.7,15.5a3.4,3.4,0,0,0,.7-2.2,3.3,3.3,0,0,0-1.1-2.1L75.8,8.4,67.9,1.8,66.6.7A3,3,0,0,0,64.7,0Z" style="fill:#75411a"/><path d="M54.1,35.2C52.6,39,45.3,48.7,41.2,52.6S28.5,68.1,24.6,73.5l3.3,2.7c-.1.6,7.2-7.8,11.6-15.2s10.1-9.7,14-15.8,7.9-13.4,11.3-17S77.4,13.5,77.4,13.5l-3.5-2.8a63.7,63.7,0,0,1-7.5,8.1C62.3,22.3,55.5,31.3,54.1,35.2Z" style="fill:#924f28"/><path d="M43.5,29.1c-4.8,6-8.5,13.7-14.9,20.2S15.8,66.2,15.8,66.2L19.2,69c1.9-2.3,4.4-5.5,6.6-8.8,4.2-6.2,5.3-8.8,9-12.8s5-7.9,9.2-14.1a93.7,93.7,0,0,1,11.4-14C58.1,16.5,62.5,8.9,66,4.1L64.7,3C61.9,4.7,54.5,16.4,52.8,18.5S48.2,23,43.5,29.1Z" style="fill:#924f28"/><path d="M55.4,19.3A93.7,93.7,0,0,0,44,33.3c-4.2,6.2-5.6,10.2-9.2,14.1S30,54,25.8,60.2c-2.2,3.3-4.7,6.5-6.6,8.8l5.4,4.5c3.9-5.4,13.3-17.8,16.6-20.9S52.6,39,54.1,35.2s8.2-12.9,12.3-16.4a63.7,63.7,0,0,0,7.5-8.1L66,4.1C62.5,8.9,58.1,16.5,55.4,19.3Z" style="fill:#af7553"/></g></g></g></svg>