<svg xmlns="http://www.w3.org/2000/svg" width="86.8" height="73.3" viewBox="0 0 86.8 73.3"><g id="Layer_2" data-name="Layer 2"><g id="Layer_3" data-name="Layer 3"><g id="dog_food_3" data-name="dog_food 3"><path d="M78.7,60.3c-7.2,3.7-20.2,6.3-35.2,6.5-23,.2-41.8-5.4-42-12.6l.2,6.2S7,73.4,47.3,71.6c17.2-.7,26.7-3.3,31.9-5.8l-.5-5.5Z" style="fill:#e57225"/><path d="M85.3,60.4l-.5-7.7h0v.5c.1,2.6-2.1,4.9-6.1,7h0l.5,5.5C84.8,63.1,85.3,60.4,85.3,60.4Z" style="fill:#ff8d3d"/><path d="M84.8,52.7h0v.5c.1,2.6-2.1,4.9-6.1,7-7.2,3.7-20.2,6.3-35.2,6.5-23,.2-41.8-5.4-42-12.6l.2,6.2S7,73.4,47.3,71.6c17.2-.7,26.7-3.3,31.9-5.8s6.1-5.4,6.1-5.4Z" style="fill:none;stroke:#e57225;stroke-linecap:round;stroke-linejoin:round;stroke-width:3px"/><path d="M42,55.1c2.9,1.1,4.1-2.5,4.1-2.5l30-1.4a4.5,4.5,0,0,0-1.4,2.5l10.1-.9c-1.2-6.9-19.6-12.2-42-12a106.9,106.9,0,0,0-27.6,3.6l24.5,7.4S39.1,54,42,55.1Z" style="fill:#ffaa5a"/><path d="M78.7,60.3c4-2.1,6.2-4.4,6.1-7v-.5l-10.1.9C74.4,55.4,75,57.7,78.7,60.3Z" style="fill:#ffaa5a"/><path d="M74.7,53.7a4.5,4.5,0,0,1,1.4-2.5l-30,1.4s-1.2,3.6-4.1,2.5-2.3-3.3-2.3-3.3L15.2,44.4c-8.5,2.5-13.8,6-13.7,9.8.2,7.2,19,12.8,42,12.6,15-.2,28-2.8,35.2-6.5C75,57.7,74.4,55.4,74.7,53.7Z" style="fill:#ff8d3d"/><path d="M84.8,52.8c-1.2-6.9-19.6-12.2-42-12a106.9,106.9,0,0,0-27.6,3.6c-8.5,2.5-13.8,6-13.7,9.8.2,7.2,19,12.8,42,12.6,15-.2,28-2.8,35.2-6.5,4-2.1,6.2-4.4,6.1-7Z" style="fill:none;stroke:#e57225;stroke-miterlimit:10;stroke-width:3px"/><path d="M76.2,20.2a8.7,8.7,0,0,0-4-5.9c-3.8-2.2-12-4.7-28.8-4.6s-25.2,2.5-29,4.7a8.9,8.9,0,0,0-3.8,5.8L5,47.4A4,4,0,0,0,7.3,52c9.6,4.5,21.5,7.1,36.1,6.6,18.5-.5,22.6-.8,36.2-6.6a4,4,0,0,0,2.2-4.6Z" style="fill:#5576b4"/><ellipse cx="43.3" cy="19.2" rx="30.3" ry="7.7" style="fill:#3f434c"/><path d="M69.2,23.2s-1.4-2.8-2.5-3a6.4,6.4,0,0,0-2.8.7,32.1,32.1,0,0,0-3.3-6.3,2.7,2.7,0,0,0,.5-1.6,45.9,45.9,0,0,0-3.3-4.4,2.4,2.4,0,0,0-1.5-.1A24.2,24.2,0,0,0,56,6c-.1-1.3-1.4-1.6-3.3-2s-2.8,1.5-3.5,2.5h0c-.2-.8-.4-1.6-1-1.8a23.6,23.6,0,0,0-5-.6,2.9,2.9,0,0,0-2.3,1.3L39,3.5c-.4-.6-2.6-.6-3.4-.2s-.7,1.4-.8,2.7c-1.7-.8-3.8-1.6-5-1.2s-4.6,4-4.3,4.6A5.7,5.7,0,0,0,26.8,11a29.9,29.9,0,0,0-2.6,2.2c-1.6-.3-3.9-.6-5.1.6s-1.1,3.4-1.2,4.1a8.5,8.5,0,0,0,.1,2.7,18,18,0,0,1-1.6,2.1c.8.4,7.1,3.9,26.9,4.1a86.4,86.4,0,0,0,20.6-2h0A29.3,29.3,0,0,0,69.2,23.2Z" style="fill:#8f603f"/><path d="M36.3,8.9s-1.6,2.1-1.2,2.6,5.2,2.1,5.8,1.7,1.9-2.7,1.4-3.3S37.6,7.6,36.3,8.9Z" style="fill:#a36e4a"/><path d="M45.4,15a.8.8,0,0,0-1.1.1c-1,.8-2.7,2.6-2.1,3.5s4.3,2.9,4.9,2.9,2.2-3.8,1.9-4.2A25.6,25.6,0,0,0,45.4,15Z" style="fill:#a36e4a"/><path d="M32.5,15.6a.8.8,0,0,0-.8.2c-.9.7-2.8,2.7-2.2,4A5.4,5.4,0,0,0,33,22.3c.7.1,2.4-3.4,2.6-4.5S33.5,16,32.5,15.6Z" style="fill:#a36e4a"/><path d="M49.4,10.1a.8.8,0,0,0-.8-.2c-.6.2-1.9.7-1.8,1.2s1.6,4,2.4,3.7A2.9,2.9,0,0,0,51,12.7,13.1,13.1,0,0,0,49.4,10.1Z" style="fill:#a36e4a"/><path d="M33,50.2s-.5-4.2,2.3-5.1,5.2-2,6-2.7,3.8-.8,4.6.5.6,3.1,1.6,5.7,1.4,4.3-1.2,5.4-4.9-3.1-7.1-3.2S34.6,52.4,33,50.2Z" style="fill:#f1f2f2"/><path d="M50.3,47.5a2.2,2.2,0,0,1-2-2.6,1,1,0,0,1,.5-.8c1-.7,3.2-2.6,4.7-1S52.7,47.7,50.3,47.5Z" style="fill:#f1f2f2"/><path d="M42.2,39.5a2.3,2.3,0,0,1-3.4-.6,1.4,1.4,0,0,1-.1-.9c.3-1.1.7-4.1,2.9-3.9S44,38,42.2,39.5Z" style="fill:#f1f2f2"/><path d="M37.1,41.7a2.1,2.1,0,0,1-3.1.9,1.6,1.6,0,0,1-.6-.8c-.2-1.1-1.1-3.8.9-4.5S38,39.6,37.1,41.7Z" style="fill:#f1f2f2"/><path d="M47.4,41.3A2.2,2.2,0,0,1,45.2,40c-.7-1.5,2.3-5.4,4.3-3.6S48.6,41.2,47.4,41.3Z" style="fill:#f1f2f2"/><path d="M37.3,3c.8,0,1.5.1,1.7.5l1.9,1.9A3.4,3.4,0,0,1,43.1,4h.1a23.6,23.6,0,0,1,5,.6c.6.2.8,1,1,1.8h0c.7-.9,2.1-2.5,3.3-2.5h.2c1.9.4,3.2.7,3.3,2a24.2,24.2,0,0,1,.3,2.5h.8l.7.2a15,15,0,0,1,1.6,2c6.5.9,10.5,2.4,12.8,3.7a8.7,8.7,0,0,1,4,5.9l5.6,27.2A4,4,0,0,1,79.6,52C66,57.8,61.9,58.1,43.4,58.6H40.2c-13.2,0-24-2.5-32.9-6.7A4,4,0,0,1,5,47.4l5.6-27.2a8.9,8.9,0,0,1,3.8-5.8c2.3-1.3,6-2.7,12.1-3.7a7.6,7.6,0,0,1-1-1.3c-.3-.6,2.3-4,4.3-4.6h.7A13.1,13.1,0,0,1,34.8,6c.1-1.3.4-2.6.8-2.7A4,4,0,0,1,37.3,3m0-3h0a8.8,8.8,0,0,0-2.9.5A3.1,3.1,0,0,0,32.7,2l-2.2-.3-1.6.2c-2.6.9-5.3,4-6.1,5.8a1.9,1.9,0,0,0-.2.7,33,33,0,0,0-9.7,3.5,11.4,11.4,0,0,0-5.2,7.7L2.1,46.8A7,7,0,0,0,6,54.7c9.9,4.6,21.4,7,34.2,7h3.3c18.7-.5,23.2-.9,37.3-6.8a7.1,7.1,0,0,0,4-8L79.2,19.6a12.1,12.1,0,0,0-5.5-7.9A40.8,40.8,0,0,0,61.1,7.8L59.6,6.3,59,5.8h0c-.4-3.7-4.2-4.3-5.8-4.6h-.7a6,6,0,0,0-3,1h-.3a26.7,26.7,0,0,0-5.9-.8h-.2a6.5,6.5,0,0,0-1.9.4A5,5,0,0,0,37.3,0Z" style="fill:#335394"/></g></g></g></svg>