<svg xmlns="http://www.w3.org/2000/svg" xmlns:xlink="http://www.w3.org/1999/xlink" width="85.3" height="85.4" viewBox="0 0 85.3 85.4"><defs><clipPath id="clip-path" transform="translate(0.1)"><path d="M75.3,13.8A7.2,7.2,0,0,1,71.6,12a8,8,0,0,1-.9-1.4c-1-2-.4-3.2-2.7-5.3S59.9,1.2,55.5,6.6s.9,7.8-.9,12.5c-.6,1.9-2.3,4.1-4.1,6.2h0c-1.5,1.6-3,3.2-4.2,4.3l-2.1,2L28.7,47.4l-1.3,1.3h0l-2.1,2c-1.9,1.7-4.1,3.5-5.3,3.8S9,50.3,5.1,55.6,3.9,63.5,6,65.8l1.4,1.1c2.2,1.4,5.3,2,5.8,2.9a4.7,4.7,0,0,1,.7,2.5c.1,1.8-.2,3.6,1.1,5.3s3.6,4,6.5,4.6a6.2,6.2,0,0,0,4.7-.8c5-2.7,4.7-6.2,4.5-7.7s-1-5.4-.3-6.6,3-4.5,8.4-10.2c2.1-2.2,4.5-4.6,7.5-7.4l7.5-7.2C61,35.3,66.5,29.7,68,29.8s7.3.4,9.3-.6a9.3,9.3,0,0,0,2.4-1.5h0c1.8-1.6,3.3-4.3,2-8.5S77.8,14.5,75.3,13.8Z" style="fill:none"/></clipPath></defs><g id="Layer_2" data-name="Layer 2"><g id="Layer_3" data-name="Layer 3"><g id="dog_food_1" data-name="dog_food 1"><path d="M22.9,83.9l-1.7-.2c-3.5-.7-6.2-3.6-7.4-5.2a8.8,8.8,0,0,1-1.4-5.1v-1a3.9,3.9,0,0,0-.4-1.7l-1.8-.8a24.1,24.1,0,0,1-3.6-1.8,5.9,5.9,0,0,1-1.7-1.3l-.4-.4c-2.1-2.2-5.2-5.5-.6-11.7a8.1,8.1,0,0,1,6.8-3.1,23.6,23.6,0,0,1,6.1,1,23.3,23.3,0,0,0,2.7.5h.2a24.4,24.4,0,0,0,4.6-3.5l2.1-2h0l1.2-1.2L43.1,30.6a.1.1,0,0,1,.1-.1l2-1.9c1.1-1,2.6-2.6,4.1-4.3.1,0,.1,0,.1-.1,2.5-2.9,3.5-4.6,3.8-5.6a8.9,8.9,0,0,0-.1-5.1c-.5-2.4-1.1-5.1,1.2-7.9a10.1,10.1,0,0,1,7.9-4.1,10.5,10.5,0,0,1,6.9,2.7,8.2,8.2,0,0,1,2.4,4.1A4.3,4.3,0,0,0,72,9.9a7.6,7.6,0,0,0,.8,1.1c.5.7,1.5,1,2.9,1.4h.1c2.5.7,6,1.6,7.4,6.3s-.5,8.3-2.4,10h-.1a10.7,10.7,0,0,1-2.8,1.8,15.2,15.2,0,0,1-5.8.8h-4c-1.4.5-6.7,5.6-11.3,10.2l-1.9,1.9-7.6,7.2c-2.7,2.6-5.2,5-7.4,7.3-5.2,5.5-7.7,9-8.2,9.9s.2,3.5.3,4.5a7.4,7.4,0,0,1,.2,1.2c.2,1.5.7,6-5.2,9.3A9,9,0,0,1,22.9,83.9Z" transform="translate(0.1)" style="fill:#fff0c5"/><path d="M62.2,3A8.7,8.7,0,0,1,68,5.3c2.3,2.1,1.7,3.3,2.7,5.3a8,8,0,0,0,.9,1.4,7.2,7.2,0,0,0,3.7,1.8c2.5.7,5.3,1.4,6.4,5.4s-.2,6.9-2,8.5h0a9.3,9.3,0,0,1-2.4,1.5,14.8,14.8,0,0,1-5.2.7H68c-1.5,0-7,5.5-14.2,12.5l-7.5,7.2c-3,2.8-5.4,5.2-7.5,7.4-5.4,5.7-7.9,9.3-8.4,10.2s.1,5.1.3,6.6.5,5-4.5,7.7a6.3,6.3,0,0,1-3.3,1l-1.4-.2c-2.9-.6-5.2-2.9-6.5-4.6s-1-3.5-1.1-5.3a4.7,4.7,0,0,0-.7-2.5c-.5-.9-3.6-1.5-5.8-2.9L6,65.8c-2.1-2.3-5-4.7-.9-10.2a6.5,6.5,0,0,1,5.6-2.5c3.4,0,7,1.5,8.8,1.5H20c1.2-.3,3.4-2.1,5.3-3.8l2.1-2h0l1.3-1.3L44.2,31.6l2.1-2c1.2-1.1,2.7-2.7,4.2-4.3h0c1.8-2.1,3.5-4.3,4.1-6.2,1.8-4.7-2.4-8.5.9-12.5A8.6,8.6,0,0,1,62.2,3m0-3c-2.3,0-5.8.8-9,4.7s-2.1,6.7-1.5,9.2.6,3,.1,4.2-1,2.3-3.5,5.1a.1.1,0,0,1-.1.1c-1.5,1.7-3,3.2-4,4.2l-2,1.9H42L26.5,45.3a6.6,6.6,0,0,1-1.1,1.2h-.1c-.6.7-1.4,1.3-2,2a25.8,25.8,0,0,1-4,3.1l-2.2-.5a29.6,29.6,0,0,0-6.4-1,9.5,9.5,0,0,0-8,3.7c-5.4,7.2-1.4,11.4.7,13.6l.4.4a8.3,8.3,0,0,0,2,1.6,27.8,27.8,0,0,0,3.9,1.9l1.1.4a1.9,1.9,0,0,1,.1.8v1a9.8,9.8,0,0,0,1.7,5.9c1.4,1.8,4.3,4.9,8.3,5.8l2,.2a10.8,10.8,0,0,0,4.8-1.3c4.5-2.5,6.6-6.1,6-10.7a6.9,6.9,0,0,0-.2-1.3,24,24,0,0,1-.3-3.7c.6-1.1,3.1-4.4,7.8-9.4,2.2-2.3,4.6-4.8,7.3-7.3l7.6-7.3,1.9-1.9c4.3-4.1,9-8.7,10.6-9.7h3.7a16.9,16.9,0,0,0,6.5-.9,14.1,14.1,0,0,0,3.1-2.1h.1C85,27,86,22.9,84.6,18.3s-5.7-6.6-8.4-7.3h-.1a6.8,6.8,0,0,1-2.2-.8,4.1,4.1,0,0,1-.5-.9A4.3,4.3,0,0,1,72.9,8a8.6,8.6,0,0,0-2.8-4.9A11.7,11.7,0,0,0,62.2,0Z" transform="translate(0.1)" style="fill:#ddab88"/><g style="clip-path:url(#clip-path)"><path d="M75.3,13.8A7.2,7.2,0,0,1,71.6,12a8,8,0,0,1-.9-1.4c-1-2-.4-3.2-2.7-5.3S59.9,1.2,55.5,6.6s.9,7.8-.9,12.5c-.6,1.9-2.3,4.1-4.1,6.2h0c-1.5,1.6-3,3.2-4.2,4.3l-2.1,2L28.7,47.4l-1.3,1.3h0l-2.1,2c-1.9,1.7-4.1,3.5-5.3,3.8S9,50.3,5.1,55.6,3.9,63.5,6,65.8l1.4,1.1c2.2,1.4,5.3,2,5.8,2.9a4.7,4.7,0,0,1,.7,2.5c.1,1.8-.2,3.6,1.1,5.3s3.6,4,6.5,4.6a6.2,6.2,0,0,0,4.7-.8c5-2.7,4.7-6.2,4.5-7.7s-1-5.4-.3-6.6,3-4.5,8.4-10.2c2.1-2.2,4.5-4.6,7.5-7.4l7.5-7.2C61,35.3,66.5,29.7,68,29.8s7.3.4,9.3-.6a9.3,9.3,0,0,0,2.4-1.5h0c1.8-1.6,3.3-4.3,2-8.5S77.8,14.5,75.3,13.8Z" transform="translate(0.1)" style="fill:#e1cc8c"/><path d="M69.8,12.9a6.5,6.5,0,0,1-3.5-1.8,7.7,7.7,0,0,1-.9-1.3c-1-1.9-.4-3.1-2.6-5.1S54.9.7,50.7,5.9s.8,7.6-.9,12.2a20.5,20.5,0,0,1-4,5.9h0c-1.4,1.6-2.9,3.1-4,4.2a25.2,25.2,0,0,1-2.1,1.9l-15,15.3-1.2,1.2h0l-2.1,2c-1.8,1.6-3.9,3.4-5,3.7s-10.8-4.1-14.5,1S.7,61,2.7,63.2l1.4,1.1c2.2,1.3,5.2,1.9,5.7,2.8a5.3,5.3,0,0,1,.6,2.4c.1,1.7-.2,3.5,1.1,5.1s3.5,3.9,6.3,4.5a7.1,7.1,0,0,0,4.6-.7c4.8-2.7,4.5-6,4.3-7.5s-1-5.3-.3-6.5a69.4,69.4,0,0,1,8.2-9.8c1.9-2.1,4.3-4.5,7.1-7.1l7.4-7.1C56,33.7,61.3,28.3,62.8,28.3s7,.4,9-.5a11.1,11.1,0,0,0,2.3-1.5h0c1.7-1.5,3.2-4.1,2-8.2S72.2,13.5,69.8,12.9Z" transform="translate(0.1)" style="fill:#fff0c5"/></g></g></g></g></svg>