<svg xmlns="http://www.w3.org/2000/svg" xmlns:xlink="http://www.w3.org/1999/xlink" width="86.8" height="66.6" viewBox="0 0 86.8 66.6"><defs><clipPath id="clip-path"><ellipse cx="43.3" cy="12.5" rx="30.3" ry="7.7" style="fill:none"/></clipPath></defs><g id="Layer_2" data-name="Layer 2"><g id="Layer_3" data-name="Layer 3"><g id="dog_food_4" data-name="dog_food 4"><path d="M78.7,53.6c-7.2,3.8-20.2,6.4-35.2,6.5-23,.3-41.8-5.4-42-12.5l.2,6.1S7,66.8,47.3,65c17.2-.8,26.7-3.4,31.9-5.9l-.5-5.5Z" style="fill:#e57225"/><path d="M85.3,53.8l-.5-7.7h0v.6c.1,2.5-2.1,4.9-6.1,6.9h0l.5,5.5C84.8,56.4,85.3,53.8,85.3,53.8Z" style="fill:#ff8d3d"/><path d="M84.8,46.1h0v.6c.1,2.5-2.1,4.9-6.1,6.9-7.2,3.8-20.2,6.4-35.2,6.5-23,.3-41.8-5.4-42-12.5l.2,6.1S7,66.8,47.3,65c17.2-.8,26.7-3.4,31.9-5.9s6.1-5.3,6.1-5.3Z" style="fill:none;stroke:#e57225;stroke-linecap:round;stroke-linejoin:round;stroke-width:3px"/><path d="M42,48.4c2.9,1.1,4.1-2.5,4.1-2.5l30-1.4A5.1,5.1,0,0,0,74.7,47l10.1-.9c-1.2-6.9-19.6-12.2-42-12-10.6.2-20.3,1.5-27.6,3.6l24.5,7.4S39.1,47.3,42,48.4Z" style="fill:#ffaa5a"/><path d="M78.7,53.6c4-2,6.2-4.4,6.1-6.9v-.6L74.7,47C74.4,48.7,75,51,78.7,53.6Z" style="fill:#ffaa5a"/><path d="M74.7,47a5.1,5.1,0,0,1,1.4-2.5l-30,1.4s-1.2,3.6-4.1,2.5-2.3-3.3-2.3-3.3L15.2,37.7c-8.5,2.5-13.8,6-13.7,9.9.2,7.1,19,12.8,42,12.5,15-.1,28-2.7,35.2-6.5C75,51,74.4,48.7,74.7,47Z" style="fill:#ff8d3d"/><path d="M84.8,46.1c-1.2-6.9-19.6-12.2-42-12-10.6.2-20.3,1.5-27.6,3.6s-13.8,6-13.7,9.9c.2,7.1,19,12.8,42,12.5,15-.1,28-2.7,35.2-6.5,4-2,6.2-4.4,6.1-6.9Z" style="fill:none;stroke:#e57225;stroke-miterlimit:10;stroke-width:3px"/><path d="M76.2,13.6a8.5,8.5,0,0,0-4-5.9C68.4,5.5,60.2,2.9,43.4,3s-25.2,2.6-29,4.8a8.4,8.4,0,0,0-3.8,5.8L5,40.7a4,4,0,0,0,2.3,4.6c9.6,4.6,21.5,7.1,36.1,6.7,18.5-.6,22.6-.9,36.2-6.7a3.9,3.9,0,0,0,2.2-4.6Z" style="fill:#6c9433"/><g style="clip-path:url(#clip-path)"><ellipse cx="43.3" cy="12.5" rx="30.3" ry="7.7" style="fill:#5576b4"/><ellipse cx="43.3" cy="16.7" rx="30.3" ry="7.7" style="fill:#98d9e4;stroke:#5576b4;stroke-miterlimit:10;stroke-width:2px"/></g><path d="M53.8,43.6s.6-4.2-2.2-5.2-5.3-1.9-6.1-2.6-3.8-.8-4.5.4-.7,3.1-1.7,5.8-1.4,4.3,1.3,5.3,4.8-3.1,7-3.1S52.2,45.8,53.8,43.6Z" style="fill:#f1f2f2"/><path d="M36.6,40.9a2.2,2.2,0,0,0,2-2.6,2.6,2.6,0,0,0-.5-.9c-1-.6-3.3-2.5-4.8-.9S34.1,41.1,36.6,40.9Z" style="fill:#f1f2f2"/><path d="M44.7,32.9a2.2,2.2,0,0,0,3.3-.6,1.4,1.4,0,0,0,.1-.9c-.2-1.2-.6-4.1-2.8-3.9S42.8,31.4,44.7,32.9Z" style="fill:#f1f2f2"/><path d="M49.7,35.1a2.2,2.2,0,0,0,3.2.8,1.8,1.8,0,0,0,.5-.7c.2-1.1,1.1-3.8-.9-4.6S48.8,33,49.7,35.1Z" style="fill:#f1f2f2"/><path d="M39.4,34.7a2.2,2.2,0,0,0,2.2-1.3c.8-1.5-2.3-5.4-4.3-3.6S38.3,34.5,39.4,34.7Z" style="fill:#f1f2f2"/><path d="M42.6,3h1.7C60.5,3,68.4,5.5,72.2,7.7a8.5,8.5,0,0,1,4,5.9l5.6,27.1a3.9,3.9,0,0,1-2.2,4.6C66,51.1,61.9,51.4,43.4,52H40.2c-13.2,0-24-2.5-32.9-6.7A4,4,0,0,1,5,40.7l5.6-27.1a8.4,8.4,0,0,1,3.8-5.8C18.2,5.6,26.1,3,42.6,3m1.7-3H42.6C28.8,0,18.8,1.7,12.9,5.2A11.6,11.6,0,0,0,7.7,13L2.1,40.1a7.1,7.1,0,0,0,3.9,8C15.9,52.7,27.4,55,40.2,55h3.3c18.7-.6,23.2-.9,37.3-6.9a7.1,7.1,0,0,0,4-8L79.2,13a11.6,11.6,0,0,0-5.5-7.9C67.8,1.7,57.9,0,44.3,0Z" style="fill:#507125"/></g></g></g></svg>