<svg xmlns="http://www.w3.org/2000/svg" viewBox="0 0 114.5 55.8"><g id="Layer_2" data-name="Layer 2"><g id="Layer_1-2" data-name="Layer 1"><path d="M87.2,34a2,2,0,0,0,1.9-2V2a2,2,0,0,0-1.9-2,2,2,0,0,0-2,2V32A2,2,0,0,0,87.2,34Z" style="fill:#2b2627"/><path d="M29.4,34a1.9,1.9,0,0,0,1.9-2V2a1.9,1.9,0,0,0-1.9-2,2,2,0,0,0-2,2V32A2,2,0,0,0,29.4,34Z" style="fill:#2b2627"/><rect x="7.8" y="11.2" width="98" height="7.23" rx="1" style="fill:#d8a960"/><path d="M104.8,12.2v5.3H8.8V12.2h96m0-2H8.8a2,2,0,0,0-2,2v5.3a2,2,0,0,0,2,2h96a2,2,0,0,0,2-2V12.2a2,2,0,0,0-2-2Z" style="fill:#a8662f"/><path d="M14.1,26.3a6.3,6.3,0,0,1-6.3-6.2,1,1,0,0,1,1-1h96a1,1,0,0,1,1,1,6.2,6.2,0,0,1-6.2,6.2Z" style="fill:#d8a960"/><path d="M104.8,20.1h0m0,0a5.2,5.2,0,0,1-5.2,5.2H14.1a5.2,5.2,0,0,1-5.3-5.2h96m0-2H8.8a2,2,0,0,0-2,2,7.3,7.3,0,0,0,7.3,7.2H99.6a7.3,7.3,0,0,0,7.2-7.1h0a2,2,0,0,0-2-2Zm0,4Z" style="fill:#a8662f"/><path d="M8.8,9.8a1,1,0,0,1-1-1,6.3,6.3,0,0,1,6.3-6.2H99.6a6.2,6.2,0,0,1,6.2,6.2,1,1,0,0,1-1,1Z" style="fill:#d8a960"/><path d="M99.6,3.6a5.2,5.2,0,0,1,5.2,5.2H8.8a5.2,5.2,0,0,1,5.3-5.2H99.6m0-2H14.1A7.3,7.3,0,0,0,6.8,8.8a2,2,0,0,0,2,2h96a2,2,0,0,0,2-2,7.2,7.2,0,0,0-7.2-7.2Z" style="fill:#a8662f"/><path d="M86.7,4.7a.5.5,0,0,0,.5.5.5.5,0,0,0,.5-.5.5.5,0,0,0-.5-.5A.5.5,0,0,0,86.7,4.7Z" style="fill:#fff"/><path d="M86.7,7.9a.5.5,0,0,0,.5.5.6.6,0,0,0,.5-.5.6.6,0,0,0-.5-.6A.6.6,0,0,0,86.7,7.9Z" style="fill:#fff"/><path d="M86.7,13.3a.5.5,0,0,0,.5.5.6.6,0,0,0,.5-.5.6.6,0,0,0-.5-.6A.6.6,0,0,0,86.7,13.3Z" style="fill:#fff"/><path d="M86.7,16.4a.6.6,0,0,0,.5.6.6.6,0,0,0,0-1.1A.5.5,0,0,0,86.7,16.4Z" style="fill:#fff"/><path d="M86.7,21.1a.5.5,0,0,0,.5.5.5.5,0,0,0,0-1A.5.5,0,0,0,86.7,21.1Z" style="fill:#fff"/><path d="M86.7,24.3a.5.5,0,0,0,.5.5.6.6,0,0,0,0-1.1A.6.6,0,0,0,86.7,24.3Z" style="fill:#fff"/><path d="M28.9,4.7a.5.5,0,1,0,1,0,.5.5,0,0,0-1,0Z" style="fill:#fff"/><path d="M28.9,7.9a.5.5,0,0,0,1,0,.5.5,0,1,0-1,0Z" style="fill:#fff"/><path d="M28.9,13.3a.5.5,0,1,0,1,0,.5.5,0,1,0-1,0Z" style="fill:#fff"/><path d="M28.9,16.4a.5.5,0,1,0,1,0,.5.5,0,1,0-1,0Z" style="fill:#fff"/><path d="M28.9,21.1a.5.5,0,1,0,.5-.5A.5.5,0,0,0,28.9,21.1Z" style="fill:#fff"/><path d="M28.9,24.3a.5.5,0,1,0,1,0,.5.5,0,1,0-1,0Z" style="fill:#fff"/><path d="M100.7,55.8h0a2,2,0,0,0,1.9-1.6l2.2-17.4H98.9V54A1.8,1.8,0,0,0,100.7,55.8Z" style="fill:#463e25"/><path d="M87.4,51h0A1.5,1.5,0,0,0,89,49.7L91.7,32H85.8V49.4A1.6,1.6,0,0,0,87.4,51Z" style="fill:#534849"/><path d="M29.5,51h0a1.6,1.6,0,0,0,1.6-1.6V33.6A1.6,1.6,0,0,0,29.5,32H27.1a1.6,1.6,0,0,0-1.6,1.8L28,49.7A1.5,1.5,0,0,0,29.5,51Z" style="fill:#534849"/><path d="M14.6,55.8h0a1.6,1.6,0,0,0,1.6-1.6V36.8H10.3l2.8,17.7A1.5,1.5,0,0,0,14.6,55.8Z" style="fill:#463e25"/><path d="M3.4,37.8A2.4,2.4,0,0,1,1,35.4a6.5,6.5,0,0,1,6.5-6.5H107a6.5,6.5,0,0,1,6.5,6.5,2.5,2.5,0,0,1-2.5,2.4Z" style="fill:#d8a960"/><path d="M107,29.9a5.5,5.5,0,0,1,5.5,5.5,1.5,1.5,0,0,1-1.5,1.4H3.4A1.4,1.4,0,0,1,2,35.4a5.5,5.5,0,0,1,5.5-5.5H107m0-2H7.5A7.5,7.5,0,0,0,0,35.4a3.4,3.4,0,0,0,3.4,3.4H111a3.5,3.5,0,0,0,3.5-3.4,7.5,7.5,0,0,0-7.5-7.5Z" style="fill:#a8662f"/></g></g></svg>