<svg xmlns="http://www.w3.org/2000/svg" viewBox="0 0 68.7 168.7"><g id="Layer_2" data-name="Layer 2"><g id="Layer_1-2" data-name="Layer 1"><path d="M67.7,28.8h0a2.4,2.4,0,0,0-.9-2.1,6,6,0,0,0-2.2-.9h.3a14.6,14.6,0,0,1-2-.5l-2.8-.5-5.6-.7-9-.5-5.8-.2H29.8l-6.1.2c-2.2.1-4.4.2-6.6.5H15.9a61.8,61.8,0,0,0-6.2.7,25.1,25.1,0,0,0-4.5.8l-2.1.7-.5.2-.3.2H1.9A2,2,0,0,0,1,28.5v4a1.9,1.9,0,0,0,.9,1.6h.2c0,.1.1.1.1.2h.3V46.2c0,8-.1,25.5-.1,33.5V88H3.9V82.7C4,76.5,4,60.8,4,54.6s-.1-12.9-.1-19.4l1.1.4a31.7,31.7,0,0,0,6.6,1.6h.6c-.1,3-.1,5.9,0,8.9,0,8-.1,16-.1,23.9v8.4h1.5V73.1c.1-6.2.1-12.3,0-18.5v-17l4.2.6c2.4.2,5.2.6,7.7.7h.3c1.7.6,4.2.2,5.9.2,5.1,0,10.2.1,15.3-.3,2.9-.3,5.8-.6,8.6-1.1V49.1c0,3.2-.1,6.3-.1,9.5,0,6.6-.1,13.2-.1,19.9h1.3V75.6c.1-6.2.1-12.5.2-18.8V37.5a35.8,35.8,0,0,0,8.4-2.7V49.1c0,3.2-.1,6.3-.1,9.5,0,6.6-.1,22.8-.1,29.4h1.3V85.2c.1-6.2.1-22.1.2-28.4V34.1a2.4,2.4,0,0,0,1.1-1.3h0C67.8,32,67.5,29.5,67.7,28.8Z" style="fill:#343730;stroke:#343730;stroke-miterlimit:10;stroke-width:2px"/><path d="M34.4,3C49.9,3,62.5,5.5,62.5,8.5s-2,23.9-28.1,23.9S6.2,11.5,6.2,8.5,18.8,3,34.4,3m0-3A110,110,0,0,0,13.9,1.7C8.9,2.6,3.2,4.3,3.2,8.5c0,.3.4,26.9,31.2,26.9S65.5,8.8,65.5,8.5c0-4.2-5.7-5.9-10.7-6.8A108.8,108.8,0,0,0,34.4,0Z" style="fill:#924f28"/><path d="M62.5,8.5c0,3-2,23.9-28.1,23.9S6.2,11.5,6.2,8.5,18.8,3,34.4,3,62.5,5.5,62.5,8.5Z" style="fill:#e57225"/><ellipse cx="34.4" cy="8.5" rx="28.1" ry="5.5" style="fill:#f9d9b7"/><ellipse cx="34.4" cy="7.9" rx="22.3" ry="3.8" style="fill:#af7553"/><path d="M9.3,147.4H8.9a3.2,3.2,0,0,1-2.6-2.3,2.2,2.2,0,0,1-.1-.8,2.4,2.4,0,0,1-.9-1.5,4.4,4.4,0,0,1,.1-2c0-.1.1-.3.1-.4a7.3,7.3,0,0,0-.4-2.8,8.5,8.5,0,0,1-.3-4.2l-.3-.3c-1.4-1.7-1.1-4.5-1-5.3l.3-2.3c.2-1.9.5-3.9.8-5.9s-.7-3-.4-4.2.1-.5.1-.8a11,11,0,0,0-.2-2.5l-.3-1.5a6.9,6.9,0,0,1,.5-3.6H4.2a4.5,4.5,0,0,1-.8-3.4l.3-1.2a3.4,3.4,0,0,0,.3-1.6.9.9,0,0,0-.3-.5,3.9,3.9,0,0,1-.6-1.3,5.4,5.4,0,0,1,.6-3.4c.2-.4.5-1,.4-1.2l-.3-.4a1.8,1.8,0,0,1-.5-.7c-1.5-2.2-.5-4.8.4-6.4a6.5,6.5,0,0,1-1.4-4.6,17.3,17.3,0,0,1,1.5-4.7v-.3l.2-.5-.2-.2-.6-.6c-1.3-1.7-.7-3.7-.2-5.1l.3-1.1a10.3,10.3,0,0,0-.1-3.9c0-.6-.1-1.1-.1-1.7a8.7,8.7,0,0,1,.6-4.7H3.7a1.4,1.4,0,0,1-1.1-.9c-.7-1.7,0-3.5.7-4.8s.8-2,.5-2.4-.1-.1-.1-.2a3.2,3.2,0,0,1-.8-1.3,3.1,3.1,0,0,1,.5-2.5l1.4-2.8a1.5,1.5,0,0,1-.5-.6,4.5,4.5,0,0,1,0-4.5,6.4,6.4,0,0,1,.8-1.4l.8-1.1a3.6,3.6,0,0,1-1.6-2.2,5.8,5.8,0,0,1,.4-3.5A13.4,13.4,0,0,1,6.4,28H6.2a1.5,1.5,0,0,1-.4-1.1,13.6,13.6,0,0,1,1.5-5.9H6.8a1.5,1.5,0,0,1-1.1-.7,1.9,1.9,0,0,1-.1-1.3,16.6,16.6,0,0,1,7.7-8.6L14,10a1.6,1.6,0,0,1,.9.3,5.8,5.8,0,0,1,2.4,4.1,6.7,6.7,0,0,1-.7,3.7,8.7,8.7,0,0,1,0,6.7,4.6,4.6,0,0,1,.3,3.5,5.1,5.1,0,0,1-1.5,2.3,5.7,5.7,0,0,1,.8,3.2,4.5,4.5,0,0,1-1.7,3.3,6.4,6.4,0,0,1,.6,3.1,7.1,7.1,0,0,1-1.2,4.1,9.2,9.2,0,0,1,.1,8.4,9.5,9.5,0,0,1,1.4,4.2,5.5,5.5,0,0,1-1.6,4,7.3,7.3,0,0,1,.8,3.3,6.3,6.3,0,0,1-1.4,4,9.1,9.1,0,0,1,1.1,3.4,5.2,5.2,0,0,1-1.2,3.9A11.5,11.5,0,0,1,14.3,84a1.1,1.1,0,0,1-.6.9,8.9,8.9,0,0,1-.6,6.8,9.5,9.5,0,0,1,1.3,3.8,5.5,5.5,0,0,1-1.2,4.2,7,7,0,0,1,1.2,3.5,4.8,4.8,0,0,1-1.6,3.9,7.4,7.4,0,0,1-.5,6.5,8.7,8.7,0,0,1,.8,7.2,11.4,11.4,0,0,1,1.9,4,5.4,5.4,0,0,1-.9,4.5,6.1,6.1,0,0,1,.6,5.1,14.6,14.6,0,0,1,0,6.9,1.5,1.5,0,0,1-1.3,1.2,5.7,5.7,0,0,1-.3,1.8A4.1,4.1,0,0,1,9.3,147.4Z" style="fill:#c3bf4f"/><path d="M14,11.5a4.6,4.6,0,0,1,.8,6.5,7,7,0,0,1,0,7c1.6,1.4.7,4.6-1.4,4.9a7,7,0,0,1,1.3,3.8,2.5,2.5,0,0,1-2.2,2.6h-.4a5.9,5.9,0,0,1-.1,8,7.7,7.7,0,0,1,.3,8.5A9.4,9.4,0,0,1,13.9,57c0,1.5-.9,3.2-2.4,3.5a5,5,0,0,1-.1,7.4,10.3,10.3,0,0,1,1.4,3.8,3.4,3.4,0,0,1-1.7,3.5,10.3,10.3,0,0,1,1.8,8.5l-1.8-.4a7.2,7.2,0,0,1,.3,8.4,9.2,9.2,0,0,1,1.5,4,3.6,3.6,0,0,1-1.6,3.7,7.4,7.4,0,0,1,1.6,3.9,3,3,0,0,1-2.2,3.2,5.9,5.9,0,0,1-.2,7.1,7.5,7.5,0,0,1,.9,7.5,12,12,0,0,1,2.2,4,3.9,3.9,0,0,1-1.6,4.1,4.4,4.4,0,0,1,1.1,5.1,13.8,13.8,0,0,1,.2,6.7h0a2.4,2.4,0,0,1-1.7-.7,8.7,8.7,0,0,1,.1,3.6,2.7,2.7,0,0,1-2.4,2H9.1c-1.2-.1-1.9-1.9-1-2.6H7.7a1.2,1.2,0,0,1-1-.9,6.3,6.3,0,0,1,.3-1.9c.4-2.7-2.1-6,0-7.8-2-.2-2.3-2.9-2.1-4.8l.3-2.3c.3-2.2.6-4.5,1-6.7-1.3-.8-.6-2.7-.4-4.2a22,22,0,0,0-.5-4.4c-.2-1.5.1-3.2,1.3-4H6.3c-1,0-1.7-1.5-1.4-2.6s.9-2.4.5-3.6-.7-1.1-.9-1.7,1.6-3.2,1-4.8-.7-.8-1-1.3,0-4.1,1.2-5.9a4.5,4.5,0,0,1-1.9-4.2,17,17,0,0,1,1.5-4.5,2.7,2.7,0,0,0,.3-1.5c-.2-.5-.8-.9-1.1-1.3s-.1-3.2.3-4.9,0-4.1-.2-6.1.2-4.3,1.8-5.6L4,57.9c-1-2.5,2.5-5.3,1.1-7.5-.2-.4-.6-.7-.7-1.1a1.7,1.7,0,0,1,.3-1.4c.7-1.4,1.4-2.8,2.2-4.2H6.8c-1.6,0-2-2.4-1.2-3.8s2.1-2.7,2-4.3H7.4a1.9,1.9,0,0,1-1.6-1.5,3.7,3.7,0,0,1,.3-2.5,14.3,14.3,0,0,1,3.2-4.9h-2a12.1,12.1,0,0,1,3.4-8,7.2,7.2,0,0,1-2.9.6H7a15,15,0,0,1,7-7.9m0-3a3.7,3.7,0,0,0-1.4.4,18.4,18.4,0,0,0-8.4,9.4,3.4,3.4,0,0,0,.2,2.6,2.6,2.6,0,0,0,.9.9,14.4,14.4,0,0,0-1,5,3.1,3.1,0,0,0,.3,1.3,19.6,19.6,0,0,0-1.3,2.5A7.4,7.4,0,0,0,2.8,35a5.6,5.6,0,0,0,1.1,2h0c-.3.5-.7,1-1,1.6a6.4,6.4,0,0,0,.1,6H3L2,46.5a4.7,4.7,0,0,0-.5,3.6,4.5,4.5,0,0,0,.9,1.7,5.4,5.4,0,0,1-.5,1.1C1.2,54.4.2,56.7,1.2,59A4.4,4.4,0,0,0,2,60.1a10.9,10.9,0,0,0-.3,4.1c0,.6.1,1.2.1,1.7a10.5,10.5,0,0,1,.1,3.5l-.3.9c-.5,1.6-1.3,4.2.5,6.5l.2.3a15.3,15.3,0,0,0-1.4,5A7.5,7.5,0,0,0,2,87C.7,89.7.7,92.1,2,94.1c.2.2.3.4.5.5l-.2.3a7,7,0,0,0-.7,4.3,5,5,0,0,0,.9,1.8h0a3.1,3.1,0,0,1-.2.8,10.4,10.4,0,0,0-.4,1.3,6.3,6.3,0,0,0,.7,4,9.7,9.7,0,0,0-.3,3.5l.3,1.6a8.6,8.6,0,0,1,.2,2.1c0,.3-.1.5-.1.8a7.1,7.1,0,0,0,.3,4.7c-.3,1.8-.5,3.6-.7,5.4l-.2.9v1.4c-.2,1.2-.4,4.1,1.2,6.2a10.5,10.5,0,0,0,.5,4.1,6.7,6.7,0,0,1,.3,2.2c0,.2,0,.3-.1.4a7,7,0,0,0-.1,2.6,3.5,3.5,0,0,0,1,1.9.9.9,0,0,0,.1.5,4.6,4.6,0,0,0,3.8,3.4h.6a5.6,5.6,0,0,0,5.3-4.2,5,5,0,0,0,.2-1.2,2.8,2.8,0,0,0,1.4-1.9,17,17,0,0,0,0-7.1,7.5,7.5,0,0,0-.4-5.1,6.8,6.8,0,0,0,.7-4.9,10,10,0,0,0-1.8-3.9,10.5,10.5,0,0,0-.7-7,9.2,9.2,0,0,0,.5-6.1,6,6,0,0,0,1.4-4.4,7.4,7.4,0,0,0-.9-3.3,7.3,7.3,0,0,0,.9-4.4,10.7,10.7,0,0,0-1.1-3.7,9.8,9.8,0,0,0,.6-6.3,4.2,4.2,0,0,0,.4-1,13.9,13.9,0,0,0-.9-8.8,6.6,6.6,0,0,0,.9-4.2,10.1,10.1,0,0,0-.8-3.1,8,8,0,0,0,1.1-4,10.6,10.6,0,0,0-.5-3.1,7.1,7.1,0,0,0,1.3-4.3,11.4,11.4,0,0,0-1.2-4.3,11.1,11.1,0,0,0-.1-8.2,9.5,9.5,0,0,0,1-4.1,6.6,6.6,0,0,0-.4-2.8,5.5,5.5,0,0,0,1.5-3.6,7.3,7.3,0,0,0-.5-3,7.8,7.8,0,0,0,1.2-2.2,6,6,0,0,0-.2-4,10.3,10.3,0,0,0,0-6.5,8.9,8.9,0,0,0,.6-4,7.2,7.2,0,0,0-3.1-5.1A2.7,2.7,0,0,0,14,8.5Z" style="fill:#6c9433"/><path d="M10.4,140.4c-.2,0-.3-.2-.3-.4C8.6,109.5,7.2,44.2,12.5,15.5a18.9,18.9,0,0,1,1.7-5.4,6.5,6.5,0,0,1,4.6-3.3.4.4,0,0,1,.4.3c0,.2-.1.4-.3.4a5.4,5.4,0,0,0-4.1,2.9,15,15,0,0,0-1.6,5.2C7.9,44.2,9.3,109.5,10.7,140c0,.2-.1.3-.3.4Z" style="fill:#269184;stroke:#259184;stroke-miterlimit:10"/><path d="M25.6,142.8a2.4,2.4,0,0,1-1.5-.4,5.1,5.1,0,0,1-1.3-1.2c-1.4-2.2-1.5-4.8-1.6-7l-.2-3.1a22.8,22.8,0,0,1,.1-5.2,10.9,10.9,0,0,1,.7-8.3,8.6,8.6,0,0,1-.4-6.5,8.4,8.4,0,0,1,.6-8.4c-1-1.8-.9-4-.7-5.9l.3-3.2.3-3.2V90a15,15,0,0,0,.2-2c-.1-.3-.1-.6-.2-.9s-.1-.4-.1-.7a9.8,9.8,0,0,1,.9-5.8,7.9,7.9,0,0,1,0-6.7,6.4,6.4,0,0,1-.2-6.3c-.1-.1-.2-.2-.2-.3a4.7,4.7,0,0,1-.6-3.9,8.3,8.3,0,0,1,.4-1.5,4.5,4.5,0,0,0,.4-2.2,4.7,4.7,0,0,0-.3-.9,1.4,1.4,0,0,1-.2-.6,8.8,8.8,0,0,1,.7-7.1,12.3,12.3,0,0,1-.8-5.2V44.2a31.7,31.7,0,0,1,.7-8,5.7,5.7,0,0,1-1-3.4,6,6,0,0,1,.6-2.7l-.4-.5a5.3,5.3,0,0,1-.6-3.5,7.5,7.5,0,0,1,1.3-2.5h0a3.9,3.9,0,0,1-.9-2.9,5.8,5.8,0,0,1,.5-1.4,1.7,1.7,0,0,1-.7-1.4,11.2,11.2,0,0,1,3.3-7.1,1.5,1.5,0,0,1,1.1-.4,1.2,1.2,0,0,1,.8.2,13,13,0,0,1,5.8,9.3,1.5,1.5,0,0,1-.4,1.1,1.4,1.4,0,0,1,.2.6,3.3,3.3,0,0,1-.8,2.8,1.2,1.2,0,0,1-.5.5l.4.6a6.1,6.1,0,0,1,.9,1.6,4,4,0,0,1-.4,3.8,1,1,0,0,1-.4.5,6.6,6.6,0,0,1-.3,5.5,7.8,7.8,0,0,1,1,8.5,8,8,0,0,1-.2,7.5,11.4,11.4,0,0,1,1.9,4.5,5.9,5.9,0,0,1-1.4,5,7,7,0,0,1,.2,7,7,7,0,0,1-.4,7.4,7,7,0,0,1-.4,7.5,9.1,9.1,0,0,1,.3,7.9,9,9,0,0,1,.9,3.3,4.4,4.4,0,0,1-1.2,3.4,7.3,7.3,0,0,1-.7,7.5,11.6,11.6,0,0,1-.1,6.4,6.8,6.8,0,0,1,1.1,3.2,5.4,5.4,0,0,1-1,3.3,7.1,7.1,0,0,1,.1,6.2,17.2,17.2,0,0,1,1.3,7.1,1.4,1.4,0,0,1-1.1,1.4h-.1a5.1,5.1,0,0,1-.4,2,4.6,4.6,0,0,1-1.7,2.2,4.8,4.8,0,0,1-.7,2.7,3.5,3.5,0,0,1-3,1.8Z" style="fill:#c3bf4f"/><path d="M25.9,11.9A11.3,11.3,0,0,1,31,20l-2-.7a4.9,4.9,0,0,1,1.8,2.5A1.8,1.8,0,0,1,29.3,24h-.2c.1,1.3,1.3,2.4,1.8,3.7s-.1,3-1.2,3h-.4a4.8,4.8,0,0,1-.1,6.4,6.2,6.2,0,0,1,1.3,8.3,6.6,6.6,0,0,1-.2,7.5,12.4,12.4,0,0,1,2.1,4.7,4.1,4.1,0,0,1-2,4.5,5.6,5.6,0,0,1,.5,7.3,5.6,5.6,0,0,1-.5,7.3,5.6,5.6,0,0,1-.3,7.5,7.5,7.5,0,0,1,.4,8,8.5,8.5,0,0,1,1.1,3.4,2.6,2.6,0,0,1-1.8,2.8,6,6,0,0,1-.2,7.7,9.4,9.4,0,0,1-.3,7,4.1,4.1,0,0,1,.1,6,5.8,5.8,0,0,1,.2,6.3,16.3,16.3,0,0,1,1.5,7.2l-1.5.4a3.3,3.3,0,0,1-1.8,4.4,5.4,5.4,0,0,1-.5,2.8,1.8,1.8,0,0,1-1.7,1.1,1.2,1.2,0,0,1-.8-.2,1.6,1.6,0,0,1-.7-.7c-1.2-1.8-1.3-4.1-1.4-6.3a30.3,30.3,0,0,1-.2-3.1,22.6,22.6,0,0,1,.1-5.2,9.2,9.2,0,0,1,1-8.2,6.8,6.8,0,0,1-.5-6.6,7.1,7.1,0,0,1,.7-8.3c-1.3-1.5-1.2-3.7-1-5.7l.3-3.3.3-3.1a12.4,12.4,0,0,0,.3-2.7,10.1,10.1,0,0,1-.3-1.7,7.4,7.4,0,0,1,1.2-5.6,6,6,0,0,1,0-6.8,4.8,4.8,0,0,1,.2-6.6c-1.5-.2-1.9-2.1-1.6-3.5s1.1-2.8.9-4.2a12.7,12.7,0,0,0-.6-1.8,6.9,6.9,0,0,1,1.1-6.5c-1.1-1.5-1.1-3.5-1.1-5.3V44.2a25.8,25.8,0,0,1,.9-8.3,4.6,4.6,0,0,1,0-6.2c-1.3-.3-1.9-1.9-1.6-3.2A8,8,0,0,1,25,23.2h-.2c-1,0-1.7-1.2-1.6-2.3A5.4,5.4,0,0,1,25,18.2h-.8A2.7,2.7,0,0,1,23,18a9.5,9.5,0,0,1,2.9-6.1m0-3a2.8,2.8,0,0,0-2.1.8A12.6,12.6,0,0,0,20,17.8a3.5,3.5,0,0,0,.5,1.8l-.3.9a5.6,5.6,0,0,0,.6,3.1,8.5,8.5,0,0,0-.9,2.2,5.9,5.9,0,0,0,.7,4.5,6.9,6.9,0,0,0-.4,2.5,7.8,7.8,0,0,0,.9,3.7,34.2,34.2,0,0,0-.6,7.7v1.6a16.6,16.6,0,0,0,.6,5.2,10.3,10.3,0,0,0-.4,7.7,2.5,2.5,0,0,0,.2.7,2.1,2.1,0,0,1,.2.6c.1.2-.2.9-.3,1.5a5.3,5.3,0,0,0-.5,1.5,6.5,6.5,0,0,0,.6,4.8,8.3,8.3,0,0,0,.2,6.2,8.9,8.9,0,0,0,.1,6.6,11.5,11.5,0,0,0-.8,6.1c0,.2.1.5.1.7s.1.6.2.8a11.5,11.5,0,0,1-.2,1.6v.4c-.2,1.1-.3,2.2-.4,3.2L19.9,95v1.7a12.6,12.6,0,0,0,.5,5.9,10,10,0,0,0-.5,8.6,9.4,9.4,0,0,0,.4,6.4,12.2,12.2,0,0,0-.7,8.4,30.1,30.1,0,0,0,0,5.2l.2,3.1c.1,2.2.3,5.2,1.9,7.7a4.5,4.5,0,0,0,1.7,1.7,4.6,4.6,0,0,0,2.3.6,5.1,5.1,0,0,0,4.3-2.6,5.8,5.8,0,0,0,.9-2.7,6.3,6.3,0,0,0,1.6-2.3,5.3,5.3,0,0,0,.4-1.7,2.8,2.8,0,0,0,1.3-2.4,19.3,19.3,0,0,0-1.2-7.1,9.1,9.1,0,0,0,0-6.1,7.7,7.7,0,0,0,.8-3.4,7.9,7.9,0,0,0-1-3.5,12.6,12.6,0,0,0,.2-5.8,9.2,9.2,0,0,0,.7-7.6,5.6,5.6,0,0,0,1-3.6,8,8,0,0,0-.8-3.3,10.5,10.5,0,0,0-.2-7.8,8.6,8.6,0,0,0,.4-7.5,9,9,0,0,0,.4-7.5,9.2,9.2,0,0,0-.1-6.9,7.5,7.5,0,0,0,1.1-5.3,11,11,0,0,0-1.6-4.3,10.2,10.2,0,0,0,.1-7.5,9.6,9.6,0,0,0-1-8.7,8.6,8.6,0,0,0,.3-5,5.6,5.6,0,0,0,.5-5.2,6.4,6.4,0,0,0-.8-1.4,5.2,5.2,0,0,0,.9-3.8h-.1a3.7,3.7,0,0,0,.3-1.5A14.5,14.5,0,0,0,27.5,9.3a3.2,3.2,0,0,0-1.6-.4Z" style="fill:#6c9433"/><path d="M25.6,133h0c-.2,0-.3-.2-.3-.4,1.8-20.9,2-78.2,2.1-99.7v-.2c0-7.8,0-16.6-2.9-24.4a2.5,2.5,0,0,0-1.7.8,1.9,1.9,0,0,0-.5,1.9c0,.2-.1.3-.3.4s-.3-.1-.4-.3a2.7,2.7,0,0,1,.8-2.5,2.6,2.6,0,0,1,2.4-.9l.3.2c3,7.9,2.9,16.9,2.9,24.8v.2c-.1,21.6-.3,78.9-2,99.8C26,132.9,25.8,133,25.6,133Z" style="fill:#269184;stroke:#259184;stroke-miterlimit:10"/><path d="M53.2,142.8a2.8,2.8,0,0,1-1.5-.4,3.4,3.4,0,0,1-1.2-1.2c-1.4-2.2-1.6-4.8-1.7-7l-.2-3.1a22.7,22.7,0,0,1,.1-5.2,10.5,10.5,0,0,1,.8-8.3,7.8,7.8,0,0,1-.4-6.5,8.2,8.2,0,0,1,.5-8.4c-1-1.8-.9-4-.7-5.9l.3-3.2c.1-1.1.2-2.1.4-3.2V90a4.7,4.7,0,0,0,.2-2,2.9,2.9,0,0,0-.2-.9c0-.2-.1-.4-.1-.7a9.1,9.1,0,0,1,1-5.8,7.5,7.5,0,0,1-.1-6.7,6.4,6.4,0,0,1-.1-6.3l-.3-.3a5.1,5.1,0,0,1-.6-3.9c.1-.5.3-1,.4-1.5a4.7,4.7,0,0,0,.5-2.2,6.3,6.3,0,0,0-.4-.9,1.4,1.4,0,0,0-.2-.6,8.5,8.5,0,0,1,.8-7.1,11,11,0,0,1-.9-5.2V44.3a32.3,32.3,0,0,1,.8-8.1,5.8,5.8,0,0,1-1.1-3.4,6,6,0,0,1,.6-2.7l-.4-.5a4.7,4.7,0,0,1-.5-3.5,7.2,7.2,0,0,1,1.2-2.5h0a3.4,3.4,0,0,1-.8-2.9,3.3,3.3,0,0,1,.4-1.4,1.4,1.4,0,0,1-.6-1.4,10.3,10.3,0,0,1,3.3-7.1,1.3,1.3,0,0,1,1-.4,1.1,1.1,0,0,1,.8.2,12.7,12.7,0,0,1,5.8,9.3,1.4,1.4,0,0,1-.3,1.1c0,.2.1.4.1.6a3.6,3.6,0,0,1-.7,2.8l-.5.5.3.6a11.2,11.2,0,0,1,1,1.6,4.6,4.6,0,0,1-.4,3.8l-.4.5a6.3,6.3,0,0,1-.4,5.5,7.8,7.8,0,0,1,1.1,8.5,8.3,8.3,0,0,1-.2,7.5,13,13,0,0,1,1.9,4.5,6.7,6.7,0,0,1-1.4,5,7.3,7.3,0,0,1,.1,7,7,7,0,0,1-.4,7.4,7.2,7.2,0,0,1-.3,7.5,9.5,9.5,0,0,1,.2,7.9,9.1,9.1,0,0,1,1,3.3,4.8,4.8,0,0,1-1.3,3.4,7.2,7.2,0,0,1-.6,7.5,10.8,10.8,0,0,1-.2,6.4,5.2,5.2,0,0,1,1.1,3.2,6,6,0,0,1-.9,3.3,7.5,7.5,0,0,1,0,6.2,17.2,17.2,0,0,1,1.3,7.1,1.3,1.3,0,0,1-1.1,1.4H59a4.9,4.9,0,0,1-.3,2,6.2,6.2,0,0,1-1.7,2.2,7.2,7.2,0,0,1-.7,2.7,3.8,3.8,0,0,1-3.1,1.8Z" style="fill:#c3bf4f"/><path d="M53.5,11.9A11.3,11.3,0,0,1,58.6,20l-2-.7a5.1,5.1,0,0,1,1.9,2.5c.1,1-.6,2.2-1.5,2.2h-.3c.2,1.3,1.3,2.4,1.9,3.7s-.2,3-1.3,3H57a4.8,4.8,0,0,1-.2,6.4,6.2,6.2,0,0,1,1.3,8.3,6.6,6.6,0,0,1-.2,7.5,14.4,14.4,0,0,1,2.2,4.7c.2,1.8-.4,3.8-2,4.5a5.6,5.6,0,0,1,.4,7.3,5.5,5.5,0,0,1-.5,7.3,5.6,5.6,0,0,1-.3,7.5,7.3,7.3,0,0,1,.4,8,8.7,8.7,0,0,1,1.2,3.4,2.9,2.9,0,0,1-1.8,2.8,6,6,0,0,1-.3,7.7,9.4,9.4,0,0,1-.3,7,4.1,4.1,0,0,1,.2,6,6,6,0,0,1,.1,6.3,15.1,15.1,0,0,1,1.5,7.2l-1.4.4a3.5,3.5,0,0,1-1.8,4.4,5.4,5.4,0,0,1-.5,2.8,2.1,2.1,0,0,1-1.8,1.1.8.8,0,0,1-.7-.2,1.8,1.8,0,0,1-.8-.7c-1.1-1.8-1.3-4.1-1.4-6.3l-.2-3.1a18.2,18.2,0,0,1,.2-5.2,9.2,9.2,0,0,1,.9-8.2,6.8,6.8,0,0,1-.5-6.6,6.9,6.9,0,0,1,.8-8.3c-1.4-1.5-1.3-3.7-1.1-5.7l.3-3.3c.1-1,.2-2,.4-3.1a12.3,12.3,0,0,0,.2-2.7L51,86.2a7.9,7.9,0,0,1,1.2-5.6,6,6,0,0,1,0-6.8,5,5,0,0,1,.2-6.6c-1.4-.2-1.9-2.1-1.6-3.5s1.2-2.8.9-4.2a12.7,12.7,0,0,0-.6-1.8,7.2,7.2,0,0,1,1.1-6.5c-1.1-1.5-1.1-3.5-1.1-5.3V44.2a29,29,0,0,1,.9-8.3,4.5,4.5,0,0,1,.1-6.2,2.7,2.7,0,0,1-1.7-3.2,8,8,0,0,1,2.2-3.3h-.1a2,2,0,0,1-1.7-2.3,5.4,5.4,0,0,1,1.8-2.7h-.8a2,2,0,0,1-1.1-.3,8.9,8.9,0,0,1,2.8-6.1m0-3a2.9,2.9,0,0,0-2.1.8,12.5,12.5,0,0,0-3.7,8.1,2.7,2.7,0,0,0,.4,1.8,2.9,2.9,0,0,0-.2.9,4.8,4.8,0,0,0,.5,3.1,8.5,8.5,0,0,0-.9,2.2,5.9,5.9,0,0,0,.7,4.5,10.1,10.1,0,0,0-.4,2.5,7.8,7.8,0,0,0,.9,3.7,41.2,41.2,0,0,0-.6,7.7v1.7a13.9,13.9,0,0,0,.7,5.1,9.8,9.8,0,0,0-.5,7.7,1.4,1.4,0,0,1,.2.7,3.3,3.3,0,0,1,.3.6,8.5,8.5,0,0,1-.4,1.5,13.1,13.1,0,0,0-.5,1.5,7,7,0,0,0,.6,4.8,8.8,8.8,0,0,0,.2,6.2,9.4,9.4,0,0,0,.1,6.6,11.5,11.5,0,0,0-.8,6.1c.1.2.1.5.2.7s.1.6.1.8a9.7,9.7,0,0,1-.1,1.6v.4c-.2,1.1-.3,2.2-.4,3.2l-.3,3.3a14.1,14.1,0,0,0,.5,5.9,10,10,0,0,0-.4,8.6,9.4,9.4,0,0,0,.3,6.4,12.1,12.1,0,0,0-.6,8.4,22.8,22.8,0,0,0-.1,5.2l.2,3.1c.1,2.2.3,5.2,1.9,7.7a5,5,0,0,0,1.8,1.7,4,4,0,0,0,2.2.6,5.2,5.2,0,0,0,4.4-2.6,7,7,0,0,0,.8-2.7,5.3,5.3,0,0,0,1.6-2.3,5.5,5.5,0,0,0,.5-1.7,3,3,0,0,0,1.2-2.4,17.4,17.4,0,0,0-1.2-7.1,8.6,8.6,0,0,0,.1-6.1,7.7,7.7,0,0,0,.7-3.4,6.8,6.8,0,0,0-1-3.5,12.6,12.6,0,0,0,.2-5.8,9.2,9.2,0,0,0,.8-7.6,7.2,7.2,0,0,0,1-3.6,10,10,0,0,0-.8-3.3,11,11,0,0,0-.2-7.8,8.9,8.9,0,0,0,.3-7.5,9,9,0,0,0,.4-7.5,8.7,8.7,0,0,0-.1-6.9A7.5,7.5,0,0,0,63,57.2a11,11,0,0,0-1.6-4.3,9.8,9.8,0,0,0,.1-7.5,9.3,9.3,0,0,0-.9-8.7,7.8,7.8,0,0,0,.2-5,5.6,5.6,0,0,0,.5-5.2,6.4,6.4,0,0,0-.8-1.4,5.2,5.2,0,0,0,.9-3.8h0a2.5,2.5,0,0,0,.2-1.5A14.5,14.5,0,0,0,55.1,9.3a2.9,2.9,0,0,0-1.6-.4Z" style="fill:#6c9433"/><path d="M53.3,133h0c-.2,0-.4-.2-.3-.4,1.7-20.9,1.9-78.2,2-99.8h0c0-7.8,0-16.6-2.8-24.4a2.5,2.5,0,0,0-1.7.8,2,2,0,0,0-.6,1.9.5.5,0,0,1-.2.4c-.2,0-.4-.1-.4-.3A2.7,2.7,0,0,1,50,8.6a2.7,2.7,0,0,1,2.5-.9.2.2,0,0,1,.2.2c3,7.9,3,16.9,2.9,24.8h0c0,21.6-.2,79-2,99.9A.3.3,0,0,1,53.3,133Z" style="fill:#269184;stroke:#259184;stroke-miterlimit:10"/><path d="M38.8,167.2h-.5a4.8,4.8,0,0,1-3.8-3.1,5.5,5.5,0,0,1-.4-2.5,3.2,3.2,0,0,1-.9-.8,3.9,3.9,0,0,1-.9-2.9c.2-.7.5-1.4.7-2l-.4-.2a1.7,1.7,0,0,1-.6-1.1,14.2,14.2,0,0,1,.8-5.4,1.5,1.5,0,0,1-.6-.9,8.6,8.6,0,0,1,.8-5.7,1.3,1.3,0,0,1-.4-1,13,13,0,0,1,2.2-7.2,8.8,8.8,0,0,1,.6-8.2,5.6,5.6,0,0,1-.7-3.1l.2-4.1a16,16,0,0,1,1.2-6.3,8.2,8.2,0,0,1,.5-8.8,5.3,5.3,0,0,1-1.2-4.1,12,12,0,0,1,1.2-3.5A5.6,5.6,0,0,1,35,91.8a12,12,0,0,1,1.2-3.5l-.3-.4a5.1,5.1,0,0,1-.7-4.2c.2-.7.5-1.2.7-1.8a4.4,4.4,0,0,0,.6-1.7,8.4,8.4,0,0,1-.4-8.8l-.3-.4a5.1,5.1,0,0,1-.6-4.5l.6-1.7a9.1,9.1,0,0,0,.8-2.3,7.6,7.6,0,0,1,.1-6.6,5.3,5.3,0,0,1-.6-5.9l-.5-.3a1.5,1.5,0,0,1-.4-1.1,11.2,11.2,0,0,1,.9-4.4,1.3,1.3,0,0,1-.7-.6,4.2,4.2,0,0,1-1-3.4,7.1,7.1,0,0,1,1.1-2.5,1,1,0,0,1-.4-.5,4.5,4.5,0,0,1-.8-4,20,20,0,0,1,1-2.1,6.4,6.4,0,0,0,.8-2,7.1,7.1,0,0,1-.4-5.2,8.7,8.7,0,0,1,1-2.4h-.3a1.5,1.5,0,0,1-1.2-1.2,5.7,5.7,0,0,1,3.7-5.9l1.5-.2A5.4,5.4,0,0,1,45.2,17a4,4,0,0,1,0,3.7,5.2,5.2,0,0,1,1.2,2.2,3.5,3.5,0,0,1-.7,2.8,4.8,4.8,0,0,1,.6,1.8,4,4,0,0,1-.5,2.9,7,7,0,0,1,.3,7.4l.5.8a10.5,10.5,0,0,1,1.2,2.1,4.1,4.1,0,0,1-.6,3.4l-.2.3a6,6,0,0,1,.7,2.7,5.6,5.6,0,0,1-1.2,3.6,9.5,9.5,0,0,1,1.7,4A6,6,0,0,1,47,59.1a5.6,5.6,0,0,1-.7,6.5,5.7,5.7,0,0,1,.8,2.9,6.3,6.3,0,0,1-1,3.6A11.5,11.5,0,0,1,47.8,76a5.7,5.7,0,0,1-1.2,4.3,6.3,6.3,0,0,1,1.3,3.5,6.4,6.4,0,0,1-1.1,4.1,7.3,7.3,0,0,1,.9,4.1A8,8,0,0,1,46,96a10.4,10.4,0,0,1,.5,6.5,2.2,2.2,0,0,1-.5.8,8.1,8.1,0,0,1-.6,5.7,6.5,6.5,0,0,1,1.2,3.9,7.4,7.4,0,0,1-1.2,3.6,7.4,7.4,0,0,1,.9,3.6,6.7,6.7,0,0,1-1.4,3.7,11.8,11.8,0,0,1,.5,7.2,1.6,1.6,0,0,1-.4.7,11.1,11.1,0,0,1-.1,7.4,8.7,8.7,0,0,1-.1,8.8,6.9,6.9,0,0,1,.8,3.2,5.8,5.8,0,0,1-1.2,3.6l.7,1.1.4.8a4.7,4.7,0,0,1,.5,4.5,3,3,0,0,1-2.4,1.8,4.4,4.4,0,0,1-.7,1.9A4.9,4.9,0,0,1,38.8,167.2Z" style="fill:#c3bf4f"/><path d="M40.4,15.6a4,4,0,0,1,3.5,2.1c.5,1.1.2,2.9-1.1,3a4.3,4.3,0,0,1,2.1,2.5,1.7,1.7,0,0,1-1.4,2.1h-.4a3.3,3.3,0,0,1,.7,5.3,5.3,5.3,0,0,1,.6,7.1c.4,1.3,1.5,2.3,2,3.6s-.5,2.7-1.5,2.7h-.5c2.3,1.3,2.4,5.2.2,6.7a12.7,12.7,0,0,1,2.1,4.4c.2,1.6-.5,3.5-2.1,4,2.5,1.2,2.1,5.6-.5,6.3a4.4,4.4,0,0,1,0,6.7,10.4,10.4,0,0,1,2.2,4.3,3.8,3.8,0,0,1-2,4,4.9,4.9,0,0,1,.6,7.6,5.7,5.7,0,0,1-.7,7.9,8.4,8.4,0,0,1,.8,6.4l-1.5-.6a6.8,6.8,0,0,1,.1,7.7,5.1,5.1,0,0,1-.2,7.3,4.8,4.8,0,0,1-.3,7,9.2,9.2,0,0,1,.8,7.1l-1.4-.6a9.6,9.6,0,0,1,.7,9.3,6.9,6.9,0,0,1-.3,8.6,4.6,4.6,0,0,1-.2,6.4,16.8,16.8,0,0,0,1.5,3,3.7,3.7,0,0,1,.4,3.2,1.7,1.7,0,0,1-1.6,1,1.1,1.1,0,0,1-1-.6,3.7,3.7,0,0,1-3.2,4.8h-.3a3.6,3.6,0,0,1-2.3-5.5h0a.9.9,0,0,1-.7.3,2.1,2.1,0,0,1-1.7-2.3c.3-1.5,1.3-2.7,1.2-4.1l-1.5.4a12.9,12.9,0,0,1,1.7-6.9,1.2,1.2,0,0,1-1,.5h-.5a7,7,0,0,1,2.2-6.7,3.1,3.1,0,0,1-1.3.3h-.5a11.6,11.6,0,0,1,2.5-7.1,6.9,6.9,0,0,1,.9-8.5c-1.1-.2-1.3-1.7-1.3-2.8s.1-2.8.2-4.2.2-4.6,1.5-6.4a6.4,6.4,0,0,1,.9-8.8,3.8,3.8,0,0,1-1.9-3.9,12.8,12.8,0,0,1,1.7-4.2c-1.5-.4-2.3-2.2-2.1-3.8a11.4,11.4,0,0,1,1.9-4.2h0c-1.6,0-2.2-2.1-1.7-3.6s1.4-2.8,1.4-4.4a6.6,6.6,0,0,1,.3-8.8c-1.7,0-2.3-2.4-1.8-4s1.6-3.1,1.4-4.8a6.1,6.1,0,0,1,.8-6.6c-1.3-.3-2-1.9-1.9-3.3a9,9,0,0,1,1.9-3.6H36.7a10.1,10.1,0,0,1,1.5-5.3h-.3c-1.2,0-2.2-1.6-2-2.9a6.6,6.6,0,0,1,2.3-3.6.7.7,0,0,1-.6.2c-1.3,0-2.3-2-1.8-3.4s1.9-3.2,1.8-4.9a6.2,6.2,0,0,1,2.2-8.2l-3.1-.7a3.8,3.8,0,0,1,2.6-4.1l1.1-.2m0-3h0a6.4,6.4,0,0,0-2,.3,7.1,7.1,0,0,0-4.7,7.5,3.2,3.2,0,0,0,1,1.8,5,5,0,0,0-.5,1.3,9.6,9.6,0,0,0,.3,5.8,5.4,5.4,0,0,1-.5,1.1,13.3,13.3,0,0,0-1.1,2.4,6,6,0,0,0,.8,5,8.3,8.3,0,0,0-.8,2.2,6.4,6.4,0,0,0,1.3,4.6c.1,0,.1,0,.1.1a13.2,13.2,0,0,0-.6,3.9,3.3,3.3,0,0,0,.6,1.9,3.1,3.1,0,0,0-.3,1.3,6.3,6.3,0,0,0,1,4.4,9.4,9.4,0,0,0,0,6.6l-.5,1.4a15.9,15.9,0,0,0-.8,1.8,6.8,6.8,0,0,0,.7,5.6,9.7,9.7,0,0,0,.5,8.9,5.9,5.9,0,0,1-.4.8c-.2.6-.5,1.2-.7,1.9a6.5,6.5,0,0,0,.7,5.3,10.3,10.3,0,0,0-1,3.1,6.9,6.9,0,0,0,1.3,4.9,14,14,0,0,0-.9,3.1,8.1,8.1,0,0,0,.9,4.4,9.9,9.9,0,0,0-.4,8.7,21,21,0,0,0-1,6.2l-.2,4.2a8.7,8.7,0,0,0,.5,3.1,10.4,10.4,0,0,0-.6,8.1,14.3,14.3,0,0,0-2,7.3,4.3,4.3,0,0,0,.2,1.1,9.9,9.9,0,0,0-.6,5.9,3,3,0,0,0,.4,1,16.7,16.7,0,0,0-.6,5,2.9,2.9,0,0,0,.7,1.8,5.3,5.3,0,0,0-.3,1.2,5,5,0,0,0,1.2,4.2l.5.5a6.9,6.9,0,0,0,.5,2.4,6.4,6.4,0,0,0,5,4h.7a6.5,6.5,0,0,0,5.4-3.1,10.1,10.1,0,0,0,.7-1.5,4.5,4.5,0,0,0,2.4-2.3,6.1,6.1,0,0,0-.5-5.9,4.1,4.1,0,0,0-.5-.9c0-.1-.1-.2-.1-.3a7,7,0,0,0,.9-3.5,8.8,8.8,0,0,0-.6-3.3,10,10,0,0,0,0-8.9,13.2,13.2,0,0,0,.1-7.1.8.8,0,0,0,.2-.5,12.5,12.5,0,0,0-.2-7.4,8.1,8.1,0,0,0,1.2-3.8,8.6,8.6,0,0,0-.7-3.6,9.3,9.3,0,0,0,1-3.7,9.1,9.1,0,0,0-1-4,9.6,9.6,0,0,0,.5-5.3,2.1,2.1,0,0,0,.3-.7,11.4,11.4,0,0,0-.2-6.6,9.7,9.7,0,0,0,1.5-4.1,8.5,8.5,0,0,0-.7-4.2,8.1,8.1,0,0,0,.9-4.4,7.9,7.9,0,0,0-1-3.3,6.5,6.5,0,0,0,.8-4.6A9.2,9.2,0,0,0,47.8,72a6.7,6.7,0,0,0,.8-3.5,8.7,8.7,0,0,0-.5-2.8,6.8,6.8,0,0,0,1.1-3.2,7.2,7.2,0,0,0-.5-3.3,6.6,6.6,0,0,0,.9-4.7,10.1,10.1,0,0,0-1.3-3.7,7.9,7.9,0,0,0,.9-3.8,7,7,0,0,0-.5-2.5,4.9,4.9,0,0,0,.5-4.2,8,8,0,0,0-1.4-2.6h0a8.9,8.9,0,0,0,.7-4,7.9,7.9,0,0,0-1-3.4,7.5,7.5,0,0,0,.3-3,8.3,8.3,0,0,0-.4-1.5,5.1,5.1,0,0,0,.5-3.2,7.4,7.4,0,0,0-1-2.2,5.3,5.3,0,0,0-.4-4.1,6.7,6.7,0,0,0-6.1-3.7Z" style="fill:#6c9433"/><path d="M38.5,159.3h0a.4.4,0,0,1-.4-.4c1.2-19.4,2.5-39.5,2.9-59.2.5-17.2.4-70.3-1.2-86.4a11.2,11.2,0,0,0-1.1-4.7c-.8-1.2-2.4-2.3-3.9-1.8a2.2,2.2,0,0,0-1.5,1.7,1.8,1.8,0,0,0,.4,1.6.2.2,0,0,1,.1.4.3.3,0,0,1-.5.1,2.4,2.4,0,0,1-.6-2.3,3,3,0,0,1,2-2.2c1.8-.5,3.6.7,4.5,2.2a11.1,11.1,0,0,1,1.3,4.9c1.6,16.2,1.6,69.3,1.2,86.5-.5,19.8-1.7,39.8-2.9,59.3Z" style="fill:#269184;stroke:#259184;stroke-miterlimit:10"/><path d="M41.2,27.4c4.6-1.9,6.2-.2,2.8,2.3,3.7,3.3.6,5.4-4.1,2.3-5.1,1.9-7.1-.1-3.3-3.1-2.1-2.4-1.1-3.9,2-2.1C38.2,23.7,40.4,23.5,41.2,27.4Z" style="fill:#ffe8cc"/><path d="M40.4,28a1.1,1.1,0,0,1,1.3,1.5c.5.4.2,1.2-.8,1.3l-.7.2a1.5,1.5,0,0,1-1.3-.4,1.2,1.2,0,0,1-.8-1,.8.8,0,0,1,.2-.5C38.4,28.2,39.6,27.8,40.4,28Z" style="fill:#fbcd18"/><path d="M8.3,41.3c4.6-2,6.2-.2,2.8,2.2,3.7,3.3.6,5.5-4.1,2.4-5.1,1.9-7.2-.2-3.3-3.2-2.2-2.4-1.1-3.9,1.9-2.1C5.3,37.6,7.5,37.3,8.3,41.3Z" style="fill:#ffe8cc"/><path d="M7.4,41.9c1.1-.1,1.7.7,1.4,1.4s.2,1.3-.9,1.4H7.3A1.4,1.4,0,0,1,6,44.5a1.3,1.3,0,0,1-.8-1.1.9.9,0,0,1,.1-.5A1.8,1.8,0,0,1,7.4,41.9Z" style="fill:#fbcd18"/><path d="M40.9,72.3c4.7-1.9,6.3-.2,2.8,2.2,3.7,3.3.7,5.5-4.1,2.4-5,1.9-7.1-.2-3.2-3.2-2.2-2.4-1.1-3.9,1.9-2.1C37.9,68.6,40.2,68.4,40.9,72.3Z" style="fill:#ffe8cc"/><path d="M40.1,72.9c1.1-.1,1.7.7,1.4,1.4s.1,1.3-.9,1.4h-.7a1.1,1.1,0,0,1-1.2-.3,1.1,1.1,0,0,1-.8-1,.7.7,0,0,1,.1-.6C38.1,73.1,39.3,72.7,40.1,72.9Z" style="fill:#fbcd18"/><path d="M27.8,99c4.7-2,6.3-.2,2.8,2.2,3.8,3.3.7,5.5-4.1,2.3-5,2-7.1-.1-3.2-3.1-2.2-2.4-1.1-3.9,1.9-2.1C24.8,95.3,27.1,95,27.8,99Z" style="fill:#ffe8cc"/><path d="M27,99.6c1.1-.1,1.7.7,1.4,1.4s.1,1.2-.9,1.4h-.7a1.2,1.2,0,0,1-1.2-.3,1.2,1.2,0,0,1-.8-1.1.9.9,0,0,1,.1-.5A1.7,1.7,0,0,1,27,99.6Z" style="fill:#fbcd18"/><path d="M56,117.5c4.6-1.9,6.2-.2,2.8,2.3,3.7,3.3.6,5.4-4.1,2.3-5.1,1.9-7.1-.1-3.3-3.1-2.1-2.5-1.1-4,2-2.1C53,113.8,55.2,113.6,56,117.5Z" style="fill:#ffe8cc"/><path d="M55.2,118.1c1-.1,1.6.7,1.3,1.4s.2,1.3-.8,1.4H55a1.2,1.2,0,0,1-1.3-.3,1.2,1.2,0,0,1-.8-1,.8.8,0,0,1,.2-.5C53.2,118.3,54.4,117.9,55.2,118.1Z" style="fill:#fbcd18"/></g></g></svg>