<svg xmlns="http://www.w3.org/2000/svg" viewBox="0 0 119.1 263.2"><g id="Layer_2" data-name="Layer 2"><g id="Layer_1-2" data-name="Layer 1"><path d="M45.6,118.1V90.9A27.7,27.7,0,0,0,44.5,98c-.2,4.3.7,8.7-1.1,12.7l-.8,1.2c.8,1.4,1.5,2.9,2.2,4.4Z" style="fill:#fae6f5"/><path d="M65.4,193h2.4l.8-11c.7-9.8,1.3-19.6,2.1-29.3.2-2,.4-4,.5-6l-.9.8-.3.3c-.2,1.6-.4,3.2-.5,4.7-1,9.8-1.9,19.6-2.4,29.4l-.3,6.2a26.2,26.2,0,0,0,0-2.8c-.1-10.9-.6-21.7-1.3-32.6l-1.3,1.4c.4,10.4.8,20.8,1.1,31.2C65.4,187.9,65.4,190.4,65.4,193Z" style="fill:#4e7f75"/><path d="M77,96.6h-.1l2-1.8,2-1.8c1.4-1.1,2.7-2.3,4.2-3.4a79.9,79.9,0,0,1,8.7-6.2,54,54,0,0,1,9.7-4.6,45.6,45.6,0,0,1,10.4-2.8h0A48.6,48.6,0,0,0,103.2,78a54.8,54.8,0,0,0-10,4.3,42.6,42.6,0,0,0-9.1,6.1,38.2,38.2,0,0,0-4.5,4.5,6.1,6.1,0,0,1,.7-1c1.1-1.4,2.1-2.8,3.3-4.1s2.2-2.7,3.4-4a.4.4,0,0,0,.4.4h.2c.4-.1.5.2.5.3v-.2c0-.3.2-.5.3-.9h-1l1.3-1.4A16.2,16.2,0,0,1,90.7,80a58.5,58.5,0,0,1,8.2-6.7,56.5,56.5,0,0,1,9.4-5h-.1a57.4,57.4,0,0,0-9.7,4.6,66.1,66.1,0,0,0-8.6,6.4,45.6,45.6,0,0,0-7.5,7.7c-1.1,1.5-2,3-3,4.5l-.2.4.3-.7q1.5-2.7,2.7-5.4c1.9-3.6,3.6-7.3,5.7-10.7a68.4,68.4,0,0,1,6.9-10l1.9-2.3,2.1-2.2a28,28,0,0,1,4.7-3.8h-.1a28.7,28.7,0,0,0-4.9,3.7l-2.2,2.1-2.1,2.2a85.9,85.9,0,0,0-7.3,9.8,80.9,80.9,0,0,0-6,10.7c-.8,1.9-1.6,3.8-2.3,5.7a18.7,18.7,0,0,0-.7,2.2l.3-1.4.9-4.7c.7-3.2,1.1-6.4,1.8-9.6s1.5-6.2,2.5-9.3l1.5-4.6c.6-1.5,1.3-3,2-4.4h-.1A35.5,35.5,0,0,0,84.5,63a42.2,42.2,0,0,0-1.8,4.5,78.4,78.4,0,0,0-2.9,9.4,62,62,0,0,0-2.1,9.5c-.2,1.2-.3,2.4-.4,3.5,0-1.2,0-2.5-.1-3.8,0-3.4-.3-6.8-.5-10.1s-.3-6.7-.5-10.1-.3-6.7-.4-10.1h-.1c-.1,3.3-.2,6.7-.2,10V76c0,3.4,0,6.8.2,10.1s.6,6.5,1.2,9.7c-.1.2-.1.4-.2.6h.1c-.7,4.1-1.4,8.2-2,12.3l.5-.2C75.8,104.6,76.4,100.6,77,96.6Z" style="fill:#4e7f75"/><path d="M44.9,119.2c1.1,3.3,2.2,6.6,3.1,9.9l2.7,10c1.5,6.7,3.2,13.4,4.2,20.2,2.1,11.2,3.3,22.4,4.4,33.7H62a327.8,327.8,0,0,0-5-34c-1.2-6.7-3-13.5-4.6-20.2l-2.9-10c-1-3.3-2.2-6.6-3.3-9.9s-2.6-6.5-3.8-9.8l-.4-.8L40,106c.5,1.1,1,2.2,1.4,3.3C42.6,112.6,43.9,115.9,44.9,119.2Z" style="fill:#4e7f75"/><path d="M55.7,62.9l.8,17.6c.5,11.8.9,23.6,1.3,35.3.8,23.5,1.4,47.1,1.8,70.6,0,2.2,0,4.4.1,6.6H64l-.3-6.7q-1.4-35.4-3.3-70.6c-.7-11.8-1.5-23.5-2.3-35.3L56.7,62.8,55.8,54l-.3-2.9h-.7l.2,3.1Z" style="fill:#4e7f75"/><path d="M115.5,76.4c-1-2-3-3.3-4.3-5.1s-2.1-5.8-2.7-8.9-1.6-6.5-4.3-8.1-6.5-.9-9.6.3A53.7,53.7,0,0,1,89,56.7a12.6,12.6,0,0,1-3.9.4c-3.9-.2-7.7-3.1-11.4-1.9s-4.6,4.3-4.6,7.3S70.9,69,72.3,72a25.8,25.8,0,0,1,2.3,10.3c.1,4.2-.8,8.7,1,12.7a3.8,3.8,0,0,0,1.1,1.4c.1-.2.1-.4.2-.6-.6-3.2-.9-6.4-1.2-9.7s-.2-6.7-.2-10.1V65.9c0-3.3.1-6.7.2-10h.1c.1,3.4.3,6.8.4,10.1s.3,6.7.5,10.1.5,6.7.5,10.1c.1,1.3.1,2.6.1,3.8.1-1.1.2-2.3.4-3.5a62,62,0,0,1,2.1-9.5,78.4,78.4,0,0,1,2.9-9.4A42.2,42.2,0,0,1,84.5,63a35.5,35.5,0,0,1,2.3-4.3h.1c-.7,1.4-1.4,2.9-2,4.4l-1.5,4.6c-1,3.1-1.8,6.2-2.5,9.3s-1.1,6.4-1.8,9.6l-.9,4.7-.3,1.4a18.7,18.7,0,0,1,.7-2.2c.7-1.9,1.5-3.8,2.3-5.7a80.9,80.9,0,0,1,6-10.7,85.9,85.9,0,0,1,7.3-9.8l2.1-2.2,2.2-2.1a28.7,28.7,0,0,1,4.9-3.7h.1a28,28,0,0,0-4.7,3.8l-2.1,2.2-1.9,2.3a68.4,68.4,0,0,0-6.9,10c-2.1,3.4-3.8,7.1-5.7,10.7Q81,88.3,79.5,91l-.3.7.2-.4c1-1.5,1.9-3,3-4.5a45.6,45.6,0,0,1,7.5-7.7,66.1,66.1,0,0,1,8.6-6.4,57.4,57.4,0,0,1,9.7-4.6h.1a56.5,56.5,0,0,0-9.4,5A58.5,58.5,0,0,0,90.7,80a16.2,16.2,0,0,0-1.9,1.8l-1.3,1.4h1c-.1.4-.3.6-.3.9v.2c0-.1-.1-.4-.5-.3h-.2a.4.4,0,0,1-.4-.4c-1.2,1.3-2.3,2.6-3.4,4s-2.2,2.7-3.3,4.1a6.1,6.1,0,0,0-.7,1,38.2,38.2,0,0,1,4.5-4.5,42.6,42.6,0,0,1,9.1-6.1,54.8,54.8,0,0,1,10-4.3,48.6,48.6,0,0,1,10.7-2.3h0a45.6,45.6,0,0,0-10.4,2.8,54,54,0,0,0-9.7,4.6,79.9,79.9,0,0,0-8.7,6.2c-1.5,1.1-2.8,2.3-4.2,3.4l-2,1.8-2,1.8H77a3.3,3.3,0,0,0,2.9-.4c2.7-1.7,5-3.8,7.6-5.6l1.5-1,2.4-1.4c4.7-2.4,10.2-3.6,15.4-4.4S118.3,81.8,115.5,76.4Z" style="fill:#69a18e"/><path d="M45.6,71.1h-.1C41.8,69.8,38,72.6,34,72.9s-6.4-1.4-9.4-2.6-6.8-2.1-9.6-.4a7.5,7.5,0,0,0-2.3,2.4A16.3,16.3,0,0,0,10.6,78c-.5,3.1-.8,6.4-2.7,8.9s-3.3,3.1-4.3,5c-2.8,5.5,5,6.9,8.7,7.5h.4a51.2,51.2,0,0,1,14.9,4.4,25.5,25.5,0,0,1,3.9,2.4c2.6,1.8,4.9,3.9,7.6,5.6a2.9,2.9,0,0,0,3.1.3l-2.1-1.7a17.1,17.1,0,0,0-2-1.8c-1.4-1.2-2.7-2.4-4.1-3.4A87.2,87.2,0,0,0,25.3,99a57.9,57.9,0,0,0-9.7-4.7A45.6,45.6,0,0,0,5.2,91.5h0a49.9,49.9,0,0,1,10.7,2.3,63.3,63.3,0,0,1,10,4.4,44.6,44.6,0,0,1,9,6.1,38.2,38.2,0,0,1,4.5,4.5l-.7-.9c-1.1-1.4-2.1-2.9-3.3-4.2s-2.2-2.7-3.3-4c-.1.2-.2.4-.5.4h-.1c-.4-.1-.5.2-.6.3V100c-.1-.3-.3-.5-.3-.8V99h.8l-1.2-1.4c-.7-.6-1.2-1.3-1.9-1.9A65.8,65.8,0,0,0,20.2,89a50.4,50.4,0,0,0-9.4-5.1h.1a51,51,0,0,1,9.7,4.7,58.1,58.1,0,0,1,8.6,6.4,45.6,45.6,0,0,1,7.4,7.8,27.1,27.1,0,0,1,3,4.5c.1.1.1.2.2.4l-.3-.7-2.7-5.5c-1.9-3.6-3.5-7.3-5.6-10.7a76.5,76.5,0,0,0-6.8-10c-.7-.8-1.3-1.6-2-2.3a21.8,21.8,0,0,0-2.1-2.2,24.4,24.4,0,0,0-4.6-3.9h0a29.5,29.5,0,0,1,4.9,3.6l2.3,2.1c.7.8,1.4,1.5,2,2.3a75.5,75.5,0,0,1,7.3,9.8,82,82,0,0,1,6,10.8l2.3,5.7c.2.7.4,1.4.7,2.2s-.3-1-.4-1.4l-.9-4.8c-.7-3.2-1-6.4-1.7-9.5s-1.5-6.3-2.4-9.4c-.5-1.5-1-3.1-1.6-4.6a34.9,34.9,0,0,0-2-4.4h.2a43.7,43.7,0,0,1,2.2,4.3c.7,1.5,1.3,3,1.9,4.6s2,6.2,2.8,9.3a78.2,78.2,0,0,1,2.1,9.6c.1,1.1.3,2.3.4,3.5v-3.9c.1-3.4.4-6.7.6-10.1s.4-6.7.5-10,.3-6.7.4-10.1h.2c.1,3.4.1,6.7.2,10.1s-.1,6.7-.1,10.1,0,6.7-.3,10.1a78.7,78.7,0,0,1-1.2,9.6,6.4,6.4,0,0,0,.2.7c0-.1.1-.1.1-.2h.2l.8-1.2c1.8-4,.9-8.4,1.1-12.7a27.7,27.7,0,0,1,1.1-7.1c.4-1,.7-2.1,1.2-3.1,1.5-3.1,3.2-6,3.2-9.5S48.5,72.1,45.6,71.1Z" style="fill:#69a18e"/><path d="M43.3,101.9c.3-3.4.3-6.7.3-10.1s.1-6.7.1-10.1-.1-6.7-.2-10.1h-.2c-.1,3.4-.2,6.7-.4,10.1s-.3,6.7-.5,10-.5,6.7-.6,10.1v3.9c-.1-1.2-.3-2.4-.4-3.5a78.2,78.2,0,0,0-2.1-9.6c-.8-3.1-1.7-6.3-2.8-9.3s-1.2-3.1-1.9-4.6a43.7,43.7,0,0,0-2.2-4.3h-.2a34.9,34.9,0,0,1,2,4.4c.6,1.5,1.1,3.1,1.6,4.6.9,3.1,1.7,6.2,2.4,9.4s1,6.3,1.7,9.5l.9,4.8c.1.4.3.9.4,1.4s-.5-1.5-.7-2.2l-2.3-5.7a82,82,0,0,0-6-10.8,75.5,75.5,0,0,0-7.3-9.8c-.6-.8-1.3-1.5-2-2.3l-2.3-2.1a29.5,29.5,0,0,0-4.9-3.6h0a24.4,24.4,0,0,1,4.6,3.9,21.8,21.8,0,0,1,2.1,2.2c.7.7,1.3,1.5,2,2.3a76.5,76.5,0,0,1,6.8,10c2.1,3.4,3.7,7.1,5.6,10.7l2.7,5.5.3.7c-.1-.2-.1-.3-.2-.4a27.1,27.1,0,0,0-3-4.5,45.6,45.6,0,0,0-7.4-7.8,58.1,58.1,0,0,0-8.6-6.4,51,51,0,0,0-9.7-4.7h-.1A50.4,50.4,0,0,1,20.2,89a65.8,65.8,0,0,1,8.2,6.6c.7.6,1.2,1.3,1.9,1.9l1.2,1.4h-.8v.2c0,.3.2.5.3.8v.2c.1-.1.2-.4.6-.3h.1c.3,0,.4-.2.5-.4,1.1,1.3,2.3,2.6,3.3,4s2.2,2.8,3.3,4.2l.7.9a38.2,38.2,0,0,0-4.5-4.5,44.6,44.6,0,0,0-9-6.1,63.3,63.3,0,0,0-10-4.4A49.9,49.9,0,0,0,5.2,91.3h0a45.6,45.6,0,0,1,10.4,2.8A57.9,57.9,0,0,1,25.3,99a87.2,87.2,0,0,1,8.7,6.3c1.4,1,2.7,2.2,4.1,3.4a17.1,17.1,0,0,1,2,1.8l2.1,1.7h.1a6.4,6.4,0,0,1-.2-.7A78.7,78.7,0,0,0,43.3,101.9Z" style="fill:#4e7f75"/><path d="M95.1,128.3c-1.4-1.8-3.6-2.6-5.2-4.1l-.9-1.1a26.4,26.4,0,0,1-3.4-7.2c-1.2-3-2.8-6.1-5.8-7.2a8.6,8.6,0,0,0-4.5-.1l-.5.2a16.9,16.9,0,0,0-4.3,2c-2.6,1.6-5,3.5-7.9,4.2h-1c-3.9.5-8.2-1.6-11.6.3a7.1,7.1,0,0,0-3.2,5.5v1a8.1,8.1,0,0,0,.1,1.6,13.3,13.3,0,0,0,2.1,4.7,16.3,16.3,0,0,0,1.1,1.7c.6.8,1.2,1.5,1.7,2.3a25.1,25.1,0,0,1,4.2,9.6c.9,4.1.9,8.7,3.4,12.3a4.1,4.1,0,0,0,1.4,1.2v-.7c-1.1-3-2.1-6.1-2.9-9.2s-1.5-6.6-2.2-9.9-1.3-6.6-1.9-9.9-1.2-6.6-1.7-9.9h.1c.8,3.3,1.5,6.6,2.3,9.8l2.4,9.8c.8,3.3,1.7,6.5,2.4,9.8.3,1.3.5,2.6.8,3.8l-.3-3.5a64.2,64.2,0,0,1,.3-9.8c.2-3.2.5-6.5,1-9.7.3-1.6.6-3.2,1-4.8a41.9,41.9,0,0,1,1.4-4.7h.2a35.7,35.7,0,0,0-1.1,4.7c-.3,1.6-.5,3.2-.7,4.8a77.7,77.7,0,0,0-.6,9.7c-.1,3.2.1,6.4,0,9.7v4.8c0,.5-.1,1-.1,1.4l.3-2.3c.3-2,.8-4,1.2-6a83.2,83.2,0,0,1,3.9-11.6,74.2,74.2,0,0,1,5.3-11l1.6-2.6,1.8-2.5a29.9,29.9,0,0,1,4.2-4.5h.1a28,28,0,0,0-3.9,4.6L74,118.3l-1.5,2.6A77.5,77.5,0,0,0,67.7,132c-1.4,3.8-2.4,7.7-3.5,11.6l-1.7,5.9a1.9,1.9,0,0,1-.2.7l.2-.4a31.1,31.1,0,0,1,2.1-5,44.6,44.6,0,0,1,5.8-9,61,61,0,0,1,7.3-7.9,44.9,44.9,0,0,1,8.7-6.3h0a48,48,0,0,0-8.2,6.7,58.4,58.4,0,0,0-6.8,8.1c-.6.7-1,1.5-1.5,2.2a8.6,8.6,0,0,0-1,1.6h0a2.2,2.2,0,0,1,.8,0h.1c.1.4-.1.7-.1.9v.2c0-.1-.2-.4-.6-.1H69c-.3,0-.5-.1-.5-.3-.9,1.5-1.8,3-2.6,4.5s-1.6,3.1-2.5,4.7l-.6,1.4a36.2,36.2,0,0,1,3.7-5.6,47.4,47.4,0,0,1,7.8-7.7,54.8,54.8,0,0,1,9-6.1,41.6,41.6,0,0,1,10-4.2h.1a48.3,48.3,0,0,0-9.7,4.7,54.9,54.9,0,0,0-8.6,6.4,68.2,68.2,0,0,0-7.4,7.8c-1.3,1.3-2.3,2.7-3.5,4.1l-1.6,2.1-1.7,2.1h.6a3.8,3.8,0,0,0,2.4-1.1l.3-.3,1.3-1.4,4.5-4.9.3-.3.9-.8,2.4-2.2c4.2-3.3,9.4-5.5,14.3-7.3l1.1-.4C92.7,135.3,98.5,132.6,95.1,128.3Z" style="fill:#69a18e"/><path d="M60.8,155.3h.1l1.7-2.1,1.6-2.1c1.2-1.4,2.2-2.8,3.5-4.1a68.2,68.2,0,0,1,7.4-7.8,54.9,54.9,0,0,1,8.6-6.4,48.3,48.3,0,0,1,9.7-4.7h-.1a41.6,41.6,0,0,0-10,4.2,54.8,54.8,0,0,0-9,6.1,47.4,47.4,0,0,0-7.8,7.7,36.2,36.2,0,0,0-3.7,5.6l.6-1.4c.9-1.6,1.6-3.2,2.5-4.7s1.7-3,2.6-4.5c0,.2.2.3.5.3h.1c.4-.3.6,0,.6.1v-.2c0-.2.2-.5.1-.9h-.1a2.2,2.2,0,0,0-.8,0h0a8.6,8.6,0,0,1,1-1.6c.5-.7.9-1.5,1.5-2.2a58.4,58.4,0,0,1,6.8-8.1,48,48,0,0,1,8.2-6.7h0a44.9,44.9,0,0,0-8.7,6.3,61,61,0,0,0-7.3,7.9,44.6,44.6,0,0,0-5.8,9,31.1,31.1,0,0,0-2.1,5l-.2.4a1.9,1.9,0,0,0,.2-.7l1.7-5.9c1.1-3.9,2.1-7.8,3.5-11.6a77.5,77.5,0,0,1,4.8-11.1l1.5-2.6,1.7-2.6a28,28,0,0,1,3.9-4.6h-.1a29.9,29.9,0,0,0-4.2,4.5L73.5,118l-1.6,2.6a74.2,74.2,0,0,0-5.3,11,83.2,83.2,0,0,0-3.9,11.6c-.4,2-.9,4-1.2,6l-.3,2.3c0-.4.1-.9.1-1.4v-4.8c.1-3.3-.1-6.5,0-9.7a77.7,77.7,0,0,1,.6-9.7c.2-1.6.4-3.2.7-4.8a35.7,35.7,0,0,1,1.1-4.7h-.2a41.9,41.9,0,0,0-1.4,4.7c-.4,1.6-.7,3.2-1,4.8-.5,3.2-.8,6.5-1,9.7a64.2,64.2,0,0,0-.3,9.8l.3,3.5c-.3-1.2-.5-2.5-.8-3.8-.7-3.3-1.6-6.5-2.4-9.8l-2.4-9.8c-.8-3.2-1.5-6.5-2.3-9.8h-.1c.5,3.3,1.1,6.6,1.7,9.9s1.2,6.6,1.9,9.9,1.3,6.6,2.2,9.9,1.8,6.2,2.9,9.2v.7Z" style="fill:#4e7f75"/><path d="M46.8,40.7v0Z" style="fill:#69a18e"/><path d="M68.2,10.7c-4.1-2.1-9.1.4-13.7,0s-6.1-2.1-8.9-3.9L44,5.8c-3.4-2-7.5-3.7-11.1-2.3s-5.4,5.1-6.7,8.6S24,19.4,21.3,22s-4.4,2.8-6,4.9c-4.3,5.8,4.5,9,8.7,10.4,5.8,2,12,4.5,17,8.3a32.3,32.3,0,0,1,4,3.5l.6.6c2.4,2.4,4.6,5.1,7.1,7.4a3.9,3.9,0,0,0,3.4,1h.2l-2-2.5a16.9,16.9,0,0,0-2-2.5c-1.4-1.6-2.6-3.3-4.1-4.9l-2.1-2.3-2.2-2.3a23.9,23.9,0,0,0-2.3-2.2,24.1,24.1,0,0,0-2.4-2.1A66.4,66.4,0,0,0,28.9,32a50.6,50.6,0,0,0-11.6-5.3h0a56.8,56.8,0,0,1,12,4.8,75.7,75.7,0,0,1,10.7,7,60.8,60.8,0,0,1,9.3,9,46,46,0,0,1,3.9,5.1,25.3,25.3,0,0,1,1.3,2.2A21,21,0,0,0,53.2,52c-1-1.8-1.8-3.7-2.9-5.5s-2.2-3.8-3.4-5.6c.1.2,0,.8-.5.8h-.1c-.4-.2-.6.1-.7.1v-.2c0-.3-.2-.5-.2-.9h1.4c-1.1-1.6-2.1-3.2-3.2-4.7a74.3,74.3,0,0,0-8.4-9.3A52.6,52.6,0,0,0,25.3,19h.1a61.9,61.9,0,0,1,10.3,7.3,63.8,63.8,0,0,1,8.8,9.2,62.4,62.4,0,0,1,7.1,10.5A60.4,60.4,0,0,1,55.7,56c-.5-1.6-1-3.2-1.4-4.9s-1.4-4.5-2-6.8c-1.5-4.6-2.7-9.2-4.5-13.6-.8-2.3-1.8-4.4-2.7-6.6l-1.6-3.2c-.6-1.1-1.2-2.1-1.7-3.2l-1.9-3.1a29.8,29.8,0,0,0-2-2.9,30.4,30.4,0,0,0-4.7-5.4h.1a30.8,30.8,0,0,1,5,5.2l2.1,2.9,2,3c.6,1.1,1.3,2.1,1.8,3.1l1.7,3.2q1.6,3.3,3,6.6a84.6,84.6,0,0,1,4.8,13.6c.6,2.4,1.1,4.7,1.6,7.1l.6,3.9c0-1-.1-2-.1-2.9s-.1-3.8-.1-5.7c-.1-3.8,0-7.7-.2-11.5s-.5-7.6-1-11.3L54,20.5c-.1-.9-.3-1.8-.5-2.8a55.4,55.4,0,0,0-1.4-5.5h.1c.7,1.8,1.3,3.7,1.8,5.5l.6,2.8.6,2.8c.7,3.8,1.1,7.6,1.5,11.5a109.4,109.4,0,0,1,.5,11.5l-.3,5.7a2.2,2.2,0,0,0-.1.8L58,45.9c.8-3.9,1.7-7.8,2.6-11.6s1.7-7.8,2.5-11.6,1.7-7.8,2.4-11.7h.2L63.9,22.8,61.8,34.5c-.7,3.9-1.4,7.8-2.3,11.7s-2,7.4-3.2,11c0,.3.1.5.1.8A3.9,3.9,0,0,0,58,56.5c2.9-4.3,2.7-9.6,3.7-14.5a31.4,31.4,0,0,1,4.7-11.5c2.3-3.3,4.9-6.3,5.6-10.4S71.4,12.4,68.2,10.7Z" style="fill:#69a18e"/><path d="M59.5,46.2c.9-3.9,1.6-7.8,2.3-11.7l2.1-11.7L65.7,11h-.2q-1.1,5.9-2.4,11.7c-.8,3.8-1.6,7.7-2.5,11.6S58.8,42,58,45.9l-1.2,6.8a2.2,2.2,0,0,1,.1-.8l.3-5.7a109.4,109.4,0,0,0-.5-11.5c-.4-3.9-.8-7.7-1.5-11.5l-.6-2.8L54,17.6c-.5-1.8-1.1-3.7-1.8-5.5h-.1a55.4,55.4,0,0,1,1.4,5.5c.2,1,.4,1.9.5,2.8l.5,2.9c.5,3.7.8,7.5,1,11.3s.1,7.7.2,11.5c0,1.9,0,3.8.1,5.7s.1,1.9.1,2.9l-.6-3.9c-.5-2.4-1-4.7-1.6-7.1a84.6,84.6,0,0,0-4.8-13.6q-1.4-3.3-3-6.6l-1.7-3.2c-.5-1-1.2-2-1.8-3.1l-2-3-2.1-2.9a30.8,30.8,0,0,0-5-5.2h-.1a30.4,30.4,0,0,1,4.7,5.4,29.8,29.8,0,0,1,2,2.9l1.9,3.1c.5,1.1,1.1,2.1,1.7,3.2l1.6,3.2c.9,2.2,1.9,4.3,2.7,6.6,1.8,4.4,3,9,4.5,13.6.6,2.3,1.3,4.5,2,6.8s.9,3.3,1.4,4.9a60.4,60.4,0,0,0-4.1-10.2,62.4,62.4,0,0,0-7.1-10.5,63.8,63.8,0,0,0-8.8-9.2,61.9,61.9,0,0,0-10.3-7.3h-.1a52.6,52.6,0,0,1,9.9,7.7A74.3,74.3,0,0,1,43.6,36l3.3,4.9a.5.5,0,0,0-.5-.3h-1c0,.4.2.6.2.9v.2c.1,0,.3-.3.7-.1h.1c.5,0,.6-.6.5-.8,1.2,1.8,2.3,3.7,3.4,5.6s1.9,3.7,2.9,5.5a21,21,0,0,1,1.3,2.6,25.3,25.3,0,0,0-1.3-2.2,46,46,0,0,0-3.9-5.1,60.8,60.8,0,0,0-9.3-9,75.7,75.7,0,0,0-10.7-7,56.8,56.8,0,0,0-12-4.8h0A50.6,50.6,0,0,1,28.9,32a66.4,66.4,0,0,1,10.3,7.3,24.1,24.1,0,0,1,2.4,2.1,23.9,23.9,0,0,1,2.3,2.2l2.2,2.3,2.1,2.3c1.5,1.6,2.7,3.3,4.1,4.9a16.9,16.9,0,0,1,2,2.5l2,2.5h.1c0-.3-.1-.5-.1-.8C57.5,53.6,58.6,49.9,59.5,46.2Z" style="fill:#4e7f75"/><path d="M35.8,3c2.8,0,5.7,1.3,8.2,2.8l1.6,1c2.8,1.8,5.6,3.5,8.9,3.9h1.2c2.8,0,5.7-.9,8.5-.9a9.3,9.3,0,0,1,4,.9c3.2,1.7,4.4,5.9,3.8,9.4s-3.3,7.1-5.6,10.4A31.4,31.4,0,0,0,61.7,42c-1,4.9-.8,10.2-3.7,14.5A3.9,3.9,0,0,1,56.4,58h-.2l.5,4.7,1.4,17.6c.8,11.6,1.6,23.2,2.3,34.8h2.2c2.9-.7,5.3-2.6,7.9-4.2a16.9,16.9,0,0,1,4.3-2c.6-4.1,1.3-8.2,2-12.3h-.1c.1-.2.1-.4.2-.6s-.3-1.6-.4-2.4c.1.8.3,1.6.4,2.4s-.1.4-.2.6A3.8,3.8,0,0,1,75.6,95c-1.8-4-.9-8.5-1-12.7A25.8,25.8,0,0,0,72.3,72c-1.4-3-3.2-6-3.2-9.5s1.7-6.3,4.6-7.3a6.4,6.4,0,0,1,2-.3c3.1,0,6.2,2,9.4,2.2h.7a11.3,11.3,0,0,0,3.2-.5,53.7,53.7,0,0,0,5.6-2.1,16.3,16.3,0,0,1,5.8-1.3,7.5,7.5,0,0,1,3.8,1c2.7,1.6,3.8,5,4.3,8.1s.9,6.4,2.7,8.9,3.3,3.1,4.3,5.1c2.8,5.4-5,6.8-8.7,7.4s-10.7,2-15.4,4.4L89,89.6l-1.5,1c-2.6,1.8-4.9,3.9-7.6,5.6a3.9,3.9,0,0,1-1.9.6l-1-.2c-.6,4-1.2,8-1.7,12h0a14.6,14.6,0,0,1,2.2-.3,9.3,9.3,0,0,1,2.3.4c3,1.1,4.6,4.2,5.8,7.2a26.4,26.4,0,0,0,3.4,7.2l.9,1.1c1.6,1.5,3.8,2.3,5.2,4.1,3.4,4.3-2.4,7-6.1,8.5l-1.1.4c-4.9,1.8-10.1,4-14.3,7.3l-2.4,2.2h0c-.1,2-.3,4-.5,6-.8,9.7-1.4,19.5-2.1,29.3l-.8,11H65.4c0-2.6,0-5.1-.1-7.7-.3-10.4-.7-20.8-1.1-31.2l.6-.7.7-.7c.7,10.9,1.2,21.7,1.3,32.6a26.2,26.2,0,0,1,0,2.8l.3-6.2c.5-9.8,1.4-19.6,2.4-29.4.1-1.5.3-3.1.5-4.7l.3-.3-.3.3-4.5,4.9-.7.7-.6.7-.3.3a4.6,4.6,0,0,1-1.5.9c.5,10.3.9,20.6,1.3,31L64,193H59.3c-1.1-11.3-2.3-22.5-4.4-33.7-1-6.8-2.7-13.5-4.2-20.2l-2.7-10c-.9-3.3-2-6.6-3.1-9.9s-1.6-4.8-2.5-7.2c0,.1-.1.1-.1.2a6.4,6.4,0,0,1-.2-.7,6.4,6.4,0,0,0,.2.7h-.1a2.7,2.7,0,0,1-1.2.3,3.5,3.5,0,0,1-1.9-.6c-2.7-1.7-5-3.8-7.6-5.6a25.5,25.5,0,0,0-3.9-2.4,51.2,51.2,0,0,0-14.9-4.4h-.4c-3.7-.6-11.5-2-8.7-7.5,1-1.9,3-3.2,4.3-5s2.2-5.8,2.7-8.9a16.3,16.3,0,0,1,2.1-5.7A7.5,7.5,0,0,1,15,69.9a7.3,7.3,0,0,1,3.8-.9,15.2,15.2,0,0,1,5.8,1.3c2.8,1.1,5.8,2.6,8.8,2.6H34c3.3-.3,6.4-2.2,9.5-2.2a6.9,6.9,0,0,1,2,.3h.1c2.9,1,4.4,4.2,4.4,7.2s-1.7,6.4-3.2,9.5c-.5,1-.8,2.1-1.2,3.1v26.5l.6,1.5.6,1.9a7.1,7.1,0,0,1,3.2-5.4,7.6,7.6,0,0,1,3.6-.8,29.8,29.8,0,0,1,4.2.4c-.4-11.5-.8-23-1.3-34.5l-.8-17.6-.4-4.7a4.3,4.3,0,0,1-2.6-1.1c-2.5-2.3-4.7-5-7.1-7.4l-.6-.6a32.3,32.3,0,0,0-4-3.5c-5-3.8-11.2-6.3-17-8.3-4.2-1.4-13-4.6-8.7-10.4,1.6-2.1,4.1-3.1,6-4.9s3.7-6.4,4.9-9.9,3.2-7.2,6.7-8.6A9.3,9.3,0,0,1,35.8,3M33.2,6.3l1.3,1.2h0L33.2,6.3h0M39,13.1a17.1,17.1,0,0,1-1.1-1.4l-1-1.5,1,1.5A17.1,17.1,0,0,0,39,13.1m13.1-.9h.1a7.8,7.8,0,0,1,.5,1.4,7.8,7.8,0,0,0-.5-1.4h-.1m2.5,8.2L54,17.6c-.3-.9-.5-1.8-.8-2.8.3,1,.5,1.9.8,2.8l.6,2.8M42.4,17.3h0l.9,1.6-.9-1.6h0a17,17,0,0,0-1.5-2.2,17,17,0,0,1,1.5,2.2M25.3,18.9h0L28,20.7,25.3,19h0M54,20.5l.5,2.9c.4,2.8.6,5.6.8,8.5.1.9.1,1.9.2,2.8s.1,1.9.1,2.9c0-1-.1-1.9-.1-2.9s-.1-1.9-.2-2.8c-.2-2.9-.4-5.7-.8-8.5L54,20.5a7.8,7.8,0,0,0-.2-1.4,7.8,7.8,0,0,1,.2,1.4m-8.9,3.6a11.1,11.1,0,0,0,.7,1.6,11.1,11.1,0,0,1-.7-1.6l-1.6-3.2,1.6,3.2m-5.5,7.1a62.5,62.5,0,0,0-4.4-4.5,61.4,61.4,0,0,0-4.7-4.2,61.4,61.4,0,0,1,4.7,4.2,62.5,62.5,0,0,1,4.4,4.5M17.3,26.6h0m35,17.7c-1.5-4.6-2.7-9.2-4.5-13.6a18.6,18.6,0,0,0-1-2.5,18.6,18.6,0,0,1,1,2.5c1.8,4.4,3,9,4.5,13.6M28.9,32l2.7,1.6L28.9,32l-2.8-1.6L28.9,32M57.2,44.6v1.6c0,.9-.1,1.9-.1,2.8,0-.9.1-1.9.1-2.8V44.6c0-1.4,0-2.8-.1-4.2s-.2-3.8-.4-5.7l-.3-2.9.3,2.9c.2,1.9.3,3.8.4,5.7s.1,2.8.1,4.2m-18-5.3h0a6.3,6.3,0,0,1,1.2,1l1.2,1.1.6.6-.6-.6-1.2-1.1a6.3,6.3,0,0,0-1.2-1h0l-2.4-2,2.4,2m7.6,1.4h0l-1.6-2.4,1.6,2.4m7.3,4.9a11.6,11.6,0,0,0-.4-1.8c-.3-1.1-.6-2.3-1-3.4.4,1.1.7,2.3,1,3.4a11.6,11.6,0,0,1,.4,1.8m-8.7-5a.9.9,0,0,0,.1.5.9.9,0,0,1-.1-.5h0m1,0h0m.1,0h0m-1,.7c.1.1.1.1.1.2v0c0-.1,0-.1-.1-.2h0m.8.3h0m10.9,8.5c-.1.8-.3,1.7-.4,2.6h0c.1-.9.3-1.8.4-2.6s.5-2.8.8-4.2l.6-2.9L58,45.9c-.3,1.4-.5,2.8-.8,4.2M46.1,45.9l1,1.2-1-1.2-2.2-2.3,2.2,2.3m6.4,4.7c-.5-.9-.9-1.8-1.5-2.7.6.9,1,1.8,1.5,2.7m3.4,3.9v.3h0v-.3h0m47.6,2.1h0M86.9,58.8h0c-.7,1.4-1.4,2.9-2,4.4l-1.5,4.6,1.5-4.6c.6-1.5,1.3-3,2-4.4h0m8.8,4.9a5.2,5.2,0,0,0,1-1.1l1.1-1.1-1.1,1.1a5.2,5.2,0,0,1-1,1.1M76.5,71c0,1.7.1,3.3.2,5s.1,1.7.1,2.5c0-.8-.1-1.7-.1-2.5s-.2-3.3-.2-5h0M15.6,72.1h0m19,6.6a43.7,43.7,0,0,0-2.2-4.3h0a43.7,43.7,0,0,1,2.2,4.3m73.9-2.2,5.4-.8-5.4.8m5.4-.7h0M75.5,81.1v0M34.2,78.9a20.9,20.9,0,0,1,.8,2.3,20.9,20.9,0,0,0-.8-2.3l-.9-2.2.9,2.2M22.9,77.8l1.5,1.7-1.5-1.7-1.1-1,1.1,1m-.5.5.5.5-.5-.5-.5-.6.5.6m67.3,2.6a4.3,4.3,0,0,1,1-.9,15.7,15.7,0,0,1,1.9-1.8A15.7,15.7,0,0,0,90.7,80a4.3,4.3,0,0,0-1,.9m-9.4,5.4.6-1.4c.8-1.8,1.8-3.6,2.8-5.4-1,1.8-2,3.6-2.8,5.4l-.6,1.4m-.7-2c.3-1.6.5-3.2.8-4.8-.3,1.6-.5,3.2-.8,4.8M77,81.1c.1,1.7.2,3.3.2,5a12.1,12.1,0,0,0,.1,1.9,12.1,12.1,0,0,1-.1-1.9c0-1.7-.1-3.3-.2-5h0M38,87.9l-1.5-4.6L36,82.1l.5,1.2L38,87.9m49.6-4.7h0m-76.8.6h0L13.3,85h0l-2.5-1.1h0m74.5,2c.5-.7,1.1-1.3,1.7-2h0c-.6.7-1.2,1.3-1.7,2m2.1-1.6h0M32.2,89.9c-1.1-1.7-2.2-3.4-3.4-5,1.2,1.6,2.3,3.3,3.4,5m9.9,6.9.3-5.1c.1-1.6.2-3.3.2-5,0,1.7-.1,3.4-.2,5l-.3,5.1m38-6.6a40.5,40.5,0,0,1,2.3-3.4,40.5,40.5,0,0,0-2.3,3.4M20.2,89l4.2,3.1c1.4,1.1,2.7,2.3,4,3.5l.9,1h0l-.9-1c-1.3-1.2-2.6-2.4-4-3.5L20.2,89l-2.3-1.5L20.2,89m57.1.9c0-.5.1-1.1.1-1.7s-.1,1.2-.1,1.7h0m1.6,4.8,2-1.8,1-.8L84,90.3l-2.1,1.8-1,.8-2,1.8m.3-3h0l.3-.7-.3.7m-68.7.9a31.2,31.2,0,0,0-5.3-1.1h0a31.2,31.2,0,0,1,5.3,1.1m67.4.2h0l.3-1.1-.3,1.1m-36.5,9.4c.1,1.1.3,2.3.4,3.5h0c-.1-1.2-.3-2.4-.4-3.5A54,54,0,0,0,39.9,95a54,54,0,0,1,1.5,7.2m-4,1.5a4.4,4.4,0,0,0-.8-1.1,23,23,0,0,0-3.5-4.1,23,23,0,0,1,3.5,4.1,4.4,4.4,0,0,1,.8,1.1m-5.9-4.8h0m-.9.3V99h0v.2m1,.7c.2,0,.3,0,.3-.1s-.1.1-.3.1m-.4,0H31c-.1,0-.1,0-.1.1h0c0-.1,0-.1.1-.1h.2m8.7,2.5c.2.8.3,1.6.5,2.4a15.5,15.5,0,0,0,.4,2.1h0a15.5,15.5,0,0,1-.4-2.1c-.2-.8-.3-1.6-.5-2.4a20,20,0,0,1-.4-2.4,20,20,0,0,0,.4,2.4m-8,1.2-3.3-2.4,3.3,2.4m3.5-.1,1.7,2.1-1.7-2.1-1.6-2,1.6,2m1.9,2.8a25,25,0,0,0-2.4-2.2l-2.1-1.8,2.1,1.8a25,25,0,0,1,2.4,2.2m2.2.5c0,.1.1.2.2.4v.3h0v-.3c-.1-.2-.2-.3-.2-.4s-.9-1.8-1.4-2.8c.5,1,.9,1.9,1.4,2.8m-1.6-.2a7.6,7.6,0,0,1,.8,1.1l.4.4-.4-.4a7.6,7.6,0,0,0-.8-1.1h0m1.5,2-1-1.2,1,1.2h0m-1.3.1a17.1,17.1,0,0,1,2,1.8l1,.9-1-.9a17.1,17.1,0,0,0-2-1.8l-1-.9,1,.9m5.1,2.4a.8.8,0,0,1,.2-.4.8.8,0,0,0-.2.4h0m31.2,5.6.9-1.2,1-1.2-1,1.2-.9,1.2m-22.2-1.1h0m11.4.7h0m14.6,12.1a48,48,0,0,1,8.2-6.7,48,48,0,0,0-8.2,6.7m-22.5,7.1c.2.8.3,1.7.5,2.5-.2-.8-.3-1.7-.5-2.5-.7-3.3-1.3-6.6-1.9-9.9.6,3.3,1.2,6.6,1.9,9.9m20.1-5.8,1.9-1.8,2.1-1.8-2.1,1.8-1.9,1.8M93.4,128h0m-5,2.2a44,44,0,0,1,5-2.1,44,44,0,0,0-5,2.1M59.3,171.8c-.1-6.2-.3-12.4-.4-18.6-2-3.4-2-7.6-2.9-11.4a25.1,25.1,0,0,0-4.2-9.6c-.5-.8-1.1-1.5-1.7-2.3l-.6-.9,2.9,9.8c1.6,6.7,3.4,13.5,4.6,20.2.8,4.3,1.6,8.5,2.3,12.8m10.6-33.1c.5-.7.9-1.5,1.5-2.2a59,59,0,0,1,5-6.2,59,59,0,0,0-5,6.2c-.6.7-1,1.5-1.5,2.2m-8.6-5.4h0m13,5a36.1,36.1,0,0,1,4.4-3.3,36.1,36.1,0,0,0-4.4,3.3m-5.5-.4,1.6-2.1-1.6,2.1m6.3,1.3c1.3-1.2,2.7-2.3,4.1-3.4-1.4,1.1-2.8,2.2-4.1,3.4m-8.6,2.1L68,139l-1.5,2.3m3.2-1h0m-.8,0h0m-.3.9h0V141h0v.2m1.1,0h0v0M66.8,148a4.3,4.3,0,0,1,.9-1l1.7-2.1c1.2-1.3,2.4-2.6,3.7-3.8-1.3,1.2-2.5,2.5-3.7,3.8L67.7,147a4.3,4.3,0,0,0-.9,1m2.9-6.6h0m-5.8,8.2a19.8,19.8,0,0,0-1.1,2h0a19.8,19.8,0,0,1,1.1-2c.8-1.2,1.7-2.5,2.6-3.6a28.6,28.6,0,0,1,3.7-4.1,28.6,28.6,0,0,0-3.7,4.1c-.9,1.1-1.8,2.4-2.6,3.6m-1.9-3c.2-1.1.4-2.3.7-3.4-.3,1.1-.5,2.3-.7,3.4h0m.3,3.6.2-.4A29.9,29.9,0,0,1,64,146a29.9,29.9,0,0,0-1.5,3.8l-.2.4M35.8,0h0a10.9,10.9,0,0,0-4,.7C26.4,2.8,24.1,9,23.4,11s-.3,1.1-.5,1.6c-1,2.8-1.9,5.5-3.7,7.2A21.1,21.1,0,0,1,17,21.5a16.8,16.8,0,0,0-4.1,3.6,7.5,7.5,0,0,0-1.4,6.8C13,36.7,19.7,39,23,40.1,30.1,42.5,35.2,45,39.2,48a25.5,25.5,0,0,1,3.7,3.2l.3.3.3.3,2.6,2.8c1.5,1.6,3,3.2,4.6,4.7a9.4,9.4,0,0,0,1.8,1.2l.2,2.6.8,17.6c.4,9.4.8,19.3,1.2,30.9H53.6a10.3,10.3,0,0,0-5,1.2V91.4c.3-.9.6-1.6.9-2.3a10.1,10.1,0,0,0,.7-1.5C51.5,85,53,82,53,78.4s-2.5-8.7-6.2-10.1h-.4a9.3,9.3,0,0,0-2.9-.5,18.1,18.1,0,0,0-5.8,1.2,16,16,0,0,1-3.9,1h-.4c-1.9,0-4-.9-6.1-1.8l-1.6-.6A19.1,19.1,0,0,0,18.8,66a10.2,10.2,0,0,0-5.3,1.3,12.1,12.1,0,0,0-3.4,3.4,20.1,20.1,0,0,0-2.4,6.8l-.3,1.3c-.4,2.5-.7,4.8-1.9,6.4L3.9,86.8a14.8,14.8,0,0,0-3,3.8,6.8,6.8,0,0,0-.3,6.2c1.8,3.6,6.5,4.8,11.2,5.5h.4a49.4,49.4,0,0,1,14.1,4.2l3.5,2.2a35.5,35.5,0,0,1,3.1,2.3c1.5,1.1,3,2.3,4.6,3.3a6.8,6.8,0,0,0,3,1.1l1.6,4.6c.3,1.2.7,2.3,1.1,3.5s1.4,4.2,2,6.3l2.6,9.9.9,3.8c1.2,5.3,2.4,10.8,3.3,16.1h0c2.1,11.3,3.3,23.1,4.3,33.5a3.1,3.1,0,0,0,3,2.7h8.5a3,3,0,0,0,3-2.8l.8-11,.9-12.2c.3-5.6.7-11.4,1.2-17.1l.3-3.6c0-.4.1-.8.1-1.2a7.5,7.5,0,0,1,1.4-1.2c3.2-2.6,7.5-4.8,13.4-6.9l1.2-.4c3.5-1.4,7.7-3.4,8.8-7.1a6.8,6.8,0,0,0-1.5-6.1,14.5,14.5,0,0,0-3.6-3.1A9.3,9.3,0,0,1,92,122l-.4-.5-.2-.3a19.5,19.5,0,0,1-2.7-5.4l-.3-1c-.7-1.8-2.7-7.1-7.6-8.9l-2.1-.5c.3-1.8.6-3.7.9-5.9a5.2,5.2,0,0,0,1.9-.8c1.6-1,3.1-2.2,4.6-3.3l3.1-2.3,1.4-.9a10.5,10.5,0,0,1,2.2-1.3c3.6-1.9,8.2-3.2,14.5-4.2,4.7-.7,9.3-1.9,11.1-5.5a6.4,6.4,0,0,0-.2-6.2,16.8,16.8,0,0,0-3-3.8,12.1,12.1,0,0,1-1.6-1.6c-1.1-1.6-1.5-3.9-1.9-6.4a5.9,5.9,0,0,1-.2-1.3c-.4-1.9-1.3-7.5-5.8-10.2a10.2,10.2,0,0,0-5.3-1.4,19.1,19.1,0,0,0-6.9,1.5l-1.5.6a22.2,22.2,0,0,1-3.8,1.4,12,12,0,0,1-2.4.4h-.5a24,24,0,0,1-3.8-1,18.2,18.2,0,0,0-5.8-1.3,8.8,8.8,0,0,0-2.9.5c-4,1.3-6.7,5.5-6.7,10.2s1.5,6.6,2.8,9.2a10.1,10.1,0,0,0,.7,1.5,23.8,23.8,0,0,1,2,9.1c0,1,0,2.1-.1,3.3-.1,3.3-.2,7,1.4,10.5a7.5,7.5,0,0,0,.7,1.2c-.6,3.4-1.1,6.4-1.5,9.2a16.6,16.6,0,0,0-3.2,1.7l-1.5.9a18,18,0,0,1-4.2,2.4c-.7-11.5-1.4-21.9-2.1-31.4L59.7,62.6h0l-.3-3a5.7,5.7,0,0,0,1-1.3c2.6-3.7,3.1-7.9,3.6-11.7a39.1,39.1,0,0,1,.7-3.9,26.8,26.8,0,0,1,4.2-10.4L70,30.7c2.1-2.9,4.3-6,5-10S73.7,10.3,69.6,8.1a12,12,0,0,0-5.4-1.3,35.6,35.6,0,0,0-4.7.5,25.8,25.8,0,0,1-3.8.4h-.9c-2.6-.3-5-1.8-7.6-3.4L45.5,3.2C41.9,1.1,38.7,0,35.8,0Z" style="fill:#28575c"/><path d="M89,201a32.5,32.5,0,0,0-3.1-4.2l-.9.2H42.6l-1-.2C34.5,205.4,30,217.9,30,232.1c0,16.4,6.3,23.3,15.6,26.2,5.4,1.6,11.8,1.9,18.6,1.9,10,0,18.8-.6,24.8-5.2s8.5-10.8,8.5-22.9S94.3,209.3,89,201Z" style="fill:#fcae7a"/><path d="M85,193H42.6a2.1,2.1,0,0,0-2.1,2,2.2,2.2,0,0,0,1.1,1.8l1,.2H85l.9-.2A2,2,0,0,0,85,193Z" style="fill:#e57225"/><path d="M81.7,258.6s16.8-1.7,15.9-28.9a59.5,59.5,0,0,0-10.9-32.9H44S88,202.2,81.7,258.6Z" style="fill:#e57225"/><path d="M85,193a2,2,0,0,1,.9,3.8A32.5,32.5,0,0,1,89,201c5.3,8.3,8.5,19.1,8.5,31.1s-3.2,19-8.5,22.9-14.8,5.2-24.8,5.2c-6.8,0-13.2-.3-18.6-1.9-9.3-2.9-15.6-9.8-15.6-26.2,0-14.2,4.5-26.7,11.6-35.3a2.2,2.2,0,0,1-1.1-1.8,2.1,2.1,0,0,1,2.1-2H85m0-3H42.6a5,5,0,0,0-5.1,5,4.7,4.7,0,0,0,.4,1.7C31,206.1,27,218.8,27,232.1c0,15.9,5.8,25.4,17.8,29,6,1.9,12.9,2.1,19.4,2.1,9.1,0,19.4-.4,26.6-5.8s9.7-13.2,9.7-25.3-3.2-23.6-9-32.7a21.1,21.1,0,0,0-1.8-2.7A4.7,4.7,0,0,0,90,195a5,5,0,0,0-5-5Z" style="fill:#6a3417"/></g></g></svg>