<svg xmlns="http://www.w3.org/2000/svg" viewBox="0 0 19.7 136.4"><g id="Layer_2" data-name="Layer 2"><g id="Layer_1-2" data-name="Layer 1"><path d="M17.2,10.5l-4,13.9L6.1,24,2.6,10.4C5.5,10.4,12.9,10.6,17.2,10.5Z" style="fill:#ffefb5"/><rect x="9.2" y="11.1" width="1.3" height="12.46" transform="translate(19.8 34.7) rotate(-180)" style="fill:#614c45"/><rect x="7.9" y="24.4" width="3.9" height="109.61" transform="translate(19.8 158.4) rotate(-180)" style="fill:#726659"/><rect x="6.7" y="119" width="6.3" height="15.38" transform="translate(19.8 253.4) rotate(-180)" style="fill:#614c45"/><rect x="5.4" y="23.6" width="9" height="1.59" transform="translate(19.8 48.7) rotate(-180)" style="fill:#614c45"/><rect x="6.8" y="26" width="6.1" height="1.59" transform="translate(19.8 53.7) rotate(-180)" style="fill:#614c45"/><rect x="2" y="9.3" width="15.7" height="1.89" transform="translate(19.8 20.4) rotate(-180)" style="fill:#614c45"/><polygon points="14.4 23.6 17.7 11.2 16.7 11.2 13.2 23.6 14.4 23.6" style="fill:#614c45"/><polygon points="5.4 23.6 2 11.2 3.1 11.2 6.6 23.6 5.4 23.6" style="fill:#614c45"/><polygon points="17.8 9.3 9.9 2 2 9.3 17.8 9.3" style="fill:#614c45"/><polygon points="9.9 2 3.2 9.3 5.3 9.3 9.9 2" style="fill:#705950"/><polygon points="9.9 2 6 9.3 6.9 9.3 9.9 2" style="fill:#705950"/><rect x="3.2" y="9.3" width="2.1" height="1.89" style="fill:#705950"/><rect x="6" y="9.3" width="0.9" height="1.86" style="fill:#705950"/><path d="M9.9,2l7.9,7.3h-.1v1.9L14.4,23.6v1.6H11.8V26h1.1v1.6H11.8V119H13v15.4H6.7V119H7.9V27.6H6.8V26H7.9v-.8H5.4V23.6L2,11.2V9.3H2L9.9,2m0-2A2.4,2.4,0,0,0,8.5.5L.6,7.8A2,2,0,0,0,0,9.6v1.6a1.1,1.1,0,0,0,.1.5L3.4,23.8v1.4a2,2,0,0,0,1.4,1.9v.5a2.1,2.1,0,0,0,1.1,1.8v87.7A2.1,2.1,0,0,0,4.7,119v15.4a2,2,0,0,0,2,2H13a2,2,0,0,0,2-2V119a2.1,2.1,0,0,0-1.2-1.9V29.4a1.9,1.9,0,0,0,1.1-1.8v-.5a1.9,1.9,0,0,0,1.5-1.9V23.8l3.3-12.1V9.5a1.9,1.9,0,0,0-.6-1.7L11.2.5A1.9,1.9,0,0,0,9.9,0Z" style="fill:#6a3417"/></g></g></svg>