<svg xmlns="http://www.w3.org/2000/svg" viewBox="0 0 54 32.5"><g style="isolation:isolate"><g id="Layer_2" data-name="Layer 2"><g id="Layer_1-2" data-name="Layer 1"><path d="M11,32a9.4,9.4,0,0,1-9.1-8.3L.5,10A8.2,8.2,0,0,1,2.4,3.9,7.6,7.6,0,0,1,8,1.5H42.1a9.3,9.3,0,0,1,9,8.3l1.4,13.8a7.3,7.3,0,0,1-1.9,6A7.4,7.4,0,0,1,45.1,32Z" style="fill:#f2b579"/><path d="M42.1,2a8.7,8.7,0,0,1,8.5,7.9L52,23.6a6.9,6.9,0,0,1-6.9,7.9H11a8.9,8.9,0,0,1-8.6-7.9L1,9.9A7,7,0,0,1,8,2H42.1m0-1H8A7.7,7.7,0,0,0,2.1,3.6,8.2,8.2,0,0,0,0,10L1.4,23.7A9.9,9.9,0,0,0,11,32.5H45.1a8,8,0,0,0,7.9-9L51.6,9.8A9.9,9.9,0,0,0,42.1,1Z" style="fill:#b25b2f"/><path d="M11.9,31a9.4,9.4,0,0,1-9.1-8.3L1.4,9A8.2,8.2,0,0,1,3.3,2.9,7.6,7.6,0,0,1,8.9.5H43a9.3,9.3,0,0,1,9,8.3l1.4,13.8a7.7,7.7,0,0,1-1.9,6A7.4,7.4,0,0,1,46,31Z" style="fill:#f4b876"/><path d="M43,1a8.8,8.8,0,0,1,8.5,7.9l1.4,13.7A6.9,6.9,0,0,1,46,30.5H11.9a8.9,8.9,0,0,1-8.6-7.9L1.9,8.9A7,7,0,0,1,8.9,1H43m0-1H8.9a7.9,7.9,0,0,0-6,2.6A8.5,8.5,0,0,0,.9,9L2.3,22.7a9.9,9.9,0,0,0,9.6,8.8H46a7.7,7.7,0,0,0,5.9-2.6,8.1,8.1,0,0,0,2-6.4L52.5,8.8A9.9,9.9,0,0,0,43,0Z" style="fill:#e28049"/><path d="M19,9.2h-.4c-.2,0-.3-.2-.4-.3s-.1-.4-.1-.6l.4-.6h.2l.2-.2h.2c1.7-1.1,6-3.7,10-3.7h.5a1.1,1.1,0,0,1,.8-.3h.5A1.3,1.3,0,0,1,31.5,5a1.1,1.1,0,0,1-1.1.7h-.5l-.4-.3h-.4C25,5.3,20.5,8.4,19.6,9H19Z" style="fill:#f4b876"/><path d="M30.4,3.7h.3a.7.7,0,0,1,.3,1,.5.5,0,0,1-.6.4h-.3c-.1-.1-.3-.2-.3-.4h-.7c-4.2,0-8.9,3.1-9.8,3.8h-.5c-.1,0-.1-.1-.1-.2s-.1-.1-.1-.2.1-.2.2-.3h0l.2-.2h.1l.3-.2C21.1,6.5,25.3,4,29.1,4h.7a.6.6,0,0,1,.6-.4m0-1a1.7,1.7,0,0,0-1,.3h-.3C25,3,20.6,5.6,18.8,6.8a.1.1,0,0,0-.1.1l-.4.2h-.1a1.8,1.8,0,0,0-.6.9,1.3,1.3,0,0,0,.2.9,1,1,0,0,0,.5.6H19a1,1,0,0,0,.7-.2h.2c.8-.6,5.3-3.6,9.2-3.6h.2l.3.3h.8a1.8,1.8,0,0,0,1.6-1,1.9,1.9,0,0,0-.8-2.3l-.8-.2Z" style="fill:#c1683d"/><path d="M35.1,17.5a.5.5,0,0,1-.5-.4h0a5.2,5.2,0,0,1-.2-1.1v-.3l.5-.8.2-.3a.4.4,0,0,1,.4-.2h.1a.4.4,0,0,1,.4.4c.1.7.1,1.3.2,2.1s0,.2,0,.3a.5.5,0,0,1-.4.2c-.1,0-.2,0-.2.1Z" style="fill:#f4b876"/><path d="M35.5,14.9c.1.7.1,1.4.2,2h-.6a4.3,4.3,0,0,1-.2-1.1c.1-.3.3-.5.4-.8l.2-.2m0-1a.9.9,0,0,0-.8.4h-.1v.2l-.5.8a1.5,1.5,0,0,0-.1.7c.1.3.1.7.2,1a1.1,1.1,0,0,0,1,.9h.8a1,1,0,0,0,.7-.4.9.9,0,0,0,.1-.7c-.1-.7-.1-1.4-.2-2a1,1,0,0,0-.7-.9Z" style="fill:#c1683d"/><path d="M34.4,13.2h-.2c-.2,0-.3-.2-.3-.4s-.3-2.3-.4-3.1V9.3a.4.4,0,0,1,.1-.3l.5-.9a.4.4,0,0,1,.4-.3h0a.5.5,0,0,1,.5.3,10.6,10.6,0,0,1,.9,3.8.8.8,0,0,1-.2.5l-.4.2-.6.5Z" style="fill:#f4b876"/><path d="M34.5,8.3a9.7,9.7,0,0,1,.9,3.7l-.4.2-.6.5c-.2-1.3-.3-2.3-.4-3.1V9.3l.5-1m0-1h-.1a1.1,1.1,0,0,0-.8.7l-.5.7a.8.8,0,0,0-.1.7v.3c.1.8.2,1.9.4,3.1s.3.6.6.8h.4l.6-.2.6-.5.4-.2a1.1,1.1,0,0,0,.4-.9,10.2,10.2,0,0,0-1-4.1,1.1,1.1,0,0,0-.9-.5Z" style="fill:#c1683d"/><path d="M38.5,25.5h-.9l-.7-.2a.1.1,0,0,1-.1-.1l-.2-.2h0a8.9,8.9,0,0,1-.7-1.6.7.7,0,0,1,.3-.6l.3-.2h.7l.3.3.4.9a7,7,0,0,1,2.4.6.8.8,0,0,1,.4.7c-.1.2-.3.5-.5.5H38.5Z" style="fill:#f4b876"/><path d="M37,22.9a4,4,0,0,1,.6,1.3h.3a5.1,5.1,0,0,1,2.2.6c.1,0,.1.2,0,.2H37.7l-.6-.2a.1.1,0,0,1-.1-.1h0a3.8,3.8,0,0,1-.6-1.4l.4-.2c0-.1.1-.1.2-.2m.1-1-.6.2H36a.8.8,0,0,0-.5,1.1,4.5,4.5,0,0,0,.7,1.8h0l.3.3.3.2.7.2h2.8a1.3,1.3,0,0,0,.9-1,1.4,1.4,0,0,0-.7-1.2,9,9,0,0,0-2.2-.5l-.3-.7a1.3,1.3,0,0,0-.7-.6Z" style="fill:#c1683d"/><path d="M18.4,24.5a1.4,1.4,0,0,1-1.3-1.1v-.5a1.2,1.2,0,0,1,1.2-.8.9.9,0,0,1,.8.4h.1a4.5,4.5,0,0,0,.5-2.3V20a.5.5,0,0,1,.3-.5h.6l.2.2.2.2a.8.8,0,0,1,.2.5v.2a6.3,6.3,0,0,1-.7,3,2.4,2.4,0,0,1-1.9.8v0Z" style="fill:#f4b876"/><path d="M20.1,20l.2.2.3.2h0a5.1,5.1,0,0,1-.7,3,1.4,1.4,0,0,1-1.4.6h-.1a.9.9,0,0,1-.8-.6V23a.8.8,0,0,1,.7-.4l.5.2.4.2c.7,0,1-1.9,1-2.8s0-.2-.1-.2m0-1h-.4a.9.9,0,0,0-.5,1h0a5.4,5.4,0,0,1-.2,1.5h-.7a1.6,1.6,0,0,0-1.6,1.2,1.7,1.7,0,0,0-.1.7A1.8,1.8,0,0,0,18.4,25h.1a2.9,2.9,0,0,0,2.3-1,6.6,6.6,0,0,0,.8-3.2v-.3a.9.9,0,0,0-.4-.9h0l-.2-.2h-.1a1.1,1.1,0,0,0-.8-.3Z" style="fill:#c1683d"/><path d="M24.9,24.7c-1.4,0-2.4-1.2-2.9-3.5-.1,0-.1-.1-.1-.2a.5.5,0,0,1,.3-.5h.7l.5.4c.1.1.1.2.2.2a3.1,3.1,0,0,0,.6,1.3l.3.2.3-.2h.4a.5.5,0,0,1,.2.4.6.6,0,0,0,.1.4,2.2,2.2,0,0,0,.1.8.6.6,0,0,1-.1.4l-.4.2Z" style="fill:#f4b876"/><path d="M22.6,20.9l.5.4h0a9.1,9.1,0,0,0,.7,1.4c.2.2.4.4.6.4h.5c0,.2.1.3.1.5s.1.5.1.8h-.2c-1.4,0-2.1-1.5-2.5-3.1v-.2h.2m0-1h-.4a.1.1,0,0,1-.1.1H22a1.1,1.1,0,0,0-.6,1.1v.2c.7,3.2,2.3,3.9,3.4,3.9h.3a1,1,0,0,0,.7-.4,1.1,1.1,0,0,0,.2-.8,1.7,1.7,0,0,1-.1-.7.9.9,0,0,1-.1-.5,1,1,0,0,0-.4-.7l-.6-.2h-.4L24,21a.5.5,0,0,0-.2-.4h-.1l-.4-.5-.7-.2Z" style="fill:#c1683d"/><path d="M25.6,24.5h-.2a.5.5,0,0,1-.3-.3c-.1-.3-.1-.5-.2-.8V23c-.1-.1,0-.3.2-.4h.5a1.6,1.6,0,0,1,.6.8,1,1,0,0,1-.3,1.1Z" style="fill:#f4b876"/><path d="M25.4,23a.5.5,0,0,1,.3.5c.1.2.1.4-.1.5s-.1-.4-.2-.6V23m0-1h-.6a1,1,0,0,0-.4,1v.4a3.1,3.1,0,0,1,.2.8,1,1,0,0,0,.7.7h.3a.7.7,0,0,0,.6-.2,1.4,1.4,0,0,0,.5-1.6,1.4,1.4,0,0,0-.9-1.1Z" style="fill:#c1683d"/><g style="opacity:0.39;mix-blend-mode:multiply"><path d="M22,21.5a1.7,1.7,0,0,1-1-.3c-.2,0-.3-.2-.3-.4s-.1-.4-.1-.7a.8.8,0,0,1,.2-.5h.6a2.5,2.5,0,0,0,1.2.4h.6c.2,0,.3,0,.4.2s.1.4,0,.6l-.4.3H22Z" style="fill:#f4b876"/><path d="M21.1,20.1a3.3,3.3,0,0,0,1.5.5h.6l-.3.2h-.1c0,.1-.1.1-.2.2H22l-.8-.2c0-.2-.1-.5-.1-.7m2.1.4h0m-2.1-1.4h-.5a1,1,0,0,0-.5,1c0,.2.1.5.1.7a.9.9,0,0,0,.6.8A2.7,2.7,0,0,0,22,22h1l.3-.2h.2l.4-.3a.9.9,0,0,0,.3-.7.9.9,0,0,0-1-1h-.4c0,.1-.1.1-.2.1a2.4,2.4,0,0,1-.9-.3.7.7,0,0,0-.6-.2Z" style="fill:#c1683d"/></g><path d="M29.6,17h-.1l-3.7-1.1h-.2c-.1-.1-.3-.2-.3-.4s0-.3.1-.4l.3-.4.2-.3H26l1.5-1.5c1-1.2,2.2-2.4,3.4-3.6h.2a7.5,7.5,0,0,1,2.6-1.8h.4a1.1,1.1,0,0,1,.8.3,1.1,1.1,0,0,1,.1,1,6.4,6.4,0,0,1-.6,1.1l-1.1,1.5-.7.9a13.9,13.9,0,0,0-1.4,3.2l-.3.8-.2.2-.4.3-.4.3Z" style="fill:#f4b876"/><path d="M34.1,7.7l.4.2c.1.1.1.2,0,.4l-.5,1c-.5.7-1.3,1.6-1.8,2.4a17.8,17.8,0,0,0-1.8,4.1l-.4.3c-.2.1-.3.3-.4.4l-3.8-1.1.2-.3.4-.4c1.6-1.7,3.1-3.5,4.9-5.1a7.3,7.3,0,0,1,2.5-1.8h.3m0-1h-.5a8.5,8.5,0,0,0-2.9,1.9v.2a29.8,29.8,0,0,0-3.5,3.6L25.7,14h-.1l-.3.3-.3.4a1,1,0,0,0-.2.9,1.1,1.1,0,0,0,.7.6h.1l3.7,1h.3a.7.7,0,0,0,.6-.3l.4-.3.3-.2H31c.1-.1.3-.3.3-.4l.3-.8A15.4,15.4,0,0,1,33,12.3a8.6,8.6,0,0,0,.7-1l1.1-1.5a6.4,6.4,0,0,0,.6-1.1,1.2,1.2,0,0,0-.2-1.5,1.6,1.6,0,0,0-1.1-.5Z" style="fill:#c1683d"/><path d="M22,21.5a1.7,1.7,0,0,1-1-.3l-.3-.2h-.4l-.3-.3c-.1,0-.1-.1-.2-.2h-.1l-.7-1a.6.6,0,0,1-.1-.4l.3-.3.8-.5a5.3,5.3,0,0,0,1.4-1.2h0l.7-.9a5,5,0,0,0,.5-1.3,2.5,2.5,0,0,0,.2-.7c.1-.3.3-.5.5-.5h.4a2.3,2.3,0,0,1,2,1.4.8.8,0,0,0,.1.4,6.1,6.1,0,0,1-.8,3.4V19a5.4,5.4,0,0,1-1.4,1.8l-.3.3H22Z" style="fill:#f4b876"/><path d="M23.3,14h.3a1.9,1.9,0,0,1,1.6,1.1.4.4,0,0,0,.1.3,5.6,5.6,0,0,1-.8,3.1h-.1a7,7,0,0,1-1.2,1.8l-.3.2h-.1c0,.1-.1.1-.2.2H22l-.8-.2c0-.2-.1-.5-.1-.7h.8c.1,0,.2-.1.2-.3s-.1-.2-.3-.2H20.5a1.7,1.7,0,0,1,.1.7h.1v.3h-.1l-.3-.2-.2-.2h0l-.7-.9.8-.4,1.6-1.3h0l.7-1.1a3.8,3.8,0,0,0,.6-1.3h0a2.4,2.4,0,0,0,.2-.8m0-1a1.1,1.1,0,0,0-1,.9,1.3,1.3,0,0,1-.1.6h0a11.7,11.7,0,0,1-.5,1.1l-.6.8H21a6.9,6.9,0,0,1-1.3,1.1l-.7.4a.7.7,0,0,0-.5.6.8.8,0,0,0,.1.8,4.4,4.4,0,0,0,.8,1.1h0l.2.2.3.3h.5l.4.3A2.7,2.7,0,0,0,22,22h1l.3-.2h.2l.4-.3a6.4,6.4,0,0,0,1.4-2h.1a5.5,5.5,0,0,0,.8-3.7.9.9,0,0,0-.1-.5,2.7,2.7,0,0,0-2.4-1.7h-.4Z" style="fill:#c1683d"/><path d="M27.4,19.9a11.4,11.4,0,0,1-3.1-.9c-.1,0-.2-.1-.2-.3s-.1-.2,0-.4a6.5,6.5,0,0,0,.7-2.3,2,2,0,0,0-.1-.7,1.1,1.1,0,0,1,.1-.5h.9l4,1.2c.2,0,.3.2.4.4a1.7,1.7,0,0,1-.2.5,5.2,5.2,0,0,0-1.4,1.6,2.5,2.5,0,0,0-.4.7c0,.1-.1.2-.1.3s-.3.4-.5.4Z" style="fill:#f4b876"/><path d="M25.2,15.2h.3l4.1,1.2a6.1,6.1,0,0,0-1.5,1.7,5.6,5.6,0,0,0-.5.8.6.6,0,0,1-.1.4l-3-.8a5.4,5.4,0,0,0,.8-2.6,2.2,2.2,0,0,0-.1-.8m0-1a1.1,1.1,0,0,0-1,1.3.7.7,0,0,1,.1.5,4.1,4.1,0,0,1-.7,2.1,1.1,1.1,0,0,0,0,.8,1,1,0,0,0,.5.6l3.3.9h.1a1,1,0,0,0,1-.8c0-.1,0-.1.1-.2s.2-.4.3-.7a8.7,8.7,0,0,1,1.3-1.5.9.9,0,0,0,.3-1,.8.8,0,0,0-.7-.7l-3.9-1.1h-.7Z" style="fill:#c1683d"/><path d="M32.7,20.2a.5.5,0,0,1-.5-.3c-.1-.2-.1-.4.1-.5l.2-.3L33.7,17v-.2a.5.5,0,0,1,.4-.2h1.5l2.9-.4h.7l.2.4.3,2.4c0,.2-.1.5-.4.5a13.1,13.1,0,0,1-3.1.6h-.7l-2.9.2Z" style="fill:#f4b876"/><path d="M39,16.4a7.7,7.7,0,0,0,.2,1.5c0,.3.1.7.1,1l-3.1.5h-.7l-2.8.2.2-.3,1.3-2.3h1.5l3.3-.5m0-1h-.5l-2.9.4H34.2a.8.8,0,0,0-.8.5h-.1a19.6,19.6,0,0,1-1.2,2.1l-.3.3a.9.9,0,0,0,0,1,.9.9,0,0,0,.9.6h0l2.9-.2h.7a15,15,0,0,0,3.3-.6.9.9,0,0,0,.7-1.1h0c0-.2-.1-.5-.1-.8L40,16.3a1.6,1.6,0,0,0-.4-.7l-.6-.2Z" style="fill:#c1683d"/><path d="M16.3,20.2a7.6,7.6,0,0,1-2.1-.3h-.6l-.8-.6c-2.5-2.3-1.7-6.8.6-9.4a6.6,6.6,0,0,1,5-2.3,5.5,5.5,0,0,1,3.7,1.4l.5.5a6,6,0,0,1,1.2,4.9,6.8,6.8,0,0,1-1.7,3.5,8.2,8.2,0,0,1-2.5,1.9h-.4a8.3,8.3,0,0,1-2.1.6h-.8Z" style="fill:#f4b876"/><path d="M18.4,7.8a5,5,0,0,1,3.4,1.3l.4.4A5.3,5.3,0,0,1,23.3,14a7.1,7.1,0,0,1-1.5,3.3A8.1,8.1,0,0,1,19.4,19l-.4.2a6.7,6.7,0,0,1-1.9.5h-.8a5.4,5.4,0,0,1-2.1-.5h.1c-.1-.1-.2-.1-.2-.2h-.3l-.6-.5c-2.2-2-1.6-6.2.6-8.7a6.3,6.3,0,0,1,4.6-2.1m0-1a7,7,0,0,0-5.3,2.5c-2.5,2.7-3.3,7.6-.6,10.1l.8.6h.8a5.4,5.4,0,0,0,2.2.5h.9a9,9,0,0,0,2.2-.6l.5-.2a8.6,8.6,0,0,0,2.6-2,6.5,6.5,0,0,0,1.8-3.7A6.2,6.2,0,0,0,23,8.9l-.5-.6a6.1,6.1,0,0,0-4.1-1.5Z" style="fill:#c1683d"/><path d="M19.1,15.7a2.1,2.1,0,0,1-2-1.9,1.8,1.8,0,0,1,.4-1.4,1.8,1.8,0,0,1,1.3-.6,2.1,2.1,0,0,1,2.1,1.9,1.8,1.8,0,0,1-.4,1.4,2,2,0,0,1-1.4.6Z" style="fill:#f4b876"/><path d="M18.8,12.3a1.7,1.7,0,0,1,1.6,1.5,1.3,1.3,0,0,1-1.3,1.4h0a1.7,1.7,0,0,1-1.5-1.4,1.3,1.3,0,0,1,1.2-1.5h0m0-1h0a2.1,2.1,0,0,0-1.6.8,1.9,1.9,0,0,0-.6,1.8,2.5,2.5,0,0,0,2.5,2.3,2.1,2.1,0,0,0,1.7-.8,1.8,1.8,0,0,0,.6-1.7,2.6,2.6,0,0,0-2.6-2.4Z" style="fill:#c1683d"/><path d="M39.8,19.2h-.3c-.1,0-.2-.2-.2-.3a3.4,3.4,0,0,1-.1-1,7.6,7.6,0,0,1-.1-1.5.5.5,0,0,1,.4-.5l1.3-.2h1.4c.3,0,1.1,0,1.3.6s-.2,1.1-.7,1.6l-.5.4a9,9,0,0,1-2.4,1.1Z" style="fill:#f4b876"/><path d="M42.2,16c1,0,1.3.3.3,1.3a1,1,0,0,1-.5.4,7.6,7.6,0,0,1-2.2,1,3.1,3.1,0,0,1-.1-1,6.1,6.1,0,0,1-.1-1.4l1.2-.2h1.4m0-1H40.7l-1.3.2a1.1,1.1,0,0,0-.8,1.1,7.1,7.1,0,0,0,.1,1.4,3.1,3.1,0,0,0,.1,1,1.2,1.2,0,0,0,.4.8h.9a7.3,7.3,0,0,0,2.5-1.2l.6-.5c.3-.3,1.2-1.2.8-2.1a1.9,1.9,0,0,0-1.8-.9Z" style="fill:#c1683d"/><path d="M30.8,25.1H29.4L28,24.7l-1.2-.4-1.2-.6-.5-.3a.2.2,0,0,1-.2-.2h-.3a12.4,12.4,0,0,1-1.8-1.4l-.5-.4a.8.8,0,0,1-.2-.5c0-.2.1-.3.3-.4h.2A4.5,4.5,0,0,0,24,18.5h.1a.5.5,0,0,1,.5-.3H25a13.8,13.8,0,0,0,2.6.7c.1,0,.3.1.3.2a.6.6,0,0,1,.1.4,1.4,1.4,0,0,0,.1,1.1v.2a1.3,1.3,0,0,0,1,.4A4.2,4.2,0,0,0,32,19.8a.8.8,0,0,0,.2-.4l.4-.2,2.9-.2h.6l3.1-.6h.4a.5.5,0,0,1,.2.4c.1.4.1.9.2,1.3s.1.6.2.9a.8.8,0,0,1-.2.5l-.7.5a9.4,9.4,0,0,1-1.8,1.2l-.3.2h-.3l-.3.2A11.4,11.4,0,0,1,31,25.1Z" style="fill:#f4b876"/><path d="M24.5,18.6h.3l2.7.7a2.3,2.3,0,0,0,.1,1.4l.2.3a1.7,1.7,0,0,0,1.4.6,4.7,4.7,0,0,0,3.2-1.6l.3-.4,2.8-.2h.7l3.1-.5c.1.4.1.8.2,1.3s.1.6.2.9l-.7.5-1.7,1.2-.5.2-.4.3A11.8,11.8,0,0,1,31,24.6H29.4l-1.3-.3L27,23.8l-1.1-.5-.5-.3h0a1.1,1.1,0,0,1-.1-.5,2.8,2.8,0,0,0-.1-.9v-.3h0c0-.1,0-.2-.1-.2H23.9c-.1,0-.2.1-.2.3l.3.2h.8v.3c0,.2.1.6.1.9a14.1,14.1,0,0,1-1.8-1.4h0l-.5-.4c.1-.1.2-.1.2-.2h.1a5.7,5.7,0,0,0,1.5-2h.1m0-1a.9.9,0,0,0-.8.5h-.1c0,.1,0,.2-.1.2a3.4,3.4,0,0,1-1.1,1.5h-.1a.1.1,0,0,0-.1.1,1.1,1.1,0,0,0-.6.7,1.4,1.4,0,0,0,.3.9c.2.1.3.3.5.5h0l1.9,1.4.3.2.3.2.5.3,1.2.5,1.3.5,1.4.3H31a13.2,13.2,0,0,0,5.9-1.5h.5a.5.5,0,0,0,.4-.2,9.4,9.4,0,0,0,1.8-1.2h0l.7-.4a1.3,1.3,0,0,0,.4-1c-.1-.3-.1-.7-.2-1s-.1-.9-.2-1.3a1,1,0,0,0-.4-.7h-.8l-3,.5h-.7l-2.8.2a1.2,1.2,0,0,0-.8.4l-.2.3a3.2,3.2,0,0,1-2.4,1.3.8.8,0,0,1-.6-.2h-.1a2.1,2.1,0,0,1,0-.8,1.1,1.1,0,0,0-.1-.8,1,1,0,0,0-.7-.4,10.9,10.9,0,0,1-2.5-.7h-.7Z" style="fill:#c1683d"/><path d="M40.1,21.3h-.2c-.2-.1-.3-.2-.3-.4s-.1-.7-.2-1.1-.1-.6-.1-1a.5.5,0,0,1,.3-.6l1.1-.4,1-.5h.4l.3.2c.3.4.4.9,0,1.8a6.4,6.4,0,0,1-2,2Z" style="fill:#f4b876"/><path d="M42,17.7a1.1,1.1,0,0,1-.1,1.2,5.5,5.5,0,0,1-1.8,1.9c-.1-.3-.1-.7-.2-1s-.1-.7-.1-1.1l1.1-.4,1.1-.6m0-1-.6.2-.9.5-1,.4a.9.9,0,0,0-.7,1c0,.4.1.8.1,1.1s.1.8.2,1.1a1.2,1.2,0,0,0,.6.8h.4a.7.7,0,0,0,.6-.2,6.4,6.4,0,0,0,2.1-2.2,1.9,1.9,0,0,0,0-2.2c-.1-.3-.3-.4-.6-.5Z" style="fill:#c1683d"/><path d="M19.5,26.8H19a1.1,1.1,0,0,1-1-1.1,1.1,1.1,0,0,1,.3-.8.9.9,0,0,1,.7-.3h.7l.2-.2a8.2,8.2,0,0,0,.3-4,2.9,2.9,0,0,0-.2-.9c0-.1.1-.3.1-.4l.4-.2h1.7a.7.7,0,0,1,.4.6.7.7,0,0,1-.1.5.9.9,0,0,1-.6.3h-.2v.2a24.4,24.4,0,0,1,.1,2.6C21.7,25.5,20.9,26.8,19.5,26.8Z" style="fill:#f4b876"/><path d="M21.8,19.5h.1l.2.2c0,.2-.1.3-.2.3h-.8c0,.3.1.5.1.8a20.9,20.9,0,0,1,.1,2.5c-.1,1.2-.4,3-1.8,3h-.4a.7.7,0,0,1-.6-.7A.6.6,0,0,1,19,25h.7c.3,0,.4-.2.6-.5a7.4,7.4,0,0,0,.4-4.2,3,3,0,0,0-.2-1h1.3m0-1H20.5a.8.8,0,0,0-.7.4.8.8,0,0,0-.2.8c0,.3.1.6.1.9a7.2,7.2,0,0,1-.2,3.4H19a1.5,1.5,0,0,0-1.1.4,1.7,1.7,0,0,0-.4,1.2,1.6,1.6,0,0,0,1.4,1.6h.6c.8,0,2.7-.4,2.8-4a18.5,18.5,0,0,0-.1-2.3,1,1,0,0,0,.6-.5c.3-.2.3-.6.3-.9a1.4,1.4,0,0,0-.7-1Z" style="fill:#c1683d"/><path d="M41.6,27.2c-.6,0-.8-.1-.9-.2s-.6-.4-1.5-5.8c-.1-.7-.3-1.5-.4-2.3l-.3-2v-.4A37.4,37.4,0,0,1,38,12v-.2a.5.5,0,0,1,.2-.4l.3-.4.4-.2h0l.4.2a12.8,12.8,0,0,1,.9,5v.2a19.4,19.4,0,0,0,.2,2.4,7.6,7.6,0,0,0,.3,2.1,25.6,25.6,0,0,0,.9,3.8,1.4,1.4,0,0,0,.2.6h.6l1.8.3.4.4a.4.4,0,0,1,0,.5c0,.1-.2.2-.2.3a7.7,7.7,0,0,1-2.7.6Z" style="fill:#f4b876"/><path d="M38.8,11.3a15.6,15.6,0,0,1,.8,4.8v.2a16.6,16.6,0,0,0,.2,2.4q.2,1.2.3,2.1a20.6,20.6,0,0,0,.9,3.9,10,10,0,0,0,.4,1.1l.9-.2a7.4,7.4,0,0,1,1.7.3c.1,0,.1.1.1.2H44a5.3,5.3,0,0,1-2.4.6H41c-.3-.2-.9-2.6-1.3-5.5-.1-.7-.3-1.5-.4-2.2L39,16.4c-.3-1.9-.5-3.5-.6-4.4v-.2l.4-.5m0-1a1.2,1.2,0,0,0-.8.4l-.3.4a.9.9,0,0,0-.3.7.4.4,0,0,0,.1.3,39.6,39.6,0,0,0,.5,4.5v.3l.3,2.1c.1.8.3,1.6.4,2.3.9,5.6,1.3,5.9,1.7,6.1s.5.3,1.2.3a6.9,6.9,0,0,0,2.9-.7l.5-.5a1.4,1.4,0,0,0,0-.9,1.6,1.6,0,0,0-.7-.7,12,12,0,0,0-2-.3H42v-.2a26.3,26.3,0,0,1-.9-3.7,7.6,7.6,0,0,1-.3-2.1,17.9,17.9,0,0,1-.2-2.3h0a16.1,16.1,0,0,0-.9-5.2,1,1,0,0,0-.8-.5Z" style="fill:#c1683d"/><path d="M27.7,28.3c-1.5,0-2.6-1.3-3.1-4-.1-.5-.1-.9-.2-1.3v-.2c0-.3-.1-.6-.1-.8H24a.9.9,0,0,1-.8-.6c0-.2,0-.5.2-.6a.5.5,0,0,1,.5-.3h1.4c.1.1.2.1.2.2a.6.6,0,0,1,.2.5c0,.3.1.7.1,1a1.3,1.3,0,0,0,.1.6,3,3,0,0,0,.2,1,10.2,10.2,0,0,0,.8,2.1l.3.2a.8.8,0,0,1,.7-.2,1.3,1.3,0,0,1,.8.3,1.7,1.7,0,0,1,.3,1,1.1,1.1,0,0,1-1,1Z" style="fill:#f4b876"/><path d="M23.9,21h1.2c.1.1.1.1.1.2h0c0,.3.1.7.1,1a2,2,0,0,0,.1.7h0a3,3,0,0,0,.2,1,9.2,9.2,0,0,0,.9,2.3,1.3,1.3,0,0,0,.7.4h.7a.7.7,0,0,1,.6.7.6.6,0,0,1-.6.6h-.2c-1.6,0-2.3-1.8-2.6-3.6s-.1-.9-.2-1.3v-.2c0-.3-.1-.7-.1-.9a.3.3,0,0,0-.3-.3H24l-.3-.2c0-.2.1-.3.2-.3m1.2.1h0M23.9,20h0a1.5,1.5,0,0,0-.9.4,2,2,0,0,0-.3,1.1,1.3,1.3,0,0,0,1.2,1V23c.1.5.1.9.2,1.4.6,2.9,1.8,4.4,3.6,4.4H28a1.5,1.5,0,0,0,1.5-1.5A1.7,1.7,0,0,0,29,26a1.6,1.6,0,0,0-1.1-.5h-.6a7.5,7.5,0,0,1-.8-1.8c0-.3-.1-.6-.1-.9a2,2,0,0,1-.1-.7c0-.3-.1-.6-.1-.9h0a.9.9,0,0,0-.4-.8l-.3-.3H23.9Z" style="fill:#c1683d"/><path d="M29.2,22.2a1.9,1.9,0,0,1-1.8-.9c-.1-.1-.2-.2-.2-.3v-.2a2.9,2.9,0,0,1-.1-1.6l.2-.3a6.9,6.9,0,0,1,.4-1h.1l.2-.2a6.4,6.4,0,0,1,1.4-1.5l.4-.3.4-.4,1.3-1a19.4,19.4,0,0,1,2.7-2.1l1-.8.3-.2,1.8-1a3.8,3.8,0,0,1,1.3-.4,1.2,1.2,0,0,1,.9.4c.4.5-.1,1.1-.2,1.4l-.4.4c-.4.5-1,1-1.5,1.5l-.8.8-.6.7-.6,1.1-.6,1.1v.2c-.5.8-1,1.8-1.5,2.5l-.4.4a4.5,4.5,0,0,1-3.5,1.8Z" style="fill:#f4b876"/><path d="M38.5,10.4a.5.5,0,0,1,.5.3c.1.1,0,.3-.2.6l-.4.5L36.2,14a7.1,7.1,0,0,0-.7.9l-.6,1-.7,1.2-1.5,2.6-.3.4a4.7,4.7,0,0,1-3.2,1.6,1.7,1.7,0,0,1-1.4-.6l-.2-.3h0a2,2,0,0,1-.1-1.3.6.6,0,0,0,.1-.4,5.6,5.6,0,0,1,.5-.8h.1a.1.1,0,0,1,.1-.1,5.7,5.7,0,0,1,1.3-1.4c.1-.1.2-.3.4-.4l.4-.3,4-3.1,1-.7h.1a16.7,16.7,0,0,1,1.9-1.2l1.1-.3m0-1a5.6,5.6,0,0,0-1.5.4l-1.8,1.1h-.4l-1,.8L31,14l-1.2,1h-.1l-.4.3-.4.3a5.2,5.2,0,0,0-1.4,1.6l-.2.2a.1.1,0,0,1-.1.1h0l-.5,1.1a.6.6,0,0,0-.1.4,3.1,3.1,0,0,0,0,1.9c0,.1.1.1.1.2h0c.1.2.2.3.2.4a2.7,2.7,0,0,0,2.3,1.1,5.2,5.2,0,0,0,3.9-2,1,1,0,0,0,.4-.5A27.5,27.5,0,0,0,35,17.7v-.2l.6-1.1a3.7,3.7,0,0,0,.6-1l.6-.7.7-.7c.6-.5,1.1-1.1,1.6-1.6s.2-.3.4-.4a1.6,1.6,0,0,0,.2-2,1.5,1.5,0,0,0-1.3-.6Z" style="fill:#c1683d"/><path d="M19.3,10.1h-.4c-.1-.1-.3-.2-.3-.4a.7.7,0,0,1,0-.9l.2-.2h.1c.5-.4,5.2-3.3,9.6-3.3h1.1a1.1,1.1,0,0,1,.8-.3l.5.2a1.3,1.3,0,0,1,.6,1.7,1.2,1.2,0,0,1-1.1.7l-.6-.2L29.4,7h-.9c-4,0-8.5,2.9-8.7,3Z" style="fill:#f4b876"/><path d="M30.4,5.4h.3a.8.8,0,0,1,.3,1,.7.7,0,0,1-.6.5h-.3a.8.8,0,0,1-.4-.4H28.5c-4.1,0-8.8,3-9,3.1H19V9h.1c.6-.4,5.2-3.2,9.4-3.2h1.3a.7.7,0,0,1,.6-.4m0-1a1.7,1.7,0,0,0-1,.3h-.9c-4.5,0-9.4,3-9.9,3.3l-.2.2h-.2a1.4,1.4,0,0,0-.1,1.4l.6.6.6.2.7-.2c.1-.1,4.6-3,8.5-3h.7l.4.3.8.2a1.6,1.6,0,0,0,1.5-1,1.9,1.9,0,0,0-.7-2.4l-.8-.2Z" style="fill:#c1683d"/></g></g></g></svg>