<svg xmlns="http://www.w3.org/2000/svg" xmlns:xlink="http://www.w3.org/1999/xlink" viewBox="0 0 57.1 77.1"><defs><clipPath id="clip-path"><polygon points="47.2 52.9 44.1 9.5 15.2 9.5 18.2 52.9 47.2 52.9" style="fill:#31aabf"/></clipPath></defs><g style="isolation:isolate"><g id="Layer_2" data-name="Layer 2"><g id="Layer_1-2" data-name="Layer 1"><polygon points="19.5 57.3 1.6 57.3 4.6 14.5 22.5 14.5 19.5 57.3" style="fill:#af7553;stroke:#924f28;stroke-miterlimit:10;stroke-width:3px"/><polygon points="5.6 3 47.1 3 51.1 59.4 9.5 59.4 5.6 3" style="fill:#a3541a"/><polygon points="8.5 3 50 3 53.9 59.4 12.4 59.4 8.5 3" style="fill:#ce894a"/><polygon points="48.9 54.5 45.7 7.8 13.5 7.8 16.7 54.5 48.9 54.5" style="fill:#fff0dd"/><polygon points="47.2 52.9 44.1 9.5 15.2 9.5 18.2 52.9 47.2 52.9" style="fill:#31aabf"/><g style="clip-path:url(#clip-path)"><path d="M29.6,41s-1.7-.4-2.1.1.4,1.6.7,1.7,1.2-.5,1.2-.5Z" style="fill:#eba87f"/><path d="M46.5,64a44.9,44.9,0,0,1-.3,12.6s-.6.1-.6,0-1.4-10.4-1.7-12S46.5,64,46.5,64Z" style="fill:#ffc393"/><path d="M41.1,63.8c.4,5.7-2.2,12.4-2.2,12.4l-.9-.4s.8-9.1.2-12.3S41.1,63.8,41.1,63.8Z" style="fill:#ffc393"/><path d="M37.1,63.7a4.6,4.6,0,0,0,3.4,1.6,6.2,6.2,0,0,0,1.9-.2h.3v-.9L41.2,52.8V51.7h-.6l-3.1-.7v1.4c0,.6.1,1.5.1,2.5a56.3,56.3,0,0,1-.4,8.3Z" style="fill:#795094"/><path d="M37.1,63.7A5.2,5.2,0,0,0,42.7,65v-.9a7.1,7.1,0,0,1-5.5-1Z" style="fill:#4d2f82"/><g style="opacity:0.30000000000000004;mix-blend-mode:screen"><path d="M37.1,63.1a56.3,56.3,0,0,0,.4-8.3c.3-.7.7-1,1.1-.6s1.8,8.4,1.9,11.1a4.6,4.6,0,0,1-3.4-1.6Z" style="fill:#795094"/></g><path d="M40.5,51.5h0v1.2l.2,1.4s.1.9.3,2.3h0c.4,2.3,1,6,1.3,8.2v.4c0,.1.1.2.1.4a5.6,5.6,0,0,0,3.8.2,5.5,5.5,0,0,0,2.1-1.2,4.5,4.5,0,0,0-.1-.8c-.3-2-1.2-7.4-1.3-8.8a27.7,27.7,0,0,1,.1-4,16.2,16.2,0,0,1,.1-1.8Z" style="fill:#795094"/><path d="M37.4,52.3l3.2.5h.6a8.7,8.7,0,0,0,5.9-1.9,16.2,16.2,0,0,1,.1-1.8l-6.7,2.4h0l-3.1-.7Z" style="fill:#4d2f82;opacity:0.2;mix-blend-mode:multiply"/><path d="M42.4,64.7a2.2,2.2,0,0,0,.1.8,5.6,5.6,0,0,0,5.9-1,4.5,4.5,0,0,0-.1-.8A6.1,6.1,0,0,1,42.4,64.7Z" style="fill:#4d2f82"/><path d="M35.4,38c-.5,2.9-.5,4.9-5.2,3.4-.5.5,0,1.5,1,2,3.7,2.2,6.9.9,7.9-.2s-2.3-5.7-2.3-5.7Z" style="fill:#eba87f"/><path d="M34.5,37.9l.6.7a4.4,4.4,0,0,0,2.3.5l.2-1L39,30.6l-.5-.5C36.2,31.8,35,34.5,34.5,37.9Z" style="fill:#c9cb43"/><path d="M35.1,38.6a4.4,4.4,0,0,0,2.3.5l.2-1c.2-2.7.5-6.3.5-6.3A15.1,15.1,0,0,0,35.1,38.6Z" style="fill:#c9cb43;opacity:0.4;mix-blend-mode:multiply"/><path d="M36.9,51.2a6.4,6.4,0,0,0,2.4.7h.2a12,12,0,0,0,3.3,0,4.8,4.8,0,0,0,2.2-.5A4.1,4.1,0,0,0,47.4,49a48.7,48.7,0,0,1-2-7.4q-.1-.7-.3-1.8c-.5-3.4-1.2-8.5-1.2-8.5l-1.2-1.6-3.8.6a11.5,11.5,0,0,0-2.5,7c0,.8.1,3.1.2,5.6v2C36.8,48.2,36.9,51.2,36.9,51.2Z" style="fill:#c9cb43"/><path d="M36.6,44.9c1.4.2,7.1,1.3,8.4,6.5A4.1,4.1,0,0,0,47.4,49a48.7,48.7,0,0,1-2-7.4q-.1-.7-.3-1.8l-1.5,1.4-7,1.7Z" style="fill:#c9cb43;opacity:0.4;mix-blend-mode:multiply"/><g style="opacity:0.4;mix-blend-mode:multiply"><path d="M38.9,47.7c.2,1.7.4,3.3.4,4.2h.2c-.1-.9-.2-2.4-.4-4.2a60.5,60.5,0,0,1-.5-8.1,28.2,28.2,0,0,1,1.2-8.8v-.3h-.2v.3c-.9,4.1-1.2,5-1.2,8.8C38.3,41.8,38.7,44.9,38.9,47.7Z" style="fill:#c9cb43"/></g><path d="M46.4,41.5c-1.2,1.3-5.9-3-5.3-3.8S47.1,39.3,46.4,41.5Z" style="fill:#809c2d"/><path d="M31.6,41.9a13.3,13.3,0,0,0,9.6,2.4c2.5-.4,3.6-1.5,4.1-3.4a7.8,7.8,0,0,0,.3-2.2l-1.3-1.9-1.2-1.7a11.6,11.6,0,0,1-.1,1.3,10.7,10.7,0,0,1-1,2.3,7.2,7.2,0,0,1-2.6,2.2,8,8,0,0,1-7.2.2S31.5,41.4,31.6,41.9Z" style="fill:#ffc393"/><path d="M42,38.7a3.5,3.5,0,0,1,3.3,2.2,7.8,7.8,0,0,0,.3-2.2l-1.3-1.9L43,36.4A10.7,10.7,0,0,1,42,38.7Z" style="fill:#eba87f"/><path d="M41.4,25.1a25.3,25.3,0,0,0,.8,3.8s-2.1,2.3-2.5,2.1-1.1-2.3-1.1-2.3Z" style="fill:#eba87f"/><polygon points="38 75.8 36.6 76.2 37.5 76.8 38.6 76.8 39 76.3 38.9 75.7 38 75.8" style="fill:#ffc393"/><polygon points="45.3 75.8 43.9 76.2 44.8 76.8 45.9 76.8 46.3 76.3 46.2 75.7 45.3 75.8" style="fill:#ffc393"/><path d="M41.1,37.7a3.8,3.8,0,0,1,2.3.2,5.2,5.2,0,0,1,3,3.6c1.2-2.6-.1-8.1-1.1-9.4a10.9,10.9,0,0,0-2.6-2.4l-.4,3.6v1.3A17.5,17.5,0,0,0,41.1,37.7Z" style="fill:#c9cb43"/><path d="M39.7,31l.8,1a24,24,0,0,0,2.4-2.2,2.3,2.3,0,0,0-.7-1.1A28.4,28.4,0,0,0,39.7,31Z" style="fill:#e3e657"/><path d="M39.7,30.7l-1.1.9a10.2,10.2,0,0,1-.4-1.5,5.9,5.9,0,0,1,.8-.8Z" style="fill:#e3e657"/><path d="M41.1,37.7a3.8,3.8,0,0,1,2.3.2c.2-2.8-.1-4.8-1.1-4.6v1.3A17.5,17.5,0,0,0,41.1,37.7Z" style="fill:#c9cb43;opacity:0.2;mix-blend-mode:screen"/><path d="M41.9,17.4s-4-2.2-4.6-2.2-2.7.9-2.9,1.6,0,7.2,0,7.2l2.1,1.4,4.3-1.9Z" style="fill:#ffc393"/><path d="M35.3,30.1c.7.3,4.7-1.2,5.4-2.4a14.2,14.2,0,0,0,1.4-4.6l.5-2.1c.3-1.3.6-2.8.4-3.1s-1.9-.7-1.9-.2c0,3.5-.5,5.7-1,5.9s-5.5-.1-5.7-.1a4.6,4.6,0,0,0-1.3,1.9,4.4,4.4,0,0,0-.2,1C32.8,27.5,34.6,29.8,35.3,30.1Z" style="fill:#fff0dd"/><path d="M35.3,30.1c.7.3,4.7-1.2,5.4-2.4a14.2,14.2,0,0,0,1.4-4.6l.5-2.1c-.5,1.4-2,5.5-2.8,6.2s-5.8.1-6.4-.6a1.7,1.7,0,0,1-.3-1.2,4.4,4.4,0,0,0-.2,1C32.8,27.5,34.6,29.8,35.3,30.1Z" style="fill:#f5e5c4;opacity:0.5;mix-blend-mode:multiply"/><path d="M41.5,22.6c.3-.8,1.5-.6,1.8-.2s-.1,2.2-.7,2.6S40.6,25,41.5,22.6Z" style="fill:#ffc393"/><path d="M37.1,26.5l.6-.2.5-.5c0-.1.1-.3.1-.4s-.2-.1-.2-.2.8-.3.8,0a.2.2,0,0,1-.2.2l-.3.6-.6.5h-.7l-.7-.2Z" style="fill:#ed8869"/><path d="M39.5,21.7a3,3,0,0,0-1.7-.5v.3A6.9,6.9,0,0,1,39.5,21.7Z" style="fill:#272f44"/><path d="M36.3,21.5c-.3-.5-1.2-.4-1.2-.4v.3Z" style="fill:#272f44"/><path d="M36.6,20.9c0,.1.3,1.1-.1,1.5s-1.5.4-1.4,1.3,2,1.2,2.5-.1S36.6,20.9,36.6,20.9Z" style="fill:#ffc393"/><path d="M36.6,20.9a2.7,2.7,0,0,1,0,.9.6.6,0,0,1-.3.6l-.8.3c-.1.1-.3.1-.4.3a.8.8,0,0,0-.2.5V24H35c0,.1.1.1.1.2s.1.1.2.2h1a1.6,1.6,0,0,0,.9-.3l.5-.7a3.5,3.5,0,0,1-1.4.7,1.1,1.1,0,0,1-.8-.2h-.3v-.4c0-.3.2-.4.4-.6s.6-.1.8-.3a.9.9,0,0,0,.4-.8A2.9,2.9,0,0,0,36.6,20.9Z" style="fill:#e0875e"/><path d="M38.4,21.9a.5.5,0,0,0,.4.5c.2,0,.4-.3.3-.6a.5.5,0,0,0-.4-.5C38.5,21.3,38.3,21.6,38.4,21.9Z" style="fill:#272f44"/><path d="M35.5,21.9c.1.3.2.5.4.5s.3-.3.3-.6-.3-.5-.4-.5S35.5,21.6,35.5,21.9Z" style="fill:#272f44"/><path d="M39.8,20.8c-.3.4-2.5-.6-2.7-.9s.2-.9.4-1.2,2.2.9,2.4,1A1.1,1.1,0,0,1,39.8,20.8Z" style="fill:#fff0dd"/><path d="M35.8,18.7A1.9,1.9,0,0,1,36,20a3,3,0,0,1-1.9.4c-.3-.1-.4-.7-.4-1.1S35.7,18.6,35.8,18.7Z" style="fill:#fff0dd"/><path d="M41.5,54c1.4-.5,4.3,2.7,4.8,11.7a5.6,5.6,0,0,1-3.8-.2,2.2,2.2,0,0,1-.1-.8c-.3-2.2-.9-5.9-1.3-8.2h0C41.1,55.1,41.2,54.2,41.5,54Z" style="fill:#795094;opacity:0.4;mix-blend-mode:screen"/><path d="M39,76.3v.6s-2.6.4-3.3,0,.5-1.1.9-1l1,.7Z" style="fill:#4387b2"/><path d="M46.3,76.3v.6s-2.6.4-3.3,0,.5-1.1.9-1l1,.7Z" style="fill:#4387b2"/><path d="M32.2,41.1a6.4,6.4,0,0,0-2.1-.7,5.3,5.3,0,0,0-1.5,1.9.3.3,0,0,0,.2.4l1.6-1.6,1.9.4Z" style="fill:#ffc393"/><path d="M29.9,41.1c0,.1-1.5,1.5-1.2,2s2.3-2,2.3-2A.7.7,0,0,0,29.9,41.1Z" style="fill:#ffc393"/><path d="M31.6,41.9a1,1,0,0,1-.8.2s-1.3,1.2-1.6.8,1.4-1.7,1.7-1.8a4.3,4.3,0,0,1,1.1.4Z" style="fill:#ffc393"/><path d="M25.4,73.2a2.4,2.4,0,0,0,.1.7H26c.1,0,.9-4.8,1.8-8.1a8.8,8.8,0,0,1,.5-1.5s-3.2-1-3.4-.1S25.2,71.1,25.4,73.2Z" style="fill:#eba87f"/><path d="M25.4,73.2a2.4,2.4,0,0,0,.1.7H26c.1,0,.9-4.8,1.8-8.1C26.7,66.5,25.7,71.2,25.4,73.2Z" style="fill:#ffc393"/><path d="M22.5,63.9s.1,1.4.5,4.1a31.6,31.6,0,0,0,1.9,6.1h.4l.8-8.6v-1Z" style="fill:#ffc393"/><path d="M22.5,63.9s.1,1.4.5,4.1a31.6,31.6,0,0,0,1.9,6.1h0a17.4,17.4,0,0,1-1.2-5.3c-.3-2.9.9-4.2,2.4-3.3v-1Z" style="fill:#eba87f"/><path d="M25,31.6v.2a20.9,20.9,0,0,1,1,2.7l.8,2.3c0,.2.5.5,1.1.5l.6-.3a14.1,14.1,0,0,0-1-3.1A4.7,4.7,0,0,0,25,31.6Z" style="fill:#6dbfae"/><path d="M28.9,37.8a15.1,15.1,0,0,0,5.5,6.6l-.3.4a7.4,7.4,0,0,1-5.5-2.9,26.6,26.6,0,0,1-2.2-4Z" style="fill:#ffc393"/><path d="M27.6,37.4a7.6,7.6,0,0,1,1.3-.7,1,1,0,0,1-.7,1.8C26.6,38.8,27.6,37.4,27.6,37.4Z" style="fill:#b3e6db"/><path d="M24.5,30.4v2L24,32l-.5.2-1.1-.9a22.6,22.6,0,0,1,0-2.6Z" style="fill:#eba87f"/><path d="M17.7,42.2c.1.9,1.5,10.2,1.8,13.8a61.8,61.8,0,0,0,1.7,8.2,31.4,31.4,0,0,0,4.1.5c1.8.2,3.6.1,4.1-.5-.2-3.6,1.8-9,.3-20.2-.1-.7-.3-1.5-.4-2.3S17.6,41.3,17.7,42.2Z" style="fill:#996250"/><path d="M17.7,42.2c.1.9,1.5,10.2,1.8,13.8a61.8,61.8,0,0,0,1.7,8.2,31.4,31.4,0,0,0,4.1.5c-.3-2.5-1.4-10.7-.5-16.1s2.6-5.8,4.9-4.6c-.1-.7-.3-1.5-.4-2.3S17.6,41.3,17.7,42.2Z" style="fill:#996250;opacity:0.4;mix-blend-mode:multiply"/><path d="M18.4,38.3c.2,1.6.4,2.9.5,3.4s5.3,1.8,7.7,1.6,3.2-1.2,2.9-2.2a.3.3,0,0,0-.1-.2c-.3-.8-1-2.3-1.5-3.6s-.3-1-.4-1.4l-.6-1.7A4.2,4.2,0,0,0,25,31.8h0L24,32l-.8.3-1.9-.9a7.3,7.3,0,0,0-2.8,1.1,5.3,5.3,0,0,0-.3,1.1c0,.7,0,1.7.1,2.8S18.4,37.7,18.4,38.3Z" style="fill:#6dbfae"/><path d="M18.9,41.7c.2,1.1,5.3,1.8,7.7,1.6s3.2-1.2,2.9-2.2c-.8,1.4-7.3.2-7.9-.3s-1.4-5.2-1.4-5.2a6.8,6.8,0,0,0-1.9.8A33.9,33.9,0,0,0,18.9,41.7Z" style="fill:#6dbfae;opacity:0.4;mix-blend-mode:multiply"/><path d="M16.8,37.5a4,4,0,0,0,1.6.8,4.5,4.5,0,0,0,1.9.3,27.7,27.7,0,0,0,.1-4.5h0a1.7,1.7,0,0,0-1.9-1.5,3,3,0,0,0-.9,1A9.2,9.2,0,0,0,16.8,37.5Z" style="fill:#6dbfae"/><polygon points="19.1 42.6 19.5 44.9 18.5 44.9 18 42.3 19.1 42.6" style="fill:#c2622d"/><path d="M17.6,33.5h.6l2.2.5a22.1,22.1,0,0,0,5.6.4l.9-.3.6-.3A4.7,4.7,0,0,0,25,31.6v.2L24,32l-.8.3-1.9-.9a7.3,7.3,0,0,0-2.8,1.1A3,3,0,0,0,17.6,33.5Z" style="fill:#6dbfae;opacity:0.30000000000000004;mix-blend-mode:screen"/><path d="M22.6,45.3c.8-5.3-2-12.8-2.8-13.5,1.4.5,3.3,4.3,3.9,9a33.4,33.4,0,0,1,.5,5.4Z" style="fill:#6dbfae;opacity:0.30000000000000004;mix-blend-mode:multiply"/><path d="M18.6,55.3c.1.5.3.8,1.2,1.4a13.4,13.4,0,0,0,5.6.9h.5c1-.9.8-9.7-.6-11.1L25,46a6.5,6.5,0,0,0-3.4-1.4h-2l-1.3.4a19.4,19.4,0,0,0,.1,4.1C18.5,51.1,18.4,54.7,18.6,55.3Z" style="fill:#d6753f"/><path d="M18.6,55.3c.1.5.3.8,1.2,1.4a13.4,13.4,0,0,0,5.6.9C23.7,54.9,24,46.4,24,46.4l-2.4-1.8h-2l-1.3.4a19.4,19.4,0,0,0,.1,4.1C18.5,51.1,18.4,54.7,18.6,55.3Z" style="fill:#d6753f;opacity:0.4;mix-blend-mode:multiply"/><path d="M20.9,51.8c2.4,1.4,2.7-4.6,2.8-5.1h0c0-.4.4-.7,1.3-.7-1.6-1.4-3.6-1.3-4.5-1.5h0c-.7,0-1.7.3-1.9,1v.2C18.6,46.8,18.5,50.3,20.9,51.8Z" style="fill:#e68a57"/><path d="M20.9,51.8c2.4,1.4,2.7-4.6,2.8-5.1-1.6.4-3.6-.4-5.1-1.2v.2C18.6,46.8,18.5,50.3,20.9,51.8Z" style="fill:#d6753f"/><path d="M20.9,50.6c0,.3.2.5.4.4s.2-.2.2-.5a.5.5,0,0,0-.5-.4C20.9,50.1,20.8,50.4,20.9,50.6Z" style="fill:#f7d683"/><path d="M34.1,44.3s1.3,0,1.5.2.3.9.2,1-.5.1-.6,0-.2-.6-.4-.7l-.9-.3C33.9,44.4,34.1,44.3,34.1,44.3Z" style="fill:#ffc393"/><path d="M25.4,74.4v.4h.2v-.2l.3.2h1l-.4-.4c-.1-.1-.6,0-.6,0v-.6h-.9l.2.4h0Z" style="fill:#522b3c"/><path d="M24.8,74.3v.5H25v-.2l.3.2h1l-.4-.4a.6.6,0,0,0-.6,0h0v-.6h-.8Z" style="fill:#80435e"/><path d="M17.6,28.9c1,2.1,4.2,2.2,6.3,1l.9-.7c1.6-2.1,2.5-6.8,2.5-6.8s2.1-1.5,1.8-2.3-1.8-.5-1.8-.5.3-3.9-1.3-4.2S21.9,18,21.9,18s-.7-1.2-1.4-.8-.5,2.6-.5,2.6h0c-.1,0-.7-.9-1.5-.5s-.9,3,.2,4.7C17,24.3,16.7,26.7,17.6,28.9Z" style="fill:#fff0dd"/><path d="M17.6,28.9c1,2.1,4.2,2.2,6.3,1l.9-.7.5-1.1L21,23.7c-1.1,1.9-2.2.1-2.5-1.2s-.4-3.8,1.5-2.7c-.1,0-.7-.9-1.5-.5s-.9,3,.2,4.7C17,24.3,16.7,26.7,17.6,28.9Z" style="fill:#f5e5c4;opacity:0.5;mix-blend-mode:multiply"/><path d="M26.8,21.5c1.5,1,1.4,3.3,1.5,4s.8,1,1,2.2a2.9,2.9,0,0,1-2.8,3.2c-2.2.1-4.5-.7-4.7-3.8s-.1-5.4,1.8-6A3.6,3.6,0,0,1,26.8,21.5Z" style="fill:#ffc393"/><path d="M24.9,22.4c.1.1-1.4.7-1.5.6S24.7,22.3,24.9,22.4Z" style="fill:#fff0dd"/><path d="M26.8,22.5c-.1.1,1.2.7,1.3.5S26.8,22.3,26.8,22.5Z" style="fill:#fff0dd"/><path d="M25.3,25.3a.8.8,0,0,0-1.1.2C24.3,24.6,25.4,25,25.3,25.3Z" style="fill:#272f44"/><path d="M27.4,25.3s.4-.4.7.2S27.3,25,27.4,25.3Z" style="fill:#272f44"/><path d="M24.6,27.9a1.7,1.7,0,0,0,.6-.6v.3l.2.3.4.3.5.2h-.5l-.5-.2-.3-.3Z" style="fill:#ed8869"/><polygon points="21.4 24.8 21.4 24.9 23.2 25.4 23.1 25.2 21.4 24.8" style="fill:#bf648d"/><path d="M20.4,27.9c1.4.7,2.1-.6,2-1.7v-.3c-.2-1.1-.9-2.2-.4-3.7-.4.1-1.6,2.2-1.9,3.9S19.9,27.6,20.4,27.9Z" style="fill:#fff0dd"/><path d="M23,25.1a1.7,1.7,0,0,0,1.6,1.7A1.4,1.4,0,0,0,26,25.1a1.6,1.6,0,0,0-1.6-1.6A1.5,1.5,0,0,0,23,25.1Zm.2,0a1.3,1.3,0,0,1,1.2-1.5,1.6,1.6,0,0,1,1.5,1.5,1.3,1.3,0,0,1-1.3,1.5A1.5,1.5,0,0,1,23.2,25.1Z" style="fill:#bf648d"/><path d="M23.2,25.1a1.5,1.5,0,0,0,1.4,1.5,1.3,1.3,0,0,0,1.3-1.5,1.6,1.6,0,0,0-1.5-1.5A1.3,1.3,0,0,0,23.2,25.1Z" style="fill:#78daff;opacity:0.30000000000000004"/><path d="M27,25.1c0,1,.6,1.7,1.2,1.7s1-.7,1-1.7-.7-1.6-1.3-1.6S26.9,24.2,27,25.1Zm.1,0c-.1-.8.3-1.5.8-1.5s1.1.7,1.1,1.5-.3,1.5-.8,1.5S27.1,26,27.1,25.1Z" style="fill:#bf648d"/><path d="M27.1,25.1c0,.9.5,1.5,1.1,1.5s.9-.6.8-1.5-.5-1.5-1.1-1.5S27,24.3,27.1,25.1Z" style="fill:#78daff;opacity:0.30000000000000004"/><path d="M27,25.1c-.3-.3-1-.2-1,0v.2a.7.7,0,0,1,1,0Z" style="fill:#bf648d"/><path d="M26.8,26.2l.5.2h.1v.2c0,.1-.1.2-.3.2h.3l.2-.2v-.3l-.3-.3Z" style="fill:#e0875e"/><path d="M20.4,27.9c1.4.7,2.1-.6,2-1.7-.1.7-.6.9-1.2.9s-1.2-.2-1.1-1C19.9,26.9,19.9,27.6,20.4,27.9Z" style="fill:#f5e5c4;opacity:0.5;mix-blend-mode:multiply"/><path d="M24,32a2.2,2.2,0,0,1-1.7-1.3s-1.2.1-1.1.7a1.9,1.9,0,0,0,1.9,1.7A.8.8,0,0,0,24,32Z" style="fill:#b3e6db"/><path d="M24,32s.6,1.1,1.3.7-.7-1.7-.7-1.7S24.5,31.9,24,32Z" style="fill:#b3e6db"/><path d="M19.1,39.2l-.2,1.4,4.4,2v.9s-5.7-.1-6.8-2,.3-3.4.3-3.4Z" style="fill:#ffc393"/><path d="M20.4,38.1s1,2.3-2.1,1-1.6-1.9-1.6-1.9A5,5,0,0,0,20.4,38.1Z" style="fill:#b3e6db"/><path d="M20.3,31.4c1.8.6,3.4,6.5,4.1,10.6a39.7,39.7,0,0,1,.8,4.8c0,.1-1.1.1-1.1.1s-.5-4.1-1.3-7.7-1.7-7.1-3.5-7.4C19.2,31.4,20.3,31.4,20.3,31.4Z" style="fill:#d6753f"/><path d="M23.3,42.6l1.5-.5c.1.1.1.5.1.5a.2.2,0,0,1,.1.3c0,.2-.1.2-.1.2a2,2,0,0,1,.1.5v.2l-.4.3-1.2-.6Z" style="fill:#ffc393"/><path d="M34.7,44.6l.8.5c.2.2-.1.4-.4.1s-.5,0-.8-.1a.4.4,0,0,1-.3-.4v-.2Z" style="fill:#ffc393"/></g><path d="M50,3l3.9,56.4H9.5L5.6,3H50m2.8-3H2.4l.2,3.2L6.5,59.6l.2,2.8H57.1l-.2-3.2L53,2.8,52.8,0Z" style="fill:#924f28"/><g id="_2" data-name="2"><polygon points="44.5 9.5 15.2 9.5 18.2 53 47.5 53 44.5 9.5" style="fill:#c6c03a;fill-rule:evenodd"/><path d="M39.5,11.8h-19A2.4,2.4,0,0,0,18,14.5L20.3,48a2.9,2.9,0,0,0,2.9,2.7h19A2.5,2.5,0,0,0,44.7,48L42.4,14.5a2.9,2.9,0,0,0-2.9-2.7Z" style="fill:#d1cc60;fill-rule:evenodd"/><path d="M30.5,17.1c-6.1,0-10.6,7-10,15.6s6,15.5,12.2,15.5,10.6-7,10-15.5-6-15.6-12.2-15.6Z" style="fill:#876e66;fill-rule:evenodd"/><path d="M27.3,39.4c.5-1.3,2.2-1.4,1.6.5a3.6,3.6,0,0,1-2,1.8,7.5,7.5,0,0,1-1.2-2.1c-.5-1.6,1.2-2.4,1.6-.2Z" style="fill:#c5979c;fill-rule:evenodd"/><path d="M20.9,35.6a5.6,5.6,0,0,0,4.7.9c3.3-.9,8.6-10.4,8.6-10.4l-3.4.6c-2.3-2.4-3.3-3.3-6.5-4V20.1c-2.6,2.9-4.1,7.4-3.7,12.6a28.9,28.9,0,0,0,.4,2.9Z" style="fill:#838956;fill-rule:evenodd"/><path d="M20.9,35.6a5.6,5.6,0,0,0,4.7.9,8.4,8.4,0,0,0,3.5-2.8,7,7,0,0,0-1.9-4.6,6.4,6.4,0,0,0-6.5-1.3,26.4,26.4,0,0,0-.2,4.9,28.9,28.9,0,0,0,.4,2.9Z" style="fill:#fee283;fill-rule:evenodd"/><path d="M25.5,24.2a2.3,2.3,0,0,1,.8,3,2.1,2.1,0,0,1-2.9.5,2.2,2.2,0,0,1-.8-2.9,2.1,2.1,0,0,1,2.9-.6Z" style="fill:#fff;fill-rule:evenodd"/><path d="M29.3,26.8a2.2,2.2,0,0,1,.7,3,2.1,2.1,0,0,1-2.9.5,2.2,2.2,0,0,1-.7-3,2.1,2.1,0,0,1,2.9-.5Z" style="fill:#fff;fill-rule:evenodd"/><path d="M29.3,27.9a1.5,1.5,0,0,1,.5,2,1.3,1.3,0,0,1-1.9.3,1.4,1.4,0,0,1-.5-1.9,1.3,1.3,0,0,1,1.9-.4Z" style="fill:#231915;fill-rule:evenodd"/><path d="M25.6,25.1a1.5,1.5,0,0,1,.5,2,1.4,1.4,0,0,1-2.4-1.6,1.3,1.3,0,0,1,1.9-.4Z" style="fill:#231915;fill-rule:evenodd"/><path d="M24.9,27.8l.7-.3h.5a2.9,2.9,0,0,1,.3,1v.4l-1.3.8Z" style="fill:#f49c00;fill-rule:evenodd"/><path d="M37.6,46.5a6,6,0,0,1-2.8-.8c-3-1.8-6.4-12-6.4-12l3.1,1.5c2.4-1.6,3.5-2.1,6.6-1.9l.7-3.4c1.5,3.1,3.1,5.7,3.4,9.1a13.1,13.1,0,0,1-4.6,7.5Z" style="fill:#ea5b3d;fill-rule:evenodd"/><path d="M37.6,46.5a6,6,0,0,1-2.8-.8A10.2,10.2,0,0,1,32,42.1a5.7,5.7,0,0,1,2.5-3.7c2.5-1.4,5.4-.4,7.4,1.7a13,13,0,0,1-4.3,6.4Z" style="fill:#fbd9d9;fill-rule:evenodd"/><path d="M36.7,34.3a2,2,0,0,0-1.1,2.6,2.2,2.2,0,0,0,2.6,1.3,2,2,0,0,0,1.1-2.6,2.2,2.2,0,0,0-2.6-1.3Z" style="fill:#fff;fill-rule:evenodd"/><path d="M36.4,34.6a1.1,1.1,0,0,0-.7,1.6,1.4,1.4,0,0,0,1.7.9,1.3,1.3,0,0,0,.8-1.7,1.4,1.4,0,0,0-1.8-.8Z" style="fill:#231915;fill-rule:evenodd"/><path d="M32.9,35.7a1.9,1.9,0,0,0-1.2,2.5,2.2,2.2,0,0,0,2.7,1.3A1.8,1.8,0,0,0,35.5,37a2.1,2.1,0,0,0-2.6-1.3Z" style="fill:#fff;fill-rule:evenodd"/><path d="M32.7,35.8a1.3,1.3,0,0,0-.8,1.7,1.6,1.6,0,0,0,1.8.9,1.2,1.2,0,0,0,.7-1.7,1.4,1.4,0,0,0-1.7-.9Z" style="fill:#231915;fill-rule:evenodd"/><path d="M36.8,37.8l-.7-.4-.4-.2a3.1,3.1,0,0,0-.5.9v.3l1.1,1.1Z" style="fill:#f49c00;fill-rule:evenodd"/><path d="M30.8,14a.2.2,0,0,1,.2-.2c.1.1.2.2.1.3s-.3,1.1,2,3.4l.2.2a3.2,3.2,0,0,1,1.9-.4,5.3,5.3,0,0,1,2.3.9,4.1,4.1,0,0,1-2,.3,5.3,5.3,0,0,1-1.7-.4,16.9,16.9,0,0,0,3.1,2.1,3.2,3.2,0,0,1,1.1-.6,5.6,5.6,0,0,1,2.3.3,2.3,2.3,0,0,1-2.7.8l2,1a2.5,2.5,0,0,1,1.2-.4c1-.3,1.3.1,1.3.1s-.1.3-.7.5A3.3,3.3,0,0,1,40,22l1.1.5h1.7a4.3,4.3,0,0,1,2.2,1,3.6,3.6,0,0,1-1.8.3,5.4,5.4,0,0,1-2-1h0l.4.5A3.5,3.5,0,0,1,42,25c-2.1-1.1-2.5-2.4-2.5-2.9L37.4,21a3.2,3.2,0,0,1,.7,3.2s-1.6-1.3-1.6-2.5.1-1,.1-1.2a24.4,24.4,0,0,1-3.1-2.2,8.5,8.5,0,0,1,1,1.7,6.7,6.7,0,0,1,.4,3.4A5.1,5.1,0,0,1,32.7,20a2.4,2.4,0,0,1,.4-2l-.3-.3c-2.4-2.4-2-3.7-2-3.7Z" style="fill:#d98c87"/><path d="M32.4,12.5c-.1-.1-.2-.2-.3-.1s-.1.1-.1.2.5,1.1-1.4,3.4c-.1,0-.1.1-.2.2a3.5,3.5,0,0,0-2-.4,3.9,3.9,0,0,0-2.1.9,3.8,3.8,0,0,0,1.9.3,4.3,4.3,0,0,0,1.7-.4,11.5,11.5,0,0,1-2.7,2.1L26,18.1a5.3,5.3,0,0,0-2.3.3,2.5,2.5,0,0,0,2.8.8l-1.8,1.1a2.3,2.3,0,0,0-1.3-.5c-1-.3-1.3.1-1.3.1a2.1,2.1,0,0,0,.8.6,6.5,6.5,0,0,0,1.4,0l-1.1.5c0,.1,0,.1-.1.1H21.6a3.8,3.8,0,0,0-2.2,1,4.2,4.2,0,0,0,1.9.3,3.8,3.8,0,0,0,1.9-1h0l-.4.5a3.4,3.4,0,0,0-.1,1.7c2-1.1,2.1-2.4,2.1-2.9l1.9-1.1a3.1,3.1,0,0,0-.2,3.2s1.4-1.3,1.2-2.5-.2-1-.2-1.2a20.9,20.9,0,0,0,2.8-2.2,5.1,5.1,0,0,0-.8,1.8,6.7,6.7,0,0,0,0,3.3,4.1,4.1,0,0,0,1.8-3.4,3.2,3.2,0,0,0-.7-2c.1-.1.2-.2.2-.3,2.1-2.4,1.6-3.7,1.6-3.7Z" style="fill:#fff46f"/><path d="M36.3,29c.2-1.2,1.6-1.5,1.4.2A2.8,2.8,0,0,1,36.3,31,6.6,6.6,0,0,1,35,29.4c-.6-1.3.7-2.2,1.3-.4Z" style="fill:#c5979c;fill-rule:evenodd"/><path d="M27.8,32.6h-.2l-.6.4v-.9h-.2V33h.1c0,.1,0,.1.1.1Z" style="fill:#fef5d7;fill-rule:evenodd"/><path d="M26.2,32h-.1l-.7.4v-1a.1.1,0,0,0-.1-.1s-.1.1,0,.1v1.1a.1.1,0,0,1,.1.1h.1Z" style="fill:#fef5d7;fill-rule:evenodd"/><path d="M24.8,30.8h-.2l-.6.4v-1a.1.1,0,0,0-.1-.1h-.1v1.1a.1.1,0,0,0,.1.1H24Z" style="fill:#fef5d7;fill-rule:evenodd"/><path d="M22.7,29.5c0-.1.1-.1,0-.2h-.1l-.6.4v-.9a.1.1,0,0,0-.1-.1c-.1,0-.1,0-.1.1v1.1h0c0,.1.1.1.1,0Z" style="fill:#fef5d7;fill-rule:evenodd"/><path d="M26.5,34.3h0c-.1-.1-.1-.1-.2,0l-.6.4v-1a.1.1,0,0,0-.1-.1h-.1v1.1h.2Z" style="fill:#fef5d7;fill-rule:evenodd"/><path d="M24.6,33c.1,0,.1-.1,0-.1s0-.1-.1-.1l-.6.4v-.9h-.2v1.1h.2Z" style="fill:#fef5d7;fill-rule:evenodd"/><path d="M22.9,31.9h0a.1.1,0,0,0-.1-.1l-.7.4v-.9h-.2v1.1h0a.1.1,0,0,0,.1.1Z" style="fill:#fef5d7;fill-rule:evenodd"/><path d="M24.4,35.1c.1,0,.1,0,0-.1h-.1l-.6.4v-1h-.1c-.1,0-.1,0-.1.1v1h.1Z" style="fill:#fef5d7;fill-rule:evenodd"/><path d="M22.5,34.2c.1-.1.1-.1.1-.2h-.2l-.6.4v-.9c0-.1,0-.1-.1-.1a.1.1,0,0,0-.1.1v1.1h0c.1,0,.1.1.2,0Z" style="fill:#fef5d7;fill-rule:evenodd"/><path d="M39.3,40.7h-.1l-1.1-.3c0-.1-.1-.1,0-.2h.1l.9.3-.2-.8h.2Zm.7,2.1c.1.1,0,.1,0,.1h-.1l-1-.3c-.1-.1-.1-.1-.1-.2h.1l.9.3-.2-.8a.1.1,0,1,1,.2,0Zm-1.7.8h-.2l-1-.4h0l.9.3-.2-.8h.1c.1,0,.1,0,.1.1Zm-1.1,1.3c0,.1,0,.1-.1.1h0L36,44.7h.1l.9.3-.2-.8h0a.1.1,0,0,1,.1.1Zm-2.1-1.3c0,.1,0,.1-.1.1h0l-1.1-.3v-.2H34l.9.3-.2-.8h0c.1,0,.1,0,.1.1Zm1.4-.8a.1.1,0,0,1-.1.1h0l-1.1-.4h.1l.9.4-.2-.8h.1Zm1.3-1.1c.1,0,0,.1,0,.1h-.1l-1-.4c-.1,0-.1,0-.1-.1h.1l.9.3-.2-.8h.2Z" style="fill:#fef9f8;fill-rule:evenodd"/></g></g></g></g></svg>