<svg xmlns="http://www.w3.org/2000/svg" viewBox="0 0 238.2 168.1"><g style="isolation:isolate"><g id="Layer_2" data-name="Layer 2"><g id="Layer_1-2" data-name="Layer 1"><path d="M35.8,166.6a34.3,34.3,0,0,1,0-68.6h4.4c18.1,0,21.3-14.3,21.4-14.9,1.5-9.8-1.7-16.6-5.2-23.9-1.1-2.3-2.2-4.7-3.1-7.1A37.7,37.7,0,0,1,51,44.9h0a35.1,35.1,0,0,1-.7-7.2,36.2,36.2,0,1,1,72.3,0,43.8,43.8,0,0,1-.7,7.1h-.1a35.3,35.3,0,0,1-2.2,7.2c-1,2.4-2.1,4.8-3.2,7.1-3.4,7.3-6.7,14.1-5.2,24,.1.5,3.3,14.8,21.4,14.8h69.8a34.3,34.3,0,0,1,0,68.6Z" style="fill:#fcd54d"/><path d="M86.4,3a34.7,34.7,0,0,1,34.7,34.7,40.4,40.4,0,0,1-.7,6.9h0a39.6,39.6,0,0,1-2.2,6.9c-4.1,10.4-10.5,18.4-8.5,31.9,0,0,3.3,16.1,22.9,16.1h69.8a32.7,32.7,0,0,1,32.8,32.8h0a32.8,32.8,0,0,1-32.8,32.8H35.8A32.8,32.8,0,0,1,3,132.3H3A32.8,32.8,0,0,1,35.8,99.5h4.4c19.6,0,22.9-16.1,22.9-16.1,2-13.5-4.4-21.5-8.5-31.9a32.4,32.4,0,0,1-2.1-6.9h0a32.3,32.3,0,0,1-.7-6.9A34.6,34.6,0,0,1,86.4,3m0-3A37.9,37.9,0,0,0,49.5,45.1h0a32.8,32.8,0,0,0,2.4,7.5c1,2.5,2.1,4.8,3.2,7.1,3.4,7.4,6.4,13.7,5,23.1-.2,1.1-3.5,13.6-19.9,13.6H35.8a35.8,35.8,0,0,0,0,71.6H202.4a35.8,35.8,0,0,0,0-71.6H132.6c-16.4,0-19.6-12.5-19.9-13.6-1.4-9.4,1.6-15.7,5.1-23.1,1-2.3,2.2-4.6,3.2-7.1a43,43,0,0,0,2.3-7.5h0a36.5,36.5,0,0,0,.8-7.4A37.7,37.7,0,0,0,86.4,0Z" style="fill:#ff8d3d"/><rect x="76" y="98.8" width="52.8" height="1.24" style="fill:#e7a622"/><ellipse cx="62.4" cy="31" rx="1.6" ry="1.9" style="fill:#5b5878"/><path d="M62.4,33.5A2.5,2.5,0,1,1,64.7,31,2.4,2.4,0,0,1,62.4,33.5Zm0-3.7a1.2,1.2,0,0,0,0,2.4c.6,0,1-.5,1-1.2S63,29.8,62.4,29.8Z" style="fill:#5b5878"/><ellipse cx="81.3" cy="31" rx="1.6" ry="1.9" style="fill:#5b5878"/><path d="M81.3,33.5A2.5,2.5,0,1,1,83.6,31,2.4,2.4,0,0,1,81.3,33.5Zm0-3.7a1.2,1.2,0,0,0,0,2.4c.6,0,1-.5,1-1.2S81.9,29.8,81.3,29.8Z" style="fill:#5b5878"/><path d="M71.4,33.9C66.1,33.9,51,38.8,51,44.1S64.8,54.3,71.4,54.3s11.7-6,12-10.2S76.7,33.9,71.4,33.9Z" style="fill:#e84e2c"/><path d="M85.2,35.4c0-.8,1.1-1.5,2.5-1.5s2.5.7,2.5,1.5-1.1,1.4-2.5,1.4S85.2,36.2,85.2,35.4Z" style="fill:#e7a622"/><path d="M53.6,35.4c0-.8,1.1-1.5,2.5-1.5s2.5.7,2.5,1.5-1.1,1.4-2.5,1.4S53.6,36.2,53.6,35.4Z" style="fill:#e7a622"/><rect x="3" y="131.6" width="18.3" height="1.24" style="fill:#e7a622"/><rect x="37.9" y="131.6" width="185.8" height="1.24" style="fill:#e7a622"/><rect x="229.7" y="131.6" width="5.5" height="1.24" style="fill:#e7a622"/><path d="M177.7,114.3H65.2a3.8,3.8,0,0,1-3.7-3.7,3.7,3.7,0,0,1,3.7-3.7H177.7a3.6,3.6,0,0,1,3.7,3.7A3.7,3.7,0,0,1,177.7,114.3Z" style="fill:#ffdc9d;opacity:0.7000000000000001;mix-blend-mode:screen"/><path d="M43.1,114.3H27.2a3.7,3.7,0,0,1-3.7-3.7,3.6,3.6,0,0,1,3.7-3.7H43.1a3.6,3.6,0,0,1,3.7,3.7A3.7,3.7,0,0,1,43.1,114.3Z" style="fill:#ffdc9d;opacity:0.7000000000000001;mix-blend-mode:screen"/><path d="M68.5,20.4a3.5,3.5,0,0,1-2.5-1,3.7,3.7,0,0,1-.2-5.2c6.1-6.6,16.6-7.8,17.1-7.8a3.6,3.6,0,0,1,4,3.3,3.7,3.7,0,0,1-3.3,4.1s-8.2.9-12.3,5.4A3.9,3.9,0,0,1,68.5,20.4Z" style="fill:#ffdc9d;opacity:0.7000000000000001;mix-blend-mode:screen"/></g></g></g></svg>