<svg xmlns="http://www.w3.org/2000/svg" xmlns:xlink="http://www.w3.org/1999/xlink" viewBox="0 0 129.6 183.5"><defs><clipPath id="clip-path" transform="translate(0 0)"><path d="M127.7,99.9l.3-.8c1.8-9-10.4-12-16.8-10.8,2.3-9.2-.5-17.1-10.2-20.3l-.8-.2c-10.3-3.1-15.9,3.6-19.1,12.8-6.4-2.8-16.4-2.7-14.8,7.4s13.6,8.8,20.9,6.7c-.7,11.8,15.9,11.8,22.1,5.8,1.4,3.7,3.7,6.6,8.1,6.6a12.2,12.2,0,0,0,9.9-6.3h.1a.3.3,0,0,1,.1-.2A1.4,1.4,0,0,1,127.7,99.9Z" style="fill:none"/></clipPath><clipPath id="clip-path-2" transform="translate(0 0)"><path d="M76.6,18.6c-.1,0-.1,0-.1-.1l-.6-.2h-.2l-.7-.2c-6.2-1.8-12.4.2-18.4,2.8C65.8,6.6,40.5-2.6,32.2,9.6a2.4,2.4,0,0,0-.2-.8c-.1,0-.1-.1-.1-.2a.8.8,0,0,1-.2-.5l-.2-.2a.5.5,0,0,0-.2-.4V7.2l-.3-.4a.3.3,0,0,1-.1-.2l-.3-.4L30.3,6l-.2-.3-.2-.2c-.1-.2-.3-.3-.4-.4V4.9l-.5-.4-.3-.2L28.3,4a.2.2,0,0,1-.2-.2l-.3-.2-.3-.2h-.3a.5.5,0,0,0-.4-.2c0-.1-.1-.1-.2-.2H26l-.4-.2h-.2L23,1.7H21.7a14.8,14.8,0,0,0-9.9,2.7c-8.3,6-2.1,16.7,2.7,22.9-4.8,5.5.3,9.5,6.5,11.1,8.5,2.3,16.8.3,24.1-4.1-3.4,3.9-6.2,13.6.5,15.9s17-6.5,20-12.9c2.3,3.9,5.3,7.8,10.4,6.7S85.8,37,86.1,31.4,82.1,20.6,76.6,18.6Z" style="fill:none"/></clipPath><clipPath id="clip-path-3" transform="translate(0 0)"><path d="M99.8,59.4h.1l.7-.9c3-4.2,6-11.1,1.1-15s-15.6-2.5-21.8-2.1h-.2v-.2h-.1c-.1-.1-.1-.1-.1-.2a.3.3,0,0,1-.1-.2h-.1c0-.1-.1-.1-.1-.2s-.1-.1-.1-.2a.3.3,0,0,1-.1-.2h-.1a6.1,6.1,0,0,0-.7-1h0l-.3-.3c0-.1,0-.1-.1-.2l-.2-.3h-.2l-.2-.3-.2-.2-.2-.3h-.2l-.3-.3c0-.1-.1-.1-.2-.2l-.3-.3h-.2l-.3-.3H75l-.4-.3h0l-1.1-.6a.1.1,0,0,0-.1-.1l-.4-.2h-.2l-.5-.2H67a18.1,18.1,0,0,0-5,1.4c-13.1,5.8-4,18.4-4,18.4C52.7,54.2,46.5,57,47.9,63.7s8.3,4.6,12.9,2.3c-1.2,4.1,3.4,6.4,6.9,5.7,5-.9,9.6-6,10.8-11,.9,3.9,2.3,8,6.9,8S95.6,64.3,99,60.3h0Z" style="fill:none"/></clipPath></defs><g id="Layer_2" data-name="Layer 2"><g id="Layer_1-2" data-name="Layer 1"><path d="M90.5,173.2a114.7,114.7,0,0,1-1.4-14.6c-.3-5.9-1.9-10.7-7.6-13.2s-10.1-4.2-14.6-9-9.3-9.6-12.7-14.9.6-11.6,5.7-16.1c2.8,3.1,5.6,5.1,10.1,5.1,2.2,0,6.5.3,8.7-1.1s3.1-5.1,4.8-7.3,5.1-3.7,8.7-5.4,5.4-6.2,6.5-10.4l-2.3.3c-1.1,2-1.9,5.6-3.3,7.3s-4.5,2-7.4,2.3c1.7-4.5,3.1-8.5,5.1-13l-2.5.6C86,90.3,84.1,99,79,104c-8.7,9.3-18-8.7-20.8-15.4-4.8-12.4,3.6-19.2,12.1-27l-2.8-.9c-3.1,3.4-5.9,7.6-9,11.3-2.3-2.6-1.4-9-1.7-12.4l-1.7,1.1c.8,2.3.3,5.1.3,7.6s.5,4.2.3,5.1-2.9,1.4-4,1.9a139.9,139.9,0,0,1-2.5-21.7c-.6-10.1,9-18.2,14.6-26.3l-5.1.2c-2.5,4-5.6,11-9.2,14.7-3.4-4,0-10.7,0-15.2l-2.8,2.8c0,6.2-2,11.5-1.5,17.7.3,4.5-1.6,12.4,1.7,16-4.2,1.4-8.4,1.7-12.9,2.3s-7,.3-8.2-5.4l-.5,2.3c1.7,4.8,2.2,6.2,7.3,5.3s9.8-1.7,14.6-2.2c.3,4.8-.2,11.4,3.9,13.6,6.6,3.5,2,12.8,5.7,17.3-5.6,2.8-12.1,4.8-14.9,11s-6.8,15.7-5.4,21.7,8.5,11.8,10.2,18.8c.8,3.7,0,8.4-.6,11.8s-4.2,8.5-5.4,13.2c0,0,7.6,9.3,22.8,8.8s15.8-6.2,18-6.5S91.2,176.8,90.5,173.2Z" transform="translate(0 0)" style="fill:#ce894a"/><path d="M92,172.8a78.9,78.9,0,0,1-1.1-9.9,61.1,61.1,0,0,0-.8-8.6,15.3,15.3,0,0,0-2.9-6.5,16.5,16.5,0,0,0-6.1-4.3c-2.4-1.1-4.8-2.2-7.1-3.5a27.2,27.2,0,0,1-6.5-5.1c-4.2-4.5-8.8-8.9-12-14.2a7.5,7.5,0,0,1-.4-7.5c1.3-2.7,3.6-4.7,5.8-6.7H58.8c2.7,2.9,5.8,5,9.7,5.4a30.1,30.1,0,0,0,5.2.1,13.6,13.6,0,0,0,5.3-1.1,7.4,7.4,0,0,0,3.5-3.7,27.9,27.9,0,0,1,2.4-4.5,9.1,9.1,0,0,1,3.7-2.8,38.1,38.1,0,0,0,5-2.3c3.8-2.5,5.4-6.7,6.5-10.9a1.5,1.5,0,0,0-1.4-1.9,12.6,12.6,0,0,0-2.8.4c-.9.4-1.3,1.6-1.6,2.4a27.7,27.7,0,0,1-1,2.6c-.5,1.4-1,2.8-2.4,3.5s-3.5.8-5.2,1l1.5,1.9c1.6-4.3,3.1-8.5,4.9-12.6a1.5,1.5,0,0,0-1.7-2.2l-2.4.5c-.9.3-1.1.9-1.4,1.7s-.5,1.7-.8,2.5a84.3,84.3,0,0,1-3.4,9.6c-1.3,2.9-3,5.9-5.5,7.9a4.7,4.7,0,0,1-2.6,1.1H72.8l-.8-.2h-.5l-.7-.4-1.2-.8a34.4,34.4,0,0,1-2.7-2.7,35.4,35.4,0,0,1-4.2-6.4,55.9,55.9,0,0,1-3-6h0l-.3-.6a6.5,6.5,0,0,0-.4-1.3,24.4,24.4,0,0,1-.6-2.6,13.5,13.5,0,0,1,.1-4.5,19.5,19.5,0,0,1,4.7-8.7c2.5-2.8,5.3-5.4,8.1-8a1.5,1.5,0,0,0-.6-2.5l-2.8-.8a1.4,1.4,0,0,0-1.5.4c-3.2,3.5-5.9,7.5-9,11.2h2.1c0-.1-.4-.6-.4-.7a5.7,5.7,0,0,1-.4-1.4,15.3,15.3,0,0,1-.3-3c-.1-2.1,0-4.1-.1-6.2A1.5,1.5,0,0,0,56,58.3l-1.7,1.1a1.7,1.7,0,0,0-.7,1.7,12.6,12.6,0,0,1,.4,5.1,26.7,26.7,0,0,0,0,4,11,11,0,0,1,.2,1.8v.8c0,.1-.1.3,0,.2s0-.2.1-.2.1-.2-.1,0-2.2.8-3.2,1.3l2.2.9c-.7-3.8-1.3-7.5-1.8-11.2a84.7,84.7,0,0,1-.7-11.3c.1-6.1,4.1-11.4,7.8-16,2.2-2.8,4.6-5.5,6.6-8.5a1.5,1.5,0,0,0-1.3-2.2H61.2a12.3,12.3,0,0,0-2.7.2c-1,.1-1.5,1.3-2,2.2l-1.4,2.5L52.2,36a27.1,27.1,0,0,1-3.8,5.1h2.1c-1.4-1.8-1.1-4.4-.8-6.5A48.3,48.3,0,0,0,51,27a1.6,1.6,0,0,0-2.6-1.1c-.9.9-1.9,1.8-2.8,2.8s-.4,1.5-.5,2.2a26.4,26.4,0,0,1-.2,2.9c-.2,1.7-.5,3.3-.7,5a45.7,45.7,0,0,0-.5,5.2c-.1,1.6.1,3.2.1,4.7s-.4,5.1-.4,7.7.5,5.9,2.5,8.2l.6-2.5a41,41,0,0,1-7.9,1.6l-6.8.9H29.5c-.3-.1.2.1-.1,0l-.4-.3c-.3-.2.2.2-.1,0l-.3-.4h-.1a4.1,4.1,0,0,1-.5-.9c.1.1-.1-.4-.2-.5a4.3,4.3,0,0,1-.1-.5,10.5,10.5,0,0,1-.4-1.7c-.3-1.4-2.6-1.3-2.9,0L24,61.6a6.4,6.4,0,0,0-.2.7,3,3,0,0,0,.3,1.6,14,14,0,0,0,2.2,4.4,5.6,5.6,0,0,0,4.1,1.5,56.8,56.8,0,0,0,7.2-1.1l9.6-1.4-1.5-1.5c.2,2.6.1,5.2.5,7.8s1.1,4.8,3.1,6.3,2,1.2,2.7,2.1a4.5,4.5,0,0,1,1.1,2.3,22.5,22.5,0,0,1,.5,6.4,12.1,12.1,0,0,0,2.1,7.1l.3-2.4c-5.2,2.6-11.2,4.7-14.5,9.8a22.6,22.6,0,0,0-1.8,3.9c-.6,1.3-1.1,2.6-1.6,3.9a55.8,55.8,0,0,0-2.7,8.8,18.9,18.9,0,0,0-.3,8.2,25,25,0,0,0,4,8,59.2,59.2,0,0,1,4.9,7.4,15.8,15.8,0,0,1,1.3,9.3,28,28,0,0,1-2.2,9.5c-.8,1.5-1.6,3-2.3,4.5l-.9,2.2c-.3.9-1,2.2-.5,3.1a10.3,10.3,0,0,0,1.4,1.5,25.5,25.5,0,0,0,3.8,2.9,32.2,32.2,0,0,0,14.7,5,44.5,44.5,0,0,0,10.3-.5,25.5,25.5,0,0,0,6.8-2,16,16,0,0,0,3.7-2.5l1-.9.4-.4c.3-.2-.2.1-.1.1l.3-.2c.4-.3-.3.1,0,0h.5l2.9.2c1.9.1,4.5.2,6-1.2a3.3,3.3,0,0,0,.9-3.1,1.5,1.5,0,0,0-1.9-1,1.5,1.5,0,0,0-1,1.8c-.1-.3,0,.1,0,.1h0c0,.3-.1-.2,0-.1h0c-.1.1-.1.1,0-.1H89c0,.1.2-.1.1,0l-.3.2c.2-.2,0-.1-.1,0H86.2c-1.7,0-3.6-.4-5.2,0a4.8,4.8,0,0,0-2.2,1.5,5.2,5.2,0,0,0-1.1,1l-.3.2c-.3.2.2-.2-.2.1l-.8.6-1,.5-.5.3-.5.2a14,14,0,0,1-2.9.9,34.7,34.7,0,0,1-9,1.1,29.9,29.9,0,0,1-15-3.8L44.9,175h-.2l-.2-.2c.2.1.2.1.1.1l-.5-.4-.8-.7-1.5-1.5.4,1.4c.8-3.1,2.5-5.8,3.8-8.7a30.7,30.7,0,0,0,2.3-9.5c.3-3.2.4-6.5-.8-9.5a33.9,33.9,0,0,0-4.5-7.5,34.5,34.5,0,0,1-4.3-7.1,12,12,0,0,1-.7-7,40.2,40.2,0,0,1,2.3-8.4c.9-2.5,1.8-5,2.9-7.5,2.5-5.8,9.2-7.8,14.3-10.4a1.4,1.4,0,0,0,.3-2.3,7.3,7.3,0,0,1-.9-2.2,24,24,0,0,1-.3-2.8,29.8,29.8,0,0,0-.5-6.7,8.4,8.4,0,0,0-3.5-5.5c-.9-.6-1.7-.9-2.2-1.7a7.7,7.7,0,0,1-1.1-3c-.6-2.6-.4-5.3-.6-8a1.4,1.4,0,0,0-1.5-1.5c-2.8.3-5.5.7-8.3,1.2s-5.1,1-7.6,1.2H28.9c.4.1,0-.1-.1-.1h-.1l-.3-.3h-.1c-.1-.1-.1-.3-.2-.4l-.5-.9-.9-2.4v.8l.6-2.3H24.4c.4,1.9.9,3.9,2.3,5.3a6.4,6.4,0,0,0,4.4,1.5,29.6,29.6,0,0,0,3.1-.3l4.1-.5a53.1,53.1,0,0,0,9-1.8,1.5,1.5,0,0,0,.7-2.5,7.8,7.8,0,0,1-1.5-4.4,38.5,38.5,0,0,1,.1-5.9,54.2,54.2,0,0,0,.1-5.7,32.9,32.9,0,0,1,.5-7.7,68.8,68.8,0,0,0,1-9l-.5,1L50.5,28,48,27c-.1,2.7-1,5.3-1.3,8s-.2,5.9,1.7,8.2a1.5,1.5,0,0,0,2.1,0c4.2-4.2,6.4-10,9.5-14.9l-1.3.7,5.1-.2-1.3-2.3c-3.7,5.3-8.4,10-11.7,15.7a23.5,23.5,0,0,0-3.1,9,50.5,50.5,0,0,0,.1,5.5c.1,2,.3,3.9.5,5.9.5,4.4,1.2,8.8,2,13.1a1.5,1.5,0,0,0,2.2.9c-.2.1.2,0,.2,0l.6-.2.9-.3a4,4,0,0,0,2.1-1.2c1.2-1.1,1-2.7.8-4.1a34.6,34.6,0,0,1-.2-4.5,13.5,13.5,0,0,0-.4-6L55.8,62l1.7-1.1-2.2-1.3c.2,2.3,0,4.5.1,6.8s.4,4.8,2,6.6a1.5,1.5,0,0,0,2.1,0c3.1-3.6,5.8-7.7,9-11.2l-1.4.4,2.8.8-.7-2.5C64.5,65,59,69.4,56.5,75.6a17.1,17.1,0,0,0-.9,9.5,29.6,29.6,0,0,0,2.8,7.5c2.2,4.6,5,9.4,8.9,12.7a10.7,10.7,0,0,0,6.2,2.8c2.6.2,4.8-1.2,6.6-3,5.4-5.7,7.1-13.7,9.6-20.9l-1,1,2.5-.5-1.7-2.2c-1.9,4.3-3.5,8.8-5.2,13.3a1.5,1.5,0,0,0,1.4,1.9c3-.3,6.5-.4,8.5-2.9s2.2-5,3.5-7.4l-1.3.7,2.3-.3-1.5-1.9c-.8,3.2-1.9,6.7-4.7,8.8a17.2,17.2,0,0,1-4.3,2.1A13.8,13.8,0,0,0,84,99.3a12.1,12.1,0,0,0-3,4.1,15.3,15.3,0,0,1-2.1,4c-2,2.1-5.9,1.6-8.6,1.6a10,10,0,0,1-5.1-1.1,18.3,18.3,0,0,1-4.3-3.5,1.5,1.5,0,0,0-2.1,0c-4,3.5-8.3,7.9-7.4,13.7.5,3.2,2.5,5.7,4.4,8.2s4.2,4.9,6.4,7.3a56.1,56.1,0,0,0,6.5,6.4,35.5,35.5,0,0,0,7,4.3l3.8,1.8a17.8,17.8,0,0,1,3.6,1.9,10.1,10.1,0,0,1,3.6,5c.9,2.9.9,5.9,1.1,8.9a91,91,0,0,0,1.3,11.7,1.5,1.5,0,0,0,1.8,1.1A1.6,1.6,0,0,0,92,172.8Z" transform="translate(0 0)" style="fill:#75411a"/><path d="M64.7,142.1c3.8,8.4,8.4,16.3,10.7,25.3,1,3.7,1.1,7.7,1.3,11.6a15.4,15.4,0,0,0,3.6-2.8c-.2-2.4-.4-4.7-.8-7.1-1.2-8.4-6.2-15.9-10.3-23.1-2.6-4.5-5.7-9.6-7.3-14.9l-2-2.2C60.7,133.5,63,138.3,64.7,142.1Z" transform="translate(0 0)" style="fill:#d8a960"/><path d="M67.9,103.8l-1.3-1.2a43.9,43.9,0,0,1-2.6,6.3l.9.5c.6-1.3,1.2-2.5,1.7-3.9a35.9,35.9,0,0,1-.8,3.5l-.3.7.7.2c.3-.7.5-1.4.8-2.2Z" transform="translate(0 0)" style="fill:#d8a960"/><path d="M58.3,106.9l1.1-1a58.7,58.7,0,0,1,2.8-9.3,9.3,9.3,0,0,1-.5-1A66.5,66.5,0,0,0,58.3,106.9Z" transform="translate(0 0)" style="fill:#d8a960"/><path d="M83.1,175.5h1.7a118.6,118.6,0,0,0-.2-14.6,57.5,57.5,0,0,0-3.7-15.9l-3.1-1.5A76.2,76.2,0,0,1,82.6,161,87.5,87.5,0,0,1,83.1,175.5Z" transform="translate(0 0)" style="fill:#d8a960"/><path d="M65.9,151.1c-1.1-3.8-3.5-7.1-5.6-10.4a71.2,71.2,0,0,1-7.2-14c-2.4-6.8-.8-12.7,2.1-18.9a134.7,134.7,0,0,0,5.7-13.6,10.9,10.9,0,0,1-.8-1.5c-2,5.4-4,10.7-6.5,16-4,8.7-3.2,15.9.7,24.5s11.3,16.6,11,27.4c-.1,4.8-.5,9.6-1,14.4,0-1.8,0-3.7-.1-5.6-.5-7.9-5.7-14-9.9-20.3-5.4-7.9-7.7-17.8-8.3-27.3s5.7-17.4,12.2-24.5c.1,0,0-.1,0,0-5.2,5.7-11.1,10.6-13,18.4s.4,18.3,3.1,26.3,12.1,14.6,12.8,24.3c.3,4.7-.7,9.3-.3,14,.1.5.1,1.1.2,1.7h4.3c.4-5.9.9-11.8,1.3-17.8C66.8,159.6,67.1,155.5,65.9,151.1Z" transform="translate(0 0)" style="fill:#d8a960"/><path d="M49,70.5c.4-5.3.2-10.7.2-16.1v-.8a13.4,13.4,0,0,1,.1-2.8c0-1.5.1-3,.2-4.5a41.3,41.3,0,0,1,.7-4.9l-.7.8-.3-.4A136.7,136.7,0,0,0,48,63.3c0,3.2-.1,6.4-.4,9.5a16.9,16.9,0,0,0,.8,3.4A49.8,49.8,0,0,0,49,70.5Z" transform="translate(0 0)" style="fill:#d8a960"/><path d="M48.5,147.2c-1.1-4.2-2.8-8.2-3.8-12.4s-1.2-10.9-.7-16.4a99.5,99.5,0,0,1,3.5-16.9l-1.8,1.2a102.7,102.7,0,0,0-3.2,12.1c-1.9,9.5-.1,17.5,3,26.5a100.6,100.6,0,0,1,5,29.8,59.8,59.8,0,0,1-.4,8.5l2,.8A101.4,101.4,0,0,0,48.5,147.2Z" transform="translate(0 0)" style="fill:#d8a960"/><path d="M92,172.8a78.9,78.9,0,0,1-1.1-9.9,61.1,61.1,0,0,0-.8-8.6,15.3,15.3,0,0,0-2.9-6.5,16.5,16.5,0,0,0-6.1-4.3c-2.4-1.1-4.8-2.2-7.1-3.5a27.2,27.2,0,0,1-6.5-5.1c-4.2-4.5-8.8-8.9-12-14.2a7.5,7.5,0,0,1-.4-7.5c1.3-2.7,3.6-4.7,5.8-6.7H58.8c2.7,2.9,5.8,5,9.7,5.4a30.1,30.1,0,0,0,5.2.1,13.6,13.6,0,0,0,5.3-1.1,7.4,7.4,0,0,0,3.5-3.7,27.9,27.9,0,0,1,2.4-4.5,9.1,9.1,0,0,1,3.7-2.8,38.1,38.1,0,0,0,5-2.3c3.8-2.5,5.4-6.7,6.5-10.9a1.5,1.5,0,0,0-1.4-1.9,12.6,12.6,0,0,0-2.8.4c-.9.4-1.3,1.6-1.6,2.4a27.7,27.7,0,0,1-1,2.6c-.5,1.4-1,2.8-2.4,3.5s-3.5.8-5.2,1l1.5,1.9c1.6-4.3,3.1-8.5,4.9-12.6a1.5,1.5,0,0,0-1.7-2.2l-2.4.5c-.9.3-1.1.9-1.4,1.7s-.5,1.7-.8,2.5a84.3,84.3,0,0,1-3.4,9.6c-1.3,2.9-3,5.9-5.5,7.9a4.7,4.7,0,0,1-2.6,1.1H72.8l-.8-.2h-.5l-.7-.4-1.2-.8a34.4,34.4,0,0,1-2.7-2.7,35.4,35.4,0,0,1-4.2-6.4,55.9,55.9,0,0,1-3-6h0l-.3-.6a6.5,6.5,0,0,0-.4-1.3,24.4,24.4,0,0,1-.6-2.6,13.5,13.5,0,0,1,.1-4.5,19.5,19.5,0,0,1,4.7-8.7c2.5-2.8,5.3-5.4,8.1-8a1.5,1.5,0,0,0-.6-2.5l-2.8-.8a1.4,1.4,0,0,0-1.5.4c-3.2,3.5-5.9,7.5-9,11.2h2.1c0-.1-.4-.6-.4-.7a5.7,5.7,0,0,1-.4-1.4,15.3,15.3,0,0,1-.3-3c-.1-2.1,0-4.1-.1-6.2A1.5,1.5,0,0,0,56,58.3l-1.7,1.1a1.7,1.7,0,0,0-.7,1.7,12.6,12.6,0,0,1,.4,5.1,26.7,26.7,0,0,0,0,4,11,11,0,0,1,.2,1.8v.8c0,.1-.1.3,0,.2s0-.2.1-.2.1-.2-.1,0-2.2.8-3.2,1.3l2.2.9c-.7-3.8-1.3-7.5-1.8-11.2a84.7,84.7,0,0,1-.7-11.3c.1-6.1,4.1-11.4,7.8-16,2.2-2.8,4.6-5.5,6.6-8.5a1.5,1.5,0,0,0-1.3-2.2H61.2a12.3,12.3,0,0,0-2.7.2c-1,.1-1.5,1.3-2,2.2l-1.4,2.5L52.2,36a27.1,27.1,0,0,1-3.8,5.1h2.1c-1.4-1.8-1.1-4.4-.8-6.5A48.3,48.3,0,0,0,51,27a1.6,1.6,0,0,0-2.6-1.1c-.9.9-1.9,1.8-2.8,2.8s-.4,1.5-.5,2.2a26.4,26.4,0,0,1-.2,2.9c-.2,1.7-.5,3.3-.7,5a45.7,45.7,0,0,0-.5,5.2c-.1,1.6.1,3.2.1,4.7s-.4,5.1-.4,7.7.5,5.9,2.5,8.2l.6-2.5a41,41,0,0,1-7.9,1.6l-6.8.9H29.5c-.3-.1.2.1-.1,0l-.4-.3c-.3-.2.2.2-.1,0l-.3-.4h-.1a4.1,4.1,0,0,1-.5-.9c.1.1-.1-.4-.2-.5a4.3,4.3,0,0,1-.1-.5,10.5,10.5,0,0,1-.4-1.7c-.3-1.4-2.6-1.3-2.9,0L24,61.6a6.4,6.4,0,0,0-.2.7,3,3,0,0,0,.3,1.6,14,14,0,0,0,2.2,4.4,5.6,5.6,0,0,0,4.1,1.5,56.8,56.8,0,0,0,7.2-1.1l9.6-1.4-1.5-1.5c.2,2.6.1,5.2.5,7.8s1.1,4.8,3.1,6.3,2,1.2,2.7,2.1a4.5,4.5,0,0,1,1.1,2.3,22.5,22.5,0,0,1,.5,6.4,12.1,12.1,0,0,0,2.1,7.1l.3-2.4c-5.2,2.6-11.2,4.7-14.5,9.8a22.6,22.6,0,0,0-1.8,3.9c-.6,1.3-1.1,2.6-1.6,3.9a55.8,55.8,0,0,0-2.7,8.8,18.9,18.9,0,0,0-.3,8.2,25,25,0,0,0,4,8,59.2,59.2,0,0,1,4.9,7.4,15.8,15.8,0,0,1,1.3,9.3,28,28,0,0,1-2.2,9.5c-.8,1.5-1.6,3-2.3,4.5l-.9,2.2c-.3.9-1,2.2-.5,3.1a10.3,10.3,0,0,0,1.4,1.5,25.5,25.5,0,0,0,3.8,2.9,32.2,32.2,0,0,0,14.7,5,44.5,44.5,0,0,0,10.3-.5,25.5,25.5,0,0,0,6.8-2,16,16,0,0,0,3.7-2.5l1-.9.4-.4c.3-.2-.2.1-.1.1l.3-.2c.4-.3-.3.1,0,0h.5l2.9.2c1.9.1,4.5.2,6-1.2a3.3,3.3,0,0,0,.9-3.1,1.5,1.5,0,0,0-1.9-1,1.5,1.5,0,0,0-1,1.8c-.1-.3,0,.1,0,.1h0c0,.3-.1-.2,0-.1h0c-.1.1-.1.1,0-.1H89c0,.1.2-.1.1,0l-.3.2c.2-.2,0-.1-.1,0H86.2c-1.7,0-3.6-.4-5.2,0a4.8,4.8,0,0,0-2.2,1.5,5.2,5.2,0,0,0-1.1,1l-.3.2c-.3.2.2-.2-.2.1l-.8.6-1,.5-.5.3-.5.2a14,14,0,0,1-2.9.9,34.7,34.7,0,0,1-9,1.1,29.9,29.9,0,0,1-15-3.8L44.9,175h-.2l-.2-.2c.2.1.2.1.1.1l-.5-.4-.8-.7-1.5-1.5.4,1.4c.8-3.1,2.5-5.8,3.8-8.7a30.7,30.7,0,0,0,2.3-9.5c.3-3.2.4-6.5-.8-9.5a33.9,33.9,0,0,0-4.5-7.5,34.5,34.5,0,0,1-4.3-7.1,12,12,0,0,1-.7-7,40.2,40.2,0,0,1,2.3-8.4c.9-2.5,1.8-5,2.9-7.5,2.5-5.8,9.2-7.8,14.3-10.4a1.4,1.4,0,0,0,.3-2.3,7.3,7.3,0,0,1-.9-2.2,24,24,0,0,1-.3-2.8,29.8,29.8,0,0,0-.5-6.7,8.4,8.4,0,0,0-3.5-5.5c-.9-.6-1.7-.9-2.2-1.7a7.7,7.7,0,0,1-1.1-3c-.6-2.6-.4-5.3-.6-8a1.4,1.4,0,0,0-1.5-1.5c-2.8.3-5.5.7-8.3,1.2s-5.1,1-7.6,1.2H28.9c.4.1,0-.1-.1-.1h-.1l-.3-.3h-.1c-.1-.1-.1-.3-.2-.4l-.5-.9-.9-2.4v.8l.6-2.3H24.4c.4,1.9.9,3.9,2.3,5.3a6.4,6.4,0,0,0,4.4,1.5,29.6,29.6,0,0,0,3.1-.3l4.1-.5a53.1,53.1,0,0,0,9-1.8,1.5,1.5,0,0,0,.7-2.5,7.8,7.8,0,0,1-1.5-4.4,38.5,38.5,0,0,1,.1-5.9,54.2,54.2,0,0,0,.1-5.7,32.9,32.9,0,0,1,.5-7.7,68.8,68.8,0,0,0,1-9l-.5,1L50.5,28,48,27c-.1,2.7-1,5.3-1.3,8s-.2,5.9,1.7,8.2a1.5,1.5,0,0,0,2.1,0c4.2-4.2,6.4-10,9.5-14.9l-1.3.7,5.1-.2-1.3-2.3c-3.7,5.3-8.4,10-11.7,15.7a23.5,23.5,0,0,0-3.1,9,50.5,50.5,0,0,0,.1,5.5c.1,2,.3,3.9.5,5.9.5,4.4,1.2,8.8,2,13.1a1.5,1.5,0,0,0,2.2.9c-.2.1.2,0,.2,0l.6-.2.9-.3a4,4,0,0,0,2.1-1.2c1.2-1.1,1-2.7.8-4.1a34.6,34.6,0,0,1-.2-4.5,13.5,13.5,0,0,0-.4-6L55.8,62l1.7-1.1-2.2-1.3c.2,2.3,0,4.5.1,6.8s.4,4.8,2,6.6a1.5,1.5,0,0,0,2.1,0c3.1-3.6,5.8-7.7,9-11.2l-1.4.4,2.8.8-.7-2.5C64.5,65,59,69.4,56.5,75.6a17.1,17.1,0,0,0-.9,9.5,29.6,29.6,0,0,0,2.8,7.5c2.2,4.6,5,9.4,8.9,12.7a10.7,10.7,0,0,0,6.2,2.8c2.6.2,4.8-1.2,6.6-3,5.4-5.7,7.1-13.7,9.6-20.9l-1,1,2.5-.5-1.7-2.2c-1.9,4.3-3.5,8.8-5.2,13.3a1.5,1.5,0,0,0,1.4,1.9c3-.3,6.5-.4,8.5-2.9s2.2-5,3.5-7.4l-1.3.7,2.3-.3-1.5-1.9c-.8,3.2-1.9,6.7-4.7,8.8a17.2,17.2,0,0,1-4.3,2.1A13.8,13.8,0,0,0,84,99.3a12.1,12.1,0,0,0-3,4.1,15.3,15.3,0,0,1-2.1,4c-2,2.1-5.9,1.6-8.6,1.6a10,10,0,0,1-5.1-1.1,18.3,18.3,0,0,1-4.3-3.5,1.5,1.5,0,0,0-2.1,0c-4,3.5-8.3,7.9-7.4,13.7.5,3.2,2.5,5.7,4.4,8.2s4.2,4.9,6.4,7.3a56.1,56.1,0,0,0,6.5,6.4,35.5,35.5,0,0,0,7,4.3l3.8,1.8a17.8,17.8,0,0,1,3.6,1.9,10.1,10.1,0,0,1,3.6,5c.9,2.9.9,5.9,1.1,8.9a91,91,0,0,0,1.3,11.7,1.5,1.5,0,0,0,1.8,1.1A1.6,1.6,0,0,0,92,172.8Z" transform="translate(0 0)" style="fill:#75411a"/><path d="M127.7,99.9l.3-.8c1.8-9-10.4-12-16.8-10.8,2.3-9.2-.5-17.1-10.2-20.3l-.8-.2c-10.3-3.1-15.9,3.6-19.1,12.8-6.4-2.8-16.4-2.7-14.8,7.4s13.6,8.8,20.9,6.7c-.7,11.8,15.9,11.8,22.1,5.8,1.4,3.7,3.7,6.6,8.1,6.6a12.2,12.2,0,0,0,9.9-6.3h.1a.3.3,0,0,1,.1-.2A1.4,1.4,0,0,1,127.7,99.9Z" transform="translate(0 0)" style="fill:#6ab3b9"/><path d="M128.2,100.1a8.2,8.2,0,0,0-2.7-9,17,17,0,0,0-9.2-3.4,18.8,18.8,0,0,0-5.3.1l.6.6a19.7,19.7,0,0,0,.2-10.5,14,14,0,0,0-5.6-7.9,19.7,19.7,0,0,0-11-3.5,13.1,13.1,0,0,0-8.6,3.6,24.8,24.8,0,0,0-5.9,10.3l.7-.3c-4.8-2-13.5-3.1-15.4,3.3a11.4,11.4,0,0,0-.1,5.5,10.5,10.5,0,0,0,2.2,4.5c2,2.4,5.3,3.3,8.3,3.4a37.5,37.5,0,0,0,11-1.6l-.7-.5a9.3,9.3,0,0,0,1.5,5.9,9.2,9.2,0,0,0,4.2,3.3,17.4,17.4,0,0,0,11.7.1,15.7,15.7,0,0,0,5.6-3.2l-.9-.2c1.2,3,3.1,5.9,6.3,6.8s7.2-.7,9.9-2.9a14.2,14.2,0,0,0,2-2.2,1.6,1.6,0,0,0,.4-.7l.2-.2c0-.1.1-.4,0-.2l.2-.3a5.9,5.9,0,0,0,.4-.8c.2-.6-.8-.9-1-.3a1.4,1.4,0,0,0-.2.6c-.1.3.2-.3,0,.1l-.6.9a15.6,15.6,0,0,1-1.6,2,11.2,11.2,0,0,1-4.2,2.5,8.2,8.2,0,0,1-4.6.6,6.6,6.6,0,0,1-3.7-1.9,11.6,11.6,0,0,1-2.5-4.3.5.5,0,0,0-.8-.2c-2.6,2.5-6.5,3.6-10,3.8s-7.3-.6-9.6-3.3a8.9,8.9,0,0,1-1.7-5.9.6.6,0,0,0-.6-.5,38.7,38.7,0,0,1-8.9,1.6c-2.8.1-5.9-.2-8.3-2s-3.5-5.6-3.2-8.8a5.6,5.6,0,0,1,4.8-5.2A16,16,0,0,1,80.9,81a.5.5,0,0,0,.7-.3c2-5.8,5.7-12.4,12.5-13.1a17,17,0,0,1,10.5,2.6,13.7,13.7,0,0,1,6,7,19.3,19.3,0,0,1,.1,10.9.6.6,0,0,0,.6.7,20.1,20.1,0,0,1,8.8.6c2.7.9,5.6,2.4,6.9,5.1a6.9,6.9,0,0,1,.2,5.3C127,100.4,128,100.7,128.2,100.1Z" transform="translate(0 0)" style="fill:#3b7e82"/><g style="clip-path:url(#clip-path)"><path d="M115.8,92.6c.1-.1.1-.3.2-.5,1.2-6.1-7-8.1-11.4-7.4,1.5-6.2-.3-11.5-6.9-13.7l-.5-.2c-7-2-10.8,2.5-13,8.7-4.3-1.9-11.1-1.8-10,5.1s9.2,5.9,14.2,4.5c-.5,8,10.7,8,14.9,3.9,1,2.5,2.5,4.5,5.5,4.5a8.4,8.4,0,0,0,6.8-4.3h0V93C115.7,92.9,115.7,92.8,115.8,92.6Z" transform="translate(0 0)" style="fill:#98d9e4"/><path d="M123.9,98.4c0-.1.1-.2.1-.4.8-4-4.6-5.3-7.5-4.8,1-4.1-.2-7.6-4.5-9h-.4c-4.6-1.4-7.1,1.6-8.5,5.7-2.8-1.2-7.3-1.2-6.6,3.3s6.1,3.9,9.4,3c-.4,5.2,7,5.2,9.8,2.5.6,1.7,1.6,3,3.6,3a5.5,5.5,0,0,0,4.4-2.8h.1A.4.4,0,0,1,123.9,98.4Z" transform="translate(0 0)" style="fill:#98d9e4"/><path d="M109.2,80.6v-.2c.5-2.5-2.9-3.4-4.7-3,.6-2.6-.2-4.8-2.9-5.7,0-.1-.1-.1-.2-.1-2.9-.9-4.5,1-5.3,3.6-1.9-.8-4.7-.8-4.2,2.1s3.8,2.4,5.9,1.9c-.2,3.3,4.4,3.3,6.2,1.6a2.3,2.3,0,0,0,2.2,1.8,3.3,3.3,0,0,0,2.8-1.7h0C109.2,80.7,109.2,80.7,109.2,80.6Z" transform="translate(0 0)" style="fill:#98d9e4"/><path d="M100.9,75.1h0c.4-1.6-1.8-2.2-3-2a2.8,2.8,0,0,0-1.8-3.6.1.1,0,0,1-.1-.1c-1.9-.5-2.9.7-3.5,2.3-1.1-.5-2.9-.4-2.6,1.4s2.4,1.5,3.7,1.2c-.1,2.1,2.9,2.1,4,1A1.4,1.4,0,0,0,99,76.4a2.2,2.2,0,0,0,1.8-1.1h0A.1.1,0,0,0,100.9,75.1Z" transform="translate(0 0)" style="fill:#bdefd1"/><path d="M104.5,81h0c.2-.8-1-1.1-1.6-1s0-1.6-.9-1.9h-.1c-1-.3-1.5.3-1.8,1.2s-1.5-.3-1.4.7,1.3.8,2,.6,1.5,1.1,2,.5.4.7.8.7a1.1,1.1,0,0,0,.9-.6h.1Z" transform="translate(0 0)" style="fill:#bdefd1"/></g><path d="M129.1,100.3a8.8,8.8,0,0,0-2.9-9.9,17.7,17.7,0,0,0-9.9-3.7,20.3,20.3,0,0,0-5.5.1l1.8,1.9a22,22,0,0,0,.2-11.1,15.1,15.1,0,0,0-6-8.4,21,21,0,0,0-11.6-3.7,14,14,0,0,0-9.3,3.9c-3,2.9-4.9,6.9-6.2,10.8l2.2-.9C76.5,77,67.2,76,65,83.1a12.6,12.6,0,0,0,0,6.1,11.3,11.3,0,0,0,2.4,4.9c2.2,2.6,5.7,3.6,9,3.7a35.3,35.3,0,0,0,11.2-1.6l-1.9-1.5a11.1,11.1,0,0,0,1.6,6.4,11,11,0,0,0,4.8,3.7,17.9,17.9,0,0,0,12.3.1,15.6,15.6,0,0,0,6-3.4l-2.5-.6c1.2,3.1,3.1,6,6.4,7.2s7.3.1,10.2-1.9a12.4,12.4,0,0,0,4.1-4.7l-.5.6c.6-.3.8-1.2,1-1.8a1.5,1.5,0,0,0-1-1.8,1.6,1.6,0,0,0-1.9,1c0,.2-.1.3-.1.4s-.1.1,0,.1l.5-.5c-.4.1-.6.6-.8,1a6.1,6.1,0,0,1-.7,1,6.6,6.6,0,0,1-1.4,1.5,11.9,11.9,0,0,1-3.8,2.1l-1,.3H118a4.4,4.4,0,0,1-2-.1,5.3,5.3,0,0,1-3-1.7,10.7,10.7,0,0,1-2.2-3.7,1.5,1.5,0,0,0-2.5-.7l-.5.4-.2.2-1.1.8-1.2.6-.6.3c.3-.2,0-.1,0,0h-.4l-2.8.8H95.8l-.7-.2-1.3-.3-.5-.2c-.1-.1-.5-.2-.1-.1h-.3l-1.1-.6-.5-.3h-.2l-1-.9c0-.1-.2-.4,0-.1l-.2-.3-.4-.6c0-.1-.1-.2-.1-.3s-.2-.4-.2-.2,0-.2,0-.2-.1-.3-.2-.4-.1-.5-.1-.7-.1-.2-.1-.4v-.2h0a10.9,10.9,0,0,1-.1-1.8,1.4,1.4,0,0,0-1.9-1.4l-4.2,1-1.1.2h-1l-2.3.2H74.9c.3,0-.2-.1-.3-.1H74l-1-.3h-.5c-.1-.1-.6-.3-.3-.1l-1.8-1.1c.3.2-.1-.1-.1-.1l-.4-.3-.3-.4-.2-.2h-.1a4.1,4.1,0,0,1-.5-.9l-.3-.4v-.3c.1.3,0-.1-.1-.2a10.5,10.5,0,0,1-.6-5h0v-.2c0-.2.1-.4.1-.6s.1-.3.2-.4v-.3c.1-.2,0,.2,0,0a5.6,5.6,0,0,1,.5-.8v-.2h0l.3-.3.4-.4h.2c-.1,0-.3.2-.1,0l.8-.4c.1-.1.5-.2.3-.2h.3l1-.3h.7c-.4.1,0,0,.1,0h3.2c.3.1-.1,0,.1,0l2.4.6,1.2.3.5.2.4.2a1.5,1.5,0,0,0,2.2-.9,38.5,38.5,0,0,1,1.9-4.7l1.3-2.1a7.6,7.6,0,0,1,1.3-1.7c.5-.5,1-1.1,1.6-1.6l.3-.2h.1l.3-.2.9-.6,1-.5h.2l.6-.2,1-.3h1a16.9,16.9,0,0,1,10,2.4,14,14,0,0,1,1.8,1.3l1.7,1.7.5.6.6,1,.6,1v.2c.2.2,0-.2.1,0s.1.4.2.6a10.2,10.2,0,0,1,.6,2.5v.2c.1.5,0-.1,0,.2a2,2,0,0,0,.1.7v1.3a21.5,21.5,0,0,1-.7,5.6c-.3,1.2.7,2,1.9,1.8s.5-.1.3,0h5.6l2.3.6,1.1.4.5.2h.4a11.8,11.8,0,0,1,1.9,1.1l.4.3.3.2.7.8.4.3c.1.2-.2-.2-.1,0l.2.3.6.9v.2h0a1.4,1.4,0,0,0,.2.6,1.3,1.3,0,0,0,.1.6v.2h0a5.2,5.2,0,0,1-.4,2.8,1.7,1.7,0,0,0,1.1,1.9A1.5,1.5,0,0,0,129.1,100.3Z" transform="translate(0 0)" style="fill:#3b7e82"/><path d="M76.6,18.6c-.1,0-.1,0-.1-.1l-.6-.2h-.2l-.7-.2c-6.2-1.8-12.4.2-18.4,2.8C65.8,6.6,40.5-2.6,32.2,9.6a2.4,2.4,0,0,0-.2-.8c-.1,0-.1-.1-.1-.2a.8.8,0,0,1-.2-.5l-.2-.2a.5.5,0,0,0-.2-.4V7.2l-.3-.4a.3.3,0,0,1-.1-.2l-.3-.4L30.3,6l-.2-.3-.2-.2c-.1-.2-.3-.3-.4-.4V4.9l-.5-.4-.3-.2L28.3,4a.2.2,0,0,1-.2-.2l-.3-.2-.3-.2h-.3a.5.5,0,0,0-.4-.2c0-.1-.1-.1-.2-.2H26l-.4-.2h-.2L23,1.7H21.7a14.8,14.8,0,0,0-9.9,2.7c-8.3,6-2.1,16.7,2.7,22.9-4.8,5.5.3,9.5,6.5,11.1,8.5,2.3,16.8.3,24.1-4.1-3.4,3.9-6.2,13.6.5,15.9s17-6.5,20-12.9c2.3,3.9,5.3,7.8,10.4,6.7S85.8,37,86.1,31.4,82.1,20.6,76.6,18.6Z" transform="translate(0 0)" style="fill:#6ab3b9"/><path d="M76.7,18.1a19.7,19.7,0,0,0-9.9-.9,41.1,41.1,0,0,0-10.3,3.2l.6.7a11.3,11.3,0,0,0,1.9-8,10.6,10.6,0,0,0-3.9-6A18.4,18.4,0,0,0,39.4,4a13.8,13.8,0,0,0-7.6,5.3h.9A12.3,12.3,0,0,0,25.8,2a15.5,15.5,0,0,0-11.4.2C11.3,3.5,8.4,6,7.5,9.3s0,6.2,1.1,9a39,39,0,0,0,5.6,9.2v-.7c-1.5,1.8-2.7,4.1-1.8,6.4s3,3.5,5,4.4c5.5,2.6,12.1,2.8,18,1.3a36.9,36.9,0,0,0,10-4.3l-.6-.8A16.2,16.2,0,0,0,41.3,41c-.5,2.5-.5,5.3,1.1,7.4s5.2,3,8,2.5a17.8,17.8,0,0,0,8.9-4.6A27.9,27.9,0,0,0,66,37.4h-.8c1.5,2.7,3.5,5.5,6.5,6.7s6.6-.1,9.1-2A15,15,0,0,0,86.2,34a12.5,12.5,0,0,0-1.3-9.3,15.3,15.3,0,0,0-8.2-6.6c-.6-.2-.9.7-.3,1,5.6,2,10,7.3,9.1,13.4a14,14,0,0,1-4.3,8c-2.1,2-5.3,3.6-8.3,2.9s-5.3-3.8-6.9-6.5a.5.5,0,0,0-.8,0A27,27,0,0,1,60,44.2a20.4,20.4,0,0,1-8,5.3c-2.6.9-6,.9-8.1-.9s-2.1-4.3-1.8-6.5a14.7,14.7,0,0,1,3.4-7.5c.3-.5-.1-1.1-.6-.8a33.2,33.2,0,0,1-16.7,5,26.8,26.8,0,0,1-8.4-1.3c-2.1-.7-4.4-1.7-5.8-3.5s-.7-4.6.9-6.5c.2-.2.2-.4,0-.7a43.2,43.2,0,0,1-4.7-7.3,17.5,17.5,0,0,1-2-8.3C8.8,4.1,17.5.9,23.5,2.4a11.2,11.2,0,0,1,8.3,7.3.5.5,0,0,0,.9.1c3-4.4,8.7-6,13.9-5.2s9.7,3.2,11.2,7.9a10.2,10.2,0,0,1-1.6,8.1c-.2.3.2.9.6.7a46.6,46.6,0,0,1,9.8-3.1,18.3,18.3,0,0,1,9.8.9C77,19.3,77.3,18.3,76.7,18.1Z" transform="translate(0 0)" style="fill:#3b7e82"/><path d="M77,17.1a22,22,0,0,0-10.5-.9,41.1,41.1,0,0,0-10.3,3.2l1.7,2.2a11.7,11.7,0,0,0,2-8.7,11.3,11.3,0,0,0-4.1-6.5A19.6,19.6,0,0,0,39.1,3a15.6,15.6,0,0,0-8.2,5.8l2.8.4a13.3,13.3,0,0,0-7.6-8.1,15.7,15.7,0,0,0-12.2.3c-3.4,1.4-6.4,4-7.3,7.7s-.2,6.5,1,9.5a39.4,39.4,0,0,0,5.9,9.6V26.1c-1.8,2-3.1,4.7-2,7.3s3.1,4,5.3,5.1a29.2,29.2,0,0,0,18.9,1.3,38.1,38.1,0,0,0,10.2-4.3l-1.8-2.4a16.4,16.4,0,0,0-3.7,7.6c-.6,2.8-.6,6,1.2,8.3s5.9,3.4,9.1,2.9A19.5,19.5,0,0,0,60,47a28.9,28.9,0,0,0,6.9-9H64.3c1.7,2.9,3.8,5.8,7.1,7.1s7.2,0,9.9-2.1a16.3,16.3,0,0,0,5.9-8.7,14.2,14.2,0,0,0-1.4-10.1A17.1,17.1,0,0,0,77,17.1a1.5,1.5,0,0,0-1.9,1.1A1.5,1.5,0,0,0,76.2,20a14,14,0,0,1,6.3,4.7,9.1,9.1,0,0,1,1.7,3.6,9.2,9.2,0,0,1,.3,4,12.9,12.9,0,0,1-4,7.5,9.7,9.7,0,0,1-3.3,2.1,9,9,0,0,1-2.2.6,5.4,5.4,0,0,1-1.8,0,6.6,6.6,0,0,1-3.5-2.2,16.2,16.2,0,0,1-2.8-3.9,1.5,1.5,0,0,0-2.6,0,27.6,27.6,0,0,1-5,7.1,20,20,0,0,1-7.6,5.1l-1,.2-.5.2h-.4a8.1,8.1,0,0,1-2.2,0h-.8l-1.1-.4c.2.1-.1,0-.2,0l-.4-.3-.3-.2c-.1,0-.3-.2-.1-.1s-.1,0-.1-.1l-.6-.5c-.2-.2.1.1-.1-.2a.5.5,0,0,1-.2-.4c-.1-.1-.2-.2-.2-.3s0,.1-.1-.2a1.9,1.9,0,0,1-.2-.8.6.6,0,0,1-.1-.4c-.1-.4,0,.1,0-.2a2.8,2.8,0,0,1-.1-.9V43a4.3,4.3,0,0,0,.1-.5v-.2h0a16,16,0,0,1,.5-2.1l.3-1,.3-.6c-.1.3,0-.1,0-.2l1-1.8.6-.8v-.2c.1-.1-.2.2,0,.1l.3-.4c1.1-1.3-.3-3.3-1.8-2.4a32,32,0,0,1-16.2,4.9,25,25,0,0,1-8.1-1.3,11,11,0,0,1-5.4-3.2c.2.2,0-.1,0-.1l-.3-.4a.4.4,0,0,0-.1-.3c.1.3,0-.1,0-.1a.4.4,0,0,1-.1-.3c0-.1-.1-.6-.1-.2v-.7c0-.4-.1.2,0-.2a.6.6,0,0,0,.1-.4l.2-.6a9.4,9.4,0,0,1,1.2-1.8,1.5,1.5,0,0,0,0-2.1l-.2-.2-.3-.4-.6-.8-1.2-1.8A38.4,38.4,0,0,1,11.1,19a15.5,15.5,0,0,1-1.9-7.8c0-.1.1-.5.1-.4v-.3l.3-1a6.5,6.5,0,0,1,.8-1.7,13.1,13.1,0,0,1,1.2-1.5l2-1.4a12.5,12.5,0,0,1,5-1.8H22l1.3.2A10.5,10.5,0,0,1,28,5.7a8.2,8.2,0,0,1,1.7,2l.7,1.2c0,.1,0,.2.1.2s.1.4.1.2,0,.2,0,.2l.2.5a1.5,1.5,0,0,0,2.7.3l.3-.4c.2-.2.1,0,0,0l.2-.2a4.6,4.6,0,0,1,.7-.7,2.3,2.3,0,0,1,.7-.7l.3-.3c.1,0,.3-.2.1-.1s.1,0,.1-.1l1.7-1,.8-.4c-.3.2.1,0,.2,0l.5-.2L41,5.7l.9-.2h4.4a26.2,26.2,0,0,1,3.8.9l.4.2c.3.1-.1-.1.1.1l.9.4,1.6.9.3.3c.1,0,.4.3.2,0l.7.6,1.2,1.3h.1l.2.3a3,3,0,0,1,.4.8,1.6,1.6,0,0,1,.4.7c.1.2-.1-.3,0-.1v.2c.1.1.1.3.2.4a2.9,2.9,0,0,1,.2.9c0,.1.1.7.1.2v1.9a.4.4,0,0,1-.1.3c.1-.5,0-.1,0,0a8.3,8.3,0,0,1-.6,2.1h0v.3l-.3.5a7.5,7.5,0,0,1-.7,1.2c-.6,1,.5,2.7,1.7,2.2a42.9,42.9,0,0,1,9.8-3.1,17.7,17.7,0,0,1,9.4.8A1.5,1.5,0,0,0,78,19,1.6,1.6,0,0,0,77,17.1Z" transform="translate(0 0)" style="fill:#3b7e82"/><g style="clip-path:url(#clip-path-2)"><path d="M53.4,13.7h-.5l-.4-.2c-3.6-1-7.3.2-10.8,1.7,5.4-8.4-9.4-13.8-14.3-6.7,0-.1-.1-.2-.1-.4h-.1a.4.4,0,0,0-.1-.3H27V7.2h-.1c0-.1-.1-.2-.1-.3h-.1l-.2-.2h-.1a.3.3,0,0,0-.1-.2V6a.2.2,0,0,1-.2-.2h-.1l-.3-.2h-.2a.3.3,0,0,0-.1-.2h-.6a.1.1,0,0,0-.1-.1l-.2-.2h-.8A4.2,4.2,0,0,0,22,3.9h-.7a9.3,9.3,0,0,0-5.8,1.6c-4.9,3.6-1.3,9.8,1.6,13.5-2.9,3.2.1,5.6,3.7,6.5s9.9.1,14.2-2.4c-2,2.3-3.6,7.9.3,9.3s9.9-3.8,11.7-7.6c1.3,2.3,3.1,4.6,6.1,3.9s5.7-4,5.9-7.2S56.6,14.9,53.4,13.7Z" transform="translate(0 0)" style="fill:#98d9e4"/><path d="M54,11.2h-.3a5.6,5.6,0,0,0-4,.6c2-3.1-3.5-5.1-5.3-2.5h-.5a.1.1,0,0,1-.1-.1h-.4a.1.1,0,0,1-.1-.1H43l-.5-.2h-.3a2.9,2.9,0,0,0-2.2.6c-1.8,1.3-.4,3.6.6,4.9-1,1.2.1,2.1,1.4,2.4a6.4,6.4,0,0,0,5.2-.9c-.7.9-1.3,3,.1,3.5s3.7-1.4,4.3-2.8c.5.8,1.2,1.7,2.3,1.4A3,3,0,0,0,56.1,14,2.9,2.9,0,0,0,54,11.2Z" transform="translate(0 0)" style="fill:#98d9e4"/><path d="M82.5,25.6h-.4a7.5,7.5,0,0,0-5.1.7c2.5-3.9-4.5-6.4-6.7-3.1-.1-.1-.1-.1-.1-.2h0c-.1,0-.1,0-.1-.1h0a.1.1,0,0,1-.1-.1h0a.1.1,0,0,0-.1-.1h0a.1.1,0,0,1-.1-.1h-.2c0-.1,0-.1-.1-.1h-.3a.1.1,0,0,1-.1-.1H69a.1.1,0,0,0-.1-.1h-.2a.1.1,0,0,1-.1-.1h-.9a.1.1,0,0,0-.1-.1h-.2a4,4,0,0,0-2.8.8c-2.3,1.6-.5,4.6.8,6.3-1.3,1.5.1,2.6,1.8,3a8.1,8.1,0,0,0,6.6-1.1c-.9,1.1-1.7,3.7.1,4.4s4.7-1.8,5.6-3.6c.6,1.1,1.4,2.2,2.8,1.9a4,4,0,0,0,2.8-3.5A3.6,3.6,0,0,0,82.5,25.6Z" transform="translate(0 0)" style="fill:#98d9e4"/><path d="M35.3,11.6H35c-1.4-.4-2.7.1-4.1.6C33,9,27.4,7,25.6,9.7V9.5h-.5c0-.1,0-.1-.1-.1h-.9l-.5-.2h-.3a2.7,2.7,0,0,0-2.1.6c-1.9,1.3-.5,3.6.6,5-1.1,1.2,0,2.1,1.4,2.4a6.4,6.4,0,0,0,5.2-.9c-.7.9-1.3,3,.1,3.5s3.8-1.4,4.4-2.8c.5.8,1.2,1.7,2.3,1.4a3,3,0,0,0,2.2-2.7A3.1,3.1,0,0,0,35.3,11.6Z" transform="translate(0 0)" style="fill:#bdefd1"/><path d="M72.4,28.7h-.5c-2-.6-4.1.1-6.1.9,3.1-4.7-5.3-7.8-8.1-3.7v-.3c-.1,0-.1,0-.1-.1h-.2a.1.1,0,0,0-.1-.1h-.2a.1.1,0,0,0-.1-.1h-.7c-.1,0-.1,0-.1-.1h-.7l-.8-.2h-.5A4.6,4.6,0,0,0,51,24c-2.8,2-.7,5.5.9,7.6-1.6,1.8.1,3.2,2.1,3.7a9.9,9.9,0,0,0,8-1.4c-1.1,1.3-2.1,4.5.2,5.3s5.6-2.2,6.6-4.3c.7,1.3,1.7,2.6,3.4,2.2A4.7,4.7,0,0,0,75.6,33,4.7,4.7,0,0,0,72.4,28.7Z" transform="translate(0 0)" style="fill:#98d9e4"/></g><path d="M99.8,59.4h.1l.7-.9c3-4.2,6-11.1,1.1-15s-15.6-2.5-21.8-2.1h-.2v-.2h-.1c-.1-.1-.1-.1-.1-.2a.3.3,0,0,1-.1-.2h-.1c0-.1-.1-.1-.1-.2s-.1-.1-.1-.2a.3.3,0,0,1-.1-.2h-.1a6.1,6.1,0,0,0-.7-1h0l-.3-.3c0-.1,0-.1-.1-.2l-.2-.3h-.2l-.2-.3-.2-.2-.2-.3h-.2l-.3-.3c0-.1-.1-.1-.2-.2l-.3-.3h-.2l-.3-.3H75l-.4-.3h0l-1.1-.6a.1.1,0,0,0-.1-.1l-.4-.2h-.2l-.5-.2H67a18.1,18.1,0,0,0-5,1.4c-13.1,5.8-4,18.4-4,18.4C52.7,54.2,46.5,57,47.9,63.7s8.3,4.6,12.9,2.3c-1.2,4.1,3.4,6.4,6.9,5.7,5-.9,9.6-6,10.8-11,.9,3.9,2.3,8,6.9,8S95.6,64.3,99,60.3h0Z" transform="translate(0 0)" style="fill:#6ab3b9"/><path d="M100.2,59.7a23,23,0,0,0,4-7.2c.7-2.4.9-5.2-.4-7.4s-3.8-3.6-6.3-4.3a30.3,30.3,0,0,0-8.5-.7c-3.1.1-6.1.5-9.1.7l.5.4a14.3,14.3,0,0,0-8.1-8.1c-4.1-1.5-9-.3-12.7,2a9.9,9.9,0,0,0-5,7.1,13.4,13.4,0,0,0,1,7.1,15.4,15.4,0,0,0,2,3.8l.3-.7c-4.2,1-9.4,3-10.5,7.7a7.9,7.9,0,0,0,1.5,6.8,5.9,5.9,0,0,0,5.2,1.7A18.6,18.6,0,0,0,61,66.4l-.7-.6a4.6,4.6,0,0,0,1.1,4.5,6.4,6.4,0,0,0,4.2,2c3.9.4,7.8-2.3,10.2-5.2A17.1,17.1,0,0,0,79,60.8H78c.7,3.1,1.8,6.8,5.1,8a9.2,9.2,0,0,0,5.9-.2,23,23,0,0,0,5.7-3.3,48.5,48.5,0,0,0,5.5-5.6c.4-.5-.4-1.2-.8-.7A27.2,27.2,0,0,1,90,67.1a9.4,9.4,0,0,1-5.7,1,5,5,0,0,1-3.5-2.5A14.8,14.8,0,0,1,79,60.5c-.1-.4-.9-.4-1,0a14.4,14.4,0,0,1-6.4,9c-2.6,1.7-6,2.6-8.8.8a3.7,3.7,0,0,1-1.5-4.2.5.5,0,0,0-.8-.6,20.6,20.6,0,0,1-5.4,2,5.9,5.9,0,0,1-5-.9,6.3,6.3,0,0,1-1.8-5.9A7.1,7.1,0,0,1,51.6,56a23,23,0,0,1,6.5-2.7.5.5,0,0,0,.3-.7,16.3,16.3,0,0,1-3-8.8A9.2,9.2,0,0,1,58.6,37a20.1,20.1,0,0,1,5.2-2.8,15.7,15.7,0,0,1,6.1-.7c4.3.6,7.9,4,9.5,8,.1.2.2.4.5.3,5.1-.4,10.4-1.3,15.5-.4,2.4.4,5,1.2,6.7,3.1s1.9,4.4,1.4,6.8A20.5,20.5,0,0,1,99.4,59C99.1,59.5,99.8,60.2,100.2,59.7Z" transform="translate(0 0)" style="fill:#3b7e82"/><g style="clip-path:url(#clip-path-3)"><path d="M90.2,53.4h.1l.5-.6c2-2.9,4.1-7.7.8-10.4s-11-1.8-15.3-1.5h-.4v-.2a.1.1,0,0,1-.1-.1.1.1,0,0,0-.1-.1h0l-.5-.7a.1.1,0,0,0-.1-.1c0-.1-.1-.1-.1-.2h-.1l-.2-.2c0-.1,0-.1-.1-.1a.3.3,0,0,0-.1-.2c-.1-.1-.1-.1-.1-.2h-.2c-.1-.1-.1-.1-.1-.2a.2.2,0,0,1-.2-.2h-.2l-.2-.2h-.1l-.3-.2h-.1l-.3-.2h0l-.7-.4h-.1l-.3-.2h-.2c0-.1-.1-.1-.2-.2H67.3a11.1,11.1,0,0,0-3.5,1C54.7,40,61,48.8,61,48.8c-3.6,1-8,2.9-7,7.6s5.8,3.2,9,1.6c-.8,2.9,2.4,4.5,4.8,4s6.7-4.2,7.5-7.7c.7,2.7,1.6,5.6,4.9,5.6s7.1-3,9.5-5.8h0Z" transform="translate(0 0)" style="fill:#98d9e4"/><path d="M98.9,51.1H99l.3-.4c1.3-1.9,2.7-5.1.5-6.8s-7.1-1.2-10-1h-.5l-.3-.5h0c0-.1-.1-.1-.1-.2h-.1v-.2h0c-.1,0-.1,0-.1-.1s-.1,0-.1-.1h-.1c-.1,0-.1,0-.1-.1h-.5a.1.1,0,0,1-.1-.1h-.1l-.2-.2h0l-.5-.3h-.5c-.1,0-.1,0-.1-.1H83.9a9.6,9.6,0,0,0-2.3.7c-5.9,2.6-1.8,8.4-1.8,8.4-2.4.6-5.2,1.9-4.6,4.9s3.8,2.1,5.9,1.1c-.5,1.8,1.6,2.9,3.1,2.6a6.7,6.7,0,0,0,5-5.1c.4,1.8,1,3.7,3.1,3.7s4.7-2,6.3-3.8h0Z" transform="translate(0 0)" style="fill:#98d9e4"/><path d="M75.9,43.1H76c0-.1.1-.2.1-.3s1.5-2.6.3-3.5-3.7-.7-5.2-.5h-.3c0-.1-.1-.2-.1-.3h-.3a.1.1,0,0,1-.1-.1h-.3c0-.1,0-.1-.1-.1h-.1l-.3-.2h-.4a.1.1,0,0,0-.1-.1h-1a2.7,2.7,0,0,0-1.2.3c-3.2,1.4-1,4.4-1,4.4s-2.7,1-2.4,2.6,2,1.1,3.1.6c-.3,1,.8,1.5,1.6,1.4a3.6,3.6,0,0,0,2.6-2.7c.3.9.6,1.9,1.7,1.9s2.4-1,3.3-2h0C75.8,43.2,75.9,43.2,75.9,43.1Z" transform="translate(0 0)" style="fill:#bdefd1"/></g><path d="M100.9,60.4c3.3-4.1,6.8-10.6,3.8-15.8a11.1,11.1,0,0,0-6.9-4.7,29.2,29.2,0,0,0-8.8-.8c-3.1.1-6.1.5-9.1.7l1.4,1.1a15.4,15.4,0,0,0-8.7-8.8c-4.4-1.6-9.6-.3-13.5,2.1a11.4,11.4,0,0,0-5.5,7.7,14.1,14.1,0,0,0,1,7.6,19.8,19.8,0,0,0,2.1,4.1l.9-2.2c-4.5,1.2-10,3.4-11.2,8.4a9.1,9.1,0,0,0,1.8,7.8,6.8,6.8,0,0,0,5.9,2,21.3,21.3,0,0,0,7.4-2.3l-2.2-1.7A5.7,5.7,0,0,0,60.6,71a8,8,0,0,0,5,2.3c4.2.4,8.4-2.4,10.9-5.5a16.4,16.4,0,0,0,3.4-6.7H77c.9,3.5,2.2,7.4,5.9,8.7a9.4,9.4,0,0,0,6.4-.3A20.6,20.6,0,0,0,95.4,66a32.4,32.4,0,0,0,5.5-5.6,1.5,1.5,0,0,0,0-2.1,1.7,1.7,0,0,0-2.2,0,25.9,25.9,0,0,1-9.2,7.9,11.4,11.4,0,0,1-2.6.9H84.6a4.6,4.6,0,0,1-1.9-.8c.2.1-.1-.2-.1-.2a.8.8,0,0,1-.4-.4c-.1,0-.1-.1-.2-.2h0l-.3-.5a3.4,3.4,0,0,1-.6-1.2c-.1-.1-.1,0-.1,0a.4.4,0,0,0-.1-.3,1.9,1.9,0,0,1-.2-.7,25.8,25.8,0,0,1-.8-2.6,1.5,1.5,0,0,0-2.9,0,13.6,13.6,0,0,1-5.9,8.4l-2.2,1.1-1.2.4H65.6l-.6-.2a4.1,4.1,0,0,1-1.7-.7h0l-.2-.2-.4-.4h0l-.2-.2-.3-.5c.2.2.1,0,0,0a.8.8,0,0,0-.1-.4v-.2h0a3.1,3.1,0,0,1,.1-1A1.5,1.5,0,0,0,60,64.7l-2.5,1.1a13.4,13.4,0,0,1-2.7.7H52.6a2.7,2.7,0,0,1-1.2-.3h-.3c0-.1-.1-.1-.2-.2h-.1a3.9,3.9,0,0,1-1.3-2,4,4,0,0,1-.3-1.5V61h0a6.5,6.5,0,0,1,.4-1.3v-.2c0-.1.1-.1.1-.2l.5-.7c.2-.4-.1.1,0-.1l.3-.3c.1-.2.3-.3.5-.5l1-.8a19.5,19.5,0,0,1,6.3-2.6,1.5,1.5,0,0,0,.9-2.2,14.3,14.3,0,0,1-1.5-2.7.4.4,0,0,1-.1-.3c-.1,0-.2-.4-.1-.2s-.1-.1-.1-.1-.1-.3-.1-.4a8.8,8.8,0,0,1-.5-1.5,10.5,10.5,0,0,1-.4-1.7h0v-.4a2.8,2.8,0,0,1-.1-.9,2.5,2.5,0,0,1,.1-.8v-.5c0,.4,0-.1.1-.2a2.4,2.4,0,0,1,.2-.8.6.6,0,0,1,.1-.4c0-.1.2-.6.1-.2a10.4,10.4,0,0,1,1-1.8h.1l.3-.4.9-.8a14.8,14.8,0,0,1,4.8-2.6,12.7,12.7,0,0,1,5.8-.7,10.7,10.7,0,0,1,5.5,2.8,16.4,16.4,0,0,1,2,2.6l.8,1.3c.1.2.1.4.2.5s0-.1,0,0,.8,1.2,1.5,1.1c5-.3,10.4-1.3,15.3-.4a20,20,0,0,1,3.5.9h.2l.5.3.7.4a4.2,4.2,0,0,1,1.3,1.1,4.6,4.6,0,0,1,1.3,2.7,8.3,8.3,0,0,1-.2,3.1,17.7,17.7,0,0,1-3.8,7.3,1.5,1.5,0,0,0,0,2.1A1.5,1.5,0,0,0,100.9,60.4Z" transform="translate(0 0)" style="fill:#3b7e82"/><path d="M40.3,60.4l.3-.2a.3.3,0,0,1,.1-.2l.2-.3.2-.3c.1,0,.1-.1.2-.2s.2-.3.2-.5a.3.3,0,0,0,.1-.2c.1-.2.2-.3.2-.4s.1-.2.1-.3.1-.2.1-.4v-.2c0-.2.1-.3.1-.4a.4.4,0,0,1,.1-.3V56c0-.1.1-.2.1-.3V54.2c-.2-6.9-7.6-10.2-13.5-8.6,1.8-2.9,3.6-8-1.7-8.2s-5.7,4.2-5.2,8.1c-.2-.1-.3-.3-.4-.4s-.1-.1-.2-.2l-.2-.2c-.1-.1-.2-.1-.2-.2s-.2-.1-.2-.2l-.3-.2-.2-.2-.3-.2a.1.1,0,0,0-.1-.1l-.4-.3h-.1l-.4-.3h-.1c-4.2-2.8-10-3.6-14,0-6.6,6,5.5,9.6,9.7,10.3C7.9,55.1-3.6,66.1,4,73s20.3-3.4,21.9-11.2c3.7,1.8,8.6,2.1,12.1.4h.1l.8-.4a.1.1,0,0,1,.1-.1l.3-.2c0-.1.1-.1.2-.2s.1-.1.2-.2h.2l.3-.3A.3.3,0,0,0,40.3,60.4Z" transform="translate(0 0)" style="fill:#6ab3b9"/><path d="M41.4,61.5a10.7,10.7,0,0,0,1.5-11.6A11.2,11.2,0,0,0,34.7,44a14.4,14.4,0,0,0-6.2.2l1.7,2.2c1.5-2.5,3.3-6.6.8-9.1s-3.8-1.7-5.7-1.3a6.1,6.1,0,0,0-4.1,3.4,10.7,10.7,0,0,0-.7,6.1l2.5-1c-4.5-5.3-13.2-7.7-18.8-2.9C2.1,43.3.7,45.7,2,48.3s3.2,3.3,5.2,4.2a28.5,28.5,0,0,0,7,2.2V51.8A22.1,22.1,0,0,0,4.7,58C2.1,60.7-.3,64.4,0,68.4a9.7,9.7,0,0,0,8,8.2c4.2.7,8.3-1,11.6-3.5s6.8-6.5,7.7-10.9l-2.2.8c4.2,2.1,9.4,2.6,13.7.5H37.3c1.3.7,3.2-1.1,4.1-2s-.8-3.5-2.1-2.1a9.5,9.5,0,0,1-2,1.5h1.5a2.1,2.1,0,0,0-1.9.1l-1.4.5a14.3,14.3,0,0,1-2.9.3,15.4,15.4,0,0,1-6-1.3,1.5,1.5,0,0,0-2.2.9l-.3,1.1c0,.1-.1.3-.1.4s-.1.3-.2.4.1-.2,0,0a17.1,17.1,0,0,1-1.3,2.3,4.1,4.1,0,0,1-.7,1.1l-.7.9-2,2.1a20.8,20.8,0,0,1-4.5,3h-.4l-.6.3-1.3.4-1.1.2H7.7l-.5-.2c-.4-.2.1.1-.1-.1H6.8l-1.2-.7-.4-.3-.5-.5-.4-.4c-.1-.1-.1-.2-.2-.2s-.1-.1-.1-.2l-.6-1c0-.1-.1-.3,0-.1v-.2c-.1-.2-.1-.4-.2-.6s-.1-.6-.1-.4,0-.4,0-.5V66.9c.1-.4,0,.2.1,0v-.3c0-.2.1-.4.1-.6s.3-.8.4-1.1v-.4c.1-.2.1-.4.2-.5l.7-1.2a8.6,8.6,0,0,1,.7-1l.2-.3c-.1.2.1-.1.1-.1l.5-.6a22.8,22.8,0,0,1,2.2-2.2l1.1-1c-.1.2.3-.2.4-.3l.6-.4,2.4-1.4.6-.3h.4l1.1-.4a1.6,1.6,0,0,0,1.1-1.5A1.5,1.5,0,0,0,15,51.8a24.6,24.6,0,0,1-5.3-1.5L9,50c-.4-.1.2.2-.2,0l-.3-.2L7,49.1l-1.2-.8-.3-.2L5,47.5H5c-.1,0-.1-.1-.2-.2l-.3-.5c.3.4,0-.1,0-.2h0v-.4h0V46c0-.1.1-.2.1-.3s-.2.2,0-.1L5,45s.3-.3,0-.1l.4-.4a9,9,0,0,1,3.4-2.2,10.8,10.8,0,0,1,4-.2,13.2,13.2,0,0,1,8.1,4.5,1.6,1.6,0,0,0,2.6-1.1,8.1,8.1,0,0,1-.1-2.2v-.8c.1-.3.1-.7.2-1.1s.1-.3.2-.4-.1,0,.1-.2a4.1,4.1,0,0,1,.5-.9c-.2.2.1-.1.1-.2l.3-.3c-.2.2.2-.1.3-.1s.5-.3.2-.2a3.7,3.7,0,0,1,2.1-.2h1.1l.4.2c-.2-.1,0,0,.1.1s-.1-.1,0,.1.2.5.1.1.1.3.1.4,0-.3,0,.1v1l-.3,1.1c-.1.1-.1.3-.2.5a.3.3,0,0,0-.1.2c-.1.2.2-.3,0,.1l-1,1.9a1.5,1.5,0,0,0,1.7,2.2,6.9,6.9,0,0,1,2-.3h3l1.1.3h.5c0,.1.4.2.2.1l1.1.6a8.1,8.1,0,0,1,2.7,2.5l.5.9c.1.3,0,.2,0,.1s.1.2.1.3.1.4.2.6a7.8,7.8,0,0,1,.2,2.2v1h0c0-.1,0-.1-.1.1a3.2,3.2,0,0,1-.3,1.4,3.3,3.3,0,0,1-.5,1.2l-.7,1a1.4,1.4,0,0,0,0,2.1A1.5,1.5,0,0,0,41.4,61.5Z" transform="translate(0 0)" style="fill:#3b7e82"/><path d="M31.7,52.5a7961314590657.4,7961314590657.4,0,0,0,.2-.2h0c.1-.1.1-.1.1-.2s.1,0,.1-.1.1-.1.1-.2a.1.1,0,0,0,.1-.1c0-.1,0-.1.1-.2h0v-.2h0v-.2h.1v-.3h0v-.2c0-.1.1-.1.1-.2v-.3c-.1-3.3-3.6-4.8-6.4-4,.8-1.4,1.7-3.8-.8-3.9s-2.7,2-2.5,3.8c0-.1-.1-.1-.1-.2h-.1c-.1,0-.1,0-.1-.1s-.1,0-.1-.1-.1,0-.1-.1h-.2l-.2-.2h-.5c-2-1.3-4.7-1.7-6.6,0s2.6,4.5,4.6,4.8c-3.2.9-8.6,6.1-5,9.3s9.5-1.6,10.3-5.3a6.4,6.4,0,0,0,5.7.2h0l.4-.2h.2c0-.1,0-.1.1-.1a.1.1,0,0,1,.1-.1h.2A.1.1,0,0,1,31.7,52.5Z" transform="translate(0 0)" style="fill:#98d9e4"/><path d="M37,53.3h.1a.1.1,0,0,1,.1-.1h0c0-.1,0-.1.1-.2h0c.1,0,.1,0,.1-.1h.1v-.2a2.4,2.4,0,0,0-3.2-2c.4-.7.8-1.9-.4-2s-1.4,1-1.2,1.9h-.2a.1.1,0,0,0-.1-.1h0a.1.1,0,0,0-.1-.1h-.1a.1.1,0,0,1-.1-.1h-.2a2.7,2.7,0,0,0-3.2,0c-1.6,1.4,1.3,2.3,2.2,2.5-1.5.4-4.2,3-2.5,4.6s4.8-.8,5.2-2.6a3.4,3.4,0,0,0,2.8.1h0c.1-.1.2-.1.2-.2h.1a.1.1,0,0,0,.1-.1h.1A.1.1,0,0,0,37,53.3Z" transform="translate(0 0)" style="fill:#98d9e4"/></g></g></svg>