<svg xmlns="http://www.w3.org/2000/svg" viewBox="0 0 139.7 371"><g id="Layer_2" data-name="Layer 2"><g id="Layer_1-2" data-name="Layer 1"><path d="M40.2,13.1h-.1V52.5h1.7V13.7a3.5,3.5,0,0,1-1.3-.5h-.3" style="fill:#b04d36"/><path d="M44.9,37.9a2.2,2.2,0,0,1-1.2-.5l-2.6-1.8-2.6,1.7a1.7,1.7,0,0,1-1.3.5,1.6,1.6,0,0,1-1.3-.6,2.2,2.2,0,0,1-.2-1.9l.9-2.9-2.4-1.8a2,2,0,0,1-.8-2.1,2,2,0,0,1,2-1.3h2.9l1-2.9a1.8,1.8,0,0,1,3.5,0l1,2.8h3a2,2,0,0,1,2.1,1.2,2,2,0,0,1-1,2.1l-2.4,1.9.8,2.8a2,2,0,0,1-.2,2.1,1.6,1.6,0,0,1-1.2.6Z" style="fill:#fc97b8;fill-rule:evenodd"/><path d="M41.1,24.4c.1,0,.2.1.3.4l1.2,3.3a.8.8,0,0,0,.7.5h3.4c1,0,.9.2.3.6l-2.8,2.2a.7.7,0,0,0-.3.8l1,3.4c.1.5.1.7,0,.7l-.5-.3-3-2h-.8l-2.9,2-.5.2c-.1,0-.2-.2,0-.6l1-3.3a1,1,0,0,0-.3-.9l-2.8-2.1c-.4-.4-.4-.7.3-.7h3.4a.9.9,0,0,0,.8-.7l1.1-3.1c.1-.3.2-.4.4-.4m0-3a3.2,3.2,0,0,0-3.2,2.4l-.7,1.9H35.3a3.3,3.3,0,0,0-2,6.1l1.6,1.1-.6,2a3.6,3.6,0,0,0,.4,3.2,3,3,0,0,0,2.5,1.2,4.1,4.1,0,0,0,2.2-.7l1.7-1.2,1.7,1.2h.1a2.9,2.9,0,0,0,2,.8,3.1,3.1,0,0,0,2.4-1.2,3.3,3.3,0,0,0,.5-3.2v-.2l-.6-1.9,1.7-1.2a3.3,3.3,0,0,0,1.4-3.8c-.3-1-1.2-2.1-3.5-2.2H44.9l-.7-1.9a3.2,3.2,0,0,0-3.1-2.3Z" style="fill:#e75c78"/><path d="M40.9,28.5l-.6,1.8a1,1,0,0,1-.5.4H38c-.4,0-.5.2-.2.4l1.5,1.1a.8.8,0,0,1,.2.5l-.6,1.9c-.1.3,0,.4.3.1l1.6-1.1h.5l1.6,1.1c.3.2.4.4.3-.2l-.6-1.8c0-.2,0-.4.2-.5L44.3,31c.3-.2.4-.3-.1-.3H42.3c-.2,0-.4-.1-.4-.2l-.7-1.9C41.1,28.2,41,28.3,40.9,28.5Z" style="fill:#fff;fill-rule:evenodd;opacity:0.5"/><path d="M41.1,51.9l5.2,5.5H36l5.1-5.5m0-3h0a2.9,2.9,0,0,0-2.2.9l-5.1,5.6a2.9,2.9,0,0,0-.6,3.2A3.1,3.1,0,0,0,36,60.4H46.3a3.1,3.1,0,0,0,2.8-1.8,3.3,3.3,0,0,0-.6-3.3l-5.2-5.5a3.1,3.1,0,0,0-2.2-.9Z" style="fill:#6ab3b9"/><path d="M46.3,57.4h0m0,0-5.2,5.5L36,57.4H46.3m0-3H36a3.1,3.1,0,0,0-2.8,1.8,2.9,2.9,0,0,0,.6,3.2l5.1,5.5a2.7,2.7,0,0,0,2.2,1h0a3.1,3.1,0,0,0,2.2-.9l5.1-5.5a2.7,2.7,0,0,0,.9-2.1,2.9,2.9,0,0,0-3-3Zm0,6Z" style="fill:#6ab3b9"/><polygon points="41.1 51.9 46.3 57.4 42.9 57.4 41.1 51.9" style="fill:#87e7de;fill-rule:evenodd"/><polygon points="41.1 51.9 39.4 57.4 42.9 57.4 41.1 51.9" style="fill:#5ecdc3;fill-rule:evenodd"/><polygon points="41.1 51.9 36 57.4 39.4 57.4 41.1 51.9" style="fill:#87e7de;fill-rule:evenodd"/><polygon points="41.1 62.9 46.3 57.4 42.9 57.4 41.1 62.9" style="fill:#5ecdc3;fill-rule:evenodd"/><polygon points="41.1 62.9 39.4 57.4 42.9 57.4 41.1 62.9" style="fill:#87e7de;fill-rule:evenodd"/><polygon points="41.1 62.9 36 57.4 39.4 57.4 41.1 62.9" style="fill:#5ecdc3;fill-rule:evenodd"/><path d="M119.8,134v45.6h1.8V134h-1.9m0-26.4V127h1.9V107.6h-1.9" style="fill:#b04d36"/><path d="M120.7,126.9h-.6a3.5,3.5,0,0,0-2.9,3.5,3.5,3.5,0,0,0,2.9,3.5h.8a3.5,3.5,0,0,0,3.4-3.5,3.6,3.6,0,0,0-3.4-3.6h-.2" style="fill:#fcd54d;stroke:#ffaa5a;stroke-linecap:round;stroke-linejoin:round;stroke-width:3px"/><path d="M123.4,193.3h-5.3a2.7,2.7,0,0,0,5.3,0v-.2" style="fill:#eb8f14"/><path d="M120.7,179.6h.4c4.1.2,7.5,3.3,8.9,7.7h.1c.1.5.3,1.1.4,1.6h0a12.3,12.3,0,0,1,.2,2.7l-1.3.4a39.7,39.7,0,0,1-6,1.1v.2a2.7,2.7,0,0,1-2.7,2.6h0a2.6,2.6,0,0,1-2.6-2.6h0a34.5,34.5,0,0,1-5.6-1l-1.8-.6a10.1,10.1,0,0,1,.3-2.5v-.2a8.3,8.3,0,0,1,.4-1.5v-.2c1.4-4.4,4.9-7.6,8.9-7.8h.4m0-3h-.6c-5.2.3-9.7,4.2-11.5,9.9v.2a13.3,13.3,0,0,0-.5,1.9h0l3,.6-3-.5a15.3,15.3,0,0,0-.3,3c0,2.1,1.8,2.7,2.7,3.1l1.3.4a28.3,28.3,0,0,0,4,.8,7.1,7.1,0,0,0,1,1.4,5.9,5.9,0,0,0,4,1.6,5.7,5.7,0,0,0,5.1-3.1,24.2,24.2,0,0,0,4.5-1l1.3-.4a2.8,2.8,0,0,0,2.1-2.8c0-1.1-.1-2.2-.2-3.2v-.2c-.1-.6-.3-1.2-.4-1.8a.4.4,0,0,1-.1-.3c-1.9-5.6-6.4-9.5-11.6-9.7Z" style="fill:#ffaa5a"/><path d="M130.5,189.1a4.1,4.1,0,0,1-1.8.5h-.4a11.7,11.7,0,0,1-3.6-.8l-2-.6-2.4-.3a12.7,12.7,0,0,0-2.6.4l-1.6.5a10.9,10.9,0,0,1-2.4.7h-1a4.7,4.7,0,0,1-1.7-.3,10.1,10.1,0,0,0-.3,2.5l1.8.6a34.5,34.5,0,0,0,5.6,1h5.3a39.7,39.7,0,0,0,6-1.1l1.3-.4A12.3,12.3,0,0,0,130.5,189.1Z" style="fill:#ffc18e"/><path d="M113.7,189.4l2.3-.7,1.7-.6a10.9,10.9,0,0,1,2.6-.3,10.1,10.1,0,0,1,2.5.3l1.9.6a11.7,11.7,0,0,0,3.6.8h.4a6.1,6.1,0,0,0,1.8-.5c-.1-.5-.3-1.1-.4-1.6l-1.4.4h-.4a9.5,9.5,0,0,1-3.6-.9l-2-.6-2.4-.2-2.6.3-1.6.6-2.4.7h-2.3a8.3,8.3,0,0,0-.4,1.5,3.3,3.3,0,0,0,1.7.4Z" style="fill:#ffc18e"/><path d="M113.7,187.5a10.1,10.1,0,0,0,2.3-.7l1.7-.5a7.5,7.5,0,0,1,2.6-.4,10.1,10.1,0,0,1,2.5.3l1.9.6a11.7,11.7,0,0,0,3.6.8h.4a3.1,3.1,0,0,0,1.3-.3c-1.4-4.4-4.8-7.5-8.9-7.7h-.8c-4,.2-7.5,3.4-8.9,7.8l1.3.2Z" style="fill:#ffc18e"/><path d="M120.3,185.9a7.5,7.5,0,0,0-2.6.4l-1.7.5a10.1,10.1,0,0,1-2.3.7h-1l-1.3-.2h0v.2h2.3l2.4-.7,1.6-.6,2.6-.3,2.4.2,2,.6a9.5,9.5,0,0,0,3.6.9h.4l1.4-.4H130a3.1,3.1,0,0,1-1.3.3h-.4a11.7,11.7,0,0,1-3.6-.8l-1.9-.6a10.1,10.1,0,0,0-2.5-.3" style="fill:#eb8f14"/><path d="M120.3,187.8a10.9,10.9,0,0,0-2.6.3l-1.7.6-2.3.7h-1a3.3,3.3,0,0,1-1.7-.4h0v.2h0a4.7,4.7,0,0,0,1.7.3h1a10.9,10.9,0,0,0,2.4-.7l1.6-.5a12.7,12.7,0,0,1,2.6-.4l2.4.3,2,.6a11.7,11.7,0,0,0,3.6.8h.4a4.1,4.1,0,0,0,1.8-.5h0a6.1,6.1,0,0,1-1.8.5h-.4a11.7,11.7,0,0,1-3.6-.8l-1.9-.6a10.1,10.1,0,0,0-2.5-.3" style="fill:#eb8f14"/><path d="M120.3,185.9a7.5,7.5,0,0,0-2.6.4l-1.7.5a10.1,10.1,0,0,1-2.3.7h-1l-1.3-.2h0v.2h2.3l2.4-.7,1.6-.6,2.6-.3,2.4.2,2,.6a9.5,9.5,0,0,0,3.6.9h.4l1.4-.4H130a3.1,3.1,0,0,1-1.3.3h-.4a11.7,11.7,0,0,1-3.6-.8l-1.9-.6a10.1,10.1,0,0,0-2.5-.3" style="fill:#eb8f14"/><path d="M120.3,187.8a10.9,10.9,0,0,0-2.6.3l-1.7.6-2.3.7h-1a3.3,3.3,0,0,1-1.7-.4h0v.2h0a4.7,4.7,0,0,0,1.7.3h1a10.9,10.9,0,0,0,2.4-.7l1.6-.5a12.7,12.7,0,0,1,2.6-.4l2.4.3,2,.6a11.7,11.7,0,0,0,3.6.8h.4a4.1,4.1,0,0,0,1.8-.5h0a6.1,6.1,0,0,1-1.8.5h-.4a11.7,11.7,0,0,1-3.6-.8l-1.9-.6a10.1,10.1,0,0,0-2.5-.3" style="fill:#eb8f14"/><path d="M118,361.9a1.7,1.7,0,0,0,0-1,1.7,1.7,0,0,0,0-1,1.7,1.7,0,0,0,0-1,1.7,1.7,0,0,0,0-1,1.7,1.7,0,0,0,0-1,3.9,3.9,0,0,0-.8-2.9,6.4,6.4,0,0,0-3.1-2.2H114c-6.3-2.3-24.5-3.9-45.4-3.9h-.8c-12,0-23.4.5-32,1.4-13.2,1.4-15.5,3.3-16.2,5.3a3.4,3.4,0,0,0-.4,2.2v5a3.7,3.7,0,0,0,.4,2.3c.9,1.7,3,3.7,16.4,5.3A300.4,300.4,0,0,0,68.6,371h.8a291.2,291.2,0,0,0,32-1.5c13.3-1.5,15.3-3.5,16.2-5.2A4.1,4.1,0,0,0,118,361.9Z" style="fill:#ffaa5a"/><path d="M68.6,363.5c-4.6,0-44.7-.3-47.6-6.1a2.4,2.4,0,0,1-.1-2.2c.4-1.1,1.6-3,15.1-4.4,8.5-.9,19.9-1.4,31.8-1.4h.8c20.7,0,38.7,1.5,44.8,3.8h.2a4.6,4.6,0,0,1,2.4,1.7,2.6,2.6,0,0,1,.3,2.7c-2.9,5.7-42.4,5.9-46.9,5.9Z" style="fill:#fcf8cb"/><path d="M67.8,350.9h.8c20.9,0,38.5,1.6,44.3,3.7h.1a4.2,4.2,0,0,1,1.8,1.1,1.1,1.1,0,0,1,.1,1.2c-1.4,2.8-20.3,5.1-45.5,5.1h-.8c-25.6-.1-44.9-2.4-46.3-5.3a.8.8,0,0,1,0-.9c.8-2.8,20.8-4.9,45.5-4.9m0-3c-12,0-23.4.5-32,1.4-13.2,1.4-15.5,3.3-16.2,5.3a3.6,3.6,0,0,0,0,3.5c.9,1.7,3,3.7,16.4,5.3A300.4,300.4,0,0,0,68.6,365h.8a291.2,291.2,0,0,0,32-1.5c13.3-1.5,15.3-3.5,16.2-5.2a4,4,0,0,0-.4-4.3,6.4,6.4,0,0,0-3.1-2.2H114c-6.3-2.3-24.5-3.9-45.4-3.9Z" style="fill:#ffaa5a"/><path d="M71.5,58.5h-.4A1.5,1.5,0,0,1,70,57c-.1-2.6-.1-5.4-.4-7.7a3.6,3.6,0,0,1,.2-1L82,30a3.5,3.5,0,0,1,.5-.8l.2-.2h.1a1.1,1.1,0,0,1,.9-.4h52.9a1.4,1.4,0,0,1,1.4,1,3.8,3.8,0,0,1-1.9,4.4,7.3,7.3,0,0,1-3.7.8l-24.5.7-22.5.5L72.8,57.8A1.7,1.7,0,0,1,71.5,58.5Z" style="fill:#ddab88"/><path d="M83.7,30.1h52.9a2.3,2.3,0,0,1-1.2,2.6,6.4,6.4,0,0,1-3.1.6c-8,.4-38,.8-47.8,1.2a5.9,5.9,0,0,1-.4.8L71.5,57c-.1-2.8-.1-5.5-.4-7.8L83.3,30.7l.3-.5h.1m0-3a2.8,2.8,0,0,0-2.4,1.3,3.1,3.1,0,0,0-.7.9l-2.9,4.5L68.6,47.5a2.9,2.9,0,0,0-.5,2c.3,2.2.3,4.9.4,7.6a2.9,2.9,0,0,0,2.2,2.8h.8a3,3,0,0,0,2.6-1.5L85.8,38.4l.5-.8,21.6-.5,24.6-.7a8.1,8.1,0,0,0,4.3-1,5.3,5.3,0,0,0,2.7-6.1,3,3,0,0,0-2.9-2.1H83.7Z" style="fill:#6a3417"/><path d="M68.7,37.3a1.6,1.6,0,0,1-1.3-.8c-3.8-6.6-7.9-13.2-12.3-19.7-5.9-.4-11-.7-17.9-.7H34.9a1.4,1.4,0,0,1-1.1-.6,1.5,1.5,0,0,1-.4-1.1l.4-2.7a1.5,1.5,0,0,1,1.5-1.3H57.2a1.6,1.6,0,0,1,.8.6c3.9,6,7.9,11.9,12.1,17.6a1.5,1.5,0,0,1,.1,1.7c-.7,1.1-.4,3.1,0,5.1a1.6,1.6,0,0,1-1,1.7Z" style="fill:#ddab88"/><path d="M56.8,12c3.9,6,7.9,11.8,12.1,17.6-1,1.6-.6,3.9-.2,6.2-4-7-8.3-13.8-12.8-20.4-6.7-.5-11.9-.8-18.7-.8H34.9c.1-.9.3-1.8.4-2.7H56.8m0-3H35.3a3,3,0,0,0-3,2.6h0L32,14.3a2.8,2.8,0,0,0,.7,2.3,2.9,2.9,0,0,0,2.2,1.1h2.3c6.6,0,11.5.3,17,.7,4.3,6.2,8.2,12.6,11.9,19a3,3,0,0,0,2.6,1.5l1-.2a2.9,2.9,0,0,0,1.9-3.3c-.2-1.3-.5-3.5-.2-4.1a2.9,2.9,0,0,0-.1-3.3c-4.1-5.7-8.2-11.6-12-17.6A3.1,3.1,0,0,0,56.8,9Z" style="fill:#6a3417"/><path d="M68.2,106.8a1.6,1.6,0,0,1-1.3-.8L54.3,84.4l-22.5-.6L7.3,83.2a8.5,8.5,0,0,1-3.7-.8A3.8,3.8,0,0,1,1.7,78a1.4,1.4,0,0,1,1.4-1H56a1.3,1.3,0,0,1,1.2.6h0a1.8,1.8,0,0,1,.5.8L69.9,96.6a3.6,3.6,0,0,1,.2,1c-.3,2.2-.3,5-.4,7.7a1.4,1.4,0,0,1-1.1,1.4Z" style="fill:#ddab88"/><path d="M56,78.4h.1l.3.5L68.6,97.4c-.3,2.3-.3,5.1-.4,7.9L55.6,83.7c-.1-.3-.3-.5-.4-.8-9.8-.4-39.8-.8-47.8-1.2a7.8,7.8,0,0,1-3.1-.6,2.4,2.4,0,0,1-1.2-2.6H56m0-3H3.1a3,3,0,0,0-2.9,2,5.4,5.4,0,0,0,2.7,6.2,10.6,10.6,0,0,0,4.3,1l24.6.6,21.6.5.5.9,11.7,20.1a3.2,3.2,0,0,0,2.6,1.5H69a3,3,0,0,0,2.2-2.9c.1-2.6.1-5.4.4-7.5a2.9,2.9,0,0,0-.5-2L62,82l-2.9-4.5-.7-.9A2.7,2.7,0,0,0,56,75.4Z" style="fill:#6a3417"/><path d="M70.7,128.7h-.5a1.4,1.4,0,0,1-1-1.6c.4-2,.7-4.1,0-5.1a1.5,1.5,0,0,1,.1-1.7c4.2-5.7,8.2-11.6,12.1-17.6a1.4,1.4,0,0,1,1.2-.7h.2l22.1.2h19.2a1.4,1.4,0,0,1,1.5,1.3l.3,2.6a1.2,1.2,0,0,1-.3,1.2,1.6,1.6,0,0,1-1.1.5h-2.9c-9.7,0-29.9.2-37.3.7-4.4,6.5-8.5,13.1-12.3,19.7A1.7,1.7,0,0,1,70.7,128.7Z" style="fill:#ddab88"/><path d="M82.7,103.4l22.2.2h19.2c.1.8.2,1.7.4,2.6h-2.9c-10,0-31.4.3-38.1.7-4.5,6.7-8.8,13.5-12.8,20.4.4-2.3.8-4.6-.2-6.1,4.2-5.8,8.2-11.7,12.1-17.7h.1m-.1-3a3,3,0,0,0-2.5,1.4c-3.8,5.9-7.9,11.8-12,17.5a3,3,0,0,0-.1,3.4c.3.6,0,2.7-.2,4a2.8,2.8,0,0,0,1.9,3.3,1.8,1.8,0,0,0,1,.2,2.8,2.8,0,0,0,2.6-1.5c3.6-6.3,7.6-12.7,11.9-19,7.8-.4,27-.6,36.4-.6h2.9a3.2,3.2,0,0,0,2.2-1,2.9,2.9,0,0,0,.7-2.4l-.3-2.6a3,3,0,0,0-3-2.6H104.9l-22.1-.2h-.2Z" style="fill:#6a3417"/><path d="M67.3,155.2a1.6,1.6,0,0,1-1.2-.6c-4.4-6.5-9.1-12.8-13.9-19a1.1,1.1,0,0,1-.3-1.1,1.3,1.3,0,0,1,.6-1,3.6,3.6,0,0,1,2-.6,4.6,4.6,0,0,1,2.3.6,9.6,9.6,0,0,1,2.5,2.4l9.6,12.3a1.5,1.5,0,0,1,.3,1.3,16.4,16.4,0,0,0-.4,4.2,1.5,1.5,0,0,1-1,1.4Z" style="fill:#ddab88"/><path d="M54.5,134.4a4.2,4.2,0,0,1,1.6.4,9.5,9.5,0,0,1,2,2l9.6,12.3a20.8,20.8,0,0,0-.4,4.6c-4.4-6.5-9.1-12.8-13.9-19a2,2,0,0,1,1.1-.3m0-3a5.4,5.4,0,0,0-2.8.8,3,3,0,0,0-1.3,2,3.4,3.4,0,0,0,.6,2.4c4.8,6.1,9.5,12.4,13.9,18.8a2.9,2.9,0,0,0,2.4,1.3h.9a2.9,2.9,0,0,0,2.1-2.9,14,14,0,0,1,.4-3.9,2.8,2.8,0,0,0-.6-2.5L60.4,135a10.6,10.6,0,0,0-2.8-2.8,6.8,6.8,0,0,0-3.1-.8Z" style="fill:#6a3417"/><path d="M70,210.5h-.5a1.4,1.4,0,0,1-1-1.6c.3-2,.7-4.1,0-5.1a1.5,1.5,0,0,1,.1-1.7c4.1-5.7,8.2-11.6,12-17.6a1.7,1.7,0,0,1,1.3-.7H82l11.3.2h10.1a1.5,1.5,0,0,1,1.5,1.3l.3,2.6a1.6,1.6,0,0,1-.3,1.2,1.7,1.7,0,0,1-1.2.5h-2.3c-6.8,0-11.9.3-17.8.7-4.4,6.5-8.5,13.1-12.3,19.7A1.5,1.5,0,0,1,70,210.5Z" style="fill:#ddab88"/><path d="M82,185.2l11.3.2h10.1l.3,2.6h-2.3c-6.8,0-11.9.3-18.6.8C78.3,195.3,74,202.1,70,209c.4-2.3.7-4.6-.2-6.1,4.2-5.8,8.2-11.7,12.1-17.7H82m-.1-3a2.9,2.9,0,0,0-2.5,1.4c-3.9,5.9-7.9,11.8-12,17.5a3,3,0,0,0-.2,3.4c.4.6,0,2.7-.2,4a3.1,3.1,0,0,0,2,3.4h1a3,3,0,0,0,2.6-1.5c3.6-6.3,7.6-12.7,11.8-19,5.6-.3,10.5-.6,17-.6h2.3a2.9,2.9,0,0,0,2.3-1,3.3,3.3,0,0,0,.7-2.4l-.3-2.5h0a3,3,0,0,0-3-2.6H93.3l-11.2-.2h-.2Z" style="fill:#6a3417"/><path d="M67.6,187.7a1.6,1.6,0,0,1-1.1-.5L51,169.4a1.4,1.4,0,0,1,.1-2.1,4,4,0,0,1,2.6-1,3.9,3.9,0,0,1,2.1.6,7.6,7.6,0,0,1,2.8,2.5,145.9,145.9,0,0,0,10.5,11.7,1.7,1.7,0,0,1,.4,1.2c-.1.7-.1,1.3-.2,2a14.9,14.9,0,0,1-.2,2.1,1.3,1.3,0,0,1-1,1.2Z" style="fill:#ddab88"/><path d="M53.7,167.8a3.3,3.3,0,0,1,1.4.4,8.4,8.4,0,0,1,2.4,2.2A145.9,145.9,0,0,0,68,182.1c-.2,1.4-.2,2.7-.4,4.1L52.1,168.4a2.3,2.3,0,0,1,1.6-.6m0-3a5.1,5.1,0,0,0-3.6,1.4,3.1,3.1,0,0,0-.3,4.2l7.8,8.8,7.8,9a3.2,3.2,0,0,0,2.2,1h.9a3,3,0,0,0,2.1-2.5,18,18,0,0,0,.2-2.2,11.1,11.1,0,0,1,.2-1.9,3,3,0,0,0-.9-2.5c-3.5-3.6-7-7.5-10.3-11.5a9.5,9.5,0,0,0-3.3-2.9,5.7,5.7,0,0,0-2.8-.8Z" style="fill:#6a3417"/><path d="M68.5,356.9a5.5,5.5,0,0,1-4.7-2.7,1.1,1.1,0,0,1-.2-.8c.1-3.9.3-7.7.4-11.3.3-5.1.5-10,.5-13.6.3-105.9.6-215.4.4-324.4a1.2,1.2,0,0,1,.5-1,5.1,5.1,0,0,1,3.8-1.6,4.8,4.8,0,0,1,4.1,2,1.4,1.4,0,0,1,.3.9c.1,114.1.2,232.1-.1,348.1v.3a5.2,5.2,0,0,1-4.3,4.1Z" style="fill:#d8a960"/><path d="M69.2,3a3.7,3.7,0,0,1,2.9,1.4q.2,174-.1,348.1a3.7,3.7,0,0,1-3,2.9h-.5a4,4,0,0,1-3.4-2c.3-9.3.9-18.6.9-24.9q.4-162.1.4-324.4A4.3,4.3,0,0,1,69.2,3m0-3h0a6.6,6.6,0,0,0-4.9,2,2.9,2.9,0,0,0-.9,2.1c.2,108.9-.1,218.4-.4,324.4,0,3.6-.2,8.4-.5,13.5s-.3,7.5-.4,11.4a2.4,2.4,0,0,0,.4,1.6,7.1,7.1,0,0,0,6,3.4h.9a6.9,6.9,0,0,0,5.6-5.3v-.6c.3-116,.2-233.9.1-348h0a2.8,2.8,0,0,0-.6-1.8A6.7,6.7,0,0,0,69.2,0Z" style="fill:#6a3417"/><path d="M90.4,188.7c0,.1-.1.1-.2.1l-1.4.4V290h1.8V188.8h-.2" style="fill:#b04d36"/><polygon points="89.7 252.5 86.8 255 88.7 255 89.7 252.5" style="fill:#f6b9c9;fill-rule:evenodd"/><polygon points="89.7 252.5 90.6 255 88.7 255 89.7 252.5" style="fill:#ee9fb4;fill-rule:evenodd"/><polygon points="89.7 252.5 92.5 255 90.6 255 89.7 252.5" style="fill:#f6b9c9;fill-rule:evenodd"/><rect x="86.8" y="255" width="5.8" height="9.75" style="fill:#ee9fb4"/><rect x="88.7" y="255" width="1.9" height="9.75" style="fill:#f6b9c9"/><polygon points="89.7 267.3 86.8 264.8 88.7 264.8 89.7 267.3" style="fill:#f6b9c9;fill-rule:evenodd"/><polygon points="89.7 267.3 90.6 264.8 88.7 264.8 89.7 267.3" style="fill:#ee9fb4;fill-rule:evenodd"/><polygon points="89.7 267.3 92.5 264.8 90.6 264.8 89.7 267.3" style="fill:#f6b9c9;fill-rule:evenodd"/><path d="M89.7,252.5l2.8,2.5h0v9.8h0l-2.8,2.5-2.9-2.5h0V255h0l2.9-2.5m2.8,12.3h0m-2.8-15.3a3.1,3.1,0,0,0-2,.7l-2.9,2.6h-.1a2.9,2.9,0,0,0-.9,2.1v9.8a3,3,0,0,0,1.1,2.3l2.8,2.5a3.2,3.2,0,0,0,4,0l2.8-2.5a3.3,3.3,0,0,0,1-2.3h0V255h0a2.8,2.8,0,0,0-.3-1.3,2.7,2.7,0,0,0-.7-.8l-2.8-2.6a3.1,3.1,0,0,0-2-.7Z" style="fill:#fa789e"/><path d="M91.8,223.8c0,1.9-.5,3.5-1.3,4.2H88.9a5.8,5.8,0,0,1-1.4-4.2,6.2,6.2,0,0,1,1.3-4.1h1.7A5.8,5.8,0,0,1,91.8,223.8Z" style="fill:#ffc873;fill-rule:evenodd"/><path d="M91.2,221.7c.1.8-.1,1.5-.4,1.6s-.8-.5-1-1.3,0-1.5.4-1.6S91,220.9,91.2,221.7Z" style="fill:#fff;fill-rule:evenodd;opacity:0.5"/><path d="M90.5,219.7a5.8,5.8,0,0,1,1.3,4.1c0,1.9-.5,3.5-1.3,4.2H88.9a5.8,5.8,0,0,1-1.4-4.2,6.2,6.2,0,0,1,1.3-4.1h1.7m0-3H88.8a3.1,3.1,0,0,0-2,.7,8.9,8.9,0,0,0-2.3,6.4c0,2.8.9,5.2,2.4,6.4a2.8,2.8,0,0,0,2,.8h1.6a3.2,3.2,0,0,0,2-.8,10.1,10.1,0,0,0,0-12.8,3.1,3.1,0,0,0-2-.7Z" style="fill:#ffaa5a"/><path d="M88.8,294.1v-.2a6.5,6.5,0,0,1,2-.4h.4l-1.8,3.2c-.1.3-.2.6-.1.7h1.1c.2,0,.4.2.6.4a1.1,1.1,0,0,1,0,1.1,2.4,2.4,0,0,1-.6.8l-.5.5c-.3.4-.4,1.1,0,1.4l.5.2c.3.1.6.2.7.5a1.1,1.1,0,0,1-.1.8l-1.6,2.8,2.7-.9h.1L89,306l1.7-3.1c.1-.2.3-.4.2-.6s-.3-.3-.6-.4-.4-.1-.6-.3-.4-1.1,0-1.6l.5-.5a2.4,2.4,0,0,0,.6-.8.9.9,0,0,0-.1-.9c0-.2-.2-.3-.4-.3h-.8l-.4-.2c-.2-.1-.1-.4.1-.8l1.6-3h-.1a4.1,4.1,0,0,0-1.9.4m2.7-7.3-1.6.9v1a.5.5,0,0,1,.4.6.6.6,0,0,1-.6.6h0a.6.6,0,0,1-.6-.6.8.8,0,0,1,.2-.5v-.7L86.6,290a70.7,70.7,0,0,1,.5,13c-.1,2.6-.3,5.2.5,7.5l.2.5a8,8,0,0,0,4.9-2.9c0-6,0-12.1-.1-18.1a9.1,9.1,0,0,0-.1-1.7c-.2-.5-.5-1.3-1-1.5" style="fill:#fcdeaa"/><path d="M90.7,293.5a6.5,6.5,0,0,0-2,.4v.2a4.1,4.1,0,0,1,1.9-.4h.1l-1.6,3c-.2.4-.3.7-.1.8l.4.2h.8c.2,0,.4.1.4.3a.9.9,0,0,1,.1.9,2.4,2.4,0,0,1-.6.8l-.5.5c-.4.5-.5,1.3,0,1.6s.4.2.6.3.5.1.6.4-.1.4-.2.6L89,306l3.1-1H92l-2.7.9,1.6-2.8a1.1,1.1,0,0,0,.1-.8c-.1-.3-.4-.4-.7-.5l-.5-.2c-.4-.3-.3-1,0-1.4l.5-.5a2.4,2.4,0,0,0,.6-.8,1.1,1.1,0,0,0,0-1.1c-.2-.2-.4-.4-.6-.4H89.2c-.1-.1,0-.4.1-.7l1.8-3.2h-.4" style="fill:#eb8f14"/><path d="M91.5,286.8c.5.2.8,1,1,1.5a9.1,9.1,0,0,1,.1,1.7c.1,6,.1,12.1.1,18.1a8,8,0,0,1-4.9,2.9l-.2-.5c-.8-2.3-.6-4.9-.5-7.5a70.7,70.7,0,0,0-.5-13l2.7-1.9v.7a.8.8,0,0,0-.2.5.6.6,0,0,0,.6.6h0a.6.6,0,0,0,.6-.6.5.5,0,0,0-.4-.6v-1l1.6-.9m0-3a2.3,2.3,0,0,0-1.4.4,9.5,9.5,0,0,0-1.7,1l-.4.2-.3.2a19.4,19.4,0,0,0-2.9,2.1,3,3,0,0,0-1.2,2.8,58.7,58.7,0,0,1,.5,12.4v.8a19.1,19.1,0,0,0,.6,7.8l.2.4.3.5a2.9,2.9,0,0,0,2.6,1.6h.4a10.6,10.6,0,0,0,6.9-3.9,3.1,3.1,0,0,0,.6-1.9V289.9a7.5,7.5,0,0,0-.3-2.4,4.9,4.9,0,0,0-2.4-3.4,3.2,3.2,0,0,0-1.4-.3Z" style="fill:#ffaa5a"/></g></g></svg>