<svg xmlns="http://www.w3.org/2000/svg" viewBox="0 0 137.2 138.5"><g style="isolation:isolate"><g id="Layer_2" data-name="Layer 2"><g id="Layer_1-2" data-name="Layer 1"><path d="M25.4,137A23.9,23.9,0,0,1,1.5,113.1v-77A23.9,23.9,0,0,1,25.4,12.2H69.3a3.5,3.5,0,0,1,3.5,3.5,3.5,3.5,0,0,1-3.5,3.5H25.4A16.9,16.9,0,0,0,8.5,36.1v77A16.9,16.9,0,0,0,25.4,130h93.3a3.4,3.4,0,0,1,3.5,3.5,3.5,3.5,0,0,1-3.5,3.5Z" style="fill:#d8a960"/><path d="M69.3,13.7a2,2,0,0,1,0,4H25.4A18.4,18.4,0,0,0,7,36.1v77a18.4,18.4,0,0,0,18.4,18.4h93.3a2,2,0,0,1,0,4H25.4A22.4,22.4,0,0,1,3,113.1v-77A22.4,22.4,0,0,1,25.4,13.7H69.3m0-3H25.4A25.4,25.4,0,0,0,0,36.1v77a25.4,25.4,0,0,0,25.4,25.4h93.3a5,5,0,0,0,5-5,5,5,0,0,0-5-5H25.4A15.4,15.4,0,0,1,10,113.1v-77A15.4,15.4,0,0,1,25.4,20.7H69.3a5,5,0,0,0,5-5,5,5,0,0,0-5-5Z" style="fill:#6a3417"/><path d="M66.1,31.7a1.5,1.5,0,0,1-1.5-1.5V6.2a4.7,4.7,0,0,1,9.4,0v24a1.5,1.5,0,0,1-1.5,1.5Z" style="fill:#8d8d8d"/><path d="M69.3,3a3.2,3.2,0,0,1,3.2,3.2v24H66.1V6.2A3.2,3.2,0,0,1,69.3,3m0-3a6.2,6.2,0,0,0-6.2,6.2v24a3,3,0,0,0,3,3h6.4a3,3,0,0,0,3-3V6.2A6.2,6.2,0,0,0,69.3,0Z" style="fill:#575757"/><path d="M31.5,132.8a5.6,5.6,0,1,1,0-11.1h99.1a5.6,5.6,0,1,1,0,11.1Z" style="fill:#af7553"/><path d="M130.6,122.7a4.5,4.5,0,0,1,4.6,4.5h0a4.5,4.5,0,0,1-4.6,4.6H31.5a4.5,4.5,0,0,1-4.6-4.6h0a4.5,4.5,0,0,1,4.6-4.5h99.1m0-2H31.5a6.6,6.6,0,1,0,0,13.1h99.1a6.6,6.6,0,1,0,0-13.1Z" style="fill:#75411a"/><path d="M107.8,98.1c0,6.5-17.2,11.7-38.5,11.7s-38.5-5.2-38.5-11.7c0-2.5,4.3-16.2,8.9-18.2,7-2.9,16.7,6.5,29.6,6.5s22-9.4,29.1-6.8C103.9,81.7,107.8,95.3,107.8,98.1Z" style="fill:#baa2ee"/><path d="M73.1,108.1a23.5,23.5,0,0,1-4-.5,10,10,0,0,1-3.2.4h-2c-2.3-.3-3.8-1.2-4.5-2.5s-.2-4.2.6-5.9.4-1.2.5-1.4a3.6,3.6,0,0,1,.5-2.6,1.1,1.1,0,0,1,.8-.3H62a2.5,2.5,0,0,1,1.4.7,21.2,21.2,0,0,1,5.8-.9,17.3,17.3,0,0,1,6,1.1,5.7,5.7,0,0,1,1.6-.8H77a.9.9,0,0,1,.7.4,3.1,3.1,0,0,1,.3,2.8c0,.2.3.6.4,1a6.7,6.7,0,0,1,1.2,3.1,4.1,4.1,0,0,1-1.7,4,6.9,6.9,0,0,1-4.8,1.5Z" style="fill:#baa2ee"/><path d="M69.2,96a15.1,15.1,0,0,1,5.7,1.1h.7c.2-.7,1.4-.9,1.4-.9s0,2,0,2,1.4,2.3,1.7,4.4a3.3,3.3,0,0,1-1.5,3.1,5.8,5.8,0,0,1-4.1,1.3,15,15,0,0,1-4-.6,8.9,8.9,0,0,1-3.2.5H64c-5.5-.8-4.2-4.7-3.1-7a7.4,7.4,0,0,0,.6-1.8s-.2-1.4.3-1.9a2,2,0,0,1,1.3.9A17.2,17.2,0,0,1,69.2,96m0-2h0a18.5,18.5,0,0,0-5.6.8,6.2,6.2,0,0,0-1.4-.6h-.4a1.9,1.9,0,0,0-1.5.6,4.1,4.1,0,0,0-.8,3.2l-.4,1.1c-.5,1.1-2,4.2-.6,6.8s2.7,2.6,5.2,3h2.2a11.5,11.5,0,0,0,3.3-.4,16.9,16.9,0,0,0,3.9.5,8.1,8.1,0,0,0,5.4-1.7,5.2,5.2,0,0,0,2.1-5A8.9,8.9,0,0,0,79.3,99l-.3-.6a3.9,3.9,0,0,0-.5-3.4,2.3,2.3,0,0,0-1.5-.7h-.4A3.5,3.5,0,0,0,75,95a15.7,15.7,0,0,0-5.8-1Z" style="fill:#7850b3"/><circle cx="64.6" cy="101.4" r="2.4" transform="translate(-15.4 11.6) rotate(-9.2)" style="fill:#7850b3"/><circle cx="74" cy="101.4" r="2.4" style="fill:#7850b3"/><path d="M67.6,103.3a1.7,1.7,0,0,1,3.4,0l-1.7,2.1Z" style="fill:#7850b3"/><ellipse cx="69.3" cy="83.4" rx="32.3" ry="8.7" style="fill:#dfd4fc"/><ellipse cx="69.3" cy="82.5" rx="28.8" ry="6.9" style="fill:#98d9e4"/><path d="M43.5,85.5c4.7-2.3,14.5-3.8,25.8-3.8s21.2,1.5,25.8,3.8c1.9-.9,3-1.9,3-3,0-3.8-12.9-6.9-28.8-6.9s-28.8,3.1-28.8,6.9C40.5,83.6,41.6,84.6,43.5,85.5Z" style="fill:#baa2ee"/><path d="M69.3,74.8c12.8,0,23.9,2,29.1,4.8h0c5.5,2.1,9.4,15.7,9.4,18.5,0,6.5-17.2,11.7-38.5,11.7s-38.5-5.2-38.5-11.7c0-2.5,4.3-16.2,8.9-18.2h0c5-3,16.4-5.1,29.6-5.1m0-3c-13.4,0-25.2,2.1-31,5.5s-10.5,18-10.5,20.8c0,10.1,21.5,14.7,41.5,14.7s41.5-4.6,41.5-14.7c0-2.8-3.7-18.2-11.1-21.2s-17.6-5.1-30.4-5.1Z" style="fill:#7850b3"/><path d="M55,82.6c-5.2,0-9.3-2.7-9.3-6.3V33c0-8.5,10.4-15.1,23.6-15.1S92.9,24.5,92.9,33V76.3c0,3.6-4.1,6.3-9.3,6.3Z" style="fill:#98d9e4"/><path d="M69.3,19.4c12.2,0,22.1,6.1,22.1,13.6V76.3c0,2.7-3.5,4.8-7.8,4.8H55c-4.3,0-7.8-2.1-7.8-4.8V33c0-7.5,9.9-13.6,22.1-13.6m0-3c-14.1,0-25.1,7.3-25.1,16.6V76.3c0,4.4,4.7,7.8,10.8,7.8H83.6c6.1,0,10.8-3.4,10.8-7.8V33c0-9.3-11-16.6-25.1-16.6Z" style="fill:#5576b4"/><path d="M66.9,76.3V33c0-6.3,6.9-11.5,16.3-13.1a34.5,34.5,0,0,0-5.7-.5c-12.2,0-22.1,6.1-22.1,13.6V76.3c0,2.7,3.5,4.8,7.8,4.8H74.7C70.4,81.1,66.9,79,66.9,76.3Z" style="fill:#a7bfee;opacity:0.5;mix-blend-mode:multiply"/><path d="M69.3,19.4c-12.2,0-22.1,6.1-22.1,13.6v1.8H91.4V33C91.4,25.5,81.5,19.4,69.3,19.4Z" style="fill:#baa2ee"/><path d="M61.1,32.8V31c0-4.9,4.2-9.1,10.4-11.5H69.3c-12.2,0-22.1,6.1-22.1,13.6v1.8H91.4v-2Z" style="fill:#baa2ee;opacity:0.30000000000000004;mix-blend-mode:multiply"/><rect x="47.2" y="49.2" width="44.2" height="6.06" style="fill:#baa2ee"/><rect x="55.9" y="81.6" width="26.9" height="4.5" rx="1.9" style="fill:#baa2ee"/><path d="M47.2,72.9v3.4c0,2.7,3.5,4.8,7.8,4.8H83.6c4.3,0,7.8-2.1,7.8-4.8V72.9Z" style="fill:#baa2ee"/><path d="M64.6,78.9c-4.3,0-7.8-2.1-7.8-4.7V72.9h-9v3.4c0,2.7,3.5,4.8,7.8,4.8H84.3a9.3,9.3,0,0,0,6.5-2.2Z" style="fill:#baa2ee;opacity:0.30000000000000004;mix-blend-mode:multiply"/><rect x="47.2" y="34.8" width="44.2" height="1.55" style="fill:#91a7bd;opacity:0.4;mix-blend-mode:multiply"/><rect x="47.2" y="55.3" width="44.2" height="1.55" style="fill:#91a7bd;opacity:0.4;mix-blend-mode:multiply"/><path d="M69.3,19.4c12.2,0,22.1,6.1,22.1,13.6v1.8H47.2V33c0-7.5,9.9-13.6,22.1-13.6m0-3c-14.1,0-25.1,7.3-25.1,16.6v1.8a2.9,2.9,0,0,0,3,3H91.4a2.9,2.9,0,0,0,3-3V33c0-9.3-11-16.6-25.1-16.6Z" style="fill:#7850b3"/><path d="M91.4,72.9v3.4c0,2.7-3.5,4.8-7.8,4.8H55c-4.3,0-7.8-2.1-7.8-4.8V72.9H91.4m0-3H47.2a2.9,2.9,0,0,0-3,3v3.4c0,4.4,4.7,7.8,10.8,7.8H83.6c6.1,0,10.8-3.4,10.8-7.8V72.9a2.9,2.9,0,0,0-3-3Z" style="fill:#7850b3"/></g></g></g></svg>