<svg xmlns="http://www.w3.org/2000/svg" xmlns:xlink="http://www.w3.org/1999/xlink" viewBox="0 0 53.9 71.5"><defs><clipPath id="clip-path" transform="translate(0.7)"><path d="M38,62.3a4.4,4.4,0,0,1-3.3,4.3,50.8,50.8,0,0,1-15.4,1.9,51.1,51.1,0,0,1-13-1.9A4.4,4.4,0,0,1,3,62.3c0-13.9,0-25,.1-39.4h35Z" style="fill:none"/></clipPath></defs><g id="Layer_2" data-name="Layer 2"><g id="Layer_1-2" data-name="Layer 1"><path d="M20.7,18.1a50.8,50.8,0,0,1,11.1,1.1l3.4,1,1.6.8c.8.6,1.3,1.2,1.3,1.9h0V28l4.7.4a8,8,0,0,1,7.4,7.9V53.4a8.1,8.1,0,0,1-7.4,8l-4.9.3v.6a4.4,4.4,0,0,1-3.3,4.3,54.2,54.2,0,0,1-14.2,1.9H19.3a51.1,51.1,0,0,1-13-1.9A4.4,4.4,0,0,1,3,62.3c0-13.9,0-25,.1-39.4h0c0-1.8,3.7-3.4,9.2-4.2a54.4,54.4,0,0,1,8.4-.6h0M38,57.4l4.6-.4a3.6,3.6,0,0,0,3.3-3.6V36.3a3.6,3.6,0,0,0-3.3-3.6l-4.4-.3v25M20.7,15.1a60.9,60.9,0,0,0-8.8.6C4,16.9.1,19.3.1,22.9V62.3a7.5,7.5,0,0,0,5.5,7.2,58.1,58.1,0,0,0,13.7,2h1.3a58.3,58.3,0,0,0,15-2,7.3,7.3,0,0,0,5.1-5h2.5a11.1,11.1,0,0,0,10.2-11V36.2A11,11,0,0,0,43,25.4l-1.9-.2V22.9c0-1.2-.5-2.9-2.7-4.4a10.2,10.2,0,0,0-2.1-1,18.9,18.9,0,0,0-3.8-1.2,52.9,52.9,0,0,0-11.8-1.2ZM41,54.1V35.6h1.2a.6.6,0,0,1,.5.6V53.4a.5.5,0,0,1-.6.6Z" transform="translate(0.7)" style="fill:#335394"/><path d="M33.3,62V27.7l9.5.7a8,8,0,0,1,7.4,7.9V53.4a8.1,8.1,0,0,1-7.4,8Zm4.3-29.6v25l5-.4a3.6,3.6,0,0,0,3.3-3.6V36.3a3.6,3.6,0,0,0-3.3-3.6Z" transform="translate(0.7)" style="fill:#a7bfee"/><path d="M38,62.3a4.4,4.4,0,0,1-3.3,4.3,50.8,50.8,0,0,1-15.4,1.9,51.1,51.1,0,0,1-13-1.9A4.4,4.4,0,0,1,3,62.3c0-13.9,0-25,.1-39.4h35Z" transform="translate(0.7)" style="fill:#5576b4"/><path d="M38.1,22.9c0,2.5-7.7,4.5-17.4,4.5s-17.6-2-17.6-4.5,7.9-4.8,17.6-4.8S38.1,20.3,38.1,22.9Z" transform="translate(0.7)" style="fill:#a7bfee"/><path d="M3.9,24.2c2.3,1.9,9,3.2,16.8,3.2s14.4-1.3,16.6-3.2c-2.2-1.9-8.7-3.3-16.6-3.3S6.2,22.3,3.9,24.2Z" transform="translate(0.7)" style="fill:#8e360f"/><path d="M20.7,19.2a47.3,47.3,0,0,1,12.1,1.4c3.4.9,4.2,2,4.2,2.3s-.8,1.2-4.2,2.1a52.1,52.1,0,0,1-12.1,1.3A53,53,0,0,1,8.5,25c-3.6-.9-4.3-1.9-4.3-2.1s1-1.4,4.3-2.3a48.2,48.2,0,0,1,12.2-1.4m0-1.1c-9.7,0-17.6,2.2-17.6,4.8s7.9,4.5,17.6,4.5,17.4-2,17.4-4.5-7.7-4.8-17.4-4.8Z" transform="translate(0.7)" style="fill:#a7bfee"/><g style="clip-path:url(#clip-path)"><path d="M-.4,64.1s7.1-5.5,11.6-1.8,11.2-5.5,14.9-1.8,14.3-4.3,14.3-4.3" transform="translate(0.7)" style="fill:none;stroke:#6d8adb;stroke-miterlimit:10;stroke-width:0.992126px"/><path d="M-.4,56.8S6.7,51.3,11.2,55s11.2-5.4,14.9-1.7S40.4,49,40.4,49" transform="translate(0.7)" style="fill:none;stroke:#6d8adb;stroke-miterlimit:10;stroke-width:0.992126px"/><path d="M-.4,49.6s7.1-5.5,11.6-1.8S22.4,42.3,26.1,46s14.3-4.3,14.3-4.3" transform="translate(0.7)" style="fill:none;stroke:#6d8adb;stroke-miterlimit:10;stroke-width:0.992126px"/><path d="M-.4,42.3s7.1-5.5,11.6-1.8S22.4,35,26.1,38.8s14.3-4.4,14.3-4.4" transform="translate(0.7)" style="fill:none;stroke:#6d8adb;stroke-miterlimit:10;stroke-width:0.992126px"/><path d="M-.4,35s7.1-5.5,11.6-1.7,11.2-5.5,14.9-1.8,14.3-4.3,14.3-4.3" transform="translate(0.7)" style="fill:none;stroke:#6d8adb;stroke-miterlimit:10;stroke-width:0.992126px"/></g><path d="M21.9,24a44.7,44.7,0,0,1-11.5-1.6c-3.3-1-4.3-3.3-4.2-5.1a4.7,4.7,0,0,1,4.2-4.2l1.9-.2,1.7-.2c-1.7-1.9-1.6-3.4-1.3-4.2s2.7-2.9,6.4-3.3L20.4,5l-1.1-.7a1.6,1.6,0,0,1-.8-1.7A1.6,1.6,0,0,1,20,1.5h0c5.4.2,8.8,1.7,9.3,4,.1.6.3,2.4-2.3,3.7l-1.4.8.9.2c3,.7,7.3,4,7.3,7.6,0,1.9-1.1,4.5-6.5,5.7A29.2,29.2,0,0,1,21.9,24Z" transform="translate(0.7)" style="fill:#fff"/><path d="M20,3c7.7.3,9.6,3.2,6.3,4.9s-4.4,2.9-.1,3.8,10.9,8.1.7,10.3a25.7,25.7,0,0,1-5,.5,44.8,44.8,0,0,1-11-1.5c-4.7-1.4-3.6-5.9-.3-6.4s7.3-.4,5.1-2.4-3-4.7,3.6-5.5S20,3,20,3m0-3a2.9,2.9,0,0,0-2.9,2.3,3.3,3.3,0,0,0,0,1.7c-2.1.4-5,1.4-5.8,4.1a5,5,0,0,0,.1,3.4H10.2a6.3,6.3,0,0,0-5.5,5.6c-.1,2.2,1.1,5.4,5.3,6.7a47.7,47.7,0,0,0,11.9,1.6,24.9,24.9,0,0,0,5.7-.6c6.7-1.4,7.7-5.1,7.7-7.1s-3.1-6.7-6.1-8.2a4.6,4.6,0,0,0,1.5-4.4C30.3,3.4,28.4.3,20.1,0Z" transform="translate(0.7)" style="fill:#efd2ac"/></g></g></svg>