<svg xmlns="http://www.w3.org/2000/svg" viewBox="0 0 48.4 57.6"><g id="Layer_2" data-name="Layer 2"><g id="Layer_1-2" data-name="Layer 1"><path d="M9,3a5.1,5.1,0,0,1,4.1,2L44.3,45.7a5.1,5.1,0,0,1-.9,7.2l-.5.3-.4.4a5,5,0,0,1-3.1,1,5.5,5.5,0,0,1-4.2-2L4.1,12A5.2,5.2,0,0,1,5,4.7l.5-.3.4-.3A4.5,4.5,0,0,1,9,3M9,0A7.9,7.9,0,0,0,4.1,1.7L3.6,2l-.4.3A8.5,8.5,0,0,0,.1,7.8a8.1,8.1,0,0,0,1.6,6L32.9,54.4A8.2,8.2,0,0,0,44.3,56l.4-.4.5-.3a8.2,8.2,0,0,0,1.5-11.5L15.5,3.2A8.1,8.1,0,0,0,9,0Z" style="fill:#8d8d8d"/><path d="M42.5,53.6a5.2,5.2,0,0,1-7.3-1L4.1,12A5.2,5.2,0,0,1,5,4.7a5.2,5.2,0,0,1,7.3,1L43.5,46.3A5.2,5.2,0,0,1,42.5,53.6Z" style="fill:#8e989b"/><path d="M43.4,52.9a5.2,5.2,0,0,1-7.3-.9L4.9,11.3a5.1,5.1,0,0,1,1-7.2,5.1,5.1,0,0,1,7.2.9L44.3,45.7A5.1,5.1,0,0,1,43.4,52.9Z" style="fill:#c3cdd1"/><path d="M39.3,56A6.7,6.7,0,0,1,34,53.5L18.5,33.2a1.1,1.1,0,0,1-.3-1.1,1.4,1.4,0,0,1,.5-1l9.1-6.9a1.2,1.2,0,0,1,.9-.4,1.4,1.4,0,0,1,1.2.6L45.5,44.7a7,7,0,0,1-1.7,9.7A6.9,6.9,0,0,1,39.3,56Z" style="fill:#ffeb81"/><path d="M28.7,25.3,44.3,45.7c1.8,2.2,1.1,5.6-1.4,7.5a5.7,5.7,0,0,1-3.6,1.3,5,5,0,0,1-4.1-1.9L19.7,32.3l9-7m0-3a2.6,2.6,0,0,0-1.8.7l-9.1,6.9a3.1,3.1,0,0,0-1.1,2,2.9,2.9,0,0,0,.6,2.2L32.9,54.4a7.8,7.8,0,0,0,6.4,3.1,8.8,8.8,0,0,0,5.5-1.9,8.5,8.5,0,0,0,1.9-11.8L31.1,23.5a3,3,0,0,0-2.4-1.2Z" style="fill:#ffaa5a"/><path d="M32.6,44.5a4,4,0,0,1-2.7-1.4,8.7,8.7,0,0,1-1.8-2.6c-.8-.7-2.9-2.6-2.8-4.7a3,3,0,0,1,1.5-2.6,3.5,3.5,0,0,1,2-.6h.5a2.3,2.3,0,0,1,1.6-1,1,1,0,0,1,.9.6,2.9,2.9,0,0,1,.3,1,11.5,11.5,0,0,1,4.2,5.3,1.9,1.9,0,0,1,.8.4,1,1,0,0,1,.3,1,2,2,0,0,1-1.1,1.4l-.4.6C35.5,42.5,34.5,44.5,32.6,44.5Z" style="fill:#baa2ee"/><path d="M30.9,32.5h0a1.3,1.3,0,0,1,.1,1l.3.3a9.7,9.7,0,0,1,4.2,5.5h.2a1.1,1.1,0,0,1,.7.3c0,.4-.7.8-.7.8a2.7,2.7,0,0,0-.7.9c-.5.9-1.2,2.2-2.4,2.2a2.9,2.9,0,0,1-2-1.1A6,6,0,0,1,29,39.9s-2.8-2.1-2.7-4.1a2,2,0,0,1,1-1.8c1.1-.6,2.3-.3,2.7-.8s.5-.7.9-.7m0-2h0a2.6,2.6,0,0,0-2.1,1.1h-.1a6.9,6.9,0,0,0-2.4.7,4,4,0,0,0-2,3.5c-.1,2.4,1.9,4.4,3,5.3a9.3,9.3,0,0,0,1.9,2.7,5,5,0,0,0,3.4,1.7c2.5,0,3.8-2.5,4.2-3.2s.1-.3.2-.3a3.8,3.8,0,0,0,1.4-2,1.8,1.8,0,0,0-.7-1.9l-.6-.5A12.5,12.5,0,0,0,33,32.5l-.3-.9A2.1,2.1,0,0,0,31,30.5Z" style="fill:#7850b3"/><circle cx="33" cy="40.1" r="1.4" transform="translate(-15.1 20.4) rotate(-28.3)" style="fill:#7850b3"/><circle cx="29.6" cy="35.7" r="1.4" style="fill:#7850b3"/><path d="M31,39.4s.6-.7.1-1.3a1,1,0,0,0-1.3-.3l-.4,1.6Z" style="fill:#7850b3"/></g></g></svg>