<svg xmlns="http://www.w3.org/2000/svg" viewBox="0 0 54.9 35.1"><g id="Layer_2" data-name="Layer 2"><g id="Layer_1-2" data-name="Layer 1"><path d="M37.5,26.9c-.4,1,.3,2.2,1.3,1.8,4.1-1.6,9.1-4.2,9.8-8.9.2-1.7-2-2.7-3.4-1.9-3.3,2.4-5.2,6-7.7,9Z" style="fill:#d1c3f4"/><path d="M38.5,26.9c-1.1.3-1.6,1.8-.5,2.4,4.3,2.1,10.1,4.2,14.4,1.3,1.5-1.1.8-3.6-1-4.1-4.4-1-8.7.1-12.9.4Z" style="fill:#d1c3f4"/><path d="M37.8,26.7a1.5,1.5,0,0,0,.8,2.7C44,29.1,51,28.2,53.7,23c.9-1.9-1.1-4.1-3.2-3.6-4.9,1.4-8.6,4.8-12.7,7.3Z" style="fill:#baa2ee"/><path d="M3.7,13.4a9.2,9.2,0,0,1,.9-2.3,6.2,6.2,0,0,1,1.5-2A10.1,10.1,0,0,1,8.2,7.6l1.2-.5c4.7-1.4,9.6.4,13,3.5l1.1,1a16.2,16.2,0,0,1,1.8,2l1.6,1.6c4.2,4.9,9.7,8.2,15,11.8-4.1,5.4-12.1,5.9-18.4,7H20.9c-6.1-.2-12-2.9-15.2-8.7a15.1,15.1,0,0,1-1.1-2.2A15.7,15.7,0,0,1,3.7,13.4Z" style="fill:#d1c3f4"/><path d="M7.9,19.4c5.8-1.6,11.5,1.5,15.3,5.7,2.2,2.5,4.6,4.4,8,4.6,1.3.1,3.7.7,2.3,2.3s0,.1-.1.1A71.8,71.8,0,0,1,23.5,34H20.9c-6.1-.2-12-2.9-15.2-8.7a15.1,15.1,0,0,1-1.1-2.2l-.4-.9C4.7,20.8,6.2,19.9,7.9,19.4Z" style="fill:#baa2ee"/><path d="M1.1,13.5a.7.7,0,0,0,.6.3l1.3.5.5.2a3.8,3.8,0,0,0,1.8.3c.8-.3.8-2.3-.1-2.8a3.3,3.3,0,0,0-1.7-.2l-.9.3-1,.4C1.3,12.6.8,13,1.1,13.5Z" style="fill:#1d262d"/><path d="M22.5,18A18,18,0,0,1,26,20.4c3.7-.2,7.4-.4,11.1-1.8,2-1,2.3-4.2.3-5.2-5.5-2.6-11.6.7-16.4,4A3.9,3.9,0,0,1,22.5,18Z" style="fill:#d1c3f4"/><path d="M22.5,18l.6.3c3.1-4.1,6.8-7.9,8.8-13,.7-2.4-1.7-5-4-4.1-6,2.5-8,9.6-8.8,15.8A7.9,7.9,0,0,1,22.5,18Z" style="fill:#d1c3f4"/><path d="M22.5,18a10.7,10.7,0,0,1,2.1,1.3c5.1-2.2,10.4-4,14.7-7.8,2-2.1,1.1-5.9-1.8-6.3-7.6-.7-13.6,5.9-17.8,11.9A6.6,6.6,0,0,1,22.5,18Z" style="fill:#baa2ee"/><path d="M9.5,9.1c3,.3,2.5,5-.5,4.7S6.5,8.8,9.5,9.1Z" style="fill:#f1f2f2"/><path d="M9.4,9.8c2.2.2,1.8,3.6-.3,3.3S7.3,9.5,9.4,9.8Z" style="fill:#1d262d"/><path d="M9.5,10.4c.8-.2,1,1.1.2,1.2S8.7,10.5,9.5,10.4Z" style="fill:#fff"/><path d="M28.8,1a3.4,3.4,0,0,1,3.1,4.3,3.6,3.6,0,0,0-.4.9,11.6,11.6,0,0,1,4.9-1h1.1c2.9.4,3.8,4.2,1.8,6.3L37,13.2l.4.2c2,1,1.7,4.2-.3,5.2a20.5,20.5,0,0,1-5.3,1.3c2.3,1.9,4.7,3.5,7.2,5.2a30.3,30.3,0,0,1,6.2-7.2l1.1-.3a2.1,2.1,0,0,1,2.3,2.2.4.4,0,0,1-.1.3l2-.7h.6c1.8,0,3.5,1.9,2.6,3.7a8,8,0,0,1-3,3.3l.7.2c1.8.5,2.5,3,1,4.1A8.7,8.7,0,0,1,47.5,32,21.1,21.1,0,0,1,39,29.7a18.6,18.6,0,0,1-5.6,2.4h-.3l-.9.3h-.3l-1,.2h-.1l-6,1h-.1l-1.2.2H20.9l-2.2-.2a18.6,18.6,0,0,1-3.4-.7,16.6,16.6,0,0,1-7.5-4.9,12.7,12.7,0,0,1-2.1-2.9,15.1,15.1,0,0,1-1.1-2.2l-.4-.9h0a14.8,14.8,0,0,1-.7-7.8L3,14.3H3l-1.3-.5a.7.7,0,0,1-.6-.3c-.3-.5.2-.9.5-1l1-.4.9-.3h.8l.3-.7a6.2,6.2,0,0,1,1.5-2A10.1,10.1,0,0,1,8.2,7.6l1.2-.5a12.6,12.6,0,0,1,3.3-.5,14.5,14.5,0,0,1,8.2,2.8c1.3-3.6,3.4-6.7,7-8.2l.9-.2m0-1V0L27.5.2C24.4,1.5,22,4.1,20.4,7.9a14.7,14.7,0,0,0-7.7-2.3,14.9,14.9,0,0,0-3.6.5l-1.3.6A8.1,8.1,0,0,0,5.4,8.4a12.8,12.8,0,0,0-1.7,2.2v.2H3.3l-1.1.3H2l-1,.5A1.7,1.7,0,0,0,.2,14a1.9,1.9,0,0,0,1.1.8h0l1.1.3a16,16,0,0,0,.8,7.2h0v.3a3.6,3.6,0,0,0,.4.9,10.1,10.1,0,0,0,1.2,2.3A16.9,16.9,0,0,0,7,29a17.8,17.8,0,0,0,8,5.1,22.1,22.1,0,0,0,3.5.8l2.4.2h2.8l1.2-.2,1.4-.2,4.7-.8h.1l1.1-.2h.2l.9-.2h.2c0-.1.1-.1.2-.1A21.7,21.7,0,0,0,39,30.9,22.8,22.8,0,0,0,47.5,33a8.9,8.9,0,0,0,5.4-1.6,2.9,2.9,0,0,0,1.2-3.1A3.5,3.5,0,0,0,52.7,26a9.7,9.7,0,0,0,1.9-2.6,3.3,3.3,0,0,0-.2-3.2,3.9,3.9,0,0,0-3.3-1.9h-.8l-.9.3a3.1,3.1,0,0,0-.5-1,3.6,3.6,0,0,0-2.6-1.1,3.3,3.3,0,0,0-1.6.5h-.1a31.7,31.7,0,0,0-5.8,6.4v.2l-4.5-3.2a24.5,24.5,0,0,0,3.2-.9h.1a4.1,4.1,0,0,0,2.3-3.7,4,4,0,0,0-1-2.6l1.2-.9h0a5,5,0,0,0,1.1-5.1,4.2,4.2,0,0,0-3.4-2.9H36.4a13.2,13.2,0,0,0-3.4.4,5.2,5.2,0,0,0-.9-2.9A4.2,4.2,0,0,0,28.8,0Z" style="fill:#7850b3"/></g></g></svg>