<svg xmlns="http://www.w3.org/2000/svg" viewBox="0 0 65.3 63.9"><g id="Layer_2" data-name="Layer 2"><g id="Layer_1-2" data-name="Layer 1"><path d="M63.8,50.3v-.7a.4.4,0,0,1-.1-.3v-.2a.4.4,0,0,0-.1-.3v-.2c0-.1-.1-.2-.1-.3v-.2a.4.4,0,0,1-.1-.3.3.3,0,0,1-.1-.2.4.4,0,0,0-.1-.3v-.5a.4.4,0,0,1-.1-.3c-.1,0-.1-.1-.2-.2a.4.4,0,0,0-.1-.3c0-.1,0-.2-.1-.2s-.1-.2-.1-.3a.4.4,0,0,1-.1-.3l-.2-.2c0-.1-.1-.2-.1-.3l-.2-.3a.3.3,0,0,0-.1-.2l-.2-.3c0-.1-.1-.2-.1-.3s-.2-.2-.2-.3-.1-.2-.2-.2l-.3-.5c0-.1-.1-.1-.1-.2l-.3-.4-.2-.2c-.1-.2-.2-.3-.2-.4l-.2-.2-.3-.4-.2-.2-.2-.3-.2-.2-.3-.4-.2-.2-.3-.3-.2-.3-.3-.3-.2-.2-.3-.4-.3-.2-.3-.3-.2-.3h-.2l.6-.4a.7.7,0,0,0,0-1.2l-1.1-.2a18.3,18.3,0,0,0-4.9-21l-.4-.3a18.1,18.1,0,0,0-2.9-1.9h0a25.6,25.6,0,0,0,1.1-2.4,24,24,0,0,0,1.1-2.3.8.8,0,0,0,.2-.4l-.6-.2-.5-.4-.2.3A25.6,25.6,0,0,1,47.4,9a24,24,0,0,1-1.1,2.3v.2l-.9-.4a18.3,18.3,0,0,0-22,7.5h-1a.1.1,0,0,0-.1.1h-.7s-.1,0,0,.1A31.8,31.8,0,0,0,10.1,19c-3.5.6-6,2-7.2,4.3-.1.1-.1.1-.1.2-1.2,2.2-.9,5,.5,8a.1.1,0,0,1-.1.1H2.7a.1.1,0,0,0-.1.1h0a.1.1,0,0,1-.1.1h0a5.2,5.2,0,0,0-.3,3.7,7.7,7.7,0,0,0,2.6,4.2l.3.2h.1a.1.1,0,0,1,.1.1h.1c.1,0,.2,0,.2.1h.3a.1.1,0,0,1,.1.1h.4l.4.2H9.5a2.6,2.6,0,0,0,1.5-.4c.9.9,1.9,1.7,3,2.6l4,2.9,1.7,1.1.9.5a46.1,46.1,0,0,0,5.8,3.3l4.4,2,.9.4,3.1,1.2a45.6,45.6,0,0,0,6,1.8h0a43,43,0,0,0,12.3,1.4h0c4.9-.3,8.5-1.9,10-4.8l.3-.6h0c0-.1.1-.2.1-.4a.1.1,0,0,1,.1-.1v-.3a.3.3,0,0,0,.1-.2v-.4a.4.4,0,0,0,.1-.3V50.3Z" style="fill:none;stroke:#7850b3;stroke-linecap:round;stroke-linejoin:round;stroke-width:3px"/><path d="M40.8,57.2a48.4,48.4,0,0,0,10.7,1.4h1.6A3.3,3.3,0,0,1,52,60.2a6.6,6.6,0,0,1-4.4,1.7h-.2a7.8,7.8,0,0,1-4.6-1.8,5.7,5.7,0,0,1-2-2.9m0-2a2.4,2.4,0,0,0-1.4.5,2.1,2.1,0,0,0-.5,2,8.2,8.2,0,0,0,2.6,3.9,9.6,9.6,0,0,0,5.8,2.3h.3a8.9,8.9,0,0,0,5.8-2.2A5.3,5.3,0,0,0,55,59.2V59a1.8,1.8,0,0,0-.4-1.7,2.1,2.1,0,0,0-1.5-.7H51.5a39.5,39.5,0,0,1-10.2-1.4Z" style="fill:#ffaa5a"/><path d="M21.3,52.3a7.2,7.2,0,0,0,3.6,3.3,6.7,6.7,0,0,0,5,.1,3.3,3.3,0,0,0,1.5-1.1l.3-.5-.9-.4-4.4-2a46.1,46.1,0,0,1-5.8-3.3.3.3,0,0,0-.1.2A5.9,5.9,0,0,0,21.3,52.3Z" style="fill:none;stroke:#ffaa5a;stroke-linecap:round;stroke-linejoin:round;stroke-width:6px"/><path d="M50.4,2l1.1.3A2.5,2.5,0,0,1,50.4,7h-.6l-.6-.2-.5-.4a2.4,2.4,0,0,1-.6-2.9A2.5,2.5,0,0,1,50.4,2m0-2a4.3,4.3,0,0,0-4,2.5,4.3,4.3,0,0,0,1,5.3l.9.7,1.1.4h1a4.6,4.6,0,0,0,4-2.5,4.5,4.5,0,0,0,.2-3.4A4.4,4.4,0,0,0,52.4.5a4.9,4.9,0,0,0-2-.5Z" style="fill:#ffaa5a"/><path d="M47.4,12.1h0l1.1-2.4a24,24,0,0,0,1.1-2.3.8.8,0,0,0,.2-.4l-.6-.2-.5-.4-.2.3A25.6,25.6,0,0,1,47.4,9l-1.1,2.3v.2l.8.4Z" style="fill:#716592"/><path d="M42.8,60.1a7.8,7.8,0,0,0,4.6,1.8A6.9,6.9,0,0,0,52,60.2a3.3,3.3,0,0,0,1.1-1.5h0a43,43,0,0,1-12.3-1.4A5.7,5.7,0,0,0,42.8,60.1Z" style="fill:#fcd54d"/><path d="M21.3,52.3a7.2,7.2,0,0,0,3.6,3.3,6.7,6.7,0,0,0,5,.1,3.3,3.3,0,0,0,1.5-1.1l.3-.5-.9-.4-4.4-2a46.1,46.1,0,0,1-5.8-3.3.3.3,0,0,0-.1.2A5.9,5.9,0,0,0,21.3,52.3Z" style="fill:#fcd54d"/><path d="M32.7,24.8a9.3,9.3,0,0,1-1.2,2.7,37.1,37.1,0,0,0,10.1,5.6,31.6,31.6,0,0,0,7.5,1.8,21.9,21.9,0,0,0,3.6.3h2.9a18.3,18.3,0,0,0-4.9-21l-.4-.3a18.1,18.1,0,0,0-2.9-1.9l-.4-.2-.8-.4-.9-.4a24.5,24.5,0,0,0-8.6,6.7A21.2,21.2,0,0,0,32.7,24.8Z" style="fill:#a6d6d4"/><path d="M48,52.6c0-.1,0-.2.1-.2a24.9,24.9,0,0,0,1.3-6.7,17.8,17.8,0,0,0-1.5-8.8h-.2a38.4,38.4,0,0,1-15-5.6l-3-2.3a15.1,15.1,0,0,1-1.8.9,28.7,28.7,0,0,0-11,8.5,79.2,79.2,0,0,0,16.6,9.7l.6.2h.3l1.2.5.6.2,3.5,1.3h.5l.4.2h.5l.9.3.9.3h.5l1.2.3h1.5l.9.2,1,.2" style="fill:#8e81bb"/><path d="M48.9,20.8a16.4,16.4,0,0,1,2,6,12.7,12.7,0,0,0,.3,2.8c.5,1.8,2.8,2.4,3.5.4a13.4,13.4,0,0,0,.3-6.3,19,19,0,0,0-1.2-3.6,6,6,0,0,0-1.4-2,3.1,3.1,0,0,0-2.1-.9,2.1,2.1,0,0,0-1.8,1.4A3.5,3.5,0,0,0,48.9,20.8Z" style="fill:#d2e9e9"/><path d="M63.1,53.8l.3-.6c-2.2.2-4.3.3-6.5.3H48l-1-.2-.9-.2H44.6l-1.2-.3h-.5l-.9-.3-.9-.3h-.5l-.4-.2h-.5l-3.5-1.3-.6-.2-1.2-.5h-.3l-.6-.2a79.2,79.2,0,0,1-16.6-9.7L15.3,41c-.5,1-.9,1.9-1.3,2.9l4,2.9,1.7,1.1.9.5a46.1,46.1,0,0,0,5.8,3.3l4.4,2,.9.4,3.1,1.2a45.6,45.6,0,0,0,6,1.8h0a43,43,0,0,0,12.3,1.4h0C58,58.3,61.6,56.7,63.1,53.8Z" style="fill:#716592"/><path d="M54.4,37.3H52.3a21.8,21.8,0,0,1-4.4-.4h0a17.8,17.8,0,0,1,1.5,8.8,24.9,24.9,0,0,1-1.3,6.7c-.1,0-.1.1-.1.2h2.4l3,.3h3.5c2.2,0,4.3-.1,6.5-.3h0c0-.1.1-.2.1-.4a.1.1,0,0,1,.1-.1v-.3a.3.3,0,0,0,.1-.2v-.4a.4.4,0,0,0,.1-.3V49.6a.4.4,0,0,1-.1-.3v-.2a.4.4,0,0,0-.1-.3v-.2c0-.1-.1-.2-.1-.3v-.2a.4.4,0,0,1-.1-.3.3.3,0,0,1-.1-.2.4.4,0,0,0-.1-.3v-.5a.4.4,0,0,1-.1-.3c-.1,0-.1-.1-.2-.2a.4.4,0,0,0-.1-.3c0-.1,0-.2-.1-.2s-.1-.2-.1-.3a.4.4,0,0,1-.1-.3l-.2-.2c0-.1-.1-.2-.1-.3l-.2-.3a.3.3,0,0,0-.1-.2l-.2-.3c0-.1-.1-.2-.1-.3s-.2-.2-.2-.3-.1-.2-.2-.2l-.3-.5c0-.1-.1-.1-.1-.2l-.3-.4-.2-.2c-.1-.2-.2-.3-.2-.4l-.2-.2-.3-.4-.2-.2-.2-.3-.2-.2-.3-.4-.2-.2-.3-.3-.2-.3-.3-.3-.2-.2-.3-.4-.3-.2-.3-.3-.2-.3h-.2Z" style="fill:#aba1ce"/><path d="M52.7,35.2a21.9,21.9,0,0,1-3.6-.3,31.6,31.6,0,0,1-7.5-1.8,37.1,37.1,0,0,1-10.1-5.6c0,.1-.1.1-.1.2a6,6,0,0,1-.8.8h0l-.9.5,3,2.3a38.4,38.4,0,0,0,15,5.6h.2a21.8,21.8,0,0,0,4.4.4h2.1l1.7-.2h0l.6-.4a.7.7,0,0,0,0-1.2l-1.1-.2H52.7Z" style="fill:#716592"/><path d="M25.9,22c.9,1.1,1.9,2.1,2.9,3.1l2.7,2.4a9.3,9.3,0,0,0,1.2-2.7,21.2,21.2,0,0,1,4-7,24.5,24.5,0,0,1,8.6-6.7,18.3,18.3,0,0,0-22,7.5,10.9,10.9,0,0,1,1.3,1.7Z" style="fill:#7596b3"/><path d="M27.9,29.9a15.1,15.1,0,0,0,1.8-.9,28.9,28.9,0,0,1-3.2-2.9,25.2,25.2,0,0,1-2.7-3,15.1,15.1,0,0,1-2.3-3.5v-.3A31.8,31.8,0,0,0,10.1,19c-3.5.6-6,2-7.2,4.3a57.4,57.4,0,0,0,14,15.1A28.7,28.7,0,0,1,27.9,29.9Z" style="fill:#6d5da4"/><path d="M9,42.8H6L5.6,42l-.3-.2L5,41.6H4.8l-.3-.2-.3-.2a8.4,8.4,0,0,1-3-4.8,7.6,7.6,0,0,1,.3-4.4c.1,0,.2-.2.2-.2v-.2c0-.1.2-.2.2-.2v-.2h.2l.3-.2h.7a1.1,1.1,0,0,1,.9.6,32.1,32.1,0,0,0,7.5,9.5,1.1,1.1,0,0,1,.3.8,1,1,0,0,1-.5.8,3.6,3.6,0,0,1-1.9.5H9Z" style="fill:#ffaa5a"/><path d="M3.3,31.5C4.7,34.7,7.4,38,11,41.3a2.6,2.6,0,0,1-1.5.4H6.8l-.4-.2H6a.1.1,0,0,0-.1-.1H5.6c0-.1-.1-.1-.2-.1H5.3a.1.1,0,0,0-.1-.1H5.1l-.3-.2a7.7,7.7,0,0,1-2.6-4.2,5.2,5.2,0,0,1,.3-3.7h0a.1.1,0,0,0,.1-.1h0a.1.1,0,0,1,.1-.1h.5a.1.1,0,0,0,.1-.1m0-2-.8.2H2.1A.1.1,0,0,0,2,30c-.1,0-.1,0-.1.1H1.7a.1.1,0,0,0-.1.1H1.5c-.1,0-.1,0-.1.1H1.1c0,.1,0,.1-.1.2a.1.1,0,0,1-.1.1c0,.1,0,.1-.1.2a.1.1,0,0,1-.1.1H.6a8.4,8.4,0,0,0-.4,5,9.4,9.4,0,0,0,3.4,5.4l.3.2H4l.3.2h.1l.2.2h.5a.1.1,0,0,0,.1.1l.4.2h0l.5.2H9.7A4.2,4.2,0,0,0,12,43a1.8,1.8,0,0,0,1-1.5,2.2,2.2,0,0,0-.6-1.7,28.5,28.5,0,0,1-7.3-9.1,2,2,0,0,0-1.8-1.2Z" style="fill:#ff8d3d"/><path d="M16.9,38.4a57.4,57.4,0,0,1-14-15.1c-.1.1-.1.1-.1.2-1.2,2.2-.9,5,.5,8S7.4,38,11,41.3c.9.9,1.9,1.7,3,2.6.4-1,.8-1.9,1.3-2.9Z" style="fill:#5a4d84"/><path d="M23.8,23.1a25.2,25.2,0,0,0,2.7,3A28.9,28.9,0,0,0,29.7,29l.9-.5h0a6,6,0,0,0,.8-.8c0-.1.1-.1.1-.2l-2.7-2.4c-1-1-2-2-2.9-3.1l-1.3-1.7a10.9,10.9,0,0,0-1.3-1.7h-1a.1.1,0,0,0-.1.1h-.7s-.1,0,0,.1v.3A15.1,15.1,0,0,0,23.8,23.1Z" style="fill:#5a4d84"/><path d="M49.8,6.9a2.6,2.6,0,0,0,2.8-1.3,2.5,2.5,0,0,0-1.1-3.3,2.5,2.5,0,0,0-2.8,4l.5.4Z" style="fill:#fcd54d"/><path d="M37.4,37.3a4.7,4.7,0,0,0-5.2-2.7A5.4,5.4,0,0,0,28,41.1a4.6,4.6,0,0,0,5.3,3.6,5,5,0,0,0,3.3-2A6.1,6.1,0,0,0,37.4,37.3Z" style="fill:#564789"/><path d="M35.6,36.5l-.5-.4c-1.7-1.1-4.1-.2-5.3,1.3a4.3,4.3,0,0,0-.9,3.5A3,3,0,0,0,30.3,43a3.9,3.9,0,0,0,5.2-.8A4.4,4.4,0,0,0,35.6,36.5Z" style="fill:#eb66a1"/><path d="M33.2,36.4a2.9,2.9,0,0,0-1.8.7,3.3,3.3,0,0,0-1.3,1.3c0,.3.3.4.4.3s.8-.8,1.3-1.1l1.5-.8A.2.2,0,0,0,33.2,36.4Z" style="fill:#f3acca"/><path d="M28.1,48.5a.5.5,0,0,0-.7.3h0a.5.5,0,0,0,.9.5h0A.4.4,0,0,0,28.1,48.5Z" style="fill:#a6d6d4"/><path d="M19.7,43.6h0a.5.5,0,0,0-.7-.3.5.5,0,0,0-.3.6h0a.6.6,0,0,0,.7.4A.5.5,0,0,0,19.7,43.6Z" style="fill:#a6d6d4"/><path d="M12.1,37.3a.6.6,0,0,0-.7-.3h-.1c-.3.1-.5.5-.4.7a.7.7,0,0,0,.7.4h.1A.6.6,0,0,0,12.1,37.3Z" style="fill:#a6d6d4"/><path d="M6,31H6c-.7.2-.3,1.2.3,1h.1C7,31.8,6.7,30.8,6,31Z" style="fill:#a6d6d4"/><path d="M36.5,51.8h-.1c-.3,0-.6.3-.5.5a.5.5,0,0,0,.5.5h.2a.5.5,0,0,0,.5-.5A.6.6,0,0,0,36.5,51.8Z" style="fill:#a6d6d4"/><path d="M45.6,54.4c-.6-.3-1.1.6-.4,1S46.2,54.7,45.6,54.4Z" style="fill:#a6d6d4"/><path d="M53.8,56.1h.1a.6.6,0,0,0,.7-.2c.1-.3.1-.6-.2-.7h-.1a.5.5,0,0,0-.7.3A.7.7,0,0,0,53.8,56.1Z" style="fill:#a6d6d4"/><path d="M18,21.9h-.2a4.2,4.2,0,0,0-2-.5,7.9,7.9,0,0,0-5.7,2.1,3.7,3.7,0,0,0-1.2,2.2,2.9,2.9,0,0,0,1.8,3.1,4.3,4.3,0,0,0,2.2.6,7.8,7.8,0,0,0,5.3-2,3.9,3.9,0,0,0,1.4-3.2A3,3,0,0,0,18,21.9Z" style="fill:#564789"/><path d="M17.6,22.6a3.7,3.7,0,0,0-1.8-.4A6.4,6.4,0,0,0,10.9,24a3.2,3.2,0,0,0-.9,1.6c-.2,1.7,1.7,2.4,3,2.4a6.1,6.1,0,0,0,4.5-1.6,2.7,2.7,0,0,0,1.1-2.3A2.3,2.3,0,0,0,17.6,22.6Z" style="fill:#eb66a1"/><path d="M17.2,23.2c-.7-.8-2.2-.6-3-.4a7.2,7.2,0,0,0-2.9,1.7.4.4,0,0,0,.5.5,6.6,6.6,0,0,1,2.7-1.2,11,11,0,0,0,2.6-.2A.2.2,0,0,0,17.2,23.2Z" style="fill:#f3acca"/><path d="M52.9,44a7.3,7.3,0,0,0,1.6,5.3,4,4,0,0,0,1.7,1.5,3,3,0,0,0,3.6-.4,3.3,3.3,0,0,0,1-2.3,7.6,7.6,0,0,0-1.6-5.8A4.8,4.8,0,0,0,57.6,41l-.3-.2a3.3,3.3,0,0,0-2.6.1A3.7,3.7,0,0,0,52.9,44Z" style="fill:#564789"/><path d="M55.4,48.5c.8,1.1,2.5,2.2,3.8,1a3.6,3.6,0,0,0,.7-1.7,6.5,6.5,0,0,0-1.5-5A2.6,2.6,0,0,0,57,41.7a1.9,1.9,0,0,0-1.8,0A3,3,0,0,0,54,43.9,6.8,6.8,0,0,0,55.4,48.5Z" style="fill:#eb66a1"/><path d="M57.9,44.8a7.3,7.3,0,0,1,.7,2.9.4.4,0,0,0,.7.1,7.3,7.3,0,0,0-.4-3.3c-.4-.8-1.1-2.1-2.1-2.2a.3.3,0,0,0-.3.3C56.7,43.4,57.5,44.1,57.9,44.8Z" style="fill:#f3acca"/></g></g></svg>