<svg xmlns="http://www.w3.org/2000/svg" viewBox="0 0 232.7 421.9"><g style="isolation:isolate"><g id="Layer_2" data-name="Layer 2"><g id="Layer_1-2" data-name="Layer 1"><path d="M232.7,412.8v-5a4.4,4.4,0,0,0-.8-2.9,5.6,5.6,0,0,0-3.2-2.1h-.1c-6.3-2.3-24.5-3.9-45.3-3.9h-.8c-12.1,0-23.4.5-32.1,1.4-13.2,1.5-15.5,3.3-16.2,5.3a4.2,4.2,0,0,0-.3,2.2,1.7,1.7,0,0,0,0,1,1.7,1.7,0,0,0,0,1,1.7,1.7,0,0,0,0,1,1.7,1.7,0,0,0,0,1,1.7,1.7,0,0,0,0,1,3.7,3.7,0,0,0,.4,2.3c.9,1.8,2.9,3.8,16.4,5.3a298.4,298.4,0,0,0,32.5,1.6h.8a294.5,294.5,0,0,0,32.1-1.5c13.2-1.5,15.3-3.5,16.2-5.2A5.1,5.1,0,0,0,232.7,412.8Z" style="fill:#ffaa5a"/><path d="M183.2,414.4c-4.5,0-44.6-.2-47.6-6a2.4,2.4,0,0,1,0-2.3c.3-1.1,1.6-2.9,15-4.4,8.6-.9,19.9-1.4,31.9-1.4h.8c20.7,0,38.7,1.6,44.8,3.8h.1a4.7,4.7,0,0,1,2.5,1.6,2.4,2.4,0,0,1,.2,2.7c-2.9,5.8-42.4,5.9-46.9,5.9Z" style="fill:#fcf8cb"/><path d="M182.5,401.8h.8c20.9,0,38.5,1.6,44.3,3.7h.1a2.9,2.9,0,0,1,1.7,1.1.9.9,0,0,1,.2,1.1c-1.4,2.8-20.4,5.1-45.6,5.1h-.8c-25.5,0-44.8-2.4-46.3-5.2a1.1,1.1,0,0,1,.1-1c.8-2.8,20.8-4.9,45.5-4.9m0-3c-12.1,0-23.4.5-32.1,1.4-13.2,1.5-15.5,3.3-16.2,5.3a3.9,3.9,0,0,0,.1,3.5c.9,1.8,2.9,3.8,16.4,5.3a298.4,298.4,0,0,0,32.5,1.6h.8a294.5,294.5,0,0,0,32.1-1.5c13.2-1.5,15.3-3.5,16.2-5.2a4.2,4.2,0,0,0-.4-4.3,5.6,5.6,0,0,0-3.2-2.1h-.1c-6.3-2.3-24.5-3.9-45.3-3.9Z" style="fill:#ffaa5a"/><path d="M169.7,52.6c-8.5-25.1-20.2-41.2-34.8-47.7-25.8-11.5-50.7,10-51.8,10.9s-2,1.7-2.2,2.6a2.1,2.1,0,0,0,3.2,2.5c.2-.2,24-20.7,47.3-10.2,21.6,9.6,47.6,48.2,48.9,177V404.8a2.1,2.1,0,0,0,2.1,2.1c2.9,0,3.8-.8,3.8-4.1V185.7C185.6,128.1,180.1,83.3,169.7,52.6Z" style="fill:#cecece;stroke:#575757;stroke-linecap:round;stroke-linejoin:round;stroke-width:3px"/><path d="M44.6,92.7a15.9,15.9,0,0,1-9.4-3,16.1,16.1,0,0,1,9.4-29.1A16,16,0,0,1,57.7,86,16.1,16.1,0,0,1,44.6,92.7Z" style="fill:#ffeb81"/><path d="M44.6,62.1a14.1,14.1,0,0,1,8.5,2.7,14.6,14.6,0,0,1,3.4,20.4,14.8,14.8,0,0,1-11.9,6.1,14.4,14.4,0,0,1-8.5-2.8,14.6,14.6,0,0,1-3.3-20.3,14.4,14.4,0,0,1,11.8-6.1m0-3h0a17.7,17.7,0,0,0-14.3,7.3A17.8,17.8,0,0,0,34.4,91a17.5,17.5,0,0,0,24.5-4.1A17.5,17.5,0,0,0,44.6,59.1Z" style="fill:#fcd54d"/><path d="M90.1,20.8h-.3a1.4,1.4,0,0,1-1-.7l-4-6.4a1.5,1.5,0,0,1,.5-2c.8-.6,8.1-5.6,12.5-5.6A4,4,0,0,1,101,7.5a3.4,3.4,0,0,1,.5,2.6c-.8,4.1-9,9.5-10.6,10.5A1.1,1.1,0,0,1,90.1,20.8Z" style="fill:#ffeb81"/><path d="M97.8,7.6a2.4,2.4,0,0,1,1.9.8c2.5,3.3-9.6,10.9-9.6,10.9l-4-6.4s7.6-5.3,11.7-5.3m0-3h0c-4.8,0-12,4.9-13.4,5.8a3,3,0,0,0-.8,4.1l3.9,6.4a3.3,3.3,0,0,0,1.9,1.4h.7a2.9,2.9,0,0,0,1.6-.4c3.1-2,10.4-7,11.3-11.5a5.2,5.2,0,0,0-.8-3.7,5.2,5.2,0,0,0-4.4-2.1Z" style="fill:#ffaa5a"/><path d="M79.8,12.6l-.9,1.7a3.3,3.3,0,0,0,.2,3.7c1.6,2.4,5.4,6.5,13.1,8.9a3.5,3.5,0,0,0,4.1-1.7L97,24S93,15.1,79.8,12.6Z" style="fill:#ff8c54"/><path d="M79.8,12.6S85.5,22.4,97,24C97,24,93.4,15.3,79.8,12.6Z" style="fill:#0065dd;opacity:0.25;mix-blend-mode:multiply"/><path d="M91.7,20.2c-.3.4-2-.2-3.7-1.3s-2.9-2.5-2.6-2.9,2,.1,3.7,1.3S92,19.7,91.7,20.2Z" style="fill:#ff8c54"/><path d="M84.8,107.1c-2.4,0-4.5-1.4-6-4.1s-2.8-3.1-3.2-3.1-2.6,2.3-3.1,3.9a1.5,1.5,0,0,1-1.4,1H71a1.7,1.7,0,0,1-1.4-1.2c-2.7-10.2-7.5-15.4-14-15.4S45,92,44.9,92.1a1.6,1.6,0,0,1-.9.3l-.7-.2a1.4,1.4,0,0,1-.8-1.5c.5-4.8-.1-8.2-1.8-10.1a5.4,5.4,0,0,0-4.4-1.7,16.5,16.5,0,0,0-7.4,2h-.7a1.5,1.5,0,0,1-1-.3,1.4,1.4,0,0,1-.4-1.7c1.5-4.1,1.7-7.1.4-9s-5.2-2.8-7.9-2.8a24.2,24.2,0,0,0-4.8.5h-.3a1.3,1.3,0,0,1-1.3-.8,1.3,1.3,0,0,1,.2-1.7,42.7,42.7,0,0,0,4.3-5.3H14.1c-3.3,0-7.4-.4-10.2-3.8-7-8.7,3.5-20.6,3.9-21.1a1.6,1.6,0,0,1,1.1-.5H9a1.4,1.4,0,0,1,1.1.6C15.7,42,22,45.5,28.6,45.5c14.1,0,28.1-15.3,36.5-24.5,3-3.3,5.4-5.9,7.1-7.1A14.4,14.4,0,0,1,80.8,11c6.6,0,12.1,4.2,12.3,4.4,10.1,7.2,4.5,17-2,28.5C86.8,51.3,82,59.8,80,69.5,75,92.8,93.2,97.2,94,97.3a1.7,1.7,0,0,1,1.1.9,1.4,1.4,0,0,1-.2,1.4c-.5.8-5,7.5-10.1,7.5Z" style="fill:#baa2ee"/><path d="M80.8,12.5c6.2,0,11.4,4,11.4,4C107.1,27.2,83.8,44,78.5,69.2S93.7,98.8,93.7,98.8s-4.5,6.8-8.9,6.8c-1.7,0-3.3-.9-4.7-3.3s-3.2-3.9-4.5-3.9-4.5,4.9-4.5,4.9c-3.6-13.2-9.9-16.6-15.5-16.6S44,90.9,44,90.9c1.1-10.9-3.3-13.5-7.7-13.5a20.1,20.1,0,0,0-8.1,2.1c4.6-11.8-3.2-13.8-8.9-13.8a26.8,26.8,0,0,0-5.1.5c6.5-7.1,5.7-7.8,2.4-7.8H14.1c-3,0-6.6-.3-9-3.2C-1.2,47.3,8.9,36,8.9,36c6.5,8,13.2,11,19.7,11,19.6,0,37.9-27.1,44.5-31.9a12.5,12.5,0,0,1,7.7-2.6m0-3a16.1,16.1,0,0,0-9.5,3.1A73.2,73.2,0,0,0,64,20c-8.2,9-22,24-35.4,24-6.3,0-11.9-3.2-17.3-9.9A3,3,0,0,0,9,33H8.9a3.2,3.2,0,0,0-2.2,1c-.5.5-11.8,13.3-3.9,23.1,3.1,3.9,7.7,4.3,11.3,4.3h.3c-.6.8-1.4,1.6-2.4,2.8a3,3,0,0,0-.5,3.5,3.3,3.3,0,0,0,2.7,1.5h.6a25.5,25.5,0,0,1,4.5-.4c1.9,0,5.4.3,6.7,2.1s.7,4.1-.6,7.6a2.9,2.9,0,0,0,.8,3.4,2.7,2.7,0,0,0,2,.7l1.4-.3a16.7,16.7,0,0,1,6.7-1.8,4.2,4.2,0,0,1,3.3,1.2c.9,1.1,2,3.5,1.4,9a3.1,3.1,0,0,0,1.5,2.9,2.8,2.8,0,0,0,1.5.4,2.6,2.6,0,0,0,1.8-.7c.1,0,4.7-3.5,9.8-3.5s10,4.8,12.6,14.3a3,3,0,0,0,2.8,2.3h.1a3,3,0,0,0,2.8-2,6.4,6.4,0,0,1,1.7-2.8c.3.1.9.7,1.9,2.3,2.3,4,5.2,4.8,7.3,4.8,5.8,0,10.5-6.8,11.4-8.2a3.2,3.2,0,0,0,.3-2.7,2.9,2.9,0,0,0-2.2-1.8c-.7-.2-17.5-4.3-12.9-26.1,2-9.5,6.8-17.8,11-25.2s6.3-11.1,7.3-16S99,17.8,94,14.1c-.7-.5-6.3-4.6-13.2-4.6Z" style="fill:#5576b4"/><path d="M91,15.7c-2.9-1.8-10.9-5.8-17.9-.6C64.3,21.6,34.6,67.6,8.9,36c0,0-10.1,11.3-3.8,19.2s21.9-2.9,9.1,11c0,0,7.7-1.6,12.2,1.1,5.1-1.8,23.2-9.2,40-32C81.4,15,88.5,14.7,91,15.7Z" style="fill:#0065dd;opacity:0.25;mix-blend-mode:multiply"/><path d="M44,90.9S70.7,59,75.9,42.2C75.9,42.2,50,69.6,44,90.9Z" style="fill:#0065dd;opacity:0.25;mix-blend-mode:multiply"/><path d="M75.5,63.2s-6.2,31.4-4.4,40.1C71.1,103.3,66,78.8,75.5,63.2Z" style="fill:#0065dd;opacity:0.25;mix-blend-mode:multiply"/><path d="M28.2,79.5S51,62.3,59.8,47.7C59.8,47.7,29.2,77.3,28.2,79.5Z" style="fill:#0065dd;opacity:0.25;mix-blend-mode:multiply"/><path d="M14.2,66.2S40.8,59,47.5,49.8C47.5,49.8,24.1,62.8,14.2,66.2Z" style="fill:#0065dd;opacity:0.25;mix-blend-mode:multiply"/><path d="M57.8,37.7s2.9-10.3,7.1-9.4S57.8,37.7,57.8,37.7Z" style="fill:#0065dd;opacity:0.25;mix-blend-mode:multiply"/><path d="M66.6,40.8s1.9-10.9,7.1-9.3S66.6,40.8,66.6,40.8Z" style="fill:#0065dd;opacity:0.25;mix-blend-mode:multiply"/><path d="M76.6,49.4s9.7-5.3,6.5-9.8S76.6,49.4,76.6,49.4Z" style="fill:#0065dd;opacity:0.25;mix-blend-mode:multiply"/><path d="M77.2,56.7s3.4-8.8,6.4-8.6S77.2,56.7,77.2,56.7Z" style="fill:#0065dd;opacity:0.25;mix-blend-mode:multiply"/><path d="M57.4,38.3s2.8-10.2,7.1-9.3S57.4,38.3,57.4,38.3Z" style="fill:#ffeb81"/><path d="M66.1,41.5s1.9-10.9,7.2-9.3S66.1,41.5,66.1,41.5Z" style="fill:#ffeb81"/><path d="M76.1,50s9.7-5.3,6.5-9.7S76.1,50,76.1,50Z" style="fill:#ffeb81"/><path d="M76.7,57.3s3.4-8.8,6.4-8.6S76.7,57.3,76.7,57.3Z" style="fill:#ffeb81"/></g></g></g></svg>