<svg xmlns="http://www.w3.org/2000/svg" viewBox="0 0 68 53.3"><g id="Layer_2" data-name="Layer 2"><g id="Layer_1-2" data-name="Layer 1"><path d="M54.7,45.9c4.4-2.7,8.8-6.9,6.2-11.9A6.3,6.3,0,0,0,59,31.7c1.7-3.5,2.2-6.8.1-9-6.7-6.8-15.6,1.9-15.6,1.9s12.5-12.3,2.7-14a9.2,9.2,0,0,0-9.6,3.8C38.9,8.1,40.3-1.1,28.5.7,19.9,2,18.5,7.1,19.4,12c-1.9-2.7-4.5-4.5-7.9-3.1-8.6,3.4,3.8,17.4,3.8,17.4S8.6,21.2,5.2,28.8a5.5,5.5,0,0,0,.2,4.5,4.6,4.6,0,0,0-1.7,2.9c-.5,2.5,4.9,6.3,8.9,8.8C6.6,45.8.1,46.8.5,47.6s12-1.4,13,.9S41.9,54,41.1,51.6s18.2.2,18.6-2.7C59.8,47.8,58.2,46.8,54.7,45.9Z" style="fill:#928e31;stroke:#6c6120;stroke-linecap:round;stroke-linejoin:round"/><path d="M45.6,39.7c3.2-2,6.3-5,4.4-8.6a3.7,3.7,0,0,0-1.4-1.6c1.3-2.6,1.6-5,.1-6.5-4.8-5-11.2,1.3-11.2,1.3s9-8.9,1.9-10.1A6.6,6.6,0,0,0,32.5,17c1.6-4.6,2.7-11.2-5.8-9.9-6.2.9-7.2,4.6-6.6,8.1-1.4-1.9-3.3-3.2-5.7-2.2-6.2,2.4,2.7,12.6,2.7,12.6s-4.8-3.7-7.3,1.7a4.3,4.3,0,0,0,.2,3.3,3.3,3.3,0,0,0-1.3,2.1c-.3,1.8,3.6,4.5,6.5,6.3-4.4.6-.1.9.6,2.5s20.6,4,19.9,2.3,13.2.1,13.4-2S48,40.3,45.6,39.7Z" style="fill:#c3bf4f"/><path d="M54.7,45.9c4.4-2.7,8.8-6.9,6.2-11.9A6.3,6.3,0,0,0,59,31.7c1.7-3.5,2.2-6.8.1-9-6.7-6.8-15.6,1.9-15.6,1.9s12.5-12.3,2.7-14a9.2,9.2,0,0,0-9.6,3.8C38.9,8.1,40.3-1.1,28.5.7,19.9,2,18.5,7.1,19.4,12c-1.9-2.7-4.5-4.5-7.9-3.1-8.6,3.4,3.8,17.4,3.8,17.4S8.6,21.2,5.2,28.8a5.5,5.5,0,0,0,.2,4.5,4.6,4.6,0,0,0-1.7,2.9c-.5,2.5,4.9,6.3,8.9,8.8C6.6,45.8.1,46.8.5,47.6s12-1.4,13,.9S41.9,54,41.1,51.6s18.2.2,18.6-2.7C59.8,47.8,58.2,46.8,54.7,45.9Z" style="fill:none;stroke:#6c6120;stroke-linecap:round;stroke-linejoin:round"/><path d="M40.3,52.8H56.5s14.9-19.3,9.9-21.2-11.8,8.6-11.8,8.6,4-17.1-3.8-17.4-4.3,19.5-4.3,19.5S39.1,25.9,34.1,29.5C24.7,36.3,40.3,52.8,40.3,52.8Z" style="fill:#928e31;stroke:#6c6120;stroke-linecap:round;stroke-linejoin:round"/><path d="M43.2,48h11S64.4,34.9,61,33.6s-8.1,5.8-8.1,5.8,2.7-11.6-2.6-11.8-2.9,13.3-2.9,13.3-5-11.2-8.5-8.8C32.5,36.8,43.2,48,43.2,48Z" style="fill:#c3bf4f"/><path d="M40.3,52.8H56.5s14.9-19.3,9.9-21.2-11.8,8.6-11.8,8.6,4-17.1-3.8-17.4-4.3,19.5-4.3,19.5S39.1,25.9,34.1,29.5C24.7,36.3,40.3,52.8,40.3,52.8Z" style="fill:none;stroke:#6c6120;stroke-linecap:round;stroke-linejoin:round"/></g></g></svg>