<svg xmlns="http://www.w3.org/2000/svg" viewBox="0 0 99.1 58.7"><g id="Layer_2" data-name="Layer 2"><g id="Layer_1-2" data-name="Layer 1"><path d="M76.7,57.2h-.5L4.4,48.3a2.5,2.5,0,0,1-1.9-1.6c-.7-1.5-1.5-5.9-.6-7.5a.1.1,0,0,0,.1-.1L22.6,9.6a4.4,4.4,0,0,1,3.8-2.1H27l62.8,9L94.3,12a2.1,2.1,0,0,1,1-.4h.3A2.2,2.2,0,0,1,97,12.7c.9,1.8.5,7.4-.1,8.7L80.7,54.8a4.5,4.5,0,0,1-4,2.4Z" style="fill:#781f1a"/><path d="M26.4,9h.4l4.9.7L40.4,11l1.3.2,8.5,1.2,1.4.2,8.5,1.2,1.3.2L70,15.2l1.3.2,8.5,1.2,1.4.2,9.1,1.3,5-5c1.2.2.8,6.6.3,7.6L79.4,54.1a3.2,3.2,0,0,1-2.7,1.6h-.3L4.6,46.8c-1.2-.1-2-5.8-1.4-6.8L23.8,10.4A3.3,3.3,0,0,1,26.4,9M15,39.7h0m.3,0h0m.4,0h0m18.4,2.4h-.3l-2.4-.3,2.7.3m39.6,5.3h0M26.4,6h0a6.1,6.1,0,0,0-5.1,2.8L.7,38.3a.1.1,0,0,1-.1.1c-1.3,2.2-.3,7.1.6,9a3.7,3.7,0,0,0,3,2.4L76,58.7h.7a6.2,6.2,0,0,0,5.4-3.3L98.3,22c.8-1.6,1.2-7.7,0-10a3.7,3.7,0,0,0-2.5-1.9h-.5a3,3,0,0,0-2.1.9l-4,3.9-7.6-1.1-1.3-.2-8.6-1.2-1.3-.2L61.9,11l-1.4-.2L52,9.6l-1.3-.2L42.1,8.2,40.8,8,32.1,6.8l-4.9-.7Z" style="fill:#781f1a"/><path d="M23.8,4.4a3.5,3.5,0,0,1,3-1.4l4.9.7c-3.8,6.4-17.6,29.9-17.1,29.9l59.1,7.8L90.3,12.1l4.1.6c1.1.2,1.7,1,1.2,2L79.4,48.1a3.2,3.2,0,0,1-3,1.6L4.6,40.8a1.4,1.4,0,0,1-1.2-2.2Z" style="fill:#e05555"/><path d="M70,9.2,53.6,38.7l-8.3-1.1L61.4,8Z" style="fill:#f4ece4"/><path d="M60.1,7.8,43.7,37.4l-8.4-1.1L51.6,6.6Z" style="fill:#f4ece4"/><path d="M90.3,12.1,73.7,41.4l-8.6-1.2L81.2,10.8Z" style="fill:#f4ece4"/><path d="M79.8,10.6,63.5,40l-8.3-1.1L71.3,9.4Z" style="fill:#f4ece4"/><path d="M50.2,6.4,33.8,36.1,25.4,35,41.7,5.2Z" style="fill:#f4ece4"/><path d="M31.7,3.7,40.4,5,23.8,34.8l-9.2-1.2C14.1,33.6,27.9,10.1,31.7,3.7Z" style="fill:#f4ece4"/><path d="M81.2,10.8,65.1,40.2,63.5,40,79.8,10.6Z" style="fill:#ddcdc0"/><path d="M71.3,9.4,55.2,38.9l-1.6-.2L70,9.2Z" style="fill:#ddcdc0"/><path d="M61.4,8,45.3,37.6l-1.6-.2L60.1,7.8Z" style="fill:#ddcdc0"/><path d="M51.6,6.6,35.3,36.3l-1.5-.2L50.2,6.4Z" style="fill:#ddcdc0"/><path d="M41.7,5.2,25.4,35l-1.6-.2L40.4,5Z" style="fill:#ddcdc0"/><path d="M26.3,35.1s9-15.8,9.2-16.7-2.8-1.8-4-.3-9,16.5-9,16.5Z" style="fill:#51495e"/><path d="M46,37.7S54.9,21.8,55.1,21s-2.8-1.9-3.9-.4S42,37.2,42,37.2Z" style="fill:#51495e"/><path d="M56.1,39S65,23.2,65.2,22.4s-2.8-1.8-4-.4-9,16.5-9,16.5Z" style="fill:#51495e"/><path d="M26.4,3h.4l4.9.7L40.4,5l1.3.2,8.5,1.2,1.4.2,8.5,1.2,1.3.2L70,9.2l1.3.2,8.5,1.2,1.4.2,9.1,1.3,4.1.6c1.1.2,1.7,1,1.2,2L79.4,48.1a3.2,3.2,0,0,1-2.7,1.6h-.3L4.6,40.8a1.4,1.4,0,0,1-1.2-2.2L23.8,4.4A3.3,3.3,0,0,1,26.4,3M15,33.7h0m.3,0h0m.4,0h0m18.4,2.4h-.3l-2.4-.3,2.7.3m39.6,5.3h0M26.4,0a6.4,6.4,0,0,0-5.2,2.9L.9,37.1a4.5,4.5,0,0,0-.3,4.2,4.6,4.6,0,0,0,3.6,2.5L76,52.7h.7a6.2,6.2,0,0,0,5.4-3.3L98.3,16a4.7,4.7,0,0,0,0-4,4.9,4.9,0,0,0-3.4-2.3l-4.2-.6L81.6,7.8l-1.3-.2L71.7,6.4l-1.3-.2L61.9,5l-1.4-.2L52,3.6l-1.3-.2L42.1,2.2,40.8,2,32.1.8,27.2.1Z" style="fill:#c2331d"/></g></g></svg>