<svg xmlns="http://www.w3.org/2000/svg" viewBox="0 0 68.8 46"><g id="Layer_2" data-name="Layer 2"><g id="Layer_1-2" data-name="Layer 1"><path d="M32.3,46a.8.8,0,0,1-.8-.5L22.4,13c-.2-.4.1-.8.5-1a1,1,0,0,1,1,.6L33,45a.8.8,0,0,1-.5,1Z" style="fill:#554f50"/><path d="M34.2,46h0a.7.7,0,0,1-.8-.8,74.8,74.8,0,0,1,8.8-33.3.7.7,0,0,1,1-.3.6.6,0,0,1,.3,1A74.3,74.3,0,0,0,35,45.3.8.8,0,0,1,34.2,46Z" style="fill:#554f50"/><path d="M35.1,36.6h-.3a.7.7,0,0,1-.4-1A29.4,29.4,0,0,1,50.2,19.1a.8.8,0,0,1,1,.4.8.8,0,0,1-.4,1.1,28.8,28.8,0,0,0-15,15.5A.6.6,0,0,1,35.1,36.6Z" style="fill:#554f50"/><path d="M35.9,46h-.2a.8.8,0,0,1-.6-.9,20.4,20.4,0,0,1,6.2-9.7,37.9,37.9,0,0,1,9.9-6.6.8.8,0,0,1,1.1.3.8.8,0,0,1-.4,1.1,35.6,35.6,0,0,0-9.5,6.3c-2.3,2.2-4.8,5-5.7,8.9A.8.8,0,0,1,35.9,46Z" style="fill:#554f50"/><path d="M30,46a.8.8,0,0,1-.7-.5,6.9,6.9,0,0,0-.4-1c-.9-2.7-2.3-6.8-3.6-8.8A24.2,24.2,0,0,0,11.9,25.6a.9.9,0,0,1-.5-1c.2-.4.6-.7,1-.5A25.9,25.9,0,0,1,26.6,34.9,46.9,46.9,0,0,1,30.4,44a10.4,10.4,0,0,0,.4,1,.8.8,0,0,1-.5,1Z" style="fill:#554f50"/><path d="M27.6,40.1l-.5-.2a19,19,0,0,0-13.3-4.4,4.4,4.4,0,0,0-2.5.6.8.8,0,0,1-1.1-.3.8.8,0,0,1,.2-1,6.1,6.1,0,0,1,3.3-.9,21,21,0,0,1,14.4,4.8.8.8,0,0,1,.1,1.1A.9.9,0,0,1,27.6,40.1Z" style="fill:#554f50"/><path d="M36.7,28.4a.8.8,0,0,1-.8-.7c-.7-4.8-1.6-10.2-.1-15.3a.8.8,0,0,1,1-.5.7.7,0,0,1,.5.9c-1.4,4.8-.6,10,.1,14.7a.8.8,0,0,1-.6.9Z" style="fill:#554f50"/><path d="M37.9,41.5a.6.6,0,0,1-.6-.3.8.8,0,0,1,0-1.1,21.7,21.7,0,0,1,8.9-4.3,50,50,0,0,1,8.6-.8.7.7,0,0,1,.8.8.8.8,0,0,1-.7.8,58.3,58.3,0,0,0-8.4.7,20.5,20.5,0,0,0-8.1,4Z" style="fill:#554f50"/><path d="M8.8,39.3a5.8,5.8,0,0,1-4.6-2.2,4.7,4.7,0,0,1-.5-3.5,3.5,3.5,0,0,1,1.8-2.3h.3c.3-.2.6-.3.7-.5s.1-.1,0-.3L6,29.9H4.2a4.1,4.1,0,0,1-2.8-1.8,6.7,6.7,0,0,1-.7-5c.7-2.5,3.1-4.2,5.3-5.7a5.2,5.2,0,0,1,2.3-.5,15.4,15.4,0,0,1,5.8,1.4c-1.6-3-2-5.3-1.2-6.7A3.1,3.1,0,0,1,15.8,10a9.1,9.1,0,0,1,6,2.8,17.4,17.4,0,0,1,.4-6c.3-1.5,1.2-3.5,3-4l.9-.2c2,0,3.7,2,4.4,3.9l.6,2.2a16,16,0,0,0,.5,2.1,15.7,15.7,0,0,1,4.2-9.1A3.5,3.5,0,0,1,37.7.5H38c1.7,0,2.7,2,2.9,4a30.9,30.9,0,0,1,.2,5.3,13.2,13.2,0,0,1,3.8-4,7.1,7.1,0,0,1,3.5-1.1h.7a5,5,0,0,1,3.3,2.1,7.4,7.4,0,0,1,1.2,5.4,13.5,13.5,0,0,1-2,4.4,19.5,19.5,0,0,1,10.2-2.9H62a7.1,7.1,0,0,1,3.1.6c2.9,1.4,3.6,4.6,3,7.2s-2.5,5.3-5.6,5.3c-1.5,0-2.2.3-2.3.8s.5,1.1,1.3,1.7l.5.4A5.2,5.2,0,0,1,63.8,34a5.3,5.3,0,0,1-2.2,4.1,5,5,0,0,1-2.7.7,5.5,5.5,0,0,1-5.2-3.5c-.1-.1-.1-.3-.2-.5a3.7,3.7,0,0,0-.5-1.1l-.6-.2h-.3v.6a1.6,1.6,0,0,1-1.8,1.3,3,3,0,0,1-1.6-.5,7.6,7.6,0,0,1-1.1-1.4l-.9-1A2.5,2.5,0,0,0,45,32a3,3,0,0,0-2.7,1.6c-.9,2.3-1.4,3.3-4.1,3.3h-.3a21.4,21.4,0,0,1-7.6-1.5,8,8,0,0,1-2-1.5c-.6-.6-1.3-1.3-1.8-1.3s-.4.4-.4.8v.4a4.7,4.7,0,0,1-.4,1.6,1.8,1.8,0,0,1-1.6.8,3.4,3.4,0,0,1-1.7-.5l-.9-.7a6.1,6.1,0,0,0-1.4-1h-.8c-1.4,0-2.8,1.3-4,2.3v.2a11.4,11.4,0,0,1-5.3,2.8Z" style="fill:#928e31"/><path d="M38,1c1.5,0,2.3,2,2.4,3.5a41.2,41.2,0,0,1,0,8.6,7.8,7.8,0,0,0-.2,1.4,7.8,7.8,0,0,1,.2-1.4,10.5,10.5,0,0,1,4.8-6.8,6.5,6.5,0,0,1,3.2-1.1H49c3,.4,4.6,4,4.1,6.9s-2.7,5.4-4.7,7.6a19.3,19.3,0,0,1,13.4-5.5H62a5.8,5.8,0,0,1,2.9.6c5,2.3,3.1,11.4-2.4,11.5-1.1,0-2.5.2-2.8,1.2s1.1,1.9,2,2.6,2,5.8-.4,7.4a4.2,4.2,0,0,1-2.4.7,5.2,5.2,0,0,1-4.8-3.1,4.1,4.1,0,0,0-.8-1.9,1.2,1.2,0,0,0-.9-.3.6.6,0,0,0-.7.5,1.3,1.3,0,0,0-.1.6,1.2,1.2,0,0,1-1.3.9,1.6,1.6,0,0,1-1.2-.4c-.9-.6-1.3-1.7-2.1-2.4a2.9,2.9,0,0,0-2-.7,3.3,3.3,0,0,0-3.1,1.9c-1,2.3-1.4,3-3.7,3h-.3A20.7,20.7,0,0,1,30.5,35c-1.3-.5-2.8-2.9-4-2.9h0c-.5,0-.9.7-.9,1.3a4.7,4.7,0,0,1-.3,1.7,1.4,1.4,0,0,1-1.2.6,3.3,3.3,0,0,1-1.4-.4,10.1,10.1,0,0,0-2.5-1.7l-.9-.2c-1.6,0-3.2,1.4-4.5,2.6a9.8,9.8,0,0,1-5,2.7h-1a5.2,5.2,0,0,1-4.2-2c-1.1-1.6-.6-4.2,1.1-5s1.1-.4,1.3-.9-.3-1.2-.9-1.4a5.8,5.8,0,0,0-1.9-.3c-2.7-.4-3.7-3.9-3-6.2s3.1-4.1,5.1-5.3a3.1,3.1,0,0,1,2-.5,18,18,0,0,1,7,2c-3.9-6.4-2.3-8.7.5-8.7s6.2,2.1,7.1,5.1h0a17.1,17.1,0,0,1-.2-8.7c.3-1.5,1.1-3.2,2.6-3.7h.8c1.7,0,3.3,1.8,3.9,3.6s.8,4.3,2,6A14.9,14.9,0,0,1,36.1,2.1,3.2,3.2,0,0,1,37.8,1H38m0-1h-.3a3.6,3.6,0,0,0-2.3,1.4,16,16,0,0,0-3.9,7.1A16,16,0,0,0,31,6.4c-.7-2.1-2.6-4.3-4.9-4.3l-1,.2c-1.7.5-2.8,2-3.4,4.4a20.4,20.4,0,0,0-.5,4.9,9.2,9.2,0,0,0-5.4-2.1,3.5,3.5,0,0,0-3.3,1.7q-1.2,2.1.6,6a14.2,14.2,0,0,0-4.8-1,5.3,5.3,0,0,0-2.6.6C3.4,18.3,1,20.1.2,22.7A7,7,0,0,0,1,28.2a4.4,4.4,0,0,0,3.1,2H5.8a.2.2,0,0,1,.2.2H5.6l-.3.2a4,4,0,0,0-2.1,2.6,4.6,4.6,0,0,0,.6,3.8,5.8,5.8,0,0,0,5,2.5H9.9a11.6,11.6,0,0,0,5.6-2.9v-.2c1.2-1,2.5-2.2,3.7-2.2h.6a4.7,4.7,0,0,1,1.2.9l1,.7a3.6,3.6,0,0,0,2,.6,2.5,2.5,0,0,0,2.1-1.1,5.8,5.8,0,0,0,.4-1.8v-.7A7.5,7.5,0,0,1,28,34.3a9.8,9.8,0,0,0,2.1,1.6,22.5,22.5,0,0,0,7.8,1.5h.3c3,0,3.6-1.2,4.6-3.6A2.3,2.3,0,0,1,45,32.5a2.4,2.4,0,0,1,1.4.5l.8.9a5.7,5.7,0,0,0,1.2,1.5,3.1,3.1,0,0,0,1.9.6,2.2,2.2,0,0,0,2.3-1.8V34a2.3,2.3,0,0,1,.4,1l.2.5a5.9,5.9,0,0,0,5.7,3.8,6.1,6.1,0,0,0,3-.8A5.8,5.8,0,0,0,64.3,34a5.7,5.7,0,0,0-2-4.6l-.5-.4c-.5-.3-1.2-.9-1.1-1.2s.2-.4,1.8-.4c3.4-.1,5.5-2.9,6.1-5.7s-.2-6.3-3.2-7.7a7.4,7.4,0,0,0-3.4-.7h-.2A19.3,19.3,0,0,0,53,15.4a10.6,10.6,0,0,0,1-3,7.8,7.8,0,0,0-1.2-5.8,5.3,5.3,0,0,0-3.7-2.3h-.7a7,7,0,0,0-3.7,1.2,11.4,11.4,0,0,0-3.1,2.7,23,23,0,0,0-.2-3.7C41.2,2.2,40.1,0,38,0Z" style="fill:#6c6120"/><path d="M64.9,14.9a5.8,5.8,0,0,0-2.9-.6,19.7,19.7,0,0,0-13.6,5.5c2-2.2,4.1-4.6,4.7-7.6S52,5.7,49,5.3a5.8,5.8,0,0,0-3.8,1,10.1,10.1,0,0,0-4.8,6.9,42.2,42.2,0,0,0,0-8.7c-.1-1.6-1-3.7-2.6-3.5a3.2,3.2,0,0,0-1.7,1.1A14.9,14.9,0,0,0,32,12.7c-1.2-1.7-1.3-4-2-6s-2.6-4.1-4.7-3.5S23,5.4,22.7,6.9a16.4,16.4,0,0,0,.3,8.8c-1.9-6.2-15.3-8.9-7.7,3.5-2.2-1-6.8-3-9-1.5s-4.4,3-5.1,5.3.3,5.8,3,6.2a5.8,5.8,0,0,1,1.9.3A1.2,1.2,0,0,1,7,30.9a4.1,4.1,0,0,0,1.6.2,6.9,6.9,0,0,0,4.1-1.7c1.1-1.1,1.8-2.4,2.8-3.5s2.7-1.8,4.1-1.1,1.2,1.3,1.9,1.9a4.8,4.8,0,0,0,5.1,1,4.7,4.7,0,0,0,2.9-4.4c0-1-.3-2.1.1-3a3.3,3.3,0,0,1,3.2-1.4A4.5,4.5,0,0,1,37,21.8c.2.7.1,1.5.3,2.3.4,2.5,3.9,4.1,5.9,2.5a9.6,9.6,0,0,0,1.7-1.8,6,6,0,0,1,3.9-1.9,5.5,5.5,0,0,0,3.1,4.3,2.1,2.1,0,0,0,1.9.2,2.7,2.7,0,0,0,1.6-1.7,4.4,4.4,0,0,1,1.5-2c.7-.4,1.9-.1,2,.7s-1.1,1.6-.8,2.5.8.8,1.4.9h.2v-.3c.3-1,1.7-1.2,2.8-1.2C68,26.3,69.9,17.2,64.9,14.9Z" style="fill:#c3bf4f"/></g></g></svg>