<svg xmlns="http://www.w3.org/2000/svg" viewBox="0 0 125.6 77.7"><g style="isolation:isolate"><g id="Layer_2" data-name="Layer 2"><g id="Layer_1-2" data-name="Layer 1"><rect x="4.3" y="10.1" width="8.9" height="9.32" transform="translate(-7.9 18.8) rotate(-72.7)" style="fill:#e6e6e6"/><path d="M10.9,24.3l9.9,3.1,5.1-16.2-10-3A5.7,5.7,0,0,0,8.7,12L7.1,17A5.8,5.8,0,0,0,10.9,24.3Z" style="fill:#6ab3b9"/><rect x="60" y="-18" width="23.3" height="104.71" rx="10.3" transform="translate(17.6 92.6) rotate(-72.7)" style="fill:#ffeb81"/><path d="M34.9,10.7l80.4,25a10.2,10.2,0,0,1,6.8,12.8V49L22,17.9v-.4A10.2,10.2,0,0,1,34.9,10.7Z" style="fill:#fff;opacity:0.1;mix-blend-mode:screen"/><path d="M69.8,49.8l.9.2,2.4-5.9,6,1.7S83,49,89.8,47.9L89,50.3a51.4,51.4,0,0,1-3.5,8.4c-2,3.8-4.7,9.9-4.1,14.1.2,1.4-1.2,2.3-2.8,1.8L66.5,70.8c-1.5-.4-2.2-1.9-1.5-2.9C67.8,64.1,73.3,55.3,69.8,49.8Z" style="fill:#e05555"/><path d="M26.6,3.5l23.6,7.3-3,9.9,39,12.1,3-9.9,2.5.8a10.2,10.2,0,0,1,6.7,12.8L94.3,49.7a10.2,10.2,0,0,1-12.8,6.8l-58-18L13.7,10.2A10.3,10.3,0,0,1,26.6,3.5Z" style="fill:#e05555"/><rect x="74.8" y="37.7" width="7.6" height="3.61" transform="translate(17.6 102.9) rotate(-72.7)" style="fill:#6ab3b9"/><rect x="67" y="35.2" width="7.6" height="3.61" transform="translate(14.4 93.7) rotate(-72.7)" style="fill:#6ab3b9"/><rect x="59.2" y="32.8" width="7.6" height="3.61" transform="translate(11.3 84.5) rotate(-72.7)" style="fill:#6ab3b9"/><rect x="51.4" y="30.4" width="7.6" height="3.61" transform="matrix(0.3, -0.95, 0.95, 0.3, 8.1, 75.39)" style="fill:#6ab3b9"/><path d="M26.6,3.5l23.6,7.3-3,9.9,39,12.1,3-9.9,2.5.8a10.2,10.2,0,0,1,6.7,12.8l-2.6,8.3L17.3,20.4,13.7,10.2A10.3,10.3,0,0,1,26.6,3.5Z" style="fill:#fff;opacity:0.1;mix-blend-mode:screen"/><path d="M71,45.4a7.1,7.1,0,0,0,.3,13.5,7.1,7.1,0,0,0,7.6-2.3A8.5,8.5,0,1,1,71,45.4Z" style="fill:#e05555"/><path d="M23.5,3a8.7,8.7,0,0,1,3.1.5l23.6,7.3L48.9,15l39,12.2,1.3-4.3,2.5.8a10.2,10.2,0,0,1,6.7,6.7l16.9,5.3a10.2,10.2,0,0,1,6.8,12.8l-.8,2.7a10.4,10.4,0,0,1-9.8,7.2,11.2,11.2,0,0,1-3.1-.5L92.6,53a10.2,10.2,0,0,1-6.1,3.8,17.4,17.4,0,0,0-1,1.9c-2,3.8-4.7,9.9-4.1,14.1.2,1.1-.7,1.9-1.9,1.9h-.9L66.5,70.8c-1.5-.4-2.2-1.9-1.5-2.9a50.6,50.6,0,0,0,3.6-5.8h-.3a8.4,8.4,0,0,1-5.6-10.6,6.4,6.4,0,0,1,.2-.7L23.5,38.5,19.5,27l-8.6-2.7a5.9,5.9,0,0,1-4.1-5.5L3,17.6,5.6,9.2l3.9,1.2a5.5,5.5,0,0,1,4.7-2.5h.6A10.3,10.3,0,0,1,23.5,3M70.1,58.4a13.5,13.5,0,0,0,.8-5.2l-4.6-1.4a6.8,6.8,0,0,0,3.8,6.6M23.5,0h0A13.6,13.6,0,0,0,13.2,4.9a8.7,8.7,0,0,0-4.6,2L6.5,6.3H5.6A2.9,2.9,0,0,0,2.8,8.3L.1,16.7A3.6,3.6,0,0,0,.3,19a3.3,3.3,0,0,0,1.8,1.5l2.1.6A8.7,8.7,0,0,0,10,27.2l7.2,2.2,3.5,10.1a3,3,0,0,0,1.9,1.9L59.4,52.8a11.4,11.4,0,0,0,5,10.7l-1.8,2.7a4.3,4.3,0,0,0-.6,4.1,5.1,5.1,0,0,0,3.6,3.4l12.1,3.8,1.8.2A5.2,5.2,0,0,0,83.4,76a4.8,4.8,0,0,0,1-3.7c-.4-2.5,1-6.9,3.7-12.2a3,3,0,0,0,.4-.8,12,12,0,0,0,5-2.9l14,4.4a13.4,13.4,0,0,0,4,.6,13.1,13.1,0,0,0,12.6-9.3l.9-2.7a13.4,13.4,0,0,0-8.8-16.6L100.7,28a13.4,13.4,0,0,0-8.1-7.2l-2.5-.7-.9-.2A3.1,3.1,0,0,0,86.4,22l-.5,1.4L52.7,13.1l.4-1.4a3.6,3.6,0,0,0-.2-2.3A2.8,2.8,0,0,0,51.1,8L27.4.6A12.7,12.7,0,0,0,23.5,0Z" style="fill:#781f1a"/></g></g></g></svg>