<svg xmlns="http://www.w3.org/2000/svg" viewBox="0 0 40.8 35"><g id="Layer_2" data-name="Layer 2"><g id="Layer_1-2" data-name="Layer 1"><path d="M30,34.5l-.4-.2a1.2,1.2,0,0,1-.8-.4.6.6,0,0,1-.1-.4v-.2H17.2a1.1,1.1,0,0,1-.2.7.5.5,0,0,1-.5.3h-.7a.9.9,0,0,1-.6-.3c-.3-.4-.1-1.2-.1-1.3a1.2,1.2,0,0,1,1.2-.9h.2l-2.7-1.6a5.5,5.5,0,0,1-1.8.2c-4.3,0-8.9-3.4-10.5-7.7l-.3-.2a1.8,1.8,0,0,1-.5-.7,1.5,1.5,0,0,1,.2-1.7.9.9,0,0,1,.7-.3,1.2,1.2,0,0,1,.9.5,2.7,2.7,0,0,1,.6,1.2h.1c.9,0,1.4-1.7,1.8-2.9s.3-.9.4-1.2a4.9,4.9,0,0,1,2.4-2.3,6.4,6.4,0,0,1,1-3.3,5.6,5.6,0,0,1,4.8-3h.1A6.2,6.2,0,0,1,18.8,12l.2.3a6.2,6.2,0,0,1,3.5-1H23a7.9,7.9,0,0,1,6.2,4.5,8.7,8.7,0,0,1,.7,1.7h0a6,6,0,0,1,.2,2.3,9.9,9.9,0,0,1,5,2.2,6.6,6.6,0,0,0-.7-3.3c-.9-1.9-2.7-2.9-4.6-4.1l-.9-.6c-2-1.2-8.4-5.8-6.7-12a.8.8,0,0,1,.8-.6.8.8,0,0,1,.7.3.9.9,0,0,1,.3.7,8.4,8.4,0,0,0,3.8,7.2,22.1,22.1,0,0,0,3.4,1.8A21.4,21.4,0,0,1,35,13.8c4.2,3.2,5.6,9,3.3,13.1,0,.1-.1.2-.1.3a11.5,11.5,0,0,1-.1,1.9,4.2,4.2,0,0,1-1,2,6.4,6.4,0,0,1-3.2,2v.4a.9.9,0,0,1-.6.7H30Z" style="fill:#f2b579"/><path d="M23,2a.5.5,0,0,1,.5.5,8.9,8.9,0,0,0,4,7.6c2.3,1.6,5,2.4,7.2,4.1,3.9,3,5.4,8.5,3.2,12.5l-.3.3a6.7,6.7,0,0,1,0,2,2.6,2.6,0,0,1-.9,1.8h0a6.2,6.2,0,0,1-3.8,2h.3c.3.3.3.7,0,.8H30.8l-.6.2H30a.2.2,0,0,1-.2-.2h-.2c-.3,0-.5-.2-.4-.4s-.1-.2,0-.3.3-.2.5-.2H16.9c-.1.1-.2.1-.3.3s.1.4,0,.6h-.3a.1.1,0,0,1-.1-.1h-.4c-.4,0-.3-.7-.2-1a.8.8,0,0,1,.7-.5h.3l1-.4c-.8-.5-1.8-1.2-3.7-2.2a5.8,5.8,0,0,1-1.9.2c-4.2,0-8.6-3.4-10.1-7.6h0l-.4-.2-.4-.5c-.1-.4-.2-.8.1-1.1a.5.5,0,0,1,.4-.2.9.9,0,0,1,.6.3,1.9,1.9,0,0,1,.3,1.3h.7c1.6,0,2.2-3.3,2.7-4.4a4.3,4.3,0,0,1,2.4-2.2A6.7,6.7,0,0,1,9.2,12a5.3,5.3,0,0,1,4.4-2.7h.1a5.8,5.8,0,0,1,4.7,3l.3.7a7.1,7.1,0,0,1,3.8-1.2H23A7.8,7.8,0,0,1,28.8,16l.6,1.6h0a6,6,0,0,1,.2,2.6,10.6,10.6,0,0,1,5.7,2.6c.1.1.2.1.2.2a7.1,7.1,0,0,0-.6-4.5c-1.2-2.4-3.6-3.5-5.8-4.9C25.2,11.2,21.4,7,22.7,2.3A.3.3,0,0,1,23,2m0-1a1.4,1.4,0,0,0-1.3,1c-.8,3,.1,6.2,2.6,9L23,10.8h-.5a8.1,8.1,0,0,0-3.4.8,6.5,6.5,0,0,0-5.4-3.3h-.1a6.3,6.3,0,0,0-5.3,3.2,7.5,7.5,0,0,0-1,3.3A5.3,5.3,0,0,0,5,17.2a7.3,7.3,0,0,0-.5,1.2,8,8,0,0,1-1.1,2.5,3.1,3.1,0,0,0-.5-1,2.2,2.2,0,0,0-1.3-.6,1.6,1.6,0,0,0-1.1.5A1.8,1.8,0,0,0,.2,22l.7.9h.2c1.7,4.5,6.5,7.9,10.9,7.9h1.8l1.5.8a1.4,1.4,0,0,0-.7,1,1.8,1.8,0,0,0,.2,1.7,1.1,1.1,0,0,0,1,.5h.7a1.1,1.1,0,0,0,.9-.5.6.6,0,0,0,.2-.5H28.3a.6.6,0,0,0,.1.4,1.7,1.7,0,0,0,1,.6l.6.2h.5l.4-.2h2.5a1.6,1.6,0,0,0,1-1.1v-.2a6.7,6.7,0,0,0,3.1-1.9,5.5,5.5,0,0,0,1.1-2.3,11.5,11.5,0,0,0,.1-1.9.1.1,0,0,1,.1-.1c2.4-4.4.9-10.5-3.5-13.8a17.4,17.4,0,0,0-3.9-2.3,25.7,25.7,0,0,1-3.3-1.8,7.8,7.8,0,0,1-3.6-6.8,1.3,1.3,0,0,0-.4-1A1.6,1.6,0,0,0,23,1Zm7.6,18.5a6.8,6.8,0,0,0-.2-2h0a10.8,10.8,0,0,0-.8-1.9l-.2-.5.2.2c1.8,1,3.5,2.1,4.4,3.9a6.6,6.6,0,0,1,.6,2,10.9,10.9,0,0,0-4-1.6Z" style="fill:#b25b2f"/><path d="M30.9,33.4h-.5a1,1,0,0,1-.7-.4.6.6,0,0,1-.1-.4c0-.1,0-.1-.1-.2H18a.6.6,0,0,1-.1.7.5.5,0,0,1-.5.3h-.7a.9.9,0,0,1-.6-.3c-.3-.4-.1-1.2-.1-1.3a1.1,1.1,0,0,1,1.2-.9h.2l-2.7-1.6a5.5,5.5,0,0,1-1.8.2C8.6,29.4,4,26,2.4,21.6H2.1a1.8,1.8,0,0,1-.5-.7,1.3,1.3,0,0,1,.2-1.7.9.9,0,0,1,.7-.3,1.2,1.2,0,0,1,.9.5,1.8,1.8,0,0,1,.5,1.2H4c.9,0,1.5-1.8,1.9-2.9s.3-.9.4-1.2A5.6,5.6,0,0,1,8.7,14a6.3,6.3,0,0,1,1-3.2,5.7,5.7,0,0,1,4.8-3.1h.1A6.7,6.7,0,0,1,19.7,11c0,.1.1.2.1.3a6.5,6.5,0,0,1,3.6-1h.5a8,8,0,0,1,6.2,4.4,13.4,13.4,0,0,1,.7,1.8h0a6,6,0,0,1,.2,2.3,9.9,9.9,0,0,1,5,2.2,6.6,6.6,0,0,0-.7-3.3c-1-1.9-2.7-3-4.6-4.1l-.9-.6c-2-1.2-8.4-5.8-6.7-12a.8.8,0,0,1,.8-.6.8.8,0,0,1,.7.3.9.9,0,0,1,.3.7,8.4,8.4,0,0,0,3.8,7.2A21.1,21.1,0,0,0,32,10.5a19,19,0,0,1,3.9,2.3c4.2,3.2,5.6,9,3.3,13.1,0,.1-.1.2-.2.3a6,6,0,0,1,0,1.9,4.2,4.2,0,0,1-1,2,6.4,6.4,0,0,1-3.2,2v.4a1.1,1.1,0,0,1-.6.7H30.9Z" style="fill:#f4b876"/><path d="M23.9,1c.2,0,.5.2.5.4-.3,3.1,1.5,5.9,4,7.7s5,2.4,7.2,4.1c3.9,3,5.4,8.5,3.2,12.5l-.3.3a6.7,6.7,0,0,1,0,2,4.4,4.4,0,0,1-.9,1.8h0a6.2,6.2,0,0,1-3.8,2h.3c.3.3.3.7-.1.8H31.7l-.6.2h-.6c-.3,0-.5-.2-.4-.4s-.1-.2-.1-.3l.6-.2H17.7c-.1.1-.2.1-.2.3s.1.4,0,.6h-.4a.1.1,0,0,0-.1.1h-.3c-.4,0-.3-.7-.2-1s.4-.5.7-.5h.3l.9-.4a28.3,28.3,0,0,0-3.6-2.2l-1.9.2c-4.2,0-8.6-3.4-10.1-7.6h0l-.4-.2L2,20.6c-.1-.4-.2-.8.1-1.1a.5.5,0,0,1,.4-.2.5.5,0,0,1,.5.3,1.5,1.5,0,0,1,.4,1.2H4c1.7,0,2.3-3.3,2.8-4.4a4.1,4.1,0,0,1,2.3-2.2,6.7,6.7,0,0,1,1-3.4,5.4,5.4,0,0,1,4.4-2.8h.1a6.1,6.1,0,0,1,4.7,3.1l.3.7a7.1,7.1,0,0,1,3.8-1.2h.4A7.5,7.5,0,0,1,29.6,15a7.7,7.7,0,0,1,.7,1.6h0a8,8,0,0,1,.2,2.6,9.9,9.9,0,0,1,5.7,2.6l.2.2a6.6,6.6,0,0,0-.7-4.5c-1.1-2.4-3.5-3.5-5.7-4.9C26,10.2,22.2,6,23.6,1.2l.3-.2m0-1a1.4,1.4,0,0,0-1.3,1c-.8,3,.1,6.2,2.6,9l-1.3-.2h-.5a6.8,6.8,0,0,0-3.4.8,6.9,6.9,0,0,0-5.4-3.4h-.1a6.4,6.4,0,0,0-5.3,3.3,7.5,7.5,0,0,0-1,3.2,5.5,5.5,0,0,0-2.3,2.5,7.3,7.3,0,0,0-.5,1.2,8,8,0,0,1-1.1,2.5,3.1,3.1,0,0,0-.5-1,2.5,2.5,0,0,0-1.3-.6,1.6,1.6,0,0,0-1.1.5A1.8,1.8,0,0,0,1.1,21l.7.9H2c1.7,4.5,6.5,7.9,10.9,7.9a4.7,4.7,0,0,0,1.7-.2l1.6.9a1.4,1.4,0,0,0-.7,1,1.8,1.8,0,0,0,.2,1.7,1.4,1.4,0,0,0,1,.5h.7a1.1,1.1,0,0,0,.9-.5c.1-.2.2-.3.2-.5H29.1c.1.1.1.2.2.4a1.7,1.7,0,0,0,1,.6h1l.5-.2h2.5a1.6,1.6,0,0,0,1-1.1v-.2a6,6,0,0,0,3-1.9,4.6,4.6,0,0,0,1.2-2.3,11.5,11.5,0,0,0,.1-1.9h0c2.5-4.4,1-10.5-3.4-13.8a17.4,17.4,0,0,0-3.9-2.3A25.7,25.7,0,0,1,29,8.3a7.8,7.8,0,0,1-3.6-6.8,1.3,1.3,0,0,0-.4-1A1.6,1.6,0,0,0,23.9,0Zm7.6,18.5a12.3,12.3,0,0,0-.2-2h-.1a6.2,6.2,0,0,0-.7-1.9l-.2-.5.2.2A10.3,10.3,0,0,1,34.9,18a8.3,8.3,0,0,1,.6,2.1,9.9,9.9,0,0,0-4-1.6Z" style="fill:#e28049"/><path d="M37.6,26.9a2.7,2.7,0,0,1-2-1.2,2.2,2.2,0,0,1-.1-2.2,6.7,6.7,0,0,0-.2-5.7c-1-1.9-2.7-3-4.6-4.1l-.9-.6c-2-1.2-8.4-5.8-6.7-12a.8.8,0,0,1,.8-.6.8.8,0,0,1,.7.3.9.9,0,0,1,.3.7,8.4,8.4,0,0,0,3.8,7.2A21.1,21.1,0,0,0,32,10.5a19,19,0,0,1,3.9,2.3c4.2,3.2,5.6,9,3.3,13.1a1.6,1.6,0,0,1-1.6,1Z" style="fill:#f4b876"/><path d="M23.9,1c.2,0,.5.2.5.4-.3,3.1,1.5,5.9,4,7.7s5,2.4,7.2,4.1c3.9,3,5.4,8.5,3.2,12.5a1.3,1.3,0,0,1-1.2.7,2,2,0,0,1-1.7-2.7,6.6,6.6,0,0,0-.2-6.1c-1.1-2.4-3.5-3.5-5.7-4.9C26,10.2,22.2,6,23.6,1.2l.3-.2m0-1a1.4,1.4,0,0,0-1.3,1c-1.2,4.4,1.4,9.1,6.9,12.6l1,.6A10.3,10.3,0,0,1,34.9,18a5.9,5.9,0,0,1,.1,5.2,3.1,3.1,0,0,0,.2,2.8,2.9,2.9,0,0,0,2.4,1.4,2.1,2.1,0,0,0,2-1.2c2.5-4.4,1-10.5-3.4-13.8a17.4,17.4,0,0,0-3.9-2.3A25.7,25.7,0,0,1,29,8.3a7.8,7.8,0,0,1-3.6-6.8,1.3,1.3,0,0,0-.4-1A1.6,1.6,0,0,0,23.9,0Z" style="fill:#c1683d"/><path d="M23.9,32.3h-3L19.3,32a8.5,8.5,0,0,1-1.5-.9,30.2,30.2,0,0,0-4.5-2.6c-.3-.2-.6-.4-.6-.8a2.7,2.7,0,0,1,1-2.3l1.1-1.1.7-.3.7-.3,1.6-.3,1.9-.4.4-.2h.1a12.2,12.2,0,0,0,1.9-1.2A8,8,0,0,1,24,20.2a10,10,0,0,1,4.5-1.5h.7a10.7,10.7,0,0,1,7.3,2.8A7.3,7.3,0,0,1,39,28.1a4.2,4.2,0,0,1-1,2,6.6,6.6,0,0,1-4.9,2.2H23.9Z" style="fill:#f4b876"/><path d="M29.2,19.2a10.4,10.4,0,0,1,7,2.7A6.7,6.7,0,0,1,38.5,28a4.4,4.4,0,0,1-.9,1.8h0a5.9,5.9,0,0,1-4.5,2H20.9l-1.4-.2c-1.1-.5-1.9-1.5-5.9-3.4-.9-.4-.3-1.5.4-2.4l1.1-.9.6-.4h0l.7-.2h0l3.4-.7a.1.1,0,0,0,.1-.1l.5-.2h.1c1.3-.7,2.4-1.8,3.8-2.5a10,10,0,0,1,4.2-1.4h.7m0-1h-.8a10.4,10.4,0,0,0-4.6,1.5,10.1,10.1,0,0,0-2,1.4L20,22.3h-.1l-.3.2h-.1l-1.8.4-1.5.3h-.1l-.7.3h-.1l-.8.4L13.3,25a3.8,3.8,0,0,0-1.1,2.8,1.8,1.8,0,0,0,.9,1.2,22.7,22.7,0,0,1,4.4,2.5,7,7,0,0,0,1.7.9,3.8,3.8,0,0,0,1.6.3H33.1a6.8,6.8,0,0,0,5.2-2.3,4.6,4.6,0,0,0,1.2-2.3,7.7,7.7,0,0,0-2.6-7.1,11.8,11.8,0,0,0-7.7-2.9Z" style="fill:#c1683d"/><path d="M30.9,33.4h-.5a1,1,0,0,1-.7-.4.6.6,0,0,1-.1-.4.5.5,0,0,1,0-.5.9.9,0,0,1,1-.6h.1l1.3-.2.7-.4h.5a.7.7,0,0,1,.7.6H34l.4.2a1.1,1.1,0,0,1,.4,1,1.1,1.1,0,0,1-.6.7H30.9Z" style="fill:#f4b876"/><path d="M33.2,31.1a.2.2,0,0,1,.2.2,1,1,0,0,0,.4.5h.3c.3.3.3.7-.1.8H31.7l-.6.2h-.6c-.3,0-.5-.2-.4-.4s-.1-.2-.1-.3l.6-.2h.2l1.2-.2,1.1-.5h.1m0-1h-.4l-.4.2-.4.3a3.6,3.6,0,0,0-1.4.2h0c-1,0-1.4.5-1.5.9a1.1,1.1,0,0,0,0,.8,1.4,1.4,0,0,0,.2.6,1.7,1.7,0,0,0,1,.6h1l.5-.2h2.5a1.6,1.6,0,0,0,1-1.1,1.8,1.8,0,0,0-.6-1.5l-.4-.2a1.1,1.1,0,0,0-1.1-.8Z" style="fill:#c1683d"/><path d="M19.1,32.3H17.5a1,1,0,0,1-.5-.4.4.4,0,0,1-.1-.3c-.1-.2,0-.3,0-.5a.5.5,0,0,1,.5-.3l1.2-.5a2.4,2.4,0,0,1,1.1-.6h.8c.9,0,1.5.3,1.7.9a.9.9,0,0,1-.1,1c-.2.4-.8.8-3,.8Z" style="fill:#f4b876"/><path d="M20.5,30.1a1.4,1.4,0,0,1,1.3.6c.4.9-1.3,1.1-2.7,1.1H17.5a.2.2,0,0,1-.1-.3c-.1-.1,0-.2.1-.2s1.5-.9,2.4-1.1h.6m0-1h-.9a5.2,5.2,0,0,0-1.3.6,3.1,3.1,0,0,1-1,.5,1.6,1.6,0,0,0-.8.6.9.9,0,0,0-.1.7,1.3,1.3,0,0,0,.1.6,1.7,1.7,0,0,0,1,.6h1.6c1.9,0,3-.3,3.5-1a1.6,1.6,0,0,0,.1-1.5,2.2,2.2,0,0,0-2.2-1.2Z" style="fill:#c1683d"/><path d="M16.7,33.3a.9.9,0,0,1-.6-.3c-.3-.4-.1-1.2-.1-1.3a1.1,1.1,0,0,1,1.2-.9H18a.6.6,0,0,1,.4.8.7.7,0,0,1-.4.5h0a.8.8,0,0,1-.1.8.5.5,0,0,1-.5.3h-.7Z" style="fill:#f4b876"/><path d="M17.3,31.3h.5c.1.1.2.2.1.3s-.3.2-.4.5.1.4,0,.6h-.4a.1.1,0,0,0-.1.1h-.3c-.4,0-.3-.7-.2-1s.4-.5.7-.5h.1m0-1h-.1a1.7,1.7,0,0,0-1.7,1.3,1.8,1.8,0,0,0,.2,1.7,1.4,1.4,0,0,0,1,.5h.7a1.1,1.1,0,0,0,.9-.5,1.3,1.3,0,0,0,.3-.9l.3-.5a1.2,1.2,0,0,0-.7-1.5Z" style="fill:#c1683d"/><path d="M14.4,19.7a5.8,5.8,0,0,1-4.5-2c-1.9-2.2-1.3-5.1-.2-6.9a5.7,5.7,0,0,1,4.8-3.1h.1A6.7,6.7,0,0,1,19.7,11l.6,1.4h0a5.3,5.3,0,0,1,.1,3.3.7.7,0,0,1-.7.4h-.5c.3.6.5,1,.2,1.4a5.3,5.3,0,0,1-2.5,1.7A7.4,7.4,0,0,1,14.4,19.7Z" style="fill:#f4b876"/><path d="M14.5,8.2h.1a6.1,6.1,0,0,1,4.7,3.1,4.3,4.3,0,0,1,.5,1.2h0a4.5,4.5,0,0,1,.1,3h-.2l-1-.3h-.2c-.1.3.7,1.4.5,1.7a6.3,6.3,0,0,1-2.3,1.6,8.5,8.5,0,0,1-2.3.4,5.9,5.9,0,0,1-4.2-1.8C8.6,15.5,9,12.8,10.1,11a5.4,5.4,0,0,1,4.4-2.8m0-1a6.4,6.4,0,0,0-5.3,3.3c-1.2,2-1.8,5.2.3,7.5a6.4,6.4,0,0,0,4.9,2.2,7.5,7.5,0,0,0,2.6-.5,7,7,0,0,0,2.8-1.9,1.1,1.1,0,0,0,.2-1.1,1.1,1.1,0,0,0,.8-.8,5.5,5.5,0,0,0,0-3.6h0a10.1,10.1,0,0,0-.7-1.5,7.2,7.2,0,0,0-5.5-3.5Z" style="fill:#c1683d"/><path d="M12.9,29.4c-4.3,0-9-3.5-10.6-7.9a.8.8,0,0,1,.1-.8.8.8,0,0,1,.7-.4H4c.9,0,1.5-1.7,1.9-2.9a8.3,8.3,0,0,1,.4-1.2c.9-1.8,2.6-2.9,5.4-3.3h.5c.1-.1.1-.3.2-.4a1.4,1.4,0,0,1,.7-.4h.1a1.1,1.1,0,0,1,.9.5h.6a2.4,2.4,0,0,1,.9.8h.1a4.3,4.3,0,0,0,.9,1,8.2,8.2,0,0,1,2.9,3.5,8.4,8.4,0,0,1,.1,7.1A7.2,7.2,0,0,1,15,29.2l-2.1.2Z" style="fill:#f4b876"/><path d="M13.2,12.8a.7.7,0,0,1,.6.4l.2.3.3-.2h.3c.3.1.5.5.7.7h0a5.2,5.2,0,0,0,1,1.1,8.7,8.7,0,0,1,2.8,3.3c1.8,4.1.4,9-4.2,10.3l-2,.2c-4.2,0-8.6-3.4-10.1-7.6a.3.3,0,0,1,.3-.5h.2A1.1,1.1,0,0,0,4,21c1.7,0,2.3-3.3,2.8-4.4s2.9-2.7,5-3h.9c0-.4,0-.7.4-.8h.1m0-1H13a1.7,1.7,0,0,0-1,.6v.2h-.3q-4.4.8-5.7,3.6a7.3,7.3,0,0,0-.5,1.2C5.2,18.1,4.6,20,4,20H3.8l-.7-.2a1.3,1.3,0,0,0-1.1.6,1.3,1.3,0,0,0-.2,1.2c1.7,4.7,6.6,8.3,11.1,8.3a7.8,7.8,0,0,0,2.2-.3,7.4,7.4,0,0,0,5-4.1A9.3,9.3,0,0,0,20,18a8.6,8.6,0,0,0-3.1-3.7l-.8-.9H16a2,2,0,0,0-1.1-.9h-.6a1.6,1.6,0,0,0-1.1-.5Z" style="fill:#c1683d"/><path d="M2.9,21.8a1.1,1.1,0,0,1-.8-.3,1.8,1.8,0,0,1-.5-.7,1.3,1.3,0,0,1,.2-1.7.9.9,0,0,1,.7-.3,1.2,1.2,0,0,1,.9.5,1.9,1.9,0,0,1,.5,1.6,1.1,1.1,0,0,1-1,.9Z" style="fill:#f4b876"/><path d="M2.5,19.3a.5.5,0,0,1,.5.3,1.5,1.5,0,0,1,.4,1.2.5.5,0,0,1-.5.5l-.5-.2L2,20.6c-.1-.4-.2-.8.1-1.1a.5.5,0,0,1,.4-.2m0-1a1.6,1.6,0,0,0-1.1.5A1.8,1.8,0,0,0,1.1,21l.7.9a2.1,2.1,0,0,0,1.1.4A1.4,1.4,0,0,0,4.4,21a2.6,2.6,0,0,0-.6-2.1,2.5,2.5,0,0,0-1.3-.6Z" style="fill:#c1683d"/><path d="M13.2,25c4.2.2,8.2,1.7,12.3,3.1.2.1.3-.3.1-.4-4.1-1.5-8.2-2.9-12.5-3-.1,0-.1.3.1.3Z" style="fill:#c1683d"/><path d="M13.2,25.8a37.2,37.2,0,0,1,9,3.2c.3.2.5-.2.2-.4a30.3,30.3,0,0,0-9.2-3.1c-.2-.1-.2.2,0,.3Z" style="fill:#c1683d"/><path d="M12.2,23.3a2.7,2.7,0,0,1-2.6-2.4,2.2,2.2,0,0,1,.6-1.7,1.9,1.9,0,0,1,1.6-.7,2.5,2.5,0,0,1,2.5,2.3,2.3,2.3,0,0,1-.5,1.8,2.4,2.4,0,0,1-1.6.7Z" style="fill:#f4b876"/><path d="M11.8,19a2.1,2.1,0,0,1,2,1.9,1.7,1.7,0,0,1-1.6,1.9h0a2.2,2.2,0,0,1-2.1-1.9A1.7,1.7,0,0,1,11.8,19h0m0-1h0a2.5,2.5,0,0,0-2,.9A2.6,2.6,0,0,0,9.1,21a3.2,3.2,0,0,0,3.1,2.8,2.7,2.7,0,0,0,2-.9,2.6,2.6,0,0,0,.6-2.1,3,3,0,0,0-3-2.8Z" style="fill:#c1683d"/><path d="M23.3,25.3a8,8,0,0,1-6.2-2.9c-2.2-2.8-1.2-6.5.3-8.7a7.2,7.2,0,0,1,6-3.4h.5a8,8,0,0,1,6.2,4.4,13.4,13.4,0,0,1,.7,1.8h0a6.7,6.7,0,0,1-.2,4.2.7.7,0,0,1-.6.4h0l-.9-.2a.1.1,0,0,0-.1-.1c0,.1.1.2.1.3s.5,1.3.1,1.7a7.3,7.3,0,0,1-3.3,2A11.7,11.7,0,0,1,23.3,25.3Z" style="fill:#f4b876"/><path d="M23.4,10.8h.4A7.5,7.5,0,0,1,29.6,15a7.7,7.7,0,0,1,.7,1.6h0a5.7,5.7,0,0,1-.2,3.9H30c-.4,0-1.1-.4-1.5-.4h-.1c-.2.4.8,1.9.5,2.2a6.9,6.9,0,0,1-3.2,1.9,9.3,9.3,0,0,1-2.4.4,7.1,7.1,0,0,1-5.8-2.7c-2-2.5-1.2-5.9.3-8.1a6.6,6.6,0,0,1,5.6-3.2m0-1A7.7,7.7,0,0,0,17,13.4c-1.7,2.4-2.7,6.2-.3,9.3a8.2,8.2,0,0,0,6.6,3.1,8.6,8.6,0,0,0,2.7-.5,7.7,7.7,0,0,0,3.6-2.1,1.4,1.4,0,0,0,.2-1.5H30a1.2,1.2,0,0,0,1.1-.7,7.6,7.6,0,0,0,.2-4.5h-.1a6.2,6.2,0,0,0-.7-1.9,8.6,8.6,0,0,0-6.6-4.7Z" style="fill:#c1683d"/><path d="M34.6,25.4a3.3,3.3,0,0,0-2,5.9,1.1,1.1,0,0,0,.6.2c.1-.1.5-.1.5-.4s0-.2-.2-.2h0c-.3.2-.6.1-.9-.2a2.9,2.9,0,0,1-.6-3.2c.4-1.2,1.6-1.6,2.7-2A.1.1,0,0,0,34.6,25.4Z" style="fill:#c1683d"/></g></g></svg>