<svg xmlns="http://www.w3.org/2000/svg" viewBox="0 0 136.6 194.1"><g id="Layer_2" data-name="Layer 2"><g id="Layer_1-2" data-name="Layer 1"><path d="M124.8,139.3s6.2,5.6,7.2,11.7a7.4,7.4,0,0,1-3.6,7.8c-1.8,1-6.3,2.4-9.6-.1s-6.6-7.9-7.2-11.2C118.4,142.9,124.8,139.3,124.8,139.3Z" style="fill:#fcd54d"/><path d="M124.8,139.3s-4.7-3.9-10.6-3.2c-2.8,2.1-3.4,8.1-2.6,11.4C114.5,146.4,124.8,139.3,124.8,139.3Z" style="fill:#e5e4e1"/><path d="M115.7,136a15.5,15.5,0,0,1,9.1,3.3s6.2,5.6,7.2,11.7a7.4,7.4,0,0,1-3.6,7.8,11.6,11.6,0,0,1-5.2,1.3,7.4,7.4,0,0,1-4.4-1.4c-3.2-2.4-6.6-7.9-7.2-11.2s-.2-9.3,2.6-11.4h1.5m0-3-1.9.2a2.4,2.4,0,0,0-1.4.5c-4,2.9-4.7,10.2-3.7,14.4s4.6,10.3,8.3,13a10.2,10.2,0,0,0,6.2,2,14.1,14.1,0,0,0,6.6-1.7,10.1,10.1,0,0,0,5.1-10.8c-1.1-7.1-7.8-13.2-8.1-13.5h-.1a19.1,19.1,0,0,0-11-4Z" style="fill:#ffaa5a"/><path d="M128,179a6.7,6.7,0,0,1-6.6,1.4c-3.6-6.5-29.3-72.7-118.1-176-1-2.3.5-1.4,1.7,0C84.5,91.1,120.7,163.4,128,179Z" style="fill:#fcd54d"/><path d="M133.6,186.5s-4.7,4.2-9,3c-2.2-4.1-13.1-33.2-44-80.2.6-1,4.8-3.3,5.7-2.6C113.8,147.5,129.4,177.2,133.6,186.5Z" style="fill:#ff8d3d"/><path d="M6.4,9.9a1.4,1.4,0,0,0,1.9.1l2.8-2.5a1.4,1.4,0,0,0,.1-1.9h0a1.3,1.3,0,0,0-1.9-.1L6.5,8a1.3,1.3,0,0,0-.1,1.9Z" style="fill:#ffaa5a"/><path d="M42.4,54.6a1.4,1.4,0,0,0,1.9.1l2.8-2.5a1.4,1.4,0,0,0,.1-1.9h0a1.3,1.3,0,0,0-1.9-.1l-2.8,2.5a1.4,1.4,0,0,0-.1,1.9Z" style="fill:#ffaa5a"/><path d="M75,98.8a1.3,1.3,0,0,0,1.9.2l2.8-2.4a1.3,1.3,0,0,0,.2-1.9h0a1.5,1.5,0,0,0-1.9-.2L75.2,97a1.2,1.2,0,0,0-.2,1.8Z" style="fill:#ffaa5a"/><path d="M3.2,3A3.4,3.4,0,0,1,5,4.4L7.5,7.1,9.3,5.5a1.3,1.3,0,0,1,.9-.4,1.6,1.6,0,0,1,1,.5,1.4,1.4,0,0,1-.1,1.9L9.3,9.1c13,14.3,24.8,28.3,35.4,41.6l.6-.5a1.8,1.8,0,0,1,.9-.4,1.4,1.4,0,0,1,.9,2.4l-.7.6c11.8,14.9,22.3,29,31.3,42l.3-.3a1.6,1.6,0,0,1,.9-.3,1.2,1.2,0,0,1,1,.5,1.3,1.3,0,0,1-.2,1.9l-.4.4,6.5,9.6h.5c27.5,40.8,43.1,70.5,47.3,79.8,0,0-3.6,3.2-7.4,3.2a4.4,4.4,0,0,1-1.6-.2c-2.2-4.1-13.1-33.2-44-80.2.1-.3.5-.6,1.1-1l-5.9-9a1.4,1.4,0,0,1-.8-.5,1.1,1.1,0,0,1-.3-1.1Q61.8,78.2,44.1,54.8l-.7.2a1.3,1.3,0,0,1-1-.4,1.4,1.4,0,0,1,.1-1.9h0Q27.2,32.6,8.2,10.1l-.8.2a1.2,1.2,0,0,1-1-.4A1.4,1.4,0,0,1,6.4,8L3.3,4.4C2.9,3.4,2.9,3,3.2,3m0-3A3.2,3.2,0,0,0,.5,1.4,4.6,4.6,0,0,0,.6,5.6a4.3,4.3,0,0,0,.4.7L3,8.7a4.4,4.4,0,0,0,1.2,3.2A4.2,4.2,0,0,0,7,13.3C18.2,26.6,29,40,39.1,53.2a4.4,4.4,0,0,0,1.1,3.4A4.5,4.5,0,0,0,42.8,58c10.3,13.7,20,27.3,28.9,40.6a4.9,4.9,0,0,0,1,2.2,4.8,4.8,0,0,0,1.1.9c1.4,2.1,2.7,4.2,4.1,6.2a3.2,3.2,0,0,0,.1,3c25.5,38.8,37.4,65.5,41.9,75.6,1,2.3,1.7,3.7,2.1,4.5a3,3,0,0,0,1.9,1.4,8.5,8.5,0,0,0,2.3.3c4.8,0,8.9-3.6,9.4-4a3.1,3.1,0,0,0,.7-3.4c-4.6-10.2-20.3-40.1-47.5-80.3a2.3,2.3,0,0,0-.7-.7.5.5,0,0,0-.4-.2c-1.5-2.4-3.1-4.7-4.7-7a4.5,4.5,0,0,0-.8-4.3,4.6,4.6,0,0,0-3.3-1.6c-9-12.8-18.6-25.7-28.7-38.4a4.2,4.2,0,0,0-.8-4.5,4.4,4.4,0,0,0-3.2-1.5h-.7q-15.3-19-32-37.7a4.3,4.3,0,0,0-.1-5.6,4.4,4.4,0,0,0-3.2-1.5,4.6,4.6,0,0,0-2.5.8l-.4-.6C5.3.2,4,0,3.2,0Z" style="fill:#e57225"/><path d="M116,137.4h.3c.3-.2.4-.6.1-.8S17.5,12.6,15.3,9.6h-.1C12.5,6.7,5.7.2,2.6,1.1A2.2,2.2,0,0,0,1.1,2.9c-1.5,5.9.7,31.2,12.6,46.6,9.3,12.1,19.4,17,29.1,21.7s18,8.7,25.3,18.9c10.4,14.3,9.9,36.4-1.1,51.5a.5.5,0,0,0,.1.8.8.8,0,0,0,1-.2c11.3-15.5,11.8-38.2,1.2-52.8C61.8,79,52.9,74.7,43.5,70.1S24,60.7,14.8,48.8C3.2,33.6,1,8.9,2.4,3c.1-.6.4-.7.5-.7h0c1.8-.5,7,3.7,11.2,8,2.2,3,100.2,125.7,101.2,126.9A.7.7,0,0,0,116,137.4Z" style="fill:#201f1e"/><path d="M109.5,155.4c-.1,1.1-4.8,4.4-4.8,4.4l-2.7-2.2,4.6-4.4S109.5,151.9,109.5,155.4Z" style="fill:#786c53"/><path d="M104.4,166.9c.4.2,1.8-2.6,1.9-2.9a4.4,4.4,0,0,0,.1-4.8,6.9,6.9,0,0,0-7.5-3.4c-2,.5-4.3,3.5-4.4,5.5l9.9,5.6Z" style="fill:#b8ac97"/><path d="M103.1,160.1c2.3,2.3,2.7,5.7.9,7.5s-5.1,1.4-7.5-.9-2.7-5.6-.9-7.5,5.1-1.4,7.5.9Z" style="fill:#988b75"/><path d="M101,164.2l-4.1,3.5s-.6-.4,0,1.5,2.5,7.7,2.5,7.7a8.3,8.3,0,0,1-3.4,3.9l-2-2.3,2.2-1.6s.7-.5.1-2-2.4-6.7-2.4-6.7-.4-1,.8-2.2l4.4-3.7a1.7,1.7,0,0,1,1.9,1.9Z" style="fill:#786c53"/><path d="M97.1,182s-.7-4.5-4.2-4.6l-10.4,8s4.8.2,5.1,5.1Z" style="fill:#ff8d3d"/><path d="M86.4,186.6c1.4,1.4,1.9,3.2,1,4s-2.6.4-4-1-1.9-3.2-1.1-4S85,185.2,86.4,186.6Z" style="fill:#e5e4e1"/><path d="M83,185.7s2.3.2,2.9,2-.5,2.3-2,1.7S81.5,185.9,83,185.7Z" style="fill:#e5e4e1"/><path d="M107.7,153c.9,0,1.8.4,1.8,2.4s-1.9,2.3-3.3,3.3.2.3.2.5a4.4,4.4,0,0,1-.1,4.8,12.3,12.3,0,0,1-1.7,2.8l-.6.8a3.9,3.9,0,0,1-2.9,1.1,6.2,6.2,0,0,1-3.8-1.3l-.4.3h-.1c-.1,0-.3.2.1,1.5s2.5,7.7,2.5,7.7a8.7,8.7,0,0,1-2.8,3.5,5.6,5.6,0,0,1,.5,1.6l-9.5,8.5h0l-.2.2a1.3,1.3,0,0,1-1.1.5,4.6,4.6,0,0,1-2.9-1.5c-1.4-1.4-1.9-3.2-1.1-4l.2-.2h0l10.4-8a3.5,3.5,0,0,1,1.8.5l1.5-1s.7-.5.1-2-2.4-6.7-2.4-6.7-.4-1,.8-2.2l.8-.7a5.7,5.7,0,0,1-1-3.9h0c.1-2,2.4-5,4.4-5.5l1.5-.2a8.2,8.2,0,0,1,3,.7l3.2-3.1,1.1-.2m0-3a4.9,4.9,0,0,0-2.3.5l-.8.5-2,1.9a8.3,8.3,0,0,0-2.2-.3,9.1,9.1,0,0,0-2.3.3c-3.4.9-6.4,5.1-6.6,8.2h0v.6a10.1,10.1,0,0,0,.4,2.9,4.8,4.8,0,0,0-.9,4.4l1.8,5.3a3,3,0,0,0-1.8.6l-10.3,8.1h-.1c-.2,0-.3.1-.4.3a4.6,4.6,0,0,0-1.3,3.2,7.2,7.2,0,0,0,2.4,5,7.4,7.4,0,0,0,5,2.4,4.9,4.9,0,0,0,3.3-1.3h0l9.5-8.5a2.9,2.9,0,0,0,1-2.8h0a11.3,11.3,0,0,0,2.1-3.5,3.1,3.1,0,0,0,0-1.9l-1.4-4.2h.3a6.9,6.9,0,0,0,5-2,3.9,3.9,0,0,0,.8-1,11.1,11.1,0,0,0,2-3.2h.1a8,8,0,0,0,.8-5.8c1.9-1.6,2.6-2.8,2.7-4.1a5.7,5.7,0,0,0-1.5-4.2,4.7,4.7,0,0,0-3.3-1.3Z" style="fill:#e57225"/><path d="M55.5,157.3a2.4,2.4,0,0,1,.7-2.3h0c.3-.4,1.7-1.4,6.4-4.8h.3l.3.2.4.7a.5.5,0,0,1-.1.6l-6.1,4.5a1.3,1.3,0,0,0-.3,1.1c.1.7.9,1.3,2.1,1.9a.4.4,0,0,1,.2.5l-.3.3h-.3C58,159.6,56,158.7,55.5,157.3Z" style="fill:#201f1e"/><path d="M59.3,153.5Z" style="fill:#fff7e8"/><path d="M63.3,153.1a3.3,3.3,0,0,1-1.6-.5,3.5,3.5,0,0,1-1.4-4.6,3.4,3.4,0,0,1,.8-.9,9.3,9.3,0,0,1,1.1-6.3,9.7,9.7,0,0,1,4.2-4.1,5.3,5.3,0,0,1,.4-1.7,3.6,3.6,0,0,1,3-1.7,3.2,3.2,0,0,1,1.6.4,3.3,3.3,0,0,1,1.3,4.5l-.6.8a8.3,8.3,0,0,1-.9,6.7,8.9,8.9,0,0,1-4.5,4.3,3.3,3.3,0,0,1-.4,1.3A3.4,3.4,0,0,1,63.3,153.1Z" style="fill:#ffaa5a"/><path d="M69.8,134.8a1.1,1.1,0,0,1,.8.2,1.8,1.8,0,0,1-.6,3.4c1.3,1.3,1.3,4-.1,6.6s-3.2,3.8-4.9,3.8h0a1.9,1.9,0,0,1,0,1.8,2.1,2.1,0,0,1-1.7,1l-.9-.3a1.9,1.9,0,0,1,.7-3.5c-1-1.4-.9-3.9.4-6.2s3.2-3.8,4.8-3.8a1.8,1.8,0,0,1-.1-2,1.6,1.6,0,0,1,1.6-1m0-3a5,5,0,0,0-4.3,2.5,7.8,7.8,0,0,0-.5,1.4,11,11,0,0,0-4.1,4.4,10.6,10.6,0,0,0-1.4,6.5l-.5.7a5,5,0,0,0,2,6.7,6,6,0,0,0,2.3.6,4.8,4.8,0,0,0,4.3-2.6,3,3,0,0,0,.4-1,10.8,10.8,0,0,0,4.5-4.5,10.2,10.2,0,0,0,1.3-7.2l.2-.4a4.8,4.8,0,0,0-1.9-6.5,4.6,4.6,0,0,0-2.3-.6Z" style="fill:#e57225"/></g></g></svg>