<svg xmlns="http://www.w3.org/2000/svg" viewBox="0 0 106 159.7"><g id="Layer_2" data-name="Layer 2"><g id="Layer_1-2" data-name="Layer 1"><path d="M27.9,58.1h0Z" style="fill:#fcc52a"/><path d="M51.7,158.2c-15.6,0-31.4-3.3-31.6-9.5l-5.8-43.8a2,2,0,0,1-.1-.7h0c0-4.3,8.3-6.7,15.5-7.9l-2.9-1.3-1.9-1c-3.4-1.8-7.6-4.8-8.3-8.2a5,5,0,0,1,1.1-4.2,6.1,6.1,0,0,1,2.4-1.9c-3-1.8-6.2-4.4-6.8-7.4A4.7,4.7,0,0,1,14.4,68a5.2,5.2,0,0,1,3.7-2.2l-1.3-.7c-3.3-1.8-7.5-4.7-8.2-8.2a5,5,0,0,1,1-4.2,5.4,5.4,0,0,1,3.5-2.1L11.8,50,9.9,49c-3.4-1.8-7.6-4.8-8.3-8.2a5,5,0,0,1,1.1-4.2,5.3,5.3,0,0,1,4.4-2.2c3,0,6.2,2.1,8.9,4.4a2.1,2.1,0,0,1,.1-1.9,2.2,2.2,0,0,1,1.4-1.1c-.3-1-.5-1.9-.7-2.9-.9-4.5-1.8-10.9.8-14.3a5.8,5.8,0,0,1,4.2-2.3h.5A4.9,4.9,0,0,1,26.1,18c2.4,2.5,2.5,7.4,2.2,11.2A5.6,5.6,0,0,1,33,26.7h1.6a6.4,6.4,0,0,1,4.6-2.1h.5l.3-.9.9-1.1a3.4,3.4,0,0,1,2.1-.9h.8a6.6,6.6,0,0,1,2.5.5,6.5,6.5,0,0,1,2.3,2.1,7.1,7.1,0,0,1,1.5-2.2,6.8,6.8,0,0,1,5-2.4,4.7,4.7,0,0,1,1.7.3,6,6,0,0,1,3.5,3.5,2.4,2.4,0,0,1,.2.8h.9a2,2,0,0,1,.4-.8,8.9,8.9,0,0,1,4.5-3.3,11.5,11.5,0,0,1-3-3.3,7.5,7.5,0,0,1,0-7.8A6.9,6.9,0,0,1,68.5,7h.7a7.6,7.6,0,0,1,.4-1.1,7.6,7.6,0,0,1,1-1.3,4.1,4.1,0,0,1,2.2-.8h.9a6.7,6.7,0,0,1,2.8.6,7,7,0,0,1,2.7,2.5A9.1,9.1,0,0,1,81,4.1a7.6,7.6,0,0,1,5.5-2.6,5.8,5.8,0,0,1,1.9.3,6.6,6.6,0,0,1,3.8,3.9,2.9,2.9,0,0,1,.2.9h1.2a3.6,3.6,0,0,1,1.5.6,3.8,3.8,0,0,1,1.5,1.8,6.1,6.1,0,0,1,.6,3.7,7.4,7.4,0,0,1-.8,2.2h.2a10.6,10.6,0,0,1,3.1.4,8,8,0,0,1,4.7,5,4.8,4.8,0,0,1-1.2,4.3l-.9.8a6.8,6.8,0,0,1,1.1,3.2,5.4,5.4,0,0,1-1.4,3.9,6,6,0,0,1-4.4,1.7h-.7a13,13,0,0,1-3.3-.7,9.8,9.8,0,0,1,.5,3.3c-.2,3.1-2.3,6.4-5.9,6.4H88a7.4,7.4,0,0,1-3.4-1,2.1,2.1,0,0,1-.4.6,5,5,0,0,1-3.8,1.9H80A4.4,4.4,0,0,1,76.9,43c-2.1,4.3-4,8.8-5.7,13.2l2.3-2.5c3.4-3.6,8.5-8.3,13.2-8.3a6.2,6.2,0,0,1,4.9,2.4,5.6,5.6,0,0,1,1.2,4.6c-.7,3.9-5.4,7.3-9.3,9.4L81.4,63l-4.3,2,.3,1.1h.9a2.2,2.2,0,0,1,1.4.5,3,3,0,0,1,1.4,1.7,5.5,5.5,0,0,1,.5,3.3,8.4,8.4,0,0,1-.5,1.7,7.5,7.5,0,0,1,2.6.5A7,7,0,0,1,88,78.3a4.8,4.8,0,0,1-1.1,4.1l-.7.6a5.1,5.1,0,0,1,.9,2.7,5,5,0,0,1-1.3,3.6,5.5,5.5,0,0,1-4,1.5h-.7l-2.6-.5a7.8,7.8,0,0,1,.4,2.6,7.6,7.6,0,0,1-1.5,4c6.4,1.4,11.9,3.6,11.9,7.2a2.2,2.2,0,0,1-.1.8l-5.8,43.8c-.2,5.3-11,7.6-17.5,8.5A90.4,90.4,0,0,1,51.7,158.2Zm8.4-63.5h1.7c0-.4-.1-.8-.1-1.3l-1.2.7h-.3C60.2,94.5,60.2,94.6,60.1,94.7Zm-8.4-.2h3.5a6.9,6.9,0,0,1-1.7-1,5.2,5.2,0,0,1-1.4-2.1L50,94.5ZM34.1,86.6a52.7,52.7,0,0,1,4.3,5.1,10.3,10.3,0,0,0-.4-1.4l-.2-.9A13.8,13.8,0,0,0,34.1,86.6ZM42.4,89c.1-1.1.4-2.1.6-3.2s.3-1.3.5-2.1a10.7,10.7,0,0,0-1.3,4.6A2.5,2.5,0,0,0,42.4,89ZM28.1,70.6l2.4,2.3a39,39,0,0,1,3.3,3.8c-.3-1-.7-2-1-2.9a19,19,0,0,0-4.4-3Zm9.3,2.7.8,2.3a49.5,49.5,0,0,1,.6-5.4c.6-3.1,2.2-12.3,7.6-13.4A7.9,7.9,0,0,1,45,53.7a11,11,0,0,1-.2-1.8l-.4.3a40.9,40.9,0,0,1-1.1,4.2,16.2,16.2,0,0,1-.8,2l-.8,2c-1,2.3-2,4.8-2.8,7.2l-.3.8A21.9,21.9,0,0,0,37.4,73.3ZM53.2,56.7c2,1.2,3.7,3.6,5,7.4a4.3,4.3,0,0,1,1.7-.6h.7c-.1-1.5-.3-3.1-.5-4.8s-.3-1.6-.5-2.6a4.4,4.4,0,0,1-3,1.1h-.1a7.5,7.5,0,0,1-3-.9l-.3.4ZM62.8,49l.3,1.6.3,1.2c.6,2.7,1,5.1,1.3,7.3a1.9,1.9,0,0,1,.1.8c2.8-7.6,6-15.1,9.5-22.3l-.9.5a10.1,10.1,0,0,1-2.3.7,5.6,5.6,0,0,1-1.1,2l-.7.6a5.1,5.1,0,0,1,.9,2.7,5,5,0,0,1-1.3,3.6,5.5,5.5,0,0,1-4,1.5h-.7ZM31.6,58.9v-2a6.2,6.2,0,0,1,.1-1.3,9.9,9.9,0,0,0-.4,2.8Zm-5.8-1.3.3.4a4.7,4.7,0,0,0-1-1Z" style="fill:#fcd54d"/><path d="M86.5,3l1.5.2c1.8.6,3.9,3.6,2.7,5.5a3,3,0,0,1,1.8-.6h.9l.9.3a2.8,2.8,0,0,1,1,1.2,4.8,4.8,0,0,1,.4,2.9c-.2,1.6-1.5,3.1-3,4.4h0a17.4,17.4,0,0,1,3.9-.5,7.5,7.5,0,0,1,2.6.4c2.5.9,5.3,4.3,2.9,6.8a7.5,7.5,0,0,1-2.4,1.5,4.4,4.4,0,0,1,2.2,3.5c.1,2.7-1.9,4.1-4.3,4.1H97a16.4,16.4,0,0,1-6.3-2.2,1.7,1.7,0,0,1,.2.5v.2a11.6,11.6,0,0,1,1.6,5.5c-.2,2.4-1.7,5-4.4,5h-.1c-1.5,0-4.3-.8-3.4-2.9a14.3,14.3,0,0,1-1.6,3,3.8,3.8,0,0,1-2.7,1.4h-.3c-1.7-.2-2.8-1.9-3.3-3.6A224.3,224.3,0,0,0,65.7,67a53.2,53.2,0,0,1,8.8-12.3c2.3-2.3,7.8-7.8,12.2-7.8a4.4,4.4,0,0,1,3.7,1.8c3.6,4.5-3.2,9.4-7.6,11.8a10.8,10.8,0,0,1-2.1,1.1l-5.8,2.8c.9,1.1,1.5,2.6.8,3.7a2.2,2.2,0,0,1,1.6-.5h.8l.8.3a3.1,3.1,0,0,1,.9,1.1,5.3,5.3,0,0,1,.4,2.5,7.4,7.4,0,0,1-2.8,3.9h.1a13.3,13.3,0,0,1,3.4-.5,5.9,5.9,0,0,1,2.3.4c2.3.8,4.7,3.8,2.6,6a9.6,9.6,0,0,1-2.1,1.4,3.8,3.8,0,0,1,1.9,3.1c.1,2.3-1.7,3.5-3.8,3.5h-.5a16.2,16.2,0,0,1-5.6-1.9l.2.4V88a10.6,10.6,0,0,1,1.4,4.8c-.1,2.2-1.5,4.5-3.9,4.5h-.1c-1.3-.1-3.7-.8-3-2.6A10.1,10.1,0,0,1,69.2,97c11.1,1.4,18.6,4.1,18.6,7.1h0a.9.9,0,0,1-.1.5l-5.8,44c0,3.1-6.6,5.8-16.2,7.2a117.7,117.7,0,0,1-14,.9c-16.6,0-30.1-3.7-30.1-8.1l-5.8-44a.9.9,0,0,1-.1-.5h0c0-3.1,7.7-5.8,19.1-7.2l-7.3-3.4-1.9-.9c-3.8-2.1-9.8-6.3-6.7-10.2a3.9,3.9,0,0,1,3.3-1.7c3.8,0,8.6,4.7,10.6,6.7a47.4,47.4,0,0,1,6.9,9.1H41c-.4-2.2-.9-4.3-1.5-6.4l-.3-1.2c-1.3-2-4.3-3.4-6.1-4.4s-6-2.9-9-4.3l-1.8-1c-3.8-2.1-9.9-6.3-6.8-10.2a4.4,4.4,0,0,1,3.3-1.6c3.9,0,8.6,4.7,10.6,6.7a48,48,0,0,1,7.7,10.2l1.2,1.5C37,81.4,35.6,77.2,34.1,73c-1.4-1.7-4.1-3-5.7-3.9s-6-2.9-9-4.3l-1.8-1c-3.9-2.1-9.9-6.3-6.8-10.2A4.2,4.2,0,0,1,14.1,52c3.8,0,8.6,4.7,10.6,6.7A46.2,46.2,0,0,1,32.4,69l.3.3c-1.6-4-3.2-8-5.1-11.9l.3.7c-1-2.4-4.5-4-6.5-5.1s-6-3-9-4.4l-1.8-.9C6.8,45.6.8,41.4,3.9,37.5a3.8,3.8,0,0,1,3.2-1.6c3.9,0,8.6,4.6,10.6,6.7a42.4,42.4,0,0,1,7.5,9.9q-3.6-7.2-7.8-14.1a.8.8,0,0,1,.8-1.2.7.7,0,0,1,.6.4l2,3.3a44.4,44.4,0,0,1-2.5-8.3c-.8-3.8-2.8-14.3,3.6-14.8h.4c4.8,0,4.9,7.3,4.5,11.7q-.2,1.2-.3,2.1c-.5,3.4-1.1,6.7-1.4,10.2s-.6,5.2.2,7.4l.5,1.2c.9,1.7,1.8,3.5,2.6,5.3V54.2A46.1,46.1,0,0,1,27,41.4c.2-3.6.7-13.2,6-13.2h.8a3.4,3.4,0,0,1,1.5.6l.4-.9a4.8,4.8,0,0,1,3.5-1.6,2.4,2.4,0,0,1,1.9.8,3.2,3.2,0,0,1,.3-2.5l.5-.7a2.5,2.5,0,0,1,1.3-.5h.6a3.4,3.4,0,0,1,1.8.4c1.6.7,2.6,2.7,3.4,4.6a9.4,9.4,0,0,1,2.2-5.1,5.6,5.6,0,0,1,3.9-1.9l1.3.2c1.6.6,3.4,3.2,2.4,4.9a2.2,2.2,0,0,1,1.6-.5h.8l.8.3a.8.8,0,0,1,.4.4,5.7,5.7,0,0,1,.7-2.2c1.2-1.9,4.4-2.9,7-3.6l-.5-.2h-.1a10.4,10.4,0,0,1-4.9-4.1,5.8,5.8,0,0,1,0-6.2,5.2,5.2,0,0,1,3.9-1.8,2.6,2.6,0,0,1,2.1.8,3.7,3.7,0,0,1,.3-2.7l.6-.8A2.8,2.8,0,0,1,73,5.2h.7a4.9,4.9,0,0,1,2.1.4c1.7.9,2.9,3.1,3.7,5.3a10.7,10.7,0,0,1,2.6-5.8A6,6,0,0,1,86.5,3m-26,30.8h.1a13.3,13.3,0,0,1,3.4-.5h1.2a3.4,3.4,0,0,1,1-3.4h-.7a3.6,3.6,0,0,1-2-.6c0-.1-.1-.1-.2-.2v.6a7.4,7.4,0,0,1-2.8,3.9M70,37.3h-.4a2.5,2.5,0,0,1-.7,2.4,9.6,9.6,0,0,1-2.1,1.4,3.8,3.8,0,0,1,1.9,3.1c.1,2.3-1.7,3.5-3.8,3.5h-.5a10.9,10.9,0,0,1-3.9-1.1,40.4,40.4,0,0,1,1.4,5.5c.5,2.4,1,4.8,1.4,7.2s.6,4.7.7,7.2v.2A234.9,234.9,0,0,1,76.5,36.4a18.6,18.6,0,0,1,.4-3.3h-.1a10.1,10.1,0,0,1-4.1,3.6,6.3,6.3,0,0,1-2.7.6M36.2,38.8a17.6,17.6,0,0,1,4.4-1.5l-.4-.2h-.1a10.5,10.5,0,0,1-3-2,23.4,23.4,0,0,1-.9,3.8M34.3,69.5A52.5,52.5,0,0,1,33.1,57c.1-2.7.4-8.8,2.8-11.7l-1.1-.5-.6-.5c-1,2.4-2,4.7-2.8,7.2s-1.9,5-1.5,7.3,3.1,7.1,4.4,10.7M59.1,46.4c0-.2-.1-.3-.1-.5s-.1-.1-.2-.1a.8.8,0,0,1,.2.4c.1.1.1.1.1.2h0M39.7,85c0-.5.1-1.1.1-1.6a47.3,47.3,0,0,1,.5-13c.6-3.3,2.3-12.1,7.2-12.2l1.2-.6,1.5-.2c4.5,0,6.6,6.5,7.7,11.1,0,.1.1.1.1.2a3.2,3.2,0,0,1,.3-2.5l.5-.7a2.5,2.5,0,0,1,1.3-.5h.6a4.5,4.5,0,0,1,1.6.3c-.2-2.3-.4-4.6-.7-6.8s-.8-4.2-1.3-6.3c-.4,1.8-1.7,3.5-3.7,3.5h-.1c-1.3-.1-3.7-.8-3-2.6a10.8,10.8,0,0,1-1.4,2.6,3.3,3.3,0,0,1-2.4,1.2h-.2c-1.7-.1-2.7-1.9-3-3.5a13.5,13.5,0,0,1,.1-5.3h-.1A8.8,8.8,0,0,1,43,51.2a20.2,20.2,0,0,1-1.2,4.7,15,15,0,0,1-.7,2c-1.2,3-2.6,6.1-3.7,9.2s-1.5,4.3-1.5,6.5c1.4,3.7,2.6,7.6,3.8,11.4M65.9,70a1.3,1.3,0,0,1,.1-.6h0c-.1.1-.2.2-.2.3a.4.4,0,0,0,.1.3M42.7,96.2h.5a48.1,48.1,0,0,1,1.3-10c.6-2.8,2.3-9.4,5.6-11.3l-.6-1.1a16.5,16.5,0,0,1-1-1.9l-.4.5c-1.7,2.9-3.4,5.7-4.9,8.7s-2.8,5.1-2.5,7.5a1.4,1.4,0,0,0,.2.6l1.8,7m11.4-9.3h-.9l-1,1.6c-1.7,2.5-3.4,4.9-4.9,7.5h9.1a25.6,25.6,0,0,0,.5-2.7,4.7,4.7,0,0,1-2.5-1.1c-1.3-1.1-1.9-4.2-.3-5.4m9.8,9.6a4.4,4.4,0,0,1-.5-1.5,13.5,13.5,0,0,1,.1-5.3h-.1a8.7,8.7,0,0,1-3.5,3.1l-1,.4a1.7,1.7,0,0,1-.1.7c0,.1-.1.3-.2.3l-.3,1.9,5.6.4M86.5,0a9.1,9.1,0,0,0-6.6,3l-1,1.2A5.7,5.7,0,0,0,77.1,3a6.6,6.6,0,0,0-3.4-.8H72.6a5.1,5.1,0,0,0-3,1.2,5.4,5.4,0,0,0-1.3,1.7l-.2.3a7.9,7.9,0,0,0-6,3.1A8.8,8.8,0,0,0,62,18a14.6,14.6,0,0,0,1.6,2.1,7.8,7.8,0,0,0-2.4,2,7.3,7.3,0,0,0-3.9-3.3,7.8,7.8,0,0,0-2.2-.4A8.7,8.7,0,0,0,49,21.2l-.6.8a5.5,5.5,0,0,0-1.4-.9,6.8,6.8,0,0,0-3.2-.7h-1a6.4,6.4,0,0,0-2.9,1.2,5.3,5.3,0,0,0-1.2,1.7h0a8.3,8.3,0,0,0-4.6,1.9H33a6.7,6.7,0,0,0-3.1.7c0-3.4-.7-6.8-2.6-8.9a6.3,6.3,0,0,0-5-2.2h-.6a7.3,7.3,0,0,0-5.3,2.9c-3,3.9-2,10.7-1.1,15.5a11.6,11.6,0,0,1,.4,1.8,3.9,3.9,0,0,0-.8,1,13.5,13.5,0,0,0-7.8-3.1,6.9,6.9,0,0,0-5.6,2.7A6.6,6.6,0,0,0,.1,41.1c.9,4,5.4,7.2,9.1,9.2l.4.3a4.3,4.3,0,0,0-1.1,1.2,6.3,6.3,0,0,0-1.4,5.4c.7,3.5,4.2,6.4,7.6,8.4a5.4,5.4,0,0,0-1.5,1.5,6.3,6.3,0,0,0-1.4,5.4c.6,2.8,3,5.2,5.6,7.1l-.9.9A6.4,6.4,0,0,0,15.2,86c.8,4,5.3,7.2,9,9.2l.7.4c-8.1,1.9-12.2,4.8-12.2,8.5h0a3.1,3.1,0,0,0,.1,1l5.8,43.7c.4,8.6,20.9,10.9,33.1,10.9a108.5,108.5,0,0,0,14.4-1c8.5-1.2,18.5-3.9,18.8-9.9l5.8-43.7c0-.3.1-.6.1-.9h0c0-4.3-5.3-6.3-7.1-7l-4-1.2a9.5,9.5,0,0,0,.7-2.9v-.8h1.4a7.1,7.1,0,0,0,5.1-2,5.9,5.9,0,0,0,1.7-4.6,6,6,0,0,0-.5-2.4A5.7,5.7,0,0,0,89.4,78a8.6,8.6,0,0,0-5.2-5.6l-1.1-.3v-.2a7.4,7.4,0,0,0-.6-4.1,4.8,4.8,0,0,0-2-2.4l-.3-.2,1.8-.9,2.3-1.1c4.1-2.3,9.1-6,10-10.5a7.1,7.1,0,0,0-1.5-5.9,8.9,8.9,0,0,0-3-2.2c3.6-.9,5.6-4.4,5.8-7.8a6.2,6.2,0,0,0-.1-1.3l1.2.2h.9a7.6,7.6,0,0,0,5.5-2.2,6.7,6.7,0,0,0,1.8-5,8.9,8.9,0,0,0-.7-2.8h.1a6.3,6.3,0,0,0,1.5-5.8,9,9,0,0,0-5.6-6l-1.6-.4c0-.2.1-.4.1-.6A7.9,7.9,0,0,0,98,8.5,5.3,5.3,0,0,0,95.9,6a5.2,5.2,0,0,0-2-.8h-.3A7.7,7.7,0,0,0,88.9.4,6.7,6.7,0,0,0,86.5,0Zm-11,49.6,1.9-4.2a7.3,7.3,0,0,0,2.5.8H80a37.9,37.9,0,0,0-4.5,3.4ZM64.9,50.7a6.8,6.8,0,0,0,2-.2l-1.5,3.6-.6-2.6c0-.3-.1-.5-.1-.8Zm-7.6,7.9,1.2-.2c0,.2.1.4.1.6s.3,2,.4,2.9a25.5,25.5,0,0,0-1.7-3.3Z" style="fill:#ffaa5a"/><path d="M41,96.4c.2.6.3,1.2.5,1.9s.1.5.1.8l-.6-.8-.6-.6a7.5,7.5,0,0,0-.7-1.2H41m0-3H39.5a2.8,2.8,0,0,0-2.4,1.6,3,3,0,0,0,0,2.9,7.5,7.5,0,0,1,.7,1.2l.4.5.5.6.6.7a3,3,0,0,0,2.3,1.1,2.8,2.8,0,0,0,1.3-.3,2.8,2.8,0,0,0,1.7-3.3l-.2-.9a10.6,10.6,0,0,1-.4-1.9,3,3,0,0,0-3-2.3Z" style="fill:#6a3417"/><path d="M58.3,96.1l5.6.4a3.2,3.2,0,0,0,2.5,2h.2A3.3,3.3,0,0,0,69,97.3l.2-.3c11.1,1.4,18.6,4.1,18.6,7.1h0a.9.9,0,0,1-.1.5l-5.8,44c0,3.1-6.6,5.8-16.2,7.2a117.7,117.7,0,0,1-14,.9c-16.6,0-30.1-3.7-30.1-8.1l-5.8-44a.9.9,0,0,1-.1-.5h0c0-3.1,7.7-5.8,19.1-7.2l1.6.9,1.4.8a14.3,14.3,0,0,1,4.4,3.2l.3,1.6-4.3.7c-4.5,1-7.8,2.4-9,4,5.4,1.4,13.5,2.2,22.5,2.2s17.2-.8,22.6-2.2c-1.2-1.6-4.5-3-9-4a60.4,60.4,0,0,0-8.2-1.1l.9-5,.3-1.9m29.5,8h0m-29.5-11a3.1,3.1,0,0,0-3,2.5L55,97.5c-.2,1-.3,2-.5,2.9l-.3,2.1a2.9,2.9,0,0,0,.6,2.4,2.6,2.6,0,0,0,2.1,1.1,57.7,57.7,0,0,1,6.5.8c-3.6.3-7.6.5-11.7.5s-8-.2-11.7-.5l2.9-.4a3.2,3.2,0,0,0,2.1-1.3,3.6,3.6,0,0,0,.5-2.3l-.4-1.5h0a3.1,3.1,0,0,0-.6-1.3A17.8,17.8,0,0,0,39.3,96l-.7-.4-.7-.4-1.8-.9a3.3,3.3,0,0,0-1.3-.4h-.4C20,95.7,12.7,99.1,12.7,104.1h0a3.1,3.1,0,0,0,.1,1l5.8,43.7c.4,8.6,20.9,10.9,33.1,10.9a108.5,108.5,0,0,0,14.4-1c8.5-1.2,18.5-3.9,18.8-9.9l5.8-43.7c0-.2.1-.5.1-.8v-.4c-.2-4.2-5.4-6.1-7.1-6.8A65.1,65.1,0,0,0,69.6,94h-.4a3.3,3.3,0,0,0-2.4,1.2c0,.1-.1.1-.1.2h0v-.2a3,3,0,0,0-2.5-1.7l-5.7-.4Z" style="fill:#6a3417"/><path d="M40.9,89.2l1.8,7h.5v1.9h0l-2.3-8.9m0-3h-.8A2.9,2.9,0,0,0,38,89.9l2.3,9a3.1,3.1,0,0,0,2.9,2.3h.4a2.9,2.9,0,0,0,2.6-3V96.3a2.8,2.8,0,0,0-.9-2.2h0q-.7-3-1.5-5.7a3.1,3.1,0,0,0-2.9-2.2Z" style="fill:#6a3417"/><path d="M51.7,96h4.7c-.1.6-.3,1.2-.4,1.8s-.6,3.4-.8,5H51.7c-2.6,0-5.1.2-7.4.4-.1-.3-.1-.6-.2-1a20.3,20.3,0,0,1,2-4.2l.6-1,.6-.9h4.4m0-3H47.2a2.7,2.7,0,0,0-2.5,1.4l-.6,1a2.1,2.1,0,0,1-.4.6l-.2.4a27.8,27.8,0,0,0-2.3,4.9,3.3,3.3,0,0,0,0,1.4,3.6,3.6,0,0,0,.2,1,2.9,2.9,0,0,0,2.9,2.4h.3c2.3-.2,4.7-.4,7.1-.4h3.5a3,3,0,0,0,3-2.6c.2-1.5.5-3.1.8-4.8l.3-1.9a2.7,2.7,0,0,0-.6-2.4,2.7,2.7,0,0,0-2.2-1.1Z" style="fill:#6a3417"/><path d="M43.2,98.1h0Z" style="fill:#dc905b"/><path d="M27.9,58.1h0Z" style="fill:#084f4a"/><path d="M65.3,104.1a60.4,60.4,0,0,0-8.2-1.1l.9-5,.3-1.9.3-1.9c.1,0,.2-.2.2-.3a1.7,1.7,0,0,0,.1-.7h-.1l-1.2.2h-.7a25.6,25.6,0,0,1-.5,2.7c-.1.6-.3,1.2-.4,1.8s-.6,3.4-.8,5H51.7c-2.6,0-5.1.2-7.4.4-.1-.3-.1-.6-.2-1a20.3,20.3,0,0,1,2-4.2l.6-1,.6-.9c1.5-2.6,3.2-5,4.9-7.5l1-1.6a4.7,4.7,0,0,1-1.5-.6,1.2,1.2,0,0,1-.6-.6,2,2,0,0,1-.4-1.3,5,5,0,0,1,.6-2.4,7,7,0,0,1,2-1.8,11.7,11.7,0,0,1,2.4-.9l.4-.2,1.1-.2h.3l-.4-.2H57a2,2,0,0,1-.8-.4l-1-.6a8.1,8.1,0,0,1-2.5-2.7,1.1,1.1,0,0,1-.3-.6,5,5,0,0,1,.1-4.6v-.2a4,4,0,0,1,1.2-1c1.3-.7,3.1-.9,4.1,0-1.2-5.1-3.7-12.6-9.2-10.9l-1.2.6c-4.9.1-6.6,8.9-7.2,12.2a47.3,47.3,0,0,0-.5,13c0,.5-.1,1.1-.1,1.6-1.2-3.8-2.4-7.7-3.8-11.4,0-2.2,1-4.8,1.5-6.5s2.5-6.2,3.7-9.2a15,15,0,0,0,.7-2A20.2,20.2,0,0,0,43,51.2h0a5.2,5.2,0,0,1-5.5-.5c-1.3-1.1-1.9-4.2-.3-5.4a1.9,1.9,0,0,1-1.3,0c-2.4,2.9-2.7,9-2.8,11.7a52.5,52.5,0,0,0,1.2,12.5c-1.3-3.6-2.8-7.2-4.4-10.7s.8-5.3,1.5-7.3,1.8-4.8,2.8-7.2h0a2,2,0,0,1-.4-1.3,5,5,0,0,1,.6-2.4,5.9,5.9,0,0,1,1.8-1.7,23.4,23.4,0,0,0,.9-3.8,5.5,5.5,0,0,1-1.3-1.7,5.1,5.1,0,0,1-.5-4.5,3.4,3.4,0,0,0-1.5-.6c-6.1-.9-6.6,9.4-6.8,13.2a46.1,46.1,0,0,0,1.4,12.8v1.5c-.8-1.8-1.7-3.6-2.6-5.3l-.5-1.2c-.8-2.2-.4-5.4-.2-7.4S26,35,26.5,31.6q.2-.9.3-2.1c.4-4.5.2-12.1-4.9-11.7s-4.4,11-3.6,14.8a44.4,44.4,0,0,0,2.5,8.3l-2-3.3a.8.8,0,0,0-1.4.8q4.2,6.9,7.8,14.1a42.4,42.4,0,0,0-7.5-9.9c-2.6-2.7-10-10-13.8-5.1s2.9,8.1,6.7,10.2l1.8.9c3,1.4,6.1,2.7,9,4.4s5.5,2.7,6.5,5.1l-.3-.7c1.9,3.9,3.5,7.9,5.1,11.9l-.3-.3a46.2,46.2,0,0,0-7.7-10.3c-2.6-2.7-10-9.9-13.9-5.1s2.9,8.1,6.8,10.2l1.8,1c3,1.4,6.1,2.7,9,4.3s4.3,2.2,5.7,3.9c1.5,4.2,2.9,8.4,4.2,12.7l-1.2-1.5A48,48,0,0,0,29.4,74c-2.6-2.7-10-9.9-13.9-5.1s3,8.1,6.8,10.2l1.8,1c3,1.4,6.1,2.7,9,4.3s4.8,2.4,6.1,4.4l.3,1.2c.6,2.1,1.1,4.2,1.5,6.4.2.6.3,1.2.5,1.9s.1.5.1.8l-.6-.8-.6-.6a7.5,7.5,0,0,0-.7-1.2,47.4,47.4,0,0,0-6.9-9.1c-2.7-2.6-10.1-9.9-13.9-5s2.9,8.1,6.7,10.2l1.9.9,7.3,3.4,1.6.9,1.4.8a14.3,14.3,0,0,1,4.4,3.2l.3,1.6-4.3.7c-4.5,1-7.8,2.4-9,4,5.4,1.4,13.5,2.2,22.5,2.2s17.2-.8,22.6-2.2C73.1,106.5,69.8,105.1,65.3,104.1ZM40.9,89.2a1.4,1.4,0,0,1-.2-.6c-.3-2.4,1.5-5.6,2.5-7.5s3.2-5.8,4.9-8.7l.4-.5a16.5,16.5,0,0,0,1,1.9l.6,1.1c-3.3,1.9-5,8.5-5.6,11.3a48.1,48.1,0,0,0-1.3,10v1.9h0" style="fill:#084f4a"/><path d="M90.4,48.7c-4.5-5.5-12.9,2.9-15.9,6A53.2,53.2,0,0,0,65.7,67,224.3,224.3,0,0,1,76.8,39.6a.9.9,0,0,0-.1-.5,22.8,22.8,0,0,1-.2-2.7A234.9,234.9,0,0,0,64.1,66.7a9.9,9.9,0,0,1,.9,1.5h.1c0,.1,0,.2.1.2a6.1,6.1,0,0,1,.5,1.2h.1c0-.1.1-.2.2-.3h0a8.5,8.5,0,0,1,2.1-4.5A5.5,5.5,0,0,1,72.2,63l1.1.2a4.2,4.2,0,0,1,1.6,1.2l5.8-2.8a10.8,10.8,0,0,0,2.1-1.1C87.2,58.1,94,53.2,90.4,48.7Z" style="fill:#084f4a"/><path d="M60.5,51.2c-.1.3-.1.7-.2,1,.5,2.1.9,4.2,1.3,6.3s.5,4.5.7,6.8c.1,0,.2,0,.2.1A3.9,3.9,0,0,1,64,66.5c-.1-2.5-.4-5-.7-7.2s-.9-4.8-1.4-7.2a40.4,40.4,0,0,0-1.4-5.5L59,45.9c0,.2.1.3.1.5A11,11,0,0,1,60.5,51.2Z" style="fill:#084f4a"/><path d="M86.8,24.5h.1a6.5,6.5,0,0,0,2.4-.1h2.5l2.6.4,2.5.4a.5.5,0,0,0,.1-.9,21.4,21.4,0,0,0-2.7-.6l-2.6-.4a22.5,22.5,0,0,0-2.6,0,5.1,5.1,0,0,0-2.1.6h0C86.9,24.2,86.9,24.4,86.8,24.5Z" style="fill:#f9b22b"/><path d="M84.8,19.1l.8-1.1c.6-.8,1.1-1.6,1.6-2.4l1.2-2.5.6-1.3c.1-.4.4-.9.1-1.4l-.5-.2a1.4,1.4,0,0,0-.7,1l-.6,1.3A14.2,14.2,0,0,1,86.1,15c-.4.8-.9,1.5-1.4,2.3l-.8,1.2a5.6,5.6,0,0,0-.5.8l1,.3Z" style="fill:#f9b22b"/><path d="M78.5,18.3a11.6,11.6,0,0,0-3.4-3.9,4,4,0,0,0-1.7-.9.7.7,0,0,0-.7.6c0,.3.4.5.6.8L75,16.2a11.2,11.2,0,0,1,1.7,2,7.2,7.2,0,0,1,1.1,1.9,4.7,4.7,0,0,1,1.2-.7A5.4,5.4,0,0,0,78.5,18.3Z" style="fill:#f9b22b"/><path d="M76.5,23.8l-2.1.7a13.9,13.9,0,0,0-2.1,1.1l-1,.6-.4.4c-.2.1-.2.3-.3.4s.1.6.3.5l.5-.2.5-.2,1-.5,2.1-1,2.1-.7.8-.3a3.3,3.3,0,0,1-.6-1Z" style="fill:#f9b22b"/><path d="M82.7,26.6h-.1c.1.7.4,1.5.5,2.2a23.4,23.4,0,0,1,.4,2.6l.3,2.5a22.6,22.6,0,0,0,0,2.6.5.5,0,0,0,.8,0,7.6,7.6,0,0,0,0-2.6,24.5,24.5,0,0,0-.2-2.7,20.2,20.2,0,0,0-.4-2.6,11.7,11.7,0,0,0-.6-2Z" style="fill:#f9b22b"/><path d="M81,18.9a22.9,22.9,0,0,0-.2-2.5,20,20,0,0,0-.4-2.4c-.1-.4-.2-1.7-.9-1.7h-.2c-.4.1-.2.8-.1,1.2a.8.8,0,0,1,.1.4,20.5,20.5,0,0,1,.5,2.4,10.7,10.7,0,0,1,.3,2.5v.2H81Z" style="fill:#f9b22b"/><path d="M87.3,25.5l-.6-.6h0l-.6.7.4.5a11.5,11.5,0,0,1,1.4,1.7,13.3,13.3,0,0,1,1.4,1.9l1.1,1.6c.2.3.5.2.6-.1V31a1.7,1.7,0,0,0-.2-.5,30.2,30.2,0,0,0-2.1-3.3Z" style="fill:#f9b22b"/><path d="M76.9,33.1H77a9.1,9.1,0,0,0,1.7-1.7A15.9,15.9,0,0,0,80,29.2,8.8,8.8,0,0,0,81,27a1.4,1.4,0,0,0,.2-.6l-1-.2a.1.1,0,0,1-.1.1.4.4,0,0,1-.1.3,10.2,10.2,0,0,1-.9,2.2,19.8,19.8,0,0,1-1.1,2l-.9,1.4a4.3,4.3,0,0,0-.4.7c-.1.1,0,.2.1.2S76.9,33.2,76.9,33.1Z" style="fill:#f9b22b"/><path d="M86.7,21.6a1.8,1.8,0,0,0,.7-.5L89.2,20,91,18.9l.9-.5c.3-.1.6-.5.3-.7H92c-.2-.1-.4,0-.7.1l-.9.5-1.8,1-1.7,1.2-.7.5.3.3C86.6,21.4,86.7,21.5,86.7,21.6Z" style="fill:#f9b22b"/><path d="M82.6,26.6h.8a4.1,4.1,0,0,0,1.6-.3,2.6,2.6,0,0,0,1.1-.7l.6-.7h0c0-.1.1-.3.1-.4s.1-.3.2-.5h0a4.5,4.5,0,0,0-.3-2.3c0-.1-.1-.2-.2-.4l-.3-.3-.7-.7-.5-.3-.6-.3-1-.3a6.4,6.4,0,0,0-2-.3H79.7l-.7.2a4.7,4.7,0,0,0-1.2.7l-.2.3a2.6,2.6,0,0,0-.5,2.5v.2c.1.1.1.3.2.5a3.3,3.3,0,0,0,.6,1l.3.4a4.7,4.7,0,0,0,1.2.9l.8.3h0l1,.2Z" style="fill:#ee7b2c"/><path d="M72.3,82h.1a7.8,7.8,0,0,0,2.1-.2h2.2l2.3.4,2.2.3c.5.1.5-.6.1-.7a16.8,16.8,0,0,0-2.4-.6L76.6,81H74.3a4.1,4.1,0,0,0-1.9.5h0C72.4,81.8,72.3,81.9,72.3,82Z" style="fill:#f9b22b"/><path d="M70.5,77.3l.7-1c.5-.7,1-1.4,1.4-2.1s.8-1.5,1.1-2.2l.5-1.2c.1-.4.4-.8.1-1.2l-.4-.2c-.4.2-.5.5-.7.9s-.3.7-.4,1.1l-1.1,2.2a23.9,23.9,0,0,1-1.3,2.1,6.1,6.1,0,0,1-.7,1l-.4.7.8.3Z" style="fill:#f9b22b"/><path d="M64.9,76.6a8.6,8.6,0,0,0-1.5-2.2,4.6,4.6,0,0,0-.7-.7h-.1l-.6-.4h-.2a3.7,3.7,0,0,0-1.4-.7.6.6,0,0,0-.6.5c0,.3.4.5.6.7l1.2,1c.1.1.2.1.2.2a5.7,5.7,0,0,1,1.1,1.1l.5.6a7.6,7.6,0,0,1,.9,1.8,4.1,4.1,0,0,1,1.1-.7A4.1,4.1,0,0,0,64.9,76.6Z" style="fill:#f9b22b"/><path d="M63.2,81.4l-1.9.7h0a7.6,7.6,0,0,0-1.8.9h-.3l-.6.5-.3.2h0a.8.8,0,0,0-.4.4c-.1.2.1.4.3.4h1l.8-.4.9-.5.9-.4,1.9-.7h.7a3.1,3.1,0,0,1-.5-1Z" style="fill:#f9b22b"/><path d="M68.6,83.9h0a17.7,17.7,0,0,0,.4,2c.1.7.3,1.4.4,2.2s.1,1.5.2,2.2a8.7,8.7,0,0,0,.1,2.3c0,.3.5.3.6,0a8.9,8.9,0,0,0,.1-2.3c-.1-.8-.1-1.6-.2-2.4s-.3-1.5-.4-2.3-.3-1.2-.5-1.7Z" style="fill:#f9b22b"/><path d="M67.2,77.1c-.1-.7-.1-1.5-.2-2.2a15.5,15.5,0,0,0-.4-2.1c-.1-.4-.2-1.6-.8-1.5h-.1c-.4.2-.3.7-.1,1.1s0,.3.1.4.3,1.4.4,2.1l.3,2.2v.2h.8Z" style="fill:#f9b22b"/><path d="M72.7,82.9l-.5-.5h-.1a.9.9,0,0,1-.4.6l.3.4,1.3,1.5,1.2,1.7,1,1.5c.1.2.4.1.5-.1v-.2l-.2-.4a18.3,18.3,0,0,0-1.8-3Z" style="fill:#f9b22b"/><path d="M63.5,89.7c.1,0,.1,0,.1-.1a5.4,5.4,0,0,0,1.5-1.5,7.6,7.6,0,0,0,1.2-1.9l.9-2a1.7,1.7,0,0,1,.2-.5l-1-.2h0c0,.1-.1.2-.1.3a15.4,15.4,0,0,1-.8,1.9l-1,1.8-.8,1.2a2.1,2.1,0,0,1-.4.6.4.4,0,0,0,.1.3Z" style="fill:#f9b22b"/><path d="M72.2,79.5l.6-.4L74.4,78l1.6-.9.8-.5c.2-.1.5-.4.2-.6h-.1a.7.7,0,0,0-.6.1l-.8.4-1.6,1-1.6,1-.5.4c.1.1.1.2.2.4Z" style="fill:#f9b22b"/><path d="M68.6,83.9h.7a3.2,3.2,0,0,0,1.4-.3,2.1,2.1,0,0,0,1-.6.9.9,0,0,0,.4-.6h.1c0-.1.1-.2.1-.4s.1-.2.1-.4h0a2.7,2.7,0,0,0-.2-2l-.2-.3c-.1-.2-.1-.3-.2-.4l-.7-.6a.5.5,0,0,0-.4-.2l-.6-.3-.8-.3-1.8-.2H65.4a4.1,4.1,0,0,0-1.1.7l-.2.2a2.6,2.6,0,0,0-.4,2.2v.2l.2.4a3.1,3.1,0,0,0,.5,1l.3.3,1.1.8.6.2h0l1,.2Z" style="fill:#ee7b2c"/><path d="M55.4,40.4c0,.1,0,.1.1.1a7.8,7.8,0,0,0,2.1-.2h2.2l2.3.4,2.2.3c.5.1.5-.6.1-.7a16.8,16.8,0,0,0-2.4-.6l-2.3-.3a8.8,8.8,0,0,0-2.3,0,4.1,4.1,0,0,0-1.9.5h0C55.5,40.2,55.4,40.3,55.4,40.4Z" style="fill:#f9b22b"/><path d="M53.6,35.7l.7-1,1.4-2.1a22.6,22.6,0,0,0,1.1-2.2l.5-1.2c.1-.4.4-.8.1-1.2l-.4-.2c-.4.2-.5.5-.7.9s-.3.7-.4,1.1-.7,1.5-1.1,2.2a23.9,23.9,0,0,1-1.3,2.1,6.1,6.1,0,0,1-.7,1l-.4.7.8.3Z" style="fill:#f9b22b"/><path d="M48,35a9.9,9.9,0,0,0-2.9-3.5,4.8,4.8,0,0,0-1.6-.8.6.6,0,0,0-.6.5c0,.3.4.5.6.7l1.4,1.2a12.9,12.9,0,0,1,1.6,1.7,7.6,7.6,0,0,1,.9,1.8,4.1,4.1,0,0,1,1.1-.7A4.1,4.1,0,0,0,48,35Z" style="fill:#f9b22b"/><path d="M46.3,39.8l-1.9.7-1.8.9-.9.6-.3.3a.8.8,0,0,0-.4.4c-.1.2.1.4.3.4l.5-.2.4-.2.9-.4a15.1,15.1,0,0,1,1.8-.9l1.9-.6.7-.2a3.1,3.1,0,0,1-.5-1Z" style="fill:#f9b22b"/><path d="M52.5,46.5c.1.7.1,1.5.2,2.2a8.7,8.7,0,0,0,.1,2.3c0,.3.5.3.6,0a8.9,8.9,0,0,0,.1-2.3c-.1-.8-.1-1.6-.2-2.4s-.3-1.5-.4-2.3-.3-1.2-.5-1.7h-.7a17.7,17.7,0,0,0,.4,2C52.2,45,52.4,45.7,52.5,46.5Z" style="fill:#f9b22b"/><path d="M50.3,35.5c-.1-.7-.1-1.5-.2-2.2a15.5,15.5,0,0,0-.4-2.1c-.1-.4-.2-1.6-.8-1.5h-.1c-.4.2-.3.7-.1,1.1s0,.3.1.4.3,1.4.4,2.1l.3,2.2v.2h.8Z" style="fill:#f9b22b"/><path d="M54.8,41.4l.3.5a8.6,8.6,0,0,1,1.3,1.4L57.6,45l1,1.5c.1.2.4.1.5-.1s0-.1-.1-.2a.8.8,0,0,0-.2-.4,18.3,18.3,0,0,0-1.8-3l-1.2-1.5c-.2-.2-.4-.3-.5-.5h-.1A.9.9,0,0,1,54.8,41.4Z" style="fill:#f9b22b"/><path d="M46.6,48.1c.1,0,.1,0,.1-.1a5.4,5.4,0,0,0,1.5-1.5,7.6,7.6,0,0,0,1.2-1.9l.9-2a1.7,1.7,0,0,1,.2-.5l-1-.2h0c0,.1-.1.2-.1.3a15.4,15.4,0,0,1-.8,1.9l-1,1.8-.8,1.2a2.1,2.1,0,0,1-.4.6.4.4,0,0,0,.1.3Z" style="fill:#f9b22b"/><path d="M55.3,37.9l.6-.4,1.6-1.1,1.6-.9.8-.5c.2-.1.5-.4.2-.6H60a.7.7,0,0,0-.6.1l-.8.4-1.6,1-1.6,1-.5.4c.1.1.1.3.2.4Z" style="fill:#f9b22b"/><path d="M51.7,42.3h.7a3.2,3.2,0,0,0,1.4-.3,2.1,2.1,0,0,0,1-.6.9.9,0,0,0,.4-.6h.1c0-.1.1-.2.1-.4s.1-.2.1-.4h0a2.7,2.7,0,0,0-.2-2l-.2-.3c-.1-.1-.1-.3-.2-.4l-.7-.6a.5.5,0,0,0-.4-.2l-.6-.3-.8-.3-1.8-.2H48.5a4.1,4.1,0,0,0-1.1.7l-.2.2a2.8,2.8,0,0,0-.4,2.3h0c.1.1.1.3.2.4a3.1,3.1,0,0,0,.5,1l.3.3,1.1.8.6.2h0l1,.2Z" style="fill:#ee7b2c"/><path d="M41.1,57.9a15,15,0,0,0,.7-2A20.2,20.2,0,0,0,43,51.2h0a5.2,5.2,0,0,1-5.5-.5c-1.3-1.1-1.9-4.2-.3-5.4a1.9,1.9,0,0,1-1.3,0c-2.4,2.9-2.7,9-2.8,11.7a52.5,52.5,0,0,0,1.2,12.5v.2c0-2.1.2-4.2.4-6.2.4-4,.8-8.4,2.3-12.2a.3.3,0,0,1,.5.1c-.1,4-1.4,8.1-1.8,12.1a45.9,45.9,0,0,0,0,9.8.4.4,0,0,0,.1.3c0-2.2,1-4.8,1.5-6.5S39.9,60.9,41.1,57.9Z" style="fill:#3b7e82"/><path d="M21.5,38.7c-.5-4.1-1.2-8.7-.6-12.8a.3.3,0,0,1,.6,0c.8,3.9.5,8.1.9,12a65.5,65.5,0,0,0,2.7,11l.2.3c-.8-2.2-.4-5.4-.2-7.4S26,35,26.5,31.6q.2-.9.3-2.1c.4-4.5.2-12.1-4.9-11.7s-4.4,11-3.6,14.8a44.4,44.4,0,0,0,2.5,8.3l1.6,2.9A45.4,45.4,0,0,1,21.5,38.7Z" style="fill:#3b7e82"/><path d="M27.2,65.3c-3.1-2.7-6.8-4.8-9.6-7.7-.2-.2,0-.5.3-.4,3.6,1.7,7,4.8,10,7.4A61.6,61.6,0,0,1,32.4,69a46.2,46.2,0,0,0-7.7-10.3c-2.6-2.7-10-9.9-13.9-5.1s2.9,8.1,6.8,10.2l1.8,1c3,1.4,6.1,2.7,9,4.3s4.3,2.2,5.7,3.9h0A62.3,62.3,0,0,0,27.2,65.3Z" style="fill:#3b7e82"/><path d="M27.9,58.1h0Z" style="fill:#3b7e82"/><path d="M10.6,47.7l1.8.9c3,1.4,6.1,2.7,9,4.4s5.5,2.7,6.5,5.1l-.3-.7h0a57.1,57.1,0,0,0-7.4-8.2c-3-2.7-6.8-4.8-9.6-7.7-.2-.2.1-.5.3-.4,3.6,1.7,7,4.8,10,7.4a45.2,45.2,0,0,1,4.5,4.3l-.2-.3a42.4,42.4,0,0,0-7.5-9.9c-2.6-2.7-10-10-13.8-5.1S6.8,45.6,10.6,47.7Z" style="fill:#3b7e82"/><path d="M28.7,47.9c.4-4,.9-8.5,2.3-12.2a.3.3,0,0,1,.6.1c-.2,4-1.5,8-1.9,12.1a54.7,54.7,0,0,0,.1,10.7v.3l.3.7a1.9,1.9,0,0,1-.2-.8c-.4-2.3.8-5.3,1.5-7.3s1.8-4.8,2.8-7.2h0a2,2,0,0,1-.4-1.3,5,5,0,0,1,.6-2.4,5.9,5.9,0,0,1,1.8-1.7,23.4,23.4,0,0,0,.9-3.8,5.5,5.5,0,0,1-1.3-1.7,5.1,5.1,0,0,1-.5-4.5,3.4,3.4,0,0,0-1.5-.6c-6.1-.9-6.6,9.4-6.8,13.2a46.1,46.1,0,0,0,1.4,12.8A43.6,43.6,0,0,1,28.7,47.9Z" style="fill:#3b7e82"/><path d="M30.1,59.6v0Z" style="fill:#3b7e82"/><path d="M46.7,97l.6-.9c1.5-2.6,3.2-5,4.9-7.5l1-1.6a4.7,4.7,0,0,1-1.5-.6,1.2,1.2,0,0,1-.6-.6,2,2,0,0,1-.4-1.3,5,5,0,0,1,.6-2.4,7,7,0,0,1,2-1.8c-1-1.8-2.1-3.6-3.2-5.4-3.3,1.9-5,8.5-5.6,11.3a48.1,48.1,0,0,0-1.3,10v1.9h0V99a.6.6,0,0,0,.1-.4,4.3,4.3,0,0,0,.1-.5,13.3,13.3,0,0,1,.5-1.9l.9-3.4c1.2-3.7,2.5-8.1,4.7-11.4a.3.3,0,0,1,.5.2c-.9,3.8-2.9,7.4-4.1,11.1a24.6,24.6,0,0,0-.9,3.4,14.2,14.2,0,0,0-.4,2l-.6,3.6c0,.4-.1.7-.1,1a.4.4,0,0,1-.1.3v.2h.1a4.4,4.4,0,0,1,.2-1,20.3,20.3,0,0,1,2-4.2Z" style="fill:#3b7e82"/><path d="M37.8,98.6a14.3,14.3,0,0,1,4.4,3.2,3.3,3.3,0,0,1,.6,1h.1v-.2a.8.8,0,0,0-.2-.4l-.4-.6-2.7-3.3-1.6-1.8A33.8,33.8,0,0,0,35.2,94c-3-2.6-6.8-4.7-9.6-7.6-.2-.2.1-.6.4-.4,3.5,1.6,7,4.7,9.9,7.3l3.4,3.2,1.1,1.2a7.5,7.5,0,0,0-.7-1.2,47.4,47.4,0,0,0-6.9-9.1c-2.7-2.6-10.1-9.9-13.9-5s2.9,8.1,6.7,10.2l1.9.9,7.3,3.4,1.6.9Z" style="fill:#3b7e82"/><path d="M42.9,102.9v0Z" style="fill:#3b7e82"/><path d="M39.3,88.8l-.2-.2a60.5,60.5,0,0,0-7.2-8c-3-2.7-6.8-4.8-9.6-7.7-.2-.2,0-.5.3-.4,3.6,1.7,7,4.8,10,7.4a60.5,60.5,0,0,1,4.5,4.3A48,48,0,0,0,29.4,74c-2.6-2.7-10-9.9-13.9-5.1s3,8.1,6.8,10.2l1.8,1c3,1.4,6.1,2.7,9,4.3s4.8,2.4,6.1,4.4l.3.7A1.9,1.9,0,0,0,39.3,88.8Z" style="fill:#3b7e82"/><path d="M39.5,89.5h0Z" style="fill:#3b7e82"/><polygon points="66 69.4 66 69.4 66 69.4 66 69.4" style="fill:#116c65"/><path d="M65.4,67.7l.2-.2a43.4,43.4,0,0,1,5.2-5.3c1.9-1.7,3.8-3.2,5.8-4.7s3.7-3.1,5.8-3.9a.5.5,0,0,1,.4.8c-1.3,1.6-3.5,2.9-5.2,4.2L72.2,63l1.1.2a4.2,4.2,0,0,1,1.6,1.2l5.8-2.8a10.8,10.8,0,0,0,2.1-1.1c4.4-2.4,11.2-7.3,7.6-11.8s-12.9,2.9-15.9,6A53.2,53.2,0,0,0,65.7,67l-.6,1.1Z" style="fill:#3b7e82"/><path d="M57.5,78.9l-.4-.2V79Z" style="fill:#116862"/><path d="M52.6,66.2a10.1,10.1,0,0,1,1.2,2.3c1.3-.7,3.1-.9,4.1,0-1.2-5.1-3.7-12.6-9.2-10.9l-1.2.6c-4.9.1-6.6,8.9-7.2,12.2a47.3,47.3,0,0,0-.5,13,53.1,53.1,0,0,1,1.2-6c1-3.9,2.1-8.5,4.1-12,.2-.3.5-.1.5.2-.7,3.8-2.5,7.5-3.5,11.4a52.9,52.9,0,0,0-1.5,11.2c0,.1.1.2.1.4-.3-2.4,1.5-5.6,2.5-7.5s3.2-5.8,4.9-8.7l.4-.5a16.5,16.5,0,0,0,1,1.9l.6,1.1c1.1,1.8,2.2,3.6,3.2,5.4a11.7,11.7,0,0,1,2.4-.9h0a10.9,10.9,0,0,1-.5-1.7,8.1,8.1,0,0,1-2.5-2.7,1.1,1.1,0,0,1-.3-.6,5,5,0,0,1,.1-4.6,20.6,20.6,0,0,1-.7-3.2C51.7,66,52.4,65.9,52.6,66.2Z" style="fill:#3b7e82"/><path d="M48.7,57.6l-1.2.6c-3.8,2.4-1.2,9.4.9,13.5v.2a16.5,16.5,0,0,0,1,1.9l.6,1.1c1.1,1.8,2.2,3.6,3.2,5.4a11.7,11.7,0,0,1,2.4-.9h0a10.9,10.9,0,0,1-.5-1.7,8.1,8.1,0,0,1-2.5-2.7,1.1,1.1,0,0,1-.3-.6,5,5,0,0,1,.1-4.6,20.6,20.6,0,0,1-.7-3.2c-.1-.5.6-.6.8-.3a10.1,10.1,0,0,1,1.2,2.3c1.3-.7,3.1-.9,4.1,0C56.7,63.4,54.2,55.9,48.7,57.6Z" style="fill:#2e5b1d"/><path d="M22.3,17.8c4.8,0,4.9,7.3,4.5,11.7q-.2,1.2-.3,2.1c-.5,3.4-1.1,6.7-1.4,10.2s-.6,5.2.2,7.4l.5,1.2c.9,1.7,1.8,3.5,2.6,5.3V54.2A46.1,46.1,0,0,1,27,41.4c.2-3.6.7-13.2,6-13.2h.8a3.4,3.4,0,0,1,1.5.6,5.1,5.1,0,0,0,.5,4.5A5.5,5.5,0,0,0,37.1,35a23.4,23.4,0,0,1-.9,3.8,5.9,5.9,0,0,0-1.8,1.7,5,5,0,0,0-.6,2.4,2,2,0,0,0,.4,1.3h0c-1,2.4-2,4.7-2.8,7.2s-1.9,5-1.5,7.3,3.1,7.1,4.4,10.7A52.5,52.5,0,0,1,33.1,57c.1-2.7.4-8.8,2.8-11.7h1.3c-1.6,1.2-1,4.3.3,5.4a4.3,4.3,0,0,0,3,1.1,5.4,5.4,0,0,0,2.5-.6h0a20.2,20.2,0,0,1-1.2,4.7,15,15,0,0,1-.7,2c-1.2,3-2.6,6.1-3.7,9.2s-1.5,4.3-1.5,6.5c1.4,3.7,2.6,7.6,3.8,11.4,0-.5.1-1.1.1-1.6a47.3,47.3,0,0,1,.5-13c.6-3.3,2.3-12.1,7.2-12.2l1.2-.6,1.5-.2c4.5,0,6.6,6.5,7.7,11.1a2.8,2.8,0,0,0-1.8-.6,4.6,4.6,0,0,0-2.3.6,4,4,0,0,0-1.2,1v.2a5,5,0,0,0-.1,4.6,1.1,1.1,0,0,0,.3.6,8.1,8.1,0,0,0,2.5,2.7l1,.6a2,2,0,0,0,.8.4h.1l.4.2h-.3l-1.1.2-.4.2a11.7,11.7,0,0,0-2.4.9,7,7,0,0,0-2,1.8,5,5,0,0,0-.6,2.4,2,2,0,0,0,.4,1.3,1.2,1.2,0,0,0,.6.6,4.7,4.7,0,0,0,1.5.6l-1,1.6c-1.7,2.5-3.4,4.9-4.9,7.5l-.6.9-.6,1a20.3,20.3,0,0,0-2,4.2c.1.4.1.7.2,1,2.3-.2,4.8-.4,7.4-.4h3.5c.2-1.6.5-3.3.8-5s.3-1.2.4-1.8a25.6,25.6,0,0,0,.5-2.7h.7l1.2-.2h.1a1.7,1.7,0,0,1-.1.7c0,.1-.1.3-.2.3l-.3,1.9L58,98l-.9,5a60.4,60.4,0,0,1,8.2,1.1c4.5,1,7.8,2.4,9,4-5.4,1.4-13.5,2.2-22.6,2.2s-17.1-.8-22.5-2.2c1.2-1.6,4.5-3,9-4l4.3-.7-.3-1.6a14.3,14.3,0,0,0-4.4-3.2l-1.4-.8-1.6-.9-7.3-3.4-1.9-.9c-3.8-2.1-9.8-6.3-6.7-10.2a3.9,3.9,0,0,1,3.3-1.7c3.8,0,8.6,4.7,10.6,6.7a47.4,47.4,0,0,1,6.9,9.1,7.5,7.5,0,0,1,.7,1.2l.6.6.6.8c0-.3-.1-.5-.1-.8s-.3-1.3-.5-1.9c-.4-2.2-.9-4.3-1.5-6.4l-.3-1.2c-1.3-2-4.3-3.4-6.1-4.4s-6-2.9-9-4.3l-1.8-1c-3.8-2.1-9.9-6.3-6.8-10.2a4.4,4.4,0,0,1,3.3-1.6c3.9,0,8.6,4.7,10.6,6.7a48,48,0,0,1,7.7,10.2l1.2,1.5C37,81.4,35.6,77.2,34.1,73c-1.4-1.7-4.1-3-5.7-3.9s-6-2.9-9-4.3l-1.8-1c-3.9-2.1-9.9-6.3-6.8-10.2A4.2,4.2,0,0,1,14.1,52c3.8,0,8.6,4.7,10.6,6.7A46.2,46.2,0,0,1,32.4,69l.3.3c-1.6-4-3.2-8-5.1-11.9l.3.7c-1-2.4-4.5-4-6.5-5.1s-6-3-9-4.4l-1.8-.9C6.8,45.6.8,41.4,3.9,37.5a3.8,3.8,0,0,1,3.2-1.6c3.9,0,8.6,4.6,10.6,6.7a42.4,42.4,0,0,1,7.5,9.9q-3.6-7.2-7.8-14.1a.8.8,0,0,1,.8-1.2.7.7,0,0,1,.6.4l2,3.3a44.4,44.4,0,0,1-2.5-8.3c-.8-3.8-2.8-14.3,3.6-14.8h.4M43.2,98.1h0V96.2a48.1,48.1,0,0,1,1.3-10c.6-2.8,2.3-9.4,5.6-11.3l-.6-1.1a16.5,16.5,0,0,1-1-1.9l-.4.5c-1.7,2.9-3.4,5.7-4.9,8.7s-2.8,5.1-2.5,7.5a1.4,1.4,0,0,0,.2.6l2.3,8.9m15.7-4.9h0M22.3,14.8h-.6a7.3,7.3,0,0,0-5.3,2.9c-3,3.9-2,10.7-1.1,15.5a11.6,11.6,0,0,1,.4,1.8,3.9,3.9,0,0,0-.8,1,13.5,13.5,0,0,0-7.8-3.1,6.9,6.9,0,0,0-5.6,2.7A6.6,6.6,0,0,0,.1,41.1c.9,4,5.4,7.2,9.1,9.2l.4.3a4.3,4.3,0,0,0-1.1,1.2,6.3,6.3,0,0,0-1.4,5.4c.7,3.5,4.2,6.4,7.6,8.4a5.4,5.4,0,0,0-1.5,1.5,6.3,6.3,0,0,0-1.4,5.4c.6,2.8,3,5.2,5.6,7.1l-.9.9A6.4,6.4,0,0,0,15.2,86c.8,4,5.3,7.2,9,9.2l2,1,1.9.9,5.3,2.5,1.6.9.7.4.7.3.3.2c-5.1,1.1-8.4,2.8-10,5a3.1,3.1,0,0,0-.4,2.8,3.1,3.1,0,0,0,2.1,1.8c5.9,1.5,14.4,2.3,23.3,2.3s17.5-.8,23.3-2.3a2.8,2.8,0,0,0,2.1-1.8,3.1,3.1,0,0,0-.3-2.8c-1.7-2.3-5.4-4.1-10.9-5.2a41.8,41.8,0,0,0-5.3-.9l.3-1.8.3-1.9.3-1.3a1.9,1.9,0,0,0,.2-.8c.1-.2.1-.5.2-.7v-.6a2.9,2.9,0,0,0-2.9-3H56.9A2.9,2.9,0,0,0,54,92.7l-.6,2.8-.3,1.9c-.2.8-.3,1.7-.5,2.5H48.5c.1-.1.1-.3.2-.4l.2-.3a3,3,0,0,0,.4-.8,2.2,2.2,0,0,0,.5-.8L53.5,92l1.1-1.7a11.8,11.8,0,0,0,1.1-1.8,2.8,2.8,0,0,0,.2-2.8A3.2,3.2,0,0,0,53.7,84l.2-.3c0-.1.2-.4.9-.7a7.8,7.8,0,0,1,1.8-.8H57l.9-.2h.3a3,3,0,0,0,2.3-2.6,2.9,2.9,0,0,0-1.7-3l-.4-.2h-.1l-.6-.3-.8-.5a5.1,5.1,0,0,1-1.6-1.7l-.2-.3a1.9,1.9,0,0,1,0-1.8h0l.2-.2.7-.2a3.3,3.3,0,0,0,1.9.6,2.3,2.3,0,0,0,1.4-.4,2.8,2.8,0,0,0,1.5-3.2c-2-9-5.6-13.5-10.6-13.5a6.7,6.7,0,0,0-2.4.4l-1.2.5a3.7,3.7,0,0,0-1.5.3,32.3,32.3,0,0,0,.9-3.9,3,3,0,0,0-1.2-2.9,2.8,2.8,0,0,0-1.8-.6,2.7,2.7,0,0,0-1.2.3h-.1a2.7,2.7,0,0,1-1.2.3,1.7,1.7,0,0,1-1-.3,2.9,2.9,0,0,1-.3-1,2.9,2.9,0,0,0,.7-3.5,2.9,2.9,0,0,0-2.7-1.7h-.4c.1-.1.1-.2.2-.2s.2-.3.7-.7a2.6,2.6,0,0,0,1.4-1.7,19.1,19.1,0,0,0,.9-4.4,3,3,0,0,0-.9-2.5,3.6,3.6,0,0,1-.7-1,2.4,2.4,0,0,1-.3-2,3,3,0,0,0-1.2-3.6,6.2,6.2,0,0,0-2.6-.9H33a6.7,6.7,0,0,0-3.1.7c0-3.4-.7-6.8-2.6-8.9a6.3,6.3,0,0,0-5-2.2Z" style="fill:#28575c"/><path d="M59,45.9l1.5.7a40.4,40.4,0,0,1,1.4,5.5c.5,2.4,1,4.8,1.4,7.2s.6,4.7.7,7.2a3.9,3.9,0,0,0-1.5-1.1c0-.1-.1-.1-.2-.1-.2-2.3-.4-4.6-.7-6.8s-.8-4.2-1.3-6.3c.1-.3.1-.7.2-1a11,11,0,0,0-1.4-4.8c0-.2-.1-.3-.1-.5m0-3a3.2,3.2,0,0,0-1.6.4A3.3,3.3,0,0,0,56,46c0,.3.1.5.1.7a2,2,0,0,0,.3,1.1,7,7,0,0,1,1.1,3.3c0,.1-.1.3-.1.4a3.3,3.3,0,0,0,0,1.4c.5,2.3.9,4.2,1.2,6.1s.6,4.4.7,6.4A2.8,2.8,0,0,0,61.2,68h0l.5.4a2.9,2.9,0,0,0,2.3,1,1.8,1.8,0,0,0,1-.2,3,3,0,0,0,2-2.8c-.1-2.7-.5-5.4-.8-7.6s-.8-4.7-1.4-7.4a5,5,0,0,0-.2-1.2,46.4,46.4,0,0,0-1.2-4.7,3,3,0,0,0-1.6-1.7l-1.3-.6a2.8,2.8,0,0,0-1.5-.4Z" style="fill:#28575c"/><path d="M76.5,36.4a22.8,22.8,0,0,0,.2,2.7.9.9,0,0,1,.1.5A224.3,224.3,0,0,0,65.7,67a53.2,53.2,0,0,1,8.8-12.3c2.3-2.3,7.8-7.8,12.2-7.8a4.4,4.4,0,0,1,3.7,1.8c3.6,4.5-3.2,9.4-7.6,11.8a10.8,10.8,0,0,1-2.1,1.1l-5.8,2.8a4.2,4.2,0,0,0-1.6-1.2L72.2,63H72a5.6,5.6,0,0,0-3.9,1.9A8.5,8.5,0,0,0,66,69.4h0c-.1.1-.2.2-.2.3h-.1a6.1,6.1,0,0,0-.5-1.2c-.1,0-.1-.1-.1-.2H65a9.9,9.9,0,0,0-.9-1.5A234.9,234.9,0,0,1,76.5,36.4m0-3a3.1,3.1,0,0,0-2.7,1.7A240,240,0,0,0,61.2,65.7a3,3,0,0,0,.5,2.8,4.1,4.1,0,0,1,.7,1.1v.2a3,3,0,0,1,.4,1H63a3.1,3.1,0,0,0,2.4,1.9h.4a3,3,0,0,0,2.4-1.2v-.2a3.1,3.1,0,0,0,.6-1.3,6.9,6.9,0,0,1,1.4-3.1A2.9,2.9,0,0,1,72,66h.3q.2,0,.3.3a3.4,3.4,0,0,0,2.3,1,3.1,3.1,0,0,0,1.3-.3l3.6-1.7L82,64.3l2.3-1.1c4.1-2.3,9.1-6,10-10.5a7.1,7.1,0,0,0-1.5-5.9,7.8,7.8,0,0,0-6.1-2.9c-3.9,0-7.9,2.7-11.2,5.7,1.3-2.9,2.6-5.8,4-8.7a3,3,0,0,0,.2-2.1v-.2a14.9,14.9,0,0,1-.2-2.1,3.1,3.1,0,0,0-2.3-3Zm0,6Z" style="fill:#28575c"/><path d="M41,98.3l.6.8c0-.3-.1-.5-.1-.8s-.3-1.3-.5-1.9H39.7a7.5,7.5,0,0,1,.7,1.2Z" style="fill:#eda677"/><path d="M87.8,104.1c0-3-7.5-5.7-18.6-7.1l-.2.3a3.1,3.1,0,0,1-2.6,1.2,3.2,3.2,0,0,1-2.5-2l-5.6-.4L58,98l-.9,5a60.4,60.4,0,0,1,8.2,1.1c4.5,1,7.8,2.4,9,4-5.4,1.4-13.5,2.2-22.6,2.2s-17.1-.8-22.5-2.2c1.2-1.6,4.5-3,9-4l4.3-.7-.3-1.6a14.3,14.3,0,0,0-4.4-3.2l-1.4-.8-1.6-.9c-11.4,1.4-19.1,4.1-19.1,7.2h0a.9.9,0,0,0,.1.5l5.8,44c0,4.4,13.5,8.1,30.1,8.1a117.7,117.7,0,0,0,14-.9c9.6-1.4,16.2-4.1,16.2-7.2l5.8-44a.9.9,0,0,0,.1-.5Z" style="fill:#e57225"/><path d="M51.7,102.8h3.5c.2-1.6.5-3.3.8-5s.3-1.2.4-1.8H47.3l-.6.9-.6,1a20.3,20.3,0,0,0-2,4.2c.1.4.1.7.2,1C46.6,103,49.1,102.8,51.7,102.8Z" style="fill:#e57225"/><path d="M43.2,98.2h0V96.2h-.5a18,18,0,0,1,.5,1.9Z" style="fill:#eda677"/><path d="M37.8,98.6c-9.3,1.1-15.7,3.1-15.7,5.5h0c0,1.5,2.7,2.9,7.1,4,1.2-1.6,4.5-3,9-4l4.3-.7-.3-1.6A14.3,14.3,0,0,0,37.8,98.6Z" style="fill:#fcae7a"/><path d="M41.6,99.1c0-.3-.1-.5-.1-.8H41Z" style="fill:#dc905b"/><path d="M46.1,98a20.3,20.3,0,0,0-2,4.2c.1.4.1.7.2,1,2.3-.2,4.8-.4,7.4-.4h3.5c.2-1.6.5-3.3.8-5H46.1Z" style="fill:#fcae7a"/><path d="M81.4,104.1h0c0-3-10.1-5.5-23.4-6.1l-.9,5a60.4,60.4,0,0,1,8.2,1.1c4.5,1,7.8,2.4,9,4C78.7,107,81.4,105.6,81.4,104.1Z" style="fill:#fcae7a"/><path d="M43.2,98.1a18,18,0,0,0-.5-1.9l-1.8-7" style="fill:#084f4a"/></g></g></svg>