<svg xmlns="http://www.w3.org/2000/svg" viewBox="0 0 115 229.1"><g style="isolation:isolate"><g id="Layer_2" data-name="Layer 2"><g id="Layer_1-2" data-name="Layer 1"><path d="M51.9,202.9h-.1c-5.5-.5-9.8-2.7-12.8-6.7-7.3-9.3-4.8-24.9-4.7-25.6a1.2,1.2,0,0,1,1.4-1,1.1,1.1,0,0,1,1,1.4h0c0,.2-2.4,15.2,4.2,23.7A15,15,0,0,0,52,200.4a1.1,1.1,0,0,1,1.1,1.3A1.2,1.2,0,0,1,51.9,202.9Z" style="fill:#6c6120"/><path d="M52.5,193h-.6a1.2,1.2,0,0,1-1.1-1.4,1.2,1.2,0,0,1,1.3-1.1,11,11,0,0,0,7.8-3c3.7-3.5,5.4-9.7,5.1-18.3a1.2,1.2,0,0,1,1.2-1.3,1.4,1.4,0,0,1,1.3,1.2c.3,9.4-1.7,16.2-5.9,20.2A13.3,13.3,0,0,1,52.5,193Z" style="fill:#6c6120"/><path d="M74.4,184.1c-4.1,0-8.1-1.1-11.9-2.1a49.2,49.2,0,0,0-9.7-2H51.1c-4.3,0-8.7,1-13,1.9a61.2,61.2,0,0,1-13.3,2,22.2,22.2,0,0,1-7.9-1.3C5.5,178.4.6,164.8,1.6,153.4c.7-7.9,3.4-15,6.5-22.9l1.9-4.8,1.8-4.6a128.9,128.9,0,0,0,4.1-13.8,121.7,121.7,0,0,0,3.3-23.9c.1-1.5.1-3.2.1-5V75.9c0-2,0-4.1-.1-6.2a155,155,0,0,1,.7-21.5,45,45,0,0,1,.8-5.1c0-.2.1-.5.1-.8a4.5,4.5,0,0,0,.2-.8l.3-.9.2-1,.4-1.3.4-.9.3-1,.6-1.4.4-1.1.5-1.1.4-1,.5-1.1.5-1,.6-1.1.5-1.1.6-1.1.9-1.6.6-1.1.6-1.1.7-1.1.7-1,.7-1.1.7-1,1.3-1.9,1-1.4.2-.3.8-1,.8-.9.4-.6.8-.9.3-.3,1.2.9-1.1-1,.5-.6L39.7,9l.6-.6.3-.3.5-.5.3-.2.8-.7.6-.5.3-.2.6-.5h.1A16.4,16.4,0,0,1,46,4l.2-.2.6-.3h.3l.6-.3.3-.2.6-.2h.1l.8-.3h.1a9.8,9.8,0,0,1,2.3-.6h3.7l2.3.6h.2l.6.3H59l.5.3.3.2.6.4.3.2.5.4.2.2c2.9,2.5,5.4,6.5,7.3,11.9s2.5,11.9,2.9,17.9a81.2,81.2,0,0,0,.7,8.5,61.9,61.9,0,0,0,7.8,23.2c3.5,6.2,8.2,11.8,12.7,17.2s10.1,12.2,13.9,19.2c12.1,22.6,7.5,53.3-10.7,71.3-6.6,6.6-13.8,10.2-20.7,10.5Z" style="fill:#3b7e82"/><path d="M53.9,3h1.5l1.9.5h.2l.5.2.3.2.5.2.2.2.5.3.3.2.5.4.2.2c2.5,2.2,4.9,5.8,6.8,11.2,3.1,8.3,2.4,17.4,3.5,26.1a63.3,63.3,0,0,0,8,23.8c7.5,13,19.4,23.1,26.5,36.3,11.9,22.2,7.5,51.9-10.4,69.6-5.3,5.3-12.1,9.6-19.6,10h-.9c-7.3,0-14.2-3.6-21.5-4.1H51.1c-8.8,0-17.7,3.9-26.3,3.9a21.2,21.2,0,0,1-7.4-1.2C6.9,177.4,2.1,164.6,3.1,153.5c.7-7.8,3.5-15.1,6.4-22.4.6-1.4,1.1-2.8,1.7-4.3a1.4,1.4,0,0,0,.2-.6l1.8-4.6a107.9,107.9,0,0,0,4.2-14,122.6,122.6,0,0,0,3.3-24.1c.1-1.7.1-3.4.1-5.1V75.9c0-9.2-.5-18.4.6-27.5.2-1.7.4-3.3.7-5,.1-.2.1-.5.2-.8a.3.3,0,0,1,.1-.2,1.3,1.3,0,0,1,.1-.6.4.4,0,0,1,.1-.3c0-.2.1-.3.1-.5s.1-.3.1-.4l.2-.5a.6.6,0,0,1,.1-.4,1.4,1.4,0,0,1,.2-.6.4.4,0,0,1,.1-.3c.1-.3.1-.5.2-.8a.1.1,0,0,0,.1-.1l.3-1,.2-.3a1.9,1.9,0,0,1,.2-.7l.2-.4c.1-.2.1-.4.2-.6s.1-.3.2-.4l.3-.6c0-.2.1-.3.1-.4l.3-.7c.1-.1.1-.3.2-.4l.4-.8a.4.4,0,0,1,.1-.3,9.3,9.3,0,0,0,.5-1c0-.1.1-.2.2-.4l.3-.7.3-.4.3-.6c.1-.2.1-.4.2-.5l.3-.6.3-.5.3-.6.3-.5.4-.6.2-.5.6-1,.3-.5a2.1,2.1,0,0,0,.4-.6l.3-.5.3-.5a2.1,2.1,0,0,0,.4-.6l.3-.5.4-.5.3-.5.4-.6.3-.4.4-.6.2-.2a6.4,6.4,0,0,1,1-1.3l.2-.4.5-.6.3-.3.4-.6.3-.4c.2-.1.3-.3.5-.5l.3-.3.5-.6.2-.3.5-.6h.1L40.8,10h0l.6-.6.2-.2.6-.5.2-.2L43,8l.2-.2.6-.5H44l.6-.5a.1.1,0,0,0,.1-.1l2-1.3c.1-.1.2-.1.2-.2l.6-.3h.3l.5-.3h.3l.5-.3h.3l.6-.2h.1a7.3,7.3,0,0,1,2-.5h.8c0-.1.1-.1.2-.1h.8m0-3H51.6L49.1.8H49l-.7.3H48l-.7.3H47l-.6.3-.3.2h0l-.7.4h-.2c-.8.4-1.5,1-2.3,1.5h-.1l-.6.5h-.3l-.6.5-.3.2-.6.5-.3.3-.5.5-.2.2h-.1l-.6.6h0L37.2,9.4h-.1l-.5.6h-.1l-.2.2-.5.6-.3.4c-.2.1-.3.3-.5.5l-.3.4-.5.6-.2.3h-.2l-.4.5v.2h-.1l-1,1.4h-.1v.2l-.4.5h-.1l-.3.3-.3.6-.4.5-.4.6-.3.5-.4.6-.3.4H29l-.3.4-.3.6h0v.2l-.2.3-.7,1.1-.2.3v.2h-.1l-.3.5-.2.4h-.1l-.3.6-.3.6-.3.6-.3.5-.3.6h-.1l-.2.4-.3.7h-.1V29a5.4,5.4,0,0,0-.5,1.1v.2h-.1l-.3.8-.2.3h0l-.3.7-.2.4-.3.6-.2.5a1.4,1.4,0,0,1-.2.6h0l-.2.3a2.5,2.5,0,0,0-.2.7v.4l-.3,1h-.1l-.3.9v.2h0c-.1.2-.1.4-.2.6v.4h0c-.1.2-.1.4-.2.6v.4a4.3,4.3,0,0,1-.1.5h-.1v.3c-.1.2-.1.4-.2.6h0V42a2.9,2.9,0,0,0-.2.9c-.3,1.6-.6,3.3-.8,5.1a159.4,159.4,0,0,0-.7,21.8c.1,2,.1,4.1.1,6.1v2.5c0,1.8,0,3.4-.1,4.9a125.2,125.2,0,0,1-3.2,23.6,120.7,120.7,0,0,1-4.1,13.7c-.5,1.3-1,2.7-1.8,4.5l-.2.6c-.4,1-.8,1.9-1.1,2.9L6.7,130c-3,7.6-5.9,15.2-6.6,23.2-1,12,4.2,26.4,16.3,30.8a25.5,25.5,0,0,0,8.4,1.4,62,62,0,0,0,13.6-2,58.3,58.3,0,0,1,12.7-1.9h1.6a47.5,47.5,0,0,1,9.4,1.9,45.3,45.3,0,0,0,12.3,2.2h1c7.3-.4,14.7-4.1,21.6-10.9a63.7,63.7,0,0,0,11-73.1c-3.9-7.1-9-13.4-14.1-19.4s-9-11-12.5-17a61,61,0,0,1-7.6-22.7,77.1,77.1,0,0,1-.7-8.4c-.4-6-.8-12.3-2.9-18.3S65.5,5.9,62.4,3.3h0l-.2-.2-.6-.5-.4-.2L60.6,2l-.3-.2-.6-.4h-.4L58.7.9h-.3A7.2,7.2,0,0,0,55.9.2h-2Z" style="fill:#28575c"/><g style="opacity:0.5;mix-blend-mode:screen"><path d="M20.4,103c.4-4.8,1.9-9.3,3.4-13.8h0l.9-2.7a.4.4,0,0,0,.1-.3c.4-1,.7-1.9,1-2.9A83.3,83.3,0,0,0,28,74.7a93.3,93.3,0,0,0,1.8-14.9V55.2c0-5.7-.3-11.4.3-17,.1-1,.2-2.1.4-3.1s.1-.3.1-.4v-.2c.1-.1.1-.2.1-.4h0a.8.8,0,0,0,.1-.4.3.3,0,0,0,.1-.2.4.4,0,0,1,.1-.3v-.2c0-.2.1-.3.1-.4s.1-.1.1-.2.1-.3.1-.5h0a1.4,1.4,0,0,0,.2-.6.3.3,0,0,0,.1-.2c0-.1.1-.2.1-.4v-.2a.8.8,0,0,0,.1-.4.4.4,0,0,0,.1-.3c.1-.1.1-.2.2-.4V29c0-.1.1-.3.1-.4s.1-.2.1-.3.1-.3.2-.4v-.2c.1-.2.1-.4.2-.6a.4.4,0,0,0,.1-.3.8.8,0,0,0,.2-.4.4.4,0,0,0,.1-.3.5.5,0,0,0,.2-.4.4.4,0,0,0,.1-.3l.2-.3c.1-.1.1-.2.2-.4s.1-.2.1-.3l.2-.3a.8.8,0,0,1,.2-.4c0-.1.1-.2.1-.3l.3-.6.2-.3a.8.8,0,0,1,.2-.4c0-.1.1-.2.1-.3s.2-.2.2-.3l.2-.4.2-.3c0-.1.1-.2.2-.3s.1-.2.1-.3l.3-.3v-.3a.8.8,0,0,0,.2-.4h.1l.5-.8.2-.2.2-.4.2-.2a.8.8,0,0,1,.2-.4c.1,0,.1-.1.2-.2l.2-.3c.1-.1.1-.2.2-.2l.2-.4.2-.2.2-.3h.1l.7-.8h0l.3-.3.2-.2.2-.2.2-.2.3-.3h.1l.3-.3h.1l.3-.3h.1a4.8,4.8,0,0,1,1.1-.9h.1l.3-.2h.1l.3-.2h.9l1.1-.3h1.8l1,.3h.9l.2.2.2.2.2.2h.2q2,1.9,3.6,6.9c1.6,5.1,1.2,10.7,1.8,16.1a43.1,43.1,0,0,0,4.3,14.7c3.9,8,10.3,14.2,14,22.4,6.3,13.6,4,31.9-5.5,42.8-2.8,3.3-6.4,6-10.4,6.2s-7.9-2.2-11.9-2.5c-6.3-.5-12.8,4.1-18.8,1.6S19.9,109.8,20.4,103Z" style="fill:#98d9e4"/></g><path d="M52.5,3.2,53.9,224a1.9,1.9,0,0,1-2,2,2,2,0,0,1-2.1-2h0L51.2,3.2a.7.7,0,0,1,.7-.6A.6.6,0,0,1,52.5,3.2Z" style="fill:#6c6120"/><path d="M51.9,90.7a.8.8,0,0,1-.7-.7C51.2,69.2,44,55.3,38,47.2S24.9,34.8,24.8,34.8a.8.8,0,0,1-.3-1,.8.8,0,0,1,1-.2c.3.1,6.9,3.9,13.6,12.8S52.6,68.8,52.6,90A.8.8,0,0,1,51.9,90.7Z" style="fill:#6c6120"/><path d="M51.9,138.6h-.1c-.4,0-.6-.3-.6-.7,1.7-19.6,7.9-33.6,18.5-41.6a36.7,36.7,0,0,1,26.9-7,.6.6,0,0,1,.5.8.6.6,0,0,1-.8.5c-.1,0-13.8-2.3-25.8,6.8-10.2,7.8-16.3,21.5-17.9,40.6A.7.7,0,0,1,51.9,138.6Z" style="fill:#6c6120"/><path d="M51.9,174.8h-.2a.7.7,0,0,1-.5-.6c0-8.4-2.7-14.6-8-18.4-13.4-9.9-39.6-1.7-39.9-1.6a.7.7,0,0,1-.8-.5c-.2-.4,0-.7.4-.9a87.1,87.1,0,0,1,15.2-2.9c7.8-.8,18.6-.6,26,4.8,5.2,3.8,8,9.7,8.4,17.5a134.9,134.9,0,0,1,12-13c10.5-9.7,20-14.9,28.2-15.2,6.2-.3,11.5,2.1,16,7.1a.8.8,0,0,1,0,1,.7.7,0,0,1-1-.1c-4.2-4.6-9.2-6.9-14.9-6.7-19,.9-40.2,29-40.4,29.3Z" style="fill:#6c6120"/><path d="M110.7,118.6a.6.6,0,0,1-.6-.5c-3.1-7.8-8-13.1-14.7-15.7-14.6-5.6-32.8,3.4-33,3.5a.7.7,0,0,1-.9-.3.6.6,0,0,1,.3-.9c.8-.4,18.9-9.4,34.1-3.6,7,2.7,12.2,8.3,15.4,16.5a.6.6,0,0,1-.3.9Z" style="fill:#6c6120"/><path d="M49.9,72.6a.5.5,0,0,1-.5-.3c-.1-.1-12-13.2-21.6-13.3a8.8,8.8,0,0,0-6.6,2.9.8.8,0,0,1-1,.1.7.7,0,0,1,0-1,9.7,9.7,0,0,1,7.6-3.4c10.3.1,22.1,13.2,22.6,13.8a.7.7,0,0,1,0,1Z" style="fill:#6c6120"/><path d="M46.3,158.3a.6.6,0,0,1-.6-.4c-.2-.3-15.9-28.7-35.1-31.3a.7.7,0,0,1,.2-1.4c10.4,1.4,19.7,10.1,25.7,17.1a94.6,94.6,0,0,1,10.4,15,.6.6,0,0,1-.3.9Z" style="fill:#6c6120"/><path d="M51.9,98.6h-.1a.8.8,0,0,1-.6-.8c.2-2.5,4.3-62.7,15-71.1a4.4,4.4,0,0,1,3.4-1,.7.7,0,0,1,.5.8.6.6,0,0,1-.7.6,3.2,3.2,0,0,0-2.4.7c-10.1,8-14.4,69.5-14.4,70.1A.8.8,0,0,1,51.9,98.6Z" style="fill:#6c6120"/><path d="M52,94h-.3a.8.8,0,0,1-.3-1c.5-1,11.9-25.7,22.4-27.4a7.7,7.7,0,0,1,6.8,2.7.8.8,0,0,1-.1,1,.6.6,0,0,1-.9,0c-1.7-1.9-3.5-2.6-5.5-2.3-9.9,1.5-21.3,26.4-21.4,26.6A.8.8,0,0,1,52,94Z" style="fill:#6c6120"/><path d="M51.9,115.1a.7.7,0,0,1-.7-.6c0-12.7-5.1-22-15.2-27.7a39.3,39.3,0,0,0-15.4-4.6.9.9,0,0,1-.6-.8.7.7,0,0,1,.7-.6,40.8,40.8,0,0,1,15.9,4.8c7.3,4.1,16,12.3,16,28.9A.7.7,0,0,1,51.9,115.1Z" style="fill:#6c6120"/><path d="M59,166.4h0a.6.6,0,0,1-.6-.8c0-.3.5-8.9,7.5-17.7a41.9,41.9,0,0,1,16-12.1c8.2-3.6,18.3-5.4,30.1-5.4a.7.7,0,0,1,0,1.4c-20.6,0-36.2,5.8-45,16.9a33.5,33.5,0,0,0-7.3,17A.7.7,0,0,1,59,166.4Z" style="fill:#6c6120"/><path d="M36.3,142.8a.8.8,0,0,1-.7-.5c-.1-.3-5.6-29-19.8-34.1a.7.7,0,0,1,.5-1.3c6.3,2.3,11.7,8.9,16,19.7A106.7,106.7,0,0,1,37,142c0,.4-.2.8-.6.8Z" style="fill:#6c6120"/><path d="M45.1,223a15.1,15.1,0,0,0-3.7-1.5,15.9,15.9,0,0,0-3.8-.7c-.5,0-3.5-.3-2.5.9a3.9,3.9,0,0,0,2.1,1.3,13.3,13.3,0,0,0-6,2.5c-.6.4-1.1,1.2-.6,1.6h.6a10.6,10.6,0,0,0,3.5-.9,14.6,14.6,0,0,1,6.9-.4,2.8,2.8,0,0,0-2,1.2c-.3.3-.4,1,.1,1.1s.3,0,.5-.1a14,14,0,0,1,4.9-1.5c1.6,0,3.6.8,4.1,2.4,1.2-1.8-1-3.8-2.3-4.7A8.3,8.3,0,0,0,45.1,223Z" style="fill:#57592c"/><path d="M49.8,216a4.5,4.5,0,0,1,.4-2,.6.6,0,0,1,1.1.2,6,6,0,0,1,0,1.9,11.9,11.9,0,0,1,6.6-9.1h.5c.6.1.6.8.5,1.3a18.8,18.8,0,0,1-2.2,4.8,1.1,1.1,0,0,1,2.2,0c0,.5-.4.9-.7,1.3L55,218a5.7,5.7,0,0,1,3.5-1.4c.1-.1.3,0,.4.1s.1,1.1-.4,1.6l-4.2,3.3a13.5,13.5,0,0,1,2.8-.4h.6c.6.5,0,1.4-.6,1.8-2.5,1.8-5.6,2.5-7.8,5-.3-1.8.2-3.5.4-5.2S49.7,218.3,49.8,216Z" style="fill:#57592c"/><path d="M52.6,218.9c-.2-.5-.4-.8-.8-.9s-.7.4-.8.8-.9,1.9-1.3,2.8a33,33,0,0,0-.8-7.7,13.4,13.4,0,0,0-.7-1.8.7.7,0,0,0-1.2.3,11.5,11.5,0,0,0-.3,2.6c-1.3-4-3.3-8.2-7-10.2a2.1,2.1,0,0,0-2.5,0,2.7,2.7,0,0,0-.6,1.2,5.2,5.2,0,0,0,1,2.7,64.2,64.2,0,0,0,4.2,6,7.6,7.6,0,0,1-1.9-1.2,2,2,0,0,0-2.5.2,1.5,1.5,0,0,0,0,1.6c.6,1.1,1.8,1.5,2.8,2.1a7,7,0,0,1,3.3,4.2,2.2,2.2,0,0,0-2.4-.5,1.2,1.2,0,0,0-.8,1.1c0,.8.6,1.2,1.2,1.5s2.6.9,3.9,1.4a5.7,5.7,0,0,1,2.6,2c.5.7.5,2.4,1.8,2s1.5-2,1.9-3a10.7,10.7,0,0,0,1-3.9A12.6,12.6,0,0,0,52.6,218.9Z" style="fill:#c3bf4f"/></g></g></g></svg>