<svg xmlns="http://www.w3.org/2000/svg" viewBox="0 0 169.1 293.6"><g style="isolation:isolate"><g id="Layer_2" data-name="Layer 2"><g id="Layer_1-2" data-name="Layer 1"><path d="M88.3,117.9v91H70.9v-91H88.3m0-3H70.9a3,3,0,0,0-3,3v91a2.9,2.9,0,0,0,3,3H88.3a3,3,0,0,0,3-3v-91a3.1,3.1,0,0,0-3-3Z" style="fill:#75411a"/><path d="M29.7,208.3S21.8,254,52,290.6h54.1s28.7-22.6,22.6-82.3Z" style="fill:#e57225"/><g style="opacity:0.27;mix-blend-mode:multiply"><path d="M120.9,269.3q-2.1-3.2-4.5-6.3c-12.9-17-25.5-25.2-37.7-24.1-17.5,1.5-32.1,17.7-40.5,29.3a104.3,104.3,0,0,0,6,11.4c7.1-11.1,21-28.2,35.5-29.4,12.4-1,26.4,16.6,34.9,30.4A81.6,81.6,0,0,0,120.9,269.3Z" style="fill:#e57225"/><path d="M47.1,209.9c0,11.1,14.4,20,32.1,20s32.1-8.9,32.1-20a8.8,8.8,0,0,0-.2-1.6H47.2C47.2,208.8,47.1,209.4,47.1,209.9Z" style="fill:#e57225"/><path d="M42.6,235.3c0-9.7-5.4-17.5-11.9-17.5a5.5,5.5,0,0,0-1.8.2,118.7,118.7,0,0,0,3.8,34.5C38.3,251.1,42.6,243.9,42.6,235.3Z" style="fill:#e57225"/></g><path d="M128.7,208.3H117.2c-1.7,13.6-7.4,62.1-42.6,68.9-21.1,4.1-35-6.1-35-6.1A92.4,92.4,0,0,0,52,290.6h54.1S134.8,268,128.7,208.3Z" style="fill:#e57225;opacity:0.2;mix-blend-mode:multiply"/><path d="M128.7,208.3a147.8,147.8,0,0,1,.9,15.8c0,19.9-4.1,34.8-8.8,45.3l-1,2.1-.3.6-1,2-.3.5c-.2.5-.5,1-.7,1.4a2.5,2.5,0,0,0-.4.7l-.9,1.5a3.5,3.5,0,0,0-.5.8,2.2,2.2,0,0,0-.5.8c-.9,1.4-1.8,2.6-2.7,3.8a54.4,54.4,0,0,1-5.2,5.9l-.9.9-.3.2H52l-1.7-2.1-.4-.6L48.4,286a.3.3,0,0,0-.1-.2C32,263.3,28.9,238.4,28.8,223h0v-3.4h0a91.2,91.2,0,0,1,.9-11.2h99m0-3h-99a2.9,2.9,0,0,0-2.9,2.5,89.7,89.7,0,0,0-1,11.6h0V223h0c.1,16.8,3.7,41.8,20.1,64.4v.2h0l1.5,2.1h.1l.3.4,1.8,2.2a3,3,0,0,0,2.3,1.1h54.1a3,3,0,0,0,1.8-.6l.4-.4,1.1-.9a63.4,63.4,0,0,0,5.5-6.3l2.8-4a5.6,5.6,0,0,0,.5-.8v-.2l.4-.6a14,14,0,0,1,1-1.6l.3-.6h.1a10.9,10.9,0,0,1,.8-1.5v-.2c0-.1.1-.2.2-.3l1-2.1.3-.6,1-2.1c6.1-13.4,9.1-29.1,9.1-46.6a148.9,148.9,0,0,0-.9-16.1,2.9,2.9,0,0,0-3-2.7Z" style="fill:#6a3417"/><rect x="70.9" y="117.9" width="17.4" height="91" style="fill:#a0651a"/><g style="opacity:0.4;mix-blend-mode:multiply"><path d="M70.9,175.5v1A74.6,74.6,0,0,1,88.3,179v-1.1A74.4,74.4,0,0,0,70.9,175.5Z" style="fill:#a0651a"/><path d="M70.9,171.6v1a92.1,92.1,0,0,1,17.4.6v-1.3A84.4,84.4,0,0,0,70.9,171.6Z" style="fill:#a0651a"/><path d="M88.3,183.6v-1.3a92.1,92.1,0,0,0-17.4-.6v1.1A101.4,101.4,0,0,1,88.3,183.6Z" style="fill:#a0651a"/><path d="M70.9,188.2v1.5a92.5,92.5,0,0,1,17.4,1.1v-2A84.7,84.7,0,0,0,70.9,188.2Z" style="fill:#a0651a"/><path d="M70.9,205.6v1.6a106.2,106.2,0,0,1,14.9,1.7h2.5v-1.7A73.3,73.3,0,0,0,70.9,205.6Z" style="fill:#a0651a"/><path d="M88.3,202.7v-1.8a64.1,64.1,0,0,0-17.4-1.5v1.4A73.6,73.6,0,0,1,88.3,202.7Z" style="fill:#a0651a"/><path d="M70.9,135.1v1.1a145.1,145.1,0,0,1,17.4.5v-1.4A92,92,0,0,0,70.9,135.1Z" style="fill:#a0651a"/><path d="M70.9,195v.8a78.5,78.5,0,0,1,17.4,1.3v-1.4A67.7,67.7,0,0,0,70.9,195Z" style="fill:#a0651a"/><path d="M70.9,127v.5a112.6,112.6,0,0,1,17.4.3V127A112.3,112.3,0,0,0,70.9,127Z" style="fill:#a0651a"/><path d="M88.3,133.5v-1.3a144.3,144.3,0,0,0-17.4,0v1C76.7,133,82.4,133.2,88.3,133.5Z" style="fill:#a0651a"/><path d="M88.3,166.1v-1.7a63.3,63.3,0,0,0-17.4,1.1v1.1A77.8,77.8,0,0,1,88.3,166.1Z" style="fill:#a0651a"/><path d="M70.9,152.3v.8a93.8,93.8,0,0,1,17.4,2v-1.3A68.3,68.3,0,0,0,70.9,152.3Z" style="fill:#a0651a"/><path d="M70.9,138.7v.9A113.4,113.4,0,0,1,88.3,141v-1.6A78.3,78.3,0,0,0,70.9,138.7Z" style="fill:#a0651a"/><path d="M70.9,143.1v.9a78.4,78.4,0,0,1,17.4,1.7v-1.4A72.9,72.9,0,0,0,70.9,143.1Z" style="fill:#a0651a"/><path d="M70.9,147.9v.8a94.6,94.6,0,0,1,17.4,2.4v-1.2A68.9,68.9,0,0,0,70.9,147.9Z" style="fill:#a0651a"/><path d="M88.3,158.7c-5.7-1.1-11.7-2.1-17.4-1.8V158c5.7.1,11.7,1.2,17.4,2.2Z" style="fill:#a0651a"/></g><path d="M3,66.8S18.3,108,56.1,114.6C56.1,114.6,42.1,78.5,3,66.8Z" style="fill:#507125"/><path d="M12.5,76.5s14.9,36.8,49.8,40.4C62.3,116.9,45,85.7,12.5,76.5Z" style="fill:#507125;opacity:0.2;mix-blend-mode:multiply"/><path d="M50.4,109.3c-10.9-5.7-22.9-15.7-29.6-26.2,0,0-.2,0-.1.1,3.6,6.3,8.4,11.2,13.8,15.9s9.8,10,15.6,10.9C50.5,110,50.8,109.5,50.4,109.3Z" style="fill:#414b00"/><path d="M166.1,104s-31.7,30.4-68.6,19.9C97.5,123.9,125.8,97.5,166.1,104Z" style="fill:#507125"/><path d="M158.1,106s-32.9-2.5-52.2,14C105.9,120,131.7,129.3,158.1,106Z" style="fill:#507125;opacity:0.2;mix-blend-mode:multiply"/><path d="M104.9,121.7c12.3-.4,27.5-4.2,38-10.7.1-.1.2,0,.1.1-5.9,4.1-12.4,6.4-19.3,8.3s-13.2,4.8-18.8,3C104.5,122.3,104.5,121.7,104.9,121.7Z" style="fill:#414b00"/><path d="M25.5,27.4s1.7,40.1,33,63.3C58.5,90.7,54.9,43.2,25.5,27.4Z" style="fill:#507125"/><path d="M31.8,39.7s2.6,32.8,24.9,46.6C56.7,86.3,52.9,50.2,31.8,39.7Z" style="fill:#507125;opacity:0.2;mix-blend-mode:multiply"/><path d="M59.6,91.3C51.5,77,39.5,63,37,46.3c-.1-.2-.4-.1-.3.1C38.2,62.1,49.2,79.6,59,91.7,59.3,92.1,59.9,91.7,59.6,91.3Z" style="fill:#414b00"/><path d="M161.5,62S114.6,67.6,91,116.3C91,116.3,137.7,96.7,161.5,62Z" style="fill:#507125"/><path d="M100,111s11.2-32.3,49.4-42.9C149.4,68.1,129.6,99.7,100,111Z" style="fill:#507125;opacity:0.2;mix-blend-mode:multiply"/><path d="M139.1,76.5c-17.1,11.4-32,25.6-48.9,37.3a.4.4,0,0,0,.5.7c8.4-4.5,15.6-10.9,22.8-17.1s17-14,25.8-20.7C139.4,76.6,139.2,76.4,139.1,76.5Z" style="fill:#414b00"/><path d="M66.3,3s-14,41.9,7.3,86.2C73.6,89.2,90.9,42.7,66.3,3Z" style="fill:#507125"/><path d="M67.8,15.8S57.7,49.1,72.2,83.1C72.2,83.1,85.3,40.4,67.8,15.8Z" style="fill:#507125;opacity:0.2;mix-blend-mode:multiply"/><path d="M69.2,20.9c0-.2-.2-.2-.2-.1-.1,12.4.3,24.7,1.3,37,.9,9.9,1.3,20.8,4.3,30.4.1.5.9.4.8-.1A505.6,505.6,0,0,1,69.2,20.9Z" style="fill:#414b00"/><path d="M98.6,8.4S74,29,84.6,83.8C84.6,83.8,105.4,49.8,98.6,8.4Z" style="fill:#507125"/><path d="M95.2,19.1S81.8,45.8,84.7,77.4C84.7,77.4,102,41,95.2,19.1Z" style="fill:#507125;opacity:0.2;mix-blend-mode:multiply"/><path d="M94.9,22.5C91.2,43.4,87.1,64.2,83.1,85c-.1.3.4.5.5.2,3-10.2,4.1-20.8,6.1-31.2s4.2-20.8,5.5-31.4A.2.2,0,1,0,94.9,22.5Z" style="fill:#414b00"/><path d="M137.7,31.1s-34.1,13.1-45.4,69.5C92.3,100.6,128.6,67.3,137.7,31.1Z" style="fill:#507125"/><path d="M131.3,37.8s-29.4,28-34.5,54.1C96.8,91.9,122.8,69.9,131.3,37.8Z" style="fill:#507125;opacity:0.2;mix-blend-mode:multiply"/><path d="M125.5,46.3c-4.5,6.8-9.4,13-13.4,20.3-4.8,8.9-9.6,17.9-14.5,26.8-.2.4.3.7.5.3,9.7-15.4,17.9-31.8,27.6-47.3C125.7,46.3,125.6,46.2,125.5,46.3Z" style="fill:#414b00"/><path d="M154.8,123.7s-48.2-13.8-76.3,3.3C78.5,127,107.2,144.4,154.8,123.7Z" style="fill:#6c9433"/><path d="M118.2,127.4c-4.8-1.1-9.4-.4-14.2-.3-7.6.3-15.2.1-22.7.1-.6-.1-.6.9,0,.9,6.2.3,12.4.5,18.5.3s12.3-1.2,18.3-.5A.3.3,0,0,0,118.2,127.4Z" style="fill:#507125"/><path d="M11.5,97.4s38.5,7.2,69.7,29.8c0,0-13,6.9-34.9-1.1S11.5,97.4,11.5,97.4Z" style="fill:#96b85c"/><path d="M76.9,126.8c-6.6-1.5-12.9-1.8-19.4-3.9s-13.7-3.2-18.4-7.4c-.1-.1-.2,0-.1.1,4.7,4.1,11.2,5.8,16.9,8.1s13.8,4.5,20.9,4C77.3,127.6,77.4,126.9,76.9,126.8Z" style="fill:#6c9433"/><path d="M30,62s10.2,60.7,49.5,66.1C79.5,128.1,70.2,88.5,30,62Z" style="fill:#6c9433"/><path d="M77.4,121.1c-2-1.8-4.5-2.1-6.7-3.6s-6.5-6-9.4-9.1c-4.6-5.1-8.5-10.9-12.4-16.6,0,0-.1,0,0,.1a96.9,96.9,0,0,0,13.5,19.5,58.6,58.6,0,0,0,6,6.2c2.6,2.2,5.4,2.9,8.4,4.5C77.4,122.4,77.9,121.5,77.4,121.1Z" style="fill:#507125"/><path d="M157.1,87S108,92.9,79.5,128.1C79.5,128.1,114.8,131.2,157.1,87Z" style="fill:#96b85c"/><path d="M123.9,106.7c-7.7,3.7-15,8-22.8,11.1s-16.2,5.7-24.3,8.3c-.5.1-.3.8.2.7,17.1-3.5,32.1-10.9,46.9-19.9C124,106.8,124,106.7,123.9,106.7Z" style="fill:#6c9433"/><path d="M111.2,27.9S73.6,65.6,82.6,121C82.6,121,112.7,78.5,111.2,27.9Z" style="fill:#96b85c"/><path d="M104,45.6c-3.6,13.7-8.6,26.7-12.8,40.2-2.1,6.8-3.8,13.8-6.7,20.4s-6.6,10.1-7.2,16.2c-.1.6.9.8,1,.2,1.5-6.7,5.8-12.1,8.3-18.4a148.6,148.6,0,0,0,4.6-14.3c4.4-14.9,9.4-29.2,12.9-44.3C104.2,45.5,104,45.5,104,45.6Z" style="fill:#6c9433"/><path d="M50.6,31.1s-14.2,41.4,28.9,97C79.5,128.1,80.6,67.7,50.6,31.1Z" style="fill:#96b85c"/><path d="M77.8,119.8c-6.3-7.9-8.5-20-11.2-29.5S60.7,69.9,60,59.9c-.1-.1-.2-.1-.2.1.4,10.5,3.5,21.9,6.3,32s4.3,21.1,11,28.4C77.5,120.8,78.2,120.2,77.8,119.8Z" style="fill:#6c9433"/><path d="M84.4,38.6s-28.8,58.2-4.9,89.5C79.5,128.1,98.3,84.9,84.4,38.6Z" style="fill:#6c9433"/><path d="M76.4,98.5c.7-11.1,3.5-21.8,3.4-32.9,0-.1-.2-.2-.2,0-.3,11.1-3.3,21.8-4.1,32.8s.3,17.8,3.1,28.2c.1.4.8.2.7-.2C77.7,116,75.7,109.2,76.4,98.5Z" style="fill:#507125"/><path d="M79.5,128.1S95.2,76,140,55.4C140,55.4,116,105.3,79.5,128.1Z" style="fill:#6c9433"/><path d="M115.2,80.7c-7.4,8.4-13.1,18.2-20.8,26.3-3.3,3.4-12.5,10.5-13.9,19.9-.1.4.5.6.7.1,3.3-9.7,9.3-13.4,15.8-21.1s12.1-16.8,18.2-25.1C115.3,80.7,115.2,80.7,115.2,80.7Z" style="fill:#507125"/><path d="M66.3,3c9.8,15.7,12.9,32.5,13.2,47.1,1.6-4.2,3-7.4,3.9-9.4,4-22.9,15.2-32.3,15.2-32.3a110.5,110.5,0,0,1-.4,36.9,105.5,105.5,0,0,1,13-17.4,142.9,142.9,0,0,1-2.6,30.4c13.5-21.2,29.1-27.2,29.1-27.2-3.3,13.1-10.1,25.8-17.5,36.7A93.6,93.6,0,0,1,140,55.4s-3.8,7.8-10.5,18.6c17.2-10.2,32-12,32-12-8.9,13-21.1,23.9-32.8,32.4A139.6,139.6,0,0,1,157.1,87a184.9,184.9,0,0,1-19.2,17.5,76,76,0,0,1,15.5-1.6,80.8,80.8,0,0,1,12.7,1.1,94.6,94.6,0,0,1-26.2,16.5,146.2,146.2,0,0,1,14.9,3.2c-17.8,7.7-32.9,10.2-44.9,10.2-15,0-25-3.8-29.2-5.8H79.1a38.6,38.6,0,0,1-12.5,1.9,59.6,59.6,0,0,1-20.3-3.8c-22.9-8.3-34.8-28.7-34.8-28.7a174.3,174.3,0,0,1,17.1,4.5C10.7,87.4,3,66.8,3,66.8a80.3,80.3,0,0,1,34.7,21A132.6,132.6,0,0,1,30,62c2.9,1.9,5.6,3.9,8.2,5.9A97.4,97.4,0,0,1,25.5,27.4c10.8,5.8,18.1,15.8,23,26.2-.7-14.2,2.1-22.5,2.1-22.5A97.2,97.2,0,0,1,62.5,49.6C59.7,22.8,66.3,3,66.3,3M82.1,121l.3-.9h0l-.3,1M66.3,0h-.4a3.1,3.1,0,0,0-2.5,2.1c-.2.6-4.8,14.7-4.6,35a81.2,81.2,0,0,0-5.9-7.9,2.7,2.7,0,0,0-2.3-1.1h-.5a3,3,0,0,0-2.3,2,50.4,50.4,0,0,0-2.2,12.3A52.4,52.4,0,0,0,26.9,24.7a3.2,3.2,0,0,0-1.4-.3,2.9,2.9,0,0,0-1.6.4,3,3,0,0,0-1.4,2.7,96.2,96.2,0,0,0,7.9,31.6H30a3,3,0,0,0-1.6.5,3.1,3.1,0,0,0-1.3,3,110.9,110.9,0,0,0,3.8,15.3,82.6,82.6,0,0,0-27-13.9H3a3.1,3.1,0,0,0-2.2.9,2.9,2.9,0,0,0-.6,3.1A95.4,95.4,0,0,0,17.8,95.7L12,94.5h-.5A3.1,3.1,0,0,0,9,95.7a2.9,2.9,0,0,0-.1,3.2c.5.9,12.7,21.5,36.4,30a61.5,61.5,0,0,0,21.3,4,41.6,41.6,0,0,0,12.8-1.8H80c5.1,2.3,15.2,5.8,29.9,5.8s30.2-3.6,46.1-10.5a2.9,2.9,0,0,0,1.8-2.9,3,3,0,0,0-2.2-2.7,59.2,59.2,0,0,0-6.1-1.5,90.5,90.5,0,0,0,18.7-13.2,3.1,3.1,0,0,0,.8-3,3.2,3.2,0,0,0-2.4-2.1,84,84,0,0,0-13.2-1.1l-5.6.2c3.9-3.4,7.7-7.1,11.5-11.1a2.9,2.9,0,0,0,.5-3.4,2.9,2.9,0,0,0-2.7-1.6h-.3a103.5,103.5,0,0,0-13.7,2.8A127,127,0,0,0,164,63.7a3.1,3.1,0,0,0,.1-3.2,3.2,3.2,0,0,0-2.6-1.5h-.4c-.5,0-10.5,1.3-23.6,7.3,3.3-5.8,5.1-9.5,5.2-9.7a3,3,0,0,0-2.7-4.3,2.8,2.8,0,0,0-1.3.3,83.7,83.7,0,0,0-8.4,4.4,107,107,0,0,0,10.3-25.3,3,3,0,0,0-.9-3,3.1,3.1,0,0,0-2-.7,2.2,2.2,0,0,0-1.1.2c-.6.2-11.5,4.5-23.2,18.4a134.1,134.1,0,0,0,.8-18.9,3,3,0,0,0-1.9-2.7l-1.1-.2a2.7,2.7,0,0,0-2.1.9,74.1,74.1,0,0,0-6.4,7.6,113.7,113.7,0,0,0-1.1-25.5,2.9,2.9,0,0,0-2-2.3l-1-.2a2.6,2.6,0,0,0-1.9.7c-.5.4-10.7,9.1-15.4,29.6A90.1,90.1,0,0,0,68.8,1.4,2.9,2.9,0,0,0,66.3,0Z" style="fill:#2e5b1d"/><path d="M72.3,181.7s-2-35-32.3-43.6C40,138.1,38.8,176.7,72.3,181.7Z" style="fill:#96b85c"/><path d="M71.6,180.3c-8.3-7.1-15.4-17.6-20.7-27.1h-.1a75.8,75.8,0,0,0,19.9,28.5C71.5,182.4,72.4,181,71.6,180.3Z" style="fill:#6c9433"/><path d="M47.6,188.2s6.7-12.9,24.7-6.5C72.3,181.7,70.3,196.4,47.6,188.2Z" style="fill:#6c9433"/><path d="M70.2,181c-2.6,1.1-4.8,2.4-7.7,2.8a47.8,47.8,0,0,0-6.3.9c-.1,0-.1.2.1.2,5,1.1,10-.1,14.5-2.5A.8.8,0,0,0,70.2,181Z" style="fill:#507125"/><path d="M40,138.1c30.3,8.6,32.3,43.6,32.3,43.6s-1.2,9-12.6,9a36,36,0,0,1-12.1-2.5,17.3,17.3,0,0,1,15.3-8.3l2.6.2c-26.5-8.8-25.5-42-25.5-42m0-3a2.7,2.7,0,0,0-1.7.6A3.2,3.2,0,0,0,37,138a60.9,60.9,0,0,0,3,18.7c3,9.4,8.2,16.7,15.2,21.6A19.1,19.1,0,0,0,45,186.8a3.1,3.1,0,0,0-.2,2.5,3.3,3.3,0,0,0,1.8,1.7,38.7,38.7,0,0,0,13.1,2.7c11.1,0,15-7.6,15.5-11.6a1.3,1.3,0,0,0,.1-.6,66.7,66.7,0,0,0-5-19.6c-6-13.7-16.2-22.9-29.4-26.7Z" style="fill:#2e5b1d"/></g></g></g></svg>