<svg xmlns="http://www.w3.org/2000/svg" viewBox="0 0 92.9 197.4"><g style="isolation:isolate"><g id="Layer_2" data-name="Layer 2"><g id="Layer_1-2" data-name="Layer 1"><path d="M55.9,125.8c4.2-8.5,10-15.1,17.4-21.1,5-4.2,9.5-7.8,13-13.3,1.5-2.4,3.8-6.3,3.6-9.3a7.6,7.6,0,0,0-3.5-1.5C75.6,78.8,65.8,94.8,61,102c-8.4,12.7-14.6,28.5-13.5,43.9h0c0,1.3-.1,2.5-.2,3.8s.4.7.8.4A79.1,79.1,0,0,1,55.9,125.8Z" style="fill:#72b75b"/><path d="M58.2,112.7a86.5,86.5,0,0,0-9.3,33.2,81.3,81.3,0,0,1,7-20.1c4.2-8.5,10-15.1,17.4-21.1,5-4.2,9.5-7.8,13-13.3,1.5-2.3,3.7-6.2,3.6-9.1C76.2,87.5,64.9,100,58.2,112.7Z" style="fill:#4a8c32"/><path d="M45.4,124.9c-.3-8.1-2.5-15.1-6.1-22.3-2.4-4.9-4.6-9.2-5.4-14.7-.3-2.3-.7-6.2.4-8.3a6.1,6.1,0,0,1,3.3,0c8.8,2.3,10.9,18,12.1,25.2,2.1,12.7,1.4,27-4.8,38.4,0,.1,0,.1-.1.1s-.7,2-1.1,3-.5.4-.7,0A70.1,70.1,0,0,0,45.4,124.9Z" style="fill:#72b75b"/><path d="M48.2,114a74.2,74.2,0,0,1-4.3,28.8,67.4,67.4,0,0,0,1.5-17.9c-.3-8.1-2.5-15.1-6.1-22.3-2.4-4.9-4.6-9.2-5.4-14.7-.3-2.3-.7-6,.3-8.2C43,88.4,47.3,101.9,48.2,114Z" style="fill:#4a8c32"/><path d="M39.2,131.3a40.7,40.7,0,0,0-12.1-12.7c-3.4-2.4-6.4-4.5-8.9-7.9-1.1-1.4-2.7-3.8-2.8-5.7a4.2,4.2,0,0,1,2.2-1.1c6.8-1.7,13.8,8.1,17.2,12.4,6,7.8,10.7,17.6,10.7,27.5h-.1c.1.7.2,1.6.3,2.4s-.1.4-.4.3A52.1,52.1,0,0,0,39.2,131.3Z" style="fill:#72b75b"/><path d="M37.1,123a56,56,0,0,1,7.5,20.8,53.1,53.1,0,0,0-5.4-12.5,40.7,40.7,0,0,0-12.1-12.7c-3.4-2.4-6.4-4.5-8.9-7.9-1.1-1.4-2.7-3.8-2.8-5.6C24.4,107.8,32.2,115.3,37.1,123Z" style="fill:#4a8c32"/><path d="M58.2,85.2a22.3,22.3,0,0,0-3.9,1.3A43.5,43.5,0,0,0,46.7,90h-.1a13.3,13.3,0,0,0-2.8,1.6c.4-1.7.7-3.5,1.2-5.2,1.7-6.4,4.4-12.4,6.2-18.7,1.1-3.6.3-7.3-.7-10.9a15.4,15.4,0,0,1,2.1-6,53.2,53.2,0,0,1,3.6-4.7c.6-.6,1.1-1.3,1.7-2s0-1.8-.9-.7a13.4,13.4,0,0,0-1.1,1.4c-2.3,2.5-4.8,4.8-6.6,7.7-.7-2.9-1.6-5.9-2.6-8.8-.3-.9-9.1-14.4-12.8-18.5-.5-.5-2,1.2-1.6,1.7a62.1,62.1,0,0,0,6.1,7.3c1.6,1.9,3,3.8,4.4,5.8a27.6,27.6,0,0,0-8.6,0,65.4,65.4,0,0,0-13.7,2.8c-.7.2-1.9,2.3-.9,2a95.6,95.6,0,0,1,11.8-2.6c3.4-.5,9.8-1.6,12.9.5,1.1.8,1.7,4.8,2.1,6,1,3.2,1.8,6.5,2.6,9.7s1.6,5.9,1,9a33.1,33.1,0,0,1-1.2,4.2,36.3,36.3,0,0,1-3.2,8.5,87.4,87.4,0,0,0-4.9,30.9c.2,6,1.7,11.7,2.1,17.7.3,3.1.2,7.3,2.4,9.8.1.1.4-.3.3-.4-2.2-3.6-1.3-8.9-1.8-13a171.5,171.5,0,0,1-1.3-20.3,87.8,87.8,0,0,1,1.1-11.5,37.6,37.6,0,0,0,5.6-3A42.6,42.6,0,0,1,57.4,87C58,86.8,59.1,85,58.2,85.2Z" style="fill:#7aa42f"/><path d="M33.7,25.2h.2c3.7,4.1,12.5,17.6,12.8,18.5,1,2.9,1.9,5.9,2.6,8.8,1.8-2.9,4.3-5.2,6.6-7.7A13.4,13.4,0,0,1,57,43.5a1.1,1.1,0,0,1,.9-.5c.4,0,.5.5,0,1.2s-1.1,1.4-1.7,2a53.2,53.2,0,0,0-3.6,4.7,15.4,15.4,0,0,0-2.1,6c1,3.6,1.8,7.3.7,10.9-1.8,6.3-4.5,12.3-6.2,18.7v.2a36.5,36.5,0,0,1,1.4,3.5h.3a43.5,43.5,0,0,1,7.6-3.5,22.3,22.3,0,0,1,3.9-1.3h.1c.7,0-.3,1.6-.9,1.8a42.6,42.6,0,0,0-8.3,3.4l-2.2,1.3a101.2,101.2,0,0,1,2.8,13.1,77.5,77.5,0,0,1,.8,18.7A87.5,87.5,0,0,1,61,102c4.5-6.8,13.6-21.5,23.7-21.5h1.7a7.6,7.6,0,0,1,3.5,1.5c.1.1,0,.1,0,.2h0A10.9,10.9,0,0,1,88.7,87l-.3.6-.3.6c-.6,1.2-1.3,2.3-1.8,3.2-3.5,5.5-8,9.1-13,13.3a63.6,63.6,0,0,0-17.5,21.1l-1.2,2.7a11.7,11.7,0,0,0-.5,1.1l-.6,1.5-.6,1.4-.5,1.2-.6,1.7-.3.7a67.4,67.4,0,0,0-2.6,9.8h0c-.3,1.4-.6,2.9-.8,4.3l-.4.2c-.2,0-.4-.2-.4-.6s.2-2.5.2-3.8h0a51.7,51.7,0,0,1,.1-8.8,32.7,32.7,0,0,1-2.2,5.1c0,.6.1,1.1.1,1.6h-.1c.1.7.2,1.6.3,2.4s0,.3-.2.3h-.2a26.8,26.8,0,0,0-.7-2.7l-.9,2.4c-.1.2-.2.3-.4.3l-.3-.3.9-3.5h0c0-.3.1-.5.1-.8s-1-3-1.6-4.4a.4.4,0,0,1-.1-.3l-.6-1.2c-.1-.2-.2-.3-.2-.5l-.6-1.1a2.5,2.5,0,0,0-.4-.7l-.4-.9-.9-1.6a40.7,40.7,0,0,0-12.1-12.7c-3.4-2.4-6.4-4.5-8.9-7.9l-.5-.6c-1-1.4-2.3-3.5-2.3-5.1a4.2,4.2,0,0,1,2.2-1.1,4.4,4.4,0,0,1,1.6-.2c6.3,0,12.5,8.6,15.6,12.6A57.3,57.3,0,0,1,43,130.8c-.1-.7-.1-1.4-.2-2-.4-6-1.9-11.7-2.1-17.7,0-1.8,0-3.6.1-5.4l-1.5-3.1c-2.4-4.9-4.6-9.2-5.4-14.7-.3-2.3-.7-6,.3-8.2h.1a2.7,2.7,0,0,1,1.3-.2,7.5,7.5,0,0,1,2,.2c2.7.7,4.9,2.8,6.5,5.5l1.5-4.9a36.3,36.3,0,0,0,3.2-8.5A33.1,33.1,0,0,0,50,67.5c.6-3.1-.3-6-1-9s-1.6-6.5-2.6-9.7c-.4-1.2-1-5.2-2.1-6a10.8,10.8,0,0,0-5.6-1.2,48.9,48.9,0,0,0-7.3.7,95.6,95.6,0,0,0-11.8,2.6h-.1c-.7,0,.4-1.9,1-2a65.4,65.4,0,0,1,13.7-2.8,40.7,40.7,0,0,1,5-.3,14.6,14.6,0,0,1,3.6.3c-1.4-2-2.8-3.9-4.4-5.8A62.1,62.1,0,0,1,32.3,27c-.3-.4.8-1.8,1.4-1.8M44.9,136.9l.3-2.6v-.6a8.1,8.1,0,0,0,.1-1.6,3.4,3.4,0,0,0,.1-1v-1.3a6.6,6.6,0,0,0,.1-1.4v-1c0-.8-.1-1.7-.1-2.5a50,50,0,0,0-3-15c.2,5.1.8,10.2,1.3,15.3.4,3.1-.1,6.8.6,9.9a.8.8,0,0,1,.1.4,5.8,5.8,0,0,0,.5,1.4M33.7,22.2h0a5,5,0,0,0-4,2.7,3.9,3.9,0,0,0,.1,3.8,44.3,44.3,0,0,0,5.1,6.2l1.2,1.4.5.6-2.6.2A70.7,70.7,0,0,0,19.6,40a5.3,5.3,0,0,0-3.3,5.2,3.1,3.1,0,0,0,3.2,2.7h1a74.9,74.9,0,0,1,11.4-2.5h.5a38.5,38.5,0,0,1,6.3-.6,10,10,0,0,1,3.6.5,16.7,16.7,0,0,1,.8,3c.1.6.3,1.2.4,1.6,1.1,3.4,1.9,6.9,2.6,9.5a3.6,3.6,0,0,0,.2,1.1c.6,2.5,1.2,4.6.7,6.6a19,19,0,0,1-1.1,3.8.6.6,0,0,1-.1.4,31.1,31.1,0,0,1-2.9,7.7c0,.1,0,.2-.1.2a11.3,11.3,0,0,0-4.5-2.3,13.1,13.1,0,0,0-2.7-.3,8.5,8.5,0,0,0-2.3.3,3.1,3.1,0,0,0-1.7,1.5.4.4,0,0,0-.1.3c-1,2.2-1.2,5.5-.6,9.8.9,5.9,3.2,10.6,5.7,15.5h0a17.5,17.5,0,0,1,1.1,2.4v4.9c.1,1.5.2,3,.4,4.5l-.9-1.2-.6-.8c-3.8-4.9-10-13-17.4-13a8.5,8.5,0,0,0-2.3.3,6.9,6.9,0,0,0-3.7,1.9,3.5,3.5,0,0,0-.8,2.2c.1,1.9,1,4.1,2.9,6.8l.5.6c2.7,3.7,6,6.1,9.5,8.5h0a37.1,37.1,0,0,1,11.3,11.8l.9,1.5.3.6v.2l.4.7a10.4,10.4,0,0,1,.4,1l.3.5.5,1.1h.1v.2a34.2,34.2,0,0,1,1.3,3.4h0c-.3,1.3-.5,2.3-.8,3.3a3,3,0,0,0,.4,2.6,3.5,3.5,0,0,0,2.8,1.5h1.1v.2a3.8,3.8,0,0,0,1,2.7,3.5,3.5,0,0,0,2.4,1,3.5,3.5,0,0,0,1.9-.6,3,3,0,0,0,1.4-2.2c.2-1.2.5-2.4.8-4h0a65.9,65.9,0,0,1,2.6-9.4v-.3c0-.1.1-.2.1-.4l.6-1.6.5-1.2a6.9,6.9,0,0,1,.5-1.3,10.1,10.1,0,0,1,.7-1.5v-.3l.3-.8a27.2,27.2,0,0,0,1.2-2.5c3.8-7.7,9-13.9,16.7-20.2h.1c5-4.2,9.8-8.1,13.5-13.9.8-1.2,1.4-2.3,2-3.4l.2-.5v-.4c.1-.1.1-.3.2-.4a15,15,0,0,0,1.5-5.9c0-.1.1-.3,0-.4a2.9,2.9,0,0,0-.9-2.1,9.9,9.9,0,0,0-5.1-2.2l-2.2-.2c-11.1,0-20,13.5-25.4,21.6a8.3,8.3,0,0,1-.8,1.2,101.2,101.2,0,0,0-5.2,8.8c-.2-1.6-.4-3.2-.7-4.8a6.9,6.9,0,0,0-.2-1.3,82.6,82.6,0,0,0-2-9.9h.1a38.6,38.6,0,0,1,7.8-3.3A4.8,4.8,0,0,0,61.5,85a3.2,3.2,0,0,0-3.2-2.8h-.7a22.2,22.2,0,0,0-4.4,1.4,42.5,42.5,0,0,0-4.9,2.1c.8-2.7,1.8-5.4,2.8-8.2s2.1-5.9,3-8.9.4-8.3-.5-11.9a11.7,11.7,0,0,1,1.5-4.2,44.4,44.4,0,0,1,3.4-4.4l1.7-2.1a4.1,4.1,0,0,0,.7-4.3,3.4,3.4,0,0,0-3-1.8,4,4,0,0,0-3.2,1.6l-.9,1-.2.3L51.7,45l-1.1,1.1c-.3-1-.7-2.1-1-3.2S39.5,27.1,36.1,23.3a3.2,3.2,0,0,0-2.4-1.1Z" style="fill:#2e5b1d"/><path d="M21.2,47a5.1,5.1,0,0,0-3.2-.4c-1.8-1.7-6.2,2.7-7.6,4.3s-4.5,4.6-4.8,7.8c-.5,5.4,6.7,3,9.3.7A14.8,14.8,0,0,0,18,55.1a11.2,11.2,0,0,0,4.7,5.8c3.7,2.3,5.6-.1,5.8-3.3S25.6,49,21.2,47Z" style="fill:#ac53b0"/><path d="M21.2,34.2c-4-3.1-8.9,1.7-10.5,5.3s.2,8.4,4.4,8.8,8-.1,9.7-2.5C27.9,41.6,24.7,37,21.2,34.2Z" style="fill:#ac538c"/><path d="M28,41.2h-.8c-1.9-.2-3.8,1.2-5.2,2.3s-3.7,3.6-5.6,3.1-2-2.1-2.5-3a5.5,5.5,0,0,0-2.6-2.4A6.5,6.5,0,0,0,7,42.2a11.6,11.6,0,0,0-3.6,3.7,7.3,7.3,0,0,0,2.7,8.4c1.4,1.1,3.6,1.8,5.3,1a5.6,5.6,0,0,0,3.1-3.1c.5-1,1-2.7,2.3-2.8s2.2,1.9,2.7,2.9a4.9,4.9,0,0,0,2.8,2.5c3.5,1,7.6-1.4,8.9-4.6a8.2,8.2,0,0,0,.5-3.8C31.4,44.2,30.2,41.8,28,41.2Z" style="fill:#fa789e"/><path d="M19.8,50.5a2.1,2.1,0,0,0-1.7-1.8,1.7,1.7,0,0,0-1,.1c-1.1.2-2,1.7-2.5,2.6a3.8,3.8,0,0,0,.4,3.7c.6.9,1.6,1.1,2.2.3s-1.5-3.2-.4-4.7S18.1,53,18,54.2s-.1,1.9.8,1.3S20.3,52.1,19.8,50.5Z" style="fill:#fab585"/><path d="M16.9,54.1c-.3,0-.7.8-.5.8S17.2,54.1,16.9,54.1Z" style="fill:#fff"/><path d="M16.2,53.5a.3.3,0,0,1,.1-.2H16a.4.4,0,0,0-.1.3c0,.1.1,0,.3-.1Z" style="fill:#fff"/><path d="M15.8,54.1c-.3,0-.7.7-.4.7S16.1,54.1,15.8,54.1Z" style="fill:#fff"/><path d="M15.7,52.9h.1c.1,0,.2-.2.2-.3h0C16.1,52.2,15.3,53,15.7,52.9Z" style="fill:#fff"/><path d="M18.9,53.4c-.2,0-.5.5-.3.5S19,53.4,18.9,53.4Z" style="fill:#fff"/><path d="M19.1,51.4h0c-.1-.1-.3.2-.3.2h-.1C18.6,52.1,19.3,51.6,19.1,51.4Z" style="fill:#fff"/><path d="M19.5,52.8h0c-.2,0-.4.3-.4.5s.4-.2.4-.3h0C19.6,53,19.6,52.8,19.5,52.8Z" style="fill:#fff"/><path d="M19.4,54.3h0c-.1-.2-.4.3-.4.4h.2C19.2,54.7,19.6,54.4,19.4,54.3Z" style="fill:#fff"/><path d="M18.4,33.2a4.4,4.4,0,0,1,2.8,1c2.2,1.8,4.3,4.3,4.8,7h2c2.2.6,3.4,3,3.7,5.2A7.6,7.6,0,0,1,28,53.9a9,9,0,0,1,.5,3.7c-.1,2.3-1.2,4.2-3.1,4.2a5.4,5.4,0,0,1-2.7-.9A11.2,11.2,0,0,1,18,55.1a14.8,14.8,0,0,1-3.1,4.3,11.7,11.7,0,0,1-6.4,2.5c-1.8,0-3.1-.8-2.9-3.2a10.6,10.6,0,0,1,1.3-3.9l-.8-.5a7.3,7.3,0,0,1-2.7-8.4A11.6,11.6,0,0,1,7,42.2a7.1,7.1,0,0,1,3.2-1.1,4.9,4.9,0,0,1,.5-1.6c1.2-2.7,4.5-6.3,7.7-6.3m0-3h0c-5,0-9,4.8-10.5,8.1,0,.1,0,.1-.1.2a9.6,9.6,0,0,0-2.5,1.2c-1,.7-3.8,2.9-4.7,5.2A10.4,10.4,0,0,0,3.2,55.8a11,11,0,0,0-.6,2.6A5.7,5.7,0,0,0,4,63.1a5.4,5.4,0,0,0,4.5,1.8,14,14,0,0,0,8.4-3.3l1-.9a14.3,14.3,0,0,0,3.2,2.7,8.1,8.1,0,0,0,4.3,1.4c3.4,0,5.9-2.8,6.1-7.1a12.2,12.2,0,0,0-.1-2.7A11.4,11.4,0,0,0,34,51.4a12.4,12.4,0,0,0,.7-5.4c-.4-3-2.2-6.7-5.9-7.7h-.6a17.9,17.9,0,0,0-5.1-6.3,7.5,7.5,0,0,0-4.7-1.7Z" style="fill:#84205c"/><path d="M39.1,17.2a5,5,0,0,0-2.8-1.4c-1.2-2.3-6.8.3-8.6,1.3s-5.8,2.8-7.2,5.7c-2.3,4.9,5.3,5.1,8.5,3.9a14.2,14.2,0,0,0,4.3-2.9,11.1,11.1,0,0,0,2.5,7c2.6,3.4,5.3,1.8,6.6-1.2S42.5,20.6,39.1,17.2Z" style="fill:#ac53b0"/><path d="M43.5,5.2c-2.6-4.3-9-1.4-11.7,1.4s-2.6,7.9,1.1,9.8,7.6,2.5,10.1.9C47.3,14.4,45.8,9,43.5,5.2Z" style="fill:#ac538c"/><path d="M47.5,14.1l-.7-.4c-1.7-.8-4-.2-5.7.4s-4.7,2.2-6.3,1-1.2-2.7-1.4-3.6a4.2,4.2,0,0,0-1.6-3.2,6.6,6.6,0,0,0-4.4-.5,11.1,11.1,0,0,0-4.6,2.3,7.5,7.5,0,0,0-.4,8.8c1,1.5,2.8,2.9,4.7,2.8a6.1,6.1,0,0,0,4-1.9c.7-.8,1.8-2.2,3.1-1.8s1.4,2.5,1.6,3.6a4.7,4.7,0,0,0,1.7,3.3c2.9,2.1,7.6,1.3,9.9-1.2a8,8,0,0,0,1.8-3.4C49.7,18.1,49.4,15.4,47.5,14.1Z" style="fill:#fa789e"/><path d="M36.6,20.1a2.4,2.4,0,0,0-.9-2.4,1.8,1.8,0,0,0-1-.2c-1.2-.2-2.5.9-3.2,1.6a3.4,3.4,0,0,0-.9,3.6c.2,1,1,1.6,1.9,1s-.3-3.5,1.2-4.6.4,2.7-.1,3.8-.6,1.7.4,1.5S36.5,21.7,36.6,20.1Z" style="fill:#fab585"/><path d="M32.7,22.4c-.3-.1-1,.5-.7.6S33,22.5,32.7,22.4Z" style="fill:#fff"/><path d="M32.2,21.6c.1-.1.1-.1.1-.2h-.2a.2.2,0,0,0-.2.2Z" style="fill:#fff"/><path d="M31.6,22c-.2-.1-.8.4-.6.5S31.9,22.1,31.6,22Z" style="fill:#fff"/><path d="M32,20.9h0c.1.1.3-.1.4-.2h0C32.5,20.4,31.6,20.8,32,20.9Z" style="fill:#fff"/><path d="M34.7,22.4c-.2,0-.6.3-.4.4S34.9,22.5,34.7,22.4Z" style="fill:#fff"/><path d="M35.6,20.6h0c-.1-.1-.3.1-.3.1s-.1,0-.1.1S35.8,20.9,35.6,20.6Z" style="fill:#fff"/><path d="M35.6,22.1h-.1c-.1-.1-.4.1-.5.3s.4,0,.5-.1h0C35.6,22.3,35.6,22.1,35.6,22.1Z" style="fill:#fff"/><path d="M34.9,23.5h0c0-.3-.4.1-.5.1h0c-.1.1,0,.1.1.1h.1S35.1,23.6,34.9,23.5Z" style="fill:#fff"/><path d="M39.4,3a4.5,4.5,0,0,1,4.1,2.2c1.5,2.4,2.6,5.5,2.1,8.2a2.4,2.4,0,0,1,1.2.3l.7.4c1.9,1.3,2.2,4,1.7,6.2a8,8,0,0,1-1.8,3.4A9,9,0,0,1,43.1,26a8.9,8.9,0,0,1-.7,3.6c-.8,1.8-2.1,3.1-3.5,3.1a4.1,4.1,0,0,1-3.1-1.9,11.1,11.1,0,0,1-2.5-7A14.2,14.2,0,0,1,29,26.7a11.4,11.4,0,0,1-3.9.6c-3.1,0-6.2-1.1-4.6-4.5A11.1,11.1,0,0,1,23,19.6l-.6-.7a7.5,7.5,0,0,1,.4-8.8,11.1,11.1,0,0,1,4.6-2.3l1.5-.2a6.3,6.3,0,0,1,1.9.3,6.4,6.4,0,0,1,1-1.3C33.5,4.8,36.7,3,39.4,3m0-3a14.3,14.3,0,0,0-9.7,4.5h-.8l-2.2.3c-1.2.3-4.6,1.4-6.2,3.3a10.1,10.1,0,0,0-1.3,11.1,16.4,16.4,0,0,0-1.4,2.2,6.3,6.3,0,0,0,0,5.8c1.3,1.9,3.9,3,7.3,3a15.4,15.4,0,0,0,5-.8l1.2-.6a15.3,15.3,0,0,0,2.1,3.7c2,2.6,4.1,3.1,5.5,3.1s4.9-1.8,6.2-4.9a7.9,7.9,0,0,0,.8-2.6,9.7,9.7,0,0,0,3.7-2.5,10.1,10.1,0,0,0,2.5-4.8c.7-3,.3-7-2.9-9.3l-.5-.3a17.3,17.3,0,0,0-2.6-7.6A7.4,7.4,0,0,0,39.4,0Z" style="fill:#84205c"/><path d="M67,41.4a4.4,4.4,0,0,0-3.2,0c-2-1.5-5.9,3.2-7.2,4.9a11.2,11.2,0,0,0-4,8.2c-.1,5.4,6.9,2.4,9.3-.1a13.8,13.8,0,0,0,2.7-4.5,11.1,11.1,0,0,0,5.2,5.3c3.8,2,5.6-.6,5.5-3.9S71.6,43.1,67,41.4Z" style="fill:#ac53b0"/><path d="M65.9,28.8c-4.2-2.9-8.7,2.4-10,6.1s1,8.4,5.2,8.4,7.9-.8,9.5-3.4C73.2,35.5,69.6,31.2,65.9,28.8Z" style="fill:#ac538c"/><path d="M73.3,35.1h-.8c-1.9,0-3.7,1.5-5,2.8s-3.3,4-5.3,3.6-2.2-1.9-2.8-2.7a4.4,4.4,0,0,0-2.8-2.2,7.1,7.1,0,0,0-4.2,1.4c-1,.9-2.8,2.8-3.1,4.1a7.1,7.1,0,0,0,3.4,8.1c1.5.9,3.7,1.4,5.3.5a5.3,5.3,0,0,0,2.8-3.4c.4-1,.8-2.7,2.1-3s2.4,1.8,3,2.7a4.6,4.6,0,0,0,3,2.2c3.5.7,7.4-2,8.4-5.3a10.2,10.2,0,0,0,.2-3.9C77,37.8,75.6,35.5,73.3,35.1Z" style="fill:#fa789e"/><path d="M66,45.1a2.4,2.4,0,0,0-1.9-1.7c-.3-.1-.6.1-.9.3s-1.9,1.8-2.3,2.7a3.8,3.8,0,0,0,.7,3.7,1.3,1.3,0,0,0,2.2.1c1.1-1.7-1.8-3.1-.8-4.7s1.5,2.3,1.5,3.4.1,1.9,1,1.3S66.6,46.6,66,45.1Z" style="fill:#fab585"/><path d="M63.4,48.9c-.3,0-.7.9-.4.8S63.7,48.9,63.4,48.9Z" style="fill:#fff"/><path d="M62.6,48.4v-.2h-.3v.3c0,.1.1,0,.2-.1Z" style="fill:#fff"/><path d="M62.3,49c-.3,0-.6.7-.4.7S62.6,49,62.3,49Z" style="fill:#fff"/><path d="M62.1,47.9c.1,0,.1,0,.1-.1s.2-.2.2-.3h0C62.4,47.1,61.7,47.9,62.1,47.9Z" style="fill:#fff"/><path d="M65.3,48.1c-.2,0-.4.5-.3.5S65.5,48,65.3,48.1Z" style="fill:#fff"/><path d="M65.3,46.1h0l-.3.3h0C64.9,46.8,65.6,46.2,65.3,46.1Z" style="fill:#fff"/><path d="M65.9,47.4h0c-.2,0-.4.3-.4.5s.4-.2.4-.3h0C66,47.6,66,47.4,65.9,47.4Z" style="fill:#fff"/><path d="M65.9,48.9h0c-.1-.2-.4.3-.4.4h0c0,.1.1.1.2,0h0C65.8,49.4,66.1,48.9,65.9,48.9Z" style="fill:#fff"/><path d="M63.4,28a4.1,4.1,0,0,1,2.5.8c2.4,1.5,4.7,3.8,5.4,6.4l1.2-.2h.8c2.3.4,3.7,2.7,4.2,4.8a10.2,10.2,0,0,1-.2,3.9,8.5,8.5,0,0,1-2.9,3.9,8.7,8.7,0,0,1,.9,3.6c.1,2.5-.9,4.6-3.1,4.6a6.4,6.4,0,0,1-2.4-.7,11.1,11.1,0,0,1-5.2-5.3,13.8,13.8,0,0,1-2.7,4.5c-1.4,1.4-4.4,3.1-6.6,3.1s-2.7-.8-2.7-3a9,9,0,0,1,.9-4l-.8-.4A7.1,7.1,0,0,1,49.3,42c.3-1.3,2.1-3.2,3.1-4.1a8.9,8.9,0,0,1,3.1-1.4,12.4,12.4,0,0,1,.4-1.6C56.9,32,60,28,63.4,28m0-3h0c-5.3,0-9.1,5.5-10.3,9-.1,0-.1.1-.1.2a14.8,14.8,0,0,0-2.5,1.4c-.9.8-3.5,3.3-4.1,5.6a10.1,10.1,0,0,0,3.5,10.6,12.4,12.4,0,0,0-.3,2.7,6.1,6.1,0,0,0,1.6,4.4,5.6,5.6,0,0,0,4.1,1.6c3.2,0,6.9-2.1,8.8-4.1a3.9,3.9,0,0,0,.8-1,18,18,0,0,0,3.5,2.4,8.2,8.2,0,0,0,3.8,1.1,5.7,5.7,0,0,0,4.1-1.7,7.8,7.8,0,0,0,2-6,12.6,12.6,0,0,0-.4-2.7,9.7,9.7,0,0,0,2.2-3.8,10,10,0,0,0,.3-5.4c-.7-3-2.8-6.5-6.6-7.2h-.6a16.4,16.4,0,0,0-5.6-5.8A7.2,7.2,0,0,0,63.4,25Z" style="fill:#84205c"/><path d="M57.8,81a5,5,0,0,0-3.2-.1c-1.9-1.5-5.9,3.2-7.1,4.9s-4.1,5-4.1,8.2c0,5.5,6.9,2.4,9.3-.1a12,12,0,0,0,2.7-4.5,11.1,11.1,0,0,0,5.2,5.3c3.8,2,5.6-.5,5.5-3.8S62.4,82.6,57.8,81Z" style="fill:#ac53b0"/><path d="M56.7,68.3c-4.2-2.8-8.7,2.5-10,6.2s1,8.3,5.2,8.4,7.9-.9,9.5-3.4C64.1,75,60.4,70.7,56.7,68.3Z" style="fill:#ac538c"/><path d="M64.1,74.6h-.7c-2,0-3.8,1.5-5.1,2.8S55,81.3,53,80.9s-2.2-1.9-2.8-2.7a4.3,4.3,0,0,0-2.8-2.1c-1.2-.3-3.2.6-4.2,1.4s-2.8,2.8-3.1,4.1a7,7,0,0,0,3.4,8,5.5,5.5,0,0,0,5.4.6,6.3,6.3,0,0,0,2.8-3.4c.3-1.1.7-2.8,2-3s2.4,1.7,3,2.6a4.4,4.4,0,0,0,3,2.3c3.5.7,7.4-2,8.4-5.3a8.6,8.6,0,0,0,.2-3.9C67.8,77.3,66.4,75,64.1,74.6Z" style="fill:#fa789e"/><path d="M56.8,84.7A2.2,2.2,0,0,0,55,83a1.2,1.2,0,0,0-1,.2c-1.1.3-1.9,1.8-2.3,2.8a3.6,3.6,0,0,0,.7,3.6c.7.9,1.7,1,2.2.1s-1.7-3.1-.8-4.6,1.5,2.2,1.5,3.4.1,1.8,1,1.2S57.4,86.2,56.8,84.7Z" style="fill:#fab585"/><path d="M54.2,88.4c-.3.1-.7.9-.4.9S54.5,88.4,54.2,88.4Z" style="fill:#fff"/><path d="M53.5,87.9v-.2h-.1c-.1,0-.1.2-.2.2V88c0,.2.1.1.2,0Z" style="fill:#fff"/><path d="M53.1,88.5c-.3.1-.6.8-.3.8S53.4,88.5,53.1,88.5Z" style="fill:#fff"/><path d="M53,87.4h0c.1,0,.2-.2.2-.3h0C53.2,86.7,52.6,87.5,53,87.4Z" style="fill:#fff"/><path d="M56.1,87.6c-.2,0-.4.5-.2.5S56.3,87.6,56.1,87.6Z" style="fill:#fff"/><path d="M56.1,85.6h0c-.1-.1-.2.2-.3.2h0C55.7,86.3,56.4,85.8,56.1,85.6Z" style="fill:#fff"/><path d="M56.7,87h0c-.2,0-.4.3-.4.5s.4-.2.4-.3h0C56.8,87.1,56.8,87,56.7,87Z" style="fill:#fff"/><path d="M56.7,88.5h0c-.1-.2-.4.3-.4.3h.2C56.6,88.9,56.9,88.5,56.7,88.5Z" style="fill:#fff"/><path d="M54.2,67.5a4.6,4.6,0,0,1,2.5.8c2.4,1.6,4.7,3.9,5.4,6.5l1.3-.2h.7c2.3.4,3.7,2.7,4.2,4.9a8.6,8.6,0,0,1-.2,3.9,7.3,7.3,0,0,1-2.9,3.8,9.6,9.6,0,0,1,.9,3.7c.1,2.5-.9,4.5-3.1,4.5a4.9,4.9,0,0,1-2.4-.7,11.1,11.1,0,0,1-5.2-5.3,12,12,0,0,1-2.7,4.5c-1.4,1.5-4.4,3.2-6.6,3.2s-2.7-.8-2.7-3.1a8.6,8.6,0,0,1,.9-3.9l-.8-.5a7,7,0,0,1-3.4-8c.3-1.3,2.1-3.3,3.1-4.1a7.4,7.4,0,0,1,3.1-1.4,9.4,9.4,0,0,1,.4-1.6c1-3,4.1-7,7.5-7m0-3h0c-5.2,0-9.1,5.5-10.3,9a.4.4,0,0,0-.1.3,7.7,7.7,0,0,0-2.5,1.4c-.9.7-3.5,3.2-4.1,5.5a10.1,10.1,0,0,0,3.5,10.6,12.4,12.4,0,0,0-.3,2.7A6.6,6.6,0,0,0,42,98.5a5.6,5.6,0,0,0,4.1,1.6c3.2,0,6.9-2.1,8.8-4.1l.8-1a18,18,0,0,0,3.5,2.4,8,8,0,0,0,3.8,1,5.7,5.7,0,0,0,4.1-1.7,7.7,7.7,0,0,0,2-5.9,12.6,12.6,0,0,0-.4-2.7A10.8,10.8,0,0,0,71,84.3a11.4,11.4,0,0,0,.2-5.5c-.7-3-2.8-6.4-6.6-7.1H64a17.3,17.3,0,0,0-5.6-5.8,8,8,0,0,0-4.2-1.3Z" style="fill:#84205c"/><polygon points="63.9 137.4 28.4 137.4 15.3 137.4 22.3 193.7 28.4 193.7 63.9 193.7 70 193.7 77 137.4 63.9 137.4" style="fill:#e57225"/><path d="M70.6,194.4H21.7l-7.2-57.7H77.8ZM22.9,193H69.4l6.9-54.9H16Z" style="fill:#ce4737"/><g style="opacity:0.5;mix-blend-mode:multiply"><path d="M58.8,136.4c-.7,10.2-1.9,20.4-2.4,30.7-.4,8.5-.7,17.1-1.4,25.6H69l7-56.3Z" style="fill:#b34d44"/></g><path d="M30.5,137.4h0Z" style="fill:#e57225"/><polygon points="30.5 138.6 29.1 136.8 31.7 136.7 30.5 138.6" style="fill:#9a4138"/><path d="M41,137.4h0Z" style="fill:#e57225"/><polygon points="41 138.6 39.5 136.8 42.2 136.7 41 138.6" style="fill:#9a4138"/><path d="M51.4,137.4Z" style="fill:#e57225"/><polygon points="51.4 138.6 50 136.8 52.6 136.7 51.4 138.6" style="fill:#9a4138"/><path d="M61.9,137.4h0Z" style="fill:#e57225"/><polygon points="61.9 138.6 61.3 137.9 61.3 137.9 60.5 136.8 63.2 136.7 61.9 138.6" style="fill:#9a4138"/><path d="M72.4,137.4h0Z" style="fill:#e57225"/><polygon points="72.4 138.6 70.9 136.8 73.6 136.7 72.4 138.6" style="fill:#9a4138"/><path d="M20,137.4h0Z" style="fill:#e57225"/><polygon points="20 138.6 18.6 136.8 21.2 136.7 20 138.6" style="fill:#9a4138"/><path d="M13,136.5l.9,8.2a5,5,0,0,0,2.1.5,5.8,5.8,0,0,0,5-3.2,5.9,5.9,0,0,0,5,3.2,5.8,5.8,0,0,0,5-3.2,5.9,5.9,0,0,0,5,3.2,5.8,5.8,0,0,0,5-3.2,5.9,5.9,0,0,0,5,3.2,5.8,5.8,0,0,0,5-3.2,5.8,5.8,0,0,0,5,3.2,5.9,5.9,0,0,0,5-3.2,5.8,5.8,0,0,0,5,3.2,5.9,5.9,0,0,0,5-3.2,5.8,5.8,0,0,0,5,3.2,4.5,4.5,0,0,0,2.5-.7l.8-8Z" style="fill:#e57225"/><path d="M76,145.9a6.1,6.1,0,0,1-5-2.7,6.4,6.4,0,0,1-5,2.7,6.1,6.1,0,0,1-5-2.7,6.4,6.4,0,0,1-5,2.7,6.1,6.1,0,0,1-5-2.7,6,6,0,0,1-10,0,6.1,6.1,0,0,1-5,2.7,6.4,6.4,0,0,1-5-2.7,6.1,6.1,0,0,1-5,2.7,6.4,6.4,0,0,1-5-2.7,5.9,5.9,0,0,1-7.4,2.1h-.4l-.9-9.4H80l-.9,9.2h-.3A6,6,0,0,1,76,145.9Zm-5-5.3.6,1.1a4.8,4.8,0,0,0,6.3,2.4l.7-6.9H13.8l.7,7.1a4.9,4.9,0,0,0,5.9-2.6l.6-1.1.6,1.1a4.9,4.9,0,0,0,8.8,0l.6-1.1.6,1.1a4.9,4.9,0,0,0,8.8,0l.6-1.1.6,1.1a4.9,4.9,0,0,0,8.8,0l.6-1.1.6,1.1a4.9,4.9,0,0,0,8.8,0l.6-1.2.6,1.1a4.9,4.9,0,0,0,4.4,2.9,5,5,0,0,0,4.4-2.8Z" style="fill:#ce4737"/><path d="M80,135.8h0m0,0-.9,9.2h-.3a5.8,5.8,0,0,1-2.1.7l-6.1,48.6H21.7l-6-48.5-2.1-.6h-.4l-.9-9.4H80m0-3H12.3a2.9,2.9,0,0,0-2.2,1,3,3,0,0,0-.8,2.3l.9,9.4a3.2,3.2,0,0,0,1.7,2.4h.4l.6.3,5.8,46.4a3.1,3.1,0,0,0,3,2.7H70.6a3.1,3.1,0,0,0,3-2.7l5.8-46.5.9-.5h.3a3.3,3.3,0,0,0,1.5-2.3l.9-9v-.5a3,3,0,0,0-3-3Zm0,6Z" style="fill:#6a3417"/></g></g></g></svg>