<svg xmlns="http://www.w3.org/2000/svg" viewBox="0 0 80.6 80.6"><g style="isolation:isolate"><g id="Layer_2" data-name="Layer 2"><g id="Layer_1-2" data-name="Layer 1"><g id="_315703432" data-name=" 315703432"><g id="_315704584" data-name=" 315704584" style="opacity:0.5"><path d="M32.2,58.2a25.8,25.8,0,0,1-18.4-7.6A26.1,26.1,0,0,1,6.2,32.2,26,26,0,0,1,50.5,13.8a25.5,25.5,0,0,1,7.7,18.4,26.1,26.1,0,0,1-26,26Z" style="fill:#a7bfee;fill-rule:evenodd"/><path d="M32.2,7.7a24,24,0,0,1,17.3,7.2A24.5,24.5,0,1,1,14.9,49.5,24,24,0,0,1,7.7,32.2a23.9,23.9,0,0,1,7.2-17.3A23.9,23.9,0,0,1,32.2,7.7m0-3A27.3,27.3,0,0,0,4.7,32.2,27.4,27.4,0,0,0,51.6,51.6,27.5,27.5,0,0,0,32.2,4.7Z" style="fill:#5576b4"/></g><path d="M53.5,18.2,12.6,48.3A25.9,25.9,0,0,1,10,43.7L49.9,14.4A21.4,21.4,0,0,1,53.5,18.2Z" style="fill:#fff;opacity:0.5;mix-blend-mode:screen"/><path d="M48.5,13.3,9.3,42a24.5,24.5,0,0,1-.8-2.9L45.9,11.6Z" style="fill:#fff;opacity:0.5;mix-blend-mode:screen"/><path d="M57.7,63.7a2.7,2.7,0,0,1-1.9-.8L50,57.1a30.4,30.4,0,0,1-17.8,5.7H31a30.5,30.5,0,0,1-20.5-9,30.1,30.1,0,0,1-9-21.6A30.7,30.7,0,0,1,32.2,1.5a30.1,30.1,0,0,1,21.6,9A30.6,30.6,0,0,1,57.1,50l5.8,5.9a2.6,2.6,0,0,1,0,3.7l-3.3,3.3A2.6,2.6,0,0,1,57.7,63.7ZM32.2,9.2a22.9,22.9,0,0,0-23,23,23,23,0,0,0,23,23,22.5,22.5,0,0,0,16.2-6.8,22.5,22.5,0,0,0,6.8-16.2,23,23,0,0,0-23-23Z" style="fill:#cecece;fill-rule:evenodd"/><path d="M32.2,3A29.2,29.2,0,0,1,55.1,50.2l6.8,6.7a1.4,1.4,0,0,1,0,1.7l-3.3,3.3a1.6,1.6,0,0,1-.9.3,1.1,1.1,0,0,1-.8-.3l-6.7-6.8a28.9,28.9,0,0,1-18,6.2H31A29.2,29.2,0,0,1,32.2,3m0,53.7A24.5,24.5,0,0,0,49.5,14.9a24.5,24.5,0,0,0-34.7,0,24.6,24.6,0,0,0,0,34.6,24.7,24.7,0,0,0,17.4,7.2M32.2,0A32.1,32.1,0,0,0,0,32.2,31.8,31.8,0,0,0,9.4,54.9a32.4,32.4,0,0,0,21.5,9.4h1.3A31.4,31.4,0,0,0,49.8,59l5,5a4,4,0,0,0,2.9,1.2,4.1,4.1,0,0,0,3-1.2L64,60.7h0a4.2,4.2,0,0,0,0-5.9l-5-4.9a31.8,31.8,0,0,0,5.3-19A32.4,32.4,0,0,0,54.9,9.4,31.8,31.8,0,0,0,32.2,0Zm0,53.7A21.5,21.5,0,0,1,17,17a21,21,0,0,1,15.2-6.3A21.3,21.3,0,0,1,47.4,17a21.5,21.5,0,0,1,0,30.4,21.8,21.8,0,0,1-15.2,6.3Z" style="fill:#575757"/><g id="_315704776" data-name=" 315704776"><path d="M71.8,79.1A7.6,7.6,0,0,1,66.6,77L54.2,64.6a2.8,2.8,0,0,1,0-3.8l6.6-6.6a2.7,2.7,0,0,1,3.8,0L77,66.6A7.5,7.5,0,0,1,77,77,7.8,7.8,0,0,1,71.8,79.1Z" style="fill:#af7553;fill-rule:evenodd"/><path d="M62.7,54.9a.9.9,0,0,1,.8.4L75.9,67.6a5.9,5.9,0,0,1-4.1,10,6.3,6.3,0,0,1-4.2-1.7L55.3,63.5a1,1,0,0,1,0-1.6l6.6-6.6a.9.9,0,0,1,.8-.4m0-3a4.7,4.7,0,0,0-3,1.2l-6.6,6.6h0a4.1,4.1,0,0,0,0,5.8L65.5,78a8.8,8.8,0,0,0,6.3,2.6A8.5,8.5,0,0,0,78,78a8.8,8.8,0,0,0,0-12.5L65.6,53.1h0a4,4,0,0,0-2.9-1.2Z" style="fill:#75411a"/></g></g></g></g></g></svg>