<svg xmlns="http://www.w3.org/2000/svg" xmlns:xlink="http://www.w3.org/1999/xlink" viewBox="0 0 110.8 64.7"><defs><clipPath id="clip-path"><path d="M104.6,37.4c-.6,1.6-1.4,2.7-2.4,2.7H8.5c-4.4,0-4.4-18.6,0-18.6h93.7C105.5,21.5,106.3,32.2,104.6,37.4Z" style="fill:#ffaa5a"/></clipPath></defs><g style="isolation:isolate"><g id="Layer_2" data-name="Layer 2"><g id="Layer_1-2" data-name="Layer 1"><path d="M107.8,59.9a.4.4,0,0,0-.1.3c-.5.9-1.1,1.5-1.9,1.5H6.4c-4.5,0-4.5-21.6,0-21.6h99.4c.8,0,1.4.6,1.9,1.5h0a.7.7,0,0,1-.7,1h-.5L101.6,44l.4,11.9,4.5,3.2h.5A.8.8,0,0,1,107.8,59.9Z" style="fill:#83932d"/><path d="M107.8,59.8h0a.4.4,0,0,0-.1.3c-.5.9-1.1,1.5-1.9,1.5H6.4c-4,0-4.5-17-1.4-20.8C2.8,46.3,3.5,60.4,7.1,60.4h99.5A1.7,1.7,0,0,0,107.8,59.8Z" style="fill:#4e5a01;opacity:0.25;mix-blend-mode:multiply"/><path d="M107,42.7h-.7l-4.7,1.2.4,11.4,2.4,1.6a13.9,13.9,0,0,0,2.1,2.2H8.2c-4.5,0-4.5-17.4,0-17.4h99.5A.7.7,0,0,1,107,42.7Z" style="fill:#4e5a01;opacity:0.25;mix-blend-mode:multiply"/><path d="M106.5,59.1H8.9c-4.4,0-4.4-16.4,0-16.4h97.6s-7.8,6.9-2.1,14.2A13.9,13.9,0,0,0,106.5,59.1Z" style="fill:#eed7ce"/><path d="M104.4,45.2H10.2c-3.2,0-4.1,8.4-2.7,13.2C4.6,55.3,5,42.7,8.9,42.7h97.6A14.9,14.9,0,0,0,104.4,45.2Z" style="fill:#c27e60;opacity:0.25;mix-blend-mode:multiply"/><g style="opacity:0.25;mix-blend-mode:multiply"><path d="M22.8,48.8c4.5.1,9-.1,13.6-.2L50,48.4c8.9,0,17.9-.1,26.9,0,5.1,0,10.2.3,15.3,0a.3.3,0,0,0,0-.5c-4.5-.4-9.1-.3-13.6-.3H65c-9,.1-18,.1-26.9.3-5.1.1-10.2.2-15.3.5-.3.1-.3.5,0,.5Z" style="fill:#c27e60"/></g><g style="opacity:0.25;mix-blend-mode:multiply"><path d="M13.5,51.3c6.8.1,13.5-.1,20.3-.1s13.4-.2,20.1-.1c3.8,0,7.7.2,11.5-.1.4,0,.4-.5,0-.5a86.4,86.4,0,0,0-10.2-.2H45.1L25,50.5c-3.8.1-7.7.2-11.5.5a.1.1,0,1,0,0,.3Z" style="fill:#c27e60"/></g><g style="opacity:0.25;mix-blend-mode:multiply"><path d="M39.4,54.9c3.5.1,7.1,0,10.6,0l10.7-.2,21.4-.2h5.8a39.5,39.5,0,0,0,5.9-.3.1.1,0,1,0,0-.3,30.3,30.3,0,0,0-5.2-.3H72.7L51.3,54c-4,.1-8,.1-11.9.4-.4,0-.4.5,0,.5Z" style="fill:#c27e60"/></g><path d="M10.4,20a.3.3,0,0,0,.1.2c.4.8.9,1.3,1.5,1.3H97.4c3.9,0,3.9-18.5,0-18.5H12c-.6,0-1.1.5-1.5,1.3h0a.6.6,0,0,0,.5.9h.5l4.2,1.1-.4,10.3-3.8,2.7H11C10.6,19.3,10.4,19.6,10.4,20Z" style="fill:#5576b4"/><path d="M11.5,19.3H95.3c3.8,0,3.8-14.1,0-14.1H11.5s6.6,5.9,1.8,12.2Z" style="fill:#eed7ce"/><path d="M13.3,7.4H94.2c2.7,0,3.5,7.2,2.3,11.3C99,16,98.6,5.2,95.3,5.2H11.5A11.5,11.5,0,0,1,13.3,7.4Z" style="fill:#c27e60;opacity:0.25;mix-blend-mode:multiply"/><g style="opacity:0.25;mix-blend-mode:multiply"><path d="M83.4,10c-7.8-.5-15.5-.5-23.3-.6H36.8c-4.3,0-8.7-.1-13,.3a.2.2,0,1,0,0,.4c3.8.2,7.7,0,11.6,0H47c7.8,0,15.6,0,23.3.2,4.4,0,8.7.2,13.1.1.2,0,.2-.4,0-.4Z" style="fill:#c27e60"/></g><g style="opacity:0.25;mix-blend-mode:multiply"><path d="M91.3,12.3c-5.7-.4-11.5-.4-17.3-.5H56.7a83.5,83.5,0,0,0-10,.2c-.2,0-.3.4,0,.4a84.2,84.2,0,0,0,8.7.1h8.7l17.3.2h9.9a.1.1,0,0,0,0-.3Z" style="fill:#c27e60"/></g><g style="opacity:0.25;mix-blend-mode:multiply"><path d="M69.1,15.3c-3-.3-6-.3-9.1-.4l-9.2-.2-18.2-.2H27.4a28.3,28.3,0,0,0-5,.2.2.2,0,0,0,0,.3,52.6,52.6,0,0,0,8.9.3h9.2l18.2.2c3.5.1,7,.2,10.4.1a.2.2,0,1,0,0-.4Z" style="fill:#c27e60"/></g><path d="M104.6,37.4c-.6,1.6-1.4,2.7-2.4,2.7H8.5c-4.4,0-4.4-18.6,0-18.6h93.7C105.5,21.5,106.3,32.2,104.6,37.4Z" style="fill:#ffaa5a"/><g style="clip-path:url(#clip-path)"><path d="M13.3,31.6a34.9,34.9,0,0,1,.6-6.5c.4-2.3.9-4.5,1.1-6.9s-1.4-1.3-1.9-.5c-2.6,4-3.1,9.3-3.3,13.9a41.8,41.8,0,0,0,.3,7.1c.3,2.2.3,5.1,2.4,6.4a.9.9,0,0,0,1.4-.3c1-2.1,0-4.4-.2-6.6A36.6,36.6,0,0,1,13.3,31.6Z" style="fill:#ffeb81"/><path d="M100.2,29.4c-.4-3.5-1-7.6-3.2-10.5a1,1,0,0,0-1.9.8c.5,3.2,1.6,6.3,1.8,9.5a30.7,30.7,0,0,1-.8,9.6c-.3,1.2-.6,3.6,1.1,3.9s2.5-2.1,2.7-3.5A32.1,32.1,0,0,0,100.2,29.4Z" style="fill:#ffeb81"/><path d="M18.2,20c.2-.8-1-1.1-1.3-.3a27.4,27.4,0,0,0-1.7,6.4,36,36,0,0,0-.7,6.6,28.5,28.5,0,0,0,.5,6.5c.3,1.8.5,4.3,2.1,5.5s.6-.1.7-.3-.2-4-.5-5.7a42.1,42.1,0,0,1-.5-6.2c0-2.1,0-4.2.2-6.2A35,35,0,0,1,18.2,20Z" style="fill:#ffeb81"/></g><rect x="19.4" y="23.9" width="71.1" height="13.22" rx="4.2" style="fill:#f8cab6"/><path d="M97.4,3c3.6,0,3.9,15.6.9,18.1.1.1.1.3.2.4h3.7c3.3,0,4.1,10.7,2.4,15.9-.6,1.6-1.4,2.7-2.4,2.7h3.6c.8,0,1.4.6,1.9,1.5h0c0,.1.1.2.1.3a.8.8,0,0,1-.8.7h-.7l-.2.2h0l-.3.3h0l-.3.3h0l-.4.4h0l-.3.4h-.1l-.3.5h0c-1.8,2.7-3.6,7.1,0,11.7a13.9,13.9,0,0,0,2.1,2.2h.5a.6.6,0,0,1,.7.7h.1a.4.4,0,0,0-.1.3c-.5.9-1.1,1.5-1.9,1.5H6a.1.1,0,0,1-.1-.1H5.6a.1.1,0,0,1-.1-.1H5.3c-.1-.1-.1-.1-.1-.2a.2.2,0,0,1-.2-.2l-.2-.2c0-.1-.1-.1-.1-.2v-.2c-.1-.1-.1-.3-.2-.4a.3.3,0,0,1-.1-.2c-.1-.1-.1-.3-.2-.4V59a1.4,1.4,0,0,1-.2-.6.4.4,0,0,1-.1-.3c0-.2-.1-.3-.1-.5a.6.6,0,0,1-.1-.4c0-.1-.1-.3-.1-.4s-.1-.3-.1-.4v-.5c-.1-.1-.1-.2-.1-.4a.6.6,0,0,0-.1-.4v-.5a.6.6,0,0,0-.1-.4v-1a.6.6,0,0,0-.1-.4V49a.6.6,0,0,0,.1-.4v-1a.6.6,0,0,0,.1-.4v-.5a.6.6,0,0,0,.1-.4.6.6,0,0,1,.1-.4v-.5c0-.1.1-.2.1-.4s.1-.3.1-.4,0-.3.1-.3.1-.5.1-.8a.1.1,0,0,0,.1-.1,1.4,1.4,0,0,1,.2-.6v-.2c.1-.1.1-.3.2-.4s.1-.1.1-.2.1-.2.2-.4a.3.3,0,0,1,.1-.2c0-.1.1-.1.1-.2L5,41H5a1.9,1.9,0,0,1,1.4-.8H8.5c-4.4,0-4.4-18.6,0-18.6h2.8a.4.4,0,0,1,.1-.3,1.8,1.8,0,0,1-.9-1,.3.3,0,0,1-.1-.2c0-.4.2-.7.6-.7h.5l1.8-1.9a8,8,0,0,0,0-10h0L13,6.9h0l-.4-.4h0l-.2-.4h-.1c-.1-.1-.2-.2-.2-.3H12V5.6H11a.6.6,0,0,1-.5-.9h0c.4-.8.9-1.3,1.5-1.3H97.4m10.4,56.8h0M97.4,0H12A4.7,4.7,0,0,0,7.8,2.9h0a.1.1,0,0,0-.1.1A3.5,3.5,0,0,0,8,6.5a3.4,3.4,0,0,0,2.1,1.6h0c.1.1.1.2.2.2h0l.2.3h.1l.2.4c2.2,3.1,1.1,5.2.1,6.4l-.7.9a3.1,3.1,0,0,0-1.9,1.1,2.7,2.7,0,0,0-.6,1c-3.5.7-5.5,5.1-5.5,12.3a23.1,23.1,0,0,0,1.1,7.6l-.3.3-.3.3s-.1.2-.2.2-.1.2-.1.3l-.3.4-.2.3a1.7,1.7,0,0,0-.2.5l-.2.3a1.4,1.4,0,0,1-.2.6c0,.1-.1.2-.1.3s-.1.4-.2.6v.2l-.3.9v.2h0c-.1.2-.1.4-.2.6v.3h0a1.1,1.1,0,0,0-.1.5c0,.2-.1.3-.1.5v.5a.7.7,0,0,0-.1.5v.5a.7.7,0,0,0-.1.5v.5h0a.9.9,0,0,1-.1.5v.4H0v1.8H0v.9H0v.4a.8.8,0,0,1,.1.4h0v.5a.7.7,0,0,0,.1.5v.5a.7.7,0,0,0,.1.5v.5c0,.2.1.3.1.5a.9.9,0,0,0,.1.5h0v.3a1.1,1.1,0,0,1,.1.5H.7v.3a6.4,6.4,0,0,0,.2.7h0v.2a6.4,6.4,0,0,0,.2.7c0,.1.1.2.1.3h0a1.4,1.4,0,0,1,.2.6c.1.1.1.2.2.2h0a1.7,1.7,0,0,0,.2.5l.2.3.3.4c0,.1.1.2.2.3l.3.5.3.3.5.4.4.2.6.3.5.2,1.2.2h99.4c1.1,0,3.1-.4,4.5-3.1a3.3,3.3,0,0,0,.4-1.4V60c.1,0,.1-.1.1-.2s-.1-.4-.1-.6a3.5,3.5,0,0,0-1-2,3.2,3.2,0,0,0-2-1l-1-1.2c-.7-.9-2.8-3.7.1-8.1l.3-.4h.1l.3-.3h0l.2-.2h.1a3.6,3.6,0,0,0,2.9-3.4,2.5,2.5,0,0,0-.3-1.7h0c0-.1-.1-.1-.1-.2a5.7,5.7,0,0,0-2.6-2.7c1.3-5,1-13.3-1.5-16.8a5,5,0,0,0-3.5-2.2,30.9,30.9,0,0,0-.5-14.4C100.9.5,98.7,0,97.4,0Z" style="fill:#507125"/><path d="M102.2,21.5c3.3,0,4.1,10.7,2.4,15.9-.6,1.6-1.4,2.7-2.4,2.7H8.5c-4.4,0-4.4-18.6,0-18.6h93.7m0-3H8.5c-4,0-6.3,4.6-6.3,12.3S4.5,43.1,8.5,43.1h93.7c1.3,0,3.8-.6,5.2-4.8s1.5-13.9-1.2-17.6a4.9,4.9,0,0,0-4-2.2Z" style="fill:#e57225"/></g></g></g></svg>