<svg xmlns="http://www.w3.org/2000/svg" viewBox="0 0 105.4 240.1"><g style="isolation:isolate"><g id="Layer_2" data-name="Layer 2"><g id="Layer_1-2" data-name="Layer 1"><path d="M43.5,3C47.8,3,52,5,55.4,7.6c8.7,6.8,13.3,17.5,16.2,28.2A14.6,14.6,0,0,1,80,33a10.2,10.2,0,0,1,4.5,1c4.5,2.2,6.8,7.2,8.1,12l.6,2.7h.1v.2c.3,1.2.5,2.3.7,3.4v.2a59.4,59.4,0,0,1,.8,7.1v.3c.1,1.1.2,2.2.2,3.4v4.2c-.1,1.1-.1,2.2-.2,3.3v.5l-.3,3.4V75c-.2,1.2-.3,2.4-.4,3.5a8.7,8.7,0,0,1,6.7,4.9,18.1,18.1,0,0,1,1.6,8.6c-.1,11.7-4.6,22.6-10.5,32.8-2,3.3-4,6.5-6.1,9.5s-11.1,13.2-20,19.6h-.1l-1,.6h-.1l-.9.6-.3.2-.8.5-.3.2-.8.4-.3.2-.7.4-.3.2-.7.3h-.4l-.6.3h-.1l-.9.4a8.6,8.6,0,0,1-4.3,1.3h-1a13.1,13.1,0,0,1-5,.8A28.4,28.4,0,0,1,33,156.4C7.5,140.8,1.9,109.5,3.2,83.2c.2-5.1,1-10.4,3.8-14.6s6.5-6.3,10.7-6.3l2.2.2a120.9,120.9,0,0,1,5.5-41C28,13.3,33,4.4,41.5,3.1h2m0-3L41.1.2C30.7,1.7,25.3,12.1,22.5,20.6a120.3,120.3,0,0,0-5.7,38.7A16.4,16.4,0,0,0,4.5,66.9C1.1,72.1.4,78.2.2,83c-.8,15.7.9,29.7,5,41.8,5.1,15.2,14,26.7,26.3,34.1a31.1,31.1,0,0,0,15.7,4.6,18.1,18.1,0,0,0,5.4-.7h.6a12.3,12.3,0,0,0,5.6-1.6l.6-.2h.2l.7-.3h.4l.8-.4h.4l.8-.5h.1l.2-.2.8-.4h.4l.8-.6h.3l.9-.7h.2l1-.7h.1A110.6,110.6,0,0,0,88.3,136c2.3-3.4,4.3-6.6,6.1-9.7,7.4-12.7,10.9-23.5,11-34.2a20.5,20.5,0,0,0-2-10.1,11.5,11.5,0,0,0-6-5.7,3.4,3.4,0,0,1,.1-1h0V75l.3-3.5h0V71c.1-1.1.1-2.2.2-3.4V63.2c0-1.2-.1-2.4-.2-3.5v-.2h0A59.8,59.8,0,0,0,97,52h0v-.2c-.2-1.1-.4-2.3-.7-3.5V48h-.1q-.3-1.5-.6-2.7c-2-7.2-5.1-11.7-9.7-13.9A12.9,12.9,0,0,0,80,30a16.4,16.4,0,0,0-6.5,1.3c-2.7-8.5-7.3-19.1-16.2-26.1C54.2,2.8,49.3,0,43.5,0Z" style="fill:#6c6120"/><path d="M100.8,83.4a8.7,8.7,0,0,0-6.7-4.9c1.4-10.9,1.4-21.9-1.5-32.5-1.3-4.8-3.6-9.8-8.1-12s-9-.9-12.9,1.8C68.7,25.1,64.1,14.4,55.4,7.6c-3.9-3.1-8.9-5.2-13.9-4.5C33,4.4,28,13.3,25.4,21.5a120.9,120.9,0,0,0-5.5,41C15,61.4,9.8,64.3,7,68.6S3.4,78.1,3.2,83.2C1.9,109.5,7.5,140.8,33,156.4c6,3.6,14.2,5.2,19.2,3.3a8.3,8.3,0,0,0,5.3-1.2c10.7-3.7,25.8-20.4,28.3-24.2,8.6-12.7,16.4-26.9,16.6-42.3A19.4,19.4,0,0,0,100.8,83.4Z" style="fill:#c3bf4f"/><path d="M100.8,83.4a8.7,8.7,0,0,0-6.7-4.9c1.3-10,1.4-20-.8-29.8-5.3-.4-10.5,2.4-13.9,6.5S74.1,65.3,73.3,71s-1.6,13.2-7,16c-3.9,2.1-8.6.8-13,1.2-8.3.8-14.8,7.6-19,14.9a45.2,45.2,0,0,0-6.7,20.4c-.4,7.3,1.5,14.8,6,20.4s9,7.9,14.2,10.7a37.7,37.7,0,0,0,10.6,3.5C69,153.9,83.3,138,85.8,134.3c8.1-11.9,16.3-26.6,16.6-42.3A18.1,18.1,0,0,0,100.8,83.4Z" style="fill:#808732;opacity:0.47000000000000003;mix-blend-mode:multiply"/><path d="M54.1,20.3c2.5-2.1,5.7-4,7.3-6.7a34.1,34.1,0,0,0-6-6c-3.9-3.1-8.9-5.2-13.9-4.5C33,4.4,28,13.3,25.4,21.5a120.9,120.9,0,0,0-5.5,41C15,61.4,9.8,64.3,7,68.6S3.4,78.1,3.2,83.2a123.2,123.2,0,0,0,1.1,24.9C6,94.3,14.6,81.1,27.7,76.7c4.4-1.5,9.3-2,13-4.9s6-10.8,5.6-17-1.9-12.3-1.2-18.5A24.8,24.8,0,0,1,54.1,20.3Z" style="fill:#dfe590"/><path d="M45.9,119.8a.5.5,0,0,1-.5-.3c-10-14.6-21-22.9-28.5-27.3S3,86,2.9,86a.6.6,0,0,1-.5-.8.9.9,0,0,1,.8-.5A54.7,54.7,0,0,1,17.5,91c7.6,4.5,18.8,12.9,29,27.8a.7.7,0,0,1-.2.9Z" style="fill:#6c6120"/><path d="M50.8,236.3l.2-3.5v-3.5l.3-3.5v-3.5c.2-4.7.4-9.4.5-14.1s.1-9.3,0-14-.1-9.5-.2-14.2l-.3-14.2v-7l-.3-7c-.6-9.4-1.4-18.8-2.1-28.2s-1.1-19-1.3-28.5-.1-19,.6-28.5a220.5,220.5,0,0,1,3.7-28.1c.9-4.6,2-9.2,3.2-13.7s2.7-8.9,4.3-13.2a.5.5,0,0,1,.7-.3.8.8,0,0,1,.3.9h0c-1.5,4.3-2.9,8.7-4,13.2s-2.2,9-3,13.6a214.9,214.9,0,0,0-3.1,27.8c-.5,9.4-.5,18.8-.1,28.2s1,18.8,1.8,28.2,1.8,18.7,2.5,28.2l.6,7.1v7.1l.7,14.2.6,14.2.3,14.3c0,4.7,0,9.5-.1,14.3v3.5l-.2,3.6v3.6l-.2,3.6c-.1,1.9-1.4,3.4-2.9,3.2s-2.7-1.7-2.6-3.6h0Z" style="fill:#6c6120"/><path d="M49.6,50.3a.7.7,0,0,1-.6-.7,81.2,81.2,0,0,0-6.5-31A77.2,77.2,0,0,0,36,6.4a.6.6,0,0,1,.1-.9.6.6,0,0,1,.9.1A64.7,64.7,0,0,1,43.7,18a82.6,82.6,0,0,1,6.6,31.6.7.7,0,0,1-.7.7Z" style="fill:#6c6120"/><path d="M52.1,116.1H52a.7.7,0,0,1-.6-.7c.1-.3.7-8.4,5.6-22.1S70.6,60.7,88.2,37.2a.7.7,0,0,1,1-.1.6.6,0,0,1,.1.9c-17.5,23.3-26.5,43.1-31,55.7a111.9,111.9,0,0,0-5.6,21.8A.6.6,0,0,1,52.1,116.1Z" style="fill:#6c6120"/><path d="M49.6,88.6A.6.6,0,0,1,49,88c-1.6-17.4-8.6-32.6-14.2-42.2A109,109,0,0,0,22.9,28.9a.8.8,0,0,1,0-1,.8.8,0,0,1,1,.1,114,114,0,0,1,12,17.1c5.7,9.8,12.8,25.1,14.4,42.7a.8.8,0,0,1-.6.8Z" style="fill:#6c6120"/><path d="M54,148a.7.7,0,0,1-.6-.7c-.2-16.9-12.6-37.8-22.9-52.3A278.4,278.4,0,0,0,7.9,67.2a.7.7,0,0,1,0-.9.7.7,0,0,1,1,0A296.7,296.7,0,0,1,31.6,94.2a174.5,174.5,0,0,1,15.7,26.3c4.8,10.1,7.3,19.2,7.4,26.8a.7.7,0,0,1-.6.7Z" style="fill:#6c6120"/><path d="M54.2,151.8h-.3a.6.6,0,0,1-.3-.9c.1-.1,6.2-12.7,15-27.3S88.8,92,100.4,82.8a.7.7,0,0,1,.9.1.8.8,0,0,1-.1,1c-9,7.1-19.9,21.1-31.5,40.3-8.7,14.5-14.8,27.1-14.9,27.2A.6.6,0,0,1,54.2,151.8Z" style="fill:#6c6120"/><path d="M45.1,67.4a.7.7,0,0,1-.6-.4c-3.1-8.5-9.4-14.4-14.2-17.9a54.4,54.4,0,0,0-9.8-5.5.6.6,0,0,1,.4-1.2A48.9,48.9,0,0,1,31,48c5,3.6,11.5,9.7,14.7,18.5.2.4,0,.7-.4.9Z" style="fill:#6c6120"/><path d="M48.9,70.4h-.1a.7.7,0,0,1-.6-.7,95.4,95.4,0,0,1,2.9-17.5,66,66,0,0,1,5.8-15A39.3,39.3,0,0,1,67.5,24.3a.7.7,0,0,1,.9.2.6.6,0,0,1-.1.9c-9,6.8-13.6,18.5-15.9,27.1a92.2,92.2,0,0,0-2.9,17.3A.6.6,0,0,1,48.9,70.4Z" style="fill:#6c6120"/><path d="M56.7,96.8h-.3a.6.6,0,0,1-.2-.9,203.5,203.5,0,0,1,12.9-19C79,63.7,87.5,56.1,94.2,54.2a.7.7,0,0,1,.3,1.3c-15.4,4.3-37,40.6-37.2,41A.6.6,0,0,1,56.7,96.8Z" style="fill:#6c6120"/><path d="M54.3,158.4a.6.6,0,0,1-.6-.6c-1.4-7.2-10-15.9-24.7-25A188.6,188.6,0,0,0,6.7,121.1a.7.7,0,0,1-.3-.9.8.8,0,0,1,.9-.4,217.3,217.3,0,0,1,22.4,11.9,101.7,101.7,0,0,1,16.2,12c5.2,4.9,8.2,9.6,9.1,13.9a.8.8,0,0,1-.6.8Z" style="fill:#6c6120"/><path d="M45.9,145.3a.7.7,0,0,1-.6-.4c-5.3-11.8-16.6-23.7-25.1-31.7A205.9,205.9,0,0,0,2.9,98.7a.8.8,0,0,1-.2-1,.6.6,0,0,1,.9-.1,202.3,202.3,0,0,1,17.5,14.6c8.6,8.1,20,20.1,25.4,32.2a.6.6,0,0,1-.3.9Z" style="fill:#6c6120"/><path d="M63.2,134.7h-.3a.8.8,0,0,1-.3-.9,3.9,3.9,0,0,0,.3-1.1,131.8,131.8,0,0,1,6.8-24.1A184.1,184.1,0,0,1,94.5,64.3a.6.6,0,0,1,.9-.1.6.6,0,0,1,.1.9c-16.2,21.6-27.1,45.1-31.3,67.8-.3,1.1-.3,1.3-.4,1.5A.6.6,0,0,1,63.2,134.7Zm-.5-1h0Z" style="fill:#6c6120"/></g></g></g></svg>