<svg xmlns="http://www.w3.org/2000/svg" viewBox="0 0 100.1 100.1"><g id="Layer_2" data-name="Layer 2"><g id="Layer_1-2" data-name="Layer 1"><circle cx="50.1" cy="50.1" r="47.1" style="fill:#ffeb81"/><path d="M61.8,27.4a3.4,3.4,0,0,0-.3-5S34.9,7.5,13.1,20.9l-.4.6A46.2,46.2,0,0,0,3.2,53.9C12.7,43.7,33.2,26.3,61.8,27.4Z" style="fill:#4a8c32"/><path d="M69.1,19.1a61.1,61.1,0,0,0-2-12.9A46.8,46.8,0,0,0,49.9,3,68.2,68.2,0,0,1,65,21.8S68.5,22.6,69.1,19.1Z" style="fill:#4a8c32"/><path d="M76.1,24.2c-3.1,1.5-1.5,4.7-1.5,4.7a65.9,65.9,0,0,1,20.9,8.8,48,48,0,0,0-7.1-15A61.9,61.9,0,0,0,76.1,24.2Z" style="fill:#4a8c32"/><path d="M71.7,24.9A40.5,40.5,0,0,1,83.6,17a41.8,41.8,0,0,0-5-4.3,38.1,38.1,0,0,0-4.1-2.9,50.3,50.3,0,0,0-4.3,12C69.1,24.9,71.7,24.9,71.7,24.9Z" style="fill:#4a8c32"/><path d="M91.9,71.7c2-22.1-16.4-40.5-16.4-40.5-3-2-4.9,1.6-4.9,1.6,8.4,26.7-1.8,50.7-8.8,62.8a46.4,46.4,0,0,0,25.7-17A50.3,50.3,0,0,0,91.9,71.7Z" style="fill:#4a8c32"/><path d="M53.2,69.6A108.4,108.4,0,0,0,67.3,32.3L63.2,29S25.8,46.4,13.5,79.6a46.1,46.1,0,0,0,8,7.9A44.1,44.1,0,0,0,33.3,94,123,123,0,0,0,53.2,69.6Z" style="fill:#4a8c32"/><ellipse cx="68.5" cy="26.8" rx="7.5" ry="8.6" transform="translate(5.6 65) rotate(-52.6)" style="fill:#ff8d3d"/><path d="M34.4,77.1a47.1,47.1,0,0,1-8.9-66l1.8-2.3A47.5,47.5,0,0,0,12.7,21.5a47.1,47.1,0,0,0,73,59.4A47.3,47.3,0,0,1,34.4,77.1Z" style="opacity:0.1"/><path d="M50.1,3h2l2.1.2h.1l2.1.2h.1l2,.4h.1l2.1.4h.1l2.1.6h0l2.1.6h0l2.1.8h0a56,56,0,0,1,7.4,3.6h0l2,1.3h.1l2,1.4h0A15.5,15.5,0,0,1,81,14.6a.8.8,0,0,1,.4.4,48.5,48.5,0,0,1,7.7,8.7,4.1,4.1,0,0,1,.5.9,6.1,6.1,0,0,1,.7,1l.5.8.6,1.2a4.3,4.3,0,0,1,.4.7l.6,1.2.3.7.6,1.3.3.6a8.8,8.8,0,0,1,.5,1.5.8.8,0,0,1,.2.4l.6,1.6v.3l.6,1.8h0a47.5,47.5,0,0,1-3.6,34h0l-1,1.7v.2l-.9,1.5-.4.6-.7,1.1-1.3,1.8h0l-1.4,1.8a1,1,0,0,0-.4.5h-.1a5.2,5.2,0,0,0-1,1.1l-.6.6-.9.9-.7.7-.9.8-.8.7-.9.7-.8.7-.3.3-2.4,1.7-.6.3-1.2.8-.5.3-1.3.7-.4.3-1.5.7h-.2l-2.9,1.3h-.1l-1.8.7h-.3l-1.7.6h-.4l-1.6.4-.6.2-1.5.3-.6.2-1.5.2h-.7l-1.4.2h-12l-1.2-.2-1-.2-1.2-.2-1-.3L38,95.6l-1.1-.4-1.1-.3-1.1-.3-1-.4-1.2-.5-1-.4-1.1-.5h-.2l-.7-.3-1.2-.6-.9-.5-1.2-.7-.8-.5-.8-.5-.6-.3-.6-.4-1.9-1.4h0l-2.1-1.7-.5-.5-1.5-1.4-.4-.4-1.6-1.6c-.1-.1-.2-.2-.2-.3l-.7-.6-1-1.4h0A45.5,45.5,0,0,1,6.2,67.2,46.5,46.5,0,0,1,3,50.3V48.4c0-.3.1-.6.1-.9a4.9,4.9,0,0,1,.1-1.2v-1c0-.1.1-.2.1-.3a2.8,2.8,0,0,1,.1-.9c0-.3.1-.6.1-1s.1-.7.2-1.1.1-.7.2-1.1.1-.7.2-1.1l.3-1a4.3,4.3,0,0,0,.2-1.1A4.9,4.9,0,0,1,5,36.6l.3-1,.3-1.1a6.9,6.9,0,0,0,.4-1,7.6,7.6,0,0,0,.4-1.1l.5-1a3.7,3.7,0,0,1,.5-1.1l.3-.7c0-.1.1-.2.1-.3l.6-1.1a4.1,4.1,0,0,1,.5-.9l.6-1.2a2.2,2.2,0,0,0,.5-.8l.9-1.3.4-.6,1.4-1.9h0l1.5-1.9.4-.5,1.3-1.4.3-.3A18.5,18.5,0,0,1,17.6,16l.3-.3,1.5-1.4h.2l1.7-1.4h.1l1.9-1.3h0l4-2.5h0A48,48,0,0,1,50.1,3m0-3h0A49.8,49.8,0,0,0,25.9,6.2a38.7,38.7,0,0,0-4.3,2.7h-.1l-1.9,1.4h-.1l-1.8,1.5h-.1v.2l-1.7,1.4h-.1l-.2.2-1.4,1.5h-.2l-.2.3-1.4,1.5h-.1l-.3.3-1.6,2h0l-1.5,2-.3.5v.2H8.3a10,10,0,0,0-.8,1.4,2.1,2.1,0,0,0-.4.6v.2H6.9l-.7,1.2-.3.7-.2.2h0L5.1,28h0c-.1,0-.1.1-.1.2l-.3.5V29a6.1,6.1,0,0,1-.5,1.2l-.4,1-.5,1.2c-.1.4-.3.7-.4,1.1s-.3.8-.4,1.2l-.3,1.1-.3,1.1a2.7,2.7,0,0,0-.3,1.2l-.3,1.1L.9,40.4a5.2,5.2,0,0,1-.2,1.1h0a5,5,0,0,1-.2,1.2,2.8,2.8,0,0,1-.1.9v.5a1.3,1.3,0,0,0-.1.6V45h0a2.2,2.2,0,0,0-.1.8v1.5A1.5,1.5,0,0,1,0,48v2.3a50,50,0,0,0,3.4,18,51.3,51.3,0,0,0,7.7,13.2h.1l1.1,1.3.4.5.2.2.2.2h.1l1.7,1.8H15l.3.4,1.6,1.5h.2l.3.3,2.3,1.9h0l2,1.4.5.3.2.2.6.4h.2l.6.4.6.4h.5L26,94l.6.3.3.2h.2l1,.5.6.2h.7a3.1,3.1,0,0,0,1,.5l.8.3h.4l1,.4.9.3h.4l1,.4,1,.3h.2l1.1.3,1.1.2h.1l1.1.2,1.2.2,1.1.2,1.3.2,1.1.2H55.8l1.5-.2h.8l1.5-.3h.7l1.6-.4h.6l1.7-.4h.5l1.8-.5h.3a6.9,6.9,0,0,0,1.9-.7h.2l3-1.4h.2l1.6-.8.4-.2,1.4-.8.5-.3h.1l1.3-.8.4-.2.2-.2,2.5-1.8h.1l.3-.2.6-.5.2-.2h.1l.9-.7.7-.6h.1l.9-.9.8-.7.9-1,.7-.7,1-1.2h.3l.3-.4,1.5-1.9c.4-.6.9-1.2,1.3-1.9l.7-.9v-.2l.2-.2.3-.5.9-1.6h.2l.9-1.8h0a49.7,49.7,0,0,0,3.9-36.1L97.8,35h0v-.2L97.1,33h0v-.4a10.1,10.1,0,0,0-.7-1.5,1.4,1.4,0,0,0-.2-.6l-.6-1.5-.3-.6h-.1l-.6-1.3a2.1,2.1,0,0,0-.4-.6v-.2l-.6-1.2-.4-.6v-.2l-.2-.2a4.7,4.7,0,0,0-.5-1l-.5-.6v-.2a49,49,0,0,0-8.2-9.4h-.1l-.3-.3a21.4,21.4,0,0,0-2.5-2.1.1.1,0,0,1-.1-.1h0L78.3,8.7h-.1L76.1,7.3h0a57.9,57.9,0,0,0-7.9-3.9L66,2.6l-2.3-.7-2.2-.6h-.1L59.2.8h-.1L56.9.5h-.1L54.6.2h-.1L52.2,0H50.1Z" style="fill:#2e5b1d"/></g></g></svg>