<svg xmlns="http://www.w3.org/2000/svg" viewBox="0 0 81.7 97"><g id="Layer_2" data-name="Layer 2"><g id="Layer_1-2" data-name="Layer 1"><path d="M40.8,3A38.8,38.8,0,0,1,51.7,4.6c8.6,2.7,15.5,8.5,18.9,15.8A25.1,25.1,0,0,1,72.2,25h.7a5.8,5.8,0,0,1,1.5,11.4,31.9,31.9,0,0,1-1.7,7.9,42.5,42.5,0,0,1-2.1,4.9,33.4,33.4,0,0,1-4.8,7,34.5,34.5,0,0,1-11.3,8.3l-2.8,1.1-.7.2c0,2.4-2.6,4.4-6.3,5.3l.5,15.9a29.3,29.3,0,0,1,6.5,1.8c3,1.3,5.1,3.1,5.8,5.3H24.1c1.2-3.5,6-6.2,12.3-7.1L36.9,71c-3.6-.9-6.2-2.9-6.2-5.3l-3.6-1.3a37.3,37.3,0,0,1-8.8-5.8l-2.4-2.5a35.9,35.9,0,0,1-7-11.9,44.6,44.6,0,0,1-1.7-7.9,6.6,6.6,0,0,1-3.3-2.4A6.6,6.6,0,0,1,3,30.7a7,7,0,0,1,.9-3.2,6.2,6.2,0,0,1,4.9-2.6h.7a26.5,26.5,0,0,1,8.8-14,33.9,33.9,0,0,1,19-7.8L40.8,3M72.9,36.5h-.7A25.1,25.1,0,0,1,70.6,41c-3.4,7.3-10.3,13.1-18.9,15.8a38.8,38.8,0,0,1-10.9,1.6l-3.5-.2a33.9,33.9,0,0,1-19-7.8,26.5,26.5,0,0,1-8.8-14H8a43.4,43.4,0,0,0,2.4,7.2,38.1,38.1,0,0,0,7.3,10.8l.6.6a34.8,34.8,0,0,0,10,6.6l3.6,1.3a10.9,10.9,0,0,1,5.4-2.6,19.8,19.8,0,0,1,3.5-.3c3.9,0,7.2,1.1,8.9,2.9l2-.6,1.6-.7A33.6,33.6,0,0,0,64,54.4,37,37,0,0,0,70.6,45l.7-1.4a35.6,35.6,0,0,0,2.3-7.2h-.7M40.8,0,37,.2A37.6,37.6,0,0,0,16.4,8.7,29.7,29.7,0,0,0,7.2,22.1a9.1,9.1,0,0,0-5.8,3.8,8.9,8.9,0,0,0,0,9.6,8.3,8.3,0,0,0,3.1,2.8,32,32,0,0,0,1.6,6.8,37.1,37.1,0,0,0,7.6,13l2.6,2.7a37.9,37.9,0,0,0,9.6,6.3l2.2.9c.8,2.2,2.9,4,5.8,5.2l-.4,11.2C27.2,85.8,22.6,89,21.3,93a3.1,3.1,0,0,0,.4,2.7A3.1,3.1,0,0,0,24.1,97H57.5a2.8,2.8,0,0,0,2.4-1.3,2.8,2.8,0,0,0,.5-2.7c-1-2.9-3.6-5.4-7.5-7.1a33.7,33.7,0,0,0-4.8-1.5l-.3-11.2c2.9-1.2,4.9-3,5.8-5.2l2.2-.9a37.2,37.2,0,0,0,12.2-9,36.5,36.5,0,0,0,5.2-7.6,32.8,32.8,0,0,0,2.4-5.4,39.5,39.5,0,0,0,1.6-6.8,8.7,8.7,0,0,0-2.7-16.2l-1.2-2.9C69.5,11,62,4.7,52.5,1.8A38.2,38.2,0,0,0,40.8,0Z" style="fill:#924f28"/><path d="M13.9,29.5c0,.4-.1.8-.1,1.2,0,12.2,10.8,22.2,24.5,23.3l-5.5-5.6Zm21,22.7h0L33.4,52l-1.5-.3-1.4-.5h-.4l-.3-.2-.7-.3L27.7,50l-1.3-.8-.6-.4-.6-.5-.6-.4-.6-.5a24.4,24.4,0,0,1-4.2-4.3,20.3,20.3,0,0,1-3.2-5h.1a23.8,23.8,0,0,0,3.4,4.9,27.2,27.2,0,0,0,4.3,4,36.8,36.8,0,0,0,5,3c.9.5,1.8.8,2.7,1.2l1.4.6Z" style="fill:#cbd8ec"/><path d="M43.5,19,32.9,8.4l-3,1L63.7,43.2l1.5-2.5L54.5,30Z" style="fill:#cbd8ec"/><path d="M66.9,36.8a20.5,20.5,0,0,0,1-6.1c0-12.9-12.1-23.4-27.1-23.4l-3.2.2L47.8,17.7ZM49.2,10.1a27.5,27.5,0,0,1,3.6,1.5,22.7,22.7,0,0,1,3.4,1.9,28.2,28.2,0,0,1,5.6,5.3A37.8,37.8,0,0,1,64,22.1a17.8,17.8,0,0,1,1.4,3.6,23.1,23.1,0,0,1,.8,7.8h-.1A36.8,36.8,0,0,0,64.7,26a25.5,25.5,0,0,0-3.4-6.8,25.1,25.1,0,0,0-5.4-5.4l-3.2-2a22.1,22.1,0,0,0-3.5-1.6h0Z" style="fill:#cbd8ec"/><path d="M23.2,13.1h0a24.2,24.2,0,0,0-4,3.8L53.6,51.3a26.4,26.4,0,0,0,4.9-2.9L34.7,24.5Z" style="fill:#cbd8ec"/><path d="M19.1,16.8l-.4.5-.4.6-1.1,1.5-.2.2-.9,1.8-.3.6-.6,1.4-.3.6a13.3,13.3,0,0,0-.5,1.9c0,.1,0,.1-.1.2l-.3,2c0,.2-.1.4-.1.6a2.2,2.2,0,0,1-.1.8h.1L32.8,48.4,38.3,54h5.5l2.3-.3h.5l2-.4H49l2.1-.7.5-.2,2-.8h0L19.2,16.8Z" style="fill:#e6ecff"/><path d="M43.5,19l11,11L65.2,40.7h0l.3-.5.4-1c.2-.3.3-.7.5-1a4.9,4.9,0,0,1,.4-1.1c0-.1.1-.2.1-.3h0L47.8,17.7,37.6,7.5h0l-1.3.2H35.2l-1.9.5h-.4Z" style="fill:#e6ecff"/><path d="M29.8,9.4l-1.6.7-.8.3-1.4.8-.7.4-1.2.8-.7.4-.2.2h0L34.7,24.5,58.5,48.4h0l1.1-.9.5-.4,1.4-1.3.5-.6.9-1.1.5-.6.3-.3h0L29.9,9.4Z" style="fill:#e6ecff"/><path d="M49.2,10.2a22.1,22.1,0,0,1,3.5,1.6l3.2,2a25.1,25.1,0,0,1,5.4,5.4A25.5,25.5,0,0,1,64.7,26a36.8,36.8,0,0,1,1.4,7.5h.1a23.1,23.1,0,0,0-.8-7.8A17.8,17.8,0,0,0,64,22.1a37.8,37.8,0,0,0-2.2-3.3,28.2,28.2,0,0,0-5.6-5.3,22.7,22.7,0,0,0-3.4-1.9,27.5,27.5,0,0,0-3.6-1.5h0Z" style="fill:#e6ecff"/><path d="M29.4,49.9a36.8,36.8,0,0,1-5-3,27.2,27.2,0,0,1-4.3-4A23.8,23.8,0,0,1,16.7,38h-.1a20.3,20.3,0,0,0,3.2,5A24.4,24.4,0,0,0,24,47.4l.6.5.6.4.6.5.6.4,1.3.8,1.4.6.7.3.3.2h.4l1.4.5,1.5.3,1.5.3h0l-1.4-.5-1.4-.6C31.2,50.7,30.3,50.4,29.4,49.9Z" style="fill:#e6ecff"/><path d="M72.2,25a25.1,25.1,0,0,0-1.6-4.6C67.2,13.1,60.3,7.3,51.7,4.6A38.8,38.8,0,0,0,40.8,3l-3.5.2a33.9,33.9,0,0,0-19,7.8A26.5,26.5,0,0,0,9.5,25a21.2,21.2,0,0,0-.7,5.7,21.2,21.2,0,0,0,.7,5.7,26.5,26.5,0,0,0,8.8,14,33.9,33.9,0,0,0,19,7.8l3.5.2a38.8,38.8,0,0,0,10.9-1.6c8.6-2.7,15.5-8.5,18.9-15.8a25.1,25.1,0,0,0,1.6-4.6,26.2,26.2,0,0,0,.7-5.7A26.2,26.2,0,0,0,72.2,25ZM38.3,54h0C24.6,52.9,13.8,42.9,13.8,30.7c0-.4.1-.8.1-1.2h-.1a2.2,2.2,0,0,0,.1-.8c0-.2.1-.4.1-.6l.3-2c.1-.1.1-.1.1-.2a13.3,13.3,0,0,1,.5-1.9l.3-.6.6-1.4.3-.6.9-1.8.2-.2,1.1-1.5.4-.6.4-.5h.1a24.2,24.2,0,0,1,4-3.8h0l.2-.2.7-.4,1.2-.8.7-.4,1.4-.8.8-.3,1.6-.7h.1l3-1h.4l1.9-.5h1.1l1.3-.2h0l3.2-.2c15,0,27.1,10.5,27.1,23.4a20.5,20.5,0,0,1-1,6.1h0c0,.1-.1.2-.1.3a4.9,4.9,0,0,0-.4,1.1c-.2.3-.3.7-.5,1l-.4,1-.3.5h0l-1.5,2.5h0l-.3.3-.5.6L62,45.2l-.5.6-1.4,1.3-.5.4-1.1.9h0a26.4,26.4,0,0,1-4.9,2.9h0l-2,.8-.5.2L49,53h-.4l-2,.4h-.5l-2.3.3H38.3Z" style="fill:#dcac63"/><path d="M44.7,71c3.7-.9,6.3-2.9,6.3-5.3h0a4.1,4.1,0,0,0-1.3-2.8c-1.7-1.8-5-2.9-8.9-2.9a19.8,19.8,0,0,0-3.5.3,10.9,10.9,0,0,0-5.4,2.6,3.9,3.9,0,0,0-1.2,2.8h0c0,2.4,2.6,4.4,6.2,5.3a23.4,23.4,0,0,0,3.9.4A23.4,23.4,0,0,0,44.7,71Z" style="fill:#a97246"/><path d="M72.9,24.9h-.7a26.2,26.2,0,0,1,.7,5.7,26.2,26.2,0,0,1-.7,5.7h2.2a5.8,5.8,0,0,0-1.5-11.4Z" style="fill:#a97246"/><path d="M51.7,88.7a29.3,29.3,0,0,0-6.5-1.8,30.4,30.4,0,0,0-4.4-.3,31.5,31.5,0,0,0-4.4.3c-6.3.9-11.1,3.6-12.3,7.1H57.5C56.8,91.8,54.7,90,51.7,88.7Z" style="fill:#a97246"/><path d="M8.8,30.7A21.2,21.2,0,0,1,9.5,25H8.8a6.2,6.2,0,0,0-4.9,2.6A7,7,0,0,0,3,30.7a6.6,6.6,0,0,0,.9,3.2,6.6,6.6,0,0,0,3.3,2.4H9.5A21.2,21.2,0,0,1,8.8,30.7Z" style="fill:#a97246"/><path d="M31.9,62.9l-3.6-1.3a34.8,34.8,0,0,1-10-6.6l-.6-.6a38.1,38.1,0,0,1-7.3-10.8A43.4,43.4,0,0,1,8,36.4H7.2a44.6,44.6,0,0,0,1.7,7.9,35.9,35.9,0,0,0,7,11.9l2.4,2.5a37.3,37.3,0,0,0,8.8,5.8l3.6,1.3h0A3.9,3.9,0,0,1,31.9,62.9Z" style="fill:#dcac63"/><path d="M73.6,36.4a35.6,35.6,0,0,1-2.3,7.2L70.6,45A37,37,0,0,1,64,54.4a33.6,33.6,0,0,1-10.7,7.2l-1.6.7-2,.6A4.1,4.1,0,0,1,51,65.7h0l.7-.2,2.8-1.1a34.5,34.5,0,0,0,11.3-8.3,33.4,33.4,0,0,0,4.8-7,42.5,42.5,0,0,0,2.1-4.9,31.9,31.9,0,0,0,1.7-7.9Z" style="fill:#dcac63"/><path d="M44.7,71a23.4,23.4,0,0,1-3.9.4,23.4,23.4,0,0,1-3.9-.4l-.5,15.9a31.5,31.5,0,0,1,4.4-.3,30.4,30.4,0,0,1,4.4.3Z" style="fill:#dcac63"/><path d="M40.8,7.3c15,0,27.1,10.5,27.1,23.4a20.5,20.5,0,0,1-1,6.1h0c0,.1-.1.2-.1.3a4.9,4.9,0,0,0-.4,1.1c-.2.3-.3.7-.5,1l-.4,1-.3.5h0l-1.5,2.5h0l-.3.3-.5.6L62,45.2l-.5.6-1.4,1.3-.5.4-1.1.9h0a26.4,26.4,0,0,1-4.9,2.9h0l-2,.8-.5.2L49,53h-.4l-2,.4h-.5l-2.3.3H38.3C24.6,52.9,13.8,42.9,13.8,30.7c0-.4.1-.8.1-1.2h-.1a2.2,2.2,0,0,0,.1-.8c0-.2.1-.4.1-.6l.3-2c.1-.1.1-.1.1-.2a13.3,13.3,0,0,1,.5-1.9l.3-.6.6-1.4.3-.6.9-1.8.2-.2,1.1-1.5.4-.6.4-.5h.1a24.2,24.2,0,0,1,4-3.8h0l.2-.2.7-.4,1.2-.8.7-.4,1.4-.8.8-.3,1.6-.7h.1l3-1h.4l1.9-.5h1.1l1.3-.2h0l3.2-.2m0-1-3.2.2H35.8l-.7.2-2,.4h-.7l-2.8.9h-.1l-1.7.7-.6.3H27l-1.4.8-.8.5a5.7,5.7,0,0,0-1.3.8h-.1l-.6.3h-.4A27.2,27.2,0,0,0,18.5,16h-.1l-.3.4c-.1,0-.1.1-.2.2h0a1,1,0,0,0-.4.5l-1.1,1.5h-.1c0,.1-.1.1-.1.2a14.5,14.5,0,0,0-1,1.8l-.3.5v.2a3.5,3.5,0,0,0-.6,1.4h-.1c-.1.2-.1.4-.2.6l-.6,2h0a11.8,11.8,0,0,0-.4,2,1.3,1.3,0,0,1-.1.6h0v.3a.9.9,0,0,1-.1.5.4.4,0,0,0,.1.3h0a2.8,2.8,0,0,0-.1.9c0,12.6,10.9,23.1,25.3,24.2h5.8l2.4-.3h.4l2.2-.5H49c.1,0,.2,0,.2-.1a10.1,10.1,0,0,0,2.3-.7H52l2.1-.9h0A35,35,0,0,0,59,49.3h.1l1.2-1h.1l.4-.3,1.4-1.3c.2-.2.3-.4.5-.5v-.2l.9-1,.5-.7h.1l.2-.2v-.2L66,41.4v-.2l.2-.3a.3.3,0,0,1,.1-.2,10.4,10.4,0,0,0,.4-1,3.7,3.7,0,0,0,.5-1.1,4.2,4.2,0,0,0,.4-1c0-.1,0-.1.1-.2s0-.1.1-.2v-.3a22.3,22.3,0,0,0,1-6.2c0-13.4-12.6-24.4-28.1-24.4Z" style="fill:#a7bfee"/></g></g></svg>