<svg xmlns="http://www.w3.org/2000/svg" viewBox="0 0 87.2 30.5"><g id="Layer_2" data-name="Layer 2"><g id="Layer_1-2" data-name="Layer 1"><ellipse cx="43.6" cy="16.5" rx="37.8" ry="11.2" style="fill:#ffeb81"/><ellipse cx="43.6" cy="15.3" rx="41.2" ry="11.4" style="fill:#f3ebfc"/><ellipse cx="43.6" cy="14.2" rx="41.2" ry="11.4" style="fill:#ffeb81"/><ellipse cx="43.6" cy="15.4" rx="30.6" ry="7.9" style="fill:#ffaa5a"/><path d="M43.6,3C66,3,84.2,8,84.2,14.2v1.1c0,2.7-3.5,5.2-9.3,7.1s-18.1,5.1-31.3,5.1-24.7-2.1-31.3-5.1S3,18,3,15.3V14.2C3,8,21.2,3,43.6,3m0-3C22.6,0,0,4.4,0,14.2v1.1c0,4.1,3.8,7.4,11.2,9.9s19.4,5.3,32.4,5.3,25.2-2,32.4-5.3,11.2-5.8,11.2-9.9V14.2C87.2,4.4,64.6,0,43.6,0Z" style="fill:#ffaa5a"/></g></g></svg>