<svg xmlns="http://www.w3.org/2000/svg" viewBox="0 0 154 312.2"><g id="Layer_2" data-name="Layer 2"><g id="Layer_1-2" data-name="Layer 1"><path d="M110.7,249.3h0a2.2,2.2,0,0,0-.9-2.2,5.8,5.8,0,0,0-2.3-.9h.3c-.5.1-1.5-.4-2-.5l-2.9-.5-5.9-.7-9.4-.6c-2.1,0-4.1-.2-6.1-.1H71.2l-6.3.2-6.9.4-1.4.2c-2.1.1-4.3.4-6.4.7l-4.7.9-2.2.7-.5.2-.3.2h-.4a2,2,0,0,0-1,1.6v4.2a2.2,2.2,0,0,0,.9,1.6l.2.2h.2l.2.2h.1c-.1,4-.1,8.1,0,12.2,0,8.3-.1,26.6-.1,35v8.7h1.5c0-1.9,0-3.8.1-5.6V256l1.1.4a34.8,34.8,0,0,0,6.9,1.7h.6q-.1,4.7,0,9.3c0,8.3-.1,16.6-.1,25v8.7h1.5c0-1.9.1-3.8.1-5.6V258.5l4.4.6c2.5.3,5.4.6,8,.7H67c1.8.6,4.4.2,6.2.3,5.4,0,10.6.1,15.9-.4,3.1-.3,6.1-.6,9-1.1,0,4,0,7.9.1,11.9s-.1,6.6-.1,9.9c-.1,6.9-.1,13.8-.2,20.8h1.4v-3c.1-6.5.1-13.1.2-19.6V258.3a36,36,0,0,0,8.8-2.8c0,5-.1,10,0,15,0,3.3-.1,6.6-.1,9.9-.1,6.9-.1,23.8-.2,30.8h1.4v-3c.2-6.5.2-23.1.2-29.6V254.8a2,2,0,0,0,1.1-1.3h0C110.9,252.7,110.5,250,110.7,249.3Z" style="fill:#343730;stroke:#343730;stroke-miterlimit:10;stroke-width:2px"/><path d="M104.7,3a9,9,0,0,1,3.6.8l2.9,1.4h.1L112,5l2.4-.6h.8a1,1,0,0,1,1.1,1.1,1.9,1.9,0,0,1-.4,1.5l-6.7,9.5A85.1,85.1,0,0,0,99.8,32a44,44,0,0,1-3,5.2,32.7,32.7,0,0,1-2.5,3.6,10,10,0,0,0-.8,1.4c-1.3,2.1-2.5,4.2-3.6,6.4a27.5,27.5,0,0,0-1.5,3.6,11.4,11.4,0,0,0-.6,2.5,13.8,13.8,0,0,1-1.6,4.7c-.7,1.4-1.3,2.8-1.9,4.3a.2.2,0,0,0,.1.4,11.7,11.7,0,0,1,3.9-1.5c1.2-.3,2.5-.4,3.7-.6l4.6-.8,2.5-.3,1-.7c1.7-1.5,3.3-3.1,5.1-4.4a11.2,11.2,0,0,1,2.9-1.9,1.3,1.3,0,0,0-.1.6,1.3,1.3,0,0,1,.1-.6l.6-.5a.9.9,0,0,1,.6-.6,6.9,6.9,0,0,1,1.3-1.1,107.7,107.7,0,0,1,10.6-8.6c2.1-1.4,4.3-2.8,6.5-4a27.3,27.3,0,0,1,10.1-3.3h1.1a8.9,8.9,0,0,1,4.5,1.2,20.1,20.1,0,0,1,3.9,3.3,18,18,0,0,0,2,1.9,4.5,4.5,0,0,1,1.1,1.3l-.2.3.2-.3a1.8,1.8,0,0,1,.5,2.1,15.3,15.3,0,0,1-2.1,5.1,6.7,6.7,0,0,1-4.1,3.1l-1.7.5a4.3,4.3,0,0,0-2.9,2,16.1,16.1,0,0,1-2.4,2.9,26,26,0,0,1-3.1,2.5l-2.2,1.4c-.2.2-.5.3-.5.5a60.1,60.1,0,0,0,7.2-1.2h.8c.5,0,.6.3.5.7a.8.8,0,0,1-.2.5l-.9,2.9a5.8,5.8,0,0,1-.3,2.3,21.3,21.3,0,0,1-4.9,9.4,36.6,36.6,0,0,1-9.3,7.3l-1.8,1a22.6,22.6,0,0,0-3.5,2.8l-.4.4-.7.9h0A38.8,38.8,0,0,0,117,95l-.9,3.2a17.6,17.6,0,0,1-3.6,6.9l-4,4.7-.7.8h1.1a3.1,3.1,0,0,1,1.3-.3l3.8-.7.8-.2c.2-.2.4-.1.7-.2a6.3,6.3,0,0,1,2.7-.6h0a4.7,4.7,0,0,1,1.7-.3l5.1-.6h1a25.6,25.6,0,0,1,3.9.3l.3.2h.2a1.2,1.2,0,0,1,.8.2h.2a.8.8,0,0,1,.7.2h.2a.7.7,0,0,1,.6.2,8.3,8.3,0,0,1,3.2,1.3,1.8,1.8,0,0,1,.9.8,1.8,1.8,0,0,1,.8,1.3,8.3,8.3,0,0,1,.4,1.5,6.6,6.6,0,0,0,2.8,4.3,8.2,8.2,0,0,1,2.4,2.5c.1.2.1.3.2.4l-.4.3.4-.3a3.6,3.6,0,0,1,.4,1.1c.2.6.3,1.2.5,1.8a2.6,2.6,0,0,1-.8,2.4,1.2,1.2,0,0,1-.5.5l-2.6,2.3-.6.9a16.3,16.3,0,0,1-1.1,2.3,3.7,3.7,0,0,1-.5,1.1,9.2,9.2,0,0,1-2.3,2.5,6.1,6.1,0,0,1-2.2,1.3l-2.1.6a23.6,23.6,0,0,0-5.2,2.1c-1.6.9-3.1,1.9-4.7,2.7l-.7.3a4.1,4.1,0,0,1-1.1.7l-3.5,2.3a14.3,14.3,0,0,1-4.9,1.7,36.7,36.7,0,0,0-8,2.3h-.3l-3.4,1.9-2,1.1a23.5,23.5,0,0,0-5.3,4.1l-.2.3h.3a6.7,6.7,0,0,1,2.4-.4,8.5,8.5,0,0,1,2.3.3l4.2.8c1,.1,1.1.6.5,1.4a7.5,7.5,0,0,1-1.7,1.4,14.8,14.8,0,0,1-3.7,2,35.4,35.4,0,0,0-3.9,1.4.9.9,0,0,0-.5.3,3,3,0,0,0-1.4.6,32.5,32.5,0,0,0-4.2,3.1,7.5,7.5,0,0,0-1.5,1.6L83.7,171a1.8,1.8,0,0,1-.9.4l1.2-1.7.4-.5-.4.5-1.2,1.7a24.7,24.7,0,0,1-2.8,2.8,6.9,6.9,0,0,1-3.5,1.8h-.8a13.8,13.8,0,0,1-6.3-2.8.7.7,0,0,1-.3-.6h-.4a9.3,9.3,0,0,1-.4,3.3c-.1.1-.2.2-.2.3h0c-.1.2,0,.5-.2.6h-.2c-.2,0-.3-.2-.4-.3h-.1l-.2-.3a2.9,2.9,0,0,1-1.5-.9,32.6,32.6,0,0,0-3.6-2.9c-.6-.5-1.3-.9-1.9-1.5l-1.3-1a18.6,18.6,0,0,0-2.2-1.9l-3.1-2.2-.2-.2-.2-.2c-.1-.1-.2-.2-.2-.3h0c0,.1.1.2.2.3a.8.8,0,0,1-.7-.2l-1.4-1.1a4.6,4.6,0,0,0-1.6-1.1.6.6,0,0,0-.1-.4c-.2-.2-.4-.5-.7-.6a6.9,6.9,0,0,0-2.8-1.5l-1.1-.4a8.1,8.1,0,0,1-5-4.4l-1.1-2.7a.4.4,0,0,1,.1-.5h.5l1.5,1h1.7l6.2-1.9,1-.2H50l1,1.1h0l-1-1.1a3,3,0,0,1,1.3-.2H52a15.8,15.8,0,0,1,4.8.6H57a16.2,16.2,0,0,1-1-1.8,8.4,8.4,0,0,1-1.1-4.1,13.1,13.1,0,0,0,0-2.8l-.3-.9c-.2-.1-.2-.2-.2-.4h0a.2.2,0,0,1-.2-.2,10.1,10.1,0,0,0-2.5-1.7,21.6,21.6,0,0,1-3.5-2.4l-1.4-1.5a9.7,9.7,0,0,0-2.9-2.8c-.2-.1-.3-.2-.2-.4s.2-.3.4-.3h.2l.9.2a14.9,14.9,0,0,1,3.6,1.7l4.5,2.9,2.9,1.8.7.2h0a1.4,1.4,0,0,0-.2-.6c-.8-1.2-1.6-2.5-2.5-3.7a4.7,4.7,0,0,0-.6-.9,42.8,42.8,0,0,0-7.5-4.3,66.8,66.8,0,0,1-11.9-7.6l-7.3-5.6-1.4-.9h-.3a18.3,18.3,0,0,0-7.6-1.7,23,23,0,0,1-3.7-.2,15.8,15.8,0,0,1-4.3-1,7.8,7.8,0,0,1-4.1-3.5L4,106.2c-.3-.6-.5-1.2-.8-1.7h0c-.1,0-.1,0-.1-.1a.5.5,0,0,1,0-.5c0-.1.1-.2.3-.2h.1l2.1.4h.6a17.8,17.8,0,0,0,5-1,13,13,0,0,1,3.4-.8l2.3-.2h1.9a10.7,10.7,0,0,1,3,.6h1a45.4,45.4,0,0,1,5.3,1.2l2.9,1,.6.2h.1l-.2-.8a2.9,2.9,0,0,1-.5-1.3,3,3,0,0,1-.4-1,33.8,33.8,0,0,0-4.1-8.3c-.1-.1-.1-.3-.2-.4A13.8,13.8,0,0,1,24,88.2a16.9,16.9,0,0,0-1.3-3.1h0l-.2-.2-.9-.7a.6.6,0,0,1-.1-.4.3.3,0,0,1,.3-.3h0c.5.2,1,.1,1.4.3a12.7,12.7,0,0,1,3.4.5,2.5,2.5,0,0,1,1.1.4,7.4,7.4,0,0,1,2.9.8h1.1l2.4-.2h3.6l2.9.2,3.5-.3c1.8-.4,3.6-.7,5.3-1.2a13.6,13.6,0,0,1,2.9-.3h1.1c0-.2-.1-.3-.3-.5l-1-1.1h-.3c-.1,0-.1,0-.1-.1h-.4l-.5-.4c-2.8-2.8-5.6-5.5-8.6-8.1l-.4-.5h0a6.6,6.6,0,0,1-1.7-1.2h0A7.1,7.1,0,0,1,38.3,70H38a34.5,34.5,0,0,0-6.3-2.5,41.9,41.9,0,0,1-6.8-2.3A32.9,32.9,0,0,1,20.7,63a1,1,0,0,1-.5-.4,10.9,10.9,0,0,1-3.6-2.8c-.2,0-.2-.1-.3-.2A22,22,0,0,1,13.6,57a18.5,18.5,0,0,0-1.4-1.4,9,9,0,0,0-2.6-1.7l-1.5-.7A7.9,7.9,0,0,1,3.4,47a2.6,2.6,0,0,1-.1-1.5,6.4,6.4,0,0,1,3.1-5.1c1.2-.8,2.4-1.5,3.6-2.4a6.9,6.9,0,0,1,4.5-1.6h.7a30.1,30.1,0,0,1,4.2.5,29.4,29.4,0,0,1,7.3,2.2,91.8,91.8,0,0,1,9.9,5A57,57,0,0,1,47,52.1a31.9,31.9,0,0,1,2.6,2.6l1.5.6.7.4A22.5,22.5,0,0,1,58,58.8l4.3,3a1.5,1.5,0,0,0,.9.4h.2c0,.2.1.3.1.4s-.1-.2-.1-.4a1.4,1.4,0,0,1-.3-.9c-.1,0-.1-.1-.1-.2-.5-2.2-1.1-4.4-1.7-6.6a2,2,0,0,1-.3-1.1,12.9,12.9,0,0,1-.7-2.1c-1.1-4-2.3-7.9-3.4-11.9a1.3,1.3,0,0,1-.1-.6c-.2-.2-.2-.5-.3-.7l-1.8-5.8c-.9-2.7-1.4-5.5-2.2-8.3s-.9-3.6-1.4-5.5-.7-1.9-1.1-2.8a53.6,53.6,0,0,0-2.8-5.3L45.4,7.7l-.3-.6c-.1-.2.1-.4.3-.5h.9a27.8,27.8,0,0,0,4.9.8,6.8,6.8,0,0,1,4.1,1.9,2,2,0,0,0,1.3.8,7,7,0,0,1,3.5,1.2,10.5,10.5,0,0,1,2.4,2.3,14.3,14.3,0,0,1,2.7,4.6l.5.5.5.4a9.1,9.1,0,0,1,2.3,2.1,15.7,15.7,0,0,1,2,3,30.5,30.5,0,0,0,5.4,7l.4.3h.2a17.2,17.2,0,0,1,.7-2.1,3.6,3.6,0,0,1,.4-1.1,2.8,2.8,0,0,1,.4-1.2c.9-2.1,1.8-4.2,2.8-6.2A27.2,27.2,0,0,1,84,15.8a4.5,4.5,0,0,1,1-1.3,15.7,15.7,0,0,1,3.4-3.4l.9-.7.3-.3,5.6-3.8c.3-.2.5-.5.9-.5a1.5,1.5,0,0,1,.9-.6,5.4,5.4,0,0,1,2-1A16.2,16.2,0,0,1,104.7,3h0M99.3,23.2a.6.6,0,0,1,.2.5.6.6,0,0,0-.2-.5,7.6,7.6,0,0,0,.6-1.6,7.6,7.6,0,0,1-.6,1.6h0M141,44l1.9-.4h1.5c.2,0,.3,0,.4-.2h-1.3a.8.8,0,0,0-.6.2L141,44m-127.9.5h1.6v.2h0v-.2H13.1m-1.6.4,1-.2h0l-1,.2M86.2,57.5a.7.7,0,0,0,.1-.5,1.1,1.1,0,0,0,.3-.8,1.1,1.1,0,0,1-.3.8.7.7,0,0,1-.1.5m-10.1-.3h0l-.2-.2h0l.2.2m-.6.9a4.3,4.3,0,0,1,.1-.5,4.3,4.3,0,0,0-.1.5h0m.3.7c0-.2-.1-.3-.1-.4s.1.2.1.4m7.5,2.8h0m-.6.9.2-.2-.2.2M68.2,66c.1,0,.1.1.1.2l-.7.8.7-.8c0-.1,0-.2-.1-.2h0m49.1,4.8.5-.2.2-.2-.2.2-.5.2m-73.1,2h0M76,73.9v-.5h0v.5m3.7,13h0c0-.4.1-.8.1-1.1h0c0,.3-.1.7-.1,1.1m-18.1-.6a6.5,6.5,0,0,0-.4,2l-.5.2h0l.5-.2a6.5,6.5,0,0,1,.4-2m-2,2.4h-.3a7.9,7.9,0,0,0-1.7-2,7.9,7.9,0,0,1,1.7,2h.3m59.8-1.4h.3l.2-.2-.2.2h-.3M99.9,88.9l.3-.2c0-.2.1-.3.2-.5s-.2.3-.2.5l-.3.2m-42,.3h0c0-.2,0-.3-.1-.4s.1.2.1.4m21.6,1.4a5.5,5.5,0,0,0,.2-1.8,5.5,5.5,0,0,1-.2,1.8h0m20.2-.9h0m18.7.6h0c.1-.1.1-.2.1-.4s0,.3-.1.4m-19.7.1-.2.2.2-.2m-61.8.7-.9-.3.9.3m61.4-.2v.2h0v-.2h0m-59.4.6h0m2.8,2.9h0l-1.1-.3,1.1.3M94.8,96h0a.7.7,0,0,1,.5-.7.7.7,0,0,0-.5.7M91,103.4h0c-.1-.2-.1-.4-.2-.6l.2-.2-.2.2c.1.2.1.4.2.6m-35.1,2.4h0v-2h0v2M4.4,104.7l-.6-.2.6.2M90.9,106l.3-.5-.3.5m34.7,1.7h0m4.5.4h0m-71.3,3.5h-.1l-.6-.8.6.8h.1m.3.3h0c-.1-.1-.1-.2-.2-.2h0c.1,0,.1.1.2.2m.4.9h0m39.4,8.6h0v1c0,.1,0,.2.1.2s-.1-.1-.1-.2v-1h0l.6-1.1-.6,1.1m-.4,1.3c0,.3-.2.6-.2.8h0c0-.2.2-.5.2-.8m-33.2,2.8v.2h0c0,.2.2.3.3.4h.6l1.2.2,1.1.4-1.1-.4-1.2-.2h-.6c-.1-.1-.3-.2-.3-.4h0v-.6h0v.4m-15.7,3.1h0l-.3-.3h0l.3.3m15.7,4.5a6.9,6.9,0,0,0,1.3,1.1.8.8,0,0,0,.2.5h0a.8.8,0,0,1-.2-.5,6.9,6.9,0,0,1-1.3-1.1h0m4.2,5h0a15.1,15.1,0,0,0-2.2-2.8,15.1,15.1,0,0,1,2.2,2.8m-14.1,4.4h0l-.3-.4h0l.3.4m33.4,2.3c0-.4.1-.8.1-1.2h0c0,.4-.1.8-.1,1.2m-.8-1h0m-7.5,2.8a3.8,3.8,0,0,1,0,1.5h0a3.8,3.8,0,0,0,0-1.5h0m2.7,3.6h.2a.8.8,0,0,0,.2.4.8.8,0,0,1-.2-.4h-.2m4.1,3.4-.5.2h0l.5-.2m.8,2.5h0a3.5,3.5,0,0,0-.5-.8h0a3.5,3.5,0,0,1,.5.8m-27.9,2.6h0m27.6.6,1.1-.4-1.1.4m-38,1H50a2.5,2.5,0,0,0,.1.8,2.5,2.5,0,0,1-.1-.8h-.2m.6,1.6.2-.2-.2.2h0m11.3.3.2.3-.7.9.7-.9-.2-.3h0m21.5,6.9-1.3.3,1.3-.3,1.5-.4h0l-1.5.4M14.7,44.5h0M82.8,171.4h0M104.7,0h0a20.9,20.9,0,0,0-6.6,1.3,9,9,0,0,0-2.6,1.3,2.7,2.7,0,0,0-1,.6l-.9.5h-.1L87.9,7.7l-.4.3-1.1.8a20.4,20.4,0,0,0-3.6,3.6,5.9,5.9,0,0,0-1.3,1.8,25.7,25.7,0,0,0-3.4,5.4c-.8,1.7-1.6,3.4-2.3,5.1l-.6,1.2h0a22.9,22.9,0,0,1-2-3.1,28.2,28.2,0,0,0-2.4-3.6,20,20,0,0,0-2.6-2.4l-.5-.4a22.5,22.5,0,0,0-2.8-4.7A11.9,11.9,0,0,0,61.8,9a8.6,8.6,0,0,0-4.4-1.7,9.4,9.4,0,0,0-5.9-2.8,22.5,22.5,0,0,1-4.4-.7l-1.4-.2h-.8a3.2,3.2,0,0,0-2.4,1.7,3.1,3.1,0,0,0-.2,2.8,6.7,6.7,0,0,0,.6,1.2l.7,1.1,1,1.5A32.1,32.1,0,0,1,47,16.5l.3.6a10.2,10.2,0,0,1,.9,2.2c.5,1.8.9,3.7,1.4,5.5s.5,2,.8,2.9.8,3.6,1.4,5.5l1.3,4,.5,1.5a2.6,2.6,0,0,0,.3,1.1c0,.1.1.3.1.4,1.1,4,2.3,8,3.5,12a1.1,1.1,0,0,0,.1.5,6.5,6.5,0,0,0,.5,1.5,3.3,3.3,0,0,0,.4,1.3,33.3,33.3,0,0,0-5.4-2.6l-1.2-.5-.5-.2c-.6-.7-1.2-1.2-1.8-1.8l-.5-.4a58.6,58.6,0,0,0-11-8.4,88.2,88.2,0,0,0-10.2-5.1,31.3,31.3,0,0,0-8-2.5l-4.4-.5h-1a9.9,9.9,0,0,0-6.4,2.3,27.1,27.1,0,0,1-2.5,1.7l-.9.5a9.5,9.5,0,0,0-4.3,7,5.1,5.1,0,0,0,0,2.5h0a11.4,11.4,0,0,0,6.4,8.4l1.7.8a5.5,5.5,0,0,1,1.7,1.1,6,6,0,0,1,.8.8l.5.5.5.6a14.9,14.9,0,0,0,2.2,2.1l.5.4A19.3,19.3,0,0,0,18.3,65a4.5,4.5,0,0,0,.8.5,38.7,38.7,0,0,0,4.6,2.4,66.1,66.1,0,0,0,7.1,2.4,26.8,26.8,0,0,1,5.7,2.2l.3.2,1.6,1,1.5,1.1.3.3,6.9,6.5-3.6.7a13.6,13.6,0,0,1-2.9.3l-2.5-.2H33.6l-1.9.2h-.4a10.7,10.7,0,0,0-2.7-.9l-1.2-.3h-.1a19.7,19.7,0,0,0-3.5-.6h-.9a2.3,2.3,0,0,0-1.1-.2,3.3,3.3,0,0,0-2.5,1.1,3.5,3.5,0,0,0-.8,2.7,4.6,4.6,0,0,0,1.1,2.1l.6.5h.1a8.3,8.3,0,0,1,.7,1.8,17.4,17.4,0,0,0,2.8,6.4h.1c0,.1.1.1.1.2a31.5,31.5,0,0,1,2.8,5.1l-3.1-.6-1.5-.2a13.2,13.2,0,0,0-2.6-.5H16.9l-2.7.2a28.4,28.4,0,0,0-3.9.9,16,16,0,0,1-4.1.9H5.6l-1.5-.3H3.4a3.4,3.4,0,0,0-3.1,2,3.4,3.4,0,0,0-.1,2.6,3.1,3.1,0,0,0,.5,1h0l.6,1.3.4.8,1.2,2.5a10.5,10.5,0,0,0,5.6,4.8,18.3,18.3,0,0,0,5,1.2,17.7,17.7,0,0,0,3.2.2h.8a14.8,14.8,0,0,1,6.4,1.4l.5.2h0l.7.4,1.5,1.1c1.9,1.5,3.9,2.9,5.7,4.4a64.6,64.6,0,0,0,9.2,6.2,7.5,7.5,0,0,0-.7,1.2,3.4,3.4,0,0,0,1.6,4,7.5,7.5,0,0,1,2,2,17.1,17.1,0,0,0,1.8,2,26.4,26.4,0,0,0,4.1,2.7l1.5,1v.2a6.7,6.7,0,0,1,0,2,22.9,22.9,0,0,0,.2,2.5h-1a5.3,5.3,0,0,0-1.6.2h-.8l-1.1.3L43,150.3l-1.1.3h-.3l-.9-.5a3.3,3.3,0,0,0-1.9-.6,2.8,2.8,0,0,0-1.9.7,3.2,3.2,0,0,0-1.2,3.9l.3.8a10.2,10.2,0,0,0,.9,2.2,11,11,0,0,0,6.8,5.9l1,.4a5.2,5.2,0,0,1,1.8,1h.2a2.5,2.5,0,0,0,1.6,1.4l.2.2.6.5,1,.8.3.2a1.9,1.9,0,0,0,1.1.7h.1l1,.6,2,1.5.5.4a5.7,5.7,0,0,1,1.4,1.1l.4.3a1,1,0,0,0,.5.4l.5.4a20.2,20.2,0,0,0,1.9,1.6l.3.2,1,.7c.8.7,1.7,1.3,2.3,1.9a8.6,8.6,0,0,0,2,1.4,2.9,2.9,0,0,0,2.3,1,4.1,4.1,0,0,0,1.6-.3,4,4,0,0,0,1.6-1.9,13.2,13.2,0,0,0,4.4,1.3H77a10.3,10.3,0,0,0,5-2.5l2.5-2.5a3.5,3.5,0,0,0,1.1-.7l1.1-.8.4-.4a2.3,2.3,0,0,0,.7-.7l1-1a32,32,0,0,1,3.8-2.9h.3l1.2-.5.2-.2,3.2-1.1h.4a18.7,18.7,0,0,0,4.4-2.3,9.7,9.7,0,0,0,2.1-2,3.6,3.6,0,0,0,.9-3.9,3.7,3.7,0,0,0-3.2-2.4l-1.4-.2h.2l.5-.3,2.6-1.5.4-.2h.5a27,27,0,0,1,7.3-2.1,19.8,19.8,0,0,0,5.9-2.1,35,35,0,0,0,3.5-2.3l1.2-.7.4-.2c1.3-.6,2.5-1.4,3.7-2.1l1.2-.7a20.4,20.4,0,0,1,4.4-1.8l2.4-.7a8.3,8.3,0,0,0,3.2-1.8,14.6,14.6,0,0,0,2.7-3,7,7,0,0,0,.9-1.7l.8-1.7v-.2l.5-.6.2-.2,2-1.7.7-.7a5.6,5.6,0,0,0,1.5-5.1,18,18,0,0,0-.5-1.9,3.6,3.6,0,0,0-.7-1.8,1.3,1.3,0,0,0-.3-.5,11.2,11.2,0,0,0-3.1-3.4,4.2,4.2,0,0,1-1.7-2.5c-.1-.6-.3-1.2-.4-1.7a5.8,5.8,0,0,0-1.5-2.5,3.7,3.7,0,0,0-1.5-1.3,10.2,10.2,0,0,0-3.6-1.6l-1.3-.4-1-.2-1-.2h-.4a23.2,23.2,0,0,0-4.4-.4h-1.1a22.1,22.1,0,0,0-3.7.4l-1.7.2h-.3l-1.7.3-1.7.3A20.2,20.2,0,0,0,119,99c.3-1.2.6-2.2.8-3.1a4.9,4.9,0,0,0,.4-1.1,19.8,19.8,0,0,1,.8-2.6l.4-.7.3-.3a13.8,13.8,0,0,1,2.9-2.2l1.4-.8.3-.2a42.5,42.5,0,0,0,10-7.9,23.4,23.4,0,0,0,5.6-10.7h0a8.7,8.7,0,0,0,.4-2.5l.6-2a2.2,2.2,0,0,0,.4-1,3.6,3.6,0,0,0-.6-3.2,3.2,3.2,0,0,0-1.3-1l1.2-1.7a1.3,1.3,0,0,1,1-.7l1.9-.5a10.1,10.1,0,0,0,5.9-4.4,19.6,19.6,0,0,0,2.5-6,5.1,5.1,0,0,0-1.1-4.7,8.8,8.8,0,0,0-1.6-1.7c-.5-.5-1.1-1-1.7-1.7h-.1a19.2,19.2,0,0,0-4.5-3.8,11.7,11.7,0,0,0-6-1.6h-1.5a28.4,28.4,0,0,0-11.2,3.6c-2.5,1.4-4.7,2.8-6.7,4.1a132.7,132.7,0,0,0-10.9,8.8l-1,.9h-.1a2.8,2.8,0,0,0-1,.9,18.6,18.6,0,0,0-3.1,2.1h-.1l-3.9,3.3-1.3,1.2h-.2l-1.8.2-3,.5-1.6.3-1.2.2h-.7a16.4,16.4,0,0,0,1.1-4.1c.2-.7.3-1.3.5-2A30.9,30.9,0,0,1,92.6,50c1.1-2.1,2.2-4.2,3.4-6.3l.2-.3.5-.8,2.6-3.7a40.9,40.9,0,0,0,3.2-5.7,86.2,86.2,0,0,1,9.1-15.1l4.2-5.9c.9-1.1,1.7-2.3,2.5-3.5a5,5,0,0,0,1-3.3,4,4,0,0,0-4-4.1h-.2a3.9,3.9,0,0,0-1.5.2l-2,.5-2.1-1a11.2,11.2,0,0,0-4.8-1Z" style="fill:#02513d"/><path d="M74.3,163.4h7.4l7.5.2c3.9.1,7.9.4,11.9.7,2.4.3,4.9.5,7.3.9l3.7.6a10.9,10.9,0,0,0,2.4.7h-.2a10.5,10.5,0,0,1,2.9,1.2,2.7,2.7,0,0,1,1.1,2.7h.1v2.8c-.3,3.3-.1,6.5-.3,9.8v2.8h0c-.1,1.4-.1,2.8-.1,4.3h0v5.6h0v1.9h0c-.1,1.2-.1,2.3-.3,3.5h0v.8a.4.4,0,0,0-.1.3c0,1.5-.1,3.1-.2,4.7a28.3,28.3,0,0,0-.2,2.9h-.1v.8c-.2,1.6-.3,3.1-.5,4.6a55,55,0,0,1-1.1,6.9,8.8,8.8,0,0,0-.2,1.6,16.6,16.6,0,0,1-.6,2.1,46.7,46.7,0,0,1-7.6,15.5,43.2,43.2,0,0,1-4.5,5,17.2,17.2,0,0,1-3.5,2.5l-4.7,2.3a16.7,16.7,0,0,1-4.4,1.1l-5.1.5H77.6l-6.5-.2-6.9-.4a49.4,49.4,0,0,1-7.7-1.2,26,26,0,0,1-4.7-1.6,19,19,0,0,1-5.5-3.7,39.2,39.2,0,0,1-8.9-12.5A59.1,59.1,0,0,1,33,219.1c-.3-1.5-.5-3-.7-4.5s-.3-1.9-.4-2.9h0v-.5a1.7,1.7,0,0,1-.1-.7,16.4,16.4,0,0,1-.2-2.2c-.2-1.3-.2-2.5-.3-3.8-.3-3.7-.2-7.4-.2-11.1,0-1.1-.1-2.2-.1-3.4v-1.7c0-1.3-.1-2.7-.1-4.1-.2-3.8-.3-7.5-.2-11.3.1-.7.1-1.4.2-2.1v-.6a2.5,2.5,0,0,1,1.2-2l.3-.2h.2l.4-.2.7-.3a14.3,14.3,0,0,1,2.7-.9,45.1,45.1,0,0,1,5.8-1.1,79,79,0,0,1,8.2-.9l1.7-.2c2.8-.3,5.6-.4,8.6-.6l8-.2h5.6m1.2.5h0m-23,.9,1.5-.2,3.9-.3-3.9.3-1.5.2m-8.8.9H45l3.7-.5-3.7.5H43.7m-2-.2h0m72.9,4.5c0,.2-.1.3-.1.4s.1-.2.1-.4m-.3.7h0v0m-.3.3h0v0m-.2.2-.3.2.3-.2h0m-.3.2-1,.6,1-.6m-77.2.5h.1l.6.3,2.4.9h0l-2.4-.9-.6-.3H36c0-.1-.1-.1-.1-.2s.1.1.1.2h.3m5.2,1.9c1.9.5,4,.9,5.8,1.2h0c-1.8-.3-3.9-.7-5.8-1.2h0m22.8,3.1h0m10-16.5H68.6l-8,.2-8.9.6H50.2a78.3,78.3,0,0,0-8.4.9c-1.9.3-4.1.7-6.1,1.2a15.8,15.8,0,0,0-3.1,1l-.9.4h-.2l-.4.2h-.3l-.4.2h0a5.4,5.4,0,0,0-2.5,4.4v.7c-.1.7-.1,1.4-.2,2.1-.1,4.1,0,7.8.2,11.5,0,1.3.1,2.7.1,4V191a20.1,20.1,0,0,1,.1,2.5v3.4c0,2.6,0,5.2.2,7.8,0,.5.1.9.1,1.4a21.1,21.1,0,0,0,.2,2.5,2.8,2.8,0,0,0,.1.9,6.6,6.6,0,0,0,.1,1.4v1.2H29v.4l.3,2.4.2.9c.1,1.3.3,2.5.5,3.8a70.3,70.3,0,0,0,4.6,14.7,42.7,42.7,0,0,0,9.6,13.5,22.5,22.5,0,0,0,6.4,4.3,31.7,31.7,0,0,0,5.2,1.7,58.4,58.4,0,0,0,8.1,1.3l7,.4H85.5l4.9-.5a18.9,18.9,0,0,0,5.2-1.2c1.5-.7,3.1-1.4,5-2.5a22.7,22.7,0,0,0,4-2.9,35.7,35.7,0,0,0,4.9-5.4,50.7,50.7,0,0,0,8.1-16.5l.2-.4c.1-.6.3-1.3.4-2.1s.2-1,.3-1.4a54.2,54.2,0,0,0,1.1-7.2c.1-.7.1-1.4.2-2.2l.3-2.4v-.5h0v-.2l.3-3c.1-1.1.1-2.2.2-3.4v-1.4h0a1.3,1.3,0,0,0,.1-.6v-.4c.2-1.1.2-2.2.3-3.3v-2.4h0v-5.2h0c0-1.6,0-3,.1-4.3h0v-2.6c.1-1.4.1-2.9.1-4.3a47.8,47.8,0,0,1,.2-5.4v-3h0a6.2,6.2,0,0,0-2.4-5,10,10,0,0,0-2.5-1.3,3.5,3.5,0,0,0-1.8-.5h-.2l-.6-.3-1.2-.3-3.8-.7c-2.6-.4-5.3-.6-7.5-.8-4-.4-8.1-.7-12.1-.8h-15Z" style="fill:#6a3417"/><path d="M118.4,170.5v2.8c-.3,3.3-.1,6.5-.3,9.8s-.1,8.3-.1,12.4c0,2.2-.1,4.3-.3,6.5a.4.4,0,0,0-.1.3c0,1.5-.1,3.1-.2,4.7l-.3,3.7c-.2,1.6-.3,3.1-.5,4.6a55,55,0,0,1-1.1,6.9,8.8,8.8,0,0,0-.2,1.6,16.6,16.6,0,0,1-.6,2.1,46.7,46.7,0,0,1-7.6,15.5,43.2,43.2,0,0,1-4.5,5,17.2,17.2,0,0,1-3.5,2.5l-4.7,2.3a16.7,16.7,0,0,1-4.4,1.1l-5.1.5H77.6l-6.5-.2-6.9-.4a49.4,49.4,0,0,1-7.7-1.2,26,26,0,0,1-4.7-1.6,19,19,0,0,1-5.5-3.7,39.2,39.2,0,0,1-8.9-12.5A59.1,59.1,0,0,1,33,219.1c-.3-1.5-.5-3-.7-4.5s-.4-2.8-.5-4.1a16.4,16.4,0,0,1-.2-2.2c-.2-1.3-.2-2.5-.3-3.8-.3-3.7-.2-7.4-.2-11.1s-.1-6.1-.2-9.2-.3-7.5-.2-11.3a17.6,17.6,0,0,1,.6-3.8.6.6,0,0,1,.5.3,4.4,4.4,0,0,0,.8,1.1l2.8,1.9a44.8,44.8,0,0,0,8.4,3.1,32.5,32.5,0,0,0,4.3.8,54.6,54.6,0,0,0,6.9,1c.1,0,.3-.1.4,0a5,5,0,0,0,2.1.1l2,.2H80.1a2.1,2.1,0,0,1,1.1-.1c1.1,0,2.1-.2,3.2-.3l4.2-.4,2.6-.2,3.6-.3c1.3-.1,2.5-.3,3.8-.3h.3a14.6,14.6,0,0,1,2.2-.3,30.6,30.6,0,0,1,3.2-.5l5.4-1.1a26.6,26.6,0,0,0,5.5-1.6,4.9,4.9,0,0,0,2.8-1.9Z" style="fill:#e57225"/><path d="M44.9,165.6h0Z" style="fill:#ca8c5e"/><path d="M96.1,176.1h0Z" style="fill:#ca8c5e"/><path d="M117.2,167.8a10.5,10.5,0,0,0-2.9-1.2h.4a8.4,8.4,0,0,1-2.6-.7l-3.7-.6c-2.4-.4-4.9-.6-7.3-.9-4-.3-8-.6-11.9-.7l-7.6-.2H68.7l-8,.2c-3,.2-5.8.3-8.6.6l-1.7.2a79,79,0,0,0-8.2.9,45.1,45.1,0,0,0-5.8,1.1,14.3,14.3,0,0,0-2.7.9l-.7.3-.4.2h-.2l-.3.2a2.5,2.5,0,0,0-1.2,2,2.8,2.8,0,0,0,1.1,2.1l.3.2h.2l.3.2.7.4,2.6,1.1a68.7,68.7,0,0,0,8.7,2.1l2.4.4a52,52,0,0,0,5.7.8c3.2.3,6.8.8,10.2.9h.3c2.2.7,5.5.2,7.8.2a190.7,190.7,0,0,0,20-.4c8.5-.9,17-1.7,24.8-5.6a3.9,3.9,0,0,0,2.3-2.2h0A2.7,2.7,0,0,0,117.2,167.8Zm-75.1-2.4h0Zm49.5,12.9Zm5.8-.6h0Zm17.2-7.7h0c-.2,1-1.2,1.5-2.1,2-7.1,3.3-14.9,4-22.7,4.7a159.7,159.7,0,0,1-18.3.4c-2.1,0-5.1.5-7.2-.2h-.2l-9.3-.8a49.5,49.5,0,0,1-5.3-.7l-2.2-.4a59.6,59.6,0,0,1-7.9-1.8l-2.4-.9-.6-.3-.4-.2c0-.1-.1-.1-.1-.2h-.3a2.4,2.4,0,0,1-1-1.8,2.2,2.2,0,0,1,1.1-1.7l.3-.2h.2l.3-.2.7-.2a10.4,10.4,0,0,1,2.5-.8l5.3-.9a63.6,63.6,0,0,1,7.5-.8l1.5-.2,7.9-.5,7.3-.2H81l7,.2,10.8.6,6.8.8,3.3.5a7.1,7.1,0,0,0,2.4.6h-.4a8.1,8.1,0,0,1,2.7,1.1A2.3,2.3,0,0,1,114.6,170Z" style="fill:#fcae7a"/><path d="M91.6,178.3h0Z" style="fill:#ca8c5e"/><path d="M90.1,176.4h0Z" style="fill:#ca8c5e"/><path d="M36.2,171.5l.3-.2.7-.3,2.5-.7a37.6,37.6,0,0,1,5.3-1l7.5-.8H54l7.9-.5,7.3-.2H81l7,.2q5.4.2,10.8.6l6.8.7,3.3.6a10.3,10.3,0,0,0,2.4.5h-.4a7.4,7.4,0,0,1,2.6,1,2.5,2.5,0,0,0,1.1-1.4h0a2.3,2.3,0,0,0-1-2.3,8.1,8.1,0,0,0-2.7-1.1h.4a7.1,7.1,0,0,1-2.4-.6l-3.3-.5-6.8-.8L88,164.1l-7-.2H69.2l-7.3.2-7.9.5-1.5.2a63.6,63.6,0,0,0-7.5.8l-5.3.9a10.4,10.4,0,0,0-2.5.8l-.7.2-.3.2H36l-.3.2a2.2,2.2,0,0,0-1.1,1.7,2.4,2.4,0,0,0,1,1.8h.6Z" style="fill:#e57225"/><path d="M36.4,172l.6.3,2.4.9a59.6,59.6,0,0,0,7.9,1.8l2.2.4a49.5,49.5,0,0,0,5.3.7l9.3.8h.2c2.1.7,5.1.2,7.2.2a159.7,159.7,0,0,0,18.3-.4c7.8-.7,15.6-1.4,22.7-4.7l1-.6a7.4,7.4,0,0,0-2.6-1h.4a10.3,10.3,0,0,1-2.4-.5l-3.3-.6-6.8-.7q-5.4-.5-10.8-.6l-7-.2H69.2l-7.3.2-7.9.5H52.5l-7.5.8a37.6,37.6,0,0,0-5.3,1l-2.5.7-.7.3-.3.2h-.3c0,.1.1.1.1.2Z" style="fill:#6c4d28"/><path d="M117.6,202.3a.4.4,0,0,1,.1-.3v-.8l-6.6,1.9c-2.8.8-5.7,1.4-8.5,2s-6.9,1.3-10.4,1.7-8.4.8-12.7,1-8.9.1-13.3-.1l-10.5-.9A146.5,146.5,0,0,1,39.6,204l-4.9-1.3-3.5-1.2c0,1,0,2,.1,3s.1,2.5.3,3.8a16.4,16.4,0,0,0,.2,2.2c0,.4.1.8.1,1.2,3.7,1,7.4,1.8,11.2,2.5,1.7.3,3.4.7,5.1.9s6.3.8,9.5,1l7.8.4h13l5.7-.3,3.8-.4c2.6-.2,5.2-.6,7.8-1l6.5-1.1,5.9-1.3,7-1.9,2-.6a28.3,28.3,0,0,1,.2-2.9C117.5,205.4,117.6,203.8,117.6,202.3Z" style="fill:#ddd9bf"/><path d="M48.5,194.8a151.9,151.9,0,0,0,16.4,1.7c4,.1,8.1.1,12.2-.1s8.2-.4,12.3-.9,7.9-1,11.8-1.7l4-.7,8.9-2,3.9-.9c0-1.5,0-2.9.1-4.3l-4.2,1c-2.9.8-5.9,1.4-8.9,2l-4.3.8L93.1,191l-8.7.9-4.5.3-6.5.2H66.7c-2.7-.1-5.4-.2-8.1-.5a177.5,177.5,0,0,1-18-2.8c-3.2-.7-6.5-1.6-9.6-2.6v4.4h.1A132.2,132.2,0,0,0,48.5,194.8Z" style="fill:#ddd9bf"/><path d="M116.4,194.8a2,2,0,0,0-2.2,1.9,1.9,1.9,0,0,0,2,1.9,2,2,0,0,0,1.8-.9v-1.9A1.8,1.8,0,0,0,116.4,194.8Z" style="fill:#ddd9bf"/><path d="M40.5,200.2a1.9,1.9,0,0,0,2-1.7,2,2,0,0,0-1.8-2.1,1.9,1.9,0,0,0-2.1,1.7A2.1,2.1,0,0,0,40.5,200.2Z" style="fill:#ddd9bf"/><path d="M107.8,200.2a1.8,1.8,0,0,0,1.9-1.9,1.9,1.9,0,1,0-1.9,1.9Z" style="fill:#ddd9bf"/><path d="M34.1,196.8a2,2,0,0,0-1.8-2,2.1,2.1,0,0,0-1.2.3v3.2a1.7,1.7,0,0,0,1,.3A2,2,0,0,0,34.1,196.8Z" style="fill:#ddd9bf"/><path d="M57.3,202.8a2,2,0,1,0,.1-3.9,1.8,1.8,0,0,0-1.9,1.8A2,2,0,0,0,57.3,202.8Z" style="fill:#ddd9bf"/><path d="M99.3,201.8a2,2,0,0,0,2-1.8,1.9,1.9,0,0,0-3.8-.2A2,2,0,0,0,99.3,201.8Z" style="fill:#ddd9bf"/><path d="M82.6,203.7a1.9,1.9,0,0,0,.1-3.8,1.9,1.9,0,1,0-.1,3.8Z" style="fill:#ddd9bf"/><path d="M49,201.8a1.9,1.9,0,0,0,0-3.8,1.8,1.8,0,0,0-1.9,1.9A1.9,1.9,0,0,0,49,201.8Z" style="fill:#ddd9bf"/><path d="M74.1,204a2,2,0,0,0,2-1.9,2,2,0,0,0-1.9-1.9,1.9,1.9,0,0,0-.1,3.8Z" style="fill:#ddd9bf"/><path d="M65.6,203.6a1.9,1.9,0,0,0,2.1-1.7,2,2,0,0,0-1.8-2,1.9,1.9,0,0,0-2,1.8A1.9,1.9,0,0,0,65.6,203.6Z" style="fill:#ddd9bf"/><path d="M90.9,202.7a1.9,1.9,0,0,0,2-1.9,1.8,1.8,0,0,0-1.8-1.8,1.8,1.8,0,0,0-2,1.8A2,2,0,0,0,90.9,202.7Z" style="fill:#ddd9bf"/><path d="M49.6,54.7l1.5.6c-.2.1-.3.2-.2.4A17.7,17.7,0,0,0,53.7,60l2.1,2.3a12.7,12.7,0,0,1,2.9,5.2c.4,1.2.9,2.4,1.4,3.6a23.5,23.5,0,0,1,1.4,7,3.7,3.7,0,0,0,.1,1.1,5.4,5.4,0,0,1,0,1.8,9.7,9.7,0,0,0-.1,1.7c0,.3-.1.6-.1,1s-.6,2.9-1,4.3v.5a1.4,1.4,0,0,1-1.1.2A11.3,11.3,0,0,0,57,86.1a14.2,14.2,0,0,1-1.3-1.2,24.1,24.1,0,0,1-3.4-3.7l-2.9-3.7a18.9,18.9,0,0,0-2-2,5.2,5.2,0,0,1-1.8-2.1,2.5,2.5,0,0,0-.4-.7,18.2,18.2,0,0,0-3.4-4.8,26.2,26.2,0,0,1-2.8-3l-.8-1a10.7,10.7,0,0,0-1.4-1.6c-.2-.3-.3-.5-.1-.8a3,3,0,0,1,.9-1.3,7.1,7.1,0,0,0,1-1.4,4.7,4.7,0,0,1,.5-1,6.7,6.7,0,0,0,.7-3.1,14.7,14.7,0,0,1,0-2.1.8.8,0,0,1,.2-.7l5.1,1.4Z" style="fill:#8fa129"/><path d="M140.2,63.5l-.9,2.9a.5.5,0,0,0-.2.4c-.4.7-.6,1.5-1,2.2a12.5,12.5,0,0,1-2.1,3l-2.3,2.2-3.1,2.2-2.4,1.8a10.7,10.7,0,0,0-1.6,1.4,13.7,13.7,0,0,0-2.3,1.9c-.6.7-1.3,1.3-1.9,2.1a26.9,26.9,0,0,0-2,2.7c-.3.3-.3.7-.7.9a.5.5,0,0,0-.5.3,8.7,8.7,0,0,0-2,2.3c-.6,1-1.3,1.9-1.9,2.8l-1.6,2.3-2.1,2.6a23.4,23.4,0,0,1-2.5,3l-.5.6a3.4,3.4,0,0,1-1.2,1.2c-.2.2-.4.3-.5.5l-2,1.7c-1.2.9-2.3,1.9-3.4,2.9l-.5.6a29.8,29.8,0,0,0-2.7,2.3l-2,1.6-2.9,2.2-1.7,1.2c-.2.2-.4.1-.5-.2a2.8,2.8,0,0,1,.4-1.5l3.2-6.6c1-1.9,1.9-3.9,2.8-5.9a21.1,21.1,0,0,1,2.6-4c.9-1.2,1.9-2.4,2.9-3.5a26.5,26.5,0,0,1,2.1-2.6c2.1-2.1,4.2-4.2,6.4-6.1l2.4-2.1c.6-.6,1.2-1.1,1.7-1.7l1.9-1.6,1.4-1.4a21.6,21.6,0,0,1,3.3-2.7,24.3,24.3,0,0,0,3.2-2.4l3-2.8a29.2,29.2,0,0,1,2.8-2.1,25,25,0,0,1,3.5-2.1,49.5,49.5,0,0,0,4.6-2.4l.5-.3Z" style="fill:#577824"/><path d="M132.9,108.7a8.3,8.3,0,0,1,3.2,1.3c0,.1,0,.3-.1.3l-.9.7a26,26,0,0,0-3.6,3c-.8.9-1.4,1.9-2.2,2.7a42.5,42.5,0,0,1-3.5,3.9l-.9,1a3.8,3.8,0,0,1-1.1,1.1,2.3,2.3,0,0,0-.7.7l-3.4,3.3a15,15,0,0,0-1.9,2.5,17.1,17.1,0,0,0-1.4,2.7,3.7,3.7,0,0,1-1.8,1.7c-2.3,1.2-4.6,2.3-6.8,3.6l-5.7,3.4-1.8,1.2-.3.2h-.3c-.2-.1-.2-.2-.1-.4s.7-2.6,1.1-3.9a22.9,22.9,0,0,1,1.7-4.6c.7-1.1,1.3-2.4,1.9-3.6a33,33,0,0,1,1.8-3.2,12.8,12.8,0,0,1,2.6-3.5,14.3,14.3,0,0,0,2.3-2.6c1-1.1,2.1-2.2,3.2-3.2s3.7-2.7,5.6-4l3.2-2.1a8.3,8.3,0,0,0,1.5-1.1l2.3-2a9.7,9.7,0,0,1,2.4.2h.9c.4.3.7.2,1.1.2h0c.2.3.6.2.9.2h0C132.3,108.8,132.6,108.7,132.9,108.7Z" style="fill:#365511"/><path d="M99.1,60.9l1-.7c1.7-1.5,3.3-3.1,5.1-4.4a11.2,11.2,0,0,1,2.9-1.9,4.9,4.9,0,0,0-.1,1.2,11.4,11.4,0,0,1-.2,2.6,5.5,5.5,0,0,1-.9,1.9,9.6,9.6,0,0,0-1.2,2,5.3,5.3,0,0,0-.4,2.8,7.4,7.4,0,0,0,1.9,5.3,7.6,7.6,0,0,1,.8,1.1,7.2,7.2,0,0,1,1.2,2.1,1.6,1.6,0,0,1-.2,1.5,10.9,10.9,0,0,1-1.3,1.7l-3.8,4.8c-1.3,1.7-2.5,3.5-3.7,5.3a74.5,74.5,0,0,0-4.9,8.7v.4a.7.7,0,0,0-.5.7h0a1,1,0,0,0-.4.7c-.4.3-.4.3-.5-.1a10.7,10.7,0,0,0-1-2.2,13.1,13.1,0,0,1-1.2-5.1c-.1-.5-.1-1.1-.2-1.6a2.1,2.1,0,0,1,0-1.1,19.4,19.4,0,0,0,.2-2.4,7.5,7.5,0,0,1,0-1.5,10,10,0,0,0,.2-1.6V79.1a5.4,5.4,0,0,1,.5-2.8,14,14,0,0,0,.9-2.9,9.6,9.6,0,0,0,0-2.4,5.7,5.7,0,0,1-.1-1.3,4.9,4.9,0,0,1-.1-1.2,1.7,1.7,0,0,1,.6-1.2,20.9,20.9,0,0,1,1.4-1.7,43.2,43.2,0,0,1,3.4-3.9l.6-.6C99.2,61,99.2,60.9,99.1,60.9Z" style="fill:#8fa129"/><path d="M150.4,43.5a1.8,1.8,0,0,1,.5,2.1,15.3,15.3,0,0,1-2.1,5.1,6.7,6.7,0,0,1-4.1,3.1l-1.7.5a4.3,4.3,0,0,0-2.9,2,16.1,16.1,0,0,1-2.4,2.9,26,26,0,0,1-3.1,2.5l-2.2,1.4c-.2.2-.5.3-.5.5l-.8.3-1.2.7a25.5,25.5,0,0,1-4.8,2,18.4,18.4,0,0,0-3.6,1.5c-1.2.6-2.2,1.4-3.4,2.1l-.3.4a1.1,1.1,0,0,0-.8.7,3.3,3.3,0,0,0-1,.6l-1.8,1.6a34.8,34.8,0,0,0-2.8,2.4c-1.8,1.8-3.7,3.5-5.3,5.4a20.9,20.9,0,0,1-2,2.2L101.4,87c-.4.6-1,1-1.2,1.7s-.5.6-.7.9l-.4.2a2.4,2.4,0,0,1,.2-.8,112,112,0,0,1,6.8-9.7c1.4-1.8,2.9-3.5,4.2-5.3s2.5-3.3,3.8-5a21.1,21.1,0,0,1,3.1-3.6l2.3-2.1a33.4,33.4,0,0,0,3.2-3.3c1.2-1.4,2.5-2.6,3.7-3.8a24.4,24.4,0,0,1,4-3.2l1.9-1.3c1.5-.9,2.9-1.9,4.3-2.9a26.9,26.9,0,0,1,2.9-1.6l6.2-3.3.4-.3a8.6,8.6,0,0,1,2.2.2,9.7,9.7,0,0,0,1.7,0C150.3,43.8,150.3,43.6,150.4,43.5Z" style="fill:#8fa129"/><path d="M108.7,53.4a.9.9,0,0,1,.6-.6c.1.1.2.2.4.1l1.1-.5c2.9-1.3,5.8-2.3,8.7-3.3s4.5-1.4,6.7-2.3a14.4,14.4,0,0,1,6.5-.8,6.4,6.4,0,0,0,4.1-.4l2.3-.9a18.2,18.2,0,0,1,3.8-1.1h1.5l-.2.3-3.4,1.7-2.3,1.2-2.7,1.7-4.5,3a23.8,23.8,0,0,0-5.1,3.9,59,59,0,0,0-4.9,5.1,21.6,21.6,0,0,1-2.7,2.5,33.1,33.1,0,0,0-2.7,2.6l-.9,1-3.3,4.3-1.2,1.6c-.1.2-.2.3-.4.3a.3.3,0,0,1-.3-.3,6.3,6.3,0,0,0-1-2L107.6,69a7,7,0,0,1-1.5-3.4,24.3,24.3,0,0,1,0-2.7,1.4,1.4,0,0,1,.2-.6,6.2,6.2,0,0,1,1.3-2.4,3.9,3.9,0,0,0,.8-1.4,12,12,0,0,0,.3-2,3.4,3.4,0,0,1,.1-1,5.4,5.4,0,0,0,0-1.8C108.8,53.6,108.7,53.5,108.7,53.4Z" style="fill:#8fa129"/><path d="M85,14.5a15.7,15.7,0,0,1,3.4-3.4c.4.2.4.5.6.9a12.1,12.1,0,0,0,2,3,7.6,7.6,0,0,1,.8,1.1,1.7,1.7,0,0,1,.3,1.7,2.8,2.8,0,0,0-.1.9,6.9,6.9,0,0,0-.3,3.5,19.4,19.4,0,0,1,.2,2.4c0,.3-.1.6,0,.8a3.9,3.9,0,0,1,.2,1.5,17,17,0,0,0,.2,4.5v.4a11.5,11.5,0,0,0,.2,3.2v.3a12.6,12.6,0,0,0,.4,2.7c.1.8.3,1.6.5,2.5a1.8,1.8,0,0,1-.4,1c-.9,1.6-1.8,3.1-2.6,4.7l-.5.9a21.2,21.2,0,0,0-1.8,3.7c-.3.7-.5,1.5-.8,2.3s-.1.4-.1.6a12.4,12.4,0,0,1-.9,3.3c-.3-.1-.4-.4-.5-.7a21.7,21.7,0,0,1-2.2-6,22.4,22.4,0,0,1-.7-4.4v-.3a5.5,5.5,0,0,1-.2-1.8V40.1a6.2,6.2,0,0,0-.1-1.3,8.6,8.6,0,0,1,0-3.2,9.2,9.2,0,0,0,.1-1.6,31.7,31.7,0,0,1,.2-4.4c.1-.1,0-.3,0-.4a40.2,40.2,0,0,1,.2-4.9,16,16,0,0,1,.3-2.3l1.2-5.4A7.8,7.8,0,0,0,85,14.5Z" style="fill:#365511"/><path d="M49.6,54.7l-4.5-1.4L40,51.9c-.3-.3-.8-.1-1.1-.4h-.2a32.8,32.8,0,0,0-7.6-1.4l-3.6-.5A18.8,18.8,0,0,1,19,46.4l-.5-.3a10.3,10.3,0,0,0-3-1.4c-.2-.3-.5-.2-.8-.2H13.1a.7.7,0,0,0-.6.2,6.2,6.2,0,0,0-1.9.7L7.3,46.8a5.1,5.1,0,0,1-1.7.3,2.5,2.5,0,0,1-2.3-1.6,6.4,6.4,0,0,1,3.1-5.1c1.2-.8,2.4-1.5,3.6-2.4a7,7,0,0,1,5.2-1.5,30.1,30.1,0,0,1,4.2.5,29.4,29.4,0,0,1,7.3,2.2,91.8,91.8,0,0,1,9.9,5A57,57,0,0,1,47,52.1,31.9,31.9,0,0,1,49.6,54.7Z" style="fill:#395612"/><path d="M86.3,57a12.4,12.4,0,0,0,.9-3.3c0-.2,0-.5.1-.6s.5-1.6.8-2.3a21.2,21.2,0,0,1,1.8-3.7l.5-.9c.8-1.6,1.7-3.1,2.6-4.7a1.8,1.8,0,0,0,.4-1c.2-.1.3-.1.4-.3l1.3-1.7a28.2,28.2,0,0,0,2.1-3.8,17.3,17.3,0,0,0,1.5-4.9,12.3,12.3,0,0,0,.2-1.9,23.6,23.6,0,0,0,.4-2.8,4.4,4.4,0,0,1,.2-1,.8.8,0,0,0-.2-.9,12.6,12.6,0,0,0,1-3.3,29.5,29.5,0,0,1,1.7-5,21.8,21.8,0,0,1,2.8-4.6,12.6,12.6,0,0,1,2-2A18.5,18.5,0,0,1,110.2,6a2,2,0,0,0,1-.8L112,5l2.4-.6h.8a1,1,0,0,1,1.1,1.1,1.9,1.9,0,0,1-.4,1.5l-6.7,9.5A85.1,85.1,0,0,0,99.8,32a44,44,0,0,1-3,5.2,32.7,32.7,0,0,1-2.5,3.6,10,10,0,0,0-.8,1.4c-1.3,2.1-2.5,4.2-3.6,6.4a27.5,27.5,0,0,0-1.5,3.6,11.4,11.4,0,0,0-.6,2.5,13.8,13.8,0,0,1-1.6,4.7c-.7,1.4-1.3,2.8-1.9,4.3a.2.2,0,0,0,.1.4,1.4,1.4,0,0,0-.7,1.1,45.2,45.2,0,0,0-2,7.2,13.1,13.1,0,0,0-.5,3.9c.1,1.1,0,2.1,0,3.2s.2.8.2,1.2-.2.9-.2,1.3a6.2,6.2,0,0,1-1,3.5c-.1.2-.3.2-.4.3l-.2-.3a14.8,14.8,0,0,0-.3-1.9,27,27,0,0,0-.8-3.9,33.2,33.2,0,0,0-2.3-5.1c-.1-.2-.3-.3-.3-.5a2.5,2.5,0,0,0,.2-.7V73h0a3.8,3.8,0,0,0,.9-1.3l1.5-3a2.5,2.5,0,0,0,0-2.5,35.1,35.1,0,0,1-2.4-6.4,3.5,3.5,0,0,0-.6-1.7,2.5,2.5,0,0,1,.4-1.1c.4.3.3.7.4,1a21.9,21.9,0,0,1,1,3.4,26.5,26.5,0,0,0,1.1,3,15.1,15.1,0,0,0,.9,1.8.2.2,0,0,0,.4,0,19.3,19.3,0,0,1,2.2-2.8,3.8,3.8,0,0,0,1.2-1.6c.1-.1.2-.1.2-.2a18.6,18.6,0,0,0,2.1-2.8,2.3,2.3,0,0,0,.3-1.1C86.1,57.7,86.3,57.4,86.3,57Z" style="fill:#577824"/><path d="M3.3,45.5a2.5,2.5,0,0,0,2.3,1.6,5.1,5.1,0,0,0,1.7-.3l3.3-1.4a6.2,6.2,0,0,1,1.9-.7,1.2,1.2,0,0,1,.9.3l.7.8a21.8,21.8,0,0,0,4.7,4.4l2.6,1.5c1.3.9,2.5,2.1,3.7,3.1a36.8,36.8,0,0,0,3.8,3.1l5.3,3.4a14.5,14.5,0,0,1,3.6,3.4l2.1,2.6.7.6a3.4,3.4,0,0,1,.9.8c.1.3.4.5.6.7a19.6,19.6,0,0,1,2,3c.1.1.1.2.1.4h0c-.5-.1-.8-.5-1.2-.8l-2.5-1.7c-1-.7-2.1-1.3-3-2A15.5,15.5,0,0,0,34,66.2l-2.3-1-3.2-1.1c-2.4-.7-4.8-1.3-7.2-2.1a16.2,16.2,0,0,1-3.5-1.7,2.6,2.6,0,0,0-1.2-.5h0l-.3-.2A22,22,0,0,1,13.6,57a18.5,18.5,0,0,0-1.4-1.4,9,9,0,0,0-2.6-1.7l-1.5-.7A7.9,7.9,0,0,1,3.4,47,2.6,2.6,0,0,1,3.3,45.5Z" style="fill:#8fa129"/><path d="M31.7,105.3l-.2-.8c0-.2,0-.4.3-.4a9,9,0,0,1,2.8,1.3,12.8,12.8,0,0,0,2.5,1.5l4.9,2.5a23.4,23.4,0,0,0,6.3,2.1,2.6,2.6,0,0,1,1.7.9l.3.5c1.9,2.8,3.5,5.8,5.2,8.7a54.7,54.7,0,0,0,4.4,6.3l.8,1.2h-.5a10.6,10.6,0,0,0-2.5-.2h-.5a3.9,3.9,0,0,0-1.5-.2H55a33.8,33.8,0,0,1-3.4-.8,17.3,17.3,0,0,0-3.1-.7l-.4-.2-3-3.1c-1.1-1.1-2.3-1.9-3.3-3s-2.9-2.8-4.1-4.3-1.4-1.7-2-2.6a33.4,33.4,0,0,1-3.5-7.4A5,5,0,0,1,31.7,105.3Z" style="fill:#577824"/><path d="M63.4,62.2a1.4,1.4,0,0,1-.3-.9c.1-.1,0-.1-.1-.2-.5-2.2-1.1-4.4-1.7-6.6a9,9,0,0,0,1.4-2,25.4,25.4,0,0,0,2-5.2,21.4,21.4,0,0,0,.6-3.5c.1-.6.2-.7.9-.8s2.6,0,3.9-.4l2.6-.2a6,6,0,0,0,2.3-1A4.8,4.8,0,0,0,76.8,39a6.5,6.5,0,0,1,1.3-2.3c.9-1,.9-1,1.4.1s.2.3.2.4a13.6,13.6,0,0,1,1.1,4.4c.1,1,0,2,0,3a1.4,1.4,0,0,1-.4,1.1L78,48c-.7.8-1.4,1.5-2,2.3a15.5,15.5,0,0,0-2.8,5.4c-.2.8-.5,1.7-.8,2.6a13.4,13.4,0,0,1-4.5,6.3c-.2.2-.5.4-.5.7l-2.8-2C64.1,63.1,63.5,62.8,63.4,62.2Z" style="fill:#6b8a00"/><path d="M126.8,107.8l-2.3,2a8.3,8.3,0,0,1-1.5,1.1l-3.2,2.1c-1.9,1.3-3.8,2.6-5.6,4s-2.2,2.1-3.2,3.2a14.3,14.3,0,0,1-2.3,2.6,12.8,12.8,0,0,0-2.6,3.5,33,33,0,0,0-1.8,3.2c-.6,1.2-1.2,2.5-1.9,3.6a22.9,22.9,0,0,0-1.7,4.6c-.4,1.3-.8,2.6-1.1,3.9s-.1.3.1.4h.3l.3-.2,1.8-1.2,5.7-3.4c2.2-1.3,4.5-2.4,6.8-3.6a3.7,3.7,0,0,0,1.8-1.7,17.1,17.1,0,0,1,1.4-2.7,15,15,0,0,1,1.9-2.5l3.4-3.3a2.3,2.3,0,0,1,.7-.7,3.8,3.8,0,0,0,1.1-1.1l.9-1a42.5,42.5,0,0,0,3.5-3.9c.8-.8,1.4-1.8,2.2-2.7a26,26,0,0,1,3.6-3l.9-.7c.1,0,.1-.2.1-.3a1.8,1.8,0,0,1,.9.8,1.6,1.6,0,0,0-.9.3l-1.4,1.1a22.1,22.1,0,0,0-3.2,2.9,32.5,32.5,0,0,1-2.3,2.9c-1.1,1.1-2,2.3-3.1,3.4l-5.7,5.6a15.6,15.6,0,0,0-1.6,2,21.1,21.1,0,0,0-1.8,3.3h.8l8.3-3.1,5.9-2.5c1.1-.4,2-1,3-1.4s2.5-1.3,3.8-1.9l3.4-1.7a3.9,3.9,0,0,0,1.4-.8,3.6,3.6,0,0,1,.4,1.1,2.3,2.3,0,0,0-1.6.4,30.2,30.2,0,0,0-3.6,1.8c-2.1,1.2-4.4,2.2-6.6,3.2l-3.7,1.6c-.2.1-.4.1-.5.4a18.4,18.4,0,0,0,4.1.5,7.4,7.4,0,0,1,2.1,0,15.1,15.1,0,0,0,3.7-.6l1.5-.4a1.3,1.3,0,0,1,1.2.1l-.6.9a.6.6,0,0,0-.5-.2c-.3-.1-.5.1-.8.1a10.4,10.4,0,0,1-3.9.7h-.5a5.7,5.7,0,0,1-2.6,0h-.8a7.7,7.7,0,0,1-2.6-.3,5.8,5.8,0,0,0-3.2.2l-6.3,2.3a12.4,12.4,0,0,0-3.3,1.5h-.4l-1.1.5-2.7,1.4c-2.2,1.1-4.2,2.4-6.3,3.7l-3.9,2.4c-.2.1-.6.1-.5.4s.4,0,.6,0l2.7-.5a15.8,15.8,0,0,0,3.7-1.1,25.7,25.7,0,0,1,5.4-1.6l4.9-1,8-2.2a26.4,26.4,0,0,0,4-1.2,32.2,32.2,0,0,1,4.4-1.4,24.3,24.3,0,0,0,3.8-1.3,1.2,1.2,0,0,1,.8-.2,3.7,3.7,0,0,1-.5,1.1h-.7a30.6,30.6,0,0,1-4.9,1.5l-2,.7-.7.3a55.4,55.4,0,0,1-5.8,1.7l-4.6,1.2a50,50,0,0,1-6.7,1.5l-4.2,1.2-1.2.6c-1,.3-.9.5-.3,1.1a3.6,3.6,0,0,0,3.6.9H112a7.9,7.9,0,0,0,3.4-.6,7.5,7.5,0,0,1,2.6-.5h.4a9.3,9.3,0,0,1,2.3-.2l.5.2a4.1,4.1,0,0,1-1.1.7,12.9,12.9,0,0,0-5.1.7,7.1,7.1,0,0,1-2.9.5h-3.6a5.2,5.2,0,0,1-1.8-1.2l-.5-.5a1.1,1.1,0,0,0-1.1-.3,4.1,4.1,0,0,1-1.6.3l-3.9.7a7.1,7.1,0,0,0-1.8.8l-3,2.3L93.2,148,91,149.9l-3.4,3.4c-.2.2-.4.5-.8.5h-.7a7,7,0,0,0-3.5.6,12.8,12.8,0,0,1-2.8.7,12.1,12.1,0,0,1-3.8,0H74.7a5.5,5.5,0,0,1-1.8.2l-1.2.2a.6.6,0,0,0-.4.7c0,.3.1.6.1.9a42.8,42.8,0,0,1-.2,6.2h0c-.1.7-.1.7.6.6h4.6a6.5,6.5,0,0,0,2.4.2,6.2,6.2,0,0,0,3.5-1,34.6,34.6,0,0,0,4.6-3.2,4,4,0,0,1,2-1.1c.3.2.2.6.2.9a1.4,1.4,0,0,0-1.1.3L85.5,162a17.9,17.9,0,0,1-4.2,2.5,6.4,6.4,0,0,1-3.3.5H71.3a.4.4,0,0,0-.4.4c-.1.3-.1.6-.2.8s-.8,3.2-1.3,4.7a2.1,2.1,0,0,0-.1,1.1l1.6-.4,4.3-.7a15.3,15.3,0,0,0,3.6-.7h.5l2.6-.6,2.8-.7c-.1.5-.5.7-.7,1h-.6l-1.3.4a19.4,19.4,0,0,0-3.3.7l-2.9.6-2.3.3-3,.5-1.5.4h-.4l-.7-.8c.2-.1.2-.3.2-.5a15.9,15.9,0,0,0-1.9-4.2,18.5,18.5,0,0,1-1.9-3.7,3.1,3.1,0,0,0-.8-1.5,17.3,17.3,0,0,0-2.6-2.8l-.6-.3h0c0-.3,0-.3-.2-.2a4.4,4.4,0,0,1-.7-1.9h.3c1.2,1.2,2.5,2.4,3.6,3.7a6.5,6.5,0,0,1,1.9,3.2,8.7,8.7,0,0,0,.7,1.7,6.7,6.7,0,0,1,.9,1.4A8.4,8.4,0,0,1,68,169a3.7,3.7,0,0,0,.5,1.1.2.2,0,0,0,.2.2l.2-.2v-.2c.4-1.5.9-2.9,1.2-4.4a2.3,2.3,0,0,0-.1-1.4,14.6,14.6,0,0,0-.7-1.9,6,6,0,0,0-1.4-2,17.7,17.7,0,0,0-2.8-2.7l-.9-.9a33.7,33.7,0,0,1-2.1-3.1,20.2,20.2,0,0,0-1.8-3.2c-1.4-2.3-3.2-4.4-4.8-6.6-.1-.2-.4-.3-.6-.5l-.3-.9V142h.5a10,10,0,0,0,1.4,1.6,28.6,28.6,0,0,0,2.2,3,34.8,34.8,0,0,1,3.6,5.5,22,22,0,0,0,1.5,2.6,7.4,7.4,0,0,0,1.8,2.1,23.9,23.9,0,0,1,2.3,2.2,6.4,6.4,0,0,1,1.8,2.5,3,3,0,0,1,.4.8l.3.2.2-.3v-4.6a10.2,10.2,0,0,0-.4-3.5,11.6,11.6,0,0,0-3.3-5.9l-.2-.3v-.2h.6a7.8,7.8,0,0,1,2.5,3.4,18.2,18.2,0,0,1,1.1,3c.1.6.2.6.8.5a9.2,9.2,0,0,1,2.9-.4h5.4a16.6,16.6,0,0,0,2.9-1,10.3,10.3,0,0,1,2.4-.5l.3-.2c.3.1.4.1.4-.2a12.6,12.6,0,0,1,.8-4.3l.9-2.5a4,4,0,0,0,.2-1.9l.9-.2a6.9,6.9,0,0,1-.5,2.4c-.3.9-.6,1.9-1,2.9a18.6,18.6,0,0,0-.6,3.4c-.1.1-.1.3.1.5l.3-.2c1.5-1.4,2.9-3,4.5-4.3l1.8-1.5c1.5-1.2,2.9-2.3,4.4-3.3a2.1,2.1,0,0,0,.6-.8c.3-1,.6-1.9.8-2.8a38.3,38.3,0,0,1,2.2-6.5,1.6,1.6,0,0,0-.1-1.5l-1.9-3.5a11.7,11.7,0,0,1-.5-1.1,9.8,9.8,0,0,1-.5-2.9,1.4,1.4,0,0,0-.2-.6c-.1-.4.1-.7.2-1.1l.4-.2c0,.2.2.4.2.6a14.9,14.9,0,0,0,.2,2.1,7.7,7.7,0,0,0,.8,2.7c.7,1.2,1.2,2.3,1.8,3.5s.1.4.5.3l1-2.1c.8-1.6,1.7-3.1,2.6-4.6a11.8,11.8,0,0,1,2.7-3.2,1.1,1.1,0,0,0,.3-1.3,19.8,19.8,0,0,0-.8-2.6,5.1,5.1,0,0,1-.6-2c.1-1.5-.2-2.9.2-4.4s0-.4,0-.6v-.3h1.1a2.2,2.2,0,0,0-.4,1.6,5,5,0,0,1-.2,1.2,5.4,5.4,0,0,0,0,1.8,7.9,7.9,0,0,0,.8,3.1c.1.3.1.6.2.9s.2.8.6,1.2l.7-.7a16.7,16.7,0,0,1,3.3-3.2l1.4-1.1a.9.9,0,0,0,.4-.8,3.7,3.7,0,0,0-.4-1.5,9.5,9.5,0,0,1-.5-3.3v-.4c.2-.2.4-.1.7-.2h.2c0,.3-.1.6-.1.8a1.4,1.4,0,0,0-.1.9c.2.6.3,1.3.6,2a4.3,4.3,0,0,1,.2,1.1c0,.4.3.5.5.3a31.9,31.9,0,0,1,3.8-2.6,26.3,26.3,0,0,0,3.9-2.9l.6-.5c.2-.2.4-.3.5-.6A2.5,2.5,0,0,1,126.8,107.8Z" style="fill:#577824"/><path d="M61,53.4a12.9,12.9,0,0,1-.7-2.1c-1.1-4-2.3-7.9-3.4-11.9a1.3,1.3,0,0,1-.1-.6,1,1,0,0,1,.4-.5,6.9,6.9,0,0,0,1.5-4.1,14.4,14.4,0,0,0-.4-4.6,9.3,9.3,0,0,1-.2-2.4c0-1.3,0-2.6.1-4a10.6,10.6,0,0,0-.5-5,24.7,24.7,0,0,1-1-2.9,6.7,6.7,0,0,1-.1-3.7c0-.2.3-.2.4-.1l.2.3a26.5,26.5,0,0,0,2.9,2.9L63.3,17a5,5,0,0,0,1.9,1.3l.5.5c-.2,0-.4.1-.4.3a15.1,15.1,0,0,0,.1,3,11.3,11.3,0,0,1,.3,1.8c.2.9.3,1.8.5,2.6a16,16,0,0,0,.5,2.1,17.4,17.4,0,0,1,.5,3.9c0,1-.3,2-.2,3s-.1.2-.1.3a30.9,30.9,0,0,1-1.4,4.3,15.2,15.2,0,0,0-.9,2.8A28.4,28.4,0,0,1,64,46a28.1,28.1,0,0,1-1.8,5.6A7.1,7.1,0,0,1,61,53.4Z" style="fill:#6b8a00"/><path d="M79.8,85.8c.1-.1.3-.1.4-.3a6.2,6.2,0,0,0,1-3.5c0-.4.2-.9.2-1.3s-.2-.8-.2-1.2.1-2.1,0-3.2a13.1,13.1,0,0,1,.5-3.9,45.2,45.2,0,0,1,2-7.2,1.4,1.4,0,0,1,.7-1.1,11.7,11.7,0,0,1,3.9-1.5c1.2-.3,2.5-.4,3.7-.6l4.6-.8,2.5-.3c.1,0,.1.1,0,.2l-.6.6a43.2,43.2,0,0,0-3.4,3.9,20.9,20.9,0,0,0-1.4,1.7,1.7,1.7,0,0,0-.6,1.2,1.1,1.1,0,0,0-.8.8l-.3.3a27.6,27.6,0,0,0-3.3,7.7c-.5,2-.7,4-1.1,6a16.6,16.6,0,0,1-1.2,4.5c-.6,1.5-1.3,3-2,4.4a2.7,2.7,0,0,1-.8,1h-.4l-.7-.4-.3-.4-2.1-1.3c-.2-.1-.5-.2-.6-.5a14.5,14.5,0,0,0,.2-3.6A4.9,4.9,0,0,1,79.8,85.8Z" style="fill:#385610"/><path d="M3.1,104.3a.5.5,0,0,1,0-.5,2,2,0,0,1,1.1.2l.2.2,3,.7,2.8.5,2.3.3,3.3.5a17.4,17.4,0,0,1,3.8,1.4,22.7,22.7,0,0,1,3.4,1.9,1.9,1.9,0,0,0,1,.5h0a1.1,1.1,0,0,0-.3-.8,6.1,6.1,0,0,1-.7-1.4,7.5,7.5,0,0,1-.7-1.2,1.9,1.9,0,0,0-1.3-1.3l-1.3-.7L17,103.3a1.6,1.6,0,0,1-.9-.9,1.2,1.2,0,0,1,1.2.2,42.5,42.5,0,0,0,4.3,2.1h.2a1,1,0,0,0,0-.9l-.3-.7a.3.3,0,0,1,.3-.3,1.2,1.2,0,0,1,1,.1c-.2.1-.4.1-.4.4s.3,1,.4,1.5a9.8,9.8,0,0,0,1.4,3.7c.3.5.4,1,.8,1.3a11.7,11.7,0,0,0,2.4,2.1l1.5,1.2c1.2,1,2.3,2.1,3.4,3.2l.9.6a15.1,15.1,0,0,1,2.6,1.8l2.5,1.9c1.8,1.4,3.6,2.6,5.3,4s3.4,2.8,5.2,4.1a3.4,3.4,0,0,0,1.4.9h0a1.5,1.5,0,0,0-.3-.7l-.6-.6a10.9,10.9,0,0,1,2.6.5,20.2,20.2,0,0,0,5.5.7,21.1,21.1,0,0,1,3.5.5,3.5,3.5,0,0,1,1.3.8c1.2,1.2,2.2,2.6,3.4,3.7h.2a22.7,22.7,0,0,0,3,3.2,1.1,1.1,0,0,0,.7.3,5.6,5.6,0,0,0,.5.8l1.4,1,5,3.4h.4l.2.2a20.2,20.2,0,0,0,.4,2.6.5.5,0,0,1-.2.4l-1.7-.6c-3.2-1.1-6.5-2.1-9.8-3a47.1,47.1,0,0,1-8.1-3.2,1.2,1.2,0,0,1-.7-.5,1.4,1.4,0,0,0-.2-.6c-.8-1.2-1.6-2.5-2.5-3.7a4.7,4.7,0,0,0-.6-.9,4.5,4.5,0,0,0-1.5-2.1l-2.5-1.8-4.8-3.6-4.5-3.5L37.5,121a26.3,26.3,0,0,0-3.9-2.9c-1.9-1.2-3.8-2.4-5.5-3.7l-1.7-1.3-2.3-1.9a35.5,35.5,0,0,0-5.3-3.2l-2.3-.8a55.8,55.8,0,0,0-5.9-1l-2.8-.4a.5.5,0,0,0-.6.1l-1.8-.7a4.4,4.4,0,0,0-2.2-.7H3.1Z" style="fill:#577824"/><path d="M142.9,43.6a18.2,18.2,0,0,0-3.8,1.1l-2.3.9a6.4,6.4,0,0,1-4.1.4,14.4,14.4,0,0,0-6.5.8c-2.2.9-4.5,1.5-6.7,2.3s-5.8,2-8.7,3.3l-1.1.5c-.2.1-.3,0-.4-.1a6.9,6.9,0,0,1,1.3-1.1,107.7,107.7,0,0,1,10.6-8.6c2.1-1.4,4.3-2.8,6.5-4a27.3,27.3,0,0,1,10.1-3.3,9.4,9.4,0,0,1,5.6,1.2,20.1,20.1,0,0,1,3.9,3.3,18,18,0,0,0,2,1.9,4.5,4.5,0,0,1,1.1,1.3c-.1.1-.1.3-.4.3a9.7,9.7,0,0,1-1.7,0,8.6,8.6,0,0,0-2.2-.2l-1.3-.2h-1.3Z" style="fill:#395612"/><path d="M111.2,5.2a2,2,0,0,1-1,.8,18.5,18.5,0,0,0-3.4,2.3,12.6,12.6,0,0,0-2,2,21.8,21.8,0,0,0-2.8,4.6,29.5,29.5,0,0,0-1.7,5,12.6,12.6,0,0,1-1,3.3,1.6,1.6,0,0,0-.5.9c-.8,2.1-1.7,4.1-2.4,6.1a51.8,51.8,0,0,0-2.5,9,9.1,9.1,0,0,1-.5-2.6,15.5,15.5,0,0,1-.3-3.1v-.3a3.4,3.4,0,0,1-.2-1.4V28.9c0-.2.1-.5,0-.7a6.8,6.8,0,0,1-.2-2,8.2,8.2,0,0,0-.2-2.7V20.2a2.5,2.5,0,0,1,.2-1.2,23.3,23.3,0,0,1,.7-2.5,20.3,20.3,0,0,1,1.7-4.9,30,30,0,0,0,1.6-4.8A2.9,2.9,0,0,0,97,5.2a5.4,5.4,0,0,1,2-1A16.2,16.2,0,0,1,104.7,3a9,9,0,0,1,3.6.8Z" style="fill:#385610"/><path d="M107.8,110.6v.3c-.4-.1-.6.2-.8.4a39.7,39.7,0,0,1-2.8,3l-.9,1-2.1,2.5a6.4,6.4,0,0,0-1,1.3c-.5.8-.9,1.6-1.3,2.4s-.4,0-.5.2l-.7.6-3.1,2.3a19.8,19.8,0,0,1-3.1,1.9.4.4,0,0,1-.5-.2v-.4a.8.8,0,0,0,.2-.8c0-.5.3-1,.3-1.6a4.3,4.3,0,0,1,.1-1.6,10.2,10.2,0,0,0,.3-3,2.1,2.1,0,0,1,0-.8l-.2-.9a1.4,1.4,0,0,1,.5-1.3l.5-.4,3-2.2,3.6-2.9L103,107l2.2-2h.2a13.7,13.7,0,0,0,2.3-1.9l2.1-2.1.6-.7c1.5-1.8,3-3.7,4.4-5.6s1.4-1.9,2-2.9l1.4-2.1c.1-.2.3-.2.5-.2v.4c-.3.2-.3.4-.3.7A38.8,38.8,0,0,0,117,95l-.9,3.2a17.6,17.6,0,0,1-3.6,6.9l-4,4.7Z" style="fill:#577824"/><path d="M61,53.4a7.1,7.1,0,0,0,1.2-1.8A28.1,28.1,0,0,0,64,46a28.4,28.4,0,0,0,.6-3.1,15.2,15.2,0,0,1,.9-2.8,30.9,30.9,0,0,0,1.4-4.3c0-.1.1-.2.1-.3s.2-2,.2-3a17.4,17.4,0,0,0-.5-3.9,16,16,0,0,1-.5-2.1c-.2-.8-.3-1.7-.5-2.6a11.3,11.3,0,0,0-.3-1.8,15.1,15.1,0,0,1-.1-3c0-.2.2-.3.4-.3l.5.4a12.2,12.2,0,0,0,.1,2.7,20,20,0,0,1,.5,2.6,10.7,10.7,0,0,0,.6,3.1,21.7,21.7,0,0,1,.7,5.7,16.3,16.3,0,0,1-.8,4.3c-.4,1.2-.8,2.4-1.3,3.6s-.3.9.6.8h1.3c1.2-.3,2.5,0,3.8-.4a4.2,4.2,0,0,0,2.2-.5l.8-.5A5.3,5.3,0,0,0,75.8,39a11.8,11.8,0,0,1,2.4-3.7c.4-.4.4-.6.1-1.1a7.9,7.9,0,0,0-1.4-1.8,1.3,1.3,0,0,1-.4-.9,17.2,17.2,0,0,1,.7-2.1.7.7,0,0,1,.4.5,8.9,8.9,0,0,0,2.2,2.9,12.7,12.7,0,0,0,1.2,1,2,2,0,0,1,.9,1.8c-.1,2.3,0,4.5,0,6.8a2.7,2.7,0,0,0,0,.9,6.9,6.9,0,0,1,.2,2.5v.6a17,17,0,0,1,.4,2.2c.2,1.1.4,2.2.7,3.3A36.6,36.6,0,0,0,85.3,57a2.5,2.5,0,0,0,.4.7,2.3,2.3,0,0,1-.3,1.1,18.6,18.6,0,0,1-2.1,2.8c0,.1-.1.1-.2.2a2.2,2.2,0,0,0-1.2,1.6,19.3,19.3,0,0,0-2.2,2.8.2.2,0,0,1-.4,0,15.1,15.1,0,0,1-.9-1.8,26.5,26.5,0,0,1-1.1-3,21.9,21.9,0,0,0-1-3.4c-.1-.3,0-.7-.4-1A7.5,7.5,0,0,1,77,54.2l1.8-3.1c.6-1.2,1-2.4,1.5-3.6s0-.2,0-.3a.5.5,0,0,0-.4.2l-2.1,2.2a15.8,15.8,0,0,0-4,7.3,14.8,14.8,0,0,1-2,4.7A14.4,14.4,0,0,1,69,64.9a2.4,2.4,0,0,1-1.2.7l-.4-.3c0-.3.3-.5.5-.7a13.4,13.4,0,0,0,4.5-6.3c.3-.9.6-1.8.8-2.6A15.5,15.5,0,0,1,76,50.3c.6-.8,1.3-1.5,2-2.3l2.4-2.3a1.4,1.4,0,0,0,.4-1.1c0-1,.1-2,0-3a13.6,13.6,0,0,0-1.1-4.4c0-.1-.1-.2-.2-.4s-.5-1.1-1.4-.1A6.5,6.5,0,0,0,76.8,39,4.8,4.8,0,0,1,75,41.4a6,6,0,0,1-2.3,1l-2.6.2c-1.3.4-2.7,0-3.9.4s-.8.2-.9.8a21.4,21.4,0,0,1-.6,3.5,25.4,25.4,0,0,1-2,5.2,9,9,0,0,1-1.4,2A2,2,0,0,1,61,53.4Z" style="fill:#385610"/><path d="M117,132.3a21.1,21.1,0,0,1,1.8-3.3,15.6,15.6,0,0,1,1.6-2l5.7-5.6c1.1-1.1,2-2.3,3.1-3.4a32.5,32.5,0,0,0,2.3-2.9,22.1,22.1,0,0,1,3.2-2.9l1.4-1.1a1.6,1.6,0,0,1,.9-.3,1.8,1.8,0,0,1,.8,1.3,8.3,8.3,0,0,1,.4,1.5,6.6,6.6,0,0,0,2.8,4.3,8.2,8.2,0,0,1,2.4,2.5c.1.2.1.3.2.4a3.9,3.9,0,0,1-1.4.8l-3.4,1.7c-1.3.6-2.4,1.4-3.8,1.9s-1.9,1-3,1.4l-5.9,2.5-8.3,3.1Z" style="fill:#365511"/><path d="M69.5,138.1a1.1,1.1,0,0,1-.7-.3,22.7,22.7,0,0,1-3-3.2h-.2c-1.2-1.1-2.2-2.5-3.4-3.7a3.5,3.5,0,0,0-1.3-.8,21.1,21.1,0,0,0-3.5-.5,20.2,20.2,0,0,1-5.5-.7,10.9,10.9,0,0,0-2.6-.5,7.6,7.6,0,0,0-.8-1.1,17.3,17.3,0,0,1,3.1.7,33.8,33.8,0,0,0,3.4.8h.7a3.9,3.9,0,0,1,1.5.2h.5a10.6,10.6,0,0,1,2.5.2h.5l-.8-1.2a54.7,54.7,0,0,1-4.4-6.3c-1.7-2.9-3.3-5.9-5.2-8.7l-.3-.5a2.6,2.6,0,0,0-1.7-.9,23.4,23.4,0,0,1-6.3-2.1l-4.9-2.5a12.8,12.8,0,0,1-2.5-1.5,9,9,0,0,0-2.8-1.3c-.3,0-.3.2-.3.4a2.9,2.9,0,0,1-.5-1.3,6.9,6.9,0,0,1,3.6,1.3,37.2,37.2,0,0,0,4.8,2.7,38.2,38.2,0,0,0,5.4,2.6l3,.8c.2.1.4.1.5-.2a36.1,36.1,0,0,0-2.5-3l-3.7-3.7-2.3-2c-1-.7-1.7-1.6-2.6-2.3a10.9,10.9,0,0,1-1.8-1.9A23.5,23.5,0,0,1,33.5,95a25.5,25.5,0,0,0-4.1-5.1l-2.5-2.2a36.2,36.2,0,0,0-3.2-2.2,1.8,1.8,0,0,0-1-.4h0l-.2-.2-.9-.7a.6.6,0,0,1-.1-.4c0-.2.2-.4.3-.3s1,.1,1.4.3h-.3a.4.4,0,0,0,.1.3l.5.3a37.4,37.4,0,0,1,5.4,3.9A31.8,31.8,0,0,1,34,94.3a24.4,24.4,0,0,0,3.2,4c.4.5,1,.9,1.5,1.4a26.2,26.2,0,0,0,2.5,2.2,12.9,12.9,0,0,1,1.7,1.6c.6.6,1.4.9,1.8,1.6s.1.1.2.1a.2.2,0,0,0,.2-.2,22,22,0,0,1,.5-3.7,5.9,5.9,0,0,0,0-2.3,17.6,17.6,0,0,1-.7-3.3c.3.1.6-.1.8.3a20.5,20.5,0,0,1,.5,2.4,10.6,10.6,0,0,0,.4,1.9c-.4.7-.2,1.4-.4,2.1a10.6,10.6,0,0,0-.5,3.1,1.8,1.8,0,0,0,.6,1.3c.8.8,1.5,1.7,2.3,2.6s1.3,1.7,1.9,2.5a55.4,55.4,0,0,1,3.3,5.1l.9,1.6h.2c.2.1.2-.1.2-.2v-.3a11.5,11.5,0,0,1,.2-3.2,24.2,24.2,0,0,0,.6-4.8,1.7,1.7,0,0,1,.2-.5,11.3,11.3,0,0,0,0-2.6,5,5,0,0,1-.2-1.2v-2.1a17.9,17.9,0,0,1,2.5,2.2c1.8,1.8,3.7,3.5,5.4,5.5a8.3,8.3,0,0,1,.8,1.2,9.1,9.1,0,0,0,3.4,3.6l1.5,1a6.6,6.6,0,0,1,2,2.7l2.1,6a20,20,0,0,1,.9,3.5c0,.4.3.7,0,1.2s-.6-.5-.9-.8l-1.2-1.2-.7-.6a8.8,8.8,0,0,1-2.1-2.2,15.1,15.1,0,0,1-1.1-2.2,13,13,0,0,0-1-1.5c-1-1.6-2.1-3.1-3.1-4.6a10.5,10.5,0,0,0-.8-1.1L60.1,113c-.1-.2-.3-.2-.6-.2h0c0-.6,0-.6-.4-.7h0c0-.2,0-.3-.2-.4h0l-.2-.2a7.1,7.1,0,0,1-1.5-3.3.5.5,0,0,0-.3-.5h-.1v2.7a3.4,3.4,0,0,1-.1,1,26.3,26.3,0,0,1-.6,3.9,11.3,11.3,0,0,1-.3,1.8,2.6,2.6,0,0,0,.1,1.5v.6a5.8,5.8,0,0,0,.9,2.9,53.7,53.7,0,0,0,5.7,7.8,14.6,14.6,0,0,1,1.6,1.9,14.2,14.2,0,0,0,2.5,2.4,2.6,2.6,0,0,0,.7,1.1A15.1,15.1,0,0,1,69.5,138.1Z" style="fill:#6b8a00"/><path d="M22.7,85.1a1.8,1.8,0,0,1,1,.4,36.2,36.2,0,0,1,3.2,2.2l2.5,2.2A25.5,25.5,0,0,1,33.5,95a23.5,23.5,0,0,0,1.9,2.5,10.9,10.9,0,0,0,1.8,1.9c.9.7,1.6,1.6,2.6,2.3l2.3,2,3.7,3.7a36.1,36.1,0,0,1,2.5,3c-.1.3-.3.3-.5.2l-3-.8a38.2,38.2,0,0,1-5.4-2.6,37.2,37.2,0,0,1-4.8-2.7,6.9,6.9,0,0,0-3.6-1.3,3,3,0,0,1-.4-1,33.8,33.8,0,0,0-4.1-8.3c-.1-.1-.1-.3-.2-.4A13.8,13.8,0,0,1,24,88.2,16.9,16.9,0,0,0,22.7,85.1Z" style="fill:#577824"/><path d="M138.9,132.1a1.2,1.2,0,0,0-.8.2,24.3,24.3,0,0,1-3.8,1.3,32.2,32.2,0,0,0-4.4,1.4,26.4,26.4,0,0,1-4,1.2l-8,2.2-4.9,1a25.7,25.7,0,0,0-5.4,1.6,15.8,15.8,0,0,1-3.7,1.1l-2.7.5c-.2,0-.5.3-.6,0s.3-.3.5-.4l3.9-2.4c2.1-1.3,4.1-2.6,6.3-3.7l2.7-1.4,1.1-.5h.4a12.4,12.4,0,0,1,3.3-1.5l6.3-2.3a5.8,5.8,0,0,1,3.2-.2,7.7,7.7,0,0,0,2.6.3h.8a5.7,5.7,0,0,0,2.6,0h.5a10.4,10.4,0,0,0,3.9-.7c.3,0,.5-.2.8-.1a.6.6,0,0,1,.5.2A16.3,16.3,0,0,1,138.9,132.1Z" style="fill:#365511"/><path d="M56.5,38.1l-1.8-5.8c-.9-2.7-1.4-5.5-2.2-8.3s-.9-3.6-1.4-5.5-.7-1.9-1.1-2.8a53.6,53.6,0,0,0-2.8-5.3L45.4,7.7l-.3-.6c-.1-.2.1-.4.3-.5h.9a27.8,27.8,0,0,0,4.9.8,6.8,6.8,0,0,1,4.1,1.9,2,2,0,0,0,1.3.8c-.4.1-.8.1-.8.5l-.3,1.7a8.9,8.9,0,0,0,.6,3.9c.3.9.5,1.8.9,2.7s.1,1.9.4,2.8V22c-.3.6-.1,1.3-.2,2a3.4,3.4,0,0,1-.1,1,4.8,4.8,0,0,0,0,1.7,2.2,2.2,0,0,1,.1.8,16.5,16.5,0,0,0,.4,3.1,17.9,17.9,0,0,1,.2,2.3,8.2,8.2,0,0,1-.9,4.1C56.8,37.4,56.6,37.7,56.5,38.1Z" style="fill:#6b8a00"/><path d="M118.7,89.4c-.2,0-.4,0-.5.2l-1.4,2.1c-.6,1-1.3,1.9-2,2.9s-2.9,3.8-4.4,5.6l-.6.7-2.1,2.1a13.7,13.7,0,0,1-2.3,1.9h-.2l-2.2,2-3.7,3.4-3.6,2.9-3,2.2-.5.4a1.4,1.4,0,0,0-.5,1.3,11.4,11.4,0,0,0-2.2,2.2l-1.6,1.7a1.5,1.5,0,0,1-.7.3l-1.6.3a5,5,0,0,0-1.7.2c-.2,0-.4.1-.6-.1s.1-.4.2-.5a.8.8,0,0,1,.2-.5,49.1,49.1,0,0,1,2.8-5,11.4,11.4,0,0,0,1.5-3.6,21.7,21.7,0,0,1,3.2-6.7.7.7,0,0,1,.2.6,19.7,19.7,0,0,1-.5,5.9.7.7,0,0,0-.1.5h.4a5.9,5.9,0,0,1,.4-.8l3.2-6.3,1.1-2.7a24.6,24.6,0,0,1,2.5-4.5c.4-.7,1-1.3,1.4-1.9a3.7,3.7,0,0,0,.8-2.2,10.7,10.7,0,0,0-.7-3.9.7.7,0,0,0-.4-.7c.2-.3.3-.7.7-.9a14.2,14.2,0,0,0,.7,2.2,6.1,6.1,0,0,1,.3,2.3c0,.3-.1.8.2.9s.5-.4.7-.6l.5-.6c.8-.8,1.5-1.8,2.3-2.6s2.7-2.8,4.1-4.1.3-.4.5-.5,1.8-1.7,2.8-2.5a18,18,0,0,0,2.9-2.6l.4-.3a6,6,0,0,0,1.8-2.1,3.6,3.6,0,0,0,.2-1.1,14.1,14.1,0,0,0-.3-2.8,10.2,10.2,0,0,1-.3-3,1.1,1.1,0,0,1,.8-.7c-.1.6-.3,1.1,0,1.6s0,.4,0,.6A5,5,0,0,0,118,74c.2.9.3,1.9.5,2.9s-.1.3.2.4l1.6-1.3.6-.5,2.7-1.8c1.5-1,2.6-2.5,4-3.6l3-2.5a60.6,60.6,0,0,1,6.6-3.6l2-1.1c.2-.1.2-.2-.1-.5h.8c.5,0,.6.3.5.7a.8.8,0,0,1-.2.5l-.3-.2-.5.3a49.5,49.5,0,0,1-4.6,2.4,25,25,0,0,0-3.5,2.1,29.2,29.2,0,0,0-2.8,2.1l-3,2.8a24.3,24.3,0,0,1-3.2,2.4,21.6,21.6,0,0,0-3.3,2.7l-1.4,1.4-1.9,1.6c-.5.6-1.1,1.1-1.7,1.7l-2.4,2.1c-2.2,1.9-4.3,4-6.4,6.1a26.5,26.5,0,0,0-2.1,2.6c-1,1.1-2,2.3-2.9,3.5a21.1,21.1,0,0,0-2.6,4c-.9,2-1.8,4-2.8,5.9l-3.2,6.6a2.8,2.8,0,0,0-.4,1.5c.1.3.3.4.5.2l1.7-1.2,2.9-2.2,2-1.6A29.8,29.8,0,0,1,101,108l.5-.6c1.1-1,2.2-2,3.4-2.9l2-1.7c.1-.2.3-.3.5-.5a3.4,3.4,0,0,0,1.2-1.2l.5-.6a23.4,23.4,0,0,0,2.5-3l2.1-2.6,1.6-2.3c.6-.9,1.3-1.8,1.9-2.8a8.7,8.7,0,0,1,2-2.3.5.5,0,0,1,.5-.3,3.4,3.4,0,0,1-.8,1.7c-.2.1-.2.3-.2.5Z" style="fill:#6b8a00"/><path d="M76.5,31.5a1.3,1.3,0,0,0,.4.9,7.9,7.9,0,0,1,1.4,1.8c.3.5.3.7-.1,1.1A11.8,11.8,0,0,0,75.8,39a5.3,5.3,0,0,1-1.1,1.5l-.8.5a4.2,4.2,0,0,1-2.2.5c-1.3.4-2.6.1-3.8.4H66.6c-.9.1-1,.1-.6-.8s.9-2.4,1.3-3.6a16.3,16.3,0,0,0,.8-4.3,21.7,21.7,0,0,0-.7-5.7,10.7,10.7,0,0,1-.6-3.1,20,20,0,0,0-.5-2.6,12.2,12.2,0,0,1-.1-2.7,9.1,9.1,0,0,1,2.3,2.1,15.7,15.7,0,0,1,2,3,30.5,30.5,0,0,0,5.4,7C76.1,31.5,76.2,31.7,76.5,31.5Z" style="fill:#6b8a00"/><path d="M30.6,85.5a13.7,13.7,0,0,0,3.5-.1,10.9,10.9,0,0,1,3.6,0,19.6,19.6,0,0,0,6.4-.1c1.8-.4,3.6-.7,5.3-1.2a13.5,13.5,0,0,1,4-.3c.5.1.7.4,1,.8l.5.6c.9.9,1.5,1.9,2.4,2.7a1.8,1.8,0,0,1,.6,1.3l-3.6.8-5.9,1-1.9.3a30.2,30.2,0,0,1-4.3.2h-.5a4.5,4.5,0,0,1-2,0h-.8l-1.7-.2a22.9,22.9,0,0,1-2.3-1l-1.8-1.5-2.5-2.6a1.2,1.2,0,0,1-.5-.5C30.3,85.5,30.4,85.6,30.6,85.5Z" style="fill:#395612"/><path d="M86.8,153.8c.4,0,.6-.3.8-.5l3.4-3.4,2.2-1.9,1.6-1.3,3-2.3a7.1,7.1,0,0,1,1.8-.8l3.9-.7a4.1,4.1,0,0,0,1.6-.3,1.1,1.1,0,0,1,1.1.3l.5.5a5.2,5.2,0,0,0,1.8,1.2h3.6a7.1,7.1,0,0,0,2.9-.5,12.9,12.9,0,0,1,5.1-.7l-3.5,2.3a14.3,14.3,0,0,1-4.9,1.7,36.7,36.7,0,0,0-8,2.3h-.3a5.3,5.3,0,0,0-2.5.5,22.2,22.2,0,0,1-3.7.9,40.3,40.3,0,0,0-4.6,1.4l-2.5,1a6.6,6.6,0,0,1-3.1.6C86.8,154.1,86.8,154,86.8,153.8Z" style="fill:#385610"/><path d="M48.5,127.2a7.6,7.6,0,0,1,.8,1.1l.6.6a1.5,1.5,0,0,1,.3.7h0a3.4,3.4,0,0,1-1.4-.9c-1.8-1.3-3.5-2.7-5.2-4.1s-3.5-2.6-5.3-4l-2.5-1.9a15.1,15.1,0,0,0-2.6-1.8l-.9-.6c-1.1-1.1-2.2-2.2-3.4-3.2l-1.5-1.2a11.7,11.7,0,0,1-2.4-2.1c-.4-.3-.5-.8-.8-1.3a9.8,9.8,0,0,1-1.4-3.7c-.1-.5-.3-1-.4-1.5s.2-.3.4-.4a45.4,45.4,0,0,1,5.3,1.2l2.9,1c.2.1.4.3.7.2a5,5,0,0,0,.5,1.3,33.4,33.4,0,0,0,3.5,7.4c.6.9,1.3,1.7,2,2.6s2.8,2.8,4.1,4.3,2.2,1.9,3.3,3l3,3.1Z" style="fill:#385610"/><path d="M7.2,105.9a.5.5,0,0,1,.6-.1l2.8.4a55.8,55.8,0,0,1,5.9,1l2.3.8a35.5,35.5,0,0,1,5.3,3.2l2.3,1.9,1.7,1.3c1.7,1.3,3.6,2.5,5.5,3.7a26.3,26.3,0,0,1,3.9,2.9l2.8,2.1,4.5,3.5,4.8,3.6,2.5,1.8a4.5,4.5,0,0,1,1.5,2.1,42.8,42.8,0,0,0-7.5-4.3,66.8,66.8,0,0,1-11.9-7.6l-7.3-5.6-1.4-.9c0-.1-.2-.3-.3-.4l-2.5-1.6a42.5,42.5,0,0,0-9.4-5.6Z" style="fill:#395612"/><path d="M96.8,162.7a35.4,35.4,0,0,0-3.9,1.4.9.9,0,0,0-.5.3,3,3,0,0,0-1.4.6,32.5,32.5,0,0,0-4.2,3.1,7.5,7.5,0,0,0-1.5,1.6L83.7,171a1.8,1.8,0,0,1-.9.4l1.2-1.7c.2-.3.6-.5.7-1h.1l.3-.2c.5-.9,1.1-1.7,1.7-2.6a12,12,0,0,0,1.9-4.5c.1-.5.3-1.1.4-1.6s.1-.7-.2-.9a5,5,0,0,0-.7-2.7l-.6-.9c.1-.2.1-.4.3-.4a15.4,15.4,0,0,0,4.7-1.6l2-.7,4.8-1.1c.2-.1.4,0,.6.2l-2,1.1a23.5,23.5,0,0,0-5.3,4.1l-.2.3h.3a7.6,7.6,0,0,1,4.7-.1l4.2.8c1,.1,1.1.6.5,1.4a7.5,7.5,0,0,1-1.7,1.4A14.8,14.8,0,0,1,96.8,162.7Z" style="fill:#395612"/><path d="M56.9,139.3a1.2,1.2,0,0,0,.7.5,47.1,47.1,0,0,0,8.1,3.2c3.3.9,6.6,1.9,9.8,3l1.7.6,2.7,1.3.6.2a2.4,2.4,0,0,0,.8.6,13.9,13.9,0,0,1,1.9,1.5c-.1.1-.3.2-.4.1a21,21,0,0,0-5.1-2.1,7.8,7.8,0,0,0-2.1-.4H66.8c-.4-.3-.8-.2-1.2-.3a19.4,19.4,0,0,1-5.7-3,14.9,14.9,0,0,0-3.1-2,3.5,3.5,0,0,0-1.7-.4h-.7l-.2-.2a10.1,10.1,0,0,0-2.5-1.7,21.6,21.6,0,0,1-3.5-2.4l-1.4-1.5a9.7,9.7,0,0,0-2.9-2.8c-.2-.1-.3-.2-.2-.4s.2-.3.4-.3a2.1,2.1,0,0,1,1.1.1,14.9,14.9,0,0,1,3.6,1.7l4.5,2.9,2.9,1.8Z" style="fill:#9dc529"/><path d="M44.9,95.7a17.6,17.6,0,0,0,.7,3.3,5.9,5.9,0,0,1,0,2.3,22,22,0,0,0-.5,3.7.2.2,0,0,1-.2.2c-.1,0-.2,0-.2-.1s-1.2-1-1.8-1.6a12.9,12.9,0,0,0-1.7-1.6,26.2,26.2,0,0,1-2.5-2.2c-.5-.5-1.1-.9-1.5-1.4a24.4,24.4,0,0,1-3.2-4,31.8,31.8,0,0,0-5.1-5.9,37.4,37.4,0,0,0-5.4-3.9l-.5-.3a.4.4,0,0,1-.1-.3h.3a12.7,12.7,0,0,1,3.4.5,2.5,2.5,0,0,1,1.1.4,1.3,1.3,0,0,0,.9,1,4.1,4.1,0,0,1,1.1.7c1.6,1.5,3,3.2,4.7,4.6A11.3,11.3,0,0,0,37,92.6l2.5,1.1,2.2.7.9.3A9.4,9.4,0,0,1,44.9,95.7Z" style="fill:#577824"/><path d="M54.9,143.2c.2.2.5.3.6.5,1.6,2.2,3.4,4.3,4.8,6.6a20.2,20.2,0,0,1,1.8,3.2,33.7,33.7,0,0,0,2.1,3.1l.9.9a17.7,17.7,0,0,1,2.8,2.7,6,6,0,0,1,1.4,2,14.6,14.6,0,0,1,.7,1.9,2.3,2.3,0,0,1,.1,1.4c-.3,1.5-.8,2.9-1.2,4.4v.2l-.2.2a.2.2,0,0,1-.2-.2A3.7,3.7,0,0,1,68,169a8.4,8.4,0,0,0-1.1-2.1,6.7,6.7,0,0,0-.9-1.4,8.7,8.7,0,0,1-.7-1.7,6.5,6.5,0,0,0-1.9-3.2c-1.1-1.3-2.4-2.5-3.6-3.7h-.3l-.6-1.1a26.9,26.9,0,0,0-1.9-3.8,16.2,16.2,0,0,1-1-1.8,8.4,8.4,0,0,1-1.1-4.1A13.1,13.1,0,0,0,54.9,143.2Z" style="fill:#8fa129"/><path d="M121.2,142.7l-.5-.2a9.3,9.3,0,0,0-2.3.2H118a7.5,7.5,0,0,0-2.6.5,7.9,7.9,0,0,1-3.4.6h-1.1a3.6,3.6,0,0,1-3.6-.9c-.6-.6-.7-.8.3-1.1l1.2-.6,4.2-1.2a50,50,0,0,0,6.7-1.5l4.6-1.2a55.4,55.4,0,0,0,5.8-1.7l.7-.3,2-.7a30.6,30.6,0,0,0,4.9-1.5h.7a9.2,9.2,0,0,1-2.3,2.5,6.1,6.1,0,0,1-2.2,1.3l-2.1.6a23.6,23.6,0,0,0-5.2,2.1c-1.6.9-3.1,1.9-4.7,2.7Z" style="fill:#395612"/><path d="M139.1,62.4c.3.3.3.4.1.5l-2,1.1a60.6,60.6,0,0,0-6.6,3.6l-3,2.5c-1.4,1.1-2.5,2.6-4,3.6l-2.7,1.8-.6.5-1.6,1.3c-.3-.1-.2-.3-.2-.4s-.3-2-.5-2.9a5,5,0,0,1-.2-1.2c0-.2.1-.4,0-.6s-.1-1,0-1.6l.3-.4c1.2-.7,2.2-1.5,3.4-2.1a18.4,18.4,0,0,1,3.6-1.5,25.5,25.5,0,0,0,4.8-2l1.2-.7.8-.3A60.1,60.1,0,0,0,139.1,62.4Z" style="fill:#577824"/><path d="M67.4,65.3l.4.3c.2.2.5.2.5.6l-.7.8a8.5,8.5,0,0,1-3.3,3.5A23.4,23.4,0,0,1,61.6,72c-.3.1-.4,0-.5-.3s-1.3-3.5-1.9-5.3A11.4,11.4,0,0,0,57.3,63a30.4,30.4,0,0,0-2.8-3.3,13.3,13.3,0,0,1-2.4-3.3l-.3-.7A22.5,22.5,0,0,1,58,58.8l4.3,3a1.4,1.4,0,0,0,1.1.4c.1.6.7.9,1.2,1.1Z" style="fill:#8fa129"/><path d="M57.9,89.2a1.8,1.8,0,0,0-.6-1.3c-.9-.8-1.5-1.8-2.4-2.7l-.5-.6c-.3-.4-.5-.7-1-.8s-.1-.3-.3-.5l-1-1.1h-.3c-.1,0-.1,0-.1-.1h-.4a4.6,4.6,0,0,0-1.1-1.6l-2-2.5c-.4-.5-1-.8-1.4-1.3s-3-2.3-4.5-3.5h-.5v-.3a4.8,4.8,0,0,0-1.7-1h0A2.8,2.8,0,0,0,38.3,70h0a1.2,1.2,0,0,0-.5-.5,25,25,0,0,0-5.5-3.1A29.2,29.2,0,0,0,28.5,65l-7.4-2.2c-.3-.1-.6-.3-.9-.2a10.9,10.9,0,0,1-3.6-2.8,2.6,2.6,0,0,1,1.2.5A16.2,16.2,0,0,0,21.3,62c2.4.8,4.8,1.4,7.2,2.1l3.2,1.1,2.3,1a15.5,15.5,0,0,1,3.5,2.1c.9.7,2,1.3,3,2L43,72c.4.3.7.7,1.2.8h0c0-.2,0-.3-.1-.4a19.6,19.6,0,0,0-2-3c-.2-.2-.5-.4-.6-.7a3.4,3.4,0,0,0-.9-.8l-.7-.6-2.1-2.6a14.5,14.5,0,0,0-3.6-3.4l-5.3-3.4a36.8,36.8,0,0,1-3.8-3.1c-1.2-1-2.4-2.2-3.7-3.1l-2.6-1.5a21.8,21.8,0,0,1-4.7-4.4l-.7-.8a1.2,1.2,0,0,0-.9-.3.7.7,0,0,1,.6-.2h1.6v.2c-.2,0-.4.1-.2.3l1.6,1.8a15.7,15.7,0,0,0,4,3.2,16.4,16.4,0,0,1,2.2,1.4c1.7,1.1,2.9,2.6,4.5,3.8a13.9,13.9,0,0,0,1.9,1.5c2.1,1.4,4.4,2.8,6.5,4.3.2.1.3.3.6.2a5.8,5.8,0,0,1,1-1.2,8.6,8.6,0,0,0,2-3.9,1.3,1.3,0,0,0,.1-.6v-4c.3.3.8.1,1.1.4a.8.8,0,0,0-.2.7,14.7,14.7,0,0,0,0,2.1,6.7,6.7,0,0,1-.7,3.1,4.7,4.7,0,0,0-.5,1,7.1,7.1,0,0,1-1,1.4,3,3,0,0,0-.9,1.3c-.2.3-.1.5.1.8a10.7,10.7,0,0,1,1.4,1.6l.8,1a26.2,26.2,0,0,0,2.8,3,18.2,18.2,0,0,1,3.4,4.8,2.5,2.5,0,0,1,.4.7,5.2,5.2,0,0,0,1.8,2.1,18.9,18.9,0,0,1,2,2l2.9,3.7a24.1,24.1,0,0,0,3.4,3.7A14.2,14.2,0,0,0,57,86.1a11.3,11.3,0,0,1,2.3,2.6c-.1.2-.3.2-.5.2A1.6,1.6,0,0,0,57.9,89.2Z" style="fill:#577824"/><path d="M7.2,105.9l6.1,2.2a42.5,42.5,0,0,1,9.4,5.6l2.5,1.6c.1.1.3.3.3.4h-.3a18.3,18.3,0,0,0-7.6-1.7,23,23,0,0,1-3.7-.2,15.8,15.8,0,0,1-4.3-1,7.8,7.8,0,0,1-4.1-3.5L4,106.2c-.3-.6-.5-1.2-.8-1.7a4.4,4.4,0,0,1,2.2.7Z" style="fill:#577824"/><path d="M118.9,88.9a3.4,3.4,0,0,0,.8-1.7c.4-.2.4-.6.7-.9a26.9,26.9,0,0,1,2-2.7c.6-.8,1.3-1.4,1.9-2.1a13.7,13.7,0,0,1,2.3-1.9,10.7,10.7,0,0,1,1.6-1.4l2.4-1.8,3.1-2.2L136,72a12.5,12.5,0,0,0,2.1-3c.4-.7.6-1.5,1-2.2a.5.5,0,0,1,.2-.4,5.8,5.8,0,0,1-.3,2.3,21.3,21.3,0,0,1-4.9,9.4,36.6,36.6,0,0,1-9.3,7.3l-1.8,1a22.6,22.6,0,0,0-3.5,2.8l-.4.4-.4.2v-.4h0A.8.8,0,0,0,118.9,88.9Z" style="fill:#8fa129"/><path d="M144.8,43.4l1.3.2-.4.3-6.2,3.3a26.9,26.9,0,0,0-2.9,1.6c-1.4,1-2.8,2-4.3,2.9L130.4,53a24.4,24.4,0,0,0-4,3.2c-1.2,1.2-2.5,2.4-3.7,3.8a33.4,33.4,0,0,1-3.2,3.3l-2.3,2.1a21.1,21.1,0,0,0-3.1,3.6c-1.3,1.7-2.6,3.3-3.8,5s-2.8,3.5-4.2,5.3A112,112,0,0,0,99.3,89a2.4,2.4,0,0,0-.2.8h0l-.2.2h0c-.2.1-.2.2-.2.4h0l-.2.2h0c-.2.1-.2.3-.3.5s-1.1,1.8-1.7,2.7l-.6.8c-.1.3-.4.3-.6.3a74.5,74.5,0,0,1,4.9-8.7c1.2-1.8,2.4-3.6,3.7-5.3l3.8-4.8a10.9,10.9,0,0,0,1.3-1.7,1.6,1.6,0,0,0,.2-1.5,7.2,7.2,0,0,0-1.2-2.1,7.6,7.6,0,0,0-.8-1.1,7.4,7.4,0,0,1-1.9-5.3,5.3,5.3,0,0,1,.4-2.8,9.6,9.6,0,0,1,1.2-2,5.5,5.5,0,0,0,.9-1.9,11.4,11.4,0,0,0,.2-2.6,4.9,4.9,0,0,1,.1-1.2l.6-.5c0,.1.1.2.1.3a5.4,5.4,0,0,1,0,1.8,3.4,3.4,0,0,0-.1,1,12,12,0,0,1-.3,2,3.9,3.9,0,0,1-.8,1.4,6.2,6.2,0,0,0-1.3,2.4,1.4,1.4,0,0,0-.2.6,24.3,24.3,0,0,0,0,2.7,7,7,0,0,0,1.5,3.4l1.2,1.5a6.3,6.3,0,0,1,1,2,.3.3,0,0,0,.3.3c.2,0,.3-.1.4-.3l1.2-1.6,3.3-4.3.9-1a33.1,33.1,0,0,1,2.7-2.6,21.6,21.6,0,0,0,2.7-2.5,59,59,0,0,1,4.9-5.1,23.8,23.8,0,0,1,5.1-3.9l4.5-3,2.7-1.7,2.3-1.2,3.4-1.7.2-.3C144.6,43.6,144.7,43.6,144.8,43.4Z" style="fill:#577824"/><path d="M57,151.9a26.9,26.9,0,0,1,1.9,3.8l.6,1.1a4.4,4.4,0,0,0,.7,1.9l.2.2h0a1.7,1.7,0,0,0,.3,1,7.6,7.6,0,0,1,.6,1.6c-.2.1-.2.2-.3.4a12.2,12.2,0,0,1-.7,1.7c-.3.4-.4.5-.8.1l-.6-.8a15.4,15.4,0,0,0-2.6-2.5l-1.8-1a1.3,1.3,0,0,1-.7-1.2v-1.4a3.8,3.8,0,0,0-1.6-3.1,22.8,22.8,0,0,1-2.2-2.2,3,3,0,0,1,1.3-.2,14.6,14.6,0,0,1,5.5.6Z" style="fill:#395612"/><path d="M140.6,128.9a1.3,1.3,0,0,0-1.2-.1l-1.5.4a15.1,15.1,0,0,1-3.7.6,7.4,7.4,0,0,0-2.1,0,18.4,18.4,0,0,1-4.1-.5c.1-.3.3-.3.5-.4l3.7-1.6c2.2-1,4.5-2,6.6-3.2a30.2,30.2,0,0,1,3.6-1.8,2.3,2.3,0,0,1,1.6-.4c.2.6.3,1.2.5,1.8a2.6,2.6,0,0,1-.8,2.4,1.2,1.2,0,0,1-.5.5Z" style="fill:#385610"/><path d="M114.8,109.3v.4a9.5,9.5,0,0,0,.5,3.3,3.7,3.7,0,0,1,.4,1.5.9.9,0,0,1-.4.8l-1.4,1.1a16.7,16.7,0,0,0-3.3,3.2l-.7.7c-.4-.4-.4-.8-.6-1.2s-.1-.6-.2-.9a7.9,7.9,0,0,1-.8-3.1,5.4,5.4,0,0,1,0-1.8,5,5,0,0,0,.2-1.2,2.2,2.2,0,0,1,.4-1.6,3.1,3.1,0,0,1,1.3-.3l3.8-.7Z" style="fill:#385610"/><path d="M21.8,102.8a.3.3,0,0,0-.3.3l.3.7a1,1,0,0,1,0,.9h-.2a42.5,42.5,0,0,1-4.3-2.1,1.2,1.2,0,0,0-1.2-.2,1.6,1.6,0,0,0,.9.9l2.7,1.3,1.3.7a1.9,1.9,0,0,1,1.3,1.3,7.5,7.5,0,0,0,.7,1.2,6.1,6.1,0,0,0,.7,1.4,1.1,1.1,0,0,1,.3.8h0a1.9,1.9,0,0,1-1-.5,22.7,22.7,0,0,0-3.4-1.9,17.4,17.4,0,0,0-3.8-1.4l-3.3-.5-2.3-.3-2.8-.5-3-.7-.2-.2H5.6a15.6,15.6,0,0,0,5.6-.9,13,13,0,0,1,3.4-.8,14.8,14.8,0,0,1,4.2-.1A10.7,10.7,0,0,1,21.8,102.8Z" style="fill:#395612"/><path d="M49.3,163.1a.6.6,0,0,0-.1-.4c-.2-.2-.4-.5-.7-.6a6.9,6.9,0,0,0-2.8-1.5l-1.1-.4a8.1,8.1,0,0,1-5-4.4l-1.1-2.7a.4.4,0,0,1,.1-.5h.5l1.5,1h-.2c-.1.1,0,.2.1.2l.6.3,2.8,1a9.2,9.2,0,0,1,3.2,1.8.5.5,0,0,0,.5.3,2.3,2.3,0,0,0,.9,1.1l.2.2h0a14,14,0,0,0,.9,1.7l.4.2a2.8,2.8,0,0,0,.4,1.5,12.3,12.3,0,0,0,2.3,3.3l.3.3a.8.8,0,0,1-.7-.2l-1.4-1.1A4.6,4.6,0,0,0,49.3,163.1Z" style="fill:#577824"/><path d="M51.8,55.7l.3.7a13.3,13.3,0,0,0,2.4,3.3A30.4,30.4,0,0,1,57.3,63a11.4,11.4,0,0,1,1.9,3.4c.6,1.8,1.2,3.5,1.9,5.3s.2.4.5.3a23.4,23.4,0,0,0,2.7-1.5A8.5,8.5,0,0,0,67.6,67l.7-.8a.4.4,0,0,1,.4.4,3.3,3.3,0,0,1-.7,1.3,9.4,9.4,0,0,1-2.7,2.9,11.5,11.5,0,0,1-2.7,1.4c-1.1.5-1,.8-.9,1.8v.3a23.1,23.1,0,0,1,.5,4.6v2.7l2.1-.7,1.3-.3a10.9,10.9,0,0,0,4.7-.8A5,5,0,0,0,72.7,78,7,7,0,0,0,74,75.6a9.8,9.8,0,0,1,1.3-2.2h.8l-.2.7a2.4,2.4,0,0,0-1,1.4c-.3.8-.7,1.5-1,2.2a5.7,5.7,0,0,1-2.6,2.5,15.7,15.7,0,0,1-2.3.9c-1.1.3-2.2,0-3.2.4a5.4,5.4,0,0,0-2.5.6,1.4,1.4,0,0,0-1.2,1.4,15.2,15.2,0,0,1-.3,2.1,13.1,13.1,0,0,0-.6,2.7,1.1,1.1,0,0,1-.8.2V88c.4-1.4.6-2.9,1-4.3s.1-.7.1-1a9.7,9.7,0,0,1,.1-1.7,5.4,5.4,0,0,0,0-1.8,3.7,3.7,0,0,1-.1-1.1,23.5,23.5,0,0,0-1.4-7c-.5-1.2-1-2.4-1.4-3.6a12.7,12.7,0,0,0-2.9-5.2L53.7,60a17.7,17.7,0,0,1-2.8-4.3c-.1-.2,0-.3.2-.4Z" style="fill:#577824"/><path d="M56.5,38.1c.1-.4.3-.7.4-1.1a8.2,8.2,0,0,0,.9-4.1,17.9,17.9,0,0,0-.2-2.3,16.5,16.5,0,0,1-.4-3.1,2.2,2.2,0,0,0-.1-.8,4.8,4.8,0,0,1,0-1.7,3.4,3.4,0,0,0,.1-1c.1-.7-.1-1.4.2-2v-.2c-.3-.9-.1-1.9-.4-2.8s-.6-1.8-.9-2.7a8.9,8.9,0,0,1-.6-3.9l.3-1.7c0-.4.4-.4.8-.5a7,7,0,0,1,3.5,1.2,10.5,10.5,0,0,1,2.4,2.3,14.3,14.3,0,0,1,2.7,4.6A5,5,0,0,1,63.3,17l-3.2-2.3a26.5,26.5,0,0,1-2.9-2.9l-.2-.3c-.1-.1-.4-.1-.4.1a6.7,6.7,0,0,0,.1,3.7,24.7,24.7,0,0,0,1,2.9,10.6,10.6,0,0,1,.5,5c-.1,1.4-.1,2.7-.1,4a9.3,9.3,0,0,0,.2,2.4,14.4,14.4,0,0,1,.4,4.6,6.9,6.9,0,0,1-1.5,4.1,1,1,0,0,0-.4.5C56.6,38.6,56.6,38.3,56.5,38.1Z" style="fill:#395612"/><path d="M77.6,28.3a2.8,2.8,0,0,1,.4-1.2c.9-2.1,1.8-4.2,2.8-6.2A27.2,27.2,0,0,1,84,15.8l-1.2,5.6a16.4,16.4,0,0,0-.5,4.5V27a2.2,2.2,0,0,1-.1.8,5.7,5.7,0,0,0-.1,1.3v2.1a5,5,0,0,1-.2,1.2c-.1.3,0,.7-.1,1.2l-2.2-1.9-.2-.2a15.6,15.6,0,0,1-1.6-2.8A.5.5,0,0,0,77.6,28.3Z" style="fill:#395612"/><path d="M97,5.2a2.9,2.9,0,0,1-.3,1.6,30,30,0,0,1-1.6,4.8,20.3,20.3,0,0,0-1.7,4.9,23.3,23.3,0,0,0-.7,2.5,2.5,2.5,0,0,0-.2,1.2v3.3a8.2,8.2,0,0,1,.2,2.7,6.8,6.8,0,0,0,.2,2c.1.2,0,.5,0,.7v2.9a3.4,3.4,0,0,0,.2,1.4v.3a15.5,15.5,0,0,0,.3,3.1,9.1,9.1,0,0,0,.5,2.6,51.8,51.8,0,0,1,2.5-9c.7-2,1.6-4,2.4-6.1a1.6,1.6,0,0,1,.5-.9.8.8,0,0,1,.2.9,4.4,4.4,0,0,0-.2,1,.9.9,0,0,0-.3.6,81.8,81.8,0,0,0-3.2,8.7c-.4,1.1-.6,2.2-.9,3.3s-.2.6.2.8l-1.3,1.7c-.1.2-.2.2-.4.3s-.4-1.7-.5-2.5a12.6,12.6,0,0,1-.4-2.7V35a11.5,11.5,0,0,1-.2-3.2v-.4a17,17,0,0,1-.2-4.5,3.9,3.9,0,0,0-.2-1.5c-.1-.2,0-.5,0-.8a19.4,19.4,0,0,0-.2-2.4,6.9,6.9,0,0,1,.3-3.5,2.8,2.8,0,0,1,.1-.9,1.7,1.7,0,0,0-.3-1.7A7.6,7.6,0,0,0,91,15a12.1,12.1,0,0,1-2-3c-.2-.4-.2-.7-.6-.9l.9-.7a1.3,1.3,0,0,0,.1.6,15.1,15.1,0,0,0,1.5,2.8l1.5,1.9c.1.1.2.2.3.1l.2-.2v-.2a20.9,20.9,0,0,1,1.3-3.5c.6-1.4,1.1-2.8,1.6-4.3a5.7,5.7,0,0,0,.3-1.8A1.5,1.5,0,0,1,97,5.2Z" style="fill:#577824"/><path d="M47.6,157.2a.5.5,0,0,1-.5-.3,9.2,9.2,0,0,0-3.2-1.8l-2.8-1-.6-.3c-.1,0-.2-.1-.1-.2h.4a1.2,1.2,0,0,0,1.5,0l6.2-1.9,1-.2c0,.1-.1.3,0,.4a10.5,10.5,0,0,0,.8,1.1l2.1,2a2,2,0,0,1,.6,1.4,6.6,6.6,0,0,0,.1,2l-.2.2h-.3a22.7,22.7,0,0,1-4.6-1.6C47.9,157,47.7,157.1,47.6,157.2Z" style="fill:#395612"/><path d="M47.6,157.2c.1-.1.3-.2.4-.1a22.7,22.7,0,0,0,4.6,1.6h.3l.2-.2a6.6,6.6,0,0,1-.1-2,2,2,0,0,0-.6-1.4l-2.1-2a10.5,10.5,0,0,1-.8-1.1c-.1-.1,0-.3,0-.4H50a22.8,22.8,0,0,0,2.2,2.2,3.8,3.8,0,0,1,1.6,3.1v1.4a1.3,1.3,0,0,0,.7,1.2l1.8,1a15.4,15.4,0,0,1,2.6,2.5l.6.8c.4.4.5.3.8-.1a12.2,12.2,0,0,0,.7-1.7c.1-.2.1-.3.3-.4s.4.7.6,1a4.7,4.7,0,0,0-1.2,1.9.5.5,0,0,0,.1.7l.7,1.2c.7.9,1.4,1.7,2,2.6l2.9,4.6,1.7,2.8c-.1.2,0,.5-.2.6s-.4-.1-.6-.3h-.1l-.2-.3h0a4.6,4.6,0,0,0-.7-1.4c-.6-1-1.2-2-1.9-3a22.6,22.6,0,0,0-1.6-2.6l-2.2-3a6.2,6.2,0,0,0-1.9-1.4l-1.3-.5a10.7,10.7,0,0,1-3.9-1.4l-2.7-1.2a.2.2,0,0,0-.4.1,2.8,2.8,0,0,1-.4-1.5l4.8,2.4a12,12,0,0,0,3.7,1h0a9.8,9.8,0,0,0-3.1-3,8.2,8.2,0,0,0-2.5-1.2l-2.6-.8a2.9,2.9,0,0,0-1.6-.3h0l-.2-.2A2.3,2.3,0,0,1,47.6,157.2Z" style="fill:#577824"/><path d="M77.6,28.3a.5.5,0,0,1,.2.4,15.6,15.6,0,0,0,1.6,2.8l.2.2,2.2,1.9c.1-.5,0-.9.1-1.2a5,5,0,0,0,.2-1.2V29.1a5.7,5.7,0,0,1,.1-1.3,2.2,2.2,0,0,0,.1-.8V25.9a16.4,16.4,0,0,1,.5-4.5L84,15.8a4.5,4.5,0,0,1,1-1.3,7.8,7.8,0,0,1-.4,2.1L83.4,22a16,16,0,0,0-.3,2.3,40.2,40.2,0,0,0-.2,4.9c0,.1.1.3,0,.4a31.7,31.7,0,0,0-.2,4.4,9.2,9.2,0,0,1-.1,1.6,8.6,8.6,0,0,0,0,3.2,6.2,6.2,0,0,1,.1,1.3v3.7a5.5,5.5,0,0,0,.2,1.8v.3a22.4,22.4,0,0,0,.7,4.4,21.7,21.7,0,0,0,2.2,6c.1.3.2.6.5.7s-.2.7-.6.7a2.5,2.5,0,0,1-.4-.7,36.6,36.6,0,0,1-2.1-5.1c-.3-1.1-.5-2.2-.7-3.3a17,17,0,0,0-.4-2.2v-.6a6.9,6.9,0,0,0-.2-2.5,2.7,2.7,0,0,1,0-.9c0-2.3-.1-4.5,0-6.8a2,2,0,0,0-.9-1.8,12.7,12.7,0,0,1-1.2-1,8.9,8.9,0,0,1-2.2-2.9.7.7,0,0,0-.4-.5A3.6,3.6,0,0,1,77.6,28.3Z" style="fill:#577824"/><path d="M96.1,5.8a5.7,5.7,0,0,1-.3,1.8c-.5,1.5-1,2.9-1.6,4.3a20.9,20.9,0,0,0-1.3,3.5v.2l-.2.2c-.1.1-.2,0-.3-.1l-1.5-1.9A15.1,15.1,0,0,1,89.4,11a1.3,1.3,0,0,1-.1-.6l.3-.3,5.6-3.8C95.5,6.1,95.7,5.8,96.1,5.8Z" style="fill:#395612"/><path d="M20.2,62.6c.3-.1.6.1.9.2L28.5,65a29.2,29.2,0,0,1,3.8,1.4,25,25,0,0,1,5.5,3.1,1.2,1.2,0,0,1,.5.5H38a34.5,34.5,0,0,0-6.3-2.5,41.9,41.9,0,0,1-6.8-2.3A32.9,32.9,0,0,1,20.7,63,1,1,0,0,1,20.2,62.6Z" style="fill:#8fa129"/><path d="M41.7,94.4l-2.2-.7L37,92.6A11.3,11.3,0,0,1,34.4,91c-1.7-1.4-3.1-3.1-4.7-4.6a4.1,4.1,0,0,0-1.1-.7,1.3,1.3,0,0,1-.9-1,7.4,7.4,0,0,1,2.9.8c-.2.1-.3,0-.5.2a1.2,1.2,0,0,0,.5.5l2.5,2.6,1.8,1.5a22.9,22.9,0,0,0,2.3,1l.7.7a12.2,12.2,0,0,0,1.9,1.2l1.5.8C41.5,94.1,41.7,94.2,41.7,94.4Z" style="fill:#6b8a00"/><path d="M100,151.7c-.2-.2-.4-.3-.6-.2l-4.8,1.1-2,.7a15.4,15.4,0,0,1-4.7,1.6c-.2,0-.2.2-.3.4a3.9,3.9,0,0,1-.6-1.1,6.6,6.6,0,0,0,3.1-.6l2.5-1a40.3,40.3,0,0,1,4.6-1.4,22.2,22.2,0,0,0,3.7-.9,5.3,5.3,0,0,1,2.5-.5Z" style="fill:#577824"/><path d="M41.8,72.4h.5c1.5,1.2,3.1,2.2,4.5,3.5s1,.8,1.4,1.3l2,2.5a4.6,4.6,0,0,1,1.1,1.6l-.5-.4c-2.8-2.8-5.6-5.5-8.6-8.1Z" style="fill:#8fa129"/><path d="M126.8,107.8a2.5,2.5,0,0,0-1.2-.1l-2.6.3c-1.6.1-3.1.4-4.7.6h-.1a4.7,4.7,0,0,1,1.7-.3l5.1-.6a19.9,19.9,0,0,1,4.9.3l.3.2h-1A9.7,9.7,0,0,0,126.8,107.8Z" style="fill:#a86d39"/><path d="M40.1,71.1a4.8,4.8,0,0,1,1.7,1v.3A5.2,5.2,0,0,1,40.1,71.1Z" style="fill:#8fa129"/><path d="M115.7,109.2h-.2a6.3,6.3,0,0,1,2.7-.6h.1Z" style="fill:#a86d39"/><path d="M38.3,70a2.8,2.8,0,0,1,1.8,1.2A7.1,7.1,0,0,1,38.3,70Z" style="fill:#8fa129"/><path d="M5.6,104H4.2a2,2,0,0,0-1.1-.2c0-.2.2-.2.4-.2Z" style="fill:#a86d39"/><path d="M118.7,89.8l.4-.2-.7.9C118.4,90.2,118.4,90,118.7,89.8Z" style="fill:#9dc529"/><path d="M42.3,153.6a1.2,1.2,0,0,1-1.5,0Z" style="fill:#a86d39"/><path d="M131.2,108.3c-.4,0-.7.1-1.1-.2A1.4,1.4,0,0,1,131.2,108.3Z" style="fill:#a86d39"/><path d="M132.9,108.7c-.3,0-.6.1-.8-.2A1.1,1.1,0,0,1,132.9,108.7Z" style="fill:#a86d39"/><path d="M132.1,108.5c-.3,0-.7.1-.9-.2A1.5,1.5,0,0,1,132.1,108.5Z" style="fill:#a86d39"/><path d="M54.4,141.9h.2v.3C54.4,142.2,54.4,142.1,54.4,141.9Z" style="fill:#8fa129"/><path d="M3.1,104.3h.1C3.1,104.4,3.1,104.4,3.1,104.3Z" style="fill:#577824"/><path d="M54.2,141.7l.2.2A.2.2,0,0,1,54.2,141.7Z" style="fill:#8fa129"/><path d="M22.5,84.9l.2.2Z" style="fill:#577824"/><polygon points="52 82.1 52.1 82.2 52 82.2 52 82.1" style="fill:#8fa129"/><path d="M51.8,81.9h0Z" style="fill:#8fa129"/><polygon points="51.6 81.7 51.7 81.8 51.6 81.8 51.6 81.7" style="fill:#8fa129"/><polygon points="51.4 81.5 51.5 81.6 51.4 81.6 51.4 81.5" style="fill:#8fa129"/><path d="M63,61.1c.1.1.2.1.1.2S63,61.2,63,61.1Z" style="fill:#8fa129"/><path d="M16.3,59.6l.3.2C16.4,59.8,16.4,59.7,16.3,59.6Z" style="fill:#577824"/><path d="M60.4,88.5a1.1,1.1,0,0,0,.8-.2h.7l1.7-.3h1.3c.3,0,.4.1.6.4l.3.6a5.2,5.2,0,0,0,1.4,1.9l2.6,2a6.1,6.1,0,0,1,2.2,3,11.1,11.1,0,0,0,1.4,2.9,5.1,5.1,0,0,1,1,3.4,8.6,8.6,0,0,0,.2,2.8c.1.1,0,.3,0,.5a12.7,12.7,0,0,0,.1,2,5.3,5.3,0,0,1-.4,1.8c-.4,1-.9,2-1.4,3.1a30,30,0,0,0-1.8,4.1c-.2,0-.2-.1-.3-.2l-2.1-3.5a30.1,30.1,0,0,0-5.1-6.2l-1.4-1.4-.5-.5-2.8-2.2L55.7,100a15.3,15.3,0,0,0-4.5-2.5l-4.6-2-2.3-1c-1.7-.7-3.3-1.5-5-2.4a.7.7,0,0,1-.4-.6h.8a4.5,4.5,0,0,0,2,0h.5a30.2,30.2,0,0,0,4.3-.2l1.9-.3,5.9-1,3.6-.8a1.6,1.6,0,0,1,.9-.3c.2,0,.4,0,.5-.2A1.4,1.4,0,0,0,60.4,88.5Z" style="fill:#6b8a00"/><path d="M95.3,94.9c.2,0,.5,0,.6-.3l.6-.8c.6-.9,1.2-1.8,1.7-2.7a.5.5,0,0,0,.3-.5h0l.2-.2h0c.2-.1.2-.2.2-.4h0l.2-.2h0l.4-.2a.7.7,0,0,1,.4.7,10.7,10.7,0,0,1,.7,3.9,3.7,3.7,0,0,1-.8,2.2c-.4.6-1,1.2-1.4,1.9a24.6,24.6,0,0,0-2.5,4.5l-1.1,2.7-3.2,6.3a5.9,5.9,0,0,0-.4.8h-.4a.7.7,0,0,1,.1-.5,19.7,19.7,0,0,0,.5-5.9.7.7,0,0,0-.2-.6v-.8c0-.2,0-.3-.2-.4a2.4,2.4,0,0,0-.2-1.5l.2-.2c.7-1.3,1.4-2.6,2.2-3.8a1.4,1.4,0,0,0,.2-.6,6.8,6.8,0,0,0-.2-1.4,25.6,25.6,0,0,0-1.1-2.4,11.8,11.8,0,0,1-.7-2,26.3,26.3,0,0,1-.6-4.9V85a1.7,1.7,0,0,1,.1-.7,5.9,5.9,0,0,0,.1-1.9c0-1,.1-2,0-3a9.8,9.8,0,0,1,.5-2.9,5.4,5.4,0,0,1,.5-1.1,7.4,7.4,0,0,0,.5-2.9V70.4a4.3,4.3,0,0,0-.2-1.1,1.1,1.1,0,0,1,.8-.8,4.9,4.9,0,0,0,.1,1.2,5.7,5.7,0,0,0,.1,1.3,9.6,9.6,0,0,1,0,2.4,14,14,0,0,1-.9,2.9,5.4,5.4,0,0,0-.5,2.8V81a10,10,0,0,1-.2,1.6,7.5,7.5,0,0,0,0,1.5,19.4,19.4,0,0,1-.2,2.4,2.1,2.1,0,0,0,0,1.1c.1.5.1,1.1.2,1.6a13.1,13.1,0,0,0,1.2,5.1,10.7,10.7,0,0,1,1,2.2c.1.4.1.4.5.1s.4-.1.4-.7h0c.5-.2.5-.2.5-.7Z" style="fill:#577824"/><path d="M94.8,95.9c0,.6,0,.6-.4.7A1,1,0,0,1,94.8,95.9Z" style="fill:#577824"/><path d="M95.3,95.3c0,.5,0,.5-.5.7A.7.7,0,0,1,95.3,95.3Z" style="fill:#577824"/><path d="M117,71.3a10.2,10.2,0,0,0,.3,3,14.1,14.1,0,0,1,.3,2.8,3.6,3.6,0,0,1-.2,1.1,6,6,0,0,1-1.8,2.1l-.4.3a18,18,0,0,1-2.9,2.6c-1,.8-1.8,1.8-2.8,2.5s-.3.3-.5.5-2.8,2.7-4.1,4.1-1.5,1.8-2.3,2.6l-.5.6c-.2.2-.3.8-.7.6s-.2-.6-.2-.9a6.1,6.1,0,0,0-.3-2.3,14.2,14.2,0,0,1-.7-2.2c.2-.7.8-1.1,1.2-1.7l2.7-3.5a20.9,20.9,0,0,0,2-2.2c1.6-1.9,3.5-3.6,5.3-5.4a34.8,34.8,0,0,1,2.8-2.4l1.8-1.6A3.3,3.3,0,0,1,117,71.3Z" style="fill:#577824"/><path d="M38.9,51.5v4a1.3,1.3,0,0,1-.1.6,8.6,8.6,0,0,1-2,3.9,5.8,5.8,0,0,0-1,1.2c-.3.1-.4-.1-.6-.2-2.1-1.5-4.4-2.9-6.5-4.3a13.9,13.9,0,0,1-1.9-1.5c-1.6-1.2-2.8-2.7-4.5-3.8A16.4,16.4,0,0,0,20.1,50a15.7,15.7,0,0,1-4-3.2L14.5,45c-.2-.2,0-.3.2-.3h.8a10.3,10.3,0,0,1,3,1.4l.5.3a18.8,18.8,0,0,0,8.5,3.2l3.6.5a32.8,32.8,0,0,1,7.6,1.4Z" style="fill:#8fa129"/><path d="M15.5,44.7h-.8v-.2C15,44.5,15.3,44.4,15.5,44.7Z" style="fill:#577824"/><path d="M92.3,69.3a4.3,4.3,0,0,1,.2,1.1v2.1a7.4,7.4,0,0,1-.5,2.9,5.4,5.4,0,0,0-.5,1.1,9.8,9.8,0,0,0-.5,2.9c.1,1,0,2,0,3a5.9,5.9,0,0,1-.1,1.9,1.7,1.7,0,0,0-.1.7v2.5a26.3,26.3,0,0,0,.6,4.9,11.8,11.8,0,0,0,.7,2,25.6,25.6,0,0,1,1.1,2.4,6.8,6.8,0,0,1,.2,1.4,1.4,1.4,0,0,1-.2.6c-.8,1.2-1.5,2.5-2.2,3.8l-.2.2-.8-1.7c-.4-.8-.5-.8-1-.2l-1.7,1.6c-1.1,1.1-2.1,2.3-3.2,3.5a4.3,4.3,0,0,1-1.6,1.4,7.9,7.9,0,0,1-3.3,1.3l-3.5,1a1.4,1.4,0,0,0-1.2.9L73,113.8a11.1,11.1,0,0,0-1.3,3.6c0,.3-.1.6.1.8a16.3,16.3,0,0,1,.9,1.9c1.3,2.5,2.4,5.1,3.5,7.7.1.4.3.4.6.2l.5-.6,2.9-3a16.6,16.6,0,0,0,2.9-4.2c.8-1.5,1.6-2.9,2.5-4.3a12.7,12.7,0,0,0,1.8-4.3,13.5,13.5,0,0,1,1.8-4.1l1.8-3.2c.2.1.2.2.2.4v.8a21.7,21.7,0,0,0-3.2,6.7,11.4,11.4,0,0,1-1.5,3.6,49.1,49.1,0,0,0-2.8,5,.8.8,0,0,0-.2.5c-.1.1-.4.3-.2.5s.4.1.6.1a5,5,0,0,1,1.7-.2l1.6-.3a1.5,1.5,0,0,0,.7-.3l1.6-1.7a11.4,11.4,0,0,1,2.2-2.2,2.9,2.9,0,0,0,.2.9,5.8,5.8,0,0,0-1.8,1.7l-1.2,1.3a3.5,3.5,0,0,1-2.2,1.2,12.3,12.3,0,0,1-2.7.2,2.3,2.3,0,0,0-2.2,1.1,14.9,14.9,0,0,1-1.2,1.4,5.5,5.5,0,0,0-1.2,1.4,3.4,3.4,0,0,1-.9.8L77,128.5a1,1,0,0,0-.2.9c.4,1.2.8,2.3,1.1,3.5a.4.4,0,0,0,.6.1l1-1a10.9,10.9,0,0,1,4.4-2.9l2.1-1.2,1.6-1.2c.8-.7,1.9-.8,2.7-1.4l.9-.2a.8.8,0,0,1-.2.8l-1.8.8a6.9,6.9,0,0,0-2,1.3,11.7,11.7,0,0,1-2.8,1.7,10.2,10.2,0,0,0-4.2,2.7l-1,.9a2,2,0,0,0-.9.9,2.8,2.8,0,0,0,.1.9c.2.8.3,1.7.5,2.5l.3,1.5.6,2.6c0,.2.1.4.1.7s.4,2.4.5,3.6a1.1,1.1,0,0,0,.1.5,4.3,4.3,0,0,1,0,1.6l-.6-.2-2.7-1.3a.5.5,0,0,0,.2-.4,20.2,20.2,0,0,1-.4-2.6l-.2-.2a8.6,8.6,0,0,0-.1-1.6c-.2-1.2-.3-2.3-.6-3.5a9.8,9.8,0,0,0-.8-2.8,9.2,9.2,0,0,0-1.5-4,8.1,8.1,0,0,0-2.1-2.4l-1.6-1.2a6.5,6.5,0,0,0-4.4-1.8,1.2,1.2,0,0,1-.4-1h.1l2.8.8c.1,0,.3,0,.3-.1s.1-.2.1-.3l-.2-.3a30.2,30.2,0,0,0-3.2-5.2l-1-1.4a15.6,15.6,0,0,0-1.6-2c-.4-.5-.9-.9-1.3-1.5a1.3,1.3,0,0,0-.7-.6,6.2,6.2,0,0,1-1.1-1.7c.3,0,.5,0,.6.2l3.5,3.5a10.5,10.5,0,0,1,.8,1.1c1,1.5,2.1,3,3.1,4.6a13,13,0,0,1,1,1.5,15.1,15.1,0,0,0,1.1,2.2,8.8,8.8,0,0,0,2.1,2.2l.7.6,1.2,1.2c.3.3.5.7.9.8s0-.8,0-1.2a20,20,0,0,0-.9-3.5l-2.1-6a6.6,6.6,0,0,0-2-2.7l-1.5-1a9.1,9.1,0,0,1-3.4-3.6,8.3,8.3,0,0,0-.8-1.2c-1.7-2-3.6-3.7-5.4-5.5a17.9,17.9,0,0,0-2.5-2.2,1.9,1.9,0,0,1-.2-.8h.5c1.1.8,1.9,1.7,2.9,2.5s3.6,3.7,5.4,5.6a4.2,4.2,0,0,1,.9,1.4,5.8,5.8,0,0,0,1.1,1.5l.9.9a8.6,8.6,0,0,0,2,1.3h.2a.4.4,0,0,0,.1-.3,23.9,23.9,0,0,0-1.3-2.1,31.9,31.9,0,0,0-2.6-3.8c-.7-.8-1.3-1.6-2-2.3l-2.4-2.5-.6-.5-3.4-2.6c-1.1-.8-2.1-1.7-3.2-2.4a9.7,9.7,0,0,0-2.3-1.1l-.7-.4-.6-.2-3.5-1.7a3.3,3.3,0,0,0-1.4-.4c-.2-.4-.5-.2-.8-.3a9.4,9.4,0,0,0-2.3-1l-.9-.3c0-.2-.2-.3-.4-.4l-1.5-.8A12.2,12.2,0,0,1,37.9,92l-.7-.7,1.7.2a.7.7,0,0,0,.4.6c1.7.9,3.3,1.7,5,2.4l2.3,1,4.6,2a15.3,15.3,0,0,1,4.5,2.5l3.2,2.4,2.8,2.2.5.5,1.4,1.4a30.1,30.1,0,0,1,5.1,6.2l2.1,3.5c.1.1.1.2.3.2a30,30,0,0,1,1.8-4.1c.5-1.1,1-2.1,1.4-3.1a5.3,5.3,0,0,0,.4-1.8,12.7,12.7,0,0,1-.1-2c0-.2.1-.4,0-.5a8.6,8.6,0,0,1-.2-2.8,5.1,5.1,0,0,0-1-3.4A11.1,11.1,0,0,1,72,95.8a6.1,6.1,0,0,0-2.2-3l-2.6-2a5.2,5.2,0,0,1-1.4-1.9l-.3-.6c-.2-.3-.3-.4-.6-.4H63.6l-1.7.3h-.7a13.1,13.1,0,0,1,.6-2.7,15.2,15.2,0,0,0,.3-2.1,1.4,1.4,0,0,1,1.2-1.4,5.4,5.4,0,0,1,2.5-.6c1-.4,2.1-.1,3.2-.4a15.7,15.7,0,0,0,2.3-.9,5.7,5.7,0,0,0,2.6-2.5c.3-.7.7-1.4,1-2.2a2.4,2.4,0,0,1,1-1.4c0,.2.2.3.3.5a33.2,33.2,0,0,1,2.3,5.1,27,27,0,0,1,.8,3.9,14.8,14.8,0,0,1,.3,1.9l.2.3a4.9,4.9,0,0,0-.1,1.2,14.5,14.5,0,0,1-.2,3.6c-.3.1-.6-.1-1-.2a15.9,15.9,0,0,0-4.1-1.6l-3.6-.7-2.4-.4a12,12,0,0,0-1.9,0c-.3,0-.4.2-.3.5l.2.3a5.3,5.3,0,0,0,1.6,2,14.9,14.9,0,0,1,2.8,2.3,7.6,7.6,0,0,1,1.8,2.5l.6,1.5a3.9,3.9,0,0,0,.6,1.1c.1.3.3.4.7.3l1.6-.4a6.3,6.3,0,0,0,3.2-1.5,21.1,21.1,0,0,0,3.2-3.5l.7.4A20.8,20.8,0,0,1,80,96.6a6.9,6.9,0,0,1-3.8,1.9l-1,.2c-.5.2-.6.4-.5.8a5.2,5.2,0,0,1,.4,2.1v.5a5,5,0,0,1,.2,1.7,9.6,9.6,0,0,0,0,1.7,5.3,5.3,0,0,1,0,2.8c-.1.5.2.7.6.6l.6-.2,2.1-.6a10,10,0,0,0,3.4-1.3,7.4,7.4,0,0,0,2-1.6,16.4,16.4,0,0,1,2.1-2.5l2.3-2.3.5-.6a.2.2,0,0,0,.1-.4,16,16,0,0,0-1.8-2.5c-1.2-1.1-2.2-2.3-3.5-3.3a.6.6,0,0,1-.1-.4,2.7,2.7,0,0,0,.8-1c.7-1.4,1.4-2.9,2-4.4a16.6,16.6,0,0,0,1.2-4.5c.4-2,.6-4,1.1-6A27.6,27.6,0,0,1,92,69.6Z" style="fill:#8fa129"/><path d="M68.7,66.6a.4.4,0,0,0-.4-.4c0-.4-.3-.4-.5-.6a2.4,2.4,0,0,0,1.2-.7,14.4,14.4,0,0,0,2.8-3.3,14.8,14.8,0,0,0,2-4.7,15.8,15.8,0,0,1,4-7.3l2.1-2.2a.5.5,0,0,1,.4-.2c0,.1.1.2,0,.3s-.9,2.4-1.5,3.6L77,54.2A7.5,7.5,0,0,0,75.9,57a2.5,2.5,0,0,0-.4,1.1,4.3,4.3,0,0,0-.2,1.1,21.9,21.9,0,0,0,.3,5.1,16.1,16.1,0,0,1,.5,4.4,2.5,2.5,0,0,0,.2,1.2c0,.2.1.5,0,.7a19.4,19.4,0,0,0-.2,2.4h0a.5.5,0,0,0-.2.4h-.6c0-.3-.2-.5-.3-.8s-.9-1.3-1.5-1.9a37.8,37.8,0,0,0-4.1-3.9A.8.8,0,0,0,68.7,66.6Z" style="fill:#6b8a00"/><path d="M76.1,73a19.4,19.4,0,0,1,.2-2.4c.1-.2,0-.5,0-.7a2.5,2.5,0,0,1-.2-1.2,16.1,16.1,0,0,0-.5-4.4,21.9,21.9,0,0,1-.3-5.1,4.3,4.3,0,0,1,.2-1.1,3.5,3.5,0,0,1,.6,1.7,35.1,35.1,0,0,0,2.4,6.4,2.5,2.5,0,0,1,0,2.5l-1.5,3A3.8,3.8,0,0,1,76.1,73Z" style="fill:#385610"/><path d="M95.1,38.5c-.4-.2-.3-.5-.2-.8s.5-2.2.9-3.3A81.8,81.8,0,0,1,99,25.7a.9.9,0,0,1,.3-.6,23.6,23.6,0,0,1-.4,2.8,12.3,12.3,0,0,1-.2,1.9,17.3,17.3,0,0,1-1.5,4.9A28.2,28.2,0,0,1,95.1,38.5Z" style="fill:#385610"/><path d="M81.9,63.4a2.2,2.2,0,0,1,1.2-1.6A3.8,3.8,0,0,1,81.9,63.4Z" style="fill:#979593"/><path d="M75.9,73.4a.5.5,0,0,1,.2-.4v.4Z" style="fill:#385610"/><path d="M87,154.2a3.9,3.9,0,0,0,.6,1.1l.6.9a5,5,0,0,1,.7,2.7,4,4,0,0,0-2,1.1,34.6,34.6,0,0,1-4.6,3.2,6.2,6.2,0,0,1-3.5,1,6.5,6.5,0,0,1-2.4-.2H71.8c-.7.1-.7.1-.6-.6h0a42.8,42.8,0,0,0,.2-6.2c0-.3-.1-.6-.1-.9a.6.6,0,0,1,.4-.7l1.2-.2a5.5,5.5,0,0,0,1.8-.2H76a12.1,12.1,0,0,0,3.8,0,12.8,12.8,0,0,0,2.8-.7,7,7,0,0,1,3.5-.6h.7C86.8,154,86.8,154.1,87,154.2Z" style="fill:#8fa129"/><path d="M98.3,123.8a1.4,1.4,0,0,1,.2.6,9.8,9.8,0,0,0,.5,2.9,11.7,11.7,0,0,0,.5,1.1l1.9,3.5a1.6,1.6,0,0,1,.1,1.5,38.3,38.3,0,0,0-2.2,6.5c-.2.9-.5,1.8-.8,2.8a2.1,2.1,0,0,1-.6.8c-1.5,1-2.9,2.1-4.4,3.3l-1.8,1.5c-1.6,1.3-3,2.9-4.5,4.3l-.3.2c-.2-.2-.2-.4-.1-.5a18.6,18.6,0,0,1,.6-3.4c.4-1,.7-2,1-2.9a6.9,6.9,0,0,0,.5-2.4v-.2l.9-.8a9.6,9.6,0,0,0,1.7-1.8,20.2,20.2,0,0,0,2.8-4.7,2,2,0,0,1,.4-.8c.4-1,.8-2,1.1-3a3.7,3.7,0,0,0,.4-1.5c.4-.2.3-.6.4-.9a34.5,34.5,0,0,0,1.2-4.6A4.2,4.2,0,0,1,98.3,123.8Z" style="fill:#365511"/><path d="M98.9,121.5c.4-.8.8-1.6,1.3-2.4a6.4,6.4,0,0,1,1-1.3l2.1-2.5.9-1a39.7,39.7,0,0,0,2.8-3c.2-.2.4-.5.8-.4s.1.4,0,.6-.1,2.9-.2,4.4a5.1,5.1,0,0,0,.6,2,19.8,19.8,0,0,1,.8,2.6,1.1,1.1,0,0,1-.3,1.3A11.8,11.8,0,0,0,106,125c-.9,1.5-1.8,3-2.6,4.6l-1,2.1c-.4.1-.4-.2-.5-.3s-1.1-2.3-1.8-3.5a7.7,7.7,0,0,1-.8-2.7,14.9,14.9,0,0,1-.2-2.1c0-.2-.2-.4-.2-.6Z" style="fill:#365511"/><path d="M89.1,159.8c-.1.5-.3,1.1-.4,1.6a12,12,0,0,1-1.9,4.5c-.6.9-1.2,1.7-1.7,2.6l-.3.2h-.1l-2.8.7-2.6.6h-.5a15.3,15.3,0,0,1-3.6.7l-4.3.7-1.6.4a2.1,2.1,0,0,1,.1-1.1c.5-1.5.9-3.1,1.3-4.7s.1-.5.2-.8a.4.4,0,0,1,.4-.4H78a6.4,6.4,0,0,0,3.3-.5,17.9,17.9,0,0,0,4.2-2.5l2.5-1.9A1.4,1.4,0,0,1,89.1,159.8Z" style="fill:#8fa129"/><path d="M55.1,142.1a3.5,3.5,0,0,1,1.7.4,14.9,14.9,0,0,1,3.1,2,19.4,19.4,0,0,0,5.7,3c.4.1.8,0,1.2.3v.2l.2.3a11.6,11.6,0,0,1,3.3,5.9,10.2,10.2,0,0,1,.4,3.5v4.6l-.2.3-.3-.2a3,3,0,0,0-.4-.8,6.4,6.4,0,0,0-1.8-2.5,23.9,23.9,0,0,0-2.3-2.2,7.4,7.4,0,0,1-1.8-2.1,22,22,0,0,1-1.5-2.6,34.8,34.8,0,0,0-3.6-5.5,28.6,28.6,0,0,1-2.2-3A10,10,0,0,1,55.1,142.1Z" style="fill:#8fa129"/><path d="M98.3,123.8a4.2,4.2,0,0,0-.4,1.5,34.5,34.5,0,0,1-1.2,4.6c-.1.3,0,.7-.4.9l-1.7,1.4a.8.8,0,0,1-.4.4c-1.2.9-2.4,1.8-3.5,2.8a22.6,22.6,0,0,1-4.3,2.4l-.9.3-2.1.4-1.4.2c-.4,0-.6-.2-.5-.6a23.1,23.1,0,0,0,1-2.8.7.7,0,0,1,.7-.4,5.9,5.9,0,0,0,1.3-.2,7,7,0,0,0,4.1-3,8.9,8.9,0,0,0,1.8-3.3,1.8,1.8,0,0,1,1-1.1l.6-.2a33.9,33.9,0,0,0,5-3.4,5.6,5.6,0,0,1,1.5-1C98.4,123.1,98.2,123.4,98.3,123.8Z" style="fill:#577824"/><path d="M67.4,147.9h8.2a7.8,7.8,0,0,1,2.1.4,21,21,0,0,1,5.1,2.1c.1.1.3,0,.4-.1h.2a.9.9,0,0,0,.6.6l1.7,1.9-.3.2a10.3,10.3,0,0,0-2.4.5,16.6,16.6,0,0,1-2.9,1H74.7a9.2,9.2,0,0,0-2.9.4c-.6.1-.7.1-.8-.5a18.2,18.2,0,0,0-1.1-3A7.8,7.8,0,0,0,67.4,147.9Z" style="fill:#8fa129"/><path d="M84,150.8a.9.9,0,0,1-.6-.6l.6-.6a9.5,9.5,0,0,0,1.3-3.3,5.9,5.9,0,0,0,.2-1.4c0-.3-.1-.4-.4-.5l-1.8-.6c-.6-.3-.7-.3-1.1.2s-.2.2-.2.3a13.4,13.4,0,0,0-1.1,1.4c-.1.2-.3.2-.5.3s-.4-2.4-.5-3.6-.1-.5-.1-.7a.5.5,0,0,0,.6-.4c.1-.4.3-.7.4-1.1a.8.8,0,0,1,.7-.7c1.1-.3,2.3-.4,3.5-.6a11.2,11.2,0,0,0,2.6-.8,32.9,32.9,0,0,0,4.4-2.8l2.5-2.1a3.4,3.4,0,0,1,1.4-.9c-.3,1-.7,2-1.1,3a2,2,0,0,0-.4.8,20.2,20.2,0,0,1-2.8,4.7,9.6,9.6,0,0,1-1.7,1.8l-.9.8v.2l-.9.2c-.5.1-.9.5-1.5.5s-.3.2-.3.4a.9.9,0,0,0-.1.5,6.1,6.1,0,0,1-.8,3.2Z" style="fill:#577824"/><path d="M95.9,132.3a3.4,3.4,0,0,0-1.4.9L92,135.3a32.9,32.9,0,0,1-4.4,2.8,11.2,11.2,0,0,1-2.6.8c-1.2.2-2.4.3-3.5.6a.8.8,0,0,0-.7.7c-.1.4-.3.7-.4,1.1a.5.5,0,0,1-.6.4l-.6-2.6-.3-1.5a.8.8,0,0,1,.7.2c.3.3.6.3,1,0a1.8,1.8,0,0,0,.5-.7,5.8,5.8,0,0,1,.5-1.4c.3-.7.2-.8-.5-1h-.4l-2.4-.5a2,2,0,0,1,.9-.9l1-.9a10.2,10.2,0,0,1,4.2-2.7,11.7,11.7,0,0,0,2.8-1.7,6.9,6.9,0,0,1,2-1.3l1.8-.8v.4a.4.4,0,0,0,.5.2,19.8,19.8,0,0,0,3.1-1.9l3.1-2.3.7-.6c.1-.2.3-.2.5-.2v1l-.4.2a5.6,5.6,0,0,0-1.5,1,33.9,33.9,0,0,1-5,3.4l-.6.2a1.8,1.8,0,0,0-1,1.1,8.9,8.9,0,0,1-1.8,3.3,7,7,0,0,1-4.1,3,5.9,5.9,0,0,1-1.3.2.7.7,0,0,0-.7.4,23.1,23.1,0,0,1-1,2.8c-.1.4.1.6.5.6l1.4-.2,2.1-.4.9-.3a22.6,22.6,0,0,0,4.3-2.4c1.1-1,2.3-1.9,3.5-2.8a.8.8,0,0,0,.4-.4l1.7-1.4A3.7,3.7,0,0,1,95.9,132.3Z" style="fill:#6b8a00"/><path d="M82.8,171.4a24.7,24.7,0,0,1-2.8,2.8,6.9,6.9,0,0,1-3.5,1.8h-.8a13.8,13.8,0,0,1-6.3-2.8.7.7,0,0,1-.3-.6l1.5-.4,3-.5,2.3-.3,2.9-.6a19.4,19.4,0,0,1,3.3-.7l1.3-.4H84Z" style="fill:#8fa129"/><path d="M115.7,109.2l2.6-.6c1.6-.2,3.1-.5,4.7-.6l2.6-.3c-.1.3-.3.4-.5.6l-.6.5a26.3,26.3,0,0,1-3.9,2.9,31.9,31.9,0,0,0-3.8,2.6c-.2.2-.5.1-.5-.3a4.3,4.3,0,0,0-.2-1.1c-.3-.7-.4-1.4-.6-2a1.4,1.4,0,0,1,.1-.9C115.6,109.8,115.7,109.5,115.7,109.2Z" style="fill:#395612"/><path d="M68.7,172.7a9.3,9.3,0,0,1-.4,3.3c-.1.1-.2.2-.2.3l-1.7-2.8-2.9-4.6c-.6-.9-1.3-1.7-2-2.6l-.7-1.2a.5.5,0,0,1-.1-.7,4.7,4.7,0,0,1,1.2-1.9c.7,1.4,1.4,2.8,2.2,4.2s1.7,2.5,2.6,3.7.8,1.1,1.3,1.5Z" style="fill:#385610"/><path d="M68,171.9c-.5-.4-.8-1-1.3-1.5s-1.8-2.4-2.6-3.7-1.5-2.8-2.2-4.2-.3-.8-.6-1a7.6,7.6,0,0,0-.6-1.6,1.7,1.7,0,0,1-.3-1l.6.3a17.3,17.3,0,0,1,2.6,2.8,3.1,3.1,0,0,1,.8,1.5,18.5,18.5,0,0,0,1.9,3.7,15.9,15.9,0,0,1,1.9,4.2C68.2,171.6,68.2,171.8,68,171.9Z" style="fill:#8fa129"/><path d="M84,150.8l1.3-2.4a6.1,6.1,0,0,0,.8-3.2.9.9,0,0,1,.1-.5c0-.2.1-.4.3-.4s1-.4,1.5-.5a4,4,0,0,1-.2,1.9l-.9,2.5a12.6,12.6,0,0,0-.8,4.3c0,.3-.1.3-.4.2Z" style="fill:#395612"/><path d="M60.4,158.9l-.2-.2C60.4,158.6,60.4,158.6,60.4,158.9Z" style="fill:#8fa129"/><path d="M117,132.3h0Z" style="fill:#365511"/><path d="M83.6,93.2a.6.6,0,0,0,.1.4c1.3,1,2.3,2.2,3.5,3.3A16,16,0,0,1,89,99.4a.2.2,0,0,1-.1.4l-.5.6-2.3,2.3a16.4,16.4,0,0,0-2.1,2.5,7.4,7.4,0,0,1-2,1.6,10,10,0,0,1-3.4,1.3l-2.1.6-.6.2c-.4.1-.7-.1-.6-.6a5.3,5.3,0,0,0,0-2.8,9.6,9.6,0,0,1,0-1.7,5,5,0,0,0-.2-1.7v-.5a5.2,5.2,0,0,0-.4-2.1c-.1-.4,0-.6.5-.8l1-.2A6.9,6.9,0,0,0,80,96.6a20.8,20.8,0,0,0,3.2-3.4Z" style="fill:#6b8a00"/><path d="M82.5,92.8a21.1,21.1,0,0,1-3.2,3.5,6.3,6.3,0,0,1-3.2,1.5l-1.6.4c-.4.1-.6,0-.7-.3a3.9,3.9,0,0,1-.6-1.1l-.6-1.5a7.6,7.6,0,0,0-1.8-2.5A14.9,14.9,0,0,0,68,90.5a5.3,5.3,0,0,1-1.6-2l-.2-.3c-.1-.3,0-.5.3-.5a12,12,0,0,1,1.9,0l2.4.4,3.6.7a15.9,15.9,0,0,1,4.1,1.6c.4.1.7.3,1,.2s.4.4.6.5l2.1,1.3Z" style="fill:#6b8a00"/><path d="M65.3,125.1a1.2,1.2,0,0,0,.4,1,1.9,1.9,0,0,0,.3.8,23.7,23.7,0,0,0,2.8,4l1.7,1.6a6.4,6.4,0,0,0,3,1.9,4.1,4.1,0,0,1,1.1.7,1,1,0,0,0,.7.4,9.8,9.8,0,0,1,.8,2.8c.3,1.2.4,2.3.6,3.5a8.6,8.6,0,0,1,.1,1.6h-.4l-5-3.4-1.4-1a5.6,5.6,0,0,1-.5-.8,15.1,15.1,0,0,0-2.2-2.8,2.6,2.6,0,0,1-.7-1.1,1.3,1.3,0,0,1-.1-.6l-1.4-3.3a14.3,14.3,0,0,1-1.1-6.1c0-.2,0-.5.2-.6s.3.5.5.7l.4.6.2.2Z" style="fill:#577824"/><path d="M50.2,129.6h0Z" style="fill:#385610"/><path d="M24,110h0Z" style="fill:#395612"/><path d="M91.2,125.1l-.9.2c-.8.6-1.9.7-2.7,1.4L86,127.9l-2.1,1.2a10.9,10.9,0,0,0-4.4,2.9l-1,1a.4.4,0,0,1-.6-.1c-.3-1.2-.7-2.3-1.1-3.5a1,1,0,0,1,.2-.9l1.5-1.3a3.4,3.4,0,0,0,.9-.8,5.5,5.5,0,0,1,1.2-1.4,14.9,14.9,0,0,0,1.2-1.4,2.3,2.3,0,0,1,2.2-1.1,12.3,12.3,0,0,0,2.7-.2,3.5,3.5,0,0,0,2.2-1.2l1.2-1.3a5.8,5.8,0,0,1,1.8-1.7,2.1,2.1,0,0,0,0,.8,10.2,10.2,0,0,1-.3,3,4.3,4.3,0,0,0-.1,1.6C91.5,124.1,91.2,124.6,91.2,125.1Z" style="fill:#6b8a00"/><path d="M55.7,103a1.9,1.9,0,0,0,.2.8v2.1a5,5,0,0,0,.2,1.2,11.3,11.3,0,0,1,0,2.6,1.7,1.7,0,0,0-.2.5,24.2,24.2,0,0,1-.6,4.8,11.5,11.5,0,0,0-.2,3.2v.3c0,.1,0,.3-.2.2h-.2l-.9-1.6a55.4,55.4,0,0,0-3.3-5.1c-.6-.8-1.2-1.7-1.9-2.5s-1.5-1.8-2.3-2.6a1.8,1.8,0,0,1-.6-1.3,10.6,10.6,0,0,1,.5-3.1c.2-.7,0-1.4.4-2.1a10.6,10.6,0,0,1-.4-1.9,20.5,20.5,0,0,0-.5-2.4,3.3,3.3,0,0,1,1.4.4l3.5,1.7.6.2.7.4a.5.5,0,0,0,.3.5,9.5,9.5,0,0,1,3.1,3.2Z" style="fill:#577824"/><path d="M64.2,123.6c-.2.1-.2.4-.2.6a14.3,14.3,0,0,0,1.1,6.1l1.4,3.3a1.3,1.3,0,0,0,.1.6,14.2,14.2,0,0,1-2.5-2.4,14.6,14.6,0,0,0-1.6-1.9,53.7,53.7,0,0,1-5.7-7.8,5.8,5.8,0,0,1-.9-2.9v-.6a2.6,2.6,0,0,1-.1-1.5,11.3,11.3,0,0,0,.3-1.8,26.3,26.3,0,0,0,.6-3.9,3.4,3.4,0,0,0,.1-1v-2.7h.1a.5.5,0,0,1,.3.5,7.1,7.1,0,0,0,1.5,3.3l.2.2h0a.5.5,0,0,0,.2.4h0a1,1,0,0,0,.4.7h0a6.2,6.2,0,0,0,1.1,1.7,3,3,0,0,0,.2,1.3,16.3,16.3,0,0,0,1.5,4.4,10,10,0,0,1,.8,1.4A4.9,4.9,0,0,1,64.2,123.6Z" style="fill:#577824"/><path d="M59.5,112.8a1,1,0,0,1-.4-.7C59.5,112.2,59.5,112.2,59.5,112.8Z" style="fill:#8fa129"/><path d="M59.1,112.1a.5.5,0,0,1-.2-.4C59.1,111.8,59.1,111.9,59.1,112.1Z" style="fill:#8fa129"/><path d="M58.9,111.7l-.2-.2Z" style="fill:#8fa129"/><path d="M118.9,88.9a.8.8,0,0,1-.2.5C118.7,89.2,118.7,89,118.9,88.9Z" style="fill:#577824"/><path d="M84.8,168.7l.3-.2Z" style="fill:#577824"/><path d="M80.4,146c.2-.1.4-.1.5-.3a13.4,13.4,0,0,1,1.1-1.4c0-.1.1-.2.2-.3s.5-.5,1.1-.2l1.8.6c.3.1.4.2.4.5a5.9,5.9,0,0,1-.2,1.4,9.5,9.5,0,0,1-1.3,3.3l-.6.6h-.2a13.9,13.9,0,0,0-1.9-1.5,2.4,2.4,0,0,1-.8-.6,4.3,4.3,0,0,0,0-1.6A1.1,1.1,0,0,1,80.4,146Z" style="fill:#385610"/><path d="M44.2,72.8h0Z" style="fill:#8fa129"/><path d="M98.9,90c0,.2,0,.3-.2.4S98.7,90.1,98.9,90Z" style="fill:#8fa129"/><path d="M98.5,90.6a.5.5,0,0,1-.3.5C98.3,90.9,98.3,90.7,98.5,90.6Z" style="fill:#8fa129"/><path d="M98.7,90.4l-.2.2Z" style="fill:#8fa129"/><path d="M99.1,89.8l-.2.2Z" style="fill:#8fa129"/><path d="M53.2,165.7l-.2-.2-.3-.3a12.3,12.3,0,0,1-2.3-3.3.2.2,0,0,1,.4-.1l2.7,1.2a10.7,10.7,0,0,0,3.9,1.4l1.3.5a6.2,6.2,0,0,1,1.9,1.4l2.2,3a22.6,22.6,0,0,1,1.6,2.6c.7,1,1.3,2,1.9,3a4.6,4.6,0,0,1,.7,1.4,2.9,2.9,0,0,1-1.5-.9,32.6,32.6,0,0,0-3.6-2.9c-.6-.5-1.3-.9-1.9-1.5l-1.3-1a18.6,18.6,0,0,0-2.2-1.9l-3.1-2.2A.2.2,0,0,1,53.2,165.7Z" style="fill:#365511"/><path d="M48.7,158.5a2.9,2.9,0,0,1,1.6.3l2.6.8a8.2,8.2,0,0,1,2.5,1.2,9.8,9.8,0,0,1,3.1,3h0a12,12,0,0,1-3.7-1L50,160.4l-.4-.2A14,14,0,0,1,48.7,158.5Z" style="fill:#385610"/><path d="M48.5,158.3l.2.2Z" style="fill:#385610"/><path d="M68.7,66.6a.8.8,0,0,1,.7.2,37.8,37.8,0,0,1,4.1,3.9c.6.6,1,1.3,1.5,1.9s.3.5.3.8A9.8,9.8,0,0,0,74,75.6,7,7,0,0,1,72.7,78a5,5,0,0,1-2.3,1.8,10.9,10.9,0,0,1-4.7.8l-1.3.3-2.1.7V78.9a23.1,23.1,0,0,0-.5-4.6V74c-.1-1-.2-1.3.9-1.8a11.5,11.5,0,0,0,2.7-1.4A9.4,9.4,0,0,0,68,67.9,3.3,3.3,0,0,0,68.7,66.6Z" style="fill:#8fa129"/><path d="M58.5,163.8h0Z" style="fill:#385610"/><path d="M67.2,176.6l-.2-.3Z" style="fill:#365511"/><path d="M91,104.3l-1.8,3.2a13.5,13.5,0,0,0-1.8,4.1,12.7,12.7,0,0,1-1.8,4.3c-.9,1.4-1.7,2.8-2.5,4.3a16.6,16.6,0,0,1-2.9,4.2l-2.9,3-.5.6c-.3.2-.5.2-.6-.2-1.1-2.6-2.2-5.2-3.5-7.7a16.3,16.3,0,0,0-.9-1.9c-.2-.2-.1-.5-.1-.8a11.1,11.1,0,0,1,1.3-3.6l1.5-3.2a1.4,1.4,0,0,1,1.2-.9l3.5-1a7.9,7.9,0,0,0,3.3-1.3,4.3,4.3,0,0,0,1.6-1.4c1.1-1.2,2.1-2.4,3.2-3.5l1.7-1.6c.5-.6.6-.6,1,.2l.8,1.7A2.4,2.4,0,0,1,91,104.3Z" style="fill:#6b8a00"/><path d="M55.7,103l-.4-.6a9.5,9.5,0,0,0-3.1-3.2.5.5,0,0,1-.3-.5,9.7,9.7,0,0,1,2.3,1.1c1.1.7,2.1,1.6,3.2,2.4l3.4,2.6.6.5,2.4,2.5c.7.7,1.3,1.5,2,2.3a31.9,31.9,0,0,1,2.6,3.8,23.9,23.9,0,0,1,1.3,2.1.4.4,0,0,1-.1.3h-.2a8.6,8.6,0,0,1-2-1.3l-.9-.9a5.8,5.8,0,0,1-1.1-1.5,4.2,4.2,0,0,0-.9-1.4c-1.8-1.9-3.5-3.8-5.4-5.6s-1.8-1.7-2.9-2.5Z" style="fill:#6b8a00"/><path d="M75.3,135.5a1,1,0,0,1-.7-.4,4.1,4.1,0,0,0-1.1-.7,6.4,6.4,0,0,1-3-1.9l-1.7-1.6a23.7,23.7,0,0,1-2.8-4,1.9,1.9,0,0,1-.3-.8,6.5,6.5,0,0,1,4.4,1.8l1.6,1.2a8.1,8.1,0,0,1,2.1,2.4A9.2,9.2,0,0,1,75.3,135.5Z" style="fill:#6b8a00"/><path d="M64.2,123.6a4.9,4.9,0,0,0-1.1-2,10,10,0,0,0-.8-1.4,16.3,16.3,0,0,1-1.5-4.4,3,3,0,0,1-.2-1.3,1.3,1.3,0,0,1,.7.6c.4.6.9,1,1.3,1.5a15.6,15.6,0,0,1,1.6,2l1,1.4a30.2,30.2,0,0,1,3.2,5.2l.2.3c0,.1.1.2-.1.3s-.2.1-.3.1l-2.8-.8h-.1l-.2-.2-.4-.6C64.5,124.1,64.5,123.8,64.2,123.6Z" style="fill:#6b8a00"/><path d="M78.3,134.2l2.4.5h.4c.7.2.8.3.5,1a5.8,5.8,0,0,0-.5,1.4,1.8,1.8,0,0,1-.5.7c-.4.3-.7.3-1,0a.8.8,0,0,0-.7-.2c-.2-.8-.3-1.7-.5-2.5A2.8,2.8,0,0,1,78.3,134.2Z" style="fill:#577824"/><path d="M65.1,124.9l.2.2Z" style="fill:#8fa129"/><path d="M53.2,165.7a.2.2,0,0,0,.2.2Z" style="fill:#577824"/></g></g></svg>