<svg xmlns="http://www.w3.org/2000/svg" viewBox="0 0 85.5 94"><g style="isolation:isolate"><g id="Layer_2" data-name="Layer 2"><g id="Layer_1-2" data-name="Layer 1"><path d="M70.8,79.6a21,21,0,0,1-4.6-.5A1.6,1.6,0,0,1,65,77.6l.2-5.8a1.8,1.8,0,0,1,.8-1.3l.7-.2a1.1,1.1,0,0,1,.8.3,6.7,6.7,0,0,0,2.7.6c1.9,0,3.5-1.2,4.6-3.6.2-.7,0-5.4-24.8-32C36.9,21.6,23.2,8.3,23.1,8.2a1.2,1.2,0,0,1-.4-1.1A1.4,1.4,0,0,1,23.1,6l4.5-4.1a1.5,1.5,0,0,1,1.1-.4,1.4,1.4,0,0,1,1,.4c5.8,5.5,56.5,54,54.3,67C82.8,75.8,78.1,79.6,70.8,79.6Z" style="fill:#baa2ee"/><path d="M28.7,3s56,53,53.8,65.7c-1.4,7.9-7.4,9.4-11.7,9.4a18.8,18.8,0,0,1-4.3-.5l.2-5.8a7.5,7.5,0,0,0,3.5.9c1.9,0,4.3-.9,6-4.5,3.3-7.2-52-61.1-52-61.1L28.7,3m0-3a3.2,3.2,0,0,0-2.1.8L22.1,4.9A2.7,2.7,0,0,0,21.2,7a2.5,2.5,0,0,0,.9,2.2c.1.2,13,12.7,25.8,26.4,22.6,24,25.2,30.3,25.4,31.7s-2.6,2.4-3.1,2.4a3.4,3.4,0,0,1-2-.5,3.7,3.7,0,0,0-1.5-.4,3.3,3.3,0,0,0-1.4.4,3.1,3.1,0,0,0-1.6,2.6l-.2,5.7a3,3,0,0,0,2.3,3,18.5,18.5,0,0,0,5,.6c8,0,13.3-4.3,14.6-11.9.7-3.9-1.8-9.4-8-17.9C73,45.2,66.6,37.8,58.6,29.1,44.9,14.3,30.9,1,30.7.8a3.2,3.2,0,0,0-2-.8Z" style="fill:#7850b3"/><path d="M49.4,23.7l-3.9,5c6.6,6.9,13.5,14.4,19.2,21l3-5.8C62.1,37.2,55.5,30.1,49.4,23.7Z" style="fill:#21211e;opacity:0.21"/><path d="M9,78.5c-.4.3-6.8,5-5.9,6.4s4.4,6.7,5.3,6,6.2-6.8,6.2-6.8Z" style="fill:#21211e"/><path d="M51,38.4c.4-.5,6-8.4,7.3-7.4s5.8,6.2,5.2,7-7.1,6.1-7.1,6.1Z" style="fill:#21211e"/><path d="M48.4,34.9C43,33,6.6,68.1,5.3,74.1S17.5,90.5,20.4,90.6s14.2-9.3,17-12.7-1.5-8.8-.6-11.9,8.3.3,10.9.2,17-12.9,16.5-15.1S53.8,36.8,48.4,34.9ZM60.7,50.8c-1.5,2.4-12,13.1-14.3,12.8s-10.9-4-12.6.8,3.6,9.5.2,12.9-11.3,12.4-14.4,10c0,0-11.2-9.6-10.9-13.4.5-5.3,34.6-38.4,39.5-36S62.1,48.5,60.7,50.8Z" style="fill:#ffeb81"/><path d="M19.6,87.3S8.4,77.7,8.7,73.9c.5-5.3,34.6-38.4,39.5-36S62.1,48.5,60.7,50.8s-12,13.1-14.3,12.8-10.9-4-12.6.8,3.6,9.5.2,12.9S22.7,89.7,19.6,87.3Z" style="fill:#5576b4;opacity:0.5"/><g style="opacity:0.36;mix-blend-mode:screen"><path d="M21.4,58.3,21,87.7c2.5-.2,6.3-3.7,9.4-6.8V49.6C27.4,52.4,24.3,55.4,21.4,58.3Z" style="fill:#fff;opacity:0.41000000000000003"/><path d="M11.2,69.6l-.8,8.1a49.6,49.6,0,0,0,4.3,5l1.8-19.4C14.4,65.6,12.6,67.8,11.2,69.6Z" style="fill:#fff;opacity:0.41000000000000003"/></g><path d="M58,30.9h.3c1.3,1,5.8,6.2,5.2,7s-3.5,3.2-5.4,4.8c3.2,3.6,5.9,7.3,6.1,8.3s-13.9,15-16.5,15.1h-.1c-1.9,0-5.8-1.5-8.4-1.5s-2.1.4-2.4,1.3c-.9,3.1,3.3,8.6.6,11.9S23.5,90.6,20.5,90.6h-.1c-1.2,0-4.4-1.9-7.5-4.6a51,51,0,0,1-4.5,4.9H8.2C7.1,91,4,86.1,3.1,84.9s2.1-3.4,4.1-5C5.8,77.8,5,75.8,5.3,74.1,6.5,68.2,41.2,34.8,48,34.8h.4A11.5,11.5,0,0,1,52,37c1.6-2.1,4.8-6.1,6-6.1M46.3,38.1l1.3-.3h.6l3.7,2.3a10.9,10.9,0,0,0,1.7,1.3,10.9,10.9,0,0,1-1.7-1.3l-3.7-2.3h-.6l-1.3.3m-1.2.5.9-.4-.9.4M37,44.1l1.5-1.2c1.6-1.2,3-2.2,4.3-3l1.5-.9-1.5.9c-1.3.8-2.7,1.8-4.3,3L37,44.1m18.8-.7.3.4h0l-.3-.4L54.1,42l1.7,1.4M59,46.8l-1.2-1.4-1.4-1.3,1.4,1.3L59,46.8M31.5,48.7l1.3-1.1-1.3,1.1m28.8-.1.3.7-.3-.7h0m.5,1.7a1.3,1.3,0,0,0-.1-.6,1.3,1.3,0,0,1,.1.6M27.7,52.2l1.7-1.6-1.7,1.6M41.9,62.4l-1-.2h0l1,.2m2.7.7-.9-.2-.5-.2.5.2.9.2M34.8,63l-.4.4h0l.4-.4m11.1.5h0l-.6-.2.6.2M34,64v.4c-.7,2.1-.1,4.2.5,6.1h0c-.6-1.9-1.2-4-.4-6.1V64M20.2,87.6h0M58,27.9c-1.6,0-3.3.9-6.6,5l-2-.9L48,31.8h0c-5.1,0-16.7,9.9-25.5,18.3C19.3,53,3.5,68.2,2.4,73.5a8.7,8.7,0,0,0,1,5.7C1.1,81.3-1.2,84,.7,86.6c.1.2.4.5.6.9C4.4,92,6,94,8.2,94a3.6,3.6,0,0,0,2-.6,29.2,29.2,0,0,0,3.1-3.2c2.2,1.6,5,3.4,7,3.4h.2c5,0,17.4-11.6,19.2-13.8s1.5-7,.6-9.9c-.1-.6-.4-1.5-.5-2.1l3.6.7a18.3,18.3,0,0,0,4.2.7h.2c4-.1,14.9-10.6,17.6-14,1.1-1.4,2.1-3,1.8-4.7s-2.9-5.1-4.9-7.4c3-2.5,3.3-3,3.6-3.2,1.8-2.5-.5-5.4-1.9-7.2a31.5,31.5,0,0,0-3.9-4.1,3.1,3.1,0,0,0-2.1-.7Z" style="fill:#ff8d3d"/></g></g></g></svg>