<svg xmlns="http://www.w3.org/2000/svg" viewBox="0 0 24.9 44.8"><g style="isolation:isolate"><g id="Layer_2" data-name="Layer 2"><g id="Layer_1-2" data-name="Layer 1"><rect x="1.5" y="10.9" width="21.9" height="32.31" rx="7.6" style="fill:#e2d7ff"/><path d="M15.8,12.4a6.1,6.1,0,0,1,6.1,6.1V35.7a6.1,6.1,0,0,1-6.1,6.1H9.1A6.1,6.1,0,0,1,3,35.7V18.5a6.1,6.1,0,0,1,6.1-6.1h6.7m0-3H9.1A9.1,9.1,0,0,0,0,18.5V35.7a9.1,9.1,0,0,0,9.1,9.1h6.7a9.1,9.1,0,0,0,9.1-9.1V18.5a9.1,9.1,0,0,0-9.1-9.1Z" style="fill:#baa2ee"/><path d="M12.5,0c.1,3.1,5.7,10.6,0,11A2.6,2.6,0,0,1,9.9,8.8C9.5,6.6,11.8,3.2,12.5,0Z" style="fill:#fcd54d"/><path d="M12.5,4.3c0,1.9,3.4,6.3,0,6.6a1.7,1.7,0,0,1-1.6-1.3C10.7,8.2,12,6.2,12.5,4.3Z" style="fill:#ffd279;mix-blend-mode:screen"/><path d="M3,18.5V35.7a6.1,6.1,0,0,0,6.1,6.1H14a6.1,6.1,0,0,1-6.1-6.1V18.5A6.1,6.1,0,0,1,14,12.4H9.1A6.1,6.1,0,0,0,3,18.5Z" style="fill:#baa2ee;opacity:0.30000000000000004;mix-blend-mode:multiply"/><path d="M10.9,12.5v.2A1.1,1.1,0,0,0,12,13.8h.4a1.1,1.1,0,0,0,1.1-1.1v-.2Z" style="opacity:0.1"/><path d="M12.2,13.4a.5.5,0,0,0,.5-.5V9.1a.5.5,0,1,0-1,0v3.8A.5.5,0,0,0,12.2,13.4Z" style="fill:#c4e0bd"/></g></g></g></svg>