<svg xmlns="http://www.w3.org/2000/svg" viewBox="0 0 75.2 184.2"><g id="Layer_2" data-name="Layer 2"><g id="Layer_1-2" data-name="Layer 1"><path d="M11.3,172a9.8,9.8,0,0,1-7.5-3.4,10.3,10.3,0,0,1-2.2-7.9L6,134a4.6,4.6,0,0,1,2.5-3.4l6.8-3.6a.5.5,0,0,0,.3-.5.6.6,0,0,0-.4-.5l-4.8-1.3A4.8,4.8,0,0,1,7,119.2L19.4,51.6A4.5,4.5,0,0,1,21,48.8l5.1-4.4a.6.6,0,0,0,.2-.5.5.5,0,0,0-.3-.4L24.8,43a4.8,4.8,0,0,1-2.9-5.1L28.4,4.7a3.6,3.6,0,0,1,7.2-.2l21,86.2a4.8,4.8,0,0,1-3,5.7l-1,.3c-.3.1-.3.3-.4.4a.6.6,0,0,0,.3.6l5.7,3.5a5,5,0,0,1,2,2.9l7.1,27.6a4.7,4.7,0,0,1-3.4,5.8.5.5,0,0,0-.4.5.5.5,0,0,0,.3.5l3.9,1.8a4.5,4.5,0,0,1,2.6,3.1l3,11.4a13.4,13.4,0,0,1-12.7,16.6Z" style="fill:#c3bf4f"/><path d="M32,3a2.4,2.4,0,0,1,2.2,1.8l21,86.3a3.2,3.2,0,0,1-2.1,3.8l-1,.4a2,2,0,0,0-.4,3.6l5.7,3.6a3,3,0,0,1,1.4,1.9l7.1,27.7a3.2,3.2,0,0,1-2.4,3.9,2.1,2.1,0,0,0-.3,3.9l3.9,1.8a3.4,3.4,0,0,1,1.8,2.1l2.9,11.4a11.8,11.8,0,0,1-11.3,14.7l-49.1.6h-.1a8.3,8.3,0,0,1-8.2-9.6l4.3-26.6a3.4,3.4,0,0,1,1.8-2.4l6.8-3.5a2.1,2.1,0,0,0-.4-3.8l-4.8-1.4a3.2,3.2,0,0,1-2.3-3.7L20.8,51.8A3.7,3.7,0,0,1,21.9,50l5.2-4.5a2,2,0,0,0-.5-3.4l-1.2-.5a3.3,3.3,0,0,1-2-3.5L29.8,5A2.3,2.3,0,0,1,32,3m0-3a5.1,5.1,0,0,0-5.1,4.5l-6.4,33v.2A6.2,6.2,0,0,0,24,44.3l-4,3.4a5.8,5.8,0,0,0-2.1,3.6L5.5,119a6.4,6.4,0,0,0,4.5,7.1l2.5.7-4.7,2.5a6.1,6.1,0,0,0-3.3,4.5L.1,160.5a11.3,11.3,0,0,0,11.2,13h.1l49.2-.6a14.9,14.9,0,0,0,11.5-5.8,14.7,14.7,0,0,0,2.6-12.7l-2.9-11.3a5.9,5.9,0,0,0-3.4-4.1l-2.1-1a6.3,6.3,0,0,0,2.5-6.7l-7.1-27.6A6.1,6.1,0,0,0,59,100l-4.1-2.6a6.3,6.3,0,0,0,3.2-7.1L37.1,4.1A5.3,5.3,0,0,0,32,0Z" style="fill:#928e31"/><path d="M32.9,3.6l1.7,178a2.6,2.6,0,0,1-2.5,2.6,2.5,2.5,0,0,1-2.5-2.5h0l1.6-178a.9.9,0,0,1,.9-.8A.8.8,0,0,1,32.9,3.6Z" style="fill:#6c6120"/><path d="M32.1,67.7l-.6-.2L19.6,56.2a.9.9,0,1,1,1.1-1.3L32.1,65.8,46,54.9a.9.9,0,0,1,1.2.1.8.8,0,0,1-.2,1.2L32.6,67.5C32.5,67.7,32.3,67.7,32.1,67.7Z" style="fill:#6c6120"/><path d="M32.1,41.3h0a.9.9,0,0,1-.7-.3l-7.3-9.2a.9.9,0,0,1,1.3-1.1l6.7,8.5L40,30.7a.8.8,0,0,1,1.2-.1.9.9,0,0,1,0,1.2L32.7,41A.7.7,0,0,1,32.1,41.3Z" style="fill:#6c6120"/><path d="M32.1,24.7a.7.7,0,0,1-.6-.2l-5-5a.8.8,0,0,1,1.2-1.2l4.4,4.4L37,18.3a.8.8,0,1,1,1.2,1.2l-5.5,5A.7.7,0,0,1,32.1,24.7Z" style="fill:#6c6120"/><path d="M32.1,87.6l-.6-.2L16.4,73.9a.7.7,0,0,1-.1-1.1.8.8,0,0,1,1.2-.1l14.6,13L50.4,72.6a.8.8,0,0,1,1.1.2.8.8,0,0,1-.2,1.2L32.6,87.5Z" style="fill:#6c6120"/><path d="M32.7,115a.9.9,0,0,1-.6-.3L12.2,96.6a.8.8,0,0,1,0-1.2.9.9,0,0,1,1.2,0L32.7,113l15.1-10.2a.9.9,0,0,1,1,1.4L33.1,114.8Z" style="fill:#6c6120"/><path d="M32.1,133.1h-.5L9,114.8a.8.8,0,0,1-.2-1.2.8.8,0,0,1,1.2-.1l22.2,17.8,29.2-15.9a.7.7,0,0,1,1.1.3.8.8,0,0,1-.3,1.1L32.5,133Z" style="fill:#6c6120"/><path d="M32.1,158.3h-.4L5.4,145.1a.8.8,0,0,1-.3-1.2.7.7,0,0,1,1.1-.3l25.9,12.9,29.3-13c.5-.1,1,0,1.1.5a.8.8,0,0,1-.4,1.1L32.4,158.2Z" style="fill:#6c6120"/><path d="M32.1,171.1h-.3L5.5,161.2a.9.9,0,0,1-.5-1.1,1,1,0,0,1,1.1-.5l26,9.8,39.8-12.8a.9.9,0,1,1,.5,1.7l-40,12.8Z" style="fill:#6c6120"/></g></g></svg>