<svg xmlns="http://www.w3.org/2000/svg" xmlns:xlink="http://www.w3.org/1999/xlink" viewBox="0 0 37 71.3"><defs><clipPath id="clip-path"><path d="M35.3,34.4a4,4,0,0,0-1.9-2.8,4.8,4.8,0,0,0-1.4-.5c-3.1-.8-3.8,1.4-3.9,2.3s.1-.7.1-1.3a28.5,28.5,0,0,0,.2-3.1,10.1,10.1,0,0,0-.8-4.5,1.8,1.8,0,0,0-.5-.7c-.5-.5-1-.6-1.3-.4s-1.7,2.7-1.7,2.8S25,5,19.1,1.1A3.5,3.5,0,0,0,16.6.5h-.3c-2.6.5-4.1,3.2-4.8,6.8-1.9,9,.6,23.6.6,23.6a5.8,5.8,0,0,0-4.9-1.2c-2.9.6,1.1,10.6,1.2,10.8s-9-6.5-7.8,3A44.3,44.3,0,0,0,6.3,60.3C9,65.8,15.1,76.5,25,67.1a27.5,27.5,0,0,0,6.1-8.8C35.1,49.9,36.6,39.4,35.3,34.4Z" style="fill:none"/></clipPath><clipPath id="clip-path-2"><path d="M36.5,50.5a3,3,0,0,0-.9-1.8l-.9-.5a1.7,1.7,0,0,0-2.4,1.1,5.6,5.6,0,0,0,.1-.7,9.5,9.5,0,0,0,.4-1.8,7.7,7.7,0,0,0-.1-2.7l-.3-.5c-.3-.3-.5-.4-.8-.3s-1.1,1.5-1.1,1.5,2-12.4-1.2-15.1a1.8,1.8,0,0,0-1.4-.6h-.2c-1.6.2-2.6,1.7-3.3,3.7-1.8,5.2-1.4,14-1.4,14a3.2,3.2,0,0,0-2.7-1.1c-1.8.2-.2,6.4-.1,6.5s-4.9-4.5-4.9,1.2a26.6,26.6,0,0,0,.8,6.1,21,21,0,0,0,1.4,4.1c1.2,3.5,4,10.2,10.5,5.4a16.9,16.9,0,0,0,4.3-4.8C35.2,59.6,36.9,53.5,36.5,50.5Z" style="fill:none"/></clipPath></defs><g id="Layer_2" data-name="Layer 2"><g id="Layer_1-2" data-name="Layer 1"><path d="M35.3,34.4a4,4,0,0,0-1.9-2.8,4.8,4.8,0,0,0-1.4-.5c-3.1-.8-3.8,1.4-3.9,2.3s.1-.7.1-1.3a28.5,28.5,0,0,0,.2-3.1,10.1,10.1,0,0,0-.8-4.5,1.8,1.8,0,0,0-.5-.7c-.5-.5-1-.6-1.3-.4s-1.7,2.7-1.7,2.8S25,5,19.1,1.1A3.5,3.5,0,0,0,16.6.5h-.3c-2.6.5-4.1,3.2-4.8,6.8-1.9,9,.6,23.6.6,23.6a5.8,5.8,0,0,0-4.9-1.2c-2.9.6,1.1,10.6,1.2,10.8s-9-6.5-7.8,3A44.3,44.3,0,0,0,6.3,60.3C9,65.8,15.1,76.5,25,67.1a27.5,27.5,0,0,0,6.1-8.8C35.1,49.9,36.6,39.4,35.3,34.4Z" style="fill:#3b7e82;stroke:#28575c;stroke-miterlimit:10"/><g style="clip-path:url(#clip-path)"><path d="M33.1,29.3a3.1,3.1,0,0,0-1.3-2l-1.1-.4A1.9,1.9,0,0,0,28,28.6a4.1,4.1,0,0,1,.1-1c0-.6.1-1.4.1-2.2a7.7,7.7,0,0,0-.5-3.2l-.4-.5a1.1,1.1,0,0,0-1-.3c-.8.3-1.1,2-1.2,2s.7-15.1-3.5-17.9a2.7,2.7,0,0,0-1.8-.4h0c-.1,0-.2,0-.2.1-1.9.3-2.9,2.3-3.5,4.8-1.3,6.5.4,16.8.4,16.8a3.9,3.9,0,0,0-3.4-.8c-2.1.4.8,7.6.9,7.7s-6.5-4.6-5.6,2.2A27.3,27.3,0,0,0,10.2,43a30.9,30.9,0,0,0,2.2,4.7c2,4,6.3,11.6,13.4,4.9a19.5,19.5,0,0,0,4.3-6.3C33,40.3,34.1,32.9,33.1,29.3Z" style="fill:#98d9e4"/></g><path d="M35.3,34.4a4,4,0,0,0-1.9-2.8,4.8,4.8,0,0,0-1.4-.5c-3.1-.8-3.8,1.4-3.9,2.3s.1-.7.1-1.3a28.5,28.5,0,0,0,.2-3.1,10.1,10.1,0,0,0-.8-4.5,1.8,1.8,0,0,0-.5-.7c-.5-.5-1-.6-1.3-.4s-1.7,2.7-1.7,2.8S25,5,19.1,1.1A3.5,3.5,0,0,0,16.6.5h-.3c-2.6.5-4.1,3.2-4.8,6.8-1.9,9,.6,23.6.6,23.6a5.8,5.8,0,0,0-4.9-1.2c-2.9.6,1.1,10.6,1.2,10.8s-9-6.5-7.8,3A44.3,44.3,0,0,0,6.3,60.3C9,65.8,15.1,76.5,25,67.1a27.5,27.5,0,0,0,6.1-8.8C35.1,49.9,36.6,39.4,35.3,34.4Z" style="fill:none;stroke:#28575c;stroke-miterlimit:10"/><path d="M36.5,50.5a3,3,0,0,0-.9-1.8l-.9-.5a1.7,1.7,0,0,0-2.4,1.1,5.6,5.6,0,0,0,.1-.7,9.5,9.5,0,0,0,.4-1.8,7.7,7.7,0,0,0-.1-2.7l-.3-.5c-.3-.3-.5-.4-.8-.3s-1.1,1.5-1.1,1.5,2-12.4-1.2-15.1a1.8,1.8,0,0,0-1.4-.6h-.2c-1.6.2-2.6,1.7-3.3,3.7-1.8,5.2-1.4,14-1.4,14a3.2,3.2,0,0,0-2.7-1.1c-1.8.2-.2,6.4-.1,6.5s-4.9-4.5-4.9,1.2a26.6,26.6,0,0,0,.8,6.1,21,21,0,0,0,1.4,4.1c1.2,3.5,4,10.2,10.5,5.4a16.9,16.9,0,0,0,4.3-4.8C35.2,59.6,36.9,53.5,36.5,50.5Z" style="fill:#3b7e82;stroke:#28575c;stroke-miterlimit:10"/><g style="clip-path:url(#clip-path-2)"><path d="M34.7,46.5a1.7,1.7,0,0,0-.7-1.3l-.7-.4a1.3,1.3,0,0,0-1.9.9c.1-.2.1-.4.2-.6a7.8,7.8,0,0,1,.2-1.4,4.7,4.7,0,0,0-.1-2.1.5.5,0,0,0-.2-.4.9.9,0,0,0-.6-.3c-.5.2-.9,1.2-.9,1.2s1.6-9.7-.9-11.8a1.8,1.8,0,0,0-1.1-.4h-.1c-1.3.1-2.1,1.3-2.6,2.9-1.4,4-1.1,10.9-1.1,10.9a2.4,2.4,0,0,0-2.1-.9c-1.4.1-.1,5-.1,5.1s-3.8-3.5-3.8.9a21.1,21.1,0,0,0,1.7,8c.9,2.7,3.1,7.9,8.2,4.2a11.9,11.9,0,0,0,3.3-3.7C33.7,53.6,35,48.9,34.7,46.5Z" style="fill:#98d9e4"/></g><path d="M36.5,50.5a3,3,0,0,0-.9-1.8l-.9-.5a1.7,1.7,0,0,0-2.4,1.1,5.6,5.6,0,0,0,.1-.7,9.5,9.5,0,0,0,.4-1.8,7.7,7.7,0,0,0-.1-2.7l-.3-.5c-.3-.3-.5-.4-.8-.3s-1.1,1.5-1.1,1.5,2-12.4-1.2-15.1a1.8,1.8,0,0,0-1.4-.6h-.2c-1.6.2-2.6,1.7-3.3,3.7-1.8,5.2-1.4,14-1.4,14a3.2,3.2,0,0,0-2.7-1.1c-1.8.2-.2,6.4-.1,6.5s-4.9-4.5-4.9,1.2a26.6,26.6,0,0,0,.8,6.1,21,21,0,0,0,1.4,4.1c1.2,3.5,4,10.2,10.5,5.4a16.9,16.9,0,0,0,4.3-4.8C35.2,59.6,36.9,53.5,36.5,50.5Z" style="fill:none;stroke:#28575c;stroke-miterlimit:10"/></g></g></svg>