<svg xmlns="http://www.w3.org/2000/svg" xmlns:xlink="http://www.w3.org/1999/xlink" viewBox="0 0 137.9 34"><defs><clipPath id="clip-path"><path d="M3,14A11,11,0,0,1,14,3h99.8V31h-9.9L75.7,20.8V17.5H3Z" style="fill:none"/></clipPath></defs><g id="Layer_2" data-name="Layer 2"><g id="Layer_1-2" data-name="Layer 1"><g style="clip-path:url(#clip-path)"><polygon points="103.9 11.8 113.8 11.8 113.8 31 103.9 31 75.7 20.8 75.7 11.8 103.9 11.8" style="fill:#613629"/><path d="M3,18.5a1.1,1.1,0,0,1-1-1V14A12,12,0,0,1,14,2H124.9a12,12,0,0,1,12,12v3.5a1,1,0,0,1-1,1Z" style="fill:#af7553"/><path d="M124.9,3a11,11,0,0,1,11,11v3.5H3V14A11,11,0,0,1,14,3H124.9m0-2H14A13,13,0,0,0,1,14v3.5a2,2,0,0,0,2,2H135.9a2,2,0,0,0,2-2V14a13,13,0,0,0-13-13Z" style="fill:#75411a"/><path d="M18.1,5H121.7c5.9,0,10.7,2.6,10.7,5.8v1.9H7.5V10.8C7.5,7.6,12.2,5,18.1,5Z" style="fill:#ce894a"/></g><path d="M113.8,3V31h-9.9L75.7,20.8V17.5H3V14A11,11,0,0,1,14,3h99.8m0-3H14A14,14,0,0,0,0,14v3.5a2.9,2.9,0,0,0,3,3H72.7v.3a2.9,2.9,0,0,0,2,2.8l28.2,10.2,1,.2h9.9a3.1,3.1,0,0,0,3-3V3a3,3,0,0,0-3-3Z" style="fill:#75411a"/></g></g></svg>