<svg xmlns="http://www.w3.org/2000/svg" viewBox="0 0 96.6 206.7"><g id="Layer_2" data-name="Layer 2"><g id="Layer_1-2" data-name="Layer 1"><path d="M58,3h.6A20.7,20.7,0,0,1,73,9.8a21,21,0,0,1,2.2,3A20.9,20.9,0,0,1,78,23.7a4.9,4.9,0,0,0-.1,1.2,22,22,0,0,1-.7,3.7,15.1,15.1,0,0,1-1.4,3.5,10.6,10.6,0,0,1,3.8-.7h.1l2,.2,1,.2A13.9,13.9,0,0,1,85.5,33a9.1,9.1,0,0,1,1.6,1.1,10.4,10.4,0,0,1,2.1,2.1,4.1,4.1,0,0,0,.5.9,11.6,11.6,0,0,1-3,14.4l.4.3H87a7,7,0,0,1,1.9,3.5,6.5,6.5,0,0,1,3.5,2.9,8.9,8.9,0,0,1-2.2,11.5,9.7,9.7,0,0,1-1.9,11.5,9.5,9.5,0,0,1-6.5,2.4,9.2,9.2,0,0,1-5.1-1.5,9.1,9.1,0,0,1-6.8,6.6l-1.8.2A9.2,9.2,0,0,1,61,85.6a2,2,0,0,0-.6-.7l-1-.2h-.8a10.3,10.3,0,0,1-8.5-4.9,18.9,18.9,0,0,1-4.7,1.1,40.5,40.5,0,0,1-7,.6h-.7a16.4,16.4,0,0,1-6.3-1,7,7,0,0,1-4.3-5.4,12.5,12.5,0,0,1-4.2.8A11.4,11.4,0,0,1,16.5,74a11.8,11.8,0,0,1-5.1-9.2,9.4,9.4,0,0,1-8-6.4,9.1,9.1,0,0,1,2.8-9.7,8.6,8.6,0,0,0,1.8-2,6.4,6.4,0,0,0,.1-2.4c-.1-3.3,2.3-5.8,5.6-7.4a12.3,12.3,0,0,1,1.9-7A13.2,13.2,0,0,1,26.7,24a13,13,0,0,1,5.1,1.1h0l.3.2a6.8,6.8,0,0,1-.2-1.4,9.1,9.1,0,0,1,3.2-8.1,6.7,6.7,0,0,1,3-1.3h2a5.3,5.3,0,0,1,1.8.5l1.1.6A4.3,4.3,0,0,1,44.3,17c1.7-5.3,4-11.2,9.1-13.2A12.1,12.1,0,0,1,58,3m0-3a14.8,14.8,0,0,0-5.7,1c-5.1,2-7.8,6.9-9.4,11.1a10.2,10.2,0,0,0-2.5-.6H37.7a9.3,9.3,0,0,0-4.4,1.9A11.3,11.3,0,0,0,29,21.2L26.7,21a16.2,16.2,0,0,0-13.6,7.2,15.3,15.3,0,0,0-2.3,6.9C7,37.4,5,40.7,5.1,44.4v1.2l-.5.4-.4.4A12.2,12.2,0,0,0,8.7,67.3a14.4,14.4,0,0,0,6.2,9.2,15,15,0,0,0,8,2.4l2.2-.2a10.8,10.8,0,0,0,5.1,4.5,17.7,17.7,0,0,0,7.5,1.3h.8a44.9,44.9,0,0,0,7.3-.6l3.2-.6a12.9,12.9,0,0,0,9.6,4.4h.3a12.4,12.4,0,0,0,9.2,4.2,10.7,10.7,0,0,0,2.5-.3,12.1,12.1,0,0,0,7.6-5.5,14.9,14.9,0,0,0,3.6.5A12.3,12.3,0,0,0,93.7,70.5,12.1,12.1,0,0,0,95,56.7a9.6,9.6,0,0,0-3.6-3.6l-.7-1.4a14.8,14.8,0,0,0,1.6-16.1l-.7-1.1A16.9,16.9,0,0,0,89,31.7a19.1,19.1,0,0,0-2.1-1.4,20.2,20.2,0,0,0-3.4-1.4l-1.2-.2-2-.3a16.5,16.5,0,0,0,.6-3.2V23.7a22.3,22.3,0,0,0-3.1-12.4,21.1,21.1,0,0,0-2.6-3.5A23.3,23.3,0,0,0,58.7,0Z" style="fill:#2e5b1d"/><path d="M8.1,44.3A6.4,6.4,0,0,1,8,46.7a8.6,8.6,0,0,1-1.8,2,9.1,9.1,0,0,0-2.8,9.7,9.4,9.4,0,0,0,8,6.4A11.8,11.8,0,0,0,16.5,74a11.7,11.7,0,0,0,10.6,1.1,7,7,0,0,0,4.3,5.4,16.6,16.6,0,0,0,7,1,40.5,40.5,0,0,0,7-.6,20.4,20.4,0,0,0,6.4-1.8,12.3,12.3,0,0,0,5.9-13.6,20,20,0,0,0,4.6-11,12.2,12.2,0,0,0-4.8-10.6c-3.4-2.2-8.4-2-11.1,1-1-3.9-3.5-7.6-7.2-9s-8.8.7-9.5,4.7C31.2,31.4,7.8,34.3,8.1,44.3Z" style="fill:#2e5b1d"/><path d="M92.4,58.2a8.9,8.9,0,0,1-2.2,11.5A9.4,9.4,0,0,1,76.7,82.1a9.1,9.1,0,0,1-6.8,6.6A9.4,9.4,0,0,1,61,85.6a2,2,0,0,0-.6-.7,3.6,3.6,0,0,0-1.5-.2,10,10,0,0,1-2.6-19.8,1.8,1.8,0,0,0,1.6-2.1,14.3,14.3,0,0,1,9.9-12.1c5.5-1.7,8.8,1.1,13.7,2.8S89.8,54,92.4,58.2Z" style="fill:#2e5b1d"/><path d="M41,205.2c-2.2,0-6.1-.4-7.3-2.8a1.5,1.5,0,0,1,0-1.3c2.6-5.8,7.1-106.7,6.6-117a11.4,11.4,0,0,0-1.4-4.3,16.9,16.9,0,0,1-1.3-2.7,10.8,10.8,0,0,0-.8-1.9c-1-2.4-2.2-5-1.2-7.7A1.5,1.5,0,0,1,37,66.4h.3a1.5,1.5,0,0,1,1.2,1.6,5.3,5.3,0,0,0,2.3,4.4V64.1a1.4,1.4,0,0,1,1.4-1.4c0-.1,0-.1.1-.1a1.5,1.5,0,0,1,1.4,1.3,31,31,0,0,0,2.4,8.4c.2.4.5,1,.8,1.1h.1a2.7,2.7,0,0,0,1.5-.9,12.1,12.1,0,0,0,3.1-5.9,1.5,1.5,0,0,1,1.4-1.3h.1a1.4,1.4,0,0,1,1.4,1.2c.6,2.8-.4,5.9-3,9.2s-3.9,4.9-4,7.3c-2.4,57.2-.4,114.5,1.6,118.5a1.5,1.5,0,0,1-.5,1.9c-1.9,1.3-5.2,1.8-7.7,1.8Z" style="fill:#d8a960"/><path d="M42.4,64.1a33.8,33.8,0,0,0,2.4,8.8,3.2,3.2,0,0,0,1.7,1.9h.6a4,4,0,0,0,2.6-1.4,13.6,13.6,0,0,0,3.5-6.7c.6,2.8-.9,5.6-2.7,8s-4.2,5.3-4.4,8.2c-2.3,55.2-.5,114.5,1.8,119.1a13.8,13.8,0,0,1-6.9,1.6c-2.7,0-5.3-.6-6-2,2.9-6.2,7.4-106.6,6.8-117.7-.1-2.9-1.8-4.7-2.8-7.5s-3-5.7-2-8.6a7,7,0,0,0,5.2,6.9c.1-3.5.1-7.1.2-10.7m0-3h-.2a2.9,2.9,0,0,0-2.8,2.9v2A2.8,2.8,0,0,0,37.6,65H37A2.9,2.9,0,0,0,34.2,67c-1.2,3.3.2,6.3,1.3,8.8l.7,1.8c.4,1.1.9,2,1.3,2.9a9.3,9.3,0,0,1,1.3,3.6c.6,11.6-3.9,109.7-6.5,116.4a3,3,0,0,0,0,2.6c1.6,3.1,6.2,3.6,8.7,3.6s5.8-.2,8.6-2.1a3.1,3.1,0,0,0,1-3.8c-1.9-5-3.8-62.5-1.5-117.7.1-1.9,2.2-4.5,3.7-6.4q4.4-5.5,3.3-10.5a3,3,0,0,0-2.9-2.4h-.1a3.1,3.1,0,0,0-2.9,2.5,9.4,9.4,0,0,1-2.7,5.1h0a30.2,30.2,0,0,1-2.2-7.8,3,3,0,0,0-2.9-2.6Z" style="fill:#a8662f"/><path d="M18.4,46.7a13.1,13.1,0,0,1-2.8-16.8,13.2,13.2,0,0,1,16.5-4.6c-.7-3.5.2-7.4,3-9.5S42.5,14,44.3,17c1.7-5.3,4-11.2,9.1-13.2A13.5,13.5,0,0,1,58.6,3a20.5,20.5,0,0,1,16.6,9.8,20.3,20.3,0,0,1,.6,19.3,11.7,11.7,0,0,1,13.9,5,11.6,11.6,0,0,1-3,14.4c2.7,2.2,3.4,7.6,1.4,10.5a7.4,7.4,0,0,1-9.4,2.3,7.8,7.8,0,0,1-1.4,8,15,15,0,0,1-7.1,4.4,27.3,27.3,0,0,1-16.7.7A20.1,20.1,0,0,1,40.8,66.8C37,70,32.3,72.7,27.4,72.2s-9.6-5.6-8-10.3A8.1,8.1,0,0,1,13,54.8,8.2,8.2,0,0,1,18.4,46.7Z" style="fill:#6c9433"/><path d="M32.1,25.3c-.7-3.5.2-7.4,3-9.5S42.5,14,44.3,17c1.7-5.3,4-11.2,9.1-13.2A13.5,13.5,0,0,1,58.6,3a20.5,20.5,0,0,1,16.6,9.8,20.3,20.3,0,0,1,.6,19.3,11.7,11.7,0,0,1,13.9,5,11.6,11.6,0,0,1-3,14.4l.4.3a11.7,11.7,0,0,1-2.4.9c-4.4,1.2-10.2-.5-11.6-5.2a11.9,11.9,0,0,1-21.5-4.7,4.2,4.2,0,0,1-4.2,1.9,8.8,8.8,0,0,1-4.3-2.4,12.3,12.3,0,0,1-3.6-5.6,7.3,7.3,0,0,1,1-6.4,5.2,5.2,0,0,1-5.8,1.4,5.1,5.1,0,0,1-3-5.2c0-.5.1-.9.1-1.4Z" style="fill:#b9e48e;opacity:0.44"/><path d="M49.1,90.5a2.4,2.4,0,0,1-1.5-.4,2.8,2.8,0,0,1-1.1-1.7,2.6,2.6,0,0,1,.5-1.9L65.6,59.7a2.1,2.1,0,0,1,1.6-.8,1.7,1.7,0,0,1,1,.3,1.6,1.6,0,0,1,.9,1.2,1.7,1.7,0,0,1-.3,1.4L60.6,74.7l11.8-6,.8-.2a1.9,1.9,0,0,1,1.6.9,2.2,2.2,0,0,1,.2,1.4,1.4,1.4,0,0,1-.9,1.1L55.6,82.5l-4.4,6.9h-.1A2.5,2.5,0,0,1,49.1,90.5Z" style="fill:#d8a960"/><path d="M67.2,60.4h.2c.2.2.3.4.1.6L56.3,78.6,73.1,70h.1l.3.2c.1.1,0,.3-.1.4L54.5,81.4,50,88.5h0a1.2,1.2,0,0,1-.9.4c-.2,0-.5,0-.6-.2a1,1,0,0,1-.3-1.4L66.8,60.5h.4m0-3a3.4,3.4,0,0,0-2.8,1.4L45.7,85.6a4.3,4.3,0,0,0,1,5.7,4,4,0,0,0,2.4.7,3.9,3.9,0,0,0,3.3-1.7h.1l4.2-6.5L74.9,73.2A3.3,3.3,0,0,0,73.2,67a2.8,2.8,0,0,0-1.5.4l-6.9,3.5,5.3-8.3A3.4,3.4,0,0,0,69,57.9a2.9,2.9,0,0,0-1.8-.5Z" style="fill:#a8662f"/><path d="M39.2,87.1a2.5,2.5,0,0,1-1.5-.5l-16-12.4a2.8,2.8,0,0,1-.9-1.3L20.4,71a1.6,1.6,0,0,1-.3-.9l-.8-3.3a34.1,34.1,0,0,0-6.6-8.5,1.9,1.9,0,0,1-.2-2.5,1.7,1.7,0,0,1,1.4-.7,2.1,2.1,0,0,1,1.1.4L16.8,57l-1.3-5.3a2,2,0,0,1,1.3-2.4h.5a1.9,1.9,0,0,1,1.9,1.4l3.1,10.5L24.2,54A1.8,1.8,0,0,1,26,52.6h.3a2,2,0,0,1,1.5,2.2L24.9,69.9l.3,1,15.4,12a2.4,2.4,0,0,1,.9,1.6,2.4,2.4,0,0,1-2.3,2.6Z" style="fill:#d8a960"/><path d="M17.3,50.8c.2,0,.4.1.4.3L21.8,65l.6.8h0c0,.1,0,.1.1.1v.3l3.2-11.9c0-.1.1-.2.3-.2h0c.2,0,.3.2.3.4L23.3,70l.6,1.8L39.7,84.1a.8.8,0,0,1,.1,1.2.7.7,0,0,1-.6.3l-.6-.2L22.6,73h0a.5.5,0,0,1-.3-.5l-.5-2.1c-.2-.1-.2-.3-.2-.5l-.9-3.6a34.6,34.6,0,0,0-7-9.1.3.3,0,0,1,0-.4l.2-.2h.2A39.5,39.5,0,0,1,19.6,62L16.9,51.3a.5.5,0,0,1,.3-.5h.1m5.1,16h0m-5.1-19h-.9A3.4,3.4,0,0,0,14,52l.4,1.7h-.5a3.3,3.3,0,0,0-2.6,1.3,3.4,3.4,0,0,0,.3,4.5,32.8,32.8,0,0,1,6.3,8l.7,2.9.3,1.2.5,1.8a3.9,3.9,0,0,0,1.3,2L36.8,87.8a4.1,4.1,0,0,0,2.4.8,3.6,3.6,0,0,0,3-1.5,3.8,3.8,0,0,0-.7-5.4L26.5,70v-.2L29.2,55a3.3,3.3,0,0,0-2.6-3.9H26a3.2,3.2,0,0,0-3.2,2.5l-.6,2-1.6-5.4a3.5,3.5,0,0,0-3.3-2.4Z" style="fill:#a8662f"/></g></g></svg>