<svg xmlns="http://www.w3.org/2000/svg" viewBox="0 0 61.9 44.5"><g style="isolation:isolate"><g id="Layer_2" data-name="Layer 2"><g id="Layer_1-2" data-name="Layer 1"><g id="na_bird_nest" data-name="na_bird nest"><path d="M13.2,12.9C7.4,15,2.6,18.6,3.6,25.1c.8,4.9,5.5,9.8,9.6,12.2s13.5,5.2,19.1,5.1c7.9-.3,18-4.6,22.8-9.3s5.8-12,.2-17c-3.9-3.6-13-4.8-18-5.3s-16.7-.5-24.1,2.1" style="fill:#d8a960"/><path d="M21.6,14.8C15,15.6,8.9,18,8.1,21.1c-1.7,7,13.2,9.4,20.8,9.6,14.1.3,25.4-4.1,25.4-9.2S40.2,14.3,34.7,14a89.4,89.4,0,0,0-13.1.8" style="fill:#793420;opacity:0.5;mix-blend-mode:multiply"/><path d="M8.5,37.7a11.6,11.6,0,0,1,6.4.5.5.5,0,0,0,.4-.2c0-.2-.1-.4-.2-.4a12.7,12.7,0,0,0-6.7-.5c-.2,0-.3.2-.2.4S8.4,37.7,8.5,37.7Z" style="fill:#d8a960"/><path d="M7.6,36.4a15.2,15.2,0,0,0,5-1.9c.3-.2,0-.7-.3-.5a13.7,13.7,0,0,1-4.9,1.8C7,35.9,7.2,36.5,7.6,36.4Z" style="fill:#d8a960"/><path d="M41.3,40.4a28.6,28.6,0,0,1,7.7-.6.3.3,0,0,0,0-.6,29,29,0,0,0-7.8.6C40.8,39.9,40.9,40.5,41.3,40.4Z" style="fill:#d8a960"/><path d="M49.8,36.6a9.2,9.2,0,0,0,3.7-.5A5.6,5.6,0,0,0,56.6,34c.1-.1,0-.3-.1-.4s-.3,0-.4.1a5.7,5.7,0,0,1-2.8,1.8,8.3,8.3,0,0,1-3.5.5A.3.3,0,1,0,49.8,36.6Z" style="fill:#d8a960"/><path d="M14.9,40.7a11,11,0,0,0,4.4.7A8.1,8.1,0,0,0,23.6,40c.1-.1.2-.2.1-.4s-.3-.2-.4-.1a7.3,7.3,0,0,1-4,1.3,10,10,0,0,1-4.2-.7l-.4.2C14.6,40.5,14.7,40.6,14.9,40.7Z" style="fill:#d8a960"/><path d="M1,26.2A6.9,6.9,0,0,0,3.9,30a10.5,10.5,0,0,0,4.7,1.8.3.3,0,1,0,0-.6,11.2,11.2,0,0,1-4.3-1.6A5.8,5.8,0,0,1,1.6,26C1.5,25.6.9,25.8,1,26.2Z" style="fill:#d8a960"/><path d="M37.3,42.1a11,11,0,0,0,5.1-.5,12.7,12.7,0,0,0,4.9-2.5,6.4,6.4,0,0,0,2-2c.2-.4-.3-.7-.5-.3A11,11,0,0,1,44.9,40a15.7,15.7,0,0,1-5.2,1.6,8.1,8.1,0,0,1-2.2,0C37.1,41.5,37,42.1,37.3,42.1Z" style="fill:#d8a960"/><path d="M27.1,41.8a9.7,9.7,0,0,0,4,1.5,13.5,13.5,0,0,0,4.9-.1,7.2,7.2,0,0,0,4.4-2.8c.2-.3-.3-.6-.5-.3a6.2,6.2,0,0,1-3.5,2.4,12.9,12.9,0,0,1-4.8.3,10.6,10.6,0,0,1-4.2-1.5C27.1,41.1,26.8,41.6,27.1,41.8Z" style="fill:#d8a960"/><path d="M9.9,34.8A7.2,7.2,0,0,0,12.7,38a11.7,11.7,0,0,0,4.4,1.6,6.4,6.4,0,0,0,5.3-1.2.3.3,0,0,0-.5-.4A5.3,5.3,0,0,1,18,39.1a9.8,9.8,0,0,1-4.4-1.3,6.4,6.4,0,0,1-3.1-3.2C10.4,34.2,9.8,34.4,9.9,34.8Z" style="fill:#d8a960"/><path d="M17.6,38.7c.7,2.8,3.9,3.6,6.4,3.7a15,15,0,0,0,3.7-.4,8.1,8.1,0,0,0,2.9-1.2c.3-.2,0-.7-.3-.5a8.3,8.3,0,0,1-3.4,1.3,14.8,14.8,0,0,1-4.2.1c-1.9-.3-4.1-1.1-4.6-3.1A.3.3,0,1,0,17.6,38.7Z" style="fill:#d8a960"/><path d="M4.7,22.4c-1.9,2.4-1.7,5.7-.3,8.4s4.1,4.6,7.1,4.2a8,8,0,0,0,1.5-.3c.3-.2.2-.7-.2-.6A5.3,5.3,0,0,1,8.7,34a7,7,0,0,1-3.2-2.7c-1.6-2.3-2.2-5.6-.7-8l.4-.5a.3.3,0,0,0,0-.4Z" style="fill:#d8a960"/><path d="M8.3,15.6c3-2.6,6.9-3.8,10.6-5.1.3-.2.2-.7-.2-.6C15,11.3,11,12.5,7.9,15.2,7.6,15.5,8.1,15.9,8.3,15.6Z" style="fill:#d8a960"/><path d="M18.3,12.2A27.8,27.8,0,0,1,30,9.2a38.6,38.6,0,0,1,12.2,1.6,36.3,36.3,0,0,1,9.9,4.3c.3.2.6-.4.3-.6A40.1,40.1,0,0,0,41.3,9.9,39.3,39.3,0,0,0,29,8.7a28.2,28.2,0,0,0-11,3C17.7,11.9,18,12.4,18.3,12.2Z" style="fill:#d8a960"/><path d="M10.3,14a26.1,26.1,0,0,0-5.1,2.2A9.1,9.1,0,0,0,3.1,18,5.4,5.4,0,0,0,2,20.7a5.9,5.9,0,0,0,1.2,4.9,9.8,9.8,0,0,0,4.3,3.1,9.5,9.5,0,0,0,2.9.7.3.3,0,1,0,0-.6,10.2,10.2,0,0,1-5-1.9,7,7,0,0,1-2.8-4,5.7,5.7,0,0,1,1.4-5,10.6,10.6,0,0,1,4.7-2.7l1.7-.6C10.8,14.5,10.6,13.9,10.3,14Z" style="fill:#d8a960"/><path d="M51.5,14.9A26.9,26.9,0,0,1,57.1,17a5,5,0,0,1,1.2.8l1,1.2a5.4,5.4,0,0,1,.9,2.4,6.1,6.1,0,0,1-1.4,4.5,13.7,13.7,0,0,1-4.1,3.5,16.8,16.8,0,0,1-3,1.5c-.4.1-.2.7.1.6a16.6,16.6,0,0,0,4.7-2.6A12.3,12.3,0,0,0,60.1,25a6.2,6.2,0,0,0,.5-4.8,7.9,7.9,0,0,0-1.5-2.5A13.8,13.8,0,0,0,56.6,16a46.6,46.6,0,0,0-4.9-1.6A.3.3,0,1,0,51.5,14.9Z" style="fill:#d8a960"/><path d="M55.1,16c-3.9-3.5-13-4.8-18-5.3s-16.7-.5-24.2,2.1C7.1,14.9,2.4,18.5,3.4,25c.7,4.9,5.5,9.8,9.5,12.2A39.6,39.6,0,0,0,32,42.3c8-.3,18.1-4.5,22.8-9.3s5.9-11.9.3-17M28.7,30.6C21,30.4,6.2,28,7.9,21.1c.8-3.2,6.9-5.6,13.5-6.4a88.3,88.3,0,0,1,13-.8c5.5.3,19.6,2,19.6,7.5s-11.2,9.5-25.3,9.2" style="fill:#d8a960"/><path d="M20.1,37.3a35,35,0,0,0,6.2-2.9l4.8-3.3.3-.2c.2-.2,0-.5-.2-.4a40.7,40.7,0,0,1-4.8,3.3,33.6,33.6,0,0,1-6,3H20C19.8,37,19.9,37.4,20.1,37.3Z" style="fill:#ce894a;opacity:0.5;mix-blend-mode:multiply"/><path d="M19,36a28,28,0,0,0,8.9-5c.2-.2,0-.5-.2-.3a28.3,28.3,0,0,1-8.8,4.9C18.6,35.7,18.7,36.1,19,36Z" style="fill:#ce894a;opacity:0.5;mix-blend-mode:multiply"/><path d="M18.1,34.2a12.4,12.4,0,0,0,4.2-1.5,23,23,0,0,0,3.3-2.1c.2-.1-.1-.4-.3-.3a22,22,0,0,1-3.2,2.1A15.3,15.3,0,0,1,18,33.8C17.7,33.9,17.8,34.2,18.1,34.2Z" style="fill:#ce894a;opacity:0.5;mix-blend-mode:multiply"/><path d="M25.7,34.6a16.9,16.9,0,0,0,4.8,2.5,13.9,13.9,0,0,0,6.7.5c.2,0,.1-.4-.1-.4a13,13,0,0,1-6.5-.5,18.9,18.9,0,0,1-4.7-2.4C25.6,34.1,25.4,34.5,25.7,34.6Z" style="fill:#ce894a;opacity:0.5;mix-blend-mode:multiply"/><path d="M27.9,33.4a22.2,22.2,0,0,0,4.8,2,24.3,24.3,0,0,0,5.3.8h.6a.2.2,0,1,0,0-.4,15.4,15.4,0,0,1-5.2-.6,16.1,16.1,0,0,1-5-1.9l-.3-.2C27.9,32.9,27.7,33.2,27.9,33.4Z" style="fill:#ce894a;opacity:0.5;mix-blend-mode:multiply"/><path d="M29.3,32.2A25.5,25.5,0,0,0,34.6,34a24.2,24.2,0,0,0,5.4.7c.2,0,.2-.4,0-.4a22.5,22.5,0,0,1-5.2-.7,25.2,25.2,0,0,1-5.3-1.7C29.3,31.8,29.1,32.1,29.3,32.2Z" style="fill:#ce894a;opacity:0.5;mix-blend-mode:multiply"/><path d="M22.6,41a16.7,16.7,0,0,0,6.7-4.4c.2-.1-.1-.4-.3-.2a16.6,16.6,0,0,1-6.5,4.2C22.3,40.7,22.4,41.1,22.6,41Z" style="fill:#ce894a;opacity:0.5;mix-blend-mode:multiply"/><path d="M25.3,41.7a18.5,18.5,0,0,0,3.4-2.3l1.4-1.2a4.4,4.4,0,0,0,.9-1.1c.2-.3-.2-.5-.3-.2a4.1,4.1,0,0,1-.9,1l-1.4,1.2a14.6,14.6,0,0,1-3.3,2.2C24.9,41.5,25.1,41.8,25.3,41.7Z" style="fill:#ce894a;opacity:0.5;mix-blend-mode:multiply"/><path d="M27.7,42.2a11.5,11.5,0,0,0,2.9-2,12.8,12.8,0,0,0,2-2.6c.1-.2-.2-.4-.3-.2a11.2,11.2,0,0,1-1.9,2.4,8,8,0,0,1-2.8,2C27.4,41.9,27.5,42.3,27.7,42.2Z" style="fill:#ce894a;opacity:0.5;mix-blend-mode:multiply"/><path d="M37.2,37.6A17,17,0,0,0,44,28.8c.1-.2-.3-.3-.4-.1A16.4,16.4,0,0,1,37,37.2C36.8,37.4,37,37.7,37.2,37.6Z" style="fill:#ce894a;opacity:0.5;mix-blend-mode:multiply"/><path d="M41.5,36.2a12.1,12.1,0,0,0,3.4-4,14.2,14.2,0,0,0,1.7-4,.2.2,0,0,0-.4-.2,14,14,0,0,1-1.6,4,11.3,11.3,0,0,1-3.3,3.9C41.1,36,41.3,36.4,41.5,36.2Z" style="fill:#ce894a;opacity:0.5;mix-blend-mode:multiply"/><path d="M45.1,35.4c2.8-2,3.9-5.6,4.7-8.8.1-.3-.3-.4-.4-.1a25.7,25.7,0,0,1-1.5,4.7,10.5,10.5,0,0,1-3,3.9C44.7,35.2,44.9,35.6,45.1,35.4Z" style="fill:#ce894a;opacity:0.5;mix-blend-mode:multiply"/><path d="M15.3,28.8a10.5,10.5,0,0,0,1,2.8,6.1,6.1,0,0,0,.5,1.2l.3.5a19.2,19.2,0,0,0,2.3,3.5,21.1,21.1,0,0,0,3.8,3.5c.2.2.4-.2.2-.3a21.3,21.3,0,0,1-4.5-4.5,21.6,21.6,0,0,1-1.8-3l-.3-.8-.5-1.1a12.7,12.7,0,0,1-.6-1.8A.2.2,0,1,0,15.3,28.8Z" style="fill:#ce894a;opacity:0.5;mix-blend-mode:multiply"/><path d="M13.6,28.2a18,18,0,0,0,1,4.6,17.2,17.2,0,0,0,2.8,4.7,15.9,15.9,0,0,0,3.9,3.4c.3.1.5-.2.2-.4a15.8,15.8,0,0,1-6.8-8.6,15.1,15.1,0,0,1-.7-3.7C14,28,13.6,28,13.6,28.2Z" style="fill:#ce894a;opacity:0.5;mix-blend-mode:multiply"/><path d="M11.7,27.2a14.5,14.5,0,0,0,3,9.2,11.1,11.1,0,0,0,3.1,3c.2.1.4-.2.2-.3a13.7,13.7,0,0,1-5.7-9,26.4,26.4,0,0,1-.2-2.9A.2.2,0,1,0,11.7,27.2Z" style="fill:#ce894a;opacity:0.5;mix-blend-mode:multiply"/><path d="M9.8,34.8a6.2,6.2,0,0,0,3.6-1.6c.2-.1-.1-.4-.3-.2a6.5,6.5,0,0,1-3.3,1.4C9.6,34.4,9.6,34.8,9.8,34.8Z" style="fill:#ce894a;opacity:0.5;mix-blend-mode:multiply"/><path d="M8,33.2a7.6,7.6,0,0,0,4.6-1.4c.2-.1,0-.5-.2-.3A7.6,7.6,0,0,1,8,32.8C7.8,32.8,7.8,33.2,8,33.2Z" style="fill:#ce894a;opacity:0.5;mix-blend-mode:multiply"/><path d="M6.7,31.6a11.9,11.9,0,0,0,3.2-.3A4.1,4.1,0,0,0,12.4,30c.2-.2-.2-.4-.3-.2l-1,.7-1.4.4a7.7,7.7,0,0,1-3,.3A.2.2,0,1,0,6.7,31.6Z" style="fill:#ce894a;opacity:0.5;mix-blend-mode:multiply"/><path d="M5.4,29.1a3.8,3.8,0,0,1,.9-2.7,10.4,10.4,0,0,1,2.3-2.8.2.2,0,0,0-.3-.3,13.2,13.2,0,0,0-2.4,2.9A4.5,4.5,0,0,0,5,29.1.2.2,0,1,0,5.4,29.1Z" style="fill:#ce894a;opacity:0.5;mix-blend-mode:multiply"/><path d="M4.2,26.6a6.7,6.7,0,0,1,1.6-2.4,7.8,7.8,0,0,1,2.4-1.6c.2-.1.1-.5-.1-.4a7.4,7.4,0,0,0-2.5,1.7,5.6,5.6,0,0,0-1.7,2.6C3.8,26.7,4.2,26.8,4.2,26.6Z" style="fill:#ce894a;opacity:0.5;mix-blend-mode:multiply"/><path d="M3.6,24.1A8.6,8.6,0,0,1,8.2,21c.2,0,.1-.4-.1-.4a8.1,8.1,0,0,0-4.8,3.3C3.2,24.1,3.5,24.4,3.6,24.1Z" style="fill:#ce894a;opacity:0.5;mix-blend-mode:multiply"/><path d="M48.8,29.9h1.6l2.1.6a7,7,0,0,1,2,.8,3.4,3.4,0,0,1,1.2.9c.1.2.5,0,.3-.2a2.3,2.3,0,0,0-1.2-1,7.2,7.2,0,0,0-2-.9l-2.2-.5a5.5,5.5,0,0,0-1.8-.2C48.6,29.5,48.6,29.9,48.8,29.9Z" style="fill:#ce894a;opacity:0.5;mix-blend-mode:multiply"/><path d="M48.4,31.1a19.7,19.7,0,0,1,3.5.6,7.4,7.4,0,0,1,2.8,1.4c.2.2.5-.1.3-.2a6.7,6.7,0,0,0-2.9-1.5,16.1,16.1,0,0,0-3.7-.7A.2.2,0,1,0,48.4,31.1Z" style="fill:#ce894a;opacity:0.5;mix-blend-mode:multiply"/><path d="M47.9,32.2a7.4,7.4,0,0,1,3,.8,9.7,9.7,0,0,1,2.4,1.5c.2.1.5-.1.3-.3a10.4,10.4,0,0,0-2.5-1.5,7.3,7.3,0,0,0-3.2-.9C47.7,31.7,47.7,32.1,47.9,32.2Z" style="fill:#ce894a;opacity:0.5;mix-blend-mode:multiply"/><path d="M53.7,19.8a5.7,5.7,0,0,1,2.6.1,3.8,3.8,0,0,1,2.2,1.3c.2.2.5,0,.4-.2a4.7,4.7,0,0,0-2.4-1.5,7.5,7.5,0,0,0-3-.1C53.3,19.4,53.4,19.8,53.7,19.8Z" style="fill:#ce894a;opacity:0.5;mix-blend-mode:multiply"/><path d="M53.7,20.9c1.8-.1,4.2.3,5.1,2.1.1.2.4,0,.3-.2-1-2-3.4-2.4-5.4-2.3C53.5,20.5,53.5,20.9,53.7,20.9Z" style="fill:#ce894a;opacity:0.5;mix-blend-mode:multiply"/><path d="M53.8,22.5c1.9,0,4.2.4,5.1,2.2.1.2.4,0,.3-.2-1-2-3.4-2.4-5.4-2.4C53.6,22.1,53.6,22.5,53.8,22.5Z" style="fill:#ce894a;opacity:0.5;mix-blend-mode:multiply"/><path d="M33.5,33.6A20,20,0,0,0,35.9,32a9.8,9.8,0,0,0,1.8-1.7.2.2,0,1,0-.3-.3,13.7,13.7,0,0,1-1.7,1.7l-2.4,1.6C33,33.4,33.2,33.7,33.5,33.6Z" style="fill:#ce894a;opacity:0.5;mix-blend-mode:multiply"/><path d="M35.1,34.1a11.8,11.8,0,0,0,2.8-2.2A6.4,6.4,0,0,0,39.2,30c.1-.2-.2-.4-.3-.2a5.9,5.9,0,0,1-1.3,1.8,9,9,0,0,1-2.7,2.1C34.6,33.8,34.8,34.2,35.1,34.1Z" style="fill:#ce894a;opacity:0.5;mix-blend-mode:multiply"/><path d="M35.4,42.1a26.6,26.6,0,0,1,5.8-3,18.2,18.2,0,0,1,6.5-1.2h.8c.2,0,.2-.4,0-.4a28.4,28.4,0,0,0-6.5,1,21.3,21.3,0,0,0-5.9,2.8l-.9.6C35,41.9,35.2,42.3,35.4,42.1Z" style="fill:#ce894a;opacity:0.5;mix-blend-mode:multiply"/><path d="M33.1,42.1,38.2,39A23.9,23.9,0,0,1,44,36.8a10.3,10.3,0,0,1,5.5.2c.2.1.3-.3.1-.3-3.9-1.4-8.2.2-11.6,2a53.3,53.3,0,0,0-5.1,3.1C32.7,41.9,32.9,42.3,33.1,42.1Z" style="fill:#ce894a;opacity:0.5;mix-blend-mode:multiply"/><path d="M30.7,42.3a31.5,31.5,0,0,1,10.4-5.9,14.9,14.9,0,0,1,10.2-.2c.2.1.3-.2.1-.3-3.8-1.6-8-.9-11.7.5a34.2,34.2,0,0,0-9.3,5.7C30.2,42.2,30.5,42.5,30.7,42.3Z" style="fill:#ce894a;opacity:0.5;mix-blend-mode:multiply"/><path d="M53.5,30.6a6.3,6.3,0,0,0,.8-4.8,3,3,0,0,0-1.2-1.9h-.4c-.1.1,0,.3.1.4a.2.2,0,0,0,.3-.3c-.1,0-.1,0-.1-.1h0c.1.1-.1.3-.2.3h.1a.1.1,0,0,0,.1.1h.1c.1,0,.1.1.2.2l.3.4a4.6,4.6,0,0,1,.2,3.8,4.4,4.4,0,0,1-.6,1.6C53.1,30.6,53.4,30.8,53.5,30.6Z" style="fill:#ce894a;opacity:0.5;mix-blend-mode:multiply"/><path d="M54.4,30.9c1.8-2.2,2.3-6.5-.7-7.9-.2-.1-.4.3-.2.4,2.7,1.2,2.3,5.2.6,7.2C54,30.8,54.3,31.1,54.4,30.9Z" style="fill:#ce894a;opacity:0.5;mix-blend-mode:multiply"/><path d="M55.4,31.5a7,7,0,0,0,2.4-5.7A3.4,3.4,0,0,0,56.7,24a11.3,11.3,0,0,0-1.8-1.2,2.1,2.1,0,0,1-1-.6c-.2-.1-.4.2-.2.4l2,1.2a2.9,2.9,0,0,1,1.5,1.4,4.2,4.2,0,0,1,0,2.7,7.5,7.5,0,0,1-1.6,2.9l-.4.5C55,31.4,55.3,31.7,55.4,31.5Z" style="fill:#ce894a;opacity:0.5;mix-blend-mode:multiply"/><path d="M5.7,29.3a2.7,2.7,0,0,1,.8-.7L8,27.8a6.3,6.3,0,0,1,3.8-.4c.3,0,.4-.3.1-.4a6.8,6.8,0,0,0-4,.4,8.3,8.3,0,0,0-1.6.9,2.4,2.4,0,0,0-.9.8C5.2,29.4,5.6,29.6,5.7,29.3Z" style="fill:#ce894a;opacity:0.5;mix-blend-mode:multiply"/><path d="M5.8,27.8a5.6,5.6,0,0,1,4.6-1.6c.2.1.3-.3.1-.3a5.8,5.8,0,0,0-5,1.6A.2.2,0,1,0,5.8,27.8Z" style="fill:#ce894a;opacity:0.5;mix-blend-mode:multiply"/><path d="M6.9,25.8a5,5,0,0,1,2-.8c.2,0,.1-.4-.1-.4a4.9,4.9,0,0,0-2.1.8C6.5,25.6,6.7,25.9,6.9,25.8Z" style="fill:#ce894a;opacity:0.5;mix-blend-mode:multiply"/><path d="M6.8,16.8c2.8-1.7,6.5-1.6,9.7-1.1.2,0,.4-.4.1-.4-3.3-.5-7.1-.6-10,1.1C6.3,16.6,6.5,16.9,6.8,16.8Z" style="fill:#ce894a;opacity:0.5;mix-blend-mode:multiply"/><path d="M9,15a12,12,0,0,1,4.6-.7,10.6,10.6,0,0,1,2.5.2,4.4,4.4,0,0,1,1.9.7c.3.1.5-.2.2-.3a5.4,5.4,0,0,0-1.9-.8,11.4,11.4,0,0,0-2.6-.2,13,13,0,0,0-4.8.7C8.6,14.7,8.7,15.1,9,15Z" style="fill:#ce894a;opacity:0.5;mix-blend-mode:multiply"/><path d="M10.7,15.2c-.8,1.1-2.3,2.4-1.8,4s.4.1.3-.1a2.2,2.2,0,0,1,.5-1.9L11,15.5A.2.2,0,0,0,10.7,15.2Z" style="fill:#ce894a;opacity:0.5;mix-blend-mode:multiply"/><path d="M11.9,15.3A6.5,6.5,0,0,0,10.3,17c-.2.4-.8,1.3-.1,1.6s.4-.2.2-.3v-.4a4.1,4.1,0,0,1,.5-.9,4,4,0,0,1,1.3-1.3C12.3,15.5,12.1,15.2,11.9,15.3Z" style="fill:#ce894a;opacity:0.5;mix-blend-mode:multiply"/><path d="M13.3,15a4.3,4.3,0,0,0-2,2.9c0,.2.4.2.4,0a3.7,3.7,0,0,1,.7-1.4,3.2,3.2,0,0,1,1.1-1.2C13.7,15.2,13.5,14.8,13.3,15Z" style="fill:#ce894a;opacity:0.5;mix-blend-mode:multiply"/><path d="M45.8,15.8a16.6,16.6,0,0,1,3.7-.9l2-.2c.4.1,1,.1,1.3.4s.5-.2.3-.3a2.3,2.3,0,0,0-1.4-.4,6.6,6.6,0,0,0-2,.1,13.7,13.7,0,0,0-4,.9C45.5,15.5,45.6,15.9,45.8,15.8Z" style="fill:#ce894a;opacity:0.5;mix-blend-mode:multiply"/><path d="M47.1,16.4a16.6,16.6,0,0,1,3.7-.9h2.1c.3,0,.9,0,1.1.2a.2.2,0,1,0,.3-.3A1.9,1.9,0,0,0,53,15a7.4,7.4,0,0,0-2.1.1A17,17,0,0,0,47,16C46.7,16.1,46.8,16.4,47.1,16.4Z" style="fill:#ce894a;opacity:0.5;mix-blend-mode:multiply"/><path d="M48.7,17.1l1.5-.4,1.9-.2h1.8l1.2.2c.3.1.4-.3.1-.4l-1.3-.2H52.1a8.8,8.8,0,0,0-3.6.6C48.3,16.9,48.5,17.2,48.7,17.1Z" style="fill:#ce894a;opacity:0.5;mix-blend-mode:multiply"/><path d="M37.9,11.4a9.9,9.9,0,0,1,2.8,1.9,5.7,5.7,0,0,1,1.1,1.1l.7.8c.1.2.5,0,.3-.2a2.7,2.7,0,0,0-.7-.8A6.3,6.3,0,0,0,41,13a9.8,9.8,0,0,0-3-2C37.7,10.9,37.6,11.3,37.9,11.4Z" style="fill:#ce894a;opacity:0.5;mix-blend-mode:multiply"/><path d="M40.2,11.5a6.7,6.7,0,0,1,2.5,1.9c.7.7,1.3,1.5,2,2.1a.2.2,0,0,0,.3-.3,13.1,13.1,0,0,1-2-2.1,8.2,8.2,0,0,0-2.6-2A.2.2,0,0,0,40.2,11.5Z" style="fill:#ce894a;opacity:0.5;mix-blend-mode:multiply"/><path d="M42.5,11.7a5.7,5.7,0,0,1,2,1.8,22.6,22.6,0,0,0,1.3,2,.2.2,0,1,0,.3-.3c-.5-.6-.9-1.4-1.4-2.1a7,7,0,0,0-2-1.8C42.4,11.2,42.2,11.6,42.5,11.7Z" style="fill:#ce894a;opacity:0.5;mix-blend-mode:multiply"/><path d="M24.9,14.5a23.1,23.1,0,0,1,8.3-3.4c.2,0,.1-.4-.1-.4a23.8,23.8,0,0,0-8.4,3.5C24.5,14.3,24.7,14.7,24.9,14.5Z" style="fill:#ce894a;opacity:0.5;mix-blend-mode:multiply"/><path d="M22.5,14.8c2.1-1.7,4.4-3.5,7.3-3.8.2,0,.2-.4,0-.4-3,.3-5.4,2.1-7.6,3.9A.2.2,0,0,0,22.5,14.8Z" style="fill:#ce894a;opacity:0.5;mix-blend-mode:multiply"/><path d="M20.2,15.1a14.8,14.8,0,0,1,3-2.6,11.3,11.3,0,0,1,4.1-1.6c.2-.1.1-.5-.1-.4A12.8,12.8,0,0,0,23,12.2a13,13,0,0,0-3.1,2.6A.2.2,0,0,0,20.2,15.1Z" style="fill:#ce894a;opacity:0.5;mix-blend-mode:multiply"/><path d="M28.9,12.6c1.5,0,2.7,1,3.8,1.8s.4-.2.2-.3-2.5-1.9-4-1.9S28.7,12.6,28.9,12.6Z" style="fill:#ce894a;opacity:0.5;mix-blend-mode:multiply"/><path d="M30.1,11.9c1.7.4,2.7,1.9,4.2,2.4s.4-.3.1-.4a7.6,7.6,0,0,1-1.9-1.2,6.3,6.3,0,0,0-2.3-1.2C30,11.5,29.9,11.9,30.1,11.9Z" style="fill:#ce894a;opacity:0.5;mix-blend-mode:multiply"/><path d="M31.7,11.2a10.4,10.4,0,0,1,4.1,3.1.2.2,0,1,0,.3-.3,10.7,10.7,0,0,0-4.2-3.1C31.6,10.8,31.4,11.1,31.7,11.2Z" style="fill:#ce894a;opacity:0.5;mix-blend-mode:multiply"/><path d="M23.9,17.8c-5,.6-9.5,2.4-10.2,4.8-1.3,5.2,10,7.1,15.8,7.2,10.6.3,19.1-3,19.1-6.9S38,17.4,33.8,17.2a64.7,64.7,0,0,0-9.9.6" style="fill:#793420;opacity:0.5;mix-blend-mode:multiply"/><path d="M31.5,8.6a40.6,40.6,0,0,1,9.8,1.3,39.9,39.9,0,0,1,8.9,3.4A25.6,25.6,0,0,1,53.9,15l2.7,1a13.8,13.8,0,0,1,2.5,1.7,7.9,7.9,0,0,1,1.5,2.5,6.2,6.2,0,0,1-.5,4.8A9.1,9.1,0,0,1,59,26.6a14.3,14.3,0,0,1-3,5.5h0a.2.2,0,0,1-.1.3c-.1,0-.1,0-.1-.1l-.7.8-1.4,1.2a.2.2,0,0,1-.2.2h-.1a13.3,13.3,0,0,1-1.9,1.4,5.8,5.8,0,0,0,1.8-.4,5.7,5.7,0,0,0,2.8-1.8h.4c.1.1.2.3.1.4a5.6,5.6,0,0,1-3.1,2.1,10.5,10.5,0,0,1-3,.5l-1.5.8a6.9,6.9,0,0,1-1.7,1.7H49a.3.3,0,0,1,0,.6H46.4a14.4,14.4,0,0,1-4,1.8,11.5,11.5,0,0,1-3.7.6h-.2a7.7,7.7,0,0,1-2.5,1,11.5,11.5,0,0,1-2.6.3l-2.3-.2a15,15,0,0,1-3.4-1.1h-.2l-3.1.3H24a8.7,8.7,0,0,1-4.4-1.1h-.9a9.9,9.9,0,0,1-3.8-.7c-.2-.1-.3-.2-.2-.4s.1-.2.3-.2h.1a8.6,8.6,0,0,0,3.6.7h.1l-.9-1.1h-.8A11.7,11.7,0,0,1,12.7,38l-.7-.5H11l-2.5.2h0c-.2,0-.3-.1-.3-.2s0-.4.2-.4l2.7-.2h.2a6.4,6.4,0,0,1-1-1.3,13.8,13.8,0,0,1-2.7.8H7.5a.3.3,0,0,1-.1-.6,11.1,11.1,0,0,0,2.6-.7l-.2-.2a8,8,0,0,1-5.4-4.1c-.1-.2-.1-.4-.2-.6L3.9,30A6.9,6.9,0,0,1,1,26.2c0-.2.1-.4.3-.4s.3.1.3.2a5.5,5.5,0,0,0,2.2,3.2,8,8,0,0,1-.4-3.4l-.2-.2A5.9,5.9,0,0,1,2,20.7,5.4,5.4,0,0,1,3.1,18a9.1,9.1,0,0,1,2.1-1.8,15.8,15.8,0,0,1,3.5-1.6c3-2.3,6.6-3.4,10-4.7h.1a.3.3,0,0,1,.1.6c-2.2.8-4.5,1.6-6.6,2.6l.6-.3a41.6,41.6,0,0,1,5.6-1.4A29.6,29.6,0,0,1,29,8.7h2.5M20.8,11.1c2-.3,4.1-.4,6-.5h4l6.3.2,3.2.4h.1l2,.3h.3l.2.2,3.5.7a23,23,0,0,0-4.2-1.4A38.5,38.5,0,0,0,31.5,9.2H30a31.4,31.4,0,0,0-9.2,1.9M3.4,24.8a9.1,9.1,0,0,1,3.8-9A8.5,8.5,0,0,0,4,17.9a5.7,5.7,0,0,0-1.4,5,4.6,4.6,0,0,0,.8,1.9m55.8.5a5.5,5.5,0,0,0,1-3.9,5.4,5.4,0,0,0-.9-2.4l-1-1.2a5,5,0,0,0-1.2-.8l-1.7-.8a11.1,11.1,0,0,1,3.2,4.5l.3.3c.1.1,0,.2-.1.2a8.1,8.1,0,0,1,.4,4.1m-53.6,5A13.7,13.7,0,0,1,4,27.1a8.8,8.8,0,0,0,.6,2.7l1,.5m3.2,3.8-.9-1h0a10.7,10.7,0,0,1-1.4-1.6h0c-.1-.1-.1-.2-.2-.2l-1.2-.6a2.1,2.1,0,0,0,.4.6A7,7,0,0,0,8.7,34h.1M12.5,37l-.9-.6.6.5h.3m3.4,1.8-1.8-.9-.7-.2h.2l2.3,1m29.4.4h.9l1.3-1-2.2,1m-6,2.4h.4A15.7,15.7,0,0,0,44.9,40l.3-.2-1.9.2-3.5,1.1a1.2,1.2,0,0,1-.5.5m-19.5-.9h1l-.9-.3-1.1-.4a3.9,3.9,0,0,0,1,.8m4.5,1.1h.8l-3.2-.8-1.2.3,2,.5h1.6m14-.2h0m-3,.6a.1.1,0,0,1-.1-.1l-2.9.3H30.6c0,.1,0,.1-.1.1H29.4l2.2.5h1.8a10.3,10.3,0,0,0,3-.4l.9-.4h0c-.2,0-.2-.2-.1-.3l-1.7.2a.1.1,0,0,1-.1.1.1.1,0,0,1-.1.1M31.5,7.6H28.9a28.3,28.3,0,0,0-8.9,2,1.3,1.3,0,0,0-1.2-.8h-.4l-1.5.5a33.2,33.2,0,0,0-8.7,4.2,14.7,14.7,0,0,0-3.6,1.7,7.4,7.4,0,0,0-2.3,2A7.9,7.9,0,0,0,1,20.5a6.5,6.5,0,0,0,.6,4.3H1.3a1.2,1.2,0,0,0-1,.5A1.1,1.1,0,0,0,0,26.4a7.6,7.6,0,0,0,3.4,4.5h0c0,.1.1.2.1.3A9.6,9.6,0,0,0,7,34.9a1.3,1.3,0,0,0-.8,1.3,1.4,1.4,0,0,0,1,1.2v.3a1.4,1.4,0,0,0,1.3,1h.2a9.3,9.3,0,0,1,2.3-.2h.7l.4.3,1.8,1-.2.3a1.2,1.2,0,0,0,.8,1.5,11.6,11.6,0,0,0,4.2.8h.7A10.4,10.4,0,0,0,24,43.4h.4l2.9-.3h.1A9.6,9.6,0,0,0,31,44.3l2.4.2a13.3,13.3,0,0,0,2.8-.3,6.9,6.9,0,0,0,2.5-1h0a15.4,15.4,0,0,0,8-2.4H49a1.3,1.3,0,0,0,.6-2.5h.1l1.1-.6a8,8,0,0,0,3-.6,6.8,6.8,0,0,0,3.6-2.4,1.1,1.1,0,0,0,.2-1,1.6,1.6,0,0,0-.6-.8h-.1l.2-.3a14.3,14.3,0,0,0,2.8-5.3A11.6,11.6,0,0,0,61,25.5a7.3,7.3,0,0,0,.5-5.6A7.7,7.7,0,0,0,59.8,17,15.2,15.2,0,0,0,57,15.1l-2.7-1a21.4,21.4,0,0,0-3.7-1.7,39.1,39.1,0,0,0-9-3.5A44.4,44.4,0,0,0,31.5,7.6Z" style="fill:#75411a"/><path d="M24.6,9.7c-1,5.7,1.4,10.9,5,11.6s7.8-3.3,8.9-9-1.3-11-5-11.7S25.7,3.9,24.6,9.7Z" style="fill:#dfcfcf;stroke:#8d8d8d;stroke-miterlimit:10"/><path d="M14.7,21c2.2,6.2,7.5,9.9,11.5,8.4s5.6-7.7,3.4-13.8S22,5.7,18.1,7.1,12.4,14.8,14.7,21Z" style="fill:#fff;stroke:#ddab88;stroke-linecap:round;stroke-linejoin:round"/><path d="M32.8,18.2c-1,5.7,1.4,11,5,11.7s7.8-3.4,8.9-9.1-1.3-11-5-11.7S33.9,12.5,32.8,18.2Z" style="fill:#fff;stroke:#ddab88;stroke-linecap:round;stroke-linejoin:round"/></g></g></g></g></svg>