<svg xmlns="http://www.w3.org/2000/svg" viewBox="0 0 106 162.8"><g style="isolation:isolate"><g id="Layer_2" data-name="Layer 2"><g id="Layer_1-2" data-name="Layer 1"><path d="M57.5,97.6s1.9,3.3,1.9,4.1-9.2,5.2-18.2.1l4.9-6Z" style="fill:#7a7572"/><path d="M53.5,103.6l.9,1.5a.8.8,0,0,0,.2.4c4.6,8.1,22.3,39,22.8,40s8.8.1,7.5-2.8a25.6,25.6,0,0,0-1.4-2.6C79.1,132,66.1,109.6,62,102.6v-.2l-1.1-1.9H59.5a6.4,6.4,0,0,0-2.2.4,8.7,8.7,0,0,0-3,2Z" style="fill:#8d8d8d"/><path d="M53.5,103.6l.9,1.5a6.8,6.8,0,0,0,1.7-.7c2.8-2.1,4.8-2.2,5.8-2l-1.1-1.9S56.8,99.5,53.5,103.6Z" style="fill:#323657"/><path d="M54.3,102.8l.3,2.7c4.6,8.1,22.3,39,22.8,40s8.8.1,7.5-2.8a25.6,25.6,0,0,0-1.4-2.6c-1.2.4-4.1.8-7.5-2.3s-16.6-28-17.4-31.8c-.4-2.3,1.7-3.1,3.4-3.4v-.2l-1.1-1.9H59.5l-2.2.4A8.7,8.7,0,0,0,54.3,102.8Z" style="fill:#b5aca9;opacity:0.28;mix-blend-mode:multiply"/><path d="M42.8,89.4v8.8a12.3,12.3,0,0,0,7.3,2.2,19.9,19.9,0,0,0,9.1-2.2V89.4Z" style="fill:#8d8d8d"/><path d="M49.3,102.8h0a13.5,13.5,0,0,0,.3,2c1.6,9.8,8.2,51.6,8.7,52.7s1.3.9,2.6,1.1a7.1,7.1,0,0,0,3.9-.4,1.9,1.9,0,0,0,1-2,36.5,36.5,0,0,0-.5-3.9c-1.7-11.2-6.8-40.7-8.1-48.4a19,19,0,0,0-.4-1.9S53.5,99.6,49.3,102.8Z" style="fill:#cecece"/><path d="M14.8,148.3a6.8,6.8,0,0,0,2,.7h0c1.4.4,2.7.4,3,0s19.6-33.8,24.9-43.2l1.4-2.4c-2.9-4.3-6.9-3.2-6.9-3.2l-.9,1.5v.3c-4,6.8-18.2,30.8-23.3,40l-1.8,3.3C12.5,146.6,13.4,147.6,14.8,148.3Z" style="fill:#cecece"/><path d="M14.8,148.3l2,.7h0c1.4.4,2.7.4,3,0s19.6-33.8,24.9-43.2l1.4-2.4c-2.9-4.3-6.9-3.2-6.9-3.2l-.9,1.5v.3a19.3,19.3,0,0,1,1.9,5.6c.8,4.5-14.8,29-18,32.1s-5.6,2.4-7.2,2.3l-1.8,3.3C12.5,146.6,13.4,147.6,14.8,148.3Z" style="fill:#b5aca9;opacity:0.28;mix-blend-mode:multiply"/><path d="M49.3,102.9a13.5,13.5,0,0,0,.3,2c1.6,9.8,8.2,51.6,8.7,52.7s1.3.9,2.6,1.1l3.9-.4a1.9,1.9,0,0,0,1-2,36.5,36.5,0,0,0-.5-3.9c-1.4-.2-4.8-1.2-7.1-6.9s-7.7-42.6-7.7-42.6Z" style="fill:#b5aca9;opacity:0.28;mix-blend-mode:multiply"/><path d="M42.8,89.4v8.8a12.3,12.3,0,0,0,7.3,2.2,19.9,19.9,0,0,0,9.1-2.2V97c-1.4.6-5.9,2.2-9.5-.3s-3.1-5.5-2.9-7.3Z" style="fill:#b5aca9;opacity:0.28;mix-blend-mode:multiply"/><path d="M42.8,89.4c0-.9,3.7-1.6,8.2-1.6s8.2.7,8.2,1.6-3.6,2.9-8.1,2.8S42.8,90.3,42.8,89.4Z" style="fill:#e3d8d3"/><path d="M57.3,82.1v7.1s-6.9,3.3-12.6-.3V82.1Z" style="fill:#99918f"/><path d="M44.7,82.1v6.8l1.4.7a2,2,0,0,0,.8.4l2,.5h4l2-.4.7-.2,1.7-.7V82.1Z" style="fill:#99918f"/><path d="M54.9,90.1l.7-.2c0-2.6,0-5.2-.2-7.8h-.7C54.9,84.8,54.9,87.4,54.9,90.1Z" style="fill:#b0a7a4"/><path d="M52.2,90.6h.7V86.7c0-1.5-.1-3-.2-4.6h-.6c0,1.8.1,3.5.1,5.2Z" style="fill:#b0a7a4"/><path d="M48.9,90.5h.8c0-2.8,0-5.7-.2-8.5h-.6Q49.1,86.3,48.9,90.5Z" style="fill:#b0a7a4"/><path d="M46,82.1c0,2.5,0,5,.1,7.5a2,2,0,0,0,.8.4c0-2.6-.1-5.3-.3-7.9Z" style="fill:#b0a7a4"/><path d="M44.7,82.1c0-.8,2.8-1.5,6.3-1.5s6.3.7,6.3,1.5-2.8,1.6-6.3,1.6S44.7,83,44.7,82.1Z" style="fill:#8d8d8d"/><path d="M19.9,36.1s-2.6-3.7-3.6-4S10.6,32,7,35.3s-4.3,8.3-4,9,3.5,3.9,3.5,3.9Z" style="fill:#323657"/><path d="M50.1,64s2.8,16.9,2.8,17.8-3.3,1.3-3.9.5-5.4-17.5-5.4-17.5Z" style="fill:#9e9694"/><path d="M36,69.5s4.2,9.1,5.2,9.6a6.1,6.1,0,0,0,3-.1,23.4,23.4,0,0,0,5.9-2.1c4-2.1,8.1-4.6,7.9-5.4a54.6,54.6,0,0,0-2.4-5.1L53.9,63Z" style="fill:#565a82"/><path d="M36,69.5s4.2,9.1,5.2,9.6a6.1,6.1,0,0,0,3-.1c.1-5.5,8.6-11,11.4-12.6L53.9,63Z" style="fill:#565a82;opacity:0.22;mix-blend-mode:multiply"/><path d="M5.1,48.5c.2,1.3,6.3,8.2,6.3,8.2L24.3,42.4l.5-.7,3.1-3.4s-.8-.9-2-2a24.5,24.5,0,0,0-4.1-3.1c-1-.5-2.6-.3-4.4.4l-1,.5a26.6,26.6,0,0,0-4.1,2.5l-.8.6L9.3,39.1a12.9,12.9,0,0,0-1.6,1.8l-.7.9a13.8,13.8,0,0,0-1.6,3.6A7.5,7.5,0,0,0,5.1,48.5Z" style="fill:#3e426b"/><path d="M16.4,34.1l2.7,2.7,5.2,5.6h0c.2.3,1.3.1,1.2,0l-.7-.7c-1.4-1.7-3-3.3-4.5-5l-2.9-3.1Z" style="fill:#636796"/><path d="M11.5,37.2l2.4,2.6,5.4,6a1.2,1.2,0,0,0,.8.2c.1,0,.7,0,.5-.2l-5.4-6.1-2.7-2.9a.2.2,0,0,0-.2-.2Z" style="fill:#636796"/><path d="M7,41.8l2.1,2.5L14,50.2c.2.3,1.4.1,1.3,0l-4.9-6L8,41.3l-.3-.4Z" style="fill:#636796"/><path d="M5.1,48.5c.2,1.3,6.3,8.2,6.3,8.2L24.3,42.4l.5-.7,3.1-3.4s-.8-.9-2-2c-2,1.1-7.9,4.6-13.1,8.3-3.4,2.4-5.9,1.8-7.4.8A7.5,7.5,0,0,0,5.1,48.5Z" style="fill:#5d64a6;opacity:0.27;mix-blend-mode:multiply"/><path d="M18.3,43,30.1,68.4l3.2,7.1.5-.2h0L62,61.4l12.7-6.2L46.8,27.5l-2.1-2.1-6.8,4.5Z" style="fill:#474a6b"/><path d="M12.8,65.3a21.6,21.6,0,0,0,5.5,7.3c4.5,3.8,10.2,5.1,15,2.9l.5-.2h0c6.8-3.5,9.1-13.2,5-22A16.5,16.5,0,0,0,37,50h0c-4.7-6.8-12.5-9.9-18.7-7S8.6,56.3,12.8,65.3Z" style="fill:#474a6b"/><path d="M18.3,72.6c4.5,3.8,10.2,5.1,15,2.9l.5-.2h0L62,61.4,46.8,27.5l-2.1-2.1-6.8,4.5A110.2,110.2,0,0,1,37,50h0c-.8,5.4-2.2,10.9-4.6,15.1a17.4,17.4,0,0,1-2.3,3.3A14.1,14.1,0,0,1,18.3,72.6Z" style="fill:#5d64a6;opacity:0.27;mix-blend-mode:multiply"/><path d="M45.2,49.8a50.1,50.1,0,0,0,4.5,6.8C58,66.9,66,65.4,66,65.4l5.5-2.7,2.1-1,3.2-1.6,2.4-1.2,15.4-7.5-1.7-3.8L72.7,4.1,54.8,15.4l-.6.4-4.3,2.7-.7.4-6.1,3.9S36.5,33.9,45.2,49.8Z" style="fill:#565a82"/><path d="M49.7,56.6C58,66.9,66,65.4,66,65.4l5.5-2.7,2.1-1,3.2-1.6,2.4-1.2,15.4-7.5-1.7-3.8c-8.9-6.4-24.8-17-24.8-17S71.2,48.9,49.7,56.6Z" style="fill:#5d64a6;opacity:0.27;mix-blend-mode:multiply"/><ellipse cx="83.6" cy="27.8" rx="17.5" ry="26.1" transform="translate(-3.9 37.8) rotate(-24.9)" style="fill:#6e74b0"/><path d="M72.7,32.8c2.9,6.2,7.4,10.7,11.9,12.5a10,10,0,0,0,8.1.2h0c6.4-3,7.9-13.5,3.3-23.4-2.9-6.2-7.4-10.7-11.9-12.5A10,10,0,0,0,76,9.4c-3.1,1.4-5.1,4.6-5.7,8.7A25.7,25.7,0,0,0,72.7,32.8Z" style="fill:#4c5082"/><path d="M72.7,32.8c2.9,6.2,7.4,10.7,11.9,12.5,4-3.9,4.9-11.1,1.9-17.6s-10.2-11-16.2-9.6A25.7,25.7,0,0,0,72.7,32.8Z" style="fill:#8597ff"/><path d="M81.6,23.7a5.3,5.3,0,0,0-4.8-3.6c-2.3,0-2.3,3.1-1.1,5.3s3.4,3.7,4.8,3.6S82.9,26.8,81.6,23.7Z" style="fill:#8597ff;opacity:0.81;mix-blend-mode:screen"/><path d="M77.5,29.7c1.2.6,2,2,1.6,2.9s-2.7.5-3.2-1.2S76.7,29.2,77.5,29.7Z" style="fill:#8597ff;opacity:0.81;mix-blend-mode:screen"/><path d="M72.7,32.8c2.9,6.2,7.4,10.7,11.9,12.5a10,10,0,0,0,8.1.2c-.5.2-5.2,1.8-13.1-8.6S77.7,11.8,84.1,9.6A10,10,0,0,0,76,9.4c-3.1,1.4-5.1,4.6-5.7,8.7A25.7,25.7,0,0,0,72.7,32.8Z" style="fill:#b0caff;opacity:0.49;mix-blend-mode:multiply"/><path d="M53.4,25.4A39.7,39.7,0,0,0,72.6,57.9c1.3.8,2.8,1.5,4.2,2.2l2.4-1.2A39.9,39.9,0,0,1,72,55.4,38.4,38.4,0,0,1,56.6,36.6a39.2,39.2,0,0,1-1.8-21.2l-.6.4A34.7,34.7,0,0,0,53.4,25.4Z" style="fill:#636796"/><path d="M65.8,153.9c-1.2-.3-5.6-.6-7.9.9a.5.5,0,0,0-.3.5c.1.6.2,2,.4,2.8s2.6,2,5.4,1.6,3.1-1.9,3.2-2.6a16.7,16.7,0,0,0-.4-2.9C66.1,154,66,153.9,65.8,153.9Z" style="fill:#323657"/><path d="M21.3,146.3a19.6,19.6,0,0,0-6.8-3.5c-.3-.1-.5,0-.7.3a16.5,16.5,0,0,0-1.4,2.6c-.2.9.1,2.2,1.8,3.2s5.2.9,5.7.5a12.4,12.4,0,0,0,1.6-2.4C21.6,146.7,21.6,146.4,21.3,146.3Z" style="fill:#323657"/><path d="M77.2,145a19.3,19.3,0,0,1,6.6-3.6.8.8,0,0,1,.9.3c.4.8,1.2,2.2,1.4,2.8s-.1,2.2-1.8,3.2-5.2.9-5.7.5a9.1,9.1,0,0,1-1.5-2.3A.7.7,0,0,1,77.2,145Z" style="fill:#323657"/><path d="M49.3,102.8l.3,2.1a7.4,7.4,0,0,1,3.9-1.3,8.7,8.7,0,0,1,3.7.4,19,19,0,0,0-.4-1.9S53.5,99.6,49.3,102.8Z" style="fill:#424669"/><path d="M38.3,101.7a8.6,8.6,0,0,1,6.4,4.1l1.4-2.4c-2.9-4.3-6.9-3.2-6.9-3.2Z" style="fill:#424669"/><path d="M77.9,3c7.9,0,16.7,6.8,21.7,17.4,6,13,3.8,26.9-5,31h0L79.2,58.9l-2.4,1.2-3.2,1.6-2.1,1L66,65.4H64.8a14.8,14.8,0,0,1-7.1-1.9l-2.8,1.4c.2.5.5.9.7,1.5A54.6,54.6,0,0,1,58,71.5c.2.7-2.7,2.6-6,4.4.3,1.9.6,3.6.8,4.7,2.6.2,4.5.8,4.5,1.5v6.3c1.2.3,1.9.6,1.9,1h0v8.8l-1.1.5.9,1.8h1.8l1.1,1.9v.2c4.1,7,17.1,29.4,21.5,37.5l.7,1.3a.5.5,0,0,1,.5.3c.4.8,1.2,2.2,1.4,2.8s-.1,2.2-1.8,3.2a10.2,10.2,0,0,1-4,.8,3.2,3.2,0,0,1-1.7-.3,9.1,9.1,0,0,1-1.5-2.3.6.6,0,0,1,.1-.8L58.6,112.5c2.1,12.1,5.4,31.4,6.7,39.9.1.5.1,1,.2,1.4h.3c.2,0,.3.1.4.3a16.7,16.7,0,0,1,.4,2.9c-.1.7-.5,2.2-3.2,2.6H62.1c-2.2,0-3.8-.8-4.1-1.7s-.3-2.2-.4-2.8a.4.4,0,0,1,.1-.3c-1.6-9.5-6.7-41.6-8.1-50.1,0-.3-.1-.5-.1-.7a25.8,25.8,0,0,1-3.6-.5l-1.2,2.1c-4.5,7.9-18.5,32.4-23.3,40.6.2.1.2.4.1.6a12.4,12.4,0,0,1-1.6,2.4,3.5,3.5,0,0,1-1.7.2,10.2,10.2,0,0,1-4-.7c-1.7-1-2-2.3-1.8-3.2a16.5,16.5,0,0,1,1.4-2.6c.2-.2.3-.3.5-.3h.1a5.6,5.6,0,0,0,.5-.8c5.1-9.2,19.3-33.2,23.3-40v-.3l.9-1.5h1.2a5.4,5.4,0,0,1,2,.3l1.3-1.6-.9-.6V89.4h0c0-.4.7-.7,1.9-1V82.1h0c0-.6,1.5-1.1,3.6-1.4L47.5,78a17.3,17.3,0,0,1-3.3,1l-2.1.2h-.9c-.6-.3-2.1-3.2-3.4-5.8l-4,1.9h0l-.5.2a12.2,12.2,0,0,1-5,1.1,16.1,16.1,0,0,1-10-4,21.6,21.6,0,0,1-5.5-7.3,21.1,21.1,0,0,1-2-9.3c-1.6-1.8-5.6-6.5-5.7-7.5a5.3,5.3,0,0,1,0-1.8L3,44.3c-.3-.7.4-5.7,4-9a11.3,11.3,0,0,1,7.5-3.4l1.8.2a3.7,3.7,0,0,1,1.5,1.4,7.3,7.3,0,0,1,2.6-.6,2.9,2.9,0,0,1,1.4.3,24.5,24.5,0,0,1,4.1,3.1,9.4,9.4,0,0,1,1,1l11-7.4,3.4-2.2a17.7,17.7,0,0,1,1.8-4.9l6.1-3.9.7-.4,4.3-2.7.6-.4L70.1,5.8a11.7,11.7,0,0,1,2.6-1.7A13.1,13.1,0,0,1,77.9,3m0-3a15.8,15.8,0,0,0-6.5,1.4,14.4,14.4,0,0,0-3.1,1.9L53.2,12.9l-.6.4L48.3,16l-.7.4-6.1,3.9a3.2,3.2,0,0,0-1,1,17.9,17.9,0,0,0-1.8,4.5l-2.4,1.6-9.1,6.1a20.7,20.7,0,0,0-4-2.9,6.1,6.1,0,0,0-2.8-.7l-1.7.2a6.5,6.5,0,0,0-1.6-.9,10.9,10.9,0,0,0-2.6-.3c-2.3,0-5.8.7-9.5,4.2S-.8,43.4.4,45.6c.1.4.4.8,1.7,2.2v1.1c.1.9.3,1.9,5.7,8.2a23.7,23.7,0,0,0,2.3,9.4,24.1,24.1,0,0,0,6.3,8.4,18.9,18.9,0,0,0,11.9,4.7,15.2,15.2,0,0,0,6.3-1.4h.1l.4-.2h.1l1.3-.6c1.9,3.6,2.5,4,3.3,4.5a5.8,5.8,0,0,0,1.9.4v4.1a3.7,3.7,0,0,0-1.9,3.1v7.7l-1.4.2a2.9,2.9,0,0,0-1.7,1.4l-.9,1.5-.2.2h0c-4.2,7-18.1,30.7-23.3,39.9a4.7,4.7,0,0,0-1,1,12.4,12.4,0,0,0-1.8,3.5,6,6,0,0,0,3.2,6.6,12.7,12.7,0,0,0,5.5,1.1c2,0,2.9-.4,3.4-.8s1.2-.9,2.5-3.4a3.8,3.8,0,0,0,.5-1.5c5.1-8.8,18-31.4,22.4-39.1,1.8,11.2,6,37.5,7.7,47a1.3,1.3,0,0,0-.1.6,13.2,13.2,0,0,0,.6,3.6c.7,2.3,3.4,3.8,6.9,3.8h1.7c3.3-.5,5.5-2.4,5.8-5.2a13.7,13.7,0,0,0-.5-3.9,3.2,3.2,0,0,0-.9-1.7c-.7-5.2-2.3-14.3-3.8-23.1L74,145.5a4.3,4.3,0,0,0,.4,1.9,11.2,11.2,0,0,0,2.4,3.3,6.4,6.4,0,0,0,3.5.8,11.9,11.9,0,0,0,5.5-1.2,6,6,0,0,0,3.2-6.6,18.5,18.5,0,0,0-1.7-3.5l-.8-1-.3-.5c-4.5-8.2-17.6-30.8-21.6-37.6v-.2h0L63.4,99a2.5,2.5,0,0,0-1.2-1.1V89.4a3.5,3.5,0,0,0-1.9-3.1V82.1c0-2.1-1.6-3.5-4.9-4.2a4.3,4.3,0,0,1-.1-.5c4.8-2.8,6.1-4.3,5.7-6.5a25.3,25.3,0,0,0-1.5-3.4,14.9,14.9,0,0,0,5.3.9h1.7l.8-.2,5.5-2.7,2.1-1,3.2-1.6,2.4-1.2,15.4-7.5c5.2-2.4,8.6-7.5,9.7-14.4a36.4,36.4,0,0,0-3.3-20.6C97,7.7,87.2,0,77.9,0Z" style="fill:#335394"/></g></g></g></svg>