<svg xmlns="http://www.w3.org/2000/svg" viewBox="0 0 110.4 96.8"><g style="isolation:isolate"><g id="Layer_2" data-name="Layer 2"><g id="Layer_1-2" data-name="Layer 1"><path d="M66.8,77.2a36.8,36.8,0,0,1-21.3-6.4c-2.5.1-5.7.3-8.8.3a58.9,58.9,0,0,1-10.8-.9C17.8,68.5,9.6,62.8,4.8,55.6S-.3,43.8.9,38,7.8,27.3,13.2,27.3l2.3.2.5.2.5.2A14.9,14.9,0,0,1,36.2,13.5,25.6,25.6,0,0,1,42.8,5l2.1-1.6A18.2,18.2,0,0,1,54.5.5a15.3,15.3,0,0,1,3,.3A12.8,12.8,0,0,1,67.5,11a14.9,14.9,0,0,1,6.9-1.6A16.1,16.1,0,0,1,82,11.3a15.8,15.8,0,0,1,7.9,12.4h.8a17.3,17.3,0,0,1,13.1,6.7c3.1,3.8,5.1,8.8,5.8,15s.2,9.1-1.4,12.4a18.8,18.8,0,0,1-2.4,3.6c-2.6,3.1-6.4,5.3-9.3,7-9.8,5.3-18.6,8.2-27.1,8.7Z" style="fill:#2e5b1d"/><path d="M54.5,1a14.3,14.3,0,0,1,2.9.3c5,1.1,9.4,5.4,9.7,10.5a14.5,14.5,0,0,1,7.3-1.9,14.8,14.8,0,0,1,7.4,1.9,15.4,15.4,0,0,1,7.6,12.5h1.3a17.1,17.1,0,0,1,12.8,6.5c3.3,4.1,5,9.5,5.6,14.8s.4,8.4-1.4,12.1a15.1,15.1,0,0,1-2.3,3.5,31.5,31.5,0,0,1-9.2,6.8c-8.3,4.6-17.3,8.1-26.8,8.7H66.8a36.1,36.1,0,0,1-21.2-6.5c-3,.3-6,.4-8.9.4A54.6,54.6,0,0,1,26,69.7C12.6,66.9-1.6,52.9,1.4,38.1c1.2-5.6,6.5-10.3,11.8-10.3a8.2,8.2,0,0,1,2.2.2l.4.2,1.2.4A14.5,14.5,0,0,1,31.5,13.2a13.7,13.7,0,0,1,4.9.9,27.1,27.1,0,0,1,6.7-8.7l2.1-1.6A18.1,18.1,0,0,1,54.5,1m0-1h0a17.6,17.6,0,0,0-9.8,3L42.5,4.6a28.8,28.8,0,0,0-6.6,8.3,13.1,13.1,0,0,0-4.4-.7,16.2,16.2,0,0,0-8.7,2.6A15.9,15.9,0,0,0,16,27.2h-.4a9.9,9.9,0,0,0-2.4-.3c-5.7,0-11.5,5-12.8,11.1s.2,12.2,4,18A35.7,35.7,0,0,0,25.8,70.7a60,60,0,0,0,10.9.9c3.1,0,6.2-.1,8.6-.3a37.4,37.4,0,0,0,21.5,6.4h2.7c8.5-.5,17.4-3.4,27.2-8.8,3-1.7,6.8-3.9,9.5-7.1a21.9,21.9,0,0,0,2.5-3.7c1.6-3.3,2-7.5,1.4-12.7s-2.7-11.4-5.9-15.2a17.8,17.8,0,0,0-13.5-6.9h-.4a16.2,16.2,0,0,0-8-12.3,16.6,16.6,0,0,0-7.9-2,17.5,17.5,0,0,0-6.5,1.3A13.5,13.5,0,0,0,57.6.3,16.3,16.3,0,0,0,54.5,0Z" style="fill:#214213"/><path d="M100.4,63.7a17,17,0,0,1-13.1-.1A7.9,7.9,0,0,1,84.2,61c-2-3.1-.2-7.2,1.7-10.4s4.2-6.7,3-10.2-5.2-5.2-8.9-4.8A16.7,16.7,0,0,0,74.7,37l-4.9,2.3A92.6,92.6,0,0,1,55.5,45a14.4,14.4,0,0,1-6.5.8,11.3,11.3,0,0,1-5.5-3.1,20.4,20.4,0,0,1-5.6-11,28.4,28.4,0,0,1,0-9.2c1-6.6,4-12.8,7.3-18.7L43.1,5.4C32.9,14,31.2,29.5,32.1,42.1a12,12,0,0,1-6.4,3.1c-4.2.6-8.9-1.9-10.2-6a14.8,14.8,0,0,1-.1-6.3c.5-2.5,1.1-3.3,0-4.9-6-1.5-12.7,3.8-14,10.1C-1.6,52.9,12.6,66.9,26,69.7c6.4,1.3,13,1,19.6.5,6.7,4.9,15.4,6.9,23.8,6.4s18.5-4.1,26.8-8.7a31.5,31.5,0,0,0,9.2-6.8A26.2,26.2,0,0,1,100.4,63.7Z" style="fill:#3b7e82;opacity:0.5;mix-blend-mode:multiply"/><path d="M54,96.3a4,4,0,0,1-1.5-.3,9.8,9.8,0,0,1-4.2-2.3,8.4,8.4,0,0,0-3.2-1.5,1.9,1.9,0,0,1-1.1-.7c-1.6-2.2-1.2-10.2-.8-12.5l.3-1.5a49.4,49.4,0,0,1-3.7-8.2,40.7,40.7,0,0,0-10.8-6l-2.9-1.1c-4-1.6-8.2-3.1-11.8-5.6C9.1,53,6,47.9,5.9,43a.5.5,0,0,1,.5-.5h0a.5.5,0,0,1,.5.4,10.7,10.7,0,0,0,9.6,9,7.4,7.4,0,0,0-2.2-3.5l-.5-.7A17.7,17.7,0,0,1,9.5,36.6.6.6,0,0,1,10,36h0c.3,0,.4.2.5.4a31.1,31.1,0,0,0,7.3,11.2l.2.2c1.4,1.3,2.9,2.8,2.9,4.7v.9a2.8,2.8,0,0,0-.1.9c.2,1.6,2.3,2.5,4.2,3.1a44,44,0,0,1,7.6,2.9,20.8,20.8,0,0,1-2.4-3.4c-2-3-4-6.9-2.4-10.4a.5.5,0,0,1,.5-.3h0a.7.7,0,0,1,.5.4,29,29,0,0,0,5.8,11.3,15.1,15.1,0,0,0,2.9,2.8,43.4,43.4,0,0,1,.8-17.6A14.6,14.6,0,0,1,40,36a.5.5,0,0,1,.4-.3h.2l.2.2a15.1,15.1,0,0,1,1.1-2.2.5.5,0,0,1,.4-.2h.2a.6.6,0,0,1,.3.6c-.5,2.3-1.1,5-1.6,7.7l.3,1.3A3,3,0,0,0,42.7,45a1.8,1.8,0,0,0,1.1.4l1.4-.3c4-1.6,5.3-6.8,4.8-11.2-.1-.3.1-.5.4-.6h.1c.2,0,.4.1.4.3A20.4,20.4,0,0,1,52.3,40a7.5,7.5,0,0,1-2.4,6.2,6.6,6.6,0,0,1-1.7,1.2l-1.4.9a8.4,8.4,0,0,0-2.6,6.9,24,24,0,0,0,2.3,7.5l.6,1.5c3.7-2.9,4.6-8.3,5.3-13v-.8c1.2-7.4,4-11.8,8.3-13.1H61a.5.5,0,0,1,.4.3.5.5,0,0,1,0,.5A22.9,22.9,0,0,0,57,47.5a5.6,5.6,0,0,0,0,3.6,3.9,3.9,0,0,0,3.6,2,4.5,4.5,0,0,0,2.3-.7c2.5-1.4,3.2-4.4,3.5-6a.4.4,0,0,1,.4-.4h.1c.2,0,.4.1.4.3a9.4,9.4,0,0,1-1,8.1,9.6,9.6,0,0,1-6.8,4.7h-.8l-2.1.4c-1.6.8-2.2,2.8-2.7,4.6s-1.3,6,.9,7.7a4.1,4.1,0,0,0,2.8.8l2.3-.2A22.4,22.4,0,0,0,76.8,53.7a.5.5,0,0,1,.5-.4h0c.3,0,.5.1.5.4a20.2,20.2,0,0,1-5.2,18,21.3,21.3,0,0,1-14.8,6.1h0a16.6,16.6,0,0,1-3.2-.3c-1.3,1-.3,16.6.2,18.1a.5.5,0,0,1,0,.5c0,.1-.2.2-.3.2Z" style="fill:#a8662f"/><path d="M50.5,33.8a22.1,22.1,0,0,1,1.3,6.3,7.3,7.3,0,0,1-2.2,5.8,32.8,32.8,0,0,1-3.1,2c-2.1,1.7-2.9,4.6-2.8,7.3A23.6,23.6,0,0,0,46,62.9a10.2,10.2,0,0,1,.8,2.1l.4-.2c4.3-3.2,5-9.1,5.8-14.3s2.9-11.2,8-12.8a23.9,23.9,0,0,0-4.5,9.7,5.8,5.8,0,0,0,.1,3.9,4.3,4.3,0,0,0,4,2.3,5.9,5.9,0,0,0,2.6-.7c2.2-1.3,3.3-3.9,3.7-6.4,1.7,5.1-2.1,11.3-7.4,12.1a15.5,15.5,0,0,0-3.1.6c-1.8.8-2.5,3-3,4.9s-1.3,6.4,1.1,8.2a4.9,4.9,0,0,0,3.1.9,9.3,9.3,0,0,0,2.4-.3A22.7,22.7,0,0,0,77.3,53.8,19.5,19.5,0,0,1,57.8,77.3l-3.2-.2h0c-2.2,0-.6,18-.2,18.8H54l-1.4-.2a10.9,10.9,0,0,1-4-2.3,8.6,8.6,0,0,0-3.4-1.6c-2.4-.3-2-10-1.5-12.6l.3-1.7A51,51,0,0,1,40.2,69a41.1,41.1,0,0,0-11-6.2c-5-1.9-10.2-3.6-14.6-6.6S6.5,48.3,6.4,43A11.1,11.1,0,0,0,17,52.4h.1c0-2-1.7-3.5-3-5A17.9,17.9,0,0,1,10,36.5,31.4,31.4,0,0,0,17.5,48c1.3,1.3,2.9,2.7,2.9,4.6s-.1,1.1-.1,1.7c.3,2.1,2.6,3,4.6,3.5a58.6,58.6,0,0,1,10.6,4.6l-1.1-.8a25.7,25.7,0,0,1-3.8-4.9c-1.9-3-3.8-6.8-2.3-10a29.3,29.3,0,0,0,5.9,11.5,12.2,12.2,0,0,0,4,3.5,43.3,43.3,0,0,1,.6-18.6,14.9,14.9,0,0,1,1.6-6.9,14.8,14.8,0,0,0-.1,2.1,33.6,33.6,0,0,1,2-4.3c-.6,2.5-1.2,5.2-1.6,7.9l.3,1.3a3.9,3.9,0,0,0,1.4,2.3,3.3,3.3,0,0,0,1.4.4,4.7,4.7,0,0,0,1.6-.4c4.2-1.6,5.6-7.1,5.1-11.7m0-1h-.2a1,1,0,0,0-.8,1.1c.4,4.3-.8,9.3-4.5,10.7a2.7,2.7,0,0,1-1.2.3,1.4,1.4,0,0,1-.9-.3,2.6,2.6,0,0,1-.9-1.7l-.3-1.1c.5-2.7,1.1-5.4,1.6-7.6a1.1,1.1,0,0,0-.6-1.2h-.4a1.1,1.1,0,0,0-.9.5,13,13,0,0,0-.8,1.7h-.2a.9.9,0,0,0-.8.5A14.4,14.4,0,0,0,37.8,43a42,42,0,0,0-.9,16.6,18,18,0,0,1-1.9-2,30,30,0,0,1-5.8-11.2.8.8,0,0,0-.8-.7h-.1a.9.9,0,0,0-.9.6c-1.7,3.7.4,7.8,2.4,10.9L31,59c-1.9-.8-3.9-1.5-5.8-2.1s-3.7-1.3-3.9-2.7a2.5,2.5,0,0,1,.1-.8v-.9c0-2.1-1.6-3.7-3-5l-.2-.2A30,30,0,0,1,11,36.2a1.1,1.1,0,0,0-1-.7.1.1,0,0,0-.1.1,1,1,0,0,0-.9,1A18.6,18.6,0,0,0,13.4,48l.6.7a10.2,10.2,0,0,1,1.8,2.6,10.1,10.1,0,0,1-8.4-8.4.9.9,0,0,0-1-.9h0a1,1,0,0,0-1,1c.1,5.1,3.3,10.3,8.6,14,3.7,2.5,7.9,4.1,12,5.7l2.8,1.1a36.3,36.3,0,0,1,10.5,5.8,53.5,53.5,0,0,0,3.7,8l-.3,1.3c-.3,1.9-.9,10.4.9,12.9a2.7,2.7,0,0,0,1.5.9A7.5,7.5,0,0,1,48,94.1a11.7,11.7,0,0,0,4.3,2.4l1.7.3h.6a1.8,1.8,0,0,0,.7-.5,1.4,1.4,0,0,0,0-.9c-.4-1.6-1.4-14.9-.4-17.3l2.9.2a21.3,21.3,0,0,0,15.1-6.2,20.8,20.8,0,0,0,5.4-18.5,1,1,0,0,0-1-.8h0a1.1,1.1,0,0,0-1,.8A21.6,21.6,0,0,1,59.8,72a8.6,8.6,0,0,1-2.2.2,3.9,3.9,0,0,1-2.5-.7c-1.5-1.1-1.7-3.4-.7-7.2.4-1.7,1-3.6,2.4-4.2a5.8,5.8,0,0,1,1.9-.4h.9a9.8,9.8,0,0,0,7.1-5,9.4,9.4,0,0,0,1.1-8.4,1,1,0,0,0-.9-.7h-.1a1,1,0,0,0-.9.8A7.9,7.9,0,0,1,62.7,52a3.9,3.9,0,0,1-2.1.6,3.4,3.4,0,0,1-3.1-1.7,5.3,5.3,0,0,1-.1-3.3,24.5,24.5,0,0,1,4.4-9.2,1.3,1.3,0,0,0,0-1.2,1,1,0,0,0-.8-.5h-.3c-4.5,1.4-7.4,5.9-8.6,13.5l-.2.8c-.7,4.7-1.4,9.5-4.6,12.3l-.4-.9a26,26,0,0,1-2.2-7.4,7.6,7.6,0,0,1,2.5-6.4l1.3-.9a9.4,9.4,0,0,0,1.8-1.2A8.3,8.3,0,0,0,52.8,40a20.4,20.4,0,0,0-1.4-6.5,1,1,0,0,0-.9-.7Z" style="fill:#75411a"/></g></g></g></svg>