<svg xmlns="http://www.w3.org/2000/svg" xmlns:xlink="http://www.w3.org/1999/xlink" viewBox="0 0 157.8 130.3"><defs><clipPath id="clip-path" transform="translate(4.1)"><path d="M146.1,101c.2,2.1-1.9,3.6-4.3,3.8a12.2,12.2,0,0,1-2.7-.1l-2.2-.3-2.5-.5-2.8-.5-2.2-.3c-12.9-1.5-25.3.7-37.3,3.1a85.8,85.8,0,0,0-13.7,3.4l-2.4,1-2.5,1.3a42.5,42.5,0,0,1-5.8,3.5l-1.9.7H64.7a10.6,10.6,0,0,1-3.9-.4,7.6,7.6,0,0,1-4.1-2.8,14.2,14.2,0,0,1-1.1-3.3c-1.6-4.9-6.4-9-10.8-12.9C31.3,84.9,19.3,70,18.7,55.2c-.4-7.4,2.2-14.2,1.1-21.7-.6-4-3.9-12.3,1.7-13.8,3.8-1.1,7.8,1.4,11.6,3.6l1.2.6L36.6,25a11.3,11.3,0,0,0,2.4.8,14.3,14.3,0,0,0,5.5-.3l1.9-.6h.1l2.2-.8A67,67,0,0,1,60.8,21a97.3,97.3,0,0,1,13.4-.9c4.3.1,9,.5,13.3.2h.7l2-.3A14.9,14.9,0,0,0,95.8,18l1-.6.5-.4c1.6-1.3,3.2-2.8,5.3-3.1a4.5,4.5,0,0,1,2,0l1,.4h.1a7,7,0,0,1,3.1,2.8l.3.6a25,25,0,0,1,1.6,5.1,29.3,29.3,0,0,0,5.4,10.9c2.4,3.1,5.3,6,7.8,9,8.3,10.4,11.2,22.4,12.2,33.7.5,6.5.8,13.5,5.9,19C143.7,97.3,145.9,99,146.1,101Z" style="fill:none"/></clipPath></defs><g style="isolation:isolate"><g id="Layer_2" data-name="Layer 2"><g id="Layer_1-2" data-name="Layer 1"><path d="M107.1,19.5h-.9a7.3,7.3,0,0,1-3.3-2,2.7,2.7,0,0,1-.7-.8,3.5,3.5,0,0,1-.8-3.5,4.1,4.1,0,0,1,3.4-1.8c.1-3.7,2.4-8.4,2.4-8.4a2.5,2.5,0,0,1,1.9-1.4h.1a3.7,3.7,0,0,1,1.5.4l.4.2h.4l1.7.8.6.3,1,.5,1,.5.7.4.4.2a7.5,7.5,0,0,1,1.7,1.4,2.9,2.9,0,0,1,.3,2.9c-1.4,3.4-5.1,4.8-8.1,6h-.1a5,5,0,0,1-.1,1.7,3.7,3.7,0,0,1-3.5,2.5Z" transform="translate(4.1)" style="fill:#ffeb81"/><path d="M109.2,3l.9.2h.2l.5.3,1.8.8.5.2,1,.5.5.3.5.2,1.1.6a5.8,5.8,0,0,1,1.2,1,1.4,1.4,0,0,1,.1,1.5c-1.1,2.6-4.2,3.9-7.2,5.1a5.6,5.6,0,0,1-1.5.4,2.7,2.7,0,0,1,.3,2.4,2.1,2.1,0,0,1-2,1.4h-.6a5.1,5.1,0,0,1-2.5-1.6l-.7-.7c-1.5-1.8.1-2.8,2-2.8h1.1c-.7-2.7,1.6-8.3,2.1-9.3a.7.7,0,0,1,.7-.6h0m0-3h-.3a3.9,3.9,0,0,0-3.1,2.3h0a30.2,30.2,0,0,0-2.4,7.7,5.1,5.1,0,0,0-3.3,2.5c-.4.7-1,2.7.8,5a.1.1,0,0,1,.1.1l1,1a7.6,7.6,0,0,0,3.9,2.2l1.2.2a5.1,5.1,0,0,0,4.9-3.6,5.2,5.2,0,0,0,.2-1.1c2.9-1.2,6.6-2.9,8.1-6.4h0a4.2,4.2,0,0,0-.5-4.4,6.7,6.7,0,0,0-2.1-1.8h-.1l-.3-.2-.8-.4h-1l-1-.5-.7-.4L112,.8h-.8a3.9,3.9,0,0,0-2-.5Z" transform="translate(4.1)" style="fill:#ff8d3d"/><path d="M107.5,11.8a19.7,19.7,0,0,1,3.3-8.2l-.5-.3a19.8,19.8,0,0,0-3.3,8.4c-.1.1,0,.2.2.3S107.5,12,107.5,11.8Z" transform="translate(4.1)" style="fill:#ffaa5a"/><path d="M113.7,5l-.5-.3a40,40,0,0,0-4.3,6.7c0,.2,0,.3.2.4s.3,0,.3-.1A36.4,36.4,0,0,1,113.7,5Z" transform="translate(4.1)" style="fill:#ffaa5a"/><path d="M116.1,6.2l-.5-.3c-1.6,2.3-3.4,4.4-5.2,6.6-.1.1,0,.2.1.3h.4Z" transform="translate(4.1)" style="fill:#ffaa5a"/><path d="M141.4,121.4a3.4,3.4,0,0,1-1.6-.5l-.4-.2-.6-.3h-.4l-.3-.2-.7-.5-.5-.3-1.3-.9h0a.3.3,0,0,1-.1-.2h-.4a3.3,3.3,0,0,1-.9-1.4,3,3,0,0,1,.4-2.2s3.7-6.5,6.7-9.3a5.5,5.5,0,0,1,.2-4,3.7,3.7,0,0,1,2.9-2.2h1.2a3.8,3.8,0,0,1,3.2,1.6c1,1.5.5,3.7-.4,5.1a9.1,9.1,0,0,1-1.7,1.7v.8c-.2,3.4-.3,7.8-2.5,11.4a3.8,3.8,0,0,1-2.4,1.9Z" transform="translate(4.1)" style="fill:#ffeb81"/><path d="M145,100.3h.4a2.7,2.7,0,0,1,2.1,1,3.3,3.3,0,0,1-.3,3.4,4.8,4.8,0,0,1-2.1,1.7,7.1,7.1,0,0,1,.1,1.6c-.2,3.7-.4,7.5-2.3,10.7-.3.5-.7,1.1-1.3,1.2h-.2l-1-.3-.8-.5-.3-.2-.4-.2-.8-.5-.3-.2-1.2-.9-.4-.3h-.1a1,1,0,0,1-.5-.6,1.7,1.7,0,0,1,.3-1.1c.7-1.3,4.8-8,7.3-9.6-1.1-1.6-1-4.8,1.4-5.1h.4m0-3h-.5c-.1,0-.2,0-.2.1a5.1,5.1,0,0,0-4.2,3,6.4,6.4,0,0,0-.4,4.1,47.2,47.2,0,0,0-6.4,9.1h0a4.8,4.8,0,0,0-.6,3.2h0a3.7,3.7,0,0,0,1.5,2.1h.1c0,.1.1.1.2.2h0l.2.2,1.4.9.5.4.7.4.3.2h0l.3.2h.2l.6.4c.1,0,.2,0,.2.1h.2a5.8,5.8,0,0,0,2.3.6h.7a5.3,5.3,0,0,0,3.4-2.5h0c2.4-3.9,2.5-8.4,2.7-12.1h0a10.3,10.3,0,0,0,1.4-1.5c1.3-1.9,1.8-4.8.4-6.9a5.3,5.3,0,0,0-4.2-2.2Z" transform="translate(4.1)" style="fill:#ff8d3d"/><path d="M142.6,107.3a42.2,42.2,0,0,0-6,9.8l-.4-.3a43.2,43.2,0,0,1,6.1-9.9.3.3,0,0,1,.4,0A.8.8,0,0,1,142.6,107.3Z" transform="translate(4.1)" style="fill:#ffaa5a"/><path d="M138.6,118.4l-.3-.2c1.3-3.2,2.8-6.3,4.4-9.4.1-.1.2-.2.4-.1s.1.2,0,.4A79.6,79.6,0,0,0,138.6,118.4Z" transform="translate(4.1)" style="fill:#ffaa5a"/><path d="M140.4,119.5l-.4-.2c1.4-3.3,2.8-6.6,4-10l.3-.2c.2,0,.2.2.1.3C143.2,112.8,141.8,116.2,140.4,119.5Z" transform="translate(4.1)" style="fill:#ffaa5a"/><path d="M59.1,128.8a3.3,3.3,0,0,1-1.4-.4l-.8-.3-1.8-.8-.5-.3-1.1-.5-.9-.5-.8-.4-.3-.2a7.9,7.9,0,0,1-1.8-1.4,3.1,3.1,0,0,1-.3-3c1.5-3.3,5.1-4.8,8.1-5.9h.1a5.2,5.2,0,0,1,.2-1.7,3.5,3.5,0,0,1,3.5-2.5h.9a8.5,8.5,0,0,1,3.2,1.9l.8.8h0c1.3,1.6,1,2.8.7,3.4a3.7,3.7,0,0,1-3.3,1.9,25.3,25.3,0,0,1-2.5,8.4,2.2,2.2,0,0,1-1.8,1.4Z" transform="translate(4.1)" style="fill:#ffeb81"/><path d="M61.3,112.3h.5a6,6,0,0,1,2.6,1.6,2.3,2.3,0,0,1,.7.7c1.5,1.8-.1,2.8-2,2.8H61.9c.8,2.7-1.5,8.3-2.1,9.3a.9.9,0,0,1-.7.6h0a1.1,1.1,0,0,1-.8-.3H58l-.5-.2-1.7-.8-.5-.2-1.1-.6-.5-.2-.4-.3-1.1-.5a3.1,3.1,0,0,1-1.2-1,1.4,1.4,0,0,1-.2-1.5c1.2-2.6,4.3-3.9,7.3-5.1a4.4,4.4,0,0,1,1.5-.5,2.5,2.5,0,0,1-.4-2.3,2.2,2.2,0,0,1,2.1-1.4m0-3a5.2,5.2,0,0,0-5,3.6c-.1.4-.1.8-.2,1.1-2.9,1.2-6.5,2.9-8,6.4H48a4.8,4.8,0,0,0,.5,4.4,6,6,0,0,0,2.1,1.7h.1l.4.2.8.4h1l1,.5.6.3,1.8.9H57a.1.1,0,0,0,.1.1,5.3,5.3,0,0,0,2,.5h.3a3.8,3.8,0,0,0,3.1-2.3h0a29,29,0,0,0,2.4-7.7,4.6,4.6,0,0,0,3.3-2.5,4.5,4.5,0,0,0-.8-5h-.1l-.9-1a8.8,8.8,0,0,0-4-2.3Z" transform="translate(4.1)" style="fill:#ff8d3d"/><path d="M60.8,118.5a19,19,0,0,1-3.3,8.2l.5.2a19,19,0,0,0,3.4-8.3l-.3-.3C61,118.3,60.9,118.3,60.8,118.5Z" transform="translate(4.1)" style="fill:#ffaa5a"/><path d="M54.7,125.3l.5.3a42.9,42.9,0,0,0,4.2-6.8c.1-.1,0-.2-.2-.3h-.3A46.9,46.9,0,0,1,54.7,125.3Z" transform="translate(4.1)" style="fill:#ffaa5a"/><path d="M52.3,124.1l.5.2c1.6-2.2,3.3-4.4,5.1-6.5.1-.1.1-.2-.1-.3h-.3A83.8,83.8,0,0,0,52.3,124.1Z" transform="translate(4.1)" style="fill:#ffaa5a"/><path d="M63.7,117.8a12.6,12.6,0,0,1-3.3-.5,8.7,8.7,0,0,1-5-3.4,13.7,13.7,0,0,1-1-2.8l-.3-.8c-1.3-4.3-5.6-8-9.6-11.7l-.7-.6C26.7,82.7,17.7,68.4,17.2,55.3a53.8,53.8,0,0,1,.6-9.9c.6-4,1.1-7.7.5-11.7-.1-.7-.3-1.6-.5-2.5-1-4.3-2.6-11.4,3.3-13a8.3,8.3,0,0,1,2.2-.3c3.4,0,6.6,1.8,9.6,3.6l1,.5.5.3.6.3,2.2,1a7.4,7.4,0,0,0,2.1.7l1.7.2a11.8,11.8,0,0,0,3.1-.5l1.6-.5H46a.1.1,0,0,1,.1-.1l1.1-.4,1-.3a60.8,60.8,0,0,1,12.4-3.1,69.3,69.3,0,0,1,12.2-1h1.4l3.9.2H88l2-.2a18.2,18.2,0,0,0,5-1.7l.9-.6.5-.4.8-.6a10.2,10.2,0,0,1,5.1-2.8h1l1.7.2,1.2.4h.2a9.5,9.5,0,0,1,3.6,3.3,5.6,5.6,0,0,0,.5.8,16.9,16.9,0,0,1,1.3,4.2l.3,1.3a28.6,28.6,0,0,0,5.2,10.3c1.2,1.6,2.7,3.2,4.1,4.8s2.5,2.7,3.6,4.2c7.3,8.9,11.4,20.2,12.6,34.5v1.2c.4,5.9.9,12,5.4,16.9l1,1c1.5,1.5,3.2,3.2,3.5,5.4a4,4,0,0,1-1,3.1,6.6,6.6,0,0,1-4.6,2.3h-3.1l-2.3-.3-2.5-.5-2.8-.5-2.1-.3a77.7,77.7,0,0,0-8.5-.5c-9.3,0-17.9,1.5-28.3,3.5h-.2A87.8,87.8,0,0,0,79,111l-2.4,1-2.3,1.2-1.7,1.1a25.5,25.5,0,0,1-4.3,2.5,6.5,6.5,0,0,1-2.1.7l-.6.2H63.7Z" transform="translate(4.1)" style="fill:#fa789e"/><path d="M103.3,13.8h1.3l1,.4h.1a7,7,0,0,1,3.1,2.8l.3.6a25,25,0,0,1,1.6,5.1,29.3,29.3,0,0,0,5.4,10.9c2.4,3.1,5.3,6,7.8,9,8.3,10.4,11.2,22.4,12.2,33.7.5,6.5.8,13.5,5.9,19,1.7,1.8,3.9,3.5,4.1,5.5s-1.9,3.6-4.3,3.8h-2.7l-2.2-.3-2.5-.5-2.8-.5-2.2-.3a63.5,63.5,0,0,0-8.7-.5c-9.8,0-19.3,1.8-28.6,3.6a85.8,85.8,0,0,0-13.7,3.4l-2.4,1-2.5,1.3a42.5,42.5,0,0,1-5.8,3.5l-1.9.7H63.7a10.1,10.1,0,0,1-2.9-.4,7.6,7.6,0,0,1-4.1-2.8,14.2,14.2,0,0,1-1.1-3.3c-1.6-4.9-6.4-9-10.8-12.9C31.3,84.9,19.3,70,18.7,55.2c-.4-7.4,2.2-14.2,1.1-21.7-.6-4-3.9-12.3,1.7-13.8a5.7,5.7,0,0,1,1.8-.3c3.3,0,6.6,2.1,9.8,3.9l1.2.6L36.6,25a11.3,11.3,0,0,0,2.4.8l2,.2a13.4,13.4,0,0,0,3.5-.5l1.9-.6h.1l2.2-.8A67,67,0,0,1,60.8,21a78.8,78.8,0,0,1,12-.9h1.4c3,.1,6.2.3,9.4.3h4.6l2-.3A14.9,14.9,0,0,0,95.8,18l1-.6.5-.4c1.6-1.3,3.2-2.8,5.3-3.1h.7m0-3h-1.2A12.8,12.8,0,0,0,96.2,14l-.7.6h-.1L95,15l-.7.4h0A13.1,13.1,0,0,1,89.7,17l-1.8.2H78.2l-4-.2H72.8a81.9,81.9,0,0,0-12.4,1,69.4,69.4,0,0,0-12.7,3.1l-1,.4-1,.4h-.4l-1.5.4h0A14.5,14.5,0,0,1,41,23l-1.4-.2-1.9-.6-2-.9-.6-.4-.5-.2-.9-.5c-3.3-1.9-6.6-3.8-10.4-3.8a7.8,7.8,0,0,0-2.6.4c-1.9.5-5.1,2.1-5.4,7.1a30.4,30.4,0,0,0,1,7.6c.2.9.4,1.8.5,2.5a42.2,42.2,0,0,1-.4,11.2,48.1,48.1,0,0,0-.7,10.1c.5,13.5,9.7,28.3,27.1,43.9l.7.6c3.9,3.4,8,7.1,9.2,10.9.1.3.1.5.2.8a12.9,12.9,0,0,0,1.3,3.1h0a10.1,10.1,0,0,0,5.8,4.1,15.7,15.7,0,0,0,3.7.5h2.8a11.3,11.3,0,0,0,2.4-.8,27.9,27.9,0,0,0,4.5-2.6l1.7-1.1,2.1-1.1a.1.1,0,0,0,.1-.1l2.2-.9a82.3,82.3,0,0,1,13-3.3h.2c10.3-2,18.9-3.5,28-3.5a72.6,72.6,0,0,1,8.3.5,7.6,7.6,0,0,1,2.1.3h0l2.7.4,1.2.3,1.3.2h0l2.5.4h3.3a9.1,9.1,0,0,0,5.7-2.8,6,6,0,0,0,1.3-4.3c-.3-2.7-2.2-4.6-3.9-6.3l-1-.9c-4.1-4.5-4.6-10.1-5-16.1V76.3c-1.3-14.6-5.5-26.2-12.9-35.4l-3.7-4.2c-1.4-1.6-2.8-3.1-4-4.7a28.2,28.2,0,0,1-4.9-9.8l-.3-1.2a17,17,0,0,0-1.5-4.5,4.1,4.1,0,0,0-.5-.9,10.3,10.3,0,0,0-4.3-4h-.2a5.2,5.2,0,0,0-1.5-.6l-2-.2Z" transform="translate(4.1)" style="fill:#e75c78"/><g style="clip-path:url(#clip-path)"><g style="opacity:0.4;mix-blend-mode:screen"><path d="M39.6,17.2a58.1,58.1,0,0,0,5.9,0,78.2,78.2,0,0,0-8.2,9.9c-.6.9-1.7,1-2.9.8C28.8,26.7,16.7,16.4,11.5,17S2.7,29.2-1.4,32l-.6.3a29.7,29.7,0,0,1-2.1-5c3.5-3.3,5.4-9.7,9.4-13,2.1-.1,4.5-.1,6.9,0l6.4.6c3.8,1.9,7.8,4.5,10.2,5.7,6.9,3.5,5.7,1.7,10-3.4Z" transform="translate(4.1)" style="fill:#fff"/><path d="M75.5,13c2.4-.6,4.8-1.3,7.1-2.1l-.2.2c-3.3,4.2-4.6,11.3-10.8,13.1a3.6,3.6,0,0,1-2.6-.7,100,100,0,0,0-12.3-7l5.8-.8a20.4,20.4,0,0,0,6.8,2.7l1,.2C71.8,18.2,73.6,15.8,75.5,13Z" transform="translate(4.1)" style="fill:#fff"/><path d="M118.5,8.8c-3.3,4-6.8,7.8-10.4,11.4a3,3,0,0,1-3.7.1c-3.3-2.3-6.6-4.6-10.1-6.8s-5-3.6-6.8-4.4l4.1-1.7c4.9,3.3,10.7,7.4,13.3,7.7l.7-.4c2.3-.8,3.9-4.4,5.3-6l4.6-5.2A18.6,18.6,0,0,1,118.5,8.8Z" transform="translate(4.1)" style="fill:#fff"/><path d="M120.6,17.3l1.5,7.1h0c-2.8,3.3-5.8,6.6-8.9,9.7a3,3,0,0,1-3.7,0c-3.4-2.3-6.6-4.6-10.1-6.8-6.2-3.8-8.1-7.3-11.9-2.4S82.9,36.2,76.7,38a3.8,3.8,0,0,1-2.7-.7c-3-2.3-15.7-9.5-19.3-9.5S43.9,38.4,42.3,40.9c-.5.9-1.6,1-2.9.8-5.5-1.2-17.6-11.5-22.8-10.9S8.7,40.1,5.2,44.3L2.3,39.7c4-5.1,6.2-14.2,14.4-13.5,4.7.3,13.2,6.2,17.2,8.2,7.6,3.8,5.4,1.3,11.4-5s7-7.6,18.5-1.9c2.9,1.5,7.5,4.4,10.5,4.7l1.1.2c3.3-1,8.8-12,11.8-14.8a2.7,2.7,0,0,1,3-.4c4.4,2,15.8,11.2,19.7,11.7l.8-.4c2.3-.8,3.9-4.4,5.3-6S119.1,19.1,120.6,17.3Z" transform="translate(4.1)" style="fill:#fff"/><path d="M124,33c.5,2.3,1.1,4.6,1.6,6.9h.1c-2.4,2.8-4.9,5.4-7.5,8a2.9,2.9,0,0,1-3.7,0c-3.3-2.3-6.5-4.6-10-6.7-6.3-3.9-8.1-7.4-12-2.5S88,50,81.8,51.8a3.7,3.7,0,0,1-2.7-.7c-3.1-2.2-15.7-9.5-19.3-9.5S49,52.3,47.4,54.7c-.6.9-1.6,1.1-2.9.8C38.9,54.3,26.9,44,21.7,44.6S15,50.9,12.3,55.2l-1.5-2.6L9.4,50.4c3-5,5.7-11,12.4-10.4,4.7.4,13.1,6.2,17.2,8.2,7.5,3.8,5.4,1.3,11.4-5s6.9-7.6,18.4-1.9c3,1.5,7.6,4.4,10.6,4.7l1.1.2c3.3-1,8.7-12,11.8-14.8a2.7,2.7,0,0,1,3-.4c4.4,2.1,15.8,11.2,19.7,11.7l.8-.3c2.3-.8,3.9-4.5,5.3-6.1Z" transform="translate(4.1)" style="fill:#fff"/><path d="M127.9,48.2c.6,2.1,1.3,4.3,2,6.4h0c-2.1,2.4-4.3,4.8-6.6,7.1a3,3,0,0,1-3.7.1c-3.3-2.4-6.6-4.7-10-6.8-6.3-3.9-8.1-7.4-12-2.5S93.1,63.8,86.8,65.6a3.2,3.2,0,0,1-2.6-.7c-3.1-2.2-15.8-9.4-19.4-9.5-2.1,0-10.7,10.7-12.3,13.1s-1.6,1.1-2.9.8C44,68.2,32,57.8,26.7,58.4c-3.3.4-5.8,4.8-8.2,8.8-.8-1.8-1.7-3.6-2.6-5.3h0c2.5-4.3,5.3-8.5,11-8S40,60,44,62c7.6,3.8,5.5,1.3,11.4-5,7.4-7.7,7-7.5,18.5-1.9,3,1.5,7.6,4.4,10.6,4.7l1.1.2c3.3-1,8.7-12,11.7-14.8a2.8,2.8,0,0,1,3.1-.4c4.4,2.1,15.8,11.2,19.7,11.7l.8-.3c2.2-.8,3.9-4.4,5.3-6.1Z" transform="translate(4.1)" style="fill:#fff"/><path d="M135.4,68c-2.3,2.6-4.6,5.1-7,7.5a3,3,0,0,1-3.7.1c-3.3-2.4-6.6-4.7-10.1-6.8-6.2-3.9-8.1-7.3-11.9-2.5S98.1,77.6,91.9,79.4a3.2,3.2,0,0,1-2.6-.7c-3.1-2.2-15.8-9.4-19.4-9.5S59.1,79.9,57.5,82.3s-1.6,1.1-2.8.8C49.1,82,37,71.6,31.8,72.2c-3.2.4-5.6,4.4-7.9,8.3-.7-2-1.5-4-2.3-6h0c2.4-3.9,5.2-7.3,10.3-6.9s13.2,6.2,17.2,8.2c7.6,3.9,5.4,1.3,11.4-5s7-7.5,18.5-1.9c3,1.5,7.5,4.4,10.6,4.8h1c3.4-1,8.8-12,11.8-14.8a3,3,0,0,1,3.1-.4c4.3,2.1,15.7,11.2,19.7,11.7l.7-.3c2.3-.8,3.9-4.4,5.3-6.1a12.9,12.9,0,0,1,1.6-1.7C133.6,64.1,134.5,66.1,135.4,68Z" transform="translate(4.1)" style="fill:#fff"/><path d="M142,80c-2.7,3.2-5.5,6.3-8.5,9.3a3,3,0,0,1-3.7.1c-3.4-2.4-6.6-4.7-10.1-6.8-6.2-3.8-8.1-7.3-11.9-2.5S103.2,91.4,97,93.2a3.4,3.4,0,0,1-2.7-.7c-3-2.2-15.7-9.4-19.3-9.4s-10.8,10.6-12.4,13-1.6,1.1-2.9.8C54.2,95.8,42.1,85.4,36.9,86c-3.5.5-6.2,5.3-8.7,9.5-.5-2.2-1.1-4.5-1.7-6.8,2.4-4,5.2-7.7,10.5-7.3s13.2,6.2,17.2,8.2c7.6,3.9,5.4,1.3,11.4-4.9,7.3-7.8,7-7.6,18.5-2,2.9,1.5,7.5,4.4,10.5,4.8h1.1c3.3-1,8.8-12,11.8-14.7a2.8,2.8,0,0,1,3.1-.5c4.3,2.1,15.7,11.3,19.6,11.7l.8-.3c2.3-.8,3.9-4.4,5.3-6.1s1.7-1.9,2.6-2.9C139.9,76.5,140.9,78.3,142,80Z" transform="translate(4.1)" style="fill:#fff"/><path d="M149.7,90.7a145.7,145.7,0,0,1-11.2,12.4,3,3,0,0,1-3.7.1c-3.3-2.4-6.5-4.7-10-6.8-6.3-3.8-8.1-7.3-11.9-2.4s-4.6,11.3-10.8,13a3.3,3.3,0,0,1-2.7-.7c-3.1-2.2-15.7-9.4-19.3-9.4s-10.8,10.6-12.4,13c-.5.9-1.6,1.1-2.9.8C59.2,109.6,47.2,99.2,42,99.8s-7.8,8.9-11.1,13.1a.4.4,0,0,0-.1-.3c-.2-2.5-.4-4.9-.8-7.4,2.9-4.9,5.6-10.5,12.1-10,4.6.4,13.1,6.2,17.2,8.2,7.5,3.9,5.4,1.4,11.4-4.9s6.9-7.6,18.4-2c3,1.5,7.6,4.5,10.6,4.8h1.1c3.3-.9,8.7-12,11.8-14.7a2.8,2.8,0,0,1,3-.5c4.4,2.1,15.8,11.3,19.7,11.7l.8-.3c2.3-.8,3.9-4.4,5.3-6.1l4.9-5.5a1,1,0,0,0,.4.5C147.7,87.9,148.8,89.3,149.7,90.7Z" transform="translate(4.1)" style="fill:#fff"/><path d="M47.2,109c3.3.3,8.7,3.4,12.9,5.8l-5.2,1.6c-3.1-1.7-5.9-3-7.9-2.7s-4.8,3.1-6.7,6.3l-1.2.2a11,11,0,0,1-3.6-.1H35l-.4-.2C37.7,114.7,40.3,108.5,47.2,109Z" transform="translate(4.1)" style="fill:#fff"/><path d="M90.7,108.6a112.6,112.6,0,0,0-13,1.6C82.4,105.3,83.6,105.2,90.7,108.6Z" transform="translate(4.1)" style="fill:#fff"/><path d="M132.7,107.8l-6,.2h-.1c-3.8-2.7-5.6-4.2-8.7-.2l-.3.4h-5.5c2.1-3.1,4.1-6.4,5.5-7.7a3,3,0,0,1,3.1-.5C123.2,101.2,128.2,104.9,132.7,107.8Z" transform="translate(4.1)" style="fill:#fff"/><path d="M153.3,97.5a5.9,5.9,0,0,1-1,6c-1.5,1.6-4,2.3-6.5,2.8a2.2,2.2,0,0,1,.7-.9C148.7,102.7,151.1,100.2,153.3,97.5Z" transform="translate(4.1)" style="fill:#fff"/></g></g><path d="M63.1,118.9a7.4,7.4,0,0,1-6.1-3.8,15.3,15.3,0,0,1-1.1-2.7l-.3-.9c-1.2-3-4.3-5.9-7.3-8.7-1.5-1.4-2.9-2.6-4.1-3.9s-3.9-4.3-5.8-6.4c-8.8-9.4-17-18.2-20.5-31-1.6-5.9-.5-11.5.5-16.4s1.4-7.7.6-10.9a21.3,21.3,0,0,0-.9-2.7c-1.6-5.1-3.6-11.4,0-13.4a4.6,4.6,0,0,1,2-.5c2.3,0,4.6,1.7,6.8,3.4l1.5,1.1a.8.8,0,0,1,.4.4l2.6,3.8c3.1,4.7,6.5,9.7,9.9,14S49,50,52,56.5a86.5,86.5,0,0,1,3.9,10.3v.3c5.2,16.3,11.2,34.7,9.4,50.4a1.4,1.4,0,0,1-1.1,1.2Z" transform="translate(4.1)" style="fill:#f9b9c3"/><path d="M20.1,19.1c2.2,0,4.9,2.4,7.4,4.2,4.1,6,8.2,12.4,12.6,17.9s7.7,9.7,10.6,15.9a88.5,88.5,0,0,1,3.8,10.5c5.6,17.3,11.1,34.7,9.4,49.7h-.8a5.8,5.8,0,0,1-4.8-3.1A32.4,32.4,0,0,1,57,111c-1.9-5-8.2-9.3-11.7-13.1C34.8,86,23.5,76.4,19.4,61.1c-2.8-10.4,3.1-19.7,1-27.3-1.1-4.2-4.7-12.6-1.6-14.4a3.1,3.1,0,0,1,1.3-.3m0-3h0a5,5,0,0,0-2.7.7c-4.7,2.6-2.5,9.5-.7,15.1l.8,2.6c.8,2.9.1,6.3-.6,10.3s-2.1,10.8-.4,17.1C20,75,28.4,84,37.3,93.5c1.9,2.1,3.9,4.2,5.8,6.4s2.6,2.6,4.1,4,6,5.4,7,8.2l.3.8a22.4,22.4,0,0,0,1.2,2.9,9,9,0,0,0,7.4,4.6l1.5-.2a3.1,3.1,0,0,0,2.3-2.6c1.8-16-4.2-34.5-9.5-50.9v-.3a89.3,89.3,0,0,0-3.9-10.5c-3.1-6.7-7.1-11.7-10.9-16.5s-6.7-9.2-9.9-13.9L30,21.6a2.3,2.3,0,0,0-.7-.7l-1.5-1.1c-2.4-1.8-4.9-3.7-7.7-3.7Z" transform="translate(4.1)" style="fill:#e75c78"/><path d="M26.8,53.3c.2,6.4.8,13.6,3.6,19.2,1.1,2,2.4,3.8,3.4,5.9s1.4,3.4,2.2,5a4.8,4.8,0,0,0,1.2,2c1.4,1.3,2.7-.9,2.5-3.3s-1.2-4.7-1.9-7.1c-4-11.3-3.4-24.3-7.7-35.4C28.6,36,25.7,28.2,25,34.4c-.2,1.7,1.2,6.9,1.4,9S26.7,50,26.8,53.3Z" transform="translate(4.1)" style="fill:#fa789e"/><path d="M20.1,23.8a5.5,5.5,0,0,1-3.2-1.2,6.5,6.5,0,0,1-1.6-1.8h-.8c-3.5-.3-7.8-.7-11.2-3a3.8,3.8,0,0,1-1.8-2.5,3.3,3.3,0,0,1,.6-2.1l.2-.3.3-.6h.1l.2-.3.2-.3.5-.7c.1-.1.2-.3.4-.4A5.8,5.8,0,0,1,5,9.2l.4-.5a2.2,2.2,0,0,1,1.4-.9h.4A3,3,0,0,1,9,8.4s6.3,4,8.9,7.2l1.6-.2c2.4,0,4.2,1.5,4.3,3.7h0a4.9,4.9,0,0,1-.1,1.1,3.9,3.9,0,0,1-1.7,3A3.8,3.8,0,0,1,20.1,23.8Z" transform="translate(4.1)" style="fill:#ffeb81"/><path d="M7.2,9.3a1.4,1.4,0,0,1,.9.3c1.3.8,7.8,5.3,9.2,7.9a4,4,0,0,1,2.2-.6,2.5,2.5,0,0,1,2.8,2.3V20a3.1,3.1,0,0,1-1.1,2,2,2,0,0,1-1.1.3,3.5,3.5,0,0,1-2.3-.9,3.6,3.6,0,0,1-1.5-2.1H14.6c-3.6-.4-7.4-.8-10.5-2.9A2.2,2.2,0,0,1,3,15a2.1,2.1,0,0,1,.4-1.1,2.2,2.2,0,0,1,.5-.8l.2-.3.2-.4.6-.7a.5.5,0,0,1,.2-.4,5.2,5.2,0,0,1,1-1.1l.3-.4a.1.1,0,0,1,.1-.1.7.7,0,0,1,.6-.4h.1m0-3H6.5A3.9,3.9,0,0,0,4.3,7.7H4.2c-.1,0-.1.1-.2.2H4l-.2.2a6.4,6.4,0,0,0-1,1.3,1,1,0,0,0-.4.5l-.5.7-.2.2h0l-.2.2c0,.1-.1.1-.1.2L1,12l-.2.2c0,.1,0,.2-.1.2A5.4,5.4,0,0,0,0,15.3a4.9,4.9,0,0,0,2.4,3.6h0c3.8,2.6,8.3,3,11.9,3.3h.1a7.5,7.5,0,0,0,1.5,1.6,7.2,7.2,0,0,0,4.2,1.5,5.3,5.3,0,0,0,2.6-.7,5.5,5.5,0,0,0,2.5-4.1,7.2,7.2,0,0,0,.1-1.3V19a5.5,5.5,0,0,0-5.8-5.1H18.4A51.4,51.4,0,0,0,9.8,7.1h0a4.7,4.7,0,0,0-2.6-.8Z" transform="translate(4.1)" style="fill:#ff8d3d"/><path d="M15.5,16.8a41.8,41.8,0,0,0-9.4-6.6l.3-.4a42.8,42.8,0,0,1,9.5,6.7.2.2,0,0,1,0,.3Z" transform="translate(4.1)" style="fill:#ffaa5a"/><path d="M4.6,12.1l.3-.3a90.2,90.2,0,0,1,9.1,5,.4.4,0,0,1,.1.3h-.4A100.1,100.1,0,0,0,4.6,12.1Z" transform="translate(4.1)" style="fill:#ffaa5a"/><path d="M3.4,13.8l.3-.3,9.7,4.6c.2,0,.2.2.2.3s-.2.1-.3,0C10,17,6.7,15.4,3.4,13.8Z" transform="translate(4.1)" style="fill:#ffaa5a"/></g></g></g></svg>