<svg xmlns="http://www.w3.org/2000/svg" viewBox="0 0 65.7 204.4"><g id="Layer_2" data-name="Layer 2"><g id="Layer_1-2" data-name="Layer 1"><path d="M44.1,130.9c6.3,0,11.4,2.1,11.4,4.7h0c.1.6,10.7,52.3,6,59.4-2.2,3.4-6.3,5-9.9,5.8a33.2,33.2,0,0,1-6.2.6H42.8c-3.3,0-12.3-.6-16.1-6.4s6-59.4,6-59.4h0c0-2.6,5.1-4.7,11.4-4.7m0-3c-6.9,0-14.3,2.4-14.4,7.6s-3.6,19.1-4.8,26.7c-3.8,25.7-2.4,31.9-.7,34.5,4.6,6.9,14.5,7.7,18.6,7.7h2.6a31.7,31.7,0,0,0,6.8-.7c5.4-1.1,9.5-3.5,11.8-7s3.1-8.7-.7-34.3c-1.9-13-4.4-25.1-4.8-27.1-.3-5.1-7.6-7.4-14.4-7.4Z" style="fill:#a7bfee"/><path d="M61.5,195c-2.2,3.4-6.3,5-9.9,5.8a33.1,33.1,0,0,1-7.5.6s-12.7.8-17.4-6.4,6-59.4,6-59.4H55.5S66.2,187.8,61.5,195Z" style="fill:#cfe1ff"/><path d="M55.5,135.6c0,2.6-5.1,4.7-11.4,4.7s-11.4-2.1-11.4-4.7,5.1-4.7,11.4-4.7S55.5,133,55.5,135.6Z" style="fill:#a7bfee"/><path d="M51.6,200.8a33.1,33.1,0,0,1-7.5.6s-12.7.8-17.4-6.4,6-59.4,6-59.4h4l.8,1.1s-7.1,42.4-3.3,51.9S44.1,200.9,51.6,200.8Z" style="fill:#a7bfee"/><path d="M53.4,135.6c0,1.9-4.2,3.4-9.3,3.4s-9.3-1.5-9.3-3.4,4.2-3.3,9.3-3.3S53.4,133.8,53.4,135.6Z" style="fill:#efefef"/><path d="M3.2,42.5c1.4,0,8.6,9.3,13.4,15.5S30.8,75.3,38.8,91a61.4,61.4,0,0,1,4.1,10.9,61.3,61.3,0,0,1,2.8-11.4C47.4,86.1,51,72.1,51,72.1c.9-2.9,1.4-9.1,1.6-12.3a.6.6,0,0,1,.6-.6.6.6,0,0,1,.6.3c7.3,14.9,1.9,55.2.7,65.1s-7.3,12.8-8.4,13.3a.7.7,0,0,1-.1.5s-8.9-2.8-11.9-9.9c-1.9,3.6-3.5,7.1-4.6,8.5-3,3.9-9.9,11.1-12.3,11.1h-.1c-2.3-.2,3.1-6.6,3.9-11.9s1.8-6.8,4-12.5a15.9,15.9,0,0,1,6.1-7.9c-8.4-10.8-7.3-17-12.1-28A167.2,167.2,0,0,1,9.6,57.2C8.5,51.5,2.4,43.8,3.1,42.6a.1.1,0,0,1,.1-.1m0-3h0A3.3,3.3,0,0,0,.4,41.1c-1.1,2,0,3.9,2.2,7.7s3.5,6.3,4,8.9A179.5,179.5,0,0,0,16.2,89a79.7,79.7,0,0,1,3.5,9.9c1.5,5.2,2.9,10.1,7.3,16.4a20.2,20.2,0,0,0-4.9,7.3c-.4,1.4-.9,2.4-1.2,3.4a35.5,35.5,0,0,0-2.8,9.8,22.5,22.5,0,0,1-2.7,6.5c-1.5,2.9-2.5,4.9-1.4,6.9a3.4,3.4,0,0,0,2.8,1.9h.4c5,0,14.6-12.1,14.7-12.2a31,31,0,0,0,2.5-4.4,27.6,27.6,0,0,0,10.7,6.8H46a2.6,2.6,0,0,0,1.5-.4,2.3,2.3,0,0,0,1.1-1.1c2.6-1.6,7.7-5.9,8.8-14.9v-.8c4.4-34.1,4.1-55.7-1-66a3.5,3.5,0,0,0-3.3-2,3.6,3.6,0,0,0-3.6,3.4,81.4,81.4,0,0,1-1.4,11.6h-.1c0,.2-3.6,14-5.2,18.2l-.6,1.8-.9-1.7C34.6,76.1,26.7,66.1,21.5,59.5l-2.6-3.3C6.7,40.3,5.4,39.5,3.2,39.5Z" style="fill:#507125"/><path d="M46.6,130.9s.1-24.2-7.8-39.9S21.6,64.7,16.6,58,3.7,41.4,3.1,42.6s5.4,8.9,6.5,14.6A167.2,167.2,0,0,0,19,87.8c5,11.5,3.6,17.7,13.1,29.3S46.6,130.9,46.6,130.9Z" style="fill:#6c9433"/><path d="M48.2,126.3c-3.5-35.4-.4-88.7-.3-89.3l2,.2c-.1.5-3.2,53.6.3,88.9Z" style="fill:#595d2c"/><path d="M45.1,138a1.2,1.2,0,0,1-1.1-.7C25.6,75.5,30.3,63.1,30.5,62.6a1.1,1.1,0,0,1,1.5-.5,1,1,0,0,1,.5,1.4c0,.2-4.4,13,13.6,73.1a1.2,1.2,0,0,1-.7,1.4Z" style="fill:#595d2c"/><path d="M46,137.9s7.1-2.9,8.5-13.3,6.6-50.2-.7-65.1a.6.6,0,0,0-1.2.3c-.2,3.2-.7,9.4-1.6,12.3,0,0-3.6,14-5.3,18.4C40.1,105.7,40.3,133,46,137.9Z" style="fill:#96b85c"/><path d="M40.1,118.1a4.1,4.1,0,0,1,5,2.3c1.6,3.5,1.9,13.5.9,18,0,0-12.1-3.8-12.9-13.8S40.1,118.1,40.1,118.1Z" style="fill:#6c9433"/><path d="M45.1,120.4s.6-3.2-7.8-4.3a6.1,6.1,0,0,0-3.4-1.6c-1.7,0-6.8,3.4-8.9,9.2s-3.1,7.2-4,12.5-6.2,11.7-3.9,11.9,9.4-7.2,12.4-11.1S39.6,112.5,45.1,120.4Z" style="fill:#96b85c"/><path d="M56,36.3s5.3-1.8,6.2-13.3S59.8,6.4,58.6,6.4s-.7,2.6-2.4,4S50.3,37,56,36.3Z" style="fill:#f7b0d2"/><path d="M59,10.9a6.3,6.3,0,0,0-2.1-4.3c-1.7-1.5-3.8-3.2-4.7-3.2s-6.3,4.2-7.7,8.2-5.5,25,3.7,25.6S59.5,21.2,59,10.9Z" style="fill:#f2a7cf"/><path d="M48.7,11.5a9.5,9.5,0,0,1-1.3-4.4c0-2.4.8-4.1-.1-4.1s-5.1,2.9-5.9,7.6-4.7,19.7.6,24.5,6.8-2.6,6.8-2.6S52.4,17.1,48.7,11.5Z" style="fill:#f4b8d7"/><path d="M56.2,6s-1.3-1.4-1.8-.6.2,1.2-1.5,2-6.1,5.1-7,10.2-.5,9.4-1.4,13,.1,7.5,4.5,7.4a7.8,7.8,0,0,0,7.9-2.6c3.6-4,5.5-16.4,4.7-20.4S56.2,6,56.2,6Z" style="fill:#f4c6df"/><path d="M41.9,35s1.4,3.8,4.2,4.7,7.4-1.1,6.5-1.6-.5-1.9-1.2-2-1.9,1.4-5.2,1C45.4,37,41.7,33.7,41.9,35Z" style="fill:#96b85c"/><path d="M41.9,35s1.3,3.7,4.3,4.7a7.6,7.6,0,0,0,4.5-.3,8.9,8.9,0,0,0,1.9-1,9.3,9.3,0,0,1-3.9.8,5.2,5.2,0,0,0,2.8-2.9s-2,2.8-5.1,2.7S41.9,35,41.9,35Z" style="fill:#605e22;opacity:0.5"/><path d="M47.3,3c.9,0,.1,1.7.1,4.1h0c1.8-2.2,4-3.7,4.8-3.7s3,1.7,4.7,3.2a3.4,3.4,0,0,1,.8.9c.2-.6.4-1.1.9-1.1s4.4,5,3.6,16.6S56.6,36,56,36.3A7.7,7.7,0,0,1,52.6,38h0c.1,0,.1.2,0,.3h0A6.3,6.3,0,0,1,50,39.6l-2.3.3H46.1a5.7,5.7,0,0,1-2.2-1.5,10.3,10.3,0,0,1-2-3.2h0c-5.2-4.9-1.3-19.7-.5-24.3S46.3,3,47.3,3M45.4,36.7h0M47.3,0c-2.8,0-7.9,4.3-8.9,10.1-.1.5-.2,1.2-.4,2-1.3,6.6-3.7,18.7,1.3,24.4a11.2,11.2,0,0,0,2.4,3.7,8.2,8.2,0,0,0,3.4,2.3h1l1.6.2a15.4,15.4,0,0,0,3-.4,10.1,10.1,0,0,0,3.8-1.8.2.2,0,0,0,.2-.2h.1a12.2,12.2,0,0,0,2.9-1.7c1.8-.9,6.6-4.5,7.5-15.6s-1.4-16-3.6-18.4a3.9,3.9,0,0,0-3-1.4h-.7C54.8.9,53.4.4,52.2.4a4.4,4.4,0,0,0-2.4.7A3.3,3.3,0,0,0,47.3,0Z" style="fill:#fa789e"/><path d="M31.9,60.8s-3.5,2.3-4.2-2.3.3-22.7,2.9-24.9,7-4.8,8.5-4.2,3.3,4.8,4.3,8.2-4,23.6-6.6,23.6A30.6,30.6,0,0,1,31.9,60.8Z" style="fill:#f2a7cf"/><path d="M38.7,32.6s5.7-.8,7-.1,3.3,2,.7,8.5L41.3,53.1Z" style="fill:#f7b0d2"/><path d="M37.8,32.2a2,2,0,0,0-2,1.1c-.7,1.3-7.2,4.6-8.5,11.9s-1.5,16.6,1.9,16.9a7.9,7.9,0,0,0,5-.7s3.1,1.6,4.3.3,2-6,3-8.5,6.3-6.7,4.3-11S40.1,32.3,37.8,32.2Z" style="fill:#f4b8d7"/><path d="M29,61.8a26.9,26.9,0,0,1,.4-8.1c.9-4.4,1.2-9-.2-9.7a12.7,12.7,0,0,0,2.1-6c.4-3.9,2.6-6.4,1.7-7.3s-5.7-.7-6.7,1.4-4.7,13.7-4,17.8S25.2,61.6,29,61.8Z" style="fill:#f4c6df"/><path d="M28.8,61.8a7.3,7.3,0,0,0,6.4-2.6c1.8-2.2.2,2.6,3.1,2.7,0,0-1.4,2-5.8,2s-7.1-3.4-6.8-4.5S26.9,61.6,28.8,61.8Z" style="fill:#96b85c"/><path d="M38.3,61.9a5.4,5.4,0,0,1-3.3,1,6.6,6.6,0,0,0,.9-4.3s.1,4.9-4.4,4.5a7.1,7.1,0,0,1-5.8-3.8s-.3.6.5,1.6a7.6,7.6,0,0,0,5.5,3C35.1,64.2,37.7,62.7,38.3,61.9Z" style="fill:#605e22;opacity:0.5"/><path d="M38.5,29.3h.6a6.7,6.7,0,0,1,2.3,2.9h2.1a5.7,5.7,0,0,1,2.2.3c.8.4,3.3,2,.7,8.5a11.2,11.2,0,0,0-.5,1.3c1.9,4.3-3.4,8.3-4.4,10.9s-1.7,7.2-3,8.5-.1.2-.3.2a5,5,0,0,1-3.1,1.7H35l-.5.2H32.4a5.5,5.5,0,0,1-1.8-.2H30a7.5,7.5,0,0,1-3.1-1.9l-.7-.8h0a4.3,4.3,0,0,1-.6-1.2.4.4,0,0,1,.1-.3h0c-1.9-2.6-3-6.8-3.4-9.5s3-15.7,4-17.8,2.7-1.9,4.5-1.9a3.7,3.7,0,0,1,2.2.5,1.2,1.2,0,0,1,.2,1c1.9-1.3,4-2.4,5.3-2.4m0-3h0a9.8,9.8,0,0,0-4.6,1.5,7.5,7.5,0,0,0-3.1-.6c-2.7,0-6,1-7.2,3.6s-5.1,14.4-4.3,19.5a33.5,33.5,0,0,0,3.4,10.1,4.5,4.5,0,0,0,1.1,2.3,5.2,5.2,0,0,0,1,1.1,10,10,0,0,0,4.3,2.6l.6.2H30l2.4.2h.3a9.7,9.7,0,0,0,2.4-.2h.8a7.9,7.9,0,0,0,4.3-2.3l.6-.5c1.2-1.4,1.8-3.6,2.6-6.3a30.9,30.9,0,0,1,.9-3.1,13,13,0,0,1,1.3-1.9c1.8-2.4,4.5-5.9,3.5-10v-.2c3.2-8,.1-11.1-2-12.3a7.4,7.4,0,0,0-3.7-.7H43a5.8,5.8,0,0,0-2.7-2.5,3.7,3.7,0,0,0-1.8-.4Z" style="fill:#fa789e"/></g></g></svg>