<svg xmlns="http://www.w3.org/2000/svg" viewBox="0 0 76.6 41.5"><g style="isolation:isolate"><g id="Layer_2" data-name="Layer 2"><g id="Layer_1-2" data-name="Layer 1"><path d="M17.3,2h1.5A13,13,0,0,1,29.7,11h.6a2.2,2.2,0,0,1,.5-.6C31.9,8.8,34.5,8,36.5,8h0A5.4,5.4,0,0,1,40,9.1a3.3,3.3,0,0,1,1.7-.4,8.9,8.9,0,0,1,3.3.8,7.5,7.5,0,0,1,3.4,3.2l.3.4h.5A7.5,7.5,0,0,1,54,16.8a4.6,4.6,0,0,1,.8,2.1H55c.1,0,.2.1.1.2v.3a2.7,2.7,0,0,1,2.2,1.8,8.6,8.6,0,0,1,.1,1.6h.8a17.1,17.1,0,0,1,6.7,1.4,28.2,28.2,0,0,1,9.2,6.9c.4.5.8,1.3.3,1.7a.7.7,0,0,1-.6.3H70.5a3.6,3.6,0,0,1-.4.9,8.5,8.5,0,0,1-4.3,2.8,40,40,0,0,1-6.7,2.1,23.7,23.7,0,0,1-5.2.6,18.5,18.5,0,0,1-4.6-.5,8.9,8.9,0,0,1-4.7-3.2l-.9.2h-1l-1,.2-2,.3a21.9,21.9,0,0,1-3.6.3h-.5a20.8,20.8,0,0,1-6-.9c-1.7-.5-3.7-.8-5-2A6.9,6.9,0,0,1,23,31.8c0-.1-.1-.3-.1-.4h-.2c-.1,0-.1-.1-.1-.2a.1.1,0,0,0,0-.2l-.6-.7a16.8,16.8,0,0,1-3.2,3.3,12.4,12.4,0,0,1-7.3,2,19.5,19.5,0,0,1-3.4-.3,7.9,7.9,0,0,1-4.6-1.9A5.8,5.8,0,0,1,2,28.9,5.8,5.8,0,0,1,4.4,25a12.8,12.8,0,0,1,3.8-1.6l1-.2a8.1,8.1,0,0,1-3.1-4.4c-.8-2.4-.4-5.1.2-7.6A18.6,18.6,0,0,1,8.2,6.6,10.5,10.5,0,0,1,17.3,2m0-2A12.6,12.6,0,0,0,6.5,5.5a24.5,24.5,0,0,0-2.1,5.2,15.3,15.3,0,0,0-.2,8.7,7.9,7.9,0,0,0,1.3,2.8,7.2,7.2,0,0,0-2.3,1.2A7.5,7.5,0,0,0,.1,28.7a7.3,7.3,0,0,0,2,6,10,10,0,0,0,5.7,2.5l3.7.3a14.1,14.1,0,0,0,8.4-2.4c.6-.4,1.2-1,1.8-1.5a7.8,7.8,0,0,0,1.6,2,11.8,11.8,0,0,0,4.9,2.1l.9.2a23.8,23.8,0,0,0,6.5,1h.5c1.4,0,2.8-.2,3.9-.3l1.5-.3H42l1-.2h.8a11.4,11.4,0,0,0,5.1,3,21.2,21.2,0,0,0,5,.5,23.4,23.4,0,0,0,5.7-.7,42.2,42.2,0,0,0,6.9-2.1,9.9,9.9,0,0,0,5.2-3.5h2.4a3.7,3.7,0,0,0,1.7-.8c1.2-1.1,1.1-3-.3-4.5a26.5,26.5,0,0,0-9.8-7.4,18.6,18.6,0,0,0-6.5-1.5v-.3a5.5,5.5,0,0,0-2.4-2.8h0l-.2-.2a8.4,8.4,0,0,0-.9-1.9A9.7,9.7,0,0,0,50,11.3a9.3,9.3,0,0,0-4.2-3.6,11.1,11.1,0,0,0-4.1-1l-1.4.2A7.9,7.9,0,0,0,36.5,6h0a10.2,10.2,0,0,0-5.9,1.8A15.2,15.2,0,0,0,19,.1Z" style="fill:#7a893b"/><path d="M18.8,33.5c-3,2.1-7,2.4-10.7,1.7a7.9,7.9,0,0,1-4.6-1.9A5.8,5.8,0,0,1,2,28.9,5.8,5.8,0,0,1,4.4,25a12.8,12.8,0,0,1,3.8-1.6,37.5,37.5,0,0,1,8.2-.9,9.7,9.7,0,0,1,4.8,1.1C25.7,26.4,21.7,31.4,18.8,33.5Z" style="fill:#9ab259"/><path d="M11.9,27h.5a5.7,5.7,0,0,0,2.5-.7,4.1,4.1,0,0,0,1.9-2c.1,0,0-.2-.1-.2s-.2,0-.2.1a4.2,4.2,0,0,1-1.7,1.8,12.6,12.6,0,0,1-2.5.7c-.6,0-1,0-1.3-.3l.3-.3c.1,0,.1-.1.1-.2h-.3l-.5.6v.2A1.5,1.5,0,0,0,11.9,27Z" style="fill:#8a9b4b"/><path d="M35.6,37.4a21,21,0,0,1-6.1-.9l-1-.3a9.3,9.3,0,0,1-4.2-1.8A6.1,6.1,0,0,1,22.6,32v-.2l-.3-.7-.6-.7a25.2,25.2,0,0,1-5.3-7.2c0-.2-.1-.4-.1-.7a1.6,1.6,0,0,1,.5-.6l8.5-5.8.3-.2A4.9,4.9,0,0,1,28,14.7h.4c.8.3,1.1,1.2,1.4,2a.8.8,0,0,1,.2.4,29.7,29.7,0,0,0,3.9,5.7,8.4,8.4,0,0,0,2.6,1.7l1.2.6a10.9,10.9,0,0,0,5.6,1.6h.6a10.3,10.3,0,0,0,3.7-1.5,9.1,9.1,0,0,1,4.3-1.6c.3,0,.5.1,3.1,1.8l1.2.9a1.8,1.8,0,0,1,1.1,1.3c.8,2.7-4,5.2-6.8,6.7l-.8.4a15.8,15.8,0,0,1-5.9,1.8l-2.6.4a42,42,0,0,1-5.1.5Z" style="fill:#aec679"/><path d="M28,15.2h.2c.8.2,1.1,1.5,1.4,2.2a25,25,0,0,0,3.9,5.7c.9,1.2,2.7,1.7,4,2.4a11.4,11.4,0,0,0,5.8,1.7h.6c2.7-.2,5.3-3.1,8-3.1h0c.3,0,3.9,2.5,4.1,2.6a1.6,1.6,0,0,1,.8,1c.8,2.6-5.3,5.5-7.3,6.6A16.9,16.9,0,0,1,43.7,36a65.6,65.6,0,0,1-7.6.9h-.5a20.8,20.8,0,0,1-6-.9c-1.7-.5-3.7-.8-5-2A6.9,6.9,0,0,1,23,31.8a2.5,2.5,0,0,0-.4-.9l-.7-.9a25.2,25.2,0,0,1-5.1-7,.8.8,0,0,1-.1-.4c0-.1.2-.2.3-.3l8.5-5.8A5,5,0,0,1,28,15.2m0-1h0a5.2,5.2,0,0,0-2.8,1.3l-.3.2-4.5,3.1-4,2.7a1.7,1.7,0,0,0-.7.9,1.5,1.5,0,0,0,.2,1,26.2,26.2,0,0,0,5.3,7.3h0l.5.6.3.6v.2a7.5,7.5,0,0,0,1.8,2.6,11.1,11.1,0,0,0,4.5,1.9l1,.3a21.6,21.6,0,0,0,6.2.9h.5a43.6,43.6,0,0,0,5.2-.5l2.5-.4A16.8,16.8,0,0,0,50,35.2l.7-.4c3-1.6,8-4.3,7-7.4a2.3,2.3,0,0,0-1.2-1.6L55.2,25c-2.8-1.9-2.9-1.9-3.3-1.9a9.4,9.4,0,0,0-4.5,1.6,11.1,11.1,0,0,1-3.5,1.5h-.6A10.7,10.7,0,0,1,38,24.7L36.7,24a7,7,0,0,1-2.4-1.5,27.4,27.4,0,0,1-3.8-5.6.8.8,0,0,1-.2-.4c-.3-.8-.7-1.9-1.8-2.2Z" style="fill:#7a893b"/><path d="M23.5,31.6c.1,0,.2,0,.2-.1a.3.3,0,0,0-.1-.2l-.8-.3s-.2,0-.2.1,0,.2.1.2l.7.3Z" style="fill:#9ab259"/><path d="M24.9,31.9c-.1,0-.1-.1-.1-.2s.1-.2.2-.1h1.4a.2.2,0,1,1,0,.4H24.9Zm2.8-.3a.2.2,0,0,1,.2-.2l1.3-.4c.1-.1.2,0,.3.1s0,.2-.1.2l-1.5.5h0Zm2.8-1c-.1-.1,0-.2,0-.3a5.7,5.7,0,0,0,1.3-.8H32a.2.2,0,0,1,0,.3,5.7,5.7,0,0,1-1.3.8h-.2Zm2.4-1.8c-.1,0-.1-.2,0-.2l.9-1h.1c.1-.1.2-.1.2,0a.4.4,0,0,1,.1.3h-.1l-1,1h-.2Zm2-2.1a.2.2,0,0,1,0-.3l1-1.1c0-.1.1-.1.2,0s.1.2,0,.2l-1,1.1h-.2Zm2-2.3c-.1,0-.1-.1-.1-.2l1-1.1a.2.2,0,0,1,.3,0c.1,0,.1.1,0,.2l-1,1.1a.1.1,0,0,1-.1.1C36.9,24.5,36.9,24.5,36.9,24.4Z" style="fill:#9ab259"/><path d="M38.9,22.3h.2l.5-.6a.2.2,0,0,0,0-.3h-.3l-.5.6c-.1,0-.1.1,0,.2A.1.1,0,0,1,38.9,22.3Z" style="fill:#9ab259"/><g style="opacity:0.49"><path d="M47.1,32.9a25.8,25.8,0,0,0,9.5-3.7c-1.2,2.1-5.5,4.2-7.1,5.1A16.9,16.9,0,0,1,43.7,36c-2.7.3-5.3,1-8.1.9a20.8,20.8,0,0,1-6-.9c-1.7-.5-3.7-.8-5-2A6.9,6.9,0,0,1,23,31.8a2.5,2.5,0,0,0-.4-.9l-.7-.9a19.3,19.3,0,0,1-2.7-3,19.8,19.8,0,0,0,7.9,5.2A50.8,50.8,0,0,0,47.1,32.9Z" style="fill:#aaa397;opacity:0.34;mix-blend-mode:multiply"/></g><path d="M64.9,24.2a28.2,28.2,0,0,1,9.2,6.9c.4.5.8,1.3.3,1.7a.7.7,0,0,1-.6.3,18,18,0,0,1-6.1-.5l-7.6-2a14.1,14.1,0,0,1-5-2.2c-.9-.8-2.2-2.3-2-3.6s1.1-1.5,2.2-1.7A15.9,15.9,0,0,1,64.9,24.2Z" style="fill:#aec679"/><path d="M53.9,40a18.8,18.8,0,0,1-4.7-.5c-2.5-.6-4.2-2.4-5.8-4.2l-.5-.5A10.6,10.6,0,0,1,40,30.2a6,6,0,0,1,3.4-6.7,5.4,5.4,0,0,1,2.2-.4,6,6,0,0,1,5,2.6l.2.3a1.5,1.5,0,0,0,.5.6,2.1,2.1,0,0,0,1.1.4l2.6.3A4.2,4.2,0,0,1,58.3,26h.5l1.5.2,1.9.3h2a2,2,0,0,1,1.3.4,1.9,1.9,0,0,1,.6.7l.3.4a3.8,3.8,0,0,0,1.7.7,4.9,4.9,0,0,1,1.6.5,3,3,0,0,1,1.4,2,3.9,3.9,0,0,1-.6,3.3c-1,1.5-2.8,2.3-4.5,3s-4.5,1.5-6.8,2.1A25.3,25.3,0,0,1,53.9,40Z" style="fill:#9ab259"/><path d="M45.6,23.6A5.6,5.6,0,0,1,50.2,26a2,2,0,0,0,.8,1,2.9,2.9,0,0,0,1.3.5l3,.3a3.5,3.5,0,0,1,3-1.3h.5c1.2.1,2.3.5,3.4.5h2a1.3,1.3,0,0,1,1,.3c.4.3.5.7.9,1.1s2.3.6,3.3,1.2,1.7,3.2.7,4.6a8.5,8.5,0,0,1-4.3,2.8,40,40,0,0,1-6.7,2.1,23.7,23.7,0,0,1-5.2.6,18.5,18.5,0,0,1-4.6-.5c-2.6-.6-4.3-2.7-6.1-4.6a9.3,9.3,0,0,1-2.7-4.3A5.4,5.4,0,0,1,43.6,24a4.8,4.8,0,0,1,2-.4m0-1h0a5.9,5.9,0,0,0-2.3.4,6.7,6.7,0,0,0-3.8,7.3,11.2,11.2,0,0,0,3,4.8l.5.6c1.7,1.8,3.4,3.7,6.1,4.3a19.6,19.6,0,0,0,4.8.5,26.2,26.2,0,0,0,5.4-.6,69.5,69.5,0,0,0,6.9-2.1,9.7,9.7,0,0,0,4.7-3.2,4.9,4.9,0,0,0,.7-3.7,3.3,3.3,0,0,0-1.7-2.4,6.4,6.4,0,0,0-1.7-.5,2.6,2.6,0,0,1-1.4-.5l-.3-.4a2.5,2.5,0,0,0-.7-.8,2.4,2.4,0,0,0-1.6-.5h-2a11.3,11.3,0,0,1-1.8-.3l-1.5-.2h-.6a4.5,4.5,0,0,0-3.5,1.3l-2.3-.3c-.4-.1-.7-.1-.9-.3l-.4-.5c-.1-.1-.1-.2-.2-.2a6.3,6.3,0,0,0-5.4-2.9Z" style="fill:#7a893b"/><path d="M53.3,28.2H53a7.2,7.2,0,0,1-3.3-1.5l-1.2-.8a4,4,0,0,0-2.2-.6,5.1,5.1,0,0,0-3.4,1.3l-.3.3a3.8,3.8,0,0,1-1.2.9,2.6,2.6,0,0,1-1.5.4,6.8,6.8,0,0,1-3.3-1.1,30.7,30.7,0,0,1-6.7-5.7,19.1,19.1,0,0,1-3.5-5.8,5.2,5.2,0,0,1,.4-3.9,3.4,3.4,0,0,1,2.1-1.6h1c1.4-2,4.3-2.9,6.6-2.9a6.3,6.3,0,0,1,3.6,1,4,4,0,0,1,1.5-.3,11.7,11.7,0,0,1,3.8.9,7.7,7.7,0,0,1,3.9,3.6,8.4,8.4,0,0,1,5.6,4.1,5.6,5.6,0,0,1,.9,2.2,3.8,3.8,0,0,1,2.4,2.4,4.2,4.2,0,0,1,0,2.7,7.4,7.4,0,0,1-1.6,3.2A4.7,4.7,0,0,1,53.3,28.2Z" style="fill:#8c503b"/><path d="M36.5,8h0A5.4,5.4,0,0,1,40,9.1a3.3,3.3,0,0,1,1.7-.4,8.9,8.9,0,0,1,3.3.8,7.5,7.5,0,0,1,3.4,3.2l.3.4h.5A7.5,7.5,0,0,1,54,16.8a3.7,3.7,0,0,1,.8,2.6H55a2.7,2.7,0,0,1,2.3,1.8,4.1,4.1,0,0,1-.1,2.2,4.7,4.7,0,0,1-1.4,2.7,3.3,3.3,0,0,1-2.5,1.1h-.2c-1.6-.1-2.7-1.5-4.1-2.2a5.2,5.2,0,0,0-2.7-.7,5.7,5.7,0,0,0-4,1.5A14.2,14.2,0,0,1,41,27l-1.1.2a5.6,5.6,0,0,1-2.8-1,28.3,28.3,0,0,1-6.5-5.5,16.4,16.4,0,0,1-3.2-5.4c-.5-1.6,0-3.8,1.8-4.3h1.1a2.2,2.2,0,0,1,.5-.6C31.9,8.8,34.5,8,36.5,8m0-2c-2.3,0-5.4.8-7.1,3h-.7a4.8,4.8,0,0,0-2.8,2.1,6.3,6.3,0,0,0-.4,4.7A17.9,17.9,0,0,0,29.1,22h0a30.5,30.5,0,0,0,7,5.9,6.9,6.9,0,0,0,3.8,1.3,4.6,4.6,0,0,0,2-.5,5.7,5.7,0,0,0,1.4-1.1l.3-.3a4.3,4.3,0,0,1,2.7-1,3.4,3.4,0,0,1,1.7.5,2.6,2.6,0,0,1,1.1.7,7.4,7.4,0,0,0,3.8,1.7h.4a5.6,5.6,0,0,0,4-1.7,7.8,7.8,0,0,0,1.9-3.6,6.1,6.1,0,0,0,0-3.3,4.9,4.9,0,0,0-2.5-2.8,6.8,6.8,0,0,0-1-2.1A9.7,9.7,0,0,0,50,11.3a9.3,9.3,0,0,0-4.2-3.6,11.1,11.1,0,0,0-4.1-1l-1.4.2A7.9,7.9,0,0,0,36.5,6Z" style="fill:#6a3417"/><path d="M54.8,20h.1a3.1,3.1,0,0,0,.2-.8c.1-.1,0-.2-.1-.2s-.2,0-.2.1a6.4,6.4,0,0,1-.2.7c-.1.1,0,.2.1.3Z" style="fill:#753a28"/><path d="M52.4,21.9a.2.2,0,1,1,0-.4h.5a2,2,0,0,0,.9-.5H54a.2.2,0,0,1,0,.3,2.4,2.4,0,0,1-1.1.6h-.5Zm-1.6-.6-.2-.2a.5.5,0,0,1-.4-.2l-.7-.5a.4.4,0,0,1-.1-.3.2.2,0,0,1,.3,0l.7.5.4.2.2.2c.1,0,.1.2.1.2h-.3Zm-9-.1L40.1,21a.4.4,0,0,1-.1-.3h.2l1.6.3a.2.2,0,0,1,.2.2Zm1.4-.2a.4.4,0,0,1,.1-.3l1.6-.5c.1,0,.2,0,.2.1a.4.4,0,0,1-.1.3l-1.6.5h0C43.3,21.1,43.2,21.1,43.2,21Zm-4.6-.6-.5-.2-1-.4c-.1-.1-.2-.2-.1-.3s.1-.1.2-.1l1.1.5.4.2c.1,0,.2.1.1.2Zm7.7-.5c0-.1,0-.2.1-.2a5.2,5.2,0,0,1,1.7-.2.2.2,0,0,1,.2.2c-.1.1-.1.2-.3.2a4,4,0,0,0-1.5.1h0C46.4,20,46.3,20,46.3,19.9ZM35.6,19l-1.4-.8a.2.2,0,0,1,0-.3h.2l1.4.9c.1,0,.1.1.1.2h-.3Zm-2.7-1.8-.5-.4-.8-.6a.2.2,0,0,1,0-.3h.3l.7.7.5.3a.4.4,0,0,1,.1.3h-.3ZM30.5,15l-.5-.5-.5-.9s0-.2.1-.2.2,0,.2.1l.5.7.4.6c.1.1.1.2,0,.2h-.2Z" style="fill:#753a28"/><path d="M29.1,12.2h.1c.1,0,.2-.1.1-.2v-.8h-.4a2.8,2.8,0,0,0,.1.9Z" style="fill:#753a28"/><path d="M51.6,17a6.3,6.3,0,0,0-5.5-3.5,7.4,7.4,0,0,1,4.1,2.6,9.4,9.4,0,0,1,1.5,3,20.5,20.5,0,0,1,.5,2.4A8.5,8.5,0,0,0,51.6,17Z" style="fill:#753a28"/><path d="M43.1,10A5.6,5.6,0,0,0,40,9.1a13.9,13.9,0,0,1,2.8,1.2l1.2.8,1.4,1.8A8.2,8.2,0,0,0,43.1,10Z" style="fill:#753a28"/><path d="M39.3,13.9a16.6,16.6,0,0,1,3.1-1.2,8.6,8.6,0,0,1,3.5.6,5.5,5.5,0,0,0-3.9-.9,9.4,9.4,0,0,0-1.5.6Z" style="fill:#753a28"/><path d="M43.5,17.5a5.7,5.7,0,0,0-4.4-3.2,5.6,5.6,0,0,1,3.1.9,7,7,0,0,1,1.8,2c.5.9,1.1,2.8.1,3.5A4.5,4.5,0,0,0,43.5,17.5Z" style="fill:#753a28"/><path d="M32.6,10.7a5.1,5.1,0,0,0-2.2.5,7.7,7.7,0,0,1,7.9,3A6,6,0,0,0,32.6,10.7Z" style="fill:#753a28"/><path d="M36.2,15.5A4.2,4.2,0,0,0,35,18a3.2,3.2,0,0,1,.6-2.3,3.5,3.5,0,0,1,2.2-1.4,2.4,2.4,0,0,1,1.4.1A3.8,3.8,0,0,0,36.2,15.5Z" style="fill:#753a28"/><path d="M48.6,13s-1.7-.6-2.7.2A6,6,0,0,1,48.6,13Z" style="fill:#753a28"/><path d="M21.9,26.4l-.9.3H19.9l-.9-.2h-.4c-1.7.5-2.9-.1-4.6-.8a9,9,0,0,1-3.2-2.8c-.5-.6-1.1-.2-.5-.6s2.1-.7,3.1-1.1a30.7,30.7,0,0,0,3.9-2.3,41.9,41.9,0,0,1,11-5c.6-.2.9,0,1.4,0a4,4,0,0,1,.1,1.9,13.3,13.3,0,0,1-6.6,9.7Z" style="fill:#aaa397;opacity:0.34;mix-blend-mode:multiply"/><path d="M15.5,26a7,7,0,0,1-3.9-1.3h-.2a.1.1,0,0,0-.1-.1c-2.8-.3-4.9-3-5.7-5.5a13.5,13.5,0,0,1,.3-7.9A14.9,14.9,0,0,1,7.8,6.3a11.1,11.1,0,0,1,9.5-4.8h1.6A13.5,13.5,0,0,1,30.7,12.9,9.7,9.7,0,0,1,27.1,22,15.1,15.1,0,0,1,24,23.6,32.1,32.1,0,0,1,16.4,26Z" style="fill:#aec679"/><path d="M17.3,2h1.5A13.1,13.1,0,0,1,30.2,13a9.4,9.4,0,0,1-3.4,8.6,14,14,0,0,1-3,1.5,28.5,28.5,0,0,1-7.5,2.4h-.8a5.8,5.8,0,0,1-3.6-1.2l-.3-.2h-.3c-2.6-.2-4.5-2.9-5.2-5.2s-.4-5.1.2-7.6A18.6,18.6,0,0,1,8.2,6.6,10.5,10.5,0,0,1,17.3,2m0-1h0a11.6,11.6,0,0,0-10,5.1A18.1,18.1,0,0,0,5.4,11a14.2,14.2,0,0,0-.3,8.1c.8,2.7,3.2,5.6,6.1,5.9h.1a6.6,6.6,0,0,0,4.2,1.5h.9a35.6,35.6,0,0,0,7.8-2.4,19.6,19.6,0,0,0,3.2-1.7,10.3,10.3,0,0,0,3.8-9.6A14,14,0,0,0,18.9,1.1Z" style="fill:#7a893b"/><ellipse cx="18" cy="13.1" rx="2.5" ry="3.1" style="fill:#fceddb"/><ellipse cx="18.5" cy="12.6" rx="1.8" ry="2.2" style="fill:#2d2727"/><ellipse cx="8.3" cy="12.8" rx="1.6" ry="2.8" style="fill:#fceddb"/><ellipse cx="8.5" cy="12.3" rx="1.2" ry="2" style="fill:#2d2727"/><path d="M12,19.6c.2.5.5.8.9.7s.5-.5.3-1.1-.5-.8-.8-.7S11.9,19.1,12,19.6Z" style="fill:#4f4040"/><path d="M8.3,19.9c.1.4.4.7.6.6s.3-.4.2-.8-.4-.7-.6-.6S8.1,19.5,8.3,19.9Z" style="fill:#4f4040"/><path d="M12.6,24.2c3.5,0,8.2-1.5,10-3.9.1,0,.1-.2,0-.2a.2.2,0,0,0-.3,0c-1.9,2.6-7.7,4.2-11.1,3.7H11a.2.2,0,0,0,.2.2Z" style="fill:#4f4040"/><path d="M19.6,29.2h.2a4.3,4.3,0,0,0,.4-.7c.1,0,.1-.2,0-.2h-.3l-.4.7c-.1,0-.1.2,0,.2Z" style="fill:#8a9b4b"/><path d="M10.5,34.1H9.3a.2.2,0,1,1,0-.4h1.5a.2.2,0,1,1,0,.4Zm1.6-.3a.4.4,0,0,1,.1-.3,8,8,0,0,0,1.5-.3c.1-.1.2,0,.2.1s0,.2-.1.2l-1.5.4h-.2Zm-4.3-.1H7.4l-1-.4c-.1,0-.2-.1-.1-.2s.1-.1.2-.1l1,.3h.4c.1.1.2.2.1.3s-.1.1-.2.1Zm7.1-.8a.4.4,0,0,1,.1-.3l1.3-.7h.2a.2.2,0,0,1,0,.3l-1.3.7a.1.1,0,0,1-.1.1ZM5,32.6l-.6-.3-.7-.5a.2.2,0,1,1,.3-.3l.6.5.6.3c0,.1.1.2,0,.3H5.1A.1.1,0,0,1,5,32.6Zm12.4-1.3a.4.4,0,0,1,.1-.3l1-1a.2.2,0,0,1,.3,0c.1.1.1.2,0,.2a11.4,11.4,0,0,1-1.1,1.1h-.3Z" style="fill:#8a9b4b"/><path d="M2.9,30.7H3c.1,0,.1-.1,0-.2l-.3-.7H2.5c-.1,0-.1.1-.1.2l.3.8Z" style="fill:#8a9b4b"/></g></g></g></svg>