<svg xmlns="http://www.w3.org/2000/svg" viewBox="0 0 90.9 70.7"><g id="Layer_2" data-name="Layer 2"><g id="Layer_1-2" data-name="Layer 1"><path d="M85.9,5.3c-2.4-.8-3.5-3.8-7.2-3.2a7.1,7.1,0,0,0-5.1,3.4,17.7,17.7,0,0,0-1.8,7.4c.1,3.6.7,12.7,0,15.6s-2.2,7.4-7.4,6.6S55,27.7,43.3,29.9C34,31.7,31.4,41.8,27.7,48.7s-9.3,11-16.1,11.9-8-2.1-9.4-.8,4,7.3,16.5,6.5,15.8-5.7,17.9-6.1,12.8,2.6,22.9.1,17.9-8.9,20.1-20.9S78,21.8,78.5,17.1s5.6-4.6,5.6-4.6c4,.3,4.6-.9,4.8-2.8A3.9,3.9,0,0,0,85.9,5.3Z" style="fill:#0ea1ad"/><g style="opacity:0.08"><path d="M52.2,40.3c12,4.1,13-5.1,12.2-5.2-5.3-.8-9.4-7.4-21.1-5.2a14.1,14.1,0,0,0-8.8,5.8c.2,1-.4,2.7.5,3.9C39.7,46.3,47.2,38.6,52.2,40.3Z" style="fill:#fff"/></g><path d="M75.8,3.5s-1.9.8-3.1,4.6-.5,11.9-.3,14.7c.7,10.9-5.2,12.7-5.2,12.7s7.8-1.9,6.6-12.8a29.2,29.2,0,0,1,2-13C76.7,7.7,74.7,6.8,75.8,3.5Z" style="fill:#fff;opacity:0.08"/><g style="opacity:0.08"><path d="M21.1,59.3c8.6-4.8,9.6-17,13.5-23.7A47,47,0,0,0,32,39.7c-.9,2-1.8,4.1-2.8,5.9l-1.5,3.1c-3.7,6.9-9.3,11-16.1,11.9a16.6,16.6,0,0,1-4.4.1l.5.2C10.3,62,15.3,62.6,21.1,59.3Z" style="fill:#fff"/></g><path d="M45.2,35.6c3.2.4,3.9-4.1,5.7-1.8s2.7,3.3,4.2.5a5.6,5.6,0,0,0,.7-3.2,20.9,20.9,0,0,0-12.5-1.2l-.8.2C42.7,32.5,43,35.3,45.2,35.6Z" style="fill:#ff8e18"/><path d="M59.5,60.3c10.2-2.5,17.9-8.9,20.1-20.9a41.1,41.1,0,0,0,.7-9.4h0s.1,13.7-10.5,20.8-25.9,4.8-26.6,4.4,0,2.2.5,5.7A45.2,45.2,0,0,0,59.5,60.3Z" style="fill:#ff8e18"/><path d="M59.8,59c-5.7,1.4-11.5,1-15.9.5-.2-1.7-.4-3.2-.5-4.2h-.2c-.2-.1,0,2.2.5,5.7a45.2,45.2,0,0,0,15.8-.6c10.2-2.5,17.9-8.9,20.1-20.9a4.3,4.3,0,0,0,.2-1.1C77.6,50.2,69.8,56.4,59.8,59Z" style="fill:#f77d1e"/><path d="M80,36.9v0Z" style="fill:#f4df8b"/><path d="M50.6,60.9l.8-.2c-.4-.6-.2-3.4-.1-4.7h-.9C50.2,59.8,50.6,60.9,50.6,60.9Z" style="fill:#f77d1e"/><path d="M54.4,60.6l.8-.2c-.3-.6-.2-3.3-.1-4.6h-.9C54,59.5,54.4,60.6,54.4,60.6Z" style="fill:#f77d1e"/><path d="M58.8,60l.8-.2c-.4-.6-.2-3.4-.1-4.7l-.9.2C58.4,58.9,58.8,60,58.8,60Z" style="fill:#f77d1e"/><path d="M74.5,50.7,75,50a9.5,9.5,0,0,1-1.8-2l-.6.6A10.4,10.4,0,0,0,74.5,50.7Z" style="fill:#f77d1e"/><path d="M77.2,46.9a5.9,5.9,0,0,1-1.9-1.4l-.5.7a7.6,7.6,0,0,0,2,1.4Z" style="fill:#f77d1e"/><path d="M78.5,43.8a6.3,6.3,0,0,1-1.5-1,1.6,1.6,0,0,0-.4.7,7.1,7.1,0,0,0,1.5,1Z" style="fill:#f77d1e"/><path d="M79.4,40.3a2.4,2.4,0,0,1-1.1-.4l-.3.8a3.8,3.8,0,0,0,1.2.4Z" style="fill:#f77d1e"/><path d="M80,37.4v-.5a.9.9,0,0,1-.1.5Z" style="fill:#efd47c"/><path d="M80.1,36.6h0a.1.1,0,0,0-.1.1Z" style="fill:#efd47c"/><path d="M80.1,36.6h-.7a1.9,1.9,0,0,0-.2.7l.7.2a.9.9,0,0,0,.1-.5v-.2A.1.1,0,0,1,80.1,36.6Z" style="fill:#f77d1e"/><path d="M42.4,47s-3.8-.3-6.2,10.6.7,10.8,2.6,11,8.1.6,9-1.3S48.1,47,42.4,47Z" style="fill:#2bc8cc"/><rect x="42.1" y="45.7" width="0.9" height="2.54" rx="0.4" style="fill:#00848f"/><rect x="44.5" y="47" width="0.9" height="2.54" rx="0.4" transform="translate(30.2 -16) rotate(30)" style="fill:#00848f"/><rect x="39.5" y="47.1" width="0.9" height="2.54" rx="0.4" transform="translate(-18.8 26.4) rotate(-30)" style="fill:#00848f"/><path d="M67.6,46.6s-3.8-.3-6.2,10.6.7,10.9,2.6,11,8.1.6,9-1.3S73.3,46.6,67.6,46.6Z" style="fill:#2bc8cc"/><rect x="67.3" y="45.3" width="0.9" height="2.54" rx="0.4" style="fill:#00848f"/><rect x="69.8" y="46.7" width="0.9" height="2.54" rx="0.4" transform="translate(33.4 -28.7) rotate(30)" style="fill:#00848f"/><rect x="64.7" y="46.8" width="0.9" height="2.54" rx="0.4" transform="translate(-15.3 39) rotate(-30)" style="fill:#00848f"/><ellipse cx="79.4" cy="5.8" rx="1.3" ry="1.4" style="fill:#002d30"/><path d="M77.4,4.1a1.1,1.1,0,0,1,1-.9c.9,0,1.2.5.5.7a2.5,2.5,0,0,0-1.2.7C77.6,4.7,77.3,4.4,77.4,4.1Z" style="fill:#002d30"/><ellipse cx="86.5" cy="7.8" rx="0.3" ry="0.3" style="fill:#002d30"/><path d="M86.4,11.5H85c-2.2-.5-2.5-1.7-2.5-1.7s.1-.4.2-.4.4,0,.4.2.3.9,2,1.2l1.3.2,1.7-.2h.4c.1.2.1.4-.1.5s-.5.2-1.9.3Z" style="fill:#002d30"/><path d="M79.6,2c3,0,4.1,2.6,6.3,3.3a3.9,3.9,0,0,1,3,4.4c-.2,1.7-.7,2.9-3.7,2.9H84.1c-9.1.6-4.3,9.2-3.8,17.5h0a48.5,48.5,0,0,1-.2,6.6h0a2.2,2.2,0,0,0-.1.8h-.1c-.7,6.5-3.6,12.6-7.6,16.2.9,4.3,1.6,9,.7,13.3-.5,1.2-3.3,1.5-5.6,1.5L64,68.2c-1.7-.1-4.5-.1-3.1-8.3a35.4,35.4,0,0,1-10.2,1.4H48.1c0,2,.3,4.1-.3,6.1s-3.3,1.4-5.7,1.4H38.8c-1.7-.1-4.4-.1-3.2-8-2.2,1.4-6.2,5.1-16.9,5.7H16.5C5.6,66.4.9,60.9,2.2,59.8a1,1,0,0,1,.8-.4c.8,0,1.9.9,4.2,1.3h2l2.4-.2c6.8-.9,12.4-5,16.1-11.9,2.3-4.3,3.9-9.1,6.9-13.1a.1.1,0,0,1-.1.1,14.1,14.1,0,0,1,8-5.6h0a23.1,23.1,0,0,1,5.2-.6,20.5,20.5,0,0,1,8.1,1.6h0c3.4,1.5,5.8,3.5,8.6,3.9h.9c9.5,0,6.4-15.8,6.5-22.2S73.6,3,78.7,2.1h.9M34.5,35.8h0M79.6,0H78.4c-7,1.3-8.3,7.5-8.6,12.7h0c0,1.3.1,2.9.2,4.6.3,5.1.7,12-1.8,14.6a3.6,3.6,0,0,1-2.9,1.1h-.7a13.6,13.6,0,0,1-4.4-1.9l-3.4-1.8h-.2a21.8,21.8,0,0,0-8.9-1.8,27.4,27.4,0,0,0-5.6.6h-.3a15.7,15.7,0,0,0-8.6,6l-.2.2a48.6,48.6,0,0,0-4.9,8.9c-.7,1.5-1.4,3-2.2,4.4C22.6,54,17.5,57.8,11.4,58.6a8.6,8.6,0,0,1-2.2.2H7.5L5.1,58A5.6,5.6,0,0,0,3,57.4a2.9,2.9,0,0,0-2.1.9,2.9,2.9,0,0,0-.7,3.2c1,2.7,6.4,6.9,16.3,6.9h2.3a33,33,0,0,0,14.5-3.8,6.7,6.7,0,0,0,1.3,4.3,5.3,5.3,0,0,0,4,1.8h3.5c4.3,0,6.6-.8,7.5-2.5a.6.6,0,0,0,.1-.4,14.1,14.1,0,0,0,.5-4.5h.5a38.4,38.4,0,0,0,7.8-.7c-.1,2.7.3,4.6,1.3,5.9a4.8,4.8,0,0,0,4,1.7h.3l3.3.2c4.3,0,6.6-.8,7.4-2.6a.8.8,0,0,0,.2-.5c.9-4.3.2-8.9-.5-13,3.9-4,6.6-10.1,7.4-16.5h0v-.9h.1a52,52,0,0,0,.2-6.8h0c-.2-2.2-.6-4.4-1-6.5s-1.2-6.4-.2-7.7a4.2,4.2,0,0,1,3-1.1h1.1c4.6,0,5.4-2.5,5.7-4.7a5.9,5.9,0,0,0-4.5-6.5,6.6,6.6,0,0,1-1.6-1.1A7.5,7.5,0,0,0,79.6,0Z" style="fill:#217e93"/></g></g></svg>