<svg xmlns="http://www.w3.org/2000/svg" viewBox="0 0 54.3 73.8"><g id="Layer_2" data-name="Layer 2"><g id="Layer_1-2" data-name="Layer 1"><path d="M24.2,18.4h6.9V7.4h-8v11h1.1Z" style="fill:#ffaa5a"/><path d="M17.5,27.1a1.2,1.2,0,0,1-1-.4c-.4-.2-.5-.6-.5-1.1V19.8a2.7,2.7,0,0,1,2.7-2.7H35.6a2.7,2.7,0,0,1,2.7,2.7v5.8a1.5,1.5,0,0,1-1.5,1.5H17.5Z" style="fill:#baa2ee"/><path d="M35.6,18.6a1.2,1.2,0,0,1,1.2,1.2v5.8H17.5V19.8a1.2,1.2,0,0,1,1.2-1.2H35.6m0-3H18.7a4.2,4.2,0,0,0-4.2,4.2v5.8a2.9,2.9,0,0,0,1,2.3,2.7,2.7,0,0,0,2,.7H36.8a2.9,2.9,0,0,0,2-.7,3.3,3.3,0,0,0,1-2.3V19.8a4.2,4.2,0,0,0-4.2-4.2Z" style="fill:#7850b3"/><path d="M23.5,25.5V18.6H22v6.9Z" style="fill:#baa2ee"/><path d="M21.3,25.5V18.6H19.9v6.9Z" style="fill:#baa2ee"/><path d="M19.1,18.6h-.4a1.2,1.2,0,0,0-1.2,1.2v5.8h1.6Z" style="fill:#baa2ee"/><path d="M34.4,25.5V18.6H32.9v6.9Z" style="fill:#baa2ee"/><path d="M36.8,25.6V19.8a1.2,1.2,0,0,0-1.2-1.2h-.5v6.9Z" style="fill:#baa2ee"/><path d="M27.9,18.6H26.4v6.9h1.5Z" style="fill:#baa2ee"/><path d="M25.7,18.6H24.2v6.9h1.5Z" style="fill:#baa2ee"/><path d="M30.8,25.5h1.4V18.6H30.8Z" style="fill:#baa2ee"/><path d="M30,18.6H28.6v6.9H30Z" style="fill:#baa2ee"/><path d="M19.4,25.5h.5V18.6h-.8v6.9Z" style="fill:#7850b3"/><path d="M22,25.5V18.6h-.7v6.9Z" style="fill:#7850b3"/><path d="M24.2,18.6h-.7v6.9h.7Z" style="fill:#7850b3"/><path d="M26.4,18.6h-.7v6.9h.7Z" style="fill:#7850b3"/><path d="M28.6,18.6h-.7v6.9h.7Z" style="fill:#7850b3"/><path d="M30.8,18.6H30v6.9h.8Z" style="fill:#7850b3"/><path d="M32.9,25.5V18.6h-.7v6.9Z" style="fill:#7850b3"/><path d="M34.9,25.5h.2V18.6h-.7v6.9Z" style="fill:#7850b3"/><path d="M14.1,72.3A6.2,6.2,0,0,1,8,67.6l-5.8-21a1.9,1.9,0,0,1-.2-.8H1.9c0-.3-.1-.5-.1-.8H1.7a1.9,1.9,0,0,0-.1-.8,2.8,2.8,0,0,0-.1-.9h0v-.8h0V40.5h.1v-.8h.1a2.2,2.2,0,0,1,.1-.8c0-.3.1-.5.1-.8a2.4,2.4,0,0,0,.2-.8h.1a1.9,1.9,0,0,1,.2-.7,3.4,3.4,0,0,1,.3-.8l.3-.8H3a4.3,4.3,0,0,0,.4-.7h0a2.1,2.1,0,0,1,.4-.6h0l.4-.6h0a2.1,2.1,0,0,0,.4-.6l1-1.4h.1l.5-.6a13.6,13.6,0,0,1,1.2-1.2l.6-.5,1.4-1,.7-.5.8-.4.7-.4.8-.4.8-.3.8-.3,3.3-.7h1.8v0H37a18,18,0,0,1,12.7,7.8,17.8,17.8,0,0,1,2.4,14.7l-5.8,21a6.4,6.4,0,0,1-6.1,4.7Z" style="fill:#ffeb81"/><path d="M34.9,25.5h1.9A16.4,16.4,0,0,1,50.7,46.2l-5.8,21a4.9,4.9,0,0,1-4.7,3.6H14.1a4.9,4.9,0,0,1-4.7-3.6l-5.8-21c-.1-.2-.1-.5-.2-.7h0c-.1-.3-.1-.5-.2-.8h0c0-.2-.1-.5-.1-.7h0A2,2,0,0,0,3,43H3v-.7H3v-.7H3v-.7h.1v-.7h0a1.7,1.7,0,0,0,.1-.7c.1,0,.1,0,.1-.1a1.3,1.3,0,0,1,.1-.6h0c.1-.2.1-.5.2-.7h0a1.4,1.4,0,0,0,.2-.7h0l.3-.7h0l.3-.7h0l.3-.6h0l.4-.6h0l.3-.6h.1a2.1,2.1,0,0,1,.4-.6h0l.9-1.2h0l.5-.5h.1l1-1.1h0l.6-.5H9l1.2-.9h.1l.6-.4h0l.7-.3h0l.7-.4h0l.7-.3h0l.7-.3h0l.8-.2h0a13.2,13.2,0,0,1,3-.7H34.9m0-3H17.1a20.9,20.9,0,0,0-3.4.8h-.1l-.9.3-.8.3h-.1l-.8.3-.9.4-.7.5H9.3l-.7.5H8.5L7.1,26.9h0l-.7.6h0L5.2,28.7H5.1l-.6.6h0a11.3,11.3,0,0,0-1,1.3H3.4l-.5.7h0a2.5,2.5,0,0,0-.4.7H2.4l-.3.7H2l-.3.7H1.6l-.3.8h0l-.3.7H1l-.3.8h0c-.1.3-.1.6-.2.8h0c-.1.3-.1.5-.2.8h0a2.2,2.2,0,0,0-.1.8v1h0a2.2,2.2,0,0,0-.1.8H0v1.8H.1v.9c.1.3.1.6.2.9v.2a3.1,3.1,0,0,0,.2.8h0c.1.3.1.6.2.9L6.5,68a8,8,0,0,0,7.6,5.8H40.2A7.8,7.8,0,0,0,47.7,68l5.9-21A19.5,19.5,0,0,0,37.2,22.6H34.9Z" style="fill:#ffaa5a"/><path d="M27.1,56.5A5.5,5.5,0,0,0,32.6,51c0-3-4-11.2-5.5-11.2S21.7,48,21.7,51A5.5,5.5,0,0,0,27.1,56.5Z" style="fill:#baa2ee"/><path d="M9.1,14.9H8.2l-.9-.4L6.7,14a3.9,3.9,0,0,1-.8-1l-.2-.2a6.4,6.4,0,0,0-.2-.7V10.7a1.4,1.4,0,0,1,.2-.7V9.6L6.2,9l.2-.3L9.8,5.4V5.2l.6-.6c.9-1.1,2.1-2.5,3.6-2.9H41.5a3.5,3.5,0,0,1,3.6,3.6,3.5,3.5,0,0,1-3.6,3.7H16.6l-5,5A3.3,3.3,0,0,1,9.1,14.9Z" style="fill:#baa2ee"/><path d="M15.9,3H41.5c2.8,0,2.8,4.3,0,4.3H16L14.6,8.7l-4,4.1a2.4,2.4,0,0,1-1.5.6H8.6L8,13.1l-.3-.2-.5-.6a.3.3,0,0,0-.1-.2c-.1-.1-.1-.3-.2-.4v-.8a.6.6,0,0,1,.1-.4v-.2l.2-.4.2-.2,3.3-3.3.2-.2c.9-1,2.2-2.7,3.5-3h1.4m0-3H14.3l-.6.2A8.5,8.5,0,0,0,9.4,3.6l-.6.6H8.7L8,5,5.4,7.6,5,8l-.6.9c-.1.2-.1.4-.2.5l-.3,1.1V12c.1.2.1.4.2.5a3.2,3.2,0,0,0,.3.9c.1.1.1.3.2.4a5.3,5.3,0,0,0,1.2,1.4l.7.5,1.3.5a3,3,0,0,0,1.3.2,4.9,4.9,0,0,0,3.6-1.5l.4-.4,3.6-3.6.5-.5H41.5a5,5,0,0,0,5.1-5.2,5.2,5.2,0,0,0-1.2-3.4A5.2,5.2,0,0,0,41.5.1H15.9Z" style="fill:#7850b3"/><path d="M27.1,35.2a12.9,12.9,0,0,0-11,6.1,13.1,13.1,0,0,0,8.7,19.6,9,9,0,0,0,2.3.2,13,13,0,1,0,0-25.9Zm0,21.6a5.4,5.4,0,0,1-5.4-5.4c0-3,4.3-11.2,5.4-11.2s5.5,8.2,5.5,11.2A5.5,5.5,0,0,1,27.1,56.8Z" style="fill:#fff"/></g></g></svg>