<svg xmlns="http://www.w3.org/2000/svg" xmlns:xlink="http://www.w3.org/1999/xlink" viewBox="0 0 89.5 37.7"><defs><clipPath id="clip-path" transform="translate(0 0.3)"><path d="M80.1,15.1c-.5,1.3-1.1,2.1-1.9,2.1H7C3.6,17.2,3.6,3,7,3H78.2C80.7,3,81.4,11.1,80.1,15.1Z" style="fill:#ffeb81"/></clipPath></defs><g style="isolation:isolate"><g id="Layer_2" data-name="Layer 2"><g id="Layer_1-2" data-name="Layer 1"><path d="M80.1,15.1c-.5,1.3-1.1,2.1-1.9,2.1H7C3.6,17.2,3.6,3,7,3H78.2C80.7,3,81.4,11.1,80.1,15.1Z" transform="translate(0 0.3)" style="fill:#ffeb81"/><g style="clip-path:url(#clip-path)"><path d="M11.1,18.4,10.5,16a30.8,30.8,0,0,1-.8-5.3,31.3,31.3,0,0,1,.1-5.3c.2-1.8.6-3.5.8-5.2s-.7-.7-.9-.3A19.4,19.4,0,0,0,8.5,5.2a34.6,34.6,0,0,0-.2,5.6A33.3,33.3,0,0,0,9,16.2a19.7,19.7,0,0,0,.7,2.6c.2.8.5,1.9,1.3,2.3a.4.4,0,0,0,.5-.2C11.8,20.1,11.3,19.2,11.1,18.4Z" transform="translate(0 0.3)" style="fill:#ffaa5a"/><path d="M15,18c-.2-.8-.3-1.6-.5-2.4s-.3-3.2-.4-4.8,0-3.1.1-4.6.4-3.3.5-4.9-.8-.6-1-.1a24.4,24.4,0,0,0-.9,4.7c-.1,1.7-.2,3.4-.2,5a38.9,38.9,0,0,0,.4,4.9l.3,2.4c.2.7.3,1.5,1,1.9a.4.4,0,0,0,.5-.2A2.1,2.1,0,0,0,15,18Z" transform="translate(0 0.3)" style="fill:#ffaa5a"/><path d="M13.3,3.8h-3A6.1,6.1,0,0,0,9,4,.6.6,0,0,0,9,5h4.3a.9.9,0,0,0,.8-.8C14.1,4.1,13.7,3.9,13.3,3.8Z" transform="translate(0 0.3)" style="fill:#ffaa5a"/><path d="M13.1,6.3H9.6L9,6.5c-.3.1-.4.2-.4.5s.1.5.4.5h3.9a.8.8,0,0,0,1-.6A.8.8,0,0,0,13.1,6.3Z" transform="translate(0 0.3)" style="fill:#ffaa5a"/><path d="M13.4,9a8.2,8.2,0,0,0-2.2-.2A7.5,7.5,0,0,0,9,9a.5.5,0,0,0-.4.6.5.5,0,0,0,.4.5,15.2,15.2,0,0,0,2.1.3h.8l1,.2A.9.9,0,0,0,13.4,9Z" transform="translate(0 0.3)" style="fill:#ffaa5a"/><path d="M13.1,11.7H9.2a.5.5,0,0,0-.1,1l.9.3h1.1l2,.2c.4-.1.8-.4.8-.8A.8.8,0,0,0,13.1,11.7Z" transform="translate(0 0.3)" style="fill:#ffaa5a"/><path d="M14,15a1.4,1.4,0,0,0-.8-.5H10.7l-1.1.2a1,1,0,0,0-.4.5.5.5,0,0,0,.3.5l.5.2.6.2h2c.4.1,1,.2,1.3-.2A.7.7,0,0,0,14,15Z" transform="translate(0 0.3)" style="fill:#ffaa5a"/><path d="M77.3,6.2A16.7,16.7,0,0,0,76,1.7c-.4-.8-1.3-.2-1.2.5s.6,2.8.8,4.2a32.4,32.4,0,0,1,.2,4.4,32.8,32.8,0,0,1-.4,4.3c-.2.7-.3,1.4-.5,2a2.8,2.8,0,0,0-.1,2.2.9.9,0,0,0,.9.3c.8-.3,1-1,1.2-1.8a17,17,0,0,0,.4-2.2,19.5,19.5,0,0,0,.4-4.8A35.7,35.7,0,0,0,77.3,6.2Z" transform="translate(0 0.3)" style="fill:#ffaa5a"/><ellipse cx="65.1" cy="10.4" rx="8.3" ry="3.1" style="fill:#ffaa5a"/></g><path d="M86.5,32.9v.3A1.8,1.8,0,0,1,85,34.3H5.7c-3.6,0-3.6-17.1,0-17.1H85q.9,0,1.5,1.2h0a.5.5,0,0,1-.5.8h-.5l-3.8,1.1.3,9.5,3.5,2.5H86A.5.5,0,0,1,86.5,32.9Z" transform="translate(0 0.3)" style="fill:#83932d"/><path d="M86.5,32.9h0v.3A1.8,1.8,0,0,1,85,34.3H5.7c-3.2,0-3.6-13.5-1.1-16.5C2.8,22.1,3.4,33.3,6.3,33.3H85.6A1,1,0,0,0,86.5,32.9Z" transform="translate(0 0.3)" style="fill:#4e5a01;opacity:0.25;mix-blend-mode:multiply"/><path d="M86,19.2h-.6l-3.7,1,.3,9.1,1.8,1.2,1.7,1.8H7.2c-3.6,0-3.6-13.9,0-13.9H86.5A.5.5,0,0,1,86,19.2Z" transform="translate(0 0.3)" style="fill:#4e5a01;opacity:0.25;mix-blend-mode:multiply"/><path d="M85.5,32.3H7.7c-3.5,0-3.5-13.1,0-13.1H85.5s-6.1,5.5-1.7,11.3Z" transform="translate(0 0.3)" style="fill:#eed7ce"/><path d="M83.8,21.3H8.7c-2.5,0-3.2,6.7-2.1,10.5-2.4-2.5-2-12.6,1.1-12.6H85.5A16.6,16.6,0,0,0,83.8,21.3Z" transform="translate(0 0.3)" style="fill:#c27e60;opacity:0.25;mix-blend-mode:multiply"/><g style="opacity:0.25;mix-blend-mode:multiply"><path d="M18.8,24.1c7.2.1,14.4-.2,21.5-.3s14.4-.1,21.6,0c4.1,0,8.2.2,12.2,0a.2.2,0,1,0,0-.4c-3.5-.3-7.2-.2-10.7-.3H52.6L31,23.3c-4.1.1-8.2.1-12.2.4a.2.2,0,1,0,0,.4Z" transform="translate(0 0.3)" style="fill:#c27e60"/></g><g style="opacity:0.25;mix-blend-mode:multiply"><path d="M11.4,26.1c5.4.1,10.8-.1,16.1-.1H43.6c3,0,6.1.2,9.2,0,.3-.1.3-.4,0-.5-2.7-.2-5.4-.1-8.1-.1s-5.4-.1-8.1,0c-5.3,0-10.7,0-16,.2-3.1,0-6.1.1-9.2.3a.2.2,0,0,0,0,.3Z" transform="translate(0 0.3)" style="fill:#c27e60"/></g><g style="opacity:0.25;mix-blend-mode:multiply"><path d="M32,29c5.7.2,11.3-.1,17-.2l17-.2h4.8a35.4,35.4,0,0,0,4.6-.2.2.2,0,0,0,0-.4,57.3,57.3,0,0,0-8.3-.1H58.6l-17,.2c-3.2.1-6.4.1-9.6.4a.2.2,0,1,0,0,.4Z" transform="translate(0 0.3)" style="fill:#c27e60"/></g><path d="M78.2,3c2.5,0,3.2,8.1,1.9,12.1-.5,1.3-1.1,2.1-1.9,2.1H85q.9,0,1.5,1.2h0c0,.1.1.2,0,.3a.5.5,0,0,1-.5.5h-.8c-.1,0-.1.1-.2.2h0l-.2.2h-.1l-.2.3h0l-.3.4h-.1l-.3.5h0c-1.4,2.1-2.8,5.6,0,9.2l1.7,1.8H86a.6.6,0,0,1,.5.6h0v.2A1.8,1.8,0,0,1,85,34.3H5.1a.1.1,0,0,0-.1-.1H4.8c0-.1,0-.1-.1-.2H4.6c-.1-.1-.1-.1-.1-.2s-.1-.1-.2-.2H4.2a.4.4,0,0,0-.1-.3c0-.1,0-.1-.1-.2a.4.4,0,0,0-.1-.3c0-.1,0-.1-.1-.2a4.3,4.3,0,0,1-.1-.5v-.2a.6.6,0,0,0-.1-.4v-.3a.4.4,0,0,1-.1-.3.6.6,0,0,0-.1-.4v-.3a.4.4,0,0,0-.1-.3v-.4a.8.8,0,0,0-.1-.4V27.6c0-.1-.1-.2-.1-.3v-3a.6.6,0,0,1,.1-.4V22.8a.4.4,0,0,0,.1-.3v-.4c0-.1.1-.2.1-.3v-.4a.4.4,0,0,0,.1-.3.6.6,0,0,1,.1-.4v-.2c.1-.2.1-.4.2-.6h0c0-.2.1-.3.1-.5a.1.1,0,0,0,.1-.1c0-.2.1-.3.1-.4a.1.1,0,0,0,.1-.1.4.4,0,0,0,.1-.3c.1-.1.1-.1.1-.2s.1-.1.2-.2a.1.1,0,0,1,.1-.1h0a1.4,1.4,0,0,1,1.1-.6H7C3.6,17.2,3.6,3,7,3H78.2m8.3,29.9h.1M78.2,0H7C3.6,0,1.5,3.8,1.5,10.1a18.9,18.9,0,0,0,.8,5.8c-.1.1-.1.2-.2.2s-.1.1-.1.2l-.3.4c0,.1-.1.2-.1.3l-.2.4a.4.4,0,0,0-.1.3.8.8,0,0,0-.2.4v.3c-.1.1-.1.3-.2.5v.2a6.4,6.4,0,0,0-.2.7V20H.5c0,.2,0,.3-.1.4v.3h0c0,.1-.1.3-.1.4v.4a.6.6,0,0,0-.1.4v.4c0,.1-.1.3-.1.4v.8h0v.7H0v.7H0v.8H0v.6H0v.7h0v.9c0,.1.1.2.1.4v.4a.8.8,0,0,0,.1.4v.3c0,.2.1.3.1.4h0V31a.6.6,0,0,1,.1.4h0a.4.4,0,0,1,.1.3,4.3,4.3,0,0,1,.1.5.4.4,0,0,1,.1.3c.1.2.1.4.2.6s.1.1.1.2l.2.5c0,.1,0,.1.1.2l.2.5v.2l.3.4.2.3.3.4.3.2.4.4a.5.5,0,0,0,.4.2l.5.3.5.2H85a4.5,4.5,0,0,0,4.1-2.7,3.3,3.3,0,0,0,.4-1.4h0v-.9a4,4,0,0,0-1-1.8,3.7,3.7,0,0,0-1.7-1l-.6-.7c-.9-1.1-1.8-2.9.1-5.8l.2-.3h.1c0-.1.1-.2.2-.3s.1-.1.2-.2a3.5,3.5,0,0,0,2.5-3.2,2.5,2.5,0,0,0-.3-1.7h0a.1.1,0,0,0-.1-.1A4.6,4.6,0,0,0,85,14.2H83.4c.7-3.8.5-9.4-1.6-12.2a4.4,4.4,0,0,0-3.6-2Z" transform="translate(0 0.3)" style="fill:#6a3417"/></g></g></g></svg>