<svg xmlns="http://www.w3.org/2000/svg" viewBox="0 0 258.8 611.8"><g id="Layer_2" data-name="Layer 2"><g id="Layer_1-2" data-name="Layer 1"><path d="M47.4,410.4a1.1,1.1,0,1,1,0-2.2c4.2,0,7.7-7.2,7.7-15.7s-3.5-15.8-7.7-15.8a1,1,0,0,1-1.1-1.1,1.1,1.1,0,0,1,1.1-1.1c5.6,0,10,7.9,10,18S53,410.4,47.4,410.4Z" style="fill:#5f4268"/><path d="M203.2,436.6a1.1,1.1,0,1,1,0-2.2c4.8,0,9-8.4,9-18.2s-4.2-18.2-9-18.2a1.1,1.1,0,1,1,0-2.2c6.3,0,11.2,9,11.2,20.4S209.5,436.6,203.2,436.6Z" style="fill:#5f4268"/><path d="M255.1,409.3a42.9,42.9,0,0,0-8-16.3c-3.1-3.7-9.9-10.6-15.3-9.6-2.8.5-5.1,3.6-7.5,5.1a66.5,66.5,0,0,1-10.1,5.6c-8.4,3.7-21.3,7.7-30.6,8-19.9.4-37.5-3.7-57-8-13.7-2.9-22.9-6-36.6-9.3s-30-8.3-44.5-6.7a179.2,179.2,0,0,0-36,8.4c-6,2-8.6,12.9-4.6,22.8,1.8,4.4,4.2,8,10.2,5.4s20.6-10,46.1-5.4c9.1,1.6-1.2,7.4-5.2,10.4a4.9,4.9,0,0,0-1.6,1.9c-.9,2.9,4.7,4.7,6.8,4.5,7.7-.6,14.7-5.4,22.5-6.4s16.9.1,25,2.3c27.8,7.6,60.6,19.1,93.9,11.9a247.2,247.2,0,0,0,26.3-7.8c22.4-7.5,20.1-5.5,23.8-7.9S256.1,413.3,255.1,409.3Z" style="fill:#b96855"/><path d="M244.7,414.7l-.5-.2A41,41,0,0,1,229.6,389c0-.4.3-.9.7-.9a.8.8,0,0,1,1,.7,38.8,38.8,0,0,0,14,24.4.9.9,0,0,1-.6,1.5Z" style="fill:#944c47"/><path d="M249.8,411.7a.9.9,0,0,1-.9-.8,1,1,0,0,1,.6-.9.6.6,0,0,0,0-.6A26.9,26.9,0,0,0,239.4,394a.8.8,0,0,1-.2-1.2.9.9,0,0,1,1.2-.2A29,29,0,0,1,251.1,409a2.7,2.7,0,0,1-.2,2.1,2.1,2.1,0,0,1-1,.6Z" style="fill:#944c47"/><path d="M245.4,408.6c-.4,0-.7-.3-.8-.8a13.3,13.3,0,0,0-3.3-7.2.8.8,0,0,1,1.2-1.1,14.6,14.6,0,0,1,3.8,8.1,1,1,0,0,1-.8,1Z" style="fill:#944c47"/><path d="M78,417a.8.8,0,0,1-.8-.5.8.8,0,0,1,.4-1.1c11.2-4.5,24.2-2.6,34.6-1.1a1,1,0,0,1,.7.9.8.8,0,0,1-1,.7c-10.2-1.5-22.9-3.3-33.6,1.1Z" style="fill:#944c47"/><path d="M166.3,429.6a20.2,20.2,0,0,1-4.9-.9,15.6,15.6,0,0,0-4.7-.9l-2.6.4-2.6.5a18.7,18.7,0,0,1-5.9-.9,86.7,86.7,0,0,1-20.3-8.6.8.8,0,0,1,.8-1.4,91.4,91.4,0,0,0,19.9,8.4,14.2,14.2,0,0,0,5.4.8,9.3,9.3,0,0,0,2.3-.4,14.5,14.5,0,0,1,2.9-.4,16,16,0,0,1,5.3.9,16.1,16.1,0,0,0,5.2.8.8.8,0,0,1,.9.7.9.9,0,0,1-.8.9Z" style="fill:#944c47"/><path d="M185.4,431.1a.9.9,0,0,1-.8-.5.8.8,0,0,1,.5-1.1,78.3,78.3,0,0,1,12.4-3.3c7-1.5,13.6-2.9,19-7a.8.8,0,0,1,1.1.2.9.9,0,0,1-.1,1.2c-5.7,4.2-12.8,5.7-19.6,7.2a99.3,99.3,0,0,0-12.2,3.2Z" style="fill:#944c47"/><path d="M208,419.9a1,1,0,0,1-.9-.7.9.9,0,0,1,.7-1,23.5,23.5,0,0,0,8.1-3.1.7.7,0,0,1,1.1.3.8.8,0,0,1-.3,1.1,25.8,25.8,0,0,1-8.6,3.4Z" style="fill:#944c47"/><path d="M186,412.6a23.4,23.4,0,0,1-3.8-.3.8.8,0,0,1-.7-1,.8.8,0,0,1,.9-.7,23.7,23.7,0,0,0,8.8-.2.8.8,0,0,1,1,.6.9.9,0,0,1-.6,1A26,26,0,0,1,186,412.6Z" style="fill:#944c47"/><path d="M17.9,407.9a.7.7,0,0,1-.6-.2.9.9,0,0,1,0-1.2c6.1-5.6,14.9-6.3,21.3-5.9,3,.2,6.1.7,9.1,1.1a77.8,77.8,0,0,0,12.7,1.1.8.8,0,0,1,.8.9.8.8,0,0,1-.8.8,78.3,78.3,0,0,1-12.9-1.2c-3-.4-6-.8-9-1-6.1-.4-14.4.2-20,5.4A.7.7,0,0,1,17.9,407.9Z" style="fill:#944c47"/><path d="M12,404.8a.8.8,0,0,1-.7-.5.8.8,0,0,1,.5-1.1,12.9,12.9,0,0,0,3.5-1.8.8.8,0,0,1,1.2.2.9.9,0,0,1-.2,1.1,17.1,17.1,0,0,1-4,2.1Z" style="fill:#944c47"/><path d="M11.5,400.9a1,1,0,0,1-.7-.4.7.7,0,0,1,.2-1.1,11.3,11.3,0,0,1,7.1-2.2.9.9,0,0,1-.1,1.7,9.9,9.9,0,0,0-6,1.8Z" style="fill:#944c47"/><path d="M64.9,400.8h-.4c-1.9-1-4.2-.7-6.6-.4a18.1,18.1,0,0,1-5.2.1.8.8,0,0,1-.7-.9.8.8,0,0,1,.9-.7,19.3,19.3,0,0,0,4.8-.2c2.5-.3,5.2-.6,7.6.7a.8.8,0,0,1,.3,1.1A.7.7,0,0,1,64.9,400.8Z" style="fill:#944c47"/><path d="M63.8,423.1l-.5-.2a4.9,4.9,0,0,0-4.2-.9.7.7,0,0,1-1-.5.9.9,0,0,1,.6-1.1,6.3,6.3,0,0,1,5.6,1.2.8.8,0,0,1,.1,1.2A.7.7,0,0,1,63.8,423.1Z" style="fill:#944c47"/><path d="M70.2,417.9c-.2,0-.4,0-.5-.2a.7.7,0,0,1-.2-1.1c3.2-4.1,8.3-5.6,13.8-7a.9.9,0,0,1,1,.6.8.8,0,0,1-.6,1c-5.2,1.3-10,2.7-12.9,6.4A.7.7,0,0,1,70.2,417.9Z" style="fill:#944c47"/><path d="M82.9,408.9a1,1,0,0,1-.8-.5.8.8,0,0,1,.4-1.1,8.1,8.1,0,0,1,6.3-.6.8.8,0,0,1,.6,1,.9.9,0,0,1-1,.6,6.1,6.1,0,0,0-5.1.5Z" style="fill:#944c47"/><path d="M107.8,406.2a12.6,12.6,0,0,1-7-1.6,16.4,16.4,0,0,1-2.4-2.1,4.6,4.6,0,0,0-.7-.7,21.3,21.3,0,0,0-17.8-5.9.8.8,0,0,1-1-.7c0-.4.3-.9.7-.9a23.2,23.2,0,0,1,19.3,6.3,2.3,2.3,0,0,0,.7.7,13.1,13.1,0,0,0,2.1,2c2,1.2,4.5,1.3,7.4,1.3a.8.8,0,0,1,.9.8.9.9,0,0,1-.8.8Z" style="fill:#944c47"/><path d="M123.1,409.2a8.4,8.4,0,0,1-2.7-.4.8.8,0,0,1-.6-1,.8.8,0,0,1,1-.6,8.2,8.2,0,0,0,3.1.3.8.8,0,0,1,.2,1.6Z" style="fill:#944c47"/><path d="M71.2,390h-.3l-6.8-2a.9.9,0,0,1-.6-1.1.9.9,0,0,1,1.1-.5l6.8,2a.9.9,0,0,1,.6,1A.8.8,0,0,1,71.2,390Z" style="fill:#944c47"/><path d="M66.2,394.5h-.5a.9.9,0,0,1-.8-.9.9.9,0,0,1,.8-.8h0a47.7,47.7,0,0,0,7.6-.5.9.9,0,0,1,1,.7,1,1,0,0,1-.7,1A62.7,62.7,0,0,1,66.2,394.5Z" style="fill:#944c47"/><path d="M172.9,421.9a81.9,81.9,0,0,1-11.3-1,.9.9,0,0,1-.7-1,1,1,0,0,1,.9-.7c6.1.9,13,1.8,19.2,0a.8.8,0,0,1,1,.6.7.7,0,0,1-.5,1A31.2,31.2,0,0,1,172.9,421.9Z" style="fill:#944c47"/><path d="M224.5,414a.8.8,0,0,1-.8-.6.9.9,0,0,1,.6-1,22.6,22.6,0,0,0,3.3-1.3l1.8-.8a.8.8,0,0,1,.9.1,1,1,0,0,1,.2.9,1.7,1.7,0,0,1-1.2,1h-.4l-.7.3-3.4,1.4Z" style="fill:#944c47"/><path d="M203.2,436.6c-6.3,0-11.3-9-11.3-20.4s5-20.4,11.3-20.4a1.1,1.1,0,1,1,0,2.2c-4.9,0-9.1,8.3-9.1,18.2s4.2,18.2,9.1,18.2a1.1,1.1,0,1,1,0,2.2Z" style="fill:#5f4268"/><path d="M47.4,410.4c-5.6,0-9.9-7.9-9.9-17.9s4.3-18,9.9-18a1.1,1.1,0,0,1,1.1,1.1,1,1,0,0,1-1.1,1.1c-4.2,0-7.7,7.2-7.7,15.8s3.5,15.7,7.7,15.7a1.1,1.1,0,0,1,0,2.2Z" style="fill:#5f4268"/><path d="M47.4,374.5c2.2,0,4.2,1.3,5.8,3.3,12.3.4,25.2,4.2,36.8,7,13.7,3.3,22.9,6.4,36.6,9.3,18.5,4,35.2,8,53.9,8h3.1a66.7,66.7,0,0,0,12.5-1.9c1.9-2.8,4.4-4.4,7.1-4.4a7.2,7.2,0,0,1,3.7,1.1l7.3-2.8a66.5,66.5,0,0,0,10.1-5.6c2.4-1.5,4.7-4.6,7.5-5.1h1.1c5.2,0,11.3,6.3,14.2,9.7a42.9,42.9,0,0,1,8,16.3c1,4,1.4,6.5-2.4,8.9s-1.4.4-23.8,7.9c-6.1,2.1-12.3,4.2-18.6,5.9-1.9,2.9-4.4,4.6-7.1,4.6a7.3,7.3,0,0,1-4.8-1.9,109,109,0,0,1-17.9,1.5c-25.5,0-50.2-8.3-71.8-14.2a73.3,73.3,0,0,0-18.6-2.7,46.8,46.8,0,0,0-6.4.4c-7.8,1-14.8,5.8-22.5,6.4h-.3c-2.2,0-7.4-1.7-6.5-4.5a4.9,4.9,0,0,1,1.6-1.9c4-3,14.3-8.8,5.2-10.4-3.1-.6-6.1-.9-8.9-1.2a6.7,6.7,0,0,1-4.9,2.3,7,7,0,0,1-5.1-2.5c-14.1.6-22.9,5-27.2,6.8a9.4,9.4,0,0,1-3.6.9c-3.5,0-5.2-2.9-6.6-6.3-4-9.9-1.4-20.8,4.6-22.8A186,186,0,0,1,41,378.7c1.7-2.6,3.9-4.2,6.4-4.2m-3.2,3.8,1.3-.2a35.5,35.5,0,0,1,4.6-.3,4,4,0,0,0-2.7-1.1,4.7,4.7,0,0,0-3.2,1.6m156,20.8,3.4-1h-.4a4.8,4.8,0,0,0-3,1.1M47.4,408.2a3.5,3.5,0,0,0,1.4-.3h-3l1.6.3m155.8,26.2a5.3,5.3,0,0,0,3.4-1.4l-4,.9-1,.2a4.1,4.1,0,0,0,1.6.3M47.4,371.5a10.5,10.5,0,0,0-8.1,4.4,205.8,205.8,0,0,0-30.7,7.7,11.7,11.7,0,0,0-6.7,6.6c-2.6,5.7-2.5,13.4.3,20.2.9,2.5,3.2,8.2,9.3,8.2a12.7,12.7,0,0,0,4.7-1.1l1.2-.5a65.2,65.2,0,0,1,23.8-6,9.5,9.5,0,0,0,6.2,2.4,9,9,0,0,0,5.9-2.2c2.4.3,4.9.6,7.4,1.1h.2c-1.2,1.1-3.2,2.5-4.3,3.3l-2.4,1.8a6.2,6.2,0,0,0-2.6,3.2,5.3,5.3,0,0,0,.7,4.7c1.9,2.6,6.3,3.8,8.6,3.8h.5c4.5-.3,8.6-1.9,12.6-3.4a43.4,43.4,0,0,1,10.1-3.1,58.8,58.8,0,0,1,6-.3,67.8,67.8,0,0,1,17.9,2.6l9.9,2.8c19,5.4,40.5,11.5,62.6,11.5a118.5,118.5,0,0,0,17.1-1.3,10.5,10.5,0,0,0,5.6,1.7c3.3,0,6.5-1.8,9-5,5.9-1.7,11.7-3.6,17.6-5.6,11.4-3.9,16.3-5.2,19-5.9a16.5,16.5,0,0,0,5.6-2.3c5.8-3.8,4.5-8.7,3.6-12.3a45.1,45.1,0,0,0-8.6-17.4c-2.7-3.2-9.7-10.8-16.5-10.8l-1.6.2c-2.7.5-4.8,2.3-6.6,3.9l-2,1.6a70,70,0,0,1-9.7,5.3l-5.9,2.4a8.9,8.9,0,0,0-3.9-.9c-3.3,0-6.4,1.7-8.8,4.7a55.3,55.3,0,0,1-10.8,1.6h-3.1c-17,0-32.7-3.4-49.3-7l-4-.9c-7.7-1.7-13.9-3.3-20.4-5.1-5-1.4-10.1-2.8-16.1-4.2l-6.6-1.6c-9.6-2.4-19.6-4.9-29.5-5.4a9.8,9.8,0,0,0-7.2-3.4Z" style="fill:#75411a"/><path d="M47.4,358.4a4,4,0,0,1-4-4v-7.8a4,4,0,0,1,4-4,4.1,4.1,0,0,1,4.1,4v7.8A4.1,4.1,0,0,1,47.4,358.4Zm0-14.2a2.4,2.4,0,0,0-2.4,2.4v7.8a2.4,2.4,0,1,0,4.8,0v-7.8A2.4,2.4,0,0,0,47.4,344.2Z" style="fill:#cecece"/><path d="M47.4,367.8a.9.9,0,0,1-.8-.8V354.4a.8.8,0,0,1,.8-.8.7.7,0,0,1,.8.8V367A.8.8,0,0,1,47.4,367.8Z" style="fill:#cecece"/><path d="M47.4,337.7a4,4,0,0,1-4-4v-7.8a4,4,0,0,1,4-4,4.1,4.1,0,0,1,4.1,4v7.8A4.1,4.1,0,0,1,47.4,337.7Zm0-14.2a2.4,2.4,0,0,0-2.4,2.4v7.8a2.4,2.4,0,0,0,4.8,0v-7.8A2.4,2.4,0,0,0,47.4,323.5Z" style="fill:#cecece"/><path d="M47.4,347.1a.9.9,0,0,1-.8-.8V333.7a.8.8,0,0,1,.8-.8.7.7,0,0,1,.8.8v12.6A.8.8,0,0,1,47.4,347.1Z" style="fill:#cecece"/><path d="M47.4,317a4,4,0,0,1-4-4v-7.8a4,4,0,0,1,4-4,4.1,4.1,0,0,1,4.1,4V313A4.1,4.1,0,0,1,47.4,317Zm0-14.2a2.4,2.4,0,0,0-2.4,2.4V313a2.4,2.4,0,0,0,4.8,0v-7.8A2.4,2.4,0,0,0,47.4,302.8Z" style="fill:#cecece"/><path d="M47.4,326.4a.9.9,0,0,1-.8-.8V313a.9.9,0,0,1,.8-.9.8.8,0,0,1,.8.9v12.6A.8.8,0,0,1,47.4,326.4Z" style="fill:#cecece"/><path d="M47.4,296.3a4,4,0,0,1-4-4.1v-7.7a4.1,4.1,0,0,1,4-4.1,4.2,4.2,0,0,1,4.1,4.1v7.7A4.1,4.1,0,0,1,47.4,296.3Zm0-14.2a2.4,2.4,0,0,0-2.4,2.4v7.7a2.4,2.4,0,0,0,4.8,0v-7.7A2.4,2.4,0,0,0,47.4,282.1Z" style="fill:#cecece"/><path d="M47.4,305.7a.9.9,0,0,1-.8-.9V292.3a.9.9,0,0,1,.8-.9.8.8,0,0,1,.8.9v12.5A.8.8,0,0,1,47.4,305.7Z" style="fill:#cecece"/><path d="M47.4,275.6a4,4,0,0,1-4-4.1v-7.7a4,4,0,0,1,4-4.1,4.1,4.1,0,0,1,4.1,4.1v7.7A4.1,4.1,0,0,1,47.4,275.6Zm0-14.2a2.4,2.4,0,0,0-2.4,2.4v7.7a2.4,2.4,0,0,0,4.8,0v-7.7A2.4,2.4,0,0,0,47.4,261.4Z" style="fill:#cecece"/><path d="M47.4,285a.9.9,0,0,1-.8-.9V271.5a.9.9,0,0,1,.8-.8.8.8,0,0,1,.8.8v12.6A.8.8,0,0,1,47.4,285Z" style="fill:#cecece"/><path d="M47.4,254.9a4.1,4.1,0,0,1-4-4.1v-7.7a4,4,0,0,1,4-4.1,4.1,4.1,0,0,1,4.1,4.1v7.7A4.2,4.2,0,0,1,47.4,254.9Zm0-14.2a2.4,2.4,0,0,0-2.4,2.4v7.7a2.4,2.4,0,0,0,4.8,0v-7.7A2.4,2.4,0,0,0,47.4,240.7Z" style="fill:#cecece"/><path d="M47.4,264.2a.8.8,0,0,1-.8-.8V250.8a.9.9,0,0,1,.8-.8.8.8,0,0,1,.8.8v12.6A.7.7,0,0,1,47.4,264.2Z" style="fill:#cecece"/><path d="M47.4,254.9a4.1,4.1,0,0,1-4-4.1v-7.7a4,4,0,0,1,4-4.1,4.1,4.1,0,0,1,4.1,4.1v7.7A4.2,4.2,0,0,1,47.4,254.9Zm0-14.2a2.4,2.4,0,0,0-2.4,2.4v7.7a2.4,2.4,0,0,0,4.8,0v-7.7A2.4,2.4,0,0,0,47.4,240.7Z" style="fill:#cecece"/><path d="M47.4,264.2a.8.8,0,0,1-.8-.8V250.8a.9.9,0,0,1,.8-.8.8.8,0,0,1,.8.8v12.6A.7.7,0,0,1,47.4,264.2Z" style="fill:#cecece"/><path d="M47.4,376.5c-2.7,0-4.9-3-4.9-6.6s2.2-6.6,4.9-6.6,4.9,2.9,4.9,6.6S50.1,376.5,47.4,376.5Zm0-11.5c-1.7,0-3.2,2.2-3.2,4.9s1.5,4.9,3.2,4.9,3.3-2.2,3.3-4.9S49.2,365,47.4,365Z" style="fill:#cecece"/><path d="M203.2,379.7a4,4,0,0,1-4.1-4v-7.8a4.1,4.1,0,0,1,8.1,0v7.8A4,4,0,0,1,203.2,379.7Zm0-14.2a2.4,2.4,0,0,0-2.4,2.4v7.8a2.3,2.3,0,0,0,2.4,2.3,2.3,2.3,0,0,0,2.3-2.3v-7.8A2.3,2.3,0,0,0,203.2,365.5Z" style="fill:#cecece"/><path d="M203.2,389.1a.9.9,0,0,1-.9-.8V375.7a.9.9,0,0,1,.9-.9.9.9,0,0,1,.8.9v12.6A.9.9,0,0,1,203.2,389.1Z" style="fill:#cecece"/><path d="M203.2,359a4.1,4.1,0,0,1-4.1-4.1v-7.7a4.1,4.1,0,1,1,8.1,0v7.7A4,4,0,0,1,203.2,359Zm0-14.2a2.4,2.4,0,0,0-2.4,2.4v7.7a2.4,2.4,0,1,0,4.7,0v-7.7A2.3,2.3,0,0,0,203.2,344.8Z" style="fill:#cecece"/><path d="M203.2,368.4a.9.9,0,0,1-.9-.9V355a.9.9,0,0,1,.9-.9.9.9,0,0,1,.8.9v12.5A.9.9,0,0,1,203.2,368.4Z" style="fill:#cecece"/><path d="M203.2,338.3a4.1,4.1,0,0,1-4.1-4.1v-7.7a4.1,4.1,0,1,1,8.1,0v7.7A4,4,0,0,1,203.2,338.3Zm0-14.2a2.4,2.4,0,0,0-2.4,2.4v7.7a2.4,2.4,0,1,0,4.7,0v-7.7A2.3,2.3,0,0,0,203.2,324.1Z" style="fill:#cecece"/><path d="M203.2,347.7a.9.9,0,0,1-.9-.9V334.2a.9.9,0,0,1,.9-.8.9.9,0,0,1,.8.8v12.6A.9.9,0,0,1,203.2,347.7Z" style="fill:#cecece"/><path d="M203.2,317.6a4.1,4.1,0,0,1-4.1-4.1v-7.7a4.1,4.1,0,1,1,8.1,0v7.7A4.1,4.1,0,0,1,203.2,317.6Zm0-14.2a2.3,2.3,0,0,0-2.4,2.4v7.7a2.4,2.4,0,1,0,4.7,0v-7.7A2.3,2.3,0,0,0,203.2,303.4Z" style="fill:#cecece"/><path d="M203.2,326.9a.8.8,0,0,1-.9-.8V313.5a.9.9,0,0,1,.9-.8.9.9,0,0,1,.8.8v12.6A.8.8,0,0,1,203.2,326.9Z" style="fill:#cecece"/><path d="M203.2,296.8a4,4,0,0,1-4.1-4V285a4.1,4.1,0,0,1,8.1,0v7.8A4,4,0,0,1,203.2,296.8Zm0-14.1a2.3,2.3,0,0,0-2.4,2.3v7.8a2.4,2.4,0,1,0,4.7,0V285A2.3,2.3,0,0,0,203.2,282.7Z" style="fill:#cecece"/><path d="M203.2,306.2a.8.8,0,0,1-.9-.8V292.8a.9.9,0,0,1,.9-.8.9.9,0,0,1,.8.8v12.6A.8.8,0,0,1,203.2,306.2Z" style="fill:#cecece"/><path d="M203.2,276.1a4,4,0,0,1-4.1-4v-7.8a4.1,4.1,0,0,1,8.1,0v7.8A4,4,0,0,1,203.2,276.1Zm0-14.2a2.4,2.4,0,0,0-2.4,2.4v7.8a2.4,2.4,0,1,0,4.7,0v-7.8A2.3,2.3,0,0,0,203.2,261.9Z" style="fill:#cecece"/><path d="M203.2,285.5a.9.9,0,0,1-.9-.8V272.1a.8.8,0,0,1,.9-.8.8.8,0,0,1,.8.8v12.6A.9.9,0,0,1,203.2,285.5Z" style="fill:#cecece"/><path d="M203.2,276.1a4,4,0,0,1-4.1-4v-7.8a4.1,4.1,0,0,1,8.1,0v7.8A4,4,0,0,1,203.2,276.1Zm0-14.2a2.4,2.4,0,0,0-2.4,2.4v7.8a2.4,2.4,0,1,0,4.7,0v-7.8A2.3,2.3,0,0,0,203.2,261.9Z" style="fill:#cecece"/><path d="M203.2,285.5a.9.9,0,0,1-.9-.8V272.1a.8.8,0,0,1,.9-.8.8.8,0,0,1,.8.8v12.6A.9.9,0,0,1,203.2,285.5Z" style="fill:#cecece"/><path d="M203.2,255.4a4,4,0,0,1-4.1-4v-7.8a4.1,4.1,0,0,1,8.1,0v7.8A4,4,0,0,1,203.2,255.4Zm0-14.2a2.4,2.4,0,0,0-2.4,2.4v7.8a2.4,2.4,0,1,0,4.7,0v-7.8A2.3,2.3,0,0,0,203.2,241.2Z" style="fill:#cecece"/><path d="M203.2,264.8a.9.9,0,0,1-.9-.8V251.4a.8.8,0,0,1,.9-.8.8.8,0,0,1,.8.8V264A.9.9,0,0,1,203.2,264.8Z" style="fill:#cecece"/><path d="M203.2,397.7c-2.7,0-4.9-2.9-4.9-6.6s2.2-6.5,4.9-6.5,4.9,2.9,4.9,6.5S205.9,397.7,203.2,397.7Zm0-11.5c-1.8,0-3.3,2.3-3.3,4.9s1.5,5,3.3,5,3.2-2.3,3.2-5S204.9,386.2,203.2,386.2Z" style="fill:#cecece"/><path d="M203.2,234.7a4,4,0,0,1-4.1-4v-7.8a4.1,4.1,0,0,1,8.1,0v7.8A4,4,0,0,1,203.2,234.7Zm0-14.2a2.4,2.4,0,0,0-2.4,2.4v7.8a2.4,2.4,0,1,0,4.7,0v-7.8A2.3,2.3,0,0,0,203.2,220.5Z" style="fill:#cecece"/><path d="M203.2,244.1a.9.9,0,0,1-.9-.8V230.7a.8.8,0,0,1,.9-.8.8.8,0,0,1,.8.8v12.6A.9.9,0,0,1,203.2,244.1Z" style="fill:#cecece"/><path d="M203.2,214a4,4,0,0,1-4.1-4v-7.8a4.1,4.1,0,0,1,8.1,0V210A4,4,0,0,1,203.2,214Zm0-14.2a2.4,2.4,0,0,0-2.4,2.4V210a2.3,2.3,0,0,0,2.4,2.3,2.3,2.3,0,0,0,2.3-2.3v-7.8A2.3,2.3,0,0,0,203.2,199.8Z" style="fill:#cecece"/><path d="M203.2,223.4a.9.9,0,0,1-.9-.8V210a.9.9,0,0,1,.9-.9.9.9,0,0,1,.8.9v12.6A.9.9,0,0,1,203.2,223.4Z" style="fill:#cecece"/><path d="M203.2,193.3a4.1,4.1,0,0,1-4.1-4.1v-7.7a4.1,4.1,0,1,1,8.1,0v7.7A4,4,0,0,1,203.2,193.3Zm0-14.2a2.4,2.4,0,0,0-2.4,2.4v7.7a2.4,2.4,0,1,0,4.7,0v-7.7A2.3,2.3,0,0,0,203.2,179.1Z" style="fill:#cecece"/><path d="M203.2,202.7a.9.9,0,0,1-.9-.9V189.3a.9.9,0,0,1,.9-.9.9.9,0,0,1,.8.9v12.5A.9.9,0,0,1,203.2,202.7Z" style="fill:#cecece"/><path d="M203.2,172.6a4.1,4.1,0,0,1-4.1-4.1v-7.7a4.1,4.1,0,1,1,8.1,0v7.7A4,4,0,0,1,203.2,172.6Zm0-14.2a2.4,2.4,0,0,0-2.4,2.4v7.7a2.4,2.4,0,1,0,4.7,0v-7.7A2.3,2.3,0,0,0,203.2,158.4Z" style="fill:#cecece"/><path d="M203.2,182a.9.9,0,0,1-.9-.9V168.5a.9.9,0,0,1,.9-.8.9.9,0,0,1,.8.8v12.6A.9.9,0,0,1,203.2,182Z" style="fill:#cecece"/><path d="M203.2,151.9a4.1,4.1,0,0,1-4.1-4.1v-7.7a4.1,4.1,0,1,1,8.1,0v7.7A4.1,4.1,0,0,1,203.2,151.9Zm0-14.2a2.3,2.3,0,0,0-2.4,2.4v7.7a2.4,2.4,0,1,0,4.7,0v-7.7A2.3,2.3,0,0,0,203.2,137.7Z" style="fill:#cecece"/><path d="M203.2,161.2a.8.8,0,0,1-.9-.8V147.8a.9.9,0,0,1,.9-.8.9.9,0,0,1,.8.8v12.6A.8.8,0,0,1,203.2,161.2Z" style="fill:#cecece"/><path d="M203.2,131.1a4,4,0,0,1-4.1-4v-7.8a4.1,4.1,0,0,1,8.1,0v7.8A4,4,0,0,1,203.2,131.1Zm0-14.1a2.3,2.3,0,0,0-2.4,2.3v7.8a2.4,2.4,0,1,0,4.7,0v-7.8A2.3,2.3,0,0,0,203.2,117Z" style="fill:#cecece"/><path d="M203.2,140.5a.8.8,0,0,1-.9-.8V127.1a.9.9,0,0,1,.9-.8.9.9,0,0,1,.8.8v12.6A.8.8,0,0,1,203.2,140.5Z" style="fill:#cecece"/><path d="M203.2,131.1a4,4,0,0,1-4.1-4v-7.8a4.1,4.1,0,0,1,8.1,0v7.8A4,4,0,0,1,203.2,131.1Zm0-14.1a2.3,2.3,0,0,0-2.4,2.3v7.8a2.4,2.4,0,1,0,4.7,0v-7.8A2.3,2.3,0,0,0,203.2,117Z" style="fill:#cecece"/><path d="M203.2,140.5a.8.8,0,0,1-.9-.8V127.1a.9.9,0,0,1,.9-.8.9.9,0,0,1,.8.8v12.6A.8.8,0,0,1,203.2,140.5Z" style="fill:#cecece"/><path d="M203.2,110.4a4,4,0,0,1-4.1-4V98.6a4.1,4.1,0,0,1,8.1,0v7.8A4,4,0,0,1,203.2,110.4Zm0-14.2a2.4,2.4,0,0,0-2.4,2.4v7.8a2.4,2.4,0,1,0,4.7,0V98.6A2.3,2.3,0,0,0,203.2,96.2Z" style="fill:#cecece"/><path d="M203.2,119.8a.9.9,0,0,1-.9-.8V106.4a.8.8,0,0,1,.9-.8.8.8,0,0,1,.8.8V119A.9.9,0,0,1,203.2,119.8Z" style="fill:#cecece"/><path d="M46.6,234.7a4,4,0,0,1-4.1-4v-7.8a4.1,4.1,0,0,1,8.1,0v7.8A4,4,0,0,1,46.6,234.7Zm0-14.2a2.4,2.4,0,0,0-2.4,2.4v7.8a2.4,2.4,0,1,0,4.7,0v-7.8A2.3,2.3,0,0,0,46.6,220.5Z" style="fill:#cecece"/><path d="M46.6,244.1a.9.9,0,0,1-.9-.8V230.7a.8.8,0,0,1,.9-.8.8.8,0,0,1,.8.8v12.6A.9.9,0,0,1,46.6,244.1Z" style="fill:#cecece"/><path d="M46.6,214a4,4,0,0,1-4.1-4v-7.8a4.1,4.1,0,0,1,8.1,0V210A4,4,0,0,1,46.6,214Zm0-14.2a2.4,2.4,0,0,0-2.4,2.4V210a2.3,2.3,0,0,0,2.4,2.3,2.3,2.3,0,0,0,2.3-2.3v-7.8A2.3,2.3,0,0,0,46.6,199.8Z" style="fill:#cecece"/><path d="M46.6,223.4a.9.9,0,0,1-.9-.8V210a.9.9,0,0,1,.9-.9.9.9,0,0,1,.8.9v12.6A.9.9,0,0,1,46.6,223.4Z" style="fill:#cecece"/><path d="M46.6,193.3a4.1,4.1,0,0,1-4.1-4.1v-7.7a4.1,4.1,0,1,1,8.1,0v7.7A4,4,0,0,1,46.6,193.3Zm0-14.2a2.4,2.4,0,0,0-2.4,2.4v7.7a2.4,2.4,0,1,0,4.7,0v-7.7A2.3,2.3,0,0,0,46.6,179.1Z" style="fill:#cecece"/><path d="M46.6,202.7a.9.9,0,0,1-.9-.9V189.3a.9.9,0,0,1,.9-.9.9.9,0,0,1,.8.9v12.5A.9.9,0,0,1,46.6,202.7Z" style="fill:#cecece"/><path d="M46.6,172.6a4.1,4.1,0,0,1-4.1-4.1v-7.7a4.1,4.1,0,1,1,8.1,0v7.7A4,4,0,0,1,46.6,172.6Zm0-14.2a2.4,2.4,0,0,0-2.4,2.4v7.7a2.4,2.4,0,1,0,4.7,0v-7.7A2.3,2.3,0,0,0,46.6,158.4Z" style="fill:#cecece"/><path d="M46.6,182a.9.9,0,0,1-.9-.9V168.5a.9.9,0,0,1,.9-.8.9.9,0,0,1,.8.8v12.6A.9.9,0,0,1,46.6,182Z" style="fill:#cecece"/><path d="M46.6,151.9a4.1,4.1,0,0,1-4.1-4.1v-7.7a4.1,4.1,0,1,1,8.1,0v7.7A4.1,4.1,0,0,1,46.6,151.9Zm0-14.2a2.3,2.3,0,0,0-2.4,2.4v7.7a2.4,2.4,0,1,0,4.7,0v-7.7A2.3,2.3,0,0,0,46.6,137.7Z" style="fill:#cecece"/><path d="M46.6,161.2a.8.8,0,0,1-.9-.8V147.8a.9.9,0,0,1,.9-.8.9.9,0,0,1,.8.8v12.6A.8.8,0,0,1,46.6,161.2Z" style="fill:#cecece"/><path d="M46.6,131.1a4,4,0,0,1-4.1-4v-7.8a4.1,4.1,0,0,1,8.1,0v7.8A4,4,0,0,1,46.6,131.1Zm0-14.1a2.3,2.3,0,0,0-2.4,2.3v7.8a2.4,2.4,0,1,0,4.7,0v-7.8A2.3,2.3,0,0,0,46.6,117Z" style="fill:#cecece"/><path d="M46.6,140.5a.8.8,0,0,1-.9-.8V127.1a.9.9,0,0,1,.9-.8.9.9,0,0,1,.8.8v12.6A.8.8,0,0,1,46.6,140.5Z" style="fill:#cecece"/><path d="M46.6,131.1a4,4,0,0,1-4.1-4v-7.8a4.1,4.1,0,0,1,8.1,0v7.8A4,4,0,0,1,46.6,131.1Zm0-14.1a2.3,2.3,0,0,0-2.4,2.3v7.8a2.4,2.4,0,1,0,4.7,0v-7.8A2.3,2.3,0,0,0,46.6,117Z" style="fill:#cecece"/><path d="M46.6,140.5a.8.8,0,0,1-.9-.8V127.1a.9.9,0,0,1,.9-.8.9.9,0,0,1,.8.8v12.6A.8.8,0,0,1,46.6,140.5Z" style="fill:#cecece"/><path d="M46.6,110.4a4,4,0,0,1-4.1-4V98.6a4.1,4.1,0,0,1,8.1,0v7.8A4,4,0,0,1,46.6,110.4Zm0-14.2a2.4,2.4,0,0,0-2.4,2.4v7.8a2.4,2.4,0,1,0,4.7,0V98.6A2.3,2.3,0,0,0,46.6,96.2Z" style="fill:#cecece"/><path d="M46.6,119.8a.9.9,0,0,1-.9-.8V106.4a.8.8,0,0,1,.9-.8.8.8,0,0,1,.8.8V119A.9.9,0,0,1,46.6,119.8Z" style="fill:#cecece"/><path d="M203.2,90.7a4,4,0,0,1-4.1-4V78.9a4.1,4.1,0,0,1,8.1,0v7.8A4,4,0,0,1,203.2,90.7Zm0-14.2a2.4,2.4,0,0,0-2.4,2.4v7.8a2.4,2.4,0,1,0,4.7,0V78.9A2.3,2.3,0,0,0,203.2,76.5Z" style="fill:#cecece"/><path d="M203.2,100.1a.9.9,0,0,1-.9-.8V86.7a.8.8,0,0,1,.9-.8.8.8,0,0,1,.8.8V99.3A.9.9,0,0,1,203.2,100.1Z" style="fill:#cecece"/><path d="M203.2,70a4,4,0,0,1-4.1-4V58.2a4.1,4.1,0,0,1,8.1,0V66A4,4,0,0,1,203.2,70Zm0-14.2a2.4,2.4,0,0,0-2.4,2.4V66a2.3,2.3,0,0,0,2.4,2.3,2.3,2.3,0,0,0,2.3-2.3V58.2A2.3,2.3,0,0,0,203.2,55.8Z" style="fill:#cecece"/><path d="M203.2,79.4a.9.9,0,0,1-.9-.8V66a.9.9,0,0,1,.9-.9.9.9,0,0,1,.8.9V78.6A.9.9,0,0,1,203.2,79.4Z" style="fill:#cecece"/><path d="M203.2,49.3a4.1,4.1,0,0,1-4.1-4.1V37.5a4.1,4.1,0,1,1,8.1,0v7.7A4,4,0,0,1,203.2,49.3Zm0-14.2a2.4,2.4,0,0,0-2.4,2.4v7.7a2.4,2.4,0,1,0,4.7,0V37.5A2.3,2.3,0,0,0,203.2,35.1Z" style="fill:#cecece"/><path d="M203.2,58.7a.9.9,0,0,1-.9-.9V45.3a.9.9,0,0,1,.9-.9.9.9,0,0,1,.8.9V57.8A.9.9,0,0,1,203.2,58.7Z" style="fill:#cecece"/><path d="M203.2,28.6a4.1,4.1,0,0,1-4.1-4.1V16.8a4.1,4.1,0,1,1,8.1,0v7.7A4,4,0,0,1,203.2,28.6Zm0-14.2a2.4,2.4,0,0,0-2.4,2.4v7.7a2.4,2.4,0,1,0,4.7,0V16.8A2.3,2.3,0,0,0,203.2,14.4Z" style="fill:#cecece"/><path d="M203.2,38a.9.9,0,0,1-.9-.9V24.5a.9.9,0,0,1,.9-.8.9.9,0,0,1,.8.8V37.1A.9.9,0,0,1,203.2,38Z" style="fill:#cecece"/><path d="M203.2,17.2a.8.8,0,0,1-.9-.8V3.8a.9.9,0,0,1,.9-.8.9.9,0,0,1,.8.8V16.4A.8.8,0,0,1,203.2,17.2Z" style="fill:#cecece"/><path d="M46.6,90.7a4,4,0,0,1-4.1-4V78.9a4.1,4.1,0,0,1,8.1,0v7.8A4,4,0,0,1,46.6,90.7Zm0-14.2a2.4,2.4,0,0,0-2.4,2.4v7.8a2.4,2.4,0,1,0,4.7,0V78.9A2.3,2.3,0,0,0,46.6,76.5Z" style="fill:#cecece"/><path d="M46.6,100.1a.9.9,0,0,1-.9-.8V86.7a.8.8,0,0,1,.9-.8.8.8,0,0,1,.8.8V99.3A.9.9,0,0,1,46.6,100.1Z" style="fill:#cecece"/><path d="M46.6,70a4,4,0,0,1-4.1-4V58.2a4.1,4.1,0,0,1,8.1,0V66A4,4,0,0,1,46.6,70Zm0-14.2a2.4,2.4,0,0,0-2.4,2.4V66a2.3,2.3,0,0,0,2.4,2.3A2.3,2.3,0,0,0,48.9,66V58.2A2.3,2.3,0,0,0,46.6,55.8Z" style="fill:#cecece"/><path d="M46.6,79.4a.9.9,0,0,1-.9-.8V66a.9.9,0,0,1,.9-.9.9.9,0,0,1,.8.9V78.6A.9.9,0,0,1,46.6,79.4Z" style="fill:#cecece"/><path d="M46.6,49.3a4.1,4.1,0,0,1-4.1-4.1V37.5a4.1,4.1,0,1,1,8.1,0v7.7A4,4,0,0,1,46.6,49.3Zm0-14.2a2.4,2.4,0,0,0-2.4,2.4v7.7a2.4,2.4,0,1,0,4.7,0V37.5A2.3,2.3,0,0,0,46.6,35.1Z" style="fill:#cecece"/><path d="M46.6,58.7a.9.9,0,0,1-.9-.9V45.3a.9.9,0,0,1,.9-.9.9.9,0,0,1,.8.9V57.8A.9.9,0,0,1,46.6,58.7Z" style="fill:#cecece"/><path d="M46.6,28.6a4.1,4.1,0,0,1-4.1-4.1V16.8a4.1,4.1,0,1,1,8.1,0v7.7A4,4,0,0,1,46.6,28.6Zm0-14.2a2.4,2.4,0,0,0-2.4,2.4v7.7a2.4,2.4,0,1,0,4.7,0V16.8A2.3,2.3,0,0,0,46.6,14.4Z" style="fill:#cecece"/><path d="M46.6,38a.9.9,0,0,1-.9-.9V24.5a.9.9,0,0,1,.9-.8.9.9,0,0,1,.8.8V37.1A.9.9,0,0,1,46.6,38Z" style="fill:#cecece"/><path d="M46.6,17.2a.8.8,0,0,1-.9-.8V3.8a.9.9,0,0,1,.9-.8.9.9,0,0,1,.8.8V16.4A.8.8,0,0,1,46.6,17.2Z" style="fill:#cecece"/><path d="M46.6,3a.9.9,0,0,1,.8.8v9a4.1,4.1,0,0,1,3.2,4v7.7a4.1,4.1,0,0,1-3.2,4v5a4.1,4.1,0,0,1,3.2,4v7.7a4.1,4.1,0,0,1-3.2,4v5a4.2,4.2,0,0,1,3.2,4V66a4.1,4.1,0,0,1-3.2,3.9V75a4,4,0,0,1,3.2,3.9v7.8a4.1,4.1,0,0,1-3.2,3.9v4.1a4.1,4.1,0,0,1,3.2,3.9v7.8a4,4,0,0,1-3.2,3.9v5.1a4.1,4.1,0,0,1,3.2,3.9v7.8a4.2,4.2,0,0,1-3.2,4v5a4.1,4.1,0,0,1,3.2,4v7.7a4.1,4.1,0,0,1-3.2,4v5a4.1,4.1,0,0,1,3.2,4v7.7a4.1,4.1,0,0,1-3.2,4v5a4.1,4.1,0,0,1,3.2,4v7.7a4.1,4.1,0,0,1-3.2,4v5a4.2,4.2,0,0,1,3.2,4V210a4.1,4.1,0,0,1-3.2,3.9V219a4,4,0,0,1,3.2,3.9v7.8a4.1,4.1,0,0,1-3.2,3.9V239h0a4.1,4.1,0,0,1,4.1,4.1v7.7a4.1,4.1,0,0,1-3.3,4v5a4.1,4.1,0,0,1,3.3,4v7.7a4.1,4.1,0,0,1-3.3,4v5a4.1,4.1,0,0,1,3.3,4v7.7a4.1,4.1,0,0,1-3.3,4v5a4.2,4.2,0,0,1,3.3,4V313a4,4,0,0,1-3.3,3.9V322a4,4,0,0,1,3.3,3.9v7.8a4,4,0,0,1-3.3,3.9v5.1a4,4,0,0,1,3.3,3.9v7.8a4,4,0,0,1-3.3,3.9v5.1c2.4.5,4.1,3.2,4.1,6.5s-2.2,6.6-4.9,6.6-4.9-3-4.9-6.6,1.8-6,4.1-6.5v-5.1a4,4,0,0,1-3.2-3.9v-7.8a4.1,4.1,0,0,1,3.2-3.9v-5.1a4.1,4.1,0,0,1-3.2-3.9v-7.8a4,4,0,0,1,3.2-3.9v-5.1a4.1,4.1,0,0,1-3.2-3.9v-7.8a4.2,4.2,0,0,1,3.2-4v-5a4.1,4.1,0,0,1-3.2-4v-7.7a4.1,4.1,0,0,1,3.2-4v-5a4.1,4.1,0,0,1-3.2-4v-7.7a4.1,4.1,0,0,1,3.2-4v-5a4.1,4.1,0,0,1-3.2-4v-7.7a3.9,3.9,0,0,1,2.3-3.7v-4.8a4.1,4.1,0,0,1-3.2-3.9v-7.8a4,4,0,0,1,3.2-3.9v-5.1a4.1,4.1,0,0,1-3.2-3.9v-7.8a4.2,4.2,0,0,1,3.2-4v-5a4.1,4.1,0,0,1-3.2-4v-7.7a4.1,4.1,0,0,1,3.2-4v-5a4.1,4.1,0,0,1-3.2-4v-7.7a4.1,4.1,0,0,1,3.2-4v-5a4.1,4.1,0,0,1-3.2-4v-7.7a4.1,4.1,0,0,1,3.2-4v-5a4.2,4.2,0,0,1-3.2-4v-7.8a4.1,4.1,0,0,1,3.2-3.9v-5.1a4,4,0,0,1-3.2-3.9V98.6a4.1,4.1,0,0,1,3.2-3.9V90.6a4.1,4.1,0,0,1-3.2-3.9V78.9A4,4,0,0,1,45.7,75V69.9A4.1,4.1,0,0,1,42.5,66V58.2a4.2,4.2,0,0,1,3.2-4v-5a4.1,4.1,0,0,1-3.2-4V37.5a4.1,4.1,0,0,1,3.2-4v-5a4.1,4.1,0,0,1-3.2-4V16.8a4.1,4.1,0,0,1,3.2-4v-9a.9.9,0,0,1,.9-.8m0,14.2a.8.8,0,0,1-.9-.8V14.5a2.5,2.5,0,0,0-1.5,2.3v7.7a2.5,2.5,0,0,0,1.5,2.3V24.5a.9.9,0,0,1,.9-.8.9.9,0,0,1,.8.8v2.3a2.5,2.5,0,0,0,1.5-2.3V16.8a2.5,2.5,0,0,0-1.5-2.3v1.9a.8.8,0,0,1-.8.8m0,20.8a.9.9,0,0,1-.9-.9V35.3a2.3,2.3,0,0,0-1.5,2.2v7.7a2.4,2.4,0,0,0,1.5,2.3V45.3a.9.9,0,0,1,.9-.9.9.9,0,0,1,.8.9v2.2a2.4,2.4,0,0,0,1.5-2.3V37.5a2.3,2.3,0,0,0-1.5-2.2v1.8a.9.9,0,0,1-.8.9m0,20.7a.9.9,0,0,1-.9-.9V56a2.3,2.3,0,0,0-1.5,2.2V66a2.4,2.4,0,0,0,1.5,2.2V66a.9.9,0,0,1,.9-.9.9.9,0,0,1,.8.9v2.2A2.4,2.4,0,0,0,48.9,66V58.2A2.3,2.3,0,0,0,47.4,56v1.8a.9.9,0,0,1-.8.9m0,20.7a.9.9,0,0,1-.9-.8V76.7a2.3,2.3,0,0,0-1.5,2.2v7.8a2.3,2.3,0,0,0,1.5,2.2V86.7a.8.8,0,0,1,.9-.8.8.8,0,0,1,.8.8v2.2a2.3,2.3,0,0,0,1.5-2.2V78.9a2.3,2.3,0,0,0-1.5-2.2v1.9a.9.9,0,0,1-.8.8m0,20.7a.9.9,0,0,1-.9-.8V96.4a2.3,2.3,0,0,0-1.5,2.2v7.8a2.3,2.3,0,0,0,1.5,2.2v-2.2a.8.8,0,0,1,.9-.8.8.8,0,0,1,.8.8v2.2a2.3,2.3,0,0,0,1.5-2.2V98.6a2.3,2.3,0,0,0-1.5-2.2v2.9a.9.9,0,0,1-.8.8m0,19.7a.9.9,0,0,1-.9-.8v-1.9a2.4,2.4,0,0,0-1.5,2.2v7.8a2.3,2.3,0,0,0,1.5,2.2v-2.2a.9.9,0,0,1,.9-.8.9.9,0,0,1,.8.8v2.2a2.3,2.3,0,0,0,1.5-2.2v-7.8a2.4,2.4,0,0,0-1.5-2.2V119a.9.9,0,0,1-.8.8m0,20.7a.8.8,0,0,1-.9-.8v-1.9a2.4,2.4,0,0,0-1.5,2.3v7.7a2.3,2.3,0,0,0,1.5,2.2v-2.2a.9.9,0,0,1,.9-.8.9.9,0,0,1,.8.8V150a2.3,2.3,0,0,0,1.5-2.2v-7.7a2.4,2.4,0,0,0-1.5-2.3v1.9a.8.8,0,0,1-.8.8m0,20.7a.8.8,0,0,1-.9-.8v-1.9a2.5,2.5,0,0,0-1.5,2.3v7.7a2.5,2.5,0,0,0,1.5,2.3v-2.3a.9.9,0,0,1,.9-.8.9.9,0,0,1,.8.8v2.3a2.5,2.5,0,0,0,1.5-2.3v-7.7a2.5,2.5,0,0,0-1.5-2.3v1.9a.8.8,0,0,1-.8.8m0,20.8a.9.9,0,0,1-.9-.9v-1.8a2.3,2.3,0,0,0-1.5,2.2v7.7a2.4,2.4,0,0,0,1.5,2.3v-2.2a.9.9,0,0,1,.9-.9.9.9,0,0,1,.8.9v2.2a2.4,2.4,0,0,0,1.5-2.3v-7.7a2.3,2.3,0,0,0-1.5-2.2v1.8a.9.9,0,0,1-.8.9m0,20.7a.9.9,0,0,1-.9-.9V200a2.3,2.3,0,0,0-1.5,2.2V210a2.4,2.4,0,0,0,1.5,2.2V210a.9.9,0,0,1,.9-.9.9.9,0,0,1,.8.9v2.2a2.4,2.4,0,0,0,1.5-2.2v-7.8a2.3,2.3,0,0,0-1.5-2.2v1.8a.9.9,0,0,1-.8.9m0,20.7a.9.9,0,0,1-.9-.8v-1.9a2.3,2.3,0,0,0-1.5,2.2v7.8a2.3,2.3,0,0,0,1.5,2.2v-2.2a.8.8,0,0,1,.9-.8.8.8,0,0,1,.8.8v2.2a2.3,2.3,0,0,0,1.5-2.2v-7.8a2.3,2.3,0,0,0-1.5-2.2v1.9a.9.9,0,0,1-.8.8m0,20.7a.9.9,0,0,1-.9-.8v-1.9a2.4,2.4,0,0,0-.7,1.7v7.7a2.4,2.4,0,0,0,1.6,2.2v-2.2a.9.9,0,0,1,.8-.8.8.8,0,0,1,.8.8V253a2.4,2.4,0,0,0,1.6-2.2v-7.7a2.4,2.4,0,0,0-2.4-2.4h0v2.6a.9.9,0,0,1-.8.8m.8,20.1a.8.8,0,0,1-.8-.8v-1.8a2.4,2.4,0,0,0-1.6,2.2v7.7a2.5,2.5,0,0,0,1.6,2.3v-2.3a.9.9,0,0,1,.8-.8.8.8,0,0,1,.8.8v2.3a2.5,2.5,0,0,0,1.6-2.3v-7.7a2.4,2.4,0,0,0-1.6-2.2v1.8a.7.7,0,0,1-.8.8m0,20.8a.9.9,0,0,1-.8-.9v-1.8a2.4,2.4,0,0,0-1.6,2.2v7.7a2.5,2.5,0,0,0,1.6,2.3v-2.2a.9.9,0,0,1,.8-.9.8.8,0,0,1,.8.9v2.2a2.5,2.5,0,0,0,1.6-2.3v-7.7a2.4,2.4,0,0,0-1.6-2.2v1.8a.8.8,0,0,1-.8.9m0,20.7a.9.9,0,0,1-.8-.9V303a2.4,2.4,0,0,0-1.6,2.2V313a2.5,2.5,0,0,0,1.6,2.2V313a.9.9,0,0,1,.8-.9.8.8,0,0,1,.8.9v2.2a2.5,2.5,0,0,0,1.6-2.2v-7.8a2.4,2.4,0,0,0-1.6-2.2v1.8a.8.8,0,0,1-.8.9m0,20.7a.9.9,0,0,1-.8-.8v-1.9a2.4,2.4,0,0,0-1.6,2.2v7.8a2.4,2.4,0,0,0,1.6,2.2v-2.2a.8.8,0,0,1,.8-.8.7.7,0,0,1,.8.8v2.2a2.4,2.4,0,0,0,1.6-2.2v-7.8a2.4,2.4,0,0,0-1.6-2.2v1.9a.8.8,0,0,1-.8.8m0,20.7a.9.9,0,0,1-.8-.8v-1.9a2.4,2.4,0,0,0-1.6,2.2v7.8a2.4,2.4,0,0,0,1.6,2.2v-2.2a.8.8,0,0,1,.8-.8.7.7,0,0,1,.8.8v2.2a2.4,2.4,0,0,0,1.6-2.2v-7.8a2.4,2.4,0,0,0-1.6-2.2v1.9a.8.8,0,0,1-.8.8m0,27.7c1.8,0,3.3-2.2,3.3-4.9s-1.1-4.2-2.5-4.8V367a.8.8,0,0,1-.8.8.9.9,0,0,1-.8-.8v-1.9c-1.4.6-2.4,2.5-2.4,4.8s1.5,4.9,3.2,4.9M46.6,0a3.8,3.8,0,0,0-3.9,3.8v7.1a7,7,0,0,0-3.2,5.9v7.7a7,7,0,0,0,3.2,5.9v1.2a7.3,7.3,0,0,0-3.2,5.9v7.7a7,7,0,0,0,3.2,5.9v1.2a7.3,7.3,0,0,0-3.2,5.9V66a7.3,7.3,0,0,0,3.2,5.9V73a7.3,7.3,0,0,0-3.2,5.9v7.8a7.3,7.3,0,0,0,3.2,5.9h0a7.3,7.3,0,0,0-3.2,5.9v7.8a7.3,7.3,0,0,0,3.2,5.9v1.1a7.3,7.3,0,0,0-3.2,5.9v7.8a7.3,7.3,0,0,0,3.2,5.9v1.2a7,7,0,0,0-3.2,5.9v7.7a7.3,7.3,0,0,0,3.2,5.9v1.2a7,7,0,0,0-3.2,5.9v7.7a7,7,0,0,0,3.2,5.9v1.2a7.3,7.3,0,0,0-3.2,5.9v7.7a7,7,0,0,0,3.2,5.9v1.2a7.3,7.3,0,0,0-3.2,5.9V210a7.3,7.3,0,0,0,3.2,5.9V217a7.3,7.3,0,0,0-3.2,5.9v7.8a7.3,7.3,0,0,0,3.2,5.9v1.2a7.2,7.2,0,0,0-2.3,5.3v7.7a7,7,0,0,0,3.2,5.9v1.2a6.8,6.8,0,0,0-3.2,5.9v7.7a6.8,6.8,0,0,0,3.2,5.9v1.2a7,7,0,0,0-3.2,5.9v7.7a6.8,6.8,0,0,0,3.2,5.9v1.2a7,7,0,0,0-3.2,5.9V313a7,7,0,0,0,3.2,5.9V320a7,7,0,0,0-3.2,5.9v7.8a7,7,0,0,0,3.2,5.9v1.1a7,7,0,0,0-3.2,5.9v7.8a7,7,0,0,0,3.2,5.9v1.2a9.9,9.9,0,0,0-4.1,8.4c0,5.4,3.5,9.6,7.9,9.6s7.9-4.2,7.9-9.6a9.9,9.9,0,0,0-4.1-8.4v-1.2a7.1,7.1,0,0,0,3.3-5.9v-7.8a7.1,7.1,0,0,0-3.3-5.9v-1.1a7.1,7.1,0,0,0,3.3-5.9v-7.8a7.1,7.1,0,0,0-3.3-5.9v-1.1a7.1,7.1,0,0,0,3.3-5.9v-7.8a7.1,7.1,0,0,0-3.3-5.9v-1.2a6.8,6.8,0,0,0,3.3-5.9v-7.7a7.1,7.1,0,0,0-3.3-5.9v-1.2a6.8,6.8,0,0,0,3.3-5.9v-7.7a6.8,6.8,0,0,0-3.3-5.9v-1.2a7.1,7.1,0,0,0,3.3-5.9v-7.7a7,7,0,0,0-4.1-6.4h0a7.3,7.3,0,0,0,3.2-5.9v-7.8a7.3,7.3,0,0,0-3.2-5.9v-1.1a7.3,7.3,0,0,0,3.2-5.9v-7.8a7.3,7.3,0,0,0-3.2-5.9v-1.2a7,7,0,0,0,3.2-5.9v-7.7a7.3,7.3,0,0,0-3.2-5.9v-1.2a7,7,0,0,0,3.2-5.9v-7.7a7,7,0,0,0-3.2-5.9v-1.2a7.3,7.3,0,0,0,3.2-5.9v-7.7a7,7,0,0,0-3.2-5.9V133a7.3,7.3,0,0,0,3.2-5.9v-7.8a7.3,7.3,0,0,0-3.2-5.9v-1.1a7.3,7.3,0,0,0,3.2-5.9V98.6a7.3,7.3,0,0,0-3.2-5.9h0a7.3,7.3,0,0,0,3.2-5.9V78.9A7.3,7.3,0,0,0,50.4,73V71.9A7.3,7.3,0,0,0,53.6,66V58.2a7.3,7.3,0,0,0-3.2-5.9V51.1a7,7,0,0,0,3.2-5.9V37.5a7.3,7.3,0,0,0-3.2-5.9V30.4a7,7,0,0,0,3.2-5.9V16.8a7,7,0,0,0-3.2-5.9V3.8A3.8,3.8,0,0,0,46.6,0Zm.8,370.8h.1c0,.2,0,.3-.1.4s-.1-.2-.1-.4Z" style="fill:#575757"/><path d="M203.2,3a.9.9,0,0,1,.8.8v9a4.1,4.1,0,0,1,3.2,4v7.7a4.1,4.1,0,0,1-3.2,4v5a4.1,4.1,0,0,1,3.2,4v7.7a4.1,4.1,0,0,1-3.2,4v5a4.2,4.2,0,0,1,3.2,4V66a4.1,4.1,0,0,1-3.2,3.9V75a4,4,0,0,1,3.2,3.9v7.8a4.1,4.1,0,0,1-3.2,3.9v4.1a4.1,4.1,0,0,1,3.2,3.9v7.8a4,4,0,0,1-3.2,3.9v5.1a4.1,4.1,0,0,1,3.2,3.9v7.8a4.2,4.2,0,0,1-3.2,4v5a4.1,4.1,0,0,1,3.2,4v7.7a4.1,4.1,0,0,1-3.2,4v5a4.1,4.1,0,0,1,3.2,4v7.7a4.1,4.1,0,0,1-3.2,4v5a4.1,4.1,0,0,1,3.2,4v7.7a4.1,4.1,0,0,1-3.2,4v5a4.2,4.2,0,0,1,3.2,4V210a4.1,4.1,0,0,1-3.2,3.9V219a4,4,0,0,1,3.2,3.9v7.8a4.1,4.1,0,0,1-3.2,3.9v5.1a4,4,0,0,1,3.2,3.9v7.8a4.1,4.1,0,0,1-3.2,3.9v5.1a4.1,4.1,0,0,1,3.2,3.9v7.8A4,4,0,0,1,204,276v5.1a4.1,4.1,0,0,1,3.2,3.9v7.8a4.2,4.2,0,0,1-3.2,4v5a4.1,4.1,0,0,1,3.2,4v7.7a4.1,4.1,0,0,1-3.2,4v5a4.1,4.1,0,0,1,3.2,4v7.7a4.1,4.1,0,0,1-3.2,4v5a4.1,4.1,0,0,1,3.2,4v7.7a4.1,4.1,0,0,1-3.2,4v5a4.2,4.2,0,0,1,3.2,4v7.8a4.1,4.1,0,0,1-3.2,3.9v5.1c2.3.5,4.1,3.2,4.1,6.4s-2.2,6.6-4.9,6.6-4.9-2.9-4.9-6.6,1.7-5.9,4-6.4v-5.1a4.1,4.1,0,0,1-3.2-3.9v-7.8a4.2,4.2,0,0,1,3.2-4v-5a4.1,4.1,0,0,1-3.2-4v-7.7a4.1,4.1,0,0,1,3.2-4v-5a4.1,4.1,0,0,1-3.2-4v-7.7a4.1,4.1,0,0,1,3.2-4v-5a4.1,4.1,0,0,1-3.2-4v-7.7a4.1,4.1,0,0,1,3.2-4v-5a4.2,4.2,0,0,1-3.2-4V285a4.1,4.1,0,0,1,3.2-3.9V276a4,4,0,0,1-3.2-3.9v-7.8a4.1,4.1,0,0,1,3.2-3.9v-5.1a4.1,4.1,0,0,1-3.2-3.9v-7.8a4,4,0,0,1,3.2-3.9v-5.1a4.1,4.1,0,0,1-3.2-3.9v-7.8a4,4,0,0,1,3.2-3.9v-5.1a4.1,4.1,0,0,1-3.2-3.9v-7.8a4.2,4.2,0,0,1,3.2-4v-5a4.1,4.1,0,0,1-3.2-4v-7.7a4.1,4.1,0,0,1,3.2-4v-5a4.1,4.1,0,0,1-3.2-4v-7.7a4.1,4.1,0,0,1,3.2-4v-5a4.1,4.1,0,0,1-3.2-4v-7.7a4.1,4.1,0,0,1,3.2-4v-5a4.2,4.2,0,0,1-3.2-4v-7.8a4.1,4.1,0,0,1,3.2-3.9v-5.1a4,4,0,0,1-3.2-3.9V98.6a4.1,4.1,0,0,1,3.2-3.9V90.6a4.1,4.1,0,0,1-3.2-3.9V78.9a4,4,0,0,1,3.2-3.9V69.9a4.1,4.1,0,0,1-3.2-3.9V58.2a4.2,4.2,0,0,1,3.2-4v-5a4.1,4.1,0,0,1-3.2-4V37.5a4.1,4.1,0,0,1,3.2-4v-5a4.1,4.1,0,0,1-3.2-4V16.8a4.1,4.1,0,0,1,3.2-4v-9a.9.9,0,0,1,.9-.8m0,14.2a.8.8,0,0,1-.9-.8V14.5a2.5,2.5,0,0,0-1.5,2.3v7.7a2.5,2.5,0,0,0,1.5,2.3V24.5a.9.9,0,0,1,.9-.8.9.9,0,0,1,.8.8v2.3a2.5,2.5,0,0,0,1.5-2.3V16.8a2.5,2.5,0,0,0-1.5-2.3v1.9a.8.8,0,0,1-.8.8m0,20.8a.9.9,0,0,1-.9-.9V35.3a2.3,2.3,0,0,0-1.5,2.2v7.7a2.4,2.4,0,0,0,1.5,2.3V45.3a.9.9,0,0,1,.9-.9.9.9,0,0,1,.8.9v2.2a2.4,2.4,0,0,0,1.5-2.3V37.5a2.3,2.3,0,0,0-1.5-2.2v1.8a.9.9,0,0,1-.8.9m0,20.7a.9.9,0,0,1-.9-.9V56a2.3,2.3,0,0,0-1.5,2.2V66a2.4,2.4,0,0,0,1.5,2.2V66a.9.9,0,0,1,.9-.9.9.9,0,0,1,.8.9v2.2a2.4,2.4,0,0,0,1.5-2.2V58.2A2.3,2.3,0,0,0,204,56v1.8a.9.9,0,0,1-.8.9m0,20.7a.9.9,0,0,1-.9-.8V76.7a2.3,2.3,0,0,0-1.5,2.2v7.8a2.3,2.3,0,0,0,1.5,2.2V86.7a.8.8,0,0,1,.9-.8.8.8,0,0,1,.8.8v2.2a2.3,2.3,0,0,0,1.5-2.2V78.9a2.3,2.3,0,0,0-1.5-2.2v1.9a.9.9,0,0,1-.8.8m0,20.7a.9.9,0,0,1-.9-.8V96.4a2.3,2.3,0,0,0-1.5,2.2v7.8a2.3,2.3,0,0,0,1.5,2.2v-2.2a.8.8,0,0,1,.9-.8.8.8,0,0,1,.8.8v2.2a2.3,2.3,0,0,0,1.5-2.2V98.6a2.3,2.3,0,0,0-1.5-2.2v2.9a.9.9,0,0,1-.8.8m0,19.7a.9.9,0,0,1-.9-.8v-1.9a2.4,2.4,0,0,0-1.5,2.2v7.8a2.3,2.3,0,0,0,1.5,2.2v-2.2a.9.9,0,0,1,.9-.8.9.9,0,0,1,.8.8v2.2a2.3,2.3,0,0,0,1.5-2.2v-7.8a2.4,2.4,0,0,0-1.5-2.2V119a.9.9,0,0,1-.8.8m0,20.7a.8.8,0,0,1-.9-.8v-1.9a2.4,2.4,0,0,0-1.5,2.3v7.7a2.3,2.3,0,0,0,1.5,2.2v-2.2a.9.9,0,0,1,.9-.8.9.9,0,0,1,.8.8V150a2.3,2.3,0,0,0,1.5-2.2v-7.7a2.4,2.4,0,0,0-1.5-2.3v1.9a.8.8,0,0,1-.8.8m0,20.7a.8.8,0,0,1-.9-.8v-1.9a2.5,2.5,0,0,0-1.5,2.3v7.7a2.5,2.5,0,0,0,1.5,2.3v-2.3a.9.9,0,0,1,.9-.8.9.9,0,0,1,.8.8v2.3a2.5,2.5,0,0,0,1.5-2.3v-7.7a2.5,2.5,0,0,0-1.5-2.3v1.9a.8.8,0,0,1-.8.8m0,20.8a.9.9,0,0,1-.9-.9v-1.8a2.3,2.3,0,0,0-1.5,2.2v7.7a2.4,2.4,0,0,0,1.5,2.3v-2.2a.9.9,0,0,1,.9-.9.9.9,0,0,1,.8.9v2.2a2.4,2.4,0,0,0,1.5-2.3v-7.7a2.3,2.3,0,0,0-1.5-2.2v1.8a.9.9,0,0,1-.8.9m0,20.7a.9.9,0,0,1-.9-.9V200a2.3,2.3,0,0,0-1.5,2.2V210a2.4,2.4,0,0,0,1.5,2.2V210a.9.9,0,0,1,.9-.9.9.9,0,0,1,.8.9v2.2a2.4,2.4,0,0,0,1.5-2.2v-7.8A2.3,2.3,0,0,0,204,200v1.8a.9.9,0,0,1-.8.9m0,20.7a.9.9,0,0,1-.9-.8v-1.9a2.3,2.3,0,0,0-1.5,2.2v7.8a2.3,2.3,0,0,0,1.5,2.2v-2.2a.8.8,0,0,1,.9-.8.8.8,0,0,1,.8.8v2.2a2.3,2.3,0,0,0,1.5-2.2v-7.8a2.3,2.3,0,0,0-1.5-2.2v1.9a.9.9,0,0,1-.8.8m0,20.7a.9.9,0,0,1-.9-.8v-1.9a2.3,2.3,0,0,0-1.5,2.2v7.8a2.3,2.3,0,0,0,1.5,2.2v-2.2a.8.8,0,0,1,.9-.8.8.8,0,0,1,.8.8v2.2a2.3,2.3,0,0,0,1.5-2.2v-7.8a2.3,2.3,0,0,0-1.5-2.2v1.9a.9.9,0,0,1-.8.8m0,20.7a.9.9,0,0,1-.9-.8v-1.9a2.3,2.3,0,0,0-1.5,2.2v7.8a2.3,2.3,0,0,0,1.5,2.2v-2.2a.8.8,0,0,1,.9-.8.8.8,0,0,1,.8.8v2.2a2.3,2.3,0,0,0,1.5-2.2v-7.8a2.3,2.3,0,0,0-1.5-2.2V264a.9.9,0,0,1-.8.8m0,20.7a.9.9,0,0,1-.9-.8v-1.9a2.4,2.4,0,0,0-1.5,2.2v7.8a2.3,2.3,0,0,0,1.5,2.2v-2.2a.9.9,0,0,1,.9-.8.9.9,0,0,1,.8.8V295a2.3,2.3,0,0,0,1.5-2.2V285a2.4,2.4,0,0,0-1.5-2.2v1.9a.9.9,0,0,1-.8.8m0,20.7a.8.8,0,0,1-.9-.8v-1.9a2.4,2.4,0,0,0-1.5,2.3v7.7a2.3,2.3,0,0,0,1.5,2.2v-2.2a.9.9,0,0,1,.9-.8.9.9,0,0,1,.8.8v2.2a2.3,2.3,0,0,0,1.5-2.2v-7.7a2.4,2.4,0,0,0-1.5-2.3v1.9a.8.8,0,0,1-.8.8m0,20.7a.8.8,0,0,1-.9-.8v-1.9a2.4,2.4,0,0,0-1.5,2.3v7.7a2.3,2.3,0,0,0,1.5,2.2v-2.2a.9.9,0,0,1,.9-.8.9.9,0,0,1,.8.8v2.2a2.3,2.3,0,0,0,1.5-2.2v-7.7a2.4,2.4,0,0,0-1.5-2.3v1.9a.8.8,0,0,1-.8.8m0,20.8a.9.9,0,0,1-.9-.9V345a2.3,2.3,0,0,0-1.5,2.2v7.7a2.4,2.4,0,0,0,1.5,2.3V355a.9.9,0,0,1,.9-.9.9.9,0,0,1,.8.9v2.2a2.4,2.4,0,0,0,1.5-2.3v-7.7A2.3,2.3,0,0,0,204,345v1.8a.9.9,0,0,1-.8.9m0,20.7a.9.9,0,0,1-.9-.9v-1.8a2.3,2.3,0,0,0-1.5,2.2v7.8a2.4,2.4,0,0,0,1.5,2.2v-2.2a.9.9,0,0,1,.9-.9.9.9,0,0,1,.8.9v2.2a2.4,2.4,0,0,0,1.5-2.2v-7.8a2.3,2.3,0,0,0-1.5-2.2v1.8a.9.9,0,0,1-.8.9m0,20.7a.9.9,0,0,1-.9-.8v-1.9c-1.3.6-2.4,2.5-2.4,4.7s1.5,5,3.3,5,3.2-2.3,3.2-5-1.1-4.1-2.4-4.7v1.9a.9.9,0,0,1-.8.8M203.2,0a3.8,3.8,0,0,0-3.9,3.8v7.1a7,7,0,0,0-3.2,5.9v7.7a7,7,0,0,0,3.2,5.9v1.2a7.3,7.3,0,0,0-3.2,5.9v7.7a7,7,0,0,0,3.2,5.9v1.2a7.3,7.3,0,0,0-3.2,5.9V66a7.3,7.3,0,0,0,3.2,5.9V73a7.3,7.3,0,0,0-3.2,5.9v7.8a7.3,7.3,0,0,0,3.2,5.9h0a7.3,7.3,0,0,0-3.2,5.9v7.8a7.3,7.3,0,0,0,3.2,5.9v1.1a7.3,7.3,0,0,0-3.2,5.9v7.8a7.3,7.3,0,0,0,3.2,5.9v1.2a7,7,0,0,0-3.2,5.9v7.7a7.3,7.3,0,0,0,3.2,5.9v1.2a7,7,0,0,0-3.2,5.9v7.7a7,7,0,0,0,3.2,5.9v1.2a7.3,7.3,0,0,0-3.2,5.9v7.7a7,7,0,0,0,3.2,5.9v1.2a7.3,7.3,0,0,0-3.2,5.9V210a7.3,7.3,0,0,0,3.2,5.9V217a7.3,7.3,0,0,0-3.2,5.9v7.8a7.3,7.3,0,0,0,3.2,5.9v1.1a7.3,7.3,0,0,0-3.2,5.9v7.8a7.3,7.3,0,0,0,3.2,5.9v1.1a7.3,7.3,0,0,0-3.2,5.9v7.8a7.3,7.3,0,0,0,3.2,5.9v1.1a7.3,7.3,0,0,0-3.2,5.9v7.8a7.3,7.3,0,0,0,3.2,5.9v1.2a7,7,0,0,0-3.2,5.9v7.7a7.3,7.3,0,0,0,3.2,5.9v1.2a7,7,0,0,0-3.2,5.9v7.7a7,7,0,0,0,3.2,5.9v1.2a7.3,7.3,0,0,0-3.2,5.9v7.7a7,7,0,0,0,3.2,5.9V362a7.3,7.3,0,0,0-3.2,5.9v7.8a7.3,7.3,0,0,0,3.2,5.9v1.2a10,10,0,0,0-4,8.3c0,5.4,3.4,9.6,7.9,9.6s7.9-4.2,7.9-9.6a10.1,10.1,0,0,0-4.1-8.3v-1.2a7.3,7.3,0,0,0,3.2-5.9v-7.8A7.3,7.3,0,0,0,207,362v-1.2a7,7,0,0,0,3.2-5.9v-7.7a7.3,7.3,0,0,0-3.2-5.9v-1.2a7,7,0,0,0,3.2-5.9v-7.7a7,7,0,0,0-3.2-5.9v-1.2a7.3,7.3,0,0,0,3.2-5.9v-7.7a7,7,0,0,0-3.2-5.9v-1.2a7.3,7.3,0,0,0,3.2-5.9V285a7.3,7.3,0,0,0-3.2-5.9V278a7.3,7.3,0,0,0,3.2-5.9v-7.8a7.3,7.3,0,0,0-3.2-5.9v-1.1a7.3,7.3,0,0,0,3.2-5.9v-7.8a7.3,7.3,0,0,0-3.2-5.9v-1.1a7.3,7.3,0,0,0,3.2-5.9v-7.8A7.3,7.3,0,0,0,207,217v-1.1a7.3,7.3,0,0,0,3.2-5.9v-7.8a7.3,7.3,0,0,0-3.2-5.9v-1.2a7,7,0,0,0,3.2-5.9v-7.7a7.3,7.3,0,0,0-3.2-5.9v-1.2a7,7,0,0,0,3.2-5.9v-7.7a7,7,0,0,0-3.2-5.9v-1.2a7.3,7.3,0,0,0,3.2-5.9v-7.7a7,7,0,0,0-3.2-5.9V133a7.3,7.3,0,0,0,3.2-5.9v-7.8a7.3,7.3,0,0,0-3.2-5.9v-1.1a7.3,7.3,0,0,0,3.2-5.9V98.6a7.3,7.3,0,0,0-3.2-5.9h0a7.3,7.3,0,0,0,3.2-5.9V78.9A7.3,7.3,0,0,0,207,73V71.9a7.3,7.3,0,0,0,3.2-5.9V58.2a7.3,7.3,0,0,0-3.2-5.9V51.1a7,7,0,0,0,3.2-5.9V37.5a7.3,7.3,0,0,0-3.2-5.9V30.4a7,7,0,0,0,3.2-5.9V16.8a7,7,0,0,0-3.2-5.9V3.8A3.8,3.8,0,0,0,203.2,0Zm0,392.5c-.1-.1-.1-.3-.2-.4h.3a.6.6,0,0,0-.1.4Z" style="fill:#575757"/><path d="M147.6,381.4a3.1,3.1,0,0,0,.7-3,4.7,4.7,0,0,0-2.3-2.3,7.4,7.4,0,0,0-3.9-.5,6.9,6.9,0,0,0-3.6,1.5.8.8,0,0,0,0,1.1,22,22,0,0,0,4.7,4.3,3.3,3.3,0,0,0,2.1.5A4.4,4.4,0,0,0,147.6,381.4Z" style="fill:#99b04d"/><path d="M95.4,492.6a3.5,3.5,0,0,1-1.5,2.8c-6.6,3.8-9.5,2.4-10.7-5.2a3.6,3.6,0,0,1,1.1-2.9C90.6,482.9,95,484.9,95.4,492.6Z" style="fill:#b9e48e"/><path d="M91.2,493.5a3.8,3.8,0,0,1,1.9-2.4c3.3-1.5,5.3-2.1,6.5-1.4s1.5,2.7,1.7,6.3a4,4,0,0,1-1.2,2.9c-2.9,2.3-5.5,2.9-7.2,1.8S90.4,497.1,91.2,493.5Z" style="fill:#b9e48e"/><path d="M95.1,546.7a3.4,3.4,0,0,1-.2,3.1c-2.5,3.1-6,4.1-8.7,2.9s-4.5-4.2-4-8.2a3.1,3.1,0,0,1,2.1-2.3c3.7-1.1,5.6-1.9,6.9-1.3S93.3,543.3,95.1,546.7Z" style="fill:#b9e48e"/><path d="M94.6,553.2a4.2,4.2,0,0,1-1.4-2.8c-.1-7.2,2.8-8.7,8.6-4.3a5,5,0,0,1,1.4,2.8C103.2,556.1,100.4,557.6,94.6,553.2Z" style="fill:#b9e48e"/><path d="M92,474.4a4.1,4.1,0,0,1-1.1,3c-5.5,4.9-9.4,3.1-9.4-4.3a3.7,3.7,0,0,1,1.5-2.7C88.9,466.2,91.2,467.2,92,474.4Z" style="fill:#b9e48e"/><path d="M83.3,452.9a4,4,0,0,1-1.2-2.9c.3-3.6.8-5.7,2-6.3s3.2,0,6.4,1.8a3.8,3.8,0,0,1,1.8,2.5c.4,3.7-.4,6.1-2.1,7S86.1,455.3,83.3,452.9Z" style="fill:#b9e48e"/><path d="M83.4,448.1a4.6,4.6,0,0,1-1.5,2.7c-5.3,4.5-7.6,3.3-6.6-3.7a5.2,5.2,0,0,1,1.5-2.7C82.2,440,84.4,441.2,83.4,448.1Z" style="fill:#b9e48e"/><path d="M86,431.9a3.8,3.8,0,0,1-1,2.9c-5.3,5.2-8.7,4.1-10.1-3.1a4,4,0,0,1,.9-3C81.2,423.5,84.5,424.6,86,431.9Z" style="fill:#b9e48e"/><path d="M79.7,407.2a5.5,5.5,0,0,1-.3,3.1c-1.7,3.1-3.6,4.4-5.2,4s-2.7-2.4-2.8-5.9a4.8,4.8,0,0,1,1-2.9c2.3-2.6,3.7-3.9,4.7-3.7S78.8,403.8,79.7,407.2Z" style="fill:#b9e48e"/><path d="M88,410.7a4.4,4.4,0,0,1-1.7,2.7c-6.3,3.7-9.4,1.9-9.1-5.5a3.8,3.8,0,0,1,1.6-2.7C85.2,401.4,88.3,403.3,88,410.7Z" style="fill:#b9e48e"/><path d="M92.2,529.8a4.6,4.6,0,0,1-.9,3c-5.2,5.2-8.5,4.2-9.8-3a4,4,0,0,1,.9-3C87.6,521.5,90.8,522.6,92.2,529.8Z" style="fill:#b9e48e"/><path d="M104.5,590.9a3.5,3.5,0,0,1-2.6,1.6c-7.4.5-9.4-3-5.1-9.1a4,4,0,0,1,2.7-1.4C106.9,582.1,108.3,584.6,104.5,590.9Z" style="fill:#b9e48e"/><path d="M96.6,576.4c-4.3-3-7.2,3.2-6.1,7.8a.7.7,0,0,0,.9.5C96.3,583.4,100.5,579.1,96.6,576.4Z" style="fill:#b9e48e"/><path d="M90.9,521a3.5,3.5,0,0,0-1.3,2.7,3.6,3.6,0,0,0,.9,2.4,9.2,9.2,0,0,0,2.4,1.9,13,13,0,0,0,3.2,1.4.8.8,0,0,0,1-.6,9.3,9.3,0,0,0-1.3-7.2,3.8,3.8,0,0,0-2.3-1.6A2.7,2.7,0,0,0,90.9,521Z" style="fill:#b9e48e"/><path d="M94.3,507.8a2.7,2.7,0,0,0-1.3,2.3,3.3,3.3,0,0,0,1.1,2.3,6.6,6.6,0,0,0,2.8,1.6,5.9,5.9,0,0,0,3.2.2.7.7,0,0,0,.5-.9,13.2,13.2,0,0,0-2.3-5.2A2.6,2.6,0,0,0,94.3,507.8Z" style="fill:#b9e48e"/><path d="M100.4,600a2.6,2.6,0,0,0-2.6,1.3,4,4,0,0,0-.2,3.1,7.1,7.1,0,0,0,2.2,3,6.1,6.1,0,0,0,3.3,1.4.8.8,0,0,0,.7-.8,32.4,32.4,0,0,0-.1-5.6,2.6,2.6,0,0,0-.9-1.7A4,4,0,0,0,100.4,600Z" style="fill:#b9e48e"/><path d="M80.8,394.8a4,4,0,0,0,.2,2,2.9,2.9,0,0,0,1.1,1.1l1.7.5,2.3.4a.7.7,0,0,0,.6-.5,6.3,6.3,0,0,0-.6-2.7,4.8,4.8,0,0,0-2-2,2.7,2.7,0,0,0-2.1-.3A1.9,1.9,0,0,0,80.8,394.8Z" style="fill:#b9e48e"/><path d="M100,603.4h-.3a.7.7,0,0,1-.5-1c1.7-6.1.5-12.3-.8-18.9-1-4.8-1.9-9.8-1.6-14.8a16.3,16.3,0,0,1,.3-3.1,22.9,22.9,0,0,0,.1-6.4,25.3,25.3,0,0,0-2.7-7.2L93,548.9c-4-9.3-3-19.9-1.6-28,.3-2.2.7-4.3,1.1-6.4,1.2-6.9,2.5-14.1,2.2-21.2s-2.3-13.7-4.2-20.2L89,467.4c-2.5-9.6-4.2-19.6-5.9-29.3l-3.6-21.4c-1.5-8.8-2.5-17.3,1.4-24.4s10.2-9.3,17.7-8.2a.7.7,0,0,1,.6.9.7.7,0,0,1-.9.7c-6.8-1-12.9,1.8-15.9,7.4s-2.7,14.8-1.2,23.4l3.6,21.4c1.6,9.6,3.3,19.5,5.8,29.1l1.5,5.6c1.9,6.7,3.9,13.6,4.2,20.6s-.9,14.6-2.2,21.6c-.4,2.1-.8,4.2-1.1,6.3-1.3,8-2.3,18.3,1.5,27.1l1.5,3.1a26,26,0,0,1,2.9,7.6,26.5,26.5,0,0,1-.2,6.9l-.3,3c-.3,4.8.7,9.7,1.6,14.4,1.3,6.5,2.6,13.1.8,19.6A.8.8,0,0,1,100,603.4Z" style="fill:#b9e48e"/><path d="M192.2,403.1a12.1,12.1,0,0,0-4-4.1,3.2,3.2,0,0,0-.4-3,13.2,13.2,0,0,0-3.2-3.1h.1a14.4,14.4,0,0,0,.6-3.8,20.9,20.9,0,0,0-.4-4.3,1,1,0,0,0-1.2-.8,13.9,13.9,0,0,0-2.8,1.2,10.9,10.9,0,0,0-4.2-5.3.9.9,0,0,0-1.2.4,11.9,11.9,0,0,0-1.6,3.9c-3.2-2.5-5.6-2.9-7.2-1.4a3.2,3.2,0,0,0-.8-.9,3.9,3.9,0,0,0,.7-2.3,8.9,8.9,0,0,0-.6-3,14.8,14.8,0,0,0-1.4-3.2.8.8,0,0,0-1.1-.3,9.7,9.7,0,0,0-2.8,2.9,9.5,9.5,0,0,0-1.1,2.9c-.4.2-.4.7-.2,1.5a3.1,3.1,0,0,0-3-1,17.1,17.1,0,0,0-4.9,2.7,9.8,9.8,0,0,0,.2-3.4.9.9,0,0,0-1.1-.7,15.2,15.2,0,0,0-4.4,1.5c.3-2.3-1.4-5.3-3.8-6.9a.7.7,0,0,0-1,.3c-1.5,2.5-2.2,5.7-1.4,7.5l-.4.4-.5-.2a9.1,9.1,0,0,0-4.9-.4,6,6,0,0,0-1.9.6,7.6,7.6,0,0,0-1.6-.6,5.1,5.1,0,0,0-.2-1.3c-.8-2.9-3.7-5.1-7.8-5.2a3.3,3.3,0,0,0-2.6,1.8c-1.2,3.1-2.2,4.9-2.1,6.3l-2.1.7a6.1,6.1,0,0,0-2-3.5c-1.9-1.7-5.1-2-8.9-.6a3,3,0,0,0-1.7,2.6,21.7,21.7,0,0,0,.3,3.8,61.1,61.1,0,0,0-9.6,0,1.8,1.8,0,0,0-1.8,2.5,17.4,17.4,0,0,0,2,4.1H94a9.8,9.8,0,0,0-3.2,3.5,9,9,0,0,0-1.3,4.7.9.9,0,0,0,1,1c3.3-.1,6.4-.6,8.4-1.7a4.5,4.5,0,0,0,2.1-2l2.3.8a15.1,15.1,0,0,0,7,.2.1.1,0,0,1-.1.1,2.9,2.9,0,0,0,0,3.1,10.2,10.2,0,0,0,5.3,3,8.1,8.1,0,0,0,5.3-1l.9-.6a14.6,14.6,0,0,0,1.6,4.4,1,1,0,0,0,1.4.3,13.8,13.8,0,0,0,4-3.6h0c5.2,2.7,8.5,2.2,10.1-1.5a20.6,20.6,0,0,0,3.4-.2,1.5,1.5,0,0,0,.1.7c.4,1.2,2.2,1.9,5.7,3.1a4.2,4.2,0,0,0,3.1-.3,8.8,8.8,0,0,0,3.5-4.5l1.3-.4c-.8,2.2-1.1,3.6-.7,4.4s.2.3.4.4a5,5,0,0,0-.1,3.8.4.4,0,0,0,.6.2,5.6,5.6,0,0,0,3.2-2.8l2,.3a3.6,3.6,0,0,0,3-.9,13.3,13.3,0,0,0,1.9-2.4,11.5,11.5,0,0,0,2.9,1.6,14.2,14.2,0,0,0,4.7,1.3,1.1,1.1,0,0,0,1-.7,13.1,13.1,0,0,0,3.7,2.4,1,1,0,0,0,1.3-.6,11.8,11.8,0,0,0,.8-3.1,8.1,8.1,0,0,0,2.2,0c2,1.7,6.3,1.5,9.2-.2A.8.8,0,0,0,192.2,403.1Z" style="fill:#b9e48e"/><path d="M209.8,468.1a3.7,3.7,0,0,1,1.5-2.7c6.6-3.8,9.6-2.4,10.8,5.1a3.6,3.6,0,0,1-1.2,2.9C214.7,477.9,210.3,475.8,209.8,468.1Z" style="fill:#b9e48e"/><path d="M214.1,467.2a4,4,0,0,1-2,2.4c-3.3,1.5-5.3,2.2-6.4,1.4s-1.5-2.7-1.7-6.3a4,4,0,0,1,1.2-2.9c2.8-2.3,5.5-2.8,7.1-1.8S214.8,463.6,214.1,467.2Z" style="fill:#b9e48e"/><path d="M209.6,410.1a3.1,3.1,0,0,1,.1-3.1c2.5-3.2,6.1-4.1,8.7-3s4.5,4.3,4,8.3a3.2,3.2,0,0,1-2.1,2.3c-3.6,1.1-5.5,1.9-6.9,1.3S211.3,413.5,209.6,410.1Z" style="fill:#b9e48e"/><path d="M210,403.6a4,4,0,0,1,1.4,2.7c.1,7.3-2.7,8.7-8.5,4.3a4,4,0,0,1-1.4-2.7C201.4,400.6,204.3,399.2,210,403.6Z" style="fill:#b9e48e"/><path d="M206.9,484.6a3.9,3.9,0,0,1,1.1-2.9c5.5-4.9,9.4-3.2,9.4,4.2a4.6,4.6,0,0,1-1.5,2.8C209.9,492.9,207.7,491.8,206.9,484.6Z" style="fill:#b9e48e"/><path d="M215.6,506.1a4.5,4.5,0,0,1,1.2,2.9c-.3,3.6-.8,5.7-2,6.4s-3.3-.1-6.4-1.8a4.3,4.3,0,0,1-1.8-2.6c-.5-3.7.4-6.1,2-7S212.8,503.7,215.6,506.1Z" style="fill:#b9e48e"/><path d="M215.4,510.9a5.6,5.6,0,0,1,1.5-2.7c5.4-4.5,7.6-3.2,6.7,3.7a5.6,5.6,0,0,1-1.5,2.7C216.7,519.1,214.5,517.8,215.4,510.9Z" style="fill:#b9e48e"/><path d="M212.9,527.2a4,4,0,0,1,.9-3c5.4-5.2,8.7-4.1,10.1,3.2a3.5,3.5,0,0,1-.9,2.9C217.7,535.5,214.3,534.4,212.9,527.2Z" style="fill:#b9e48e"/><path d="M219.2,551.9a4.6,4.6,0,0,1,.3-3.1c1.7-3.1,3.6-4.5,5.2-4.1s2.7,2.4,2.8,5.9a4.9,4.9,0,0,1-1.1,2.9c-2.3,2.7-3.6,4-4.7,3.7S220.1,555.2,219.2,551.9Z" style="fill:#b9e48e"/><path d="M210.9,548.4a3.5,3.5,0,0,1,1.6-2.7c6.4-3.8,9.5-1.9,9.2,5.5a3.9,3.9,0,0,1-1.7,2.6C213.6,557.6,210.6,555.8,210.9,548.4Z" style="fill:#b9e48e"/><path d="M217,428a3.7,3.7,0,0,1,.9-3c5.1-5.2,8.4-4.2,9.7,3a3.6,3.6,0,0,1-.9,3C221.6,436.2,218.3,435.2,217,428Z" style="fill:#b9e48e"/><path d="M218.2,436.8a3.8,3.8,0,0,0,1.4-2.7,3.7,3.7,0,0,0-1-2.4,7.8,7.8,0,0,0-2.4-1.9,13,13,0,0,0-3.2-1.4.9.9,0,0,0-1,.6,9.8,9.8,0,0,0,1.4,7.2,3.3,3.3,0,0,0,2.3,1.6A3,3,0,0,0,218.2,436.8Z" style="fill:#b9e48e"/><path d="M219.3,453.5a2.8,2.8,0,0,0,1.4-2.3,3.7,3.7,0,0,0-1.2-2.4,6.4,6.4,0,0,0-2.8-1.6,5.8,5.8,0,0,0-3.2-.1c-.4,0-.6.4-.5.8a12.6,12.6,0,0,0,2.3,5.2C216.3,454.3,217.6,454.7,219.3,453.5Z" style="fill:#b9e48e"/><path d="M218,564.2a2.6,2.6,0,0,0-.2-2,1.8,1.8,0,0,0-1.1-1,5.6,5.6,0,0,0-1.7-.6l-2.2-.4a.6.6,0,0,0-.6.5,4.3,4.3,0,0,0,.6,2.7,5.3,5.3,0,0,0,1.9,2,3.1,3.1,0,0,0,2.2.4A1.8,1.8,0,0,0,218,564.2Z" style="fill:#b9e48e"/><path d="M216.2,568a.9.9,0,0,1-.8-.9,83.9,83.9,0,0,1,6.1-31.8h0a11.2,11.2,0,0,0,0-9.8h0c-1.5-3.6-4.2-6.3-7.1-9.1a47.8,47.8,0,0,1-3.9-3.9c-6.7-8.8-7.9-20.8-3.4-33,1.9-4.4,4-8.9,6.1-13.3s4.1-8.8,6-13.3c3.3-8-.2-15-3.9-22.4a76.5,76.5,0,0,1-4.4-10.2c-3.7-10.4.8-20.8,4.5-27.7,0-.1,0-.1.1-.1a13.4,13.4,0,0,1,7.4-4.8.8.8,0,0,1,1,.6.9.9,0,0,1-.6,1,12.4,12.4,0,0,0-6.5,4.1c-3.8,7.2-7.7,16.7-4.3,26.4a67,67,0,0,0,4.3,10c3.7,7.4,7.6,15,4,23.8l-6.1,13.3c-2.1,4.4-4.2,8.9-6.1,13.3-4.3,11.6-3.1,23,3.2,31.2l3.7,3.8c2.9,2.8,5.9,5.7,7.5,9.7a12.9,12.9,0,0,1,0,11.2,83.6,83.6,0,0,0-5.9,31.1.9.9,0,0,1-.9.9Z" style="fill:#b9e48e"/><path d="M169.1,525.6a.8.8,0,0,1-.8-.7,35.4,35.4,0,0,1,4.5-22.3c1-1.8,2.2-3.4,3.3-5a51.6,51.6,0,0,0,4-6.3,26.2,26.2,0,0,0,0-23.3,61.3,61.3,0,0,0-4.8-7.3,50.8,50.8,0,0,1-4.2-6.1c-7.3-12.5-5.6-27.8-2.9-43.6.5-3.2,1.2-7.6,4.1-10.4a8,8,0,0,1,6.8-2,5.4,5.4,0,0,1,3.9,2.9.8.8,0,0,1-.4,1.1.8.8,0,0,1-1.1-.4,3.6,3.6,0,0,0-2.8-1.9,5.8,5.8,0,0,0-5.2,1.5c-2.3,2.2-3.1,5.6-3.7,9.5-2.6,15.5-4.3,30.4,2.7,42.5,1.2,2,2.7,4,4.1,5.9a46,46,0,0,1,4.9,7.5,27.4,27.4,0,0,1,.1,24.8,49.3,49.3,0,0,1-4.2,6.6c-1,1.5-2.2,3.1-3.2,4.8a34.2,34.2,0,0,0-4.3,21.2.8.8,0,0,1-.7,1Z" style="fill:#b9e48e"/><path d="M176,467.2a3.8,3.8,0,0,1-.3-3.1c1.3-3.5,2.4-5.4,3.9-5.8s3.5.7,6.3,3.1a4,4,0,0,1,1.2,2.9c-.6,3.7-2.2,6-4.2,6.5S178.3,470.2,176,467.2Z" style="fill:#b9e48e"/><path d="M164.3,440.8a3.7,3.7,0,0,1-.4-3.1c3.2-6.9,7-7.3,11.6-1.3a3.4,3.4,0,0,1,.4,3.1C172.8,446.4,168.9,446.8,164.3,440.8Z" style="fill:#b9e48e"/><path d="M180.8,504.4a4.4,4.4,0,0,1-3.2-.1c-3.2-1.4-5-1.6-5.2-2.4s1-2,2.9-5a4.7,4.7,0,0,1,2.5-1.9c3.6-.5,6.3.9,6.9,3S184.1,502.8,180.8,504.4Z" style="fill:#b9e48e"/><path d="M170.4,462.1a4.1,4.1,0,0,0,.8,3.3,4.3,4.3,0,0,0,2.5,1.3,9.8,9.8,0,0,0,3.4-.1,13,13,0,0,0,3.7-1.1.8.8,0,0,0,.4-1.1,10.2,10.2,0,0,0-6.3-5.3,4.6,4.6,0,0,0-3.1.3A3.3,3.3,0,0,0,170.4,462.1Z" style="fill:#b9e48e"/><path d="M163.1,427.3c-3.8,3.6,1.6,7.6,6.2,7.5a.7.7,0,0,0,.7-.8C169.7,429.1,166.5,424.1,163.1,427.3Z" style="fill:#b9e48e"/><path d="M175.5,419a2.7,2.7,0,0,0-.4-1.6,2.3,2.3,0,0,0-1.1-1.1,4.3,4.3,0,0,0-3.5.2,7.2,7.2,0,0,0-3.1,2.9,5.5,5.5,0,0,0-.6,3.9.8.8,0,0,0,1,.5l3.2-.6a7.8,7.8,0,0,0,2.4-.5,2.7,2.7,0,0,0,1.5-1.1A5.2,5.2,0,0,0,175.5,419Z" style="fill:#b9e48e"/><path d="M161.8,421.2a3.3,3.3,0,0,0,.2,1.8,2.2,2.2,0,0,0,1,.9l1.6.4,2,.2a.5.5,0,0,0,.5-.5,4.6,4.6,0,0,0-2.4-3.9,2.4,2.4,0,0,0-1.8-.2C162.3,420,162,420.5,161.8,421.2Z" style="fill:#b9e48e"/><path d="M181.5,490.8a1.8,1.8,0,0,0,.7-2.9,4.2,4.2,0,0,0-3.3-1.9.5.5,0,0,0-.5.4,7.7,7.7,0,0,0,.7,3.6A1.7,1.7,0,0,0,181.5,490.8Z" style="fill:#b9e48e"/><path d="M168.8,521a4.9,4.9,0,0,0-2,2.8,3.9,3.9,0,0,0,.4,2.6,9.4,9.4,0,0,0,2,2.7,24.9,24.9,0,0,0,2.9,2.5,1,1,0,0,0,1.2-.3,8.7,8.7,0,0,0,1.4-4.2,9.5,9.5,0,0,0-.6-4.2,4.1,4.1,0,0,0-2.2-2.4A3.3,3.3,0,0,0,168.8,521Z" style="fill:#b9e48e"/><path d="M171,509.7c-1.8-4-6.3-1.3-7.9,2.3l-.6.9.6.7a.8.8,0,0,0,1-.1l.4-.5-.5.9C168.1,514.7,172.7,513.3,171,509.7Z" style="fill:#b9e48e"/><path d="M181.3,474.4a3.4,3.4,0,0,0-.3,2.7,2.7,2.7,0,0,0,1.5,1.8,9.8,9.8,0,0,0,5.8,1.2.8.8,0,0,0,.7-.8,8.5,8.5,0,0,0-3.3-5.8C184.1,472.4,182.3,472.4,181.3,474.4Z" style="fill:#b9e48e"/><path d="M37.2,466.4H37a1,1,0,0,1-.6-1c2.8-11-3.4-19.9-9.4-28.4-1.4-2-2.9-4.1-4.1-6.1-.1,0-.1-.1-.1-.2-4.6-14.2-2.7-29.1-.1-43a12.3,12.3,0,0,1,6.2-8.4.8.8,0,0,1,1.1.2,1,1,0,0,1-.3,1.2,10.9,10.9,0,0,0-5.3,7.3c-2.7,13.7-4.5,28.3-.1,42.1l4,5.9c6.2,8.9,12.6,18,9.7,29.8A.9.9,0,0,1,37.2,466.4Z" style="fill:#b9e48e"/><path d="M30.3,447.3a3.7,3.7,0,0,1-.4-3.1c1.3-3.5,2.5-5.3,4-5.7s3.4.7,6.3,3a3.6,3.6,0,0,1,1.1,2.9c-.5,3.8-2.1,6-4.2,6.5S32.6,450.3,30.3,447.3Z" style="fill:#b9e48e"/><path d="M18.5,421a3.8,3.8,0,0,1-.3-3.1c3.1-7,7-7.4,11.6-1.4a3.8,3.8,0,0,1,.3,3.1C27,426.5,23.1,427,18.5,421Z" style="fill:#b9e48e"/><path d="M24.6,442.3a4.4,4.4,0,0,0,.8,3.2,3.6,3.6,0,0,0,2.5,1.3,10.3,10.3,0,0,0,3.5,0,17.3,17.3,0,0,0,3.7-1.1.9.9,0,0,0,.4-1.2,10.3,10.3,0,0,0-6.3-5.2,4,4,0,0,0-3.1.3A3,3,0,0,0,24.6,442.3Z" style="fill:#b9e48e"/><path d="M17.4,407.5c-3.8,3.5,1.6,7.6,6.2,7.5a.9.9,0,0,0,.7-.9C24,409.2,20.8,404.3,17.4,407.5Z" style="fill:#b9e48e"/><path d="M29.7,399.2a4.3,4.3,0,0,0-.3-1.7,3.5,3.5,0,0,0-1.1-1,4.2,4.2,0,0,0-3.6.2,6.7,6.7,0,0,0-3.1,2.9,5.8,5.8,0,0,0-.5,3.8.7.7,0,0,0,.9.6l3.3-.7,2.3-.4a2.4,2.4,0,0,0,1.5-1.1A3.9,3.9,0,0,0,29.7,399.2Z" style="fill:#b9e48e"/><path d="M16.1,401.3a2.1,2.1,0,0,0,.2,1.8,1.8,1.8,0,0,0,1,.9l1.5.4,2,.2a.5.5,0,0,0,.5-.4,3.9,3.9,0,0,0-.7-2.3,4.6,4.6,0,0,0-1.7-1.7,2.3,2.3,0,0,0-1.8-.2A1.6,1.6,0,0,0,16.1,401.3Z" style="fill:#b9e48e"/><path d="M39.4,462.8a3.8,3.8,0,0,0-2.7-.3,3.5,3.5,0,0,0-1.8,1.6,11.2,11.2,0,0,0-1,5.9c.1.4.4.7.8.6a8.3,8.3,0,0,0,5.7-3.4C41.5,465.5,41.4,463.7,39.4,462.8Z" style="fill:#b9e48e"/><path d="M65.6,376.4a2.9,2.9,0,0,1,2.3,2.1c1,8.3-3.3,12.3-11.5,10.8a2.6,2.6,0,0,1-2-2.3C54,378.7,57.4,375.5,65.6,376.4Z" style="fill:#b9e48e"/><path d="M74.4,379.7a5.6,5.6,0,0,1-2.2,2.1c-3.3,1.3-5.9.7-6.7-.9s.1-4,3-6a5.3,5.3,0,0,1,3-.7c3.4.3,5.1.1,5.4.7S76.1,376.7,74.4,379.7Z" style="fill:#b9e48e"/><path d="M215.1,391.5a4.2,4.2,0,0,1,0,3.1c-3.2,6.5-5.3,6.6-9.4.7a4.2,4.2,0,0,1-.5-3.1C207.4,385.2,211.9,384.9,215.1,391.5Z" style="fill:#b9e48e"/><path d="M36.7,380.5a4.2,4.2,0,0,1-1.2,3c-2.8,2.3-5.3,3-7.1,2s-2.6-3.3-2.2-7a4,4,0,0,1,1.8-2.6c3.2-1.7,5.2-2.4,6.5-1.7S36.3,376.9,36.7,380.5Z" style="fill:#b9e48e"/><path d="M36.8,382.6a5,5,0,0,1-1.7-2.6c-1.3-7,1.4-8.6,6.8-4.1a5.1,5.1,0,0,1,1.5,2.8C44.2,385.6,42.4,386.7,36.8,382.6Z" style="fill:#b9e48e"/><path d="M61.8,378.3a4.8,4.8,0,0,1-1.7,2.6c-5.9,4-8.3,2.4-7-4.5a4.3,4.3,0,0,1,1.7-2.6C60.7,369.8,63,371.4,61.8,378.3Z" style="fill:#b9e48e"/><path d="M68.4,381.1c-3.2,4.2,2.9,7.3,7.5,6.4a.8.8,0,0,0,.5-1C75.3,381.7,71.2,377.3,68.4,381.1Z" style="fill:#b9e48e"/><path d="M27.8,380c-1.3-4-6.1-1.3-7.5,2.1a.6.6,0,0,0,.4.8C24.4,384.3,29.1,383.5,27.8,380Z" style="fill:#b9e48e"/><path d="M37.6,376.9c2.3-.5,2.9-2.3,2.2-4.3a7.4,7.4,0,0,0-4.5-4.5.6.6,0,0,0-.9.4,11.4,11.4,0,0,0-.5,6.2C34.3,376.4,35.4,377.4,37.6,376.9Z" style="fill:#b9e48e"/><path d="M221.1,390.3a3,3,0,0,0,2.7-.7,3.5,3.5,0,0,0,1-2.7,7.4,7.4,0,0,0-1-3.4,7.2,7.2,0,0,0-2.4-2.5.8.8,0,0,0-1,.3,18.3,18.3,0,0,0-2.1,5.7,2.9,2.9,0,0,0,2.8,3.3Z" style="fill:#b9e48e"/><path d="M223.3,389.3c-1.8-1.7-3.7-1.1-4.9.5a7.6,7.6,0,0,0-1.3,6.4.7.7,0,0,0,.9.5,12.2,12.2,0,0,0,5.4-3.1A2.8,2.8,0,0,0,223.3,389.3Z" style="fill:#b9e48e"/><path d="M133.2,389.1c-.4-2.1-2.1-2.7-3.9-2.1a6.9,6.9,0,0,0-4.1,4.1.5.5,0,0,0,.4.8,10.8,10.8,0,0,0,5.5.5A2.5,2.5,0,0,0,133.2,389.1Z" style="fill:#99b04d"/><path d="M145.8,390.4a2.2,2.2,0,0,0-3.4.1,6.5,6.5,0,0,0-1.6,4.1.6.6,0,0,0,.5.6,7.5,7.5,0,0,0,4.4-1.6C146.7,392.6,147,391.5,145.8,390.4Z" style="fill:#99b04d"/><path d="M133.1,390.8a2.9,2.9,0,0,0,1.4-4.2,8.8,8.8,0,0,0-4.3-3.7.8.8,0,0,0-.9.4,8.8,8.8,0,0,0,0,6C130,390.9,131.4,391.7,133.1,390.8Z" style="fill:#99b04d"/><path d="M171,388.3c-1.4-2.4-3.5-2.4-5.3-1.1a8.7,8.7,0,0,0-3.5,6.1.7.7,0,0,0,.7.8,12.8,12.8,0,0,0,6.8-1.2C171.4,391.9,172.2,390.4,171,388.3Z" style="fill:#99b04d"/><path d="M179.2,395.5c-1.6,0-2.3.9-2.3,2a6.4,6.4,0,0,0,1.1,3.8c.1.2.4.2.6.1a5.9,5.9,0,0,0,2.4-3.7C181.1,396.5,180.6,395.5,179.2,395.5Z" style="fill:#99b04d"/><path d="M64.5,382.1c.9,1.9,2.5,2,4,1.1a6.5,6.5,0,0,0,2.9-4.6.7.7,0,0,0-.6-.7,10.4,10.4,0,0,0-5.2.8A2.4,2.4,0,0,0,64.5,382.1Z" style="fill:#99b04d"/><path d="M32,378.4c1.2-3.3-3.3-4.1-6-2.6-.3.1-.3.4-.2.7C27.5,379.4,30.9,381.4,32,378.4Z" style="fill:#99b04d"/><path d="M222.4,389.6a2.6,2.6,0,0,0,4-.5,8,8,0,0,0,1.4-5,.6.6,0,0,0-.6-.6,8.4,8.4,0,0,0-5.1,2.3C221,387.1,220.8,388.6,222.4,389.6Z" style="fill:#99b04d"/><path d="M155.6,399.2c-4.2-5.2-9.8,1.4-10.1,7.2a1,1,0,0,0,1,1C152.8,407.4,159.3,403.8,155.6,399.2Z" style="fill:#99b04d"/><path d="M142,372.4h.4a8.2,8.2,0,0,1,3,3.4l.6.2a4.7,4.7,0,0,1,2.3,2.3h0l2.3-.6h.2a1,1,0,0,1,.9.7,9.8,9.8,0,0,1-.2,3.4,17.1,17.1,0,0,1,4.9-2.7h.7a2.8,2.8,0,0,1,2.3,1.1c-.2-.8-.2-1.3.2-1.5a9.5,9.5,0,0,1,1.1-2.9,9.7,9.7,0,0,1,2.8-2.9h.4a.7.7,0,0,1,.7.4,14.8,14.8,0,0,1,1.4,3.2,8.9,8.9,0,0,1,.6,3,3.9,3.9,0,0,1-.7,2.3,3.2,3.2,0,0,1,.8.9,3.1,3.1,0,0,1,2.2-.9c1.4,0,3,.8,5,2.3a11.9,11.9,0,0,1,1.6-3.9.8.8,0,0,1,.7-.5h.5a10.9,10.9,0,0,1,4.2,5.3,13.9,13.9,0,0,1,2.8-1.2h.3a.9.9,0,0,1,.9.8,20.9,20.9,0,0,1,.4,4.3,14.4,14.4,0,0,1-.6,3.8h-.1a13.2,13.2,0,0,1,3.2,3.1,3.2,3.2,0,0,1,.4,3,12.1,12.1,0,0,1,4,4.1.8.8,0,0,1-.2,1.2,10.4,10.4,0,0,1-5.2,1.4,6.3,6.3,0,0,1-4-1.2h-2.2a11.8,11.8,0,0,1-.8,3.1,1.1,1.1,0,0,1-.9.7h-.4a13.1,13.1,0,0,1-3.7-2.4,1,1,0,0,1-.9.7h-.1a12.7,12.7,0,0,1-2.8-.6,39.2,39.2,0,0,0-1.2,5.4c-.4,2.1-.7,4.2-1,6.4a6.6,6.6,0,0,1,1.7-1.2,5.4,5.4,0,0,1,2.1-.5,3.2,3.2,0,0,1,1.4.3,2.3,2.3,0,0,1,1.1,1.1,2.7,2.7,0,0,1,.4,1.6,5.2,5.2,0,0,1-.6,2.6,2.7,2.7,0,0,1-1.5,1.1,7.8,7.8,0,0,1-2.4.5l-2.9.6c-.2,1.3-.3,2.5-.4,3.8a10.3,10.3,0,0,1,2.1,4.6q2.7.2,5.7,4.2a3.4,3.4,0,0,1,.4,3.1c-1.7,3.7-3.6,5.5-5.6,5.5l-1.4-.2a34.6,34.6,0,0,0,3.6,9c1.2,2,2.7,4,4.1,5.9h0l.9.5a3.6,3.6,0,0,1,2.1-2h.7c1.4,0,3.2,1,5.6,3.1a4,4,0,0,1,1.2,2.9c-.5,3.6-2.1,5.9-4.1,6.5a11.7,11.7,0,0,1,.6,2h0a3.5,3.5,0,0,1,2.1.7,8.5,8.5,0,0,1,3.3,5.8.8.8,0,0,1-.7.8h-.8a9.9,9.9,0,0,1-3-.4,27,27,0,0,1-4.6,15.2c2.5.2,4.3,1.4,4.8,3.1s-.6,4.8-3.9,6.4l-1.4.2a5.2,5.2,0,0,1-1.8-.3l-3.2-1.2-.2.3a42.3,42.3,0,0,0-3,6.9,2.2,2.2,0,0,1-.7,2.6,28.4,28.4,0,0,0-.8,7.7,2.7,2.7,0,0,1,1.2-.3l1,.2a4.1,4.1,0,0,1,2.2,2.4,9.5,9.5,0,0,1,.6,4.2,8.7,8.7,0,0,1-1.4,4.2.9.9,0,0,1-.7.4h-.5a24.9,24.9,0,0,1-2.9-2.5,9.4,9.4,0,0,1-2-2.7,3.9,3.9,0,0,1-.4-2.6,4.5,4.5,0,0,1,1.2-2.1,35.1,35.1,0,0,1,.6-7.9,8.5,8.5,0,0,1-2.3.3l-2.3-.2.5-.9-.4.5-.5.3-.5-.2-.6-.7.6-.9c1-2.3,3.3-4.3,5.2-4.3a2.4,2.4,0,0,1,1.8.7,30.6,30.6,0,0,1,2.7-5.8c0-.1.1-.1.1-.2a1.2,1.2,0,0,1-.5-.5c-.3-.8,1-2,2.9-5a4.7,4.7,0,0,1,2.5-1.9h.1a27.7,27.7,0,0,0,2.2-3.7l.2-.3a1.9,1.9,0,0,1-1.2-1,7.7,7.7,0,0,1-.7-3.6.5.5,0,0,1,.5-.4h0a3.9,3.9,0,0,1,2.8,1.3,25.4,25.4,0,0,0,1.1-8.2l-.3-.2a2.7,2.7,0,0,1-1.5-1.8,3.4,3.4,0,0,1,.3-2.7,2.7,2.7,0,0,1,.8-1,18.3,18.3,0,0,0-.8-2.5c-1.7-.3-3.5-1.5-5.3-3.7a.8.8,0,0,0-.2-.4h-2.1a4.3,4.3,0,0,1-2.5-1.3,4.1,4.1,0,0,1-.8-3.3,3.3,3.3,0,0,1,1.4-2.7,3.4,3.4,0,0,1,1.8-.4h.4a41.7,41.7,0,0,1-2.9-4.4,34.3,34.3,0,0,1-4.2-11,18.1,18.1,0,0,1-2.6-2.8,3.7,3.7,0,0,1-.4-3.1,20.4,20.4,0,0,1,2-3.4h0c-3.3-1.3-5.6-4.2-2.8-6.9a3.3,3.3,0,0,1,2.2-1l.9.2c0-.7.1-1.4.1-2l-1.7-.2-1.6-.4a2.2,2.2,0,0,1-1-.9,3.3,3.3,0,0,1-.2-1.8c.2-.7.5-1.2,1.1-1.3h.5l1.3.3a5.1,5.1,0,0,1,1.7,1.6.8.8,0,0,0,.2.4c.4-3.7.9-7.4,1.6-11.1a25,25,0,0,1,1.3-5.6l-.4-.2a11.5,11.5,0,0,1-2.9-1.6,13.3,13.3,0,0,1-1.9,2.4,3.7,3.7,0,0,1-2.5.9h-.5l-2-.3a5.6,5.6,0,0,1-3.2,2.8h-.2c-.2,0-.3-.1-.4-.3a5,5,0,0,1,.1-3.8c-.2-.1-.3-.3-.4-.4a.4.4,0,0,0-.1-.3c-1.8,1.7-5.2,2.7-8.5,2.7h-.1a1,1,0,0,1-1-1,6.8,6.8,0,0,1,.2-1.4c-2-.8-3.1-1.4-3.4-2.3a1.5,1.5,0,0,1-.1-.7l-2.5.2h-.9a4.7,4.7,0,0,1-4.5,3.2,13.4,13.4,0,0,1-5.6-1.7h0a13.8,13.8,0,0,1-4,3.6l-.5.2a1.1,1.1,0,0,1-.9-.5,14.6,14.6,0,0,1-1.6-4.4l-.9.6a7.7,7.7,0,0,1-4,1.1h-1.3a10.2,10.2,0,0,1-5.3-3,2.9,2.9,0,0,1,0-3.1.1.1,0,0,0,.1-.1,15.5,15.5,0,0,1-3.1.3,17.4,17.4,0,0,1-3.9-.5l-2.3-.8a4.5,4.5,0,0,1-2.1,2c-2,1.1-5.1,1.6-8.4,1.7h0a1,1,0,0,1-1-1,9,9,0,0,1,1.3-4.7,9.8,9.8,0,0,1,3.2-3.5h.2a17.4,17.4,0,0,1-2-4.1,1.5,1.5,0,0,1,0-1.3,14.2,14.2,0,0,0-9.8,7.2h.2a2.8,2.8,0,0,1,1.5.4,4.8,4.8,0,0,1,2,2,6.3,6.3,0,0,1,.6,2.7.6.6,0,0,1-.6.5h0l-2.3-.4-1.7-.5a2.9,2.9,0,0,1-1.1-1.1.4.4,0,0,0-.1-.3,24.4,24.4,0,0,0-1,8.1,9,9,0,0,1,4.2-1.3c2.8,0,4.1,2.5,3.9,7.4a4.4,4.4,0,0,1-1.7,2.7,11.4,11.4,0,0,1-5.3,1.8h0a6.9,6.9,0,0,0,.2,1.3l1.5,9.3c1.5.7,2.6,2.7,3.3,6.1a3.8,3.8,0,0,1-1,2.9,3.4,3.4,0,0,1-.6.6l.4,2.5.9,5.6a12.5,12.5,0,0,1,4.8,2,3.8,3.8,0,0,1,1.8,2.5c.4,3.7-.4,6.1-2.1,7a2.7,2.7,0,0,1-1.6.4h-.7q1.2,6,2.7,11.7l1.5,5.6A111.2,111.2,0,0,1,96,489.9a9.3,9.3,0,0,1,2.4-.5,2.4,2.4,0,0,1,1.2.3c1.1.7,1.5,2.7,1.7,6.3a4,4,0,0,1-1.2,2.9,10.1,10.1,0,0,1-4,2.2c-.1,2-.4,4.1-.7,6.1l.8-.2a3.1,3.1,0,0,1,2.1,1.1,13.2,13.2,0,0,1,2.3,5.2.7.7,0,0,1-.5.9H98.9a6.9,6.9,0,0,1-2-.3,5.1,5.1,0,0,1-2.4-1.3,15.5,15.5,0,0,0-.4,2.1l-.9,5.2h.3a3.8,3.8,0,0,1,2.3,1.6,9.3,9.3,0,0,1,1.3,7.2.8.8,0,0,1-.8.6h-.2a13,13,0,0,1-3.2-1.4l-.7-.5c-.1.5-.1,1.1-.2,1.6a6.4,6.4,0,0,1,.2.7,4.4,4.4,0,0,1-.3,1.9,47.4,47.4,0,0,0,.8,10.6,29.5,29.5,0,0,1,1.5,2.7,2.5,2.5,0,0,1,2.3-1.4c1.3,0,3.1.9,5.3,2.5a5,5,0,0,1,1.4,2.8c0,4.5-1.1,6.8-3.3,6.8a6.3,6.3,0,0,1-2.1-.5,15.8,15.8,0,0,1,1.1,3.7,26.5,26.5,0,0,1-.2,6.9l-.3,3A49,49,0,0,0,99.8,582c7.1.2,8.4,2.6,4.7,8.9a3.5,3.5,0,0,1-2.6,1.6h-.4a32.1,32.1,0,0,1-.2,7.6,3.4,3.4,0,0,1,1.5.6,2.6,2.6,0,0,1,.9,1.7,32.4,32.4,0,0,1,.1,5.6.8.8,0,0,1-.7.8h0a6.1,6.1,0,0,1-3.3-1.4,7.1,7.1,0,0,1-2.2-3,4,4,0,0,1,.2-3.1,2.3,2.3,0,0,1,1.9-1.2,32.1,32.1,0,0,0,.2-7.6c-5.7-.2-7-3.6-3.1-9.1a2.6,2.6,0,0,1,1.4-1,15.5,15.5,0,0,1-.4-2.1c-1,1.9-3.6,3.7-6.4,4.4h-.2c-.3,0-.7-.3-.7-.6-.9-3.7.9-8.6,3.9-8.6a3.5,3.5,0,0,1,2.2.8l.6.5a37.6,37.6,0,0,1-.4-8.2,16.3,16.3,0,0,1,.3-3.1,22.9,22.9,0,0,0,.1-6.4,22.1,22.1,0,0,0-1.8-5.5l-.8-.5a3.7,3.7,0,0,1-1.2-1.9,7.6,7.6,0,0,1-4.9,1.9,5.9,5.9,0,0,1-2.3-.5c-2.7-1.1-4.5-4.2-4-8.2a3.1,3.1,0,0,1,2.1-2.3c2.8-.9,4.6-1.5,5.9-1.5h.5a53.4,53.4,0,0,1-.5-6.9c-1.7,1.5-3.2,2.2-4.4,2.2s-3.5-2.1-4.3-6.2a4,4,0,0,1,.9-3c2.2-2.2,4-3.3,5.5-3.3a2.7,2.7,0,0,1,1.7.6v-.4a3.5,3.5,0,0,1,1.3-2.7l.5-.4c.3-2,.7-4.1,1.1-6.1l.6-3.7a1.7,1.7,0,0,1-.1-.7,2,2,0,0,1,.5-1.5c.4-2.5.7-4.9,1-7.4a3,3,0,0,1-1.6-.5,4.9,4.9,0,0,1-2-3.9,7.4,7.4,0,0,1-2.7.6c-2.8,0-4.3-2.3-5-7.2a3.6,3.6,0,0,1,1.1-2.9,11.1,11.1,0,0,1,5.8-2.3,4.7,4.7,0,0,1,3.9,2.2,97.7,97.7,0,0,0-2.5-10.7l-.6.9q-3.2,2.7-5.4,2.7c-2.5,0-4-2.4-4-7a3.7,3.7,0,0,1,1.5-2.7c2.3-1.7,4-2.5,5.4-2.5h.8c-.1-.2-.1-.4-.2-.6-1.1-4.1-2-8.4-2.9-12.6a10.7,10.7,0,0,1-2.8-1.9,4.2,4.2,0,0,1-1.2-2.3l-.2.2q-3.2,2.7-4.8,2.7c-1.8,0-2.4-2.1-1.8-6.4a5.2,5.2,0,0,1,1.5-2.7c2.1-1.7,3.7-2.6,4.8-2.6s1.8.8,2,2.3a1,1,0,0,1,.5-.4c-.3-1.9-.6-3.7-1-5.6l-.2-1.5a5.9,5.9,0,0,1-3.5,1.4q-3.3,0-4.5-6.3a4,4,0,0,1,.9-3c2-1.9,3.8-3,5.2-3.2l-1.5-8.8-.3-2a3.9,3.9,0,0,1-1.5-2,4.5,4.5,0,0,1-3,1.7h-.5c-1.5-.3-2.7-2.4-2.8-5.9a4.8,4.8,0,0,1,1-2.9c2.2-2.4,3.5-3.7,4.5-3.7h.2a1.9,1.9,0,0,1,1.1,1.1,24.1,24.1,0,0,1,2.7-10.6c2.9-5.4,8.4-8.4,14.7-8.4a15.6,15.6,0,0,1,3,.2.7.7,0,0,1,.5.4h.7a23,23,0,0,1,3.8.2,21.7,21.7,0,0,1-.3-3.8,3,3,0,0,1,1.7-2.6,12.8,12.8,0,0,1,4.4-.9,6.6,6.6,0,0,1,4.5,1.5,6.1,6.1,0,0,1,2,3.5l2.1-.7c-.1-1.4.9-3.2,2.1-6.3a3.1,3.1,0,0,1,2.5-1.8h.1c4.1.1,7,2.3,7.8,5.2a5.1,5.1,0,0,1,.2,1.3,7.6,7.6,0,0,1,1.6.6,6,6,0,0,1,1.9-.6l1.7-.2a7.9,7.9,0,0,1,3.2.6l.5.2.4-.4a1.9,1.9,0,0,1-.2-.7l-1.3-1.4a.8.8,0,0,1,0-1.1,3.8,3.8,0,0,1,1.5-.9,10.2,10.2,0,0,1,1.4-3.4.6.6,0,0,1,.6-.4m0-3a3.8,3.8,0,0,0-3.2,1.8,20.9,20.9,0,0,0-1.4,3l-.8.6a3.9,3.9,0,0,0-1.3,2.1l-1.7.3h-.4c-1.5-3.8-5.6-6.5-10.4-6.6h-.2a6.1,6.1,0,0,0-5.2,3.6l-.6,1.4-.6,1.4-.3-.3a9.6,9.6,0,0,0-6.5-2.3,15.5,15.5,0,0,0-5.4,1,6.2,6.2,0,0,0-3.7,5.5v.6h-.1l-1.2-.4a19.4,19.4,0,0,0-3.4-.2,19.2,19.2,0,0,0-17.3,10,23.5,23.5,0,0,0-2.7,8.1c-1.8.5-3.4,2.2-5.4,4.5a7.6,7.6,0,0,0-1.8,5c.3,6.9,3.7,8.4,5.1,8.8h1.2l1.8-.3h.1l1,6.4a15.4,15.4,0,0,0-3.8,2.9,6.7,6.7,0,0,0-1.8,5.7c1,5.2,3,7.4,5,8.3l-2.1,1.6a7.7,7.7,0,0,0-2.6,4.6c-.5,4.1-.2,6.6,1.3,8.2a4.5,4.5,0,0,0,3.5,1.6,8.4,8.4,0,0,0,4.1-1.4h.1l2.2,1.6c.6,3.1,1.3,6,1.9,8.7a24,24,0,0,0-4.2,2.4,7.1,7.1,0,0,0-2.7,5.2c0,3.7.8,6.5,2.6,8.2a5.9,5.9,0,0,0,4.4,1.8h.1a23.8,23.8,0,0,0-3,1.8,6.5,6.5,0,0,0-2.4,5.8c.4,2.4,1.5,9.7,8,9.7h.6a6.6,6.6,0,0,0,2.4,2.8,40,40,0,0,1-.6,4.3,5.8,5.8,0,0,0-.6,2.6v.8a28.7,28.7,0,0,1-.5,3.1l-.9,5a7.2,7.2,0,0,0-1.1,1.5c-2.3.2-4.6,1.5-7.2,4.2a6.7,6.7,0,0,0-1.8,5.6c1.2,6.2,3.8,8.2,6.1,8.6l-1.1.4a6.1,6.1,0,0,0-4.3,4.8c-.6,5.1,1.8,9.7,5.9,11.4a7.7,7.7,0,0,0,3.4.7,9.3,9.3,0,0,0,4-.9l.3.3H93a14.9,14.9,0,0,1,1.3,3.9,28.1,28.1,0,0,1-.2,5.7,31.6,31.6,0,0,0-.3,3.2,28,28,0,0,0,0,4.1,6.2,6.2,0,0,0-4.3,2.6,11.6,11.6,0,0,0-2,9.7,3.8,3.8,0,0,0,3.7,2.9h.4a6.3,6.3,0,0,0,.6,3.8c.6,1.3,2,2.8,4.8,3.6a23.5,23.5,0,0,1-.1,2.7,5.2,5.2,0,0,0-1.7,1.9,6.5,6.5,0,0,0-.4,5.5,9.2,9.2,0,0,0,3.1,4.5,9,9,0,0,0,5,2h.2a3.8,3.8,0,0,0,3.7-3.7v-1.7a16.7,16.7,0,0,0-.2-4.6,5.2,5.2,0,0,0-2-3.4h0a21.6,21.6,0,0,0,0-3.6,6.2,6.2,0,0,0,2.5-2.3c1.7-2.9,3.5-6.6,1.7-9.7s-3.9-3.2-6.5-3.5a45,45,0,0,1-.9-10.2l.3-2.8a28.9,28.9,0,0,0,.1-7.8h0a4.6,4.6,0,0,0,2.1-1.3c1.6-1.6,2.3-4.2,2.3-8.1a7.7,7.7,0,0,0-2.6-5.2c-2.8-2.1-5-3.1-7.1-3.1h-1a37.3,37.3,0,0,1-.6-8.4v-.2l.5.2h.9a3.7,3.7,0,0,0,3.7-3,12.3,12.3,0,0,0-1.8-9.6,6.4,6.4,0,0,0-1.7-1.6,5.2,5.2,0,0,0,.2-1.1l2.2.2,1.9-.2a3.5,3.5,0,0,0,2.3-1.6,3.7,3.7,0,0,0,.4-2.9,15.9,15.9,0,0,0-2.9-6.4,6,6,0,0,0-1.8-1.5c0-.5.1-1,.1-1.5a14.4,14.4,0,0,0,3.1-1.9,7.3,7.3,0,0,0,2.3-5.4c-.2-3.9-.6-7.2-3.2-8.8a5.2,5.2,0,0,0-2.5-.7A141.7,141.7,0,0,0,95,471.8l-1.5-5.6c-.7-2.6-1.3-5.4-2-8.5h.2c2.8-1.6,4.2-5.2,3.6-10a7.7,7.7,0,0,0-3.3-4.9l-3.6-1.7c-.2-1.3-.5-2.5-.7-3.8v-.8a7,7,0,0,0,1.3-5.2c-.7-3.4-1.8-5.8-3.4-7.3l-1.1-6.4a18.5,18.5,0,0,0,3.5-1.7,6.9,6.9,0,0,0,3.1-5.1c.1-3.1-.3-5.6-1.3-7.3h.8c2.9-.1,6.9-.5,9.8-2a7.4,7.4,0,0,0,1.7-1.2l.5.2a17.4,17.4,0,0,0,4.5.6,5,5,0,0,0,1,1.9,11.5,11.5,0,0,0,7,3.9l1.8.2a15.5,15.5,0,0,0,3.1-.4,10.9,10.9,0,0,0,.8,1.5,3.9,3.9,0,0,0,3.5,2.1,4.2,4.2,0,0,0,2.1-.6,14.8,14.8,0,0,0,3.1-2.5,13.7,13.7,0,0,0,4.9,1.1,7.1,7.1,0,0,0,6.1-3.1,6.5,6.5,0,0,0,2.1,1.6,4.5,4.5,0,0,0,1.1,2.3,4.3,4.3,0,0,0,2.9,1.2h.1a19.6,19.6,0,0,0,5.9-.9,1.9,1.9,0,0,0,.2.7,3.4,3.4,0,0,0,3.2,2.3,3.1,3.1,0,0,0,1.3-.3,8.8,8.8,0,0,0,3.5-2.4h1.1a6.9,6.9,0,0,0,3.7-1l-.3,1.6c-.4,2.4-.7,4.4-1,6.3h-.8l-1.5.2a4.5,4.5,0,0,0-3,3.6,5.8,5.8,0,0,0,.4,3.7,4.4,4.4,0,0,0,1.2,1.5,6.1,6.1,0,0,0-1.6,5.2,8.1,8.1,0,0,0,2.9,4.3l-.6,1.2a6.6,6.6,0,0,0,.7,6.1l2.3,2.6a38.8,38.8,0,0,0,4.3,10.9,6.4,6.4,0,0,0,.8,1.4,6.6,6.6,0,0,0-1.9,4.3,7.3,7.3,0,0,0,1.5,5.5,7.6,7.6,0,0,0,4.3,2.4h1.1a14.6,14.6,0,0,0,4.3,3.4,6.1,6.1,0,0,0-.5,4.8,5.6,5.6,0,0,0,1.7,2.6,19.4,19.4,0,0,1-.2,2.4h-.7a3.5,3.5,0,0,0-3.5,3.3,11.9,11.9,0,0,0,1,5.1.1.1,0,0,1,.1.1,2.1,2.1,0,0,1-.6,1,7.7,7.7,0,0,0-3.1,2.8c-.6.9-1.2,1.6-1.6,2.3s-2.1,3.1-1.7,4.8a24,24,0,0,0-1.1,2.3h-.1c-3.5,0-6.4,2.9-7.8,5.8l-.5.7a3,3,0,0,0,.1,3.5l.8.9a3.6,3.6,0,0,0,2.2,1.1h.2l1.8.3c-.1,1.2-.1,2.3-.1,3.5a8,8,0,0,0-1.1,2.5,7.1,7.1,0,0,0,.6,4.7,16.9,16.9,0,0,0,2.5,3.3,22.1,22.1,0,0,0,3.3,2.9,3.9,3.9,0,0,0,2.3.7,3.6,3.6,0,0,0,3.2-1.8,13.4,13.4,0,0,0,1.9-5.5,12,12,0,0,0-.8-5.7,7.6,7.6,0,0,0-3.9-4h-.2c.1-1.1.3-2.2.5-3.3a5.1,5.1,0,0,0,1-3.8,23.9,23.9,0,0,1,1.5-3.7l.7.3a8.8,8.8,0,0,0,2.9.5,7.6,7.6,0,0,0,2.7-.5c4.4-2.2,6.7-6.3,5.5-10a6.9,6.9,0,0,0-3.2-3.9,31,31,0,0,0,2.9-10.1h1.2a3.6,3.6,0,0,0,2.6-1.4,3,3,0,0,0,.8-2.7,11.3,11.3,0,0,0-4.4-7.9,12.9,12.9,0,0,0,2.6-6.4,6.5,6.5,0,0,0-2.3-5.6c-2.7-2.3-5.1-3.8-7.5-3.8h-1.4a5.2,5.2,0,0,0-1.3.6,41.3,41.3,0,0,1-2.5-3.8,25.2,25.2,0,0,1-2.2-4.7c2.2-1,4.1-3.3,5.7-6.8a6.1,6.1,0,0,0-.7-6.1c-1.9-2.5-3.7-4.1-5.7-4.9a10.3,10.3,0,0,0-1.4-3v-.4h1.1a10.3,10.3,0,0,0,2.4-.5,5.3,5.3,0,0,0,3.1-2.3h0a7.3,7.3,0,0,0,1.1-4.2,6.2,6.2,0,0,0-.8-3.1,4.9,4.9,0,0,0-2.4-2.3,6,6,0,0,0-2.7-.6h0a5,5,0,0,1,.2-1.2,15,15,0,0,1,.4-2.4h1.4a13.5,13.5,0,0,0,2.6,1.5,5.3,5.3,0,0,0,1.7.4,4,4,0,0,0,3.7-2.6l.3-.8a9.7,9.7,0,0,0,3.9.8,13.7,13.7,0,0,0,6.7-1.8,4.3,4.3,0,0,0,1.8-2.4,4.5,4.5,0,0,0-.5-3,18.3,18.3,0,0,0-3.4-3.9,6.5,6.5,0,0,0-1.2-3.6c-.8-.8-1.5-1.6-2.2-2.2a11.2,11.2,0,0,0,.3-2.7,28.5,28.5,0,0,0-.4-5.1,4.1,4.1,0,0,0-3.9-3.1h-1l-.8.2a13.2,13.2,0,0,0-3.9-3.9,4.2,4.2,0,0,0-2.1-.6,4,4,0,0,0-3.3,1.9l-.6,1a6.8,6.8,0,0,0-2.7-.7,15.1,15.1,0,0,0-.7-3.3,16.3,16.3,0,0,0-1.7-3.8,3.7,3.7,0,0,0-3.3-1.9,3.6,3.6,0,0,0-2,.6,11.8,11.8,0,0,0-3.8,3.9l-.9,1.8h-.1a4.7,4.7,0,0,0-1.7.3l-1.2.5a3.7,3.7,0,0,0-3.4-2.1h-1.2a8,8,0,0,0-2.1-1.5A11,11,0,0,0,144,370a3.6,3.6,0,0,0-2-.6ZM86.9,391.9a11.3,11.3,0,0,1,3.1-2.1l.3.8a12.1,12.1,0,0,0-2.1,2.8,9.3,9.3,0,0,0-1.3-1.5ZM89.5,482h0Z" style="fill:#6c9433"/><path d="M221.1,380.9h.3a7.2,7.2,0,0,1,2.4,2.5,3,3,0,0,1,.4.8,10.2,10.2,0,0,1,3-.8h0a.6.6,0,0,1,.6.6,8,8,0,0,1-1.4,5,2.9,2.9,0,0,1-2.2,1.2H224a2.6,2.6,0,0,1-.6,3.3,12.2,12.2,0,0,1-5.4,3.1h-.2a.8.8,0,0,1-.7-.5,6.5,6.5,0,0,1-.1-3.1l-.2.2a54.3,54.3,0,0,0-4.7,11.5,7.7,7.7,0,0,1,4-1.2,5.9,5.9,0,0,1,2.3.4c2.7,1.1,4.5,4.3,4,8.3a3.2,3.2,0,0,1-2.1,2.3c-2.8.8-4.6,1.5-5.8,1.5l-1.1-.2c-.8-.3-1.4-1.2-2.2-2.6a25.1,25.1,0,0,0,1.3,6.4,67,67,0,0,0,4.3,10l.4.7.5.4a16.3,16.3,0,0,1-.7-2.8,3.7,3.7,0,0,1,.9-3c2.1-2.2,4-3.3,5.5-3.3s3.5,2.1,4.2,6.3a3.6,3.6,0,0,1-.9,3c-2.1,2.2-4,3.3-5.5,3.3a2.7,2.7,0,0,1-1.7-.6c0,.1.1.3.1.4a2.9,2.9,0,0,1-.2.9c2.5,5.8,4.1,11.8,1.4,18.5l-4.5,9.9h.8c2.7,0,4.2,2.3,5,7.2a3.6,3.6,0,0,1-1.2,2.9,10.1,10.1,0,0,1-5.8,2.3,4.3,4.3,0,0,1-3.7-1.9l-2.8,6.3c-.2.5-.3,1-.5,1.4,2-1.7,3.8-2.6,5.3-2.6s4,2.4,4,7a4.6,4.6,0,0,1-1.5,2.8q-3.5,2.4-5.4,2.4c-1.9,0-3-1.8-3.5-5.5a32.5,32.5,0,0,0,1,18.9l.6-.5a4.7,4.7,0,0,1,1.7-.4c1.5,0,3.3.8,5.3,2.5a4.5,4.5,0,0,1,1.1,2.3l.2-.2c2.1-1.8,3.8-2.6,4.9-2.6s2.4,2.1,1.8,6.3a5.6,5.6,0,0,1-1.5,2.7,10.8,10.8,0,0,1-4.5,2.6,30.8,30.8,0,0,1,3.7,4.4c1.2,1,2.1,2.8,2.6,5.8.1,0,.1,0,.1.1a13.2,13.2,0,0,1-1,8.5,86.9,86.9,0,0,0-2.9,8.6,3.2,3.2,0,0,1,1,1.8,4.4,4.4,0,0,1,3.1-1.8h.5c1.5.3,2.7,2.4,2.8,5.9a4.9,4.9,0,0,1-1.1,2.9c-2.1,2.5-3.4,3.8-4.4,3.8h-.3c-.7-.1-1.3-1.2-1.9-3.2l-1.9.9c-.3,2.2-.5,4.4-.7,6.6a1.3,1.3,0,0,1,.6.7,2.6,2.6,0,0,1,.2,2,1.6,1.6,0,0,1-.9,1.4v1.5a.9.9,0,0,1-.9.9h0a.9.9,0,0,1-.8-.9v-1.4l-.7-.3a5.3,5.3,0,0,1-1.9-2,4.3,4.3,0,0,1-.6-2.7.5.5,0,0,1,.5-.5h.1l2.2.4.6.2c.2-1.8.3-3.5.6-5.3a4.1,4.1,0,0,1-1.5.2c-2.7,0-4-2.4-3.8-7.3a3.5,3.5,0,0,1,1.6-2.7,11,11,0,0,1,5.3-1.9h.8a72.5,72.5,0,0,1,2.9-8.6h0a11.1,11.1,0,0,0,1.1-4.6c-2,1.9-3.8,2.8-5.2,2.8s-3.7-2.1-4.5-6.3a4,4,0,0,1,.9-3c2-1.9,3.6-2.9,5-3.2a63.1,63.1,0,0,0-4.4-4.7l-.8-.7c-1.2,0-2.9-.7-5.2-2a4.3,4.3,0,0,1-1.8-2.6,10.3,10.3,0,0,1,.3-4.8c-3.3-7.9-3.3-17.2.2-26.8l3.4-7.6c-.1-.4-.3-.8-.4-1.3a9.9,9.9,0,0,1-3.2.8,2.1,2.1,0,0,1-1.2-.3c-1.2-.7-1.5-2.7-1.7-6.3a4,4,0,0,1,1.2-2.9,9,9,0,0,1,5.2-2.3,3.8,3.8,0,0,1,1.9.5,4.7,4.7,0,0,1,2,3.7c1.5-3.3,3.1-6.6,4.5-9.9a2.6,2.6,0,0,1-3.5-.7,12.6,12.6,0,0,1-2.3-5.2c-.1-.4.1-.8.5-.8l1.3-.2a6.3,6.3,0,0,1,1.9.3,6.4,6.4,0,0,1,2.8,1.6l.7.9c.9-4.5-.1-8.7-1.9-13,0,.1,0,.1-.1.1a2.9,2.9,0,0,1-2.1,1h-.4a3.3,3.3,0,0,1-2.3-1.6A9.8,9.8,0,0,1,212,429a.8.8,0,0,1,.8-.6h.2a5.2,5.2,0,0,1,1.6.6,60.9,60.9,0,0,1-3.7-8.8,21.9,21.9,0,0,1-1.3-7.5,2.3,2.3,0,0,1-1.4.4c-1.4,0-3.1-.8-5.3-2.5a4,4,0,0,1-1.4-2.7c-.1-4.6,1-6.8,3.2-6.8s3.2.8,5.3,2.5a1.7,1.7,0,0,1,.6.6,32.4,32.4,0,0,1,1.9-5.5,3,3,0,0,1-1.9.9c-1.4,0-2.9-1.4-4.9-4.3a4.2,4.2,0,0,1-.5-3.1c1.1-3.6,2.9-5.5,4.8-5.5s3.6,1.6,5.1,4.8c.2.2.2.6.3,1h0c0-.1,0-.1.1-.1a10.2,10.2,0,0,1,3.2-3l.2-.2h-.1a3.6,3.6,0,0,1-.5-2.1,18.3,18.3,0,0,1,2.1-5.7,1,1,0,0,1,.7-.4m0-3h0a3.8,3.8,0,0,0-3.3,2,18.7,18.7,0,0,0-2.4,6.5,7.5,7.5,0,0,0-5.4-2.7c-2,0-5.6,1-7.7,7.6a7.6,7.6,0,0,0,.9,5.7l.8,1.1a5.8,5.8,0,0,0-3.2,1.6c-1.6,1.6-2.4,4.2-2.3,8.2a6.9,6.9,0,0,0,2.6,5.1,15,15,0,0,0,5.7,3,27.2,27.2,0,0,0,1.3,5.1,31.6,31.6,0,0,0,2,5.4,3.9,3.9,0,0,0-1,1.9A12.4,12.4,0,0,0,211,438a6.9,6.9,0,0,0,4.2,2.8h1.4a15.9,15.9,0,0,1,.8,3.5,7.8,7.8,0,0,0-2.6-.4l-2,.2a3.6,3.6,0,0,0-2.3,1.7,3.5,3.5,0,0,0-.4,2.8,16.4,16.4,0,0,0,2.9,6.5l1.4,1.2a11.7,11.7,0,0,1-.5,1.1,6.8,6.8,0,0,0-3.5-.9,11.5,11.5,0,0,0-7.1,3,7.1,7.1,0,0,0-2.3,5.4c.2,3.8.6,7.2,3.1,8.7a4.8,4.8,0,0,0,2,.7q-1,2.1-1.8,3.9c0,.1,0,.2-.1.2-3.5,9.7-3.7,19.6-.4,27.9a14.2,14.2,0,0,0-.2,5.1,7,7,0,0,0,3.3,4.8,19.9,19.9,0,0,0,5.4,2.3l1.7,1.6-2.2,1.9a6.7,6.7,0,0,0-1.8,5.7c1.4,7.3,4.8,8.8,7.4,8.8h.4l-1.5,4.4a16.2,16.2,0,0,0-5.3,2.2,6.8,6.8,0,0,0-3.1,5.1c-.2,4.1.6,6.9,2.3,8.6l.9.8a3.7,3.7,0,0,0-1.9,2.9,8.4,8.4,0,0,0,3.2,7,3.9,3.9,0,0,0,7.7-.4v-.2a6.7,6.7,0,0,0,.9-2.1,6.4,6.4,0,0,0-.5-3.9.8.8,0,0,0-.2-.4c0-.2.1-.4.1-.6l.7.3h.9c2.3,0,4.2-1.9,6.7-4.8a8.2,8.2,0,0,0,1.8-5c-.3-6.9-3.7-8.4-5.2-8.7l-1.1-.2h0c.4-1.5,1-3,1.5-4.4a15.1,15.1,0,0,0,1.2-10.2v-.2c-.7-3.4-1.8-5.7-3.3-7.2l-1.1-1.5a13.1,13.1,0,0,0,1.5-1.2,8.8,8.8,0,0,0,2.6-4.6c.5-4,.1-6.6-1.3-8.2a4.5,4.5,0,0,0-3.5-1.5,7.8,7.8,0,0,0-4.1,1.3h-.2a11.5,11.5,0,0,0-7.2-3.2h-.4a28.4,28.4,0,0,1-.8-6.6h1.4c2,0,4.2-.9,7.1-3a6.8,6.8,0,0,0,2.8-5.2c0-3.4-.7-6-2.2-7.7a18,18,0,0,0,4.5-2.4,6.6,6.6,0,0,0,2.4-5.8c-.3-1.8-1.1-6.7-4.5-8.7l2.9-6.6h.1c2.7-6.6,1.6-12.7-.2-17.7a15.2,15.2,0,0,0,5.5-3.8,7.1,7.1,0,0,0,1.7-5.6c-1.3-7.2-4.7-8.8-7.2-8.8h0c-2.1,0-4.4,1.2-6.8,3.4a16.6,16.6,0,0,1-1.2-3.1,19.4,19.4,0,0,0,4-1l1.8-.5a6.3,6.3,0,0,0,4.2-4.9c.6-5.1-1.7-9.6-5.8-11.3a7.3,7.3,0,0,0-2.9-.7l.4-1h1.7a15.4,15.4,0,0,0,6.9-4,6.4,6.4,0,0,0,1.6-3.3,6.2,6.2,0,0,0,1.4-1.4,10.6,10.6,0,0,0,2.1-6.8,3.6,3.6,0,0,0-3.6-3.6H227l-1.4.2a11.8,11.8,0,0,0-2.7-2.3,3.7,3.7,0,0,0-1.8-.5Z" style="fill:#6c9433"/><path d="M35.1,368h.2a7.4,7.4,0,0,1,4.5,4.5,3.2,3.2,0,0,1,.2,1.9l1.9,1.4a5.1,5.1,0,0,1,1.5,2.8c.5,4.2,0,6.3-1.7,6.3s-2.8-.8-4.9-2.4l-.4-.4a4.3,4.3,0,0,1-.9,1.3c-2,1.6-3.8,2.5-5.4,2.5a3.4,3.4,0,0,1-1.7-.5,3.7,3.7,0,0,1-1.8-2.2,9.7,9.7,0,0,0-2.2,4.7c-.7,3.4-1.3,6.8-1.7,10.2a7,7,0,0,1,2-1.5,4.3,4.3,0,0,1,2.1-.5,3.3,3.3,0,0,1,1.5.3,3.5,3.5,0,0,1,1.1,1,4.3,4.3,0,0,1,.3,1.7,3.9,3.9,0,0,1-.6,2.6,2.4,2.4,0,0,1-1.5,1.1l-2.3.4L22,404h0c-.1,1.2-.2,2.4-.2,3.6a9.9,9.9,0,0,1,2.3,4.7q2.5.1,5.7,4.2a3.8,3.8,0,0,1,.3,3.1c-1.6,3.7-3.5,5.5-5.6,5.5l-1.6-.3c.4,1.8.9,3.6,1.4,5.3l4,5.9,2.8,4,.6.4a3.9,3.9,0,0,1,2.2-1.9h.6c1.4,0,3.2,1.1,5.7,3.1a3.6,3.6,0,0,1,1.1,2.9c-.5,3.8-2.1,6-4.2,6.5,0,.1,0,.1-.1.1a24.6,24.6,0,0,1,1.6,11.5l.8.3c2,.9,2.1,2.7,1,4.4a8.3,8.3,0,0,1-5.7,3.4h-.1a.7.7,0,0,1-.7-.6,11.2,11.2,0,0,1,1-5.9,3.5,3.5,0,0,1,1.8-1.6h.2A22.3,22.3,0,0,0,35.2,451a9.4,9.4,0,0,1-4.9-3.7.5.5,0,0,1-.2-.4h-.8l-1.4-.2a3.6,3.6,0,0,1-2.5-1.3,4.4,4.4,0,0,1-.8-3.2,3,3,0,0,1,1.5-2.7,3.4,3.4,0,0,1,1.7-.5h.7L27,437c-1.4-2-2.9-4.1-4.1-6.1-.1,0-.1-.1-.1-.2a56.8,56.8,0,0,1-1.8-7.1,15.7,15.7,0,0,1-2.5-2.6,3.8,3.8,0,0,1-.3-3.1,12.5,12.5,0,0,1,1.9-3.3.4.4,0,0,0-.1-.3c-3.2-1.3-5.5-4.2-2.6-6.8a2.9,2.9,0,0,1,2.1-1h.7c0-.7.1-1.4.1-2l-1.5-.2-1.5-.4a1.8,1.8,0,0,1-1-.9,2.1,2.1,0,0,1-.2-1.8,1.6,1.6,0,0,1,1-1.3h.6a2.7,2.7,0,0,1,1.2.3,6.4,6.4,0,0,1,1.7,1.6c.5-4.8,1.3-9.5,2.1-14.1a12.8,12.8,0,0,1,1.7-4.2h-.2a10.4,10.4,0,0,1-3.5-.7.6.6,0,0,1-.4-.8c.9-2.2,3.2-4.1,5.1-4.1l.8.2.3-.7a6.1,6.1,0,0,1-.7-1c-.1-.3-.1-.6.2-.7a5.9,5.9,0,0,1,2.9-.7h.6a9,9,0,0,1,3.8-1.2h.4a13.7,13.7,0,0,1,.7-5.5.8.8,0,0,1,.7-.5m0-3a4,4,0,0,0-3.6,2.6,25.7,25.7,0,0,0-.8,3.8l-1.8.7h0a8.8,8.8,0,0,0-4.3,1,3.2,3.2,0,0,0-1.7,2.1.8.8,0,0,0-.1.4,10,10,0,0,0-5.3,5.4,3.9,3.9,0,0,0,.1,2.8,3.4,3.4,0,0,0,2,1.9l.5.2-.3,1.3c-.7,3.6-1.2,6.8-1.7,9.7h-.4a4.1,4.1,0,0,0-1.6.3,4.4,4.4,0,0,0-2.9,3.5,5.4,5.4,0,0,0,.4,3.8,7.6,7.6,0,0,0,1.1,1.4,5.9,5.9,0,0,0-1.5,5.2,7.4,7.4,0,0,0,2.8,4.3l-.6,1.2a6.8,6.8,0,0,0,.7,6.2l2.2,2.4a44.1,44.1,0,0,0,1.6,6.5,2,2,0,0,0,.4.8l3.4,5.1a6.4,6.4,0,0,0-2.1,4.4,7.4,7.4,0,0,0,1.5,5.4,6.9,6.9,0,0,0,4.3,2.4h1.2a11.2,11.2,0,0,0,4.3,3.4,20.9,20.9,0,0,1,1.1,7.3,8.5,8.5,0,0,0-1.7,2,15,15,0,0,0-1.4,7.7,3.8,3.8,0,0,0,3.7,3.3h.6a12.1,12.1,0,0,0,7.8-4.8,6.4,6.4,0,0,0,.9-5.1,5.1,5.1,0,0,0-2.2-3,26.2,26.2,0,0,0-1-8.3,12.4,12.4,0,0,0,3.6-7.5,6.8,6.8,0,0,0-2.2-5.7c-2.8-2.3-5.1-3.8-7.6-3.8l-1.4.2L32,436l-1.2-1.7-3.7-5.4a7.6,7.6,0,0,1-.4-1.1c2.4-.9,4.5-3.2,6.2-6.9a6.8,6.8,0,0,0-.7-6.2,13.5,13.5,0,0,0-5.7-4.8,10.3,10.3,0,0,0-1.7-3.3v-.2h1.3a18.3,18.3,0,0,0,2.5-.6,5.3,5.3,0,0,0,3-2.3,6.9,6.9,0,0,0,1.1-4.3,5.6,5.6,0,0,0-.7-3,5.3,5.3,0,0,0-2.4-2.3,6.4,6.4,0,0,0-2.8-.6h-.3c.2-1.5.5-3,.8-4.6h.1a6,6,0,0,0,2.7.6,11.3,11.3,0,0,0,6.7-2.7,9.6,9.6,0,0,0,4.9,1.7,4.9,4.9,0,0,0,3.4-1.5c1.4-1.6,1.8-4,1.3-8.2a8.3,8.3,0,0,0-2.5-4.7l-.9-.7-.3-1.2a11.4,11.4,0,0,0-6.4-6.5l-1.2-.2Z" style="fill:#6c9433"/><path d="M59.8,371.6c1.7,0,2.5,1.6,2.3,4.7h1.3l2.2.2a1.6,1.6,0,0,1,.9.3,7.1,7.1,0,0,1,2-1.8,4.7,4.7,0,0,1,2.7-.7h.3c3.4.3,5.1.1,5.4.7s-.8,1.8-2.5,4.8l-1,1.2a11.3,11.3,0,0,1,3,5.6.8.8,0,0,1-.5,1H74.2c-3,0-6-1.4-6.6-3.5-1,3.6-3.7,5.6-8,5.6a12.2,12.2,0,0,1-3.2-.4,2.6,2.6,0,0,1-2-2.3,17,17,0,0,1,.2-4q-2.6-.6-1.5-6.6a4.3,4.3,0,0,1,1.7-2.6c2.1-1.5,3.8-2.2,5-2.2m0-3c-1.9,0-4,.9-6.7,2.7a7.7,7.7,0,0,0-3,4.5c-.8,4.7,0,7.3,1.3,8.7a11.3,11.3,0,0,0,0,2.6,5.7,5.7,0,0,0,4.5,5.2,24.6,24.6,0,0,0,3.7.4,11.1,11.1,0,0,0,8.7-3.6,12.3,12.3,0,0,0,5.9,1.5,7.8,7.8,0,0,0,2.2-.2,4.2,4.2,0,0,0,2.5-1.6,4.3,4.3,0,0,0,.5-2.9,16.8,16.8,0,0,0-2.2-5.1l1.3-2.2c1.1-1.7,2-3.3,1.1-5.1s-2.9-2-4.9-2.1l-2.9-.2h-.6a8.4,8.4,0,0,0-4.4,1.2l-1.2.9h-.7a5.9,5.9,0,0,0-1.4-3.1,4.9,4.9,0,0,0-3.7-1.6Z" style="fill:#6c9433"/></g></g></svg>