<svg xmlns="http://www.w3.org/2000/svg" viewBox="0 0 89.2 227.6"><g style="isolation:isolate"><g id="Layer_2" data-name="Layer 2"><g id="Layer_1-2" data-name="Layer 1"><path d="M43.9,84.8h-.2V214.2h1.8V85.4l-1.4-.5h-.2" style="fill:#b04d36"/><path d="M46.7,166.4a6.4,6.4,0,0,1-2-.3,6.9,6.9,0,0,1-2,.3,5.9,5.9,0,0,1-2.9-.7,6.1,6.1,0,0,1-2.7-2.8,3.7,3.7,0,0,1-3-1.4,4.3,4.3,0,0,1-1.3-2.8,4.8,4.8,0,0,1-2.7-3.2,7.7,7.7,0,0,1,.7-5,15.9,15.9,0,0,1,6.2-6.9l2-.9h.1a11.2,11.2,0,0,1,3.7-.9h2.4a18.3,18.3,0,0,1,7.1,2,14.9,14.9,0,0,1,6.2,6.9,7.1,7.1,0,0,1,.7,5,4.8,4.8,0,0,1-2.7,3.2,4.7,4.7,0,0,1-1.2,2.8,4.1,4.1,0,0,1-3.1,1.4,6.1,6.1,0,0,1-2.7,2.8A5.8,5.8,0,0,1,46.7,166.4Z" style="fill:#ffaa5a"/><path d="M44.7,143.1h.4a16.9,16.9,0,0,1,6.5,1.8,13.3,13.3,0,0,1,5.5,6.2,5.7,5.7,0,0,1,.6,4,3.1,3.1,0,0,1-2.7,2.4h-.2a3,3,0,0,1-.6,3,3.2,3.2,0,0,1-2.2,1l-.8-.2a4.5,4.5,0,0,1-2.4,3.1,5.4,5.4,0,0,1-2.1.5,4.1,4.1,0,0,1-1.9-.4h-.3a3.9,3.9,0,0,1-1.8.4,5.4,5.4,0,0,1-2.2-.5,4.5,4.5,0,0,1-2.4-3.1l-.8.2a3.1,3.1,0,0,1-2.8-4h-.2a3.1,3.1,0,0,1-2.7-2.4,5.7,5.7,0,0,1,.6-4,13.4,13.4,0,0,1,5.6-6.2,7.5,7.5,0,0,1,1.8-.8h0a21.4,21.4,0,0,1,3.4-.9h1.7m0-3H42.8a.1.1,0,0,1-.1.1h-.1a13.1,13.1,0,0,0-4,1h-.1l-2.3,1.1a16.5,16.5,0,0,0-6.8,7.5,8.9,8.9,0,0,0-.7,5.9,6.2,6.2,0,0,0,2.8,3.9,6.2,6.2,0,0,0,1.5,2.9,5.3,5.3,0,0,0,3.2,1.7,7.8,7.8,0,0,0,2.9,2.8,8.6,8.6,0,0,0,3.6.8l2-.3a6.4,6.4,0,0,0,2,.3,8.5,8.5,0,0,0,3.5-.8,8.9,8.9,0,0,0,3-2.8,5.9,5.9,0,0,0,3.2-1.7,7.1,7.1,0,0,0,1.4-2.9,6.8,6.8,0,0,0,2.9-3.9,9.7,9.7,0,0,0-.8-5.9,17,17,0,0,0-6.9-7.6,19,19,0,0,0-7.8-2.2Z" style="fill:#ff8d3d"/><path d="M44.6,157.3h0m0-5.1h0m0-6.8V153h0v.5h0v5.2h0v.7a2.5,2.5,0,0,0,.1.8h0v3.9c.1-1.6.1-3.2.1-4.7s0-3.2.1-4.8v-7.6a12.8,12.8,0,0,0-.1-1.9" style="fill:#de9161;mix-blend-mode:multiply"/><path d="M44.3,145.4v.2l-.6.7-.6.8-.6.9-.6,1-.4.6h0l-.3.4h0a15.9,15.9,0,0,0-1.2,2.7,17,17,0,0,0-1,3.2h0l-.3.9a6.8,6.8,0,0,1-.2,1.4v.2a24,24,0,0,0-.3,2.8c.1-1,.3-2,.4-3h.1a5,5,0,0,1,.2-1.2c.3-1.3.7-2.5,1.1-3.7h0l.2-.4.9-2.1h0l.9-1.8.6-1,.6-.9.6-.9.5-.7v-.2" style="fill:#de9161;mix-blend-mode:multiply"/><path d="M45,145.4l.6.9.7.9.5.9.6,1a23.2,23.2,0,0,1,1.8,3.9,19.6,19.6,0,0,1,1.3,4.1,20,20,0,0,1,.5,2.6h0c.1.5.1,1,.2,1.6a22,22,0,0,0-.5-4.4,27.7,27.7,0,0,0-1.2-4.1,23.8,23.8,0,0,0-2-3.9l-.5-1-.7-.9-.6-.8-.7-.9" style="fill:#de9161;mix-blend-mode:multiply"/><path d="M44.1,145.1l-.8.6-.8.6-.7.7-.7.6-1.2,1.2v.2l-1.4,1.6h-.2a6.1,6.1,0,0,1-.7,1v.2l-.8,1.2c0,.1,0,.1-.1.2l-.3.5a37.8,37.8,0,0,0-1.7,3.5,37.2,37.2,0,0,1,1.9-3.4,37.8,37.8,0,0,1,2.2-3.3,35.8,35.8,0,0,1,2.6-2.9l.7-.7.7-.7.7-.7.8-.6" style="fill:#de9161;mix-blend-mode:multiply"/><path d="M45.2,145.1l.7.6.8.7.7.7.7.7h.2l2.4,2.7a37.8,37.8,0,0,1,2.2,3.3,36.5,36.5,0,0,1,1.8,3.4,22.6,22.6,0,0,0-1.7-3.5,19,19,0,0,0-2.2-3.3,24.3,24.3,0,0,0-2.6-3l-.7-.6-.8-.7-.7-.6-.8-.6" style="fill:#de9161;mix-blend-mode:multiply"/><path d="M45.8,132.8H43.6a4.1,4.1,0,0,1-1.9-.4,4.6,4.6,0,0,1-1.6-1.5,2.7,2.7,0,0,1-1.7-1,3.1,3.1,0,0,1-.8-1.5,3.7,3.7,0,0,1-1.6-2.1,4.5,4.5,0,0,1,.5-3.1,8.5,8.5,0,0,1,3.6-4.1l1.2-.6h.1l2.2-.5h1.8a9.7,9.7,0,0,1,3.8,1.2,8.7,8.7,0,0,1,3.7,4.1,5,5,0,0,1,.4,3.1,3.6,3.6,0,0,1-1.5,2.1,4.4,4.4,0,0,1-.8,1.5,3.2,3.2,0,0,1-1.8,1,4.6,4.6,0,0,1-1.6,1.5A3.9,3.9,0,0,1,45.8,132.8Z" style="fill:#ffaa5a"/><path d="M44.7,119.4h.6a9.2,9.2,0,0,1,3.1,1,6.8,6.8,0,0,1,3.1,3.4,3.1,3.1,0,0,1,.3,2.1,1.7,1.7,0,0,1-1.5,1.3h-.1a1.7,1.7,0,0,1-.3,1.7,1.8,1.8,0,0,1-1.2.5h-.5a2.1,2.1,0,0,1-1.3,1.6,2,2,0,0,1-1.1.3h-.5l-.5-.2h-.2l-1,.2a2.4,2.4,0,0,1-1.2-.3,2.3,2.3,0,0,1-1.3-1.6h-.4a1.7,1.7,0,0,1-1.2-.5,1.7,1.7,0,0,1-.4-1.7H39a1.7,1.7,0,0,1-1.5-1.3,3.1,3.1,0,0,1,.3-2.1,7.8,7.8,0,0,1,3.1-3.4l1-.5h0a6.5,6.5,0,0,1,1.9-.4h.9m0-3H43.4a9.2,9.2,0,0,0-2.5.6h-.1l-1.4.7a10.8,10.8,0,0,0-4.3,4.7,6.3,6.3,0,0,0-.5,4.2,5.6,5.6,0,0,0,1.7,2.6,4.2,4.2,0,0,0,1,1.7,6.2,6.2,0,0,0,1.9,1.2,6.5,6.5,0,0,0,1.8,1.5,5.8,5.8,0,0,0,2.6.6h2.2a5.7,5.7,0,0,0,2.5-.6,6.5,6.5,0,0,0,1.8-1.5,6.7,6.7,0,0,0,2-1.2,5.9,5.9,0,0,0,1-1.7,4.8,4.8,0,0,0,1.6-2.6,5.8,5.8,0,0,0-.5-4.2,9.8,9.8,0,0,0-4.3-4.7,11.2,11.2,0,0,0-4.3-1.4Z" style="fill:#ff8d3d"/><path d="M44.6,127.2h0m0-2.8h0m0-2.6v3h0v.3h0V128h0v.8h0V131a21.7,21.7,0,0,0,.1-2.6V122h-.1m0-1.1v1h.1a3.1,3.1,0,0,0-.1-1" style="fill:#de9161;mix-blend-mode:multiply"/><path d="M41.3,127.8h0c-.1,0-.1,0-.1-.1a9.2,9.2,0,0,0-.1,1.6,7.8,7.8,0,0,1,.2-1.6m1.8-5.2h0m1.4-1.9h-.1l-.3.4-.4.5-.3.5-.3.5a.5.5,0,0,0-.2.4h0l-.2.2h0l-.7,1.4a12.1,12.1,0,0,0-.5,1.8h0a.9.9,0,0,0-.1.5,6.4,6.4,0,0,1-.2.7h.1a6.4,6.4,0,0,0,.2-.7,8.9,8.9,0,0,1,.6-2h0v-.2c.1-.4.3-.8.4-1.1h0a.1.1,0,0,1,.1-.1,9.3,9.3,0,0,1,.5-1l.3-.5.3-.5.3-.5.3-.4h.1" style="fill:#de9161;mix-blend-mode:multiply"/><path d="M47.3,124.9h0m-2.5-4.2.4.4.3.5.4.5.3.5c.3.7.7,1.4,1,2.2a18.7,18.7,0,0,1,.7,2.2,7.7,7.7,0,0,1,.2,1.5h0a2.8,2.8,0,0,1,.1.9A19.4,19.4,0,0,0,48,127a20.2,20.2,0,0,0-.7-2.3,21.2,21.2,0,0,0-1.1-2.1l-.3-.5-.3-.5-.4-.5-.4-.4" style="fill:#de9161;mix-blend-mode:multiply"/><path d="M44.3,120.5l-.4.3-.4.3-.4.4-.4.4-.6.6H42l-.8.9h-.1l-.3.5h-.1l-.4.6h-.1l-.2.3-.9,1.9,1-1.9,1.2-1.7,1.5-1.7.3-.3.4-.4.4-.4.4-.3" style="fill:#de9161;mix-blend-mode:multiply"/><path d="M44.9,120.5l.5.3.4.4.4.4.3.3h.1a6.4,6.4,0,0,1,1.3,1.5,10.9,10.9,0,0,1,1.3,1.7l1,1.9a17.4,17.4,0,0,0-1-1.9,7.1,7.1,0,0,0-1.2-1.8,10.7,10.7,0,0,0-1.4-1.6l-.4-.4-.4-.4-.4-.3-.5-.3" style="fill:#de9161;mix-blend-mode:multiply"/><path d="M48.6,189.5a1.9,1.9,0,0,1-1.2-.4l-2.7-1.8L42.2,189a2.5,2.5,0,0,1-1.3.5,1.7,1.7,0,0,1-1.3-.7,2,2,0,0,1-.2-1.8l.9-3-2.4-1.8a1.8,1.8,0,0,1,1.1-3.3h3l1-2.8a1.7,1.7,0,0,1,3.4-.1l1.1,2.9h2.9c.5,0,1.8,0,2.1,1.1a1.9,1.9,0,0,1-.9,2.2L49.2,184l.8,2.9a2.1,2.1,0,0,1-.2,2,1.6,1.6,0,0,1-1.2.6Z" style="fill:#fc97b8;fill-rule:evenodd"/><path d="M44.7,176c.1,0,.2.2.3.4l1.2,3.4a1.2,1.2,0,0,0,.7.5h3.5c.9,0,.9.1.3.6l-2.9,2.2a.7.7,0,0,0-.2.8l1,3.3c.1.6.1.7,0,.7l-.5-.3-3-2h-.8l-2.9,2.1-.5.2c-.2,0-.2-.2-.1-.6l1-3.4a1,1,0,0,0-.2-.9L38.8,181c-.5-.3-.4-.6.3-.6h3.3a1.1,1.1,0,0,0,.9-.7l1.1-3.1c.1-.3.2-.5.3-.5m0-3a3.3,3.3,0,0,0-3.1,2.5l-.7,1.8H39a3.1,3.1,0,0,0-3.3,2.3,3.2,3.2,0,0,0,1.3,3.7l1.5,1.2-.5,1.9a3.2,3.2,0,0,0,.4,3.2,3.1,3.1,0,0,0,2.5,1.3,3.4,3.4,0,0,0,2.2-.8l1.6-1.1,1.7,1.1h.1a4.3,4.3,0,0,0,2.1.7,3.2,3.2,0,0,0,2.4-1.1,3.8,3.8,0,0,0,.5-3.3h-.1l-.5-1.9,1.6-1.3a3.3,3.3,0,0,0,1.5-3.7,3.3,3.3,0,0,0-3.5-2.2h-2l-.7-1.9a3.2,3.2,0,0,0-3.1-2.4Z" style="fill:#e75c78"/><path d="M44.5,180.2l-.6,1.7a.4.4,0,0,1-.4.4H41.6c-.4,0-.4.1-.1.3l1.5,1.2a.4.4,0,0,1,.1.5l-.5,1.8c-.1.4,0,.4.3.2l1.6-1.1a.3.3,0,0,1,.4,0l1.7,1.1c.2.2.4.3.2-.2l-.5-1.9c-.1-.1,0-.3.1-.4l1.6-1.2c.3-.3.3-.3-.2-.4H45.9a.3.3,0,0,1-.3-.3l-.7-1.8C44.8,179.9,44.6,179.9,44.5,180.2Z" style="fill:#fff;fill-rule:evenodd;opacity:0.5"/><path d="M44.8,213.5l5.2,5.6H39.6l5.2-5.6m0-3h-.1a3.2,3.2,0,0,0-2.1,1L37.4,217a3.1,3.1,0,0,0-.5,3.3,3.1,3.1,0,0,0,2.7,1.8H50a3.1,3.1,0,0,0,2.2-5.1l-5.3-5.5a2.8,2.8,0,0,0-2.1-1Z" style="fill:#6ab3b9"/><path d="M50,219.1h0m0,0-5.2,5.5-5.2-5.5H50m0-3H39.6a2.9,2.9,0,0,0-2.7,1.8,2.9,2.9,0,0,0,.5,3.2l5.2,5.5a2.8,2.8,0,0,0,2.1,1h.1a2.8,2.8,0,0,0,2.1-1l5.2-5.4a3.3,3.3,0,0,0,.9-2.1,3,3,0,0,0-3-3Zm0,6Z" style="fill:#6ab3b9"/><polygon points="44.8 213.5 50 219.1 46.5 219.1 44.8 213.5" style="fill:#87e7de;fill-rule:evenodd"/><polygon points="44.8 213.5 43.1 219.1 46.5 219.1 44.8 213.5" style="fill:#5ecdc3;fill-rule:evenodd"/><polygon points="44.8 213.5 39.6 219.1 43.1 219.1 44.8 213.5" style="fill:#87e7de;fill-rule:evenodd"/><polygon points="44.8 224.6 50 219.1 46.5 219.1 44.8 224.6" style="fill:#5ecdc3;fill-rule:evenodd"/><polygon points="44.8 224.6 43.1 219.1 46.5 219.1 44.8 224.6" style="fill:#87e7de;fill-rule:evenodd"/><polygon points="44.8 224.6 39.6 219.1 43.1 219.1 44.8 224.6" style="fill:#5ecdc3;fill-rule:evenodd"/><path d="M18,85.9h-.2V187.1h1.8V86.3a7,7,0,0,1-1.4-.3H18" style="fill:#b04d36"/><polygon points="18.7 187.6 21.6 190.2 19.7 190.2 18.7 187.6" style="fill:#f6b9c9;fill-rule:evenodd"/><polygon points="18.7 187.6 17.8 190.1 19.7 190.2 18.7 187.6" style="fill:#ee9fb4;fill-rule:evenodd"/><polygon points="18.7 187.6 15.9 190.1 17.8 190.1 18.7 187.6" style="fill:#f6b9c9;fill-rule:evenodd"/><rect x="15.9" y="190.2" width="5.8" height="9.75" style="fill:#ee9fb4"/><rect x="17.8" y="190.2" width="1.9" height="9.75" style="fill:#f6b9c9"/><polygon points="18.7 202.4 21.6 199.9 19.7 199.9 18.7 202.4" style="fill:#f6b9c9;fill-rule:evenodd"/><polygon points="18.7 202.4 17.8 199.9 19.7 199.9 18.7 202.4" style="fill:#ee9fb4;fill-rule:evenodd"/><polygon points="18.7 202.4 15.9 199.9 17.8 199.9 18.7 202.4" style="fill:#f6b9c9;fill-rule:evenodd"/><path d="M18.7,187.6l2.9,2.6h0v9.7h0l-2.9,2.5-2.8-2.5h0v-9.8h0l2.8-2.5m2.9,12.3h0m-2.9-15.3a3.2,3.2,0,0,0-2,.8l-2.8,2.5a1.6,1.6,0,0,0-.6.8,2.8,2.8,0,0,0-.4,1.3v9.9a2.8,2.8,0,0,0,1,2.2l2.8,2.6a3.2,3.2,0,0,0,4,0l2.9-2.5a3.1,3.1,0,0,0,1-2.3h0v-9.6a3.5,3.5,0,0,0-.8-2.2h-.2l-2.9-2.6a2.9,2.9,0,0,0-2-.7Z" style="fill:#fa789e"/><path d="M18.1,143.8a5.3,5.3,0,0,1-5.4-4.9c-.3-2.1,1.4-3.5,2.4-4.3l.2-.2c0-.3-.1-.6-.1-.9a1.8,1.8,0,0,1,1.9-1.8l1,.2h1.1a2.1,2.1,0,0,1,1.2-.3,1.8,1.8,0,0,1,1.5.7,2.1,2.1,0,0,1,.3,2.2l.2.2a5.8,5.8,0,0,1,2.1,3.2,4.6,4.6,0,0,1-.9,3.4,6.6,6.6,0,0,1-4.5,2.4Z" style="fill:#cec2ef;fill-rule:evenodd"/><path d="M20.4,133.1c.1,0,.2,0,.3.2s-.3,1-.2,1.5,2.3,1.7,2.5,3.3-1,3.7-4.1,4.1h-.8a3.9,3.9,0,0,1-3.9-3.6c-.3-2,2.4-3.1,2.7-3.8s-.2-.6-.2-1.4.2-.3.4-.3,1,.3,1.6.3h0c.7,0,1.3-.4,1.7-.4m0-3a3.2,3.2,0,0,0-1.7.4h-.1l-1.5-.2a3.3,3.3,0,0,0-3.4,3.2v.3c-1.1,1-2.9,2.8-2.5,5.5a6.8,6.8,0,0,0,6.9,6.1h1.3a7.9,7.9,0,0,0,5.4-3,6.1,6.1,0,0,0,1.2-4.5,6.5,6.5,0,0,0-2.2-3.7,3.3,3.3,0,0,0-.7-2.6,3.7,3.7,0,0,0-2.7-1.3Z" style="fill:#baa2ee"/><path d="M19.4,142.1l1.4-.4c-.6-2.1-1.8-7-1.9-7.4S19.4,139.5,19.4,142.1Z" style="fill:#9391bb;fill-rule:evenodd;opacity:0.30000000000000004;mix-blend-mode:multiply"/><path d="M22.1,140.8a3.7,3.7,0,0,0,.7-1.2l-3.2-5.2C19.3,134,21.1,138.3,22.1,140.8Z" style="fill:#9391bb;fill-rule:evenodd;opacity:0.30000000000000004;mix-blend-mode:multiply"/><path d="M16.1,141.8a3.3,3.3,0,0,0,1.4.4c.2-2.5,1-8.5.9-8S16.8,139.8,16.1,141.8Z" style="fill:#9391bb;fill-rule:evenodd;opacity:0.30000000000000004;mix-blend-mode:multiply"/><path d="M14.3,139.4a5.2,5.2,0,0,0,.6,1.3c1.1-2.5,3.1-6.8,2.8-6.4S15.6,137.6,14.3,139.4Z" style="fill:#9391bb;fill-rule:evenodd;opacity:0.30000000000000004;mix-blend-mode:multiply"/><path d="M16.6,158.9a6.3,6.3,0,0,0,1.3,4.2h1.7a6.2,6.2,0,0,0,1.3-4.1c0-1.9-.5-3.5-1.3-4.2H18A5.7,5.7,0,0,0,16.6,158.9Z" style="fill:#ffc873;fill-rule:evenodd"/><path d="M17.3,156.8c-.2.8,0,1.5.4,1.6s.7-.5.9-1.3,0-1.5-.4-1.5S17.4,156.1,17.3,156.8Z" style="fill:#fff;fill-rule:evenodd;opacity:0.5"/><path d="M18,154.8h1.6c.8.7,1.3,2.3,1.3,4.2a6.2,6.2,0,0,1-1.3,4.1H17.9a6.3,6.3,0,0,1-1.3-4.2,5.7,5.7,0,0,1,1.4-4.1m0-3a3.2,3.2,0,0,0-2,.7,8.5,8.5,0,0,0-2.4,6.4,8.7,8.7,0,0,0,2.3,6.4,3.2,3.2,0,0,0,2,.8h1.7a3.2,3.2,0,0,0,1.9-.7,8.5,8.5,0,0,0,2.4-6.4c0-2.8-.9-5.2-2.3-6.4a3.2,3.2,0,0,0-2-.8Z" style="fill:#ffaa5a"/><path d="M71.2,85.9h-.3l-1.3.3V187.1h1.8V85.9h-.1" style="fill:#b04d36"/><polygon points="70.4 187.6 67.5 190.2 69.5 190.2 70.4 187.6" style="fill:#f6b9c9;fill-rule:evenodd"/><polygon points="70.4 187.6 71.4 190.1 69.5 190.2 70.4 187.6" style="fill:#ee9fb4;fill-rule:evenodd"/><polygon points="70.4 187.6 73.3 190.1 71.4 190.1 70.4 187.6" style="fill:#f6b9c9;fill-rule:evenodd"/><rect x="67.5" y="190.2" width="5.8" height="9.75" style="fill:#ee9fb4"/><rect x="69.5" y="190.2" width="1.9" height="9.75" style="fill:#f6b9c9"/><polygon points="70.5 202.4 67.5 199.9 69.5 199.9 70.5 202.4" style="fill:#f6b9c9;fill-rule:evenodd"/><polygon points="70.5 202.4 71.4 199.9 69.5 199.9 70.5 202.4" style="fill:#ee9fb4;fill-rule:evenodd"/><polygon points="70.5 202.4 73.3 199.9 71.4 199.9 70.5 202.4" style="fill:#f6b9c9;fill-rule:evenodd"/><path d="M70.4,187.6l2.9,2.5h0v9.8h0l-2.8,2.5-3-2.5h0v-9.7h0l2.9-2.6m2.9,12.3h0m-2.9-15.3a2.6,2.6,0,0,0-1.9.7l-2.9,2.6h-.2a3.6,3.6,0,0,0-.9,2.2v9.7a3.4,3.4,0,0,0,1.1,2.3l2.9,2.5a2.7,2.7,0,0,0,2,.7,3.1,3.1,0,0,0,2-.7l2.8-2.5a3.3,3.3,0,0,0,1-2.3h0V190a2.8,2.8,0,0,0-.4-1.3,1.6,1.6,0,0,0-.6-.8l-2.9-2.5a2.8,2.8,0,0,0-2-.8Z" style="fill:#fa789e"/><path d="M71,143.8H70a6.4,6.4,0,0,1-4.4-2.4,4.2,4.2,0,0,1-.9-3.4,5.3,5.3,0,0,1,2.1-3.2l.2-.2a2.1,2.1,0,0,1,.3-2.2,1.8,1.8,0,0,1,1.5-.7,2.1,2.1,0,0,1,1.2.3h1l1.1-.2a1.9,1.9,0,0,1,1.9,1.8c0,.3-.1.6-.1.9l.2.2c1,.8,2.7,2.2,2.4,4.3A5.4,5.4,0,0,1,71,143.8Z" style="fill:#cec2ef;fill-rule:evenodd"/><path d="M68.8,133.1c.4,0,1,.4,1.6.4h0c.6,0,1.3-.3,1.7-.3s.3.1.4.3-.4.8-.2,1.4,3,1.8,2.7,3.8a3.9,3.9,0,0,1-4,3.6h-.8c-3-.4-4.3-2.4-4-4.1s2.3-2.5,2.5-3.3-.7-1-.2-1.5.2-.2.3-.2m0-3a3.7,3.7,0,0,0-2.7,1.3,3.3,3.3,0,0,0-.7,2.6,6.5,6.5,0,0,0-2.2,3.7,6.1,6.1,0,0,0,1.2,4.5,7.9,7.9,0,0,0,5.4,3H71a7,7,0,0,0,7-6.1c.4-2.7-1.4-4.5-2.5-5.5v-.3a3.4,3.4,0,0,0-3.4-3.2l-1.5.2h-.1a3.5,3.5,0,0,0-1.7-.4Z" style="fill:#baa2ee"/><path d="M69.8,142.1l-1.4-.4c.6-2.1,1.8-7,1.9-7.4S69.8,139.5,69.8,142.1Z" style="fill:#9391bb;fill-rule:evenodd;opacity:0.30000000000000004;mix-blend-mode:multiply"/><path d="M67.1,140.8a3.7,3.7,0,0,1-.7-1.2l3.2-5.2C69.8,134,68,138.3,67.1,140.8Z" style="fill:#9391bb;fill-rule:evenodd;opacity:0.30000000000000004;mix-blend-mode:multiply"/><path d="M73,141.8a2.5,2.5,0,0,1-1.3.4c-.2-2.5-1.1-8.5-.9-8S72.4,139.8,73,141.8Z" style="fill:#9391bb;fill-rule:evenodd;opacity:0.30000000000000004;mix-blend-mode:multiply"/><path d="M74.9,139.4l-.6,1.3c-1.1-2.5-3.1-6.8-2.8-6.4S73.6,137.6,74.9,139.4Z" style="fill:#9391bb;fill-rule:evenodd;opacity:0.30000000000000004;mix-blend-mode:multiply"/><path d="M72.5,158.9a5.9,5.9,0,0,1-1.2,4.2H69.6a5.7,5.7,0,0,1-1.3-4.1c0-1.9.5-3.5,1.3-4.2h1.6A5.7,5.7,0,0,1,72.5,158.9Z" style="fill:#ffc873;fill-rule:evenodd"/><path d="M71.9,156.8c.2.8,0,1.5-.4,1.6s-.8-.5-.9-1.3,0-1.5.4-1.5S71.8,156.1,71.9,156.8Z" style="fill:#fff;fill-rule:evenodd;opacity:0.5"/><path d="M71.2,154.8a5.7,5.7,0,0,1,1.3,4.1,5.9,5.9,0,0,1-1.2,4.2H69.6a5.7,5.7,0,0,1-1.3-4.1c0-1.9.5-3.5,1.3-4.2h1.6m0-3H69.6a2.8,2.8,0,0,0-2,.8c-1.5,1.2-2.3,3.6-2.3,6.4a8.9,8.9,0,0,0,2.3,6.4,3.7,3.7,0,0,0,2,.7h1.7a2.7,2.7,0,0,0,1.9-.8,8,8,0,0,0,2.3-6.4c0-2.7-.8-5.1-2.3-6.4a3.2,3.2,0,0,0-2-.7Z" style="fill:#ffaa5a"/><path d="M26.5,29.7H26a1,1,0,0,1-.4-1.4L39.2,5.3a6,6,0,0,1,5.1-2.9h.1a5.8,5.8,0,0,1,5,2.8l14.2,23a1,1,0,0,1-.4,1.4,1,1,0,0,1-1.3-.3L47.7,6.3a3.9,3.9,0,0,0-3.3-1.9h-.1A3.7,3.7,0,0,0,41,6.3l-13.7,23A.9.9,0,0,1,26.5,29.7Z" style="fill:#b04d36"/><path d="M44.7,108.1a41.1,41.1,0,1,1,0-82.1,39.9,39.9,0,0,1,17.7,4,1.5,1.5,0,0,1,.8,1.8,1.6,1.6,0,0,1-1.4,1.1c-.1,0-.2,0-.2-.1h-3A26,26,0,1,0,82.8,68.2a1.5,1.5,0,0,1,1.4-1h.3a1.5,1.5,0,0,1,1.2,1.5A40.9,40.9,0,0,1,44.7,108.1Z" style="fill:#6ab3b9;fill-rule:evenodd"/><path d="M44.7,27.5a39.4,39.4,0,0,1,17.1,3.9,17.7,17.7,0,0,0-3.2-.2A27.5,27.5,0,1,0,84.2,68.7,39.6,39.6,0,1,1,44.7,27.5M84.2,68.7h0M44.7,24.5A42.6,42.6,0,1,0,87.2,69v-.3a3.1,3.1,0,0,0-2.9-3h-.5a2.2,2.2,0,0,0-1.4.5l-.7.8-.3.6A24.5,24.5,0,1,1,58.6,34.2h3.2a2.9,2.9,0,0,0,2.8-2.2,2.9,2.9,0,0,0-1.5-3.5,42,42,0,0,0-18.4-4.2Z" style="fill:#3b7e82"/><path d="M45.9,25.2h.5a.9.9,0,0,1,.7,1.1.5.5,0,0,1-.2.4,42.9,42.9,0,0,1,13.5,3.1l.5-.4a2.7,2.7,0,0,1,1.2-.3,2.1,2.1,0,0,1,1.2.5.9.9,0,0,1,.3,1.3l-.4.3a40.2,40.2,0,0,1,10,7.3l1,1h.9A2.1,2.1,0,0,1,77,40.4a1,1,0,0,1-.3,1.4h-.5a38.2,38.2,0,0,1,6.7,12l.7.2a2.1,2.1,0,0,1,1.5,1.8.9.9,0,0,1-.8,1.1h-.5A41.7,41.7,0,0,1,85.1,67c0,1.3-.1,2.5-.2,3.7l.5.4a2.5,2.5,0,0,1,.7,2.4,1.1,1.1,0,0,1-.9.7h-.3l-.4-.2a40,40,0,0,1-4.6,12.8l.4.6a2.3,2.3,0,0,1-.4,2.4.9.9,0,0,1-.7.3c-.2,0-.5,0-.6-.2s-.3-.2-.3-.4a43.1,43.1,0,0,1-5.1,6.2,41.9,41.9,0,0,1-4.5,3.9c0,.2.1.4.1.6a2.4,2.4,0,0,1-1.3,2h-.4a.9.9,0,0,1-.9-.6.4.4,0,0,1-.1-.3,39.7,39.7,0,0,1-12.2,5,6.4,6.4,0,0,1-.2.7,2.3,2.3,0,0,1-2,1.3h-.1a.9.9,0,0,1-.9-1,.8.8,0,0,1,.1-.4,40.7,40.7,0,0,1-6.1.5,47.9,47.9,0,0,1-7.7-.7l-.5.5a2.4,2.4,0,0,1-1.5.6l-.9-.2a1,1,0,0,1-.5-1.3l.3-.4a38.9,38.9,0,0,1-12.2-5.7.9.9,0,0,1-.7.3h-.6a2.2,2.2,0,0,1-1.7-.7.9.9,0,0,1,.1-1.3.4.4,0,0,1,.4-.2l-3.1-2.8A44.1,44.1,0,0,1,10.2,88H9.5a2.3,2.3,0,0,1-1.9-1.5.9.9,0,0,1,.6-1.2h.5a38.5,38.5,0,0,1-4-13.1L4.1,72A2.2,2.2,0,0,1,3,69.8,1,1,0,0,1,4,69h.4A14.8,14.8,0,0,1,4.3,67,40,40,0,0,1,6,55.5a1.2,1.2,0,0,1-.5-.5,2.1,2.1,0,0,1-.1-2.4,1,1,0,0,1,.8-.5h.5l.3.4a41,41,0,0,1,7-11.8,1.9,1.9,0,0,0-.2-.7,2.3,2.3,0,0,1,.9-2.2l.6-.2a.8.8,0,0,1,.7.4c.1.1.2.2.2.3a40.2,40.2,0,0,1,11.2-7.8V30a2.4,2.4,0,0,1,1.7-1.7h.2a1,1,0,0,1,1,.7v.3a40,40,0,0,1,13.5-2.6c.1-.2.2-.5.4-.6a2,2,0,0,1,1.7-.9M30.2,34.5a2.4,2.4,0,0,1-1.5-.6c0-.1-.1-.1-.2-.2a37.1,37.1,0,0,0-10,7.1l-.3.3.5.2a1,1,0,0,1,.1,1.4,2,2,0,0,1-1.5.6h-.9A37.3,37.3,0,0,0,10,54h.5a1,1,0,0,1,.6,1.2,2.1,2.1,0,0,1-1.8,1.3H9.1A35.2,35.2,0,0,0,7.6,67c0,.8.1,1.6.1,2.4a.7.7,0,0,1,.6-.3h.1a1,1,0,0,1,.9.9,2,2,0,0,1-1.1,2H8a37.4,37.4,0,0,0,3.8,12c0-.2.2-.3.3-.4h.5a1,1,0,0,1,.8.5,2,2,0,0,1-.2,2.2c0,.1,0,.1-.1.2a38.4,38.4,0,0,0,5.4,6.8l3,2.7.2-.5a1.1,1.1,0,0,1,.8-.3h.6a2.1,2.1,0,0,1,.7,2.1v.2a35.3,35.3,0,0,0,11.3,5.2.6.6,0,0,1-.1-.4,1,1,0,0,1,1-.8h.2a2,2,0,0,1,1.5,1.7.3.3,0,0,0,.1.2,38.5,38.5,0,0,0,6.9.6,40.5,40.5,0,0,0,6-.5.5.5,0,0,1-.3-.5.9.9,0,0,1,.8-1.1h.3a2,2,0,0,1,1.7.9l.2.2a35.6,35.6,0,0,0,11.3-4.9.5.5,0,0,1-.5-.3.9.9,0,0,1,.2-1.3,1.9,1.9,0,0,1,1.2-.4l1.1.3c.1.1.2.1.2.2a44.7,44.7,0,0,0,4-3.4,35.1,35.1,0,0,0,4.8-6h-.5a1,1,0,0,1-.3-1.3,2.1,2.1,0,0,1,1.8-1h.4a35.7,35.7,0,0,0,4.2-12h-.4a.9.9,0,0,1-.8-1.1,2,2,0,0,1,1.4-1.6h.1c.1-1,.2-2.1.2-3.2a36.9,36.9,0,0,0-1.3-9.5.5.5,0,0,1-.4.2h-.2a1.1,1.1,0,0,1-1-.7,2,2,0,0,1,.7-2.1.1.1,0,0,1,.1-.1,36.1,36.1,0,0,0-6.2-11.2l-.3.4a.7.7,0,0,1-.6.2.8.8,0,0,1-.7-.3,1.8,1.8,0,0,1-.3-2.2v-.2l-.8-.8a40.5,40.5,0,0,0-9.5-6.9,1.3,1.3,0,0,1-.1.6.9.9,0,0,1-.8.5h-.4A1.9,1.9,0,0,1,58.9,33v-.2A37.3,37.3,0,0,0,46.4,30c.1.2.2.3.2.5a1.1,1.1,0,0,1-1,.9h0a2.1,2.1,0,0,1-1.9-1.2V30A35.5,35.5,0,0,0,31,32.6c.2.1.4.2.4.5a.8.8,0,0,1-.5,1.2l-.7.2M45.9,22.2h0a4.9,4.9,0,0,0-3.7,1.6,40.3,40.3,0,0,0-10.9,2,4.6,4.6,0,0,0-2-.5h-.8a5.1,5.1,0,0,0-3.7,3.1,43.6,43.6,0,0,0-9,6.2h-.5a4.1,4.1,0,0,0-2.4.8A5.3,5.3,0,0,0,10.8,40a41.6,41.6,0,0,0-5.7,9.2,3.9,3.9,0,0,0-2.3,1.9,5.4,5.4,0,0,0-.1,5.1A43.2,43.2,0,0,0,1.3,67,3.8,3.8,0,0,0,0,69.6a5.5,5.5,0,0,0,1.9,4.5A40.8,40.8,0,0,0,5,84.4H5a3.7,3.7,0,0,0-.2,3.1,5.1,5.1,0,0,0,3.6,3.4A51.9,51.9,0,0,0,14,97.7l1.5,1.4a4.1,4.1,0,0,0,1,2.9,5.5,5.5,0,0,0,3.9,1.6h.9a43.4,43.4,0,0,0,9.5,4.5,3.8,3.8,0,0,0,2.1,2.2,5.4,5.4,0,0,0,2.1.5,5.2,5.2,0,0,0,2.9-.9,51.9,51.9,0,0,0,6.8.5l4.2-.2a3.9,3.9,0,0,0,2.7,1.1,5,5,0,0,0,4.4-2.4,41,41,0,0,0,9.7-3.9l1.4.2a3.2,3.2,0,0,0,1.6-.4,5.1,5.1,0,0,0,3-3.8,38,38,0,0,0,3.7-3.3,36.7,36.7,0,0,0,4-4.7,3.7,3.7,0,0,0,2.8-1.3,5.4,5.4,0,0,0,1.1-4.9,44.5,44.5,0,0,0,3.7-10,3.9,3.9,0,0,0,1.9-2.4,5.1,5.1,0,0,0-.9-4.9c0-.8.1-1.7.1-2.5a39.3,39.3,0,0,0-.9-8.4,4,4,0,0,0,.9-3,5.2,5.2,0,0,0-2.9-4.1A40.6,40.6,0,0,0,80,41.9h0a3.5,3.5,0,0,0-.4-3,5.4,5.4,0,0,0-4.3-2.6,45.7,45.7,0,0,0-8.6-6.6,4.2,4.2,0,0,0-1.6-2.6,5.7,5.7,0,0,0-3-1,7.1,7.1,0,0,0-2,.4,43.3,43.3,0,0,0-10.6-2.6A4.2,4.2,0,0,0,47,22.3ZM34.4,34.6a33.7,33.7,0,0,1,7.8-1.5,4.9,4.9,0,0,0,3.3,1.3h.1a3.8,3.8,0,0,0,2.9-1.2A36.6,36.6,0,0,1,56.3,35a4.7,4.7,0,0,0,2.5,2.7,4.7,4.7,0,0,0,1.7.3,4,4,0,0,0,1.5-.3,38.2,38.2,0,0,1,6.4,4.8A4.6,4.6,0,0,0,69.6,46a3.9,3.9,0,0,0,2.9,1.3,37.2,37.2,0,0,1,3.8,7.1,5,5,0,0,0-.2,3.6,4,4,0,0,0,2,2.4,37,37,0,0,1,.7,6.6,7.6,7.6,0,0,1-.1,1.5,5.2,5.2,0,0,0-1.6,3.1,4.1,4.1,0,0,0,.8,2.9,32.7,32.7,0,0,1-2.7,7.6,5,5,0,0,0-2.9,2.3,3.8,3.8,0,0,0-.4,3.1,26.7,26.7,0,0,1-3.1,3.6l-2.4,2.2h-.8a5,5,0,0,0-2.9.9,3.7,3.7,0,0,0-1.6,2.8,34.8,34.8,0,0,1-6.9,2.9,5,5,0,0,0-2.7-.8h-.9a3.8,3.8,0,0,0-2.7,1.9H44.7a38.7,38.7,0,0,1-4.8-.3,4.9,4.9,0,0,0-3-2.1H36a4.8,4.8,0,0,0-2.3.7A31.2,31.2,0,0,1,26.8,96a5.6,5.6,0,0,0-1.9-3.1,4.2,4.2,0,0,0-2.4-.7h-.8a11.4,11.4,0,0,1-1.1-1.1,32.3,32.3,0,0,1-4.1-4.9,4.6,4.6,0,0,0-.5-3.6,3.7,3.7,0,0,0-2.5-1.9,33.3,33.3,0,0,1-2.3-7.4,5.2,5.2,0,0,0,1.1-3.6,4.2,4.2,0,0,0-1.7-2.9,34.7,34.7,0,0,1,1-7.8,4.7,4.7,0,0,0,2.3-2.7,4.2,4.2,0,0,0-.2-3.1.1.1,0,0,0-.1-.1,33.2,33.2,0,0,1,4.1-6.8A5.2,5.2,0,0,0,21,44.7a3.7,3.7,0,0,0,1-2.8v-.3a45.3,45.3,0,0,1,6.3-4.5,4.1,4.1,0,0,0,1.9.4,6.5,6.5,0,0,0,1.9-.4,3.8,3.8,0,0,0,2.1-2.2l.2-.3Z" style="fill:#ac538c"/><path d="M44.7,26.7A40.3,40.3,0,1,1,16.1,38.5,40.2,40.2,0,0,1,44.7,26.7ZM70.9,40.8A37.1,37.1,0,1,0,81.8,67,37,37,0,0,0,70.9,40.8Z" style="fill:#feb6d2;fill-rule:evenodd"/><path d="M60.5,35h-.4A1.9,1.9,0,0,1,58.9,33a4.5,4.5,0,0,1,2-3.6,2.3,2.3,0,0,1,2.4.2.9.9,0,0,1,.3,1.3,1.1,1.1,0,0,1-1.4.2c-.1,0-.1-.1-.4,0a2.6,2.6,0,0,0-1,1.9s0,.2.1.2a1,1,0,0,1,.4,1.3A.9.9,0,0,1,60.5,35Z" style="fill:#b4668a"/><path d="M45.6,31.4h0a2.1,2.1,0,0,1-1.9-1.2,4.3,4.3,0,0,1,.5-4.1,2,2,0,0,1,2.2-.9.9.9,0,0,1,.7,1.1,1,1,0,0,1-1.1.8c-.1,0-.2-.1-.3.1a2.3,2.3,0,0,0-.2,2.1v.2a1.1,1.1,0,0,1,1,1A1.1,1.1,0,0,1,45.6,31.4Z" style="fill:#b4668a"/><path d="M30.2,34.5a2.4,2.4,0,0,1-1.5-.6A4.4,4.4,0,0,1,27.4,30a2.4,2.4,0,0,1,1.7-1.7,1,1,0,0,1,1.2.7,1.1,1.1,0,0,1-.7,1.2c-.1,0-.2,0-.3.2a2.8,2.8,0,0,0,.7,2.1h.2a.9.9,0,0,1,.7,1.7Z" style="fill:#b4668a"/><path d="M17.3,43.3h-.7a4.6,4.6,0,0,1-2.8-3.1,2.3,2.3,0,0,1,.9-2.2.9.9,0,0,1,1.3.2.8.8,0,0,1-.2,1.3c0,.1-.1.1-.1.4a2.3,2.3,0,0,0,1.5,1.5h.2a.9.9,0,0,1,1.3-.1,1,1,0,0,1,.1,1.4A2,2,0,0,1,17.3,43.3Z" style="fill:#b4668a"/><path d="M8.9,56.7A4.4,4.4,0,0,1,5.5,55a2.1,2.1,0,0,1-.1-2.4,1,1,0,0,1,1.3-.4,1.1,1.1,0,0,1,.4,1.3c-.1.1-.1.2,0,.4a2.2,2.2,0,0,0,1.9.8h.2a1,1,0,0,1,1.3-.6,1,1,0,0,1,.6,1.2,2.1,2.1,0,0,1-1.8,1.3Z" style="fill:#b4668a"/><path d="M6.1,72.5a4.6,4.6,0,0,1-2-.5A2.2,2.2,0,0,1,3,69.8.9.9,0,0,1,4.1,69a.8.8,0,0,1,.8,1c0,.1,0,.2.2.3a2,2,0,0,0,2.1,0h.2a.9.9,0,0,1,.9-1.1,1,1,0,0,1,1,.9,2,2,0,0,1-1.1,2A4.3,4.3,0,0,1,6.1,72.5Z" style="fill:#b4668a"/><path d="M9.9,88H9.5a2.3,2.3,0,0,1-1.9-1.5.9.9,0,0,1,.6-1.2.9.9,0,0,1,1.2.6c.1.1.1.2.3.2a2.7,2.7,0,0,0,2-.9.1.1,0,0,0,0-.2,1,1,0,0,1,.4-1.3.9.9,0,0,1,1.3.4,2,2,0,0,1-.2,2.2A4.3,4.3,0,0,1,9.9,88Z" style="fill:#b4668a"/><path d="M20.4,100.6a2.2,2.2,0,0,1-1.7-.7.9.9,0,0,1,.1-1.3.9.9,0,0,1,1.3,0c.1.1.2.2.4.1a2.5,2.5,0,0,0,1.4-1.6v-.2a1,1,0,0,1,1.2-1.6,2.1,2.1,0,0,1,.7,2.1,4,4,0,0,1-2.8,3.1Z" style="fill:#b4668a"/><path d="M35,107.8l-.9-.2a1,1,0,1,1,.8-1.8c0,.1.1.1.3-.1a2.5,2.5,0,0,0,.7-2v-.2a.9.9,0,0,1-.8-1.1,1.1,1.1,0,0,1,1.2-.8,2,2,0,0,1,1.5,1.7,4.3,4.3,0,0,1-1.2,3.9A2.4,2.4,0,0,1,35,107.8Z" style="fill:#b4668a"/><path d="M51.6,108.3a.9.9,0,0,1-.9-1,.9.9,0,0,1,.9-.9c.1,0,.2,0,.3-.3a2.3,2.3,0,0,0-.2-2.1h-.2a1,1,0,0,1-.3-1.9,2.1,2.1,0,0,1,2,.9,4.6,4.6,0,0,1,.5,4.1,2.3,2.3,0,0,1-2,1.3Z" style="fill:#b4668a"/><path d="M67.1,102.2a.9.9,0,0,1-.9-.6,1,1,0,0,1,.5-1.3s.1,0,.1-.3a2.2,2.2,0,0,0-1-1.8h-.3a.9.9,0,1,1-1.1-1.5,2.1,2.1,0,0,1,2.3-.1,4.4,4.4,0,0,1,2.1,3.6,2.4,2.4,0,0,1-1.3,2Z" style="fill:#b4668a"/><path d="M79.2,90c-.2,0-.5,0-.6-.2a1,1,0,0,1-.1-1.4s.1-.1,0-.3a2.5,2.5,0,0,0-1.7-1.3c-.1,0-.2,0-.2.1a1.1,1.1,0,0,1-1.4.3,1,1,0,0,1-.3-1.3,2.2,2.2,0,0,1,2-1,4.3,4.3,0,0,1,3.4,2.4,2.3,2.3,0,0,1-.4,2.4A.9.9,0,0,1,79.2,90Z" style="fill:#b4668a"/><path d="M85.2,74.2h-.3a1,1,0,0,1-.7-1.2c.1-.3-.2-.5-.5-.6s-1.6-.3-1.7-.1a1,1,0,0,1-1.9-.3,2,2,0,0,1,1.4-1.6,4,4,0,0,1,3.9.8,2.5,2.5,0,0,1,.7,2.4A1.1,1.1,0,0,1,85.2,74.2Z" style="fill:#b4668a"/><path d="M79.9,57.8a1.1,1.1,0,0,1-1-.7,2,2,0,0,1,.7-2.1,4,4,0,0,1,4-.9,2.1,2.1,0,0,1,1.5,1.8.9.9,0,0,1-.8,1.1,1,1,0,0,1-1.1-.8c0-.1,0-.2-.2-.3a2.3,2.3,0,0,0-2.1.5h-.1a1,1,0,0,1-.7,1.2Z" style="fill:#b4668a"/><path d="M72.6,44.3a.8.8,0,0,1-.7-.3,1.8,1.8,0,0,1-.3-2.2,3.9,3.9,0,0,1,3.3-2.4,2.1,2.1,0,0,1,2.1,1,.9.9,0,1,1-1.6,1c-.1-.1-.1-.2-.4-.1a2.3,2.3,0,0,0-1.7,1.2v.3a.9.9,0,0,1-.1,1.3A.7.7,0,0,1,72.6,44.3Z" style="fill:#b4668a"/><path d="M24.1,87.1A7.1,7.1,0,0,0,31.2,80a7.2,7.2,0,1,0-7.1,7.1Z" style="fill:#fff;fill-rule:evenodd"/><path d="M25,42.1a4.1,4.1,0,0,1,3.7,2.5,2.1,2.1,0,0,0-1.7-.8,2.3,2.3,0,1,0,0,4.5,2.1,2.1,0,0,0,1.7-.8A3.9,3.9,0,0,1,25,50a4,4,0,0,1,0-7.9Z" style="fill:#fff;fill-rule:evenodd"/><path d="M19.3,54.8A5.5,5.5,0,0,1,23.8,57a4,4,0,0,0,0,7,5.6,5.6,0,0,1-4.5,2.3,5.8,5.8,0,0,1-5.8-5.8A5.7,5.7,0,0,1,19.3,54.8Z" style="fill:#fff;fill-rule:evenodd"/><path d="M57.2,89.7a4.1,4.1,0,0,0-3.7,2.5,2.3,2.3,0,0,1,1.7-.8,2.3,2.3,0,1,1,0,4.5,2.3,2.3,0,0,1-1.7-.8,4.1,4.1,0,0,0,3.7,2.5,4,4,0,0,0,0-7.9Z" style="fill:#fff;fill-rule:evenodd"/><path d="M39.7,86.9a6,6,0,0,0-4.6,2.2,4,4,0,0,1,2.2,3.5,3.8,3.8,0,0,1-2.2,3.5,5.7,5.7,0,1,0,4.6-9.2Z" style="fill:#fff;fill-rule:evenodd"/><circle cx="44.6" cy="5.9" r="4.4" style="fill:#8d8d8d"/><path d="M44.6,3a2.9,2.9,0,0,1,2.9,2.9,2.9,2.9,0,0,1-5.8,0A2.9,2.9,0,0,1,44.6,3m0-3a5.9,5.9,0,0,0-5.9,5.9,5.9,5.9,0,0,0,11.8,0A5.9,5.9,0,0,0,44.6,0Z" style="fill:#575757"/></g></g></g></svg>