<svg xmlns="http://www.w3.org/2000/svg" viewBox="0 0 269.8 169.3"><g style="isolation:isolate"><g id="Layer_2" data-name="Layer 2"><g id="Layer_1-2" data-name="Layer 1"><path d="M7.2,116.6c6-3.4,18.1-4.7,23.1-19.4,2.8-9.5,1.6-20-4.3-27.2s3.2-8.8,3.2-8.8c27.9-.1,39.7,23.7,39.7,23.7,1.6,11,1.2,12.7-2.2,18.7a8.9,8.9,0,0,1-3.2,3.2c-8,7.2-30.1,23.4-60.1,16.4C3.4,123.2,1.3,120,7.2,116.6Z" style="fill:#8d8d8d"/><path d="M50.3,101.1c6.1-14.5,14.7-8.9,19.3-4.3-.4,2.3-1.4,4.1-2.9,6.8a8.9,8.9,0,0,1-3.2,3.2C57,112.6,41.4,124.2,20,124.9,30,121.4,44.8,114.2,50.3,101.1Z" style="fill:#f2f2f2"/><path d="M51.6,69.4s-11.2-6.9-18-8c24.7,2.2,35.3,23.5,35.3,23.5,1.6,11,1.2,12.7-2.2,18.7a8.9,8.9,0,0,1-3.2,3.2L61,108.9,50.2,92.4S60.5,79.1,51.6,69.4Z" style="fill:#1a1a1a;opacity:0.05"/><path d="M266.8,88.1s-41-81-140.1-43.8c0,0-52,18.9-73.9,43.7a13,13,0,0,0,2.5,19.4c19,12.8,63.3,37.8,120.6,39.8C253.3,149.8,266.8,88.1,266.8,88.1Z" style="fill:#8d8d8d"/><path d="M50.3,101.1c22.5,7.8,62.8,17.2,113.4,21.3,52.4,4.3,87.6-20,102.9-33.6-1.8,6.9-18.2,60.8-90.7,58.4-57.3-2-101.6-27-120.6-39.8A13.2,13.2,0,0,1,50.3,101.1Z" style="fill:#f2f2f2"/><path d="M215.5,93.2a7.2,7.2,0,1,1,14.3-.7,7.2,7.2,0,0,1-6.9,7.5A7.1,7.1,0,0,1,215.5,93.2Z" style="fill:#1a1a1a"/><path d="M167.9,38.7S144.5,12.4,106.2,3c0,0,4.6,36.7,14.2,47.4C120.4,50.4,158.2,59.3,167.9,38.7Z" style="fill:#8d8d8d"/><g style="opacity:0.18"><path d="M168,38.7l-.5,1.4-.8,1.4-.6.9-.6,1-.8.9-.8,1.1-2.1,2-2.5,1.9-1.4.8-1.4.8-3,1.3-3,.9-2.9.4h-3.8l-1-.2-1.7-.4-1.4-.4v-.3l1.5-.4,1.6-.3h1l1-.3,2.4-.4,2.7-.6,2.8-.5,2.8-.8,1.4-.6,1.3-.7,2.5-1.4,1.1-.8,1.1-.9.9-.8.9-.8.7-.8.6-.8,1-1.3a6.4,6.4,0,0,0,.7-1.2Z" style="fill:#1a1a1a"/></g><path d="M120.4,50.4C110.8,39.7,106.2,3,106.2,3l1.4.4a69.9,69.9,0,0,0,2.7,10.4A118.7,118.7,0,0,0,131.9,52,88.8,88.8,0,0,1,120.4,50.4Z" style="fill:#1a1a1a;opacity:0.05"/><path d="M167.9,38.7l-1.5,2.6c-4.4-6-14.5-16.3-36.8-27.7-11.2-5.8-18.5-8.8-23.4-10.2V3C144.5,12.4,167.9,38.7,167.9,38.7Z" style="fill:#fff;opacity:0.19"/><g style="opacity:0.58"><path d="M158.2,32.5l-1.5-.7L153,29.6,150.6,28c-.9-.6-1.7-1.4-2.6-2.1l-2.7-2.1L142.2,22l-3.1-1.7-3-1.8-1.4-.8-1.3-.9a25,25,0,0,1-2.4-1.6l-3.6-2.4-1.3-.9v-.2l1.6.6,1.8.7,2.2,1.1,2.5,1.4,2.8,1.7,2.8,2c1,.6,1.9,1.4,2.9,2.1l2.8,2.2,3,1.7c1,.6,2,1.1,2.8,1.7l2.4,1.6,3.4,2.8,1.2,1.1Z" style="fill:#fff"/></g><path d="M50.3,101.1l15,4.6-1.8,1.1c-7.8,7-29.1,22.7-58.1,16.8C23.7,126.8,50.3,101.1,50.3,101.1Z" style="fill:#1a1a1a;opacity:0.05"/><path d="M80.9,66.1c9.1,15.7,30.6,33.6,80.6,41.3,62.6,9.7,92-5.9,105.1-18.4-2.1,7.7-18.8,60.6-90.7,58.2-57.3-2-101.6-27-120.6-39.8A13,13,0,0,1,52.8,88C59.9,80,70.2,72.5,80.9,66.1Z" style="fill:#1a1a1a;opacity:0.06"/><g style="opacity:0.34"><path d="M28.5,63.8,30,65.5a33,33,0,0,1,3.2,5.1,33.5,33.5,0,0,1,1.4,3.8,21.5,21.5,0,0,1,.9,4.4c.2,1.6.3,3.2.4,4.8s.1,3.3,0,4.9a27.4,27.4,0,0,1-.7,5c-.2.8-.5,1.6-.7,2.3a20.9,20.9,0,0,1-.8,2.3,20,20,0,0,1-1,2.1c-.3.7-.7,1.3-1,1.9l-1.2,1.8c-.4.5-.7,1.1-1.1,1.5a32.8,32.8,0,0,1-2.2,2.6l-1.9,1.9-1.7,1.5h-.1l1.4-1.8,1.5-2.1,1.9-2.7a14,14,0,0,1,1-1.6l1-1.8,1-1.8a12.4,12.4,0,0,1,1-2,14.3,14.3,0,0,0,.8-2.2,14.3,14.3,0,0,0,.8-2.2c.4-1.5.9-3.1,1.2-4.7a19.1,19.1,0,0,0,.3-4.8,22.1,22.1,0,0,0-.7-4.6l-.6-2.2a15.9,15.9,0,0,1-.7-2c-.5-1.3-.9-2.5-1.4-3.6a31.1,31.1,0,0,0-1.4-3.1l-1.1-2.2-1.1-2Z" style="fill:#fff"/></g><g style="opacity:0.5;mix-blend-mode:multiply"><path d="M163.7,122.4C113.3,118.3,73,109,50.5,101.1c5.9-1.6,8.3-2.4,8.3-2.4,7.5,10.2,37.3,10.6,37.3,10.6,20.1,10.2,37.3,5.9,37.3,5.9,2.2,3.8,18,5,18,5s20,1.7,32.4,1.3,20.3-4.4,20.3-4.4c17.2,1.8,29.8-10.3,29.8-10.3,5.5,1.7,21.4-9.3,28.7-14.6C245.7,106,212,126.4,163.7,122.4Z" style="fill:#218bb8"/></g><g style="opacity:0.13"><path d="M60,97.7l-1.1,1.5-.4.7a.5.5,0,0,0-.2.4l-.2.3c0,.1-.1.3-.1.4v.9a.4.4,0,0,1,.1.3v.5h.1l.2.3.4.5-.2.3v.4l-.2.4c0,.2-.1.5-.1.8a.8.8,0,0,0,.1.4.6.6,0,0,0,.1.4l.2.4.4.4-.5-.2h-.3a.2.2,0,0,1-.2-.2h-.3l-.2-.3c-.1-.2-.2-.3-.2-.5a2.5,2.5,0,0,1-.2-1.2c0-.2.1-.4.1-.6s.1-.2.1-.3.1-.2.1-.3l.2.8a.8.8,0,0,1-.4-.4l-.2-.2-.2-.2c0-.2-.2-.4-.2-.5l-.2-.6v-.6c0-.2.1-.4.1-.6s.1-.3.2-.5.1-.3.2-.5l.3-.4.3-.4.8-.7Z" style="fill:#575757"/></g><g style="opacity:0.13"><path d="M98.3,106.8l-1.1,1.5a4.3,4.3,0,0,1-.4.7c-.1.2-.1.3-.2.4l-.2.4c0,.1-.1.2-.1.3s-.1.3-.1.4v.6a.4.4,0,0,1,.1.3l.2.3h0v.2l.3.3.3.5-.2.3v.2h-.1c0,.2-.1.3-.1.4a3.1,3.1,0,0,0-.2.8c0,.2,0,.3.1.4s0,.3.1.4l.3.4.3.4h-.8l-.2-.2c-.1-.1-.2-.1-.2-.2l-.2-.2-.3-.6a2.5,2.5,0,0,1-.2-1.2,1.3,1.3,0,0,0,.1-.6.4.4,0,0,0,.1-.3c.1-.1.1-.1.1-.3l.2.9-.4-.4-.2-.2v-.3l-.3-.5c-.1-.2-.1-.4-.2-.6v-.6a4.3,4.3,0,0,1,.1-.5,1.4,1.4,0,0,1,.2-.6c.1-.1.1-.3.2-.4l.3-.5.4-.4.7-.6A5.6,5.6,0,0,1,98.3,106.8Z" style="fill:#575757"/></g><g style="opacity:0.13"><path d="M133.7,112.1a10.9,10.9,0,0,1-.1,1.8c0,.6-.1,1.2-.1,1.8l-.3,1.7v.8c-.1.2-.1.3,0,.4h0l-.2.9a.1.1,0,0,1-.1.1h-.1l-.2.3-.4.6a1.9,1.9,0,0,0-.3.8,1.9,1.9,0,0,0-.2.8.8.8,0,0,1-.2-.4l-.2-.5v-.9a1.7,1.7,0,0,1,.3-1,.8.8,0,0,1,.2-.4c0-.1.1-.2.1-.3s.1-.1.2-.2v.9a2.5,2.5,0,0,1-.2-.7,1.3,1.3,0,0,1-.1-.6v-1a11.6,11.6,0,0,1,.4-1.8,12.2,12.2,0,0,1,.7-1.7A5.1,5.1,0,0,1,133.7,112.1Z" style="fill:#575757"/></g><g style="opacity:0.13"><path d="M203.1,115.3a3.1,3.1,0,0,1,1.1.9,3.3,3.3,0,0,1,.7,1.3,3.3,3.3,0,0,1,.3,1.5,3.9,3.9,0,0,1-.6,1.5v-.8l.2.2v.2c.1.2.2.3.2.5a1.6,1.6,0,0,1,.3.9,3.1,3.1,0,0,1-.1,1c0,.2-.1.3-.1.5s-.1.2-.2.4-.1-.6-.2-.9l-.3-.7c-.1-.2-.2-.5-.4-.6l-.2-.3h-.3l-.3-.2.2-.7a3.3,3.3,0,0,0,.2-2C203.5,117,203.3,116.2,203.1,115.3Z" style="fill:#575757"/></g><g style="opacity:0.13"><path d="M234.8,112.1c-.1-.2-.2-.3-.2-.5l-.2-.4-.3-.6-.3-.6-.2-.3v-.2h-.1v-.8a3,3,0,0,0,.4-2.1,11.7,11.7,0,0,0-.7-2.5,6,6,0,0,1,1.6,2.2,4,4,0,0,1,.3,1.5,4.2,4.2,0,0,1-.4,1.5v-.8l.2.2.2.2.3.4a3.8,3.8,0,0,1,.3,1,3.4,3.4,0,0,1-.1,1,.8.8,0,0,1-.2.5Z" style="fill:#575757"/></g><g style="opacity:0.33"><path d="M173.9,39.9l.8-.2,2.2-.4c2-.2,4.8-.4,8.1-.4l5.4.2c1.9.2,3.9.4,6,.8a47,47,0,0,1,6.3,1.3c2.2.5,4.3,1.1,6.5,1.8l6.2,2.5a54.3,54.3,0,0,1,5.9,3c1.8,1.1,3.5,2.2,5.1,3.4a52.2,52.2,0,0,1,4.2,3.6l1.7,1.7,1.4,1.7,1.2,1.6c.3.5.7.9.9,1.3s.9,1.6,1.2,2l.3.7-.7-.4-1.9-1.2-2.9-1.8-1.8-1L228,59c-2.8-1.5-6.1-3-9.7-4.5l-2.8-1.1-2.9-1.1c-1.9-.7-3.9-1.5-5.9-2.1l-3-1-2.9-1-5.9-1.8-10.5-3.2-7.6-2.4-2.1-.7Z" style="fill:#fff"/></g><path d="M163.7,122.4c48,4,81.6-16.1,98.6-30-3.8,4.8-25.5,16.3-27.3,19,0,0-25.9,7.1-30.1,10.3,0,0-32.3,2.8-37.5,4.5,0,0-21.4-5.5-35.4-5.1,0,0-30-6-36-6.5,0,0-32.8-9-38.2-9.4a42.3,42.3,0,0,0-7.3-4.1C73,109,113.3,118.3,163.7,122.4Z" style="fill:#1a1a1a;opacity:0.4"/><path d="M175.9,147.2c-57.3-2-101.6-27-120.6-39.8a13.2,13.2,0,0,1-5-6.3,375.7,375.7,0,0,0,49.3,12.7c45.8,35.9,100.7,29,132.9,20.1C219.2,142.2,200.9,148,175.9,147.2Z" style="fill:#ccc"/><path d="M195.2,120.3s-14.8,51.1-68.3,45.6c0,0-4.5-4.6,1-11.3s19.9-11.7,17.4-36.2C145.3,118.4,186.7,108.5,195.2,120.3Z" style="fill:#8d8d8d"/><path d="M165.9,115.1c-2.9,9.4-8.4,21.2-19,27.9-16.9,10.7-19,12.7-20.9,21.6-.9-1.8-1.9-5.4,1.9-10,5.4-6.8,19.9-11.7,17.4-36.2A162.7,162.7,0,0,1,165.9,115.1Z" style="fill:#1a1a1a;opacity:0.08"/><path d="M194.3,119.1a9.4,9.4,0,0,1,.9,1.2s-14.8,51.1-68.3,45.6a7.4,7.4,0,0,1-.9-8.4c10.8,1.2,29.3,1.7,44.8-6.9S191.4,128.8,194.3,119.1Z" style="fill:#1a1a1a;opacity:0.05"/><g style="opacity:0.34"><path d="M190.1,119.5a8.1,8.1,0,0,1,.3,1.6,13.4,13.4,0,0,1-.4,4.2,10.1,10.1,0,0,1-.9,2.6,8.3,8.3,0,0,1-.8,1.2l-1,1.3-1.1,1.2-.9,1.4a21.1,21.1,0,0,0-1.6,3,10.9,10.9,0,0,1-.8,1.5l-.5.8-.5.6-2.1,2.5a20.9,20.9,0,0,1-2.2,2,15,15,0,0,1-2.3,1.5,13.6,13.6,0,0,1-2,1.1l-1.7.6a4.8,4.8,0,0,1-1.6.4l-.2-.3.2-.3.7-1a11,11,0,0,1,1.1-1.4l1.4-1.7,1.8-1.9a19.9,19.9,0,0,1,2.1-1.9l2.4-2a1.8,1.8,0,0,0,.7-.5l.6-.4,1.3-.9a13.1,13.1,0,0,0,1.2-1.1,5.3,5.3,0,0,0,1-1.2,10,10,0,0,0,.8-1.4c.1-.5.3-1,.4-1.5s.3-2,.5-2.9.7-1.6,1-2.4a25.4,25.4,0,0,1,1.8-3.4,11,11,0,0,1,.9-1.4Z" style="fill:#fff"/></g><path d="M106.2,3l1.4.4h0c28.9,7.5,49,24.4,56.8,31.7,4.1-.4,8-.6,11.9-.6,63.4,0,90.5,53.6,90.5,53.6a3.1,3.1,0,0,0-.2.7h0V89h-.1v.3c0,.1-.1.1-.1.2h0v.2h0c0,.1,0,.2-.1.2h0a.4.4,0,0,1-.1.3v.2H266a.4.4,0,0,1-.1.3v.6a.4.4,0,0,1-.1.3v.4c0,.2-.1.3-.1.4h-.1a.4.4,0,0,1-.1.3c0,.1-.1.2-.1.4s-.1.3-.2.4-.1.3-.1.4l-.2.5c0,.1-.1.2-.1.4a.8.8,0,0,0-.2.5c-.1.1-.1.2-.2.4s-.1.3-.2.4h0l-.2.3c-.1.2-.1.4-.2.5s0,.1-.1.2-.1.2-.1.3l-.3.6h0c-.1.1-.1.3-.2.4l-.3.6h0l-.2.3-.3.8-.2.3-.4.8c0,.1-.1.2-.2.4a2.5,2.5,0,0,1-.4.7v.4h-.1l-.4.8c-.1.2-.1.3-.2.4h-.1a2.5,2.5,0,0,1-.4.7l-.2.4h-.1a4.3,4.3,0,0,0-.4.7.5.5,0,0,0-.2.4,3.5,3.5,0,0,0-.5.8l-.3.4a4.1,4.1,0,0,0-.5.9l-.3.4-.6.9-.3.4-.6.9-.3.4-.4.6h0l-.2.3-.3.4-.5.6c0,.1-.1.1-.1.2h-.1l-.3.4-.5.7-.2.2-.3.4-.6.8-.2.2-.3.3-.7.9-.2.2-.2.3-.8.8-.2.3-.2.2-.8.9-.4.4-.9.9-.4.4-.9.9-.4.4H245l-.9.8-.4.4-1,.9-.5.4-1,.8a1,1,0,0,1-.5.4l-1,.8-.5.5-.5.3h-.1l-.5.4-.6.4-.5.4-.3.2c-.1.1-.2.1-.2.2l-.6.4-.6.4-.5.3h0l-.7.5-.6.4-.6.3-.5.4-.8.5-.6.3-.5.3-.5.3-.3.2h-.1l-.5.3-.5.3-1,.5h-.1l-.3.2H227l-.4.2-1.1.6-.6.3h-.3a.1.1,0,0,0-.1.1h0l-1.2.5-.6.3h-.2l-.7.3-.7.3h0l-.8.3-1.4.5h0l-.5.2H218l-1.3.5-.9.3h-.4l-.4.2-.7.2-.9.3h-1l-.8.2-.6.2h-.4l-.8.2h-.3l-.9.3H208l-1,.2h-.1l-1,.2H205l-.8.2-1,.2h-.7l-.9.2h-1.9l-1.2.2h-1.8l-1.2.2H179.3c-9.4,10.1-23.6,19.1-44.4,19.1a73.9,73.9,0,0,1-8-.4h-.3v-.3h-.1c0-.1-.1-.2-.2-.3h0l-.2-.4h0v-.3a.1.1,0,0,1-.1-.1v-.4c-.1,0-.1-.1-.1-.2h-.1c0-.1-.1-.2-.1-.4h0c-.1-.1-.1-.2-.1-.4h0a.7.7,0,0,1-.1-.5h0v-.3c0-.1-.1-.1-.1-.2V161h0v-.2h0v-.8a.7.7,0,0,0,.1-.5h.1a2.5,2.5,0,0,1,.2-.7h0c.1-.1.1-.3.2-.4v-.2c0-.1.1-.2.1-.3h0l.2-.3h0l.4-.8c.1,0,.1-.1.1-.2a1,1,0,0,0,.4-.5l.2-.2a2.4,2.4,0,0,1,.6-.8c2.8-3.5,7.9-6.4,11.9-11.8a240.7,240.7,0,0,1-80.3-32.7h0l-.6.5h-.1l-.5.4-.5.4h-.1l-.5.3-.5.3c0,.1,0,.1-.1.1h-.1l-.5.3-.3.3-.4.2h-.1l-1.3.8h-.1l-1.1.7h-.3a3.1,3.1,0,0,1-1,.5l-.2.2h-.3l-.8.4H50l-.7.3h0l-1.6.9h0l-1.7.8h0l-1.4.7h-.2c0,.1-.1.1-.2.1h0l-1.8.7h0l-1.9.8h0l-2,.7h0l-1.8.6h-.2l-2,.6h-.1l-2.1.5h0l-2.2.4h0l-2.2.4h-.3l-1.7.2h-.3l-2.3.3H15.9l-2.5-.2h-.1l-2.5-.2h-.1l-2.6-.4h0l-2.7-.5h0l-2-.4s-2.1-3.2,3.8-6.6,18.1-4.7,23.1-19.4c2.8-9.5,1.6-20-4.3-27.2s3.2-8.8,3.2-8.8h.2a42.6,42.6,0,0,1,6.4.5h.1l2.1.4h.1l2,.4h.1l2,.6h0A44.9,44.9,0,0,1,63.9,77.7h0l1.4-1.1.5-.4,1.3-.9.4-.3,3.4-2.5.4-.3,1.5-.9.4-.3,3.7-2.4h.2l1.6-1.1.4-.2,1.7-1h.1a293.7,293.7,0,0,1,37.5-18.5c-7.7-12.4-11.7-40.7-12.2-44.2h0V3.1h0M266.6,88.8h0M106.2,0a3,3,0,0,0-2,.8,2.8,2.8,0,0,0-1,2.6h0v.3c.6,4.9,4.1,28.8,10.8,42.3A282.2,282.2,0,0,0,79.4,63.6h-.1l-1.8,1.1-.4.2-1.6,1h-.2l-3.8,2.4-.3.2h-.1l-1.5,1h-.4l-3.5,2.6-.3.2h-.1l-1,.7A47.3,47.3,0,0,0,43.1,60.2l-2.2-.6h-.1l-2.2-.5h0l-2.3-.4h-.1a51.9,51.9,0,0,0-6.8-.5h-.7c-.6.1-5.8,1.1-7.4,5.2s-.1,5.4,2.4,8.4c5,6,6.4,15.4,3.7,24.4s-10.5,12.9-16.7,15.4c-1.8.8-3.5,1.5-5,2.3-3.1,1.8-5,3.9-5.5,6.3a5.3,5.3,0,0,0,.7,4.5,2.7,2.7,0,0,0,1.8,1.3l2,.4h.2l2.7.5,2.8.4,2.7.3H23.5l2.5-.3h.3l1.8-.3h.3l2.3-.4,2.3-.5,2.2-.6,2.2-.6h.1l2-.7,2-.7,2-.8,1.9-.8h.4l1.4-.6,1.8-.9h.1l1.6-.9h.1l.7-.4h0l.9-.5h.3l.3-.2.9-.5h.4l1.1-.7h.1l1.3-.9h.1l.4-.2h.2l.2-.2h.1l.4-.3h.3l.4-.3H59l.4-.3h.2a246.9,246.9,0,0,0,74.6,30.9l-3.7,3.2a45.9,45.9,0,0,0-5,4.8l-.7.9v.2h0a1.8,1.8,0,0,0-.5.7h0l-.2.2a4.1,4.1,0,0,1-.5.9h0l-.2.4h0l-.2.2h0c0,.1,0,.2-.1.2l-.2.6h-.1a2.9,2.9,0,0,0-.2.9c-.1,0-.1.1-.1.2s-.1.4-.1.6v1.1h0v.2h0a.6.6,0,0,0-.1.4v.6h3l-3,.3v.2c0,.2.1.4.1.6v.2a.9.9,0,0,1,.1.5h.1c0,.2.1.3.1.5h.1v.2h.1a.4.4,0,0,0,.1.3h0c.1.1.1.3.2.4h.1a.5.5,0,0,0,.2.4h0l.3.5h0l.3.4h0l.3.3.2.3.2.2h.1a3.1,3.1,0,0,0,1.8.9,78.1,78.1,0,0,0,8.3.4c18,0,33.4-6.4,45.7-19.1h15.3l1.2-.2h5l1-.2H208l.7-.2h2.2l.5-.2h1.1l.8-.2h1l.7-.3h.5l.4-.2h.5l.3-.2.7-.2h.5l1.2-.4h.3l.4-.2h.4l1.2-.5.6-.3h.5l.5-.2h.2l.5-.2h.2l.4-.2h.5l.9-.4h.1l-1.3-2.7,1.4,2.6h.3l.4-.2h.4l1-.5h1.2l.8-.5.3-.2h.2l.5-.2h.5l.5-.3.4-.2h.2l.5-.4h.2l.6-.4.4-.2h.3l.5-.3h.1l.6-.4.4-.3.2-.2h.2l.4-.2.6-.5.4-.3h.6l.2-.2.5-.4.4-.3h.4l.3-.3h.1l.5-.3.4-.4h.2l1-.8.4-.4h.1l1.1-.8.3-.4h.2l1-.9.3-.3h.2l.9-.9h0l.3-.3.2-.2.9-.9.3-.3h.1l.9-.9.3-.3.2-.2.8-.9h.1v-.2l.2-.2h0a3.9,3.9,0,0,0,.8-1l.3-.3h.2l.7-.8.3-.4.2-.2h0l.6-.8.3-.3h.1l.2-.2.5-.7.3-.3h.2l.5-.6.3-.4h.1v-.2h.1l.4-.6.3-.4h0l.6-.9.3-.4h0l.6-.9.3-.4a4.1,4.1,0,0,0,.5-.9l.3-.3h0a4.1,4.1,0,0,0,.5-.9l.3-.4.4-.8h.1l.2-.5a5.6,5.6,0,0,0,.5-.8h0l.2-.2h0l.5-.9h0v-.3h.1a5.9,5.9,0,0,0,.4-.8l.2-.4.4-.7.2-.4.3-.8h.1v-.2h0a2.5,2.5,0,0,1,.4-.7v-.3h.1a6.4,6.4,0,0,1,.2-.7l.2-.3h0l.3-.5v-.4l-2.7-1.2,2.8,1.1h0l.2-.5v-.4l.3-.6V96l.2-.6.2-.3v-.5l.2-.4h0v-.2h0v-.4h.1v-.3h.1v-.6h0v-.6h0v-.2h0v-.2h0v-.4h.1v-.2h.1v-.3h.1v-.3a1.7,1.7,0,0,0,.2-.7,2.8,2.8,0,0,0-.2-2,108,108,0,0,0-22.2-27.6,103.8,103.8,0,0,0-71-27.6c-3.6,0-7.2.2-10.9.5C157.2,24.3,137,8,108.6.5h-.2L106.9.1Z" style="fill:#575757"/></g></g></g></svg>