<svg xmlns="http://www.w3.org/2000/svg" viewBox="0 0 99.7 23.3"><g style="isolation:isolate"><g id="Layer_2" data-name="Layer 2"><g id="Layer_1-2" data-name="Layer 1"><path d="M96.7,18.9v.2c-.4.7-.9,1.2-1.5,1.2H5.7C2.1,20.3,2.1,3,5.7,3H95.2q.9,0,1.5,1.2h0a.7.7,0,0,1-.6.9h-.4l-3.9,1,.3,9.6,3.6,2.5h.4A.6.6,0,0,1,96.7,18.9Z" style="fill:#83932d"/><path d="M96.7,18.8h0v.2c-.4.7-.9,1.2-1.5,1.2H5.7C2.5,20.3,2.1,6.7,4.6,3.6,2.8,7.9,3.4,19.2,6.3,19.2H95.8A1.2,1.2,0,0,0,96.7,18.8Z" style="fill:#4e5a01;opacity:0.25;mix-blend-mode:multiply"/><path d="M96.1,5h-.5L91.8,6l.3,9.2L94,16.4a9.4,9.4,0,0,0,1.7,1.8H7.2c-3.6,0-3.6-14,0-14H96.7A.6.6,0,0,1,96.1,5Z" style="fill:#4e5a01;opacity:0.25;mix-blend-mode:multiply"/><path d="M95.7,18.2H7.8c-3.6,0-3.6-13.1,0-13.1H95.7S89.5,10.6,94,16.4A9.4,9.4,0,0,0,95.7,18.2Z" style="fill:#eed7ce"/><path d="M94,7.1H8.8c-2.6,0-3.3,6.7-2.2,10.6C4.3,15.2,4.6,5.1,7.8,5.1H95.7A8.1,8.1,0,0,0,94,7.1Z" style="fill:#c27e60;opacity:0.25;mix-blend-mode:multiply"/><g style="opacity:0.25;mix-blend-mode:multiply"><path d="M28.4,10c7.3.1,14.5-.3,21.8-.3H71.9c4.1.1,8.2.3,12.3,0,.3,0,.3-.3,0-.4C80.6,8.9,77,9,73.4,9H62.5c-7.3,0-14.5.1-21.8.3-4.1,0-8.2.1-12.3.4-.2,0-.2.4,0,.4Z" style="fill:#c27e60"/></g><g style="opacity:0.25;mix-blend-mode:multiply"><path d="M21,12c5.4.1,10.9-.1,16.3-.2H53.4c3.1,0,6.3.2,9.3-.1a.2.2,0,1,0,0-.4,73,73,0,0,0-8.1-.2H46.4l-16.1.2-9.3.4a.1.1,0,1,0,0,.3Z" style="fill:#c27e60"/></g><g style="opacity:0.25;mix-blend-mode:multiply"><path d="M41.8,14.9c5.7.2,11.4-.1,17.1-.2L76,14.5h4.9a23.7,23.7,0,0,0,4.6-.3c.1,0,.1-.2,0-.3a46,46,0,0,0-8.3-.1H68.6l-17.1.3c-3.2.1-6.5.1-9.7.4-.3,0-.3.3,0,.4Z" style="fill:#c27e60"/></g><path d="M95.2,3q.9,0,1.5,1.2h0v.3a.6.6,0,0,1-.6.6h-.4a.1.1,0,0,0-.1.1h-.2l-.2.2h0l-.3.3h0l-.3.3h0l-.3.4h0l-.3.4h0c-1.4,2.1-2.8,5.7,0,9.3a9.4,9.4,0,0,0,1.7,1.8h.4a.6.6,0,0,1,.6.6h0v.2c-.4.7-.9,1.2-1.5,1.2H5.1A.1.1,0,0,1,5,20H4.7c0-.1-.1-.1-.1-.2a.1.1,0,0,1-.1-.1l-.2-.3h0l-.2-.3a.3.3,0,0,0-.1-.2.4.4,0,0,0-.1-.3.3.3,0,0,0-.1-.2c0-.1-.1-.3-.1-.4a.4.4,0,0,0-.1-.3.6.6,0,0,0-.1-.4v-.3a.4.4,0,0,1-.1-.3.4.4,0,0,0-.1-.3v-.4a.4.4,0,0,0-.1-.3v-.8a.4.4,0,0,1-.1-.3v-.8c0-.1-.1-.2-.1-.4v-3a.4.4,0,0,1,.1-.3V8.7a.8.8,0,0,0,.1-.4V7.9a.4.4,0,0,0,.1-.3V7.2a.4.4,0,0,0,.1-.3.8.8,0,0,1,.1-.4V6.3l.2-.6h0a.8.8,0,0,0,.1-.4V5A.4.4,0,0,0,4,4.7V4.5a.4.4,0,0,0,.1-.3c.1,0,.1-.1.1-.2s.1-.1.2-.2h.1A1.4,1.4,0,0,1,5.7,3H95.2m1.5,15.8h0M95.2,0H5.7A4.5,4.5,0,0,0,2.5,1.4c0,.1-.1.2-.2.3s-.1.1-.1.2-.1.2-.2.2l-.3.4c0,.1-.1.2-.1.3s-.1.3-.2.4a.4.4,0,0,0-.1.3c-.1.1-.1.3-.2.4s-.1.2-.1.3l-.2.6h0c-.1.2-.1.5-.2.7v.3H.5a.9.9,0,0,1-.1.5v.3h0c0,.2-.1.3-.1.5v.3a.8.8,0,0,0-.1.4v.4c0,.2-.1.3-.1.5v.8h0v.8H0v.7H0V12H0v.7H0v.6h0v.8c0,.2.1.3.1.4v.4a.9.9,0,0,0,.1.5v.3c0,.2.1.3.1.5h0v.3a.8.8,0,0,1,.1.4H.6v.3a.9.9,0,0,1,.1.5v.3c.1.2.1.4.2.6s.1.1.1.2.1.4.2.5,0,.2.1.2l.2.5a.2.2,0,0,0,.2.2.5.5,0,0,0,.2.4l.2.3.3.4.3.3.4.3.4.3.6.3h.4l1.1.2H95.2a4.6,4.6,0,0,0,4.1-2.8,3.3,3.3,0,0,0,.4-1.3v-1a3.9,3.9,0,0,0-1-1.9,4.2,4.2,0,0,0-1.7-1l-.6-.7c-.9-1.1-1.8-3,.1-5.8,0-.1.1-.2.2-.3h0l.3-.3V7.9a3.5,3.5,0,0,0,2.6-3.2A2.6,2.6,0,0,0,99.4,3h0a.1.1,0,0,1-.1-.1A4.6,4.6,0,0,0,95.2,0Z" style="fill:#507125"/></g></g></g></svg>