<svg xmlns="http://www.w3.org/2000/svg" viewBox="0 0 70.5 153"><g id="Layer_2" data-name="Layer 2"><g id="Layer_1-2" data-name="Layer 1"><path d="M36.6,79.5c6.3,0,11.4,2.1,11.4,4.7h0c.2.6,10.7,52.2,6,59.4-2.2,3.4-6.3,5-9.9,5.7a27,27,0,0,1-6.2.7H35.3c-3.3,0-12.3-.6-16.1-6.4s6-59.4,6-59.4h0c0-2.6,5.1-4.7,11.4-4.7m0-3c-6.9,0-14.3,2.3-14.4,7.5s-3.6,19.2-4.7,26.8c-3.9,25.7-2.5,31.9-.8,34.4,4.6,7,14.6,7.8,18.6,7.8h2.6a39.9,39.9,0,0,0,6.8-.7c5.4-1.1,9.5-3.5,11.8-7.1s3.1-8.7-.7-34.2C53.9,98,51.4,85.9,51,83.9c-.3-5.1-7.6-7.4-14.4-7.4Z" style="fill:#8d8d8d"/><path d="M54,143.6c-2.2,3.4-6.3,5-9.9,5.7a27.4,27.4,0,0,1-7.5.6s-12.7.9-17.4-6.3,6-59.4,6-59.4H48S58.7,136.4,54,143.6Z" style="fill:#dbd5c5"/><path d="M48,84.2c0,2.6-5.1,4.7-11.4,4.7s-11.4-2.1-11.4-4.7,5.1-4.7,11.4-4.7S48,81.6,48,84.2Z" style="fill:#c9c9c9"/><path d="M44.1,149.3a27.4,27.4,0,0,1-7.5.6s-12.7.9-17.4-6.3,6-59.4,6-59.4h4l.8,1.1s-7.1,42.4-3.3,51.9S36.7,149.5,44.1,149.3Z" style="fill:#cec7b6"/><path d="M45.9,84.2c0,1.9-4.1,3.4-9.3,3.4s-9.3-1.5-9.3-3.4,4.2-3.4,9.3-3.4S45.9,82.3,45.9,84.2Z" style="fill:#efefef"/><path d="M6,18.4a6,6,0,0,1,4.1,1.9c3.8,3.9,8.2,11.6,11.1,18.1A225.8,225.8,0,0,1,33.9,77.1c.5,2.3.9,4.4,1.3,6.3H33.8l-.7-.2-1.3-.3c-.5-1.5-1-3.1-1.6-4.6C20.3,51.1,4.6,30.2,3.3,24c-.9-4,.6-5.6,2.7-5.6m0-3a5.6,5.6,0,0,0-4.6,2.1C0,19.2-.3,21.6.3,24.7s3.2,7.2,7.1,13.9c5.9,10.2,14,24.1,20,40.6L29,83.8a2.9,2.9,0,0,0,2,1.9l1.6.4h.8l1.5.2h.3a2.9,2.9,0,0,0,2.2-.9,3.1,3.1,0,0,0,.8-2.6c-.4-1.8-.8-3.9-1.4-6.4-1.9-8.2-6-24.1-12.9-39.3-2.8-6.3-7.3-14.6-11.6-19A9.5,9.5,0,0,0,6,15.4Z" style="fill:#51542a"/><path d="M53.4,3c1.7,0,3.1,1.4,3.1,5-.1,6.8-12.9,33.8-16.1,65.3,3.8-27.7,10.2-41.2,14.7-51.2,0,0,4.3-8.5,8.6-8.5a3.2,3.2,0,0,1,2.3,1c4.9,4.4-3.8,16.3-10.9,31.8C51,55.2,46.2,68.9,43.3,77.5c-.8,2.4-1.5,4.4-1.9,5.8H36.2c-.3-2.2-.7-4.4-1.1-6.5A257.7,257.7,0,0,0,20,26.6C17.1,19.8,17.3,13,21.7,13a7.9,7.9,0,0,1,3.7,1.1c8.5,4.6,11,27.5,12.1,49.1a216.4,216.4,0,0,1,4.4-37.4c1.5-6.9,4.2-15.4,7.1-20A5.9,5.9,0,0,1,53.4,3m0-3a8.7,8.7,0,0,0-6.9,4.2c-3.4,5.2-6.1,14.3-7.6,21l-1.5,7.9c-2.3-12.2-5.7-19-10.6-21.6A10.6,10.6,0,0,0,21.7,10a6.1,6.1,0,0,0-5.2,2.7c-2.5,3.8-1.3,10.3.7,15.1A255.4,255.4,0,0,1,32.1,77.6c.4,1.9.8,4,1.2,6.4A3,3,0,0,0,36,86.5h6a3.1,3.1,0,0,0,2.3-2q.6-2.1,1.8-5.7c2.6-7.7,7.6-21.9,11.7-30.8,1.8-4,3.8-7.8,5.5-11.2,5.9-11.2,10.1-19.3,4.8-24.1a6.4,6.4,0,0,0-4.4-1.8,8,8,0,0,0-5,1.9,17.9,17.9,0,0,0,.8-4.4c0-2.9-.7-5-2.1-6.5a5.9,5.9,0,0,0-4-1.6Z" style="fill:#51542a"/><path d="M35.2,83.4H33.8l-.7-.2-1.3-.3c-.5-1.5-1-3.1-1.6-4.6C20.3,51.1,4.6,30.2,3.3,24s4-6.6,6.8-3.7,8.2,11.6,11.1,18.1A225.8,225.8,0,0,1,33.9,77.1C34.4,79.4,34.8,81.5,35.2,83.4Z" style="fill:#666e3e"/><path d="M33.8,83.3l-.7-.2c-.5-1.8-1-3.6-1.6-5.4C25.6,58.5,18.2,40,7.7,22.8c-.1-.3.3-.5.4-.2C18.9,39.7,26.5,58.2,32.2,77.5,32.8,79.4,33.3,81.3,33.8,83.3Z" style="fill:#5b6033"/><path d="M38.2,83.5h-2c-.3-2.2-.7-4.4-1.1-6.5A257.7,257.7,0,0,0,20,26.6c-3.5-8.4-2.4-16.7,5.4-12.5s11,27.5,12.1,49.1h0c.2,4.6.4,9.2.5,13.5C38.1,79.2,38.2,81.4,38.2,83.5Z" style="fill:#666e3e"/><path d="M37.5,83.6H37c-.2-2.2-.5-4.4-.7-6.6C34.1,56.4,32,35.6,22.2,17.2c-.1-.2.3-.4.4-.2C32.7,35.4,35.1,56.3,37,76.9,37.2,79.1,37.4,81.3,37.5,83.6Z" style="fill:#5b6033"/><path d="M55.1,46.4C51,55.2,46.2,68.9,43.3,77.5c-.8,2.4-1.5,4.4-1.9,5.8H39.2c.2-2.3.4-4.4.7-6.5s.3-2.3.4-3.4.1-.2.1-.3c3.8-27.7,10.2-41.2,14.7-51.2,0,0,6.1-12,10.9-7.5S62.2,30.9,55.1,46.4Z" style="fill:#666e3e"/><path d="M63.1,19C51.6,36.3,46.3,57,42,77.2l-1.2,6.1h-.6l1.2-6.3C45.3,56.7,50.9,36,62.7,18.7,62.8,18.5,63.2,18.7,63.1,19Z" style="fill:#5b6033"/><path d="M56.5,8c-.1,6.8-12.9,33.8-16.1,65.3,0,.1-.1.2-.1.3L40,77v.2c-.2,3-.5,5.1-.7,6.3H38.1a40.4,40.4,0,0,1-.6-6.7c-.2-3.6-.2-8.2,0-13.5h0a216.4,216.4,0,0,1,4.4-37.4c1.5-6.9,4.2-15.4,7.1-20S56.5,1,56.5,8Z" style="fill:#5b6033"/><path d="M53.4,7.4C48.1,16.6,46,27.7,44,38a365.6,365.6,0,0,0-4.8,38.9c-.2,2.2-.3,4.4-.5,6.6h-.4c0-2.2.2-4.4.3-6.6a320.9,320.9,0,0,1,4.7-39.1c2-10.3,4.3-21.5,9.7-30.7C53.1,6.9,53.5,7.1,53.4,7.4Z" style="fill:#51542a"/></g></g></svg>