<svg xmlns="http://www.w3.org/2000/svg" xmlns:xlink="http://www.w3.org/1999/xlink" viewBox="0 0 319.2 107.9"><defs><clipPath id="clip-path"><path id="SVGID" d="M121.6,57.6c-2,9.6-23.9,8.9-51.1,9s-49,.7-49.9-8.8S41.8,14.4,73.3,14.3,123.6,47.6,121.6,57.6Z" style="fill:none"/></clipPath><clipPath id="clip-path-2"><path id="SVGID-2" data-name="SVGID" d="M195.5,57.6c2,9.6,23.9,8.9,51,9s49.1.7,50-8.8-21.3-43.4-52.7-43.5S193.5,47.6,195.5,57.6Z" style="fill:none"/></clipPath></defs><g style="isolation:isolate"><g id="Layer_2" data-name="Layer 2"><g id="Layer_1-2" data-name="Layer 1"><path d="M70.6,106.4a77.4,77.4,0,0,1-14.5-1.3c-3.2-.6-5.6-2.1-6.5-4.1a3.7,3.7,0,0,1,.3-3.8,43.2,43.2,0,0,0,5.2-12.3c1.3-5.3.7-16.9,0-21.9a1.4,1.4,0,0,1,.3-1.1,1.7,1.7,0,0,1,1-.6l27.1-3.1h.2a1.2,1.2,0,0,1,1,.4,1.5,1.5,0,0,1,.5,1.2c-1,9.7.9,27.9,6.9,37a3.9,3.9,0,0,1,.4,3.9c-.8,2-3.1,3.5-6.3,4.2a70.2,70.2,0,0,1-14.6,1.5Z" style="fill:#fcf5de"/><path d="M83.7,59.7c-1,9.5.9,28.4,7.2,37.9,1.5,2.4-.7,4.9-5,5.8a68.9,68.9,0,0,1-14.3,1.5h-1a78.2,78.2,0,0,1-14.2-1.3c-4.3-.8-6.7-3.3-5.2-5.7a46.9,46.9,0,0,0,5.4-12.6c1.3-5.5.7-17.1,0-22.5l27.1-3.1m0-3h-.4L56.2,59.8a3.1,3.1,0,0,0-2.6,3.4c.8,5.7,1.2,16.6,0,21.4a39.9,39.9,0,0,1-5,11.8,5.6,5.6,0,0,0-.4,5.2c1.1,2.5,3.9,4.3,7.6,5a80.7,80.7,0,0,0,14.8,1.3h1a80.9,80.9,0,0,0,14.9-1.5c3.7-.8,6.4-2.6,7.4-5.1a5.3,5.3,0,0,0-.5-5.3c-5.8-8.7-7.6-26.8-6.7-36a3.4,3.4,0,0,0-.9-2.5,3.2,3.2,0,0,0-2.1-.8Zm0,6Z" style="fill:#d8a960"/><path d="M59.2,68.1c-22.9,0-39.2-.8-40.1-10.2-.6-5.5,4.8-15.9,12.7-24.7S53.3,12.8,73.3,12.8s33.1,12.5,39.2,19.9S124.2,52.2,123,57.9c-1.9,9.7-18.5,10.2-45.5,10.2H59.2Z" style="fill:#e84e2c"/><path d="M73.4,14.3c31.4,0,50.2,33.3,48.2,43.3s-20.2,9-44.1,9H59.2c-21.7,0-37.9-.7-38.6-8.8-1-10.1,21.2-43.4,52.7-43.5h.1m0-3v0h-.1c-20.6,0-35.5,13.1-42.6,20.9S17,52,17.6,58.1c.7,7.8,10.7,9.5,13.9,10.1,6.8,1.1,15.6,1.4,27.7,1.4H77.5c25,0,44.7,0,47-11.4,1.3-6.2-3.2-17-10.9-26.4-6.2-7.7-19.8-20.5-40.2-20.5Z" style="fill:#c2331d"/><g style="clip-path:url(#clip-path)"><path d="M58.2,56.8c.1,1.9-2.6,3.4-6,3.5s-6.1-1.5-6.2-3.4,2.7-3.5,6.1-3.5S58.2,54.9,58.2,56.8Z" style="fill:#ff613a;opacity:0.30000000000000004;mix-blend-mode:screen"/><path d="M76.4,40.5c.1,3.1-4.3,5.5-9.7,5.6s-9.8-2.4-9.9-5.4,4.3-5.6,9.7-5.6S76.4,37.5,76.4,40.5Z" style="fill:#ff613a;opacity:0.30000000000000004;mix-blend-mode:screen"/><path d="M38.7,56.3c.1,5.6-7.8,10.1-17.7,10.2S3.1,62.1,3,56.6s7.8-10.1,17.6-10.2S38.6,50.8,38.7,56.3Z" style="fill:#ff613a;opacity:0.30000000000000004;mix-blend-mode:screen"/><path d="M78,16.9c0,4.4-6.3,8.1-14.3,8.1s-14.5-3.5-14.6-7.9,6.3-8.2,14.3-8.2S77.9,12.4,78,16.9Z" style="fill:#ff613a;opacity:0.30000000000000004;mix-blend-mode:screen"/><path d="M120.3,29.6c.1,6.3-9,11.6-20.3,11.6s-20.7-5-20.8-11.3,9-11.6,20.3-11.7S120.1,23.2,120.3,29.6Z" style="fill:#ff613a;opacity:0.30000000000000004;mix-blend-mode:screen"/><path d="M139.5,53.6c.1,4-5.6,7.3-12.8,7.4s-13.1-3.2-13.2-7.2,5.7-7.4,12.9-7.4S139.5,49.6,139.5,53.6Z" style="fill:#ff613a;opacity:0.30000000000000004;mix-blend-mode:screen"/><path d="M87.9,63.7c0,3.9-5.6,7.2-12.6,7.2s-12.9-3.1-12.9-7,5.5-7.2,12.6-7.3S87.8,59.7,87.9,63.7Z" style="fill:#ff613a;opacity:0.30000000000000004;mix-blend-mode:screen"/><path d="M56.3,30.9c0,3.9-5.6,7.2-12.6,7.2S30.8,35,30.8,31s5.5-7.2,12.6-7.2S56.2,26.9,56.3,30.9Z" style="fill:#ff613a;opacity:0.30000000000000004;mix-blend-mode:screen"/><path d="M100.4,49.8c.1,3-4.3,5.6-9.8,5.6S80.5,53,80.5,49.9s4.3-5.6,9.8-5.7S100.4,46.7,100.4,49.8Z" style="fill:#ff613a;opacity:0.30000000000000004;mix-blend-mode:screen"/></g><path d="M61.9,70.8s2.6,12.3-1.2,20.6" style="fill:none;stroke:#b6cfe2;stroke-linecap:round;stroke-linejoin:round;opacity:0.5;mix-blend-mode:multiply"/><path d="M69.8,72.8c0,.7,3,15.5-2.3,25.3" style="fill:none;stroke:#b6cfe2;stroke-linecap:round;stroke-linejoin:round;opacity:0.5;mix-blend-mode:multiply"/><path d="M76.5,73.3s-.3,20.5,1.9,26.8" style="fill:none;stroke:#b6cfe2;stroke-linecap:round;stroke-linejoin:round;opacity:0.5;mix-blend-mode:multiply"/><path d="M80.7,84s.7,10.3,3.7,15.7" style="fill:none;stroke:#b6cfe2;stroke-linecap:round;stroke-linejoin:round;opacity:0.5;mix-blend-mode:multiply"/><path d="M65.2,86.2s-2.6,11.4-7.1,15.7" style="fill:none;stroke:#b6cfe2;stroke-linecap:round;stroke-linejoin:round;opacity:0.5;mix-blend-mode:multiply"/><path d="M245.5,106.4a71.9,71.9,0,0,1-14.7-1.5c-3.1-.7-5.4-2.2-6.3-4.2a3.9,3.9,0,0,1,.5-3.9c6-9.1,7.9-27.3,6.9-37a1.7,1.7,0,0,1,.4-1.2,1.5,1.5,0,0,1,1.1-.4h.2l27.1,3.1a2.1,2.1,0,0,1,1,.6A2,2,0,0,1,262,63c-.7,5-1.3,16.6,0,21.9a43.2,43.2,0,0,0,5.2,12.3,4.2,4.2,0,0,1,.3,3.8c-.9,2-3.3,3.5-6.5,4.1a77.7,77.7,0,0,1-14.6,1.3Z" style="fill:#fcf5de"/><path d="M233.4,59.7l27.1,3.1c-.8,5.4-1.3,17,0,22.5a44,44,0,0,0,5.4,12.6c1.4,2.4-.9,4.9-5.2,5.7a78.5,78.5,0,0,1-14.3,1.3h-.9a70,70,0,0,1-14.4-1.5c-4.3-.9-6.4-3.4-4.9-5.8,6.3-9.5,8.1-28.4,7.2-37.9m0-3a3.2,3.2,0,0,0-2.1.8,3,3,0,0,0-.9,2.5c.9,9.2-1,27.3-6.7,36a5.6,5.6,0,0,0-.6,5.3c1.1,2.5,3.8,4.3,7.4,5.1a82.9,82.9,0,0,0,15,1.5h.9a81,81,0,0,0,14.9-1.3c3.7-.7,6.5-2.5,7.5-5a5.4,5.4,0,0,0-.3-5.2,43.1,43.1,0,0,1-5.1-11.8c-1.1-4.8-.7-15.7.1-21.4a2.9,2.9,0,0,0-.6-2.2,3,3,0,0,0-2.1-1.2l-27.1-3.1Z" style="fill:#d8a960"/><path d="M257.8,68.1H239.6c-27,0-43.6-.5-45.5-10.2-1.2-5.7,3.2-16.3,10.5-25.2s19.3-19.9,39.1-19.9,34.6,12.8,41.5,20.4S298.6,52.4,298,57.9c-.9,9.4-17.2,10.2-40.1,10.2Z" style="fill:#e84e2c"/><path d="M243.7,14.3h.1c31.4.1,53.7,33.4,52.7,43.5-.8,8.1-17,8.8-38.6,8.8H239.5c-23.8,0-42.2-.3-44-9s16.7-43.3,48.2-43.3m0-3c-20.4,0-34,12.8-40.2,20.5-7.7,9.4-12.2,20.2-10.9,26.4,2.3,11.4,22,11.4,46.9,11.4h18.4c12.1,0,20.9-.3,27.6-1.4,3.3-.6,13.3-2.3,14-10.1.6-6.1-4.8-16.7-13.2-25.9s-21.9-20.9-42.5-20.9Z" style="fill:#c2331d"/><g style="clip-path:url(#clip-path-2)"><path d="M258.8,56.8c0,1.9,2.7,3.4,6.1,3.5s6.1-1.5,6.1-3.4-2.6-3.5-6-3.5S258.9,54.9,258.8,56.8Z" style="fill:#ff613a;opacity:0.30000000000000004;mix-blend-mode:screen"/><path d="M240.7,40.5c-.1,3.1,4.2,5.5,9.6,5.6s9.9-2.4,9.9-5.4-4.2-5.6-9.6-5.6S240.7,37.5,240.7,40.5Z" style="fill:#ff613a;opacity:0.30000000000000004;mix-blend-mode:screen"/><path d="M278.3,56.3c-.1,5.6,7.8,10.1,17.7,10.2s18-4.4,18.1-9.9-7.8-10.1-17.7-10.2S278.4,50.8,278.3,56.3Z" style="fill:#ff613a;opacity:0.30000000000000004;mix-blend-mode:screen"/><path d="M239.1,16.9c-.1,4.4,6.3,8.1,14.3,8.1s14.5-3.5,14.5-7.9-6.2-8.2-14.2-8.2S239.2,12.4,239.1,16.9Z" style="fill:#ff613a;opacity:0.30000000000000004;mix-blend-mode:screen"/><path d="M196.8,29.6c-.1,6.3,9,11.6,20.3,11.6s20.6-5,20.8-11.3-9-11.6-20.3-11.7S196.9,23.2,196.8,29.6Z" style="fill:#ff613a;opacity:0.30000000000000004;mix-blend-mode:screen"/><path d="M177.5,53.6c0,4,5.7,7.3,12.9,7.4s13.1-3.2,13.1-7.2-5.6-7.4-12.8-7.4S177.6,49.6,177.5,53.6Z" style="fill:#ff613a;opacity:0.30000000000000004;mix-blend-mode:screen"/><path d="M229.2,63.7c-.1,3.9,5.6,7.2,12.6,7.2s12.8-3.1,12.9-7-5.6-7.2-12.6-7.3S229.3,59.7,229.2,63.7Z" style="fill:#ff613a;opacity:0.30000000000000004;mix-blend-mode:screen"/><path d="M260.8,30.9c-.1,3.9,5.6,7.2,12.6,7.2S286.2,35,286.3,31s-5.5-7.2-12.6-7.2S260.9,26.9,260.8,30.9Z" style="fill:#ff613a;opacity:0.30000000000000004;mix-blend-mode:screen"/><path d="M216.6,49.8c0,3,4.4,5.6,9.9,5.6s10-2.4,10.1-5.5-4.4-5.6-9.9-5.7S216.7,46.7,216.6,49.8Z" style="fill:#ff613a;opacity:0.30000000000000004;mix-blend-mode:screen"/></g><path d="M255.2,70.8s-2.6,12.3,1.2,20.6" style="fill:none;stroke:#b6cfe2;stroke-linecap:round;stroke-linejoin:round;opacity:0.5;mix-blend-mode:multiply"/><path d="M247.3,72.8c0,.7-3,15.5,2.3,25.3" style="fill:none;stroke:#b6cfe2;stroke-linecap:round;stroke-linejoin:round;opacity:0.5;mix-blend-mode:multiply"/><path d="M240.5,73.3s.4,20.5-1.8,26.8" style="fill:none;stroke:#b6cfe2;stroke-linecap:round;stroke-linejoin:round;opacity:0.5;mix-blend-mode:multiply"/><path d="M236.4,84s-.7,10.3-3.8,15.7" style="fill:none;stroke:#b6cfe2;stroke-linecap:round;stroke-linejoin:round;opacity:0.5;mix-blend-mode:multiply"/><path d="M251.8,86.2s2.7,11.4,7.2,15.7" style="fill:none;stroke:#b6cfe2;stroke-linecap:round;stroke-linejoin:round;opacity:0.5;mix-blend-mode:multiply"/><path d="M3,28.2a1.5,1.5,0,0,1-1.5-1.5v-2A23.2,23.2,0,0,1,24.7,1.5H294.5a23.2,23.2,0,0,1,23.2,23.2v2a1.4,1.4,0,0,1-1.5,1.5Z" style="fill:#fcf8cb"/><path d="M294.5,3a21.7,21.7,0,0,1,21.7,21.7v2H3v-2A21.7,21.7,0,0,1,24.7,3H294.5m0-3H24.7A24.8,24.8,0,0,0,0,24.7v2a2.9,2.9,0,0,0,3,3H316.2a2.9,2.9,0,0,0,3-3v-2A24.7,24.7,0,0,0,294.5,0Z" style="fill:#ffaa5a"/><g style="opacity:0.30000000000000004;mix-blend-mode:multiply"><path d="M316.2,26.7H3A24.2,24.2,0,0,1,9.9,9.9a23.4,23.4,0,0,1,8.9-5.5c23.6,5,77.8,8.5,140.8,8.5S276.8,9.4,300.4,4.4A23.5,23.5,0,0,1,316.2,26.7Z" style="fill:#e1cc8c"/></g></g></g></g></svg>