<svg xmlns="http://www.w3.org/2000/svg" viewBox="0 0 383 89.5"><g id="Layer_2" data-name="Layer 2"><g id="Layer_1-2" data-name="Layer 1"><path d="M268.5,88C228,88,190,84.4,187,84.1c-16.7,2.4-38.2,3.6-63.9,3.6-21.4,0-37.9-.9-38.1-.9C33.2,84.2,6,76.7,2,63.8c-3.2-10.4,9-21.3,19.9-29.7,8.2-6.3,10.2-10.6,10.6-11.8-1.3-4-1.5-11.7,6.7-15h.7c.8,0,20.1,1.6,26.7,6.4C72.9,12.7,123.9,6,189.5,6c40.9,0,79.5,2.6,114.6,7.7l12.6,1c6.5-4.7,26.3-6.3,28.6-6.4h.7c2.8,1.1,4.4,2.8,5,5.1,1,4.7-3.2,10-4.2,11.2s6,6.3,11.8,9.9c8.4,5.3,19,12,22.2,20.3a10,10,0,0,1-.5,8.6c-5.4,10.1-27.1,15.2-28.8,15.6-17.7,5.9-45.6,8.9-83,8.9Z" style="fill:#96b85c"/><path d="M189.5,7.5c35.2,0,74.8,1.9,114.4,7.7l13.2,1.1c5.7-4.9,28.3-6.5,28.3-6.5,9.5,3.8,0,14.1,0,14.1-3,7,28.3,16.7,34,31.5s-28.3,22.3-28.3,22.3c-20.4,6.8-52.3,8.8-82.6,8.8-42.4,0-81.5-3.9-81.5-3.9-19.9,2.8-44.1,3.6-63.9,3.6-21.6,0-38-.9-38-.9C-26.3,79.8.8,52.1,22.8,35.3c10.4-8,11.3-13,11.3-13s-3.7-9.8,5.7-13.6c0,0,20.7,1.6,26.4,6.5,0,0,52.8-7.7,123.3-7.7m0-3c-64,0-114.1,6.4-122.5,7.6C59.8,7.4,42.1,5.8,40,5.7h-.2a2,2,0,0,0-1.1.2C29.8,9.5,29.6,17.6,31,22.2c-.7,1.5-2.9,5.3-10,10.7C9.7,41.6-2.9,53,.6,64.2,4.9,78,31.7,85.6,84.9,88.3c.2,0,16.8.9,38.2.9,25.7,0,47.2-1.2,63.9-3.6,4.1.4,41.6,3.9,81.5,3.9,37.5,0,65.6-3,83.4-8.9,3.1-.7,24.1-5.9,29.7-16.4a11.5,11.5,0,0,0,.6-9.9c-3.4-8.8-14.2-15.5-22.8-21-3.9-2.4-10.1-6.3-11.1-8.2,1.6-2,5.2-7.1,4.1-11.9-.4-1.9-1.8-4.6-5.8-6.2a2.5,2.5,0,0,0-1.2-.2h-.2c-3.7.2-21.8,1.8-28.9,6.4l-12-1c-35.2-5.1-73.8-7.7-114.8-7.7Z" style="fill:#6c9433"/><path d="M268.5,83.5c-40.5,0-78.5-3.6-81.5-3.9-16.7,2.4-38.2,3.6-63.9,3.6-21.4,0-37.9-.9-38.1-.9C33.2,79.7,6,72.2,2,59.3-1.2,48.9,11,38,21.9,29.6,30.1,23.4,32.1,19,32.5,17.8c-1.3-4-1.5-11.7,6.7-15h.7c.8.1,20.1,1.6,26.7,6.5,6.3-.9,57.3-7.7,122.9-7.7,40.9,0,79.5,2.6,114.6,7.7l12.6,1.1C323.2,5.5,343,4,345.3,3.8h.7a7.6,7.6,0,0,1,5,5.2c1,4.6-3.2,9.9-4.2,11.1s6,6.3,11.8,9.9c8.4,5.4,19,12,22.2,20.3a10,10,0,0,1-.5,8.6c-5.4,10.2-27.1,15.3-28.8,15.7-17.7,5.8-45.6,8.8-83,8.8Z" style="fill:#dfe590"/><path d="M189.5,3c35.2,0,74.8,1.9,114.4,7.7l13.2,1.1c5.7-4.9,28.3-6.5,28.3-6.5,9.5,3.8,0,14.1,0,14.1-3,7.1,28.3,16.7,34,31.5s-28.3,22.3-28.3,22.3C330.7,80,298.8,82,268.5,82c-42.4,0-81.5-3.9-81.5-3.9-19.9,2.9-44.1,3.6-63.9,3.6-21.6,0-38-.9-38-.9C-26.3,75.3.8,47.6,22.8,30.8c10.4-7.9,11.3-13,11.3-13S30.4,8,39.8,4.2c0,0,20.7,1.6,26.4,6.5,0,0,52.8-7.7,123.3-7.7m0-3C125.5,0,75.4,6.4,67,7.6,59.8,2.9,42.1,1.4,40,1.2h-.2l-1.1.2C29.8,5,29.6,13.1,31,17.8c-.7,1.4-2.9,5.2-10,10.6C9.7,37.1-2.9,48.5.6,59.7,4.9,73.5,31.7,81.2,84.9,83.8c.2,0,16.8.9,38.2.9,25.7,0,47.2-1.2,63.9-3.6,4.1.4,41.6,3.9,81.5,3.9,37.5,0,65.6-3,83.4-8.9,3.1-.7,24.1-5.8,29.7-16.4a11.3,11.3,0,0,0,.6-9.8c-3.4-8.8-14.2-15.6-22.8-21-3.9-2.4-10.1-6.4-11.1-8.3,1.6-1.9,5.2-7,4.1-11.9-.4-1.9-1.8-4.6-5.8-6.2l-1.2-.2h-.2c-3.7.3-21.8,1.8-28.9,6.4l-12-1C269.1,2.6,230.5,0,189.5,0Z" style="fill:#96b85c"/><path d="M248.9,17.7c-24.4,0-45.8,4.6-57.4,11.6-11.6-7-32.9-11.6-57.4-11.6-36.8,0-66.7,10.6-66.7,23.6S97.3,65,134.1,65c24.5,0,45.8-4.6,57.4-11.6,11.6,7,33,11.6,57.4,11.6,36.9,0,66.7-10.6,66.7-23.7S285.8,17.7,248.9,17.7Z" style="fill:#fff"/><path d="M129.2,53.3c-13.6,0-28.2-3.8-28.2-12s14.6-11.9,28.2-11.9,28.1,3.7,28.1,11.9S142.7,53.3,129.2,53.3Z" style="fill:#575757"/><path d="M129.2,32.4c13.9,0,25.1,4,25.1,8.9s-11.2,9-25.1,9-25.2-4-25.2-9,11.3-8.9,25.2-8.9m0-6C113.7,26.4,98,31,98,41.3s15.7,15,31.2,15,31.1-4.6,31.1-15-15.6-14.9-31.1-14.9Z" style="fill:#fcd54d"/><path d="M253.9,53.3c-13.6,0-28.2-3.8-28.2-12s14.6-11.9,28.2-11.9S282,33.1,282,41.3,267.4,53.3,253.9,53.3Z" style="fill:#575757"/><path d="M253.9,32.4c13.9,0,25.1,4,25.1,8.9s-11.2,9-25.1,9-25.2-4-25.2-9,11.3-8.9,25.2-8.9m0-6c-15.5,0-31.2,4.6-31.2,14.9s15.7,15,31.2,15,31.1-4.6,31.1-15-15.6-14.9-31.1-14.9Z" style="fill:#fcd54d"/><path d="M171,56.8s4.3-7.2,23.7-7.2,23.7,7.2,23.7,7.2L195.2,67.3Z" style="fill:#ff8d3d"/></g></g></svg>