<svg xmlns="http://www.w3.org/2000/svg" viewBox="0 0 96.2 61.7"><g style="isolation:isolate"><g id="Layer_2" data-name="Layer 2"><g id="Layer_1-2" data-name="Layer 1"><ellipse cx="39" cy="12.4" rx="9.6" ry="7.6" transform="translate(14.3 45) rotate(-70.6)" style="fill:#ffaa5a"/><path d="M35.8,21.5C41,24.6,55.3,32.3,62.4,35.6a132.7,132.7,0,0,0,16.1,6.6c1.7-5,7.2-20.5,9.1-25.7l-.7-.2c-2.6-1.1-5.1-2.1-7.8-3a193.4,193.4,0,0,0-36.9-10Z" style="fill:#ffaa5a"/><path d="M62.4,35.6l1.8.8,4.6,2.1,8.4-25.2v-.7l-3.1-1.1L72.6,11c-1.8.5-6.1,2.4-9.5,10.4A19.2,19.2,0,0,0,62.4,35.6Z" style="fill:#de5821;opacity:0.30000000000000004;mix-blend-mode:multiply"/><path d="M64.2,36.4a109.8,109.8,0,0,0,14.3,5.8c1.7-5,7.2-20.5,9.1-25.7l-.7-.2c-4.2-1.7-8.5-3.3-12.8-4.8C71.8,12.1,67,14.4,64,23,61.9,29.2,63.1,32.6,64.2,36.4Z" style="fill:#9be3bb"/><path d="M64.2,36.4a109.8,109.8,0,0,0,14.3,5.8l2.7-7.6-1.1-2.5L64,23C61.9,29.2,63.1,32.6,64.2,36.4Z" style="fill:#9be3bb;opacity:0.27;mix-blend-mode:multiply"/><path d="M51.9,30.3c3.2,1.7,7.3,3.8,10.2,5.1l2.1,1c-1.1-3.8-2.3-7.2-.2-13.4l-8.1-4.5Z" style="fill:#f0b13c;opacity:0.58;mix-blend-mode:multiply"/><ellipse cx="83" cy="29.4" rx="13.6" ry="9.7" transform="translate(27.7 97.9) rotate(-70.6)" style="fill:#dfe590"/><path d="M76.4,35a6.8,6.8,0,0,0,1.3,2.7,4.9,4.9,0,0,0,1.9,1.4c3.3,1.1,7.5-2.3,9.4-7.6a13.2,13.2,0,0,0,.4-8.5,5.4,5.4,0,0,0-2.9-3.3,5.2,5.2,0,0,0-4.3.6c-2.1,1.2-4,3.8-5.2,7A14.9,14.9,0,0,0,76.4,35Z" style="fill:#72b75b"/><path d="M46.4,31l5.6.3s2.5-8.9,3.9-12.8l-5.4-1.4-1.1-.3-4.6-1.3-1-.3c-2.5-.8-4.8-1.5-6.4-2.2,0,0-9.8,5.3-18.8,4.5S46.4,31,46.4,31Z" style="fill:#7e84b3"/><path d="M33,25.1h1c3.5-1.4,6.9-3.1,10.3-4.8l6.2-3.2-1.1-.3L43.2,20,32.8,24.8C32.5,24.9,32.9,25.1,33,25.1Z" style="fill:#9aa1d6"/><path d="M27.9,23.3a1.4,1.4,0,0,0,1.1,0c5.3-2.4,10.6-5,15.8-7.8l-1-.3c-5.3,2.7-10.7,5.3-16.1,7.7C27.4,23.1,27.8,23.3,27.9,23.3Z" style="fill:#9aa1d6"/><path d="M55.9,18.5s-9.7,6.6-19.4,7.3,9.5,10,9.5,10l9.3-3.1,1.4-5.5c.6-3.5,1-6.7-.8-8.7Z" style="fill:#4c5173"/><path d="M6.9,33h0c2.6,1.3,5.8.4,8.3-1.8a12.9,12.9,0,0,0,2.6-3.7c2.3-4.8,1.1-10.1-2.7-11.9a5.4,5.4,0,0,0-2.1-.5c-3.3-.3-7,2-8.9,6S3.1,31.2,6.9,33Z" style="fill:#ffaa5a"/><path d="M6.9,33c-.1,0,26.2,19.1,40.3,25L58.9,33.4c-3.1-1.6-7.8-4-12.9-6.4-9.6-4.4-20.6-8.8-30.9-11.4C8.5,29.5,10.3,25.7,6.9,33Z" style="fill:#ffaa5a"/><path d="M6.9,33h0c2.6,1.3,5.8.4,8.3-1.8a12.9,12.9,0,0,0,2.6-3.7c2.3-4.8,1.1-10.1-2.7-11.9a5.4,5.4,0,0,0-2.1-.5c-3.3-.3-7,2-8.9,6S3.1,31.2,6.9,33Z" style="fill:#ffaa5a"/><path d="M6.9,33c-.1,0,26.2,19.1,40.3,25L58.9,33.4c-3.1-1.6-7.8-4-12.9-6.4-9.6-4.4-20.6-8.8-30.9-11.4C8.5,29.5,10.3,25.7,6.9,33Z" style="fill:#ffaa5a"/><path d="M29.4,48.2,33.9,51l3.5,2L48.8,28.7v-.3L46,27l-1.9-.8s-6.3.1-11.7,8.3A20.9,20.9,0,0,0,29.4,48.2Z" style="fill:#de5821;opacity:0.30000000000000004;mix-blend-mode:multiply"/><path d="M33.9,51a112.4,112.4,0,0,0,13.3,7c.3-.5,11.4-24,11.7-24.6C56,31.9,51.3,29.5,46,27h-.2C40.9,27.3,34,33.7,32.7,41A18.7,18.7,0,0,0,33.9,51Z" style="fill:#9be3bb"/><path d="M33.9,51a105.8,105.8,0,0,0,13.3,7l.8-1.6-2.7-9L32.7,41A18.7,18.7,0,0,0,33.9,51Z" style="fill:#9be3bb;opacity:0.27;mix-blend-mode:multiply"/><path d="M6.9,33C6,32.5,25,45.9,33.9,51a18.7,18.7,0,0,1-1.2-10c-5.8-3-12.5-6.7-17.5-9.8-3-2-5-3.1-6.9-5.1-3.8-4.4,1.7-9.2,4.7-11C4.4,14.3-1.1,28.9,6.9,33Z" style="fill:#f0b13c;opacity:0.58;mix-blend-mode:multiply"/><ellipse cx="53" cy="45.7" rx="13.6" ry="9.7" transform="translate(-11 74.1) rotate(-64.6)" style="fill:#dfe590"/><path d="M46,51.2a5.5,5.5,0,0,0,1.6,3.1l1,.7c3.2,1.5,7.7-1.4,10.2-6.5a13.5,13.5,0,0,0,1.1-9,5.2,5.2,0,0,0-2.5-3.1,5.2,5.2,0,0,0-4.9.6,14.1,14.1,0,0,0-5.2,6A13.1,13.1,0,0,0,46,51.2Z" style="fill:#72b75b"/><path d="M77.7,37.7c2.7-.4,5.5-3.1,6.9-6.9s.7-9.4-2.4-10.5c-2.1,1.2-4,3.8-5.2,7S75.9,35.6,77.7,37.7Z" style="fill:#b0caff"/><path d="M47.6,54.3c2.6-.2,5.7-2.6,7.6-6.2s1.7-9.4-1.3-10.7a3.3,3.3,0,0,0-1.4-.4,14.1,14.1,0,0,0-5.2,6C45.2,47.5,45.4,52.2,47.6,54.3Z" style="fill:#b0caff"/><path d="M76.4,35a22.6,22.6,0,0,1,4.3-9.1c4.1-5.3,7.4-3.8,8.7-2.9a5.4,5.4,0,0,0-2.9-3.3,5.2,5.2,0,0,0-4.3.6c-2.1,1.2-4,3.8-5.2,7A14.9,14.9,0,0,0,76.4,35Z" style="fill:#b0caff;opacity:0.49;mix-blend-mode:multiply"/><path d="M46,51.2a27.4,27.4,0,0,1,4.6-7.8c3.8-4.7,7.7-4.4,9.3-3.9a5.2,5.2,0,0,0-2.5-3.1,5.2,5.2,0,0,0-4.9.6,14.1,14.1,0,0,0-5.2,6A13.1,13.1,0,0,0,46,51.2Z" style="fill:#b0caff;opacity:0.49;mix-blend-mode:multiply"/><path d="M84.4,28.1a3.6,3.6,0,0,0-.8-4c-1.2-1-2.5.6-2.9,2.2s.1,3.4.8,4S83.7,30.2,84.4,28.1Z" style="fill:#8597ff;opacity:0.81;mix-blend-mode:screen"/><path d="M79.7,29.3a1.9,1.9,0,0,1-.5,2.2c-.8.3-1.6-1-1.1-2.1S79.5,28.7,79.7,29.3Z" style="fill:#8597ff;opacity:0.81;mix-blend-mode:screen"/><path d="M55.4,44.6a3.5,3.5,0,0,0-.8-3.9c-1.2-1-2.6.5-2.9,2.1s0,3.4.8,4S54.6,46.8,55.4,44.6Z" style="fill:#8597ff;opacity:0.81;mix-blend-mode:screen"/><path d="M50.7,45.8a1.9,1.9,0,0,1-.5,2.2c-.8.4-1.6-1-1.1-2.1S50.4,45.2,50.7,45.8Z" style="fill:#8597ff;opacity:0.81;mix-blend-mode:screen"/><path d="M40.1,3l2.1.3h0A182.6,182.6,0,0,1,72.6,11h0l1.5.5,3.1,1.1h0l1.9.7.9.3,1.2.5,5.7,2.2.7.2h0c5,1.8,7.1,9,4.6,16.1s-6.9,10-11.3,10a6.7,6.7,0,0,1-2.4-.4h0l-3.3-1.1-.6-.2-3.1-1.3h-.4l-3.2-1.4-.5-.2-.3-.2-2.9-1.3-1.6-.7-.5-.3L61,34.9h-.2c3.2,3.2,3.7,9.3,1,15.1s-7.3,8.8-11.5,8.8a6.7,6.7,0,0,1-3.1-.7h0l-1.5-.6-.8-.4-.6-.3-.5-.2h0l-.7-.4h-.2l-2.2-1.2-.5-.2L37.4,53h-.1l-3.4-2c-2.6-1.5-6.2-3.8-9.9-6.3C18,40.9,12.8,37.2,9.7,35L6.8,33h0A6.2,6.2,0,0,1,5,31.6a7.9,7.9,0,0,1-2-5.1H3v-.5a12.4,12.4,0,0,1,1.1-4.8,11.1,11.1,0,0,1,2.5-3.4,7.7,7.7,0,0,1,5.1-2.6H13a5.4,5.4,0,0,1,2.1.5l6.8,1.9a33.3,33.3,0,0,0,9.4-1.9,12.5,12.5,0,0,1,.5-5.7c1.5-4.2,5-6.9,8.3-6.9m0-3C35.4,0,30.9,3.6,29,8.9a14.2,14.2,0,0,0-.8,4.5,27.5,27.5,0,0,1-5.9,1.1c-2.3-.7-4.3-1.3-6.2-1.7a8.9,8.9,0,0,0-2.8-.7H11.4a11.1,11.1,0,0,0-6.9,3.4,14.8,14.8,0,0,0-3.1,4.3A14.3,14.3,0,0,0,0,25.9v.6H0a11,11,0,0,0,2.8,7.1,8.4,8.4,0,0,0,2.4,1.8l.6.5L8,37.5c2.6,1.9,8.1,5.7,14.3,9.8q6.5,4.2,10.2,6.3l3.3,2h.1a.1.1,0,0,0,.1.1l2.8,1.5.5.3,2.2,1.2H42l.4.2H43l.5.2h.3l.7.3,1.5.7a10.4,10.4,0,0,0,4.3.9c5.5,0,11.2-4.2,14.2-10.5a20.8,20.8,0,0,0,2-10.4h.1l3.3,1.4h.4l3.3,1.3h.6l3.3,1.2a12.7,12.7,0,0,0,3.4.5c5.8,0,11.6-4.9,14.1-12,3.1-8.8.3-17.4-6.4-19.9l-.5-.2-5.8-2.2-.4-.2-.8-.3h-.4l-.6-.3L78.9,10l-.5-.2h-.2l-3.1-1-1.5-.5h-.3A178.3,178.3,0,0,0,42.9.4,8.6,8.6,0,0,0,40.1,0Z" style="fill:#6a3417"/></g></g></g></svg>