<svg xmlns="http://www.w3.org/2000/svg" viewBox="0 0 96.9 94.1"><g id="Layer_2" data-name="Layer 2"><g id="Layer_1-2" data-name="Layer 1"><g id="VC"><path d="M50.6,92.6C27,92.6,13.6,86.9,12,83S7.2,29.4,6.5,19.2a1.2,1.2,0,0,1,.4-1.1A1.3,1.3,0,0,1,8,17.6l81-.4a1.6,1.6,0,0,1,1.1.5,1.5,1.5,0,0,1,.4,1.1c-1.6,23.2-4.4,62.5-6,64.6S74.7,92.6,50.6,92.6Z" style="fill:#ffaa5a"/><path d="M89,18.7s-4.1,61.7-5.7,63.8-8.6,8.6-32.7,8.6-36.1-5.9-37.2-8.6S8,19.1,8,19.1l81-.4m0-3h0l-81.1.4a2.8,2.8,0,0,0-2.1,1A2.7,2.7,0,0,0,5,19.3c1.6,22.9,4.5,61.6,5.6,64.3,2.1,5.1,16.8,10.5,40,10.5,24.8,0,32.8-6.9,35-9.8.8-1,1.6-2,4.1-34.2,1.2-15.5,2.3-31,2.3-31.2a3.5,3.5,0,0,0-.8-2.2,3.2,3.2,0,0,0-2.2-1Zm0,6Z" style="fill:#e57225"/><path d="M86.7,25.8c-8,3-22.1,5-38.2,5s-27.6-1.6-35.8-4.1c-5-2.5-6-4.5-6-4.5l81.1-.3S87.3,23.5,86.7,25.8Z" style="fill:#a61410"/><path d="M48.5,30.6c-21.2,0-43.5-3-46.2-9.9A.9.9,0,0,1,2,20l-.5-6.3a1.7,1.7,0,0,1,.4-1.2A1.5,1.5,0,0,1,3,12.1h.8c5.4-5,23.5-8.3,44.7-8.3s39.3,3.3,44.6,8.3h.8a1.2,1.2,0,0,1,1.1.4,1.4,1.4,0,0,1,.4,1.2L94.9,20a1.9,1.9,0,0,1-.2.8C91.8,27.6,69.6,30.6,48.5,30.6Z" style="fill:#ffaa5a"/><path d="M48.5,5.3c21.6,0,39.7,3.5,44,8.3h1.4l-.5,6.3h0c-1.6,5.4-21.1,9.2-44.9,9.2S5.1,25.3,3.6,19.9H3.5L3,13.6H4.4C8.7,8.8,26.8,5.3,48.5,5.3m45.4,8.3h0M48.5,2.3c-17.9,0-38.2,2.5-45.2,8.3H3a3.1,3.1,0,0,0-2.2.9A2.9,2.9,0,0,0,0,13.8l.5,6.3a5,5,0,0,0,.4,1.3c1,2.5,4.2,5.7,16.2,8.1,8.4,1.7,19.5,2.6,31.4,2.6s23-.9,31.4-2.6c12-2.4,15.1-5.6,16.1-8.1a2.8,2.8,0,0,0,.4-1.3l.5-6.2v-.3a2.9,2.9,0,0,0-3-3h-.2c-7-5.8-27.4-8.3-45.2-8.3Z" style="fill:#e57225"/><ellipse cx="48.5" cy="13.4" rx="47" ry="11.9" style="fill:#ffeb81"/><path d="M48.5,3C73.6,3,93.9,7.6,93.9,13.4S73.6,23.7,48.5,23.7,3,19.1,3,13.4,23.4,3,48.5,3m0-3c-12.4,0-24,1.1-32.8,3.1C5.1,5.5,0,8.9,0,13.4s5.1,7.8,15.7,10.2c8.8,2,20.4,3.1,32.8,3.1s24-1.1,32.8-3.1c10.5-2.4,15.6-5.7,15.6-10.2S91.8,5.5,81.3,3.1C72.5,1.1,60.8,0,48.5,0Z" style="fill:#ffaa5a"/><path d="M11,13.1c0,4.5,16.8,8.1,37.5,8.1S86,17.6,86,13.1,69.2,5,48.5,5,11,8.6,11,13.1Z" style="fill:#ffaa5a"/></g></g></g></svg>