<svg xmlns="http://www.w3.org/2000/svg" viewBox="0 0 179.7 101.7"><g id="Layer_2" data-name="Layer 2"><g id="Layer_1-2" data-name="Layer 1"><g id="VC"><path d="M164.7,18.8h0c-3-9.7-35-17.3-74.2-17.3H89.2C50,1.5,18,9.1,15,18.8h0c-6.4,8-28,39.4,2,66.5h.1c7.2,8.5,36.9,14.9,72.5,14.9h.5c35.6,0,65.3-6.4,72.5-14.9h.1C192.7,58.2,171.1,26.8,164.7,18.8Z" style="fill:#ff8d3d;stroke:#e84e2c;stroke-miterlimit:10;stroke-width:3px"/><path d="M89.2,26.6h1.3c15.3,0,27.7-2.9,27.7-6.4s-12.4-6.3-27.7-6.3H89.2c-15.3,0-27.7,2.9-27.7,6.3S73.9,26.6,89.2,26.6Z" style="fill:#ffaa5a;stroke:#e84e2c;stroke-miterlimit:10;stroke-width:2px"/><path d="M89.2,30.5h1.3c27.6,0,42.6-5.3,42.6-10.3a3.9,3.9,0,0,0-1.7-2.8c-4.6-4-18.6-7.4-40.9-7.4H89.2c-22.3,0-36.3,3.4-40.9,7.4a3.9,3.9,0,0,0-1.7,2.8C46.6,25.2,61.6,30.5,89.2,30.5ZM128,17.4c1.6.9,2.4,1.9,2.4,2.8,0,4.2-16.6,8.9-40.5,9s-40.6-4.8-40.6-9c0-.9.8-1.9,2.4-2.8,5.5-3.2,19.6-6,38.2-6.1S122.5,14.2,128,17.4Zm3.7,3.3v-1a4.3,4.3,0,0,0,.1.5C131.8,20.4,131.7,20.5,131.7,20.7ZM48,19.7v1c0-.2-.1-.3-.1-.5A4.3,4.3,0,0,0,48,19.7Z" style="fill:#e84e2c"/><path d="M60.3,86.1c-3-14.6.1-29.5,4.9-43.4.2-.7-.9-1-1.2-.3-1.4,4-2.7,8.2-3.8,12.4-3.5,14.3-4.1,30,2.6,43.5.4.8,1.5.1,1.2-.7A49.9,49.9,0,0,1,60.3,86.1Z" style="fill:#ff8d3d;stroke:#e84e2c;stroke-miterlimit:10;stroke-width:2px"/><path d="M24,36.3a47.5,47.5,0,0,0-5.6,9.5c-5.2,11.8-5.7,25.9-.4,37.7.3.6,1.4.2,1.2-.5a45.4,45.4,0,0,1-2.8-10.2A47.3,47.3,0,0,1,25,36.9C25.5,36.3,24.5,35.7,24,36.3Z" style="fill:#ff8d3d;stroke:#e84e2c;stroke-miterlimit:10;stroke-width:2px"/><path d="M165.3,20.2h-.8c0,4.8-7.3,9.1-19.2,12.3v-.3C131.9,36,112,38.5,89.9,38.6S47.8,36,34.4,32.2v.3C22.5,29.3,15.2,25,15.2,20.2h-.8c0,10.8,32.8,19.2,74.8,19.2h1.3C132.5,39.4,165.3,31,165.3,20.2Z" style="fill:#ff8d3d;stroke:#e84e2c;stroke-miterlimit:10;stroke-width:2px"/><path d="M115.7,42.4c-.3-.7-1.4-.4-1.2.3,4.8,13.9,7.9,28.8,4.9,43.4a49.9,49.9,0,0,1-3.7,11.5c-.3.8.8,1.5,1.2.7,6.7-13.5,6.1-29.2,2.6-43.5C118.4,50.6,117.1,46.4,115.7,42.4Z" style="fill:#ff8d3d;stroke:#e84e2c;stroke-miterlimit:10;stroke-width:2px"/><path d="M161.3,45.8a47.5,47.5,0,0,0-5.6-9.5c-.5-.6-1.5,0-1,.6a47.3,47.3,0,0,1,8.6,35.9A45.4,45.4,0,0,1,160.5,83c-.2.7.9,1.1,1.2.5C167,71.7,166.5,57.6,161.3,45.8Z" style="fill:#ff8d3d;stroke:#e84e2c;stroke-miterlimit:10;stroke-width:2px"/></g></g></g></svg>