<svg xmlns="http://www.w3.org/2000/svg" viewBox="0 0 184.4 154.4"><g style="isolation:isolate"><g id="Layer_2" data-name="Layer 2"><g id="Layer_1-2" data-name="Layer 1"><path d="M162.7,127c-.5-2.6-3.4-3.9-5.7-5.3-4.7-3-7.5-8.1-9.7-13.2a108.1,108.1,0,0,1-7.4-24.9L92.1,90.8,44.3,83.6a113.3,113.3,0,0,1-7.4,24.9c-2.2,5.1-5,10.2-9.7,13.2-2.3,1.4-5.3,2.7-5.7,5.3a4.6,4.6,0,0,0,.8,3.4c2.1,2.9,6.3,3.1,9.7,1.9a47.1,47.1,0,0,0,22.3-17.2,7,7,0,0,1,9-1.9c9.6,5.7,19.2,7.2,28.8,7s19.2-1.3,28.8-7a7,7,0,0,1,9,1.9,47.1,47.1,0,0,0,22.3,17.2c3.3,1.2,7.6,1,9.7-1.9A4.6,4.6,0,0,0,162.7,127Z" style="fill:#a8662f"/><path d="M164.2,126.6c-.6-2.9-3.4-4.4-5.8-5.8a19,19,0,0,1-6.2-6.1,53.1,53.1,0,0,1-4.3-8.6,94.8,94.8,0,0,1-3.7-10.6,99.8,99.8,0,0,1-2.8-12.3,1.6,1.6,0,0,0-1.9-1l-4.8.7-11.3,1.7-13.9,2.1L97.6,88.5c-1.9.3-3.9.5-5.8.9h.7l-4.8-.7L76.3,87,62.5,84.9,50.6,83.1l-5.9-.9h0c-.8-.1-1.7.1-1.9,1a104.5,104.5,0,0,1-7.2,24.5,39.7,39.7,0,0,1-5.2,9.2,20.5,20.5,0,0,1-3.8,3.4c-1.4.9-2.8,1.6-4.1,2.6a6,6,0,0,0-2.5,3.9,6.3,6.3,0,0,0,2,5.5c2.5,2.4,6.3,2.6,9.5,1.8a27,27,0,0,0,5.3-2.2,37.7,37.7,0,0,0,4.8-2.6,54.8,54.8,0,0,0,8-6.4c2.1-2.2,4-4.5,5.9-6.9a5.4,5.4,0,0,1,7.3-1.3,51.7,51.7,0,0,0,23.7,6.9,76.2,76.2,0,0,0,11.7,0,52.1,52.1,0,0,0,11.7-2,56.1,56.1,0,0,0,11.8-5.1,5.5,5.5,0,0,1,7.2,1.8A52.1,52.1,0,0,0,143,129.5a32,32,0,0,0,4.8,2.6,34.4,34.4,0,0,0,5.3,2.1c3.1.7,6.9.4,9.2-2a6.5,6.5,0,0,0,1.9-5.6,1.6,1.6,0,0,0-1.9-1,1.5,1.5,0,0,0-1,1.8,3.7,3.7,0,0,1-2.1,3.4,6.2,6.2,0,0,1-3.8.7,15.7,15.7,0,0,1-4.7-1.3l-4.7-2.3a50.6,50.6,0,0,1-14-12.5,15.2,15.2,0,0,0-3-3.2,9,9,0,0,0-4.8-1.4,9.5,9.5,0,0,0-4.8,1.6A38.2,38.2,0,0,1,114,115a50.9,50.9,0,0,1-11.4,3.2,105.1,105.1,0,0,1-11.2.6c-7.7,0-15.5-1.1-22.5-4.3l-2.7-1.3c-.9-.5-1.8-1.1-2.7-1.5a8.2,8.2,0,0,0-5.1-.8,8,8,0,0,0-4.2,2.1,27.8,27.8,0,0,0-2.7,3.3,47.8,47.8,0,0,1-14.6,12.2c-2.8,1.5-6,3.2-9.3,3a5.2,5.2,0,0,1-3.4-1.2c-1-.9-1.7-2.5-1-3.7a7.1,7.1,0,0,1,2.9-2.5,31.3,31.3,0,0,0,4.2-2.9,29.6,29.6,0,0,0,6.2-8.3A104.6,104.6,0,0,0,41.1,102a118.1,118.1,0,0,0,3.4-12q.8-3,1.2-6l-1.8,1.1,4.7.7,11.5,1.7,13.8,2.1,12,1.8,5.7.9a4.2,4.2,0,0,0,1.6-.1l2.9-.5L107,90.1,120.8,88l12.4-1.9,6.8-1h.3L138.5,84a108.9,108.9,0,0,0,5.9,21.5c2.4,6,5.2,12.4,10.4,16.5,1.3,1,2.8,1.7,4.1,2.6a4.4,4.4,0,0,1,2.4,2.8,1.5,1.5,0,0,0,1.8,1.1A1.8,1.8,0,0,0,164.2,126.6Z" style="fill:#6a3417"/><path d="M161,152.9a13.5,13.5,0,0,1-4.7-.9c-9.7-3.5-17.8-9.7-24.7-19.1a5.9,5.9,0,0,0-7.7-1.6c-9,5.3-18.6,7.8-30.1,7.8H90.4c-11.5,0-21.1-2.5-30.1-7.8a6.1,6.1,0,0,0-3-.8,5.9,5.9,0,0,0-4.7,2.4c-6.9,9.4-15,15.6-24.7,19.1a13.6,13.6,0,0,1-4.8.9,8.7,8.7,0,0,1-7.4-3.5,6.6,6.6,0,0,1-1.2-4.8c.6-3,3.2-4.6,5.6-6l1.2-.7c4.9-3.1,7.8-8.6,9.9-13.6a110.6,110.6,0,0,0,6.2-18.1c.5-2.1.9-4.2,1.3-6.5a11.6,11.6,0,0,0,.4-1.8,1.4,1.4,0,0,1,1.4-1.3l.2-.3a1.5,1.5,0,0,1,1.3-.7h.7l3.6,1.8,45.8,6.9L138,97.5l3.6-1.8h.7a1.3,1.3,0,0,1,1.2.7l.2.3a1.6,1.6,0,0,1,1.4,1.3c.1.3.1.7.2,1.1v.3c0,.1.1.3.1.4.4,2.3.9,4.4,1.4,6.5a.7.7,0,0,1,.1.5,113.6,113.6,0,0,0,5.9,17.6c2.2,5,5.1,10.5,9.9,13.6l1.3.7c2.3,1.4,5,3,5.6,6a6.6,6.6,0,0,1-1.2,4.8,8.8,8.8,0,0,1-7.5,3.5Z" style="fill:#ce894a"/><path d="M142.3,97.1l.7,1.1h.6l.3,1.7.2.2c.4,2.2.8,4.4,1.4,6.5h-.1a106.6,106.6,0,0,0,6.2,18.3c2.3,5.5,5.4,11.1,10.4,14.2,2.5,1.6,5.7,2.9,6.2,5.8a5,5,0,0,1-.9,3.6,7.5,7.5,0,0,1-6.3,2.9,12.5,12.5,0,0,1-4.2-.8c-11.5-4.1-19-11.8-24-18.6a7.5,7.5,0,0,0-6-3,8.6,8.6,0,0,0-3.7,1c-9.8,5.8-19.5,7.6-29.3,7.6H90.4c-9.8,0-19.5-1.8-29.4-7.6a7.9,7.9,0,0,0-3.7-1,7.5,7.5,0,0,0-5.9,3c-5,6.8-12.5,14.5-24.1,18.6a11.6,11.6,0,0,1-4.2.8,7.4,7.4,0,0,1-6.2-2.9,5,5,0,0,1-.9-3.6c.5-2.9,3.7-4.2,6.1-5.8,5.1-3.1,8.1-8.7,10.5-14.2a107.6,107.6,0,0,0,6.2-18.4c.6-2.1,1-4.3,1.4-6.5.1-.6.3-1.3.4-1.9h.7l.7-1.1,3.8,1.8,46.3,7,46.4-7,3.8-1.8M42,94.1a3,3,0,0,0-2.4,1.2,3,3,0,0,0-2,2.3l-.3,1.8c-.4,2.3-.9,4.4-1.4,6.4a114,114,0,0,1-6,17.9c-2.1,4.8-4.8,10-9.4,12.9l-1.2.8c-2.3,1.3-5.6,3.2-6.3,6.9a8.3,8.3,0,0,0,1.4,5.9,10.3,10.3,0,0,0,8.7,4.2,16.1,16.1,0,0,0,5.3-1c10-3.6,18.3-10,25.4-19.6a4.4,4.4,0,0,1,3.5-1.8,4,4,0,0,1,2.2.6c9.3,5.5,19.1,8,30.9,8h3.4c11.8,0,21.6-2.5,30.9-8a3.9,3.9,0,0,1,2.1-.6,4.5,4.5,0,0,1,3.6,1.8c7.1,9.6,15.4,16,25.4,19.6a16,16,0,0,0,5.2,1c3.8,0,6.9-1.5,8.7-4.2a7.4,7.4,0,0,0,1.4-5.9c-.6-3.7-3.8-5.5-6.3-7l-1.2-.7c-4.5-2.9-7.2-8.1-9.3-12.9a112.2,112.2,0,0,1-5.8-17.2c0-.2-.1-.5-.1-.7-.5-2-1-4.1-1.4-6.3a1.4,1.4,0,0,0-.2-.7h0a4.3,4.3,0,0,1-.2-1.1,3.2,3.2,0,0,0-1.9-2.3,3,3,0,0,0-2.4-1.2,2.8,2.8,0,0,0-1.3.3L137.6,96l-45.5,6.9L46.7,96l-3.4-1.6a2.8,2.8,0,0,0-1.3-.3Z" style="fill:#6a3417"/><g id="VC"><path d="M92.2,125.7a69.3,69.3,0,0,1-24.7-4.5C42,111.6,23.9,88,15.3,53.1A195.5,195.5,0,0,1,9.9,2.9a1.5,1.5,0,0,1,1.5-1.4H173a1.5,1.5,0,0,1,1.5,1.4,195.5,195.5,0,0,1-5.4,50.2c-8.7,34.9-26.7,58.5-52.2,68.1A69.3,69.3,0,0,1,92.2,125.7Z" style="fill:#ffeb81"/><path d="M173,3s4.6,93.7-56.7,116.8a66.4,66.4,0,0,1-24.1,4.4A67.3,67.3,0,0,1,68,119.8C6.8,96.7,11.4,3,11.4,3H173m0-3H11.4a3.1,3.1,0,0,0-3,2.9,192,192,0,0,0,5.4,50.6c3.9,15.6,9.6,29,17.1,40,9.4,13.8,21.5,23.6,36.1,29.1a69.5,69.5,0,0,0,25.2,4.6,70.3,70.3,0,0,0,25.2-4.6c14.5-5.5,26.7-15.3,36.1-29.1,7.4-11,13.2-24.4,17-40A194.7,194.7,0,0,0,176,2.9,3.1,3.1,0,0,0,173,0Z" style="fill:#ffaa5a"/><path d="M92.2,112.9c-22-1.5-39.9-13.5-51.7-34.7A61.5,61.5,0,0,1,37.3,72a119.7,119.7,0,0,1-8.7-27.3c-.4-2.5-.8-4.8-1.1-7.1h0c-.6-4.2-1-8.5-1.3-13a4.6,4.6,0,0,1,1.3-3.3,4.8,4.8,0,0,1,3.3-1.5h.3c7.5.5,28.5,1.4,61,1.4,26.6,0,49.8-.7,61.3-1.1h.1a4.8,4.8,0,0,1,3.4,1.4,4.5,4.5,0,0,1,1.2,3.3c-.8,17.6-4.5,34-10.7,47.4-1,2-2,4.1-3.1,6.1-11.8,21.3-29.7,33.3-51.8,34.7h-.3Z" style="fill:#ffeb81"/><path d="M30.8,21.2H31c7.7.5,28.5,1.4,61.1,1.4,28.3,0,52.7-.8,61.3-1.1h.1a3,3,0,0,1,3.1,3.2c-.8,17-4.3,33.1-10.6,46.8-.9,2.1-2,4.1-3,6-10.7,19.3-27.5,32.5-50.6,33.9h-.1c-23-1.5-39.8-14.7-50.5-33.9-1.1-2-2.2-4-3.1-6.1a113.8,113.8,0,0,1-8.6-27c-.4-2.3-.8-4.6-1.1-7h0c-.6-4.2-1-8.5-1.3-12.8a3.2,3.2,0,0,1,3.1-3.3m0-3a6.2,6.2,0,0,0-6.1,6.4c.3,4.5.7,8.9,1.3,13.1h0q.5,3.5,1.2,7.2A115.2,115.2,0,0,0,36,72.7c.8,2,1.9,4,3.1,6.3,12.1,21.6,30.5,33.9,53,35.4h.5c22.7-1.4,41-13.7,53-35.4,1.2-2.1,2.2-4.2,3.1-6.2,6.3-13.7,10.1-30.3,10.9-48a5.6,5.6,0,0,0-1.7-4.4,6,6,0,0,0-4.4-1.9h-.2c-11.5.4-34.7,1.1-61.2,1.1-32.5,0-53.4-.9-61-1.4Z" style="fill:#ffaa5a"/><path d="M151.4,40.9c-3.9,1.3-26.9,4.3-59.3,4.3s-55.2-3-59-4.3-4-3-4.1-3.5c.3,2.4.7,4.7,1.1,7a292,292,0,0,0,62,4.1,294.5,294.5,0,0,0,62.3-4.1c.4-2.3.8-4.6,1.1-7C155.4,37.9,154.8,39.8,151.4,40.9Z" style="fill:#ffaa5a;opacity:0.30000000000000004;mix-blend-mode:multiply"/><path d="M146,71.5c-.9,2.1-2,4.1-3,6a262.8,262.8,0,0,1-50.8,4.7,259.3,259.3,0,0,1-50.4-4.7c-1.1-2-2.2-4-3.1-6.1a6.4,6.4,0,0,0,2.9,2.1c3.3,1.2,22.8,5.5,50.6,5.4s47.6-4.2,50.9-5.4A6.1,6.1,0,0,0,146,71.5Z" style="fill:#ffaa5a;opacity:0.30000000000000004;mix-blend-mode:multiply"/><path d="M164,20.5a174.2,174.2,0,0,1-2.4,21.2,182.7,182.7,0,0,1-24.4,4.1c-9.8,1.1-19.7,1.8-29.6,2.1s-20.5.2-30.7-.1-19.3-1-28.9-1.9a235.9,235.9,0,0,1-23.6-3.6L22.9,42c-1.3-7.1-2.1-14.3-2.7-21.5-.1-.8-1.3-.8-1.3,0-.5,34.2,13.6,74.4,45.9,90.6A72.9,72.9,0,0,0,89.1,118c8.3.8,17.4-1.5,25-4.6,15.6-6.2,27.9-18.1,36.2-32.6,10.5-18.2,14.8-39.4,15.2-60.3C165.6,19.5,164,19.5,164,20.5ZM44.5,47.5c9.5,1,19.1,1.7,28.6,2.1s20.6.6,30.9.3,20-.7,30-1.7a209.7,209.7,0,0,0,26-4.1l1.2-.3a120.9,120.9,0,0,1-10.3,31.1A144.4,144.4,0,0,1,130.3,79c-8.3,1.1-16.6,1.7-25,2s-17.4.3-26.1,0-16.4-1-24.5-2a147.9,147.9,0,0,1-19.9-3.5l-1.2-.3A116,116,0,0,1,23.3,44.1C30.3,45.6,37.4,46.6,44.5,47.5Zm74.9,60.8a68.4,68.4,0,0,1-24.2,7.2c-8.1.8-16.9-1.5-24.4-4.5-15.3-6.1-27.3-18-35.3-32.2a7.5,7.5,0,0,0-.7-1.2,166.3,166.3,0,0,0,16.9,3c8.1,1.1,16.2,1.8,24.3,2.2s17.5.5,26.2.3,17-.7,25.4-1.7a153.3,153.3,0,0,0,22.1-4.1C142.7,90.2,132.9,101.2,119.4,108.3Z" style="fill:#ffaa5a"/><path d="M7.9,14.5a6.4,6.4,0,1,1,0-12.7H176.5a6.4,6.4,0,1,1,0,12.7Z" style="fill:#fcd54d"/><path d="M176.5,3.3a4.9,4.9,0,0,1,4.9,4.9,4.9,4.9,0,0,1-4.9,4.8H7.9A4.9,4.9,0,0,1,3,8.2,4.9,4.9,0,0,1,7.9,3.3H176.5m0-3H7.9A7.9,7.9,0,1,0,7.9,16H176.5a7.9,7.9,0,0,0,7.9-7.8A7.9,7.9,0,0,0,176.5.3Z" style="fill:#ff8d3d"/></g><path d="M92.4,26.2a2,2,0,0,1,2.2,1.6l.3,2.2a6.2,6.2,0,0,1-2.7,11.9A6.3,6.3,0,0,1,86,35.6a6.1,6.1,0,0,1,3.9-5.7l.2-2.1a2.2,2.2,0,0,1,2.3-1.6m0-3a5.1,5.1,0,0,0-5.3,4.3V28A9.2,9.2,0,0,0,83,35.6a9.3,9.3,0,1,0,18.5,0,9.5,9.5,0,0,0-3.8-7.4v-.7a5,5,0,0,0-5.2-4.3Z" style="fill:#6a3417"/><path d="M92.4,54.1a2,2,0,0,1,2.2,1.7l.3,2.2A6.2,6.2,0,1,1,86,63.6a6.1,6.1,0,0,1,3.9-5.7l.2-2.1a2.1,2.1,0,0,1,2.3-1.7m0-3a5.2,5.2,0,0,0-5.3,4.3V56a9.2,9.2,0,1,0,14.4,7.6,9.4,9.4,0,0,0-3.8-7.4v-.8a5,5,0,0,0-5.2-4.3Z" style="fill:#6a3417"/><path d="M92.4,86.8a2,2,0,0,1,2.2,1.6l.3,2.2a6.4,6.4,0,0,1,3.6,5.7,6.3,6.3,0,1,1-8.6-5.8l.2-2.1a2.2,2.2,0,0,1,2.3-1.6m0-3a5.1,5.1,0,0,0-5.3,4.3v.5a9.2,9.2,0,1,0,14.4,7.7,9.2,9.2,0,0,0-3.8-7.4v-.8a5,5,0,0,0-5.2-4.3Z" style="fill:#6a3417"/><path d="M95.3,33.4H89.5l.6-5.6a2.2,2.2,0,0,1,2.3-1.6h0a2,2,0,0,1,2.2,1.6Z" style="fill:#8c4a19"/><path d="M98.5,35.6a6.3,6.3,0,1,1-6.3-6.2A6.3,6.3,0,0,1,98.5,35.6Z" style="fill:#ce894a"/><path d="M95.3,61.3H89.5l.6-5.5a2.1,2.1,0,0,1,2.3-1.7h0a2,2,0,0,1,2.2,1.7Z" style="fill:#8c4a19"/><path d="M98.5,63.6a6.3,6.3,0,1,1-6.3-6.2A6.3,6.3,0,0,1,98.5,63.6Z" style="fill:#ce894a"/><path d="M95.3,94H89.5l.6-5.6a2.2,2.2,0,0,1,2.3-1.6h0a2,2,0,0,1,2.2,1.6Z" style="fill:#8c4a19"/><path d="M98.5,96.3A6.3,6.3,0,1,1,92.2,90,6.3,6.3,0,0,1,98.5,96.3Z" style="fill:#ce894a"/></g></g></g></svg>