<svg xmlns="http://www.w3.org/2000/svg" viewBox="0 0 85.8 84.4"><g style="isolation:isolate"><g id="Layer_2" data-name="Layer 2"><g id="Layer_1-2" data-name="Layer 1"><path d="M61.3,25.5l-.9-.3L44.4,14a2.1,2.1,0,0,1-.6-1,2,2,0,0,1,.3-1.1l6.8-9.8a1.6,1.6,0,0,1,1.2-.6h.3c6.6,1.4,12.3,5.3,17,11.9a1.7,1.7,0,0,1,0,1.7l-6.9,9.7a1,1,0,0,1-.9.6Z" style="fill:#ffeb81"/><path d="M52.1,3c6.6,1.3,11.8,5.3,16,11.2L61.3,24l-16-11.3L52.1,3m0-3a3.1,3.1,0,0,0-2.4,1.3L42.9,11a2.6,2.6,0,0,0-.5,2.2,2.8,2.8,0,0,0,1.2,2l16,11.2a2.7,2.7,0,0,0,1.7.6,3.1,3.1,0,0,0,2.5-1.3L70.6,16a3.2,3.2,0,0,0,0-3.5C65.7,5.7,59.7,1.5,52.7.1Z" style="fill:#ffaa5a"/><path d="M68.1,14.2A28.5,28.5,0,0,0,59,5.6c1.5,1.2,3.2,2.8,3.5,3.9s-4.3,4.8-4.3,4.8l5.1,6.8Z" style="fill:#ffae55;opacity:0.5;mix-blend-mode:multiply"/><g id="VC"><path d="M72.9,71.9a1.4,1.4,0,0,1-1.1-.4c-6.1-6.3-13.9-11.8-24-16.9a1.4,1.4,0,0,1-.8-.9,1.5,1.5,0,0,1,.3-1.3l9.9-14.1a1.4,1.4,0,0,1,1.2-.7l.7.2c7.9,3.7,16,9.4,24.7,17.3a1.7,1.7,0,0,1,.5,1.2c0,3.2-6,14.5-11.1,15.6Z" style="fill:#baa2ee"/><path d="M58.4,39.1c8.4,4,16.5,10,24.4,17.1,0,3-5.7,13.4-9.9,14.2-6.8-7-15.2-12.5-24.4-17.1l9.9-14.2m0-3A3.1,3.1,0,0,0,56,37.4L46,51.6a2.9,2.9,0,0,0-.4,2.4,3.1,3.1,0,0,0,1.5,2C57,60.9,64.7,66.3,70.7,72.5a2.9,2.9,0,0,0,2.2.9h.5c6-1.3,12.4-13.4,12.4-17.1a2.9,2.9,0,0,0-1-2.3c-8.8-8-17-13.7-25.1-17.6a2.8,2.8,0,0,0-1.3-.3Z" style="fill:#7850b3"/><path d="M48.5,53.3c1.7.8,3.3,1.7,4.9,2.6a19.4,19.4,0,0,0,4-2.1,24.5,24.5,0,0,0,5.2-4.9S72.9,56.3,75,59.1s-.8,8.1-2.1,11.3c4.2-1,9.9-11.3,9.9-14.2-7.9-7.1-16-13.1-24.4-17.1Z" style="fill:#baa2ee;opacity:0.5;mix-blend-mode:multiply"/><path d="M23.6,21a23.3,23.3,0,0,0-4.2,11.1h0C17.5,44.4,12.8,54.6,5,62.6L25.2,78.1c7-10.4,13.1-15.8,25-22.4h0a24.3,24.3,0,0,0,10.7-8.5c7.4-10.6,5.1-25-5.2-32.3S31,10.4,23.6,21Z" style="fill:#baa2ee"/><path d="M55.7,14.9a22.8,22.8,0,0,0-22.4-2c6.6-.1,18.8,2.6,19.1,16.1S42.5,39.1,35.3,46.8,23.9,62.2,23.4,62.4s-8.1-4.8-17.3-1h0L5,62.6,25.2,78.1c7-10.4,13.1-15.8,25-22.4a24.3,24.3,0,0,0,10.7-8.5C68.3,36.6,66,22.2,55.7,14.9Z" style="fill:#baa2ee;opacity:0.5;mix-blend-mode:multiply"/><ellipse cx="14.8" cy="70.8" rx="9.4" ry="12.8" transform="matrix(0.57, -0.82, 0.82, 0.57, -51.61, 42.17)" style="fill:#d7cafc"/><path d="M43.9,46.7a13.1,13.1,0,0,1-7.7-2.5,13.5,13.5,0,0,1-5.6-9,14.3,14.3,0,0,1,14-16.5,13.7,13.7,0,0,1,7.8,2.5,13.9,13.9,0,0,1,3.1,19.4A14.3,14.3,0,0,1,43.9,46.7Z" style="fill:#baa2ee"/><path d="M44.6,20.2a11.8,11.8,0,0,1,6.9,2.2,12.4,12.4,0,0,1,2.8,17.3,12.6,12.6,0,0,1-10.4,5.5A11.8,11.8,0,0,1,37,43a12.5,12.5,0,0,1-2.8-17.3,12.7,12.7,0,0,1,10.4-5.5m0-3h0a15.6,15.6,0,0,0-12.8,6.7c-4.9,7.1-3.4,16.7,3.5,21.5a14.7,14.7,0,0,0,8.6,2.8A15.8,15.8,0,0,0,59.4,29.9,14.3,14.3,0,0,0,53.2,20a14.7,14.7,0,0,0-8.6-2.8Z" style="fill:#7850b3"/><path d="M42.3,42.6c-2.6,0-4.2-2.7-4.8-3.8a4.3,4.3,0,0,0-.8-1.1A3,3,0,0,1,35,35.9a.9.9,0,0,1,.3-1,2.4,2.4,0,0,1,1.3-.7,17.1,17.1,0,0,1,6.6-9,3.2,3.2,0,0,1,.3-1.7,1,1,0,0,1,.8-.6h.2a3,3,0,0,1,2.1,1.4h1.1a7.9,7.9,0,0,1,3,.8,4,4,0,0,1,2.2,3.6c.4,3.2-3,6.5-4,7.4a12.4,12.4,0,0,1-2.6,4.2c-1.4,1.5-2.7,2.2-4,2.2Z" style="fill:#baa2ee"/><path d="M44.5,23.9c.6,0,1.4,1.1,1.4,1.1s2.6.2,4.4,1.1a3.1,3.1,0,0,1,1.6,2.8c.5,3.1-3.9,6.7-3.9,6.7a11.3,11.3,0,0,1-2.5,4.2,4.6,4.6,0,0,1-3.2,1.8c-1.8,0-3.1-1.9-3.9-3.3a5.6,5.6,0,0,0-1.1-1.4s-1.2-.6-1.3-1.3a2.2,2.2,0,0,1,1.2-.5h.2a16,16,0,0,1,6.5-9.2l.4-.4a2.4,2.4,0,0,1,.1-1.6h.1m0-2h-.3a1.9,1.9,0,0,0-1.6,1.2,2.7,2.7,0,0,0-.4,1.5,18.5,18.5,0,0,0-6.4,8.8,3.1,3.1,0,0,0-1.2.8,2.2,2.2,0,0,0-.6,1.9,4.2,4.2,0,0,0,2.1,2.4l.6.8c.6,1.2,2.4,4.3,5.6,4.3A6.3,6.3,0,0,0,47,41.1a13.4,13.4,0,0,0,2.8-4.4c1.3-1.2,4.5-4.5,4.1-7.9a5,5,0,0,0-2.7-4.5,8.6,8.6,0,0,0-3.4-.9h-.6a3.9,3.9,0,0,0-2.7-1.5Z" style="fill:#7850b3"/><circle cx="42.5" cy="36.9" r="2.3" transform="translate(-9.3 59) rotate(-64.1)" style="fill:#7850b3"/><circle cx="47.6" cy="29.6" r="2.3" style="fill:#7850b3"/><path d="M44.7,35a1.6,1.6,0,0,1-.2-2.1,1.8,1.8,0,0,1,2.1-.6l.7,2.5Z" style="fill:#7850b3"/><path d="M42.9,10.9a22.5,22.5,0,0,1,12.8,4C66,22.2,68.3,36.6,60.9,47.2a24.3,24.3,0,0,1-10.7,8.5c-11.9,6.6-18,12-25,22.4h0a8.3,8.3,0,0,1-7.1,3.3,16.4,16.4,0,0,1-8.8-2.9c-5.7-4.1-8-10.8-5-15.1a2.7,2.7,0,0,1,.7-.8H5c7.8-8,12.5-18.2,14.4-30.5h0A23.8,23.8,0,0,1,42.9,10.9m0-3A26.6,26.6,0,0,0,21.1,19.3a27.2,27.2,0,0,0-4.7,12.3h0C14.7,43.3,10.1,53,2.8,60.5a.1.1,0,0,1-.1.1l-.9,1.1C-2.1,67.3.5,75.9,7.6,80.9a18.1,18.1,0,0,0,10.5,3.5,11.5,11.5,0,0,0,9.6-4.6h0c6.6-9.8,12.4-15,23.8-21.4a25.6,25.6,0,0,0,11.8-9.5,26.3,26.3,0,0,0,4.6-19.6,25.4,25.4,0,0,0-25-21.4Z" style="fill:#7850b3"/></g><ellipse cx="14.8" cy="70.8" rx="6.3" ry="9.6" transform="translate(-51.6 42.2) rotate(-54.9)" style="fill:#575757"/></g></g></g></svg>