<svg xmlns="http://www.w3.org/2000/svg" viewBox="0 0 222.9 468.8"><g style="isolation:isolate"><g id="Layer_2" data-name="Layer 2"><g id="Layer_1-2" data-name="Layer 1"><g id="VC"><path d="M3,467.3a1.5,1.5,0,0,1-1.5-1.5V106.2A104.8,104.8,0,0,1,106.2,1.5h10.5A104.8,104.8,0,0,1,221.4,106.2V465.8a1.4,1.4,0,0,1-1.5,1.5Z" style="fill:#d6e8bf"/><path d="M116.7,3A103.2,103.2,0,0,1,219.9,106.2V465.8H3V106.2A103.1,103.1,0,0,1,106.2,3h10.5m0-3H106.2A106.2,106.2,0,0,0,0,106.2V465.8a2.9,2.9,0,0,0,3,3H219.9a2.9,2.9,0,0,0,3-3V106.2A106.2,106.2,0,0,0,116.7,0Z" style="fill:#7b8c5a"/><rect x="7.9" y="111.1" width="207.1" height="323.62" rx="1.5" style="fill:#93a571"/><path d="M213.5,112.6V433.2H9.4V112.6H213.5m0-3H9.4a3,3,0,0,0-3,3V433.2a2.9,2.9,0,0,0,3,3H213.5a2.9,2.9,0,0,0,3-3V112.6a3,3,0,0,0-3-3Z" style="fill:#7b8c5a"/><g style="opacity:0.30000000000000004;mix-blend-mode:multiply"><path d="M42.6,115.5C44,139.1,57.4,161,76,176.1s41.8,23.8,65.5,28.5,47.9,5.6,72,6.5v9.3H9.4V115.7Z" style="fill:#93a571"/></g><path d="M9.6,107.7a1.6,1.6,0,0,1-1.1-.5,1.5,1.5,0,0,1-.4-1.1,109.2,109.2,0,0,1,25-63.3A97.2,97.2,0,0,1,88.9,9.5a99.4,99.4,0,0,1,17.3-1.6h10.5c47.7,0,88.4,36.4,96.8,86.5a113.1,113.1,0,0,1,1.3,11.7,1.2,1.2,0,0,1-.4,1.1,1.3,1.3,0,0,1-1.1.5Z" style="fill:#93a571"/><path d="M116.7,9.4c47.6,0,87.2,36.8,95.3,85.2a89.5,89.5,0,0,1,1.3,11.6H9.6C12.5,58.4,45.9,19.3,89.1,11a97.1,97.1,0,0,1,17.1-1.6h10.5m0-3H106.2A93.7,93.7,0,0,0,88.6,8.1C66.9,12.2,46.8,24.2,32,41.8A111.6,111.6,0,0,0,6.6,106a3.6,3.6,0,0,0,.8,2.3,3.1,3.1,0,0,0,2.2.9H213.3a2.8,2.8,0,0,0,2.2-.9,2.9,2.9,0,0,0,.8-2.3A117,117,0,0,0,215,94.1a109.4,109.4,0,0,0-33.8-62.5A96.5,96.5,0,0,0,116.7,6.4Z" style="fill:#7b8c5a"/><g style="opacity:0.30000000000000004;mix-blend-mode:multiply"><path d="M42.6,339.3C44,359.4,57.4,378,76,390.8s41.8,20.3,65.5,24.3,47.9,4.8,72,5.5v8H9.4V339.5Z" style="fill:#93a571"/></g><rect x="6.2" y="214.3" width="210.2" height="12.32" rx="1.5" style="fill:#d6e8bf"/><path d="M215,215.8v9.3H7.7v-9.3H215m0-3H7.7a3,3,0,0,0-3,3v9.3a3,3,0,0,0,3,3H215a3,3,0,0,0,3-3v-9.3a3,3,0,0,0-3-3Z" style="fill:#7b8c5a"/><rect x="7.9" y="104.7" width="207.1" height="12.32" rx="1.5" style="fill:#d6e8bf"/><path d="M213.5,106.2v9.3H9.4v-9.3H213.5m0-3H9.4a2.9,2.9,0,0,0-3,3v9.3a2.9,2.9,0,0,0,3,3H213.5a2.9,2.9,0,0,0,3-3v-9.3a2.9,2.9,0,0,0-3-3Z" style="fill:#7b8c5a"/><rect x="5.7" y="333.2" width="211" height="12.32" rx="1.5" style="fill:#d6e8bf"/><path d="M215.3,334.7V344H7.2v-9.3H215.3m0-3H7.2a3,3,0,0,0-3,3V344a3,3,0,0,0,3,3H215.3a3,3,0,0,0,3-3v-9.3a3,3,0,0,0-3-3Z" style="fill:#7b8c5a"/><rect x="6.4" y="427.1" width="210.6" height="12.32" rx="1.5" style="fill:#d6e8bf"/><path d="M215.5,428.6v9.3H7.9v-9.3H215.5m0-3H7.9a2.9,2.9,0,0,0-3,3v9.3a3,3,0,0,0,3,3H215.5a3.1,3.1,0,0,0,3-3v-9.3a3,3,0,0,0-3-3Z" style="fill:#7b8c5a"/><g style="opacity:0.30000000000000004;mix-blend-mode:multiply"><path d="M213.3,106.2H9.6C12.5,58.4,45.9,19.3,89.1,11A68,68,0,0,0,72.2,41.3c-2.7,10.9-2.3,23.3,4.6,32.1s19.9,12.2,31.4,14.1c34.3,5.5,69.1,6.7,103.8,7.1A89.5,89.5,0,0,1,213.3,106.2Z" style="fill:#93a571"/></g></g></g></g></g></svg>