<svg xmlns="http://www.w3.org/2000/svg" viewBox="0 0 136.7 138.5"><g id="Layer_2" data-name="Layer 2"><g id="Layer_1-2" data-name="Layer 1"><path d="M69.3,87.4C56.7,87.4,33,85.5,33,78.2S56.7,69,69.3,69s36.4,1.9,36.4,9.2S81.9,87.4,69.3,87.4Z" style="fill:#cecece"/><path d="M69.3,70.5c19.3,0,34.9,3.4,34.9,7.7s-15.6,7.7-34.9,7.7-34.8-3.5-34.8-7.7,15.6-7.7,34.8-7.7m15,12.4c2.2,0,3.9-.3,3.9-.7s-1.7-.7-3.9-.7-3.9.3-3.9.7,1.8.7,3.9.7m-30,0c2.2,0,3.9-.3,3.9-.7s-1.7-.7-3.9-.7-3.9.3-3.9.7,1.8.7,3.9.7m15,1c2.2,0,3.9-.3,3.9-.7s-1.7-.7-3.9-.7-3.9.3-3.9.7,1.8.7,3.9.7m0-16.4c-6.3,0-37.8.5-37.8,10.7S63,88.9,69.3,88.9s37.9-.5,37.9-10.7S75.6,67.5,69.3,67.5Z" style="fill:#8d8d8d"/><path d="M25.4,137A23.9,23.9,0,0,1,1.5,113.1v-77A23.9,23.9,0,0,1,25.4,12.2H69.3a3.5,3.5,0,0,1,3.5,3.5,3.5,3.5,0,0,1-3.5,3.5H25.4A16.9,16.9,0,0,0,8.5,36.1v77A16.9,16.9,0,0,0,25.4,130h93.3a3.4,3.4,0,0,1,3.5,3.5,3.5,3.5,0,0,1-3.5,3.5Z" style="fill:#cecece"/><path d="M69.3,13.7a2,2,0,0,1,0,4H25.4A18.4,18.4,0,0,0,7,36.1v77a18.4,18.4,0,0,0,18.4,18.4h93.3a2,2,0,0,1,0,4H25.4A22.4,22.4,0,0,1,3,113.1v-77A22.4,22.4,0,0,1,25.4,13.7H69.3m0-3H25.4A25.4,25.4,0,0,0,0,36.1v77a25.4,25.4,0,0,0,25.4,25.4h93.3a5,5,0,0,0,5-5,5,5,0,0,0-5-5H25.4A15.4,15.4,0,0,1,10,113.1v-77A15.4,15.4,0,0,1,25.4,20.7H69.3a5,5,0,0,0,5-5,5,5,0,0,0-5-5Z" style="fill:#8d8d8d"/><path d="M66.1,31.7a1.5,1.5,0,0,1-1.5-1.5V6.2a4.7,4.7,0,0,1,9.4,0v24a1.5,1.5,0,0,1-1.5,1.5Z" style="fill:#8d8d8d"/><path d="M69.3,3a3.2,3.2,0,0,1,3.2,3.2v24H66.1V6.2A3.2,3.2,0,0,1,69.3,3m0-3a6.2,6.2,0,0,0-6.2,6.2v24a3,3,0,0,0,3,3h6.4a3,3,0,0,0,3-3V6.2A6.2,6.2,0,0,0,69.3,0Z" style="fill:#575757"/><g id="VC"><path d="M41.3,74.6a1.3,1.3,0,0,1-1.2-.6,21.3,21.3,0,0,1-4.4-12.8c0-11.9,10.5-22.3,25.4-25.1h.5V23.1a7.7,7.7,0,0,1,15.4,0V36c15.1,2.7,25.9,13.1,25.9,25.2A21.9,21.9,0,0,1,98.6,74a1.6,1.6,0,0,1-1.2.6Z" style="fill:#baa2ee"/><path d="M69.3,16.9a6.2,6.2,0,0,1,6.2,6.2V37.2c14.7,2.2,25.9,12.1,25.9,24a20.5,20.5,0,0,1-4,11.9H41.3a19.9,19.9,0,0,1-4.1-11.9c0-11.4,10.3-21,24.2-23.7l1.7-.3V23.1a6.2,6.2,0,0,1,6.2-6.2h0m0-3a9.2,9.2,0,0,0-9.2,9.2V34.7c-15.2,3.2-25.9,14-25.9,26.5a23.3,23.3,0,0,0,4.6,13.7,3.3,3.3,0,0,0,2.5,1.2H97.4a3.3,3.3,0,0,0,2.4-1.2,23.3,23.3,0,0,0,4.6-13.7c0-12.5-10.8-23.3-25.9-26.5V23.1a9.2,9.2,0,0,0-9.2-9.2Z" style="fill:#7850b3"/><path d="M75.1,59.7a27.9,27.9,0,0,1-6.1-.8,13.5,13.5,0,0,1-4.8.7,23.9,23.9,0,0,1-3-.2C58,59,55.9,57.8,54.9,56s-.3-6,.9-8.5a12.2,12.2,0,0,0,.8-2.3,5.2,5.2,0,0,1,.6-3.5,1.2,1.2,0,0,1,.8-.4h.2a4.1,4.1,0,0,1,2.1,1.1,29,29,0,0,1,8.9-1.4A23.3,23.3,0,0,1,78,42.7h.2a4.6,4.6,0,0,1,2.4-1.2h.2a.8.8,0,0,1,.7.3c1,1.1.5,3.1.3,3.8a6.4,6.4,0,0,0,.8,1.9A11.9,11.9,0,0,1,84.3,52a5.6,5.6,0,0,1-2.5,5.6c-1.5,1.4-3.7,2.1-6.7,2.1Z" style="fill:#baa2ee"/><path d="M69.2,42.1a22.7,22.7,0,0,1,8.5,1.6l1,.2c.4-1,2.1-1.3,2.1-1.3s0,2.9,0,2.9c-.2,1.5,2.1,3.5,2.5,6.6a4.8,4.8,0,0,1-2.1,4.7c-1.5,1.5-3.9,1.9-6.1,1.9a25.9,25.9,0,0,1-6.1-.8,13.3,13.3,0,0,1-4.8.7,18.9,18.9,0,0,1-2.8-.2c-8.3-1.1-6.3-6.9-4.7-10.5a8.4,8.4,0,0,0,.9-2.7s-.3-2.1.4-2.9a3.5,3.5,0,0,1,2,1.4,26.6,26.6,0,0,1,9.2-1.6m0-2a27.2,27.2,0,0,0-8.6,1.3,4.8,4.8,0,0,0-2.2-1H58a2.1,2.1,0,0,0-1.5.7c-1.1,1.2-1.1,3.2-1,4.2a8.4,8.4,0,0,1-.6,1.9c-1.2,2.5-2.6,6.3-.9,9.3s3.6,3.5,7.1,4a24.5,24.5,0,0,0,3.1.2,14.5,14.5,0,0,0,4.9-.7,23.9,23.9,0,0,0,6,.8c3.2,0,5.7-.8,7.4-2.3a6.8,6.8,0,0,0,2.8-6.5,14.6,14.6,0,0,0-1.8-4.8,8.8,8.8,0,0,1-.7-1.3c.3-1.1.7-3.2-.5-4.6a2,2,0,0,0-1.5-.6h-.4A6.3,6.3,0,0,0,78,41.7a23.3,23.3,0,0,0-8.8-1.6Z" style="fill:#7850b3"/><circle cx="62.2" cy="50.1" r="3.7" transform="translate(-7.2 10.6) rotate(-9.2)" style="fill:#7850b3"/><circle cx="76.4" cy="50.1" r="3.7" transform="translate(-13.1 68.7) rotate(-45)" style="fill:#7850b3"/><path d="M66.7,53a2.6,2.6,0,0,1,5.2,0l-2.5,3.2Z" style="fill:#7850b3"/><path d="M34.7,78.6a10.6,10.6,0,0,1-6.4-2,6.9,6.9,0,0,1-2.9-5.4c0-4.1,4.2-7.5,9.3-7.5h69.2a11,11,0,0,1,6.5,2.1,6.8,6.8,0,0,1,2.8,5.4c0,4.1-4.1,7.4-9.3,7.4Z" style="fill:#baa2ee"/><path d="M103.9,65.2a8.8,8.8,0,0,1,5.5,1.8,4.9,4.9,0,0,1,2.3,4.2c0,3.2-3.5,5.9-7.8,5.9H34.7a9.5,9.5,0,0,1-5.5-1.7,5.5,5.5,0,0,1-2.3-4.2c0-3.3,3.5-6,7.8-6h69.2m0-3H34.7c-6,0-10.8,4-10.8,9a8.3,8.3,0,0,0,3.4,6.5,12.1,12.1,0,0,0,7.4,2.4h69.2c6,0,10.8-4,10.8-8.9a8.3,8.3,0,0,0-3.4-6.6,12.4,12.4,0,0,0-7.4-2.4Z" style="fill:#7850b3"/></g><rect x="26.9" y="122.7" width="108.3" height="9.15" rx="4.6" style="fill:#f1f2f2;stroke:#8d8d8d;stroke-linecap:round;stroke-linejoin:round;stroke-width:3px"/></g></g></svg>