<svg xmlns="http://www.w3.org/2000/svg" xmlns:xlink="http://www.w3.org/1999/xlink" viewBox="0 0 258.7 279.2"><defs><clipPath id="clip-path"><path d="M158.2,150l-1.6,55.4s-137.9,1-141.7-6-4.7-44.9,2-49.4S158.2,150,158.2,150Z" style="fill:none"/></clipPath></defs><g style="isolation:isolate"><g id="Layer_2" data-name="Layer 2"><g id="Layer_1-2" data-name="Layer 1"><path d="M35.7,228.7h0m0,0-.3.5,9.6.2-8.6,14.1-7,11.5-11.5,5.6L6.6,259.2V229.4l17-.4h1.2l10.9-.3m0-3h-.1l-10.8.3H23l-16.5.4a3.1,3.1,0,0,0-2.9,3v29.8a2.9,2.9,0,0,0,2.6,3l11.4,1.4h.3a2.8,2.8,0,0,0,1.3-.3l11.6-5.6a3.4,3.4,0,0,0,1.2-1.2l7-11.4L47.5,231a2.9,2.9,0,0,0,.1-3,3.3,3.3,0,0,0-2.6-1.6H37.5a2.8,2.8,0,0,0-1.8-.6Zm0,6Z" style="fill:#6a3417"/><path d="M202,225.6l10.2.3,11.7.3v20.9l-8.7,3-7.1-3-3-10.4-2.5-8.8-.6-2.3m0-3a3.3,3.3,0,0,0-2.4,1.2,2.7,2.7,0,0,0-.5,2.6l.6,2.3,2.5,8.8,3,10.4a3.1,3.1,0,0,0,1.7,2l7.2,3,1.1.2a1.6,1.6,0,0,0,1-.2l8.7-3a2.9,2.9,0,0,0,2-2.8V226.2a3.1,3.1,0,0,0-2.9-3l-11.7-.3-10.2-.3Z" style="fill:#6a3417"/><path d="M188.3,234.4l-2.2,18.2-2,16.9-8.6,6.7H159.9l-8.2-31.4-2.5-9.6,26.3,1.8,12.8-2.6m0-3h-.6L175.3,234l-25.8-1.8h-.3a3.1,3.1,0,0,0-2.3,1.1,3,3,0,0,0-.6,2.6l2.5,9.6,8.2,31.4a3,3,0,0,0,2.9,2.3h15.6a3.2,3.2,0,0,0,1.9-.7l8.5-6.7a2.8,2.8,0,0,0,1.2-2l2-16.8,2.2-18.2a3.1,3.1,0,0,0-.9-2.6,3.2,3.2,0,0,0-2.1-.8Zm0,6Z" style="fill:#6a3417"/><polygon points="6.6 229.4 6.6 259.2 17.9 260.6 26.8 244.7 35.4 229.2 35.7 228.7 24.8 229 23.6 229 6.6 229.4" style="fill:#ce894a"/><polygon points="17.9 260.6 29.4 255 36.4 243.5 45 229.4 35.4 229.2 24.8 229 23.6 228.9 23.6 229 20.4 246.8 17.9 260.6" style="fill:#a8662f"/><polygon points="202 225.6 202.6 227.9 205.1 236.7 208.1 247.1 215.2 250.1 223.9 247.1 223.9 226.2 212.2 225.9 202 225.6" style="fill:#a8662f"/><polygon points="149.2 235.2 151.7 244.8 159.9 276.2 175.5 276.2 175.5 237 149.2 235.2" style="fill:#ce894a"/><polygon points="175.5 237 175.5 276.2 184.1 269.5 186.1 252.6 188.3 234.4 175.5 237" style="fill:#a8662f"/><g id="VC"><path d="M127.3,159.3c-9.9,0-15.6-1.8-17.5-5.4s-4.9-33-5.1-61.2c-.1-20.8.8-57.7,8.3-70.1,1.8-3,4-4.6,6.5-4.6a6.5,6.5,0,0,1,2.6.6c8.7,3.8,26.4,6.1,46.3,6.1,22.3,0,50.8-3,63.9-11.4a1.3,1.3,0,0,1,.8-.3,1.1,1.1,0,0,1,.8.3,1.3,1.3,0,0,1,.7,1.4L221.8,125.8a1.3,1.3,0,0,1-.8,1.1l-56.2,27.6h-.3c-.2.1-21.5,4.7-37.2,4.7Z" style="fill:#e9f2da"/><path d="M233.1,14.5h0m0,0L220.3,125.6l-56.1,27.6s-21.2,4.6-36.9,4.6c-7.9,0-14.4-1.1-16.2-4.6-5.3-10.1-10.5-133.7,8.4-133.7a5.3,5.3,0,0,1,2,.5c9.3,4,27.5,6.2,46.9,6.2,25.1,0,52.3-3.7,64.7-11.7m0-3h0a2.8,2.8,0,0,0-1.6.5c-10.6,6.8-35.4,11.2-63.1,11.2-19.7,0-37.2-2.3-45.7-6a9.7,9.7,0,0,0-3.2-.7h0c-3.1,0-5.7,1.8-7.8,5.3-7.7,12.8-8.6,49.9-8.5,70.9.2,25.2,2.2,56.1,5.2,61.9,2.3,4.2,8.3,6.2,18.9,6.2,15.8,0,36.6-4.5,37.5-4.7l.7-.2,56.1-27.6a2.9,2.9,0,0,0,1.7-2.4L236.1,15v-.5a3,3,0,0,0-3-3Zm0,6Z" style="fill:#7b8c5a"/><path d="M111.1,153.2c-1.7-3.4-3.5-19.1-4.3-38.6,6-24.8,12.1-47.4,9.5-24.5-4.6,41.5,25,50.6,57.6,42.1,28.5-7.5,30.7-79.2,41-110.7,7.4-1.8,13.8-4.1,18.2-7L220.3,125.6l-56.1,27.6s-18.4,4-33.6,4.6l-12.5-.7C114.7,156.4,112.1,155.2,111.1,153.2Z" style="fill:#b9e48e;opacity:0.25;mix-blend-mode:multiply"/><path d="M15.8,233.2a1.4,1.4,0,0,1-1.4-1.4L12,185.1a1.5,1.5,0,0,1,.4-1.1,1.4,1.4,0,0,1,1-.5L161.8,180a1.5,1.5,0,0,1,1,.4,1.6,1.6,0,0,1,.5,1.1l.5,56.1a1.3,1.3,0,0,1-.5,1.1,1.4,1.4,0,0,1-1,.5Z" style="fill:#93a571"/><path d="M161.8,181.5l.5,56.2-146.4-6L13.5,185l148.3-3.5m0-3h-.1L13.4,182a2.7,2.7,0,0,0-2.1.9,2.7,2.7,0,0,0-.8,2.2l2.4,46.7a3,3,0,0,0,2.8,2.9l146.5,6h.1a2.9,2.9,0,0,0,2.1-.9,2.9,2.9,0,0,0,.9-2.2l-.5-56.1a2.7,2.7,0,0,0-.9-2.1,2.9,2.9,0,0,0-2.1-.9Z" style="fill:#737543"/><path d="M175.5,244.1c-1.8,0-2.5-1.5-3-10.8-.3-5.7-.5-13.9-.5-23.7,0-21.5.8-47.1,2.1-66.9,2.4-38,5.2-38,7.1-38s4.9,0,30.2,14.1c1.9-24.9,6.4-78.4,10.1-92.2S235.7,1.5,246.1,1.5A14.5,14.5,0,0,1,252,2.7c7.3,3.3,5.7,9,2.4,21.5A272.1,272.1,0,0,0,247.2,57c-6.1,38.3-11.8,76.3-11.9,76.7s-2.1,23.2-4.4,46.1c-1.4,13.4-2.5,24.2-3.4,31.9-1.8,15.5-2,15.5-3.1,15.9l-2,.8C179.6,244.1,176.5,244.1,175.5,244.1Z" style="fill:#d6e8bf"/><path d="M246.1,3a14,14,0,0,1,5.3,1.1c9.9,4.5.4,13.9-5.7,52.7s-11.9,76.6-11.9,76.6-8.5,92.3-9.9,92.8-44.1,16.4-48.4,16.4-1.4-136.4,5.7-136.4c3.8,0,18.6,7.8,31.5,15,1.7-22.5,6.4-79.9,10.2-94.2S237.1,3,246.1,3m0-3c-5.3,0-10.8,2.6-15.6,7.3A41.1,41.1,0,0,0,220,26.2c-3.6,13.6-7.9,64.4-9.9,90.1-23.8-13.1-27.3-13.1-28.9-13.1-3.6,0-4.9,4.4-6.2,13.1-.9,6.3-1.7,15.1-2.4,26.3-1.3,19.8-2.1,45.5-2.1,67,0,9.8.2,18,.5,23.8.2,3.1.4,5.5.7,7.2s.8,5,3.8,5c1.3,0,4.4,0,47.4-15.8l2-.7c1.9-.7,2.2-2.3,2.8-6.6.3-2.4.8-6,1.3-10.6.9-7.8,2-18.5,3.4-32,2.2-22.1,4.3-44.5,4.4-46.1s5.9-39.1,11.8-76.6a324.2,324.2,0,0,1,7.2-32.6c1.8-6.5,2.9-10.8,2.9-14.3s-2-7.1-6.1-8.9A15.8,15.8,0,0,0,246.1,0Z" style="fill:#7b8c5a"/><path d="M25.3,151.2a1.5,1.5,0,0,1-1.5-1.5c-.1-3.5-.6-34.4,6.1-41.2a4.4,4.4,0,0,1,3.3-1.5h.3c4.5.2,23.3,6.3,55.7,18,7.9-3.4,7.5-32.9,1.5-55.4-1.3-5-3-10.2-4.5-15.3C80.9,37.2,75.9,21,80.9,11.4c2-4.1,6-6.2,11.4-6.2,9.8,0,22.9,7.1,30.2,13.7,1.8,1.6,7.1,6.4-.6,62.2-3.6,26.3-8.4,51.9-8.8,53.9l-.5,18.2a1.6,1.6,0,0,1-.5,1.1,1.8,1.8,0,0,1-1,.4Z" style="fill:#d6e8bf"/><path d="M92.3,6.7c9.4,0,22.1,6.9,29.2,13.3,10.4,9.4-9.9,114.8-9.9,114.8l-.5,18.4-85.8-3.5s-.9-41.3,7.9-41.2h.2c5.6.3,34.8,10.5,55.8,18.1,10.4-3.1,8.4-36.9,2.9-57.4S76,24,82.2,12.1c2-3.9,5.6-5.4,10.1-5.4m0-3c-7.6,0-11.1,3.8-12.8,7-5.2,10.2-.1,26.6,5.3,44.1,1.5,5,3.1,10.2,4.4,15.2a138.7,138.7,0,0,1,4.4,34.4c-.1,11.8-2.4,17.4-4.5,19-32.2-11.7-50.9-17.7-55.6-17.9h-.3a6.1,6.1,0,0,0-4.4,1.9c-6.9,7.1-6.6,36.5-6.5,42.4a3,3,0,0,0,2.9,2.9l85.8,3.5h.1a2.8,2.8,0,0,0,2-.8,3,3,0,0,0,1-2.1l.5-18.2c.5-2.7,5.3-27.9,8.8-53.8,2.2-16,3.6-29.2,4-39.3.7-17.8-1.7-22.3-3.9-24.2C116,11,102.5,3.7,92.3,3.7Z" style="fill:#7b8c5a"/><path d="M16,234.1a32.8,32.8,0,0,1-10.1-2,1.4,1.4,0,0,1-1-1.3c0-.2-1.7-24-2.7-50.2-1.5-40-.5-63.7,2.8-70.3s7.3-8.2,13.3-8.2a26.6,26.6,0,0,1,9.7,2.1,37.4,37.4,0,0,1,6.2,3,1.7,1.7,0,0,1,.7,1.3c-.7,11.8-6.7,115.1-11.6,122.5-1.4,2-3.8,3.1-7.3,3.1Z" style="fill:#e9f2da"/><path d="M18.3,103.6a25.2,25.2,0,0,1,9.2,2,31.4,31.4,0,0,1,5.9,2.9S26.9,222.9,22,230.2c-1.2,1.8-3.5,2.4-6,2.4a32.6,32.6,0,0,1-9.6-1.9S4.7,207,3.7,180.6c-1.1-29.2-1.3-61.8,2.7-69.7a12.4,12.4,0,0,1,11.9-7.3m0-3a15.5,15.5,0,0,0-14.6,9c-1.3,2.5-5.3,10.4-3,71.1,1,26.2,2.7,50,2.7,50.2a2.9,2.9,0,0,0,2,2.6A34,34,0,0,0,16,235.6c4,0,6.9-1.3,8.5-3.7s3.5-5.3,8-65.1c2.2-29.2,3.9-57.9,3.9-58.2a3.2,3.2,0,0,0-1.4-2.7,45.6,45.6,0,0,0-6.4-3.1,27.7,27.7,0,0,0-10.3-2.2Z" style="fill:#7b8c5a"/><path d="M139.1,206.9c-121.8,0-124.6-5.1-125.5-6.8-3.7-6.8-5.2-46.2,2.4-51.3,1-.7,3.4-2.3,41-2.3,41.5,0,100.7,1.9,101.3,2a1.4,1.4,0,0,1,1.4,1.5l-1.6,55.4a1.5,1.5,0,0,1-1.5,1.5Z" style="fill:#bad69a"/><path d="M57.1,148c41.8,0,101.1,2,101.1,2l-1.6,55.4H139.1c-37.2,0-121.2-.6-124.2-6-3.8-7-4.7-44.9,2-49.4,2.2-1.5,18.9-2,40.2-2m0-3v0c-38.2,0-40.5,1.6-41.9,2.5-4,2.7-6,11.5-6.2,26.2-.1,9.9.8,22.7,3.3,27.1,1,1.9,2.9,3.4,17.8,4.8,8.1.8,19.6,1.4,34,1.8,25.5.8,54.9,1,75,1h17.5a3.1,3.1,0,0,0,3-3l1.6-55.4a2.9,2.9,0,0,0-2.9-3c-.5-.1-59.8-2-101.2-2Z" style="fill:#7b8c5a"/><g style="clip-path:url(#clip-path)"><path d="M16.9,150c9.5,5.2,46.7,8.2,141.3,6.8V150L22,144.5Z" style="fill:#ffeb81;mix-blend-mode:screen"/></g><path d="M181.2,106.2a5.8,5.8,0,0,1,2,.4c5.2,31.1,8.5,63.3,14.6,94,1.6,7.8,5.4,17.6,13,17.1s10.4-10.3,11.3-18.2q8.3-77.2,16.7-154.4c1.6-14.4,3.8-30,11.6-41.4l1,.4c9.9,4.5.4,13.9-5.7,52.7s-11.9,76.6-11.9,76.6-8.5,92.3-9.9,92.8-44.1,16.4-48.4,16.4S174.1,106.2,181.2,106.2Z" style="fill:#b9e48e;opacity:0.45;mix-blend-mode:multiply"/><path d="M166.3,245.9c-5,0-8.9-1.6-11.6-4.8a1.2,1.2,0,0,1-.3-.9c0-.2-1.3-20.8-1.9-47.9-.3-11.8-.5-23.2-.5-33.9,0-42.3,6.2-52.3,8.9-54.6.7-.7,2.1-1,4.4-1a89.9,89.9,0,0,1,11.3,1.1l4.9.8a1.5,1.5,0,0,1,1.2,1.6L177,242.7a1.3,1.3,0,0,1-.9,1.3,27.6,27.6,0,0,1-9.8,1.9Z" style="fill:#e9f2da"/><path d="M165.3,104.3a90.5,90.5,0,0,1,11.1,1.1l4.8.8-5.7,136.4a26.8,26.8,0,0,1-9.2,1.8c-3.6,0-7.6-1-10.4-4.3,0,0-1.3-20.4-1.9-47.8-.3-10.6-.5-22.1-.5-33.9,0-42.5,6.2-51.6,8.4-53.5.4-.4,1.7-.6,3.4-.6m0-3c-2.8,0-4.3.4-5.4,1.4-3.5,3-9.4,14.3-9.4,55.7,0,10.8.2,22.2.5,34,.6,27.1,1.9,47.7,1.9,47.9a2.9,2.9,0,0,0,.7,1.8c3,3.4,7.4,5.3,12.7,5.3a30.4,30.4,0,0,0,10.4-2,2.8,2.8,0,0,0,1.8-2.6l5.7-136.5a2.9,2.9,0,0,0-2.4-3l-5-.8a78.2,78.2,0,0,0-11.5-1.2Z" style="fill:#7b8c5a"/></g></g></g></g></svg>