<svg xmlns="http://www.w3.org/2000/svg" width="88.9" height="88.9" viewBox="0 0 88.9 88.9"><g style="isolation:isolate"><g id="Layer_2" data-name="Layer 2"><g id="Layer_1-2" data-name="Layer 1"><g id="Squirrel_toy_1" data-name="Squirrel_toy 1"><rect x="0.9" y="1.2" width="86.6" height="86.59" style="fill:none;stroke:#db9b53;stroke-miterlimit:10;mix-blend-mode:multiply"/><path d="M16.5,87.4h-.2l-3.6-.5a1.4,1.4,0,0,1-1.2-.9h-1l-.9-.2H9.2l-.4-.2H8.7a2.1,2.1,0,0,1-1.3.5l-1-.2L4.2,85a2.9,2.9,0,0,1-1.1-.8A2.1,2.1,0,0,1,2.8,83v-.3a2.3,2.3,0,0,1-1.2-1.6,3.4,3.4,0,0,1-.1-.9,37.6,37.6,0,0,1,1-6.6,16.1,16.1,0,0,1,1.7-4.1l.2-.4C5.9,66.6,7.7,66,8.9,66H10a4.1,4.1,0,0,1,1.6.3,5.2,5.2,0,0,1,1.9,2,17.1,17.1,0,0,1,1.4,2.7,28.4,28.4,0,0,1,2.4,7.3,34.4,34.4,0,0,1,.5,4.5l.2,2.9a1.4,1.4,0,0,1-.4,1.2A1.5,1.5,0,0,1,16.5,87.4Z" style="fill:#ffdeae"/><path d="M8.9,67.5H10a1.5,1.5,0,0,1,.9.2,2.6,2.6,0,0,1,1.3,1.4,21,21,0,0,1,1.3,2.6,22.8,22.8,0,0,1,2.3,6.8,32.9,32.9,0,0,1,.5,4.4,28.3,28.3,0,0,1,.2,2.9l-3.6-.5-.2-1.1H10.8l-1.3-.3c-.2-1.3.1-9.4-.2-12.1-.2,1.3-1.1,10.8-1.4,12s-.1.3-.2.4H6.9l-2.1-.9-.4-.2a.8.8,0,0,1-.1-.4,17,17,0,0,1-.1-2.2,1.9,1.9,0,0,1-.2.8,1.4,1.4,0,0,1-1-.8v-.5A34.4,34.4,0,0,1,4,74a12.4,12.4,0,0,1,1.5-3.8c0-.1.1-.2.1-.3s1.9-2.4,3.3-2.4m0-3h0c-1.6,0-3.9.7-5.8,3.8l-.3.5a16.1,16.1,0,0,0-1.7,4.4A33,33,0,0,0,0,80.1a7.8,7.8,0,0,0,.1,1.3,4.5,4.5,0,0,0,1.2,2.1A3.3,3.3,0,0,0,1.9,85a3.6,3.6,0,0,0,1.7,1.4l2.3.9a4,4,0,0,0,1.5.3,4.7,4.7,0,0,0,1.7-.4h.1l1,.3h.6a2.6,2.6,0,0,0,1.7.9l3.7.5h.3a3.2,3.2,0,0,0,2.1-.8,2.7,2.7,0,0,0,.9-2.4V82.8a39.6,39.6,0,0,0-.5-4.7,27.4,27.4,0,0,0-2.6-7.6,15.5,15.5,0,0,0-1.4-2.9,5.7,5.7,0,0,0-2.6-2.5,4.2,4.2,0,0,0-2.2-.5H8.9Z" style="fill:#7c3505"/><path d="M11.3,70.3a2,2,0,0,1-1.4-.6L7.3,67.6v-.2l-.4-.5a.1.1,0,0,0-.1-.1,6.4,6.4,0,0,1-.2-.7h0a1.7,1.7,0,0,1-.1-.7h0a1.3,1.3,0,0,1,.1-.6v-.3c.1,0,.1-.1.1-.2h0c0-.2-.1-.3-.1-.5h0a1.5,1.5,0,0,1-.1-.7h0a1.3,1.3,0,0,1,.1-.6v-.4c0-.1,0-.1.1-.2a.8.8,0,0,1-.2-.4v-.2a1.5,1.5,0,0,1-.1-.7h0a1.3,1.3,0,0,1,.1-.6v-.2a.3.3,0,0,0,.1-.2h0c0-.1-.1-.3-.1-.4v-.2a1.5,1.5,0,0,1-.1-.7h0a1.3,1.3,0,0,1,.1-.6v-.2h.1c0-.1-.1-.2-.1-.3v-.2a1.5,1.5,0,0,1-.1-.7h0a1.3,1.3,0,0,1,.1-.6v-.2a.3.3,0,0,0,.1-.2h0c0-.1-.1-.3-.1-.4v-.2a1.5,1.5,0,0,1-.1-.7h0a1.3,1.3,0,0,1,.1-.6v-.2h.1v-.2c0-.1-.1-.3-.1-.4h0a1.7,1.7,0,0,1-.1-.7h0a1.7,1.7,0,0,1,.1-.7v-.2c.1,0,.1,0,.1-.1v-.2c0-.1-.1-.3-.1-.4h0a1.7,1.7,0,0,1-.1-.7h0a2,2,0,0,1,.1-.7v-.2c.1,0,.1-.1.1-.2h0c0-.2-.1-.3-.1-.4v-.2a1.5,1.5,0,0,1-.1-.7h0a1.3,1.3,0,0,1,.1-.6v-.2a.3.3,0,0,0,.1-.2h0c0-.1-.1-.3-.1-.4v-.2a1.5,1.5,0,0,1-.1-.7h0a1.3,1.3,0,0,1,.1-.6v-.2a.3.3,0,0,0,.1-.2h0c0-.1-.1-.2-.1-.4h0a2,2,0,0,1-.1-.7v-.2a1.3,1.3,0,0,1,.1-.6v-.2c.1-.1.1-.1.1-.2h0c0-.1-.1-.2-.1-.4h0a1.7,1.7,0,0,1-.1-.7h0a1.7,1.7,0,0,1,.1-.7v-.2c.1-.1.1-.1.1-.2a.3.3,0,0,0,.1-.2h0v-.2h0a3,3,0,0,1-.4-1.8l.3-.9v-.3H6.6c0-.2-.1-.4-.1-.6s.1,0,.1-.1h0v-.6a.4.4,0,0,0,.1-.3h0v-.3H6.6v-.7h0v-.2h0v-.6a.3.3,0,0,0,.1-.2c0-.1,0-.2.1-.2a.4.4,0,0,1-.1-.3c-.1-.1-.1-.1-.1-.2V27.1c0-.1,0-.2.1-.2h0a.6.6,0,0,1-.1-.4c-.1-.1-.1-.1-.1-.2V24.6h0v-.3a.3.3,0,0,1-.1-.2v-.7h0v-.6a.3.3,0,0,0,.1-.2c0-.1,0-.2.1-.2h0a.6.6,0,0,1-.1-.4c-.1-.1-.1-.1-.1-.2V20.1c.1-.1.1-.1.1-.2s0-.2.1-.2h0c-.1-.1-.1-.2-.1-.4H6.6v-.7h0v-.7c.1,0,.1-.1.1-.2v-.2h0a.9.9,0,0,1-.1-.5H6.6v-.7h0v-.7c.1,0,.1-.1.1-.2v-.2h0a.9.9,0,0,1-.1-.5H6.6v-.7h0v-.8c0-.1,0-.2.1-.2h0a2.8,2.8,0,0,1-.4-1.8l.3-.8V9.3a.1.1,0,0,1-.1-.1V7.7c.1,0,.1-.1.1-.2V7.3h0c-.1-.1-.1-.2-.1-.4H6.6V6h0V5.2c.1,0,.1-.1.1-.2V4.8A2.3,2.3,0,0,1,8.9,3.3a1.9,1.9,0,0,1,1.4.5L12.9,6a2.7,2.7,0,0,1,.9,2.5,1.7,1.7,0,0,1-.1.7h0a2.6,2.6,0,0,1-.1,2.7,2.2,2.2,0,0,1,.2,1.4,2.9,2.9,0,0,1-.2.9h0a2.6,2.6,0,0,1,.2,1.5,2.9,2.9,0,0,1-.2.9h0a2.5,2.5,0,0,1,.2,1.5,2.9,2.9,0,0,1-.2.9h0a2.4,2.4,0,0,1,.2,1.5,2.9,2.9,0,0,1-.2.9h0a2.6,2.6,0,0,1,.2,1.5,2,2,0,0,1-.2.9h0a2.6,2.6,0,0,1,.2,1.5,2.9,2.9,0,0,1-.2.9,2,2,0,0,1,.2,1.3,2,2,0,0,1-.2.9h0a2.6,2.6,0,0,1,.2,1.5,2.9,2.9,0,0,1-.2.9,2,2,0,0,1,.2,1.3v.4a.7.7,0,0,1-.1.5h0a2.4,2.4,0,0,1-.1,2.6,2.5,2.5,0,0,1,.2,1.5,2.9,2.9,0,0,1-.2.9h0a2.9,2.9,0,0,1,.2,1.6,2.9,2.9,0,0,1-.2.9h0a2.6,2.6,0,0,1,.2,1.5,2.9,2.9,0,0,1-.2.9h0a2.6,2.6,0,0,1,.2,1.5,2.9,2.9,0,0,1-.2.9h0a2.5,2.5,0,0,1,.2,1.5,2.9,2.9,0,0,1-.2.9h0a2.4,2.4,0,0,1,.2,1.5,2.4,2.4,0,0,1-.2.8,2.2,2.2,0,0,1,.2,1.4,2.2,2.2,0,0,1-.1.8v.2a2.6,2.6,0,0,1,.2,1.5c0,.3-.1.5-.1.8a.4.4,0,0,0-.1.3,2.4,2.4,0,0,1,.2,1.5,3.1,3.1,0,0,1-.2.8,1.3,1.3,0,0,1-.1.6,5.9,5.9,0,0,1,.2,1.3,6.4,6.4,0,0,1-.2.9.1.1,0,0,1-.1.1,4,4,0,0,1,.3,1.5c-.1.3-.1.6-.2.9a.1.1,0,0,1-.1.1,4.5,4.5,0,0,1,.3,1.6c-.1.3-.1.6-.2.9h-.1a3.7,3.7,0,0,1,.3,1.5c-.1.3-.1.6-.2.9a2.3,2.3,0,0,1-2.2,1.6Z" style="fill:#ffdeae"/><path d="M8.9,4.8h.4l2.6,2.2a1.5,1.5,0,0,1,.4,1.3.6.6,0,0,1-.1.4,1,1,0,0,1-.5.6h0a1.1,1.1,0,0,1,.7.6,1.4,1.4,0,0,1-.2,1.4l-.4.5h.1a1.2,1.2,0,0,1,.4,1.2.9.9,0,0,1-.1.5,1,1,0,0,1-.5.6l.2.2a1.2,1.2,0,0,1,.4,1.2.9.9,0,0,1-.1.5c-.1.3-.3.5-.5.5l.2.2a1.5,1.5,0,0,1,.4,1.3.6.6,0,0,1-.1.4,1,1,0,0,1-.5.6l.2.2a1.5,1.5,0,0,1,.4,1.3.6.6,0,0,1-.1.4,1,1,0,0,1-.5.6l.2.2a1.2,1.2,0,0,1,.4,1.2.9.9,0,0,1-.1.5,1,1,0,0,1-.5.6l.2.2a1.2,1.2,0,0,1,.4,1.2.9.9,0,0,1-.1.5l-.3.5h0a1.2,1.2,0,0,1,.4,1.2.9.9,0,0,1-.1.5,1,1,0,0,1-.5.6l.2.2a1.2,1.2,0,0,1,.4,1.2.9.9,0,0,1-.1.5,1,1,0,0,1-.4.5h.1a1.2,1.2,0,0,1,.4,1.2h0V33a1.1,1.1,0,0,1-.1.5h-.5a1.6,1.6,0,0,1,.7.7,1.3,1.3,0,0,1-.2,1.3l-.4.5h.1a1.4,1.4,0,0,1,.4,1.2.7.7,0,0,1-.1.5,1,1,0,0,1-.5.6l.2.2a1.4,1.4,0,0,1,.4,1.2.7.7,0,0,1-.1.5c0,.1,0,.1-.1.2V41l-.2.3h0a1.2,1.2,0,0,1,.4,1.2.9.9,0,0,1-.1.5h0a.4.4,0,0,0-.1.3l-.2.3h0a1.2,1.2,0,0,1,.4,1.2.9.9,0,0,1-.1.5.1.1,0,0,1-.1.1V46l-.2.3h0a1.5,1.5,0,0,1,.4,1.3.6.6,0,0,1-.1.4v.2a.4.4,0,0,0-.1.3l-.2.3h0a1.4,1.4,0,0,1,.4,1.2.7.7,0,0,1-.1.5c0,.1,0,.1-.1.2v.2c-.1.1-.1.1-.1.2a1.6,1.6,0,0,1,.3,1.2.6.6,0,0,1-.1.4h0V53c0,.1-.1.3-.1.4s-.1.1-.1.2a1.4,1.4,0,0,1,.3,1.1.7.7,0,0,1-.1.5h0c0,.2-.1.3-.1.5s-.1.2-.2.2a1.4,1.4,0,0,1,.4,1.2.9.9,0,0,1-.1.5h0c0,.2-.1.3-.1.5a1,1,0,0,1-.4.5h.1a1.5,1.5,0,0,1,.4,1.2c0,.2-.1.3-.1.5a1.7,1.7,0,0,1-.6.6l.3.2a1.5,1.5,0,0,1,.4,1.2c0,.2-.1.3-.1.5a1.3,1.3,0,0,1-.7.6l.4.3a1.5,1.5,0,0,1,.4,1.2,4.3,4.3,0,0,0-.1.5c-.2.3-.4.5-.6.5l.3.2a1.8,1.8,0,0,1,.4,1.3v.4c-.2.4-.5.7-.8.7l-.4-.2L8.3,66.4h0l-.2-.3h0l-.2-.3h0v-.4h0c0-.2,0-.3.1-.4H8v-.2a.9.9,0,0,1,.6-.6l-.3-.2h0l-.2-.2h0l-.2-.3h0v-.4h0c0-.2,0-.3.1-.4H8v-.2a1.2,1.2,0,0,1,.6-.6l-.3-.3h0l-.2-.2h0l-.2-.3h0v-.3h0a.6.6,0,0,1,.1-.4H8v-.2a.6.6,0,0,1,.6-.5l-.3-.3h0c-.1,0-.1-.1-.2-.2h0l-.2-.3h0v-.3h0a.6.6,0,0,1,.1-.4H8v-.2c0-.1.1-.1.2-.2h0v-.2l-.2-.2h0L7.9,56h0v-.4h0a.6.6,0,0,1,.1-.4H8v-.2a.1.1,0,0,1,.1-.1v-.3h0c0-.1,0-.1.1-.1a.4.4,0,0,1,.1-.3l-.2-.2h0l-.2-.3h0v-.3h0a.6.6,0,0,1,.1-.4H8v-.2h.1v-.4h0a.1.1,0,0,1,.1-.1v-.2c-.1-.1-.2-.1-.2-.2h0c-.1-.1-.1-.3-.2-.4h0v-.4h0a.8.8,0,0,1,.1-.4H8c0-.1,0-.1.1-.1h0v-.4h0a.1.1,0,0,1,.1-.1v-.2a.2.2,0,0,1-.2-.2h0l-.2-.4h0v-.4h0a.8.8,0,0,1,.1-.4H8a.3.3,0,0,1,.1-.2h0a.1.1,0,0,1,.1-.1.4.4,0,0,1,.1-.3h0l-.2-.2h0l-.2-.3h0v-.4h0c0-.2,0-.3.1-.4H8V45a.3.3,0,0,0,.1-.2h0a.1.1,0,0,1,.1-.1,1,1,0,0,1,.1-.3h0L8.1,44h0l-.2-.3h0v-.4h0a.6.6,0,0,1,.1-.4H8v-.2a.3.3,0,0,0,.1-.2h0v-.2h0c0-.1.1-.2.1-.3h0c-.1,0-.1-.1-.2-.2h0c-.1-.1-.1-.3-.2-.4h0v-.4h0a.8.8,0,0,1,.1-.4H8a.3.3,0,0,1,.1-.2h0v-.2c0-.1.1-.2.1-.3h0L8.1,39h0c-.1-.1-.1-.3-.2-.4h0v-.4h0a.8.8,0,0,1,.1-.4H8a.3.3,0,0,1,.1-.2h.1c.1-.4.3-.6.5-.6l-.2-.2H8.4a.5.5,0,0,1-.2-.4c-.1,0-.1,0-.1-.1a1.2,1.2,0,0,1,.5-1.7H8.4c0-.1-.1-.2-.1-.3H8.2c0-.1-.1-.2-.1-.3H8a.1.1,0,0,1,.1-.1v-.2h0v-.4h0c0-.1,0-.1.1-.2a.9.9,0,0,1,.3-.5H8.4v-.2a.1.1,0,0,0-.1-.1v-.3h0v-.4h0v-.2h0v-.4h0v-.2a1,1,0,0,1,.4-.5H8.4c0-.1-.1-.1-.1-.2H8.2c0-.1-.1-.2-.1-.3h0v-.3h0v-.4h0c0-.1,0-.1.1-.2s.3-.5.5-.5l-.2-.3H8.4a.3.3,0,0,1-.1-.2H8.2c0-.1-.1-.2-.1-.3h0v-.3h0v-.4h0c0-.1,0-.1.1-.2s.2-.3.3-.4H8.4c0-.1-.1-.1-.1-.2H8.2c0-.1-.1-.2-.1-.3h0v-.4h0v-.4h0v-.2a1,1,0,0,1,.5-.6l-.2-.2H8.4c0-.1-.1-.1-.1-.2H8.2c0-.1-.1-.2-.1-.3h0v-.3h0v-.4h0v-.2c.1-.3.3-.5.5-.5l-.2-.2H8.4c0-.1-.1-.2-.1-.3H8.2v-.4h0v-.4h0v-.4h.1a1,1,0,0,1,.5-.6L8.5,17H8.4c0-.1-.1-.2-.1-.3H8.2c0-.1-.1-.2-.1-.4h0v-.4h0v-.4h.1a1,1,0,0,1,.5-.6l-.2-.2H8.4v-.2a.1.1,0,0,0-.1-.1v-.3h0v-.4h0V13h0v-.2a1,1,0,0,1,.5-.6L8.5,12H8.4l-.2-.4H8.1a1.3,1.3,0,0,1,.5-1.8H8.4V9.3H8.2c0-.1-.1-.3-.1-.4h0V8.5h0V8h.1a1,1,0,0,1,.5-.6l-.2-.2H8.4a.3.3,0,0,1-.1-.2H8.2V6.4h0V6h0V5.5h.1a.7.7,0,0,1,.7-.6m0-3A3.7,3.7,0,0,0,5.4,4.3a.4.4,0,0,0-.1.3H5.2v.2a2.8,2.8,0,0,0-.1.9V6a3.4,3.4,0,0,0,.1,1v.2h0v.2a2.8,2.8,0,0,0-.1.9v.2a3.8,3.8,0,0,0,.1,1,1.4,1.4,0,0,0-.2.7,3,3,0,0,0,.2,2.1,3.4,3.4,0,0,0-.1,1h0a3.1,3.1,0,0,0,.1,1v.2h0a2.8,2.8,0,0,0-.1.9v.2a3.4,3.4,0,0,0,.1,1v.2h0v.2a2.8,2.8,0,0,0-.1.9v.2a3.4,3.4,0,0,0,.1,1v.2h0a3.8,3.8,0,0,0-.1,1h0a3.1,3.1,0,0,0,.1,1v.3h0a3.4,3.4,0,0,0-.1,1h0a3.1,3.1,0,0,0,.1,1v.2a2.8,2.8,0,0,0-.1.9h0a4.1,4.1,0,0,0,.1,1.1v.2h0a3.8,3.8,0,0,0-.1,1h0a3.1,3.1,0,0,0,.1,1v.2h0a3.1,3.1,0,0,0-.1,1h0v.2h0a3.1,3.1,0,0,0,.1,1h0a3.1,3.1,0,0,0-.1,1h0A.1.1,0,0,1,5,33c0,.3.1.6.1.8s-.1.5-.1.7a3,3,0,0,0,.2,2.1v.2h0c0,.1-.1.1-.1.2s-.1.6-.1.9v.2a3.4,3.4,0,0,0,.1,1v.2h.1c-.1.1-.1.1-.1.2s-.1.6-.1.9v.2a3.4,3.4,0,0,0,.1,1v.2H5c0,.3-.1.7-.1,1h0a3.1,3.1,0,0,0,.1,1v.2h.1a.1.1,0,0,0-.1.1c0,.3-.1.6-.1,1h0a3.1,3.1,0,0,0,.1,1v.2h.1c-.1,0-.1,0-.1.1s-.1.6-.1.9v.2a3.4,3.4,0,0,0,.1,1v.2h.1c-.1.1-.1.1-.1.2s-.1.6-.1.9v.2a3.4,3.4,0,0,0,.1,1v.2H5c0,.3-.1.7-.1,1h0A4.1,4.1,0,0,0,5,54.1v.2h.1a.1.1,0,0,0-.1.1c0,.3-.1.7-.1,1h0a3.1,3.1,0,0,0,.1,1v.2c0,.3-.1.6-.1.9h0A4.1,4.1,0,0,0,5,58.8V59H5c0,.3-.1.7-.1,1h0a3.1,3.1,0,0,0,.1,1v.3h.1a.3.3,0,0,1-.1.2c0,.3-.1.6-.1,1h0a3.1,3.1,0,0,0,.1,1V64h.1a.1.1,0,0,0-.1.1c0,.3-.1.6-.1,1h0a3.1,3.1,0,0,0,.1,1v.2a10.4,10.4,0,0,0,.4,1c.1.1.1.2.2.2a1.8,1.8,0,0,0,.5.7l.3.3L9,70.9a3.3,3.3,0,0,0,2.3.9,3.8,3.8,0,0,0,3.6-2.6l.3-1.3a4.4,4.4,0,0,0-.2-1.6c.1-.3.1-.6.2-.9a5.2,5.2,0,0,0-.2-1.7c.1-.2.1-.5.2-.8a4.7,4.7,0,0,0-.2-1.7c.1-.3.1-.5.2-.8a6.6,6.6,0,0,0-.1-1.5v-.2a4.3,4.3,0,0,0,.2-1.1,4.7,4.7,0,0,0-.1-1.7c0-.3.1-.6.1-.9a4.2,4.2,0,0,0-.1-1.6,2.8,2.8,0,0,0,.1-.9,3.8,3.8,0,0,0-.1-1.5,1.7,1.7,0,0,0,.1-.7,4.9,4.9,0,0,0-.1-1.7,1.9,1.9,0,0,0,.1-.8,4.2,4.2,0,0,0-.1-1.6,2.8,2.8,0,0,0,.1-.9,4.3,4.3,0,0,0-.1-1.6,2.8,2.8,0,0,0,.1-.9,4.3,4.3,0,0,0-.1-1.6,2.2,2.2,0,0,0,.1-.8,4.9,4.9,0,0,0-.1-1.7,1.9,1.9,0,0,0,.1-.8,3.8,3.8,0,0,0-.1-1.5,4.1,4.1,0,0,0,.1-2.9v-.8a2.9,2.9,0,0,0-.1-1.3,1.7,1.7,0,0,0,.1-.7,4.7,4.7,0,0,0-.1-1.7,2.2,2.2,0,0,0,.1-.8,3.7,3.7,0,0,0-.1-1.5,2,2,0,0,0,.1-.7,4.7,4.7,0,0,0-.1-1.7,2.2,2.2,0,0,0,.1-.8,4.7,4.7,0,0,0-.1-1.7,1.9,1.9,0,0,0,.1-.8,4.9,4.9,0,0,0-.1-1.7,1.9,1.9,0,0,0,.1-.8,4.2,4.2,0,0,0-.1-1.6,2.8,2.8,0,0,0,.1-.9,4.3,4.3,0,0,0-.1-1.6,2.5,2.5,0,0,0,.1-.8,3.8,3.8,0,0,0-.1-1.5A4.7,4.7,0,0,0,15.3,9V8.6a4.3,4.3,0,0,0-1.4-3.8L11.3,2.6a4.1,4.1,0,0,0-2.4-.8Z" style="fill:#7c3505"/><path d="M9.3,13.6H9L7.4,13A4.7,4.7,0,0,1,5.2,9.5a4.8,4.8,0,0,1-.7-1.6V6.2a2.8,2.8,0,0,1,1-2.7,6.8,6.8,0,0,1,4.9-2h1.3a5,5,0,0,1,2.8,1.7A3.7,3.7,0,0,1,15,4.4a1.4,1.4,0,0,1,.2.6,11.4,11.4,0,0,1,.6,2.5,5.2,5.2,0,0,1,.5,2.4,2.8,2.8,0,0,1-.1.9,2.7,2.7,0,0,1-.8,1.6,2.1,2.1,0,0,1-1.3.5h0l-1.1.4h-.7l-.9-.3-.5.2A3.2,3.2,0,0,1,9.3,13.6Z" style="fill:#e0a070"/><path d="M10.4,3h1a3.1,3.1,0,0,1,1.8,1.1,2,2,0,0,1,.4.8.8.8,0,0,1,.2.4A11.9,11.9,0,0,1,14.3,8h.1a3.7,3.7,0,0,1,.4,1.8v.6c-.1.3-.2.6-.4.7l-.4.2h-.4a.8.8,0,0,1-.8.5h-.3a1.2,1.2,0,0,1-.9-.8h-.1a1,1,0,0,1-.5.4l-.7.3a1.7,1.7,0,0,1-1,.3H9.2l-1-.4A2.7,2.7,0,0,1,6.8,8.8l-.4-.2A3.6,3.6,0,0,1,6,7.7H6V6.4H6a.4.4,0,0,1,.1-.3,1.2,1.2,0,0,1,.4-1.5A5.5,5.5,0,0,1,10.4,3m0-3a8.9,8.9,0,0,0-6,2.4A4.6,4.6,0,0,0,3,6.3v.2H3V8.2A3.6,3.6,0,0,0,3.8,10a5.8,5.8,0,0,0,2.9,4.3,5.8,5.8,0,0,0,2.2.8h.4a5.4,5.4,0,0,0,2.1-.5l.6.2h1.3l1.3-.4a4.4,4.4,0,0,0,1.8-.9,4.1,4.1,0,0,0,1.3-2.4,4.9,4.9,0,0,0,.1-1.2,5.7,5.7,0,0,0-.6-2.8,23.8,23.8,0,0,0-.5-2.6l-.3-.6a6.9,6.9,0,0,0-.7-1.5A5.8,5.8,0,0,0,12,.2L10.4,0Z" style="fill:#7c3505"/><path d="M8.2,74.4H7.8a4.2,4.2,0,0,1-2-.8,5.7,5.7,0,0,1-3-4.8,4.5,4.5,0,0,1-1-2.2v-.7a1.1,1.1,0,0,1-.1-.5v-.6c0-.2.1-.3.1-.4a9,9,0,0,1,.8-2.8c.9-2,3.6-2.3,4.5-2.3h.2a3.7,3.7,0,0,1,1.5.3l.5.3h1.2l2.3.2a3.9,3.9,0,0,1,2.7,1.2,3.7,3.7,0,0,1,.7,1.4,17.2,17.2,0,0,1,.8,3.8,6.4,6.4,0,0,1,.8,3.3,4.9,4.9,0,0,1-.1,1.2,3.5,3.5,0,0,1-1,1.9,2.7,2.7,0,0,1-1.7.6h0a3.1,3.1,0,0,1-1.9.6h-.4a3.9,3.9,0,0,1-1.5-.6l-1,.5A5.3,5.3,0,0,1,8.2,74.4Z" style="fill:#e0a070"/><path d="M7.3,60.8h.8l.7.6,1.2-.2h.5l2.1.2a2.2,2.2,0,0,1,1.7.7,1.6,1.6,0,0,1,.5.9,23.3,23.3,0,0,1,.8,3.8h0a5.2,5.2,0,0,1,.7,2.7,2.8,2.8,0,0,1-.1.9,2.2,2.2,0,0,1-.5,1.1l-.7.2a.6.6,0,0,1-.5-.2,1.5,1.5,0,0,1-1.4.8h-.2a1.6,1.6,0,0,1-1.3-1.2h-.2a1,1,0,0,1-.8.6,3.1,3.1,0,0,1-1,.5,3.3,3.3,0,0,1-1.4.4H7.9l-1.4-.5a4,4,0,0,1-2-4.3l-.6-.4a2.6,2.6,0,0,1-.6-1.3,1.3,1.3,0,0,0-.1-.6h0v-.9c0-.1.1-.2.1-.4h0a8.6,8.6,0,0,1,.6-2.3c.5-1,2.2-1.3,3.2-1.4h.2m0-3H7c-1,.1-4.5.4-5.8,3.1A15.8,15.8,0,0,0,.3,64h0v.2a.6.6,0,0,1-.1.4V65h0v1a2.2,2.2,0,0,0,.1.8,4.4,4.4,0,0,0,1,2.4A7,7,0,0,0,5,74.9a6,6,0,0,0,2.7,1h.5a7.4,7.4,0,0,0,2.7-.6l.3-.2,1.2.4h.7a4.8,4.8,0,0,0,2.4-.6,3.5,3.5,0,0,0,2.1-1,4.9,4.9,0,0,0,1.6-2.7c0-.5.1-1,.1-1.5a9.1,9.1,0,0,0-.8-3.7,23.4,23.4,0,0,0-.9-3.8,4.5,4.5,0,0,0-1-2A5.7,5.7,0,0,0,13,58.5l-2.5-.2H9.7l-.3-.2a4.6,4.6,0,0,0-2.1-.4Z" style="fill:#7c3505"/><path d="M85.9,87.4h-.2l-3.6-.5a1.3,1.3,0,0,1-1.2-.9h-1l-.9-.2h-.4l-.5-.2H78a1.9,1.9,0,0,1-1.3.5l-.9-.2L73.5,85a2.2,2.2,0,0,1-1-.8,2.7,2.7,0,0,1-.4-1.2v-.3a2.6,2.6,0,0,1-1.2-1.6,2.6,2.6,0,0,1,0-.9,37.6,37.6,0,0,1,1-6.6,15,15,0,0,1,1.6-4.1c.1-.1.1-.3.2-.4,1.6-2.5,3.4-3.1,4.6-3.1h1a3.8,3.8,0,0,1,1.6.3,4.8,4.8,0,0,1,2,2,16.9,16.9,0,0,1,1.3,2.7,28.7,28.7,0,0,1,2.5,7.3c.2,1.5.3,3,.5,4.5l.2,2.9a1.5,1.5,0,0,1-.5,1.2A1.3,1.3,0,0,1,85.9,87.4Z" style="fill:#ffdeae"/><path d="M78.3,67.5h1a1.6,1.6,0,0,1,1,.2,2.6,2.6,0,0,1,1.3,1.4,12.3,12.3,0,0,1,1.2,2.6,20.5,20.5,0,0,1,2.4,6.8c.2,1.5.3,2.9.5,4.4a28.3,28.3,0,0,0,.2,2.9l-3.6-.5-.2-1.1h-2l-1.3-.3c-.1-1.3.1-9.4-.1-12.1-.2,1.3-1.1,10.8-1.5,12a.5.5,0,0,1-.2.4h-.7l-2.2-.9-.4-.2c0-.2-.1-.3-.1-.4V80.8a3.1,3.1,0,0,0-.2.8,1.4,1.4,0,0,1-1-.8v-.5a45.5,45.5,0,0,1,.9-6.3,21.2,21.2,0,0,1,1.5-3.8l.2-.3c.8-1.3,1.9-2.4,3.3-2.4m0-3h0c-1.6,0-3.9.7-5.9,3.8,0,.2-.1.3-.2.5a22.3,22.3,0,0,0-1.8,4.4,41,41,0,0,0-1,6.9,3.2,3.2,0,0,0,.1,1.3,3.3,3.3,0,0,0,1.2,2.1,2.9,2.9,0,0,0,.5,1.5A3.7,3.7,0,0,0,73,86.4l2.2.9,1.5.3a4.7,4.7,0,0,0,1.7-.4h.1l1.1.3h.5a3.1,3.1,0,0,0,1.8.9l3.6.5h.4a3.2,3.2,0,0,0,2.1-.8,3,3,0,0,0,.9-2.4l-.2-2.9c-.2-1.5-.3-3.1-.6-4.7a27.1,27.1,0,0,0-2.5-7.6,25.9,25.9,0,0,0-1.4-2.9,6.3,6.3,0,0,0-2.6-2.5,4.6,4.6,0,0,0-2.3-.5h-1Z" style="fill:#7c3505"/><path d="M80.7,70.3a2,2,0,0,1-1.4-.6l-2.6-2.1v-.2a1,1,0,0,1-.4-.5h-.1a1.4,1.4,0,0,1-.2-.7h-.1v-.7h0a2,2,0,0,1,.1-.7h0c0-.1,0-.2.1-.2h0a.9.9,0,0,1-.1-.5h-.1v-.7h0a2,2,0,0,1,.1-.7h0c0-.1,0-.2.1-.2v-.2c0-.1-.1-.3-.1-.4s-.1-.1-.1-.2v-.8a1.3,1.3,0,0,1,.1-.6v-.4h0a.6.6,0,0,1-.1-.4c0-.1-.1-.1-.1-.2v-.8a1.3,1.3,0,0,1,.1-.6v-.2h0v-.3a.3.3,0,0,0-.1-.2v-.7h0a1.3,1.3,0,0,1,.1-.6v-.2h0c0-.1,0-.1.1-.2h0a.8.8,0,0,1-.1-.4c0-.1-.1-.1-.1-.2v-.8a1.3,1.3,0,0,1,.1-.6v-.2h0a.3.3,0,0,0,.1-.2.6.6,0,0,1-.1-.4h-.1v-.7h0a1.7,1.7,0,0,1,.1-.7v-.2h0c0-.1.1-.1.1-.2a.6.6,0,0,1-.1-.4h-.1v-.7h0a1.7,1.7,0,0,1,.1-.7v-.2a.3.3,0,0,1,.1-.2h0a.9.9,0,0,1-.1-.5h-.1v-.7h0a1.3,1.3,0,0,1,.1-.6v-.2h0c0-.1,0-.2.1-.2h0a.6.6,0,0,1-.1-.4.3.3,0,0,0-.1-.2v-.7h0a1.3,1.3,0,0,1,.1-.6v-.2h0c0-.1,0-.2.1-.2h0a.6.6,0,0,1-.1-.4h-.1v-.9a1.3,1.3,0,0,1,.1-.6v-.2c0-.1,0-.1.1-.2h0c-.1-.1-.1-.2-.1-.4h-.1v-.7h0a1.7,1.7,0,0,1,.1-.7v-.2A.3.3,0,0,1,76,37v-.4h.1a2.4,2.4,0,0,1-.4-1.8l.3-.9c0-.1-.1-.2-.1-.3h0a1.3,1.3,0,0,1-.1-.6h0c0-.2.1-.5.1-.7a.1.1,0,0,1,.1-.1v-.2c0-.1-.1-.2-.1-.3v-.2c-.1-.1-.1-.3-.1-.6h0v-.2h0c0-.2.1-.4.1-.7a.1.1,0,0,1,.1-.1v-.2c0-.1-.1-.2-.1-.3v-.2a1.5,1.5,0,0,1-.1-.7h0c0-.2.1-.4.1-.6s0-.2.1-.2v-.2h.1c-.1-.1-.1-.3-.2-.4v-.2a1.5,1.5,0,0,1-.1-.7h0c0-.2.1-.4.1-.6s0-.1.1-.2h0c0-.1-.1-.2-.1-.3V24a1.5,1.5,0,0,1-.1-.7h0c0-.2.1-.4.1-.6s0-.1.1-.2h0v-.2h.1c-.1-.1-.1-.3-.2-.4v-.2a1.5,1.5,0,0,1-.1-.7h0c0-.2.1-.4.1-.6a.3.3,0,0,1,.1-.2v-.2h.1c-.1-.1-.1-.2-.2-.4h0a2,2,0,0,1-.1-.7h0c0-.3.1-.5.1-.7s0-.1.1-.2v-.2h.1l-.2-.5h0a1.7,1.7,0,0,1-.1-.7h0c0-.2.1-.5.1-.7v-.4h.1l-.2-.4v-.2a1.5,1.5,0,0,1-.1-.7h0c0-.2.1-.4.1-.6v-.4a.1.1,0,0,1,.1-.1,2.2,2.2,0,0,1-.4-1.8l.3-.8V9.3h0a2,2,0,0,1-.1-.7V8.3c0-.2.1-.4.1-.6s0-.1.1-.2V7.3h.1c-.1-.1-.1-.2-.2-.4h0a2,2,0,0,1-.1-.7h0c0-.3.1-.5.1-.7s0-.1.1-.2V4.8a2.4,2.4,0,0,1,2.2-1.5,2,2,0,0,1,1.4.5L82.2,6a2.8,2.8,0,0,1,1,2.5,1.9,1.9,0,0,1-.2.7.1.1,0,0,1,.1.1A2.9,2.9,0,0,1,83,12a3.2,3.2,0,0,1,.2,1.4,2.9,2.9,0,0,1-.2.9h0a3.9,3.9,0,0,1,.2,1.5,2.9,2.9,0,0,1-.2.9h0a3.6,3.6,0,0,1,.2,1.5,2.9,2.9,0,0,1-.2.9h0a3.4,3.4,0,0,1,.2,1.5,2.9,2.9,0,0,1-.2.9h0a3.9,3.9,0,0,1,.2,1.5,2,2,0,0,1-.2.9h0a3.9,3.9,0,0,1,.2,1.5,2.9,2.9,0,0,1-.2.9,3,3,0,0,1,.2,1.3,2,2,0,0,1-.2.9h0a3.9,3.9,0,0,1,.2,1.5,2.9,2.9,0,0,1-.2.9,3,3,0,0,1,.2,1.3v.4a4.3,4.3,0,0,1-.1.5h0a2.7,2.7,0,0,1-.1,2.6,3.6,3.6,0,0,1,.2,1.5,2.9,2.9,0,0,1-.2.9h0a4.1,4.1,0,0,1,.2,1.6,2.9,2.9,0,0,1-.2.9h0a3.9,3.9,0,0,1,.2,1.5,2.9,2.9,0,0,1-.2.9h0a3.9,3.9,0,0,1,.2,1.5,2.9,2.9,0,0,1-.2.9h0a3.6,3.6,0,0,1,.2,1.5,2.9,2.9,0,0,1-.2.9h0a3.4,3.4,0,0,1,.2,1.5,2.4,2.4,0,0,1-.2.8,3.2,3.2,0,0,1,.2,1.4,2.4,2.4,0,0,1-.2.8v.2a3.9,3.9,0,0,1,.2,1.5,2.4,2.4,0,0,1-.2.8V56a3.4,3.4,0,0,1,.2,1.5,3.1,3.1,0,0,1-.2.8c0,.2-.1.4-.1.6a3.2,3.2,0,0,1,.1,1.4,1.9,1.9,0,0,1-.2.8h0a2.6,2.6,0,0,1,.2,1.5,2.9,2.9,0,0,1-.2.9h0a3,3,0,0,1,.2,1.6,2.9,2.9,0,0,1-.2.9h0a2.5,2.5,0,0,1,.2,1.5,2.9,2.9,0,0,1-.2.9,2.3,2.3,0,0,1-2.1,1.6Z" style="fill:#ffdeae"/><path d="M78.3,4.8h.4l2.6,2.2a1.8,1.8,0,0,1,.4,1.3.6.6,0,0,1-.1.4,1,1,0,0,1-.5.6h0a1.3,1.3,0,0,1,.7.6,1.4,1.4,0,0,1-.2,1.4,1.2,1.2,0,0,1-.5.5h.2a1.5,1.5,0,0,1,.4,1.2.9.9,0,0,1-.1.5.9.9,0,0,1-.6.6l.3.2a1.5,1.5,0,0,1,.4,1.2.9.9,0,0,1-.1.5c-.1.3-.3.5-.5.5l.2.2a1.8,1.8,0,0,1,.4,1.3.6.6,0,0,1-.1.4.9.9,0,0,1-.6.6l.3.2a1.8,1.8,0,0,1,.4,1.3.6.6,0,0,1-.1.4,1,1,0,0,1-.5.6l.2.2a1.5,1.5,0,0,1,.4,1.2,1.2,1.2,0,0,1-.7,1.1l.3.2a1.5,1.5,0,0,1,.4,1.2.9.9,0,0,1-.1.5,1,1,0,0,1-.4.5h.1a1.5,1.5,0,0,1,.4,1.2A1.2,1.2,0,0,1,81,29l.3.2a1.5,1.5,0,0,1,.4,1.2.9.9,0,0,1-.1.5,1,1,0,0,1-.4.5h.1a1.5,1.5,0,0,1,.4,1.2h0V33a1.1,1.1,0,0,1-.1.5h-.5a2.3,2.3,0,0,1,.7.7,1.3,1.3,0,0,1-.2,1.3,1.2,1.2,0,0,1-.5.5h.2a1.7,1.7,0,0,1,.4,1.2.7.7,0,0,1-.1.5.9.9,0,0,1-.6.6l.3.2a1.7,1.7,0,0,1,.4,1.2.7.7,0,0,1-.1.5c0,.1-.1.1-.1.2s0,.1-.1.2-.1.2-.2.3h.1a1.5,1.5,0,0,1,.4,1.2.9.9,0,0,1-.1.5h-.1a.4.4,0,0,1-.1.3c0,.1-.1.2-.2.3h.1a1.5,1.5,0,0,1,.4,1.2.9.9,0,0,1-.1.5h-.1a.4.4,0,0,1-.1.3c0,.1-.1.2-.2.3h.1a1.8,1.8,0,0,1,.4,1.3.6.6,0,0,1-.1.4c0,.1-.1.1-.1.2a.4.4,0,0,1-.1.3c0,.1-.1.2-.2.3h.1a1.7,1.7,0,0,1,.4,1.2.7.7,0,0,1-.1.5c0,.1-.1.1-.1.2v.2c0,.1,0,.1-.1.2a1.6,1.6,0,0,1,.4,1.2.6.6,0,0,1-.1.4h-.1V53a.6.6,0,0,1-.1.4c0,.1,0,.1-.1.2a1.5,1.5,0,0,1,.4,1.1.7.7,0,0,1-.1.5h-.1a.9.9,0,0,1-.1.5c0,.1,0,.2-.1.2a1.7,1.7,0,0,1,.4,1.2.9.9,0,0,1-.1.5.1.1,0,0,1-.1.1h0a.9.9,0,0,1-.1.5l-.3.5h0a1.2,1.2,0,0,1,.4,1.2.9.9,0,0,1-.1.5,1,1,0,0,1-.5.6l.2.2a1.2,1.2,0,0,1,.4,1.2,1.2,1.2,0,0,1-.7,1.1l.3.3a1.2,1.2,0,0,1,.4,1.2,1.1,1.1,0,0,1-.1.5c-.1.3-.3.5-.5.5l.2.2a1.5,1.5,0,0,1,.4,1.3.6.6,0,0,1-.1.4.8.8,0,0,1-.7.7l-.4-.2-2.6-2.2h0c-.1-.1-.2-.2-.2-.3h-.1c0-.1-.1-.2-.1-.3h0v-.4h0v-.4h0c0-.1,0-.1.1-.2a1,1,0,0,1,.5-.6l-.2-.2h0l-.2-.2a.1.1,0,0,0-.1-.1c0-.1-.1-.2-.1-.3h0v-.4h0v-.4h0c0-.1,0-.1.1-.2a.9.9,0,0,1,.6-.6l-.3-.3h0c-.1-.1-.2-.1-.2-.2h-.1c0-.1-.1-.2-.1-.3h0v-.3h0v-.4h0v-.2c.1-.3.3-.5.5-.5l-.2-.3h0a.2.2,0,0,1-.2-.2h-.1c0-.1-.1-.2-.1-.3h0v-.3h0v-.4h0v-.2c0-.1.1-.1.1-.2h0l.2-.2c-.1-.1-.2-.1-.2-.2h-.1c0-.1-.1-.2-.1-.3h0v-.4h0v-.4h0c0-.1,0-.1.1-.2h0a.4.4,0,0,1,.1-.3h0l.2-.3c-.1-.1-.2-.1-.2-.2h-.1c0-.1-.1-.2-.1-.3h0v-.3h0v-.4h0c0-.1,0-.1.1-.2h0a.8.8,0,0,1,.1-.4h0c.1-.1.1-.1.1-.2s-.1-.1-.1-.2h-.1c0-.1-.1-.3-.1-.4h0v-.4h0v-.4h0a.1.1,0,0,1,.1-.1h0a.8.8,0,0,1,.1-.4h0c.1-.1.1-.1.1-.2a.3.3,0,0,1-.1-.2h-.1c0-.1-.1-.2-.1-.4h0v-.4h0v-.4h0a.1.1,0,0,1,.1-.1c0-.1,0-.2.1-.2h0c.1-.2.1-.3.2-.3h0c-.1-.1-.2-.1-.2-.2a.1.1,0,0,0-.1-.1c0-.1-.1-.2-.1-.3h0v-.4h0v-.4h0c0-.1,0-.1.1-.2a.3.3,0,0,1,.1-.2h0c.1-.1.1-.3.2-.3h0c-.1-.1-.2-.1-.2-.2h-.1c0-.1-.1-.2-.1-.3h0v-.4h0v-.4h0c0-.1,0-.1.1-.2a.3.3,0,0,1,.1-.2h0v-.2h0l.2-.3h0a.2.2,0,0,1-.2-.2h-.1c0-.1-.1-.3-.1-.4h0v-.4h0v-.4h0a.1.1,0,0,1,.1-.1h0c0-.1,0-.2.1-.2h0v-.2l.2-.3h0c-.1-.1-.2-.2-.2-.3h-.1c0-.1-.1-.3-.1-.4h0v-.4h0v-.4h0a.1.1,0,0,1,.1-.1c0-.1,0-.2.1-.2h0a.7.7,0,0,1,.6-.6l-.3-.2h0l-.3-.4h0a1.1,1.1,0,0,1,.4-1.7h-.1l-.2-.3h0a.4.4,0,0,1-.1-.3h0c-.1,0-.1,0-.1-.1h0v-.2h0c0-.2,0-.3.1-.4h0v-.2a1,1,0,0,1,.4-.5h-.1c-.1-.1-.1-.2-.2-.2h0a.4.4,0,0,1-.1-.3h0c-.1-.1-.1-.2-.1-.4h0v-.2h0c0-.2,0-.3.1-.4h0v-.2l.4-.5h-.1l-.2-.2h0a.4.4,0,0,1-.1-.3h0a.4.4,0,0,1-.1-.3h0a.6.6,0,0,1,.1-.4h0v-.2a.7.7,0,0,1,.6-.5l-.3-.3h0l-.2-.2h0a.4.4,0,0,1-.1-.3h0a.4.4,0,0,1-.1-.3h0a.6.6,0,0,1,.1-.4h0v-.2a.8.8,0,0,1,.4-.4h-.1l-.2-.2h0a.4.4,0,0,1-.1-.3h0c-.1-.1-.1-.2-.1-.4h0a.6.6,0,0,1,.1-.4h0v-.2a1.2,1.2,0,0,1,.6-.6l-.3-.2h0l-.2-.2h0a.4.4,0,0,1-.1-.3h0a.4.4,0,0,1-.1-.3h0a.6.6,0,0,1,.1-.4h0v-.2a.6.6,0,0,1,.6-.5l-.3-.2h0l-.2-.3h0a.6.6,0,0,1-.1-.4h0a.8.8,0,0,1-.1-.4h0a.8.8,0,0,1,.1-.4h0a1.2,1.2,0,0,1,.6-.6l-.3-.2h0l-.2-.3h0c-.1-.1-.1-.2-.1-.4h0a.6.6,0,0,1-.1-.4h0a.8.8,0,0,1,.1-.4h0a.9.9,0,0,1,.6-.6l-.3-.2h0l-.2-.2h0a.4.4,0,0,1-.1-.3h0c-.1-.1-.1-.2-.1-.4h0c0-.2,0-.3.1-.4h0v-.2a1.2,1.2,0,0,1,.6-.6l-.3-.2h0l-.3-.4h0a1.2,1.2,0,0,1,.4-1.8h-.1l-.2-.2h0a.6.6,0,0,1-.1-.4h0a.8.8,0,0,1-.1-.4h0a.8.8,0,0,1,.1-.4h0a1.2,1.2,0,0,1,.6-.6l-.3-.2h0l-.2-.2h0a.6.6,0,0,1-.1-.4h0a.8.8,0,0,1-.1-.4h0a.8.8,0,0,1,.1-.4h0a.9.9,0,0,1,.8-.6m0-3a3.8,3.8,0,0,0-3.6,2.5.4.4,0,0,1-.1.3h0v.2c0,.3-.1.6-.1.9V6a3.4,3.4,0,0,0,.1,1,.3.3,0,0,1,.1.2h0v.2c0,.3-.1.6-.1.9v.2a3.8,3.8,0,0,0,.1,1,6.4,6.4,0,0,0-.2.7,4.9,4.9,0,0,0,.2,2.1h0c0,.3-.1.6-.1.9h0a3.1,3.1,0,0,0,.1,1v.2h0a.1.1,0,0,1-.1.1c0,.3-.1.6-.1.9v.2a3.4,3.4,0,0,0,.1,1,.3.3,0,0,0,.1.2h0c0,.1,0,.2-.1.2s-.1.6-.1.9v.2a3.4,3.4,0,0,0,.1,1,.3.3,0,0,1,.1.2h0v.2c0,.3-.1.6-.1.9h0a3.1,3.1,0,0,0,.1,1c0,.1.1.2.1.3h0v.2c0,.3-.1.6-.1.9h0a3.1,3.1,0,0,0,.1,1v.2h0c0,.3-.1.6-.1.9h0a4.1,4.1,0,0,0,.1,1.1.3.3,0,0,1,.1.2h0V27c0,.3-.1.6-.1.9h0a3.1,3.1,0,0,0,.1,1c0,.1,0,.1.1.2h-.1c0,.3-.1.6-.1.9h0v.2h0a3.1,3.1,0,0,0,.1,1h0c0,.3-.1.6-.1,1h0a1.9,1.9,0,0,0,.1.8c-.1.2-.1.5-.2.7a4.9,4.9,0,0,0,.2,2.1v.2h-.1v.2a2.8,2.8,0,0,0-.1.9v.2a3.4,3.4,0,0,0,.1,1v.2h0a3.4,3.4,0,0,0-.1,1v.2a3.4,3.4,0,0,0,.1,1v.2h0a3.1,3.1,0,0,0-.1,1h0a3.1,3.1,0,0,0,.1,1v.3h0a3.1,3.1,0,0,0-.1,1h0a3.1,3.1,0,0,0,.1,1v.2h0a2.8,2.8,0,0,0-.1.9v.2a3.4,3.4,0,0,0,.1,1v.2h0v.2a2.8,2.8,0,0,0-.1.9v.2a3.4,3.4,0,0,0,.1,1v.2h0a3.4,3.4,0,0,0-.1,1h0a4.1,4.1,0,0,0,.1,1.1v.2h0a3.1,3.1,0,0,0-.1,1h0a3.1,3.1,0,0,0,.1,1v.2a2.5,2.5,0,0,0-.1.9h0a4.1,4.1,0,0,0,.1,1.1V59h0a3.1,3.1,0,0,0-.1,1h0a3.1,3.1,0,0,0,.1,1v.3h0v.2a3.1,3.1,0,0,0-.1,1h0a3.1,3.1,0,0,0,.1,1V64h0a3.1,3.1,0,0,0-.1,1h0a3.4,3.4,0,0,0,.1,1v.2a3,3,0,0,0,.4,1v.2l.6.7.2.3,2.6,2.2a3.6,3.6,0,0,0,2.4.9,3.8,3.8,0,0,0,3.5-2.6,2.8,2.8,0,0,0,.3-1.3,4.3,4.3,0,0,0-.1-1.6,2.8,2.8,0,0,0,.1-.9,5,5,0,0,0-.1-1.7,1.9,1.9,0,0,0,.1-.8,4.7,4.7,0,0,0-.1-1.7,2.2,2.2,0,0,0,.1-.8,3.5,3.5,0,0,0-.1-1.5c0-.1,0-.1.1-.2a4.3,4.3,0,0,0,.2-1.1,4.7,4.7,0,0,0-.2-1.7,2.9,2.9,0,0,0,.2-.9,4.1,4.1,0,0,0-.2-1.6,2.9,2.9,0,0,0,.2-.9,7.6,7.6,0,0,0-.1-1.5c0-.2.1-.5.1-.7a5,5,0,0,0-.2-1.7,1.9,1.9,0,0,0,.2-.8,4.1,4.1,0,0,0-.2-1.6,2.9,2.9,0,0,0,.2-.9,4.4,4.4,0,0,0-.2-1.6,2.9,2.9,0,0,0,.2-.9,4.4,4.4,0,0,0-.2-1.6,2.4,2.4,0,0,0,.2-.8,5,5,0,0,0-.2-1.7,1.9,1.9,0,0,0,.2-.8,7.6,7.6,0,0,0-.1-1.5,4.1,4.1,0,0,0,.1-2.9v-.8a5.7,5.7,0,0,0-.1-1.3c0-.2.1-.5.1-.7a4.7,4.7,0,0,0-.2-1.7,2.4,2.4,0,0,0,.2-.8,7.1,7.1,0,0,0-.1-1.5c0-.3.1-.5.1-.7a4.7,4.7,0,0,0-.2-1.7,2.4,2.4,0,0,0,.2-.8,4.7,4.7,0,0,0-.2-1.7,1.9,1.9,0,0,0,.2-.8,5,5,0,0,0-.2-1.7,1.9,1.9,0,0,0,.2-.8,4.1,4.1,0,0,0-.2-1.6,2.9,2.9,0,0,0,.2-.9,4.4,4.4,0,0,0-.2-1.6,3.1,3.1,0,0,0,.2-.8,7.6,7.6,0,0,0-.1-1.5,4.2,4.2,0,0,0,0-3.1c.1-.1.1-.2.1-.4a4.4,4.4,0,0,0-1.5-3.8L80.6,2.6a3.8,3.8,0,0,0-2.3-.8Z" style="fill:#7c3505"/><path d="M78.7,13.6h-.3L76.8,13a4.2,4.2,0,0,1-2.2-3.5,3.4,3.4,0,0,1-.7-1.6V7.7c0-.2-.1-.5-.1-.7V6.2a2.9,2.9,0,0,1,.9-2.7,7,7,0,0,1,4.9-2H81a5,5,0,0,1,2.8,1.7,4.1,4.1,0,0,1,.6,1.1c.1.2.1.4.2.6a11.1,11.1,0,0,1,.5,2.5,5.3,5.3,0,0,1,.6,2.4,2.8,2.8,0,0,1-.1.9,2.7,2.7,0,0,1-.8,1.6,2.4,2.4,0,0,1-1.3.5h0l-1.1.4h-.8l-.9-.3-.4.2A3.4,3.4,0,0,1,78.7,13.6Z" style="fill:#e0a070"/><path d="M79.7,3h1a3.3,3.3,0,0,1,1.9,1.1A2,2,0,0,1,83,5c.1.1.1.3.2.4A23.8,23.8,0,0,1,83.7,8h0a2.9,2.9,0,0,1,.5,1.8,1.3,1.3,0,0,1-.1.6.8.8,0,0,1-.3.7l-.4.2H83a1,1,0,0,1-.8.5h-.3A1.2,1.2,0,0,1,81,11h-.1a.9.9,0,0,1-.6.4l-.6.3a1.9,1.9,0,0,1-1,.3h-.2l-.9-.4a2.6,2.6,0,0,1-1.4-2.9.5.5,0,0,1-.4-.2,1.8,1.8,0,0,1-.4-.9h0c0-.2-.1-.4-.1-.6V6.7a.4.4,0,0,0,.1-.3h0V6.1c-.3-.5.1-1.2.5-1.5A5.5,5.5,0,0,1,79.7,3m0-3a8.7,8.7,0,0,0-5.9,2.4,4.6,4.6,0,0,0-1.4,3.9v.2h-.1V7c0,.3.1.6.1.9v.3a7.5,7.5,0,0,0,.7,1.8A6.1,6.1,0,0,0,76,14.3a7.4,7.4,0,0,0,2.2.8h.5a5.4,5.4,0,0,0,2.1-.5l.6.2h1.2l1.3-.4a3.8,3.8,0,0,0,1.8-.9,4.2,4.2,0,0,0,1.4-2.4,4.9,4.9,0,0,0,.1-1.2,7.1,7.1,0,0,0-.6-2.8A12.2,12.2,0,0,0,86,4.5a1.4,1.4,0,0,0-.2-.6A7.1,7.1,0,0,0,85,2.4,5.8,5.8,0,0,0,81.3.2L79.7,0Z" style="fill:#7c3505"/><path d="M77.5,74.4h-.3a4.6,4.6,0,0,1-2.1-.8,5.4,5.4,0,0,1-2.9-4.8,5,5,0,0,1-1-2.2c0-.2-.1-.4-.1-.7h0V64.4h0a13.8,13.8,0,0,1,.8-2.7c1-2,3.7-2.3,4.5-2.3h.3a3.2,3.2,0,0,1,1.4.3l.6.3h1.2l2.2.2a4.1,4.1,0,0,1,2.8,1.2,6.1,6.1,0,0,1,.7,1.4,25.7,25.7,0,0,1,.8,3.8,7.6,7.6,0,0,1,.8,3.3,5,5,0,0,1-.2,1.2,2.9,2.9,0,0,1-1,1.9,2.3,2.3,0,0,1-1.6.6h0a3.3,3.3,0,0,1-1.9.6H82a3.5,3.5,0,0,1-1.4-.6l-1,.5A5.4,5.4,0,0,1,77.5,74.4Z" style="fill:#e0a070"/><path d="M76.7,60.8h.8l.7.6,1.2-.2h.5l2.1.2a2.2,2.2,0,0,1,1.7.7,2.5,2.5,0,0,1,.4.9,16.1,16.1,0,0,1,.8,3.8H85a5.2,5.2,0,0,1,.7,2.7c0,.3-.1.6-.1.9a2.4,2.4,0,0,1-.6,1.1l-.6.2c-.2,0-.4,0-.5-.2a1.6,1.6,0,0,1-1.4.8h-.2a1.7,1.7,0,0,1-1.4-1.2.1.1,0,0,1-.1.1,1.6,1.6,0,0,1-.8.6l-1,.5a4.2,4.2,0,0,1-1.5.4h-.2l-1.4-.5a4,4,0,0,1-2.1-4.3,1,1,0,0,1-.5-.4,2,2,0,0,1-.6-1.3,1.3,1.3,0,0,1-.1-.6h0V64.5h0a8.8,8.8,0,0,1,.7-2.3c.5-1,2.2-1.3,3.2-1.4h.2m0-3h-.4c-1,.1-4.4.4-5.7,3.1a8.5,8.5,0,0,0-.9,3.1h-.1V65h0v1c0,.3.1.5.1.8a5.3,5.3,0,0,0,1,2.4,7.5,7.5,0,0,0,3.6,5.6,6.4,6.4,0,0,0,2.7,1h.5a6.6,6.6,0,0,0,2.7-.6l.4-.2,1.2.4h.7a4.6,4.6,0,0,0,2.3-.6,3.7,3.7,0,0,0,2.2-1,4.3,4.3,0,0,0,1.5-2.7,7.2,7.2,0,0,0-.7-5.2,16.1,16.1,0,0,0-.8-3.8,6,6,0,0,0-1-2,5.7,5.7,0,0,0-3.7-1.7l-2.4-.2H79l-.3-.2a4.2,4.2,0,0,0-2-.4Z" style="fill:#7c3505"/><path d="M51.2,63.1H51l-3.6-.5a1.4,1.4,0,0,1-1.2-.9h-1l-.9-.3h-1a1.7,1.7,0,0,1-1.2.5,2.4,2.4,0,0,1-1-.3l-2.2-.8a1.9,1.9,0,0,1-1.1-.8,2.3,2.3,0,0,1-.3-1.2c-.1-.1-.1-.2-.1-.4a2.7,2.7,0,0,1-1.2-1.5v-.9a37.6,37.6,0,0,1,1-6.6,21.8,21.8,0,0,1,1.6-4.2l.3-.3c1.5-2.6,3.3-3.1,4.5-3.1h1.1a3.2,3.2,0,0,1,1.6.4,4.6,4.6,0,0,1,1.9,2,16.9,16.9,0,0,1,1.3,2.7A26.8,26.8,0,0,1,52,54c.2,1.5.4,3.1.5,4.5l.2,3a1.6,1.6,0,0,1-.5,1.2A1.5,1.5,0,0,1,51.2,63.1Z" style="fill:#ffdeae"/><path d="M43.6,43.2h1.1l.9.2a3.5,3.5,0,0,1,1.3,1.4l1.3,2.6a24.4,24.4,0,0,1,2.3,6.9,31.2,31.2,0,0,1,.5,4.4c.1.9.1,1.9.2,2.9l-3.6-.5L47.4,60h-2l-1.3-.4c-.1-1.2.2-9.3-.1-12-.2,1.3-1.1,10.8-1.5,12a.6.6,0,0,1-.1.4h-.3l-.5-.2-2.2-.8c-.1-.1-.3-.1-.4-.3v-.4a14.8,14.8,0,0,1-.1-2.1l-.2.8c-.4-.2-.9-.4-1-.9V56a43.4,43.4,0,0,1,.9-6.3,18.6,18.6,0,0,1,1.5-3.8l.2-.3c.8-1.4,1.9-2.4,3.3-2.4m0-3h0c-1.6,0-3.9.6-5.8,3.8l-.3.4a22.5,22.5,0,0,0-1.8,4.5,41.4,41.4,0,0,0-1,6.8,3.6,3.6,0,0,0,.1,1.4,3.2,3.2,0,0,0,1.2,2,4.1,4.1,0,0,0,.5,1.6,4.6,4.6,0,0,0,1.8,1.4l2.2.8a3.4,3.4,0,0,0,1.6.4,3,3,0,0,0,1.6-.5c.1,0,.1,0,.1.1l1.1.2h.5a3.1,3.1,0,0,0,1.8.9l3.6.4h.4a2.9,2.9,0,0,0,2.1-.9,3,3,0,0,0,.9-2.4V58.4c-.1-1.5-.3-3.1-.5-4.6a29.7,29.7,0,0,0-2.6-7.6,19.5,19.5,0,0,0-1.4-2.9,6.5,6.5,0,0,0-2.6-2.6,5.4,5.4,0,0,0-2.2-.5H43.6Z" style="fill:#7c3505"/><path d="M46,45.9a2.4,2.4,0,0,1-1.4-.5L42,43.2h-.1l-.4-.5v-.2a1.4,1.4,0,0,1-.2-.6h-.1v-.8a1.7,1.7,0,0,1,.1-.7h0c0-.1.1-.2.1-.3h0c0-.1-.1-.2-.1-.4v-.9a2,2,0,0,1,.1-.7h0c0-.1.1-.2.1-.3h0c0-.2-.1-.3-.1-.5a.1.1,0,0,0-.1-.1v-.8a1.7,1.7,0,0,1,.1-.7h0a1,1,0,0,1,.1-.3c0-.2-.1-.3-.1-.5h-.1v-.7a2.2,2.2,0,0,1,.1-.8h0a.3.3,0,0,1,.1-.2.4.4,0,0,1-.1-.3.1.1,0,0,0-.1-.1v-.8a2,2,0,0,1,.1-.7h0a.3.3,0,0,1,.1-.2v-.2c0-.1-.1-.2-.1-.4a.1.1,0,0,0-.1-.1v-.8a2,2,0,0,1,.1-.7h0a.4.4,0,0,1,.1-.3v-.2a.4.4,0,0,1-.1-.3c0-.1,0-.1-.1-.2v-.7a2.5,2.5,0,0,1,.1-.8v-.5a.4.4,0,0,1-.1-.3c0-.1,0-.1-.1-.2v-.7a1.7,1.7,0,0,1,.1-.7h0a.4.4,0,0,1,.1-.3h0c0-.1-.1-.2-.1-.4a.1.1,0,0,0-.1-.1v-.8a1.7,1.7,0,0,1,.1-.7v-.4c0-.2-.1-.3-.1-.5a.1.1,0,0,0-.1-.1v-.8a2,2,0,0,1,.1-.7h0v-.2h0c0-.2-.1-.3-.1-.4v-.9a2.2,2.2,0,0,1,.1-.8h0c0-.1.1-.2.1-.3h0c0-.1-.1-.3-.1-.4v-.9a2.5,2.5,0,0,1,.1-.8h0a.4.4,0,0,1,.1-.3v-.4h.1a2.2,2.2,0,0,1-.4-1.8l.3-.8a.4.4,0,0,0-.1-.3h0c0-.2-.1-.4-.1-.6h0V8.3c0-.2.1-.4.1-.6a.1.1,0,0,1,.1-.1V7.4a.4.4,0,0,0-.1-.3h0c0-.3-.1-.5-.1-.7V6.1h0V5.8c0-.2.1-.4.1-.6a.1.1,0,0,1,.1-.1V4.9h0c0-.2,0-.3-.1-.4h0c0-.2-.1-.5-.1-.7h0a.4.4,0,0,1,.1-.3A1.5,1.5,0,0,1,42.7,2H47a1.5,1.5,0,0,1,1.5,1.5v.3h0a1.9,1.9,0,0,1-.2.8h0a2.5,2.5,0,0,1,.2,1.5,2.9,2.9,0,0,1-.2.9,3,3,0,0,1,.2,1.3v.3a1.1,1.1,0,0,1-.1.6h0a2.6,2.6,0,0,1-.1,2.7,2.2,2.2,0,0,1,.2,1.4,2,2,0,0,1-.2.9h0a2.5,2.5,0,0,1,.2,1.5,2,2,0,0,1-.2.9h0a2.4,2.4,0,0,1,.2,1.5,2.4,2.4,0,0,1-.2.9h0a2.4,2.4,0,0,1,.2,1.5,2.9,2.9,0,0,1-.2.9h0a2.6,2.6,0,0,1,.2,1.5,2,2,0,0,1-.2.9h0a2.6,2.6,0,0,1,.2,1.5,2.4,2.4,0,0,1-.2.9,2,2,0,0,1,.2,1.3,1.5,1.5,0,0,1-.2.8v.3a2.2,2.2,0,0,1,.2,1.4,1.5,1.5,0,0,1-.2.8v.3a2.6,2.6,0,0,1,.2,1.5,2.4,2.4,0,0,1-.2.9,4.3,4.3,0,0,1-.1.5,6.8,6.8,0,0,1,.2,1.4,4.6,4.6,0,0,1-.3.9h0a3.7,3.7,0,0,1,.3,1.5l-.3.9h0a4.1,4.1,0,0,1,.3,1.6l-.3.9h0a4.1,4.1,0,0,1,.3,1.6l-.3.9A2.2,2.2,0,0,1,46,45.9Z" style="fill:#ffdeae"/><path d="M47,3.5h0a1.1,1.1,0,0,1-.1.5c-.1.3-.3.5-.5.5l.2.2A1.5,1.5,0,0,1,47,6.1a.6.6,0,0,1-.1.4,1.3,1.3,0,0,1-.4.6h.1A1.5,1.5,0,0,1,47,8.4h0v.3a.6.6,0,0,1-.1.4h-.5a1.1,1.1,0,0,1,.7.6,1.4,1.4,0,0,1-.2,1.4,1.2,1.2,0,0,1-.5.5h.2a1.2,1.2,0,0,1,.4,1.2.9.9,0,0,1-.1.5,1,1,0,0,1-.5.6l.2.2a1.2,1.2,0,0,1,.4,1.2.9.9,0,0,1-.1.5h-.1v.3c-.1.1-.2.2-.2.3h0a1.5,1.5,0,0,1,.4,1.3.6.6,0,0,1-.1.4c0,.1,0,.1-.1.2v.3c-.1.1-.2.2-.2.3h0a1.5,1.5,0,0,1,.4,1.3.6.6,0,0,1-.1.4c0,.1,0,.1-.1.2v.2c-.1.2-.2.3-.2.4h0a1.2,1.2,0,0,1,.4,1.2.9.9,0,0,1-.1.5.1.1,0,0,1-.1.1v.3l-.2.3h0a1.2,1.2,0,0,1,.4,1.2.9.9,0,0,1-.1.5.1.1,0,0,1-.1.1v.3c-.1.1-.1.1-.1.2a1.3,1.3,0,0,1,.3,1.1.9.9,0,0,1-.1.5h0a.9.9,0,0,0-.1.5c-.1,0-.1.1-.1.2a1.3,1.3,0,0,1,.3,1.1.9.9,0,0,1-.1.5h0a.6.6,0,0,0-.1.4l-.2.3A1.3,1.3,0,0,1,47,33a1.1,1.1,0,0,1-.1.5h0a.6.6,0,0,0-.1.4,1.1,1.1,0,0,1-.4.5h0a1.5,1.5,0,0,1,.5,1.2.7.7,0,0,0-.1.5c-.2.3-.4.5-.6.5l.2.2a1.9,1.9,0,0,1,.5,1.3.6.6,0,0,0-.1.4c-.2.4-.4.6-.7.6l.3.3a1.8,1.8,0,0,1,.5,1.2,1.1,1.1,0,0,0-.1.5,1.7,1.7,0,0,1-.6.6l.2.2a1.8,1.8,0,0,1,.5,1.2,1.1,1.1,0,0,0-.1.5.9.9,0,0,1-.8.6h-.4L43,42.1h0a.2.2,0,0,1-.2-.2h-.1c0-.2,0-.3-.1-.4h0V41h0v-.4h0a.1.1,0,0,0,.1-.1,1,1,0,0,1,.5-.6l-.2-.2h0a.2.2,0,0,1-.2-.2h-.1a.6.6,0,0,0-.1-.4h0v-.4h0V38h0a.1.1,0,0,0,.1-.1.7.7,0,0,1,.6-.6L43,37h0l-.2-.3h-.1a.4.4,0,0,0-.1-.3h0v-.4h0v-.4h0a.1.1,0,0,0,.1-.1,1,1,0,0,1,.5-.6l-.2-.2h0l-.2-.3h-.1a.4.4,0,0,0-.1-.3h0v-.4h0V33h0c.1-.1.1-.1.1-.2s.1-.2.1-.3h0c.1-.1.1-.2.2-.2s-.2-.2-.2-.3h-.1a.4.4,0,0,0-.1-.3h0v-.4h0v-.4h.1a.4.4,0,0,0,.1-.3h0V30l.2-.2c-.1-.1-.2-.2-.2-.3h-.1a.4.4,0,0,0-.1-.3h0v-.4h0v-.4h.1c0-.1.1-.3.1-.4h0v-.2h.1a.3.3,0,0,0-.1-.2.1.1,0,0,0-.1-.1.4.4,0,0,0-.1-.3h0v-.3h0v-.4h0v-.2h0c0-.1.1-.3.1-.4h0v-.2h.1c0-.1-.1-.1-.1-.2h-.1a.4.4,0,0,0-.1-.3h0v-.3h0v-.4h.1a.4.4,0,0,1,.1-.3h0v-.2c.1-.1.2-.2.2-.3h0l-.2-.3h-.1a.8.8,0,0,0-.1-.4h0v-.4h0v-.4h0a.1.1,0,0,0,.1-.1v-.2h0v-.2c.1-.1.2-.2.2-.3h0l-.2-.3h-.1a.4.4,0,0,0-.1-.3h0v-.4h0v-.4h0a.1.1,0,0,0,.1-.1V18h0l.2-.3h0c-.1-.1-.2-.1-.2-.2h-.1a.4.4,0,0,0-.1-.3h0v-.4h0v-.4h0c.1-.1.1-.1.1-.2v-.2h0L43,15h0c-.1-.1-.2-.1-.2-.2h-.1a.4.4,0,0,0-.1-.3h0v-.3h0v-.4h0c.1-.1.1-.1.1-.2V13h0v-.2l.6-.6-.2-.2h-.1l-.3-.4h0a1.3,1.3,0,0,1,.5-1.8h-.2l-.2-.2h0c0-.2-.1-.3-.1-.4h0a.1.1,0,0,1-.1-.1h0c0-.1.1-.2.1-.4h0a1,1,0,0,1,.4-.5h0c-.1,0-.1,0-.1-.1l-.2-.2h0V6.7h0a.8.8,0,0,1-.1-.4h0c0-.1.1-.2.1-.4h0a1.1,1.1,0,0,1,.4-.5h-.1l-.2-.3h0V4.2h0a.6.6,0,0,1-.1-.4h0V3.5H47m0-3H42.7a2.9,2.9,0,0,0-2.9,2.6.4.4,0,0,1-.1.3v.3c0,.3.1.7.1,1h0a2,2,0,0,1-.1.7V6h0v.2c0,.3.1.6.1,1h.1c-.1.3-.1.5-.2.8v.3h0c0,.3.1.5.1.8a6.4,6.4,0,0,0-.2.7,5,5,0,0,0,.2,2.1v.3h-.1a4.1,4.1,0,0,0-.1,1.1h0a3.8,3.8,0,0,0,.1,1V15h0a4.1,4.1,0,0,0-.1,1.1h0a2.8,2.8,0,0,0,.1.9v.3h0a3.7,3.7,0,0,0-.1,1.1h0a2.8,2.8,0,0,0,.1.9V20h0a2.8,2.8,0,0,0-.1,1h0a2.8,2.8,0,0,0,.1.9v.3h0a4.5,4.5,0,0,0-.1,1.1h0a3.8,3.8,0,0,0,.1,1V25h0a4.5,4.5,0,0,0-.1,1.1h0a3.4,3.4,0,0,0,.1,1v.2h0a4.1,4.1,0,0,0-.1,1.1h0a2.8,2.8,0,0,0,.1.9v.3h0a3.7,3.7,0,0,0-.1,1.1h0a2.8,2.8,0,0,0,.1.9v.2a4.1,4.1,0,0,0-.1,1.1h0a2.8,2.8,0,0,0,.1.9v.3h0a3.4,3.4,0,0,0-.1,1.1h0a2.8,2.8,0,0,0,.1.9v.4h0a4.5,4.5,0,0,0-.1,1.1h0a3.1,3.1,0,0,0,.1,1v.3h0a4.5,4.5,0,0,0-.1,1.1h0a3.4,3.4,0,0,0,.1,1v.3l.3.8.3.4h0l.6.7.2.2h0l2.6,2.2a3.7,3.7,0,0,0,5.8-1.7,2.7,2.7,0,0,0,.3-1.2.1.1,0,0,1,.1-.1,9.9,9.9,0,0,0-.2-1.7,1.5,1.5,0,0,0,.1-.7h.1a8.8,8.8,0,0,0-.2-1.7,1.9,1.9,0,0,0,.1-.8h.1a7.8,7.8,0,0,0-.2-1.6,2.2,2.2,0,0,0,.1-.8h.1a3.9,3.9,0,0,0-.2-1.5h.1a3.6,3.6,0,0,0,.2-1.1h0a3,3,0,0,0-.2-1.6,2.9,2.9,0,0,0,.2-.9h0a4.7,4.7,0,0,0-.1-1.7c0-.2.1-.5.1-.7h0a3.7,3.7,0,0,0-.1-1.5c0-.2.1-.4.1-.7h0a4.3,4.3,0,0,0-.1-1.6c0-.2.1-.5.1-.7v-.2a4.3,4.3,0,0,0-.1-1.6c0-.2.1-.4.1-.7h0a4.2,4.2,0,0,0-.1-1.6c0-.3.1-.5.1-.8h0a4.2,4.2,0,0,0-.1-1.6c0-.3.1-.5.1-.8h0a4.3,4.3,0,0,0-.1-1.6c0-.2.1-.5.1-.8h0a6.1,6.1,0,0,0-.1-1.4,4.4,4.4,0,0,0,.1-3h0V8.4a5.7,5.7,0,0,0-.1-1.3c0-.2.1-.5.1-.7h0a4.2,4.2,0,0,0-.1-1.6c0-.2.1-.5.1-.7V3.5a2.9,2.9,0,0,0-3-3Z" style="fill:#7c3505"/><path d="M44,13.6h-.3L42.1,13a4.7,4.7,0,0,1-2.2-3.5,3.4,3.4,0,0,1-.7-1.6V6.2a2.9,2.9,0,0,1,.9-2.7,7,7,0,0,1,4.9-2h1.3a4.6,4.6,0,0,1,2.8,1.7,4.1,4.1,0,0,1,.6,1.1,1.4,1.4,0,0,1,.2.6,11.4,11.4,0,0,1,.6,2.5A6.9,6.9,0,0,1,51,9.9a2.8,2.8,0,0,1-.1.9,2.7,2.7,0,0,1-.8,1.6,2.1,2.1,0,0,1-1.3.5h0l-1.1.4h-.8l-.8-.3-.5.2A3.4,3.4,0,0,1,44,13.6Z" style="fill:#e0a070"/><path d="M45,3h1a3,3,0,0,1,1.9,1.1,2,2,0,0,1,.4.8c.1.1.1.3.2.4A23.8,23.8,0,0,1,49,8h.1a3.7,3.7,0,0,1,.4,1.8v.6c-.1.3-.2.6-.4.7l-.4.2h-.4a.9.9,0,0,1-.8.5h-.3a1.2,1.2,0,0,1-.9-.8h-.1a1,1,0,0,1-.5.4l-.7.3a1.9,1.9,0,0,1-1,.3h-.2l-.9-.4a2.6,2.6,0,0,1-1.4-2.9l-.4-.2a3.6,3.6,0,0,1-.4-.9h0V6.4h0V6.1a1.4,1.4,0,0,1,.5-1.5A5.5,5.5,0,0,1,45,3m0-3a8.7,8.7,0,0,0-5.9,2.4,4.6,4.6,0,0,0-1.4,3.9v.2h0V7.9a.4.4,0,0,0,.1.3,3.6,3.6,0,0,0,.7,1.8,5.9,5.9,0,0,0,2.8,4.3,7,7,0,0,0,2.3.8H44a5.4,5.4,0,0,0,2.1-.5l.6.2H48l1.2-.4a4.8,4.8,0,0,0,1.9-.9,4.7,4.7,0,0,0,1.3-2.4,4.9,4.9,0,0,0,.1-1.2,7.1,7.1,0,0,0-.6-2.8,12.2,12.2,0,0,0-.6-2.6,1.4,1.4,0,0,0-.2-.6,6.9,6.9,0,0,0-.7-1.5A6.3,6.3,0,0,0,46.6.2L45,0Z" style="fill:#7c3505"/><path d="M42.8,50.1h-.3a4.7,4.7,0,0,1-2.1-.7,5.7,5.7,0,0,1-2.9-4.9,4.1,4.1,0,0,1-1-2.1,1.7,1.7,0,0,0-.1-.7h0V40.4a.8.8,0,0,1,.1-.4h0a6.1,6.1,0,0,1,.8-2.7c.9-2,3.6-2.3,4.4-2.3H42l1.4.2.6.4h3.5a4.3,4.3,0,0,1,2.7,1.3,2.7,2.7,0,0,1,.7,1.4,23.3,23.3,0,0,1,.8,3.8,7.3,7.3,0,0,1,.8,3.3c0,.4-.1.8-.1,1.1a3.3,3.3,0,0,1-1.1,2,2.3,2.3,0,0,1-1.6.6h0a3.3,3.3,0,0,1-1.9.6h-.5a2.5,2.5,0,0,1-1.4-.6l-1,.6A5.4,5.4,0,0,1,42.8,50.1Z" style="fill:#e0a070"/><path d="M42,36.5h.8a1.3,1.3,0,0,1,.7.6l1.2-.2h2.6a2.6,2.6,0,0,1,1.7.7,4.1,4.1,0,0,1,.5.9,17.8,17.8,0,0,1,.7,3.9.1.1,0,0,1,.1.1,4.8,4.8,0,0,1,.7,2.6,2.8,2.8,0,0,1-.1.9,1.6,1.6,0,0,1-.5,1.1.9.9,0,0,1-.7.3l-.5-.2a1.6,1.6,0,0,1-1.4.8h-.2A1.6,1.6,0,0,1,46.3,47h-.2a1,1,0,0,1-.8.5l-1,.6a4.2,4.2,0,0,1-1.5.4h-.2a2.7,2.7,0,0,1-1.4-.5c-1.4-.9-2.6-2.5-2.1-4.3a.5.5,0,0,1-.5-.3A2.5,2.5,0,0,1,38,42c0-.2-.1-.3-.1-.5h0V40.2c.1,0,.1,0,.1-.1h0a6,6,0,0,1,.6-2.2c.5-1,2.2-1.4,3.2-1.4H42m0-3h-.3c-1.1,0-4.5.4-5.8,3.1a8.5,8.5,0,0,0-.9,3.1h0a.9.9,0,0,0-.1.5v.2h0v.9h0a2.5,2.5,0,0,1,.1.8A6.3,6.3,0,0,0,36,45a7.3,7.3,0,0,0,3.7,5.6,5.8,5.8,0,0,0,2.6.9h.5a5.4,5.4,0,0,0,2.7-.7h.4a5.3,5.3,0,0,0,1.2.3h.7a4.6,4.6,0,0,0,2.3-.6,4.4,4.4,0,0,0,2.2-1,4.5,4.5,0,0,0,1.5-2.8,5.9,5.9,0,0,0,.2-1.4,8.5,8.5,0,0,0-.9-3.8,18.4,18.4,0,0,0-.8-3.8,5,5,0,0,0-1-1.9,5.4,5.4,0,0,0-3.7-1.8H44a4.2,4.2,0,0,0-2-.4Z" style="fill:#7c3505"/></g></g></g></g></svg>