<svg xmlns="http://www.w3.org/2000/svg" width="88.6" height="88.9" viewBox="0 0 88.6 88.9"><g style="isolation:isolate"><g id="Layer_2" data-name="Layer 2"><g id="Layer_1-2" data-name="Layer 1"><g id="Squirrel_toy_2" data-name="Squirrel_toy 2"><rect x="1" y="1.2" width="86.6" height="86.59" style="fill:none;stroke:#db9b53;stroke-miterlimit:10;mix-blend-mode:multiply"/><path d="M22.8,87.4h-.2l-3.7-.5a1.3,1.3,0,0,1-1.1-.9H16.7l-.8-.2h-.5l-.4-.2h-.1a1.9,1.9,0,0,1-1.3.5l-1-.2L10.4,85a2.2,2.2,0,0,1-1-.8A1.7,1.7,0,0,1,9,83v-.3a2.6,2.6,0,0,1-1.2-1.6,1.4,1.4,0,0,1,0-.9,49.8,49.8,0,0,1,.9-6.6,21.1,21.1,0,0,1,1.7-4.1l.2-.4c1.6-2.5,3.3-3.1,4.5-3.1h1.1a4.1,4.1,0,0,1,1.6.3,4.8,4.8,0,0,1,2,2,16.9,16.9,0,0,1,1.3,2.7,25,25,0,0,1,2.4,7.3,34.4,34.4,0,0,1,.5,4.5l.3,2.9a1.8,1.8,0,0,1-.5,1.2A1.3,1.3,0,0,1,22.8,87.4Z" style="fill:#ffdeae"/><path d="M15.1,67.5h1.1a1.8,1.8,0,0,1,1,.2,2.6,2.6,0,0,1,1.3,1.4,12.3,12.3,0,0,1,1.2,2.6,26.2,26.2,0,0,1,2.4,6.8c.2,1.5.3,2.9.4,4.4l.3,2.9-3.7-.5V84.3H17l-1.3-.3c-.1-1.3.1-9.4-.2-12.1-.1,1.3-1,10.8-1.4,12a.5.5,0,0,1-.2.4h-.7L11,83.6l-.4-.2a.8.8,0,0,1-.1-.4V80.8l-.3.8a1.2,1.2,0,0,1-.9-.8.5.5,0,0,1,0-.5,45.5,45.5,0,0,1,.9-6.3,21.2,21.2,0,0,1,1.5-3.8l.2-.3c.8-1.3,1.9-2.4,3.2-2.4m0-3h0c-1.5,0-3.8.7-5.8,3.8l-.2.5a17.3,17.3,0,0,0-1.8,4.4,41,41,0,0,0-1,6.9,2.7,2.7,0,0,0,0,1.3,4.5,4.5,0,0,0,1.2,2.1A5.1,5.1,0,0,0,8.1,85a3.6,3.6,0,0,0,1.7,1.4l2.3.9a4,4,0,0,0,1.5.3,4.7,4.7,0,0,0,1.7-.4h.1l1.1.3H17a2.8,2.8,0,0,0,1.7.9l3.7.5h.4a3,3,0,0,0,2-.8,3.1,3.1,0,0,0,1-2.4l-.2-2.6v-.3a39.6,39.6,0,0,0-.5-4.7,27.1,27.1,0,0,0-2.5-7.6,25.9,25.9,0,0,0-1.4-2.9,7,7,0,0,0-2.6-2.5,4.6,4.6,0,0,0-2.3-.5H15.1Z" style="fill:#7c3505"/><path d="M17.6,70.3a2,2,0,0,1-1.4-.6l-2.6-2.1-.2-.2-.3-.5a.1.1,0,0,1-.1-.1l-.3-.7h0c0-.2-.1-.5-.1-.7h0c0-.2.1-.4.1-.6v-.4h.1l-.2-.5h0c0-.2-.1-.4-.1-.7h0c0-.2.1-.4.1-.6a.3.3,0,0,1,.1-.2v-.2c.1-.1.1-.1.1-.2s-.1-.3-.2-.4v-.2c0-.2-.1-.4-.1-.7h0c0-.2.1-.4.1-.6s.1-.1.1-.2v-.2a.1.1,0,0,0,.1-.1c-.1-.1-.1-.3-.2-.4v-.2c0-.2-.1-.4-.1-.7h0c0-.2.1-.4.1-.6s.1-.1.1-.2h0a.4.4,0,0,0-.1-.3v-.2c0-.2-.1-.4-.1-.7h0c0-.2.1-.4.1-.6v-.4h.1c-.1-.1-.1-.3-.2-.4v-.2c0-.2-.1-.4-.1-.7h0c0-.2.1-.4.1-.6s.1-.1.1-.2h0c0-.1,0-.2.1-.2s-.1-.3-.2-.4h0c0-.2-.1-.5-.1-.7h0c0-.2.1-.5.1-.7a.3.3,0,0,0,.1-.2h0c0-.1,0-.1.1-.2s-.1-.3-.2-.4h0c0-.2-.1-.5-.1-.7h0c0-.2.1-.4.1-.7a.3.3,0,0,0,.1-.2v-.2h.1c-.1-.2-.1-.3-.2-.4v-.2c0-.2-.1-.4-.1-.7h0c0-.2.1-.4.1-.6a.3.3,0,0,1,.1-.2v-.2a.1.1,0,0,0,.1-.1c-.1-.1-.1-.3-.2-.4v-.2c0-.2-.1-.4-.1-.7h0c0-.2.1-.4.1-.6a.3.3,0,0,1,.1-.2V42h.1l-.2-.4h0c0-.3-.1-.5-.1-.7v-.2c0-.2.1-.4.1-.6s.1-.1.1-.2v-.2c.1,0,.1,0,.1-.1l-.2-.4h0c0-.2-.1-.5-.1-.7h0c0-.2.1-.5.1-.7V37a.1.1,0,0,0,.1-.1h0c.1-.1.1-.1.1-.2h0a2.9,2.9,0,0,1-.3-1.8,1.6,1.6,0,0,1,.3-.9.4.4,0,0,1-.1-.3h0a1.3,1.3,0,0,1-.1-.6h0a1.3,1.3,0,0,1,.1-.6v-.3c.1,0,.1,0,.1-.1a.4.4,0,0,1-.1-.3h0a1.5,1.5,0,0,1-.1-.7h0v-.2h0a1.3,1.3,0,0,1,.1-.6v-.2a.3.3,0,0,0,.1-.2c0-.1-.1-.2-.1-.3v-.2a1.3,1.3,0,0,1-.1-.6v-.2a1.3,1.3,0,0,1,.1-.6v-.2a.3.3,0,0,0,.1-.2h0c0-.1-.1-.3-.1-.4v-.2a1.3,1.3,0,0,1-.1-.6v-.2a1.3,1.3,0,0,1,.1-.6v-.2H13a.4.4,0,0,1-.1-.3V24a1.5,1.5,0,0,1-.1-.7h0a1.3,1.3,0,0,1,.1-.6v-.2a.3.3,0,0,0,.1-.2h0c0-.1-.1-.3-.1-.4v-.2a1.3,1.3,0,0,1-.1-.6v-.2a1.3,1.3,0,0,1,.1-.6v-.2a.3.3,0,0,0,.1-.2h0c0-.1-.1-.2-.1-.4h0a1.7,1.7,0,0,1-.1-.7h0a1.7,1.7,0,0,1,.1-.7v-.2c.1-.1.1-.1.1-.2h0c0-.2-.1-.3-.1-.5h0a1.7,1.7,0,0,1-.1-.7h0a2,2,0,0,1,.1-.7v-.2c.1,0,.1-.1.1-.2h0c0-.2-.1-.3-.1-.5h0a1.5,1.5,0,0,1-.1-.7h0a1.3,1.3,0,0,1,.1-.6v-.4h0a2.8,2.8,0,0,1-.3-1.8,1.1,1.1,0,0,1,.3-.8.4.4,0,0,1-.1-.3h0a2,2,0,0,1-.1-.7V8.3a1.3,1.3,0,0,1,.1-.6V7.5c.1-.1.1-.1.1-.2h0c0-.1-.1-.2-.1-.4h0a1.7,1.7,0,0,1-.1-.7h0a1.7,1.7,0,0,1,.1-.7V5c.1-.1.1-.1.1-.2a2.4,2.4,0,0,1,2.1-1.5,1.9,1.9,0,0,1,1.4.5L19.1,6a2.8,2.8,0,0,1,1,2.5c-.1.2-.1.5-.2.7H20a3.2,3.2,0,0,1-.1,2.7,5.9,5.9,0,0,1,.2,1.4c-.1.3-.1.6-.2.9h-.1a4,4,0,0,1,.3,1.5c-.1.3-.1.6-.2.9h-.1a3.7,3.7,0,0,1,.3,1.5c-.1.3-.1.6-.2.9h-.1a3.3,3.3,0,0,1,.3,1.5c-.1.3-.1.6-.2.9h-.1a4,4,0,0,1,.3,1.5,6.4,6.4,0,0,1-.2.9.1.1,0,0,1-.1.1,4,4,0,0,1,.3,1.5c-.1.3-.1.6-.2.9a5.9,5.9,0,0,1,.2,1.3,6.4,6.4,0,0,1-.2.9.1.1,0,0,1-.1.1,4,4,0,0,1,.3,1.5c-.1.3-.1.6-.2.9a5.9,5.9,0,0,1,.2,1.3v.4a4.3,4.3,0,0,1-.1.5h0a3,3,0,0,1-.1,2.6,6.8,6.8,0,0,1,.2,1.5c-.1.3-.1.6-.2.9h-.1a4.1,4.1,0,0,1,.3,1.6c-.1.3-.1.6-.2.9h-.1a4,4,0,0,1,.3,1.5c-.1.3-.1.6-.2.9h-.1a4,4,0,0,1,.3,1.5c-.1.3-.1.6-.2.9h-.1a3.7,3.7,0,0,1,.3,1.5c-.1.3-.1.6-.2.9a.1.1,0,0,0-.1.1,3.3,3.3,0,0,1,.3,1.5c-.1.3-.1.5-.2.8a5.9,5.9,0,0,1,.2,1.4c-.1.3-.1.5-.2.8v.2a7.7,7.7,0,0,1,.2,1.5c-.1.3-.1.5-.2.8a.4.4,0,0,1-.1.3,3.3,3.3,0,0,1,.3,1.5c-.1.2-.1.5-.2.8s-.1.4-.2.6a3,3,0,0,1,0,2.2h0a2.6,2.6,0,0,1,.2,1.5,2.9,2.9,0,0,1-.2.9h0a3,3,0,0,1,.2,1.6,2.9,2.9,0,0,1-.2.9h0a2.5,2.5,0,0,1,.2,1.5,2.9,2.9,0,0,1-.2.9,2.3,2.3,0,0,1-2.1,1.6Z" style="fill:#ffdeae"/><path d="M15.1,4.8h.5l2.6,2.2a1.8,1.8,0,0,1,.4,1.3c0,.1-.1.3-.1.4a1.7,1.7,0,0,1-.6.6h0a1.6,1.6,0,0,1,.8.6,1.3,1.3,0,0,1-.3,1.4,1,1,0,0,1-.4.5h.2a1.5,1.5,0,0,1,.4,1.2c0,.2-.1.3-.1.5a1.7,1.7,0,0,1-.6.6l.3.2a1.5,1.5,0,0,1,.4,1.2c0,.2-.1.3-.1.5s-.3.5-.6.5l.3.2a1.8,1.8,0,0,1,.4,1.3v.4a1.7,1.7,0,0,1-.6.6l.3.2a1.8,1.8,0,0,1,.4,1.3v.4c-.2.3-.3.5-.6.6l.3.2a1.5,1.5,0,0,1,.4,1.2c0,.2-.1.3-.1.5a1.7,1.7,0,0,1-.6.6l.3.2a1.5,1.5,0,0,1,.4,1.2c0,.2-.1.3-.1.5a1,1,0,0,1-.4.5h.1a1.5,1.5,0,0,1,.4,1.2c0,.2-.1.3-.1.5a1.7,1.7,0,0,1-.6.6l.3.2a1.5,1.5,0,0,1,.4,1.2c0,.2-.1.3-.1.5l-.4.5h.1a1.5,1.5,0,0,1,.4,1.2h0V33a4.3,4.3,0,0,0-.1.5.1.1,0,0,0-.1.1h-.5a2.7,2.7,0,0,1,.8.7,1.1,1.1,0,0,1-.3,1.3,1,1,0,0,1-.4.5h.2a1.7,1.7,0,0,1,.4,1.2,4.3,4.3,0,0,1-.1.5,1.7,1.7,0,0,1-.6.6l.3.2a1.7,1.7,0,0,1,.4,1.2,4.3,4.3,0,0,1-.1.5v.2c0,.1-.1.1-.1.2s-.1.2-.2.3h.1a1.5,1.5,0,0,1,.4,1.2c0,.2-.1.3-.1.5a.1.1,0,0,0-.1.1c0,.1-.1.2-.1.3s-.1.2-.2.3h.1a1.5,1.5,0,0,1,.4,1.2c0,.2-.1.3-.1.5a.1.1,0,0,0-.1.1c0,.1-.1.2-.1.3s-.1.2-.2.3h.1a1.8,1.8,0,0,1,.4,1.3c0,.1-.1.3-.1.4s-.1.1-.1.2-.1.2-.1.3-.1.2-.2.3h.1a1.7,1.7,0,0,1,.4,1.2,4.3,4.3,0,0,1-.1.5c-.1.1-.1.1-.1.2s-.1.1-.1.2,0,.1-.1.2a1.6,1.6,0,0,1,.4,1.2c0,.1-.1.3-.1.4h-.1V53a.6.6,0,0,1-.1.4c0,.1,0,.1-.1.2a1.5,1.5,0,0,1,.4,1.1,4.3,4.3,0,0,1-.1.5h-.1a.9.9,0,0,1-.1.5.3.3,0,0,1-.1.2,1.7,1.7,0,0,1,.4,1.2c0,.2-.1.3-.1.5h-.1a.9.9,0,0,1-.1.5l-.3.5h0a1.2,1.2,0,0,1,.4,1.2.9.9,0,0,1-.1.5,1,1,0,0,1-.5.6l.2.2a1.2,1.2,0,0,1,.4,1.2.9.9,0,0,1-.1.5,1.2,1.2,0,0,1-.6.6l.3.3a1.2,1.2,0,0,1,.4,1.2,1.1,1.1,0,0,1-.1.5c-.1.3-.3.5-.5.5l.2.2a1.5,1.5,0,0,1,.4,1.3.6.6,0,0,1-.1.4.8.8,0,0,1-.7.7.5.5,0,0,1-.4-.2l-2.6-2.2h-.1c0-.1-.1-.2-.2-.3h0c0-.1-.1-.2-.1-.3h0a.6.6,0,0,1-.1-.4h0c0-.2.1-.3.1-.4h0v-.2l.6-.6-.2-.2h-.1a.2.2,0,0,0-.2-.2h0c0-.1-.1-.2-.1-.3h0c-.1-.1-.1-.2-.1-.4h0c0-.2.1-.3.1-.4h0v-.2a1.3,1.3,0,0,1,.7-.6l-.3-.3h-.1l-.2-.2h0c0-.1-.1-.2-.1-.3h0a.4.4,0,0,1-.1-.3h0c0-.1.1-.3.1-.4h0v-.2c.2-.3.4-.5.6-.5l-.2-.3h-.1l-.2-.2h0c0-.1-.1-.2-.1-.3h0a.4.4,0,0,1-.1-.3h0c0-.1.1-.3.1-.4h0v-.2l.2-.2h0a.3.3,0,0,0,.1-.2c0-.1-.1-.1-.2-.2h0c0-.1-.1-.2-.1-.3h0c-.1-.1-.1-.2-.1-.4h0c0-.1.1-.3.1-.4h0v-.2a.1.1,0,0,0,.1-.1.4.4,0,0,1,.1-.3h0c0-.1.1-.2.1-.3s-.1-.1-.2-.2h0c0-.1-.1-.2-.1-.3h0a.4.4,0,0,1-.1-.3h0c0-.1.1-.3.1-.4h0v-.2c.1,0,.1,0,.1-.1h0a.8.8,0,0,1,.1-.4h0c0-.1.1-.1.1-.2l-.2-.2h0c0-.1-.1-.3-.1-.4h0a.8.8,0,0,1-.1-.4h0c0-.1.1-.2.1-.4h.1a.8.8,0,0,1,.1-.4h0c0-.1.1-.1.1-.2s-.1-.1-.2-.2h0c0-.1-.1-.2-.1-.4h0a.6.6,0,0,1-.1-.4h0c0-.1.1-.2.1-.4h0a.3.3,0,0,0,.1-.2h.1c.1-.2.1-.3.2-.3h-.1c0-.1-.1-.1-.2-.2h0c0-.1-.1-.2-.1-.3h0c-.1-.1-.1-.2-.1-.4h0c0-.2.1-.3.1-.4h0V45c.1,0,.1-.1.1-.2h.1c.1-.1.1-.3.2-.3h-.1c0-.1-.1-.1-.2-.2h0c0-.1-.1-.2-.1-.3h0c-.1-.1-.1-.2-.1-.4h0c0-.1.1-.3.1-.4h0v-.2c.1,0,.1-.1.1-.2h.1v-.2h0l.2-.3h-.1l-.2-.2h0c0-.1-.1-.3-.1-.4h0a.8.8,0,0,1-.1-.4h0c0-.1.1-.2.1-.4h0a.3.3,0,0,0,.1-.2c0-.1,0-.1.1-.1h0v-.2l.2-.3h-.1l-.2-.3h0c0-.1-.1-.3-.1-.4h0a.8.8,0,0,1-.1-.4h0c0-.1.1-.2.1-.4h0a.3.3,0,0,0,.1-.2.1.1,0,0,1,.1-.1h0q.2-.6.6-.6l-.3-.2h0l-.3-.4h0a1.1,1.1,0,0,1,.4-1.7c0-.1,0-.1.1-.1h-.2l-.2-.3h0l-.2-.3h0v-.2h0c0-.2,0-.3.1-.4h0v-.2l.3-.5h0c-.1-.1-.1-.2-.2-.2h0l-.2-.3h0v-.4h0v-.2h0c0-.2,0-.3.1-.4h0v-.2a1,1,0,0,1,.4-.5h-.1l-.2-.2h0l-.2-.3h0v-.3h0a.6.6,0,0,1,.1-.4h0v-.2a.6.6,0,0,1,.6-.5l-.3-.3h0c-.1,0-.1-.1-.2-.2h0l-.2-.3h0v-.3h0a.6.6,0,0,1,.1-.4h0v-.2l.3-.4h0l-.2-.2h0l-.2-.3h0v-.4h0a.6.6,0,0,1,.1-.4h0v-.2a.9.9,0,0,1,.6-.6l-.3-.2h0l-.2-.2h0l-.2-.3h0v-.3h0a.6.6,0,0,1,.1-.4h0v-.2c.1-.3.3-.5.5-.5l-.2-.2h0l-.2-.3h0c-.1-.1-.1-.3-.2-.4h0v-.4h0a.8.8,0,0,1,.1-.4h0a.9.9,0,0,1,.6-.6l-.3-.2h0l-.2-.3h0c-.1-.1-.1-.2-.2-.4h0v-.4h0a.8.8,0,0,1,.1-.4h0a1,1,0,0,1,.5-.6l-.2-.2h0l-.2-.2h0l-.2-.3h0v-.4h0c0-.2,0-.3.1-.4h0v-.2a.9.9,0,0,1,.6-.6l-.3-.2h0l-.3-.4h0a1.2,1.2,0,0,1,.4-1.8h-.1l-.2-.2h0c-.1-.1-.1-.3-.2-.4h0V8.5h0a.8.8,0,0,1,.1-.4h0a.9.9,0,0,1,.6-.6l-.3-.2h0l-.2-.2h0c-.1-.1-.1-.3-.2-.4h0V6h0a.8.8,0,0,1,.1-.4h0c.2-.4.4-.6.7-.6m0-3a3.7,3.7,0,0,0-3.5,2.5c0,.1-.1.2-.1.3h0c0,.1-.1.2-.1.3s-.1.6-.1.9V6a3.4,3.4,0,0,0,.1,1v.2h.1c-.1.1-.1.1-.1.2a2.8,2.8,0,0,0-.1.9v.2a3.8,3.8,0,0,0,.1,1,1.4,1.4,0,0,0-.2.7,4.9,4.9,0,0,0,.2,2.1,3.1,3.1,0,0,0-.1,1h0a3.1,3.1,0,0,0,.1,1v.2h.1c-.1,0-.1,0-.1.1s-.1.6-.1.9v.2a3.4,3.4,0,0,0,.1,1v.2h.1c-.1.1-.1.1-.1.2a2.8,2.8,0,0,0-.1.9v.2a3.4,3.4,0,0,0,.1,1v.2h0c0,.3-.1.7-.1,1h0a4.1,4.1,0,0,0,.1,1.1v.2h.1c-.1.1-.1.1-.1.2a2.8,2.8,0,0,0-.1.9h0a3.1,3.1,0,0,0,.1,1v.2h0a2.8,2.8,0,0,0-.1.9h0a4.1,4.1,0,0,0,.1,1.1v.2h0c0,.3-.1.7-.1,1h0a3.1,3.1,0,0,0,.1,1v.2c0,.3-.1.6-.1,1h0v.2h0a3.1,3.1,0,0,0,.1,1h0a3.1,3.1,0,0,0-.1,1h0a1.9,1.9,0,0,0,.1.8,1.9,1.9,0,0,0-.2.7,3.7,3.7,0,0,0,.2,2.1v.2a.1.1,0,0,0-.1.1v.2a2.9,2.9,0,0,0-.2.9v.2c0,.3.1.7.1,1a.3.3,0,0,1,.1.2h0a3.6,3.6,0,0,0-.2,1v.2c0,.3.1.7.1,1a.3.3,0,0,1,.1.2h0a3,3,0,0,0-.2,1h0c0,.4.1.7.1,1s.1.2.1.3h0a3,3,0,0,0-.2,1h0c0,.4.1.7.1,1a.3.3,0,0,0,.1.2h0a2.9,2.9,0,0,0-.2.9v.2c0,.3.1.7.1,1a.3.3,0,0,0,.1.2h0v.2a2.9,2.9,0,0,0-.2.9v.2c0,.3.1.7.1,1v.2h0a3.6,3.6,0,0,0-.2,1h0c0,.4.1.7.1,1.1v.2h0a3,3,0,0,0-.2,1h0c0,.4.1.7.1,1s.1.1.1.2a2.4,2.4,0,0,0-.2.9h0c0,.4.1.7.1,1.1a.3.3,0,0,1,.1.2h0a3,3,0,0,0-.2,1h0c0,.4.1.7.1,1s.1.2.1.3h0v.2a3,3,0,0,0-.2,1h0c0,.4.1.7.1,1a.3.3,0,0,0,.1.2h0a3,3,0,0,0-.2,1h0c0,.3.1.7.1,1a.3.3,0,0,0,.1.2,3,3,0,0,0,.4,1v.3l.5.6.3.3,2.6,2.2a3.6,3.6,0,0,0,2.4.9,3.8,3.8,0,0,0,3.5-2.6,2.8,2.8,0,0,0,.3-1.3,4.3,4.3,0,0,0-.1-1.6c0-.3.1-.6.1-.9a5,5,0,0,0-.1-1.7c0-.2.1-.5.1-.8a4.7,4.7,0,0,0-.1-1.7c0-.3.1-.5.1-.8a3.5,3.5,0,0,0-.1-1.5v-.2a4.5,4.5,0,0,0,.3-1.1,4.7,4.7,0,0,0-.2-1.7c.1-.3.1-.6.2-.9a4.1,4.1,0,0,0-.2-1.6c.1-.3.1-.6.2-.9a7.6,7.6,0,0,0-.1-1.5,1.7,1.7,0,0,1,.1-.7,5,5,0,0,0-.2-1.7c.1-.2.1-.5.2-.8a4.1,4.1,0,0,0-.2-1.6c.1-.3.1-.6.2-.9a4.4,4.4,0,0,0-.2-1.6c.1-.3.1-.6.2-.9a4.4,4.4,0,0,0-.2-1.6c.1-.3.1-.5.2-.8a5,5,0,0,0-.2-1.7c.1-.2.1-.5.2-.8a7.6,7.6,0,0,0-.1-1.5,4.1,4.1,0,0,0,0-2.9c0-.1.1-.2.1-.3v-.5a3,3,0,0,0-.2-1.3c.1-.2.1-.5.2-.7a4.7,4.7,0,0,0-.2-1.7c.1-.3.1-.5.2-.8a7.1,7.1,0,0,0-.1-1.5,1.5,1.5,0,0,1,.1-.7,4.7,4.7,0,0,0-.2-1.7c.1-.3.1-.5.2-.8a4.7,4.7,0,0,0-.2-1.7c.1-.2.1-.5.2-.8a5,5,0,0,0-.2-1.7c.1-.2.1-.5.2-.8a4.1,4.1,0,0,0-.2-1.6c.1-.3.1-.6.2-.9a4.4,4.4,0,0,0-.2-1.6c.1-.3.1-.6.2-.8a7.6,7.6,0,0,0-.1-1.5,4.2,4.2,0,0,0,0-3.1c0-.1.1-.2.1-.4a4.7,4.7,0,0,0-1.5-3.8L17.5,2.6a4.1,4.1,0,0,0-2.4-.8Z" style="fill:#7c3505"/><path d="M15.6,13.6h-.3a4.4,4.4,0,0,1-1.6-.6,4.2,4.2,0,0,1-2.2-3.5,2.6,2.6,0,0,1-.7-1.6V7.7a1.7,1.7,0,0,1-.1-.7V6.5a.4.4,0,0,1,.1-.3,2.7,2.7,0,0,1,.9-2.7,7,7,0,0,1,4.9-2h1.3a5,5,0,0,1,2.8,1.7l.6,1.1a1.4,1.4,0,0,0,.2.6A22.1,22.1,0,0,1,22,7.5a5.3,5.3,0,0,1,.6,2.4c0,.3-.1.6-.1.9a2.8,2.8,0,0,1-.9,1.6,1.9,1.9,0,0,1-1.3.5h0l-1,.4h-.8l-.9-.3-.4.2A3.4,3.4,0,0,1,15.6,13.6Z" style="fill:#e0a070"/><path d="M16.6,3h1a3.3,3.3,0,0,1,1.9,1.1,2,2,0,0,1,.4.8c0,.1.1.3.1.4A12.2,12.2,0,0,1,20.6,8h0a3.7,3.7,0,0,1,.5,1.8,1.3,1.3,0,0,1-.1.6.7.7,0,0,1-.4.7l-.3.2h-.4a1,1,0,0,1-.8.5h-.4a1.1,1.1,0,0,1-.8-.8h-.1a.9.9,0,0,1-.6.4l-.7.3-.9.3h-.2a2.5,2.5,0,0,1-.9-.4,2.6,2.6,0,0,1-1.4-2.9l-.4-.2a1.2,1.2,0,0,1-.4-.9h0a1.3,1.3,0,0,1-.1-.6V6.4h0a.4.4,0,0,0,.1-.3c-.3-.5.1-1.2.5-1.5A5.5,5.5,0,0,1,16.6,3m0-3a8.5,8.5,0,0,0-5.9,2.4A4.4,4.4,0,0,0,9.2,6.3v.2h0V7a2.8,2.8,0,0,0,.1.9v.3A4.8,4.8,0,0,0,10,10a5.8,5.8,0,0,0,2.9,4.3,6.5,6.5,0,0,0,2.2.8h.5a6.3,6.3,0,0,0,2.1-.5l.6.2h1.2l1.3-.4a3.8,3.8,0,0,0,1.8-.9A4.2,4.2,0,0,0,24,11.1c0-.4.1-.8.1-1.2a7.1,7.1,0,0,0-.6-2.8,12.2,12.2,0,0,0-.6-2.6c-.1-.2-.1-.4-.2-.6a7.1,7.1,0,0,0-.8-1.5A5.8,5.8,0,0,0,18.2.2L16.6,0Z" style="fill:#7c3505"/><path d="M14.4,74.4H14a4.7,4.7,0,0,1-2-.8,5.4,5.4,0,0,1-2.9-4.8,3.8,3.8,0,0,1-1-2.2,1.5,1.5,0,0,1-.1-.7V64.4a9,9,0,0,1,.8-2.8c.9-2,3.7-2.3,4.5-2.3h.3a3.2,3.2,0,0,1,1.4.3l.5.3h1.3L19,60a3.7,3.7,0,0,1,2.7,1.2,3.7,3.7,0,0,1,.7,1.4,26.2,26.2,0,0,1,.9,3.8,6.4,6.4,0,0,1,.7,3.3,4.9,4.9,0,0,1-.1,1.2,2.9,2.9,0,0,1-1,1.9,2.3,2.3,0,0,1-1.6.6h-.1a3,3,0,0,1-1.8.6h-.5a3.5,3.5,0,0,1-1.4-.6l-1,.5A5.8,5.8,0,0,1,14.4,74.4Z" style="fill:#e0a070"/><path d="M13.6,60.8h.8l.7.6,1.2-.2h.5l2,.2a2.3,2.3,0,0,1,1.8.7,2.5,2.5,0,0,1,.4.9,16.1,16.1,0,0,1,.8,3.8h.1a5.1,5.1,0,0,1,.6,2.7,2.8,2.8,0,0,1-.1.9,1.6,1.6,0,0,1-.5,1.1l-.6.2c-.2,0-.4,0-.5-.2a1.7,1.7,0,0,1-1.4.8h-.3a1.8,1.8,0,0,1-1.3-1.2h-.1a1.6,1.6,0,0,1-.8.6l-1,.5a4.2,4.2,0,0,1-1.5.4h-.2l-1.4-.5a4,4,0,0,1-2.1-4.3,1,1,0,0,1-.5-.4,1.6,1.6,0,0,1-.6-1.3,1.3,1.3,0,0,1-.1-.6h0V64.5h0a6.2,6.2,0,0,1,.7-2.3c.5-1,2.2-1.3,3.2-1.4h.2m0-3h-.4c-1,.1-4.4.4-5.7,3.1A8.5,8.5,0,0,0,6.6,64H6.5V65h0v1c0,.3.1.5.1.8a5.3,5.3,0,0,0,1,2.4,7.2,7.2,0,0,0,3.6,5.6,6,6,0,0,0,2.7,1h.5a6.6,6.6,0,0,0,2.7-.6l.4-.2,1.2.4h.7a4.6,4.6,0,0,0,2.3-.6,3.7,3.7,0,0,0,2.2-1,4.8,4.8,0,0,0,1.5-2.7,7.6,7.6,0,0,0,.1-1.5,6.7,6.7,0,0,0-.8-3.7,23.3,23.3,0,0,0-.8-3.8,6,6,0,0,0-1-2,5.7,5.7,0,0,0-3.7-1.7l-2.4-.2h-.9l-.3-.2a4.5,4.5,0,0,0-2-.4Z" style="fill:#7c3505"/><path d="M79.4,87.4h-.2l-3.7-.5a1.4,1.4,0,0,1-1.2-.9h-1l-.8-.2H72l-.4-.2h-.1a2.1,2.1,0,0,1-1.3.5l-1-.2L67,85a2.9,2.9,0,0,1-1.1-.8,2.1,2.1,0,0,1-.3-1.2v-.3a2.6,2.6,0,0,1-1.2-1.6,3.4,3.4,0,0,1-.1-.9,50.1,50.1,0,0,1,1-6.6A16.1,16.1,0,0,1,67,69.5a.8.8,0,0,1,.2-.4c1.6-2.5,3.3-3.1,4.5-3.1h1.1a4.1,4.1,0,0,1,1.6.3,4.8,4.8,0,0,1,2,2,16.9,16.9,0,0,1,1.3,2.7,25,25,0,0,1,2.4,7.3,34.4,34.4,0,0,1,.5,4.5l.2,2.9a1.4,1.4,0,0,1-.4,1.2A1.4,1.4,0,0,1,79.4,87.4Z" style="fill:#ffdeae"/><path d="M71.7,67.5h1.1a1.5,1.5,0,0,1,.9.2,3.2,3.2,0,0,1,1.4,1.4,12.3,12.3,0,0,1,1.2,2.6,22.8,22.8,0,0,1,2.3,6.8,32.9,32.9,0,0,1,.5,4.4l.3,2.9-3.7-.5a5.2,5.2,0,0,0-.2-1.1H73.6l-1.3-.3c-.2-1.3.1-9.4-.2-12.1-.1,1.3-1.1,10.8-1.4,12l-.2.4h-.7l-2.2-.9-.4-.2a.8.8,0,0,1-.1-.4V80.8l-.3.8a1.4,1.4,0,0,1-1-.8v-.5a34.4,34.4,0,0,1,1-6.3,12.4,12.4,0,0,1,1.5-3.8c0-.1.1-.2.1-.3s2-2.4,3.3-2.4m0-3h0c-1.6,0-3.8.7-5.8,3.8l-.3.5a20.3,20.3,0,0,0-1.7,4.4,41,41,0,0,0-1,6.9,2.7,2.7,0,0,0,0,1.3,4.5,4.5,0,0,0,1.2,2.1,5.1,5.1,0,0,0,.6,1.5,3.6,3.6,0,0,0,1.7,1.4l2.3.9a4,4,0,0,0,1.5.3,4.7,4.7,0,0,0,1.7-.4H72l1.1.3h.5a2.6,2.6,0,0,0,1.7.9l3.7.5h.4a3,3,0,0,0,2-.8,2.7,2.7,0,0,0,.9-2.4V82.8a39.6,39.6,0,0,0-.5-4.7A27.4,27.4,0,0,0,79,70.5a15.5,15.5,0,0,0-1.4-2.9,6,6,0,0,0-2.5-2.5,4.6,4.6,0,0,0-2.3-.5H71.7Z" style="fill:#7c3505"/><path d="M74.2,70.3a2,2,0,0,1-1.4-.6l-2.6-2.1-.2-.2-.4-.5h0l-.3-.7h0a1.5,1.5,0,0,1-.1-.7h0c0-.2.1-.5.1-.7h.1v-.2a.1.1,0,0,1,.1-.1l-.2-.5h0a1.5,1.5,0,0,1-.1-.7h0c0-.2.1-.4.1-.7a.1.1,0,0,1,.1-.1v-.2c0-.1.1-.1.1-.2s-.1-.3-.2-.4v-.2a1.3,1.3,0,0,1-.1-.6v-.2c0-.2.1-.4.1-.6s0-.2.1-.2v-.2h.1c-.1-.1-.1-.3-.2-.4v-.2a1.3,1.3,0,0,1-.1-.6v-.2c0-.2.1-.4.1-.6s0-.1.1-.2h0c0-.1-.1-.2-.1-.3v-.2a1.5,1.5,0,0,1-.1-.7h0c0-.2.1-.4.1-.6v-.2h0v-.2h.1c-.1-.2-.1-.3-.2-.4v-.2a1.3,1.3,0,0,1-.1-.6v-.2c0-.2.1-.4.1-.6v-.2h0v-.2a.6.6,0,0,0-.1-.4h0a1.7,1.7,0,0,1-.1-.7h0c0-.2.1-.5.1-.7v-.2h0v-.2a.6.6,0,0,0-.1-.4h0a1.7,1.7,0,0,1-.1-.7h0c0-.2.1-.5.1-.7v-.4h.1l-.2-.5h0a1.5,1.5,0,0,1-.1-.7h0c0-.2.1-.4.1-.6s0-.2.1-.2h0v-.2h.1c-.1-.1-.1-.3-.2-.4v-.2a1.5,1.5,0,0,1-.1-.7h0c0-.2.1-.4.1-.6s0-.1.1-.2h0V42h.1c-.1-.1-.1-.3-.2-.4h0a2,2,0,0,1-.1-.7h0c0-.3.1-.5.1-.7s0-.1.1-.2v-.2a.1.1,0,0,0,.1-.1l-.2-.4h0a1.7,1.7,0,0,1-.1-.7h0c0-.3.1-.5.1-.7s0-.1.1-.2V37c.1,0,.1-.2.1-.2s.1-.1.1-.2h0a2.9,2.9,0,0,1-.3-1.8,1.6,1.6,0,0,1,.3-.9.4.4,0,0,1-.1-.3h0a1.3,1.3,0,0,1-.1-.6h0a1.7,1.7,0,0,1,.1-.7h0c0-.1.1-.1.1-.2a.4.4,0,0,1-.1-.3h-.1v-.7h0v-.2h0a2,2,0,0,1,.1-.7h0v-.2a.4.4,0,0,1-.1-.3V28h0a1.3,1.3,0,0,1,.1-.6v-.2c0-.1.1-.1.1-.2h0c0-.1-.1-.3-.1-.4v-.9h0a1.3,1.3,0,0,1,.1-.6v-.2h.1a.4.4,0,0,1-.1-.3v-.9h0a1.3,1.3,0,0,1,.1-.6v-.2h0c0-.1.1-.1.1-.2h0c0-.1-.1-.3-.1-.4v-.9h0a1.3,1.3,0,0,1,.1-.6v-.2c0-.1.1-.1.1-.2h0c0-.1-.1-.2-.1-.4h-.1v-.7h0a1.5,1.5,0,0,1,.1-.7v-.2a.3.3,0,0,0,.1-.2h0c0-.2-.1-.3-.1-.5h-.1v-.7h0a1.7,1.7,0,0,1,.1-.7v-.2a.3.3,0,0,0,.1-.2h0c0-.2-.1-.3-.1-.4s0-.2-.1-.2v-.7h0a1.3,1.3,0,0,1,.1-.6v-.4h0a2.7,2.7,0,0,1-.3-1.8,1.1,1.1,0,0,1,.3-.8.4.4,0,0,1-.1-.3h-.1V8.3a1.3,1.3,0,0,1,.1-.6V7.5a.3.3,0,0,0,.1-.2h0c0-.1-.1-.2-.1-.4h-.1V6h0a1.5,1.5,0,0,1,.1-.7V5a.3.3,0,0,0,.1-.2,2.4,2.4,0,0,1,2.1-1.5,1.9,1.9,0,0,1,1.4.5L75.7,6a3,3,0,0,1,1,2.5c-.1.2-.1.5-.2.7h.1a2.9,2.9,0,0,1-.2,2.7,3.2,3.2,0,0,1,.3,1.4c-.1.3-.1.6-.2.9h-.1a4,4,0,0,1,.3,1.5c-.1.3-.1.6-.2.9h-.1a3.7,3.7,0,0,1,.3,1.5,3.2,3.2,0,0,1-.3.9h0a3.3,3.3,0,0,1,.3,1.5,3.2,3.2,0,0,1-.3.9h0a4,4,0,0,1,.3,1.5,6.4,6.4,0,0,1-.2.9h-.1a4,4,0,0,1,.3,1.5c-.1.3-.1.6-.2.9a5.9,5.9,0,0,1,.2,1.3,6.4,6.4,0,0,1-.2.9h-.1a4,4,0,0,1,.3,1.5c-.1.3-.1.6-.2.9a5.9,5.9,0,0,1,.2,1.3v.4a1.1,1.1,0,0,0-.1.5h0a2.7,2.7,0,0,1-.2,2.6,3.7,3.7,0,0,1,.3,1.5c-.1.3-.1.6-.2.9h-.1a4.1,4.1,0,0,1,.3,1.6c-.1.3-.1.6-.2.9h-.1a4,4,0,0,1,.3,1.5,3.2,3.2,0,0,1-.3.9h0a4,4,0,0,1,.3,1.5,3.2,3.2,0,0,1-.3.9h0a3.7,3.7,0,0,1,.3,1.5,3.2,3.2,0,0,1-.3.9h0a3.3,3.3,0,0,1,.3,1.5c-.1.3-.1.5-.2.8a5.9,5.9,0,0,1,.2,1.4c-.1.3-.1.5-.2.8v.2a4,4,0,0,1,.3,1.5c-.1.3-.1.5-.2.8a.4.4,0,0,1-.1.3,3.3,3.3,0,0,1,.3,1.5c-.1.2-.1.5-.2.8s-.1.4-.2.6a3.2,3.2,0,0,1,.2,1.4,1.9,1.9,0,0,1-.2.8h0a3.9,3.9,0,0,1,.2,1.5,2.4,2.4,0,0,1-.2.9c0,.1,0,.1-.1.1a3,3,0,0,1,.3,1.6,2.9,2.9,0,0,1-.2.9h0a3.6,3.6,0,0,1,.2,1.5,2.9,2.9,0,0,1-.2.9,2.3,2.3,0,0,1-2.1,1.6Z" style="fill:#ffdeae"/><path d="M71.7,4.8h.4l2.6,2.2a1.9,1.9,0,0,1,.5,1.3.6.6,0,0,0-.1.4,1.7,1.7,0,0,1-.6.6h0a1.1,1.1,0,0,1,.7.6,1.2,1.2,0,0,1-.2,1.4,1,1,0,0,1-.4.5h.1a1.5,1.5,0,0,1,.5,1.2.9.9,0,0,0-.1.5,1.7,1.7,0,0,1-.6.6l.2.2a1.5,1.5,0,0,1,.5,1.2.9.9,0,0,0-.1.5c-.2.3-.4.5-.6.5l.2.2a1.9,1.9,0,0,1,.5,1.3.6.6,0,0,0-.1.4,1.7,1.7,0,0,1-.6.6l.2.2a1.9,1.9,0,0,1,.5,1.3.6.6,0,0,0-.1.4,1.7,1.7,0,0,1-.6.6l.2.2a1.5,1.5,0,0,1,.5,1.2.9.9,0,0,0-.1.5,1.7,1.7,0,0,1-.6.6l.2.2a1.5,1.5,0,0,1,.5,1.2.9.9,0,0,0-.1.5l-.4.5h0a1.5,1.5,0,0,1,.5,1.2.9.9,0,0,0-.1.5,1.7,1.7,0,0,1-.6.6l.2.2a1.5,1.5,0,0,1,.5,1.2.9.9,0,0,0-.1.5l-.4.5h0a1.5,1.5,0,0,1,.5,1.2h0V33a.7.7,0,0,0-.1.5c-.1,0-.1,0-.1.1h-.5a1.6,1.6,0,0,1,.7.7,1.1,1.1,0,0,1-.2,1.3,1,1,0,0,1-.4.5h.1a1.8,1.8,0,0,1,.5,1.2,1.1,1.1,0,0,0-.1.5,1.7,1.7,0,0,1-.6.6l.2.2a1.8,1.8,0,0,1,.5,1.2,1.1,1.1,0,0,0-.1.5v.2c0,.1-.1.1-.1.2l-.2.3h0a1.5,1.5,0,0,1,.5,1.2.9.9,0,0,0-.1.5.1.1,0,0,0-.1.1c0,.1-.1.2-.1.3l-.2.3h0a1.5,1.5,0,0,1,.5,1.2.9.9,0,0,0-.1.5.1.1,0,0,0-.1.1c0,.1-.1.2-.1.3l-.2.3h0a1.9,1.9,0,0,1,.5,1.3.6.6,0,0,0-.1.4c-.1.1-.1.1-.1.2s-.1.2-.1.3l-.2.3h0a1.8,1.8,0,0,1,.5,1.2,1.1,1.1,0,0,0-.1.5c-.1.1-.1.1-.1.2s-.1.1-.1.2-.1.1-.1.2a1.6,1.6,0,0,1,.4,1.2.6.6,0,0,0-.1.4H75V53a.6.6,0,0,1-.1.4c0,.1-.1.1-.1.2a1.5,1.5,0,0,1,.4,1.1,1.1,1.1,0,0,0-.1.5H75a.9.9,0,0,1-.1.5.3.3,0,0,1-.1.2,1.7,1.7,0,0,1,.4,1.2.9.9,0,0,0-.1.5.1.1,0,0,0-.1.1h0a.9.9,0,0,1-.1.5,1,1,0,0,1-.4.5h.1a1.5,1.5,0,0,1,.4,1.2,1.2,1.2,0,0,1-.7,1.1l.3.2a1.5,1.5,0,0,1,.4,1.2.9.9,0,0,1-.1.5,1.2,1.2,0,0,1-.6.6l.3.3a1.5,1.5,0,0,1,.4,1.2,1.1,1.1,0,0,1-.1.5.6.6,0,0,1-.6.5l.3.2a1.8,1.8,0,0,1,.4,1.3.6.6,0,0,1-.1.4c-.2.4-.4.7-.7.7l-.5-.2-2.6-2.2h0l-.2-.3h0a.4.4,0,0,1-.1-.3h0a.6.6,0,0,1-.1-.4h0c0-.2,0-.3.1-.4h0v-.2l.6-.6-.3-.2h0l-.2-.2h0a.4.4,0,0,1-.1-.3h0c-.1-.1-.1-.2-.1-.4h0c0-.2,0-.3.1-.4h0v-.2a1.3,1.3,0,0,1,.7-.6l-.4-.3h0l-.2-.2h0a.4.4,0,0,1-.1-.3h0a.4.4,0,0,1-.1-.3h0a.6.6,0,0,1,.1-.4h0v-.2c.2-.3.4-.5.6-.5l-.3-.3h0l-.2-.2h0a.4.4,0,0,1-.1-.3h0a.4.4,0,0,1-.1-.3h0a.6.6,0,0,1,.1-.4h0v-.2l.2-.2h0a.3.3,0,0,0,.1-.2l-.2-.2h0a.4.4,0,0,1-.1-.3h0c-.1-.1-.1-.2-.1-.4h0a.6.6,0,0,1,.1-.4h0v-.2h.1v-.3H71c0-.1.1-.2.1-.3l-.2-.2h0a.4.4,0,0,1-.1-.3h0a.4.4,0,0,1-.1-.3h0a.6.6,0,0,1,.1-.4h0v-.2a.1.1,0,0,0,.1-.1h0v-.4h0a.1.1,0,0,0,.1-.1v-.2l-.2-.2h0a.6.6,0,0,1-.1-.4h0a.8.8,0,0,1-.1-.4h0a.8.8,0,0,1,.1-.4h0a.1.1,0,0,1,.1-.1h0v-.4h0a.1.1,0,0,0,.1-.1v-.2c-.1,0-.1-.1-.2-.2h0c-.1-.1-.1-.2-.1-.4h0a.6.6,0,0,1-.1-.4h0a.8.8,0,0,1,.1-.4h0a.3.3,0,0,0,.1-.2h0a.1.1,0,0,0,.1-.1c0-.2.1-.3.2-.3h-.1l-.2-.2h0a.4.4,0,0,1-.1-.3h0c-.1-.1-.1-.2-.1-.4h0c0-.2,0-.3.1-.4h0V45c.1,0,.1-.1.1-.2h0a.1.1,0,0,0,.1-.1c0-.1.1-.3.2-.3h-.1l-.2-.2h0a.4.4,0,0,1-.1-.3h0c-.1-.1-.1-.2-.1-.4h0a.6.6,0,0,1,.1-.4h0v-.2c.1,0,.1-.1.1-.2h0c.1-.1.1-.1.1-.2h0c0-.1.1-.2.2-.3h-.1c-.1,0-.1-.1-.2-.2h0a.6.6,0,0,1-.1-.4h0a.8.8,0,0,1-.1-.4h0a.8.8,0,0,1,.1-.4h0a.3.3,0,0,0,.1-.2h0c.1-.1.1-.1.1-.2s.1-.2.2-.3h-.1l-.2-.3h0a.6.6,0,0,1-.1-.4h0a.8.8,0,0,1-.1-.4h0a.8.8,0,0,1,.1-.4h0a.3.3,0,0,0,.1-.2H71c.1-.4.3-.6.5-.6l-.2-.2h0c-.2-.1-.2-.2-.3-.4h-.1a1.2,1.2,0,0,1,.5-1.7h-.1c-.1-.1-.2-.2-.2-.3h0l-.2-.3h0v-.2h0v-.4h0v-.2l.3-.5h0l-.2-.2h0l-.2-.3h0v-.4h0v-.2h0v-.4h0c.1-.1.1-.1.1-.2a1,1,0,0,1,.4-.5h-.1c-.1-.1-.2-.1-.2-.2h0l-.2-.3h0v-.3h0v-.4h0c.1-.1.1-.1.1-.2s.3-.5.5-.5l-.2-.3h0a.2.2,0,0,1-.2-.2h0l-.2-.3h0v-.3h0v-.4h0c.1-.1.1-.1.1-.2l.3-.4h0c-.1-.1-.2-.1-.2-.2h0l-.2-.3h0v-.4h0v-.4h0c.1-.1.1-.1.1-.2a1,1,0,0,1,.5-.6l-.2-.2h0c-.1-.1-.2-.1-.2-.2h0l-.2-.3h0v-.3h0v-.4h0c.1-.1.1-.1.1-.2s.3-.5.5-.5l-.2-.2h0c-.1-.1-.2-.2-.2-.3h0c-.1-.1-.1-.3-.2-.4h0v-.4h0v-.4H71a1,1,0,0,1,.5-.6l-.2-.2h0c-.1-.1-.2-.2-.2-.3h0c-.1-.1-.1-.2-.2-.4h0v-.4h0v-.4H71a1,1,0,0,1,.5-.6l-.2-.2h0l-.2-.2h0l-.2-.3h0v-.4h0V13h0v-.2a1,1,0,0,1,.5-.6l-.2-.2h0c-.2-.1-.2-.3-.3-.4h-.1a1.3,1.3,0,0,1,.5-1.8h-.1l-.2-.2h0c-.1-.1-.1-.3-.2-.4h0V8.5h0V8H71a1,1,0,0,1,.5-.6l-.2-.2h0a.2.2,0,0,1-.2-.2h0c-.1-.1-.1-.3-.2-.4h0V6h0V5.5H71a.7.7,0,0,1,.7-.6m0-3a3.7,3.7,0,0,0-3.5,2.5c0,.1-.1.2-.1.3h0c-.1.1-.1.1-.1.2a2.8,2.8,0,0,0-.1.9V6A3.4,3.4,0,0,0,68,7v.2h0v.2a2.8,2.8,0,0,0-.1.9v.2a3.8,3.8,0,0,0,.1,1,1.4,1.4,0,0,0-.2.7,3.7,3.7,0,0,0,.2,2.1h0a2.8,2.8,0,0,0-.1.9h0a3.1,3.1,0,0,0,.1,1v.2h0a2.8,2.8,0,0,0-.1.9v.2a3.4,3.4,0,0,0,.1,1v.2h0v.2a2.8,2.8,0,0,0-.1.9v.2a3.4,3.4,0,0,0,.1,1v.2h0v.2a2.8,2.8,0,0,0-.1.9h0a4.1,4.1,0,0,0,.1,1.1v.2h0v.2a2.8,2.8,0,0,0-.1.9h0a3.1,3.1,0,0,0,.1,1v.2h0a2.8,2.8,0,0,0-.1.9h0a4.1,4.1,0,0,0,.1,1.1v.2h0V27a2.8,2.8,0,0,0-.1.9h0a3.1,3.1,0,0,0,.1,1v.2h0a3.8,3.8,0,0,0-.1,1h0v.2h0a3.1,3.1,0,0,0,.1,1h0a3.1,3.1,0,0,0-.1,1h0a1.9,1.9,0,0,0,.1.8,1.9,1.9,0,0,0-.2.7,3.7,3.7,0,0,0,.2,2.1c0,.1,0,.1-.1.2h0c0,.1,0,.1-.1.2s-.1.6-.1.9v.2c0,.3.1.7.1,1a.3.3,0,0,1,.1.2h0c0,.1,0,.1-.1.2s-.1.6-.1.9v.2c0,.3.1.7.1,1a.3.3,0,0,1,.1.2h0c0,.1,0,.1-.1.2s-.1.6-.1.9h0c0,.4.1.7.1,1s.1.2.1.3h0a.3.3,0,0,1-.1.2c0,.3-.1.6-.1.9h0c0,.4.1.7.1,1a.3.3,0,0,0,.1.2h0a.1.1,0,0,1-.1.1c0,.3-.1.6-.1.9v.2c0,.3.1.7.1,1a.3.3,0,0,0,.1.2h0c0,.1,0,.2-.1.2s-.1.6-.1.9v.2c0,.3.1.7.1,1v.2h0c0,.1,0,.1-.1.2s-.1.6-.1.9h0c0,.4.1.7.1,1.1v.2h0c0,.1,0,.1-.1.2s-.1.6-.1.9h0c0,.4.1.7.1,1v.2h0c0,.3-.1.6-.1.9h0c0,.4.1.7.1,1.1a.3.3,0,0,1,.1.2h0c0,.1,0,.1-.1.2s-.1.6-.1.9h0c0,.4.1.7.1,1s.1.2.1.3h0c0,.1,0,.2-.1.2s-.1.7-.1,1h0c0,.4.1.7.1,1a.3.3,0,0,0,.1.2h0a.1.1,0,0,1-.1.1c0,.3-.1.6-.1,1h0c0,.4.1.7.1,1a.3.3,0,0,0,.1.2l.3,1c.1.1.1.2.2.2l.5.7.3.3,2.6,2.2a3.6,3.6,0,0,0,2.4.9,3.8,3.8,0,0,0,3.5-2.6,2.8,2.8,0,0,0,.3-1.3,4.4,4.4,0,0,0-.2-1.6,2.9,2.9,0,0,0,.2-.9,5,5,0,0,0-.2-1.7,1.9,1.9,0,0,0,.2-.8,4.7,4.7,0,0,0-.2-1.7,2.4,2.4,0,0,0,.2-.8,6.6,6.6,0,0,0-.1-1.5v-.2l.3-1.1a8.8,8.8,0,0,0-.2-1.7c.1-.3.1-.6.2-.9a7.8,7.8,0,0,0-.2-1.6c.1-.3.1-.6.2-.9A3.9,3.9,0,0,0,78,51c.1-.2.1-.5.2-.7a9.9,9.9,0,0,0-.2-1.7c.1-.2.1-.5.2-.8a7.8,7.8,0,0,0-.2-1.6c.1-.3.1-.6.2-.9a8.8,8.8,0,0,0-.2-1.6c.1-.3.1-.6.2-.9a8.8,8.8,0,0,0-.2-1.6c.1-.3.1-.5.2-.8a9.9,9.9,0,0,0-.2-1.7c.1-.2.1-.5.2-.8a7.6,7.6,0,0,0-.1-1.5,4.1,4.1,0,0,0,0-2.9.4.4,0,0,1,.1-.3v-.5a5.9,5.9,0,0,0-.2-1.3c.1-.2.1-.5.2-.7A8.8,8.8,0,0,0,78,29c.1-.3.1-.5.2-.8a3.6,3.6,0,0,0-.2-1.5,6.4,6.4,0,0,1,.2-.7,8.8,8.8,0,0,0-.2-1.7c.1-.3.1-.6.2-.8a8.8,8.8,0,0,0-.2-1.7c.1-.2.1-.5.2-.8a9.9,9.9,0,0,0-.2-1.7c.1-.2.1-.5.2-.8a7.8,7.8,0,0,0-.2-1.6c.1-.3.1-.6.2-.9a8.8,8.8,0,0,0-.2-1.6c.1-.3.1-.6.2-.8a7.6,7.6,0,0,0-.1-1.5,4.7,4.7,0,0,0,0-3.1.8.8,0,0,1,.1-.4,4.7,4.7,0,0,0-1.5-3.8L74.1,2.6a4.1,4.1,0,0,0-2.4-.8Z" style="fill:#7c3505"/><path d="M72.1,13.6h-.3a4.7,4.7,0,0,1-1.5-.6,4.2,4.2,0,0,1-2.2-3.5,2.6,2.6,0,0,1-.7-1.6.3.3,0,0,0-.1-.2V6.2a3,3,0,0,1,1-2.7,7,7,0,0,1,4.9-2h1.3a5,5,0,0,1,2.8,1.7c.3.4.4.8.6,1.1a1.4,1.4,0,0,0,.2.6,22.1,22.1,0,0,1,.5,2.5,5.3,5.3,0,0,1,.6,2.4c0,.3-.1.6-.1.9a3.5,3.5,0,0,1-.9,1.6,1.9,1.9,0,0,1-1.3.5h0l-1,.4h-.8l-.9-.3-.5.2A2.9,2.9,0,0,1,72.1,13.6Z" style="fill:#e0a070"/><path d="M73.2,3h1a3.7,3.7,0,0,1,1.9,1.1,5.9,5.9,0,0,1,.4.8c0,.1.1.3.1.4A12.2,12.2,0,0,1,77.2,8h0a3.7,3.7,0,0,1,.5,1.8c0,.2-.1.4-.1.6s-.2.6-.4.7l-.4.2h-.3a1,1,0,0,1-.8.5h-.4a1.4,1.4,0,0,1-.9-.8h0l-.6.4-.7.3a1.7,1.7,0,0,1-1,.3H72l-1-.4a2.8,2.8,0,0,1-1.4-2.9l-.3-.2a2,2,0,0,1-.5-.9h.1a1.3,1.3,0,0,1-.1-.6V6.4h0c0-.1.1-.2.1-.3a1.2,1.2,0,0,1,.4-1.5A5.9,5.9,0,0,1,73.2,3m0-3a8.9,8.9,0,0,0-6,2.4,4.6,4.6,0,0,0-1.4,3.9v.2h0V7a2.8,2.8,0,0,0,.1.9v.3a4.8,4.8,0,0,0,.7,1.8,5.8,5.8,0,0,0,2.9,4.3,6.5,6.5,0,0,0,2.2.8h.4a5.4,5.4,0,0,0,2.1-.5l.7.2h1.2l1.3-.4a3.8,3.8,0,0,0,1.8-.9,4.1,4.1,0,0,0,1.3-2.4,5,5,0,0,0,.2-1.2,7.1,7.1,0,0,0-.6-2.8,24.4,24.4,0,0,0-.6-2.6l-.3-.6a6.9,6.9,0,0,0-.7-1.5A5.8,5.8,0,0,0,74.8.2L73.2,0Z" style="fill:#7c3505"/><path d="M71,74.4h-.4a4.7,4.7,0,0,1-2-.8,5.4,5.4,0,0,1-2.9-4.8,3.8,3.8,0,0,1-1-2.2,1.5,1.5,0,0,1-.1-.7h0V64.4h0a9.2,9.2,0,0,1,.8-2.7c.9-2,3.7-2.3,4.5-2.3h.3a3.2,3.2,0,0,1,1.4.3l.5.3h1.3l2.2.2a3.7,3.7,0,0,1,2.7,1.2,3.7,3.7,0,0,1,.7,1.4,17.2,17.2,0,0,1,.8,3.8,6.4,6.4,0,0,1,.8,3.3,4.9,4.9,0,0,1-.1,1.2,3.5,3.5,0,0,1-1,1.9,2.5,2.5,0,0,1-1.6.6h-.1A3,3,0,0,1,76,74h-.5a3.5,3.5,0,0,1-1.4-.6l-1,.5A6.3,6.3,0,0,1,71,74.4Z" style="fill:#e0a070"/><path d="M70.2,60.8H71c.2.2.5.4.6.6l1.2-.2h.6l2,.2a2.3,2.3,0,0,1,1.8.7,2.5,2.5,0,0,1,.4.9,16.1,16.1,0,0,1,.8,3.8h.1a6.3,6.3,0,0,1,.6,2.7,2.8,2.8,0,0,1-.1.9,1.6,1.6,0,0,1-.5,1.1l-.6.2c-.2,0-.4,0-.5-.2a1.7,1.7,0,0,1-1.4.8h-.3a1.8,1.8,0,0,1-1.3-1.2h-.1a1.5,1.5,0,0,1-.9.6l-1,.5a3.3,3.3,0,0,1-1.4.4h-.2l-1.4-.5a4,4,0,0,1-2.1-4.3l-.6-.4a2.6,2.6,0,0,1-.6-1.3v-.6h0a.9.9,0,0,0-.1-.5.3.3,0,0,0,.1-.2v-.6h0a6.2,6.2,0,0,1,.7-2.3c.4-1,2.1-1.3,3.2-1.4h.2m0-3h-.4c-1,.1-4.5.4-5.8,3.1a15.8,15.8,0,0,0-.9,3.1h0V65h0c0,.1-.1.2,0,.3v.7a2.2,2.2,0,0,0,.1.8,5.3,5.3,0,0,0,1,2.4,7,7,0,0,0,3.6,5.6,6,6,0,0,0,2.7,1H71a7,7,0,0,0,2.7-.6l.3-.2,1.2.4H76a4.6,4.6,0,0,0,2.3-.6,3.7,3.7,0,0,0,2.2-1A5.5,5.5,0,0,0,82,71.2a7.6,7.6,0,0,0,.1-1.5,6.7,6.7,0,0,0-.8-3.7,23.3,23.3,0,0,0-.8-3.8,9.1,9.1,0,0,0-1-2,5.9,5.9,0,0,0-3.7-1.7l-2.4-.2h-.7c0,.1-.1.1-.2.1l-.3-.2a4.5,4.5,0,0,0-2-.4Z" style="fill:#7c3505"/><path d="M5.1,63.7a3.5,3.5,0,0,1-3.6-3.3V57.7a3.7,3.7,0,0,1,.7-2l.3-.3.4-.3,2.9-2.5a7,7,0,0,1,4.8-2.1l33.7.3L78,50.5a7,7,0,0,1,4.8,2.1l2.9,2.5.5.4h.1a3.2,3.2,0,0,1,.8,2.1v2.7a3.5,3.5,0,0,1-3.6,3.3Z" style="fill:#e0a070"/><path d="M78,52a5.4,5.4,0,0,1,3.8,1.7l3,2.5.3.3h.1a2.1,2.1,0,0,1,.4,1.1v2.7a1.9,1.9,0,0,1-2.1,1.8H5.1A1.9,1.9,0,0,1,3,60.4V57.7a2.1,2.1,0,0,1,.4-1.1h.1l.3-.3L6.4,54h0l.4-.3A5.4,5.4,0,0,1,10.6,52l33.7.3L75.5,52H78m0-3H75.5l-31.2.3L10.6,49a8,8,0,0,0-5.8,2.5l-.3.3L2,53.9l-.6.4-.4.5a4.8,4.8,0,0,0-1,2.9v2.7a5,5,0,0,0,5.1,4.8H83.5a5,5,0,0,0,5.1-4.8V57.7a4.8,4.8,0,0,0-1-2.9l-.4-.5-.6-.4-2.8-2.4A8,8,0,0,0,78,49Z" style="fill:#7c3505"/><path d="M81.8,53.7A5.4,5.4,0,0,0,78,52l-33.7.3L10.6,52a5.4,5.4,0,0,0-3.8,1.7L3.4,56.6c0,1.1.6,3.5,1.9,3.5h78c1.3,0,1.9-2.4,1.9-3.5Z" style="fill:#d07a41"/><path d="M83.3,60.1c1.3,0,1.9-2.4,1.9-3.5l-3.4-2.9A5.4,5.4,0,0,0,78,52H75.5a13.4,13.4,0,0,1-6.1,1.4c-20.5,1.2-41.1,1.4-61.7.8L6.4,54l-3,2.6c0,1.1.6,3.5,1.9,3.5h78Z" style="fill:#fff;opacity:0.21"/><path d="M83.5,55.9H5.1A1.9,1.9,0,0,0,3,57.7v2.7a1.9,1.9,0,0,0,2.1,1.8H83.5a1.9,1.9,0,0,0,2.1-1.8V57.7A1.9,1.9,0,0,0,83.5,55.9Z" style="fill:#ae6432"/></g></g></g></g></svg>