<svg xmlns="http://www.w3.org/2000/svg" xmlns:xlink="http://www.w3.org/1999/xlink" width="89.5" height="99.5" viewBox="0 0 89.5 99.5"><defs><clipPath id="clip-path" transform="translate(1.5 10.5)"><path d="M74,41.2H69.8a15,15,0,0,0-7.2,1.6l-4.2,2.3c-.8.5-2.6.2-2.6-.4V36.1c-.1,1.2-5.4,2.2-12.2,2.4a17.3,17.3,0,0,1-5.3-1.4l-.6-.3a3.1,3.1,0,0,0-.7-.9,4.6,4.6,0,0,0-4-1.2l-.9-.5c-.1-.1-.2-.1-.2-.2s-1.2.2-2-.6A4.6,4.6,0,0,0,27,32.3c-.2,0-.4.2-.5.5h0c-.9-2.1-2.3-1.5-2.6-1.3s-.1,0-.1.1a8.9,8.9,0,0,1,.5,2.5c.3,2.3,1,16.4,1.4,25.6h0c0,.3-1.1,11-4.6,17.9a15.9,15.9,0,0,1-1.3,2.2h0l-.5.8h0l-2.2,3.6c-.6.9,1.4,1.6,3.3,1.3a48.8,48.8,0,0,1,18.3,0c10,1.8,8.6-1.9,17.1-.6a75.3,75.3,0,0,0,14.2.5c2.9-.1,4-1.7,1.8-2.5l-5.2-2h0c-8.9-2.3-8.1-26.3,0-31.8,4.8-3.2,7.6-5.4,9.1-6.6S75.5,41.2,74,41.2Z" style="fill:none"/></clipPath><clipPath id="clip-path-2" transform="translate(1.5 10.5)"><path d="M1.5,38.5c.2-2.7,1.6-5.5,5.7-7.4,0,0-4.4-13.3,11.1-12.9,0,0-1.7-13.8,15.2-16.4S55.2,13.6,55.2,13.6s10-6.1,17.3.9a14.8,14.8,0,0,1,3.7,15.9s9.4,9.5-1,16.1C66.6,51.8,24.7,49,9.8,47.8A9,9,0,0,1,1.5,38.5Z" style="fill:none"/></clipPath><clipPath id="clip-path-3" transform="translate(1.5 10.5)"><path d="M54.4,50.1a3.4,3.4,0,0,1,2.3-3s-1.8-5.5,4.5-5.3c0,0-.6-5.7,6.3-6.7a7.6,7.6,0,0,1,8.8,4.8s4.1-2.5,7.1.4a6.1,6.1,0,0,1,1.5,6.5s3.8,3.9-.4,6.5-20.6,1.1-26.7.6A3.7,3.7,0,0,1,54.4,50.1Z" style="fill:none"/></clipPath></defs><g style="isolation:isolate"><g id="Layer_2" data-name="Layer 2"><g id="Layer_1-2" data-name="Layer 1"><g id="Squirrel_toy_4" data-name="Squirrel_toy 4"><rect x="2.1" y="11.3" width="86.6" height="86.59" style="fill:none;stroke:#db9b53;stroke-miterlimit:10;mix-blend-mode:multiply"/><path d="M19.8,79.8l-.5.8A3.5,3.5,0,0,1,19.8,79.8Z" transform="translate(1.5 10.5)" style="fill:#966735"/><path d="M43.6,87.5c-1.5,0-3.1-.2-5.1-.4a57.4,57.4,0,0,0-9.3-.7,58.1,58.1,0,0,0-8.6.6H19.4c-.7,0-3-.1-3.7-1.5a1.7,1.7,0,0,1,.2-2l2.2-2.9a2.3,2.3,0,0,1,.5-.7h.1a9.9,9.9,0,0,0,1.1-1.7c3.2-5.1,4.3-13.1,4.4-14.1-.6-11.9-1.2-19.5-1.4-21a4.3,4.3,0,0,0-.4-1.7v-.2a1.6,1.6,0,0,1,.9-1.8,3.2,3.2,0,0,1,1.4-.3,3,3,0,0,1,2.2.9h.3a6.5,6.5,0,0,1,3.5,1.1H31a3,3,0,0,1,1.6.5l.3.2H34a5.9,5.9,0,0,1,4,1.4l.6.7h.3a17,17,0,0,0,4.8,1.1c6.6-.2,10-.9,10.9-1.3a1.4,1.4,0,0,1,1.2-.7H56a1.4,1.4,0,0,1,1.3,1.5v6.2h.5L62,48.8a19.3,19.3,0,0,1,7.8-1.5H74c1.8,0,3.1.7,3.4,1.8a1.8,1.8,0,0,1-.9,2.1c-1.5,1-4.3,2.8-9.1,5.5S61,67.2,61.9,73.1c.3,1.9,1.4,6.4,5,7.2.1,0,.2,0,.2.1L72.3,82c2.2.6,2.2,2,2.2,2.6s-1.9,2.3-4.4,2.4H65.2a84.4,84.4,0,0,1-9.6-.5l-3.1-.3a14.1,14.1,0,0,0-4,.6A19.7,19.7,0,0,1,43.6,87.5Z" transform="translate(1.5 10.5)" style="fill:#924f28"/><path d="M24.7,40.6a1.9,1.9,0,0,1,1.8,1.3h0a.7.7,0,0,1,.5-.4h.2a5.7,5.7,0,0,1,2.7.9.9.9,0,0,0,.6.3H31l.9.3h.2l.9.5h1a4.2,4.2,0,0,1,3,1.1,2.3,2.3,0,0,1,.7.7l.6.2a18.1,18.1,0,0,0,5.3,1.2c6.8-.2,12.1-1,12.2-2v7.2c0,.3.8.5,1.5.5l1.1-.2,4.2-2a18.2,18.2,0,0,1,7.2-1.3H74c1.5,0,2.4.6,1.7,1.1s-4.3,2.8-9.1,5.5c-8.1,4.6-8.9,24.5,0,26.4h0l5.2,1.6c2.2.7,1.1,2-1.8,2.1H65.2a71.2,71.2,0,0,1-9.4-.5l-3.3-.3c-3.8,0-4.9,1.2-8.9,1.2a33.9,33.9,0,0,1-4.9-.4,61.6,61.6,0,0,0-9.5-.7,58.9,58.9,0,0,0-8.8.6h-1c-1.5,0-2.8-.5-2.3-1.1l2.2-3h0l.5-.6h0A12.7,12.7,0,0,0,21.1,79c3.5-5.7,4.6-14.6,4.6-14.8h0c-.4-7.7-1.1-19.3-1.4-21.3a7.1,7.1,0,0,0-.5-2.1h.1l.8-.2m0-3h0a4.6,4.6,0,0,0-2,.4,3.1,3.1,0,0,0-1.8,3.6.4.4,0,0,1,.1.3,4.7,4.7,0,0,1,.4,1.4c.1,1.4.6,9,1.3,20.8-.3,2.5-1.6,9.2-4.2,13.3a5.6,5.6,0,0,1-1,1.5h-.2a2.1,2.1,0,0,1-.4.6h-.1c-.6.9-1.3,1.9-2.1,2.9a3.2,3.2,0,0,0-.4,3.5c1.1,2.2,3.9,2.4,5.1,2.4h1.4a56.3,56.3,0,0,1,8.4-.6,68.4,68.4,0,0,1,9.1.6,37.4,37.4,0,0,0,5.3.5,21,21,0,0,0,5.2-.7,17.4,17.4,0,0,1,3.7-.5l3,.3a86.4,86.4,0,0,0,9.7.5h4.9c3.4-.1,5.5-1.5,5.8-3.7.1-.6.3-3.2-3.2-4.3l-5.1-1.6h-.4c-2.7-.5-3.5-4.3-3.8-6C62.5,66.9,64.7,60,68.1,58s7.7-4.5,9.3-5.6a3.2,3.2,0,0,0,1.4-3.8c-.5-1.7-2.3-2.8-4.8-2.8H69.8a21.5,21.5,0,0,0-8.5,1.6l-2.5,1.2v-4a3,3,0,0,0-2.7-3h-.3a3.1,3.1,0,0,0-2.2.9c-1.1.4-4.3,1-9.9,1.1a14.9,14.9,0,0,1-4.2-.9c-.1-.2-.3-.3-.5-.5a7.3,7.3,0,0,0-5-1.8h-.6a5.1,5.1,0,0,0-2.3-.7,7.3,7.3,0,0,0-3.7-1.1,4.4,4.4,0,0,0-2.7-.9Z" transform="translate(1.5 10.5)" style="fill:#6a3417"/><path d="M55.8,44.5h0c-.1,1-5.4,1.8-12.2,2a18.1,18.1,0,0,1-5.3-1.2l-.6-.2a2.3,2.3,0,0,0-.7-.7,4.7,4.7,0,0,0-4-1l-.9-.5h-.2a82,82,0,0,1,9.4-.5C49.3,42.4,55.8,43.3,55.8,44.5Z" transform="translate(1.5 10.5)" style="fill:#ce894a;stroke:#6a3417;stroke-miterlimit:10;stroke-width:3px"/><g style="opacity:0.65"><path d="M26.5,44.9a42.7,42.7,0,0,1,3.3,5.8A20.3,20.3,0,0,1,31,55.4a20.5,20.5,0,0,1-.6,9.5,33.6,33.6,0,0,1-1.7,4.7l-1.9,4.6-2.1,4.7-2,4.7c.5-1.6,1.1-3.1,1.7-4.7l1.7-4.7c.6-1.6,1.3-3.1,1.9-4.7a37.1,37.1,0,0,0,1.6-4.7,21.4,21.4,0,0,0,.8-9.4,19,19,0,0,0-1-4.6A46,46,0,0,0,26.5,44.9Z" transform="translate(1.5 10.5)" style="fill:#75411a"/></g><g style="opacity:0.65"><path d="M39.6,47.2a11.9,11.9,0,0,1,2,8.2,24,24,0,0,1-2.8,8.3c-1.5,2.7-3.2,5.4-4.8,8s-1.6,2.7-2.3,4.1a6.5,6.5,0,0,0-.7,4.1,4.4,4.4,0,0,0,1,1.9l.5.5.6.4a5.2,5.2,0,0,0,1.5.7h2.9l.7-.4a3.1,3.1,0,0,0,1.1-.8,6.1,6.1,0,0,0,.7-1,14.7,14.7,0,0,0,2.2-8.2,7.6,7.6,0,0,0-.3-2.1,5.4,5.4,0,0,0-1.6-1.9l-.6-.3h-.8a.7.7,0,0,0-.6.3l-.5.4-1.1,2c-1.3,2.7-1.4,5.5-1.6,8.3h-.3a17.4,17.4,0,0,0,2.7-3.7A9.8,9.8,0,0,0,38.7,72h0c-1.1.3-1.7,1-1.2,1.6s0-1.3,1.2-1.6h.1a11.2,11.2,0,0,1-1,3.9,15.2,15.2,0,0,1-2.7,3.7l-.4.4v-.4c.1-1.4.1-2.8.3-4.2a15.5,15.5,0,0,1,.4-2.1,9.6,9.6,0,0,1,.7-2,21.2,21.2,0,0,1,1.1-2.1l.5-.5.9-.4H40l.9.5a3.7,3.7,0,0,1,1.6,2,5.2,5.2,0,0,1,.4,2.1,14.2,14.2,0,0,1-2.2,8.3l-.3.5-.4.5-1.2.9a2,2,0,0,1-.8.4H36.8a6.9,6.9,0,0,1-2.5-.1,5.1,5.1,0,0,1-1.8-.8l-.4-.2-.2-.3-.6-.4a4.3,4.3,0,0,1-1.1-2.1,7.1,7.1,0,0,1,.8-4.2c.7-1.4,1.5-2.7,2.3-4s3.4-5.4,4.9-8.1a37.3,37.3,0,0,0,2-4,21.7,21.7,0,0,0,1.1-4.2A12.3,12.3,0,0,0,39.6,47.2Z" transform="translate(1.5 10.5)" style="fill:#75411a"/></g><g style="opacity:0.65"><path d="M52.5,46.3a39.3,39.3,0,0,0-1.8,4.3A36.6,36.6,0,0,0,49.4,55a32.1,32.1,0,0,0-.7,4.3,32.4,32.4,0,0,0-.2,4.4,32.5,32.5,0,0,0,.3,4.4,33.4,33.4,0,0,0,1,4.3,15.6,15.6,0,0,0,2.1,4.3,16.5,16.5,0,0,0,4,3.9l.7.5.7.4.7.4.4.2.4.2.8.4.9.4h1.7a.6.6,0,0,0,.1-.4c-.1-.2-.1-.4-.2-.6l-.4-1.1-.8-2.1c-1-2.9-2.1-5.8-3-8.7l-.6-2.2L57,66.8a3.6,3.6,0,0,1-.2-1.1l-.2-1-.2-1.1V56.4c0-.2.1-.3.1-.5V54.8a3,3,0,0,0-.4-1,2.7,2.7,0,0,0-1.2-.9h.6a5.5,5.5,0,0,0-2.4,2.7,11.1,11.1,0,0,0-.8,3c-.2,2.1-.5,4.1-.5,6.1a16.1,16.1,0,0,0,.1,3.1v1.5l.2.7.2.8v.4l.2.4.3.7.3.7.2.4.2.4.4.7.5.7.2.4.3.4.6.7h-.4a22,22,0,0,0,.5-3.7c.1-1.2.1-2.4.1-3.7a33.5,33.5,0,0,0-1.5-7.4,28.3,28.3,0,0,1,1.7,7.4c.1,1.3.1,2.5.1,3.7a22,22,0,0,1-.5,3.7v.4l-.3-.3-.6-.8-.3-.3-.2-.4-.5-.7-.5-.8-.2-.3-.2-.4-.3-.8-.3-.7-.2-.4v-.4l-.2-.7-.2-.8v-.8l-.2-.7a16.1,16.1,0,0,1-.1-3.1,32,32,0,0,1,.5-6.1,8.2,8.2,0,0,1,.7-3,6.6,6.6,0,0,1,2.5-2.9l.2-.2.3.2a2.3,2.3,0,0,1,1.3,1,1.6,1.6,0,0,1,.5,1.1,16.2,16.2,0,0,1-.1,2.2v4.3a38,38,0,0,0,1.7,8.8c.8,2.9,1.9,5.7,3,8.6l.7,2.2.4,1.1.2.5c0,.2.1.4-.2.6s-.3.2-.5.3h-.8l-1.3-.2L59.1,83l-.8-.4-.4-.2-.4-.3-.8-.4-.7-.4-.7-.5a16.8,16.8,0,0,1-4-4,17.1,17.1,0,0,1-2.1-4.3,24.6,24.6,0,0,1-.9-4.4,32.4,32.4,0,0,1,0-8.8c.2-1.4.5-2.9.8-4.4s.9-2.9,1.4-4.3A41.4,41.4,0,0,1,52.5,46.3Z" transform="translate(1.5 10.5)" style="fill:#75411a"/></g><g style="clip-path:url(#clip-path)"><path d="M43.9,65h0A13.2,13.2,0,0,1,57,78.1V97.2a0,0,0,0,1,0,0H30.7a0,0,0,0,1,0,0V78.1A13.2,13.2,0,0,1,43.9,65Z" style="fill:#6a3417"/></g><g style="clip-path:url(#clip-path-2)"><path d="M1.5,38.5c.2-2.7,1.6-5.5,5.7-7.4,0,0-4.4-13.3,11.1-12.9,0,0-1.7-13.8,15.2-16.4S55.2,13.6,55.2,13.6s10-6.1,17.3.9a14.8,14.8,0,0,1,3.7,15.9s9.4,9.5-1,16.1C66.6,51.8,24.7,49,9.8,47.8A9,9,0,0,1,1.5,38.5Z" transform="translate(1.5 10.5)" style="fill:#6c9433;stroke:#507125;stroke-linecap:round;stroke-linejoin:round;stroke-width:3px"/><path d="M75.6-2.8c.4,2.8-.4,5.9-4,8.7,0,0,7.2,12.5-8.1,15.4,0,0,4.6,13.6-11.4,19.8s-23.8-7.4-23.8-7.4-8.4,8.3-17,2.8-7-15.3-7-15.3S-6.9,13.6,1.9,4.8C9.1-2.5,50.7-8.5,65.5-10.4A9.1,9.1,0,0,1,75.6-2.8Z" transform="translate(1.5 10.5)" style="fill:#96b85c"/></g><path d="M1.5,38.5c.2-2.7,1.6-5.5,5.7-7.4,0,0-4.4-13.3,11.1-12.9,0,0-1.7-13.8,15.2-16.4S55.2,13.6,55.2,13.6s10-6.1,17.3.9a14.8,14.8,0,0,1,3.7,15.9s9.4,9.5-1,16.1C66.6,51.8,24.7,49,9.8,47.8A9,9,0,0,1,1.5,38.5Z" transform="translate(1.5 10.5)" style="fill:none;stroke:#507125;stroke-linecap:round;stroke-linejoin:round;stroke-width:3px"/><path d="M34.9,13.5h.3a.1.1,0,0,0,.1-.1h.4v-.2a2.2,2.2,0,0,0-2.5-2.5c.5-.6,1.2-1.6.1-1.9s-1.5.6-1.6,1.5h0c-.1,0-.1,0-.1-.1h-.3a.1.1,0,0,0-.1-.1h0a2.5,2.5,0,0,0-3-.7c-1.8.9.7,2.3,1.5,2.7-1.5.1-4.6,1.9-3.3,3.8s4.6.2,5.3-1.4a3.4,3.4,0,0,0,2.7.7h.5Z" transform="translate(1.5 10.5)" style="fill:#ffeb81"/><path d="M42.8,17.4h.3a.1.1,0,0,0,.1-.1h.2v-.2a1.6,1.6,0,0,0-1.8-1.8c.4-.4.8-1.2,0-1.4s-1.1.5-1.1,1.1a.1.1,0,0,1-.1-.1h-.3a1.9,1.9,0,0,0-2.3-.5c-1.2.7.6,1.7,1.2,2-1.1,0-3.4,1.4-2.4,2.7s3.3.2,3.9-1a2.3,2.3,0,0,0,1.9.6h.4Z" transform="translate(1.5 10.5)" style="fill:#ffeb81"/><g style="clip-path:url(#clip-path-3)"><path d="M54.4,50.1a3.4,3.4,0,0,1,2.3-3s-1.8-5.5,4.5-5.3c0,0-.6-5.7,6.3-6.7a7.6,7.6,0,0,1,8.8,4.8s4.1-2.5,7.1.4a6.1,6.1,0,0,1,1.5,6.5s3.8,3.9-.4,6.5-20.6,1.1-26.7.6A3.7,3.7,0,0,1,54.4,50.1Z" transform="translate(1.5 10.5)" style="fill:#6c9433;stroke:#507125;stroke-linecap:round;stroke-linejoin:round;stroke-width:3px"/><path d="M84.7,33.2A3.7,3.7,0,0,1,83,36.7s3,5.2-3.3,6.3c0,0,1.9,5.6-4.6,8.1a7.6,7.6,0,0,1-9.7-3s-3.5,3.4-7,1.2A6.5,6.5,0,0,1,55.5,43s-4.5-3.1-1-6.7,20-5.4,26-6.2A3.8,3.8,0,0,1,84.7,33.2Z" transform="translate(1.5 10.5)" style="fill:#96b85c"/></g><path d="M54.4,50.1a3.4,3.4,0,0,1,2.3-3s-1.8-5.5,4.5-5.3c0,0-.6-5.7,6.3-6.7a7.6,7.6,0,0,1,8.8,4.8s4.1-2.5,7.1.4a6.1,6.1,0,0,1,1.5,6.5s3.8,3.9-.4,6.5-20.6,1.1-26.7.6A3.7,3.7,0,0,1,54.4,50.1Z" transform="translate(1.5 10.5)" style="fill:none;stroke:#507125;stroke-linecap:round;stroke-linejoin:round;stroke-width:3px"/></g></g></g></g></svg>