<svg xmlns="http://www.w3.org/2000/svg" xmlns:xlink="http://www.w3.org/1999/xlink" width="174.6" height="116.4" viewBox="0 0 174.6 116.4"><defs><clipPath id="clip-path" transform="translate(42.8 19.6)"><path d="M76.3,34.1a29.9,29.9,0,0,0-2.8-9.5A32.1,32.1,0,0,0,62.7,12a29.7,29.7,0,0,0-9.9-4.5,28.7,28.7,0,0,0-8.3-1.1,29.4,29.4,0,0,0-8.4,1.1A29.7,29.7,0,0,0,26.2,12,32.4,32.4,0,0,0,15.5,24.5,30,30,0,0,0,12.6,34a34.4,34.4,0,0,0-.3,4.6,33.4,33.4,0,0,0,1.9,11,29.9,29.9,0,0,0,4.1,7.7,31.4,31.4,0,0,0,11.3,9.8A27.3,27.3,0,0,0,37,69.8a30.8,30.8,0,0,0,7.5,1,28.4,28.4,0,0,0,7.2-.9A27.7,27.7,0,0,0,59,67.3a32.1,32.1,0,0,0,11.5-9.8,31.6,31.6,0,0,0,4.1-7.7,30.1,30.1,0,0,0,2.1-11.2A22.2,22.2,0,0,0,76.3,34.1Zm-6,12.1a33.3,33.3,0,0,1-2.7,6.1,26.7,26.7,0,0,1-10.2,9.8,21.6,21.6,0,0,1-6.1,2.4,24.8,24.8,0,0,1-6.8,1,27.8,27.8,0,0,1-7.2-1A25.2,25.2,0,0,1,31.2,62,26.9,26.9,0,0,1,18.6,46a26.4,26.4,0,0,1-1-7.4,25.3,25.3,0,0,1,.8-6.8,28.5,28.5,0,0,1,2.5-6.3,27.2,27.2,0,0,1,10-10.2,24.2,24.2,0,0,1,6.4-2.7,28.4,28.4,0,0,1,7.2-.9,27.1,27.1,0,0,1,7.1.9,24.8,24.8,0,0,1,6.5,2.7A26.5,26.5,0,0,1,68,25.6,22.5,22.5,0,0,1,70.5,32a23.4,23.4,0,0,1,.9,6.6A27.4,27.4,0,0,1,70.3,46.2Z" style="fill:none"/></clipPath><clipPath id="clip-path-2" transform="translate(42.8 19.6)"><rect x="-42.8" y="-19.6" width="174.6" height="116.39" style="fill:none"/></clipPath></defs><g style="isolation:isolate"><g id="Layer_2" data-name="Layer 2"><g id="Layer_1-2" data-name="Layer 1"><g id="Squirrel_toy_3" data-name="Squirrel_toy 3"><rect x="44.1" y="20.5" width="86.6" height="86.59" style="fill:none;stroke:#db9b53;stroke-miterlimit:10;mix-blend-mode:multiply"/><g id="toy_1" data-name="toy 1"><path d="M20.6,56.1a1.7,1.7,0,0,1-1.4-.9l-1.5-3.7a2.1,2.1,0,0,1,0-1.1,1.4,1.4,0,0,1,.9-.8L68.1,29.3h1.1a1.5,1.5,0,0,1,.8.8l1.5,3.7a1.4,1.4,0,0,1-.8,1.9L21.2,56Z" transform="translate(42.8 19.6)" style="fill:#ddab88"/><path d="M68.6,30.7l1.5,3.6L20.6,54.6,19.1,51,68.6,30.7m0-3-1.1.2L18,48.2a3.1,3.1,0,0,0-1.6,1.6,2.7,2.7,0,0,0,0,2.3l1.4,3.6a3,3,0,0,0,2.8,1.9l1.1-.2L71.3,37.1a3.1,3.1,0,0,0,1.6-1.6,3.1,3.1,0,0,0,0-2.3l-1.5-3.6a2.9,2.9,0,0,0-2.8-1.9Z" transform="translate(42.8 19.6)" style="fill:#924f28"/><path d="M16.9,83.7a1.6,1.6,0,0,1-1.3-.8,1.8,1.8,0,0,1,.1-1.6l8.1-11.8,18.5-27a1.7,1.7,0,0,1,1.3-.7h1.9a1.3,1.3,0,0,1,1.3.8,1.5,1.5,0,0,1,0,1.6L29.7,69.1l-2.2,3.1L20.1,83a1.5,1.5,0,0,1-1.2.7Z" transform="translate(42.8 19.6)" style="fill:#f9d4bb"/><path d="M45.5,43.3v.2l-.9,1.4-16,23.4-2.2,3L18.9,82.2h-2l8.2-11.8,2.1-3.1L43.5,43.5v-.2h1.9m0-3H43.6a2.9,2.9,0,0,0-2.5,1.4H41L24.7,65.6l-2.1,3.1L14.5,80.5a3,3,0,0,0,2.4,4.7h2a3.1,3.1,0,0,0,2.5-1.3L28.8,73l2.1-3,16-23.4,1-1.4V45a3.1,3.1,0,0,0,.2-3.1,3.2,3.2,0,0,0-2.7-1.6Zm0,6Z" transform="translate(42.8 19.6)" style="fill:#924f28"/><path d="M70,83.7a1.7,1.7,0,0,1-1.2-.7L61.5,72.4l-2.1-3.1L42.2,44.2a1.5,1.5,0,0,1-.1-1.6,1.6,1.6,0,0,1,1.3-.8h2a1.5,1.5,0,0,1,1.2.7L63.1,66.6l2.1,3.1,8,11.6a1.5,1.5,0,0,1,.1,1.6,1.4,1.4,0,0,1-1.3.8Z" transform="translate(42.8 19.6)" style="fill:#f9d4bb"/><path d="M45.4,43.3v.2l16.5,24,2.1,3,8,11.7H70L62.8,71.5l-2.2-3.1L44.5,44.9l-1-1.4v-.2h2m0-3h-2A3.1,3.1,0,0,0,40.9,45H41l1,1.5L58.1,70.1l2.2,3.1,7.3,10.7A2.9,2.9,0,0,0,70,85.2h2a3.1,3.1,0,0,0,2.5-4.7l-8-11.7-2.1-3-16.5-24h0a3,3,0,0,0-2.5-1.4Z" transform="translate(42.8 19.6)" style="fill:#924f28"/><path d="M47.2,43.5A3.2,3.2,0,0,0,45,40.4l-4.2,1.7a3.2,3.2,0,0,0-.3,1.4A3.3,3.3,0,0,0,41.7,46l5.4-2.3C47.1,43.6,47.2,43.6,47.2,43.5Z" transform="translate(42.8 19.6)" style="fill:#929da8;mix-blend-mode:multiply;opacity:0.30000000000000004"/><path d="M43.5,43.5l-1.8,2.6a3.2,3.2,0,0,0,1.3,1l1.5-2.2.9-1.4v-.2H43.6Z" transform="translate(42.8 19.6)" style="fill:#a7b5c2;mix-blend-mode:multiply;opacity:0.30000000000000004"/><path d="M45.4,43.5v-.2h-2v.2l1,1.4L46,47.1a3,3,0,0,0,1.3-.9Z" transform="translate(42.8 19.6)" style="fill:#a7b5c2;mix-blend-mode:multiply;opacity:0.30000000000000004"/><circle cx="87.4" cy="62.3" r="4.8" style="fill:#f9d4bb"/><path d="M44.6,39.3a3.4,3.4,0,1,1-3.3,3.3,3.4,3.4,0,0,1,3.3-3.3m0-3a6.3,6.3,0,0,0-6.3,6.3A6.4,6.4,0,0,0,44.6,49,6.4,6.4,0,0,0,51,42.6a6.4,6.4,0,0,0-6.4-6.3Z" transform="translate(42.8 19.6)" style="fill:#924f28"/><path d="M44.6,44.7a2.1,2.1,0,1,1,0-4.1,2,2,0,0,1,2.1,2A2.1,2.1,0,0,1,44.6,44.7Z" transform="translate(42.8 19.6)" style="fill:#a7b5c2;mix-blend-mode:multiply;opacity:0.30000000000000004"/><path d="M44.6,43.6a1,1,0,0,1-.9-1,.9.9,0,0,1,1.8,0A1,1,0,0,1,44.6,43.6Z" transform="translate(42.8 19.6)" style="fill:#a7b5c2;mix-blend-mode:multiply;opacity:0.30000000000000004"/><path d="M44.5,72.3a34.9,34.9,0,0,1-7.9-1,28.1,28.1,0,0,1-7.7-2.9A34,34,0,0,1,17.1,58.2a30.1,30.1,0,0,1-4.3-8.1,33.9,33.9,0,0,1-2-11.5,23.7,23.7,0,0,1,.4-4.9,29.8,29.8,0,0,1,3-9.9,32.7,32.7,0,0,1,11.2-13A33.9,33.9,0,0,1,35.8,6a30.5,30.5,0,0,1,8.7-1.1A31.5,31.5,0,0,1,53.2,6,33.6,33.6,0,0,1,77.8,33.9a22.3,22.3,0,0,1,.4,4.7,32.8,32.8,0,0,1-2.1,11.7,35.6,35.6,0,0,1-4.4,8.1,33.8,33.8,0,0,1-12,10.2A32.5,32.5,0,0,1,52,71.4,30.8,30.8,0,0,1,44.5,72.3Zm0-59.1a24.8,24.8,0,0,0-6.8.9,21.2,21.2,0,0,0-6,2.5,25.7,25.7,0,0,0-9.5,9.6,25.7,25.7,0,0,0-2.3,6,22,22,0,0,0-.8,6.4,24.2,24.2,0,0,0,1,7,20.8,20.8,0,0,0,2.4,5.7A25.2,25.2,0,0,0,32,60.7a26.4,26.4,0,0,0,5.7,2.4,24.8,24.8,0,0,0,6.8.9,22.5,22.5,0,0,0,6.4-.9,24.2,24.2,0,0,0,5.8-2.3,25.2,25.2,0,0,0,9.6-9.3,23.1,23.1,0,0,0,2.5-5.8,23.5,23.5,0,0,0,1.1-7.1,24.5,24.5,0,0,0-.8-6.2,21.6,21.6,0,0,0-2.4-6.1,25,25,0,0,0-9.4-9.7,21.8,21.8,0,0,0-6.1-2.5A24.6,24.6,0,0,0,44.5,13.2Z" transform="translate(42.8 19.6)" style="fill:#ffaa5a"/><path d="M44.5,6.4a28.7,28.7,0,0,1,8.3,1.1A29.7,29.7,0,0,1,62.7,12,32.1,32.1,0,0,1,73.5,24.6a29.9,29.9,0,0,1,2.8,9.5,22.2,22.2,0,0,1,.4,4.5,30.1,30.1,0,0,1-2.1,11.2,31.6,31.6,0,0,1-4.1,7.7A32.1,32.1,0,0,1,59,67.3a27.7,27.7,0,0,1-7.3,2.6,28.4,28.4,0,0,1-7.2.9,30.8,30.8,0,0,1-7.5-1,27.3,27.3,0,0,1-7.4-2.7,31.4,31.4,0,0,1-11.3-9.8,29.9,29.9,0,0,1-4.1-7.7,33.4,33.4,0,0,1-1.9-11,34.4,34.4,0,0,1,.3-4.6,30,30,0,0,1,2.9-9.5A32.4,32.4,0,0,1,26.2,12a29.7,29.7,0,0,1,9.9-4.5,29.4,29.4,0,0,1,8.4-1.1m0,59.1a24.8,24.8,0,0,0,6.8-1,21.6,21.6,0,0,0,6.1-2.4,26.7,26.7,0,0,0,10.2-9.8,33.3,33.3,0,0,0,2.7-6.1,27.4,27.4,0,0,0,1.1-7.6,23.4,23.4,0,0,0-.9-6.6A22.5,22.5,0,0,0,68,25.6a26.5,26.5,0,0,0-9.9-10.3,24.8,24.8,0,0,0-6.5-2.7,27.1,27.1,0,0,0-7.1-.9,28.4,28.4,0,0,0-7.2.9,24.2,24.2,0,0,0-6.4,2.7,27.2,27.2,0,0,0-10,10.2,28.5,28.5,0,0,0-2.5,6.3,25.3,25.3,0,0,0-.8,6.8,26.4,26.4,0,0,0,1,7.4A26.9,26.9,0,0,0,31.2,62a25.2,25.2,0,0,0,6.1,2.5,27.8,27.8,0,0,0,7.2,1m0-62.1a33.9,33.9,0,0,0-9.1,1.2,32.6,32.6,0,0,0-10.9,5A34.6,34.6,0,0,0,12.8,23.1,32.7,32.7,0,0,0,9.7,33.5a26.4,26.4,0,0,0-.4,5.1,34.8,34.8,0,0,0,2.1,12,36.5,36.5,0,0,0,4.5,8.5A37.2,37.2,0,0,0,28.2,69.8a33.3,33.3,0,0,0,8.1,3,36.8,36.8,0,0,0,8.2,1,33.3,33.3,0,0,0,7.8-.9,30.5,30.5,0,0,0,8.1-3A34.5,34.5,0,0,0,72.9,59.3a33.5,33.5,0,0,0,4.6-8.5,35.2,35.2,0,0,0,2.2-12.2,33.4,33.4,0,0,0-.4-4.9,32,32,0,0,0-3.2-10.5A34,34,0,0,0,64.4,9.6a32.2,32.2,0,0,0-10.8-5,34.4,34.4,0,0,0-9.1-1.2Zm0,59.1a22,22,0,0,1-6.4-.9,22.7,22.7,0,0,1-5.3-2.2h-.1a23.9,23.9,0,0,1-8.9-8.7h0a23,23,0,0,1-2.3-5.3h0a23.7,23.7,0,0,1-.9-6.5,21.2,21.2,0,0,1,.7-5.9v-.2a29.6,29.6,0,0,1,2.2-5.6,25.6,25.6,0,0,1,8.9-9h0a20.3,20.3,0,0,1,5.7-2.4h.1a20.9,20.9,0,0,1,6.3-.8,21.8,21.8,0,0,1,6.3.8h.1a18.6,18.6,0,0,1,5.6,2.4h0A23.6,23.6,0,0,1,65.4,27a19.8,19.8,0,0,1,2.2,5.7h0a22.7,22.7,0,0,1,.8,5.9,24.7,24.7,0,0,1-1,6.7A26.1,26.1,0,0,1,65,50.7h0a25,25,0,0,1-9,8.7,24.1,24.1,0,0,1-5.4,2.1h-.1a24.1,24.1,0,0,1-6,.8Z" transform="translate(42.8 19.6)" style="fill:#dd7652"/><g style="clip-path:url(#clip-path)"><g style="clip-path:url(#clip-path-2)"><polygon points="87.3 58.2 71.7 0 53.7 0 87.3 58.2" style="fill:#98d9e4;fill-rule:evenodd"/><polygon points="87.3 0 87.3 58.2 102.9 0 87.3 0" style="fill:#98d9e4;fill-rule:evenodd"/><polygon points="120.9 0 87.3 58.2 145.5 0 120.9 0" style="fill:#98d9e4;fill-rule:evenodd"/><polygon points="174.6 7.8 87.3 58.2 174.6 34.8 174.6 7.8" style="fill:#98d9e4;fill-rule:evenodd"/><polygon points="174.6 58.2 87.3 58.2 174.6 81.6 174.6 58.2" style="fill:#98d9e4;fill-rule:evenodd"/><polygon points="174.6 108.6 87.3 58.2 145.5 116.4 174.6 116.4 174.6 108.6" style="fill:#98d9e4;fill-rule:evenodd"/><polygon points="120.9 116.4 87.3 58.2 102.9 116.4 120.9 116.4" style="fill:#98d9e4;fill-rule:evenodd"/><polygon points="87.3 116.4 87.3 58.2 71.7 116.4 87.3 116.4" style="fill:#98d9e4;fill-rule:evenodd"/><polygon points="53.7 116.4 87.3 58.2 29.1 116.4 53.7 116.4" style="fill:#98d9e4;fill-rule:evenodd"/><polygon points="0 108.6 87.3 58.2 0 81.6 0 108.6" style="fill:#98d9e4;fill-rule:evenodd"/><polygon points="0 58.2 87.3 58.2 0 34.8 0 58.2" style="fill:#98d9e4;fill-rule:evenodd"/><polygon points="0 7.8 87.3 58.2 29.1 0 0 0 0 7.8" style="fill:#98d9e4;fill-rule:evenodd"/><polygon points="98.7 116.4 93.8 96.4 94.7 116.4 98.7 116.4" style="fill:#98d9e4;fill-rule:evenodd"/></g></g><path d="M44.5,3A35.6,35.6,0,1,0,80,38.6,35.6,35.6,0,0,0,44.5,3Zm0,67.8A32.2,32.2,0,1,1,76.7,38.6,32.2,32.2,0,0,1,44.5,70.8Z" transform="translate(42.8 19.6)" style="fill:#ffeb81"/><path d="M44.5,3A35.6,35.6,0,1,1,8.9,38.6,35.5,35.5,0,0,1,44.5,3m0-3A38.6,38.6,0,1,0,83,38.6,38.6,38.6,0,0,0,44.5,0Z" transform="translate(42.8 19.6)" style="fill:#ffaa5a"/><path d="M62.7,73h-.2a1.7,1.7,0,0,1-1-.6l-2.2-3.1a1.5,1.5,0,0,1,.4-2.1l1.2-.9a1.6,1.6,0,0,1,.9-.3h.3a1.5,1.5,0,0,1,1,.6l2.1,3.1a1.5,1.5,0,0,1-.3,2l-.7.5-.6.5A1.4,1.4,0,0,1,62.7,73Zm-36.5-.2a1.3,1.3,0,0,1-.8-.2A11,11,0,0,1,24,71.5a1.4,1.4,0,0,1-.2-2l2.1-3.1a1.7,1.7,0,0,1,1-.6h.2a1.4,1.4,0,0,1,.9.3l1.2.9a1.5,1.5,0,0,1,.4,2.1l-2.1,3.1A1.6,1.6,0,0,1,26.2,72.8Z" transform="translate(42.8 19.6)" style="fill:#f9d4bb"/><path d="M27.1,67.3l1.3,1-2.2,3L25,70.4l2.1-3.1m34.7.2,2.1,3-1.2,1-2.2-3.1,1.3-.9M27.1,64.3h-.4a3.3,3.3,0,0,0-2.1,1.3l-2.1,3.1a3.1,3.1,0,0,0,.5,3.9l1.6,1.3a3.2,3.2,0,0,0,1.6.4,3,3,0,0,0,2.5-1.2L30.9,70a3.1,3.1,0,0,0-.7-4.2L29,65a2.8,2.8,0,0,0-1.9-.7Zm34.7.2a3,3,0,0,0-1.8.6l-1.2.9a2.9,2.9,0,0,0-.7,4.1l2.1,3.1a3,3,0,0,0,2.1,1.3h.4a3.3,3.3,0,0,0,1.9-.6l.5-.5.7-.5a3.1,3.1,0,0,0,.6-4.1l-2.1-3a3,3,0,0,0-2-1.3Z" transform="translate(42.8 19.6)" style="fill:#924f28"/><path d="M5.5,87.2a4.1,4.1,0,0,1,0-8.1H83.4a4.1,4.1,0,0,1,0,8.1Z" transform="translate(42.8 19.6)" style="fill:#e0626d"/><path d="M83.4,80.6a2.5,2.5,0,0,1,2.5,2.5,2.6,2.6,0,0,1-2.5,2.6H5.5A2.6,2.6,0,0,1,3,83.1a2.5,2.5,0,0,1,2.5-2.5H83.4m0-3H5.5a5.6,5.6,0,0,0,0,11.1H83.4a5.6,5.6,0,0,0,0-11.1Z" transform="translate(42.8 19.6)" style="fill:#b92321"/></g></g></g></g></g></svg>